<?xml version="1.0" encoding="UTF-8" standalone="no"?>
<svg width="16px" height="16px" viewBox="0 0 16 16" version="1.1" xmlns="http://www.w3.org/2000/svg" xmlns:xlink="http://www.w3.org/1999/xlink">
    <!-- Generator: Sketch 3.8.3 (29802) - http://www.bohemiancoding.com/sketch -->
    <title>bypass_flag</title>
    <desc>Created with Sketch.</desc>
    <defs></defs>
    <g id="Page-1" stroke="none" stroke-width="1" fill="none" fill-rule="evenodd">
        <g id="bypass_flag" fill="#FFD842">
            <path d="M13.5859375,7.5 C13.5859375,7.77604305 13.4895843,8.0104157 13.296875,8.203125 L8.2109375,13.296875 C8.00781148,13.4895843 7.77083469,13.5859375 7.5,13.5859375 C7.22395695,13.5859375 6.9895843,13.4895843 6.796875,13.296875 L1.7109375,8.203125 C1.51301984,8.01562406 1.4140625,7.78125141 1.4140625,7.5 C1.4140625,7.22395695 1.51301984,6.98698016 1.7109375,6.7890625 L2.2890625,6.203125 C2.49218852,6.0104157 2.72916531,5.9140625 3,5.9140625 C3.27604305,5.9140625 3.5104157,6.0104157 3.703125,6.203125 L6,8.5 L6,3 C6,2.72916531 6.09895734,2.49479266 6.296875,2.296875 C6.49479266,2.09895734 6.72916531,2 7,2 L8,2 C8.27083469,2 8.50520734,2.09895734 8.703125,2.296875 C8.90104266,2.49479266 9,2.72916531 9,3 L9,8.5 L11.296875,6.203125 C11.4895843,6.0104157 11.723957,5.9140625 12,5.9140625 C12.2708347,5.9140625 12.5078115,6.0104157 12.7109375,6.203125 L13.296875,6.7890625 C13.4895843,6.99218852 13.5859375,7.22916531 13.5859375,7.5 L13.5859375,7.5 Z" id="Bypass"></path>
        </g>
    </g>
</svg>