<?xml version="1.0" encoding="UTF-8" standalone="no"?>
<svg width="16px" height="16px" viewBox="0 0 16 16" version="1.1" xmlns="http://www.w3.org/2000/svg" xmlns:xlink="http://www.w3.org/1999/xlink">
    <!-- Generator: Sketch 3.7.2 (28276) - http://www.bohemiancoding.com/sketch -->
    <title>16</title>
    <desc>Created with Sketch.</desc>
    <defs></defs>
    <g id="Page-1" stroke="none" stroke-width="1" fill="none" fill-rule="evenodd">
        <g id="16">
            <g id="Group" transform="translate(1.000000, 2.000000)">
                <path d="M13.0625,7.51171875 C12.4374969,8.27995176 11.588547,8.88671652 10.515625,9.33203125 C9.44270297,9.77734598 8.27083969,10 7,10 C6.63541484,10 6.25781445,9.97916688 5.8671875,9.9375 C4.83593234,10.8489629 3.63802766,11.4791649 2.2734375,11.828125 C2.01822789,11.901042 1.72135586,11.9583331 1.3828125,12 C1.29427039,12.0104167 1.2148441,11.9869795 1.14453125,11.9296875 C1.0742184,11.8723955 1.02864594,11.7968755 1.0078125,11.703125 C0.992187422,11.6744791 0.990885352,11.6432294 1.00390625,11.6015625 C1.01692715,11.5598956 1.02213543,11.5338542 1.01953125,11.5234375 C1.01692707,11.5130208 1.0286457,11.4882814 1.0546875,11.4492188 C1.0807293,11.4101561 1.09635414,11.3867188 1.1015625,11.3789062 C1.10677086,11.3710937 1.12499984,11.3489585 1.15625,11.3125 C1.18750016,11.2760415 1.20833328,11.2526042 1.21875,11.2421875 C1.25520852,11.2005206 1.33593687,11.1106778 1.4609375,10.9726562 C1.58593813,10.8346347 1.67578098,10.7356774 1.73046875,10.6757812 C1.78515652,10.6158851 1.86588488,10.5130216 1.97265625,10.3671875 C2.07942762,10.2213534 2.16406219,10.0885423 2.2265625,9.96875 C2.28906281,9.84895773 2.35937461,9.69531344 2.4375,9.5078125 C2.51562539,9.32031156 2.58333305,9.12239687 2.640625,8.9140625 C1.82291258,8.45051852 1.17838777,7.87760758 0.70703125,7.1953125 C0.235674727,6.51301742 0,5.78125391 0,5 C0,4.32291328 0.184893984,3.67578434 0.5546875,3.05859375 C0.924481016,2.44140316 1.42187187,1.90885641 2.046875,1.4609375 C2.67187813,1.01301859 3.41666234,0.657553398 4.28125,0.39453125 C5.14583766,0.131509102 6.05207859,0 7,0 C8.27083969,0 9.44270297,0.222654023 10.515625,0.66796875 C11.588547,1.11328348 12.4374969,1.72004824 13.0625,2.48828125 C13.6875031,3.25651426 14,4.09374547 14,5 C14,5.90625453 13.6875031,6.74348574 13.0625,7.51171875 Z" id="Comment" fill="#25AAA3"></path>
                <rect id="Minus" fill="#000000" transform="translate(7.000000, 5.000000) rotate(-270.000000) translate(-7.000000, -5.000000) " x="6" y="1" width="2" height="8" rx="1"></rect>
                <rect id="Minus-Copy" fill="#000000" x="6" y="1" width="2" height="8" rx="1"></rect>
            </g>
        </g>
    </g>
</svg>