<?xml version="1.0" encoding="UTF-8" standalone="no"?>
<svg width="16px" height="16px" viewBox="0 0 16 16" version="1.1" xmlns="http://www.w3.org/2000/svg" xmlns:xlink="http://www.w3.org/1999/xlink">
    <!-- Generator: Sketch 3.8.3 (29802) - http://www.bohemiancoding.com/sketch -->
    <title>cop2_info</title>
    <desc>Created with Sketch.</desc>
    <defs>
        <rect id="path-1" x="1" y="2" width="14" height="12"></rect>
        <mask id="mask-2" maskContentUnits="userSpaceOnUse" maskUnits="objectBoundingBox" x="0" y="0" width="14" height="12" fill="white">
            <use xlink:href="#path-1"></use>
        </mask>
    </defs>
    <g id="Page-1" stroke="none" stroke-width="1" fill="none" fill-rule="evenodd">
        <g id="cop2_info">
            <use id="Rectangle-24" stroke="#000000" mask="url(#mask-2)" stroke-width="2" fill="#4990E2" xlink:href="#path-1"></use>
            <polygon id="Path" fill="#87D0CC" points="13.0714286 8.82142857 13.0714286 12.0714286 2.85714286 12.0714286 2.85714286 10.6785714 5.17857143 8.35714286 6.33928571 9.51785714 10.0535714 5.80357143"></polygon>
            <path d="M5.64285714,6.03571429 C5.64285714,6.42262098 5.50744183,6.75148674 5.23660714,7.02232143 C4.96577246,7.29315612 4.6369067,7.42857143 4.25,7.42857143 C3.8630933,7.42857143 3.53422754,7.29315612 3.26339286,7.02232143 C2.99255817,6.75148674 2.85714286,6.42262098 2.85714286,6.03571429 C2.85714286,5.64880759 2.99255817,5.31994183 3.26339286,5.04910714 C3.53422754,4.77827246 3.8630933,4.64285714 4.25,4.64285714 C4.6369067,4.64285714 4.96577246,4.77827246 5.23660714,5.04910714 C5.50744183,5.31994183 5.64285714,5.64880759 5.64285714,6.03571429 L5.64285714,6.03571429 Z" id="Path" fill="#F8E81C"></path>
        </g>
    </g>
</svg>