<?xml version="1.0" encoding="UTF-8" standalone="no"?>
<svg width="16px" height="16px" viewBox="0 0 16 16" version="1.1" xmlns="http://www.w3.org/2000/svg" xmlns:xlink="http://www.w3.org/1999/xlink">
    <!-- Generator: Sketch 3.8.3 (29802) - http://www.bohemiancoding.com/sketch -->
    <title>debug</title>
    <desc>Created with Sketch.</desc>
    <defs></defs>
    <g id="Page-1" stroke="none" stroke-width="1" fill="none" fill-rule="evenodd">
        <g id="debug" fill="#FFFFFF">
            <path d="M5.71428571,3.64285714 C5.71428571,2.99962476 5.94038092,2.45191818 6.39257812,1.99972098 C6.84477533,1.54752378 7.3924819,1.32142857 8.03571429,1.32142857 C8.67894667,1.32142857 9.22665324,1.54752378 9.67885045,1.99972098 C10.1310476,2.45191818 10.3571429,2.99962476 10.3571429,3.64285714 L5.71428571,3.64285714 Z" id="Path"></path>
            <path d="M13.8624707,9.73362344 C13.7674702,9.82844461 13.6549714,9.87585449 13.5249707,9.87585449 L11.8449707,9.87585449 C11.8449707,10.7292451 11.6725017,11.0256213 11.3375,11.6195013 L12.8975,13.1840429 C12.9925005,13.2788641 13.04,13.3911506 13.04,13.5209059 C13.04,13.6506612 12.9925005,13.7629478 12.8975,13.8577689 C12.8074996,13.9525901 12.6950007,14 12.56,14 C12.4249993,14 12.3125005,13.9525901 12.2225,13.8577689 L10.7375,12.3830575 C10.7124999,12.4080104 10.6750003,12.4404488 10.625,12.4803735 C10.5749998,12.5202982 10.4700008,12.591413 10.31,12.6937201 C10.1499992,12.7960271 9.25696897,13.8913574 9,14 L9,7 L7,7 L7,14 C6.78027705,13.71875 5.75875074,12.7386356 5.61125,12.6413191 C5.46374926,12.5440027 5.35500035,12.4629068 5.285,12.3980292 L5.1725,12.2932274 L3.8,13.8427973 C3.6999995,13.9475996 3.5800007,14 3.44,14 C3.3199994,14 3.21250048,13.9600759 3.1175,13.8802265 C3.02249953,13.7903959 2.97125004,13.679357 2.96375,13.5471064 C2.95624996,13.4148558 2.99499958,13.2988264 3.08,13.1990146 L4.595,11.4997278 C4.30499855,10.9308007 4.13916016,10.6822832 4.13916016,9.88378906 L2.45916016,9.88378906 C2.32915951,9.88378906 2.21666063,9.83637919 2.12166016,9.74155801 C2.02665968,9.64673683 1.97916016,9.53445028 1.97916016,9.40469499 C1.97916016,9.27493969 2.07060499,8.30589989 2.16560547,8.21107871 C2.26060594,8.11625753 2.37310482,8.06884766 2.50310547,8.06884766 L4.18310547,8.06884766 L4.16,6.2895797 L2.8625,4.99452853 C2.76749953,4.89970735 2.72,4.7874208 2.72,4.65766551 C2.72,4.52791021 2.76749953,4.41562366 2.8625,4.32080248 C2.95750048,4.22598131 3.06999935,4.17857143 3.2,4.17857143 C3.33000065,4.17857143 3.44249953,4.22598131 3.5375,4.32080248 L4.835,5.61585366 L11.165,5.61585366 L12.4625,4.32080248 C12.5575005,4.22598131 12.6699994,4.17857143 12.8,4.17857143 C12.9300007,4.17857143 13.0424995,4.22598131 13.1375,4.32080248 C13.2325005,4.41562366 13.28,4.52791021 13.28,4.65766551 C13.28,4.7874208 13.2325005,4.89970735 13.1375,4.99452853 L11.84,6.2895797 L11.8179248,8.04345703 L13.4979248,8.04345703 C13.6279255,8.04345703 13.7404243,8.09086691 13.8354248,8.18568809 C13.9304253,8.28050926 14.0049707,9.26700512 14.0049707,9.39676042 C14.0049707,9.52651571 13.9574712,9.63880226 13.8624707,9.73362344 Z" id="Path"></path>
        </g>
    </g>
</svg>