<?xml version="1.0" encoding="UTF-8" standalone="no"?>
<svg width="16px" height="16px" viewBox="0 0 16 16" version="1.1" xmlns="http://www.w3.org/2000/svg" xmlns:xlink="http://www.w3.org/1999/xlink">
    <!-- Generator: Sketch 3.8.3 (29802) - http://www.bohemiancoding.com/sketch -->
    <title>export_flag</title>
    <desc>Created with Sketch.</desc>
    <defs>
        <path d="M5.83984375,13 L4.37720958,13 C3.06431298,13 2,11.881981 2,10.5023733 L2,5.49762669 L2,5.49762669 C2,4.11822556 3.06718045,3 4.3796208,3 L5.72410996,3" id="path-1"></path>
        <mask id="mask-2" maskContentUnits="userSpaceOnUse" maskUnits="objectBoundingBox" x="0" y="0" width="3.83984375" height="10" fill="white">
            <use xlink:href="#path-1"></use>
        </mask>
    </defs>
    <g id="Page-1" stroke="none" stroke-width="1" fill="none" fill-rule="evenodd">
        <g id="export_flag">
            <path d="M13.839527,8.37006579 L9.24493243,12.84375 C9.13794992,12.9479172 9.01126199,13 8.86486486,13 C8.71846774,13 8.59177981,12.9479172 8.4847973,12.84375 C8.37781478,12.7395828 8.32432432,12.6162288 8.32432432,12.4736842 L8.32432432,10.1052632 L5.54054054,10.1052632 C5.39414341,10.1052632 5.26745549,10.0531803 5.16047297,9.94901316 C5.05349046,9.84484597 5,9.72149194 5,9.57894737 L5,6.42105263 C5,6.27850806 5.05349046,6.15515403 5.16047297,6.05098684 C5.26745549,5.94681965 5.39414341,5.89473684 5.54054054,5.89473684 L8.32432432,5.89473684 L8.32432432,3.52631579 C8.32432432,3.38377122 8.37781478,3.26041719 8.4847973,3.15625 C8.59177981,3.05208281 8.71846774,3 8.86486486,3 C9.01126199,3 9.13794992,3.05208281 9.24493243,3.15625 L13.839527,7.62993421 C13.9465095,7.7341014 14,7.85745543 14,8 C14,8.14254457 13.9465095,8.2658986 13.839527,8.37006579 Z" id="Path" fill="#FFA600"></path>
            <use id="Rectangle-1" stroke="#FFA600" mask="url(#mask-2)" stroke-width="2" stroke-linecap="round" xlink:href="#path-1"></use>
        </g>
    </g>
</svg>