<?xml version="1.0" encoding="UTF-8"?>
<svg width="16px" height="16px" viewBox="0 0 16 16" version="1.1" xmlns="http://www.w3.org/2000/svg" xmlns:xlink="http://www.w3.org/1999/xlink">
    <!-- Generator: Sketch 43.2 (39069) - http://www.bohemiancoding.com/sketch -->
    <title>filter_flag</title>
    <desc>Created with Sketch.</desc>
    <defs></defs>
    <g id="Page-1" stroke="none" stroke-width="1" fill="none" fill-rule="evenodd">
        <g id="filter_flag" fill="#42C998">
            <path d="M13.9675372,2.33238636 C14.0641286,2.56534207 14.0243563,2.76420372 13.848219,2.92897727 L9.49227073,6.73492432 L9.49227073,13.4545455 C9.49227073,13.693183 9.38147638,13.860795 9.15988437,13.9573864 C9.08602036,13.9857956 9.01499834,14 8.94681618,14 C8.79340633,14 8.6655667,13.9460233 8.56329346,13.8380682 L6.76257324,11.65625 C6.65461816,11.5482949 6.60064142,11.4204553 6.60064142,11.2727273 L6.60064142,6.73492432 L2.17208265,2.92897727 C1.9959454,2.76420372 1.95617308,2.56534207 2.05276447,2.33238636 C2.14935586,2.11079435 2.31696782,2 2.55560538,2 L13.4646963,2 C13.7033338,2 13.8709458,2.11079435 13.9675372,2.33238636 Z" id=""></path>
        </g>
    </g>
</svg>