<?xml version="1.0" encoding="UTF-8"?>
<svg width="16px" height="16px" viewBox="0 0 16 16" version="1.1" xmlns="http://www.w3.org/2000/svg" xmlns:xlink="http://www.w3.org/1999/xlink">
    <!-- Generator: Sketch 40.3 (33839) - http://www.bohemiancoding.com/sketch -->
    <title>frozen</title>
    <desc>Created with Sketch.</desc>
    <defs></defs>
    <g id="Page-1" stroke="none" stroke-width="1" fill="none" fill-rule="evenodd">
        <g id="frozen" fill="#ACD9EC">
            <polygon id="â†" points="14.5361039 5.75118943 14.0927542 6.69700224 10.8150677 6.36118381 9.01974953 7.67869169 10.8150677 8.82423799 14.1542873 8.7065117 14.597637 9.65232451 12.509649 9.77990302 14.3421613 10.7848291 13.9874815 11.4055188 12.1845258 10.3217749 12.5687623 12.3217749 11.5244273 12.4005927 10.5293534 9.32670105 8.7283677 8.66868193 8.39142237 10.5582281 10.5490578 12.962169 9.94807261 13.8291641 8.4111268 12.4991148 8.45053567 14.597637 7.45487908 14.5882376 7.49428795 12.4897154 5.95734214 13.8197647 5.35635692 12.9527696 7.51399238 10.5488287 7.21030129 8.65244658 5.37606135 9.31730163 4.38098746 12.3911933 3.33665248 12.3123755 3.72088894 10.3123755 1.92778549 11.3961194 1.56325347 10.7754297 3.39576578 9.7705036 1.46579446 9.55869658 1.91899643 8.61288377 5.09034706 8.81483858 6.95541848 7.64805205 5.09034706 6.35178439 1.86496438 6.55674345 1.41176241 5.61093064 3.39576578 5.40597158 1.56325347 4.40104548 1.92778549 3.7705036 3.72088894 4.86409966 3.33665248 2.86409966 4.38098746 2.78528193 5.37606135 5.84932134 7.29599465 6.58677275 7.51399238 4.61779424 5.35635692 2.22370557 5.95734214 1.3567105 7.49428795 2.68675976 7.45487908 0.588237593 8.45053567 0.597637007 8.4111268 2.69615917 9.94807261 1.36610991 10.5490578 2.23310499 8.39142237 4.62719366 8.74484719 6.61545927 10.5293534 5.85872075 11.5244273 2.79468134 12.5687623 2.87349908 12.1845258 4.87349908 13.9874815 3.77990302 14.3421613 4.41044489 12.509649 5.415371"></polygon>
        </g>
    </g>
</svg>