<?xml version="1.0" encoding="UTF-8" standalone="no"?>
<svg width="16px" height="16px" viewBox="0 0 16 16" version="1.1" xmlns="http://www.w3.org/2000/svg" xmlns:xlink="http://www.w3.org/1999/xlink">
    <!-- Generator: Sketch 3.8.3 (29802) - http://www.bohemiancoding.com/sketch -->
    <title>output_flag</title>
    <desc>Created with Sketch.</desc>
    <defs></defs>
    <g id="Page-1" stroke="none" stroke-width="1" fill="none" fill-rule="evenodd">
        <g id="output_flag">
            <path d="M1,6.00173488 C2.98060548,0.78427043 6.35190736,4.99061576 9.93822921,2 L14.5975382,10.0856691 C11.4930001,13.2549542 7.81987578,9.56088594 5.32087284,14.1980188 L1,6.00173488 L1,6.00173488 Z" id="path10067" fill="#000000"></path>
            <path d="M9.91659672,11.3569959 C11.4797508,11.3513272 13.1044048,11.4146961 14.5975354,9.89042387 L12.0342806,5.59745566 C10.4674126,6.94280237 8.98459554,6.9161768 7.60602013,6.82352328 L9.91659672,11.3569959 L9.91659672,11.3569959 Z M5.69693296,3.05942124 C3.80906208,2.92887009 2.16425853,2.73951081 1,5.80649037 L3.04439827,9.67415216 C4.19102381,6.67182114 5.79233493,6.79171175 7.60602013,6.82352328 L5.69693296,3.05942124 L5.69693296,3.05942124 Z" id="path10105" fill="#DCCAAC"></path>
            <path d="M1,6.00173488 C2.98060548,0.78427043 6.35190736,4.99061576 9.93822921,2 L14.5975382,10.0856691 C11.4930001,13.2549542 7.81987578,9.56088594 5.32087284,14.1980188 L1,6.00173488 L1,6.00173488 Z" id="path10067-copy" stroke="#F5A623"></path>
        </g>
    </g>
</svg>