<?xml version="1.0" encoding="UTF-8" standalone="no"?>
<svg width="16px" height="16px" viewBox="0 0 16 16" version="1.1" xmlns="http://www.w3.org/2000/svg" xmlns:xlink="http://www.w3.org/1999/xlink">
    <!-- Generator: Sketch 3.8.3 (29802) - http://www.bohemiancoding.com/sketch -->
    <title>obj_info</title>
    <desc>Created with Sketch.</desc>
    <defs>
        <path d="M0,2.26283076 C0,2.26283076 1.20861816,0.995252635 3.66125488,1.00001338 C6.1138916,1.00477412 6.90870071,2.26283076 6.90870071,2.26283076 L6.90870071,10.8516399 C6.90870071,10.8516399 5.91821289,12.1888562 3.54528809,12.1888562 C1.17236328,12.1888562 0.0732027898,10.8516399 0.0732027898,10.8516399 L0,2.26283076 Z" id="path-1"></path>
        <mask id="mask-2" maskContentUnits="userSpaceOnUse" maskUnits="objectBoundingBox" x="0" y="0" width="6.90870071" height="11.1888562" fill="white">
            <use xlink:href="#path-1"></use>
        </mask>
        <ellipse id="path-3" cx="12" cy="8" rx="4" ry="4"></ellipse>
        <mask id="mask-4" maskContentUnits="userSpaceOnUse" maskUnits="objectBoundingBox" x="0" y="0" width="8" height="8" fill="white">
            <use xlink:href="#path-3"></use>
        </mask>
    </defs>
    <g id="Page-1" stroke="none" stroke-width="1" fill="none" fill-rule="evenodd">
        <g id="obj_info">
            <use id="Path-40" stroke="#193A61" mask="url(#mask-2)" stroke-width="2" fill="#4990E2" xlink:href="#path-1"></use>
            <use id="circle7520" stroke="#470907" mask="url(#mask-4)" stroke-width="2" fill="#EC3349" xlink:href="#path-3"></use>
            <path d="M12.2870933,12.5901367 C12.2870933,13.7959188 10.7951221,14.6818425 7.97489651,14.6818425 C5.49094347,14.6818425 3.88870508,13.7428896 3.88870508,12.6162306 C3.89207224,12.5686724 3.90427729,12.5219566 3.92489967,12.4853411 L7.99972792,5.26411618 C8.04854812,5.1769967 8.12851273,5.1769967 8.1773333,5.26411618 L12.2517406,12.4634559 C12.2715215,12.498388 12.2837265,12.5429999 12.2870933,12.5901367 L12.2870933,12.5901367 Z" id="path7627" stroke="#6A6311" fill="#F8E81C"></path>
        </g>
    </g>
</svg>