<?xml version="1.0" encoding="UTF-8" standalone="no"?>
<svg width="16px" height="16px" viewBox="0 0 16 16" version="1.1" xmlns="http://www.w3.org/2000/svg" xmlns:xlink="http://www.w3.org/1999/xlink">
    <!-- Generator: Sketch 3.8.3 (29802) - http://www.bohemiancoding.com/sketch -->
    <title>pin_out</title>
    <desc>Created with Sketch.</desc>
    <defs>
        <linearGradient x1="20.4696728%" y1="50%" x2="83.0611254%" y2="50%" id="linearGradient-1">
            <stop stop-color="#FBDA61" offset="0%"></stop>
            <stop stop-color="#F76B1C" offset="100%"></stop>
        </linearGradient>
    </defs>
    <g id="Page-1" stroke="none" stroke-width="1" fill="none" fill-rule="evenodd">
        <g id="pin_out">
            <g id="Group" transform="translate(8.000000, 8.000000) rotate(90.000000) translate(-8.000000, -8.000000) translate(3.000000, 0.000000)">
                <path d="M9.96044922,10.8977051 L0.29031033,10.8977051 C0.29031033,10.8977051 0.227138932,8.84275116 0.681423611,8.29026442 C1.13570829,7.73777769 1.64930269,7.46153846 2.22222222,7.46153846 L2.22222222,3.15384615 C1.92129479,3.15384615 1.66088073,3.04727671 1.44097222,2.83413462 C1.22106372,2.62099252 1.11111111,2.3685912 1.11111111,2.07692308 C1.11111111,1.78525495 1.22106372,1.53285363 1.44097222,1.31971154 C1.66088073,1.10656945 1.92129479,1 2.22222222,1 L7.77777778,1 C8.07870521,1 8.33911927,1.10656945 8.55902778,1.31971154 C8.77893628,1.53285363 8.88888889,1.78525495 8.88888889,2.07692308 C8.88888889,2.3685912 8.77893628,2.62099252 8.55902778,2.83413462 C8.33911927,3.04727671 8.07870521,3.15384615 7.77777778,3.15384615 L7.77777778,7.46153846 C8.35069731,7.46153846 8.86429171,7.73777769 9.31857639,8.29026442 C9.77286107,8.84275116 9.96044922,10.8977051 9.96044922,10.8977051 Z" id="Shape" fill="url(#linearGradient-1)"></path>
                <path d="M9.96044922,10.8977051 C9.96044922,10.8977051 7.72106934,10.9831543 7.05432129,10.970459 C7.09362793,9.65893555 6.82159424,8.1038208 5.43383789,7.43652344 C5.39794922,6.54870605 5.38757324,3.01696777 5.38757324,3.01696777 L6.13879395,2.98693848 L6.16064453,1 C6.55080957,0.997494434 8.00054104,1.00723025 8.00054104,1.00723025 C8.00054104,1.00723025 8.35010444,1.06855187 8.55560303,1.28765869 C8.76110162,1.50676551 8.88888889,1.78525495 8.88888889,2.07692308 C8.88888889,2.3685912 8.77893628,2.62099252 8.55902778,2.83413462 C8.33911927,3.04727671 8.07870521,3.15384615 7.77777778,3.15384615 L7.77777778,7.46153846 C8.35069731,7.46153846 8.86429171,7.73777769 9.31857639,8.29026442 C9.77286107,8.84275116 9.96044922,10.8977051 9.96044922,10.8977051 Z" id="Shape-Copy" fill-opacity="0.400362319" fill="#000000"></path>
                <path d="M1.5,1.5 L8.5,1.5" id="Line" stroke-opacity="0.459154212" stroke="#FFFFFF" stroke-linecap="square"></path>
                <rect id="Rectangle-26" fill-opacity="0.553894928" fill="#FFFFFF" x="3" y="3" width="1" height="5"></rect>
                <path d="M2.5,3.5 L7.5,3.5" id="Line" stroke-opacity="0.28331635" stroke="#000000" stroke-linecap="square"></path>
                <path d="M0.5,10.5 L9.5,10.5" id="Line" stroke-opacity="0.646173007" stroke="#000000" stroke-linecap="square"></path>
                <path d="M4,10.0190505 L4.76776112,15.590332 L5.21895363,15.5642629 L6,10 L4,10.0190505 Z" id="Path-16" fill="#FFFFFF"></path>
            </g>
        </g>
    </g>
</svg>