<?xml version="1.0" encoding="UTF-8"?>
<svg width="32px" height="32px" viewBox="0 0 32 32" version="1.1" xmlns="http://www.w3.org/2000/svg" xmlns:xlink="http://www.w3.org/1999/xlink">
    <!-- Generator: Sketch 40.3 (33839) - http://www.bohemiancoding.com/sketch -->
    <title>quickmark_set</title>
    <desc>Created with Sketch.</desc>
    <defs></defs>
    <g id="Quickmark-icons" stroke="none" stroke-width="1" fill="none" fill-rule="evenodd">
        <g id="quickmark_set">
            <circle id="Oval-Copy" fill="#000000" cx="16" cy="16" r="16"></circle>
            <circle id="Oval" stroke="#F8E81C" stroke-width="2" cx="16" cy="16" r="14"></circle>
            <g id="Group" transform="translate(7.000000, 12.000000)" stroke="#F8E81C" stroke-width="2" stroke-linecap="round">
                <path d="M4,0 L4,8" id="Line"></path>
                <path d="M8,4 L0,4" id="Line-Copy"></path>
            </g>
            <path d="M20.2403609,14.3801458 C20.7167209,14.3801458 21.1270575,14.2403466 21.4713829,13.960744 C21.8157083,13.6811414 21.9878685,13.2798659 21.9878685,12.7569055 C21.9878685,12.3582129 21.8506581,12.0151871 21.5762333,11.7278177 C21.3018086,11.4404484 20.9315996,11.2967659 20.4655952,11.2967659 C20.1497478,11.2967659 19.889566,11.3407767 19.6850418,11.4287998 C19.4805177,11.5168228 19.3187131,11.6333221 19.1996231,11.7783013 C19.0805331,11.9232804 18.9679171,12.1096793 18.8617716,12.3375037 C18.7556262,12.565328 18.6585434,12.7802046 18.5705204,12.9821398 C18.5187421,13.0908741 18.4255426,13.176307 18.2909192,13.2384409 C18.1562957,13.3005748 18.0009632,13.3316413 17.8249171,13.3316413 C17.6178041,13.3316413 17.4275218,13.2475029 17.2540647,13.0792236 C17.0806075,12.9109442 16.9938802,12.6870066 16.9938802,12.407404 C16.9938802,12.138157 17.0754298,11.8546753 17.2385313,11.5569503 C17.4016328,11.2592253 17.6398092,10.9757436 17.9530677,10.7064966 C18.2663262,10.4372497 18.6559517,10.2210787 19.1219561,10.0579772 C19.5879604,9.89487565 20.1083241,9.81332612 20.6830628,9.81332612 C21.1853119,9.81332612 21.6435427,9.88193128 22.0577688,10.0191437 C22.4719948,10.1563561 22.8318484,10.3544049 23.1373401,10.6132962 C23.4428318,10.8721875 23.6732416,11.1724969 23.8285764,11.5142335 C23.9839112,11.85597 24.0615774,12.2235901 24.0615774,12.6171049 C24.0615774,13.1348875 23.9489614,13.5788794 23.723726,13.949094 C23.4984905,14.3193085 23.1761757,14.6804565 22.7567718,15.0325487 C23.1606422,15.2500174 23.5010792,15.4985493 23.7780929,15.7781519 C24.0551065,16.0577545 24.2635109,16.367125 24.4033122,16.7062726 C24.5431135,17.0454202 24.6130131,17.4117459 24.6130131,17.8052606 C24.6130131,18.2764428 24.5185192,18.7320847 24.3295286,19.1721999 C24.1405379,19.6123151 23.8622339,20.0045295 23.4946083,20.348855 C23.1269827,20.6931804 22.6907574,20.9624233 22.1859193,21.1565918 C21.6810813,21.3507603 21.1231789,21.447843 20.5121954,21.447843 C19.8908563,21.447843 19.3342483,21.3365214 18.8423549,21.1138749 C18.3504614,20.8912284 17.9453026,20.6129244 17.6268663,20.2789547 C17.30843,19.9449849 17.0676647,19.5993702 16.9045632,19.2421002 C16.7414616,18.8848302 16.6599121,18.5896985 16.6599121,18.3566964 C16.6599121,18.0563824 16.7569949,17.8143227 16.9511634,17.6305099 C17.1453318,17.4466971 17.3873916,17.354792 17.6773498,17.354792 C17.822329,17.354792 17.9621282,17.3975084 18.0967516,17.4829426 C18.2313751,17.5683767 18.3193968,17.6706372 18.3608195,17.7897272 C18.6300664,18.5094451 18.9187259,19.0440476 19.2268065,19.3935508 C19.5348872,19.7430541 19.9685236,19.9178031 20.5277288,19.9178031 C20.848754,19.9178031 21.1581245,19.8388424 21.4558495,19.6809187 C21.7535745,19.522995 21.9995175,19.2887019 22.193686,18.9780324 C22.3878545,18.6673628 22.4849373,18.3075093 22.4849373,17.898461 C22.4849373,17.2926554 22.3192493,16.817597 21.9878685,16.4732715 C21.6564876,16.1289461 21.195668,15.956786 20.6053958,15.956786 C20.5018393,15.956786 20.3413291,15.9671415 20.1238604,15.9878528 C19.9063917,16.0085641 19.7665925,16.0189196 19.7044586,16.0189196 C19.4196782,16.0189196 19.1996239,15.9477255 19.0442891,15.8053353 C18.8889543,15.6629451 18.8112881,15.4648962 18.8112881,15.2111828 C18.8112881,14.9626471 18.9044875,14.7620094 19.0908893,14.6092635 C19.277291,14.4565176 19.5543006,14.3801458 19.9219262,14.3801458 L20.2403609,14.3801458 Z" id="3" fill="#F8E81C"></path>
        </g>
    </g>
</svg>