<?xml version="1.0" encoding="UTF-8"?>
<svg width="32px" height="32px" viewBox="0 0 32 32" version="1.1" xmlns="http://www.w3.org/2000/svg" xmlns:xlink="http://www.w3.org/1999/xlink">
    <!-- Generator: Sketch 40.3 (33839) - http://www.bohemiancoding.com/sketch -->
    <title>quickmark_go</title>
    <desc>Created with Sketch.</desc>
    <defs></defs>
    <g id="Quickmark-icons" stroke="none" stroke-width="1" fill="none" fill-rule="evenodd">
        <g id="quickmark_go">
            <circle id="Oval-Copy" fill="#000000" cx="16" cy="16" r="16"></circle>
            <circle id="Oval" stroke="#4990E2" stroke-width="2" cx="16" cy="16" r="14"></circle>
            <g id="Group" transform="translate(7.000000, 11.000000)" stroke="#4990E2" stroke-width="2" stroke-linecap="round">
                <path d="M4.5241357,0.655169621 L8,5" id="Line"></path>
                <path d="M5,9 L8,5" id="Line-Copy-2"></path>
                <path d="M8,5 L0,5" id="Line-Copy"></path>
            </g>
            <path d="M22.335644,20.2673046 L22.335644,18.8226984 L18.4367605,18.8226984 C17.9448671,18.8226984 17.5759525,18.7113768 17.3300057,18.4887303 C17.084059,18.2660837 16.9610875,17.9631855 16.9610875,17.5800263 C16.9610875,17.4816476 16.9792096,17.381976 17.0154544,17.2810084 C17.0516992,17.1800408 17.1060655,17.0738969 17.1785551,16.9625737 C17.2510447,16.8512504 17.326122,16.7438121 17.4037894,16.6402556 C17.4814568,16.5366991 17.5772451,16.4098442 17.6911573,16.2596873 L21.8075084,10.7530968 C22.0767554,10.390649 22.2981041,10.1278783 22.4715613,9.96477677 C22.6450185,9.80167525 22.8534228,9.72012571 23.0967807,9.72012571 C23.8838102,9.72012571 24.2773191,10.1705898 24.2773191,11.0715316 L24.2773191,17.0829575 L24.6112872,17.0829575 C25.0099798,17.0829575 25.3297058,17.1373239 25.5704747,17.2460582 C25.8112436,17.3547926 25.9316262,17.592969 25.9316262,17.9605946 C25.9316262,18.2609086 25.833249,18.4796684 25.6364916,18.6168808 C25.4397342,18.7540932 25.1446026,18.8226984 24.7510878,18.8226984 L24.2773191,18.8226984 L24.2773191,20.2673046 C24.2773191,20.6659972 24.1892974,20.9624233 24.0132513,21.1565918 C23.8372052,21.3507603 23.6016176,21.447843 23.3064816,21.447843 C23.0165233,21.447843 22.7822302,21.3481714 22.6035952,21.1488251 C22.4249602,20.9494788 22.335644,20.6556416 22.335644,20.2673046 L22.335644,20.2673046 Z M18.9959629,17.0829575 L22.335644,17.0829575 L22.335644,12.5705047 L18.9959629,17.0829575 Z" id="4" fill="#4990E2"></path>
        </g>
    </g>
</svg>