<?xml version="1.0" encoding="UTF-8"?>
<svg width="32px" height="32px" viewBox="0 0 32 32" version="1.1" xmlns="http://www.w3.org/2000/svg" xmlns:xlink="http://www.w3.org/1999/xlink">
    <!-- Generator: Sketch 40.3 (33839) - http://www.bohemiancoding.com/sketch -->
    <title>quickmark_set</title>
    <desc>Created with Sketch.</desc>
    <defs></defs>
    <g id="Quickmark-icons" stroke="none" stroke-width="1" fill="none" fill-rule="evenodd">
        <g id="quickmark_set">
            <circle id="Oval-Copy" fill="#000000" cx="16" cy="16" r="16"></circle>
            <circle id="Oval" stroke="#F8E81C" stroke-width="2" cx="16" cy="16" r="14"></circle>
            <g id="Group" transform="translate(7.000000, 12.000000)" stroke="#F8E81C" stroke-width="2" stroke-linecap="round">
                <path d="M4,0 L4,8" id="Line"></path>
                <path d="M8,4 L0,4" id="Line-Copy"></path>
            </g>
            <path d="M21.1218814,20.1896376 L21.1218814,13.1219404 C19.8067136,14.1316165 18.9213186,14.6364469 18.4656699,14.6364469 C18.2482012,14.6364469 18.0553301,14.5497197 17.8870507,14.3762625 C17.7187714,14.2028053 17.634633,14.0021676 17.634633,13.7743432 C17.634633,13.5102741 17.717477,13.3161085 17.8831674,13.1918407 C18.0488578,13.0675729 18.3414006,12.9070627 18.7608045,12.7103053 C19.3873215,12.4151692 19.8882686,12.1045043 20.263661,11.7783013 C20.6390534,11.4520982 20.9717237,11.087067 21.261682,10.6831965 C21.5516402,10.2793261 21.7406281,10.0307942 21.8286511,9.93759332 C21.9166741,9.84439245 22.0823621,9.79779271 22.3257199,9.79779271 C22.6001447,9.79779271 22.820199,9.90393656 22.9858894,10.1162274 C23.1515799,10.3285183 23.2344238,10.6210611 23.2344238,10.9938645 L23.2344238,19.8867363 C23.2344238,20.9274793 22.8797481,21.447843 22.1703859,21.447843 C21.8545385,21.447843 21.6008289,21.3416992 21.4092493,21.1294083 C21.2176697,20.9171175 21.1218814,20.6038637 21.1218814,20.1896376 L21.1218814,20.1896376 Z" id="1" fill="#F8E81C"></path>
        </g>
    </g>
</svg>