<?xml version="1.0" encoding="UTF-8"?>
<svg width="32px" height="32px" viewBox="0 0 32 32" version="1.1" xmlns="http://www.w3.org/2000/svg" xmlns:xlink="http://www.w3.org/1999/xlink">
    <!-- Generator: Sketch 40.3 (33839) - http://www.bohemiancoding.com/sketch -->
    <title>quickmark_go</title>
    <desc>Created with Sketch.</desc>
    <defs></defs>
    <g id="Quickmark-icons" stroke="none" stroke-width="1" fill="none" fill-rule="evenodd">
        <g id="quickmark_go">
            <circle id="Oval-Copy" fill="#000000" cx="16" cy="16" r="16"></circle>
            <circle id="Oval" stroke="#4990E2" stroke-width="2" cx="16" cy="16" r="14"></circle>
            <g id="Group" transform="translate(7.000000, 11.000000)" stroke="#4990E2" stroke-width="2" stroke-linecap="round">
                <path d="M4.5241357,0.655169621 L8,5" id="Line"></path>
                <path d="M5,9 L8,5" id="Line-Copy-2"></path>
                <path d="M8,5 L0,5" id="Line-Copy"></path>
            </g>
            <path d="M23.2460739,11.786068 L19.5568913,11.786068 L19.1141894,14.3024788 C19.8494407,13.9089641 20.5277257,13.7122096 21.1490648,13.7122096 C21.6461361,13.7122096 22.110839,13.8054091 22.5431875,13.9918108 C22.975536,14.1782126 23.3548061,14.4358055 23.6810091,14.7645975 C24.0072121,15.0933895 24.2635107,15.483015 24.4499124,15.9334859 C24.6363142,16.3839567 24.7295136,16.8680762 24.7295136,17.3858588 C24.7295136,18.1366436 24.5612368,18.8201064 24.2246781,19.4362677 C23.8881194,20.052429 23.4027055,20.5417262 22.7684218,20.904174 C22.1341381,21.2666218 21.4027812,21.447843 20.574329,21.447843 C19.6474982,21.447843 18.8954302,21.2769773 18.3181026,20.9352408 C17.740775,20.5935043 17.3317329,20.2012899 17.090964,19.7585857 C16.8501951,19.3158816 16.7298124,18.9288449 16.7298124,18.5974641 C16.7298124,18.3955288 16.8139508,18.2039522 16.9822302,18.0227282 C17.1505095,17.8415043 17.3615028,17.7508937 17.6152162,17.7508937 C18.0501536,17.7508937 18.3737629,18.0020145 18.5860538,18.5042637 C18.7931668,18.9650902 19.0727652,19.3236492 19.4248574,19.5799516 C19.7769496,19.836254 20.1704584,19.9644033 20.6053958,19.9644033 C21.0040884,19.9644033 21.3535864,19.8608483 21.6539003,19.6537353 C21.9542143,19.4466222 22.1859185,19.1618461 22.34902,18.7993983 C22.5121215,18.4369504 22.5936711,18.0253194 22.5936711,17.5644929 C22.5936711,17.0674216 22.5056494,16.6428463 22.3296033,16.2907541 C22.1535572,15.9386619 21.9179696,15.6758912 21.6228335,15.502434 C21.3276975,15.3289769 20.9989104,15.2422496 20.6364626,15.2422496 C20.1911696,15.2422496 19.8727381,15.2966159 19.6811585,15.4053503 C19.4895789,15.5140846 19.2138638,15.7043669 18.8540049,15.9762027 C18.494146,16.2480386 18.1977199,16.3839545 17.9647177,16.3839545 C17.7110043,16.3839545 17.4857722,16.2920495 17.2890148,16.1082366 C17.0922574,15.9244238 16.9938802,15.7160194 16.9938802,15.4830173 C16.9938802,15.4571281 17.0223578,15.2810847 17.0793139,14.9548817 L17.7317167,11.2346323 C17.8042063,10.7893392 17.9388278,10.4657299 18.1355852,10.2637947 C18.3323425,10.0618595 18.6533629,9.96089342 19.098656,9.96089342 L23.1994737,9.96089342 C24.0072146,9.96089342 24.4110789,10.2689694 24.4110789,10.8851307 C24.4110789,11.1543777 24.3127017,11.3718431 24.1159443,11.5375336 C23.9191869,11.703224 23.629233,11.786068 23.2460739,11.786068 L23.2460739,11.786068 Z" id="5" fill="#4990E2"></path>
        </g>
    </g>
</svg>