<?xml version="1.0" encoding="UTF-8"?>
<svg width="32px" height="32px" viewBox="0 0 32 32" version="1.1" xmlns="http://www.w3.org/2000/svg" xmlns:xlink="http://www.w3.org/1999/xlink">
    <!-- Generator: Sketch 40.3 (33839) - http://www.bohemiancoding.com/sketch -->
    <title>quickmark_back</title>
    <desc>Created with Sketch.</desc>
    <defs></defs>
    <g id="Quickmark-icons" stroke="none" stroke-width="1" fill="none" fill-rule="evenodd">
        <g id="quickmark_back">
            <circle id="Oval-Copy" fill="#000000" cx="16" cy="16" r="16"></circle>
            <circle id="Oval" stroke="#FF6600" stroke-width="2" cx="16" cy="16" r="14"></circle>
            <path d="M21.522801,8.90974149 L15.1238305,15.308712 C15.0697547,15.3627879 15.0337041,15.4168637 15.0066662,15.4799521 L15.0066662,9.08098155 C15.0066662,8.76553934 14.8264135,8.68442563 14.6010977,8.90974149 L8.20212711,15.308712 C7.97681125,15.5340279 7.97681125,15.8945333 8.20212711,16.1198492 L14.6010977,22.5188197 C14.8264135,22.7441356 15.0066662,22.6630219 15.0066662,22.3475797 L15.0066662,15.9486091 C15.0337041,16.0116975 15.0697547,16.0657734 15.1238305,16.1198492 L21.522801,22.5188197 C21.7481169,22.7441356 21.9283696,22.6630219 21.9283696,22.3475797 L21.9283696,9.08098155 C21.9283696,8.76553934 21.7481169,8.68442563 21.522801,8.90974149 L21.522801,8.90974149 Z" id="ïŠ" fill="#FF6600"></path>
        </g>
    </g>
</svg>