<?xml version="1.0" encoding="UTF-8"?>
<svg width="16px" height="16px" viewBox="0 0 16 16" version="1.1" xmlns="http://www.w3.org/2000/svg" xmlns:xlink="http://www.w3.org/1999/xlink">
    <!-- Generator: Sketch 41 (35326) - http://www.bohemiancoding.com/sketch -->
    <title>reload_needsupdate</title>
    <desc>Created with Sketch.</desc>
    <defs></defs>
    <g id="Page-1" stroke="none" stroke-width="1" fill="none" fill-rule="evenodd">
        <g id="reload_needsupdate">
            <path d="M13.8046875,10.25 C13.8046875,10.2760418 13.8020834,10.2942708 13.796875,10.3046875 C13.46354,11.7005278 12.7656303,12.8320269 11.703125,13.6992188 C10.6406197,14.5664106 9.39584047,15 7.96875,15 C7.20832953,15 6.4726598,14.8567723 5.76171875,14.5703125 C5.0507777,14.2838527 4.41666945,13.8750027 3.859375,13.34375 L2.8515625,14.3515625 C2.75260367,14.4505213 2.63541734,14.5 2.5,14.5 C2.36458266,14.5 2.24739633,14.4505213 2.1484375,14.3515625 C2.04947867,14.2526037 2,14.1354173 2,14 L2,10.5 C2,10.3645827 2.04947867,10.2473963 2.1484375,10.1484375 C2.24739633,10.0494787 2.36458266,10 2.5,10 L6,10 C6.13541734,10 6.25260367,10.0494787 6.3515625,10.1484375 C6.45052133,10.2473963 6.5,10.3645827 6.5,10.5 C6.5,10.6354173 6.45052133,10.7526037 6.3515625,10.8515625 L5.28125,11.921875 C5.65104352,12.2656267 6.07031016,12.5312491 6.5390625,12.71875 C7.00781484,12.9062509 7.49478914,13 8,13 C8.69792016,13 9.34895531,12.8307309 9.953125,12.4921875 C10.5572947,12.1536441 11.0416648,11.687503 11.40625,11.09375 C11.463542,11.0052079 11.6015614,10.7005234 11.8203125,10.1796875 C11.8619794,10.0598952 11.9401036,10 12.0546875,10 L13.5546875,10 C13.6223962,10 13.6809893,10.0247393 13.7304688,10.0742188 C13.7799482,10.1236982 13.8046875,10.1822913 13.8046875,10.25 L13.8046875,10.25 Z M14,4 L14,7.5 C14,7.63541734 13.9505213,7.75260367 13.8515625,7.8515625 C13.7526037,7.95052133 13.6354173,8 13.5,8 L10,8 C9.86458266,8 9.74739633,7.95052133 9.6484375,7.8515625 C9.54947867,7.75260367 9.5,7.63541734 9.5,7.5 C9.5,7.36458266 9.54947867,7.24739633 9.6484375,7.1484375 L10.7265625,6.0703125 C9.95572531,5.35676727 9.04688023,5 8,5 C7.30207984,5 6.65104469,5.16926914 6.046875,5.5078125 C5.44270531,5.84635586 4.95833516,6.31249703 4.59375,6.90625 C4.53645805,6.99479211 4.39843859,7.29947656 4.1796875,7.8203125 C4.13802062,7.94010477 4.05989641,8 3.9453125,8 L2.390625,8 C2.32291633,8 2.26432316,7.97526066 2.21484375,7.92578125 C2.16536434,7.87630184 2.140625,7.81770867 2.140625,7.75 L2.140625,7.6953125 C2.47916836,6.29947219 3.18228633,5.16797309 4.25,4.30078125 C5.31771367,3.43358941 6.56770117,3 8,3 C8.76042047,3 9.49999641,3.1445298 10.21875,3.43359375 C10.9375036,3.7226577 11.575518,4.1302057 12.1328125,4.65625 L13.1484375,3.6484375 C13.2473963,3.54947867 13.3645827,3.5 13.5,3.5 C13.6354173,3.5 13.7526037,3.54947867 13.8515625,3.6484375 C13.9505213,3.74739633 14,3.86458266 14,4 L14,4 Z" id="Shape-Copy" fill="#000000"></path>
            <path d="M13.8046875,9.25 C13.8046875,9.2760418 13.8020834,9.29427078 13.796875,9.3046875 C13.46354,10.7005278 12.7656303,11.8320269 11.703125,12.6992188 C10.6406197,13.5664106 9.39584047,14 7.96875,14 C7.20832953,14 6.4726598,13.8567723 5.76171875,13.5703125 C5.0507777,13.2838527 4.41666945,12.8750027 3.859375,12.34375 L2.8515625,13.3515625 C2.75260367,13.4505213 2.63541734,13.5 2.5,13.5 C2.36458266,13.5 2.24739633,13.4505213 2.1484375,13.3515625 C2.04947867,13.2526037 2,13.1354173 2,13 L2,9.5 C2,9.36458266 2.04947867,9.24739633 2.1484375,9.1484375 C2.24739633,9.04947867 2.36458266,9 2.5,9 L6,9 C6.13541734,9 6.25260367,9.04947867 6.3515625,9.1484375 C6.45052133,9.24739633 6.5,9.36458266 6.5,9.5 C6.5,9.63541734 6.45052133,9.75260367 6.3515625,9.8515625 L5.28125,10.921875 C5.65104352,11.2656267 6.07031016,11.5312491 6.5390625,11.71875 C7.00781484,11.9062509 7.49478914,12 8,12 C8.69792016,12 9.34895531,11.8307309 9.953125,11.4921875 C10.5572947,11.1536441 11.0416648,10.687503 11.40625,10.09375 C11.463542,10.0052079 11.6015614,9.70052344 11.8203125,9.1796875 C11.8619794,9.05989523 11.9401036,9 12.0546875,9 L13.5546875,9 C13.6223962,9 13.6809893,9.02473934 13.7304688,9.07421875 C13.7799482,9.12369816 13.8046875,9.18229133 13.8046875,9.25 L13.8046875,9.25 Z M14,3 L14,6.5 C14,6.63541734 13.9505213,6.75260367 13.8515625,6.8515625 C13.7526037,6.95052133 13.6354173,7 13.5,7 L10,7 C9.86458266,7 9.74739633,6.95052133 9.6484375,6.8515625 C9.54947867,6.75260367 9.5,6.63541734 9.5,6.5 C9.5,6.36458266 9.54947867,6.24739633 9.6484375,6.1484375 L10.7265625,5.0703125 C9.95572531,4.35676727 9.04688023,4 8,4 C7.30207984,4 6.65104469,4.16926914 6.046875,4.5078125 C5.44270531,4.84635586 4.95833516,5.31249703 4.59375,5.90625 C4.53645805,5.99479211 4.39843859,6.29947656 4.1796875,6.8203125 C4.13802062,6.94010477 4.05989641,7 3.9453125,7 L2.390625,7 C2.32291633,7 2.26432316,6.97526066 2.21484375,6.92578125 C2.16536434,6.87630184 2.140625,6.81770867 2.140625,6.75 L2.140625,6.6953125 C2.47916836,5.29947219 3.18228633,4.16797309 4.25,3.30078125 C5.31771367,2.43358941 6.56770117,2 8,2 C8.76042047,2 9.49999641,2.1445298 10.21875,2.43359375 C10.9375036,2.7226577 11.575518,3.1302057 12.1328125,3.65625 L13.1484375,2.6484375 C13.2473963,2.54947867 13.3645827,2.5 13.5,2.5 C13.6354173,2.5 13.7526037,2.54947867 13.8515625,2.6484375 C13.9505213,2.74739633 14,2.86458266 14,3 L14,3 Z" id="Shape" stroke="#FFFFFF" stroke-width="0.5" fill="#F8E81C"></path>
        </g>
    </g>
</svg>