<?xml version="1.0" encoding="UTF-8" standalone="no"?>
<svg width="16px" height="16px" viewBox="0 0 16 16" version="1.1" xmlns="http://www.w3.org/2000/svg" xmlns:xlink="http://www.w3.org/1999/xlink">
    <!-- Generator: Sketch 3.8.3 (29802) - http://www.bohemiancoding.com/sketch -->
    <title>render_flag</title>
    <desc>Created with Sketch.</desc>
    <defs>
        <path d="M8.125,6.25 C8.91695998,6.25 9.59410888,6.53117485 10.156467,7.09353299 C10.7188251,7.65589112 11,8.33304002 11,9.125 C11,9.91695998 10.7188251,10.5941089 10.156467,11.156467 C9.59410888,11.7188251 8.91695998,12 8.125,12 C7.33304002,12 6.65589112,11.7188251 6.09353299,11.156467 C5.53117485,10.5941089 5.25,9.91695998 5.25,9.125 C5.25,8.33304002 5.53117485,7.65589112 6.09353299,7.09353299 C6.65589112,6.53117485 7.33304002,6.25 8.125,6.25 L8.125,6.25 Z" id="path-1"></path>
        <mask id="mask-2" maskContentUnits="userSpaceOnUse" maskUnits="objectBoundingBox" x="-1" y="-1" width="7.75" height="7.75">
            <rect x="4.25" y="5.25" width="7.75" height="7.75" fill="white"></rect>
            <use xlink:href="#path-1" fill="black"></use>
        </mask>
    </defs>
    <g id="Page-1" stroke="none" stroke-width="1" fill="none" fill-rule="evenodd">
        <g id="render_flag">
            <path d="M13.1333333,3.84615385 C13.6486137,3.84615385 14.0885398,4.0264405 14.453125,4.38701923 C14.8177102,4.74759796 15,5.18268976 15,5.69230769 L15,12.1538462 C15,12.6634641 14.8177102,13.0985559 14.453125,13.4591346 C14.0885398,13.8197133 13.6486137,14 13.1333333,14 L2.86666667,14 C2.35138631,14 1.91146016,13.8197133 1.546875,13.4591346 C1.18228984,13.0985559 1,12.6634641 1,12.1538462 L1,5.69230769 C1,5.18268976 1.18228984,4.74759796 1.546875,4.38701923 C1.91146016,4.0264405 2.35138631,3.84615385 2.86666667,3.84615385 L4.5,3.84615385 L4.871875,2.86538462 C4.96423657,2.62980651 5.13315849,2.42668355 5.37864583,2.25600962 C5.62413317,2.08533569 5.87569316,2 6.13333333,2 L9.86666667,2 C10.1243068,2 10.3758668,2.08533569 10.6213542,2.25600962 C10.8668415,2.42668355 11.0357634,2.62980651 11.128125,2.86538462 L11.5,3.84615385 L13.1333333,3.84615385 Z" id="Path" fill="#BFA3F8"></path>
            <g id="Path">
                <use fill="#B69FE8" fill-rule="evenodd" xlink:href="#path-1"></use>
                <use fill="black" fill-opacity="1" xlink:href="#path-1"></use>
                <use stroke="#000000" mask="url(#mask-2)" stroke-width="2" xlink:href="#path-1"></use>
            </g>
            <circle id="Oval-3" fill="#FFFFFF" cx="7" cy="8" r="1"></circle>
        </g>
    </g>
</svg>