<?xml version="1.0" encoding="UTF-8" standalone="no"?>
<svg width="16px" height="16px" viewBox="0 0 16 16" version="1.1" xmlns="http://www.w3.org/2000/svg" xmlns:xlink="http://www.w3.org/1999/xlink">
    <!-- Generator: Sketch 3.8.3 (29802) - http://www.bohemiancoding.com/sketch -->
    <title>rop_info</title>
    <desc>Created with Sketch.</desc>
    <defs></defs>
    <g id="Page-1" stroke="none" stroke-width="1" fill="none" fill-rule="evenodd">
        <g id="rop_info">
            <path d="M15,9.29199165 C15,11.0055287 13.6658076,12.5889022 11.5,13.4456707 C9.33419248,14.3024392 6.66580752,14.3024392 4.49999997,13.4456707 C2.33419242,12.5889022 0.999999963,11.0055287 1,9.29199165 C1,6.64309295 4.13400675,4.49573627 8,4.49573627 C11.8659932,4.49573627 15,6.64309295 15,9.29199165 L15,9.29199165 Z" id="path7028" fill="#A1A39F"></path>
            <path d="M13,6.39956716 C13,7.49604253 12.0470054,8.50922757 10.5,9.05746526 C8.95299463,9.60570295 7.04700537,9.60570295 5.49999998,9.05746526 C3.95299458,8.50922757 2.99999997,7.49604253 3,6.39956716 C3,4.70456312 5.23857625,3.33049085 8,3.33049085 C10.7614237,3.33049085 13,4.70456312 13,6.39956716 L13,6.39956716 Z" id="path7026" fill="#000000"></path>
            <path d="M13,10.0690763 C13,11.1655517 12.0470054,12.1787367 10.5,12.7269744 C8.95299463,13.2752121 7.04700537,13.2752121 5.49999998,12.7269744 C3.95299458,12.1787367 2.99999997,11.1655517 3,10.0690763 C3,8.37407227 5.23857625,7 8,7 C10.7614237,7 13,8.37407227 13,10.0690763 L13,10.0690763 Z" id="path7026-copy" fill="#000000"></path>
            <path d="M7.4679053,1.00119286 C3.85154607,1.19939177 1.00000004,3.41974714 1,6.10298586 C1,8.9160825 4.13600111,11.2047793 8.00000011,11.204779 C11.8639991,11.204779 15,8.91608215 15,6.10298586 C15,3.28988957 11.8639991,1.00119286 8.00000011,1.00119286 C7.98490622,1.00119286 7.96777416,1.00112328 7.95270263,1.00119286 C7.86262737,1.00160863 7.76998149,0.998312 7.68074322,1.00119286 C7.63716997,1.00259954 7.59403793,0.999205075 7.55067552,1.00119286 C7.52210635,1.00250249 7.49638076,0.999632202 7.4679053,1.00119286 L7.4679053,1.00119286 Z M6.94763521,1.82596313 C6.97156863,1.82403764 6.99439919,1.82727152 7.01858107,1.82596313 C7.06932306,1.82321768 7.12057086,1.82596313 7.17229715,1.82596313 C8.27579697,1.8259632 9.17060797,2.46775812 9.17060797,3.25163725 C9.17060797,4.03551674 8.27579662,4.66552923 7.17229715,4.66552923 C6.06879804,4.66552923 5.17398668,4.03551674 5.17398668,3.25163725 C5.17398668,2.52201331 5.95040172,1.90619188 6.94763521,1.82596313 L6.94763521,1.82596313 Z M11.2989865,3.55798074 C11.3242042,3.55573249 11.344462,3.55958375 11.3699324,3.55798074 C11.4141087,3.55520004 11.4551191,3.55879108 11.5000001,3.55798074 C11.5182375,3.55765158 11.5289494,3.55798074 11.5472972,3.55798074 C12.7215767,3.55798074 13.6756757,4.24200376 13.6756757,5.07791424 C13.6756757,5.91382436 12.7215771,6.58606558 11.5472972,6.58606558 C10.3730173,6.58606593 9.418919,5.91382472 9.418919,5.07791424 C9.41891865,4.30573983 10.2482423,3.65165321 11.2989865,3.55798074 L11.2989865,3.55798074 Z M4.02702698,4.74800609 C4.10944764,4.7412861 4.20222925,4.74800609 4.28716224,4.74800609 C5.49509325,4.74800609 6.47466225,5.442641 6.47466225,6.30328711 C6.47466225,7.16393323 5.49509325,7.85856814 4.28716224,7.85856814 C3.07923147,7.85856814 2.09966215,7.16393323 2.09966215,6.30328711 C2.09966215,5.5031555 2.93724207,4.83686034 4.02702698,4.74800609 L4.02702698,4.74800609 Z M8.39020285,6.68032495 C8.39927416,6.67927454 8.40474762,6.68130182 8.41385123,6.68032495 C8.41489161,6.68028076 8.42471189,6.68031257 8.4256756,6.68032495 C8.42664179,6.68034192 8.43645674,6.68036243 8.43749997,6.68032495 C8.43986186,6.6803649 8.4481157,6.68036844 8.44932434,6.68032495 C8.45922022,6.68039248 8.4748689,6.6801807 8.48479744,6.68032495 C8.48601175,6.68029596 8.49426347,6.68029384 8.49662145,6.68032495 C8.5878017,6.67286781 8.674622,6.68032495 8.76858122,6.68032495 C10.1048871,6.68032495 11.1925675,7.44554638 11.1925675,8.40056005 C11.1925675,9.35557443 10.1048871,10.1325777 8.76858122,10.1325777 C7.43227495,10.1325777 6.34459455,9.35557408 6.34459455,8.40056005 C6.34459455,7.54017168 7.23811386,6.81371699 8.39020285,6.68032495 L8.39020285,6.68032495 Z" id="path7012" fill="#E7E7E7"></path>
        </g>
    </g>
</svg>