<?xml version="1.0" encoding="UTF-8" standalone="no"?>
<svg width="16px" height="16px" viewBox="0 0 16 16" version="1.1" xmlns="http://www.w3.org/2000/svg" xmlns:xlink="http://www.w3.org/1999/xlink">
    <!-- Generator: Sketch 3.8.3 (29802) - http://www.bohemiancoding.com/sketch -->
    <title>selectable_flag</title>
    <desc>Created with Sketch.</desc>
    <defs></defs>
    <g id="Page-1" stroke="none" stroke-width="1" fill="none" fill-rule="evenodd">
        <g id="selectable_flag" fill="#97C473">
            <path d="M11.8515625,9.1484375 C12.0130216,9.30468828 12.0494796,9.48437398 11.9609375,9.6875 C11.8723954,9.89583437 11.7187511,10 11.5,10 L8.515625,10 L10.0859375,13.71875 C10.1380211,13.848959 10.1380211,13.9765619 10.0859375,14.1015625 C10.0338539,14.2265631 9.94531313,14.317708 9.8203125,14.375 L8.4375,14.9609375 C8.30729102,15.0130211 8.17968813,15.0130211 8.0546875,14.9609375 C7.92968687,14.9088539 7.83854195,14.8203131 7.78125,14.6953125 L6.2890625,11.1640625 L3.8515625,13.6015625 C3.75260367,13.7005213 3.63541734,13.75 3.5,13.75 C3.43749969,13.75 3.37500031,13.7369793 3.3125,13.7109375 C3.10416562,13.6223954 3,13.4687511 3,13.25 L3,1.5 C3,1.28124891 3.10416562,1.12760461 3.3125,1.0390625 C3.37500031,1.0130207 3.43749969,1 3.5,1 C3.6406257,1 3.75781203,1.04947867 3.8515625,1.1484375 L11.8515625,9.1484375 Z" id="Selectable"></path>
        </g>
    </g>
</svg>