<?xml version="1.0" encoding="UTF-8" standalone="no"?>
<svg width="16px" height="16px" viewBox="0 0 16 16" version="1.1" xmlns="http://www.w3.org/2000/svg" xmlns:xlink="http://www.w3.org/1999/xlink">
    <!-- Generator: Sketch 3.8.3 (29802) - http://www.bohemiancoding.com/sketch -->
    <title>sop_info</title>
    <desc>Created with Sketch.</desc>
    <defs></defs>
    <g id="Page-1" stroke="none" stroke-width="1" fill="none" fill-rule="evenodd">
        <g id="sop_info">
            <path d="M15,4.23076923 L15,10.6923077 C15,10.8886228 14.9495197,11.0709126 14.8485577,11.2391827 C14.7475956,11.4074528 14.6101772,11.5392623 14.4362981,11.6346154 L8.51322115,14.8653846 C8.35616909,14.9551287 8.18509708,15 8,15 C7.81490292,15 7.64383091,14.9551287 7.48677885,14.8653846 L1.56370192,11.6346154 C1.38982285,11.5392623 1.25240435,11.4074528 1.15144231,11.2391827 C1.05048026,11.0709126 1,10.8886228 1,10.6923077 L1,4.23076923 C1,4.00640913 1.06450256,3.80168362 1.19350962,3.61658654 C1.32251667,3.43148946 1.49358868,3.29967988 1.70673077,3.22115385 L7.62980769,1.06730769 C7.75320575,1.02243567 7.87660195,1 8,1 C8.12339805,1 8.24679425,1.02243567 8.37019231,1.06730769 L14.2932692,3.22115385 C14.5064113,3.29967988 14.6774833,3.43148946 14.8064904,3.61658654 C14.9354974,3.80168362 15,4.00640913 15,4.23076923 L15,4.23076923 Z" id="Path" fill="#C3C3C3"></path>
            <polygon id="Path" fill="#FFFFFF" points="8 6 14 4 8 2 2 4"></polygon>
            <polygon id="Path" fill="#000000" points="9 13 14 10.1654822 14 5 9 6.89238579"></polygon>
        </g>
    </g>
</svg>