<?xml version="1.0" encoding="UTF-8" standalone="no"?>
<svg width="16px" height="16px" viewBox="0 0 16 16" version="1.1" xmlns="http://www.w3.org/2000/svg" xmlns:xlink="http://www.w3.org/1999/xlink">
    <!-- Generator: Sketch 3.8.3 (29802) - http://www.bohemiancoding.com/sketch -->
    <title>vop_info</title>
    <desc>Created with Sketch.</desc>
    <defs>
        <linearGradient x1="50.0000002%" y1="54.1237161%" x2="50.0000002%" y2="2.1014961%" id="linearGradient-1">
            <stop stop-color="#9948AE" offset="0%"></stop>
            <stop stop-color="#EF98E6" offset="100%"></stop>
        </linearGradient>
        <linearGradient x1="3.98044745%" y1="73.1527047%" x2="82.6117356%" y2="17.4876828%" id="linearGradient-2">
            <stop stop-color="#6F2B8C" offset="0%"></stop>
            <stop stop-color="#AD7FA8" offset="100%"></stop>
        </linearGradient>
        <linearGradient x1="-5.64711557%" y1="49.2970745%" x2="103.394065%" y2="49.2970745%" id="linearGradient-3">
            <stop stop-color="#894F98" offset="0%"></stop>
            <stop stop-color="#321C37" offset="100%"></stop>
        </linearGradient>
    </defs>
    <g id="Page-1" stroke="none" stroke-width="1" fill="none" fill-rule="evenodd">
        <g id="vop_info">
            <polygon id="path9149" fill="url(#linearGradient-1)" points="7.68082325 15.517995 14.7263837 5.77334263 11.0816149 3.54806012 7.69941316 9.14280381 4.31720824 3.5480599 0.672436396 5.77334232"></polygon>
            <polygon id="path9160" fill="#5C3566" points="4.30101557 3.60264121 5.09840257 1.4763398 7.71838917 5.78589722 7.69940378 9.10824289"></polygon>
            <polygon id="path9162" fill="url(#linearGradient-2)" points="11.0788066 3.58365641 10.2814196 1.45735497 7.75635995 5.88082104 7.68041839 9.1651975"></polygon>
            <polygon id="path13631" stroke-opacity="0.269729393" stroke="#FFFFFF" stroke-width="0.99999964" points="7.67855199 14.5186432 13.8507588 5.93815675 11.2933679 4.41102762 7.75669071 10.2171987 4.08192734 4.41102762 1.52366967 5.93815643"></polygon>
            <polygon id="path9158" fill="url(#linearGradient-3)" points="14.7453641 5.76928563 12.8420765 2.87884433 10.3403231 1.53351523 11.0479553 3.58128321"></polygon>
            <polygon id="path9156" fill="#AD7FA8" points="0.576418744 5.77338796 2.55910413 2.84324785 5.10055659 1.53761772 4.3532254 3.5456867"></polygon>
        </g>
    </g>
</svg>