<?xml version="1.0" encoding="UTF-8" standalone="no"?>
<!-- Created with Inkscape (http://www.inkscape.org/) -->

<svg
   xmlns:dc="http://purl.org/dc/elements/1.1/"
   xmlns:cc="http://creativecommons.org/ns#"
   xmlns:rdf="http://www.w3.org/1999/02/22-rdf-syntax-ns#"
   xmlns:svg="http://www.w3.org/2000/svg"
   xmlns="http://www.w3.org/2000/svg"
   xmlns:xlink="http://www.w3.org/1999/xlink"
   xmlns:sodipodi="http://sodipodi.sourceforge.net/DTD/sodipodi-0.dtd"
   xmlns:inkscape="http://www.inkscape.org/namespaces/inkscape"
   width="16px"
   height="16px"
   id="svg35927"
   version="1.1"
   inkscape:version="0.48.5 r10040"
   sodipodi:docname="disable_keys.svg">
  <defs
     id="defs35929">
    <linearGradient
       inkscape:collect="always"
       xlink:href="#linearGradient54183"
       id="linearGradient54189"
       x1="13.232879"
       y1="4.282835"
       x2="1.93881"
       y2="13.705661"
       gradientUnits="userSpaceOnUse"
       gradientTransform="matrix(-0.06083633,-1.0145524,1.0148272,-0.06085615,0.3982113,16.275196)" />
    <linearGradient
       id="linearGradient54183">
      <stop
         style="stop-color:#e5e5e2;stop-opacity:1;"
         offset="0"
         id="stop54185" />
      <stop
         style="stop-color:#b7b7af;stop-opacity:1;"
         offset="1"
         id="stop54187" />
    </linearGradient>
    <linearGradient
       inkscape:collect="always"
       xlink:href="#linearGradient54191"
       id="linearGradient54197"
       x1="15.377287"
       y1="11.113061"
       x2="2.8624096"
       y2="15.39591"
       gradientUnits="userSpaceOnUse"
       gradientTransform="matrix(-0.06083633,-1.0145524,1.0148272,-0.06085615,0.3982113,16.275196)" />
    <linearGradient
       id="linearGradient54191">
      <stop
         style="stop-color:#616e72;stop-opacity:1;"
         offset="0"
         id="stop54193" />
      <stop
         style="stop-color:#2e3436;stop-opacity:1;"
         offset="1"
         id="stop54195" />
    </linearGradient>
    <linearGradient
       inkscape:collect="always"
       xlink:href="#linearGradient54183"
       id="linearGradient37167"
       gradientUnits="userSpaceOnUse"
       gradientTransform="matrix(-0.06083633,-1.0145524,1.0148272,-0.06085615,0.3982113,16.275196)"
       x1="13.232879"
       y1="4.282835"
       x2="1.93881"
       y2="13.705661" />
    <linearGradient
       inkscape:collect="always"
       xlink:href="#linearGradient54191"
       id="linearGradient37169"
       gradientUnits="userSpaceOnUse"
       gradientTransform="matrix(-0.06083633,-1.0145524,1.0148272,-0.06085615,0.3982113,16.275196)"
       x1="15.377287"
       y1="11.113061"
       x2="2.8624096"
       y2="15.39591" />
  </defs>
  <sodipodi:namedview
     id="base"
     pagecolor="#ffffff"
     bordercolor="#666666"
     borderopacity="1.0"
     inkscape:pageopacity="0.0"
     inkscape:pageshadow="2"
     inkscape:zoom="31.392433"
     inkscape:cx="2.9350851"
     inkscape:cy="2.5203095"
     inkscape:current-layer="layer1"
     showgrid="true"
     inkscape:grid-bbox="true"
     inkscape:document-units="px"
     inkscape:snap-global="false"
     inkscape:window-width="2560"
     inkscape:window-height="1537"
     inkscape:window-x="-8"
     inkscape:window-y="-8"
     inkscape:window-maximized="1">
    <inkscape:grid
       type="xygrid"
       id="grid35935" />
  </sodipodi:namedview>
  <metadata
     id="metadata35932">
    <rdf:RDF>
      <cc:Work
         rdf:about="">
        <dc:format>image/svg+xml</dc:format>
        <dc:type
           rdf:resource="http://purl.org/dc/dcmitype/StillImage" />
        <dc:title></dc:title>
      </cc:Work>
    </rdf:RDF>
  </metadata>
  <g
     id="layer1"
     inkscape:label="Layer 1"
     inkscape:groupmode="layer">
    <g
       id="g37160"
       transform="matrix(0.77933492,0,0,0.77933492,0.00231841,0.00107433)">
      <path
         sodipodi:nodetypes="sssccccccccccssssss"
         inkscape:connector-curvature="0"
         id="path53662"
         d="m 1.0675603,7.1950349 c -1.41791568,1.5984487 -0.91499802,4.3471211 1.0968171,6.1308981 2.0118157,1.783778 4.7774482,1.93317 6.195364,0.334721 1.0123251,-1.141217 0.8085585,-3.083762 0.018848,-4.6258518 L 9.9367184,7.2782888 11.486608,8.6525001 12.895327,7.0644195 11.345439,5.6902082 12.690123,4.174314 14.240013,5.548525 15.670075,3.9363809 11.566403,0.25486862 5.9101844,6.6312547 C 4.1453943,5.7793671 2.1833943,5.9371293 1.0675603,7.1950349 z M 3.4043485,9.1103038 C 4.0592331,8.3720372 5.1703051,8.3118223 5.9019438,8.9605304 6.6335822,9.609238 6.7065594,10.719291 6.0516748,11.457559 5.39679,12.195825 4.2643738,12.280101 3.5327352,11.631393 2.8010964,10.982685 2.7494635,9.84857 3.4043485,9.1103038 z"
         style="color:#000000;fill:url(#linearGradient37167);fill-opacity:1;fill-rule:nonzero;stroke:url(#linearGradient37169);stroke-width:0.64157271;marker:none;visibility:visible;display:inline;overflow:visible;enable-background:accumulate" />
      <path
         sodipodi:nodetypes="sscsccccsss"
         inkscape:connector-curvature="0"
         id="path54199"
         d="m 0.51955314,9.725438 c 0.0731317,0.691502 0.35723905,1.335921 0.67644636,1.882256 0.6384148,1.092668 1.4712176,1.867746 1.4712176,1.867746 C 1.5650612,11.482125 0.86538447,9.699223 1.9262411,8.3162841 3.1751927,6.6881436 5.2859979,6.841415 6.8029048,7.6482647 L 12.381296,1.3228467 11.609012,0.60666092 6.0196262,6.9092104 C 5.7526243,6.7695147 5.414067,6.5042781 4.5946075,6.3647754 3.5277697,6.1831595 2.1032578,6.333473 1.1214877,7.600762 0.61230998,8.2580192 0.44642166,9.033937 0.51955314,9.725438 z"
         style="font-size:medium;font-style:normal;font-variant:normal;font-weight:normal;font-stretch:normal;text-indent:0;text-align:start;text-decoration:none;line-height:normal;letter-spacing:normal;word-spacing:normal;text-transform:none;direction:ltr;block-progression:tb;writing-mode:lr-tb;text-anchor:start;baseline-shift:baseline;color:#000000;fill:#ffffff;fill-opacity:1;stroke:none;stroke-width:1px;marker:none;visibility:visible;display:inline;overflow:visible;enable-background:accumulate;font-family:Sans;-inkscape-font-specification:Sans" />
      <path
         sodipodi:nodetypes="cc"
         inkscape:connector-curvature="0"
         id="path54205"
         d="M 15.205409,4.0873533 11.455792,0.73007562"
         style="fill:none;stroke:#ffffff;stroke-width:0.64157271;stroke-linecap:butt;stroke-linejoin:miter;stroke-miterlimit:4;stroke-opacity:1;stroke-dasharray:none" />
      <path
         sodipodi:nodetypes="cccsc"
         inkscape:connector-curvature="0"
         id="path54211"
         d="M 6.9984576,14.312081 C 8.7895515,12.344624 8.5644871,10.692757 7.3030546,8.6840636 L 8.099727,9.0080201 c 0,0 1.0081879,1.8775599 0.7029588,3.2696269 -0.3359304,1.532087 -1.8042282,2.034434 -1.8042282,2.034434 z"
         style="fill:#888a85;stroke:none" />
      <path
         sodipodi:nodetypes="ccccc"
         inkscape:connector-curvature="0"
         id="path54213"
         d="M 7.3387459,8.715717 9.6238282,6.246923 9.9039548,6.9735858 8.042478,9.180422 z"
         style="color:#000000;fill:#888a85;fill-opacity:1;fill-rule:nonzero;stroke:none;stroke-width:1px;marker:none;visibility:visible;display:inline;overflow:visible;enable-background:accumulate" />
    </g>
    <path
       inkscape:connector-curvature="0"
       id="path66272"
       d="m 11.037693,6.6635341 c -2.4206868,0 -4.383043,1.9623549 -4.383043,4.3830429 0,2.420689 1.9623562,4.383044 4.383043,4.383044 2.420688,0 4.383043,-1.962355 4.383043,-4.383044 0,-2.420688 -1.962355,-4.3830429 -4.383043,-4.3830429 z m 0,1.1642455 c 1.774887,0 3.218797,1.4439111 3.218797,3.2187974 0,1.774887 -1.44391,3.218798 -3.218797,3.218798 -1.7748862,0 -3.2187962,-1.443911 -3.2187962,-3.218798 0,-1.7748863 1.44391,-3.2187974 3.2187962,-3.2187974 z"
       style="color:#000000;fill:#eeeeec;fill-opacity:1;fill-rule:nonzero;stroke:#2e3436;stroke-width:1;stroke-miterlimit:4;stroke-dasharray:none;marker:none;visibility:visible;display:inline;overflow:visible;enable-background:accumulate" />
    <rect
       transform="matrix(0.70710678,0.70710678,-0.70710678,0.70710678,0,0)"
       y="-3.835052"
       x="15.100405"
       height="7.6703258"
       width="1.0434029"
       id="rect66274"
       style="color:#000000;fill:#2e3436;fill-opacity:1;fill-rule:nonzero;stroke:#2e3436;stroke-width:1;stroke-miterlimit:4;stroke-dasharray:none;marker:none;visibility:visible;display:inline;overflow:visible;enable-background:accumulate" />
    <path
       style="color:#000000;fill:#ef2929;fill-opacity:1;fill-rule:nonzero;stroke:none;stroke-width:1;marker:none;visibility:visible;display:inline;overflow:visible;enable-background:accumulate"
       d="m 11.037693,6.6635341 c -2.4206868,0 -4.383043,1.9623549 -4.383043,4.3830429 0,2.420689 1.9623562,4.383044 4.383043,4.383044 2.420688,0 4.383043,-1.962355 4.383043,-4.383044 0,-2.420688 -1.962355,-4.3830429 -4.383043,-4.3830429 z m 0,1.1642455 c 1.774887,0 3.218797,1.4439111 3.218797,3.2187974 0,1.774887 -1.44391,3.218798 -3.218797,3.218798 -1.7748862,0 -3.2187962,-1.443911 -3.2187962,-3.218798 0,-1.7748863 1.44391,-3.2187974 3.2187962,-3.2187974 z"
       id="path66261"
       inkscape:connector-curvature="0" />
    <rect
       style="color:#000000;fill:#ef2929;fill-opacity:1;fill-rule:nonzero;stroke:none;stroke-width:1;marker:none;visibility:visible;display:inline;overflow:visible;enable-background:accumulate"
       id="rect66270"
       width="1.0434029"
       height="7.6703258"
       x="15.100408"
       y="-3.835052"
       transform="matrix(0.70710678,0.70710678,-0.70710678,0.70710678,0,0)" />
  </g>
</svg>
