<?xml version="1.0" encoding="UTF-8" standalone="no"?>
<!-- Created with Inkscape (http://www.inkscape.org/) -->

<svg
   xmlns:dc="http://purl.org/dc/elements/1.1/"
   xmlns:cc="http://creativecommons.org/ns#"
   xmlns:rdf="http://www.w3.org/1999/02/22-rdf-syntax-ns#"
   xmlns:svg="http://www.w3.org/2000/svg"
   xmlns="http://www.w3.org/2000/svg"
   xmlns:sodipodi="http://sodipodi.sourceforge.net/DTD/sodipodi-0.dtd"
   xmlns:inkscape="http://www.inkscape.org/namespaces/inkscape"
   width="16px"
   height="16px"
   id="svg32522"
   version="1.1"
   inkscape:version="0.48.5 r10040"
   sodipodi:docname="dope_ac_row.svg">
  <defs
     id="defs32524" />
  <sodipodi:namedview
     id="base"
     pagecolor="#ffffff"
     bordercolor="#666666"
     borderopacity="1.0"
     inkscape:pageopacity="0.0"
     inkscape:pageshadow="2"
     inkscape:zoom="31.392433"
     inkscape:cx="5.4666513"
     inkscape:cy="2.2176888"
     inkscape:current-layer="layer1"
     showgrid="true"
     inkscape:grid-bbox="true"
     inkscape:document-units="px"
     inkscape:snap-global="false"
     inkscape:window-width="2560"
     inkscape:window-height="1537"
     inkscape:window-x="-8"
     inkscape:window-y="-8"
     inkscape:window-maximized="1">
    <inkscape:grid
       type="xygrid"
       id="grid32530" />
  </sodipodi:namedview>
  <metadata
     id="metadata32527">
    <rdf:RDF>
      <cc:Work
         rdf:about="">
        <dc:format>image/svg+xml</dc:format>
        <dc:type
           rdf:resource="http://purl.org/dc/dcmitype/StillImage" />
        <dc:title />
      </cc:Work>
    </rdf:RDF>
  </metadata>
  <g
     id="layer1"
     inkscape:label="Layer 1"
     inkscape:groupmode="layer">
    <rect
       style="color:#000000;fill:#000000;fill-opacity:1;fill-rule:nonzero;stroke:#eeeeec;stroke-width:1;stroke-linecap:round;stroke-linejoin:miter;stroke-miterlimit:4;stroke-opacity:1;stroke-dasharray:none;stroke-dashoffset:0;marker:none;visibility:visible;display:inline;overflow:visible;enable-background:accumulate"
       id="rect32546"
       width="15"
       height="5.9362907"
       x="0.49999997"
       y="5.5193543" />
    <g
       transform="matrix(1.38235,0,0,1.38235,-1.5138455,8.1120438)"
       id="g33148"
       style="font-size:18px;font-style:normal;font-variant:normal;font-weight:600;font-stretch:normal;text-align:start;line-height:125%;letter-spacing:0px;word-spacing:0px;writing-mode:lr-tb;text-anchor:start;fill:#eeeeec;fill-opacity:1;stroke:#555753;font-family:Adobe Caslon Pro;-inkscape-font-specification:Adobe Caslon Pro Semi-Bold">
      <path
         style="fill:#eeeeec;stroke:#555753"
         inkscape:connector-curvature="0"
         id="path33150"
         d="M 4.4020075,0.08927906 C 4.4605033,0.1725379 4.6675003,0.41103468 5.0229992,0.80477011 5.3784906,1.198524 5.6394871,1.4640202 5.8059894,1.6012596 5.9747325,1.6927667 6.15023,1.7257661 6.3324823,1.700258 6.5147246,1.6747667 6.6632227,1.581768 6.7779769,1.4212619 6.9099696,1.1685241 6.942969,0.96302684 6.8769753,0.80476958 6.8109705,0.64653079 6.7179719,0.54003235 6.5979792,0.48527396 6.471309,0.42261788 6.2446454,0.35195211 5.9179877,0.27327645 5.5913208,0.19462033 5.2766583,0.12395456 4.9739995,0.06127894 4.6713334,-0.00137672 4.4926694,-0.04004269 4.438007,-0.05471909 l 0,-0.07199907 c 0.055329,-0.003323 0.2326601,-0.0326558 0.5319928,-0.0879987 0.2993254,-0.0553224 0.6046544,-0.11665499 0.9159881,-0.18399793 0.3113245,-0.0673221 0.5126552,-0.1206546 0.6039927,-0.15999779 0.1657423,-0.0929883 0.2752407,-0.22198659 0.3284955,-0.38699529 0.053244,-0.16498673 0.027744,-0.34798413 -0.076499,-0.54899273 -0.1095038,-0.179236 -0.241502,-0.2887345 -0.3959949,-0.328496 -0.154503,-0.039738 -0.3225006,-0.014238 -0.5039935,0.076499 -0.1500024,0.1192602 -0.4079989,0.3757567 -0.77399,0.76949037 C 4.702,-0.58345153 4.4800031,-0.33595506 4.4020073,-0.23471705 l -0.071999,-0.0719991 C 4.3870044,-0.41920402 4.4980028,-0.73419974 4.6630038,-1.2517039 4.8279982,-1.7691856 4.920997,-2.1381804 4.9420005,-2.3586894 4.9427468,-2.5574246 4.8872475,-2.7089227 4.7755024,-2.8131841 4.6637503,-2.9174199 4.4912528,-2.9699189 4.2580093,-2.9706815 c -0.2174998,0.00226 -0.3854975,0.060762 -0.5039935,0.175498 -0.1185009,0.1147612 -0.1785001,0.2722589 -0.1799977,0.4724936 0.00689,0.1135663 0.057108,0.3224522 0.1506645,0.6266584 0.093552,0.3042298 0.1891061,0.5984479 0.286663,0.88265522 0.097551,0.28422906 0.1557729,0.45311571 0.1746646,0.50666043 l -0.071999,0.0359995 C 4.0157595,-0.36932965 3.7892626,-0.60857637 3.4345196,-0.9884572 3.0797725,-1.368316 2.8082763,-1.6210624 2.6200304,-1.7466973 2.452781,-1.8389345 2.2832832,-1.8614342 2.1115364,-1.8141967 c -0.1717484,0.047261 -0.3142462,0.1777595 -0.4274939,0.3914952 -0.082124,0.1725088 -0.093374,0.3495063 -0.03375,0.53099292 0.059624,0.1815085 0.1968718,0.30450689 0.4117448,0.36899551 0.185997,0.0427599 0.5024927,0.110259 0.949488,0.2024974 0.4469919,0.0922591 0.7724873,0.16875806 0.9764872,0.22949704 l 0,0.07199908 C 3.8117623,0.01729001 3.4802668,0.09378904 2.9935251,0.21077776 2.50678,0.32778615 2.1662849,0.43128462 1.9720387,0.52127349 1.7837905,0.64353119 1.6742919,0.79502899 1.6435427,0.97576737 1.6127928,1.1565239 1.6562923,1.3350215 1.7740413,1.5112607 1.8704146,1.6593922 2.0061628,1.7501409 2.1812862,1.7835074 2.3564078,1.8168903 2.5326553,1.768141 2.7100292,1.6372591 2.9342746,1.44827 3.1877711,1.1872735 3.4705195,0.85426894 3.7532635,0.52128275 3.9617606,0.27828621 4.0960114,0.12527859 l 0.071999,0.0359995 C 4.1196331,0.2902864 4.0138845,0.60828199 3.8507642,1.1152658 3.6876388,1.6222676 3.5953902,1.9762626 3.5740181,2.1772522 c 0.0015,0.1860053 0.061497,0.345003 0.1799977,0.4769936 C 3.8725114,2.7862511 4.0405091,2.8552503 4.2580093,2.8612434 4.5070027,2.8530004 4.6840002,2.7795014 4.7890022,2.6407459 4.8939973,2.5020053 4.9449967,2.3475075 4.9420005,2.1772522 4.9187472,1.9267634 4.8212484,1.5547686 4.649504,1.0612665 4.4777529,0.56778246 4.3712545,0.26778662 4.3300084,0.16127813 z" />
    </g>
    <path
       style="fill:none;stroke:#babdb6;stroke-width:1px;stroke-linecap:butt;stroke-linejoin:miter;stroke-opacity:1"
       d="m 13.5,6.013874 0,4.973625"
       id="path33056"
       inkscape:connector-curvature="0"
       sodipodi:nodetypes="cc" />
    <path
       sodipodi:nodetypes="cc"
       inkscape:connector-curvature="0"
       id="path33058"
       d="m 11.493147,6.013874 0,4.973625"
       style="fill:none;stroke:#babdb6;stroke-width:1px;stroke-linecap:butt;stroke-linejoin:miter;stroke-opacity:1" />
    <path
       style="fill:none;stroke:#babdb6;stroke-width:1px;stroke-linecap:butt;stroke-linejoin:miter;stroke-opacity:1"
       d="m 9.5181487,6.013874 0,4.973625"
       id="path33060"
       inkscape:connector-curvature="0"
       sodipodi:nodetypes="cc" />
    <g
       style="font-size:18px;font-style:normal;font-variant:normal;font-weight:600;font-stretch:normal;text-align:start;line-height:125%;letter-spacing:0px;word-spacing:0px;writing-mode:lr-tb;text-anchor:start;fill:#eeeeec;fill-opacity:1;stroke:none;font-family:Adobe Caslon Pro;-inkscape-font-specification:Adobe Caslon Pro Semi-Bold"
       id="text33138"
       transform="matrix(1.38235,0,0,1.38235,-1.5138455,8.1120438)">
      <path
         d="M 4.4020075,0.08927906 C 4.4605033,0.1725379 4.6675003,0.41103468 5.0229992,0.80477011 5.3784906,1.198524 5.6394871,1.4640202 5.8059894,1.6012596 5.9747325,1.6927667 6.15023,1.7257661 6.3324823,1.700258 6.5147246,1.6747667 6.6632227,1.581768 6.7779769,1.4212619 6.9099696,1.1685241 6.942969,0.96302684 6.8769753,0.80476958 6.8109705,0.64653079 6.7179719,0.54003235 6.5979792,0.48527396 6.471309,0.42261788 6.2446454,0.35195211 5.9179877,0.27327645 5.5913208,0.19462033 5.2766583,0.12395456 4.9739995,0.06127894 4.6713334,-0.00137672 4.4926694,-0.04004269 4.438007,-0.05471909 l 0,-0.07199907 c 0.055329,-0.003323 0.2326601,-0.0326558 0.5319928,-0.0879987 0.2993254,-0.0553224 0.6046544,-0.11665499 0.9159881,-0.18399793 0.3113245,-0.0673221 0.5126552,-0.1206546 0.6039927,-0.15999779 0.1657423,-0.0929883 0.2752407,-0.22198659 0.3284955,-0.38699529 0.053244,-0.16498673 0.027744,-0.34798413 -0.076499,-0.54899273 -0.1095038,-0.179236 -0.241502,-0.2887345 -0.3959949,-0.328496 -0.154503,-0.039738 -0.3225006,-0.014238 -0.5039935,0.076499 -0.1500024,0.1192602 -0.4079989,0.3757567 -0.77399,0.76949037 C 4.702,-0.58345153 4.4800031,-0.33595506 4.4020073,-0.23471705 l -0.071999,-0.0719991 C 4.3870044,-0.41920402 4.4980028,-0.73419974 4.6630038,-1.2517039 4.8279982,-1.7691856 4.920997,-2.1381804 4.9420005,-2.3586894 4.9427468,-2.5574246 4.8872475,-2.7089227 4.7755024,-2.8131841 4.6637503,-2.9174199 4.4912528,-2.9699189 4.2580093,-2.9706815 c -0.2174998,0.00226 -0.3854975,0.060762 -0.5039935,0.175498 -0.1185009,0.1147612 -0.1785001,0.2722589 -0.1799977,0.4724936 0.00689,0.1135663 0.057108,0.3224522 0.1506645,0.6266584 0.093552,0.3042298 0.1891061,0.5984479 0.286663,0.88265522 0.097551,0.28422906 0.1557729,0.45311571 0.1746646,0.50666043 l -0.071999,0.0359995 C 4.0157595,-0.36932965 3.7892626,-0.60857637 3.4345196,-0.9884572 3.0797725,-1.368316 2.8082763,-1.6210624 2.6200304,-1.7466973 2.452781,-1.8389345 2.2832832,-1.8614342 2.1115364,-1.8141967 c -0.1717484,0.047261 -0.3142462,0.1777595 -0.4274939,0.3914952 -0.082124,0.1725088 -0.093374,0.3495063 -0.03375,0.53099292 0.059624,0.1815085 0.1968718,0.30450689 0.4117448,0.36899551 0.185997,0.0427599 0.5024927,0.110259 0.949488,0.2024974 0.4469919,0.0922591 0.7724873,0.16875806 0.9764872,0.22949704 l 0,0.07199908 C 3.8117623,0.01729001 3.4802668,0.09378904 2.9935251,0.21077776 2.50678,0.32778615 2.1662849,0.43128462 1.9720387,0.52127349 1.7837905,0.64353119 1.6742919,0.79502899 1.6435427,0.97576737 1.6127928,1.1565239 1.6562923,1.3350215 1.7740413,1.5112607 1.8704146,1.6593922 2.0061628,1.7501409 2.1812862,1.7835074 2.3564078,1.8168903 2.5326553,1.768141 2.7100292,1.6372591 2.9342746,1.44827 3.1877711,1.1872735 3.4705195,0.85426894 3.7532635,0.52128275 3.9617606,0.27828621 4.0960114,0.12527859 l 0.071999,0.0359995 C 4.1196331,0.2902864 4.0138845,0.60828199 3.8507642,1.1152658 3.6876388,1.6222676 3.5953902,1.9762626 3.5740181,2.1772522 c 0.0015,0.1860053 0.061497,0.345003 0.1799977,0.4769936 C 3.8725114,2.7862511 4.0405091,2.8552503 4.2580093,2.8612434 4.5070027,2.8530004 4.6840002,2.7795014 4.7890022,2.6407459 4.8939973,2.5020053 4.9449967,2.3475075 4.9420005,2.1772522 4.9187472,1.9267634 4.8212484,1.5547686 4.649504,1.0612665 4.4777529,0.56778246 4.3712545,0.26778662 4.3300084,0.16127813 z"
         id="path33146"
         inkscape:connector-curvature="0"
         style="fill:#eeeeec" />
    </g>
  </g>
</svg>
