<?xml version="1.0" encoding="UTF-8" standalone="no"?>
<!-- Created with Inkscape (http://www.inkscape.org/) -->

<svg
   xmlns:dc="http://purl.org/dc/elements/1.1/"
   xmlns:cc="http://creativecommons.org/ns#"
   xmlns:rdf="http://www.w3.org/1999/02/22-rdf-syntax-ns#"
   xmlns:svg="http://www.w3.org/2000/svg"
   xmlns="http://www.w3.org/2000/svg"
   xmlns:xlink="http://www.w3.org/1999/xlink"
   xmlns:sodipodi="http://sodipodi.sourceforge.net/DTD/sodipodi-0.dtd"
   xmlns:inkscape="http://www.inkscape.org/namespaces/inkscape"
   width="16px"
   height="16px"
   id="svg12784"
   version="1.1"
   inkscape:version="0.48.5 r10040"
   sodipodi:docname="normalize_values_anim.svg">
  <defs
     id="defs12786">
    <linearGradient
       inkscape:collect="always"
       xlink:href="#linearGradient2809"
       id="linearGradient2815"
       x1="6.9810791"
       y1="11.000004"
       x2="8.9988976"
       y2="11.000004"
       gradientUnits="userSpaceOnUse"
       gradientTransform="matrix(1,0,0,1.666667,0,-10.33334)" />
    <linearGradient
       id="linearGradient2809">
      <stop
         style="stop-color:#99a28f;stop-opacity:1;"
         offset="0"
         id="stop2811" />
      <stop
         style="stop-color:white;stop-opacity:1;"
         offset="1"
         id="stop2813" />
    </linearGradient>
    <linearGradient
       inkscape:collect="always"
       xlink:href="#linearGradient2849"
       id="linearGradient2855"
       x1="6.000001"
       y1="8.0000038"
       x2="9.9999981"
       y2="8.0000038"
       gradientUnits="userSpaceOnUse" />
    <linearGradient
       id="linearGradient2849">
      <stop
         style="stop-color:#2e3436;stop-opacity:1;"
         offset="0"
         id="stop2851" />
      <stop
         style="stop-color:#aeaeae;stop-opacity:1;"
         offset="1"
         id="stop2853" />
    </linearGradient>
    <linearGradient
       inkscape:collect="always"
       xlink:href="#linearGradient2797"
       id="linearGradient2839"
       gradientUnits="userSpaceOnUse"
       x1="4.0011001"
       y1="3.5"
       x2="12.038944"
       y2="3.5"
       gradientTransform="translate(1.9725318,3.0362939)" />
    <linearGradient
       id="linearGradient2797">
      <stop
         style="stop-color:white;stop-opacity:1;"
         offset="0"
         id="stop2799" />
      <stop
         style="stop-color:#999e93;stop-opacity:1;"
         offset="1"
         id="stop2801" />
    </linearGradient>
    <linearGradient
       gradientTransform="translate(1.9725318,0.03629389)"
       inkscape:collect="always"
       xlink:href="#linearGradient2841"
       id="linearGradient2847"
       x1="4.7218924"
       y1="3"
       x2="12.879868"
       y2="10"
       gradientUnits="userSpaceOnUse" />
    <linearGradient
       id="linearGradient2841">
      <stop
         style="stop-color:#5c5c5c;stop-opacity:1;"
         offset="0"
         id="stop2843" />
      <stop
         style="stop-color:#2e3436;stop-opacity:1;"
         offset="1"
         id="stop2845" />
    </linearGradient>
    <linearGradient
       y2="11.000004"
       x2="8.9988976"
       y1="11.000004"
       x1="6.9810791"
       gradientTransform="matrix(1,0,0,1.666667,1.9725318,-10.297046)"
       gradientUnits="userSpaceOnUse"
       id="linearGradient15442"
       xlink:href="#linearGradient2809"
       inkscape:collect="always" />
    <linearGradient
       gradientTransform="translate(1.9725318,0.03629389)"
       y2="8.0000038"
       x2="9.9999981"
       y1="8.0000038"
       x1="6.000001"
       gradientUnits="userSpaceOnUse"
       id="linearGradient15444"
       xlink:href="#linearGradient2849"
       inkscape:collect="always" />
  </defs>
  <sodipodi:namedview
     id="base"
     pagecolor="#ffffff"
     bordercolor="#666666"
     borderopacity="1.0"
     inkscape:pageopacity="0.0"
     inkscape:pageshadow="2"
     inkscape:zoom="31.392433"
     inkscape:cx="17.263494"
     inkscape:cy="9.3110059"
     inkscape:current-layer="layer1"
     showgrid="true"
     inkscape:grid-bbox="true"
     inkscape:document-units="px"
     inkscape:snap-global="false"
     inkscape:window-width="2560"
     inkscape:window-height="1537"
     inkscape:window-x="-8"
     inkscape:window-y="-8"
     inkscape:window-maximized="1">
    <inkscape:grid
       type="xygrid"
       id="grid12792" />
  </sodipodi:namedview>
  <metadata
     id="metadata12789">
    <rdf:RDF>
      <cc:Work
         rdf:about="">
        <dc:format>image/svg+xml</dc:format>
        <dc:type
           rdf:resource="http://purl.org/dc/dcmitype/StillImage" />
        <dc:title></dc:title>
      </cc:Work>
    </rdf:RDF>
  </metadata>
  <g
     id="layer1"
     inkscape:label="Layer 1"
     inkscape:groupmode="layer">
    <path
       sodipodi:nodetypes="czzc"
       inkscape:connector-curvature="0"
       id="path15503"
       d="M 5.3712579,3.732897 C 7.4707985,3.3496216 6.9903443,1.4243912 8.5733007,1.4374764 c 1.5829563,0.013085 1.0197356,5.2186656 2.7362913,5.202048 1.716555,-0.016614 1.283402,-2.4709166 3.260262,-2.9202098"
       style="fill:none;stroke:#5f0000;stroke-width:3;stroke-linecap:round;stroke-linejoin:miter;stroke-miterlimit:4;stroke-opacity:1;stroke-dasharray:none" />
    <g
       style="font-size:21.52134895px;font-style:normal;font-weight:normal;line-height:125%;letter-spacing:0px;word-spacing:0px;fill:#ffffff;fill-opacity:1;stroke:#000000;stroke-width:0.62753725;stroke-miterlimit:4;font-family:Sans"
       id="text13973"
       transform="matrix(0.82722896,0,0,0.76742375,-6.7965646,4.1109786)">
      <path
         d="M 8.5991621,4.2133555 C 9.1385959,4.1993506 9.5781998,4.0539836 9.9179753,3.7772539 10.257747,3.500538 10.483679,3.120482 10.595772,2.6370848 10.707859,2.1537036 10.767407,1.327038 10.774416,0.15708561 c 0.007,-1.16993151 0.02802,-1.94055191 0.06305,-2.31186371 0.06305,-0.5884609 0.180392,-1.0613417 0.352033,-1.4186436 0.171635,-0.3572734 0.383556,-0.6427533 0.635763,-0.8564404 0.252199,-0.2136569 0.574458,-0.3765381 0.966779,-0.4886439 0.26621,-0.070041 0.700559,-0.105069 1.303051,-0.1050847 l 0.588474,0 0,1.64983 -0.325763,0 c -0.728593,1.4e-5 -1.211982,0.1313698 -1.450169,0.3940677 -0.238196,0.2627251 -0.357292,0.8494475 -0.357288,1.7601689 -4e-6,1.83548964 -0.03853,2.9949231 -0.115593,3.4783039 -0.126106,0.749612 -0.341529,1.3275773 -0.646271,1.7338978 -0.304749,0.4063338 -0.782884,0.7671243 -1.434406,1.0823725 0.770618,0.322265 1.329318,0.8144113 1.676101,1.4764402 0.346775,0.6620371 0.520165,1.74616 0.520169,3.2523718 -4e-6,1.3661009 0.01401,2.1787549 0.04203,2.4379649 0.05604,0.476382 0.197905,0.80915 0.425593,0.998305 0.227679,0.18915 0.674288,0.283726 1.33983,0.283729 l 0.325763,0 0,1.64983 -0.588474,0 c -0.686559,-5e-6 -1.18396,-0.05605 -1.492203,-0.168136 -0.448361,-0.161134 -0.81966,-0.422094 -1.113893,-0.782881 C 11.194751,13.86188 11.003848,13.404762 10.91628,12.851319 10.828707,12.297871 10.781419,11.390641 10.774416,10.129625 10.767407,8.86861 10.707859,7.9964077 10.595772,7.5130154 10.483679,7.0296294 10.257747,6.647822 9.9179753,6.3675921 9.5781998,6.0873707 9.1385959,5.9402523 8.5991621,5.9262363 z"
         id="path13978"
         inkscape:connector-curvature="0"
         style="stroke-width:0.62753725" />
    </g>
    <path
       style="fill:none;stroke:#f25454;stroke-width:0.99999988px;stroke-linecap:butt;stroke-linejoin:miter;stroke-opacity:1"
       d="M 5.3712579,3.7216723 C 7.4707985,3.3402711 6.9903443,1.4244548 8.5733007,1.4374761 c 1.5829563,0.013021 1.0197356,5.1931468 2.7362913,5.1766106 1.716555,-0.016534 1.283402,-2.4588342 3.260262,-2.9059304"
       id="path15497"
       inkscape:connector-curvature="0"
       sodipodi:nodetypes="czzc" />
    <path
       sodipodi:type="arc"
       style="color:#000000;fill:#ffffff;fill-opacity:1;fill-rule:nonzero;stroke:#ef2929;stroke-width:1.1428895;stroke-linecap:round;stroke-linejoin:miter;stroke-miterlimit:4;stroke-opacity:1;stroke-dasharray:none;stroke-dashoffset:0;marker:none;visibility:visible;display:inline;overflow:visible;enable-background:accumulate"
       id="path15499"
       sodipodi:cx="5.415318"
       sodipodi:cy="7.3992009"
       sodipodi:rx="1.2104828"
       sodipodi:ry="1.2104828"
       d="m 6.6258008,7.3992009 a 1.2104828,1.2104828 0 1 1 -2.4209656,0 1.2104828,1.2104828 0 1 1 2.4209656,0 z"
       transform="matrix(0.86842105,0,0,0.88157895,0.71254182,-2.7711546)" />
    <path
       transform="matrix(0.86842105,0,0,0.88157895,9.8548725,-2.7711547)"
       d="m 6.6258008,7.3992009 a 1.2104828,1.2104828 0 1 1 -2.4209656,0 1.2104828,1.2104828 0 1 1 2.4209656,0 z"
       sodipodi:ry="1.2104828"
       sodipodi:rx="1.2104828"
       sodipodi:cy="7.3992009"
       sodipodi:cx="5.415318"
       id="path15501"
       style="color:#000000;fill:#ffffff;fill-opacity:1;fill-rule:nonzero;stroke:#ef2929;stroke-width:1.1428895;stroke-linecap:round;stroke-linejoin:miter;stroke-miterlimit:4;stroke-opacity:1;stroke-dasharray:none;stroke-dashoffset:0;marker:none;visibility:visible;display:inline;overflow:visible;enable-background:accumulate"
       sodipodi:type="arc" />
    <path
       style="fill:none;stroke:#16325b;stroke-width:3;stroke-linecap:round;stroke-linejoin:miter;stroke-miterlimit:4;stroke-opacity:1;stroke-dasharray:none"
       d="M 5.3712579,11.750785 C 7.4707985,11.37554 6.9903443,9.4906524 8.5733007,9.5034635 c 1.5829563,0.012811 1.0197356,5.1093125 2.7362913,5.0930425 1.716555,-0.01627 1.283402,-2.41914 3.260262,-2.859018"
       id="path15505"
       inkscape:connector-curvature="0"
       sodipodi:nodetypes="czzc" />
    <path
       sodipodi:nodetypes="czzc"
       inkscape:connector-curvature="0"
       id="path15507"
       d="m 5.3712579,11.739796 c 2.0995406,-0.37341 1.6190864,-2.2490812 3.2020428,-2.2363329 1.5829563,0.012749 1.0197356,5.0843289 2.7362913,5.0681379 1.716555,-0.01619 1.283402,-2.40731 3.260262,-2.845038"
       style="fill:none;stroke:#729fcf;stroke-width:0.99999981999999998px;stroke-linecap:butt;stroke-linejoin:miter;stroke-opacity:1" />
    <path
       transform="matrix(0.86842105,0,0,0.88157895,0.71254182,5.2562577)"
       d="m 6.6258008,7.3992009 a 1.2104828,1.2104828 0 1 1 -2.4209656,0 1.2104828,1.2104828 0 1 1 2.4209656,0 z"
       sodipodi:ry="1.2104828"
       sodipodi:rx="1.2104828"
       sodipodi:cy="7.3992009"
       sodipodi:cx="5.415318"
       id="path15509"
       style="color:#000000;fill:#ffffff;fill-opacity:1;fill-rule:nonzero;stroke:#729fcf;stroke-width:1.14288949999999990;stroke-linecap:round;stroke-linejoin:miter;stroke-miterlimit:4;stroke-opacity:1;stroke-dasharray:none;stroke-dashoffset:0;marker:none;visibility:visible;display:inline;overflow:visible;enable-background:accumulate"
       sodipodi:type="arc" />
    <path
       sodipodi:type="arc"
       style="color:#000000;fill:#ffffff;fill-opacity:1;fill-rule:nonzero;stroke:#729fcf;stroke-width:1.14288949999999990;stroke-linecap:round;stroke-linejoin:miter;stroke-miterlimit:4;stroke-opacity:1;stroke-dasharray:none;stroke-dashoffset:0;marker:none;visibility:visible;display:inline;overflow:visible;enable-background:accumulate"
       id="path15511"
       sodipodi:cx="5.415318"
       sodipodi:cy="7.3992009"
       sodipodi:rx="1.2104828"
       sodipodi:ry="1.2104828"
       d="m 6.6258008,7.3992009 a 1.2104828,1.2104828 0 1 1 -2.4209656,0 1.2104828,1.2104828 0 1 1 2.4209656,0 z"
       transform="matrix(0.86842105,0,0,0.88157895,9.8548725,5.2881125)" />
  </g>
</svg>
