<?xml version="1.0" encoding="UTF-8" standalone="no"?>
<!-- Created with Inkscape (http://www.inkscape.org/) -->

<svg
   xmlns:dc="http://purl.org/dc/elements/1.1/"
   xmlns:cc="http://creativecommons.org/ns#"
   xmlns:rdf="http://www.w3.org/1999/02/22-rdf-syntax-ns#"
   xmlns:svg="http://www.w3.org/2000/svg"
   xmlns="http://www.w3.org/2000/svg"
   xmlns:sodipodi="http://sodipodi.sourceforge.net/DTD/sodipodi-0.dtd"
   xmlns:inkscape="http://www.inkscape.org/namespaces/inkscape"
   width="16px"
   height="16px"
   id="svg1872"
   sodipodi:version="0.32"
   inkscape:version="0.48.5 r10040"
   sodipodi:docname="qlinear.svg"
   inkscape:output_extension="org.inkscape.output.svg.inkscape"
   version="1.1">
  <defs
     id="defs1874" />
  <sodipodi:namedview
     id="base"
     pagecolor="#ffffff"
     bordercolor="#666666"
     borderopacity="1.0"
     inkscape:pageopacity="0.0"
     inkscape:pageshadow="2"
     inkscape:zoom="22.197802"
     inkscape:cx="4.3960392"
     inkscape:cy="15.207921"
     inkscape:current-layer="layer1"
     showgrid="true"
     inkscape:grid-bbox="true"
     inkscape:document-units="px"
     inkscape:window-width="1297"
     inkscape:window-height="1086"
     inkscape:window-x="1092"
     inkscape:window-y="148"
     inkscape:window-maximized="0" />
  <metadata
     id="metadata1877">
    <rdf:RDF>
      <cc:Work
         rdf:about="">
        <dc:format>image/svg+xml</dc:format>
        <dc:type
           rdf:resource="http://purl.org/dc/dcmitype/StillImage" />
      </cc:Work>
    </rdf:RDF>
  </metadata>
  <g
     id="layer1"
     inkscape:label="Layer 1"
     inkscape:groupmode="layer">
    <path
       style="font-size:15.03627681999999943px;font-style:normal;font-variant:normal;font-weight:normal;font-stretch:normal;text-align:start;line-height:125%;writing-mode:lr-tb;text-anchor:start;fill:none;fill-opacity:1;stroke:#000000;stroke-width:2;stroke-linecap:butt;stroke-linejoin:miter;stroke-opacity:0.75294119000000004;font-family:Century;stroke-miterlimit:4;stroke-dasharray:none"
       d="M 10.577162,11.410859 C 10.655468,11.611539 10.741123,11.885638 10.83413,12.233156 C 11.005433,12.88414 11.169402,13.307524 11.326039,13.50331 C 11.482658,13.699093 11.661311,13.796985 11.862001,13.796987 C 12.047986,13.796985 12.208285,13.692975 12.342897,13.484955 C 12.477489,13.276932 12.549684,12.930638 12.559484,12.446072 L 13,12.446072 C 12.995094,13.327102 12.823783,13.975639 12.486065,14.391684 C 12.148326,14.807724 11.70781,15.015745 11.164517,15.015748 C 10.660362,15.015745 10.250438,14.813842 9.934743,14.410039 C 9.619033,14.00623 9.409788,13.231657 9.307008,12.086317 C 9.032902,12.154842 8.768593,12.206235 8.514079,12.240498 C 8.259553,12.27476 8.017269,12.291891 7.787228,12.291891 C 6.876824,12.291891 6.036173,12.055726 5.2652746,11.583395 C 4.4943691,11.111065 3.8825421,10.43316 3.4297916,9.5496798 C 2.977038,8.6662041 2.750662,7.668926 2.7506629,6.5578425 C 2.750662,4.9817815 3.2621494,3.635762 4.2851267,2.5197799 C 5.2151014,1.5066038 6.370231,1.000011 7.750519,1 C 8.675595,1.000011 9.519917,1.233729 10.283485,1.7011545 C 11.047037,2.1686007 11.658864,2.8391632 12.118968,3.7128438 C 12.579052,4.5865413 12.809099,5.5642409 12.80911,6.6459457 C 12.809099,7.6346637 12.629222,8.5156946 12.269478,9.2890412 C 11.909713,10.062393 11.345609,10.769665 10.577162,11.410859 L 10.577162,11.410859 z M 10.210066,10.397673 C 10.474367,9.8984238 10.667704,9.3575687 10.790078,8.775106 C 10.912435,8.1926499 10.973618,7.4633521 10.973627,6.5872102 C 10.973618,5.3537724 10.839016,4.3785201 10.56982,3.6614503 C 10.300608,2.9443974 9.921275,2.4145552 9.431821,2.071922 C 8.942352,1.7293089 8.38926,1.5579973 7.772544,1.5579868 C 7.165606,1.5579973 6.62108,1.7293089 6.138964,2.071922 C 5.6568405,2.4145552 5.2799551,2.9492921 5.008307,3.6761342 C 4.7366526,4.4029931 4.600827,5.390482 4.6008297,6.6386038 C 4.600827,7.5196402 4.6815882,8.2758584 4.8431135,8.9072608 C 5.0046329,9.5386695 5.2567056,10.13826 5.5993325,10.706034 C 5.5895396,10.480883 5.5846449,10.299782 5.5846486,10.162731 C 5.5846449,9.5558006 5.7792059,9.0565497 6.168332,8.664977 C 6.55745,8.2734111 7.067714,8.0776265 7.699125,8.0776224 C 8.335419,8.0776265 8.868933,8.2905423 9.299666,8.7163705 C 9.622703,9.0394186 9.92617,9.5998522 10.210066,10.397673 L 10.210066,10.397673 z M 9.307008,11.330098 C 9.297211,10.449068 9.182188,9.8103207 8.961937,9.4138541 C 8.682937,8.9048166 8.254658,8.6502966 7.677099,8.6502931 C 7.216999,8.6502966 6.840114,8.7971351 6.546442,9.0908091 C 6.25276,9.384489 6.105922,9.7638218 6.105926,10.228808 C 6.105922,10.688904 6.287022,11.124525 6.649229,11.535672 C 6.996742,11.687406 7.361391,11.763272 7.743177,11.763272 C 8.036848,11.763272 8.313394,11.726563 8.572815,11.653143 C 8.832223,11.579724 9.076954,11.472043 9.307008,11.330098 L 9.307008,11.330098 z "
       id="path4517" />
    <path
       style="font-size:15.03627681999999943px;font-style:normal;font-variant:normal;font-weight:normal;font-stretch:normal;text-align:start;line-height:125%;writing-mode:lr-tb;text-anchor:start;fill:#ffffff;fill-opacity:1;stroke:none;stroke-width:1px;stroke-linecap:butt;stroke-linejoin:miter;stroke-opacity:1;font-family:Century"
       d="M 10.577162,11.395111 C 10.655468,11.595791 10.741123,11.86989 10.83413,12.217408 C 11.005433,12.868392 11.169402,13.291776 11.326039,13.487562 C 11.482658,13.683345 11.661311,13.781237 11.862001,13.781239 C 12.047986,13.781237 12.208285,13.677227 12.342897,13.469207 C 12.477489,13.261184 12.549684,12.91489 12.559484,12.430324 L 13,12.430324 C 12.995094,13.311354 12.823783,13.959891 12.486065,14.375936 C 12.148326,14.791976 11.70781,14.999997 11.164517,15 C 10.660362,14.999997 10.250438,14.798094 9.9347434,14.394291 C 9.6190326,13.990482 9.4097877,13.215909 9.3070082,12.070569 C 9.0329022,12.139094 8.7685929,12.190487 8.5140795,12.22475 C 8.2595528,12.259012 8.0172693,12.276143 7.7872282,12.276143 C 6.8768237,12.276143 6.0361733,12.039978 5.2652746,11.567647 C 4.4943691,11.095317 3.8825421,10.417412 3.4297916,9.5339315 C 2.977038,8.6504558 2.750662,7.6531777 2.7506629,6.5420942 C 2.750662,4.9660332 3.2621494,3.6200137 4.2851267,2.5040316 C 5.2151014,1.4908555 6.3702309,0.98426274 7.7505186,0.98425166 C 8.6755952,0.98426274 9.5199166,1.2179807 10.283485,1.6854062 C 11.047037,2.1528524 11.658864,2.8234149 12.118968,3.6970955 C 12.579052,4.570793 12.809099,5.5484926 12.80911,6.6301974 C 12.809099,7.6189154 12.629222,8.4999463 12.269478,9.2732929 C 11.909713,10.046645 11.345609,10.753917 10.577162,11.395111 L 10.577162,11.395111 z M 10.210066,10.381925 C 10.474367,9.8826755 10.667704,9.3418204 10.790078,8.7593577 C 10.912435,8.1769016 10.973618,7.4476038 10.973627,6.5714619 C 10.973618,5.3380241 10.839016,4.3627718 10.56982,3.645702 C 10.300608,2.9286491 9.9212751,2.3988069 9.431821,2.0561737 C 8.9423518,1.7135606 8.3892602,1.542249 7.7725444,1.5422385 C 7.1656061,1.542249 6.62108,1.7135606 6.1389645,2.0561737 C 5.6568405,2.3988069 5.2799551,2.9335438 5.008307,3.6603859 C 4.7366526,4.3872448 4.600827,5.3747337 4.6008297,6.6228555 C 4.600827,7.5038919 4.6815882,8.2601101 4.8431135,8.8915125 C 5.0046329,9.5229212 5.2567056,10.122512 5.5993325,10.690286 C 5.5895396,10.465135 5.5846449,10.284034 5.5846486,10.146983 C 5.5846449,9.5400523 5.7792059,9.0408014 6.1683322,8.6492287 C 6.55745,8.2576628 7.0677137,8.0618782 7.699125,8.0618741 C 8.3354194,8.0618782 8.8689326,8.274794 9.2996662,8.7006222 C 9.6227035,9.0236703 9.9261697,9.5841039 10.210066,10.381925 L 10.210066,10.381925 z M 9.3070082,11.31435 C 9.2972115,10.43332 9.182188,9.7945724 8.9619374,9.3981058 C 8.6829372,8.8890683 8.2546582,8.6345483 7.6770993,8.6345448 C 7.2169995,8.6345483 6.8401141,8.7813868 6.5464417,9.0750608 C 6.2527601,9.3687407 6.1059216,9.7480735 6.1059258,10.21306 C 6.1059216,10.673156 6.2870224,11.108777 6.6492288,11.519924 C 6.9967418,11.671658 7.3613907,11.747524 7.7431766,11.747524 C 8.0368478,11.747524 8.3133936,11.710815 8.572815,11.637395 C 8.832223,11.563976 9.0769538,11.456295 9.3070082,11.31435 L 9.3070082,11.31435 z "
       id="text4508" />
  </g>
</svg>
