<?xml version="1.0" encoding="UTF-8" standalone="no"?>
<!-- Created with Inkscape (http://www.inkscape.org/) -->

<svg
   xmlns:dc="http://purl.org/dc/elements/1.1/"
   xmlns:cc="http://creativecommons.org/ns#"
   xmlns:rdf="http://www.w3.org/1999/02/22-rdf-syntax-ns#"
   xmlns:svg="http://www.w3.org/2000/svg"
   xmlns="http://www.w3.org/2000/svg"
   xmlns:xlink="http://www.w3.org/1999/xlink"
   xmlns:sodipodi="http://sodipodi.sourceforge.net/DTD/sodipodi-0.dtd"
   xmlns:inkscape="http://www.inkscape.org/namespaces/inkscape"
   width="16px"
   height="16px"
   id="svg12784"
   version="1.1"
   inkscape:version="0.48.5 r10040"
   sodipodi:docname="unisolate.svg">
  <defs
     id="defs12786">
    <linearGradient
       inkscape:collect="always"
       xlink:href="#linearGradient2809"
       id="linearGradient2815"
       x1="6.9810791"
       y1="11.000004"
       x2="8.9988976"
       y2="11.000004"
       gradientUnits="userSpaceOnUse"
       gradientTransform="matrix(1,0,0,1.666667,0,-10.33334)" />
    <linearGradient
       id="linearGradient2809">
      <stop
         style="stop-color:#99a28f;stop-opacity:1;"
         offset="0"
         id="stop2811" />
      <stop
         style="stop-color:white;stop-opacity:1;"
         offset="1"
         id="stop2813" />
    </linearGradient>
    <linearGradient
       inkscape:collect="always"
       xlink:href="#linearGradient2849"
       id="linearGradient2855"
       x1="6.000001"
       y1="8.0000038"
       x2="9.9999981"
       y2="8.0000038"
       gradientUnits="userSpaceOnUse" />
    <linearGradient
       id="linearGradient2849">
      <stop
         style="stop-color:#2e3436;stop-opacity:1;"
         offset="0"
         id="stop2851" />
      <stop
         style="stop-color:#aeaeae;stop-opacity:1;"
         offset="1"
         id="stop2853" />
    </linearGradient>
    <linearGradient
       id="linearGradient2797">
      <stop
         style="stop-color:white;stop-opacity:1;"
         offset="0"
         id="stop2799" />
      <stop
         style="stop-color:#999e93;stop-opacity:1;"
         offset="1"
         id="stop2801" />
    </linearGradient>
    <linearGradient
       id="linearGradient2841">
      <stop
         style="stop-color:#5c5c5c;stop-opacity:1;"
         offset="0"
         id="stop2843" />
      <stop
         style="stop-color:#2e3436;stop-opacity:1;"
         offset="1"
         id="stop2845" />
    </linearGradient>
  </defs>
  <sodipodi:namedview
     id="base"
     pagecolor="#ffffff"
     bordercolor="#666666"
     borderopacity="1.0"
     inkscape:pageopacity="0.0"
     inkscape:pageshadow="2"
     inkscape:zoom="31.392433"
     inkscape:cx="7.7707601"
     inkscape:cy="4.5529593"
     inkscape:current-layer="layer1"
     showgrid="true"
     inkscape:grid-bbox="true"
     inkscape:document-units="px"
     inkscape:snap-global="false"
     inkscape:window-width="2560"
     inkscape:window-height="1537"
     inkscape:window-x="-8"
     inkscape:window-y="-8"
     inkscape:window-maximized="1">
    <inkscape:grid
       type="xygrid"
       id="grid12792" />
  </sodipodi:namedview>
  <metadata
     id="metadata12789">
    <rdf:RDF>
      <cc:Work
         rdf:about="">
        <dc:format>image/svg+xml</dc:format>
        <dc:type
           rdf:resource="http://purl.org/dc/dcmitype/StillImage" />
        <dc:title></dc:title>
      </cc:Work>
    </rdf:RDF>
  </metadata>
  <g
     id="layer1"
     inkscape:label="Layer 1"
     inkscape:groupmode="layer">
    <path
       inkscape:connector-curvature="0"
       style="fill:none;stroke:#000000;stroke-width:3;stroke-linecap:round;stroke-linejoin:miter;stroke-miterlimit:4;stroke-opacity:0.75294118;stroke-dasharray:none"
       d="M 14.495558,1.5557693 C 13.909423,5.3386912 10.625666,8.0674127 8.0602639,8.0603401 5.7126779,8.0539183 2.0775549,10.76063 1.4955608,14.516825"
       id="path4126"
       sodipodi:nodetypes="csc" />
    <path
       inkscape:connector-curvature="0"
       style="fill:none;stroke:#ffffff;stroke-width:1px;stroke-linecap:round;stroke-linejoin:miter;stroke-opacity:1"
       d="M 14.495555,1.5557693 C 13.90942,5.3386912 10.625663,8.0674127 8.0602599,8.0603401 5.7126749,8.0539183 2.0775514,10.76063 1.4955573,14.516825"
       id="path2770"
       sodipodi:nodetypes="csc" />
    <rect
       style="color:#000000;fill:#729fcf;fill-opacity:1;fill-rule:evenodd;stroke:#204a87;stroke-width:0.99999982;stroke-linecap:butt;stroke-linejoin:miter;stroke-miterlimit:4;stroke-opacity:1;stroke-dasharray:none;stroke-dashoffset:0;marker:none;visibility:visible;display:inline;overflow:visible"
       id="rect2768"
       width="5"
       height="4.9999924"
       x="5.4955578"
       y="5.5557771" />
    <path
       style="fill:#ffffff;stroke:#000000;stroke-width:1;stroke-miterlimit:4;stroke-dasharray:none"
       inkscape:connector-curvature="0"
       d="m 15.525923,11.513333 c 0,0.117163 -0.03446,0.236057 -0.103387,0.356673 -0.482459,0.792609 -1.131183,1.42755 -1.946194,1.90484 -0.815009,0.477288 -1.675668,0.715929 -2.582,0.715929 -0.9063327,0 -1.7669912,-0.239501 -2.5820007,-0.718514 C 7.4973319,13.293249 6.8486068,12.659169 6.3661486,11.870006 6.2972267,11.749395 6.2627658,11.630502 6.2627658,11.513333 c 0,-0.117164 0.03446,-0.236058 0.1033828,-0.356673 0.4824582,-0.789164 1.1311833,-1.4232423 1.9461927,-1.9022546 0.8150095,-0.4790123 1.675668,-0.7185149 2.5820007,-0.7185149 0.906332,0 1.766991,0.2395026 2.582,0.7185149 0.815011,0.4790123 1.463735,1.1130906 1.946194,1.9022546 0.06892,0.120611 0.103387,0.239505 0.103387,0.356673 l 0,0 z"
       id="Path" />
    <circle
       d="M 11.5,8 C 11.5,9.9329966 9.9329966,11.5 8,11.5 6.0670034,11.5 4.5,9.9329966 4.5,8 4.5,6.0670034 6.0670034,4.5 8,4.5 c 1.9329966,0 3.5,1.5670034 3.5,3.5 z"
       style="fill:#000000;stroke:none"
       sodipodi:ry="3.5"
       sodipodi:rx="3.5"
       sodipodi:cy="8"
       sodipodi:cx="8"
       id="Oval-1"
       cx="8"
       cy="8"
       r="3.5"
       transform="matrix(0.66165395,0,0,0.66165395,5.601114,5.889275)" />
    <path
       style="fill:#ffffff;stroke:none"
       inkscape:connector-curvature="0"
       d="m 10.728932,9.445665 c 0,-0.068925 -0.02412,-0.1275064 -0.07237,-0.1757523 -0.04825,-0.048239 -0.106834,-0.072372 -0.17575,-0.072372 -0.430767,0 -0.8003598,0.1542115 -1.1087885,0.4626402 -0.3084272,0.3084287 -0.4626401,0.6780201 -0.4626401,1.1087861 0,0.06893 0.024119,0.127507 0.072372,0.175753 0.048253,0.04825 0.1068347,0.07237 0.1757523,0.07237 0.068925,0 0.1275064,-0.02412 0.1757522,-0.07237 0.048253,-0.04825 0.072372,-0.106835 0.072372,-0.175753 0,-0.296367 0.1051109,-0.549653 0.3153183,-0.759868 0.2102144,-0.2102125 0.4635028,-0.3153191 0.7598698,-0.3153191 0.06893,0 0.127507,-0.024119 0.175751,-0.072372 0.04825,-0.048253 0.07237,-0.1068347 0.07237,-0.1757508 l 0,0 z"
       id="path15547" />
  </g>
</svg>
