<?xml version="1.0" encoding="UTF-8" standalone="no"?>
<!-- Created with Inkscape (http://www.inkscape.org/) -->

<svg
   xmlns:dc="http://purl.org/dc/elements/1.1/"
   xmlns:cc="http://creativecommons.org/ns#"
   xmlns:rdf="http://www.w3.org/1999/02/22-rdf-syntax-ns#"
   xmlns:svg="http://www.w3.org/2000/svg"
   xmlns="http://www.w3.org/2000/svg"
   xmlns:xlink="http://www.w3.org/1999/xlink"
   xmlns:sodipodi="http://sodipodi.sourceforge.net/DTD/sodipodi-0.dtd"
   xmlns:inkscape="http://www.inkscape.org/namespaces/inkscape"
   width="16px"
   height="16px"
   id="svg12784"
   version="1.1"
   inkscape:version="0.48.5 r10040"
   sodipodi:docname="show_names.svg">
  <defs
     id="defs12786">
    <linearGradient
       inkscape:collect="always"
       xlink:href="#linearGradient2809"
       id="linearGradient2815"
       x1="6.9810791"
       y1="11.000004"
       x2="8.9988976"
       y2="11.000004"
       gradientUnits="userSpaceOnUse"
       gradientTransform="matrix(1,0,0,1.666667,0,-10.33334)" />
    <linearGradient
       id="linearGradient2809">
      <stop
         style="stop-color:#99a28f;stop-opacity:1;"
         offset="0"
         id="stop2811" />
      <stop
         style="stop-color:white;stop-opacity:1;"
         offset="1"
         id="stop2813" />
    </linearGradient>
    <linearGradient
       inkscape:collect="always"
       xlink:href="#linearGradient2849"
       id="linearGradient2855"
       x1="6.000001"
       y1="8.0000038"
       x2="9.9999981"
       y2="8.0000038"
       gradientUnits="userSpaceOnUse" />
    <linearGradient
       id="linearGradient2849">
      <stop
         style="stop-color:#2e3436;stop-opacity:1;"
         offset="0"
         id="stop2851" />
      <stop
         style="stop-color:#aeaeae;stop-opacity:1;"
         offset="1"
         id="stop2853" />
    </linearGradient>
    <linearGradient
       id="linearGradient2797">
      <stop
         style="stop-color:white;stop-opacity:1;"
         offset="0"
         id="stop2799" />
      <stop
         style="stop-color:#999e93;stop-opacity:1;"
         offset="1"
         id="stop2801" />
    </linearGradient>
    <linearGradient
       id="linearGradient2841">
      <stop
         style="stop-color:#5c5c5c;stop-opacity:1;"
         offset="0"
         id="stop2843" />
      <stop
         style="stop-color:#2e3436;stop-opacity:1;"
         offset="1"
         id="stop2845" />
    </linearGradient>
  </defs>
  <sodipodi:namedview
     id="base"
     pagecolor="#ffffff"
     bordercolor="#666666"
     borderopacity="1.0"
     inkscape:pageopacity="0.0"
     inkscape:pageshadow="2"
     inkscape:zoom="31.392433"
     inkscape:cx="1.7873249"
     inkscape:cy="3.9116149"
     inkscape:current-layer="layer1"
     showgrid="true"
     inkscape:grid-bbox="true"
     inkscape:document-units="px"
     inkscape:snap-global="false"
     inkscape:window-width="2560"
     inkscape:window-height="1377"
     inkscape:window-x="-8"
     inkscape:window-y="-8"
     inkscape:window-maximized="1">
    <inkscape:grid
       type="xygrid"
       id="grid12792" />
  </sodipodi:namedview>
  <metadata
     id="metadata12789">
    <rdf:RDF>
      <cc:Work
         rdf:about="">
        <dc:format>image/svg+xml</dc:format>
        <dc:type
           rdf:resource="http://purl.org/dc/dcmitype/StillImage" />
        <dc:title />
      </cc:Work>
    </rdf:RDF>
  </metadata>
  <g
     id="layer1"
     inkscape:label="Layer 1"
     inkscape:groupmode="layer">
    <path
       inkscape:connector-curvature="0"
       style="fill:none;stroke:#2e3436;stroke-width:3;stroke-linecap:round;stroke-linejoin:miter;stroke-miterlimit:4;stroke-opacity:1;stroke-dasharray:none"
       d="M 13.383265,2.5025278 C 12.894558,5.7420892 10.156631,8.0788705 8.0176544,8.0728138 6.0602873,8.0673115 3.0293996,10.385246 2.5441454,13.601921"
       id="path4126"
       sodipodi:nodetypes="csc" />
    <path
       inkscape:connector-curvature="0"
       style="fill:none;stroke:#ffffff;stroke-width:0.99999987999999995px;stroke-linecap:round;stroke-linejoin:miter;stroke-opacity:1"
       d="M 13.383262,2.5025278 C 12.894556,5.7420892 10.156629,8.0788705 8.0176508,8.0728138 6.0602849,8.0673115 3.0293967,10.385246 2.5441426,13.601921"
       id="path2770"
       sodipodi:nodetypes="csc" />
    <path
       d="m 8.2289767,14.152214 0.128366,0.785008 c -0.250152,0.05266 -0.473969,0.07899 -0.671453,0.07899 -0.322563,0 -0.572712,-0.05102 -0.750448,-0.153052 -0.177739,-0.102029 -0.302814,-0.236155 -0.375224,-0.402373 -0.072413,-0.166217 -0.108619,-0.515932 -0.108618,-1.049146 l 0,-3.016604 -0.651705,0 0,-0.6912021 0.651705,0 0,-1.2984726 0.883751,-0.533213 0,1.8316856 0.893626,0 0,0.6912021 -0.893626,0 0,3.065975 c -1e-6,0.253442 0.01563,0.416368 0.0469,0.488779 0.03127,0.07241 0.08229,0.130012 0.153052,0.1728 0.07076,0.04279 0.171976,0.06418 0.303636,0.06418 0.09874,10e-7 0.228752,-0.01152 0.390035,-0.03456 z"
       style="font-size:40px;font-style:normal;font-weight:normal;line-height:125%;letter-spacing:0px;word-spacing:0px;fill:#8ae234;fill-opacity:1;stroke:#295103;stroke-width:2;stroke-miterlimit:4;stroke-opacity:1;stroke-dasharray:none;font-family:Sans"
       id="path16988"
       inkscape:connector-curvature="0" />
    <path
       d="m 9.3287453,14.947097 1.9156167,-2.725312 -1.7724397,-2.5179501 1.1108607,0 0.804756,1.2293521 c 0.151405,0.233696 0.273188,0.429537 0.36535,0.587522 0.144821,-0.217231 0.278124,-0.40978 0.39991,-0.577647 l 0.883751,-1.2392271 1.061489,0 -1.811937,2.4685791 1.950178,2.774683 -1.091112,0 -1.076301,-1.629262 -0.286355,-0.439408 -1.377467,2.06867 z"
       style="font-size:40px;font-style:normal;font-weight:normal;line-height:125%;letter-spacing:0px;word-spacing:0px;fill:#8ae234;fill-opacity:1;stroke:#295103;stroke-width:2;stroke-miterlimit:4;stroke-opacity:1;stroke-dasharray:none;font-family:Sans"
       id="path16990"
       inkscape:connector-curvature="0" />
    <path
       inkscape:connector-curvature="0"
       id="path16982"
       style="font-size:40px;font-style:normal;font-weight:normal;line-height:125%;letter-spacing:0px;word-spacing:0px;fill:#8ae234;fill-opacity:1;stroke:none;font-family:Sans"
       d="m 8.2289767,14.152214 0.128366,0.785008 c -0.250152,0.05266 -0.473969,0.07899 -0.671453,0.07899 -0.322563,0 -0.572712,-0.05102 -0.750448,-0.153052 -0.177739,-0.102029 -0.302814,-0.236155 -0.375224,-0.402373 -0.072413,-0.166217 -0.108619,-0.515932 -0.108618,-1.049146 l 0,-3.016604 -0.651705,0 0,-0.6912021 0.651705,0 0,-1.2984726 0.883751,-0.533213 0,1.8316856 0.893626,0 0,0.6912021 -0.893626,0 0,3.065975 c -1e-6,0.253442 0.01563,0.416368 0.0469,0.488779 0.03127,0.07241 0.08229,0.130012 0.153052,0.1728 0.07076,0.04279 0.171976,0.06418 0.303636,0.06418 0.09874,10e-7 0.228752,-0.01152 0.390035,-0.03456 z" />
    <path
       inkscape:connector-curvature="0"
       id="path16984"
       style="font-size:40px;font-style:normal;font-weight:normal;line-height:125%;letter-spacing:0px;word-spacing:0px;fill:#8ae234;fill-opacity:1;stroke:none;font-family:Sans"
       d="m 9.3287453,14.947097 1.9156167,-2.725312 -1.7724397,-2.5179501 1.1108607,0 0.804756,1.2293521 c 0.151405,0.233696 0.273188,0.429537 0.36535,0.587522 0.144821,-0.217231 0.278124,-0.40978 0.39991,-0.577647 l 0.883751,-1.2392271 1.061489,0 -1.811937,2.4685791 1.950178,2.774683 -1.091112,0 -1.076301,-1.629262 -0.286355,-0.439408 -1.377467,2.06867 z" />
  </g>
</svg>
