<?xml version="1.0" encoding="UTF-8" standalone="no"?>
<svg
   xmlns:dc="http://purl.org/dc/elements/1.1/"
   xmlns:cc="http://creativecommons.org/ns#"
   xmlns:rdf="http://www.w3.org/1999/02/22-rdf-syntax-ns#"
   xmlns:svg="http://www.w3.org/2000/svg"
   xmlns="http://www.w3.org/2000/svg"
   xmlns:xlink="http://www.w3.org/1999/xlink"
   xmlns:sodipodi="http://sodipodi.sourceforge.net/DTD/sodipodi-0.dtd"
   xmlns:inkscape="http://www.inkscape.org/namespaces/inkscape"
   width="48.0px"
   height="48.0px"
   viewBox="0 0 48.0 48.0"
   version="1.1"
   id="SVGRoot"
   sodipodi:docname="engine_unity.svg"
   inkscape:version="1.0.1 (3bc2e813f5, 2020-09-07)">
  <defs
     id="defs43841">
    <path
       id="SVGID_1_"
       d="M152,110.2c-3,0-4.2-1.8-4.2-1.8c-0.2-0.8-0.4-12.7-0.5-24.5c-0.1-12.3,0-24.5,0.6-24.6     c3.5-6.5,14.5-19.6,14.5-19.6c-20.6,4.1-31.8,17.6-31.8,17.6c-3.3-2.6-10.1-2.2-10.1-2.2c3.2,1.7,6.3,6.8,6.3,11v41.4     c0,0-6.9,6.1-12.2,6.1c-3.2,0-5.1-1.7-6.2-3.1c-0.7-1-1-1.8-1-1.8V57.6c-0.7,0.5-1.6,0.9-2.5,0.9c-1.1,0-2.3-0.6-3.1-2.2     c-0.6-1.3-1-3.1-1-5.9c0-9.4,10.7-15.7,10.7-15.7c-13.5,3.6-26.1,10.6-42.8,29.8c-16.7,19.2-13.5,35-13.5,35S59.7,88.5,70.8,77     c5.3-5.4,9.2-7.2,11.9-7.3c3,0,4.4,2.2,4.4,4.2v38.9c0,3.8-2.5,4.7-4.8,4.6c-1.9,0-3.7-0.7-3.7-0.7     c11.4,16.5,38.6,18.9,38.6,18.9l12-12.8l0.3,0.2l11,9.3c20-11.9,29.7-34,29.7-34C161.1,108,155.4,110.2,152,110.2" />
    <rect
       id="SVGID_3_"
       x="-46.8"
       y="-94.5"
       width="705.6"
       height="470.4" />
    <path
       id="SVGID_5_"
       d="M115.6,5.2c21.2,0,41.2,8.3,56.2,23.5c15,15.1,23.3,35.3,23.3,56.7c0,21.4-8.3,41.5-23.3,56.7     c-15,15.1-35,23.5-56.2,23.5s-41.2-8.3-56.2-23.5c-15-15.1-23.3-35.3-23.3-56.7c0-21.4,8.3-41.5,23.3-56.7     C74.4,13.5,94.3,5.2,115.6,5.2 M115.6,1.5C69.6,1.5,32.4,39,32.4,85.3c0,46.3,37.2,83.8,83.1,83.8s83.1-37.5,83.1-83.8     C198.7,39,161.5,1.5,115.6,1.5" />
    <rect
       id="SVGID_7_"
       x="-46.8"
       y="-94.5"
       width="705.6"
       height="470.4" />
    <polygon
       id="SVGID_9_"
       points="73.6,238.3 55.8,238.3 55.8,222 73.3,222 73.3,225.6 60.6,225.6 60.6,228.4 72.6,228.4      72.6,231.8 60.6,231.8 60.6,234.6 73.6,234.6    " />
    <rect
       id="SVGID_11_"
       x="-46.8"
       y="-94.5"
       width="705.6"
       height="470.4" />
    <polygon
       id="SVGID_13_"
       points="97.7,238.3 90.6,238.3 81.1,226.1 81,226.1 81,238.3 76.3,238.3 76.3,222 83.6,222 92.9,234.3      93,234.3 93,222 97.7,222    " />
    <rect
       id="SVGID_15_"
       x="-46.8"
       y="-94.5"
       width="705.6"
       height="470.4" />
    <path
       id="SVGID_17_"
       d="M111.6,238.5c-1.5,0-2.8,0-3.9-0.1c-1.1-0.1-2-0.2-2.8-0.4c-0.8-0.2-1.4-0.5-1.9-0.9     c-0.5-0.4-0.9-0.9-1.1-1.5c-0.3-0.6-0.4-1.3-0.5-2.2c-0.1-0.8-0.1-1.9-0.1-3V230c0-1.2,0-2.2,0.1-3c0.1-0.9,0.3-1.6,0.5-2.2     c0.3-0.6,0.6-1.1,1.1-1.4c0.5-0.4,1.1-0.7,1.9-0.9c0.8-0.2,1.7-0.3,2.8-0.4c1.1-0.1,2.4-0.1,3.9-0.1h0.7c1.3,0,2.4,0,3.3,0.1     c0.9,0.1,1.8,0.2,2.4,0.3c0.7,0.1,1.2,0.3,1.7,0.6c0.4,0.2,0.8,0.6,1,0.9c0.3,0.4,0.4,0.8,0.5,1.4c0.1,0.5,0.1,1.2,0.1,1.9v0.6     h-4.6v-0.2c0-0.4-0.1-0.7-0.2-0.9c-0.1-0.3-0.3-0.5-0.7-0.6c-0.3-0.2-0.8-0.3-1.4-0.3c-0.6-0.1-1.4-0.1-2.4-0.1h-0.4     c-0.9,0-1.7,0-2.3,0c-0.6,0-1.2,0.1-1.6,0.2c-0.4,0.1-0.8,0.3-1,0.4c-0.2,0.2-0.4,0.5-0.6,0.8c-0.1,0.3-0.2,0.7-0.2,1.2     c0,0.5-0.1,1.1-0.1,1.8v0.3c0,0.7,0,1.3,0.1,1.7c0,0.5,0.1,0.9,0.2,1.2c0.1,0.3,0.3,0.6,0.6,0.8c0.2,0.2,0.6,0.3,1,0.4     c0.4,0.1,1,0.2,1.6,0.2c0.6,0,1.4,0,2.3,0h0.4c0.7,0,1.4,0,1.9,0c0.5,0,1-0.1,1.3-0.1c0.4-0.1,0.7-0.1,0.9-0.2     c0.2-0.1,0.4-0.2,0.5-0.4c0.1-0.2,0.2-0.3,0.2-0.6c0-0.2,0.1-0.5,0.1-0.7v-0.5h-6.2v-3.1h10.8v3.6c0,0.8-0.1,1.5-0.2,2.1     c-0.1,0.6-0.3,1.1-0.6,1.5c-0.3,0.4-0.6,0.8-1.1,1.1c-0.4,0.3-1,0.5-1.7,0.7s-1.5,0.3-2.5,0.4c-1,0.1-2.1,0.1-3.4,0.1H111.6z" />
    <rect
       id="SVGID_19_"
       x="-46.8"
       y="-94.5"
       width="705.6"
       height="470.4" />
    <rect
       id="SVGID_21_"
       x="1.8"
       y="184.5"
       width="227.7"
       height="54.1" />
    <rect
       id="SVGID_23_"
       x="-46.8"
       y="-94.5"
       width="705.6"
       height="470.4" />
    <rect
       id="SVGID_25_"
       x="133.3"
       y="222.1"
       width="42.8"
       height="16.5" />
    <polygon
       id="SVGID_27_"
       points="154.6,238.3 147.5,238.3 138.1,226.2 138,226.2 138,238.3 133.4,238.3 133.4,222.2          140.6,222.2 149.9,234.3 150,234.3 150,222.2 154.6,222.2        " />
    <rect
       id="SVGID_29_"
       x="1.8"
       y="184.4"
       width="227.7"
       height="54.1" />
    <polygon
       id="SVGID_31_"
       points="176,238.3 158.4,238.3 158.4,222.2 175.7,222.2 175.7,225.7 163.1,225.7 163.1,228.5          175.1,228.5 175.1,231.9 163.1,231.9 163.1,234.7 176,234.7        " />
    <rect
       id="SVGID_33_"
       x="1.8"
       y="184.4"
       width="227.7"
       height="54.1" />
    <path
       id="SVGID_35_"
       d="M18.9,213.3c-2.3,0-4.3-0.1-6.1-0.2c-1.7-0.1-3.2-0.3-4.5-0.6c-1.3-0.3-2.3-0.7-3.1-1.2     c-0.8-0.5-1.5-1.2-2-1.9c-0.5-0.8-0.8-1.7-1-2.8c-0.2-1.1-0.3-2.3-0.3-3.7v-18.4h8.4v15.7c0,1,0,1.8,0.1,2.5     c0.1,0.7,0.2,1.3,0.4,1.8c0.2,0.5,0.5,0.9,0.9,1.2c0.4,0.3,0.9,0.5,1.6,0.7c0.6,0.2,1.4,0.3,2.4,0.3c0.9,0.1,2.1,0.1,3.4,0.1h0.7     c1.3,0,2.4,0,3.4-0.1c0.9-0.1,1.7-0.2,2.4-0.3c0.6-0.2,1.2-0.4,1.6-0.7c0.4-0.3,0.7-0.7,0.9-1.2c0.2-0.5,0.3-1.1,0.4-1.8     c0.1-0.7,0.1-1.5,0.1-2.5v-15.7h8.4v18.4c0,1.4-0.1,2.6-0.3,3.7c-0.2,1.1-0.5,2-1,2.8c-0.5,0.8-1.1,1.4-2,1.9     c-0.8,0.5-1.9,0.9-3.1,1.2c-1.3,0.3-2.8,0.5-4.5,0.6c-1.8,0.1-3.8,0.2-6.1,0.2H18.9z" />
    <rect
       id="SVGID_37_"
       x="-46.8"
       y="-94.5"
       width="705.6"
       height="470.4" />
    <polygon
       id="SVGID_39_"
       points="80,213 67.5,213 51,191.7 50.8,191.7 50.8,213 42.6,213 42.6,184.5 55.3,184.5 71.7,205.8      71.8,205.8 71.8,184.5 80,184.5    " />
    <rect
       id="SVGID_41_"
       x="-46.8"
       y="-94.5"
       width="705.6"
       height="470.4" />
    <path
       id="SVGID_43_"
       d="M119.6,213h-8.3v-2.3c0-0.8,0-1.5-0.1-2.2c-0.1-0.6-0.2-1.1-0.4-1.5c-0.2-0.4-0.5-0.8-0.9-1     c-0.4-0.3-0.9-0.4-1.6-0.6c-0.6-0.1-1.4-0.2-2.4-0.3c-0.9,0-2.1-0.1-3.4-0.1h-8.4v7.9h-8.3v-28.5H108c2.3,0,4.2,0.1,5.7,0.4     c1.5,0.3,2.7,0.8,3.5,1.4c0.9,0.7,1.5,1.6,1.8,2.7c0.3,1.1,0.5,2.5,0.5,4.1v1c0,1.1-0.1,2.1-0.3,2.9c-0.2,0.8-0.5,1.6-0.9,2.2     c-0.4,0.6-0.9,1.1-1.5,1.5c-0.6,0.4-1.4,0.7-2.3,0.9v0.2c1,0.2,1.8,0.4,2.5,0.6c0.6,0.3,1.1,0.6,1.5,1.1c0.4,0.5,0.6,1.2,0.7,2     c0.1,0.8,0.2,1.8,0.2,3.1V213z M104.6,198.9c1.4,0,2.6,0,3.5-0.1c0.9-0.1,1.5-0.3,2-0.6c0.4-0.3,0.7-0.7,0.9-1.2     c0.1-0.5,0.2-1.2,0.2-2v-0.5c0-0.8-0.1-1.5-0.2-2c-0.1-0.5-0.4-0.9-0.9-1.1c-0.5-0.3-1.1-0.4-2-0.5c-0.9-0.1-2-0.1-3.4-0.1H94.2     v8.1H104.6z" />
    <rect
       id="SVGID_45_"
       x="-46.8"
       y="-94.5"
       width="705.6"
       height="470.4" />
    <polygon
       id="SVGID_47_"
       points="156.1,213 125,213 125,184.5 155.6,184.5 155.6,190.8 133.4,190.8 133.4,195.6 154.4,195.6      154.4,201.6 133.4,201.6 133.4,206.5 156.1,206.5    " />
    <rect
       id="SVGID_49_"
       x="-46.8"
       y="-94.5"
       width="705.6"
       height="470.4" />
    <path
       id="SVGID_51_"
       d="M198.9,213h-9.1l-2.6-5.1h-17.8l-2.6,5.1h-9l15.3-28.5h10.3L198.9,213z M184.2,201.9l-5.8-11.5h-0.2     l-5.8,11.5H184.2z" />
    <rect
       id="SVGID_53_"
       x="-46.8"
       y="-94.5"
       width="705.6"
       height="470.4" />
    <polygon
       id="SVGID_55_"
       points="229.5,213 202,213 202,184.5 210.4,184.5 210.4,206.4 229.5,206.4    " />
    <rect
       id="SVGID_57_"
       x="-46.8"
       y="-94.5"
       width="705.6"
       height="470.4" />
    <rect
       id="SVGID_59_"
       x="125"
       y="222.2"
       width="4.8"
       height="16.2" />
    <rect
       id="SVGID_61_"
       x="-46.8"
       y="-94.5"
       width="705.6"
       height="470.4" />
    <defs
       id="defs44728">
      <path
         id="path45041"
         d="m 115.6,5.2 c 21.2,0 41.2,8.3 56.2,23.5 15,15.1 23.3,35.3 23.3,56.7 0,21.4 -8.3,41.5 -23.3,56.7 -15,15.1 -35,23.5 -56.2,23.5 -21.2,0 -41.2,-8.3 -56.2,-23.5 C 44.4,127 36.1,106.8 36.1,85.4 36.1,64 44.4,43.9 59.4,28.7 74.4,13.5 94.3,5.2 115.6,5.2 m 0,-3.7 c -46,0 -83.2,37.5 -83.2,83.8 0,46.3 37.2,83.8 83.1,83.8 45.9,0 83.1,-37.5 83.1,-83.8 C 198.7,39 161.5,1.5 115.6,1.5" />
    </defs>
    <clipPath
       id="SVGID_6_">
      <use
         xlink:href="#SVGID_5_"
         style="overflow:visible"
         id="use44730"
         x="0"
         y="0"
         width="100%"
         height="100%" />
    </clipPath>
    <linearGradient
       id="linear-gradient-7-6"
       x1="18.360001"
       y1="21.51"
       x2="19.43"
       y2="23.01"
       xlink:href="#linear-gradient-2"
       gradientTransform="matrix(2.5643399,0.58421955,0.58573212,2.570979,-81.82973,-45.294365)" />
    <linearGradient
       id="linear-gradient-2"
       x1="25.49"
       y1="12.17"
       x2="27.24"
       y2="15.46"
       gradientUnits="userSpaceOnUse">
      <stop
         offset="0"
         stop-color="#2e3436"
         id="stop16" />
      <stop
         offset="1"
         stop-color="#fff"
         id="stop18" />
    </linearGradient>
    <linearGradient
       id="linear-gradient-13-7"
       x1="20.91"
       y1="27.25"
       x2="19.200001"
       y2="23.98"
       xlink:href="#linear-gradient"
       gradientTransform="matrix(2.5643399,0.58421955,0.58573212,2.570979,-81.82973,-45.294365)" />
    <linearGradient
       id="linear-gradient"
       x1="26.950001"
       y1="20.77"
       x2="26.209999"
       y2="15.49"
       gradientTransform="rotate(40.53,26.545658,17.882371)"
       gradientUnits="userSpaceOnUse">
      <stop
         offset="0"
         stop-color="#2e3436"
         id="stop11" />
      <stop
         offset="1"
         stop-color="#eceeea"
         id="stop13" />
    </linearGradient>
    <linearGradient
       id="linear-gradient-14-6"
       x1="17.444614"
       y1="20.880941"
       x2="17.68"
       y2="27.870001"
       gradientTransform="matrix(2.5643397,0.58421958,0.58573208,2.5709792,-81.84134,-45.302256)"
       xlink:href="#linear-gradient" />
    <linearGradient
       id="linearGradient11831"
       x1="26.950001"
       y1="20.77"
       x2="26.209999"
       y2="15.49"
       gradientTransform="rotate(40.53,26.545658,17.882371)"
       gradientUnits="userSpaceOnUse">
      <stop
         offset="0"
         stop-color="#2e3436"
         id="stop11827"
         style="stop-color:#2e3436;stop-opacity:1" />
      <stop
         offset="1"
         stop-color="#eceeea"
         id="stop11829"
         style="stop-color:#888a85;stop-opacity:1" />
    </linearGradient>
    <linearGradient
       id="linear-gradient-16-5"
       x1="19.129999"
       y1="22.07"
       x2="18.67"
       y2="25.040001"
       gradientTransform="matrix(2.1084003,2.858005,-1.8077561,3.3333141,-29.001667,-124.60831)"
       xlink:href="#linear-gradient" />
  </defs>
  <sodipodi:namedview
     id="base"
     pagecolor="#ffffff"
     bordercolor="#666666"
     borderopacity="1.0"
     inkscape:pageopacity="0.0"
     inkscape:pageshadow="2"
     inkscape:zoom="15.839192"
     inkscape:cx="16.609638"
     inkscape:cy="22.434172"
     inkscape:document-units="px"
     inkscape:current-layer="layer1"
     inkscape:document-rotation="0"
     showgrid="true"
     inkscape:window-width="2560"
     inkscape:window-height="1377"
     inkscape:window-x="-8"
     inkscape:window-y="-8"
     inkscape:window-maximized="1"
     inkscape:snap-global="false">
    <inkscape:grid
       type="xygrid"
       id="grid44411" />
  </sodipodi:namedview>
  <metadata
     id="metadata43844">
    <rdf:RDF>
      <cc:Work
         rdf:about="">
        <dc:format>image/svg+xml</dc:format>
        <dc:type
           rdf:resource="http://purl.org/dc/dcmitype/StillImage" />
        <dc:title />
      </cc:Work>
    </rdf:RDF>
  </metadata>
  <g
     inkscape:label="Layer 1"
     inkscape:groupmode="layer"
     id="layer1">
    <g
       id="g18266"
       transform="matrix(1.7020126,-1.7320823,1.7256172,1.7083974,-104.58378,105.38438)"
       style="stroke-width:0.411809">
      <path
         style="fill:#ffffff;fill-rule:evenodd;stroke:none;stroke-width:0.411809px;stroke-linecap:butt;stroke-linejoin:miter;stroke-opacity:1"
         d="M 67.455357,6.9196428 74.821428,14.419643 67.410714,21.741071 60,14.285714 Z"
         id="path18250" />
      <g
         id="Page-1"
         stroke="none"
         stroke-width="2.92913"
         fill="none"
         fill-rule="evenodd"
         transform="matrix(0.0994135,0.0994135,-0.0994135,0.0994135,67.409857,6.8809267)">
        <g
           id="engine_logo"
           fill="#ff6600"
           fill-rule="nonzero"
           style="stroke-width:19.2225">
          <path
             d="m 18.44,73.05 -0.54,2 h 17 l -4.86,-4.94 c -3.418215,2.274255 -7.511195,3.311614 -11.6,2.94 z"
             id="Shape"
             style="stroke-width:2.92913" />
          <path
             d="m 37.94,53.89 c 0.138061,2.020115 -0.06821,4.049003 -0.61,6 -0.550152,1.966893 -1.429233,3.826488 -2.6,5.5 l 6.56,6.68 c 4.603623,-5.784796 6.667252,-13.187884 5.72,-20.52 z"
             id="path17588"
             style="stroke-width:2.92913" />
          <path
             d="M 3.66,62.73 0,63.67 V 75 h 11 l 1,-3.72 C 8.3279041,69.462289 5.3858498,66.446154 3.66,62.73 Z"
             id="path17590"
             style="stroke-width:2.92913" />
          <path
             d="m 36.29,47.49 9.07,-2.34 C 42.652727,38.270325 37.268156,32.784703 30.44,29.95 l -2.51,9 c 3.67792,1.811521 6.627227,4.82433 8.36,8.54 z"
             id="path17592"
             style="stroke-width:2.92913" />
          <path
             d="m 0,0 v 24.69 c 0.37,0.21 0.7,0.39 0.93,0.49 1.25,0.57 1.35,0.73 2,0.39 l 0.5,-0.28 C 4.07,24.88 3.99,24.71 4.14,23.35 4.232185,21.160412 4.212158,18.967539 4.08,16.78 4.02,15.99 4.08,15.67 4.8,15.4 l 0.58,-0.21 c 0.71,-0.27 1,-0.07 1.44,0.56 1.3329823,1.738888 2.7548759,3.407777 4.26,5 1,0.92 1,1.1 1.81,1 l 0.55,-0.1 c 0.74,-0.19 0.71,-0.38 1.28,-1.62 0.772858,-2.058019 1.440389,-4.154068 2,-6.28 0.19,-0.77 0.35,-1.05 1.11,-1.08 h 0.62 c 0.76,0 0.94,0.24 1.2,1 0.724466,2.06974 1.558989,4.099299 2.5,6.08 0.67,1.19 0.66,1.38 1.41,1.5 l 0.57,0.07 c 0.76,0.05 0.79,-0.14 1.72,-1.15 1.359324,-1.721462 2.63094,-3.510402 3.81,-5.36 0.42,-0.67 0.66,-0.89 1.39,-0.68 l 0.59,0.16 c 0.74,0.21 0.83,0.52 0.84,1.31 0.05257,2.193869 0.219465,4.383506 0.5,6.56 0.27,1.34 0.2,1.51 0.88,1.87 l 0.52,0.23 c 0.71,0.28 0.79,0.11 2,-0.56 1.82575,-1.215696 3.588057,-2.524076 5.28,-3.92 0.6,-0.51 0.9,-0.64 1.53,-0.22 l 0.52,0.34 c 0.63,0.42 0.62,0.75 0.39,1.5 -0.624786,2.102312 -1.142123,4.235073 -1.55,6.39 -0.16,1.36 -0.28,1.51 0.26,2.05 l 0.42,0.39 c 0.59,0.49 0.72,0.35 2.06,0.08 2.113321,-0.586149 4.19308,-1.287192 6.23,-2.1 0.74,-0.29 1.06,-0.33 1.53,0.27 l 0.39,0.47 c 0.47,0.6 0.36,0.9 -0.09,1.55 -1.251463,1.804225 -2.406417,3.673513 -3.46,5.6 -0.56,1.24 -0.72,1.34 -0.38,2 l 0.28,0.49 c 0.41,0.65 0.58,0.56 1.94,0.72 2.189676,0.09417 4.382828,0.07081 6.57,-0.07 0.79,0 1.11,0 1.38,0.73 l 0.21,0.57 c 0.27,0.72 0.07,1 -0.56,1.45 -1.738888,1.332982 -3.407777,2.754876 -5,4.26 -0.92,1 -1.1,1.05 -1,1.81 l 0.11,0.56 c 0.19,0.74 0.38,0.71 1.62,1.28 2.05582,0.779184 4.152203,1.446822 6.28,2 0.77,0.2 1,0.36 1.08,1.12 v 0.61 c 0,0.76 -0.24,1 -1,1.2 -0.76,0.2 -4.89,1.83 -6.08,2.5 -1.19,0.67 -1.38,0.66 -1.51,1.42 l -0.06,0.56 c 0,0.77 0.14,0.8 1.15,1.72 1.714806,1.368182 3.504224,2.640138 5.36,3.81 0.67,0.42 0.89,0.66 0.68,1.39 l -0.16,0.6 c -0.21,0.73 -0.52,0.82 -1.31,0.84 -2.193708,0.04898 -4.383359,0.212538 -6.56,0.49 -1.34,0.28 -1.51,0.21 -1.87,0.88 l -0.23,0.52 c -0.28,0.71 -0.11,0.8 0.56,2 0.766241,1.20996 1.600932,2.375189 2.5,3.49 H 75 v -75 z"
             id="path17594"
             style="stroke-width:2.92913" />
          <path
             d="m 2.62,50.28 c 0.545255,-1.966919 1.4210769,-3.826772 2.59,-5.5 L 0,39.47 V 56.84 L 2,56.33 C 1.8558605,54.292663 2.065626,52.245754 2.62,50.28 Z"
             id="path17596"
             style="stroke-width:2.92913" />
          <path
             d="M 30.49,58.03 C 32.102246,52.225425 28.704608,46.212703 22.900452,44.598949 17.096296,42.985196 11.082691,46.381271 9.4674302,52.185008 7.8521692,57.988745 11.246683,64.003231 17.05,65.62 c 5.806134,1.606112 11.817174,-1.788516 13.44,-7.59 z"
             id="path17598"
             style="stroke-width:2.92913" />
          <path
             d="m 21.53,37.16 2.51,-9 C 16.712107,27.05654 9.2505489,28.98059 3.37,33.49 l 6.56,6.69 c 3.408084,-2.302371 7.501863,-3.368165 11.6,-3.02 z"
             id="path17600"
             style="stroke-width:2.92913" />
        </g>
      </g>
      <path
         style="fill:none;fill-rule:evenodd;stroke:#c14d00;stroke-width:0.205906;stroke-linecap:butt;stroke-linejoin:miter;stroke-miterlimit:4;stroke-dasharray:none;stroke-opacity:1"
         d="M 67.455357,6.9196428 74.821428,14.419643 67.410714,21.741071 60,14.285714 Z"
         id="path18252" />
    </g>
    <g
       id="g17420"
       transform="matrix(0.98193235,0,0,0.98193261,-0.61182334,1.8507711)"
       style="stroke-width:1.0184">
      <path
         style="fill:#ffffff;fill-rule:evenodd;stroke:none;stroke-width:1.0184px;stroke-linecap:butt;stroke-linejoin:miter;stroke-opacity:1"
         d="m 14.521844,21.856376 10.223215,-2.8125 2.901786,2.008929 2.589285,9.776785 -2.723214,9.910715 -2.901786,1.607143 -10.178571,-2.678572 -7.5892857,-7.5 0.178571,-3.348214 z"
         id="path55009" />
      <path
         d="m 27.286348,40.258432 -5.659032,-9.518887 5.659032,-9.51889 2.728048,9.51889 z M 14.691477,39.32956 7.5811973,32.277535 H 18.899271 l 5.659028,9.518888 z m 0,-17.209158 9.838012,-2.466863 -5.659035,9.518889 H 7.5523913 Z m 14.4523,-7.139087 -12.856369,3.337484 -1.915371,3.279231 -3.859537,-0.02913 -9.4318231,9.170642 9.4318231,9.17064 3.859537,-0.02913 1.915371,3.279232 12.856369,3.366609 3.453354,-12.508123 -1.944491,-3.250105 1.944491,-3.250424 z"
         id="path2"
         style="fill:#110b09;fill-rule:nonzero;stroke:#eeeeec;stroke-width:0.5092;stroke-miterlimit:4;stroke-dasharray:none"
         sodipodi:nodetypes="cccccccccccccccccccccccccccc" />
    </g>
  </g>
  <style
     type="text/css"
     id="style44707">
	.st0{clip-path:url(#SVGID_2_);}
	.st1{clip-path:url(#SVGID_4_);fill:#2E2E2C;}
	.st2{clip-path:url(#SVGID_6_);}
	.st3{clip-path:url(#SVGID_8_);fill:#2E2E2C;}
	.st4{clip-path:url(#SVGID_10_);}
	.st5{clip-path:url(#SVGID_12_);fill:#2E2E2C;}
	.st6{clip-path:url(#SVGID_14_);}
	.st7{clip-path:url(#SVGID_16_);fill:#2E2E2C;}
	.st8{clip-path:url(#SVGID_18_);}
	.st9{clip-path:url(#SVGID_20_);fill:#2E2E2C;}
	.st10{clip-path:url(#SVGID_22_);}
	.st11{clip-path:url(#SVGID_24_);enable-background:new    ;}
	.st12{clip-path:url(#SVGID_26_);}
	.st13{clip-path:url(#SVGID_28_);}
	.st14{clip-path:url(#SVGID_30_);fill:#2E2E2C;}
	.st15{clip-path:url(#SVGID_32_);}
	.st16{clip-path:url(#SVGID_34_);fill:#2E2E2C;}
	.st17{clip-path:url(#SVGID_36_);}
	.st18{clip-path:url(#SVGID_38_);fill:#2E2E2C;}
	.st19{clip-path:url(#SVGID_40_);}
	.st20{clip-path:url(#SVGID_42_);fill:#2E2E2C;}
	.st21{clip-path:url(#SVGID_44_);}
	.st22{clip-path:url(#SVGID_46_);fill:#2E2E2C;}
	.st23{clip-path:url(#SVGID_48_);}
	.st24{clip-path:url(#SVGID_50_);fill:#2E2E2C;}
	.st25{clip-path:url(#SVGID_52_);}
	.st26{clip-path:url(#SVGID_54_);fill:#2E2E2C;}
	.st27{clip-path:url(#SVGID_56_);}
	.st28{clip-path:url(#SVGID_58_);fill:#2E2E2C;}
	.st29{clip-path:url(#SVGID_60_);}
	.st30{clip-path:url(#SVGID_62_);fill:#2E2E2C;}
</style>
</svg>
