<?xml version="1.0" encoding="UTF-8" standalone="no"?>
<svg
   xmlns:dc="http://purl.org/dc/elements/1.1/"
   xmlns:cc="http://creativecommons.org/ns#"
   xmlns:rdf="http://www.w3.org/1999/02/22-rdf-syntax-ns#"
   xmlns:svg="http://www.w3.org/2000/svg"
   xmlns="http://www.w3.org/2000/svg"
   xmlns:xlink="http://www.w3.org/1999/xlink"
   xmlns:sodipodi="http://sodipodi.sourceforge.net/DTD/sodipodi-0.dtd"
   xmlns:inkscape="http://www.inkscape.org/namespaces/inkscape"
   viewBox="0 0 48 48"
   version="1.1"
   id="svg166"
   sodipodi:docname="satellite.svg"
   inkscape:version="1.0.1 (3bc2e813f5, 2020-09-07)">
  <metadata
     id="metadata170">
    <rdf:RDF>
      <cc:Work
         rdf:about="">
        <dc:format>image/svg+xml</dc:format>
        <dc:type
           rdf:resource="http://purl.org/dc/dcmitype/StillImage" />
        <dc:title>8-Communication Satellite</dc:title>
      </cc:Work>
    </rdf:RDF>
  </metadata>
  <sodipodi:namedview
     pagecolor="#ffffff"
     bordercolor="#666666"
     borderopacity="1"
     objecttolerance="10"
     gridtolerance="10"
     guidetolerance="10"
     inkscape:pageopacity="0"
     inkscape:pageshadow="2"
     inkscape:window-width="2560"
     inkscape:window-height="1377"
     id="namedview168"
     showgrid="false"
     inkscape:zoom="11.352761"
     inkscape:cx="19.706862"
     inkscape:cy="22.976022"
     inkscape:window-x="-8"
     inkscape:window-y="-8"
     inkscape:window-maximized="1"
     inkscape:current-layer="svg166"
     inkscape:document-rotation="0"
     inkscape:snap-global="false" />
  <defs
     id="defs57">
    <linearGradient
       id="linearGradient11831"
       x1="26.95"
       y1="20.77"
       x2="26.21"
       y2="15.49"
       gradientTransform="translate(17.99 -12.96) rotate(40.53)"
       gradientUnits="userSpaceOnUse">
      <stop
         offset="0"
         stop-color="#2e3436"
         id="stop11827"
         style="stop-color:#2e3436;stop-opacity:1" />
      <stop
         offset="1"
         stop-color="#eceeea"
         id="stop11829"
         style="stop-color:#888a85;stop-opacity:1" />
    </linearGradient>
    <style
       id="style2">.cls-1{fill:#d0d0d0;}.cls-2{fill:url(#radial-gradient);}.cls-10,.cls-15,.cls-25,.cls-3,.cls-37,.cls-38,.cls-4,.cls-41,.cls-42,.cls-8{fill:none;}.cls-15,.cls-3,.cls-37,.cls-4,.cls-8{stroke:#555753;}.cls-15,.cls-25,.cls-3,.cls-37,.cls-38,.cls-4,.cls-8{stroke-linecap:round;stroke-linejoin:round;}.cls-3{stroke-width:1.5px;}.cls-5{fill:url(#linear-gradient);}.cls-6{fill:url(#linear-gradient-2);}.cls-7{fill:url(#linear-gradient-3);}.cls-38,.cls-39,.cls-8{stroke-width:0.35px;}.cls-9{fill:#555753;}.cls-10{stroke:#231f20;}.cls-10,.cls-39,.cls-41,.cls-42{stroke-miterlimit:10;}.cls-10,.cls-15{stroke-width:0.1px;}.cls-11{fill:#fff;}.cls-12{fill:url(#linear-gradient-4);}.cls-13{fill:url(#linear-gradient-5);}.cls-14{fill:url(#linear-gradient-6);}.cls-16{fill:url(#linear-gradient-7);}.cls-17{fill:url(#linear-gradient-8);}.cls-18{fill:url(#linear-gradient-9);}.cls-19{fill:url(#New_Gradient_Swatch_4);}.cls-20{fill:url(#New_Gradient_Swatch_4-2);}.cls-21{fill:url(#New_Gradient_Swatch_4-3);}.cls-22{fill:url(#New_Gradient_Swatch_4-4);}.cls-23{fill:url(#New_Gradient_Swatch_4-5);}.cls-24{fill:url(#linear-gradient-10);}.cls-25,.cls-38{stroke:#3465a4;}.cls-25,.cls-37{stroke-width:0.7px;}.cls-26{fill:url(#linear-gradient-11);}.cls-27{fill:url(#New_Gradient_Swatch_4-6);}.cls-28{fill:url(#New_Gradient_Swatch_4-7);}.cls-29{fill:url(#New_Gradient_Swatch_4-8);}.cls-30{fill:url(#New_Gradient_Swatch_4-9);}.cls-31{fill:url(#New_Gradient_Swatch_4-10);}.cls-32{fill:url(#linear-gradient-12);}.cls-33{fill:url(#linear-gradient-13);}.cls-34{fill:url(#linear-gradient-14);}.cls-35{fill:url(#linear-gradient-15);}.cls-36{fill:url(#linear-gradient-16);}.cls-39{fill:#ef2929;stroke:#a40000;}.cls-40{fill:#fbc8c8;}.cls-41,.cls-42{stroke:#73d216;}.cls-41{stroke-width:1.4px;}</style>
    <radialGradient
       id="radial-gradient"
       cx="24"
       cy="40.64"
       r="19.3"
       gradientTransform="matrix(1.16,0,0,0.38,-3.89,24.18)"
       gradientUnits="userSpaceOnUse">
      <stop
         offset="0.03"
         stop-color="#2c2c2c"
         stop-opacity="0.5"
         id="stop4" />
      <stop
         offset="0.68"
         stop-color="#2c2c2c"
         stop-opacity="0.1"
         id="stop6" />
      <stop
         offset="0.93"
         stop-color="#2c2c2c"
         stop-opacity="0"
         id="stop8" />
    </radialGradient>
    <linearGradient
       id="linear-gradient"
       x1="26.95"
       y1="20.77"
       x2="26.21"
       y2="15.49"
       gradientTransform="translate(17.99 -12.96) rotate(40.53)"
       gradientUnits="userSpaceOnUse">
      <stop
         offset="0"
         stop-color="#2e3436"
         id="stop11" />
      <stop
         offset="1"
         stop-color="#eceeea"
         id="stop13" />
    </linearGradient>
    <linearGradient
       id="linear-gradient-2"
       x1="25.49"
       y1="12.17"
       x2="27.24"
       y2="15.46"
       gradientUnits="userSpaceOnUse">
      <stop
         offset="0"
         stop-color="#2e3436"
         id="stop16" />
      <stop
         offset="1"
         stop-color="#fff"
         id="stop18" />
    </linearGradient>
    <linearGradient
       id="linear-gradient-3"
       x1="30.3"
       y1="19.4"
       x2="28.65"
       y2="17.27"
       gradientUnits="userSpaceOnUse">
      <stop
         offset="0"
         stop-color="#d0dfef"
         id="stop21" />
      <stop
         offset="1"
         stop-color="#5681b6"
         id="stop23" />
    </linearGradient>
    <linearGradient
       id="linear-gradient-4"
       x1="19.7"
       y1="14.56"
       x2="22.7"
       y2="18.77"
       xlink:href="#linear-gradient-2"
       gradientTransform="matrix(1.195736,0,0,1.1971994,-55.063896,-3.7133511)" />
    <linearGradient
       id="linear-gradient-5"
       x1="24.63"
       y1="21.06"
       x2="25.58"
       y2="22.3"
       xlink:href="#linear-gradient-3"
       gradientTransform="matrix(1.195736,0,0,1.1971994,-55.063896,-3.7133511)" />
    <linearGradient
       id="linear-gradient-6"
       x1="20.75"
       y1="25.47"
       x2="20.67"
       y2="21.4"
       gradientTransform="matrix(0.90930793,0.77759391,-0.77744613,0.90948078,-39.455405,-38.622169)"
       xlink:href="#linear-gradient" />
    <linearGradient
       id="linear-gradient-7"
       x1="18.36"
       y1="21.51"
       x2="19.43"
       y2="23.01"
       xlink:href="#linear-gradient-2"
       gradientTransform="matrix(2.5643399,0.58421955,0.58573212,2.570979,-31.202296,-56.246915)" />
    <linearGradient
       id="linear-gradient-8"
       x1="20.72"
       y1="24.62"
       x2="20.04"
       y2="23.72"
       xlink:href="#linear-gradient"
       gradientTransform="matrix(2.5643399,0.58421955,0.58573212,2.570979,-31.202023,-56.121915)" />
    <linearGradient
       id="linear-gradient-9"
       x1="42.58"
       y1="19.82"
       x2="42.58"
       y2="31.72"
       gradientTransform="matrix(0.83,0.56,-0.75,0.56,-5.17,-23.24)"
       xlink:href="#linear-gradient-3" />
    <linearGradient
       id="New_Gradient_Swatch_4"
       x1="37.53"
       y1="32.36"
       x2="37.53"
       y2="11.78"
       gradientTransform="matrix(0.83, 0.56, -0.75, 0.56, -5.17, -23.24)"
       gradientUnits="userSpaceOnUse">
      <stop
         offset="0"
         stop-color="#b2cbe5"
         id="stop32" />
      <stop
         offset="1"
         stop-color="#3465a4"
         id="stop34" />
    </linearGradient>
    <linearGradient
       id="New_Gradient_Swatch_4-2"
       x1="39.72"
       y1="33.14"
       x2="39.72"
       y2="10.92"
       xlink:href="#New_Gradient_Swatch_4" />
    <linearGradient
       id="New_Gradient_Swatch_4-3"
       x1="42.72"
       y1="32.59"
       x2="42.72"
       y2="11.52"
       xlink:href="#New_Gradient_Swatch_4" />
    <linearGradient
       id="New_Gradient_Swatch_4-4"
       x1="45.2"
       y1="33.41"
       x2="45.2"
       y2="10.61"
       xlink:href="#New_Gradient_Swatch_4" />
    <linearGradient
       id="New_Gradient_Swatch_4-5"
       x1="48.17"
       y1="32.84"
       x2="48.17"
       y2="11.24"
       xlink:href="#New_Gradient_Swatch_4" />
    <linearGradient
       id="linear-gradient-10"
       x1="13.25"
       y1="13.58"
       x2="14.07"
       y2="10.61"
       gradientUnits="userSpaceOnUse">
      <stop
         offset="0"
         stop-color="#fff"
         stop-opacity="0"
         id="stop41" />
      <stop
         offset="1"
         stop-color="snow"
         id="stop43" />
    </linearGradient>
    <linearGradient
       id="linear-gradient-11"
       x1="69.59"
       y1="19.46"
       x2="69.59"
       y2="32.87"
       gradientTransform="matrix(0.83,0.56,-0.75,0.56,-5.17,-23.24)"
       xlink:href="#linear-gradient-3" />
    <linearGradient
       id="New_Gradient_Swatch_4-6"
       x1="62.17"
       y1="33.46"
       x2="62.17"
       y2="10.52"
       xlink:href="#New_Gradient_Swatch_4" />
    <linearGradient
       id="New_Gradient_Swatch_4-7"
       x1="65.89"
       y1="34.44"
       x2="65.89"
       y2="9.44"
       xlink:href="#New_Gradient_Swatch_4" />
    <linearGradient
       id="New_Gradient_Swatch_4-8"
       x1="68.66"
       y1="33.75"
       x2="68.66"
       y2="10.18"
       xlink:href="#New_Gradient_Swatch_4" />
    <linearGradient
       id="New_Gradient_Swatch_4-9"
       x1="72.83"
       y1="34.78"
       x2="72.83"
       y2="9.04"
       xlink:href="#New_Gradient_Swatch_4" />
    <linearGradient
       id="New_Gradient_Swatch_4-10"
       x1="75.52"
       y1="34.06"
       x2="75.52"
       y2="9.83"
       xlink:href="#New_Gradient_Swatch_4" />
    <linearGradient
       id="linear-gradient-12"
       x1="34.98"
       y1="28.59"
       x2="36.47"
       y2="24.21"
       xlink:href="#linear-gradient-10" />
    <linearGradient
       id="linear-gradient-13"
       x1="20.91"
       y1="27.25"
       x2="19.2"
       y2="23.98"
       xlink:href="#linear-gradient"
       gradientTransform="matrix(2.5643399,0.58421955,0.58573212,2.570979,-31.202296,-56.246915)" />
    <linearGradient
       id="linear-gradient-14"
       x1="17.444614"
       y1="20.880941"
       x2="17.68"
       y2="27.87"
       gradientTransform="matrix(1.5113752,2.048718,-1.2958629,2.3894362,14.689208,-63.676844)"
       xlink:href="#linear-gradient" />
    <linearGradient
       id="linear-gradient-15"
       x1="17.3"
       y1="21.52"
       x2="17.69"
       y2="28.07"
       xlink:href="#linear-gradient"
       gradientTransform="matrix(2.5643399,0.58421955,0.58573212,2.570979,-31.202023,-56.121915)" />
    <linearGradient
       id="linear-gradient-16"
       x1="19.13"
       y1="22.07"
       x2="18.67"
       y2="25.04"
       gradientTransform="matrix(2.1084003,2.858005,-1.8077561,3.3333141,15.976522,-101.88674)"
       xlink:href="#linear-gradient" />
    <linearGradient
       inkscape:collect="always"
       xlink:href="#linearGradient11863"
       id="linearGradient11865"
       x1="40.820393"
       y1="1.4578209"
       x2="46.691185"
       y2="7.1543064"
       gradientUnits="userSpaceOnUse"
       gradientTransform="matrix(0.99360056,0,0,0.99360376,0.13241172,0.1364141)" />
    <linearGradient
       inkscape:collect="always"
       id="linearGradient11863">
      <stop
         style="stop-color:#f57900;stop-opacity:1"
         offset="0"
         id="stop11859" />
      <stop
         style="stop-color:#fcaf3e;stop-opacity:1"
         offset="0.26023054"
         id="stop11909" />
      <stop
         style="stop-color:#ffcf80;stop-opacity:1"
         offset="0.35213605"
         id="stop11913" />
      <stop
         style="stop-color:#fcaf3e;stop-opacity:1"
         offset="0.48697996"
         id="stop11911" />
      <stop
         style="stop-color:#b95200;stop-opacity:1"
         offset="1"
         id="stop11861" />
    </linearGradient>
    <linearGradient
       inkscape:collect="always"
       xlink:href="#linearGradient11897"
       id="linearGradient11907"
       x1="41.380096"
       y1="0.17534699"
       x2="48.06461"
       y2="6.432559"
       gradientUnits="userSpaceOnUse"
       gradientTransform="matrix(0.99360056,0,0,0.99360376,0.13268194,0.26061456)" />
    <linearGradient
       inkscape:collect="always"
       id="linearGradient11897">
      <stop
         style="stop-color:#ce5c00;stop-opacity:1;"
         offset="0"
         id="stop11893" />
      <stop
         style="stop-color:#883c00;stop-opacity:1"
         offset="1"
         id="stop11895" />
    </linearGradient>
    <linearGradient
       inkscape:collect="always"
       xlink:href="#linearGradient11897"
       id="linearGradient11899"
       x1="29.495581"
       y1="2.70487"
       x2="45.553123"
       y2="18.217651"
       gradientUnits="userSpaceOnUse"
       gradientTransform="matrix(0.99360056,0,0,0.99360376,0.13268194,0.26061456)" />
    <radialGradient
       inkscape:collect="always"
       xlink:href="#linearGradient11760"
       id="radialGradient11762"
       cx="43.221901"
       cy="42.956738"
       fx="43.221901"
       fy="42.956738"
       r="14.230524"
       gradientTransform="matrix(0.65699541,0,0,0.22443943,5.9969332,-23.680593)"
       gradientUnits="userSpaceOnUse" />
    <linearGradient
       inkscape:collect="always"
       id="linearGradient11760">
      <stop
         style="stop-color:#000000;stop-opacity:1;"
         offset="0"
         id="stop11756" />
      <stop
         style="stop-color:#000000;stop-opacity:0;"
         offset="1"
         id="stop11758" />
    </linearGradient>
    <linearGradient
       id="linear-gradient-7-6"
       x1="18.360001"
       y1="21.51"
       x2="19.43"
       y2="23.01"
       xlink:href="#linear-gradient-2"
       gradientTransform="matrix(2.5479296,0.58048274,0.58198376,2.5545345,-30.869937,-55.626532)" />
    <linearGradient
       id="linear-gradient-13-7"
       x1="20.91"
       y1="27.25"
       x2="19.200001"
       y2="23.98"
       xlink:href="#linear-gradient-68"
       gradientTransform="matrix(2.5479296,0.58048274,0.58198376,2.5545345,-30.869937,-55.626532)" />
    <linearGradient
       id="linear-gradient-68"
       x1="26.950001"
       y1="20.77"
       x2="26.209999"
       y2="15.49"
       gradientTransform="rotate(40.53,26.545658,17.882371)"
       gradientUnits="userSpaceOnUse">
      <stop
         offset="0"
         stop-color="#2e3436"
         id="stop11-8" />
      <stop
         offset="1"
         stop-color="#eceeea"
         id="stop13-3" />
    </linearGradient>
    <linearGradient
       id="linear-gradient-14-6"
       x1="17.444614"
       y1="20.880941"
       x2="17.68"
       y2="27.870001"
       gradientTransform="matrix(2.5479294,0.58048277,0.58198372,2.5545346,-30.881472,-55.634373)"
       xlink:href="#linear-gradient-68" />
    <radialGradient
       inkscape:collect="always"
       xlink:href="#linearGradient11831-3"
       id="radialGradient11825"
       cx="22.678675"
       cy="7.6990209"
       fx="22.678675"
       fy="7.6990209"
       r="9.5876608"
       gradientTransform="matrix(1.3695654,0.02950216,-0.01674813,0.77749579,-8.2650273,3.8670216)"
       gradientUnits="userSpaceOnUse" />
    <linearGradient
       id="linearGradient11831-3"
       x1="26.950001"
       y1="20.77"
       x2="26.209999"
       y2="15.49"
       gradientTransform="rotate(40.53,26.545658,17.882371)"
       gradientUnits="userSpaceOnUse">
      <stop
         offset="0"
         stop-color="#2e3436"
         id="stop11827-0"
         style="stop-color:#2e3436;stop-opacity:1" />
      <stop
         offset="1"
         stop-color="#eceeea"
         id="stop11829-7"
         style="stop-color:#888a85;stop-opacity:1" />
    </linearGradient>
    <linearGradient
       id="linear-gradient-16-5"
       x1="19.129999"
       y1="22.07"
       x2="18.67"
       y2="25.040001"
       gradientTransform="matrix(2.0949103,2.8397203,-1.7961897,3.3119886,15.797394,-100.94729)"
       xlink:href="#linear-gradient-68" />
    <linearGradient
       inkscape:collect="always"
       xlink:href="#linearGradient11851"
       id="linearGradient11853"
       x1="19.169682"
       y1="15.381982"
       x2="25.579363"
       y2="16.075106"
       gradientUnits="userSpaceOnUse"
       gradientTransform="matrix(0.78961237,0.60312247,-0.60312053,0.78961492,13.565324,-8.3508845)" />
    <linearGradient
       inkscape:collect="always"
       id="linearGradient11851">
      <stop
         style="stop-color:#000000;stop-opacity:0.44354838"
         offset="0"
         id="stop11847" />
      <stop
         style="stop-color:#000000;stop-opacity:0;"
         offset="1"
         id="stop11849" />
    </linearGradient>
  </defs>
  <title
     id="title59">8-Communication Satellite</title>
  <path
     style="fill:url(#linearGradient11865);fill-opacity:1;fill-rule:evenodd;stroke:url(#linearGradient11907);stroke-width:0.5;stroke-linecap:butt;stroke-linejoin:miter;stroke-miterlimit:4;stroke-dasharray:none;stroke-opacity:1"
     d="M 38.268922,3.3445331 41.274603,0.51240866 C 44.651356,-0.21121408 48.146289,2.203402 47.497597,6.4604685 L 44.553611,9.1061571 Z"
     id="path11855"
     sodipodi:nodetypes="ccccc" />
  <path
     style="fill:#fcaf3e;fill-rule:evenodd;stroke:url(#linearGradient11899);stroke-width:0.5;stroke-linecap:butt;stroke-linejoin:miter;stroke-miterlimit:4;stroke-dasharray:none;stroke-opacity:1"
     d="m 37.790419,0.55528366 c 0.334226,0.20053209 9.625672,9.55869434 9.625672,9.55869434 l 0.13369,5.882274 -5.548131,5.748586 -4.478612,-0.267376 -11.096261,-10.29398 -0.13369,-5.2138329 5.748665,-5.34752174 z"
     id="path11748"
     sodipodi:nodetypes="ccccccccc" />
  <path
     style="fill:#000000;fill-opacity:0.133065;fill-rule:evenodd;stroke:none;stroke-width:1px;stroke-linecap:butt;stroke-linejoin:miter;stroke-opacity:1"
     d="m 26.57488,8.7727793 -0.03667,-2.5770863 4.969344,0.6101621 9.677465,9.5733959 0.787358,5.090514 -2.329084,-0.15017 z"
     id="path11857"
     sodipodi:nodetypes="ccccccc" />
  <ellipse
     style="color:#000000;overflow:visible;fill:url(#radialGradient11762);fill-opacity:1;stroke:none;stroke-width:0.5;stroke-linecap:round;stroke-linejoin:round;stroke-miterlimit:4;stroke-dasharray:none;stroke-opacity:1;stop-color:#000000"
     id="path11754"
     cx="34.393524"
     cy="-14.039408"
     rx="9.3493891"
     ry="3.1938908"
     transform="matrix(0.70711166,0.7071019,-0.70711166,0.7071019,0,0)" />
  <path
     class="cls-11"
     d="m 36.736268,16.013406 a 3.8842687,2.442787 45.154348 0 0 -3.164831,-3.28829 2.4746551,1.5562916 45.154346 0 0 -1.359206,0.07785 v 0 l -0.754297,0.506295 -2.602928,1.82893 v 0 a 2.3493562,1.4774921 45.154344 0 1 1.390501,-0.0465 3.5083716,2.2063882 45.154343 0 1 1.353243,0.744252 4.0408924,2.5412863 45.154342 0 0 1.679933,1.860117 3.1324747,1.9699894 45.154342 0 1 0.427189,0.920787 2.599954,1.6350912 45.154343 0 1 -0.108019,1.64653 v 0 l 2.930678,-2.723037 v 0 a 2.4433304,1.5365918 45.154344 0 0 0.207737,-1.526935 z"
     id="path95"
     style="fill:#ffffff;stroke-width:1" />
  <path
     class="cls-16"
     d="m 36.736268,16.013406 a 3.8842687,2.442787 45.154348 0 0 -3.164831,-3.28829 2.4746551,1.5562916 45.154346 0 0 -1.359206,0.07785 v 0 l -0.754297,0.506295 -2.602928,1.82893 v 0 a 2.3493562,1.4774921 45.154344 0 1 1.390501,-0.0465 3.5083716,2.2063882 45.154343 0 1 1.353243,0.744252 4.0408924,2.5412863 45.154342 0 0 1.679933,1.860117 3.1324747,1.9699894 45.154342 0 1 0.427189,0.920787 2.599954,1.6350912 45.154343 0 1 -0.108019,1.64653 v 0 l 2.930678,-2.723037 v 0 a 2.4433304,1.5365918 45.154344 0 0 0.207737,-1.526935 z"
     id="path97"
     style="fill:url(#linear-gradient-7-6);stroke-width:1" />
  <path
     class="cls-8"
     d="m 36.736268,16.013406 a 3.8842687,2.442787 45.154348 0 0 -3.164831,-3.28829 2.4746551,1.5562916 45.154346 0 0 -1.359206,0.07785 v 0 l -0.754297,0.506295 -2.602928,1.82893 v 0 a 2.3493562,1.4774921 45.154344 0 1 1.390501,-0.0465 3.5083716,2.2063882 45.154343 0 1 1.353243,0.744252 4.0408924,2.5412863 45.154342 0 0 1.679933,1.860117 3.1324747,1.9699894 45.154342 0 1 0.427189,0.920787 2.599954,1.6350912 45.154343 0 1 -0.108019,1.64653 v 0 l 2.930678,-2.723037 v 0 a 2.4433304,1.5365918 45.154344 0 0 0.207737,-1.526935 z"
     id="path101"
     style="fill:none;stroke:#555753;stroke-width:0.35px;stroke-linecap:round;stroke-linejoin:round" />
  <path
     class="cls-33"
     d="M 38.668673,27.57038 A 14.221436,8.9437523 45.154344 0 0 35.630718,14.235709 13.406993,8.4315551 45.154343 0 0 21.392471,9.102758"
     id="path137"
     style="fill:url(#linear-gradient-13-7);stroke-width:1" />
  <path
     class="cls-8"
     d="M 38.668673,27.57038 A 14.221436,8.9437523 45.154344 0 0 35.630718,14.235709 13.406993,8.4315551 45.154343 0 0 21.392471,9.102758"
     id="path139"
     style="fill:none;stroke:#555753;stroke-width:0.35px;stroke-linecap:round;stroke-linejoin:round" />
  <path
     id="ellipse141"
     style="fill:url(#linear-gradient-14-6);stroke-width:1"
     d="M 33.904404,15.458649 A 13.114429,6.5456709 46.467188 0 1 37.540446,29.224767 13.114429,6.5456709 46.467188 0 1 23.576129,23.573299 13.114429,6.5456709 46.467188 0 1 19.940086,9.8071794 13.114429,6.5456709 46.467188 0 1 33.904404,15.458649 Z"
     class="cls-34" />
  <path
     class="cls-35"
     d="m 37.604704,20.885608 a 16.696091,10.500044 45.154344 0 0 -6.449603,-3.28584 14.753956,9.2786506 45.154343 0 0 -6.453781,-0.01717 18.011729,11.327439 45.154343 0 0 -4.185624,1.880086 v 0 A 10.587766,6.6585646 45.154344 0 1 19.95307,9.888917 c 2.849062,-2.2330199 9.10441,0.306201 13.958615,5.602075 a 15.662373,9.8499474 45.154344 0 1 3.693019,5.394616 z"
     id="path143"
     style="fill:url(#radialGradient11825);fill-opacity:1;stroke-width:1" />
  <ellipse
     class="cls-36"
     cx="11.299376"
     cy="33.162556"
     rx="1.9868541"
     ry="3.9700704"
     transform="matrix(0.78633399,-0.61780163,0.67158583,0.74092677,0,0)"
     id="ellipse145"
     style="fill:url(#linear-gradient-16-5);stroke-width:1.00124" />
  <ellipse
     class="cls-8"
     cx="8.2081146"
     cy="33.184059"
     rx="6.5673585"
     ry="13.103581"
     transform="matrix(0.786334,-0.61780163,0.67158584,0.74092675,0,0)"
     id="ellipse147"
     style="fill:none;stroke:#555753;stroke-width:0.35px;stroke-linecap:round;stroke-linejoin:round" />
  <path
     class="cls-37"
     d="M 35.630718,14.235709 A 13.406993,8.4315551 45.154343 0 0 21.392471,9.102758 v 0 a 8.4890067,5.3386716 45.154343 0 0 -1.462679,0.683983 c -2.744944,2.159866 -1.248466,8.410347 3.623199,13.782856 4.871666,5.372511 10.980735,7.587772 13.7853,5.901655 a 9.0215274,5.6735697 45.154343 0 0 1.501357,-1.256434 v 0 A 15.662373,9.8499474 45.154344 0 0 35.630705,14.235706 Z"
     id="path149"
     style="fill:none;stroke:#555753;stroke-width:0.699999px;stroke-linecap:round;stroke-linejoin:round" />
  <path
     id="line151"
     style="fill:none;stroke:#204a87;stroke-width:1;stroke-linecap:round;stroke-linejoin:round;stroke-miterlimit:4;stroke-dasharray:none"
     d="M 33.837684,15.835174 19.609879,27.108241"
     class="cls-38"
     sodipodi:nodetypes="cc" />
  <path
     id="polyline153"
     style="fill:none;stroke:#204a87;stroke-width:1;stroke-linecap:round;stroke-linejoin:round;stroke-miterlimit:4;stroke-dasharray:none"
     d="M 33.924354,29.928788 19.609876,27.108244 19.115988,15.471594"
     class="cls-38"
     sodipodi:nodetypes="ccc" />
  <path
     style="fill:#ffffff;fill-opacity:0.641129;fill-rule:evenodd;stroke:none;stroke-width:1px;stroke-linecap:butt;stroke-linejoin:miter;stroke-opacity:1"
     d="M 26.493622,6.1701823 32.041753,0.82265946 37.66622,0.75608797 31.506994,6.7717795 Z"
     id="path11750"
     sodipodi:nodetypes="ccccc" />
  <path
     style="fill:#000000;fill-opacity:0.233871;fill-rule:evenodd;stroke:none;stroke-width:1px;stroke-linecap:butt;stroke-linejoin:miter;stroke-opacity:1"
     d="m 47.362533,15.959419 -5.414441,5.548053 -0.802141,-5.146989 6.149735,-6.14965 z"
     id="path11752"
     sodipodi:nodetypes="ccccc" />
  <path
     style="fill:none;fill-rule:evenodd;stroke:#ffffff;stroke-width:0.5;stroke-linecap:round;stroke-linejoin:miter;stroke-miterlimit:4;stroke-dasharray:none;stroke-opacity:1"
     d="m 18.65181,15.113779 0.464788,11.767295"
     id="path11833" />
  <path
     style="fill:none;fill-rule:evenodd;stroke:#ffffff;stroke-width:0.5;stroke-linecap:round;stroke-linejoin:miter;stroke-miterlimit:4;stroke-dasharray:none;stroke-opacity:1"
     d="M 34.184001,29.52681 20.697402,26.877625"
     id="path11835"
     sodipodi:nodetypes="cc" />
  <path
     style="fill:none;fill-rule:evenodd;stroke:#ffffff;stroke-width:0.5;stroke-linecap:round;stroke-linejoin:miter;stroke-miterlimit:4;stroke-dasharray:none;stroke-opacity:1"
     d="M 33.670129,15.388395 20.21275,26.132185"
     id="path11837"
     sodipodi:nodetypes="cc" />
  <path
     id="circle155"
     style="fill:#ef2929;stroke:#a40000;stroke-width:0.5;stroke-miterlimit:10;stroke-dasharray:none"
     d="m 21.207249,26.983428 a 1.3181908,1.3216079 0 0 1 -1.31819,1.32161 1.3181908,1.3216079 0 0 1 -1.318191,-1.32161 1.3181908,1.3216079 0 0 1 1.318191,-1.321606 1.3181908,1.3216079 0 0 1 1.31819,1.321606 z"
     class="cls-39" />
  <path
     id="circle157"
     style="fill:#fbc8c8;stroke-width:1"
     d="m 20.203847,26.786174 a 0.51153667,0.51286273 0 0 1 -0.511536,0.512864 0.51153667,0.51286273 0 0 1 -0.511536,-0.512864 0.51153667,0.51286273 0 0 1 0.511536,-0.512862 0.51153667,0.51286273 0 0 1 0.511536,0.512862 z"
     class="cls-40" />
  <path
     style="fill:url(#linearGradient11853);fill-opacity:1;fill-rule:evenodd;stroke:none;stroke-width:1px;stroke-linecap:butt;stroke-linejoin:miter;stroke-opacity:1"
     d="m 19.788471,14.805729 c 2.043714,1.190296 3.566771,2.770185 4.932588,4.467731 l -1.078432,1.055559 C 22.272116,18.645296 20.85308,17.009462 18.903014,15.897693 Z"
     id="path11845"
     sodipodi:nodetypes="ccccc" />
  <ellipse
     style="color:#000000;overflow:visible;fill:#eeeeec;fill-opacity:1;stroke:#555753;stroke-width:0.5;stroke-linecap:round;stroke-linejoin:round;stroke-miterlimit:10;stroke-dasharray:none;stroke-opacity:1;stop-color:#000000"
     id="path11839"
     cx="19.003773"
     cy="15.420392"
     rx="0.66010582"
     ry="0.65723395" />
  <ellipse
     style="color:#000000;overflow:visible;fill:#eeeeec;fill-opacity:1;stroke:#555753;stroke-width:0.5;stroke-linecap:round;stroke-linejoin:round;stroke-miterlimit:10;stroke-dasharray:none;stroke-opacity:1;stop-color:#000000"
     id="ellipse11841"
     cx="34.022095"
     cy="15.695008"
     rx="0.66010582"
     ry="0.65723395" />
  <ellipse
     style="color:#000000;overflow:visible;fill:#eeeeec;fill-opacity:1;stroke:#555753;stroke-width:0.5;stroke-linecap:round;stroke-linejoin:round;stroke-miterlimit:10;stroke-dasharray:none;stroke-opacity:1;stop-color:#000000"
     id="ellipse11843"
     cx="34.184769"
     cy="29.878101"
     rx="0.66010582"
     ry="0.65723395" />
  <ellipse
     style="color:#000000;overflow:visible;fill:#ef2929;fill-opacity:1;stroke:#a40000;stroke-width:0.5;stroke-linecap:round;stroke-linejoin:round;stroke-miterlimit:4;stroke-dasharray:none;stroke-opacity:1;stop-color:#000000"
     id="path11885"
     cx="32.364155"
     cy="2.1151304"
     rx="0.52642649"
     ry="0.52642822" />
  <ellipse
     style="color:#000000;overflow:visible;fill:#c0f093;fill-opacity:1;stroke:#73d216;stroke-width:0.5;stroke-linecap:round;stroke-linejoin:round;stroke-miterlimit:4;stroke-dasharray:none;stroke-opacity:1;stop-color:#000000"
     id="circle11887"
     cx="34.227219"
     cy="2.1421173"
     rx="0.52642649"
     ry="0.52642822" />
  <ellipse
     style="color:#000000;overflow:visible;fill:#ef2929;fill-opacity:1;stroke:#a40000;stroke-width:0.5;stroke-linecap:round;stroke-linejoin:round;stroke-miterlimit:4;stroke-dasharray:none;stroke-opacity:1;stop-color:#000000"
     id="circle11889"
     cx="25.593323"
     cy="-38.140282"
     transform="matrix(0.20748973,0.9782372,-0.97823692,0.20749102,0,0)"
     rx="0.5264281"
     ry="0.52642655" />
  <ellipse
     style="color:#000000;overflow:visible;fill:#c0f093;fill-opacity:1;stroke:#73d216;stroke-width:0.5;stroke-linecap:round;stroke-linejoin:round;stroke-miterlimit:4;stroke-dasharray:none;stroke-opacity:1;stop-color:#000000"
     id="circle11891"
     cx="27.456394"
     cy="-38.113293"
     transform="matrix(0.20748973,0.9782372,-0.97823692,0.20749102,0,0)"
     rx="0.5264281"
     ry="0.52642655" />
  <ellipse
     style="color:#000000;overflow:visible;fill:#ef2929;fill-opacity:1;stroke:#a40000;stroke-width:0.5;stroke-linecap:round;stroke-linejoin:round;stroke-miterlimit:4;stroke-dasharray:none;stroke-opacity:1;stop-color:#000000"
     id="circle11915"
     cx="15.130499"
     cy="-42.803379"
     transform="matrix(0.20748973,0.9782372,-0.97823692,0.20749102,0,0)"
     rx="0.5264281"
     ry="0.52642655" />
  <ellipse
     style="color:#000000;overflow:visible;fill:#c0f093;fill-opacity:1;stroke:#73d216;stroke-width:0.5;stroke-linecap:round;stroke-linejoin:round;stroke-miterlimit:4;stroke-dasharray:none;stroke-opacity:1;stop-color:#000000"
     id="circle11917"
     cx="14.210713"
     cy="-44.482006"
     transform="matrix(0.20748973,0.9782372,-0.97823692,0.20749102,0,0)"
     rx="0.5264281"
     ry="0.52642655" />
  <g
     id="g18266"
     transform="matrix(0.91617522,0,0,0.91617521,-22.578568,-4.4038001)"
     style="stroke-width:1.09149">
    <path
       style="fill:#ffffff;fill-rule:evenodd;stroke:none;stroke-width:1.09149px;stroke-linecap:butt;stroke-linejoin:miter;stroke-opacity:1"
       d="M 67.455357,6.9196428 74.821428,14.419643 67.410714,21.741071 60,14.285714 Z"
       id="path18250" />
    <g
       id="Page-1"
       stroke="none"
       stroke-width="7.76356"
       fill="none"
       fill-rule="evenodd"
       transform="matrix(0.0994135,0.0994135,-0.0994135,0.0994135,67.409857,6.8809267)">
      <g
         id="engine_logo"
         fill="#ff6600"
         fill-rule="nonzero"
         style="stroke-width:50.9483">
        <path
           d="m 18.44,73.05 -0.54,2 h 17 l -4.86,-4.94 c -3.418215,2.274255 -7.511195,3.311614 -11.6,2.94 z"
           id="Shape"
           style="stroke-width:7.76356" />
        <path
           d="m 37.94,53.89 c 0.138061,2.020115 -0.06821,4.049003 -0.61,6 -0.550152,1.966893 -1.429233,3.826488 -2.6,5.5 l 6.56,6.68 c 4.603623,-5.784796 6.667252,-13.187884 5.72,-20.52 z"
           id="path17588"
           style="stroke-width:7.76356" />
        <path
           d="M 3.66,62.73 0,63.67 V 75 h 11 l 1,-3.72 C 8.3279041,69.462289 5.3858498,66.446154 3.66,62.73 Z"
           id="path17590"
           style="stroke-width:7.76356" />
        <path
           d="m 36.29,47.49 9.07,-2.34 C 42.652727,38.270325 37.268156,32.784703 30.44,29.95 l -2.51,9 c 3.67792,1.811521 6.627227,4.82433 8.36,8.54 z"
           id="path17592"
           style="stroke-width:7.76356" />
        <path
           d="m 0,0 v 24.69 c 0.37,0.21 0.7,0.39 0.93,0.49 1.25,0.57 1.35,0.73 2,0.39 l 0.5,-0.28 C 4.07,24.88 3.99,24.71 4.14,23.35 4.232185,21.160412 4.212158,18.967539 4.08,16.78 4.02,15.99 4.08,15.67 4.8,15.4 l 0.58,-0.21 c 0.71,-0.27 1,-0.07 1.44,0.56 1.3329823,1.738888 2.7548759,3.407777 4.26,5 1,0.92 1,1.1 1.81,1 l 0.55,-0.1 c 0.74,-0.19 0.71,-0.38 1.28,-1.62 0.772858,-2.058019 1.440389,-4.154068 2,-6.28 0.19,-0.77 0.35,-1.05 1.11,-1.08 h 0.62 c 0.76,0 0.94,0.24 1.2,1 0.724466,2.06974 1.558989,4.099299 2.5,6.08 0.67,1.19 0.66,1.38 1.41,1.5 l 0.57,0.07 c 0.76,0.05 0.79,-0.14 1.72,-1.15 1.359324,-1.721462 2.63094,-3.510402 3.81,-5.36 0.42,-0.67 0.66,-0.89 1.39,-0.68 l 0.59,0.16 c 0.74,0.21 0.83,0.52 0.84,1.31 0.05257,2.193869 0.219465,4.383506 0.5,6.56 0.27,1.34 0.2,1.51 0.88,1.87 l 0.52,0.23 c 0.71,0.28 0.79,0.11 2,-0.56 1.82575,-1.215696 3.588057,-2.524076 5.28,-3.92 0.6,-0.51 0.9,-0.64 1.53,-0.22 l 0.52,0.34 c 0.63,0.42 0.62,0.75 0.39,1.5 -0.624786,2.102312 -1.142123,4.235073 -1.55,6.39 -0.16,1.36 -0.28,1.51 0.26,2.05 l 0.42,0.39 c 0.59,0.49 0.72,0.35 2.06,0.08 2.113321,-0.586149 4.19308,-1.287192 6.23,-2.1 0.74,-0.29 1.06,-0.33 1.53,0.27 l 0.39,0.47 c 0.47,0.6 0.36,0.9 -0.09,1.55 -1.251463,1.804225 -2.406417,3.673513 -3.46,5.6 -0.56,1.24 -0.72,1.34 -0.38,2 l 0.28,0.49 c 0.41,0.65 0.58,0.56 1.94,0.72 2.189676,0.09417 4.382828,0.07081 6.57,-0.07 0.79,0 1.11,0 1.38,0.73 l 0.21,0.57 c 0.27,0.72 0.07,1 -0.56,1.45 -1.738888,1.332982 -3.407777,2.754876 -5,4.26 -0.92,1 -1.1,1.05 -1,1.81 l 0.11,0.56 c 0.19,0.74 0.38,0.71 1.62,1.28 2.05582,0.779184 4.152203,1.446822 6.28,2 0.77,0.2 1,0.36 1.08,1.12 v 0.61 c 0,0.76 -0.24,1 -1,1.2 -0.76,0.2 -4.89,1.83 -6.08,2.5 -1.19,0.67 -1.38,0.66 -1.51,1.42 l -0.06,0.56 c 0,0.77 0.14,0.8 1.15,1.72 1.714806,1.368182 3.504224,2.640138 5.36,3.81 0.67,0.42 0.89,0.66 0.68,1.39 l -0.16,0.6 c -0.21,0.73 -0.52,0.82 -1.31,0.84 -2.193708,0.04898 -4.383359,0.212538 -6.56,0.49 -1.34,0.28 -1.51,0.21 -1.87,0.88 l -0.23,0.52 c -0.28,0.71 -0.11,0.8 0.56,2 0.766241,1.20996 1.600932,2.375189 2.5,3.49 H 75 v -75 z"
           id="path17594"
           style="stroke-width:7.76356" />
        <path
           d="m 2.62,50.28 c 0.545255,-1.966919 1.4210769,-3.826772 2.59,-5.5 L 0,39.47 V 56.84 L 2,56.33 C 1.8558605,54.292663 2.065626,52.245754 2.62,50.28 Z"
           id="path17596"
           style="stroke-width:7.76356" />
        <path
           d="M 30.49,58.03 C 32.102246,52.225425 28.704608,46.212703 22.900452,44.598949 17.096296,42.985196 11.082691,46.381271 9.4674302,52.185008 7.8521692,57.988745 11.246683,64.003231 17.05,65.62 c 5.806134,1.606112 11.817174,-1.788516 13.44,-7.59 z"
           id="path17598"
           style="stroke-width:7.76356" />
        <path
           d="m 21.53,37.16 2.51,-9 C 16.712107,27.05654 9.2505489,28.98059 3.37,33.49 l 6.56,6.69 c 3.408084,-2.302371 7.501863,-3.368165 11.6,-3.02 z"
           id="path17600"
           style="stroke-width:7.76356" />
      </g>
    </g>
    <path
       style="fill:none;fill-rule:evenodd;stroke:#c14d00;stroke-width:0.545747;stroke-linecap:butt;stroke-linejoin:miter;stroke-miterlimit:4;stroke-dasharray:none;stroke-opacity:1"
       d="M 67.455357,6.9196428 74.821428,14.419643 67.410714,21.741071 60,14.285714 Z"
       id="path18252" />
  </g>
</svg>
