<?xml version="1.0" encoding="UTF-8" standalone="no"?>
<svg
   xmlns:dc="http://purl.org/dc/elements/1.1/"
   xmlns:cc="http://creativecommons.org/ns#"
   xmlns:rdf="http://www.w3.org/1999/02/22-rdf-syntax-ns#"
   xmlns:svg="http://www.w3.org/2000/svg"
   xmlns="http://www.w3.org/2000/svg"
   xmlns:xlink="http://www.w3.org/1999/xlink"
   xmlns:sodipodi="http://sodipodi.sourceforge.net/DTD/sodipodi-0.dtd"
   xmlns:inkscape="http://www.inkscape.org/namespaces/inkscape"
   width="16"
   height="16"
   viewBox="0 0 4.2333332 4.2333335"
   version="1.1"
   id="svg5069"
   inkscape:version="1.0.1 (3bc2e813f5, 2020-09-07)"
   sodipodi:docname="session_connect.svg">
  <defs
     id="defs5063">
    <linearGradient
       inkscape:collect="always"
       id="linearGradient9572">
      <stop
         style="stop-color:#8ae234;stop-opacity:1;"
         offset="0"
         id="stop9568" />
      <stop
         style="stop-color:#ffffff;stop-opacity:1"
         offset="0.48772717"
         id="stop9576" />
      <stop
         style="stop-color:#8ae234;stop-opacity:1"
         offset="1"
         id="stop9570" />
    </linearGradient>
    <linearGradient
       inkscape:collect="always"
       id="linearGradient5762">
      <stop
         style="stop-color:#4e9a06;stop-opacity:1"
         offset="0"
         id="stop5758" />
      <stop
         style="stop-color:#1f3d03;stop-opacity:1"
         offset="1"
         id="stop5760" />
    </linearGradient>
    <linearGradient
       inkscape:collect="always"
       id="linearGradient5754">
      <stop
         style="stop-color:#4e9a06;stop-opacity:1"
         offset="0"
         id="stop5750" />
      <stop
         style="stop-color:#214004;stop-opacity:1"
         offset="1"
         id="stop5752" />
    </linearGradient>
    <linearGradient
       inkscape:collect="always"
       id="linearGradient5731">
      <stop
         style="stop-color:#326304;stop-opacity:1"
         offset="0"
         id="stop5727" />
      <stop
         style="stop-color:#8ae234;stop-opacity:1"
         offset="1"
         id="stop5729" />
    </linearGradient>
    <linearGradient
       inkscape:collect="always"
       id="linearGradient5687">
      <stop
         style="stop-color:#d8f5c6;stop-opacity:1"
         offset="0"
         id="stop5683" />
      <stop
         style="stop-color:#579817;stop-opacity:1"
         offset="0.74836612"
         id="stop5780" />
      <stop
         style="stop-color:#244703;stop-opacity:1"
         offset="1"
         id="stop5685" />
    </linearGradient>
    <linearGradient
       inkscape:collect="always"
       xlink:href="#linearGradient5687"
       id="linearGradient5689"
       x1="-3.0067868"
       y1="2.4756789"
       x2="-1.0676714"
       y2="2.6706676"
       gradientUnits="userSpaceOnUse"
       gradientTransform="matrix(0.84782518,0,0,0.84807286,3.5043762,1.0969163)" />
    <linearGradient
       inkscape:collect="always"
       xlink:href="#linearGradient5731"
       id="linearGradient5733"
       x1="5.2407494"
       y1="3.7890005"
       x2="5.7495106"
       y2="3.1747892"
       gradientUnits="userSpaceOnUse" />
    <linearGradient
       inkscape:collect="always"
       xlink:href="#linearGradient5754"
       id="linearGradient5756"
       x1="1.2665602"
       y1="2.3331044"
       x2="1.9301809"
       y2="3.1067746"
       gradientUnits="userSpaceOnUse" />
    <linearGradient
       inkscape:collect="always"
       xlink:href="#linearGradient5762"
       id="linearGradient5764"
       x1="4.1856756"
       y1="2.1559379"
       x2="5.0560021"
       y2="3.266243"
       gradientUnits="userSpaceOnUse" />
    <linearGradient
       inkscape:collect="always"
       xlink:href="#linearGradient9572"
       id="linearGradient9574"
       x1="4.6048903"
       y1="2.9499815"
       x2="4.6138802"
       y2="3.4519811"
       gradientUnits="userSpaceOnUse" />
    <linearGradient
       inkscape:collect="always"
       xlink:href="#linearGradient9572"
       id="linearGradient9584"
       x1="-0.024804911"
       y1="2.9145505"
       x2="-0.010630557"
       y2="3.4047384"
       gradientUnits="userSpaceOnUse" />
  </defs>
  <sodipodi:namedview
     id="base"
     pagecolor="#ffffff"
     bordercolor="#666666"
     borderopacity="1.0"
     inkscape:pageopacity="0.0"
     inkscape:pageshadow="2"
     inkscape:zoom="44.8"
     inkscape:cx="6.1393784"
     inkscape:cy="8.0631832"
     inkscape:document-units="px"
     inkscape:current-layer="layer1"
     inkscape:document-rotation="0"
     showgrid="true"
     units="px"
     inkscape:snap-global="false"
     inkscape:window-width="2560"
     inkscape:window-height="1377"
     inkscape:window-x="-8"
     inkscape:window-y="-8"
     inkscape:window-maximized="1">
    <inkscape:grid
       type="xygrid"
       id="grid5662" />
  </sodipodi:namedview>
  <metadata
     id="metadata5066">
    <rdf:RDF>
      <cc:Work
         rdf:about="">
        <dc:format>image/svg+xml</dc:format>
        <dc:type
           rdf:resource="http://purl.org/dc/dcmitype/StillImage" />
        <dc:title />
      </cc:Work>
    </rdf:RDF>
  </metadata>
  <g
     inkscape:label="Layer 1"
     inkscape:groupmode="layer"
     id="layer1">
    <path
       style="fill:#ffffff;fill-rule:evenodd;stroke:none;stroke-width:0.264583px;stroke-linecap:butt;stroke-linejoin:miter;stroke-opacity:1"
       d="m 0.0738436,0.07082376 3.2932899,0.0069981 0.0027,3.26398654 -3.29315369,0.012783 z"
       id="path18250" />
    <g
       id="Page-1"
       stroke="none"
       stroke-width="6.00679"
       fill="none"
       fill-rule="evenodd"
       transform="matrix(0.04404354,-3.0324597e-4,3.0330959e-4,0.04404937,0.05519867,0.07245515)"
       style="fill:#cfdac4;fill-opacity:1">
      <g
         id="engine_logo"
         fill="#ff6600"
         fill-rule="nonzero"
         style="stroke-width:39.4196;fill:#cfdac4;fill-opacity:1">
        <path
           d="m 18.44,73.05 -0.54,2 h 17 l -4.86,-4.94 c -3.418215,2.274255 -7.511195,3.311614 -11.6,2.94 z"
           id="Shape"
           style="stroke-width:6.00679;fill:#cfdac4;fill-opacity:1" />
        <path
           d="m 37.94,53.89 c 0.138061,2.020115 -0.06821,4.049003 -0.61,6 -0.550152,1.966893 -1.429233,3.826488 -2.6,5.5 l 6.56,6.68 c 4.603623,-5.784796 6.667252,-13.187884 5.72,-20.52 z"
           id="path17588"
           style="stroke-width:6.00679;fill:#cfdac4;fill-opacity:1" />
        <path
           d="M 3.66,62.73 0,63.67 V 75 h 11 l 1,-3.72 C 8.3279041,69.462289 5.3858498,66.446154 3.66,62.73 Z"
           id="path17590"
           style="stroke-width:6.00679;fill:#cfdac4;fill-opacity:1" />
        <path
           d="m 36.29,47.49 9.07,-2.34 C 42.652727,38.270325 37.268156,32.784703 30.44,29.95 l -2.51,9 c 3.67792,1.811521 6.627227,4.82433 8.36,8.54 z"
           id="path17592"
           style="stroke-width:6.00679;fill:#cfdac4;fill-opacity:1" />
        <path
           d="m 0,0 v 24.69 c 0.37,0.21 0.7,0.39 0.93,0.49 1.25,0.57 1.35,0.73 2,0.39 l 0.5,-0.28 C 4.07,24.88 3.99,24.71 4.14,23.35 4.232185,21.160412 4.212158,18.967539 4.08,16.78 4.02,15.99 4.08,15.67 4.8,15.4 l 0.58,-0.21 c 0.71,-0.27 1,-0.07 1.44,0.56 1.3329823,1.738888 2.7548759,3.407777 4.26,5 1,0.92 1,1.1 1.81,1 l 0.55,-0.1 c 0.74,-0.19 0.71,-0.38 1.28,-1.62 0.772858,-2.058019 1.440389,-4.154068 2,-6.28 0.19,-0.77 0.35,-1.05 1.11,-1.08 h 0.62 c 0.76,0 0.94,0.24 1.2,1 0.724466,2.06974 1.558989,4.099299 2.5,6.08 0.67,1.19 0.66,1.38 1.41,1.5 l 0.57,0.07 c 0.76,0.05 0.79,-0.14 1.72,-1.15 1.359324,-1.721462 2.63094,-3.510402 3.81,-5.36 0.42,-0.67 0.66,-0.89 1.39,-0.68 l 0.59,0.16 c 0.74,0.21 0.83,0.52 0.84,1.31 0.05257,2.193869 0.219465,4.383506 0.5,6.56 0.27,1.34 0.2,1.51 0.88,1.87 l 0.52,0.23 c 0.71,0.28 0.79,0.11 2,-0.56 1.82575,-1.215696 3.588057,-2.524076 5.28,-3.92 0.6,-0.51 0.9,-0.64 1.53,-0.22 l 0.52,0.34 c 0.63,0.42 0.62,0.75 0.39,1.5 -0.624786,2.102312 -1.142123,4.235073 -1.55,6.39 -0.16,1.36 -0.28,1.51 0.26,2.05 l 0.42,0.39 c 0.59,0.49 0.72,0.35 2.06,0.08 2.113321,-0.586149 4.19308,-1.287192 6.23,-2.1 0.74,-0.29 1.06,-0.33 1.53,0.27 l 0.39,0.47 c 0.47,0.6 0.36,0.9 -0.09,1.55 -1.251463,1.804225 -2.406417,3.673513 -3.46,5.6 -0.56,1.24 -0.72,1.34 -0.38,2 l 0.28,0.49 c 0.41,0.65 0.58,0.56 1.94,0.72 2.189676,0.09417 4.382828,0.07081 6.57,-0.07 0.79,0 1.11,0 1.38,0.73 l 0.21,0.57 c 0.27,0.72 0.07,1 -0.56,1.45 -1.738888,1.332982 -3.407777,2.754876 -5,4.26 -0.92,1 -1.1,1.05 -1,1.81 l 0.11,0.56 c 0.19,0.74 0.38,0.71 1.62,1.28 2.05582,0.779184 4.152203,1.446822 6.28,2 0.77,0.2 1,0.36 1.08,1.12 v 0.61 c 0,0.76 -0.24,1 -1,1.2 -0.76,0.2 -4.89,1.83 -6.08,2.5 -1.19,0.67 -1.38,0.66 -1.51,1.42 l -0.06,0.56 c 0,0.77 0.14,0.8 1.15,1.72 1.714806,1.368182 3.504224,2.640138 5.36,3.81 0.67,0.42 0.89,0.66 0.68,1.39 l -0.16,0.6 c -0.21,0.73 -0.52,0.82 -1.31,0.84 -2.193708,0.04898 -4.383359,0.212538 -6.56,0.49 -1.34,0.28 -1.51,0.21 -1.87,0.88 l -0.23,0.52 c -0.28,0.71 -0.11,0.8 0.56,2 0.766241,1.20996 1.600932,2.375189 2.5,3.49 H 75 v -75 z"
           id="path17594"
           style="stroke-width:6.00679;fill:#cfdac4;fill-opacity:1" />
        <path
           d="m 2.62,50.28 c 0.545255,-1.966919 1.4210769,-3.826772 2.59,-5.5 L 0,39.47 V 56.84 L 2,56.33 C 1.8558605,54.292663 2.065626,52.245754 2.62,50.28 Z"
           id="path17596"
           style="stroke-width:6.00679;fill:#cfdac4;fill-opacity:1" />
        <path
           d="M 30.49,58.03 C 32.102246,52.225425 28.704608,46.212703 22.900452,44.598949 17.096296,42.985196 11.082691,46.381271 9.4674302,52.185008 7.8521692,57.988745 11.246683,64.003231 17.05,65.62 c 5.806134,1.606112 11.817174,-1.788516 13.44,-7.59 z"
           id="path17598"
           style="stroke-width:6.00679;fill:#cfdac4;fill-opacity:1" />
        <path
           d="m 21.53,37.16 2.51,-9 C 16.712107,27.05654 9.2505489,28.98059 3.37,33.49 l 6.56,6.69 c 3.408084,-2.302371 7.501863,-3.368165 11.6,-3.02 z"
           id="path17600"
           style="stroke-width:6.00679;fill:#cfdac4;fill-opacity:1" />
      </g>
    </g>
    <path
       style="fill:none;fill-rule:evenodd;stroke:#4e9a06;stroke-width:0.132292;stroke-linecap:butt;stroke-linejoin:miter;stroke-miterlimit:4;stroke-dasharray:none;stroke-opacity:1"
       d="m 0.0738436,0.07082376 3.2932899,0.0069981 0.0027,3.26398654 -3.29315369,0.012783 z"
       id="path18252" />
    <rect
       style="color:#000000;overflow:visible;fill:url(#linearGradient9584);fill-opacity:1;stroke:#284f03;stroke-width:0.132292;stroke-linecap:round;stroke-linejoin:bevel;stroke-miterlimit:4;stroke-dasharray:none;stroke-opacity:1;stop-color:#000000"
       id="rect5745"
       width="1.0276227"
       height="0.67327023"
       x="-0.29529393"
       y="2.8348212" />
    <g
       id="g5739"
       transform="translate(-0.56696429)">
      <path
         id="path5679"
         style="color:#000000;overflow:visible;fill:none;stroke:#2e3436;stroke-width:0.264583;stroke-linecap:round;stroke-linejoin:bevel;stroke-miterlimit:4;stroke-dasharray:none;stop-color:#000000"
         d="M 2.437247,2.2326539 0.99505716,3.2889351 C 0.93261993,3.6931358 1.4850093,4.1301746 1.8882955,4.11482 L 2.5489097,4.11222 2.7881656,2.5658064 Z"
         sodipodi:nodetypes="cccccc" />
      <path
         id="path5681"
         style="color:#000000;overflow:visible;fill:none;stroke:url(#linearGradient5756);stroke-width:0.264583;stroke-linecap:round;stroke-linejoin:bevel;stroke-miterlimit:4;stroke-dasharray:none;stop-color:#000000"
         d="M 1.8113531,2.2627057 C 1.4000555,2.2703638 1.0276504,2.6292951 0.96501422,3.0334958 0.90257783,3.4376965 1.1695587,3.8196405 1.5728449,3.8042859 l 0.6606142,-0.0026 0.239256,-1.5464136 z"
         sodipodi:nodetypes="cccccc" />
      <path
         id="path5677"
         style="color:#000000;overflow:visible;fill:url(#linearGradient5689);fill-opacity:1;stroke:none;stroke-width:0.132292;stroke-linecap:round;stroke-linejoin:miter;stroke-miterlimit:4;stroke-dasharray:none;stop-color:#000000"
         d="M 2.4622828,2.2777315 0.99505716,3.2889351 C 0.93261993,3.6931358 1.4850093,4.1301746 1.8882955,4.11482 L 2.5489097,4.11222 2.7881656,2.5658064 Z"
         sodipodi:nodetypes="cccccc" />
      <path
         id="path5668"
         style="color:#000000;overflow:visible;fill:#d8f5c6;stroke:none;stroke-width:0.132292;stroke-linecap:round;stroke-linejoin:miter;stroke-miterlimit:4;stroke-dasharray:none;stop-color:#000000;fill-opacity:1"
         d="M 1.8113531,2.2627057 C 1.4000555,2.2703638 1.0276504,2.6292951 0.96501422,3.0334958 0.90257783,3.4376965 1.1695587,3.8196405 1.5728449,3.8042859 l 0.6606142,-0.0026 0.239256,-1.5464136 z"
         sodipodi:nodetypes="cccccc" />
    </g>
    <rect
       style="color:#000000;overflow:visible;fill:#ffffff;fill-opacity:1;stroke:none;stroke-width:0.267467;stroke-linecap:round;stroke-linejoin:bevel;stroke-miterlimit:4;stroke-dasharray:none;stop-color:#000000"
       id="rect5741"
       width="0.74414062"
       height="0.45868561"
       x="2.5479205"
       y="2.649513"
       transform="matrix(1,0,-0.20601047,0.97854979,0,0)" />
    <rect
       style="color:#000000;overflow:visible;fill:#ffffff;fill-opacity:1;stroke:none;stroke-width:0.267467;stroke-linecap:round;stroke-linejoin:bevel;stroke-miterlimit:4;stroke-dasharray:none;stop-color:#000000"
       id="rect5743"
       width="0.74414062"
       height="0.45868564"
       x="2.6029384"
       y="3.2892587"
       transform="matrix(1,0,-0.20601047,0.97854979,0,0)" />
    <g
       id="g5725"
       transform="translate(-1.8071987,0.03543527)">
      <path
         id="path5717"
         style="color:#000000;overflow:visible;fill:none;stroke:#2e3436;stroke-width:0.264583;stroke-linecap:round;stroke-linejoin:bevel;stroke-miterlimit:4;stroke-dasharray:none;stop-color:#000000"
         d="M 4.9954913,4.0571589 C 5.4067889,4.0494989 5.6788941,3.7378165 5.7414302,3.3336158 5.8039663,2.9294151 5.4955446,2.2698949 5.0922584,2.2852495 L 4.0005151,3.7702248 4.3341293,4.0645923 Z"
         sodipodi:nodetypes="czcccc" />
      <path
         id="path5719"
         style="color:#000000;overflow:visible;fill:none;stroke:url(#linearGradient5764);stroke-width:0.264583;stroke-linecap:round;stroke-linejoin:bevel;stroke-miterlimit:4;stroke-dasharray:none;stop-color:#000000"
         d="M 4.6470445,3.761865 C 5.0583421,3.754205 5.4307472,3.3952756 5.4933834,2.9910749 5.5558194,2.5868742 5.2888389,2.2049302 4.8855527,2.2202848 l -0.6606142,0.0026 -0.239256,1.5464136 z"
         sodipodi:nodetypes="cccccc" />
      <path
         id="path5715"
         style="color:#000000;overflow:visible;fill:url(#linearGradient5733);fill-opacity:1;stroke:none;stroke-width:0.132292;stroke-linecap:round;stroke-linejoin:miter;stroke-miterlimit:4;stroke-dasharray:none;stop-color:#000000"
         d="M 4.9954913,4.0571589 C 5.4067889,4.0494989 5.6788941,3.7378165 5.7414302,3.3336158 5.8039663,2.9294151 5.4955446,2.2698949 5.0922584,2.2852495 L 4.0005151,3.7702248 4.3341293,4.0645923 Z"
         sodipodi:nodetypes="czcccc" />
      <path
         id="path5713"
         style="color:#000000;overflow:visible;fill:#d8f5c6;stroke:none;stroke-width:0.132292;stroke-linecap:round;stroke-linejoin:miter;stroke-miterlimit:4;stroke-dasharray:none;stop-color:#000000;fill-opacity:1"
         d="M 4.6470445,3.761865 C 5.0583421,3.754205 5.4307472,3.3952756 5.4933834,2.9910749 5.5558194,2.5868742 5.2888389,2.2049302 4.8855527,2.2202848 l -0.6606142,0.0026 -0.239256,1.5464136 z"
         sodipodi:nodetypes="cccccc" />
    </g>
    <path
       id="rect5747"
       style="color:#000000;overflow:visible;fill:url(#linearGradient9574);fill-opacity:1;stroke:#284f03;stroke-width:0.132292;stroke-linecap:round;stroke-linejoin:bevel;stroke-miterlimit:4;stroke-dasharray:none;stroke-opacity:1;stop-color:#000000"
       d="m 3.9698143,2.8525389 0.6909877,0.00591 0.00378,0.6673642 -0.7795758,0.00591 C 3.6844129,3.3470135 3.6674017,3.0066246 3.9698143,2.8525389 Z"
       sodipodi:nodetypes="ccccc" />
  </g>
</svg>
