<?xml version="1.0" encoding="UTF-8" standalone="no"?>
<!-- Created with Inkscape (http://www.inkscape.org/) -->

<svg
   xmlns:dc="http://purl.org/dc/elements/1.1/"
   xmlns:cc="http://creativecommons.org/ns#"
   xmlns:rdf="http://www.w3.org/1999/02/22-rdf-syntax-ns#"
   xmlns:svg="http://www.w3.org/2000/svg"
   xmlns="http://www.w3.org/2000/svg"
   xmlns:xlink="http://www.w3.org/1999/xlink"
   xmlns:sodipodi="http://sodipodi.sourceforge.net/DTD/sodipodi-0.dtd"
   xmlns:inkscape="http://www.inkscape.org/namespaces/inkscape"
   width="24"
   height="24"
   id="svg17814"
   version="1.1"
   inkscape:version="0.48.5 r10040"
   sodipodi:docname="auto_key_24.svg">
  <defs
     id="defs17816">
    <linearGradient
       inkscape:collect="always"
       xlink:href="#linearGradient5725"
       id="linearGradient17703"
       gradientUnits="userSpaceOnUse"
       x1="3.4064975"
       y1="3.368283"
       x2="10.938821"
       y2="11.533505" />
    <linearGradient
       id="linearGradient5725">
      <stop
         style="stop-color:#656565;stop-opacity:1"
         offset="0"
         id="stop5727" />
      <stop
         style="stop-color:#000000;stop-opacity:1;"
         offset="1"
         id="stop5729" />
    </linearGradient>
  </defs>
  <sodipodi:namedview
     id="base"
     pagecolor="#ffffff"
     bordercolor="#666666"
     borderopacity="1.0"
     inkscape:pageopacity="0.0"
     inkscape:pageshadow="2"
     inkscape:zoom="31.392433"
     inkscape:cx="5.7538742"
     inkscape:cy="10.584615"
     inkscape:current-layer="layer1"
     showgrid="true"
     inkscape:grid-bbox="true"
     inkscape:document-units="px"
     inkscape:window-width="2560"
     inkscape:window-height="1537"
     inkscape:window-x="-8"
     inkscape:window-y="-8"
     inkscape:window-maximized="1" />
  <metadata
     id="metadata17819">
    <rdf:RDF>
      <cc:Work
         rdf:about="">
        <dc:format>image/svg+xml</dc:format>
        <dc:type
           rdf:resource="http://purl.org/dc/dcmitype/StillImage" />
        <dc:title></dc:title>
      </cc:Work>
    </rdf:RDF>
  </metadata>
  <g
     id="layer1"
     inkscape:label="Layer 1"
     inkscape:groupmode="layer"
     transform="translate(0,8)">
    <rect
       ry="0.97349381"
       y="-5.7886906"
       x="1.9749981"
       height="6.1479788"
       width="19.718128"
       id="rect19106"
       style="color:#000000;fill:#000000;fill-opacity:1;fill-rule:evenodd;stroke:none;stroke-width:1.5;marker:none;visibility:visible;display:inline;overflow:visible;enable-background:accumulate" />
    <g
       id="g17693"
       transform="matrix(0.88826851,0,0,0.88826851,4.7508724,-0.85655255)">
      <path
         sodipodi:nodetypes="ssscccccccccccccccccccccccsssssssssscsssss"
         inkscape:connector-curvature="0"
         id="path5700"
         d="M 9.4375,0.53125 C 8.645627,0.50435915 7.8294678,0.73293595 7.25,1.3125 6.477376,2.085252 6.3569178,3.2235572 6.59375,4.25 6.7683902,5.0068995 7.1255341,5.7480466 7.65625,6.4375 L 1.75,12.3125 1.40625,12.65625 1.75,13 2.4375,13.6875 2.78125,14.03125 3.15625,13.6875 4.1875,12.65625 4.53125,13 4.8125,13.3125 4.5,13.65625 4.15625,14 4.5,14.34375 5.6029233,15.295363 6.7788308,14.135383 5.5625,12.65625 6.25,11.96875 7.6972781,13.185081 8.8811493,12.009173 7.59375,10.5625 6.90625,11.25 6.21875,10.59375 9.03125,7.78125 c 0.683682,0.5224646 1.40681,0.8895235 2.15625,1.0625 1.026273,0.2368714 2.196126,0.1165019 2.96875,-0.65625 C 14.928873,7.414748 15.049333,6.2764429 14.8125,5.25 14.575667,4.2235571 14.001366,3.2202614 13.125,2.34375 12.248634,1.4672384 11.245023,0.86187145 10.21875,0.625 9.9621819,0.56578214 9.7014577,0.54021362 9.4375,0.53125 z m -0.09375,1.9375 c 0.1167348,0.00617 0.2580766,0.0283 0.40625,0.0625 0.592694,0.1367981 1.356083,0.5434767 2,1.1875 0.643916,0.6440234 1.019474,1.407208 1.15625,2 0.136775,0.592792 0.05256,0.9161678 -0.125,1.09375 -0.177553,0.1775822 -0.532306,0.2930481 -1.125,0.15625 -0.592694,-0.1367982 -1.356083,-0.5434767 -2,-1.1875 C 9.0123335,5.1372266 8.6367755,4.374042 8.5,3.78125 8.3632245,3.188458 8.4474473,2.8650821 8.625,2.6875 8.7581646,2.5543133 8.9935455,2.4502381 9.34375,2.46875 z"
         style="font-size:medium;font-style:normal;font-variant:normal;font-weight:normal;font-stretch:normal;text-indent:0;text-align:start;text-decoration:none;line-height:normal;letter-spacing:normal;word-spacing:normal;text-transform:none;direction:ltr;block-progression:tb;writing-mode:lr-tb;text-anchor:start;baseline-shift:baseline;color:#000000;fill:none;stroke:url(#linearGradient17703);stroke-width:1.12578571;stroke-miterlimit:4;stroke-dasharray:none;marker:none;visibility:visible;display:inline;overflow:visible;enable-background:accumulate;font-family:Sans;-inkscape-font-specification:Sans" />
      <path
         inkscape:connector-curvature="0"
         id="Oval-3-8"
         d="M 13.112406,2.3384834 C 12.23604,1.4619718 11.235424,0.8761315 10.209151,0.63926005 9.1828785,0.40238861 8.0355094,0.53329183 7.2628855,1.3060439 6.4902615,2.0787959 6.35938,3.2263552 6.5962122,4.2527981 6.8330444,5.279241 7.4187876,6.2800225 8.2951537,7.1565341 9.1715199,8.0330456 10.172136,8.6188859 11.198408,8.8557573 12.224681,9.0926288 13.37205,8.9617255 14.144674,8.1889735 14.917298,7.4162216 15.04818,6.2686622 14.811347,5.2422193 14.574515,4.2157764 13.988772,3.2149948 13.112406,2.3384834 z m -1.376358,1.3765858 c 0.643916,0.6440234 1.046031,1.4075595 1.182807,2.0003515 0.136775,0.592792 0.02702,0.9193847 -0.150539,1.0969669 -0.177553,0.1775822 -0.504091,0.2873622 -1.096785,0.150564 C 11.078837,6.8261535 10.315428,6.4239714 9.6715115,5.7799482 9.0275949,5.1359248 8.6254795,4.3723886 8.488704,3.7795967 8.3519286,3.1868047 8.4616904,2.860212 8.6392432,2.6826299 8.816796,2.5050476 9.1433345,2.3952675 9.7360283,2.5320657 10.328722,2.6688638 11.092131,3.0710459 11.736048,3.7150692 z"
         style="font-size:medium;font-style:normal;font-variant:normal;font-weight:normal;font-stretch:normal;text-indent:0;text-align:start;text-decoration:none;line-height:normal;letter-spacing:normal;word-spacing:normal;text-transform:none;direction:ltr;block-progression:tb;writing-mode:lr-tb;text-anchor:start;baseline-shift:baseline;color:#000000;fill:#ffffff;fill-opacity:1;stroke:none;stroke-width:2;marker:none;visibility:visible;display:inline;overflow:visible;enable-background:accumulate;font-family:Sans;-inkscape-font-specification:Sans" />
      <path
         inkscape:connector-curvature="0"
         id="Rectangle-17-8"
         d="m 8.2904529,5.7838162 -0.3345485,0.3346039 -6.2043532,6.2053819 -0.3345485,0.334603 0.3345485,0.334604 0.6995104,0.699627 0.3345485,0.334604 0.3649619,-0.334604 1.0340589,-1.034231 0.3345485,0.334604 0.3041349,0.334604 -0.3345484,0.334604 -0.3345485,0.334604 0.3345485,0.334604 0.6995104,0.699627 0.3345484,0.334603 0.3345485,-0.334603 0.6995104,-0.699627 0.3345485,-0.334604 -0.3345485,-0.334604 -0.6995104,-0.699626 -0.304135,-0.304186 0.6995104,-0.699626 0.304135,0.304185 0.6995104,0.699627 0.3345485,0.334604 L 7.9254909,12.962591 8.6250014,12.262964 8.9595498,11.928361 8.6250014,11.593757 7.9254909,10.89413 7.5909425,10.559526 7.256394,10.89413 6.8914321,11.259153 6.5872971,10.924549 6.2223352,10.589945 9.3245118,7.4872543 9.6894737,7.1526504 9.3245118,6.8180465 8.6554149,6.1184201 8.2904529,5.7838162 z"
         style="font-size:medium;font-style:normal;font-variant:normal;font-weight:normal;font-stretch:normal;text-indent:0;text-align:start;text-decoration:none;line-height:normal;letter-spacing:normal;word-spacing:normal;text-transform:none;direction:ltr;block-progression:tb;writing-mode:lr-tb;text-anchor:start;baseline-shift:baseline;color:#000000;fill:#ffffff;fill-opacity:1;fill-rule:nonzero;stroke:none;stroke-width:1;marker:none;visibility:visible;display:inline;overflow:visible;enable-background:accumulate;font-family:Sans;-inkscape-font-specification:Sans" />
      <path
         sodipodi:nodetypes="ccccc"
         inkscape:connector-curvature="0"
         id="path5704"
         d="m 3.375,12.21875 -1.2238243,1.192574 0.6399134,0.662438 1.3840347,-1.39276 z"
         style="font-size:medium;font-style:normal;font-variant:normal;font-weight:normal;font-stretch:normal;text-indent:0;text-align:start;text-decoration:none;line-height:normal;letter-spacing:normal;word-spacing:normal;text-transform:none;direction:ltr;block-progression:tb;writing-mode:lr-tb;text-anchor:start;baseline-shift:baseline;color:#000000;fill:#babdb6;fill-opacity:1;stroke:none;stroke-width:1px;marker:none;visibility:visible;display:inline;overflow:visible;enable-background:accumulate;font-family:Sans;-inkscape-font-specification:Sans" />
      <path
         sodipodi:nodetypes="cssscccccssssc"
         inkscape:connector-curvature="0"
         id="path5706"
         d="m 12.097586,1.469245 c 1.320881,1.4058489 1.66892,2.8717924 1.8526,3.6470298 C 14.17647,6.0713261 14.02345,6.9613106 13.34375,7.625 13.020191,7.9409375 12.675893,8.0548307 12.25,8.0625 11.824107,8.0701693 11.321415,7.9582318 10.875,7.78125 10.142736,7.5147113 9.5260748,7.0487211 8.90625,6.59375 L 6.051547,9.542203 6.2747525,10.522525 8.9636757,7.8524752 C 9.2076992,8.0296037 9.6643078,8.3561886 10.5,8.6875 11.025904,8.8959953 11.631308,9.0736412 12.25,9.0625 12.868692,9.051359 13.513885,8.8489283 14.03125,8.34375 15.033397,7.3652077 15.077028,5.9636855 14.75,4.8125 14.422972,3.6613145 13.138063,2.1156978 12.097586,1.469245 z"
         style="font-size:medium;font-style:normal;font-variant:normal;font-weight:normal;font-stretch:normal;text-indent:0;text-align:start;text-decoration:none;line-height:normal;letter-spacing:normal;word-spacing:normal;text-transform:none;direction:ltr;block-progression:tb;writing-mode:lr-tb;text-anchor:start;baseline-shift:baseline;color:#000000;fill:#babdb6;fill-opacity:1;stroke:none;stroke-width:1px;marker:none;visibility:visible;display:inline;overflow:visible;enable-background:accumulate;font-family:Sans;-inkscape-font-specification:Sans" />
      <path
         sodipodi:nodetypes="ccccc"
         inkscape:connector-curvature="0"
         id="path5708"
         d="m 6.0287129,13.554889 -1.027599,0.948762 0.5160272,0.856436 1.3654703,-1.342946 z"
         style="font-size:medium;font-style:normal;font-variant:normal;font-weight:normal;font-stretch:normal;text-indent:0;text-align:start;text-decoration:none;line-height:normal;letter-spacing:normal;word-spacing:normal;text-transform:none;direction:ltr;block-progression:tb;writing-mode:lr-tb;text-anchor:start;baseline-shift:baseline;color:#000000;fill:#babdb6;fill-opacity:1;stroke:none;stroke-width:1px;marker:none;visibility:visible;display:inline;overflow:visible;enable-background:accumulate;font-family:Sans;-inkscape-font-specification:Sans" />
      <path
         sodipodi:nodetypes="ccccc"
         inkscape:connector-curvature="0"
         id="path5712"
         d="m 8.0523515,11.438614 -0.9375,0.96875 0.5047648,0.912748 1.3316832,-1.387996 z"
         style="font-size:medium;font-style:normal;font-variant:normal;font-weight:normal;font-stretch:normal;text-indent:0;text-align:start;text-decoration:none;line-height:normal;letter-spacing:normal;word-spacing:normal;text-transform:none;direction:ltr;block-progression:tb;writing-mode:lr-tb;text-anchor:start;baseline-shift:baseline;color:#000000;fill:#babdb6;fill-opacity:1;stroke:none;stroke-width:1px;marker:none;visibility:visible;display:inline;overflow:visible;enable-background:accumulate;font-family:Sans;-inkscape-font-specification:Sans" />
      <path
         sodipodi:nodetypes="czczc"
         inkscape:connector-curvature="0"
         id="path5722"
         d="m 9.2689358,5.3570544 c 0,0 -1.3044779,-2.0194629 -0.5293318,-2.7029704 0.7751461,-0.6835075 3.153465,1.2050743 3.153465,1.2050743 0,0 -2.2461965,-3.20937854 -3.6827966,-1.8470297 -1.4366001,1.3623488 1.0586634,3.3449258 1.0586634,3.3449258 z"
         style="fill:#babdb6;stroke:none" />
    </g>
    <path
       inkscape:connector-curvature="0"
       id="path17858"
       style="font-size:16px;font-style:normal;font-variant:normal;font-weight:bold;font-stretch:normal;text-align:start;line-height:125%;letter-spacing:0px;word-spacing:0px;writing-mode:lr-tb;text-anchor:start;fill:#ffffff;fill-opacity:1;stroke:none;font-family:Sans;-inkscape-font-specification:Sans Bold"
       d="m 7.5507886,-0.55221584 -0.9294823,0 -0.3694835,-0.99286596 -1.691542,0 -0.3492773,0.99286596 -0.9063895,0 1.6482432,-4.37099466 0.903503,0 z M 5.9775969,-2.2815315 5.3945056,-3.9035108 4.8229606,-2.2815315 z" />
    <path
       inkscape:connector-curvature="0"
       id="path17860"
       style="font-size:16px;font-style:normal;font-variant:normal;font-weight:bold;font-stretch:normal;text-align:start;line-height:125%;letter-spacing:0px;word-spacing:0px;writing-mode:lr-tb;text-anchor:start;fill:#ffffff;fill-opacity:1;stroke:none;font-family:Sans;-inkscape-font-specification:Sans Bold"
       d="m 8.0986776,-4.9232105 0.8544311,0 0,2.3673737 c -1.1e-6,0.3756804 0.010585,0.619175 0.031754,0.730487 0.036559,0.178896 0.1236403,0.322508 0.2612361,0.430838 0.1375923,0.108331 0.3257013,0.162497 0.5643283,0.162496 0.2424719,1e-6 0.4252879,-0.05118 0.5484519,-0.153551 0.123158,-0.102367 0.197247,-0.22809 0.222267,-0.37717 0.02501,-0.149077 0.03753,-0.3965483 0.03753,-0.7424136 l 0,-2.4180601 0.854432,0 0,2.295816 c -5e-6,0.5247593 -0.0231,0.8954687 -0.06928,1.1121287 -0.04619,0.216662 -0.131344,0.399532 -0.255466,0.54861096 -0.124126,0.149079 -0.290104,0.267845 -0.497936,0.356298 -0.207837,0.08845 -0.479177,0.13268 -0.8140189,0.132681 -0.4041242,-10e-7 -0.7105834,-0.0482 -0.9193786,-0.144607 -0.2087975,-0.096404 -0.3738141,-0.221631 -0.4950503,-0.375679 C 8.300741,-1.1520098 8.2208788,-1.3135118 8.1823912,-1.4824688 8.1265837,-1.7329198 8.0986798,-2.1026352 8.0986803,-2.591616 z" />
    <path
       inkscape:connector-curvature="0"
       id="path17862"
       style="font-size:16px;font-style:normal;font-variant:normal;font-weight:bold;font-stretch:normal;text-align:start;line-height:125%;letter-spacing:0px;word-spacing:0px;writing-mode:lr-tb;text-anchor:start;fill:#ffffff;fill-opacity:1;stroke:none;font-family:Sans;-inkscape-font-specification:Sans Bold"
       d="m 13.527182,-0.55221584 0,-3.63156316 -1.255667,0 0,-0.7394315 3.362879,0 0,0.7394315 -1.252781,0 0,3.63156316 z" />
    <path
       inkscape:connector-curvature="0"
       id="path17864"
       style="font-size:16px;font-style:normal;font-variant:normal;font-weight:bold;font-stretch:normal;text-align:start;line-height:125%;letter-spacing:0px;word-spacing:0px;writing-mode:lr-tb;text-anchor:start;fill:#ffffff;fill-opacity:1;stroke:none;font-family:Sans;-inkscape-font-specification:Sans Bold"
       d="m 16.163215,-2.7108792 c 0,-0.4452464 0.06446,-0.8189376 0.193402,-1.1210733 0.09622,-0.2226209 0.227558,-0.422387 0.39402,-0.5992975 0.166459,-0.1769035 0.348795,-0.308092 0.547008,-0.3935686 0.26364,-0.1152829 0.567694,-0.1729268 0.912164,-0.1729318 0.623499,5e-6 1.122398,0.1997705 1.496696,0.5992976 0.374291,0.3995353 0.561438,0.9551022 0.561442,1.6667028 -4e-6,0.705642 -0.185708,1.2577302 -0.557112,1.6562672 -0.371411,0.39853796 -0.867904,0.59780596 -1.48948,0.59780596 -0.629278,0 -1.129621,-0.198274 -1.501028,-0.59482396 -0.371408,-0.396549 -0.557112,-0.9426747 -0.557112,-1.6383784 z m 0.880411,-0.029815 c -1e-6,0.4949437 0.110651,0.8701254 0.331957,1.1255464 0.221304,0.255422 0.502265,0.383133 0.842885,0.383133 0.340614,0 0.620133,-0.126717 0.838555,-0.380152 0.218414,-0.253433 0.327625,-0.6335835 0.327628,-1.1404535 -3e-6,-0.5009027 -0.106326,-0.8745935 -0.318968,-1.1210738 -0.212649,-0.2464737 -0.495053,-0.369712 -0.847215,-0.3697157 -0.352166,3.7e-6 -0.636014,0.124733 -0.851544,0.3741881 -0.215533,0.2494618 -0.323299,0.6256376 -0.323298,1.1285277 z" />
  </g>
</svg>
