<?xml version="1.0" encoding="UTF-8" standalone="no"?>
<!-- Created with Inkscape (http://www.inkscape.org/) -->

<svg
   xmlns:dc="http://purl.org/dc/elements/1.1/"
   xmlns:cc="http://creativecommons.org/ns#"
   xmlns:rdf="http://www.w3.org/1999/02/22-rdf-syntax-ns#"
   xmlns:svg="http://www.w3.org/2000/svg"
   xmlns="http://www.w3.org/2000/svg"
   xmlns:xlink="http://www.w3.org/1999/xlink"
   xmlns:sodipodi="http://sodipodi.sourceforge.net/DTD/sodipodi-0.dtd"
   xmlns:inkscape="http://www.inkscape.org/namespaces/inkscape"
   sodipodi:docname="colorwheel.svg"
   inkscape:version="0.48.4 r9939"
   sodipodi:version="0.32"
   height="48"
   width="48"
   id="svg2294"
   version="1.1">
  <metadata
     id="metadata2325">
    <rdf:RDF>
      <cc:Work
         rdf:about="">
        <dc:format>image/svg+xml</dc:format>
        <dc:type
           rdf:resource="http://purl.org/dc/dcmitype/StillImage" />
      </cc:Work>
    </rdf:RDF>
  </metadata>
  <sodipodi:namedview
     inkscape:window-height="1496"
     inkscape:window-width="2560"
     inkscape:pageshadow="2"
     inkscape:pageopacity="0.0"
     guidetolerance="10.0"
     gridtolerance="10.0"
     objecttolerance="10.0"
     borderopacity="1.0"
     bordercolor="#666666"
     pagecolor="#ffffff"
     id="base"
     inkscape:zoom="16.755555"
     inkscape:cx="18.266254"
     inkscape:cy="37.618674"
     inkscape:window-x="-8"
     inkscape:window-y="-8"
     inkscape:current-layer="svg2294"
     showgrid="false"
     inkscape:window-maximized="1" />
  <defs
     id="defs2296">
    <linearGradient
       inkscape:collect="always"
       id="linearGradient3264">
      <stop
         style="stop-color:white;stop-opacity:1;"
         offset="0"
         id="stop3266" />
      <stop
         style="stop-color:white;stop-opacity:0;"
         offset="1"
         id="stop3268" />
    </linearGradient>
    <radialGradient
       inkscape:collect="always"
       xlink:href="#linearGradient3264"
       id="radialGradient3270"
       cx="270"
       cy="270"
       fx="270"
       fy="270"
       r="270"
       gradientUnits="userSpaceOnUse" />
  </defs>
  <g
     id="g2853"
     transform="matrix(0.08587884,0,0,0.08587884,0.79162666,0.74907345)">
    <path
       id="path2298"
       d="M 198.18836,536.03552 C 149.36741,522.91924 110.78713,500.58576 75.047711,464.75147 L 269.28365,269.99983 198.18836,536.03552 z"
       style="fill:#0247fe;fill-opacity:1;fill-rule:evenodd;stroke:none"
       inkscape:connector-curvature="0" />
    <path
       id="path2300"
       d="m 340.37894,536.03552 c -48.82095,13.11625 -93.36963,13.11625 -142.19058,0 l 71.09529,-266.03569 71.09529,266.03569 z"
       style="fill:#0391ce;fill-opacity:1;fill-rule:evenodd;stroke:none"
       inkscape:connector-curvature="0" />
    <path
       id="path2302"
       d="m 463.5196,464.75147 c -35.73942,35.83429 -74.31971,58.16777 -123.14066,71.28405 L 269.28365,269.99983 463.5196,464.75147 z"
       style="fill:#66b032;fill-opacity:1;fill-rule:evenodd;stroke:none"
       inkscape:connector-curvature="0" />
    <path
       id="path2304"
       d="M 534.61488,341.28388 C 521.53334,390.23444 499.259,428.91716 463.5196,464.75147 L 269.28365,269.99983 534.61488,341.28388 z"
       style="fill:#d0ea2b;fill-opacity:1;fill-rule:evenodd;stroke:none"
       inkscape:connector-curvature="0" />
    <path
       id="path2306"
       d="m 534.61488,198.71578 c 13.08152,48.95057 13.08152,93.61753 0,142.5681 L 269.28365,269.99983 534.61488,198.71578 z"
       style="fill:#fefe33;fill-opacity:1;fill-rule:evenodd;stroke:none"
       inkscape:connector-curvature="0" />
    <path
       id="path2308"
       d="M 463.51959,75.248196 C 499.259,111.0825 521.53334,149.76522 534.61488,198.71578 L 269.28365,269.99983 463.51959,75.248196 z"
       style="fill:#fabc02;fill-opacity:1;fill-rule:evenodd;stroke:none"
       inkscape:connector-curvature="0" />
    <path
       id="path2310"
       d="M 340.37894,3.9641518 C 389.19989,17.080416 427.78018,39.413897 463.51959,75.248196 L 269.28365,269.99983 340.37894,3.9641518 z"
       style="fill:#fb9902;fill-opacity:1;fill-rule:evenodd;stroke:none"
       inkscape:connector-curvature="0" />
    <path
       id="path2312"
       d="m 198.18836,3.9641518 c 48.82095,-13.1162642 93.36963,-13.1162642 142.19058,0 L 269.28365,269.99983 198.18836,3.9641518 z"
       style="fill:#fd5308;fill-opacity:1;fill-rule:evenodd;stroke:none"
       inkscape:connector-curvature="0" />
    <path
       id="path2314"
       d="M 75.047711,464.75147 C 39.308297,428.91716 17.033956,390.23444 3.9524219,341.28388 L 269.28365,269.99983 75.047711,464.75147 z"
       style="fill:#3d01a4;fill-opacity:1;fill-rule:evenodd;stroke:none"
       inkscape:connector-curvature="0" />
    <path
       id="path2316"
       d="m 3.9524219,341.28388 c -13.0815329,-48.95057 -13.0815329,-93.61753 0,-142.5681 L 269.28365,269.99983 3.9524219,341.28388 z"
       style="fill:#8601af;fill-opacity:1;fill-rule:evenodd;stroke:none"
       inkscape:connector-curvature="0" />
    <path
       id="path2318"
       d="M 75.047711,75.248197 C 110.78713,39.413897 149.36741,17.080418 198.18836,3.9641518 L 269.28365,269.99983 75.047711,75.248197 z"
       style="fill:#fe2712;fill-opacity:1;fill-rule:evenodd;stroke:none"
       inkscape:connector-curvature="0" />
    <path
       id="path2320"
       d="M 3.9524219,198.71578 C 17.033955,149.76522 39.308297,111.0825 75.047711,75.248197 L 269.28365,269.99983 3.9524219,198.71578 z"
       style="fill:#a7194b;fill-opacity:1;fill-rule:evenodd;stroke:none"
       inkscape:connector-curvature="0" />
  </g>
  <path
     sodipodi:type="arc"
     style="color:#000000;fill:url(#radialGradient3270);fill-opacity:1;fill-rule:nonzero;stroke:none;stroke-width:1.00251544;marker:none;visibility:visible;display:inline;overflow:visible"
     id="path3254"
     sodipodi:cx="270"
     sodipodi:cy="270"
     sodipodi:rx="270"
     sodipodi:ry="270"
     d="m 540,270 a 270,270 0 1 1 -540,0 270,270 0 1 1 540,0 z"
     transform="matrix(0.0875502,0,0,0.0880431,0.36288603,0.41685191)" />
</svg>
