<?xml version="1.0" encoding="UTF-8" standalone="no"?>
<!-- Created with Inkscape (http://www.inkscape.org/) -->
<svg
   xmlns:a="http://ns.adobe.com/AdobeSVGViewerExtensions/3.0/"
   xmlns:i="http://ns.adobe.com/AdobeIllustrator/10.0/"
   xmlns:dc="http://purl.org/dc/elements/1.1/"
   xmlns:cc="http://web.resource.org/cc/"
   xmlns:rdf="http://www.w3.org/1999/02/22-rdf-syntax-ns#"
   xmlns:svg="http://www.w3.org/2000/svg"
   xmlns="http://www.w3.org/2000/svg"
   xmlns:sodipodi="http://sodipodi.sourceforge.net/DTD/sodipodi-0.dtd"
   xmlns:inkscape="http://www.inkscape.org/namespaces/inkscape"
   width="48px"
   height="48px"
   id="svg25650"
   sodipodi:version="0.32"
   inkscape:version="0.45.1"
   sodipodi:docbase="C:\dev\src\houdini\support\icons\COP2"
   sodipodi:docname="colormap.svg"
   inkscape:output_extension="org.inkscape.output.svg.inkscape">
  <defs
     id="defs25652">
    <linearGradient
       gradientTransform="matrix(-1.0445352,0,0,-1.0446182,190.85272,3867.4644)"
       y2="3690.9829"
       x2="182.3389"
       y1="3690.9829"
       x1="152.4746"
       gradientUnits="userSpaceOnUse"
       id="XMLID_222_">
				<stop
   id="stop23153"
   style="stop-color:#FFFFFF"
   offset="0" />

				<stop
   id="stop23155"
   style="stop-color:#72BD22"
   offset="1" />

				<a:midPointStop
   style="stop-color:#FFFFFF"
   offset="0" />

				<a:midPointStop
   style="stop-color:#FFFFFF"
   offset="0.5" />

				<a:midPointStop
   style="stop-color:#72BD22"
   offset="1" />

			</linearGradient>
    <linearGradient
       gradientTransform="matrix(-1.0445352,0,0,-1.0446182,211.9587,3909.4347)"
       y2="3711.0728"
       x2="197.5381"
       y1="3711.0728"
       x1="157.4814"
       gradientUnits="userSpaceOnUse"
       id="XMLID_223_">
				<stop
   id="stop23162"
   style="stop-color:#FFFFFF"
   offset="0" />

				<stop
   id="stop23164"
   style="stop-color:#F17912"
   offset="1" />

				<a:midPointStop
   style="stop-color:#FFFFFF"
   offset="0" />

				<a:midPointStop
   style="stop-color:#FFFFFF"
   offset="0.5" />

				<a:midPointStop
   style="stop-color:#F17912"
   offset="1" />

			</linearGradient>
    <linearGradient
       gradientTransform="matrix(0,1.0446182,-1.0445352,0,158.05901,3695.1146)"
       y2="115.2823"
       x2="-3515.4802"
       y1="122.0249"
       x1="-3524.7656"
       gradientUnits="userSpaceOnUse"
       id="XMLID_224_">
				<stop
   id="stop23171"
   style="stop-color:#E86712"
   offset="0" />

				<stop
   id="stop23173"
   style="stop-color:#D52E0C"
   offset="0.6221" />

				<stop
   id="stop23175"
   style="stop-color:#CB1009"
   offset="1" />

				<a:midPointStop
   style="stop-color:#E86712"
   offset="0" />

				<a:midPointStop
   style="stop-color:#E86712"
   offset="0.4689" />

				<a:midPointStop
   style="stop-color:#CB1009"
   offset="1" />

			</linearGradient>
  </defs>
  <sodipodi:namedview
     id="base"
     pagecolor="#ffffff"
     bordercolor="#666666"
     borderopacity="1.0"
     inkscape:pageopacity="0.0"
     inkscape:pageshadow="2"
     inkscape:zoom="7"
     inkscape:cx="24"
     inkscape:cy="24"
     inkscape:current-layer="layer1"
     showgrid="true"
     inkscape:grid-bbox="true"
     inkscape:document-units="px"
     inkscape:window-width="744"
     inkscape:window-height="573"
     inkscape:window-x="198"
     inkscape:window-y="216" />
  <metadata
     id="metadata25655">
    <rdf:RDF>
      <cc:Work
         rdf:about="">
        <dc:format>image/svg+xml</dc:format>
        <dc:type
           rdf:resource="http://purl.org/dc/dcmitype/StillImage" />
      </cc:Work>
    </rdf:RDF>
  </metadata>
  <g
     id="layer1"
     inkscape:label="Layer 1"
     inkscape:groupmode="layer">
    <rect
       style="fill:url(#XMLID_222_);stroke:#1f400e;stroke-width:0.80000001"
       id="rect23157"
       height="19.394381"
       width="31.194"
       i:knockout="Off"
       y="2.098896"
       x="0.39331973" />
    <path
       style="fill:none;stroke:#ffffff;stroke-width:1.20000005"
       id="path23159"
       d="M 1.437855,3.1435082 C 1.437855,4.9068238 1.437855,18.685338 1.437855,20.448652 C 3.3221965,20.448652 28.658442,20.448652 30.542784,20.448652 C 30.542784,18.685338 30.542784,4.9068238 30.542784,3.1435082 C 28.658442,3.1435082 3.3221965,3.1435082 1.437855,3.1435082 z "
       i:knockout="Off" />
    <rect
       style="fill:url(#XMLID_223_);stroke:#402005;stroke-width:1"
       id="rect23166"
       height="26.014128"
       width="41.840946"
       i:knockout="Off"
       y="19.773819"
       x="5.6233077" />
    <path
       style="fill:none;stroke:#ffffff;stroke-width:1.39999986"
       id="path23168"
       d="M 6.8663044,21.016925 C 6.8663044,23.260765 6.8663044,42.299976 6.8663044,44.543816 C 9.1705491,44.543816 43.915968,44.543816 46.219168,44.543816 C 46.219168,42.299976 46.219168,23.260765 46.219168,21.016925 C 43.915968,21.016925 9.1705491,21.016925 6.8663044,21.016925 z "
       i:knockout="Off" />
    <path
       style="fill:url(#XMLID_224_);stroke:#590b08;stroke-width:1.20000005"
       id="path23177"
       d="M 27.142822,16.985744 L 30.939707,16.985744 C 31.727287,16.985744 32.366542,17.624006 32.366542,18.411648 L 32.366542,21.957081 L 27.970094,21.957081 C 27.812369,21.956036 27.682846,22.087658 27.682846,22.245396 C 27.682846,22.324787 27.715227,22.39791 27.769543,22.448052 L 27.778944,22.459542 C 29.242337,23.964837 35.987946,31.843348 35.987946,31.843348 C 36.213565,32.07003 36.579153,32.07003 36.805817,31.843348 L 45.025264,22.448052 L 45.021086,22.455364 C 45.076446,22.402088 45.110916,22.327921 45.110916,22.245396 C 45.110916,22.087658 44.980349,21.957081 44.82158,21.957081 L 40.425131,21.957081 L 40.425131,15.361363 C 40.425131,11.92248 37.638311,9.1354383 34.200746,9.1354383 L 27.142822,9.1354383"
       i:knockout="Off" />
    <path
       style="fill:none;stroke:#ed2829;stroke-width:1"
       id="path23179"
       d="M 27.142822,9.7726553 L 34.200746,9.7726553 C 37.28108,9.7726553 39.787965,12.278695 39.787965,15.361363 L 39.787965,22.596387 C 39.787965,22.596387 43.127344,22.596387 43.926413,22.596387 C 42.930971,23.510428 36.940562,30.855139 36.424561,31.328351 C 36.392181,31.35969 36.358756,31.356556 36.330553,31.329396 C 35.889759,30.908414 30.581432,24.291803 28.824523,22.596387 C 29.623593,22.596387 33.004753,22.596387 33.004753,22.596387 L 33.004753,18.412693 C 33.004753,17.274059 32.07825,16.347482 30.938663,16.347482 L 27.141777,16.347482"
       i:knockout="Off" />
  </g>
</svg>
