<?xml version="1.0" encoding="UTF-8" standalone="no"?>
<!-- Created with Inkscape (http://www.inkscape.org/) -->
<svg
   xmlns:a="http://ns.adobe.com/AdobeSVGViewerExtensions/3.0/"
   xmlns:i="http://ns.adobe.com/AdobeIllustrator/10.0/"
   xmlns:dc="http://purl.org/dc/elements/1.1/"
   xmlns:cc="http://web.resource.org/cc/"
   xmlns:rdf="http://www.w3.org/1999/02/22-rdf-syntax-ns#"
   xmlns:svg="http://www.w3.org/2000/svg"
   xmlns="http://www.w3.org/2000/svg"
   xmlns:sodipodi="http://sodipodi.sourceforge.net/DTD/sodipodi-0.dtd"
   xmlns:inkscape="http://www.inkscape.org/namespaces/inkscape"
   width="48px"
   height="48px"
   id="svg25488"
   sodipodi:version="0.32"
   inkscape:version="0.45.1"
   sodipodi:docbase="C:\dev\src\houdini\support\icons\COP2"
   sodipodi:docname="colorcorrect.svg"
   inkscape:output_extension="org.inkscape.output.svg.inkscape">
  <defs
     id="defs25490">
    <radialGradient
       gradientUnits="userSpaceOnUse"
       fy="181.1714"
       fx="8.1211"
       r="37.8835"
       cy="181.1714"
       cx="8.1211"
       id="XMLID_203_"
       gradientTransform="matrix(1.0342493,0,0,1.0343667,-0.4198013,-173.06946)">
				<stop
   id="stop22912"
   style="stop-color:#FFFFFF"
   offset="0" />

				<stop
   id="stop22914"
   style="stop-color:#929292"
   offset="0.4051" />

				<stop
   id="stop22916"
   style="stop-color:#2A2A2A"
   offset="0.816" />

				<stop
   id="stop22918"
   style="stop-color:#000000"
   offset="1" />

				<a:midPointStop
   style="stop-color:#FFFFFF"
   offset="0" />

				<a:midPointStop
   style="stop-color:#FFFFFF"
   offset="0.4775" />

				<a:midPointStop
   style="stop-color:#000000"
   offset="1" />

			</radialGradient>
    <radialGradient
       gradientUnits="userSpaceOnUse"
       fy="178.46629"
       fx="7.6933999"
       r="43.856499"
       cy="178.46629"
       cx="7.6933999"
       id="XMLID_204_">
					<stop
   id="stop22925"
   style="stop-color:#FFFFFF"
   offset="0" />

					<stop
   id="stop22927"
   style="stop-color:#C8CACB"
   offset="0.2566" />

					<stop
   id="stop22929"
   style="stop-color:#606468"
   offset="0.7705" />

					<stop
   id="stop22931"
   style="stop-color:#363B40"
   offset="1" />

					<a:midPointStop
   style="stop-color:#FFFFFF"
   offset="0" />

					<a:midPointStop
   style="stop-color:#FFFFFF"
   offset="0.4775" />

					<a:midPointStop
   style="stop-color:#363B40"
   offset="1" />

				</radialGradient>
  </defs>
  <sodipodi:namedview
     id="base"
     pagecolor="#ffffff"
     bordercolor="#666666"
     borderopacity="1.0"
     inkscape:pageopacity="0.0"
     inkscape:pageshadow="2"
     inkscape:zoom="7"
     inkscape:cx="24"
     inkscape:cy="24"
     inkscape:current-layer="layer1"
     showgrid="true"
     inkscape:grid-bbox="true"
     inkscape:document-units="px"
     inkscape:window-width="744"
     inkscape:window-height="573"
     inkscape:window-x="132"
     inkscape:window-y="144" />
  <metadata
     id="metadata25493">
    <rdf:RDF>
      <cc:Work
         rdf:about="">
        <dc:format>image/svg+xml</dc:format>
        <dc:type
           rdf:resource="http://purl.org/dc/dcmitype/StillImage" />
      </cc:Work>
    </rdf:RDF>
  </metadata>
  <g
     id="layer1"
     inkscape:label="Layer 1"
     inkscape:groupmode="layer">
    <path
       style="opacity:0.5;fill:url(#XMLID_203_)"
       id="path22920"
       d="M 48.130966,40.335914 C 48.130966,42.048825 46.741969,43.439014 45.028218,43.439014 L 3.7813195,43.439014 C 2.0675684,43.439014 0.67857143,42.048825 0.67857143,40.335914 L 0.67857143,10.531672 C 0.67857143,8.8177263 2.0675684,7.4285714 3.7813195,7.4285714 L 45.029253,7.4285714 C 46.743004,7.4285714 48.132001,8.8177263 48.132001,10.531672 L 48.132001,40.335914 L 48.130966,40.335914 z "
       a:adobe-blending-mode="lighten"
       i:knockout="Off" />
    <g
       transform="matrix(1.0342493,0,0,1.0343667,-0.8483728,-174.24433)"
       id="g22871">
				<rect
   style="fill:#3065a0"
   id="rect22873"
   height="2.7550001"
   width="6.5539999"
   i:knockout="Off"
   y="198.87399"
   x="1.062" />
 
				<polygon
   id="polygon22875"
   points="7.615,198.874 7.615,201.629 9.217,201.629 14.171,201.629 14.171,198.874 7.615,198.874 "
   i:knockout="Off" />

				<polygon
   style="fill:#c02ee6"
   id="polygon22877"
   points="14.171,198.874 14.171,201.629 17.371,201.629 20.725,201.629 20.725,198.874 14.171,198.874 "
   i:knockout="Off" />

				<polygon
   id="polygon22879"
   points="20.725,198.874 20.725,201.629 25.526,201.629 27.279,201.629 27.279,198.874 20.725,198.874 "
   i:knockout="Off" />

				<rect
   style="fill:#b3ddff"
   id="rect22881"
   height="2.7550001"
   width="6.5549998"
   i:knockout="Off"
   y="198.87399"
   x="27.278999" />
 
				<rect
   id="rect22883"
   height="2.7550001"
   width="6.5549998"
   i:knockout="Off"
   y="198.87399"
   x="33.834" />
 
				<rect
   style="fill:#ffffff"
   id="rect22885"
   height="2.7550001"
   width="6.5549998"
   i:knockout="Off"
   y="198.87399"
   x="40.389" />
 
				<path
   style="fill:#ffffff"
   id="path22887"
   d="M 7.615,174.501 L 4.062,174.501 C 2.405,174.501 1.062,175.844 1.062,177.501 L 1.062,198.874 L 7.616,198.874 L 7.616,174.501 L 7.615,174.501 z "
   i:knockout="Off" />

				<rect
   style="fill:#fff251"
   id="rect22889"
   height="24.372999"
   width="6.5560002"
   i:knockout="Off"
   y="174.50101"
   x="7.6149998" />
 
				<rect
   style="fill:#b3ddff"
   id="rect22891"
   height="24.372999"
   width="6.5539999"
   i:knockout="Off"
   y="174.50101"
   x="14.171" />
 
				<rect
   style="fill:#afff3a"
   id="rect22893"
   height="24.372999"
   width="6.5549998"
   i:knockout="Off"
   y="174.50101"
   x="20.725" />
 
				<rect
   style="fill:#c02ee6"
   id="rect22895"
   height="24.372999"
   width="6.5549998"
   i:knockout="Off"
   y="174.50101"
   x="27.278999" />
 
				<rect
   style="fill:#ed2728"
   id="rect22897"
   height="24.372999"
   width="6.5549998"
   i:knockout="Off"
   y="174.50101"
   x="33.834" />
 
				<path
   style="fill:#3065a0"
   id="path22899"
   d="M 43.943,174.501 L 40.388,174.501 L 40.388,198.874 L 46.943,198.874 L 46.943,177.501 C 46.943,175.844 45.601,174.501 43.943,174.501 z "
   i:knockout="Off" />

				<path
   style="fill:#224987"
   id="path22901"
   d="M 7.615,201.629 L 1.062,201.629 L 1.062,206.315 C 1.062,207.971 2.405,209.315 4.062,209.315 L 9.217,209.315 L 9.217,201.629 L 7.615,201.629 z "
   i:knockout="Off" />

				<polygon
   style="fill:#ffffff"
   id="polygon22903"
   points="14.171,201.629 9.217,201.629 9.217,209.315 17.371,209.315 17.371,201.629 14.171,201.629 "
   i:knockout="Off" />

				<g
   id="g22905">
					<polygon
   style="fill:#330099"
   id="polygon22907"
   points="20.725,201.629 17.371,201.629 17.371,209.315 25.526,209.315 25.526,201.629 20.725,201.629 " />

				</g>

				<path
   id="path22909"
   d="M 33.834,201.629 L 27.279,201.629 L 25.526,201.629 L 25.526,209.315 L 43.943,209.315 C 45.6,209.315 46.943,207.971 46.943,206.315 L 46.943,201.629 L 40.388,201.629 L 33.834,201.629 z "
   i:knockout="Off" />

			</g>
    <g
       transform="matrix(1.0342493,0,0,1.0343667,-0.8483728,-174.24433)"
       id="g22922"
       a:adobe-blending-mode="screen">
				
					<radialGradient
   gradientUnits="userSpaceOnUse"
   fy="178.46629"
   fx="7.6933999"
   r="43.856499"
   cy="178.46629"
   cx="7.6933999"
   id="radialGradient25528">
					<stop
   id="stop25530"
   style="stop-color:#FFFFFF"
   offset="0" />

					<stop
   id="stop25532"
   style="stop-color:#C8CACB"
   offset="0.2566" />

					<stop
   id="stop25534"
   style="stop-color:#606468"
   offset="0.7705" />

					<stop
   id="stop25536"
   style="stop-color:#363B40"
   offset="1" />

					<a:midPointStop
   style="stop-color:#FFFFFF"
   offset="0" />

					<a:midPointStop
   style="stop-color:#FFFFFF"
   offset="0.4775" />

					<a:midPointStop
   style="stop-color:#363B40"
   offset="1" />

				</radialGradient>

				<path
   style="fill:url(#XMLID_204_)"
   id="path22933"
   d="M 4.062,174.601 C 2.463,174.601 1.162,175.903 1.162,177.501 L 1.162,206.315 C 1.162,207.913 2.464,209.215 4.062,209.215 L 43.944,209.215 C 45.543,209.215 46.844,207.912 46.844,206.315 L 46.844,177.501 C 46.844,175.902 45.542,174.601 43.944,174.601 L 4.062,174.601 z M 2.841,205.741 L 2.841,178.075 C 2.841,176.964 3.745,176.059 4.857,176.059 L 43.149,176.059 C 44.26,176.059 45.165,176.963 45.165,178.075 L 45.165,205.741 C 45.165,206.852 44.261,207.757 43.149,207.757 L 4.856,207.757 C 3.745,207.756 2.841,206.852 2.841,205.741 z "
   a:adobe-blending-mode="normal"
   i:knockout="Off" />

			</g>
    <path
       style="fill:none;stroke:#000000;stroke-width:0.49999997"
       id="path22935"
       d="M 47.702392,39.161042 C 47.702392,40.873953 46.313395,42.264142 44.599644,42.264142 L 3.3527479,42.264142 C 1.6389968,42.264142 0.24999999,40.873953 0.24999999,39.161042 L 0.24999999,9.3568003 C 0.24999999,7.6428544 1.6389968,6.2536995 3.3527479,6.2536995 L 44.600678,6.2536995 C 46.31443,6.2536995 47.703426,7.6428544 47.703426,9.3568003 L 47.703426,39.161042 L 47.702392,39.161042 z "
       i:knockout="Off" />
  </g>
</svg>
