<?xml version="1.0" encoding="UTF-8" standalone="no"?>
<!-- Created with Inkscape (http://www.inkscape.org/) -->
<svg
   xmlns:a="http://ns.adobe.com/AdobeSVGViewerExtensions/3.0/"
   xmlns:i="http://ns.adobe.com/AdobeIllustrator/10.0/"
   xmlns:dc="http://purl.org/dc/elements/1.1/"
   xmlns:cc="http://web.resource.org/cc/"
   xmlns:rdf="http://www.w3.org/1999/02/22-rdf-syntax-ns#"
   xmlns:svg="http://www.w3.org/2000/svg"
   xmlns="http://www.w3.org/2000/svg"
   xmlns:sodipodi="http://sodipodi.sourceforge.net/DTD/sodipodi-0.dtd"
   xmlns:inkscape="http://www.inkscape.org/namespaces/inkscape"
   width="48px"
   height="48px"
   id="svg35691"
   sodipodi:version="0.32"
   inkscape:version="0.45.1"
   sodipodi:docbase="C:\dev\src\houdini\support\icons\COP2"
   sodipodi:docname="colorreplace.svg"
   inkscape:output_extension="org.inkscape.output.svg.inkscape">
  <defs
     id="defs35693">
    <linearGradient
       gradientTransform="matrix(0,1.0410873,-1.0410045,0,119.09681,3969.971)"
       y2="78.168"
       x2="-3791.0291"
       y1="84.9106"
       x1="-3800.3145"
       gradientUnits="userSpaceOnUse"
       id="XMLID_267_">
				<stop
   id="stop30137"
   style="stop-color:#E86712"
   offset="0" />

				<stop
   id="stop30139"
   style="stop-color:#D52E0C"
   offset="0.6221" />

				<stop
   id="stop30141"
   style="stop-color:#CB1009"
   offset="1" />

				<a:midPointStop
   style="stop-color:#E86712"
   offset="0" />

				<a:midPointStop
   style="stop-color:#E86712"
   offset="0.4689" />

				<a:midPointStop
   style="stop-color:#CB1009"
   offset="1" />

			</linearGradient>
  </defs>
  <sodipodi:namedview
     id="base"
     pagecolor="#ffffff"
     bordercolor="#666666"
     borderopacity="1.0"
     inkscape:pageopacity="0.0"
     inkscape:pageshadow="2"
     inkscape:zoom="7"
     inkscape:cx="24"
     inkscape:cy="24"
     inkscape:current-layer="layer1"
     showgrid="true"
     inkscape:grid-bbox="true"
     inkscape:document-units="px"
     inkscape:window-width="744"
     inkscape:window-height="573"
     inkscape:window-x="66"
     inkscape:window-y="72" />
  <metadata
     id="metadata35696">
    <rdf:RDF>
      <cc:Work
         rdf:about="">
        <dc:format>image/svg+xml</dc:format>
        <dc:type
           rdf:resource="http://purl.org/dc/dcmitype/StillImage" />
      </cc:Work>
    </rdf:RDF>
  </metadata>
  <g
     id="layer1"
     inkscape:label="Layer 1"
     inkscape:groupmode="layer">
    <rect
       style="fill:#8ac92e;stroke:#1f400e;stroke-width:1.20000005"
       id="rect30128"
       height="19.328827"
       width="31.088558"
       i:knockout="Off"
       y="2.5670724"
       x="0.60000002" />
    <path
       style="fill:none;stroke:#ffffff;stroke-width:1.39999986"
       id="path30130"
       d="M 1.6410042,3.6081604 C 1.6410042,5.3655157 1.6410042,19.097457 1.6410042,20.854813 C 3.5189764,20.854813 28.769582,20.854813 30.647554,20.854813 C 30.647554,19.097457 30.647554,5.3655157 30.647554,3.6081604 C 28.769582,3.6081604 3.5189764,3.6081604 1.6410042,3.6081604 z "
       i:knockout="Off" />
    <rect
       style="fill:#f17912;stroke:#402005;stroke-width:1"
       id="rect30132"
       height="25.926197"
       width="41.698475"
       i:knockout="Off"
       y="20.182268"
       x="5.8123093" />
    <path
       style="fill:none;stroke:#ffffff;stroke-width:1.39999986"
       id="path30134"
       d="M 7.0511047,21.422205 C 7.0511047,23.658461 7.0511047,42.633318 7.0511047,44.869574 C 9.3475606,44.869574 43.975534,44.869574 46.270949,44.869574 C 46.270949,42.633318 46.270949,23.658461 46.270949,21.422205 C 43.976575,21.422205 9.3475606,21.422205 7.0511047,21.422205 z "
       i:knockout="Off" />
    <path
       style="fill:url(#XMLID_267_);stroke:#590b08;stroke-width:1.20000005"
       id="path30143"
       d="M 27.260125,17.403608 L 31.044177,17.403608 C 31.829094,17.403608 32.466189,18.039713 32.466189,18.824693 L 32.466189,22.358143 L 28.084601,22.358143 C 27.927409,22.357102 27.798325,22.488279 27.798325,22.645483 C 27.798325,22.724606 27.830596,22.797482 27.884728,22.847454 L 27.894097,22.858906 C 29.352544,24.359113 36.07431,32.210993 36.07431,32.210993 C 36.299167,32.436909 36.663519,32.436909 36.890458,32.210993 L 45.082122,22.847454 L 45.077958,22.854741 C 45.13209,22.801646 45.167485,22.727729 45.167485,22.645483 C 45.167485,22.488279 45.037359,22.358143 44.879126,22.358143 L 40.497538,22.358143 L 40.497538,15.784718 C 40.497538,12.357458 37.720138,9.5798373 34.293152,9.5798373 L 27.260125,9.5798373"
       i:knockout="Off" />
    <path
       style="fill:none;stroke:#ed2829;stroke-width:1"
       id="path30145"
       d="M 27.260125,10.214901 L 34.293152,10.214901 C 37.364115,10.214901 39.861485,12.712469 39.861485,15.784718 L 39.861485,22.995288 C 39.861485,22.995288 43.189576,22.995288 43.985945,22.995288 C 42.993867,23.90624 37.023706,31.226124 36.50945,31.697737 C 36.476138,31.72897 36.442826,31.725846 36.414719,31.698778 C 35.975415,31.27922 30.686071,24.684973 28.935101,22.995288 C 29.73147,22.995288 33.10016,22.995288 33.10016,22.995288 L 33.10016,18.825734 C 33.10016,17.690948 32.176789,16.767504 31.042095,16.767504 L 27.258043,16.767504"
       i:knockout="Off" />
  </g>
</svg>
