<?xml version="1.0" encoding="UTF-8" standalone="no"?>
<!-- Created with Inkscape (http://www.inkscape.org/) -->
<svg
   xmlns:dc="http://purl.org/dc/elements/1.1/"
   xmlns:cc="http://web.resource.org/cc/"
   xmlns:rdf="http://www.w3.org/1999/02/22-rdf-syntax-ns#"
   xmlns:svg="http://www.w3.org/2000/svg"
   xmlns="http://www.w3.org/2000/svg"
   xmlns:xlink="http://www.w3.org/1999/xlink"
   xmlns:sodipodi="http://sodipodi.sourceforge.net/DTD/sodipodi-0.dtd"
   xmlns:inkscape="http://www.inkscape.org/namespaces/inkscape"
   width="48px"
   height="48px"
   id="svg91423"
   sodipodi:version="0.32"
   inkscape:version="0.45.1"
   sodipodi:docbase="C:\dev\src\houdini\support\icons\COP2"
   sodipodi:docname="env.svg"
   inkscape:output_extension="org.inkscape.output.svg.inkscape">
  <defs
     id="defs91425">
    <linearGradient
       id="linearGradient97998">
      <stop
         id="stop98000"
         offset="0"
         style="stop-color:#eeeeec;stop-opacity:1" />
      <stop
         id="stop98002"
         offset="1"
         style="stop-color:#204a87;stop-opacity:1;" />
    </linearGradient>
    <linearGradient
       id="linearGradient97006">
      <stop
         id="stop97008"
         offset="0"
         style="stop-color:#0e57c1;stop-opacity:1;" />
      <stop
         id="stop97010"
         offset="1"
         style="stop-color:#6d9dce;stop-opacity:1;" />
    </linearGradient>
    <linearGradient
       id="linearGradient96996">
      <stop
         style="stop-color:#e9b96e;stop-opacity:1"
         offset="0"
         id="stop96998" />
      <stop
         style="stop-color:#c17d11;stop-opacity:1"
         offset="1"
         id="stop97000" />
    </linearGradient>
    <linearGradient
       id="linearGradient96968">
      <stop
         style="stop-color:#091526;stop-opacity:1;"
         offset="0"
         id="stop96970" />
      <stop
         style="stop-color:#204a87;stop-opacity:1"
         offset="1"
         id="stop96972" />
    </linearGradient>
    <linearGradient
       id="linearGradient96956">
      <stop
         style="stop-color:#ffffff;stop-opacity:1;"
         offset="0"
         id="stop96958" />
      <stop
         style="stop-color:#2e6cc5;stop-opacity:1;"
         offset="1"
         id="stop96960" />
    </linearGradient>
    <linearGradient
       inkscape:collect="always"
       xlink:href="#linearGradient96968"
       id="linearGradient96974"
       x1="-1.8571429"
       y1="-0.92857122"
       x2="-1.8571421"
       y2="48.642857"
       gradientUnits="userSpaceOnUse" />
    <linearGradient
       inkscape:collect="always"
       xlink:href="#linearGradient97006"
       id="linearGradient96982"
       gradientUnits="userSpaceOnUse"
       x1="22.714285"
       y1="10.821429"
       x2="22.500004"
       y2="36.392857"
       gradientTransform="matrix(-1,0,0,1,48.214286,0.3571434)" />
    <linearGradient
       inkscape:collect="always"
       xlink:href="#linearGradient96968"
       id="linearGradient96984"
       gradientUnits="userSpaceOnUse"
       x1="-1.8571429"
       y1="-0.92857122"
       x2="-1.8571421"
       y2="48.642857"
       gradientTransform="matrix(-1,0,0,1,48.214286,0.3571434)" />
    <radialGradient
       inkscape:collect="always"
       xlink:href="#linearGradient96996"
       id="radialGradient97002"
       cx="23.714285"
       cy="42.357142"
       fx="23.714285"
       fy="42.357142"
       r="24.714285"
       gradientTransform="matrix(0.9882005,0,0,0.2283237,0.708386,32.686002)"
       gradientUnits="userSpaceOnUse" />
    <radialGradient
       inkscape:collect="always"
       xlink:href="#linearGradient96956"
       id="radialGradient97996"
       cx="10.357143"
       cy="26.510506"
       fx="10.357143"
       fy="26.510506"
       r="5.6428576"
       gradientTransform="matrix(0.1943994,-4.703865,3.2058062,0.1324882,-76.643824,82.134847)"
       gradientUnits="userSpaceOnUse" />
    <radialGradient
       inkscape:collect="always"
       xlink:href="#linearGradient96956"
       id="radialGradient98004"
       cx="10"
       cy="36.67218"
       fx="10"
       fy="36.67218"
       r="14.035717"
       gradientTransform="matrix(1.9262085,3.0534345e-2,-3.0127201e-2,1.9005244,-8.1572547,-33.394572)"
       gradientUnits="userSpaceOnUse" />
  </defs>
  <sodipodi:namedview
     id="base"
     pagecolor="#ffffff"
     bordercolor="#666666"
     borderopacity="1.0"
     inkscape:pageopacity="0.0"
     inkscape:pageshadow="2"
     inkscape:zoom="7"
     inkscape:cx="24"
     inkscape:cy="24"
     inkscape:current-layer="layer1"
     showgrid="true"
     inkscape:grid-bbox="false"
     inkscape:document-units="px"
     inkscape:window-width="1352"
     inkscape:window-height="1099"
     inkscape:window-x="290"
     inkscape:window-y="5" />
  <metadata
     id="metadata91428">
    <rdf:RDF>
      <cc:Work
         rdf:about="">
        <dc:format>image/svg+xml</dc:format>
        <dc:type
           rdf:resource="http://purl.org/dc/dcmitype/StillImage" />
      </cc:Work>
    </rdf:RDF>
  </metadata>
  <g
     id="layer1"
     inkscape:label="Layer 1"
     inkscape:groupmode="layer">
    <rect
       style="opacity:1;color:#000000;fill:url(#radialGradient98004);fill-opacity:1.0;fill-rule:evenodd;stroke:#204a87;stroke-width:1.00000012px;stroke-linecap:butt;stroke-linejoin:miter;marker:none;marker-start:none;marker-mid:none;marker-end:none;stroke-miterlimit:4;stroke-dasharray:none;stroke-dashoffset:0;stroke-opacity:1;visibility:visible;display:inline;overflow:visible;enable-background:accumulate"
       id="rect96954"
       width="27.071434"
       height="26.928572"
       x="10.5"
       y="10.428571" />
    <path
       style="fill:#0a4eae;fill-rule:evenodd;stroke:#0b1b34;stroke-width:0.99999988px;stroke-linecap:butt;stroke-linejoin:bevel;stroke-opacity:1;fill-opacity:1"
       d="M 10.869301,10.285714 L 0.42857139,0.28571429 L 46.857142,0.28571429 L 36.71385,10.571429 L 10.869301,10.285714 z "
       id="path96964"
       sodipodi:nodetypes="ccccc" />
    <path
       style="fill:url(#radialGradient97996);fill-rule:evenodd;stroke:url(#linearGradient96974);stroke-width:1.00000012px;stroke-linecap:butt;stroke-linejoin:bevel;stroke-opacity:1;opacity:1;color:#000000;fill-opacity:1.0;marker:none;marker-start:none;marker-mid:none;marker-end:none;stroke-miterlimit:4;stroke-dasharray:none;stroke-dashoffset:0;visibility:visible;display:inline;overflow:visible;enable-background:accumulate"
       d="M 10.5,37.416414 L 0.49999994,47.142857 L 0.64285708,0.57142886 L 10.785715,10.143292 L 10.5,37.416414 z "
       id="path96966"
       sodipodi:nodetypes="ccccc" />
    <path
       style="opacity:1;color:#000000;fill:url(#linearGradient96982);fill-opacity:1;fill-rule:evenodd;stroke:url(#linearGradient96984);stroke-width:1.00000012px;stroke-linecap:butt;stroke-linejoin:bevel;marker:none;marker-start:none;marker-mid:none;marker-end:none;stroke-miterlimit:4;stroke-dasharray:none;stroke-dashoffset:0;stroke-opacity:1;visibility:visible;display:inline;overflow:visible;enable-background:accumulate"
       d="M 37.714286,37.773557 L 47.714286,47.5 L 47.714286,-0.0714277 L 37.428571,10.500435 L 37.714286,37.773557 z "
       id="path96980"
       sodipodi:nodetypes="ccccc" />
    <path
       style="fill:url(#radialGradient97002);fill-opacity:1;fill-rule:evenodd;stroke:#5e3900;stroke-width:0.99999994px;stroke-linecap:butt;stroke-linejoin:bevel;stroke-opacity:1"
       d="M 37.330379,37.5 L 48.071428,47.5 L 0.21428569,47.5 L 10.943751,37.214285 L 37.330379,37.5 z "
       id="path96986"
       sodipodi:nodetypes="ccccc" />
    <path
       style="fill:#fce94f;fill-rule:evenodd;stroke:#9a7e00;stroke-width:1px;stroke-linecap:butt;stroke-linejoin:miter;stroke-opacity:1"
       d="M 10.571429,25.428571 C 5.5884747,27.857142 3.8095239,38.142857 4.4285714,43.285714 L 10.714286,37.428571 L 21.142857,37.571428 C 21.18584,30.823433 16.336516,25.609501 10.571429,25.428571 z "
       id="path97004"
       sodipodi:nodetypes="ccccc" />
    <path
       style="fill:#cdb700;fill-opacity:1;fill-rule:evenodd;stroke:none;stroke-width:1px;stroke-linecap:butt;stroke-linejoin:miter;stroke-opacity:1"
       d="M 10.304434,26.036558 C 5.83162,29.575446 4.447372,36.78025 4.6995818,42.392012 L 10.285714,37.178289 L 10.304434,26.036558 z "
       id="path97012"
       sodipodi:nodetypes="cccc" />
    <path
       style="opacity:1;color:#000000;fill:#d3d7cf;fill-opacity:1;fill-rule:evenodd;stroke:#babdb6;stroke-width:1.00000012px;stroke-linecap:butt;stroke-linejoin:miter;marker:none;marker-start:none;marker-mid:none;marker-end:none;stroke-miterlimit:4;stroke-dasharray:none;stroke-dashoffset:0;stroke-opacity:1;visibility:visible;display:inline;overflow:visible;enable-background:accumulate"
       d="M 36.995536,14.424107 C 36.145848,14.424107 35.358208,14.652489 34.651786,15.017857 C 34.022131,14.57085 33.26346,14.299107 32.433036,14.299107 C 30.580626,14.299107 29.023091,15.588172 28.651786,17.330357 C 28.531276,17.314836 28.401498,17.299107 28.276786,17.299107 C 26.699643,17.299107 25.433036,18.565715 25.433036,20.142857 C 25.433036,21.72 26.699643,22.986608 28.276786,22.986607 C 28.738605,22.986607 29.17185,22.868934 29.558036,22.674107 C 29.988818,24.333835 31.482903,25.580357 33.276786,25.580357 C 34.270961,25.580357 35.186366,25.198786 35.870536,24.580357 C 36.234707,24.662236 36.606759,24.705357 36.995536,24.705357"
       id="path97014"
       sodipodi:nodetypes="ccccssscscs" />
    <path
       style="opacity:1;color:#000000;fill:#eeeeec;fill-opacity:1;fill-rule:evenodd;stroke:#babdb6;stroke-width:1.00000012px;stroke-linecap:butt;stroke-linejoin:miter;marker:none;marker-start:none;marker-mid:none;marker-end:none;stroke-miterlimit:4;stroke-dasharray:none;stroke-dashoffset:0;stroke-opacity:1;visibility:visible;display:inline;overflow:visible;enable-background:accumulate"
       d="M 36.933038,14.1591 C 37.499278,14.437864 38.024168,14.924654 38.494934,15.521783 C 38.914542,15.281352 39.420128,15.258513 39.97353,15.530957 C 41.207993,16.138693 42.245949,17.938752 42.49339,19.802754 C 42.573699,19.82677 42.660185,19.853618 42.743294,19.894533 C 43.794317,20.41196 44.638395,22.094114 44.638395,23.671256 C 44.638395,25.248399 43.794317,26.099461 42.743294,25.582033 C 42.435533,25.43052 42.146815,25.17071 41.889457,24.849183 C 41.60238,26.367581 40.606708,27.123925 39.411247,26.535391 C 38.74872,26.209224 38.138685,25.527328 37.682748,24.684438 C 37.440061,24.64684 37.192122,24.567899 36.933038,24.44035"
       id="path97023"
       sodipodi:nodetypes="ccccssscscs" />
    <path
       style="opacity:1;color:#000000;fill:#d3d7cf;fill-opacity:1;fill-rule:evenodd;stroke:#babdb6;stroke-width:1.00000012px;stroke-linecap:butt;stroke-linejoin:miter;marker:none;marker-start:none;marker-mid:none;marker-end:none;stroke-miterlimit:4;stroke-dasharray:none;stroke-dashoffset:0;stroke-opacity:1;visibility:visible;display:inline;overflow:visible;enable-background:accumulate"
       d="M 28.066964,2.4955357 C 27.072789,2.4955357 26.157384,2.6681511 25.473214,2.9479166 C 24.295407,2.8016623 23.268779,2.9674305 22.160714,3.1458333 C 21.531058,2.9436158 20.772388,2.8206845 19.941964,2.8206845 C 18.089555,2.8206845 16.532019,3.4038329 16.160714,4.1919641 C 16.040205,4.1849427 15.910426,4.1778272 15.785714,4.1778272 C 14.208572,4.1778272 12.941964,4.7508164 12.941964,5.4642854 C 12.941965,6.1777547 14.208571,6.750744 15.785714,6.7507435 C 16.247534,6.7507435 16.680778,6.6975105 17.066964,6.6093745 C 17.497747,7.360204 18.991831,7.9241063 20.785714,7.9241063 C 21.77989,7.9241063 22.695294,7.7514909 23.379464,7.4717254 C 24.557271,7.6179797 25.583899,7.4522115 26.691964,7.273809 C 27.321619,7.4760267 28.08029,7.5989575 28.910714,7.5989575 C 30.763124,7.598958 32.320659,7.0158093 32.691964,6.2276781 C 32.812474,6.2346995 32.942252,6.241815 33.066964,6.241815 C 34.644107,6.241815 35.910714,5.6688258 35.910714,4.9553568 C 35.910714,4.2418875 34.644107,3.6688982 33.066964,3.6688987 C 32.605145,3.6688987 32.1719,3.7221317 31.785714,3.8102677 C 31.354932,3.0594385 29.860847,2.4955357 28.066964,2.4955357 z "
       id="path98006"
       sodipodi:nodetypes="cccscssscsccscssscc" />
  </g>
</svg>
