<?xml version="1.0" encoding="UTF-8" standalone="no"?>
<!-- Created with Inkscape (http://www.inkscape.org/) -->
<svg
   xmlns:i="http://ns.adobe.com/AdobeIllustrator/10.0/"
   xmlns:a="http://ns.adobe.com/AdobeSVGViewerExtensions/3.0/"
   xmlns:dc="http://purl.org/dc/elements/1.1/"
   xmlns:cc="http://web.resource.org/cc/"
   xmlns:rdf="http://www.w3.org/1999/02/22-rdf-syntax-ns#"
   xmlns:svg="http://www.w3.org/2000/svg"
   xmlns="http://www.w3.org/2000/svg"
   xmlns:xlink="http://www.w3.org/1999/xlink"
   xmlns:sodipodi="http://sodipodi.sourceforge.net/DTD/sodipodi-0.dtd"
   xmlns:inkscape="http://www.inkscape.org/namespaces/inkscape"
   width="48px"
   height="48px"
   id="svg22450"
   sodipodi:version="0.32"
   inkscape:version="0.44"
   sodipodi:docbase="e:\dev_clean\src\houdini\support\icons\common"
   sodipodi:docname="file.svg">
  <defs
     id="defs22452"><linearGradient
   y2="479.5569"
   x2="248.4156"
   y1="455.6318"
   x1="219.1743"
   gradientUnits="userSpaceOnUse"
   id="XMLID_285_"
   gradientTransform="translate(-216.0158,-443.2193)">
				<stop
   id="stop20834"
   style="stop-color:#FFFFFF"
   offset="0" />

				<stop
   id="stop20836"
   style="stop-color:#FEF2DF"
   offset="0.0741" />

				<stop
   id="stop20838"
   style="stop-color:#FCD18F"
   offset="0.2353" />

				<stop
   id="stop20840"
   style="stop-color:#FAAF3E"
   offset="0.3876" />

				<stop
   id="stop20842"
   style="stop-color:#CE5C0B"
   offset="1" />

				<a:midPointStop
   style="stop-color:#FFFFFF"
   offset="0" />

				<a:midPointStop
   style="stop-color:#FFFFFF"
   offset="0.5294" />

				<a:midPointStop
   style="stop-color:#FAAF3E"
   offset="0.3876" />

				<a:midPointStop
   style="stop-color:#FAAF3E"
   offset="0.5" />

				<a:midPointStop
   style="stop-color:#CE5C0B"
   offset="1" />

			</linearGradient>
<linearGradient
   y2="481.38889"
   x2="252.5858"
   y1="459.7168"
   x1="222.84911"
   gradientUnits="userSpaceOnUse"
   id="XMLID_286_">
					<stop
   id="stop20849"
   style="stop-color:#FFFFFF"
   offset="0" />

					<stop
   id="stop20851"
   style="stop-color:#FEF2DF"
   offset="0.0741" />

					<stop
   id="stop20853"
   style="stop-color:#FCD18F"
   offset="0.2353" />

					<stop
   id="stop20855"
   style="stop-color:#FAAF3E"
   offset="0.3876" />

					<stop
   id="stop20857"
   style="stop-color:#CE5C0B"
   offset="1" />

					<a:midPointStop
   style="stop-color:#FFFFFF"
   offset="0" />

					<a:midPointStop
   style="stop-color:#FFFFFF"
   offset="0.5294" />

					<a:midPointStop
   style="stop-color:#FAAF3E"
   offset="0.3876" />

					<a:midPointStop
   style="stop-color:#FAAF3E"
   offset="0.5" />

					<a:midPointStop
   style="stop-color:#CE5C0B"
   offset="1" />

				</linearGradient>
<linearGradient
   y2="481.9611"
   x2="240.6321"
   y1="460.6748"
   x1="235.0557"
   gradientUnits="userSpaceOnUse"
   id="XMLID_287_"
   gradientTransform="translate(-216.0158,-443.2193)">
				<stop
   id="stop20862"
   style="stop-color:#FFFFFF"
   offset="0.3989" />

				<stop
   id="stop20864"
   style="stop-color:#FCFDFD"
   offset="0.5608" />

				<stop
   id="stop20866"
   style="stop-color:#F3F7F8"
   offset="0.6784" />

				<stop
   id="stop20868"
   style="stop-color:#E3ECEF"
   offset="0.7819" />

				<stop
   id="stop20870"
   style="stop-color:#CDDDE2"
   offset="0.8772" />

				<stop
   id="stop20872"
   style="stop-color:#B0CAD2"
   offset="0.9663" />

				<stop
   id="stop20874"
   style="stop-color:#A3C1CB"
   offset="1" />

				<a:midPointStop
   style="stop-color:#FFFFFF"
   offset="0.3989" />

				<a:midPointStop
   style="stop-color:#FFFFFF"
   offset="0.7684" />

				<a:midPointStop
   style="stop-color:#A3C1CB"
   offset="1" />

			</linearGradient>
<linearGradient
   gradientTransform="matrix(-0.5,-0.866,-0.866,0.5,382.8573,-1864.536)"
   y2="1282.3604"
   x2="-1949.2118"
   y1="1282.3604"
   x1="-1936.6489"
   gradientUnits="userSpaceOnUse"
   id="XMLID_288_">
					<stop
   id="stop20883"
   style="stop-color:#FAAF3E"
   offset="0" />

					<stop
   id="stop20885"
   style="stop-color:#E96712"
   offset="1" />

					<a:midPointStop
   style="stop-color:#FAAF3E"
   offset="0" />

					<a:midPointStop
   style="stop-color:#FAAF3E"
   offset="0.5" />

					<a:midPointStop
   style="stop-color:#E96712"
   offset="1" />

				</linearGradient>
<linearGradient
   y2="454.137"
   x2="225.8029"
   y1="453.4746"
   x1="225.6294"
   gradientUnits="userSpaceOnUse"
   id="XMLID_289_">
				<stop
   id="stop20898"
   style="stop-color:#FFFFFF"
   offset="0.3989" />

				<stop
   id="stop20900"
   style="stop-color:#FCFDFD"
   offset="0.5608" />

				<stop
   id="stop20902"
   style="stop-color:#F3F7F8"
   offset="0.6784" />

				<stop
   id="stop20904"
   style="stop-color:#E3ECEF"
   offset="0.7819" />

				<stop
   id="stop20906"
   style="stop-color:#CDDDE2"
   offset="0.8772" />

				<stop
   id="stop20908"
   style="stop-color:#B0CAD2"
   offset="0.9663" />

				<stop
   id="stop20910"
   style="stop-color:#A3C1CB"
   offset="1" />

				<a:midPointStop
   style="stop-color:#FFFFFF"
   offset="0.3989" />

				<a:midPointStop
   style="stop-color:#FFFFFF"
   offset="0.7684" />

				<a:midPointStop
   style="stop-color:#A3C1CB"
   offset="1" />

			</linearGradient>

				
				
					<linearGradient
   id="linearGradient22507"
   gradientUnits="userSpaceOnUse"
   x1="-1936.6489"
   y1="1282.3604"
   x2="-1949.2118"
   y2="1282.3604"
   gradientTransform="matrix(-0.5,-0.866,-0.866,0.5,382.8573,-1864.536)">
					<stop
   offset="0"
   style="stop-color:#FAAF3E"
   id="stop22509" />

					<stop
   offset="1"
   style="stop-color:#E96712"
   id="stop22511" />

					<a:midPointStop
   offset="0"
   style="stop-color:#FAAF3E" />

					<a:midPointStop
   offset="0.5"
   style="stop-color:#FAAF3E" />

					<a:midPointStop
   offset="1"
   style="stop-color:#E96712" />

				</linearGradient>

				
				
				
				
			<linearGradient
   inkscape:collect="always"
   xlink:href="#XMLID_288_"
   id="linearGradient22526"
   gradientUnits="userSpaceOnUse"
   gradientTransform="matrix(-0.5,-0.866,-0.866,0.5,166.8415,-2307.755)"
   x1="-1936.6489"
   y1="1282.3604"
   x2="-1949.2118"
   y2="1282.3604" />
<linearGradient
   inkscape:collect="always"
   xlink:href="#linearGradient22507"
   id="linearGradient22546"
   x1="28.8232"
   y1="11.715924"
   x2="35.565838"
   y2="20.470036"
   gradientUnits="userSpaceOnUse" />
</defs>
  <sodipodi:namedview
     id="base"
     pagecolor="#ffffff"
     bordercolor="#666666"
     borderopacity="1.0"
     inkscape:pageopacity="0.0"
     inkscape:pageshadow="2"
     inkscape:zoom="7"
     inkscape:cx="24"
     inkscape:cy="24"
     inkscape:current-layer="layer1"
     showgrid="true"
     inkscape:grid-bbox="true"
     inkscape:document-units="px"
     inkscape:window-width="853"
     inkscape:window-height="539"
     inkscape:window-x="284"
     inkscape:window-y="244" />
  
  <g
     id="layer1"
     inkscape:label="Layer 1"
     inkscape:groupmode="layer">
    <path
       style="fill:url(#XMLID_285_);stroke:#7f390b;stroke-width:1.5;stroke-linecap:round;stroke-linejoin:round;stroke-miterlimit:4;stroke-dasharray:none"
       id="path20844"
       d="M 17.772199,9.8877143 L 33.096199,6.6827143 C 33.568199,6.5907143 33.985199,6.9037143 34.028199,7.3837143 L 36.403199,34.863714 C 36.445199,35.343714 36.096199,35.807714 35.625199,35.900714 L 4.6901986,43.888714 C 4.2171986,43.980714 3.8021986,43.667714 3.7601986,43.187714 L 1.2871986,13.933714 C 1.2771986,13.812714 1.2921986,13.691714 1.3281986,13.577714 L 3.0751986,9.0297143 L 15.056199,6.7327143 L 17.772199,9.8877143 z "
       i:knockout="Off" />
    <g
       transform="translate(-216.0158,-443.2193)"
       id="g20846"
       i:knockout="Off">
				<linearGradient
   y2="481.38889"
   x2="252.5858"
   y1="459.7168"
   x1="222.84911"
   gradientUnits="userSpaceOnUse"
   id="linearGradient22491">
					<stop
   id="stop22493"
   style="stop-color:#FFFFFF"
   offset="0" />

					<stop
   id="stop22495"
   style="stop-color:#FEF2DF"
   offset="0.0741" />

					<stop
   id="stop22497"
   style="stop-color:#FCD18F"
   offset="0.2353" />

					<stop
   id="stop22499"
   style="stop-color:#FAAF3E"
   offset="0.3876" />

					<stop
   id="stop22501"
   style="stop-color:#CE5C0B"
   offset="1" />

					<a:midPointStop
   style="stop-color:#FFFFFF"
   offset="0" />

					<a:midPointStop
   style="stop-color:#FFFFFF"
   offset="0.5294" />

					<a:midPointStop
   style="stop-color:#FAAF3E"
   offset="0.3876" />

					<a:midPointStop
   style="stop-color:#FAAF3E"
   offset="0.5" />

					<a:midPointStop
   style="stop-color:#CE5C0B"
   offset="1" />

				</linearGradient>

				<path
   style="fill:url(#XMLID_286_)"
   id="path20859"
   d="M 249.036,450.202 C 249.036,450.202 234.205,453.303 233.733,453.4 C 233.446,453.067 231.039,450.267 231.039,450.267 L 219.328,452.512 L 217.605,456.996 L 217.603,457.089 L 217.597,457.146 L 220.051,486.262 C 220.05,486.261 220.284,486.704 220.284,486.704 C 220.288,486.708 220.778,486.809 220.778,486.809 L 251.476,478.883 C 251.865,478.805 252.16,478.426 252.124,478.027 L 249.767,450.749 C 249.767,450.747 249.533,450.306 249.533,450.306 C 249.527,450.302 249.037,450.201 249.037,450.201 L 248.951,450.184 L 249.036,450.202 z M 233.662,454.276 C 233.662,454.276 248.458,451.183 248.952,451.08 C 248.995,451.583 251.287,478.101 251.287,478.101 C 251.287,478.101 221.41,485.78 220.868,485.918 C 220.822,485.378 218.442,457.22 218.438,457.177 C 218.484,457.056 219.798,453.638 219.947,453.251 C 220.309,453.182 230.262,451.273 230.718,451.187 C 230.999,451.515 233.418,454.327 233.418,454.327 L 233.662,454.276 z "
   i:knockout="Off" />

			</g>
    <path
       style="fill:url(#XMLID_287_);stroke:#525b66;stroke-width:1.5;stroke-miterlimit:4;stroke-dasharray:none"
       id="path20876"
       d="M 36.648199,34.800714 C 36.581199,35.280714 36.122199,35.774714 35.625199,35.902714 L 4.6901986,43.890714 C 4.1931986,44.018714 3.8441986,43.736714 3.9111986,43.254714 L 6.9931986,21.333714 C 7.0591986,20.854714 7.5181986,20.360714 8.0161986,20.231714 L 38.950199,12.243714 C 39.446199,12.116714 39.796199,12.401714 39.729199,12.880714 L 36.648199,34.800714 z "
       i:knockout="Off" />
    <path
       i:knockout="Off"
       d="M 32.5902,26.2507 L 28.4492,19.0757 C 28.4492,19.0757 26.7192,16.9187 24.2262,16.0657 C 19.6672,14.5047 15.3232,15.9427 15.3232,15.9427 L 22.9902,13.4067 C 22.9902,13.4067 28.6672,11.3847 34.7442,12.7417 C 38.5872,13.5997 40.1392,15.8837 40.1392,15.8837 L 42.7412,20.3907 L 32.5902,26.2507 z "
       id="path20887"
       style="fill:url(#linearGradient22526)" />
    <path
       id="path20880"
       style="fill:url(#linearGradient22546);stroke:#590b08;stroke-width:1;stroke-miterlimit:4;fill-opacity:1.0"
       d="M 41.309325,18.470004 L 46.7252,15.9957 C 46.9782,15.9177 47.2522,16.0597 47.3302,16.3157 C 47.3702,16.4447 47.3522,16.5817 47.2912,16.6937 L 47.2932,16.6827 L 40.1292,30.4917 C 39.8792,30.9657 39.2912,31.1477 38.8182,30.8977 C 38.8182,30.8977 25.0982,23.5697 25.1192,23.5817 L 25.0982,23.5697 C 24.9862,23.5157 24.8972,23.4137 24.8582,23.2887 C 24.7792,23.0337 24.9242,22.7597 25.1782,22.6827 L 29.629021,21.064593 C 26.892165,15.425669 20.61226,14.944707 15.9242,15.7147 C 15.6622,15.7867 15.4572,15.8667 15.3232,15.9437 L 22.9902,13.4077 C 26.5842,12.1667 37.139754,10.017146 41.309325,18.470004 z "
       sodipodi:nodetypes="ccsccccccsccsccc" />
    <line
       i:knockout="Off"
       x1="39.5"
       y1="30.003988"
       x2="26.125"
       y2="22.866995"
       id="line20891"
       style="fill:none;stroke:#faaf3e" />
    <line
       i:knockout="Off"
       x1="30.430199"
       y1="20.884705"
       x2="29.192192"
       y2="18.866699"
       id="line20893"
       style="fill:none;stroke:#faaf3e" />
    <path
       style="fill:none;stroke:#faaf3e;stroke-linecap:round"
       id="path20895"
       d="M 29.192199,18.866714 C 27.637199,16.393714 25.77877,15.251714 20.659056,14.681714"
       i:knockout="Off"
       sodipodi:nodetypes="cc" />
    <line
       style="fill:url(#XMLID_289_);stroke:#faaf3e;stroke-width:2"
       id="line20912"
       y2="9.6067028"
       x2="14.7992"
       y1="11.564711"
       x1="4.6012025"
       i:knockout="Off" />
  </g>
</svg>
