<?xml version="1.0" encoding="UTF-8" standalone="no"?>
<!-- Created with Inkscape (http://www.inkscape.org/) -->
<svg
   xmlns:i="http://ns.adobe.com/AdobeIllustrator/10.0/"
   xmlns:dc="http://purl.org/dc/elements/1.1/"
   xmlns:cc="http://web.resource.org/cc/"
   xmlns:rdf="http://www.w3.org/1999/02/22-rdf-syntax-ns#"
   xmlns:svg="http://www.w3.org/2000/svg"
   xmlns="http://www.w3.org/2000/svg"
   xmlns:xlink="http://www.w3.org/1999/xlink"
   xmlns:sodipodi="http://sodipodi.sourceforge.net/DTD/sodipodi-0.dtd"
   xmlns:inkscape="http://www.inkscape.org/namespaces/inkscape"
   width="48px"
   height="48px"
   id="svg34360"
   sodipodi:version="0.32"
   inkscape:version="0.45.1"
   sodipodi:docbase="C:\dev\src\houdini\support\icons\COP2"
   sodipodi:docname="flip.svg"
   inkscape:output_extension="org.inkscape.output.svg.inkscape">
  <defs
     id="defs34362">
    <linearGradient
       id="linearGradient5063">
      <stop
         style="stop-color:#636363;stop-opacity:1;"
         offset="0"
         id="stop5065" />
      <stop
         style="stop-color:#bdbdbd;stop-opacity:1;"
         offset="1"
         id="stop5067" />
    </linearGradient>
    <linearGradient
       id="linearGradient3973">
      <stop
         style="stop-color:#ff5353;stop-opacity:1;"
         offset="0"
         id="stop3975" />
      <stop
         style="stop-color:#a40000;stop-opacity:1"
         offset="1"
         id="stop3977" />
    </linearGradient>
    <clipPath
       id="XMLID_26_">
      <use
         height="50.691002"
         width="48.25"
         y="0"
         x="0"
         id="use34153"
         xlink:href="#XMLID_11_" />
    </clipPath>
    <clipPath
       id="XMLID_23_">
      <use
         height="50.691002"
         width="48.25"
         y="0"
         x="0"
         id="use34139"
         xlink:href="#XMLID_9_" />
    </clipPath>
    <clipPath
       id="XMLID_20_">
      <use
         height="50.691002"
         width="48.25"
         y="0"
         x="0"
         id="use34125"
         xlink:href="#XMLID_7_" />
    </clipPath>
    <clipPath
       id="XMLID_16_">
      <use
         height="50.691002"
         width="48.25"
         y="0"
         x="0"
         id="use34103"
         xlink:href="#XMLID_3_" />
    </clipPath>
    <clipPath
       id="XMLID_13_">
      <use
         height="50.691002"
         width="48.25"
         y="0"
         x="0"
         id="use34089"
         xlink:href="#XMLID_1_" />
    </clipPath>
    <defs
       id="defs34085">
      <path
         id="XMLID_1_"
         d="M 15.217,30.177 C 14.803,32.575 20.574,34.752 30.084,33.301 L 27.114,30.247 L 39.174,31.449 L 38.236,41.738 L 34.848,38.273 C 14.392,43.152 6.111,33.006 8.826,30.292 L 15.217,30.177 z " />
    </defs>
    <clipPath
       id="clipPath34383">
      <use
         xlink:href="#XMLID_1_"
         id="use34385"
         x="0"
         y="0"
         width="48.25"
         height="50.691002" />
    </clipPath>
    <linearGradient
       inkscape:collect="always"
       xlink:href="#linearGradient3973"
       id="linearGradient3979"
       x1="18.285715"
       y1="36.602879"
       x2="39.285713"
       y2="33.142857"
       gradientUnits="userSpaceOnUse" />
    <defs
       id="defs34099">
      <rect
         id="XMLID_3_"
         x="1.549"
         y="12.917"
         width="19.794001"
         height="9.6800003" />
    </defs>
    <clipPath
       id="clipPath34394">
      <use
         xlink:href="#XMLID_3_"
         id="use34396"
         x="0"
         y="0"
         width="48.25"
         height="50.691002" />
    </clipPath>
    <defs
       id="defs34107">
      <path
         d="M 1.549,18.265 C 1.549,19.888 5.085,21.925 8.167,21.925 C 12.832,21.925 13.98,18.895 16.289,18.895 L 21.343,22.542 C 21.343,22.542 19.49,19.981 19.49,17.948 C 19.49,15.915 21.343,13.353 21.343,13.353 L 16.289,17.003 C 15.424,17.003 11.643,14.468 8.379,14.468 C 5.406,14.468 1.549,17.179 1.549,18.265"
         id="XMLID_5_" />
    </defs>
    <clipPath
       id="clipPath34401">
      <use
         height="50.691002"
         width="48.25"
         y="0"
         x="0"
         id="use34403"
         xlink:href="#XMLID_5_" />
    </clipPath>
    <defs
       id="defs34135">
      <path
         d="M 4.754,21.208 C 5.696,22.151 6.464,22.329 7.461,22.597 C 6.797,22.106 6.107,21.682 6.59,21.763"
         id="XMLID_9_" />
    </defs>
    <clipPath
       id="clipPath34423">
      <use
         height="50.691002"
         width="48.25"
         y="0"
         x="0"
         id="use34425"
         xlink:href="#XMLID_9_" />
    </clipPath>
    <defs
       id="defs34149">
      <path
         d="M 10.741,21.562 C 11.838,21.795 11.956,21.879 14.658,20.452 C 14.287,20.452 13.264,20.308 13.868,19.897"
         id="XMLID_11_" />
    </defs>
    <clipPath
       id="clipPath34434">
      <use
         height="50.691002"
         width="48.25"
         y="0"
         x="0"
         id="use34436"
         xlink:href="#XMLID_11_" />
    </clipPath>
    <defs
       id="defs34121">
      <path
         d="M 8.379,14.468 C 9.024,14.562 12.703,12.98 13.207,12.919 C 13.714,12.854 10.968,14.896 11.885,15.196"
         id="XMLID_7_" />
    </defs>
    <clipPath
       id="clipPath34412">
      <use
         height="50.691002"
         width="48.25"
         y="0"
         x="0"
         id="use34414"
         xlink:href="#XMLID_7_" />
    </clipPath>
    <radialGradient
       inkscape:collect="always"
       xlink:href="#linearGradient5063"
       id="radialGradient5069"
       cx="8.2857141"
       cy="17"
       fx="8.2857141"
       fy="17"
       r="10.53125"
       gradientTransform="matrix(1.379822,0,0,0.4896884,-3.1470962,8.6752976)"
       gradientUnits="userSpaceOnUse" />
  </defs>
  <sodipodi:namedview
     id="base"
     pagecolor="#ffffff"
     bordercolor="#666666"
     borderopacity="1.0"
     inkscape:pageopacity="0.0"
     inkscape:pageshadow="2"
     inkscape:zoom="7"
     inkscape:cx="24"
     inkscape:cy="24"
     inkscape:current-layer="layer1"
     showgrid="true"
     inkscape:grid-bbox="true"
     inkscape:document-units="px"
     inkscape:window-width="744"
     inkscape:window-height="573"
     inkscape:window-x="682"
     inkscape:window-y="302" />
  <metadata
     id="metadata34365">
    <rdf:RDF>
      <cc:Work
         rdf:about="">
        <dc:format>image/svg+xml</dc:format>
        <dc:type
           rdf:resource="http://purl.org/dc/dcmitype/StillImage" />
      </cc:Work>
    </rdf:RDF>
  </metadata>
  <g
     id="layer1"
     inkscape:label="Layer 1"
     inkscape:groupmode="layer">
    <path
       style="fill:url(#linearGradient3979);stroke:#590c08;stroke-width:0.5;fill-opacity:1.0"
       id="path34175"
       d="M 14.511868,30.448208 C 14.071189,33.00143 20.214088,35.319347 30.336938,33.774424 L 27.175543,30.522739 L 40.012722,31.802544 L 39.014275,42.75755 L 35.407943,39.068261 C 13.633703,44.263078 4.8190531,33.460328 7.709015,30.570651 L 14.511868,30.448208 z "
       i:knockout="Off" />
    <line
       style="fill:none;stroke:#6c7680;stroke-width:0.69999999"
       id="line34161"
       y2="28.805332"
       x2="23.956665"
       y1="5.5601459"
       x1="23.956665"
       i:knockout="Off" />
    <path
       d="M 35.53125 12 C 34.991576 11.931857 37.912529 14.114887 36.9375 14.4375 C 34.734647 15.234664 32.84313 16.375689 32.25 16.375 L 26.875 12.46875 C 26.875 12.46875 28.843749 15.210404 28.84375 17.375 C 28.84375 19.539596 26.875 22.249999 26.875 22.25 L 32.25 18.375 C 33.203996 18.375 34.001874 18.873689 34.875 19.46875 C 35.420823 19.881635 34.386075 20.031251 34 20.03125 C 36.878253 21.55062 36.989623 21.464703 38.15625 21.21875 C 38.932006 21.456787 39.828887 21.593288 40.90625 21.59375 C 41.55875 21.59375 42.217615 21.494815 42.875 21.34375 L 42.59375 21.4375 C 43.108941 21.350192 42.364103 21.790783 41.65625 22.3125 C 42.717499 22.027152 43.527479 21.848857 44.53125 20.84375 C 46.45275 20.057431 47.9375 18.805633 47.9375 17.71875 C 47.9375 16.562453 43.851026 13.65625 40.6875 13.65625 C 39.999872 13.7574 36.064536 12.067078 35.53125 12 z "
       id="path34163" />
    <path
       style="fill:none;stroke:#ec2628;stroke-width:1"
       id="path34173"
       d="M 13.725245,30.311922 C 13.629445,30.868776 13.691183,31.715236 14.531028,32.570214 C 16.821709,34.908361 23.074245,35.692002 30.458284,34.563389 L 31.982566,34.329148 C 31.982566,34.329148 29.604601,31.891981 29.128795,31.399011 L 39.142008,32.568085 C 39.033435,33.751 38.579982,38.739259 38.376674,40.96561 C 37.307973,39.872132 35.662345,38.187729 35.662345,38.187729 L 35.22273,38.294202 C 19.641418,42.01011 10.662843,37.418994 8.432836,33.424128 C 7.8835836,32.441382 7.8239748,31.586404 8.2742341,31.137088"
       i:knockout="Off" />
    <path
       d="M 12.875,11.844531 C 13.414674,11.776388 10.493721,13.959418 11.46875,14.282031 C 13.671603,15.079195 15.56312,16.22022 16.15625,16.219531 L 21.53125,12.313281 C 21.53125,12.313281 19.562501,15.054935 19.5625,17.219531 C 19.5625,19.384127 21.53125,22.09453 21.53125,22.094531 L 16.15625,18.219531 C 15.202254,18.219531 14.404376,18.71822 13.53125,19.313281 C 12.985427,19.726166 14.020175,19.875782 14.40625,19.875781 C 11.527997,21.395151 11.416627,21.309234 10.25,21.063281 C 9.4742441,21.301318 8.5773631,21.437819 7.5000001,21.438281 C 6.8475001,21.438281 6.1886351,21.339346 5.5312501,21.188281 L 5.8125001,21.282031 C 5.2973091,21.194723 6.0421471,21.635314 6.7500001,22.157031 C 5.6887511,21.871683 4.8787711,21.693388 3.8750001,20.688281 C 1.9535001,19.901962 0.46875014,18.650164 0.46875014,17.563281 C 0.46875014,16.406984 4.5552241,13.500781 7.7187501,13.500781 C 8.4063781,13.601931 12.341714,11.911609 12.875,11.844531 z "
       id="path5061"
       style="fill-opacity:1.0;fill:url(#radialGradient5069)" />
  </g>
</svg>
