<?xml version="1.0" encoding="UTF-8" standalone="no"?>
<!-- Created with Inkscape (http://www.inkscape.org/) -->
<svg
   xmlns:i="http://ns.adobe.com/AdobeIllustrator/10.0/"
   xmlns:a="http://ns.adobe.com/AdobeSVGViewerExtensions/3.0/"
   xmlns:dc="http://purl.org/dc/elements/1.1/"
   xmlns:cc="http://web.resource.org/cc/"
   xmlns:rdf="http://www.w3.org/1999/02/22-rdf-syntax-ns#"
   xmlns:svg="http://www.w3.org/2000/svg"
   xmlns="http://www.w3.org/2000/svg"
   xmlns:sodipodi="http://sodipodi.sourceforge.net/DTD/sodipodi-0.dtd"
   xmlns:inkscape="http://www.inkscape.org/namespaces/inkscape"
   width="48px"
   height="48px"
   id="svg55403"
   sodipodi:version="0.32"
   inkscape:version="0.45.1"
   sodipodi:docbase="C:\dev\src\houdini\support\icons\COP2"
   sodipodi:docname="mask.svg"
   inkscape:output_extension="org.inkscape.output.svg.inkscape">
  <defs
     id="defs55405">
    <radialGradient
       gradientUnits="userSpaceOnUse"
       gradientTransform="matrix(0.9761,0,0,1.072,63.231271,-577.406)"
       fy="543.96478"
       fx="-60.088402"
       r="53.7915"
       cy="543.96478"
       cx="-60.088402"
       id="XMLID_1729_">
						<stop
   id="stop22405"
   style="stop-color:#FFFFFF"
   offset="0.0056" />

						<stop
   id="stop22407"
   style="stop-color:#FDFDFE"
   offset="0.0106" />

						<stop
   id="stop22409"
   style="stop-color:#BFCFE2"
   offset="0.1467" />

						<stop
   id="stop22411"
   style="stop-color:#8CA9CA"
   offset="0.2771" />

						<stop
   id="stop22413"
   style="stop-color:#648CB8"
   offset="0.3987" />

						<stop
   id="stop22415"
   style="stop-color:#4877AB"
   offset="0.5093" />

						<stop
   id="stop22417"
   style="stop-color:#366AA3"
   offset="0.6053" />

						<stop
   id="stop22419"
   style="stop-color:#3065A0"
   offset="0.676" />

						<stop
   id="stop22421"
   style="stop-color:#224987"
   offset="1" />

						<a:midPointStop
   style="stop-color:#FFFFFF"
   offset="0.0056" />

						<a:midPointStop
   style="stop-color:#FFFFFF"
   offset="0.3583" />

						<a:midPointStop
   style="stop-color:#3065A0"
   offset="0.676" />

						<a:midPointStop
   style="stop-color:#3065A0"
   offset="0.4941" />

						<a:midPointStop
   style="stop-color:#224987"
   offset="1" />

					</radialGradient>
    <radialGradient
       gradientUnits="userSpaceOnUse"
       gradientTransform="matrix(0.6632,0,0,1,960.42357,-417.977)"
       fy="438.88281"
       fx="-1427.709"
       r="42.476002"
       cy="438.88281"
       cx="-1427.709"
       id="XMLID_1730_">
						<stop
   id="stop22426"
   style="stop-color:#FADCA0"
   offset="0.0056" />

						<stop
   id="stop22428"
   style="stop-color:#FAC371"
   offset="0.7933" />

						<stop
   id="stop22430"
   style="stop-color:#D1B239"
   offset="1" />

						<a:midPointStop
   style="stop-color:#FADCA0"
   offset="0.0056" />

						<a:midPointStop
   style="stop-color:#FADCA0"
   offset="0.5" />

						<a:midPointStop
   style="stop-color:#FAC371"
   offset="0.7933" />

						<a:midPointStop
   style="stop-color:#FAC371"
   offset="0.4941" />

						<a:midPointStop
   style="stop-color:#D1B239"
   offset="1" />

					</radialGradient>
    <radialGradient
       gradientUnits="userSpaceOnUse"
       gradientTransform="matrix(1,0,0,0.6632,-3.0354286,298.1053)"
       fy="-443.39651"
       fx="8.2852001"
       r="85.771301"
       cy="-443.39651"
       cx="8.2852001"
       id="XMLID_1731_">
						<stop
   id="stop22435"
   style="stop-color:#FADCA0"
   offset="0.0056" />

						<stop
   id="stop22437"
   style="stop-color:#FAC371"
   offset="0.7933" />

						<stop
   id="stop22439"
   style="stop-color:#D1B239"
   offset="1" />

						<a:midPointStop
   style="stop-color:#FADCA0"
   offset="0.0056" />

						<a:midPointStop
   style="stop-color:#FADCA0"
   offset="0.5" />

						<a:midPointStop
   style="stop-color:#FAC371"
   offset="0.7933" />

						<a:midPointStop
   style="stop-color:#FAC371"
   offset="0.4941" />

						<a:midPointStop
   style="stop-color:#D1B239"
   offset="1" />

					</radialGradient>
    <radialGradient
       gradientUnits="userSpaceOnUse"
       gradientTransform="matrix(0.6632,0,0,1,992.60123,-417.977)"
       fy="422.95609"
       fx="-1433.1289"
       r="29.149"
       cy="422.95609"
       cx="-1433.1289"
       id="XMLID_1732_">
						<stop
   id="stop22444"
   style="stop-color:#FADCA0"
   offset="0.0056" />

						<stop
   id="stop22446"
   style="stop-color:#FAC371"
   offset="0.7933" />

						<stop
   id="stop22448"
   style="stop-color:#D1B239"
   offset="1" />

						<a:midPointStop
   style="stop-color:#FADCA0"
   offset="0.0056" />

						<a:midPointStop
   style="stop-color:#FADCA0"
   offset="0.5" />

						<a:midPointStop
   style="stop-color:#FAC371"
   offset="0.7933" />

						<a:midPointStop
   style="stop-color:#FAC371"
   offset="0.4941" />

						<a:midPointStop
   style="stop-color:#D1B239"
   offset="1" />

					</radialGradient>
    <radialGradient
       gradientUnits="userSpaceOnUse"
       gradientTransform="matrix(1,0,0,0.6632,-3.0354286,322.7093)"
       fy="-432.7178"
       fx="4.1040001"
       r="33.545502"
       cy="-432.7178"
       cx="4.1040001"
       id="XMLID_1733_">
						<stop
   id="stop22453"
   style="stop-color:#FADCA0"
   offset="0.0056" />

						<stop
   id="stop22455"
   style="stop-color:#FAC371"
   offset="0.7933" />

						<stop
   id="stop22457"
   style="stop-color:#D1B239"
   offset="1" />

						<a:midPointStop
   style="stop-color:#FADCA0"
   offset="0.0056" />

						<a:midPointStop
   style="stop-color:#FADCA0"
   offset="0.5" />

						<a:midPointStop
   style="stop-color:#FAC371"
   offset="0.7933" />

						<a:midPointStop
   style="stop-color:#FAC371"
   offset="0.4941" />

						<a:midPointStop
   style="stop-color:#D1B239"
   offset="1" />

					</radialGradient>
    <linearGradient
       y2="441.0585"
       x2="36.289101"
       y1="436.8418"
       x1="-18.289101"
       gradientUnits="userSpaceOnUse"
       id="XMLID_1734_"
       gradientTransform="translate(-3.0354286,-417.977)">
						<stop
   id="stop22462"
   style="stop-color:#FFFFFF"
   offset="0.0056" />

						<stop
   id="stop22464"
   style="stop-color:#FDFDFE"
   offset="0.0106" />

						<stop
   id="stop22466"
   style="stop-color:#BFCFE2"
   offset="0.1467" />

						<stop
   id="stop22468"
   style="stop-color:#8CA9CA"
   offset="0.2771" />

						<stop
   id="stop22470"
   style="stop-color:#648CB8"
   offset="0.3987" />

						<stop
   id="stop22472"
   style="stop-color:#4877AB"
   offset="0.5093" />

						<stop
   id="stop22474"
   style="stop-color:#366AA3"
   offset="0.6053" />

						<stop
   id="stop22476"
   style="stop-color:#3065A0"
   offset="0.676" />

						<stop
   id="stop22478"
   style="stop-color:#224987"
   offset="1" />

						<a:midPointStop
   style="stop-color:#FFFFFF"
   offset="0.0056" />

						<a:midPointStop
   style="stop-color:#FFFFFF"
   offset="0.3583" />

						<a:midPointStop
   style="stop-color:#3065A0"
   offset="0.676" />

						<a:midPointStop
   style="stop-color:#3065A0"
   offset="0.4941" />

						<a:midPointStop
   style="stop-color:#224987"
   offset="1" />

					</linearGradient>
    <radialGradient
       gradientUnits="userSpaceOnUse"
       gradientTransform="matrix(1,0,0,0.6633,0,731.3386)"
       fy="-434.7305"
       fx="29.465799"
       r="16.2833"
       cy="-434.7305"
       cx="29.465799"
       id="XMLID_1735_">
						<stop
   id="stop22483"
   style="stop-color:#FAC87D"
   offset="0.0056" />

						<stop
   id="stop22485"
   style="stop-color:#F19648"
   offset="0.6648" />

						<stop
   id="stop22487"
   style="stop-color:#CE793E"
   offset="1" />

						<a:midPointStop
   style="stop-color:#FAC87D"
   offset="0.0056" />

						<a:midPointStop
   style="stop-color:#FAC87D"
   offset="0.5" />

						<a:midPointStop
   style="stop-color:#F19648"
   offset="0.6648" />

						<a:midPointStop
   style="stop-color:#F19648"
   offset="0.4941" />

						<a:midPointStop
   style="stop-color:#CE793E"
   offset="1" />

					</radialGradient>
    <radialGradient
       gradientUnits="userSpaceOnUse"
       gradientTransform="matrix(0.6632,0,0,0.8677,976.14527,-131.5462)"
       fy="179.34911"
       fx="-1434.1582"
       r="21.2535"
       cy="179.34911"
       cx="-1434.1582"
       id="XMLID_1736_">
						<stop
   id="stop22492"
   style="stop-color:#FAC87D"
   offset="0.0056" />

						<stop
   id="stop22494"
   style="stop-color:#F19648"
   offset="0.6648" />

						<stop
   id="stop22496"
   style="stop-color:#CE793E"
   offset="1" />

						<a:midPointStop
   style="stop-color:#FAC87D"
   offset="0.0056" />

						<a:midPointStop
   style="stop-color:#FAC87D"
   offset="0.5" />

						<a:midPointStop
   style="stop-color:#F19648"
   offset="0.6648" />

						<a:midPointStop
   style="stop-color:#F19648"
   offset="0.4941" />

						<a:midPointStop
   style="stop-color:#CE793E"
   offset="1" />

					</radialGradient>
  </defs>
  <sodipodi:namedview
     id="base"
     pagecolor="#ffffff"
     bordercolor="#666666"
     borderopacity="1.0"
     inkscape:pageopacity="0.0"
     inkscape:pageshadow="2"
     inkscape:zoom="7"
     inkscape:cx="24"
     inkscape:cy="24"
     inkscape:current-layer="layer1"
     showgrid="true"
     inkscape:grid-bbox="true"
     inkscape:document-units="px"
     inkscape:window-width="744"
     inkscape:window-height="573"
     inkscape:window-x="132"
     inkscape:window-y="144" />
  <metadata
     id="metadata55408">
    <rdf:RDF>
      <cc:Work
         rdf:about="">
        <dc:format>image/svg+xml</dc:format>
        <dc:type
           rdf:resource="http://purl.org/dc/dcmitype/StillImage" />
      </cc:Work>
    </rdf:RDF>
  </metadata>
  <g
     id="layer1"
     inkscape:label="Layer 1"
     inkscape:groupmode="layer">
    <g
       transform="translate(-3.0354286,-417.977)"
       id="g22390">
						<path
   style="fill:none;stroke:#665019;stroke-width:1.20000005"
   id="path22392"
   d="M 6.145,419.89 L 6.145,465.128 L 7.051,465.377 L 7.545,464.755 L 8.863,464.755 L 9.522,465.128 L 10.676,464.88 L 11.829,465.003 L 12.406,464.507 L 12.406,420.013 L 11.583,419.268 L 10.676,420.013 L 9.522,420.137 L 8.945,419.766 L 8.039,420.262 C 8.039,420.262 8.205,420.262 7.545,420.137 C 6.886,420.013 6.886,420.013 6.886,420.013 L 6.145,419.89 z "
   i:knockout="Off" />

						<path
   style="fill:none;stroke:#665019;stroke-width:1.20000005"
   id="path22394"
   d="M 49.551,421.288 L 4.313,421.288 L 4.064,422.195 L 4.685,422.689 L 4.685,424.008 L 4.313,424.668 L 4.561,425.821 L 4.437,426.974 L 4.935,427.551 L 49.427,427.551 L 50.173,426.726 L 49.427,425.821 L 49.302,424.668 L 49.675,424.09 L 49.179,423.183 C 49.179,423.183 49.18,423.349 49.302,422.689 C 49.427,422.031 49.427,422.031 49.427,422.031 L 49.551,421.288 z "
   i:knockout="Off" />

						<path
   style="fill:none;stroke:#665019;stroke-width:1.20000005"
   id="path22396"
   d="M 41.889,451.774 L 41.889,419.64 L 42.466,419.143 L 43.619,419.267 L 44.773,419.019 L 45.431,419.391 L 46.752,419.391 L 47.245,418.77 L 48.151,419.019 C 48.151,419.019 48.151,440.945 48.151,444.015 C 48.152,445.675 41.889,451.774 41.889,451.774 z "
   i:knockout="Off" />

						<path
   style="fill:none;stroke:#665019;stroke-width:1.20000005"
   id="path22398"
   d="M 26.668,463.195 C 24.867,463.195 5.184,463.195 5.184,463.195 L 5.309,461.546 L 4.314,461.381 L 4.065,459.815 L 4.686,458.909 L 4.686,458.25 L 5.184,457.508 L 5.309,456.931 L 32.932,456.931 L 32.932,459.532 C 32.932,459.53 28.47,463.195 26.668,463.195 z "
   i:knockout="Off" />

						<polygon
   style="fill:none;stroke:#665019;stroke-width:1.20000005"
   id="polygon22400"
   points="47.466,445.509 26.591,445.509 26.715,447.158 25.721,447.322 25.473,448.89 26.093,449.796 26.093,450.456 26.591,451.197 26.715,451.774 41.889,451.774 47.466,445.509 "
   i:knockout="Off" />

						<path
   style="fill:none;stroke:#665019;stroke-width:1.20000005"
   id="path22402"
   d="M 34.402,458.404 L 34.402,444.199 L 33.825,443.767 L 32.672,443.875 L 31.517,443.659 L 30.859,443.982 L 29.54,443.982 L 29.045,443.443 L 28.138,443.659 L 28.139,462.754 C 30.397,461.707 34.402,458.404 34.402,458.404 z "
   i:knockout="Off" />

					</g>
    <path
       style="fill:url(#XMLID_1729_)"
       id="path22423"
       d="M 39.584571,27.532004 L 37.855571,24.335004 L 37.676571,23.355004 L 38.093571,22.764004 L 38.391571,23.093004 L 39.346571,22.634004 L 39.703571,21.128004 L 39.405571,20.407004 L 38.869571,19.884004 L 38.869571,19.294004 L 38.272571,18.442004 L 37.854571,18.180004 L 37.377571,18.377004 C 37.377571,18.377004 36.483571,17.854004 36.543571,17.590004 C 37.080571,17.263004 39.881571,15.365004 39.881571,15.365004 L 40.180571,15.560004 L 41.432571,14.381004 L 41.313571,13.858004 L 40.956571,13.465004 L 40.599571,12.679004 L 40.479571,12.090004 L 40.123571,11.696004 C 40.123571,11.696004 39.942571,11.237004 39.524571,11.106004 C 39.107571,10.976004 38.751571,11.042004 38.751571,10.846004 C 38.751571,10.648004 41.970571,9.0760043 42.864571,8.8820043 L 43.818571,7.5710043 L 43.758571,7.1120043 L 43.102571,6.8510043 C 43.102571,6.8510043 42.566571,5.9980043 41.910571,5.0160043 C 41.910571,5.0160043 35.352571,5.9980043 34.457571,6.3270043 C 33.562571,6.6530043 29.331571,8.3570043 27.184571,8.8820043 L 26.707571,7.7010043 C 26.707571,7.7010043 25.873571,6.6530043 25.694571,6.1300043 L 24.979571,6.1300043 C 22.176571,6.5230043 14.783571,9.4040043 10.311571,12.023004 C 10.311571,12.023004 7.8075714,11.828004 7.6285714,11.828004 C 7.4495714,11.828004 5.7195714,13.792004 5.3615714,14.250004 C 5.3615714,14.250004 5.4215714,15.560004 6.2575714,17.131004 L 6.0775714,17.983004 C 6.0775714,17.983004 6.8525714,19.948004 7.6285714,20.797004 L 8.2845714,20.733004 L 8.9395714,21.127004 L 10.252571,20.798004 L 11.385571,20.406004 L 12.994571,19.554004 L 14.007571,19.685004 C 14.007571,19.685004 14.007571,19.685004 12.577571,20.143004 C 11.145571,20.601004 9.1795714,22.436004 7.1515714,23.483004 L 7.0925714,23.942004 L 6.8525714,24.596004 C 6.8525714,24.596004 6.7935714,27.281004 6.8525714,29.179004 C 6.8525714,29.179004 7.5685714,28.656004 7.8665714,28.720004 C 8.1655714,28.786004 12.994571,26.626004 12.994571,26.626004 L 13.530571,25.774004 C 13.530571,25.774004 19.969571,22.106004 23.130571,21.321004 C 21.519571,22.106004 10.132571,28.655004 9.8945714,28.850004 C 9.6545714,29.048004 9.3565714,29.441004 9.3565714,29.441004 L 9.1205714,29.309004 L 7.9865714,30.554004 L 9.1795714,31.863004 C 9.1795714,31.863004 9.8345714,33.434004 10.013571,34.744004 L 8.8795714,35.857004 C 8.8795714,35.857004 8.7015714,37.167004 9.2985714,37.626004 C 9.8945714,38.084004 12.159571,38.870004 12.278571,39.852004 L 13.113571,39.198004 L 14.722571,38.871004 C 14.722571,38.871004 16.153571,37.234004 17.226571,36.643004 C 18.300571,36.055004 20.864571,35.007004 21.877571,34.548004 C 22.890571,34.089004 25.989571,32.257004 25.989571,32.257004 L 26.943571,31.339004 C 26.943571,31.339004 30.701571,28.982004 33.025571,27.672004 C 33.025571,27.672004 25.274571,33.108004 24.141571,34.352004 L 23.367571,34.548004 C 23.367571,34.548004 20.207571,36.446004 15.019571,40.375004 L 15.497571,40.440004 C 15.497571,40.440004 19.969571,36.971004 22.412571,35.268004 L 21.637571,37.167004 L 22.533571,35.922004 L 22.830571,35.988004 C 22.830571,35.988004 21.578571,37.756004 21.280571,38.345004 C 21.494571,38.422004 21.835571,38.601004 22.222571,38.843004 L 38.851571,38.844004 L 38.851571,27.529004 L 39.584571,27.529004 L 39.584571,27.532004 z "
       i:knockout="Off" />
    <path
       style="fill:url(#XMLID_1730_);stroke:#665019;stroke-width:0.40000001"
       id="path22432"
       d="M 3.1095714,1.9130043 L 3.1095714,47.151004 L 4.0155714,47.400004 L 4.5095714,46.778004 L 5.8275714,46.778004 L 6.4865714,47.151004 L 7.6405714,46.903004 L 8.7935714,47.026004 L 9.3705714,46.530004 L 9.3705714,2.0360043 L 8.5475714,1.2910043 L 7.6405714,2.0360043 L 6.4865714,2.1600043 L 5.9095714,1.7890043 L 5.0035714,2.2850043 C 5.0035714,2.2850043 5.1695714,2.2850043 4.5095714,2.1600043 C 3.8505714,2.0360043 3.8505714,2.0360043 3.8505714,2.0360043 L 3.1095714,1.9130043 z "
       i:knockout="Off" />
    <path
       style="fill:url(#XMLID_1731_);stroke:#665019;stroke-width:0.40000001"
       id="path22441"
       d="M 46.515571,3.3110043 L 1.2775714,3.3110043 L 1.0285714,4.2180043 L 1.6495714,4.7120043 L 1.6495714,6.0310043 L 1.2775714,6.6910043 L 1.5255714,7.8440043 L 1.4015714,8.9970043 L 1.8995714,9.5740043 L 46.391571,9.5740043 L 47.137571,8.7490043 L 46.391571,7.8440043 L 46.266571,6.6910043 L 46.639571,6.1130043 L 46.143571,5.2060043 C 46.143571,5.2060043 46.144571,5.3720043 46.266571,4.7120043 C 46.391571,4.0540043 46.391571,4.0540043 46.391571,4.0540043 L 46.515571,3.3110043 z "
       i:knockout="Off" />
    <path
       style="fill:url(#XMLID_1732_);stroke:#665019;stroke-width:0.40000001"
       id="path22450"
       d="M 38.853571,33.797004 L 38.853571,1.6630043 L 39.430571,1.1660043 L 40.583571,1.2900043 L 41.737571,1.0420043 L 42.395571,1.4140043 L 43.716571,1.4140043 L 44.209571,0.79300428 L 45.115571,1.0420043 C 45.115571,1.0420043 45.115571,22.968004 45.115571,26.038004 C 45.116571,27.698004 38.853571,33.797004 38.853571,33.797004 z "
       i:knockout="Off" />
    <path
       style="fill:url(#XMLID_1733_);stroke:#665019;stroke-width:0.40000001"
       id="path22459"
       d="M 23.632571,45.218004 C 21.831571,45.218004 2.1485714,45.218004 2.1485714,45.218004 L 2.2735714,43.569004 L 1.2785714,43.404004 L 1.0295714,41.838004 L 1.6505714,40.932004 L 1.6505714,40.273004 L 2.1485714,39.531004 L 2.2735714,38.954004 L 29.896571,38.954004 L 29.896571,41.555004 C 29.896571,41.553004 25.434571,45.218004 23.632571,45.218004 z "
       i:knockout="Off" />
    <path
       style="opacity:0.5;fill:url(#XMLID_1734_)"
       id="path22480"
       d="M 39.584571,27.532004 L 37.855571,24.335004 L 37.676571,23.355004 L 38.093571,22.764004 L 38.391571,23.093004 L 39.346571,22.634004 L 39.703571,21.128004 L 39.405571,20.407004 L 38.869571,19.884004 L 38.869571,19.294004 L 38.272571,18.442004 L 37.854571,18.180004 L 37.377571,18.377004 C 37.377571,18.377004 36.483571,17.854004 36.543571,17.590004 C 37.080571,17.263004 39.881571,15.365004 39.881571,15.365004 L 40.180571,15.560004 L 41.432571,14.381004 L 41.313571,13.858004 L 40.956571,13.465004 L 40.599571,12.679004 L 40.479571,12.090004 L 40.123571,11.696004 C 40.123571,11.696004 39.942571,11.237004 39.524571,11.106004 C 39.107571,10.976004 38.751571,11.042004 38.751571,10.846004 C 38.751571,10.648004 41.970571,9.0760043 42.864571,8.8820043 L 43.818571,7.5710043 L 43.758571,7.1120043 L 43.102571,6.8510043 C 43.102571,6.8510043 42.566571,5.9980043 41.910571,5.0160043 C 41.910571,5.0160043 35.352571,5.9980043 34.457571,6.3270043 C 33.562571,6.6530043 29.331571,8.3570043 27.184571,8.8820043 L 26.707571,7.7010043 C 26.707571,7.7010043 25.873571,6.6530043 25.694571,6.1300043 L 24.979571,6.1300043 C 22.176571,6.5230043 14.783571,9.4040043 10.311571,12.023004 C 10.311571,12.023004 7.8075714,11.828004 7.6285714,11.828004 C 7.4495714,11.828004 5.7195714,13.792004 5.3615714,14.250004 C 5.3615714,14.250004 5.4215714,15.560004 6.2575714,17.131004 L 6.0775714,17.983004 C 6.0775714,17.983004 6.8525714,19.948004 7.6285714,20.797004 L 8.2845714,20.733004 L 8.9395714,21.127004 L 10.252571,20.798004 L 11.385571,20.406004 L 12.994571,19.554004 L 14.007571,19.685004 C 14.007571,19.685004 14.007571,19.685004 12.577571,20.143004 C 11.145571,20.601004 9.1795714,22.436004 7.1515714,23.483004 L 7.0925714,23.942004 L 6.8525714,24.596004 C 6.8525714,24.596004 6.7935714,27.281004 6.8525714,29.179004 C 6.8525714,29.179004 7.5685714,28.656004 7.8665714,28.720004 C 8.1655714,28.786004 12.994571,26.626004 12.994571,26.626004 L 13.530571,25.774004 C 13.530571,25.774004 19.969571,22.106004 23.130571,21.321004 C 21.519571,22.106004 10.132571,28.655004 9.8945714,28.850004 C 9.6545714,29.048004 9.3565714,29.441004 9.3565714,29.441004 L 9.1205714,29.309004 L 7.9865714,30.554004 L 9.1795714,31.863004 C 9.1795714,31.863004 9.8345714,33.434004 10.013571,34.744004 L 8.8795714,35.857004 C 8.8795714,35.857004 8.7015714,37.167004 9.2985714,37.626004 C 9.8945714,38.084004 12.159571,38.870004 12.278571,39.852004 L 13.113571,39.198004 L 14.722571,38.871004 C 14.722571,38.871004 16.153571,37.234004 17.226571,36.643004 C 18.300571,36.055004 20.864571,35.007004 21.877571,34.548004 C 22.890571,34.089004 25.989571,32.257004 25.989571,32.257004 L 26.943571,31.339004 C 26.943571,31.339004 30.701571,28.982004 33.025571,27.672004 C 33.025571,27.672004 25.274571,33.108004 24.141571,34.352004 L 23.367571,34.548004 C 23.367571,34.548004 20.207571,36.446004 15.019571,40.375004 L 15.497571,40.440004 C 15.497571,40.440004 19.969571,36.971004 22.412571,35.268004 L 21.637571,37.167004 L 22.533571,35.922004 L 22.830571,35.988004 C 22.830571,35.988004 21.578571,37.756004 21.280571,38.345004 C 21.494571,38.422004 21.835571,38.601004 22.222571,38.843004 L 38.851571,38.844004 L 38.851571,27.529004 L 39.584571,27.529004 L 39.584571,27.532004 z "
       i:knockout="Off" />
    <polygon
       transform="translate(-3.0354286,-417.977)"
       style="fill:url(#XMLID_1735_);stroke:#665019;stroke-width:0.40000001"
       id="polygon22489"
       points="47.466,445.509 26.591,445.509 26.715,447.158 25.721,447.322 25.473,448.89 26.093,449.796 26.093,450.456 26.591,451.197 26.715,451.774 41.889,451.774 47.466,445.509 "
       i:knockout="Off" />
    <path
       style="fill:url(#XMLID_1736_);stroke:#665019;stroke-width:0.40000001"
       id="path22498"
       d="M 31.366571,40.427004 L 31.366571,26.222004 L 30.789571,25.790004 L 29.636571,25.898004 L 28.481571,25.682004 L 27.823571,26.005004 L 26.504571,26.005004 L 26.009571,25.466004 L 25.102571,25.682004 L 25.103571,44.777004 C 27.361571,43.730004 31.366571,40.427004 31.366571,40.427004 z "
       i:knockout="Off" />
  </g>
</svg>
