<?xml version="1.0" encoding="UTF-8" standalone="no"?>
<!-- Created with Inkscape (http://www.inkscape.org/) -->
<svg
   xmlns:i="http://ns.adobe.com/AdobeIllustrator/10.0/"
   xmlns:dc="http://purl.org/dc/elements/1.1/"
   xmlns:cc="http://web.resource.org/cc/"
   xmlns:rdf="http://www.w3.org/1999/02/22-rdf-syntax-ns#"
   xmlns:svg="http://www.w3.org/2000/svg"
   xmlns="http://www.w3.org/2000/svg"
   xmlns:xlink="http://www.w3.org/1999/xlink"
   xmlns:sodipodi="http://sodipodi.sourceforge.net/DTD/sodipodi-0.dtd"
   xmlns:inkscape="http://www.inkscape.org/namespaces/inkscape"
   width="48px"
   height="48px"
   id="svg36210"
   sodipodi:version="0.32"
   inkscape:version="0.45.1"
   sodipodi:docbase="C:\dev\src\houdini\support\icons\COP2"
   sodipodi:docname="mono.svg"
   inkscape:output_extension="org.inkscape.output.svg.inkscape">
  <defs
     id="defs36212"><linearGradient
   inkscape:collect="always"
   id="linearGradient36741">
  <stop
     style="stop-color:#ffffff;stop-opacity:1"
     offset="0"
     id="stop36743" />
  <stop
     style="stop-color:#e1e5de;stop-opacity:1"
     offset="1"
     id="stop36745" />
</linearGradient>
<linearGradient
   inkscape:collect="always"
   id="linearGradient36729">
  <stop
     style="stop-color:#d3d7cf;stop-opacity:1;"
     offset="0"
     id="stop36731" />
  <stop
     style="stop-color:#d3d7cf;stop-opacity:0;"
     offset="1"
     id="stop36733" />
</linearGradient>
<linearGradient
   inkscape:collect="always"
   id="linearGradient36721">
  <stop
     style="stop-color:#eeeeec;stop-opacity:1;"
     offset="0"
     id="stop36723" />
  <stop
     style="stop-color:#eeeeec;stop-opacity:0;"
     offset="1"
     id="stop36725" />
</linearGradient>
<linearGradient
   inkscape:collect="always"
   id="linearGradient36711">
  <stop
     style="stop-color:#d3d7cf;stop-opacity:1;"
     offset="0"
     id="stop36713" />
  <stop
     style="stop-color:#d3d7cf;stop-opacity:0;"
     offset="1"
     id="stop36715" />
</linearGradient>
<linearGradient
   inkscape:collect="always"
   id="linearGradient36695">
  <stop
     style="stop-color:#babdb6;stop-opacity:1;"
     offset="0"
     id="stop36697" />
  <stop
     style="stop-color:#babdb6;stop-opacity:0;"
     offset="1"
     id="stop36699" />
</linearGradient>
<linearGradient
   inkscape:collect="always"
   id="linearGradient36687">
  <stop
     style="stop-color:#729fcf;stop-opacity:1;"
     offset="0"
     id="stop36689" />
  <stop
     style="stop-color:#729fcf;stop-opacity:0;"
     offset="1"
     id="stop36691" />
</linearGradient>
<linearGradient
   inkscape:collect="always"
   id="linearGradient36679">
  <stop
     style="stop-color:#b4e234;stop-opacity:1;"
     offset="0"
     id="stop36681" />
  <stop
     style="stop-color:#b4e234;stop-opacity:0;"
     offset="1"
     id="stop36683" />
</linearGradient>
<linearGradient
   inkscape:collect="always"
   id="linearGradient36671">
  <stop
     style="stop-color:#fce94f;stop-opacity:1;"
     offset="0"
     id="stop36673" />
  <stop
     style="stop-color:#fce94f;stop-opacity:0;"
     offset="1"
     id="stop36675" />
</linearGradient>
<linearGradient
   inkscape:collect="always"
   id="linearGradient36663">
  <stop
     style="stop-color:#fcaf3e;stop-opacity:1"
     offset="0"
     id="stop36665" />
  <stop
     style="stop-color:#fcaf3e;stop-opacity:0"
     offset="1"
     id="stop36667" />
</linearGradient>
<linearGradient
   inkscape:collect="always"
   id="linearGradient36655">
  <stop
     style="stop-color:#ff1919;stop-opacity:1"
     offset="0"
     id="stop36657" />
  <stop
     style="stop-color:#ef2929;stop-opacity:0"
     offset="1"
     id="stop36659" />
</linearGradient>
<clipPath
   id="XMLID_58_">
								<polygon
   points="14.974,49.385 47.032,49.385 47.032,12.826 32.971,12.826 14.974,49.385 "
   id="use35548" />

							</clipPath>

						<defs
   id="defs35560">
							<rect
   id="XMLID_25_"
   x="15.374"
   y="13.076"
   width="31.408001"
   height="36.058998" />
 
						</defs>

						<clipPath
   id="clipPath36376">
							<use
   xlink:href="#XMLID_25_"
   id="use36378"
   x="0"
   y="0"
   width="61.668999"
   height="62.205002" />

						</clipPath>

						
					
						<defs
   id="defs35536">
							<rect
   id="XMLID_21_"
   x="14.974"
   y="12.826"
   width="32.058998"
   height="36.558998" />
 
						</defs>

						<clipPath
   id="clipPath36357">
							<use
   xlink:href="#XMLID_21_"
   id="use36359"
   x="0"
   y="0"
   width="61.668999"
   height="62.205002" />

						</clipPath>

						
					
						<defs
   id="defs35520">
							<path
   id="XMLID_19_"
   d="M 31.145,41.104 C 31.145,41.734 31.06,42.344 30.905,42.925 L 34.101,42.925 C 34.209,42.334 34.268,41.726 34.268,41.104 C 34.268,35.506 29.715,30.954 24.119,30.954 C 24.095,30.954 24.07,30.956 24.046,30.958 L 22.4,34.299 C 22.951,34.159 23.524,34.077 24.118,34.077 C 27.992,34.077 31.145,37.229 31.145,41.104" />

						</defs>

						<clipPath
   id="clipPath36346">
							<use
   xlink:href="#XMLID_19_"
   id="use36348"
   x="0"
   y="0"
   width="61.668999"
   height="62.205002" />

						</clipPath>

						
					
						<defs
   id="defs35506">
							<path
   id="XMLID_17_"
   d="M 25.545,27.91 L 24.045,30.958 C 24.069,30.956 24.094,30.954 24.118,30.954 C 29.715,30.954 34.267,35.507 34.267,41.104 C 34.267,41.726 34.208,42.334 34.1,42.925 L 37.262,42.925 C 37.344,42.329 37.39,41.721 37.39,41.104 C 37.391,34.269 32.194,28.624 25.545,27.91" />

						</defs>

						<clipPath
   id="clipPath36335">
							<use
   xlink:href="#XMLID_17_"
   id="use36337"
   x="0"
   y="0"
   width="61.668999"
   height="62.205002" />

						</clipPath>

						
					
						<defs
   id="defs35492">
							<path
   id="XMLID_15_"
   d="M 26.99,24.975 L 25.545,27.911 C 32.194,28.625 37.391,34.269 37.391,41.105 C 37.391,41.722 37.345,42.331 37.263,42.926 L 40.413,42.926 C 40.478,42.327 40.515,41.72 40.515,41.105 C 40.515,33.03 34.673,26.335 26.99,24.975" />

						</defs>

						<clipPath
   id="clipPath36324">
							<use
   xlink:href="#XMLID_15_"
   id="use36326"
   x="0"
   y="0"
   width="61.668999"
   height="62.205002" />

						</clipPath>

						
					
						<defs
   id="defs35478">
							<path
   id="XMLID_13_"
   d="M 28.416,22.078 L 26.99,24.974 C 34.673,26.334 40.514,33.03 40.514,41.104 C 40.514,41.719 40.478,42.327 40.412,42.925 L 43.55,42.925 C 43.607,42.325 43.636,41.717 43.636,41.104 C 43.637,31.819 37.115,24.043 28.416,22.078" />

						</defs>

						<clipPath
   id="clipPath36313">
							<use
   xlink:href="#XMLID_13_"
   id="use36315"
   x="0"
   y="0"
   width="61.668999"
   height="62.205002" />

						</clipPath>

						
					
						<defs
   id="defs35464">
							<path
   id="XMLID_11_"
   d="M 43.637,41.104 C 43.637,41.717 43.608,42.326 43.551,42.925 L 46.687,42.925 C 46.735,42.323 46.76,41.716 46.76,41.104 C 46.76,30.593 39.561,21.734 29.836,19.195 L 28.416,22.078 C 37.115,24.043 43.637,31.819 43.637,41.104" />

						</defs>

						<clipPath
   id="clipPath36302">
							<use
   xlink:href="#XMLID_11_"
   id="use36304"
   x="0"
   y="0"
   width="61.668999"
   height="62.205002" />

						</clipPath>

						
					
						<defs
   id="defs35450">
							<path
   id="XMLID_9_"
   d="M 13.968,41.104 C 13.968,41.726 14.027,42.334 14.135,42.925 L 17.332,42.925 C 17.176,42.344 17.091,41.734 17.091,41.104 C 17.091,37.823 19.355,35.068 22.401,34.298 L 24.046,30.957 C 18.48,30.999 13.968,35.531 13.968,41.104" />

						</defs>

						<clipPath
   id="clipPath36291">
							<use
   xlink:href="#XMLID_9_"
   id="use36293"
   x="0"
   y="0"
   width="61.668999"
   height="62.205002" />

						</clipPath>

						
					
						<defs
   id="defs35436">
							<path
   id="XMLID_7_"
   d="M 24.045,30.958 L 25.545,27.91 C 25.076,27.86 24.601,27.831 24.118,27.831 C 16.8,27.831 10.845,33.786 10.845,41.104 C 10.845,41.721 10.891,42.33 10.974,42.925 L 14.135,42.925 C 14.027,42.334 13.968,41.726 13.968,41.104 C 13.968,35.531 18.48,30.999 24.045,30.958" />

						</defs>

						<clipPath
   id="clipPath36280">
							<use
   xlink:href="#XMLID_7_"
   id="use36282"
   x="0"
   y="0"
   width="61.668999"
   height="62.205002" />

						</clipPath>

						
					
						<defs
   id="defs35422">
							<path
   id="XMLID_5_"
   d="M 24.118,27.831 C 24.6,27.831 25.076,27.86 25.545,27.91 L 26.99,24.974 C 26.055,24.809 25.099,24.707 24.118,24.707 C 15.062,24.707 7.722,32.048 7.722,41.103 C 7.722,41.718 7.757,42.326 7.824,42.924 L 10.974,42.924 C 10.891,42.328 10.845,41.72 10.845,41.103 C 10.845,33.786 16.8,27.831 24.118,27.831" />

						</defs>

						<clipPath
   id="clipPath36269">
							<use
   xlink:href="#XMLID_5_"
   id="use36271"
   x="0"
   y="0"
   width="61.668999"
   height="62.205002" />

						</clipPath>

						
					
						<defs
   id="defs35408">
							<path
   id="XMLID_3_"
   d="M 24.118,24.708 C 25.099,24.708 26.056,24.81 26.99,24.975 L 28.416,22.079 C 27.031,21.766 25.596,21.586 24.118,21.586 C 13.355,21.586 4.599,30.342 4.599,41.106 C 4.599,41.719 4.628,42.328 4.684,42.927 L 7.823,42.927 C 7.757,42.328 7.721,41.721 7.721,41.106 C 7.722,32.049 15.063,24.708 24.118,24.708" />

						</defs>

						<clipPath
   id="clipPath36258">
							<use
   xlink:href="#XMLID_3_"
   id="use36260"
   x="0"
   y="0"
   width="61.668999"
   height="62.205002" />

						</clipPath>

						
					
						<defs
   id="defs35394">
							<path
   id="XMLID_1_"
   d="M 24.118,21.585 C 25.596,21.585 27.031,21.765 28.416,22.078 L 29.836,19.195 C 28.008,18.716 26.093,18.462 24.118,18.462 C 11.633,18.462 1.475,28.619 1.475,41.105 C 1.475,41.717 1.501,42.325 1.549,42.926 L 4.684,42.926 C 4.628,42.326 4.599,41.718 4.599,41.105 C 4.6,30.341 13.355,21.585 24.118,21.585" />

						</defs>

						<clipPath
   id="clipPath36247">
							<use
   xlink:href="#XMLID_1_"
   id="use36249"
   x="0"
   y="0"
   width="61.668999"
   height="62.205002" />

						</clipPath>

						
					<linearGradient
   inkscape:collect="always"
   xlink:href="#linearGradient36655"
   id="linearGradient36661"
   x1="2.3043003"
   y1="29.531561"
   x2="1.4024686"
   y2="37.411133"
   gradientUnits="userSpaceOnUse" />
<linearGradient
   inkscape:collect="always"
   xlink:href="#linearGradient36663"
   id="linearGradient36669"
   x1="5.5714288"
   y1="30.571428"
   x2="4.5714288"
   y2="37.412174"
   gradientUnits="userSpaceOnUse" />
<linearGradient
   inkscape:collect="always"
   xlink:href="#linearGradient36671"
   id="linearGradient36677"
   x1="9"
   y1="32.57143"
   x2="8.2857141"
   y2="37.40905"
   gradientUnits="userSpaceOnUse" />
<linearGradient
   inkscape:collect="always"
   xlink:href="#linearGradient36679"
   id="linearGradient36685"
   x1="11.714286"
   y1="33.142857"
   x2="11.285714"
   y2="37.410091"
   gradientUnits="userSpaceOnUse" />
<linearGradient
   inkscape:collect="always"
   xlink:href="#linearGradient36687"
   id="linearGradient36693"
   x1="15.285714"
   y1="33.714287"
   x2="14.285714"
   y2="37.410091"
   gradientUnits="userSpaceOnUse" />
<linearGradient
   inkscape:collect="always"
   xlink:href="#linearGradient36695"
   id="linearGradient36701"
   x1="45.57143"
   y1="33.57143"
   x2="45.57143"
   y2="37.410091"
   gradientUnits="userSpaceOnUse" />
<linearGradient
   inkscape:collect="always"
   xlink:href="#linearGradient36695"
   id="linearGradient36709"
   x1="32.285713"
   y1="34.857143"
   x2="32.285713"
   y2="37.410091"
   gradientUnits="userSpaceOnUse" />
<linearGradient
   inkscape:collect="always"
   xlink:href="#linearGradient36711"
   id="linearGradient36717"
   x1="35.57143"
   y1="33.714287"
   x2="36"
   y2="37.410091"
   gradientUnits="userSpaceOnUse" />
<linearGradient
   inkscape:collect="always"
   xlink:href="#linearGradient36721"
   id="linearGradient36727"
   x1="39.57143"
   y1="33.714287"
   x2="39.57143"
   y2="37.411133"
   gradientUnits="userSpaceOnUse" />
<linearGradient
   inkscape:collect="always"
   xlink:href="#linearGradient36729"
   id="linearGradient36735"
   x1="42.42857"
   y1="33.714287"
   x2="42.42857"
   y2="37.410091"
   gradientUnits="userSpaceOnUse" />
<linearGradient
   inkscape:collect="always"
   xlink:href="#linearGradient36741"
   id="linearGradient36747"
   x1="37.803513"
   y1="13.818782"
   x2="37.100887"
   y2="48.647572"
   gradientUnits="userSpaceOnUse" />
</defs>
  <sodipodi:namedview
     id="base"
     pagecolor="#ffffff"
     bordercolor="#666666"
     borderopacity="1.0"
     inkscape:pageopacity="0.0"
     inkscape:pageshadow="2"
     inkscape:zoom="14"
     inkscape:cx="24"
     inkscape:cy="24"
     inkscape:current-layer="layer1"
     showgrid="true"
     inkscape:grid-bbox="true"
     inkscape:document-units="px"
     inkscape:window-width="1045"
     inkscape:window-height="820"
     inkscape:window-x="401"
     inkscape:window-y="76" />
  <metadata
     id="metadata36215">
    <rdf:RDF>
      <cc:Work
         rdf:about="">
        <dc:format>image/svg+xml</dc:format>
        <dc:type
           rdf:resource="http://purl.org/dc/dcmitype/StillImage" />
      </cc:Work>
    </rdf:RDF>
  </metadata>
  <g
     id="layer1"
     inkscape:label="Layer 1"
     inkscape:groupmode="layer"><polygon
   transform="matrix(1.0411036,0,0,1.0412619,-1.3741848,-7.2860758)"
   style="fill:url(#linearGradient36747);fill-opacity:1;stroke:#486880;stroke-width:0.96044618;stroke-miterlimit:4;stroke-dasharray:none"
   id="polygon35556"
   points="32.971,12.826 14.974,49.385 47.032,49.385 47.032,12.826 32.971,12.826 "
   i:knockout="Off"
   clip-path="none" />

							
						
							
						
							<path
   d="M 23.735152,15.189562 C 25.273903,15.189562 26.767887,15.376989 28.209815,15.702904 L 29.688182,12.700946 C 27.785045,12.202182 25.791331,11.937701 23.735152,11.937701 C 10.736973,11.937701 0.16144301,22.513799 0.16144301,35.514995 C 0.16144301,36.152247 0.1885117,36.785334 0.23848468,37.411133 L 3.5023445,37.411133 C 3.4440427,36.786375 3.4138507,36.153288 3.4138507,35.514995 C 3.4148918,24.306852 12.529754,15.189562 23.735152,15.189562"
   id="use35398"
   style="fill:url(#linearGradient36661);fill-opacity:1.0" />

						
							<path
   d="M 23.735152,18.441423 C 24.756474,18.441423 25.752811,18.547632 26.725201,18.71944 L 28.209815,15.703946 C 26.767887,15.378031 25.273903,15.190604 23.735152,15.190604 C 12.529754,15.190604 3.4138507,24.307893 3.4138507,35.516036 C 3.4138507,36.154329 3.4440427,36.788458 3.5023445,37.412174 L 6.7703687,37.412174 C 6.7016558,36.788458 6.6641761,36.156412 6.6641761,35.516036 C 6.6652172,26.085327 14.307959,18.441423 23.735152,18.441423"
   id="use35412"
   style="fill:url(#linearGradient36669);fill-opacity:1.0" />

						
							<path
   d="M 23.735152,21.693284 C 24.236964,21.693284 24.732529,21.723481 25.220807,21.775544 L 26.725201,18.718399 C 25.751769,18.546591 24.756474,18.440382 23.735152,18.440382 C 14.306918,18.440382 6.6652172,26.084286 6.6652172,35.512912 C 6.6652172,36.153288 6.7016558,36.786375 6.7714098,37.40905 L 10.050886,37.40905 C 9.9644745,36.788458 9.9165837,36.155371 9.9165837,35.512912 C 9.9165837,27.893999 16.116356,21.693284 23.735152,21.693284"
   id="use35426"
   style="fill:url(#linearGradient36677);fill-opacity:1.0" />

						
							<path
   d="M 23.659151,24.94931 L 25.220807,21.775544 C 24.732529,21.723481 24.238005,21.693284 23.735152,21.693284 C 16.116356,21.693284 9.9165837,27.893999 9.9165837,35.513953 C 9.9165837,36.156412 9.9644745,36.79054 10.050886,37.410091 L 13.341815,37.410091 C 13.229375,36.794705 13.16795,36.161618 13.16795,35.513953 C 13.16795,29.711001 17.86541,24.992002 23.659151,24.94931"
   id="use35440"
   style="fill:url(#linearGradient36685);fill-opacity:1.0" />

						
							<path
   d="M 13.16795,35.513953 C 13.16795,36.161618 13.229375,36.794705 13.341815,37.410091 L 16.670223,37.410091 C 16.507811,36.805118 16.419317,36.169948 16.419317,35.513953 C 16.419317,32.097573 18.776375,29.228897 21.947577,28.427125 L 23.660192,24.948269 C 17.86541,24.992002 13.16795,29.711001 13.16795,35.513953"
   id="use35454"
   style="fill:url(#linearGradient36693);fill-opacity:1.0" />

						
							<path
   d="M 44.056453,35.513953 C 44.056453,36.152247 44.026261,36.786375 43.966918,37.410091 L 47.231819,37.410091 C 47.281792,36.783252 47.30782,36.151206 47.30782,35.513953 C 47.30782,24.56925 39.812915,15.34471 29.688182,12.700946 L 28.209815,15.702904 C 37.266375,17.748984 44.056453,25.845837 44.056453,35.513953"
   id="use35468"
   style="fill:url(#linearGradient36701);fill-opacity:1.0" />

						
							<path
   d="M 28.209815,15.702904 L 26.725201,18.718399 C 34.724,20.134515 40.805086,27.106805 40.805086,35.513953 C 40.805086,36.154329 40.767607,36.787417 40.698894,37.410091 L 43.965877,37.410091 C 44.02522,36.785334 44.055412,36.152247 44.055412,35.513953 C 44.056453,25.845837 37.266375,17.748984 28.209815,15.702904"
   id="use35482"
   style="fill:url(#linearGradient36735);fill-opacity:1.0" />

						
							<path
   d="M 26.725201,18.71944 L 25.220807,21.776585 C 32.143104,22.520046 37.55372,28.396928 37.55372,35.514995 C 37.55372,36.157453 37.505829,36.791582 37.420459,37.411133 L 40.699935,37.411133 C 40.767607,36.787417 40.806128,36.155371 40.806128,35.514995 C 40.806128,27.106805 34.724,20.135556 26.725201,18.71944"
   id="use35496"
   style="fill:url(#linearGradient36727);fill-opacity:1.0" />

						
							<path
   d="M 25.220807,21.775544 L 23.659151,24.94931 C 23.684138,24.947228 23.710165,24.945145 23.735152,24.945145 C 29.562209,24.945145 34.301312,29.68601 34.301312,35.513953 C 34.301312,36.161618 34.239887,36.794705 34.127448,37.410091 L 37.419418,37.410091 C 37.504788,36.789499 37.552679,36.156412 37.552679,35.513953 C 37.55372,28.396928 32.143104,22.519005 25.220807,21.775544"
   id="use35510"
   style="fill:url(#linearGradient36717);fill-opacity:1.0" />

						
							<path
   d="M 31.050987,35.513953 C 31.050987,36.169948 30.962493,36.805118 30.801122,37.410091 L 34.128489,37.410091 C 34.240928,36.794705 34.302353,36.161618 34.302353,35.513953 C 34.302353,29.684969 29.562209,24.945145 23.736193,24.945145 C 23.711206,24.945145 23.685179,24.947228 23.660192,24.94931 L 21.946536,28.428166 C 22.520184,28.282389 23.116736,28.197006 23.735152,28.197006 C 27.768387,28.197006 31.050987,31.479063 31.050987,35.513953"
   id="use35524"
   style="fill:url(#linearGradient36709);fill-opacity:1.0" />

						<path
   transform="matrix(1.0411036,0,0,1.0412619,-8.9485311e-2,-8.388972)"
   style="fill:none;fill-opacity:1;stroke:#ffffff;stroke-width:0.96044618;stroke-miterlimit:4;stroke-opacity:1"
   clip-path="none"
   d="M 32.284915,14.952541 L 15.385651,49.385 L 44.836528,49.522196 L 44.836528,14.883943 L 32.284915,14.952541 z "
   id="polygon36749"
   sodipodi:nodetypes="ccccc" />
</g>
</svg>
