<?xml version="1.0" encoding="UTF-8" standalone="no"?>
<!-- Created with Inkscape (http://www.inkscape.org/) -->
<svg
   xmlns:a="http://ns.adobe.com/AdobeSVGViewerExtensions/3.0/"
   xmlns:i="http://ns.adobe.com/AdobeIllustrator/10.0/"
   xmlns:dc="http://purl.org/dc/elements/1.1/"
   xmlns:cc="http://web.resource.org/cc/"
   xmlns:rdf="http://www.w3.org/1999/02/22-rdf-syntax-ns#"
   xmlns:svg="http://www.w3.org/2000/svg"
   xmlns="http://www.w3.org/2000/svg"
   xmlns:sodipodi="http://sodipodi.sourceforge.net/DTD/sodipodi-0.dtd"
   xmlns:inkscape="http://www.inkscape.org/namespaces/inkscape"
   width="48px"
   height="48px"
   id="svg17386"
   sodipodi:version="0.32"
   inkscape:version="0.45.1"
   sodipodi:docbase="C:\dev\src\houdini\support\icons\COP2"
   sodipodi:docname="mosaic.svg"
   inkscape:output_extension="org.inkscape.output.svg.inkscape">
  <defs
     id="defs17388">
    <linearGradient
       y2="302.11581"
       x2="76.186798"
       y1="33.880901"
       x1="-72.897499"
       gradientUnits="userSpaceOnUse"
       id="XMLID_174_">
					<stop
   id="stop7670"
   style="stop-color:#FFFFFF"
   offset="0" />

					<stop
   id="stop7672"
   style="stop-color:#808FA0"
   offset="1" />

					<a:midPointStop
   style="stop-color:#FFFFFF"
   offset="0" />

					<a:midPointStop
   style="stop-color:#FFFFFF"
   offset="0.5" />

					<a:midPointStop
   style="stop-color:#808FA0"
   offset="1" />

				</linearGradient>
    <linearGradient
       y2="311.39871"
       x2="59.473701"
       y1="43.183601"
       x1="-89.599602"
       gradientUnits="userSpaceOnUse"
       id="XMLID_173_">
					<stop
   id="stop7659"
   style="stop-color:#8AC92E"
   offset="0" />

					<stop
   id="stop7661"
   style="stop-color:#72BD22"
   offset="1" />

					<a:midPointStop
   style="stop-color:#8AC92E"
   offset="0" />

					<a:midPointStop
   style="stop-color:#8AC92E"
   offset="0.5" />

					<a:midPointStop
   style="stop-color:#72BD22"
   offset="1" />

				</linearGradient>
    <linearGradient
       y2="306.25439"
       x2="68.7714"
       y1="37.982399"
       x1="-80.333504"
       gradientUnits="userSpaceOnUse"
       id="XMLID_172_">
					<stop
   id="stop7644"
   style="stop-color:#ABCBE6"
   offset="0" />

					<stop
   id="stop7646"
   style="stop-color:#6B96C2"
   offset="0.462" />

					<stop
   id="stop7648"
   style="stop-color:#4073A9"
   offset="0.8185" />

					<stop
   id="stop7650"
   style="stop-color:#3065A0"
   offset="1" />

					<a:midPointStop
   style="stop-color:#ABCBE6"
   offset="0" />

					<a:midPointStop
   style="stop-color:#ABCBE6"
   offset="0.4438" />

					<a:midPointStop
   style="stop-color:#3065A0"
   offset="1" />

				</linearGradient>
  </defs>
  <sodipodi:namedview
     id="base"
     pagecolor="#ffffff"
     bordercolor="#666666"
     borderopacity="1.0"
     inkscape:pageopacity="0.0"
     inkscape:pageshadow="2"
     inkscape:zoom="7"
     inkscape:cx="24"
     inkscape:cy="24"
     inkscape:current-layer="layer1"
     showgrid="true"
     inkscape:grid-bbox="true"
     inkscape:document-units="px"
     inkscape:window-width="744"
     inkscape:window-height="573"
     inkscape:window-x="176"
     inkscape:window-y="192" />
  <metadata
     id="metadata17391">
    <rdf:RDF>
      <cc:Work
         rdf:about="">
        <dc:format>image/svg+xml</dc:format>
        <dc:type
           rdf:resource="http://purl.org/dc/dcmitype/StillImage" />
      </cc:Work>
    </rdf:RDF>
  </metadata>
  <g
     id="layer1"
     inkscape:label="Layer 1"
     inkscape:groupmode="layer">
    <rect
       style="fill:#f17912;stroke:#000000;stroke-width:0.5"
       id="rect7635"
       height="23.682312"
       width="23.675816"
       i:knockout="Off"
       y="0.41541731"
       x="23.908754" />
    <path
       style="fill:none;stroke:#faaf3d;stroke-width:1.10000002"
       id="path7637"
       d="M 24.991227,23.016348 C 26.86715,23.016348 44.626177,23.016348 46.502101,23.016348 C 46.502101,21.139342 46.502101,3.3749021 46.502101,1.4978968"
       i:knockout="Off" />
    <path
       style="fill:none;stroke:#ffffff;stroke-width:1.10000002"
       id="path7639"
       d="M 46.502101,1.4978968 C 44.626177,1.4978968 26.86715,1.4978968 24.991227,1.4978968 C 24.991227,3.3749021 24.991227,21.139342 24.991227,23.016348"
       i:knockout="Off" />
    <g
       transform="matrix(1.0824715,0,0,1.0824715,-3.2147329,-212.8163)"
       id="g7641">
				<linearGradient
   y2="306.25439"
   x2="68.7714"
   y1="37.982399"
   x1="-80.333504"
   gradientUnits="userSpaceOnUse"
   id="linearGradient17409">
					<stop
   id="stop17411"
   style="stop-color:#ABCBE6"
   offset="0" />

					<stop
   id="stop17413"
   style="stop-color:#6B96C2"
   offset="0.462" />

					<stop
   id="stop17415"
   style="stop-color:#4073A9"
   offset="0.8185" />

					<stop
   id="stop17417"
   style="stop-color:#3065A0"
   offset="1" />

					<a:midPointStop
   style="stop-color:#ABCBE6"
   offset="0" />

					<a:midPointStop
   style="stop-color:#ABCBE6"
   offset="0.4438" />

					<a:midPointStop
   style="stop-color:#3065A0"
   offset="1" />

				</linearGradient>

				
					<rect
   style="fill:url(#XMLID_172_);stroke:#000000;stroke-width:0.46190593"
   id="rect7652"
   height="21.878"
   width="21.872999"
   i:knockout="Off"
   y="196.98599"
   x="3.184" />
 
				<path
   style="fill:none;stroke:#ffffff;stroke-width:1.01619303"
   id="path7654"
   d="M 24.057,197.986 C 22.324,197.986 5.918,197.986 4.184,197.986 C 4.184,199.72 4.184,216.131 4.184,217.865"
   i:knockout="Off" />

				<path
   style="fill:none;stroke:#a2c0d9;stroke-width:1.01619303"
   id="path7656"
   d="M 4.184,217.865 C 5.918,217.865 22.324,217.865 24.057,217.865 C 24.057,216.131 24.057,199.72 24.057,197.986"
   i:knockout="Off" />

				<linearGradient
   y2="311.39871"
   x2="59.473701"
   y1="43.183601"
   x1="-89.599602"
   gradientUnits="userSpaceOnUse"
   id="linearGradient17422">
					<stop
   id="stop17424"
   style="stop-color:#8AC92E"
   offset="0" />

					<stop
   id="stop17426"
   style="stop-color:#72BD22"
   offset="1" />

					<a:midPointStop
   style="stop-color:#8AC92E"
   offset="0" />

					<a:midPointStop
   style="stop-color:#8AC92E"
   offset="0.5" />

					<a:midPointStop
   style="stop-color:#72BD22"
   offset="1" />

				</linearGradient>

				
					<rect
   style="fill:url(#XMLID_173_);stroke:#000000;stroke-width:0.46190593"
   id="rect7663"
   height="21.867001"
   width="21.872999"
   i:knockout="Off"
   y="218.864"
   x="3.184" />
 
				<path
   style="fill:none;stroke:#b7e672;stroke-width:1.01619303"
   id="path7665"
   d="M 4.184,239.731 C 5.918,239.731 22.324,239.731 24.057,239.731 C 24.057,237.997 24.057,221.598 24.057,219.864"
   i:knockout="Off" />

				<path
   style="fill:none;stroke:#ffffff;stroke-width:1.01619303"
   id="path7667"
   d="M 24.057,219.864 C 22.324,219.864 5.918,219.864 4.184,219.864 C 4.184,221.598 4.184,237.997 4.184,239.731"
   i:knockout="Off" />

				<linearGradient
   y2="302.11581"
   x2="76.186798"
   y1="33.880901"
   x1="-72.897499"
   gradientUnits="userSpaceOnUse"
   id="linearGradient17431">
					<stop
   id="stop17433"
   style="stop-color:#FFFFFF"
   offset="0" />

					<stop
   id="stop17435"
   style="stop-color:#808FA0"
   offset="1" />

					<a:midPointStop
   style="stop-color:#FFFFFF"
   offset="0" />

					<a:midPointStop
   style="stop-color:#FFFFFF"
   offset="0.5" />

					<a:midPointStop
   style="stop-color:#808FA0"
   offset="1" />

				</linearGradient>

				
					<rect
   style="fill:url(#XMLID_174_);stroke:#000000;stroke-width:0.46190593"
   id="rect7674"
   height="21.867001"
   width="21.872"
   i:knockout="Off"
   y="218.864"
   x="25.056999" />
 
				<path
   style="fill:none;stroke:#cad8e6;stroke-width:1.01619303"
   id="path7676"
   d="M 26.057,239.731 C 27.79,239.731 44.196,239.731 45.929,239.731 C 45.929,237.997 45.929,221.598 45.929,219.864"
   i:knockout="Off" />

				<path
   style="fill:none;stroke:#ffffff;stroke-width:1.01619303"
   id="path7678"
   d="M 45.929,219.864 C 44.196,219.864 27.79,219.864 26.057,219.864 C 26.057,221.598 26.057,237.997 26.057,239.731"
   i:knockout="Off" />

			</g>
    <polygon
       transform="matrix(1.0824715,0,0,1.0824715,-3.2147329,-212.8163)"
       style="fill:#f6e94e"
       id="polygon7680"
       points="36.059,222.81 38.343,227.438 43.45,228.181 39.755,231.782 40.628,236.87 36.059,234.468 31.489,236.87 32.362,231.782 28.667,228.181 33.774,227.438 36.059,222.81 "
       i:knockout="Off" />
    <path
       style="fill:#f6e94e"
       id="path7682"
       d="M 9.9048215,9.8740612 C 9.9048215,9.8740612 9.3256992,8.5426212 7.4887451,8.5426212 C 5.651791,8.5426212 5.0737512,9.8740612 5.0737512,9.8740612 C 5.0737512,9.8740612 5.293493,7.7480872 7.4887451,7.7480872 C 9.6850798,7.7480872 9.9048215,9.8740612 9.9048215,9.8740612 z "
       i:knockout="Off" />
    <path
       style="fill:#f6e94e"
       id="path7684"
       d="M 18.851448,9.8740612 C 18.851448,9.8740612 18.273409,8.5426212 16.436454,8.5426212 C 14.5995,8.5426212 14.020378,9.8740612 14.020378,9.8740612 C 14.020378,9.8740612 14.24012,7.7480872 16.436454,7.7480872 C 18.632789,7.7480872 18.851448,9.8740612 18.851448,9.8740612 z "
       i:knockout="Off" />
    <path
       style="fill:#f6e94e"
       id="path7686"
       d="M 5.2869981,13.14962 C 5.2869981,13.14962 6.9128703,17.016208 12.070847,17.016208 C 17.227741,17.016208 18.852531,13.14962 18.852531,13.14962 C 18.852531,13.14962 18.237687,19.321872 12.070847,19.321872 C 5.9018419,19.322955 5.2869981,13.14962 5.2869981,13.14962 z "
       i:knockout="Off" />
    <circle
       transform="matrix(1.0824715,0,0,1.0824715,-3.2147329,-212.8163)"
       style="fill:none;stroke:#f6e94e;stroke-width:0.92381185"
       sodipodi:ry="7.4380002"
       sodipodi:rx="7.4380002"
       sodipodi:cy="229.798"
       sodipodi:cx="14.12"
       id="circle7688"
       r="7.4380002"
       cy="229.798"
       cx="14.12"
       i:knockout="Off" />
    <circle
       transform="matrix(1.0824715,0,0,1.0824715,-3.2147329,-212.8163)"
       style="fill:none;stroke:#f6e94e;stroke-width:0.92381185"
       sodipodi:ry="4.5630002"
       sodipodi:rx="4.5630002"
       sodipodi:cy="229.798"
       sodipodi:cx="14.12"
       id="circle7690"
       r="4.5630002"
       cy="229.798"
       cx="14.12"
       i:knockout="Off" />
    <g
       transform="matrix(1.0824715,0,0,1.0824715,-3.2147329,-212.8163)"
       id="g7692"
       i:knockout="Off">
				<path
   style="fill:#f6e94e"
   id="path7694"
   d="M 30.399,202.305 L 34.008,202.305 L 34.008,206.399 L 37.946,206.399 L 37.946,202.305 L 41.571,202.305 L 41.571,213.977 L 37.946,213.977 L 37.946,209.258 L 34.008,209.258 L 34.008,213.977 L 30.399,213.977 L 30.399,202.305 z "
   i:knockout="Off" />

			</g>
  </g>
</svg>
