<?xml version="1.0" encoding="UTF-8" standalone="no"?>
<!-- Created with Inkscape (http://www.inkscape.org/) -->
<svg
   xmlns:a="http://ns.adobe.com/AdobeSVGViewerExtensions/3.0/"
   xmlns:i="http://ns.adobe.com/AdobeIllustrator/10.0/"
   xmlns:dc="http://purl.org/dc/elements/1.1/"
   xmlns:cc="http://web.resource.org/cc/"
   xmlns:rdf="http://www.w3.org/1999/02/22-rdf-syntax-ns#"
   xmlns:svg="http://www.w3.org/2000/svg"
   xmlns="http://www.w3.org/2000/svg"
   xmlns:sodipodi="http://sodipodi.sourceforge.net/DTD/sodipodi-0.dtd"
   xmlns:inkscape="http://www.inkscape.org/namespaces/inkscape"
   width="48px"
   height="48px"
   id="svg26228"
   sodipodi:version="0.32"
   inkscape:version="0.45.1"
   sodipodi:docbase="C:\dev\src\houdini\support\icons\COP2"
   sodipodi:docname="pin.svg"
   inkscape:output_extension="org.inkscape.output.svg.inkscape">
  <defs
     id="defs26230">
    <linearGradient
       y2="485.7894"
       x2="274.5555"
       y1="536.2876"
       x1="322.7056"
       gradientUnits="userSpaceOnUse"
       id="XMLID_270_"
       gradientTransform="matrix(0.9644568,0,0,0.9643975,-276.7299,-485.07321)">
				<stop
   id="stop23740"
   style="stop-color:#FFFFFF"
   offset="0.0281" />

				<stop
   id="stop23742"
   style="stop-color:#94A1AF"
   offset="1" />

				<a:midPointStop
   style="stop-color:#FFFFFF"
   offset="0.0281" />

				<a:midPointStop
   style="stop-color:#FFFFFF"
   offset="0.5" />

				<a:midPointStop
   style="stop-color:#94A1AF"
   offset="1" />

			</linearGradient>
  </defs>
  <sodipodi:namedview
     id="base"
     pagecolor="#ffffff"
     bordercolor="#666666"
     borderopacity="1.0"
     inkscape:pageopacity="0.0"
     inkscape:pageshadow="2"
     inkscape:zoom="7"
     inkscape:cx="24"
     inkscape:cy="24"
     inkscape:current-layer="layer1"
     showgrid="true"
     inkscape:grid-bbox="true"
     inkscape:document-units="px"
     inkscape:window-width="744"
     inkscape:window-height="573"
     inkscape:window-x="154"
     inkscape:window-y="168" />
  <metadata
     id="metadata26233">
    <rdf:RDF>
      <cc:Work
         rdf:about="">
        <dc:format>image/svg+xml</dc:format>
        <dc:type
           rdf:resource="http://purl.org/dc/dcmitype/StillImage" />
      </cc:Work>
    </rdf:RDF>
  </metadata>
  <g
     id="layer1"
     inkscape:label="Layer 1"
     inkscape:groupmode="layer">
    <path
       style="fill:none;stroke:#575d66;stroke-width:2.00000024"
       id="path23737"
       d="M 15.219834,12.977334 C 21.346063,14.144255 29.402171,16.965118 45.73814,6.4618644 C 39.985155,16.348868 38.673494,27.133725 45.057234,44.379081 C 24.632932,35.919386 18.472946,35.728435 4.4690335,38.060349 C 8.5525436,32.811133 17.129458,22.736072 15.219834,12.977334 z "
       i:knockout="Off" />
    <path
       style="fill:url(#XMLID_270_)"
       id="path23744"
       d="M 15.219833,12.977334 C 21.346063,14.144255 29.40217,16.965117 45.738139,6.4618644 C 39.985154,16.348867 38.673493,27.133725 45.057232,44.37908 C 24.632931,35.919386 18.472946,35.728435 4.4690334,38.060348 C 8.5525433,32.811133 17.129458,22.736072 15.219833,12.977334 z "
       i:knockout="Off" />
    <path
       style="fill:none;stroke:#575d66;stroke-width:0.60000002;stroke-linecap:square"
       id="path23746"
       d="M 18.32442,36.815311 C 22.440722,26.749895 23.70416,17.80993 23.70416,14.206941"
       i:knockout="Off" />
    <path
       style="fill:none;stroke:#575d66;stroke-width:0.60000002;stroke-linecap:square"
       id="path23748"
       d="M 31.382201,39.280311 C 30.141909,30.438715 30.271146,20.442735 33.572482,12.562643"
       i:knockout="Off" />
    <path
       style="fill:none;stroke:#575d66;stroke-width:0.60000002;stroke-linecap:square"
       id="path23750"
       d="M 14.889025,20.391622 C 16.77936,22.280877 33.76248,20.812099 41.21098,18.899699"
       i:knockout="Off" />
    <path
       style="fill:none;stroke:#575d66;stroke-width:0.60000002;stroke-linecap:square"
       id="path23752"
       d="M 10.714856,29.535075 C 20.244654,26.997745 31.541336,27.812661 41.535037,31.864095"
       i:knockout="Off" />
    <g
       transform="matrix(0.9644568,0,0,0.9643975,-276.7299,-485.07321)"
       id="g23754">
				
					<rect
   style="fill:none;stroke:#ffffff;stroke-width:1.03688502"
   id="rect23756"
   height="1.6"
   width="5.9819999"
   transform="matrix(-0.389,-0.9212,0.9212,-0.389,-53.647,995.2876)"
   i:knockout="Off"
   y="514.63397"
   x="300.23099" />
 
				<polygon
   style="fill:none;stroke:#ffffff;stroke-width:1.03688502"
   id="polygon23758"
   points="297.954,509.704 302.819,514.571 302.958,507.944 297.954,509.704 "
   i:knockout="Off" />

				<path
   style="fill:none;stroke:#ffffff;stroke-width:1.03688502"
   id="path23760"
   d="M 300.881,510.37 C 301.069,510.557 301.09,510.578 301.297,510.786 C 301.303,510.504 301.304,510.467 301.309,510.22 C 301.104,510.292 301.092,510.295 300.881,510.37 z "
   i:knockout="Off" />

				<rect
   style="fill:none;stroke:#ffffff;stroke-width:1.03688502"
   id="rect23762"
   height="4.915"
   width="1.6"
   i:knockout="Off"
   y="510.186"
   x="329.60001" />
 
				<polygon
   style="fill:none;stroke:#ffffff;stroke-width:1.03688502"
   id="polygon23764"
   points="330.431,512.224 334.155,506.743 329,505.494 330.431,512.224 "
   i:knockout="Off" />

				<path
   style="fill:none;stroke:#ffffff;stroke-width:1.03688502"
   id="path23766"
   d="M 331.215,508.222 C 331.373,507.989 331.395,507.958 331.533,507.754 C 331.322,507.702 331.31,507.699 331.093,507.648 C 331.148,507.906 331.155,507.935 331.215,508.222 z "
   i:knockout="Off" />

				<rect
   style="fill:none;stroke:#ffffff;stroke-width:1.03688502"
   id="rect23768"
   height="7.941"
   width="1.599"
   i:knockout="Off"
   y="536.92798"
   x="329.617" />
 
				<polygon
   style="fill:none;stroke:#ffffff;stroke-width:1.03688502"
   id="polygon23770"
   points="330.87,539.595 335.572,534.924 330.75,532.715 330.87,539.595 "
   i:knockout="Off" />

				<path
   style="fill:none;stroke:#ffffff;stroke-width:1.03688502"
   id="path23772"
   d="M 332.405,535.816 C 332.604,535.617 332.631,535.59 332.805,535.417 C 332.608,535.327 332.596,535.322 332.394,535.229 C 332.399,535.492 332.399,535.522 332.405,535.816 z "
   i:knockout="Off" />

				
					<rect
   style="fill:none;stroke:#ffffff;stroke-width:1.03688502"
   id="rect23774"
   height="1.599"
   width="6.3169999"
   transform="matrix(-0.5862,-0.8102,0.8102,-0.5862,30.9712,1090.495)"
   i:knockout="Off"
   y="536.53802"
   x="290.82401" />
 
				<polygon
   style="fill:none;stroke:#ffffff;stroke-width:1.03688502"
   id="polygon23776"
   points="287.461,532.805 293.299,536.452 291.94,529.964 287.461,532.805 "
   i:knockout="Off" />

				<path
   style="fill:none;stroke:#ffffff;stroke-width:1.03688502"
   id="path23778"
   d="M 290.465,532.795 C 290.689,532.935 290.714,532.95 290.963,533.106 C 290.905,532.83 290.899,532.793 290.848,532.552 C 290.665,532.668 290.654,532.675 290.465,532.795 z "
   i:knockout="Off" />

			</g>
    <g
       transform="matrix(0.9644568,0,0,0.9643975,-276.7299,-485.07321)"
       id="g23780">
				<line
   style="fill:none;stroke:#ed2728;stroke-width:1.03688502"
   id="line23782"
   y2="517.83398"
   x2="304.237"
   y1="512.67798"
   x1="302.05899"
   i:knockout="Off" />

				<polygon
   style="fill:none;stroke:#ed2728;stroke-width:1.03688502"
   id="polygon23784"
   points="299.417,510.037 302.133,509.082 302.059,512.678 299.417,510.037 "
   i:knockout="Off" />

				<line
   style="fill:none;stroke:#ed2728;stroke-width:1.03688502"
   id="line23786"
   y2="514.67798"
   x2="330.04401"
   y1="510.22299"
   x1="330.823"
   i:knockout="Off" />

				<polygon
   style="fill:none;stroke:#ed2728;stroke-width:1.03688502"
   id="polygon23788"
   points="330.046,506.571 332.844,507.249 330.823,510.223 330.046,506.571 "
   i:knockout="Off" />

				<line
   style="fill:none;stroke:#ed2728;stroke-width:1.03688502"
   id="line23790"
   y2="544.33398"
   x2="329.104"
   y1="537.70599"
   x1="331.63699"
   i:knockout="Off" />

				<polygon
   style="fill:none;stroke:#ed2728;stroke-width:1.03688502"
   id="polygon23792"
   points="331.572,533.972 334.188,535.17 331.637,537.706 331.572,533.972 "
   i:knockout="Off" />

				<line
   style="fill:none;stroke:#ed2728;stroke-width:1.03688502"
   id="line23794"
   y2="539.54303"
   x2="295.57901"
   y1="534.77899"
   x1="292.13101"
   i:knockout="Off" />

				<polygon
   style="fill:none;stroke:#ed2728;stroke-width:1.03688502"
   id="polygon23796"
   points="288.963,532.8 291.394,531.258 292.131,534.779 288.963,532.8 "
   i:knockout="Off" />

			</g>
  </g>
</svg>
