<?xml version="1.0" encoding="UTF-8" standalone="no"?>
<!-- Created with Inkscape (http://www.inkscape.org/) -->
<svg
   xmlns:i="http://ns.adobe.com/AdobeIllustrator/10.0/"
   xmlns:a="http://ns.adobe.com/AdobeSVGViewerExtensions/3.0/"
   xmlns:dc="http://purl.org/dc/elements/1.1/"
   xmlns:cc="http://web.resource.org/cc/"
   xmlns:rdf="http://www.w3.org/1999/02/22-rdf-syntax-ns#"
   xmlns:svg="http://www.w3.org/2000/svg"
   xmlns="http://www.w3.org/2000/svg"
   xmlns:sodipodi="http://sodipodi.sourceforge.net/DTD/sodipodi-0.dtd"
   xmlns:inkscape="http://www.inkscape.org/namespaces/inkscape"
   width="48px"
   height="48px"
   id="svg81301"
   sodipodi:version="0.32"
   inkscape:version="0.45.1"
   sodipodi:docbase="C:\dev\src\houdini\support\icons\COP2"
   sodipodi:docname="pushup.svg"
   inkscape:output_extension="org.inkscape.output.svg.inkscape">
  <defs
     id="defs81303">
    <linearGradient
       gradientTransform="matrix(0.2312358,1.370254,-0.988939,0.3203954,1358.5548,2837.9062)"
       y2="850.9393"
       x2="-2226.0481"
       y1="799.5093"
       x1="-2238.1064"
       gradientUnits="userSpaceOnUse"
       id="XMLID_205_">
      <stop
         id="stop22942"
         style="stop-color:#FFFFFF"
         offset="0" />
      <stop
         id="stop22944"
         style="stop-color:#B8C0CA"
         offset="1" />
      <a:midPointStop
         style="stop-color:#FFFFFF"
         offset="0" />
      <a:midPointStop
         style="stop-color:#FFFFFF"
         offset="0.5" />
      <a:midPointStop
         style="stop-color:#B8C0CA"
         offset="1" />
    </linearGradient>
    <linearGradient
       y2="515.8241"
       x2="3.6057"
       y1="524.394"
       x1="45.4092"
       gradientUnits="userSpaceOnUse"
       id="XMLID_206_"
       gradientTransform="matrix(1.0156677,-3.8542872e-3,2.7821082e-3,1.4072886,-1.8142416,-697.23825)">
      <stop
         id="stop22949"
         style="stop-color:#FFFFFF"
         offset="0" />
      <stop
         id="stop22951"
         style="stop-color:#B8C0CA"
         offset="1" />
      <a:midPointStop
         style="stop-color:#FFFFFF"
         offset="0" />
      <a:midPointStop
         style="stop-color:#FFFFFF"
         offset="0.5" />
      <a:midPointStop
         style="stop-color:#B8C0CA"
         offset="1" />
    </linearGradient>
    <linearGradient
       gradientTransform="matrix(0.2312358,1.370254,-0.988939,0.3203954,1358.5548,2837.9062)"
       y2="854.0769"
       x2="-2239.4355"
       y1="802.6499"
       x1="-2251.4932"
       gradientUnits="userSpaceOnUse"
       id="XMLID_207_">
      <stop
         id="stop22956"
         style="stop-color:#FFFFFF"
         offset="0" />
      <stop
         id="stop22958"
         style="stop-color:#B8C0CA"
         offset="1" />
      <a:midPointStop
         style="stop-color:#FFFFFF"
         offset="0" />
      <a:midPointStop
         style="stop-color:#FFFFFF"
         offset="0.5" />
      <a:midPointStop
         style="stop-color:#B8C0CA"
         offset="1" />
    </linearGradient>
    <linearGradient
       y2="543.10522"
       x2="777.99518"
       y1="541.73053"
       x1="776.86517"
       gradientUnits="userSpaceOnUse"
       id="XMLID_471_">
      <stop
         id="stop59351"
         style="stop-color:#FFFFFF"
         offset="0.2472" />
      <stop
         id="stop59353"
         style="stop-color:#F3F4F5"
         offset="0.3006" />
      <stop
         id="stop59355"
         style="stop-color:#CBD0D6"
         offset="0.5083" />
      <stop
         id="stop59357"
         style="stop-color:#AFB9C2"
         offset="0.7007" />
      <stop
         id="stop59359"
         style="stop-color:#9EAAB6"
         offset="0.8706" />
      <stop
         id="stop59361"
         style="stop-color:#99A5B3"
         offset="1" />
      <a:midPointStop
         style="stop-color:#FFFFFF"
         offset="0.2472" />
      <a:midPointStop
         style="stop-color:#FFFFFF"
         offset="0.3507" />
      <a:midPointStop
         style="stop-color:#99A5B3"
         offset="1" />
    </linearGradient>
    <linearGradient
       y2="543.04242"
       x2="780.54187"
       y1="541.80182"
       x1="779.32422"
       gradientUnits="userSpaceOnUse"
       id="XMLID_470_">
      <stop
         id="stop59334"
         style="stop-color:#FFFFFF"
         offset="0.2472" />
      <stop
         id="stop59336"
         style="stop-color:#F3F4F5"
         offset="0.3006" />
      <stop
         id="stop59338"
         style="stop-color:#CBD0D6"
         offset="0.5083" />
      <stop
         id="stop59340"
         style="stop-color:#AFB9C2"
         offset="0.7007" />
      <stop
         id="stop59342"
         style="stop-color:#9EAAB6"
         offset="0.8706" />
      <stop
         id="stop59344"
         style="stop-color:#99A5B3"
         offset="1" />
      <a:midPointStop
         style="stop-color:#FFFFFF"
         offset="0.2472" />
      <a:midPointStop
         style="stop-color:#FFFFFF"
         offset="0.3507" />
      <a:midPointStop
         style="stop-color:#99A5B3"
         offset="1" />
    </linearGradient>
    <linearGradient
       y2="543.01923"
       x2="783.04901"
       y1="541.7998"
       x1="781.78607"
       gradientUnits="userSpaceOnUse"
       id="XMLID_469_">
      <stop
         id="stop59317"
         style="stop-color:#FFFFFF"
         offset="0.2472" />
      <stop
         id="stop59319"
         style="stop-color:#F3F4F5"
         offset="0.3006" />
      <stop
         id="stop59321"
         style="stop-color:#CBD0D6"
         offset="0.5083" />
      <stop
         id="stop59323"
         style="stop-color:#AFB9C2"
         offset="0.7007" />
      <stop
         id="stop59325"
         style="stop-color:#9EAAB6"
         offset="0.8706" />
      <stop
         id="stop59327"
         style="stop-color:#99A5B3"
         offset="1" />
      <a:midPointStop
         style="stop-color:#FFFFFF"
         offset="0.2472" />
      <a:midPointStop
         style="stop-color:#FFFFFF"
         offset="0.3507" />
      <a:midPointStop
         style="stop-color:#99A5B3"
         offset="1" />
    </linearGradient>
    <linearGradient
       y2="543.07141"
       x2="777.43848"
       y1="541.40143"
       x1="777.43848"
       gradientUnits="userSpaceOnUse"
       id="XMLID_468_">
      <stop
         id="stop59306"
         style="stop-color:#D0D5DA"
         offset="0.4551" />
      <stop
         id="stop59308"
         style="stop-color:#99A5B3"
         offset="0.8258" />
      <stop
         id="stop59310"
         style="stop-color:#9DA9B6"
         offset="1" />
      <a:midPointStop
         style="stop-color:#D0D5DA"
         offset="0.4551" />
      <a:midPointStop
         style="stop-color:#D0D5DA"
         offset="0.5" />
      <a:midPointStop
         style="stop-color:#99A5B3"
         offset="0.8258" />
      <a:midPointStop
         style="stop-color:#99A5B3"
         offset="0.5" />
      <a:midPointStop
         style="stop-color:#9DA9B6"
         offset="1" />
    </linearGradient>
    <linearGradient
       y2="543.07141"
       x2="779.9375"
       y1="541.40143"
       x1="779.9375"
       gradientUnits="userSpaceOnUse"
       id="XMLID_467_">
      <stop
         id="stop59297"
         style="stop-color:#D0D5DA"
         offset="0.4551" />
      <stop
         id="stop59299"
         style="stop-color:#99A5B3"
         offset="0.8258" />
      <stop
         id="stop59301"
         style="stop-color:#9DA9B6"
         offset="1" />
      <a:midPointStop
         style="stop-color:#D0D5DA"
         offset="0.4551" />
      <a:midPointStop
         style="stop-color:#D0D5DA"
         offset="0.5" />
      <a:midPointStop
         style="stop-color:#99A5B3"
         offset="0.8258" />
      <a:midPointStop
         style="stop-color:#99A5B3"
         offset="0.5" />
      <a:midPointStop
         style="stop-color:#9DA9B6"
         offset="1" />
    </linearGradient>
    <linearGradient
       y2="543.07141"
       x2="782.43549"
       y1="541.40143"
       x1="782.43549"
       gradientUnits="userSpaceOnUse"
       id="XMLID_466_">
      <stop
         id="stop59288"
         style="stop-color:#D0D5DA"
         offset="0.4551" />
      <stop
         id="stop59290"
         style="stop-color:#99A5B3"
         offset="0.8258" />
      <stop
         id="stop59292"
         style="stop-color:#9DA9B6"
         offset="1" />
      <a:midPointStop
         style="stop-color:#D0D5DA"
         offset="0.4551" />
      <a:midPointStop
         style="stop-color:#D0D5DA"
         offset="0.5" />
      <a:midPointStop
         style="stop-color:#99A5B3"
         offset="0.8258" />
      <a:midPointStop
         style="stop-color:#99A5B3"
         offset="0.5" />
      <a:midPointStop
         style="stop-color:#9DA9B6"
         offset="1" />
    </linearGradient>
    <linearGradient
       y2="544.37311"
       x2="771.21973"
       y1="561.37793"
       x1="771.21973"
       gradientUnits="userSpaceOnUse"
       id="XMLID_465_">
      <stop
         id="stop59273"
         style="stop-color:#FFFFFF"
         offset="0" />
      <stop
         id="stop59275"
         style="stop-color:#FFFFFF"
         offset="0.4101" />
      <stop
         id="stop59277"
         style="stop-color:#FBFCFA"
         offset="0.5919" />
      <stop
         id="stop59279"
         style="stop-color:#EEEFEB"
         offset="0.7746" />
      <stop
         id="stop59281"
         style="stop-color:#D9DCD5"
         offset="0.9572" />
      <stop
         id="stop59283"
         style="stop-color:#D3D7CF"
         offset="1" />
      <a:midPointStop
         style="stop-color:#FFFFFF"
         offset="0" />
      <a:midPointStop
         style="stop-color:#FFFFFF"
         offset="0.7062" />
      <a:midPointStop
         style="stop-color:#FFFFFF"
         offset="0.4101" />
      <a:midPointStop
         style="stop-color:#FFFFFF"
         offset="0.7062" />
      <a:midPointStop
         style="stop-color:#D3D7CF"
         offset="1" />
    </linearGradient>
    <linearGradient
       y2="562.61603"
       x2="771.21881"
       y1="542.0459"
       x1="771.21881"
       gradientUnits="userSpaceOnUse"
       id="XMLID_464_">
      <stop
         id="stop59256"
         style="stop-color:#ADBBCA"
         offset="0" />
      <stop
         id="stop59258"
         style="stop-color:#FFFFFF"
         offset="0.3483" />
      <stop
         id="stop59260"
         style="stop-color:#FFFFFF"
         offset="0.6742" />
      <stop
         id="stop59262"
         style="stop-color:#FBFCFC"
         offset="0.7588" />
      <stop
         id="stop59264"
         style="stop-color:#EFF2F5"
         offset="0.8439" />
      <stop
         id="stop59266"
         style="stop-color:#DAE2E8"
         offset="0.9289" />
      <stop
         id="stop59268"
         style="stop-color:#C3D2DD"
         offset="1" />
      <a:midPointStop
         style="stop-color:#ADBBCA"
         offset="0" />
      <a:midPointStop
         style="stop-color:#ADBBCA"
         offset="0.5" />
      <a:midPointStop
         style="stop-color:#FFFFFF"
         offset="0.3483" />
      <a:midPointStop
         style="stop-color:#FFFFFF"
         offset="0.7062" />
      <a:midPointStop
         style="stop-color:#FFFFFF"
         offset="0.6742" />
      <a:midPointStop
         style="stop-color:#FFFFFF"
         offset="0.7062" />
      <a:midPointStop
         style="stop-color:#C3D2DD"
         offset="1" />
    </linearGradient>
    <linearGradient
       y2="562.61572"
       x2="771.21881"
       y1="540.61719"
       x1="771.21881"
       gradientUnits="userSpaceOnUse"
       id="XMLID_463_">
      <stop
         id="stop59247"
         style="stop-color:#E8ECED"
         offset="0" />
      <stop
         id="stop59249"
         style="stop-color:#FFFFFF"
         offset="0.3483" />
      <stop
         id="stop59251"
         style="stop-color:#FFFFFF"
         offset="0.6742" />
      <a:midPointStop
         style="stop-color:#E8ECED"
         offset="0" />
      <a:midPointStop
         style="stop-color:#E8ECED"
         offset="0.5" />
      <a:midPointStop
         style="stop-color:#FFFFFF"
         offset="0.3483" />
      <a:midPointStop
         style="stop-color:#FFFFFF"
         offset="0.7062" />
      <a:midPointStop
         style="stop-color:#FFFFFF"
         offset="0.6742" />
    </linearGradient>
    <linearGradient
       y2="551.0168"
       x2="784.5"
       y1="586.0566"
       x1="784.5"
       gradientUnits="userSpaceOnUse"
       id="XMLID_472_"
       gradientTransform="translate(-757.06,-539.6278)">
      <stop
         id="stop59368"
         style="stop-color:#709EC3"
         offset="0" />
      <stop
         id="stop59370"
         style="stop-color:#72A0C4"
         offset="0.3828" />
      <stop
         id="stop59372"
         style="stop-color:#79A3C6"
         offset="0.5207" />
      <stop
         id="stop59374"
         style="stop-color:#83ABCA"
         offset="0.6189" />
      <stop
         id="stop59376"
         style="stop-color:#94B5D0"
         offset="0.6984" />
      <stop
         id="stop59378"
         style="stop-color:#A9C3D9"
         offset="0.7665" />
      <stop
         id="stop59380"
         style="stop-color:#C6D6E5"
         offset="0.8268" />
      <stop
         id="stop59382"
         style="stop-color:#E5ECF2"
         offset="0.8799" />
      <stop
         id="stop59384"
         style="stop-color:#FFFFFF"
         offset="0.9157" />
      <a:midPointStop
         style="stop-color:#709EC3"
         offset="0" />
      <a:midPointStop
         style="stop-color:#709EC3"
         offset="0.87" />
      <a:midPointStop
         style="stop-color:#FFFFFF"
         offset="0.9157" />
    </linearGradient>
    <linearGradient
       y2="586.1566"
       x2="784.5"
       y1="556.3604"
       x1="784.5"
       gradientUnits="userSpaceOnUse"
       id="XMLID_473_"
       gradientTransform="translate(-757.06,-539.6278)">
      <stop
         id="stop59389"
         style="stop-color:#6395BF"
         offset="0" />
      <stop
         id="stop59391"
         style="stop-color:#CCDBE8"
         offset="0.0899" />
      <stop
         id="stop59393"
         style="stop-color:#FFFFFF"
         offset="0.6742" />
      <stop
         id="stop59395"
         style="stop-color:#FBFDFE"
         offset="0.7275" />
      <stop
         id="stop59397"
         style="stop-color:#EFF5F8"
         offset="0.7812" />
      <stop
         id="stop59399"
         style="stop-color:#DBEAF2"
         offset="0.835" />
      <stop
         id="stop59401"
         style="stop-color:#BED9E8"
         offset="0.889" />
      <stop
         id="stop59403"
         style="stop-color:#9AC6DC"
         offset="0.9431" />
      <stop
         id="stop59405"
         style="stop-color:#6FAFCE"
         offset="0.9966" />
      <stop
         id="stop59407"
         style="stop-color:#6CADCD"
         offset="1" />
      <a:midPointStop
         style="stop-color:#6395BF"
         offset="0" />
      <a:midPointStop
         style="stop-color:#6395BF"
         offset="0.5" />
      <a:midPointStop
         style="stop-color:#CCDBE8"
         offset="0.0899" />
      <a:midPointStop
         style="stop-color:#CCDBE8"
         offset="0.5" />
      <a:midPointStop
         style="stop-color:#FFFFFF"
         offset="0.6742" />
      <a:midPointStop
         style="stop-color:#FFFFFF"
         offset="0.7062" />
      <a:midPointStop
         style="stop-color:#6CADCD"
         offset="1" />
    </linearGradient>
    <linearGradient
       y2="557.7296"
       x2="800.5313"
       y1="556.3213"
       x1="800.5313"
       gradientUnits="userSpaceOnUse"
       id="XMLID_474_">
      <stop
         id="stop59412"
         style="stop-color:#D9ADAE"
         offset="0.4551" />
      <stop
         id="stop59414"
         style="stop-color:#CB1009"
         offset="0.9438" />
      <a:midPointStop
         style="stop-color:#D9ADAE"
         offset="0.4551" />
      <a:midPointStop
         style="stop-color:#D9ADAE"
         offset="0.5" />
      <a:midPointStop
         style="stop-color:#CB1009"
         offset="0.9438" />
    </linearGradient>
    <linearGradient
       y2="558.06409"
       x2="801.37323"
       y1="556.13672"
       x1="799.81348"
       gradientUnits="userSpaceOnUse"
       id="XMLID_475_">
      <stop
         id="stop59421"
         style="stop-color:#FFFFFF"
         offset="0.2472" />
      <stop
         id="stop59423"
         style="stop-color:#E8C8B7"
         offset="0.3403" />
      <stop
         id="stop59425"
         style="stop-color:#CE896F"
         offset="0.472" />
      <stop
         id="stop59427"
         style="stop-color:#BA5942"
         offset="0.5993" />
      <stop
         id="stop59429"
         style="stop-color:#AB3825"
         offset="0.7189" />
      <stop
         id="stop59431"
         style="stop-color:#A22214"
         offset="0.829" />
      <stop
         id="stop59433"
         style="stop-color:#9B150B"
         offset="0.9261" />
      <stop
         id="stop59435"
         style="stop-color:#991109"
         offset="1" />
      <a:midPointStop
         style="stop-color:#FFFFFF"
         offset="0.2472" />
      <a:midPointStop
         style="stop-color:#FFFFFF"
         offset="0.3507" />
      <a:midPointStop
         style="stop-color:#991109"
         offset="1" />
    </linearGradient>
    <linearGradient
       y2="557.8331"
       x2="797.2539"
       y1="556.2705"
       x1="797.2539"
       gradientUnits="userSpaceOnUse"
       id="XMLID_476_">
      <stop
         id="stop59440"
         style="stop-color:#A0C6DE"
         offset="0.4551" />
      <stop
         id="stop59442"
         style="stop-color:#3165A1"
         offset="0.9438" />
      <a:midPointStop
         style="stop-color:#A0C6DE"
         offset="0.4551" />
      <a:midPointStop
         style="stop-color:#A0C6DE"
         offset="0.5" />
      <a:midPointStop
         style="stop-color:#3165A1"
         offset="0.9438" />
    </linearGradient>
    <linearGradient
       y2="557.87592"
       x2="797.99579"
       y1="556.1416"
       x1="796.48138"
       gradientUnits="userSpaceOnUse"
       id="XMLID_477_">
      <stop
         id="stop59449"
         style="stop-color:#FFFFFF"
         offset="0.2472" />
      <stop
         id="stop59451"
         style="stop-color:#FCFDFE"
         offset="0.2526" />
      <stop
         id="stop59453"
         style="stop-color:#AEBDD5"
         offset="0.401" />
      <stop
         id="stop59455"
         style="stop-color:#7392BA"
         offset="0.5332" />
      <stop
         id="stop59457"
         style="stop-color:#4875A9"
         offset="0.6444" />
      <stop
         id="stop59459"
         style="stop-color:#3066A0"
         offset="0.7305" />
      <stop
         id="stop59461"
         style="stop-color:#27609D"
         offset="0.7809" />
      <stop
         id="stop59463"
         style="stop-color:#355787"
         offset="1" />
      <a:midPointStop
         style="stop-color:#FFFFFF"
         offset="0.2472" />
      <a:midPointStop
         style="stop-color:#FFFFFF"
         offset="0.4105" />
      <a:midPointStop
         style="stop-color:#27609D"
         offset="0.7809" />
      <a:midPointStop
         style="stop-color:#27609D"
         offset="0.5" />
      <a:midPointStop
         style="stop-color:#355787"
         offset="1" />
    </linearGradient>
    <linearGradient
       y2="557.8331"
       x2="793.9746"
       y1="556.2705"
       x1="793.9746"
       gradientUnits="userSpaceOnUse"
       id="XMLID_478_">
      <stop
         id="stop59468"
         style="stop-color:#A0C6DE"
         offset="0.4551" />
      <stop
         id="stop59470"
         style="stop-color:#3165A1"
         offset="0.9438" />
      <a:midPointStop
         style="stop-color:#A0C6DE"
         offset="0.4551" />
      <a:midPointStop
         style="stop-color:#A0C6DE"
         offset="0.5" />
      <a:midPointStop
         style="stop-color:#3165A1"
         offset="0.9438" />
    </linearGradient>
    <linearGradient
       y2="557.90527"
       x2="794.66357"
       y1="556.1084"
       x1="793.25592"
       gradientUnits="userSpaceOnUse"
       id="XMLID_479_">
      <stop
         id="stop59477"
         style="stop-color:#FFFFFF"
         offset="0.2472" />
      <stop
         id="stop59479"
         style="stop-color:#FCFDFE"
         offset="0.2526" />
      <stop
         id="stop59481"
         style="stop-color:#AEBDD5"
         offset="0.401" />
      <stop
         id="stop59483"
         style="stop-color:#7392BA"
         offset="0.5332" />
      <stop
         id="stop59485"
         style="stop-color:#4875A9"
         offset="0.6444" />
      <stop
         id="stop59487"
         style="stop-color:#3066A0"
         offset="0.7305" />
      <stop
         id="stop59489"
         style="stop-color:#27609D"
         offset="0.7809" />
      <stop
         id="stop59491"
         style="stop-color:#355787"
         offset="1" />
      <a:midPointStop
         style="stop-color:#FFFFFF"
         offset="0.2472" />
      <a:midPointStop
         style="stop-color:#FFFFFF"
         offset="0.4105" />
      <a:midPointStop
         style="stop-color:#27609D"
         offset="0.7809" />
      <a:midPointStop
         style="stop-color:#27609D"
         offset="0.5" />
      <a:midPointStop
         style="stop-color:#355787"
         offset="1" />
    </linearGradient>
    <linearGradient
       y2="584.71057"
       x2="802.10309"
       y1="559.55469"
       x1="767.06641"
       gradientUnits="userSpaceOnUse"
       id="XMLID_481_">
      <stop
         id="stop59513"
         style="stop-color:#263D4C"
         offset="0" />
      <stop
         id="stop59515"
         style="stop-color:#446D8C"
         offset="0.3483" />
      <stop
         id="stop59517"
         style="stop-color:#698499"
         offset="1" />
      <a:midPointStop
         style="stop-color:#263D4C"
         offset="0" />
      <a:midPointStop
         style="stop-color:#263D4C"
         offset="0.5" />
      <a:midPointStop
         style="stop-color:#446D8C"
         offset="0.3483" />
      <a:midPointStop
         style="stop-color:#446D8C"
         offset="0.5" />
      <a:midPointStop
         style="stop-color:#698499"
         offset="1" />
    </linearGradient>
    <linearGradient
       y2="559.51172"
       x2="784.5"
       y1="584.57813"
       x1="784.5"
       gradientUnits="userSpaceOnUse"
       id="XMLID_480_">
      <stop
         id="stop59498"
         style="stop-color:#FFFFFF"
         offset="0" />
      <stop
         id="stop59500"
         style="stop-color:#FFFFFF"
         offset="0.4101" />
      <stop
         id="stop59502"
         style="stop-color:#FBFCFA"
         offset="0.5919" />
      <stop
         id="stop59504"
         style="stop-color:#EEEFEB"
         offset="0.7746" />
      <stop
         id="stop59506"
         style="stop-color:#D9DCD5"
         offset="0.9572" />
      <stop
         id="stop59508"
         style="stop-color:#D3D7CF"
         offset="1" />
      <a:midPointStop
         style="stop-color:#FFFFFF"
         offset="0" />
      <a:midPointStop
         style="stop-color:#FFFFFF"
         offset="0.7062" />
      <a:midPointStop
         style="stop-color:#FFFFFF"
         offset="0.4101" />
      <a:midPointStop
         style="stop-color:#FFFFFF"
         offset="0.7062" />
      <a:midPointStop
         style="stop-color:#D3D7CF"
         offset="1" />
    </linearGradient>
    <linearGradient
       gradientTransform="matrix(0,-1,-1,0,259.812,95.12895)"
       y2="233.4395"
       x2="75.0697"
       y1="233.4395"
       x1="84.022"
       gradientUnits="userSpaceOnUse"
       id="XMLID_482_">
      <stop
         id="stop59524"
         style="stop-color:#E96712"
         offset="0" />
      <stop
         id="stop59526"
         style="stop-color:#D4290C"
         offset="0.6477" />
      <stop
         id="stop59528"
         style="stop-color:#CB1009"
         offset="1" />
      <a:midPointStop
         style="stop-color:#E96712"
         offset="0" />
      <a:midPointStop
         style="stop-color:#E96712"
         offset="0.4689" />
      <a:midPointStop
         style="stop-color:#CB1009"
         offset="1" />
    </linearGradient>
  </defs>
  <sodipodi:namedview
     id="base"
     pagecolor="#ffffff"
     bordercolor="#666666"
     borderopacity="1.0"
     inkscape:pageopacity="0.0"
     inkscape:pageshadow="2"
     inkscape:zoom="11.3125"
     inkscape:cx="45.025366"
     inkscape:cy="20"
     inkscape:current-layer="layer1"
     showgrid="true"
     inkscape:grid-bbox="true"
     inkscape:document-units="px"
     inkscape:window-width="1197"
     inkscape:window-height="1101"
     inkscape:window-x="296"
     inkscape:window-y="9" />
  <metadata
     id="metadata81306">
    <rdf:RDF>
      <cc:Work
         rdf:about="">
        <dc:format>image/svg+xml</dc:format>
        <dc:type
           rdf:resource="http://purl.org/dc/dcmitype/StillImage" />
      </cc:Work>
    </rdf:RDF>
  </metadata>
  <g
     id="layer1"
     inkscape:label="Layer 1"
     inkscape:groupmode="layer">
    <path
       style="font-size:24px;font-style:normal;font-weight:bold;fill:none;fill-opacity:1;stroke:#ffffff;stroke-width:3;stroke-linecap:butt;stroke-linejoin:miter;stroke-miterlimit:4;stroke-opacity:0.50196078;font-family:Bitstream Vera Sans"
       d="M 40.074218,10.726563 C 41.253893,11.031259 42.150377,11.560556 42.763671,12.314453 C 43.376938,13.068367 43.683579,14.02735 43.683593,15.191406 C 43.683579,16.925785 43.019517,18.244143 41.691406,19.146484 C 40.363269,20.048828 38.425771,20.5 35.878906,20.5 C 34.980462,20.5 34.080073,20.427734 33.177734,20.283203 C 32.275387,20.138672 31.38281,19.921875 30.5,19.632813 L 30.5,16.152344 C 31.343747,16.574222 32.181637,16.892581 33.013671,17.107422 C 33.845698,17.322269 34.664056,17.42969 35.46875,17.429688 C 36.664054,17.42969 37.580069,17.222659 38.216796,16.808594 C 38.853505,16.394535 39.171864,15.800786 39.171875,15.027344 C 39.171864,14.230475 38.845693,13.62696 38.193359,13.216797 C 37.541007,12.806648 36.578117,12.60157 35.304687,12.601563 L 33.5,12.601563 L 33.5,9.695313 L 35.398437,9.695313 C 36.531242,9.695323 37.374991,9.517589 37.929687,9.162109 C 38.484365,8.806652 38.761708,8.265637 38.761718,7.5390626 C 38.761708,6.8672006 38.492177,6.3476697 37.953125,5.9804684 C 37.414054,5.6132955 36.652336,5.4297019 35.667968,5.4296872 C 34.9414,5.4297019 34.207026,5.5117331 33.464843,5.6757809 C 32.722652,5.8398578 31.984372,6.082045 31.25,6.4023434 L 31.25,3.0976559 C 32.140621,2.8476732 33.023433,2.6601734 33.898437,2.5351559 C 34.773431,2.4101737 35.632805,2.3476737 36.476562,2.3476559 C 38.74999,2.3476737 40.45116,2.7207203 41.580078,3.4667966 C 42.70897,4.2129063 43.273423,5.335952 43.273437,6.8359376 C 43.273423,7.859387 43.003892,8.697277 42.464843,9.349609 C 41.925768,10.001963 41.128894,10.460947 40.074218,10.726563 L 40.074218,10.726563 z "
       id="path27034" />
    <path
       style="font-size:24px;font-style:normal;font-weight:bold;fill:none;fill-opacity:1;stroke:#ffffff;stroke-width:3;stroke-linecap:butt;stroke-linejoin:miter;stroke-miterlimit:4;stroke-opacity:0.50196078;font-family:Bitstream Vera Sans"
       d="M 21.265625,7.0351556 L 25.496093,7.0351556 L 25.496093,11.570313 L 21.265625,11.570313 L 21.265625,7.0351556 z "
       id="path27032" />
    <path
       style="font-size:24px;font-style:normal;font-weight:bold;fill:none;fill-opacity:1;stroke:#ffffff;stroke-width:3;stroke-linecap:butt;stroke-linejoin:miter;stroke-miterlimit:4;stroke-opacity:0.50196078;font-family:Bitstream Vera Sans"
       d="M 21.265625,15.625 L 25.496093,15.625 L 25.496093,20.160156 L 21.265625,20.160156 L 21.265625,15.625 z "
       id="path27030" />
    <path
       style="font-size:24px;font-style:normal;font-weight:bold;fill:none;fill-opacity:1;stroke:#ffffff;stroke-width:3;stroke-linecap:butt;stroke-linejoin:miter;stroke-miterlimit:4;stroke-opacity:0.50196078;font-family:Bitstream Vera Sans"
       d="M 8.800781,16.84375 L 16.5,16.84375 L 16.5,20.160156 L 3.785156,20.160156 L 3.785156,16.84375 L 10.171875,11.207031 C 10.742179,10.691416 11.164053,10.18751 11.4375,9.695313 C 11.710928,9.203136 11.847646,8.691418 11.847656,8.160156 C 11.847646,7.3398566 11.572256,6.6797007 11.021484,6.1796872 C 10.470695,5.6797017 9.738273,5.4297019 8.824219,5.4296872 C 8.121088,5.4297019 7.351557,5.5800924 6.515625,5.8808591 C 5.679684,6.1816543 4.785153,6.6289195 3.832031,7.2226556 L 3.832031,3.3789059 C 4.847653,3.0429856 5.851559,2.7871264 6.84375,2.6113278 C 7.835932,2.4355643 8.808587,2.3476737 9.761719,2.3476559 C 11.855459,2.3476737 13.48241,2.8086108 14.642578,3.7304684 C 15.802721,4.6523589 16.382798,5.9375139 16.382813,7.585938 C 16.382798,8.539074 16.136705,9.427745 15.644531,10.251953 C 15.152331,11.076181 14.117175,12.179696 12.539063,13.5625 L 8.800781,16.84375 z "
       id="text21302" />
    <g
       transform="matrix(1.0156677,-3.8542872e-3,2.7821082e-3,1.4072886,-1.8142416,-697.23825)"
       id="g22937">
      <path
         id="path22939"
         d="M 47.669,528.135 L 47.669,527.087 L 46.972,527.085 C 46.901,527.086 46.841,527.027 46.843,526.955 L 46.842,525.915 C 46.843,525.845 46.9,525.785 46.972,525.786 L 47.669,525.785 L 47.669,514.337 L 46.97,514.335 C 46.898,514.336 46.839,514.277 46.839,514.205 L 46.839,513.168 C 46.839,513.095 46.896,513.035 46.97,513.037 L 47.669,513.036 L 47.669,511.922 L 0.384,511.923 L 0.384,513.025 L 1.122,513.025 C 1.195,513.024 1.253,513.084 1.253,513.155 L 1.254,514.194 C 1.253,514.267 1.194,514.324 1.123,514.325 L 0.384,514.325 L 0.386,525.774 L 1.126,525.774 C 1.198,525.774 1.257,525.832 1.257,525.905 L 1.257,526.944 C 1.257,527.014 1.198,527.074 1.125,527.075 L 0.385,527.074 L 0.384,528.136 L 47.669,528.136 L 47.669,528.135 z M 2.381,514.324 C 2.308,514.325 2.249,514.267 2.249,514.196 L 2.249,513.155 C 2.25,513.085 2.308,513.025 2.38,513.026 L 4.096,513.025 C 4.169,513.026 4.227,513.084 4.226,513.155 L 4.227,514.194 C 4.226,514.266 4.169,514.326 4.094,514.327 L 2.381,514.324 z M 5.353,514.326 C 5.281,514.327 5.222,514.266 5.222,514.196 L 5.222,513.157 C 5.224,513.085 5.281,513.027 5.355,513.026 L 7.068,513.026 C 7.141,513.026 7.2,513.084 7.199,513.157 L 7.199,514.196 C 7.199,514.268 7.142,514.326 7.07,514.325 L 5.353,514.326 z M 8.325,514.328 C 8.253,514.327 8.194,514.268 8.196,514.196 L 8.195,513.155 C 8.195,513.086 8.254,513.027 8.325,513.028 L 10.041,513.026 C 10.114,513.028 10.171,513.086 10.173,513.157 L 10.172,514.196 C 10.171,514.268 10.113,514.328 10.04,514.329 L 8.325,514.328 z M 11.298,514.328 C 11.228,514.327 11.169,514.268 11.168,514.198 L 11.167,513.159 C 11.168,513.086 11.226,513.026 11.299,513.028 L 13.013,513.028 C 13.086,513.027 13.145,513.086 13.144,513.158 L 13.145,514.198 C 13.144,514.27 13.085,514.33 13.013,514.328 L 11.298,514.328 z M 14.272,514.33 C 14.198,514.328 14.139,514.27 14.139,514.197 L 14.139,513.158 C 14.141,513.086 14.198,513.028 14.27,513.029 L 15.985,513.03 C 16.057,513.029 16.115,513.087 16.116,513.16 L 16.116,514.197 C 16.116,514.27 16.057,514.329 15.987,514.329 L 14.272,514.33 z M 17.242,514.329 C 17.171,514.33 17.112,514.27 17.113,514.2 L 17.112,513.16 C 17.114,513.088 17.173,513.028 17.245,513.03 L 18.96,513.028 C 19.031,513.029 19.089,513.09 19.089,513.16 L 19.089,514.197 C 19.091,514.27 19.03,514.329 18.96,514.328 L 17.242,514.329 z M 20.217,514.33 C 20.144,514.33 20.085,514.272 20.086,514.199 L 20.085,513.16 C 20.085,513.09 20.145,513.03 20.216,513.031 L 21.931,513.03 C 22.005,513.029 22.062,513.089 22.063,513.162 L 22.062,514.199 C 22.062,514.272 22.004,514.331 21.931,514.33 L 20.217,514.33 z M 23.188,514.331 C 23.116,514.332 23.056,514.273 23.057,514.201 L 23.057,513.162 C 23.059,513.088 23.116,513.032 23.189,513.031 L 24.903,513.032 C 24.976,513.031 25.034,513.089 25.034,513.162 L 25.034,514.201 C 25.034,514.272 24.975,514.331 24.903,514.332 L 23.188,514.331 z M 26.161,514.331 C 26.09,514.332 26.03,514.274 26.03,514.201 L 26.032,513.162 C 26.03,513.091 26.089,513.03 26.161,513.031 L 27.878,513.03 C 27.948,513.033 28.006,513.091 28.007,513.162 L 28.008,514.201 C 28.007,514.273 27.948,514.333 27.876,514.332 L 26.161,514.331 z M 29.133,514.333 C 29.061,514.332 29.003,514.273 29.005,514.201 L 29.003,513.164 C 29.003,513.089 29.062,513.031 29.134,513.033 L 30.849,513.033 C 30.921,513.032 30.981,513.091 30.98,513.164 L 30.98,514.203 C 30.98,514.273 30.921,514.333 30.848,514.333 L 29.133,514.333 z M 32.107,514.333 C 32.034,514.334 31.975,514.273 31.976,514.203 L 31.975,513.166 C 31.977,513.091 32.035,513.034 32.106,513.032 L 33.822,513.033 C 33.893,513.034 33.952,513.093 33.952,513.163 L 33.952,514.203 C 33.952,514.275 33.893,514.333 33.821,514.333 L 32.107,514.333 L 32.107,514.333 z M 35.079,514.334 C 35.007,514.333 34.948,514.274 34.948,514.202 L 34.948,513.164 C 34.949,513.092 35.007,513.032 35.078,513.033 L 36.794,513.034 C 36.867,513.033 36.926,513.092 36.925,513.164 L 36.924,514.203 C 36.925,514.276 36.866,514.334 36.794,514.334 L 35.079,514.334 z M 38.052,514.334 C 37.979,514.334 37.921,514.276 37.921,514.203 L 37.921,513.164 C 37.921,513.092 37.98,513.034 38.052,513.033 L 39.767,513.034 C 39.839,513.035 39.897,513.093 39.898,513.164 L 39.898,514.203 C 39.898,514.276 39.839,514.333 39.767,514.334 L 38.052,514.334 z M 41.023,514.335 C 40.952,514.336 40.893,514.276 40.893,514.203 L 40.893,513.166 C 40.893,513.092 40.952,513.034 41.024,513.033 L 42.74,513.034 C 42.811,513.035 42.869,513.093 42.87,513.166 L 42.87,514.205 C 42.869,514.277 42.811,514.335 42.739,514.336 L 41.023,514.335 z M 43.995,514.337 C 43.924,514.336 43.866,514.276 43.867,514.205 L 43.866,513.168 C 43.866,513.094 43.924,513.036 43.999,513.035 L 45.714,513.034 C 45.784,513.035 45.843,513.095 45.843,513.166 L 45.843,514.205 C 45.841,514.277 45.784,514.337 45.712,514.336 L 43.995,514.337 z M 45.715,525.784 C 45.787,525.785 45.845,525.844 45.845,525.918 L 45.845,526.955 C 45.845,527.028 45.786,527.088 45.716,527.087 L 44,527.085 C 43.927,527.084 43.869,527.025 43.868,526.953 L 43.868,525.915 C 43.87,525.843 43.928,525.786 43.999,525.785 L 45.715,525.784 z M 42.742,525.784 C 42.815,525.786 42.874,525.844 42.872,525.917 L 42.874,526.954 C 42.872,527.026 42.813,527.086 42.743,527.085 L 41.027,527.084 C 40.954,527.085 40.895,527.026 40.895,526.956 L 40.895,525.914 C 40.896,525.844 40.954,525.785 41.028,525.784 L 42.742,525.784 z M 39.77,525.787 C 39.843,525.786 39.9,525.842 39.9,525.915 L 39.902,526.954 C 39.9,527.026 39.843,527.084 39.769,527.085 L 38.055,527.084 C 37.983,527.083 37.923,527.026 37.924,526.954 L 37.925,525.915 C 37.925,525.843 37.984,525.783 38.056,525.784 L 39.77,525.787 z M 36.797,525.783 C 36.87,525.784 36.928,525.842 36.929,525.913 L 36.929,526.952 C 36.927,527.024 36.868,527.084 36.798,527.083 L 35.082,527.085 C 35.01,527.083 34.952,527.025 34.95,526.954 L 34.95,525.915 C 34.95,525.842 35.009,525.783 35.082,525.784 L 36.797,525.783 z M 33.824,525.781 C 33.897,525.782 33.955,525.843 33.954,525.913 L 33.955,526.952 C 33.954,527.024 33.895,527.084 33.823,527.083 L 32.109,527.083 C 32.037,527.084 31.978,527.023 31.978,526.952 L 31.979,525.913 C 31.977,525.84 32.037,525.783 32.11,525.782 L 33.824,525.781 z M 30.853,525.781 C 30.925,525.782 30.983,525.841 30.982,525.913 L 30.984,526.951 C 30.984,527.023 30.923,527.082 30.853,527.081 L 29.136,527.083 C 29.064,527.081 29.007,527.023 29.005,526.95 L 29.006,525.911 C 29.007,525.841 29.066,525.781 29.137,525.782 L 30.853,525.781 z M 27.88,525.781 C 27.952,525.782 28.009,525.839 28.011,525.911 L 28.01,526.95 C 28.009,527.023 27.952,527.081 27.878,527.081 L 26.164,527.081 C 26.092,527.08 26.032,527.023 26.034,526.949 L 26.034,525.911 C 26.034,525.839 26.093,525.779 26.163,525.78 L 27.88,525.781 z M 24.907,525.779 C 24.979,525.781 25.037,525.839 25.036,525.911 L 25.036,526.95 C 25.037,527.023 24.979,527.081 24.906,527.082 L 23.192,527.079 C 23.118,527.08 23.059,527.021 23.061,526.949 L 23.059,525.911 C 23.061,525.839 23.12,525.78 23.191,525.781 L 24.907,525.779 z M 21.935,525.779 C 22.007,525.779 22.065,525.839 22.066,525.91 L 22.066,526.949 C 22.064,527.021 22.007,527.079 21.933,527.08 L 20.22,527.079 C 20.148,527.08 20.087,527.021 20.089,526.949 L 20.089,525.908 C 20.089,525.837 20.147,525.78 20.218,525.779 L 21.935,525.779 L 21.935,525.779 z M 18.962,525.778 C 19.034,525.777 19.092,525.837 19.091,525.91 L 19.092,526.949 C 19.091,527.019 19.032,527.079 18.962,527.078 L 17.247,527.079 C 17.173,527.08 17.116,527.02 17.114,526.947 L 17.116,525.908 C 17.115,525.837 17.175,525.778 17.247,525.777 L 18.962,525.778 z M 15.989,525.778 C 16.061,525.777 16.12,525.835 16.12,525.908 L 16.119,526.947 C 16.118,527.019 16.061,527.077 15.987,527.078 L 14.273,527.077 C 14.2,527.078 14.143,527.02 14.142,526.947 L 14.141,525.908 C 14.143,525.836 14.202,525.776 14.274,525.777 L 15.989,525.778 z M 13.017,525.778 C 13.089,525.777 13.147,525.835 13.146,525.908 L 13.147,526.947 C 13.146,527.017 13.089,527.077 13.016,527.078 L 11.302,527.078 C 11.229,527.076 11.171,527.018 11.171,526.945 L 11.171,525.906 C 11.17,525.835 11.23,525.776 11.302,525.777 L 13.017,525.778 z M 10.045,525.774 C 10.117,525.775 10.173,525.835 10.175,525.908 L 10.174,526.945 C 10.175,527.018 10.115,527.077 10.044,527.076 L 8.328,527.076 C 8.255,527.076 8.198,527.018 8.198,526.946 L 8.198,525.906 C 8.197,525.836 8.257,525.776 8.329,525.775 L 10.045,525.774 z M 2.383,527.074 C 2.312,527.075 2.251,527.016 2.252,526.944 L 2.251,525.904 C 2.253,525.832 2.311,525.774 2.384,525.774 L 4.099,525.774 C 4.171,525.775 4.23,525.832 4.23,525.904 L 4.23,526.944 C 4.228,527.016 4.17,527.076 4.099,527.075 L 2.383,527.074 z M 5.226,525.906 C 5.226,525.832 5.283,525.776 5.356,525.775 L 7.07,525.776 C 7.144,525.775 7.202,525.834 7.201,525.906 L 7.203,526.944 C 7.203,527.016 7.144,527.076 7.072,527.075 L 5.357,527.076 C 5.285,527.075 5.226,527.016 5.224,526.943 L 5.226,525.906 z "
         i:knockout="Off" />
    </g>
    <path
       style="fill:url(#XMLID_205_)"
       id="path22946"
       d="M 33.311039,41.145262 C 33.18814,41.144321 33.088334,41.008189 33.087996,40.837909 L 33.060774,28.094918 C 33.062469,27.924629 33.160716,27.786341 33.283611,27.785873 L 46.575658,27.736838 C 46.698548,27.733557 46.798357,27.872501 46.799707,28.039965 L 46.823886,40.785781 C 46.824222,40.956062 46.72496,41.094356 46.604095,41.094815 L 33.311039,41.145262 z "
       i:knockout="Off" />
    <path
       style="fill:url(#XMLID_206_)"
       id="path22953"
       d="M 17.494041,41.203878 C 17.371147,41.204345 17.273373,41.068208 17.273034,40.896521 L 17.24581,28.153529 C 17.245478,27.986061 17.344736,27.844954 17.467632,27.844489 L 30.760693,27.795449 C 30.88359,27.794981 30.983397,27.932519 30.982716,28.101398 L 31.008931,40.848613 C 31.009263,41.01608 30.909996,41.152963 30.788119,41.154833 L 17.494041,41.203878 z "
       i:knockout="Off" />
    <path
       style="fill:url(#XMLID_207_)"
       id="path22960"
       d="M 1.6821268,41.262478 C 1.5572047,41.265766 1.4584157,41.129633 1.4590891,40.956532 L 1.4318635,28.212134 C 1.4315275,28.041855 1.5307968,27.907783 1.6547035,27.904497 L 14.946749,27.855463 C 15.069646,27.854998 15.168435,27.991128 15.168771,28.161411 L 15.194978,40.904404 C 15.195314,41.074686 15.096054,41.212978 14.973157,41.213443 L 1.6821268,41.262478 z "
       i:knockout="Off" />
    <path
       style="font-size:24px;font-style:normal;font-weight:bold;fill:#000000;fill-opacity:1;stroke:none;stroke-width:1px;stroke-linecap:butt;stroke-linejoin:miter;stroke-opacity:1;font-family:Bitstream Vera Sans"
       d="M 40.074218,10.726562 C 41.253893,11.031258 42.150377,11.560555 42.763671,12.314452 C 43.376938,13.068366 43.683578,14.027349 43.683593,15.191405 C 43.683578,16.925784 43.019517,18.244142 41.691406,19.146485 C 40.363269,20.048827 38.425771,20.499999 35.878906,20.499999 C 34.980462,20.499999 34.080072,20.427733 33.177734,20.283202 C 32.275387,20.138671 31.382809,19.921874 30.5,19.632813 L 30.5,16.152343 C 31.343747,16.574222 32.181637,16.892581 33.013671,17.107421 C 33.845698,17.322269 34.664056,17.429689 35.46875,17.429688 C 36.664054,17.429689 37.580069,17.222658 38.216796,16.808593 C 38.853505,16.394534 39.171864,15.800786 39.171875,15.027343 C 39.171864,14.230474 38.845693,13.626959 38.193359,13.216796 C 37.541006,12.806647 36.578117,12.601569 35.304687,12.601562 L 33.5,12.601562 L 33.5,9.695312 L 35.398437,9.695312 C 36.531242,9.695323 37.374991,9.517588 37.929687,9.162109 C 38.484365,8.806652 38.761708,8.265637 38.761718,7.5390622 C 38.761708,6.8672005 38.492177,6.3476698 37.953125,5.9804685 C 37.414053,5.6132955 36.652335,5.429702 35.667968,5.4296872 C 34.9414,5.429702 34.207025,5.5117331 33.464843,5.675781 C 32.722652,5.8398578 31.984371,6.082045 31.25,6.4023435 L 31.25,3.097656 C 32.140621,2.8476733 33.023433,2.6601735 33.898437,2.535156 C 34.773431,2.4101737 35.632805,2.3476738 36.476562,2.347656 C 38.74999,2.3476738 40.45116,2.7207203 41.580078,3.4667966 C 42.70897,4.2129063 43.273423,5.335952 43.273437,6.8359372 C 43.273423,7.859387 43.003892,8.697277 42.464843,9.349609 C 41.925768,10.001963 41.128894,10.460946 40.074218,10.726562 L 40.074218,10.726562 z "
       id="path27042" />
    <path
       style="font-size:24px;font-style:normal;font-weight:bold;fill:#000000;fill-opacity:1;stroke:none;stroke-width:1px;stroke-linecap:butt;stroke-linejoin:miter;stroke-opacity:1;font-family:Bitstream Vera Sans"
       d="M 21.265625,7.035156 L 25.496093,7.035156 L 25.496093,11.570312 L 21.265625,11.570312 L 21.265625,7.035156 z "
       id="path27040" />
    <path
       style="font-size:24px;font-style:normal;font-weight:bold;fill:#000000;fill-opacity:1;stroke:none;stroke-width:1px;stroke-linecap:butt;stroke-linejoin:miter;stroke-opacity:1;font-family:Bitstream Vera Sans"
       d="M 21.265625,15.624999 L 25.496093,15.624999 L 25.496093,20.160155 L 21.265625,20.160155 L 21.265625,15.624999 z "
       id="path27038" />
    <path
       style="font-size:24px;font-style:normal;font-weight:bold;fill:#000000;fill-opacity:1;stroke:none;stroke-width:1px;stroke-linecap:butt;stroke-linejoin:miter;stroke-opacity:1;font-family:Bitstream Vera Sans"
       d="M 8.800781,16.843749 L 16.5,16.843749 L 16.5,20.160155 L 3.785156,20.160155 L 3.785156,16.843749 L 10.171875,11.20703 C 10.742179,10.691415 11.164053,10.187509 11.4375,9.695312 C 11.710928,9.203136 11.847646,8.691417 11.847656,8.160156 C 11.847646,7.3398563 11.572256,6.6797007 11.021484,6.1796872 C 10.470695,5.6797017 9.738273,5.429702 8.824219,5.4296872 C 8.121088,5.429702 7.351557,5.5800924 6.515625,5.8808591 C 5.679684,6.1816543 4.785153,6.6289195 3.832031,7.222656 L 3.832031,3.378906 C 4.847653,3.0429856 5.851559,2.7871265 6.84375,2.6113278 C 7.835932,2.4355643 8.808587,2.3476738 9.761719,2.347656 C 11.855459,2.3476738 13.48241,2.8086108 14.642578,3.7304685 C 15.80272,4.652359 16.382798,5.9375139 16.382813,7.585937 C 16.382798,8.539074 16.136705,9.427745 15.644531,10.251952 C 15.15233,11.07618 14.117175,12.179695 12.539063,13.562499 L 8.800781,16.843749 z "
       id="text21298" />
  </g>
</svg>
