<?xml version="1.0" encoding="UTF-8" standalone="no"?>
<!-- Created with Inkscape (http://www.inkscape.org/) -->
<svg
   xmlns:a="http://ns.adobe.com/AdobeSVGViewerExtensions/3.0/"
   xmlns:i="http://ns.adobe.com/AdobeIllustrator/10.0/"
   xmlns:dc="http://purl.org/dc/elements/1.1/"
   xmlns:cc="http://web.resource.org/cc/"
   xmlns:rdf="http://www.w3.org/1999/02/22-rdf-syntax-ns#"
   xmlns:svg="http://www.w3.org/2000/svg"
   xmlns="http://www.w3.org/2000/svg"
   xmlns:sodipodi="http://sodipodi.sourceforge.net/DTD/sodipodi-0.dtd"
   xmlns:inkscape="http://www.inkscape.org/namespaces/inkscape"
   width="48px"
   height="48px"
   id="svg25674"
   sodipodi:version="0.32"
   inkscape:version="0.45.1"
   sodipodi:docbase="C:\dev\src\houdini\support\icons\COP2"
   sodipodi:docname="reverse.svg"
   inkscape:output_extension="org.inkscape.output.svg.inkscape">
  <defs
     id="defs25676">
    <linearGradient
       gradientTransform="matrix(0.227744,0.9862235,-0.9861821,0.2277536,1348.5671,2036.5658)"
       y2="850.9393"
       x2="-2226.0481"
       y1="799.5093"
       x1="-2238.1064"
       gradientUnits="userSpaceOnUse"
       id="XMLID_205_">
				<stop
   id="stop22942"
   style="stop-color:#FFFFFF"
   offset="0" />

				<stop
   id="stop22944"
   style="stop-color:#B8C0CA"
   offset="1" />

				<a:midPointStop
   style="stop-color:#FFFFFF"
   offset="0" />

				<a:midPointStop
   style="stop-color:#FFFFFF"
   offset="0.5" />

				<a:midPointStop
   style="stop-color:#B8C0CA"
   offset="1" />

			</linearGradient>
    <linearGradient
       y2="515.8241"
       x2="3.6057"
       y1="524.394"
       x1="45.4092"
       gradientUnits="userSpaceOnUse"
       id="XMLID_206_"
       gradientTransform="matrix(1.0121955,0,0,1.0122381,-0.1766592,-509.89599)">
				<stop
   id="stop22949"
   style="stop-color:#FFFFFF"
   offset="0" />

				<stop
   id="stop22951"
   style="stop-color:#B8C0CA"
   offset="1" />

				<a:midPointStop
   style="stop-color:#FFFFFF"
   offset="0" />

				<a:midPointStop
   style="stop-color:#FFFFFF"
   offset="0.5" />

				<a:midPointStop
   style="stop-color:#B8C0CA"
   offset="1" />

			</linearGradient>
    <linearGradient
       gradientTransform="matrix(0.227744,0.9862235,-0.9861821,0.2277536,1348.5671,2036.5658)"
       y2="854.0769"
       x2="-2239.4355"
       y1="802.6499"
       x1="-2251.4932"
       gradientUnits="userSpaceOnUse"
       id="XMLID_207_">
				<stop
   id="stop22956"
   style="stop-color:#FFFFFF"
   offset="0" />

				<stop
   id="stop22958"
   style="stop-color:#B8C0CA"
   offset="1" />

				<a:midPointStop
   style="stop-color:#FFFFFF"
   offset="0" />

				<a:midPointStop
   style="stop-color:#FFFFFF"
   offset="0.5" />

				<a:midPointStop
   style="stop-color:#B8C0CA"
   offset="1" />

			</linearGradient>
    <linearGradient
       gradientTransform="matrix(1.0121955,0,0,1.0122381,-121.84428,69.528211)"
       y2="-36.543"
       x2="140.2511"
       y1="-36.543"
       x1="162.6279"
       gradientUnits="userSpaceOnUse"
       id="XMLID_208_">
				<stop
   id="stop22967"
   style="stop-color:#EF7916"
   offset="0.0056" />

				<stop
   id="stop22969"
   style="stop-color:#CB130C"
   offset="1" />

				<a:midPointStop
   style="stop-color:#EF7916"
   offset="0.0056" />

				<a:midPointStop
   style="stop-color:#EF7916"
   offset="0.5" />

				<a:midPointStop
   style="stop-color:#CB130C"
   offset="1" />

			</linearGradient>
    <linearGradient
       y2="535.88721"
       x2="5.1514001"
       y1="535.88721"
       x1="42.747101"
       gradientUnits="userSpaceOnUse"
       id="XMLID_209_">
					<stop
   id="stop22976"
   style="stop-color:#F7AF3E"
   offset="0.3034" />

					<stop
   id="stop22978"
   style="stop-color:#F12523"
   offset="1" />

					<a:midPointStop
   style="stop-color:#F7AF3E"
   offset="0.3034" />

					<a:midPointStop
   style="stop-color:#F7AF3E"
   offset="0.5" />

					<a:midPointStop
   style="stop-color:#F12523"
   offset="1" />

				</linearGradient>
  </defs>
  <sodipodi:namedview
     id="base"
     pagecolor="#ffffff"
     bordercolor="#666666"
     borderopacity="1.0"
     inkscape:pageopacity="0.0"
     inkscape:pageshadow="2"
     inkscape:zoom="7"
     inkscape:cx="24"
     inkscape:cy="24"
     inkscape:current-layer="layer1"
     showgrid="true"
     inkscape:grid-bbox="true"
     inkscape:document-units="px"
     inkscape:window-width="744"
     inkscape:window-height="573"
     inkscape:window-x="220"
     inkscape:window-y="240" />
  <metadata
     id="metadata25679">
    <rdf:RDF>
      <cc:Work
         rdf:about="">
        <dc:format>image/svg+xml</dc:format>
        <dc:type
           rdf:resource="http://purl.org/dc/dcmitype/StillImage" />
      </cc:Work>
    </rdf:RDF>
  </metadata>
  <g
     id="layer1"
     inkscape:label="Layer 1"
     inkscape:groupmode="layer">
    <g
       transform="matrix(1.0121955,0,0,1.0122381,-0.1766592,-509.89599)"
       id="g22937">
				<path
   id="path22939"
   d="M 47.669,528.135 L 47.669,527.087 L 46.972,527.085 C 46.901,527.086 46.841,527.027 46.843,526.955 L 46.842,525.915 C 46.843,525.845 46.9,525.785 46.972,525.786 L 47.669,525.785 L 47.669,514.337 L 46.97,514.335 C 46.898,514.336 46.839,514.277 46.839,514.205 L 46.839,513.168 C 46.839,513.095 46.896,513.035 46.97,513.037 L 47.669,513.036 L 47.669,511.922 L 0.384,511.923 L 0.384,513.025 L 1.122,513.025 C 1.195,513.024 1.253,513.084 1.253,513.155 L 1.254,514.194 C 1.253,514.267 1.194,514.324 1.123,514.325 L 0.384,514.325 L 0.386,525.774 L 1.126,525.774 C 1.198,525.774 1.257,525.832 1.257,525.905 L 1.257,526.944 C 1.257,527.014 1.198,527.074 1.125,527.075 L 0.385,527.074 L 0.384,528.136 L 47.669,528.136 L 47.669,528.135 z M 2.381,514.324 C 2.308,514.325 2.249,514.267 2.249,514.196 L 2.249,513.155 C 2.25,513.085 2.308,513.025 2.38,513.026 L 4.096,513.025 C 4.169,513.026 4.227,513.084 4.226,513.155 L 4.227,514.194 C 4.226,514.266 4.169,514.326 4.094,514.327 L 2.381,514.324 z M 5.353,514.326 C 5.281,514.327 5.222,514.266 5.222,514.196 L 5.222,513.157 C 5.224,513.085 5.281,513.027 5.355,513.026 L 7.068,513.026 C 7.141,513.026 7.2,513.084 7.199,513.157 L 7.199,514.196 C 7.199,514.268 7.142,514.326 7.07,514.325 L 5.353,514.326 z M 8.325,514.328 C 8.253,514.327 8.194,514.268 8.196,514.196 L 8.195,513.155 C 8.195,513.086 8.254,513.027 8.325,513.028 L 10.041,513.026 C 10.114,513.028 10.171,513.086 10.173,513.157 L 10.172,514.196 C 10.171,514.268 10.113,514.328 10.04,514.329 L 8.325,514.328 z M 11.298,514.328 C 11.228,514.327 11.169,514.268 11.168,514.198 L 11.167,513.159 C 11.168,513.086 11.226,513.026 11.299,513.028 L 13.013,513.028 C 13.086,513.027 13.145,513.086 13.144,513.158 L 13.145,514.198 C 13.144,514.27 13.085,514.33 13.013,514.328 L 11.298,514.328 z M 14.272,514.33 C 14.198,514.328 14.139,514.27 14.139,514.197 L 14.139,513.158 C 14.141,513.086 14.198,513.028 14.27,513.029 L 15.985,513.03 C 16.057,513.029 16.115,513.087 16.116,513.16 L 16.116,514.197 C 16.116,514.27 16.057,514.329 15.987,514.329 L 14.272,514.33 z M 17.242,514.329 C 17.171,514.33 17.112,514.27 17.113,514.2 L 17.112,513.16 C 17.114,513.088 17.173,513.028 17.245,513.03 L 18.96,513.028 C 19.031,513.029 19.089,513.09 19.089,513.16 L 19.089,514.197 C 19.091,514.27 19.03,514.329 18.96,514.328 L 17.242,514.329 z M 20.217,514.33 C 20.144,514.33 20.085,514.272 20.086,514.199 L 20.085,513.16 C 20.085,513.09 20.145,513.03 20.216,513.031 L 21.931,513.03 C 22.005,513.029 22.062,513.089 22.063,513.162 L 22.062,514.199 C 22.062,514.272 22.004,514.331 21.931,514.33 L 20.217,514.33 z M 23.188,514.331 C 23.116,514.332 23.056,514.273 23.057,514.201 L 23.057,513.162 C 23.059,513.088 23.116,513.032 23.189,513.031 L 24.903,513.032 C 24.976,513.031 25.034,513.089 25.034,513.162 L 25.034,514.201 C 25.034,514.272 24.975,514.331 24.903,514.332 L 23.188,514.331 z M 26.161,514.331 C 26.09,514.332 26.03,514.274 26.03,514.201 L 26.032,513.162 C 26.03,513.091 26.089,513.03 26.161,513.031 L 27.878,513.03 C 27.948,513.033 28.006,513.091 28.007,513.162 L 28.008,514.201 C 28.007,514.273 27.948,514.333 27.876,514.332 L 26.161,514.331 z M 29.133,514.333 C 29.061,514.332 29.003,514.273 29.005,514.201 L 29.003,513.164 C 29.003,513.089 29.062,513.031 29.134,513.033 L 30.849,513.033 C 30.921,513.032 30.981,513.091 30.98,513.164 L 30.98,514.203 C 30.98,514.273 30.921,514.333 30.848,514.333 L 29.133,514.333 z M 32.107,514.333 C 32.034,514.334 31.975,514.273 31.976,514.203 L 31.975,513.166 C 31.977,513.091 32.035,513.034 32.106,513.032 L 33.822,513.033 C 33.893,513.034 33.952,513.093 33.952,513.163 L 33.952,514.203 C 33.952,514.275 33.893,514.333 33.821,514.333 L 32.107,514.333 L 32.107,514.333 z M 35.079,514.334 C 35.007,514.333 34.948,514.274 34.948,514.202 L 34.948,513.164 C 34.949,513.092 35.007,513.032 35.078,513.033 L 36.794,513.034 C 36.867,513.033 36.926,513.092 36.925,513.164 L 36.924,514.203 C 36.925,514.276 36.866,514.334 36.794,514.334 L 35.079,514.334 z M 38.052,514.334 C 37.979,514.334 37.921,514.276 37.921,514.203 L 37.921,513.164 C 37.921,513.092 37.98,513.034 38.052,513.033 L 39.767,513.034 C 39.839,513.035 39.897,513.093 39.898,513.164 L 39.898,514.203 C 39.898,514.276 39.839,514.333 39.767,514.334 L 38.052,514.334 z M 41.023,514.335 C 40.952,514.336 40.893,514.276 40.893,514.203 L 40.893,513.166 C 40.893,513.092 40.952,513.034 41.024,513.033 L 42.74,513.034 C 42.811,513.035 42.869,513.093 42.87,513.166 L 42.87,514.205 C 42.869,514.277 42.811,514.335 42.739,514.336 L 41.023,514.335 z M 43.995,514.337 C 43.924,514.336 43.866,514.276 43.867,514.205 L 43.866,513.168 C 43.866,513.094 43.924,513.036 43.999,513.035 L 45.714,513.034 C 45.784,513.035 45.843,513.095 45.843,513.166 L 45.843,514.205 C 45.841,514.277 45.784,514.337 45.712,514.336 L 43.995,514.337 z M 45.715,525.784 C 45.787,525.785 45.845,525.844 45.845,525.918 L 45.845,526.955 C 45.845,527.028 45.786,527.088 45.716,527.087 L 44,527.085 C 43.927,527.084 43.869,527.025 43.868,526.953 L 43.868,525.915 C 43.87,525.843 43.928,525.786 43.999,525.785 L 45.715,525.784 z M 42.742,525.784 C 42.815,525.786 42.874,525.844 42.872,525.917 L 42.874,526.954 C 42.872,527.026 42.813,527.086 42.743,527.085 L 41.027,527.084 C 40.954,527.085 40.895,527.026 40.895,526.956 L 40.895,525.914 C 40.896,525.844 40.954,525.785 41.028,525.784 L 42.742,525.784 z M 39.77,525.787 C 39.843,525.786 39.9,525.842 39.9,525.915 L 39.902,526.954 C 39.9,527.026 39.843,527.084 39.769,527.085 L 38.055,527.084 C 37.983,527.083 37.923,527.026 37.924,526.954 L 37.925,525.915 C 37.925,525.843 37.984,525.783 38.056,525.784 L 39.77,525.787 z M 36.797,525.783 C 36.87,525.784 36.928,525.842 36.929,525.913 L 36.929,526.952 C 36.927,527.024 36.868,527.084 36.798,527.083 L 35.082,527.085 C 35.01,527.083 34.952,527.025 34.95,526.954 L 34.95,525.915 C 34.95,525.842 35.009,525.783 35.082,525.784 L 36.797,525.783 z M 33.824,525.781 C 33.897,525.782 33.955,525.843 33.954,525.913 L 33.955,526.952 C 33.954,527.024 33.895,527.084 33.823,527.083 L 32.109,527.083 C 32.037,527.084 31.978,527.023 31.978,526.952 L 31.979,525.913 C 31.977,525.84 32.037,525.783 32.11,525.782 L 33.824,525.781 z M 30.853,525.781 C 30.925,525.782 30.983,525.841 30.982,525.913 L 30.984,526.951 C 30.984,527.023 30.923,527.082 30.853,527.081 L 29.136,527.083 C 29.064,527.081 29.007,527.023 29.005,526.95 L 29.006,525.911 C 29.007,525.841 29.066,525.781 29.137,525.782 L 30.853,525.781 z M 27.88,525.781 C 27.952,525.782 28.009,525.839 28.011,525.911 L 28.01,526.95 C 28.009,527.023 27.952,527.081 27.878,527.081 L 26.164,527.081 C 26.092,527.08 26.032,527.023 26.034,526.949 L 26.034,525.911 C 26.034,525.839 26.093,525.779 26.163,525.78 L 27.88,525.781 z M 24.907,525.779 C 24.979,525.781 25.037,525.839 25.036,525.911 L 25.036,526.95 C 25.037,527.023 24.979,527.081 24.906,527.082 L 23.192,527.079 C 23.118,527.08 23.059,527.021 23.061,526.949 L 23.059,525.911 C 23.061,525.839 23.12,525.78 23.191,525.781 L 24.907,525.779 z M 21.935,525.779 C 22.007,525.779 22.065,525.839 22.066,525.91 L 22.066,526.949 C 22.064,527.021 22.007,527.079 21.933,527.08 L 20.22,527.079 C 20.148,527.08 20.087,527.021 20.089,526.949 L 20.089,525.908 C 20.089,525.837 20.147,525.78 20.218,525.779 L 21.935,525.779 L 21.935,525.779 z M 18.962,525.778 C 19.034,525.777 19.092,525.837 19.091,525.91 L 19.092,526.949 C 19.091,527.019 19.032,527.079 18.962,527.078 L 17.247,527.079 C 17.173,527.08 17.116,527.02 17.114,526.947 L 17.116,525.908 C 17.115,525.837 17.175,525.778 17.247,525.777 L 18.962,525.778 z M 15.989,525.778 C 16.061,525.777 16.12,525.835 16.12,525.908 L 16.119,526.947 C 16.118,527.019 16.061,527.077 15.987,527.078 L 14.273,527.077 C 14.2,527.078 14.143,527.02 14.142,526.947 L 14.141,525.908 C 14.143,525.836 14.202,525.776 14.274,525.777 L 15.989,525.778 z M 13.017,525.778 C 13.089,525.777 13.147,525.835 13.146,525.908 L 13.147,526.947 C 13.146,527.017 13.089,527.077 13.016,527.078 L 11.302,527.078 C 11.229,527.076 11.171,527.018 11.171,526.945 L 11.171,525.906 C 11.17,525.835 11.23,525.776 11.302,525.777 L 13.017,525.778 z M 10.045,525.774 C 10.117,525.775 10.173,525.835 10.175,525.908 L 10.174,526.945 C 10.175,527.018 10.115,527.077 10.044,527.076 L 8.328,527.076 C 8.255,527.076 8.198,527.018 8.198,526.946 L 8.198,525.906 C 8.197,525.836 8.257,525.776 8.329,525.775 L 10.045,525.774 z M 2.383,527.074 C 2.312,527.075 2.251,527.016 2.252,526.944 L 2.251,525.904 C 2.253,525.832 2.311,525.774 2.384,525.774 L 4.099,525.774 C 4.171,525.775 4.23,525.832 4.23,525.904 L 4.23,526.944 C 4.228,527.016 4.17,527.076 4.099,527.075 L 2.383,527.074 z M 5.226,525.906 C 5.226,525.832 5.283,525.776 5.356,525.775 L 7.07,525.776 C 7.144,525.775 7.202,525.834 7.201,525.906 L 7.203,526.944 C 7.203,527.016 7.144,527.076 7.072,527.075 L 5.357,527.076 C 5.285,527.075 5.226,527.016 5.224,526.943 L 5.226,525.906 z "
   i:knockout="Off" />

			</g>
    <path
       style="fill:url(#XMLID_205_)"
       id="path22946"
       d="M 33.373575,21.302252 C 33.251099,21.301239 33.151904,21.203052 33.151904,21.080571 L 33.149879,11.914756 C 33.151904,11.792275 33.250087,11.693076 33.372562,11.693076 L 46.619166,11.694088 C 46.741641,11.692063 46.840836,11.792275 46.841849,11.912731 L 46.840836,21.080571 C 46.840836,21.203052 46.741641,21.302252 46.62119,21.302252 L 33.373575,21.302252 z "
       i:knockout="Off" />
    <path
       style="fill:url(#XMLID_206_)"
       id="path22953"
       d="M 17.610653,21.301239 C 17.488178,21.301239 17.391007,21.203052 17.391007,21.079559 L 17.388982,11.913744 C 17.388982,11.793287 17.488178,11.692063 17.610653,11.692063 L 30.858269,11.693076 C 30.980744,11.693076 31.079939,11.792275 31.078927,11.913744 L 31.079939,21.082596 C 31.079939,21.203052 30.980744,21.301239 30.859281,21.302252 L 17.610653,21.301239 z "
       i:knockout="Off" />
    <path
       style="fill:url(#XMLID_207_)"
       id="path22960"
       d="M 1.8527929,21.300227 C 1.7282928,21.302252 1.6301099,21.204064 1.6311221,21.079559 L 1.6290977,11.912731 C 1.6290977,11.790251 1.7282928,11.694088 1.8517807,11.692063 L 15.098384,11.693076 C 15.22086,11.693076 15.319043,11.791263 15.319043,11.913744 L 15.320055,21.079559 C 15.320055,21.20204 15.22086,21.301239 15.098384,21.301239 L 1.8527929,21.300227 z "
       i:knockout="Off" />
    <g
       transform="matrix(1.0121955,0,0,1.0122381,-0.1766592,-509.89599)"
       id="g22962">
				<path
   style="fill:none;stroke:#ffffff;stroke-width:2.96379185"
   id="path22964"
   d="M 42.747,532.354 L 16.38,532.352 L 16.38,527.358 C 16.38,527.182 16.235,527.038 16.056,527.038 C 15.969,527.035 15.888,527.072 15.829,527.135 L 5.13,535.417 C 4.878,535.671 4.88,536.079 5.132,536.331 L 15.825,544.614 C 15.884,544.677 15.966,544.715 16.056,544.714 C 16.235,544.714 16.379,544.571 16.379,544.392 L 16.377,539.396 L 42.744,539.398"
   i:knockout="Off" />

			</g>
    <path
       style="fill:url(#XMLID_208_);stroke:#590c08;stroke-width:0.42950001"
       id="path22971"
       d="M 43.091662,28.972993 L 16.403103,28.970968 L 16.403103,23.915851 C 16.403103,23.737697 16.256335,23.591935 16.075152,23.591935 C 15.987091,23.588898 15.905103,23.626351 15.845383,23.690122 L 5.0159037,32.073478 C 4.7608305,32.330587 4.7628549,32.74358 5.0179281,32.998664 L 15.841335,41.383032 C 15.901054,41.446803 15.984054,41.485268 16.075152,41.484256 C 16.256335,41.484256 16.402091,41.339506 16.402091,41.158315 L 16.400067,36.101174 L 43.088625,36.103198"
       i:knockout="Off" />
    <g
       transform="matrix(1.0121955,0,0,1.0122381,-0.1766592,-509.89599)"
       id="g22973"
       i:knockout="Off">
				<linearGradient
   y2="535.88721"
   x2="5.1514001"
   y1="535.88721"
   x1="42.747101"
   gradientUnits="userSpaceOnUse"
   id="linearGradient25706">
					<stop
   id="stop25708"
   style="stop-color:#F7AF3E"
   offset="0.3034" />

					<stop
   id="stop25710"
   style="stop-color:#F12523"
   offset="1" />

					<a:midPointStop
   style="stop-color:#F7AF3E"
   offset="0.3034" />

					<a:midPointStop
   style="stop-color:#F7AF3E"
   offset="0.5" />

					<a:midPointStop
   style="stop-color:#F12523"
   offset="1" />

				</linearGradient>

				<path
   style="fill:url(#XMLID_209_)"
   id="path22980"
   d="M 15.918,527.318 L 5.411,535.454 C 5.411,535.454 5.151,535.645 5.151,535.864 C 5.151,536.083 5.413,536.298 5.413,536.298 L 15.856,544.387 C 16.151,544.63 16.198,544.505 16.178,544.065 C 16.178,542.819 16.178,539.914 16.178,539.197 C 17.338,539.197 42.744,539.199 42.744,539.199 L 42.744,538 L 14.977,537.998 C 14.977,537.998 14.978,540.828 14.978,542.19 C 13.517,541.059 7.787,536.621 6.826,535.876 C 7.787,535.132 13.519,530.693 14.978,529.563 C 14.978,530.924 14.978,533.752 14.978,533.752 L 42.746,533.754 L 42.746,532.555 C 42.746,532.555 17.34,532.553 16.179,532.553 C 16.179,531.772 16.18,528.397 16.18,527.396 C 16.12,527.161 15.918,527.318 15.918,527.318 z "
   i:knockout="Off" />

			</g>
  </g>
</svg>
