<?xml version="1.0" encoding="UTF-8" standalone="no"?>
<!-- Created with Inkscape (http://www.inkscape.org/) -->
<svg
   xmlns:dc="http://purl.org/dc/elements/1.1/"
   xmlns:cc="http://web.resource.org/cc/"
   xmlns:rdf="http://www.w3.org/1999/02/22-rdf-syntax-ns#"
   xmlns:svg="http://www.w3.org/2000/svg"
   xmlns="http://www.w3.org/2000/svg"
   xmlns:xlink="http://www.w3.org/1999/xlink"
   xmlns:sodipodi="http://sodipodi.sourceforge.net/DTD/sodipodi-0.dtd"
   xmlns:inkscape="http://www.inkscape.org/namespaces/inkscape"
   width="48px"
   height="48px"
   id="svg1872"
   sodipodi:version="0.32"
   inkscape:version="0.44.1"
   sodipodi:docbase="e:\dev_clean\src\houdini\support\icons\cop2"
   sodipodi:docname="rotoshape.svg">
  <defs
     id="defs1874">
    <linearGradient
       inkscape:collect="always"
       id="linearGradient2824">
      <stop
         style="stop-color:#babdb6;stop-opacity:1;"
         offset="0"
         id="stop2826" />
      <stop
         style="stop-color:#e1e3e0;stop-opacity:1"
         offset="1"
         id="stop2828" />
    </linearGradient>
    <linearGradient
       inkscape:collect="always"
       xlink:href="#linearGradient2824"
       id="linearGradient2830"
       x1="8.006485"
       y1="7.2557006"
       x2="38.761997"
       y2="40.827129"
       gradientUnits="userSpaceOnUse"
       gradientTransform="matrix(0.964001,0,0,0.964013,1.550331,0.860471)" />
  </defs>
  <sodipodi:namedview
     id="base"
     pagecolor="#ffffff"
     bordercolor="#666666"
     borderopacity="1.0"
     inkscape:pageopacity="0.0"
     inkscape:pageshadow="2"
     inkscape:zoom="7"
     inkscape:cx="30.154058"
     inkscape:cy="16.269108"
     inkscape:current-layer="layer1"
     showgrid="true"
     inkscape:grid-bbox="false"
     inkscape:document-units="px"
     inkscape:window-width="1088"
     inkscape:window-height="991"
     inkscape:window-x="336"
     inkscape:window-y="28" />
  <metadata
     id="metadata1877">
    <rdf:RDF>
      <cc:Work
         rdf:about="">
        <dc:format>image/svg+xml</dc:format>
        <dc:type
           rdf:resource="http://purl.org/dc/dcmitype/StillImage" />
      </cc:Work>
    </rdf:RDF>
  </metadata>
  <g
     id="layer1"
     inkscape:label="Layer 1"
     inkscape:groupmode="layer">
    <path
       style="color:black;fill:url(#linearGradient2830);fill-opacity:1;fill-rule:evenodd;stroke:#2e3436;stroke-width:2.00000048;stroke-linecap:butt;stroke-linejoin:miter;marker:none;marker-start:none;marker-mid:none;marker-end:none;stroke-miterlimit:4;stroke-dasharray:none;stroke-dashoffset:0;stroke-opacity:1;visibility:visible;display:inline;overflow:visible"
       d="M 6.7075489,6.3161913 C 19.283279,-0.13659224 25.451539,15.024863 41.316119,6.3161913 C 46.610632,17.686897 33.746729,30.691466 41.316119,41.611535 C 31.161579,47.198278 20.036736,33.50718 6.7075489,41.611535 C 0.85900119,29.694511 13.750634,18.459649 6.7075489,6.3161913 z "
       id="rect1890"
       sodipodi:nodetypes="ccccc" />
    <path
       style="color:black;fill:none;fill-opacity:1;fill-rule:evenodd;stroke:#eeeeec;stroke-width:1.50000012;stroke-linecap:butt;stroke-linejoin:miter;marker:none;marker-start:none;marker-mid:none;marker-end:none;stroke-miterlimit:4;stroke-dasharray:none;stroke-dashoffset:0;stroke-opacity:1;visibility:visible;display:inline;overflow:visible"
       d="M 8.1955826,7.6121616 C 19.662863,1.7276814 25.562868,15.829284 40.029112,7.887594 C 44.856957,18.25687 32.851476,30.391546 39.753684,40.349873 C 30.494186,45.444587 20.349908,32.683846 8.1955826,40.074441 C 2.8625375,29.206961 14.617876,18.686133 8.1955826,7.6121616 z "
       id="path2822"
       sodipodi:nodetypes="ccccc" />
    <path
       style="fill:none;fill-opacity:0.75;fill-rule:evenodd;stroke:#ef2929;stroke-width:0.5;stroke-linecap:butt;stroke-linejoin:miter;stroke-opacity:1;stroke-miterlimit:4;stroke-dasharray:none;stroke-dashoffset:0"
       d="M 35.693674,26.498618 L 41.005517,41.347806 L 26.132357,46.651088"
       id="path1893" />
    <path
       sodipodi:type="arc"
       style="color:black;fill:#ef2929;fill-opacity:1;fill-rule:evenodd;stroke:none;stroke-width:2;stroke-linecap:butt;stroke-linejoin:miter;marker:none;marker-start:none;marker-mid:none;marker-end:none;stroke-miterlimit:4;stroke-dasharray:none;stroke-dashoffset:0;stroke-opacity:1;visibility:visible;display:inline;overflow:visible"
       id="path2781"
       sodipodi:cx="35.57143"
       sodipodi:cy="27.285715"
       sodipodi:rx="1.6666666"
       sodipodi:ry="1.6666666"
       d="M 37.238097 27.285715 A 1.6666666 1.6666666 0 1 1  33.904764,27.285715 A 1.6666666 1.6666666 0 1 1  37.238097 27.285715 z"
       transform="matrix(0.964001,0,0,0.964013,1.917569,1.319523)" />
    <path
       sodipodi:type="arc"
       style="color:black;fill:#ef2929;fill-opacity:1;fill-rule:evenodd;stroke:none;stroke-width:2;stroke-linecap:butt;stroke-linejoin:miter;marker:none;marker-start:none;marker-mid:none;marker-end:none;stroke-miterlimit:4;stroke-dasharray:none;stroke-dashoffset:0;stroke-opacity:1;visibility:visible;display:inline;overflow:visible"
       id="path2783"
       sodipodi:cx="35.57143"
       sodipodi:cy="27.285715"
       sodipodi:rx="1.6666666"
       sodipodi:ry="1.6666666"
       d="M 37.238097 27.285715 A 1.6666666 1.6666666 0 1 1  33.904764,27.285715 A 1.6666666 1.6666666 0 1 1  37.238097 27.285715 z"
       transform="matrix(0.964001,0,0,0.964013,-6.942065,19.9112)" />
    <path
       style="fill:none;fill-opacity:0.75;fill-rule:evenodd;stroke:#ef2929;stroke-width:0.5;stroke-linecap:butt;stroke-linejoin:miter;stroke-opacity:1;stroke-miterlimit:4;stroke-dasharray:none;stroke-dashoffset:0"
       d="M 21.610731,36.037108 L 6.7617278,41.349017 L 1.4585125,26.475672"
       id="path2792" />
    <path
       sodipodi:type="arc"
       style="color:black;fill:#ef2929;fill-opacity:1;fill-rule:evenodd;stroke:none;stroke-width:2;stroke-linecap:butt;stroke-linejoin:miter;marker:none;marker-start:none;marker-mid:none;marker-end:none;stroke-miterlimit:4;stroke-dasharray:none;stroke-dashoffset:0;stroke-opacity:1;visibility:visible;display:inline;overflow:visible"
       id="path2794"
       sodipodi:cx="35.57143"
       sodipodi:cy="27.285715"
       sodipodi:rx="1.6666666"
       sodipodi:ry="1.6666666"
       d="M 37.238097 27.285715 A 1.6666666 1.6666666 0 1 1  33.904764,27.285715 A 1.6666666 1.6666666 0 1 1  37.238097 27.285715 z"
       transform="matrix(0,0.964013,-0.964001,0,46.78951,2.260583)" />
    <path
       sodipodi:type="arc"
       style="color:black;fill:#ef2929;fill-opacity:1;fill-rule:evenodd;stroke:none;stroke-width:2;stroke-linecap:butt;stroke-linejoin:miter;marker:none;marker-start:none;marker-mid:none;marker-end:none;stroke-miterlimit:4;stroke-dasharray:none;stroke-dashoffset:0;stroke-opacity:1;visibility:visible;display:inline;overflow:visible"
       id="path2796"
       sodipodi:cx="35.57143"
       sodipodi:cy="27.285715"
       sodipodi:rx="1.6666666"
       sodipodi:ry="1.6666666"
       d="M 37.238097 27.285715 A 1.6666666 1.6666666 0 1 1  33.904764,27.285715 A 1.6666666 1.6666666 0 1 1  37.238097 27.285715 z"
       transform="matrix(0,0.964013,-0.964001,0,28.19807,-6.599161)" />
    <path
       style="fill:none;fill-opacity:0.75;fill-rule:evenodd;stroke:#ef2929;stroke-width:0.5;stroke-linecap:butt;stroke-linejoin:miter;stroke-opacity:1;stroke-miterlimit:4;stroke-dasharray:none;stroke-dashoffset:0"
       d="M 12.083837,21.322802 L 6.7719937,6.4736138 L 21.645154,1.1703325"
       id="path2800" />
    <path
       sodipodi:type="arc"
       style="color:black;fill:#ef2929;fill-opacity:1;fill-rule:evenodd;stroke:none;stroke-width:2;stroke-linecap:butt;stroke-linejoin:miter;marker:none;marker-start:none;marker-mid:none;marker-end:none;stroke-miterlimit:4;stroke-dasharray:none;stroke-dashoffset:0;stroke-opacity:1;visibility:visible;display:inline;overflow:visible"
       id="path2802"
       sodipodi:cx="35.57143"
       sodipodi:cy="27.285715"
       sodipodi:rx="1.6666666"
       sodipodi:ry="1.6666666"
       d="M 37.238097 27.285715 A 1.6666666 1.6666666 0 1 1  33.904764,27.285715 A 1.6666666 1.6666666 0 1 1  37.238097 27.285715 z"
       transform="matrix(-0.964001,0,0,-0.964013,45.85994,46.5019)" />
    <path
       sodipodi:type="arc"
       style="color:black;fill:#ef2929;fill-opacity:1;fill-rule:evenodd;stroke:none;stroke-width:2;stroke-linecap:butt;stroke-linejoin:miter;marker:none;marker-start:none;marker-mid:none;marker-end:none;stroke-miterlimit:4;stroke-dasharray:none;stroke-dashoffset:0;stroke-opacity:1;visibility:visible;display:inline;overflow:visible"
       id="path2804"
       sodipodi:cx="35.57143"
       sodipodi:cy="27.285715"
       sodipodi:rx="1.6666666"
       sodipodi:ry="1.6666666"
       d="M 37.238097 27.285715 A 1.6666666 1.6666666 0 1 1  33.904764,27.285715 A 1.6666666 1.6666666 0 1 1  37.238097 27.285715 z"
       transform="matrix(-0.964001,0,0,-0.964013,54.71958,27.91022)" />
    <path
       style="fill:none;fill-opacity:0.75;fill-rule:evenodd;stroke:#ef2929;stroke-width:0.5;stroke-linecap:butt;stroke-linejoin:miter;stroke-opacity:1;stroke-miterlimit:4;stroke-dasharray:none;stroke-dashoffset:0"
       d="M 26.166782,11.784322 L 41.015785,6.4724126 L 46.319001,21.345758"
       id="path2808" />
    <path
       sodipodi:type="arc"
       style="color:black;fill:#ef2929;fill-opacity:1;fill-rule:evenodd;stroke:none;stroke-width:2;stroke-linecap:butt;stroke-linejoin:miter;marker:none;marker-start:none;marker-mid:none;marker-end:none;stroke-miterlimit:4;stroke-dasharray:none;stroke-dashoffset:0;stroke-opacity:1;visibility:visible;display:inline;overflow:visible"
       id="path2810"
       sodipodi:cx="35.57143"
       sodipodi:cy="27.285715"
       sodipodi:rx="1.6666666"
       sodipodi:ry="1.6666666"
       d="M 37.238097 27.285715 A 1.6666666 1.6666666 0 1 1  33.904764,27.285715 A 1.6666666 1.6666666 0 1 1  37.238097 27.285715 z"
       transform="matrix(0,-0.964013,0.964001,0,0.988001,45.56085)" />
    <path
       sodipodi:type="arc"
       style="color:black;fill:#ef2929;fill-opacity:1;fill-rule:evenodd;stroke:none;stroke-width:2;stroke-linecap:butt;stroke-linejoin:miter;marker:none;marker-start:none;marker-mid:none;marker-end:none;stroke-miterlimit:4;stroke-dasharray:none;stroke-dashoffset:0;stroke-opacity:1;visibility:visible;display:inline;overflow:visible"
       id="path2812"
       sodipodi:cx="35.57143"
       sodipodi:cy="27.285715"
       sodipodi:rx="1.6666666"
       sodipodi:ry="1.6666666"
       d="M 37.238097 27.285715 A 1.6666666 1.6666666 0 1 1  33.904764,27.285715 A 1.6666666 1.6666666 0 1 1  37.238097 27.285715 z"
       transform="matrix(0,-0.964013,0.964001,0,19.57944,54.42059)" />
    <path
       sodipodi:type="arc"
       style="opacity:1;color:black;fill:#fcaf3e;fill-opacity:1;fill-rule:evenodd;stroke:#ce5c00;stroke-width:1.42633808;stroke-linecap:butt;stroke-linejoin:miter;marker:none;marker-start:none;marker-mid:none;marker-end:none;stroke-miterlimit:4;stroke-dasharray:none;stroke-dashoffset:0;stroke-opacity:1;visibility:visible;display:inline;overflow:visible"
       id="path2814"
       sodipodi:cx="5.8571429"
       sodipodi:cy="42.57143"
       sodipodi:rx="3.1428571"
       sodipodi:ry="3.1428571"
       d="M 9 42.57143 A 3.1428571 3.1428571 0 1 1  2.7142859,42.57143 A 3.1428571 3.1428571 0 1 1  9 42.57143 z"
       transform="matrix(0.701092,0,0,0.701101,2.8148,11.36446)" />
    <path
       sodipodi:type="arc"
       style="opacity:1;color:black;fill:#fcaf3e;fill-opacity:1;fill-rule:evenodd;stroke:#ce5c00;stroke-width:1.42633808;stroke-linecap:butt;stroke-linejoin:miter;marker:none;marker-start:none;marker-mid:none;marker-end:none;stroke-miterlimit:4;stroke-dasharray:none;stroke-dashoffset:0;stroke-opacity:1;visibility:visible;display:inline;overflow:visible"
       id="path2816"
       sodipodi:cx="5.8571429"
       sodipodi:cy="42.57143"
       sodipodi:rx="3.1428571"
       sodipodi:ry="3.1428571"
       d="M 9 42.57143 A 3.1428571 3.1428571 0 1 1  2.7142859,42.57143 A 3.1428571 3.1428571 0 1 1  9 42.57143 z"
       transform="matrix(0.701092,0,0,0.701101,2.814798,-23.34002)" />
    <path
       sodipodi:type="arc"
       style="opacity:1;color:black;fill:#fcaf3e;fill-opacity:1;fill-rule:evenodd;stroke:#ce5c00;stroke-width:1.42633808;stroke-linecap:butt;stroke-linejoin:miter;marker:none;marker-start:none;marker-mid:none;marker-end:none;stroke-miterlimit:4;stroke-dasharray:none;stroke-dashoffset:0;stroke-opacity:1;visibility:visible;display:inline;overflow:visible"
       id="path2818"
       sodipodi:cx="5.8571429"
       sodipodi:cy="42.57143"
       sodipodi:rx="3.1428571"
       sodipodi:ry="3.1428571"
       d="M 9 42.57143 A 3.1428571 3.1428571 0 1 1  2.7142859,42.57143 A 3.1428571 3.1428571 0 1 1  9 42.57143 z"
       transform="matrix(0.701092,0,0,0.701101,37.10569,-23.06458)" />
    <path
       sodipodi:type="arc"
       style="opacity:1;color:black;fill:#fcaf3e;fill-opacity:1;fill-rule:evenodd;stroke:#ce5c00;stroke-width:1.42633808;stroke-linecap:butt;stroke-linejoin:miter;marker:none;marker-start:none;marker-mid:none;marker-end:none;stroke-miterlimit:4;stroke-dasharray:none;stroke-dashoffset:0;stroke-opacity:1;visibility:visible;display:inline;overflow:visible"
       id="path2820"
       sodipodi:cx="5.8571429"
       sodipodi:cy="42.57143"
       sodipodi:rx="3.1428571"
       sodipodi:ry="3.1428571"
       d="M 9 42.57143 A 3.1428571 3.1428571 0 1 1  2.7142859,42.57143 A 3.1428571 3.1428571 0 1 1  9 42.57143 z"
       transform="matrix(0.701092,0,0,0.701101,37.24341,11.7776)" />
  </g>
</svg>
