<?xml version="1.0" encoding="UTF-8" standalone="no"?>
<!-- Created with Inkscape (http://www.inkscape.org/) -->
<svg
   xmlns:a="http://ns.adobe.com/AdobeSVGViewerExtensions/3.0/"
   xmlns:i="http://ns.adobe.com/AdobeIllustrator/10.0/"
   xmlns:dc="http://purl.org/dc/elements/1.1/"
   xmlns:cc="http://web.resource.org/cc/"
   xmlns:rdf="http://www.w3.org/1999/02/22-rdf-syntax-ns#"
   xmlns:svg="http://www.w3.org/2000/svg"
   xmlns="http://www.w3.org/2000/svg"
   xmlns:sodipodi="http://sodipodi.sourceforge.net/DTD/sodipodi-0.dtd"
   xmlns:inkscape="http://www.inkscape.org/namespaces/inkscape"
   width="48px"
   height="48px"
   id="svg26171"
   sodipodi:version="0.32"
   inkscape:version="0.45.1"
   sodipodi:docbase="C:\dev\src\houdini\support\icons\COP2"
   sodipodi:docname="sequence.svg"
   inkscape:output_extension="org.inkscape.output.svg.inkscape">
  <defs
     id="defs26173">
    <linearGradient
       y2="436.8608"
       x2="310.5175"
       y1="436.8608"
       x1="332.0181"
       gradientUnits="userSpaceOnUse"
       id="XMLID_263_"
       gradientTransform="matrix(1.0353233,0,0,1.0357727,-299.51164,-432.93472)">
				<stop
   id="stop23681"
   style="stop-color:#FFFFFF"
   offset="0" />

				<stop
   id="stop23683"
   style="stop-color:#B8C0CA"
   offset="1" />

				<a:midPointStop
   style="stop-color:#FFFFFF"
   offset="0" />

				<a:midPointStop
   style="stop-color:#FFFFFF"
   offset="0.5" />

				<a:midPointStop
   style="stop-color:#B8C0CA"
   offset="1" />

			</linearGradient>
    <linearGradient
       y2="436.8608"
       x2="297.7775"
       y1="436.8608"
       x1="335.1948"
       gradientUnits="userSpaceOnUse"
       id="XMLID_264_"
       gradientTransform="matrix(1.0353233,0,0,1.0357727,-299.51164,-432.93472)">
				<stop
   id="stop23688"
   style="stop-color:#FFFFFF"
   offset="0" />

				<stop
   id="stop23690"
   style="stop-color:#B8C0CA"
   offset="1" />

				<a:midPointStop
   style="stop-color:#FFFFFF"
   offset="0" />

				<a:midPointStop
   style="stop-color:#FFFFFF"
   offset="0.5" />

				<a:midPointStop
   style="stop-color:#B8C0CA"
   offset="1" />

			</linearGradient>
    <linearGradient
       y2="436.8599"
       x2="296.4637"
       y1="436.8599"
       x1="333.8823"
       gradientUnits="userSpaceOnUse"
       id="XMLID_265_"
       gradientTransform="matrix(1.0353233,0,0,1.0357727,-299.51164,-432.93472)">
				<stop
   id="stop23695"
   style="stop-color:#FFFFFF"
   offset="0" />

				<stop
   id="stop23697"
   style="stop-color:#B8C0CA"
   offset="1" />

				<a:midPointStop
   style="stop-color:#FFFFFF"
   offset="0" />

				<a:midPointStop
   style="stop-color:#FFFFFF"
   offset="0.5" />

				<a:midPointStop
   style="stop-color:#B8C0CA"
   offset="1" />

			</linearGradient>
    <linearGradient
       y2="451.2876"
       x2="308.4259"
       y1="451.2876"
       x1="290.1997"
       gradientUnits="userSpaceOnUse"
       id="XMLID_266_"
       gradientTransform="matrix(1.0353233,0,0,1.0357727,-299.51163,-432.93471)">
				<stop
   id="stop23704"
   style="stop-color:#EF7916"
   offset="0" />

				<stop
   id="stop23706"
   style="stop-color:#CB130C"
   offset="0.9609" />

				<a:midPointStop
   style="stop-color:#EF7916"
   offset="0" />

				<a:midPointStop
   style="stop-color:#EF7916"
   offset="0.5" />

				<a:midPointStop
   style="stop-color:#CB130C"
   offset="0.9609" />

			</linearGradient>
    <linearGradient
       gradientTransform="matrix(-0.5,0.866,-0.866,-0.5,824.7354,3686.6692)"
       y2="2071.0479"
       x2="-2540.2439"
       y1="2080.8169"
       x1="-2534.708"
       gradientUnits="userSpaceOnUse"
       id="XMLID_267_">
					<stop
   id="stop23713"
   style="stop-color:#F7AF3E"
   offset="0.3034" />

					<stop
   id="stop23715"
   style="stop-color:#F12523"
   offset="1" />

					<a:midPointStop
   style="stop-color:#F7AF3E"
   offset="0.3034" />

					<a:midPointStop
   style="stop-color:#F7AF3E"
   offset="0.5" />

					<a:midPointStop
   style="stop-color:#F12523"
   offset="1" />

				</linearGradient>
    <linearGradient
       gradientTransform="matrix(-1.0353233,0,0,-1.0357727,-6878.6808,4809.3669)"
       y2="4610.02"
       x2="-6667.752"
       y1="4610.02"
       x1="-6685.978"
       gradientUnits="userSpaceOnUse"
       id="XMLID_268_">
				<stop
   id="stop23722"
   style="stop-color:#EF7916"
   offset="0" />

				<stop
   id="stop23724"
   style="stop-color:#CB130C"
   offset="0.9609" />

				<a:midPointStop
   style="stop-color:#EF7916"
   offset="0" />

				<a:midPointStop
   style="stop-color:#EF7916"
   offset="0.5" />

				<a:midPointStop
   style="stop-color:#CB130C"
   offset="0.9609" />

			</linearGradient>
    <linearGradient
       gradientTransform="matrix(0.5,-0.866,0.866,0.5,-7179.4336,1374.5779)"
       y2="6033.2256"
       x2="4549.6177"
       y1="6042.9946"
       x1="4555.1538"
       gradientUnits="userSpaceOnUse"
       id="XMLID_269_">
					<stop
   id="stop23731"
   style="stop-color:#F7AF3E"
   offset="0.3034" />

					<stop
   id="stop23733"
   style="stop-color:#F12523"
   offset="1" />

					<a:midPointStop
   style="stop-color:#F7AF3E"
   offset="0.3034" />

					<a:midPointStop
   style="stop-color:#F7AF3E"
   offset="0.5" />

					<a:midPointStop
   style="stop-color:#F12523"
   offset="1" />

				</linearGradient>
  </defs>
  <sodipodi:namedview
     id="base"
     pagecolor="#ffffff"
     bordercolor="#666666"
     borderopacity="1.0"
     inkscape:pageopacity="0.0"
     inkscape:pageshadow="2"
     inkscape:zoom="7"
     inkscape:cx="24"
     inkscape:cy="24"
     inkscape:current-layer="layer1"
     showgrid="true"
     inkscape:grid-bbox="true"
     inkscape:document-units="px"
     inkscape:window-width="744"
     inkscape:window-height="573"
     inkscape:window-x="132"
     inkscape:window-y="144" />
  <metadata
     id="metadata26176">
    <rdf:RDF>
      <cc:Work
         rdf:about="">
        <dc:format>image/svg+xml</dc:format>
        <dc:type
           rdf:resource="http://purl.org/dc/dcmitype/StillImage" />
      </cc:Work>
    </rdf:RDF>
  </metadata>
  <g
     id="layer1"
     inkscape:label="Layer 1"
     inkscape:groupmode="layer">
    <g
       transform="matrix(1.0353233,0,0,1.0357727,-299.51164,-432.93472)"
       id="g23670">
				<polyline
   style="fill:none;stroke:#96ff00;stroke-width:4.34552526;stroke-linecap:round"
   id="polyline23672"
   points="310.018,428.754       310.018,429.861 308.892,429.86 308.893,431.161 310.018,431.16 310.018,442.609 308.895,442.608 308.895,443.908       310.017,443.909 310.018,444.966 "
   i:knockout="Off" />

				<polyline
   style="fill:none;stroke:#96ff00;stroke-width:4.34552526;stroke-linecap:round"
   id="polyline23674"
   points="311.018,428.754       311.018,429.862 312.733,429.861 312.733,431.161 311.018,431.161 311.02,442.61 312.736,442.61 312.735,443.911       311.022,443.91 311.018,444.966 "
   i:knockout="Off" />

			</g>
    <g
       transform="matrix(1.0353233,0,0,1.0357727,-299.51164,-432.93472)"
       id="g23676">
				<path
   id="path23678"
   d="M 297.002,431.155 C 296.928,431.156 296.871,431.098 296.871,431.027 L 296.871,429.986 C 296.871,429.916 296.929,429.856 297.001,429.857 L 298.717,429.856 C 298.789,429.857 298.848,429.915 298.848,429.986 L 298.848,431.025 C 298.846,431.097 298.79,431.157 298.715,431.158 L 297.002,431.155 z M 299.974,431.157 C 299.903,431.158 299.844,431.097 299.843,431.027 L 299.844,429.988 C 299.845,429.916 299.902,429.858 299.975,429.857 L 301.69,429.857 C 301.762,429.857 301.821,429.915 301.821,429.988 L 301.82,431.027 C 301.82,431.099 301.762,431.157 301.69,431.156 L 299.974,431.157 z M 302.946,431.159 C 302.875,431.158 302.817,431.099 302.818,431.027 L 302.817,429.986 C 302.817,429.917 302.876,429.858 302.947,429.859 L 304.663,429.857 C 304.735,429.859 304.793,429.917 304.794,429.988 L 304.794,431.027 C 304.794,431.099 304.735,431.159 304.662,431.16 L 302.946,431.159 z M 305.919,431.159 C 305.849,431.158 305.789,431.099 305.789,431.029 L 305.789,429.99 C 305.789,429.917 305.848,429.857 305.92,429.859 L 307.635,429.859 C 307.707,429.858 307.766,429.917 307.766,429.989 L 307.766,431.029 C 307.765,431.101 307.706,431.161 307.634,431.159 L 305.919,431.159 L 305.919,431.159 z M 313.99,431.162 C 313.918,431.163 313.858,431.104 313.86,431.032 L 313.86,429.993 C 313.861,429.919 313.919,429.863 313.991,429.862 L 315.706,429.863 C 315.778,429.862 315.837,429.92 315.837,429.993 L 315.837,431.032 C 315.837,431.103 315.777,431.162 315.706,431.163 L 313.99,431.162 z M 316.963,431.162 C 316.891,431.163 316.832,431.105 316.832,431.032 L 316.833,429.993 C 316.832,429.922 316.891,429.861 316.963,429.862 L 318.68,429.861 C 318.75,429.864 318.807,429.922 318.809,429.993 L 318.809,431.032 C 318.808,431.104 318.75,431.164 318.677,431.163 L 316.963,431.162 z M 319.934,431.164 C 319.862,431.163 319.805,431.104 319.806,431.032 L 319.804,429.995 C 319.805,429.92 319.863,429.862 319.936,429.864 L 321.65,429.864 C 321.723,429.863 321.782,429.922 321.782,429.995 L 321.782,431.034 C 321.782,431.104 321.723,431.164 321.649,431.164 L 319.934,431.164 z M 322.909,431.164 C 322.837,431.165 322.778,431.104 322.778,431.034 L 322.778,429.997 C 322.779,429.922 322.837,429.865 322.908,429.863 L 324.624,429.864 C 324.695,429.865 324.755,429.924 324.754,429.994 L 324.755,431.034 C 324.755,431.106 324.696,431.164 324.623,431.164 L 322.909,431.164 z M 325.881,431.166 C 325.809,431.165 325.75,431.106 325.75,431.034 L 325.749,429.996 C 325.75,429.924 325.809,429.864 325.879,429.865 L 327.596,429.866 C 327.668,429.865 327.727,429.924 327.726,429.996 L 327.725,431.035 C 327.727,431.108 327.668,431.166 327.596,431.166 L 325.881,431.166 L 325.881,431.166 z M 328.854,431.166 C 328.78,431.166 328.722,431.108 328.723,431.035 L 328.722,429.996 C 328.723,429.924 328.782,429.866 328.854,429.865 L 330.569,429.866 C 330.641,429.867 330.698,429.925 330.7,429.996 L 330.699,431.035 C 330.699,431.108 330.641,431.165 330.568,431.166 L 328.854,431.166 z M 331.825,431.167 C 331.754,431.168 331.696,431.108 331.695,431.035 L 331.696,429.998 C 331.696,429.924 331.755,429.866 331.827,429.865 L 333.542,429.866 C 333.614,429.867 333.671,429.925 333.672,429.998 L 333.673,431.037 C 333.671,431.109 333.614,431.167 333.542,431.168 L 331.825,431.167 z M 333.543,442.615 C 333.615,442.616 333.672,442.675 333.673,442.749 L 333.673,443.786 C 333.672,443.859 333.614,443.919 333.543,443.918 L 331.828,443.917 C 331.755,443.916 331.697,443.857 331.697,443.785 L 331.697,442.747 C 331.697,442.675 331.756,442.618 331.828,442.617 L 333.543,442.615 z M 330.571,442.618 C 330.644,442.617 330.702,442.673 330.702,442.746 L 330.704,443.785 C 330.702,443.857 330.644,443.915 330.571,443.916 L 328.856,443.915 C 328.784,443.914 328.724,443.857 328.725,443.785 L 328.726,442.746 C 328.726,442.674 328.785,442.614 328.857,442.615 L 330.571,442.618 z M 327.598,442.614 C 327.672,442.615 327.729,442.673 327.731,442.744 L 327.73,443.783 C 327.729,443.855 327.67,443.915 327.599,443.914 L 325.883,443.916 C 325.811,443.914 325.753,443.856 325.752,443.785 L 325.752,442.746 C 325.752,442.673 325.81,442.614 325.883,442.615 L 327.598,442.614 z M 324.625,442.612 C 324.698,442.613 324.756,442.674 324.756,442.744 L 324.756,443.783 C 324.755,443.855 324.697,443.915 324.625,443.914 L 322.91,443.914 C 322.838,443.915 322.779,443.854 322.779,443.783 L 322.78,442.744 C 322.779,442.671 322.838,442.614 322.911,442.613 L 324.625,442.612 z M 321.655,442.612 C 321.726,442.613 321.784,442.672 321.784,442.744 L 321.785,443.782 C 321.785,443.854 321.725,443.913 321.654,443.912 L 319.938,443.914 C 319.865,443.912 319.808,443.854 319.807,443.781 L 319.807,442.742 C 319.809,442.672 319.867,442.612 319.938,442.613 L 321.655,442.612 z M 318.681,442.612 C 318.753,442.613 318.811,442.67 318.812,442.742 L 318.811,443.781 C 318.811,443.854 318.753,443.912 318.68,443.912 L 316.965,443.912 C 316.893,443.911 316.834,443.854 316.835,443.78 L 316.835,442.742 C 316.835,442.67 316.894,442.61 316.965,442.611 L 318.681,442.612 z M 315.709,442.61 C 315.781,442.612 315.838,442.67 315.837,442.742 L 315.838,443.781 C 315.838,443.854 315.78,443.912 315.707,443.913 L 313.994,443.91 C 313.92,443.911 313.861,443.852 313.862,443.78 L 313.861,442.742 C 313.863,442.67 313.921,442.611 313.992,442.612 L 315.709,442.61 z M 311.018,444.966 L 335.497,444.966 L 335.496,443.918 L 334.8,443.916 C 334.729,443.917 334.67,443.858 334.67,443.786 L 334.67,442.746 C 334.671,442.676 334.729,442.616 334.8,442.617 L 335.498,442.616 L 335.498,431.168 L 334.797,431.166 C 334.726,431.167 334.666,431.108 334.668,431.036 L 334.667,430 C 334.668,429.927 334.726,429.867 334.799,429.869 L 335.499,429.868 L 335.497,428.754 L 311.018,428.755 L 311.018,429.862 L 312.733,429.861 C 312.807,429.86 312.864,429.92 312.864,429.993 L 312.864,431.03 C 312.864,431.103 312.805,431.162 312.733,431.161 L 311.018,431.161 L 311.02,442.61 L 312.736,442.61 C 312.809,442.61 312.866,442.67 312.867,442.741 L 312.867,443.78 C 312.866,443.852 312.809,443.91 312.735,443.911 L 311.022,443.91 L 311.018,444.966 z M 310.017,443.909 L 308.895,443.908 C 308.823,443.909 308.764,443.851 308.764,443.778 L 308.764,442.739 C 308.764,442.667 308.823,442.607 308.895,442.608 L 310.018,442.609 L 310.018,431.16 L 308.893,431.161 C 308.819,431.159 308.762,431.101 308.761,431.028 L 308.762,429.989 C 308.762,429.917 308.82,429.859 308.892,429.86 L 310.018,429.861 L 310.018,428.755 L 294.278,428.755 L 294.278,429.857 L 295.745,429.857 C 295.817,429.856 295.874,429.916 295.876,429.987 L 295.876,431.026 C 295.875,431.099 295.817,431.156 295.745,431.157 L 294.277,431.157 L 294.279,442.606 L 295.747,442.606 C 295.821,442.606 295.879,442.664 295.878,442.737 L 295.879,443.776 C 295.878,443.846 295.819,443.906 295.747,443.907 L 294.278,443.906 L 294.277,444.968 L 310.018,444.968 L 310.017,443.909 z M 307.637,442.609 C 307.711,442.608 307.768,442.666 307.768,442.739 L 307.768,443.778 C 307.768,443.848 307.709,443.908 307.637,443.909 L 305.922,443.909 C 305.85,443.907 305.791,443.849 305.791,443.776 L 305.792,442.737 C 305.791,442.666 305.85,442.607 305.923,442.608 L 307.637,442.609 z M 304.667,442.605 C 304.739,442.606 304.795,442.666 304.797,442.739 L 304.796,443.776 C 304.796,443.849 304.737,443.908 304.665,443.907 L 302.95,443.907 C 302.878,443.907 302.819,443.849 302.82,443.777 L 302.819,442.737 C 302.819,442.667 302.879,442.607 302.95,442.606 L 304.667,442.605 z M 297.004,443.905 C 296.934,443.906 296.873,443.847 296.873,443.775 L 296.873,442.735 C 296.873,442.663 296.932,442.605 297.006,442.605 L 298.721,442.605 C 298.791,442.606 298.852,442.663 298.85,442.735 L 298.851,443.775 C 298.85,443.847 298.791,443.907 298.719,443.906 L 297.004,443.905 z M 299.846,442.737 C 299.846,442.663 299.904,442.607 299.977,442.606 L 301.692,442.607 C 301.766,442.606 301.823,442.665 301.823,442.737 L 301.823,443.775 C 301.824,443.847 301.766,443.907 301.694,443.906 L 299.978,443.907 C 299.906,443.906 299.846,443.847 299.846,443.774 L 299.846,442.737 L 299.846,442.737 z "
   i:knockout="Off" />

			</g>
    <path
       style="fill:url(#XMLID_263_)"
       id="path23685"
       d="M 40.019539,24.469768 C 39.894265,24.468732 39.792804,24.368262 39.792804,24.242933 L 39.791768,14.864011 C 39.792804,14.738682 39.89323,14.637177 40.018504,14.637177 L 47.838301,14.638212 L 47.839336,24.468732 L 40.019539,24.468732 L 40.019539,24.469768 z "
       i:knockout="Off" />
    <path
       style="fill:url(#XMLID_264_)"
       id="path23692"
       d="M 23.897485,24.468732 C 23.772211,24.468732 23.671784,24.368262 23.671784,24.241897 L 23.670749,14.862975 C 23.670749,14.739718 23.771175,14.636141 23.897485,14.636141 L 37.447796,14.637177 C 37.57307,14.637177 37.674532,14.738682 37.672461,14.862975 L 37.674532,24.245004 C 37.674532,24.368262 37.57307,24.468732 37.447796,24.469768 L 23.897485,24.468732 z "
       i:knockout="Off" />
    <path
       style="fill:url(#XMLID_265_)"
       id="path23699"
       d="M 6.4181212,24.467697 C 6.2918117,24.469768 6.1913854,24.369298 6.1924207,24.241897 L 6.19035,14.861939 C 6.19035,14.736611 6.2918117,14.638212 6.4181212,14.636141 L 19.967397,14.637177 C 20.092671,14.637177 20.193098,14.737647 20.193098,14.862975 L 20.194133,24.241897 C 20.194133,24.367227 20.092671,24.468732 19.967397,24.468732 L 6.4181212,24.467697 z "
       i:knockout="Off" />
    <path
       style="fill:none;stroke:#ffffff;stroke-width:2.99999976"
       id="path23701"
       d="M 9.8419352,38.57492 L 9.8398645,43.19861 C 9.8398645,43.403693 10.008622,43.570452 10.215687,43.571488 C 10.317149,43.574595 10.409292,43.532128 10.477624,43.458589 L 20.300771,35.026363 C 20.592732,34.731168 20.592732,34.258856 20.300771,33.967803 L 10.484871,25.531435 C 10.41654,25.461002 10.322325,25.4175 10.214652,25.420607 C 10.007587,25.418536 9.8408999,25.585295 9.8419352,25.792449 L 9.8408999,30.422353"
       i:knockout="Off" />
    <path
       style="fill:url(#XMLID_266_);stroke:#590c08;stroke-width:0.5"
       id="path23708"
       d="M 0.22792301,38.571813 L 0.22895833,38.573885 L 9.8419352,38.57492 L 9.8398645,43.19861 C 9.8398645,43.403693 10.008622,43.570452 10.215687,43.571488 C 10.317149,43.574595 10.409292,43.532128 10.477624,43.458589 L 20.300771,35.026363 C 20.592732,34.731168 20.592732,34.258856 20.300771,33.967803 L 10.484871,25.531435 C 10.41654,25.461002 10.322325,25.4175 10.214652,25.420607 C 10.007587,25.418536 9.8408999,25.585295 9.8419352,25.792449 L 9.8408999,30.422353 L 0.22895833,30.417175"
       i:knockout="Off" />
    <g
       transform="matrix(1.0353233,0,0,1.0357727,-299.51164,-432.93472)"
       id="g23710"
       i:knockout="Off">
				
					<linearGradient
   gradientTransform="matrix(-0.5,0.866,-0.866,-0.5,824.7354,3686.6692)"
   y2="2071.0479"
   x2="-2540.2439"
   y1="2080.8169"
   x1="-2534.708"
   gradientUnits="userSpaceOnUse"
   id="linearGradient26211">
					<stop
   id="stop26213"
   style="stop-color:#F7AF3E"
   offset="0.3034" />

					<stop
   id="stop26215"
   style="stop-color:#F12523"
   offset="1" />

					<a:midPointStop
   style="stop-color:#F7AF3E"
   offset="0.3034" />

					<a:midPointStop
   style="stop-color:#F7AF3E"
   offset="0.5" />

					<a:midPointStop
   style="stop-color:#F12523"
   offset="1" />

				</linearGradient>

				<path
   style="fill:url(#XMLID_267_)"
   id="path23717"
   d="M 308.869,451.133 L 299.249,442.794 C 299.249,442.794 299.036,442.671 299.036,442.853 L 299.036,447.589 C 298.214,447.589 289.515,447.587 289.515,447.587 L 289.515,448.528 L 299.98,448.533 C 299.98,448.533 299.98,445.917 299.981,444.984 C 301.19,446.301 307.273,450.746 307.74,451.256 C 307.273,451.768 301.192,456.242 299.978,457.569 C 299.981,456.645 299.982,454.043 299.982,454.043 L 289.515,454.041 L 289.514,454.987 L 299.036,454.988 L 299.036,459.547 C 299.047,460.077 299.403,459.604 299.403,459.604 L 308.833,451.489 L 308.869,451.133 z "
   i:knockout="Off" />

			</g>
    <path
       style="fill:none;stroke:#ffffff;stroke-width:2.99999976"
       id="path23719"
       d="M 34.56442,30.356064 L 34.566491,25.732375 C 34.566491,25.527292 34.397733,25.360532 34.190668,25.359496 C 34.089207,25.356389 33.997063,25.398856 33.928732,25.472396 L 24.105584,33.904621 C 23.813623,34.199816 23.813623,34.672129 24.105584,34.963181 L 33.921484,43.39955 C 33.989816,43.469982 34.08403,43.513485 34.191704,43.510377 C 34.398768,43.512449 34.565455,43.345689 34.56442,43.138535 L 34.565455,38.508631"
       i:knockout="Off" />
    <path
       style="fill:url(#XMLID_268_);stroke:#590c08;stroke-width:0.5"
       id="path23726"
       d="M 44.178432,30.358136 L 44.177397,30.356064 L 34.56442,30.355028 L 34.566491,25.731339 C 34.566491,25.526256 34.397733,25.359496 34.190668,25.358461 C 34.089207,25.355353 33.997063,25.39782 33.928732,25.47136 L 24.105584,33.903585 C 23.813623,34.198781 23.813623,34.671093 24.105584,34.962145 L 33.921484,43.398514 C 33.989816,43.468946 34.08403,43.512449 34.191704,43.509341 C 34.398768,43.511413 34.565455,43.344654 34.56442,43.137499 L 34.565455,38.507595 L 44.177397,38.512774"
       i:knockout="Off" />
    <g
       transform="matrix(1.0353233,0,0,1.0357727,-299.51164,-432.93472)"
       id="g23728"
       i:knockout="Off">
				
					<linearGradient
   gradientTransform="matrix(0.5,-0.866,0.866,0.5,-7179.4336,1374.5779)"
   y2="6033.2256"
   x2="4549.6177"
   y1="6042.9946"
   x1="4555.1538"
   gradientUnits="userSpaceOnUse"
   id="linearGradient26221">
					<stop
   id="stop26223"
   style="stop-color:#F7AF3E"
   offset="0.3034" />

					<stop
   id="stop26225"
   style="stop-color:#F12523"
   offset="1" />

					<a:midPointStop
   style="stop-color:#F7AF3E"
   offset="0.3034" />

					<a:midPointStop
   style="stop-color:#F7AF3E"
   offset="0.5" />

					<a:midPointStop
   style="stop-color:#F12523"
   offset="1" />

				</linearGradient>

				<path
   style="fill:url(#XMLID_269_)"
   id="path23735"
   d="M 312.609,451.381 L 322.229,459.72 C 322.229,459.72 322.442,459.843 322.442,459.661 L 322.442,454.925 C 323.264,454.925 331.964,454.927 331.964,454.927 L 331.963,453.986 L 321.498,453.981 C 321.498,453.981 321.498,456.597 321.497,457.53 C 320.288,456.213 314.205,451.768 313.738,451.258 C 314.205,450.746 320.286,446.272 321.5,444.945 C 321.497,445.869 321.497,448.471 321.497,448.471 L 331.963,448.473 L 331.964,447.527 L 322.442,447.526 L 322.442,442.967 C 322.431,442.437 322.076,442.91 322.076,442.91 L 312.645,451.025 L 312.609,451.381 z "
   i:knockout="Off" />

			</g>
  </g>
</svg>
