<?xml version="1.0" encoding="UTF-8" standalone="no"?>
<!-- Created with Inkscape (http://www.inkscape.org/) -->
<svg
   xmlns:a="http://ns.adobe.com/AdobeSVGViewerExtensions/3.0/"
   xmlns:i="http://ns.adobe.com/AdobeIllustrator/10.0/"
   xmlns:dc="http://purl.org/dc/elements/1.1/"
   xmlns:cc="http://web.resource.org/cc/"
   xmlns:rdf="http://www.w3.org/1999/02/22-rdf-syntax-ns#"
   xmlns:svg="http://www.w3.org/2000/svg"
   xmlns="http://www.w3.org/2000/svg"
   xmlns:sodipodi="http://sodipodi.sourceforge.net/DTD/sodipodi-0.dtd"
   xmlns:inkscape="http://www.inkscape.org/namespaces/inkscape"
   width="48px"
   height="48px"
   id="svg15512"
   sodipodi:version="0.32"
   inkscape:version="0.44.1"
   sodipodi:docbase="e:\dev_clean\src\houdini\support\icons\cop2"
   sodipodi:docname="shift.svg">
  <defs
     id="defs15514">
    <linearGradient
       gradientTransform="matrix(0.4695,0.8829,-0.8829,0.4695,1483.067,1005.048)"
       y2="854.926"
       x2="-1533.7915"
       y1="803.499"
       x1="-1545.8491"
       gradientUnits="userSpaceOnUse"
       id="XMLID_132_">
				<stop
   id="stop12434"
   style="stop-color:#FFFFFF"
   offset="0" />

				<stop
   id="stop12436"
   style="stop-color:#B8C0CC"
   offset="1" />

				<a:midPointStop
   style="stop-color:#FFFFFF"
   offset="0" />

				<a:midPointStop
   style="stop-color:#FFFFFF"
   offset="0.5" />

				<a:midPointStop
   style="stop-color:#B8C0CC"
   offset="1" />

			</linearGradient>
    <linearGradient
       gradientTransform="matrix(0.4695,0.8829,-0.8829,0.4695,1483.067,1005.048)"
       y2="858.0635"
       x2="-1547.178"
       y1="806.6396"
       x1="-1559.2349"
       gradientUnits="userSpaceOnUse"
       id="XMLID_133_">
				<stop
   id="stop12443"
   style="stop-color:#FFFFFF"
   offset="0" />

				<stop
   id="stop12445"
   style="stop-color:#B8C0CC"
   offset="1" />

				<a:midPointStop
   style="stop-color:#FFFFFF"
   offset="0" />

				<a:midPointStop
   style="stop-color:#FFFFFF"
   offset="0.5" />

				<a:midPointStop
   style="stop-color:#B8C0CC"
   offset="1" />

			</linearGradient>
    <linearGradient
       gradientTransform="matrix(-0.9659,0.2588,-0.2588,-0.9659,-260.924,3537.361)"
       y2="3331.4307"
       x2="-1189.5326"
       y1="3331.4307"
       x1="-1183.5991"
       gradientUnits="userSpaceOnUse"
       id="XMLID_134_">
				<stop
   id="stop12450"
   style="stop-color:#F17912"
   offset="0.0056" />

				<stop
   id="stop12452"
   style="stop-color:#CB1009"
   offset="1" />

				<a:midPointStop
   style="stop-color:#F17912"
   offset="0.0056" />

				<a:midPointStop
   style="stop-color:#F17912"
   offset="0.5" />

				<a:midPointStop
   style="stop-color:#CB1009"
   offset="1" />

			</linearGradient>
    <linearGradient
       gradientTransform="matrix(-0.2588,0.9659,-0.9659,-0.2588,1319.47,2747.625)"
       y2="1857.5391"
       x2="-1937.3519"
       y1="1862.5166"
       x1="-1934.5313"
       gradientUnits="userSpaceOnUse"
       id="XMLID_135_">
					<stop
   id="stop12459"
   style="stop-color:#FAAF3E"
   offset="0.3034" />

					<stop
   id="stop12461"
   style="stop-color:#F62724"
   offset="1" />

					<a:midPointStop
   style="stop-color:#FAAF3E"
   offset="0.3034" />

					<a:midPointStop
   style="stop-color:#FAAF3E"
   offset="0.5" />

					<a:midPointStop
   style="stop-color:#F62724"
   offset="1" />

				</linearGradient>
    <linearGradient
       gradientTransform="matrix(0.9659,-0.2588,0.2588,0.9659,-583.804,-544.9004)"
       y2="695.4268"
       x2="432.8312"
       y1="695.4268"
       x1="438.7646"
       gradientUnits="userSpaceOnUse"
       id="XMLID_136_">
				<stop
   id="stop12466"
   style="stop-color:#F17912"
   offset="0.0056" />

				<stop
   id="stop12468"
   style="stop-color:#CB1009"
   offset="1" />

				<a:midPointStop
   style="stop-color:#F17912"
   offset="0.0056" />

				<a:midPointStop
   style="stop-color:#F17912"
   offset="0.5" />

				<a:midPointStop
   style="stop-color:#CB1009"
   offset="1" />

			</linearGradient>
    <linearGradient
       gradientTransform="matrix(0.2588,-0.9659,0.9659,0.2588,-2162.617,1012.673)"
       y2="1944.6182"
       x2="1156.6735"
       y1="1949.5957"
       x1="1159.4941"
       gradientUnits="userSpaceOnUse"
       id="XMLID_137_">
					<stop
   id="stop12475"
   style="stop-color:#FAAF3E"
   offset="0.3034" />

					<stop
   id="stop12477"
   style="stop-color:#F62724"
   offset="1" />

					<a:midPointStop
   style="stop-color:#FAAF3E"
   offset="0.3034" />

					<a:midPointStop
   style="stop-color:#FAAF3E"
   offset="0.5" />

					<a:midPointStop
   style="stop-color:#F62724"
   offset="1" />

				</linearGradient>
  </defs>
  <sodipodi:namedview
     id="base"
     pagecolor="#ffffff"
     bordercolor="#666666"
     borderopacity="1.0"
     inkscape:pageopacity="0.0"
     inkscape:pageshadow="2"
     inkscape:zoom="7"
     inkscape:cx="24"
     inkscape:cy="24"
     inkscape:current-layer="layer1"
     showgrid="true"
     inkscape:grid-bbox="true"
     inkscape:document-units="px"
     inkscape:window-width="853"
     inkscape:window-height="573"
     inkscape:window-x="332"
     inkscape:window-y="68" />
  <metadata
     id="metadata15517">
    <rdf:RDF>
      <cc:Work
         rdf:about="">
        <dc:format>image/svg+xml</dc:format>
        <dc:type
           rdf:resource="http://purl.org/dc/dcmitype/StillImage" />
      </cc:Work>
    </rdf:RDF>
  </metadata>
  <g
     id="layer1"
     inkscape:label="Layer 1"
     inkscape:groupmode="layer">
    <g
       transform="translate(-0.791642,-383.918)"
       id="g12429">
				<path
   id="path12431"
   d="M 49.869,414.681 L 49.598,413.668 L 48.924,413.847 C 48.856,413.866 48.783,413.826 48.766,413.754 L 48.496,412.751 C 48.478,412.682 48.518,412.609 48.588,412.592 L 49.262,412.411 L 46.299,401.351 L 45.622,401.532 C 45.553,401.552 45.48,401.511 45.463,401.44 L 45.193,400.437 C 45.174,400.368 45.214,400.295 45.286,400.277 L 45.962,400.096 L 45.673,399.02 L 0,411.258 L 0.285,412.322 L 0.998,412.131 C 1.068,412.112 1.139,412.154 1.158,412.223 L 1.428,413.228 C 1.446,413.297 1.405,413.369 1.335,413.388 L 0.621,413.578 L 3.586,424.637 L 4.301,424.446 C 4.371,424.426 4.443,424.467 4.461,424.538 L 4.731,425.542 C 4.749,425.611 4.708,425.684 4.637,425.702 L 3.922,425.893 L 4.195,426.918 L 49.869,414.681 z M 2.55,413.062 C 2.479,413.082 2.408,413.04 2.39,412.971 L 2.12,411.966 C 2.102,411.897 2.142,411.825 2.213,411.807 L 3.87,411.363 C 3.94,411.344 4.012,411.385 4.029,411.455 L 4.299,412.459 C 4.317,412.529 4.278,412.601 4.205,412.62 L 2.55,413.062 z M 5.421,412.294 C 5.352,412.313 5.279,412.271 5.261,412.201 L 4.992,411.197 C 4.974,411.128 5.014,411.056 5.086,411.037 L 6.741,410.594 C 6.811,410.574 6.883,410.616 6.901,410.687 L 7.17,411.69 C 7.189,411.761 7.149,411.832 7.078,411.849 L 5.421,412.294 z M 8.292,411.525 C 8.223,411.544 8.151,411.502 8.134,411.431 L 7.863,410.426 C 7.845,410.36 7.886,410.287 7.956,410.269 L 9.613,409.825 C 9.683,409.806 9.754,409.847 9.773,409.917 L 10.042,410.921 C 10.061,410.991 10.02,411.063 9.949,411.082 L 8.292,411.525 z M 11.164,410.756 C 11.096,410.775 11.023,410.734 11.005,410.665 L 10.735,409.66 C 10.716,409.591 10.757,409.518 10.828,409.5 L 12.484,409.057 C 12.554,409.038 12.626,409.079 12.644,409.149 L 12.914,410.154 C 12.932,410.223 12.891,410.296 12.82,410.314 L 11.164,410.756 z M 14.037,409.988 C 13.965,410.007 13.894,409.965 13.875,409.895 L 13.606,408.891 C 13.588,408.821 13.628,408.75 13.699,408.732 L 15.355,408.289 C 15.425,408.269 15.496,408.31 15.515,408.381 L 15.784,409.384 C 15.804,409.454 15.762,409.526 15.693,409.544 L 14.037,409.988 z M 16.906,409.22 C 16.837,409.239 16.765,409.197 16.748,409.127 L 16.478,408.124 C 16.46,408.053 16.501,407.981 16.572,407.963 L 18.228,407.519 C 18.297,407.5 18.369,407.543 18.387,407.613 L 18.656,408.615 C 18.676,408.684 18.634,408.757 18.564,408.775 L 16.906,409.22 z M 19.779,408.45 C 19.709,408.47 19.636,408.428 19.619,408.357 L 19.349,407.354 C 19.33,407.285 19.372,407.212 19.442,407.195 L 21.098,406.751 C 21.169,406.731 21.24,406.774 21.259,406.844 L 21.527,407.847 C 21.547,407.916 21.506,407.989 21.435,408.007 L 19.779,408.45 z M 22.65,407.682 C 22.58,407.702 22.507,407.661 22.49,407.591 L 22.221,406.587 C 22.202,406.515 22.243,406.445 22.314,406.426 L 23.97,405.983 C 24.04,405.964 24.111,406.005 24.13,406.075 L 24.399,407.079 C 24.418,407.148 24.376,407.22 24.306,407.24 L 22.65,407.682 z M 25.521,406.912 C 25.453,406.932 25.38,406.891 25.361,406.821 L 25.093,405.816 C 25.073,405.748 25.114,405.674 25.185,405.657 L 26.843,405.212 C 26.911,405.195 26.982,405.236 27.001,405.306 L 27.271,406.31 C 27.289,406.38 27.248,406.452 27.177,406.469 L 25.521,406.912 z M 28.393,406.146 C 28.323,406.164 28.252,406.123 28.235,406.052 L 27.964,405.049 C 27.945,404.978 27.986,404.907 28.057,404.89 L 29.713,404.446 C 29.783,404.426 29.856,404.468 29.874,404.538 L 30.143,405.542 C 30.162,405.611 30.121,405.683 30.049,405.702 L 28.393,406.146 z M 31.266,405.376 C 31.196,405.396 31.123,405.353 31.106,405.283 L 30.836,404.281 C 30.818,404.21 30.859,404.138 30.928,404.12 L 32.586,403.676 C 32.654,403.658 32.727,403.699 32.744,403.769 L 33.014,404.773 C 33.034,404.843 32.992,404.914 32.921,404.933 L 31.266,405.376 z M 34.137,404.607 C 34.067,404.626 33.995,404.585 33.977,404.514 L 33.707,403.511 C 33.689,403.441 33.73,403.369 33.799,403.352 L 35.457,402.908 C 35.527,402.888 35.599,402.93 35.616,403 L 35.885,404.004 C 35.905,404.074 35.864,404.145 35.793,404.165 L 34.137,404.607 z M 37.008,403.839 C 36.938,403.858 36.866,403.817 36.848,403.747 L 36.578,402.743 C 36.56,402.673 36.601,402.601 36.672,402.583 L 38.328,402.14 C 38.398,402.121 38.469,402.162 38.488,402.231 L 38.757,403.236 C 38.776,403.305 38.735,403.377 38.664,403.396 L 37.008,403.839 z M 39.879,403.07 C 39.81,403.09 39.738,403.047 39.719,402.977 L 39.451,401.974 C 39.431,401.903 39.473,401.832 39.543,401.812 L 41.2,401.37 C 41.269,401.352 41.34,401.393 41.359,401.463 L 41.629,402.467 C 41.647,402.537 41.607,402.609 41.536,402.627 L 39.879,403.07 z M 42.75,402.303 C 42.681,402.322 42.609,402.278 42.592,402.21 L 42.322,401.207 C 42.303,401.136 42.343,401.065 42.416,401.046 L 44.072,400.601 C 44.14,400.583 44.213,400.625 44.23,400.694 L 44.5,401.698 C 44.518,401.768 44.478,401.841 44.408,401.859 L 42.75,402.303 z M 47.373,412.915 C 47.443,412.896 47.514,412.937 47.533,413.01 L 47.802,414.013 C 47.821,414.082 47.78,414.155 47.711,414.172 L 46.054,414.615 C 45.983,414.634 45.912,414.593 45.893,414.522 L 45.624,413.52 C 45.606,413.45 45.647,413.378 45.717,413.359 L 47.373,412.915 z M 44.502,413.685 C 44.572,413.666 44.645,413.707 44.662,413.778 L 44.932,414.781 C 44.95,414.85 44.909,414.923 44.839,414.94 L 43.182,415.384 C 43.112,415.404 43.039,415.363 43.022,415.293 L 42.752,414.288 C 42.734,414.219 42.775,414.146 42.846,414.128 L 44.502,413.685 z M 41.631,414.455 C 41.701,414.435 41.772,414.476 41.79,414.546 L 42.061,415.549 C 42.079,415.619 42.038,415.691 41.967,415.71 L 40.311,416.152 C 40.241,416.171 40.168,416.131 40.151,416.06 L 39.882,415.056 C 39.863,414.987 39.904,414.913 39.975,414.896 L 41.631,414.455 z M 38.759,415.222 C 38.83,415.203 38.901,415.244 38.92,415.314 L 39.189,416.317 C 39.207,416.388 39.166,416.46 39.096,416.478 L 37.44,416.922 C 37.37,416.941 37.298,416.9 37.279,416.83 L 37.01,415.826 C 36.99,415.757 37.031,415.683 37.103,415.666 L 38.759,415.222 z M 35.887,415.989 C 35.958,415.971 36.03,416.013 36.047,416.083 L 36.317,417.087 C 36.335,417.156 36.294,417.229 36.224,417.247 L 34.568,417.69 C 34.499,417.709 34.426,417.666 34.408,417.597 L 34.139,416.593 C 34.119,416.523 34.161,416.452 34.232,416.433 L 35.887,415.989 z M 33.017,416.759 C 33.086,416.741 33.158,416.782 33.176,416.853 L 33.446,417.855 C 33.465,417.924 33.423,417.997 33.353,418.015 L 31.696,418.459 C 31.626,418.478 31.555,418.436 31.536,418.366 L 31.267,417.362 C 31.249,417.293 31.29,417.221 31.36,417.203 L 33.017,416.759 z M 30.145,417.528 C 30.215,417.509 30.286,417.549 30.305,417.619 L 30.574,418.624 C 30.593,418.693 30.552,418.765 30.481,418.784 L 28.825,419.226 C 28.755,419.245 28.683,419.205 28.665,419.133 L 28.396,418.13 C 28.377,418.06 28.418,417.988 28.488,417.97 L 30.145,417.528 z M 27.273,418.296 C 27.343,418.277 27.414,418.319 27.431,418.389 L 27.701,419.393 C 27.721,419.463 27.68,419.535 27.609,419.553 L 25.953,419.995 C 25.882,420.015 25.81,419.974 25.793,419.902 L 25.523,418.9 C 25.505,418.83 25.546,418.758 25.616,418.74 L 27.273,418.296 z M 24.401,419.064 C 24.471,419.044 24.543,419.087 24.561,419.157 L 24.831,420.16 C 24.849,420.23 24.809,420.302 24.737,420.321 L 23.082,420.764 C 23.012,420.783 22.939,420.742 22.922,420.671 L 22.652,419.666 C 22.633,419.598 22.674,419.526 22.744,419.508 L 24.401,419.064 z M 21.53,419.832 C 21.599,419.813 21.671,419.856 21.689,419.926 L 21.959,420.93 C 21.977,420.999 21.936,421.071 21.866,421.088 L 20.21,421.533 C 20.14,421.553 20.068,421.51 20.049,421.44 L 19.781,420.436 C 19.761,420.367 19.804,420.295 19.873,420.276 L 21.53,419.832 z M 18.658,420.603 C 18.728,420.583 18.8,420.624 18.818,420.695 L 19.087,421.698 C 19.106,421.769 19.065,421.84 18.994,421.859 L 17.338,422.301 C 17.268,422.321 17.197,422.28 17.178,422.21 L 16.908,421.206 C 16.89,421.136 16.931,421.063 17.002,421.045 L 18.658,420.603 z M 15.787,421.371 C 15.857,421.352 15.928,421.393 15.946,421.463 L 16.216,422.467 C 16.234,422.536 16.194,422.609 16.123,422.628 L 14.467,423.07 C 14.397,423.089 14.325,423.048 14.307,422.977 L 14.038,421.973 C 14.018,421.905 14.06,421.831 14.131,421.814 L 15.787,421.371 z M 12.916,422.138 C 12.986,422.12 13.056,422.163 13.076,422.233 L 13.344,423.236 C 13.364,423.305 13.322,423.378 13.252,423.396 L 11.595,423.839 C 11.525,423.859 11.454,423.817 11.436,423.746 L 11.166,422.743 C 11.147,422.674 11.189,422.601 11.259,422.583 L 12.916,422.138 z M 5.852,425.375 C 5.784,425.395 5.71,425.354 5.692,425.284 L 5.422,424.28 C 5.404,424.21 5.445,424.138 5.517,424.12 L 7.173,423.676 C 7.242,423.658 7.315,423.698 7.332,423.769 L 7.602,424.773 C 7.62,424.842 7.579,424.915 7.509,424.932 L 5.852,425.375 z M 8.295,423.513 C 8.275,423.441 8.316,423.371 8.387,423.352 L 10.043,422.909 C 10.114,422.889 10.185,422.93 10.203,423.001 L 10.473,424.004 C 10.493,424.073 10.452,424.146 10.381,424.164 L 8.725,424.608 C 8.655,424.626 8.582,424.585 8.563,424.515 L 8.295,423.513 z "
   i:knockout="Off" />

			</g>
    <path
       style="fill:url(#XMLID_132_)"
       id="path12438"
       d="M 34.179358,31.276003 C 34.062358,31.307003 33.943358,31.239003 33.911358,31.122003 L 31.566358,22.375003 C 31.536358,22.258003 31.604358,22.140003 31.721358,22.107003 L 44.363358,18.720003 C 44.479358,18.688003 44.598358,18.757003 44.631358,18.873003 L 46.975358,27.620003 C 47.005358,27.737003 46.937358,27.856003 46.822358,27.889003 L 34.179358,31.276003 z "
       i:knockout="Off" />
    <path
       style="fill:#ed2728"
       id="path12440"
       d="M 19.138358,35.306003 C 19.021358,35.337003 18.903358,35.269003 18.871358,35.152003 L 16.526358,26.405003 C 16.495358,26.290003 16.563358,26.170003 16.680358,26.138003 L 29.323358,22.750003 C 29.440358,22.720003 29.559358,22.787003 29.590358,22.904003 L 31.935358,31.652003 C 31.966358,31.767003 31.897358,31.887003 31.781358,31.918003 L 19.138358,35.306003 z "
       i:knockout="Off" />
    <path
       style="fill:url(#XMLID_133_)"
       id="path12447"
       d="M 4.0993572,39.334003 C 3.9823572,39.367003 3.8633572,39.300003 3.8313572,39.180003 L 1.4863572,30.435003 C 1.4553572,30.318003 1.5243572,30.200003 1.6413572,30.167003 L 14.283358,26.780003 C 14.400358,26.749003 14.518358,26.817003 14.550358,26.934003 L 16.894358,35.680003 C 16.926358,35.797003 16.857358,35.916003 16.741358,35.948003 L 4.0993572,39.334003 z "
       i:knockout="Off" />
    <path
       style="fill:url(#XMLID_134_);stroke:#590b08;stroke-width:0.42950001"
       id="path12454"
       d="M 20.757358,15.850003 L 24.926358,14.735003 L 25.718358,17.696003 C 25.753358,17.828003 25.890358,17.906003 26.023358,17.871003 C 26.088358,17.854003 26.140358,17.811003 26.171358,17.754003 L 29.691358,11.023003 C 29.828358,10.786003 29.747358,10.482003 29.509358,10.345003 L 23.100358,6.2740027 C 23.044358,6.2410027 22.976358,6.2290027 22.908358,6.2490027 C 22.775358,6.2830027 22.697358,6.4180027 22.733358,6.5520027 L 23.527358,9.5160027 L 19.358358,10.630003"
       i:knockout="Off" />
    <g
       transform="translate(-0.791642,-383.918)"
       id="g12456"
       i:knockout="Off">
				
					<linearGradient
   gradientTransform="matrix(-0.2588,0.9659,-0.9659,-0.2588,1319.47,2747.625)"
   y2="1857.5391"
   x2="-1937.3519"
   y1="1862.5166"
   x1="-1934.5313"
   gradientUnits="userSpaceOnUse"
   id="linearGradient15545">
					<stop
   id="stop15547"
   style="stop-color:#FAAF3E"
   offset="0.3034" />

					<stop
   id="stop15549"
   style="stop-color:#F62724"
   offset="1" />

					<a:midPointStop
   style="stop-color:#FAAF3E"
   offset="0.3034" />

					<a:midPointStop
   style="stop-color:#FAAF3E"
   offset="0.5" />

					<a:midPointStop
   style="stop-color:#F62724"
   offset="1" />

				</linearGradient>

				<path
   style="fill:url(#XMLID_135_)"
   id="path12463"
   d="M 30.342,394.505 L 23.807,390.328 C 23.807,390.328 23.644,390.284 23.676,390.404 L 24.518,393.545 C 23.972,393.691 20.192,394.703 20.192,394.703 L 20.36,395.329 L 25.311,394.005 C 25.311,394.005 24.846,392.27 24.681,391.651 C 25.717,392.309 29.215,394.531 29.616,394.787 C 29.397,395.21 27.485,398.902 26.917,399.998 C 26.754,399.385 26.292,397.658 26.292,397.658 L 21.34,398.984 L 21.507,399.611 L 25.833,398.453 L 26.644,401.477 C 26.746,401.826 26.897,401.449 26.897,401.449 L 30.383,394.747 L 30.342,394.505 z "
   i:knockout="Off" />

			</g>
    <path
       style="fill:url(#XMLID_136_);stroke:#590b08;stroke-width:0.42950001"
       id="path12470"
       d="M 19.357358,10.628003 L 15.188358,11.743003 L 14.395358,8.7820027 C 14.360358,8.6500027 14.223358,8.5720027 14.090358,8.6070027 C 14.026358,8.6240027 13.973358,8.6670027 13.942358,8.7240027 L 10.422358,15.455003 C 10.285358,15.692003 10.367358,15.995003 10.605358,16.133003 L 17.014358,20.203003 C 17.070358,20.237003 17.139358,20.249003 17.205358,20.229003 C 17.338358,20.195003 17.416358,20.059003 17.381358,19.926003 L 16.586358,16.963003 L 20.755358,15.848003"
       i:knockout="Off" />
    <g
       transform="translate(-0.791642,-383.918)"
       id="g12472"
       i:knockout="Off">
				
					<linearGradient
   gradientTransform="matrix(0.2588,-0.9659,0.9659,0.2588,-2162.617,1012.673)"
   y2="1944.6182"
   x2="1156.6735"
   y1="1949.5957"
   x1="1159.4941"
   gradientUnits="userSpaceOnUse"
   id="linearGradient15554">
					<stop
   id="stop15556"
   style="stop-color:#FAAF3E"
   offset="0.3034" />

					<stop
   id="stop15558"
   style="stop-color:#F62724"
   offset="1" />

					<a:midPointStop
   style="stop-color:#FAAF3E"
   offset="0.3034" />

					<a:midPointStop
   style="stop-color:#FAAF3E"
   offset="0.5" />

					<a:midPointStop
   style="stop-color:#F62724"
   offset="1" />

				</linearGradient>

				<path
   style="fill:url(#XMLID_137_)"
   id="path12479"
   d="M 11.355,399.809 L 17.891,403.986 C 17.891,403.986 18.054,404.03 18.022,403.91 L 17.18,400.769 C 17.726,400.623 21.505,399.611 21.505,399.611 L 21.337,398.985 L 16.387,400.309 C 16.387,400.309 16.851,402.044 17.017,402.662 C 15.98,402.005 12.484,399.783 12.081,399.527 C 12.301,399.104 14.213,395.413 14.78,394.316 C 14.944,394.929 15.406,396.655 15.406,396.655 L 20.358,395.329 L 20.19,394.703 L 15.865,395.86 L 15.054,392.837 C 14.951,392.488 14.8,392.865 14.8,392.865 L 11.315,399.567 L 11.355,399.809 z "
   i:knockout="Off" />

			</g>
    <g
       transform="translate(-0.791642,-383.918)"
       id="g12481">
				<path
   style="fill:none;stroke:#ed2728;stroke-width:1.5"
   id="path12483"
   d="M 12.533,410.039 L 11.522,406.266 C 11.449,405.996 11.611,405.72 11.88,405.646 L 15.652,404.635"
   i:knockout="Off" />

				<path
   style="fill:none;stroke:#ed2728;stroke-width:1.5"
   id="path12485"
   d="M 28.98,401.065 L 32.753,400.053 C 33.023,399.98 33.3,400.143 33.374,400.411 L 34.384,404.183"
   i:knockout="Off" />

				<path
   style="fill:none;stroke:#ed2728;stroke-width:1.5"
   id="path12487"
   d="M 37.512,415.854 L 38.524,419.627 C 38.596,419.897 38.434,420.173 38.165,420.247 L 34.394,421.258"
   i:knockout="Off" />

				<path
   style="fill:none;stroke:#ed2728;stroke-width:1.5"
   id="path12489"
   d="M 21.066,424.826 L 17.293,425.838 C 17.023,425.911 16.747,425.748 16.673,425.48 L 15.662,421.708"
   i:knockout="Off" />

			</g>
  </g>
</svg>
