<?xml version="1.0" encoding="UTF-8" standalone="no"?>
<!-- Created with Inkscape (http://www.inkscape.org/) -->
<svg
   xmlns:a="http://ns.adobe.com/AdobeSVGViewerExtensions/3.0/"
   xmlns:i="http://ns.adobe.com/AdobeIllustrator/10.0/"
   xmlns:dc="http://purl.org/dc/elements/1.1/"
   xmlns:cc="http://web.resource.org/cc/"
   xmlns:rdf="http://www.w3.org/1999/02/22-rdf-syntax-ns#"
   xmlns:svg="http://www.w3.org/2000/svg"
   xmlns="http://www.w3.org/2000/svg"
   xmlns:sodipodi="http://sodipodi.sourceforge.net/DTD/sodipodi-0.dtd"
   xmlns:inkscape="http://www.inkscape.org/namespaces/inkscape"
   width="48px"
   height="48px"
   id="svg26096"
   sodipodi:version="0.32"
   inkscape:version="0.45.1"
   sodipodi:docbase="C:\dev\src\houdini\support\icons\COP2"
   sodipodi:docname="shuffle.svg"
   inkscape:output_extension="org.inkscape.output.svg.inkscape">
  <defs
     id="defs26098">
    <linearGradient
       y2="359.729"
       x2="290.8027"
       y1="359.729"
       x1="328.2173"
       gradientUnits="userSpaceOnUse"
       id="XMLID_254_"
       gradientTransform="matrix(1.0186194,0,0,1.0187373,-293.58793,-341.53158)">
				<stop
   id="stop23582"
   style="stop-color:#FFFFFF"
   offset="0" />

				<stop
   id="stop23584"
   style="stop-color:#B8C0CA"
   offset="1" />

				<a:midPointStop
   style="stop-color:#FFFFFF"
   offset="0" />

				<a:midPointStop
   style="stop-color:#FFFFFF"
   offset="0.5" />

				<a:midPointStop
   style="stop-color:#B8C0CA"
   offset="1" />

			</linearGradient>
    <linearGradient
       y2="359.728"
       x2="290.8009"
       y1="359.728"
       x1="328.2183"
       gradientUnits="userSpaceOnUse"
       id="XMLID_255_"
       gradientTransform="matrix(1.0186194,0,0,1.0187373,-293.58793,-341.53158)">
				<stop
   id="stop23589"
   style="stop-color:#FFFFFF"
   offset="0" />

				<stop
   id="stop23591"
   style="stop-color:#B8C0CA"
   offset="1" />

				<a:midPointStop
   style="stop-color:#FFFFFF"
   offset="0" />

				<a:midPointStop
   style="stop-color:#FFFFFF"
   offset="0.5" />

				<a:midPointStop
   style="stop-color:#B8C0CA"
   offset="1" />

			</linearGradient>
    <linearGradient
       y2="359.728"
       x2="290.8013"
       y1="359.728"
       x1="328.2173"
       gradientUnits="userSpaceOnUse"
       id="XMLID_256_"
       gradientTransform="matrix(1.0186194,0,0,1.0187373,-293.58793,-341.53158)">
				<stop
   id="stop23596"
   style="stop-color:#FFFFFF"
   offset="0" />

				<stop
   id="stop23598"
   style="stop-color:#B8C0CA"
   offset="1" />

				<a:midPointStop
   style="stop-color:#FFFFFF"
   offset="0" />

				<a:midPointStop
   style="stop-color:#FFFFFF"
   offset="0.5" />

				<a:midPointStop
   style="stop-color:#B8C0CA"
   offset="1" />

			</linearGradient>
    <linearGradient
       y2="351.8686"
       x2="295.5167"
       y1="341.7808"
       x1="305.8862"
       gradientUnits="userSpaceOnUse"
       id="XMLID_257_"
       gradientTransform="matrix(1.0186194,0,0,1.0187373,-293.58793,-341.53158)">
				<stop
   id="stop23605"
   style="stop-color:#EF7916"
   offset="0.0056" />

				<stop
   id="stop23607"
   style="stop-color:#CB130C"
   offset="1" />

				<a:midPointStop
   style="stop-color:#EF7916"
   offset="0.0056" />

				<a:midPointStop
   style="stop-color:#EF7916"
   offset="0.5" />

				<a:midPointStop
   style="stop-color:#CB130C"
   offset="1" />

			</linearGradient>
    <linearGradient
       y2="352.9357"
       x2="330.3621"
       y1="339.8413"
       x1="315.2212"
       gradientUnits="userSpaceOnUse"
       id="XMLID_258_"
       gradientTransform="matrix(1.0186194,0,0,1.0187373,-293.58793,-341.53158)">
				<stop
   id="stop23612"
   style="stop-color:#EF7916"
   offset="0.0056" />

				<stop
   id="stop23614"
   style="stop-color:#FFFFFF"
   offset="1" />

				<a:midPointStop
   style="stop-color:#EF7916"
   offset="0.0056" />

				<a:midPointStop
   style="stop-color:#EF7916"
   offset="0.5" />

				<a:midPointStop
   style="stop-color:#FFFFFF"
   offset="1" />

			</linearGradient>
    <linearGradient
       y2="349.6626"
       x2="296.11761"
       y1="349.6626"
       x1="327.45071"
       gradientUnits="userSpaceOnUse"
       id="XMLID_259_">
					<stop
   id="stop23623"
   style="stop-color:#FFFFFF"
   offset="0.0056" />

					<stop
   id="stop23625"
   style="stop-color:#F7AF3E"
   offset="0.3034" />

					<stop
   id="stop23627"
   style="stop-color:#F12523"
   offset="1" />

					<a:midPointStop
   style="stop-color:#FFFFFF"
   offset="0.0056" />

					<a:midPointStop
   style="stop-color:#FFFFFF"
   offset="0.5" />

					<a:midPointStop
   style="stop-color:#F7AF3E"
   offset="0.3034" />

					<a:midPointStop
   style="stop-color:#F7AF3E"
   offset="0.5" />

					<a:midPointStop
   style="stop-color:#F12523"
   offset="1" />

				</linearGradient>
    <linearGradient
       gradientTransform="matrix(-1.0186194,0,0,-1.0187373,-6893.8088,4146.216)"
       y2="4037.3196"
       x2="-6809.4287"
       y1="4029.6353"
       x1="-6801.5298"
       gradientUnits="userSpaceOnUse"
       id="XMLID_260_">
				<stop
   id="stop23634"
   style="stop-color:#EF7916"
   offset="0.0056" />

				<stop
   id="stop23636"
   style="stop-color:#CB130C"
   offset="1" />

				<a:midPointStop
   style="stop-color:#EF7916"
   offset="0.0056" />

				<a:midPointStop
   style="stop-color:#EF7916"
   offset="0.5" />

				<a:midPointStop
   style="stop-color:#CB130C"
   offset="1" />

			</linearGradient>
    <linearGradient
       y2="365.1167"
       x2="311.1504"
       y1="376.0698"
       x1="315.3071"
       gradientUnits="userSpaceOnUse"
       id="XMLID_261_"
       gradientTransform="matrix(1.0186194,0,0,1.0187373,-293.58793,-341.53158)">
				<stop
   id="stop23641"
   style="stop-color:#EF7916"
   offset="0.0056" />

				<stop
   id="stop23643"
   style="stop-color:#F18A34"
   offset="0.0883" />

				<stop
   id="stop23645"
   style="stop-color:#F39B51"
   offset="0.1904" />

				<stop
   id="stop23647"
   style="stop-color:#F5A767"
   offset="0.2911" />

				<stop
   id="stop23649"
   style="stop-color:#F6AF74"
   offset="0.3889" />

				<stop
   id="stop23651"
   style="stop-color:#F6B178"
   offset="0.4804" />

				<stop
   id="stop23653"
   style="stop-color:#DBDFE4"
   offset="0.771" />

				<a:midPointStop
   style="stop-color:#EF7916"
   offset="0.0056" />

				<a:midPointStop
   style="stop-color:#EF7916"
   offset="0.3065" />

				<a:midPointStop
   style="stop-color:#F6B178"
   offset="0.4804" />

				<a:midPointStop
   style="stop-color:#F6B178"
   offset="0.5" />

				<a:midPointStop
   style="stop-color:#DBDFE4"
   offset="0.771" />

			</linearGradient>
    <linearGradient
       gradientTransform="matrix(-1,0,0,-1,-6479.5752,4405.2061)"
       y2="4035.4106"
       x2="-6809.5811"
       y1="4035.4106"
       x1="-6790.9316"
       gradientUnits="userSpaceOnUse"
       id="XMLID_262_">
					<stop
   id="stop23662"
   style="stop-color:#FFFFFF"
   offset="0" />

					<stop
   id="stop23664"
   style="stop-color:#F7AF3E"
   offset="0.3034" />

					<stop
   id="stop23666"
   style="stop-color:#F12523"
   offset="1" />

					<a:midPointStop
   style="stop-color:#FFFFFF"
   offset="0" />

					<a:midPointStop
   style="stop-color:#FFFFFF"
   offset="0.5" />

					<a:midPointStop
   style="stop-color:#F7AF3E"
   offset="0.3034" />

					<a:midPointStop
   style="stop-color:#F7AF3E"
   offset="0.5" />

					<a:midPointStop
   style="stop-color:#F12523"
   offset="1" />

				</linearGradient>
  </defs>
  <sodipodi:namedview
     id="base"
     pagecolor="#ffffff"
     bordercolor="#666666"
     borderopacity="1.0"
     inkscape:pageopacity="0.0"
     inkscape:pageshadow="2"
     inkscape:zoom="7"
     inkscape:cx="24"
     inkscape:cy="24"
     inkscape:current-layer="layer1"
     showgrid="true"
     inkscape:grid-bbox="true"
     inkscape:document-units="px"
     inkscape:window-width="744"
     inkscape:window-height="573"
     inkscape:window-x="110"
     inkscape:window-y="120" />
  <metadata
     id="metadata26101">
    <rdf:RDF>
      <cc:Work
         rdf:about="">
        <dc:format>image/svg+xml</dc:format>
        <dc:type
           rdf:resource="http://purl.org/dc/dcmitype/StillImage" />
      </cc:Work>
    </rdf:RDF>
  </metadata>
  <g
     id="layer1"
     inkscape:label="Layer 1"
     inkscape:groupmode="layer">
    <g
       transform="matrix(1.0186194,0,0,1.0187373,-293.58793,-341.53158)"
       id="g23577">
				<path
   id="path23579"
   d="M 335.495,367.834 L 335.494,366.786 L 334.798,366.784 C 334.726,366.785 334.667,366.726 334.668,366.654 L 334.667,365.614 C 334.669,365.544 334.726,365.484 334.798,365.485 L 335.495,365.484 L 335.495,354.036 L 334.795,354.034 C 334.724,354.035 334.664,353.976 334.665,353.904 L 334.664,352.867 C 334.665,352.794 334.722,352.734 334.796,352.736 L 335.495,352.735 L 335.494,351.621 L 288.21,351.622 L 288.21,352.724 L 288.948,352.724 C 289.02,352.723 289.078,352.783 289.079,352.854 L 289.079,353.893 C 289.079,353.966 289.02,354.023 288.948,354.024 L 288.21,354.024 L 288.212,365.473 L 288.951,365.473 C 289.024,365.473 289.083,365.531 289.082,365.604 L 289.083,366.643 C 289.082,366.713 289.023,366.773 288.95,366.774 L 288.21,366.773 L 288.21,367.835 L 335.495,367.835 L 335.495,367.834 z M 290.206,354.023 C 290.133,354.024 290.075,353.966 290.075,353.895 L 290.075,352.854 C 290.075,352.784 290.134,352.724 290.206,352.725 L 291.921,352.724 C 291.994,352.725 292.052,352.783 292.052,352.854 L 292.052,353.893 C 292.051,353.965 291.995,354.025 291.919,354.026 L 290.206,354.023 z M 293.178,354.025 C 293.106,354.026 293.047,353.965 293.047,353.895 L 293.047,352.856 C 293.049,352.784 293.106,352.726 293.179,352.725 L 294.893,352.725 C 294.965,352.725 295.024,352.783 295.024,352.856 L 295.024,353.895 C 295.024,353.967 294.966,354.025 294.894,354.024 L 293.178,354.025 z M 296.15,354.027 C 296.079,354.026 296.02,353.967 296.022,353.895 L 296.02,352.854 C 296.02,352.785 296.079,352.726 296.151,352.727 L 297.866,352.725 C 297.939,352.727 297.997,352.785 297.998,352.856 L 297.997,353.895 C 297.997,353.967 297.938,354.027 297.865,354.028 L 296.15,354.027 z M 299.124,354.027 C 299.054,354.026 298.994,353.967 298.993,353.897 L 298.993,352.858 C 298.993,352.785 299.052,352.725 299.124,352.727 L 300.839,352.727 C 300.911,352.726 300.97,352.785 300.97,352.857 L 300.97,353.897 C 300.97,353.969 300.911,354.029 300.839,354.027 L 299.124,354.027 L 299.124,354.027 z M 302.097,354.029 C 302.023,354.027 301.965,353.969 301.965,353.896 L 301.965,352.857 C 301.966,352.785 302.024,352.727 302.096,352.728 L 303.81,352.729 C 303.883,352.728 303.94,352.786 303.942,352.859 L 303.942,353.896 C 303.942,353.969 303.883,354.028 303.812,354.028 L 302.097,354.029 z M 305.067,354.028 C 304.996,354.029 304.938,353.969 304.938,353.899 L 304.938,352.859 C 304.94,352.787 304.998,352.727 305.07,352.729 L 306.786,352.727 C 306.856,352.728 306.915,352.789 306.915,352.859 L 306.915,353.896 C 306.916,353.969 306.856,354.028 306.785,354.027 L 305.067,354.028 z M 308.042,354.029 C 307.97,354.029 307.91,353.971 307.911,353.898 L 307.911,352.859 C 307.911,352.789 307.97,352.729 308.042,352.73 L 309.757,352.729 C 309.831,352.728 309.888,352.788 309.888,352.861 L 309.888,353.898 C 309.888,353.971 309.829,354.03 309.757,354.029 L 308.042,354.029 z M 311.014,354.03 C 310.941,354.031 310.881,353.972 310.883,353.9 L 310.883,352.861 C 310.884,352.787 310.942,352.731 311.014,352.73 L 312.729,352.731 C 312.801,352.73 312.86,352.788 312.86,352.861 L 312.86,353.9 C 312.86,353.971 312.8,354.03 312.729,354.031 L 311.014,354.03 z M 313.987,354.03 C 313.915,354.031 313.856,353.973 313.856,353.9 L 313.857,352.861 C 313.856,352.79 313.915,352.729 313.987,352.73 L 315.704,352.729 C 315.774,352.732 315.831,352.79 315.833,352.861 L 315.833,353.9 C 315.832,353.972 315.774,354.032 315.701,354.031 L 313.987,354.03 z M 316.958,354.032 C 316.886,354.031 316.829,353.972 316.83,353.9 L 316.828,352.863 C 316.829,352.788 316.887,352.73 316.96,352.732 L 318.674,352.732 C 318.747,352.731 318.806,352.79 318.806,352.863 L 318.806,353.902 C 318.806,353.972 318.747,354.032 318.673,354.032 L 316.958,354.032 z M 319.932,354.032 C 319.86,354.033 319.801,353.972 319.801,353.902 L 319.801,352.865 C 319.802,352.79 319.86,352.733 319.931,352.731 L 321.647,352.732 C 321.718,352.733 321.778,352.792 321.777,352.862 L 321.778,353.902 C 321.778,353.974 321.719,354.032 321.646,354.032 L 319.932,354.032 z M 322.905,354.034 C 322.833,354.033 322.774,353.974 322.774,353.902 L 322.773,352.864 C 322.774,352.792 322.833,352.732 322.903,352.733 L 324.62,352.734 C 324.692,352.733 324.751,352.792 324.75,352.864 L 324.749,353.903 C 324.751,353.976 324.692,354.034 324.62,354.034 L 322.905,354.034 L 322.905,354.034 z M 325.877,354.034 C 325.803,354.034 325.745,353.976 325.746,353.903 L 325.745,352.864 C 325.746,352.792 325.805,352.734 325.877,352.733 L 327.592,352.734 C 327.664,352.735 327.721,352.793 327.723,352.864 L 327.723,353.903 C 327.722,353.976 327.664,354.033 327.591,354.034 L 325.877,354.034 z M 328.848,354.035 C 328.777,354.036 328.719,353.976 328.718,353.903 L 328.719,352.866 C 328.719,352.792 328.778,352.734 328.85,352.733 L 330.565,352.734 C 330.637,352.735 330.694,352.793 330.695,352.866 L 330.696,353.905 C 330.694,353.977 330.637,354.035 330.565,354.036 L 328.848,354.035 z M 331.821,354.037 C 331.749,354.036 331.692,353.976 331.692,353.905 L 331.692,352.868 C 331.692,352.794 331.749,352.736 331.824,352.735 L 333.539,352.734 C 333.61,352.735 333.669,352.795 333.668,352.866 L 333.669,353.905 C 333.667,353.977 333.61,354.037 333.538,354.036 L 331.821,354.037 z M 333.54,365.483 C 333.612,365.484 333.67,365.543 333.671,365.617 L 333.671,366.654 C 333.67,366.727 333.612,366.787 333.541,366.786 L 331.825,366.785 C 331.753,366.784 331.694,366.725 331.694,366.653 L 331.694,365.615 C 331.695,365.543 331.753,365.486 331.825,365.485 L 333.54,365.483 z M 330.567,365.483 C 330.64,365.485 330.699,365.543 330.698,365.616 L 330.699,366.653 C 330.698,366.725 330.639,366.785 330.568,366.784 L 328.852,366.783 C 328.78,366.784 328.72,366.725 328.721,366.655 L 328.721,365.613 C 328.721,365.543 328.78,365.484 328.853,365.483 L 330.567,365.483 z M 327.594,365.486 C 327.667,365.485 327.725,365.541 327.725,365.614 L 327.727,366.653 C 327.725,366.725 327.667,366.783 327.594,366.784 L 325.879,366.783 C 325.807,366.782 325.747,366.725 325.748,366.653 L 325.749,365.614 C 325.749,365.542 325.808,365.482 325.88,365.483 L 327.594,365.486 z M 324.622,365.482 C 324.696,365.483 324.753,365.541 324.755,365.612 L 324.754,366.651 C 324.753,366.723 324.694,366.783 324.623,366.782 L 322.907,366.784 C 322.835,366.782 322.777,366.724 322.776,366.653 L 322.776,365.614 C 322.776,365.541 322.834,365.482 322.907,365.483 L 324.622,365.482 z M 321.649,365.48 C 321.723,365.481 321.78,365.542 321.78,365.612 L 321.78,366.651 C 321.779,366.723 321.721,366.783 321.649,366.782 L 319.934,366.782 C 319.862,366.783 319.803,366.722 319.803,366.651 L 319.804,365.612 C 319.803,365.539 319.862,365.482 319.935,365.481 L 321.649,365.48 z M 318.678,365.48 C 318.749,365.481 318.807,365.54 318.807,365.612 L 318.808,366.65 C 318.808,366.722 318.748,366.781 318.677,366.78 L 316.961,366.782 C 316.889,366.78 316.831,366.722 316.83,366.649 L 316.83,365.61 C 316.832,365.54 316.89,365.48 316.961,365.481 L 318.678,365.48 z M 315.705,365.48 C 315.777,365.481 315.835,365.538 315.836,365.61 L 315.835,366.649 C 315.835,366.722 315.777,366.78 315.704,366.78 L 313.989,366.78 C 313.917,366.779 313.858,366.722 313.859,366.648 L 313.859,365.61 C 313.859,365.538 313.918,365.478 313.989,365.479 L 315.705,365.48 z M 312.733,365.478 C 312.805,365.48 312.862,365.538 312.861,365.61 L 312.862,366.649 C 312.862,366.722 312.804,366.78 312.731,366.781 L 311.018,366.778 C 310.944,366.779 310.885,366.72 310.886,366.648 L 310.885,365.61 C 310.887,365.538 310.945,365.479 311.016,365.48 L 312.733,365.478 z M 309.759,365.478 C 309.832,365.478 309.889,365.538 309.89,365.609 L 309.891,366.648 C 309.889,366.72 309.832,366.778 309.758,366.779 L 308.045,366.778 C 307.972,366.779 307.912,366.72 307.914,366.648 L 307.914,365.607 C 307.913,365.536 307.971,365.479 308.043,365.478 L 309.759,365.478 L 309.759,365.478 z M 306.788,365.477 C 306.86,365.476 306.917,365.536 306.917,365.609 L 306.917,366.648 C 306.917,366.718 306.858,366.778 306.787,366.777 L 305.072,366.778 C 304.999,366.779 304.941,366.719 304.94,366.646 L 304.942,365.607 C 304.94,365.536 305.001,365.477 305.072,365.476 L 306.788,365.477 z M 303.814,365.477 C 303.887,365.476 303.945,365.534 303.945,365.607 L 303.944,366.646 C 303.944,366.718 303.886,366.776 303.813,366.777 L 302.098,366.776 C 302.026,366.777 301.968,366.719 301.967,366.646 L 301.967,365.607 C 301.968,365.535 302.027,365.475 302.099,365.476 L 303.814,365.477 z M 300.841,365.477 C 300.914,365.476 300.971,365.534 300.971,365.607 L 300.971,366.646 C 300.971,366.716 300.913,366.776 300.84,366.777 L 299.126,366.777 C 299.053,366.775 298.995,366.717 298.995,366.644 L 298.996,365.605 C 298.994,365.534 299.054,365.475 299.127,365.476 L 300.841,365.477 z M 297.87,365.473 C 297.942,365.474 297.999,365.534 298.001,365.607 L 297.999,366.644 C 298,366.717 297.94,366.776 297.869,366.775 L 296.153,366.775 C 296.081,366.775 296.023,366.717 296.024,366.645 L 296.023,365.605 C 296.022,365.535 296.083,365.475 296.154,365.474 L 297.87,365.473 z M 290.208,366.773 C 290.138,366.774 290.077,366.715 290.077,366.643 L 290.077,365.603 C 290.078,365.531 290.136,365.473 290.21,365.473 L 291.925,365.473 C 291.996,365.474 292.056,365.531 292.055,365.603 L 292.056,366.643 C 292.054,366.715 291.995,366.775 291.924,366.774 L 290.208,366.773 z M 293.05,365.605 C 293.05,365.531 293.108,365.475 293.18,365.474 L 294.895,365.475 C 294.969,365.474 295.026,365.533 295.026,365.605 L 295.027,366.643 C 295.028,366.715 294.969,366.775 294.897,366.774 L 293.182,366.775 C 293.11,366.774 293.05,366.715 293.049,366.642 L 293.05,365.605 z "
   i:knockout="Off" />

			</g>
    <path
       style="fill:url(#XMLID_254_)"
       id="path23586"
       d="M 33.358331,29.772687 C 33.235078,29.771668 33.135253,29.672851 33.135253,29.549584 L 33.134234,20.324918 C 33.135253,20.201651 33.234059,20.101814 33.357312,20.101814 L 46.689002,20.102833 C 46.812255,20.100796 46.911061,20.201651 46.91208,20.32288 L 46.91208,29.549584 C 46.911061,29.672851 46.812255,29.772687 46.691039,29.772687 L 33.358331,29.772687 z "
       i:knockout="Off" />
    <path
       style="fill:url(#XMLID_255_)"
       id="path23593"
       d="M 17.497408,29.771668 C 17.374155,29.771668 17.275349,29.672851 17.275349,29.548565 L 17.274331,20.323899 C 17.274331,20.202669 17.373137,20.100796 17.497408,20.100796 L 30.829099,20.101814 C 30.952352,20.101814 31.052176,20.201651 31.050139,20.323899 L 31.052176,29.551621 C 31.052176,29.672851 30.952352,29.771668 30.829099,29.772687 L 17.497408,29.771668 z "
       i:knockout="Off" />
    <path
       style="fill:url(#XMLID_256_)"
       id="path23600"
       d="M 1.6385233,29.77065 C 1.5142518,29.772687 1.4144271,29.67387 1.4154457,29.548565 L 1.4144271,20.32288 C 1.4144271,20.199613 1.5142518,20.102833 1.6375047,20.100796 L 14.969195,20.101814 C 15.092448,20.101814 15.190235,20.200632 15.190235,20.323899 L 15.191254,29.548565 C 15.192273,29.671832 15.092448,29.771668 14.969195,29.771668 L 1.6385233,29.77065 z "
       i:knockout="Off" />
    <path
       style="fill:none;stroke:#ffffff;stroke-width:2"
       id="path23602"
       d="M 42.927242,20.778257 L 42.927242,9.6730004 C 42.927242,7.8667796 41.462467,6.4018354 39.656455,6.4018354 L 8.7994177,6.4018354 C 6.9934056,6.4018354 5.5286309,7.8667796 5.5286309,9.6740192 L 5.5265936,16.008529 L 2.4055438,16.00751 C 2.2659929,16.00751 2.1549634,16.12059 2.1529262,16.261176 C 2.1508889,16.329431 2.1804289,16.391574 2.2303412,16.438436 L 7.9244237,22.69552 C 8.1230545,22.892137 8.4418823,22.892137 8.6384759,22.69552 L 14.334595,16.44353 C 14.382471,16.396668 14.412011,16.333506 14.409973,16.260157 C 14.412011,16.119571 14.298944,16.00751 14.159393,16.008529 L 11.032231,16.00751 L 11.036306,12.15057 C 11.036306,11.736962 11.37245,11.400779 11.78601,11.400779 L 37.034529,11.401798 C 37.448088,11.401798 37.784233,11.737981 37.784233,12.151588 L 37.782195,20.779275"
       i:knockout="Off" />
    <path
       style="fill:url(#XMLID_257_)"
       id="path23609"
       d="M 23.895357,6.4018351 L 8.7994175,6.4018351 C 6.9934054,6.4018351 5.5286307,7.8667793 5.5286307,9.6740188 L 5.5265935,16.008528 L 2.4055437,16.007509 C 2.2659929,16.007509 2.1549633,16.120589 2.1529261,16.261175 C 2.1508889,16.32943 2.1804288,16.391573 2.2303412,16.438435 L 7.9244235,22.695519 C 8.1230543,22.892136 8.4418821,22.892136 8.6384757,22.695519 L 14.334595,16.443529 C 14.38247,16.396667 14.41201,16.333505 14.409973,16.260156 C 14.41201,16.11957 14.298943,16.007509 14.159393,16.008528 L 11.032231,16.007509 L 11.036306,12.150569 C 11.036306,11.736962 11.37245,11.400778 11.786009,11.400778 L 23.896375,11.400778 L 23.896375,6.4018351 L 23.895357,6.4018351 z "
       i:knockout="Off" />
    <path
       style="fill:url(#XMLID_258_)"
       id="path23616"
       d="M 42.927241,20.778256 L 42.927241,9.673 C 42.927241,7.8667793 41.462466,6.4018351 39.656454,6.4018351 L 23.895357,6.4018351 L 23.895357,11.39976 L 37.033509,11.400778 C 37.447069,11.400778 37.783213,11.736962 37.783213,12.150569 L 37.781176,20.778256 L 42.927241,20.778256 L 42.927241,20.778256 z "
       i:knockout="Off" />
    <path
       style="fill:none;stroke:#590b08;stroke-width:0.5"
       id="path23618"
       d="M 42.927242,20.778257 L 42.927242,9.6730004 C 42.927242,7.8667796 41.462467,6.4018354 39.656455,6.4018354 L 8.7994177,6.4018354 C 6.9934056,6.4018354 5.5286309,7.8667796 5.5286309,9.6740192 L 5.5265936,16.008529 L 2.4055438,16.00751 C 2.2659929,16.00751 2.1549634,16.12059 2.1529262,16.261176 C 2.1508889,16.329431 2.1804289,16.391574 2.2303412,16.438436 L 7.9244237,22.69552 C 8.1230545,22.892137 8.4418823,22.892137 8.6384759,22.69552 L 14.334595,16.44353 C 14.382471,16.396668 14.412011,16.333506 14.409973,16.260157 C 14.412011,16.119571 14.298944,16.00751 14.159393,16.008529 L 11.032231,16.00751 L 11.036306,12.15057 C 11.036306,11.736962 11.37245,11.400779 11.78601,11.400779 L 37.034529,11.401798 C 37.448088,11.401798 37.784233,11.737981 37.784233,12.151588 L 37.782195,20.779275"
       i:knockout="Off" />
    <g
       transform="matrix(1.0186194,0,0,1.0187373,-293.58793,-341.53158)"
       id="g23620"
       i:knockout="Off">
				<linearGradient
   y2="349.6626"
   x2="296.11761"
   y1="349.6626"
   x1="327.45071"
   gradientUnits="userSpaceOnUse"
   id="linearGradient26148">
					<stop
   id="stop26150"
   style="stop-color:#FFFFFF"
   offset="0.0056" />

					<stop
   id="stop26152"
   style="stop-color:#F7AF3E"
   offset="0.3034" />

					<stop
   id="stop26154"
   style="stop-color:#F12523"
   offset="1" />

					<a:midPointStop
   style="stop-color:#FFFFFF"
   offset="0.0056" />

					<a:midPointStop
   style="stop-color:#FFFFFF"
   offset="0.5" />

					<a:midPointStop
   style="stop-color:#F7AF3E"
   offset="0.3034" />

					<a:midPointStop
   style="stop-color:#F7AF3E"
   offset="0.5" />

					<a:midPointStop
   style="stop-color:#F12523"
   offset="1" />

				</linearGradient>

				<path
   style="fill:url(#XMLID_259_)"
   id="path23629"
   d="M 296.86,341.784 C 295.227,341.784 293.899,343.113 293.899,344.746 C 293.899,344.746 293.897,350.307 293.897,351.214 C 293.237,351.214 290.591,351.213 290.591,351.213 L 296.35,357.542 L 302.118,351.214 C 302.118,351.214 299.464,351.213 298.802,351.213 C 298.803,350.341 298.806,347.177 298.806,347.177 C 298.806,346.633 299.249,346.191 299.792,346.191 L 324.579,346.192 C 325.122,346.192 325.565,346.634 325.565,347.178 L 325.563,355.647 C 325.563,355.647 326.221,355.647 326.563,355.647 L 326.565,347.178 C 326.565,346.082 325.673,345.192 324.579,345.192 L 299.792,345.191 C 298.697,345.191 297.806,346.082 297.806,347.177 L 297.802,352.213 C 297.802,352.213 299.098,352.213 299.855,352.214 C 298.892,353.27 296.866,355.493 296.352,356.058 C 296.117,355.8 293.826,353.282 292.855,352.213 C 293.608,352.214 294.898,352.214 294.898,352.214 L 294.9,344.746 C 294.9,343.664 295.779,342.784 296.861,342.784 L 327.154,342.784 C 328.236,342.784 329.115,343.664 329.115,344.745 L 329.115,355.646 C 329.459,355.646 330.115,355.646 330.115,355.646 L 330.115,344.745 C 330.115,343.112 328.787,341.784 327.154,341.784 L 296.86,341.784 z M 326.563,355.646 L 329.114,355.646 C 328.24,355.646 326.563,355.646 326.563,355.646 z "
   i:knockout="Off" />

			</g>
    <path
       style="fill:none;stroke:#ffffff;stroke-width:2"
       id="path23631"
       d="M 21.695139,29.097266 L 21.695139,40.202521 C 21.695139,42.008742 23.159914,43.473686 24.967963,43.473686 L 39.526072,43.473686 C 41.332084,43.473686 42.797877,42.008742 42.797877,40.201502 L 42.797877,33.866994 L 45.920964,33.868012 C 46.058478,33.868012 46.171545,33.754932 46.171545,33.614347 C 46.173582,33.546091 46.146079,33.483948 46.096167,33.437086 L 40.402085,27.180002 C 40.203454,26.983386 39.882589,26.983386 39.685995,27.180002 L 33.989875,33.431993 C 33.942,33.478855 33.91246,33.542016 33.914498,33.615365 C 33.914498,33.755951 34.025527,33.868012 34.167115,33.866994 L 37.29224,33.868012 L 37.288165,37.724952 C 37.288165,38.138559 36.952021,38.474742 36.538461,38.474742 L 27.58989,38.473724 C 27.17633,38.473724 26.840186,38.13754 26.840186,37.723933 L 26.840186,29.096247"
       i:knockout="Off" />
    <path
       style="fill:url(#XMLID_260_)"
       id="path23638"
       d="M 32.010697,43.472666 L 39.526071,43.473685 C 41.332083,43.473685 42.797876,42.00874 42.797876,40.2015 L 42.797876,33.866992 L 45.920963,33.868011 C 46.058477,33.868011 46.171544,33.754931 46.171544,33.614345 C 46.173581,33.54609 46.146078,33.483947 46.096166,33.437085 L 40.402083,27.180001 C 40.203453,26.983385 39.882588,26.983385 39.685994,27.180001 L 33.989875,33.431991 C 33.941999,33.478853 33.912459,33.542015 33.914497,33.615364 C 33.914497,33.75595 34.025526,33.868011 34.167114,33.866992 L 37.292239,33.868011 L 37.288164,37.72495 C 37.288164,38.138558 36.95202,38.474741 36.53846,38.474741 L 32.010697,38.473722 L 32.010697,43.472666 L 32.010697,43.472666 z "
       i:knockout="Off" />
    <path
       style="fill:url(#XMLID_261_)"
       id="path23655"
       d="M 21.695139,29.097264 L 21.695139,40.202519 C 21.695139,42.00874 23.159913,43.473685 24.967963,43.473685 L 32.010697,43.473685 L 32.010697,38.474741 L 27.589889,38.474741 C 27.17633,38.474741 26.840185,38.138558 26.840185,37.72495 L 26.840185,29.097264 L 21.695139,29.097264 L 21.695139,29.097264 z "
       i:knockout="Off" />
    <path
       style="fill:none;stroke:#590b08;stroke-width:0.5"
       id="path23657"
       d="M 21.695139,29.097266 L 21.695139,40.202521 C 21.695139,42.008742 23.159914,43.473686 24.967963,43.473686 L 39.526072,43.473686 C 41.332084,43.473686 42.797877,42.008742 42.797877,40.201502 L 42.797877,33.866994 L 45.920964,33.868012 C 46.058478,33.868012 46.171545,33.754932 46.171545,33.614347 C 46.173582,33.546091 46.146079,33.483948 46.096167,33.437086 L 40.402085,27.180002 C 40.203454,26.983386 39.882589,26.983386 39.685995,27.180002 L 33.989875,33.431993 C 33.942,33.478855 33.91246,33.542016 33.914498,33.615365 C 33.914498,33.755951 34.025527,33.868012 34.167115,33.866994 L 37.29224,33.868012 L 37.288165,37.724952 C 37.288165,38.138559 36.952021,38.474742 36.538461,38.474742 L 27.58989,38.473724 C 27.17633,38.473724 26.840186,38.13754 26.840186,37.723933 L 26.840186,29.096247"
       i:knockout="Off" />
    <g
       transform="matrix(1.0186194,0,0,1.0187373,-293.58793,-341.53158)"
       id="g23659"
       i:knockout="Off">
				
					<linearGradient
   gradientTransform="matrix(-1,0,0,-1,-6479.5752,4405.2061)"
   y2="4035.4106"
   x2="-6809.5811"
   y1="4035.4106"
   x1="-6790.9316"
   gradientUnits="userSpaceOnUse"
   id="linearGradient26162">
					<stop
   id="stop26164"
   style="stop-color:#FFFFFF"
   offset="0" />

					<stop
   id="stop26166"
   style="stop-color:#F7AF3E"
   offset="0.3034" />

					<stop
   id="stop26168"
   style="stop-color:#F12523"
   offset="1" />

					<a:midPointStop
   style="stop-color:#FFFFFF"
   offset="0" />

					<a:midPointStop
   style="stop-color:#FFFFFF"
   offset="0.5" />

					<a:midPointStop
   style="stop-color:#F7AF3E"
   offset="0.3034" />

					<a:midPointStop
   style="stop-color:#F7AF3E"
   offset="0.5" />

					<a:midPointStop
   style="stop-color:#F12523"
   offset="1" />

				</linearGradient>

				<path
   style="fill:url(#XMLID_262_)"
   id="path23668"
   d="M 327.025,377.674 C 328.658,377.674 329.987,376.345 329.987,374.712 C 329.987,374.712 329.987,369.151 329.987,368.244 C 330.649,368.244 333.294,368.245 333.294,368.245 L 327.535,361.916 L 321.766,368.244 C 321.766,368.244 324.42,368.245 325.082,368.245 C 325.082,369.117 325.078,372.281 325.078,372.281 C 325.078,372.825 324.637,373.267 324.092,373.267 L 315.307,373.266 C 314.762,373.266 314.321,372.824 314.321,372.28 L 314.321,363.811 C 314.321,363.811 313.665,363.811 313.321,363.811 L 313.321,372.28 C 313.321,373.376 314.212,374.266 315.307,374.266 L 324.092,374.267 C 325.188,374.267 326.078,373.376 326.078,372.281 L 326.084,367.245 C 326.084,367.245 324.787,367.245 324.029,367.244 C 324.992,366.188 327.019,363.965 327.533,363.4 C 327.767,363.658 330.059,366.176 331.031,367.245 C 330.277,367.244 328.986,367.244 328.986,367.244 L 328.986,374.712 C 328.986,375.794 328.105,376.674 327.024,376.674 L 312.732,376.674 C 311.65,376.674 310.769,375.794 310.769,374.713 L 310.769,363.812 C 310.427,363.812 309.769,363.812 309.769,363.812 L 309.769,374.713 C 309.769,376.346 311.098,377.674 312.732,377.674 L 327.025,377.674 z "
   i:knockout="Off" />

			</g>
  </g>
</svg>
