<?xml version="1.0" encoding="UTF-8" standalone="no"?>
<!-- Created with Inkscape (http://www.inkscape.org/) -->
<svg
   xmlns:a="http://ns.adobe.com/AdobeSVGViewerExtensions/3.0/"
   xmlns:i="http://ns.adobe.com/AdobeIllustrator/10.0/"
   xmlns:dc="http://purl.org/dc/elements/1.1/"
   xmlns:cc="http://web.resource.org/cc/"
   xmlns:rdf="http://www.w3.org/1999/02/22-rdf-syntax-ns#"
   xmlns:svg="http://www.w3.org/2000/svg"
   xmlns="http://www.w3.org/2000/svg"
   xmlns:sodipodi="http://sodipodi.sourceforge.net/DTD/sodipodi-0.dtd"
   xmlns:inkscape="http://www.inkscape.org/namespaces/inkscape"
   width="48px"
   height="48px"
   id="svg15485"
   sodipodi:version="0.32"
   inkscape:version="0.44.1"
   sodipodi:docbase="e:\dev_clean\src\houdini\support\icons\cop2"
   sodipodi:docname="strip.svg">
  <defs
     id="defs15487">
    <linearGradient
       gradientTransform="matrix(0.682,0.7314,-0.7314,0.682,1287.63,643.1963)"
       y2="526.2676"
       x2="-1302.1643"
       y1="474.8438"
       x1="-1314.2212"
       gradientUnits="userSpaceOnUse"
       id="XMLID_129_">
				<stop
   id="stop12399"
   style="stop-color:#FFFFFF"
   offset="0" />

				<stop
   id="stop12401"
   style="stop-color:#B8C0CC"
   offset="1" />

				<a:midPointStop
   style="stop-color:#FFFFFF"
   offset="0" />

				<a:midPointStop
   style="stop-color:#FFFFFF"
   offset="0.5" />

				<a:midPointStop
   style="stop-color:#B8C0CC"
   offset="1" />

			</linearGradient>
    <linearGradient
       gradientTransform="matrix(0.682,0.7314,-0.7314,0.682,1287.63,643.1963)"
       y2="527.838"
       x2="-1308.8562"
       y1="476.4141"
       x1="-1320.9131"
       gradientUnits="userSpaceOnUse"
       id="XMLID_130_">
				<stop
   id="stop12406"
   style="stop-color:#FFFFFF"
   offset="0" />

				<stop
   id="stop12408"
   style="stop-color:#B8C0CC"
   offset="1" />

				<a:midPointStop
   style="stop-color:#FFFFFF"
   offset="0" />

				<a:midPointStop
   style="stop-color:#FFFFFF"
   offset="0.5" />

				<a:midPointStop
   style="stop-color:#B8C0CC"
   offset="1" />

			</linearGradient>
    <linearGradient
       gradientTransform="matrix(0.682,0.7314,-0.7314,0.682,1287.63,643.1963)"
       y2="529.4083"
       x2="-1315.5471"
       y1="477.9844"
       x1="-1327.604"
       gradientUnits="userSpaceOnUse"
       id="XMLID_131_">
				<stop
   id="stop12413"
   style="stop-color:#FFFFFF"
   offset="0" />

				<stop
   id="stop12415"
   style="stop-color:#B8C0CC"
   offset="1" />

				<a:midPointStop
   style="stop-color:#FFFFFF"
   offset="0" />

				<a:midPointStop
   style="stop-color:#FFFFFF"
   offset="0.5" />

				<a:midPointStop
   style="stop-color:#B8C0CC"
   offset="1" />

			</linearGradient>
  </defs>
  <sodipodi:namedview
     id="base"
     pagecolor="#ffffff"
     bordercolor="#666666"
     borderopacity="1.0"
     inkscape:pageopacity="0.0"
     inkscape:pageshadow="2"
     inkscape:zoom="7"
     inkscape:cx="24"
     inkscape:cy="24"
     inkscape:current-layer="layer1"
     showgrid="true"
     inkscape:grid-bbox="true"
     inkscape:document-units="px"
     inkscape:window-width="853"
     inkscape:window-height="573"
     inkscape:window-x="301"
     inkscape:window-y="72" />
  <metadata
     id="metadata15490">
    <rdf:RDF>
      <cc:Work
         rdf:about="">
        <dc:format>image/svg+xml</dc:format>
        <dc:type
           rdf:resource="http://purl.org/dc/dcmitype/StillImage" />
      </cc:Work>
    </rdf:RDF>
  </metadata>
  <g
     id="layer1"
     inkscape:label="Layer 1"
     inkscape:groupmode="layer">
    <g
       transform="translate(-0.846571,-288.618)"
       id="g12394">
				<path
   id="path12396"
   d="M 49.473,306.977 L 48.95,306.069 L 48.346,306.417 C 48.283,306.452 48.204,306.432 48.168,306.369 L 47.648,305.469 C 47.612,305.406 47.633,305.326 47.696,305.291 L 48.3,304.942 L 42.576,295.027 L 41.97,295.376 C 41.908,295.413 41.828,295.392 41.792,295.329 L 41.273,294.43 C 41.237,294.367 41.257,294.287 41.32,294.251 L 41.926,293.901 L 41.368,292.936 L 0.418,316.578 L 0.968,317.532 L 1.608,317.162 C 1.671,317.126 1.75,317.148 1.786,317.211 L 2.306,318.11 C 2.343,318.173 2.321,318.252 2.259,318.289 L 1.619,318.657 L 7.344,328.572 L 7.985,328.202 C 8.048,328.165 8.128,328.186 8.164,328.249 L 8.684,329.149 C 8.72,329.212 8.699,329.292 8.636,329.328 L 7.994,329.698 L 8.524,330.618 L 49.473,306.977 z M 3.347,317.66 C 3.284,317.696 3.204,317.675 3.169,317.613 L 2.649,316.713 C 2.614,316.65 2.635,316.57 2.698,316.534 L 4.183,315.677 C 4.246,315.641 4.325,315.662 4.361,315.724 L 4.881,316.624 C 4.917,316.687 4.896,316.767 4.833,316.804 L 3.347,317.66 z M 5.922,316.175 C 5.859,316.211 5.78,316.189 5.743,316.127 L 5.224,315.227 C 5.188,315.164 5.209,315.085 5.272,315.048 L 6.757,314.192 C 6.82,314.156 6.899,314.177 6.936,314.24 L 7.456,315.139 C 7.492,315.202 7.471,315.282 7.408,315.317 L 5.922,316.175 z M 8.497,314.689 C 8.434,314.725 8.355,314.703 8.319,314.64 L 7.799,313.74 C 7.763,313.679 7.784,313.599 7.847,313.563 L 9.333,312.705 C 9.396,312.669 9.475,312.69 9.511,312.753 L 10.031,313.652 C 10.067,313.715 10.046,313.796 9.983,313.832 L 8.497,314.689 z M 11.071,313.203 C 11.009,313.239 10.929,313.218 10.893,313.156 L 10.373,312.256 C 10.337,312.193 10.357,312.113 10.42,312.077 L 11.906,311.22 C 11.969,311.184 12.049,311.205 12.084,311.268 L 12.604,312.168 C 12.639,312.231 12.618,312.311 12.556,312.347 L 11.071,313.203 z M 13.647,311.718 C 13.584,311.754 13.504,311.733 13.467,311.67 L 12.948,310.771 C 12.912,310.708 12.933,310.628 12.996,310.592 L 14.481,309.736 C 14.544,309.699 14.623,309.72 14.66,309.783 L 15.179,310.682 C 15.216,310.745 15.194,310.825 15.132,310.861 L 13.647,311.718 z M 16.221,310.232 C 16.158,310.268 16.079,310.247 16.043,310.184 L 15.523,309.285 C 15.487,309.222 15.509,309.141 15.572,309.105 L 17.057,308.248 C 17.12,308.212 17.2,308.234 17.235,308.297 L 17.755,309.195 C 17.791,309.258 17.77,309.338 17.707,309.374 L 16.221,310.232 z M 18.795,308.746 C 18.733,308.783 18.653,308.761 18.617,308.698 L 18.097,307.799 C 18.061,307.736 18.082,307.656 18.145,307.621 L 19.63,306.764 C 19.693,306.727 19.773,306.749 19.809,306.812 L 20.329,307.711 C 20.365,307.773 20.344,307.854 20.281,307.89 L 18.795,308.746 z M 21.371,307.261 C 21.308,307.298 21.228,307.277 21.193,307.214 L 20.673,306.315 C 20.637,306.251 20.658,306.172 20.721,306.135 L 22.206,305.278 C 22.269,305.242 22.348,305.263 22.384,305.326 L 22.904,306.225 C 22.941,306.288 22.918,306.368 22.856,306.405 L 21.371,307.261 z M 23.945,305.774 C 23.882,305.811 23.803,305.79 23.766,305.727 L 23.247,304.827 C 23.211,304.765 23.232,304.685 23.294,304.649 L 24.78,303.791 C 24.843,303.756 24.922,303.777 24.958,303.84 L 25.478,304.739 C 25.513,304.802 25.492,304.882 25.43,304.918 L 23.945,305.774 z M 26.52,304.29 C 26.457,304.326 26.378,304.305 26.342,304.241 L 25.822,303.342 C 25.786,303.279 25.807,303.199 25.87,303.164 L 27.355,302.307 C 27.418,302.27 27.498,302.292 27.534,302.354 L 28.053,303.254 C 28.089,303.317 28.068,303.396 28.005,303.433 L 26.52,304.29 z M 29.095,302.804 C 29.032,302.841 28.952,302.819 28.916,302.756 L 28.396,301.858 C 28.36,301.795 28.381,301.714 28.443,301.678 L 29.929,300.821 C 29.992,300.786 30.072,300.807 30.107,300.869 L 30.627,301.769 C 30.663,301.832 30.641,301.911 30.579,301.948 L 29.095,302.804 z M 31.67,301.318 C 31.607,301.354 31.527,301.333 31.491,301.27 L 30.971,300.371 C 30.936,300.308 30.957,300.228 31.019,300.193 L 32.504,299.335 C 32.567,299.299 32.647,299.32 32.682,299.383 L 33.201,300.283 C 33.238,300.346 33.217,300.425 33.154,300.462 L 31.67,301.318 z M 34.244,299.833 C 34.181,299.869 34.101,299.848 34.066,299.785 L 33.546,298.886 C 33.511,298.823 33.531,298.743 33.595,298.707 L 35.08,297.85 C 35.143,297.814 35.222,297.835 35.258,297.897 L 35.778,298.797 C 35.814,298.86 35.793,298.939 35.731,298.976 L 34.244,299.833 z M 36.819,298.348 C 36.756,298.384 36.676,298.362 36.64,298.299 L 36.121,297.4 C 36.085,297.337 36.106,297.257 36.168,297.22 L 37.653,296.364 C 37.716,296.329 37.795,296.35 37.831,296.413 L 38.351,297.312 C 38.387,297.375 38.366,297.455 38.303,297.491 L 36.819,298.348 z M 39.394,296.862 C 39.331,296.898 39.252,296.875 39.216,296.814 L 38.696,295.915 C 38.66,295.852 38.681,295.772 38.745,295.735 L 40.23,294.878 C 40.293,294.842 40.373,294.863 40.408,294.926 L 40.928,295.825 C 40.964,295.888 40.943,295.969 40.88,296.005 L 39.394,296.862 z M 46.606,305.917 C 46.669,305.881 46.748,305.903 46.784,305.967 L 47.304,306.866 C 47.341,306.929 47.319,307.009 47.257,307.044 L 45.772,307.9 C 45.709,307.937 45.63,307.916 45.593,307.853 L 45.073,306.954 C 45.037,306.891 45.059,306.811 45.121,306.775 L 46.606,305.917 z M 44.031,307.403 C 44.094,307.367 44.174,307.388 44.21,307.451 L 44.73,308.35 C 44.766,308.413 44.745,308.493 44.682,308.529 L 43.197,309.386 C 43.134,309.423 43.054,309.402 43.018,309.339 L 42.499,308.439 C 42.463,308.376 42.484,308.296 42.547,308.26 L 44.031,307.403 z M 41.457,308.891 C 41.52,308.854 41.6,308.874 41.635,308.938 L 42.155,309.836 C 42.191,309.899 42.169,309.98 42.107,310.016 L 40.622,310.872 C 40.559,310.908 40.479,310.888 40.444,310.824 L 39.924,309.925 C 39.888,309.862 39.909,309.782 39.972,309.746 L 41.457,308.891 z M 38.882,310.375 C 38.945,310.338 39.025,310.359 39.061,310.422 L 39.581,311.321 C 39.617,311.384 39.595,311.465 39.533,311.501 L 38.048,312.358 C 37.985,312.394 37.906,312.373 37.869,312.311 L 37.349,311.411 C 37.313,311.348 37.334,311.268 37.397,311.232 L 38.882,310.375 z M 36.307,311.86 C 36.37,311.824 36.45,311.845 36.485,311.908 L 37.005,312.808 C 37.04,312.871 37.019,312.951 36.957,312.987 L 35.472,313.843 C 35.409,313.879 35.329,313.857 35.294,313.795 L 34.774,312.895 C 34.738,312.832 34.759,312.753 34.822,312.716 L 36.307,311.86 z M 33.732,313.346 C 33.795,313.311 33.875,313.332 33.911,313.395 L 34.43,314.293 C 34.466,314.356 34.445,314.436 34.382,314.472 L 32.896,315.33 C 32.833,315.366 32.754,315.344 32.718,315.281 L 32.198,314.382 C 32.163,314.319 32.184,314.239 32.247,314.203 L 33.732,313.346 z M 31.158,314.832 C 31.221,314.796 31.3,314.816 31.336,314.879 L 31.856,315.779 C 31.892,315.842 31.871,315.921 31.808,315.958 L 30.323,316.815 C 30.26,316.851 30.18,316.83 30.144,316.766 L 29.625,315.867 C 29.589,315.804 29.61,315.724 29.672,315.688 L 31.158,314.832 z M 28.583,316.316 C 28.646,316.281 28.725,316.302 28.761,316.365 L 29.281,317.265 C 29.318,317.328 29.297,317.407 29.234,317.443 L 27.748,318.299 C 27.685,318.336 27.605,318.315 27.569,318.252 L 27.049,317.353 C 27.014,317.29 27.035,317.21 27.097,317.174 L 28.583,316.316 z M 26.008,317.803 C 26.071,317.766 26.151,317.788 26.187,317.851 L 26.707,318.75 C 26.742,318.813 26.722,318.893 26.659,318.93 L 25.174,319.786 C 25.111,319.822 25.032,319.801 24.996,319.738 L 24.476,318.838 C 24.44,318.775 24.461,318.696 24.523,318.66 L 26.008,317.803 z M 23.434,319.287 C 23.497,319.252 23.576,319.274 23.612,319.336 L 24.132,320.236 C 24.168,320.299 24.146,320.378 24.084,320.414 L 22.599,321.271 C 22.536,321.308 22.456,321.286 22.42,321.223 L 21.901,320.323 C 21.865,320.261 21.886,320.181 21.948,320.145 L 23.434,319.287 z M 20.859,320.774 C 20.922,320.737 21.001,320.758 21.037,320.821 L 21.556,321.72 C 21.593,321.784 21.571,321.863 21.509,321.9 L 20.024,322.756 C 19.961,322.793 19.882,322.772 19.845,322.709 L 19.325,321.81 C 19.289,321.747 19.31,321.667 19.373,321.63 L 20.859,320.774 z M 18.284,322.26 C 18.347,322.224 18.426,322.245 18.462,322.308 L 18.982,323.207 C 19.017,323.27 18.997,323.35 18.934,323.387 L 17.449,324.243 C 17.386,324.279 17.307,324.258 17.271,324.194 L 16.751,323.295 C 16.715,323.233 16.736,323.152 16.799,323.117 L 18.284,322.26 z M 15.709,323.744 C 15.772,323.709 15.851,323.731 15.888,323.794 L 16.407,324.693 C 16.444,324.755 16.422,324.836 16.36,324.871 L 14.874,325.728 C 14.811,325.765 14.732,325.743 14.696,325.68 L 14.176,324.781 C 14.14,324.718 14.162,324.638 14.224,324.602 L 15.709,323.744 z M 9.724,328.699 C 9.661,328.735 9.581,328.715 9.546,328.652 L 9.026,327.753 C 8.991,327.69 9.012,327.609 9.075,327.573 L 10.56,326.716 C 10.623,326.681 10.703,326.701 10.739,326.764 L 11.259,327.664 C 11.295,327.727 11.274,327.807 11.211,327.842 L 9.724,328.699 z M 11.601,326.268 C 11.565,326.204 11.586,326.125 11.649,326.088 L 13.134,325.232 C 13.197,325.195 13.277,325.216 13.313,325.279 L 13.833,326.178 C 13.869,326.241 13.848,326.321 13.785,326.357 L 12.3,327.214 C 12.237,327.25 12.157,327.229 12.121,327.166 L 11.601,326.268 z "
   i:knockout="Off" />

			</g>
    <path
       style="fill:url(#XMLID_129_)"
       id="path12403"
       d="M 34.368426,22.710971 C 34.264426,22.771971 34.131426,22.734971 34.071426,22.630971 L 29.542426,14.787971 C 29.482426,14.683971 29.518426,14.550971 29.622426,14.489971 L 40.957426,7.945971 C 41.061426,7.884971 41.194426,7.921971 41.255426,8.024971 L 45.783426,15.867971 C 45.843426,15.972971 45.807426,16.105971 45.704426,16.166971 L 34.368426,22.710971 z "
       i:knockout="Off" />
    <path
       style="fill:url(#XMLID_130_)"
       id="path12410"
       d="M 20.883426,30.494971 C 20.779426,30.555971 20.646426,30.519971 20.585426,30.414971 L 16.057426,22.572971 C 15.996426,22.468971 16.032426,22.335971 16.137426,22.274971 L 27.471426,15.730971 C 27.575426,15.670971 27.708426,15.705971 27.768426,15.810971 L 32.297426,23.653971 C 32.358426,23.757971 32.321426,23.890971 32.217426,23.950971 L 20.883426,30.494971 z "
       i:knockout="Off" />
    <path
       style="fill:url(#XMLID_131_)"
       id="path12417"
       d="M 7.3994256,38.278971 C 7.2954256,38.340971 7.1624256,38.305971 7.1014256,38.199971 L 2.5734256,30.357971 C 2.5124256,30.253971 2.5494256,30.120971 2.6534256,30.059971 L 13.988426,23.515971 C 14.092426,23.454971 14.225426,23.491971 14.285426,23.595971 L 18.813426,31.437971 C 18.873426,31.541971 18.837426,31.675971 18.733426,31.736971 L 7.3994256,38.278971 z "
       i:knockout="Off" />
    <path
       style="opacity:0.2;fill:white;stroke:white"
       id="path12419"
       d="M 11.344426,20.243971 C 12.195426,21.716971 19.447426,34.275971 20.298426,35.749971 C 21.808426,34.878971 35.804426,26.800971 37.293426,25.940971 C 36.449426,24.479971 29.188426,11.905971 28.338426,10.432971 C 26.845426,11.295971 12.834426,19.383971 11.344426,20.243971 z "
       i:knockout="Off" />
    <line
       style="fill:none;stroke:#ed2728;stroke-width:2.14549994"
       id="line12421"
       y2="26.133984"
       x2="32.209427"
       y1="20.721968"
       x1="15.259426"
       i:knockout="Off" />
    <line
       style="fill:none;stroke:#ed2728;stroke-width:2.14549994"
       id="line12423"
       y2="14.952986"
       x2="26.440424"
       y1="31.902966"
       x1="21.028425"
       i:knockout="Off" />
    <path
       style="fill:none;stroke:#ed2728;stroke-width:2"
       id="path12425"
       d="M 20.188426,37.544971 C 19.946426,37.687971 19.637426,37.607971 19.497426,37.360971 L 9.5494256,20.132971 C 9.4094256,19.890971 9.4944256,19.581971 9.7354256,19.440971 L 28.449426,8.636971 C 28.691426,8.494971 28.999426,8.579971 29.139426,8.822971 L 39.087426,26.050971 C 39.226426,26.293971 39.143426,26.604971 38.901426,26.744971 L 20.188426,37.544971 z "
       i:knockout="Off" />
    <path
       style="fill:none;stroke:white"
       id="path12427"
       d="M 11.344426,20.243971 C 12.195426,21.716971 19.447426,34.275971 20.298426,35.749971 C 21.808426,34.878971 35.804426,26.800971 37.293426,25.940971 C 36.449426,24.479971 29.188426,11.905971 28.338426,10.432971 C 26.845426,11.295971 12.834426,19.383971 11.344426,20.243971 z "
       i:knockout="Off" />
  </g>
</svg>
