<?xml version="1.0" encoding="UTF-8" standalone="no"?>
<svg width="35.2778mm" height="35.2778mm"
 viewBox="0 0 100 100"
 xmlns="http://www.w3.org/2000/svg" xmlns:xlink="http://www.w3.org/1999/xlink"  version="1.2" baseProfile="tiny">
<title>COP2_subnet.icon</title>
<desc>Generated with Qt</desc>
<defs>
</defs>
<g fill="none" stroke="black" stroke-width="1" fill-rule="evenodd" stroke-linecap="square" stroke-linejoin="bevel" >

<g fill="none" stroke="#000000" stroke-opacity="1" stroke-width="1" stroke-linecap="square" stroke-linejoin="bevel" transform="matrix(1,0,0,1,0,0)"
font-family="MS Shell Dlg 2" font-size="8.25" font-weight="400" font-style="normal" 
>
</g>

<g fill="#cccccc" fill-opacity="1" stroke="#cccccc" stroke-opacity="1" stroke-width="1" stroke-linecap="square" stroke-linejoin="bevel" transform="matrix(1,0,0,1,0,0)"
font-family="MS Shell Dlg 2" font-size="8.25" font-weight="400" font-style="normal" 
>
<polyline fill="none" vector-effect="non-scaling-stroke" points="20,80 80,80 80,20 20,20 20,80 " />
<polyline fill="none" vector-effect="non-scaling-stroke" points="20,50 0,50 " />
<polyline fill="none" vector-effect="non-scaling-stroke" points="80,50 100,50 " />
</g>

<g fill="#000000" fill-opacity="1" stroke="#000000" stroke-opacity="1" stroke-width="1" stroke-linecap="square" stroke-linejoin="bevel" transform="matrix(1,0,0,1,0,0)"
font-family="MS Shell Dlg 2" font-size="8.25" font-weight="400" font-style="normal" 
>
<path vector-effect="non-scaling-stroke" fill-rule="evenodd" d="M30,35 L45,35 L45,30 L30,30 L30,35"/>
</g>

<g fill="#cccccc" fill-opacity="1" stroke="#cccccc" stroke-opacity="1" stroke-width="1" stroke-linecap="square" stroke-linejoin="bevel" transform="matrix(1,0,0,1,0,0)"
font-family="MS Shell Dlg 2" font-size="8.25" font-weight="400" font-style="normal" 
>
<polyline fill="none" vector-effect="non-scaling-stroke" points="30,35 45,35 45,30 30,30 30,35 " />
</g>

<g fill="#5454d4" fill-opacity="1" stroke="#5454d4" stroke-opacity="1" stroke-width="1" stroke-linecap="square" stroke-linejoin="bevel" transform="matrix(1,0,0,1,0,0)"
font-family="MS Shell Dlg 2" font-size="8.25" font-weight="400" font-style="normal" 
>
<path vector-effect="non-scaling-stroke" fill-rule="evenodd" d="M45,35 L30,35 L30,45 L45,45 L45,35"/>
</g>

<g fill="#cccccc" fill-opacity="1" stroke="#cccccc" stroke-opacity="1" stroke-width="1" stroke-linecap="square" stroke-linejoin="bevel" transform="matrix(1,0,0,1,0,0)"
font-family="MS Shell Dlg 2" font-size="8.25" font-weight="400" font-style="normal" 
>
<polyline fill="none" vector-effect="non-scaling-stroke" points="45,35 30,35 30,45 45,45 45,35 " />
</g>

<g fill="#000000" fill-opacity="1" stroke="#000000" stroke-opacity="1" stroke-width="1" stroke-linecap="square" stroke-linejoin="bevel" transform="matrix(1,0,0,1,0,0)"
font-family="MS Shell Dlg 2" font-size="8.25" font-weight="400" font-style="normal" 
>
<path vector-effect="non-scaling-stroke" fill-rule="evenodd" d="M30,60 L45,60 L45,55 L30,55 L30,60"/>
</g>

<g fill="#cccccc" fill-opacity="1" stroke="#cccccc" stroke-opacity="1" stroke-width="1" stroke-linecap="square" stroke-linejoin="bevel" transform="matrix(1,0,0,1,0,0)"
font-family="MS Shell Dlg 2" font-size="8.25" font-weight="400" font-style="normal" 
>
<polyline fill="none" vector-effect="non-scaling-stroke" points="30,60 45,60 45,55 30,55 30,60 " />
</g>

<g fill="#d454d4" fill-opacity="1" stroke="#d454d4" stroke-opacity="1" stroke-width="1" stroke-linecap="square" stroke-linejoin="bevel" transform="matrix(1,0,0,1,0,0)"
font-family="MS Shell Dlg 2" font-size="8.25" font-weight="400" font-style="normal" 
>
<path vector-effect="non-scaling-stroke" fill-rule="evenodd" d="M45,60 L30,60 L30,70 L45,70 L45,60"/>
</g>

<g fill="#cccccc" fill-opacity="1" stroke="#cccccc" stroke-opacity="1" stroke-width="1" stroke-linecap="square" stroke-linejoin="bevel" transform="matrix(1,0,0,1,0,0)"
font-family="MS Shell Dlg 2" font-size="8.25" font-weight="400" font-style="normal" 
>
<polyline fill="none" vector-effect="non-scaling-stroke" points="45,60 30,60 30,70 45,70 45,60 " />
</g>

<g fill="#000000" fill-opacity="1" stroke="#000000" stroke-opacity="1" stroke-width="1" stroke-linecap="square" stroke-linejoin="bevel" transform="matrix(1,0,0,1,0,0)"
font-family="MS Shell Dlg 2" font-size="8.25" font-weight="400" font-style="normal" 
>
<path vector-effect="non-scaling-stroke" fill-rule="evenodd" d="M60,45 L75,45 L75,40 L60,40 L60,45"/>
</g>

<g fill="#cccccc" fill-opacity="1" stroke="#cccccc" stroke-opacity="1" stroke-width="1" stroke-linecap="square" stroke-linejoin="bevel" transform="matrix(1,0,0,1,0,0)"
font-family="MS Shell Dlg 2" font-size="8.25" font-weight="400" font-style="normal" 
>
<polyline fill="none" vector-effect="non-scaling-stroke" points="60,45 75,45 75,40 60,40 60,45 " />
</g>

<g fill="#9b4646" fill-opacity="1" stroke="#9b4646" stroke-opacity="1" stroke-width="1" stroke-linecap="square" stroke-linejoin="bevel" transform="matrix(1,0,0,1,0,0)"
font-family="MS Shell Dlg 2" font-size="8.25" font-weight="400" font-style="normal" 
>
<path vector-effect="non-scaling-stroke" fill-rule="evenodd" d="M75,45 L60,45 L60,55 L75,55 L75,45"/>
</g>

<g fill="#cccccc" fill-opacity="1" stroke="#cccccc" stroke-opacity="1" stroke-width="1" stroke-linecap="square" stroke-linejoin="bevel" transform="matrix(1,0,0,1,0,0)"
font-family="MS Shell Dlg 2" font-size="8.25" font-weight="400" font-style="normal" 
>
<polyline fill="none" vector-effect="non-scaling-stroke" points="75,45 60,45 60,55 75,55 75,45 " />
</g>

<g fill="#cccccc" fill-opacity="1" stroke="#cccccc" stroke-opacity="1" stroke-width="1" stroke-linecap="square" stroke-linejoin="bevel" transform="matrix(1,0,0,1,0,0)"
font-family="MS Shell Dlg 2" font-size="8.25" font-weight="400" font-style="normal" 
>
<polyline fill="none" vector-effect="non-scaling-stroke" points="60,45 55,45 55,37.4 45,37.4 " />
<polyline fill="none" vector-effect="non-scaling-stroke" points="60,51.6 55,51.6 55,62.6 45,62.6 " />
</g>
</g>
</svg>
