<?xml version="1.0" encoding="UTF-8" standalone="no"?>
<!-- Created with Inkscape (http://www.inkscape.org/) -->
<svg
   xmlns:i="http://ns.adobe.com/AdobeIllustrator/10.0/"
   xmlns:a="http://ns.adobe.com/AdobeSVGViewerExtensions/3.0/"
   xmlns:dc="http://purl.org/dc/elements/1.1/"
   xmlns:cc="http://web.resource.org/cc/"
   xmlns:rdf="http://www.w3.org/1999/02/22-rdf-syntax-ns#"
   xmlns:svg="http://www.w3.org/2000/svg"
   xmlns="http://www.w3.org/2000/svg"
   xmlns:xlink="http://www.w3.org/1999/xlink"
   xmlns:sodipodi="http://sodipodi.sourceforge.net/DTD/sodipodi-0.dtd"
   xmlns:inkscape="http://www.inkscape.org/namespaces/inkscape"
   width="48px"
   height="48px"
   id="svg81301"
   sodipodi:version="0.32"
   inkscape:version="0.45.1"
   sodipodi:docbase="C:\dev\src\houdini\support\icons\COP2"
   sodipodi:docname="timefilter.svg"
   inkscape:output_extension="org.inkscape.output.svg.inkscape">
  <defs
     id="defs81303">
    <linearGradient
       id="linearGradient27830">
      <stop
         style="stop-color:#000000;stop-opacity:0.54901963;"
         offset="0"
         id="stop27832" />
      <stop
         style="stop-color:#000000;stop-opacity:0;"
         offset="1"
         id="stop27834" />
    </linearGradient>
    <linearGradient
       inkscape:collect="always"
       xlink:href="#linearGradient27830"
       id="linearGradient27836"
       x1="36.14917"
       y1="12.773481"
       x2="10.524862"
       y2="38.40884"
       gradientUnits="userSpaceOnUse"
       gradientTransform="matrix(0.2412173,0,0,0.2412173,14.831549,32)" />
    <linearGradient
       id="linearGradient27844">
      <stop
         id="stop27846"
         offset="0"
         style="stop-color:#ffffff;stop-opacity:0.50196081;" />
      <stop
         id="stop27848"
         offset="1"
         style="stop-color:#ffffff;stop-opacity:0;" />
    </linearGradient>
    <linearGradient
       inkscape:collect="always"
       xlink:href="#linearGradient27844"
       id="linearGradient27842"
       gradientUnits="userSpaceOnUse"
       x1="36.14917"
       y1="12.773481"
       x2="10.524862"
       y2="38.40884"
       gradientTransform="matrix(0.1945096,0,0,0.1945096,16.692178,32.38134)" />
    <linearGradient
       id="linearGradient27870">
      <stop
         style="stop-color:#ffffff;stop-opacity:1;"
         offset="0"
         id="stop27872" />
      <stop
         style="stop-color:#000000;stop-opacity:1;"
         offset="1"
         id="stop27874" />
    </linearGradient>
    <radialGradient
       inkscape:collect="always"
       xlink:href="#linearGradient27870"
       id="radialGradient27876"
       cx="35.470215"
       cy="5.5439429"
       fx="35.470215"
       fy="5.5439429"
       r="9.4585638"
       gradientUnits="userSpaceOnUse"
       gradientTransform="matrix(1.9175965,-4.2336648e-2,4.2345678e-2,1.9180055,-32.78211,-3.5876801)" />
    <linearGradient
       inkscape:collect="always"
       id="linearGradient27862">
      <stop
         style="stop-color:#ffffff;stop-opacity:1;"
         offset="0"
         id="stop27864" />
      <stop
         style="stop-color:#ffffff;stop-opacity:0;"
         offset="1"
         id="stop27866" />
    </linearGradient>
    <linearGradient
       inkscape:collect="always"
       xlink:href="#linearGradient27862"
       id="linearGradient27879"
       gradientUnits="userSpaceOnUse"
       gradientTransform="matrix(-0.1678056,0.1732831,-9.8189153e-2,-9.5085383e-2,32.853949,30.500361)"
       x1="36"
       y1="34.461327"
       x2="71.602211"
       y2="34.461327" />
    <linearGradient
       gradientTransform="matrix(0.2312358,1.370254,-0.988939,0.3203954,1358.5548,2825.9062)"
       y2="850.9393"
       x2="-2226.0481"
       y1="799.5093"
       x1="-2238.1064"
       gradientUnits="userSpaceOnUse"
       id="XMLID_205_">
      <stop
         id="stop22942"
         style="stop-color:#FFFFFF"
         offset="0" />
      <stop
         id="stop22944"
         style="stop-color:#B8C0CA"
         offset="1" />
      <a:midPointStop
         style="stop-color:#FFFFFF"
         offset="0" />
      <a:midPointStop
         style="stop-color:#FFFFFF"
         offset="0.5" />
      <a:midPointStop
         style="stop-color:#B8C0CA"
         offset="1" />
    </linearGradient>
    <linearGradient
       y2="515.8241"
       x2="3.6057"
       y1="524.394"
       x1="45.4092"
       gradientUnits="userSpaceOnUse"
       id="XMLID_206_"
       gradientTransform="matrix(1.0156677,-3.8542872e-3,2.7821082e-3,1.4072886,-1.8142416,-709.23826)">
      <stop
         id="stop22949"
         style="stop-color:#FFFFFF"
         offset="0" />
      <stop
         id="stop22951"
         style="stop-color:#B8C0CA"
         offset="1" />
      <a:midPointStop
         style="stop-color:#FFFFFF"
         offset="0" />
      <a:midPointStop
         style="stop-color:#FFFFFF"
         offset="0.5" />
      <a:midPointStop
         style="stop-color:#B8C0CA"
         offset="1" />
    </linearGradient>
    <linearGradient
       gradientTransform="matrix(0.2312358,1.370254,-0.988939,0.3203954,1358.5548,2825.9062)"
       y2="854.0769"
       x2="-2239.4355"
       y1="802.6499"
       x1="-2251.4932"
       gradientUnits="userSpaceOnUse"
       id="XMLID_207_">
      <stop
         id="stop22956"
         style="stop-color:#FFFFFF"
         offset="0" />
      <stop
         id="stop22958"
         style="stop-color:#B8C0CA"
         offset="1" />
      <a:midPointStop
         style="stop-color:#FFFFFF"
         offset="0" />
      <a:midPointStop
         style="stop-color:#FFFFFF"
         offset="0.5" />
      <a:midPointStop
         style="stop-color:#B8C0CA"
         offset="1" />
    </linearGradient>
    <linearGradient
       y2="543.10522"
       x2="777.99518"
       y1="541.73053"
       x1="776.86517"
       gradientUnits="userSpaceOnUse"
       id="XMLID_471_">
      <stop
         id="stop59351"
         style="stop-color:#FFFFFF"
         offset="0.2472" />
      <stop
         id="stop59353"
         style="stop-color:#F3F4F5"
         offset="0.3006" />
      <stop
         id="stop59355"
         style="stop-color:#CBD0D6"
         offset="0.5083" />
      <stop
         id="stop59357"
         style="stop-color:#AFB9C2"
         offset="0.7007" />
      <stop
         id="stop59359"
         style="stop-color:#9EAAB6"
         offset="0.8706" />
      <stop
         id="stop59361"
         style="stop-color:#99A5B3"
         offset="1" />
      <a:midPointStop
         style="stop-color:#FFFFFF"
         offset="0.2472" />
      <a:midPointStop
         style="stop-color:#FFFFFF"
         offset="0.3507" />
      <a:midPointStop
         style="stop-color:#99A5B3"
         offset="1" />
    </linearGradient>
    <linearGradient
       y2="543.04242"
       x2="780.54187"
       y1="541.80182"
       x1="779.32422"
       gradientUnits="userSpaceOnUse"
       id="XMLID_470_">
      <stop
         id="stop59334"
         style="stop-color:#FFFFFF"
         offset="0.2472" />
      <stop
         id="stop59336"
         style="stop-color:#F3F4F5"
         offset="0.3006" />
      <stop
         id="stop59338"
         style="stop-color:#CBD0D6"
         offset="0.5083" />
      <stop
         id="stop59340"
         style="stop-color:#AFB9C2"
         offset="0.7007" />
      <stop
         id="stop59342"
         style="stop-color:#9EAAB6"
         offset="0.8706" />
      <stop
         id="stop59344"
         style="stop-color:#99A5B3"
         offset="1" />
      <a:midPointStop
         style="stop-color:#FFFFFF"
         offset="0.2472" />
      <a:midPointStop
         style="stop-color:#FFFFFF"
         offset="0.3507" />
      <a:midPointStop
         style="stop-color:#99A5B3"
         offset="1" />
    </linearGradient>
    <linearGradient
       y2="543.01923"
       x2="783.04901"
       y1="541.7998"
       x1="781.78607"
       gradientUnits="userSpaceOnUse"
       id="XMLID_469_">
      <stop
         id="stop59317"
         style="stop-color:#FFFFFF"
         offset="0.2472" />
      <stop
         id="stop59319"
         style="stop-color:#F3F4F5"
         offset="0.3006" />
      <stop
         id="stop59321"
         style="stop-color:#CBD0D6"
         offset="0.5083" />
      <stop
         id="stop59323"
         style="stop-color:#AFB9C2"
         offset="0.7007" />
      <stop
         id="stop59325"
         style="stop-color:#9EAAB6"
         offset="0.8706" />
      <stop
         id="stop59327"
         style="stop-color:#99A5B3"
         offset="1" />
      <a:midPointStop
         style="stop-color:#FFFFFF"
         offset="0.2472" />
      <a:midPointStop
         style="stop-color:#FFFFFF"
         offset="0.3507" />
      <a:midPointStop
         style="stop-color:#99A5B3"
         offset="1" />
    </linearGradient>
    <linearGradient
       y2="543.07141"
       x2="777.43848"
       y1="541.40143"
       x1="777.43848"
       gradientUnits="userSpaceOnUse"
       id="XMLID_468_">
      <stop
         id="stop59306"
         style="stop-color:#D0D5DA"
         offset="0.4551" />
      <stop
         id="stop59308"
         style="stop-color:#99A5B3"
         offset="0.8258" />
      <stop
         id="stop59310"
         style="stop-color:#9DA9B6"
         offset="1" />
      <a:midPointStop
         style="stop-color:#D0D5DA"
         offset="0.4551" />
      <a:midPointStop
         style="stop-color:#D0D5DA"
         offset="0.5" />
      <a:midPointStop
         style="stop-color:#99A5B3"
         offset="0.8258" />
      <a:midPointStop
         style="stop-color:#99A5B3"
         offset="0.5" />
      <a:midPointStop
         style="stop-color:#9DA9B6"
         offset="1" />
    </linearGradient>
    <linearGradient
       y2="543.07141"
       x2="779.9375"
       y1="541.40143"
       x1="779.9375"
       gradientUnits="userSpaceOnUse"
       id="XMLID_467_">
      <stop
         id="stop59297"
         style="stop-color:#D0D5DA"
         offset="0.4551" />
      <stop
         id="stop59299"
         style="stop-color:#99A5B3"
         offset="0.8258" />
      <stop
         id="stop59301"
         style="stop-color:#9DA9B6"
         offset="1" />
      <a:midPointStop
         style="stop-color:#D0D5DA"
         offset="0.4551" />
      <a:midPointStop
         style="stop-color:#D0D5DA"
         offset="0.5" />
      <a:midPointStop
         style="stop-color:#99A5B3"
         offset="0.8258" />
      <a:midPointStop
         style="stop-color:#99A5B3"
         offset="0.5" />
      <a:midPointStop
         style="stop-color:#9DA9B6"
         offset="1" />
    </linearGradient>
    <linearGradient
       y2="543.07141"
       x2="782.43549"
       y1="541.40143"
       x1="782.43549"
       gradientUnits="userSpaceOnUse"
       id="XMLID_466_">
      <stop
         id="stop59288"
         style="stop-color:#D0D5DA"
         offset="0.4551" />
      <stop
         id="stop59290"
         style="stop-color:#99A5B3"
         offset="0.8258" />
      <stop
         id="stop59292"
         style="stop-color:#9DA9B6"
         offset="1" />
      <a:midPointStop
         style="stop-color:#D0D5DA"
         offset="0.4551" />
      <a:midPointStop
         style="stop-color:#D0D5DA"
         offset="0.5" />
      <a:midPointStop
         style="stop-color:#99A5B3"
         offset="0.8258" />
      <a:midPointStop
         style="stop-color:#99A5B3"
         offset="0.5" />
      <a:midPointStop
         style="stop-color:#9DA9B6"
         offset="1" />
    </linearGradient>
    <linearGradient
       y2="544.37311"
       x2="771.21973"
       y1="561.37793"
       x1="771.21973"
       gradientUnits="userSpaceOnUse"
       id="XMLID_465_">
      <stop
         id="stop59273"
         style="stop-color:#FFFFFF"
         offset="0" />
      <stop
         id="stop59275"
         style="stop-color:#FFFFFF"
         offset="0.4101" />
      <stop
         id="stop59277"
         style="stop-color:#FBFCFA"
         offset="0.5919" />
      <stop
         id="stop59279"
         style="stop-color:#EEEFEB"
         offset="0.7746" />
      <stop
         id="stop59281"
         style="stop-color:#D9DCD5"
         offset="0.9572" />
      <stop
         id="stop59283"
         style="stop-color:#D3D7CF"
         offset="1" />
      <a:midPointStop
         style="stop-color:#FFFFFF"
         offset="0" />
      <a:midPointStop
         style="stop-color:#FFFFFF"
         offset="0.7062" />
      <a:midPointStop
         style="stop-color:#FFFFFF"
         offset="0.4101" />
      <a:midPointStop
         style="stop-color:#FFFFFF"
         offset="0.7062" />
      <a:midPointStop
         style="stop-color:#D3D7CF"
         offset="1" />
    </linearGradient>
    <linearGradient
       y2="562.61603"
       x2="771.21881"
       y1="542.0459"
       x1="771.21881"
       gradientUnits="userSpaceOnUse"
       id="XMLID_464_">
      <stop
         id="stop59256"
         style="stop-color:#ADBBCA"
         offset="0" />
      <stop
         id="stop59258"
         style="stop-color:#FFFFFF"
         offset="0.3483" />
      <stop
         id="stop59260"
         style="stop-color:#FFFFFF"
         offset="0.6742" />
      <stop
         id="stop59262"
         style="stop-color:#FBFCFC"
         offset="0.7588" />
      <stop
         id="stop59264"
         style="stop-color:#EFF2F5"
         offset="0.8439" />
      <stop
         id="stop59266"
         style="stop-color:#DAE2E8"
         offset="0.9289" />
      <stop
         id="stop59268"
         style="stop-color:#C3D2DD"
         offset="1" />
      <a:midPointStop
         style="stop-color:#ADBBCA"
         offset="0" />
      <a:midPointStop
         style="stop-color:#ADBBCA"
         offset="0.5" />
      <a:midPointStop
         style="stop-color:#FFFFFF"
         offset="0.3483" />
      <a:midPointStop
         style="stop-color:#FFFFFF"
         offset="0.7062" />
      <a:midPointStop
         style="stop-color:#FFFFFF"
         offset="0.6742" />
      <a:midPointStop
         style="stop-color:#FFFFFF"
         offset="0.7062" />
      <a:midPointStop
         style="stop-color:#C3D2DD"
         offset="1" />
    </linearGradient>
    <linearGradient
       y2="562.61572"
       x2="771.21881"
       y1="540.61719"
       x1="771.21881"
       gradientUnits="userSpaceOnUse"
       id="XMLID_463_">
      <stop
         id="stop59247"
         style="stop-color:#E8ECED"
         offset="0" />
      <stop
         id="stop59249"
         style="stop-color:#FFFFFF"
         offset="0.3483" />
      <stop
         id="stop59251"
         style="stop-color:#FFFFFF"
         offset="0.6742" />
      <a:midPointStop
         style="stop-color:#E8ECED"
         offset="0" />
      <a:midPointStop
         style="stop-color:#E8ECED"
         offset="0.5" />
      <a:midPointStop
         style="stop-color:#FFFFFF"
         offset="0.3483" />
      <a:midPointStop
         style="stop-color:#FFFFFF"
         offset="0.7062" />
      <a:midPointStop
         style="stop-color:#FFFFFF"
         offset="0.6742" />
    </linearGradient>
    <linearGradient
       y2="551.0168"
       x2="784.5"
       y1="586.0566"
       x1="784.5"
       gradientUnits="userSpaceOnUse"
       id="XMLID_472_"
       gradientTransform="translate(-757.06,-539.6278)">
      <stop
         id="stop59368"
         style="stop-color:#709EC3"
         offset="0" />
      <stop
         id="stop59370"
         style="stop-color:#72A0C4"
         offset="0.3828" />
      <stop
         id="stop59372"
         style="stop-color:#79A3C6"
         offset="0.5207" />
      <stop
         id="stop59374"
         style="stop-color:#83ABCA"
         offset="0.6189" />
      <stop
         id="stop59376"
         style="stop-color:#94B5D0"
         offset="0.6984" />
      <stop
         id="stop59378"
         style="stop-color:#A9C3D9"
         offset="0.7665" />
      <stop
         id="stop59380"
         style="stop-color:#C6D6E5"
         offset="0.8268" />
      <stop
         id="stop59382"
         style="stop-color:#E5ECF2"
         offset="0.8799" />
      <stop
         id="stop59384"
         style="stop-color:#FFFFFF"
         offset="0.9157" />
      <a:midPointStop
         style="stop-color:#709EC3"
         offset="0" />
      <a:midPointStop
         style="stop-color:#709EC3"
         offset="0.87" />
      <a:midPointStop
         style="stop-color:#FFFFFF"
         offset="0.9157" />
    </linearGradient>
    <linearGradient
       y2="586.1566"
       x2="784.5"
       y1="556.3604"
       x1="784.5"
       gradientUnits="userSpaceOnUse"
       id="XMLID_473_"
       gradientTransform="translate(-757.06,-539.6278)">
      <stop
         id="stop59389"
         style="stop-color:#6395BF"
         offset="0" />
      <stop
         id="stop59391"
         style="stop-color:#CCDBE8"
         offset="0.0899" />
      <stop
         id="stop59393"
         style="stop-color:#FFFFFF"
         offset="0.6742" />
      <stop
         id="stop59395"
         style="stop-color:#FBFDFE"
         offset="0.7275" />
      <stop
         id="stop59397"
         style="stop-color:#EFF5F8"
         offset="0.7812" />
      <stop
         id="stop59399"
         style="stop-color:#DBEAF2"
         offset="0.835" />
      <stop
         id="stop59401"
         style="stop-color:#BED9E8"
         offset="0.889" />
      <stop
         id="stop59403"
         style="stop-color:#9AC6DC"
         offset="0.9431" />
      <stop
         id="stop59405"
         style="stop-color:#6FAFCE"
         offset="0.9966" />
      <stop
         id="stop59407"
         style="stop-color:#6CADCD"
         offset="1" />
      <a:midPointStop
         style="stop-color:#6395BF"
         offset="0" />
      <a:midPointStop
         style="stop-color:#6395BF"
         offset="0.5" />
      <a:midPointStop
         style="stop-color:#CCDBE8"
         offset="0.0899" />
      <a:midPointStop
         style="stop-color:#CCDBE8"
         offset="0.5" />
      <a:midPointStop
         style="stop-color:#FFFFFF"
         offset="0.6742" />
      <a:midPointStop
         style="stop-color:#FFFFFF"
         offset="0.7062" />
      <a:midPointStop
         style="stop-color:#6CADCD"
         offset="1" />
    </linearGradient>
    <linearGradient
       y2="557.7296"
       x2="800.5313"
       y1="556.3213"
       x1="800.5313"
       gradientUnits="userSpaceOnUse"
       id="XMLID_474_">
      <stop
         id="stop59412"
         style="stop-color:#D9ADAE"
         offset="0.4551" />
      <stop
         id="stop59414"
         style="stop-color:#CB1009"
         offset="0.9438" />
      <a:midPointStop
         style="stop-color:#D9ADAE"
         offset="0.4551" />
      <a:midPointStop
         style="stop-color:#D9ADAE"
         offset="0.5" />
      <a:midPointStop
         style="stop-color:#CB1009"
         offset="0.9438" />
    </linearGradient>
    <linearGradient
       y2="558.06409"
       x2="801.37323"
       y1="556.13672"
       x1="799.81348"
       gradientUnits="userSpaceOnUse"
       id="XMLID_475_">
      <stop
         id="stop59421"
         style="stop-color:#FFFFFF"
         offset="0.2472" />
      <stop
         id="stop59423"
         style="stop-color:#E8C8B7"
         offset="0.3403" />
      <stop
         id="stop59425"
         style="stop-color:#CE896F"
         offset="0.472" />
      <stop
         id="stop59427"
         style="stop-color:#BA5942"
         offset="0.5993" />
      <stop
         id="stop59429"
         style="stop-color:#AB3825"
         offset="0.7189" />
      <stop
         id="stop59431"
         style="stop-color:#A22214"
         offset="0.829" />
      <stop
         id="stop59433"
         style="stop-color:#9B150B"
         offset="0.9261" />
      <stop
         id="stop59435"
         style="stop-color:#991109"
         offset="1" />
      <a:midPointStop
         style="stop-color:#FFFFFF"
         offset="0.2472" />
      <a:midPointStop
         style="stop-color:#FFFFFF"
         offset="0.3507" />
      <a:midPointStop
         style="stop-color:#991109"
         offset="1" />
    </linearGradient>
    <linearGradient
       y2="557.8331"
       x2="797.2539"
       y1="556.2705"
       x1="797.2539"
       gradientUnits="userSpaceOnUse"
       id="XMLID_476_">
      <stop
         id="stop59440"
         style="stop-color:#A0C6DE"
         offset="0.4551" />
      <stop
         id="stop59442"
         style="stop-color:#3165A1"
         offset="0.9438" />
      <a:midPointStop
         style="stop-color:#A0C6DE"
         offset="0.4551" />
      <a:midPointStop
         style="stop-color:#A0C6DE"
         offset="0.5" />
      <a:midPointStop
         style="stop-color:#3165A1"
         offset="0.9438" />
    </linearGradient>
    <linearGradient
       y2="557.87592"
       x2="797.99579"
       y1="556.1416"
       x1="796.48138"
       gradientUnits="userSpaceOnUse"
       id="XMLID_477_">
      <stop
         id="stop59449"
         style="stop-color:#FFFFFF"
         offset="0.2472" />
      <stop
         id="stop59451"
         style="stop-color:#FCFDFE"
         offset="0.2526" />
      <stop
         id="stop59453"
         style="stop-color:#AEBDD5"
         offset="0.401" />
      <stop
         id="stop59455"
         style="stop-color:#7392BA"
         offset="0.5332" />
      <stop
         id="stop59457"
         style="stop-color:#4875A9"
         offset="0.6444" />
      <stop
         id="stop59459"
         style="stop-color:#3066A0"
         offset="0.7305" />
      <stop
         id="stop59461"
         style="stop-color:#27609D"
         offset="0.7809" />
      <stop
         id="stop59463"
         style="stop-color:#355787"
         offset="1" />
      <a:midPointStop
         style="stop-color:#FFFFFF"
         offset="0.2472" />
      <a:midPointStop
         style="stop-color:#FFFFFF"
         offset="0.4105" />
      <a:midPointStop
         style="stop-color:#27609D"
         offset="0.7809" />
      <a:midPointStop
         style="stop-color:#27609D"
         offset="0.5" />
      <a:midPointStop
         style="stop-color:#355787"
         offset="1" />
    </linearGradient>
    <linearGradient
       y2="557.8331"
       x2="793.9746"
       y1="556.2705"
       x1="793.9746"
       gradientUnits="userSpaceOnUse"
       id="XMLID_478_">
      <stop
         id="stop59468"
         style="stop-color:#A0C6DE"
         offset="0.4551" />
      <stop
         id="stop59470"
         style="stop-color:#3165A1"
         offset="0.9438" />
      <a:midPointStop
         style="stop-color:#A0C6DE"
         offset="0.4551" />
      <a:midPointStop
         style="stop-color:#A0C6DE"
         offset="0.5" />
      <a:midPointStop
         style="stop-color:#3165A1"
         offset="0.9438" />
    </linearGradient>
    <linearGradient
       y2="557.90527"
       x2="794.66357"
       y1="556.1084"
       x1="793.25592"
       gradientUnits="userSpaceOnUse"
       id="XMLID_479_">
      <stop
         id="stop59477"
         style="stop-color:#FFFFFF"
         offset="0.2472" />
      <stop
         id="stop59479"
         style="stop-color:#FCFDFE"
         offset="0.2526" />
      <stop
         id="stop59481"
         style="stop-color:#AEBDD5"
         offset="0.401" />
      <stop
         id="stop59483"
         style="stop-color:#7392BA"
         offset="0.5332" />
      <stop
         id="stop59485"
         style="stop-color:#4875A9"
         offset="0.6444" />
      <stop
         id="stop59487"
         style="stop-color:#3066A0"
         offset="0.7305" />
      <stop
         id="stop59489"
         style="stop-color:#27609D"
         offset="0.7809" />
      <stop
         id="stop59491"
         style="stop-color:#355787"
         offset="1" />
      <a:midPointStop
         style="stop-color:#FFFFFF"
         offset="0.2472" />
      <a:midPointStop
         style="stop-color:#FFFFFF"
         offset="0.4105" />
      <a:midPointStop
         style="stop-color:#27609D"
         offset="0.7809" />
      <a:midPointStop
         style="stop-color:#27609D"
         offset="0.5" />
      <a:midPointStop
         style="stop-color:#355787"
         offset="1" />
    </linearGradient>
    <linearGradient
       y2="584.71057"
       x2="802.10309"
       y1="559.55469"
       x1="767.06641"
       gradientUnits="userSpaceOnUse"
       id="XMLID_481_">
      <stop
         id="stop59513"
         style="stop-color:#263D4C"
         offset="0" />
      <stop
         id="stop59515"
         style="stop-color:#446D8C"
         offset="0.3483" />
      <stop
         id="stop59517"
         style="stop-color:#698499"
         offset="1" />
      <a:midPointStop
         style="stop-color:#263D4C"
         offset="0" />
      <a:midPointStop
         style="stop-color:#263D4C"
         offset="0.5" />
      <a:midPointStop
         style="stop-color:#446D8C"
         offset="0.3483" />
      <a:midPointStop
         style="stop-color:#446D8C"
         offset="0.5" />
      <a:midPointStop
         style="stop-color:#698499"
         offset="1" />
    </linearGradient>
    <linearGradient
       y2="559.51172"
       x2="784.5"
       y1="584.57813"
       x1="784.5"
       gradientUnits="userSpaceOnUse"
       id="XMLID_480_">
      <stop
         id="stop59498"
         style="stop-color:#FFFFFF"
         offset="0" />
      <stop
         id="stop59500"
         style="stop-color:#FFFFFF"
         offset="0.4101" />
      <stop
         id="stop59502"
         style="stop-color:#FBFCFA"
         offset="0.5919" />
      <stop
         id="stop59504"
         style="stop-color:#EEEFEB"
         offset="0.7746" />
      <stop
         id="stop59506"
         style="stop-color:#D9DCD5"
         offset="0.9572" />
      <stop
         id="stop59508"
         style="stop-color:#D3D7CF"
         offset="1" />
      <a:midPointStop
         style="stop-color:#FFFFFF"
         offset="0" />
      <a:midPointStop
         style="stop-color:#FFFFFF"
         offset="0.7062" />
      <a:midPointStop
         style="stop-color:#FFFFFF"
         offset="0.4101" />
      <a:midPointStop
         style="stop-color:#FFFFFF"
         offset="0.7062" />
      <a:midPointStop
         style="stop-color:#D3D7CF"
         offset="1" />
    </linearGradient>
    <linearGradient
       gradientTransform="matrix(0,-1,-1,0,259.812,95.12895)"
       y2="233.4395"
       x2="75.0697"
       y1="233.4395"
       x1="84.022"
       gradientUnits="userSpaceOnUse"
       id="XMLID_482_">
      <stop
         id="stop59524"
         style="stop-color:#E96712"
         offset="0" />
      <stop
         id="stop59526"
         style="stop-color:#D4290C"
         offset="0.6477" />
      <stop
         id="stop59528"
         style="stop-color:#CB1009"
         offset="1" />
      <a:midPointStop
         style="stop-color:#E96712"
         offset="0" />
      <a:midPointStop
         style="stop-color:#E96712"
         offset="0.4689" />
      <a:midPointStop
         style="stop-color:#CB1009"
         offset="1" />
    </linearGradient>
    <linearGradient
       inkscape:collect="always"
       xlink:href="#XMLID_482_"
       id="linearGradient7376"
       gradientUnits="userSpaceOnUse"
       gradientTransform="matrix(0,-1,-1,0,259.812,95.12895)"
       x1="84.022"
       y1="233.4395"
       x2="75.0697"
       y2="233.4395" />
    <linearGradient
       inkscape:collect="always"
       xlink:href="#linearGradient27830"
       id="linearGradient40219"
       gradientUnits="userSpaceOnUse"
       gradientTransform="matrix(0.2412173,0,0,0.2412173,34.868865,16.145207)"
       x1="36.14917"
       y1="12.773481"
       x2="10.524862"
       y2="38.40884" />
    <linearGradient
       inkscape:collect="always"
       xlink:href="#linearGradient27844"
       id="linearGradient40221"
       gradientUnits="userSpaceOnUse"
       gradientTransform="matrix(0.1945096,0,0,0.1945096,36.729494,16.526547)"
       x1="36.14917"
       y1="12.773481"
       x2="10.524862"
       y2="38.40884" />
    <radialGradient
       inkscape:collect="always"
       xlink:href="#linearGradient27870"
       id="radialGradient40223"
       gradientUnits="userSpaceOnUse"
       gradientTransform="matrix(1.9175965,-4.2336648e-2,4.2345678e-2,1.9180055,-32.78211,-3.5876801)"
       cx="35.470215"
       cy="5.5439429"
       fx="35.470215"
       fy="5.5439429"
       r="9.4585638" />
    <linearGradient
       inkscape:collect="always"
       xlink:href="#linearGradient27862"
       id="linearGradient40225"
       gradientUnits="userSpaceOnUse"
       gradientTransform="matrix(-0.1678056,0.1732831,-9.8189153e-2,-9.5085383e-2,52.891265,14.645568)"
       x1="36"
       y1="34.461327"
       x2="71.602211"
       y2="34.461327" />
    <radialGradient
       inkscape:collect="always"
       xlink:href="#linearGradient27870"
       id="radialGradient40231"
       gradientUnits="userSpaceOnUse"
       gradientTransform="matrix(1.9175965,-4.2336648e-2,4.2345678e-2,1.9180055,-32.78211,-3.5876801)"
       cx="35.470215"
       cy="5.5439429"
       fx="35.470215"
       fy="5.5439429"
       r="9.4585638" />
    <linearGradient
       inkscape:collect="always"
       xlink:href="#linearGradient27862"
       id="linearGradient40233"
       gradientUnits="userSpaceOnUse"
       gradientTransform="matrix(-0.1678056,0.1732831,-9.8189153e-2,-9.5085383e-2,32.853949,18.500346)"
       x1="36"
       y1="34.461327"
       x2="71.602211"
       y2="34.461327" />
    <radialGradient
       inkscape:collect="always"
       xlink:href="#linearGradient27870"
       id="radialGradient40235"
       gradientUnits="userSpaceOnUse"
       gradientTransform="matrix(1.9175965,-4.2336648e-2,4.2345678e-2,1.9180055,-32.78211,-3.5876801)"
       cx="35.470215"
       cy="5.5439429"
       fx="35.470215"
       fy="5.5439429"
       r="9.4585638" />
    <linearGradient
       inkscape:collect="always"
       xlink:href="#linearGradient27844"
       id="linearGradient40237"
       gradientUnits="userSpaceOnUse"
       gradientTransform="matrix(0.1945096,0,0,0.1945096,16.692178,20.381325)"
       x1="36.14917"
       y1="12.773481"
       x2="10.524862"
       y2="38.40884" />
    <linearGradient
       inkscape:collect="always"
       xlink:href="#linearGradient27830"
       id="linearGradient40239"
       gradientUnits="userSpaceOnUse"
       gradientTransform="matrix(0.2412173,0,0,0.2412173,14.831549,19.999985)"
       x1="36.14917"
       y1="12.773481"
       x2="10.524862"
       y2="38.40884" />
  </defs>
  <sodipodi:namedview
     id="base"
     pagecolor="#ffffff"
     bordercolor="#666666"
     borderopacity="1.0"
     inkscape:pageopacity="0.0"
     inkscape:pageshadow="2"
     inkscape:zoom="11.3125"
     inkscape:cx="45.025366"
     inkscape:cy="20"
     inkscape:current-layer="layer1"
     showgrid="true"
     inkscape:grid-bbox="true"
     inkscape:document-units="px"
     inkscape:window-width="1338"
     inkscape:window-height="1101"
     inkscape:window-x="296"
     inkscape:window-y="9" />
  <metadata
     id="metadata81306">
    <rdf:RDF>
      <cc:Work
         rdf:about="">
        <dc:format>image/svg+xml</dc:format>
        <dc:type
           rdf:resource="http://purl.org/dc/dcmitype/StillImage" />
      </cc:Work>
    </rdf:RDF>
  </metadata>
  <g
     id="layer1"
     inkscape:label="Layer 1"
     inkscape:groupmode="layer">
    <g
       transform="matrix(1.0156677,-3.8542872e-3,2.7821082e-3,1.4072886,-1.8142416,-709.23826)"
       id="g22937">
      <path
         id="path22939"
         d="M 47.669,528.135 L 47.669,527.087 L 46.972,527.085 C 46.901,527.086 46.841,527.027 46.843,526.955 L 46.842,525.915 C 46.843,525.845 46.9,525.785 46.972,525.786 L 47.669,525.785 L 47.669,514.337 L 46.97,514.335 C 46.898,514.336 46.839,514.277 46.839,514.205 L 46.839,513.168 C 46.839,513.095 46.896,513.035 46.97,513.037 L 47.669,513.036 L 47.669,511.922 L 0.384,511.923 L 0.384,513.025 L 1.122,513.025 C 1.195,513.024 1.253,513.084 1.253,513.155 L 1.254,514.194 C 1.253,514.267 1.194,514.324 1.123,514.325 L 0.384,514.325 L 0.386,525.774 L 1.126,525.774 C 1.198,525.774 1.257,525.832 1.257,525.905 L 1.257,526.944 C 1.257,527.014 1.198,527.074 1.125,527.075 L 0.385,527.074 L 0.384,528.136 L 47.669,528.136 L 47.669,528.135 z M 2.381,514.324 C 2.308,514.325 2.249,514.267 2.249,514.196 L 2.249,513.155 C 2.25,513.085 2.308,513.025 2.38,513.026 L 4.096,513.025 C 4.169,513.026 4.227,513.084 4.226,513.155 L 4.227,514.194 C 4.226,514.266 4.169,514.326 4.094,514.327 L 2.381,514.324 z M 5.353,514.326 C 5.281,514.327 5.222,514.266 5.222,514.196 L 5.222,513.157 C 5.224,513.085 5.281,513.027 5.355,513.026 L 7.068,513.026 C 7.141,513.026 7.2,513.084 7.199,513.157 L 7.199,514.196 C 7.199,514.268 7.142,514.326 7.07,514.325 L 5.353,514.326 z M 8.325,514.328 C 8.253,514.327 8.194,514.268 8.196,514.196 L 8.195,513.155 C 8.195,513.086 8.254,513.027 8.325,513.028 L 10.041,513.026 C 10.114,513.028 10.171,513.086 10.173,513.157 L 10.172,514.196 C 10.171,514.268 10.113,514.328 10.04,514.329 L 8.325,514.328 z M 11.298,514.328 C 11.228,514.327 11.169,514.268 11.168,514.198 L 11.167,513.159 C 11.168,513.086 11.226,513.026 11.299,513.028 L 13.013,513.028 C 13.086,513.027 13.145,513.086 13.144,513.158 L 13.145,514.198 C 13.144,514.27 13.085,514.33 13.013,514.328 L 11.298,514.328 z M 14.272,514.33 C 14.198,514.328 14.139,514.27 14.139,514.197 L 14.139,513.158 C 14.141,513.086 14.198,513.028 14.27,513.029 L 15.985,513.03 C 16.057,513.029 16.115,513.087 16.116,513.16 L 16.116,514.197 C 16.116,514.27 16.057,514.329 15.987,514.329 L 14.272,514.33 z M 17.242,514.329 C 17.171,514.33 17.112,514.27 17.113,514.2 L 17.112,513.16 C 17.114,513.088 17.173,513.028 17.245,513.03 L 18.96,513.028 C 19.031,513.029 19.089,513.09 19.089,513.16 L 19.089,514.197 C 19.091,514.27 19.03,514.329 18.96,514.328 L 17.242,514.329 z M 20.217,514.33 C 20.144,514.33 20.085,514.272 20.086,514.199 L 20.085,513.16 C 20.085,513.09 20.145,513.03 20.216,513.031 L 21.931,513.03 C 22.005,513.029 22.062,513.089 22.063,513.162 L 22.062,514.199 C 22.062,514.272 22.004,514.331 21.931,514.33 L 20.217,514.33 z M 23.188,514.331 C 23.116,514.332 23.056,514.273 23.057,514.201 L 23.057,513.162 C 23.059,513.088 23.116,513.032 23.189,513.031 L 24.903,513.032 C 24.976,513.031 25.034,513.089 25.034,513.162 L 25.034,514.201 C 25.034,514.272 24.975,514.331 24.903,514.332 L 23.188,514.331 z M 26.161,514.331 C 26.09,514.332 26.03,514.274 26.03,514.201 L 26.032,513.162 C 26.03,513.091 26.089,513.03 26.161,513.031 L 27.878,513.03 C 27.948,513.033 28.006,513.091 28.007,513.162 L 28.008,514.201 C 28.007,514.273 27.948,514.333 27.876,514.332 L 26.161,514.331 z M 29.133,514.333 C 29.061,514.332 29.003,514.273 29.005,514.201 L 29.003,513.164 C 29.003,513.089 29.062,513.031 29.134,513.033 L 30.849,513.033 C 30.921,513.032 30.981,513.091 30.98,513.164 L 30.98,514.203 C 30.98,514.273 30.921,514.333 30.848,514.333 L 29.133,514.333 z M 32.107,514.333 C 32.034,514.334 31.975,514.273 31.976,514.203 L 31.975,513.166 C 31.977,513.091 32.035,513.034 32.106,513.032 L 33.822,513.033 C 33.893,513.034 33.952,513.093 33.952,513.163 L 33.952,514.203 C 33.952,514.275 33.893,514.333 33.821,514.333 L 32.107,514.333 L 32.107,514.333 z M 35.079,514.334 C 35.007,514.333 34.948,514.274 34.948,514.202 L 34.948,513.164 C 34.949,513.092 35.007,513.032 35.078,513.033 L 36.794,513.034 C 36.867,513.033 36.926,513.092 36.925,513.164 L 36.924,514.203 C 36.925,514.276 36.866,514.334 36.794,514.334 L 35.079,514.334 z M 38.052,514.334 C 37.979,514.334 37.921,514.276 37.921,514.203 L 37.921,513.164 C 37.921,513.092 37.98,513.034 38.052,513.033 L 39.767,513.034 C 39.839,513.035 39.897,513.093 39.898,513.164 L 39.898,514.203 C 39.898,514.276 39.839,514.333 39.767,514.334 L 38.052,514.334 z M 41.023,514.335 C 40.952,514.336 40.893,514.276 40.893,514.203 L 40.893,513.166 C 40.893,513.092 40.952,513.034 41.024,513.033 L 42.74,513.034 C 42.811,513.035 42.869,513.093 42.87,513.166 L 42.87,514.205 C 42.869,514.277 42.811,514.335 42.739,514.336 L 41.023,514.335 z M 43.995,514.337 C 43.924,514.336 43.866,514.276 43.867,514.205 L 43.866,513.168 C 43.866,513.094 43.924,513.036 43.999,513.035 L 45.714,513.034 C 45.784,513.035 45.843,513.095 45.843,513.166 L 45.843,514.205 C 45.841,514.277 45.784,514.337 45.712,514.336 L 43.995,514.337 z M 45.715,525.784 C 45.787,525.785 45.845,525.844 45.845,525.918 L 45.845,526.955 C 45.845,527.028 45.786,527.088 45.716,527.087 L 44,527.085 C 43.927,527.084 43.869,527.025 43.868,526.953 L 43.868,525.915 C 43.87,525.843 43.928,525.786 43.999,525.785 L 45.715,525.784 z M 42.742,525.784 C 42.815,525.786 42.874,525.844 42.872,525.917 L 42.874,526.954 C 42.872,527.026 42.813,527.086 42.743,527.085 L 41.027,527.084 C 40.954,527.085 40.895,527.026 40.895,526.956 L 40.895,525.914 C 40.896,525.844 40.954,525.785 41.028,525.784 L 42.742,525.784 z M 39.77,525.787 C 39.843,525.786 39.9,525.842 39.9,525.915 L 39.902,526.954 C 39.9,527.026 39.843,527.084 39.769,527.085 L 38.055,527.084 C 37.983,527.083 37.923,527.026 37.924,526.954 L 37.925,525.915 C 37.925,525.843 37.984,525.783 38.056,525.784 L 39.77,525.787 z M 36.797,525.783 C 36.87,525.784 36.928,525.842 36.929,525.913 L 36.929,526.952 C 36.927,527.024 36.868,527.084 36.798,527.083 L 35.082,527.085 C 35.01,527.083 34.952,527.025 34.95,526.954 L 34.95,525.915 C 34.95,525.842 35.009,525.783 35.082,525.784 L 36.797,525.783 z M 33.824,525.781 C 33.897,525.782 33.955,525.843 33.954,525.913 L 33.955,526.952 C 33.954,527.024 33.895,527.084 33.823,527.083 L 32.109,527.083 C 32.037,527.084 31.978,527.023 31.978,526.952 L 31.979,525.913 C 31.977,525.84 32.037,525.783 32.11,525.782 L 33.824,525.781 z M 30.853,525.781 C 30.925,525.782 30.983,525.841 30.982,525.913 L 30.984,526.951 C 30.984,527.023 30.923,527.082 30.853,527.081 L 29.136,527.083 C 29.064,527.081 29.007,527.023 29.005,526.95 L 29.006,525.911 C 29.007,525.841 29.066,525.781 29.137,525.782 L 30.853,525.781 z M 27.88,525.781 C 27.952,525.782 28.009,525.839 28.011,525.911 L 28.01,526.95 C 28.009,527.023 27.952,527.081 27.878,527.081 L 26.164,527.081 C 26.092,527.08 26.032,527.023 26.034,526.949 L 26.034,525.911 C 26.034,525.839 26.093,525.779 26.163,525.78 L 27.88,525.781 z M 24.907,525.779 C 24.979,525.781 25.037,525.839 25.036,525.911 L 25.036,526.95 C 25.037,527.023 24.979,527.081 24.906,527.082 L 23.192,527.079 C 23.118,527.08 23.059,527.021 23.061,526.949 L 23.059,525.911 C 23.061,525.839 23.12,525.78 23.191,525.781 L 24.907,525.779 z M 21.935,525.779 C 22.007,525.779 22.065,525.839 22.066,525.91 L 22.066,526.949 C 22.064,527.021 22.007,527.079 21.933,527.08 L 20.22,527.079 C 20.148,527.08 20.087,527.021 20.089,526.949 L 20.089,525.908 C 20.089,525.837 20.147,525.78 20.218,525.779 L 21.935,525.779 L 21.935,525.779 z M 18.962,525.778 C 19.034,525.777 19.092,525.837 19.091,525.91 L 19.092,526.949 C 19.091,527.019 19.032,527.079 18.962,527.078 L 17.247,527.079 C 17.173,527.08 17.116,527.02 17.114,526.947 L 17.116,525.908 C 17.115,525.837 17.175,525.778 17.247,525.777 L 18.962,525.778 z M 15.989,525.778 C 16.061,525.777 16.12,525.835 16.12,525.908 L 16.119,526.947 C 16.118,527.019 16.061,527.077 15.987,527.078 L 14.273,527.077 C 14.2,527.078 14.143,527.02 14.142,526.947 L 14.141,525.908 C 14.143,525.836 14.202,525.776 14.274,525.777 L 15.989,525.778 z M 13.017,525.778 C 13.089,525.777 13.147,525.835 13.146,525.908 L 13.147,526.947 C 13.146,527.017 13.089,527.077 13.016,527.078 L 11.302,527.078 C 11.229,527.076 11.171,527.018 11.171,526.945 L 11.171,525.906 C 11.17,525.835 11.23,525.776 11.302,525.777 L 13.017,525.778 z M 10.045,525.774 C 10.117,525.775 10.173,525.835 10.175,525.908 L 10.174,526.945 C 10.175,527.018 10.115,527.077 10.044,527.076 L 8.328,527.076 C 8.255,527.076 8.198,527.018 8.198,526.946 L 8.198,525.906 C 8.197,525.836 8.257,525.776 8.329,525.775 L 10.045,525.774 z M 2.383,527.074 C 2.312,527.075 2.251,527.016 2.252,526.944 L 2.251,525.904 C 2.253,525.832 2.311,525.774 2.384,525.774 L 4.099,525.774 C 4.171,525.775 4.23,525.832 4.23,525.904 L 4.23,526.944 C 4.228,527.016 4.17,527.076 4.099,527.075 L 2.383,527.074 z M 5.226,525.906 C 5.226,525.832 5.283,525.776 5.356,525.775 L 7.07,525.776 C 7.144,525.775 7.202,525.834 7.201,525.906 L 7.203,526.944 C 7.203,527.016 7.144,527.076 7.072,527.075 L 5.357,527.076 C 5.285,527.075 5.226,527.016 5.224,526.943 L 5.226,525.906 z "
         i:knockout="Off" />
    </g>
    <path
       style="fill:url(#XMLID_205_)"
       id="path22946"
       d="M 33.311039,29.145247 C 33.18814,29.144306 33.088334,29.008174 33.087996,28.837894 L 33.060774,16.094903 C 33.062469,15.924614 33.160716,15.786326 33.283611,15.785858 L 46.575658,15.736823 C 46.698548,15.733542 46.798357,15.872486 46.799707,16.03995 L 46.823886,28.785766 C 46.824222,28.956047 46.72496,29.094341 46.604095,29.0948 L 33.311039,29.145247 z "
       i:knockout="Off" />
    <path
       style="fill:url(#XMLID_206_)"
       id="path22953"
       d="M 17.494041,29.203863 C 17.371147,29.20433 17.273373,29.068193 17.273034,28.896506 L 17.24581,16.153514 C 17.245478,15.986046 17.344736,15.844939 17.467632,15.844474 L 30.760693,15.795434 C 30.88359,15.794966 30.983397,15.932504 30.982716,16.101383 L 31.008931,28.848598 C 31.009263,29.016065 30.909996,29.152948 30.788119,29.154818 L 17.494041,29.203863 z "
       i:knockout="Off" />
    <path
       style="fill:url(#XMLID_207_)"
       id="path22960"
       d="M 1.6821268,29.262463 C 1.5572047,29.265751 1.4584157,29.129618 1.4590891,28.956517 L 1.4318635,16.212119 C 1.4315275,16.04184 1.5307968,15.907768 1.6547035,15.904482 L 14.946749,15.855448 C 15.069646,15.854983 15.168435,15.991113 15.168771,16.161396 L 15.194978,28.904389 C 15.195314,29.074671 15.096054,29.212963 14.973157,29.213428 L 1.6821268,29.262463 z "
       i:knockout="Off" />
    <path
       style="fill:url(#linearGradient40239);fill-opacity:1;fill-rule:evenodd;stroke:none;stroke-width:1px;stroke-linecap:butt;stroke-linejoin:miter;stroke-opacity:1"
       d="M 22.309285,20.723637 L 15.555202,27.477721 L 18.932243,30.854763 L 25.686328,24.100679 L 22.309285,20.723637 z "
       id="path27820" />
    <path
       sodipodi:type="arc"
       style="opacity:1;color:#000000;fill:#000000;fill-opacity:1;fill-rule:nonzero;stroke:none;stroke-width:2;stroke-linecap:square;stroke-linejoin:miter;marker:none;marker-start:none;marker-mid:none;marker-end:none;stroke-miterlimit:4;stroke-dasharray:none;stroke-dashoffset:0;stroke-opacity:1;visibility:visible;display:inline;overflow:visible;enable-background:accumulate"
       id="path27818"
       sodipodi:cx="38.364639"
       sodipodi:cy="9.9889507"
       sodipodi:rx="9.4585638"
       sodipodi:ry="9.4585638"
       d="M 47.823203 9.9889507 A 9.4585638 9.4585638 0 1 1  28.906075,9.9889507 A 9.4585638 9.4585638 0 1 1  47.823203 9.9889507 z"
       transform="matrix(0.2536163,0,0,0.2536163,14.274572,19.86547)" />
    <path
       style="fill:url(#linearGradient40237);fill-opacity:1;fill-rule:evenodd;stroke:none;stroke-width:1px;stroke-linecap:butt;stroke-linejoin:miter;stroke-opacity:1"
       d="M 22.721976,20.964854 L 17.275707,26.411123 L 19.998841,29.134258 L 25.44511,23.687989 L 22.721976,20.964854 z "
       id="path27840" />
    <path
       sodipodi:type="arc"
       style="opacity:1;color:#000000;fill:url(#radialGradient40235);fill-opacity:1;fill-rule:nonzero;stroke:none;stroke-width:2;stroke-linecap:square;stroke-linejoin:miter;marker:none;marker-start:none;marker-mid:none;marker-end:none;stroke-miterlimit:4;stroke-dasharray:none;stroke-dashoffset:0;stroke-opacity:1;visibility:visible;display:inline;overflow:visible;enable-background:accumulate"
       id="path27838"
       sodipodi:cx="38.364639"
       sodipodi:cy="9.9889507"
       sodipodi:rx="9.4585638"
       sodipodi:ry="9.4585638"
       d="M 47.823203 9.9889507 A 9.4585638 9.4585638 0 1 1  28.906075,9.9889507 A 9.4585638 9.4585638 0 1 1  47.823203 9.9889507 z"
       transform="matrix(0.2062746,0,0,0.2062746,16.097483,20.338364)" />
    <path
       style="color:#000000;fill:url(#linearGradient40233);fill-opacity:1;fill-rule:nonzero;stroke:none;stroke-width:2;stroke-linecap:square;stroke-linejoin:miter;marker:none;marker-start:none;marker-mid:none;marker-end:none;stroke-miterlimit:4;stroke-dashoffset:0;stroke-opacity:1;visibility:visible;display:inline;overflow:visible;enable-background:accumulate"
       d="M 23.769082,21.790892 L 17.794831,27.960155 L 17.115102,27.301912 L 23.089353,21.132649 C 23.447711,21.045855 23.770753,21.114982 23.769082,21.790892 z "
       id="rect27860"
       sodipodi:nodetypes="ccccc" />
    <path
       style="fill:url(#linearGradient40219);fill-opacity:1;fill-rule:evenodd;stroke:none;stroke-width:1px;stroke-linecap:butt;stroke-linejoin:miter;stroke-opacity:1"
       d="M 42.346601,16.868859 L 35.592518,23.622943 L 38.969559,26.999985 L 45.723644,20.245901 L 42.346601,16.868859 z "
       id="path40209" />
    <path
       sodipodi:type="arc"
       style="opacity:1;color:#000000;fill:#000000;fill-opacity:1;fill-rule:nonzero;stroke:none;stroke-width:2;stroke-linecap:square;stroke-linejoin:miter;marker:none;marker-start:none;marker-mid:none;marker-end:none;stroke-miterlimit:4;stroke-dasharray:none;stroke-dashoffset:0;stroke-opacity:1;visibility:visible;display:inline;overflow:visible;enable-background:accumulate"
       id="path40211"
       sodipodi:cx="38.364639"
       sodipodi:cy="9.9889507"
       sodipodi:rx="9.4585638"
       sodipodi:ry="9.4585638"
       d="M 47.823203 9.9889507 A 9.4585638 9.4585638 0 1 1  28.906075,9.9889507 A 9.4585638 9.4585638 0 1 1  47.823203 9.9889507 z"
       transform="matrix(0.2536163,0,0,0.2536163,34.311888,16.010692)" />
    <path
       style="fill:url(#linearGradient40221);fill-opacity:1;fill-rule:evenodd;stroke:none;stroke-width:1px;stroke-linecap:butt;stroke-linejoin:miter;stroke-opacity:1"
       d="M 42.759292,17.110076 L 37.313023,22.556345 L 40.036157,25.27948 L 45.482426,19.833211 L 42.759292,17.110076 z "
       id="path40213" />
    <path
       sodipodi:type="arc"
       style="opacity:1;color:#000000;fill:url(#radialGradient40223);fill-opacity:1;fill-rule:nonzero;stroke:none;stroke-width:2;stroke-linecap:square;stroke-linejoin:miter;marker:none;marker-start:none;marker-mid:none;marker-end:none;stroke-miterlimit:4;stroke-dasharray:none;stroke-dashoffset:0;stroke-opacity:1;visibility:visible;display:inline;overflow:visible;enable-background:accumulate"
       id="path40215"
       sodipodi:cx="38.364639"
       sodipodi:cy="9.9889507"
       sodipodi:rx="9.4585638"
       sodipodi:ry="9.4585638"
       d="M 47.823203 9.9889507 A 9.4585638 9.4585638 0 1 1  28.906075,9.9889507 A 9.4585638 9.4585638 0 1 1  47.823203 9.9889507 z"
       transform="matrix(0.2062746,0,0,0.2062746,36.134799,16.483586)" />
    <path
       style="color:#000000;fill:url(#linearGradient40225);fill-opacity:1;fill-rule:nonzero;stroke:none;stroke-width:2;stroke-linecap:square;stroke-linejoin:miter;marker:none;marker-start:none;marker-mid:none;marker-end:none;stroke-miterlimit:4;stroke-dashoffset:0;stroke-opacity:1;visibility:visible;display:inline;overflow:visible;enable-background:accumulate"
       d="M 43.806398,17.936114 L 37.832147,24.105377 L 37.152418,23.447134 L 43.126669,17.277871 C 43.485027,17.191077 43.808069,17.260204 43.806398,17.936114 z "
       id="path40217"
       sodipodi:nodetypes="ccccc" />
    <path
       sodipodi:type="arc"
       style="opacity:1;color:#000000;fill:#000000;fill-opacity:1;fill-rule:nonzero;stroke:none;stroke-width:2;stroke-linecap:square;stroke-linejoin:miter;marker:none;marker-start:none;marker-mid:none;marker-end:none;stroke-miterlimit:4;stroke-dasharray:none;stroke-dashoffset:0;stroke-opacity:1;visibility:visible;display:inline;overflow:visible;enable-background:accumulate"
       id="path40227"
       sodipodi:cx="38.364639"
       sodipodi:cy="9.9889507"
       sodipodi:rx="9.4585638"
       sodipodi:ry="9.4585638"
       d="M 47.823203 9.9889507 A 9.4585638 9.4585638 0 1 1  28.906075,9.9889507 A 9.4585638 9.4585638 0 1 1  47.823203 9.9889507 z"
       transform="matrix(0.2536163,0,0,0.2536163,-5.1287438,23.86547)" />
    <path
       sodipodi:type="arc"
       style="opacity:1;color:#000000;fill:url(#radialGradient40231);fill-opacity:1;fill-rule:nonzero;stroke:none;stroke-width:2;stroke-linecap:square;stroke-linejoin:miter;marker:none;marker-start:none;marker-mid:none;marker-end:none;stroke-miterlimit:4;stroke-dasharray:none;stroke-dashoffset:0;stroke-opacity:1;visibility:visible;display:inline;overflow:visible;enable-background:accumulate"
       id="path40229"
       sodipodi:cx="38.364639"
       sodipodi:cy="9.9889507"
       sodipodi:rx="9.4585638"
       sodipodi:ry="9.4585638"
       d="M 47.823203 9.9889507 A 9.4585638 9.4585638 0 1 1  28.906075,9.9889507 A 9.4585638 9.4585638 0 1 1  47.823203 9.9889507 z"
       transform="matrix(0.2062746,0,0,0.2062746,-3.3058328,24.338364)" />
  </g>
</svg>
