<?xml version="1.0" encoding="UTF-8" standalone="no"?>
<!-- Created with Inkscape (http://www.inkscape.org/) -->
<svg
   xmlns:a="http://ns.adobe.com/AdobeSVGViewerExtensions/3.0/"
   xmlns:i="http://ns.adobe.com/AdobeIllustrator/10.0/"
   xmlns:dc="http://purl.org/dc/elements/1.1/"
   xmlns:cc="http://web.resource.org/cc/"
   xmlns:rdf="http://www.w3.org/1999/02/22-rdf-syntax-ns#"
   xmlns:svg="http://www.w3.org/2000/svg"
   xmlns="http://www.w3.org/2000/svg"
   xmlns:sodipodi="http://sodipodi.sourceforge.net/DTD/sodipodi-0.dtd"
   xmlns:inkscape="http://www.inkscape.org/namespaces/inkscape"
   width="48px"
   height="48px"
   id="svg25766"
   sodipodi:version="0.32"
   inkscape:version="0.45.1"
   sodipodi:docbase="C:\dev\src\houdini\support\icons\COP2"
   sodipodi:docname="timescale.svg"
   inkscape:output_extension="org.inkscape.output.svg.inkscape">
  <defs
     id="defs25768">
    <linearGradient
       gradientTransform="matrix(0.2328272,1.0084568,-1.0081935,0.232888,1079.9265,2601.9209)"
       y2="452.9545"
       x2="-2647.9785"
       y1="403.9458"
       x1="-2659.4692"
       gradientUnits="userSpaceOnUse"
       id="XMLID_210_">
				<stop
   id="stop22987"
   style="stop-color:#FFFFFF"
   offset="0" />

				<stop
   id="stop22989"
   style="stop-color:#B8C0CA"
   offset="1" />

				<a:midPointStop
   style="stop-color:#FFFFFF"
   offset="0" />

				<a:midPointStop
   style="stop-color:#FFFFFF"
   offset="0.5" />

				<a:midPointStop
   style="stop-color:#B8C0CA"
   offset="1" />

			</linearGradient>
    <linearGradient
       y2="11.3818"
       x2="283.2075"
       y1="29.041"
       x1="338.4155"
       gradientUnits="userSpaceOnUse"
       id="XMLID_211_"
       gradientTransform="matrix(1.0347876,0,0,1.0350578,-298.921,-1.9478977)">
				<stop
   id="stop22994"
   style="stop-color:#FFFFFF"
   offset="0" />

				<stop
   id="stop22996"
   style="stop-color:#B8C0CA"
   offset="1" />

				<a:midPointStop
   style="stop-color:#FFFFFF"
   offset="0" />

				<a:midPointStop
   style="stop-color:#FFFFFF"
   offset="0.5" />

				<a:midPointStop
   style="stop-color:#B8C0CA"
   offset="1" />

			</linearGradient>
    <linearGradient
       gradientTransform="matrix(0.2328272,1.0084568,-1.0081935,0.232888,1079.9265,2601.9209)"
       y2="462.5744"
       x2="-2663.2275"
       y1="421.1714"
       x1="-2672.9351"
       gradientUnits="userSpaceOnUse"
       id="XMLID_212_">
				<stop
   id="stop23003"
   style="stop-color:#FFFFFF"
   offset="0" />

				<stop
   id="stop23005"
   style="stop-color:#B8C0CA"
   offset="1" />

				<a:midPointStop
   style="stop-color:#FFFFFF"
   offset="0" />

				<a:midPointStop
   style="stop-color:#FFFFFF"
   offset="0.5" />

				<a:midPointStop
   style="stop-color:#B8C0CA"
   offset="1" />

			</linearGradient>
    <linearGradient
       y2="35.1211"
       x2="327.7188"
       y1="35.1211"
       x1="291.269"
       gradientUnits="userSpaceOnUse"
       id="XMLID_213_"
       gradientTransform="matrix(1.0347876,0,0,1.0350578,-298.921,-1.9478977)">
				<stop
   id="stop23014"
   style="stop-color:#CB130C"
   offset="0.0503" />

				<stop
   id="stop23016"
   style="stop-color:#E45B13"
   offset="0.3548" />

				<stop
   id="stop23018"
   style="stop-color:#EF7916"
   offset="0.5028" />

				<stop
   id="stop23020"
   style="stop-color:#CB130C"
   offset="0.9609" />

				<a:midPointStop
   style="stop-color:#CB130C"
   offset="0.0503" />

				<a:midPointStop
   style="stop-color:#CB130C"
   offset="0.4689" />

				<a:midPointStop
   style="stop-color:#EF7916"
   offset="0.5028" />

				<a:midPointStop
   style="stop-color:#EF7916"
   offset="0.5" />

				<a:midPointStop
   style="stop-color:#CB130C"
   offset="0.9609" />

			</linearGradient>
    <linearGradient
       gradientTransform="matrix(-0.5,0.866,-0.866,-0.5,824.7354,3686.6692)"
       y2="2261.8359"
       x2="-2910.6497"
       y1="2271.605"
       x1="-2905.1138"
       gradientUnits="userSpaceOnUse"
       id="XMLID_214_">
					<stop
   id="stop23027"
   style="stop-color:#F7AF3E"
   offset="0.3034" />

					<stop
   id="stop23029"
   style="stop-color:#F12523"
   offset="1" />

					<a:midPointStop
   style="stop-color:#F7AF3E"
   offset="0.3034" />

					<a:midPointStop
   style="stop-color:#F7AF3E"
   offset="0.5" />

					<a:midPointStop
   style="stop-color:#F12523"
   offset="1" />

				</linearGradient>
    <linearGradient
       gradientTransform="matrix(0.5,-0.866,0.866,0.5,-1841.7979,1216.8455)"
       y2="1261.9775"
       x2="2093.2107"
       y1="1271.7466"
       x1="2098.7466"
       gradientUnits="userSpaceOnUse"
       id="XMLID_215_">
					<stop
   id="stop23036"
   style="stop-color:#F7AF3E"
   offset="0.3034" />

					<stop
   id="stop23038"
   style="stop-color:#F12523"
   offset="1" />

					<a:midPointStop
   style="stop-color:#F7AF3E"
   offset="0.3034" />

					<a:midPointStop
   style="stop-color:#F7AF3E"
   offset="0.5" />

					<a:midPointStop
   style="stop-color:#F12523"
   offset="1" />

				</linearGradient>
  </defs>
  <sodipodi:namedview
     id="base"
     pagecolor="#ffffff"
     bordercolor="#666666"
     borderopacity="1.0"
     inkscape:pageopacity="0.0"
     inkscape:pageshadow="2"
     inkscape:zoom="7"
     inkscape:cx="24"
     inkscape:cy="24"
     inkscape:current-layer="layer1"
     showgrid="true"
     inkscape:grid-bbox="true"
     inkscape:document-units="px"
     inkscape:window-width="744"
     inkscape:window-height="573"
     inkscape:window-x="22"
     inkscape:window-y="24" />
  <metadata
     id="metadata25771">
    <rdf:RDF>
      <cc:Work
         rdf:about="">
        <dc:format>image/svg+xml</dc:format>
        <dc:type
           rdf:resource="http://purl.org/dc/dcmitype/StillImage" />
      </cc:Work>
    </rdf:RDF>
  </metadata>
  <g
     id="layer1"
     inkscape:label="Layer 1"
     inkscape:groupmode="layer">
    <g
       transform="matrix(1.0347876,0,0,1.0350578,-298.921,-1.9478977)"
       id="g22982">
				<path
   id="path22984"
   d="M 335.315,34.196 L 335.313,32.389 L 334.881,32.386 C 334.758,32.387 334.654,32.286 334.656,32.162 L 334.656,30.37 C 334.658,30.249 334.756,30.145 334.881,30.147 L 335.315,30.145 L 335.315,10.411 L 334.876,10.407 C 334.753,10.409 334.651,10.308 334.653,10.183 L 334.651,8.396 C 334.651,8.269 334.751,8.167 334.878,8.17 L 335.316,8.168 L 335.314,6.248 L 289.068,6.253 L 289.068,8.151 L 291.716,8.151 C 291.841,8.149 291.94,8.252 291.941,8.375 L 291.943,10.166 C 291.941,10.292 291.841,10.391 291.716,10.392 L 289.068,10.392 L 289.07,30.129 L 291.72,30.129 C 291.847,30.129 291.947,30.228 291.947,30.354 L 291.947,32.145 C 291.947,32.266 291.845,32.369 291.72,32.372 L 289.069,32.369 L 289.068,34.199 L 335.315,34.196 z M 293.885,10.401 C 293.756,10.397 293.657,10.297 293.656,10.172 L 293.657,8.38 C 293.658,8.256 293.758,8.156 293.882,8.158 L 296.838,8.159 C 296.963,8.158 297.063,8.258 297.065,8.383 L 297.065,10.172 C 297.065,10.297 296.963,10.399 296.84,10.399 L 293.885,10.401 z M 299.004,10.399 C 298.881,10.401 298.781,10.297 298.783,10.177 L 298.781,8.383 C 298.783,8.259 298.885,8.156 299.009,8.159 L 301.965,8.156 C 302.088,8.158 302.19,8.261 302.19,8.383 L 302.19,10.172 C 302.192,10.297 302.088,10.399 301.965,10.397 L 299.004,10.399 z M 304.133,10.401 C 304.006,10.401 303.904,10.301 303.906,10.175 L 303.906,8.383 C 303.904,8.262 304.008,8.159 304.131,8.161 L 307.086,8.159 C 307.215,8.158 307.313,8.261 307.315,8.387 L 307.313,10.175 C 307.313,10.301 307.213,10.402 307.088,10.401 L 304.133,10.401 L 304.133,10.401 z M 309.255,10.402 C 309.129,10.404 309.027,10.303 309.029,10.178 L 309.029,8.387 C 309.031,8.259 309.131,8.162 309.257,8.161 L 312.211,8.162 C 312.338,8.161 312.438,8.261 312.438,8.387 L 312.438,10.178 C 312.438,10.301 312.334,10.402 312.211,10.404 L 309.255,10.402 z M 314.379,10.402 C 314.256,10.404 314.154,10.305 314.154,10.178 L 314.156,8.387 C 314.154,8.264 314.256,8.159 314.38,8.161 L 317.34,8.159 C 317.461,8.164 317.559,8.263 317.563,8.387 L 317.563,10.178 C 317.561,10.303 317.46,10.406 317.334,10.404 L 314.379,10.402 z M 319.502,10.406 C 319.377,10.404 319.279,10.303 319.281,10.178 L 319.277,8.391 C 319.279,8.261 319.379,8.162 319.504,8.164 L 322.459,8.164 C 322.584,8.162 322.688,8.264 322.686,8.391 L 322.686,10.182 C 322.686,10.303 322.585,10.406 322.457,10.406 L 319.502,10.406 z M 324.629,10.406 C 324.504,10.407 324.402,10.303 324.404,10.182 L 324.402,8.394 C 324.404,8.264 324.505,8.166 324.627,8.163 L 327.586,8.165 C 327.707,8.167 327.809,8.269 327.809,8.39 L 327.809,10.183 C 327.811,10.308 327.709,10.407 327.582,10.407 L 324.629,10.407 L 324.629,10.406 z M 329.752,10.409 C 329.627,10.407 329.527,10.307 329.527,10.182 L 329.525,8.392 C 329.527,8.268 329.629,8.164 329.75,8.166 L 332.709,8.168 C 332.834,8.166 332.936,8.268 332.934,8.392 L 332.932,10.183 C 332.934,10.31 332.834,10.409 332.708,10.409 L 329.752,10.409 z M 332.713,30.144 C 332.84,30.145 332.94,30.245 332.941,30.368 L 332.94,32.159 C 332.938,32.283 332.836,32.387 332.714,32.385 L 329.758,32.388 C 329.633,32.385 329.532,32.285 329.529,32.163 L 329.531,30.372 C 329.529,30.245 329.631,30.144 329.758,30.145 L 332.713,30.144 z M 327.589,30.14 C 327.715,30.142 327.815,30.246 327.815,30.368 L 327.815,32.159 C 327.813,32.283 327.711,32.387 327.588,32.385 L 324.633,32.385 C 324.508,32.387 324.406,32.282 324.406,32.159 L 324.408,30.368 C 324.406,30.242 324.508,30.144 324.635,30.142 L 327.589,30.14 z M 322.467,30.14 C 322.59,30.142 322.69,30.244 322.69,30.368 L 322.692,32.157 C 322.692,32.282 322.588,32.383 322.465,32.382 L 319.508,32.385 C 319.383,32.382 319.283,32.282 319.281,32.156 L 319.283,30.365 C 319.285,30.245 319.385,30.141 319.508,30.143 L 322.467,30.14 z M 317.341,30.14 C 317.465,30.142 317.565,30.24 317.567,30.364 L 317.567,32.155 C 317.565,32.282 317.465,32.382 317.34,32.382 L 314.385,32.382 C 314.26,32.38 314.158,32.282 314.16,32.154 L 314.16,30.364 C 314.16,30.24 314.26,30.137 314.383,30.139 L 317.341,30.14 z M 312.218,30.137 C 312.342,30.14 312.442,30.24 312.44,30.364 L 312.44,32.155 C 312.442,32.282 312.342,32.382 312.216,32.383 L 309.262,32.378 C 309.134,32.38 309.033,32.278 309.035,32.154 L 309.033,30.364 C 309.035,30.24 309.137,30.139 309.26,30.14 L 312.218,30.137 z M 307.093,30.137 C 307.219,30.137 307.318,30.24 307.319,30.362 L 307.319,32.154 C 307.317,32.278 307.219,32.378 307.091,32.38 L 304.137,32.378 C 304.012,32.38 303.91,32.278 303.912,32.154 L 303.912,30.359 C 303.91,30.237 304.012,30.139 304.135,30.137 L 307.093,30.137 z M 301.969,30.135 C 302.094,30.134 302.194,30.237 302.192,30.362 L 302.194,32.154 C 302.192,32.275 302.092,32.378 301.969,32.377 L 299.012,32.378 C 298.887,32.38 298.787,32.277 298.785,32.15 L 298.787,30.359 C 298.785,30.237 298.889,30.135 299.012,30.134 L 301.969,30.135 z M 296.844,30.135 C 296.969,30.134 297.071,30.233 297.071,30.359 L 297.069,32.15 C 297.069,32.275 296.969,32.375 296.842,32.377 L 293.887,32.375 C 293.762,32.377 293.662,32.277 293.662,32.15 L 293.66,30.359 C 293.662,30.234 293.764,30.131 293.888,30.134 L 296.844,30.135 z "
   i:knockout="Off" />

			</g>
    <path
       style="fill:url(#XMLID_210_)"
       id="path22991"
       d="M 48.062932,27.456023 L 38.853322,27.456023 C 38.637052,27.454988 38.463207,27.282134 38.463207,27.065807 L 38.461138,10.910625 C 38.463207,10.694298 38.637052,10.520408 38.853322,10.520408 L 48.058793,10.522478 L 48.062932,27.456023 z "
       i:knockout="Off" />
    <path
       style="fill:url(#XMLID_211_)"
       id="path22998"
       d="M 10.042766,27.454988 C 9.8264953,27.454988 9.6547206,27.282134 9.6547206,27.064772 L 9.652651,10.90752 C 9.652651,10.695333 9.8244258,10.517303 10.042766,10.517303 L 35.458184,10.519373 C 35.674455,10.519373 35.849334,10.693263 35.84623,10.90752 L 35.848299,27.068912 C 35.848299,27.281099 35.674455,27.453953 35.460254,27.454988 L 10.042766,27.454988 z "
       i:knockout="Off" />
    <path
       style="fill:#ec2628"
       id="path23000"
       d="M 10.076914,27.454988 C 9.8399476,27.454988 9.6547206,27.283169 9.6547206,27.064772 L 9.652651,10.90752 C 9.652651,10.695333 9.8409824,10.517303 10.076914,10.517303 L 35.425071,10.519373 C 35.658933,10.519373 35.849334,10.693263 35.845195,10.90752 L 35.845195,27.069947 C 35.845195,27.282134 35.657898,27.453953 35.425071,27.456023 L 10.076914,27.454988 z "
       i:knockout="Off" />
    <path
       style="fill:url(#XMLID_212_)"
       id="path23007"
       d="M 0.2019362,10.517303 L 6.6486627,10.519373 C 6.8649333,10.519373 7.0367081,10.691193 7.0367081,10.90752 L 7.0367081,27.064772 C 7.0377428,27.281099 6.8628637,27.454988 6.6486627,27.454988 L 0.2019362,27.452918 L 0.2019362,10.517303 z "
       i:knockout="Off" />
    <path
       style="opacity:0.6;fill:#ed2728"
       id="path23009"
       d="M 3.3187163,27.454988 C 2.9865495,27.454988 2.7237135,27.282134 2.7237135,27.064772 L 2.7226787,10.908555 C 2.7206091,10.696368 2.9855147,10.518338 3.3166467,10.518338 L 42.184304,10.520408 C 42.514401,10.520408 42.780341,10.694298 42.776202,10.908555 L 42.778272,27.069947 C 42.778272,27.282134 42.513366,27.454988 42.186373,27.456023 L 3.3187163,27.454988 z "
       a:adobe-blending-mode="multiply"
       i:knockout="Off" />
    <path
       style="fill:none;stroke:#ffffff;stroke-width:3"
       id="path23011"
       d="M 30.948581,38.48146 L 30.946511,43.101958 C 30.946511,43.306899 31.115182,43.473544 31.322139,43.474579 C 31.423548,43.477684 31.515645,43.435247 31.583941,43.361757 L 41.402005,34.935352 C 41.693815,34.64036 41.693815,34.168374 41.402005,33.877523 L 31.591184,25.446977 C 31.522888,25.376593 31.428722,25.333121 31.321104,25.336226 C 31.114147,25.334156 30.947546,25.5008 30.948581,25.707812 L 30.947546,30.33452 L 11.732575,30.326239 L 11.73361,25.704706 C 11.73361,25.501835 11.56494,25.334156 11.357982,25.334156 C 11.257608,25.331051 11.164477,25.373488 11.096181,25.445942 L 1.2781154,33.873383 C 0.98733999,34.166304 0.98837478,34.639325 1.2801849,34.930177 L 11.092042,43.358652 C 11.158268,43.430071 11.254503,43.474579 11.359017,43.473544 C 11.565974,43.473544 11.732575,43.307934 11.732575,43.100923 L 11.73154,38.47732 L 30.948581,38.48146 z "
       i:knockout="Off" />
    <path
       style="fill:url(#XMLID_213_);stroke:#590c08;stroke-width:0.5"
       id="path23022"
       d="M 21.340578,38.480425 L 30.948581,38.48146 L 30.946511,43.101958 C 30.946511,43.306899 31.115182,43.473544 31.322139,43.474579 C 31.423548,43.477684 31.515645,43.435247 31.583941,43.361757 L 41.402005,34.935352 C 41.693815,34.64036 41.693815,34.168374 41.402005,33.877523 L 31.591184,25.446977 C 31.522888,25.376593 31.428722,25.333121 31.321104,25.336226 C 31.114147,25.334156 30.947546,25.5008 30.948581,25.707812 L 30.947546,30.33452 L 21.340578,30.329345 L 11.732575,30.326239 L 11.73361,25.704706 C 11.73361,25.501835 11.56494,25.334156 11.357982,25.334156 C 11.257608,25.331051 11.164477,25.373488 11.096181,25.445942 L 1.2781154,33.873383 C 0.98733999,34.166304 0.98837478,34.639325 1.2801849,34.930177 L 11.092042,43.358652 C 11.158268,43.430071 11.254503,43.474579 11.359017,43.473544 C 11.565974,43.473544 11.732575,43.307934 11.732575,43.100923 L 11.73154,38.47732 L 21.339543,38.478355 L 21.340578,38.480425 z "
       i:knockout="Off" />
    <g
       transform="matrix(1.0347876,0,0,1.0350578,-298.921,-1.9478977)"
       id="g23024"
       i:knockout="Off">
				
					<linearGradient
   gradientTransform="matrix(-0.5,0.866,-0.866,-0.5,824.7354,3686.6692)"
   y2="2261.8359"
   x2="-2910.6497"
   y1="2271.605"
   x1="-2905.1138"
   gradientUnits="userSpaceOnUse"
   id="linearGradient25804">
					<stop
   id="stop25806"
   style="stop-color:#F7AF3E"
   offset="0.3034" />

					<stop
   id="stop25808"
   style="stop-color:#F12523"
   offset="1" />

					<a:midPointStop
   style="stop-color:#F7AF3E"
   offset="0.3034" />

					<a:midPointStop
   style="stop-color:#F7AF3E"
   offset="0.5" />

					<a:midPointStop
   style="stop-color:#F12523"
   offset="1" />

				</linearGradient>

				<path
   style="fill:url(#XMLID_214_)"
   id="path23031"
   d="M 328.849,34.968 L 319.229,26.629 C 319.229,26.629 319.016,26.506 319.016,26.688 L 319.016,31.424 C 318.194,31.424 309.495,31.422 309.495,31.422 L 309.495,32.363 L 319.96,32.368 C 319.96,32.368 319.96,29.752 319.961,28.819 C 321.17,30.136 327.253,34.581 327.72,35.091 C 327.253,35.603 321.172,40.077 319.958,41.404 C 319.961,40.48 319.962,37.878 319.962,37.878 L 309.495,37.876 L 309.494,38.822 L 319.016,38.823 L 319.016,43.382 C 319.027,43.912 319.383,43.439 319.383,43.439 L 328.813,35.324 L 328.849,34.968 z "
   i:knockout="Off" />

			</g>
    <g
       transform="matrix(1.0347876,0,0,1.0350578,-298.921,-1.9478977)"
       id="g23033"
       i:knockout="Off">
				
					<linearGradient
   gradientTransform="matrix(0.5,-0.866,0.866,0.5,-1841.7979,1216.8455)"
   y2="1261.9775"
   x2="2093.2107"
   y1="1271.7466"
   x1="2098.7466"
   gradientUnits="userSpaceOnUse"
   id="linearGradient25812">
					<stop
   id="stop25814"
   style="stop-color:#F7AF3E"
   offset="0.3034" />

					<stop
   id="stop25816"
   style="stop-color:#F12523"
   offset="1" />

					<a:midPointStop
   style="stop-color:#F7AF3E"
   offset="0.3034" />

					<a:midPointStop
   style="stop-color:#F7AF3E"
   offset="0.5" />

					<a:midPointStop
   style="stop-color:#F12523"
   offset="1" />

				</linearGradient>

				<path
   style="fill:url(#XMLID_215_)"
   id="path23040"
   d="M 290.14,35.274 L 299.76,43.611 C 299.76,43.611 299.973,43.737 299.973,43.554 L 299.973,38.818 C 300.796,38.818 309.494,38.82 309.494,38.82 L 309.493,37.877 L 299.03,37.874 C 299.03,37.874 299.029,40.488 299.029,41.42 C 297.818,40.106 291.737,35.661 291.268,35.149 C 291.736,34.638 297.818,30.167 299.029,28.836 C 299.029,29.761 299.028,32.364 299.028,32.364 L 309.494,32.364 L 309.494,31.42 L 299.973,31.419 L 299.973,26.86 C 299.96,26.33 299.605,26.801 299.605,26.801 L 290.175,34.918 L 290.14,35.274 z "
   i:knockout="Off" />

			</g>
  </g>
</svg>
