<?xml version="1.0" encoding="UTF-8" standalone="no"?>
<!-- Created with Inkscape (http://www.inkscape.org/) -->
<svg
   xmlns:a="http://ns.adobe.com/AdobeSVGViewerExtensions/3.0/"
   xmlns:i="http://ns.adobe.com/AdobeIllustrator/10.0/"
   xmlns:dc="http://purl.org/dc/elements/1.1/"
   xmlns:cc="http://web.resource.org/cc/"
   xmlns:rdf="http://www.w3.org/1999/02/22-rdf-syntax-ns#"
   xmlns:svg="http://www.w3.org/2000/svg"
   xmlns="http://www.w3.org/2000/svg"
   xmlns:sodipodi="http://sodipodi.sourceforge.net/DTD/sodipodi-0.dtd"
   xmlns:inkscape="http://www.inkscape.org/namespaces/inkscape"
   width="48px"
   height="48px"
   id="svg25911"
   sodipodi:version="0.32"
   inkscape:version="0.45.1"
   sodipodi:docbase="C:\dev\src\houdini\support\icons\COP2"
   sodipodi:docname="timewarp.svg"
   inkscape:output_extension="org.inkscape.output.svg.inkscape">
  <defs
     id="defs25913">
    <linearGradient
       y2="181.1095"
       x2="290.4155"
       y1="193.9854"
       x1="336.1196"
       gradientUnits="userSpaceOnUse"
       id="XMLID_237_"
       gradientTransform="matrix(1.0531288,0,0,1.0531288,-304.5975,-178.22353)">
				<stop
   id="stop23369"
   style="stop-color:#FFFFFF"
   offset="0" />

				<stop
   id="stop23371"
   style="stop-color:#B8C0CA"
   offset="1" />

				<a:midPointStop
   style="stop-color:#FFFFFF"
   offset="0" />

				<a:midPointStop
   style="stop-color:#FFFFFF"
   offset="0.5" />

				<a:midPointStop
   style="stop-color:#B8C0CA"
   offset="1" />

			</linearGradient>
    <linearGradient
       y2="186.9835"
       x2="288.7574"
       y1="199.8599"
       x1="334.4634"
       gradientUnits="userSpaceOnUse"
       id="XMLID_238_"
       gradientTransform="matrix(1.0531288,0,0,1.0531288,-304.5975,-178.22353)">
				<stop
   id="stop23376"
   style="stop-color:#FFFFFF"
   offset="0" />

				<stop
   id="stop23378"
   style="stop-color:#B8C0CA"
   offset="1" />

				<a:midPointStop
   style="stop-color:#FFFFFF"
   offset="0" />

				<a:midPointStop
   style="stop-color:#FFFFFF"
   offset="0.5" />

				<a:midPointStop
   style="stop-color:#B8C0CA"
   offset="1" />

			</linearGradient>
    <linearGradient
       y2="189.9414"
       x2="287.924"
       y1="202.8179"
       x1="333.6304"
       gradientUnits="userSpaceOnUse"
       id="XMLID_239_"
       gradientTransform="matrix(1.0531288,0,0,1.0531288,-304.5975,-178.22353)">
				<stop
   id="stop23383"
   style="stop-color:#FFFFFF"
   offset="0" />

				<stop
   id="stop23385"
   style="stop-color:#B8C0CA"
   offset="1" />

				<a:midPointStop
   style="stop-color:#FFFFFF"
   offset="0" />

				<a:midPointStop
   style="stop-color:#FFFFFF"
   offset="0.5" />

				<a:midPointStop
   style="stop-color:#B8C0CA"
   offset="1" />

			</linearGradient>
    <linearGradient
       y2="183.6922"
       x2="289.6859"
       y1="196.5684"
       x1="335.3911"
       gradientUnits="userSpaceOnUse"
       id="XMLID_240_"
       gradientTransform="matrix(1.0531288,0,0,1.0531288,-304.5975,-178.22353)">
				<stop
   id="stop23390"
   style="stop-color:#FFFFFF"
   offset="0" />

				<stop
   id="stop23392"
   style="stop-color:#B8C0CA"
   offset="1" />

				<a:midPointStop
   style="stop-color:#FFFFFF"
   offset="0" />

				<a:midPointStop
   style="stop-color:#FFFFFF"
   offset="0.5" />

				<a:midPointStop
   style="stop-color:#B8C0CA"
   offset="1" />

			</linearGradient>
    <linearGradient
       y2="179.7461"
       x2="290.7931"
       y1="192.624"
       x1="336.5044"
       gradientUnits="userSpaceOnUse"
       id="XMLID_241_"
       gradientTransform="matrix(1.0531288,0,0,1.0531288,-304.5975,-178.22353)">
				<stop
   id="stop23397"
   style="stop-color:#FFFFFF"
   offset="0" />

				<stop
   id="stop23399"
   style="stop-color:#B8C0CA"
   offset="1" />

				<a:midPointStop
   style="stop-color:#FFFFFF"
   offset="0" />

				<a:midPointStop
   style="stop-color:#FFFFFF"
   offset="0.5" />

				<a:midPointStop
   style="stop-color:#B8C0CA"
   offset="1" />

			</linearGradient>
  </defs>
  <sodipodi:namedview
     id="base"
     pagecolor="#ffffff"
     bordercolor="#666666"
     borderopacity="1.0"
     inkscape:pageopacity="0.0"
     inkscape:pageshadow="2"
     inkscape:zoom="7"
     inkscape:cx="24"
     inkscape:cy="24"
     inkscape:current-layer="layer1"
     showgrid="true"
     inkscape:grid-bbox="true"
     inkscape:document-units="px"
     inkscape:window-width="744"
     inkscape:window-height="573"
     inkscape:window-x="66"
     inkscape:window-y="72" />
  <metadata
     id="metadata25916">
    <rdf:RDF>
      <cc:Work
         rdf:about="">
        <dc:format>image/svg+xml</dc:format>
        <dc:type
           rdf:resource="http://purl.org/dc/dcmitype/StillImage" />
      </cc:Work>
    </rdf:RDF>
  </metadata>
  <g
     id="layer1"
     inkscape:label="Layer 1"
     inkscape:groupmode="layer">
    <g
       transform="matrix(1.0531288,0,0,1.0531288,-304.5975,-178.22353)"
       id="g23364">
				<path
   id="path23366"
   d="M 334.942,202.718 L 334.94,201.297 L 333.245,201.295 C 333.147,201.296 333.067,201.217 333.069,201.119 L 333.067,199.708 C 333.069,199.612 333.147,199.532 333.245,199.533 L 334.942,199.532 L 334.942,184.002 L 333.241,184.002 C 333.143,184.003 333.063,183.924 333.065,183.826 L 333.063,182.42 C 333.063,182.32 333.141,182.239 333.241,182.243 L 334.942,182.24 L 334.94,180.73 L 289.232,180.739 L 289.232,182.233 L 291.217,182.233 C 291.315,182.231 291.393,182.312 291.393,182.409 L 291.395,183.817 C 291.393,183.917 291.315,183.993 291.217,183.996 L 289.231,183.996 L 289.235,199.523 L 291.22,199.523 C 291.32,199.523 291.399,199.601 291.397,199.701 L 291.399,201.11 C 291.397,201.206 291.318,201.286 291.219,201.287 L 289.233,201.286 L 289.231,202.725 L 334.942,202.718 z M 292.924,183.998 C 292.824,183.996 292.744,183.918 292.744,183.818 L 292.744,182.41 C 292.746,182.311 292.824,182.233 292.922,182.234 L 295.246,182.235 C 295.348,182.234 295.424,182.312 295.426,182.412 L 295.426,183.818 C 295.426,183.918 295.346,183.997 295.25,183.997 L 292.924,183.998 z M 296.954,183.997 C 296.856,183.998 296.778,183.918 296.778,183.822 L 296.778,182.412 C 296.78,182.314 296.858,182.233 296.957,182.235 L 299.283,182.233 C 299.379,182.234 299.458,182.317 299.458,182.412 L 299.458,183.818 C 299.46,183.918 299.379,183.997 299.282,183.996 L 296.954,183.997 z M 300.987,183.998 C 300.887,183.998 300.807,183.921 300.809,183.821 L 300.809,182.412 C 300.808,182.317 300.889,182.235 300.987,182.238 L 303.311,182.235 C 303.413,182.234 303.489,182.316 303.491,182.415 L 303.489,183.821 C 303.49,183.921 303.411,184 303.313,183.998 L 300.987,183.998 L 300.987,183.998 z M 305.018,184 C 304.918,184.002 304.838,183.922 304.84,183.824 L 304.84,182.415 C 304.842,182.314 304.918,182.239 305.018,182.238 L 307.344,182.239 C 307.442,182.238 307.521,182.316 307.521,182.415 L 307.521,183.824 C 307.521,183.921 307.44,184 307.342,184.002 L 305.018,184 z M 309.049,184 C 308.951,184.002 308.871,183.923 308.871,183.824 L 308.873,182.415 C 308.871,182.318 308.951,182.235 309.049,182.238 L 311.378,182.235 C 311.473,182.24 311.551,182.318 311.553,182.415 L 311.553,183.824 C 311.551,183.922 311.473,184.003 311.373,184.002 L 309.049,184 z M 313.08,184.002 C 312.981,184.001 312.905,183.921 312.905,183.823 L 312.903,182.416 C 312.905,182.315 312.982,182.237 313.081,182.239 L 315.406,182.239 C 315.505,182.238 315.585,182.317 315.585,182.416 L 315.585,183.825 C 315.585,183.921 315.505,184.002 315.405,184.002 L 313.08,184.002 L 313.08,184.002 z M 317.114,184.002 C 317.014,184.003 316.934,183.921 316.936,183.825 L 316.934,182.419 C 316.937,182.317 317.016,182.24 317.112,182.238 L 319.44,182.239 C 319.536,182.24 319.616,182.319 319.616,182.415 L 319.616,183.825 C 319.616,183.924 319.537,184.002 319.438,184.002 L 317.114,184.002 L 317.114,184.002 z M 321.144,184.005 C 321.045,184.003 320.967,183.924 320.967,183.825 L 320.965,182.417 C 320.967,182.319 321.047,182.239 321.143,182.24 L 323.471,182.241 C 323.569,182.24 323.649,182.319 323.647,182.417 L 323.645,183.826 C 323.647,183.927 323.569,184.005 323.469,184.005 L 321.144,184.005 z M 325.176,184.005 C 325.076,184.005 324.996,183.927 324.998,183.826 L 324.996,182.417 C 324.998,182.319 325.077,182.241 325.176,182.24 L 327.501,182.241 C 327.6,182.243 327.677,182.32 327.68,182.417 L 327.678,183.826 C 327.678,183.927 327.6,184.003 327.5,184.005 L 325.176,184.005 z M 329.206,184.006 C 329.108,184.007 329.03,183.927 329.03,183.826 L 329.03,182.421 C 329.03,182.319 329.11,182.241 329.208,182.24 L 331.535,182.241 C 331.632,182.243 331.71,182.32 331.71,182.421 L 331.71,183.83 C 331.71,183.928 331.632,184.006 331.534,184.007 L 329.206,184.006 z M 331.538,199.534 C 331.636,199.536 331.716,199.614 331.714,199.713 L 331.716,201.12 C 331.714,201.218 331.636,201.299 331.538,201.298 L 329.212,201.296 C 329.112,201.298 329.032,201.218 329.033,201.123 L 329.033,199.71 C 329.034,199.614 329.114,199.535 329.212,199.534 L 331.538,199.534 z M 327.506,199.537 C 327.604,199.536 327.682,199.611 327.682,199.711 L 327.684,201.12 C 327.682,201.218 327.604,201.296 327.504,201.298 L 325.18,201.296 C 325.082,201.295 325,201.218 325.002,201.12 L 325.002,199.711 C 325.002,199.613 325.082,199.531 325.18,199.534 L 327.506,199.537 z M 323.474,199.531 C 323.573,199.534 323.651,199.611 323.653,199.709 L 323.653,201.117 C 323.651,201.215 323.571,201.296 323.474,201.295 L 321.149,201.298 C 321.051,201.295 320.971,201.217 320.969,201.12 L 320.97,199.711 C 320.969,199.611 321.047,199.531 321.149,199.534 L 323.474,199.531 z M 319.442,199.529 C 319.542,199.53 319.62,199.613 319.62,199.709 L 319.62,201.117 C 319.618,201.215 319.54,201.296 319.442,201.295 L 317.116,201.295 C 317.018,201.296 316.94,201.214 316.94,201.117 L 316.94,199.709 C 316.938,199.608 317.018,199.531 317.118,199.53 L 319.442,199.529 z M 315.412,199.529 C 315.51,199.53 315.589,199.61 315.587,199.709 L 315.589,201.116 C 315.589,201.214 315.509,201.293 315.412,201.292 L 313.085,201.295 C 312.985,201.292 312.909,201.214 312.907,201.115 L 312.907,199.706 C 312.909,199.61 312.988,199.529 313.085,199.53 L 315.412,199.529 z M 311.379,199.529 C 311.477,199.53 311.555,199.607 311.557,199.706 L 311.557,201.115 C 311.555,201.214 311.477,201.292 311.378,201.292 L 309.053,201.292 C 308.955,201.291 308.875,201.214 308.877,201.114 L 308.877,199.706 C 308.877,199.607 308.955,199.527 309.053,199.528 L 311.379,199.529 z M 307.348,199.527 C 307.446,199.529 307.524,199.607 307.522,199.706 L 307.524,201.115 C 307.524,201.214 307.446,201.292 307.347,201.293 L 305.022,201.29 C 304.922,201.291 304.844,201.212 304.844,201.114 L 304.844,199.706 C 304.845,199.607 304.924,199.528 305.022,199.529 L 307.348,199.527 z M 303.317,199.527 C 303.415,199.527 303.493,199.607 303.495,199.704 L 303.495,201.114 C 303.493,201.212 303.417,201.29 303.315,201.291 L 300.991,201.29 C 300.893,201.291 300.811,201.212 300.814,201.114 L 300.814,199.701 C 300.813,199.604 300.891,199.528 300.989,199.527 L 303.317,199.527 L 303.317,199.527 z M 299.286,199.525 C 299.384,199.524 299.461,199.604 299.461,199.704 L 299.461,201.114 C 299.461,201.208 299.382,201.29 299.286,201.289 L 296.96,201.29 C 296.86,201.291 296.782,201.211 296.78,201.11 L 296.782,199.701 C 296.781,199.604 296.862,199.525 296.96,199.524 L 299.286,199.525 z M 295.252,199.525 C 295.352,199.524 295.43,199.602 295.43,199.701 L 295.43,201.11 C 295.428,201.208 295.35,201.287 295.252,201.289 L 292.926,201.287 C 292.828,201.289 292.75,201.211 292.748,201.11 L 292.748,199.701 C 292.75,199.603 292.828,199.522 292.926,199.524 L 295.252,199.525 z "
   i:knockout="Off" />

			</g>
    <path
       style="fill:url(#XMLID_237_)"
       id="path23373"
       d="M 39.930428,30.471862 C 39.757715,30.470808 39.617649,30.331795 39.617649,30.159082 L 39.617649,17.225607 C 39.617649,17.052894 39.757715,16.912828 39.930428,16.912828 L 41.96402,16.914934 C 42.13568,16.911775 42.274693,17.052894 42.277852,17.223501 L 42.275746,30.159082 C 42.274693,30.331795 42.13568,30.471862 41.965073,30.471862 L 39.930428,30.471862 z "
       i:knockout="Off" />
    <path
       style="fill:url(#XMLID_238_)"
       id="path23380"
       d="M 13.365254,30.470808 C 13.190434,30.470808 13.052474,30.331795 13.052474,30.158029 L 13.052474,17.224554 C 13.050368,17.053947 13.190434,16.911775 13.363147,16.911775 L 21.113122,16.912828 C 21.285835,16.912828 21.425902,17.052894 21.423795,17.224554 L 21.425902,30.161189 C 21.425902,30.331795 21.285835,30.470808 21.115229,30.471862 L 13.365254,30.470808 z "
       i:knockout="Off" />
    <path
       style="fill:url(#XMLID_239_)"
       id="path23387"
       d="M 0.003154858,30.468702 L 0.003154858,16.911775 L 10.551293,16.912828 C 10.737697,16.912828 10.844063,17.051841 10.844063,17.224554 L 10.844063,30.158029 C 10.846169,30.330742 10.736644,30.470808 10.551293,30.470808 L 0.003154858,30.468702 z "
       i:knockout="Off" />
    <path
       style="fill:url(#XMLID_240_)"
       id="path23394"
       d="M 23.946039,30.472915 C 23.773326,30.472915 23.635366,30.333902 23.635366,30.160135 L 23.63326,17.228767 C 23.63326,17.05816 23.773326,16.915987 23.946039,16.915987 L 37.097512,16.909669 C 37.270225,16.909669 37.409238,17.049735 37.408185,17.221395 L 37.409238,30.158029 C 37.409238,30.327583 37.270225,30.466596 37.099618,30.467649 L 23.946039,30.472915 z "
       i:knockout="Off" />
    <path
       style="fill:url(#XMLID_241_)"
       id="path23401"
       d="M 44.799043,30.471862 C 44.626329,30.470808 44.486263,30.331795 44.486263,30.159082 L 44.484157,17.227714 C 44.486263,17.052894 44.624223,16.913881 44.796936,16.913881 L 48.137461,16.915987 L 48.139567,30.471862 L 44.799043,30.471862 L 44.799043,30.471862 z "
       i:knockout="Off" />
    <polygon
       transform="matrix(1.0531288,0,0,1.0531288,-304.5975,-178.22353)"
       style="fill:#ed2728"
       id="polygon23403"
       points="302.947,208.304 298.305,208.304 300.625,204.872 302.947,208.304 "
       i:knockout="Off" />
    <polygon
       transform="matrix(1.0531288,0,0,1.0531288,-304.5975,-178.22353)"
       style="fill:#ed2728"
       id="polygon23405"
       points="312.897,208.304 308.255,208.304 310.577,204.872 312.897,208.304 "
       i:knockout="Off" />
    <polygon
       transform="matrix(1.0531288,0,0,1.0531288,-304.5975,-178.22353)"
       style="fill:#ed2728"
       id="polygon23407"
       points="328.075,208.302 323.433,208.302 325.753,204.87 328.075,208.302 "
       i:knockout="Off" />
    <polygon
       transform="matrix(1.0531288,0,0,1.0531288,-304.5975,-178.22353)"
       style="fill:#ed2728"
       id="polygon23409"
       points="332.695,208.302 328.053,208.302 330.374,204.87 332.695,208.302 "
       i:knockout="Off" />
    <polygon
       transform="matrix(1.0531288,0,0,1.0531288,-304.5975,-178.22353)"
       style="fill:#ed2728"
       id="polygon23411"
       points="302.947,175.152 298.305,175.152 300.625,178.584 302.947,175.152 "
       i:knockout="Off" />
    <polygon
       transform="matrix(1.0531288,0,0,1.0531288,-304.5975,-178.22353)"
       style="fill:#ed2728"
       id="polygon23413"
       points="312.897,175.152 308.255,175.152 310.577,178.584 312.897,175.152 "
       i:knockout="Off" />
    <polygon
       transform="matrix(1.0531288,0,0,1.0531288,-304.5975,-178.22353)"
       style="fill:#ed2728"
       id="polygon23415"
       points="328.075,175.154 323.433,175.154 325.753,178.586 328.075,175.154 "
       i:knockout="Off" />
    <polygon
       transform="matrix(1.0531288,0,0,1.0531288,-304.5975,-178.22353)"
       style="fill:#ed2728"
       id="polygon23417"
       points="332.695,175.154 328.053,175.154 330.374,178.586 332.695,175.154 "
       i:knockout="Off" />
  </g>
</svg>
