<?xml version="1.0" encoding="UTF-8" standalone="no"?>
<!-- Created with Inkscape (http://www.inkscape.org/) -->
<svg
   xmlns:dc="http://purl.org/dc/elements/1.1/"
   xmlns:cc="http://web.resource.org/cc/"
   xmlns:rdf="http://www.w3.org/1999/02/22-rdf-syntax-ns#"
   xmlns:svg="http://www.w3.org/2000/svg"
   xmlns="http://www.w3.org/2000/svg"
   xmlns:xlink="http://www.w3.org/1999/xlink"
   xmlns:sodipodi="http://sodipodi.sourceforge.net/DTD/sodipodi-0.dtd"
   xmlns:inkscape="http://www.inkscape.org/namespaces/inkscape"
   width="48px"
   height="48px"
   id="svg10864"
   sodipodi:version="0.32"
   inkscape:version="0.45.1"
   sodipodi:docbase="C:\dev\src\houdini\support\icons\COP2"
   sodipodi:docname="wipe.svg"
   inkscape:output_extension="org.inkscape.output.svg.inkscape">
  <defs
     id="defs10866">
    <linearGradient
       inkscape:collect="always"
       id="linearGradient9441">
      <stop
         style="stop-color:#729fcf;stop-opacity:1;"
         offset="0"
         id="stop9443" />
      <stop
         style="stop-color:#729fcf;stop-opacity:0;"
         offset="1"
         id="stop9445" />
    </linearGradient>
    <linearGradient
       inkscape:collect="always"
       xlink:href="#linearGradient9441"
       id="linearGradient9447"
       x1="24.017406"
       y1="191.06808"
       x2="13.480816"
       y2="191.24086"
       gradientUnits="userSpaceOnUse"
       gradientTransform="matrix(1.0433952,0,0,1.0437809,-0.9620345,-176.8693)" />
  </defs>
  <sodipodi:namedview
     id="base"
     pagecolor="#ffffff"
     bordercolor="#666666"
     borderopacity="1.0"
     inkscape:pageopacity="0.0"
     inkscape:pageshadow="2"
     inkscape:zoom="7"
     inkscape:cx="24"
     inkscape:cy="24"
     inkscape:current-layer="layer1"
     showgrid="true"
     inkscape:grid-bbox="true"
     inkscape:document-units="px"
     inkscape:window-width="744"
     inkscape:window-height="573"
     inkscape:window-x="44"
     inkscape:window-y="48" />
  <metadata
     id="metadata10869">
    <rdf:RDF>
      <cc:Work
         rdf:about="">
        <dc:format>image/svg+xml</dc:format>
        <dc:type
           rdf:resource="http://purl.org/dc/dcmitype/StillImage" />
      </cc:Work>
    </rdf:RDF>
  </metadata>
  <g
     id="layer1"
     inkscape:label="Layer 1"
     inkscape:groupmode="layer">
    <rect
       x="0.375"
       y="8.6022148"
       width="23.790508"
       height="30.652716"
       id="rect6343"
       style="fill:#204a87" />
    <rect
       x="13.103784"
       y="8.8607235"
       width="10.990256"
       height="29.750956"
       id="rect9439"
       style="fill:url(#linearGradient9447);fill-opacity:1" />
    <rect
       x="24.085114"
       y="8.6022148"
       width="23.710114"
       height="30.652716"
       id="rect6349"
       style="fill:#f57900" />
    <g
       transform="matrix(1.0433952,0,0,1.0437809,-1.3226048,-176.8693)"
       id="g6345"
       style="fill:#729fcf">
	<path
   d="M 19.885,197.391 L 13.572,197.391 L 12.69,200.362 L 7.002,200.362 L 13.78,182.341 L 19.875,182.341 L 26.616,200.362 L 20.783,200.362 L 19.885,197.391 z M 18.728,193.495 L 16.749,187.013 L 14.778,193.495 L 18.728,193.495 z "
   id="path6347"
   style="fill:#729fcf" />

</g>
    <g
       transform="matrix(1.0433952,0,0,1.0437809,-1.3226048,-176.8693)"
       id="g6351"
       style="fill:#edd400">
	<path
   d="M 24.351,182.34 L 34.137,182.34 C 35.878,182.34 37.214,182.772 38.147,183.631 C 39.079,184.494 39.545,185.561 39.545,186.832 C 39.545,187.898 39.212,188.814 38.548,189.576 C 38.104,190.086 37.455,190.488 36.601,190.785 C 37.894,191.094 38.845,191.629 39.456,192.387 C 40.065,193.145 40.371,194.094 40.371,195.241 C 40.371,196.175 40.154,197.014 39.719,197.759 C 39.284,198.504 38.689,199.093 37.934,199.527 C 37.466,199.797 36.759,199.994 35.816,200.117 C 34.56,200.281 33.727,200.363 33.317,200.363 L 24.351,200.363 L 24.351,182.34 L 24.351,182.34 z M 29.314,189.422 L 31.744,189.422 C 32.616,189.422 33.223,189.272 33.563,188.973 C 33.905,188.674 34.076,188.241 34.076,187.674 C 34.076,187.149 33.905,186.736 33.563,186.442 C 33.223,186.147 32.627,185.999 31.782,185.999 L 29.314,185.999 L 29.314,189.422 L 29.314,189.422 z M 29.314,196.485 L 32.16,196.485 C 33.121,196.485 33.798,196.315 34.192,195.977 C 34.586,195.639 34.783,195.182 34.783,194.61 C 34.783,194.079 34.589,193.653 34.199,193.331 C 33.807,193.007 33.125,192.847 32.148,192.847 L 29.314,192.847 L 29.314,196.485 L 29.314,196.485 z "
   id="path6353"
   style="fill:#edd400" />

</g>
    <rect
       x="0.37500003"
       y="8.6022148"
       width="47.419182"
       height="30.652714"
       id="rect6355"
       style="fill:none;stroke:#373b40;stroke-width:0.75" />
  </g>
</svg>
