<?xml version="1.0" encoding="UTF-8" standalone="no"?>
<!-- Created with Inkscape (http://www.inkscape.org/) -->
<svg
   xmlns:dc="http://purl.org/dc/elements/1.1/"
   xmlns:cc="http://web.resource.org/cc/"
   xmlns:rdf="http://www.w3.org/1999/02/22-rdf-syntax-ns#"
   xmlns:svg="http://www.w3.org/2000/svg"
   xmlns="http://www.w3.org/2000/svg"
   xmlns:xlink="http://www.w3.org/1999/xlink"
   xmlns:sodipodi="http://sodipodi.sourceforge.net/DTD/sodipodi-0.dtd"
   xmlns:inkscape="http://www.inkscape.org/namespaces/inkscape"
   width="48px"
   height="48px"
   id="svg10026"
   sodipodi:version="0.32"
   inkscape:version="0.45.1"
   sodipodi:docbase="C:\dev\src\houdini\support\icons\COP2"
   sodipodi:docname="xform.svg"
   inkscape:output_extension="org.inkscape.output.svg.inkscape">
  <defs
     id="defs10028">
    <linearGradient
       id="linearGradient11076">
      <stop
         style="stop-color:#a70c0c;stop-opacity:1;"
         offset="0"
         id="stop11078" />
      <stop
         style="stop-color:#e71010;stop-opacity:1;"
         offset="1"
         id="stop11080" />
    </linearGradient>
    <linearGradient
       id="linearGradient11035">
      <stop
         style="stop-color:#ef8f29;stop-opacity:1;"
         offset="0"
         id="stop11037" />
      <stop
         id="stop11043"
         offset="0.5"
         style="stop-color:#e32424;stop-opacity:1;" />
      <stop
         style="stop-color:#a70c0c;stop-opacity:1;"
         offset="1"
         id="stop11039" />
    </linearGradient>
    <radialGradient
       inkscape:collect="always"
       xlink:href="#linearGradient11035"
       id="radialGradient11041"
       cx="24.142859"
       cy="24.142856"
       fx="24.142859"
       fy="24.142856"
       r="17.571427"
       gradientUnits="userSpaceOnUse"
       gradientTransform="matrix(1.0342435,0,0,1.0342435,-0.8383146,-0.8267365)" />
    <linearGradient
       inkscape:collect="always"
       xlink:href="#linearGradient11035"
       id="linearGradient11057"
       x1="40.57143"
       y1="37.071426"
       x2="25"
       y2="4.7857137"
       gradientUnits="userSpaceOnUse" />
    <linearGradient
       inkscape:collect="always"
       xlink:href="#linearGradient11076"
       id="linearGradient11082"
       x1="3.6428576"
       y1="26.035715"
       x2="30.134502"
       y2="43.464287"
       gradientUnits="userSpaceOnUse" />
  </defs>
  <sodipodi:namedview
     id="base"
     pagecolor="#ffffff"
     bordercolor="#666666"
     borderopacity="1.0"
     inkscape:pageopacity="0.0"
     inkscape:pageshadow="2"
     inkscape:zoom="14"
     inkscape:cx="24"
     inkscape:cy="24"
     inkscape:current-layer="layer1"
     showgrid="true"
     inkscape:grid-bbox="false"
     inkscape:document-units="px"
     showguides="true"
     inkscape:guide-bbox="true"
     inkscape:window-width="1306"
     inkscape:window-height="1053"
     inkscape:window-x="352"
     inkscape:window-y="6" />
  <metadata
     id="metadata10031">
    <rdf:RDF>
      <cc:Work
         rdf:about="">
        <dc:format>image/svg+xml</dc:format>
        <dc:type
           rdf:resource="http://purl.org/dc/dcmitype/StillImage" />
      </cc:Work>
    </rdf:RDF>
  </metadata>
  <g
     id="layer1"
     inkscape:label="Layer 1"
     inkscape:groupmode="layer">
    <path
       style="color:#000000;fill:url(#linearGradient11057);fill-opacity:1.0;fill-rule:nonzero;stroke:none;stroke-width:1.00759876;stroke-linecap:round;stroke-linejoin:miter;marker:none;marker-start:none;marker-mid:none;marker-end:none;stroke-miterlimit:4;stroke-dashoffset:0;stroke-opacity:1;visibility:visible;display:inline;overflow:visible;enable-background:accumulate"
       d="M 24,0.50000035 C 36.972,0.50000035 47.5,11.028 47.5,24 C 47.5,29.818696 45.38172,35.145648 41.874756,39.251261 L 45.214285,42.357143 L 33.5,43.785714 L 34.428571,32.5 L 37.679354,35.695793 C 40.372676,32.549185 42.000001,28.463478 42.000001,24 C 42.000001,14.064 33.936001,6.0000003 24.000001,6.0000003"
       id="path11049" />
    <path
       style="color:#000000;fill:#a70c0c;fill-opacity:1;fill-rule:nonzero;stroke:none;stroke-width:1.00759876;stroke-linecap:round;stroke-linejoin:miter;marker:none;marker-start:none;marker-mid:none;marker-end:none;stroke-miterlimit:4;stroke-dashoffset:0;stroke-opacity:1;visibility:visible;display:inline;overflow:visible;enable-background:accumulate"
       d="M 0.50000028,24 C 0.50000028,11.028 11.028,0.50000035 24,0.50000035 L 24.000001,6.0000003 C 14.064001,6.0000003 6.0000002,14.064 6.0000002,24"
       id="path11074" />
    <path
       style="color:#000000;fill:url(#linearGradient11082);fill-opacity:1.0;fill-rule:nonzero;stroke:none;stroke-width:1.00759876;stroke-linecap:round;stroke-linejoin:miter;marker:none;marker-start:none;marker-mid:none;marker-end:none;stroke-miterlimit:4;stroke-dashoffset:0;stroke-opacity:1;visibility:visible;display:inline;overflow:visible;enable-background:accumulate"
       d="M 6.0000002,24 C 6.0000002,33.936 14.064001,42.000001 24.000001,42.000001 C 26.173426,42.000001 28.257279,41.614153 30.186751,40.907264 L 31.420217,46.331455 C 29.081496,47.080488 26.589441,47.5 24,47.5 C 11.028,47.5 0.50000028,36.971999 0.50000028,24"
       id="path11045" />
    <path
       id="path10049"
       style="color:#000000;fill:none;fill-opacity:1;fill-rule:nonzero;stroke:#000000;stroke-width:1.00759876;stroke-linecap:round;stroke-linejoin:miter;stroke-miterlimit:4;stroke-dashoffset:0;stroke-opacity:1;marker:none;marker-start:none;marker-mid:none;marker-end:none;visibility:visible;display:inline;overflow:visible;enable-background:accumulate"
       d="M 37.679354,35.695793 C 40.372676,32.549185 42.000001,28.463478 42.000001,24 C 42.000001,14.064 33.936001,6 24.000001,6 C 14.064001,6 6.0000006,14.064 6.0000006,24 C 6.0000006,33.936 14.064001,42.000001 24.000001,42.000001 C 26.173426,42.000001 28.257279,41.614153 30.186751,40.907264 L 31.420217,46.331455 C 29.081496,47.080488 26.589441,47.5 24,47.5 C 11.028,47.5 0.50000005,36.971999 0.50000005,24 C 0.50000005,11.028 11.028,0.49999999 24,0.49999999 C 36.972,0.49999999 47.5,11.028 47.5,24 C 47.5,29.818696 45.38172,35.145648 41.874756,39.251261 L 45.214285,42.357143 L 33.5,43.785714 L 34.428571,32.5 L 37.679354,35.695793 z "
       sodipodi:nodetypes="cssscscssscccccc" />
    <path
       id="path11084"
       style="fill:none;fill-opacity:1;fill-rule:evenodd;stroke:#ffffff;stroke-width:3.00000048;stroke-linecap:butt;stroke-linejoin:miter;stroke-miterlimit:4;stroke-dasharray:none;stroke-opacity:1"
       d="M 26.873975,26.777249 L 26.817922,33.951755 L 30.639698,33.951755 L 24.127484,41.798872 L 17.724788,33.951755 L 21.26889,33.951755 L 21.32494,26.8333 L 14.262536,26.88935 L 14.262536,30.47168 L 6.4154167,24.107213 L 14.262536,17.778393 L 14.262536,21.50847 L 21.296914,21.452419 L 21.26889,14.333964 L 17.503164,14.333964 L 24.015381,6.486845 L 30.344201,14.333964 L 26.817922,14.333964 L 26.789896,21.452419 L 33.880328,21.452419 L 33.880328,17.943966 L 41.727445,24.086809 L 33.880328,30.489502 L 33.880328,26.8333 L 26.873975,26.777249 z "
       sodipodi:nodetypes="ccccccccccccccccccccccccc" />
    <path
       id="path10034"
       style="fill:url(#radialGradient11041);fill-opacity:1;fill-rule:evenodd;stroke:#000000;stroke-width:1.00000012px;stroke-linecap:butt;stroke-linejoin:miter;stroke-opacity:1"
       d="M 26.933826,26.777247 L 26.877773,33.951755 L 30.699549,33.951755 L 24.187335,41.798872 L 17.78464,33.951755 L 21.328742,33.951755 L 21.384792,26.833298 L 14.322387,26.889348 L 14.322387,30.471679 L 6.4752686,24.107212 L 14.322387,17.778391 L 14.322387,21.508468 L 21.356766,21.452418 L 21.328742,14.333962 L 17.563015,14.333962 L 24.075232,6.4868434 L 30.404052,14.333962 L 26.877773,14.333962 L 26.849748,21.452418 L 33.94018,21.452418 L 33.94018,17.943964 L 41.787296,24.086807 L 33.94018,30.489501 L 33.94018,26.833298 L 26.933826,26.777247 z "
       sodipodi:nodetypes="ccccccccccccccccccccccccc" />
  </g>
</svg>
