<?xml version="1.0" encoding="UTF-8" standalone="no"?>
<!-- Generator: Adobe Illustrator 15.0.0, SVG Export Plug-In . SVG Version: 6.00 Build 0)  -->
<svg
   xmlns:dc="http://purl.org/dc/elements/1.1/"
   xmlns:cc="http://creativecommons.org/ns#"
   xmlns:rdf="http://www.w3.org/1999/02/22-rdf-syntax-ns#"
   xmlns:svg="http://www.w3.org/2000/svg"
   xmlns="http://www.w3.org/2000/svg"
   xmlns:xlink="http://www.w3.org/1999/xlink"
   xmlns:sodipodi="http://sodipodi.sourceforge.net/DTD/sodipodi-0.dtd"
   xmlns:inkscape="http://www.inkscape.org/namespaces/inkscape"
   version="1.0"
   id="Layer_1"
   x="0px"
   y="0px"
   width="48"
   height="48"
   viewBox="0 0 612 792"
   enable-background="new 0 0 612 792"
   xml:space="preserve"
   sodipodi:version="0.32"
   inkscape:version="0.46"
   sodipodi:docname="v_decal.svg"
   inkscape:output_extension="org.inkscape.output.svg.inkscape"><metadata
   id="metadata2473"><rdf:RDF><cc:Work
       rdf:about=""><dc:format>image/svg+xml</dc:format><dc:type
         rdf:resource="http://purl.org/dc/dcmitype/StillImage" /></cc:Work></rdf:RDF></metadata><defs
   id="defs2471"><linearGradient
     inkscape:collect="always"
     id="linearGradient3176"><stop
       style="stop-color:#d9e25c;stop-opacity:1;"
       offset="0"
       id="stop3178" /><stop
       style="stop-color:#d9e25c;stop-opacity:0;"
       offset="1"
       id="stop3180" /></linearGradient><inkscape:perspective
     id="perspective5783"
     inkscape:persp3d-origin="306 : 264 : 1"
     inkscape:vp_z="612 : 396 : 1"
     inkscape:vp_y="0 : 1000 : 0"
     inkscape:vp_x="0 : 396 : 1"
     sodipodi:type="inkscape:persp3d" /><radialGradient
     inkscape:collect="always"
     xlink:href="#linearGradient3176"
     id="radialGradient3182"
     cx="501.73694"
     cy="80.684944"
     fx="501.73694"
     fy="80.684944"
     r="172.21543"
     gradientTransform="matrix(0.9615817,0.636143,-0.3287924,0.4969963,57.237009,-258.75628)"
     gradientUnits="userSpaceOnUse" /></defs><sodipodi:namedview
   inkscape:window-height="1538"
   inkscape:window-width="2560"
   inkscape:pageshadow="2"
   inkscape:pageopacity="0.0"
   guidetolerance="10.0"
   gridtolerance="10.0"
   objecttolerance="10.0"
   borderopacity="1.0"
   bordercolor="#666666"
   pagecolor="#ffffff"
   id="base"
   showgrid="false"
   inkscape:zoom="18.666667"
   inkscape:cx="24.843248"
   inkscape:cy="20.290602"
   inkscape:window-x="0"
   inkscape:window-y="24"
   inkscape:current-layer="Layer_1" />
















<path
   style="fill:none;stroke:#b46738;stroke-width:0;stroke-linecap:round;stroke-linejoin:round;stroke-miterlimit:10;stroke-dasharray:none"
   stroke-miterlimit="10"
   d="M 300.84999,783.61916 C 490.47302,767.27351 625.70687,600.29987 608.74953,403.48954 C 601.51123,319.51846 568.85394,248.20595 514.70263,194.7003 C 547.05409,203.24695 573.6115,208.25939 583.7893,218.21629 C 595.17348,229.20967 620.72841,249.7012 671.14163,245.36839 C 673.50344,245.16449 675.8822,244.87566 678.31197,244.5528 L 694.30079,242.30996 L 687.19842,227.81639 C 679.70525,212.69409 676.37496,199.84867 672.85774,186.28961 C 665.12671,156.38491 657.12379,125.46073 605.16438,74.945571 C 537.75985,9.4100807 492.66489,7.3201418 452.24256,10.803362 C 446.43154,11.296088 440.62052,11.95878 434.72453,12.587438 L 431.07141,13.012232 C 383.88654,18.177597 341.03445,61.097622 324.38297,77.91903 C 309.8554,68.72672 306.13428,44.667042 306.06632,44.361179 L 304.80897,35.763595 L 296.16038,34.506245 C 295.56569,34.404279 292.4223,34.013485 288.46332,34.353313 C 283.43389,34.761108 279.08411,36.222355 275.53293,38.635123 L 260.66556,48.693988 L 274.00371,57.002744 C 275.83879,61.607382 277.7928,73.603255 277.89473,80.195867 C 277.7418,80.212867 277.5719,80.229866 277.41897,80.246832 C 275.92375,80.382764 274.51347,80.365798 273.52795,80.331798 C 271.64195,79.737106 269.70494,79.397277 267.75093,79.329312 L 265.59303,79.397277 C 260.3937,79.822072 256.68958,82.421737 254.20885,84.137847 C 252.22087,85.531128 251.50721,85.972923 250.45376,86.057855 C 249.62121,86.14282 247.73517,86.074854 244.30291,84.732539 C 232.5789,80.246832 220.78693,78.428757 209.31781,79.414277 C 183.45703,81.640114 163.08443,97.051241 143.37453,111.93564 C 135.7964,117.6617 128.66006,123.08193 121.26882,127.6866 C 111.27796,133.93938 102.32351,139.37661 94.065755,144.32108 C 65.367405,161.66921 44.638016,174.19181 21.410893,197.67379 C -48.933132,268.86738 -84.495957,365.20812 -76.153201,461.92266 C -58.601169,665.66547 99.961743,800.93329 300.84999,783.61916 z"
   id="path5724" /><path
   style="fill:none;stroke:#675000;stroke-width:33;stroke-linecap:round;stroke-linejoin:round;stroke-miterlimit:10;stroke-dasharray:none;stroke-opacity:1"
   stroke-miterlimit="10"
   d="M -64.565123,460.97114 C -48.508338,646.94105 91.601987,789.9569 299.8475,771.99708 C 485.85138,755.95729 613.15028,590.46191 597.12749,404.45803 C 588.20704,301.28681 538.9832,220.13629 467.10996,167.5482 C 470.42329,168.12589 477.55962,168.12589 481.17878,168.49972 C 519.4772,172.10187 575.59948,193.98668 591.92813,209.83957 C 608.29077,225.70945 633.50587,239.03064 676.74876,232.98172 C 651.61863,182.2117 669.91825,154.14204 597.07649,83.305292 C 524.1668,12.451506 481.38267,19.231049 432.34576,24.600311 C 383.32582,29.969538 337.36433,82.013942 327.6113,91.189253 C 327.74723,91.563048 327.91716,91.732979 328.03609,92.072808 C 300.0684,84.970436 294.52924,46.060323 294.52924,46.060323 C 294.52924,46.060323 286.95111,44.989871 282.07461,48.32016 C 286.95111,51.361619 291.16495,80.331798 288.83715,86.873444 C 286.64524,93.058295 272.57647,92.038808 271.11519,91.902877 C 269.9258,91.39315 268.65145,91.087287 267.32614,91.036322 C 260.22376,90.781458 257.76003,102.47147 240.08907,95.65796 C 192.44544,77.341338 162.28584,115.80966 127.43667,137.6265 C 82.630608,165.64516 58.316033,176.96137 29.702649,205.93158 C -37.294088,273.72691 -72.737947,366.00671 -64.565123,460.97114 z M 332.40287,98.070727 C 331.24745,97.84983 330.10903,98.002762 328.98761,98.138693 C 330.02406,97.645933 330.72072,96.881344 331.21348,95.895857 C 332.91259,96.337617 335.18943,95.708926 338.62168,94.451576 C 356.00378,88.011862 361.62791,98.682419 366.99717,110.0666 C 356.53051,104.85027 345.94492,100.53446 332.40287,98.070727 z"
   id="path5726" /><path
   style="fill:#faa542"
   d="M -64.565123,460.97114 C -48.508338,646.94105 91.601987,789.9569 299.8475,771.99708 C 485.85138,755.95729 613.15028,590.46191 597.12749,404.45803 C 586.04914,276.03771 499.85223,171.11638 404.08921,128.70605 C 375.84965,116.20045 360.45552,103.18513 332.40287,98.070727 C 319.52344,95.708926 308.44512,115.72469 300.90095,113.43089 C 283.17902,108.06163 277.94569,91.37615 267.30914,91.019322 C 260.20676,90.764458 257.74303,102.4545 240.07207,95.64096 C 192.42844,77.324338 162.26888,115.79266 127.41967,137.6095 C 82.613608,165.62819 58.299033,176.94441 29.685683,205.91458 C -37.294088,273.72691 -72.737947,366.00671 -64.565123,460.97114 z"
   id="path5728" /><path
   style="fill:#ef9e3f"
   d="M 435.84595,155.48436 C 418.02209,131.30572 595.13948,292.48529 582.39602,447.53102 C 569.65252,602.57671 452.80329,761.63238 268.05676,757.62244 C 170.35673,755.49853 113.01107,738.86402 57.789307,692.13791 C 132.12628,660.27921 185.95476,660.99286 268.78738,576.0363 C 334.8326,508.27494 475.50368,209.27887 435.84595,155.48436 z"
   id="path5730" /><path
   style="fill:#e4983c"
   d="M 461.33291,183.79188 C 445.07222,159.08651 608.68157,308.16828 596.22694,461.53186 C 583.7723,614.89541 469.6247,772.20097 289.19394,768.24199 C 193.78775,766.13509 122.9,735.80559 91.771919,714.78734 C 164.37578,683.28546 240.4459,660.97586 299.91547,597.25845 C 363.39502,529.25923 498.66284,240.52589 461.33291,183.79188 z"
   id="path5732" /><path
   style="fill:#d68e38"
   d="M 495.65538,218.14832 C 479.46266,193.83375 601.1884,298.85704 588.76777,449.63792 C 576.3811,600.41884 471.9525,753.35763 306.28722,760.79979 C 226.66595,764.36798 163.11843,755.19267 132.12628,734.53125 C 204.44131,703.55609 245.74716,707.68497 326.30298,625.07321 C 390.54712,559.18092 532.84935,273.93081 495.65538,218.14832 z"
   id="path5734" /><path
   style="fill:#fbad54"
   d="M 248.94155,107.331 C 224.88184,101.68988 207.89053,90.339698 173.90792,114.43338 C 131.85442,144.21914 111.60079,156.91164 96.019728,163.98001 C 80.455703,171.04842 37.977439,210.70612 20.986133,229.12471 C 3.9947928,247.50929 -89.661287,347.0614 -41.321034,536.37856 C -24.329694,602.91654 15.667837,651.42676 27.001052,668.41806 C 36.499192,682.63977 54.340053,464.52232 100.28457,363.62791 C 165.41227,220.62905 217.79647,103.08316 248.94155,107.331 z"
   id="path5736" /><path
   style="fill:#fcb667"
   d="M 229.8263,114.05955 C 210.77906,109.01315 193.71979,107.6878 178.15573,118.63022 C 145.1586,141.80638 127.84447,150.77779 115.13497,155.48436 C 102.45944,160.19096 66.25096,185.38906 52.046216,198.45538 C 37.858473,211.53871 -40.352514,282.22256 -7.8481487,424.59276 C 3.5700322,474.64916 31.248862,493.96826 39.744515,507.00059 C 46.880886,517.90901 66.590789,369.03117 106.65632,295.66268 C 163.45826,191.69284 205.05297,109.81174 229.8263,114.05955 z"
   id="path5738" /><path
   style="fill:#ffffff"
   d="M 192.19058,117.84863 C 192.58137,122.5892 194.07658,124.52621 198.83415,124.10141 C 203.54076,123.69362 209.84454,118.57925 209.43674,113.83865 C 209.04595,109.11508 207.5507,107.16107 202.81013,107.58587 C 198.06956,107.97666 191.79975,113.12503 192.19058,117.84863 z"
   id="path5740" /><path
   style="fill:#ffffff"
   d="M 158.20793,132.00237 C 158.61572,136.72594 160.09397,138.67995 164.85154,138.25519 C 169.55814,137.86436 175.86193,132.716 175.4711,127.99243 C 175.04634,123.25186 173.55109,121.31485 168.82752,121.72264 C 164.10392,122.14741 157.80013,127.2788 158.20793,132.00237 z"
   id="path5742" /><path
   style="fill:#ffffff"
   d="M 175.19924,153.22452 C 175.59006,157.96509 177.08528,159.9191 181.84285,159.49431 C 186.56645,159.08651 192.85323,153.95515 192.44544,149.23158 C 192.05464,144.49097 190.5424,142.537 185.80183,142.96176 C 181.07826,143.36955 174.79147,148.51792 175.19924,153.22452 z"
   id="path5744" /><path
   style="fill:#ffffff"
   d="M 219.97137,113.78768 C 220.36216,118.51129 221.85738,120.46526 226.59798,120.0575 C 231.32155,119.64971 237.62533,114.50134 237.21754,109.79474 C 236.80974,105.05417 235.3145,103.11716 230.59093,103.52495 C 225.85036,103.93272 219.54658,109.04711 219.97137,113.78768 z"
   id="path5746" /><path
   style="fill:#ffffff"
   d="M 137.30864,163.65718 C 137.7334,168.38079 139.22865,170.33476 143.96922,169.91 C 148.69282,169.51921 154.96261,164.37081 154.58878,159.64724 C 154.18102,154.90667 152.68577,152.96966 147.9452,153.37745 C 143.20463,153.78525 136.90085,158.93361 137.30864,163.65718 z"
   id="path5748" /><path
   style="fill:#ffffff"
   d="M 144.03719,187.20713 C 144.44498,191.9477 145.94023,193.90171 150.6808,193.47695 C 155.42137,193.08612 161.69115,187.93776 161.30035,183.21419 C 160.90956,178.47362 159.39735,176.51961 154.65674,176.94441 C 149.91617,177.36917 143.64639,182.50056 144.03719,187.20713 z"
   id="path5750" /><path
   style="fill:#ffffff"
   d="M 99.63888,226.54204 C 100.04667,231.28261 101.52492,233.21962 106.28249,232.81182 C 110.98909,232.42103 117.29288,227.27267 116.90205,222.53206 C 116.49429,217.82549 114.99904,215.87148 110.25847,216.29628 C 105.5179,216.67007 99.231119,221.81844 99.63888,226.54204 z"
   id="path5752" /><path
   style="fill:#ffffff"
   d="M 47.271681,243.31245 C 47.662475,248.03602 49.174688,249.99003 53.915292,249.56527 C 58.655862,249.17444 64.925644,244.02607 64.53485,239.3025 C 64.144055,234.57893 62.614842,232.62493 57.891238,233.03272 C 53.150669,233.45748 46.863886,238.58888 47.271681,243.31245 z"
   id="path5754" /><path
   style="fill:#ffffff"
   d="M 70.498803,198.13256 C 70.889598,202.83916 72.384845,204.79317 77.142415,204.38537 C 81.848985,203.97758 88.152767,198.84618 87.744972,194.12261 C 87.337178,189.39904 85.841965,187.44503 81.118361,187.85283 C 76.377791,188.27759 70.108009,193.37499 70.498803,198.13256 z"
   id="path5756" /><path
   style="fill:#ffffff"
   d="M 118.75412,271.00828 C 119.07695,274.7294 120.24934,276.24161 123.93645,275.91878 C 127.65757,275.57895 132.56804,271.58601 132.22824,267.88189 C 131.92238,264.19477 130.733,262.66556 127.04588,262.98839 C 123.35876,263.31122 118.44826,267.32116 118.75412,271.00828 z"
   id="path5758" /><path
   style="fill:#ffffff"
   d="M 206.34432,133.41265 C 206.75211,138.15322 208.24736,140.09023 212.97093,139.68244 C 217.7115,139.29164 223.99828,134.14328 223.59052,129.41971 C 223.18273,124.6961 221.70448,122.7421 216.94691,123.16689 C 212.24031,123.55769 205.93652,128.70605 206.34432,133.41265 z"
   id="path5760" /><path
   id="path5974"
   d="M 575.53531,484.44146 C 563.45451,615.7503 496.3898,679.07692 375.32672,656.73335 C 281.46671,639.38522 290.70999,542.82361 308.27899,429.47459 C 328.77051,297.24819 350.28152,233.13999 447.98155,250.67502 C 545.66461,268.15908 587.82005,350.83878 575.53531,484.44146 z"
   style="fill:#000000;fill-opacity:0.46276596" /><path
   style="fill:#ffffff"
   d="M 566.69603,472.06646 C 554.61523,603.3753 487.55052,666.70192 366.48744,644.35835 C 272.62743,627.01022 281.87071,530.44861 299.43971,417.09959 C 319.93123,284.87319 341.44224,220.76499 439.14227,238.30002 C 536.82533,255.78408 578.98077,338.46378 566.69603,472.06646 z"
   id="path5762" /><path
   style="fill:none;stroke:#4f5aa8;stroke-width:16.99131012;stroke-miterlimit:10"
   stroke-miterlimit="10"
   d="M 411.6843,633.1101 C 398.51605,633.1101 384.27734,631.69982 369.34197,628.96422 C 297.4857,615.694 294.52924,550.8212 314.88483,419.49536 C 333.30339,300.74308 350.60056,251.09448 409.96819,251.09448 C 417.90312,251.09448 426.7896,251.96104 436.38967,253.67715 C 524.3367,269.4451 562.92398,342.43976 551.11501,470.63921 C 541.17511,578.43207 494.29607,633.1101 411.6843,633.1101 z"
   id="path5764" /><path
   style="fill:#bf1e55"
   d="M 412.65283,612.22778 C 401.86334,612.22778 390.22429,611.0384 378.00752,608.6936 C 319.13264,597.29241 316.71988,541.73082 333.37135,429.2144 C 413.77424,428.7556 459.58283,443.13028 526.8854,473.00098 C 518.78054,565.39974 480.38019,612.22778 412.65283,612.22778 z"
   id="path5766" /><circle
   style="fill:#00b7bf"
   sodipodi:ry="3.75"
   sodipodi:rx="3.75"
   sodipodi:cy="398.047"
   sodipodi:cx="397.45499"
   cx="397.45499"
   cy="398.047"
   r="3.75"
   id="circle5768"
   transform="matrix(16.991311,0,0,16.991311,-6323.1104,-6396.8579)" /><circle
   style="fill:#ffffff"
   sodipodi:ry="2.9170001"
   sodipodi:rx="2.9170001"
   sodipodi:cy="402.21301"
   sodipodi:cx="399.789"
   cx="399.789"
   cy="402.21301"
   r="2.9170001"
   id="circle5770"
   transform="matrix(16.991311,0,0,16.991311,-6323.1104,-6396.8579)" /><path
   style="fill:#66bc46"
   d="M 270.82636,91.868911 C 270.82636,91.868911 286.50931,93.381124 288.83715,86.856478 C 291.16495,80.314798 286.95111,51.344619 282.07461,48.303194 C 286.95111,44.972871 294.52924,46.043323 294.52924,46.043323 C 294.52924,46.043323 300.51016,88.742485 331.94411,92.922363 C 331.87614,98.682419 327.30547,99.056214 321.59638,99.565974 C 315.88732,100.0757 310.55202,110.98412 306.06632,113.00609 C 296.63614,117.2879 282.49937,100.0587 270.82636,91.868911 z"
   id="path5772" /><path
   style="fill:#66bc46"
   d="M 327.59433,91.189253 C 337.34733,82.013942 383.30882,29.969538 432.32876,24.600311 C 481.38267,19.231049 524.1498,12.451506 597.05952,83.305292 C 669.90125,154.14204 651.61863,182.1947 676.73176,232.98172 C 633.48887,239.01364 602.00399,221.01985 585.67534,205.14996 C 569.3467,189.29707 500.58285,173.44419 462.13153,172.6456 C 408.16712,171.55814 398.41412,158.37289 375.28893,139.85237 C 359.6909,127.38074 368.35648,83.458189 338.62168,94.451576 C 331.97807,96.898343 329.5483,97.221172 327.59433,91.189253 z"
   id="path5774" /><path
   style="fill:url(#radialGradient3182);fill-opacity:1"
   d="M 330.34693,93.466089 C 366.28355,75.319365 483.79544,59.755306 526.2737,93.737952 C 568.752,127.72056 597.09349,146.10515 619.72592,173.01939 C 642.39232,199.93363 670.52994,231.06171 674.77779,232.489 C 667.87931,219.21877 655.66254,141.68741 616.36163,104.52744 C 581.2576,71.309419 554.2414,42.798 505.39138,27.539805 C 408.06515,-2.9256212 330.34693,93.466089 330.34693,93.466089 z"
   id="path5776" /></svg>