<?xml version="1.0" encoding="UTF-8" standalone="no"?>
<!-- Created with Inkscape (http://www.inkscape.org/) -->

<svg
   xmlns:dc="http://purl.org/dc/elements/1.1/"
   xmlns:cc="http://creativecommons.org/ns#"
   xmlns:rdf="http://www.w3.org/1999/02/22-rdf-syntax-ns#"
   xmlns:svg="http://www.w3.org/2000/svg"
   xmlns="http://www.w3.org/2000/svg"
   xmlns:sodipodi="http://sodipodi.sourceforge.net/DTD/sodipodi-0.dtd"
   xmlns:inkscape="http://www.inkscape.org/namespaces/inkscape"
   width="16px"
   height="16px"
   id="svg9412"
   sodipodi:version="0.32"
   inkscape:version="0.48.4 r9939"
   sodipodi:docname="display_background.svg"
   version="1.1">
  <defs
     id="defs9414" />
  <sodipodi:namedview
     id="base"
     pagecolor="#ffffff"
     bordercolor="#666666"
     borderopacity="1.0"
     inkscape:pageopacity="0.0"
     inkscape:pageshadow="2"
     inkscape:zoom="14.798535"
     inkscape:cx="8.8784654"
     inkscape:cy="2.4251237"
     inkscape:current-layer="layer1"
     showgrid="true"
     inkscape:grid-bbox="false"
     inkscape:document-units="px"
     inkscape:window-width="1336"
     inkscape:window-height="1077"
     inkscape:window-x="295"
     inkscape:window-y="5"
     inkscape:window-maximized="0" />
  <metadata
     id="metadata9417">
    <rdf:RDF>
      <cc:Work
         rdf:about="">
        <dc:format>image/svg+xml</dc:format>
        <dc:type
           rdf:resource="http://purl.org/dc/dcmitype/StillImage" />
        <dc:title></dc:title>
      </cc:Work>
    </rdf:RDF>
  </metadata>
  <g
     id="layer1"
     inkscape:label="Layer 1"
     inkscape:groupmode="layer">
    <path
       sodipodi:nodetypes="ccccccccccccccccc"
       style="fill:black;fill-opacity:0.11111109;fill-rule:evenodd;stroke:none;stroke-width:1px;stroke-linecap:butt;stroke-linejoin:miter;stroke-opacity:1;display:inline"
       d="M 6.6047657,4.3803123 L 7.2862143,6.0437605 L 8.1167299,8.023054 L 7.4352813,9.3917141 L 8.4361587,10.697205 L 7.4352813,12.423823 L 6.1362701,13.139737 L 6.9028996,13.792483 L 7.1158524,14.213609 L 14.164586,14.192553 L 14.228472,12.550161 L 13.121118,10.907768 L 11.63045,9.9602352 L 10.473724,8.272202 L 9.8375001,6.2691515 L 8.5852257,6.6965068 L 6.6047657,4.3803123 z "
       id="path9467" />
    <path
       style="fill:#eeeeec;fill-opacity:1;fill-rule:evenodd;stroke:none;stroke-width:1px;stroke-linecap:butt;stroke-linejoin:miter;stroke-opacity:1;display:inline"
       d="M 1.9558563,13.812568 L 4.1492688,12.654473 L 5.2992132,10.612011 L 4.7668314,13.138767 L 3.7446589,13.875738 L 1.9558563,13.812568 z "
       id="path9465" />
    <path
       style="fill:#eeeeec;fill-opacity:1;fill-rule:evenodd;stroke:none;stroke-width:1px;stroke-linecap:butt;stroke-linejoin:miter;stroke-opacity:1;display:inline"
       d="M 6.7944058,7.5636964 L 5.7083474,9.6482713 L 5.9212998,11.164325 L 6.9008822,11.943408 L 6.7944058,7.5636964 z "
       id="path9463" />
    <path
       style="fill:#eeeeec;fill-opacity:1;fill-rule:evenodd;stroke:none;stroke-width:1px;stroke-linecap:butt;stroke-linejoin:miter;stroke-opacity:1;display:inline"
       d="M 6.5858282,4.9191331 L 4.5998536,6.7250574 L 3.3900162,9.1649576 L 2.1445515,10.008146 L 2.1186492,11.642007 L 3.0905516,10.47966 L 3.1145087,12.197066 L 4.9232755,10.053271 L 4.6238108,8.2648002 L 5.4143976,6.6658365 L 6.5858282,4.9191331 z "
       id="path9461"
       sodipodi:nodetypes="ccccccccccc" />
    <path
       style="fill:white;fill-opacity:0.54320984;fill-rule:evenodd;stroke:none;stroke-width:1px;stroke-linecap:butt;stroke-linejoin:miter;stroke-opacity:1;display:inline"
       d="M 3.6660193,8.1294892 L 4.219696,7.0637944 L 6.5408802,4.8743883 L 8.6704067,7.2350539 L 9.7777604,6.754498 L 10.288847,8.1772188 C 10.288847,8.1772188 10.246256,8.8557067 9.2879696,8.8557067 C 8.3296824,8.8557067 7.8398915,8.1891513 6.9880806,8.1711364 C 6.1362701,8.1531216 5.880727,8.9637973 4.9011446,8.8557067 C 3.9215622,8.7476167 3.6873143,8.1655194 3.6660193,8.1294892 z "
       id="path9473"
       sodipodi:nodetypes="ccccccsssc" />
    <rect
       style="opacity:1;color:black;fill:#888a85;fill-opacity:1;fill-rule:nonzero;stroke:#2e3436;stroke-width:0.99999981999999998;stroke-linecap:round;stroke-linejoin:miter;marker:none;marker-start:none;marker-mid:none;marker-end:none;stroke-miterlimit:4;stroke-dasharray:none;stroke-dashoffset:0;stroke-opacity:1;visibility:visible;display:inline;overflow:visible"
       id="rect9459"
       width="12.999993"
       height="13.000002"
       x="1.4999993"
       y="1.5000004" />
    <path
       style="color:black;fill:#eeeeec;fill-opacity:1;fill-rule:evenodd;stroke:none;stroke-width:1.50000000000000000;stroke-linecap:round;stroke-linejoin:miter;marker:none;marker-start:none;marker-mid:none;marker-end:none;stroke-miterlimit:4;stroke-dasharray:none;stroke-dashoffset:0;stroke-opacity:1;visibility:visible;display:inline;overflow:visible"
       d="M 9.6383685,2.3767489 C 8.7630765,2.3767489 8.0093216,2.875115 7.6259345,3.5985842 C 7.5266271,3.5853791 7.4233743,3.580616 7.3204758,3.580616 C 6.2571658,3.580616 5.3823934,4.3032765 5.1283597,5.2875915 C 5.0804857,5.2804721 5.0344596,5.2696234 4.9846145,5.2696234 C 4.4379983,5.2696234 3.9783973,5.7112561 3.9783973,6.2578723 C 3.9783973,6.8044886 4.4379983,7.2461213 4.9846145,7.2461213 C 5.1509198,7.2461213 5.2961726,7.2108484 5.4338186,7.1383123 C 5.8443948,7.7458793 6.5325116,8.1445293 7.3204758,8.1445293 C 8.1943995,8.1445293 8.9489444,7.6443124 9.3329099,6.9226943 C 9.4359923,6.9369499 9.5313857,6.9406625 9.6383685,6.9406625 C 9.783911,6.9406625 9.931602,6.9307895 10.069604,6.9047262 C 10.390218,7.3316146 10.896533,7.6054845 11.471122,7.6054845 C 12.059508,7.6054845 12.571706,7.3132618 12.890607,6.8687899 C 13.041495,6.961824 13.221528,7.0305034 13.411684,7.0305034 C 13.958299,7.0305034 14.399932,6.5709025 14.399932,6.0242863 C 14.399932,5.4776699 13.9583,5.0360372 13.411684,5.0360372 C 13.287996,5.0360372 13.161515,5.0664272 13.052321,5.1079099 C 12.824301,4.6307485 12.393729,4.2764934 11.866421,4.1555972 C 11.638009,3.1353735 10.727168,2.3767495 9.6383685,2.3767489 z "
       id="path5944" />
    <path
       style="fill:#babdb6;fill-opacity:1;fill-rule:evenodd;stroke:#323232;stroke-width:0.99999976000000002px;stroke-linecap:butt;stroke-linejoin:miter;stroke-opacity:1;display:inline"
       d="M 4.0899985,6.4866505 L 1.5145993,9.8740802 L 1.5145993,14.351174 L 14.379617,14.398552 L 14.427531,12.420576 L 11.67729,8.1075459 L 8.2041493,10.805645 L 4.0899985,6.4866505 z "
       id="path6027"
       sodipodi:nodetypes="cccccccc" />
    <path
       style="fill:#eeeeec;fill-opacity:0.75000000000000000;fill-rule:evenodd;stroke:none;stroke-width:1px;stroke-linecap:butt;stroke-linejoin:miter;stroke-opacity:1"
       d="M 4.1220297,7.2829207 L 1.9596535,10.188614 L 2.0272277,13.770049 L 5.6105166,13.820283 L 3.5138614,9.715594 L 4.1220297,7.2829207 z "
       id="path9475"
       sodipodi:nodetypes="cccccc" />
    <path
       style="fill:#eeeeec;fill-opacity:0.75000000000000000;fill-rule:evenodd;stroke:none;stroke-width:1px;stroke-linecap:butt;stroke-linejoin:miter;stroke-opacity:1"
       d="M 11.621845,8.8120119 L 8.1755584,11.514982 L 8.8513007,12.663744 L 10.745233,13.727592 L 10.27036,11.244685 L 11.621845,8.8120119 z "
       id="path9477"
       sodipodi:nodetypes="cccccc" />
  </g>
</svg>
