<?xml version="1.0" encoding="UTF-8" standalone="no"?>
<!-- Created with Inkscape (http://www.inkscape.org/) -->
<svg
   xmlns:dc="http://purl.org/dc/elements/1.1/"
   xmlns:cc="http://web.resource.org/cc/"
   xmlns:rdf="http://www.w3.org/1999/02/22-rdf-syntax-ns#"
   xmlns:svg="http://www.w3.org/2000/svg"
   xmlns="http://www.w3.org/2000/svg"
   xmlns:xlink="http://www.w3.org/1999/xlink"
   xmlns:sodipodi="http://sodipodi.sourceforge.net/DTD/sodipodi-0.dtd"
   xmlns:inkscape="http://www.inkscape.org/namespaces/inkscape"
   width="16px"
   height="16px"
   id="svg1872"
   sodipodi:version="0.32"
   inkscape:version="0.44.1"
   sodipodi:docbase="e:\dev_clean\src\houdini\support\icons\view"
   sodipodi:docname="display_point_texture_coordinates.svg">
  <defs
     id="defs1874">
    <linearGradient
       id="linearGradient2911">
      <stop
         style="stop-color:white;stop-opacity:1;"
         offset="0"
         id="stop2913" />
      <stop
         style="stop-color:#8e8e8e;stop-opacity:1;"
         offset="1"
         id="stop2915" />
    </linearGradient>
    <linearGradient
       id="linearGradient2881">
      <stop
         style="stop-color:#c8daed;stop-opacity:1;"
         offset="0"
         id="stop2883" />
      <stop
         style="stop-color:#4a84c2;stop-opacity:1;"
         offset="1"
         id="stop2885" />
    </linearGradient>
    <radialGradient
       inkscape:collect="always"
       xlink:href="#linearGradient2911"
       id="radialGradient2917"
       cx="3.2992275"
       cy="3.4160771"
       fx="3.2992275"
       fy="3.4160771"
       r="2.7505228"
       gradientUnits="userSpaceOnUse" />
    <radialGradient
       inkscape:collect="always"
       xlink:href="#linearGradient2911"
       id="radialGradient2921"
       gradientUnits="userSpaceOnUse"
       cx="3.2992275"
       cy="3.4160771"
       fx="3.2992275"
       fy="3.4160771"
       r="2.7505228" />
  </defs>
  <sodipodi:namedview
     id="base"
     pagecolor="#ffffff"
     bordercolor="#666666"
     borderopacity="1.0"
     inkscape:pageopacity="0.0"
     inkscape:pageshadow="2"
     inkscape:zoom="33.296703"
     inkscape:cx="13.89618"
     inkscape:cy="8"
     inkscape:current-layer="layer1"
     showgrid="true"
     inkscape:grid-bbox="true"
     inkscape:document-units="px"
     inkscape:window-width="1300"
     inkscape:window-height="1050"
     inkscape:window-x="297"
     inkscape:window-y="6" />
  <metadata
     id="metadata1877">
    <rdf:RDF>
      <cc:Work
         rdf:about="">
        <dc:format>image/svg+xml</dc:format>
        <dc:type
           rdf:resource="http://purl.org/dc/dcmitype/StillImage" />
      </cc:Work>
    </rdf:RDF>
  </metadata>
  <g
     id="layer1"
     inkscape:label="Layer 1"
     inkscape:groupmode="layer">
    <path
       style="font-size:12px;font-style:normal;font-variant:normal;font-weight:normal;font-stretch:normal;text-align:start;line-height:125%;writing-mode:lr-tb;text-anchor:start;opacity:1;color:black;fill:none;fill-opacity:1;fill-rule:nonzero;stroke:#eeeeec;stroke-width:2;stroke-linecap:butt;stroke-linejoin:miter;marker:none;marker-start:none;marker-mid:none;marker-end:none;stroke-miterlimit:4;stroke-dasharray:none;stroke-dashoffset:0;stroke-opacity:1;visibility:visible;display:inline;overflow:visible;font-family:Tahoma"
       d="M 2.5778302,7 C 2.260278,6.9999998 1.9632833,6.9574708 1.6868452,6.8724127 C 1.4104053,6.7873545 1.1814572,6.6966258 1,6.6002263 L 1,5.7028619 L 1.0425292,5.7028619 C 1.1105753,5.7567332 1.1906718,5.8162739 1.2828187,5.8814842 C 1.3749645,5.9466964 1.49759,6.014743 1.6506955,6.085624 C 1.7867876,6.1480007 1.9363482,6.2032885 2.0993777,6.2514875 C 2.2624045,6.2996878 2.4318119,6.3237875 2.6076006,6.323787 C 2.735186,6.3237875 2.871279,6.3089025 3.0158802,6.2791314 C 3.1604767,6.2493617 3.268217,6.2117943 3.3391014,6.1664292 C 3.4383333,6.1012187 3.5099238,6.0317546 3.5538735,5.9580366 C 3.5978174,5.8843205 3.6197907,5.7737448 3.6197936,5.6263096 C 3.6197907,5.4363475 3.568047,5.2931664 3.4645623,5.1967654 C 3.3610722,5.100368 3.1774884,5.0195627 2.9138102,4.9543494 C 2.8117383,4.928834 2.6784805,4.8990636 2.5140366,4.8650384 C 2.349589,4.8310171 2.1979021,4.7941585 2.058975,4.7544627 C 1.6960589,4.6495597 1.4323787,4.4872403 1.2679335,4.2675043 C 1.1034872,4.0477733 1.0212643,3.7819666 1.0212646,3.4700833 C 1.0212643,3.0419607 1.1828747,2.6932223 1.5060965,2.4238671 C 1.8293167,2.1545207 2.2588603,2.0198453 2.7947288,2.0198404 C 3.0584069,2.0198453 3.3235048,2.052451 3.5900232,2.1176574 C 3.8565358,2.1828734 4.0805223,2.2650964 4.2619833,2.3643263 L 4.2619833,3.2191615 L 4.2194541,3.2191615 C 4.015311,3.0575547 3.7877806,2.9299675 3.5368618,2.8363995 C 3.2859375,2.7428395 3.0328894,2.6960576 2.7777171,2.6960534 C 2.5140347,2.6960576 2.291466,2.7513454 2.11001,2.8619169 C 1.9285512,2.9724966 1.8378225,3.1397776 1.8378236,3.3637605 C 1.8378225,3.5622331 1.8916926,3.710376 1.9994342,3.8081898 C 2.1071733,3.9060098 2.2801249,3.9861061 2.5182895,4.0484793 C 2.6373691,4.0796701 2.7699181,4.1101492 2.9159367,4.1399169 C 3.061951,4.16969 3.2157645,4.2044221 3.3773776,4.2441132 C 3.7289486,4.3320093 3.9933377,4.4780258 4.1705456,4.6821632 C 4.3477467,4.8863049 4.4363489,5.1641615 4.4363526,5.5157338 C 4.4363489,5.7198747 4.3959462,5.913382 4.3151447,6.0962562 C 4.2343358,6.279132 4.1159631,6.4357808 3.9600266,6.566203 C 3.7899069,6.7079669 3.5978174,6.8157072 3.383757,6.8894243 C 3.1696913,6.9631413 2.9010494,6.9999998 2.5778302,7 L 2.5778302,7 z "
       id="path1998" />
    <path
       style="font-size:12px;font-style:normal;font-variant:normal;font-weight:normal;font-stretch:normal;text-align:start;line-height:125%;writing-mode:lr-tb;text-anchor:start;opacity:1;color:black;fill:none;fill-opacity:1;fill-rule:nonzero;stroke:#eeeeec;stroke-width:2;stroke-linecap:butt;stroke-linejoin:miter;marker:none;marker-start:none;marker-mid:none;marker-end:none;stroke-miterlimit:4;stroke-dasharray:none;stroke-dashoffset:0;stroke-opacity:1;visibility:visible;display:inline;overflow:visible;font-family:Tahoma"
       d="M 7.8629623,7 C 7.4407443,6.9999999 7.1117443,6.8800521 6.8759625,6.6401563 C 6.6401784,6.4002611 6.5222869,6.021226 6.5222874,5.5030502 L 6.5222874,2.957413 L 6,2.957413 L 6,2.3158631 L 6.5222874,2.3158631 L 6.5222874,0.99575081 L 7.2954373,0.99575081 L 7.2954373,2.3158631 L 8.7183623,2.3158631 L 8.7183623,2.957413 L 7.2954373,2.957413 L 7.2954373,5.1411503 C 7.2954363,5.3741935 7.2995483,5.5537724 7.3077753,5.6798877 C 7.3159983,5.8060054 7.3475273,5.923897 7.4023623,6.0335626 C 7.4489693,6.1295218 7.5243653,6.2014904 7.6285503,6.2494689 C 7.7327313,6.2974486 7.8739273,6.3214382 8.0521373,6.3214376 C 8.1782513,6.3214382 8.3002563,6.302932 8.4181503,6.2659189 C 8.5360393,6.2289071 8.6210303,6.1980633 8.6731253,6.1733876 L 8.7183623,6.1733876 L 8.7183623,6.8684001 C 8.5730513,6.909525 8.4256873,6.9417396 8.2762683,6.9650438 C 8.1268453,6.9883479 7.9890773,6.9999999 7.8629623,7 L 7.8629623,7 z "
       id="path2000" />
    <path
       style="font-size:12px;font-style:normal;font-variant:normal;font-weight:normal;font-stretch:normal;text-align:start;line-height:125%;writing-mode:lr-tb;text-anchor:start;opacity:1;color:black;fill:none;fill-opacity:1;fill-rule:nonzero;stroke:#eeeeec;stroke-width:2;stroke-linecap:butt;stroke-linejoin:miter;marker:none;marker-start:none;marker-mid:none;marker-end:none;stroke-miterlimit:3;stroke-dasharray:none;stroke-dashoffset:0;stroke-opacity:1;visibility:visible;display:inline;overflow:visible;font-family:Tahoma"
       d="M 14.099601,2.4570898 L 12.387367,7 L 11.700033,7 L 10,2.4570898 L 10.825614,2.4570898 L 12.070136,5.9628988 L 13.302457,2.4570898 L 14.099601,2.4570898 z "
       id="path2002" />
    <path
       sodipodi:type="arc"
       style="opacity:1;color:black;fill:url(#radialGradient2917);fill-opacity:1;fill-rule:evenodd;stroke:#2e3436;stroke-width:0.94303679;stroke-linecap:round;stroke-linejoin:miter;marker:none;marker-start:none;marker-mid:none;marker-end:none;stroke-miterlimit:4;stroke-dasharray:none;stroke-dashoffset:0;stroke-opacity:1;visibility:visible;display:inline;overflow:visible"
       id="path2877"
       sodipodi:cx="3.8892739"
       sodipodi:cy="3.911716"
       sodipodi:rx="2.3575907"
       sodipodi:ry="2.3575907"
       d="M 6.2468646 3.911716 A 2.3575907 2.3575907 0 1 1  1.5316832,3.911716 A 2.3575907 2.3575907 0 1 1  6.2468646 3.911716 z"
       transform="matrix(1.060405,0,0,1.060404,-0.124202,7.851997)" />
    <path
       style="font-size:12px;font-style:normal;font-variant:normal;font-weight:normal;font-stretch:normal;text-align:start;line-height:125%;writing-mode:lr-tb;text-anchor:start;fill:#3465a4;fill-opacity:1;stroke:none;stroke-width:1px;stroke-linecap:butt;stroke-linejoin:miter;stroke-opacity:1;font-family:Tahoma"
       d="M 2.5778302,7 C 2.260278,6.9999998 1.9632833,6.9574708 1.6868452,6.8724127 C 1.4104053,6.7873545 1.1814572,6.6966258 1,6.6002263 L 1,5.7028619 L 1.0425292,5.7028619 C 1.1105753,5.7567332 1.1906718,5.8162739 1.2828187,5.8814842 C 1.3749645,5.9466964 1.49759,6.014743 1.6506955,6.085624 C 1.7867876,6.1480007 1.9363482,6.2032885 2.0993777,6.2514875 C 2.2624045,6.2996878 2.4318119,6.3237875 2.6076006,6.323787 C 2.735186,6.3237875 2.871279,6.3089025 3.0158802,6.2791314 C 3.1604767,6.2493617 3.268217,6.2117943 3.3391014,6.1664292 C 3.4383333,6.1012187 3.5099238,6.0317546 3.5538735,5.9580366 C 3.5978174,5.8843205 3.6197907,5.7737448 3.6197936,5.6263096 C 3.6197907,5.4363475 3.568047,5.2931664 3.4645623,5.1967654 C 3.3610722,5.100368 3.1774884,5.0195627 2.9138102,4.9543494 C 2.8117383,4.928834 2.6784805,4.8990636 2.5140366,4.8650384 C 2.349589,4.8310171 2.1979021,4.7941585 2.058975,4.7544627 C 1.6960589,4.6495597 1.4323787,4.4872403 1.2679335,4.2675043 C 1.1034872,4.0477733 1.0212643,3.7819666 1.0212646,3.4700833 C 1.0212643,3.0419607 1.1828747,2.6932223 1.5060965,2.4238671 C 1.8293167,2.1545207 2.2588603,2.0198453 2.7947288,2.0198404 C 3.0584069,2.0198453 3.3235048,2.052451 3.5900232,2.1176574 C 3.8565358,2.1828734 4.0805223,2.2650964 4.2619833,2.3643263 L 4.2619833,3.2191615 L 4.2194541,3.2191615 C 4.015311,3.0575547 3.7877806,2.9299675 3.5368618,2.8363995 C 3.2859375,2.7428395 3.0328894,2.6960576 2.7777171,2.6960534 C 2.5140347,2.6960576 2.291466,2.7513454 2.11001,2.8619169 C 1.9285512,2.9724966 1.8378225,3.1397776 1.8378236,3.3637605 C 1.8378225,3.5622331 1.8916926,3.710376 1.9994342,3.8081898 C 2.1071733,3.9060098 2.2801249,3.9861061 2.5182895,4.0484793 C 2.6373691,4.0796701 2.7699181,4.1101492 2.9159367,4.1399169 C 3.061951,4.16969 3.2157645,4.2044221 3.3773776,4.2441132 C 3.7289486,4.3320093 3.9933377,4.4780258 4.1705456,4.6821632 C 4.3477467,4.8863049 4.4363489,5.1641615 4.4363526,5.5157338 C 4.4363489,5.7198747 4.3959462,5.913382 4.3151447,6.0962562 C 4.2343358,6.279132 4.1159631,6.4357808 3.9600266,6.566203 C 3.7899069,6.7079669 3.5978174,6.8157072 3.383757,6.8894243 C 3.1696913,6.9631413 2.9010494,6.9999998 2.5778302,7 L 2.5778302,7 z "
       id="path1996" />
    <path
       style="font-size:12px;font-style:normal;font-variant:normal;font-weight:normal;font-stretch:normal;text-align:start;line-height:125%;writing-mode:lr-tb;text-anchor:start;fill:#3465a4;fill-opacity:1;stroke:none;stroke-width:1px;stroke-linecap:butt;stroke-linejoin:miter;stroke-opacity:1;font-family:Tahoma"
       d="M 7.8629624,7 C 7.4407442,6.9999999 7.1117446,6.8800521 6.8759625,6.6401563 C 6.6401784,6.4002611 6.5222869,6.021226 6.5222874,5.5030502 L 6.5222874,2.957413 L 6,2.957413 L 6,2.3158631 L 6.5222874,2.3158631 L 6.5222874,0.99575077 L 7.2954373,0.99575077 L 7.2954373,2.3158631 L 8.7183622,2.3158631 L 8.7183622,2.957413 L 7.2954373,2.957413 L 7.2954373,5.1411503 C 7.295436,5.3741935 7.2995485,5.5537724 7.307775,5.6798877 C 7.3159985,5.8060054 7.3475277,5.923897 7.4023624,6.0335626 C 7.4489692,6.1295218 7.5243649,6.2014904 7.6285498,6.2494689 C 7.7327314,6.2974486 7.873927,6.3214382 8.0521373,6.3214376 C 8.1782517,6.3214382 8.3002558,6.302932 8.4181498,6.2659189 C 8.5360388,6.2289071 8.6210304,6.1980633 8.6731248,6.1733876 L 8.7183622,6.1733876 L 8.7183622,6.8684001 C 8.5730513,6.909525 8.4256869,6.9417396 8.2762686,6.9650438 C 8.1268455,6.9883479 7.9890769,6.9999999 7.8629624,7 L 7.8629624,7 z "
       id="path1994" />
    <path
       style="font-size:12px;font-style:normal;font-variant:normal;font-weight:normal;font-stretch:normal;text-align:start;line-height:125%;writing-mode:lr-tb;text-anchor:start;fill:#3465a4;fill-opacity:1;stroke:none;stroke-width:1px;stroke-linecap:butt;stroke-linejoin:miter;stroke-opacity:1;font-family:Tahoma"
       d="M 14.099601,2.4570898 L 12.387367,7 L 11.700033,7 L 10,2.4570898 L 10.825614,2.4570898 L 12.070136,5.9628988 L 13.302457,2.4570898 L 14.099601,2.4570898 z "
       id="text1987" />
  </g>
</svg>
