<?xml version="1.0" encoding="UTF-8" standalone="no"?>
<!-- Created with Inkscape (http://www.inkscape.org/) -->
<svg
   xmlns:dc="http://purl.org/dc/elements/1.1/"
   xmlns:cc="http://web.resource.org/cc/"
   xmlns:rdf="http://www.w3.org/1999/02/22-rdf-syntax-ns#"
   xmlns:svg="http://www.w3.org/2000/svg"
   xmlns="http://www.w3.org/2000/svg"
   xmlns:sodipodi="http://sodipodi.sourceforge.net/DTD/sodipodi-0.dtd"
   xmlns:inkscape="http://www.inkscape.org/namespaces/inkscape"
   width="16px"
   height="16px"
   id="svg3442"
   sodipodi:version="0.32"
   inkscape:version="0.44.1"
   sodipodi:docbase="e:\dev_clean\src\houdini\support\icons\view"
   sodipodi:docname="display_objectnames_path.svg">
  <defs
     id="defs3444" />
  <sodipodi:namedview
     id="base"
     pagecolor="#ffffff"
     bordercolor="#666666"
     borderopacity="1.0"
     inkscape:pageopacity="0.0"
     inkscape:pageshadow="2"
     inkscape:zoom="22.197802"
     inkscape:cx="8"
     inkscape:cy="8"
     inkscape:current-layer="layer1"
     showgrid="true"
     inkscape:grid-bbox="true"
     inkscape:document-units="px"
     inkscape:window-width="1327"
     inkscape:window-height="1078"
     inkscape:window-x="295"
     inkscape:window-y="5" />
  <metadata
     id="metadata3447">
    <rdf:RDF>
      <cc:Work
         rdf:about="">
        <dc:format>image/svg+xml</dc:format>
        <dc:type
           rdf:resource="http://purl.org/dc/dcmitype/StillImage" />
      </cc:Work>
    </rdf:RDF>
  </metadata>
  <g
     id="layer1"
     inkscape:label="Layer 1"
     inkscape:groupmode="layer">
    <g
       id="g3464"
       transform="translate(0,-1.937129)">
      <path
         id="path3450"
         d="M 2.5,4.0714283 L 3.2857142,11.92857 L 7.9999991,13.499998 L 12.714284,11.142856 L 13.499998,4.0714283 L 7.9999991,2.5 L 2.5,4.0714283 z "
         style="fill:#d3d7cf;fill-opacity:1;fill-rule:evenodd;stroke:#888a85;stroke-width:0.99999952px;stroke-linecap:butt;stroke-linejoin:miter;stroke-opacity:1" />
      <path
         sodipodi:nodetypes="ccccc"
         id="path3452"
         d="M 8,13 L 8,6 L 13,4.4673266 L 12.270297,10.774752 L 8,13 z "
         style="fill:#babdb6;fill-opacity:1;fill-rule:evenodd;stroke:none;stroke-width:1px;stroke-linecap:butt;stroke-linejoin:miter;stroke-opacity:1" />
      <path
         id="path3454"
         d="M 3,4.4222771 L 8,6 L 13,4.5123761 L 8,3 L 3,4.4222771 z "
         style="fill:#eeeeec;fill-opacity:1;fill-rule:evenodd;stroke:none;stroke-width:1px;stroke-linecap:butt;stroke-linejoin:miter;stroke-opacity:1" />
    </g>
    <path
       id="path3499"
       style="font-size:9.20012474px;font-style:normal;font-variant:normal;font-weight:normal;font-stretch:normal;text-align:start;line-height:125%;writing-mode:lr-tb;text-anchor:start;fill:none;fill-opacity:1;stroke:#eeeeec;stroke-width:2;stroke-linecap:butt;stroke-linejoin:miter;stroke-miterlimit:4;stroke-dasharray:none;stroke-opacity:1;font-family:Tahoma"
       d="M 4.2117683,13.650281 L 4.2117683,12.282922 C 4.0074078,12.300567 3.7489115,12.324827 3.4362784,12.355701 C 3.12364,12.386579 2.8712438,12.429952 2.6790891,12.48582 C 2.4503293,12.553456 2.2612228,12.657109 2.1117691,12.796784 C 1.9623125,12.936462 1.887585,13.131274 1.8875861,13.38122 C 1.887585,13.663515 1.9699378,13.876705 2.1346448,14.020791 C 2.2993491,14.164879 2.5403075,14.236922 2.8575205,14.236922 C 3.1289776,14.236922 3.3745111,14.180317 3.5941215,14.067104 C 3.8137262,13.953894 4.0196083,13.814952 4.2117683,13.650281 L 4.2117683,13.650281 z M 4.2117683,14.33837 C 4.1416124,14.388361 4.0478217,14.458199 3.9303959,14.547885 C 3.8129637,14.637573 3.6993473,14.708881 3.5895463,14.761811 C 3.4370383,14.838266 3.2898707,14.897077 3.1480433,14.938244 C 3.0062109,14.979412 2.8071916,14.999996 2.5509846,14.999996 C 2.3405255,14.999996 2.1407437,14.961769 1.9516384,14.885314 C 1.7625307,14.80886 1.5963,14.701529 1.4529457,14.563323 C 1.3156903,14.428058 1.2058866,14.261182 1.1235341,14.062694 C 1.0411809,13.864207 1.0000045,13.654692 1.0000048,13.43415 C 1.0000045,13.093047 1.0747321,12.802667 1.2241877,12.563009 C 1.3736424,12.323357 1.6100254,12.132956 1.9333377,11.991806 C 2.2200464,11.865366 2.558608,11.777884 2.9490237,11.729361 C 3.3394349,11.680846 3.7603494,11.644824 4.2117683,11.621296 L 4.2117683,11.462506 C 4.2117649,11.268433 4.1812638,11.111849 4.1202652,10.992752 C 4.0592596,10.873663 3.9738567,10.781771 3.864056,10.717075 C 3.7542491,10.649447 3.6200445,10.604602 3.4614418,10.582545 C 3.3028337,10.560495 3.139653,10.549467 2.9718995,10.549463 C 2.7736404,10.549467 2.5403075,10.578138 2.2718997,10.635475 C 2.003489,10.692819 1.7350797,10.77589 1.4666713,10.884687 L 1.4163444,10.884687 L 1.4163444,10.042217 C 1.5749492,9.9981134 1.8021821,9.9495939 2.0980436,9.896659 C 2.3939024,9.8437338 2.6867125,9.8172693 2.9764746,9.8172642 C 3.3272345,9.8172693 3.6230947,9.8437338 3.864056,9.896659 C 4.1050112,9.9495939 4.3215687,10.045162 4.513729,10.183364 C 4.6997817,10.318634 4.8385614,10.493597 4.9300687,10.708253 C 5.0215677,10.922918 5.0673193,11.184628 5.0673236,11.493382 L 5.0673236,14.86326 L 4.2117683,14.86326 L 4.2117683,14.33837 z " />
    <path
       id="path3501"
       style="font-size:9.20012474px;font-style:normal;font-variant:normal;font-weight:normal;font-stretch:normal;text-align:start;line-height:125%;writing-mode:lr-tb;text-anchor:start;fill:none;fill-opacity:1;stroke:#eeeeec;stroke-width:2;stroke-linecap:butt;stroke-linejoin:miter;stroke-miterlimit:4;stroke-dasharray:none;stroke-opacity:1;font-family:Tahoma"
       d="M 14.112419,12.38437 C 14.112415,11.796262 14.019386,11.350034 13.833334,11.045682 C 13.647274,10.741339 13.348363,10.589165 12.936602,10.589161 C 12.701741,10.589165 12.464596,10.642095 12.225164,10.747951 C 11.985729,10.853815 11.768409,10.98761 11.573204,11.149337 L 11.573204,13.972272 C 11.78976,14.075192 11.981916,14.147971 12.149674,14.190608 C 12.317428,14.233247 12.501959,14.254565 12.703269,14.254565 C 13.142481,14.254565 13.487143,14.104597 13.737255,13.804659 C 13.98736,13.504724 14.112415,13.031295 14.112419,12.38437 L 14.112419,12.38437 z M 15,12.318209 C 14.999995,13.123922 14.797164,13.772314 14.391504,14.263386 C 13.985835,14.754459 13.477993,14.999996 12.867975,14.999996 C 12.590412,14.999996 12.353267,14.966915 12.156537,14.900752 C 11.959803,14.834589 11.765359,14.745638 11.573204,14.633897 L 11.518302,14.86326 L 10.713073,14.86326 L 10.713073,8 L 11.573204,8 L 11.573204,10.452425 C 11.78976,10.264234 12.024618,10.108384 12.277779,9.9848757 C 12.530935,9.8613772 12.817645,9.7996259 13.137909,9.7996208 C 13.714376,9.7996259 14.168841,10.022373 14.501307,10.467862 C 14.833765,10.913362 14.999995,11.530142 15,12.318209 L 15,12.318209 z " />
    <path
       id="path3482"
       style="font-size:9.20012474px;font-style:normal;font-variant:normal;font-weight:normal;font-stretch:normal;text-align:start;line-height:125%;writing-mode:lr-tb;text-anchor:start;fill:#3465a4;fill-opacity:1;stroke:none;stroke-width:1px;stroke-linecap:butt;stroke-linejoin:miter;stroke-opacity:1;font-family:Tahoma"
       d="M 4.2117633,13.650281 L 4.2117633,12.282922 C 4.0074028,12.300567 3.7489065,12.324827 3.4362734,12.355701 C 3.123635,12.386579 2.8712388,12.429952 2.6790841,12.48582 C 2.4503243,12.553456 2.2612178,12.657109 2.1117641,12.796784 C 1.9623075,12.936462 1.88758,13.131274 1.8875811,13.38122 C 1.88758,13.663515 1.9699328,13.876705 2.1346398,14.020791 C 2.2993441,14.164879 2.5403025,14.236922 2.8575155,14.236922 C 3.1289726,14.236922 3.3745061,14.180317 3.5941165,14.067104 C 3.8137212,13.953894 4.0196033,13.814952 4.2117633,13.650281 L 4.2117633,13.650281 z M 4.2117633,14.33837 C 4.1416074,14.388361 4.0478167,14.458199 3.9303909,14.547885 C 3.8129587,14.637573 3.6993423,14.708881 3.5895413,14.761811 C 3.4370333,14.838266 3.2898657,14.897077 3.1480383,14.938244 C 3.0062059,14.979412 2.8071866,14.999996 2.5509796,14.999996 C 2.3405205,14.999996 2.1407387,14.961769 1.9516334,14.885314 C 1.7625257,14.80886 1.596295,14.701529 1.4529407,14.563323 C 1.3156853,14.428058 1.2058816,14.261182 1.1235291,14.062694 C 1.0411759,13.864207 0.99999948,13.654692 0.99999975,13.43415 C 0.99999948,13.093047 1.0747271,12.802667 1.2241827,12.563009 C 1.3736374,12.323357 1.6100204,12.132956 1.9333327,11.991806 C 2.2200414,11.865366 2.558603,11.777884 2.9490187,11.729361 C 3.3394299,11.680846 3.7603444,11.644824 4.2117633,11.621296 L 4.2117633,11.462506 C 4.2117599,11.268433 4.1812588,11.111849 4.1202602,10.992752 C 4.0592546,10.873663 3.9738517,10.781771 3.864051,10.717075 C 3.7542441,10.649447 3.6200395,10.604602 3.4614368,10.582545 C 3.3028287,10.560495 3.139648,10.549467 2.9718945,10.549463 C 2.7736354,10.549467 2.5403025,10.578138 2.2718947,10.635475 C 2.003484,10.692819 1.7350747,10.77589 1.4666663,10.884687 L 1.4163394,10.884687 L 1.4163394,10.042217 C 1.5749442,9.9981138 1.8021771,9.9495943 2.0980386,9.8966594 C 2.3938974,9.8437342 2.6867075,9.8172697 2.9764696,9.8172646 C 3.3272295,9.8172697 3.6230897,9.8437342 3.864051,9.8966594 C 4.1050062,9.9495943 4.3215637,10.045162 4.513724,10.183364 C 4.6997767,10.318634 4.8385564,10.493597 4.9300637,10.708253 C 5.0215627,10.922918 5.0673143,11.184628 5.0673186,11.493382 L 5.0673186,14.86326 L 4.2117633,14.86326 L 4.2117633,14.33837 z " />
    <path
       id="path3478"
       style="font-size:9.20012474px;font-style:normal;font-variant:normal;font-weight:normal;font-stretch:normal;text-align:start;line-height:125%;writing-mode:lr-tb;text-anchor:start;fill:#3465a4;fill-opacity:1;stroke:none;stroke-width:1px;stroke-linecap:butt;stroke-linejoin:miter;stroke-opacity:1;font-family:Tahoma"
       d="M 14.112414,12.38437 C 14.11241,11.796262 14.019381,11.350034 13.833329,11.045682 C 13.647269,10.741339 13.348358,10.589165 12.936597,10.589161 C 12.701736,10.589165 12.464591,10.642095 12.225159,10.747951 C 11.985724,10.853815 11.768404,10.98761 11.573199,11.149337 L 11.573199,13.972272 C 11.789755,14.075192 11.981911,14.147971 12.149669,14.190608 C 12.317423,14.233247 12.501954,14.254565 12.703264,14.254565 C 13.142476,14.254565 13.487138,14.104597 13.73725,13.804659 C 13.987355,13.504724 14.11241,13.031295 14.112414,12.38437 L 14.112414,12.38437 z M 14.999995,12.318209 C 14.99999,13.123922 14.797159,13.772314 14.391499,14.263386 C 13.98583,14.754459 13.477988,14.999996 12.86797,14.999996 C 12.590407,14.999996 12.353262,14.966915 12.156532,14.900752 C 11.959798,14.834589 11.765354,14.745638 11.573199,14.633897 L 11.518297,14.86326 L 10.713068,14.86326 L 10.713068,8.0000004 L 11.573199,8.0000004 L 11.573199,10.452425 C 11.789755,10.264234 12.024613,10.108384 12.277774,9.9848761 C 12.53093,9.8613776 12.81764,9.7996263 13.137904,9.7996212 C 13.714371,9.7996263 14.168836,10.022373 14.501302,10.467862 C 14.83376,10.913362 14.99999,11.530142 14.999995,12.318209 L 14.999995,12.318209 z " />
    <path
       style="font-size:6.8401885px;font-style:normal;font-variant:normal;font-weight:normal;font-stretch:normal;text-align:start;line-height:125%;writing-mode:lr-tb;text-anchor:start;fill:none;fill-opacity:1;stroke:#eeeeec;stroke-width:2;stroke-linecap:butt;stroke-linejoin:miter;stroke-miterlimit:4;stroke-dasharray:none;stroke-opacity:1;font-family:Tahoma"
       d="M 9.1168317,8.3130124 L 7.2884307,15 L 6.5782137,15 L 8.3972077,8.3130124 L 9.1168317,8.3130124 z "
       id="path3524"
       sodipodi:nodetypes="ccccc" />
    <path
       style="font-size:6.8401885px;font-style:normal;font-variant:normal;font-weight:normal;font-stretch:normal;text-align:start;line-height:125%;writing-mode:lr-tb;text-anchor:start;fill:#3465a4;fill-opacity:1;stroke:none;stroke-width:1px;stroke-linecap:butt;stroke-linejoin:miter;stroke-opacity:1;font-family:Tahoma"
       d="M 9.0576067,8.2729072 L 7.2292067,14.959895 L 6.5189907,14.959895 L 8.3379827,8.2729072 L 9.0576067,8.2729072 z "
       id="path3510"
       sodipodi:nodetypes="ccccc" />
  </g>
</svg>
