<?xml version="1.0" encoding="UTF-8" standalone="no"?>
<!-- Created with Inkscape (http://www.inkscape.org/) -->

<svg
   xmlns:dc="http://purl.org/dc/elements/1.1/"
   xmlns:cc="http://creativecommons.org/ns#"
   xmlns:rdf="http://www.w3.org/1999/02/22-rdf-syntax-ns#"
   xmlns:svg="http://www.w3.org/2000/svg"
   xmlns="http://www.w3.org/2000/svg"
   xmlns:xlink="http://www.w3.org/1999/xlink"
   xmlns:sodipodi="http://sodipodi.sourceforge.net/DTD/sodipodi-0.dtd"
   xmlns:inkscape="http://www.inkscape.org/namespaces/inkscape"
   width="16"
   height="16"
   id="svg2"
   sodipodi:version="0.32"
   inkscape:version="0.48.4 r9939"
   version="1.0"
   sodipodi:docname="VIEW_display_objects.svg"
   inkscape:output_extension="org.inkscape.output.svg.inkscape">
  <defs
     id="defs4">
    <linearGradient
       id="linearGradient6810">
      <stop
         style="stop-color:#eeeeec;stop-opacity:1;"
         offset="0"
         id="stop6812" />
      <stop
         style="stop-color:#b3b3aa;stop-opacity:1;"
         offset="1"
         id="stop6814" />
    </linearGradient>
    <linearGradient
       id="linearGradient3843">
      <stop
         id="stop3845"
         offset="0"
         style="stop-color:#717171;stop-opacity:1;" />
      <stop
         id="stop3847"
         offset="1"
         style="stop-color:#000000;stop-opacity:1;" />
    </linearGradient>
    <linearGradient
       id="linearGradient3136">
      <stop
         style="stop-color:#eeecec;stop-opacity:0.6015625;"
         offset="0"
         id="stop3138" />
      <stop
         style="stop-color:#eeeeec;stop-opacity:0;"
         offset="1"
         id="stop3140" />
    </linearGradient>
    <linearGradient
       inkscape:collect="always"
       xlink:href="#linearGradient3136"
       id="linearGradient3142"
       x1="4.1741071"
       y1="10.419642"
       x2="4.21875"
       y2="13.678571"
       gradientUnits="userSpaceOnUse"
       gradientTransform="matrix(1,0,0,0.9459459,0,-1.358832)" />
    <linearGradient
       inkscape:collect="always"
       xlink:href="#linearGradient3136"
       id="linearGradient3146"
       gradientUnits="userSpaceOnUse"
       x1="4.1741071"
       y1="10.419642"
       x2="4.21875"
       y2="13.678571"
       gradientTransform="matrix(1,0,0,0.9256757,7.2321429,-1.1038849)" />
    <radialGradient
       inkscape:collect="always"
       xlink:href="#linearGradient3843"
       id="radialGradient3827"
       cx="5.9299436"
       cy="7.7311077"
       fx="5.9299436"
       fy="7.7311077"
       r="3.0051172"
       gradientTransform="matrix(1.3016948,0.66664428,-0.50592365,0.98939537,2.0983463,-4.3035896)"
       gradientUnits="userSpaceOnUse" />
    <radialGradient
       inkscape:collect="always"
       xlink:href="#linearGradient3843"
       id="radialGradient3829"
       cx="1.1377141"
       cy="7.1356039"
       fx="1.1377141"
       fy="7.1356039"
       r="1.4868613"
       gradientTransform="matrix(1.3992294,0.64101679,-0.79694681,1.742283,5.9430569,-9.5129894)"
       gradientUnits="userSpaceOnUse" />
    <linearGradient
       inkscape:collect="always"
       xlink:href="#linearGradient6810"
       id="linearGradient6816"
       x1="9.0003347"
       y1="7.149261"
       x2="15.971436"
       y2="6.8367609"
       gradientUnits="userSpaceOnUse" />
    <linearGradient
       inkscape:collect="always"
       xlink:href="#linearGradient6810-7"
       id="linearGradient6816-1"
       x1="4.4244418"
       y1="4.5376539"
       x2="11.462507"
       y2="5.274261"
       gradientUnits="userSpaceOnUse" />
    <linearGradient
       id="linearGradient6810-7">
      <stop
         style="stop-color:#eeeeec;stop-opacity:1;"
         offset="0"
         id="stop6812-4" />
      <stop
         style="stop-color:#b3b3aa;stop-opacity:1;"
         offset="1"
         id="stop6814-0" />
    </linearGradient>
    <linearGradient
       gradientTransform="translate(-0.02712073,-0.9926223)"
       y2="6.836761"
       x2="15.971436"
       y1="7.149261"
       x1="9.0003347"
       gradientUnits="userSpaceOnUse"
       id="linearGradient6833"
       xlink:href="#linearGradient6810-7"
       inkscape:collect="always" />
  </defs>
  <sodipodi:namedview
     id="base"
     pagecolor="#ffffff"
     bordercolor="#666666"
     borderopacity="1.0"
     gridtolerance="10000"
     guidetolerance="10"
     objecttolerance="10"
     inkscape:pageopacity="0.0"
     inkscape:pageshadow="2"
     inkscape:zoom="44.8"
     inkscape:cx="0.97978994"
     inkscape:cy="7.4947563"
     inkscape:document-units="px"
     inkscape:current-layer="layer1"
     width="16px"
     height="16px"
     inkscape:window-width="2560"
     inkscape:window-height="1496"
     inkscape:window-x="-8"
     inkscape:window-y="-8"
     showgrid="false"
     inkscape:window-maximized="1" />
  <metadata
     id="metadata7">
    <rdf:RDF>
      <cc:Work
         rdf:about="">
        <dc:format>image/svg+xml</dc:format>
        <dc:type
           rdf:resource="http://purl.org/dc/dcmitype/StillImage" />
        <dc:title />
      </cc:Work>
    </rdf:RDF>
  </metadata>
  <g
     inkscape:label="Layer 1"
     inkscape:groupmode="layer"
     id="layer1">
    <path
       style="color:#000000;fill:url(#linearGradient6816-1);fill-opacity:1;fill-rule:evenodd;stroke:#2e3436;stroke-width:0.50000000000000000;stroke-linecap:butt;stroke-linejoin:bevel;stroke-miterlimit:4;stroke-opacity:1;stroke-dasharray:none;stroke-dashoffset:0;marker:none;visibility:visible;display:inline;overflow:visible;enable-background:accumulate"
       d="m 1.9498281,1.30733 c 0,0 2.8085358,0.6024111 5.1730476,1.7780852 2.3645136,1.1756699 3.9786603,2.7708997 3.9786603,2.7708997 l 0.22163,0.6705995 -0.507623,0.7349875 c 0,0 -1.6584188,-2.219863 -3.2838608,-2.7665156 -1.6254419,-0.5466525 -3.6993725,0.08014 -3.6993725,0.08014 L 1.9498281,1.30733 z"
       id="path3803"
       sodipodi:nodetypes="cscccscc"
       inkscape:connector-curvature="0" />
    <path
       style="fill:url(#linearGradient6816);fill-opacity:1;fill-rule:evenodd;stroke:#2e3436;stroke-width:0.50000000000000000;stroke-linecap:butt;stroke-linejoin:miter;stroke-miterlimit:4;stroke-opacity:1;stroke-dasharray:none"
       d="m 1.8130414,1.2467763 c 0.2951239,-0.071677 1.0854167,0.8008639 1.4056838,1.3320178 0.4797538,0.7956577 0.8606797,2.0437036 1.5148425,2.4752574 0.790371,0.5214108 1.8648044,0.3995116 3.4054395,1.412736 1.4399709,0.947021 1.8891668,1.6826678 2.9838288,2.2219715 1.756275,0.8652584 3.045731,0.6751427 4.254246,1.1451202 0.365262,0.1420455 0.396338,0.8258658 0.292846,1.0460528 -0.150834,0.3208 -0.496882,0.725255 -0.66564,0.623622 -0.246212,-0.148278 -0.157368,-0.901214 -0.744175,-0.791602 -1.478232,0.276125 -2.82223,0.614495 -5.0203655,1.517742 C 8.2007361,12.656641 6.8096633,12.342685 5.7150971,11.860518 4.754937,11.436411 4.0501666,10.455197 3.8974178,9.5066457 3.73027,8.4686856 4.582083,6.6767103 4.0911286,6.2819388 3.6001741,5.8871676 2.7117287,8.163296 1.9792284,7.9929031 1.3785699,7.8531822 0.51071329,7.0791237 0.31357075,6.0419914 0.16655962,5.2685941 0.48545943,3.959853 0.88994968,2.7626321 1.0876664,2.1774248 1.6048045,1.297351 1.8130414,1.2467763 z"
       id="path3801"
       sodipodi:nodetypes="cssssssssssssssss"
       inkscape:connector-curvature="0" />
    <path
       style="color:#000000;fill:url(#radialGradient3829);fill-opacity:1;fill-rule:evenodd;stroke:none;stroke-width:0.25;marker:none;visibility:visible;display:inline;overflow:visible;enable-background:accumulate"
       d="M 1.7478461,2.690737 C 2.0244451,2.4971593 2.4414427,3.0989195 2.7395228,3.6785914 2.9791343,4.1445606 3.4079411,4.7531148 3.3107866,5.1908945 3.2351303,5.5318031 2.5832889,6.6811625 2.2622543,6.7892575 1.9761363,6.8855957 1.6298482,6.7836857 1.3082905,6.3105909 1.1397257,6.0625887 0.96168424,5.3609569 1.0037308,4.8504006 1.0440271,4.3610952 1.4089085,2.9279425 1.7478461,2.690737 z"
       id="path3807"
       sodipodi:nodetypes="cssssss"
       inkscape:connector-curvature="0" />
    <path
       style="color:#000000;fill:url(#radialGradient3827);fill-opacity:1;fill-rule:evenodd;stroke:none;stroke-width:0.25;marker:none;visibility:visible;display:inline;overflow:visible;enable-background:accumulate"
       d="M 5.0666292,7.0510359 C 5.0386624,6.4971359 5.39787,6.3683032 5.7350583,6.4203529 6.0622189,6.4708547 6.9491764,6.7775287 7.962144,7.5094148 9.1192113,8.3454151 9.464784,8.7027964 9.6237271,8.8830076 9.8035512,9.0868933 9.9151214,9.4270161 9.7786138,9.6994899 9.5511019,10.153613 9.2024327,10.80267 8.8212747,11.094457 8.4401177,11.386245 7.5104465,11.459634 7.1383303,11.358161 6.6897092,11.235825 5.7384366,10.749775 5.4074004,10.404396 5.1450655,10.130696 4.8798502,9.6282368 4.8479094,9.1291706 4.8073558,8.4955318 5.0290747,7.0321924 5.0666292,7.0510359 z"
       id="path3809"
       sodipodi:nodetypes="cssssssssc"
       inkscape:connector-curvature="0" />
  </g>
</svg>
