<?xml version="1.0" encoding="UTF-8" standalone="no"?>
<!-- Created with Inkscape (http://www.inkscape.org/) -->

<svg
   xmlns:dc="http://purl.org/dc/elements/1.1/"
   xmlns:cc="http://creativecommons.org/ns#"
   xmlns:rdf="http://www.w3.org/1999/02/22-rdf-syntax-ns#"
   xmlns:svg="http://www.w3.org/2000/svg"
   xmlns="http://www.w3.org/2000/svg"
   xmlns:xlink="http://www.w3.org/1999/xlink"
   xmlns:sodipodi="http://sodipodi.sourceforge.net/DTD/sodipodi-0.dtd"
   xmlns:inkscape="http://www.inkscape.org/namespaces/inkscape"
   width="16px"
   height="16px"
   id="svg1872"
   sodipodi:version="0.32"
   inkscape:version="0.48.4 r9939"
   sodipodi:docname="display_primitive_numbers.svg"
   inkscape:output_extension="org.inkscape.output.svg.inkscape"
   version="1.1">
  <defs
     id="defs1874">
    <linearGradient
       inkscape:collect="always"
       id="linearGradient2993">
      <stop
         style="stop-color:#2e3436;stop-opacity:1;"
         offset="0"
         id="stop2995" />
      <stop
         style="stop-color:#2e3436;stop-opacity:0;"
         offset="1"
         id="stop2997" />
    </linearGradient>
    <linearGradient
       id="linearGradient2943">
      <stop
         style="stop-color:#e8eae6;stop-opacity:1;"
         offset="0"
         id="stop2945" />
      <stop
         style="stop-color:#b5b6b3;stop-opacity:1"
         offset="1"
         id="stop2947" />
    </linearGradient>
    <linearGradient
       id="linearGradient2911">
      <stop
         style="stop-color:white;stop-opacity:1;"
         offset="0"
         id="stop2913" />
      <stop
         style="stop-color:#8e8e8e;stop-opacity:1;"
         offset="1"
         id="stop2915" />
    </linearGradient>
    <linearGradient
       id="linearGradient2881">
      <stop
         style="stop-color:#c8daed;stop-opacity:1;"
         offset="0"
         id="stop2883" />
      <stop
         style="stop-color:#4a84c2;stop-opacity:1;"
         offset="1"
         id="stop2885" />
    </linearGradient>
    <radialGradient
       inkscape:collect="always"
       xlink:href="#linearGradient2911"
       id="radialGradient2921"
       gradientUnits="userSpaceOnUse"
       cx="3.2992275"
       cy="3.4160771"
       fx="3.2992275"
       fy="3.4160771"
       r="2.7505228" />
    <linearGradient
       inkscape:collect="always"
       xlink:href="#linearGradient2943"
       id="linearGradient2949"
       x1="5.5666151"
       y1="7.6516643"
       x2="9.5699863"
       y2="13.191229"
       gradientUnits="userSpaceOnUse"
       gradientTransform="matrix(0.873887,-0.517581,0.880597,1.039926,-7.334299,2.454529)" />
    <linearGradient
       inkscape:collect="always"
       xlink:href="#linearGradient2993"
       id="linearGradient2999"
       x1="8.3214521"
       y1="9.603466"
       x2="12.50264"
       y2="11.585645"
       gradientUnits="userSpaceOnUse"
       gradientTransform="matrix(0.997775,-6.666745e-2,6.666745e-2,0.997775,-2.886273e-2,-0.196089)" />
  </defs>
  <sodipodi:namedview
     id="base"
     pagecolor="#ffffff"
     bordercolor="#666666"
     borderopacity="1.0"
     inkscape:pageopacity="0.0"
     inkscape:pageshadow="2"
     inkscape:zoom="33.296703"
     inkscape:cx="10.500168"
     inkscape:cy="7.7447195"
     inkscape:current-layer="layer1"
     showgrid="true"
     inkscape:grid-bbox="false"
     inkscape:document-units="px"
     inkscape:window-width="1300"
     inkscape:window-height="1050"
     inkscape:window-x="386"
     inkscape:window-y="22"
     inkscape:window-maximized="0">
    <inkscape:grid
       type="xygrid"
       id="grid6723" />
  </sodipodi:namedview>
  <metadata
     id="metadata1877">
    <rdf:RDF>
      <cc:Work
         rdf:about="">
        <dc:format>image/svg+xml</dc:format>
        <dc:type
           rdf:resource="http://purl.org/dc/dcmitype/StillImage" />
        <dc:title></dc:title>
      </cc:Work>
    </rdf:RDF>
  </metadata>
  <g
     id="layer1"
     inkscape:label="Layer 1"
     inkscape:groupmode="layer">
    <path
       style="fill:url(#linearGradient2949);fill-opacity:1;fill-rule:evenodd;stroke:#2e3436;stroke-width:1.00000012px;stroke-linecap:butt;stroke-linejoin:miter;stroke-opacity:1"
       d="M 0.98909334,10.401462 L 12.63443,15.362333 L 14.516433,7.3124398 L 6.4153978,4.0558791 L 0.98909334,10.401462 z "
       id="path2941"
       sodipodi:nodetypes="ccccc" />
    <path
       style="fill:none;fill-opacity:1;fill-rule:evenodd;stroke:white;stroke-width:1.00000012px;stroke-linecap:butt;stroke-linejoin:miter;stroke-opacity:0.60784316"
       d="M 2.5765943,10.055062 L 11.90939,13.994811 L 13.370931,7.897063 L 6.7114796,5.2711954 L 2.5765943,10.055062 z "
       id="path3003"
       sodipodi:nodetypes="ccccc" />
    <path
       style="font-size:10px;font-style:normal;font-variant:normal;font-weight:bold;font-stretch:normal;text-align:start;line-height:125%;writing-mode:lr-tb;text-anchor:start;color:#000000;fill:#2e3436;fill-opacity:0.67763156999999996;fill-rule:nonzero;stroke:none;stroke-width:2;marker:none;visibility:visible;display:inline;overflow:visible;enable-background:accumulate;font-family:Tahoma"
       d="m 6.9375,1.0267739 -0.0625,0.8125 c -0.016958,0.00306 -0.00905,-0.0029 -0.03125,0 -0.1411221,0.018469 -0.2622615,4.2e-6 -0.40625,0 l -1,0 0,1 0,1 0,1 1,0 0.28125,0 0,1.15625 -0.28125,0 -1,0 0,1 0,1.03125 0,1 1,0 3.5625,0 0.4375,0 0.5625,0 0.4375,0 3.5625,0 1,0 0,-1 0,-1.09375 0,-1 -1,0 c 0.155401,-0.2206275 0.362591,-0.4228696 0.46875,-0.65625 0.205399,-0.4515671 0.312492,-0.9455124 0.3125,-1.4375 -7e-6,-0.7593767 -0.259172,-1.5470786 -0.8125,-2.0625 -0.568893,-0.5298896 -1.350378,-0.7187424 -2.15625,-0.71875 -0.393482,7.8e-6 -0.789708,0.055498 -1.1875,0.15625 -0.363712,0.092132 -0.654224,0.167162 -0.9375,0.3125 l -0.5,0.25 0,-0.75 -1,0 -1.34375,0 -0.90625,0 z m 5.40625,3.1875 c -0.0088,0.02213 -0.01761,0.036408 -0.03125,0.0625 -0.06222,0.1190423 -0.205329,0.3298151 -0.4375,0.59375 -0.182609,0.2061317 -0.403488,0.4147069 -0.65625,0.65625 -0.150816,0.1441217 -0.330449,0.311382 -0.5,0.46875 l -0.28125,0 -0.25,0 0,-1.28125 0.96875,0 0.09375,0 0.3125,0 0.28125,-0.1875 c 0.04392,-0.031549 0.09974,-0.093205 0.1875,-0.15625 0.02897,-0.020808 0.07171,-0.052665 0.15625,-0.09375 0.05573,-0.025402 0.11212,-0.047443 0.15625,-0.0625 z"
       id="path2932"
       inkscape:connector-curvature="0" />
    <path
       style="font-size:10px;font-style:normal;font-variant:normal;font-weight:bold;font-stretch:normal;text-align:start;line-height:125%;writing-mode:lr-tb;text-anchor:start;fill:#eeeeec;fill-opacity:1;stroke:none;font-family:Tahoma"
       d="m 10.432013,8.0379537 -3.9999998,0 0,-1.0448761 1.2764227,0 0,-3.1627595 -1.2764227,0 0,-0.9765573 C 6.6190041,2.8537661 6.8046407,2.8417098 6.9889238,2.817592 7.173204,2.7934847 7.3209004,2.7546368 7.4320132,2.7010482 7.5620926,2.6367534 7.6630409,2.5503504 7.7348587,2.4418386 7.8066723,2.3333379 7.8480002,2.1987097 7.8588425,2.0379537 l 1.3252033,0 0,4.9551239 1.2479672,0 0,1.0448761 z"
       id="path2930"
       inkscape:connector-curvature="0" />
    <path
       style="font-size:10px;font-style:normal;font-variant:normal;font-weight:bold;font-stretch:normal;text-align:start;line-height:125%;writing-mode:lr-tb;text-anchor:start;fill:#eeeeec;fill-opacity:1;stroke:none;font-family:Tahoma"
       d="m 15.011551,8.0379537 -4,0 0,-0.9573411 c 0.338817,-0.2889082 0.6429,-0.5620588 0.912249,-0.8194524 0.269346,-0.25739 0.506397,-0.5016496 0.711152,-0.7327796 0.265689,-0.3020388 0.458254,-0.5673101 0.577697,-0.7958143 0.119436,-0.2284976 0.179155,-0.4635646 0.179158,-0.7052018 -3e-6,-0.2731466 -0.07557,-0.4826057 -0.226691,-0.6283782 -0.15113,-0.1457632 -0.361977,-0.2186471 -0.632541,-0.2186519 -0.138942,4.8e-6 -0.269959,0.01839 -0.393053,0.055155 -0.123097,0.036775 -0.248021,0.084051 -0.374771,0.1418284 -0.124316,0.060413 -0.230349,0.1221344 -0.318099,0.1851647 -0.08775,0.063039 -0.153566,0.1103152 -0.197441,0.1418283 l -0.106032,0 0,-1.2803944 c 0.153564,-0.078788 0.393661,-0.1595511 0.720292,-0.24229 0.326628,-0.082727 0.64107,-0.1240938 0.943327,-0.1240998 0.645945,6e-6 1.13528,0.1549663 1.468007,0.4648816 0.33272,0.3099264 0.499082,0.7459167 0.499087,1.3079722 -5e-6,0.3466953 -0.07557,0.6861636 -0.226692,1.0184061 -0.151131,0.3322487 -0.402197,0.688789 -0.753199,1.0696217 -0.219381,0.2337559 -0.432666,0.4419018 -0.639853,0.6244385 -0.207194,0.1825396 -0.357103,0.3118921 -0.449727,0.388058 l 2.30713,0 0,1.1070487 z"
       id="text2923"
       inkscape:connector-curvature="0" />
  </g>
</svg>
