<?xml version="1.0" encoding="UTF-8"?>
<svg width="24px" height="24px" viewBox="0 0 24 24" version="1.1" xmlns="http://www.w3.org/2000/svg" xmlns:xlink="http://www.w3.org/1999/xlink">
    <!-- Generator: Sketch 57.1 (83088) - https://sketch.com -->
    <title>drawing_06</title>
    <desc>Created with Sketch.</desc>
    <defs>
        <linearGradient x1="47.452553%" y1="29.6395495%" x2="70.0161269%" y2="54.074925%" id="linearGradient-1">
            <stop stop-color="#FFFFFF" stop-opacity="0.847984047" offset="0%"></stop>
            <stop stop-color="#7F7F7F" stop-opacity="0.847984047" offset="100%"></stop>
        </linearGradient>
        <linearGradient x1="30.2025421%" y1="26.3611387%" x2="77.4103544%" y2="69.9330035%" id="linearGradient-2">
            <stop stop-color="#3E3E3E" offset="0%"></stop>
            <stop stop-color="#787777" offset="27.0455025%"></stop>
            <stop stop-color="#000000" offset="100%"></stop>
        </linearGradient>
    </defs>
    <g id="drawing_06" stroke="none" stroke-width="1" fill="none" fill-rule="evenodd">
        <path d="M16.950973,1.7061272 C18.2984363,1.9859454 19.4639486,2.60498047 20.4475098,3.56323242 C21.431071,4.52148438 22.1103274,5.74721797 22.485279,7.24043321 L10.1248199,19.6008924 L2.49023438,21.7011719 L4.59051388,14.0665864 L16.950973,1.7061272 Z" id="Path-2-Copy" stroke-opacity="0.701622596" stroke="#FFFFFF" stroke-width="3" fill-rule="nonzero"></path>
        <path d="M16.950973,1.7061272 C18.2984363,1.9859454 19.4639486,2.60498047 20.4475098,3.56323242 C21.431071,4.52148438 22.1103274,5.74721797 22.485279,7.24043321 L10.1248199,19.6008924 L2.49023438,21.7011719 L4.59051388,14.0665864 L16.950973,1.7061272 Z" id="Path-2" stroke-opacity="0.701622596" stroke="#000000" fill="url(#linearGradient-1)" fill-rule="nonzero"></path>
        <path d="M3.17749023,21.043257 L5.01933809,14.3079834 C6.39755954,15.052105 7.3401695,15.6881874 7.84716797,16.2162306 C8.35416643,16.7442739 9.01094541,17.7316192 9.81750488,19.1782667 L3.17749023,21.043257 Z" id="Path-3-Copy" fill="#FFFFFF"></path>
        <path d="M3.17749023,21.043257 L4.08911133,17.7096388 C4.72661075,18.1145126 5.16838321,18.4569605 5.41442871,18.7369826 C5.66047421,19.0170046 5.94062558,19.4961713 6.25488281,20.1744826 L3.17749023,21.043257 Z" id="Path-3" fill="#000000"></path>
        <path d="M10.7290039,7.8963623 C12.2782389,8.44140625 13.4752401,9.13895671 14.3200073,9.98901367 C15.1647746,10.8390706 15.8337402,11.9902751 16.3269043,13.442627 L22.541748,7.32519531 C21.8365072,5.70751953 21.1020508,4.51277669 20.3383789,3.7409668 C19.574707,2.9691569 18.5146991,2.31975492 17.1583551,1.79276087 L10.7290039,7.8963623 Z" id="Path-4" fill="url(#linearGradient-2)"></path>
    </g>
</svg>