<?xml version="1.0" encoding="UTF-8" standalone="no"?>
<!-- Created with Inkscape (http://www.inkscape.org/) -->
<svg
   xmlns:a="http://ns.adobe.com/AdobeSVGViewerExtensions/3.0/"
   xmlns:dc="http://purl.org/dc/elements/1.1/"
   xmlns:cc="http://web.resource.org/cc/"
   xmlns:rdf="http://www.w3.org/1999/02/22-rdf-syntax-ns#"
   xmlns:svg="http://www.w3.org/2000/svg"
   xmlns="http://www.w3.org/2000/svg"
   xmlns:xlink="http://www.w3.org/1999/xlink"
   xmlns:sodipodi="http://sodipodi.sourceforge.net/DTD/sodipodi-0.dtd"
   xmlns:inkscape="http://www.inkscape.org/namespaces/inkscape"
   width="24"
   height="24"
   id="svg20362"
   sodipodi:version="0.32"
   inkscape:version="0.44"
   version="1.0"
   sodipodi:docbase="e:\dev_clean\src\houdini\support\icons\view"
   sodipodi:docname="layout_viewport2.svg">
  <defs
     id="defs20364">
    <radialGradient
       id="XMLID_543_"
       cx="294.62399"
       cy="80.626503"
       r="48.777199"
       fx="294.62399"
       fy="80.626503"
       gradientUnits="userSpaceOnUse">
      <stop
         offset="0"
         style="stop-color:#BAD1D7"
         id="stop7915" />
      <stop
         offset="0.8258"
         style="stop-color:#6D7580"
         id="stop7917" />
      <stop
         offset="1"
         style="stop-color:#41454C"
         id="stop7919" />
      <a:midPointStop
         offset="0"
         style="stop-color:#BAD1D7" />
      <a:midPointStop
         offset="0.5"
         style="stop-color:#BAD1D7" />
      <a:midPointStop
         offset="0.8258"
         style="stop-color:#6D7580" />
      <a:midPointStop
         offset="0.5"
         style="stop-color:#6D7580" />
      <a:midPointStop
         offset="1"
         style="stop-color:#41454C" />
    </radialGradient>
    <radialGradient
       id="XMLID_542_"
       cx="257.45901"
       cy="35.3755"
       r="68.717003"
       fx="257.45901"
       fy="35.3755"
       gradientUnits="userSpaceOnUse">
      <stop
         offset="0"
         style="stop-color:#FFFFFF"
         id="stop7908" />
      <stop
         offset="1"
         style="stop-color:#8794A0"
         id="stop7910" />
      <a:midPointStop
         offset="0"
         style="stop-color:#FFFFFF" />
      <a:midPointStop
         offset="0.5"
         style="stop-color:#FFFFFF" />
      <a:midPointStop
         offset="1"
         style="stop-color:#8794A0" />
    </radialGradient>
    <radialGradient
       id="XMLID_541_"
       cx="264.957"
       cy="80.291"
       r="53.347801"
       fx="264.957"
       fy="80.291"
       gradientUnits="userSpaceOnUse">
      <stop
         offset="0"
         style="stop-color:#BAD1D7"
         id="stop7901" />
      <stop
         offset="1"
         style="stop-color:#8794A0"
         id="stop7903" />
      <a:midPointStop
         offset="0"
         style="stop-color:#BAD1D7" />
      <a:midPointStop
         offset="0.5"
         style="stop-color:#BAD1D7" />
      <a:midPointStop
         offset="1"
         style="stop-color:#8794A0" />
    </radialGradient>
    <radialGradient
       inkscape:collect="always"
       xlink:href="#XMLID_541_"
       id="radialGradient22257"
       gradientUnits="userSpaceOnUse"
       cx="264.957"
       cy="80.291"
       fx="264.957"
       fy="80.291"
       r="53.347801" />
    <radialGradient
       inkscape:collect="always"
       xlink:href="#XMLID_542_"
       id="radialGradient22259"
       gradientUnits="userSpaceOnUse"
       cx="257.45901"
       cy="35.3755"
       fx="257.45901"
       fy="35.3755"
       r="68.717003" />
    <radialGradient
       inkscape:collect="always"
       xlink:href="#XMLID_543_"
       id="radialGradient22261"
       gradientUnits="userSpaceOnUse"
       cx="294.62399"
       cy="80.626503"
       fx="294.62399"
       fy="80.626503"
       r="48.777199" />
  </defs>
  <sodipodi:namedview
     id="base"
     pagecolor="#ffffff"
     bordercolor="#666666"
     borderopacity="1.0"
     inkscape:pageopacity="0.0"
     inkscape:pageshadow="2"
     inkscape:zoom="22.197802"
     inkscape:cx="11.498976"
     inkscape:cy="9.4824163"
     inkscape:current-layer="layer1"
     showgrid="true"
     inkscape:grid-bbox="true"
     inkscape:document-units="px"
     width="24px"
     height="24px"
     inkscape:window-width="1218"
     inkscape:window-height="1005"
     inkscape:window-x="394"
     inkscape:window-y="20" />
  <metadata
     id="metadata20367">
    <rdf:RDF>
      <cc:Work
         rdf:about="">
        <dc:format>image/svg+xml</dc:format>
        <dc:type
           rdf:resource="http://purl.org/dc/dcmitype/StillImage" />
      </cc:Work>
    </rdf:RDF>
  </metadata>
  <g
     id="layer1"
     inkscape:label="Layer 1"
     inkscape:groupmode="layer">
    <rect
       style="opacity:1;color:black;fill:#eeeeec;fill-opacity:1;fill-rule:evenodd;stroke:#2e3436;stroke-width:1.00000036;stroke-linecap:butt;stroke-linejoin:miter;marker:none;marker-start:none;marker-mid:none;marker-end:none;stroke-miterlimit:4;stroke-dasharray:none;stroke-dashoffset:0.19999994;stroke-opacity:1;visibility:visible;display:inline;overflow:visible"
       id="rect1980"
       width="20.000006"
       height="20.000002"
       x="1.5000017"
       y="1.5000006" />
    <path
       style="font-size:10px;font-style:normal;font-variant:normal;font-weight:normal;font-stretch:normal;text-align:start;line-height:125%;writing-mode:lr-tb;text-anchor:start;fill:black;fill-opacity:1;stroke:none;stroke-width:1px;stroke-linecap:butt;stroke-linejoin:miter;stroke-opacity:1;font-family:Calibri"
       d="M 14.738614,15.432445 C 14.738607,15.524481 14.732216,15.606291 14.719439,15.677875 C 14.706649,15.749458 14.688753,15.809538 14.665751,15.858111 C 14.642736,15.906685 14.612057,15.942478 14.573717,15.965486 C 14.535361,15.988496 14.493178,16 14.447166,16 L 8.9633586,16 C 8.891775,16 8.8291383,15.991051 8.7754518,15.973156 C 8.7217636,15.955261 8.6757455,15.925861 8.6373989,15.884955 C 8.5990491,15.84405 8.5709264,15.785249 8.5530325,15.708553 C 8.5351354,15.631856 8.5261868,15.537265 8.5261884,15.424776 C 8.5261868,15.322514 8.5300226,15.233035 8.5376926,15.156338 C 8.545361,15.079641 8.5619795,15.011894 8.5875449,14.953091 C 8.6131104,14.894292 8.6450673,14.835491 8.683417,14.776688 C 8.7217636,14.717889 8.771616,14.655254 8.832974,14.588783 L 10.758059,12.548652 C 11.202896,12.078251 11.559536,11.656419 11.827978,11.283158 C 12.096411,10.909906 12.303491,10.569885 12.449219,10.263093 C 12.594939,9.956314 12.690809,9.6776494 12.736832,9.4271012 C 12.782846,9.1765656 12.805854,8.941362 12.805859,8.7214921 C 12.805854,8.5016362 12.770063,8.2932767 12.698484,8.0964145 C 12.626896,7.8995681 12.523355,7.7270008 12.387863,7.5787124 C 12.252361,7.4304409 12.082349,7.3128396 11.87783,7.225908 C 11.673302,7.138994 11.4381,7.0955327 11.172221,7.0955238 C 10.860318,7.0955327 10.580376,7.138994 10.332393,7.225908 C 10.084405,7.3128396 9.8670986,7.4074319 9.6804719,7.5096855 C 9.4938422,7.6119561 9.3378921,7.7065484 9.2126235,7.793463 C 9.0873502,7.880394 8.9940369,7.9238553 8.9326803,7.9238473 C 8.8968878,7.9238553 8.8649309,7.9136291 8.8368098,7.8931685 C 8.8086856,7.8727243 8.7856773,7.8394891 8.7677818,7.793463 C 8.7498863,7.7474532 8.7358249,7.6860961 8.7255994,7.6093912 C 8.7153723,7.5327029 8.7102595,7.4406671 8.7102595,7.3332833 C 8.7102595,7.2565954 8.7128151,7.1901252 8.7179294,7.1338722 C 8.7230422,7.0776369 8.7319892,7.0290623 8.7447735,6.9881485 C 8.7575547,6.9472527 8.7741732,6.9089045 8.7946259,6.8731037 C 8.815077,6.837321 8.8559824,6.7925815 8.9173404,6.7388845 C 8.978697,6.6852063 9.084793,6.6123446 9.2356318,6.5202993 C 9.3864675,6.4282728 9.5756513,6.3375153 9.8031866,6.2480262 C 10.030717,6.1585568 10.281259,6.0831385 10.554814,6.0217713 C 10.828361,5.9604241 11.115974,5.9297454 11.41765,5.9297353 C 11.898278,5.9297454 12.318831,5.997494 12.67931,6.1329813 C 13.039779,6.2684885 13.338895,6.4538383 13.57666,6.6890319 C 13.814413,6.9242438 13.992094,7.1977948 14.109701,7.5096855 C 14.227296,7.8215932 14.286097,8.1539452 14.286103,8.5067411 C 14.286097,8.8237618 14.257974,9.139496 14.201737,9.4539452 C 14.145488,9.7684069 14.026607,10.108428 13.845097,10.47401 C 13.663577,10.839601 13.40153,11.246093 13.058958,11.693486 C 12.716375,12.140886 12.261309,12.656032 11.693757,13.238923 L 10.121478,14.880229 L 14.439496,14.880229 C 14.480395,14.88023 14.52002,14.891735 14.558377,14.914743 C 14.596718,14.937753 14.629953,14.972267 14.658082,15.018284 C 14.686198,15.064302 14.706649,15.121825 14.719439,15.19085 C 14.732216,15.259879 14.738607,15.340411 14.738614,15.432445 L 14.738614,15.432445 z "
       id="text1990" />
  </g>
</svg>
