<?xml version="1.0" encoding="UTF-8" standalone="no"?>
<!-- Created with Inkscape (http://www.inkscape.org/) -->
<svg
   xmlns:a="http://ns.adobe.com/AdobeSVGViewerExtensions/3.0/"
   xmlns:dc="http://purl.org/dc/elements/1.1/"
   xmlns:cc="http://web.resource.org/cc/"
   xmlns:rdf="http://www.w3.org/1999/02/22-rdf-syntax-ns#"
   xmlns:svg="http://www.w3.org/2000/svg"
   xmlns="http://www.w3.org/2000/svg"
   xmlns:xlink="http://www.w3.org/1999/xlink"
   xmlns:sodipodi="http://sodipodi.sourceforge.net/DTD/sodipodi-0.dtd"
   xmlns:inkscape="http://www.inkscape.org/namespaces/inkscape"
   width="24"
   height="24"
   id="svg20362"
   sodipodi:version="0.32"
   inkscape:version="0.44"
   version="1.0"
   sodipodi:docbase="e:\dev_clean\src\houdini\support\icons\view"
   sodipodi:docname="layout_viewport3.svg">
  <defs
     id="defs20364">
    <radialGradient
       id="XMLID_543_"
       cx="294.62399"
       cy="80.626503"
       r="48.777199"
       fx="294.62399"
       fy="80.626503"
       gradientUnits="userSpaceOnUse">
      <stop
         offset="0"
         style="stop-color:#BAD1D7"
         id="stop7915" />
      <stop
         offset="0.8258"
         style="stop-color:#6D7580"
         id="stop7917" />
      <stop
         offset="1"
         style="stop-color:#41454C"
         id="stop7919" />
      <a:midPointStop
         offset="0"
         style="stop-color:#BAD1D7" />
      <a:midPointStop
         offset="0.5"
         style="stop-color:#BAD1D7" />
      <a:midPointStop
         offset="0.8258"
         style="stop-color:#6D7580" />
      <a:midPointStop
         offset="0.5"
         style="stop-color:#6D7580" />
      <a:midPointStop
         offset="1"
         style="stop-color:#41454C" />
    </radialGradient>
    <radialGradient
       id="XMLID_542_"
       cx="257.45901"
       cy="35.3755"
       r="68.717003"
       fx="257.45901"
       fy="35.3755"
       gradientUnits="userSpaceOnUse">
      <stop
         offset="0"
         style="stop-color:#FFFFFF"
         id="stop7908" />
      <stop
         offset="1"
         style="stop-color:#8794A0"
         id="stop7910" />
      <a:midPointStop
         offset="0"
         style="stop-color:#FFFFFF" />
      <a:midPointStop
         offset="0.5"
         style="stop-color:#FFFFFF" />
      <a:midPointStop
         offset="1"
         style="stop-color:#8794A0" />
    </radialGradient>
    <radialGradient
       id="XMLID_541_"
       cx="264.957"
       cy="80.291"
       r="53.347801"
       fx="264.957"
       fy="80.291"
       gradientUnits="userSpaceOnUse">
      <stop
         offset="0"
         style="stop-color:#BAD1D7"
         id="stop7901" />
      <stop
         offset="1"
         style="stop-color:#8794A0"
         id="stop7903" />
      <a:midPointStop
         offset="0"
         style="stop-color:#BAD1D7" />
      <a:midPointStop
         offset="0.5"
         style="stop-color:#BAD1D7" />
      <a:midPointStop
         offset="1"
         style="stop-color:#8794A0" />
    </radialGradient>
    <radialGradient
       inkscape:collect="always"
       xlink:href="#XMLID_541_"
       id="radialGradient22257"
       gradientUnits="userSpaceOnUse"
       cx="264.957"
       cy="80.291"
       fx="264.957"
       fy="80.291"
       r="53.347801" />
    <radialGradient
       inkscape:collect="always"
       xlink:href="#XMLID_542_"
       id="radialGradient22259"
       gradientUnits="userSpaceOnUse"
       cx="257.45901"
       cy="35.3755"
       fx="257.45901"
       fy="35.3755"
       r="68.717003" />
    <radialGradient
       inkscape:collect="always"
       xlink:href="#XMLID_543_"
       id="radialGradient22261"
       gradientUnits="userSpaceOnUse"
       cx="294.62399"
       cy="80.626503"
       fx="294.62399"
       fy="80.626503"
       r="48.777199" />
  </defs>
  <sodipodi:namedview
     id="base"
     pagecolor="#ffffff"
     bordercolor="#666666"
     borderopacity="1.0"
     inkscape:pageopacity="0.0"
     inkscape:pageshadow="2"
     inkscape:zoom="22.197802"
     inkscape:cx="11.498976"
     inkscape:cy="9.4824163"
     inkscape:current-layer="layer1"
     showgrid="true"
     inkscape:grid-bbox="true"
     inkscape:document-units="px"
     width="24px"
     height="24px"
     inkscape:window-width="1218"
     inkscape:window-height="1005"
     inkscape:window-x="549"
     inkscape:window-y="61" />
  <metadata
     id="metadata20367">
    <rdf:RDF>
      <cc:Work
         rdf:about="">
        <dc:format>image/svg+xml</dc:format>
        <dc:type
           rdf:resource="http://purl.org/dc/dcmitype/StillImage" />
      </cc:Work>
    </rdf:RDF>
  </metadata>
  <g
     id="layer1"
     inkscape:label="Layer 1"
     inkscape:groupmode="layer">
    <rect
       style="opacity:1;color:black;fill:#eeeeec;fill-opacity:1;fill-rule:evenodd;stroke:#2e3436;stroke-width:1.00000036;stroke-linecap:butt;stroke-linejoin:miter;marker:none;marker-start:none;marker-mid:none;marker-end:none;stroke-miterlimit:4;stroke-dasharray:none;stroke-dashoffset:0.19999994;stroke-opacity:1;visibility:visible;display:inline;overflow:visible"
       id="rect1980"
       width="20.000006"
       height="20.000002"
       x="1.5000017"
       y="1.5000006" />
    <path
       style="font-size:10px;font-style:normal;font-variant:normal;font-weight:normal;font-stretch:normal;text-align:start;line-height:125%;writing-mode:lr-tb;text-anchor:start;fill:black;fill-opacity:1;stroke:none;stroke-width:1px;stroke-linecap:butt;stroke-linejoin:miter;stroke-opacity:1;font-family:Calibri"
       d="M 15,13.08327 C 14.999993,13.528951 14.922376,13.930812 14.767147,14.288855 C 14.611903,14.6469 14.389064,14.953616 14.098628,15.209003 C 13.808181,15.464392 13.450137,15.66094 13.024495,15.79865 C 12.598843,15.936359 12.118114,16.005213 11.582303,16.005213 C 11.256804,16.005213 10.952593,15.978925 10.669665,15.926344 C 10.386733,15.873764 10.135101,15.811169 9.9147671,15.738559 C 9.6944309,15.665948 9.5116523,15.590834 9.3664328,15.513216 C 9.2212109,15.435598 9.129822,15.379263 9.0922659,15.344209 C 9.0547078,15.309156 9.0259142,15.274102 9.0058845,15.23905 C 8.9858532,15.203997 8.9683266,15.161431 8.9533045,15.111356 C 8.9382809,15.06128 8.9270139,14.999936 8.9195032,14.927325 C 8.911991,14.854716 8.9082353,14.765831 8.9082361,14.66067 C 8.9082353,14.480396 8.9257619,14.355206 8.9608161,14.285098 C 8.9958685,14.214994 9.0459445,14.17994 9.1110444,14.179938 C 9.1561119,14.17994 9.244997,14.220002 9.3777,14.300122 C 9.5104004,14.380244 9.6806596,14.466626 9.888477,14.559265 C 10.096291,14.651908 10.33916,14.73829 10.617086,14.81841 C 10.895005,14.898532 11.204225,14.938593 11.544746,14.938592 C 11.875244,14.938593 12.165686,14.896028 12.416071,14.810898 C 12.666447,14.725769 12.876766,14.605588 13.047031,14.450349 C 13.217283,14.295116 13.344978,14.111086 13.430113,13.898261 C 13.515237,13.685439 13.557801,13.453836 13.557808,13.203453 C 13.557801,12.928038 13.50397,12.680161 13.39631,12.459823 C 13.288643,12.239491 13.130903,12.049202 12.923092,11.888955 C 12.715271,11.728715 12.459884,11.606029 12.156926,11.520895 C 11.853963,11.435771 11.509688,11.393206 11.124107,11.393201 L 10.200202,11.393201 C 10.160138,11.393206 10.121329,11.384442 10.083774,11.366911 C 10.046215,11.349389 10.013666,11.320595 9.9861246,11.280529 C 9.9585821,11.240474 9.936047,11.187893 9.9185222,11.122789 C 9.9009945,11.057696 9.8922305,10.972566 9.892232,10.867402 C 9.8922305,10.772262 9.8997422,10.693393 9.9147671,10.630792 C 9.9297875,10.568201 9.9510704,10.518125 9.9786144,10.480563 C 10.006154,10.443011 10.037451,10.41547 10.072507,10.397938 C 10.107558,10.380416 10.147619,10.371653 10.192689,10.371647 L 11.041481,10.371647 C 11.371979,10.371653 11.668681,10.329088 11.931584,10.243953 C 12.19448,10.158829 12.417318,10.036144 12.6001,9.8758931 C 12.782874,9.7156566 12.923087,9.5241153 13.020741,9.3012696 C 13.118383,9.078438 13.167207,8.8293101 13.167214,8.5538829 C 13.167207,8.3535864 13.134658,8.1620451 13.069565,7.9792596 C 13.00446,7.7964896 12.906813,7.6374991 12.776619,7.5022852 C 12.646417,7.3670882 12.479913,7.2606767 12.277109,7.183049 C 12.074297,7.1054398 11.840191,7.0666306 11.574791,7.0666229 C 11.284346,7.0666306 11.01769,7.1104471 10.774826,7.1980725 C 10.531954,7.2857148 10.315374,7.3796073 10.125086,7.47975 C 9.9347948,7.5799113 9.7770551,7.6738039 9.6518666,7.7614292 C 9.5266751,7.8490699 9.4390419,7.8928864 9.3889672,7.8928788 C 9.3539125,7.8928864 9.322615,7.886627 9.2950743,7.8741003 C 9.2675312,7.8615889 9.244997,7.8365509 9.2274715,7.7989862 C 9.2099438,7.7614369 9.1974248,7.7088565 9.1899144,7.6412465 C 9.1824019,7.5736518 9.1786461,7.4847666 9.1786472,7.3745907 C 9.1786461,7.2994844 9.18115,7.2331343 9.1861586,7.1755373 C 9.1911653,7.1179588 9.2011805,7.0678828 9.2162044,7.0253093 C 9.2312261,6.9827542 9.2487528,6.943945 9.2687844,6.9088832 C 9.2888137,6.8738383 9.322615,6.8325246 9.3701885,6.7849438 C 9.4177596,6.7373814 9.5141561,6.6685269 9.6593783,6.5783802 C 9.8045975,6.488252 9.9836202,6.3993668 10.196445,6.3117245 C 10.409266,6.2241007 10.654639,6.1502389 10.932565,6.0901375 C 11.210484,6.0300561 11.509688,6.0000108 11.83018,6 C 12.280861,6.0000108 12.676462,6.0575985 13.016984,6.1727632 C 13.357497,6.2879479 13.641679,6.450695 13.86953,6.6610059 C 14.097372,6.8713338 14.267631,7.1229662 14.380308,7.4159029 C 14.492973,7.7088565 14.549308,8.0330999 14.549314,8.3886329 C 14.549308,8.694104 14.509247,8.9782861 14.429131,9.2411789 C 14.349004,9.5040844 14.231324,9.7369376 14.076095,9.9397405 C 13.920854,10.142555 13.730565,10.315318 13.505227,10.458028 C 13.279879,10.600751 13.019483,10.699652 12.72404,10.754731 L 12.72404,10.769752 C 13.059543,10.804811 13.366261,10.88869 13.644188,11.021385 C 13.922104,11.154092 14.161218,11.320595 14.361529,11.520895 C 14.561828,11.721203 14.718315,11.95531 14.830992,12.223213 C 14.943657,12.491124 14.999993,12.77781 15,13.08327 L 15,13.08327 z "
       id="text1994" />
  </g>
</svg>
