<?xml version="1.0" encoding="UTF-8" standalone="no"?>
<!-- Created with Inkscape (http://www.inkscape.org/) -->
<svg
   xmlns:a="http://ns.adobe.com/AdobeSVGViewerExtensions/3.0/"
   xmlns:dc="http://purl.org/dc/elements/1.1/"
   xmlns:cc="http://web.resource.org/cc/"
   xmlns:rdf="http://www.w3.org/1999/02/22-rdf-syntax-ns#"
   xmlns:svg="http://www.w3.org/2000/svg"
   xmlns="http://www.w3.org/2000/svg"
   xmlns:xlink="http://www.w3.org/1999/xlink"
   xmlns:sodipodi="http://sodipodi.sourceforge.net/DTD/sodipodi-0.dtd"
   xmlns:inkscape="http://www.inkscape.org/namespaces/inkscape"
   width="24"
   height="24"
   id="svg20362"
   sodipodi:version="0.32"
   inkscape:version="0.44"
   version="1.0"
   sodipodi:docbase="e:\dev_clean\src\houdini\support\icons\view"
   sodipodi:docname="layout_viewport1.svg">
  <defs
     id="defs20364">
    <radialGradient
       id="XMLID_543_"
       cx="294.62399"
       cy="80.626503"
       r="48.777199"
       fx="294.62399"
       fy="80.626503"
       gradientUnits="userSpaceOnUse">
      <stop
         offset="0"
         style="stop-color:#BAD1D7"
         id="stop7915" />
      <stop
         offset="0.8258"
         style="stop-color:#6D7580"
         id="stop7917" />
      <stop
         offset="1"
         style="stop-color:#41454C"
         id="stop7919" />
      <a:midPointStop
         offset="0"
         style="stop-color:#BAD1D7" />
      <a:midPointStop
         offset="0.5"
         style="stop-color:#BAD1D7" />
      <a:midPointStop
         offset="0.8258"
         style="stop-color:#6D7580" />
      <a:midPointStop
         offset="0.5"
         style="stop-color:#6D7580" />
      <a:midPointStop
         offset="1"
         style="stop-color:#41454C" />
    </radialGradient>
    <radialGradient
       id="XMLID_542_"
       cx="257.45901"
       cy="35.3755"
       r="68.717003"
       fx="257.45901"
       fy="35.3755"
       gradientUnits="userSpaceOnUse">
      <stop
         offset="0"
         style="stop-color:#FFFFFF"
         id="stop7908" />
      <stop
         offset="1"
         style="stop-color:#8794A0"
         id="stop7910" />
      <a:midPointStop
         offset="0"
         style="stop-color:#FFFFFF" />
      <a:midPointStop
         offset="0.5"
         style="stop-color:#FFFFFF" />
      <a:midPointStop
         offset="1"
         style="stop-color:#8794A0" />
    </radialGradient>
    <radialGradient
       id="XMLID_541_"
       cx="264.957"
       cy="80.291"
       r="53.347801"
       fx="264.957"
       fy="80.291"
       gradientUnits="userSpaceOnUse">
      <stop
         offset="0"
         style="stop-color:#BAD1D7"
         id="stop7901" />
      <stop
         offset="1"
         style="stop-color:#8794A0"
         id="stop7903" />
      <a:midPointStop
         offset="0"
         style="stop-color:#BAD1D7" />
      <a:midPointStop
         offset="0.5"
         style="stop-color:#BAD1D7" />
      <a:midPointStop
         offset="1"
         style="stop-color:#8794A0" />
    </radialGradient>
    <radialGradient
       inkscape:collect="always"
       xlink:href="#XMLID_541_"
       id="radialGradient22257"
       gradientUnits="userSpaceOnUse"
       cx="264.957"
       cy="80.291"
       fx="264.957"
       fy="80.291"
       r="53.347801" />
    <radialGradient
       inkscape:collect="always"
       xlink:href="#XMLID_542_"
       id="radialGradient22259"
       gradientUnits="userSpaceOnUse"
       cx="257.45901"
       cy="35.3755"
       fx="257.45901"
       fy="35.3755"
       r="68.717003" />
    <radialGradient
       inkscape:collect="always"
       xlink:href="#XMLID_543_"
       id="radialGradient22261"
       gradientUnits="userSpaceOnUse"
       cx="294.62399"
       cy="80.626503"
       fx="294.62399"
       fy="80.626503"
       r="48.777199" />
  </defs>
  <sodipodi:namedview
     id="base"
     pagecolor="#ffffff"
     bordercolor="#666666"
     borderopacity="1.0"
     inkscape:pageopacity="0.0"
     inkscape:pageshadow="2"
     inkscape:zoom="22.197802"
     inkscape:cx="11.498976"
     inkscape:cy="9.4824163"
     inkscape:current-layer="layer1"
     showgrid="true"
     inkscape:grid-bbox="true"
     inkscape:document-units="px"
     width="24px"
     height="24px"
     inkscape:window-width="1218"
     inkscape:window-height="1005"
     inkscape:window-x="549"
     inkscape:window-y="61" />
  <metadata
     id="metadata20367">
    <rdf:RDF>
      <cc:Work
         rdf:about="">
        <dc:format>image/svg+xml</dc:format>
        <dc:type
           rdf:resource="http://purl.org/dc/dcmitype/StillImage" />
      </cc:Work>
    </rdf:RDF>
  </metadata>
  <g
     id="layer1"
     inkscape:label="Layer 1"
     inkscape:groupmode="layer">
    <rect
       style="opacity:1;color:black;fill:#eeeeec;fill-opacity:1;fill-rule:evenodd;stroke:#2e3436;stroke-width:1.00000036;stroke-linecap:butt;stroke-linejoin:miter;marker:none;marker-start:none;marker-mid:none;marker-end:none;stroke-miterlimit:4;stroke-dasharray:none;stroke-dashoffset:0.19999994;stroke-opacity:1;visibility:visible;display:inline;overflow:visible"
       id="rect1980"
       width="20.000006"
       height="20.000002"
       x="1.5000017"
       y="1.5000006" />
    <path
       style="font-size:10px;font-style:normal;font-variant:normal;font-weight:normal;font-stretch:normal;text-align:start;line-height:125%;writing-mode:lr-tb;text-anchor:start;fill:black;fill-opacity:1;stroke:none;stroke-width:1px;stroke-linecap:butt;stroke-linejoin:miter;stroke-opacity:1;font-family:Calibri"
       d="M 14.78347,15.477721 C 14.783462,15.575009 14.775784,15.656935 14.760428,15.723501 C 14.74506,15.790066 14.724578,15.843828 14.698984,15.884792 C 14.673375,15.925755 14.643932,15.955196 14.610658,15.973118 C 14.577367,15.991039 14.542806,16 14.50697,16 L 9.314903,16 C 9.2790595,16 9.2457768,15.991039 9.2150564,15.973118 C 9.1843329,15.955196 9.15489,15.925755 9.1267288,15.884792 C 9.0985662,15.843828 9.076804,15.790066 9.0614453,15.723501 C 9.0460821,15.656935 9.0384013,15.575009 9.0384028,15.477721 C 9.0384013,15.385555 9.0460821,15.30619 9.0614453,15.239624 C 9.076804,15.173059 9.0960053,15.118015 9.1190495,15.074491 C 9.142089,15.030968 9.1702517,14.997686 9.203536,14.974645 C 9.2368155,14.951603 9.2739394,14.940083 9.314903,14.940081 L 11.388657,14.940081 L 11.388657,7.3823995 L 9.4685156,8.5268039 C 9.3712268,8.5780155 9.2931408,8.6087375 9.2342579,8.6189712 C 9.1753717,8.6292192 9.1280077,8.6176987 9.0921673,8.5844097 C 9.0563223,8.5511333 9.0320008,8.4960899 9.0192015,8.4192765 C 9.0063989,8.3424789 8.9999987,8.2451916 9,8.127415 C 8.9999987,8.0403764 9.0038397,7.9661309 9.0115206,7.9046782 C 9.0191999,7.8432418 9.0307204,7.7920381 9.0460836,7.751067 C 9.0614438,7.7101122 9.0832044,7.6742694 9.1113687,7.643539 C 9.1395298,7.6128251 9.1766522,7.5821027 9.2227374,7.5513719 L 11.511547,6.0843827 C 11.532024,6.0690315 11.557626,6.0562306 11.588352,6.04598 C 11.619072,6.0357491 11.657474,6.0255085 11.703561,6.0152576 C 11.74964,6.0050269 11.803404,5.9986265 11.864852,5.9960562 C 11.926293,5.9935062 12.003098,5.9922261 12.09527,5.992216 C 12.218155,5.9922261 12.320564,5.9973464 12.402493,6.0075771 C 12.484413,6.0178279 12.548419,6.0319089 12.594507,6.0498203 C 12.640585,6.0677514 12.671307,6.0907931 12.686674,6.1189455 C 12.70203,6.1471172 12.70971,6.1765595 12.709716,6.2072718 L 12.709716,14.940081 L 14.50697,14.940081 C 14.547926,14.940083 14.586329,14.951603 14.622179,14.974645 C 14.658014,14.997686 14.687455,15.030968 14.710505,15.074491 C 14.733539,15.118015 14.751461,15.173059 14.764268,15.239624 C 14.777062,15.30619 14.783462,15.385555 14.78347,15.477721 L 14.78347,15.477721 z "
       id="text1986" />
  </g>
</svg>
