<?xml version="1.0" encoding="UTF-8"?>
<svg width="16px" height="16px" viewBox="0 0 16 16" version="1.1" xmlns="http://www.w3.org/2000/svg" xmlns:xlink="http://www.w3.org/1999/xlink">
    <!-- Generator: Sketch 50.2 (55047) - http://www.bohemiancoding.com/sketch -->
    <title>Artboard</title>
    <desc>Created with Sketch.</desc>
    <defs>
        <linearGradient x1="-5.80437151%" y1="-16.3409804%" x2="105.799741%" y2="-16.3409804%" id="linearGradient-1">
            <stop stop-color="#EEEEEC" offset="0%"></stop>
            <stop stop-color="#B7B7AF" offset="100%"></stop>
        </linearGradient>
        <linearGradient x1="-5.80464018%" y1="49.9999738%" x2="105.804638%" y2="49.9999738%" id="linearGradient-2">
            <stop stop-color="#EEEEEC" offset="0%"></stop>
            <stop stop-color="#B7B7AF" offset="100%"></stop>
        </linearGradient>
        <linearGradient x1="-7.94242279%" y1="-107.739768%" x2="107.165334%" y2="-107.739768%" id="linearGradient-3">
            <stop stop-color="#EEEEEC" offset="0%"></stop>
            <stop stop-color="#B7B7AF" offset="100%"></stop>
        </linearGradient>
        <radialGradient cx="37.4867%" cy="39.2637104%" fx="37.4867%" fy="39.2637104%" r="54.2088138%" gradientTransform="translate(0.374867,0.392637),scale(1.000000,0.801367),translate(-0.374867,-0.392637)" id="radialGradient-4">
            <stop stop-color="#FFFFFF" offset="0%"></stop>
            <stop stop-color="#FFFFFF" offset="50%"></stop>
            <stop stop-color="#E2E2A5" offset="100%"></stop>
        </radialGradient>
        <linearGradient x1="12.9522724%" y1="9.2021173%" x2="68.2777793%" y2="71.9020152%" id="linearGradient-5">
            <stop stop-color="#525D61" offset="0%"></stop>
            <stop stop-color="#2E3436" offset="100%"></stop>
        </linearGradient>
    </defs>
    <g id="Artboard" stroke="none" stroke-width="1" fill="none" fill-rule="evenodd">
        <g id="lighting_high" transform="translate(3.000000, 0.000000)" fill-rule="nonzero">
            <path d="M6.8606375,13.882145 C6.4127784,14.351205 5.6747438,14.68191 4.9525706,14.68191 C4.2299316,14.68191 3.4918976,14.351879 3.0445052,13.882145 C2.4203017,13.095875 2.852299,12.603868 3.2087201,12.975744 C3.6607777,13.353691 4.3106394,13.58721 4.9525706,13.58721 C5.5935692,13.58721 6.2443639,13.353015 6.6959559,12.975744 C7.053309,12.604543 7.484374,13.095871 6.8606375,13.882145 Z" id="path8101" stroke="#2E3436" stroke-width="0.5" fill="url(#linearGradient-1)"></path>
            <path d="M3.2087201,11.705875 C3.6607777,12.108119 4.3106394,12.355213 4.9525706,12.355213 C5.5935692,12.355213 6.2443639,12.1074 6.6959559,11.705875 C7.053309,11.310093 7.483907,11.889757 6.8606375,12.72729 C6.4127784,13.227939 5.6747438,13.521006 4.9525706,13.521006 C4.2299316,13.521006 3.4918976,13.227939 3.0445052,12.72729 C2.4203017,11.889757 2.852299,11.310812 3.2087201,11.705875 Z" id="path8108" stroke="#2E3436" stroke-width="0.5" fill="url(#linearGradient-2)"></path>
            <path d="M6.7763208,15.152069 C6.3284617,15.481322 5.691195,15.638109 4.9690229,15.638109 C4.2463839,15.638109 3.610517,15.481322 3.1626579,15.152069 C2.5389211,14.598562 2.8687506,13.949557 3.2251719,14.211345 C3.6772295,14.475982 4.3270916,14.640847 4.9690229,14.640847 C5.6100204,14.640847 6.2608161,14.475507 6.7124072,14.211345 C7.069761,13.949557 7.399125,14.598562 6.7763242,15.152069 L6.7763208,15.152069 Z" id="path8130" stroke="#2E3436" stroke-width="0.5" fill="url(#linearGradient-3)"></path>
            <path d="M5.0021557,0.37237787 C7.54348,0.37237787 9.603491,2.4321822 9.603491,5.2493567 C9.603491,7.049049 8.83706,7.7520537 8.098133,8.8810795 C7.864811,9.2377368 7.646158,10.187731 7.295948,10.916045 C7.005327,11.518756 5.9982411,11.856666 5.0021557,11.856666 C4.0056126,11.856666 2.9985258,11.518756 2.7083639,10.916045 C2.3581527,10.187731 2.1390416,9.2377368 1.9057201,8.8810795 C1.166793,7.7520537 0.400362,7.049049 0.400362,5.2493567 C0.400362,2.4317134 2.4603742,0.37237787 5.0021557,0.37237787 Z" id="path8153" stroke="url(#linearGradient-5)" stroke-width="0.75000006" fill="url(#radialGradient-4)"></path>
            <rect id="rect38588" fill="#555753" x="4" y="3" width="2" height="6"></rect>
            <rect id="rect38590" fill="#555753" transform="translate(5.000000, 6.000000) rotate(90.000000) translate(-5.000000, -6.000000) " x="4" y="3" width="2" height="6"></rect>
        </g>
    </g>
</svg>