<?xml version="1.0" encoding="UTF-8"?>
<svg width="16px" height="16px" viewBox="0 0 16 16" version="1.1" xmlns="http://www.w3.org/2000/svg" xmlns:xlink="http://www.w3.org/1999/xlink">
    <!-- Generator: Sketch 50.2 (55047) - http://www.bohemiancoding.com/sketch -->
    <title>Artboard</title>
    <desc>Created with Sketch.</desc>
    <defs>
        <radialGradient cx="33.6634722%" cy="37.8383121%" fx="33.6634722%" fy="37.8383121%" r="54.0747019%" gradientTransform="translate(0.336635,0.378383),scale(1.000000,0.801367),translate(-0.336635,-0.378383)" id="radialGradient-1">
            <stop stop-color="#5B676B" offset="0%"></stop>
            <stop stop-color="#2E3436" offset="100%"></stop>
        </radialGradient>
        <linearGradient x1="16.0008523%" y1="6.31306867%" x2="73.7883047%" y2="64.0075556%" id="linearGradient-2">
            <stop stop-color="#EEEEEC" offset="0%"></stop>
            <stop stop-color="#C0C0B8" offset="100%"></stop>
        </linearGradient>
    </defs>
    <g id="Artboard" stroke="none" stroke-width="1" fill="none" fill-rule="evenodd">
        <g id="lighting_none" transform="translate(3.000000, 0.000000)">
            <path d="M6.8525056,13.89354 C6.4046465,14.3626 5.666612,14.693305 4.9444393,14.693305 C4.2218003,14.693305 3.4837662,14.363274 3.0363738,13.89354 C2.4121703,13.10727 2.8441676,12.615263 3.2005887,12.987139 C3.6526463,13.365086 4.3025083,13.598605 4.9444393,13.598605 C5.5854376,13.598605 6.2362328,13.36441 6.6878241,12.987139 C7.045178,12.615938 7.476242,13.107266 6.8525056,13.89354 Z" id="path8101" stroke="#2E3436" stroke-width="0.5" fill="#EEEEEC" fill-rule="nonzero"></path>
            <path d="M3.2005887,11.71727 C3.6526463,12.119514 4.3025083,12.366608 4.9444393,12.366608 C5.5854376,12.366608 6.2362328,12.118795 6.6878241,11.71727 C7.045178,11.321488 7.475775,11.901152 6.8525056,12.738685 C6.4046465,13.239334 5.666612,13.532401 4.9444393,13.532401 C4.2218003,13.532401 3.4837662,13.239334 3.0363738,12.738685 C2.4121703,11.901152 2.8441676,11.322207 3.2005887,11.71727 Z" id="path8108" stroke="#2E3436" stroke-width="0.5" fill="#EEEEEC" fill-rule="nonzero"></path>
            <path d="M6.7681889,15.163464 C6.3203298,15.492717 5.6830636,15.649504 4.960891,15.649504 C4.2382519,15.649504 3.6023856,15.492717 3.1545265,15.163464 C2.5307897,14.609957 2.8606192,13.960952 3.2170405,14.22274 C3.6690981,14.487377 4.3189601,14.652242 4.9608912,14.652242 C5.6018894,14.652242 6.2526846,14.486902 6.704276,14.22274 C7.06163,13.960952 7.390993,14.609957 6.768192,15.163464 L6.7681889,15.163464 Z" id="path8130" stroke="#2E3436" stroke-width="0.5" fill="#EEEEEC" fill-rule="nonzero"></path>
            <path d="M4.9940244,0.38377376 C7.535348,0.38377376 9.595359,2.4435781 9.595359,5.2607527 C9.595359,7.060445 8.828928,7.7634497 8.090001,8.8924755 C7.856679,9.2491328 7.638026,10.199127 7.287816,10.92744 C6.9971961,11.530151 5.9901095,11.868061 4.9940244,11.868061 C3.9974812,11.868061 2.9903944,11.530151 2.7002325,10.92744 C2.3500213,10.199127 2.1309102,9.2491328 1.8975887,8.8924755 C1.1586616,7.7634497 0.3922305,7.060445 0.3922305,5.2607527 C0.3922305,2.4431093 2.4522428,0.38377376 4.9940244,0.38377376 Z" id="path8153" stroke="url(#linearGradient-2)" stroke-width="0.75000006" fill="url(#radialGradient-1)" fill-rule="nonzero"></path>
            <path d="M3.0364867,3.2262208 L7.026302,7.2160359" id="path4075" stroke="#EEEEEC" stroke-width="1.5" stroke-linecap="round"></path>
            <path d="M7.026302,3.2262208 L3.0364867,7.2160359" id="path4077" stroke="#EEEEEC" stroke-width="1.5" stroke-linecap="round"></path>
        </g>
    </g>
</svg>