<?xml version="1.0" encoding="UTF-8"?>
<svg width="24px" height="24px" viewBox="0 0 24 24" version="1.1" xmlns="http://www.w3.org/2000/svg" xmlns:xlink="http://www.w3.org/1999/xlink">
    <!-- Generator: Sketch 57.1 (83088) - https://sketch.com -->
    <title>thinking_04</title>
    <desc>Created with Sketch.</desc>
    <g id="thinking_04" stroke="none" stroke-width="1" fill="none" fill-rule="evenodd" fill-opacity="0.847984047" stroke-opacity="0.701622596">
        <path d="M12.9790238,1.8743665 L13.3826662,4.2962212 L13.6857348,4.36356977 C14.5680011,4.55888064 15.4069398,4.90729725 16.179428,5.39939083 L16.4409649,5.5659663 L18.4416665,4.13682958 L19.8413944,5.53678192 L18.4124822,7.53703454 L18.5792821,7.798796 C19.0711512,8.57105964 19.4195678,9.41022286 19.6148787,10.2924892 L19.6820028,10.5955578 L22.104082,10.9992002 L22.104082,12.9792483 L19.6820028,13.3828907 L19.6148787,13.6859593 C19.4195678,14.5682256 19.0711512,15.4073888 18.5792821,16.1796525 L18.4124822,16.4414139 L19.8413944,18.4416665 L18.4416665,19.8416189 L16.4409649,18.4124822 L16.179428,18.5790576 C15.4069398,19.0711512 14.5680011,19.4195678 13.6857348,19.6148787 L13.3826662,19.6822273 L12.9790238,22.104082 L10.9994247,22.104082 L10.5957822,19.6822273 L10.2927137,19.6148787 C9.41044736,19.4195678 8.57150863,19.0711512 7.79902049,18.5790576 L7.53748354,18.4124822 L5.53678192,19.8416189 L4.13705407,18.4416665 L5.5659663,16.4414139 L5.39916633,16.1796525 C4.90729725,15.4073888 4.55888064,14.5682256 4.36356977,13.6859593 L4.29644569,13.3828907 L1.8743665,12.9792483 L1.8743665,10.9992002 L4.29644569,10.5955578 L4.36356977,10.2924892 C4.55888064,9.41022286 4.90729725,8.57105964 5.39916633,7.798796 L5.5659663,7.53703454 L4.13705407,5.53678192 L5.53678192,4.13682958 L7.53748354,5.5659663 L7.79902049,5.39939083 C8.57150863,4.90729725 9.41044736,4.55888064 10.2927137,4.36356977 L10.5957822,4.2962212 L10.9994247,1.8743665 L12.9790238,1.8743665 Z M11.9892242,7.39156163 C9.45399944,7.39156163 7.39156163,9.45422393 7.39156163,11.9892242 C7.39156163,14.5242245 9.45399944,16.5868868 11.9892242,16.5868868 C14.524449,16.5868868 16.5868868,14.5242245 16.5868868,11.9892242 C16.5868868,9.45422393 14.524449,7.39156163 11.9892242,7.39156163 Z" id="Combined-Shape" stroke="#000000" fill="#FFFFFF" fill-rule="nonzero" transform="translate(11.989224, 11.989224) rotate(20.000000) translate(-11.989224, -11.989224) "></path>
    </g>
</svg>