<?xml version="1.0" encoding="UTF-8" standalone="no"?>
<!-- Created with Inkscape (http://www.inkscape.org/) -->

<svg
   xmlns:dc="http://purl.org/dc/elements/1.1/"
   xmlns:cc="http://creativecommons.org/ns#"
   xmlns:rdf="http://www.w3.org/1999/02/22-rdf-syntax-ns#"
   xmlns:svg="http://www.w3.org/2000/svg"
   xmlns="http://www.w3.org/2000/svg"
   xmlns:sodipodi="http://sodipodi.sourceforge.net/DTD/sodipodi-0.dtd"
   xmlns:inkscape="http://www.inkscape.org/namespaces/inkscape"
   id="svg2"
   version="1.1"
   inkscape:version="0.48.5 r10040"
   width="48"
   height="48"
   sodipodi:docname="alembic.svg">
  <metadata
     id="metadata8">
    <rdf:RDF>
      <cc:Work
         rdf:about="">
        <dc:format>image/svg+xml</dc:format>
        <dc:type
           rdf:resource="http://purl.org/dc/dcmitype/StillImage" />
        <dc:title />
      </cc:Work>
    </rdf:RDF>
  </metadata>
  <defs
     id="defs6">
    <inkscape:perspective
       sodipodi:type="inkscape:persp3d"
       inkscape:vp_x="0 : 0.5 : 1"
       inkscape:vp_y="0 : 1000 : 0"
       inkscape:vp_z="1 : 0.5 : 1"
       inkscape:persp3d-origin="0.5 : 0.33333333 : 1"
       id="perspective10" />
  </defs>
  <sodipodi:namedview
     pagecolor="#ffffff"
     bordercolor="#666666"
     borderopacity="1"
     objecttolerance="10"
     gridtolerance="10"
     guidetolerance="10"
     inkscape:pageopacity="0"
     inkscape:pageshadow="2"
     inkscape:window-width="1359"
     inkscape:window-height="1168"
     id="namedview4"
     showgrid="false"
     inkscape:zoom="1.5587692"
     inkscape:cx="53.212957"
     inkscape:cy="145.82221"
     inkscape:window-x="0"
     inkscape:window-y="0"
     inkscape:window-maximized="0"
     inkscape:current-layer="svg2" />
  <path
     id="path2812"
     style="fill:#0d0d0d"
     d="m 39.690207,14.790541 c 7.83e-4,-0.110664 -0.323889,-0.651845 -0.72116,-1.202627 -1.041048,-1.443322 -2.194111,-2.146974 -3.726398,-2.274016 -1.140943,-0.0946 -1.361842,-0.03538 -1.909082,0.511746 -0.346557,0.346487 -0.618845,0.893159 -0.618845,1.242449 0,0.709396 0.969667,1.731247 1.764046,1.858988 1.045737,0.168155 5.210319,0.05904 5.211439,-0.13654 z M 19.804126,47.723744 C 14.885227,46.785938 10.834802,44.711721 7.36858,41.355519 4.1954128,38.283069 2.0708894,34.789586 0.8115606,30.57341 -0.0322662,27.748316 -0.26496596,22.76392 0.33670652,20.402176 0.80745633,18.554349 2.0301433,15.833584 2.3897915,15.833584 c 0.3522553,0 0.3238314,0.206788 -0.2510483,1.826413 -0.699574,1.970924 -0.8870747,6.26808 -0.3873405,8.876958 0.4165943,2.174829 0.7785661,3.247091 1.0961501,3.247091 0.1190502,0 0.2799172,-0.297651 0.3574782,-0.661445 0.2163477,-1.014748 1.03343,-2.177951 1.9016558,-2.707208 1.0278513,-0.626564 2.5956002,-0.629705 3.3435802,-0.0067 l 0.5679414,0.473049 -0.5490179,0.008 c -0.9034675,0.01315 -2.0918777,0.622205 -2.5357721,1.299539 -1.6001713,2.441677 -0.5754188,6.703377 2.4031582,9.994149 1.2927302,1.428222 2.8675814,2.603905 3.1327964,2.338742 0.07722,-0.07721 -0.103473,-0.707181 -0.401551,-1.399943 -1.052517,-2.446151 -0.391153,-5.836983 1.478951,-7.582626 0.757206,-0.706811 2.559971,-1.484951 3.849768,-1.661703 2.829488,-0.387745 5.492362,1.714884 5.492362,4.336819 0,0.985263 -0.407254,1.98369 -0.883699,2.166484 -0.370883,0.142291 -0.447407,-0.01571 -0.678978,-1.401925 -0.196958,-1.179017 -1.208736,-2.220351 -2.368722,-2.437922 -1.181139,-0.221537 -2.981337,0.663179 -3.620195,1.779166 -1.356363,2.369358 0.746371,6.528685 4.036071,7.983582 2.736382,1.210188 6.7162,1.535936 10.326811,0.845251 1.717425,-0.328531 4.255103,-1.383607 4.255103,-1.76912 0,-0.09979 -0.649789,-0.304905 -1.443982,-0.455804 -2.976984,-0.565641 -5.106334,-2.15732 -6.394099,-4.779569 -0.618026,-1.258474 -0.702284,-1.689771 -0.702284,-3.594776 0,-1.783409 0.09913,-2.365979 0.562754,-3.307228 0.823444,-1.671751 2.45607,-3.225387 4.292016,-4.084355 3.441361,-1.610084 7.026354,-0.671918 8.484377,2.22029 0.935618,1.855943 0.773151,3.680163 -0.43537,4.88844 -0.578783,0.578666 -0.979274,0.742935 -2.022072,0.829396 -1.41252,0.117113 -2.34683,-0.220983 -3.183914,-1.152154 l -0.48058,-0.534594 1.49222,0.17148 c 1.391905,0.159952 1.533413,0.130294 2.105019,-0.441197 0.848706,-0.848533 0.789852,-1.708261 -0.183566,-2.681481 -2.86089,-2.860311 -7.789595,0.770516 -6.684007,4.923911 0.768402,2.88668 4.555063,4.532339 8.074897,3.509303 1.119505,-0.325386 1.679995,-0.684518 2.771596,-1.775899 1.729602,-1.729253 2.289059,-3.19162 2.269894,-5.933265 -0.02141,-3.064068 -1.285821,-5.163366 -3.994102,-6.631451 -1.484989,-0.80497 -1.588234,-0.824685 -4.288221,-0.818716 -3.273672,0.0072 -4.246451,0.319721 -7.582234,2.435667 -3.3489,2.124267 -4.483398,2.568146 -6.85219,2.680969 C 13.906679,27.080422 8.7687767,24.379129 6.67899,20.496748 4.8631105,17.123228 4.8322088,12.561915 6.60096,8.978614 7.720554,6.710434 9.2378019,5.0539848 11.690006,3.4226736 15.634996,0.7982973 19.38781,-0.17592912 24.77579,0.02562153 c 2.169956,0.08117366 3.860521,0.28502652 5.094251,0.61428023 9.009692,2.40447364 15.569597,9.16128234 17.66987,18.20024524 0.655956,2.823041 0.603264,7.920902 -0.111727,10.809189 -1.039061,4.197431 -3.417402,8.376393 -6.513102,11.444116 -3.006903,2.979729 -6.524806,5.007673 -10.672995,6.152593 -2.76742,0.763818 -7.74289,0.991525 -10.437961,0.477699 z"
     inkscape:connector-curvature="0" />
</svg>
