<?xml version="1.0" encoding="UTF-8" standalone="no"?>
<!-- Created with Inkscape (http://www.inkscape.org/) -->

<svg
   xmlns:dc="http://purl.org/dc/elements/1.1/"
   xmlns:cc="http://creativecommons.org/ns#"
   xmlns:rdf="http://www.w3.org/1999/02/22-rdf-syntax-ns#"
   xmlns:svg="http://www.w3.org/2000/svg"
   xmlns="http://www.w3.org/2000/svg"
   xmlns:xlink="http://www.w3.org/1999/xlink"
   xmlns:sodipodi="http://sodipodi.sourceforge.net/DTD/sodipodi-0.dtd"
   xmlns:inkscape="http://www.inkscape.org/namespaces/inkscape"
   width="48px"
   height="48px"
   id="svg5426"
   version="1.1"
   inkscape:version="0.48.5 r10040"
   sodipodi:docname="attribexpression.svg">
  <defs
     id="defs5428">
    <linearGradient
       id="linearGradient6534">
      <stop
         style="stop-color:#eeeeec;stop-opacity:1;"
         offset="0"
         id="stop6536" />
      <stop
         style="stop-color:#c9c9c2;stop-opacity:1;"
         offset="1"
         id="stop6538" />
    </linearGradient>
    <linearGradient
       id="linearGradient6416">
      <stop
         style="stop-color:#ef2929;stop-opacity:1;"
         offset="0"
         id="stop6418" />
      <stop
         style="stop-color:#9a0c0c;stop-opacity:1;"
         offset="1"
         id="stop6420" />
    </linearGradient>
    <linearGradient
       inkscape:collect="always"
       id="linearGradient6395">
      <stop
         style="stop-color:#710000;stop-opacity:1;"
         offset="0"
         id="stop6397" />
      <stop
         style="stop-color:#710000;stop-opacity:0;"
         offset="1"
         id="stop6399" />
    </linearGradient>
    <linearGradient
       id="linearGradient6387">
      <stop
         style="stop-color:#f34545;stop-opacity:1;"
         offset="0"
         id="stop6389" />
      <stop
         style="stop-color:#c00c0c;stop-opacity:1;"
         offset="1"
         id="stop6391" />
    </linearGradient>
    <linearGradient
       id="linearGradient6373">
      <stop
         style="stop-color:#f44e4e;stop-opacity:0;"
         offset="0"
         id="stop6375" />
      <stop
         id="stop6381"
         offset="0.40625"
         style="stop-color:#f34545;stop-opacity:0;" />
      <stop
         style="stop-color:#d03b3b;stop-opacity:1;"
         offset="0.90104169"
         id="stop6383" />
      <stop
         style="stop-color:#f33c3c;stop-opacity:0;"
         offset="1"
         id="stop6377" />
    </linearGradient>
    <linearGradient
       id="linearGradient6363">
      <stop
         style="stop-color:#c00c0c;stop-opacity:1;"
         offset="0"
         id="stop6365" />
      <stop
         style="stop-color:#930909;stop-opacity:1;"
         offset="1"
         id="stop6367" />
    </linearGradient>
    <linearGradient
       id="linearGradient6327">
      <stop
         style="stop-color:#ffffff;stop-opacity:1;"
         offset="0"
         id="stop6329" />
      <stop
         style="stop-color:#c1c1c1;stop-opacity:1;"
         offset="1"
         id="stop6331" />
    </linearGradient>
    <linearGradient
       id="linearGradient6269">
      <stop
         id="stop6271"
         offset="0"
         style="stop-color:#ef2929;stop-opacity:1;" />
      <stop
         id="stop6273"
         offset="1"
         style="stop-color:#920b0b;stop-opacity:1" />
    </linearGradient>
    <linearGradient
       id="linearGradient6188">
      <stop
         style="stop-color:#ef2929;stop-opacity:1;"
         offset="0"
         id="stop6190" />
      <stop
         style="stop-color:#af0d0d;stop-opacity:1;"
         offset="1"
         id="stop6192" />
    </linearGradient>
    <linearGradient
       id="linearGradient8408">
      <stop
         style="stop-color:#dbb718;stop-opacity:1;"
         offset="0"
         id="stop8410" />
      <stop
         style="stop-color:#9e830c;stop-opacity:1;"
         offset="1"
         id="stop8412" />
    </linearGradient>
    <radialGradient
       inkscape:collect="always"
       xlink:href="#linearGradient8400"
       id="radialGradient8406"
       cx="16.061848"
       cy="12.38868"
       fx="16.061848"
       fy="12.38868"
       r="7.265625"
       gradientTransform="matrix(0.73759354,0.35432777,-0.34803248,0.93187168,7.123735,-3.1221251)"
       gradientUnits="userSpaceOnUse" />
    <linearGradient
       id="linearGradient8400">
      <stop
         style="stop-color:#ffffff;stop-opacity:1;"
         offset="0"
         id="stop8402" />
      <stop
         style="stop-color:#c4c4be;stop-opacity:1;"
         offset="1"
         id="stop8404" />
    </linearGradient>
    <linearGradient
       inkscape:collect="always"
       xlink:href="#linearGradient8390"
       id="linearGradient8396"
       x1="11.523636"
       y1="6.6066289"
       x2="24.842701"
       y2="19.486074"
       gradientUnits="userSpaceOnUse"
       gradientTransform="matrix(0.73759354,0.35432777,-0.31242299,0.83652576,6.6276834,-1.7939332)" />
    <linearGradient
       id="linearGradient8390">
      <stop
         style="stop-color:#888a85;stop-opacity:1;"
         offset="0"
         id="stop8392" />
      <stop
         style="stop-color:#5c5e5a;stop-opacity:1;"
         offset="1"
         id="stop8394" />
    </linearGradient>
    <radialGradient
       inkscape:collect="always"
       xlink:href="#linearGradient8349"
       id="radialGradient8357"
       cx="22.648104"
       cy="8.2414837"
       fx="22.648104"
       fy="8.2414837"
       r="5.2556424"
       gradientTransform="matrix(1.4726685,-0.01806093,0.16011993,0.62689572,-12.02467,3.0572315)"
       gradientUnits="userSpaceOnUse" />
    <linearGradient
       inkscape:collect="always"
       id="linearGradient8349">
      <stop
         style="stop-color:#c4a000;stop-opacity:1;"
         offset="0"
         id="stop8351" />
      <stop
         style="stop-color:#c4a000;stop-opacity:0;"
         offset="1"
         id="stop8353" />
    </linearGradient>
    <linearGradient
       id="linearGradient8367">
      <stop
         style="stop-color:#4f595c;stop-opacity:1;"
         offset="0"
         id="stop8369" />
      <stop
         id="stop8375"
         offset="0.21371238"
         style="stop-color:#6c7a7e;stop-opacity:1;" />
      <stop
         style="stop-color:#232829;stop-opacity:1"
         offset="1"
         id="stop8371" />
    </linearGradient>
    <radialGradient
       inkscape:collect="always"
       xlink:href="#linearGradient8349"
       id="radialGradient8355"
       cx="22.847643"
       cy="8.3079605"
       fx="22.847643"
       fy="8.3079605"
       r="5.2556424"
       gradientTransform="matrix(1.6224555,0.05080385,-0.04110298,0.43480224,-13.880159,3.0689266)"
       gradientUnits="userSpaceOnUse" />
    <radialGradient
       inkscape:collect="always"
       xlink:href="#linearGradient6188"
       id="radialGradient6194"
       cx="98.639648"
       cy="27.938509"
       fx="98.639648"
       fy="27.938509"
       r="25.129858"
       gradientTransform="matrix(0.89940678,0.40316409,-0.33187418,0.73879561,18.642734,-22.151456)"
       gradientUnits="userSpaceOnUse" />
    <radialGradient
       inkscape:collect="always"
       xlink:href="#linearGradient6269"
       id="radialGradient6194-4"
       cx="22.524963"
       cy="45.683678"
       fx="22.524963"
       fy="45.683678"
       r="25.129858"
       gradientTransform="matrix(1.0488334,-0.34618242,0.16861434,0.51331875,-7.8005486,5.6116845)"
       gradientUnits="userSpaceOnUse" />
    <linearGradient
       id="linearGradient6188-0">
      <stop
         style="stop-color:#ef2929;stop-opacity:1;"
         offset="0"
         id="stop6190-9" />
      <stop
         style="stop-color:#af0d0d;stop-opacity:1;"
         offset="1"
         id="stop6192-4" />
    </linearGradient>
    <radialGradient
       r="25.129858"
       fy="27.938509"
       fx="98.639648"
       cy="27.938509"
       cx="98.639648"
       gradientTransform="matrix(0.89940678,0.40316409,-0.33187418,0.73879561,-49.284079,-45.651391)"
       gradientUnits="userSpaceOnUse"
       id="radialGradient6251"
       xlink:href="#linearGradient6188-0"
       inkscape:collect="always" />
    <linearGradient
       id="linearGradient6269-2">
      <stop
         id="stop6271-4"
         offset="0"
         style="stop-color:#ef2929;stop-opacity:1;" />
      <stop
         id="stop6273-5"
         offset="1"
         style="stop-color:#920b0b;stop-opacity:1" />
    </linearGradient>
    <radialGradient
       r="25.129858"
       fy="45.683678"
       fx="22.524963"
       cy="45.683678"
       cx="22.524963"
       gradientTransform="matrix(0.93611602,-0.30848055,0.15049347,0.45741448,-6.9128933,-2.568763)"
       gradientUnits="userSpaceOnUse"
       id="radialGradient6290"
       xlink:href="#linearGradient6269-2"
       inkscape:collect="always" />
    <linearGradient
       inkscape:collect="always"
       xlink:href="#linearGradient6327"
       id="linearGradient6333"
       x1="10.960155"
       y1="24.237979"
       x2="25.506352"
       y2="24.237979"
       gradientUnits="userSpaceOnUse"
       gradientTransform="matrix(1.1204096,0,0,1.122218,-3.071895,-4.8914176)" />
    <linearGradient
       inkscape:collect="always"
       xlink:href="#linearGradient6363"
       id="linearGradient6369"
       x1="10.821429"
       y1="16.997902"
       x2="38.607143"
       y2="16.997902"
       gradientUnits="userSpaceOnUse"
       gradientTransform="matrix(1.1204097,0,0,1.122218,-3.071895,-4.8914175)" />
    <linearGradient
       inkscape:collect="always"
       xlink:href="#linearGradient6395"
       id="linearGradient6401"
       x1="13.435027"
       y1="11.482985"
       x2="37.224122"
       y2="11.482985"
       gradientUnits="userSpaceOnUse" />
    <linearGradient
       inkscape:collect="always"
       xlink:href="#linearGradient6416"
       id="linearGradient6422"
       x1="25.656759"
       y1="8.7191935"
       x2="25.911165"
       y2="16.295338"
       gradientUnits="userSpaceOnUse"
       gradientTransform="matrix(1.1204096,0,0,1.0832972,-3.071895,-4.5997882)" />
    <linearGradient
       inkscape:collect="always"
       xlink:href="#linearGradient6534"
       id="linearGradient6540"
       x1="15.48221"
       y1="39.796686"
       x2="20.479223"
       y2="39.796686"
       gradientUnits="userSpaceOnUse" />
  </defs>
  <sodipodi:namedview
     id="base"
     pagecolor="#ffffff"
     bordercolor="#666666"
     borderopacity="1.0"
     inkscape:pageopacity="0.0"
     inkscape:pageshadow="2"
     inkscape:zoom="9.899495"
     inkscape:cx="14.888832"
     inkscape:cy="18.587506"
     inkscape:current-layer="layer1"
     showgrid="true"
     inkscape:grid-bbox="true"
     inkscape:document-units="px"
     inkscape:window-width="2560"
     inkscape:window-height="1537"
     inkscape:window-x="-8"
     inkscape:window-y="-8"
     inkscape:window-maximized="1" />
  <metadata
     id="metadata5431">
    <rdf:RDF>
      <cc:Work
         rdf:about="">
        <dc:format>image/svg+xml</dc:format>
        <dc:type
           rdf:resource="http://purl.org/dc/dcmitype/StillImage" />
        <dc:title />
      </cc:Work>
    </rdf:RDF>
  </metadata>
  <g
     id="layer1"
     inkscape:label="Layer 1"
     inkscape:groupmode="layer">
    <path
       style="fill:none;stroke:#000000;stroke-width:1px;stroke-linecap:round;stroke-linejoin:miter;stroke-opacity:1;color:#000000;stroke-miterlimit:4;stroke-dasharray:none;stroke-dashoffset:0;marker:none;visibility:visible;display:inline;overflow:visible;enable-background:accumulate"
       d="m 17.67767,41.888577 c -0.314031,2.526882 -1.750024,3.737001 -3.485027,4.596194"
       id="path6492"
       inkscape:connector-curvature="0"
       sodipodi:nodetypes="cc" />
    <path
       style="fill:none;stroke:#000000;stroke-width:1px;stroke-linecap:round;stroke-linejoin:miter;stroke-opacity:1;color:#000000;stroke-miterlimit:4;stroke-dasharray:none;stroke-dashoffset:0;marker:none;visibility:visible;display:inline;overflow:visible;enable-background:accumulate"
       d="m 18.637314,41.939085 c 0.08571,2.263088 0.91122,3.878847 2.070813,5.202285"
       id="path6494"
       inkscape:connector-curvature="0"
       sodipodi:nodetypes="cc" />
    <path
       sodipodi:nodetypes="cc"
       inkscape:connector-curvature="0"
       id="path6513"
       d="m 17.67767,41.18147 c -0.314031,2.526882 -1.750024,3.737001 -3.485027,4.596194"
       style="color:#000000;fill:none;stroke:#ffffff;stroke-width:1px;stroke-linecap:round;stroke-linejoin:miter;stroke-miterlimit:4;stroke-opacity:1;stroke-dasharray:none;stroke-dashoffset:0;marker:none;visibility:visible;display:inline;overflow:visible;enable-background:accumulate" />
    <path
       sodipodi:nodetypes="cc"
       inkscape:connector-curvature="0"
       id="path6515"
       d="m 18.637314,41.231978 c 0.08571,2.263088 0.91122,3.878847 2.070813,5.202285"
       style="color:#000000;fill:none;stroke:#ffffff;stroke-width:1px;stroke-linecap:round;stroke-linejoin:miter;stroke-miterlimit:4;stroke-opacity:1;stroke-dasharray:none;stroke-dashoffset:0;marker:none;visibility:visible;display:inline;overflow:visible;enable-background:accumulate" />
    <path
       style="fill:url(#linearGradient6540);stroke:#888a85;stroke-width:0.50000000000000000;stroke-linecap:butt;stroke-linejoin:miter;stroke-miterlimit:4;stroke-opacity:1;stroke-dasharray:none;fill-opacity:1"
       d="m 15.73221,37.528559 0.562126,4.774 c 0.962712,1.031083 2.697257,1.026152 3.685052,-0.062 l 0.249835,-4.960002 c -1.349161,-1.054245 -3.384847,-1.030229 -4.497013,0.248001 z"
       id="path6486"
       inkscape:connector-curvature="0"
       sodipodi:nodetypes="ccccc" />
    <path
       style="fill:none;stroke:#000000;stroke-width:1px;stroke-linecap:round;stroke-linejoin:miter;stroke-opacity:1"
       d="m 34.597725,25.42309 c -0.05051,4.495179 -14.647212,9.192388 -16.010918,12.828937"
       id="path6465"
       inkscape:connector-curvature="0"
       sodipodi:nodetypes="cc" />
    <path
       sodipodi:nodetypes="cc"
       inkscape:connector-curvature="0"
       id="path6490"
       d="M 34.345187,24.968521 C 34.294677,29.4637 19.697975,34.160909 18.334269,37.797458"
       style="fill:none;stroke:#ffffff;stroke-width:1px;stroke-linecap:round;stroke-linejoin:miter;stroke-opacity:1" />
    <path
       style="color:#000000;fill:none;stroke:#000000;stroke-width:1px;stroke-linecap:round;stroke-linejoin:miter;stroke-miterlimit:4;stroke-opacity:1;stroke-dasharray:none;stroke-dashoffset:0;marker:none;visibility:visible;display:inline;overflow:visible;enable-background:accumulate"
       d="m 12.975545,26.837303 c -0.251853,3.80164 3.823322,8.745234 4.096033,11.263201"
       id="path6467"
       inkscape:connector-curvature="0"
       sodipodi:nodetypes="cc" />
    <path
       sodipodi:nodetypes="cc"
       inkscape:connector-curvature="0"
       id="path6488"
       d="m 13.632144,26.837303 c -0.251853,3.80164 3.823322,8.745234 4.096033,11.263201"
       style="color:#000000;fill:none;stroke:#ffffff;stroke-width:1px;stroke-linecap:round;stroke-linejoin:miter;stroke-miterlimit:4;stroke-opacity:1;stroke-dasharray:none;stroke-dashoffset:0;marker:none;visibility:visible;display:inline;overflow:visible;enable-background:accumulate" />
    <path
       style="color:#000000;fill:url(#radialGradient6194-4);fill-opacity:1;fill-rule:nonzero;stroke:#720000;stroke-width:0.5;stroke-linecap:butt;stroke-linejoin:miter;stroke-miterlimit:4;stroke-opacity:1;stroke-dasharray:none;stroke-dashoffset:0;marker:none;visibility:visible;display:inline;overflow:visible;enable-background:accumulate"
       d="M 3.7471076,27.833193 C 2.5021445,26.869624 0.54218038,24.177206 0.52152125,21.796713 0.50445797,19.830547 1.5916145,16.940188 3.677831,14.384339 5.6714824,11.941893 8.5897802,9.8049284 11.811073,9.0719264 l 26.766708,5.8947776 c 3.530324,0.850242 5.624879,2.47841 7.30001,3.570876 0.345285,0.24226 1.987966,-0.234823 1.994731,0.978113 0.0043,0.778028 -3.20087,1.843561 -3.635818,2.195999 -0.434949,0.352437 -5.862126,2.56646 -11.619768,4.282416 -6.742893,2.00959 -13.97056,3.53612 -14.637637,3.596183 -0.667076,0.06006 -3.707694,0.85312 -5.82869,0.963569 -2.120996,0.110449 -7.1585383,-1.757096 -8.4035014,-2.720667 z"
       id="path6207"
       inkscape:connector-curvature="0"
       sodipodi:nodetypes="zsscccszszzz" />
    <path
       style="color:#000000;fill:url(#linearGradient6369);fill-opacity:1;fill-rule:nonzero;stroke:#720000;stroke-width:0.5;stroke-linecap:butt;stroke-linejoin:miter;stroke-miterlimit:4;stroke-opacity:1;stroke-dasharray:none;stroke-dashoffset:0;marker:none;visibility:visible;display:inline;overflow:visible;enable-background:accumulate"
       d="m 10.172948,18.073971 c 0.403111,-1.969299 1.949024,-9.9405416 2.200804,-11.0217831 0.622367,-2.406316 8.249256,-4.6595847 13.364887,-4.328555 5.115632,0.3310297 9.418125,0.929035 11.939156,3.4724683 0.719226,0.6364776 0.861537,1.1542735 0.8386,1.9785292 -0.04536,2.6601486 0.05074,8.0249136 0.14697,9.0977566 0.09138,1.018681 1.240454,2.805545 1.240454,2.805545 L 23.657878,25.568784 C 20.045229,26.026181 13.665954,24.990449 10.613108,23.20411 9.8759794,22.772787 9.333032,21.953067 9.332641,20.67912 9.3322836,19.51483 10.02111,18.815736 10.172948,18.073971 z"
       id="path6228"
       inkscape:connector-curvature="0"
       sodipodi:nodetypes="sczccsccsss" />
    <path
       style="fill:url(#linearGradient6333);fill-opacity:1;stroke:none"
       d="m 9.8304494,18.254179 c 0.2600276,3.432629 7.3141556,6.025929 16.6938236,5.441333 l -3.225587,2.040502 C 17.722601,25.823086 9.3360097,24.530833 9.2079682,20.46472 z"
       id="path6325"
       inkscape:connector-curvature="0"
       sodipodi:nodetypes="ccccc" />
    <path
       style="color:#000000;fill:#cc0000;fill-opacity:1;fill-rule:nonzero;stroke:#720000;stroke-width:0.5;stroke-linecap:butt;stroke-linejoin:miter;stroke-miterlimit:4;stroke-opacity:1;stroke-dasharray:none;stroke-dashoffset:0;marker:none;visibility:visible;display:inline;overflow:visible;enable-background:accumulate"
       d="m 13.423867,30.440499 c 2.307175,-0.877829 8.998731,-4.178385 11.414017,-5.623653 2.602158,-1.557089 7.139425,-4.131151 11.448033,-5.429057 4.308608,-1.297905 11.144151,-1.129881 11.572499,-0.08502 0.428347,1.044862 -6.954177,3.923647 -12.675989,5.92312 -5.721813,1.999472 -16.03121,4.222681 -21.75856,5.214609 z"
       id="path6209"
       inkscape:connector-curvature="0"
       sodipodi:nodetypes="cszzzc" />
    <path
       style="fill:none;stroke:#ffffff;stroke-width:0.99999994px;stroke-linecap:round;stroke-linejoin:miter;stroke-opacity:1"
       d="m 10.283164,9.5820504 1.131785,0.7368476"
       id="path6335"
       inkscape:connector-curvature="0" />
    <path
       style="fill:none;stroke:#ffffff;stroke-width:1px;stroke-linecap:round;stroke-linejoin:miter;stroke-opacity:1"
       d="m 6.4350962,11.56587 c 0.9988794,0.05776 1.8735619,0.239712 2.6031045,0.566806"
       id="path6337"
       inkscape:connector-curvature="0"
       sodipodi:nodetypes="cc" />
    <path
       style="fill:none;stroke:#ffffff;stroke-width:1px;stroke-linecap:round;stroke-linejoin:miter;stroke-opacity:1"
       d="M 2.8437934,15.572797 C 3.7875813,14.419244 5.0163491,14.48487 5.9823824,14.56994"
       id="path6339"
       inkscape:connector-curvature="0"
       sodipodi:nodetypes="cc" />
    <path
       style="fill:none;stroke:#ffffff;stroke-width:1px;stroke-linecap:round;stroke-linejoin:miter;stroke-opacity:1"
       d="M 0.90945092,19.84853 C 1.5461775,18.717442 2.512286,18.245117 3.5490452,17.914094"
       id="path6341"
       inkscape:connector-curvature="0"
       sodipodi:nodetypes="cc" />
    <path
       style="fill:none;stroke:#ffffff;stroke-width:1px;stroke-linecap:round;stroke-linejoin:miter;stroke-opacity:1"
       d="m 1.3986545,24.999166 c 0.160824,-0.948905 0.7180897,-1.699589 1.4147307,-2.380585"
       id="path6343"
       inkscape:connector-curvature="0"
       sodipodi:nodetypes="cc" />
    <path
       style="fill:none;stroke:#ffffff;stroke-width:1px;stroke-linecap:round;stroke-linejoin:miter;stroke-opacity:1"
       d="M 5.1901331,28.853443 C 4.9455443,27.945898 4.7343704,26.836515 4.9071869,25.792693"
       id="path6345"
       inkscape:connector-curvature="0"
       sodipodi:nodetypes="cc" />
    <path
       style="fill:none;stroke:#ffffff;stroke-width:1px;stroke-linecap:round;stroke-linejoin:miter;stroke-opacity:1"
       d="M 9.8304505,30.497181 8.076184,27.889874"
       id="path6347"
       inkscape:connector-curvature="0" />
    <path
       style="fill:none;stroke:#ffffff;stroke-width:1px;stroke-linecap:round;stroke-linejoin:miter;stroke-opacity:1"
       d="M 14.414178,30.100416 12.546733,28.626721"
       id="path6349"
       inkscape:connector-curvature="0" />
    <path
       style="fill:none;stroke:#ffffff;stroke-width:1px;stroke-linecap:round;stroke-linejoin:miter;stroke-opacity:1"
       d="m 18.771549,27.946554 c 1.715043,0.5596 3.126349,-0.09575 4.583728,-0.566805"
       id="path6351"
       inkscape:connector-curvature="0"
       sodipodi:nodetypes="cc" />
    <path
       style="fill:none;stroke:#ffffff;stroke-width:1px;stroke-linecap:round;stroke-linejoin:miter;stroke-opacity:1"
       d="m 24.656829,24.829124 2.524044,0.660523"
       id="path6353"
       inkscape:connector-curvature="0"
       sodipodi:nodetypes="cc" />
    <path
       style="fill:none;stroke:#ffffff;stroke-width:1px;stroke-linecap:round;stroke-linejoin:miter;stroke-opacity:1"
       d="m 29.735843,22.285795 1.881463,1.182995"
       id="path6355"
       inkscape:connector-curvature="0"
       sodipodi:nodetypes="cc" />
    <path
       style="fill:none;stroke:#ffffff;stroke-width:1px;stroke-linecap:round;stroke-linejoin:miter;stroke-opacity:1"
       d="m 34.821454,19.975362 c 1.255113,0.05557 2.452613,0.955167 2.681131,1.793011"
       id="path6357"
       inkscape:connector-curvature="0"
       sodipodi:nodetypes="cc" />
    <path
       style="fill:none;stroke:#ffffff;stroke-width:1px;stroke-linecap:round;stroke-linejoin:miter;stroke-opacity:1"
       d="m 41.312826,18.777773 c 0.640613,0.391459 1.081708,1.214562 1.28279,1.856987"
       id="path6359"
       inkscape:connector-curvature="0"
       sodipodi:nodetypes="cc" />
    <path
       style="fill:none;stroke:#ffffff;stroke-width:1px;stroke-linecap:round;stroke-linejoin:miter;stroke-opacity:1"
       d="m 45.647726,18.707622 c 0.657926,0.832802 0.532758,1.563901 0.286654,2.153861"
       id="path6361"
       inkscape:connector-curvature="0"
       sodipodi:nodetypes="cc" />
    <path
       sodipodi:type="arc"
       style="color:#000000;fill:url(#linearGradient6401);fill-opacity:1;fill-rule:nonzero;stroke:none;stroke-width:0.53386784;marker:none;visibility:visible;display:inline;overflow:visible;enable-background:accumulate"
       id="path6371"
       sodipodi:cx="25.329575"
       sodipodi:cy="11.482985"
       sodipodi:rx="11.894547"
       sodipodi:ry="5.0002551"
       d="m 37.224122,11.482985 a 11.894547,5.0002551 0 1 1 -23.789095,0 11.894547,5.0002551 0 1 1 23.789095,0 z"
       transform="matrix(1.0218654,0,0,0.94651721,-0.49092702,-2.6187855)" />
    <path
       style="color:#000000;fill:url(#linearGradient6422);fill-opacity:1;fill-rule:nonzero;stroke:none;stroke-width:0.53386784;marker:none;visibility:visible;display:inline;overflow:visible;enable-background:accumulate"
       d="m 25.183435,4.7097967 c -5.906887,0 -10.713917,2.4212554 -10.713917,5.3826323 0,0.08115 0.0279,0.156697 0.03501,0.236971 1.982485,1.565429 6.103372,2.640538 10.888981,2.640538 4.413521,0 8.269521,-0.897778 10.398802,-2.268155 0.04547,-0.200761 0.07003,-0.402494 0.07003,-0.609354 0,-2.9613769 -4.772018,-5.3826323 -10.678905,-5.3826323 z"
       id="path6403"
       inkscape:connector-curvature="0" />
    <path
       inkscape:connector-curvature="0"
       id="path6442"
       d="m 18.462681,9.6171154 c -0.637825,-0.306398 -1.371539,0.03287 -1.650417,0.7795776 -0.240817,0.644799 -0.06443,1.381988 0.401021,1.765046 l -1.349455,2.157415 -1.650117,-0.0219 c -0.03287,-0.522684 -0.297059,-1.005984 -0.740824,-1.219162 -0.637824,-0.306396 -1.381297,0.05901 -1.660176,0.805718 -0.278879,0.746705 0.007,1.606589 0.644803,1.912989 0.341243,0.163921 0.704518,0.139202 1.018814,-0.03471 l 1.041279,1.579319 -0.697811,2.377953 c -0.594645,-0.175069 -1.234696,0.175995 -1.489071,0.857085 -0.27887,0.746705 0.01674,1.580452 0.65457,1.88685 0.637824,0.306397 1.394583,-0.0218 1.673462,-0.768501 0.151994,-0.406955 0.116299,-0.854227 -0.03414,-1.218823 l 1.998875,-0.766338 1.717873,1.441859 c -0.05457,0.0871 -0.10189,0.199933 -0.140212,0.302617 -0.278878,0.746709 0.01674,1.580452 0.654561,1.886851 0.637824,0.306391 1.371539,-0.03287 1.650418,-0.779576 0.27887,-0.746707 -0.007,-1.606595 -0.644803,-1.912995 -0.187292,-0.08997 -0.37465,-0.104242 -0.565675,-0.08676 l -0.04168,-2.363215 1.46168,-1.147723 c 0.129881,0.234325 0.318349,0.43041 0.557529,0.545305 0.637825,0.306396 1.381306,-0.05901 1.660175,-0.80572 0.278873,-0.746699 -0.007,-1.606582 -0.644801,-1.91298 -0.589675,-0.283273 -1.258917,0.02545 -1.578553,0.659936 L 18.810968,14.871621 18.13445,12.388423 c 0.418776,-0.07956 0.800922,-0.397522 0.982787,-0.884467 0.278871,-0.746708 -0.01674,-1.5804526 -0.654568,-1.8868506 z"
       style="color:#000000;fill:#2e3436;fill-opacity:1;fill-rule:nonzero;stroke:none;stroke-width:0.5;marker:none;visibility:visible;display:inline;overflow:visible;enable-background:accumulate" />
    <path
       style="color:#000000;fill:url(#radialGradient8406);fill-opacity:1;stroke:url(#linearGradient8396);stroke-width:0.52002716;stroke-miterlimit:4;stroke-dasharray:none;marker:none;visibility:visible;display:inline;overflow:visible;enable-background:accumulate"
       d="m 17.250498,9.3140694 c -0.637825,-0.306398 -1.371539,0.03287 -1.650417,0.7795776 -0.240817,0.644799 -0.06443,1.381988 0.401021,1.765046 l -1.349455,2.157415 -1.650117,-0.0219 c -0.03287,-0.522684 -0.297059,-1.005984 -0.740824,-1.219162 -0.637824,-0.306396 -1.381297,0.05901 -1.660176,0.805718 -0.278879,0.746705 0.007,1.606589 0.644803,1.912989 0.341243,0.163921 0.704518,0.139202 1.018814,-0.03471 l 1.041279,1.579319 -0.697811,2.377953 c -0.594645,-0.175069 -1.234696,0.175995 -1.489071,0.857085 -0.27887,0.746705 0.01674,1.580452 0.65457,1.88685 0.637824,0.306397 1.394583,-0.0218 1.673462,-0.768501 0.151994,-0.406955 0.116299,-0.854227 -0.03414,-1.218823 l 1.998875,-0.766338 1.717873,1.441859 c -0.05457,0.0871 -0.10189,0.199933 -0.140212,0.302617 -0.278878,0.746709 0.01674,1.580452 0.654561,1.886851 0.637824,0.306391 1.371539,-0.03287 1.650418,-0.779576 0.27887,-0.746707 -0.007,-1.606595 -0.644803,-1.912995 -0.187292,-0.08997 -0.37465,-0.104242 -0.565675,-0.08676 l -0.04168,-2.363215 1.46168,-1.147723 c 0.129881,0.234325 0.318349,0.43041 0.557529,0.545305 0.637825,0.306396 1.381306,-0.05901 1.660175,-0.80572 0.278873,-0.746699 -0.007,-1.606582 -0.644801,-1.91298 -0.589675,-0.283273 -1.258917,0.02545 -1.578553,0.659936 l -1.899038,-0.665612 -0.676518,-2.483198 c 0.418776,-0.07956 0.800922,-0.397522 0.982787,-0.884467 0.278871,-0.746708 -0.01674,-1.5804526 -0.654568,-1.8868506 z"
       id="path8377"
       inkscape:connector-curvature="0" />
  </g>
</svg>
