<?xml version="1.0" encoding="UTF-8" standalone="no"?>
<!-- Created with Inkscape (http://www.inkscape.org/) -->
<svg
   xmlns:a="http://ns.adobe.com/AdobeSVGViewerExtensions/3.0/"
   xmlns:i="http://ns.adobe.com/AdobeIllustrator/10.0/"
   xmlns:dc="http://purl.org/dc/elements/1.1/"
   xmlns:cc="http://web.resource.org/cc/"
   xmlns:rdf="http://www.w3.org/1999/02/22-rdf-syntax-ns#"
   xmlns:svg="http://www.w3.org/2000/svg"
   xmlns="http://www.w3.org/2000/svg"
   xmlns:xlink="http://www.w3.org/1999/xlink"
   xmlns:sodipodi="http://sodipodi.sourceforge.net/DTD/sodipodi-0.dtd"
   xmlns:inkscape="http://www.inkscape.org/namespaces/inkscape"
   width="48px"
   height="48px"
   id="svg5111"
   sodipodi:version="0.32"
   inkscape:version="0.44.1"
   sodipodi:docbase="e:\dev_clean\src\houdini\support\icons\sop"
   sodipodi:docname="attribreorient.svg">
  <defs
     id="defs5113">
    <linearGradient
       inkscape:collect="always"
       id="linearGradient4501">
      <stop
         style="stop-color:#d3d7cf;stop-opacity:1"
         offset="0"
         id="stop4503" />
      <stop
         style="stop-color:white;stop-opacity:1"
         offset="1"
         id="stop4505" />
    </linearGradient>
    <linearGradient
       inkscape:collect="always"
       xlink:href="#linearGradient4501"
       id="linearGradient4507"
       x1="23.200819"
       y1="3.504847"
       x2="22.285788"
       y2="32.37022"
       gradientUnits="userSpaceOnUse"
       gradientTransform="matrix(1.061055,0,0,1.061055,0.326647,0.629074)" />
    <linearGradient
       inkscape:collect="always"
       id="linearGradient4464">
      <stop
         style="stop-color:#2e3436;stop-opacity:1;"
         offset="0"
         id="stop4466" />
      <stop
         style="stop-color:#2e3436;stop-opacity:0;"
         offset="1"
         id="stop4468" />
    </linearGradient>
    <linearGradient
       inkscape:collect="always"
       xlink:href="#linearGradient4464"
       id="linearGradient4470"
       x1="10.276073"
       y1="35.035416"
       x2="14.831536"
       y2="37.582352"
       gradientUnits="userSpaceOnUse"
       gradientTransform="matrix(1.056204,0.101343,-0.101343,1.056204,4.072057,-0.254897)" />
    <linearGradient
       id="linearGradient2911">
      <stop
         style="stop-color:white;stop-opacity:1;"
         offset="0"
         id="stop2913" />
      <stop
         style="stop-color:#8e8e8e;stop-opacity:1;"
         offset="1"
         id="stop2915" />
    </linearGradient>
    <radialGradient
       inkscape:collect="always"
       xlink:href="#linearGradient2911"
       id="radialGradient2917"
       cx="3.2992275"
       cy="3.4160771"
       fx="3.2992275"
       fy="3.4160771"
       r="2.7505228"
       gradientUnits="userSpaceOnUse" />
    <linearGradient
       inkscape:collect="always"
       id="linearGradient6388">
      <stop
         style="stop-color:#eeeeec;stop-opacity:1;"
         offset="0"
         id="stop6390" />
      <stop
         style="stop-color:#eeeeec;stop-opacity:0;"
         offset="1"
         id="stop6392" />
    </linearGradient>
    <linearGradient
       inkscape:collect="always"
       xlink:href="#linearGradient6388"
       id="linearGradient6394"
       x1="14.659931"
       y1="14.525023"
       x2="8.4180403"
       y2="8.0505714"
       gradientUnits="userSpaceOnUse"
       gradientTransform="matrix(1.058644,0,0,1.058661,-31.86591,41.29914)" />
    <linearGradient
       id="linearGradient6415">
      <stop
         style="stop-color:#eeeeec;stop-opacity:0.50196081;"
         offset="0"
         id="stop6417" />
      <stop
         style="stop-color:white;stop-opacity:0.75294119;"
         offset="1"
         id="stop6419" />
    </linearGradient>
    <linearGradient
       inkscape:collect="always"
       xlink:href="#linearGradient6415"
       id="linearGradient6421"
       x1="3.9508853"
       y1="4.0488348"
       x2="18.850447"
       y2="19.249723"
       gradientUnits="userSpaceOnUse"
       gradientTransform="translate(-31.13491,41.98921)" />
    <linearGradient
       y2="206.7433"
       x2="182.12219"
       y1="247.7437"
       x1="208.95799"
       gradientUnits="userSpaceOnUse"
       id="XMLID_617_">
      <stop
         id="stop8777"
         style="stop-color:#8EA3B2"
         offset="0" />
      <stop
         id="stop8779"
         style="stop-color:#DCE6E9"
         offset="1" />
      <a:midPointStop
         style="stop-color:#8EA3B2"
         offset="0" />
      <a:midPointStop
         style="stop-color:#8EA3B2"
         offset="0.5" />
      <a:midPointStop
         style="stop-color:#DCE6E9"
         offset="1" />
    </linearGradient>
    <linearGradient
       inkscape:collect="always"
       xlink:href="#XMLID_617_"
       id="linearGradient6374"
       gradientUnits="userSpaceOnUse"
       gradientTransform="matrix(0.561812,-3.317449e-2,0,0.553829,-128.0116,-63.88809)"
       x1="208.27771"
       y1="246.34276"
       x2="182.12219"
       y2="206.7433" />
    <linearGradient
       id="linearGradient7804">
      <stop
         style="stop-color:#dfeaa1;stop-opacity:1;"
         offset="0"
         id="stop7806" />
      <stop
         style="stop-color:#9db029;stop-opacity:1;"
         offset="1"
         id="stop7808" />
    </linearGradient>
    <linearGradient
       inkscape:collect="always"
       xlink:href="#linearGradient7804"
       id="linearGradient7810"
       x1="13.697268"
       y1="6.8871083"
       x2="13.697268"
       y2="1.7436063"
       gradientUnits="userSpaceOnUse"
       gradientTransform="matrix(1.084602,0,0,1.26822,-1.513854,-0.765247)" />
    <linearGradient
       inkscape:collect="always"
       xlink:href="#XMLID_617_"
       id="linearGradient4550"
       gradientUnits="userSpaceOnUse"
       gradientTransform="matrix(0.561812,-3.317449e-2,0,0.553829,-128.0116,-63.88809)"
       x1="208.27771"
       y1="246.34276"
       x2="182.12219"
       y2="206.7433" />
    <linearGradient
       inkscape:collect="always"
       xlink:href="#linearGradient6415"
       id="linearGradient4552"
       gradientUnits="userSpaceOnUse"
       gradientTransform="translate(-31.13491,41.98921)"
       x1="3.9508853"
       y1="4.0488348"
       x2="18.850447"
       y2="19.249723" />
    <linearGradient
       inkscape:collect="always"
       xlink:href="#linearGradient6388"
       id="linearGradient4554"
       gradientUnits="userSpaceOnUse"
       gradientTransform="matrix(1.058644,0,0,1.058661,-31.86591,41.29914)"
       x1="14.659931"
       y1="14.525023"
       x2="8.4180403"
       y2="8.0505714" />
  </defs>
  <sodipodi:namedview
     id="base"
     pagecolor="#ffffff"
     bordercolor="#666666"
     borderopacity="1.0"
     inkscape:pageopacity="0.0"
     inkscape:pageshadow="2"
     inkscape:zoom="7"
     inkscape:cx="24"
     inkscape:cy="24"
     inkscape:current-layer="layer1"
     showgrid="true"
     inkscape:grid-bbox="true"
     inkscape:document-units="px"
     inkscape:window-width="1195"
     inkscape:window-height="1040"
     inkscape:window-x="302"
     inkscape:window-y="13" />
  <metadata
     id="metadata5116">
    <rdf:RDF>
      <cc:Work
         rdf:about="">
        <dc:format>image/svg+xml</dc:format>
        <dc:type
           rdf:resource="http://purl.org/dc/dcmitype/StillImage" />
      </cc:Work>
    </rdf:RDF>
  </metadata>
  <g
     id="layer1"
     inkscape:label="Layer 1"
     inkscape:groupmode="layer">
    <path
       style="opacity:1;fill:none;stroke:#2d3335;stroke-width:0.84884399"
       id="path3995"
       i:knockout="Off"
       d="" />
    <path
       sodipodi:type="arc"
       style="opacity:1;color:black;fill:url(#radialGradient2917);fill-opacity:1;fill-rule:evenodd;stroke:#2e3436;stroke-width:0.45202699;stroke-linecap:round;stroke-linejoin:miter;marker:none;marker-start:none;marker-mid:none;marker-end:none;stroke-miterlimit:4;stroke-dasharray:none;stroke-dashoffset:0;stroke-opacity:1;visibility:visible;display:inline;overflow:visible"
       id="path2877"
       sodipodi:cx="3.8892739"
       sodipodi:cy="3.911716"
       sodipodi:rx="2.3575907"
       sodipodi:ry="2.3575907"
       d="M 6.2468646 3.911716 A 2.3575907 2.3575907 0 1 1  1.5316832,3.911716 A 2.3575907 2.3575907 0 1 1  6.2468646 3.911716 z"
       transform="matrix(3.318388,0,0,3.318384,-3.256063,25.49961)" />
    <path
       style="fill:url(#linearGradient4470);fill-opacity:1;fill-rule:evenodd;stroke:none;stroke-width:1px;stroke-linecap:butt;stroke-linejoin:miter;stroke-opacity:1"
       d="M 9.7486841,39.349448 C 13.217124,40.543761 14.814712,43.550798 14.814712,43.550798 C 15.940166,42.445338 16.859207,41.266712 16.728704,39.716075 C 15.397593,38.798284 13.205968,37.941587 11.497687,37.803578 L 9.7486841,39.349448 z "
       id="path4462"
       sodipodi:nodetypes="ccccc" />
    <path
       style="opacity:1;color:black;fill:url(#linearGradient4507);fill-opacity:1;fill-rule:evenodd;stroke:#2e3436;stroke-width:2.00000024;stroke-linecap:butt;stroke-linejoin:round;marker:none;marker-start:none;marker-mid:none;marker-end:none;stroke-miterlimit:4;stroke-dasharray:none;stroke-dashoffset:0;stroke-opacity:1;visibility:visible;display:inline;overflow:visible"
       d="M 14.344062,2.8035733 L 14.344062,21.417451 L 22.562951,21.417451 L 9.6500281,38.480169 L 37.015436,21.417451 L 45.637627,21.417451 L 45.637627,2.8035733 L 14.344062,2.8035733 z "
       id="rect4410"
       sodipodi:nodetypes="cccccccc" />
    <path
       style="opacity:1;color:black;fill:none;fill-opacity:1;fill-rule:evenodd;stroke:white;stroke-width:1.00000012;stroke-linecap:butt;stroke-linejoin:miter;marker:none;marker-start:none;marker-mid:none;marker-end:none;stroke-miterlimit:6;stroke-dasharray:none;stroke-dashoffset:0;stroke-opacity:1;visibility:visible;display:inline;overflow:visible"
       d="M 15.826647,4.2857647 L 15.826647,19.950265 L 26.218891,19.950265 L 16.212831,32.449038 L 36.40458,19.950265 L 44.102558,19.950265 L 44.102558,4.2857647 L 15.826647,4.2857647 z "
       id="path4425"
       sodipodi:nodetypes="cccccccc" />
    <g
       id="g4544"
       transform="translate(50.00796,-35.41778)">
      <path
         d="M -9.6907633,55.479292 C -9.6784013,55.175065 -9.6806563,54.872804 -9.6997533,54.572093 L -7.1890133,53.258033 C -7.3187903,52.468179 -7.5300313,51.697543 -7.8148763,50.960596 L -10.656521,51.103478 C -10.791357,50.842828 -10.939112,50.589043 -11.09923,50.34318 L -9.5800893,47.91078 C -10.07336,47.303007 -10.626185,46.755786 -11.24193,46.264346 L -13.609969,47.852443 C -13.85829,47.69431 -14.11672,47.548953 -14.384707,47.416913 L -14.278524,44.561746 C -14.636401,44.432793 -15.004386,44.321048 -15.381928,44.228142 C -15.761707,44.134814 -16.142616,44.062604 -16.52184,44.010788 L -17.798279,46.556795 C -18.090422,46.54635 -18.380879,46.551321 -18.669086,46.571106 L -20.001146,44.088854 C -20.771392,44.227382 -21.520849,44.445538 -22.238279,44.735462 L -22.069178,47.529516 C -22.330418,47.665122 -22.584918,47.814176 -22.829872,47.97485 L -25.232743,46.50288 C -25.831628,46.99017 -26.381087,47.53878 -26.868736,48.140788 L -25.300721,50.447382 C -25.459713,50.69049 -25.605782,50.943907 -25.738375,51.205387 L -28.573279,51.087008 C -28.705861,51.435447 -28.822157,51.794546 -28.920481,52.162006 C -29.017669,52.527732 -29.094073,52.893889 -29.150818,53.259447 L -26.617609,54.529878 C -26.630527,54.820294 -26.627717,55.110339 -26.609176,55.397237 L -29.119359,56.643703 C -28.990139,57.390937 -28.780023,58.121772 -28.497431,58.824506 L -25.663652,58.734164 C -25.526567,58.994117 -25.376568,59.246109 -25.213635,59.491808 L -26.728283,61.79545 C -26.235575,62.396059 -25.679381,62.950277 -25.065885,63.448493 L -22.701214,61.9902 C -22.452898,62.15276 -22.193339,62.305236 -21.925353,62.445043 L -22.05007,65.234292 C -21.68602,65.38337 -21.311289,65.514103 -20.927012,65.627099 C -20.54947,65.738829 -20.170815,65.830008 -19.792716,65.901278 L -18.514028,63.428807 C -18.21627,63.451097 -17.919067,63.458466 -17.624119,63.451016 L -16.310599,66.010792 C -15.538672,65.910931 -14.786967,65.729197 -14.06672,65.470121 L -14.216724,62.604605 C -13.960538,62.476501 -13.711092,62.335494 -13.469517,62.181112 L -11.079564,63.797287 C -10.481236,63.316674 -9.9317833,62.768063 -9.4441293,62.15885 L -11.002598,59.704935 C -10.845286,59.456389 -10.699779,59.198568 -10.567754,58.930479 L -7.7261103,59.087227 C -7.5963333,58.728991 -7.4828423,58.361196 -7.3873353,57.983377 C -7.2862073,57.585847 -7.2081153,57.18747 -7.1508143,56.789753 L -9.6907633,55.479292 z M -18.15496,58.089824 C -19.865339,58.056564 -21.253061,56.654722 -21.253061,54.958856 C -21.253061,53.262996 -19.866045,51.899036 -18.15496,51.911599 C -16.445282,51.924245 -15.057566,53.326086 -15.057566,55.042601 C -15.057566,56.759129 -16.444582,58.123775 -18.15496,58.089824 z "
         style="fill:#2e3436;fill-opacity:0.50196078;stroke:none;stroke-width:0.99999994;stroke-linecap:round;stroke-linejoin:round;stroke-miterlimit:4"
         id="path6376" />
      <path
         sodipodi:nodetypes="ccccccccccccccccccccccccccccccccccccccccccccccccccsssc"
         d="M -11.174844,53.957713 L -11.183834,53.050514 L -8.6730943,51.736453 L -9.2989573,49.439017 L -12.140602,49.581898 L -12.583311,48.821601 L -11.06417,46.389201 L -12.726011,44.742767 L -15.09405,46.330863 L -15.868788,45.895334 L -15.762605,43.040167 L -18.005921,42.489208 L -19.28236,45.035215 L -20.153167,45.049526 L -21.485228,42.567275 L -23.72236,43.213882 L -23.553259,46.007937 L -24.313954,46.453271 L -26.716824,44.981301 L -28.352817,46.619209 L -26.784802,48.925803 L -27.222457,49.683808 L -30.05736,49.565429 L -30.6349,51.737868 L -28.10169,53.008299 L -28.093258,53.875658 L -30.603441,55.122123 L -29.981512,57.302926 L -27.147733,57.212584 L -26.697716,57.970228 L -28.212365,60.27387 L -26.549967,61.926913 L -24.185296,60.46862 L -23.409434,60.923463 L -23.534151,63.712712 L -21.276798,64.379698 L -19.998109,61.907227 L -19.1082,61.929436 L -17.79468,64.489212 L -15.550801,63.948541 L -15.700805,61.083025 L -14.953598,60.659532 L -12.563645,62.275707 L -10.92821,60.63727 L -12.486679,58.183355 L -12.051835,57.408899 L -9.2101913,57.565647 L -8.6348953,55.268173 L -11.174844,53.957713 z M -19.639041,56.568244 C -21.349421,56.534984 -22.737143,55.133142 -22.737143,53.437277 C -22.737143,51.741416 -21.350127,50.377457 -19.639041,50.390019 C -17.929363,50.402666 -16.541647,51.804507 -16.541647,53.521022 C -16.541647,55.237549 -17.928663,56.602195 -19.639041,56.568244 z "
         style="fill:url(#linearGradient4550);stroke:#2e3436;stroke-width:0.99999994;stroke-linecap:round;stroke-linejoin:round;stroke-miterlimit:4"
         id="path6358" />
      <path
         sodipodi:nodetypes="ccccccccccccccccccccccccccccccccccccccccccccccccc"
         id="path6386"
         d="M -11.888435,54.544162 L -11.861174,52.547969 L -9.5068493,51.354249 L -9.8475123,50.208412 L -12.563953,50.334383 L -13.446885,48.678829 L -11.896422,46.499133 L -12.728202,45.680937 L -15.062278,47.22182 L -16.589814,46.274842 L -16.531385,43.546481 L -17.664695,43.271856 L -18.719685,45.762835 L -20.57823,45.740266 L -21.893381,43.411057 L -22.986052,43.699636 L -22.801779,46.303743 L -24.316933,47.259365 L -26.646531,45.785677 L -27.490709,46.666731 L -25.967531,48.805885 L -26.775633,50.494605 L -29.556504,50.284675 L -29.784189,51.390684 L -27.374866,52.510751 L -27.26187,54.295882 L -29.721266,55.570756 L -29.454446,56.54339 L -26.815315,56.428553 L -25.750003,58.04658 L -27.331693,60.218319 L -26.464235,61.007155 L -24.273877,59.6159 L -22.604601,60.50953 L -22.749745,63.179776 L -21.709621,63.451134 L -20.476712,61.236109 L -18.601325,61.114941 L -17.30252,63.723622 L -16.309463,63.352506 L -16.4769,60.720581 L -14.832887,59.713842 L -12.549866,61.385041 L -11.882116,60.573896 L -13.326503,58.375231 L -12.38013,56.496071 L -9.7340663,56.810203 L -9.4379843,55.629145 L -11.888435,54.544162 z "
         style="fill:none;stroke:url(#linearGradient4552);stroke-width:0.5;stroke-linecap:round;stroke-linejoin:round;stroke-miterlimit:4;stroke-dasharray:none;stroke-opacity:0.75294118" />
      <path
         id="path6380"
         d="M -19.61251,57.562216 C -21.897455,57.517779 -23.751353,55.644841 -23.751353,53.379075 C -23.751353,51.113313 -21.898398,49.290989 -19.61251,49.307773 C -17.328501,49.32467 -15.474612,51.197605 -15.474612,53.490963 C -15.474612,55.784335 -17.327566,57.607576 -19.61251,57.562216 z "
         style="fill:none;stroke:url(#linearGradient4554);stroke-width:1.00000024;stroke-linecap:round;stroke-linejoin:round;stroke-miterlimit:4;stroke-dasharray:none" />
    </g>
  </g>
</svg>
