<?xml version="1.0" encoding="UTF-8" standalone="no"?>
<!-- Created with Inkscape (http://www.inkscape.org/) -->

<svg
   xmlns:i="http://ns.adobe.com/AdobeIllustrator/10.0/"
   xmlns:a="http://ns.adobe.com/AdobeSVGViewerExtensions/3.0/"
   xmlns:dc="http://purl.org/dc/elements/1.1/"
   xmlns:cc="http://creativecommons.org/ns#"
   xmlns:rdf="http://www.w3.org/1999/02/22-rdf-syntax-ns#"
   xmlns:svg="http://www.w3.org/2000/svg"
   xmlns="http://www.w3.org/2000/svg"
   xmlns:sodipodi="http://sodipodi.sourceforge.net/DTD/sodipodi-0.dtd"
   xmlns:inkscape="http://www.inkscape.org/namespaces/inkscape"
   width="48px"
   height="48px"
   id="svg51428"
   sodipodi:version="0.32"
   inkscape:version="0.48.5 r10040"
   sodipodi:docname="bonecapturebiharmonic.svg"
   version="1.1">
  <defs
     id="defs51430">
    <linearGradient
       y2="1712.6716"
       x2="949.1129"
       y1="1677.3403"
       x1="928.4619"
       gradientUnits="userSpaceOnUse"
       id="XMLID_824_"
       gradientTransform="translate(-903.79113,-1655.6113)">
      <stop
         id="stop22180"
         style="stop-color:#e7fedc;stop-opacity:1;"
         offset="0" />
      <stop
         id="stop22182"
         style="stop-color:#6ccc86;stop-opacity:1;"
         offset="1" />
      <a:midPointStop
         style="stop-color:#FEF3DC"
         offset="0" />
      <a:midPointStop
         style="stop-color:#FEF3DC"
         offset="0.5" />
      <a:midPointStop
         style="stop-color:#FAAF3E"
         offset="1" />
    </linearGradient>
  </defs>
  <sodipodi:namedview
     id="base"
     pagecolor="#ffffff"
     bordercolor="#666666"
     borderopacity="1.0"
     inkscape:pageopacity="0.0"
     inkscape:pageshadow="2"
     inkscape:zoom="7"
     inkscape:cx="1.2857143"
     inkscape:cy="22.785714"
     inkscape:current-layer="layer1"
     showgrid="true"
     inkscape:grid-bbox="true"
     inkscape:document-units="px"
     inkscape:window-width="2560"
     inkscape:window-height="1537"
     inkscape:window-x="-8"
     inkscape:window-y="-8"
     inkscape:window-maximized="1" />
  <metadata
     id="metadata51433">
    <rdf:RDF>
      <cc:Work
         rdf:about="">
        <dc:format>image/svg+xml</dc:format>
        <dc:type
           rdf:resource="http://purl.org/dc/dcmitype/StillImage" />
        <dc:title></dc:title>
      </cc:Work>
    </rdf:RDF>
  </metadata>
  <g
     id="layer1"
     inkscape:label="Layer 1"
     inkscape:groupmode="layer">
    <path
       style="opacity:0.5;fill:url(#XMLID_824_)"
       id="path22184"
       d="m 45.435899,15.441582 c -0.635,0.187 -1.534,2.61 -3.323,5.189 -2.141,3.086001 -8.362,6.234001 -9.108,6.980001 -0.747,0.748 -2.217,2.069 -4.15,3.254 -1.174,0.718 -6.867,2.655 -8.189,4.209 -0.487,0.572 -1.824,1.475 -2.22,2.17 -0.283,0.494 -0.71,1.828 -1.83,2.949 -1.12,1.119 -2.912,2.016 -3.062,2.389 -0.148,0.373 -2.038,3.496 -2.291,3.898 -0.538,0.854 -1.9019997,0.289 -1.3939997,-0.824 0.5159997,-1.125 2.0049997,-3.484 1.8929997,-3.783 -0.112,-0.299 -0.447,-0.262 -0.746,-0.075 -0.299,0.187 -3.3129997,3.984 -3.8749997,4.527 -0.698,0.673 -2.021,-0.192 -1.323,-1.083 0.457,-0.583 3.871,-4.398 3.668,-4.676 -0.348,-0.473 -5.513,2.9 -6.051,3.16 -0.745,0.361 -1.539,-0.794 -0.696,-1.516 0.661,-0.566 5.663,-3.438 5.402,-3.811 -0.262,-0.373 -5.624,1.707 -6.053,1.79 -0.745,0.144 -1.27000001,-0.849 -0.625,-1.468 0.535,-0.513 5.341,-1.996 6.006,-2.674 0.537,-0.547 1.806,-1.442 1.578,-1.922 -0.294,-0.622 -2.41,-0.414 -3.121,-0.379 -1.648,0.08 -1.271,-1.626 0.57,-1.764 1.056,-0.078 2.132,-0.354 2.857,-0.662 0.7939997,-0.336 1.7079997,-0.755 2.8389997,-0.755 1.444,0 2.804,0.74 3.089,0.562 2.172,-1.367 5.853,-6.238 8.519,-8.168 1.892,-1.371001 4.346,-1.709001 5.364,-2.920001 1.185,-1.404 4.618,-7.012 5.189,-8.219 4.956,-11.88199929 11.967,-9.8239992 13.618,-9.8239992"
       i:knockout="Off"
       inkscape:connector-curvature="0" />
    <path
       style="fill:none;stroke:#4e9a06;stroke-width:1px;stroke-linecap:butt;stroke-linejoin:bevel;stroke-opacity:0.55154639"
       d="M 41.857143,2.2857143 43.571429,17 33.428571,12.714286 l 1.285715,13.142857 -10.142857,-4.285714 -1.142858,11.285714 -6.714285,-4 L 18,36.714286"
       id="path20589"
       inkscape:connector-curvature="0"
       sodipodi:nodetypes="cccccccc" />
    <polygon
       transform="translate(-904.2197,-1655.897)"
       style="fill:#709ec3;stroke:#224b87"
       id="polygon22186"
       points="935.428,1678.947 945.454,1663.282 950.019,1661.76 949.303,1666.146 935.428,1678.947 "
       i:knockout="Off" />
    <polygon
       transform="translate(-904.2197,-1655.897)"
       style="fill:#709ec3;stroke:#224b87"
       id="polygon22188"
       points="920.479,1689.957 930.952,1679.574 935.428,1678.947 933.28,1682.796 920.479,1689.957 "
       i:knockout="Off" />
    <polygon
       transform="translate(-904.2197,-1655.897)"
       style="fill:white"
       id="polygon22190"
       points="930.952,1679.574 920.479,1689.957 932.214,1681.32 930.952,1679.574 "
       i:knockout="Off" />
    <polygon
       transform="translate(-904.2197,-1655.897)"
       style="fill:#a0c6de"
       id="polygon22192"
       points="932.214,1681.32 935.428,1678.947 930.952,1679.574 932.214,1681.32 "
       i:knockout="Off" />
    <polygon
       transform="translate(-904.2197,-1655.897)"
       style="fill:#6b8599"
       id="polygon22194"
       points="932.214,1681.32 933.28,1682.796 935.428,1678.947 932.214,1681.32 "
       i:knockout="Off" />
    <polygon
       transform="translate(-904.2197,-1655.897)"
       style="fill:#a0c6de"
       id="polygon22196"
       points="920.479,1689.957 932.214,1681.32 933.28,1682.796 920.479,1689.957 "
       i:knockout="Off" />
    <polygon
       transform="translate(-904.2197,-1655.897)"
       style="fill:white"
       id="polygon22198"
       points="945.454,1663.282 947.448,1664.766 935.428,1678.947 945.454,1663.282 "
       i:knockout="Off" />
    <polygon
       transform="translate(-904.2197,-1655.897)"
       style="fill:#a0c6de"
       id="polygon22200"
       points="947.448,1664.766 950.019,1661.76 945.454,1663.282 947.448,1664.766 "
       i:knockout="Off" />
    <polygon
       transform="translate(-904.2197,-1655.897)"
       style="fill:#a0c6de"
       id="polygon22202"
       points="949.303,1666.146 947.448,1664.766 935.428,1678.947 949.303,1666.146 "
       i:knockout="Off" />
    <polygon
       transform="translate(-904.2197,-1655.897)"
       style="fill:#6b8599"
       id="polygon22204"
       points="950.019,1661.76 949.303,1666.146 947.448,1664.766 950.019,1661.76 "
       i:knockout="Off" />
    <path
       style="fill:none;stroke:#4e9a06;stroke-width:1.50000000000000000;stroke-miterlimit:4;stroke-dasharray:none"
       id="path22774"
       d="M 45.007328,15.155868 C 44.372328,15.342868 43.473328,17.765868 41.684328,20.344868 C 39.543328,23.430869 33.322328,26.578869 32.576328,27.324869 C 31.829328,28.072869 30.359328,29.393869 28.426328,30.578869 C 27.252328,31.296869 21.559328,33.233869 20.237328,34.787869 C 19.750328,35.359869 18.413328,36.262869 18.017328,36.957869 C 17.734328,37.451869 17.307328,38.785869 16.187328,39.906869 C 15.067328,41.025869 13.275328,41.922869 13.125328,42.295869 C 12.977328,42.668869 11.087328,45.791869 10.834328,46.193869 C 10.296328,47.047869 8.9323279,46.482869 9.4403279,45.369869 C 9.9563279,44.244869 11.445328,41.885869 11.333328,41.586869 C 11.221328,41.287869 10.886328,41.324869 10.587328,41.511869 C 10.288328,41.698869 7.2743279,45.495869 6.7123279,46.038869 C 6.0143279,46.711869 4.6913279,45.846869 5.3893279,44.955869 C 5.8463279,44.372869 9.2603279,40.557869 9.0573279,40.279869 C 8.7093279,39.806869 3.5443279,43.179869 3.0063279,43.439869 C 2.2613279,43.800869 1.4673279,42.645869 2.3103279,41.923869 C 2.9713279,41.357869 7.9733279,38.485869 7.7123279,38.112869 C 7.4503279,37.739869 2.0883279,39.819869 1.6593279,39.902869 C 0.91432786,40.046869 0.38932786,39.053869 1.0343279,38.434869 C 1.5693279,37.921869 6.3753279,36.438869 7.0403279,35.760869 C 7.5773279,35.213869 8.8463279,34.318869 8.6183279,33.838869 C 8.3243279,33.216869 6.2083279,33.424869 5.4973279,33.459869 C 3.8493279,33.539869 4.2263279,31.833869 6.0673279,31.695869 C 7.1233279,31.617869 8.1993279,31.341869 8.9243279,31.033869 C 9.7183279,30.697869 10.632328,30.278869 11.763328,30.278869 C 13.207328,30.278869 14.567328,31.018869 14.852328,30.840869 C 17.024328,29.473869 20.705328,24.602869 23.371328,22.672869 C 25.263328,21.301868 27.717328,20.963868 28.735328,19.752868 C 29.920328,18.348868 33.353328,12.740868 33.924328,11.533868 C 38.880328,-0.34813158 45.891328,1.7098685 47.542328,1.7098685"
       i:knockout="Off" />
    <path
       style="fill:none;stroke:#4e9a06;stroke-width:1px;stroke-linecap:butt;stroke-linejoin:bevel;stroke-opacity:0.55154639999999999;color:#000000;stroke-miterlimit:4;stroke-dasharray:none;stroke-dashoffset:0;marker:none;visibility:visible;display:inline;overflow:visible;enable-background:accumulate"
       d="M 15.428571,31 21,34.571429 20.714286,25 l 8.571428,5.428571 1,-12.571428 L 40,22 36.428571,6.7142857 44.714286,15.571429"
       id="path20591"
       inkscape:connector-curvature="0" />
  </g>
</svg>
