<?xml version="1.0" encoding="UTF-8" standalone="no"?>
<svg width="35.2778mm" height="35.2778mm"
 viewBox="0 0 100 100"
 xmlns="http://www.w3.org/2000/svg" xmlns:xlink="http://www.w3.org/1999/xlink"  version="1.2" baseProfile="tiny">
<title>SOP_capturelayerpaint.icon</title>
<desc>Generated with Qt</desc>
<defs>
</defs>
<g fill="none" stroke="black" stroke-width="1" fill-rule="evenodd" stroke-linecap="square" stroke-linejoin="bevel" >

<g fill="none" stroke="#000000" stroke-opacity="1" stroke-width="1" stroke-linecap="square" stroke-linejoin="bevel" transform="matrix(1,0,0,1,0,0)"
font-family="MS Shell Dlg 2" font-size="8.25" font-weight="400" font-style="normal" 
>
</g>

<g fill="#3838e2" fill-opacity="1" stroke="#3838e2" stroke-opacity="1" stroke-width="1" stroke-linecap="square" stroke-linejoin="bevel" transform="matrix(1,0,0,1,0,0)"
font-family="MS Shell Dlg 2" font-size="8.25" font-weight="400" font-style="normal" 
>
<path vector-effect="non-scaling-stroke" fill-rule="evenodd" d="M85.88,34.78 L79.88,28.78 L67.08,26.78 L80.88,47.18 L91.08,46.38 L85.88,34.78"/>
</g>

<g fill="#00ffff" fill-opacity="1" stroke="#00ffff" stroke-opacity="1" stroke-width="1" stroke-linecap="square" stroke-linejoin="bevel" transform="matrix(1,0,0,1,0,0)"
font-family="MS Shell Dlg 2" font-size="8.25" font-weight="400" font-style="normal" 
>
<path vector-effect="non-scaling-stroke" fill-rule="evenodd" d="M76.28,35.78 L67.08,26.78 L50.88,27.38 L68.48,50.98 L80.88,47.18 L76.28,35.78"/>
</g>

<g fill="#00ff00" fill-opacity="1" stroke="#00ff00" stroke-opacity="1" stroke-width="1" stroke-linecap="square" stroke-linejoin="bevel" transform="matrix(1,0,0,1,0,0)"
font-family="MS Shell Dlg 2" font-size="8.25" font-weight="400" font-style="normal" 
>
<path vector-effect="non-scaling-stroke" fill-rule="evenodd" d="M63.48,37.58 L50.88,27.38 L36.48,32.18 L56.88,59.98 L68.48,50.98 L63.48,37.58"/>
</g>

<g fill="#ffff00" fill-opacity="1" stroke="#ffff00" stroke-opacity="1" stroke-width="1" stroke-linecap="square" stroke-linejoin="bevel" transform="matrix(1,0,0,1,0,0)"
font-family="MS Shell Dlg 2" font-size="8.25" font-weight="400" font-style="normal" 
>
<path vector-effect="non-scaling-stroke" fill-rule="evenodd" d="M51.08,46.38 L46.08,38.88 L36.48,32.18 L23.28,39.78 L46.42,71.27 L56.88,59.98 L51.08,46.38"/>
</g>

<g fill="#ff7f00" fill-opacity="1" stroke="#ff7f00" stroke-opacity="1" stroke-width="1" stroke-linecap="square" stroke-linejoin="bevel" transform="matrix(1,0,0,1,0,0)"
font-family="MS Shell Dlg 2" font-size="8.25" font-weight="400" font-style="normal" 
>
<path vector-effect="non-scaling-stroke" fill-rule="evenodd" d="M43.28,58.58 L34.48,47.38 L23.28,39.78 L10.69,50.09 L37.2,85.4 L46.42,71.27 L43.28,58.58"/>
</g>

<g fill="#ff0000" fill-opacity="1" stroke="#ff0000" stroke-opacity="1" stroke-width="1" stroke-linecap="square" stroke-linejoin="bevel" transform="matrix(1,0,0,1,0,0)"
font-family="MS Shell Dlg 2" font-size="8.25" font-weight="400" font-style="normal" 
>
<path vector-effect="non-scaling-stroke" fill-rule="evenodd" d="M21.28,56.38 L31.4,69.8 L37.2,85.4 L25.21,87.11 L15.01,82.51 L7.61,72.01 L7.49,61.69 L10.69,50.09 L21.28,56.38"/>
</g>

<g fill="#cccccc" fill-opacity="1" stroke="#cccccc" stroke-opacity="1" stroke-width="1" stroke-linecap="square" stroke-linejoin="bevel" transform="matrix(1,0,0,1,0,0)"
font-family="MS Shell Dlg 2" font-size="8.25" font-weight="400" font-style="normal" 
>
<polyline fill="none" vector-effect="non-scaling-stroke" points="29.61,25.61 20.44,27 14.65,29.65 9.88,34.08 7.13,42.72 7.75,53.19 11.06,59.88 18.1,65.22 23.51,67.39 31.83,68.62 " />
<polyline fill="none" vector-effect="non-scaling-stroke" points="25.57,36.62 23.37,36.76 14.12,38.45 9.14,41.69 7.37,46.7 8.85,51.29 12.42,53.65 19.03,55.82 31.49,55.99 37.75,55.7 " />
<polyline fill="none" vector-effect="non-scaling-stroke" points="68.36,36.84 25.57,36.62 " />
<polyline fill="none" vector-effect="non-scaling-stroke" points="29.61,25.61 27.14,28.35 25.87,33.19 25.4,38.63 25.56,45.34 26.02,51.88 26.68,56.66 28.11,61.48 29.76,65.22 31.83,68.62 " />
<polyline fill="none" vector-effect="non-scaling-stroke" points="29.61,25.61 31.09,26.16 33.52,29.18 35.61,33.61 37.17,39.67 38.21,47.06 37.86,53.85 37.01,59.92 35.55,64.14 33.55,67.56 31.83,68.62 " />
<polyline fill="none" vector-effect="non-scaling-stroke" points="71.61,25.61 29.61,25.61 " />
<polyline fill="none" vector-effect="non-scaling-stroke" points="71.61,25.61 74.09,26.24 76.51,29.26 78.6,33.7 80.17,39.74 81.21,47.15 80.85,53.96 80,60 78.54,64.23 76.54,67.63 74.82,68.72 " />
<polyline fill="none" vector-effect="non-scaling-stroke" points="71.61,25.61 78.03,25.81 83.64,27.18 89.27,30.74 94.11,37.31 96.67,45.34 95.34,53.59 93.01,59.53 88.5,63.75 81.51,66.99 74.82,68.72 " />
<polyline fill="none" vector-effect="non-scaling-stroke" points="71.61,25.61 70.13,28.44 68.86,33.28 68.36,36.84 68.46,42.08 68.58,46.32 69.04,52.2 69.68,56.73 71.1,61.56 72.75,65.32 74.82,68.72 " />
</g>

<g fill="#a9a9a9" fill-opacity="1" stroke="#a9a9a9" stroke-opacity="1" stroke-width="1" stroke-linecap="square" stroke-linejoin="bevel" transform="matrix(1,0,0,1,0,0)"
font-family="MS Shell Dlg 2" font-size="8.25" font-weight="400" font-style="normal" 
>
<path vector-effect="non-scaling-stroke" fill-rule="evenodd" d="M91.08,46.38 L98.88,49.38 L93.82,41.31 L90.11,44.22 L91.08,46.38"/>
</g>

<g fill="#cccccc" fill-opacity="1" stroke="#cccccc" stroke-opacity="1" stroke-width="1" stroke-linecap="square" stroke-linejoin="bevel" transform="matrix(1,0,0,1,0,0)"
font-family="MS Shell Dlg 2" font-size="8.25" font-weight="400" font-style="normal" 
>
<polyline fill="none" vector-effect="non-scaling-stroke" points="68.36,36.84 75.11,36.44 88.73,36.36 93.12,38.32 97.26,45.1 96.65,49.16 93.22,52.31 88,55 80.55,55.33 " />
<polyline fill="none" vector-effect="non-scaling-stroke" points="74.87,68.38 32.05,68.9 " />
<polyline fill="none" vector-effect="non-scaling-stroke" points="80.55,55.33 37.75,55.7 " />
</g>
</g>
</svg>
