<?xml version="1.0" encoding="UTF-8" standalone="no"?>
<!-- Created with Inkscape (http://www.inkscape.org/) -->
<svg
   xmlns:a="http://ns.adobe.com/AdobeSVGViewerExtensions/3.0/"
   xmlns:i="http://ns.adobe.com/AdobeIllustrator/10.0/"
   xmlns:dc="http://purl.org/dc/elements/1.1/"
   xmlns:cc="http://web.resource.org/cc/"
   xmlns:rdf="http://www.w3.org/1999/02/22-rdf-syntax-ns#"
   xmlns:svg="http://www.w3.org/2000/svg"
   xmlns="http://www.w3.org/2000/svg"
   xmlns:xlink="http://www.w3.org/1999/xlink"
   xmlns:sodipodi="http://sodipodi.sourceforge.net/DTD/sodipodi-0.dtd"
   xmlns:inkscape="http://www.inkscape.org/namespaces/inkscape"
   width="48px"
   height="48px"
   id="svg51428"
   sodipodi:version="0.32"
   inkscape:version="0.44.1"
   sodipodi:docbase="e:\dev_clean\src\houdini\support\icons\sop"
   sodipodi:docname="captureoverride.svg">
  <defs
     id="defs51430">
    <linearGradient
       id="linearGradient3252">
      <stop
         id="stop3254"
         offset="0"
         style="stop-color:#b6cde6;stop-opacity:1" />
      <stop
         id="stop3256"
         offset="1"
         style="stop-color:#3465a4;stop-opacity:1" />
    </linearGradient>
    <radialGradient
       inkscape:collect="always"
       xlink:href="#linearGradient3252"
       id="radialGradient2917"
       cx="3.2992275"
       cy="3.4160771"
       fx="3.2992275"
       fy="3.4160771"
       r="2.7505228"
       gradientUnits="userSpaceOnUse" />
    <linearGradient
       id="linearGradient6415">
      <stop
         style="stop-color:#eeeeec;stop-opacity:0.50196081;"
         offset="0"
         id="stop6417" />
      <stop
         style="stop-color:white;stop-opacity:0.75294119;"
         offset="1"
         id="stop6419" />
    </linearGradient>
    <linearGradient
       y2="206.7433"
       x2="182.12219"
       y1="247.7437"
       x1="208.95799"
       gradientUnits="userSpaceOnUse"
       id="XMLID_617_">
      <stop
         id="stop8777"
         style="stop-color:#8EA3B2"
         offset="0" />
      <stop
         id="stop8779"
         style="stop-color:#DCE6E9"
         offset="1" />
      <a:midPointStop
         style="stop-color:#8EA3B2"
         offset="0" />
      <a:midPointStop
         style="stop-color:#8EA3B2"
         offset="0.5" />
      <a:midPointStop
         style="stop-color:#DCE6E9"
         offset="1" />
    </linearGradient>
    <linearGradient
       y2="1712.6716"
       x2="949.1129"
       y1="1677.3403"
       x1="928.4619"
       gradientUnits="userSpaceOnUse"
       id="XMLID_824_"
       gradientTransform="translate(-904.2197,-1655.897)">
      <stop
         id="stop22180"
         style="stop-color:#FEF3DC"
         offset="0" />
      <stop
         id="stop22182"
         style="stop-color:#FAAF3E"
         offset="1" />
      <a:midPointStop
         style="stop-color:#FEF3DC"
         offset="0" />
      <a:midPointStop
         style="stop-color:#FEF3DC"
         offset="0.5" />
      <a:midPointStop
         style="stop-color:#FAAF3E"
         offset="1" />
    </linearGradient>
    <radialGradient
       inkscape:collect="always"
       xlink:href="#linearGradient3252"
       id="radialGradient4957"
       gradientUnits="userSpaceOnUse"
       cx="3.2992275"
       cy="3.4160771"
       fx="3.2992275"
       fy="3.4160771"
       r="2.7505228" />
    <radialGradient
       inkscape:collect="always"
       xlink:href="#linearGradient3252"
       id="radialGradient4961"
       gradientUnits="userSpaceOnUse"
       cx="3.2992275"
       cy="3.4160771"
       fx="3.2992275"
       fy="3.4160771"
       r="2.7505228" />
    <radialGradient
       inkscape:collect="always"
       xlink:href="#linearGradient3252"
       id="radialGradient4965"
       gradientUnits="userSpaceOnUse"
       cx="3.2992275"
       cy="3.4160771"
       fx="3.2992275"
       fy="3.4160771"
       r="2.7505228" />
    <radialGradient
       inkscape:collect="always"
       xlink:href="#linearGradient3252"
       id="radialGradient4969"
       gradientUnits="userSpaceOnUse"
       cx="3.2992275"
       cy="3.4160771"
       fx="3.2992275"
       fy="3.4160771"
       r="2.7505228" />
    <radialGradient
       inkscape:collect="always"
       xlink:href="#linearGradient3252"
       id="radialGradient4973"
       gradientUnits="userSpaceOnUse"
       cx="3.2992275"
       cy="3.4160771"
       fx="3.2992275"
       fy="3.4160771"
       r="2.7505228" />
    <radialGradient
       inkscape:collect="always"
       xlink:href="#linearGradient3252"
       id="radialGradient4977"
       gradientUnits="userSpaceOnUse"
       cx="3.2992275"
       cy="3.4160771"
       fx="3.2992275"
       fy="3.4160771"
       r="2.7505228" />
    <radialGradient
       inkscape:collect="always"
       xlink:href="#linearGradient3252"
       id="radialGradient4981"
       gradientUnits="userSpaceOnUse"
       cx="3.2992275"
       cy="3.4160771"
       fx="3.2992275"
       fy="3.4160771"
       r="2.7505228" />
    <radialGradient
       inkscape:collect="always"
       xlink:href="#linearGradient3252"
       id="radialGradient4985"
       gradientUnits="userSpaceOnUse"
       cx="3.2992275"
       cy="3.4160771"
       fx="3.2992275"
       fy="3.4160771"
       r="2.7505228" />
  </defs>
  <sodipodi:namedview
     id="base"
     pagecolor="#ffffff"
     bordercolor="#666666"
     borderopacity="1.0"
     inkscape:pageopacity="0.0"
     inkscape:pageshadow="2"
     inkscape:zoom="15.75"
     inkscape:cx="24"
     inkscape:cy="24"
     inkscape:current-layer="layer1"
     showgrid="true"
     inkscape:grid-bbox="true"
     inkscape:document-units="px"
     inkscape:window-width="1294"
     inkscape:window-height="1020"
     inkscape:window-x="317"
     inkscape:window-y="7" />
  <metadata
     id="metadata51433">
    <rdf:RDF>
      <cc:Work
         rdf:about="">
        <dc:format>image/svg+xml</dc:format>
        <dc:type
           rdf:resource="http://purl.org/dc/dcmitype/StillImage" />
      </cc:Work>
    </rdf:RDF>
  </metadata>
  <g
     id="layer1"
     inkscape:label="Layer 1"
     inkscape:groupmode="layer">
    <path
       style="opacity:0.5;fill:url(#XMLID_824_)"
       id="path22184"
       d="M 45.007328,15.155868 C 44.372328,15.342868 43.473328,17.765868 41.684328,20.344868 C 39.543328,23.430869 33.322328,26.578869 32.576328,27.324869 C 31.829328,28.072869 30.359328,29.393869 28.426328,30.578869 C 27.252328,31.296869 21.559328,33.233869 20.237328,34.787869 C 19.750328,35.359869 18.413328,36.262869 18.017328,36.957869 C 17.734328,37.451869 17.307328,38.785869 16.187328,39.906869 C 15.067328,41.025869 13.275328,41.922869 13.125328,42.295869 C 12.977328,42.668869 11.087328,45.791869 10.834328,46.193869 C 10.296328,47.047869 8.9323279,46.482869 9.4403279,45.369869 C 9.9563279,44.244869 11.445328,41.885869 11.333328,41.586869 C 11.221328,41.287869 10.886328,41.324869 10.587328,41.511869 C 10.288328,41.698869 7.2743279,45.495869 6.7123279,46.038869 C 6.0143279,46.711869 4.6913279,45.846869 5.3893279,44.955869 C 5.8463279,44.372869 9.2603279,40.557869 9.0573279,40.279869 C 8.7093279,39.806869 3.5443279,43.179869 3.0063279,43.439869 C 2.2613279,43.800869 1.4673279,42.645869 2.3103279,41.923869 C 2.9713279,41.357869 7.9733279,38.485869 7.7123279,38.112869 C 7.4503279,37.739869 2.0883279,39.819869 1.6593279,39.902869 C 0.91432786,40.046869 0.38932786,39.053869 1.0343279,38.434869 C 1.5693279,37.921869 6.3753279,36.438869 7.0403279,35.760869 C 7.5773279,35.213869 8.8463279,34.318869 8.6183279,33.838869 C 8.3243279,33.216869 6.2083279,33.424869 5.4973279,33.459869 C 3.8493279,33.539869 4.2263279,31.833869 6.0673279,31.695869 C 7.1233279,31.617869 8.1993279,31.341869 8.9243279,31.033869 C 9.7183279,30.697869 10.632328,30.278869 11.763328,30.278869 C 13.207328,30.278869 14.567328,31.018869 14.852328,30.840869 C 17.024328,29.473869 20.705328,24.602869 23.371328,22.672869 C 25.263328,21.301868 27.717328,20.963868 28.735328,19.752868 C 29.920328,18.348868 33.353328,12.740868 33.924328,11.533868 C 38.880328,-0.34813158 45.891328,1.7098685 47.542328,1.7098685"
       i:knockout="Off" />
    <polygon
       transform="translate(-904.2197,-1655.897)"
       style="fill:#709ec3;stroke:#224b87"
       id="polygon22186"
       points="935.428,1678.947 945.454,1663.282 950.019,1661.76 949.303,1666.146 935.428,1678.947 "
       i:knockout="Off" />
    <polygon
       transform="translate(-904.2197,-1655.897)"
       style="fill:#709ec3;stroke:#224b87"
       id="polygon22188"
       points="920.479,1689.957 930.952,1679.574 935.428,1678.947 933.28,1682.796 920.479,1689.957 "
       i:knockout="Off" />
    <polygon
       transform="translate(-904.2197,-1655.897)"
       style="fill:white"
       id="polygon22190"
       points="930.952,1679.574 920.479,1689.957 932.214,1681.32 930.952,1679.574 "
       i:knockout="Off" />
    <polygon
       transform="translate(-904.2197,-1655.897)"
       style="fill:#a0c6de"
       id="polygon22192"
       points="932.214,1681.32 935.428,1678.947 930.952,1679.574 932.214,1681.32 "
       i:knockout="Off" />
    <polygon
       transform="translate(-904.2197,-1655.897)"
       style="fill:#6b8599"
       id="polygon22194"
       points="932.214,1681.32 933.28,1682.796 935.428,1678.947 932.214,1681.32 "
       i:knockout="Off" />
    <polygon
       transform="translate(-904.2197,-1655.897)"
       style="fill:#a0c6de"
       id="polygon22196"
       points="920.479,1689.957 932.214,1681.32 933.28,1682.796 920.479,1689.957 "
       i:knockout="Off" />
    <polygon
       transform="translate(-904.2197,-1655.897)"
       style="fill:white"
       id="polygon22198"
       points="945.454,1663.282 947.448,1664.766 935.428,1678.947 945.454,1663.282 "
       i:knockout="Off" />
    <polygon
       transform="translate(-904.2197,-1655.897)"
       style="fill:#a0c6de"
       id="polygon22200"
       points="947.448,1664.766 950.019,1661.76 945.454,1663.282 947.448,1664.766 "
       i:knockout="Off" />
    <polygon
       transform="translate(-904.2197,-1655.897)"
       style="fill:#a0c6de"
       id="polygon22202"
       points="949.303,1666.146 947.448,1664.766 935.428,1678.947 949.303,1666.146 "
       i:knockout="Off" />
    <polygon
       transform="translate(-904.2197,-1655.897)"
       style="fill:#6b8599"
       id="polygon22204"
       points="950.019,1661.76 949.303,1666.146 947.448,1664.766 950.019,1661.76 "
       i:knockout="Off" />
    <path
       style="fill:none;stroke:#d99357;stroke-width:1.5;stroke-miterlimit:4;stroke-dasharray:none"
       id="path22774"
       d="M 45.007328,15.155868 C 44.372328,15.342868 43.473328,17.765868 41.684328,20.344868 C 39.543328,23.430869 33.322328,26.578869 32.576328,27.324869 C 31.829328,28.072869 30.359328,29.393869 28.426328,30.578869 C 27.252328,31.296869 21.559328,33.233869 20.237328,34.787869 C 19.750328,35.359869 18.413328,36.262869 18.017328,36.957869 C 17.734328,37.451869 17.307328,38.785869 16.187328,39.906869 C 15.067328,41.025869 13.275328,41.922869 13.125328,42.295869 C 12.977328,42.668869 11.087328,45.791869 10.834328,46.193869 C 10.296328,47.047869 8.9323279,46.482869 9.4403279,45.369869 C 9.9563279,44.244869 11.445328,41.885869 11.333328,41.586869 C 11.221328,41.287869 10.886328,41.324869 10.587328,41.511869 C 10.288328,41.698869 7.2743279,45.495869 6.7123279,46.038869 C 6.0143279,46.711869 4.6913279,45.846869 5.3893279,44.955869 C 5.8463279,44.372869 9.2603279,40.557869 9.0573279,40.279869 C 8.7093279,39.806869 3.5443279,43.179869 3.0063279,43.439869 C 2.2613279,43.800869 1.4673279,42.645869 2.3103279,41.923869 C 2.9713279,41.357869 7.9733279,38.485869 7.7123279,38.112869 C 7.4503279,37.739869 2.0883279,39.819869 1.6593279,39.902869 C 0.91432786,40.046869 0.38932786,39.053869 1.0343279,38.434869 C 1.5693279,37.921869 6.3753279,36.438869 7.0403279,35.760869 C 7.5773279,35.213869 8.8463279,34.318869 8.6183279,33.838869 C 8.3243279,33.216869 6.2083279,33.424869 5.4973279,33.459869 C 3.8493279,33.539869 4.2263279,31.833869 6.0673279,31.695869 C 7.1233279,31.617869 8.1993279,31.341869 8.9243279,31.033869 C 9.7183279,30.697869 10.632328,30.278869 11.763328,30.278869 C 13.207328,30.278869 14.567328,31.018869 14.852328,30.840869 C 17.024328,29.473869 20.705328,24.602869 23.371328,22.672869 C 25.263328,21.301868 27.717328,20.963868 28.735328,19.752868 C 29.920328,18.348868 33.353328,12.740868 33.924328,11.533868 C 38.880328,-0.34813158 45.891328,1.7098685 47.542328,1.7098685"
       i:knockout="Off" />
    <path
       sodipodi:type="arc"
       style="opacity:1;color:black;fill:url(#radialGradient2917);fill-opacity:1;fill-rule:evenodd;stroke:#15335f;stroke-width:0.94303727;stroke-linecap:round;stroke-linejoin:miter;marker:none;marker-start:none;marker-mid:none;marker-end:none;stroke-miterlimit:4;stroke-dasharray:none;stroke-dashoffset:0;stroke-opacity:1;visibility:visible;display:inline;overflow:visible"
       id="path2877"
       sodipodi:cx="3.8892739"
       sodipodi:cy="3.911716"
       sodipodi:rx="2.3575907"
       sodipodi:ry="2.3575907"
       d="M 6.2468646 3.911716 A 2.3575907 2.3575907 0 1 1  1.5316832,3.911716 A 2.3575907 2.3575907 0 1 1  6.2468646 3.911716 z"
       transform="matrix(1.060404,0,0,1.060404,16.30437,19.852)" />
    <path
       sodipodi:type="arc"
       style="opacity:1;color:black;fill:url(#radialGradient4957);fill-opacity:1;fill-rule:evenodd;stroke:#15335f;stroke-width:0.94303727;stroke-linecap:round;stroke-linejoin:miter;marker:none;marker-start:none;marker-mid:none;marker-end:none;stroke-miterlimit:4;stroke-dasharray:none;stroke-dashoffset:0;stroke-opacity:1;visibility:visible;display:inline;overflow:visible"
       id="path4955"
       sodipodi:cx="3.8892739"
       sodipodi:cy="3.911716"
       sodipodi:rx="2.3575907"
       sodipodi:ry="2.3575907"
       d="M 6.2468646 3.911716 A 2.3575907 2.3575907 0 1 1  1.5316832,3.911716 A 2.3575907 2.3575907 0 1 1  6.2468646 3.911716 z"
       transform="matrix(1.060404,0,0,1.060404,23.8758,16.13771)" />
    <path
       sodipodi:type="arc"
       style="opacity:1;color:black;fill:url(#radialGradient4961);fill-opacity:1;fill-rule:evenodd;stroke:#15335f;stroke-width:0.94303727;stroke-linecap:round;stroke-linejoin:miter;marker:none;marker-start:none;marker-mid:none;marker-end:none;stroke-miterlimit:4;stroke-dasharray:none;stroke-dashoffset:0;stroke-opacity:1;visibility:visible;display:inline;overflow:visible"
       id="path4959"
       sodipodi:cx="3.8892739"
       sodipodi:cy="3.911716"
       sodipodi:rx="2.3575907"
       sodipodi:ry="2.3575907"
       d="M 6.2468646 3.911716 A 2.3575907 2.3575907 0 1 1  1.5316832,3.911716 A 2.3575907 2.3575907 0 1 1  6.2468646 3.911716 z"
       transform="matrix(1.060404,0,0,1.060404,28.01865,9.280573)" />
    <path
       sodipodi:type="arc"
       style="opacity:1;color:black;fill:url(#radialGradient4965);fill-opacity:1;fill-rule:evenodd;stroke:#15335f;stroke-width:0.94303727;stroke-linecap:round;stroke-linejoin:miter;marker:none;marker-start:none;marker-mid:none;marker-end:none;stroke-miterlimit:4;stroke-dasharray:none;stroke-dashoffset:0;stroke-opacity:1;visibility:visible;display:inline;overflow:visible"
       id="path4963"
       sodipodi:cx="3.8892739"
       sodipodi:cy="3.911716"
       sodipodi:rx="2.3575907"
       sodipodi:ry="2.3575907"
       d="M 6.2468646 3.911716 A 2.3575907 2.3575907 0 1 1  1.5316832,3.911716 A 2.3575907 2.3575907 0 1 1  6.2468646 3.911716 z"
       transform="matrix(1.060404,0,0,1.060404,31.8758,13.852)" />
    <path
       sodipodi:type="arc"
       style="opacity:1;color:black;fill:url(#radialGradient4969);fill-opacity:1;fill-rule:evenodd;stroke:#15335f;stroke-width:0.94303727;stroke-linecap:round;stroke-linejoin:miter;marker:none;marker-start:none;marker-mid:none;marker-end:none;stroke-miterlimit:4;stroke-dasharray:none;stroke-dashoffset:0;stroke-opacity:1;visibility:visible;display:inline;overflow:visible"
       id="path4967"
       sodipodi:cx="3.8892739"
       sodipodi:cy="3.911716"
       sodipodi:rx="2.3575907"
       sodipodi:ry="2.3575907"
       d="M 6.2468646 3.911716 A 2.3575907 2.3575907 0 1 1  1.5316832,3.911716 A 2.3575907 2.3575907 0 1 1  6.2468646 3.911716 z"
       transform="matrix(1.060404,0,0,1.060404,26.59009,19.56628)" />
    <path
       sodipodi:type="arc"
       style="opacity:1;color:black;fill:url(#radialGradient4973);fill-opacity:1;fill-rule:evenodd;stroke:#15335f;stroke-width:0.94303727;stroke-linecap:round;stroke-linejoin:miter;marker:none;marker-start:none;marker-mid:none;marker-end:none;stroke-miterlimit:4;stroke-dasharray:none;stroke-dashoffset:0;stroke-opacity:1;visibility:visible;display:inline;overflow:visible"
       id="path4971"
       sodipodi:cx="3.8892739"
       sodipodi:cy="3.911716"
       sodipodi:rx="2.3575907"
       sodipodi:ry="2.3575907"
       d="M 6.2468646 3.911716 A 2.3575907 2.3575907 0 1 1  1.5316832,3.911716 A 2.3575907 2.3575907 0 1 1  6.2468646 3.911716 z"
       transform="matrix(1.060404,0,0,1.060404,19.44722,24.70915)" />
    <path
       sodipodi:type="arc"
       style="opacity:1;color:black;fill:url(#radialGradient4977);fill-opacity:1;fill-rule:evenodd;stroke:#15335f;stroke-width:0.94303727;stroke-linecap:round;stroke-linejoin:miter;marker:none;marker-start:none;marker-mid:none;marker-end:none;stroke-miterlimit:4;stroke-dasharray:none;stroke-dashoffset:0;stroke-opacity:1;visibility:visible;display:inline;overflow:visible"
       id="path4975"
       sodipodi:cx="3.8892739"
       sodipodi:cy="3.911716"
       sodipodi:rx="2.3575907"
       sodipodi:ry="2.3575907"
       d="M 6.2468646 3.911716 A 2.3575907 2.3575907 0 1 1  1.5316832,3.911716 A 2.3575907 2.3575907 0 1 1  6.2468646 3.911716 z"
       transform="matrix(1.060404,0,0,1.060404,22.8758,28.13772)" />
    <path
       sodipodi:type="arc"
       style="opacity:1;color:black;fill:url(#radialGradient4981);fill-opacity:1;fill-rule:evenodd;stroke:#15335f;stroke-width:0.94303727;stroke-linecap:round;stroke-linejoin:miter;marker:none;marker-start:none;marker-mid:none;marker-end:none;stroke-miterlimit:4;stroke-dasharray:none;stroke-dashoffset:0;stroke-opacity:1;visibility:visible;display:inline;overflow:visible"
       id="path4979"
       sodipodi:cx="3.8892739"
       sodipodi:cy="3.911716"
       sodipodi:rx="2.3575907"
       sodipodi:ry="2.3575907"
       d="M 6.2468646 3.911716 A 2.3575907 2.3575907 0 1 1  1.5316832,3.911716 A 2.3575907 2.3575907 0 1 1  6.2468646 3.911716 z"
       transform="matrix(1.060404,0,0,1.060404,29.44724,23.13771)" />
    <path
       sodipodi:type="arc"
       style="opacity:1;color:black;fill:url(#radialGradient4985);fill-opacity:1;fill-rule:evenodd;stroke:#15335f;stroke-width:0.94303727;stroke-linecap:round;stroke-linejoin:miter;marker:none;marker-start:none;marker-mid:none;marker-end:none;stroke-miterlimit:4;stroke-dasharray:none;stroke-dashoffset:0;stroke-opacity:1;visibility:visible;display:inline;overflow:visible"
       id="path4983"
       sodipodi:cx="3.8892739"
       sodipodi:cy="3.911716"
       sodipodi:rx="2.3575907"
       sodipodi:ry="2.3575907"
       d="M 6.2468646 3.911716 A 2.3575907 2.3575907 0 1 1  1.5316832,3.911716 A 2.3575907 2.3575907 0 1 1  6.2468646 3.911716 z"
       transform="matrix(1.060404,0,0,1.060404,36.8758,17.852)" />
    <path
       style="opacity:1;color:black;fill:#3465a4;fill-opacity:1;fill-rule:evenodd;stroke:#204a87;stroke-width:2.00000048;stroke-linecap:round;stroke-linejoin:miter;marker:none;marker-start:none;marker-mid:none;marker-end:none;stroke-miterlimit:4;stroke-dasharray:none;stroke-dashoffset:1;stroke-opacity:1;visibility:visible;display:inline;overflow:visible"
       d="M 1,1.15625 L 1,15 L 9.625,15 L 18.991071,22.133929 L 18.486607,15 L 24.71875,15 L 24.71875,1.15625 L 1,1.15625 z "
       id="rect4987"
       sodipodi:nodetypes="cccccccc" />
    <path
       style="font-size:12px;font-style:normal;font-variant:normal;font-weight:normal;font-stretch:normal;text-align:start;line-height:125%;writing-mode:lr-tb;text-anchor:start;fill:#eeeeec;fill-opacity:1;stroke:none;stroke-width:1px;stroke-linecap:butt;stroke-linejoin:miter;stroke-opacity:1;font-family:Tahoma"
       d="M 7.7794451,11.515789 L 4.3242188,11.515789 L 4.3242188,10.792381 L 5.6092203,10.792381 L 5.6092203,6.0426348 L 4.3242188,6.0426348 L 4.3242188,5.3953748 C 4.8096622,5.3953809 5.1674,5.3263715 5.397433,5.1883467 C 5.6274617,5.0503345 5.756755,4.7893684 5.7853131,4.4054477 L 6.5229992,4.4054477 L 6.5229992,10.792381 L 7.7794451,10.792381 L 7.7794451,11.515789 z M 13.471526,11.515789 L 9.0977616,11.515789 L 9.0977616,10.521103 C 9.4118722,10.222857 9.7085327,9.9373013 9.9877441,9.6644355 C 10.266952,9.391573 10.539817,9.1076038 10.806338,8.812527 C 11.345718,8.2192086 11.713768,7.7440759 11.910488,7.3871271 C 12.1072,7.0301868 12.205558,6.6613442 12.205561,6.2805981 C 12.205558,6.0838872 12.174623,5.9109674 12.112756,5.7618381 C 12.050882,5.6127204 11.966009,5.4889797 11.858135,5.3906156 C 11.747083,5.2954364 11.618582,5.2240475 11.472635,5.1764485 C 11.326681,5.1288623 11.166453,5.1050661 10.991949,5.1050596 C 10.823786,5.1050661 10.653245,5.1264826 10.480328,5.1693096 C 10.307407,5.2121493 10.141625,5.2652945 9.9829848,5.3287451 C 9.8497242,5.3826895 9.7212241,5.4477328 9.5974844,5.523875 C 9.4737426,5.6000291 9.373798,5.6650723 9.2976507,5.7190048 L 9.2452987,5.7190048 L 9.2452987,4.7100406 C 9.4420141,4.6116893 9.7156717,4.515711 10.066272,4.4221051 C 10.416869,4.3285134 10.749224,4.281714 11.063338,4.2817068 C 11.723286,4.281714 12.24046,4.4570134 12.614858,4.8076055 C 12.989249,5.1582111 13.176447,5.6333439 13.176452,6.2330054 C 13.176447,6.5090478 13.143926,6.7644615 13.078886,6.9992471 C 13.013838,7.2340418 12.924206,7.4513814 12.809988,7.6512663 C 12.692589,7.8575049 12.551397,8.062153 12.386413,8.2652116 C 12.221423,8.4682765 12.046916,8.6681654 11.862894,8.8648789 C 11.564645,9.1885113 11.232289,9.5248324 10.865829,9.8738431 C 10.499363,10.222857 10.206669,10.498894 9.9877441,10.701955 L 13.471526,10.701955 L 13.471526,11.515789 z M 15.951103,11.515789 L 14.813639,11.515789 L 14.813639,10.159399 L 15.951103,10.159399 L 15.951103,11.515789 z M 19.292107,5.1050596 C 19.120772,5.1050661 18.949438,5.1256895 18.778106,5.1669301 C 18.606771,5.2081834 18.438611,5.2621215 18.273624,5.3287451 C 18.121326,5.392208 17.988861,5.4588376 17.876226,5.5286343 C 17.763588,5.5984426 17.662851,5.6634859 17.574013,5.7237641 L 17.516901,5.7237641 L 17.516901,4.7195592 C 17.723135,4.6085166 18.003139,4.5077788 18.356911,4.4173458 C 18.710682,4.326927 19.047796,4.281714 19.368255,4.2817068 C 19.68871,4.281714 19.968713,4.3142355 20.208266,4.3792717 C 20.447812,4.444322 20.664358,4.5450597 20.857906,4.681485 C 21.067309,4.8337881 21.225158,5.0178129 21.331452,5.2335597 C 21.437738,5.4493192 21.490883,5.7015599 21.490888,5.9902829 C 21.490883,6.3805478 21.362383,6.7232145 21.105387,7.0182841 C 20.848383,7.3133628 20.540618,7.5005603 20.18209,7.5798774 L 20.18209,7.646507 C 20.33121,7.6750665 20.490646,7.7242455 20.660395,7.7940444 C 20.830139,7.8638505 20.987988,7.9669678 21.133942,8.1033965 C 21.279889,8.239832 21.398871,8.4151315 21.490888,8.6292953 C 21.582895,8.8434649 21.628901,9.1044311 21.628906,9.4121945 C 21.628901,9.7326533 21.57417,10.026935 21.464711,10.295037 C 21.355244,10.563145 21.200568,10.800314 21.000683,11.006548 C 20.794445,11.222301 20.545376,11.385703 20.253479,11.496752 C 19.961573,11.607801 19.630012,11.663326 19.258792,11.663327 C 18.903432,11.663326 18.551247,11.620493 18.202235,11.534827 C 17.853222,11.449159 17.559735,11.346043 17.321771,11.225474 L 17.321771,10.221269 L 17.388401,10.221269 C 17.58829,10.367221 17.856394,10.506826 18.192717,10.640084 C 18.529037,10.773344 18.865358,10.839975 19.201681,10.839974 C 19.395222,10.839975 19.589559,10.809039 19.78469,10.747168 C 19.979818,10.685298 20.142425,10.584561 20.272516,10.444955 C 20.399426,10.30535 20.496198,10.151468 20.562831,9.983306 C 20.629457,9.8151472 20.662771,9.6025669 20.662776,9.3455647 C 20.662771,9.0885668 20.62549,8.877573 20.550933,8.7125824 C 20.476367,8.5475976 20.372456,8.4175112 20.239201,8.3223227 C 20.105938,8.2271407 19.94809,8.1613043 19.765654,8.1248133 C 19.583213,8.088329 19.385703,8.0700851 19.173126,8.0700817 L 18.768588,8.0700817 L 18.768588,7.2800438 L 19.0827,7.2800438 C 19.511031,7.280048 19.85925,7.1785171 20.127358,6.9754508 C 20.395459,6.7723935 20.529512,6.4773193 20.529517,6.0902274 C 20.529512,5.9125538 20.494611,5.7594643 20.424812,5.6309583 C 20.355007,5.5024642 20.266167,5.4001402 20.158293,5.3239858 C 20.037722,5.2414981 19.904463,5.184387 19.758515,5.1526522 C 19.612561,5.1209302 19.457092,5.1050661 19.292107,5.1050596 L 19.292107,5.1050596 z "
       id="text4993" />
    <path
       style="opacity:1;color:black;fill:none;fill-opacity:1;fill-rule:evenodd;stroke:#729fcf;stroke-width:1;stroke-linecap:round;stroke-linejoin:miter;marker:none;marker-start:none;marker-mid:none;marker-end:none;stroke-miterlimit:4;stroke-dasharray:none;stroke-dashoffset:1;stroke-opacity:1;visibility:visible;display:inline;overflow:visible"
       d="M 2.5,2.5223205 L 2.5,13.445436 L 10.109127,13.445436 L 17.316468,18.992063 L 16.812004,13.445436 L 23.361607,13.445436 L 23.361607,2.5223205 L 2.5,2.5223205 z "
       id="path4998"
       sodipodi:nodetypes="cccccccc" />
  </g>
</svg>
