<?xml version="1.0" encoding="UTF-8" standalone="no"?>
<!-- Created with Inkscape (http://www.inkscape.org/) -->
<svg
   xmlns:a="http://ns.adobe.com/AdobeSVGViewerExtensions/3.0/"
   xmlns:i="http://ns.adobe.com/AdobeIllustrator/10.0/"
   xmlns:dc="http://purl.org/dc/elements/1.1/"
   xmlns:cc="http://web.resource.org/cc/"
   xmlns:rdf="http://www.w3.org/1999/02/22-rdf-syntax-ns#"
   xmlns:svg="http://www.w3.org/2000/svg"
   xmlns="http://www.w3.org/2000/svg"
   xmlns:sodipodi="http://sodipodi.sourceforge.net/DTD/sodipodi-0.dtd"
   xmlns:inkscape="http://www.inkscape.org/namespaces/inkscape"
   width="48px"
   height="48px"
   id="svg26626"
   sodipodi:version="0.32"
   inkscape:version="0.44"
   sodipodi:docbase="e:\dev_clean\src\houdini\support\icons\sop"
   sodipodi:docname="carve.svg">
  <defs
     id="defs26628">
    <linearGradient
       y2="179.6992"
       x2="938.56049"
       y1="179.6992"
       x1="911.2002"
       gradientUnits="userSpaceOnUse"
       id="XMLID_358_"
       gradientTransform="matrix(1.152781,0,0,1.151173,-1041.508,-187.7832)">
						<stop
   id="stop1946"
   style="stop-color:#8794A0"
   offset="0.0056" />

						<stop
   id="stop1948"
   style="stop-color:#E9F1F2"
   offset="0.8258" />

						<stop
   id="stop1950"
   style="stop-color:#BECCD4"
   offset="1" />

						<a:midPointStop
   style="stop-color:#8794A0"
   offset="0.0056" />

						<a:midPointStop
   style="stop-color:#8794A0"
   offset="0.5" />

						<a:midPointStop
   style="stop-color:#E9F1F2"
   offset="0.8258" />

						<a:midPointStop
   style="stop-color:#E9F1F2"
   offset="0.5" />

						<a:midPointStop
   style="stop-color:#BECCD4"
   offset="1" />

					</linearGradient>
    <linearGradient
       y2="187.2852"
       x2="938.56018"
       y1="187.2852"
       x1="911.15723"
       gradientUnits="userSpaceOnUse"
       id="XMLID_359_"
       gradientTransform="matrix(1.152781,0,0,1.151173,-1041.508,-187.7832)">
						<stop
   id="stop1957"
   style="stop-color:#D7D8D8"
   offset="0" />

						<stop
   id="stop1959"
   style="stop-color:#FFFFFF"
   offset="0.1517" />

						<stop
   id="stop1961"
   style="stop-color:#98A2B2"
   offset="0.4663" />

						<stop
   id="stop1963"
   style="stop-color:#9AA4B4"
   offset="0.6271" />

						<stop
   id="stop1965"
   style="stop-color:#A2ACB9"
   offset="0.7045" />

						<stop
   id="stop1967"
   style="stop-color:#B0BBC4"
   offset="0.7638" />

						<stop
   id="stop1969"
   style="stop-color:#B7C3CA"
   offset="0.7865" />

						<stop
   id="stop1971"
   style="stop-color:#8D97A6"
   offset="0.9438" />

						<stop
   id="stop1973"
   style="stop-color:#B7C3CA"
   offset="1" />

						<a:midPointStop
   style="stop-color:#D7D8D8"
   offset="0" />

						<a:midPointStop
   style="stop-color:#D7D8D8"
   offset="0.5" />

						<a:midPointStop
   style="stop-color:#FFFFFF"
   offset="0.1517" />

						<a:midPointStop
   style="stop-color:#FFFFFF"
   offset="0.5" />

						<a:midPointStop
   style="stop-color:#98A2B2"
   offset="0.4663" />

						<a:midPointStop
   style="stop-color:#98A2B2"
   offset="0.8333" />

						<a:midPointStop
   style="stop-color:#B7C3CA"
   offset="0.7865" />

						<a:midPointStop
   style="stop-color:#B7C3CA"
   offset="0.5" />

						<a:midPointStop
   style="stop-color:#8D97A6"
   offset="0.9438" />

						<a:midPointStop
   style="stop-color:#8D97A6"
   offset="0.5" />

						<a:midPointStop
   style="stop-color:#B7C3CA"
   offset="1" />

					</linearGradient>
    <linearGradient
       y2="186.0928"
       x2="938.47931"
       y1="186.0928"
       x1="911.23877"
       gradientUnits="userSpaceOnUse"
       id="XMLID_360_"
       gradientTransform="matrix(1.152781,0,0,1.151173,-1041.508,-187.7832)">
						<stop
   id="stop1978"
   style="stop-color:#D7D8D8"
   offset="0" />

						<stop
   id="stop1980"
   style="stop-color:#B7C3CA"
   offset="0.7865" />

						<stop
   id="stop1982"
   style="stop-color:#A7B1BF"
   offset="0.9438" />

						<stop
   id="stop1984"
   style="stop-color:#B7C3CA"
   offset="1" />

						<a:midPointStop
   style="stop-color:#D7D8D8"
   offset="0" />

						<a:midPointStop
   style="stop-color:#D7D8D8"
   offset="0.5" />

						<a:midPointStop
   style="stop-color:#B7C3CA"
   offset="0.7865" />

						<a:midPointStop
   style="stop-color:#B7C3CA"
   offset="0.5" />

						<a:midPointStop
   style="stop-color:#A7B1BF"
   offset="0.9438" />

						<a:midPointStop
   style="stop-color:#A7B1BF"
   offset="0.5" />

						<a:midPointStop
   style="stop-color:#B7C3CA"
   offset="1" />

					</linearGradient>
  </defs>
  <sodipodi:namedview
     id="base"
     pagecolor="#ffffff"
     bordercolor="#666666"
     borderopacity="1.0"
     inkscape:pageopacity="0.0"
     inkscape:pageshadow="2"
     inkscape:zoom="7"
     inkscape:cx="24"
     inkscape:cy="24"
     inkscape:current-layer="layer1"
     showgrid="true"
     inkscape:grid-bbox="true"
     inkscape:document-units="px"
     inkscape:window-width="853"
     inkscape:window-height="573"
     inkscape:window-x="110"
     inkscape:window-y="145" />
  <metadata
     id="metadata26631">
    <rdf:RDF>
      <cc:Work
         rdf:about="">
        <dc:format>image/svg+xml</dc:format>
        <dc:type
           rdf:resource="http://purl.org/dc/dcmitype/StillImage" />
      </cc:Work>
    </rdf:RDF>
  </metadata>
  <g
     id="layer1"
     inkscape:label="Layer 1"
     inkscape:groupmode="layer">
    <path
       style="fill:url(#XMLID_358_)"
       id="path1952"
       d="M 40.447427,37.725807 C 40.447427,35.68708 38.908465,33.649505 35.827081,32.090817 C 29.670077,28.9815 19.684687,28.9815 13.524224,32.090817 C 10.439382,33.650656 8.8981133,35.697441 8.9061827,37.73847 L 8.9061827,8.4042912 C 8.8981133,6.3632624 10.439382,4.3164776 13.524224,2.7566389 C 19.684687,-0.35267811 29.670077,-0.35267811 35.827081,2.7566389 C 38.908465,4.3153265 40.447427,6.3517506 40.447427,8.3916283 L 40.447427,37.725807 z "
       i:knockout="Off" />
    <path
       style="fill:none;stroke:#363f4c;stroke-width:0.70000005"
       id="path1954"
       d="M 40.447424,37.725823 C 40.447424,35.687095 38.908461,33.649519 35.827078,32.090831 C 29.670074,28.981513 19.684685,28.981513 13.524223,32.090831 C 10.439381,33.65067 8.8981132,35.697456 8.9061827,37.738486 L 8.9061827,8.4042948 C 8.8981132,6.3632651 10.439381,4.3164795 13.524223,2.7566401 C 19.684685,-0.35267823 29.670074,-0.35267823 35.827078,2.7566401 C 38.908461,4.3153283 40.447424,6.3517534 40.447424,8.3916319 L 40.447424,37.725823 z "
       i:knockout="Off" />
    <path
       style="fill:url(#XMLID_359_)"
       id="path1975"
       d="M 8.9765024,8.3927795 L 8.9765024,8.3927795 C 8.9765024,10.609938 10.648035,12.673991 13.679849,14.20505 C 16.280524,15.519689 19.580936,16.269102 22.980488,16.45329 L 22.974724,16.462499 L 22.974724,47.234492 C 19.517533,47.010013 16.160634,46.094831 13.511543,44.490096 C 10.431312,42.621743 8.888891,40.1732 8.888891,37.724656 L 8.888891,8.4031401 L 8.9765024,8.3927795 z "
       i:knockout="Off" />
    <path
       style="fill:url(#XMLID_360_)"
       id="path1986"
       d="M 40.443969,8.4042912 L 40.443969,37.725807 L 40.453191,37.723504 C 40.453191,40.172048 38.911923,42.620592 35.829386,44.491248 L 35.829386,14.110654 C 38.745923,12.591106 40.350594,10.565042 40.350594,8.3927795 L 40.443969,8.4042912 z "
       i:knockout="Off" />
    <g
       transform="matrix(1.152781,0,0,1.151173,-1041.508,-187.7832)"
       id="g1988"
       i:knockout="Off">
						<path
   style="fill:none;stroke:#363f4c;stroke-width:0.60765123"
   id="path1990"
   d="M 911.28,170.434 L 911.355,170.424 L 911.355,170.424 C 911.355,172.35 912.805,174.143 915.435,175.473 C 917.664,176.601 920.498,177.246 923.409,177.416 L 923.409,177.416 L 923.404,204.155 C 920.356,203.975 917.543,203.187 915.209,201.771 C 912.538,200.148 911.2,198.021 911.2,195.894 L 911.2,170.423 M 938.571,170.424 L 938.571,195.895 L 938.58,195.893 C 938.58,198.02 937.242,200.147 934.568,201.772 L 934.568,175.463 L 934.568,175.463 C 937.099,174.143 938.571,172.311 938.571,170.424 L 938.652,170.434"
   i:knockout="Off" />

					</g>
    <path
       style="fill:none;stroke:#ed2829;stroke-width:1.00000012"
       id="path1992"
       d="M 24.7477,16.538484 C 28.049264,16.532728 31.349676,16.006642 34.120962,14.959074"
       i:knockout="Off" />
    <path
       style="fill:none;stroke:#ed2829;stroke-width:1.00000012"
       id="path1994"
       d="M 34.112892,45.277518 C 31.361204,46.402214 28.088459,47.171197 24.813408,47.259838"
       i:knockout="Off" />
  </g>
</svg>
