<?xml version="1.0" encoding="UTF-8" standalone="no"?>
<!-- Created with Inkscape (http://www.inkscape.org/) -->

<svg
   xmlns:i="http://ns.adobe.com/AdobeIllustrator/10.0/"
   xmlns:a="http://ns.adobe.com/AdobeSVGViewerExtensions/3.0/"
   xmlns:dc="http://purl.org/dc/elements/1.1/"
   xmlns:cc="http://creativecommons.org/ns#"
   xmlns:rdf="http://www.w3.org/1999/02/22-rdf-syntax-ns#"
   xmlns:svg="http://www.w3.org/2000/svg"
   xmlns="http://www.w3.org/2000/svg"
   xmlns:sodipodi="http://sodipodi.sourceforge.net/DTD/sodipodi-0.dtd"
   xmlns:inkscape="http://www.inkscape.org/namespaces/inkscape"
   width="48px"
   height="48px"
   id="svg51428"
   sodipodi:version="0.32"
   inkscape:version="0.48.4 r9939"
   sodipodi:docname="capture.svg"
   version="1.1">
  <defs
     id="defs51430">
    <linearGradient
       y2="1712.6716"
       x2="949.1129"
       y1="1677.3403"
       x1="928.4619"
       gradientUnits="userSpaceOnUse"
       id="XMLID_824_"
       gradientTransform="matrix(1.0100818,0,0,1.010094,-913.39572,-1673.0316)">
      <stop
         id="stop22180"
         style="stop-color:#FEF3DC"
         offset="0" />
      <stop
         id="stop22182"
         style="stop-color:#FAAF3E"
         offset="1" />
      <a:midPointStop
         style="stop-color:#FEF3DC"
         offset="0" />
      <a:midPointStop
         style="stop-color:#FEF3DC"
         offset="0.5" />
      <a:midPointStop
         style="stop-color:#FAAF3E"
         offset="1" />
    </linearGradient>
  </defs>
  <sodipodi:namedview
     id="base"
     pagecolor="#ffffff"
     bordercolor="#666666"
     borderopacity="1.0"
     inkscape:pageopacity="0.0"
     inkscape:pageshadow="2"
     inkscape:zoom="28"
     inkscape:cx="22.605973"
     inkscape:cy="23.299773"
     inkscape:current-layer="layer1"
     showgrid="true"
     inkscape:grid-bbox="true"
     inkscape:document-units="px"
     inkscape:window-width="2560"
     inkscape:window-height="1537"
     inkscape:window-x="-8"
     inkscape:window-y="-8"
     inkscape:window-maximized="1" />
  <metadata
     id="metadata51433">
    <rdf:RDF>
      <cc:Work
         rdf:about="">
        <dc:format>image/svg+xml</dc:format>
        <dc:type
           rdf:resource="http://purl.org/dc/dcmitype/StillImage" />
        <dc:title></dc:title>
      </cc:Work>
    </rdf:RDF>
  </metadata>
  <g
     id="layer1"
     inkscape:label="Layer 1"
     inkscape:groupmode="layer">
    <path
       style="opacity:0.50000000000000000;fill:#d1f3ae;fill-opacity:1"
       id="path22184"
       d="m 45.401161,14.888906 c -0.641401,0.188887 -1.549465,2.636345 -3.356501,5.241378 -2.162585,3.117151 -8.446303,6.296927 -9.199825,7.050457 -0.75453,0.75555 -2.239351,2.089884 -4.191838,3.286846 -1.185837,0.725248 -6.936232,2.6818 -8.27156,4.251486 -0.49191,0.577774 -1.842389,1.489888 -2.242382,2.191904 -0.285853,0.498986 -0.717157,1.846452 -1.848449,2.978767 -1.131292,1.130295 -2.941358,2.036349 -3.092871,2.413115 -0.149491,0.376765 -2.058546,3.531288 -2.314096,3.937346 -0.543425,0.86262 -1.9211762,0.291917 -1.4080546,-0.832318 C 9.9967865,44.271532 11.500799,41.88872 11.387669,41.586702 11.27454,41.284684 10.936162,41.322057 10.634148,41.510944 10.332134,41.699832 7.2877473,45.535158 6.7200814,46.08364 6.0150443,46.763434 4.6787062,45.889702 5.3837433,44.989709 5.8453506,44.400824 9.2937696,40.547315 9.088723,40.266509 8.7372145,39.788735 3.5201424,43.195782 2.9767184,43.458406 2.2242075,43.82305 1.4222027,42.656391 2.2737015,41.927104 2.9413656,41.35539 7.9937944,38.454401 7.7301631,38.077635 7.4655217,37.70087 2.0494634,39.801866 1.6161383,39.885703 0.86362741,40.031157 0.3333345,39.028134 0.98483726,38.402885 1.525231,37.884708 6.3796838,36.386738 7.0513881,35.701894 7.593802,35.149373 8.8755958,34.245339 8.6452972,33.760494 8.3483331,33.132215 6.2110001,33.342314 5.492832,33.377668 3.8282174,33.458475 4.2090182,31.735255 6.0685786,31.595862 7.135225,31.517075 8.2220729,31.238289 8.9543821,30.92718 c 0.802005,-0.339392 1.7252199,-0.762622 2.8676219,-0.762622 1.458558,0 2.832269,0.74747 3.120143,0.567674 2.193898,-1.380799 5.912009,-6.300966 8.604886,-8.250449 1.911074,-1.384839 4.389815,-1.726251 5.418079,-2.949475 1.196947,-1.418172 4.664557,-7.082779 5.241313,-8.301963 5.005966,-12.00193599 12.087649,-9.9231625 13.755294,-9.9231625"
       i:knockout="Off"
       inkscape:connector-curvature="0" />
    <polygon
       transform="translate(-904.2197,-1655.897)"
       style="fill:#709ec3;stroke:#224b87"
       id="polygon22186"
       points="935.428,1678.947 945.454,1663.282 950.019,1661.76 949.303,1666.146 935.428,1678.947 "
       i:knockout="Off" />
    <polygon
       transform="translate(-904.2197,-1655.897)"
       style="fill:#709ec3;stroke:#224b87"
       id="polygon22188"
       points="920.479,1689.957 930.952,1679.574 935.428,1678.947 933.28,1682.796 920.479,1689.957 "
       i:knockout="Off" />
    <polygon
       transform="translate(-904.2197,-1655.897)"
       style="fill:white"
       id="polygon22190"
       points="930.952,1679.574 920.479,1689.957 932.214,1681.32 930.952,1679.574 "
       i:knockout="Off" />
    <polygon
       transform="translate(-904.2197,-1655.897)"
       style="fill:#a0c6de"
       id="polygon22192"
       points="932.214,1681.32 935.428,1678.947 930.952,1679.574 932.214,1681.32 "
       i:knockout="Off" />
    <polygon
       transform="translate(-904.2197,-1655.897)"
       style="fill:#6b8599"
       id="polygon22194"
       points="932.214,1681.32 933.28,1682.796 935.428,1678.947 932.214,1681.32 "
       i:knockout="Off" />
    <polygon
       transform="translate(-904.2197,-1655.897)"
       style="fill:#a0c6de"
       id="polygon22196"
       points="920.479,1689.957 932.214,1681.32 933.28,1682.796 920.479,1689.957 "
       i:knockout="Off" />
    <polygon
       transform="translate(-904.2197,-1655.897)"
       style="fill:white"
       id="polygon22198"
       points="945.454,1663.282 947.448,1664.766 935.428,1678.947 945.454,1663.282 "
       i:knockout="Off" />
    <polygon
       transform="translate(-904.2197,-1655.897)"
       style="fill:#a0c6de"
       id="polygon22200"
       points="947.448,1664.766 950.019,1661.76 945.454,1663.282 947.448,1664.766 "
       i:knockout="Off" />
    <polygon
       transform="translate(-904.2197,-1655.897)"
       style="fill:#a0c6de"
       id="polygon22202"
       points="949.303,1666.146 947.448,1664.766 935.428,1678.947 949.303,1666.146 "
       i:knockout="Off" />
    <polygon
       transform="translate(-904.2197,-1655.897)"
       style="fill:#6b8599"
       id="polygon22204"
       points="950.019,1661.76 949.303,1666.146 947.448,1664.766 950.019,1661.76 "
       i:knockout="Off" />
    <path
       style="fill:none;stroke:#4e9a06;stroke-width:1;stroke-miterlimit:4;stroke-dasharray:none"
       id="path22774"
       d="m 45.401161,14.888906 c -0.641402,0.188887 -1.549466,2.636345 -3.356502,5.241377 -2.162584,3.117151 -8.446303,6.296927 -9.199823,7.050457 -0.754532,0.755551 -2.239352,2.089885 -4.19184,3.286846 -1.185836,0.725248 -6.936231,2.681799 -8.27156,4.251485 -0.491909,0.577774 -1.842388,1.489889 -2.24238,2.191905 -0.285853,0.498986 -0.717159,1.846451 -1.84845,2.978767 -1.131291,1.130295 -2.941358,2.036349 -3.09287,2.413114 -0.149493,0.376765 -2.058547,3.531288 -2.314098,3.937346 C 10.340215,47.102824 8.9624628,46.53212 9.4755843,45.407886 9.9967864,44.27153 11.500798,41.888719 11.387669,41.5867 11.27454,41.284682 10.936162,41.322055 10.634149,41.510941 10.332134,41.699829 7.2877473,45.535155 6.7200813,46.083636 6.0150443,46.763432 4.6787061,45.889701 5.3837431,44.989707 5.8453505,44.400822 9.2937695,40.547314 9.0887229,40.266507 8.7372146,39.788733 3.5201424,43.19578 2.9767185,43.458404 2.2242076,43.823048 1.4222027,42.656389 2.2737015,41.927102 2.9413656,41.355388 7.9937943,38.454399 7.7301631,38.077633 7.4655216,37.700869 2.0494634,39.801864 1.6161383,39.885702 0.86362741,40.031156 0.3333345,39.028132 0.98483726,38.402884 1.525231,37.884706 6.3796838,36.386737 7.0513881,35.701893 7.593802,35.149372 8.8755957,34.245337 8.6452971,33.760492 8.348333,33.132213 6.2110001,33.342313 5.492832,33.377666 c -1.6646147,0.08081 -1.2838138,-1.642412 0.5757466,-1.781805 1.0666463,-0.07879 2.1534943,-0.357574 2.8858035,-0.668682 0.8020049,-0.339392 1.7252189,-0.762621 2.8676219,-0.762621 1.458558,0 2.832269,0.747469 3.120143,0.567673 2.193897,-1.380799 5.912008,-6.300967 8.604886,-8.250448 1.911075,-1.38484 4.389816,-1.726251 5.418078,-2.949476 1.196947,-1.418171 4.664557,-7.082778 5.241315,-8.301962 C 39.21239,-0.77159097 46.294074,1.3071825 47.961719,1.3071825"
       i:knockout="Off"
       inkscape:connector-curvature="0" />
    <path
       style="fill:none;stroke:#4e9a06;stroke-width:0.50000000000000000;stroke-linecap:butt;stroke-linejoin:miter;stroke-opacity:1;stroke-miterlimit:4;stroke-dasharray:none"
       d="m 16.678572,29.357143 c 2.200454,-1.009002 5.162699,4.323717 3.714285,5.357143"
       id="path6980"
       inkscape:connector-curvature="0"
       sodipodi:nodetypes="cc" />
    <path
       sodipodi:nodetypes="cc"
       inkscape:connector-curvature="0"
       id="path6982"
       d="m 19.857142,25.921668 c 2.373046,-1.23901 5.567633,5.309332 4.005614,6.578333"
       style="fill:none;stroke:#4e9a06;stroke-width:0.50000000000000000;stroke-linecap:butt;stroke-linejoin:miter;stroke-opacity:1;stroke-miterlimit:4;stroke-dasharray:none" />
    <path
       style="fill:none;stroke:#4e9a06;stroke-width:0.50000000000000000;stroke-linecap:butt;stroke-linejoin:miter;stroke-opacity:1;stroke-miterlimit:4;stroke-dasharray:none"
       d="m 22.82143,23.098274 c 2.814113,-1.508448 6.602463,6.46391 4.750119,8.00887"
       id="path6984"
       inkscape:connector-curvature="0"
       sodipodi:nodetypes="cc" />
    <path
       sodipodi:nodetypes="cc"
       inkscape:connector-curvature="0"
       id="path6986"
       d="m 27.535716,20.511207 c 2.737406,-1.383587 6.422492,5.928861 4.62064,7.345938"
       style="fill:none;stroke:#4e9a06;stroke-width:0.50000000000000000;stroke-linecap:butt;stroke-linejoin:miter;stroke-opacity:1;stroke-miterlimit:4;stroke-dasharray:none" />
    <path
       style="fill:none;stroke:#4e9a06;stroke-width:0.50000000000000000;stroke-linecap:butt;stroke-linejoin:miter;stroke-opacity:1;stroke-miterlimit:4;stroke-dasharray:none"
       d="m 30.500002,17.378228 c 3.236004,-1.462447 7.592301,6.266787 5.462255,7.764633"
       id="path6988"
       inkscape:connector-curvature="0"
       sodipodi:nodetypes="cc" />
    <path
       sodipodi:nodetypes="cc"
       inkscape:connector-curvature="0"
       id="path6990"
       d="m 33.178573,12.942751 c 3.147873,-1.763883 9.174039,5.680974 7.242594,8.985824"
       style="fill:none;stroke:#4e9a06;stroke-width:0.50000000000000000;stroke-linecap:butt;stroke-linejoin:miter;stroke-opacity:1;stroke-miterlimit:4;stroke-dasharray:none" />
    <path
       style="fill:none;stroke:#4e9a06;stroke-width:0.50000000000000000;stroke-linecap:butt;stroke-linejoin:miter;stroke-opacity:1;stroke-miterlimit:4;stroke-dasharray:none"
       d="m 35.535716,8.3565061 c 4.904389,-1.5741644 9.542374,4.6740859 8.492713,8.4292119"
       id="path6992"
       inkscape:connector-curvature="0"
       sodipodi:nodetypes="cc" />
    <path
       sodipodi:nodetypes="cc"
       inkscape:connector-curvature="0"
       id="path6994"
       d="M 40.500001,2.5350776 C 43.14759,3.7934497 46.55302,9.6193961 45.421286,15.107147"
       style="fill:none;stroke:#4e9a06;stroke-width:0.50000000000000000;stroke-linecap:butt;stroke-linejoin:miter;stroke-opacity:1;stroke-miterlimit:4;stroke-dasharray:none" />
  </g>
</svg>
