<?xml version="1.0" encoding="UTF-8" standalone="no"?>
<!-- Created with Inkscape (http://www.inkscape.org/) -->

<svg
   xmlns:dc="http://purl.org/dc/elements/1.1/"
   xmlns:cc="http://creativecommons.org/ns#"
   xmlns:rdf="http://www.w3.org/1999/02/22-rdf-syntax-ns#"
   xmlns:svg="http://www.w3.org/2000/svg"
   xmlns="http://www.w3.org/2000/svg"
   xmlns:xlink="http://www.w3.org/1999/xlink"
   xmlns:sodipodi="http://sodipodi.sourceforge.net/DTD/sodipodi-0.dtd"
   xmlns:inkscape="http://www.inkscape.org/namespaces/inkscape"
   width="48"
   height="48"
   id="svg2"
   version="1.1"
   inkscape:version="0.48.5 r10040"
   sodipodi:docname="New document 1">
  <defs
     id="defs4">
    <linearGradient
       id="linearGradient4178">
      <stop
         style="stop-color:#e1e1e1;stop-opacity:1;"
         offset="0"
         id="stop4180" />
      <stop
         style="stop-color:#a5a5a5;stop-opacity:1;"
         offset="1"
         id="stop4182" />
    </linearGradient>
    <linearGradient
       id="linearGradient4168">
      <stop
         style="stop-color:#ffffff;stop-opacity:1;"
         offset="0"
         id="stop4170" />
      <stop
         id="stop4176"
         offset="0.5"
         style="stop-color:#ffffff;stop-opacity:1;" />
      <stop
         style="stop-color:#939393;stop-opacity:1;"
         offset="1"
         id="stop4172" />
    </linearGradient>
    <linearGradient
       id="linearGradient4124">
      <stop
         style="stop-color:#a5a5a5;stop-opacity:1;"
         offset="0"
         id="stop4126" />
      <stop
         id="stop4134"
         offset="0.25"
         style="stop-color:#c8c8c8;stop-opacity:1;" />
      <stop
         id="stop4132"
         offset="0.5"
         style="stop-color:#a5a5a5;stop-opacity:1;" />
      <stop
         style="stop-color:#777777;stop-opacity:1;"
         offset="1"
         id="stop4128" />
    </linearGradient>
    <linearGradient
       id="linearGradient4011">
      <stop
         style="stop-color:#c1c1c1;stop-opacity:1;"
         offset="0"
         id="stop4013" />
      <stop
         id="stop4021"
         offset="0.33116582"
         style="stop-color:#bfbfbf;stop-opacity:1;" />
      <stop
         id="stop4019"
         offset="0.61126077"
         style="stop-color:#ffffff;stop-opacity:1;" />
      <stop
         style="stop-color:#ffffff;stop-opacity:1;"
         offset="1"
         id="stop4015" />
    </linearGradient>
    <linearGradient
       id="linearGradient3972">
      <stop
         style="stop-color:#2e3436;stop-opacity:1;"
         offset="0"
         id="stop3974" />
      <stop
         style="stop-color:#bababa;stop-opacity:1;"
         offset="1"
         id="stop3976" />
    </linearGradient>
    <linearGradient
       id="linearGradient3954">
      <stop
         style="stop-color:#575757;stop-opacity:1;"
         offset="0"
         id="stop3956" />
      <stop
         style="stop-color:#000000;stop-opacity:1;"
         offset="1"
         id="stop3958" />
    </linearGradient>
    <linearGradient
       id="linearGradient3884">
      <stop
         style="stop-color:#9a9c98;stop-opacity:1"
         offset="0"
         id="stop3886" />
      <stop
         style="stop-color:#000000;stop-opacity:1;"
         offset="1"
         id="stop3888" />
    </linearGradient>
    <linearGradient
       id="linearGradient3864">
      <stop
         style="stop-color:#ffffff;stop-opacity:1;"
         offset="0"
         id="stop3866" />
      <stop
         id="stop3874"
         offset="0.4630799"
         style="stop-color:#c3c3c3;stop-opacity:1;" />
      <stop
         id="stop3872"
         offset="0.76722348"
         style="stop-color:#c3c3c3;stop-opacity:1;" />
      <stop
         style="stop-color:#555555;stop-opacity:1;"
         offset="1"
         id="stop3868" />
    </linearGradient>
    <linearGradient
       inkscape:collect="always"
       xlink:href="#linearGradient3884"
       id="linearGradient3930"
       gradientUnits="userSpaceOnUse"
       x1="27.670807"
       y1="1015.6845"
       x2="21.496603"
       y2="1040.1041"
       gradientTransform="translate(3.6160714,-3.4375)" />
    <linearGradient
       inkscape:collect="always"
       xlink:href="#linearGradient3864"
       id="linearGradient3951"
       gradientUnits="userSpaceOnUse"
       gradientTransform="translate(0,0.69447988)"
       x1="27.213575"
       y1="1014.8856"
       x2="21.996281"
       y2="1040.7784" />
    <linearGradient
       inkscape:collect="always"
       xlink:href="#linearGradient3954"
       id="linearGradient3960"
       x1="24.236473"
       y1="10.930803"
       x2="25.883928"
       y2="37.136162"
       gradientUnits="userSpaceOnUse"
       gradientTransform="translate(0,1005.0567)" />
    <linearGradient
       inkscape:collect="always"
       xlink:href="#linearGradient3954-3"
       id="linearGradient3968"
       x1="25.999214"
       y1="1008.7648"
       x2="26.541246"
       y2="1016.561"
       gradientUnits="userSpaceOnUse" />
    <linearGradient
       inkscape:collect="always"
       xlink:href="#linearGradient3972"
       id="linearGradient3978"
       x1="23.839287"
       y1="12.08482"
       x2="22.946428"
       y2="34.58482"
       gradientUnits="userSpaceOnUse"
       gradientTransform="translate(0,1005.0567)" />
    <linearGradient
       inkscape:collect="always"
       xlink:href="#linearGradient3954"
       id="linearGradient3989"
       x1="32.01326"
       y1="16.247768"
       x2="31.754465"
       y2="38.122768"
       gradientUnits="userSpaceOnUse"
       gradientTransform="translate(0,1005.0567)" />
    <linearGradient
       inkscape:collect="always"
       xlink:href="#linearGradient4011"
       id="linearGradient4017"
       x1="20.349379"
       y1="1015.7574"
       x2="23.237675"
       y2="1003.7485"
       gradientUnits="userSpaceOnUse" />
    <linearGradient
       inkscape:collect="always"
       xlink:href="#linearGradient3954-3"
       id="linearGradient4029"
       x1="4.3505673"
       y1="1020.4266"
       x2="3.290179"
       y2="1028.3284"
       gradientUnits="userSpaceOnUse"
       gradientTransform="translate(0,0.69447988)" />
    <linearGradient
       inkscape:collect="always"
       xlink:href="#linearGradient3954-3"
       id="linearGradient4037"
       x1="7.6056442"
       y1="1034.7894"
       x2="5.7946377"
       y2="1041.3965"
       gradientUnits="userSpaceOnUse"
       gradientTransform="translate(0,1.1364216)" />
    <linearGradient
       inkscape:collect="always"
       xlink:href="#linearGradient3954-3"
       id="linearGradient4049"
       x1="11.678572"
       y1="1032.9642"
       x2="13.319983"
       y2="1036.5356"
       gradientUnits="userSpaceOnUse"
       gradientTransform="translate(0.25253814,1.3258252)" />
    <linearGradient
       inkscape:collect="always"
       xlink:href="#linearGradient3954-3"
       id="linearGradient4057"
       x1="23.09083"
       y1="1043.2386"
       x2="25.084951"
       y2="1052.3905"
       gradientUnits="userSpaceOnUse" />
    <linearGradient
       inkscape:collect="always"
       xlink:href="#linearGradient3954-3"
       id="linearGradient4029-5"
       x1="12.430924"
       y1="1024.5784"
       x2="11.772322"
       y2="1028.8641"
       gradientUnits="userSpaceOnUse"
       gradientTransform="translate(0,0.69447988)" />
    <linearGradient
       inkscape:collect="always"
       xlink:href="#linearGradient3954-3"
       id="linearGradient4029-3"
       x1="40.14785"
       y1="1030.6544"
       x2="38.834923"
       y2="1037.8617"
       gradientUnits="userSpaceOnUse" />
    <linearGradient
       inkscape:collect="always"
       xlink:href="#linearGradient3954-3"
       id="linearGradient4029-2"
       x1="43.620247"
       y1="1030.3387"
       x2="42.496723"
       y2="1040.7028"
       gradientUnits="userSpaceOnUse" />
    <linearGradient
       id="linearGradient3954-3">
      <stop
         style="stop-color:#7e7e7e;stop-opacity:1;"
         offset="0"
         id="stop3956-8" />
      <stop
         style="stop-color:#000000;stop-opacity:1;"
         offset="1"
         id="stop3958-2" />
    </linearGradient>
    <linearGradient
       inkscape:collect="always"
       xlink:href="#linearGradient4124"
       id="linearGradient4130"
       x1="1.9327377"
       y1="1020.9536"
       x2="0.17963488"
       y2="1028.9086"
       gradientUnits="userSpaceOnUse" />
    <linearGradient
       inkscape:collect="always"
       xlink:href="#linearGradient4124"
       id="linearGradient4142"
       x1="10.981233"
       y1="1025.4661"
       x2="10.118903"
       y2="1029.0648"
       gradientUnits="userSpaceOnUse" />
    <linearGradient
       inkscape:collect="always"
       xlink:href="#linearGradient4124"
       id="linearGradient4150"
       x1="38.748268"
       y1="1030.7144"
       x2="37.455853"
       y2="1037.6592"
       gradientUnits="userSpaceOnUse" />
    <linearGradient
       inkscape:collect="always"
       xlink:href="#linearGradient4124"
       id="linearGradient4158"
       x1="39.992744"
       y1="1029.8545"
       x2="38.433533"
       y2="1039.3247"
       gradientUnits="userSpaceOnUse" />
    <linearGradient
       inkscape:collect="always"
       xlink:href="#linearGradient4124"
       id="linearGradient4166"
       x1="11.172679"
       y1="1036.5408"
       x2="9.7789097"
       y2="1042.9174"
       gradientUnits="userSpaceOnUse"
       gradientTransform="translate(0,0.44194174)" />
    <linearGradient
       inkscape:collect="always"
       xlink:href="#linearGradient4168"
       id="linearGradient4174"
       x1="30.357588"
       y1="1047.0377"
       x2="28.883116"
       y2="1051.7729"
       gradientUnits="userSpaceOnUse" />
    <linearGradient
       inkscape:collect="always"
       xlink:href="#linearGradient4178"
       id="linearGradient4184"
       x1="20.591375"
       y1="1043.6764"
       x2="21.149715"
       y2="1049.3585"
       gradientUnits="userSpaceOnUse" />
  </defs>
  <sodipodi:namedview
     id="base"
     pagecolor="#ffffff"
     bordercolor="#666666"
     borderopacity="1.0"
     inkscape:pageopacity="0.0"
     inkscape:pageshadow="2"
     inkscape:zoom="15.839192"
     inkscape:cx="27.036077"
     inkscape:cy="25.117046"
     inkscape:document-units="px"
     inkscape:current-layer="layer1"
     showgrid="false"
     inkscape:window-width="2560"
     inkscape:window-height="1377"
     inkscape:window-x="-8"
     inkscape:window-y="-8"
     inkscape:window-maximized="1" />
  <metadata
     id="metadata7">
    <rdf:RDF>
      <cc:Work
         rdf:about="">
        <dc:format>image/svg+xml</dc:format>
        <dc:type
           rdf:resource="http://purl.org/dc/dcmitype/StillImage" />
        <dc:title></dc:title>
      </cc:Work>
    </rdf:RDF>
  </metadata>
  <g
     inkscape:label="Layer 1"
     inkscape:groupmode="layer"
     id="layer1"
     transform="translate(0,-1004.3622)">
    <path
       sodipodi:nodetypes="ccccccccccc"
       inkscape:connector-curvature="0"
       id="path3923"
       d="m 36.353423,1018.2651 0,22.7893 -5.925543,2.5915 -3.283545,-1.0847 c -1.157424,-1.4764 -2.957303,-2.2557 -5.790985,-1.9131 l -1.290889,-0.4265 c -1.420901,-0.2373 -2.473258,-1.8192 -2.56304,-3.5689 l 0,-13.5746 c -0.0122,-2.0269 0.824585,-4.5948 3.081939,-5.415 l 5.04324,-2.113 z"
       style="fill:#c0c1bf;fill-opacity:1;stroke:#000000;stroke-width:0.75000000000000000;stroke-linecap:butt;stroke-linejoin:miter;stroke-miterlimit:4;stroke-opacity:1;stroke-dasharray:none" />
    <path
       style="fill:url(#linearGradient3978);fill-opacity:1;stroke:none"
       d="m 25.625,1015.512 0,22.5447 -5.178571,2.3214 -1.830358,-2.0089 -0.3125,-7.8125 0.223215,-9.8214 1.651785,-2.2768 z"
       id="path3970"
       inkscape:connector-curvature="0"
       sodipodi:nodetypes="ccc" />
    <path
       style="color:#000000;fill:#ffffff;fill-opacity:1;fill-rule:nonzero;stroke:url(#linearGradient4049);stroke-width:0.75;marker:none;visibility:visible;display:inline;overflow:visible;enable-background:accumulate"
       d="m 12.385063,1033.8954 c 0.185345,-0.077 0.385431,-0.1195 0.594116,-0.1195 0.958876,0 1.736199,0.8904 1.736199,1.9887 0,0.8582 -0.474577,1.5895 -1.139523,1.8682 l -6.3590311,2.8856 -1.294643,-3.7277 z"
       id="path3855"
       inkscape:connector-curvature="0"
       sodipodi:nodetypes="cssc" />
    <path
       sodipodi:nodetypes="csccscc"
       inkscape:connector-curvature="0"
       id="path3836"
       d="m 39.926944,1030.7783 c -1.136741,0.2064 -2.129499,1.9813 -2.129499,3.892 0,1.5387 0.592412,2.739 1.416708,3.0403 l 2.005795,0.5162 c 1.242291,-0.2063 2.174358,-1.9625 2.174358,-3.8732 0,-1.5346 -0.601125,-2.7325 -1.426631,-3.0379 z"
       style="color:#000000;fill:url(#linearGradient4150);fill-opacity:1;fill-rule:nonzero;stroke:url(#linearGradient4029-3);stroke-width:0.75000000000000000;stroke-linecap:butt;stroke-linejoin:miter;stroke-miterlimit:4;stroke-opacity:1;stroke-dasharray:none;stroke-dashoffset:0;marker:none;visibility:visible;display:inline;overflow:visible;enable-background:accumulate" />
    <path
       style="fill:none;stroke:#d3d7cf;stroke-width:0.75;stroke-linecap:butt;stroke-linejoin:miter;stroke-miterlimit:4;stroke-opacity:1;stroke-dasharray:none"
       d="m -31.55999,1029.8863 24.8873093,6.4111"
       id="path3007"
       inkscape:connector-curvature="0" />
    <path
       inkscape:connector-curvature="0"
       id="path2991"
       d="m -9.3519691,1005.0254 -19.7590149,8.8247"
       style="fill:none;stroke:#d3d7cf;stroke-width:0.75;stroke-linecap:butt;stroke-linejoin:miter;stroke-miterlimit:4;stroke-opacity:1;stroke-dasharray:none" />
    <path
       sodipodi:type="arc"
       style="color:#000000;fill:#888a85;fill-opacity:1;fill-rule:nonzero;stroke:#d3d7cf;stroke-width:0.75;stroke-linecap:butt;stroke-linejoin:miter;stroke-miterlimit:4;stroke-opacity:1;stroke-dasharray:none;stroke-dashoffset:0;marker:none;visibility:visible;display:inline;overflow:visible;enable-background:accumulate"
       id="path4041"
       sodipodi:cx="23.348215"
       sodipodi:cy="25.8125"
       sodipodi:rx="1.5178572"
       sodipodi:ry="1.9196428"
       d="m 24.866072,25.8125 a 1.5178572,1.9196428 0 1 1 -3.035714,0 1.5178572,1.9196428 0 1 1 3.035714,0 z"
       transform="translate(0,1004.8781)" />
    <path
       style="fill:url(#linearGradient3951);fill-opacity:1;stroke:url(#linearGradient3960);stroke-width:0.75;stroke-linecap:butt;stroke-linejoin:miter;stroke-miterlimit:4;stroke-opacity:1;stroke-dasharray:none"
       d="m 25.59375,1015.5567 -5.0625,2.0937 c -2.257354,0.8202 -3.0747,3.4106 -3.0625,5.4375 l 0,13.5625 c 0.08978,1.7497 1.141599,3.3252 2.5625,3.5625 l 0.790179,0.2456 c -0.925098,-0.5968 -1.57267,-1.8643 -1.633929,-3.0581 l 0.0625,-2.0625 c 1.637458,-2.1351 6.269008,-0.3034 7.21875,1.8125 l -0.125,2.0625 c 0.07108,1.3851 0.282304,2.7447 0.84375,3.375 l 3.1875,1.0625 5.9375,-2.5937 0,-22.7813 -1.84375,-0.4375 -5.09375,2.2188 c -2.257354,0.8203 -3.074697,3.3793 -3.0625,5.4062 l 0.03125,2.3438 c -2.503361,0.9705 -5.02326,1.6279 -7.21875,-1.8125 l 0,-2.3438 c -0.0122,-2.0268 0.836395,-4.5859 3.09375,-5.4062 l 5.375,-2.1875 z m -3.03125,13.875 c 0.958877,0 1.75,0.9016 1.75,2 0,1.0983 -0.791123,2 -1.75,2 -0.958877,0 -1.71875,-0.9017 -1.71875,-2 0,-1.0984 0.759873,-2 1.71875,-2 z"
       id="path2985"
       inkscape:connector-curvature="0"
       sodipodi:nodetypes="cccccccccccccccccccccccsssss" />
    <path
       transform="matrix(1,-0.18404907,0,1,-0.49687243,1009.9318)"
       d="m 33.749999,26.392857 a 2.4107144,4.1071429 0 1 1 -4.821428,0 2.4107144,4.1071429 0 1 1 4.821428,0 z"
       sodipodi:ry="4.1071429"
       sodipodi:rx="2.4107144"
       sodipodi:cy="26.392857"
       sodipodi:cx="31.339285"
       id="path3980"
       style="color:#000000;fill:#888a85;fill-opacity:1;fill-rule:nonzero;stroke:#555753;stroke-width:0.75;stroke-linecap:butt;stroke-linejoin:miter;stroke-miterlimit:4;stroke-opacity:1;stroke-dasharray:none;stroke-dashoffset:0;marker:none;visibility:visible;display:inline;overflow:visible;enable-background:accumulate"
       sodipodi:type="arc" />
    <path
       style="fill:#c5c5c5;stroke:url(#linearGradient3989);stroke-width:0.75000000000000000;stroke-linecap:butt;stroke-linejoin:miter;stroke-miterlimit:4;stroke-opacity:1;stroke-dasharray:none;fill-opacity:1"
       d="m 36.09375,1018.9317 -5.0625,2.0937 c -2.257354,0.8203 -3.0747,3.4107 -3.0625,5.4375 l 0,13.5625 c 0.08978,1.7496 1.141597,3.3254 2.5625,3.5625 l 5.9375,-2.5937 -0.375,-22.0625 z m -4,8.3125 c 1.331401,-0.2451 2.40625,1.4192 2.40625,3.6875 0,2.2683 -1.074849,4.2862 -2.40625,4.5312 -1.331401,0.2451 -2.40625,-1.3879 -2.40625,-3.6562 0,-2.2683 1.074849,-4.3175 2.40625,-4.5625 z"
       id="path2997"
       inkscape:connector-curvature="0" />
    <path
       style="fill:url(#linearGradient4174);stroke:#000000;stroke-width:0.75000000000000000;stroke-linecap:butt;stroke-linejoin:miter;stroke-miterlimit:4;stroke-opacity:1;stroke-dasharray:none;fill-opacity:1"
       d="m 27.485097,1051.4593 1.432906,0.3772 6.787448,-3.4696 -7.617025,-1.961 -6.636616,2.8661 z"
       id="path3813"
       inkscape:connector-curvature="0"
       sodipodi:nodetypes="cccccc" />
    <path
       sodipodi:nodetypes="ccccccc"
       inkscape:connector-curvature="0"
       d="m 27.65638,1051.4835 c -0.968406,-0.2372 -1.266601,-1.97 -1.356383,-3.7196 l 0.132738,-2.0614 c -0.949742,-2.1158 -5.602624,-3.9447 -7.240082,-1.8095 l -0.05718,2.0607 c 0.08978,1.7496 1.142137,3.3315 2.56304,3.5687 z"
       style="fill:url(#linearGradient4184);stroke:url(#linearGradient4057);stroke-width:0.75000000000000000;stroke-linecap:butt;stroke-linejoin:miter;stroke-miterlimit:4;stroke-opacity:1;stroke-dasharray:none;fill-opacity:1"
       id="path3811" />
    <path
       style="color:#000000;fill:url(#linearGradient4158);fill-opacity:1;fill-rule:nonzero;stroke:url(#linearGradient4029-2);stroke-width:0.75000000000000000;stroke-linecap:butt;stroke-linejoin:miter;stroke-miterlimit:4;stroke-opacity:1;stroke-dasharray:none;stroke-dashoffset:0;marker:none;visibility:visible;display:inline;overflow:visible;enable-background:accumulate"
       d="m 42.679973,1030.0398 c -1.672404,0.3011 -3.132977,2.8906 -3.132977,5.6784 0,2.245 0.871571,3.9963 2.084299,4.436 l 2.950981,0.7531 c 1.827693,-0.3011 3.198974,-2.8634 3.198974,-5.6513 0,-2.2388 -0.88439,-3.9867 -2.098898,-4.4323 z"
       id="path3821"
       inkscape:connector-curvature="0"
       sodipodi:nodetypes="csccscc" />
    <path
       transform="matrix(1.1233422,-0.2068455,0,1.1238606,9.6143503,1012.6126)"
       d="m 33.749999,26.392857 a 2.4107144,4.1071429 0 1 1 -4.821428,0 2.4107144,4.1071429 0 1 1 4.821428,0 z"
       sodipodi:ry="4.1071429"
       sodipodi:rx="2.4107144"
       sodipodi:cy="26.392857"
       sodipodi:cx="31.339285"
       id="path3834"
       style="color:#000000;fill:#ffffff;fill-opacity:1;fill-rule:nonzero;stroke:none;stroke-width:0.75;marker:none;visibility:visible;display:inline;overflow:visible;enable-background:accumulate"
       sodipodi:type="arc" />
    <path
       id="path3842"
       style="color:#000000;fill:url(#linearGradient4166);fill-opacity:1;fill-rule:nonzero;stroke:url(#linearGradient4037);stroke-width:0.75;stroke-linecap:butt;stroke-linejoin:miter;stroke-miterlimit:4;stroke-opacity:1;stroke-dashoffset:0;marker:none;visibility:visible;display:inline;overflow:visible;enable-background:accumulate"
       d="m 12.175179,1037.3103 c 0.836577,0.1841 1.458745,1.3427 1.458745,2.8609 0,1.7754 -0.938869,3.5449 -2.058876,3.6144 l -9.7160438,-2.4451 c -0.8196631,-0.2094 -1.42300298,-1.3559 -1.42300298,-2.8509 0,-1.7754 0.90367428,-3.2653 1.90050078,-3.562 0.2258112,-0.067 0.5067789,-0.1175 0.7122,-0.027 l 9.126477,2.4093"
       inkscape:connector-curvature="0"
       sodipodi:nodetypes="csccsscc" />
    <path
       sodipodi:type="arc"
       style="color:#000000;fill:#ffffff;fill-opacity:1;fill-rule:nonzero;stroke:none;stroke-width:0.75;marker:none;visibility:visible;display:inline;overflow:visible;enable-background:accumulate"
       id="path3851"
       sodipodi:cx="31.339285"
       sodipodi:cy="26.392857"
       sodipodi:rx="2.4107144"
       sodipodi:ry="4.1071429"
       d="m 33.749999,26.392857 a 2.4107144,4.1071429 0 1 1 -4.821428,0 2.4107144,4.1071429 0 1 1 4.821428,0 z"
       transform="matrix(0.71986446,-0.13154135,0,0.71470808,-10.950104,1025.7677)" />
    <path
       sodipodi:nodetypes="csccscc"
       inkscape:connector-curvature="0"
       id="path3993"
       d="m 11.066768,1025.2184 c -0.620619,0.1155 -1.1626293,1.1095 -1.1626293,2.1794 0,0.8617 0.3234343,1.5339 0.7734713,1.7027 l 3.371877,0.7801 c 0.678246,-0.1156 1.187121,-1.099 1.187121,-2.169 0,-0.8593 -0.328192,-1.5302 -0.778889,-1.7012 z"
       style="color:#000000;fill:url(#linearGradient4142);fill-opacity:1;fill-rule:nonzero;stroke:url(#linearGradient4029-5);stroke-width:0.75000000000000000;stroke-linecap:butt;stroke-linejoin:miter;stroke-miterlimit:4;stroke-opacity:1;stroke-dasharray:none;stroke-dashoffset:0;marker:none;visibility:visible;display:inline;overflow:visible;enable-background:accumulate" />
    <path
       style="color:#000000;fill:url(#linearGradient4130);fill-opacity:1;fill-rule:nonzero;stroke:url(#linearGradient4029);stroke-width:0.75000000000000000;stroke-linecap:butt;stroke-linejoin:miter;stroke-miterlimit:4;stroke-opacity:1;stroke-dasharray:none;stroke-dashoffset:0;marker:none;visibility:visible;display:inline;overflow:visible;enable-background:accumulate"
       d="m 2.7522725,1020.7842 c -1.2820458,0.236 -2.40170534,2.2676 -2.40170534,4.4542 0,1.7611 0.66813544,3.135 1.59780094,3.4799 l 3.7377264,0.8646 c 1.4010889,-0.2363 2.4522991,-2.2462 2.4522991,-4.433 0,-1.7562 -0.6779637,-3.1273 -1.6089925,-3.4768 z"
       id="path3995"
       inkscape:connector-curvature="0"
       sodipodi:nodetypes="csccscc" />
    <path
       sodipodi:type="arc"
       style="color:#000000;fill:#ffffff;fill-opacity:1;fill-rule:nonzero;stroke:none;stroke-width:0.75;marker:none;visibility:visible;display:inline;overflow:visible;enable-background:accumulate"
       id="path3997"
       sodipodi:cx="31.339285"
       sodipodi:cy="26.392857"
       sodipodi:rx="2.4107144"
       sodipodi:ry="4.1071429"
       d="m 33.749999,26.392857 a 2.4107144,4.1071429 0 1 1 -4.821428,0 2.4107144,4.1071429 0 1 1 4.821428,0 z"
       transform="matrix(0.86253137,-0.15882136,0,0.8629294,-21.363811,1007.7711)" />
    <path
       transform="matrix(0.3810499,-0.07016425,0,0.38122575,2.0290449,1019.9829)"
       d="m 33.749999,26.392857 a 2.4107144,4.1071429 0 1 1 -4.821428,0 2.4107144,4.1071429 0 1 1 4.821428,0 z"
       sodipodi:ry="4.1071429"
       sodipodi:rx="2.4107144"
       sodipodi:cy="26.392857"
       sodipodi:cx="31.339285"
       id="path3999"
       style="color:#000000;fill:#ffffff;fill-opacity:1;fill-rule:nonzero;stroke:none;stroke-width:0.75;marker:none;visibility:visible;display:inline;overflow:visible;enable-background:accumulate"
       sodipodi:type="arc" />
    <path
       sodipodi:nodetypes="ccccccccc"
       inkscape:connector-curvature="0"
       d="m 34.425175,1006.7855 -5.043239,2.1129 c -2.257354,0.8203 -3.094136,3.3882 -3.081939,5.415 l 0.05732,2.3266 c -2.503361,0.9706 -5.044592,1.6308 -7.240082,-1.8096 l 0.01823,-2.3272 c -0.0122,-2.0269 0.824584,-4.5947 3.081939,-5.415 l 5.420319,-2.1884 z"
       style="fill:url(#linearGradient4017);stroke:url(#linearGradient3968);stroke-width:0.75000000000000000;stroke-linecap:butt;stroke-linejoin:miter;stroke-miterlimit:4;stroke-opacity:1;stroke-dasharray:none;fill-opacity:1"
       id="path3809" />
  </g>
</svg>
