<?xml version="1.0" encoding="UTF-8" standalone="no"?>
<!-- Created with Inkscape (http://www.inkscape.org/) -->
<svg
   xmlns:a="http://ns.adobe.com/AdobeSVGViewerExtensions/3.0/"
   xmlns:i="http://ns.adobe.com/AdobeIllustrator/10.0/"
   xmlns:dc="http://purl.org/dc/elements/1.1/"
   xmlns:cc="http://web.resource.org/cc/"
   xmlns:rdf="http://www.w3.org/1999/02/22-rdf-syntax-ns#"
   xmlns:svg="http://www.w3.org/2000/svg"
   xmlns="http://www.w3.org/2000/svg"
   xmlns:sodipodi="http://sodipodi.sourceforge.net/DTD/sodipodi-0.dtd"
   xmlns:inkscape="http://www.inkscape.org/namespaces/inkscape"
   width="48px"
   height="48px"
   id="svg26570"
   sodipodi:version="0.32"
   inkscape:version="0.44"
   sodipodi:docbase="e:\dev_clean\src\houdini\support\icons\sop"
   sodipodi:docname="font.svg">
  <defs
     id="defs26572">
    <linearGradient
       y2="167.9189"
       x2="836.35278"
       y1="164.6084"
       x1="829.00098"
       gradientUnits="userSpaceOnUse"
       id="XMLID_522_">
						<stop
   id="stop9837"
   style="stop-color:#DCE6E9"
   offset="0.0056" />

						<stop
   id="stop9839"
   style="stop-color:#A2AFBF"
   offset="1" />

						<a:midPointStop
   style="stop-color:#DCE6E9"
   offset="0.0056" />

						<a:midPointStop
   style="stop-color:#DCE6E9"
   offset="0.5" />

						<a:midPointStop
   style="stop-color:#A2AFBF"
   offset="1" />

					</linearGradient>
    <linearGradient
       y2="163.88429"
       x2="863.96588"
       y1="160.70171"
       x1="856.61517"
       gradientUnits="userSpaceOnUse"
       id="XMLID_523_">
						<stop
   id="stop9844"
   style="stop-color:#DCE6E9"
   offset="0.0056" />

						<stop
   id="stop9846"
   style="stop-color:#A2AFBF"
   offset="1" />

						<a:midPointStop
   style="stop-color:#DCE6E9"
   offset="0.0056" />

						<a:midPointStop
   style="stop-color:#DCE6E9"
   offset="0.5" />

						<a:midPointStop
   style="stop-color:#A2AFBF"
   offset="1" />

					</linearGradient>
    <linearGradient
       y2="179.0976"
       x2="834.14697"
       y1="162.89751"
       x1="829.04053"
       gradientUnits="userSpaceOnUse"
       id="XMLID_524_">
						<stop
   id="stop9851"
   style="stop-color:#FFFFFF"
   offset="0.0056" />

						<stop
   id="stop9853"
   style="stop-color:#AFBBC2"
   offset="1" />

						<a:midPointStop
   style="stop-color:#FFFFFF"
   offset="0.0056" />

						<a:midPointStop
   style="stop-color:#FFFFFF"
   offset="0.5" />

						<a:midPointStop
   style="stop-color:#AFBBC2"
   offset="1" />

					</linearGradient>
    <linearGradient
       y2="165.7291"
       x2="843.25128"
       y1="201.6338"
       x1="861.28998"
       gradientUnits="userSpaceOnUse"
       id="XMLID_525_"
       gradientTransform="matrix(1.021803,0,0,1.02172,-840.3242,-163.3266)">
						<stop
   id="stop9858"
   style="stop-color:#ACB7BE"
   offset="0.0056" />

						<stop
   id="stop9860"
   style="stop-color:#828C98"
   offset="1" />

						<a:midPointStop
   style="stop-color:#ACB7BE"
   offset="0.0056" />

						<a:midPointStop
   style="stop-color:#ACB7BE"
   offset="0.5" />

						<a:midPointStop
   style="stop-color:#828C98"
   offset="1" />

					</linearGradient>
    <linearGradient
       y2="164.18851"
       x2="865.32483"
       y1="165.4209"
       x1="832.74902"
       gradientUnits="userSpaceOnUse"
       id="XMLID_526_"
       gradientTransform="matrix(1.021803,0,0,1.02172,-840.3242,-163.3266)">
						<stop
   id="stop9865"
   style="stop-color:#DCE6E9"
   offset="0.0056" />

						<stop
   id="stop9867"
   style="stop-color:#A2AFBF"
   offset="1" />

						<a:midPointStop
   style="stop-color:#DCE6E9"
   offset="0.0056" />

						<a:midPointStop
   style="stop-color:#DCE6E9"
   offset="0.5" />

						<a:midPointStop
   style="stop-color:#A2AFBF"
   offset="1" />

					</linearGradient>
    <linearGradient
       y2="167.8866"
       x2="859.0108"
       y1="179.6841"
       x1="860.94781"
       gradientUnits="userSpaceOnUse"
       id="XMLID_527_"
       gradientTransform="matrix(1.021803,0,0,1.02172,-840.3242,-163.3266)">
						<stop
   id="stop9872"
   style="stop-color:#FFFFFF"
   offset="0.0056" />

						<stop
   id="stop9874"
   style="stop-color:#AFBBC2"
   offset="1" />

						<a:midPointStop
   style="stop-color:#FFFFFF"
   offset="0.0056" />

						<a:midPointStop
   style="stop-color:#FFFFFF"
   offset="0.5" />

						<a:midPointStop
   style="stop-color:#AFBBC2"
   offset="1" />

					</linearGradient>
    <linearGradient
       y2="202.1524"
       x2="856.9895"
       y1="198.832"
       x1="847.32373"
       gradientUnits="userSpaceOnUse"
       id="XMLID_528_"
       gradientTransform="matrix(1.021803,0,0,1.02172,-840.3242,-163.3266)">
						<stop
   id="stop9879"
   style="stop-color:#DCE6E9"
   offset="0.0056" />

						<stop
   id="stop9881"
   style="stop-color:#A2AFBF"
   offset="1" />

						<a:midPointStop
   style="stop-color:#DCE6E9"
   offset="0.0056" />

						<a:midPointStop
   style="stop-color:#DCE6E9"
   offset="0.5" />

						<a:midPointStop
   style="stop-color:#A2AFBF"
   offset="1" />

					</linearGradient>
    <linearGradient
       y2="207.23911"
       x2="842.22931"
       y1="200.0195"
       x1="835.71442"
       gradientUnits="userSpaceOnUse"
       id="XMLID_529_">
						<stop
   id="stop9886"
   style="stop-color:#FFFFFF"
   offset="0.0056" />

						<stop
   id="stop9888"
   style="stop-color:#AFBBC2"
   offset="1" />

						<a:midPointStop
   style="stop-color:#FFFFFF"
   offset="0.0056" />

						<a:midPointStop
   style="stop-color:#FFFFFF"
   offset="0.5" />

						<a:midPointStop
   style="stop-color:#AFBBC2"
   offset="1" />

					</linearGradient>
    <linearGradient
       y2="166.0881"
       x2="855.70563"
       y1="200.7773"
       x1="835.45508"
       gradientUnits="userSpaceOnUse"
       id="XMLID_530_"
       gradientTransform="matrix(1.021803,0,0,1.02172,-840.3242,-163.3266)">
						<stop
   id="stop9893"
   style="stop-color:#B2BDC8"
   offset="0" />

						<stop
   id="stop9895"
   style="stop-color:#97A3B2"
   offset="0.073" />

						<stop
   id="stop9897"
   style="stop-color:#B2BDC8"
   offset="0.1573" />

						<stop
   id="stop9899"
   style="stop-color:#CCDBDE"
   offset="0.4157" />

						<stop
   id="stop9901"
   style="stop-color:#CCDBDE"
   offset="0.691" />

						<stop
   id="stop9903"
   style="stop-color:#8994A2"
   offset="1" />

						<a:midPointStop
   style="stop-color:#B2BDC8"
   offset="0" />

						<a:midPointStop
   style="stop-color:#B2BDC8"
   offset="0.5" />

						<a:midPointStop
   style="stop-color:#97A3B2"
   offset="0.073" />

						<a:midPointStop
   style="stop-color:#97A3B2"
   offset="0.5" />

						<a:midPointStop
   style="stop-color:#B2BDC8"
   offset="0.1573" />

						<a:midPointStop
   style="stop-color:#B2BDC8"
   offset="0.5" />

						<a:midPointStop
   style="stop-color:#CCDBDE"
   offset="0.4157" />

						<a:midPointStop
   style="stop-color:#CCDBDE"
   offset="0.5" />

						<a:midPointStop
   style="stop-color:#CCDBDE"
   offset="0.691" />

						<a:midPointStop
   style="stop-color:#CCDBDE"
   offset="0.5" />

						<a:midPointStop
   style="stop-color:#8994A2"
   offset="1" />

					</linearGradient>
  </defs>
  <sodipodi:namedview
     id="base"
     pagecolor="#ffffff"
     bordercolor="#666666"
     borderopacity="1.0"
     inkscape:pageopacity="0.0"
     inkscape:pageshadow="2"
     inkscape:zoom="7"
     inkscape:cx="24"
     inkscape:cy="24"
     inkscape:current-layer="layer1"
     showgrid="true"
     inkscape:grid-bbox="true"
     inkscape:document-units="px"
     inkscape:window-width="853"
     inkscape:window-height="573"
     inkscape:window-x="88"
     inkscape:window-y="116" />
  <metadata
     id="metadata26575">
    <rdf:RDF>
      <cc:Work
         rdf:about="">
        <dc:format>image/svg+xml</dc:format>
        <dc:type
           rdf:resource="http://purl.org/dc/dcmitype/StillImage" />
      </cc:Work>
    </rdf:RDF>
  </metadata>
  <g
     id="layer1"
     inkscape:label="Layer 1"
     inkscape:groupmode="layer">
    <path
       style="fill:none;stroke:#2b2f33;stroke-width:1.50000024"
       id="path9834"
       d="M 41.398487,14.856208 L 35.333065,11.547879 C 35.333065,11.547879 34.851796,9.2060969 34.606563,8.6901283 L 34.602476,8.69115 L 34.586127,8.6931934 C 34.152882,8.7453012 33.685918,8.8076261 33.183191,8.8801682 L 29.977795,9.380811 L 29.875615,38.323073 C 29.875615,39.04032 29.894007,39.658461 29.939989,40.188734 L 29.939989,40.190777 L 35.453638,43.205873 L 35.453638,44.842668 L 19.825161,47.046518 L 13.768935,43.730015 L 13.768935,42.059503 C 19.820052,41.139955 19.08231,38.958583 19.212079,34.348582 L 19.278496,10.927695 L 19.271343,10.928716 L 19.271343,10.928716 C 15.594896,11.728723 15.401776,12.930266 13.850679,18.742831 L 12.292429,18.972718 L 6.1871565,15.645998 L 6.8860697,4.9496114 L 7.947723,4.7953316 L 10.049572,5.9488535 L 10.065921,5.958049 C 10.327502,5.9468101 10.593171,5.9079847 10.863949,5.8701811 C 11.865316,5.7373575 30.900483,3.0665814 32.303419,2.8663243 C 33.706354,2.6660672 34.25915,2.5598083 35.275844,0.9649034 L 36.337497,0.81062368 L 42.473424,4.1230399 C 42.515318,6.1450238 42.665523,9.8160637 43.03235,14.456716 L 41.398487,14.856208 z "
       i:knockout="Off" />
    <polygon
       transform="matrix(1.021803,0,0,1.02172,-840.3242,-163.3266)"
       style="fill:url(#XMLID_522_)"
       id="polygon9841"
       points="836.126,167.815 835.086,167.938 829.135,164.699 830.174,164.548 836.126,167.815 "
       i:knockout="Off" />
    <polygon
       transform="matrix(1.021803,0,0,1.02172,-840.3242,-163.3266)"
       style="fill:url(#XMLID_523_)"
       id="polygon9848"
       points="863.963,163.889 862.844,164.036 856.919,160.798 857.958,160.646 863.963,163.889 "
       i:knockout="Off" />
    <polygon
       transform="matrix(1.021803,0,0,1.02172,-840.3242,-163.3266)"
       style="fill:url(#XMLID_524_)"
       id="polygon9855"
       points="834.426,178.424 828.452,175.168 829.135,164.699 835.086,167.938 834.426,178.424 "
       i:knockout="Off" />
    <path
       style="fill:url(#XMLID_525_)"
       id="path9862"
       d="M 19.826177,45.409723 L 19.826177,47.046519 L 35.454648,44.842669 L 35.454648,43.205873 C 30.779901,43.480716 29.876627,43.346871 29.876627,38.323073 L 29.978808,9.3808111 L 33.184202,8.8801683 C 39.237361,8.0096628 40.011887,8.4581979 41.398473,14.85723 L 43.035401,14.456716 C 42.668574,9.8160638 42.518369,6.1440021 42.476475,4.1230399 L 41.333078,4.2732328 C 40.698539,5.5738823 39.763589,5.9743966 38.361676,6.1746537 C 36.958741,6.3749108 17.92358,9.0477304 16.922214,9.1795322 C 15.920847,9.3133776 15.018596,9.4932003 14.033578,8.1343127 L 12.970904,8.2589625 L 12.296514,18.972718 L 13.854763,18.742831 C 15.591827,12.231409 15.630655,11.504967 20.762148,10.648765 L 25.338802,10.014277 L 25.272385,39.031125 C 25.270341,42.038047 25.699498,44.489154 19.826177,45.409723 z "
       i:knockout="Off" />
    <path
       style="fill:url(#XMLID_526_)"
       id="path9869"
       d="M 14.031535,8.1332909 C 15.016552,9.4921786 15.918804,9.3123558 16.92017,9.1785105 C 17.921537,9.0456869 36.956697,6.3738891 38.359632,6.173632 C 39.761546,5.9733749 40.696495,5.5728606 41.331034,4.272211 L 35.276854,0.96388168 C 34.26016,2.5598083 33.707365,2.6650455 32.30443,2.8653026 C 30.901495,3.0655597 11.866335,5.7373575 10.864969,5.8691594 C 10.593169,5.9069631 10.328522,5.9457884 10.066941,5.9570273 L 14.031535,8.1332909 z "
       i:knockout="Off" />
    <path
       style="fill:url(#XMLID_527_)"
       id="path9876"
       d="M 41.398473,14.856208 L 35.333053,11.547879 C 35.333053,11.547879 34.851784,9.206097 34.606552,8.6901284 L 34.602464,8.6911501 C 39.370195,8.1261389 40.129395,8.9946009 41.398473,14.856208 z "
       i:knockout="Off" />
    <path
       style="fill:url(#XMLID_528_)"
       id="path9883"
       d="M 35.454648,43.205873 C 31.44816,43.439847 30.211779,43.3765 29.941001,40.190777 L 35.454648,43.205873 z "
       i:knockout="Off" />
    <polygon
       transform="matrix(1.021803,0,0,1.02172,-840.3242,-163.3266)"
       style="fill:url(#XMLID_529_)"
       id="polygon9890"
       points="841.797,205.9 835.871,202.654 835.871,201.02 841.797,204.299 841.797,205.9 "
       i:knockout="Off" />
    <path
       style="fill:url(#XMLID_530_)"
       id="path9905"
       d="M 19.273382,10.928716 C 19.716844,10.831653 20.209353,10.74072 20.760104,10.649787 L 25.336758,10.015299 L 25.270341,39.032147 C 25.270341,42.038047 25.70052,44.490175 19.827199,45.409723 L 13.770975,42.059503 C 19.82209,41.139955 19.084348,38.958583 19.214117,34.348582 L 19.280534,10.927695 L 19.273382,10.928716 z "
       i:knockout="Off" />
    <path
       style="fill:none;stroke:white;stroke-width:0.60000014"
       id="path9907"
       d="M 19.28054,10.927695 L 19.273387,10.928716 C 19.71685,10.831653 20.209359,10.74072 20.76011,10.649787 L 25.336766,10.015299 L 25.270349,39.032147 C 25.270349,42.038047 25.700528,44.490175 19.827204,45.409723 L 13.770978,42.059503"
       i:knockout="Off" />
    <polyline
       transform="matrix(1.021803,0,0,1.02172,-840.3242,-163.3266)"
       style="fill:none;stroke:white;stroke-width:0.58722132"
       id="polyline9909"
       points="829.135,164.699 835.086,167.938        834.426,178.424 "
       i:knockout="Off" />
    <path
       style="fill:none;stroke:#dce6e9;stroke-width:0.60000014"
       id="path9911"
       d="M 41.33207,4.272211 C 40.697531,5.5728606 39.762581,5.9733748 38.360667,6.1736319 C 36.957732,6.373889 17.922564,9.0467086 16.921197,9.1785104 C 15.91983,9.3123558 15.017578,9.4921785 14.03256,8.1332909 L 12.969885,8.2579407"
       i:knockout="Off" />
    <line
       style="fill:none;stroke:white;stroke-width:0.60000014"
       id="line9913"
       y2="4.2722063"
       x2="41.332062"
       y1="0.96388602"
       x1="35.277893"
       i:knockout="Off" />
    <line
       style="fill:none;stroke:white;stroke-width:0.60000014"
       id="line9915"
       y2="47.045486"
       x2="19.826178"
       y1="45.409718"
       x1="19.826178"
       i:knockout="Off" />
    <path
       style="fill:none;stroke:#dce6e9;stroke-width:0.60000014"
       id="path9917"
       d="M 35.454659,43.205873 C 31.44817,43.439847 30.211788,43.3765 29.94101,40.190777"
       i:knockout="Off" />
    <path
       style="fill:none;stroke:#becbd4;stroke-width:0.60000014"
       id="path9919"
       d="M 34.602476,8.6901283 C 39.370208,8.1251171 40.128386,8.9946008 41.397466,14.855186"
       i:knockout="Off" />
  </g>
</svg>
