<?xml version="1.0" encoding="UTF-8" standalone="no"?>
<!-- Created with Inkscape (http://www.inkscape.org/) -->
<svg
   xmlns:a="http://ns.adobe.com/AdobeSVGViewerExtensions/3.0/"
   xmlns:i="http://ns.adobe.com/AdobeIllustrator/10.0/"
   xmlns:dc="http://purl.org/dc/elements/1.1/"
   xmlns:cc="http://web.resource.org/cc/"
   xmlns:rdf="http://www.w3.org/1999/02/22-rdf-syntax-ns#"
   xmlns:svg="http://www.w3.org/2000/svg"
   xmlns="http://www.w3.org/2000/svg"
   xmlns:sodipodi="http://sodipodi.sourceforge.net/DTD/sodipodi-0.dtd"
   xmlns:inkscape="http://www.inkscape.org/namespaces/inkscape"
   width="48px"
   height="48px"
   id="svg5579"
   sodipodi:version="0.32"
   inkscape:version="0.44.1"
   sodipodi:docbase="e:\dev_clean\src\houdini\support\icons\dop"
   sodipodi:docname="fur.svg">
  <defs
     id="defs5581">
    <radialGradient
       gradientUnits="userSpaceOnUse"
       fy="105.103"
       fx="14.9785"
       r="30.2828"
       cy="105.103"
       cx="14.9785"
       id="XMLID_58_"
       gradientTransform="matrix(1.019094,0,0,1.982531,-1.763571,-210.3706)">
				<stop
   id="stop3992"
   style="stop-color:#E8B96D"
   offset="0.0056" />

				<stop
   id="stop3994"
   style="stop-color:#C17D10"
   offset="0.4607" />

				<stop
   id="stop3996"
   style="stop-color:#8F5811"
   offset="1" />

				<a:midPointStop
   style="stop-color:#E8B96D"
   offset="0.0056" />

				<a:midPointStop
   style="stop-color:#E8B96D"
   offset="0.5" />

				<a:midPointStop
   style="stop-color:#C17D10"
   offset="0.4607" />

				<a:midPointStop
   style="stop-color:#C17D10"
   offset="0.5" />

				<a:midPointStop
   style="stop-color:#8F5811"
   offset="1" />

			</radialGradient>
    <linearGradient
       y2="125.6945"
       x2="34.554"
       y1="108.7397"
       x1="12.7998"
       gradientUnits="userSpaceOnUse"
       id="XMLID_59_"
       gradientTransform="matrix(1.019094,0,0,1.982531,-1.763571,-210.3706)">
				<stop
   id="stop4001"
   style="stop-color:#C17D10"
   offset="0.0056" />

				<stop
   id="stop4003"
   style="stop-color:#8F5811"
   offset="1" />

				<a:midPointStop
   style="stop-color:#C17D10"
   offset="0.0056" />

				<a:midPointStop
   style="stop-color:#C17D10"
   offset="0.5" />

				<a:midPointStop
   style="stop-color:#8F5811"
   offset="1" />

			</linearGradient>
    <radialGradient
       gradientUnits="userSpaceOnUse"
       fy="111.7266"
       fx="30.7886"
       r="14.3037"
       cy="111.7266"
       cx="30.7886"
       id="XMLID_60_"
       gradientTransform="matrix(1.019094,0,0,1.982531,-1.763571,-210.3706)">
				<stop
   id="stop4008"
   style="stop-color:#CC8E27"
   offset="0.0056" />

				<stop
   id="stop4010"
   style="stop-color:#C17D10"
   offset="0.3483" />

				<stop
   id="stop4012"
   style="stop-color:#8F5811"
   offset="1" />

				<a:midPointStop
   style="stop-color:#CC8E27"
   offset="0.0056" />

				<a:midPointStop
   style="stop-color:#CC8E27"
   offset="0.5" />

				<a:midPointStop
   style="stop-color:#C17D10"
   offset="0.3483" />

				<a:midPointStop
   style="stop-color:#C17D10"
   offset="0.5" />

				<a:midPointStop
   style="stop-color:#8F5811"
   offset="1" />

			</radialGradient>
    <radialGradient
       gradientUnits="userSpaceOnUse"
       fy="115.1455"
       fx="18.9937"
       r="14.3037"
       cy="115.1455"
       cx="18.9937"
       id="XMLID_61_"
       gradientTransform="matrix(1.012819,-0.112921,0.219675,1.970323,-28.16365,-207.1691)">
				<stop
   id="stop4017"
   style="stop-color:#CC8E27"
   offset="0.0056" />

				<stop
   id="stop4019"
   style="stop-color:#C17D10"
   offset="0.3483" />

				<stop
   id="stop4021"
   style="stop-color:#8F5811"
   offset="1" />

				<a:midPointStop
   style="stop-color:#CC8E27"
   offset="0.0056" />

				<a:midPointStop
   style="stop-color:#CC8E27"
   offset="0.5" />

				<a:midPointStop
   style="stop-color:#C17D10"
   offset="0.3483" />

				<a:midPointStop
   style="stop-color:#C17D10"
   offset="0.5" />

				<a:midPointStop
   style="stop-color:#8F5811"
   offset="1" />

			</radialGradient>
    <radialGradient
       gradientUnits="userSpaceOnUse"
       gradientTransform="matrix(0.989744,-0.47224,0.242748,1.925436,-677.2705,824.3881)"
       fy="-236.4282"
       fx="761.749"
       r="9.2406"
       cy="-236.4282"
       cx="761.749"
       id="XMLID_62_">
				<stop
   id="stop4026"
   style="stop-color:#E8B96D"
   offset="0.0056" />

				<stop
   id="stop4028"
   style="stop-color:#C17D10"
   offset="0.4607" />

				<stop
   id="stop4030"
   style="stop-color:#8F5811"
   offset="1" />

				<a:midPointStop
   style="stop-color:#E8B96D"
   offset="0.0056" />

				<a:midPointStop
   style="stop-color:#E8B96D"
   offset="0.5" />

				<a:midPointStop
   style="stop-color:#C17D10"
   offset="0.4607" />

				<a:midPointStop
   style="stop-color:#C17D10"
   offset="0.5" />

				<a:midPointStop
   style="stop-color:#8F5811"
   offset="1" />

			</radialGradient>
  </defs>
  <sodipodi:namedview
     id="base"
     pagecolor="#ffffff"
     bordercolor="#666666"
     borderopacity="1.0"
     inkscape:pageopacity="0.0"
     inkscape:pageshadow="2"
     inkscape:zoom="7"
     inkscape:cx="24"
     inkscape:cy="24"
     inkscape:current-layer="layer1"
     showgrid="true"
     inkscape:grid-bbox="true"
     inkscape:document-units="px"
     inkscape:window-width="853"
     inkscape:window-height="641"
     inkscape:window-x="289"
     inkscape:window-y="1" />
  <metadata
     id="metadata5584">
    <rdf:RDF>
      <cc:Work
         rdf:about="">
        <dc:format>image/svg+xml</dc:format>
        <dc:type
           rdf:resource="http://purl.org/dc/dcmitype/StillImage" />
      </cc:Work>
    </rdf:RDF>
  </metadata>
  <g
     id="layer1"
     inkscape:label="Layer 1"
     inkscape:groupmode="layer">
    <path
       style="fill:none;stroke:#72470e;stroke-width:1.19999969;stroke-linecap:square"
       id="path3989"
       d="M 39.783876,30.972908 C 40.949719,29.979659 43.699235,27.275488 46.354994,21.343758 C 45.339976,21.845338 41.5785,23.20337 39.400696,23.810025 C 41.60092,21.155417 41.733402,20.193891 42.440654,17.674094 C 39.615725,20.986902 37.466456,20.901654 35.857306,21.141541 C 37.261618,19.402861 40.189475,15.725267 41.302326,11.754259 C 38.393831,15.003625 34.701654,16.789887 32.957984,17.674094 C 33.340144,17.117004 35.796161,12.115079 36.751052,8.67539 C 32.641046,13.558362 31.441572,14.547645 30.001592,14.841058 C 30.862727,13.352178 33.099638,9.5120167 33.960772,6.6571736 C 30.986037,8.736847 29.136381,10.911684 27.610798,11.47274 C 28.888742,9.6250215 30.126941,7.1389281 31.322338,3.1282699 C 28.352698,6.5778724 27.486468,7.4541512 25.136437,9.2265334 C 26.880107,7.0120473 26.563169,5.3487032 27.575129,1.7385164 C 24.084732,6.0187999 23.684229,7.2975306 22.347177,8.7844281 C 23.374424,7.1329796 24.405747,4.4466527 24.944848,1.6810216 C 23.228694,4.3495087 21.767313,6.1238728 18.795635,9.7360444 C 19.972688,7.6385253 22.031258,4.1076398 22.275841,0.91378379 C 20.365039,4.5378495 17.643039,7.6405087 15.657844,10.929527 C 16.241785,9.9997183 16.565857,8.1638971 16.782924,6.3439338 C 15.193137,9.1670568 14.188311,11.861316 11.960571,14.646771 C 12.384514,13.510781 13.162083,10.881946 13.542205,8.3819748 C 11.665034,11.787961 10.152698,14.531785 7.8169349,17.319221 C 8.9552629,14.51394 9.2640484,12.261785 9.3639196,10.885911 C 7.058729,15.69553 4.3866645,18.790259 1.0735899,22.451993 L 19.737277,47.213796 L 39.783876,30.972908 z "
       i:knockout="Off" />
    <path
       style="fill:url(#XMLID_58_)"
       id="path3998"
       d="M 39.783865,30.972968 C 40.949708,29.97972 43.699223,27.275545 46.354981,21.343811 C 45.339964,21.845391 41.578489,23.203425 39.400686,23.81008 C 41.600909,21.15547 41.733391,20.193942 42.440642,17.674145 C 39.615714,20.986953 37.466446,20.901707 35.857297,21.141592 C 37.261608,19.402912 40.189464,15.725316 41.302315,11.754304 C 38.393821,15.003672 34.701644,16.789934 32.957975,17.674145 C 33.340135,17.117051 35.796151,12.115125 36.751042,8.6754299 C 32.641037,13.558407 31.441564,14.547691 30.001584,14.841105 C 30.862718,13.352225 33.099629,9.5120598 33.960763,6.6572131 C 30.986029,8.7368899 29.136374,10.911727 27.61079,11.472783 C 28.888734,9.6250646 30.126933,7.1389692 31.32233,3.1283087 C 28.352691,6.5779133 27.486461,7.4541909 25.136431,9.2265749 C 26.8801,7.0120869 26.563162,5.3487424 27.575122,1.7385519 C 24.084726,6.0188393 23.684222,7.2975717 22.347171,8.784471 C 23.374418,7.1330221 24.405741,4.4466917 24.944841,1.6810601 C 23.228687,4.3495477 21.767307,6.1239122 18.79563,9.7360875 C 19.972683,7.638568 22.031252,4.1076788 22.275835,0.91381916 C 20.365034,4.5378886 17.643035,7.6405498 15.65784,10.92957 C 16.241781,9.9997629 16.565852,8.163937 16.782919,6.3439733 C 15.193133,9.1670997 14.188307,11.861361 11.960568,14.646817 C 12.384511,13.510826 13.162079,10.881989 13.542201,8.3820176 C 11.665031,11.788006 10.152696,14.531832 7.8169328,17.319271 C 8.9552605,14.513987 9.2640459,12.261832 9.3639171,10.885954 C 7.0587271,15.695577 4.3866634,18.79031 1.0735896,22.452046 L 19.737272,47.213868 L 39.783865,30.972968 z "
       i:knockout="Off" />
    <path
       style="fill:url(#XMLID_59_)"
       id="path4005"
       d="M 44.246476,24.323555 C 40.883467,27.578873 37.779307,28.982506 35.986722,29.482103 C 36.12328,29.317555 36.262896,29.151022 36.408626,28.982506 C 35.882774,29.194638 35.394628,29.3691 34.991067,29.482103 C 36.68582,27.438113 39.10311,24.985723 40.546147,22.325164 C 38.960437,23.364011 37.196386,22.965521 35.145969,24.438543 C 35.340616,24.198656 35.554626,23.905242 35.781884,23.580105 C 35.257051,23.770429 34.715912,24.034106 34.150315,24.438543 C 35.376284,22.921905 37.2932,19.670554 39.374189,15.245541 C 37.243264,17.162651 34.275663,19.194745 33.010968,19.837087 C 33.095553,19.71417 33.263703,19.396965 33.475675,18.968737 C 32.889696,19.345417 32.380149,19.65271 32.015313,19.837087 C 32.343462,19.359296 33.774269,16.349813 35.13374,12.717815 C 32.127414,16.05838 30.277759,17.509594 29.045674,17.761375 C 29.125164,17.624582 29.235226,17.416415 29.356498,17.180493 C 28.856123,17.493733 28.424027,17.684057 28.051039,17.761375 C 28.75829,16.540136 31.286661,11.129807 32.663457,7.6167601 C 30.922845,9.3613877 28.318041,11.530278 26.987105,11.530278 C 27.124683,11.363745 27.247993,11.21902 27.372322,11.072313 C 26.843413,11.357797 26.367496,11.530278 25.992469,11.530278 C 27.256146,10.007693 27.912442,9.3752637 29.103763,6.7067775 C 27.433468,8.5069166 25.668398,9.8371952 24.01237,11.084207 C 24.49644,10.471605 24.882676,9.9244269 25.221016,9.3812137 C 24.477077,9.9839036 23.736196,10.542976 23.018754,11.084207 C 24.409817,9.3157885 25.038598,8.0925661 25.885465,5.8146376 C 23.504862,8.4751949 22.142333,9.4149158 21.039674,10.640122 C 21.264894,10.11475 21.508457,9.6448906 21.825395,8.9232474 C 21.125278,9.5655879 20.557643,10.071134 20.044019,10.640122 C 20.389492,9.8352133 20.775729,9.1750287 21.420815,7.4680698 C 20.368091,9.032287 19.057537,10.822512 17.602271,12.592913 C 17.889655,11.952556 18.187231,11.151614 18.549009,10.110784 C 17.938572,10.927588 17.291447,11.762233 16.607635,12.592913 C 17.045846,11.617508 17.508514,10.265422 18.18825,8.2432397 C 17.036674,10.164313 15.671088,12.273726 14.188307,14.462443 C 14.643842,13.738818 15.07288,12.317342 15.910575,10.314985 C 15.069823,11.647248 14.159772,13.03502 13.192652,14.462443 C 13.286409,14.313752 13.380165,14.125412 13.473922,13.923195 C 12.642342,15.203909 11.764902,16.478678 10.974085,17.46796 C 11.192171,16.883114 11.664012,15.72135 12.165406,14.397019 C 11.428601,15.513184 10.671414,16.599611 9.9784306,17.46796 C 10.143524,17.025856 10.453328,16.256633 10.810011,15.334756 C 9.7053135,17.134896 8.4436755,19.02623 7.3899326,20.28712 C 7.9555296,18.893401 8.4457137,17.896188 8.9725851,16.674947 C 8.1002409,18.030999 7.188152,19.33947 6.3952971,20.28712 C 7.1382164,18.457244 7.753749,17.301427 8.4885156,15.429919 C 6.1619246,18.863664 4.3591478,20.877915 1.9184183,23.574158 L 19.543644,46.958123 L 35.345712,34.158897 C 37.362498,32.701734 41.603966,29.101458 44.246476,24.323555 z "
       i:knockout="Off" />
    <path
       style="fill:url(#XMLID_60_)"
       id="path4014"
       d="M 26.112723,34.343272 C 29.038541,30.8104 33.603061,26.36953 34.790306,21.579732 C 32.031619,27.196244 28.908097,24.862806 25.00191,27.670068 C 26.870928,25.356454 29.948591,20.01353 33.178099,12.747552 C 31.159275,15.689629 24.498478,20.400124 22.176983,21.579732 C 22.68551,20.838265 25.206748,15.497323 27.222516,9.6052385 C 21.874312,15.889865 18.846584,18.439401 16.929669,18.835909"
       a:adobe-blending-mode="lighten"
       i:knockout="Off" />
    <path
       style="fill:url(#XMLID_61_)"
       id="path4023"
       d="M 15.46253,41.017376 C 17.97887,37.182064 22.02321,32.262764 22.672407,27.370909 C 20.553048,33.258514 17.190202,31.285545 13.619131,34.508352 C 15.220278,32.001886 17.686964,26.350841 20.091474,18.771759 C 18.411079,21.919417 12.313249,27.338957 10.136755,28.768535 C 10.559993,27.975285 12.4739,22.387868 13.824378,16.308706 C 9.2054796,23.147244 6.4788992,26.016569 4.617723,26.623037"
       a:adobe-blending-mode="lighten"
       i:knockout="Off" />
    <path
       style="fill:url(#XMLID_62_)"
       id="path4032"
       d="M 19.661859,22.913976 C 21.118144,20.021461 23.466136,16.139665 23.808552,12.997351 C 22.605002,17.067488 20.600445,16.573838 18.516398,19.311715 C 19.439697,17.430291 20.85318,13.433508 22.208574,8.2690128 C 21.241455,10.56082 17.682779,15.190031 16.407893,16.532206 C 16.652475,15.953306 17.736791,12.113142 18.483787,8.0925661 C 15.809685,13.276889 14.221937,15.620241 13.12743,16.389463"
       a:adobe-blending-mode="lighten"
       i:knockout="Off" />
    <path
       style="fill:none;stroke:#72470e;stroke-width:0.69999981;stroke-linecap:square"
       id="path4034"
       d="M 12.248975,7.1627194 C 11.580449,8.9826826 10.378937,11.84149 8.8411244,13.792299"
       i:knockout="Off" />
    <path
       style="fill:none;stroke:#72470e;stroke-width:0.69999981;stroke-linecap:square"
       id="path4036"
       d="M 45.790416,17.56109 C 44.654126,19.121343 42.249064,24.838959 41.112774,25.100654"
       i:knockout="Off" />
    <path
       style="fill:none;stroke:#72470e;stroke-width:0.69999981;stroke-linecap:square"
       id="path4038"
       d="M 41.379777,14.961994 C 40.043745,17.95165 37.436902,22.632402 37.036398,22.632402"
       i:knockout="Off" />
    <path
       style="fill:none;stroke:#72470e;stroke-width:0.69999981;stroke-linecap:square"
       id="path4040"
       d="M 39.709482,10.67378 C 38.307208,12.232049 36.436152,14.313705 35.032859,15.483398"
       i:knockout="Off" />
    <path
       style="fill:none;stroke:#72470e;stroke-width:0.69999981;stroke-linecap:square"
       id="path4042"
       d="M 32.293535,5.3427561 C 31.023744,7.553277 28.48518,11.579796 27.816655,12.362896"
       i:knockout="Off" />
    <path
       style="fill:none;stroke:#804f10;stroke-width:0.69999981;stroke-linecap:square"
       id="path4044"
       d="M 33.96383,11.84149 C 32.8948,13.272877 30.890242,17.041668 30.422478,17.301379"
       i:knockout="Off" />
    <path
       style="fill:none;stroke:#72470e;stroke-width:0.69999981;stroke-linecap:square"
       id="path4046"
       d="M 19.999185,1.5739654 C 19.597662,2.8725235 18.795635,7.6841245 18.194369,8.7229695"
       i:knockout="Off" />
    <path
       style="fill:none;stroke:#72470e;stroke-width:0.69999981;stroke-linecap:square"
       id="path4048"
       d="M 28.017416,3.782503 C 27.148129,6.3855678 25.612354,11.32405 24.876569,12.103184"
       i:knockout="Off" />
    <path
       style="fill:none;stroke:#804f10;stroke-width:0.69999981;stroke-linecap:square"
       id="path4050"
       d="M 36.086603,17.440157 C 35.0991,19.535692 32.228313,23.37387 31.959272,23.37387"
       i:knockout="Off" />
    <path
       style="fill:none;stroke:#72470e;stroke-width:0.69999981;stroke-linecap:square"
       id="path4052"
       d="M 39.764513,21.103872 C 38.95739,22.150648 36.354624,27.913863 35.995903,28.260807"
       i:knockout="Off" />
    <path
       style="fill:none;stroke:#804f10;stroke-width:0.69999981;stroke-linecap:square"
       id="path4054"
       d="M 34.212007,23.35 C 32.970751,25.497079 29.108384,31.668697 29.108384,31.668697"
       i:knockout="Off" />
  </g>
</svg>
