<?xml version="1.0" encoding="UTF-8" standalone="no"?>
<!-- Created with Inkscape (http://www.inkscape.org/) -->

<svg
   xmlns:dc="http://purl.org/dc/elements/1.1/"
   xmlns:cc="http://creativecommons.org/ns#"
   xmlns:rdf="http://www.w3.org/1999/02/22-rdf-syntax-ns#"
   xmlns:svg="http://www.w3.org/2000/svg"
   xmlns="http://www.w3.org/2000/svg"
   xmlns:xlink="http://www.w3.org/1999/xlink"
   xmlns:sodipodi="http://sodipodi.sourceforge.net/DTD/sodipodi-0.dtd"
   xmlns:inkscape="http://www.inkscape.org/namespaces/inkscape"
   width="48px"
   height="48px"
   id="svg3421"
   sodipodi:version="0.32"
   inkscape:version="0.48.5 r10040"
   sodipodi:docname="name.svg"
   inkscape:output_extension="org.inkscape.output.svg.inkscape"
   version="1.1">
  <defs
     id="defs3423">
    <linearGradient
       id="linearGradient3558">
      <stop
         style="stop-color:#2541b2;stop-opacity:1;"
         offset="0"
         id="stop3560" />
      <stop
         style="stop-color:#000000;stop-opacity:1;"
         offset="1"
         id="stop3562" />
    </linearGradient>
    <linearGradient
       inkscape:collect="always"
       id="linearGradient3544">
      <stop
         style="stop-color:#ffffff;stop-opacity:1;"
         offset="0"
         id="stop3546" />
      <stop
         style="stop-color:#dadada;stop-opacity:1"
         offset="1"
         id="stop3548" />
    </linearGradient>
    <linearGradient
       inkscape:collect="always"
       id="linearGradient3524">
      <stop
         style="stop-color:#5b9ee7;stop-opacity:1"
         offset="0"
         id="stop3526" />
      <stop
         style="stop-color:#1e62ba;stop-opacity:1"
         offset="1"
         id="stop3528" />
    </linearGradient>
    <linearGradient
       inkscape:collect="always"
       xlink:href="#linearGradient3524"
       id="linearGradient3530"
       x1="1.962183"
       y1="6.445303"
       x2="46.239849"
       y2="39.881351"
       gradientUnits="userSpaceOnUse"
       gradientTransform="matrix(0.66800553,-0.17872619,0.17899155,0.66701525,7.7987102,20.011427)" />
    <linearGradient
       inkscape:collect="always"
       xlink:href="#linearGradient3558"
       id="linearGradient3564"
       x1="19.214287"
       y1="8.1882353"
       x2="26.488138"
       y2="20.045378"
       gradientUnits="userSpaceOnUse"
       gradientTransform="matrix(0.79625763,0,0,0.79542358,9.6171461,13.40365)" />
    <linearGradient
       inkscape:collect="always"
       xlink:href="#linearGradient3544"
       id="linearGradient18426"
       gradientUnits="userSpaceOnUse"
       x1="18.788837"
       y1="22.948217"
       x2="44.446712"
       y2="31.029438"
       gradientTransform="matrix(0.79625763,0,0,0.79542358,9.6171461,13.40365)" />
    <radialGradient
       r="16.179747"
       fy="54.457291"
       fx="20.870275"
       cy="54.457291"
       cx="20.870275"
       gradientTransform="matrix(1.2843726,-0.01105261,0.00739861,1.3471187,-3.0955682,-48.864746)"
       gradientUnits="userSpaceOnUse"
       id="radialGradient3599"
       xlink:href="#linearGradient62611"
       inkscape:collect="always" />
    <linearGradient
       id="linearGradient62611">
      <stop
         id="stop62613"
         offset="0"
         style="stop-color:white;stop-opacity:1;" />
      <stop
         style="stop-color:white;stop-opacity:1;"
         offset="0.70532721"
         id="stop62615" />
      <stop
         id="stop62617"
         offset="1"
         style="stop-color:#fcaf3e;stop-opacity:1;" />
    </linearGradient>
    <radialGradient
       r="16.179747"
       fy="54.457291"
       fx="20.870275"
       cy="54.457291"
       cx="20.870275"
       gradientTransform="matrix(1.2843726,-0.01105261,0.00739861,1.3471187,-3.0955682,-48.864746)"
       gradientUnits="userSpaceOnUse"
       id="radialGradient18444"
       xlink:href="#linearGradient62611"
       inkscape:collect="always" />
    <radialGradient
       inkscape:collect="always"
       xlink:href="#linearGradient11814"
       id="radialGradient49464"
       gradientUnits="userSpaceOnUse"
       cx="8.1199293"
       cy="33.510876"
       fx="8.1199293"
       fy="33.510876"
       r="2.5820103" />
    <linearGradient
       id="linearGradient11814">
      <stop
         style="stop-color:#e8e9e7;stop-opacity:1;"
         offset="0"
         id="stop11816" />
      <stop
         style="stop-color:#7f8578;stop-opacity:1;"
         offset="1"
         id="stop11818" />
    </linearGradient>
    <linearGradient
       inkscape:collect="always"
       xlink:href="#linearGradient11870"
       id="linearGradient49466"
       gradientUnits="userSpaceOnUse"
       x1="6.723104"
       y1="32.250443"
       x2="10.363315"
       y2="35.862434" />
    <linearGradient
       inkscape:collect="always"
       id="linearGradient11870">
      <stop
         style="stop-color:#545f63;stop-opacity:1"
         offset="0"
         id="stop11872" />
      <stop
         style="stop-color:#2e3436;stop-opacity:1"
         offset="1"
         id="stop11874" />
    </linearGradient>
    <radialGradient
       inkscape:collect="always"
       xlink:href="#linearGradient11814"
       id="radialGradient49454"
       gradientUnits="userSpaceOnUse"
       cx="8.1199293"
       cy="33.510876"
       fx="8.1199293"
       fy="33.510876"
       r="2.5820103" />
    <linearGradient
       id="linearGradient18576">
      <stop
         style="stop-color:#e8e9e7;stop-opacity:1;"
         offset="0"
         id="stop18578" />
      <stop
         style="stop-color:#7f8578;stop-opacity:1;"
         offset="1"
         id="stop18580" />
    </linearGradient>
    <linearGradient
       inkscape:collect="always"
       xlink:href="#linearGradient11870"
       id="linearGradient49456"
       gradientUnits="userSpaceOnUse"
       x1="6.723104"
       y1="32.250443"
       x2="10.363315"
       y2="35.862434" />
    <radialGradient
       inkscape:collect="always"
       xlink:href="#linearGradient11814"
       id="radialGradient49444"
       gradientUnits="userSpaceOnUse"
       cx="8.1199293"
       cy="33.510876"
       fx="8.1199293"
       fy="33.510876"
       r="2.5820103" />
    <linearGradient
       id="linearGradient18590">
      <stop
         style="stop-color:#e8e9e7;stop-opacity:1;"
         offset="0"
         id="stop18592" />
      <stop
         style="stop-color:#7f8578;stop-opacity:1;"
         offset="1"
         id="stop18594" />
    </linearGradient>
    <linearGradient
       inkscape:collect="always"
       xlink:href="#linearGradient11870"
       id="linearGradient49446"
       gradientUnits="userSpaceOnUse"
       x1="6.723104"
       y1="32.250443"
       x2="10.363315"
       y2="35.862434" />
  </defs>
  <sodipodi:namedview
     id="base"
     pagecolor="#ffffff"
     bordercolor="#666666"
     borderopacity="1.0"
     inkscape:pageopacity="0.0"
     inkscape:pageshadow="2"
     inkscape:zoom="14"
     inkscape:cx="11.909618"
     inkscape:cy="28.544064"
     inkscape:current-layer="layer1"
     showgrid="true"
     inkscape:grid-bbox="false"
     inkscape:document-units="px"
     inkscape:window-width="2560"
     inkscape:window-height="1537"
     inkscape:window-x="-8"
     inkscape:window-y="-8"
     inkscape:window-maximized="1" />
  <metadata
     id="metadata3426">
    <rdf:RDF>
      <cc:Work
         rdf:about="">
        <dc:format>image/svg+xml</dc:format>
        <dc:type
           rdf:resource="http://purl.org/dc/dcmitype/StillImage" />
        <dc:title></dc:title>
      </cc:Work>
    </rdf:RDF>
  </metadata>
  <g
     id="layer1"
     inkscape:label="Layer 1"
     inkscape:groupmode="layer">
    <path
       sodipodi:type="arc"
       style="color:#000000;fill:url(#radialGradient18444);fill-opacity:1;fill-rule:evenodd;stroke:#ce5c00;stroke-width:2.36809921;stroke-linecap:butt;stroke-linejoin:miter;stroke-miterlimit:4;stroke-opacity:1;stroke-dasharray:2.36809945, 2.36809945;stroke-dashoffset:0;marker:none;visibility:visible;display:inline;overflow:visible;enable-background:accumulate"
       id="path62573"
       sodipodi:cx="24.214285"
       sodipodi:cy="23.928572"
       sodipodi:rx="21.928572"
       sodipodi:ry="21.928572"
       d="m 46.142857,23.928572 a 21.928572,21.928572 0 1 1 -43.8571438,0 21.928572,21.928572 0 1 1 43.8571438,0 z"
       transform="matrix(0.84455911,0,0,0.84455911,-0.98610971,-0.60195043)" />
    <g
       id="g49438"
       transform="matrix(1.082531,0,0,1.082321,-0.62157237,-4.6903983)">
      <path
         sodipodi:type="arc"
         style="color:#000000;fill:url(#radialGradient49444);fill-opacity:1;fill-rule:evenodd;stroke:url(#linearGradient49446);stroke-width:0.54746598;stroke-linecap:butt;stroke-linejoin:round;stroke-miterlimit:4;stroke-opacity:1;stroke-dasharray:none;stroke-dashoffset:0;marker:none;visibility:visible;display:inline;overflow:visible"
         id="path49440"
         sodipodi:cx="8.5714283"
         sodipodi:cy="34"
         sodipodi:rx="2.2857144"
         sodipodi:ry="2.2857144"
         d="m 10.857143,34 c 0,1.262365 -1.0233495,2.285714 -2.2857147,2.285714 -1.2623652,0 -2.2857144,-1.023349 -2.2857144,-2.285714 0,-1.262365 1.0233492,-2.285714 2.2857144,-2.285714 1.2623652,0 2.2857147,1.023349 2.2857147,2.285714 z"
         transform="matrix(1.6875,0,0,1.687501,0.17857,-43.50986)" />
      <path
         sodipodi:type="arc"
         style="color:#000000;fill:none;stroke:#eeeeec;stroke-width:0.86869216;stroke-linecap:butt;stroke-linejoin:round;stroke-miterlimit:4;stroke-opacity:0.50196078;stroke-dasharray:none;stroke-dashoffset:0;marker:none;visibility:visible;display:inline;overflow:visible"
         id="path49442"
         sodipodi:cx="8.5714283"
         sodipodi:cy="34"
         sodipodi:rx="2.7250431"
         sodipodi:ry="2.648638"
         d="m 11.296471,34 c 0,1.462802 -1.220043,2.648638 -2.7250427,2.648638 -1.5049997,0 -2.7250431,-1.185836 -2.7250431,-2.648638 0,-1.462802 1.2200434,-2.648638 2.7250431,-2.648638 1.5049997,0 2.7250427,1.185836 2.7250427,2.648638 z"
         transform="matrix(1.04848,0,0,1.078725,5.65588,-22.81151)" />
    </g>
    <g
       id="g49448"
       transform="matrix(1.082531,0,0,1.082321,10.952452,0.19350673)">
      <path
         sodipodi:type="arc"
         style="color:#000000;fill:url(#radialGradient49454);fill-opacity:1;fill-rule:evenodd;stroke:url(#linearGradient49456);stroke-width:0.54746598;stroke-linecap:butt;stroke-linejoin:round;stroke-miterlimit:4;stroke-opacity:1;stroke-dasharray:none;stroke-dashoffset:0;marker:none;visibility:visible;display:inline;overflow:visible"
         id="path49450"
         sodipodi:cx="8.5714283"
         sodipodi:cy="34"
         sodipodi:rx="2.2857144"
         sodipodi:ry="2.2857144"
         d="m 10.857143,34 c 0,1.262365 -1.0233495,2.285714 -2.2857147,2.285714 -1.2623652,0 -2.2857144,-1.023349 -2.2857144,-2.285714 0,-1.262365 1.0233492,-2.285714 2.2857144,-2.285714 1.2623652,0 2.2857147,1.023349 2.2857147,2.285714 z"
         transform="matrix(1.6875,0,0,1.687501,0.17857,-43.50986)" />
      <path
         sodipodi:type="arc"
         style="color:#000000;fill:none;stroke:#eeeeec;stroke-width:0.86869216;stroke-linecap:butt;stroke-linejoin:round;stroke-miterlimit:4;stroke-opacity:0.50196078;stroke-dasharray:none;stroke-dashoffset:0;marker:none;visibility:visible;display:inline;overflow:visible"
         id="path49452"
         sodipodi:cx="8.5714283"
         sodipodi:cy="34"
         sodipodi:rx="2.7250431"
         sodipodi:ry="2.648638"
         d="m 11.296471,34 c 0,1.462802 -1.220043,2.648638 -2.7250427,2.648638 -1.5049997,0 -2.7250431,-1.185836 -2.7250431,-2.648638 0,-1.462802 1.2200434,-2.648638 2.7250431,-2.648638 1.5049997,0 2.7250427,1.185836 2.7250427,2.648638 z"
         transform="matrix(1.04848,0,0,1.078725,5.65588,-22.81151)" />
    </g>
    <g
       id="g49458"
       transform="matrix(1.082531,0,0,1.082321,-5.7265685,9.3201173)">
      <path
         sodipodi:type="arc"
         style="color:#000000;fill:url(#radialGradient49464);fill-opacity:1;fill-rule:evenodd;stroke:url(#linearGradient49466);stroke-width:0.54746598;stroke-linecap:butt;stroke-linejoin:round;stroke-miterlimit:4;stroke-opacity:1;stroke-dasharray:none;stroke-dashoffset:0;marker:none;visibility:visible;display:inline;overflow:visible"
         id="path49460"
         sodipodi:cx="8.5714283"
         sodipodi:cy="34"
         sodipodi:rx="2.2857144"
         sodipodi:ry="2.2857144"
         d="m 10.857143,34 c 0,1.262365 -1.0233495,2.285714 -2.2857147,2.285714 -1.2623652,0 -2.2857144,-1.023349 -2.2857144,-2.285714 0,-1.262365 1.0233492,-2.285714 2.2857144,-2.285714 1.2623652,0 2.2857147,1.023349 2.2857147,2.285714 z"
         transform="matrix(1.6875,0,0,1.687501,0.17857,-43.50986)" />
      <path
         sodipodi:type="arc"
         style="color:#000000;fill:none;stroke:#eeeeec;stroke-width:0.86869216;stroke-linecap:butt;stroke-linejoin:round;stroke-miterlimit:4;stroke-opacity:0.50196078;stroke-dasharray:none;stroke-dashoffset:0;marker:none;visibility:visible;display:inline;overflow:visible"
         id="path49462"
         sodipodi:cx="8.5714283"
         sodipodi:cy="34"
         sodipodi:rx="2.7250431"
         sodipodi:ry="2.648638"
         d="m 11.296471,34 c 0,1.462802 -1.220043,2.648638 -2.7250427,2.648638 -1.5049997,0 -2.7250431,-1.185836 -2.7250431,-2.648638 0,-1.462802 1.2200434,-2.648638 2.7250431,-2.648638 1.5049997,0 2.7250427,1.185836 2.7250427,2.648638 z"
         transform="matrix(1.04848,0,0,1.078725,5.65588,-22.81151)" />
    </g>
    <path
       style="opacity:0.3;color:#000000;fill:#000000;fill-opacity:1;fill-rule:evenodd;stroke:none;stroke-width:1;marker:none;visibility:visible;display:inline;overflow:visible;enable-background:accumulate"
       d="m 40.207579,16.635833 c -0.150636,-0.0021 -0.299204,0.0099 -0.447895,0.04971 l -26.450682,7.084241 c -1.189528,0.318261 -1.786369,1.904878 -1.343685,3.55455 l 5.200557,19.413306 c 0.246968,0.920332 1.423193,1.411968 2.612721,1.093708 l 26.425799,-7.084242 c 1.189527,-0.318261 1.939014,-1.316797 1.692048,-2.237128 L 42.695884,19.096675 c -0.387349,-1.443462 -1.433853,-2.446337 -2.488305,-2.460842 z"
       id="path3532"
       sodipodi:nodetypes="cccccccccc"
       inkscape:connector-curvature="0" />
    <path
       style="color:#000000;fill:url(#linearGradient3530);fill-opacity:1;fill-rule:evenodd;stroke:url(#linearGradient3564);stroke-width:0.99999988;stroke-linecap:butt;stroke-linejoin:miter;stroke-miterlimit:4;stroke-opacity:1;stroke-dasharray:none;stroke-dashoffset:0;marker:none;visibility:visible;display:inline;overflow:visible;enable-background:accumulate"
       d="m 12.611221,35.277278 -2.450479,-9.131754 c -0.4426838,-1.649672 0.158564,-3.233963 1.348091,-3.552223 l 26.433933,-7.07245 c 1.189527,-0.31826 2.503545,0.753598 2.94623,2.403269 l 2.502779,9.326653 -30.780554,8.026505 z"
       id="path3434"
       sodipodi:nodetypes="ccccccc"
       inkscape:connector-curvature="0" />
    <path
       style="color:#000000;fill:url(#linearGradient18426);fill-opacity:1;fill-rule:evenodd;stroke:#000000;stroke-width:0.99999988;stroke-linecap:butt;stroke-linejoin:miter;stroke-miterlimit:4;stroke-opacity:1;stroke-dasharray:none;stroke-dashoffset:0;marker:none;visibility:visible;display:inline;overflow:visible;enable-background:accumulate"
       d="m 43.245334,26.772742 2.855281,10.572576 c 0.246968,0.920331 -0.511842,1.917464 -1.701369,2.235725 l -26.433933,7.07245 c -1.189527,0.31826 -2.345983,-0.16644 -2.592952,-1.086772 l -2.91472,-10.794075"
       id="rect3429"
       sodipodi:nodetypes="cccccc"
       inkscape:connector-curvature="0" />
    <g
       id="g3496"
       transform="matrix(0.73079378,-0.1955253,0.1958156,0.72971045,9.40045,20.252436)"
       style="fill:#204a87">
      <path
         id="path3498"
         d="m 7.460329,6 1.626687,0 0,1.8421426 1.777506,0 0,-1.8421426 1.63387,0 0,5.26429 -1.63387,0 0,-2.1294157 -1.777506,0 0,2.1294157 -1.626687,0 0,-5.26429 z"
         style="font-size:6.97270012px;font-style:normal;font-variant:normal;font-weight:normal;font-stretch:normal;text-align:center;line-height:100%;writing-mode:lr-tb;text-anchor:middle;fill:#204a87;fill-opacity:1;stroke:none;font-family:Arial Black"
         inkscape:connector-curvature="0" />
      <path
         id="path3500"
         d="m 13.54335,6 1.461505,0 0,0.9946852 -1.461505,0 0,-0.9946852 z"
         style="font-size:6.97270012px;font-style:normal;font-variant:normal;font-weight:normal;font-stretch:normal;text-align:center;line-height:100%;writing-mode:lr-tb;text-anchor:middle;fill:#204a87;fill-opacity:1;stroke:none;font-family:Arial Black"
         inkscape:connector-curvature="0" />
      <path
         id="path3502"
         d="m 13.54335,7.4507322 1.461505,0 0,3.8135578 -1.461505,0 0,-3.8135578 z"
         style="font-size:6.97270012px;font-style:normal;font-variant:normal;font-weight:normal;font-stretch:normal;text-align:center;line-height:100%;writing-mode:lr-tb;text-anchor:middle;fill:#204a87;fill-opacity:1;stroke:none;font-family:Arial Black"
         inkscape:connector-curvature="0" />
      <path
         id="path3504"
         d="m 15.949267,9.8135581 1.562051,0 0,1.2029589 c -2e-6,0.442881 -0.09217,0.792396 -0.276501,1.048549 -0.184335,0.256151 -0.499139,0.482379 -0.944412,0.678685 l -0.341138,-0.639185 c 0.277697,-0.129274 0.468614,-0.257948 0.572752,-0.386024 0.104135,-0.128076 0.162189,-0.279493 0.17416,-0.454252 l -0.746912,0 0,-1.4507319 z"
         style="font-size:6.97270012px;font-style:normal;font-variant:normal;font-weight:normal;font-stretch:normal;text-align:center;line-height:100%;writing-mode:lr-tb;text-anchor:middle;fill:#204a87;fill-opacity:1;stroke:none;font-family:Arial Black"
         inkscape:connector-curvature="0" />
      <path
         id="path3506"
         d="m 20.868828,7.4507322 1.364551,0 0,0.5565928 c 0.196301,-0.2322094 0.394401,-0.3973916 0.594297,-0.4955471 0.199892,-0.098148 0.441082,-0.1472239 0.72357,-0.1472278 0.304029,3.9e-6 0.54462,0.053868 0.721776,0.1615914 0.177148,0.1077313 0.321981,0.2681256 0.434501,0.4811835 0.229815,-0.248967 0.439285,-0.4183387 0.628412,-0.5081154 0.189116,-0.089769 0.422526,-0.1346556 0.700229,-0.1346595 0.40936,3.9e-6 0.728951,0.1214967 0.958776,0.3644785 0.229812,0.242989 0.344722,0.6230278 0.344729,1.1401175 l 0,2.3951439 -1.465096,0 0,-2.1725068 c -5e-6,-0.1723618 -0.03352,-0.3004379 -0.100546,-0.3842285 -0.09816,-0.1316644 -0.220248,-0.1974979 -0.366274,-0.1975008 -0.172369,2.9e-6 -0.311217,0.062245 -0.416546,0.186728 -0.105339,0.1244878 -0.158006,0.3243822 -0.158002,0.5996835 l 0,1.9678246 -1.465095,0 0,-2.1006883 c -3e-6,-0.1675741 -0.0096,-0.2812864 -0.02873,-0.3411376 -0.03113,-0.095755 -0.08499,-0.17296 -0.161592,-0.2316144 -0.07661,-0.058649 -0.166382,-0.087975 -0.269319,-0.087977 -0.167579,2.7e-6 -0.30523,0.063442 -0.412956,0.1903188 -0.107729,0.1268817 -0.161594,0.3351549 -0.161591,0.6248201 l 0,1.9462784 -1.465097,0 0,-3.8135573 z"
         style="font-size:6.97270012px;font-style:normal;font-variant:normal;font-weight:normal;font-stretch:normal;text-align:center;line-height:100%;writing-mode:lr-tb;text-anchor:middle;fill:#204a87;fill-opacity:1;stroke:none;font-family:Arial Black"
         inkscape:connector-curvature="0" />
      <path
         id="path3508"
         d="m 27.788534,7.4507322 1.544096,0 0.786412,2.5387818 0.728957,-2.5387818 1.439959,0 -1.511777,4.0756958 c -0.172368,0.464425 -0.348323,0.778032 -0.527866,0.940821 -0.253761,0.229818 -0.640383,0.344727 -1.159868,0.344729 -0.210667,-2e-6 -0.536244,-0.02873 -0.97673,-0.08618 l -0.11491,-1.019821 c 0.210668,0.06703 0.445274,0.100545 0.703821,0.100546 0.172363,-1e-6 0.31181,-0.0395 0.418343,-0.1185 0.106529,-0.079 0.1969,-0.220244 0.271114,-0.42373 L 27.788534,7.4507322 z"
         style="font-size:6.97270012px;font-style:normal;font-variant:normal;font-weight:normal;font-stretch:normal;text-align:center;line-height:100%;writing-mode:lr-tb;text-anchor:middle;fill:#204a87;fill-opacity:1;stroke:none;font-family:Arial Black"
         inkscape:connector-curvature="0" />
      <path
         id="path3510"
         d="m 4.5844245,15.096669 1.3609597,0 0,0.62123 c 0.2034828,-0.253756 0.409362,-0.435098 0.6176375,-0.544025 0.2082712,-0.108922 0.4620292,-0.163383 0.7612762,-0.163387 0.404573,4e-6 0.721172,0.1203 0.949799,0.360887 0.228617,0.240595 0.342928,0.612256 0.342933,1.114981 l 0,2.423872 -1.468687,0 0,-2.097098 c -3e-6,-0.239392 -0.044292,-0.408764 -0.132865,-0.508115 -0.088579,-0.09935 -0.213063,-0.149021 -0.373456,-0.149023 -0.177154,2e-6 -0.3207903,0.06703 -0.4309098,0.201091 -0.1101238,0.134064 -0.1651841,0.374655 -0.1651831,0.721776 l 0,1.831369 -1.4615045,0 0,-3.813558 z"
         style="font-size:6.97270012px;font-style:normal;font-variant:normal;font-weight:normal;font-stretch:normal;text-align:center;line-height:100%;writing-mode:lr-tb;text-anchor:middle;fill:#204a87;fill-opacity:1;stroke:none;font-family:Arial Black"
         inkscape:connector-curvature="0" />
      <path
         d="M 10.829037,16.331946 9.4321689,16.184718 c 0.052666,-0.24418 0.128674,-0.436294 0.228023,-0.576343 0.099347,-0.140042 0.242386,-0.261535 0.4291141,-0.364479 0.134061,-0.07421 0.318394,-0.131663 0.553003,-0.172363 0.234604,-0.04069 0.488363,-0.06104 0.761275,-0.06105 0.438089,4e-6 0.79,0.02454 1.055731,0.07361 0.265725,0.04908 0.487164,0.151421 0.66432,0.307024 0.124482,0.10773 0.222633,0.260344 0.294456,0.457842 0.07181,0.197504 0.107723,0.386026 0.107728,0.56557 l 0,1.684142 c -5e-6,0.179547 0.01137,0.320191 0.03411,0.421933 0.02274,0.101743 0.07241,0.231615 0.149022,0.389615 l -1.371732,0 c -0.05506,-0.09815 -0.09097,-0.172962 -0.107727,-0.224432 -0.01676,-0.05147 -0.03352,-0.132265 -0.05027,-0.242388 -0.191518,0.184335 -0.381837,0.316002 -0.570956,0.395002 -0.25855,0.105333 -0.558989,0.158001 -0.901322,0.158001 -0.454851,0 -0.8001781,-0.105335 -1.0359811,-0.316001 -0.235804,-0.210668 -0.353705,-0.47041 -0.353705,-0.779231 0,-0.289666 0.084984,-0.527863 0.254955,-0.714593 0.16997,-0.186726 0.4835771,-0.325574 0.9408221,-0.416547 0.548212,-0.110119 0.903713,-0.187324 1.066503,-0.231614 0.162786,-0.04429 0.33515,-0.102339 0.517092,-0.17416 -2e-6,-0.179544 -0.03711,-0.305225 -0.111317,-0.377046 -0.07422,-0.07182 -0.204686,-0.107726 -0.391411,-0.107729 -0.239397,3e-6 -0.418943,0.03831 -0.538639,0.11491 -0.09336,0.05985 -0.168775,0.172367 -0.226227,0.337547 l 0,0 z m 1.267594,0.768457 c -0.201094,0.07182 -0.410564,0.13526 -0.62841,0.190318 -0.296852,0.079 -0.484776,0.156806 -0.563776,0.233411 -0.0814,0.079 -0.122092,0.168774 -0.12209,0.269319 -2e-6,0.11491 0.0401,0.208872 0.120295,0.281887 0.0802,0.07302 0.198098,0.109524 0.353706,0.109523 0.162786,10e-7 0.314204,-0.0395 0.454252,-0.118501 0.140043,-0.079 0.239392,-0.175355 0.298046,-0.289068 0.05865,-0.113711 0.08798,-0.261538 0.08798,-0.443479 l 0,-0.23341 z"
         style="font-size:6.97270012px;font-style:normal;font-variant:normal;font-weight:normal;font-stretch:normal;text-align:center;line-height:100%;writing-mode:lr-tb;text-anchor:middle;fill:#204a87;fill-opacity:1;stroke:none;font-family:Arial Black"
         id="path3512"
         inkscape:connector-curvature="0" />
      <path
         id="path3514"
         d="m 14.419958,15.096669 1.36455,0 0,0.556592 c 0.196302,-0.232209 0.394401,-0.397391 0.594297,-0.495547 0.199892,-0.09815 0.441082,-0.147223 0.723571,-0.147227 0.304028,4e-6 0.544619,0.05387 0.721775,0.161592 0.177148,0.10773 0.321982,0.268125 0.434501,0.481182 0.229815,-0.248966 0.439286,-0.418338 0.628412,-0.508115 0.189116,-0.08977 0.422527,-0.134655 0.70023,-0.134659 0.409359,4e-6 0.72895,0.121497 0.958775,0.364479 0.229813,0.242988 0.344722,0.623027 0.344729,1.140116 l 0,2.395145 -1.465096,0 0,-2.172507 c -5e-6,-0.172362 -0.03352,-0.300438 -0.100546,-0.384228 -0.09816,-0.131666 -0.220248,-0.197499 -0.366274,-0.197501 -0.172368,2e-6 -0.311217,0.06225 -0.416546,0.186728 -0.105339,0.124488 -0.158006,0.324381 -0.158001,0.599683 l 0,1.967825 -1.465096,0 0,-2.100689 c -3e-6,-0.167574 -0.0096,-0.281287 -0.02873,-0.341137 -0.03112,-0.09576 -0.08499,-0.17296 -0.161592,-0.231615 -0.07661,-0.05865 -0.166382,-0.08797 -0.269319,-0.08798 -0.167579,4e-6 -0.30523,0.06344 -0.412956,0.190319 -0.107729,0.126883 -0.161594,0.335156 -0.161592,0.624821 l 0,1.946279 -1.465095,0 0,-3.813558 z"
         style="font-size:6.97270012px;font-style:normal;font-variant:normal;font-weight:normal;font-stretch:normal;text-align:center;line-height:100%;writing-mode:lr-tb;text-anchor:middle;fill:#204a87;fill-opacity:1;stroke:none;font-family:Arial Black"
         inkscape:connector-curvature="0" />
      <path
         d="m 25.997089,17.366131 -2.930191,0 c 0.02633,0.234608 0.08977,0.409367 0.190318,0.524275 0.141241,0.165183 0.325574,0.247774 0.553002,0.247773 0.143634,10e-7 0.280089,-0.03591 0.409366,-0.107727 0.079,-0.04548 0.163981,-0.125681 0.254955,-0.240592 l 1.439959,0.132864 c -0.220248,0.383032 -0.485976,0.657737 -0.797185,0.824116 -0.311217,0.16638 -0.757687,0.24957 -1.339413,0.24957 -0.505125,0 -0.90252,-0.07122 -1.192186,-0.21366 -0.289669,-0.14244 -0.529662,-0.368668 -0.71998,-0.678685 -0.190319,-0.310015 -0.285478,-0.674493 -0.285478,-1.093435 0,-0.59609 0.190917,-1.07847 0.572752,-1.447142 0.381833,-0.368663 0.909099,-0.552997 1.5818,-0.553001 0.545818,4e-6 0.976728,0.0826 1.292732,0.247773 0.315998,0.165187 0.556589,0.40458 0.721776,0.718185 0.165178,0.31361 0.247768,0.721777 0.247773,1.224503 l 0,0.165183 z m -1.486642,-0.70023 c -0.02873,-0.282483 -0.104738,-0.484771 -0.228023,-0.606866 -0.123291,-0.122088 -0.285481,-0.183133 -0.48657,-0.183136 -0.232215,3e-6 -0.417746,0.09217 -0.556593,0.276501 -0.08858,0.114912 -0.144835,0.286078 -0.168773,0.513501 l 1.439959,0 z"
         style="font-size:6.97270012px;font-style:normal;font-variant:normal;font-weight:normal;font-stretch:normal;text-align:center;line-height:100%;writing-mode:lr-tb;text-anchor:middle;fill:#204a87;fill-opacity:1;stroke:none;font-family:Arial Black"
         id="path3516"
         inkscape:connector-curvature="0" />
      <path
         id="path3518"
         d="m 29.185825,13.645936 1.461505,0 0,0.994686 -1.461505,0 0,-0.994686 z"
         style="font-size:6.97270012px;font-style:normal;font-variant:normal;font-weight:normal;font-stretch:normal;text-align:center;line-height:100%;writing-mode:lr-tb;text-anchor:middle;fill:#204a87;fill-opacity:1;stroke:none;font-family:Arial Black"
         inkscape:connector-curvature="0" />
      <path
         id="path3520"
         d="m 29.185825,15.096669 1.461505,0 0,3.813558 -1.461505,0 0,-3.813558 z"
         style="font-size:6.97270012px;font-style:normal;font-variant:normal;font-weight:normal;font-stretch:normal;text-align:center;line-height:100%;writing-mode:lr-tb;text-anchor:middle;fill:#204a87;fill-opacity:1;stroke:none;font-family:Arial Black"
         inkscape:connector-curvature="0" />
      <path
         id="path3522"
         d="m 31.329606,17.854497 1.450732,-0.136456 c 0.05985,0.172366 0.143635,0.295654 0.251365,0.369865 0.107725,0.07421 0.251362,0.11132 0.43091,0.111319 0.196301,1e-6 0.348317,-0.04189 0.456047,-0.125682 0.08378,-0.06224 0.12568,-0.140045 0.125683,-0.23341 -3e-6,-0.105333 -0.05506,-0.186727 -0.165183,-0.244183 -0.079,-0.0407 -0.288473,-0.09097 -0.628411,-0.150819 -0.507519,-0.08857 -0.860028,-0.170567 -1.057527,-0.245978 -0.197501,-0.07541 -0.363881,-0.202885 -0.499137,-0.382433 -0.135259,-0.179544 -0.202888,-0.384226 -0.202887,-0.614047 -1e-6,-0.251362 0.07301,-0.468014 0.219046,-0.649957 0.146029,-0.181937 0.347121,-0.317793 0.603274,-0.40757 0.256152,-0.08977 0.599683,-0.134655 1.030595,-0.134659 0.454847,4e-6 0.790598,0.03472 1.007253,0.104136 0.216649,0.06943 0.397392,0.177156 0.54223,0.323184 0.14483,0.146033 0.265125,0.343534 0.360887,0.592501 l -1.386096,0.136455 c -0.03591,-0.122089 -0.09576,-0.211861 -0.179545,-0.269318 -0.114912,-0.0766 -0.253761,-0.114907 -0.416548,-0.11491 -0.165184,3e-6 -0.28548,0.02933 -0.360888,0.08798 -0.07541,0.05865 -0.113114,0.129874 -0.113113,0.213659 -1e-6,0.09337 0.04788,0.163988 0.143637,0.211864 0.09576,0.04788 0.304029,0.09097 0.62482,0.129273 0.485968,0.05506 0.847454,0.13167 1.084458,0.229819 0.236997,0.09815 0.418338,0.2382 0.544024,0.420138 0.125679,0.181942 0.18852,0.381837 0.188524,0.599685 -4e-6,0.220244 -0.06644,0.434502 -0.199296,0.642774 -0.132868,0.208274 -0.342339,0.374055 -0.628411,0.497343 C 34.269969,18.938356 33.880355,19 33.387204,19 32.690563,19 32.194418,18.90065 31.898767,18.701953 31.603113,18.503257 31.413394,18.220771 31.329606,17.854497 l 0,0 z"
         style="font-size:6.97270012px;font-style:normal;font-variant:normal;font-weight:normal;font-stretch:normal;text-align:center;line-height:100%;writing-mode:lr-tb;text-anchor:middle;fill:#204a87;fill-opacity:1;stroke:none;font-family:Arial Black"
         inkscape:connector-curvature="0" />
    </g>
    <g
       id="g3479"
       transform="matrix(0.73079378,-0.1955253,0.1958156,0.72971045,9.0785064,20.039218)">
      <path
         id="path3471"
         d="m 7.460329,6 1.626687,0 0,1.8421426 1.777506,0 0,-1.8421426 1.63387,0 0,5.26429 -1.63387,0 0,-2.1294157 -1.777506,0 0,2.1294157 -1.626687,0 0,-5.26429 z"
         style="font-size:6.97270012px;font-style:normal;font-variant:normal;font-weight:normal;font-stretch:normal;text-align:center;line-height:100%;writing-mode:lr-tb;text-anchor:middle;fill:#eeeeec;fill-opacity:1;stroke:none;font-family:Arial Black"
         inkscape:connector-curvature="0" />
      <path
         id="path3469"
         d="m 13.54335,6 1.461505,0 0,0.9946852 -1.461505,0 0,-0.9946852 z"
         style="font-size:6.97270012px;font-style:normal;font-variant:normal;font-weight:normal;font-stretch:normal;text-align:center;line-height:100%;writing-mode:lr-tb;text-anchor:middle;fill:#eeeeec;fill-opacity:1;stroke:none;font-family:Arial Black"
         inkscape:connector-curvature="0" />
      <path
         id="path3467"
         d="m 13.54335,7.4507322 1.461505,0 0,3.8135578 -1.461505,0 0,-3.8135578 z"
         style="font-size:6.97270012px;font-style:normal;font-variant:normal;font-weight:normal;font-stretch:normal;text-align:center;line-height:100%;writing-mode:lr-tb;text-anchor:middle;fill:#eeeeec;fill-opacity:1;stroke:none;font-family:Arial Black"
         inkscape:connector-curvature="0" />
      <path
         id="path3465"
         d="m 15.949267,9.8135581 1.562051,0 0,1.2029589 c -2e-6,0.442881 -0.09217,0.792396 -0.276501,1.048549 -0.184335,0.256151 -0.499139,0.482379 -0.944412,0.678685 l -0.341138,-0.639185 c 0.277697,-0.129274 0.468614,-0.257948 0.572752,-0.386024 0.104135,-0.128076 0.162189,-0.279493 0.17416,-0.454252 l -0.746912,0 0,-1.4507319 z"
         style="font-size:6.97270012px;font-style:normal;font-variant:normal;font-weight:normal;font-stretch:normal;text-align:center;line-height:100%;writing-mode:lr-tb;text-anchor:middle;fill:#eeeeec;fill-opacity:1;stroke:none;font-family:Arial Black"
         inkscape:connector-curvature="0" />
      <path
         id="path3463"
         d="m 20.868828,7.4507322 1.364551,0 0,0.5565928 c 0.196301,-0.2322094 0.394401,-0.3973916 0.594297,-0.4955471 0.199892,-0.098148 0.441082,-0.1472239 0.72357,-0.1472278 0.304029,3.9e-6 0.54462,0.053868 0.721776,0.1615914 0.177148,0.1077313 0.321981,0.2681256 0.434501,0.4811835 0.229815,-0.248967 0.439285,-0.4183387 0.628412,-0.5081154 0.189116,-0.089769 0.422526,-0.1346556 0.700229,-0.1346595 0.40936,3.9e-6 0.728951,0.1214967 0.958776,0.3644785 0.229812,0.242989 0.344722,0.6230278 0.344729,1.1401175 l 0,2.3951439 -1.465096,0 0,-2.1725068 c -5e-6,-0.1723618 -0.03352,-0.3004379 -0.100546,-0.3842285 -0.09816,-0.1316644 -0.220248,-0.1974979 -0.366274,-0.1975008 -0.172369,2.9e-6 -0.311217,0.062245 -0.416546,0.186728 -0.105339,0.1244878 -0.158006,0.3243822 -0.158002,0.5996835 l 0,1.9678246 -1.465095,0 0,-2.1006883 c -3e-6,-0.1675741 -0.0096,-0.2812864 -0.02873,-0.3411376 -0.03113,-0.095755 -0.08499,-0.17296 -0.161592,-0.2316144 -0.07661,-0.058649 -0.166382,-0.087975 -0.269319,-0.087977 -0.167579,2.7e-6 -0.30523,0.063442 -0.412956,0.1903188 -0.107729,0.1268817 -0.161594,0.3351549 -0.161591,0.6248201 l 0,1.9462784 -1.465097,0 0,-3.8135573 z"
         style="font-size:6.97270012px;font-style:normal;font-variant:normal;font-weight:normal;font-stretch:normal;text-align:center;line-height:100%;writing-mode:lr-tb;text-anchor:middle;fill:#eeeeec;fill-opacity:1;stroke:none;font-family:Arial Black"
         inkscape:connector-curvature="0" />
      <path
         id="path3461"
         d="m 27.788534,7.4507322 1.544096,0 0.786412,2.5387818 0.728957,-2.5387818 1.439959,0 -1.511777,4.0756958 c -0.172368,0.464425 -0.348323,0.778032 -0.527866,0.940821 -0.253761,0.229818 -0.640383,0.344727 -1.159868,0.344729 -0.210667,-2e-6 -0.536244,-0.02873 -0.97673,-0.08618 l -0.11491,-1.019821 c 0.210668,0.06703 0.445274,0.100545 0.703821,0.100546 0.172363,-1e-6 0.31181,-0.0395 0.418343,-0.1185 0.106529,-0.079 0.1969,-0.220244 0.271114,-0.42373 L 27.788534,7.4507322 z"
         style="font-size:6.97270012px;font-style:normal;font-variant:normal;font-weight:normal;font-stretch:normal;text-align:center;line-height:100%;writing-mode:lr-tb;text-anchor:middle;fill:#eeeeec;fill-opacity:1;stroke:none;font-family:Arial Black"
         inkscape:connector-curvature="0" />
      <path
         id="path3459"
         d="m 4.5844245,15.096669 1.3609597,0 0,0.62123 c 0.2034828,-0.253756 0.409362,-0.435098 0.6176375,-0.544025 0.2082712,-0.108922 0.4620292,-0.163383 0.7612762,-0.163387 0.404573,4e-6 0.721172,0.1203 0.949799,0.360887 0.228617,0.240595 0.342928,0.612256 0.342933,1.114981 l 0,2.423872 -1.468687,0 0,-2.097098 c -3e-6,-0.239392 -0.044292,-0.408764 -0.132865,-0.508115 -0.088579,-0.09935 -0.213063,-0.149021 -0.373456,-0.149023 -0.177154,2e-6 -0.3207903,0.06703 -0.4309098,0.201091 -0.1101238,0.134064 -0.1651841,0.374655 -0.1651831,0.721776 l 0,1.831369 -1.4615045,0 0,-3.813558 z"
         style="font-size:6.97270012px;font-style:normal;font-variant:normal;font-weight:normal;font-stretch:normal;text-align:center;line-height:100%;writing-mode:lr-tb;text-anchor:middle;fill:#eeeeec;fill-opacity:1;stroke:none;font-family:Arial Black"
         inkscape:connector-curvature="0" />
      <path
         d="M 10.829037,16.331946 9.4321689,16.184718 c 0.052666,-0.24418 0.128674,-0.436294 0.228023,-0.576343 0.099347,-0.140042 0.242386,-0.261535 0.4291141,-0.364479 0.134061,-0.07421 0.318394,-0.131663 0.553003,-0.172363 0.234604,-0.04069 0.488363,-0.06104 0.761275,-0.06105 0.438089,4e-6 0.79,0.02454 1.055731,0.07361 0.265725,0.04908 0.487164,0.151421 0.66432,0.307024 0.124482,0.10773 0.222633,0.260344 0.294456,0.457842 0.07181,0.197504 0.107723,0.386026 0.107728,0.56557 l 0,1.684142 c -5e-6,0.179547 0.01137,0.320191 0.03411,0.421933 0.02274,0.101743 0.07241,0.231615 0.149022,0.389615 l -1.371732,0 c -0.05506,-0.09815 -0.09097,-0.172962 -0.107727,-0.224432 -0.01676,-0.05147 -0.03352,-0.132265 -0.05027,-0.242388 -0.191518,0.184335 -0.381837,0.316002 -0.570956,0.395002 -0.25855,0.105333 -0.558989,0.158001 -0.901322,0.158001 -0.454851,0 -0.8001781,-0.105335 -1.0359811,-0.316001 -0.235804,-0.210668 -0.353705,-0.47041 -0.353705,-0.779231 0,-0.289666 0.084984,-0.527863 0.254955,-0.714593 0.16997,-0.186726 0.4835771,-0.325574 0.9408221,-0.416547 0.548212,-0.110119 0.903713,-0.187324 1.066503,-0.231614 0.162786,-0.04429 0.33515,-0.102339 0.517092,-0.17416 -2e-6,-0.179544 -0.03711,-0.305225 -0.111317,-0.377046 -0.07422,-0.07182 -0.204686,-0.107726 -0.391411,-0.107729 -0.239397,3e-6 -0.418943,0.03831 -0.538639,0.11491 -0.09336,0.05985 -0.168775,0.172367 -0.226227,0.337547 l 0,0 z m 1.267594,0.768457 c -0.201094,0.07182 -0.410564,0.13526 -0.62841,0.190318 -0.296852,0.079 -0.484776,0.156806 -0.563776,0.233411 -0.0814,0.079 -0.122092,0.168774 -0.12209,0.269319 -2e-6,0.11491 0.0401,0.208872 0.120295,0.281887 0.0802,0.07302 0.198098,0.109524 0.353706,0.109523 0.162786,10e-7 0.314204,-0.0395 0.454252,-0.118501 0.140043,-0.079 0.239392,-0.175355 0.298046,-0.289068 0.05865,-0.113711 0.08798,-0.261538 0.08798,-0.443479 l 0,-0.23341 z"
         style="font-size:6.97270012px;font-style:normal;font-variant:normal;font-weight:normal;font-stretch:normal;text-align:center;line-height:100%;writing-mode:lr-tb;text-anchor:middle;fill:#eeeeec;fill-opacity:1;stroke:none;font-family:Arial Black"
         id="path3457"
         inkscape:connector-curvature="0" />
      <path
         id="path3453"
         d="m 14.419958,15.096669 1.36455,0 0,0.556592 c 0.196302,-0.232209 0.394401,-0.397391 0.594297,-0.495547 0.199892,-0.09815 0.441082,-0.147223 0.723571,-0.147227 0.304028,4e-6 0.544619,0.05387 0.721775,0.161592 0.177148,0.10773 0.321982,0.268125 0.434501,0.481182 0.229815,-0.248966 0.439286,-0.418338 0.628412,-0.508115 0.189116,-0.08977 0.422527,-0.134655 0.70023,-0.134659 0.409359,4e-6 0.72895,0.121497 0.958775,0.364479 0.229813,0.242988 0.344722,0.623027 0.344729,1.140116 l 0,2.395145 -1.465096,0 0,-2.172507 c -5e-6,-0.172362 -0.03352,-0.300438 -0.100546,-0.384228 -0.09816,-0.131666 -0.220248,-0.197499 -0.366274,-0.197501 -0.172368,2e-6 -0.311217,0.06225 -0.416546,0.186728 -0.105339,0.124488 -0.158006,0.324381 -0.158001,0.599683 l 0,1.967825 -1.465096,0 0,-2.100689 c -3e-6,-0.167574 -0.0096,-0.281287 -0.02873,-0.341137 -0.03112,-0.09576 -0.08499,-0.17296 -0.161592,-0.231615 -0.07661,-0.05865 -0.166382,-0.08797 -0.269319,-0.08798 -0.167579,4e-6 -0.30523,0.06344 -0.412956,0.190319 -0.107729,0.126883 -0.161594,0.335156 -0.161592,0.624821 l 0,1.946279 -1.465095,0 0,-3.813558 z"
         style="font-size:6.97270012px;font-style:normal;font-variant:normal;font-weight:normal;font-stretch:normal;text-align:center;line-height:100%;writing-mode:lr-tb;text-anchor:middle;fill:#eeeeec;fill-opacity:1;stroke:none;font-family:Arial Black"
         inkscape:connector-curvature="0" />
      <path
         d="m 25.997089,17.366131 -2.930191,0 c 0.02633,0.234608 0.08977,0.409367 0.190318,0.524275 0.141241,0.165183 0.325574,0.247774 0.553002,0.247773 0.143634,10e-7 0.280089,-0.03591 0.409366,-0.107727 0.079,-0.04548 0.163981,-0.125681 0.254955,-0.240592 l 1.439959,0.132864 c -0.220248,0.383032 -0.485976,0.657737 -0.797185,0.824116 -0.311217,0.16638 -0.757687,0.24957 -1.339413,0.24957 -0.505125,0 -0.90252,-0.07122 -1.192186,-0.21366 -0.289669,-0.14244 -0.529662,-0.368668 -0.71998,-0.678685 -0.190319,-0.310015 -0.285478,-0.674493 -0.285478,-1.093435 0,-0.59609 0.190917,-1.07847 0.572752,-1.447142 0.381833,-0.368663 0.909099,-0.552997 1.5818,-0.553001 0.545818,4e-6 0.976728,0.0826 1.292732,0.247773 0.315998,0.165187 0.556589,0.40458 0.721776,0.718185 0.165178,0.31361 0.247768,0.721777 0.247773,1.224503 l 0,0.165183 z m -1.486642,-0.70023 c -0.02873,-0.282483 -0.104738,-0.484771 -0.228023,-0.606866 -0.123291,-0.122088 -0.285481,-0.183133 -0.48657,-0.183136 -0.232215,3e-6 -0.417746,0.09217 -0.556593,0.276501 -0.08858,0.114912 -0.144835,0.286078 -0.168773,0.513501 l 1.439959,0 z"
         style="font-size:6.97270012px;font-style:normal;font-variant:normal;font-weight:normal;font-stretch:normal;text-align:center;line-height:100%;writing-mode:lr-tb;text-anchor:middle;fill:#eeeeec;fill-opacity:1;stroke:none;font-family:Arial Black"
         id="path3451"
         inkscape:connector-curvature="0" />
      <path
         id="path3447"
         d="m 29.185825,13.645936 1.461505,0 0,0.994686 -1.461505,0 0,-0.994686 z"
         style="font-size:6.97270012px;font-style:normal;font-variant:normal;font-weight:normal;font-stretch:normal;text-align:center;line-height:100%;writing-mode:lr-tb;text-anchor:middle;fill:#eeeeec;fill-opacity:1;stroke:none;font-family:Arial Black"
         inkscape:connector-curvature="0" />
      <path
         id="path3445"
         d="m 29.185825,15.096669 1.461505,0 0,3.813558 -1.461505,0 0,-3.813558 z"
         style="font-size:6.97270012px;font-style:normal;font-variant:normal;font-weight:normal;font-stretch:normal;text-align:center;line-height:100%;writing-mode:lr-tb;text-anchor:middle;fill:#eeeeec;fill-opacity:1;stroke:none;font-family:Arial Black"
         inkscape:connector-curvature="0" />
      <path
         id="text3436"
         d="m 31.329606,17.854497 1.450732,-0.136456 c 0.05985,0.172366 0.143635,0.295654 0.251365,0.369865 0.107725,0.07421 0.251362,0.11132 0.43091,0.111319 0.196301,1e-6 0.348317,-0.04189 0.456047,-0.125682 0.08378,-0.06224 0.12568,-0.140045 0.125683,-0.23341 -3e-6,-0.105333 -0.05506,-0.186727 -0.165183,-0.244183 -0.079,-0.0407 -0.288473,-0.09097 -0.628411,-0.150819 -0.507519,-0.08857 -0.860028,-0.170567 -1.057527,-0.245978 -0.197501,-0.07541 -0.363881,-0.202885 -0.499137,-0.382433 -0.135259,-0.179544 -0.202888,-0.384226 -0.202887,-0.614047 -1e-6,-0.251362 0.07301,-0.468014 0.219046,-0.649957 0.146029,-0.181937 0.347121,-0.317793 0.603274,-0.40757 0.256152,-0.08977 0.599683,-0.134655 1.030595,-0.134659 0.454847,4e-6 0.790598,0.03472 1.007253,0.104136 0.216649,0.06943 0.397392,0.177156 0.54223,0.323184 0.14483,0.146033 0.265125,0.343534 0.360887,0.592501 l -1.386096,0.136455 c -0.03591,-0.122089 -0.09576,-0.211861 -0.179545,-0.269318 -0.114912,-0.0766 -0.253761,-0.114907 -0.416548,-0.11491 -0.165184,3e-6 -0.28548,0.02933 -0.360888,0.08798 -0.07541,0.05865 -0.113114,0.129874 -0.113113,0.213659 -1e-6,0.09337 0.04788,0.163988 0.143637,0.211864 0.09576,0.04788 0.304029,0.09097 0.62482,0.129273 0.485968,0.05506 0.847454,0.13167 1.084458,0.229819 0.236997,0.09815 0.418338,0.2382 0.544024,0.420138 0.125679,0.181942 0.18852,0.381837 0.188524,0.599685 -4e-6,0.220244 -0.06644,0.434502 -0.199296,0.642774 -0.132868,0.208274 -0.342339,0.374055 -0.628411,0.497343 C 34.269969,18.938356 33.880355,19 33.387204,19 32.690563,19 32.194418,18.90065 31.898767,18.701953 31.603113,18.503257 31.413394,18.220771 31.329606,17.854497 l 0,0 z"
         style="font-size:6.97270012px;font-style:normal;font-variant:normal;font-weight:normal;font-stretch:normal;text-align:center;line-height:100%;writing-mode:lr-tb;text-anchor:middle;fill:#eeeeec;fill-opacity:1;stroke:none;font-family:Arial Black"
         inkscape:connector-curvature="0" />
    </g>
    <path
       style="fill:none;stroke:#000000;stroke-width:1.79999995;stroke-linecap:butt;stroke-linejoin:miter;stroke-miterlimit:4;stroke-opacity:1;stroke-dasharray:1.80000001, 1.80000001;stroke-dashoffset:0"
       d="M 17.138977,43.747028 43.704917,36.47575"
       id="path3494"
       sodipodi:nodetypes="cc"
       inkscape:connector-curvature="0" />
    <path
       style="color:#000000;fill:none;stroke:#90b4db;stroke-width:0.99999988;stroke-linecap:butt;stroke-linejoin:miter;stroke-miterlimit:4;stroke-opacity:1;stroke-dasharray:none;stroke-dashoffset:0;marker:none;visibility:visible;display:inline;overflow:visible;enable-background:accumulate"
       d="m 13.229867,34.66339 -2.280278,-8.284029 c -0.391388,-1.455473 0.14019,-2.853261 1.191879,-3.134057 l 25.532143,-6.921673 c 1.051689,-0.280795 2.213444,0.664884 2.604832,2.120356 l 2.326518,8.455985"
       id="path3552"
       sodipodi:nodetypes="cccccc"
       inkscape:connector-curvature="0" />
    <path
       style="color:#000000;fill:none;stroke:#ffffff;stroke-width:0.99999988;stroke-linecap:butt;stroke-linejoin:miter;stroke-miterlimit:4;stroke-opacity:1;stroke-dasharray:none;stroke-dashoffset:0;marker:none;visibility:visible;display:inline;overflow:visible;enable-background:accumulate"
       d="m 42.60856,27.105932 2.621531,9.306717 c 0.391388,1.455474 -0.310817,2.285102 -1.362506,2.565898 L 18.335443,45.90022 c -1.051689,0.280795 -2.213444,-0.664884 -2.604833,-2.120357 l -2.440269,-9.024145"
       id="path3556"
       sodipodi:nodetypes="cccccc"
       inkscape:connector-curvature="0" />
  </g>
</svg>
