<?xml version="1.0" encoding="UTF-8" standalone="no"?>
<!-- Created with Inkscape (http://www.inkscape.org/) -->
<svg
   xmlns:a="http://ns.adobe.com/AdobeSVGViewerExtensions/3.0/"
   xmlns:i="http://ns.adobe.com/AdobeIllustrator/10.0/"
   xmlns:dc="http://purl.org/dc/elements/1.1/"
   xmlns:cc="http://web.resource.org/cc/"
   xmlns:rdf="http://www.w3.org/1999/02/22-rdf-syntax-ns#"
   xmlns:svg="http://www.w3.org/2000/svg"
   xmlns="http://www.w3.org/2000/svg"
   xmlns:sodipodi="http://sodipodi.sourceforge.net/DTD/sodipodi-0.dtd"
   xmlns:inkscape="http://www.inkscape.org/namespaces/inkscape"
   width="48px"
   height="48px"
   id="svg6850"
   sodipodi:version="0.32"
   inkscape:version="0.44.1"
   sodipodi:docbase="e:\dev_clean\src\houdini\support\icons\sop"
   sodipodi:docname="isooffset.svg">
  <defs
     id="defs6852">
    <radialGradient
       gradientUnits="userSpaceOnUse"
       fy="405.9404"
       fx="9.8291"
       r="24.8763"
       cy="405.9404"
       cx="9.8291"
       id="XMLID_118_">
				<stop
   id="stop4421"
   style="stop-color:#FFFFFF"
   offset="0" />

				<stop
   id="stop4423"
   style="stop-color:#8794A0"
   offset="1" />

				<a:midPointStop
   style="stop-color:#FFFFFF"
   offset="0" />

				<a:midPointStop
   style="stop-color:#FFFFFF"
   offset="0.5" />

				<a:midPointStop
   style="stop-color:#8794A0"
   offset="1" />

			</radialGradient>
    <radialGradient
       gradientUnits="userSpaceOnUse"
       fy="431.1846"
       fx="40.6997"
       r="42.0607"
       cy="431.1846"
       cx="40.6997"
       id="XMLID_119_">
				<stop
   id="stop4428"
   style="stop-color:#FFFFFF"
   offset="0" />

				<stop
   id="stop4430"
   style="stop-color:#8794A0"
   offset="1" />

				<a:midPointStop
   style="stop-color:#FFFFFF"
   offset="0" />

				<a:midPointStop
   style="stop-color:#FFFFFF"
   offset="0.5" />

				<a:midPointStop
   style="stop-color:#8794A0"
   offset="1" />

			</radialGradient>
    <linearGradient
       y2="395.576"
       x2="22.6852"
       y1="396.1484"
       x1="24.0063"
       gradientUnits="userSpaceOnUse"
       id="XMLID_120_"
       gradientTransform="matrix(1.032323,0,0,1.032342,-0.795409,-397.4384)">
				<stop
   id="stop4445"
   style="stop-color:#626873"
   offset="0.1292" />

				<stop
   id="stop4447"
   style="stop-color:#626873"
   offset="0.8721" />

				<stop
   id="stop4449"
   style="stop-color:#626873"
   offset="1" />

				<a:midPointStop
   style="stop-color:#626873"
   offset="0.1292" />

				<a:midPointStop
   style="stop-color:#626873"
   offset="0.8323" />

				<a:midPointStop
   style="stop-color:#626873"
   offset="1" />

			</linearGradient>
    <linearGradient
       y2="399.6497"
       x2="14.0863"
       y1="390.5049"
       x1="14.6904"
       gradientUnits="userSpaceOnUse"
       id="XMLID_121_"
       gradientTransform="matrix(1.032323,0,0,1.032342,-0.795409,-397.4384)">
				<stop
   id="stop4454"
   style="stop-color:#9098A0"
   offset="0" />

				<stop
   id="stop4456"
   style="stop-color:#737B87"
   offset="0.1292" />

				<stop
   id="stop4458"
   style="stop-color:#737B87"
   offset="0.2697" />

				<stop
   id="stop4460"
   style="stop-color:#C2C8CC"
   offset="0.4157" />

				<stop
   id="stop4462"
   style="stop-color:#C2C8CC"
   offset="0.4719" />

				<stop
   id="stop4464"
   style="stop-color:#737B87"
   offset="0.5955" />

				<a:midPointStop
   style="stop-color:#9098A0"
   offset="0" />

				<a:midPointStop
   style="stop-color:#9098A0"
   offset="0.5" />

				<a:midPointStop
   style="stop-color:#737B87"
   offset="0.1292" />

				<a:midPointStop
   style="stop-color:#737B87"
   offset="0.5" />

				<a:midPointStop
   style="stop-color:#737B87"
   offset="0.2697" />

				<a:midPointStop
   style="stop-color:#737B87"
   offset="0.5" />

				<a:midPointStop
   style="stop-color:#C2C8CC"
   offset="0.4157" />

				<a:midPointStop
   style="stop-color:#C2C8CC"
   offset="0.5" />

				<a:midPointStop
   style="stop-color:#C2C8CC"
   offset="0.4719" />

				<a:midPointStop
   style="stop-color:#C2C8CC"
   offset="0.5" />

				<a:midPointStop
   style="stop-color:#737B87"
   offset="0.5955" />

			</linearGradient>
    <radialGradient
       gradientUnits="userSpaceOnUse"
       fy="432.582"
       fx="27.979"
       r="35.8324"
       cy="432.582"
       cx="27.979"
       id="XMLID_122_">
				<stop
   id="stop4471"
   style="stop-color:#FFFFFF"
   offset="0" />

				<stop
   id="stop4473"
   style="stop-color:#8794A0"
   offset="1" />

				<a:midPointStop
   style="stop-color:#FFFFFF"
   offset="0" />

				<a:midPointStop
   style="stop-color:#FFFFFF"
   offset="0.5" />

				<a:midPointStop
   style="stop-color:#8794A0"
   offset="1" />

			</radialGradient>
    <radialGradient
       gradientUnits="userSpaceOnUse"
       fy="408.5596"
       fx="18.814"
       r="9.982"
       cy="408.5596"
       cx="18.814"
       id="XMLID_123_">
				<stop
   id="stop4480"
   style="stop-color:#8794A0"
   offset="0" />

				<stop
   id="stop4482"
   style="stop-color:#41474C"
   offset="1" />

				<a:midPointStop
   style="stop-color:#8794A0"
   offset="0" />

				<a:midPointStop
   style="stop-color:#8794A0"
   offset="0.5" />

				<a:midPointStop
   style="stop-color:#41474C"
   offset="1" />

			</radialGradient>
    <linearGradient
       y2="410.6336"
       x2="44.7386"
       y1="409.9756"
       x1="39.9688"
       gradientUnits="userSpaceOnUse"
       id="XMLID_124_"
       gradientTransform="matrix(1.032323,0,0,1.032342,-0.795409,-397.4384)">
				<stop
   id="stop4493"
   style="stop-color:#737B87"
   offset="0" />

				<stop
   id="stop4495"
   style="stop-color:#757D89"
   offset="0.0475" />

				<stop
   id="stop4497"
   style="stop-color:#89919A"
   offset="0.6148" />

				<stop
   id="stop4499"
   style="stop-color:#9098A0"
   offset="1" />

				<a:midPointStop
   style="stop-color:#737B87"
   offset="0" />

				<a:midPointStop
   style="stop-color:#737B87"
   offset="0.377" />

				<a:midPointStop
   style="stop-color:#9098A0"
   offset="1" />

			</linearGradient>
    <radialGradient
       gradientUnits="userSpaceOnUse"
       fy="415.3857"
       fx="10.333"
       r="11.2344"
       cy="415.3857"
       cx="10.333"
       id="XMLID_125_"
       gradientTransform="matrix(1.032323,0,0,1.032342,-0.795409,-397.4384)">
				<stop
   id="stop4504"
   style="stop-color:#B9BFC3"
   offset="0" />

				<stop
   id="stop4506"
   style="stop-color:#747B83"
   offset="0.4635" />

				<stop
   id="stop4508"
   style="stop-color:#626973"
   offset="0.5787" />

				<stop
   id="stop4510"
   style="stop-color:#51575F"
   offset="0.7632" />

				<stop
   id="stop4512"
   style="stop-color:#373B40"
   offset="1" />

				<a:midPointStop
   style="stop-color:#B9BFC3"
   offset="0" />

				<a:midPointStop
   style="stop-color:#B9BFC3"
   offset="0.5135" />

				<a:midPointStop
   style="stop-color:#626973"
   offset="0.5787" />

				<a:midPointStop
   style="stop-color:#626973"
   offset="0.5467" />

				<a:midPointStop
   style="stop-color:#373B40"
   offset="1" />

			</radialGradient>
    <linearGradient
       y2="403.43"
       x2="30.8287"
       y1="414.9912"
       x1="29.9663"
       gradientUnits="userSpaceOnUse"
       id="XMLID_126_"
       gradientTransform="matrix(1.032323,0,0,1.032342,-0.795409,-397.4384)">
				<stop
   id="stop4517"
   style="stop-color:#A1AAB3"
   offset="0.3146" />

				<stop
   id="stop4519"
   style="stop-color:#A5AEB7"
   offset="0.4116" />

				<stop
   id="stop4521"
   style="stop-color:#B2BBC2"
   offset="0.5167" />

				<stop
   id="stop4523"
   style="stop-color:#C8CFD5"
   offset="0.6251" />

				<stop
   id="stop4525"
   style="stop-color:#CDD4D9"
   offset="0.6461" />

				<stop
   id="stop4527"
   style="stop-color:#CDD4D9"
   offset="0.6966" />

				<stop
   id="stop4529"
   style="stop-color:#A1AAB3"
   offset="0.809" />

				<stop
   id="stop4531"
   style="stop-color:#BAC2C9"
   offset="1" />

				<a:midPointStop
   style="stop-color:#A1AAB3"
   offset="0.3146" />

				<a:midPointStop
   style="stop-color:#A1AAB3"
   offset="0.6909" />

				<a:midPointStop
   style="stop-color:#CDD4D9"
   offset="0.6461" />

				<a:midPointStop
   style="stop-color:#CDD4D9"
   offset="0.5" />

				<a:midPointStop
   style="stop-color:#CDD4D9"
   offset="0.6966" />

				<a:midPointStop
   style="stop-color:#CDD4D9"
   offset="0.5" />

				<a:midPointStop
   style="stop-color:#A1AAB3"
   offset="0.809" />

				<a:midPointStop
   style="stop-color:#A1AAB3"
   offset="0.5" />

				<a:midPointStop
   style="stop-color:#BAC2C9"
   offset="1" />

			</linearGradient>
    <radialGradient
       gradientUnits="userSpaceOnUse"
       fy="416.5791"
       fx="28.2212"
       r="11.6036"
       cy="416.5791"
       cx="28.2212"
       id="XMLID_127_"
       gradientTransform="matrix(1.032323,0,0,1.032342,-0.795409,-397.4384)">
				<stop
   id="stop4536"
   style="stop-color:#B9BFC3"
   offset="0" />

				<stop
   id="stop4538"
   style="stop-color:#747B83"
   offset="0.4635" />

				<stop
   id="stop4540"
   style="stop-color:#626973"
   offset="0.5787" />

				<stop
   id="stop4542"
   style="stop-color:#51575F"
   offset="0.7632" />

				<stop
   id="stop4544"
   style="stop-color:#373B40"
   offset="1" />

				<a:midPointStop
   style="stop-color:#B9BFC3"
   offset="0" />

				<a:midPointStop
   style="stop-color:#B9BFC3"
   offset="0.5135" />

				<a:midPointStop
   style="stop-color:#626973"
   offset="0.5787" />

				<a:midPointStop
   style="stop-color:#626973"
   offset="0.5467" />

				<a:midPointStop
   style="stop-color:#373B40"
   offset="1" />

			</radialGradient>
    <linearGradient
       y2="418.62061"
       x2="12.4996"
       y1="423.90231"
       x1="15.9922"
       gradientUnits="userSpaceOnUse"
       id="XMLID_128_">
					<stop
   id="stop4555"
   style="stop-color:#4B5159"
   offset="0" />

					<stop
   id="stop4557"
   style="stop-color:#5C636D"
   offset="0.4791" />

					<stop
   id="stop4559"
   style="stop-color:#737B87"
   offset="1" />

					<a:midPointStop
   style="stop-color:#4B5159"
   offset="0" />

					<a:midPointStop
   style="stop-color:#4B5159"
   offset="0.5467" />

					<a:midPointStop
   style="stop-color:#737B87"
   offset="1" />

				</linearGradient>
    <linearGradient
       y2="419.1232"
       x2="28.57"
       y1="425.76859"
       x1="35.215302"
       gradientUnits="userSpaceOnUse"
       id="XMLID_129_">
					<stop
   id="stop4568"
   style="stop-color:#4B5159"
   offset="0" />

					<stop
   id="stop4570"
   style="stop-color:#5C636D"
   offset="0.4791" />

					<stop
   id="stop4572"
   style="stop-color:#737B87"
   offset="1" />

					<a:midPointStop
   style="stop-color:#4B5159"
   offset="0" />

					<a:midPointStop
   style="stop-color:#4B5159"
   offset="0.5467" />

					<a:midPointStop
   style="stop-color:#737B87"
   offset="1" />

				</linearGradient>
    <radialGradient
       gradientUnits="userSpaceOnUse"
       fy="398.709"
       fx="15.7563"
       r="36.0003"
       cy="398.709"
       cx="15.7563"
       id="XMLID_130_"
       gradientTransform="matrix(1.032323,0,0,1.032342,-0.795409,-397.4384)">
				<stop
   id="stop4579"
   style="stop-color:#FFFFFF"
   offset="0" />

				<stop
   id="stop4581"
   style="stop-color:#EBF6FF"
   offset="0.2828" />

				<stop
   id="stop4583"
   style="stop-color:#BFE2FF"
   offset="0.7865" />

				<a:midPointStop
   style="stop-color:#FFFFFF"
   offset="0" />

				<a:midPointStop
   style="stop-color:#FFFFFF"
   offset="0.5467" />

				<a:midPointStop
   style="stop-color:#BFE2FF"
   offset="0.7865" />

			</radialGradient>
    <radialGradient
       gradientUnits="userSpaceOnUse"
       fy="394.2793"
       fx="10.3638"
       r="80.554901"
       cy="394.2793"
       cx="10.3638"
       id="XMLID_131_">
					<stop
   id="stop4590"
   style="stop-color:#FFFFFF"
   offset="0" />

					<stop
   id="stop4592"
   style="stop-color:#EBF6FF"
   offset="0.4381" />

					<stop
   id="stop4594"
   style="stop-color:#CCE8FF"
   offset="1" />

					<a:midPointStop
   style="stop-color:#FFFFFF"
   offset="0" />

					<a:midPointStop
   style="stop-color:#FFFFFF"
   offset="0.5467" />

					<a:midPointStop
   style="stop-color:#CCE8FF"
   offset="1" />

				</radialGradient>
    <linearGradient
       y2="401.3047"
       x2="37.8237"
       y1="401.3047"
       x1="32.0308"
       gradientUnits="userSpaceOnUse"
       id="XMLID_132_"
       gradientTransform="matrix(1.032323,0,0,1.032342,-0.795409,-397.4384)">
				<stop
   id="stop4607"
   style="stop-color:#9098A0"
   offset="0" />

				<stop
   id="stop4609"
   style="stop-color:#737B87"
   offset="0.1292" />

				<stop
   id="stop4611"
   style="stop-color:#737B87"
   offset="0.2697" />

				<stop
   id="stop4613"
   style="stop-color:#C2C8CC"
   offset="0.4045" />

				<stop
   id="stop4615"
   style="stop-color:#C2C8CC"
   offset="0.4719" />

				<stop
   id="stop4617"
   style="stop-color:#737B87"
   offset="0.5955" />

				<a:midPointStop
   style="stop-color:#9098A0"
   offset="0" />

				<a:midPointStop
   style="stop-color:#9098A0"
   offset="0.5" />

				<a:midPointStop
   style="stop-color:#737B87"
   offset="0.1292" />

				<a:midPointStop
   style="stop-color:#737B87"
   offset="0.5" />

				<a:midPointStop
   style="stop-color:#737B87"
   offset="0.2697" />

				<a:midPointStop
   style="stop-color:#737B87"
   offset="0.5" />

				<a:midPointStop
   style="stop-color:#C2C8CC"
   offset="0.4045" />

				<a:midPointStop
   style="stop-color:#C2C8CC"
   offset="0.5" />

				<a:midPointStop
   style="stop-color:#C2C8CC"
   offset="0.4719" />

				<a:midPointStop
   style="stop-color:#C2C8CC"
   offset="0.5" />

				<a:midPointStop
   style="stop-color:#737B87"
   offset="0.5955" />

			</linearGradient>
    <linearGradient
       y2="401.6777"
       x2="29.8443"
       y1="401.6777"
       x1="24.5986"
       gradientUnits="userSpaceOnUse"
       id="XMLID_133_"
       gradientTransform="matrix(1.032323,0,0,1.032342,-0.795409,-397.4384)">
				<stop
   id="stop4622"
   style="stop-color:#9098A0"
   offset="0" />

				<stop
   id="stop4624"
   style="stop-color:#737B87"
   offset="0.1292" />

				<stop
   id="stop4626"
   style="stop-color:#737B87"
   offset="0.2697" />

				<stop
   id="stop4628"
   style="stop-color:#C2C8CC"
   offset="0.4045" />

				<stop
   id="stop4630"
   style="stop-color:#C2C8CC"
   offset="0.4719" />

				<stop
   id="stop4632"
   style="stop-color:#737B87"
   offset="0.5955" />

				<a:midPointStop
   style="stop-color:#9098A0"
   offset="0" />

				<a:midPointStop
   style="stop-color:#9098A0"
   offset="0.5" />

				<a:midPointStop
   style="stop-color:#737B87"
   offset="0.1292" />

				<a:midPointStop
   style="stop-color:#737B87"
   offset="0.5" />

				<a:midPointStop
   style="stop-color:#737B87"
   offset="0.2697" />

				<a:midPointStop
   style="stop-color:#737B87"
   offset="0.5" />

				<a:midPointStop
   style="stop-color:#C2C8CC"
   offset="0.4045" />

				<a:midPointStop
   style="stop-color:#C2C8CC"
   offset="0.5" />

				<a:midPointStop
   style="stop-color:#C2C8CC"
   offset="0.4719" />

				<a:midPointStop
   style="stop-color:#C2C8CC"
   offset="0.5" />

				<a:midPointStop
   style="stop-color:#737B87"
   offset="0.5955" />

			</linearGradient>
    <radialGradient
       gradientUnits="userSpaceOnUse"
       fy="392.7148"
       fx="35.0488"
       r="4.3226"
       cy="392.7148"
       cx="35.0488"
       id="XMLID_134_"
       gradientTransform="matrix(1.032323,0,0,1.032342,-0.795409,-397.4384)">
				<stop
   id="stop4637"
   style="stop-color:#575D66"
   offset="0" />

				<stop
   id="stop4639"
   style="stop-color:#575D66"
   offset="0.4213" />

				<stop
   id="stop4641"
   style="stop-color:#626872"
   offset="0.6863" />

				<stop
   id="stop4643"
   style="stop-color:#737B87"
   offset="1" />

				<a:midPointStop
   style="stop-color:#575D66"
   offset="0" />

				<a:midPointStop
   style="stop-color:#575D66"
   offset="0.5135" />

				<a:midPointStop
   style="stop-color:#575D66"
   offset="0.4213" />

				<a:midPointStop
   style="stop-color:#575D66"
   offset="0.5728" />

				<a:midPointStop
   style="stop-color:#737B87"
   offset="1" />

			</radialGradient>
    <radialGradient
       gradientUnits="userSpaceOnUse"
       fy="396.293"
       fx="27.5015"
       r="2.3314"
       cy="396.293"
       cx="27.5015"
       id="XMLID_135_"
       gradientTransform="matrix(1.032323,0,0,1.032342,-0.795409,-397.4384)">
				<stop
   id="stop4648"
   style="stop-color:#575D66"
   offset="0" />

				<stop
   id="stop4650"
   style="stop-color:#575D66"
   offset="0.4213" />

				<stop
   id="stop4652"
   style="stop-color:#626872"
   offset="0.6863" />

				<stop
   id="stop4654"
   style="stop-color:#737B87"
   offset="1" />

				<a:midPointStop
   style="stop-color:#575D66"
   offset="0" />

				<a:midPointStop
   style="stop-color:#575D66"
   offset="0.5135" />

				<a:midPointStop
   style="stop-color:#575D66"
   offset="0.4213" />

				<a:midPointStop
   style="stop-color:#575D66"
   offset="0.5728" />

				<a:midPointStop
   style="stop-color:#737B87"
   offset="1" />

			</radialGradient>
    <radialGradient
       gradientUnits="userSpaceOnUse"
       gradientTransform="matrix(0.6427,0,0,0.6131,1037.28,1022.701)"
       fy="-1022.3989"
       fx="-1571.1196"
       r="2.0665"
       cy="-1022.3989"
       cx="-1571.1196"
       id="XMLID_136_">
				<stop
   id="stop4663"
   style="stop-color:#F5F8FA"
   offset="0.0056" />

				<stop
   id="stop4665"
   style="stop-color:#F5F8FA"
   offset="0.1517" />

				<stop
   id="stop4667"
   style="stop-color:#B0B6BD"
   offset="0.6128" />

				<stop
   id="stop4669"
   style="stop-color:#737B87"
   offset="1" />

				<a:midPointStop
   style="stop-color:#F5F8FA"
   offset="0.0056" />

				<a:midPointStop
   style="stop-color:#F5F8FA"
   offset="0.5135" />

				<a:midPointStop
   style="stop-color:#F5F8FA"
   offset="0.1517" />

				<a:midPointStop
   style="stop-color:#F5F8FA"
   offset="0.5135" />

				<a:midPointStop
   style="stop-color:#737B87"
   offset="1" />

			</radialGradient>
    <radialGradient
       gradientUnits="userSpaceOnUse"
       gradientTransform="matrix(0.6427,0,0,0.6131,1037.28,1022.701)"
       fy="-1028.6475"
       fx="-1559.4092"
       r="3.1157"
       cy="-1028.6475"
       cx="-1559.4092"
       id="XMLID_137_">
				<stop
   id="stop4674"
   style="stop-color:#F5F8FA"
   offset="0.0056" />

				<stop
   id="stop4676"
   style="stop-color:#F5F8FA"
   offset="0.1517" />

				<stop
   id="stop4678"
   style="stop-color:#B0B6BD"
   offset="0.6128" />

				<stop
   id="stop4680"
   style="stop-color:#737B87"
   offset="1" />

				<a:midPointStop
   style="stop-color:#F5F8FA"
   offset="0.0056" />

				<a:midPointStop
   style="stop-color:#F5F8FA"
   offset="0.5135" />

				<a:midPointStop
   style="stop-color:#F5F8FA"
   offset="0.1517" />

				<a:midPointStop
   style="stop-color:#F5F8FA"
   offset="0.5135" />

				<a:midPointStop
   style="stop-color:#737B87"
   offset="1" />

			</radialGradient>
  </defs>
  <sodipodi:namedview
     id="base"
     pagecolor="#ffffff"
     bordercolor="#666666"
     borderopacity="1.0"
     inkscape:pageopacity="0.0"
     inkscape:pageshadow="2"
     inkscape:zoom="7"
     inkscape:cx="24"
     inkscape:cy="24"
     inkscape:current-layer="layer1"
     showgrid="true"
     inkscape:grid-bbox="true"
     inkscape:document-units="px"
     inkscape:window-width="853"
     inkscape:window-height="573"
     inkscape:window-x="194"
     inkscape:window-y="222" />
  <metadata
     id="metadata6855">
    <rdf:RDF>
      <cc:Work
         rdf:about="">
        <dc:format>image/svg+xml</dc:format>
        <dc:type
           rdf:resource="http://purl.org/dc/dcmitype/StillImage" />
      </cc:Work>
    </rdf:RDF>
  </metadata>
  <g
     id="layer1"
     inkscape:label="Layer 1"
     inkscape:groupmode="layer">
    <path
       style="opacity:1;fill:url(#XMLID_130_);stroke:#3065a0;stroke-width:0.99999982"
       id="path4585"
       d="M 5.0454713,1.7651569 C 7.4187818,1.2944092 22.272877,2.3535918 24.412882,2.8501483 C 26.055308,3.2310825 26.445526,7.7052527 26.445526,7.7052527 C 26.481658,8.3514988 28.742445,8.3514988 28.992267,7.5256252 C 29.923422,4.4657636 33.453967,3.3900632 36.698558,3.3900632 C 39.76559,3.3900632 43.753454,5.3917743 43.870106,8.635393 C 43.988823,11.879012 41.524668,12.41583 41.357432,13.192151 C 41.19226,13.968472 41.219101,16.413058 41.633062,16.82393 C 42.043927,17.234802 44.126122,17.076854 44.855975,17.989444 C 45.676671,19.018689 45.440269,24.452938 45.882104,24.980464 C 46.322906,25.509023 46.910297,25.526573 47.390328,26.348317 C 47.870358,27.172126 47.594728,35.942904 47.594728,35.942904 C 47.594728,35.942904 46.052437,43.511003 44.991209,44.099438 C 43.928949,44.687873 40.52125,43.669984 39.712941,44.373009 C 36.012063,47.593916 30.19802,48.520959 25.734256,42.932892 C 25.252161,42.327939 20.801816,41.836544 20.047188,42.386783 C 18.046546,43.841353 14.997064,44.929441 12.16437,44.716779 C 9.4245854,44.51031 7.2308991,43.208527 5.7247398,40.484176 C 5.2250955,39.578813 2.5214415,40.211638 1.8163649,39.370279 C 1.1112883,38.527888 1.2991711,30.145271 1.474666,29.432955 C 1.6491286,28.719607 2.5297001,27.022437 2.6907425,26.427808 C 2.8497202,25.833179 2.9230152,16.942649 2.5802839,16.451255 C 2.2375527,15.95986 1.3580135,15.92476 0.92443788,15.679063 C 0.32775522,15.344584 0.40930874,2.6829089 5.0454713,1.7651569 z "
       a:adobe-blending-mode="darken"
       i:knockout="Off" />
    <polyline
       transform="matrix(1.032323,0,0,1.032342,-0.795409,-397.4384)"
       style="fill:url(#XMLID_118_)"
       id="polyline4425"
       points="42.909,411.276 8.603,408.168 6.265,414.034 41.016,417.458      42.909,411.276 "
       i:knockout="Off" />
    <polygon
       transform="matrix(1.032323,0,0,1.032342,-0.795409,-397.4384)"
       style="fill:url(#XMLID_119_)"
       id="polygon4432"
       points="41.2,424.021 6.069,420.091 6.257,413.749 41.016,417.458 41.2,424.021 "
       i:knockout="Off" />
    <polygon
       transform="matrix(1.032323,0,0,1.032342,-0.795409,-397.4384)"
       style="fill:#9098a0"
       id="polygon4434"
       points="42.785,418.441 41.2,424.021 41.016,417.458 42.909,411.276 42.785,418.441 "
       i:knockout="Off" />
    <g
       transform="matrix(1.032323,0,0,1.032342,-0.795409,-397.4384)"
       id="g4436">
				<line
   style="fill:none;stroke:#ced3d9;stroke-width:0.77494401"
   id="line4438"
   y2="417.45801"
   x2="41.015999"
   y1="413.74899"
   x1="6.257"
   i:knockout="Off" />

				<line
   style="fill:none;stroke:#717880;stroke-width:0.77494401"
   id="line4440"
   y2="411.276"
   x2="42.909"
   y1="417.45801"
   x1="41.015999"
   i:knockout="Off" />

				<line
   style="fill:none;stroke:#717880;stroke-width:0.77494401"
   id="line4442"
   y2="424.021"
   x2="41.200001"
   y1="417.45801"
   x1="41.015999"
   i:knockout="Off" />

			</g>
    <path
       style="fill:url(#XMLID_120_)"
       id="path4451"
       d="M 24.158939,9.6759946 L 22.092228,15.492209 C 22.092228,15.309485 22.091195,15.12676 22.091195,14.9461 C 22.091195,10.240686 22.608389,6.4282461 23.250494,6.4282461 C 23.619034,6.4282461 23.947313,7.695962 24.158939,9.6759946 z "
       i:knockout="Off" />
    <path
       style="fill:url(#XMLID_121_)"
       id="path4466"
       d="M 22.092228,15.492209 C 22.092228,15.309485 22.091195,15.12676 22.091195,14.9461 C 22.091195,10.240686 22.608389,6.4282461 23.250494,6.4282461 L 6.9810792,5.5032676 C 5.8610084,5.5032676 4.9556608,9.310545 4.9556608,14.295725 L 22.092228,15.492209 z "
       i:knockout="Off" />
    <polygon
       transform="matrix(1.032323,0,0,1.032342,-0.795409,-397.4384)"
       style="fill:none;stroke:#575c66;stroke-width:0.67807597"
       id="polygon4468"
       points="6.257,413.749 8.603,408.168 42.909,411.276 42.785,418.441 41.2,424.021 6.069,420.091 6.257,413.749 "
       i:knockout="Off" />
    <polygon
       transform="matrix(1.032323,0,0,1.032342,-0.795409,-397.4384)"
       style="fill:url(#XMLID_122_)"
       id="polygon4475"
       points="20.147,414.711 7.146,413.431 7.21,398.973 20.527,399.878 20.147,414.711 "
       i:knockout="Off" />
    <polygon
       transform="matrix(1.032323,0,0,1.032342,-0.795409,-397.4384)"
       style="fill:#7f858c"
       id="polygon4477"
       points="20.147,414.711 21.544,410.006 21.668,399.957 20.527,399.878 20.147,414.711 "
       i:knockout="Off" />
    <polygon
       transform="matrix(1.032323,0,0,1.032342,-0.795409,-397.4384)"
       style="fill:url(#XMLID_123_)"
       id="polygon4484"
       points="11.076,399.219 11.076,404.133 16.345,404.394 16.345,399.683 11.076,399.219 "
       i:knockout="Off" />
    <polyline
       transform="matrix(1.032323,0,0,1.032342,-0.795409,-397.4384)"
       style="fill:none;stroke:#a8b1bf;stroke-width:0.67807597"
       id="polyline4486"
       points="16.345,399.683 16.345,404.394      11.076,404.133 11.076,399.219 "
       i:knockout="Off" />
    <line
       style="fill:none;stroke:#7f858c;stroke-width:0.99999982"
       id="line4488"
       y2="15.51699"
       x2="20.390953"
       y1="30.685186"
       x1="20.0028"
       i:knockout="Off" />
    <polyline
       transform="matrix(1.032323,0,0,1.032342,-0.795409,-397.4384)"
       style="fill:none;stroke:#575c66;stroke-width:0.67807597"
       id="polyline4490"
       points="21.544,410.006 21.668,399.957      7.21,398.973 7.146,413.431 20.147,414.711 "
       i:knockout="Off" />
    <path
       style="fill:url(#XMLID_124_)"
       id="path4501"
       d="M 40.400482,26.654923 C 40.388094,26.13772 40.384997,25.588514 40.39945,25.022791 C 40.466551,21.999061 40.920773,19.609189 41.411127,19.680421 C 41.79928,19.7372 41.849864,22.186947 41.849864,24.401321 L 41.849864,28.21376 L 40.494423,32.047878 L 40.400482,26.654923 z "
       i:knockout="Off" />
    <path
       style="fill:url(#XMLID_125_)"
       id="path4514"
       d="M 19.366894,36.081238 C 19.461868,38.837591 17.008035,41.069515 13.881128,41.069515 C 10.756285,41.069515 8.1414107,38.837591 8.0464369,36.081238 L 8.0464369,35.387504 C 7.9514632,32.632184 10.40736,30.398196 13.532202,30.398196 C 16.658077,30.398196 19.27192,32.632184 19.366894,35.387504 L 19.366894,36.081238 z "
       i:knockout="Off" />
    <path
       style="fill:url(#XMLID_126_)"
       id="path4533"
       d="M 40.400482,26.654923 C 40.388094,26.13772 40.384997,25.588514 40.39945,25.022791 C 40.466551,21.999061 40.920773,19.609189 41.411127,19.680421 L 21.477995,18.224819 C 20.883377,18.269209 20.370312,20.410287 20.315599,23.262648 C 20.305276,23.815983 20.142169,29.63323 20.16488,30.138045 L 40.492359,32.04891 L 40.400482,26.654923 z "
       i:knockout="Off" />
    <path
       style="fill:url(#XMLID_127_)"
       id="path4546"
       d="M 38.014783,37.838284 C 38.114918,40.652449 35.606372,42.933924 32.413396,42.933924 C 29.221453,42.933924 26.553929,40.652449 26.455858,37.838284 L 26.455858,37.129065 C 26.356755,34.313869 28.863236,32.034458 32.057245,32.034458 C 35.249189,32.034458 37.917744,34.313869 38.014783,37.129065 L 38.014783,37.838284 z "
       i:knockout="Off" />
    <path
       style="fill:none;stroke:#575c66;stroke-width:0.69999987"
       id="path4548"
       d="M 22.09222,15.492209 L 4.9556592,14.295725 C 4.9556592,9.3105447 5.8610064,5.5032673 6.9810769,5.5032673 L 23.250487,6.4282457 C 23.617994,6.4282457 23.947305,7.696994 24.158931,9.6759936 L 22.09222,15.492209 z "
       i:knockout="Off" />
    <g
       transform="matrix(1.032323,0,0,1.032342,-0.795409,-397.4384)"
       id="g4550">
				<path
   style="fill:#40454c"
   id="path4552"
   d="M 13.667,416.688 C 11.428,416.688 9.666,418.289 9.735,420.264 C 9.804,422.239 11.675,423.84 13.918,423.84 C 16.159,423.84 17.92,422.239 17.85,420.264 C 17.78,418.288 15.908,416.688 13.667,416.688 z M 13.906,423.805 C 11.883,423.805 10.191,422.36 10.127,420.576 C 10.066,418.792 11.657,417.347 13.68,417.347 C 15.703,417.347 17.395,418.792 17.457,420.576 C 17.519,422.36 15.928,423.805 13.906,423.805 z "
   i:knockout="Off" />

				<linearGradient
   y2="418.62061"
   x2="12.4996"
   y1="423.90231"
   x1="15.9922"
   gradientUnits="userSpaceOnUse"
   id="linearGradient6980">
					<stop
   id="stop6982"
   style="stop-color:#4B5159"
   offset="0" />

					<stop
   id="stop6984"
   style="stop-color:#5C636D"
   offset="0.4791" />

					<stop
   id="stop6986"
   style="stop-color:#737B87"
   offset="1" />

					<a:midPointStop
   style="stop-color:#4B5159"
   offset="0" />

					<a:midPointStop
   style="stop-color:#4B5159"
   offset="0.5467" />

					<a:midPointStop
   style="stop-color:#737B87"
   offset="1" />

				</linearGradient>

				<circle
   sodipodi:ry="3.2309999"
   sodipodi:rx="3.2309999"
   sodipodi:cy="420.57501"
   sodipodi:cx="13.792"
   style="fill:url(#XMLID_128_)"
   id="circle4561"
   r="3.2309999"
   cy="420.57501"
   cx="13.792"
   i:knockout="Off" />
 
			</g>
    <g
       transform="matrix(1.032323,0,0,1.032342,-0.795409,-397.4384)"
       id="g4563">
				<path
   style="fill:#40454c"
   id="path4565"
   d="M 31.609,418.319 C 29.322,418.319 27.522,419.955 27.593,421.971 C 27.663,423.988 29.576,425.622 31.864,425.622 C 34.152,425.622 35.95,423.987 35.879,421.971 C 35.81,419.955 33.896,418.319 31.609,418.319 z M 31.851,425.586 C 29.787,425.586 28.058,424.112 27.995,422.289 C 27.931,420.468 29.554,418.991 31.622,418.991 C 33.688,418.991 35.414,420.468 35.478,422.289 C 35.542,424.112 33.917,425.586 31.851,425.586 z "
   i:knockout="Off" />

				<linearGradient
   y2="419.1232"
   x2="28.57"
   y1="425.76859"
   x1="35.215302"
   gradientUnits="userSpaceOnUse"
   id="linearGradient6991">
					<stop
   id="stop6993"
   style="stop-color:#4B5159"
   offset="0" />

					<stop
   id="stop6995"
   style="stop-color:#5C636D"
   offset="0.4791" />

					<stop
   id="stop6997"
   style="stop-color:#737B87"
   offset="1" />

					<a:midPointStop
   style="stop-color:#4B5159"
   offset="0" />

					<a:midPointStop
   style="stop-color:#4B5159"
   offset="0.5467" />

					<a:midPointStop
   style="stop-color:#737B87"
   offset="1" />

				</linearGradient>

				<circle
   sodipodi:ry="3.299"
   sodipodi:rx="3.299"
   sodipodi:cy="422.289"
   sodipodi:cx="31.736"
   style="fill:url(#XMLID_129_)"
   id="circle4574"
   r="3.299"
   cy="422.289"
   cx="31.736"
   i:knockout="Off" />
 
			</g>
    <g
       transform="matrix(1.032323,0,0,1.032342,-0.795409,-397.4384)"
       id="g4587">
				
					<radialGradient
   gradientUnits="userSpaceOnUse"
   fy="394.2793"
   fx="10.3638"
   r="80.554901"
   cy="394.2793"
   cx="10.3638"
   id="radialGradient7002">
					<stop
   id="stop7004"
   style="stop-color:#FFFFFF"
   offset="0" />

					<stop
   id="stop7006"
   style="stop-color:#EBF6FF"
   offset="0.4381" />

					<stop
   id="stop7008"
   style="stop-color:#CCE8FF"
   offset="1" />

					<a:midPointStop
   style="stop-color:#FFFFFF"
   offset="0" />

					<a:midPointStop
   style="stop-color:#FFFFFF"
   offset="0.5467" />

					<a:midPointStop
   style="stop-color:#CCE8FF"
   offset="1" />

				</radialGradient>

				<path
   style="fill:url(#XMLID_131_)"
   id="path4596"
   d="M 5.754,387.188 L 5.754,387.188 C 5.009,387.335 4.344,387.896 3.776,388.853 C 2.404,391.167 1.918,395.291 1.918,398.118 L 2.01,399.835 L 2.377,399.903 C 2.816,400.03 3.363,400.188 3.678,400.638 C 3.734,400.722 4.012,401.33 4.012,405.011 C 4.012,407.647 3.872,410.409 3.848,410.734 C 3.797,410.86 3.3,412.088 3.3,412.088 L 2.706,413.549 C 2.581,414.166 2.538,415.916 2.538,417.42 C 2.538,418.705 2.57,421.789 2.872,422.658 L 2.973,422.947 L 3.158,422.958 L 4.477,423.14 C 5.411,423.208 6.374,423.279 6.752,423.963 C 8.073,426.353 9.983,427.609 12.59,427.807 C 14.974,427.986 17.841,427.137 19.895,425.644 C 20.839,424.956 25.412,425.415 26.088,426.266 C 27.872,428.498 29.952,429.737 32.274,429.947 C 34.54,430.151 36.959,429.295 38.911,427.595 C 39.474,427.105 40.572,427.199 41.843,427.309 C 42.875,427.398 43.588,427.43 43.955,427.314 L 44.11,427.265 L 44.207,427.134 C 44.865,426.24 45.882,422.155 46.368,419.789 C 46.378,419.704 46.451,415.109 46.451,415.109 C 46.451,412.662 46.382,411.203 46.246,410.773 L 46.204,410.638 L 46.189,410.652 L 45.525,410.075 L 44.767,409.442 C 44.568,409.191 44.506,408.523 44.398,406.693 C 44.271,404.55 44.141,403.22 43.852,402.757 C 43.567,402.398 43.033,402.256 42.071,402.091 C 41.481,401.988 41.016,401.908 40.746,401.638 C 40.432,401.326 40.245,400.403 40.245,399.165 L 40.344,397.662 C 40.431,397.259 40.765,396.988 41.151,396.676 C 41.837,396.119 42.771,395.359 42.771,393.572 L 42.768,393.375 C 42.66,390.41 38.887,388.772 36.32,388.772 C 34.942,388.772 30.364,389.036 29.334,392.423 C 29.101,393.193 27.993,393.489 27.069,393.38 C 26.014,393.254 25.9,392.658 25.889,392.479 C 25.782,391.27 25.247,388.552 24.352,388.249 C 22.221,387.752 7.957,386.751 5.754,387.188 z M 2.918,398.117 C 2.918,395.942 3.28,391.651 4.636,389.362 C 5.053,388.66 5.494,388.258 5.949,388.169 L 5.95,388.168 C 7.944,387.772 21.921,388.766 23.978,389.193 C 24.196,389.433 24.732,390.766 24.891,392.55 C 24.931,393.274 25.495,394.198 26.949,394.371 C 28.31,394.534 29.894,394.016 30.29,392.713 C 31.12,389.983 35.115,389.771 36.319,389.771 C 38.487,389.771 41.687,391.188 41.767,393.408 C 41.767,393.41 41.77,393.571 41.77,393.571 C 41.77,394.883 41.164,395.376 40.522,395.897 C 40.078,396.257 39.527,396.704 39.366,397.453 C 39.365,397.455 39.245,399.165 39.245,399.165 C 39.245,400.752 39.513,401.822 40.04,402.346 C 40.533,402.84 41.196,402.954 41.898,403.075 C 42.565,403.19 42.96,403.289 43.073,403.369 C 43.218,403.665 43.355,405.988 43.4,406.751 C 43.523,408.831 43.59,409.58 44.064,410.147 L 44.937,410.881 C 44.982,410.914 45.24,411.11 45.306,411.161 C 45.375,411.49 45.451,412.658 45.451,415.108 L 45.378,419.671 C 44.782,422.536 43.936,425.538 43.492,426.371 C 43.295,426.392 42.908,426.395 41.931,426.31 C 40.43,426.181 39.137,426.07 38.254,426.838 C 36.506,428.359 34.359,429.128 32.363,428.947 C 30.324,428.762 28.476,427.649 26.87,425.638 C 25.858,424.368 20.697,423.818 19.306,424.831 C 17.434,426.192 14.827,426.968 12.665,426.805 C 10.421,426.636 8.772,425.546 7.627,423.476 C 6.987,422.317 5.637,422.218 4.553,422.139 C 4.549,422.138 4.069,422.085 3.767,422.051 C 3.63,421.342 3.538,419.602 3.538,417.416 C 3.538,415.513 3.601,414.145 3.66,413.824 L 4.226,412.46 C 4.68,411.338 4.797,411.049 4.828,410.933 C 4.877,410.622 5.012,407.411 5.012,405.008 C 5.012,400.801 4.653,400.283 4.498,400.063 C 4.068,399.448 3.469,399.213 2.967,399.054 C 2.95,398.719 2.918,398.117 2.918,398.117 z M 4.831,410.931 C 4.841,410.892 4.842,410.872 4.842,410.847 C 4.841,410.847 4.835,410.894 4.831,410.931 z M 4.825,410.974 C 4.825,410.974 4.828,410.951 4.831,410.931 C 4.831,410.932 4.826,410.97 4.825,410.974 z "
   i:knockout="Off" />

			</g>
    <path
       style="opacity:0.3;fill:white"
       id="path4598"
       d="M 1.5087332,14.52284 C 0.10374117,11.618862 12.332643,8.0283762 15.130239,7.0693304 C 17.074104,6.4024375 22.394698,2.7324617 24.472765,3.8060974 C 21.808339,6.1154464 18.040358,9.2795748 15.109592,11.253413 C 12.636146,12.918581 10.177152,15.203154 7.4260106,16.4048 C 5.036182,17.447465 2.6979697,16.221043 1.5087332,14.52284 z "
       i:knockout="Off" />
    <path
       style="opacity:0.3;fill:white"
       id="path4600"
       d="M 43.311634,18.835965 C 41.536038,20.123296 39.378482,24.062713 39.061559,25.958093 C 38.459714,29.546513 34.969429,31.965291 32.846972,34.964244 C 31.426495,36.971117 26.020218,39.397121 23.931828,40.54715 C 23.132809,40.988992 26.362949,41.538198 28.704259,44.059177 C 33.657346,47.571205 36.870968,44.469017 39.033686,43.594623 C 39.925613,43.233304 43.806117,42.76875 44.554551,42.167927 C 45.87799,41.104614 46.185622,36.195828 46.354923,34.693771 C 47.616422,23.527959 44.463707,27.849343 44.522549,22.436774 C 44.53184,21.617094 44.631975,19.606092 44.397638,18.825642 C 44.176721,18.091647 43.72766,17.620899 43.311634,18.835965"
       i:knockout="Off" />
    <path
       style="fill:none;stroke:#717880;stroke-width:0.79999989"
       id="path4602"
       d="M 40.49441,32.047878 L 40.400469,26.653891 C 40.388081,26.136687 40.384984,25.587481 40.399436,25.021758 C 40.466537,21.998028 40.920759,19.608157 41.411113,19.679388"
       i:knockout="Off" />
    <path
       style="fill:none;stroke:#575c66;stroke-width:0.69999987"
       id="path4604"
       d="M 41.411113,19.68042 L 21.477988,18.224818 C 20.88337,18.269209 20.370305,20.410286 20.315592,23.262647 C 20.305269,23.815983 20.142162,29.63323 20.164873,30.138045 L 40.492345,32.04891 L 41.847785,28.214792 L 41.847785,24.402353 C 41.84985,22.186947 41.799266,19.736167 41.411113,19.68042 z "
       i:knockout="Off" />
    <path
       style="fill:url(#XMLID_132_)"
       id="path4619"
       d="M 37.657599,19.71965 C 37.657599,20.724119 36.639728,21.538636 35.386488,21.538636 C 34.131182,21.538636 33.115376,20.724119 33.115376,19.71965 L 33.115376,12.151551 L 37.657599,12.151551 L 37.657599,19.71965 L 37.657599,19.71965 z "
       i:knockout="Off" />
    <path
       style="fill:url(#XMLID_133_)"
       id="path4634"
       d="M 29.825362,19.163218 C 29.825362,20.139813 28.835364,20.929555 27.615157,20.929555 C 26.394951,20.929555 25.404953,20.139813 25.404953,19.163218 L 25.407018,13.53076 L 29.824329,13.53076 L 29.824329,19.163218 L 29.825362,19.163218 z "
       i:knockout="Off" />
    <path
       style="fill:url(#XMLID_134_);stroke:#575d66;stroke-width:0.49999991"
       id="path4645"
       d="M 40.204327,9.9867286 C 40.204327,11.342194 38.04574,12.440606 35.385443,12.440606 C 32.724115,12.440606 30.567592,11.342194 30.567592,9.9867286 C 30.567592,8.2874936 32.724115,6.9103494 35.385443,6.9103494 C 38.04574,6.9103494 40.204327,8.2874936 40.204327,9.9867286 z "
       i:knockout="Off" />
    <path
       style="fill:url(#XMLID_135_);stroke:#575d66;stroke-width:0.49999991"
       id="path4656"
       d="M 30.21557,12.834961 C 30.21557,13.565859 29.051109,14.159455 27.615148,14.159455 C 26.179187,14.159455 25.015759,13.565859 25.015759,12.834961 C 25.015759,11.918241 26.179187,11.174955 27.615148,11.174955 C 29.051109,11.174955 30.21557,11.918241 30.21557,12.834961 z "
       i:knockout="Off" />
    <path
       style="fill:none;stroke:#575c66;stroke-width:0.69999987"
       id="path4658"
       d="M 37.657586,12.15155 L 37.657586,19.719649 C 37.657586,20.724118 36.639716,21.538636 35.386476,21.538636 C 34.131171,21.538636 33.115365,20.724118 33.115365,19.719649 L 33.115365,12.15155 L 33.101945,12.148453 C 31.593721,11.734484 30.568624,10.922031 30.568624,9.9867286 C 30.568624,8.2874936 32.725147,6.9103494 35.386476,6.9103494 C 38.046772,6.9103494 40.205359,8.2874936 40.205359,9.9867286 C 40.205359,10.919966 39.181295,11.731387 37.674104,12.146389 L 37.657586,12.15155 z "
       i:knockout="Off" />
    <path
       style="fill:none;stroke:#575c66;stroke-width:0.69999987"
       id="path4660"
       d="M 29.825352,13.530759 L 29.825352,19.163217 C 29.825352,20.139813 28.835354,20.929554 27.615148,20.929554 C 26.394942,20.929554 25.404945,20.139813 25.404945,19.163217 L 25.407009,13.530759 L 25.407009,13.534889 C 25.159252,13.333582 25.015759,13.090981 25.015759,12.834961 C 25.015759,11.918241 26.179187,11.174955 27.615148,11.174955 C 29.051109,11.174955 30.21557,11.919273 30.21557,12.834961 C 30.21557,13.08582 30.079303,13.322226 29.840837,13.520436 L 29.825352,13.530759 z "
       i:knockout="Off" />
    <circle
       transform="matrix(1.032323,0,0,1.032342,-0.795409,-397.4384)"
       sodipodi:ry="1.39"
       sodipodi:rx="1.39"
       sodipodi:cy="396.5"
       sodipodi:cx="27.521999"
       style="opacity:0.7;fill:url(#XMLID_136_)"
       id="circle4671"
       r="1.39"
       cy="396.5"
       cx="27.521999"
       i:knockout="Off" />
    <ellipse
       transform="matrix(1.032323,0,0,1.032342,-0.795409,-397.4384)"
       sodipodi:ry="0.95599997"
       sodipodi:rx="2.096"
       sodipodi:cy="392.98999"
       sodipodi:cx="35.048"
       style="opacity:0.7;fill:url(#XMLID_137_)"
       id="ellipse4682"
       ry="0.95599997"
       rx="2.096"
       cy="392.98999"
       cx="35.048"
       i:knockout="Off" />
    <path
       style="fill:none;stroke:#575c66;stroke-width:0.69999987"
       id="path4684"
       d="M 19.366887,36.081238 C 19.461861,38.837591 17.008029,41.069514 13.881123,41.069514 C 10.756281,41.069514 8.1414079,38.837591 8.0464342,36.081238 L 8.0464342,35.387504 C 7.9514605,32.632183 10.407356,30.398195 13.532198,30.398195 C 16.658072,30.398195 19.271914,32.632183 19.366887,35.387504 L 19.366887,36.081238 z "
       i:knockout="Off" />
    <path
       style="fill:none;stroke:#575c66;stroke-width:0.69999987"
       id="path4686"
       d="M 38.01477,37.838284 C 38.114905,40.652448 35.606361,42.933924 32.413385,42.933924 C 29.221443,42.933924 26.55392,40.652448 26.455849,37.838284 L 26.455849,37.129065 C 26.356746,34.313868 28.863227,32.034457 32.057234,32.034457 C 35.244015,32.034457 37.917732,34.313868 38.01477,37.129065 L 38.01477,37.838284 z "
       i:knockout="Off" />
  </g>
</svg>
