<?xml version="1.0" encoding="UTF-8" standalone="no"?>
<!-- Created with Inkscape (http://www.inkscape.org/) -->
<svg
   xmlns:dc="http://purl.org/dc/elements/1.1/"
   xmlns:cc="http://web.resource.org/cc/"
   xmlns:rdf="http://www.w3.org/1999/02/22-rdf-syntax-ns#"
   xmlns:svg="http://www.w3.org/2000/svg"
   xmlns="http://www.w3.org/2000/svg"
   xmlns:xlink="http://www.w3.org/1999/xlink"
   xmlns:sodipodi="http://sodipodi.sourceforge.net/DTD/sodipodi-0.dtd"
   xmlns:inkscape="http://www.inkscape.org/namespaces/inkscape"
   width="48px"
   height="48px"
   id="svg6073"
   sodipodi:version="0.32"
   inkscape:version="0.44"
   sodipodi:docbase="e:\dev_clean\src\houdini\support\icons\sop"
   sodipodi:docname="lsystem.svg">
  <defs
     id="defs6075">
    <linearGradient
       inkscape:collect="always"
       id="linearGradient7263">
      <stop
         style="stop-color:#2e3436;stop-opacity:1;"
         offset="0"
         id="stop7265" />
      <stop
         style="stop-color:#2e3436;stop-opacity:0;"
         offset="1"
         id="stop7267" />
    </linearGradient>
    <linearGradient
       id="linearGradient7097">
      <stop
         style="stop-color:#3465a4;stop-opacity:0;"
         offset="0"
         id="stop7099" />
      <stop
         id="stop7105"
         offset="0.5"
         style="stop-color:#a9c5e2;stop-opacity:1;" />
      <stop
         style="stop-color:#3465a4;stop-opacity:0;"
         offset="1"
         id="stop7101" />
    </linearGradient>
    <linearGradient
       inkscape:collect="always"
       xlink:href="#linearGradient7263"
       id="linearGradient7269"
       x1="20.380953"
       y1="47.142857"
       x2="33.619045"
       y2="36.476189"
       gradientUnits="userSpaceOnUse" />
  </defs>
  <sodipodi:namedview
     id="base"
     pagecolor="#ffffff"
     bordercolor="#666666"
     borderopacity="1.0"
     inkscape:pageopacity="0.0"
     inkscape:pageshadow="2"
     inkscape:zoom="10.5"
     inkscape:cx="26.970741"
     inkscape:cy="22.335148"
     inkscape:current-layer="layer1"
     showgrid="true"
     inkscape:grid-bbox="false"
     inkscape:document-units="px"
     inkscape:window-width="1297"
     inkscape:window-height="1088"
     inkscape:window-x="296"
     inkscape:window-y="0" />
  <metadata
     id="metadata6078">
    <rdf:RDF>
      <cc:Work
         rdf:about="">
        <dc:format>image/svg+xml</dc:format>
        <dc:type
           rdf:resource="http://purl.org/dc/dcmitype/StillImage" />
      </cc:Work>
    </rdf:RDF>
  </metadata>
  <g
     id="layer1"
     inkscape:label="Layer 1"
     inkscape:groupmode="layer">
    <path
       style="fill:url(#linearGradient7269);fill-opacity:1.0;fill-rule:evenodd;stroke:none;stroke-width:1px;stroke-linecap:butt;stroke-linejoin:miter;stroke-opacity:1"
       d="M 20.380952,45.428572 L 27.333334,42.761905 L 31.428571,34.857142 L 32.857143,35.523809 L 30,42.571429 L 42,41.333333 L 42.47619,42.666667 L 29.52381,45.142857 L 21.619048,48 L 20.380952,45.428572 z "
       id="path7261"
       sodipodi:nodetypes="cccccccccc" />
    <path
       style="fill:#183969;fill-opacity:1;fill-rule:evenodd;stroke:none;stroke-width:3;stroke-linecap:round;stroke-linejoin:miter;stroke-miterlimit:4;stroke-dasharray:none;stroke-opacity:1"
       d="M 13.40625,-0.03125 C 12.899979,0.011564168 12.4585,0.30204527 12.21875,0.75 C 11.978999,1.1979547 11.973564,1.7424973 12.21875,2.1875 L 15.0625,7.6875 L 7.875,6.0625 C 7.7314853,6.030705 7.5840768,6.0201759 7.4375,6.03125 C 6.6824591,6.0703169 6.0868084,6.6522432 6.03125,7.40625 C 5.9756915,8.1602567 6.4775897,8.8506867 7.21875,9 L 17.0625,11.21875 L 23.21875,19.1875 L 23.09375,28.28125 L 17.1875,23 L 12.78125,18.5625 L 12.0625,12.375 C 11.981114,11.596039 11.314183,11.010773 10.53125,11.03125 C 10.109679,11.045533 9.7110317,11.241397 9.4375,11.5625 C 9.1639686,11.883602 9.0408289,12.30027 9.09375,12.71875 L 9.5625,16.75 L 4.03125,14.1875 C 3.8083452,14.076579 3.5613374,14.022881 3.3125,14.03125 C 2.6144449,14.061826 2.0332128,14.562907 1.90625,15.25 C 1.7792873,15.937093 2.1402172,16.628234 2.78125,16.90625 L 10.09375,20.28125 L 13.40625,23.46875 L 7.40625,26.25 L 2.28125,23.1875 C 2.018927,23.026555 1.7134503,22.950186 1.40625,22.96875 C 0.73498189,22.999094 0.15268776,23.470624 0,24.125 C -0.15268776,24.779375 0.16148105,25.456955 0.75,25.78125 L 4.96875,28.28125 L 1.65625,31.34375 C 1.2001173,31.688958 0.9850027,32.250895 1.09375,32.8125 C 1.2024973,33.374107 1.6042282,33.850007 2.15625,34 C 2.7082718,34.149994 3.3094961,33.960597 3.6875,33.53125 L 8.09375,29.46875 C 8.144634,29.449273 8.2008352,29.431538 8.25,29.40625 C 8.4547171,29.300953 8.616499,29.145859 8.75,28.96875 L 15.71875,25.71875 L 22.96875,32.21875 L 20.03125,46.1875 C 19.858661,46.998668 20.376332,47.796161 21.1875,47.96875 C 21.998668,48.141339 22.796161,47.623668 22.96875,46.8125 L 25.78125,33.5625 L 33.375,33.96875 L 40.9375,39.09375 C 40.947369,39.103349 40.958645,39.115699 40.96875,39.125 L 41,39.125 C 41.010696,39.134504 41.02031,39.147075 41.03125,39.15625 L 45.28125,44.71875 C 45.583404,45.200861 46.121236,45.461691 46.6875,45.40625 C 47.253764,45.350811 47.76584,45.000309 47.96875,44.46875 C 48.171659,43.937191 48.041534,43.32492 47.65625,42.90625 L 44.34375,38.59375 L 47.21875,37.3125 C 47.942106,37.034055 48.335793,36.245883 48.125,35.5 C 47.914207,34.754115 47.168348,34.296143 46.40625,34.4375 C 46.265587,34.459674 46.128798,34.501763 46,34.5625 L 42.15625,36.28125 L 36.5625,32.5 L 41.5,28.625 L 46.25,29.59375 C 46.786201,29.728958 47.34633,29.565024 47.71875,29.15625 C 48.091169,28.747476 48.215671,28.146327 48.03125,27.625 C 47.846828,27.103675 47.39037,26.73991 46.84375,26.65625 L 43.46875,25.96875 L 46,20.78125 C 46.250108,20.299392 46.235649,19.734955 45.9375,19.28125 C 45.639352,18.827547 45.104043,18.55538 44.5625,18.59375 C 44.02447,18.629897 43.547236,18.95203 43.3125,19.4375 L 40.25,25.6875 C 39.95954,25.845178 39.728137,26.071745 39.59375,26.375 L 33.71875,30.96875 L 28.21875,30.65625 L 35.125,23.03125 L 35.1875,22.96875 L 43.0625,17.53125 L 47.125,15.9375 C 47.927539,15.730393 48.394607,14.927539 48.1875,14.125 C 47.980393,13.322461 47.177539,12.824143 46.375,13.03125 C 46.245034,13.056194 46.118939,13.098225 46,13.15625 L 44.03125,13.9375 L 44.25,9.5625 C 44.277822,9.1318831 44.117626,8.711377 43.8125,8.40625 C 43.507371,8.1011234 43.086867,7.9409283 42.65625,7.96875 C 41.888183,8.0163069 41.280667,8.6373237 41.25,9.40625 L 40.9375,15.375 L 35.78125,18.9375 L 36.15625,15.15625 L 39.875,6.78125 C 40.100962,6.2941772 40.059641,5.7199082 39.75,5.28125 C 39.440358,4.8425919 38.909619,4.606442 38.375,4.65625 C 37.822931,4.7042724 37.342301,5.0527292 37.125,5.5625 L 34.46875,11.53125 L 32.875,9.125 C 32.567207,8.6392579 32.008831,8.3722082 31.4375,8.4375 C 30.91379,8.4976787 30.467656,8.8323762 30.25,9.3125 C 30.032344,9.7926236 30.075111,10.347707 30.375,10.78125 L 33.15625,14.96875 L 32.53125,21.375 L 26.09375,28.53125 L 26.21875,19.03125 L 28.90625,9.65625 L 34.46875,2.5 C 34.844286,2.0342725 34.903363,1.4045691 34.625,0.875 C 34.346638,0.3454309 33.784059,0.017254472 33.1875,0.0625 C 32.754146,0.092719688 32.355169,0.30930698 32.09375,0.65625 L 28.125,5.75 L 26.90625,1.125 C 26.720201,0.3550384 25.96758,-0.13758592 25.1875,0 C 24.771351,0.072960342 24.413557,0.33056719 24.1875,0.6875 C 23.961441,1.0444327 23.888081,1.467597 24,1.875 L 25.90625,9.1875 L 24.125,15.4375 L 19.125,8.96875 L 19.03125,8.84375 L 14.875,0.8125 C 14.606219,0.25531405 14.022973,-0.079742251 13.40625,-0.03125 z "
       id="path6966"
       sodipodi:nodetypes="cscccsscccccccsscccsscccccsscccssccsccccsccccccccsscccsscccccsscccsscccccccccsscccsscccccsscccsscccccccsscccssccccccc" />
    <g
       id="g7191"
       transform="translate(-0.285714,-0.285714)">
      <path
         sodipodi:nodetypes="ccccc"
         id="path7159"
         d="M 21.539685,46.5 L 24.603175,32.007937 L 24.761905,18.674603 L 17.968254,9.8968255 L 7.5714282,7.5476205"
         style="fill:none;fill-opacity:0.75;fill-rule:evenodd;stroke:#3465a4;stroke-width:2;stroke-linecap:round;stroke-linejoin:miter;stroke-miterlimit:4;stroke-dasharray:none;stroke-opacity:1" />
      <path
         sodipodi:nodetypes="cccc"
         id="path7161"
         d="M 25.031745,32.007937 L 34.095235,21.960318 L 42.365075,16.230159 L 46.587305,14.547619"
         style="fill:none;fill-opacity:0.75;fill-rule:evenodd;stroke:#3465a4;stroke-width:2;stroke-linecap:round;stroke-linejoin:miter;stroke-miterlimit:4;stroke-dasharray:none;stroke-opacity:1" />
      <path
         sodipodi:nodetypes="ccc"
         id="path7163"
         d="M 24.761905,18.801587 L 27.507935,9.2460325 L 25.476195,1.5158735"
         style="fill:none;fill-opacity:0.75;fill-rule:evenodd;stroke:#3465a4;stroke-width:2;stroke-linecap:round;stroke-linejoin:miter;stroke-miterlimit:4;stroke-dasharray:none;stroke-opacity:1" />
      <path
         sodipodi:nodetypes="ccc"
         id="path7165"
         d="M 34.031745,21.960318 L 34.730155,14.563492 L 31.650795,9.9603175"
         style="fill:none;fill-opacity:0.75;fill-rule:evenodd;stroke:#3465a4;stroke-width:2;stroke-linecap:round;stroke-linejoin:miter;stroke-miterlimit:4;stroke-dasharray:none;stroke-opacity:1" />
      <path
         sodipodi:nodetypes="cc"
         id="path7167"
         d="M 17.968254,10.023809 L 13.587301,1.5000005"
         style="fill:none;fill-opacity:0.75;fill-rule:evenodd;stroke:#3465a4;stroke-width:2;stroke-linecap:round;stroke-linejoin:miter;stroke-miterlimit:4;stroke-dasharray:none;stroke-opacity:1" />
      <path
         sodipodi:nodetypes="cc"
         id="path7169"
         d="M 27.507935,9.0555565 L 33.301585,1.5952395"
         style="fill:none;fill-opacity:0.75;fill-rule:evenodd;stroke:#3465a4;stroke-width:2;stroke-linecap:round;stroke-linejoin:miter;stroke-miterlimit:4;stroke-dasharray:none;stroke-opacity:1" />
      <path
         sodipodi:nodetypes="cc"
         id="path7171"
         d="M 34.730155,14.753968 L 38.539685,6.1825405"
         style="fill:none;fill-opacity:0.75;fill-rule:evenodd;stroke:#3465a4;stroke-width:2;stroke-linecap:round;stroke-linejoin:miter;stroke-miterlimit:4;stroke-dasharray:none;stroke-opacity:1" />
      <path
         sodipodi:nodetypes="cc"
         id="path7173"
         d="M 42.428575,16.103175 L 42.777775,9.5000005"
         style="fill:none;fill-opacity:0.75;fill-rule:evenodd;stroke:#3465a4;stroke-width:2;stroke-linecap:round;stroke-linejoin:miter;stroke-miterlimit:4;stroke-dasharray:none;stroke-opacity:1" />
      <path
         sodipodi:nodetypes="cccc"
         id="path7175"
         d="M 25.031745,32.007937 L 34.206345,32.515873 L 41.380955,26.86508 L 44.682535,20.119048"
         style="fill:none;fill-opacity:0.75;fill-rule:evenodd;stroke:#3465a4;stroke-width:2;stroke-linecap:round;stroke-linejoin:miter;stroke-miterlimit:4;stroke-dasharray:none;stroke-opacity:1" />
      <path
         sodipodi:nodetypes="cc"
         id="path7177"
         d="M 41.031745,27.007937 L 46.587305,28.134921"
         style="fill:none;fill-opacity:0.75;fill-rule:evenodd;stroke:#3465a4;stroke-width:2;stroke-linecap:round;stroke-linejoin:miter;stroke-miterlimit:4;stroke-dasharray:none;stroke-opacity:1" />
      <path
         sodipodi:nodetypes="ccc"
         id="path7179"
         d="M 34.031745,32.579366 L 42.031745,38.007937 L 46.507935,43.817461"
         style="fill:none;fill-opacity:0.75;fill-rule:evenodd;stroke:#3465a4;stroke-width:2;stroke-linecap:round;stroke-linejoin:miter;stroke-miterlimit:4;stroke-dasharray:none;stroke-opacity:1" />
      <path
         sodipodi:nodetypes="cc"
         id="path7181"
         d="M 42.031745,38.007937 L 46.650795,35.944445"
         style="fill:none;fill-opacity:0.75;fill-rule:evenodd;stroke:#3465a4;stroke-width:2;stroke-linecap:round;stroke-linejoin:miter;stroke-miterlimit:4;stroke-dasharray:none;stroke-opacity:1" />
      <path
         sodipodi:nodetypes="cccc"
         id="path7183"
         d="M 25.031745,32.007937 L 16.015873,23.944445 L 7.6984132,27.801588 L 2.6984132,32.452381"
         style="fill:none;fill-opacity:0.75;fill-rule:evenodd;stroke:#3465a4;stroke-width:2;stroke-linecap:round;stroke-linejoin:miter;stroke-miterlimit:4;stroke-dasharray:none;stroke-opacity:1" />
      <path
         sodipodi:nodetypes="ccc"
         id="path7185"
         d="M 16.142858,24.071429 L 11.349206,19.214287 L 3.4285712,15.547619"
         style="fill:none;fill-opacity:0.75;fill-rule:evenodd;stroke:#3465a4;stroke-width:2;stroke-linecap:round;stroke-linejoin:miter;stroke-miterlimit:4;stroke-dasharray:none;stroke-opacity:1" />
      <path
         sodipodi:nodetypes="cc"
         id="path7187"
         d="M 11.396825,19.388889 L 10.603175,12.563493"
         style="fill:none;fill-opacity:0.75;fill-rule:evenodd;stroke:#3465a4;stroke-width:2;stroke-linecap:round;stroke-linejoin:miter;stroke-miterlimit:4;stroke-dasharray:none;stroke-opacity:1" />
      <path
         sodipodi:nodetypes="cc"
         id="path7189"
         d="M 7.4603172,28.007937 L 1.5396822,24.5"
         style="fill:none;fill-opacity:0.75;fill-rule:evenodd;stroke:#3465a4;stroke-width:2;stroke-linecap:round;stroke-linejoin:miter;stroke-miterlimit:4;stroke-dasharray:none;stroke-opacity:1" />
    </g>
    <path
       style="fill:none;fill-opacity:0.75;fill-rule:evenodd;stroke:#729fcf;stroke-width:1;stroke-linecap:round;stroke-linejoin:miter;stroke-miterlimit:4;stroke-dasharray:none;stroke-opacity:1"
       d="M 20.777776,46.214285 L 23.936504,30.103175 L 24.095234,16.865079 L 17.968251,9.0396817 L 7.2857136,6.8809529"
       id="path7211"
       sodipodi:nodetypes="ccccc" />
    <path
       style="fill:none;fill-opacity:0.75;fill-rule:evenodd;stroke:#729fcf;stroke-width:1;stroke-linecap:round;stroke-linejoin:miter;stroke-miterlimit:4;stroke-dasharray:none;stroke-opacity:1"
       d="M 25.031751,30.960317 L 33.238098,21.960318 L 42.555557,15.563492 L 46.777777,13.880952"
       id="path7213"
       sodipodi:nodetypes="cccc" />
    <path
       style="fill:none;fill-opacity:0.75;fill-rule:evenodd;stroke:#729fcf;stroke-width:1;stroke-linecap:round;stroke-linejoin:miter;stroke-miterlimit:4;stroke-dasharray:none;stroke-opacity:1"
       d="M 24.380948,16.992063 L 27.03175,8.7698421 L 24.904762,1.2301583"
       id="path7215"
       sodipodi:nodetypes="ccc" />
    <path
       style="fill:none;fill-opacity:0.75;fill-rule:evenodd;stroke:#729fcf;stroke-width:1;stroke-linecap:round;stroke-linejoin:miter;stroke-miterlimit:4;stroke-dasharray:none;stroke-opacity:1"
       d="M 33.365084,21.769841 L 34.158732,13.039682 L 31.841267,9.2936509"
       id="path7217"
       sodipodi:nodetypes="ccc" />
    <path
       style="fill:none;fill-opacity:0.75;fill-rule:evenodd;stroke:#729fcf;stroke-width:1;stroke-linecap:round;stroke-linejoin:miter;stroke-miterlimit:4;stroke-dasharray:none;stroke-opacity:1"
       d="M 18.158727,9.3571429 L 13.777777,0.8333329"
       id="path7219"
       sodipodi:nodetypes="cc" />
    <path
       style="fill:none;fill-opacity:0.75;fill-rule:evenodd;stroke:#729fcf;stroke-width:1;stroke-linecap:round;stroke-linejoin:miter;stroke-miterlimit:4;stroke-dasharray:none;stroke-opacity:1"
       d="M 27.03175,8.2936508 L 32.920638,0.9285719"
       id="path7221"
       sodipodi:nodetypes="cc" />
    <path
       style="fill:none;fill-opacity:0.75;fill-rule:evenodd;stroke:#729fcf;stroke-width:1;stroke-linecap:round;stroke-linejoin:miter;stroke-miterlimit:4;stroke-dasharray:none;stroke-opacity:1"
       d="M 34.634923,13.039682 L 38.06349,5.5158739"
       id="path7223"
       sodipodi:nodetypes="cc" />
    <path
       style="fill:none;fill-opacity:0.75;fill-rule:evenodd;stroke:#729fcf;stroke-width:1;stroke-linecap:round;stroke-linejoin:miter;stroke-miterlimit:4;stroke-dasharray:none;stroke-opacity:1"
       d="M 41.857142,16.198413 L 42.206352,9.0238101"
       id="path7225"
       sodipodi:nodetypes="cc" />
    <path
       style="fill:none;fill-opacity:0.75;fill-rule:evenodd;stroke:#729fcf;stroke-width:1;stroke-linecap:round;stroke-linejoin:miter;stroke-miterlimit:4;stroke-dasharray:none;stroke-opacity:1"
       d="M 23.984132,31.246031 L 33.825398,31.944444 L 40.999998,26.293651 L 44.396827,19.452381"
       id="path7227"
       sodipodi:nodetypes="cccc" />
    <path
       style="fill:none;fill-opacity:0.75;fill-rule:evenodd;stroke:#729fcf;stroke-width:1;stroke-linecap:round;stroke-linejoin:miter;stroke-miterlimit:4;stroke-dasharray:none;stroke-opacity:1"
       d="M 41.222227,26.34127 L 46.777777,27.468254"
       id="path7229"
       sodipodi:nodetypes="cc" />
    <path
       style="fill:none;fill-opacity:0.75;fill-rule:evenodd;stroke:#729fcf;stroke-width:1;stroke-linecap:round;stroke-linejoin:miter;stroke-miterlimit:4;stroke-dasharray:none;stroke-opacity:1"
       d="M 34.222227,31.912699 L 41.746037,37.150794 L 46.698407,43.150794"
       id="path7231"
       sodipodi:nodetypes="ccc" />
    <path
       style="fill:none;fill-opacity:0.75;fill-rule:evenodd;stroke:#729fcf;stroke-width:1;stroke-linecap:round;stroke-linejoin:miter;stroke-miterlimit:4;stroke-dasharray:none;stroke-opacity:1"
       d="M 41.746037,37.246032 L 46.460315,35.277778"
       id="path7233"
       sodipodi:nodetypes="cc" />
    <path
       style="fill:none;fill-opacity:0.75;fill-rule:evenodd;stroke:#729fcf;stroke-width:1;stroke-linecap:round;stroke-linejoin:miter;stroke-miterlimit:4;stroke-dasharray:none;stroke-opacity:1"
       d="M 23.888894,30.388889 L 16.206347,23.277778 L 7.8888891,27.134921 L 2.8888891,31.785714"
       id="path7235"
       sodipodi:nodetypes="cccc" />
    <path
       style="fill:none;fill-opacity:0.75;fill-rule:evenodd;stroke:#729fcf;stroke-width:1;stroke-linecap:round;stroke-linejoin:miter;stroke-miterlimit:4;stroke-dasharray:none;stroke-opacity:1"
       d="M 16.333337,23.404762 L 11.539687,18.54762 L 3.6190471,14.880952"
       id="path7237"
       sodipodi:nodetypes="ccc" />
    <path
       style="fill:none;fill-opacity:0.75;fill-rule:evenodd;stroke:#729fcf;stroke-width:1;stroke-linecap:round;stroke-linejoin:miter;stroke-miterlimit:4;stroke-dasharray:none;stroke-opacity:1"
       d="M 11.587297,18.722222 L 10.793651,11.896826"
       id="path7239"
       sodipodi:nodetypes="cc" />
    <path
       style="fill:none;fill-opacity:0.75;fill-rule:evenodd;stroke:#729fcf;stroke-width:1;stroke-linecap:round;stroke-linejoin:miter;stroke-miterlimit:4;stroke-dasharray:none;stroke-opacity:1"
       d="M 7.6507931,27.34127 L 1.7301581,23.833333"
       id="path7241"
       sodipodi:nodetypes="cc" />
  </g>
</svg>
