<?xml version="1.0" encoding="UTF-8" standalone="no"?>
<!-- Created with Inkscape (http://www.inkscape.org/) -->

<svg
   xmlns:dc="http://purl.org/dc/elements/1.1/"
   xmlns:cc="http://creativecommons.org/ns#"
   xmlns:rdf="http://www.w3.org/1999/02/22-rdf-syntax-ns#"
   xmlns:svg="http://www.w3.org/2000/svg"
   xmlns="http://www.w3.org/2000/svg"
   xmlns:xlink="http://www.w3.org/1999/xlink"
   xmlns:sodipodi="http://sodipodi.sourceforge.net/DTD/sodipodi-0.dtd"
   xmlns:inkscape="http://www.inkscape.org/namespaces/inkscape"
   width="48px"
   height="48px"
   id="svg5479"
   version="1.1"
   inkscape:version="0.48.4 r9939"
   sodipodi:docname="paintfogvolume.svg">
  <defs
     id="defs5481">
    <linearGradient
       inkscape:collect="always"
       xlink:href="#linearGradient6951"
       id="linearGradient20615"
       gradientUnits="userSpaceOnUse"
       gradientTransform="matrix(0.749946,0,0,0.749946,-3.02147,-1.34958)"
       x1="28.058632"
       y1="18.867767"
       x2="33.436985"
       y2="23.742767" />
    <linearGradient
       id="linearGradient6951">
      <stop
         style="stop-color:#6e3d09;stop-opacity:1;"
         offset="0"
         id="stop6953" />
      <stop
         id="stop6959"
         offset="0.24242425"
         style="stop-color:#ea8113;stop-opacity:1;" />
      <stop
         style="stop-color:#5c3307;stop-opacity:1;"
         offset="0.62121212"
         id="stop6961" />
      <stop
         style="stop-color:#e07c12;stop-opacity:1;"
         offset="1"
         id="stop6955" />
    </linearGradient>
    <linearGradient
       inkscape:collect="always"
       xlink:href="#linearGradient6939"
       id="linearGradient20617"
       gradientUnits="userSpaceOnUse"
       gradientTransform="matrix(0.749946,0,0,0.749946,-3.02147,-1.34958)"
       x1="19.394735"
       y1="30.001331"
       x2="23.109331"
       y2="33.438831" />
    <linearGradient
       id="linearGradient6939">
      <stop
         style="stop-color:#bdbdbd;stop-opacity:1;"
         offset="0"
         id="stop6941" />
      <stop
         id="stop6947"
         offset="0.33333334"
         style="stop-color:#e2e2e2;stop-opacity:1;" />
      <stop
         style="stop-color:#a3a3a3;stop-opacity:1;"
         offset="0.66666669"
         id="stop6949" />
      <stop
         style="stop-color:#dddddd;stop-opacity:1;"
         offset="1"
         id="stop6943" />
    </linearGradient>
    <radialGradient
       inkscape:collect="always"
       xlink:href="#linearGradient6963"
       id="radialGradient20619"
       gradientUnits="userSpaceOnUse"
       gradientTransform="matrix(0.745938,0,0,0.726939,-3.528483,0.126895)"
       cx="15.415101"
       cy="35.356506"
       fx="15.415101"
       fy="35.356506"
       r="7.5791559" />
    <linearGradient
       id="linearGradient6963">
      <stop
         style="stop-color:#696969;stop-opacity:1;"
         offset="0"
         id="stop6965" />
      <stop
         style="stop-color:#000000;stop-opacity:1;"
         offset="1"
         id="stop6967" />
    </linearGradient>
    <linearGradient
       inkscape:collect="always"
       xlink:href="#linearGradient2446"
       id="linearGradient20621"
       gradientUnits="userSpaceOnUse"
       gradientTransform="matrix(0.639177,0,0,0.639177,-1.347708,2.817745)"
       x1="13.236155"
       y1="37.752247"
       x2="7.7521091"
       y2="42.282146" />
    <linearGradient
       inkscape:collect="always"
       id="linearGradient2446">
      <stop
         style="stop-color:#ffffff;stop-opacity:1;"
         offset="0"
         id="stop2448" />
      <stop
         style="stop-color:#ffffff;stop-opacity:0;"
         offset="1"
         id="stop2450" />
    </linearGradient>
    <linearGradient
       id="linearGradient12062-6-3">
      <stop
         style="stop-color:#b5e9ff;stop-opacity:1;"
         offset="0"
         id="stop12064-8-5" />
      <stop
         style="stop-color:#4c9cbe;stop-opacity:1;"
         offset="1"
         id="stop12066-5-1" />
    </linearGradient>
  </defs>
  <sodipodi:namedview
     id="base"
     pagecolor="#ffffff"
     bordercolor="#666666"
     borderopacity="1.0"
     inkscape:pageopacity="0.0"
     inkscape:pageshadow="2"
     inkscape:zoom="19.79899"
     inkscape:cx="13.097426"
     inkscape:cy="24.275689"
     inkscape:current-layer="layer1"
     showgrid="true"
     inkscape:grid-bbox="true"
     inkscape:document-units="px"
     inkscape:window-width="2560"
     inkscape:window-height="1538"
     inkscape:window-x="-8"
     inkscape:window-y="-8"
     inkscape:window-maximized="1" />
  <metadata
     id="metadata5484">
    <rdf:RDF>
      <cc:Work
         rdf:about="">
        <dc:format>image/svg+xml</dc:format>
        <dc:type
           rdf:resource="http://purl.org/dc/dcmitype/StillImage" />
        <dc:title></dc:title>
      </cc:Work>
    </rdf:RDF>
  </metadata>
  <g
     id="layer1"
     inkscape:label="Layer 1"
     inkscape:groupmode="layer">
    <path
       inkscape:connector-curvature="0"
       style="color:#000000;fill:#ad7fa8;fill-opacity:0.25098040999999999;fill-rule:nonzero;stroke:#555753;stroke-width:0.99999994000000003;stroke-linecap:butt;stroke-linejoin:round;stroke-miterlimit:4;stroke-opacity:1;stroke-dasharray:1.99999997000000000, 0.99999998999999995;stroke-dashoffset:0.40000002000000001;marker:none;visibility:visible;display:inline;overflow:visible;enable-background:accumulate"
       d="m 16.692177,1.070195 c 5.560396,2.5520596 6.919205,7.4705977 5.364892,10.879997 -1.509129,3.310286 -5.845164,7.170364 -5.766005,12.434284 0.10028,6.668385 3.158768,7.921842 5.515308,10.027648 2.830784,2.529589 3.872861,8.452036 0.551531,11.230965 -3.109249,2.601484 -7.972127,2.80774 -11.532007,-0.802212 C 7.4577918,41.425398 1.0519798,37.767832 1.098898,24.284199 1.1264108,16.377094 2.9607092,12.414958 6.162953,6.2845717 7.8473591,3.059938 12.599391,-0.80827356 16.692177,1.070195 z"
       id="path12130"
       sodipodi:nodetypes="cssssssss" />
    <path
       style="color:#000000;fill:#ad7fa8;fill-opacity:0.50196081000000004;fill-rule:nonzero;stroke:none;stroke-width:0.99999994000000003;marker:none;visibility:visible;display:inline;overflow:visible;enable-background:accumulate"
       d="M 13.914559,2.7226798 C 6.7243561,4.8489494 4.6157051,13.946874 3.4182378,20.457515 1.6777709,30.256363 6.2181595,40.885284 15.362327,45.233639 20.68968,47.19627 24.675634,40.460261 20.890171,36.481383 13.571978,32.288181 12.097032,21.902285 17.303653,15.489129 20.938881,12.402894 21.947782,6.1231424 17.10623,3.6768732 16.19316,3.1116322 15.117586,2.5044736 13.914559,2.7226798 z"
       id="path49102"
       inkscape:connector-curvature="0" />
    <path
       style="color:#000000;fill:#ad7fa8;fill-opacity:0.70588236999999998;fill-rule:nonzero;stroke:none;stroke-width:0.99999994000000003;marker:none;visibility:visible;display:inline;overflow:visible;enable-background:accumulate"
       d="M 14.079078,4.8942923 C 6.5575185,8.6297023 5.6079209,18.511137 5.1950445,25.952353 5.674363,33.331215 10.159335,42.002035 17.830115,43.423962 21.24135,42.553113 20.799422,37.627668 17.599788,36.711705 10.140009,30.592753 10.564529,18.29349 17.501076,11.968484 19.41954,8.8532694 17.715495,5.0050282 14.079078,4.8942923 z"
       id="path49106"
       inkscape:connector-curvature="0" />
    <path
       style="color:#000000;fill:#ad7fa8;fill-opacity:1;fill-rule:nonzero;stroke:none;stroke-width:0.99999994000000003;marker:none;visibility:visible;display:inline;overflow:visible;enable-background:accumulate"
       d="M 14.375213,7.1317113 C 7.4516438,11.984571 6.8340328,22.085277 7.9260623,29.60461 9.1099104,34.53979 12.655983,40.33872 17.830115,41.087834 18.865727,37.937624 13.475731,37.573571 12.89454,34.540093 7.6874551,26.826994 10.131094,16.192445 16.119115,9.8626781 16.447445,8.6699643 15.696647,6.9990475 14.375213,7.1317113 z"
       id="path49110"
       inkscape:connector-curvature="0" />
    <g
       id="g20605"
       transform="matrix(1.0096337,0,0,1.009615,15.935353,10.289532)">
      <path
         inkscape:connector-curvature="0"
         sodipodi:nodetypes="ccssc"
         inkscape:r_cy="true"
         inkscape:r_cx="true"
         id="path6937"
         d="m 14.646232,16.941297 3.049179,2.850318 C 23.085647,14.495122 31.031745,1.809944 31.031745,1.809944 31.35384,0.8916754 30.21637,0.31313211 29.647081,0.9321359 c 0,0 -10.266815,10.5720531 -15.000849,16.0091611 z"
         style="color:#000000;fill:url(#linearGradient20615);fill-opacity:1;fill-rule:nonzero;stroke:#673907;stroke-width:0.99046785;stroke-linecap:round;stroke-linejoin:miter;stroke-miterlimit:4;stroke-opacity:1;stroke-dasharray:none;stroke-dashoffset:0;marker:none;visibility:visible;display:inline;overflow:visible" />
      <path
         inkscape:connector-curvature="0"
         sodipodi:nodetypes="ccccccccc"
         inkscape:r_cy="true"
         inkscape:r_cx="true"
         id="path6935"
         d="m 8.945595,24.611114 1.684619,1.45026 6.369116,-5.524875 0.206281,-0.529333 0.820744,-0.01336 C 17.698254,18.822015 15.820379,16.706451 14.41423,16.706451 l 0.06151,0.817497 -0.502457,0.285 -5.027688,6.802166 z"
         style="color:#000000;fill:url(#linearGradient20617);fill-opacity:1;fill-rule:nonzero;stroke:#888a85;stroke-width:0.99046785;stroke-linecap:round;stroke-linejoin:miter;stroke-miterlimit:4;stroke-opacity:1;stroke-dasharray:none;stroke-dashoffset:0;marker:none;visibility:visible;display:inline;overflow:visible" />
      <path
         inkscape:connector-curvature="0"
         sodipodi:nodetypes="cssc"
         inkscape:r_cy="true"
         inkscape:r_cx="true"
         id="path6933"
         d="m 1.2267188,30.543202 c 4.9536278,0 8.7130129,0.589908 9.4247402,-3.014088 0.573553,-2.904322 -3.4199971,-4.29596 -5.3989598,-1.703165 -1.9063655,2.497679 -4.0257804,4.717253 -4.0257804,4.717253 z"
         style="color:#000000;fill:url(#radialGradient20619);fill-opacity:1;fill-rule:nonzero;stroke:none;stroke-width:0.2;marker:none;visibility:visible;display:inline;overflow:visible" />
      <path
         transform="matrix(0.639177,0,0,0.639177,2.708496,1.934029)"
         inkscape:r_cy="true"
         inkscape:r_cx="true"
         d="m 8.8749989,37.75 c 0,0.690356 -0.559644,1.25 -1.2499999,1.25 -0.6903558,0 -1.2499998,-0.559644 -1.2499998,-1.25 0,-0.690356 0.559644,-1.25 1.2499998,-1.25 0.6903559,0 1.2499999,0.559644 1.2499999,1.25 z"
         sodipodi:ry="1.2499999"
         sodipodi:rx="1.2499999"
         sodipodi:cy="37.75"
         sodipodi:cx="7.624999"
         id="path6971"
         style="opacity:0.52777782;color:#000000;fill:#ffffff;fill-opacity:1;fill-rule:nonzero;stroke:none;stroke-width:1;marker:none;visibility:visible;display:inline;overflow:visible"
         sodipodi:type="arc" />
      <path
         sodipodi:type="arc"
         style="color:#000000;fill:#ffffff;fill-opacity:1;fill-rule:nonzero;stroke:none;stroke-width:1;marker:none;visibility:visible;display:inline;overflow:visible"
         id="path6983"
         sodipodi:cx="7.624999"
         sodipodi:cy="37.75"
         sodipodi:rx="1.2499999"
         sodipodi:ry="1.2499999"
         d="m 8.8749989,37.75 c 0,0.690356 -0.559644,1.25 -1.2499999,1.25 -0.6903558,0 -1.2499998,-0.559644 -1.2499998,-1.25 0,-0.690356 0.559644,-1.25 1.2499998,-1.25 0.6903559,0 1.2499999,0.559644 1.2499999,1.25 z"
         inkscape:r_cx="true"
         inkscape:r_cy="true"
         transform="matrix(0.590858,0,0,0.590858,10.6068,-3.539804)" />
      <path
         inkscape:connector-curvature="0"
         inkscape:r_cy="true"
         inkscape:r_cx="true"
         id="path6985"
         d="m 14.113588,19.799655 -3.97719,4.606911"
         style="color:#000000;fill:none;stroke:#ffffff;stroke-width:0.99046785;stroke-linecap:round;stroke-linejoin:round;stroke-miterlimit:4;stroke-opacity:1;stroke-dasharray:none;stroke-dashoffset:0;marker:none;visibility:visible;display:inline;overflow:visible" />
      <path
         inkscape:connector-curvature="0"
         sodipodi:nodetypes="cssc"
         inkscape:r_cy="true"
         inkscape:r_cx="true"
         id="path1571"
         d="m 2.2115316,30.052033 c 0,0 2.5056531,-1.231277 3.573364,-3.064901 0.377753,-0.648731 1.2331909,-0.09512 0.7061986,0.550835 -1.138289,1.395243 -4.2795626,2.514066 -4.2795626,2.514066 z"
         style="opacity:0.42777776;color:#000000;fill:url(#linearGradient20621);fill-opacity:1;fill-rule:nonzero;stroke:none;stroke-width:1;marker:none;visibility:visible;display:inline;overflow:visible" />
      <path
         transform="matrix(0.178387,0,0,0.178387,28.73187,-5.322923)"
         inkscape:r_cy="true"
         inkscape:r_cx="true"
         d="m 8.8749989,37.75 c 0,0.690356 -0.559644,1.25 -1.2499999,1.25 -0.6903558,0 -1.2499998,-0.559644 -1.2499998,-1.25 0,-0.690356 0.559644,-1.25 1.2499998,-1.25 0.6903559,0 1.2499999,0.559644 1.2499999,1.25 z"
         sodipodi:ry="1.2499999"
         sodipodi:rx="1.2499999"
         sodipodi:cy="37.75"
         sodipodi:cx="7.624999"
         id="path2454"
         style="opacity:0.53333285;color:#000000;fill:#ffffff;fill-opacity:1;fill-rule:nonzero;stroke:none;stroke-width:1;marker:none;visibility:visible;display:inline;overflow:visible"
         sodipodi:type="arc" />
    </g>
  </g>
</svg>
