<?xml version="1.0" encoding="UTF-8" standalone="no"?>
<!-- Created with Inkscape (http://www.inkscape.org/) -->
<svg
   xmlns:a="http://ns.adobe.com/AdobeSVGViewerExtensions/3.0/"
   xmlns:i="http://ns.adobe.com/AdobeIllustrator/10.0/"
   xmlns:dc="http://purl.org/dc/elements/1.1/"
   xmlns:cc="http://web.resource.org/cc/"
   xmlns:rdf="http://www.w3.org/1999/02/22-rdf-syntax-ns#"
   xmlns:svg="http://www.w3.org/2000/svg"
   xmlns="http://www.w3.org/2000/svg"
   xmlns:sodipodi="http://sodipodi.sourceforge.net/DTD/sodipodi-0.dtd"
   xmlns:inkscape="http://www.inkscape.org/namespaces/inkscape"
   width="48px"
   height="48px"
   id="svg6683"
   sodipodi:version="0.32"
   inkscape:version="0.44.1"
   sodipodi:docbase="e:\dev_clean\src\houdini\support\icons\sop"
   sodipodi:docname="connectivity.svg">
  <defs
     id="defs6685">
    <radialGradient
       gradientUnits="userSpaceOnUse"
       gradientTransform="matrix(-1.4189,0,0,1.419,1216.741,594.0811)"
       fy="-272.45209"
       fx="845.0083"
       r="17.379"
       cy="-272.45209"
       cx="845.0083"
       id="XMLID_103_">
					<stop
   id="stop4182"
   style="stop-color:#FFFFFF"
   offset="0.1461" />

					<stop
   id="stop4184"
   style="stop-color:#ADB5BF"
   offset="0.927" />

					<a:midPointStop
   style="stop-color:#FFFFFF"
   offset="0.1461" />

					<a:midPointStop
   style="stop-color:#FFFFFF"
   offset="0.5" />

					<a:midPointStop
   style="stop-color:#ADB5BF"
   offset="0.927" />

				</radialGradient>
    <radialGradient
       gradientUnits="userSpaceOnUse"
       fy="204.4214"
       fx="14.2861"
       r="33.4668"
       cy="204.4214"
       cx="14.2861"
       id="XMLID_104_"
       gradientTransform="matrix(1.075172,0,0,1.075172,-2.153529,-208.0147)">
				<stop
   id="stop4191"
   style="stop-color:#FFFFFF"
   offset="0" />

				<stop
   id="stop4193"
   style="stop-color:#d88200;stop-opacity:1;"
   offset="0.92699999" />

				<a:midPointStop
   style="stop-color:#FFFFFF"
   offset="0" />

				<a:midPointStop
   style="stop-color:#FFFFFF"
   offset="0.5" />

				<a:midPointStop
   style="stop-color:#FAAF3D"
   offset="0.927" />

			</radialGradient>
    <radialGradient
       gradientUnits="userSpaceOnUse"
       fy="199.6973"
       fx="17.6919"
       r="33.5377"
       cy="199.6973"
       cx="17.6919"
       id="XMLID_105_"
       gradientTransform="matrix(1.075172,0,0,1.075172,-2.153529,-208.0147)">
				<stop
   id="stop4198"
   style="stop-color:#FFFFFF"
   offset="0" />

				<stop
   id="stop4200"
   style="stop-color:#84d815;stop-opacity:1;"
   offset="1" />

				<a:midPointStop
   style="stop-color:#FFFFFF"
   offset="0" />

				<a:midPointStop
   style="stop-color:#FFFFFF"
   offset="0.5" />

				<a:midPointStop
   style="stop-color:#BEF279"
   offset="1" />

			</radialGradient>
    <radialGradient
       gradientUnits="userSpaceOnUse"
       fy="204.7544"
       fx="14.2056"
       r="27.2833"
       cy="204.7544"
       cx="14.2056"
       id="XMLID_106_"
       gradientTransform="matrix(1.075172,0,0,1.075172,-2.153529,-208.0147)">
				<stop
   id="stop4205"
   style="stop-color:#FFFFFF"
   offset="0" />

				<stop
   id="stop4207"
   style="stop-color:#c750ba;stop-opacity:1;"
   offset="1" />

				<a:midPointStop
   style="stop-color:#FFFFFF"
   offset="0" />

				<a:midPointStop
   style="stop-color:#FFFFFF"
   offset="0.5" />

				<a:midPointStop
   style="stop-color:#AD7FA8"
   offset="1" />

			</radialGradient>
    <radialGradient
       gradientUnits="userSpaceOnUse"
       fy="210.0942"
       fx="14.8784"
       r="27.1154"
       cy="210.0942"
       cx="14.8784"
       id="XMLID_107_"
       gradientTransform="matrix(1.075172,0,0,1.075172,-2.153529,-208.0147)">
				<stop
   id="stop4212"
   style="stop-color:#FFFFFF"
   offset="0" />

				<stop
   id="stop4214"
   style="stop-color:#0069be;stop-opacity:1;"
   offset="1" />

				<a:midPointStop
   style="stop-color:#FFFFFF"
   offset="0" />

				<a:midPointStop
   style="stop-color:#FFFFFF"
   offset="0.5" />

				<a:midPointStop
   style="stop-color:#709EC3"
   offset="1" />

			</radialGradient>
    <radialGradient
       gradientUnits="userSpaceOnUse"
       fy="207.1943"
       fx="16.2896"
       r="15.5656"
       cy="207.1943"
       cx="16.2896"
       id="XMLID_108_"
       gradientTransform="matrix(1.075172,0,0,1.075172,-2.153529,-208.0147)">
				<stop
   id="stop4219"
   style="stop-color:#FFFFFF"
   offset="0" />

				<stop
   id="stop4221"
   style="stop-color:#ED8E8F"
   offset="1" />

				<a:midPointStop
   style="stop-color:#FFFFFF"
   offset="0" />

				<a:midPointStop
   style="stop-color:#FFFFFF"
   offset="0.5" />

				<a:midPointStop
   style="stop-color:#ED8E8F"
   offset="1" />

			</radialGradient>
    <radialGradient
       gradientUnits="userSpaceOnUse"
       fy="207.0952"
       fx="15.8774"
       r="31.1446"
       cy="207.0952"
       cx="15.8774"
       id="XMLID_109_"
       gradientTransform="matrix(1.075172,0,0,1.075172,-2.153529,-208.0147)">
				<stop
   id="stop4226"
   style="stop-color:#FFFFFF"
   offset="0" />

				<stop
   id="stop4228"
   style="stop-color:#e8d700;stop-opacity:1;"
   offset="1" />

				<a:midPointStop
   style="stop-color:#FFFFFF"
   offset="0" />

				<a:midPointStop
   style="stop-color:#FFFFFF"
   offset="0.5" />

				<a:midPointStop
   style="stop-color:#D9CD6D"
   offset="1" />

			</radialGradient>
    <radialGradient
       gradientUnits="userSpaceOnUse"
       fy="209.0942"
       fx="14.3784"
       r="25.8333"
       cy="209.0942"
       cx="14.3784"
       id="XMLID_110_"
       gradientTransform="matrix(1.075172,0,0,1.075172,-2.153529,-208.0147)">
				<stop
   id="stop4233"
   style="stop-color:#FFFFFF"
   offset="0" />

				<stop
   id="stop4235"
   style="stop-color:#C17D10"
   offset="1" />

				<a:midPointStop
   style="stop-color:#FFFFFF"
   offset="0" />

				<a:midPointStop
   style="stop-color:#FFFFFF"
   offset="0.5" />

				<a:midPointStop
   style="stop-color:#C17D10"
   offset="1" />

			</radialGradient>
    <radialGradient
       gradientUnits="userSpaceOnUse"
       fy="207.8501"
       fx="15.5493"
       r="26.64"
       cy="207.8501"
       cx="15.5493"
       id="XMLID_111_"
       gradientTransform="matrix(1.075172,0,0,1.075172,-2.153529,-208.0147)">
				<stop
   id="stop4240"
   style="stop-color:#FFFFFF"
   offset="0" />

				<stop
   id="stop4242"
   style="stop-color:#B3E3FF"
   offset="1" />

				<a:midPointStop
   style="stop-color:#FFFFFF"
   offset="0" />

				<a:midPointStop
   style="stop-color:#FFFFFF"
   offset="0.5" />

				<a:midPointStop
   style="stop-color:#B3E3FF"
   offset="1" />

			</radialGradient>
  </defs>
  <sodipodi:namedview
     id="base"
     pagecolor="#ffffff"
     bordercolor="#666666"
     borderopacity="1.0"
     inkscape:pageopacity="0.0"
     inkscape:pageshadow="2"
     inkscape:zoom="7"
     inkscape:cx="24"
     inkscape:cy="24"
     inkscape:current-layer="layer1"
     showgrid="true"
     inkscape:grid-bbox="true"
     inkscape:document-units="px"
     inkscape:window-width="1048"
     inkscape:window-height="832"
     inkscape:window-x="334"
     inkscape:window-y="94" />
  <metadata
     id="metadata6688">
    <rdf:RDF>
      <cc:Work
         rdf:about="">
        <dc:format>image/svg+xml</dc:format>
        <dc:type
           rdf:resource="http://purl.org/dc/dcmitype/StillImage" />
      </cc:Work>
    </rdf:RDF>
  </metadata>
  <g
     id="layer1"
     inkscape:label="Layer 1"
     inkscape:groupmode="layer">
    <g
       transform="matrix(1.075172,0,0,1.075172,-2.153529,-208.0147)"
       id="g4179">
				
					<radialGradient
   gradientUnits="userSpaceOnUse"
   gradientTransform="matrix(-1.4189,0,0,1.419,1216.741,594.0811)"
   fy="-272.45209"
   fx="845.0083"
   r="17.379"
   cy="-272.45209"
   cx="845.0083"
   id="radialGradient6719">
					<stop
   id="stop6721"
   style="stop-color:#FFFFFF"
   offset="0.1461" />

					<stop
   id="stop6723"
   style="stop-color:#ADB5BF"
   offset="0.927" />

					<a:midPointStop
   style="stop-color:#FFFFFF"
   offset="0.1461" />

					<a:midPointStop
   style="stop-color:#FFFFFF"
   offset="0.5" />

					<a:midPointStop
   style="stop-color:#ADB5BF"
   offset="0.927" />

				</radialGradient>

				<path
   style="fill:url(#XMLID_103_)"
   id="path4186"
   d="M 2.231,215.886 C 2.231,228.039 12.08,237.889 24.231,237.889 C 36.381,237.889 46.231,228.039 46.231,215.886 C 46.231,203.738 36.381,193.889 24.231,193.889 C 12.08,193.889 2.231,203.737 2.231,215.886 z "
   i:knockout="Off" />

			</g>
    <polygon
       transform="matrix(1.075172,0,0,1.075172,-2.153529,-208.0147)"
       style="fill:#8d9299"
       id="polygon4188"
       points="26.909,224.758 26.93,225.269 27.453,225.25 27.453,224.708 26.909,224.758 "
       i:knockout="Off" />
    <path
       style="fill:url(#XMLID_104_)"
       id="path4195"
       d="M 2.7481808,25.123515 C 3.2760905,25.940646 3.9179684,26.729823 4.6684388,27.481368 C 8.9433246,31.760555 16.139454,34.31839 23.921553,34.322691 C 23.921553,34.322691 26.362194,34.217324 26.882578,34.194745 L 27.36318,34.170016 L 27.345977,33.739947 C 27.333075,33.525988 26.789038,23.882766 26.789038,23.882766 C 26.789038,23.882766 26.203069,17.320988 26.123506,16.419994 L 26.123506,16.430746 L 26.106303,15.870581 C 25.411742,15.925415 24.704278,15.952294 23.989288,15.951219 C 18.390865,15.949068 13.538612,14.225567 11.22054,11.726866 L 11.221615,11.727941 C 7.2294997,15.753387 4.1641829,20.535754 2.7438801,25.119214 L 2.7481808,25.123515 z "
       a:adobe-blending-mode="multiply"
       i:knockout="Off" />
    <path
       style="fill:url(#XMLID_105_)"
       id="path4202"
       d="M 25.690211,16.249041 C 28.099673,16.20711 31.170365,15.730808 33.873349,14.21159 C 36.836524,17.470437 39.052455,24.135432 40.262024,29.57903 C 41.337196,28.973708 45.571226,25.68153 46.243208,21.4475 C 48.058099,25.68153 47.183984,34.014116 40.665214,40.263019 C 33.743253,45.303427 27.561011,45.57222 26.889029,45.57222 C 27.562087,35.761272 26.420253,23.867714 25.690211,16.249041 z "
       a:adobe-blending-mode="multiply"
       i:knockout="Off" />
    <path
       style="fill:url(#XMLID_106_)"
       id="path4209"
       d="M 2.9621401,25.18265 C 7.6584935,31.810013 18.395166,34.91296 26.951389,33.906599 C 27.371781,35.751595 27.455645,45.900148 26.532071,47.494629 C 23.428048,48.081673 17.054426,47.244114 13.195632,45.062589 C 11.769953,43.887425 11.517288,38.602952 11.517288,38.602952 C 6.7370707,36.253701 4.2200919,34.157114 2.207369,30.88644 C 2.0396421,28.872642 2.6266863,26.52554 2.9621401,25.18265 z "
       a:adobe-blending-mode="multiply"
       i:knockout="Off" />
    <path
       style="fill:url(#XMLID_107_)"
       id="path4216"
       d="M 11.144203,12.21822 C 14.129957,8.91529 19.638065,5.1554116 23.923703,3.4942702 C 28.295354,3.3190171 33.629285,4.1931323 37.827833,6.4671221 C 40.713596,10.402254 34.504475,15.823273 25.691286,16.250117 C 17.190973,16.872642 11.917252,13.160071 11.144203,12.21822 z "
       i:knockout="Off" />
    <path
       style="fill:url(#XMLID_108_)"
       id="path4223"
       d="M 2.1869407,33.751774 C 0.21829989,22.691475 11.828013,8.2970658 24.020468,3.4104067 C 18.672561,2.6588612 13.480553,3.156666 10.771118,4.7253427 C 6.6338541,7.2917796 -4.48773,18.129518 2.1869407,33.751774 z "
       i:knockout="Off" />
    <path
       style="fill:url(#XMLID_109_)"
       id="path4230"
       d="M 33.949686,13.971826 C 37.539687,12.240798 40.904977,8.360501 36.154865,3.8738061 C 42.916625,7.7465775 48.027995,16.435046 47.318381,25.456819 C 46.78617,22.274308 46.319546,21.207737 46.319546,21.207737 C 45.706697,25.705183 40.338361,29.339266 40.338361,29.339266 C 38.791188,22.895758 37.330029,19.939033 33.949686,13.971826 z "
       i:knockout="Off" />
    <path
       style="fill:url(#XMLID_110_)"
       id="path4237"
       d="M 38.210595,6.2252083 C 35.180759,1.2020024 21.695946,-2.2471509 11.586099,4.4027909 C 17.770491,1.947097 22.903364,3.3319191 24.418282,3.4512633 C 25.9332,3.5706074 31.774612,3.0835543 38.210595,6.2252083 z "
       i:knockout="Off" />
    <path
       style="fill:url(#XMLID_111_)"
       id="path4244"
       d="M 0.56127991,27.536202 C 2.3783214,33.047536 7.9864211,37.224581 11.517288,38.602952 C 11.34311,40.11357 11.740924,43.172435 13.093491,44.937869 C 8.1326445,42.448844 1.4429214,36.141883 0.56127991,27.536202 z "
       a:adobe-blending-mode="multiply"
       i:knockout="Off" />
    <g
       transform="matrix(1.075172,0,0,1.075172,-2.153529,-208.0147)"
       id="g4246">
				<g
   id="g4248">
					<path
   style="fill:#4c5159"
   id="path4250"
   d="M 4.667,216.486 C 4.099,218.215 3.778,219.917 3.749,221.533 L 3.747,221.764 C 3.747,223.11 3.966,224.347 4.382,225.454 C 4.487,225.412 4.777,225.296 4.864,225.261 C 4.473,224.215 4.266,223.047 4.266,221.778 L 4.268,221.544 C 4.293,220.096 4.56,218.576 5.034,217.031 L 4.667,216.486 z "
   i:knockout="Off" />

					<path
   style="fill:#4c5159"
   id="path4252"
   d="M 12.61,204.938 C 15.29,202.2 18.44,199.831 21.798,198.183 C 26.357,195.946 30.752,195.381 33.888,196.612 C 33.935,196.505 34.068,196.19 34.093,196.133 C 30.777,194.822 26.337,195.377 21.569,197.716 L 21.569,197.716 C 18.165,199.387 14.968,201.792 12.249,204.575 L 12.61,204.938 z "
   i:knockout="Off" />

					<path
   style="fill:#4c5159"
   id="path4254"
   d="M 24.124,196.452 L 24.124,196.452 C 13.854,197.023 4.968,202.723 2.925,210.021 C 3.058,210.056 3.322,210.125 3.43,210.154 C 5.394,203.181 14.273,197.521 24.156,196.973 C 32.133,196.529 39.316,199.448 42.504,204.41 C 42.572,204.367 42.84,204.201 42.947,204.135 C 39.661,199.016 32.292,196 24.124,196.452 z "
   i:knockout="Off" />

					<path
   style="fill:#4c5159"
   id="path4256"
   d="M 9.413,199.49 C 9.504,199.578 9.729,199.797 9.788,199.853 C 13.061,196.621 18.889,195.574 25.042,197.137 C 35.646,199.831 44.862,208.689 45.589,216.881 C 45.589,216.881 45.539,219.037 45.533,219.288 C 45.644,219.304 45.968,219.352 46.046,219.365 C 46.05,219.157 46.107,216.81 46.107,216.81 C 45.35,208.288 36.154,199.42 25.172,196.632 C 18.834,195.023 12.815,196.123 9.413,199.49 z "
   i:knockout="Off" />

					<path
   style="fill:#4c5159"
   id="path4258"
   d="M 17.828,194.757 C 17.878,194.908 17.999,195.278 17.999,195.278 C 18.745,195.01 19.735,195.02 20.837,195.296 C 27.193,196.907 35.061,206.89 38.374,217.549 C 39.421,220.919 39.975,224.036 39.975,226.566 C 39.975,229.173 39.374,231.144 38.249,232.298 C 38.321,232.376 38.509,232.577 38.604,232.681 C 39.844,231.425 40.506,229.324 40.506,226.571 C 40.506,223.972 39.955,220.886 38.869,217.398 C 35.51,206.582 27.476,196.441 20.961,194.794 C 19.808,194.5 18.758,194.497 17.828,194.757 z "
   i:knockout="Off" />

					<path
   style="fill:#4c5159"
   id="path4260"
   d="M 13.064,223.002 C 12.999,223.4 12.938,223.797 12.883,224.19 C 12.631,226.003 12.502,227.669 12.502,229.142 C 12.502,232.548 13.191,234.788 14.481,235.67 C 14.557,235.537 14.695,235.295 14.741,235.216 C 13.652,234.432 13.022,232.232 13.022,229.11 C 13.022,227.674 13.149,226.044 13.397,224.263 C 13.446,223.92 13.498,223.575 13.553,223.226 L 13.064,223.002 z "
   i:knockout="Off" />

					<path
   style="fill:#4c5159"
   id="path4262"
   d="M 18.101,207.752 C 20.084,203.079 22.428,199.049 24.713,196.681 C 26.043,195.3 27.149,194.643 28.086,194.672 C 28.102,194.559 28.14,194.288 28.158,194.155 C 27.04,194.092 25.822,194.78 24.338,196.319 L 24.338,196.319 C 22.017,198.724 19.637,202.816 17.625,207.553 L 18.101,207.752 z "
   i:knockout="Off" />

					<path
   style="fill:#4c5159"
   id="path4264"
   d="M 16.872,197.936 L 16.872,197.936 C 16.871,198.561 17.147,199.153 17.692,199.698 C 18.963,200.971 21.503,201.764 24.321,201.765 C 28.497,201.768 31.772,200.09 31.776,197.945 C 31.776,195.799 28.504,194.116 24.327,194.112 C 20.149,194.11 16.875,195.791 16.872,197.936 z M 17.391,197.935 L 17.391,197.935 C 17.395,196.145 20.569,194.632 24.325,194.633 C 28.083,194.637 31.256,196.153 31.255,197.943 C 31.253,199.733 28.079,201.246 24.321,201.245 C 20.566,201.242 17.393,199.727 17.391,197.935 z "
   i:knockout="Off" />

					<path
   style="fill:#4c5159"
   id="path4266"
   d="M 26.15,208.762 C 29.1,208.553 31.83,207.83 33.977,206.674 C 36.616,205.256 38.069,203.351 38.069,201.311 C 38.07,197.274 31.776,193.86 24.325,193.856 C 20.761,193.854 17.362,194.604 14.753,195.968 L 14.753,195.968 C 12.056,197.378 10.57,199.27 10.571,201.292 C 10.57,202.543 11.149,203.784 12.247,204.883 L 12.59,204.533 C 11.632,203.562 11.091,202.461 11.091,201.293 L 11.091,201.293 C 11.093,199.473 12.479,197.746 14.991,196.43 C 17.493,195.123 20.895,194.375 24.323,194.378 C 29.134,194.379 33.747,195.887 36.077,198.219 C 37.04,199.185 37.55,200.253 37.548,201.309 C 37.546,203.15 36.191,204.893 33.731,206.215 C 31.627,207.348 28.933,208.053 26.016,208.25 L 26.15,208.762 z "
   i:knockout="Off" />

					<path
   style="fill:#4c5159"
   id="path4268"
   d="M 4.936,216.486 C 3.928,214.889 3.405,213.175 3.405,211.426 C 3.405,210.644 3.55,209.828 3.803,208.993 C 3.75,208.975 3.442,208.874 3.309,208.831 C 3.038,209.721 2.885,210.594 2.885,211.42 L 2.885,211.429 C 2.885,213.386 3.51,215.304 4.714,217.073 L 4.936,216.486 z "
   i:knockout="Off" />

					<path
   style="fill:#4c5159"
   id="path4270"
   d="M 44.446,208.339 C 44.829,209.367 45.032,210.41 45.032,211.441 C 45.028,218.199 37.6,223.766 27.358,224.717 C 27.369,224.834 27.393,225.106 27.404,225.237 C 37.921,224.26 45.549,218.475 45.551,211.448 C 45.551,210.337 45.336,209.233 44.93,208.148 C 44.836,208.185 44.543,208.301 44.446,208.339 z "
   i:knockout="Off" />

					<path
   style="fill:#4c5159"
   id="path4272"
   d="M 6.224,225.342 C 10.395,229.519 17.157,232.014 24.311,232.018 C 31.582,232.018 38.114,229.649 42.249,225.517 C 44.881,222.889 46.289,219.737 46.347,216.399 C 46.209,216.399 45.929,216.399 45.819,216.398 C 45.665,224.872 36.258,231.499 24.325,231.499 C 12.493,231.491 2.82,224.715 2.668,216.376 C 2.575,216.376 2.255,216.375 2.14,216.375 C 2.193,219.611 3.597,222.711 6.224,225.342 z "
   i:knockout="Off" />

					<path
   style="fill:#4c5159"
   id="path4274"
   d="M 4.489,225.824 C 7.63,232.021 15.548,236.183 24.243,236.188 C 32.454,236.188 39.707,232.734 43.227,227.174 C 43.135,227.118 42.87,226.954 42.784,226.902 C 39.356,232.308 32.273,235.667 24.259,235.667 C 15.741,235.664 8.015,231.619 4.959,225.596 C 4.936,225.607 4.62,225.762 4.489,225.824 z "
   i:knockout="Off" />

					<path
   style="fill:#4c5159"
   id="path4276"
   d="M 26.93,225.269 C 26.934,225.461 27.034,230.538 27.034,230.538 C 27.034,234.351 26.835,236.896 26.503,237.349 C 26.513,237.275 26.644,237.605 26.71,237.778 C 27.273,237.529 27.564,235.191 27.564,230.718 C 27.564,230.718 27.458,225.445 27.454,225.251 C 27.337,225.254 27.022,225.266 26.93,225.269 z "
   i:knockout="Off" />

					<path
   style="fill:#4c5159"
   id="path4278"
   d="M 23.334,194.461 C 23.783,195.006 24.76,199.04 25.738,208.339 C 25.879,208.324 26.289,208.281 26.289,208.281 C 25.082,197.041 24.084,194.198 23.427,193.884 C 23.399,194.061 23.341,194.42 23.334,194.461 z "
   i:knockout="Off" />

					<path
   style="fill:#4c5159"
   id="path4280"
   d="M 7.887,210.438 C 6.856,209.102 6.294,207.64 6.294,206.143 C 6.294,204.564 7.135,202.664 8.482,201.144 C 8.399,201.066 8.161,200.845 8.1,200.789 C 6.645,202.419 5.773,204.409 5.772,206.137 L 5.772,206.141 C 5.772,207.802 6.409,209.418 7.575,210.878 L 7.887,210.438 z "
   i:knockout="Off" />

					<path
   style="fill:#4c5159"
   id="path4282"
   d="M 26.772,217.105 C 30.698,216.796 34.338,215.744 37.231,214.07 C 37.163,213.955 37.024,213.72 36.964,213.621 C 34.135,215.261 30.56,216.289 26.697,216.59 L 26.772,217.105 z "
   i:knockout="Off" />

					<path
   style="fill:#4c5159"
   id="path4284"
   d="M 40.099,201.262 C 41.553,202.805 42.328,204.492 42.328,206.154 C 42.328,208.87 40.539,211.442 37.307,213.417 C 37.366,213.516 37.505,213.749 37.574,213.864 C 40.97,211.792 42.848,209.061 42.85,206.157 C 42.85,204.355 42.022,202.541 40.471,200.899 C 40.375,200.992 40.18,201.184 40.099,201.262 z "
   i:knockout="Off" />

					<polygon
   style="fill:#4c5159"
   id="polygon4286"
   points="26.909,224.758 26.93,225.269 27.453,225.25 27.453,224.708 26.909,224.758 "
   i:knockout="Off" />

					<g
   id="g4288"
   i:knockout="Off">
						<polygon
   style="fill:#4c5159"
   id="polygon4290"
   points="26.91,224.759 26.932,225.27 27.454,225.252 27.454,224.709 26.91,224.759 "
   i:knockout="Off" />

					</g>

				</g>

				<g
   id="g4292"
   i:knockout="Off">
					<path
   style="fill:#4c5159"
   id="path4294"
   d="M 12.442,204.379 C 8.729,208.123 5.878,212.571 4.557,216.834 L 4.931,217.381 C 6.164,213.076 9.032,208.542 12.805,204.742 L 12.442,204.379 z "
   i:knockout="Off" />

					<path
   style="fill:#4c5159"
   id="path4296"
   d="M 13.512,223.496 C 14.328,218.246 16.065,212.498 18.205,207.512 L 17.707,207.366 C 15.574,212.347 13.843,218.066 13.017,223.302 L 13.512,223.496 z "
   i:knockout="Off" />

					<path
   style="fill:#4c5159"
   id="path4298"
   d="M 26.286,208.231 C 25.64,208.282 24.982,208.307 24.317,208.306 C 19.11,208.304 14.597,206.701 12.441,204.377 L 12.098,204.728 C 12.147,204.781 12.198,204.832 12.248,204.884 C 14.674,207.314 19.297,208.824 24.314,208.827 C 24.984,208.827 25.648,208.802 26.3,208.751 L 26.286,208.231 z "
   i:knockout="Off" />

					<path
   style="fill:#4c5159"
   id="path4300"
   d="M 4.559,216.838 C 5.05,217.598 5.647,218.332 6.345,219.031 C 10.321,223.011 17.014,225.39 24.252,225.394 C 24.252,225.394 26.522,225.296 27.006,225.275 C 26.994,225.141 26.969,224.841 26.961,224.755 C 26.783,224.763 24.26,224.874 24.26,224.874 C 17.131,224.868 10.572,222.557 6.711,218.689 C 5.925,217.901 5.273,217.067 4.762,216.202 L 4.559,216.838 z "
   i:knockout="Off" />

					<path
   style="fill:#4c5159"
   id="path4302"
   d="M 25.78,208.738 C 25.798,208.929 26.402,215.723 26.402,215.723 C 26.403,215.726 26.886,224.335 26.917,224.87 C 26.981,224.867 27.31,224.855 27.438,224.85 C 27.426,224.651 26.92,215.682 26.92,215.682 C 26.92,215.682 26.344,209.225 26.295,208.682 C 26.186,208.695 25.877,208.729 25.78,208.738 z "
   i:knockout="Off" />

					<path
   style="fill:#4c5159"
   id="path4304"
   d="M 7.427,210.689 C 8.968,212.716 11.52,214.459 14.807,215.63 C 14.85,215.508 14.94,215.251 14.979,215.14 C 11.702,213.97 9.184,212.23 7.724,210.219 L 7.427,210.689 z "
   i:knockout="Off" />

					<path
   style="fill:#4c5159"
   id="path4306"
   d="M 26.971,216.568 C 26.096,216.644 25.205,216.682 24.305,216.681 L 24.305,216.681 C 21.172,216.679 18.084,216.184 15.359,215.263 C 15.327,215.359 15.223,215.654 15.188,215.754 C 17.971,216.694 21.119,217.2 24.305,217.2 C 25.215,217.202 26.116,217.163 27,217.087"
   i:knockout="Off" />

					<polygon
   style="fill:#4c5159"
   id="polygon4308"
   points="26.91,224.759 26.932,225.27 27.454,225.252 27.454,224.709 26.91,224.759 "
   i:knockout="Off" />

				</g>

			</g>
    <path
       style="fill:none;stroke:black;stroke-width:0.79999965"
       id="path4310"
       d="M 47.394697,24.116066 C 47.388246,37.093392 36.861237,47.607499 23.883911,47.599973 C 10.908735,47.595672 0.39247765,37.065438 0.40000385,24.089187 C 0.40860523,11.111861 10.934539,0.5988287 23.911865,0.60527974 C 36.889191,0.61388111 47.403298,11.13874 47.394697,24.116066 z "
       i:knockout="Off" />
  </g>
</svg>
