<?xml version="1.0" encoding="UTF-8" standalone="no"?>
<!-- Created with Inkscape (http://www.inkscape.org/) -->

<svg
   xmlns:dc="http://purl.org/dc/elements/1.1/"
   xmlns:cc="http://creativecommons.org/ns#"
   xmlns:rdf="http://www.w3.org/1999/02/22-rdf-syntax-ns#"
   xmlns:svg="http://www.w3.org/2000/svg"
   xmlns="http://www.w3.org/2000/svg"
   xmlns:xlink="http://www.w3.org/1999/xlink"
   xmlns:sodipodi="http://sodipodi.sourceforge.net/DTD/sodipodi-0.dtd"
   xmlns:inkscape="http://www.inkscape.org/namespaces/inkscape"
   width="48px"
   height="48px"
   id="svg1872"
   sodipodi:version="0.32"
   inkscape:version="0.48.5 r10040"
   sodipodi:docname="deform.svg"
   version="1.1">
  <defs
     id="defs1874">
    <linearGradient
       id="linearGradient18553">
      <stop
         style="stop-color:#994b00;stop-opacity:1;"
         offset="0"
         id="stop18555" />
      <stop
         style="stop-color:#f57900;stop-opacity:1;"
         offset="1"
         id="stop18557" />
    </linearGradient>
    <linearGradient
       id="linearGradient18545">
      <stop
         style="stop-color:#ff8929;stop-opacity:1;"
         offset="0"
         id="stop18547" />
      <stop
         style="stop-color:#ffdbbe;stop-opacity:1;"
         offset="1"
         id="stop18549" />
    </linearGradient>
    <linearGradient
       id="linearGradient18537">
      <stop
         style="stop-color:#ffb874;stop-opacity:1;"
         offset="0"
         id="stop18539" />
      <stop
         style="stop-color:#ff9c3b;stop-opacity:1;"
         offset="1"
         id="stop18541" />
    </linearGradient>
    <linearGradient
       inkscape:collect="always"
       id="linearGradient2862">
      <stop
         style="stop-color:#2e3436;stop-opacity:1;"
         offset="0"
         id="stop2864" />
      <stop
         style="stop-color:#2e3436;stop-opacity:0;"
         offset="1"
         id="stop2866" />
    </linearGradient>
    <linearGradient
       id="linearGradient2839">
      <stop
         style="stop-color:white;stop-opacity:1;"
         offset="0"
         id="stop2841" />
      <stop
         style="stop-color:#eeeeec;stop-opacity:0;"
         offset="1"
         id="stop2843" />
    </linearGradient>
    <linearGradient
       id="linearGradient2815">
      <stop
         id="stop2817"
         offset="0"
         style="stop-color:#b9ec95;stop-opacity:1;" />
      <stop
         id="stop2819"
         offset="1"
         style="stop-color:#656565;stop-opacity:1;" />
    </linearGradient>
    <linearGradient
       id="linearGradient2781">
      <stop
         style="stop-color:#b8f18f;stop-opacity:1;"
         offset="0"
         id="stop2783" />
      <stop
         style="stop-color:#6ab800;stop-opacity:1;"
         offset="1"
         id="stop2785" />
    </linearGradient>
    <radialGradient
       inkscape:collect="always"
       xlink:href="#linearGradient2862"
       id="radialGradient2868"
       cx="22.349207"
       cy="43.968254"
       fx="22.349207"
       fy="43.968254"
       r="18.476191"
       gradientTransform="matrix(1,0,0,0.249141,0,33.01396)"
       gradientUnits="userSpaceOnUse" />
    <linearGradient
       inkscape:collect="always"
       xlink:href="#linearGradient18537"
       id="linearGradient18543"
       x1="13.088947"
       y1="3.7142854"
       x2="13.196766"
       y2="13.047619"
       gradientUnits="userSpaceOnUse" />
    <linearGradient
       inkscape:collect="always"
       xlink:href="#linearGradient18545"
       id="linearGradient18551"
       x1="3.045933"
       y1="9.1695417"
       x2="22.763126"
       y2="9.1695417"
       gradientUnits="userSpaceOnUse" />
    <radialGradient
       inkscape:collect="always"
       xlink:href="#linearGradient18553"
       id="radialGradient18559"
       cx="18.086046"
       cy="35.748684"
       fx="18.086046"
       fy="35.748684"
       r="18.914827"
       gradientTransform="matrix(0.68606849,-0.21239496,0.43348659,1.4002286,-8.8726153,-7.8464977)"
       gradientUnits="userSpaceOnUse" />
  </defs>
  <sodipodi:namedview
     id="base"
     pagecolor="#ffffff"
     bordercolor="#666666"
     borderopacity="1.0"
     inkscape:pageopacity="0.0"
     inkscape:pageshadow="2"
     inkscape:zoom="10.5"
     inkscape:cx="13.464343"
     inkscape:cy="25.396263"
     inkscape:current-layer="layer2"
     showgrid="true"
     inkscape:grid-bbox="false"
     inkscape:document-units="px"
     inkscape:window-width="2560"
     inkscape:window-height="1475"
     inkscape:window-x="0"
     inkscape:window-y="0"
     inkscape:window-maximized="1" />
  <metadata
     id="metadata1877">
    <rdf:RDF>
      <cc:Work
         rdf:about="">
        <dc:format>image/svg+xml</dc:format>
        <dc:type
           rdf:resource="http://purl.org/dc/dcmitype/StillImage" />
        <dc:title></dc:title>
      </cc:Work>
    </rdf:RDF>
  </metadata>
  <g
     id="layer1"
     inkscape:label="Layer 1"
     inkscape:groupmode="layer">
    <path
       sodipodi:type="arc"
       style="opacity:1;color:black;fill:url(#radialGradient2868);fill-opacity:1;fill-rule:nonzero;stroke:none;stroke-width:0.94728845;stroke-linecap:butt;stroke-linejoin:miter;marker:none;marker-start:none;marker-mid:none;marker-end:none;stroke-miterlimit:4;stroke-dasharray:none;stroke-dashoffset:0;stroke-opacity:1;visibility:visible;display:inline;overflow:visible"
       id="path2852"
       sodipodi:cx="22.349207"
       sodipodi:cy="43.968254"
       sodipodi:rx="18.476191"
       sodipodi:ry="4.6031747"
       d="M 40.825397 43.968254 A 18.476191 4.6031747 0 1 1  3.8730164,43.968254 A 18.476191 4.6031747 0 1 1  40.825397 43.968254 z"
       transform="matrix(1.008887,0,0,1.061502,-1.356033,-3.777852)" />
    <path
       id="path2770"
       style="color:black;fill:url(#radialGradient18559);fill-opacity:1;fill-rule:nonzero;stroke:#9c4600;stroke-width:1;stroke-linecap:butt;stroke-linejoin:miter;marker:none;marker-start:none;marker-mid:none;marker-end:none;stroke-miterlimit:4;stroke-dasharray:none;stroke-dashoffset:0;stroke-opacity:1;visibility:visible;display:inline;overflow:visible"
       d="M 21.717881,2.0925492 C 32.904864,11.694016 40.404672,25.174508 40.684811,41.435855 C 40.730927,44.112746 36.022058,46.924432 29.855451,47.194786 C 23.688842,47.46514 18.43112,45.086386 18.435006,42.205731 C 18.443913,35.539887 17.803486,26.95767 3.8554927,15.226368"
       sodipodi:nodetypes="csssc" />
    <path
       inkscape:connector-curvature="0"
       style="color:#000000;fill:url(#linearGradient18543);fill-opacity:1;fill-rule:nonzero;stroke:none;stroke-width:1;stroke-linecap:butt;stroke-linejoin:miter;stroke-miterlimit:4;stroke-opacity:1;stroke-dashoffset:0;marker:none;visibility:visible;display:inline;overflow:visible"
       d="M 21.710902,2.1278661 C 23.287936,4.2849136 20.474492,8.9184274 15.426901,12.477109 10.379309,16.035789 5.0089882,17.172038 3.4319542,15.014991 1.8549212,12.857944 4.6683642,8.2244295 9.7159566,4.6657478 14.763548,1.1070669 20.133868,-0.02918142 21.710902,2.1278661 z"
       id="path1880-8" />
    <path
       style="color:#000000;fill:none;fill-opacity:1;fill-rule:nonzero;stroke:#ce5c00;stroke-width:1;stroke-linecap:butt;stroke-linejoin:miter;stroke-miterlimit:4;stroke-opacity:1;stroke-dashoffset:0;marker:none;visibility:visible;display:inline;overflow:visible;stroke-dasharray:none"
       d="M 3.545933,15.066912 C 1.9688994,12.909864 4.7823426,8.2763498 9.8299351,4.7176682 14.877527,1.1589872 20.247847,0.02273893 21.824881,2.1797864"
       id="path1880" />
    <path
       inkscape:connector-curvature="0"
       style="fill:none;stroke:#fdd08d;stroke-width:0.99999976000000002px;stroke-linecap:round;stroke-linejoin:miter;stroke-opacity:1"
       d="m 22.345116,10.499057 c 7.770521,7.189205 13.042603,20.495991 13.632424,31.200915"
       id="path2807"
       sodipodi:nodetypes="cc" />
    <path
       sodipodi:nodetypes="cc"
       id="path18564"
       d="m 22.345116,10.499057 c 7.770521,7.189205 13.042603,20.495991 13.632424,31.200915"
       style="fill:none;stroke:#fdd08d;stroke-width:3;stroke-linecap:round;stroke-linejoin:miter;stroke-opacity:0.38666666;stroke-miterlimit:4;stroke-dasharray:none"
       inkscape:connector-curvature="0" />
    <path
       inkscape:connector-curvature="0"
       style="fill:none;stroke:#fdd08d;stroke-width:6;stroke-linecap:round;stroke-linejoin:miter;stroke-opacity:0.38666666000000000;stroke-miterlimit:4;stroke-dasharray:none"
       d="m 22.345116,10.499057 c 7.770521,7.189205 13.042603,20.495991 13.632424,31.200915"
       id="path18566"
       sodipodi:nodetypes="cc" />
    <path
       sodipodi:nodetypes="csssc"
       d="M 22.580261,4.0365093 C 32.69689,13.053872 39.479126,25.714281 39.732462,40.986371 c 0.04171,2.514044 -4.216627,5.15468 -9.793222,5.408589 -5.576597,0.253906 -10.331267,-1.980136 -10.327753,-4.685547 0.008,-6.260329 -0.571097,-14.320449 -13.1845658,-25.338079"
       style="color:#000000;fill:none;stroke:#fcaf3e;stroke-width:1;stroke-linecap:butt;stroke-linejoin:miter;stroke-miterlimit:4;stroke-opacity:1;stroke-dasharray:none;stroke-dashoffset:0;marker:none;visibility:visible;display:inline;overflow:visible"
       id="path18570"
       inkscape:connector-curvature="0" />
    <path
       style="fill:none;stroke:#fee5c1;stroke-width:1px;stroke-linecap:butt;stroke-linejoin:miter;stroke-opacity:1"
       d="M 22.380952,3.6190476 C 30.588214,11.42815 39.303082,23.420555 39.714286,42.47619"
       id="path18568"
       inkscape:connector-curvature="0"
       sodipodi:nodetypes="cc" />
    <path
       style="color:#000000;fill:none;fill-opacity:1;fill-rule:nonzero;stroke:url(#linearGradient18551);stroke-width:1;stroke-linecap:round;stroke-linejoin:miter;stroke-miterlimit:4;stroke-opacity:1;stroke-dashoffset:0;marker:none;visibility:visible;display:inline;overflow:visible;stroke-dasharray:none"
       d="M 21.824881,2.1797864 C 23.401915,4.3368339 20.588471,8.9703477 15.540879,12.529029 10.493287,16.08771 5.1229667,17.223959 3.545933,15.066912"
       id="path18517" />
  </g>
  <g
     inkscape:groupmode="layer"
     id="layer2"
     inkscape:label="Matrix">
    <path
       style="font-size:medium;font-style:normal;font-variant:normal;font-weight:normal;font-stretch:normal;text-indent:0;text-align:start;text-decoration:none;line-height:normal;letter-spacing:normal;word-spacing:normal;text-transform:none;direction:ltr;block-progression:tb;writing-mode:lr-tb;text-anchor:start;baseline-shift:baseline;color:#000000;fill:#000000;fill-opacity:0.30666671;stroke:none;stroke-width:1.5;marker:none;visibility:visible;display:inline;overflow:visible;enable-background:accumulate;font-family:Sans;-inkscape-font-specification:Sans"
       d="M 27.3125 3.53125 L 24.9375 3.625 A 0.75016274 0.75016274 0 1 0 24.96875 5.125 L 26.6875 5.0625 L 29.875 8.1875 L 27.875 8.8125 A 0.750075 0.750075 0 0 0 27.75 8.875 A 0.750075 0.750075 0 0 0 27.46875 8.875 A 0.750075 0.750075 0 0 0 27.03125 10.09375 L 27.375 10.53125 L 27.5 14.21875 A 0.750075 0.750075 0 0 0 27.5 14.25 L 18.6875 12.78125 A 0.750075 0.750075 0 0 0 18.125 12.90625 A 0.750075 0.750075 0 0 0 17.6875 13.875 L 15.46875 20.96875 A 0.750075 0.750075 0 0 0 15.46875 21 L 6.65625 20.03125 L 7.40625 18.65625 A 0.75583666 0.75583666 0 1 0 6.09375 17.90625 L 4.9375 20 A 0.750075 0.750075 0 0 0 4.71875 20 A 0.750075 0.750075 0 0 0 4.25 21.21875 L 9.03125 27.59375 A 0.750075 0.750075 0 0 0 9.59375 27.9375 L 13.28125 30.5 L 11.8125 34.65625 A 0.750075 0.750075 0 0 0 11.1875 35.6875 L 13.15625 41.4375 A 0.75519037 0.75519037 0 0 0 13.53125 42.28125 A 0.76098723 0.76098723 0 0 0 14.34375 42.53125 L 18.84375 44.59375 A 0.750075 0.750075 0 0 0 19.21875 44.65625 A 0.75583666 0.75583666 0 0 0 20.0625 43.6875 L 21.21875 41.3125 L 23.25 44.8125 A 0.7579333 0.7579333 0 0 0 24.125 45.5 A 0.750075 0.750075 0 0 0 24.1875 45.5 A 0.7579333 0.7579333 0 0 0 24.21875 45.5 A 0.750075 0.750075 0 0 0 24.5625 45.34375 L 27.96875 42.5 L 30.15625 44.5625 A 0.75081336 0.75081336 0 0 0 31.59375 44.125 L 31.5625 43.96875 L 32.96875 41.84375 L 35.53125 43.8125 A 0.750075 0.750075 0 0 0 36.28125 44.28125 A 0.750075 0.750075 0 0 0 36.34375 44.28125 A 0.750075 0.750075 0 0 0 36.375 44.28125 A 0.750075 0.750075 0 0 0 37.03125 43.90625 L 38.78125 40.75 L 41.5 42.9375 L 41.53125 42.96875 A 0.75259966 0.75259966 0 0 0 41.5625 43 A 0.750075 0.750075 0 0 0 41.59375 43 A 0.75259966 0.75259966 0 0 0 41.625 43.0625 A 0.750075 0.750075 0 0 0 41.65625 43.0625 A 0.75259966 0.75259966 0 0 0 41.6875 43.09375 A 0.750075 0.750075 0 0 0 41.71875 43.09375 A 0.75259966 0.75259966 0 0 0 42.84375 42.5 L 45.125 39.21875 A 0.750075 0.750075 0 0 0 45.5625 38.15625 L 43.3125 31.21875 L 44.34375 26.375 A 0.750075 0.750075 0 0 0 44.4375 25.3125 L 40.09375 18.71875 L 34.6875 7.46875 A 0.750075 0.750075 0 0 0 33.875 7.0625 L 27.6875 3.625 A 0.750075 0.750075 0 0 0 27.3125 3.53125 z M 30.96875 7.1875 L 31.71875 7.625 L 31.46875 7.6875 L 30.96875 7.1875 z M 33.5625 8.625 L 34.59375 10.78125 L 32.6875 8.90625 L 33.5625 8.625 z M 31.0625 9.40625 L 34.0625 12.375 L 32.5 12.5 A 0.75259966 0.75259966 0 1 0 32.625 14 L 35.375 13.75 L 37.5625 17.40625 L 34.21875 16.4375 A 0.750075 0.750075 0 0 0 34.125 16.40625 L 28.9375 10.0625 L 31.0625 9.40625 z M 28.9375 12.46875 L 32.90625 17.3125 L 30.4375 20.40625 L 28.96875 15.46875 A 0.750075 0.750075 0 0 0 29.03125 15.125 L 28.9375 12.46875 z M 19.8125 14.5 L 27.03125 15.6875 L 26.3125 18.90625 L 23.71875 20.875 L 19.8125 14.5 z M 18.71875 15.59375 L 22.03125 21.03125 L 17.0625 20.90625 L 18.71875 15.59375 z M 28.09375 17.75 L 28.6875 19.8125 L 27.8125 19.0625 L 28.09375 17.75 z M 34.78125 18.1875 L 37.90625 19.0625 L 35.46875 23.84375 L 34.78125 18.1875 z M 33.375 19.125 L 34.28125 26.15625 L 29.84375 31.5625 L 30.875 22.4375 L 30.96875 22.125 L 33.375 19.125 z M 39.125 19.96875 L 42.34375 24.875 L 38.4375 24.59375 A 0.750075 0.750075 0 0 0 38.21875 24.59375 A 0.75146342 0.75146342 0 1 0 38.3125 26.09375 L 42.78125 26.40625 L 42 30.09375 L 35.96875 26.28125 L 39.125 19.96875 z M 26.9375 20.3125 L 29.3125 22.3125 L 27.28125 28.5 L 22.84375 27.6875 L 24.375 22.25 L 26.9375 20.3125 z M 6.375 21.53125 L 14.4375 22.40625 L 12.96875 23.96875 A 0.75162584 0.75162584 0 0 0 13.0625 25.09375 L 13.1875 28.59375 L 10.65625 26.84375 L 12.34375 24.3125 A 0.750075 0.750075 0 1 0 11.09375 23.5 L 9.5625 25.78125 L 6.375 21.53125 z M 17.625 22.40625 L 22.75 22.53125 L 21.5625 26.75 L 17.625 22.40625 z M 16.40625 23.3125 L 19.15625 26.34375 L 16.03125 25.0625 L 16.40625 23.3125 z M 14.65625 24.34375 L 14.625 24.46875 L 14.5625 24.4375 L 14.65625 24.34375 z M 16.65625 26.9375 L 21.1875 28.78125 L 21.28125 32.125 L 16.65625 26.9375 z M 15.40625 27.75 L 21 34.0625 L 16.28125 36.53125 L 15.84375 34.625 L 16.96875 34.09375 A 0.750075 0.750075 0 1 0 16.34375 32.75 L 15.5 33.15625 L 14.8125 30.375 A 0.750075 0.750075 0 0 0 14.8125 30.34375 L 15.40625 27.75 z M 34.78125 27.84375 L 37.125 34.1875 L 30.375 33.25 L 34.78125 27.84375 z M 36.625 28.46875 L 39.375 30.21875 L 38.75 30.1875 A 0.750075 0.750075 0 0 0 38.3125 30.09375 A 0.750075 0.750075 0 0 0 37.96875 30.21875 A 0.750075 0.750075 0 0 0 37.75 30.40625 A 0.750075 0.750075 0 0 0 37.71875 30.4375 A 0.750075 0.750075 0 0 0 37.71875 30.46875 A 0.750075 0.750075 0 0 0 37.53125 30.9375 L 36.625 28.46875 z M 22.6875 29.15625 L 26.8125 29.9375 L 24.84375 36 L 22.84375 34.15625 L 22.6875 29.15625 z M 28.59375 29.28125 L 28.15625 33.4375 L 26.875 34.5 L 28.59375 29.28125 z M 40 31.75 L 41.875 31.78125 L 41.9375 31.8125 L 43.875 37.8125 L 42.46875 37.5625 L 42.28125 34.90625 A 0.750075 0.750075 0 0 0 42.125 34.5 L 40 31.75 z M 39.125 33.03125 L 40.8125 35.21875 L 40.96875 37.34375 A 0.750075 0.750075 0 0 0 40.9375 37.34375 A 0.750075 0.750075 0 0 0 40.9375 38.84375 L 41.0625 38.875 L 41.21875 40.8125 L 39.125 39.09375 L 39.125 35.5 A 0.750075 0.750075 0 0 0 39.21875 35.09375 L 39.125 33.03125 z M 13.96875 33.09375 L 14.125 33.78125 L 13.625 34 L 13.96875 33.09375 z M 32.375 35.03125 L 36.0625 35.5625 L 34.625 36.375 L 32.375 35.03125 z M 14.46875 35.25 L 14.65625 36 L 13.90625 35.53125 L 14.46875 35.25 z M 28.25 35.28125 L 29.625 42 L 28.5 40.96875 A 0.750075 0.750075 0 0 0 28.3125 40.84375 L 26.125 37.125 L 28.25 35.28125 z M 22.3125 35.6875 L 24.375 37.625 A 0.750075 0.750075 0 0 0 24.375 37.71875 L 23.625 42.4375 L 21.8125 39.375 L 22.3125 35.6875 z M 20.75 35.875 L 20.3125 39.34375 A 0.750075 0.750075 0 0 0 20.3125 39.71875 L 19.1875 42.0625 L 18.5625 41 A 0.750075 0.750075 0 0 0 17.84375 39.6875 L 16.84375 37.9375 L 20.75 35.875 z M 31 36 L 34.09375 37.8125 L 34.96875 41.5 L 33.40625 40.3125 L 31 36 z M 37.625 36.375 L 37.625 39.25 A 0.750075 0.750075 0 0 0 37.71875 39.625 L 36.5625 41.71875 L 35.59375 37.53125 L 37.625 36.375 z M 13.1875 36.84375 L 14.8125 37.875 L 14.09375 39.46875 L 13.1875 36.84375 z M 30.3125 37.8125 L 31.90625 40.6875 L 31.125 41.90625 L 30.3125 37.8125 z M 42.59375 39.09375 L 43.28125 39.21875 L 42.65625 40.09375 L 42.59375 39.09375 z M 15.875 39.21875 L 16.40625 40.1875 L 15.21875 40.625 L 15.875 39.21875 z M 25.65625 39.28125 L 26.9375 41.4375 L 25.0625 43 L 25.65625 39.28125 z M 17.125 41.5 L 17.625 42.375 L 16.34375 41.78125 L 17.125 41.5 z "
       id="path18679" />
    <g
       id="g18641">
      <path
         inkscape:connector-curvature="0"
         id="path18573"
         d="m 24.952381,4.3809523 2.380952,-0.095238 6.285715,3.5238095 -5.52381,1.7142857 0.190476,5.6190475 L 18.571429,13.52381 16,21.809524 5.4285714,20.666667 6.7619048,18.285714"
         style="fill:none;stroke:#a5c2e0;stroke-width:0.50000000000000000;stroke-linecap:round;stroke-linejoin:miter;stroke-opacity:1;stroke-miterlimit:4;stroke-dasharray:none" />
      <path
         inkscape:connector-curvature="0"
         id="path18575"
         d="m 32.571429,13.238095 3.238095,-0.285714 3.333333,5.714286 L 34,17.142857 30.095238,22 26.952381,19.333333 23.714286,21.809524 21.904762,28.285714 13.809524,24.952381 14,30.095238 9.6190476,27.047619 11.714286,23.904762"
         style="fill:none;stroke:#a5c2e0;stroke-width:0.50000000000000000;stroke-linecap:round;stroke-linejoin:miter;stroke-opacity:1;stroke-miterlimit:4;stroke-dasharray:none" />
      <path
         inkscape:connector-curvature="0"
         id="path18577"
         d="m 16.666667,33.428571 -4.285715,2 3.428572,2.190477 L 22,34.380952 l 2.952381,2.761905 3.904762,-3.333333 9.619047,1.333333 -0.190476,-4.190476 4.285715,0.09524 1.142857,-5.333333 -5.333334,-0.380953"
         style="fill:none;stroke:#a5c2e0;stroke-width:0.50000000000000000;stroke-linecap:round;stroke-linejoin:miter;stroke-opacity:1;stroke-miterlimit:4;stroke-dasharray:none" />
      <path
         inkscape:connector-curvature="0"
         id="path18579"
         d="m 18.095238,40.380952 -3.714286,1.333334 4.761905,2.190476 2,-4.190476 2.952381,5.047619 L 28,41.52381 30.666667,44 32.761905,40.761905 36.380952,43.52381 38.571429,39.619048 42,42.380952 l 2.571429,-3.714285 -3.52381,-0.571429"
         style="fill:none;stroke:#a5c2e0;stroke-width:0.50000000000000000;stroke-linecap:round;stroke-linejoin:miter;stroke-opacity:1;stroke-miterlimit:4;stroke-dasharray:none" />
      <path
         inkscape:connector-curvature="0"
         id="path18581"
         d="m 4.8571429,20.761905 4.7619047,6.380952"
         style="fill:none;stroke:#a5c2e0;stroke-width:0.50000000000000000;stroke-linecap:round;stroke-linejoin:miter;stroke-opacity:1;stroke-miterlimit:4;stroke-dasharray:none" />
      <path
         inkscape:connector-curvature="0"
         id="path18583"
         d="M 13.52381,24.47619 16,21.809524 14.095238,30.190476"
         style="fill:none;stroke:#a5c2e0;stroke-width:0.50000000000000000;stroke-linecap:round;stroke-linejoin:miter;stroke-opacity:1;stroke-miterlimit:4;stroke-dasharray:none" />
      <path
         inkscape:connector-curvature="0"
         id="path18585"
         d="m 15.904762,21.619048 6,6.666666"
         style="fill:none;stroke:#a5c2e0;stroke-width:0.50000000000000000;stroke-linecap:round;stroke-linejoin:miter;stroke-opacity:1;stroke-miterlimit:4;stroke-dasharray:none" />
      <path
         inkscape:connector-curvature="0"
         id="path18587"
         d="M 23.52381,22 18.380952,13.619048"
         style="fill:none;stroke:#a5c2e0;stroke-width:0.50000000000000000;stroke-linecap:round;stroke-linejoin:miter;stroke-opacity:1;stroke-miterlimit:4;stroke-dasharray:none" />
      <path
         inkscape:connector-curvature="0"
         id="path18589"
         d="M 26.952381,19.428571 28,14.761905 l 2,6.857143"
         style="fill:none;stroke:#a5c2e0;stroke-width:0.50000000000000000;stroke-linecap:round;stroke-linejoin:miter;stroke-opacity:1;stroke-miterlimit:4;stroke-dasharray:none" />
      <path
         inkscape:connector-curvature="0"
         id="path18591"
         d="M 33.809524,17.238095 27.619048,9.6190476"
         style="fill:none;stroke:#a5c2e0;stroke-width:0.50000000000000000;stroke-linecap:round;stroke-linejoin:miter;stroke-opacity:1;stroke-miterlimit:4;stroke-dasharray:none" />
      <path
         inkscape:connector-curvature="0"
         id="path18593"
         d="M 34,7.8095238 39.428571,19.047619"
         style="fill:none;stroke:#a5c2e0;stroke-width:0.50000000000000000;stroke-linecap:round;stroke-linejoin:miter;stroke-opacity:1;stroke-miterlimit:4;stroke-dasharray:none" />
      <path
         inkscape:connector-curvature="0"
         id="path18595"
         d="M 35.619048,12.857143 27.047619,4.3809524"
         style="fill:none;stroke:#a5c2e0;stroke-width:0.50000000000000000;stroke-linecap:round;stroke-linejoin:miter;stroke-opacity:1;stroke-miterlimit:4;stroke-dasharray:none" />
      <path
         inkscape:connector-curvature="0"
         id="path18597"
         d="m 16.190476,21.619048 7.52381,0.190476"
         style="fill:none;stroke:#a5c2e0;stroke-width:0.50000000000000000;stroke-linecap:round;stroke-linejoin:miter;stroke-opacity:1;stroke-miterlimit:4;stroke-dasharray:none" />
      <path
         inkscape:connector-curvature="0"
         id="path18599"
         d="m 12.285714,35.52381 1.809524,-5.04762 1.714286,7.238096"
         style="fill:none;stroke:#a5c2e0;stroke-width:0.50000000000000000;stroke-linecap:round;stroke-linejoin:miter;stroke-opacity:1;stroke-miterlimit:4;stroke-dasharray:none" />
      <path
         inkscape:connector-curvature="0"
         id="path18601"
         d="m 21.904762,28.190476 0.190476,6 -8.190476,-9.238095"
         style="fill:none;stroke:#a5c2e0;stroke-width:0.50000000000000000;stroke-linecap:round;stroke-linejoin:miter;stroke-opacity:1;stroke-miterlimit:4;stroke-dasharray:none" />
      <path
         inkscape:connector-curvature="0"
         id="path18603"
         d="M 25.142857,37.428571 30.285714,21.809524"
         style="fill:none;stroke:#a5c2e0;stroke-width:0.50000000000000000;stroke-linecap:round;stroke-linejoin:miter;stroke-opacity:1;stroke-miterlimit:4;stroke-dasharray:none" />
      <path
         inkscape:connector-curvature="0"
         id="path18605"
         d="m 28.857143,33.714286 1.333333,-12"
         style="fill:none;stroke:#a5c2e0;stroke-width:0.50000000000000000;stroke-linecap:round;stroke-linejoin:miter;stroke-opacity:1;stroke-miterlimit:4;stroke-dasharray:none" />
      <path
         inkscape:connector-curvature="0"
         id="path18607"
         d="m 27.619048,29.333333 -5.52381,-1.047619"
         style="fill:none;stroke:#a5c2e0;stroke-width:0.50000000000000000;stroke-linecap:round;stroke-linejoin:miter;stroke-opacity:1;stroke-miterlimit:4;stroke-dasharray:none" />
      <path
         inkscape:connector-curvature="0"
         id="path18609"
         d="m 33.904762,17.238095 1.142857,9.142857 -6.095238,7.428572"
         style="fill:none;stroke:#a5c2e0;stroke-width:0.50000000000000000;stroke-linecap:round;stroke-linejoin:miter;stroke-opacity:1;stroke-miterlimit:4;stroke-dasharray:none" />
      <path
         inkscape:connector-curvature="0"
         id="path18611"
         d="m 38.190476,34.952381 -3.142857,-8.571429 4,-7.904762 4.761905,7.238096"
         style="fill:none;stroke:#a5c2e0;stroke-width:0.50000000000000000;stroke-linecap:round;stroke-linejoin:miter;stroke-opacity:1;stroke-miterlimit:4;stroke-dasharray:none" />
      <path
         inkscape:connector-curvature="0"
         id="path18613"
         d="m 42.571429,31.333333 -7.52381,-4.761904"
         style="fill:none;stroke:#a5c2e0;stroke-width:0.50000000000000000;stroke-linecap:round;stroke-linejoin:miter;stroke-opacity:1;stroke-miterlimit:4;stroke-dasharray:none" />
      <path
         inkscape:connector-curvature="0"
         id="path18615"
         d="m 11.904762,35.428571 2.190476,6.380953"
         style="fill:none;stroke:#a5c2e0;stroke-width:0.50000000000000000;stroke-linecap:round;stroke-linejoin:miter;stroke-opacity:1;stroke-miterlimit:4;stroke-dasharray:none" />
      <path
         inkscape:connector-curvature="0"
         id="path18617"
         d="m 15.809524,37.52381 -1.904762,4.095238"
         style="fill:none;stroke:#a5c2e0;stroke-width:0.50000000000000000;stroke-linecap:round;stroke-linejoin:miter;stroke-opacity:1;stroke-miterlimit:4;stroke-dasharray:none" />
      <path
         inkscape:connector-curvature="0"
         id="path18619"
         d="M 19.333333,43.904762 15.714286,37.428571"
         style="fill:none;stroke:#a5c2e0;stroke-width:0.50000000000000000;stroke-linecap:round;stroke-linejoin:miter;stroke-opacity:1;stroke-miterlimit:4;stroke-dasharray:none" />
      <path
         inkscape:connector-curvature="0"
         id="path18621"
         d="m 21.047619,39.428571 0.666667,-5.047619"
         style="fill:none;stroke:#a5c2e0;stroke-width:0.50000000000000000;stroke-linecap:round;stroke-linejoin:miter;stroke-opacity:1;stroke-miterlimit:4;stroke-dasharray:none" />
      <path
         inkscape:connector-curvature="0"
         id="path18623"
         d="M 25.238095,37.142857 24,44.761905"
         style="fill:none;stroke:#a5c2e0;stroke-width:0.50000000000000000;stroke-linecap:round;stroke-linejoin:miter;stroke-opacity:1;stroke-miterlimit:4;stroke-dasharray:none" />
      <path
         inkscape:connector-curvature="0"
         id="path18625"
         d="M 27.904762,41.619048 25.142857,36.952381"
         style="fill:none;stroke:#a5c2e0;stroke-width:0.50000000000000000;stroke-linecap:round;stroke-linejoin:miter;stroke-opacity:1;stroke-miterlimit:4;stroke-dasharray:none" />
      <path
         inkscape:connector-curvature="0"
         id="path18627"
         d="m 29.047619,34 3.714286,6.666667"
         style="fill:none;stroke:#a5c2e0;stroke-width:0.50000000000000000;stroke-linecap:round;stroke-linejoin:miter;stroke-opacity:1;stroke-miterlimit:4;stroke-dasharray:none" />
      <path
         inkscape:connector-curvature="0"
         id="path18629"
         d="M 30.857143,44.285714 28.761905,34"
         style="fill:none;stroke:#a5c2e0;stroke-width:0.50000000000000000;stroke-linecap:round;stroke-linejoin:miter;stroke-opacity:1;stroke-miterlimit:4;stroke-dasharray:none" />
      <path
         inkscape:connector-curvature="0"
         id="path18631"
         d="m 38.380952,39.238095 0,-4.285714"
         style="fill:none;stroke:#a5c2e0;stroke-width:0.50000000000000000;stroke-linecap:round;stroke-linejoin:miter;stroke-opacity:1;stroke-miterlimit:4;stroke-dasharray:none" />
      <path
         inkscape:connector-curvature="0"
         id="path18633"
         d="M 36.190476,43.428571 34.761905,37.333333 29.142857,34"
         style="fill:none;stroke:#a5c2e0;stroke-width:0.50000000000000000;stroke-linecap:round;stroke-linejoin:miter;stroke-opacity:1;stroke-miterlimit:4;stroke-dasharray:none" />
      <path
         inkscape:connector-curvature="0"
         id="path18635"
         d="m 34.761905,37.142857 3.523809,-2"
         style="fill:none;stroke:#a5c2e0;stroke-width:0.50000000000000000;stroke-linecap:round;stroke-linejoin:miter;stroke-opacity:1;stroke-miterlimit:4;stroke-dasharray:none" />
      <path
         inkscape:connector-curvature="0"
         id="path18637"
         d="M 44.857143,38.380952 42.47619,31.047619"
         style="fill:none;stroke:#a5c2e0;stroke-width:0.50000000000000000;stroke-linecap:round;stroke-linejoin:miter;stroke-opacity:1;stroke-miterlimit:4;stroke-dasharray:none" />
      <path
         inkscape:connector-curvature="0"
         id="path18639"
         d="M 42.095238,42.47619 41.52381,34.952381 38.380952,30.857143"
         style="fill:none;stroke:#a5c2e0;stroke-width:0.50000000000000000;stroke-linecap:round;stroke-linejoin:miter;stroke-opacity:1;stroke-miterlimit:4;stroke-dasharray:none" />
    </g>
  </g>
</svg>
