<?xml version="1.0" encoding="UTF-8" standalone="no"?>
<!-- Created with Inkscape (http://www.inkscape.org/) -->
<svg
   xmlns:dc="http://purl.org/dc/elements/1.1/"
   xmlns:cc="http://web.resource.org/cc/"
   xmlns:rdf="http://www.w3.org/1999/02/22-rdf-syntax-ns#"
   xmlns:svg="http://www.w3.org/2000/svg"
   xmlns="http://www.w3.org/2000/svg"
   xmlns:xlink="http://www.w3.org/1999/xlink"
   xmlns:sodipodi="http://sodipodi.sourceforge.net/DTD/sodipodi-0.dtd"
   xmlns:inkscape="http://www.inkscape.org/namespaces/inkscape"
   width="48px"
   height="48px"
   id="svg2160"
   sodipodi:version="0.32"
   inkscape:version="0.45.1"
   sodipodi:docbase="C:\dev\src\houdini\support\icons\SOP"
   sodipodi:docname="pointjitter.svg"
   inkscape:output_extension="org.inkscape.output.svg.inkscape">
  <defs
     id="defs2162">
    <linearGradient
       id="linearGradient3273">
      <stop
         id="stop3275"
         offset="0"
         style="stop-color:#b0b4bb;stop-opacity:1;" />
      <stop
         id="stop3277"
         offset="1"
         style="stop-color:#d3d5d8;stop-opacity:1;" />
    </linearGradient>
    <linearGradient
       id="linearGradient3267">
      <stop
         id="stop3269"
         offset="0"
         style="stop-color:#d3d4d8;stop-opacity:1" />
      <stop
         id="stop3271"
         offset="1"
         style="stop-color:#f5f5f6;stop-opacity:1;" />
    </linearGradient>
    <linearGradient
       inkscape:collect="always"
       id="linearGradient3255">
      <stop
         style="stop-color:#7f8590;stop-opacity:1;"
         offset="0"
         id="stop3257" />
      <stop
         style="stop-color:#c2c5ca;stop-opacity:1"
         offset="1"
         id="stop3259" />
    </linearGradient>
    <linearGradient
       inkscape:collect="always"
       xlink:href="#linearGradient3255"
       id="linearGradient3261"
       x1="23.82555"
       y1="19.257202"
       x2="44.468746"
       y2="37.614346"
       gradientUnits="userSpaceOnUse" />
    <linearGradient
       inkscape:collect="always"
       xlink:href="#linearGradient3267"
       id="linearGradient3263"
       gradientUnits="userSpaceOnUse"
       x1="18.111265"
       y1="4.471488"
       x2="34.397316"
       y2="16.900061" />
    <linearGradient
       inkscape:collect="always"
       xlink:href="#linearGradient3273"
       id="linearGradient3265"
       gradientUnits="userSpaceOnUse"
       x1="1.2541215"
       y1="11.40006"
       x2="22.968746"
       y2="46.257202" />
  </defs>
  <sodipodi:namedview
     id="base"
     pagecolor="#ffffff"
     bordercolor="#666666"
     borderopacity="1.0"
     inkscape:pageopacity="0.0"
     inkscape:pageshadow="2"
     inkscape:zoom="14"
     inkscape:cx="24"
     inkscape:cy="24"
     inkscape:current-layer="layer1"
     showgrid="true"
     inkscape:grid-bbox="false"
     inkscape:document-units="px"
     inkscape:window-width="1345"
     inkscape:window-height="1052"
     inkscape:window-x="306"
     inkscape:window-y="18" />
  <metadata
     id="metadata2165">
    <rdf:RDF>
      <cc:Work
         rdf:about="">
        <dc:format>image/svg+xml</dc:format>
        <dc:type
           rdf:resource="http://purl.org/dc/dcmitype/StillImage" />
      </cc:Work>
    </rdf:RDF>
  </metadata>
  <g
     id="layer1"
     inkscape:label="Layer 1"
     inkscape:groupmode="layer">
    <path
       id="path3223"
       style="fill:url(#linearGradient3263);fill-rule:evenodd;stroke:none;stroke-width:1px;stroke-linecap:butt;stroke-linejoin:miter;stroke-opacity:1;opacity:1;color:#000000;fill-opacity:1.0;marker:none;marker-start:none;marker-mid:none;marker-end:none;stroke-miterlimit:4;stroke-dasharray:none;stroke-dashoffset:0;visibility:visible;display:inline;overflow:visible;enable-background:accumulate"
       d="M 46.484198,8.7065556 L 39.097835,12.013073 L 35.307973,17.427254 L 23.164945,18.89682 L 19.916493,15.261582 L 10.557852,15.106891 L 0.38710168,10.446828 L 10.325821,9.0352738 L 18.446955,3.5437469 L 23.010259,0.91400169 L 33.142338,4.5492377 L 38.711115,7.4883647 L 46.484198,8.7065556 z "
       sodipodi:nodetypes="ccccccccccccc" />
    <path
       id="path3227"
       style="fill:url(#linearGradient3261);fill-rule:evenodd;stroke:none;stroke-width:1px;stroke-linecap:butt;stroke-linejoin:miter;stroke-opacity:1;fill-opacity:1.0"
       d="M 23.667683,47.263262 L 26.877464,38.465218 L 23.706355,29.029072 L 23.396978,19.128855 L 35.617349,17.659291 L 39.407211,12.24511 L 46.754904,8.8225738 L 47.683033,17.001853 L 46.522872,29.609163 L 44.975988,38.039818 L 39.716589,41.05629 L 33.606402,43.531343 L 23.667683,47.263262 z "
       sodipodi:nodetypes="ccccccccccccc" />
    <path
       id="path3229"
       style="fill:url(#linearGradient3265);fill-rule:evenodd;stroke:none;stroke-width:1px;stroke-linecap:butt;stroke-linejoin:miter;stroke-opacity:1;opacity:1;color:#000000;fill-opacity:1.0;marker:none;marker-start:none;marker-mid:none;marker-end:none;stroke-miterlimit:4;stroke-dasharray:none;stroke-dashoffset:0;visibility:visible;display:inline;overflow:visible;enable-background:accumulate"
       d="M 23.126273,19.090181 L 23.358306,28.990399 L 26.529415,38.426543 L 23.454986,47.205252 L 21.386032,45.232943 L 12.104737,43.995416 L 5.6851742,35.255381 L 3.7515715,30.227926 L 3.7515715,21.410545 L 0.44510952,10.504838 L 10.519181,15.300254 L 19.87782,15.454946 L 23.126273,19.090181 z "
       sodipodi:nodetypes="ccccccccccccc" />
    <path
       style="fill:none;fill-rule:evenodd;stroke:#000000;stroke-width:1px;stroke-linecap:butt;stroke-linejoin:miter;stroke-opacity:1"
       d="M 5.6078299,35.371399 L 12.027392,44.111434 L 21.308687,45.348961 L 23.551667,47.282597 L 33.451714,43.570016 L 39.561901,41.094962 L 44.8213,38.078489 L 46.368184,29.647835 L 47.528345,17.040527 L 46.600217,8.7645648 L 38.78846,7.5270375 L 33.219683,4.5879106 L 23.087602,0.95267459 L 18.524298,3.5824198 L 10.403165,9.0739466 L 0.50311764,10.620856 L 3.6742268,21.526563 L 3.6742268,30.343943 L 5.6078299,35.371399 z "
       id="path2229" />
    <path
       style="fill:none;fill-rule:evenodd;stroke:#000000;stroke-width:1px;stroke-linecap:butt;stroke-linejoin:miter;stroke-opacity:1"
       d="M 0.50311764,10.466165 L 10.712541,15.261582 L 20.071182,15.416273 L 23.396978,19.051509"
       id="path3201" />
    <path
       style="fill:none;fill-rule:evenodd;stroke:#000000;stroke-width:1px;stroke-linecap:butt;stroke-linejoin:miter;stroke-opacity:1"
       d="M 46.600217,8.8419102 L 39.252523,12.167764 L 35.462661,17.581945 L 23.24229,19.051509"
       id="path3203" />
    <path
       style="fill:none;fill-rule:evenodd;stroke:#000000;stroke-width:1px;stroke-linecap:butt;stroke-linejoin:miter;stroke-opacity:1"
       d="M 23.474323,47.205252 L 26.722776,38.387871 L 23.551667,28.951726 L 23.24229,19.051509"
       id="path3205" />
    <path
       style="fill:none;fill-rule:evenodd;stroke:#000000;stroke-width:0.5;stroke-linecap:butt;stroke-linejoin:miter;stroke-miterlimit:4;stroke-dasharray:none;stroke-opacity:1"
       d="M 11.950049,44.111434 L 13.032866,32.200235 L 12.104736,21.835945 L 10.635198,15.261582 L 19.29774,9.7700552 L 26.490743,6.3668559 L 33.374371,4.8199469"
       id="path3207" />
    <path
       style="fill:none;fill-rule:evenodd;stroke:#000000;stroke-width:0.5;stroke-linecap:butt;stroke-linejoin:miter;stroke-miterlimit:4;stroke-dasharray:none;stroke-opacity:1"
       d="M 21.231343,45.19427 L 16.513351,34.211217 L 16.66804,25.780563 L 19.993837,15.493618 L 26.258711,14.488127 L 35.307974,8.1458012 L 38.78846,7.6043831"
       id="path3209" />
    <path
       style="fill:none;fill-rule:evenodd;stroke:#000000;stroke-width:0.5;stroke-linecap:butt;stroke-linejoin:miter;stroke-miterlimit:4;stroke-dasharray:none;stroke-opacity:1"
       d="M 33.297026,43.724706 L 31.750145,34.365907 L 33.142339,25.007109 L 35.462661,17.504601"
       id="path3211" />
    <path
       style="fill:none;fill-rule:evenodd;stroke:#000000;stroke-width:0.5;stroke-linecap:butt;stroke-linejoin:miter;stroke-miterlimit:4;stroke-dasharray:none;stroke-opacity:1"
       d="M 39.561901,41.094962 L 41.650192,33.283071 L 41.108783,24.388344 L 39.329869,12.24511"
       id="path3213" />
    <path
       style="fill:none;fill-rule:evenodd;stroke:#000000;stroke-width:0.5;stroke-linecap:butt;stroke-linejoin:miter;stroke-miterlimit:4;stroke-dasharray:none;stroke-opacity:1"
       d="M 3.6742268,21.526563 L 11.950049,21.7586 L 16.745384,26.012599 L 23.551667,28.951726 L 33.142339,25.007109 L 41.108783,24.46569 L 47.528345,17.427255"
       id="path3215" />
    <path
       style="fill:none;fill-rule:evenodd;stroke:#000000;stroke-width:0.5;stroke-linecap:butt;stroke-linejoin:miter;stroke-miterlimit:4;stroke-dasharray:none;stroke-opacity:1"
       d="M 3.3648503,30.266599 L 13.110209,32.12289 L 16.513351,34.288562 L 26.722776,38.542562 L 31.827488,34.443254 L 41.650192,33.360417 L 46.445527,29.647835"
       id="path3217" />
    <path
       style="fill:none;fill-rule:evenodd;stroke:#000000;stroke-width:0.5;stroke-linecap:butt;stroke-linejoin:miter;stroke-miterlimit:4;stroke-dasharray:none;stroke-opacity:1"
       d="M 10.171133,9.1512918 L 19.065708,9.7700552 L 26.181367,14.410783 L 35.385318,17.581945"
       id="path3219" />
    <path
       style="fill:none;fill-rule:evenodd;stroke:#000000;stroke-width:0.5;stroke-linecap:butt;stroke-linejoin:miter;stroke-miterlimit:4;stroke-dasharray:none;stroke-opacity:1"
       d="M 39.252523,12.090419 L 35.23063,8.1458012 L 26.413399,6.2895105 L 18.292265,3.4277288"
       id="path3221" />
  </g>
</svg>
