<?xml version="1.0" encoding="UTF-8" standalone="no"?>
<!-- Created with Inkscape (http://www.inkscape.org/) -->

<svg
   xmlns:dc="http://purl.org/dc/elements/1.1/"
   xmlns:cc="http://creativecommons.org/ns#"
   xmlns:rdf="http://www.w3.org/1999/02/22-rdf-syntax-ns#"
   xmlns:svg="http://www.w3.org/2000/svg"
   xmlns="http://www.w3.org/2000/svg"
   xmlns:xlink="http://www.w3.org/1999/xlink"
   xmlns:sodipodi="http://sodipodi.sourceforge.net/DTD/sodipodi-0.dtd"
   xmlns:inkscape="http://www.inkscape.org/namespaces/inkscape"
   width="48px"
   height="48px"
   id="svg2985"
   version="1.1"
   inkscape:version="0.48.5 r10040"
   sodipodi:docname="posespaceedit.svg">
  <defs
     id="defs2987">
    <linearGradient
       id="linearGradient50585">
      <stop
         style="stop-color:#ffffff;stop-opacity:1;"
         offset="0"
         id="stop50587" />
      <stop
         style="stop-color:#b5b5b5;stop-opacity:1;"
         offset="1"
         id="stop50589" />
    </linearGradient>
    <linearGradient
       id="linearGradient50572">
      <stop
         id="stop50574"
         offset="0"
         style="stop-color:#c6c6c6;stop-opacity:1;" />
      <stop
         id="stop50576"
         offset="0.37141183"
         style="stop-color:#e3e3e3;stop-opacity:1;" />
      <stop
         id="stop50578"
         offset="1"
         style="stop-color:#afafaf;stop-opacity:1;" />
    </linearGradient>
    <linearGradient
       id="linearGradient50550">
      <stop
         style="stop-color:#959595;stop-opacity:1;"
         offset="0"
         id="stop50552" />
      <stop
         style="stop-color:#bfbfbf;stop-opacity:1;"
         offset="0.37141183"
         id="stop50560" />
      <stop
         style="stop-color:#7c7c7c;stop-opacity:1;"
         offset="1"
         id="stop50554" />
    </linearGradient>
    <linearGradient
       inkscape:collect="always"
       id="linearGradient3980">
      <stop
         style="stop-color:#8f5902;stop-opacity:1;"
         offset="0"
         id="stop3982" />
      <stop
         style="stop-color:#8f5902;stop-opacity:0;"
         offset="1"
         id="stop3984" />
    </linearGradient>
    <linearGradient
       id="linearGradient3962">
      <stop
         style="stop-color:#edc78b;stop-opacity:0.64864862;"
         offset="0"
         id="stop3964" />
      <stop
         style="stop-color:#e9b96e;stop-opacity:0;"
         offset="1"
         id="stop3966" />
    </linearGradient>
    <linearGradient
       inkscape:collect="always"
       id="linearGradient3950">
      <stop
         style="stop-color:#8f5902;stop-opacity:1;"
         offset="0"
         id="stop3952" />
      <stop
         style="stop-color:#8f5902;stop-opacity:0;"
         offset="1"
         id="stop3954" />
    </linearGradient>
    <linearGradient
       id="linearGradient3942">
      <stop
         id="stop3944"
         offset="0"
         style="stop-color:#e9b96e;stop-opacity:0.65765768;" />
      <stop
         id="stop3946"
         offset="1"
         style="stop-color:#ffffff;stop-opacity:0;" />
    </linearGradient>
    <linearGradient
       inkscape:collect="always"
       id="linearGradient3922">
      <stop
         style="stop-color:#ecc384;stop-opacity:1;"
         offset="0"
         id="stop3924" />
      <stop
         style="stop-color:#ecc384;stop-opacity:0;"
         offset="1"
         id="stop3926" />
    </linearGradient>
    <linearGradient
       id="linearGradient3896">
      <stop
         style="stop-color:#955d03;stop-opacity:1;"
         offset="0"
         id="stop3898" />
      <stop
         style="stop-color:#6c4402;stop-opacity:1;"
         offset="1"
         id="stop3900" />
    </linearGradient>
    <linearGradient
       id="linearGradient3888">
      <stop
         style="stop-color:#ffbb7a;stop-opacity:1;"
         offset="0"
         id="stop3890" />
      <stop
         style="stop-color:#ffffff;stop-opacity:0;"
         offset="1"
         id="stop3892" />
    </linearGradient>
    <linearGradient
       inkscape:collect="always"
       id="linearGradient3878">
      <stop
         style="stop-color:#8f5902;stop-opacity:1;"
         offset="0"
         id="stop3880" />
      <stop
         style="stop-color:#8f5902;stop-opacity:0;"
         offset="1"
         id="stop3882" />
    </linearGradient>
    <linearGradient
       inkscape:collect="always"
       id="linearGradient3870">
      <stop
         style="stop-color:#8f5902;stop-opacity:1;"
         offset="0"
         id="stop3872" />
      <stop
         style="stop-color:#8f5902;stop-opacity:0;"
         offset="1"
         id="stop3874" />
    </linearGradient>
    <linearGradient
       id="linearGradient3862">
      <stop
         style="stop-color:#e9b96e;stop-opacity:1"
         offset="0"
         id="stop3864" />
      <stop
         id="stop3948"
         offset="0.76889235"
         style="stop-color:#c17d11;stop-opacity:1;" />
      <stop
         style="stop-color:#905d0d;stop-opacity:1;"
         offset="1"
         id="stop3866" />
    </linearGradient>
    <radialGradient
       inkscape:collect="always"
       xlink:href="#linearGradient3862"
       id="radialGradient3868"
       cx="20.824459"
       cy="18.639149"
       fx="20.824459"
       fy="18.639149"
       r="12.292626"
       gradientTransform="matrix(2.4251231,5.6806507e-4,-7.232528e-4,3.0705492,-26.786014,-42.345764)"
       gradientUnits="userSpaceOnUse" />
    <linearGradient
       inkscape:collect="always"
       xlink:href="#linearGradient3870"
       id="linearGradient3876"
       x1="28.666853"
       y1="11.821518"
       x2="31.057037"
       y2="2.6072319"
       gradientUnits="userSpaceOnUse"
       gradientTransform="matrix(1.0108938,0,0,1.0108487,-1.688201,-0.41254886)" />
    <linearGradient
       inkscape:collect="always"
       xlink:href="#linearGradient3878"
       id="linearGradient3884"
       x1="20.857143"
       y1="9.9285717"
       x2="18.142857"
       y2="18.928572"
       gradientUnits="userSpaceOnUse" />
    <radialGradient
       inkscape:collect="always"
       xlink:href="#linearGradient3942"
       id="radialGradient3894"
       cx="31.488012"
       cy="27.852604"
       fx="31.488012"
       fy="27.852604"
       r="9.4642859"
       gradientTransform="matrix(1,0,0,0.63773583,0,11.605391)"
       gradientUnits="userSpaceOnUse" />
    <linearGradient
       inkscape:collect="always"
       xlink:href="#linearGradient3896"
       id="linearGradient3902"
       x1="25.587421"
       y1="0.8463546"
       x2="25.137873"
       y2="21.06064"
       gradientUnits="userSpaceOnUse"
       gradientTransform="matrix(1.0108938,0,0,1.0108487,-1.6882009,-0.41254888)" />
    <radialGradient
       inkscape:collect="always"
       xlink:href="#linearGradient3922"
       id="radialGradient3928"
       cx="26.011429"
       cy="5.8513851"
       fx="26.011429"
       fy="5.8513851"
       r="1.4647212"
       gradientTransform="matrix(1,0,0,0.6724138,0,1.916833)"
       gradientUnits="userSpaceOnUse" />
    <radialGradient
       inkscape:collect="always"
       xlink:href="#linearGradient3922"
       id="radialGradient3932"
       gradientUnits="userSpaceOnUse"
       gradientTransform="matrix(1,0,0,0.6724138,0,1.916833)"
       cx="26.011429"
       cy="5.8513851"
       fx="26.011429"
       fy="5.8513851"
       r="1.4647212" />
    <radialGradient
       inkscape:collect="always"
       xlink:href="#linearGradient3922"
       id="radialGradient3936"
       gradientUnits="userSpaceOnUse"
       gradientTransform="matrix(1,0,0,0.6724138,0,1.916833)"
       cx="26.011429"
       cy="5.8513851"
       fx="26.011429"
       fy="5.8513851"
       r="1.4647212" />
    <radialGradient
       inkscape:collect="always"
       xlink:href="#linearGradient3922"
       id="radialGradient3940"
       gradientUnits="userSpaceOnUse"
       gradientTransform="matrix(1,0,0,0.6724138,0,1.916833)"
       cx="26.011429"
       cy="5.8513851"
       fx="26.011429"
       fy="5.8513851"
       r="1.4647212" />
    <linearGradient
       inkscape:collect="always"
       xlink:href="#linearGradient3950"
       id="linearGradient3956"
       x1="23.753788"
       y1="27.727654"
       x2="18.657934"
       y2="32.844143"
       gradientUnits="userSpaceOnUse"
       gradientTransform="matrix(0.84689987,0,0,0.90391157,1.9228147,2.945318)" />
    <linearGradient
       inkscape:collect="always"
       xlink:href="#linearGradient3962"
       id="linearGradient3968"
       x1="22.538597"
       y1="29.201019"
       x2="21.920542"
       y2="44.415306"
       gradientUnits="userSpaceOnUse" />
    <radialGradient
       inkscape:collect="always"
       xlink:href="#linearGradient3980"
       id="radialGradient3986"
       cx="21.112188"
       cy="11.404141"
       fx="21.112188"
       fy="11.404141"
       r="3.232488"
       gradientTransform="matrix(-1.2473382,-0.1009375,0.22216605,-2.7451783,43.454405,43.228397)"
       gradientUnits="userSpaceOnUse" />
    <radialGradient
       inkscape:collect="always"
       xlink:href="#linearGradient3942"
       id="radialGradient3992"
       gradientUnits="userSpaceOnUse"
       gradientTransform="matrix(1,0,0,0.63773583,0,11.605391)"
       cx="31.488012"
       cy="27.852604"
       fx="31.488012"
       fy="27.852604"
       r="9.4642859" />
    <radialGradient
       inkscape:collect="always"
       xlink:href="#linearGradient3862"
       id="radialGradient50016"
       gradientUnits="userSpaceOnUse"
       gradientTransform="matrix(2.4251231,5.6806507e-4,-7.232528e-4,3.0705492,-26.786014,-42.345764)"
       cx="20.824459"
       cy="18.639149"
       fx="20.824459"
       fy="18.639149"
       r="12.292626" />
    <radialGradient
       inkscape:collect="always"
       xlink:href="#linearGradient3980"
       id="radialGradient50018"
       gradientUnits="userSpaceOnUse"
       gradientTransform="matrix(-1.2473382,-0.1009375,0.22216605,-2.7451783,43.454405,43.228397)"
       cx="21.112188"
       cy="11.404141"
       fx="21.112188"
       fy="11.404141"
       r="3.232488" />
    <linearGradient
       inkscape:collect="always"
       xlink:href="#linearGradient3962"
       id="linearGradient50020"
       gradientUnits="userSpaceOnUse"
       x1="22.538597"
       y1="29.201019"
       x2="21.920542"
       y2="44.415306" />
    <radialGradient
       inkscape:collect="always"
       xlink:href="#linearGradient3942"
       id="radialGradient50022"
       gradientUnits="userSpaceOnUse"
       gradientTransform="matrix(1,0,0,0.63773583,0,11.605391)"
       cx="31.488012"
       cy="27.852604"
       fx="31.488012"
       fy="27.852604"
       r="9.4642859" />
    <linearGradient
       inkscape:collect="always"
       xlink:href="#linearGradient3870"
       id="linearGradient50024"
       gradientUnits="userSpaceOnUse"
       gradientTransform="matrix(1.0108938,0,0,1.0108487,-1.688201,-0.41254886)"
       x1="28.666853"
       y1="11.821518"
       x2="31.057037"
       y2="2.6072319" />
    <linearGradient
       inkscape:collect="always"
       xlink:href="#linearGradient3950"
       id="linearGradient50026"
       gradientUnits="userSpaceOnUse"
       gradientTransform="matrix(0.84689987,0,0,0.90391157,1.9228147,2.945318)"
       x1="23.753788"
       y1="27.727654"
       x2="18.657934"
       y2="32.844143" />
    <linearGradient
       inkscape:collect="always"
       xlink:href="#linearGradient3896"
       id="linearGradient50028"
       gradientUnits="userSpaceOnUse"
       gradientTransform="matrix(1.0108938,0,0,1.0108487,-1.6882009,-0.41254888)"
       x1="25.587421"
       y1="0.8463546"
       x2="25.137873"
       y2="21.06064" />
    <radialGradient
       inkscape:collect="always"
       xlink:href="#linearGradient3922"
       id="radialGradient50030"
       gradientUnits="userSpaceOnUse"
       gradientTransform="matrix(1,0,0,0.6724138,0,1.916833)"
       cx="26.011429"
       cy="5.8513851"
       fx="26.011429"
       fy="5.8513851"
       r="1.4647212" />
    <radialGradient
       inkscape:collect="always"
       xlink:href="#linearGradient3922"
       id="radialGradient50032"
       gradientUnits="userSpaceOnUse"
       gradientTransform="matrix(1,0,0,0.6724138,0,1.916833)"
       cx="26.011429"
       cy="5.8513851"
       fx="26.011429"
       fy="5.8513851"
       r="1.4647212" />
    <radialGradient
       inkscape:collect="always"
       xlink:href="#linearGradient3922"
       id="radialGradient50034"
       gradientUnits="userSpaceOnUse"
       gradientTransform="matrix(1,0,0,0.6724138,0,1.916833)"
       cx="26.011429"
       cy="5.8513851"
       fx="26.011429"
       fy="5.8513851"
       r="1.4647212" />
    <radialGradient
       inkscape:collect="always"
       xlink:href="#linearGradient3922"
       id="radialGradient50036"
       gradientUnits="userSpaceOnUse"
       gradientTransform="matrix(1,0,0,0.6724138,0,1.916833)"
       cx="26.011429"
       cy="5.8513851"
       fx="26.011429"
       fy="5.8513851"
       r="1.4647212" />
    <linearGradient
       inkscape:collect="always"
       xlink:href="#linearGradient50550"
       id="linearGradient50556"
       x1="33.377705"
       y1="23.439653"
       x2="37.462547"
       y2="27.631786"
       gradientUnits="userSpaceOnUse"
       gradientTransform="translate(-0.7323606,0.5555839)" />
    <linearGradient
       inkscape:collect="always"
       xlink:href="#linearGradient50572"
       id="linearGradient50570"
       x1="28.158003"
       y1="30.233944"
       x2="31.440998"
       y2="32.431026"
       gradientUnits="userSpaceOnUse"
       gradientTransform="translate(-0.7323606,0.5555839)" />
    <linearGradient
       inkscape:collect="always"
       xlink:href="#linearGradient50585"
       id="linearGradient50591"
       x1="30.094707"
       y1="25.00539"
       x2="35.568508"
       y2="30.76326"
       gradientUnits="userSpaceOnUse" />
    <linearGradient
       inkscape:collect="always"
       xlink:href="#linearGradient50585"
       id="linearGradient50599"
       x1="38.867847"
       y1="-12.052091"
       x2="46.925858"
       y2="-12.052091"
       gradientUnits="userSpaceOnUse" />
    <linearGradient
       inkscape:collect="always"
       xlink:href="#linearGradient31615"
       id="linearGradient31621"
       x1="7.59835"
       y1="7.6808586"
       x2="12.40363"
       y2="12.335973"
       gradientUnits="userSpaceOnUse"
       gradientTransform="matrix(1.2985191,-0.33758652,0.33762168,1.2983839,21.243642,19.0237)" />
    <linearGradient
       id="linearGradient31615">
      <stop
         style="stop-color:#eeeeec;stop-opacity:1;"
         offset="0"
         id="stop31617" />
      <stop
         style="stop-color:#d2d2cc;stop-opacity:1;"
         offset="1"
         id="stop31619" />
    </linearGradient>
  </defs>
  <sodipodi:namedview
     id="base"
     pagecolor="#ffffff"
     bordercolor="#666666"
     borderopacity="1.0"
     inkscape:pageopacity="0.0"
     inkscape:pageshadow="2"
     inkscape:zoom="39.59798"
     inkscape:cx="26.149855"
     inkscape:cy="20.318408"
     inkscape:current-layer="layer1"
     showgrid="true"
     inkscape:grid-bbox="true"
     inkscape:document-units="px"
     inkscape:window-width="2880"
     inkscape:window-height="1557"
     inkscape:window-x="-8"
     inkscape:window-y="-8"
     inkscape:window-maximized="1" />
  <metadata
     id="metadata2990">
    <rdf:RDF>
      <cc:Work
         rdf:about="">
        <dc:format>image/svg+xml</dc:format>
        <dc:type
           rdf:resource="http://purl.org/dc/dcmitype/StillImage" />
        <dc:title></dc:title>
      </cc:Work>
    </rdf:RDF>
  </metadata>
  <g
     id="layer1"
     inkscape:label="Layer 1"
     inkscape:groupmode="layer">
    <g
       id="g49998"
       transform="translate(-4.4446712,0)">
      <path
         sodipodi:nodetypes="zzczcccczszccczszccccz"
         inkscape:connector-curvature="0"
         id="path3004"
         d="m 40.53726,31.376817 c -1.997191,-4.647959 -9.64713,-6.479278 -11.127045,-6.398476 -1.479917,0.08081 -4.829345,-0.314435 -6.903643,1.862849 0.379022,-1.484879 -1.807242,-7.490603 -1.678534,-10.178167 0.128701,-2.687564 0.113753,-5.752663 1.73268,-6.236489 0.648931,1.345 2.415063,2.006135 3.790236,1.241898 0.750717,0.664062 1.631929,0.720833 2.599017,0.37797 0.512511,0.378632 1.452738,0.334622 1.678532,-0.269977 2.237181,0.58312 4.305072,-2.9907014 4.250471,-4.1576611 C 34.824379,6.4518042 34.165044,5.7076346 33.495372,4.7049161 32.815148,3.6863987 32.176423,2.6029366 31.928013,2.3271978 31.679602,2.051459 30.195334,1.3012818 30.195334,1.3012818 28.610146,1.072934 27.093166,0.57250434 25.376321,0.86931723 23.46332,0.14754893 21.477628,0.22319943 19.420238,1.0852996 18.346753,1.744599 16.839474,2.6727284 16.415124,3.2451226 15.990773,3.8175168 12.369054,13.075246 10.306377,16.378725 7.7318655,20.501929 5.5829903,26.971922 5.2339293,28.947017 c -0.3490609,1.975093 -0.3353949,4.902126 0.1082946,7.451389 -0.3461986,1.857251 -0.08343,3.360265 1.2995093,4.211655 3.052213,2.640365 6.7535388,3.500631 10.6668048,3.77969 6.363668,4.02054 14.032016,4.202986 23.28287,-0.269977 2.510242,-5.041345 1.943046,-8.094998 -0.05413,-12.742957 z"
         style="fill:url(#radialGradient50016);fill-opacity:1;stroke:none" />
      <path
         style="color:#000000;fill:#8f5902;fill-opacity:1;fill-rule:nonzero;stroke:none;stroke-width:0.1;marker:none;visibility:visible;display:inline;overflow:visible;enable-background:accumulate"
         d="m 16.311468,43.791125 c 2.385874,-0.03564 4.286586,-1.269466 6.376719,-2.035481 -1.528004,1.171348 -2.597608,2.912129 -4.855907,3.176297 z"
         id="path3988"
         inkscape:connector-curvature="0"
         sodipodi:nodetypes="cccc" />
      <path
         inkscape:connector-curvature="0"
         id="path3970"
         d="m 18.224361,7.6721776 -2.501835,10.2621684 5.105785,0.612668 0.45952,-5.156613 0.459521,-2.450667 0.510578,-0.816889 z"
         style="fill:url(#radialGradient50018);fill-opacity:1;stroke:none" />
      <path
         transform="matrix(1.0108938,0,0,1.0108487,-1.688201,-0.41254886)"
         d="m 23.90625,1.5 c -0.859387,0.031559 -1.745529,0.2241625 -2.65625,0.59375 -0.0102,0.00414 -0.02105,-0.00418 -0.03125,0 C 20.695591,2.415247 20.090947,2.7893069 19.5625,3.15625 19.026951,3.5281247 18.550011,3.9528843 18.46875,4.0625 18.547194,3.9566845 18.387458,4.1983393 18.25,4.5 c -0.137458,0.3016607 -0.3192,0.7256182 -0.53125,1.21875 -0.424099,0.9862635 -0.960731,2.2983861 -1.5625,3.6875 -1.203538,2.778228 -2.607227,5.863563 -3.6875,7.59375 -1.23224,1.973579 -2.364726,4.556432 -3.25,6.875 -0.885274,2.318568 -1.5045369,4.422772 -1.65625,5.28125 -0.3228198,1.826695 -0.2989618,4.688976 0.125,7.125 a 0.71806661,0.71806661 0 0 1 0,0.25 c -0.1588523,0.852233 -0.1829747,1.594001 -0.03125,2.15625 0.1517247,0.562249 0.4306254,0.949946 0.96875,1.28125 a 0.71806661,0.71806661 0 0 1 0.09375,0.09375 c 2.860294,2.474454 6.323978,3.260183 10.125,3.53125 a 0.71806661,0.71806661 0 0 1 0.3125,0.125 C 25.181253,47.52549 32.367337,47.723652 41.25,43.5 c 2.259419,-4.674114 1.787234,-7.33078 -0.125,-11.78125 -0.869526,-2.023691 -3.104161,-3.556318 -5.34375,-4.53125 -1.119794,-0.487466 -2.215275,-0.843019 -3.125,-1.0625 -0.909725,-0.219481 -1.688759,-0.291419 -1.875,-0.28125 -1.649543,0.09007 -4.55532,-0.219502 -6.3125,1.625 A 0.71806661,0.71806661 0 0 1 23.25,26.78125 c 0.02425,-0.09502 0.01703,-0.726076 -0.125,-1.5 -0.142033,-0.773924 -0.386459,-1.718419 -0.625,-2.71875 -0.477082,-2.000661 -1.011655,-4.139006 -0.9375,-5.6875 0.06299,-1.315356 0.0818,-2.7528 0.3125,-4 0.115348,-0.6236 0.27318,-1.213906 0.5625,-1.71875 0.28932,-0.504844 0.742719,-0.94537 1.34375,-1.125 a 0.71806661,0.71806661 0 0 1 0.875,0.375 c 0.459733,0.952904 1.769265,1.451306 2.75,0.90625 a 0.71806661,0.71806661 0 0 1 0.8125,0.09375 c 0.551322,0.487704 1.039277,0.503973 1.84375,0.21875 A 0.71806661,0.71806661 0 0 1 30.75,11.75 c 0.07898,0.05835 0.266268,0.108737 0.40625,0.09375 0.139982,-0.01499 0.125858,-0.03355 0.125,-0.03125 a 0.71806661,0.71806661 0 0 1 0.875,-0.4375 c 0.353157,0.09205 0.674658,0.0201 1.0625,-0.1875 0.387842,-0.207599 0.807434,-0.573737 1.15625,-1 0.348816,-0.4262626 0.650603,-0.9173122 0.84375,-1.34375 0.193147,-0.4264378 0.252744,-0.816342 0.25,-0.875 -0.04193,-0.8963663 -0.555676,-1.4603223 -1.25,-2.5 C 33.876256,4.955902 33.554428,4.4218472 33.28125,4 33.008072,3.5781528 32.739803,3.2108701 32.71875,3.1875 32.785322,3.2613992 32.654336,3.1603538 32.5,3.0625 32.345664,2.9646462 32.130269,2.8268412 31.9375,2.71875 31.615098,2.5379693 31.403417,2.4222346 31.3125,2.375 29.726282,2.1347562 28.366524,1.7475327 26.90625,2 a 0.71806661,0.71806661 0 0 1 -0.375,-0.0625 C 25.663768,1.6101876 24.783705,1.4677772 23.90625,1.5 z"
         id="path3960"
         style="fill:none;stroke:url(#linearGradient50020);stroke-width:0.74193424;stroke-linecap:butt;stroke-linejoin:miter;stroke-miterlimit:4;stroke-opacity:1;stroke-dasharray:none"
         inkscape:original="M 23.875 0.78125 C 22.892976 0.81731289 21.892609 1.042326 20.875 1.46875 C 19.813084 2.1209736 18.326027 3.0587488 17.90625 3.625 C 17.486471 4.1912511 13.915449 13.356976 11.875 16.625 C 9.3282331 20.703952 7.1890493 27.077353 6.84375 29.03125 C 6.4984507 30.985146 6.5298419 33.884346 6.96875 36.40625 C 6.6262823 38.243568 6.8819637 39.751499 8.25 40.59375 C 11.26932 43.205778 14.910157 44.036436 18.78125 44.3125 C 25.076343 48.28989 32.661335 48.487458 41.8125 44.0625 C 44.295689 39.07526 43.756906 36.035577 41.78125 31.4375 C 39.80558 26.839424 32.213967 25.045065 30.75 25.125 C 29.286033 25.20494 25.989446 24.814834 23.9375 26.96875 C 24.312439 25.499807 22.153928 19.56497 22.28125 16.90625 C 22.408564 14.24753 22.398518 11.197384 24 10.71875 C 24.641937 12.049315 26.389646 12.693534 27.75 11.9375 C 28.492626 12.594434 29.355834 12.651683 30.3125 12.3125 C 30.819487 12.687068 31.745387 12.66061 31.96875 12.0625 C 34.181822 12.639361 36.241512 9.0919355 36.1875 7.9375 C 36.133494 6.7830643 35.474955 6.0544571 34.8125 5.0625 C 34.139606 4.0549136 33.495733 2.9915295 33.25 2.71875 C 33.004266 2.4459705 31.53125 1.6875 31.53125 1.6875 C 29.963144 1.4616028 28.479595 0.98762264 26.78125 1.28125 C 25.835057 0.92423898 24.857024 0.74518711 23.875 0.78125 z "
         inkscape:radius="-0.71799481"
         sodipodi:type="inkscape:offset" />
      <path
         transform="matrix(1.0490407,0,0,1.1484198,-3.2603997,-4.8558397)"
         d="m 41.214286,32.035713 c 0,3.333433 -4.237305,6.035714 -9.464286,6.035714 -5.226981,0 -9.464286,-2.702281 -9.464286,-6.035714 0,-3.333433 4.237305,-6.035714 9.464286,-6.035714 5.226981,0 9.464286,2.702281 9.464286,6.035714 z"
         sodipodi:ry="6.0357141"
         sodipodi:rx="9.4642859"
         sodipodi:cy="32.035713"
         sodipodi:cx="31.75"
         id="path3886"
         style="color:#000000;fill:url(#radialGradient50022);fill-opacity:1;fill-rule:nonzero;stroke:none;stroke-width:0.1;marker:none;visibility:visible;display:inline;overflow:visible;enable-background:accumulate"
         sodipodi:type="arc" />
      <path
         sodipodi:nodetypes="cccccccccccccccccc"
         inkscape:connector-curvature="0"
         id="path3774"
         d="m 20.994794,9.9023936 c -1.763337,-0.3260162 -2.18436,-1.3728059 -2.657482,-2.3916199 1.029503,0.9349125 2.358895,1.4511485 3.898529,1.6738631 -0.113995,-0.9827074 -1.345588,-1.4126427 -1.191217,-2.7537751 0.604746,0.4586261 1.427914,1.2183227 1.732679,1.6198679 0.299259,-0.3541705 0.441273,-1.3355671 0.649753,-2.0518321 l 0.16244,4.5356285 c 0.812193,0.732994 1.624387,0.4733 2.43658,0.323974 -0.256207,-1.8164468 -0.199537,-3.7576957 0.05413,-5.7775274 0.459005,1.7869711 0.70743,3.6789389 0.758047,5.6695354 1.139231,1.049302 1.560671,0.309114 1.895119,-0.647946 0.03402,-1.6039452 -0.283419,-3.558364 -0.541457,-5.4535536 0.832872,1.0861982 1.241256,3.3364898 1.678532,5.5075486 0.91142,0.446018 1.481773,0.16321 1.678533,-0.9179251 L 30.466056,4.2170437 32.41532,8.6986759 c 0.730607,-0.03807 1.431675,-0.1392589 1.461947,-1.673863 l -2.111702,-4.8056062 3.140481,4.6976158 -0.974632,3.8876805 -3.57365,1.241899 -5.685353,0 -2.599018,-1.349889 z"
         style="color:#000000;fill:url(#linearGradient50024);fill-opacity:1;stroke:none;stroke-width:0.1;marker:none;visibility:visible;display:inline;overflow:visible;enable-background:accumulate" />
      <path
         inkscape:connector-curvature="0"
         id="path3801"
         d="m 19.046366,1.645442 5.551636,1.259961 -4.02015,-1.9090318 z"
         style="color:#000000;fill:#945d03;fill-opacity:1;stroke:none;stroke-width:0.1;marker:none;visibility:visible;display:inline;overflow:visible;enable-background:accumulate" />
      <path
         sodipodi:nodetypes="ccccc"
         inkscape:connector-curvature="0"
         id="path3809"
         d="m 21.266922,0.88182921 2.064463,-0.37878489 2.108986,0.62118798 3.139546,1.6417673 z"
         style="color:#000000;fill:#945d03;fill-opacity:1;stroke:none;stroke-width:0.1;marker:none;visibility:visible;display:inline;overflow:visible;enable-background:accumulate" />
      <path
         sodipodi:nodetypes="csccczzc"
         inkscape:connector-curvature="0"
         id="path3817"
         d="m 22.49226,35.143181 c 1.86515,1.04547 5.061397,1.90477 9.152189,1.313523 3.209876,-0.463931 6.372539,-1.450993 8.038744,-3.795265 0.172906,0.974953 0.0885,2.237194 -1.110329,2.558103 l 1.952645,1.221781 c 0,0 -0.966798,-0.213706 -2.373803,-0.152722 -1.407005,0.06097 -4.801178,1.666134 -8.423174,1.832668 -3.621995,0.166536 -6.956247,-1.784639 -7.236272,-2.978088 z"
         style="color:#000000;fill:#8f5902;stroke:none;stroke-width:0.1;marker:none;visibility:visible;display:inline;overflow:visible;enable-background:accumulate" />
      <path
         sodipodi:nodetypes="ccccc"
         inkscape:connector-curvature="0"
         id="path3827"
         d="m 22.200434,25.203043 c -0.518337,3.037922 -2.219161,6.155457 -4.471283,7.684853 2.806786,-1.027715 4.454854,-4.62792 5.801573,-6.703606 l -1.010015,0.649078 z"
         style="color:#000000;fill:url(#linearGradient50026);fill-opacity:1;fill-rule:nonzero;stroke:none;stroke-width:0.1;marker:none;visibility:visible;display:inline;overflow:visible;enable-background:accumulate" />
      <path
         sodipodi:nodetypes="cccc"
         inkscape:connector-curvature="0"
         id="path3846"
         d="m 5.2880751,38.450239 c 2.5802995,1.002591 5.1618489,0.505512 7.7429099,0.59395 -2.153643,0.592529 -4.0629718,1.997171 -6.6058394,1.295895 z"
         style="color:#000000;fill:#8f5902;fill-opacity:1;fill-rule:nonzero;stroke:none;stroke-width:0.1;marker:none;visibility:visible;display:inline;overflow:visible;enable-background:accumulate" />
      <path
         style="fill:none;stroke:url(#linearGradient50028);stroke-width:0.75;stroke-linecap:butt;stroke-linejoin:miter;stroke-miterlimit:4;stroke-opacity:1;stroke-dasharray:none"
         d="M 40.537263,31.376818 C 38.54007,26.728859 30.890131,24.89754 29.410216,24.978342 c -1.479915,0.08081 -4.829344,-0.314436 -6.903643,1.862848 0.379023,-1.48488 -1.807242,-7.490603 -1.678533,-10.178166 0.128701,-2.687564 0.113752,-5.752663 1.73268,-6.23649 0.64893,1.345 2.415062,2.006135 3.790235,1.241899 0.750716,0.664061 1.63193,0.720832 2.599018,0.377969 0.51251,0.378632 1.452737,0.334622 1.678533,-0.269977 2.237181,0.58312 4.30507,-2.9907012 4.25047,-4.1576608 C 34.824382,6.4518043 34.165045,5.7076347 33.495374,4.7049162 32.815149,3.6863988 32.176425,2.6029365 31.928015,2.3271977 31.679604,2.0514589 30.195336,1.3012818 30.195336,1.3012818 28.610147,1.0729339 27.093169,0.57250432 25.376322,0.86931715 23.463322,0.14754889 21.47763,0.22319938 19.420239,1.0852997 18.346755,1.744599 16.839476,2.6727284 16.415126,3.2451227 15.990774,3.8175168 12.369055,13.075248 10.306378,16.378726 7.7318666,20.501929 5.5829914,26.971923 5.2339305,28.947017 c -0.3490609,1.975093 -0.3353949,4.902127 0.1082946,7.45139 -0.3461985,1.857251 -0.08343,3.360267 1.2995093,4.211655 3.0522123,2.640365 6.7535396,3.500632 10.6668036,3.77969 6.36367,4.02054 14.032017,4.202986 23.282873,-0.269977 2.510241,-5.041345 1.943045,-8.094997 -0.05413,-12.742957 z"
         id="path3825"
         inkscape:connector-curvature="0"
         sodipodi:nodetypes="zzczcccczszccczszccccz" />
      <path
         transform="matrix(1.0108938,0,0,1.0108487,-1.7903166,-1.0252156)"
         d="m 27.47615,5.8513851 c 0,0.5439446 -0.655778,0.9848988 -1.464721,0.9848988 -0.808943,0 -1.464721,-0.4409542 -1.464721,-0.9848988 0,-0.5439445 0.655778,-0.9848987 1.464721,-0.9848987 0.808943,0 1.464721,0.4409542 1.464721,0.9848987 z"
         sodipodi:ry="0.98489875"
         sodipodi:rx="1.4647212"
         sodipodi:cy="5.8513851"
         sodipodi:cx="26.011429"
         id="path3920"
         style="color:#000000;fill:url(#radialGradient50030);fill-opacity:1;fill-rule:nonzero;stroke:none;stroke-width:0.75;marker:none;visibility:visible;display:inline;overflow:visible;enable-background:accumulate"
         sodipodi:type="arc" />
      <path
         sodipodi:type="arc"
         style="color:#000000;fill:url(#radialGradient50032);fill-opacity:1;fill-rule:nonzero;stroke:none;stroke-width:0.75;marker:none;visibility:visible;display:inline;overflow:visible;enable-background:accumulate"
         id="path3930"
         sodipodi:cx="26.011429"
         sodipodi:cy="5.8513851"
         sodipodi:rx="1.4647212"
         sodipodi:ry="0.98489875"
         d="m 27.47615,5.8513851 c 0,0.5439446 -0.655778,0.9848988 -1.464721,0.9848988 -0.808943,0 -1.464721,-0.4409542 -1.464721,-0.9848988 0,-0.5439445 0.655778,-0.9848987 1.464721,-0.9848987 0.808943,0 1.464721,0.4409542 1.464721,0.9848987 z"
         transform="matrix(1.0108938,0,0,1.0108487,0.66046017,-1.5868269)" />
      <path
         transform="matrix(1.0108938,0,0,1.0108487,2.8559477,-1.9442159)"
         d="m 27.47615,5.8513851 c 0,0.5439446 -0.655778,0.9848988 -1.464721,0.9848988 -0.808943,0 -1.464721,-0.4409542 -1.464721,-0.9848988 0,-0.5439445 0.655778,-0.9848987 1.464721,-0.9848987 0.808943,0 1.464721,0.4409542 1.464721,0.9848987 z"
         sodipodi:ry="0.98489875"
         sodipodi:rx="1.4647212"
         sodipodi:cy="5.8513851"
         sodipodi:cx="26.011429"
         id="path3934"
         style="color:#000000;fill:url(#radialGradient50034);fill-opacity:1;fill-rule:nonzero;stroke:none;stroke-width:0.75;marker:none;visibility:visible;display:inline;overflow:visible;enable-background:accumulate"
         sodipodi:type="arc" />
      <path
         sodipodi:type="arc"
         style="color:#000000;fill:url(#radialGradient50036);fill-opacity:1;fill-rule:nonzero;stroke:none;stroke-width:0.75;marker:none;visibility:visible;display:inline;overflow:visible;enable-background:accumulate"
         id="path3938"
         sodipodi:cx="26.011429"
         sodipodi:cy="5.8513851"
         sodipodi:rx="1.4647212"
         sodipodi:ry="0.98489875"
         d="m 27.47615,5.8513851 c 0,0.5439446 -0.655778,0.9848988 -1.464721,0.9848988 -0.808943,0 -1.464721,-0.4409542 -1.464721,-0.9848988 0,-0.5439445 0.655778,-0.9848987 1.464721,-0.9848987 0.808943,0 1.464721,0.4409542 1.464721,0.9848987 z"
         transform="matrix(1.0108938,0,0,1.0108487,4.9493195,-2.3526604)" />
    </g>
    <path
       sodipodi:type="arc"
       style="color:#000000;fill:#000000;stroke:#ffffff;stroke-width:0.69776124;stroke-linecap:butt;stroke-linejoin:miter;stroke-miterlimit:4;stroke-opacity:1;stroke-dasharray:none;stroke-dashoffset:0;marker:none;visibility:visible;display:inline;overflow:visible;enable-background:accumulate"
       id="path50038"
       sodipodi:cx="37.224121"
       sodipodi:cy="23.705832"
       sodipodi:rx="9.4449263"
       sodipodi:ry="9.4449263"
       d="m 46.669047,23.705832 a 9.4449263,9.4449263 0 1 1 -18.889852,0 9.4449263,9.4449263 0 1 1 18.889852,0 z"
       transform="matrix(1.4331551,0,0,1.4331551,-19.305797,-7.086321)" />
    <path
       id="path3643"
       style="color:#000000;fill:url(#linearGradient31621);fill-opacity:1;fill-rule:evenodd;stroke:#888a85;stroke-width:0.49999997;stroke-miterlimit:4;stroke-dasharray:none;marker:none;visibility:visible;display:inline;overflow:visible;enable-background:accumulate"
       d="m 36.661758,26.083786 c 0.349164,1.342773 -0.456428,2.714322 -1.799339,3.063453 -1.342911,0.34912 -2.714608,-0.456382 -3.063772,-1.799144 -0.349164,-1.342772 0.456427,-2.714344 1.799339,-3.063464 1.34291,-0.349131 2.714608,0.456382 3.063772,1.799155 z m -4.624592,-7.801558 c -0.778793,0.202469 -1.242749,0.992371 -1.040259,1.771095 l 0.593948,2.284128 c -0.05126,0.270934 -0.08072,0.516532 -0.214377,0.61846 -0.106674,0.08129 -0.29318,0.08372 -0.494653,0.08175 l -2.214089,-1.300228 c -0.700917,-0.411602 -1.609142,-0.175484 -2.020787,0.525354 -0.411644,0.700861 -0.175502,1.608983 0.525415,2.020585 l 2.158736,1.267681 c 0.120144,0.193313 0.200544,0.370506 0.180997,0.515678 -0.01963,0.145761 -0.135882,0.298912 -0.303996,0.4542 l -2.372228,0.616727 c -0.778795,0.20247 -1.242749,0.992372 -1.040259,1.771096 0.202491,0.7787 0.992476,1.242611 1.771272,1.040142 l 2.284366,-0.593887 c 0.270969,0.05127 0.516602,0.08072 0.618539,0.214352 0.08134,0.106696 0.08373,0.29315 0.08171,0.494603 l -1.300323,2.213852 c -0.411646,0.700861 -0.175503,1.608984 0.525415,2.020586 0.700917,0.411602 1.609141,0.175483 2.020787,-0.525366 l 1.267814,-2.158506 c 0.193323,-0.120207 0.370546,-0.200518 0.515741,-0.18098 0.145775,0.01963 0.298944,0.135877 0.45424,0.30397 l 0.616792,2.37198 c 0.202489,0.778712 0.992477,1.242623 1.771271,1.040154 0.778793,-0.202481 1.242749,-0.992383 1.040257,-1.771095 L 36.869549,31.09443 c 0.05126,-0.270933 0.08072,-0.516543 0.214376,-0.618483 0.106673,-0.08129 0.293185,-0.08372 0.494645,-0.08175 l 2.21409,1.300198 c 0.700917,0.411602 1.609142,0.175484 2.020787,-0.525366 0.411644,-0.700849 0.1755,-1.608971 -0.525416,-2.020574 l -2.158729,-1.267634 c -0.120135,-0.193301 -0.200539,-0.370506 -0.180993,-0.515689 0.01963,-0.145761 0.13588,-0.298913 0.303995,-0.4542 l 2.372228,-0.616728 c 0.778794,-0.202458 1.24275,-0.992371 1.040258,-1.771072 -0.202489,-0.778724 -0.992477,-1.242624 -1.771271,-1.040165 l -2.284366,0.593898 c -0.270973,-0.05127 -0.516607,-0.08071 -0.618542,-0.214352 -0.08134,-0.106696 -0.08373,-0.293161 -0.08171,-0.494603 l 1.300325,-2.213864 c 0.411644,-0.700837 0.175501,-1.608972 -0.525415,-2.020574 -0.70092,-0.411602 -1.609144,-0.175483 -2.020788,0.525366 l -1.267816,2.158506 c -0.193325,0.120195 -0.370542,0.20053 -0.515739,0.180969 -0.145774,-0.01963 -0.298946,-0.135854 -0.454239,-0.303959 l -0.616792,-2.372038 c -0.202495,-0.778643 -0.992482,-1.242554 -1.771276,-1.040084 z"
       inkscape:connector-curvature="0" />
  </g>
</svg>
