<?xml version="1.0" encoding="UTF-8" standalone="no"?>
<!-- Created with Inkscape (http://www.inkscape.org/) -->

<svg
   xmlns:dc="http://purl.org/dc/elements/1.1/"
   xmlns:cc="http://creativecommons.org/ns#"
   xmlns:rdf="http://www.w3.org/1999/02/22-rdf-syntax-ns#"
   xmlns:svg="http://www.w3.org/2000/svg"
   xmlns="http://www.w3.org/2000/svg"
   xmlns:xlink="http://www.w3.org/1999/xlink"
   xmlns:sodipodi="http://sodipodi.sourceforge.net/DTD/sodipodi-0.dtd"
   xmlns:inkscape="http://www.inkscape.org/namespaces/inkscape"
   width="48px"
   height="48px"
   id="svg5004"
   version="1.1"
   inkscape:version="0.48.5 r10040"
   sodipodi:docname="rbdconstraintsfromcurves.svg">
  <defs
     id="defs5006">
    <linearGradient
       id="linearGradient5859">
      <stop
         style="stop-color:#949eaa;stop-opacity:1"
         offset="0"
         id="stop5861" />
      <stop
         style="stop-color:#e1e7ef;stop-opacity:1;"
         offset="1"
         id="stop5863" />
    </linearGradient>
    <radialGradient
       inkscape:collect="always"
       xlink:href="#linearGradient5859"
       id="radialGradient11292"
       gradientUnits="userSpaceOnUse"
       gradientTransform="matrix(0.19681733,0.55617917,-1.0019855,0.35457663,33.286218,3.1394519)"
       cx="24.857143"
       cy="13.294993"
       fx="24.857143"
       fy="13.294993"
       r="18.25" />
  </defs>
  <sodipodi:namedview
     id="base"
     pagecolor="#ffffff"
     bordercolor="#666666"
     borderopacity="1.0"
     inkscape:pageopacity="0.0"
     inkscape:pageshadow="2"
     inkscape:zoom="14"
     inkscape:cx="35.857143"
     inkscape:cy="26.821428"
     inkscape:current-layer="layer1"
     showgrid="true"
     inkscape:grid-bbox="true"
     inkscape:document-units="px"
     inkscape:window-width="2880"
     inkscape:window-height="1557"
     inkscape:window-x="-8"
     inkscape:window-y="-8"
     inkscape:window-maximized="1" />
  <metadata
     id="metadata5009">
    <rdf:RDF>
      <cc:Work
         rdf:about="">
        <dc:format>image/svg+xml</dc:format>
        <dc:type
           rdf:resource="http://purl.org/dc/dcmitype/StillImage" />
        <dc:title></dc:title>
      </cc:Work>
    </rdf:RDF>
  </metadata>
  <g
     id="layer1"
     inkscape:label="Layer 1"
     inkscape:groupmode="layer">
    <path
       style="color:#000000;fill:none;stroke:#729fcf;stroke-width:3;stroke-linecap:round;stroke-linejoin:round;stroke-miterlimit:4;stroke-opacity:1;stroke-dasharray:none;stroke-dashoffset:0;marker:none;visibility:visible;display:inline;overflow:visible;enable-background:accumulate"
       d="m 1.667723,30.417964 20.819563,-6.379288 24.111596,5.538672"
       id="path11891"
       inkscape:connector-curvature="0"
       sodipodi:nodetypes="ccc" />
    <path
       sodipodi:nodetypes="cccc"
       inkscape:connector-curvature="0"
       id="path11893"
       d="m 1.667723,15.146764 9.462881,-2.942158 26.846543,0.210154 8.621735,1.891387"
       style="color:#000000;fill:none;stroke:#729fcf;stroke-width:3;stroke-linecap:round;stroke-linejoin:round;stroke-miterlimit:4;stroke-opacity:1;stroke-dasharray:none;stroke-dashoffset:0;marker:none;visibility:visible;display:inline;overflow:visible;enable-background:accumulate" />
    <path
       sodipodi:nodetypes="ccc"
       inkscape:connector-curvature="0"
       id="path11848"
       d="m 1.667723,30.417964 20.819563,-6.379288 24.111596,5.538672"
       style="color:#000000;fill:none;stroke:#ffffff;stroke-width:0.99999994px;stroke-linecap:round;stroke-linejoin:round;stroke-miterlimit:4;stroke-opacity:1;stroke-dasharray:none;stroke-dashoffset:0;marker:none;visibility:visible;display:inline;overflow:visible;enable-background:accumulate" />
    <path
       style="color:#000000;fill:none;stroke:#ffffff;stroke-width:0.99999994px;stroke-linecap:round;stroke-linejoin:round;stroke-miterlimit:4;stroke-opacity:1;stroke-dasharray:none;stroke-dashoffset:0;marker:none;visibility:visible;display:inline;overflow:visible;enable-background:accumulate"
       d="m 1.667723,15.146764 9.462881,-2.942158 26.846543,0.210154 8.621735,1.891387"
       id="path11846"
       inkscape:connector-curvature="0"
       sodipodi:nodetypes="cccc" />
    <g
       id="g11256"
       transform="matrix(0.90433694,0,0,0.90433694,1.0391213,4.8415688)">
      <path
         inkscape:connector-curvature="0"
         id="path5840"
         d="m 8.2142857,27.928571 4.3571433,-1.071428 2.714285,-1.5 2.642857,-0.642857 L 29.357143,21.142857 34,23 37.928571,22.928571 41.285714,22.214286 44.214286,23.5 29.285714,38.785714 l -17.642857,-6 z"
         style="color:#000000;fill:url(#radialGradient11292);fill-opacity:1;fill-rule:nonzero;stroke:#465e76;stroke-width:0.55289131;stroke-linecap:butt;stroke-linejoin:bevel;stroke-miterlimit:4;stroke-opacity:1;stroke-dasharray:none;stroke-dashoffset:0;marker:none;visibility:visible;display:inline;overflow:visible;enable-background:accumulate" />
      <path
         sodipodi:nodetypes="cccccccccc"
         inkscape:connector-curvature="0"
         d="m 23.607825,32.075313 -2.358052,0.09067 -2.821657,-1.480762 -3.554141,0.224458 -3.613739,-1.988724 -2.8594171,-0.871962 -0.027298,14.992949 17.4483621,4.308056 0.08963,-15.381271 z"
         style="fill:#b3bdcc;fill-opacity:1;stroke:#465e76;stroke-width:0.55289131;stroke-linecap:butt;stroke-linejoin:miter;stroke-miterlimit:4;stroke-opacity:1;stroke-dasharray:none"
         id="path5040" />
      <path
         sodipodi:nodetypes="ccccccccccc"
         inkscape:connector-curvature="0"
         d="m 25.837465,47.365587 0.134442,-15.370214 2.748293,0.169507 2.680164,-2.30739 2.680164,-0.810705 3.365786,-0.585142 2.430847,-2.221142 2.05687,-0.748343 c 0.447723,-1.410953 1.079441,-0.726415 2.120564,-1.674706 l -0.250682,18.481232 z"
         style="fill:#717f8f;fill-opacity:1;stroke:#465e76;stroke-width:0.55289131;stroke-linecap:butt;stroke-linejoin:miter;stroke-miterlimit:4;stroke-opacity:1;stroke-dasharray:none"
         id="path5047" />
      <line
         id="line4984"
         y2="29.997726"
         x2="38.482601"
         y1="27.348537"
         x1="38.482601"
         stroke-miterlimit="10"
         style="fill:none;stroke:#133c57;stroke-width:0.09374164;stroke-miterlimit:10" />
      <line
         id="line4986"
         y2="36.051071"
         x2="31.028702"
         y1="30.399813"
         x1="31.028702"
         stroke-miterlimit="10"
         style="fill:none;stroke:#133c57;stroke-width:0.09374164;stroke-miterlimit:10" />
      <line
         id="line4988"
         y2="33.813923"
         x2="29.969028"
         y1="31.341722"
         x1="29.969028"
         stroke-miterlimit="10"
         style="fill:none;stroke:#133c57;stroke-width:0.09374164;stroke-miterlimit:10" />
      <ellipse
         style="fill:#3d5f79"
         sodipodi:ry="0.75"
         sodipodi:rx="0.182"
         sodipodi:cy="391.5"
         sodipodi:cx="325.25"
         cx="325.25"
         cy="391.5"
         rx="0.182"
         ry="0.75"
         id="ellipse5806"
         transform="matrix(-1.0596755,0,0,1.0596755,374.02362,-377.82)"
         d="m 325.432,391.5 c 0,0.41421 -0.0815,0.75 -0.182,0.75 -0.10052,0 -0.182,-0.33579 -0.182,-0.75 0,-0.41421 0.0815,-0.75 0.182,-0.75 0.10052,0 0.182,0.33579 0.182,0.75 z" />
      <ellipse
         style="fill:#3d5f79"
         sodipodi:ry="0.75"
         sodipodi:rx="0.182"
         sodipodi:cy="399.41699"
         sodipodi:cx="326.33301"
         cx="326.33301"
         cy="399.41699"
         rx="0.182"
         ry="0.75"
         id="ellipse5808"
         transform="matrix(-1.0596755,0,0,1.0596755,378.66648,-388.89143)"
         d="m 326.51501,399.41699 c 0,0.41422 -0.0815,0.75 -0.182,0.75 -0.10052,0 -0.182,-0.33578 -0.182,-0.75 0,-0.41421 0.0815,-0.75 0.182,-0.75 0.10051,0 0.182,0.33579 0.182,0.75 z" />
      <ellipse
         style="fill:#3d5f79"
         sodipodi:ry="0.75"
         sodipodi:rx="0.182"
         sodipodi:cy="407.83401"
         sodipodi:cx="316.73499"
         cx="316.73499"
         cy="407.83401"
         rx="0.182"
         ry="0.75"
         id="ellipse5810"
         transform="matrix(-1.0596755,0,0,1.0596755,372.95219,-395.24857)"
         d="m 316.91699,407.83401 c 0,0.41422 -0.0815,0.75 -0.182,0.75 -0.10052,0 -0.182,-0.33578 -0.182,-0.75 0,-0.41421 0.0815,-0.75 0.182,-0.75 0.10051,0 0.182,0.33579 0.182,0.75 z" />
      <ellipse
         style="fill:#3d5f79"
         sodipodi:ry="0.75"
         sodipodi:rx="0.182"
         sodipodi:cy="406.16699"
         sodipodi:cx="317.41699"
         cx="317.41699"
         cy="406.16699"
         rx="0.182"
         ry="0.75"
         id="ellipse5812"
         transform="matrix(-1.0596755,0,0,1.0596755,371.52362,-389.74857)"
         d="m 317.59899,406.16699 c 0,0.41422 -0.0815,0.75 -0.182,0.75 -0.10051,0 -0.182,-0.33578 -0.182,-0.75 0,-0.41421 0.0815,-0.75 0.182,-0.75 0.10052,0 0.182,0.33579 0.182,0.75 z" />
      <ellipse
         style="fill:#3d5f79"
         sodipodi:ry="0.75"
         sodipodi:rx="0.182"
         sodipodi:cy="399.25"
         sodipodi:cx="313.5"
         cx="313.5"
         cy="399.25"
         rx="0.182"
         ry="0.75"
         id="ellipse5814"
         transform="matrix(-1.0596755,0,0,1.0596755,371.52362,-389.74857)"
         d="m 313.682,399.25 c 0,0.41421 -0.0815,0.75 -0.182,0.75 -0.10052,0 -0.182,-0.33579 -0.182,-0.75 0,-0.41421 0.0815,-0.75 0.182,-0.75 0.10052,0 0.182,0.33579 0.182,0.75 z" />
      <ellipse
         transform="matrix(-1.0596755,0,0,1.0596755,376.38076,-392.46286)"
         id="ellipse5816"
         ry="0.75"
         rx="0.182"
         cy="407.83401"
         cx="316.73499"
         sodipodi:cx="316.73499"
         sodipodi:cy="407.83401"
         sodipodi:rx="0.182"
         sodipodi:ry="0.75"
         style="fill:#3d5f79"
         d="m 316.91699,407.83401 c 0,0.41422 -0.0815,0.75 -0.182,0.75 -0.10052,0 -0.182,-0.33578 -0.182,-0.75 0,-0.41421 0.0815,-0.75 0.182,-0.75 0.10051,0 0.182,0.33579 0.182,0.75 z" />
      <line
         style="fill:none;stroke:#767c90;stroke-width:0.09374164;stroke-miterlimit:10"
         stroke-miterlimit="10"
         x1="11.4044"
         y1="43.449932"
         x2="11.4044"
         y2="29.233341"
         id="line5818" />
      <line
         style="fill:none;stroke:#767c90;stroke-width:0.09374164;stroke-miterlimit:10"
         stroke-miterlimit="10"
         x1="15.803526"
         y1="44.51865"
         x2="15.803526"
         y2="40.368977"
         id="line5820" />
      <ellipse
         style="fill:#8192a7"
         sodipodi:ry="0.75"
         sodipodi:rx="0.182"
         sodipodi:cy="394.83301"
         sodipodi:cx="289.784"
         cx="289.784"
         cy="394.83301"
         rx="0.182"
         ry="0.75"
         id="ellipse5822"
         transform="matrix(-1.0596755,0,0,-1.0596755,325.17841,461.41093)"
         d="m 289.966,394.83301 c 0,0.41421 -0.0815,0.75 -0.182,0.75 -0.10052,0 -0.182,-0.33579 -0.182,-0.75 0,-0.41422 0.0815,-0.75 0.182,-0.75 0.10051,0 0.182,0.33578 0.182,0.75 z" />
      <ellipse
         style="fill:#8192a7"
         sodipodi:ry="0.75"
         sodipodi:rx="0.182"
         sodipodi:cy="399.95901"
         sodipodi:cx="291.95801"
         cx="291.95801"
         cy="399.95901"
         rx="0.182"
         ry="0.75"
         id="ellipse5824"
         transform="matrix(-1.0596755,0,0,-1.0596755,333.39269,459.91093)"
         d="m 292.14001,399.95901 c 0,0.41422 -0.0815,0.75 -0.182,0.75 -0.10052,0 -0.182,-0.33578 -0.182,-0.75 0,-0.41421 0.0815,-0.75 0.182,-0.75 0.10051,0 0.182,0.33579 0.182,0.75 z" />
      <ellipse
         style="fill:#8192a7"
         sodipodi:ry="0.75"
         sodipodi:rx="0.182"
         sodipodi:cy="392.16699"
         sodipodi:cx="295.625"
         cx="295.625"
         cy="392.16699"
         rx="0.182"
         ry="0.75"
         id="ellipse5826"
         transform="matrix(-1.0596755,0,0,-1.0596755,336.53555,458.8395)"
         d="m 295.807,392.16699 c 0,0.41422 -0.0815,0.75 -0.182,0.75 -0.10052,0 -0.182,-0.33578 -0.182,-0.75 0,-0.41421 0.0815,-0.75 0.182,-0.75 0.10052,0 0.182,0.33579 0.182,0.75 z" />
      <ellipse
         style="fill:#8192a7"
         sodipodi:ry="0.75"
         sodipodi:rx="0.182"
         sodipodi:cy="395.70801"
         sodipodi:cx="304.35901"
         cx="304.35901"
         cy="395.70801"
         rx="0.182"
         ry="0.75"
         id="ellipse5828"
         transform="matrix(-1.0596755,0,0,-1.0596755,336.60698,461.62522)"
         d="m 304.54101,395.70801 c 0,0.41421 -0.0815,0.75 -0.182,0.75 -0.10052,0 -0.182,-0.33579 -0.182,-0.75 0,-0.41422 0.0815,-0.75 0.182,-0.75 0.10051,0 0.182,0.33578 0.182,0.75 z" />
      <ellipse
         style="fill:#8192a7"
         sodipodi:ry="0.75"
         sodipodi:rx="0.182"
         sodipodi:cy="400.45901"
         sodipodi:cx="304.94299"
         cx="304.94299"
         cy="400.45901"
         rx="0.182"
         ry="0.75"
         id="ellipse5830"
         transform="matrix(-1.0596755,0,0,-1.0596755,336.60698,461.62522)"
         d="m 305.12499,400.45901 c 0,0.41422 -0.0815,0.75 -0.182,0.75 -0.10051,0 -0.182,-0.33578 -0.182,-0.75 0,-0.41421 0.0815,-0.75 0.182,-0.75 0.10052,0 0.182,0.33579 0.182,0.75 z" />
      <ellipse
         style="fill:#8192a7"
         sodipodi:ry="0.75"
         sodipodi:rx="0.182"
         sodipodi:cy="402.66699"
         sodipodi:cx="305.5"
         cx="305.5"
         cy="402.66699"
         rx="0.182"
         ry="0.75"
         id="ellipse5832"
         transform="matrix(-1.0596755,0,0,-1.0596755,336.17841,458.91093)"
         d="m 305.682,402.66699 c 0,0.41422 -0.0815,0.75 -0.182,0.75 -0.10052,0 -0.182,-0.33578 -0.182,-0.75 0,-0.41421 0.0815,-0.75 0.182,-0.75 0.10052,0 0.182,0.33579 0.182,0.75 z" />
      <ellipse
         style="fill:#8192a7"
         sodipodi:ry="0.75"
         sodipodi:rx="0.183"
         sodipodi:cy="402.20901"
         sodipodi:cx="308.58301"
         cx="308.58301"
         cy="402.20901"
         rx="0.183"
         ry="0.75"
         id="ellipse5834"
         transform="matrix(-1.0596755,0,0,-1.0596755,336.60698,461.62522)"
         d="m 308.76601,402.20901 c 0,0.41422 -0.0819,0.75 -0.183,0.75 -0.10107,0 -0.183,-0.33578 -0.183,-0.75 0,-0.41421 0.0819,-0.75 0.183,-0.75 0.10107,0 0.183,0.33579 0.183,0.75 z" />
      <ellipse
         style="fill:#8192a7"
         sodipodi:ry="0.75"
         sodipodi:rx="0.183"
         sodipodi:cy="408.04199"
         sodipodi:cx="307.95801"
         cx="307.95801"
         cy="408.04199"
         rx="0.183"
         ry="0.75"
         id="ellipse5836"
         transform="matrix(-1.0596755,0,0,-1.0596755,344.96412,467.98236)"
         d="m 308.14101,408.04199 c 0,0.41422 -0.0819,0.75 -0.183,0.75 -0.10107,0 -0.183,-0.33578 -0.183,-0.75 0,-0.41421 0.0819,-0.75 0.183,-0.75 0.10107,0 0.183,0.33579 0.183,0.75 z" />
      <ellipse
         style="fill:#8192a7"
         sodipodi:ry="0.75"
         sodipodi:rx="0.182"
         sodipodi:cy="404.41699"
         sodipodi:cx="304.33401"
         cx="304.33401"
         cy="404.41699"
         rx="0.182"
         ry="0.75"
         id="ellipse5838"
         transform="matrix(-1.0596755,0,0,-1.0596755,337.32127,463.69665)"
         d="m 304.51601,404.41699 c 0,0.41422 -0.0815,0.75 -0.182,0.75 -0.10051,0 -0.182,-0.33578 -0.182,-0.75 0,-0.41421 0.0815,-0.75 0.182,-0.75 0.10052,0 0.182,0.33579 0.182,0.75 z" />
      <ellipse
         style="fill:#3c4657;fill-opacity:0.23195879"
         sodipodi:ry="0.75"
         sodipodi:rx="0.25"
         sodipodi:cy="393.16699"
         sodipodi:cx="311.33301"
         transform="matrix(0.46975413,0.94989309,-0.94989309,0.46975413,252.62882,-450.67945)"
         cx="311.33301"
         cy="393.16699"
         rx="0.25"
         ry="0.75"
         id="ellipse5869"
         d="m 311.58301,393.16699 c 0,0.41422 -0.11193,0.75 -0.25,0.75 -0.13807,0 -0.25,-0.33578 -0.25,-0.75 0,-0.41421 0.11193,-0.75 0.25,-0.75 0.13807,0 0.25,0.33579 0.25,0.75 z" />
      <ellipse
         style="fill:#3c4657;fill-opacity:0.23195879"
         sodipodi:ry="0.75"
         sodipodi:rx="0.25"
         sodipodi:cy="387"
         sodipodi:cx="319.33301"
         transform="matrix(0.53375853,0.91545364,-0.91545364,0.53375853,216.87646,-472.47244)"
         cx="319.33301"
         cy="387"
         rx="0.25"
         ry="0.75"
         id="ellipse5871"
         d="m 319.58301,387 c 0,0.41421 -0.11193,0.75 -0.25,0.75 -0.13807,0 -0.25,-0.33579 -0.25,-0.75 0,-0.41421 0.11193,-0.75 0.25,-0.75 0.13807,0 0.25,0.33579 0.25,0.75 z" />
      <ellipse
         style="fill:#3c4657;fill-opacity:0.23195879"
         sodipodi:ry="0.75"
         sodipodi:rx="0.25"
         sodipodi:cy="387.16699"
         sodipodi:cx="323.33301"
         transform="matrix(0.48787458,0.94067388,-0.94067388,0.48787458,242.65149,-466.2428)"
         cx="323.33301"
         cy="387.16699"
         rx="0.25"
         ry="0.75"
         id="ellipse5873"
         d="m 323.58301,387.16699 c 0,0.41422 -0.11193,0.75 -0.25,0.75 -0.13807,0 -0.25,-0.33578 -0.25,-0.75 0,-0.41421 0.11193,-0.75 0.25,-0.75 0.13807,0 0.25,0.33579 0.25,0.75 z" />
      <ellipse
         style="fill:#3c4657;fill-opacity:0.23195879"
         sodipodi:ry="0.75"
         sodipodi:rx="0.25"
         sodipodi:cy="388.08301"
         sodipodi:cx="302.58301"
         transform="matrix(0.4780196,0.94576036,-0.94576036,0.4780196,239.88422,-444.75594)"
         cx="302.58301"
         cy="388.08301"
         rx="0.25"
         ry="0.75"
         id="ellipse5875"
         d="m 302.83301,388.08301 c 0,0.41421 -0.11193,0.75 -0.25,0.75 -0.13807,0 -0.25,-0.33579 -0.25,-0.75 0,-0.41422 0.11193,-0.75 0.25,-0.75 0.13807,0 0.25,0.33578 0.25,0.75 z" />
      <ellipse
         style="fill:#3c4657;fill-opacity:0.23195879"
         sodipodi:ry="0.75"
         sodipodi:rx="0.25"
         sodipodi:cy="380"
         sodipodi:cx="300.5"
         transform="matrix(0.43722209,0.96525836,-0.96525836,0.43722209,264.815,-427.55458)"
         cx="300.5"
         cy="380"
         rx="0.25"
         ry="0.75"
         id="ellipse5877"
         d="m 300.75,380 c 0,0.41421 -0.11193,0.75 -0.25,0.75 -0.13807,0 -0.25,-0.33579 -0.25,-0.75 0,-0.41421 0.11193,-0.75 0.25,-0.75 0.13807,0 0.25,0.33579 0.25,0.75 z" />
      <ellipse
         id="ellipse5879"
         ry="0.75"
         rx="0.25"
         cy="387"
         cx="319.33301"
         transform="matrix(0.53375853,0.91545364,-0.91545364,0.53375853,213.59075,-474.97244)"
         sodipodi:cx="319.33301"
         sodipodi:cy="387"
         sodipodi:rx="0.25"
         sodipodi:ry="0.75"
         style="fill:#3c4657;fill-opacity:0.23195879"
         d="m 319.58301,387 c 0,0.41421 -0.11193,0.75 -0.25,0.75 -0.13807,0 -0.25,-0.33579 -0.25,-0.75 0,-0.41421 0.11193,-0.75 0.25,-0.75 0.13807,0 0.25,0.33579 0.25,0.75 z" />
      <ellipse
         style="fill:#3c4657;fill-opacity:0.23195879"
         sodipodi:ry="0.75"
         sodipodi:rx="0.25"
         sodipodi:cy="387"
         sodipodi:cx="319.33301"
         transform="matrix(0.53375853,0.91545364,-0.91545364,0.53375853,212.80504,-472.47244)"
         cx="319.33301"
         cy="387"
         rx="0.25"
         ry="0.75"
         id="ellipse5881"
         d="m 319.58301,387 c 0,0.41421 -0.11193,0.75 -0.25,0.75 -0.13807,0 -0.25,-0.33579 -0.25,-0.75 0,-0.41421 0.11193,-0.75 0.25,-0.75 0.13807,0 0.25,0.33579 0.25,0.75 z" />
      <ellipse
         id="ellipse5883"
         ry="0.75"
         rx="0.25"
         cy="393.16699"
         cx="311.33301"
         transform="matrix(0.46975413,0.94989309,-0.94989309,0.46975413,248.27168,-452.53659)"
         sodipodi:cx="311.33301"
         sodipodi:cy="393.16699"
         sodipodi:rx="0.25"
         sodipodi:ry="0.75"
         style="fill:#3c4657;fill-opacity:0.23195879"
         d="m 311.58301,393.16699 c 0,0.41422 -0.11193,0.75 -0.25,0.75 -0.13807,0 -0.25,-0.33578 -0.25,-0.75 0,-0.41421 0.11193,-0.75 0.25,-0.75 0.13807,0 0.25,0.33579 0.25,0.75 z" />
      <ellipse
         style="fill:#3c4657;fill-opacity:0.23195879"
         sodipodi:ry="0.75"
         sodipodi:rx="0.25"
         sodipodi:cy="393.16699"
         sodipodi:cx="311.33301"
         transform="matrix(0.46975413,0.94989309,-0.94989309,0.46975413,244.27168,-451.25088)"
         cx="311.33301"
         cy="393.16699"
         rx="0.25"
         ry="0.75"
         id="ellipse5885"
         d="m 311.58301,393.16699 c 0,0.41422 -0.11193,0.75 -0.25,0.75 -0.13807,0 -0.25,-0.33578 -0.25,-0.75 0,-0.41421 0.11193,-0.75 0.25,-0.75 0.13807,0 0.25,0.33579 0.25,0.75 z" />
      <ellipse
         id="ellipse5887"
         ry="0.75"
         rx="0.25"
         cy="393.16699"
         cx="311.33301"
         transform="matrix(0.46975413,0.94989309,-0.94989309,0.46975413,241.62882,-452.67945)"
         sodipodi:cx="311.33301"
         sodipodi:cy="393.16699"
         sodipodi:rx="0.25"
         sodipodi:ry="0.75"
         style="fill:#3c4657;fill-opacity:0.23195879"
         d="m 311.58301,393.16699 c 0,0.41422 -0.11193,0.75 -0.25,0.75 -0.13807,0 -0.25,-0.33578 -0.25,-0.75 0,-0.41421 0.11193,-0.75 0.25,-0.75 0.13807,0 0.25,0.33579 0.25,0.75 z" />
      <ellipse
         id="ellipse5889"
         ry="0.75"
         rx="0.25"
         cy="387.16699"
         cx="323.33301"
         transform="matrix(0.48787458,0.94067388,-0.94067388,0.48787458,246.36578,-469.17137)"
         sodipodi:cx="323.33301"
         sodipodi:cy="387.16699"
         sodipodi:rx="0.25"
         sodipodi:ry="0.75"
         style="fill:#3c4657;fill-opacity:0.23195879"
         d="m 323.58301,387.16699 c 0,0.41422 -0.11193,0.75 -0.25,0.75 -0.13807,0 -0.25,-0.33578 -0.25,-0.75 0,-0.41421 0.11193,-0.75 0.25,-0.75 0.13807,0 0.25,0.33579 0.25,0.75 z" />
    </g>
    <path
       style="color:#000000;fill:none;stroke:#729fcf;stroke-width:3;stroke-linecap:round;stroke-linejoin:round;stroke-miterlimit:4;stroke-opacity:1;stroke-dasharray:none;stroke-dashoffset:0;marker:none;visibility:visible;display:inline;overflow:visible;enable-background:accumulate"
       d="M 1.8780092,30.417963 25.780546,36.652535 46.528787,29.507296"
       id="path11897"
       inkscape:connector-curvature="0"
       sodipodi:nodetypes="ccc" />
    <g
       id="g11228"
       transform="matrix(0.93488336,0,0,0.93488336,3.8692838,-0.3993508)">
      <path
         sodipodi:nodetypes="ccccccccc"
         inkscape:connector-curvature="0"
         d="M 22.300271,9.982175 4.7857123,5.8662904 4.910372,21.893295 l 2.9308474,0.514819 3.6137396,1.917296 3.625569,-0.01017 2.60737,1.195048 4.626023,0.124173 z"
         style="fill:#b3bdcc;fill-opacity:1;stroke:#465e76;stroke-width:0.5348261;stroke-linecap:butt;stroke-linejoin:miter;stroke-miterlimit:4;stroke-opacity:1;stroke-dasharray:none"
         id="path5059" />
      <path
         inkscape:connector-curvature="0"
         id="path5012"
         d="M 4.9090082,5.9286524 22.735213,0.69025366 39.938125,4.8061384 21.862602,10.044537 z"
         style="fill:#e1e7ef;fill-opacity:1;stroke:#465e76;stroke-width:0.5348261;stroke-linecap:butt;stroke-linejoin:bevel;stroke-miterlimit:4;stroke-opacity:1;stroke-dasharray:none" />
      <path
         sodipodi:nodetypes="ccccccccc"
         inkscape:connector-curvature="0"
         d="m 22.300273,9.8393179 17.888535,-5.1136747 -0.124659,12.7218258 -2.541475,0.663736 -2.833581,2.400297 -4.967828,1.284093 -3.680577,2.850859 -3.655337,1.130861 z"
         style="fill:#717f8f;fill-opacity:1;stroke:#465e76;stroke-width:0.5348261;stroke-linecap:butt;stroke-linejoin:miter;stroke-miterlimit:4;stroke-opacity:1;stroke-dasharray:none"
         id="path5024" />
      <line
         id="line4936"
         y2="23.857599"
         x2="18.787043"
         y1="9.6410074"
         x1="18.787043"
         stroke-miterlimit="10"
         style="fill:none;stroke:#767c90;stroke-width:0.09067873;stroke-miterlimit:10" />
      <line
         id="line4938"
         y2="12.721964"
         x2="14.387917"
         y1="8.5722904"
         x1="14.387917"
         stroke-miterlimit="10"
         style="fill:none;stroke:#767c90;stroke-width:0.09067873;stroke-miterlimit:10" />
      <line
         id="line4940"
         y2="14.757224"
         x2="7.8349466"
         y1="6.9866147"
         x1="7.8349466"
         stroke-miterlimit="10"
         style="fill:none;stroke:#767c90;stroke-width:0.09067873;stroke-miterlimit:10" />
      <ellipse
         transform="matrix(1.0596755,0,0,1.0596755,-294.98697,-408.31999)"
         id="ellipse4942"
         ry="0.75"
         rx="0.182"
         cy="394.83301"
         cx="289.784"
         sodipodi:cx="289.784"
         sodipodi:cy="394.83301"
         sodipodi:rx="0.182"
         sodipodi:ry="0.75"
         style="fill:#8192a7"
         d="m 289.966,394.83301 c 0,0.41421 -0.0815,0.75 -0.182,0.75 -0.10052,0 -0.182,-0.33579 -0.182,-0.75 0,-0.41422 0.0815,-0.75 0.182,-0.75 0.10051,0 0.182,0.33578 0.182,0.75 z" />
      <ellipse
         transform="matrix(1.0596755,0,0,1.0596755,-303.20125,-406.81999)"
         id="ellipse4944"
         ry="0.75"
         rx="0.182"
         cy="399.95901"
         cx="291.95801"
         sodipodi:cx="291.95801"
         sodipodi:cy="399.95901"
         sodipodi:rx="0.182"
         sodipodi:ry="0.75"
         style="fill:#8192a7"
         d="m 292.14001,399.95901 c 0,0.41422 -0.0815,0.75 -0.182,0.75 -0.10052,0 -0.182,-0.33578 -0.182,-0.75 0,-0.41421 0.0815,-0.75 0.182,-0.75 0.10051,0 0.182,0.33579 0.182,0.75 z" />
      <ellipse
         transform="matrix(1.0596755,0,0,1.0596755,-303.91554,-401.89142)"
         id="ellipse4946"
         ry="0.75"
         rx="0.182"
         cy="392.16699"
         cx="295.625"
         sodipodi:cx="295.625"
         sodipodi:cy="392.16699"
         sodipodi:rx="0.182"
         sodipodi:ry="0.75"
         style="fill:#8192a7"
         d="m 295.807,392.16699 c 0,0.41422 -0.0815,0.75 -0.182,0.75 -0.10052,0 -0.182,-0.33578 -0.182,-0.75 0,-0.41421 0.0815,-0.75 0.182,-0.75 0.10052,0 0.182,0.33579 0.182,0.75 z" />
      <ellipse
         transform="matrix(1.0596755,0,0,1.0596755,-306.41554,-408.53428)"
         id="ellipse4948"
         ry="0.75"
         rx="0.182"
         cy="395.70801"
         cx="304.35901"
         sodipodi:cx="304.35901"
         sodipodi:cy="395.70801"
         sodipodi:rx="0.182"
         sodipodi:ry="0.75"
         style="fill:#8192a7"
         d="m 304.54101,395.70801 c 0,0.41421 -0.0815,0.75 -0.182,0.75 -0.10052,0 -0.182,-0.33579 -0.182,-0.75 0,-0.41422 0.0815,-0.75 0.182,-0.75 0.10051,0 0.182,0.33578 0.182,0.75 z" />
      <ellipse
         transform="matrix(1.0596755,0,0,1.0596755,-306.41554,-408.53428)"
         id="ellipse4950"
         ry="0.75"
         rx="0.182"
         cy="400.45901"
         cx="304.94299"
         sodipodi:cx="304.94299"
         sodipodi:cy="400.45901"
         sodipodi:rx="0.182"
         sodipodi:ry="0.75"
         style="fill:#8192a7"
         d="m 305.12499,400.45901 c 0,0.41422 -0.0815,0.75 -0.182,0.75 -0.10051,0 -0.182,-0.33578 -0.182,-0.75 0,-0.41421 0.0815,-0.75 0.182,-0.75 0.10052,0 0.182,0.33579 0.182,0.75 z" />
      <ellipse
         transform="matrix(1.0596755,0,0,1.0596755,-306.41554,-408.53428)"
         id="ellipse4952"
         ry="0.75"
         rx="0.182"
         cy="402.66699"
         cx="305.5"
         sodipodi:cx="305.5"
         sodipodi:cy="402.66699"
         sodipodi:rx="0.182"
         sodipodi:ry="0.75"
         style="fill:#8192a7"
         d="m 305.682,402.66699 c 0,0.41422 -0.0815,0.75 -0.182,0.75 -0.10052,0 -0.182,-0.33578 -0.182,-0.75 0,-0.41421 0.0815,-0.75 0.182,-0.75 0.10052,0 0.182,0.33579 0.182,0.75 z" />
      <ellipse
         transform="matrix(1.0596755,0,0,1.0596755,-306.41554,-408.53428)"
         id="ellipse4954"
         ry="0.75"
         rx="0.183"
         cy="402.20901"
         cx="308.58301"
         sodipodi:cx="308.58301"
         sodipodi:cy="402.20901"
         sodipodi:rx="0.183"
         sodipodi:ry="0.75"
         style="fill:#8192a7"
         d="m 308.76601,402.20901 c 0,0.41422 -0.0819,0.75 -0.183,0.75 -0.10107,0 -0.183,-0.33578 -0.183,-0.75 0,-0.41421 0.0819,-0.75 0.183,-0.75 0.10107,0 0.183,0.33579 0.183,0.75 z" />
      <ellipse
         transform="matrix(1.0596755,0,0,1.0596755,-306.41554,-408.53428)"
         id="ellipse4956"
         ry="0.75"
         rx="0.183"
         cy="408.04199"
         cx="307.95801"
         sodipodi:cx="307.95801"
         sodipodi:cy="408.04199"
         sodipodi:rx="0.183"
         sodipodi:ry="0.75"
         style="fill:#8192a7"
         d="m 308.14101,408.04199 c 0,0.41422 -0.0819,0.75 -0.183,0.75 -0.10107,0 -0.183,-0.33578 -0.183,-0.75 0,-0.41421 0.0819,-0.75 0.183,-0.75 0.10107,0 0.183,0.33579 0.183,0.75 z" />
      <ellipse
         transform="matrix(1.0596755,0,0,1.0596755,-306.41554,-408.53428)"
         id="ellipse4958"
         ry="0.75"
         rx="0.182"
         cy="404.41699"
         cx="304.33401"
         sodipodi:cx="304.33401"
         sodipodi:cy="404.41699"
         sodipodi:rx="0.182"
         sodipodi:ry="0.75"
         style="fill:#8192a7"
         d="m 304.51601,404.41699 c 0,0.41422 -0.0815,0.75 -0.182,0.75 -0.10051,0 -0.182,-0.33578 -0.182,-0.75 0,-0.41421 0.0815,-0.75 0.182,-0.75 0.10052,0 0.182,0.33579 0.182,0.75 z" />
      <ellipse
         transform="matrix(1.0596755,0,0,1.0596755,-306.91554,-400.67714)"
         id="ellipse4960"
         ry="0.75"
         rx="0.182"
         cy="391.5"
         cx="325.25"
         sodipodi:cx="325.25"
         sodipodi:cy="391.5"
         sodipodi:rx="0.182"
         sodipodi:ry="0.75"
         style="fill:#3d5f79"
         d="m 325.432,391.5 c 0,0.41421 -0.0815,0.75 -0.182,0.75 -0.10052,0 -0.182,-0.33579 -0.182,-0.75 0,-0.41421 0.0815,-0.75 0.182,-0.75 0.10052,0 0.182,0.33579 0.182,0.75 z" />
      <ellipse
         transform="matrix(1.0596755,0,0,1.0596755,-311.5584,-411.74857)"
         id="ellipse4962"
         ry="0.75"
         rx="0.182"
         cy="399.41699"
         cx="326.33301"
         sodipodi:cx="326.33301"
         sodipodi:cy="399.41699"
         sodipodi:rx="0.182"
         sodipodi:ry="0.75"
         style="fill:#3d5f79"
         d="m 326.51501,399.41699 c 0,0.41422 -0.0815,0.75 -0.182,0.75 -0.10052,0 -0.182,-0.33578 -0.182,-0.75 0,-0.41421 0.0815,-0.75 0.182,-0.75 0.10051,0 0.182,0.33579 0.182,0.75 z" />
      <ellipse
         transform="matrix(1.0596755,0,0,1.0596755,-304.41554,-412.60571)"
         id="ellipse4964"
         ry="0.75"
         rx="0.182"
         cy="407.83401"
         cx="316.73499"
         sodipodi:cx="316.73499"
         sodipodi:cy="407.83401"
         sodipodi:rx="0.182"
         sodipodi:ry="0.75"
         style="fill:#3d5f79"
         d="m 316.91699,407.83401 c 0,0.41422 -0.0815,0.75 -0.182,0.75 -0.10052,0 -0.182,-0.33578 -0.182,-0.75 0,-0.41421 0.0815,-0.75 0.182,-0.75 0.10051,0 0.182,0.33579 0.182,0.75 z" />
      <ellipse
         transform="matrix(1.0596755,0,0,1.0596755,-304.41554,-412.60571)"
         id="ellipse4966"
         ry="0.75"
         rx="0.182"
         cy="406.16699"
         cx="317.41699"
         sodipodi:cx="317.41699"
         sodipodi:cy="406.16699"
         sodipodi:rx="0.182"
         sodipodi:ry="0.75"
         style="fill:#3d5f79"
         d="m 317.59899,406.16699 c 0,0.41422 -0.0815,0.75 -0.182,0.75 -0.10051,0 -0.182,-0.33578 -0.182,-0.75 0,-0.41421 0.0815,-0.75 0.182,-0.75 0.10052,0 0.182,0.33579 0.182,0.75 z" />
      <ellipse
         transform="matrix(1.0596755,0,0,1.0596755,-304.41554,-412.60571)"
         id="ellipse4968"
         ry="0.75"
         rx="0.182"
         cy="399.25"
         cx="313.5"
         sodipodi:cx="313.5"
         sodipodi:cy="399.25"
         sodipodi:rx="0.182"
         sodipodi:ry="0.75"
         style="fill:#3d5f79"
         d="m 313.682,399.25 c 0,0.41421 -0.0815,0.75 -0.182,0.75 -0.10052,0 -0.182,-0.33579 -0.182,-0.75 0,-0.41421 0.0815,-0.75 0.182,-0.75 0.10052,0 0.182,0.33579 0.182,0.75 z" />
      <ellipse
         id="ellipse4970"
         ry="0.75"
         rx="0.25"
         cy="393.16699"
         cx="311.33301"
         transform="matrix(0.46975413,0.94989309,-0.94989309,0.46975413,249.05739,-472.75088)"
         sodipodi:cx="311.33301"
         sodipodi:cy="393.16699"
         sodipodi:rx="0.25"
         sodipodi:ry="0.75"
         style="fill:#c7cdd8"
         d="m 311.58301,393.16699 c 0,0.41422 -0.11193,0.75 -0.25,0.75 -0.13807,0 -0.25,-0.33578 -0.25,-0.75 0,-0.41421 0.11193,-0.75 0.25,-0.75 0.13807,0 0.25,0.33579 0.25,0.75 z" />
      <ellipse
         id="ellipse4972"
         ry="0.75"
         rx="0.25"
         cy="387"
         cx="319.33301"
         transform="matrix(0.53375853,0.91545364,-0.91545364,0.53375853,213.30503,-494.54387)"
         sodipodi:cx="319.33301"
         sodipodi:cy="387"
         sodipodi:rx="0.25"
         sodipodi:ry="0.75"
         style="fill:#c7cdd8"
         d="m 319.58301,387 c 0,0.41421 -0.11193,0.75 -0.25,0.75 -0.13807,0 -0.25,-0.33579 -0.25,-0.75 0,-0.41421 0.11193,-0.75 0.25,-0.75 0.13807,0 0.25,0.33579 0.25,0.75 z" />
      <ellipse
         id="ellipse4974"
         ry="0.75"
         rx="0.25"
         cy="387.16699"
         cx="323.33301"
         transform="matrix(0.48787458,0.94067388,-0.94067388,0.48787458,239.08006,-488.31423)"
         sodipodi:cx="323.33301"
         sodipodi:cy="387.16699"
         sodipodi:rx="0.25"
         sodipodi:ry="0.75"
         style="fill:#c7cdd8"
         d="m 323.58301,387.16699 c 0,0.41422 -0.11193,0.75 -0.25,0.75 -0.13807,0 -0.25,-0.33578 -0.25,-0.75 0,-0.41421 0.11193,-0.75 0.25,-0.75 0.13807,0 0.25,0.33579 0.25,0.75 z" />
      <ellipse
         id="ellipse4976"
         ry="0.75"
         rx="0.25"
         cy="388.08301"
         cx="302.58301"
         transform="matrix(0.4780196,0.94576036,-0.94576036,0.4780196,236.31279,-466.82737)"
         sodipodi:cx="302.58301"
         sodipodi:cy="388.08301"
         sodipodi:rx="0.25"
         sodipodi:ry="0.75"
         style="fill:#c7cdd8"
         d="m 302.83301,388.08301 c 0,0.41421 -0.11193,0.75 -0.25,0.75 -0.13807,0 -0.25,-0.33579 -0.25,-0.75 0,-0.41422 0.11193,-0.75 0.25,-0.75 0.13807,0 0.25,0.33578 0.25,0.75 z" />
      <ellipse
         id="ellipse4978"
         ry="0.75"
         rx="0.25"
         cy="380"
         cx="300.5"
         transform="matrix(0.43722209,0.96525836,-0.96525836,0.43722209,256.815,-452.62601)"
         sodipodi:cx="300.5"
         sodipodi:cy="380"
         sodipodi:rx="0.25"
         sodipodi:ry="0.75"
         style="fill:#c7cdd8"
         d="m 300.75,380 c 0,0.41421 -0.11193,0.75 -0.25,0.75 -0.13807,0 -0.25,-0.33579 -0.25,-0.75 0,-0.41421 0.11193,-0.75 0.25,-0.75 0.13807,0 0.25,0.33579 0.25,0.75 z" />
      <line
         id="line4982"
         y2="17.927633"
         x2="25.784597"
         y1="8.6554708"
         x1="25.784597"
         stroke-miterlimit="10"
         style="fill:none;stroke:#133c57;stroke-width:0.09067873;stroke-miterlimit:10" />
    </g>
    <path
       sodipodi:nodetypes="ccc"
       inkscape:connector-curvature="0"
       id="path11895"
       d="M 1.8780092,15.146764 25.71045,21.591491 46.528787,14.376199"
       style="fill:none;stroke:#729fcf;stroke-width:3;stroke-linecap:round;stroke-linejoin:round;stroke-miterlimit:4;stroke-opacity:1;stroke-dasharray:none" />
    <path
       inkscape:connector-curvature="0"
       id="path11899"
       d="m 1.5976277,15.146764 0,15.201148"
       style="color:#000000;fill:none;stroke:#729fcf;stroke-width:3;stroke-linecap:round;stroke-linejoin:round;stroke-miterlimit:4;stroke-opacity:1;stroke-dasharray:none;stroke-dashoffset:0;marker:none;visibility:visible;display:inline;overflow:visible;enable-background:accumulate" />
    <path
       style="color:#000000;fill:none;stroke:#729fcf;stroke-width:3;stroke-linecap:round;stroke-linejoin:round;stroke-miterlimit:4;stroke-opacity:1;stroke-dasharray:none;stroke-dashoffset:0;marker:none;visibility:visible;display:inline;overflow:visible;enable-background:accumulate"
       d="m 25.640354,21.451387 0,15.201148"
       id="path11901"
       inkscape:connector-curvature="0" />
    <path
       inkscape:connector-curvature="0"
       id="path11903"
       d="m 46.528787,14.166045 0,15.201148"
       style="color:#000000;fill:none;stroke:#729fcf;stroke-width:3;stroke-linecap:round;stroke-linejoin:round;stroke-miterlimit:4;stroke-opacity:1;stroke-dasharray:none;stroke-dashoffset:0;marker:none;visibility:visible;display:inline;overflow:visible;enable-background:accumulate" />
    <path
       style="fill:none;stroke:#ffffff;stroke-width:0.99999994px;stroke-linecap:round;stroke-linejoin:round;stroke-opacity:1"
       d="M 1.8780092,15.146764 25.71045,21.591491 46.528787,14.376199"
       id="path11842"
       inkscape:connector-curvature="0"
       sodipodi:nodetypes="ccc" />
    <path
       sodipodi:nodetypes="ccc"
       inkscape:connector-curvature="0"
       id="path11844"
       d="M 1.8780092,30.417963 25.780546,36.652535 46.528787,29.507296"
       style="color:#000000;fill:none;stroke:#ffffff;stroke-width:0.99999994px;stroke-linecap:round;stroke-linejoin:round;stroke-miterlimit:4;stroke-opacity:1;stroke-dasharray:none;stroke-dashoffset:0;marker:none;visibility:visible;display:inline;overflow:visible;enable-background:accumulate" />
    <path
       style="color:#000000;fill:none;stroke:#ffffff;stroke-width:0.99999994px;stroke-linecap:round;stroke-linejoin:round;stroke-miterlimit:4;stroke-opacity:1;stroke-dasharray:none;stroke-dashoffset:0;marker:none;visibility:visible;display:inline;overflow:visible;enable-background:accumulate"
       d="m 1.5976277,15.146764 0,15.201148"
       id="path11879"
       inkscape:connector-curvature="0" />
    <path
       inkscape:connector-curvature="0"
       id="path11887"
       d="m 25.640354,21.451387 0,15.201148"
       style="color:#000000;fill:none;stroke:#ffffff;stroke-width:0.99999994px;stroke-linecap:round;stroke-linejoin:round;stroke-miterlimit:4;stroke-opacity:1;stroke-dasharray:none;stroke-dashoffset:0;marker:none;visibility:visible;display:inline;overflow:visible;enable-background:accumulate" />
    <path
       style="color:#000000;fill:none;stroke:#ffffff;stroke-width:0.99999994px;stroke-linecap:round;stroke-linejoin:round;stroke-miterlimit:4;stroke-opacity:1;stroke-dasharray:none;stroke-dashoffset:0;marker:none;visibility:visible;display:inline;overflow:visible;enable-background:accumulate"
       d="m 46.528787,14.166045 0,15.201148"
       id="path11889"
       inkscape:connector-curvature="0" />
  </g>
</svg>
