<?xml version="1.0" encoding="UTF-8" standalone="no"?>
<!-- Generator: Adobe Illustrator 15.0.0, SVG Export Plug-In . SVG Version: 6.00 Build 0)  -->
<svg
   xmlns:dc="http://purl.org/dc/elements/1.1/"
   xmlns:cc="http://creativecommons.org/ns#"
   xmlns:rdf="http://www.w3.org/1999/02/22-rdf-syntax-ns#"
   xmlns:svg="http://www.w3.org/2000/svg"
   xmlns="http://www.w3.org/2000/svg"
   xmlns:xlink="http://www.w3.org/1999/xlink"
   xmlns:sodipodi="http://sodipodi.sourceforge.net/DTD/sodipodi-0.dtd"
   xmlns:inkscape="http://www.inkscape.org/namespaces/inkscape"
   version="1.0"
   id="Layer_1"
   x="0px"
   y="0px"
   width="48"
   height="48"
   viewBox="0 0 612 792"
   enable-background="new 0 0 612 792"
   xml:space="preserve"
   sodipodi:version="0.32"
   inkscape:version="0.46"
   sodipodi:docname="Shatter.svg"
   inkscape:output_extension="org.inkscape.output.svg.inkscape"><metadata
   id="metadata30751"><rdf:RDF><cc:Work
       rdf:about=""><dc:format>image/svg+xml</dc:format><dc:type
         rdf:resource="http://purl.org/dc/dcmitype/StillImage" /></cc:Work></rdf:RDF></metadata><defs
   id="defs30749"><inkscape:perspective
   sodipodi:type="inkscape:persp3d"
   inkscape:vp_x="0 : 396 : 1"
   inkscape:vp_y="0 : 1000 : 0"
   inkscape:vp_z="612 : 396 : 1"
   inkscape:persp3d-origin="306 : 264 : 1"
   id="perspective30753" />
	
	
<radialGradient
   inkscape:collect="always"
   xlink:href="#SVGID_1_"
   id="radialGradient30805"
   gradientUnits="userSpaceOnUse"
   cx="314.16599"
   cy="376.8335"
   r="31.114901" /><radialGradient
   inkscape:collect="always"
   xlink:href="#SVGID_2_"
   id="radialGradient30807"
   gradientUnits="userSpaceOnUse"
   cx="322.25"
   cy="421.25"
   r="28.460501" />
		
			
		
			
		
			
		
			
		
			
		
			
		
			
		
			
		
			
		
			
		
			
		
			
		
			
		
			
		
			
		
			
		
			
		
			
		
			
		
			
		
			
		
			
		
			
		
			
		
		<radialGradient
   id="SVGID_1_"
   cx="314.16599"
   cy="376.8335"
   r="31.114901"
   gradientUnits="userSpaceOnUse">
			<stop
   offset="0"
   style="stop-color:#E9E5E4;stop-opacity:0.95"
   id="stop30705" />
			<stop
   offset="0.1062"
   style="stop-color:#E5E0DE;stop-opacity:0.7932"
   id="stop30707" />
			<stop
   offset="0.2023"
   style="stop-color:#DBD5D2;stop-opacity:0.6512"
   id="stop30709" />
			<stop
   offset="0.4256"
   style="stop-color:#D8D1CF;stop-opacity:0"
   id="stop30711" />
		</radialGradient>
		
		
		
		<radialGradient
   id="SVGID_2_"
   cx="322.25"
   cy="421.25"
   r="28.460501"
   gradientUnits="userSpaceOnUse">
			<stop
   offset="0"
   style="stop-color:#BFB7AA;stop-opacity:0.95"
   id="stop30720" />
			<stop
   offset="0.1538"
   style="stop-color:#C2B9AB;stop-opacity:0.7229"
   id="stop30722" />
			<stop
   offset="0.2023"
   style="stop-color:#C3BAAB;stop-opacity:0.6512"
   id="stop30724" />
			<stop
   offset="0.4256"
   style="stop-color:#C6BDAE;stop-opacity:0"
   id="stop30726" />
		</radialGradient>
		
		
		
		
		
		
		
		
		
		
	<radialGradient
   inkscape:collect="always"
   xlink:href="#SVGID_2_"
   id="radialGradient30829"
   gradientUnits="userSpaceOnUse"
   cx="322.25"
   cy="421.25"
   r="28.460501"
   gradientTransform="matrix(16.923583,0,0,16.923583,-5077.1093,-6326.4074)" /><radialGradient
   inkscape:collect="always"
   xlink:href="#SVGID_1_"
   id="radialGradient30834"
   gradientUnits="userSpaceOnUse"
   cx="314.16599"
   cy="376.8335"
   r="31.114901"
   gradientTransform="matrix(16.923583,0,0,16.923583,-5077.1093,-6326.4074)" /></defs><sodipodi:namedview
   inkscape:window-height="1538"
   inkscape:window-width="2560"
   inkscape:pageshadow="2"
   inkscape:pageopacity="0.0"
   guidetolerance="10.0"
   gridtolerance="10.0"
   objecttolerance="10.0"
   borderopacity="1.0"
   bordercolor="#666666"
   pagecolor="#ffffff"
   id="base"
   showgrid="false"
   inkscape:zoom="18.666667"
   inkscape:cx="16.842992"
   inkscape:cy="19.891303"
   inkscape:window-x="0"
   inkscape:window-y="24"
   inkscape:current-layer="Layer_1" />
<path
   stroke-miterlimit="10"
   d="M 255.7486,284.57044 L 234.17103,299.59859 L 141.41287,235.71206 L 108.05649,265.59911 C 108.05649,265.59911 100.72858,272.72394 97.293096,269.55922 C 93.857603,266.39452 95.736126,259.7774 95.736126,259.7774 C 129.75252,126.53802 228.34932,9.6806831 306.72244,9.6806831 C 354.09155,9.6806831 409.95629,51.397316 456.12383,121.27479 L 460.49012,127.82421 L 385.38325,154.03884 L 364.68571,139.63688 L 349.14986,160.43596 L 334.64635,160.6052 L 401.57912,268.35766 L 390.6634,270.21925 L 388.24334,269.42384 L 345.51129,248.06628 L 325.47376,315.26983 L 279.0693,315.79445 L 255.7486,284.57044 z"
   id="path30654"
   style="fill:none;stroke:#454113;stroke-width:18.61199999999999800;stroke-linecap:round;stroke-linejoin:round;stroke-miterlimit:10;stroke-dasharray:none;stroke-opacity:1" /><path
   stroke-miterlimit="10"
   d="M 140.90517,227.96106 L 234.15411,292.16913 L 257.11941,276.19327 L 282.09863,309.6512 L 320.92133,309.22811 L 341.73732,239.35063 L 390.98496,263.97444 L 391.57728,263.87291 L 323.71371,154.61424 L 346.05284,154.37732 L 363.31489,131.27663 L 386.2802,147.25249 L 450.99599,124.65951 C 408.3824,60.180655 353.82077,15.790097 306.68859,15.790097 C 230.36323,15.790097 134.66036,131.88588 101.62553,261.28359 L 104.9087,260.20049 L 140.90517,227.96106 z"
   id="path30656"
   style="fill:none;stroke:#efede5;stroke-width:15.23122501;stroke-linecap:round;stroke-linejoin:round;stroke-miterlimit:10" /><path
   stroke-miterlimit="10"
   d="M 573.60734,551.57382 L 550.67589,538.9319 L 552.09747,533.29635 L 568.63181,533.09327 L 502.29136,475.68847 L 505.72685,445.34449 L 488.63403,440.19971 L 487.94016,433.85337 L 524.07201,422.51457 L 555.5668,452.33393 L 629.53979,461.74343 L 653.46974,510.83875 L 669.49636,459.25567 C 669.49636,459.25567 677.60276,448.66151 684.6599,447.95071 C 688.43385,447.57839 688.5354,457.42793 688.5354,457.42793 C 688.50155,475.35 687.24921,492.67975 684.79528,508.94331 C 679.83668,541.6566 670.74871,572.6606 657.71755,601.12606 L 656.22827,604.44309 L 638.91545,605.54313 L 573.60734,551.57382 z"
   id="path30658"
   style="fill:none;stroke:#454113;stroke-width:18.61594200000000000;stroke-linecap:round;stroke-linejoin:round;stroke-miterlimit:10;stroke-opacity:1" /><path
   stroke-miterlimit="10"
   d="M 654.72207,527.39001 L 625.49505,467.37899 L 552.77441,458.17256 L 522.32888,429.30092 L 492.57722,437.33963 L 512.41166,440.13202 L 508.67155,473.18377 L 586.60465,540.55656 L 555.53295,538.20418 L 576.68743,546.22596 L 640.94628,599.31525 L 652.14969,598.58753 C 664.38544,571.81442 673.64265,541.67352 678.71972,508.02944 C 681.22441,491.46125 682.39214,474.52075 682.42598,457.411 L 674.6919,463.02963 L 654.72207,527.39001 z"
   id="path30660"
   style="fill:none;stroke:#efede5;stroke-width:15.23122501;stroke-linecap:round;stroke-linejoin:round;stroke-miterlimit:10" /><path
   stroke-miterlimit="10"
   d="M 314.27035,782.02225 C 229.06011,782.02225 155.74714,732.28384 118.19372,648.93519 L 115.23209,642.35192 L 197.29454,620.7405 L 268.94899,650.67832 L 421.68434,622.6021 L 499.88822,669.53119 L 496.74043,674.7775 C 456.30998,742.92877 389.76646,782.02225 314.27035,782.02225 z"
   id="path30662"
   style="fill:none;stroke:#454113;stroke-width:18.61594200000000000;stroke-linecap:round;stroke-linejoin:round;stroke-miterlimit:10;stroke-opacity:1" /><path
   stroke-miterlimit="10"
   d="M 268.27206,657.00774 L 196.82069,627.17146 L 123.74465,646.44742 C 160.57037,728.10371 232.05558,775.91284 314.27035,775.91284 C 387.58331,775.91284 452.26525,737.76707 491.54489,671.64664 L 420.51661,629.01614 L 268.27206,657.00774 z"
   id="path30664"
   style="fill:none;stroke:#efede5;stroke-width:15.23122501;stroke-linecap:round;stroke-linejoin:round;stroke-miterlimit:10" /><path
   stroke-miterlimit="10"
   d="M 31.460355,566.04348 C 7.9704211,536.78261 -9.4947166,501.09077 -20.461198,460.0003 C -23.405902,448.98305 -25.724433,437.40733 -27.518333,424.64694 C -27.518333,424.64694 -28.821449,417.53904 -26.84139,416.23592 C -24.725942,414.83126 -10.323972,424.57925 -10.323972,424.57925 L 2.0640907,461.33727 L 25.503254,416.82825 L 102.40401,435.6642 L 119.09067,402.54474 L 130.53101,395.40299 L 209.7503,469.83291 L 127.48477,511.34646 L 84.261934,505.47397 L 35.826639,571.40825 L 31.460355,566.04348 z"
   id="path30666"
   style="fill:none;stroke:#454113;stroke-width:18.61594202;stroke-linecap:round;stroke-linejoin:round;stroke-miterlimit:10;opacity:1;color:#000000;fill-opacity:1;fill-rule:nonzero;marker:none;marker-start:none;marker-mid:none;marker-end:none;stroke-dasharray:none;stroke-dashoffset:0;stroke-opacity:1;visibility:visible;display:inline;overflow:visible;enable-background:accumulate" /><path
   stroke-miterlimit="10"
   d="M 126.53705,505.84629 L 200.52695,468.52979 L 129.85407,402.10473 L 123.15232,406.28485 L 105.24718,441.89208 L 28.261798,423.02228 L 0.9809814,474.85922 L -14.741027,428.21782 L -22.255098,423.91923 C -20.579663,435.68112 -18.34575,447.32455 -15.316429,458.62949 C -4.197635,500.32921 13.53828,535.17486 35.606632,562.69261 L 81.808014,499.78765 L 126.53705,505.84629 z"
   id="path30668"
   style="fill:none;stroke:#efede5;stroke-width:15.23122501;stroke-linecap:round;stroke-linejoin:round;stroke-miterlimit:10" /><path
   stroke-miterlimit="10"
   d="M 379.66308,310.09121 L 389.24183,325.55936 C 389.24183,325.55936 364.21185,348.4739 357.81474,340.18134 C 351.36685,331.88878 379.66308,310.09121 379.66308,310.09121 z"
   id="path30670"
   style="fill:none;stroke:#454113;stroke-width:18.61594202;stroke-linecap:round;stroke-linejoin:round;stroke-miterlimit:10;opacity:1;color:#000000;fill-opacity:1;fill-rule:nonzero;marker:none;marker-start:none;marker-mid:none;marker-end:none;stroke-dasharray:none;stroke-dashoffset:0;stroke-opacity:1;visibility:visible;display:inline;overflow:visible;enable-background:accumulate" /><polygon
   stroke-miterlimit="10"
   points="321.447,393.625 322.588,392.875 322.434,392.629 321.447,393.625 "
   id="polygon30672"
   style="fill:none;stroke:#efede5;stroke-width:0.89999998;stroke-linecap:round;stroke-linejoin:round;stroke-miterlimit:10"
   transform="matrix(16.923583,0,0,16.923583,-5077.1093,-6326.4074)" /><path
   stroke-miterlimit="10"
   d="M 544.32955,169.7947 C 544.32955,169.7947 470.28886,173.65328 468.17342,169.42238 C 466.05797,165.19149 493.06801,132.93514 493.06801,132.93514 L 518.35185,150.50182 L 584.59074,127.36728 L 587.23083,131.32739 C 595.79416,144.24009 605.84677,161.14675 613.44546,175.76872 L 545.39573,198.17555 L 544.32955,169.7947 z"
   id="path30674"
   style="fill:none;stroke:#454113;stroke-width:18.61594200000000000;stroke-linecap:round;stroke-linejoin:round;stroke-miterlimit:10;stroke-opacity:1" /><path
   stroke-miterlimit="10"
   d="M 494.45575,141.32924 L 477.17677,164.42993 L 550.21895,163.63452 L 551.21744,190.03531 L 604.27287,173.8056 C 604.27287,173.8056 590.68324,147.6248 582.15375,134.72904 L 517.40412,157.32203 L 494.45575,141.32924 z"
   id="path30676"
   style="fill:none;stroke:#efede5;stroke-width:15.23122501;stroke-linecap:round;stroke-linejoin:round;stroke-miterlimit:10" /><path
   stroke-miterlimit="10"
   d="M -74.092034,354.80331 L -80.87839,348.10158 L -80.539919,345.41073 C -78.712172,330.34874 -75.86901,315.13444 -72.04428,300.17399 L -71.316566,297.28006 L -66.61181,295.68924 L -31.766152,264.516 L 52.750222,322.69928 L 74.717034,307.41728 C 74.717034,307.41728 106.1949,345.59689 104.3333,349.23546 C 102.47171,352.87402 80.166427,350.80935 80.166427,350.80935 L 90.811361,367.95293 L 77.67866,371.96383 L 48.468556,404.84635 L -23.372054,365.49902 C -23.372054,365.49902 -63.108628,413.37584 -67.74569,411.27731 C -72.382752,409.17879 -74.092034,354.80331 -74.092034,354.80331 z"
   id="path30678"
   style="fill:none;stroke:#454113;stroke-width:18.61594202;stroke-linecap:round;stroke-linejoin:round;stroke-miterlimit:10;opacity:1;color:#000000;fill-opacity:1;fill-rule:nonzero;marker:none;marker-start:none;marker-mid:none;marker-end:none;stroke-dasharray:none;stroke-dashoffset:0;stroke-opacity:1;visibility:visible;display:inline;overflow:visible;enable-background:accumulate" /><path
   stroke-miterlimit="10"
   d="M -65.477929,403.03553 L -24.505935,358.62805 L 47.266982,397.94153 L 74.581645,367.19137 L 82.34957,364.78823 L 70.316901,345.41073 L 96.006902,345.13995 L 73.481611,314.98212 L 52.767145,329.40102 L -31.326139,271.50544 L -63.768647,300.54631 L -66.713352,301.52788 C -70.453463,316.25139 -73.262778,331.16107 -75.090525,346.08767 L -68.744181,352.3494 L -65.477929,403.03553 z"
   id="path30680"
   style="fill:none;stroke:#efede5;stroke-width:15.23122501;stroke-linecap:round;stroke-linejoin:round;stroke-miterlimit:10" /><path
   stroke-miterlimit="10"
   d="M 169.89527,342.88912 C 172.01072,338.65821 222.0876,339.58902 222.0876,339.58902 C 222.0876,339.58902 245.8483,366.49751 244.64674,370.38994 C 243.44516,374.28236 193.68982,387.34737 193.68982,387.34737 C 193.68982,387.34737 167.77981,347.12001 169.89527,342.88912 z"
   id="path30682"
   style="fill:none;stroke:#454113;stroke-width:18.61594202;stroke-linecap:round;stroke-linejoin:round;stroke-miterlimit:10;opacity:1;color:#000000;fill-opacity:1;fill-rule:nonzero;marker:none;marker-start:none;marker-mid:none;marker-end:none;stroke-dasharray:none;stroke-dashoffset:0;stroke-opacity:1;visibility:visible;display:inline;overflow:visible;enable-background:accumulate" /><polygon
   stroke-miterlimit="10"
   points="312.959,394.287 310.436,394.314 311.617,396.217 313.884,395.526 312.959,394.287 "
   id="polygon30684"
   style="fill:none;stroke:#efede5;stroke-width:0.89999998;stroke-linecap:round;stroke-linejoin:round;stroke-miterlimit:10"
   transform="matrix(16.923583,0,0,16.923583,-5077.1093,-6326.4074)" /><polygon
   stroke-miterlimit="10"
   points="330.025,391.982 330.369,391.875 329.998,391.897 329.707,390.966 331.246,391.93 330.207,392.321 330.025,391.982 "
   id="polygon30686"
   style="fill:none;stroke:#746d21;stroke-width:1.10000002;stroke-linecap:round;stroke-linejoin:round;stroke-miterlimit:10"
   transform="matrix(16.923583,0,0,16.923583,-5077.1093,-6326.4074)" /><path
   stroke-miterlimit="10"
   d="M 515.08559,305.08182 L 513.49478,304.06642 C 513.63016,304.54027 513.76555,305.03106 513.91786,305.50492 L 515.08559,305.08182 z"
   id="path30688"
   style="fill:none;stroke:#efede5;stroke-width:18.615942;stroke-linecap:round;stroke-linejoin:round;stroke-miterlimit:10" /><polygon
   stroke-miterlimit="10"
   points="336.729,387.425 334.773,387.754 334.518,386.944 335.791,385.914 340.498,387.054 340.043,389.195 338.334,389.278 336.729,387.425 "
   id="polygon30690"
   style="fill:none;stroke:#454113;stroke-width:1.10000002000000000;stroke-linecap:round;stroke-linejoin:round;stroke-miterlimit:10;stroke-opacity:1"
   transform="matrix(16.923583,0,0,16.923583,-5077.1093,-6326.4074)" /><polygon
   stroke-miterlimit="10"
   points="338.494,388.909 339.746,388.848 340.072,387.321 335.879,386.306 334.936,387.07 335.021,387.346 336.867,387.036 338.494,388.909 "
   id="polygon30692"
   style="fill:none;stroke:#efede5;stroke-width:0.89999998;stroke-linecap:round;stroke-linejoin:round;stroke-miterlimit:10"
   transform="matrix(16.923583,0,0,16.923583,-5077.1093,-6326.4074)" /><path
   stroke-miterlimit="10"
   d="M 421.90434,579.34542 L 270.15057,607.21856 L 198.95306,577.48382 L 122.78001,597.58904 L 118.87066,588.48415 L 121.71383,583.7117 L 194.19753,525.49458 L 243.44516,546.05673 L 338.57262,526.13767 L 343.98817,534.85332 L 410.32861,511.17723 L 439.64026,504.94935 L 511.10855,547.81678 L 529.72449,543.77205 L 526.91517,553.5708 C 520.14574,577.31459 510.85469,599.2137 499.34665,618.67582 L 496.19888,623.95598 L 421.90434,579.34542 z"
   id="path30694"
   style="fill:none;stroke:#454113;stroke-width:18.61594200000000000;stroke-linecap:round;stroke-linejoin:round;stroke-miterlimit:10;stroke-opacity:1" /><path
   stroke-miterlimit="10"
   d="M 510.05928,554.26467 L 438.59099,511.39723 L 412.37637,516.88047 L 341.44963,542.24893 L 335.66177,532.97479 L 242.85283,552.38614 L 195.19602,532.50094 L 125.55548,588.45031 C 125.82626,589.05956 126.04626,589.70265 126.31704,590.32882 L 199.39307,571.03593 L 270.82752,600.85529 L 423.10591,572.89753 L 494.10035,615.51111 C 505.37145,596.53978 514.39172,575.21606 521.0427,551.86152 L 510.05928,554.26467 z"
   id="path30696"
   style="fill:none;stroke:#efede5;stroke-width:15.23122501;stroke-linecap:round;stroke-linejoin:round;stroke-miterlimit:10" /><path
   stroke-miterlimit="10"
   d="M 605.54214,366.64982 L 533.58307,368.40987 L 500.32822,345.24149 L 474.07975,356.78337 L 456.49614,356.96953 L 469.78116,312.35897 L 414.44104,223.23938 L 435.20628,214.08372 L 431.36463,209.63282 L 398.31287,215.18375 L 393.94658,201.49258 L 415.45646,184.04436 L 495.14961,203.33724 L 489.46328,229.97496 L 512.8686,222.81629 L 513.29169,234.39203 L 598.21423,287.92132 L 599.97428,295.13076 L 621.85647,287.32899 L 652.26816,317.72374 L 664.36851,313.32361 L 665.7901,320.24536 C 667.21168,327.21787 668.46402,334.17347 669.53021,341.16291 L 669.98714,344.22608 L 662.4223,351.68937 C 662.4223,351.68937 653.62205,426.1193 650.08501,427.52396 C 646.59876,428.92861 605.54214,366.64982 605.54214,366.64982 z M 547.83273,313.78055 L 560.28849,309.31273 L 557.37763,306.41879 L 544.71879,308.78809 L 547.83273,313.78055 z"
   id="path30698"
   style="fill:none;stroke:#454113;stroke-width:18.61594200000000000;stroke-linecap:round;stroke-linejoin:round;stroke-miterlimit:10;stroke-opacity:1" /><path
   stroke-miterlimit="10"
   d="M 659.81608,321.46386 L 650.72811,324.78088 L 620.28259,294.3692 L 545.20957,321.17615 L 535.42774,305.38645 L 534.80157,305.50492 L 533.1769,304.69258 L 559.42538,299.80167 L 563.45319,303.81256 L 593.30639,293.16763 C 593.171,292.69376 593.00177,292.21991 592.88331,291.72912 L 507.33459,237.79366 L 507.06382,230.93961 L 486.77243,237.16749 L 481.81383,233.69815 L 482.44,233.6643 L 487.95709,207.83892 L 416.96266,190.66148 L 401.03756,203.5911 L 402.52684,208.24508 L 433.73392,202.99877 L 445.27581,216.30071 L 423.35977,225.96408 L 476.44905,311.42817 L 464.75486,350.74165 L 472.79355,350.64012 L 501.02209,338.23513 L 535.46158,362.19892 L 608.70685,360.43887 L 646.58183,415.38974 L 656.73598,348.74467 L 663.50542,342.04293 C 662.45615,335.18888 661.23766,328.33483 659.81608,321.46386 z"
   id="path30700"
   style="fill:none;stroke:#efede5;stroke-width:15.23122501;stroke-linecap:round;stroke-linejoin:round;stroke-miterlimit:10" /><path
   d="M 140.83747,227.25027 L 234.08642,291.45835 L 257.05172,275.48248 L 282.04785,308.9404 L 320.85363,308.51732 L 341.66964,238.63984 L 390.91726,263.26366 L 391.50959,263.16211 L 323.64602,153.90346 L 345.98515,153.66653 L 363.24721,130.56583 L 386.2125,146.5417 L 450.96214,123.94871 C 408.34855,59.469865 353.78692,15.09623 306.62089,15.09623 C 230.31245,15.09623 134.60959,131.19201 101.55784,260.58973 L 104.82409,259.50662 L 140.83747,227.25027 z"
   id="path30702"
   style="fill:#d6d1ba" /><path
   d="M 140.83747,227.25027 L 234.08642,291.45835 L 257.05172,275.48248 L 282.04785,308.9404 L 320.85363,308.51732 L 341.66964,238.63984 L 390.91726,263.26366 L 391.50959,263.16211 L 323.64602,153.90346 L 345.98515,153.66653 L 363.24721,130.56583 L 386.2125,146.5417 L 450.96214,123.94871 C 408.34855,59.469865 353.78692,15.09623 306.62089,15.09623 C 230.31245,15.09623 134.60959,131.19201 101.55784,260.58973 L 104.82409,259.50662 L 140.83747,227.25027 z"
   id="path30713"
   style="fill:url(#radialGradient30834)" /><path
   d="M 654.70515,526.69615 L 625.44428,466.68512 L 552.75748,457.46177 L 522.27811,428.59014 L 492.52646,436.64577 L 512.36089,439.43815 L 508.62079,472.47299 L 586.55388,539.8627 L 555.51603,537.51032 L 576.63666,545.51518 L 640.89551,598.60445 L 652.13276,597.89366 C 664.33468,571.10363 673.59187,540.97965 678.66895,507.33557 C 681.17364,490.75046 682.34137,473.80995 682.37521,456.71713 L 674.64114,462.31883 L 654.70515,526.69615 z"
   id="path30715"
   style="fill:#d6d1ba" /><path
   d="M 268.22128,656.29695 L 196.78684,626.46067 L 123.72773,645.73664 C 160.5196,727.40985 232.02174,775.21897 314.23651,775.21897 C 387.53254,775.21897 452.21448,737.05629 491.49412,670.93585 L 420.49969,628.30534 L 268.22128,656.29695 z"
   id="path30717"
   style="fill:#d6d1ba" /><path
   d="M 268.23821,656.29695 L 196.80376,626.46067 L 123.72773,645.73664 C 160.55345,727.40985 232.03866,775.21897 314.25343,775.21897 C 387.53254,775.21897 452.21448,737.05629 491.49412,670.93585 L 420.49969,628.30534 L 268.23821,656.29695 z"
   id="path30728"
   style="fill:url(#radialGradient30829)" /><path
   d="M 126.5032,505.23704 L 200.47618,467.92055 L 129.8033,401.49548 L 123.11849,405.6756 L 105.21333,441.28283 L 28.227951,422.41303 L 0.93021062,474.24997 L -14.791798,427.60857 L -22.288945,423.30998 C -20.630435,435.0888 -18.379598,446.69837 -15.350276,458.02025 C -4.2314822,499.70304 13.470586,534.58254 35.572785,562.10028 L 81.774167,499.17841 L 126.5032,505.23704 z"
   id="path30730"
   style="fill:#d6d1ba" /><polygon
   points="321.291,393.715 322.584,392.95 322.4,392.654 321.291,393.715 "
   id="polygon30732"
   style="fill:#d6d1ba"
   transform="matrix(16.923583,0,0,16.923583,-5077.1093,-6326.4074)" /><path
   d="M 494.38805,140.61845 L 477.10907,163.73606 L 550.15126,162.92373 L 551.14975,189.32452 L 604.20518,173.0948 C 604.20518,173.0948 590.64939,146.91402 582.08605,134.01825 L 517.33643,156.62815 L 494.38805,140.61845 z"
   id="path30734"
   style="fill:#d6d1ba" /><path
   d="M -65.545624,402.40935 L -24.539782,358.00187 L 47.199287,397.2815 L 74.530874,366.54828 L 82.298798,364.16206 L 70.266131,344.78456 L 95.939206,344.51377 L 73.430841,314.35596 L 52.699452,328.77484 L -31.37691,270.87927 L -63.836342,299.92014 L -66.781045,300.91863 C -70.538081,315.64214 -73.347396,330.53489 -75.15822,345.46149 L -68.811876,351.72322 L -65.545624,402.40935 z"
   id="path30736"
   style="fill:#d6d1ba" /><polygon
   points="312.953,394.225 310.43,394.251 311.613,396.154 313.879,395.463 312.953,394.225 "
   id="polygon30738"
   style="fill:#d6d1ba"
   transform="matrix(16.923583,0,0,16.923583,-5077.1093,-6326.4074)" /><path
   d="M 515.0179,304.38796 L 513.42708,303.37254 C 513.56247,303.84641 513.7317,304.33719 513.85017,304.81105 L 515.0179,304.38796 z"
   id="path30740"
   style="fill:#6fc388" /><polygon
   points="338.49,388.867 339.742,388.807 340.068,387.28 335.875,386.265 334.932,387.029 335.02,387.304 336.863,386.994 338.49,388.867 "
   id="polygon30742"
   style="fill:#d6d1ba"
   transform="matrix(16.923583,0,0,16.923583,-5077.1093,-6326.4074)" /><path
   d="M 509.9916,553.5708 L 438.5233,510.70336 L 412.30867,516.1866 L 341.38193,541.53813 L 335.59407,532.28093 L 242.78514,551.69228 L 195.12833,531.80707 L 125.48778,587.73951 C 125.75856,588.36569 125.97857,588.99186 126.28319,589.61803 L 199.32538,570.32515 L 270.77675,600.16142 L 423.03823,572.18674 L 494.03265,614.81725 C 505.30376,595.82899 514.32403,574.50528 520.975,551.15073 L 509.9916,553.5708 z"
   id="path30744"
   style="fill:#d6d1ba" /><path
   d="M 659.74838,320.76999 L 650.66042,324.08701 L 620.21489,293.67533 L 545.17572,320.49921 L 535.36004,304.70951 L 534.73387,304.82798 L 533.10921,304.01564 L 559.35768,299.12473 L 563.3855,303.13561 L 593.27255,292.49068 C 593.10331,292.01682 592.93407,291.54296 592.84946,291.05218 L 507.2669,237.11671 L 506.99612,230.26267 L 486.70475,236.49055 L 481.74613,233.02121 L 482.37231,232.98737 L 487.8894,207.16198 L 416.92881,189.98454 L 400.96987,202.91416 L 402.45915,207.56814 L 433.66623,202.32183 L 445.20811,215.62376 L 423.29207,225.28713 L 476.38136,310.75123 L 464.68716,350.06472 L 472.72587,349.96317 L 500.9544,337.57511 L 535.39389,361.52198 L 608.63916,359.76193 L 646.54798,414.69588 L 656.66829,348.08465 L 663.47157,341.38291 C 662.40539,334.47809 661.16996,327.62404 659.74838,320.76999 z"
   id="path30746"
   style="fill:#d6d1ba" />

</svg>