<?xml version="1.0" encoding="UTF-8" standalone="no"?>
<!-- Generator: Adobe Illustrator 15.0.0, SVG Export Plug-In . SVG Version: 6.00 Build 0)  -->

<svg
   xmlns:dc="http://purl.org/dc/elements/1.1/"
   xmlns:cc="http://creativecommons.org/ns#"
   xmlns:rdf="http://www.w3.org/1999/02/22-rdf-syntax-ns#"
   xmlns:svg="http://www.w3.org/2000/svg"
   xmlns="http://www.w3.org/2000/svg"
   xmlns:xlink="http://www.w3.org/1999/xlink"
   xmlns:sodipodi="http://sodipodi.sourceforge.net/DTD/sodipodi-0.dtd"
   xmlns:inkscape="http://www.inkscape.org/namespaces/inkscape"
   version="1.0"
   id="Layer_1"
   x="0px"
   y="0px"
   width="48"
   height="48"
   viewBox="0 0 612 792"
   enable-background="new 0 0 612 792"
   xml:space="preserve"
   sodipodi:version="0.32"
   inkscape:version="0.48.4 r9939"
   sodipodi:docname="sky.svg"
   inkscape:output_extension="org.inkscape.output.svg.inkscape"><metadata
   id="metadata7966"><rdf:RDF><cc:Work
       rdf:about=""><dc:format>image/svg+xml</dc:format><dc:type
         rdf:resource="http://purl.org/dc/dcmitype/StillImage" /><dc:title></dc:title></cc:Work></rdf:RDF></metadata><defs
   id="defs7964"><linearGradient
     inkscape:collect="always"
     id="linearGradient4159"><stop
       style="stop-color:#e7e5eb;stop-opacity:1;"
       offset="0"
       id="stop4161" /><stop
       style="stop-color:#e7e5eb;stop-opacity:0;"
       offset="1"
       id="stop4163" /></linearGradient><linearGradient
     inkscape:collect="always"
     id="linearGradient4151"><stop
       style="stop-color:#dad9e3;stop-opacity:1;"
       offset="0"
       id="stop4153" /><stop
       style="stop-color:#dad9e3;stop-opacity:0;"
       offset="1"
       id="stop4155" /></linearGradient><linearGradient
     inkscape:collect="always"
     id="linearGradient4143"><stop
       style="stop-color:#cccad5;stop-opacity:1;"
       offset="0"
       id="stop4145" /><stop
       style="stop-color:#cccad5;stop-opacity:0;"
       offset="1"
       id="stop4147" /></linearGradient><linearGradient
     inkscape:collect="always"
     id="linearGradient4135"><stop
       style="stop-color:#c1bdc9;stop-opacity:1;"
       offset="0"
       id="stop4137" /><stop
       style="stop-color:#c1bdc9;stop-opacity:0;"
       offset="1"
       id="stop4139" /></linearGradient><linearGradient
     inkscape:collect="always"
     id="linearGradient4127"><stop
       style="stop-color:#7c81a7;stop-opacity:1;"
       offset="0"
       id="stop4129" /><stop
       style="stop-color:#7c81a7;stop-opacity:0;"
       offset="1"
       id="stop4131" /></linearGradient><linearGradient
     inkscape:collect="always"
     id="linearGradient3923"><stop
       style="stop-color:#b6b5c5;stop-opacity:1;"
       offset="0"
       id="stop3925" /><stop
       style="stop-color:#b6b5c5;stop-opacity:0;"
       offset="1"
       id="stop3927" /></linearGradient><linearGradient
     inkscape:collect="always"
     id="linearGradient3915"><stop
       style="stop-color:#aca9ba;stop-opacity:1;"
       offset="0"
       id="stop3917" /><stop
       style="stop-color:#aca9ba;stop-opacity:0;"
       offset="1"
       id="stop3919" /></linearGradient><linearGradient
     inkscape:collect="always"
     id="linearGradient3907"><stop
       style="stop-color:#9291ab;stop-opacity:1;"
       offset="0"
       id="stop3909" /><stop
       style="stop-color:#9291ab;stop-opacity:0;"
       offset="1"
       id="stop3911" /></linearGradient><linearGradient
     inkscape:collect="always"
     id="linearGradient3899"><stop
       style="stop-color:#88849b;stop-opacity:1;"
       offset="0"
       id="stop3901" /><stop
       style="stop-color:#88849b;stop-opacity:0;"
       offset="1"
       id="stop3903" /></linearGradient><linearGradient
     inkscape:collect="always"
     id="linearGradient3891"><stop
       style="stop-color:#817c94;stop-opacity:1;"
       offset="0"
       id="stop3893" /><stop
       style="stop-color:#817c94;stop-opacity:0;"
       offset="1"
       id="stop3895" /></linearGradient><linearGradient
     inkscape:collect="always"
     id="linearGradient3883"><stop
       style="stop-color:#71708f;stop-opacity:1;"
       offset="0"
       id="stop3885" /><stop
       style="stop-color:#71708f;stop-opacity:0;"
       offset="1"
       id="stop3887" /></linearGradient><radialGradient
     inkscape:collect="always"
     xlink:href="#linearGradient3891"
     id="radialGradient4369"
     gradientUnits="userSpaceOnUse"
     gradientTransform="matrix(1.081223,0,0,0.49044375,-30.084925,260.47681)"
     cx="434.47265"
     cy="499.32934"
     fx="434.47265"
     fy="499.32934"
     r="220.38436" /><radialGradient
     inkscape:collect="always"
     xlink:href="#linearGradient4159"
     id="radialGradient5381"
     gradientUnits="userSpaceOnUse"
     gradientTransform="matrix(1.081223,0,0,0.82825915,-30.084925,60.672566)"
     cx="311.11414"
     cy="376.29554"
     fx="311.11414"
     fy="376.29554"
     r="351.95367" /><radialGradient
     inkscape:collect="always"
     xlink:href="#linearGradient4151"
     id="radialGradient5384"
     gradientUnits="userSpaceOnUse"
     gradientTransform="matrix(1.081223,0,0,0.82805369,-30.084925,60.703422)"
     cx="309.19191"
     cy="376.11205"
     fx="309.19191"
     fy="376.11205"
     r="352.00659" /><radialGradient
     inkscape:collect="always"
     xlink:href="#linearGradient4143"
     id="radialGradient5387"
     gradientUnits="userSpaceOnUse"
     gradientTransform="matrix(1.081223,0,0,0.82289987,-30.084925,63.055687)"
     cx="309.20737"
     cy="377.7141"
     fx="309.20737"
     fy="377.7141"
     r="352.13949" /><radialGradient
     inkscape:collect="always"
     xlink:href="#linearGradient4135"
     id="radialGradient5390"
     gradientUnits="userSpaceOnUse"
     gradientTransform="matrix(1.081223,0,0,0.83579175,-30.084925,60.143995)"
     cx="322.81595"
     cy="385.69089"
     fx="322.81595"
     fy="385.69089"
     r="335.90682" /><radialGradient
     inkscape:collect="always"
     xlink:href="#linearGradient3923"
     id="radialGradient5393"
     gradientUnits="userSpaceOnUse"
     gradientTransform="matrix(1.081223,0,0,0.83583195,-30.084925,60.533737)"
     cx="322.37581"
     cy="387.34231"
     fx="322.37581"
     fy="387.34231"
     r="336.19722" /><radialGradient
     inkscape:collect="always"
     xlink:href="#linearGradient3915"
     id="radialGradient5396"
     gradientUnits="userSpaceOnUse"
     gradientTransform="matrix(1.081223,0,0,0.83460292,-30.084925,61.238324)"
     cx="260.51627"
     cy="426.14471"
     fx="260.51627"
     fy="426.14471"
     r="335.45649" /><radialGradient
     inkscape:collect="always"
     xlink:href="#linearGradient3907"
     id="radialGradient5399"
     gradientUnits="userSpaceOnUse"
     gradientTransform="matrix(1.081223,0,0,0.93202469,-30.084925,23.588321)"
     cx="358.14444"
     cy="389.44762"
     fx="358.14444"
     fy="389.44762"
     r="298.86274" /><radialGradient
     inkscape:collect="always"
     xlink:href="#linearGradient3899"
     id="radialGradient5402"
     gradientUnits="userSpaceOnUse"
     gradientTransform="matrix(1.081223,0,0,0.77294895,-30.084925,99.422016)"
     cx="364.91723"
     cy="434.47906"
     fx="364.91723"
     fy="434.47906"
     r="291.99019" /><radialGradient
     inkscape:collect="always"
     xlink:href="#linearGradient4127"
     id="radialGradient5405"
     gradientUnits="userSpaceOnUse"
     gradientTransform="matrix(1.081223,0,0,0.77457497,-30.084925,98.704549)"
     cx="365.14089"
     cy="434.44319"
     fx="365.14089"
     fy="434.44319"
     r="291.1565" /><radialGradient
     inkscape:collect="always"
     xlink:href="#linearGradient3891"
     id="radialGradient5408"
     gradientUnits="userSpaceOnUse"
     gradientTransform="matrix(1.081223,0,0,0.49044375,-30.084925,260.47681)"
     cx="434.47265"
     cy="499.32934"
     fx="434.47265"
     fy="499.32934"
     r="220.38436" /><radialGradient
     inkscape:collect="always"
     xlink:href="#linearGradient3883"
     id="radialGradient5411"
     gradientUnits="userSpaceOnUse"
     gradientTransform="matrix(1.081223,0,0,0.48580548,-30.084925,264.33076)"
     cx="504.30624"
     cy="527.94012"
     fx="504.30624"
     fy="527.94012"
     r="216.73983" /></defs><sodipodi:namedview
   inkscape:window-height="1538"
   inkscape:window-width="2560"
   inkscape:pageshadow="2"
   inkscape:pageopacity="0.0"
   guidetolerance="10.0"
   gridtolerance="10.0"
   objecttolerance="10.0"
   borderopacity="1.0"
   bordercolor="#666666"
   pagecolor="#ffffff"
   id="base"
   showgrid="false"
   inkscape:zoom="18.666667"
   inkscape:cx="12.277939"
   inkscape:cy="20.174907"
   inkscape:window-x="-8"
   inkscape:window-y="-8"
   inkscape:current-layer="Layer_1"
   inkscape:window-maximized="1" />


<path
   style="color:#000000;fill:#3465a4;fill-opacity:1;fill-rule:nonzero;stroke:none;stroke-width:3;marker:none;visibility:visible;display:inline;overflow:visible;enable-background:accumulate"
   d="M -89.116071,0 C 174.88393,0 438.88393,0 702.88393,0 c 0,264 0,528 0,792 -264,0 -528,0 -792.000001,0 0,-264 0,-528 0,-792 z"
   id="rect3225"
   inkscape:connector-curvature="0" /><g
   transform="translate(208.60714,-91.044638)"
   id="g4545"><path
     style="fill:#eeeeec;stroke:#eeeeec;stroke-width:16.5;stroke-miterlimit:4;stroke-opacity:0.50196078;stroke-dasharray:none"
     d="m 148.49643,30.446525 c -46.93147,3.735663 -74.126038,50.806667 -114.18618,70.020745 -26.9808079,14.8665 -81.889947,32.34821 -58.741649,73.38685 -56.58082,-13.63264 -44.971009,68.92703 -9.027559,78.24239 30.3122208,4.54416 44.603748,27.17156 23.5101984,49.48657 2.7001742,42.24941 65.9998996,26.78324 63.8176186,-9.73689 49.561761,4.36768 86.504621,26.94459 127.372721,-6.32374 43.31228,-2.22168 85.20322,1.70724 129.02014,-5.05705 27.51355,-28.37965 -29.84227,-40.95479 -19.56303,-77.50772 -6.67745,-25.92726 -34.9095,-7.85206 -16.79229,-33.24565 -14.89413,-20.71761 -20.65894,-14.00004 -0.0783,-26.24659 -16.64473,-9.41975 -31.31154,-14.65345 -0.86614,-24.78835 C 284.71322,77.708191 207.51773,71.066165 178.87053,48.499138 168.28018,43.322357 157.96271,37.499723 148.49643,30.446525 z"
     id="path4547"
     inkscape:connector-curvature="0" /><g
     id="g4549"
     transform="matrix(0.51189845,0,0,0.51127752,-31.117322,-11.334899)"><path
       style="fill:url(#radialGradient5381);fill-opacity:1"
       d="M 78.859429,663.79665 C -2.0726354,630.46696 108.72189,510.44624 -5.266391,509.3179 -73.411863,489.70056 -31.596587,474.73983 -43.563914,467.05072 -132.93535,401.59104 10.099371,342.23808 10.082553,349.8993 -4.7295733,317.33234 -16.599562,292.53148 33.722546,274.88284 c -71.900617,43.07924 72.245834,4.6453 55.22004,0.13447 81.589704,10.53274 19.810524,-12.83433 41.308064,-32.39512 30.74132,-51.87031 130.07485,-8.48346 114.01073,-91.06565 -64.5897,18.39958 -109.78992,82.77605 -174.006594,95.92991 C 143.4737,193.4619 227.7673,154.14501 292.82784,90.103318 376.82209,57.7484 435.13946,141.09722 509.37301,159.76151 c 66.79368,26.3733 142.68976,73.07943 44.94532,120.60544 59.37983,-41.70248 40.84615,60.87585 6.56044,40.4779 62.82956,15.84737 -5.33626,80.37946 71.46522,93.82115 2.15961,50.11271 17.11326,82.36307 55.72434,121.61905 -44.89157,69.329 -182.30582,37.18654 -263.04488,32.22441 -54.88743,51.21257 -130.31664,56.51595 -185.52024,32.29394 -55.49586,-15.34182 -98.72215,-7.47395 -107.22048,53.0941 -15.70926,10.88217 -35.405757,9.60141 -53.423301,9.89915 z M 659.33868,543.38372 c 13.21191,-41.52814 -25.83032,11.0791 0,0 z M 74.74949,427.3644 c 17.252207,-94.4874 -79.4332674,-15.40016 0,0 z m -29.114035,-4.89676 c -9.175,-13.2001 -8.437793,15.82013 0,0 z m -64.511211,-30.41138 c 60.074933,-51.89153 -79.224987,20.30291 0,0 z M 573.34879,370.02405 c -5.87659,-5.74869 -2.89032,9.3315 0,0 z M 183.91088,356.06821 c -14.22723,-7.6399 6.93908,23.05838 0,0 z M 31.687085,355.18773 c -3.201782,-48.00353 -23.9211474,4.20033 0,0 z M 187.08739,337.54127 c 20.52049,-19.59882 71.932,-103.77263 58.28715,-92.67586 -42.27247,-14.85077 -131.47282,85.59894 -58.28715,92.67586 z M 174.0756,304.48768 c 6.66045,-15.73145 8.33923,10.82978 0,0 z m 359.75281,-65.67357 c -14.82562,-19.36733 -15.36763,18.22019 0,0 z M 383.86,177.17088 c -8.44887,-7.55822 -3.7864,10.28785 0,0 z m -95.29043,-13.91045 c -4.87799,-9.70172 -7.16536,11.31754 0,0 z m 185.97827,-4.64946 c -20.58077,-13.88492 -15.23204,12.56041 0,0 z m -24.46135,-14.7 c -19.22007,-0.24301 0.59751,24.13248 0,0 z m -151.9203,-2.67295 c 71.58813,-36.67417 -37.16712,-19.03134 0,0 z m 37.59537,-43.534932 c 7.90251,-15.856201 -17.75546,11.884982 0,0 z M 62.34444,258.429 c 3.690047,-16.34591 9.364456,7.09437 0,0 z M 208.80201,130.01053 c 14.94914,-21.43915 29.54252,19.25225 0,0 z m -12.05921,0.84091 c 2.97816,-9.92883 7.00841,6.34026 0,0 z"
       id="path4551"
       inkscape:connector-curvature="0" /><path
       style="fill:url(#radialGradient5384);fill-opacity:1"
       d="M 78.981791,663.11085 C 1.7598348,628.83609 111.67924,508.01061 -3.3056991,509.93517 -87.376483,484.99566 -41.3306,384.27538 17.950269,419.44025 74.413811,494.01906 129.01185,382.13224 63.133273,350.04679 -56.733529,326.27061 183.21948,222.52802 150.52114,336.18847 c -5.77408,31.46399 -3.41985,113.73229 25.77089,42.69952 42.91572,-11.3854 172.91222,-144.44701 55.57237,-145.46216 -36.5237,39.12879 -104.21946,-3.98148 -29.11765,-6.87892 35.69538,-33.55879 164.285,-55.90589 142.13421,-50.00346 -8.32542,-65.37456 23.56087,-134.835898 71.65064,-52.13152 17.00258,45.36483 54.60482,133.98602 65.03134,46.27341 47.41955,-6.0402 38.50303,2.45319 91.30099,34.47117 35.30604,30.78487 26.87166,-22.02659 31.10932,27.33995 -27.06771,32.44328 -80.22795,48.07077 -14.6336,64.24522 -32.07122,18.9896 -38.70095,25.1182 4.20098,49.29861 -51.18071,59.55351 86.67634,52.09629 41.10578,126.05831 52.90822,30.94013 70.97533,124.6512 -15.50733,98.69735 C 526.457,590.92977 421.7901,539.16885 349.17707,613.02734 290.01345,637.66651 269.07949,574.1021 205.931,595.4308 118.02653,561.1314 162.86476,686.2433 78.981791,663.11085 z M 662.78009,534.60038 c -22.74695,-26.45693 -3.13116,38.46654 0,0 z M -3.8789836,491.97018 c 0.4920013,-35.96482 -14.2154504,13.25929 0,0 z M -27.797485,457.03189 c -9.224419,-47.1421 -22.974362,18.95601 0,0 z M 574.8713,371.22336 c -1.16057,-18.57084 -13.02355,15.66466 0,0 z m -7.54058,-29.18676 c -21.42626,-7.58048 18.78682,24.41984 0,0 z m -24.963,-36.01668 c -2.77606,-50.57113 -31.97792,16.8404 0,0 z m -6.21458,-66.04345 c -21.33876,-31.31814 -23.27543,26.48105 0,0 z m -132.7031,-39.46486 c 87.57314,-112.25913 -150.70657,-18.41233 0,0 z m -4.45588,-69.79738 c -5.23388,-10.95297 -5.43854,10.25509 0,0 z M -70.600963,415.28904 c -13.766908,-39.56911 38.278346,-40.2663 0,0 z m 102.288048,-3.28268 c 4.195116,-7.91053 3.857318,9.42357 0,0 z m -8.779114,-6.56273 c -6.52619,-36.06576 -78.784382,-65.14245 -4.677326,-35.29054 16.560561,6.2785 28.576031,28.95007 4.677326,35.29054 z M 12.35499,349.81988 c -7.527421,-16.15945 10.527879,-3.41834 0,0 z M 0.30325179,284.14631 c 1.89186101,-8.90945 5.67471191,9.69598 0,0 z M 108.40312,231.83992 c 5.37707,-11.55668 4.77721,11.36224 0,0 z m 11.62365,-12.78601 c 5.23388,-10.95297 5.43854,10.25509 0,0 z m 44.16984,-36.03329 c 7.85082,-16.42949 8.15781,15.38264 0,0 z m 30.22147,-5.5631 c 7.04129,-15.67333 11.5503,11.53021 0,0 z m 16.2731,-9.18732 c 13.11299,-39.54491 34.51612,-8.13885 0,0 z m 269.66848,-14.30868 c 7.46934,-11.70235 7.83784,11.49781 0,0 z m -18.59783,-4.35918 c -21.31485,-22.93803 22.40596,-5.87079 0,0 z M 245.48738,136.61609 c 23.48232,-52.942167 130.70938,-60.262782 38.28005,-10.32948 -11.43008,5.45895 -24.67409,15.94015 -38.28005,10.32948 z m -32.47148,-8.22658 c 11.57852,-12.85056 13.05391,13.12708 0,0 z"
       id="path4553"
       inkscape:connector-curvature="0" /><path
       style="fill:url(#radialGradient5387);fill-opacity:1"
       d="M 78.946911,661.98621 C 3.3087706,627.50181 114.76087,506.10603 2.4742454,508.95109 -92.967101,479.2398 19.875638,404.90083 72.765559,445.71248 139.93111,422.3795 27.360788,293.59704 42.030209,314.09635 c 62.681321,-54.38062 139.336491,1.77718 97.767441,78.31729 29.84937,77.36041 105.70796,-70.59262 144.16372,-93.65035 30.84703,-49.94113 -39.57585,-146.8673 56.61611,-94.93651 50.29013,16.54858 90.54593,15.52387 130.01472,17.63472 7.28719,-102.10056 212.03664,10.62523 86.99334,44.65357 -5.10511,38.32186 70.92433,22.82411 -3.40677,53.78916 3.69354,53.06488 33.39279,-21.46794 31.3165,47.8766 -49.15569,22.27252 96.9015,36.26532 44.83746,91.22729 38.19203,36.05439 86.69185,132.78312 -8.77784,111.96425 C 531.47215,586.77439 428.50485,545.54055 356.3994,607.1759 296.05333,641.67616 267.60793,570.84772 203.10796,594.73509 118.16159,563.29236 158.69377,687.0824 78.946911,661.98621 z M 662.51241,544.05737 c 6.1921,-41.765 -30.72357,17.0084 0,0 z M -2.1964893,495.88998 c 4.9061554,-47.11978 -30.4498147,14.58798 0,0 z M 538.31161,315.61613 c 35.6386,-65.38996 -45.56921,-52.44855 0,0 z m -69.96059,-37.50612 c -1.60501,-38.96531 -46.36645,16.29763 0,0 z m 68.97734,-33.50489 c -6.95752,-33.4239 -36.59448,12.68881 0,0 z M -43.409531,463.05421 c -20.528823,-27.46934 17.761693,5.47108 0,0 z m -8.152581,-26.4128 c -7.441033,-25.96886 18.865474,20.55836 0,0 z m -22.525943,-31.60923 c -7.422653,-9.88546 19.087113,10.94455 0,0 z m 99.474542,-18.59783 c -3.804771,-22.611 17.866841,22.0859 0,0 z m -47.168155,-27.89673 c 7.987958,-10.51369 11.277094,7.40686 0,0 z M 221.60309,157.12436 c -3.8653,-17.61094 14.16773,6.51582 0,0 z m 128.57178,-8.83746 c 2.01074,-18.33614 7.88486,11.03442 0,0 z m 12.25232,-4.92405 c -4.13291,-34.51931 25.43896,25.13148 0,0 z m 62.13899,-7.99915 c -50.54383,7.54743 -70.85807,-65.97272 -17.63587,-12.43172 -4.12518,4.18865 40.09232,10.0815 17.63587,12.43172 z m -165.05571,-9.00542 c 57.83029,-71.358368 61.53108,8.92055 0,0 z M 371.09743,91.193855 c 9.56982,-12.371815 10.3646,12.493315 0,0 z m -16.45841,-3.710368 c 6.54261,-12.817762 11.59167,18.436153 0,0 z"
       id="path4555"
       inkscape:connector-curvature="0" /><path
       style="fill:url(#radialGradient5390);fill-opacity:1"
       d="M 78.762843,660.8242 C 11.182091,618.84892 121.16038,523.02957 15.238068,514.81165 -36.450757,471.38013 -19.636151,437.39487 51.460548,457.55059 160.04029,460.86185 93.624028,277.50627 73.891345,306.47979 193.08643,243.51891 90.543797,495.65141 189.6201,403.80622 262.49588,370.18221 308.324,283.28824 331.49564,232.78465 c 62.09921,19.06454 87.61302,-9.7394 143.48661,-4.34419 35.91919,-69.52581 191.53605,-17.47146 84.7032,37.46394 -75.59991,-40.14068 -22.89426,108.2494 -8.84465,21.04141 86.52788,31.48762 4.68347,-4.26272 3.93326,33.83388 2.81597,53.95414 44.01118,-15.53418 27.01357,44.94899 -28.77048,39.87721 85.77198,25.78303 52.69769,97.39765 10.57285,44.09266 90.39108,78.31733 9.09782,108.82172 -90.60033,7.6157 -177.37449,-23.12518 -259.74899,14.99997 -62.38451,67.98642 -121.33017,-15.80534 -201.30032,4.34974 -48.52925,-27.95598 -33.03982,105.03528 -103.770987,69.52644 z m 13.027278,-46.11682 c 20.351069,-50.11463 -34.331223,29.85108 0,0 z m 570.727749,-70.4216 c 8.0929,-48.16691 -32.91675,17.00663 0,0 z M 508.97957,313.20541 c -31.71048,-21.82009 -38.15876,-96.75265 -86.37998,-44.52326 17.95284,23.56805 55.0685,55.04765 86.37998,44.52326 z m 22.71425,-66.25475 c 18.23132,-35.65931 -44.2818,4.4581 0,0 z m -558.759295,246.4212 c -48.067849,-19.08147 42.502466,-4.57128 0,0 z M 261.8352,125.52402 c 24.89284,-42.042087 71.08055,-13.72954 0,0 z m 111.88866,-5.05558 c -10.78862,-46.68851 54.22536,15.91183 0,0 z"
       id="path4557"
       inkscape:connector-curvature="0" /><path
       style="fill:url(#radialGradient5393);fill-opacity:1"
       d="m 81.063124,661.81049 c -56.293852,-9.27325 -20.62529,-108.8268 5.729717,-38.19448 99.283969,1.36065 -56.564969,-40.70202 -20.058328,-91.80499 -67.809585,11.22693 -79.026574,-78.92846 -10.935056,-50.64185 78.946653,-10.49112 35.197378,-121.9161 70.629213,-131.00147 15.18962,42.12071 5.68419,96.11485 58.7641,56.31027 92.52574,-7.10088 157.68154,-177.56622 235.39195,-113.0715 31.64986,76.12094 166.50889,0.53849 135.9626,23.62071 10.97301,57.5567 51.50607,28.45037 27.30019,19.93794 -12.73929,44.721 -22.4556,56.91879 33.3117,62.60916 15.64601,51.66193 25.30062,111.05871 64.06153,129.31987 -27.29777,80.22352 -153.88875,29.77745 -216.20387,36.13555 -81.42714,-18.619 -124.3243,99.90957 -195.90764,28.90255 -56.75641,9.69429 -118.86123,-40.86742 -134.78463,43.86284 -7.55813,21.3456 -32.07376,35.97631 -53.261476,24.0154 z M 664.13403,544.29007 c 2.70319,-56.05 -37.9295,25.1767 0,0 z M -26.431124,492.2095 c -62.133101,-21.33339 34.4065144,2.82782 0,0 z m 3.874548,-14.33584 c -12.000269,-29.49788 27.0770757,0.84306 0,0 z M 86.208458,332.79176 c -3.204075,-60.2925 53.266442,28.05324 0,0 z M 579.32799,308.15387 c -37.01464,-32.10959 38.39803,-20.46705 0,0 z m -72.42663,-3.39677 c 6.8946,-19.64354 32.00315,4.20971 0,0 z m -8.84274,-18.41222 c -60.85814,-65.12514 95.04968,-133.4046 96.97765,-44.99322 -25.11038,45.45545 -108.43608,-4.45271 -75.62313,-9.57137 -20.34724,13.9263 27.42529,70.51006 -21.35452,54.56459 z m 32.2827,-69.61569 c -9.45734,-13.13803 -10.82118,11.85518 0,0 z M 407.3289,252.18574 c 13.91694,-40.31662 43.52153,20.45081 0,0 z m 184.61772,-33.13183 c 7.46934,-11.70235 7.83784,11.49781 0,0 z M 261.8352,123.62143 c 23.5702,-38.48198 53.03794,-4.62214 0,0 z m 111.58696,-8.81898 c 15.54831,-35.705325 33.30468,28.53101 0,0 z"
       id="path4559"
       inkscape:connector-curvature="0" /><path
       style="fill:url(#radialGradient5396);fill-opacity:1"
       d="m 81.133403,661.28178 c -58.250889,-30.42543 -9.547772,-100.05497 3.214187,-29.82713 71.0549,11.40053 43.33945,-53.81914 -8.062444,-50.72926 23.719324,-59.23597 -105.856228,-71.17851 -13.394593,-79.54915 31.593316,-33.68541 65.136987,-94.71256 109.997817,-67.46658 43.29407,-46.99914 51.42053,15.7385 81.66786,-48.88505 67.23295,-75.25342 161.75507,-22.17871 227.4342,-24.63305 42.38715,-41.2531 120.95535,-38.84568 101.70088,-8.68308 -56.368,58.66155 99.89701,44.854 45.09936,120.10137 56.64539,31.75 71.97162,127.27016 -16.10027,94.08147 -86.05586,27.36423 -179.12989,-27.26253 -249.38473,32.48922 -78.78255,37.21078 -207.40615,-73.90104 -248.11126,58.44117 -10.90418,5.42632 -22.190659,5.52704 -34.061007,4.66007 z M 64.233281,617.74482 c -6.617731,-15.24836 -6.885473,14.79225 0,0 z M 662.08661,547.64266 c 19.8354,-51.81413 -49.73994,3.7102 0,0 z M -42.704222,484.29059 c 9.778017,-7.45238 10.311542,10.73286 0,0 z m 20.922554,-11.84129 c 5.832194,-16.15647 6.131812,14.86081 0,0 z M 124.86534,402.12627 c -44.845696,-50.50709 29.79047,-51.66409 0,0 z m 455.45764,-34.42695 c 6.0443,-13.39921 0.8589,16.22695 0,0 z M 90.957514,325.97501 c 4.096386,-17.7829 12.862496,11.23029 0,0 z M 580.50652,306.42495 c 0.44798,-13.0801 3.37335,8.31315 0,0 z m 4.46591,-8.33027 c 7.46447,-13.56975 6.6803,10.5389 0,0 z m -11.62364,-4.64946 c 7.46445,-13.56974 6.68029,10.53891 0,0 z m -80.31336,-14.12675 c 2.28107,-41.12002 41.17279,12.54015 0,0 z m 41.37416,-21.34407 c -34.71415,-67.24182 65.30894,-68.22196 53.95084,-4.64742 -15.2117,9.22469 -37.20381,9.7103 -53.95084,4.64742 z m 26.03048,-13.54703 c -11.0787,-6.79715 1.125,12.94886 0,0 z m -53.40922,-6.87786 c -3.66061,-25.28042 18.52271,1.37348 0,0 z m -12.72283,-2.2225 c 7.46447,-13.56975 6.68029,10.53891 0,0 z m 79.04077,-34.58627 c 3.16234,-18.71142 9.16683,10.54783 0,0 z m -308.0265,-79.32542 c 7.62616,-11.66739 6.35518,9.46683 0,0 z m 12.55911,-8.71773 c 25.35331,-30.600002 4.12245,24.09969 0,0 z m 97.86548,3.54998 c 13.16724,-28.980901 31.13536,17.77247 0,0 z"
       id="path4561"
       inkscape:connector-curvature="0" /><path
       style="fill:url(#radialGradient5399);fill-opacity:1"
       d="m 83.351802,661.22615 c -38.366274,-4.72435 -31.556526,-95.295 -11.997644,-26.16456 51.116092,0.19744 103.629642,-0.73421 11.997644,26.16456 z M 66.55801,619.19183 c -4.849529,-20.79356 -15.778035,12.32776 0,0 z m 249.32711,1.63349 C 247.57207,530.75184 107.35064,661.95876 77.077901,541.19236 115.23811,439.51002 223.26257,429.86623 310.21429,416.9658 c 78.81473,-34.03811 202.18813,9.68212 233.70687,-88.7409 28.87729,43.74781 43.96114,-15.5212 26.81503,49.74614 3.77255,35.35455 73.08187,9.79801 60.84766,73.39057 5.48253,52.76734 91.00582,108.08934 -3.63789,120.32107 -84.77909,2.65515 -155.39106,-15.65163 -230.15967,3.61181 -26.19544,16.85036 -49.10064,42.22573 -81.90117,45.53083 z M 35.561632,524.36823 c -3.778503,-25.2468 28.480725,7.67873 0,0 z M 538.4038,257.81047 c -25.67374,-92.82838 114.4173,-5.40037 17.21459,1.22137 l -10.63722,1.11485 -6.57737,-2.33622 z m 23.32135,-12.02218 c -7.85083,-16.42948 -8.15782,15.38263 0,0 z M 384.96404,115.50497 c -4.3271,-27.183198 18.09993,16.13342 0,0 z M 280.43302,112.2536 c 2.97819,-9.92884 7.00839,6.34028 0,0 z"
       id="path4563"
       inkscape:connector-curvature="0" /><path
       style="fill:url(#radialGradient5402);fill-opacity:1"
       d="m 91.440313,655.16734 c 16.967217,-18.56473 -1.688492,18.61369 0,0 z m 32.762847,-10.65173 c 20.72202,-28.44556 -3.8443,23.67688 0,0 z m -67.893134,-13.4036 c -37.404674,-52.75186 31.193503,5.13749 0,0 z m 264.805744,-9.8801 C 284.17485,535.81483 85.746696,649.3858 161.25347,549.5005 c -78.254493,21.61572 -6.79856,-72.07237 49.94268,-51.07715 75.96584,-46.45893 154.32149,-63.48984 249.61561,-67.34972 57.46625,13.29751 106.46076,-78.89267 94.19992,-78.02821 13.60291,55.5652 103.62696,59.12668 80.29178,127.52342 66.91449,36.84744 37.96168,116.01622 -34.60187,84.04042 -86.31212,24.32966 -191.46604,-35.20164 -252.61984,46.45584 l -12.56175,6.91976 -14.40423,3.24705 0,0 z M 577.26764,351.78153 c -22.98334,-40.15017 26.68132,2.08979 0,0 z m -41.1145,-98.38211 c 25.29479,-87.84526 64.03473,29.34054 0,0 z m 27.47724,-8.21607 c -10.89737,-20.54985 -10.80008,21.12746 0,0 z m -29.80197,-20.18042 c 2.98531,-10.75856 7.56158,5.87091 0,0 z"
       id="path4565"
       inkscape:connector-curvature="0" /><path
       style="fill:url(#radialGradient5405);fill-opacity:1"
       d="m 91.440313,655.16734 c 16.967217,-18.56473 -1.688492,18.61369 0,0 z m 32.762847,-10.65173 c 20.72202,-28.44556 -3.8443,23.67688 0,0 z m -67.893134,-13.4036 c -37.404674,-52.75186 31.193503,5.13749 0,0 z m 264.805744,-9.8801 C 290.83957,546.20239 71.620469,632.0532 174.56184,554.8023 c 60.25443,28.83433 47.28995,-68.48703 115.57435,-80.19733 87.3418,-27.91538 237.85486,21.99138 261.92941,-100.62168 -8.97404,-89.37304 8.33068,57.55735 66.47313,32.97365 22.78937,14.93611 25.96171,338.17295 59.65927,126.73902 -34.94648,70.58694 -152.4756,19.11715 -209.66935,29.72287 -57.88238,-19.44159 -99.59885,37.49971 -147.41288,57.81308 z m -12.43509,-50.20882 c -25.18331,-66.30291 -14.70394,44.96575 0,0 z M 201.39226,534.19181 c 2.98528,-10.75862 7.56162,5.8709 0,0 z M 577.26764,351.78153 c -22.98334,-40.15017 26.68132,2.08979 0,0 z m -41.1145,-98.38211 c 25.29479,-87.84526 64.03473,29.34054 0,0 z m 27.47724,-8.21607 c -10.89737,-20.54985 -10.80008,21.12746 0,0 z m -29.80197,-20.18042 c 2.98531,-10.75856 7.56158,5.87091 0,0 z"
       id="path4567"
       inkscape:connector-curvature="0" /><path
       style="fill:url(#radialGradient5408);fill-opacity:1"
       d="m 313.16276,610.96436 c 0.44781,-13.08036 3.37347,8.31302 0,0 z m 33.19921,-9.49893 c 41.44058,-59.06533 -68.31457,-20.54854 -100.4213,-50.45932 -85.98157,-7.75276 57.22746,-98.41753 99.34562,-86.01682 90.77637,15.48243 167.21696,-39.72365 249.41288,-61.56865 45.58653,30.20238 39.60751,104.17622 81.68724,145.46962 -66.17219,27.66556 -161.89191,19.93649 -238.62823,15.66366 -36.79088,-19.63055 -60.89168,27.6051 -91.39621,36.91151 z m 31.67405,-36.60818 c -4.33593,-21.14915 -22.00348,11.894 0,0 z m -168.56996,30.90417 c 9.90752,-7.73521 7.22454,10.85865 0,0 z m 12.34248,-9.26172 c 32.5933,-19.74737 17.35851,16.78931 0,0 z m 32.27756,-4.01326 c -11.4997,-20.51012 18.26413,2.9497 0,0 z m -52.69384,-48.29463 c 2.98528,-10.75862 7.56162,5.8709 0,0 z"
       id="path4569"
       inkscape:connector-curvature="0" /><path
       style="fill:url(#radialGradient5411);fill-opacity:1"
       d="m 313.16276,610.96436 c 0.44781,-13.08036 3.37347,8.31302 0,0 z m 33.19921,-9.49893 c 73.13193,-80.44885 -130.19869,-46.646 -37.12466,-105.53654 92.48718,-24.06016 198.63955,12.29427 270.80995,-71.04953 74.63578,-24.14118 42.40137,84.39187 95.9833,114.7916 -32.65733,50.87286 -128.32733,9.74394 -189.47768,33.58669 -54.7178,-29.20213 -93.2051,-8.24598 -140.19091,28.20778 z m 31.67405,-36.60818 c -4.33593,-21.14915 -22.00348,11.894 0,0 z m -168.56996,30.90417 c 9.90752,-7.73521 7.22454,10.85865 0,0 z m 12.34248,-9.26172 c 32.5933,-19.74737 17.35851,16.78931 0,0 z m 32.27756,-4.01326 c -11.4997,-20.51012 18.26413,2.9497 0,0 z M 562.76712,416.01798 c -11.83448,-37.84983 23.25186,1.28333 0,0 z"
       id="path4571"
       inkscape:connector-curvature="0" /></g></g><use
   x="0"
   y="0"
   xlink:href="#g4545"
   id="use5463"
   transform="matrix(0.87117193,0,0,0.74234385,-276.73631,227.66126)"
   width="612"
   height="792" /><use
   x="0"
   y="0"
   xlink:href="#g4545"
   id="use5465"
   transform="matrix(0.70680507,0,0,0.70680507,106.37692,340.38425)"
   width="612"
   height="792" /><use
   x="0"
   y="0"
   xlink:href="#g4545"
   id="use5467"
   transform="matrix(0.70967499,0,0,0.91491602,392.6903,227.55788)"
   width="612"
   height="792" /><use
   x="0"
   y="0"
   xlink:href="#g4545"
   id="use5469"
   transform="translate(-463.17856,-57.455356)"
   width="612"
   height="792" /><use
   x="0"
   y="0"
   xlink:href="#g4545"
   id="use5471"
   transform="translate(441.96428,-60.99107)"
   width="612"
   height="792" /><use
   x="0"
   y="0"
   xlink:href="#g4545"
   id="use5473"
   transform="matrix(0.57353465,0,0,0.57353465,-159.14494,493.4972)"
   width="612"
   height="792" /><use
   x="0"
   y="0"
   xlink:href="#g4545"
   id="use5475"
   transform="matrix(0.83563315,0,0,0.60907343,270.85429,546.95279)"
   width="612"
   height="792" /><use
   x="0"
   y="0"
   xlink:href="#g4545"
   id="use5477"
   transform="matrix(0.44026422,0,0,0.44026422,95.083203,659.86909)"
   width="612"
   height="792" /></svg>