<?xml version="1.0" encoding="UTF-8" standalone="no"?>
<!-- Created with Inkscape (http://www.inkscape.org/) -->

<svg
   xmlns:dc="http://purl.org/dc/elements/1.1/"
   xmlns:cc="http://creativecommons.org/ns#"
   xmlns:rdf="http://www.w3.org/1999/02/22-rdf-syntax-ns#"
   xmlns:svg="http://www.w3.org/2000/svg"
   xmlns="http://www.w3.org/2000/svg"
   xmlns:sodipodi="http://sodipodi.sourceforge.net/DTD/sodipodi-0.dtd"
   xmlns:inkscape="http://www.inkscape.org/namespaces/inkscape"
   width="48px"
   height="48px"
   id="svg27647"
   version="1.1"
   inkscape:version="0.48.4 r9939"
   sodipodi:docname="testgeometry_squab.svg">
  <defs
     id="defs27649" />
  <sodipodi:namedview
     id="base"
     pagecolor="#ffffff"
     bordercolor="#666666"
     borderopacity="1.0"
     inkscape:pageopacity="0.0"
     inkscape:pageshadow="2"
     inkscape:zoom="19.79899"
     inkscape:cx="15.969287"
     inkscape:cy="22.785714"
     inkscape:current-layer="layer1"
     showgrid="true"
     inkscape:grid-bbox="true"
     inkscape:document-units="px"
     inkscape:window-width="2560"
     inkscape:window-height="1496"
     inkscape:window-x="-8"
     inkscape:window-y="-8"
     inkscape:window-maximized="1" />
  <metadata
     id="metadata27652">
    <rdf:RDF>
      <cc:Work
         rdf:about="">
        <dc:format>image/svg+xml</dc:format>
        <dc:type
           rdf:resource="http://purl.org/dc/dcmitype/StillImage" />
        <dc:title></dc:title>
      </cc:Work>
    </rdf:RDF>
  </metadata>
  <g
     id="layer1"
     inkscape:label="Layer 1"
     inkscape:groupmode="layer">
    <g
       id="g27747"
       transform="matrix(1.0280653,0,0,1.0280653,-0.15533793,-2.0249801)">
      <path
         style="fill:#9c9997"
         d="m 15.008357,43.385047 c 0.535923,-4.515906 2.509469,-8.678894 3.511423,-13.085911 -1.645379,2.688033 -2.937559,5.591886 -4.810702,8.138869 -0.345586,-2.818699 2.408634,-4.74227 2.590986,-7.453054 -2.300487,2.285542 -3.801715,5.271257 -6.043952,7.575458 -1.4908281,-0.385609 1.045143,-2.903776 1.498456,-3.975597 1.525782,-2.323512 3.164796,-4.594104 4.484355,-7.036752 -1.137128,0.370312 -2.549897,1.998089 -3.778383,2.880527 -1.193748,0.624957 -2.6425917,3.016476 -3.6913689,2.403687 0.5576114,-1.813935 2.7412899,-2.699292 3.8420539,-4.254615 0.687871,-0.536783 2.870291,-2.953504 0.71843,-1.408093 -3.269221,2.022221 -6.5055111,4.116412 -9.9576188,5.819813 1.1632492,-3.088392 5.1397715,-3.296178 6.8380298,-5.921196 -2.3778998,0.55569 -4.361094,2.24927 -6.7229412,2.747837 -1.4563099,-0.854858 3.3574236,-1.875488 2.0498112,-2.216476 -1.0807345,0.345876 -3.7400989,2.051739 -3.9784915,0.952476 2.6098328,-1.763194 5.7772002,-2.442529 8.4098236,-4.169671 2.5063839,-1.20141 5.0997409,-2.21063 7.6032509,-3.41828 1.957806,-2.143206 -1.439741,-3.977848 -1.61173,-6.103786 2.46e-4,-2.837882 3.561362,-3.138113 5.695489,-2.929598 2.528228,-0.05071 5.122951,-0.664848 7.120791,-2.2754525 2.586,-1.2284846 5.506569,-1.1900999 8.291082,-1.5194257 2.075405,-2.3986226 5.560013,-3.0799035 8.566821,-2.4606475 2.05792,1.0629183 0.875594,3.9608163 -0.909227,4.6358597 -1.910653,0.332165 -4.006987,0.554808 -5.588669,1.87361 -2.109855,1.32664 -0.993719,3.699528 1.20865,3.871436 1.434266,-0.08601 2.510893,3.036149 0.546923,1.739917 -1.250166,-0.731119 -2.781379,-2.827279 -4.303175,-1.487464 1.569186,0.916325 5.148475,3.13621 3.776644,4.716968 -1.693949,-0.631546 -2.198152,-4.153863 -4.428506,-2.947797 1.944025,2.05239 3.326822,4.696815 4.189386,7.341013 -2.155175,0.19078 -2.884469,-2.665869 -3.602003,-4.289205 -0.93652,-2.488931 -4.620978,-3.486028 -6.446307,-1.420301 0.01196,2.370335 4.343588,0.434482 4.771581,3.173992 0.08351,2.486493 3.945309,4.562345 1.921217,7.268952 -1.368406,2.503023 -5.523151,0.02214 -3.985378,-2.362733 1.074449,-2.630332 -1.033887,-5.32992 -3.791954,-4.939552 -2.719099,0.07157 -5.339134,1.930765 -6.958233,4.015329 -0.88934,2.04409 -1.048105,4.324825 -2.022247,6.34517 -1.018381,3.001537 -2.101971,5.980311 -3.15871,8.968417 -0.815446,-0.364066 -0.366003,-1.969241 -0.892098,-0.353636 -0.173325,0.582619 -0.355237,1.271214 -0.953509,1.559912 z M 19.619633,17.75302 c 1.46183,-0.736801 -1.252598,-2.714447 -0.404085,-0.631563 -0.01454,0.236694 0.09317,0.632514 0.404085,0.631563 z"
         id="path27761"
         inkscape:connector-curvature="0" />
      <path
         style="fill:#86827b"
         d="m 15.180522,43.05196 c 0.477154,-4.489027 2.491728,-8.604127 3.484539,-12.973803 -1.656371,2.309296 -2.663733,5.009923 -4.324098,7.316648 -1.332764,-0.277968 0.784823,-2.818361 1.130114,-3.807002 0.671153,-0.781073 1.885728,-4.366769 0.273245,-2.191125 -1.828017,2.233312 -3.3888,4.672718 -5.257473,6.873961 -1.6143873,-0.607464 1.124698,-2.787546 1.432495,-3.910809 1.497066,-2.328434 3.155295,-4.555433 4.512062,-6.972344 -2.546869,1.417945 -4.718427,3.39498 -6.8102228,5.401428 -1.8041541,-0.02578 1.0963038,-2.139898 1.5529348,-2.698716 0.906944,-1.009785 3.527953,-3.027163 3.135174,-3.549789 -3.162261,1.811059 -6.2059419,3.818573 -9.3376924,5.680529 -2.4333744,-0.26454 1.8844831,-2.260595 2.5452932,-2.936988 0.9580688,-0.735798 3.2955722,-2.061435 3.2824762,-2.615369 -2.6496762,0.867721 -4.966022,2.580559 -7.712444,3.180126 0.1526007,-1.48567 3.1682788,-1.256223 2.885728,-2.521126 -1.4177317,0.501825 -4.0670818,2.061461 -4.8252978,1.456556 5.2476336,-2.693054 10.5870518,-5.20972 16.0162898,-7.514072 2.486491,-1.492238 -0.02084,-4.001319 -0.97619,-5.575664 -0.918081,-2.981042 2.406638,-4.063514 4.697646,-3.577279 2.926693,-0.139605 6.011387,-0.640098 8.313399,-2.6041561 2.744062,-1.4942267 6.171829,-0.2892719 8.85289,-2.0220705 1.938466,-1.5006219 4.525632,-2.4586562 6.976491,-1.7295237 3.032202,0.7785388 1.123884,4.6151703 -1.301974,4.5488173 -2.302254,0.352347 -6.521519,1.750726 -5.592188,4.687967 1.041237,1.187308 4.555889,1.223005 3.808864,3.307416 -1.826563,-0.622035 -3.228571,-3.187888 -5.429488,-2.200481 0.847089,1.176363 3.334081,1.852073 3.988079,3.666032 0.984493,2.63065 -1.739008,-0.0016 -2.292281,-1.065453 -0.466675,-1.634681 -3.377252,-1.245373 -1.545117,0.276054 1.243531,2.009323 3.208249,4.086067 3.252639,6.481625 -1.547203,-0.04679 -2.262443,-2.113406 -2.892236,-3.37441 -0.731027,-2.075881 -2.696633,-4.187532 -5.098035,-3.54648 -1.773261,-0.17232 -2.846449,2.824056 -0.527138,2.262511 3.254247,0.284211 3.946705,3.991236 5.592898,6.132632 1.396538,2.330233 -1.691754,5.841129 -3.785567,3.374542 -2.100767,-2.130688 1.67564,-5.508817 -1.585463,-7.037273 -2.428181,-0.74023 -5.414636,-0.533112 -7.390178,1.290554 -2.330747,1.416834 -3.010159,4.158006 -3.598034,6.623096 -1.169686,3.525544 -2.405435,7.035687 -3.705683,10.517998 -0.732884,0.137832 -0.136499,-2.32789 -0.801244,-0.451057 -0.255105,0.622368 -0.370642,1.367835 -0.945213,1.796498 z m 1.512444,-1.257894 c -0.417384,0.16611 0.643425,0.554994 0,0 z m 0.238595,-0.846433 c -0.417385,0.16611 0.643428,0.554993 0,0 z m -1.239029,-6.28943 c 0.584758,-0.561011 -0.09831,-0.428115 -0.138385,0.02516 l 0.138385,-0.02516 z m 1.885566,0.0078 c 0.09107,-0.855131 -0.303105,0.583013 0,0 z m -0.50361,-2.979775 c -0.393747,0.207601 0.159544,0.836429 0,0 z m 0.333707,-0.270204 c 1.251808,-0.739964 0.02313,-1.799747 0,0 z m 1.385868,-0.558178 c 0.792884,-1.077351 -0.428531,0.03697 0,0 z m -6.983439,-0.915887 c -0.125954,-0.504312 -0.178944,0.580847 0,0 z m 7.287819,-0.142578 c 0.436739,-1.308267 -0.375074,0.449934 0,0 z m -7.032757,-0.172806 c -0.151036,-0.183172 -0.0083,0.255229 0,0 z m 6.461335,-0.207414 c 1.057784,-0.55406 -0.736362,-1.216895 0,0 z m -15.0507527,0.07261 c -0.2749177,-0.266793 0.021642,0.407637 0,0 z m 8.9195647,-0.154486 c 1.474123,-0.551923 0.558848,-1.705331 0,0 z m 6.779982,-0.0046 c 0.147693,-0.422308 -0.299433,0.137598 0,0 z m -5.63084,-0.141072 c 0.827278,-0.204081 0.479082,-1.064861 0,0 z m 5.843355,-0.41146 c 0.594195,-0.302691 -0.334936,-0.356057 0,0 z m -1.461969,-0.141474 c -0.2827,-0.513011 -0.0042,0.891942 0,0 z m 1.62027,-0.590338 c -0.233599,-0.197504 0.06622,0.373502 0,0 z m -4.431949,-0.214465 c 0.305881,-0.676914 -0.516247,0.278545 0,0 z m -0.878123,-0.200438 c 0.07119,-0.449647 -0.41917,0.429006 0,0 z m 1.337997,-0.256984 c 0.09012,-0.697521 -0.343657,0.435939 0,0 z m -0.959313,-0.02214 c 0.430924,-0.917174 -0.742083,0.44008 0,0 z M 16.0718,27.124955 c 0.889662,-1.126932 -0.69498,0.319738 0,0 z m 3.676643,-0.02591 c -0.09197,-0.251272 -0.09197,0.251272 0,0 z m -4.676497,-0.164542 c 0.259391,-0.727218 -0.624749,0.301926 0,0 z m 1.48132,-0.309373 c 0.04263,-0.647444 -0.33891,0.422422 0,0 z M 15.52198,26.428218 c -0.205472,-0.694277 -0.196035,0.562318 0,0 z m 4.36962,-0.03175 c 0.581679,-0.392445 -0.339566,-0.365431 0,0 z M 8.3217077,26.343537 c -0.2176196,-0.342805 -0.064458,0.539451 0,0 z m 8.6590343,-0.20848 c -0.09907,-0.814992 -0.227839,0.585459 0,0 z m -1.0944,0.02186 c 0.308522,-0.521658 -0.502204,0.177896 0,0 z m -6.9343199,-0.10415 c -0.1522462,-0.372241 -0.1522462,0.372241 0,0 z m 0.9731137,-0.344392 c 0.3492372,-0.52132 -0.9384789,0.815048 0,0 z M 20.082476,25.565218 c -0.298834,-0.110552 0.19334,0.339019 0,0 z m -7.372584,-0.561163 c 0.09808,-0.458354 -0.769211,0.793762 0,0 z m -0.928866,-0.01791 c 1.027231,0.03062 0.185082,-0.400787 0,0 z m 1.598195,-0.370293 -0.102387,0.06454 0.102387,-0.06454 z m 0.475927,-0.160457 c -0.588757,-0.181376 -0.0349,0.70749 0,0 z m 10.161447,-0.04848 c -0.455167,-1.341105 -0.993821,1.029838 0,0 z m -10.475146,-0.10161 c 0.07234,-0.558586 -0.467417,0.749111 0,0 z m 0.767029,-0.05121 c -0.32876,-0.258357 -0.612689,0.883972 0,0 z m 19.827931,-1.196968 c 0.06673,0.374866 -0.311963,-0.117331 0,0 z m -0.263146,-0.966139 -0.08234,-0.02943 0.08234,0.02943 z M 22.851134,21.713659 c -0.01932,-0.50745 -0.343289,0.714946 0,0 z m -2.164467,-0.04872 c 1.440621,-0.160399 -0.328778,-0.658664 0,0 z m -0.894372,-0.62543 c -0.493957,-0.254828 0.100502,0.434277 0,0 z m 0.411063,-0.196388 c -0.110173,-0.696515 -0.199582,0.496702 0,0 z m 0.901667,-0.213242 c 0.635107,-0.82673 -0.707301,0.347939 0,0 z m -2.072367,-0.134938 c -0.06291,-0.670371 -0.24526,0.493534 0,0 z m 0.213827,-0.488618 c -0.304637,-0.503104 -0.0017,0.770878 0,0 z m 0.376119,-2.182772 c 1.65252,-0.79401 -1.409694,-3.026904 -0.466163,-0.605386 0.03867,0.256279 0.177412,0.554616 0.466163,0.605386 z m 6.138431,-2.221887 c -0.217931,-0.591619 -0.215781,0.52332 0,0 z m -0.257703,-0.240497 c 0.276232,-1.805062 -1.778238,0.39621 0,0 z M 12.638314,29.993805 c -0.02918,-0.314937 0.199565,0.208427 0,0 z"
         id="path27759"
         inkscape:connector-curvature="0" />
      <path
         style="fill:#827c76"
         d="m 15.340879,42.86238 c 0.456706,-4.372888 2.143757,-8.470673 3.406975,-12.646065 -1.36013,1.009146 -1.826523,3.145074 -2.810606,4.6099 -0.491671,0.875298 -2.455016,4.283562 -1.816376,1.617532 0.421439,-2.309847 3.03687,-4.269176 2.814329,-6.499945 -2.019518,2.399699 -3.958006,4.921688 -5.613787,7.600327 -1.015359,1.056576 -2.0410469,0.0044 -0.846875,-0.863255 2.061134,-3.308036 4.297925,-6.503461 6.32858,-9.830821 -2.138743,1.72911 -4.766209,2.928843 -6.32314,5.279566 -0.9632852,1.06573 -2.375719,0.549543 -0.785344,-0.599462 1.657865,-1.629727 4.049259,-2.73589 4.813241,-5.089669 -3.699559,2.045712 -7.1620636,4.516258 -10.9556064,6.406215 1.2128458,-2.640054 4.3777751,-3.224458 6.3035575,-5.154951 1.7328239,-1.193374 -0.9484272,-0.779547 -1.5429425,-0.02308 -1.4562335,0.691266 -4.0226928,2.29216 -5.0426167,1.763922 0.7247678,-0.805429 3.4735897,-1.44393 2.8232172,-2.151837 -1.6513066,0.561265 -3.2014287,1.565825 -4.9927293,1.603363 4.3597165,-2.443284 8.9726662,-4.420848 13.5216892,-6.460279 1.834378,-0.494001 4.578561,-2.197422 3.155683,-4.375308 -1.520202,-1.416309 -2.826447,-4.808255 -0.09339,-5.689502 2.932073,-0.878852 6.331413,0.534751 8.972575,-1.447745 2.319612,-1.3592334 4.909751,-2.5620201 7.669331,-2.3206142 2.822724,0.012124 4.72362,-2.4433304 7.360621,-2.9627697 2.02779,-0.6571097 6.179856,0.1978363 4.546234,3.0925768 -1.118301,1.8784031 -3.464052,1.6285621 -5.176372,2.3254481 -2.144359,0.358785 -4.980836,3.757303 -1.667803,4.697519 1.104473,0.05822 3.325185,1.824134 2.246985,2.348752 -1.535088,-0.564925 -3.491536,-3.22598 -5.054475,-1.771561 1.501413,1.023709 4.830332,3.073533 3.944391,4.611779 -1.852586,-0.333219 -2.639066,-4.348434 -4.597616,-2.941052 1.489226,2.28802 3.408952,4.40604 4.096955,7.113792 -1.791073,0.944701 -2.732689,-2.541208 -3.365485,-3.815672 -0.769608,-2.182631 -3.418366,-3.541645 -5.548361,-2.435865 -1.81103,0.517267 -1.023887,2.354149 0.662527,2.044182 2.983406,0.408811 3.065272,3.577351 4.808413,5.123298 1.257109,1.756796 0.563097,4.952882 -1.814612,5.263479 -3.325524,-0.603306 -1.693844,-4.354755 -1.748493,-6.429348 -1.180885,-2.688529 -4.557298,-2.069449 -6.754919,-1.631908 -2.11076,1.571044 -4.775139,2.906697 -5.032441,5.87209 -0.631853,2.911504 -1.94995,5.60551 -2.796633,8.457943 -0.399895,1.159485 -1.323644,3.739113 -1.540388,3.939547 0.288329,-0.923693 -0.741248,0.67229 -0.194663,-0.620048 -0.372111,-1.647849 -0.886771,2.098215 -1.359627,1.989529 z m 0.68766,-2.416466 c 0.08434,-1.107219 -0.251508,0.505665 0,0 z m -0.743178,-4.953651 c 1.056436,-0.665356 0.09522,-1.866599 -0.107992,-0.213727 -0.138033,0.04799 -0.325426,1.019124 0.107992,0.213727 z m 3.408596,-0.359117 c 0.577994,-0.536349 -0.119339,-0.410865 -0.08533,0.0143 l 0.08533,-0.0143 z m -1.142466,-0.246747 c 0.623468,-0.186272 -0.259697,-0.479579 0,0 z M 8.4758262,33.456114 c -0.2335988,-0.197507 0.066202,0.373502 0,0 z m 8.1015488,-0.776787 c -0.658991,0.376732 0.733808,0.656896 0,0 z m 0.212491,-0.460206 c -0.235044,-0.125063 0.08846,0.273917 0,0 z m 0.283311,-0.364842 c 1.233318,0.01743 1.407892,-3.406505 0.459191,-1.227805 -0.228199,0.372589 -0.457135,0.776799 -0.459191,1.227805 z m -5.67242,-1.559248 c 0.605776,-0.623607 -0.575379,0.211932 0,0 z M 3.9057392,29.253207 c -0.2480664,-0.199941 0.030226,0.339477 0,0 z m 13.7430678,-0.15841 c -0.179677,-0.18898 0.04866,0.279716 0,0 z m 1.755129,-0.228471 c 1.332654,-0.971964 -0.869567,-1.424582 0,0 z m -1.478358,-0.08382 c 0.646574,-0.897054 -0.80905,0.198204 0,0 z m -3.216976,-0.576742 c 0.385408,-0.883877 -0.387529,0.400126 0,0 z m 3.501984,-0.09933 c -0.371104,0.0767 0.296235,0.941427 0,0 z m 0.869791,-0.140221 c -0.248046,-0.229654 0.09162,0.403927 0,0 z m -3.936816,-0.232345 c -0.313617,-0.618734 -0.06357,0.537828 0,0 z m -7.954159,-0.02057 c -0.2600846,-0.203603 0.061691,0.366691 0,0 z m 7.071357,-0.04996 c 1.716645,-0.390567 -0.659716,-0.77803 0,0 z m 5.437868,-0.115071 c 0.624544,-0.732999 -0.05947,-1.909495 -0.127857,-0.448218 l 0.127857,0.448218 z m -4.053263,-0.144949 c -0.07086,-0.585813 -0.253713,0.42401 0,0 z m 0.411202,-0.199511 c 1.222502,-0.94703 -0.946827,-0.207269 0,0 z m -0.913005,-0.410414 c 1.40497,-0.619978 -0.982763,-0.48028 0,0 z m 1.386019,-0.09191 c 0.908969,-1.134743 -0.828993,0.38426 0,0 z M 9.1579648,26.533107 c 0.3353068,-0.373587 -0.4615432,0.243742 0,0 z M 8.4194414,26.343183 c -0.5463661,-0.444101 -0.087295,0.793883 0,0 z m 8.6288136,-0.146141 c 0.0998,-0.715713 -0.432997,0.418002 0,0 z m -8.043303,-0.08653 c 0.7716538,-0.07097 3.757138,-1.599706 1.525592,-0.799358 -0.5379497,0.202533 -1.0684641,0.445449 -1.525592,0.799358 z m 8.343715,-0.328136 c 0.986835,-0.111384 -0.33192,-0.276215 0,0 z m -0.949164,-0.199371 c -0.18449,-0.983727 -0.287065,0.608883 0,0 z M 12.352,25.313972 c 1.03132,-0.126922 1.398601,-1.290814 0.219736,-0.392783 -0.0031,-0.114512 -0.85289,0.547498 -0.219736,0.392783 z m 5.773997,-0.389544 c -0.30072,-0.10054 0.12232,0.307903 0,0 z m 5.874309,-0.378049 c -0.156249,-1.419248 -1.049243,0.857545 0,0 z M 13.517212,24.390136 c 0.203831,-0.810035 -0.415867,0.470904 0,0 z M 14.05825,23.91317 c -0.226302,-0.405143 -0.150233,0.548267 0,0 z m 20.169364,-0.215501 c -0.373104,-0.29632 0.210078,0.4992 0,0 z m -19.119843,-0.07341 c 0.753014,-0.564893 -1.279532,0.573081 0,0 z M 34.15272,23.028263 c -0.533096,-0.434337 0.187107,0.511328 0,0 z m -9.045777,0.109011 c 0.638957,-0.577294 -0.782868,0.29376 0,0 z m -1.001845,-0.253059 c 0.03682,-0.522981 -0.381213,0.281449 0,0 z m 0.855054,-0.119999 c -0.35587,-0.07156 0.256382,0.298411 0,0 z m 9.056268,-0.1767 c 0.549548,-0.998494 -1.13452,-0.527129 0,0 z M 21.275451,22.232061 c -0.175446,-0.435533 -0.175446,0.435533 0,0 z m -2.874075,-0.390888 c -0.201431,-0.290906 -0.04161,0.376336 0,0 z m 2.540042,-0.06087 c -0.211616,-0.286112 -0.04676,0.365072 0,0 z m -0.233101,-0.03553 c 1.566463,-0.17672 -1.092276,-0.728986 0,0 z m 2.162998,-0.0035 c 0.0058,-0.724021 -0.278544,0.490014 0,0 z m 9.144519,-0.124991 c 0.621463,0.176348 0.129285,-0.508444 0,0 z M 19.884055,21.126995 c 0.904501,-0.0039 -0.11592,-0.596291 0,0 z m 1.588908,0.01759 c 0.518546,-0.911014 -0.789798,0.343616 0,0 z m -0.35445,-0.384397 c 0.953886,-0.755178 -0.980048,-0.238307 0,0 z m -2.065898,-0.179003 c 0.230548,-0.518789 -0.507421,0.247503 0,0 z m 0.229049,-0.582801 c -0.337066,-0.446546 -0.01205,0.540682 0,0 z m 1.364492,0.003 c -0.260093,-0.203591 0.0617,0.366694 0,0 z m -1.136308,-0.778838 c -0.139778,-0.316266 -0.08405,0.361681 0,0 z m 5.899016,-0.719876 c -0.482275,0.04875 0.897662,0.447446 0,0 z m 0.90051,-0.104971 c 0.246849,-1.45755 -1.294451,-5.358217 -1.768093,-2.099029 -0.04216,0.9772 0.583646,2.3446 1.768093,2.099029 z m -0.32565,-0.734784 c -0.108258,-0.491814 0.508907,0.325613 0,0 z m -0.843036,-0.391867 c -0.746232,-1.066679 1.100076,0.186766 0,0 z m 0.334033,0.929169 c -0.352373,-0.289476 0.04731,0.478706 0,0 z m -5.72068,-0.647025 c 1.468132,-1.060013 -1.701008,-2.616896 -0.588294,-0.362136 -0.04798,0.340234 0.359927,0.998089 0.588294,0.362136 z m 3.978937,-0.517264 c -0.03634,-0.251673 -0.105263,0.195514 0,0 z m 3.850923,-0.855838 c 0.342515,-2.07196 -2.02102,-0.574812 0,0 z M 24.31853,15.522316 c -0.04164,-0.376303 -0.20139,0.29091 0,0 z m -6.183784,-2.54067 c -0.227381,0.09919 0.327835,0.08583 0,0 z m 11.730122,-1.82375 c -0.116743,-0.361756 -0.179437,0.316468 0,0 z m 3.6466,-1.4392645 c 0.02717,-0.4699081 -0.529018,0.7511285 0,0 z M 16.551271,30.951931 c -0.531746,-0.515038 0.413945,-0.243937 0,0 z m 0.381752,-0.723569 c -0.447467,-0.464817 0.437354,-0.322188 0,0 z m -4.64702,-1.175191 c -0.287164,-0.72775 0.526077,-0.218113 0,0 z m 0.590906,-0.561361 c -0.19334,-0.339019 0.298834,0.110552 0,0 z"
         id="path27757"
         inkscape:connector-curvature="0" />
      <path
         style="fill:#5e5854"
         d="m 15.561136,42.299575 c 0.828054,-1.223093 0.35763,-2.305468 0.402308,-3.02893 0.721296,-2.485704 1.738913,-4.887094 2.304533,-7.413287 0.821607,-2.065165 2.062196,-4.148681 1.7716,-6.458145 -0.987069,3.845081 -4.274234,6.690434 -4.924693,10.657343 -0.349767,1.1395 -1.956653,1.884868 -0.852084,0.125793 1.085239,-2.498277 2.557968,-4.805336 3.650949,-7.29992 -2.214273,1.780197 -3.310388,4.52617 -5.293173,6.521717 -0.357346,0.696789 -2.411763,3.612545 -2.372732,1.87609 1.029825,-2.454018 3.055607,-4.321483 4.158333,-6.735087 0.744515,-0.762909 2.965489,-3.579006 1.4867,-3.584741 -0.864143,1.803656 -3.12051,1.772076 -4.177253,3.670106 -0.929055,1.197679 -3.8496585,3.099489 -1.638035,0.77793 1.718978,-1.816581 4.111329,-2.923588 5.548903,-5.017827 -1.180122,-1.081095 -2.975345,1.589898 -4.418643,1.923487 -2.1476692,1.330026 -4.2818799,2.687747 -6.5156376,3.871062 -0.02254,-2.229037 3.2328383,-2.550776 4.5353554,-3.962799 0.7217465,-0.298543 1.8819432,-1.959697 0.2738727,-1.119336 -1.9607928,0.804224 -4.8470432,2.643665 -6.331022,2.567292 0.65113,-0.753695 3.8616613,-1.746034 2.7772977,-2.456697 -1.5164361,0.450668 -2.8713611,1.630561 -4.5332021,1.450098 4.4159065,-2.247935 8.9306639,-4.313135 13.4243509,-6.388453 1.867727,-0.394476 4.846234,-2.309033 2.82157,-4.29403 -1.069188,-1.389251 -2.557362,-3.75471 -0.780421,-5.184889 1.927543,-1.0853 4.271245,-0.420988 6.377539,-0.739159 3.361075,-0.256909 5.781619,-3.2521678 9.19257,-3.3509983 2.135685,-0.2323998 4.512553,-0.117315 6.188561,-1.6983338 1.977619,-1.2828868 4.590239,-2.0736466 6.846153,-1.1005671 2.307189,1.8310673 -0.178134,4.9704722 -2.648712,4.3132882 -1.944105,0.524565 -5.994449,2.549095 -4.570039,4.80739 1.247776,1.046354 3.933524,1.150462 3.725473,3.309896 -1.768914,-0.620329 -3.65252,-3.456744 -5.452548,-2.269712 1.077367,1.744093 4.205109,2.189656 4.228233,4.559306 -2.008357,0.622645 -2.138305,-3.318285 -4.2845,-3.169875 -1.517676,1.094562 1.752519,2.600373 1.915603,4.152503 0.167249,1.317662 2.039035,3.179697 1.584388,3.991693 -2.908277,-0.920136 -2.750085,-4.647302 -4.842639,-6.378172 -1.45949,-0.976722 -5.46076,-1.131277 -5.173313,1.294572 1.443434,1.486569 4.643361,0.272849 5.097182,3.201503 0.405321,2.058587 2.828272,3.534351 1.950196,5.762104 -0.708009,2.961787 -5.267014,1.629268 -4.361251,-1.248264 0.239198,-1.587248 0.997206,-3.861563 -0.81059,-4.822765 -2.503536,-1.200133 -5.656754,-0.578421 -7.690086,1.267687 -2.320928,1.413028 -2.940907,4.034026 -3.489703,6.500054 -0.995427,2.705706 -2.032183,5.404442 -2.85224,8.174758 -0.684734,0.113348 -1.28896,2.499219 -1.102418,0.803418 -0.558046,0.612264 -0.675193,1.476678 -1.146736,2.142897 z M 10.538757,37.35006 c 0.06116,-0.752393 -0.385398,0.818765 0,0 z m 7.595528,-0.575811 c 0.851383,-1.537356 -0.51874,-0.450552 -0.116168,0.466593 l 0.08145,-0.0723 0.03471,-0.394291 z m -0.631477,-0.305657 c 0.688728,-0.808777 -0.419619,-0.02916 0,0 z m 0.709867,-2.143221 c -0.29631,-0.588655 0.07531,1.264047 0,0 z M 9.2502657,32.835984 c -0.03633,-0.251684 -0.1052744,0.195513 0,0 z m 8.9129243,-0.09773 c -0.367741,-0.1227 0.371619,0.881908 0,0 z m -8.101701,-1.227892 c -0.2480677,-0.19994 0.03022,0.339479 0,0 z m 9.235917,-0.653757 c 0.235527,-0.706005 -0.402552,0.532076 0,0 z m 0.472858,-1.879841 c -0.191529,-0.170677 0.07009,0.274661 0,0 z M 4.7187023,28.837225 c 0.2601573,-0.547512 -0.4775115,0.426401 0,0 z m 5.4225327,-0.272297 c 0.405853,-1.01168 -0.6013032,0.138573 0,0 z m 24.98413,-0.207985 c -0.422984,-0.832774 0.306014,1.435156 0,0 z m -15.145987,0.174128 c 0.551152,-0.549596 -0.262461,-0.35826 -0.169964,0.02836 l 0.169964,-0.02836 z M 6.7927379,27.945483 c 0.9467006,0.170625 0.1357961,-0.532168 0,0 z M 18.603187,27.516716 c -0.235044,-0.125063 0.08846,0.273917 0,0 z m 0.699669,-0.100254 c -0.163191,0.166785 0.258839,0.04506 0,0 z M 8.0556452,27.210759 c 0.095675,-0.452315 -0.7973557,0.840263 0,0 z m 9.9006298,-0.169196 c 0.440149,-0.546141 -0.449228,0.252431 0,0 z M 8.5344809,26.856381 c -0.3646364,-0.192285 0.071454,0.434129 0,0 z m -1.5747265,-0.01596 c 0.928942,0.0052 -0.045501,-0.392723 0,0 z M 9.238336,26.52726 c -0.026679,-0.549923 -0.7324631,0.915997 0,0 z m -1.5030918,0.03605 c 2.5794198,-1.139493 5.7848998,-1.144446 7.7909468,-3.363767 -1.724463,0.42931 -3.163232,1.592361 -4.910143,1.981587 -0.9998913,0.368664 -1.996814,0.778117 -2.8808038,1.38218 z m 4.7836728,-1.721254 c 0.121797,-0.62293 0.549212,0.08346 0,0 z m 8.26798,1.751486 c 0.211565,-0.798508 -0.659997,0.209821 0,0 z m -2.30691,-0.0403 c 0.550565,-0.567863 -0.600133,0.161658 0,0 z m 16.586251,-0.138816 c -0.199562,-0.208428 0.02918,0.314935 0,0 z M 17.039637,26.255297 c 0.276859,-0.738625 -0.540748,0.313674 0,0 z m -4.968128,-0.322483 c -0.402051,-0.833399 -0.358856,0.808541 0,0 z m 8.76571,0.07252 -0.127124,-0.01066 0.127124,0.01066 z m -9.546366,-0.153307 c 1.275758,-0.606367 -1.036331,0.275092 0,0 z m 6.181661,-0.05505 c 0.265124,-0.840979 -0.524217,0.334925 0,0 z m -6.74296,-0.09017 c -0.178277,-0.219968 -0.0599,0.283042 0,0 z m 7.06241,-0.350424 c -0.199565,-0.208427 0.02918,0.314937 0,0 z m -6.227327,0.0028 c -0.172076,-0.281824 -0.08587,0.34522 0,0 z m 7.420302,-0.09405 c -0.212365,-0.583967 -0.101161,0.461717 0,0 z m 1.986429,-0.212922 c -0.570944,-0.154504 0.491602,0.611596 0,0 z m -2.872443,0.02832 c 1.024929,-0.805548 -0.651448,0.0572 0,0 z M 10.300083,24.95668 c -0.165924,-0.163882 9.3e-4,0.24464 0,0 z m 23.358445,-0.02074 c -0.163738,-0.358664 -0.163738,0.358664 0,0 z M 21.848078,24.8654 c -0.07248,-0.68414 -0.291592,0.425605 0,0 z m 12.244309,-0.04702 c 1.123019,-0.582803 -0.716595,-2.892801 0.04624,-0.880084 l 0.01844,0.442418 -0.06468,0.437666 z M 23.80673,24.740054 c 1.463092,-0.886137 -1.569785,-0.313191 -0.211643,-0.0061 l 0.119625,0.0035 0.09202,0.0027 z m -6.457664,-0.303258 c -0.462136,-0.04205 0.269344,0.495626 0,0 z m 1.063245,0.146467 c -0.09744,-0.315951 -0.09744,0.315951 0,0 z m -1.575457,-0.105804 c 0.354846,-0.665412 -0.417328,0.168532 0,0 z m -4.943372,-0.179976 c 0.980976,-0.05637 0.0066,-0.36644 0,0 z m 3.786911,-0.282434 c -0.279431,-0.158351 0.09056,0.307303 0,0 z m 4.044454,-0.114056 c 0.255176,-0.54283 -0.510243,0.140243 0,0 z m 4.306073,-0.212329 c 0.01868,-1.054179 -0.602127,0.739421 0,0 z m -8.481748,-0.0016 c -0.165924,-0.163882 9.3e-4,0.24464 0,0 z m 6.623556,-0.115801 c 0.457607,-0.704163 -0.811869,0.692064 0,0 z m -1.183591,-0.06952 c -0.08405,-0.361681 -0.139778,0.316266 0,0 z m -6.672486,-0.14836 c 0.139744,-0.547914 -0.554238,0.559118 0,0 z m 10.586425,0.03131 c 0.640941,-1.713217 -1.941155,0.397606 0,0 z m 1.039929,-0.388455 c -0.175482,-0.681744 -0.120489,0.673508 0,0 z m -9.558751,0.01176 c -0.137215,-0.262288 -0.08403,0.301204 0,0 z M 15.712845,22.44904 c 0.962273,0.356222 0.410414,-0.684616 0,0 z m 3.415251,-0.05002 c -0.260319,-1.7308 -1.676071,0.329607 0,0 z m 12.357527,-0.25497 c -0.424346,-0.0078 0.254835,0.359934 0,0 z M 21.29931,22.23274 c -0.243928,-0.568696 -0.214325,0.55007 0,0 z m -0.540119,-0.252852 c 1.84485,-0.956789 -2.019624,-1.342079 -0.265948,0.11402 l 0.146035,-0.02139 0.119913,-0.09263 z M 16.694428,21.87938 c -0.128972,-0.308709 -0.128972,0.308709 0,0 z m 0.593826,-0.04278 c 0.03726,-0.506105 -0.399295,0.300623 0,0 z m 5.600644,-0.0531 c 0.302656,-0.939056 -0.480926,0.536192 0,0 z m -0.527847,-0.354773 c -0.279434,-0.158344 0.09056,0.307302 0,0 z m -2.473229,-0.202455 c 1.405496,-0.172997 -0.463742,-0.854513 0,0 z m -0.782578,-0.58794 c 1.219569,-0.710825 -0.938028,-0.830991 0,0 z m 1.540316,-0.508247 c 0.457505,-0.735706 -0.651376,0.182774 0,0 z m -0.668066,-0.564288 c 0.33183,-0.513303 -0.535959,0.230644 0,0 z M 19.512782,19.33719 c 0.840089,-0.767198 -0.802973,0.235922 0,0 z m 7.557117,-0.212076 c 0.436801,-0.616812 -0.520502,0.245831 0,0 z m -0.876427,-0.303366 c 2.136184,-0.771011 2.213084,-4.510837 0.0903,-5.318076 -2.389055,-0.475573 -5.021873,2.851817 -2.775713,4.675994 0.715749,0.683933 1.770454,0.626175 2.685412,0.642082 z m 0.571341,-1.876802 c -0.02883,-0.609184 0.377924,0.38623 0,0 z m 0.714106,-0.231874 c 0.0807,-0.464185 0.31315,0.349691 0,0 z m -4.556682,-0.09962 c 0.0559,-0.261354 0.152783,0.225188 0,0 z m 0.818695,-0.07914 c -0.324018,-0.09252 0.231829,-0.09366 0,0 z m 3.871282,2.051471 c 1.02483,-0.795206 -0.592229,-0.688028 0,0 z M 19.627713,17.87058 c 1.689795,-0.72528 -1.224593,-3.266467 -0.525208,-0.833272 0.01858,0.333821 0.155668,0.744358 0.525208,0.833272 z m 2.48282,0.01176 c -0.03632,-0.251696 -0.105278,0.19551 0,0 z m 13.714183,-2.25973 c -0.435342,-0.228905 -0.268129,1.16606 0,0 z m 2.772727,0.146419 c 0.02918,-0.314935 -0.199562,0.208428 0,0 z m -9.09437,-0.03132 c 0.593628,-0.465549 -0.61183,-0.07591 0,0 z m -0.219264,-0.09688 c -0.02751,-0.454599 -0.229049,0.346365 0,0 z m 6.861522,-0.722483 c -0.402079,0.156126 0.46334,0.943693 0,0 z m -2.658429,-0.399359 c 0.404131,-0.961136 -0.792311,1.11986 0,0 z m -15.273898,-0.33476 c -0.02266,-0.694225 -0.399387,0.395304 0,0 z m 15.707978,-0.271583 c 0.455386,-0.263656 -0.420046,-0.01334 0,0 z m -16.353911,-0.31481 c -0.343487,-0.247462 0.12355,0.394746 0,0 z m 16.993876,-0.09235 c 1.282221,-0.502955 -0.972466,-0.126843 0,0 z M 17.07618,13.082294 c 0.766326,-0.516627 -0.09186,-0.481269 -0.175606,0.0037 l 0.175606,-0.0037 z m 1.163661,0.0018 c 0.120048,-0.810286 -0.388508,-0.273484 -0.06317,0.06192 l 0.06317,-0.06192 z m 2.132086,1.88e-4 c 0.215032,-0.463698 -0.502724,0.317574 0,0 z m 14.789749,-0.139472 -0.121608,0.0039 0.121608,-0.0039 z M 24.424904,12.729283 c -0.203918,-0.293723 -0.04073,0.378665 0,0 z m 0.566812,-0.109104 c -0.185019,-0.854008 -0.764087,0.465375 0,0 z m -2.954144,-0.04973 c -0.02728,-0.417483 -0.264266,0.500363 0,0 z m 6.19316,-0.201688 c -0.166981,-0.482061 -0.232583,0.446076 0,0 z m 3.9559,-0.578073 -0.108776,-0.05337 0.108776,0.05337 z m 4.311175,-0.332898 c -0.448587,-0.339754 0.113388,0.537446 0,0 z m -6.492063,-0.132922 c -0.09742,-1.6095288 -1.652126,0.540375 0,0 z m 6.721115,-0.08233 c 0.283268,-0.405905 -0.431529,0.174151 0,0 z m -1.765033,-0.223811 c 0.875131,-0.322129 -0.294873,-0.90377 0,0 z m -3.640521,-0.537592 c 0.07544,-0.5607997 -0.384767,0.336672 0,0 z m -0.549776,-0.451817 c -0.08402,-0.3011936 -0.13721,0.262284 0,0 z m 2.457528,-0.047024 c 1.211658,0.396011 0.05756,-1.07289 0,0 z m 0.93052,-0.475725 c -0.194555,-0.5568499 -0.274293,0.38785 0,0 z m 4.843477,-0.4647561 c 1.393654,-0.1580547 -0.519583,-0.3039814 0,0 z m -0.843693,-0.011275 c -0.195377,-0.7150368 -0.315167,0.5371782 0,0 z M 36.772192,8.7476012 c -0.443725,-0.4509149 -0.0518,0.7175509 0,0 z m 3.88952,-0.4985594 c -0.459808,-0.2937037 -0.329642,0.5937003 0,0 z m 0.574809,-0.2128312 c 0.182695,-0.527926 -0.853171,0.8817121 0,0 z M 9.6320176,38.91062 c -0.091308,-0.30814 0.2832078,0.122478 0,0 z m 5.9712274,-3.793969 c -0.111796,-1.102735 1.902605,-2.900271 0.592415,-0.868092 -0.186058,0.296925 -0.382794,0.58726 -0.592415,0.868092 z m 1.220378,-2.225093 c -0.198024,-0.324823 -0.132362,1.155762 0,0 z m 0.223592,-0.4121 c 0.532541,-0.743648 -0.558446,0.33779 0,0 z m -8.846767,0.973389 c -0.088438,-0.273926 0.2350422,0.125075 0,0 z m 8.97117,-1.595835 c -0.09133,-0.308112 0.283204,0.122457 0,0 z m 0.45583,-0.349457 c -0.02883,-0.600165 0.671578,-0.546247 0,0 z m 0.405363,-0.681849 c -0.215457,-0.572142 0.463285,-0.04624 0,0 z m 0.574461,-0.270388 c -0.615928,-0.490074 0.406495,-0.229111 0,0 z m -0.254609,-0.676832 c 0.0702,-0.923268 1.04127,-0.605448 0,0 z m -6.811886,-0.08147 c -0.05855,-0.446731 0.406707,0.05323 0,0 z m 1.749469,-0.232087 c 0.107899,-0.653755 0.823789,-0.0927 0,0 z M 3.5717063,29.243675 c 0.1359477,-0.229308 0.1065422,0.282784 0,0 z M 13.902867,29.07406 c 0.0239,-0.307632 0.153746,0.211213 0,0 z m -0.45333,-1.290897 c 0.139507,-0.516056 0.533081,0.267616 0,0 z m -7.5396004,-0.39483 c 0.028911,-0.33605 0.2643495,0.186059 0,0 z m 8.0645084,-0.04105 c 0.443646,-0.615064 1.115376,-0.865088 0,0 z"
         id="path27755"
         inkscape:connector-curvature="0" />
      <path
         style="fill:#47423c"
         d="m 16.266418,40.712513 c -0.182945,-0.224225 0.273852,-0.0085 0,0 z m 0.528845,-0.164584 c -0.231458,-0.6035 0.397096,-0.207426 0,0 z M 16.6706,39.722868 c 1.364251,-2.775157 1.38278,-6.029237 2.948465,-8.722684 1.425572,-1.125344 -0.17209,-3.443124 1.449327,-4.523439 0.248818,-1.763181 -1.598257,0.492008 -0.761019,-1.258399 1.322598,-1.314493 0.816975,-2.953799 -1.142197,-2.957394 -1.600807,0.121894 1.991676,1.034968 0.29369,1.999256 -1.593279,1.175887 -1.698201,3.208807 -3.105383,4.554615 -1.506329,1.748153 -2.963674,3.545112 -4.068927,5.578099 -0.565196,0.921936 -1.609544,1.935179 -0.494232,0.309983 1.838238,-2.905019 3.854956,-5.696086 5.595829,-8.662724 1.504512,-0.925693 -0.948923,-0.6419 -0.0084,-1.723502 0.94102,-2.688054 -2.278705,-0.100926 -3.097879,0.490025 -0.994006,0.703668 -3.200691,2.123924 -3.436206,2.407252 1.501221,-1.166397 -0.292799,-1.322457 -1.0411567,-0.41652 -1.0209433,0.514853 -3.4229858,2.000718 -3.7123072,1.578785 2.8107592,-1.599427 5.7598479,-2.964746 8.7919509,-4.061768 1.5298,-0.826066 3.053655,-4.651764 4.738335,-3.327349 0.07796,2.98529 5.06177,-0.262088 1.911644,-1.354448 -2.404728,-0.119644 -4.921133,-1.427988 -5.281671,-4.021287 -0.450498,-0.971854 0.329398,-3.18604 1.45372,-1.693042 -0.882763,-2.178886 4.676091,-1.757368 3.364719,0.64441 0.279881,1.827013 0.240447,5.429893 2.971778,4.594304 1.878933,1.418977 4.535292,-0.119933 4.395055,-2.445014 0.545833,-2.49478 -4.192309,-3.812725 -1.474405,-6.023649 3.256264,-2.2704955 7.522356,-1.4350299 11.043854,-2.9676978 1.956495,-2.1831183 5.45985,-2.6691279 7.997424,-1.2537435 1.304225,1.4457561 -1.548525,2.1469356 -1.994129,3.310199 -2.606726,-0.049643 -4.909389,1.0483453 -6.262109,3.3088913 -1.273558,2.727227 2.721577,2.175706 3.657359,3.948628 1.401633,2.167656 -1.849703,-0.888563 -2.942869,-0.703573 -1.471382,0.01351 -2.307251,-2.090994 -2.217699,-2.453971 -0.826217,0.825891 -2.391541,3.324474 -0.03735,2.637556 1.880689,0.409305 4.485105,2.645446 4.179371,4.201838 -1.797143,-0.525819 -2.266975,-3.884271 -4.563813,-3.021663 1.414374,2.399018 3.122446,4.655852 4.196274,7.223599 -0.629782,1.430622 -2.601476,-1.320829 -2.80695,-2.459606 -0.481335,-1.96048 -1.8406,-3.780031 -3.979616,-3.974891 -2.723534,-0.459867 -3.927671,2.136766 -4.839503,4.062893 -1.828166,0.516419 -5.612187,-1.623382 -5.487219,1.752311 0.886261,1.012208 2.842542,-0.671736 0.80546,0.405592 -2.395054,1.453556 -2.711134,4.235589 -3.079385,6.680665 -0.938731,2.296465 -2.863322,4.213925 -3.014507,6.798949 -0.169522,0.582168 -0.447727,1.166746 -0.945297,1.538514 z m 2.511349,-6.804592 c -0.178691,-0.178676 -0.0529,0.92685 0,0 z m 0.277671,-0.681848 c 0.480906,-0.968748 -0.39516,0.386072 0,0 z m 0.747124,-0.892478 c -0.154031,0.140824 0.23711,0.02394 0,0 z m 0.782393,-2.346184 c -0.447538,-0.305229 0.383501,0.939615 0,0 z m -4.870801,-0.18868 c 0.92969,-0.119931 -0.194522,-1.025886 0,0 z m 5.117284,-0.395324 c 0.54437,-0.761859 -0.641562,0.402155 0,0 z m -0.437359,-0.259446 c -0.347343,-0.304574 0.153206,0.591029 0,0 z m -3.823945,-0.610937 c -0.353841,-0.123322 0.318181,0.658327 0,0 z M 16.822762,27.34488 c 0.715572,-0.0257 0.106148,-0.58689 0,0 z m 4.643564,-1.327383 c -0.198356,-0.637894 -0.11327,0.487477 0,0 z m -8.393974,-0.640249 c -0.264968,-0.245494 -0.03184,0.904479 0,0 z m 9.06204,-0.54439 c -0.562211,-1.348704 -1.148576,0.941813 0,0 z m -4.056114,-0.581539 c -0.152111,-0.226053 -0.05923,0.261438 0,0 z m 3.620301,-0.206548 c 1.524845,-0.177694 -0.644167,-1.109157 0,0 z m -1.28207,-1.507054 c -0.08402,-0.301194 -0.137214,0.262277 0,0 z m 8.037943,-0.6688 c 0.145115,-0.535437 -0.563827,0.669051 0,0 z m -4.629858,-0.136704 -0.09064,0.08615 0.09064,-0.08615 z m 5.038175,-0.186404 c 1.075206,-0.388557 -0.286827,-0.944935 0,0 z m 8.470121,-0.60691 c -0.11674,-0.361778 -0.179458,0.316474 0,0 z M 23.947714,20.656755 c -0.163738,-0.358664 -0.163738,0.358664 0,0 z m -0.48548,-0.141323 c -0.731833,-1.380261 -1.95932,-0.0042 0,0 z m -0.813869,-0.884389 c -0.145114,-0.592487 -0.273225,0.410898 0,0 z m 6.850134,-1.564831 c 1.970414,-0.773823 -0.513048,-1.374372 -0.210016,-0.147283 l 0.210016,0.147283 z m 0.08006,-1.006797 c 0.09744,-0.315951 0.09744,0.315951 0,0 z m -9.838455,0.622494 c 1.670032,-0.736165 -1.489896,-2.993092 -0.645133,-0.819949 -2.69e-4,0.311068 0.14339,1.543727 0.645133,0.819949 z m 10.429837,-0.861461 c 0.425401,-0.416364 -0.49517,-0.08108 0,0 z m -0.09252,-0.708276 c 0.552026,-0.934414 -0.663963,0.610892 0,0 z m 9.307388,-0.110798 c -0.152873,-0.410882 -0.213566,0.364472 0,0 z m -9.842603,-0.04934 c 1.461779,-0.947982 -1.210848,-0.646312 0,0 z m 9.242535,-0.119549 c 0.133999,-1.059119 -0.946712,0.359943 0,0 z m -6.031744,-0.67754 C 35.826601,13.454304 37.188279,9.6612329 40.561049,8.3865459 41.810872,9.3178491 42.823394,7.365349 41.01965,7.8053079 38.793791,8.68401 35.910832,9.2501242 34.473181,11.196 c 0.590718,-1.188655 3.106896,-0.924781 1.523415,0.446117 -1.295529,0.808063 -3.581571,1.585143 -3.243599,3.512828 z m -15.772252,-0.02629 c -0.179776,-0.188879 0.04878,0.279762 0,0 z m 2.910127,-0.502733 c -0.276494,-0.05093 0.466003,0.675494 0,0 z m 9.381564,-0.246876 c 1.840037,-1.214149 -2.876093,-3.371421 -1.185004,-1.224172 0.247198,0.492749 0.532583,1.206221 1.185004,1.224172 z m 7.588238,-0.292921 c -0.154031,0.140824 0.23711,0.02394 0,0 z M 20.127663,13.770737 c 0.179154,-0.611712 -0.466598,0.328852 0,0 z m 12.029219,-0.266153 c 1.188786,-1.604908 -1.377309,0.65871 0,0 z m 5.247586,-0.09231 c -0.199565,-0.208427 0.02918,0.314937 0,0 z m -6.319427,-0.11115 c 3.090843,0.595742 0.828286,-5.1489034 -0.348321,-2.883537 0.951444,0.69009 -0.239188,2.336519 0.348321,2.883537 z m -0.146496,-2.049181 c -0.08283,-0.521476 0.415994,0.305067 0,0 z m -11.28554,1.760627 c -0.16592,-0.163892 9.2e-4,0.244645 0,0 z m 10.547574,-0.04624 c 0.194403,-0.638044 -0.354363,0.346418 0,0 z m 0.797638,-0.291907 c -0.275387,-0.432912 -0.10312,0.528787 0,0 z m 7.459073,-0.699438 c -0.828875,-0.101917 0.278366,0.848438 0,0 z m -7.999424,0.468077 c -0.06124,-0.559828 -0.302006,0.493717 0,0 z m -0.49756,-0.371466 c -0.245654,-0.401659 -0.136126,0.515389 0,0 z m 0.596488,0.02678 c -0.153746,-0.211213 -0.0239,0.307632 0,0 z m 6.743625,-0.180023 c -0.245208,-0.382745 -0.0064,0.604816 0,0 z m -6.539508,0.01277 c 0.258605,-1.82165 -2.854255,0.142619 -0.369264,-0.14984 l 0.210498,0.01118 0.158766,0.138659 z m 2.51109,-0.408074 c -0.376679,-0.07484 0.240016,0.376577 0,0 z m 4.769289,-0.386661 c 2.254062,-0.635693 -0.444489,-1.5905747 0,0 z m -4.234634,-0.577073 c -0.154028,0.140835 0.237116,0.02392 0,0 z M 33.37161,10.433983 c 2.544532,-0.8024229 -2.247794,-1.1200869 0,1e-6 l 0,-1e-6 z m 6.466058,-0.286548 c -0.129812,-0.4078966 -0.194095,0.489082 0,0 z M 29.474138,9.8759509 c -0.297875,-0.3311621 0.02471,0.5528731 0,0 z M 40.046437,9.6497135 c 0.326112,-1.0833633 -0.465705,0.6109955 0,0 z m 0.384284,-0.2132263 c 0.271852,-0.4798121 -0.61325,0.333494 0,0 z m 4.131595,-0.2002966 c 0.186202,-1.204075 -1.415088,-0.1702881 0,0 z m -8.70875,-0.053196 c 2.337594,-0.5572756 -1.584708,-0.46387 0,0 z M 45.862659,8.1189954 c -0.551975,-1.5814026 -1.623311,0.7026522 0,0 z M 39.933575,8.0005597 c 1.719831,-0.4006485 -0.679817,-0.3810233 0,0 z m 3.761041,-0.7792605 c -0.177985,-0.751281 -0.504554,0.4584886 0,0 z m -0.9458,-0.7070282 c -0.0964,-0.9595105 -1.08797,0.078174 0,0 z M 41.890053,6.417265 c -0.128008,-0.7577796 -0.727804,0.3250586 0,0 z M 16.147582,38.808039 c -0.223895,-0.791008 0.439809,-0.238543 0,0 z M 13.59401,38.026393 c 1.060421,-3.201632 3.150592,-5.92604 4.354955,-9.065033 -1.884944,0.173007 -1.765219,3.49339 -3.496977,3.381003 1.760631,-2.090307 3.508471,-4.232047 4.817942,-6.582183 1.18021,0.276135 -0.945177,2.586673 -1.165129,3.554204 -1.542831,2.817326 -2.901811,5.746228 -4.403077,8.574318 l -0.07374,0.09426 -0.03397,0.04343 0,5e-6 z m 0.837984,-5.789727 c -0.287534,0.223596 0.443687,0.06635 0,0 z m 4.217908,-4.664986 c 0.04355,-0.630343 -0.528986,0.963881 0,0 z m 0.776925,-1.626622 c 0.333112,-0.544689 -0.728893,0.495021 0,0 z m -1.491706,12.20742 c -9.3e-4,-0.24464 0.165924,0.163882 0,0 z m -7.587319,-0.08661 c 0.679853,-0.78706 1.814796,-3.648757 2.407596,-3.032242 -0.714205,1.077087 -1.531731,2.082994 -2.407596,3.032242 z m 7.682757,-0.454171 c -0.540138,-0.884394 0.422286,0.211936 0,0 z m 0.897172,-2.827868 c -0.400228,-1.038035 0.503569,0.210525 0,0 z M 19.11219,34.3094 c -0.561259,-0.625909 0.836969,-0.407413 0,0 z m -2.879241,-0.305307 c 0.115036,-0.740486 0.467104,-0.228687 0,0 z m 1.415657,-0.356948 c -0.357066,-0.884135 0.482139,-0.299265 0,0 z m 0.332254,-1.081553 c -0.337849,-0.517415 0.496091,-0.27466 0,0 z M 9.4411417,32.295208 c 0.082144,-0.9497 0.3733842,0.255637 0,0 z m 0.2863139,-0.253601 c -0.079987,-0.543691 0.4145504,0.30508 0,0 z m 0.238595,-0.215232 C 9.8380857,30.435639 12.557199,30.643469 10.62975,31.555327 l -0.318207,0.169272 -0.3454924,0.101776 0,0 z M 34.393978,31.516906 c -2.336484,-1.307304 -2.515982,-5.353266 -0.0099,-6.577204 1.637091,0.310016 -2.260642,2.441861 0.286547,1.687617 2.628598,-1.623047 2.979917,3.181525 1.194048,4.266711 -0.397163,0.370018 -0.922688,0.615169 -1.470695,0.622876 z m 0.824298,-2.790111 c 1.024626,-1.099908 -1.220304,-0.79984 0,0 z m -25.042024,2.470008 c 0.08969,-0.675604 0.239854,0.102986 0,0 z m 4.474663,-0.141664 c -0.170835,-0.462087 0.460567,0.22935 0,0 z M 5.4327468,30.872318 c 0.5022864,-0.530518 1.1819821,-0.66135 0,0 z m 9.4960782,-0.14321 c -0.35013,-1.220565 0.552007,0.329068 0,0 z m 4.199508,-0.397154 c -0.42411,-0.554221 0.496043,-0.282596 0,0 z m 0.623877,-0.0078 c -0.2437,-0.147212 0.170877,-0.06601 0,0 z m -4.473326,-0.2422 c -0.09399,-0.720777 0.364724,0.451484 0,0 z M 3.589303,29.618607 c 0.4693715,-0.849268 0.352936,0.341362 0,0 z m 4.3725501,0.07252 c 0.08106,-0.545993 0.3433137,0.410904 0,0 z m 8.3508229,0.0198 c -0.202338,-0.654161 0.496724,-0.170696 0,0 z m 2.481387,-0.388843 c -0.661865,-0.925247 0.521555,0.06564 0,0 z m -18.32409089,-0.0071 c 0.12277312,-0.471935 0.37262854,0.417351 0,0 z M 8.3674645,28.776369 c 0.2886746,-0.425295 0.5822135,-0.22465 0,0 z m 5.3988485,-0.384158 c 0.213491,-1.460074 1.580729,-0.03369 0,0 z m 1.019355,-0.06813 c 0.487088,-0.815227 0.785622,-0.337993 0,0 z m -4.56696,-0.175197 c -0.01952,-0.899633 0.902017,0.362959 0,0 z m -0.9207233,-0.057 c 0.041181,-0.497787 0.4500233,0.355587 0,0 z M 6.0825959,27.97146 c -0.1131745,-0.644424 0.6019804,0.04856 0,0 z M 2.736624,27.956053 c 0.028057,-0.395591 0.2925938,0.237057 0,0 z m 0.439963,-0.203179 c 0.3160894,-0.705504 0.6857805,-0.115004 0,0 z m 16.619575,0.0045 c 0.105271,-0.195516 0.03634,0.251672 0,0 z m -8.866677,-0.129165 c 0.211179,-1.244518 1.237197,0.479125 0,0 z m -7.3339192,-0.01191 c -0.060556,-0.414607 0.2876793,0.196721 0,0 z m 0.8068357,-0.08954 c 1.1366251,-1.128855 1.2723615,0.303541 0,0 z m 2.3187579,0.05337 c 0.1848875,-0.689329 0.8626198,0.12309 0,0 z m -2.725152,-0.154667 c 0.2697047,-0.751047 0.149533,0.286774 0,0 z m 11.0401856,-0.0097 c -0.265911,-0.423251 0.481663,0.0662 0,0 z M 4.2397721,27.293535 c 0.1020602,-0.613495 0.5261248,0.10052 0,0 z m 3.3880481,-0.191176 c -0.077987,-0.435467 0.3694171,0.189929 0,0 z m 7.7304758,-0.20916 c 0.04698,-0.732878 0.604423,0.402274 0,0 z M 5.3373088,26.795048 c 0.2867387,-0.629471 0.4427392,0.189769 0,0 z m 2.731912,-0.0093 c 0.5736818,-0.799225 1.3961204,-0.180991 0,0 z m 5.3325972,-0.07701 c -0.154777,-0.675196 0.479981,0.289789 0,0 z m -0.704992,-0.106916 c 0.123826,-0.642112 0.217246,0.145365 0,0 z m 0.303132,-0.271358 c 0.195094,-0.980641 2.527454,-1.071173 0.721857,-0.375543 l -0.359234,0.191016 -0.362623,0.184527 z m 1.069925,-0.02633 c 0.130756,-0.726806 0.853307,0.168207 0,0 z M 6.6944907,26.134411 c 0.043454,-0.765349 0.3719436,0.197337 0,0 z m 0.6708751,-0.283313 c 0.642036,-0.763135 1.965662,-0.535086 0.4360757,-0.166172 l -0.4360757,0.166172 z m 1.0736772,-0.01096 c -0.2321105,-0.564324 0.4849033,-0.01904 0,0 z m 6.452416,-0.159608 c 0.03643,-0.546813 0.339753,0.326193 0,0 z m 0.609994,-0.45741 c 0.454053,-0.937611 0.437052,0.832028 0,0 z m 0.573279,-0.181371 c 0.03779,-1.152504 1.143311,0.450881 0,0 z m 6.996161,-0.10957 c 0.484078,-0.674638 0.434068,0.691359 0,0 z m 10.166117,0.06646 c -2.278912,-0.272328 -0.958406,-5.118073 0.524514,-2.279236 0.333158,0.737371 0.504106,2.008255 -0.524514,2.279236 z M 33.090028,22.6031 c 0.13169,-0.705293 -0.426813,0.02287 -0.13599,0.145485 l 0.13599,-0.145485 z m -0.240761,-0.767618 c -0.651227,-0.104538 0.20979,0.632944 0,0 z m 0.427509,0.0439 c -0.137215,-0.262288 -0.08403,0.301204 0,0 z M 11.302182,24.75288 c 0.201055,-0.433076 0.330832,0.444411 0,0 z m 4.342428,-0.09629 c 0.292247,-1.67651 1.591872,0.385677 0,0 z M 9.9893508,24.56065 C 10.85229,24.155366 12.602684,23.022303 13.17771,23.587214 12.147091,24.012909 11.030879,24.167638 9.9893508,24.56065 z m 1.7900212,-0.709028 c -0.165924,-0.163882 9.3e-4,0.24464 0,0 z m 23.134336,0.683225 c -1.453714,-0.284567 -0.06326,-2.971863 -0.08695,-0.715858 0.03907,0.237197 0.07349,0.475615 0.08695,0.715858 z M 17.457932,24.49199 c -9.3e-4,-0.24464 0.165924,0.163882 0,0 z m -5.156121,-0.141256 c 0.04996,-0.703972 0.582204,-1.1e-4 0,0 z m 7.54207,-0.214199 c 0.105263,-0.195514 0.03634,0.251673 0,0 z m 0.264973,-0.04301 c -0.0567,-0.291966 0.232196,0.187426 0,0 z m 0.438882,-0.03748 c -0.791946,-0.214096 -0.0096,-0.605144 0,0 z m -7.599249,-0.06058 c 0.08586,-0.345247 0.172092,0.28183 0,0 z m 0.847648,-0.35245 c 0.92194,-0.917631 -0.0165,0.444343 0,0 z m 3.327764,-0.164814 c 0.105263,-0.195514 0.03634,0.251673 0,0 z m 11.032651,-0.05588 c -0.214491,-1.855529 4.694021,-3.131945 2.744369,-0.749096 -0.842752,0.466584 -1.817712,0.557131 -2.744369,0.749096 z m 1.841931,-0.70591 c 1.025831,-0.640479 -0.486669,0.0097 0,0 z m 1.530517,-1.146149 c -0.221191,-0.479776 -0.202833,0.487006 0,0 z M 14.642511,23.38415 c -0.07312,-0.478045 0.342886,0.100604 0,0 z m 6.13189,-0.23512 c 0.08348,-0.403684 0.297642,0.926571 0,0 z m -5.287557,-0.12412 c -0.01941,-0.418615 0.330099,0.289803 0,0 z m 0.491799,-0.252711 c 0.484581,-1.361187 0.960574,1.009773 0,0 z m -1.350595,-0.267378 c 0.212597,-0.517046 0.550826,0.322244 0,0 z m 0.86068,-0.490204 c -0.07923,-0.353696 0.251465,0.05369 0,0 z m 0.489915,-0.08821 c -0.06084,-0.462842 0.307567,0.149262 0,0 z m 4.134348,-0.549892 c -0.334396,-0.347046 0.413807,0.02241 0,0 z m 1.690417,-0.646122 c -1.043345,-0.928911 0.445388,0.04152 0,0 z m -3.266694,-0.571234 c -0.195743,-0.757908 0.65343,0.33064 0,0 z m 2.238924,-0.07845 c 0.0017,-1.296557 1.069076,0.622531 0,0 z m 1.835944,-1.963254 c 0.105278,-0.19551 0.03632,0.251696 0,0 z m 0.510464,-0.270388 c -0.61797,-0.817503 0.858888,0.182908 0,0 z M 21.95306,14.910416 c -0.297497,-0.968968 1.004343,0.241585 0,0 z m 16.978614,-2.400578 c 0.329971,-1.030936 0.268882,0.378158 0,0 z m 1.001901,-1.042927 c 0.03228,-0.446324 0.482099,0.28669 0,0 z"
         id="path27753"
         inkscape:connector-curvature="0" />
      <path
         style="fill:#423c38"
         d="m 17.03169,39.478132 c -0.391091,-0.96422 1.189922,-2.123653 0,0 z m -3.262079,-1.846191 c -0.198885,-1.12945 1.795385,-2.933355 0.576406,-0.846354 -0.157198,0.303615 -0.343586,0.594592 -0.576406,0.846354 z m -3.087776,-0.04375 c -9.3e-4,-0.24464 0.165924,0.163882 0,0 z m 7.641066,-2.165882 c -0.262922,-0.328902 0.39049,-0.07635 0,0 z M 11.684113,34.96958 c 0.404684,-1.146902 1.102866,-0.966856 0,0 z m 6.919805,-0.426198 c -0.709148,-0.347575 0.448103,-0.124634 0,0 z m 0.861978,-0.410318 c -0.2437,-0.147212 0.170877,-0.06601 0,0 z m 0.04618,-0.14837 c -0.241453,-0.439639 0.407899,-0.161321 0,0 z m -3.915189,-0.10863 c -0.08846,-0.273917 0.235044,0.125063 0,0 z m 0.139376,-0.274705 c -0.385287,-0.636126 0.496514,-0.315685 0,0 z m 1.913271,0.07208 c -0.404176,-0.293314 0.396104,-0.07552 0,0 z m 2.130673,-0.490702 c 0.669745,-2.289372 0.733432,-4.719782 1.46338,-6.987381 0.31522,-1.116092 1.789,-3.129471 0.0041,-3.700115 1.912962,0.520842 1.574535,-2.652168 3.478496,-2.478815 2.392188,-0.221194 4.942332,-1.728821 3.593487,-4.413754 -0.217511,-1.274733 -2.434323,-2.652728 -1.882548,-3.522743 1.496892,0.399306 2.400052,2.871134 3.957174,1.945367 0.760818,1.725751 2.963255,-2.247815 2.129499,0.315751 -1.078935,2.557362 2.104049,-0.199057 2.577312,-1.061006 0.574876,-0.683571 2.564293,-2.913106 2.530958,-2.248497 -1.087188,1.984488 -2.414323,3.825575 -3.528537,5.792985 2.598878,-1.135257 5.073741,1.251729 6.522964,3.16249 -0.562184,1.991856 -2.23385,-1.75793 -3.279453,-2.234812 -1.162432,-0.882673 -2.338506,0.385841 -0.846154,1.222294 0.891037,1.997001 3.453698,4.082537 2.959845,6.211413 -1.993374,-0.504028 -2.016768,-2.913221 -2.810459,-4.433064 -1.304628,-2.194898 -4.549988,-2.955465 -6.622837,-1.458841 -0.922846,1.99971 -2.118347,4.441501 -4.676952,2.890306 -2.778904,-0.172348 -2.611165,3.155722 -3.931337,4.758235 -0.5735,2.099327 -0.585443,4.276704 -1.638942,6.240187 z m 7.698708,-10.503946 c -0.152612,-0.940661 -0.214116,0.651216 0,0 z m 0.524909,-0.308432 c -0.16592,-0.163892 9.2e-4,0.244645 0,0 z M 23.904087,21.86868 c -0.06845,-1.352127 -0.656234,0.946183 0,0 z m 0.465179,-0.409679 c -0.342509,-0.256608 0.249167,0.774047 0,0 z m 13.243757,0.03358 c 0.171756,-1.014652 -0.611396,0.599031 0,0 z m 0.287418,-0.110876 c -0.235327,-0.193896 0.07163,0.377122 0,0 z M 23.966386,20.213662 c -0.159105,-0.58282 -0.282902,0.48222 0,0 z m 4.279174,-0.12285 c -0.063,-0.783176 -0.691248,0.369463 0,0 z m 8.125096,-0.424599 c -0.47452,-0.120536 0.311403,0.388045 0,0 z m -7.698762,-0.42018 c -0.09197,-0.251272 -0.09197,0.251272 0,0 z m 3.822472,-0.813337 c -0.260919,-0.1881 0.09868,0.299814 0,0 z m -3.048651,-0.172073 c 2.594439,-0.09369 -0.600205,-4.592455 -0.485895,-1.425869 -0.13804,0.472704 -0.319897,1.488497 0.485895,1.425869 z m -0.312538,-1.444166 c 0.05567,-0.500306 0.371259,0.387038 0,0 z m 0.787583,-2.53875 c 0.363764,-0.708765 -0.67191,0.235338 0,0 z M 19.368691,32.918276 c -0.438006,-0.449063 0.446891,-0.309391 0,0 z m -6.273979,-0.04905 c -0.145998,-0.332163 0.212542,-0.01056 0,0 z m 3.027088,6.5e-5 c 1.081443,-1.296568 1.889179,-5.383902 2.754643,-5.240471 -0.533168,1.931807 -1.98309,3.418583 -2.754643,5.240471 z m 2.867707,-5.846199 c -0.26497,-0.245492 -0.03184,0.904477 0,0 z m -1.004765,5.595273 c -0.172161,-0.611336 0.390258,-0.194202 0,0 z m -4.444428,-0.52563 c 0.357146,-1.305759 0.155737,0.418397 0,0 z m 1.131548,0.281767 c -0.333178,-0.466056 0.490065,0.08776 0,0 z m 0.601327,-0.668267 c -0.477267,-0.877712 1.009782,-0.243015 0,0 z M 34.46975,31.518276 c -2.471257,-0.781311 -2.670178,-5.358016 0.480022,-5.047818 2.572439,-0.13079 2.178505,3.823502 0.422289,4.764195 -0.271033,0.166931 -0.583355,0.269911 -0.902311,0.283623 z m 0.644207,-1.456711 c -0.100424,-0.383273 -0.100424,0.383273 0,0 z m 0.06665,-0.998492 c 1.186627,-1.660708 -1.526194,-1.257917 0,0 z M 32.99062,27.670301 c -0.465741,0.167046 0.624444,0.360425 0,0 z m -22.642818,3.800978 c 0.4324,-1.115014 1.421633,-0.254202 0,0 z m 3.636902,-0.09986 c -0.246313,-0.690063 0.498189,0.123951 0,0 z m 2.042565,-0.558011 c 0.08153,-0.904774 0.500379,-0.138051 0,0 z m -1.575634,-0.227294 0.244176,-0.278296 -0.244176,0.278296 z m 4.393915,-1.296531 c -0.2437,-0.147212 0.170877,-0.06601 0,0 z m 1.141488,-0.03021 c 0.248046,-0.229654 -0.09162,0.403927 0,0 z M 4.764681,29.090879 C 5.9961691,28.530948 8.8590825,26.903574 9.1792387,27.054703 7.7466998,27.809839 6.3453086,28.675731 4.764681,29.090879 z m 10.881328,-0.0822 c -0.106715,-0.549709 0.746154,-0.140387 0,0 z m 1.716799,-0.103667 c -0.324138,-0.523918 0.437945,-0.229611 0,0 z m 2.767387,-0.08622 c -0.698627,-1.312264 1.486097,-0.386707 0,0 z m -5.205799,-0.630029 c -0.258638,-0.927908 0.521755,0.06437 0,0 z m -0.902232,-0.09884 c 0.107691,-0.552511 0.422735,0.37937 0,0 z m 2.242793,0.01695 c -0.153638,-0.620014 0.580591,-0.04377 0,0 z m 0.668066,-0.244967 c 0.279977,-1.128285 1.098426,-0.655316 0,0 z m -2.433669,-0.09564 c -0.287191,-0.656361 0.530983,-0.06694 0,0 z m 0.521455,-0.459698 c -0.198414,-0.422685 0.418535,0.211237 0,0 z M 5.6169793,27.143637 c 0.2487481,-0.89225 0.2966718,0.208567 0,0 z m 14.4361037,-0.01833 c -0.304447,-0.844326 0.665805,0.390585 0,0 z M 8.6776379,26.935143 C 8.878369,26.442531 10.087952,26.449409 9.1138908,26.827732 L 8.6776379,26.935143 z M 11.1463,26.81107 c -0.07923,-0.353696 0.251465,0.05369 0,0 z m 6.05078,-0.05294 c -0.501229,-0.719513 0.459061,-0.258693 0,0 z m 2.914109,-0.103488 c -0.774568,-0.948702 1.244306,-0.78863 0,0 z M 17.012002,26.5133 c -0.150632,-0.611367 0.528321,-0.161259 0,0 z m 0.909488,-0.07332 c -0.167635,-0.872294 0.350961,0.448479 0,0 z m -0.229468,-0.367167 c -0.415574,-0.741528 0.412346,0.0099 0,0 z m 16.010486,0.04977 c -0.661705,-1.79884 2.59714,0.340285 0.25638,0.01052 -0.08546,-0.0035 -0.17092,-0.007 -0.25638,-0.01052 z m 0.285222,-0.850422 c -0.428973,0.0825 0.374745,0.404328 0,0 z m -14.422249,0.742503 c -0.260816,-0.735636 0.350338,0.216738 0,0 z m -8.357033,-0.01563 c 0.0249,-0.703715 0.581848,-0.03455 0,0 z m 1.119692,-0.07558 c 0.08403,-0.301206 0.137216,0.262289 0,0 z m 5.175189,-0.03527 c -0.290736,-0.576187 0.51331,-0.166705 0,0 z m -5.533081,-0.271105 c 0.496063,-0.738158 3.331211,-1.196315 1.241144,-0.218409 -0.389848,0.163072 -0.81665,0.261943 -1.241144,0.218409 z m 1.127694,-0.167703 c 0.758511,-0.577654 -0.638472,0.217495 0,0 z m 3.791456,0.101372 c 0.165399,-1.64791 1.645887,-0.03961 0,0 z m 3.405062,-0.06808 c -0.983746,-1.44799 1.494094,-0.795376 0,0 z m -2.120744,-0.04439 c 0.902767,-1.545776 -2.43599,-4.218542 0.210127,-4.555781 1.306387,0.03856 1.439858,1.424712 0.09393,1.274985 1.05386,1.244157 1.199493,2.30688 -0.304061,3.280796 z m 0.370848,-0.575774 -0.07821,0.104025 0.07821,-0.104025 z m 0.175108,-0.735258 c 0.646251,-0.803103 -0.433465,-0.09996 0,0 z m -0.33122,-0.366899 c -0.153747,-0.211213 -0.02391,0.307633 0,0 z m 0.692882,-0.165721 c -0.06893,-0.422591 -0.210198,0.566286 0,0 z m 0.667109,1.790826 c -0.161073,-0.516091 0.281317,0.22677 0,0 z m -1.813322,0 c -0.02918,-0.314937 0.199565,0.208427 0,0 z m 5.821717,-0.242842 c 0.318147,-0.660262 0.466311,0.125526 0,0 z M 15.19128,24.935944 c 0.560635,-1.1147 0.305074,0.396349 0,0 z m 5.960085,0.0269 c -1.063562,-0.74162 0.733238,0.197001 0,0 z m 12.085645,0.0358 c -1.655504,-0.215709 -1.245564,-4.590796 -0.03083,-2.011964 0.642963,0.476584 1.260611,1.800135 0.03083,2.011964 z m -16.338783,-0.04408 c 0.02362,-0.239064 0.143241,0.154274 0,0 z m 2.562224,-0.04412 c -0.04287,-0.494906 0.389361,0.458465 0,0 z m 3.677422,0.02734 c 0.254794,-0.490539 0.271555,0.973353 0,0 z m 1.287031,-0.260469 c 0.117348,-0.898129 0.247791,0.176119 0,0 z m -6.501712,-0.0743 0.08582,-0.202279 -0.08582,0.202279 z M 24.61578,24.3744 c -0.268152,-0.892157 0.548117,0.212026 0,0 z m 10.116425,0.01562 c -1.07397,-0.599429 0.09919,-2.697994 0.08221,-0.732488 l -9.09e-4,0.37097 -0.0813,0.361518 z M 17.037408,24.274668 c -0.0617,-0.366694 0.260093,0.203591 0,0 z m -1.336161,-0.643642 c -0.09758,-0.789456 0.368936,0.343159 0,0 z m -2.490305,-0.189337 c 0.05015,-0.408121 0.269082,0.296274 0,0 z m 14.947972,-0.0253 c 0.616736,-0.844258 2.904452,-3.211561 3.15893,-1.023856 -0.732844,1.060599 -2.183831,0.437596 -3.15893,1.023856 z m 1.770191,-0.579031 c 1.195563,-0.103136 -0.85327,-0.469136 0,0 z m 0.55611,-0.957973 c -0.19578,-0.388857 -0.492614,1.239683 0,0 z m -14.232983,1.404886 c -0.07923,-0.353696 0.251465,0.05369 0,0 z m -2.659538,-0.0149 c -9.2e-4,-0.244645 0.16592,0.163892 0,0 z m 2.99039,-0.151685 c -0.298341,-0.39442 0.445322,0.132894 0,0 z M 16.1218,22.730844 c 0.0188,-0.464125 0.287835,0.323232 0,0 z m 17.019772,-0.506621 c 0.02151,-0.55673 0.50454,0.296206 0,0 z m -1.106478,-1.00372 c -0.339047,-0.772901 0.528248,-0.309737 0,0 z M 19.41441,20.449045 c -0.365114,-0.501165 0.528463,-0.257096 0,0 z m 3.709109,-0.437383 c -1.123768,-0.303723 0.104503,-0.616721 0.258918,-0.0781 l -0.258918,0.0781 z m -2.134382,-0.07802 c -0.217697,-0.857288 0.476895,0.388954 0,0 z m 0.626754,-0.199427 c -1.255653,-1.707424 -4.40706,-0.2599 -5.108261,-2.88609 -0.840668,-1.142606 -0.181541,-3.991007 1.580316,-2.645359 -0.843878,-1.557004 1.862796,-2.044674 2.227994,-0.585968 1.205602,-0.13534 -0.507713,2.536849 0.716689,3.257565 0.295612,0.925522 0.6519,1.870458 0.583262,2.859852 z m -2.633066,-1.463929 c -0.194438,-0.905718 -1.11462,-0.374427 0,0 z m 0.659196,-0.361357 c 1.634914,-0.539222 -0.547541,-4.163924 -0.694384,-1.621408 0.0175,0.588841 0.118961,1.303425 0.694384,1.621408 z m 0.983901,-0.955316 c 0.751453,-0.617628 -0.79561,-0.731965 0,0 z m -3.587821,-1.827109 c 0.790241,-0.690331 -0.396651,-0.30146 0,0 z m 2.089995,-1.852523 c -0.113028,-0.931348 -0.193989,0.561967 0,0 z m 1.169115,6.16015 c 0.153746,-0.211213 0.0239,0.307632 0,0 z m 3.698222,-0.287821 c -0.736545,0.07099 -0.187612,-0.541906 0,0 z m -3.31647,-0.04135 c 0.105278,-0.19551 0.03632,0.251696 0,0 z m 21.974594,-0.446728 c -2.031969,-1.450359 -4.326208,-2.462697 -6.466586,-3.732721 -0.09921,-1.611366 1.194868,-3.115831 2.509535,-3.878866 -2.686645,1.408157 -1.194603,5.526391 1.602746,5.088118 0.946076,0.672306 1.68144,1.589391 2.354305,2.523469 z M 40.663968,17.09988 c -0.02721,-0.402767 -0.233364,0.374084 0,0 z m -3.605385,-1.674551 c -0.223319,-0.629094 -0.469059,0.257262 0,0 z m -0.513057,-0.487547 c -0.298834,-0.110552 0.19334,0.339019 0,0 z M 29.566625,13.36426 c -0.120078,-1.297612 -3.518876,-1.834554 -1.68337,-3.154169 1.056526,0.701455 1.348916,2.017987 1.68337,3.154169 z m -1.240694,-2.09493 c 0.800996,-0.667133 -0.559846,0.144974 0,0 z m 9.41257,1.833615 c 0.199489,-0.803309 1.066049,-0.398026 0,0 z M 17.338634,12.850762 c -0.373486,-0.552643 0.491041,0.215485 0,0 z m 16.66669,-0.07363 c -0.801287,-1.373013 2.962735,-2.214847 1.025537,-0.703159 -0.265855,0.318156 -0.586727,0.656876 -1.025537,0.703159 z m -13.970567,-0.06306 c -0.0263,-0.599429 0.432823,0.178369 0,0 z m 9.87783,-0.260233 c -9.2e-4,-0.244645 0.16592,0.163892 0,0 z m 3.483486,-0.361213 c 0.346731,-0.209968 -0.284098,0.710117 0,0 z m 5.249089,-0.251663 c -0.213481,-0.770711 0.895644,-0.353425 0,0 z m -5.023619,-0.05737 c -1.237654,-1.331467 2.435511,-1.085046 0.351113,-0.163214 -0.09702,0.09375 -0.23257,0.111327 -0.351113,0.163214 z M 28.767332,11.46633 c -9.2e-4,-0.244645 0.16592,0.163892 0,0 z m 0.270821,-0.01021 c -0.218807,-0.584254 0.446015,0.25847 0,0 z m 1.411273,-0.238536 c -0.50175,-0.498394 0.529626,0.122546 0,0 z m -0.298244,-0.341835 c 0.105278,-0.19551 0.03632,0.251696 0,0 z m 10.241269,-0.02476 c 0.138333,-0.533863 0.431769,0.387588 0,0 z m -10.63332,-0.128064 c -0.750509,-0.152034 -0.224837,-0.389254 0.102192,-0.04865 l -0.102192,0.04865 z m 2.948085,-0.20958 c 0.223951,-0.0022 -0.165079,0.388774 0,0 z m 3.701433,-0.02984 c -0.171256,-1.8001619 1.527378,0.750846 0,0 z m 5.974307,-0.349571 C 41.45968,9.8218246 39.877875,7.6444116 41.959771,8.5538954 c 0.604927,0.2085416 1.585342,1.3340843 0.423185,1.5800386 z m -7.69847,-0.1516371 c 0.135575,-1.1565768 1.540771,-0.1886474 0,0 z m 3.755191,-0.077095 c -0.051,-0.3893242 0.292993,0.3265691 0,0 z m 1.350741,-0.016953 c 0.08402,-0.3011983 0.137203,0.2622901 0,0 z m -8.157675,-0.07839 C 32.001698,8.3680428 34.921811,8.7012367 35.174136,8.8722806 34.040379,9.335281 32.844482,9.6393812 31.632743,9.8098589 z m 0.355829,-0.2040863 c -0.08619,-0.4750307 -0.286211,0.5001554 0,0 z m 8.231316,0.1236498 c 0.05453,-0.6564887 0.662411,0.3558076 0,0 z m -4.1992,-0.1702445 c -0.370017,-1.3482358 0.90021,0.7814211 0,0 z m 2.863069,-0.00157 c 0.161141,-0.7851959 0.329319,0.5207551 0,0 z m -9.257609,-0.068911 c 0.572294,-0.6006647 0.491749,0.1646556 0,0 z m 6.882975,-0.095562 c -0.308741,-1.31778 0.945812,0.6230961 0,0 z m 6.779082,0.100655 C 41.698392,8.6175391 45.216336,8.5033014 43.466918,8.7762627 43.138962,8.5849332 43.240376,9.3606423 43.288205,9.4937899 z M 39.243016,9.3542703 c 0.310443,-1.0955646 0.822675,0.7776677 0,0 z m 5.655012,-0.168293 c -0.646795,-0.955081 0.565354,0.3470622 0,0 z m -7.49356,-0.2852356 c 0.629272,-2.8113316 4.108913,-2.5212643 6.313674,-2.9731424 1.245183,-0.053738 2.84131,2.4065322 0.583139,1.2695808 -2.428346,-0.5083138 -4.811469,0.5773196 -6.896813,1.7035616 z m 8.350823,-1.4993615 c -0.248732,-0.5131192 -0.568435,0.3893847 0,0 z M 40.315326,7.1373397 c -0.247152,-0.3850764 -0.110893,0.5452651 0,0 z m 4.003419,-0.1135343 c 0.204814,-0.5338492 -0.468695,0.2727124 0,0 z m 0.664063,-0.038754 c -0.09069,-0.7387471 -0.363214,0.4286823 0,0 z M 43.846531,6.7258792 c -0.151048,-0.1831633 -0.0083,0.255231 0,0 z m -3.647796,1.3346219 c 0.18465,-0.6169848 0.353465,0.5165882 0,0 z m 2.359384,-0.021292 c 0.07579,-1.7913305 1.644563,0.6181632 0,0 z m 1.777532,-0.2774134 c 0.0084,-0.5403365 0.780049,0.9404469 0,0 z m -0.409588,-0.209077 c -0.159918,-0.4233452 0.391125,0.2857005 0,0 z m 1.507125,-0.815442 c 0.09615,-0.6657317 0.246562,0.5445575 0,0 z M 41.686244,5.9809304 c -0.162373,-0.4751718 0.438183,0.3228097 0,0 z"
         id="path27751"
         inkscape:connector-curvature="0" />
      <path
         style="fill:#2b2622"
         d="m 17.003844,39.316805 c 0.09801,-1.201894 0.733453,-0.812859 0,0 z m -3.192457,-1.678056 c -0.350805,-0.119733 0.223223,-0.127294 0,0 z m 0.06762,-0.322694 c -0.54086,-0.874003 0.45836,-0.219206 0,0 z m 0.264291,-0.527121 c -0.335344,-0.560276 0.525911,-0.187061 0,0 z m 0.194685,-0.49914 c -0.04188,-0.543012 0.631031,-0.02857 0,0 z m -2.096465,-2.270068 c -0.01427,-0.838388 0.426931,-0.175891 0,0 z m 21.85586,-2.615302 c -2.366936,-0.343564 -0.868449,-6.016776 0.677504,-3.816399 -0.02239,0.850407 0.541844,2.315632 0.448277,0.589255 0.970355,-2.761766 2.102155,2.506734 0.363207,2.916028 -0.407499,0.341851 -0.98114,0.427033 -1.488988,0.311116 z m 0.954019,-0.591562 -0.09943,-0.06898 0.09943,0.06898 z M 17.841283,29.561969 c -0.135714,-0.88754 0.86744,-0.553301 0,0 z M 5.3583591,28.860957 c 0.1999486,-0.773707 0.1424103,0.384469 0,0 z m 0.2652636,-0.107129 c 0.73689,-1.072492 1.5708488,0.07556 0,0 z M 20.338327,28.392211 c -0.574103,-0.888001 0.624438,0.422282 0,0 z m -1.82899,-0.265357 c -0.03772,-0.637865 0.712069,-0.332464 0,0 z m 14.307388,-0.722148 c -0.557208,-1.586536 1.00063,-1.163575 0,0 z m -11.699004,0.181573 c -0.757555,-0.273249 0.511405,-0.259354 0,0 z M 8.8685139,27.09905 c -0.073144,-0.47807 0.3429306,0.100595 0,0 z M 18.96108,26.769882 c -0.06059,-0.414593 0.287698,0.196666 0,0 z m 2.269495,-0.105805 c -0.541268,-0.432507 0.517851,-0.287009 0,0 z m -11.381436,0.01612 c 0.337034,-0.130246 0.571311,-0.220783 0,0 z M 20.181681,26.51517 c -0.243694,-0.147206 0.170878,-0.06601 0,0 z m -3.103253,-0.05094 c -0.165717,-0.263332 0.301442,0.02521 0,0 z M 9.8706126,26.350947 c -0.1447844,-0.351346 0.3334764,0.123848 0,0 z M 33.842955,26.041405 c -0.08471,-3.058669 2.679269,1.183823 0,0 z m 6.098892,-0.510421 c -1.524232,0.05278 -3.63407,-3.641137 -1.193946,-2.829462 0.703377,0.777814 1.022536,1.815705 1.193946,2.829462 z M 37.32096,22.94134 c -0.10226,-0.29747 -0.107914,0.304364 0,0 z m -15.663758,2.708497 c -0.444039,-1.153908 2.047609,-3.439359 0.972129,-1.04337 0.04076,0.543447 -0.254538,1.423576 -0.972129,1.04337 z m -9.260029,-0.217118 c 0.716115,-0.732033 1.826414,-0.431328 0.305351,-0.05594 l -0.305351,0.05594 z m 7.923898,-0.05238 c -0.418871,-0.470881 0.435503,-0.325423 0,0 z m 2.696123,-0.0682 c 0.105263,-0.195514 0.03634,0.251673 0,0 z m -5.821717,-0.141072 c 0.08587,-0.345226 0.172084,0.281823 0,0 z m 16.057439,-0.275659 c -1.443811,0.291888 -0.509619,-3.006582 -0.103235,-1.087446 1.090385,-0.55617 0.81919,0.942479 0.103235,1.087446 z m -15.639898,0.0094 c -0.422859,-0.431584 0.455936,0.151756 0,0 z m 3.466851,-0.05787 c -0.123334,-0.598926 0.602328,0.74002 0,0 z m -0.697311,-0.115282 c -0.733345,-0.627181 0.824778,0.213442 0,0 z m -1.82709,-0.260919 c 0.80029,-1.018729 -1.665028,-4.216227 0.08701,-1.936122 0.850789,0.58388 1.417105,1.790504 -0.08701,1.936122 z m -0.548768,0.04199 c 0.153749,-0.211221 0.02392,0.30763 0,0 z m 16.73059,-0.200985 c -0.730244,-2.24e-4 0.227923,-0.519664 0,0 z M 18.388452,24.183559 c -0.260302,-0.487088 0.471222,0.177447 0,0 z m -0.214736,-0.138297 c -0.02918,-0.314937 0.199565,0.208427 0,0 z m -0.656375,-0.10858 c -0.01989,-0.479392 0.332021,0.28241 0,0 z m 17.038097,-0.307551 c -0.889661,-0.507858 0.669394,-0.221802 0,0 z m -6.372664,-0.224854 c 0.688824,-1.345971 1.511876,0.844013 0,0 z m 4.928269,-0.0554 c 0.03554,-0.760413 0.807714,0.229769 0,0 z m 1.406408,-0.219774 c -0.935152,-0.269664 0.595635,-0.345699 0,0 z M 27.502778,22.93756 c -1.85393,0.171971 -4.462674,-2.812768 -1.35599,-2.989691 2.380673,-0.481012 4.560507,-2.388534 4.912955,-4.859969 1.462663,-2.102338 0.202107,2.213073 1.499088,0.696273 1.47312,-0.869845 2.654096,-3.176687 4.088934,-3.423161 -0.34857,1.841389 -4.09034,3.042289 -2.804161,4.86363 1.198292,-0.811826 2.379952,-0.862008 3.589625,-0.06034 1.490591,-0.593123 0.919443,2.600589 0.0588,0.549228 -0.836722,-1.393517 -3.455288,0.418459 -1.077654,0.814834 1.104934,0.672089 0.688868,3.497918 -0.43099,1.368582 -1.777423,-1.800665 -5.335376,-1.899604 -6.729158,0.419204 -0.704285,0.77184 -1.608195,1.518081 -1.75145,2.621414 z m 9.49356,-2.425894 c -0.232194,-0.187437 0.05668,0.291977 0,0 z M 28.46895,20.075741 c 0.07573,-1.216282 -0.978244,0.854737 0,0 z m -1.199696,-0.08761 c 0.194073,-1.147894 -0.438309,0.517893 0,0 z m 9.248157,-0.162372 c -0.006,-1.313859 -0.899784,0.326827 0,0 z m -1.02322,-0.803091 c -0.332068,-0.253735 0.401441,1.046443 0,0 z m -2.921098,-0.467295 c -0.312341,-0.636142 -0.294442,0.66777 0,0 z m 2.150165,-0.05879 c -0.260095,-0.203611 0.06169,0.366702 0,0 z M 34.314664,18.15632 c -0.272495,-0.60967 -0.333444,0.560526 0,0 z M 30.72381,16.612686 c -0.09197,-0.251272 -0.09197,0.251272 0,0 z m -0.715785,6.26775 c 0.266907,-1.995836 2.128915,0.360591 0,0 z m -1.7823,-0.173583 c -0.224646,-1.559412 1.75986,0.130246 0,0 z m -6.920871,-0.07752 c -0.676484,0.04685 -0.719512,-0.573777 0,0 z m 8.178262,0.07131 c -0.250477,-0.532731 0.488318,0.02895 0,0 z m 2.077947,-0.0184 c -0.238653,-1.7988 1.776808,0.198714 0,0 z m -3.810439,-0.08056 c 0.02721,-0.402767 0.233364,0.374084 0,0 z m -4.995885,-0.06398 c 0.09197,-0.251272 0.09197,0.251272 0,0 z m 11.583784,0.01588 c 0.04661,-0.260116 0.168117,0.163838 0,0 z M 19.604489,22.399071 c -1.389133,-0.637287 0.641907,-0.520009 0,0 z M 29.76943,22.275993 c -0.116345,-0.624562 0.485328,0.211771 0,0 z m 4.499965,-0.0097 c -0.876364,-0.101497 0.05245,-0.547621 0,0 z m -1.005554,-0.160568 c -0.03637,-0.345618 0.253882,0.197076 0,0 z m -10.12735,-0.0562 c -0.19334,-0.339019 0.298834,0.110552 0,0 z m 5.487684,-0.214384 c -9.3e-4,-0.24464 0.165924,0.163882 0,0 z m 9.189635,-0.09174 c -0.62511,-0.378217 1.392949,0.350958 0,0 z m -7.703524,-0.04696 c -0.882302,-0.855726 1.199571,0.103801 0,0 z m 2.650977,0.009 c -0.03391,-0.435059 0.38651,0.39085 0,0 z m -2.037453,-0.2224 c 0.556777,-1.503533 1.575761,0.664627 0,0 z m -7.366674,-0.146188 c -0.05527,-0.752739 0.425572,0.488083 0,0 z m 5.981115,-0.014 c 0.02761,-0.643321 0.185094,0.132087 0,0 z m 12.131093,0.01277 c -1.593671,0.614458 -2.678823,-3.354198 -0.717185,-1.066537 0.268348,0.33435 0.517994,0.685968 0.717185,1.066537 z M 18.539562,19.496828 c 2.468313,-1.421718 0.916868,-4.999489 0.01107,-6.005062 2.625787,-0.629432 1.72652,2.803627 2.137149,4.148688 0.332646,2.073465 -2.040248,-0.05007 -2.148221,1.856374 z m 9.674352,-0.471137 c -1.428464,-1.05128 0.934423,-0.133302 0,0 z M 19.8916,18.940377 c 0.09744,-0.315951 0.09744,0.315951 0,0 z m 8.769128,-0.268128 c 0.0036,-0.682418 0.530286,0.411334 0,0 z m 13.897391,-0.08455 c -1.278568,-1.300628 -4.848257,-2.742944 -5.206097,-3.258103 2.029181,0.420121 3.979075,1.572687 5.206097,3.258103 z M 18.155027,18.283848 c -1.868201,-0.007 -2.856015,-4.800486 -0.633379,-3.774388 2.066387,-0.639124 2.040139,2.47245 0.807999,3.444187 0.29736,0.204111 0.296615,1.012429 -0.17462,0.330201 z m -0.744814,-0.777705 c -0.0363,-0.251688 -0.10529,0.195485 0,0 z m -0.574079,-1.56355 c -0.315822,-0.232832 0.385009,0.959626 0,0 z m 11.62863,1.857821 c -0.638766,-1.038371 1.297223,-0.335665 0,0 z m 5.145026,-0.904475 c 0.331189,-0.939556 0.137195,0.387303 0,0 z m 6.562379,-0.682957 c 0.246839,-0.403444 0.187346,0.433319 0,0 z M 28.316247,15.651575 c 0.746307,-1.449489 -2.570448,-1.955626 -1.304928,-3.289428 0.894293,0.77753 2.0055,2.039906 1.304928,3.289428 z m 6.130148,0.279861 c -0.06394,-0.5582 0.382869,0.322107 0,0 z m 5.041245,-0.06308 c -0.03922,-0.501306 0.502841,0.894916 0,0 z m -0.504559,-0.121 c -1.337275,-0.01795 0.641984,-0.364287 0,0 z m -4.202427,-0.25149 c -0.351751,-0.793811 0.568388,0.350302 0,0 z M 30.676091,14.96962 c -9.3e-4,-0.24464 0.165924,0.163882 0,0 z M 30.389777,14.8728 c 0.09197,-0.251272 0.09197,0.251272 0,0 z m 6.08211,-0.5878 c -0.566881,-1.073296 1.214956,-0.87972 0,0 z m -6.195334,-0.330529 c 0.03286,-0.614944 0.364766,0.736809 0,0 z m -10.573161,-0.51274 c -0.501905,-0.449171 0.5414,-0.05123 0,0 z M 36.865551,12.99252 c 0.04475,-0.79363 0.573253,0.356374 0,0 z M 18.383618,12.872037 c 1.042884,-1.19828 1.539751,0.75761 0,0 z m 10.90309,-0.174103 c -1.134692,-0.215734 0.244283,-1.275696 0,0 z m 7.974603,-0.134284 c 0.30699,-1.490933 1.65122,-0.889124 0.224637,-0.04759 l -0.117077,0.0248 -0.10756,0.02279 0,3e-6 z m -3.036373,-0.14786 c 0.07977,-1.877724 1.876761,-0.0402 0,0 z m -9.111406,-0.416718 c -0.05992,-0.625465 0.357669,0.387092 0,0 z m 3.154739,-0.21714 c -0.68808,0.303037 -0.312562,-0.488954 0,0 z m 5.461835,-0.200819 c 0.229709,-0.703292 0.180739,0.574761 0,0 z m -7.301005,-0.08847 c 0.183187,-1.206443 1.294132,0.24115 0,0 z m 6.970665,-0.151974 c -0.621838,-0.526576 0.503269,-0.589401 0,0 z m -6.337394,0.07096 c 0.0236,-0.239062 0.143245,0.154263 0,0 z m 8.729194,-0.592307 c -0.155139,-0.9695291 0.788402,0.398505 0,0 z m -1.441113,-0.0561 c -0.191616,-0.9105246 1.110593,-0.08518 0,0 z m 3.268031,0.01733 c -0.321125,-1.1715351 1.309563,0.02133 0,0 z m -1.141791,-0.433825 c -0.556741,-1.0823207 0.943738,0.05669 0,0 z M 34.577118,9.8558317 c -0.412243,-0.3615412 0.512712,0.1047549 0,0 z M 34.9708,9.4850945 c 0.229068,-0.3638398 0.09324,0.4391656 0,0 z m 1.145256,0.00345 c 0.269329,-0.3815199 0.04636,0.5641295 0,0 z m -6.442064,-0.0015 c -0.02165,-0.6561803 0.561837,0.1331028 0,0 z m 3.149453,-0.1646947 c 0.0856,-0.5367987 0.311023,0.4416536 0,0 z m 0.734539,-0.072768 c 0.08914,-0.7691199 0.458157,0.4535081 0,0 z m 5.92033,-0.039186 c -0.02113,-0.4685923 0.496973,0.6675956 0,0 z m 2.316301,-0.059345 c 0.536013,-0.962706 0.754977,0.8898672 0,0 z m -5.392246,-0.035918 c 0.05913,-0.2614747 0.152183,0.2259737 0,0 z m -2.409864,-0.120431 c 0.445333,-0.5666979 0.518643,0.6326429 0,0 z m 3.517007,-0.082968 c -0.0926,-1.3139022 2.979484,-2.5322177 2.562473,-1.656078 -0.88989,0.4968996 -1.619798,1.2482822 -2.562473,1.656078 z m 2.745491,-0.036996 c -0.08189,-0.9174022 0.49293,0.5477294 0,0 z m 3.411169,-0.029466 c -1.385158,-0.4479214 0.848148,-1.4620326 0,0 z M 33.07025,8.7898886 c 0.537257,-0.5975228 0.98107,0.203479 0,0 z m 1.793182,-0.091323 c 0.146957,-0.4673755 0.736482,0.9934304 0,0 z m 0.691925,-0.009 c 0.280399,-0.9853466 0.740018,0.6689453 0,0 z m 5.630841,-0.012043 c -0.767544,-0.4947369 0.710249,0.1648399 0,0 z M 37.022716,8.4759115 c 0.440708,-0.7406773 0.784088,0.64796 0,0 z m 3.244891,-0.5156509 c -0.06186,-0.4249803 0.296274,0.1508396 0,0 z m 4.005477,-0.6982337 c 0.435008,-0.5364458 0.243478,0.6634702 0,0 z m -3.910039,-0.029432 c -0.03282,-0.6297946 0.496874,0.047331 0,0 z m 1.813322,-0.021944 c -9.3e-4,-0.2446365 0.165923,0.1638786 0,0 z m 3.221162,-0.1464985 c -0.664206,-0.6079267 1.280765,0.6673741 0,0 z m -3.722211,0.00964 c 0.133825,-0.4360714 0.31361,0.2902734 0,0 z m 1.370653,-0.3528431 c -0.73828,-1.5502549 1.821304,0.405022 0,0 z m 1.395086,0.013559 c -0.0196,-0.4309362 0.236641,0.3445522 0,0 z M 42.257978,6.5965631 c 0.191855,-0.4554593 0.13426,0.4768829 0,0 z M 44.46351,6.0597858 c 0.114916,-1.1200976 0.451962,0.3093574 0,0 z"
         id="path27749"
         inkscape:connector-curvature="0" />
    </g>
  </g>
</svg>
