<?xml version="1.0" encoding="UTF-8" standalone="no"?>
<!-- Created with Inkscape (http://www.inkscape.org/) -->

<svg
   xmlns:dc="http://purl.org/dc/elements/1.1/"
   xmlns:cc="http://creativecommons.org/ns#"
   xmlns:rdf="http://www.w3.org/1999/02/22-rdf-syntax-ns#"
   xmlns:svg="http://www.w3.org/2000/svg"
   xmlns="http://www.w3.org/2000/svg"
   xmlns:sodipodi="http://sodipodi.sourceforge.net/DTD/sodipodi-0.dtd"
   xmlns:inkscape="http://www.inkscape.org/namespaces/inkscape"
   width="48px"
   height="48px"
   id="svg27480"
   version="1.1"
   inkscape:version="0.48.4 r9939"
   sodipodi:docname="New document 35">
  <defs
     id="defs27482" />
  <sodipodi:namedview
     id="base"
     pagecolor="#ffffff"
     bordercolor="#666666"
     borderopacity="1.0"
     inkscape:pageopacity="0.0"
     inkscape:pageshadow="2"
     inkscape:zoom="19.79899"
     inkscape:cx="19.771506"
     inkscape:cy="21.725054"
     inkscape:current-layer="layer1"
     showgrid="true"
     inkscape:grid-bbox="true"
     inkscape:document-units="px"
     inkscape:window-width="2560"
     inkscape:window-height="1496"
     inkscape:window-x="-8"
     inkscape:window-y="-8"
     inkscape:window-maximized="1" />
  <metadata
     id="metadata27485">
    <rdf:RDF>
      <cc:Work
         rdf:about="">
        <dc:format>image/svg+xml</dc:format>
        <dc:type
           rdf:resource="http://purl.org/dc/dcmitype/StillImage" />
        <dc:title></dc:title>
      </cc:Work>
    </rdf:RDF>
  </metadata>
  <g
     id="layer1"
     inkscape:label="Layer 1"
     inkscape:groupmode="layer">
    <g
       id="g27499"
       transform="matrix(1.2849203,0,0,1.2849203,-3.9423855,-3.4514073)">
      <path
         style="fill:#98827c"
         d="M 15.1186,39.92514 C 12.276457,39.605556 10.392485,36.8888 9.9819273,34.230618 9.4157536,32.23516 9.7805009,29.734675 8.0375026,28.288269 7.0576576,27.225762 5.7738609,25.434907 7.0447188,24.115143 c 2.763059,-2.303381 4.0528972,-5.749198 5.6984052,-8.831789 1.062672,-1.558172 2.839584,-2.332001 4.325721,-3.400611 -0.395615,-2.2223791 0.09068,-4.4606788 0.234823,-6.6816931 -1.119438,-1.4562306 0.962974,-3.5365141 1.985382,-1.5485072 1.745528,1.9345357 1.605047,5.0398258 3.726503,6.6757113 2.703703,1.79329 6.15471,1.009368 9.08046,2.160177 1.502714,0.424233 3.968834,0.221543 4.326219,2.18003 -0.361405,1.606069 -2.102197,2.530899 -3.186445,3.677795 -0.549781,1.367052 1.777726,2.252906 2.412578,3.431635 1.582007,1.587712 2.932678,3.761584 2.415093,6.096172 -0.315905,2.574792 -2.006626,4.75535 -4.150316,6.122696 -3.216991,2.387925 -6.874037,4.157383 -10.641062,5.484828 -2.635584,0.773628 -5.449024,0.905474 -8.15348,0.443553 z"
         id="path27513"
         inkscape:connector-curvature="0" />
      <path
         style="fill:#956358"
         d="M 15.296039,39.571422 C 13.073783,39.312831 11.064164,37.711368 10.632707,35.46713 9.9024686,33.445028 9.94938,31.204512 9.1583465,29.21873 8.3530303,27.880714 6.4717603,26.844002 6.8258714,25.069565 7.5241476,23.940888 8.7410841,23.1943 9.3968099,22.000992 10.796433,20.01941 11.77905,17.80083 12.896773,15.661895 c 0.712134,-1.455553 2.20971,-2.118659 3.501276,-2.925651 1.494715,-1.027553 0.826168,-2.8841542 0.986172,-4.382487 0.04093,-1.5973599 0.09317,-3.1956853 0.236388,-4.7876907 2.366783,-0.3483914 2.419754,3.0336267 3.42307,4.5052191 0.455653,2.1564816 2.358312,3.2675306 4.343525,3.7120836 2.338993,0.3652 4.702277,0.570228 7.00288,1.173191 1.426404,0.190463 5.066071,0.921239 3.071775,2.883949 -1.326594,0.906154 -4.052617,2.578891 -1.949236,4.231743 1.684641,1.817741 3.926336,3.561567 4.290115,6.176435 0.182866,2.665292 -1.058975,5.395911 -3.345816,6.836404 -3.381431,2.712813 -7.32625,4.693658 -11.398704,6.135052 -2.50735,0.739991 -5.199879,0.899943 -7.762179,0.351279 z M 10.027666,26.016468 c -0.1186556,-1.277372 -2.0089574,-0.764781 -0.56748,0.03163 0.1238875,0.136699 0.591463,0.332133 0.56748,-0.03163 z"
         id="path27511"
         inkscape:connector-curvature="0" />
      <path
         style="fill:#88574d"
         d="M 15.691167,39.558385 C 13.354166,39.370547 11.263393,37.719875 10.636301,35.447037 9.8409219,33.332412 10.079109,30.906165 8.9911554,28.903818 8.125617,27.664937 5.9713231,26.160857 7.2255925,24.527429 10.208857,22.223611 11.297691,18.461513 13.13399,15.335832 14.111014,13.614774 16.641049,13.521755 17.397238,11.65772 16.83852,9.5461537 18.197663,7.5163852 17.874994,5.3875232 17.07189,4.3362096 18.305554,2.5509979 18.965772,4.2491419 c 1.046037,1.2784979 0.483454,3.337403 1.130338,4.4324062 1.501152,-1.0883925 1.370061,2.0250319 2.941332,2.1961259 1.721239,0.764912 3.172955,2.58988 5.241204,1.829702 1.952683,-0.07235 3.825526,0.751848 5.764292,0.948832 1.978553,-0.349491 2.332694,2.471516 0.276366,2.458033 -2.103351,0.553935 -2.688618,3.107538 -0.668718,4.150401 1.538946,1.70341 3.591428,3.330348 3.959174,5.722912 0.07997,2.191419 -0.542757,4.598321 -2.230391,6.088845 -1.817615,0.499114 0.845079,-1.544928 0.296988,-2.457028 -0.678737,-1.580585 0.225372,-4.013581 -1.335422,-5.024633 -1.629838,0.08043 -1.601454,2.608137 -2.976154,3.415681 -1.232453,1.619158 -2.68972,2.996067 -4.210439,4.31815 -0.927445,1.352577 0.514785,1.172988 1.293127,0.493997 1.183178,-0.454803 1.11878,1.778966 2.575403,1.142073 0.789536,-0.251924 2.128232,0.01928 0.772057,0.711087 -2.511632,1.83951 -5.426414,3.033211 -8.281284,4.225264 -2.496397,0.86992 -5.216205,1.140959 -7.822478,0.657395 z M 10.529364,25.995322 c 0.417166,-1.530048 -3.163422,-2.584075 -1.9680375,-0.545376 0.7414027,0.587848 2.0306065,2.246764 2.5812155,1.964943 -0.162053,-0.490463 -0.395917,-0.952284 -0.613178,-1.419567 z m 17.264534,0.155002 c 0.526637,-2.275647 -2.3079,0.513654 -0.404995,0.689122 0.222912,-0.154027 0.405919,-0.408766 0.404995,-0.689122 z M 12.752544,24.275322 c 0.844577,-1.251467 4.063921,-1.513573 3.133512,-3.48654 -1.294164,-1.24198 -3.170248,-0.01274 -3.998521,1.211608 -0.539499,0.872272 -2.5792915,2.52596 -0.410238,2.58482 0.436232,0.0093 0.929014,2.35e-4 1.275247,-0.309888 z M 24.05451,21.391111 c 0.185583,-2.136824 -3.357947,-0.625416 -1.351061,0.514388 0.504992,0.07185 0.964631,-0.229024 1.351061,-0.514388 z m -6.616709,-3.073028 c 1.707294,-0.963437 3.978634,-0.408319 5.506434,-1.727863 -0.796707,-0.797953 1.254469,-3.664328 -0.413009,-3.010309 -1.006378,1.282616 -3.899061,-2.340176 -3.365961,0.400799 0.73868,1.916898 -1.346696,2.621126 -2.367631,3.736287 -0.867431,0.856006 -0.234893,1.05163 0.640167,0.601086 z"
         id="path27509"
         inkscape:connector-curvature="0" />
      <path
         style="fill:#774e45"
         d="M 14.71419,39.182028 C 12.211527,38.819147 10.583519,36.415434 10.28501,34.041688 9.6902524,31.864598 10.061556,29.090109 7.986716,27.659265 6.9624662,27.195293 6.1989712,24.162564 7.8172588,24.90752 c 1.2945619,0.810146 2.2273712,3.07462 3.6884872,3.086208 0.129491,-0.936047 -2.0544694,-3.572963 0.03703,-2.680127 1.730082,2.117387 3.362665,-0.906955 5.236199,-1.261186 1.75258,-0.905871 3.703213,-1.10564 5.618254,-1.387932 2.510888,0.17625 2.615017,-3.362711 0.379339,-3.599237 -0.837587,1.974415 -3.653882,0.988699 -4.52313,2.735117 -1.094654,1.584254 -1.393854,-1.299468 -1.724588,-2.116302 1.69061,-2.084695 4.874652,-1.057212 6.833699,-2.666022 0.493083,-1.418722 0.839118,-3.884922 -0.660609,-4.845493 -0.764856,-0.124781 -2.33194,0.68662 -1.729392,-0.836137 0.457326,-1.5489834 -1.79752,-0.48909 -0.911867,0.539184 -1.312453,0.950438 -3.908027,1.031777 -4.503987,3.097951 -0.481004,0.537523 0.734165,1.803129 -0.543714,1.318639 -0.155966,1.356197 1.538629,3.747549 -1.107488,3.585541 -2.099395,0.562265 -2.797175,2.998506 -4.6567579,3.937945 -0.9779736,-1.583899 1.4993689,-2.82013 1.9674559,-4.269075 1.005165,-1.791588 1.217086,-4.200944 3.186525,-5.295751 1.265248,-1.031775 3.893012,-1.418109 2.89873,-3.509725 0.386907,-2.1518349 1.248169,-4.258631 0.518921,-6.450094 0.125643,-1.8619337 2.059167,1.4795682 1.699793,2.3132966 -0.06321,1.2985161 0.02582,3.6300814 1.628045,2.6353608 1.223214,1.7358976 3.885179,2.7739846 5.103968,4.0745046 2.168547,-0.747384 4.421639,-0.107497 6.580291,0.281744 1.257245,-0.298571 4.058121,1.255375 1.809975,2.082264 -1.187965,0.699124 -3.570658,1.764845 -2.743539,3.367136 1.991658,1.346396 3.426028,3.327301 4.97117,5.126539 0.751986,0.982261 0.466263,3.850416 0.106701,3.885455 -0.364691,-1.666033 -0.439588,-3.864197 -1.753238,-4.992727 -2.363538,-0.874083 -3.295605,1.838115 -4.14447,3.44193 -0.997329,1.969568 -2.580741,3.474867 -4.337271,4.767123 -1.75303,1.384836 -2.98787,3.247172 -4.290116,5.028195 -0.842959,0.103439 -2.93537,1.450991 -0.909631,1.469666 1.807306,-0.701354 3.460232,-1.885754 5.484676,-1.701698 0.794753,-0.08624 2.593988,-0.913956 2.809602,-0.442759 -1.83383,1.384039 -4.071595,2.056659 -6.113421,3.057682 -2.857963,1.081508 -6.04974,1.270694 -9.00871,0.497292 z m 5.278427,-9.347909 c -0.644309,-1.319492 -1.200296,1.707443 -0.05785,0.153784 l 0.05785,-0.153784 z m -6.184518,-1.210825 c 0.824151,0.07819 3.240805,-1.72874 1.147552,-1.00133 -0.765449,0.06646 -3.183992,1.042233 -2.25456,1.375941 0.372891,-0.113345 0.736541,-0.253989 1.107008,-0.374611 z M 27.473023,27.35859 c 0.900367,-0.750822 1.190069,-3.883434 -0.310686,-3.504221 -0.548846,0.714953 -1.671052,4.334299 0.310686,3.504221 z m -9.243358,-0.874487 c 2.160642,-1.226753 -2.153977,-0.01586 -0.796706,0.412497 0.277553,-0.114736 0.520697,-0.294639 0.796706,-0.412497 z"
         id="path27507"
         inkscape:connector-curvature="0" />
      <path
         style="fill:#6d443b"
         d="M 15.129317,39.039563 C 12.699342,38.899499 10.929636,36.712223 10.504988,34.440215 9.7760873,32.321593 10.384166,29.600452 8.452122,28.05124 7.6049083,27.476893 6.2228712,25.126304 7.5061028,24.952087 c 1.8606617,0.991442 2.8671772,3.048978 4.5789322,4.103077 1.825129,0.05247 3.468176,-1.063407 5.106983,-1.75738 0.805972,-0.395042 3.146052,-1.617684 0.995781,-1.466821 -1.753622,0.796041 -3.398574,1.754808 -5.191876,2.450748 -1.425744,0.517193 -2.226381,-1.888835 -1.754393,-2.713079 0.539367,1.246639 1.800413,2.123307 2.96214,0.845926 2.860066,-1.993715 6.286649,-2.877419 9.607426,-3.7563 2.105875,-0.88697 1.215277,-3.529673 0.803348,-4.932374 1.268165,-0.655086 0.718268,-1.722813 -0.470184,-1.780666 -0.671935,-1.078699 -0.324941,-3.277238 0.340093,-3.921784 0.72919,1.011335 1.072132,2.995518 2.558997,1.350678 2.415612,-0.872572 4.82866,0.654203 7.277543,0.442608 1.520629,0.193717 1.037888,1.950208 -0.326287,1.823866 -1.33835,1.033463 -3.208711,2.609327 -4.198514,3.289227 1.054371,1.821008 -0.75806,4.163272 -2.380362,2.364888 -1.156028,1.483134 -1.00186,3.616066 -1.658371,5.345087 -0.840106,1.387406 1.220153,3.134574 1.738414,1.178037 0.231216,-1.365678 2.991024,-2.210676 2.22527,-0.248956 -1.091598,1.780464 -3.173971,2.572858 -4.435026,4.208192 -1.701558,1.514098 -3.630262,2.825477 -5.725482,3.719195 -1.749035,1.026063 -4.601591,-0.592307 -5.699204,1.259821 -0.217655,1.504349 1.469627,1.968493 2.468247,1.657361 1.830823,0.938604 3.980034,-0.161939 5.81779,0.370482 -0.936817,0.686669 -2.463973,0.507008 -3.656866,0.577816 -1.126625,-0.02096 -2.249155,-0.144798 -3.361185,-0.322173 z m 3.751711,-7.508461 c 2.122537,-0.185497 4.690737,-1.316209 5.058487,-3.644898 -0.399512,-1.723674 -1.873503,-0.442419 -2.334598,0.420295 -1.865875,0.449067 -4.130952,1.000019 -4.41608,3.268734 0.203648,0.825039 1.272971,0.228523 1.692191,-0.04413 z m 5.219885,6.593595 c 1.469183,-1.257909 0.680141,0.682333 0,0 z m 5.843164,-12.675893 c -1.004823,-1.163492 1.58154,-2.966141 1.156714,-0.906523 -0.260722,0.359893 -0.558356,1.26821 -1.156714,0.906523 z M 9.3823984,22.599654 c 0.1145967,-0.848828 2.0032726,-2.341955 1.0858646,-0.544487 -0.034,0.471402 -1.8576012,2.107794 -1.0858646,0.544487 z M 30.873637,20.575559 c -0.630637,-2.657305 4.079174,-0.264368 2.305114,1.061861 -0.929066,0.70015 -3.158949,0.690805 -2.305114,-1.061861 z M 17.579001,20.268237 c -0.01772,-2.371147 3.082116,-1.567057 4.553202,-2.296953 1.653249,0.45271 -1.117772,2.423234 -2.096669,2.344189 -0.806385,0.182738 -1.658431,0.172732 -2.456533,-0.04724 z m -5.84679,-1.444749 c 0.649453,-1.211387 0.926301,-3.744602 2.589517,-3.713418 -1.176897,1.222584 1.691707,4.200484 -1.083125,4.017168 -0.363655,-0.04213 -1.653293,0.432849 -1.506392,-0.30375 z m 5.928076,-7.484731 c -0.669905,-2.0409941 1.26836,-4.0521097 0.356979,-6.0707117 -0.601353,-1.2703796 0.788867,-1.8563148 0.942257,-0.3649714 0.434616,2.0435813 1.041295,4.5141856 0.218395,6.4535371 -0.362774,0.600577 -1.355292,0.915405 -1.517631,-0.01785 z m 3.521862,-1.047886 c -0.242706,-1.7276736 1.198228,1.390166 0,0 z"
         id="path27505"
         inkscape:connector-curvature="0" />
      <path
         style="fill:#59342e"
         d="M 12.353753,37.760906 C 10.55557,35.916368 10.366901,33.185444 9.9539931,30.785579 9.9494458,28.627656 7.6311657,27.596426 6.9680787,25.714245 c 0.4654184,-1.777425 2.0681631,1.103539 2.9019764,1.394085 0.9924559,1.715234 2.7177379,2.594929 4.6020599,2.023595 1.163015,0.776839 2.367716,-0.201143 3.318301,-0.128322 -0.03344,1.367645 -3.493499,3.033678 -1.027437,3.787661 1.156141,0.305665 2.070276,-1.000595 3.065493,-0.03979 1.897481,-1.119322 3.833864,-2.696668 4.520513,-4.881727 0.265254,-1.021766 -0.267952,-4.112737 -1.279974,-2.086271 -1.112304,1.413934 -2.977699,1.376077 -4.324627,2.419997 -1.399721,0.522668 -1.062242,-0.994234 0.0616,-1.076435 2.069257,-0.713088 0.401996,-2.628837 -1.023023,-1.358744 -1.053993,0.412059 -3.559712,1.974775 -3.754758,1.295527 1.761535,-1.174495 3.752543,-2.201346 5.824627,-2.63563 1.853637,0.217972 3.015638,-1.057298 4.628747,-1.488203 0.771982,-0.459954 1.84198,-1.994672 1.50097,-0.115076 -0.357746,2.201555 -0.815088,4.412652 -1.455077,6.54855 -1.34408,3.483015 -4.994624,6.426833 -8.875657,5.714811 -1.583453,-0.185312 -3.000387,-1.181154 -3.684557,-2.61788 -1.091933,-0.155121 -0.06651,2.282883 0.02123,3.083375 0.06464,0.256093 1.340211,3.014471 0.365272,2.207143 z M 28.543298,20.44385 c -2.106537,-0.554866 -3.058695,-2.44776 -3.214045,-4.418135 -0.274178,-1.962129 1.948047,-2.84321 3.572828,-2.653922 1.745402,0.06402 3.407763,0.748012 5.159014,0.753843 1.765375,1.56712 -2.215862,1.218747 -3.057402,1.773152 -0.659098,1.175674 -2.346818,2.148399 -1.659173,3.530034 0.390939,0.611169 -0.297679,2.213841 -0.801222,1.015028 z m 2.989731,-0.182774 c -0.942941,-1.693831 1.879467,-0.130219 0,0 z M 18.310176,19.892454 c -0.531503,-2.033896 4.107773,-1.579685 2.151059,-0.05575 -0.679774,0.251446 -1.471069,0.379396 -2.151059,0.05575 z m -6.159613,-1.61254 c 0.07529,-0.858337 1.045275,-3.335715 1.557011,-2.381017 -0.22777,0.653288 -0.3349,3.4783 -1.557011,2.381017 z M 17.65841,11.0704 c 0.197664,-1.4639462 0.483802,-4.7582348 1.42471,-4.9954796 0.577456,1.7455775 0.358416,4.3135376 -0.7171,5.6618976 -0.374352,0.02831 -0.64777,-0.331835 -0.70761,-0.666418 z m 0.425375,-6.6597339 c -0.414786,-1.1886424 0.87238,0.3445919 0,0 z"
         id="path27503"
         inkscape:connector-curvature="0" />
      <path
         style="fill:#2f1916"
         d="m 14.900911,34.414722 c -1.362431,-1.217069 -3.315005,-2.517535 -3.249899,-4.561418 1.190636,-0.866774 4.472403,1.038121 2.2175,1.935718 0.386718,1.72106 4.125066,1.09572 3.65223,2.816992 -0.866205,0.185321 -1.766955,-0.02412 -2.619831,-0.191292 z M 9.5153553,28.501624 C 8.535918,27.721406 9.2963067,25.489827 10.103303,27.457218 c 0.460632,0.772513 0.672581,2.764322 -0.5879477,1.044406 z M 7.690716,26.938356 C 7.1442044,26.298345 6.8932903,24.044293 7.8382824,25.834236 8.141089,26.22593 8.8651648,27.796158 7.690716,26.938356 z m 13.000725,-1.59211 c -0.998573,-1.464324 2.626399,0.435292 0.458818,0.224065 -0.171528,-0.03313 -0.30769,-0.144175 -0.458818,-0.224065 z m -1.317288,-5.96396 c -0.261591,-1.601078 2.494686,0.312183 0.530227,0.221264 -0.190942,-3.56e-4 -0.414765,-0.05298 -0.530227,-0.221264 z m 8.160022,-0.799892 c -0.04812,-1.425817 1.85562,1.254042 0,0 z M 25.88547,16.176467 c -0.908736,-2.379893 3.550486,-3.265057 4.140544,-1.040616 -0.11729,1.664806 -2.660251,1.544626 -3.884391,1.171969 -0.08538,-0.04378 -0.170769,-0.08757 -0.256153,-0.131353 z m -7.650233,-5.742526 c 0.162676,-1.2327391 0.170101,1.231067 0,0 z m 0.489278,-3.3741345 c 0.0383,-2.069766 1.037499,1.28156 0.0309,0.6121519 -0.03445,-0.202233 -0.03116,-0.4079076 -0.0309,-0.6121519 z"
         id="path27501"
         inkscape:connector-curvature="0" />
    </g>
  </g>
</svg>
