<?xml version="1.0" encoding="UTF-8" standalone="no"?>
<!-- Created with Inkscape (http://www.inkscape.org/) -->

<svg
   xmlns:i="http://ns.adobe.com/AdobeIllustrator/10.0/"
   xmlns:a="http://ns.adobe.com/AdobeSVGViewerExtensions/3.0/"
   xmlns:dc="http://purl.org/dc/elements/1.1/"
   xmlns:cc="http://creativecommons.org/ns#"
   xmlns:rdf="http://www.w3.org/1999/02/22-rdf-syntax-ns#"
   xmlns:svg="http://www.w3.org/2000/svg"
   xmlns="http://www.w3.org/2000/svg"
   xmlns:xlink="http://www.w3.org/1999/xlink"
   xmlns:sodipodi="http://sodipodi.sourceforge.net/DTD/sodipodi-0.dtd"
   xmlns:inkscape="http://www.inkscape.org/namespaces/inkscape"
   width="48px"
   height="48px"
   id="svg20343"
   sodipodi:version="0.32"
   inkscape:version="0.48.4 r9939"
   sodipodi:docname="subdivide.svg"
   version="1.1">
  <defs
     id="defs20345">
    <linearGradient
       inkscape:collect="always"
       id="linearGradient19890">
      <stop
         style="stop-color:#204a87;stop-opacity:1;"
         offset="0"
         id="stop19892" />
      <stop
         style="stop-color:#204a87;stop-opacity:0;"
         offset="1"
         id="stop19894" />
    </linearGradient>
    <linearGradient
       inkscape:collect="always"
       id="linearGradient19874">
      <stop
         style="stop-color:#005571;stop-opacity:0.44845361"
         offset="0"
         id="stop19876" />
      <stop
         style="stop-color:#2e3436;stop-opacity:0;"
         offset="1"
         id="stop19878" />
    </linearGradient>
    <linearGradient
       inkscape:collect="always"
       id="linearGradient19864">
      <stop
         style="stop-color:#eeeeec;stop-opacity:1;"
         offset="0"
         id="stop19866" />
      <stop
         style="stop-color:#eeeeec;stop-opacity:0;"
         offset="1"
         id="stop19868" />
    </linearGradient>
    <linearGradient
       y2="4.5893998"
       x2="22.9016"
       y1="2.7578001"
       x1="23.315399"
       gradientUnits="userSpaceOnUse"
       id="XMLID_236_">
      <stop
         id="stop12128"
         style="stop-color:#BECBD4"
         offset="0" />
      <stop
         id="stop12130"
         style="stop-color:#B9C4CE"
         offset="0.2259" />
      <stop
         id="stop12132"
         style="stop-color:#A8B3BC"
         offset="0.4723" />
      <stop
         id="stop12134"
         style="stop-color:#8F98A1"
         offset="0.7284" />
      <stop
         id="stop12136"
         style="stop-color:#6E7782"
         offset="0.9897" />
      <stop
         id="stop12138"
         style="stop-color:#6C7680"
         offset="1" />
      <a:midPointStop
         style="stop-color:#BECBD4"
         offset="0" />
      <a:midPointStop
         style="stop-color:#BECBD4"
         offset="0.6893" />
      <a:midPointStop
         style="stop-color:#6C7680"
         offset="1" />
    </linearGradient>
    <linearGradient
       y2="15.3749"
       x2="34.705399"
       y1="8.0868998"
       x1="20.6362"
       gradientUnits="userSpaceOnUse"
       id="XMLID_202_">
      <stop
         id="stop11636"
         style="stop-color:#FFFFFF"
         offset="0" />
      <stop
         id="stop11638"
         style="stop-color:#FBFCFC"
         offset="0.2133" />
      <stop
         id="stop11640"
         style="stop-color:#ECEFF2"
         offset="0.446" />
      <stop
         id="stop11642"
         style="stop-color:#D7DDE4"
         offset="0.6879" />
      <stop
         id="stop11644"
         style="stop-color:#B6C3CF"
         offset="0.9346" />
      <stop
         id="stop11646"
         style="stop-color:#AEBCCA"
         offset="1" />
      <a:midPointStop
         style="stop-color:#FFFFFF"
         offset="0" />
      <a:midPointStop
         style="stop-color:#FFFFFF"
         offset="0.6893" />
      <a:midPointStop
         style="stop-color:#AEBCCA"
         offset="1" />
    </linearGradient>
    <linearGradient
       inkscape:collect="always"
       xlink:href="#XMLID_202_"
       id="linearGradient19829"
       gradientUnits="userSpaceOnUse"
       x1="20.6362"
       y1="8.0868998"
       x2="34.705399"
       y2="15.3749" />
    <linearGradient
       inkscape:collect="always"
       xlink:href="#XMLID_236_"
       id="linearGradient19831"
       gradientUnits="userSpaceOnUse"
       x1="23.315399"
       y1="2.7578001"
       x2="22.9016"
       y2="4.5893998" />
    <linearGradient
       inkscape:collect="always"
       xlink:href="#linearGradient19864"
       id="linearGradient19870"
       x1="10.031746"
       y1="13.375662"
       x2="9.1851854"
       y2="28.613756"
       gradientUnits="userSpaceOnUse" />
    <linearGradient
       inkscape:collect="always"
       xlink:href="#linearGradient19874"
       id="linearGradient19880"
       x1="22.222221"
       y1="37.968254"
       x2="16.719576"
       y2="26.497355"
       gradientUnits="userSpaceOnUse" />
    <linearGradient
       inkscape:collect="always"
       xlink:href="#linearGradient19864"
       id="linearGradient19884"
       gradientUnits="userSpaceOnUse"
       x1="-3.8518524"
       y1="10.962962"
       x2="8.5079355"
       y2="34.878307" />
    <linearGradient
       inkscape:collect="always"
       xlink:href="#linearGradient19890"
       id="linearGradient19896"
       x1="21.633615"
       y1="37.333336"
       x2="15.111743"
       y2="26.285715"
       gradientUnits="userSpaceOnUse" />
    <linearGradient
       inkscape:collect="always"
       xlink:href="#linearGradient19890"
       id="linearGradient19900"
       gradientUnits="userSpaceOnUse"
       x1="5.3373194"
       y1="31.703707"
       x2="7.3233833"
       y2="29.84127" />
  </defs>
  <sodipodi:namedview
     id="base"
     pagecolor="#ffffff"
     bordercolor="#666666"
     borderopacity="1.0"
     inkscape:pageopacity="0.0"
     inkscape:pageshadow="2"
     inkscape:zoom="23.625"
     inkscape:cx="17.269841"
     inkscape:cy="23.640212"
     inkscape:current-layer="layer1"
     showgrid="true"
     inkscape:grid-bbox="true"
     inkscape:document-units="px"
     inkscape:window-width="2560"
     inkscape:window-height="1496"
     inkscape:window-x="-8"
     inkscape:window-y="-8"
     inkscape:window-maximized="1" />
  <metadata
     id="metadata20348">
    <rdf:RDF>
      <cc:Work
         rdf:about="">
        <dc:format>image/svg+xml</dc:format>
        <dc:type
           rdf:resource="http://purl.org/dc/dcmitype/StillImage" />
        <dc:title></dc:title>
      </cc:Work>
    </rdf:RDF>
  </metadata>
  <g
     id="layer1"
     inkscape:label="Layer 1"
     inkscape:groupmode="layer">
    <g
       id="g19789"
       transform="matrix(1.2091077,0,0,1.2091077,-4.9820213,-4.9515566)"
       style="stroke:#f8a4a4;stroke-opacity:1">
      <polygon
         transform="matrix(1.009035,0,0,1.264027,-0.348813,8.475737)"
         i:knockout="Off"
         points="30.809,12.434 34.573,12.447 34.752,15.281 34.752,15.281 32.923,16.105 "
         id="polygon11603"
         style="fill:#babdb6;stroke:#f8a4a4;stroke-width:0.36616239000000000;stroke-linejoin:bevel;stroke-opacity:1" />
      <polygon
         transform="matrix(1.009035,0,0,1.264027,-0.348813,8.475737)"
         i:knockout="Off"
         points="29.849,16.541 32.923,16.105 30.809,12.434 30.809,12.434 26.939,14.352 "
         id="polygon11618"
         style="fill:#d3d7cf;stroke:#f8a4a4;stroke-width:0.36616239000000000;stroke-linejoin:bevel;stroke-opacity:1" />
      <polygon
         transform="matrix(1.009035,0,0,1.264027,-0.348813,8.475737)"
         i:knockout="Off"
         points="34.018,8.293 34.573,12.447 30.809,12.434 30.809,12.434 27.809,8.803 "
         id="polygon11633"
         style="fill:#d3d7cf;stroke:#f8a4a4;stroke-width:0.36616239000000000;stroke-linejoin:bevel;stroke-opacity:1" />
      <polygon
         transform="matrix(1.009035,0,0,1.264027,-0.348813,8.475737)"
         i:knockout="Off"
         points="26.939,14.352 30.809,12.434 27.809,8.803 27.809,8.803 21.472,11.183 "
         id="polygon11648"
         style="fill:url(#linearGradient19829);stroke:#f8a4a4;stroke-width:0.36616239000000000;stroke-linejoin:bevel;stroke-opacity:1" />
      <polygon
         transform="matrix(1.009035,0,0,1.264027,-0.348813,8.475737)"
         i:knockout="Off"
         points="24.429,5.895 27.809,8.803 34.018,8.293 34.018,8.293 30.329,5.082 "
         id="polygon11663"
         style="fill:#eeeeec;stroke:#f8a4a4;stroke-width:0.36616239000000000;stroke-linejoin:bevel;stroke-opacity:1" />
      <polygon
         transform="matrix(1.009035,0,0,1.264027,-0.348813,8.475737)"
         i:knockout="Off"
         points="30.329,5.082 35.404,5.436 38.314,8.125 38.314,8.125 34.018,8.293 "
         id="polygon11678"
         style="fill:#d3d7cf;stroke:#f8a4a4;stroke-width:0.36616239000000000;stroke-linejoin:bevel;stroke-opacity:1" />
      <polygon
         transform="matrix(1.009035,0,0,1.264027,-0.348813,8.475737)"
         i:knockout="Off"
         points="27.265,3.638 32.639,4.531 35.404,5.436 35.404,5.436 30.329,5.082 "
         id="polygon11693"
         style="fill:#d3d7cf;stroke:#f8a4a4;stroke-width:0.36616239000000000;stroke-linejoin:bevel;stroke-opacity:1" />
      <polygon
         transform="matrix(1.009035,0,0,1.264027,-0.348813,8.475737)"
         i:knockout="Off"
         points="35.404,5.436 38.672,6.58 39.976,8.27 39.976,8.27 38.314,8.125 "
         id="polygon11708"
         style="fill:#babdb6;stroke:#f8a4a4;stroke-width:0.36616239000000000;stroke-linejoin:bevel;stroke-opacity:1" />
      <polygon
         transform="matrix(1.009035,0,0,1.264027,-0.348813,8.475737)"
         i:knockout="Off"
         points="36.055,12.463 39.246,11.274 37.944,13.207 37.944,13.207 35.77,14.466 "
         id="polygon11723"
         style="fill:#555753;stroke:#f8a4a4;stroke-width:0.36616239000000000;stroke-linejoin:bevel;stroke-opacity:1" />
      <polygon
         transform="matrix(1.009035,0,0,1.264027,-0.348813,8.475737)"
         i:knockout="Off"
         points="39.246,11.274 41.564,10.244 39.961,11.331 39.961,11.331 37.944,13.207 "
         id="polygon11738"
         style="fill:#2e3436;stroke:#f8a4a4;stroke-width:0.36616239000000000;stroke-linejoin:bevel;stroke-opacity:1" />
      <polygon
         transform="matrix(1.009035,0,0,1.264027,-0.348813,8.475737)"
         i:knockout="Off"
         points="34.018,8.293 38.314,8.125 39.246,11.274 39.246,11.274 36.055,12.463 "
         id="polygon11751"
         style="fill:#888a85;stroke:#f8a4a4;stroke-width:0.36616239000000000;stroke-linejoin:bevel;stroke-opacity:1" />
      <polygon
         transform="matrix(1.009035,0,0,1.264027,-0.348813,8.475737)"
         i:knockout="Off"
         points="38.314,8.125 39.976,8.27 41.564,10.244 41.564,10.244 39.246,11.274 "
         id="polygon11766"
         style="fill:#555753;stroke:#f8a4a4;stroke-width:0.36616239000000000;stroke-linejoin:bevel;stroke-opacity:1" />
      <polygon
         transform="matrix(1.009035,0,0,1.264027,-0.348813,8.475737)"
         i:knockout="Off"
         points="34.018,8.293 36.055,12.463 35.712,14.866 35.712,14.866 34.573,12.447 "
         id="polygon11779"
         style="fill:#555753;stroke:#f8a4a4;stroke-width:0.36616239000000000;stroke-linejoin:bevel;stroke-opacity:1" />
      <polygon
         transform="matrix(1.009035,0,0,1.264027,-0.348813,8.475737)"
         i:knockout="Off"
         points="32.923,16.105 34.752,15.281 35.781,17.482 35.781,17.482 33.552,19.036 "
         id="polygon11792"
         style="fill:#888a85;stroke:#f8a4a4;stroke-width:0.36616239000000000;stroke-linejoin:bevel;stroke-opacity:1" />
      <polygon
         transform="matrix(1.009035,0,0,1.264027,-0.348813,8.475737)"
         i:knockout="Off"
         points="34.573,12.447 35.712,14.866 35.781,17.482 35.781,17.482 34.752,15.281 "
         id="polygon11805"
         style="fill:#555753;stroke:#f8a4a4;stroke-width:0.36616239000000000;stroke-linejoin:bevel;stroke-opacity:1" />
      <polygon
         transform="matrix(1.009035,0,0,1.264027,-0.348813,8.475737)"
         i:knockout="Off"
         points="29.849,16.541 32.923,16.105 33.552,19.036 33.552,19.036 29.816,19.096 "
         id="polygon11818"
         style="fill:#babdb6;stroke:#f8a4a4;stroke-width:0.36616239000000000;stroke-linejoin:bevel;stroke-opacity:1" />
      <polygon
         transform="matrix(1.009035,0,0,1.264027,-0.348813,8.475737)"
         i:knockout="Off"
         points="29.816,19.096 33.552,19.036 32.805,20.418 32.805,20.418 29.788,20.158 "
         id="polygon11833"
         style="fill:#888a85;stroke:#f8a4a4;stroke-width:0.36616239000000000;stroke-linejoin:bevel;stroke-opacity:1" />
      <polygon
         transform="matrix(1.009035,0,0,1.264027,-0.348813,8.475737)"
         i:knockout="Off"
         points="33.552,19.036 35.781,17.482 34.628,18.88 34.628,18.88 32.805,20.418 "
         id="polygon11848"
         style="fill:#555753;stroke:#f8a4a4;stroke-width:0.36616239000000000;stroke-linejoin:bevel;stroke-opacity:1" />
      <polygon
         transform="matrix(1.009035,0,0,1.264027,-0.348813,8.475737)"
         i:knockout="Off"
         points="21.472,11.183 26.939,14.352 25.622,17.487 25.622,17.487 21.012,16.209 "
         id="polygon11861"
         style="fill:#babdb6;stroke:#f8a4a4;stroke-width:0.36616239000000000;stroke-linejoin:bevel;stroke-opacity:1" />
      <polygon
         transform="matrix(1.009035,0,0,1.264027,-0.348813,8.475737)"
         i:knockout="Off"
         points="26.939,14.352 29.849,16.541 29.816,19.096 29.816,19.096 25.622,17.487 "
         id="polygon11874"
         style="fill:#d3d7cf;stroke:#f8a4a4;stroke-width:0.36616239000000000;stroke-linejoin:bevel;stroke-opacity:1" />
      <polygon
         transform="matrix(1.009035,0,0,1.264027,-0.348813,8.475737)"
         i:knockout="Off"
         points="21.012,16.209 25.622,17.487 26.887,19.915 26.887,19.915 21.601,18.781 "
         id="polygon11889"
         style="fill:#888a85;stroke:#f8a4a4;stroke-width:0.36616239000000000;stroke-linejoin:bevel;stroke-opacity:1" />
      <polygon
         transform="matrix(1.009035,0,0,1.264027,-0.348813,8.475737)"
         i:knockout="Off"
         points="25.622,17.487 29.816,19.096 29.788,20.158 29.788,20.158 26.887,19.915 "
         id="polygon11904"
         style="fill:#888a85;stroke:#f8a4a4;stroke-width:0.36616239000000000;stroke-linejoin:bevel;stroke-opacity:1" />
      <polygon
         transform="matrix(1.009035,0,0,1.264027,-0.348813,8.475737)"
         i:knockout="Off"
         points="21.603,4.083 27.265,3.638 30.329,5.082 30.329,5.082 24.429,5.895 "
         id="polygon11919"
         style="fill:#eeeeec;stroke:#f8a4a4;stroke-width:0.36616239000000000;stroke-linejoin:bevel;stroke-opacity:1" />
      <polygon
         transform="matrix(1.009035,0,0,1.264027,-0.348813,8.475737)"
         i:knockout="Off"
         points="15.243,6.115 21.603,4.083 24.429,5.895 24.429,5.895 18.083,7.715 "
         id="polygon11934"
         style="fill:#eeeeec;stroke:#f8a4a4;stroke-width:0.36616239000000000;stroke-linejoin:bevel;stroke-opacity:1" />
      <polygon
         transform="matrix(1.009035,0,0,1.264027,-0.348813,8.475737)"
         i:knockout="Off"
         points="18.083,7.715 24.429,5.895 27.809,8.803 27.809,8.803 21.472,11.183 "
         id="polygon11949"
         style="fill:#eeeeec;stroke:#f8a4a4;stroke-width:0.36616239000000000;stroke-linejoin:bevel;stroke-opacity:1" />
      <polygon
         transform="matrix(1.009035,0,0,1.264027,-0.348813,8.475737)"
         i:knockout="Off"
         points="12.416,10.511 18.083,7.715 21.472,11.183 21.472,11.183 14.915,13.633 "
         id="polygon11964"
         style="fill:#eeeeec;stroke:#f8a4a4;stroke-width:0.36616239000000000;stroke-linejoin:bevel;stroke-opacity:1" />
      <polygon
         transform="matrix(1.009035,0,0,1.264027,-0.348813,8.475737)"
         i:knockout="Off"
         points="10.167,9.271 15.243,6.115 18.083,7.715 18.083,7.715 12.416,10.511 "
         id="polygon11979"
         style="fill:#eeeeec;stroke:#f8a4a4;stroke-width:0.36616239000000000;stroke-linejoin:bevel;stroke-opacity:1" />
      <polygon
         transform="matrix(1.009035,0,0,1.264027,-0.348813,8.475737)"
         i:knockout="Off"
         points="7.861,11.793 10.167,9.271 12.416,10.511 12.416,10.511 8.418,13.45 "
         id="polygon11994"
         style="fill:#eeeeec;stroke:#f8a4a4;stroke-width:0.36616239000000000;stroke-linejoin:bevel;stroke-opacity:1" />
      <polygon
         transform="matrix(1.009035,0,0,1.264027,-0.348813,8.475737)"
         i:knockout="Off"
         points="8.418,13.45 12.416,10.511 14.915,13.633 14.915,13.633 11.212,15.108 "
         id="polygon12009"
         style="fill:#eeeeec;stroke:#f8a4a4;stroke-width:0.36616239000000000;stroke-linejoin:bevel;stroke-opacity:1" />
      <polygon
         transform="matrix(1.009035,0,0,1.264027,-0.348813,8.475737)"
         i:knockout="Off"
         points="14.915,13.633 21.472,11.183 21.012,16.209 21.012,16.209 15.8,17.096 "
         id="polygon12022"
         style="fill:#888a85;stroke:#f8a4a4;stroke-width:0.36616239000000000;stroke-linejoin:bevel;stroke-opacity:1" />
      <polygon
         transform="matrix(1.009035,0,0,1.264027,-0.348813,8.475737)"
         i:knockout="Off"
         points="15.8,17.096 21.012,16.209 21.601,18.781 21.601,18.781 15.05,18.97 "
         id="polygon12037"
         style="fill:#555753;stroke:#f8a4a4;stroke-width:0.36616239000000000;stroke-linejoin:bevel;stroke-opacity:1" />
      <polygon
         transform="matrix(1.009035,0,0,1.264027,-0.348813,8.475737)"
         i:knockout="Off"
         points="11.212,15.108 14.915,13.633 15.8,17.096 15.8,17.096 10.781,17.8 "
         id="polygon12050"
         style="fill:#babdb6;stroke:#f8a4a4;stroke-width:0.36616239000000000;stroke-linejoin:bevel;stroke-opacity:1" />
      <polygon
         transform="matrix(1.009035,0,0,1.264027,-0.348813,8.475737)"
         i:knockout="Off"
         points="10.781,17.8 15.8,17.096 15.05,18.97 15.05,18.97 11.348,18.446 "
         id="polygon12065"
         style="fill:#888a85;stroke:#f8a4a4;stroke-width:0.36616239000000000;stroke-linejoin:bevel;stroke-opacity:1" />
      <polygon
         transform="matrix(1.009035,0,0,1.264027,-0.348813,8.475737)"
         i:knockout="Off"
         points="8.418,13.45 11.212,15.108 10.781,17.8 10.781,17.8 7.09,15.858 "
         id="polygon12080"
         style="fill:#d3d7cf;stroke:#f8a4a4;stroke-width:0.36616239000000000;stroke-linejoin:bevel;stroke-opacity:1" />
      <polygon
         transform="matrix(1.009035,0,0,1.264027,-0.348813,8.475737)"
         i:knockout="Off"
         points="6.351,13.167 7.861,11.793 8.418,13.45 8.418,13.45 7.09,15.858 "
         id="polygon12095"
         style="fill:#eeeeec;stroke:#f8a4a4;stroke-width:0.36616239000000000;stroke-linejoin:bevel;stroke-opacity:1" />
      <polygon
         transform="matrix(1.009035,0,0,1.264027,-0.348813,8.475737)"
         i:knockout="Off"
         points="7.09,15.858 10.781,17.8 11.348,18.446 11.348,18.446 8.68,17.38 "
         id="polygon12110"
         style="fill:#babdb6;stroke:#f8a4a4;stroke-width:0.36616239000000000;stroke-linejoin:bevel;stroke-opacity:1" />
      <polygon
         transform="matrix(1.009035,0,0,1.264027,-0.348813,8.475737)"
         i:knockout="Off"
         points="19.74,3.833 20.456,3.686 21.603,4.083 15.243,6.115 15.243,6.115 16.039,5.524 "
         id="polygon12125"
         style="fill:#eeeeec;stroke:#f8a4a4;stroke-width:0.36616239000000000;stroke-linejoin:bevel;stroke-opacity:1" />
      <polygon
         transform="matrix(1.009035,0,0,1.264027,-0.348813,8.475737)"
         i:knockout="Off"
         points="21.603,4.083 20.456,3.686 20.456,3.686 25.737,3.758 "
         id="polygon12140"
         style="fill:url(#linearGradient19831);stroke:#f8a4a4;stroke-width:0.36616239000000000;stroke-linejoin:bevel;stroke-opacity:1" />
    </g>
    <path
       style="fill:#729fcf;stroke:#183866;stroke-width:0.50000000000000000;stroke-linecap:butt;stroke-linejoin:bevel;stroke-miterlimit:4;stroke-opacity:1;stroke-dasharray:none;fill-opacity:0.46907216000000002"
       d="m 1.1005291,21.037037 0.084656,7.449735 7.6613757,7.449736 0.084656,-7.195767 z"
       id="path19833"
       inkscape:connector-curvature="0"
       sodipodi:nodetypes="ccccc" />
    <path
       style="fill:#729fcf;stroke:#183866;stroke-width:0.50000000000000000;stroke-linecap:butt;stroke-linejoin:bevel;stroke-opacity:1;color:#000000;stroke-miterlimit:4;stroke-dasharray:none;stroke-dashoffset:0;marker:none;visibility:visible;display:inline;overflow:visible;enable-background:accumulate;fill-opacity:0.46907216000000002"
       d="M 1.1005291,21.079365 10.074074,13.248677 22.05291,24.380952 9.0582011,28.740741 z"
       id="path19835"
       inkscape:connector-curvature="0" />
    <path
       style="fill:#729fcf;stroke:#183866;stroke-width:0.50000000000000000;stroke-linecap:butt;stroke-linejoin:bevel;stroke-opacity:1;color:#000000;stroke-miterlimit:4;stroke-dasharray:none;stroke-dashoffset:0;marker:none;visibility:visible;display:inline;overflow:visible;enable-background:accumulate;fill-opacity:0.46907216000000002"
       d="M 22.05291,24.42328 22.010582,37.925926 8.7619048,35.89418 8.973545,28.740741 z"
       id="path19854"
       inkscape:connector-curvature="0" />
    <path
       inkscape:connector-curvature="0"
       id="path19862"
       d="M 1.1005291,21.079365 10.074074,13.248677 22.05291,24.380952 9.0582011,28.740741 z"
       style="fill:url(#linearGradient19870);stroke:none;stroke-width:0.50000000000000000;stroke-linecap:butt;stroke-linejoin:bevel;stroke-opacity:1;color:#000000;stroke-miterlimit:4;stroke-dasharray:none;stroke-dashoffset:0;marker:none;visibility:visible;display:inline;overflow:visible;enable-background:accumulate;fill-opacity:1" />
    <path
       inkscape:connector-curvature="0"
       id="path19872"
       d="M 22.05291,24.42328 22.010582,37.925926 8.7619048,35.89418 8.973545,28.740741 z"
       style="fill:url(#linearGradient19880);stroke:none;stroke-width:0.50000000000000000;stroke-linecap:butt;stroke-linejoin:bevel;stroke-opacity:1;color:#000000;stroke-miterlimit:4;stroke-dasharray:none;stroke-dashoffset:0;marker:none;visibility:visible;display:inline;overflow:visible;enable-background:accumulate;fill-opacity:1" />
    <path
       style="color:#000000;fill:url(#linearGradient19884);fill-opacity:1;stroke:none;stroke-width:0.50000000000000000;marker:none;visibility:visible;display:inline;overflow:visible;enable-background:accumulate"
       d="M 8.9735449,28.783068 8.7195767,35.809524 1.2275133,28.613757 0.973545,21.037037 z"
       id="path19882"
       inkscape:connector-curvature="0"
       sodipodi:nodetypes="ccccc" />
    <path
       style="color:#000000;fill:none;stroke:#eeeeec;stroke-width:0.5;stroke-linecap:butt;stroke-linejoin:bevel;stroke-miterlimit:4;stroke-opacity:1;stroke-dasharray:none;stroke-dashoffset:0;marker:none;visibility:visible;display:inline;overflow:visible;enable-background:accumulate"
       d="M 1.9057912,21.072804 10.189576,13.848974 21.247648,24.118527 9.2517894,28.140444 z"
       id="path19886"
       inkscape:connector-curvature="0" />
    <path
       style="color:#000000;fill:none;stroke:url(#linearGradient19896);stroke-width:0.50000000000000000;stroke-linecap:butt;stroke-linejoin:bevel;stroke-miterlimit:4;stroke-opacity:1;stroke-dasharray:none;stroke-dashoffset:0;marker:none;visibility:visible;display:inline;overflow:visible;enable-background:accumulate"
       d="m 21.629629,25.026916 0.0046,12.422359 -12.4066988,-1.854202 0.1040677,-6.506287 z"
       id="path19888"
       inkscape:connector-curvature="0"
       sodipodi:nodetypes="ccccc" />
    <path
       sodipodi:nodetypes="ccccc"
       inkscape:connector-curvature="0"
       id="path19898"
       d="M 8.5079359,28.878768 8.3432237,34.909592 1.4391704,28.356978 1.5432381,22.146987 z"
       style="color:#000000;fill:none;stroke:url(#linearGradient19900);stroke-width:0.50000000000000000;stroke-linecap:butt;stroke-linejoin:bevel;stroke-miterlimit:4;stroke-opacity:1;stroke-dasharray:none;stroke-dashoffset:0;marker:none;visibility:visible;display:inline;overflow:visible;enable-background:accumulate" />
  </g>
</svg>
