<?xml version="1.0" encoding="UTF-8" standalone="no"?>
<!-- Created with Inkscape (http://www.inkscape.org/) -->

<svg
   xmlns:dc="http://purl.org/dc/elements/1.1/"
   xmlns:cc="http://creativecommons.org/ns#"
   xmlns:rdf="http://www.w3.org/1999/02/22-rdf-syntax-ns#"
   xmlns:svg="http://www.w3.org/2000/svg"
   xmlns="http://www.w3.org/2000/svg"
   xmlns:xlink="http://www.w3.org/1999/xlink"
   xmlns:sodipodi="http://sodipodi.sourceforge.net/DTD/sodipodi-0.dtd"
   xmlns:inkscape="http://www.inkscape.org/namespaces/inkscape"
   width="48px"
   height="48px"
   id="svg4526"
   version="1.1"
   inkscape:version="0.48.4 r9939"
   sodipodi:docname="New document 9">
  <defs
     id="defs4528">
    <linearGradient
       id="linearGradient5137">
      <stop
         style="stop-color:#464f52;stop-opacity:1;"
         offset="0"
         id="stop5139" />
      <stop
         id="stop5147"
         offset="0.63531929"
         style="stop-color:#2a2f32;stop-opacity:1;" />
      <stop
         style="stop-color:#000000;stop-opacity:1;"
         offset="1"
         id="stop5141" />
    </linearGradient>
    <linearGradient
       id="linearGradient5087">
      <stop
         style="stop-color:#ffffff;stop-opacity:1;"
         offset="0"
         id="stop5089" />
      <stop
         id="stop5099"
         offset="0.5"
         style="stop-color:#ffffff;stop-opacity:1;" />
      <stop
         style="stop-color:#d8d8d8;stop-opacity:1;"
         offset="1"
         id="stop5091" />
    </linearGradient>
    <radialGradient
       inkscape:collect="always"
       xlink:href="#linearGradient5087"
       id="radialGradient5095"
       cx="23.92281"
       cy="25.962873"
       fx="23.92281"
       fy="25.962873"
       r="12.387096"
       gradientTransform="matrix(-1.8549264,-3.4062672e-4,3.4583198e-4,-1.8832702,68.288881,72.950962)"
       gradientUnits="userSpaceOnUse" />
    <radialGradient
       inkscape:collect="always"
       xlink:href="#linearGradient5087-6"
       id="radialGradient5095-4"
       cx="23.92281"
       cy="25.962873"
       fx="23.92281"
       fy="25.962873"
       r="12.387096"
       gradientTransform="matrix(-1.8549264,-3.4062672e-4,3.4583198e-4,-1.8832702,68.288881,72.950962)"
       gradientUnits="userSpaceOnUse" />
    <linearGradient
       id="linearGradient5087-6">
      <stop
         style="stop-color:#ffffff;stop-opacity:1;"
         offset="0"
         id="stop5089-0" />
      <stop
         id="stop5099-3"
         offset="0.5"
         style="stop-color:#ffffff;stop-opacity:1;" />
      <stop
         style="stop-color:#d8d8d8;stop-opacity:1;"
         offset="1"
         id="stop5091-6" />
    </linearGradient>
    <radialGradient
       r="12.387096"
       fy="25.962873"
       fx="23.92281"
       cy="25.962873"
       cx="23.92281"
       gradientTransform="matrix(-1.8549264,-3.4062672e-4,3.4583198e-4,-1.8832702,68.396023,59.665461)"
       gradientUnits="userSpaceOnUse"
       id="radialGradient5117"
       xlink:href="#linearGradient5087-6"
       inkscape:collect="always" />
    <radialGradient
       inkscape:collect="always"
       xlink:href="#linearGradient5137"
       id="radialGradient5143"
       cx="24.256441"
       cy="28.388927"
       fx="24.256441"
       fy="28.388927"
       r="17.1493"
       gradientTransform="matrix(-1.4116682,-0.02470516,0.02387625,-1.3643043,57.820668,62.967575)"
       gradientUnits="userSpaceOnUse" />
    <radialGradient
       inkscape:collect="always"
       xlink:href="#linearGradient5137-5"
       id="radialGradient5143-4"
       cx="24.256441"
       cy="28.388927"
       fx="24.256441"
       fy="28.388927"
       r="17.1493"
       gradientTransform="matrix(-1.4116682,-0.02470516,0.02387625,-1.3643043,57.820668,62.967575)"
       gradientUnits="userSpaceOnUse" />
    <linearGradient
       id="linearGradient5137-5">
      <stop
         style="stop-color:#464f52;stop-opacity:1;"
         offset="0"
         id="stop5139-8" />
      <stop
         id="stop5147-8"
         offset="0.63531929"
         style="stop-color:#2a2f32;stop-opacity:1;" />
      <stop
         style="stop-color:#000000;stop-opacity:1;"
         offset="1"
         id="stop5141-1" />
    </linearGradient>
    <radialGradient
       r="17.1493"
       fy="28.388927"
       fx="24.256441"
       cy="28.388927"
       cx="24.256441"
       gradientTransform="matrix(-1.4116682,-0.02470516,0.02387625,-1.3643043,57.927811,62.871954)"
       gradientUnits="userSpaceOnUse"
       id="radialGradient5165"
       xlink:href="#linearGradient5137-5"
       inkscape:collect="always" />
  </defs>
  <sodipodi:namedview
     id="base"
     pagecolor="#ffffff"
     bordercolor="#666666"
     borderopacity="1.0"
     inkscape:pageopacity="0.0"
     inkscape:pageshadow="2"
     inkscape:zoom="14"
     inkscape:cx="12.642857"
     inkscape:cy="22.785714"
     inkscape:current-layer="layer1"
     showgrid="true"
     inkscape:grid-bbox="true"
     inkscape:document-units="px"
     inkscape:window-width="2560"
     inkscape:window-height="1537"
     inkscape:window-x="-8"
     inkscape:window-y="-8"
     inkscape:window-maximized="1" />
  <metadata
     id="metadata4531">
    <rdf:RDF>
      <cc:Work
         rdf:about="">
        <dc:format>image/svg+xml</dc:format>
        <dc:type
           rdf:resource="http://purl.org/dc/dcmitype/StillImage" />
        <dc:title></dc:title>
      </cc:Work>
    </rdf:RDF>
  </metadata>
  <g
     id="layer1"
     inkscape:label="Layer 1"
     inkscape:groupmode="layer">
    <path
       id="path5056"
       style="fill:url(#radialGradient5143-4);stroke:#000000;stroke-width:1px;stroke-linecap:butt;stroke-linejoin:round;stroke-opacity:1;color:#000000;fill-opacity:1;fill-rule:nonzero;stroke-miterlimit:4;stroke-dasharray:none;stroke-dashoffset:0;marker:none;visibility:visible;display:inline;overflow:visible;enable-background:accumulate"
       d="m 22.220259,39.513154 c 0,0 -2.263599,3.396959 -4.314731,2.892374 -2.051132,-0.504585 -3.832763,-2.807121 -3.571428,-6.571428 0.261335,-3.764307 2.060356,-5.842538 4.142857,-6.142857 2.082501,-0.300319 4.018688,3.323528 4.018688,3.323528 0.279158,-3.13921 0.865496,-6.224075 1.414587,-9.336031 2.949872,0.530777 5.976868,1.100171 9.056153,1.374 0,0 -3.623847,1.936187 -3.323528,4.018688 0.300319,2.082501 2.37855,3.881522 6.142857,4.142857 3.764307,0.261335 6.066843,-1.520296 6.571428,-3.571428 0.504585,-2.051132 -2.892374,-4.314731 -2.892374,-4.314731 2.864438,-0.151309 5.555046,-0.713469 8.142377,-1.685269 l -0.107141,19.928575 c 0,2.216 -1.784027,3.98904 -4,4 L 24.16705,47.667051 C 22.933728,45.0682 22.371568,42.377592 22.220259,39.513154 z"
       inkscape:connector-curvature="0"
       sodipodi:nodetypes="cssscccsssccsscc" />
    <path
       id="path5077"
       style="fill:url(#radialGradient5095-4);stroke:#000000;stroke-width:1px;stroke-linecap:butt;stroke-linejoin:round;stroke-opacity:1;color:#000000;fill-opacity:1;fill-rule:nonzero;stroke-miterlimit:4;stroke-dasharray:none;stroke-dashoffset:0;marker:none;visibility:visible;display:inline;overflow:visible;enable-background:accumulate"
       d="m 39.321911,25.328126 c 0,0 3.396959,2.263599 2.892374,4.314731 C 41.7097,31.693989 39.407164,33.47562 35.642857,33.214285 31.87855,32.95295 29.800319,31.153929 29.5,29.071428 c -0.300319,-2.082501 3.323528,-4.018688 3.323528,-4.018688 -3.079285,-0.273829 -6.106281,-0.843223 -9.056153,-1.373999 0.622203,-2.871223 1.206164,-5.7719 1.54191,-8.669157 0,0 1.986998,3.759237 4.096243,3.467373 2.109245,-0.291864 4.167237,-1.807121 4.142857,-6.142857 C 33.524005,7.9983637 32.039755,6.2599717 29.976957,5.7626717 27.914159,5.2653707 25.641693,8.7275732 25.641693,8.7275732 25.540001,5.8464157 25.026524,3.0835627 23.91705,0.45276472 l 19.440097,0.118664 c 2.216,0 3.987551,1.78403498 4,3.99999998 l 0.10714,19.0714283 c -2.58733,0.9718 -5.277938,1.53396 -8.142376,1.685269 z"
       inkscape:connector-curvature="0"
       sodipodi:nodetypes="cssscccsssccsscc" />
    <path
       id="path5079"
       style="fill:url(#radialGradient5143);stroke:#000000;stroke-width:1px;stroke-linecap:butt;stroke-linejoin:round;stroke-opacity:1;fill-opacity:1"
       d="m 25.78455,8.8704304 c 0,0 2.272466,-3.4622027 4.335264,-2.9649019 2.062798,0.4973007 3.547048,2.2356923 3.571428,6.5714285 0.02438,4.335736 -2.033612,5.850993 -4.142857,6.142857 -2.109245,0.291864 -4.096243,-3.467373 -4.096243,-3.467373 -0.335746,2.897257 -0.919707,5.797934 -1.54191,8.669157 -3.035454,-0.639411 -5.994022,-1.240059 -8.949034,-1.582498 0,0 3.759237,-1.986998 3.467373,-4.096243 C 18.136707,16.033612 16.62145,13.97562 12.285714,14 c -4.3357363,0.02438 -6.0741273,1.50863 -6.5714283,3.571428 -0.497301,2.062798 2.964902,4.335264 2.964902,4.335264 -2.881158,0.101692 -5.644011,0.615169 -8.28633096,1.664737 l 0.107143,-18.8571433 c 0,-2.216 1.78404096,-3.98655644 3.99999996,-4.00000004 L 24.059907,0.59562136 C 25.169381,3.22642 25.682858,5.9892726 25.78455,8.8704304 z"
       inkscape:connector-curvature="0"
       sodipodi:nodetypes="cssscccsssccsscc" />
    <path
       id="path5081"
       style="fill:url(#radialGradient5095);stroke:#000000;stroke-width:1px;stroke-linecap:butt;stroke-linejoin:round;stroke-opacity:1;fill-opacity:1"
       d="m 8.6791876,21.692407 c 0,0 -3.462203,-2.272466 -2.964902,-4.335264 0.497301,-2.062798 2.235693,-3.547048 6.5714284,-3.571428 4.335736,-0.02438 5.850993,2.033612 6.142857,4.142857 0.291864,2.109245 -3.467373,4.096243 -3.467373,4.096243 2.955012,0.342439 5.91358,0.943087 8.949034,1.582498 -0.549091,3.111955 -1.135429,6.19682 -1.414587,9.33603 0,0 -1.936187,-3.623847 -4.018688,-3.323528 -2.082501,0.300319 -3.881522,2.37855 -4.142857,6.142857 -0.261335,3.764307 1.520296,6.066843 3.571428,6.571428 2.051132,0.504585 4.314731,-2.892374 4.314731,-2.892374 0.151309,2.864438 0.713469,5.555046 1.94679,8.153897 L 4.4999996,47.500003 c -2.216,0 -3.98821301,-1.784031 -4.00000001,-4 l -0.107142,-20.14286 C 3.0351776,22.307575 5.7980296,21.794098 8.6791876,21.692406 z"
       inkscape:connector-curvature="0"
       sodipodi:nodetypes="cssscccsssccsscc" />
  </g>
</svg>
