<?xml version="1.0" encoding="UTF-8" standalone="no"?>
<!-- Created with Inkscape (http://www.inkscape.org/) -->
<svg
   xmlns:a="http://ns.adobe.com/AdobeSVGViewerExtensions/3.0/"
   xmlns:i="http://ns.adobe.com/AdobeIllustrator/10.0/"
   xmlns:dc="http://purl.org/dc/elements/1.1/"
   xmlns:cc="http://web.resource.org/cc/"
   xmlns:rdf="http://www.w3.org/1999/02/22-rdf-syntax-ns#"
   xmlns:svg="http://www.w3.org/2000/svg"
   xmlns="http://www.w3.org/2000/svg"
   xmlns:sodipodi="http://sodipodi.sourceforge.net/DTD/sodipodi-0.dtd"
   xmlns:inkscape="http://www.inkscape.org/namespaces/inkscape"
   width="48px"
   height="48px"
   id="svg6768"
   sodipodi:version="0.32"
   inkscape:version="0.44.1"
   sodipodi:docbase="e:\dev_clean\src\houdini\support\icons\sop"
   sodipodi:docname="uvpelt.svg">
  <defs
     id="defs6770">
    <linearGradient
       gradientTransform="matrix(0.7071,0.7071,-0.7071,0.7071,666.3815,-1417.412)"
       y2="1676.9863"
       x2="745.07672"
       y1="1676.9033"
       x1="752.65973"
       gradientUnits="userSpaceOnUse"
       id="XMLID_112_">
					<stop
   id="stop4321"
   style="stop-color:#E86712"
   offset="0" />

					<stop
   id="stop4323"
   style="stop-color:#D52E0C"
   offset="0.6221" />

					<stop
   id="stop4325"
   style="stop-color:#CB1009"
   offset="1" />

					<a:midPointStop
   style="stop-color:#E86712"
   offset="0" />

					<a:midPointStop
   style="stop-color:#E86712"
   offset="0.4689" />

					<a:midPointStop
   style="stop-color:#CB1009"
   offset="1" />

				</linearGradient>
    <linearGradient
       gradientTransform="matrix(0.7071,-0.7071,0.7071,0.7071,613.2607,1321.969)"
       y2="-1130.5459"
       x2="273.73389"
       y1="-1130.6289"
       x1="281.31689"
       gradientUnits="userSpaceOnUse"
       id="XMLID_113_">
					<stop
   id="stop4334"
   style="stop-color:#E86712"
   offset="0" />

					<stop
   id="stop4336"
   style="stop-color:#D52E0C"
   offset="0.6221" />

					<stop
   id="stop4338"
   style="stop-color:#CB1009"
   offset="1" />

					<a:midPointStop
   style="stop-color:#E86712"
   offset="0" />

					<a:midPointStop
   style="stop-color:#E86712"
   offset="0.4689" />

					<a:midPointStop
   style="stop-color:#CB1009"
   offset="1" />

				</linearGradient>
    <linearGradient
       gradientTransform="matrix(-0.7071,-0.7071,0.7071,-0.7071,3352.644,1375.089)"
       y2="-1601.8896"
       x2="3081.2661"
       y1="-1601.9727"
       x1="3088.8491"
       gradientUnits="userSpaceOnUse"
       id="XMLID_114_">
					<stop
   id="stop4347"
   style="stop-color:#E86712"
   offset="0" />

					<stop
   id="stop4349"
   style="stop-color:#D52E0C"
   offset="0.6221" />

					<stop
   id="stop4351"
   style="stop-color:#CB1009"
   offset="1" />

					<a:midPointStop
   style="stop-color:#E86712"
   offset="0" />

					<a:midPointStop
   style="stop-color:#E86712"
   offset="0.4689" />

					<a:midPointStop
   style="stop-color:#CB1009"
   offset="1" />

				</linearGradient>
    <linearGradient
       gradientTransform="matrix(-0.7071,0.7071,-0.7071,-0.7071,3405.764,-1364.292)"
       y2="1205.6436"
       x2="3552.6099"
       y1="1205.5605"
       x1="3560.1929"
       gradientUnits="userSpaceOnUse"
       id="XMLID_115_">
					<stop
   id="stop4360"
   style="stop-color:#E86712"
   offset="0" />

					<stop
   id="stop4362"
   style="stop-color:#D52E0C"
   offset="0.6221" />

					<stop
   id="stop4364"
   style="stop-color:#CB1009"
   offset="1" />

					<a:midPointStop
   style="stop-color:#E86712"
   offset="0" />

					<a:midPointStop
   style="stop-color:#E86712"
   offset="0.4689" />

					<a:midPointStop
   style="stop-color:#CB1009"
   offset="1" />

				</linearGradient>
  </defs>
  <sodipodi:namedview
     id="base"
     pagecolor="#ffffff"
     bordercolor="#666666"
     borderopacity="1.0"
     inkscape:pageopacity="0.0"
     inkscape:pageshadow="2"
     inkscape:zoom="7"
     inkscape:cx="24"
     inkscape:cy="24"
     inkscape:current-layer="layer1"
     showgrid="true"
     inkscape:grid-bbox="true"
     inkscape:document-units="px"
     inkscape:window-width="1113"
     inkscape:window-height="882"
     inkscape:window-x="345"
     inkscape:window-y="36" />
  <metadata
     id="metadata6773">
    <rdf:RDF>
      <cc:Work
         rdf:about="">
        <dc:format>image/svg+xml</dc:format>
        <dc:type
           rdf:resource="http://purl.org/dc/dcmitype/StillImage" />
      </cc:Work>
    </rdf:RDF>
  </metadata>
  <g
     id="layer1"
     inkscape:label="Layer 1"
     inkscape:groupmode="layer">
    <path
       style="fill:none;stroke:white;stroke-width:0.80000001"
       id="path4314"
       d="M -0.048356857,24.143357 C -0.048356857,37.325357 10.676643,48.048357 23.857643,48.048357 C 37.038643,48.048357 47.762643,37.324357 47.762643,24.143357 C 47.762643,10.960357 37.038643,0.23735714 23.857643,0.23735714 C 10.676643,0.23735714 -0.048356857,10.960357 -0.048356857,24.143357 z "
       i:knockout="Off" />
    <path
       style="fill:none;stroke:white;stroke-width:0.80000001"
       id="path4316"
       d="M 1.5516431,24.143357 C 1.5516431,36.443357 11.558643,46.449357 23.858643,46.449357 C 36.157643,46.449357 46.164643,36.443357 46.164643,24.143357 C 46.164643,11.843357 36.157643,1.8363571 23.858643,1.8363571 C 11.557643,1.8363571 1.5516431,11.843357 1.5516431,24.143357 z "
       i:knockout="Off" />
    <g
       transform="translate(-0.448353,-287.9826)"
       id="g4318">
				
					<linearGradient
   gradientTransform="matrix(0.7071,0.7071,-0.7071,0.7071,666.3815,-1417.412)"
   y2="1676.9863"
   x2="745.07672"
   y1="1676.9033"
   x1="752.65973"
   gradientUnits="userSpaceOnUse"
   id="linearGradient6795">
					<stop
   id="stop6797"
   style="stop-color:#E86712"
   offset="0" />

					<stop
   id="stop6799"
   style="stop-color:#D52E0C"
   offset="0.6221" />

					<stop
   id="stop6801"
   style="stop-color:#CB1009"
   offset="1" />

					<a:midPointStop
   style="stop-color:#E86712"
   offset="0" />

					<a:midPointStop
   style="stop-color:#E86712"
   offset="0.4689" />

					<a:midPointStop
   style="stop-color:#CB1009"
   offset="1" />

				</linearGradient>

				<path
   style="fill:url(#XMLID_112_);stroke:#590b08;stroke-width:0.5"
   id="path4327"
   d="M 17.833,305.216 L 11.338,295.043 L 16.891,293.027 C 17.042,292.876 17.039,292.629 16.887,292.475 C 16.813,292.398 16.713,292.361 16.613,292.363 L 3.156,290.1 C 2.724,290.102 2.375,290.45 2.377,290.883 L 4.635,304.333 C 4.634,304.434 4.67,304.536 4.748,304.615 C 4.902,304.765 5.149,304.765 5.301,304.615 L 7.317,299.064 L 17.491,305.558 L 17.833,305.216 z "
   i:knockout="Off" />

				<path
   style="fill:none;stroke:#ed2728"
   id="path4329"
   d="M 14.951,292.844 C 12.713,292.469 5.009,291.172 3.437,290.907 C 3.278,290.881 3.178,290.961 3.208,291.139 C 3.469,292.713 4.76,300.499 5.124,302.699 C 5.133,302.748 5.181,302.746 5.198,302.697 C 5.797,301.051 6.929,297.927 6.929,297.927 C 6.929,297.927 13.451,302.09 15.977,303.702 C 14.365,301.177 10.201,294.657 10.201,294.657 C 10.201,294.657 13.297,293.534 14.95,292.932 C 15.007,292.912 15.01,292.855 14.951,292.844 z "
   i:knockout="Off" />

			</g>
    <g
       transform="translate(-0.448353,-287.9826)"
       id="g4331">
				
					<linearGradient
   gradientTransform="matrix(0.7071,-0.7071,0.7071,0.7071,613.2607,1321.969)"
   y2="-1130.5459"
   x2="273.73389"
   y1="-1130.6289"
   x1="281.31689"
   gradientUnits="userSpaceOnUse"
   id="linearGradient6806">
					<stop
   id="stop6808"
   style="stop-color:#E86712"
   offset="0" />

					<stop
   id="stop6810"
   style="stop-color:#D52E0C"
   offset="0.6221" />

					<stop
   id="stop6812"
   style="stop-color:#CB1009"
   offset="1" />

					<a:midPointStop
   style="stop-color:#E86712"
   offset="0" />

					<a:midPointStop
   style="stop-color:#E86712"
   offset="0.4689" />

					<a:midPointStop
   style="stop-color:#CB1009"
   offset="1" />

				</linearGradient>

				<path
   style="fill:url(#XMLID_113_);stroke:#590b08;stroke-width:0.5"
   id="path4340"
   d="M 17.396,318.599 L 7.224,325.094 L 5.207,319.541 C 5.056,319.39 4.809,319.393 4.655,319.545 C 4.579,319.619 4.541,319.719 4.544,319.819 L 2.28,333.275 C 2.283,333.707 2.631,334.056 3.063,334.054 L 16.513,331.796 C 16.614,331.797 16.716,331.761 16.795,331.683 C 16.945,331.529 16.945,331.282 16.795,331.13 L 11.244,329.114 L 17.739,318.94 L 17.396,318.599 z "
   i:knockout="Off" />

				<path
   style="fill:none;stroke:#ed2728"
   id="path4342"
   d="M 5.025,321.48 C 4.649,323.718 3.352,331.422 3.087,332.994 C 3.061,333.153 3.142,333.253 3.319,333.223 C 4.893,332.962 12.679,331.671 14.879,331.307 C 14.929,331.298 14.926,331.25 14.878,331.233 C 13.232,330.634 10.107,329.502 10.107,329.502 C 10.107,329.502 14.27,322.98 15.883,320.454 C 13.358,322.066 6.837,326.23 6.837,326.23 C 6.837,326.23 5.714,323.134 5.112,321.481 C 5.093,321.424 5.036,321.421 5.025,321.48 z "
   i:knockout="Off" />

			</g>
    <g
       transform="translate(-0.448353,-287.9826)"
       id="g4344">
				
					<linearGradient
   gradientTransform="matrix(-0.7071,-0.7071,0.7071,-0.7071,3352.644,1375.089)"
   y2="-1601.8896"
   x2="3081.2661"
   y1="-1601.9727"
   x1="3088.8491"
   gradientUnits="userSpaceOnUse"
   id="linearGradient6817">
					<stop
   id="stop6819"
   style="stop-color:#E86712"
   offset="0" />

					<stop
   id="stop6821"
   style="stop-color:#D52E0C"
   offset="0.6221" />

					<stop
   id="stop6823"
   style="stop-color:#CB1009"
   offset="1" />

					<a:midPointStop
   style="stop-color:#E86712"
   offset="0" />

					<a:midPointStop
   style="stop-color:#E86712"
   offset="0.4689" />

					<a:midPointStop
   style="stop-color:#CB1009"
   offset="1" />

				</linearGradient>

				<path
   style="fill:url(#XMLID_114_);stroke:#590b08;stroke-width:0.5"
   id="path4353"
   d="M 30.779,319.035 L 37.274,329.207 L 31.721,331.224 C 31.57,331.375 31.573,331.622 31.725,331.776 C 31.799,331.852 31.899,331.89 31.999,331.887 L 45.455,334.152 C 45.887,334.149 46.236,333.801 46.234,333.369 L 43.976,319.919 C 43.977,319.818 43.941,319.716 43.863,319.637 C 43.709,319.487 43.462,319.487 43.31,319.637 L 41.294,325.188 L 31.12,318.693 L 30.779,319.035 z "
   i:knockout="Off" />

				<path
   style="fill:none;stroke:#ed2728"
   id="path4355"
   d="M 33.661,331.406 C 35.899,331.782 43.603,333.079 45.175,333.344 C 45.334,333.37 45.434,333.289 45.404,333.112 C 45.143,331.538 43.852,323.752 43.488,321.552 C 43.479,321.502 43.431,321.505 43.414,321.553 C 42.815,323.199 41.683,326.324 41.683,326.324 C 41.683,326.324 35.161,322.161 32.635,320.548 C 34.247,323.073 38.411,329.594 38.411,329.594 C 38.411,329.594 35.315,330.717 33.662,331.319 C 33.604,331.338 33.601,331.396 33.661,331.406 z "
   i:knockout="Off" />

			</g>
    <g
       transform="translate(-0.448353,-287.9826)"
       id="g4357">
				
					<linearGradient
   gradientTransform="matrix(-0.7071,0.7071,-0.7071,-0.7071,3405.764,-1364.292)"
   y2="1205.6436"
   x2="3552.6099"
   y1="1205.5605"
   x1="3560.1929"
   gradientUnits="userSpaceOnUse"
   id="linearGradient6828">
					<stop
   id="stop6830"
   style="stop-color:#E86712"
   offset="0" />

					<stop
   id="stop6832"
   style="stop-color:#D52E0C"
   offset="0.6221" />

					<stop
   id="stop6834"
   style="stop-color:#CB1009"
   offset="1" />

					<a:midPointStop
   style="stop-color:#E86712"
   offset="0" />

					<a:midPointStop
   style="stop-color:#E86712"
   offset="0.4689" />

					<a:midPointStop
   style="stop-color:#CB1009"
   offset="1" />

				</linearGradient>

				<path
   style="fill:url(#XMLID_115_);stroke:#590b08;stroke-width:0.5"
   id="path4366"
   d="M 31.215,305.652 L 41.387,299.157 L 43.404,304.71 C 43.555,304.861 43.802,304.858 43.956,304.706 C 44.032,304.632 44.07,304.532 44.067,304.432 L 46.332,290.976 C 46.329,290.544 45.981,290.195 45.549,290.197 L 32.099,292.455 C 31.998,292.454 31.896,292.49 31.817,292.568 C 31.667,292.722 31.667,292.969 31.817,293.121 L 37.368,295.137 L 30.873,305.311 L 31.215,305.652 z "
   i:knockout="Off" />

				<path
   style="fill:none;stroke:#ed2728"
   id="path4368"
   d="M 43.586,302.771 C 43.962,300.533 45.259,292.829 45.524,291.257 C 45.55,291.098 45.469,290.998 45.292,291.028 C 43.718,291.289 35.932,292.58 33.732,292.944 C 33.682,292.953 33.685,293.001 33.733,293.018 C 35.379,293.617 38.504,294.749 38.504,294.749 C 38.504,294.749 34.341,301.271 32.728,303.797 C 35.253,302.185 41.774,298.021 41.774,298.021 C 41.774,298.021 42.897,301.117 43.499,302.77 C 43.518,302.827 43.576,302.83 43.586,302.771 z "
   i:knockout="Off" />

			</g>
    <g
       transform="translate(-0.448353,-287.9826)"
       id="g4370">
				<path
   id="path4372"
   d="M 11.685,318.002 C 10.587,323.289 8.54,327.892 8.54,327.892 C 11.151,327.121 14.258,325.538 18.448,324.67 C 19.012,322.483 19.697,319.44 20.076,316.356 C 16.957,316.738 13.876,317.436 11.685,318.002 z "
   i:knockout="Off" />

				<path
   id="path4374"
   d="M 30.285,324.694 C 34.414,325.566 37.484,327.127 40.072,327.89 C 40.072,327.89 38.025,323.286 36.927,318.001 C 34.763,317.44 31.732,316.756 28.653,316.37 C 29.034,319.46 29.72,322.51 30.285,324.694 z "
   i:knockout="Off" />

				<path
   id="path4376"
   d="M 36.955,306.126 C 38.059,300.893 40.072,296.361 40.072,296.361 C 37.599,297.091 34.517,298.547 30.662,299.436 C 30,301.599 29.184,304.65 28.724,307.755 C 31.792,307.366 34.804,306.684 36.955,306.126 z "
   i:knockout="Off" />

				<path
   id="path4378"
   d="M 18.44,299.547 C 14.353,298.672 11.117,297.121 8.542,296.359 C 8.542,296.359 10.556,300.892 11.659,306.127 C 13.849,306.695 16.933,307.394 20.061,307.778 C 19.677,304.72 18.999,301.709 18.44,299.547 z "
   i:knockout="Off" />

				<path
   style="fill:white"
   id="path4380"
   d="M 36.955,306.126 C 34.805,306.684 31.793,307.366 28.725,307.756 C 28.506,309.232 28.365,310.717 28.365,312.126 C 28.365,313.494 28.477,314.937 28.654,316.371 C 31.733,316.757 34.764,317.441 36.928,318.002 C 36.528,316.07 36.249,314.05 36.249,312.126 C 36.249,310.16 36.539,308.096 36.955,306.126 z "
   i:knockout="Off" />

				<path
   style="fill:white"
   id="path4382"
   d="M 20.364,312.126 C 20.364,310.725 20.246,309.246 20.061,307.778 C 16.933,307.393 13.849,306.695 11.659,306.127 C 12.074,308.096 12.364,310.161 12.364,312.126 C 12.364,314.051 12.086,316.07 11.685,318.002 C 13.876,317.436 16.956,316.738 20.077,316.356 C 20.251,314.926 20.364,313.489 20.364,312.126 z "
   i:knockout="Off" />

				<path
   style="fill:white"
   id="path4384"
   d="M 24.306,316.068 C 22.943,316.068 21.505,316.179 20.077,316.355 C 19.698,319.439 19.014,322.483 18.449,324.669 C 20.199,324.308 22.134,324.067 24.306,324.067 C 26.529,324.067 28.503,324.317 30.285,324.693 C 29.721,322.508 29.034,319.459 28.653,316.37 C 27.185,316.187 25.707,316.068 24.306,316.068 z "
   i:knockout="Off" />

				<path
   style="fill:white"
   id="path4386"
   d="M 24.306,308.068 C 25.73,308.068 27.233,307.945 28.724,307.755 C 29.184,304.65 29.999,301.599 30.662,299.436 C 28.742,299.878 26.634,300.183 24.307,300.183 C 22.177,300.183 20.229,299.929 18.441,299.546 C 19,301.708 19.678,304.719 20.062,307.777 C 21.496,307.955 22.937,308.068 24.306,308.068 z "
   i:knockout="Off" />

				<path
   id="path4388"
   d="M 20.061,307.778 C 20.246,309.246 20.364,310.724 20.364,312.126 C 20.364,313.489 20.252,314.926 20.077,316.355 C 21.506,316.179 22.943,316.068 24.306,316.068 C 25.706,316.068 27.185,316.186 28.653,316.371 C 28.476,314.936 28.364,313.494 28.364,312.126 C 28.364,310.717 28.506,309.231 28.724,307.756 C 27.233,307.945 25.73,308.069 24.306,308.069 C 22.937,308.068 21.496,307.955 20.061,307.778 z "
   i:knockout="Off" />

			</g>
    <circle
       transform="translate(-0.448353,-287.9826)"
       style="fill:none;stroke:black;stroke-opacity:1"
       sodipodi:ry="23.106001"
       sodipodi:rx="23.106001"
       sodipodi:cy="312.12601"
       sodipodi:cx="24.306"
       id="circle4390"
       r="23.106001"
       cy="312.12601"
       cx="24.306"
       a:adobe-blending-mode="hardLight"
       i:knockout="Off" />
    <path
       style="fill:none;stroke:red;stroke-width:1.5;stroke-miterlimit:4;stroke-dasharray:none"
       id="path4392"
       d="M 39.623643,8.3783571 C 35.920643,9.4723571 30.857643,12.200357 23.857643,12.200357 C 16.857643,12.200357 11.794643,9.4713571 8.0926431,8.3763571 C 8.0926431,8.3763571 11.914643,16.954357 11.914643,24.143357 C 11.914643,31.332357 8.0916431,39.909357 8.0916431,39.909357 C 11.792643,38.815357 16.480643,36.086357 23.857643,36.086357 C 31.234643,36.086357 35.920643,38.815357 39.623643,39.908357 C 39.623643,39.908357 35.800643,31.332357 35.800643,24.143357 C 35.800643,16.954357 39.623643,8.3783571 39.623643,8.3783571 z "
       i:knockout="Off" />
  </g>
</svg>
