<?xml version="1.0" encoding="UTF-8" standalone="no"?>
<!-- Created with Inkscape (http://www.inkscape.org/) -->

<svg
   xmlns:i="http://ns.adobe.com/AdobeIllustrator/10.0/"
   xmlns:a="http://ns.adobe.com/AdobeSVGViewerExtensions/3.0/"
   xmlns:dc="http://purl.org/dc/elements/1.1/"
   xmlns:cc="http://creativecommons.org/ns#"
   xmlns:rdf="http://www.w3.org/1999/02/22-rdf-syntax-ns#"
   xmlns:svg="http://www.w3.org/2000/svg"
   xmlns="http://www.w3.org/2000/svg"
   xmlns:xlink="http://www.w3.org/1999/xlink"
   xmlns:sodipodi="http://sodipodi.sourceforge.net/DTD/sodipodi-0.dtd"
   xmlns:inkscape="http://www.inkscape.org/namespaces/inkscape"
   width="48px"
   height="48px"
   id="svg20343"
   sodipodi:version="0.32"
   inkscape:version="0.48.4 r9939"
   sodipodi:docname="topobuild.svg"
   version="1.1">
  <defs
     id="defs20345">
    <linearGradient
       id="linearGradient20023">
      <stop
         id="stop20041"
         offset="0"
         style="stop-color:#fbcf67;stop-opacity:1;" />
      <stop
         id="stop20035"
         offset="0.2536855"
         style="stop-color:#ebf768;stop-opacity:1;" />
      <stop
         id="stop20033"
         offset="0.36548698"
         style="stop-color:#b2f06a;stop-opacity:1;" />
      <stop
         id="stop20031"
         offset="0.5"
         style="stop-color:#6de1bf;stop-opacity:1;" />
      <stop
         style="stop-color:#70b2df;stop-opacity:1;"
         offset="0.63451302"
         id="stop20037" />
      <stop
         id="stop20039"
         offset="0.75892025"
         style="stop-color:#9076ef;stop-opacity:1;" />
      <stop
         style="stop-color:#e575f7;stop-opacity:1;"
         offset="0.86490816"
         id="stop20043" />
      <stop
         style="stop-color:#ff74bf;stop-opacity:1;"
         offset="1"
         id="stop20027" />
    </linearGradient>
    <linearGradient
       y2="4.5893998"
       x2="22.9016"
       y1="2.7578001"
       x1="23.315399"
       gradientUnits="userSpaceOnUse"
       id="XMLID_236_">
      <stop
         id="stop12128"
         style="stop-color:#BECBD4"
         offset="0" />
      <stop
         id="stop12130"
         style="stop-color:#B9C4CE"
         offset="0.2259" />
      <stop
         id="stop12132"
         style="stop-color:#A8B3BC"
         offset="0.4723" />
      <stop
         id="stop12134"
         style="stop-color:#8F98A1"
         offset="0.7284" />
      <stop
         id="stop12136"
         style="stop-color:#6E7782"
         offset="0.9897" />
      <stop
         id="stop12138"
         style="stop-color:#6C7680"
         offset="1" />
      <a:midPointStop
         style="stop-color:#BECBD4"
         offset="0" />
      <a:midPointStop
         style="stop-color:#BECBD4"
         offset="0.6893" />
      <a:midPointStop
         style="stop-color:#6C7680"
         offset="1" />
    </linearGradient>
    <linearGradient
       y2="15.3749"
       x2="34.705399"
       y1="8.0868998"
       x1="20.6362"
       gradientUnits="userSpaceOnUse"
       id="XMLID_202_">
      <stop
         id="stop11636"
         style="stop-color:#FFFFFF"
         offset="0" />
      <stop
         id="stop11638"
         style="stop-color:#FBFCFC"
         offset="0.2133" />
      <stop
         id="stop11640"
         style="stop-color:#ECEFF2"
         offset="0.446" />
      <stop
         id="stop11642"
         style="stop-color:#D7DDE4"
         offset="0.6879" />
      <stop
         id="stop11644"
         style="stop-color:#B6C3CF"
         offset="0.9346" />
      <stop
         id="stop11646"
         style="stop-color:#AEBCCA"
         offset="1" />
      <a:midPointStop
         style="stop-color:#FFFFFF"
         offset="0" />
      <a:midPointStop
         style="stop-color:#FFFFFF"
         offset="0.6893" />
      <a:midPointStop
         style="stop-color:#AEBCCA"
         offset="1" />
    </linearGradient>
    <radialGradient
       inkscape:collect="always"
       xlink:href="#linearGradient20023"
       id="radialGradient20029"
       cx="23.690676"
       cy="16.916508"
       fx="23.690676"
       fy="16.916508"
       r="21.484375"
       gradientTransform="matrix(1.2855842,-0.17605309,0.09344259,0.68421914,-9.0393078,12.649311)"
       gradientUnits="userSpaceOnUse" />
  </defs>
  <sodipodi:namedview
     id="base"
     pagecolor="#ffffff"
     bordercolor="#666666"
     borderopacity="1.0"
     inkscape:pageopacity="0.0"
     inkscape:pageshadow="2"
     inkscape:zoom="23.625"
     inkscape:cx="17.269841"
     inkscape:cy="23.640212"
     inkscape:current-layer="layer1"
     showgrid="true"
     inkscape:grid-bbox="true"
     inkscape:document-units="px"
     inkscape:window-width="2560"
     inkscape:window-height="1496"
     inkscape:window-x="-8"
     inkscape:window-y="-8"
     inkscape:window-maximized="1" />
  <metadata
     id="metadata20348">
    <rdf:RDF>
      <cc:Work
         rdf:about="">
        <dc:format>image/svg+xml</dc:format>
        <dc:type
           rdf:resource="http://purl.org/dc/dcmitype/StillImage" />
        <dc:title></dc:title>
      </cc:Work>
    </rdf:RDF>
  </metadata>
  <g
     id="layer1"
     inkscape:label="Layer 1"
     inkscape:groupmode="layer">
    <path
       inkscape:connector-curvature="0"
       id="path20047"
       d="m 28.413367,9.5367271 -2.039786,0.2042591 -7.003263,-0.1361727 -0.951899,0.2383025 -4.895485,2.825583 -1.087886,0.987252 -6.7312911,5.242648 -3.059678,4.221353 -2.00578887,2.280892 0.98589627,4.493698 2.1077781,2.519195 3.535628,1.770245 4.9294806,0.885122 8.703084,-0.306389 7.003264,1.872375 3.841595,0.408517 4.011578,0.442562 2.413745,-2.587282 1.52984,-2.314935 -0.06799,-4.357525 0.06799,-0.64682 2.889696,-2.110677 2.65172,-3.131971 2.141776,-1.804288 -2.107779,-3.268144 -1.733817,-2.825583 -4.317546,-1.906418 -3.671614,-1.497899 -7.139248,-1.4978999 z"
       style="fill:none;stroke:#2e3436;stroke-width:1" />
    <path
       style="fill:url(#radialGradient20029);fill-opacity:1;stroke:none"
       d="m 28.413367,9.5367265 -2.039786,0.2042591 -7.003262,-0.1361727 -0.951901,0.2383018 -4.895484,2.8255833 -1.087885,0.987251 -6.731292,5.242648 -3.059678,4.221354 -2.00578895,2.280891 0.98589625,4.493699 2.1077781,2.519194 3.535628,1.770245 4.9294806,0.885121 8.703084,-0.306387 7.003263,1.872373 3.841596,0.408519 4.011578,0.44256 2.413745,-2.58728 1.52984,-2.314935 -0.06799,-4.357526 0.06799,-0.64682 2.889696,-2.110677 2.651721,-3.13197 2.141775,-1.804289 -2.107779,-3.268144 -1.733818,-2.825583 -4.317545,-1.906417 -3.671614,-1.497899 -7.139248,-1.4978995 z"
       id="polygon19904"
       inkscape:connector-curvature="0" />
    <g
       id="g19789"
       transform="matrix(1.3153708,0,0,1.3171793,-7.3689046,-7.5934732)"
       style="fill:none;stroke:#000000;stroke-width:0.91858304;stroke-opacity:0.22680413">
      <polygon
         transform="matrix(1.009035,0,0,1.264027,-0.348813,8.475737)"
         i:knockout="Off"
         points="34.573,12.447 34.752,15.281 34.752,15.281 32.923,16.105 30.809,12.434 "
         id="polygon11603"
         style="fill:none;stroke:#000000;stroke-width:0.33635059;stroke-linejoin:bevel;stroke-opacity:0.22680413" />
      <polygon
         transform="matrix(1.009035,0,0,1.264027,-0.348813,8.475737)"
         i:knockout="Off"
         points="32.923,16.105 30.809,12.434 30.809,12.434 26.939,14.352 29.849,16.541 "
         id="polygon11618"
         style="fill:none;stroke:#000000;stroke-width:0.33635059;stroke-linejoin:bevel;stroke-opacity:0.22680413" />
      <polygon
         transform="matrix(1.009035,0,0,1.264027,-0.348813,8.475737)"
         i:knockout="Off"
         points="34.573,12.447 30.809,12.434 30.809,12.434 27.809,8.803 34.018,8.293 "
         id="polygon11633"
         style="fill:none;stroke:#000000;stroke-width:0.33635059;stroke-linejoin:bevel;stroke-opacity:0.22680413" />
      <polygon
         transform="matrix(1.009035,0,0,1.264027,-0.348813,8.475737)"
         i:knockout="Off"
         points="30.809,12.434 27.809,8.803 27.809,8.803 21.472,11.183 26.939,14.352 "
         id="polygon11648"
         style="fill:none;stroke:#000000;stroke-width:0.33635059;stroke-linejoin:bevel;stroke-opacity:0.22680413" />
      <polygon
         transform="matrix(1.009035,0,0,1.264027,-0.348813,8.475737)"
         i:knockout="Off"
         points="27.809,8.803 34.018,8.293 34.018,8.293 30.329,5.082 24.429,5.895 "
         id="polygon11663"
         style="fill:none;stroke:#000000;stroke-width:0.33635059;stroke-linejoin:bevel;stroke-opacity:0.22680413" />
      <polygon
         transform="matrix(1.009035,0,0,1.264027,-0.348813,8.475737)"
         i:knockout="Off"
         points="35.404,5.436 38.314,8.125 38.314,8.125 34.018,8.293 30.329,5.082 "
         id="polygon11678"
         style="fill:none;stroke:#000000;stroke-width:0.33635059;stroke-linejoin:bevel;stroke-opacity:0.22680413" />
      <polygon
         transform="matrix(1.009035,0,0,1.264027,-0.348813,8.475737)"
         i:knockout="Off"
         points="32.639,4.531 35.404,5.436 35.404,5.436 30.329,5.082 27.265,3.638 "
         id="polygon11693"
         style="fill:none;stroke:#000000;stroke-width:0.33635059;stroke-linejoin:bevel;stroke-opacity:0.22680413" />
      <polygon
         transform="matrix(1.009035,0,0,1.264027,-0.348813,8.475737)"
         i:knockout="Off"
         points="38.672,6.58 39.976,8.27 39.976,8.27 38.314,8.125 35.404,5.436 "
         id="polygon11708"
         style="fill:none;stroke:#000000;stroke-width:0.33635059;stroke-linejoin:bevel;stroke-opacity:0.22680413" />
      <polygon
         transform="matrix(1.009035,0,0,1.264027,-0.348813,8.475737)"
         i:knockout="Off"
         points="39.246,11.274 37.944,13.207 37.944,13.207 35.77,14.466 36.055,12.463 "
         id="polygon11723"
         style="fill:none;stroke:#000000;stroke-width:0.33635059;stroke-linejoin:bevel;stroke-opacity:0.22680413" />
      <polygon
         transform="matrix(1.009035,0,0,1.264027,-0.348813,8.475737)"
         i:knockout="Off"
         points="41.564,10.244 39.961,11.331 39.961,11.331 37.944,13.207 39.246,11.274 "
         id="polygon11738"
         style="fill:none;stroke:#000000;stroke-width:0.33635059;stroke-linejoin:bevel;stroke-opacity:0.22680413" />
      <polygon
         transform="matrix(1.009035,0,0,1.264027,-0.348813,8.475737)"
         i:knockout="Off"
         points="38.314,8.125 39.246,11.274 39.246,11.274 36.055,12.463 34.018,8.293 "
         id="polygon11751"
         style="fill:none;stroke:#000000;stroke-width:0.33635059;stroke-linejoin:bevel;stroke-opacity:0.22680413" />
      <polygon
         transform="matrix(1.009035,0,0,1.264027,-0.348813,8.475737)"
         i:knockout="Off"
         points="39.976,8.27 41.564,10.244 41.564,10.244 39.246,11.274 38.314,8.125 "
         id="polygon11766"
         style="fill:none;stroke:#000000;stroke-width:0.33635059;stroke-linejoin:bevel;stroke-opacity:0.22680413" />
      <polygon
         transform="matrix(1.009035,0,0,1.264027,-0.348813,8.475737)"
         i:knockout="Off"
         points="36.055,12.463 35.712,14.866 35.712,14.866 34.573,12.447 34.018,8.293 "
         id="polygon11779"
         style="fill:none;stroke:#000000;stroke-width:0.33635059;stroke-linejoin:bevel;stroke-opacity:0.22680413" />
      <polygon
         transform="matrix(1.009035,0,0,1.264027,-0.348813,8.475737)"
         i:knockout="Off"
         points="34.752,15.281 35.781,17.482 35.781,17.482 33.552,19.036 32.923,16.105 "
         id="polygon11792"
         style="fill:none;stroke:#000000;stroke-width:0.33635059;stroke-linejoin:bevel;stroke-opacity:0.22680413" />
      <polygon
         transform="matrix(1.009035,0,0,1.264027,-0.348813,8.475737)"
         i:knockout="Off"
         points="35.712,14.866 35.781,17.482 35.781,17.482 34.752,15.281 34.573,12.447 "
         id="polygon11805"
         style="fill:none;stroke:#000000;stroke-width:0.33635059;stroke-linejoin:bevel;stroke-opacity:0.22680413" />
      <polygon
         transform="matrix(1.009035,0,0,1.264027,-0.348813,8.475737)"
         i:knockout="Off"
         points="32.923,16.105 33.552,19.036 33.552,19.036 29.816,19.096 29.849,16.541 "
         id="polygon11818"
         style="fill:none;stroke:#000000;stroke-width:0.33635059;stroke-linejoin:bevel;stroke-opacity:0.22680413" />
      <polygon
         transform="matrix(1.009035,0,0,1.264027,-0.348813,8.475737)"
         i:knockout="Off"
         points="33.552,19.036 32.805,20.418 32.805,20.418 29.788,20.158 29.816,19.096 "
         id="polygon11833"
         style="fill:none;stroke:#000000;stroke-width:0.33635059;stroke-linejoin:bevel;stroke-opacity:0.22680413" />
      <polygon
         transform="matrix(1.009035,0,0,1.264027,-0.348813,8.475737)"
         i:knockout="Off"
         points="35.781,17.482 34.628,18.88 34.628,18.88 32.805,20.418 33.552,19.036 "
         id="polygon11848"
         style="fill:none;stroke:#000000;stroke-width:0.33635059;stroke-linejoin:bevel;stroke-opacity:0.22680413" />
      <polygon
         transform="matrix(1.009035,0,0,1.264027,-0.348813,8.475737)"
         i:knockout="Off"
         points="26.939,14.352 25.622,17.487 25.622,17.487 21.012,16.209 21.472,11.183 "
         id="polygon11861"
         style="fill:none;stroke:#000000;stroke-width:0.33635059;stroke-linejoin:bevel;stroke-opacity:0.22680413" />
      <polygon
         transform="matrix(1.009035,0,0,1.264027,-0.348813,8.475737)"
         i:knockout="Off"
         points="29.849,16.541 29.816,19.096 29.816,19.096 25.622,17.487 26.939,14.352 "
         id="polygon11874"
         style="fill:none;stroke:#000000;stroke-width:0.33635059;stroke-linejoin:bevel;stroke-opacity:0.22680413" />
      <polygon
         transform="matrix(1.009035,0,0,1.264027,-0.348813,8.475737)"
         i:knockout="Off"
         points="25.622,17.487 26.887,19.915 26.887,19.915 21.601,18.781 21.012,16.209 "
         id="polygon11889"
         style="fill:none;stroke:#000000;stroke-width:0.33635059;stroke-linejoin:bevel;stroke-opacity:0.22680413" />
      <polygon
         transform="matrix(1.009035,0,0,1.264027,-0.348813,8.475737)"
         i:knockout="Off"
         points="29.816,19.096 29.788,20.158 29.788,20.158 26.887,19.915 25.622,17.487 "
         id="polygon11904"
         style="fill:none;stroke:#000000;stroke-width:0.33635059;stroke-linejoin:bevel;stroke-opacity:0.22680413" />
      <polygon
         transform="matrix(1.009035,0,0,1.264027,-0.348813,8.475737)"
         i:knockout="Off"
         points="27.265,3.638 30.329,5.082 30.329,5.082 24.429,5.895 21.603,4.083 "
         id="polygon11919"
         style="fill:none;stroke:#000000;stroke-width:0.33635059;stroke-linejoin:bevel;stroke-opacity:0.22680413" />
      <polygon
         transform="matrix(1.009035,0,0,1.264027,-0.348813,8.475737)"
         i:knockout="Off"
         points="21.603,4.083 24.429,5.895 24.429,5.895 18.083,7.715 15.243,6.115 "
         id="polygon11934"
         style="fill:none;stroke:#000000;stroke-width:0.33635059;stroke-linejoin:bevel;stroke-opacity:0.22680413" />
      <polygon
         transform="matrix(1.009035,0,0,1.264027,-0.348813,8.475737)"
         i:knockout="Off"
         points="24.429,5.895 27.809,8.803 27.809,8.803 21.472,11.183 18.083,7.715 "
         id="polygon11949"
         style="fill:none;stroke:#000000;stroke-width:0.33635059;stroke-linejoin:bevel;stroke-opacity:0.22680413" />
      <polygon
         transform="matrix(1.009035,0,0,1.264027,-0.348813,8.475737)"
         i:knockout="Off"
         points="18.083,7.715 21.472,11.183 21.472,11.183 14.915,13.633 12.416,10.511 "
         id="polygon11964"
         style="fill:none;stroke:#000000;stroke-width:0.33635059;stroke-linejoin:bevel;stroke-opacity:0.22680413" />
      <polygon
         transform="matrix(1.009035,0,0,1.264027,-0.348813,8.475737)"
         i:knockout="Off"
         points="15.243,6.115 18.083,7.715 18.083,7.715 12.416,10.511 10.167,9.271 "
         id="polygon11979"
         style="fill:none;stroke:#000000;stroke-width:0.33635059;stroke-linejoin:bevel;stroke-opacity:0.22680413" />
      <polygon
         transform="matrix(1.009035,0,0,1.264027,-0.348813,8.475737)"
         i:knockout="Off"
         points="10.167,9.271 12.416,10.511 12.416,10.511 8.418,13.45 7.861,11.793 "
         id="polygon11994"
         style="fill:none;stroke:#000000;stroke-width:0.33635059;stroke-linejoin:bevel;stroke-opacity:0.22680413" />
      <polygon
         transform="matrix(1.009035,0,0,1.264027,-0.348813,8.475737)"
         i:knockout="Off"
         points="12.416,10.511 14.915,13.633 14.915,13.633 11.212,15.108 8.418,13.45 "
         id="polygon12009"
         style="fill:none;stroke:#000000;stroke-width:0.33635059;stroke-linejoin:bevel;stroke-opacity:0.22680413" />
      <polygon
         transform="matrix(1.009035,0,0,1.264027,-0.348813,8.475737)"
         i:knockout="Off"
         points="21.472,11.183 21.012,16.209 21.012,16.209 15.8,17.096 14.915,13.633 "
         id="polygon12022"
         style="fill:none;stroke:#000000;stroke-width:0.33635059;stroke-linejoin:bevel;stroke-opacity:0.22680413" />
      <polygon
         transform="matrix(1.009035,0,0,1.264027,-0.348813,8.475737)"
         i:knockout="Off"
         points="21.012,16.209 21.601,18.781 21.601,18.781 15.05,18.97 15.8,17.096 "
         id="polygon12037"
         style="fill:none;stroke:#000000;stroke-width:0.33635059;stroke-linejoin:bevel;stroke-opacity:0.22680413" />
      <polygon
         transform="matrix(1.009035,0,0,1.264027,-0.348813,8.475737)"
         i:knockout="Off"
         points="14.915,13.633 15.8,17.096 15.8,17.096 10.781,17.8 11.212,15.108 "
         id="polygon12050"
         style="fill:none;stroke:#000000;stroke-width:0.33635059;stroke-linejoin:bevel;stroke-opacity:0.22680413" />
      <polygon
         transform="matrix(1.009035,0,0,1.264027,-0.348813,8.475737)"
         i:knockout="Off"
         points="15.8,17.096 15.05,18.97 15.05,18.97 11.348,18.446 10.781,17.8 "
         id="polygon12065"
         style="fill:none;stroke:#000000;stroke-width:0.33635059;stroke-linejoin:bevel;stroke-opacity:0.22680413" />
      <polygon
         transform="matrix(1.009035,0,0,1.264027,-0.348813,8.475737)"
         i:knockout="Off"
         points="11.212,15.108 10.781,17.8 10.781,17.8 7.09,15.858 8.418,13.45 "
         id="polygon12080"
         style="fill:none;stroke:#000000;stroke-width:0.33635059;stroke-linejoin:bevel;stroke-opacity:0.22680413" />
      <polygon
         transform="matrix(1.009035,0,0,1.264027,-0.348813,8.475737)"
         i:knockout="Off"
         points="7.861,11.793 8.418,13.45 8.418,13.45 7.09,15.858 6.351,13.167 "
         id="polygon12095"
         style="fill:none;stroke:#000000;stroke-width:0.33635059;stroke-linejoin:bevel;stroke-opacity:0.22680413" />
      <polygon
         transform="matrix(1.009035,0,0,1.264027,-0.348813,8.475737)"
         i:knockout="Off"
         points="10.781,17.8 11.348,18.446 11.348,18.446 8.68,17.38 7.09,15.858 "
         id="polygon12110"
         style="fill:none;stroke:#000000;stroke-width:0.33635059;stroke-linejoin:bevel;stroke-opacity:0.22680413" />
      <polygon
         transform="matrix(1.009035,0,0,1.264027,-0.348813,8.475737)"
         i:knockout="Off"
         points="19.74,3.833 20.456,3.686 21.603,4.083 15.243,6.115 15.243,6.115 16.039,5.524 "
         id="polygon12125"
         style="fill:none;stroke:#000000;stroke-width:0.33635059;stroke-linejoin:bevel;stroke-opacity:0.22680413" />
      <polygon
         transform="matrix(1.009035,0,0,1.264027,-0.348813,8.475737)"
         i:knockout="Off"
         points="20.456,3.686 25.737,3.758 21.603,4.083 20.456,3.686 "
         id="polygon12140"
         style="fill:none;stroke:#000000;stroke-width:0.33635059;stroke-linejoin:bevel;stroke-opacity:0.22680413" />
    </g>
  </g>
</svg>
