<?xml version="1.0" encoding="UTF-8" standalone="no"?>
<!-- Created with Inkscape (http://www.inkscape.org/) -->

<svg
   xmlns:dc="http://purl.org/dc/elements/1.1/"
   xmlns:cc="http://creativecommons.org/ns#"
   xmlns:rdf="http://www.w3.org/1999/02/22-rdf-syntax-ns#"
   xmlns:svg="http://www.w3.org/2000/svg"
   xmlns="http://www.w3.org/2000/svg"
   xmlns:xlink="http://www.w3.org/1999/xlink"
   xmlns:sodipodi="http://sodipodi.sourceforge.net/DTD/sodipodi-0.dtd"
   xmlns:inkscape="http://www.inkscape.org/namespaces/inkscape"
   width="48px"
   height="48px"
   id="svg1306"
   sodipodi:version="0.32"
   inkscape:version="0.48.4 r9939"
   sodipodi:docname="volume.svg"
   version="1.1">
  <defs
     id="defs1308">
    <linearGradient
       inkscape:collect="always"
       id="linearGradient90633">
      <stop
         style="stop-color:#eeeeec;stop-opacity:1;"
         offset="0"
         id="stop90635" />
      <stop
         style="stop-color:#eeeeec;stop-opacity:0;"
         offset="1"
         id="stop90637" />
    </linearGradient>
    <linearGradient
       id="linearGradient9073">
      <stop
         id="stop9075"
         offset="0"
         style="stop-color:#74726e;stop-opacity:1;" />
      <stop
         id="stop9077"
         offset="1"
         style="stop-color:#5d5b58;stop-opacity:0;" />
    </linearGradient>
    <linearGradient
       inkscape:collect="always"
       id="linearGradient9061">
      <stop
         style="stop-color:#5d5b58;stop-opacity:1;"
         offset="0"
         id="stop9063" />
      <stop
         style="stop-color:#5d5b58;stop-opacity:0;"
         offset="1"
         id="stop9065" />
    </linearGradient>
    <linearGradient
       inkscape:collect="always"
       id="linearGradient9035">
      <stop
         style="stop-color:#888a85;stop-opacity:1;"
         offset="0"
         id="stop9037" />
      <stop
         style="stop-color:#51534f;stop-opacity:1"
         offset="1"
         id="stop9039" />
    </linearGradient>
    <linearGradient
       id="linearGradient9027">
      <stop
         style="stop-color:#2e3436;stop-opacity:0.61855668;"
         offset="0"
         id="stop9029" />
      <stop
         style="stop-color:#2e3436;stop-opacity:0;"
         offset="1"
         id="stop9031" />
    </linearGradient>
    <linearGradient
       inkscape:collect="always"
       id="linearGradient6549">
      <stop
         style="stop-color:#ffffff;stop-opacity:1;"
         offset="0"
         id="stop6551" />
      <stop
         style="stop-color:#ffffff;stop-opacity:0;"
         offset="1"
         id="stop6553" />
    </linearGradient>
    <linearGradient
       inkscape:collect="always"
       id="linearGradient6527">
      <stop
         style="stop-color:#ffffff;stop-opacity:1;"
         offset="0"
         id="stop6530" />
      <stop
         style="stop-color:#ffffff;stop-opacity:0;"
         offset="1"
         id="stop6532" />
    </linearGradient>
    <linearGradient
       inkscape:collect="always"
       id="linearGradient6538">
      <stop
         style="stop-color:#ffffff;stop-opacity:1;"
         offset="0"
         id="stop6540" />
      <stop
         style="stop-color:#ffffff;stop-opacity:0;"
         offset="1"
         id="stop6542" />
    </linearGradient>
    <linearGradient
       inkscape:collect="always"
       id="linearGradient6513">
      <stop
         style="stop-color:#ffffff;stop-opacity:1;"
         offset="0"
         id="stop6515" />
      <stop
         style="stop-color:#ffffff;stop-opacity:0;"
         offset="1"
         id="stop6517" />
    </linearGradient>
    <linearGradient
       inkscape:collect="always"
       id="linearGradient6497">
      <stop
         style="stop-color:#ffffff;stop-opacity:1;"
         offset="0"
         id="stop6499" />
      <stop
         style="stop-color:#ffffff;stop-opacity:0;"
         offset="1"
         id="stop6501" />
    </linearGradient>
    <linearGradient
       inkscape:collect="always"
       id="linearGradient6470">
      <stop
         style="stop-color:#ffffff;stop-opacity:1;"
         offset="0"
         id="stop6472" />
      <stop
         style="stop-color:#ffffff;stop-opacity:0;"
         offset="1"
         id="stop6474" />
    </linearGradient>
    <linearGradient
       inkscape:collect="always"
       xlink:href="#linearGradient6497"
       id="linearGradient7996"
       gradientUnits="userSpaceOnUse"
       x1="287.51730"
       y1="-439.75281"
       x2="289.67633"
       y2="-436.32199" />
    <linearGradient
       inkscape:collect="always"
       xlink:href="#linearGradient6513"
       id="linearGradient7998"
       gradientUnits="userSpaceOnUse"
       x1="286.51172"
       y1="-441.29074"
       x2="289.85379"
       y2="-436.14453" />
    <linearGradient
       inkscape:collect="always"
       xlink:href="#linearGradient6538"
       id="linearGradient8000"
       gradientUnits="userSpaceOnUse"
       x1="285.94086"
       y1="-439.93900"
       x2="289.39124"
       y2="-436.44290" />
    <linearGradient
       inkscape:collect="always"
       xlink:href="#linearGradient6527"
       id="linearGradient8002"
       gradientUnits="userSpaceOnUse"
       x1="275.94193"
       y1="-437.10501"
       x2="279.97546"
       y2="-431.91833" />
    <linearGradient
       inkscape:collect="always"
       xlink:href="#linearGradient6549"
       id="linearGradient8004"
       gradientUnits="userSpaceOnUse"
       x1="286.66589"
       y1="-439.48358"
       x2="289.76562"
       y2="-436.70703" />
    <linearGradient
       inkscape:collect="always"
       xlink:href="#linearGradient6538"
       id="linearGradient8006"
       gradientUnits="userSpaceOnUse"
       x1="284.80219"
       y1="-441.23294"
       x2="288.89954"
       y2="-436.83109" />
    <linearGradient
       inkscape:collect="always"
       xlink:href="#linearGradient6538"
       id="linearGradient8089"
       gradientUnits="userSpaceOnUse"
       x1="286.41476"
       y1="-435.78354"
       x2="290.07755"
       y2="-439.28937" />
    <linearGradient
       inkscape:collect="always"
       xlink:href="#linearGradient6549"
       id="linearGradient8091"
       gradientUnits="userSpaceOnUse"
       x1="286.2952"
       y1="-435.6282"
       x2="289.39493"
       y2="-438.18988" />
    <linearGradient
       inkscape:collect="always"
       xlink:href="#linearGradient6470"
       id="linearGradient8093"
       gradientUnits="userSpaceOnUse"
       x1="276.61383"
       y1="-431.00018"
       x2="283.46283"
       y2="-438.72214" />
    <linearGradient
       inkscape:collect="always"
       xlink:href="#linearGradient6538"
       id="linearGradient8095"
       gradientUnits="userSpaceOnUse"
       x1="286.01407"
       y1="-435.54623"
       x2="288.375"
       y2="-438.97083" />
    <linearGradient
       inkscape:collect="always"
       xlink:href="#linearGradient6513"
       id="linearGradient8097"
       gradientUnits="userSpaceOnUse"
       x1="287.14722"
       y1="-434.80862"
       x2="289.4725"
       y2="-437.59375" />
    <linearGradient
       inkscape:collect="always"
       xlink:href="#linearGradient6497"
       id="linearGradient8099"
       gradientUnits="userSpaceOnUse"
       x1="286.24631"
       y1="-434.73236"
       x2="290.12119"
       y2="-439.69016" />
    <linearGradient
       inkscape:collect="always"
       xlink:href="#linearGradient6470"
       id="linearGradient8130"
       gradientUnits="userSpaceOnUse"
       gradientTransform="matrix(0.82721769,0,0,0.73346601,-208.06946,337.41949)"
       x1="271.02170"
       y1="-441.05182"
       x2="285.02859"
       y2="-431.96991" />
    <linearGradient
       inkscape:collect="always"
       xlink:href="#linearGradient6538"
       id="linearGradient9023"
       gradientUnits="userSpaceOnUse"
       x1="286.41476"
       y1="-435.78354"
       x2="288.375"
       y2="-437.8876" />
    <radialGradient
       inkscape:collect="always"
       xlink:href="#linearGradient9027"
       id="radialGradient9033"
       cx="23.334522"
       cy="44.420273"
       fx="23.334522"
       fy="44.420273"
       r="18.561552"
       gradientTransform="matrix(1,0,0,0.192857,0,35.85351)"
       gradientUnits="userSpaceOnUse" />
    <linearGradient
       inkscape:collect="always"
       xlink:href="#linearGradient9035"
       id="linearGradient9041"
       x1="20.730019"
       y1="29.8146"
       x2="23.295853"
       y2="45.055626"
       gradientUnits="userSpaceOnUse"
       gradientTransform="matrix(0.5636056,0,0,0.56411397,10.473633,9.9302615)" />
    <linearGradient
       inkscape:collect="always"
       xlink:href="#linearGradient9061"
       id="linearGradient9067"
       x1="29.123692"
       y1="38.897343"
       x2="27.355925"
       y2="34.879128"
       gradientUnits="userSpaceOnUse"
       gradientTransform="matrix(0.56990187,0,0,0.5704067,10.322521,9.7868967)" />
    <linearGradient
       inkscape:collect="always"
       xlink:href="#linearGradient9073"
       id="linearGradient9071"
       gradientUnits="userSpaceOnUse"
       x1="29.123692"
       y1="38.897343"
       x2="27.355925"
       y2="34.879128"
       gradientTransform="matrix(0.52249572,-0.22776739,0.2275658,0.52295856,7.9970921,14.334376)" />
    <linearGradient
       inkscape:collect="always"
       xlink:href="#linearGradient9035"
       id="linearGradient90123"
       gradientUnits="userSpaceOnUse"
       gradientTransform="matrix(0.9614119,0,0,0.96129296,0.92612849,0.88182431)"
       x1="20.730019"
       y1="29.8146"
       x2="23.295853"
       y2="45.055626" />
    <radialGradient
       inkscape:collect="always"
       xlink:href="#linearGradient90633"
       id="radialGradient90639"
       cx="24.000385"
       cy="22.781773"
       fx="24.000385"
       fy="22.781773"
       r="21.261238"
       gradientTransform="matrix(1,0,0,1.0414561,0,-0.94444449)"
       gradientUnits="userSpaceOnUse" />
  </defs>
  <sodipodi:namedview
     id="base"
     pagecolor="#ffffff"
     bordercolor="#666666"
     borderopacity="1.0"
     inkscape:pageopacity="0.0"
     inkscape:pageshadow="2"
     inkscape:zoom="16.970563"
     inkscape:cx="16.748061"
     inkscape:cy="24.438019"
     inkscape:current-layer="layer1"
     showgrid="true"
     inkscape:grid-bbox="false"
     inkscape:document-units="px"
     inkscape:window-width="2560"
     inkscape:window-height="1538"
     inkscape:window-x="-8"
     inkscape:window-y="-8"
     inkscape:showpageshadow="false"
     showguides="true"
     inkscape:guide-bbox="true"
     inkscape:window-maximized="1" />
  <metadata
     id="metadata1311">
    <rdf:RDF>
      <cc:Work
         rdf:about="">
        <dc:format>image/svg+xml</dc:format>
        <dc:type
           rdf:resource="http://purl.org/dc/dcmitype/StillImage" />
        <dc:title></dc:title>
        <dc:date>January 2006</dc:date>
        <dc:creator>
          <cc:Agent>
            <dc:title>Ryan Collier (pseudo)</dc:title>
          </cc:Agent>
        </dc:creator>
        <dc:publisher>
          <cc:Agent>
            <dc:title>http://www.tango-project.org</dc:title>
          </cc:Agent>
        </dc:publisher>
        <dc:source>http://www.pseudocode.org</dc:source>
        <dc:subject>
          <rdf:Bag>
            <rdf:li>weather</rdf:li>
            <rdf:li>applet</rdf:li>
            <rdf:li>notify</rdf:li>
          </rdf:Bag>
        </dc:subject>
        <cc:license
           rdf:resource="http://creativecommons.org/licenses/by-sa/2.0/" />
      </cc:Work>
      <cc:License
         rdf:about="http://creativecommons.org/licenses/by-sa/2.0/">
        <cc:permits
           rdf:resource="http://web.resource.org/cc/Reproduction" />
        <cc:permits
           rdf:resource="http://web.resource.org/cc/Distribution" />
        <cc:requires
           rdf:resource="http://web.resource.org/cc/Notice" />
        <cc:requires
           rdf:resource="http://web.resource.org/cc/Attribution" />
        <cc:permits
           rdf:resource="http://web.resource.org/cc/DerivativeWorks" />
        <cc:requires
           rdf:resource="http://web.resource.org/cc/ShareAlike" />
      </cc:License>
    </rdf:RDF>
  </metadata>
  <g
     id="layer1"
     inkscape:label="Layer 1"
     inkscape:groupmode="layer">
    <path
       sodipodi:type="arc"
       style="opacity:1;color:black;fill:url(#radialGradient9033);fill-opacity:1;fill-rule:evenodd;stroke:none;stroke-width:2;stroke-linecap:round;stroke-linejoin:miter;marker:none;marker-start:none;marker-mid:none;marker-end:none;stroke-miterlimit:4;stroke-dasharray:none;stroke-dashoffset:0;stroke-opacity:0.50196078;visibility:visible;display:inline;overflow:visible"
       id="path9025"
       sodipodi:cx="23.334522"
       sodipodi:cy="44.420273"
       sodipodi:rx="18.561552"
       sodipodi:ry="3.5797279"
       d="M 41.896074 44.420273 A 18.561552 3.5797279 0 1 1  4.7729702,44.420273 A 18.561552 3.5797279 0 1 1  41.896074 44.420273 z"
       transform="matrix(1.148148,0,0,1.148148,-3.456966,-6.580781)" />
    <path
       id="path7796"
       style="fill:#c4c5c2;fill-opacity:1;stroke:url(#linearGradient9041);stroke-width:1.50000036;stroke-linecap:butt;stroke-linejoin:miter;stroke-miterlimit:2;stroke-opacity:1;stroke-dasharray:none;stroke-dashoffset:0"
       d="m 35.116097,22.83775 c 0.308203,0.49055 0.898389,1.648743 0.898389,2.249342 0,1.279923 -0.832996,2.356591 -2.012137,2.941696 0.155597,0.392699 0.295114,0.79413 0.295114,1.233615 0,2.095248 -1.923068,3.79573 -4.292562,3.795738 -0.718352,0 -1.363334,-0.198266 -1.958481,-0.474467 -0.522697,1.575019 -2.101569,2.75191 -4.051103,2.75191 -1.949537,0 -3.52841,-1.176891 -4.051106,-2.75191 -0.595146,0.276201 -1.24013,0.474467 -1.95848,0.474467 -2.369494,0 -4.292571,-1.700482 -4.292562,-3.795738 0,-0.439493 0.139525,-0.840908 0.295113,-1.233615 -1.17914,-0.585105 -2.012138,-1.661773 -2.012138,-2.941696 0,-0.681026 0.22574,-2.284232 0.572901,-2.85709 -0.372998,-0.543697 -0.56276,-1.129148 -0.56276,-1.75355 0,-1.279924 0.832996,-2.356592 2.012137,-2.941697 -0.155588,-0.392707 -0.295114,-0.794121 -0.295114,-1.233615 -9e-6,-2.095254 1.923067,-3.795737 4.292562,-3.795737 0.718351,0 1.363334,0.198267 1.958481,0.474467 0.522697,-1.575018 2.101569,-2.751909 4.051104,-2.751909 1.949535,0 3.528409,1.176891 4.051105,2.751909 0.595146,-0.2762 1.24013,-0.474467 1.95848,-0.474467 2.369495,7e-6 4.292562,1.70049 4.292562,3.795737 0,0.439486 -0.139516,0.840916 -0.295113,1.233615 1.17914,0.585105 2.012137,1.661773 2.012137,2.941697 0,0.583947 -0.616054,1.880385 -0.908529,2.361298 z"
       sodipodi:nodetypes="cscsscccsscscscsscccsscsc"
       inkscape:connector-curvature="0" />
    <g
       id="g7800"
       transform="matrix(0.86810245,0,0,0.76761627,-219.48716,352.08534)">
      <path
         transform="matrix(1.056604,0,0,1.056604,-24.19818,21.86331)"
         d="m 291.6875,-437.59375 c 0,1.82944 -1.48306,3.3125 -3.3125,3.3125 -1.82944,0 -3.3125,-1.48306 -3.3125,-3.3125 0,-1.82944 1.48306,-3.3125 3.3125,-3.3125 1.82944,0 3.3125,1.48306 3.3125,3.3125 z"
         sodipodi:ry="3.3125"
         sodipodi:rx="3.3125"
         sodipodi:cy="-437.59375"
         sodipodi:cx="288.375"
         id="path7802"
         style="fill:#c4c5c2;fill-opacity:1;stroke:none"
         sodipodi:type="arc" />
      <path
         transform="matrix(1.056604,0,0,1.056604,-24.19818,21.86331)"
         d="m 291.6875,-437.59375 c 0,1.82944 -1.48306,3.3125 -3.3125,3.3125 -1.82944,0 -3.3125,-1.48306 -3.3125,-3.3125 0,-1.82944 1.48306,-3.3125 3.3125,-3.3125 1.82944,0 3.3125,1.48306 3.3125,3.3125 z"
         sodipodi:ry="3.3125"
         sodipodi:rx="3.3125"
         sodipodi:cy="-437.59375"
         sodipodi:cx="288.375"
         id="path7804"
         style="fill:url(#linearGradient7996);fill-opacity:1;stroke:none"
         sodipodi:type="arc" />
    </g>
    <rect
       style="fill:#c4c5c2;fill-opacity:1;stroke:none"
       id="rect7806"
       width="17.362059"
       height="6.9085431"
       x="15.768785"
       y="15.869616" />
    <path
       sodipodi:type="arc"
       style="fill:#c4c5c2;fill-opacity:1;stroke:none"
       id="path7808"
       sodipodi:cx="288.375"
       sodipodi:cy="-437.59375"
       sodipodi:rx="3.3125"
       sodipodi:ry="3.3125"
       d="m 291.6875,-437.59375 a 3.3125,3.3125 0 1 1 -6.625,0 3.3125,3.3125 0 1 1 6.625,0 z"
       transform="matrix(0.78620698,0,0,0.69519914,-210.95356,324.69019)" />
    <g
       id="g7810"
       transform="matrix(0.86810245,0,0,0.76761627,-219.48716,352.08534)">
      <path
         transform="matrix(1.056604,0,0,1.056604,-17.19811,24.86321)"
         d="m 291.6875,-437.59375 c 0,1.82944 -1.48306,3.3125 -3.3125,3.3125 -1.82944,0 -3.3125,-1.48306 -3.3125,-3.3125 0,-1.82944 1.48306,-3.3125 3.3125,-3.3125 1.82944,0 3.3125,1.48306 3.3125,3.3125 z"
         sodipodi:ry="3.3125"
         sodipodi:rx="3.3125"
         sodipodi:cy="-437.59375"
         sodipodi:cx="288.375"
         id="path7812"
         style="fill:#c4c5c2;fill-opacity:1;stroke:none"
         sodipodi:type="arc" />
      <path
         transform="matrix(1.056604,0,0,1.056604,-17.19818,24.86331)"
         d="m 291.6875,-437.59375 c 0,1.82944 -1.48306,3.3125 -3.3125,3.3125 -1.82944,0 -3.3125,-1.48306 -3.3125,-3.3125 0,-1.82944 1.48306,-3.3125 3.3125,-3.3125 1.82944,0 3.3125,1.48306 3.3125,3.3125 z"
         sodipodi:ry="3.3125"
         sodipodi:rx="3.3125"
         sodipodi:cy="-437.59375"
         sodipodi:cx="288.375"
         id="path7814"
         style="fill:url(#linearGradient7998);fill-opacity:1;stroke:none"
         sodipodi:type="arc" />
    </g>
    <g
       id="g7816"
       transform="matrix(0.86810245,0,0,0.76761627,-219.48716,352.08534)">
      <path
         transform="matrix(1.056604,0,0,1.056604,-31.19818,24.86331)"
         d="m 291.6875,-437.59375 c 0,1.82944 -1.48306,3.3125 -3.3125,3.3125 -1.82944,0 -3.3125,-1.48306 -3.3125,-3.3125 0,-1.82944 1.48306,-3.3125 3.3125,-3.3125 1.82944,0 3.3125,1.48306 3.3125,3.3125 z"
         sodipodi:ry="3.3125"
         sodipodi:rx="3.3125"
         sodipodi:cy="-437.59375"
         sodipodi:cx="288.375"
         id="path7818"
         style="fill:#c4c5c2;fill-opacity:1;stroke:none"
         sodipodi:type="arc" />
      <path
         transform="matrix(1.056604,0,0,1.056604,-31.19818,24.86331)"
         d="m 291.6875,-437.59375 c 0,1.82944 -1.48306,3.3125 -3.3125,3.3125 -1.82944,0 -3.3125,-1.48306 -3.3125,-3.3125 0,-1.82944 1.48306,-3.3125 3.3125,-3.3125 1.82944,0 3.3125,1.48306 3.3125,3.3125 z"
         sodipodi:ry="3.3125"
         sodipodi:rx="3.3125"
         sodipodi:cy="-437.59375"
         sodipodi:cx="288.375"
         id="path7820"
         style="fill:url(#linearGradient8000);fill-opacity:1;stroke:none"
         sodipodi:type="arc" />
    </g>
    <g
       id="g7822"
       transform="matrix(0.86810245,0,0,0.76761627,-220.35524,352.08534)">
      <path
         id="path7824"
         d="m 280.46875,-440.96875 c -3.57938,0 -6.46875,2.92063 -6.46875,6.5 0,2.37068 1.34943,4.33779 3.25,5.46875 l 6.46875,0 c 1.90057,-1.13096 3.25,-3.12931 3.25,-5.5 0,-3.57938 -2.92063,-6.46875 -6.5,-6.46875 z"
         style="fill:#c4c5c2;fill-opacity:1;stroke:none"
         inkscape:connector-curvature="0" />
      <path
         id="path7826"
         d="m 280.5,-441 c -3.588,0 -6.5,2.91201 -6.5,6.5 0,2.3764 1.34485,4.36632 3.25,5.5 l 6.5,0 c 1.90515,-1.13368 3.25,-3.1236 3.25,-5.5 0,-3.588 -2.912,-6.49999 -6.5,-6.5 z"
         style="fill:url(#linearGradient8002);fill-opacity:1;stroke:none"
         inkscape:connector-curvature="0" />
    </g>
    <path
       sodipodi:type="arc"
       style="fill:url(#linearGradient8004);fill-opacity:1;stroke:none"
       id="path7828"
       sodipodi:cx="288.375"
       sodipodi:cy="-437.59375"
       sodipodi:rx="3.3125"
       sodipodi:ry="3.3125"
       d="m 291.6875,-437.59375 a 3.3125,3.3125 0 1 1 -6.625,0 3.3125,3.3125 0 1 1 6.625,0 z"
       transform="matrix(0.78620698,0,0,0.69519914,-210.95345,324.69007)" />
    <g
       id="g7832"
       transform="matrix(0.99211762,0,0,0.87727524,-244.29008,403.51566)">
      <path
         transform="matrix(1.056604,0,0,1.056604,-31.19818,24.86331)"
         d="m 291.6875,-437.59375 c 0,1.82944 -1.48306,3.3125 -3.3125,3.3125 -1.82944,0 -3.3125,-1.48306 -3.3125,-3.3125 0,-1.82944 1.48306,-3.3125 3.3125,-3.3125 1.82944,0 3.3125,1.48306 3.3125,3.3125 z"
         sodipodi:ry="3.3125"
         sodipodi:rx="3.3125"
         sodipodi:cy="-437.59375"
         sodipodi:cx="288.375"
         id="path7834"
         style="fill:#c4c5c2;fill-opacity:1;stroke:none"
         sodipodi:type="arc" />
      <path
         transform="matrix(1.056604,0,0,1.056604,-31.19818,24.86331)"
         d="m 291.6875,-437.59375 c 0,1.82944 -1.48306,3.3125 -3.3125,3.3125 -1.82944,0 -3.3125,-1.48306 -3.3125,-3.3125 0,-1.82944 1.48306,-3.3125 3.3125,-3.3125 1.82944,0 3.3125,1.48306 3.3125,3.3125 z"
         sodipodi:ry="3.3125"
         sodipodi:rx="3.3125"
         sodipodi:cy="-437.59375"
         sodipodi:cx="288.375"
         id="path7836"
         style="fill:url(#linearGradient8006);fill-opacity:1;stroke:none"
         sodipodi:type="arc" />
    </g>
    <g
       id="g8014"
       transform="matrix(0.86810245,0,0,-0.76761627,-219.49742,-306.47276)">
      <path
         transform="matrix(1.056604,0,0,1.056604,-24.19818,21.86331)"
         d="m 291.6875,-437.59375 c 0,1.82944 -1.48306,3.3125 -3.3125,3.3125 -1.82944,0 -3.3125,-1.48306 -3.3125,-3.3125 0,-1.82944 1.48306,-3.3125 3.3125,-3.3125 1.82944,0 3.3125,1.48306 3.3125,3.3125 z"
         sodipodi:ry="3.3125"
         sodipodi:rx="3.3125"
         sodipodi:cy="-437.59375"
         sodipodi:cx="288.375"
         id="path8016"
         style="fill:#c4c5c2;fill-opacity:1;stroke:none"
         sodipodi:type="arc" />
      <path
         transform="matrix(1.056604,0,0,1.056604,-24.19818,21.86331)"
         d="m 291.6875,-437.59375 c 0,1.82944 -1.48306,3.3125 -3.3125,3.3125 -1.82944,0 -3.3125,-1.48306 -3.3125,-3.3125 0,-1.82944 1.48306,-3.3125 3.3125,-3.3125 1.82944,0 3.3125,1.48306 3.3125,3.3125 z"
         sodipodi:ry="3.3125"
         sodipodi:rx="3.3125"
         sodipodi:cy="-437.59375"
         sodipodi:cx="288.375"
         id="path8018"
         style="fill:url(#linearGradient8099);fill-opacity:1;stroke:none"
         sodipodi:type="arc" />
    </g>
    <rect
       style="fill:#c4c5c2;fill-opacity:1;stroke:none"
       id="rect8020"
       width="17.362059"
       height="6.9085431"
       x="15.758532"
       y="-29.743074"
       transform="scale(1,-1)" />
    <path
       sodipodi:type="arc"
       style="fill:#c4c5c2;fill-opacity:1;stroke:none"
       id="path8022"
       sodipodi:cx="288.375"
       sodipodi:cy="-437.59375"
       sodipodi:rx="3.3125"
       sodipodi:ry="3.3125"
       d="m 291.6875,-437.59375 a 3.3125,3.3125 0 1 1 -6.625,0 3.3125,3.3125 0 1 1 6.625,0 z"
       transform="matrix(0.78620698,0,0,-0.69519914,-210.9637,-279.07761)" />
    <g
       id="g8024"
       transform="matrix(0.86810245,0,0,-0.76761627,-219.49742,-306.47276)">
      <path
         transform="matrix(1.056604,0,0,1.056604,-17.19811,24.86321)"
         d="m 291.6875,-437.59375 c 0,1.82944 -1.48306,3.3125 -3.3125,3.3125 -1.82944,0 -3.3125,-1.48306 -3.3125,-3.3125 0,-1.82944 1.48306,-3.3125 3.3125,-3.3125 1.82944,0 3.3125,1.48306 3.3125,3.3125 z"
         sodipodi:ry="3.3125"
         sodipodi:rx="3.3125"
         sodipodi:cy="-437.59375"
         sodipodi:cx="288.375"
         id="path8026"
         style="fill:#c4c5c2;fill-opacity:1;stroke:none"
         sodipodi:type="arc" />
      <path
         transform="matrix(1.056604,0,0,1.056604,-17.19818,24.86331)"
         d="m 291.6875,-437.59375 c 0,1.82944 -1.48306,3.3125 -3.3125,3.3125 -1.82944,0 -3.3125,-1.48306 -3.3125,-3.3125 0,-1.82944 1.48306,-3.3125 3.3125,-3.3125 1.82944,0 3.3125,1.48306 3.3125,3.3125 z"
         sodipodi:ry="3.3125"
         sodipodi:rx="3.3125"
         sodipodi:cy="-437.59375"
         sodipodi:cx="288.375"
         id="path8028"
         style="fill:url(#linearGradient8097);fill-opacity:1;stroke:none"
         sodipodi:type="arc" />
    </g>
    <g
       id="g8030"
       transform="matrix(0.86810245,0,0,-0.76761627,-219.49742,-306.47276)">
      <path
         transform="matrix(1.056604,0,0,1.056604,-31.19818,24.86331)"
         d="m 291.6875,-437.59375 c 0,1.82944 -1.48306,3.3125 -3.3125,3.3125 -1.82944,0 -3.3125,-1.48306 -3.3125,-3.3125 0,-1.82944 1.48306,-3.3125 3.3125,-3.3125 1.82944,0 3.3125,1.48306 3.3125,3.3125 z"
         sodipodi:ry="3.3125"
         sodipodi:rx="3.3125"
         sodipodi:cy="-437.59375"
         sodipodi:cx="288.375"
         id="path8032"
         style="fill:#c4c5c2;fill-opacity:1;stroke:none"
         sodipodi:type="arc" />
      <path
         transform="matrix(1.056604,0,0,1.056604,-31.19818,24.86331)"
         d="m 291.6875,-437.59375 c 0,1.82944 -1.48306,3.3125 -3.3125,3.3125 -1.82944,0 -3.3125,-1.48306 -3.3125,-3.3125 0,-1.82944 1.48306,-3.3125 3.3125,-3.3125 1.82944,0 3.3125,1.48306 3.3125,3.3125 z"
         sodipodi:ry="3.3125"
         sodipodi:rx="3.3125"
         sodipodi:cy="-437.59375"
         sodipodi:cx="288.375"
         id="path8034"
         style="fill:url(#linearGradient8095);fill-opacity:1;stroke:none"
         sodipodi:type="arc" />
    </g>
    <g
       id="g8036"
       transform="matrix(0.86810245,0,0,-0.76761627,-220.36549,-306.47276)">
      <path
         id="path8038"
         d="m 280.46875,-440.96875 c -3.57938,0 -6.46875,2.92063 -6.46875,6.5 0,2.37068 1.34943,4.33779 3.25,5.46875 l 6.46875,0 c 1.90057,-1.13096 3.25,-3.12931 3.25,-5.5 0,-3.57938 -2.92063,-6.46875 -6.5,-6.46875 z"
         style="fill:#c4c5c2;fill-opacity:1;stroke:none"
         inkscape:connector-curvature="0" />
      <path
         id="path8040"
         d="m 280.5,-441 c -3.588,0 -6.5,2.91201 -6.5,6.5 0,2.3764 1.34485,4.36632 3.25,5.5 l 6.5,0 c 1.90515,-1.13368 3.25,-3.1236 3.25,-5.5 0,-3.588 -2.912,-6.49999 -6.5,-6.5 z"
         style="fill:url(#linearGradient8093);fill-opacity:1;stroke:none"
         inkscape:connector-curvature="0" />
    </g>
    <path
       sodipodi:type="arc"
       style="fill:url(#linearGradient8091);fill-opacity:1;stroke:none"
       id="path8042"
       sodipodi:cx="288.375"
       sodipodi:cy="-437.59375"
       sodipodi:rx="3.3125"
       sodipodi:ry="3.3125"
       d="m 291.6875,-437.59375 a 3.3125,3.3125 0 1 1 -6.625,0 3.3125,3.3125 0 1 1 6.625,0 z"
       transform="matrix(0.78620698,0,0,-0.69519914,-210.9636,-279.07744)" />
    <g
       id="g8046"
       transform="matrix(0.99211762,0,0,-0.87727524,-246.63192,-359.4494)">
      <path
         transform="matrix(1.056604,0,0,1.056604,-31.19818,24.86331)"
         d="m 291.6875,-437.59375 c 0,1.82944 -1.48306,3.3125 -3.3125,3.3125 -1.82944,0 -3.3125,-1.48306 -3.3125,-3.3125 0,-1.82944 1.48306,-3.3125 3.3125,-3.3125 1.82944,0 3.3125,1.48306 3.3125,3.3125 z"
         sodipodi:ry="3.3125"
         sodipodi:rx="3.3125"
         sodipodi:cy="-437.59375"
         sodipodi:cx="288.375"
         id="path8048"
         style="fill:#c4c5c2;fill-opacity:1;stroke:none"
         sodipodi:type="arc" />
      <path
         transform="matrix(1.056604,0,0,1.056604,-31.19818,24.86331)"
         d="m 291.6875,-437.59375 c 0,1.82944 -1.48306,3.3125 -3.3125,3.3125 -1.82944,0 -3.3125,-1.48306 -3.3125,-3.3125 0,-1.82944 1.48306,-3.3125 3.3125,-3.3125 1.82944,0 3.3125,1.48306 3.3125,3.3125 z"
         sodipodi:ry="3.3125"
         sodipodi:rx="3.3125"
         sodipodi:cy="-437.59375"
         sodipodi:cx="288.375"
         id="path8050"
         style="fill:url(#linearGradient8089);fill-opacity:1;stroke:none"
         sodipodi:type="arc" />
    </g>
    <g
       id="g9017"
       transform="matrix(0.99211762,0,0,-0.87727524,-241.14634,-361.139)">
      <path
         transform="matrix(1.056604,0,0,1.056604,-31.19818,24.86331)"
         d="m 291.6875,-437.59375 c 0,1.82944 -1.48306,3.3125 -3.3125,3.3125 -1.82944,0 -3.3125,-1.48306 -3.3125,-3.3125 0,-1.82944 1.48306,-3.3125 3.3125,-3.3125 1.82944,0 3.3125,1.48306 3.3125,3.3125 z"
         sodipodi:ry="3.3125"
         sodipodi:rx="3.3125"
         sodipodi:cy="-437.59375"
         sodipodi:cx="288.375"
         id="path9019"
         style="fill:#c4c5c2;fill-opacity:1;stroke:none"
         sodipodi:type="arc" />
      <path
         transform="matrix(1.056604,0,0,1.056604,-31.19818,24.86331)"
         d="m 291.6875,-437.59375 c 0,1.82944 -1.48306,3.3125 -3.3125,3.3125 -1.82944,0 -3.3125,-1.48306 -3.3125,-3.3125 0,-1.82944 1.48306,-3.3125 3.3125,-3.3125 1.82944,0 3.3125,1.48306 3.3125,3.3125 z"
         sodipodi:ry="3.3125"
         sodipodi:rx="3.3125"
         sodipodi:cy="-437.59375"
         sodipodi:cx="288.375"
         id="path9021"
         style="fill:url(#linearGradient9023);fill-opacity:1;stroke:none"
         sodipodi:type="arc" />
    </g>
    <path
       id="path7798"
       style="fill:url(#linearGradient8130);fill-opacity:1;stroke:#ffffff;stroke-width:0.9999994;stroke-linecap:butt;stroke-linejoin:miter;stroke-miterlimit:2;stroke-opacity:0.50196078;stroke-dashoffset:0"
       d="m 13.460999,22.362445 c -0.565942,0.558583 -0.67306,2.008369 -0.67306,2.837295 0,1.087034 0.920196,2.040217 2.015789,2.574143 -0.144557,0.35835 -0.365598,0.834855 -0.365598,1.235892 -8e-6,1.911943 1.573038,3.384248 3.820183,3.384248 0.667449,0 1.508026,-0.409446 2.060986,-0.66148 0.55585,1.839352 1.768031,2.96983 3.579405,2.96983 1.811384,0 3.192564,-1.177509 3.729305,-2.953628 0.552961,0.252034 1.583674,0.661488 2.251128,0.661488 2.201575,-7e-6 3.611777,-1.488521 3.611777,-3.400458 0,-0.401029 -0.239322,-0.961837 -0.383885,-1.320181 1.095591,-0.533926 2.015787,-1.321905 2.015787,-2.489854 0,-0.765151 -0.483197,-1.415956 -1.003282,-2.318922 0.502719,-0.91351 1.013051,-1.697479 1.013051,-2.502084 0,-1.167951 -0.920196,-1.95593 -2.015788,-2.489856 0.144565,-0.358343 0.383888,-0.919152 0.383888,-1.320182 0,-1.911934 -1.750237,-3.350203 -3.95181,-3.350211 -0.667456,0 -1.358134,0.359208 -1.911096,0.611242 -0.536742,-1.776119 -1.861249,-2.802892 -3.672631,-2.802892 -1.811375,0 -3.080228,0.979743 -3.636077,2.819094 -0.552962,-0.252034 -1.280194,-0.611234 -1.947642,-0.611234 -2.247145,0 -3.933537,1.42206 -3.933529,3.334001 0,0.401037 0.221041,0.978034 0.365598,1.336384 -1.095593,0.533927 -2.015789,1.386619 -2.015789,2.473654 0,0.804608 0.1293,1.430502 0.66329,1.983711 z"
       sodipodi:nodetypes="cscsscccsscscscsscccsscss"
       inkscape:connector-curvature="0" />
    <path
       style="fill:#888a85;fill-opacity:1;fill-rule:evenodd;stroke:none"
       d="m 34.57582,16.868244 c -0.0013,2.012122 -2.771134,2.783665 -2.771134,2.783665 0,0 1.990871,-1.218674 1.980791,-2.776964 0,0 0.790343,-0.0067 0.790343,-0.0067 z"
       id="path7830"
       sodipodi:nodetypes="ccss"
       inkscape:connector-curvature="0" />
    <path
       style="fill:url(#linearGradient9067);fill-opacity:1;fill-rule:evenodd;stroke:none"
       d="m 28.448514,33.190653 c -2.186457,-0.356741 -2.535801,-3.508469 -2.535801,-3.508469 0,0 0.972828,2.38264 2.668089,2.646853 0,0 -0.132288,0.861616 -0.132288,0.861616 z"
       id="path8044"
       sodipodi:nodetypes="ccss"
       inkscape:connector-curvature="0" />
    <path
       style="fill:url(#linearGradient9071);fill-opacity:1;fill-rule:evenodd;stroke:none"
       d="m 33.952332,28.54709 c -2.146905,0.546776 -3.724582,-2.203164 -3.724582,-2.203164 0,0 1.842467,1.795645 3.502121,1.36035 0,0 0.222461,0.842814 0.222461,0.842814 z"
       id="path9069"
       sodipodi:nodetypes="ccss"
       inkscape:connector-curvature="0" />
    <path
       inkscape:connector-curvature="0"
       sodipodi:nodetypes="cscsscccsscscscsscccsscsc"
       d="m 42.961833,22.877163 c 0.52574,0.835934 1.532493,2.809583 1.532493,3.833049 0,2.181086 -1.420945,4.01581 -3.432351,5.012873 0.265421,0.669189 0.503412,1.353258 0.503412,2.102174 0,3.570461 -3.280415,6.468211 -7.322355,6.468225 -1.225382,0 -2.325607,-0.33786 -3.340823,-0.808528 -0.891629,2.683952 -3.584907,4.689464 -6.910469,4.689464 -3.325567,0 -6.018846,-2.005512 -6.910473,-4.689464 -1.015214,0.470668 -2.115444,0.808528 -3.340822,0.808528 -4.0419397,0 -7.3223704,-2.89775 -7.3223551,-6.468225 0,-0.74893 0.2380051,-1.432971 0.5034109,-2.102174 -2.0114052,-0.997063 -3.4323531,-2.831787 -3.4323531,-5.012873 0,-1.16052 0.3850727,-3.892504 0.9772682,-4.868698 -0.6362689,-0.9265 -0.9599695,-1.924153 -0.9599695,-2.988182 0,-2.181087 1.4209445,-4.015811 3.4323514,-5.012874 C 6.6733921,13.171255 6.4353853,12.487215 6.4353853,11.738284 6.4353699,8.1678126 9.7157989,5.2700606 13.75774,5.2700606 c 1.22538,0 2.325608,0.337862 3.340824,0.8085278 0.891629,-2.6839501 3.584906,-4.6894616 6.91047,-4.6894616 3.325563,0 6.018844,2.0055115 6.910472,4.6894616 1.015214,-0.4706658 2.115443,-0.8085278 3.340822,-0.8085278 4.041941,1.2e-5 7.322354,2.8977639 7.322354,6.4682234 0,0.748918 -0.237989,1.432985 -0.50341,2.102174 2.011405,0.997063 3.432351,2.831787 3.432351,5.012874 0,0.99509 -1.05088,3.204319 -1.54979,4.023831 z"
       style="fill:url(#radialGradient90639);fill-opacity:1;stroke:url(#linearGradient90123);stroke-width:1.5;stroke-linecap:butt;stroke-linejoin:miter;stroke-miterlimit:2;stroke-opacity:1;stroke-dasharray:3,1.5;stroke-dashoffset:0"
       id="path90119" />
  </g>
</svg>
