<?xml version="1.0" encoding="UTF-8" standalone="no"?>
<!-- Created with Inkscape (http://www.inkscape.org/) -->

<svg
   xmlns:a="http://ns.adobe.com/AdobeSVGViewerExtensions/3.0/"
   xmlns:i="http://ns.adobe.com/AdobeIllustrator/10.0/"
   xmlns:dc="http://purl.org/dc/elements/1.1/"
   xmlns:cc="http://creativecommons.org/ns#"
   xmlns:rdf="http://www.w3.org/1999/02/22-rdf-syntax-ns#"
   xmlns:svg="http://www.w3.org/2000/svg"
   xmlns="http://www.w3.org/2000/svg"
   xmlns:xlink="http://www.w3.org/1999/xlink"
   xmlns:sodipodi="http://sodipodi.sourceforge.net/DTD/sodipodi-0.dtd"
   xmlns:inkscape="http://www.inkscape.org/namespaces/inkscape"
   width="48px"
   height="48px"
   id="svg1306"
   sodipodi:version="0.32"
   inkscape:version="0.48.4 r9939"
   sodipodi:docname="volume.svg"
   version="1.1">
  <defs
     id="defs1308"><linearGradient
   id="linearGradient9073">
  <stop
     id="stop9075"
     offset="0"
     style="stop-color:#74726e;stop-opacity:1;" />
  <stop
     id="stop9077"
     offset="1"
     style="stop-color:#5d5b58;stop-opacity:0;" />
</linearGradient>
<linearGradient
   inkscape:collect="always"
   id="linearGradient9061">
  <stop
     style="stop-color:#5d5b58;stop-opacity:1;"
     offset="0"
     id="stop9063" />
  <stop
     style="stop-color:#5d5b58;stop-opacity:0;"
     offset="1"
     id="stop9065" />
</linearGradient>
<linearGradient
   inkscape:collect="always"
   id="linearGradient9035">
  <stop
     style="stop-color:#888a85;stop-opacity:1;"
     offset="0"
     id="stop9037" />
  <stop
     style="stop-color:#51534f;stop-opacity:1"
     offset="1"
     id="stop9039" />
</linearGradient>
<linearGradient
   id="linearGradient9027">
  <stop
     style="stop-color:#2e3436;stop-opacity:0.61855668;"
     offset="0"
     id="stop9029" />
  <stop
     style="stop-color:#2e3436;stop-opacity:0;"
     offset="1"
     id="stop9031" />
</linearGradient>
<linearGradient
   inkscape:collect="always"
   id="linearGradient6549">
  <stop
     style="stop-color:#ffffff;stop-opacity:1;"
     offset="0"
     id="stop6551" />
  <stop
     style="stop-color:#ffffff;stop-opacity:0;"
     offset="1"
     id="stop6553" />
</linearGradient>
<linearGradient
   inkscape:collect="always"
   id="linearGradient6527">
  <stop
     style="stop-color:#ffffff;stop-opacity:1;"
     offset="0"
     id="stop6530" />
  <stop
     style="stop-color:#ffffff;stop-opacity:0;"
     offset="1"
     id="stop6532" />
</linearGradient>
<linearGradient
   inkscape:collect="always"
   id="linearGradient6538">
  <stop
     style="stop-color:#ffffff;stop-opacity:1;"
     offset="0"
     id="stop6540" />
  <stop
     style="stop-color:#ffffff;stop-opacity:0;"
     offset="1"
     id="stop6542" />
</linearGradient>
<linearGradient
   inkscape:collect="always"
   id="linearGradient6513">
  <stop
     style="stop-color:#ffffff;stop-opacity:1;"
     offset="0"
     id="stop6515" />
  <stop
     style="stop-color:#ffffff;stop-opacity:0;"
     offset="1"
     id="stop6517" />
</linearGradient>
<linearGradient
   inkscape:collect="always"
   id="linearGradient6497">
  <stop
     style="stop-color:#ffffff;stop-opacity:1;"
     offset="0"
     id="stop6499" />
  <stop
     style="stop-color:#ffffff;stop-opacity:0;"
     offset="1"
     id="stop6501" />
</linearGradient>
<linearGradient
   inkscape:collect="always"
   id="linearGradient6470">
  <stop
     style="stop-color:#ffffff;stop-opacity:1;"
     offset="0"
     id="stop6472" />
  <stop
     style="stop-color:#ffffff;stop-opacity:0;"
     offset="1"
     id="stop6474" />
</linearGradient>
<linearGradient
   inkscape:collect="always"
   xlink:href="#linearGradient6497"
   id="linearGradient7996"
   gradientUnits="userSpaceOnUse"
   x1="287.51730"
   y1="-439.75281"
   x2="289.67633"
   y2="-436.32199" />
<linearGradient
   inkscape:collect="always"
   xlink:href="#linearGradient6513"
   id="linearGradient7998"
   gradientUnits="userSpaceOnUse"
   x1="286.51172"
   y1="-441.29074"
   x2="289.85379"
   y2="-436.14453" />
<linearGradient
   inkscape:collect="always"
   xlink:href="#linearGradient6538"
   id="linearGradient8000"
   gradientUnits="userSpaceOnUse"
   x1="285.94086"
   y1="-439.93900"
   x2="289.39124"
   y2="-436.44290" />
<linearGradient
   inkscape:collect="always"
   xlink:href="#linearGradient6527"
   id="linearGradient8002"
   gradientUnits="userSpaceOnUse"
   x1="275.94193"
   y1="-437.10501"
   x2="279.97546"
   y2="-431.91833" />
<linearGradient
   inkscape:collect="always"
   xlink:href="#linearGradient6549"
   id="linearGradient8004"
   gradientUnits="userSpaceOnUse"
   x1="286.66589"
   y1="-439.48358"
   x2="289.76562"
   y2="-436.70703" />
<linearGradient
   inkscape:collect="always"
   xlink:href="#linearGradient6538"
   id="linearGradient8006"
   gradientUnits="userSpaceOnUse"
   x1="284.80219"
   y1="-441.23294"
   x2="288.89954"
   y2="-436.83109" />
<linearGradient
   inkscape:collect="always"
   xlink:href="#linearGradient6538"
   id="linearGradient8089"
   gradientUnits="userSpaceOnUse"
   x1="286.41476"
   y1="-435.78354"
   x2="290.07755"
   y2="-439.28937" />
<linearGradient
   inkscape:collect="always"
   xlink:href="#linearGradient6549"
   id="linearGradient8091"
   gradientUnits="userSpaceOnUse"
   x1="286.2952"
   y1="-435.6282"
   x2="289.39493"
   y2="-438.18988" />
<linearGradient
   inkscape:collect="always"
   xlink:href="#linearGradient6470"
   id="linearGradient8093"
   gradientUnits="userSpaceOnUse"
   x1="276.61383"
   y1="-431.00018"
   x2="283.46283"
   y2="-438.72214" />
<linearGradient
   inkscape:collect="always"
   xlink:href="#linearGradient6538"
   id="linearGradient8095"
   gradientUnits="userSpaceOnUse"
   x1="286.01407"
   y1="-435.54623"
   x2="288.375"
   y2="-438.97083" />
<linearGradient
   inkscape:collect="always"
   xlink:href="#linearGradient6513"
   id="linearGradient8097"
   gradientUnits="userSpaceOnUse"
   x1="287.14722"
   y1="-434.80862"
   x2="289.4725"
   y2="-437.59375" />
<linearGradient
   inkscape:collect="always"
   xlink:href="#linearGradient6497"
   id="linearGradient8099"
   gradientUnits="userSpaceOnUse"
   x1="286.24631"
   y1="-434.73236"
   x2="290.12119"
   y2="-439.69016" />
<linearGradient
   inkscape:collect="always"
   xlink:href="#linearGradient6470"
   id="linearGradient8130"
   gradientUnits="userSpaceOnUse"
   gradientTransform="matrix(1.451509,0,0,1.285865,-383.2098,574.3842)"
   x1="271.02170"
   y1="-441.05182"
   x2="285.02859"
   y2="-431.96991" />
<linearGradient
   inkscape:collect="always"
   xlink:href="#linearGradient6538"
   id="linearGradient9023"
   gradientUnits="userSpaceOnUse"
   x1="286.41476"
   y1="-435.78354"
   x2="288.375"
   y2="-437.8876" />
<radialGradient
   inkscape:collect="always"
   xlink:href="#linearGradient9027"
   id="radialGradient9033"
   cx="23.334522"
   cy="44.420273"
   fx="23.334522"
   fy="44.420273"
   r="18.561552"
   gradientTransform="matrix(1,0,0,0.192857,0,35.85351)"
   gradientUnits="userSpaceOnUse" />
<linearGradient
   inkscape:collect="always"
   xlink:href="#linearGradient9035"
   id="linearGradient9041"
   x1="20.730019"
   y1="29.8146"
   x2="23.295853"
   y2="45.055626"
   gradientUnits="userSpaceOnUse"
   gradientTransform="matrix(0.988952,0,0,0.988968,0.265155,0.251338)" />
<linearGradient
   inkscape:collect="always"
   xlink:href="#linearGradient9061"
   id="linearGradient9067"
   x1="29.123692"
   y1="38.897343"
   x2="27.355925"
   y2="34.879128"
   gradientUnits="userSpaceOnUse" />
<linearGradient
   inkscape:collect="always"
   xlink:href="#linearGradient9073"
   id="linearGradient9071"
   gradientUnits="userSpaceOnUse"
   x1="29.123692"
   y1="38.897343"
   x2="27.355925"
   y2="34.879128"
   gradientTransform="matrix(0.916817,-0.399307,0.399307,0.916817,-4.080402,7.972345)" />
<linearGradient
   y2="17.0508"
   x2="14.418"
   y1="10.0088"
   x1="11.668"
   gradientUnits="userSpaceOnUse"
   id="linearGradient4841"
   xlink:href="#XMLID_4_"
   inkscape:collect="always" />

			
		<linearGradient
   id="XMLID_4_"
   gradientUnits="userSpaceOnUse"
   x1="11.668"
   y1="10.0088"
   x2="14.418"
   y2="17.0508">
				<stop
   offset="0"
   style="stop-color:#888A85"
   id="stop3936" />

				<stop
   offset="1"
   style="stop-color:#000000"
   id="stop3938" />

				<a:midPointStop
   offset="0"
   style="stop-color:#888A85" />

				<a:midPointStop
   offset="0.5"
   style="stop-color:#888A85" />

				<a:midPointStop
   offset="1"
   style="stop-color:#000000" />

			</linearGradient>

			 
			 
			 
			 
			 
			<linearGradient
   gradientTransform="matrix(1,0,0,0.958618,1.078496,1.089718)"
   id="XMLID_3_"
   gradientUnits="userSpaceOnUse"
   x1="0.58350003"
   y1="2.5420001"
   x2="17.75"
   y2="2.5420001">
				<stop
   offset="0"
   style="stop-color:#D3D7CF"
   id="stop3921" />

				<stop
   offset="1"
   style="stop-color:#888A85"
   id="stop3923" />

				<a:midPointStop
   offset="0"
   style="stop-color:#D3D7CF" />

				<a:midPointStop
   offset="0.5"
   style="stop-color:#D3D7CF" />

				<a:midPointStop
   offset="1"
   style="stop-color:#888A85" />

			</linearGradient>

			 
			<linearGradient
   id="linearGradient2303">
  <stop
     id="stop2305"
     offset="0"
     style="stop-color:#ffffff;stop-opacity:1;" />
  <stop
     id="stop2307"
     offset="1"
     style="stop-color:#d5d5d0;stop-opacity:1;" />
</linearGradient>
<linearGradient
   id="linearGradient2311">
  <stop
     id="stop2313"
     offset="0"
     style="stop-color:#546063;stop-opacity:1;" />
  <stop
     id="stop2315"
     offset="1"
     style="stop-color:#2e3436;stop-opacity:1;" />
</linearGradient>
<linearGradient
   id="linearGradient7197">
  <stop
     id="stop7199"
     offset="0"
     style="stop-color:#8dbf14;stop-opacity:1;" />
  <stop
     id="stop7201"
     offset="1"
     style="stop-color:#b2e92d;stop-opacity:1;" />
</linearGradient>
<linearGradient
   inkscape:collect="always"
   xlink:href="#linearGradient2311"
   id="linearGradient19547"
   gradientUnits="userSpaceOnUse"
   gradientTransform="matrix(0.971519,0,0,0.99888,0.375401,0.02447482)"
   x1="1.4386588"
   y1="0.075351715"
   x2="20.093121"
   y2="22.484499" />
<linearGradient
   inkscape:collect="always"
   xlink:href="#linearGradient7197"
   id="linearGradient19549"
   gradientUnits="userSpaceOnUse"
   x1="4.587523"
   y1="4.9539423"
   x2="17.252875"
   y2="4.9539423" />
<linearGradient
   inkscape:collect="always"
   xlink:href="#linearGradient2303"
   id="linearGradient19573"
   gradientUnits="userSpaceOnUse"
   gradientTransform="matrix(0.971519,0,0,0.99888,0.375401,0.02447482)"
   x1="3.3271668"
   y1="1.8046076"
   x2="18.31258"
   y2="20.80127" />
</defs>
  <sodipodi:namedview
     id="base"
     pagecolor="#ffffff"
     bordercolor="#666666"
     borderopacity="1.0"
     inkscape:pageopacity="0.0"
     inkscape:pageshadow="2"
     inkscape:zoom="16.970563"
     inkscape:cx="16.748061"
     inkscape:cy="24.408556"
     inkscape:current-layer="layer1"
     showgrid="true"
     inkscape:grid-bbox="false"
     inkscape:document-units="px"
     inkscape:window-width="2560"
     inkscape:window-height="1496"
     inkscape:window-x="-8"
     inkscape:window-y="-8"
     inkscape:showpageshadow="false"
     showguides="true"
     inkscape:guide-bbox="true"
     inkscape:window-maximized="1" />
  <metadata
     id="metadata1311">
    <rdf:RDF>
      <cc:Work
         rdf:about="">
        <dc:format>image/svg+xml</dc:format>
        <dc:type
           rdf:resource="http://purl.org/dc/dcmitype/StillImage" />
        <dc:title></dc:title>
        <dc:date>January 2006</dc:date>
        <dc:creator>
          <cc:Agent>
            <dc:title>Ryan Collier (pseudo)</dc:title>
          </cc:Agent>
        </dc:creator>
        <dc:publisher>
          <cc:Agent>
            <dc:title>http://www.tango-project.org</dc:title>
          </cc:Agent>
        </dc:publisher>
        <dc:source>http://www.pseudocode.org</dc:source>
        <dc:subject>
          <rdf:Bag>
            <rdf:li>weather</rdf:li>
            <rdf:li>applet</rdf:li>
            <rdf:li>notify</rdf:li>
          </rdf:Bag>
        </dc:subject>
        <cc:license
           rdf:resource="http://creativecommons.org/licenses/by-sa/2.0/" />
      </cc:Work>
      <cc:License
         rdf:about="http://creativecommons.org/licenses/by-sa/2.0/">
        <cc:permits
           rdf:resource="http://web.resource.org/cc/Reproduction" />
        <cc:permits
           rdf:resource="http://web.resource.org/cc/Distribution" />
        <cc:requires
           rdf:resource="http://web.resource.org/cc/Notice" />
        <cc:requires
           rdf:resource="http://web.resource.org/cc/Attribution" />
        <cc:permits
           rdf:resource="http://web.resource.org/cc/DerivativeWorks" />
        <cc:requires
           rdf:resource="http://web.resource.org/cc/ShareAlike" />
      </cc:License>
    </rdf:RDF>
  </metadata>
  <g
     id="layer1"
     inkscape:label="Layer 1"
     inkscape:groupmode="layer">
    <path
       sodipodi:type="arc"
       style="opacity:1;color:black;fill:url(#radialGradient9033);fill-opacity:1;fill-rule:evenodd;stroke:none;stroke-width:2;stroke-linecap:round;stroke-linejoin:miter;marker:none;marker-start:none;marker-mid:none;marker-end:none;stroke-miterlimit:4;stroke-dasharray:none;stroke-dashoffset:0;stroke-opacity:0.50196078;visibility:visible;display:inline;overflow:visible"
       id="path9025"
       sodipodi:cx="23.334522"
       sodipodi:cy="44.420273"
       sodipodi:rx="18.561552"
       sodipodi:ry="3.5797279"
       d="M 41.896074 44.420273 A 18.561552 3.5797279 0 1 1  4.7729702,44.420273 A 18.561552 3.5797279 0 1 1  41.896074 44.420273 z"
       transform="matrix(1.148148,0,0,1.148148,-3.456966,-6.580781)" />
    <path
       id="path7796"
       style="fill:#c4c5c2;fill-opacity:1;stroke:url(#linearGradient9041);stroke-width:1.50000036;stroke-linecap:butt;stroke-linejoin:miter;stroke-miterlimit:2;stroke-dasharray:none;stroke-dashoffset:0;stroke-opacity:1"
       d="M 43.50499,22.879908 C 44.045791,23.73991 45.081385,25.770379 45.081385,26.82331 C 45.081385,29.067187 43.619736,30.954732 41.550712,31.980501 C 41.823736,32.668955 42.068544,33.372717 42.068544,34.143194 C 42.068544,37.816447 38.694159,40.797622 34.536436,40.797636 C 33.275954,40.797636 32.14421,40.450048 31.099914,39.96583 C 30.182745,42.727051 27.412315,44.7903 23.991491,44.7903 C 20.570663,44.7903 17.800233,42.727051 16.883064,39.96583 C 15.838769,40.450048 14.707023,40.797636 13.446543,40.797636 C 9.2888195,40.797636 5.9144199,37.81646 5.9144359,34.143194 C 5.9144359,33.372704 6.1592593,32.668969 6.4322672,31.980501 C 4.3632432,30.954732 2.9015935,29.067187 2.9015935,26.82331 C 2.9015935,25.629379 3.2976969,22.818742 3.9068549,21.814444 C 3.2523603,20.86127 2.9193856,19.834896 2.9193856,18.740234 C 2.9193856,16.496356 4.3810353,14.608811 6.4500592,13.583042 C 6.1770513,12.894574 5.9322278,12.19084 5.9322278,11.420349 C 5.9322119,7.7470852 9.3066106,4.7659091 13.464333,4.7659091 C 14.724816,4.7659091 15.85656,5.1134971 16.900857,5.5977141 C 17.818026,2.8364939 20.588456,0.77324452 24.009282,0.77324452 C 27.430108,0.77324452 30.200537,2.8364939 31.117707,5.5977141 C 32.162002,5.1134971 33.293748,4.7659091 34.554229,4.7659091 C 38.711952,4.7659223 42.086336,7.7470986 42.086336,11.420349 C 42.086336,12.190827 41.841527,12.894588 41.568504,13.583042 C 43.637527,14.608811 45.099177,16.496356 45.099177,18.740234 C 45.099177,19.763973 44.018194,22.036804 43.50499,22.879908 z "
       sodipodi:nodetypes="cscsscccsscscscsscccsscsc" />
    <g
       id="g7800"
       transform="matrix(1.523249,0,0,1.345735,-403.2443,600.0954)">
      <path
         transform="matrix(1.056604,0,0,1.056604,-24.19818,21.86331)"
         d="m 291.6875,-437.59375 c 0,1.82944 -1.48306,3.3125 -3.3125,3.3125 -1.82944,0 -3.3125,-1.48306 -3.3125,-3.3125 0,-1.82944 1.48306,-3.3125 3.3125,-3.3125 1.82944,0 3.3125,1.48306 3.3125,3.3125 z"
         sodipodi:ry="3.3125"
         sodipodi:rx="3.3125"
         sodipodi:cy="-437.59375"
         sodipodi:cx="288.375"
         id="path7802"
         style="opacity:1;fill:#c4c5c2;fill-opacity:1;stroke:none;stroke-width:1;stroke-linecap:butt;stroke-linejoin:miter;stroke-miterlimit:2;stroke-dasharray:none;stroke-dashoffset:0;stroke-opacity:1"
         sodipodi:type="arc" />
      <path
         transform="matrix(1.056604,0,0,1.056604,-24.19818,21.86331)"
         d="m 291.6875,-437.59375 c 0,1.82944 -1.48306,3.3125 -3.3125,3.3125 -1.82944,0 -3.3125,-1.48306 -3.3125,-3.3125 0,-1.82944 1.48306,-3.3125 3.3125,-3.3125 1.82944,0 3.3125,1.48306 3.3125,3.3125 z"
         sodipodi:ry="3.3125"
         sodipodi:rx="3.3125"
         sodipodi:cy="-437.59375"
         sodipodi:cx="288.375"
         id="path7804"
         style="opacity:1;fill:url(#linearGradient7996);fill-opacity:1;stroke:none;stroke-width:1;stroke-linecap:butt;stroke-linejoin:miter;stroke-miterlimit:2;stroke-dasharray:none;stroke-dashoffset:0;stroke-opacity:1"
         sodipodi:type="arc" />
    </g>
    <rect
       style="fill:#c4c5c2;fill-opacity:1;stroke:none;stroke-width:1;stroke-linecap:butt;stroke-linejoin:miter;stroke-miterlimit:2;stroke-dasharray:none;stroke-dashoffset:0;stroke-opacity:1"
       id="rect7806"
       width="30.464998"
       height="12.111609"
       x="9.5564947"
       y="10.663828" />
    <path
       sodipodi:type="arc"
       style="fill:#c4c5c2;fill-opacity:1;stroke:none;stroke-width:1;stroke-linecap:butt;stroke-linejoin:miter;stroke-miterlimit:2;stroke-dasharray:none;stroke-dashoffset:0;stroke-opacity:1"
       id="path7808"
       sodipodi:cx="288.375"
       sodipodi:cy="-437.59375"
       sodipodi:rx="3.3125"
       sodipodi:ry="3.3125"
       d="M 291.6875 -437.59375 A 3.3125 3.3125 0 1 1  285.0625,-437.59375 A 3.3125 3.3125 0 1 1  291.6875 -437.59375 z"
       transform="matrix(1.379548,0,0,1.218778,-388.2705,552.068)" />
    <g
       id="g7810"
       transform="matrix(1.523249,0,0,1.345735,-403.2443,600.0954)">
      <path
         transform="matrix(1.056604,0,0,1.056604,-17.19811,24.86321)"
         d="m 291.6875,-437.59375 c 0,1.82944 -1.48306,3.3125 -3.3125,3.3125 -1.82944,0 -3.3125,-1.48306 -3.3125,-3.3125 0,-1.82944 1.48306,-3.3125 3.3125,-3.3125 1.82944,0 3.3125,1.48306 3.3125,3.3125 z"
         sodipodi:ry="3.3125"
         sodipodi:rx="3.3125"
         sodipodi:cy="-437.59375"
         sodipodi:cx="288.375"
         id="path7812"
         style="opacity:1;fill:#c4c5c2;fill-opacity:1;stroke:none;stroke-width:1;stroke-linecap:butt;stroke-linejoin:miter;stroke-miterlimit:2;stroke-dasharray:none;stroke-dashoffset:0;stroke-opacity:1"
         sodipodi:type="arc" />
      <path
         transform="matrix(1.056604,0,0,1.056604,-17.19818,24.86331)"
         d="m 291.6875,-437.59375 c 0,1.82944 -1.48306,3.3125 -3.3125,3.3125 -1.82944,0 -3.3125,-1.48306 -3.3125,-3.3125 0,-1.82944 1.48306,-3.3125 3.3125,-3.3125 1.82944,0 3.3125,1.48306 3.3125,3.3125 z"
         sodipodi:ry="3.3125"
         sodipodi:rx="3.3125"
         sodipodi:cy="-437.59375"
         sodipodi:cx="288.375"
         id="path7814"
         style="opacity:1;fill:url(#linearGradient7998);fill-opacity:1;stroke:none;stroke-width:1;stroke-linecap:butt;stroke-linejoin:miter;stroke-miterlimit:2;stroke-dasharray:none;stroke-dashoffset:0;stroke-opacity:1"
         sodipodi:type="arc" />
    </g>
    <g
       id="g7816"
       transform="matrix(1.523249,0,0,1.345735,-403.2443,600.0954)">
      <path
         transform="matrix(1.056604,0,0,1.056604,-31.19818,24.86331)"
         d="m 291.6875,-437.59375 c 0,1.82944 -1.48306,3.3125 -3.3125,3.3125 -1.82944,0 -3.3125,-1.48306 -3.3125,-3.3125 0,-1.82944 1.48306,-3.3125 3.3125,-3.3125 1.82944,0 3.3125,1.48306 3.3125,3.3125 z"
         sodipodi:ry="3.3125"
         sodipodi:rx="3.3125"
         sodipodi:cy="-437.59375"
         sodipodi:cx="288.375"
         id="path7818"
         style="opacity:1;fill:#c4c5c2;fill-opacity:1;stroke:none;stroke-width:1;stroke-linecap:butt;stroke-linejoin:miter;stroke-miterlimit:2;stroke-dasharray:none;stroke-dashoffset:0;stroke-opacity:1"
         sodipodi:type="arc" />
      <path
         transform="matrix(1.056604,0,0,1.056604,-31.19818,24.86331)"
         d="m 291.6875,-437.59375 c 0,1.82944 -1.48306,3.3125 -3.3125,3.3125 -1.82944,0 -3.3125,-1.48306 -3.3125,-3.3125 0,-1.82944 1.48306,-3.3125 3.3125,-3.3125 1.82944,0 3.3125,1.48306 3.3125,3.3125 z"
         sodipodi:ry="3.3125"
         sodipodi:rx="3.3125"
         sodipodi:cy="-437.59375"
         sodipodi:cx="288.375"
         id="path7820"
         style="opacity:1;fill:url(#linearGradient8000);fill-opacity:1;stroke:none;stroke-width:1;stroke-linecap:butt;stroke-linejoin:miter;stroke-miterlimit:2;stroke-dasharray:none;stroke-dashoffset:0;stroke-opacity:1"
         sodipodi:type="arc" />
    </g>
    <g
       id="g7822"
       transform="matrix(1.523249,0,0,1.345735,-404.7675,600.0954)">
      <path
         id="path7824"
         d="M 280.46875,-440.96875 C 276.88937,-440.96875 274,-438.04812 274,-434.46875 C 274,-432.09807 275.34943,-430.13096 277.25,-429 L 283.71875,-429 C 285.61932,-430.13096 286.96875,-432.12931 286.96875,-434.5 C 286.96875,-438.07938 284.04812,-440.96875 280.46875,-440.96875 z "
         style="opacity:1;fill:#c4c5c2;fill-opacity:1;stroke:none;stroke-width:1;stroke-linecap:butt;stroke-linejoin:miter;stroke-miterlimit:2;stroke-dasharray:none;stroke-dashoffset:0;stroke-opacity:1" />
      <path
         id="path7826"
         d="M 280.5,-441 C 276.912,-441 274,-438.08799 274,-434.5 C 274,-432.1236 275.34485,-430.13368 277.25,-429 L 283.75,-429 C 285.65515,-430.13368 287,-432.1236 287,-434.5 C 287,-438.088 284.088,-440.99999 280.5,-441 z "
         style="opacity:1;fill:url(#linearGradient8002);fill-opacity:1;stroke:none;stroke-width:1;stroke-linecap:butt;stroke-linejoin:miter;stroke-miterlimit:2;stroke-dasharray:none;stroke-dashoffset:0;stroke-opacity:1" />
    </g>
    <path
       sodipodi:type="arc"
       style="fill:url(#linearGradient8004);fill-opacity:1;stroke:none;stroke-width:1;stroke-linecap:butt;stroke-linejoin:miter;stroke-miterlimit:2;stroke-dasharray:none;stroke-dashoffset:0;stroke-opacity:1"
       id="path7828"
       sodipodi:cx="288.375"
       sodipodi:cy="-437.59375"
       sodipodi:rx="3.3125"
       sodipodi:ry="3.3125"
       d="M 291.6875 -437.59375 A 3.3125 3.3125 0 1 1  285.0625,-437.59375 A 3.3125 3.3125 0 1 1  291.6875 -437.59375 z"
       transform="matrix(1.379548,0,0,1.218778,-388.2703,552.0678)" />
    <g
       id="g7832"
       transform="matrix(1.740857,0,0,1.537982,-446.7657,690.2597)">
      <path
         transform="matrix(1.056604,0,0,1.056604,-31.19818,24.86331)"
         d="m 291.6875,-437.59375 c 0,1.82944 -1.48306,3.3125 -3.3125,3.3125 -1.82944,0 -3.3125,-1.48306 -3.3125,-3.3125 0,-1.82944 1.48306,-3.3125 3.3125,-3.3125 1.82944,0 3.3125,1.48306 3.3125,3.3125 z"
         sodipodi:ry="3.3125"
         sodipodi:rx="3.3125"
         sodipodi:cy="-437.59375"
         sodipodi:cx="288.375"
         id="path7834"
         style="opacity:1;fill:#c4c5c2;fill-opacity:1;stroke:none;stroke-width:1;stroke-linecap:butt;stroke-linejoin:miter;stroke-miterlimit:2;stroke-dasharray:none;stroke-dashoffset:0;stroke-opacity:1"
         sodipodi:type="arc" />
      <path
         transform="matrix(1.056604,0,0,1.056604,-31.19818,24.86331)"
         d="m 291.6875,-437.59375 c 0,1.82944 -1.48306,3.3125 -3.3125,3.3125 -1.82944,0 -3.3125,-1.48306 -3.3125,-3.3125 0,-1.82944 1.48306,-3.3125 3.3125,-3.3125 1.82944,0 3.3125,1.48306 3.3125,3.3125 z"
         sodipodi:ry="3.3125"
         sodipodi:rx="3.3125"
         sodipodi:cy="-437.59375"
         sodipodi:cx="288.375"
         id="path7836"
         style="opacity:1;fill:url(#linearGradient8006);fill-opacity:1;stroke:none;stroke-width:1;stroke-linecap:butt;stroke-linejoin:miter;stroke-miterlimit:2;stroke-dasharray:none;stroke-dashoffset:0;stroke-opacity:1"
         sodipodi:type="arc" />
    </g>
    <g
       id="g8014"
       transform="matrix(1.523249,0,0,-1.345735,-403.2623,-554.4459)">
      <path
         transform="matrix(1.056604,0,0,1.056604,-24.19818,21.86331)"
         d="m 291.6875,-437.59375 c 0,1.82944 -1.48306,3.3125 -3.3125,3.3125 -1.82944,0 -3.3125,-1.48306 -3.3125,-3.3125 0,-1.82944 1.48306,-3.3125 3.3125,-3.3125 1.82944,0 3.3125,1.48306 3.3125,3.3125 z"
         sodipodi:ry="3.3125"
         sodipodi:rx="3.3125"
         sodipodi:cy="-437.59375"
         sodipodi:cx="288.375"
         id="path8016"
         style="opacity:1;fill:#c4c5c2;fill-opacity:1;stroke:none;stroke-width:1;stroke-linecap:butt;stroke-linejoin:miter;stroke-miterlimit:2;stroke-dasharray:none;stroke-dashoffset:0;stroke-opacity:1"
         sodipodi:type="arc" />
      <path
         transform="matrix(1.056604,0,0,1.056604,-24.19818,21.86331)"
         d="m 291.6875,-437.59375 c 0,1.82944 -1.48306,3.3125 -3.3125,3.3125 -1.82944,0 -3.3125,-1.48306 -3.3125,-3.3125 0,-1.82944 1.48306,-3.3125 3.3125,-3.3125 1.82944,0 3.3125,1.48306 3.3125,3.3125 z"
         sodipodi:ry="3.3125"
         sodipodi:rx="3.3125"
         sodipodi:cy="-437.59375"
         sodipodi:cx="288.375"
         id="path8018"
         style="opacity:1;fill:url(#linearGradient8099);fill-opacity:1;stroke:none;stroke-width:1;stroke-linecap:butt;stroke-linejoin:miter;stroke-miterlimit:2;stroke-dasharray:none;stroke-dashoffset:0;stroke-opacity:1"
         sodipodi:type="arc" />
    </g>
    <rect
       style="fill:#c4c5c2;fill-opacity:1;stroke:none;stroke-width:1;stroke-linecap:butt;stroke-linejoin:miter;stroke-miterlimit:2;stroke-dasharray:none;stroke-dashoffset:0;stroke-opacity:1"
       id="rect8020"
       width="30.464998"
       height="12.111609"
       x="9.5385027"
       y="-34.985878"
       transform="scale(1,-1)" />
    <path
       sodipodi:type="arc"
       style="fill:#c4c5c2;fill-opacity:1;stroke:none;stroke-width:1;stroke-linecap:butt;stroke-linejoin:miter;stroke-miterlimit:2;stroke-dasharray:none;stroke-dashoffset:0;stroke-opacity:1"
       id="path8022"
       sodipodi:cx="288.375"
       sodipodi:cy="-437.59375"
       sodipodi:rx="3.3125"
       sodipodi:ry="3.3125"
       d="M 291.6875 -437.59375 A 3.3125 3.3125 0 1 1  285.0625,-437.59375 A 3.3125 3.3125 0 1 1  291.6875 -437.59375 z"
       transform="matrix(1.379548,0,0,-1.218778,-388.2883,-506.4185)" />
    <g
       id="g8024"
       transform="matrix(1.523249,0,0,-1.345735,-403.2623,-554.4459)">
      <path
         transform="matrix(1.056604,0,0,1.056604,-17.19811,24.86321)"
         d="m 291.6875,-437.59375 c 0,1.82944 -1.48306,3.3125 -3.3125,3.3125 -1.82944,0 -3.3125,-1.48306 -3.3125,-3.3125 0,-1.82944 1.48306,-3.3125 3.3125,-3.3125 1.82944,0 3.3125,1.48306 3.3125,3.3125 z"
         sodipodi:ry="3.3125"
         sodipodi:rx="3.3125"
         sodipodi:cy="-437.59375"
         sodipodi:cx="288.375"
         id="path8026"
         style="opacity:1;fill:#c4c5c2;fill-opacity:1;stroke:none;stroke-width:1;stroke-linecap:butt;stroke-linejoin:miter;stroke-miterlimit:2;stroke-dasharray:none;stroke-dashoffset:0;stroke-opacity:1"
         sodipodi:type="arc" />
      <path
         transform="matrix(1.056604,0,0,1.056604,-17.19818,24.86331)"
         d="m 291.6875,-437.59375 c 0,1.82944 -1.48306,3.3125 -3.3125,3.3125 -1.82944,0 -3.3125,-1.48306 -3.3125,-3.3125 0,-1.82944 1.48306,-3.3125 3.3125,-3.3125 1.82944,0 3.3125,1.48306 3.3125,3.3125 z"
         sodipodi:ry="3.3125"
         sodipodi:rx="3.3125"
         sodipodi:cy="-437.59375"
         sodipodi:cx="288.375"
         id="path8028"
         style="opacity:1;fill:url(#linearGradient8097);fill-opacity:1;stroke:none;stroke-width:1;stroke-linecap:butt;stroke-linejoin:miter;stroke-miterlimit:2;stroke-dasharray:none;stroke-dashoffset:0;stroke-opacity:1"
         sodipodi:type="arc" />
    </g>
    <g
       id="g8030"
       transform="matrix(1.523249,0,0,-1.345735,-403.2623,-554.4459)">
      <path
         transform="matrix(1.056604,0,0,1.056604,-31.19818,24.86331)"
         d="m 291.6875,-437.59375 c 0,1.82944 -1.48306,3.3125 -3.3125,3.3125 -1.82944,0 -3.3125,-1.48306 -3.3125,-3.3125 0,-1.82944 1.48306,-3.3125 3.3125,-3.3125 1.82944,0 3.3125,1.48306 3.3125,3.3125 z"
         sodipodi:ry="3.3125"
         sodipodi:rx="3.3125"
         sodipodi:cy="-437.59375"
         sodipodi:cx="288.375"
         id="path8032"
         style="opacity:1;fill:#c4c5c2;fill-opacity:1;stroke:none;stroke-width:1;stroke-linecap:butt;stroke-linejoin:miter;stroke-miterlimit:2;stroke-dasharray:none;stroke-dashoffset:0;stroke-opacity:1"
         sodipodi:type="arc" />
      <path
         transform="matrix(1.056604,0,0,1.056604,-31.19818,24.86331)"
         d="m 291.6875,-437.59375 c 0,1.82944 -1.48306,3.3125 -3.3125,3.3125 -1.82944,0 -3.3125,-1.48306 -3.3125,-3.3125 0,-1.82944 1.48306,-3.3125 3.3125,-3.3125 1.82944,0 3.3125,1.48306 3.3125,3.3125 z"
         sodipodi:ry="3.3125"
         sodipodi:rx="3.3125"
         sodipodi:cy="-437.59375"
         sodipodi:cx="288.375"
         id="path8034"
         style="opacity:1;fill:url(#linearGradient8095);fill-opacity:1;stroke:none;stroke-width:1;stroke-linecap:butt;stroke-linejoin:miter;stroke-miterlimit:2;stroke-dasharray:none;stroke-dashoffset:0;stroke-opacity:1"
         sodipodi:type="arc" />
    </g>
    <g
       id="g8036"
       transform="matrix(1.523249,0,0,-1.345735,-404.7855,-554.4459)">
      <path
         id="path8038"
         d="M 280.46875,-440.96875 C 276.88937,-440.96875 274,-438.04812 274,-434.46875 C 274,-432.09807 275.34943,-430.13096 277.25,-429 L 283.71875,-429 C 285.61932,-430.13096 286.96875,-432.12931 286.96875,-434.5 C 286.96875,-438.07938 284.04812,-440.96875 280.46875,-440.96875 z "
         style="opacity:1;fill:#c4c5c2;fill-opacity:1;stroke:none;stroke-width:1;stroke-linecap:butt;stroke-linejoin:miter;stroke-miterlimit:2;stroke-dasharray:none;stroke-dashoffset:0;stroke-opacity:1" />
      <path
         id="path8040"
         d="M 280.5,-441 C 276.912,-441 274,-438.08799 274,-434.5 C 274,-432.1236 275.34485,-430.13368 277.25,-429 L 283.75,-429 C 285.65515,-430.13368 287,-432.1236 287,-434.5 C 287,-438.088 284.088,-440.99999 280.5,-441 z "
         style="opacity:1;fill:url(#linearGradient8093);fill-opacity:1;stroke:none;stroke-width:1;stroke-linecap:butt;stroke-linejoin:miter;stroke-miterlimit:2;stroke-dasharray:none;stroke-dashoffset:0;stroke-opacity:1" />
    </g>
    <path
       sodipodi:type="arc"
       style="fill:url(#linearGradient8091);fill-opacity:1;stroke:none;stroke-width:1;stroke-linecap:butt;stroke-linejoin:miter;stroke-miterlimit:2;stroke-dasharray:none;stroke-dashoffset:0;stroke-opacity:1"
       id="path8042"
       sodipodi:cx="288.375"
       sodipodi:cy="-437.59375"
       sodipodi:rx="3.3125"
       sodipodi:ry="3.3125"
       d="M 291.6875 -437.59375 A 3.3125 3.3125 0 1 1  285.0625,-437.59375 A 3.3125 3.3125 0 1 1  291.6875 -437.59375 z"
       transform="matrix(1.379548,0,0,-1.218778,-388.2881,-506.4182)" />
    <g
       id="g8046"
       transform="matrix(1.740857,0,0,-1.537982,-450.8749,-647.3211)">
      <path
         transform="matrix(1.056604,0,0,1.056604,-31.19818,24.86331)"
         d="m 291.6875,-437.59375 c 0,1.82944 -1.48306,3.3125 -3.3125,3.3125 -1.82944,0 -3.3125,-1.48306 -3.3125,-3.3125 0,-1.82944 1.48306,-3.3125 3.3125,-3.3125 1.82944,0 3.3125,1.48306 3.3125,3.3125 z"
         sodipodi:ry="3.3125"
         sodipodi:rx="3.3125"
         sodipodi:cy="-437.59375"
         sodipodi:cx="288.375"
         id="path8048"
         style="opacity:1;fill:#c4c5c2;fill-opacity:1;stroke:none;stroke-width:1;stroke-linecap:butt;stroke-linejoin:miter;stroke-miterlimit:2;stroke-dasharray:none;stroke-dashoffset:0;stroke-opacity:1"
         sodipodi:type="arc" />
      <path
         transform="matrix(1.056604,0,0,1.056604,-31.19818,24.86331)"
         d="m 291.6875,-437.59375 c 0,1.82944 -1.48306,3.3125 -3.3125,3.3125 -1.82944,0 -3.3125,-1.48306 -3.3125,-3.3125 0,-1.82944 1.48306,-3.3125 3.3125,-3.3125 1.82944,0 3.3125,1.48306 3.3125,3.3125 z"
         sodipodi:ry="3.3125"
         sodipodi:rx="3.3125"
         sodipodi:cy="-437.59375"
         sodipodi:cx="288.375"
         id="path8050"
         style="opacity:1;fill:url(#linearGradient8089);fill-opacity:1;stroke:none;stroke-width:1;stroke-linecap:butt;stroke-linejoin:miter;stroke-miterlimit:2;stroke-dasharray:none;stroke-dashoffset:0;stroke-opacity:1"
         sodipodi:type="arc" />
    </g>
    <g
       id="g9017"
       transform="matrix(1.740857,0,0,-1.537982,-441.2494,-650.2832)">
      <path
         transform="matrix(1.056604,0,0,1.056604,-31.19818,24.86331)"
         d="m 291.6875,-437.59375 c 0,1.82944 -1.48306,3.3125 -3.3125,3.3125 -1.82944,0 -3.3125,-1.48306 -3.3125,-3.3125 0,-1.82944 1.48306,-3.3125 3.3125,-3.3125 1.82944,0 3.3125,1.48306 3.3125,3.3125 z"
         sodipodi:ry="3.3125"
         sodipodi:rx="3.3125"
         sodipodi:cy="-437.59375"
         sodipodi:cx="288.375"
         id="path9019"
         style="opacity:1;fill:#c4c5c2;fill-opacity:1;stroke:none;stroke-width:1;stroke-linecap:butt;stroke-linejoin:miter;stroke-miterlimit:2;stroke-dasharray:none;stroke-dashoffset:0;stroke-opacity:1"
         sodipodi:type="arc" />
      <path
         transform="matrix(1.056604,0,0,1.056604,-31.19818,24.86331)"
         d="m 291.6875,-437.59375 c 0,1.82944 -1.48306,3.3125 -3.3125,3.3125 -1.82944,0 -3.3125,-1.48306 -3.3125,-3.3125 0,-1.82944 1.48306,-3.3125 3.3125,-3.3125 1.82944,0 3.3125,1.48306 3.3125,3.3125 z"
         sodipodi:ry="3.3125"
         sodipodi:rx="3.3125"
         sodipodi:cy="-437.59375"
         sodipodi:cx="288.375"
         id="path9021"
         style="opacity:1;fill:url(#linearGradient9023);fill-opacity:1;stroke:none;stroke-width:1;stroke-linecap:butt;stroke-linejoin:miter;stroke-miterlimit:2;stroke-dasharray:none;stroke-dashoffset:0;stroke-opacity:1"
         sodipodi:type="arc" />
    </g>
    <path
       id="path7798"
       style="fill:url(#linearGradient8130);fill-opacity:1;stroke:white;stroke-width:0.9999994;stroke-linecap:butt;stroke-linejoin:miter;stroke-miterlimit:2;stroke-dashoffset:0;stroke-opacity:0.50196078"
       d="M 5.50705,22.046636 C 4.513999,23.025908 4.3260383,25.567578 4.3260383,27.020796 C 4.3260383,28.926513 5.9406967,30.597572 7.8631198,31.533616 C 7.6094683,32.161853 7.2216101,32.99723 7.2216101,33.700303 C 7.2215956,37.052197 9.9818007,39.633347 13.924839,39.633347 C 15.096004,39.633347 16.570954,38.915533 17.541228,38.473683 C 18.516571,41.698315 20.64357,43.680196 23.821967,43.680196 C 27.000381,43.680196 29.42392,41.615864 30.365732,38.502088 C 31.336007,38.943938 33.144586,39.661765 34.315762,39.661765 C 38.178838,39.661752 40.653302,37.052186 40.653302,33.700303 C 40.653302,32.997245 40.233367,32.014072 39.979703,31.385848 C 41.902124,30.449803 43.516781,29.068369 43.516781,27.020796 C 43.516781,25.679383 42.668921,24.538435 41.756334,22.955412 C 42.63845,21.353906 43.533923,19.979503 43.533923,18.568921 C 43.533923,16.521346 41.919265,15.139912 39.996844,14.203867 C 40.250511,13.575643 40.670446,12.59247 40.670446,11.889411 C 40.670446,8.5375316 37.599328,6.0160512 33.736254,6.0160382 C 32.565076,6.0160382 31.353152,6.6457782 30.382877,7.0876275 C 29.441062,3.9738512 27.116966,2.17378 23.938555,2.17378 C 20.760156,2.17378 18.533715,3.8914016 17.558373,7.1160322 C 16.588098,6.6741831 15.312033,6.0444559 14.140869,6.0444559 C 10.19783,6.0444559 7.2387392,8.5375187 7.2387536,11.889411 C 7.2387536,12.592482 7.6266118,13.604036 7.8802633,14.232272 C 5.9578404,15.168318 4.3431819,16.663202 4.3431819,18.568921 C 4.3431819,19.979508 4.5700642,21.076785 5.50705,22.046636 z "
       sodipodi:nodetypes="cscsscccsscscscsscccsscss" />
    <path
       style="fill:#888a85;fill-opacity:1;fill-rule:evenodd;stroke:none;stroke-width:1px;stroke-linecap:butt;stroke-linejoin:miter;stroke-opacity:1"
       d="M 42.556975,12.414559 C 42.554696,15.94208 37.694499,17.294699 37.694499,17.294699 C 37.694499,17.294699 41.187855,15.158199 41.170169,12.426307 C 41.170169,12.426307 42.556975,12.414559 42.556975,12.414559 z "
       id="path7830"
       sodipodi:nodetypes="ccss" />
    <path
       style="fill:url(#linearGradient9067);fill-opacity:1.0;fill-rule:evenodd;stroke:none;stroke-width:1px;stroke-linecap:butt;stroke-linejoin:miter;stroke-opacity:1"
       d="M 31.805464,41.029946 C 27.968913,40.404531 27.355925,34.879126 27.355925,34.879126 C 27.355925,34.879126 29.062934,39.056216 32.037589,39.519417 C 32.037589,39.519417 31.805464,41.029946 31.805464,41.029946 z "
       id="path8044"
       sodipodi:nodetypes="ccss" />
    <path
       style="fill:url(#linearGradient9071);fill-opacity:1.0;fill-rule:evenodd;stroke:none;stroke-width:1px;stroke-linecap:butt;stroke-linejoin:miter;stroke-opacity:1"
       d="M 41.462947,32.889154 C 37.695799,33.847725 34.927467,29.026709 34.927467,29.026709 C 34.927467,29.026709 38.160424,32.174716 41.072598,31.411586 C 41.072598,31.411586 41.462947,32.889154 41.462947,32.889154 z "
       id="path9069"
       sodipodi:nodetypes="ccss" />
    <g
       style="overflow:visible"
       id="g18743"
       transform="matrix(1.2406364,0,0,1.2406364,23.533913,20.406413)">
      <rect
         x="2.3814175"
         y="0.72520751"
         i:knockout="Off"
         width="16.906494"
         height="21.13312"
         id="rect3918"
         style="fill:url(#linearGradient19573);fill-opacity:1;stroke:url(#linearGradient19547);stroke-width:0.80603766;stroke-miterlimit:4;stroke-opacity:1;stroke-dasharray:none"
         ry="1.4811053" />
      <rect
         ry="0"
         y="2.8635094"
         x="4.587523"
         height="4.1808658"
         width="12.665352"
         id="rect1389"
         style="color:#000000;fill:url(#linearGradient19549);fill-opacity:1;fill-rule:evenodd;stroke:none;stroke-width:1.25233293;marker:none;visibility:visible;display:inline;overflow:visible" />
      <rect
         ry="0"
         y="2.81775"
         x="4.587523"
         height="1.408875"
         width="12.665352"
         id="rect7195"
         style="color:#000000;fill:#6d940f;fill-opacity:1;fill-rule:evenodd;stroke:none;stroke-width:1.25233293;marker:none;visibility:visible;display:inline;overflow:visible" />
      <rect
         y="9.1576853"
         x="5.277441"
         height="9.8621225"
         width="11.271002"
         id="rect7205"
         style="color:#000000;fill:#eeeeec;fill-opacity:1;fill-rule:evenodd;stroke:#888a85;stroke-width:0.80603814;stroke-linecap:butt;stroke-linejoin:miter;stroke-miterlimit:4;stroke-opacity:1;stroke-dasharray:none;stroke-dashoffset:0;marker:none;visibility:visible;display:inline;overflow:visible" />
      <g
         style="stroke:#babdb6;stroke-width:0.57743049"
         transform="matrix(1,0,0,0.759942,0,3.384106)"
         id="g7213">
        <path
           style="fill:none;stroke:#babdb6;stroke-width:0.92462361;stroke-linecap:butt;stroke-linejoin:miter;stroke-miterlimit:4;stroke-opacity:1;stroke-dasharray:none"
           d="m 8.0951877,8.4375629 0,11.2309631"
           id="path7207"
           inkscape:connector-curvature="0" />
        <path
           style="fill:none;stroke:#babdb6;stroke-width:0.92462361;stroke-linecap:butt;stroke-linejoin:miter;stroke-miterlimit:4;stroke-opacity:1;stroke-dasharray:none"
           d="m 10.912937,8.4688415 0,11.2309625"
           id="path7209"
           inkscape:connector-curvature="0" />
        <path
           style="fill:none;stroke:#babdb6;stroke-width:0.92462361;stroke-linecap:butt;stroke-linejoin:miter;stroke-miterlimit:4;stroke-opacity:1;stroke-dasharray:none"
           d="m 13.730687,8.5256047 0,11.2309623"
           id="path7211"
           inkscape:connector-curvature="0" />
      </g>
      <path
         id="path7220"
         d="m 15.912186,11.975439 -9.8613356,0"
         style="fill:none;stroke:#babdb6;stroke-width:0.80603737;stroke-linecap:butt;stroke-linejoin:miter;stroke-miterlimit:4;stroke-opacity:1;stroke-dasharray:none"
         inkscape:connector-curvature="0" />
      <path
         id="path7222"
         d="m 15.884722,14.793188 -9.8613352,0"
         style="fill:none;stroke:#babdb6;stroke-width:0.80603737;stroke-linecap:butt;stroke-linejoin:miter;stroke-miterlimit:4;stroke-opacity:1;stroke-dasharray:none"
         inkscape:connector-curvature="0" />
    </g>
  </g>
</svg>
