<?xml version="1.0" encoding="UTF-8" standalone="no"?>
<!-- Created with Inkscape (http://www.inkscape.org/) -->

<svg
   xmlns:a="http://ns.adobe.com/AdobeSVGViewerExtensions/3.0/"
   xmlns:dc="http://purl.org/dc/elements/1.1/"
   xmlns:cc="http://creativecommons.org/ns#"
   xmlns:rdf="http://www.w3.org/1999/02/22-rdf-syntax-ns#"
   xmlns:svg="http://www.w3.org/2000/svg"
   xmlns="http://www.w3.org/2000/svg"
   xmlns:xlink="http://www.w3.org/1999/xlink"
   xmlns:sodipodi="http://sodipodi.sourceforge.net/DTD/sodipodi-0.dtd"
   xmlns:inkscape="http://www.inkscape.org/namespaces/inkscape"
   width="48px"
   height="48px"
   id="svg1306"
   sodipodi:version="0.32"
   inkscape:version="0.48.4 r9939"
   sodipodi:docname="volumefromattrib.svg"
   version="1.1">
  <defs
     id="defs1308">
    <linearGradient
       id="linearGradient9073">
      <stop
         id="stop9075"
         offset="0"
         style="stop-color:#74726e;stop-opacity:1;" />
      <stop
         id="stop9077"
         offset="1"
         style="stop-color:#5d5b58;stop-opacity:0;" />
    </linearGradient>
    <linearGradient
       inkscape:collect="always"
       id="linearGradient9061">
      <stop
         style="stop-color:#5d5b58;stop-opacity:1;"
         offset="0"
         id="stop9063" />
      <stop
         style="stop-color:#5d5b58;stop-opacity:0;"
         offset="1"
         id="stop9065" />
    </linearGradient>
    <linearGradient
       inkscape:collect="always"
       id="linearGradient9035">
      <stop
         style="stop-color:#888a85;stop-opacity:1;"
         offset="0"
         id="stop9037" />
      <stop
         style="stop-color:#51534f;stop-opacity:1"
         offset="1"
         id="stop9039" />
    </linearGradient>
    <linearGradient
       id="linearGradient9027">
      <stop
         style="stop-color:#2e3436;stop-opacity:0.61855668;"
         offset="0"
         id="stop9029" />
      <stop
         style="stop-color:#2e3436;stop-opacity:0;"
         offset="1"
         id="stop9031" />
    </linearGradient>
    <linearGradient
       inkscape:collect="always"
       id="linearGradient6549">
      <stop
         style="stop-color:#ffffff;stop-opacity:1;"
         offset="0"
         id="stop6551" />
      <stop
         style="stop-color:#ffffff;stop-opacity:0;"
         offset="1"
         id="stop6553" />
    </linearGradient>
    <linearGradient
       inkscape:collect="always"
       id="linearGradient6527">
      <stop
         style="stop-color:#ffffff;stop-opacity:1;"
         offset="0"
         id="stop6530" />
      <stop
         style="stop-color:#ffffff;stop-opacity:0;"
         offset="1"
         id="stop6532" />
    </linearGradient>
    <linearGradient
       inkscape:collect="always"
       id="linearGradient6538">
      <stop
         style="stop-color:#ffffff;stop-opacity:1;"
         offset="0"
         id="stop6540" />
      <stop
         style="stop-color:#ffffff;stop-opacity:0;"
         offset="1"
         id="stop6542" />
    </linearGradient>
    <linearGradient
       inkscape:collect="always"
       id="linearGradient6513">
      <stop
         style="stop-color:#ffffff;stop-opacity:1;"
         offset="0"
         id="stop6515" />
      <stop
         style="stop-color:#ffffff;stop-opacity:0;"
         offset="1"
         id="stop6517" />
    </linearGradient>
    <linearGradient
       inkscape:collect="always"
       id="linearGradient6497">
      <stop
         style="stop-color:#ffffff;stop-opacity:1;"
         offset="0"
         id="stop6499" />
      <stop
         style="stop-color:#ffffff;stop-opacity:0;"
         offset="1"
         id="stop6501" />
    </linearGradient>
    <linearGradient
       inkscape:collect="always"
       id="linearGradient6470">
      <stop
         style="stop-color:#ffffff;stop-opacity:1;"
         offset="0"
         id="stop6472" />
      <stop
         style="stop-color:#ffffff;stop-opacity:0;"
         offset="1"
         id="stop6474" />
    </linearGradient>
    <linearGradient
       inkscape:collect="always"
       xlink:href="#linearGradient6497"
       id="linearGradient7996"
       gradientUnits="userSpaceOnUse"
       x1="287.51730"
       y1="-439.75281"
       x2="289.67633"
       y2="-436.32199" />
    <linearGradient
       inkscape:collect="always"
       xlink:href="#linearGradient6513"
       id="linearGradient7998"
       gradientUnits="userSpaceOnUse"
       x1="286.51172"
       y1="-441.29074"
       x2="289.85379"
       y2="-436.14453" />
    <linearGradient
       inkscape:collect="always"
       xlink:href="#linearGradient6538"
       id="linearGradient8000"
       gradientUnits="userSpaceOnUse"
       x1="285.94086"
       y1="-439.93900"
       x2="289.39124"
       y2="-436.44290" />
    <linearGradient
       inkscape:collect="always"
       xlink:href="#linearGradient6527"
       id="linearGradient8002"
       gradientUnits="userSpaceOnUse"
       x1="275.94193"
       y1="-437.10501"
       x2="279.97546"
       y2="-431.91833" />
    <linearGradient
       inkscape:collect="always"
       xlink:href="#linearGradient6549"
       id="linearGradient8004"
       gradientUnits="userSpaceOnUse"
       x1="286.66589"
       y1="-439.48358"
       x2="289.76562"
       y2="-436.70703" />
    <linearGradient
       inkscape:collect="always"
       xlink:href="#linearGradient6538"
       id="linearGradient8006"
       gradientUnits="userSpaceOnUse"
       x1="284.80219"
       y1="-441.23294"
       x2="288.89954"
       y2="-436.83109" />
    <linearGradient
       inkscape:collect="always"
       xlink:href="#linearGradient6538"
       id="linearGradient8089"
       gradientUnits="userSpaceOnUse"
       x1="286.41476"
       y1="-435.78354"
       x2="290.07755"
       y2="-439.28937" />
    <linearGradient
       inkscape:collect="always"
       xlink:href="#linearGradient6549"
       id="linearGradient8091"
       gradientUnits="userSpaceOnUse"
       x1="286.2952"
       y1="-435.6282"
       x2="289.39493"
       y2="-438.18988" />
    <linearGradient
       inkscape:collect="always"
       xlink:href="#linearGradient6470"
       id="linearGradient8093"
       gradientUnits="userSpaceOnUse"
       x1="276.61383"
       y1="-431.00018"
       x2="283.46283"
       y2="-438.72214" />
    <linearGradient
       inkscape:collect="always"
       xlink:href="#linearGradient6538"
       id="linearGradient8095"
       gradientUnits="userSpaceOnUse"
       x1="286.01407"
       y1="-435.54623"
       x2="288.375"
       y2="-438.97083" />
    <linearGradient
       inkscape:collect="always"
       xlink:href="#linearGradient6513"
       id="linearGradient8097"
       gradientUnits="userSpaceOnUse"
       x1="287.14722"
       y1="-434.80862"
       x2="289.4725"
       y2="-437.59375" />
    <linearGradient
       inkscape:collect="always"
       xlink:href="#linearGradient6497"
       id="linearGradient8099"
       gradientUnits="userSpaceOnUse"
       x1="286.24631"
       y1="-434.73236"
       x2="290.12119"
       y2="-439.69016" />
    <linearGradient
       inkscape:collect="always"
       xlink:href="#linearGradient6470"
       id="linearGradient8130"
       gradientUnits="userSpaceOnUse"
       gradientTransform="matrix(1.451509,0,0,1.285865,-383.2098,574.3842)"
       x1="271.02170"
       y1="-441.05182"
       x2="285.02859"
       y2="-431.96991" />
    <linearGradient
       inkscape:collect="always"
       xlink:href="#linearGradient6538"
       id="linearGradient9023"
       gradientUnits="userSpaceOnUse"
       x1="286.41476"
       y1="-435.78354"
       x2="288.375"
       y2="-437.8876" />
    <radialGradient
       inkscape:collect="always"
       xlink:href="#linearGradient9027"
       id="radialGradient9033"
       cx="23.334522"
       cy="44.420273"
       fx="23.334522"
       fy="44.420273"
       r="18.561552"
       gradientTransform="matrix(1,0,0,0.192857,0,35.85351)"
       gradientUnits="userSpaceOnUse" />
    <linearGradient
       inkscape:collect="always"
       xlink:href="#linearGradient9035"
       id="linearGradient9041"
       x1="20.730019"
       y1="29.8146"
       x2="23.295853"
       y2="45.055626"
       gradientUnits="userSpaceOnUse"
       gradientTransform="matrix(0.988952,0,0,0.988968,0.265155,0.251338)" />
    <linearGradient
       inkscape:collect="always"
       xlink:href="#linearGradient9061"
       id="linearGradient9067"
       x1="29.123692"
       y1="38.897343"
       x2="27.355925"
       y2="34.879128"
       gradientUnits="userSpaceOnUse" />
    <linearGradient
       inkscape:collect="always"
       xlink:href="#linearGradient9073"
       id="linearGradient9071"
       gradientUnits="userSpaceOnUse"
       x1="29.123692"
       y1="38.897343"
       x2="27.355925"
       y2="34.879128"
       gradientTransform="matrix(0.916817,-0.399307,0.399307,0.916817,-4.080402,7.972345)" />
    <linearGradient
       inkscape:collect="always"
       xlink:href="#linearGradient4464"
       id="linearGradient4728"
       gradientUnits="userSpaceOnUse"
       gradientTransform="matrix(0.830188,0.07965162,-0.07965669,0.830135,86.173796,1.7044212)"
       x1="10.276073"
       y1="35.035416"
       x2="14.831536"
       y2="37.582352" />
    <linearGradient
       inkscape:collect="always"
       id="linearGradient4464">
      <stop
         style="stop-color:#2e3436;stop-opacity:1;"
         offset="0"
         id="stop4466" />
      <stop
         style="stop-color:#2e3436;stop-opacity:0;"
         offset="1"
         id="stop4468" />
    </linearGradient>
    <linearGradient
       inkscape:collect="always"
       xlink:href="#linearGradient4501"
       id="linearGradient4724"
       gradientUnits="userSpaceOnUse"
       gradientTransform="matrix(-0.834001,0,0,0.833948,120.20325,-6.0580184)"
       x1="23.200819"
       y1="3.504847"
       x2="22.285788"
       y2="32.37022" />
    <linearGradient
       inkscape:collect="always"
       id="linearGradient4501">
      <stop
         style="stop-color:#d3d7cf;stop-opacity:1"
         offset="0"
         id="stop4503" />
      <stop
         style="stop-color:white;stop-opacity:1"
         offset="1"
         id="stop4505" />
    </linearGradient>
    <radialGradient
       inkscape:collect="always"
       xlink:href="#linearGradient2911"
       id="radialGradient4718"
       gradientUnits="userSpaceOnUse"
       cx="3.2992275"
       cy="3.4160771"
       fx="3.2992275"
       fy="3.4160771"
       r="2.7505229" />
    <linearGradient
       id="linearGradient2911">
      <stop
         style="stop-color:white;stop-opacity:1;"
         offset="0"
         id="stop2913" />
      <stop
         style="stop-color:#8e8e8e;stop-opacity:1;"
         offset="1"
         id="stop2915" />
    </linearGradient>
    <linearGradient
       inkscape:collect="always"
       xlink:href="#linearGradient4501"
       id="linearGradient4507"
       x1="23.200819"
       y1="3.504847"
       x2="22.285788"
       y2="32.37022"
       gradientUnits="userSpaceOnUse"
       gradientTransform="matrix(-0.49463659,0,0,0.49482895,22.228187,0.01180459)" />
    <linearGradient
       inkscape:collect="always"
       xlink:href="#linearGradient4464"
       id="linearGradient4470"
       x1="10.276073"
       y1="35.035416"
       x2="14.831536"
       y2="37.582352"
       gradientUnits="userSpaceOnUse"
       gradientTransform="matrix(0.49237515,0.04726185,-0.04724349,0.49256648,15.218398,-0.09089496)" />
    <radialGradient
       inkscape:collect="always"
       xlink:href="#linearGradient2911"
       id="radialGradient2917"
       cx="3.2992275"
       cy="3.4160771"
       fx="3.2992275"
       fy="3.4160771"
       r="2.7505229"
       gradientUnits="userSpaceOnUse" />
    <linearGradient
       id="linearGradient22169">
      <stop
         style="stop-color:white;stop-opacity:1;"
         offset="0"
         id="stop22171" />
      <stop
         style="stop-color:#8e8e8e;stop-opacity:1;"
         offset="1"
         id="stop22173" />
    </linearGradient>
    <radialGradient
       r="2.7505229"
       fy="3.4160771"
       fx="3.2992275"
       cy="3.4160771"
       cx="3.2992275"
       gradientUnits="userSpaceOnUse"
       id="radialGradient22183"
       xlink:href="#linearGradient2911"
       inkscape:collect="always" />
    <linearGradient
       inkscape:collect="always"
       xlink:href="#linearGradient4464"
       id="linearGradient22313"
       gradientUnits="userSpaceOnUse"
       gradientTransform="matrix(0.50115955,0.04810411,-0.04808635,0.50134459,26.187867,17.500328)"
       x1="10.276073"
       y1="35.035416"
       x2="14.831536"
       y2="37.582352" />
    <linearGradient
       inkscape:collect="always"
       xlink:href="#linearGradient4501"
       id="linearGradient22315"
       gradientUnits="userSpaceOnUse"
       gradientTransform="matrix(0.50346134,0,0,0.50364738,24.971624,17.615358)"
       x1="23.200819"
       y1="3.504847"
       x2="22.285788"
       y2="32.37022" />
    <radialGradient
       inkscape:collect="always"
       xlink:href="#linearGradient2911"
       id="radialGradient22325"
       gradientUnits="userSpaceOnUse"
       cx="3.2992275"
       cy="3.4160771"
       fx="3.2992275"
       fy="3.4160771"
       r="2.7505229" />
    <linearGradient
       inkscape:collect="always"
       xlink:href="#linearGradient4464"
       id="linearGradient22327"
       gradientUnits="userSpaceOnUse"
       gradientTransform="matrix(0.50115955,0.04810411,-0.04808635,0.50134459,26.128941,-0.29519251)"
       x1="10.276073"
       y1="35.035416"
       x2="14.831536"
       y2="37.582352" />
    <linearGradient
       inkscape:collect="always"
       xlink:href="#linearGradient4501"
       id="linearGradient22329"
       gradientUnits="userSpaceOnUse"
       gradientTransform="matrix(0.50346134,0,0,0.50364738,24.912698,-0.18016251)"
       x1="23.200819"
       y1="3.504847"
       x2="22.285788"
       y2="32.37022" />
    <radialGradient
       inkscape:collect="always"
       xlink:href="#linearGradient2911"
       id="radialGradient22339"
       gradientUnits="userSpaceOnUse"
       cx="3.2992275"
       cy="3.4160771"
       fx="3.2992275"
       fy="3.4160771"
       r="2.7505229" />
    <linearGradient
       inkscape:collect="always"
       xlink:href="#linearGradient4464"
       id="linearGradient22341"
       gradientUnits="userSpaceOnUse"
       gradientTransform="matrix(0.50115955,0.04810411,-0.04808635,0.50134459,14.99201,11.784547)"
       x1="10.276073"
       y1="35.035416"
       x2="14.831536"
       y2="37.582352" />
    <linearGradient
       inkscape:collect="always"
       xlink:href="#linearGradient4501"
       id="linearGradient22343"
       gradientUnits="userSpaceOnUse"
       gradientTransform="matrix(-0.50346134,0,0,-0.50364738,22.375177,48.281429)"
       x1="23.200819"
       y1="3.504847"
       x2="22.285788"
       y2="32.37022" />
    <radialGradient
       inkscape:collect="always"
       xlink:href="#linearGradient2911"
       id="radialGradient22351"
       gradientUnits="userSpaceOnUse"
       cx="3.2992275"
       cy="3.4160771"
       fx="3.2992275"
       fy="3.4160771"
       r="2.7505229" />
    <radialGradient
       inkscape:collect="always"
       xlink:href="#linearGradient2911"
       id="radialGradient22355"
       gradientUnits="userSpaceOnUse"
       cx="3.2992275"
       cy="3.4160771"
       fx="3.2992275"
       fy="3.4160771"
       r="2.7505229" />
    <linearGradient
       inkscape:collect="always"
       xlink:href="#XMLID_14_"
       id="linearGradient47242"
       gradientUnits="userSpaceOnUse"
       gradientTransform="matrix(0.719402,0.783979,0.996304,-0.914237,-199.3491,377.4144)"
       x1="-95.827209"
       y1="297.60828"
       x2="-81.454582"
       y2="297.60828" />
    <linearGradient
       gradientTransform="matrix(0,-1.06403,-1.352201,0,410.4976,-83.41566)"
       y2="297.60828"
       x2="-81.454582"
       y1="297.60828"
       x1="-95.827209"
       gradientUnits="userSpaceOnUse"
       id="XMLID_14_">
      <stop
         id="stop10062"
         style="stop-color:#e96712;stop-opacity:0;"
         offset="0" />
      <stop
         id="stop10064"
         style="stop-color:#D52E0C"
         offset="0.6221" />
      <stop
         id="stop10066"
         style="stop-color:#CB1009"
         offset="1" />
      <a:midPointStop
         style="stop-color:#E96712"
         offset="0" />
      <a:midPointStop
         style="stop-color:#E96712"
         offset="0.4689" />
      <a:midPointStop
         style="stop-color:#CB1009"
         offset="1" />
    </linearGradient>
    <linearGradient
       inkscape:collect="always"
       xlink:href="#linearGradient13805"
       id="linearGradient47244"
       gradientUnits="userSpaceOnUse"
       gradientTransform="matrix(-0.996304,0.914237,-0.904195,-0.98536,50.21274,38.02708)"
       x1="8.0714235"
       y1="3.9933333"
       x2="8.0714235"
       y2="15.42857" />
    <linearGradient
       id="linearGradient13805">
      <stop
         style="stop-color:#590b08;stop-opacity:1;"
         offset="0"
         id="stop13807" />
      <stop
         style="stop-color:black;stop-opacity:0;"
         offset="1"
         id="stop13809" />
    </linearGradient>
    <linearGradient
       y2="297.60828"
       x2="-81.454582"
       y1="297.60828"
       x1="-95.827209"
       gradientTransform="matrix(1.2211124,1.3275302,1.6911256,-1.5480992,-383.59654,615.10132)"
       gradientUnits="userSpaceOnUse"
       id="linearGradient13592"
       xlink:href="#XMLID_14_"
       inkscape:collect="always" />
    <linearGradient
       y2="15.42857"
       x2="8.0714235"
       y1="3.9933333"
       x1="8.0714235"
       gradientTransform="matrix(-1.6911256,1.5480992,-1.5347799,-1.6685334,40.009533,40.408728)"
       gradientUnits="userSpaceOnUse"
       id="linearGradient13594"
       xlink:href="#linearGradient13805"
       inkscape:collect="always" />
  </defs>
  <sodipodi:namedview
     id="base"
     pagecolor="#ffffff"
     bordercolor="#666666"
     borderopacity="1.0"
     inkscape:pageopacity="0.0"
     inkscape:pageshadow="2"
     inkscape:zoom="16.970563"
     inkscape:cx="21.108553"
     inkscape:cy="23.318433"
     inkscape:current-layer="layer1"
     showgrid="true"
     inkscape:grid-bbox="false"
     inkscape:document-units="px"
     inkscape:window-width="2560"
     inkscape:window-height="1496"
     inkscape:window-x="-8"
     inkscape:window-y="-8"
     inkscape:showpageshadow="false"
     showguides="true"
     inkscape:guide-bbox="true"
     inkscape:window-maximized="1" />
  <metadata
     id="metadata1311">
    <rdf:RDF>
      <cc:Work
         rdf:about="">
        <dc:format>image/svg+xml</dc:format>
        <dc:type
           rdf:resource="http://purl.org/dc/dcmitype/StillImage" />
        <dc:title></dc:title>
        <dc:date>January 2006</dc:date>
        <dc:creator>
          <cc:Agent>
            <dc:title>Ryan Collier (pseudo)</dc:title>
          </cc:Agent>
        </dc:creator>
        <dc:publisher>
          <cc:Agent>
            <dc:title>http://www.tango-project.org</dc:title>
          </cc:Agent>
        </dc:publisher>
        <dc:source>http://www.pseudocode.org</dc:source>
        <dc:subject>
          <rdf:Bag>
            <rdf:li>weather</rdf:li>
            <rdf:li>applet</rdf:li>
            <rdf:li>notify</rdf:li>
          </rdf:Bag>
        </dc:subject>
        <cc:license
           rdf:resource="http://creativecommons.org/licenses/by-sa/2.0/" />
      </cc:Work>
      <cc:License
         rdf:about="http://creativecommons.org/licenses/by-sa/2.0/">
        <cc:permits
           rdf:resource="http://web.resource.org/cc/Reproduction" />
        <cc:permits
           rdf:resource="http://web.resource.org/cc/Distribution" />
        <cc:requires
           rdf:resource="http://web.resource.org/cc/Notice" />
        <cc:requires
           rdf:resource="http://web.resource.org/cc/Attribution" />
        <cc:permits
           rdf:resource="http://web.resource.org/cc/DerivativeWorks" />
        <cc:requires
           rdf:resource="http://web.resource.org/cc/ShareAlike" />
      </cc:License>
    </rdf:RDF>
  </metadata>
  <g
     id="layer1"
     inkscape:label="Layer 1"
     inkscape:groupmode="layer">
    <g
       id="g22256"
       transform="matrix(0.75126152,0,0,0.75126152,13.290073,12.18921)">
      <path
         transform="matrix(1.148148,0,0,1.148148,-3.456966,-6.580781)"
         d="m 41.896074,44.420273 c 0,1.977029 -8.31029,3.579728 -18.561552,3.579728 -10.251262,0 -18.5615518,-1.602699 -18.5615518,-3.579728 0,-1.977029 8.3102898,-3.579728 18.5615518,-3.579728 10.251262,0 18.561552,1.602699 18.561552,3.579728 z"
         sodipodi:ry="3.5797279"
         sodipodi:rx="18.561552"
         sodipodi:cy="44.420273"
         sodipodi:cx="23.334522"
         id="path9025"
         style="color:#000000;fill:url(#radialGradient9033);fill-opacity:1;fill-rule:evenodd;stroke:none;stroke-width:2;marker:none;visibility:visible;display:inline;overflow:visible"
         sodipodi:type="arc" />
      <path
         sodipodi:nodetypes="cscsscccsscscscsscccsscsc"
         d="m 43.50499,22.879908 c 0.540801,0.860002 1.576395,2.890471 1.576395,3.943402 0,2.243877 -1.461649,4.131422 -3.530673,5.157191 0.273024,0.688454 0.517832,1.392216 0.517832,2.162693 0,3.673253 -3.374385,6.654428 -7.532108,6.654442 -1.260482,0 -2.392226,-0.347588 -3.436522,-0.831806 -0.917169,2.761221 -3.687599,4.82447 -7.108423,4.82447 -3.420828,0 -6.191258,-2.063249 -7.108427,-4.82447 -1.044295,0.484218 -2.176041,0.831806 -3.436521,0.831806 -4.1577235,0 -7.5321231,-2.981176 -7.5321071,-6.654442 0,-0.77049 0.2448234,-1.474225 0.5178313,-2.162693 -2.069024,-1.025769 -3.5306737,-2.913314 -3.5306737,-5.157191 0,-1.193931 0.3961034,-4.004568 1.0052614,-5.008866 -0.6544946,-0.953174 -0.9874693,-1.979548 -0.9874693,-3.07421 0,-2.243878 1.4616497,-4.131423 3.5306736,-5.157192 C 6.1770513,12.894574 5.9322278,12.19084 5.9322278,11.420349 5.9322119,7.7470852 9.3066106,4.7659091 13.464333,4.7659091 c 1.260483,0 2.392227,0.347588 3.436524,0.831805 0.917169,-2.7612202 3.687599,-4.82446958 7.108425,-4.82446958 3.420826,0 6.191255,2.06324938 7.108425,4.82446958 1.044295,-0.484217 2.176041,-0.831805 3.436522,-0.831805 4.157723,1.32e-5 7.532107,2.9811895 7.532107,6.6544399 0,0.770478 -0.244809,1.474239 -0.517832,2.162693 2.069023,1.025769 3.530673,2.913314 3.530673,5.157192 0,1.023739 -1.080983,3.29657 -1.594187,4.139674 z"
         style="fill:#c4c5c2;fill-opacity:1;stroke:url(#linearGradient9041);stroke-width:1.99664211;stroke-linecap:butt;stroke-linejoin:miter;stroke-miterlimit:2;stroke-opacity:1;stroke-dasharray:none;stroke-dashoffset:0"
         id="path7796"
         inkscape:connector-curvature="0" />
      <g
         transform="matrix(1.523249,0,0,1.345735,-403.2443,600.0954)"
         id="g7800">
        <path
           sodipodi:type="arc"
           style="fill:#c4c5c2;fill-opacity:1;stroke:none"
           id="path7802"
           sodipodi:cx="288.375"
           sodipodi:cy="-437.59375"
           sodipodi:rx="3.3125"
           sodipodi:ry="3.3125"
           d="m 291.6875,-437.59375 c 0,1.82944 -1.48306,3.3125 -3.3125,3.3125 -1.82944,0 -3.3125,-1.48306 -3.3125,-3.3125 0,-1.82944 1.48306,-3.3125 3.3125,-3.3125 1.82944,0 3.3125,1.48306 3.3125,3.3125 z"
           transform="matrix(1.056604,0,0,1.056604,-24.19818,21.86331)" />
        <path
           sodipodi:type="arc"
           style="fill:url(#linearGradient7996);fill-opacity:1;stroke:none"
           id="path7804"
           sodipodi:cx="288.375"
           sodipodi:cy="-437.59375"
           sodipodi:rx="3.3125"
           sodipodi:ry="3.3125"
           d="m 291.6875,-437.59375 c 0,1.82944 -1.48306,3.3125 -3.3125,3.3125 -1.82944,0 -3.3125,-1.48306 -3.3125,-3.3125 0,-1.82944 1.48306,-3.3125 3.3125,-3.3125 1.82944,0 3.3125,1.48306 3.3125,3.3125 z"
           transform="matrix(1.056604,0,0,1.056604,-24.19818,21.86331)" />
      </g>
      <rect
         y="10.663828"
         x="9.5564947"
         height="12.111609"
         width="30.464998"
         id="rect7806"
         style="fill:#c4c5c2;fill-opacity:1;stroke:none" />
      <path
         transform="matrix(1.379548,0,0,1.218778,-388.2705,552.068)"
         d="m 291.6875,-437.59375 c 0,1.82944 -1.48306,3.3125 -3.3125,3.3125 -1.82944,0 -3.3125,-1.48306 -3.3125,-3.3125 0,-1.82944 1.48306,-3.3125 3.3125,-3.3125 1.82944,0 3.3125,1.48306 3.3125,3.3125 z"
         sodipodi:ry="3.3125"
         sodipodi:rx="3.3125"
         sodipodi:cy="-437.59375"
         sodipodi:cx="288.375"
         id="path7808"
         style="fill:#c4c5c2;fill-opacity:1;stroke:none"
         sodipodi:type="arc" />
      <g
         transform="matrix(1.523249,0,0,1.345735,-403.2443,600.0954)"
         id="g7810">
        <path
           sodipodi:type="arc"
           style="fill:#c4c5c2;fill-opacity:1;stroke:none"
           id="path7812"
           sodipodi:cx="288.375"
           sodipodi:cy="-437.59375"
           sodipodi:rx="3.3125"
           sodipodi:ry="3.3125"
           d="m 291.6875,-437.59375 c 0,1.82944 -1.48306,3.3125 -3.3125,3.3125 -1.82944,0 -3.3125,-1.48306 -3.3125,-3.3125 0,-1.82944 1.48306,-3.3125 3.3125,-3.3125 1.82944,0 3.3125,1.48306 3.3125,3.3125 z"
           transform="matrix(1.056604,0,0,1.056604,-17.19811,24.86321)" />
        <path
           sodipodi:type="arc"
           style="fill:url(#linearGradient7998);fill-opacity:1;stroke:none"
           id="path7814"
           sodipodi:cx="288.375"
           sodipodi:cy="-437.59375"
           sodipodi:rx="3.3125"
           sodipodi:ry="3.3125"
           d="m 291.6875,-437.59375 c 0,1.82944 -1.48306,3.3125 -3.3125,3.3125 -1.82944,0 -3.3125,-1.48306 -3.3125,-3.3125 0,-1.82944 1.48306,-3.3125 3.3125,-3.3125 1.82944,0 3.3125,1.48306 3.3125,3.3125 z"
           transform="matrix(1.056604,0,0,1.056604,-17.19818,24.86331)" />
      </g>
      <g
         transform="matrix(1.523249,0,0,1.345735,-403.2443,600.0954)"
         id="g7816">
        <path
           sodipodi:type="arc"
           style="fill:#c4c5c2;fill-opacity:1;stroke:none"
           id="path7818"
           sodipodi:cx="288.375"
           sodipodi:cy="-437.59375"
           sodipodi:rx="3.3125"
           sodipodi:ry="3.3125"
           d="m 291.6875,-437.59375 c 0,1.82944 -1.48306,3.3125 -3.3125,3.3125 -1.82944,0 -3.3125,-1.48306 -3.3125,-3.3125 0,-1.82944 1.48306,-3.3125 3.3125,-3.3125 1.82944,0 3.3125,1.48306 3.3125,3.3125 z"
           transform="matrix(1.056604,0,0,1.056604,-31.19818,24.86331)" />
        <path
           sodipodi:type="arc"
           style="fill:url(#linearGradient8000);fill-opacity:1;stroke:none"
           id="path7820"
           sodipodi:cx="288.375"
           sodipodi:cy="-437.59375"
           sodipodi:rx="3.3125"
           sodipodi:ry="3.3125"
           d="m 291.6875,-437.59375 c 0,1.82944 -1.48306,3.3125 -3.3125,3.3125 -1.82944,0 -3.3125,-1.48306 -3.3125,-3.3125 0,-1.82944 1.48306,-3.3125 3.3125,-3.3125 1.82944,0 3.3125,1.48306 3.3125,3.3125 z"
           transform="matrix(1.056604,0,0,1.056604,-31.19818,24.86331)" />
      </g>
      <g
         transform="matrix(1.523249,0,0,1.345735,-404.7675,600.0954)"
         id="g7822">
        <path
           style="fill:#c4c5c2;fill-opacity:1;stroke:none"
           d="m 280.46875,-440.96875 c -3.57938,0 -6.46875,2.92063 -6.46875,6.5 0,2.37068 1.34943,4.33779 3.25,5.46875 l 6.46875,0 c 1.90057,-1.13096 3.25,-3.12931 3.25,-5.5 0,-3.57938 -2.92063,-6.46875 -6.5,-6.46875 z"
           id="path7824"
           inkscape:connector-curvature="0" />
        <path
           style="fill:url(#linearGradient8002);fill-opacity:1;stroke:none"
           d="m 280.5,-441 c -3.588,0 -6.5,2.91201 -6.5,6.5 0,2.3764 1.34485,4.36632 3.25,5.5 l 6.5,0 c 1.90515,-1.13368 3.25,-3.1236 3.25,-5.5 0,-3.588 -2.912,-6.49999 -6.5,-6.5 z"
           id="path7826"
           inkscape:connector-curvature="0" />
      </g>
      <path
         transform="matrix(1.379548,0,0,1.218778,-388.2703,552.0678)"
         d="m 291.6875,-437.59375 c 0,1.82944 -1.48306,3.3125 -3.3125,3.3125 -1.82944,0 -3.3125,-1.48306 -3.3125,-3.3125 0,-1.82944 1.48306,-3.3125 3.3125,-3.3125 1.82944,0 3.3125,1.48306 3.3125,3.3125 z"
         sodipodi:ry="3.3125"
         sodipodi:rx="3.3125"
         sodipodi:cy="-437.59375"
         sodipodi:cx="288.375"
         id="path7828"
         style="fill:url(#linearGradient8004);fill-opacity:1;stroke:none"
         sodipodi:type="arc" />
      <g
         transform="matrix(1.740857,0,0,1.537982,-446.7657,690.2597)"
         id="g7832">
        <path
           sodipodi:type="arc"
           style="fill:#c4c5c2;fill-opacity:1;stroke:none"
           id="path7834"
           sodipodi:cx="288.375"
           sodipodi:cy="-437.59375"
           sodipodi:rx="3.3125"
           sodipodi:ry="3.3125"
           d="m 291.6875,-437.59375 c 0,1.82944 -1.48306,3.3125 -3.3125,3.3125 -1.82944,0 -3.3125,-1.48306 -3.3125,-3.3125 0,-1.82944 1.48306,-3.3125 3.3125,-3.3125 1.82944,0 3.3125,1.48306 3.3125,3.3125 z"
           transform="matrix(1.056604,0,0,1.056604,-31.19818,24.86331)" />
        <path
           sodipodi:type="arc"
           style="fill:url(#linearGradient8006);fill-opacity:1;stroke:none"
           id="path7836"
           sodipodi:cx="288.375"
           sodipodi:cy="-437.59375"
           sodipodi:rx="3.3125"
           sodipodi:ry="3.3125"
           d="m 291.6875,-437.59375 c 0,1.82944 -1.48306,3.3125 -3.3125,3.3125 -1.82944,0 -3.3125,-1.48306 -3.3125,-3.3125 0,-1.82944 1.48306,-3.3125 3.3125,-3.3125 1.82944,0 3.3125,1.48306 3.3125,3.3125 z"
           transform="matrix(1.056604,0,0,1.056604,-31.19818,24.86331)" />
      </g>
      <g
         transform="matrix(1.523249,0,0,-1.345735,-403.2623,-554.4459)"
         id="g8014">
        <path
           sodipodi:type="arc"
           style="fill:#c4c5c2;fill-opacity:1;stroke:none"
           id="path8016"
           sodipodi:cx="288.375"
           sodipodi:cy="-437.59375"
           sodipodi:rx="3.3125"
           sodipodi:ry="3.3125"
           d="m 291.6875,-437.59375 c 0,1.82944 -1.48306,3.3125 -3.3125,3.3125 -1.82944,0 -3.3125,-1.48306 -3.3125,-3.3125 0,-1.82944 1.48306,-3.3125 3.3125,-3.3125 1.82944,0 3.3125,1.48306 3.3125,3.3125 z"
           transform="matrix(1.056604,0,0,1.056604,-24.19818,21.86331)" />
        <path
           sodipodi:type="arc"
           style="fill:url(#linearGradient8099);fill-opacity:1;stroke:none"
           id="path8018"
           sodipodi:cx="288.375"
           sodipodi:cy="-437.59375"
           sodipodi:rx="3.3125"
           sodipodi:ry="3.3125"
           d="m 291.6875,-437.59375 c 0,1.82944 -1.48306,3.3125 -3.3125,3.3125 -1.82944,0 -3.3125,-1.48306 -3.3125,-3.3125 0,-1.82944 1.48306,-3.3125 3.3125,-3.3125 1.82944,0 3.3125,1.48306 3.3125,3.3125 z"
           transform="matrix(1.056604,0,0,1.056604,-24.19818,21.86331)" />
      </g>
      <rect
         transform="scale(1,-1)"
         y="-34.985878"
         x="9.5385027"
         height="12.111609"
         width="30.464998"
         id="rect8020"
         style="fill:#c4c5c2;fill-opacity:1;stroke:none" />
      <path
         transform="matrix(1.379548,0,0,-1.218778,-388.2883,-506.4185)"
         d="m 291.6875,-437.59375 c 0,1.82944 -1.48306,3.3125 -3.3125,3.3125 -1.82944,0 -3.3125,-1.48306 -3.3125,-3.3125 0,-1.82944 1.48306,-3.3125 3.3125,-3.3125 1.82944,0 3.3125,1.48306 3.3125,3.3125 z"
         sodipodi:ry="3.3125"
         sodipodi:rx="3.3125"
         sodipodi:cy="-437.59375"
         sodipodi:cx="288.375"
         id="path8022"
         style="fill:#c4c5c2;fill-opacity:1;stroke:none"
         sodipodi:type="arc" />
      <g
         transform="matrix(1.523249,0,0,-1.345735,-403.2623,-554.4459)"
         id="g8024">
        <path
           sodipodi:type="arc"
           style="fill:#c4c5c2;fill-opacity:1;stroke:none"
           id="path8026"
           sodipodi:cx="288.375"
           sodipodi:cy="-437.59375"
           sodipodi:rx="3.3125"
           sodipodi:ry="3.3125"
           d="m 291.6875,-437.59375 c 0,1.82944 -1.48306,3.3125 -3.3125,3.3125 -1.82944,0 -3.3125,-1.48306 -3.3125,-3.3125 0,-1.82944 1.48306,-3.3125 3.3125,-3.3125 1.82944,0 3.3125,1.48306 3.3125,3.3125 z"
           transform="matrix(1.056604,0,0,1.056604,-17.19811,24.86321)" />
        <path
           sodipodi:type="arc"
           style="fill:url(#linearGradient8097);fill-opacity:1;stroke:none"
           id="path8028"
           sodipodi:cx="288.375"
           sodipodi:cy="-437.59375"
           sodipodi:rx="3.3125"
           sodipodi:ry="3.3125"
           d="m 291.6875,-437.59375 c 0,1.82944 -1.48306,3.3125 -3.3125,3.3125 -1.82944,0 -3.3125,-1.48306 -3.3125,-3.3125 0,-1.82944 1.48306,-3.3125 3.3125,-3.3125 1.82944,0 3.3125,1.48306 3.3125,3.3125 z"
           transform="matrix(1.056604,0,0,1.056604,-17.19818,24.86331)" />
      </g>
      <g
         transform="matrix(1.523249,0,0,-1.345735,-403.2623,-554.4459)"
         id="g8030">
        <path
           sodipodi:type="arc"
           style="fill:#c4c5c2;fill-opacity:1;stroke:none"
           id="path8032"
           sodipodi:cx="288.375"
           sodipodi:cy="-437.59375"
           sodipodi:rx="3.3125"
           sodipodi:ry="3.3125"
           d="m 291.6875,-437.59375 c 0,1.82944 -1.48306,3.3125 -3.3125,3.3125 -1.82944,0 -3.3125,-1.48306 -3.3125,-3.3125 0,-1.82944 1.48306,-3.3125 3.3125,-3.3125 1.82944,0 3.3125,1.48306 3.3125,3.3125 z"
           transform="matrix(1.056604,0,0,1.056604,-31.19818,24.86331)" />
        <path
           sodipodi:type="arc"
           style="fill:url(#linearGradient8095);fill-opacity:1;stroke:none"
           id="path8034"
           sodipodi:cx="288.375"
           sodipodi:cy="-437.59375"
           sodipodi:rx="3.3125"
           sodipodi:ry="3.3125"
           d="m 291.6875,-437.59375 c 0,1.82944 -1.48306,3.3125 -3.3125,3.3125 -1.82944,0 -3.3125,-1.48306 -3.3125,-3.3125 0,-1.82944 1.48306,-3.3125 3.3125,-3.3125 1.82944,0 3.3125,1.48306 3.3125,3.3125 z"
           transform="matrix(1.056604,0,0,1.056604,-31.19818,24.86331)" />
      </g>
      <g
         transform="matrix(1.523249,0,0,-1.345735,-404.7855,-554.4459)"
         id="g8036">
        <path
           style="fill:#c4c5c2;fill-opacity:1;stroke:none"
           d="m 280.46875,-440.96875 c -3.57938,0 -6.46875,2.92063 -6.46875,6.5 0,2.37068 1.34943,4.33779 3.25,5.46875 l 6.46875,0 c 1.90057,-1.13096 3.25,-3.12931 3.25,-5.5 0,-3.57938 -2.92063,-6.46875 -6.5,-6.46875 z"
           id="path8038"
           inkscape:connector-curvature="0" />
        <path
           style="fill:url(#linearGradient8093);fill-opacity:1;stroke:none"
           d="m 280.5,-441 c -3.588,0 -6.5,2.91201 -6.5,6.5 0,2.3764 1.34485,4.36632 3.25,5.5 l 6.5,0 c 1.90515,-1.13368 3.25,-3.1236 3.25,-5.5 0,-3.588 -2.912,-6.49999 -6.5,-6.5 z"
           id="path8040"
           inkscape:connector-curvature="0" />
      </g>
      <path
         transform="matrix(1.379548,0,0,-1.218778,-388.2881,-506.4182)"
         d="m 291.6875,-437.59375 c 0,1.82944 -1.48306,3.3125 -3.3125,3.3125 -1.82944,0 -3.3125,-1.48306 -3.3125,-3.3125 0,-1.82944 1.48306,-3.3125 3.3125,-3.3125 1.82944,0 3.3125,1.48306 3.3125,3.3125 z"
         sodipodi:ry="3.3125"
         sodipodi:rx="3.3125"
         sodipodi:cy="-437.59375"
         sodipodi:cx="288.375"
         id="path8042"
         style="fill:url(#linearGradient8091);fill-opacity:1;stroke:none"
         sodipodi:type="arc" />
      <g
         transform="matrix(1.740857,0,0,-1.537982,-450.8749,-647.3211)"
         id="g8046">
        <path
           sodipodi:type="arc"
           style="fill:#c4c5c2;fill-opacity:1;stroke:none"
           id="path8048"
           sodipodi:cx="288.375"
           sodipodi:cy="-437.59375"
           sodipodi:rx="3.3125"
           sodipodi:ry="3.3125"
           d="m 291.6875,-437.59375 c 0,1.82944 -1.48306,3.3125 -3.3125,3.3125 -1.82944,0 -3.3125,-1.48306 -3.3125,-3.3125 0,-1.82944 1.48306,-3.3125 3.3125,-3.3125 1.82944,0 3.3125,1.48306 3.3125,3.3125 z"
           transform="matrix(1.056604,0,0,1.056604,-31.19818,24.86331)" />
        <path
           sodipodi:type="arc"
           style="fill:url(#linearGradient8089);fill-opacity:1;stroke:none"
           id="path8050"
           sodipodi:cx="288.375"
           sodipodi:cy="-437.59375"
           sodipodi:rx="3.3125"
           sodipodi:ry="3.3125"
           d="m 291.6875,-437.59375 c 0,1.82944 -1.48306,3.3125 -3.3125,3.3125 -1.82944,0 -3.3125,-1.48306 -3.3125,-3.3125 0,-1.82944 1.48306,-3.3125 3.3125,-3.3125 1.82944,0 3.3125,1.48306 3.3125,3.3125 z"
           transform="matrix(1.056604,0,0,1.056604,-31.19818,24.86331)" />
      </g>
      <g
         transform="matrix(1.740857,0,0,-1.537982,-441.2494,-650.2832)"
         id="g9017">
        <path
           sodipodi:type="arc"
           style="fill:#c4c5c2;fill-opacity:1;stroke:none"
           id="path9019"
           sodipodi:cx="288.375"
           sodipodi:cy="-437.59375"
           sodipodi:rx="3.3125"
           sodipodi:ry="3.3125"
           d="m 291.6875,-437.59375 c 0,1.82944 -1.48306,3.3125 -3.3125,3.3125 -1.82944,0 -3.3125,-1.48306 -3.3125,-3.3125 0,-1.82944 1.48306,-3.3125 3.3125,-3.3125 1.82944,0 3.3125,1.48306 3.3125,3.3125 z"
           transform="matrix(1.056604,0,0,1.056604,-31.19818,24.86331)" />
        <path
           sodipodi:type="arc"
           style="fill:url(#linearGradient9023);fill-opacity:1;stroke:none"
           id="path9021"
           sodipodi:cx="288.375"
           sodipodi:cy="-437.59375"
           sodipodi:rx="3.3125"
           sodipodi:ry="3.3125"
           d="m 291.6875,-437.59375 c 0,1.82944 -1.48306,3.3125 -3.3125,3.3125 -1.82944,0 -3.3125,-1.48306 -3.3125,-3.3125 0,-1.82944 1.48306,-3.3125 3.3125,-3.3125 1.82944,0 3.3125,1.48306 3.3125,3.3125 z"
           transform="matrix(1.056604,0,0,1.056604,-31.19818,24.86331)" />
      </g>
      <path
         sodipodi:nodetypes="cscsscccsscscscsscccsscss"
         d="m 5.50705,22.046636 c -0.993051,0.979272 -1.1810117,3.520942 -1.1810117,4.97416 0,1.905717 1.6146584,3.576776 3.5370815,4.51282 -0.2536515,0.628237 -0.6415097,1.463614 -0.6415097,2.166687 -1.45e-5,3.351894 2.7601906,5.933044 6.7032289,5.933044 1.171165,0 2.646115,-0.717814 3.616389,-1.159664 0.975343,3.224632 3.102342,5.206513 6.280739,5.206513 3.178414,0 5.601953,-2.064332 6.543765,-5.178108 0.970275,0.44185 2.778854,1.159677 3.95003,1.159677 3.863076,-1.3e-5 6.33754,-2.609579 6.33754,-5.961462 0,-0.703058 -0.419935,-1.686231 -0.673599,-2.314455 1.922421,-0.936045 3.537078,-2.317479 3.537078,-4.365052 0,-1.341413 -0.84786,-2.482361 -1.760447,-4.065384 0.882116,-1.601506 1.777589,-2.975909 1.777589,-4.386491 0,-2.047575 -1.614658,-3.429009 -3.537079,-4.365054 0.253667,-0.628224 0.673602,-1.611397 0.673602,-2.314456 0,-3.3518794 -3.071118,-5.8733598 -6.934192,-5.8733728 -1.171178,0 -2.383102,0.62974 -3.353377,1.0715893 C 29.441062,3.9738512 27.116966,2.17378 23.938555,2.17378 c -3.178399,0 -5.40484,1.7176216 -6.380182,4.9422522 -0.970275,-0.4418491 -2.24634,-1.0715763 -3.417504,-1.0715763 -3.943039,0 -6.9021298,2.4930628 -6.9021154,5.8449551 0,0.703071 0.3878582,1.714625 0.6415097,2.342861 -1.9224229,0.936046 -3.5370814,2.43093 -3.5370814,4.336649 0,1.410587 0.2268823,2.507864 1.1638681,3.477715 z"
         style="fill:url(#linearGradient8130);fill-opacity:1;stroke:#ffffff;stroke-width:1.33109355;stroke-linecap:butt;stroke-linejoin:miter;stroke-miterlimit:2;stroke-opacity:0.50196078;stroke-dashoffset:0"
         id="path7798"
         inkscape:connector-curvature="0" />
      <path
         sodipodi:nodetypes="ccss"
         id="path7830"
         d="m 42.556975,12.414559 c -0.0023,3.527521 -4.862476,4.88014 -4.862476,4.88014 0,0 3.493356,-2.1365 3.47567,-4.868392 0,0 1.386806,-0.01175 1.386806,-0.01175 z"
         style="fill:#888a85;fill-opacity:1;fill-rule:evenodd;stroke:none"
         inkscape:connector-curvature="0" />
      <path
         sodipodi:nodetypes="ccss"
         id="path8044"
         d="m 31.805464,41.029946 c -3.836551,-0.625415 -4.449539,-6.15082 -4.449539,-6.15082 0,0 1.707009,4.17709 4.681664,4.640291 0,0 -0.232125,1.510529 -0.232125,1.510529 z"
         style="fill:url(#linearGradient9067);fill-opacity:1;fill-rule:evenodd;stroke:none"
         inkscape:connector-curvature="0" />
      <path
         sodipodi:nodetypes="ccss"
         id="path9069"
         d="m 41.462947,32.889154 c -3.767148,0.958571 -6.53548,-3.862445 -6.53548,-3.862445 0,0 3.232957,3.148007 6.145131,2.384877 0,0 0.390349,1.477568 0.390349,1.477568 z"
         style="fill:url(#linearGradient9071);fill-opacity:1;fill-rule:evenodd;stroke:none"
         inkscape:connector-curvature="0" />
    </g>
    <path
       inkscape:connector-curvature="0"
       style="color:#000000;fill:url(#linearGradient13592);fill-opacity:1;fill-rule:nonzero;stroke:url(#linearGradient13594);stroke-width:1.00000036;stroke-linecap:butt;stroke-linejoin:round;stroke-miterlimit:4;stroke-opacity:1;stroke-dasharray:none;stroke-dashoffset:0;marker:none;visibility:visible;display:inline;overflow:visible"
       d="M 4.2122047,25.539074 14.191819,36.388392 18.95236,32.030466 20.440445,47.126406 5.8546235,43.43269 9.9585409,39.675855 0.41920479,29.305183 4.2122047,25.539074 z"
       id="path47240" />
    <path
       inkscape:connector-curvature="0"
       style="color:#000000;fill:none;stroke:#ffffff;stroke-width:1.00000048;stroke-linecap:butt;stroke-linejoin:miter;stroke-miterlimit:6;stroke-opacity:1;stroke-dasharray:none;stroke-dashoffset:0;marker:none;visibility:visible;display:inline;overflow:visible"
       d="m 108.02008,-3.1840044 0,12.3116853 -5.97794,0 -9.754172,18.8711671 -0.442366,-18.8711671 -6.050696,0 0,-12.3116853 22.225174,0 z"
       id="path4722"
       sodipodi:nodetypes="cccccccc" />
    <g
       id="g13625">
      <path
         transform="matrix(1.5469468,0,0,1.5475465,11.802217,11.919856)"
         d="m 6.2468646,3.911716 c 0,1.3020614 -1.0555293,2.3575907 -2.3575907,2.3575907 -1.3020614,0 -2.3575907,-1.0555293 -2.3575907,-2.3575907 0,-1.3020614 1.0555293,-2.3575907 2.3575907,-2.3575907 1.3020614,0 2.3575907,1.0555293 2.3575907,2.3575907 z"
         sodipodi:ry="2.3575907"
         sodipodi:rx="2.3575907"
         sodipodi:cy="3.911716"
         sodipodi:cx="3.8892739"
         id="path2877"
         style="color:#000000;fill:url(#radialGradient22183);fill-opacity:1;fill-rule:evenodd;stroke:#2e3436;stroke-width:0.64630938;stroke-linecap:round;stroke-linejoin:miter;stroke-miterlimit:4;stroke-opacity:1;stroke-dasharray:none;stroke-dashoffset:0;marker:none;visibility:visible;display:inline;overflow:visible"
         sodipodi:type="arc" />
      <path
         sodipodi:nodetypes="ccccc"
         id="path4462"
         d="m 17.864694,18.378802 c 1.616898,0.556975 2.361652,1.959322 2.361652,1.959322 0.524657,-0.515536 0.953091,-1.065195 0.892253,-1.788342 -0.620529,-0.428018 -1.642208,-0.827543 -2.438565,-0.891905 l -0.81534,0.720925 z"
         style="fill:url(#linearGradient4470);fill-opacity:1;fill-rule:evenodd;stroke:none"
         inkscape:connector-curvature="0" />
      <path
         transform="matrix(1.5745457,0,0,1.5751256,2.1457168,5.9191963)"
         d="m 6.2468646,3.911716 c 0,1.3020614 -1.0555293,2.3575907 -2.3575907,2.3575907 -1.3020614,0 -2.3575907,-1.0555293 -2.3575907,-2.3575907 0,-1.3020614 1.0555293,-2.3575907 2.3575907,-2.3575907 1.3020614,0 2.3575907,1.0555293 2.3575907,2.3575907 z"
         sodipodi:ry="2.3575907"
         sodipodi:rx="2.3575907"
         sodipodi:cy="3.911716"
         sodipodi:cx="3.8892739"
         id="path22353"
         style="color:#000000;fill:url(#radialGradient22355);fill-opacity:1;fill-rule:evenodd;stroke:#2e3436;stroke-width:0.63498694;stroke-linecap:round;stroke-linejoin:miter;stroke-miterlimit:4;stroke-opacity:1;stroke-dasharray:none;stroke-dashoffset:0;marker:none;visibility:visible;display:inline;overflow:visible"
         sodipodi:type="arc" />
      <path
         sodipodi:nodetypes="cccccccc"
         id="rect4410"
         d="m 15.693628,1.025894 0,8.6806838 -3.831435,0 6.019673,7.9572932 -12.7570492,-7.9572932 -4.0194437,0 0,-8.6806838 14.5882549,0 z"
         style="color:#000000;fill:url(#linearGradient4507);fill-opacity:1;fill-rule:evenodd;stroke:#2e3436;stroke-width:1.99999988;stroke-linecap:butt;stroke-linejoin:round;stroke-miterlimit:5;stroke-opacity:1;stroke-dasharray:none;stroke-dashoffset:0;marker:none;visibility:visible;display:inline;overflow:visible"
         inkscape:connector-curvature="0" />
      <path
         sodipodi:nodetypes="cccccccc"
         id="path4425"
         d="m 15.002484,1.7171218 0,7.3052257 -4.844596,0 4.664568,5.8288725 -9.4128736,-5.8288725 -3.5885996,0 0,-7.3052257 13.1815012,0 z"
         style="color:#000000;fill:none;stroke:#ffffff;stroke-width:1;stroke-linecap:butt;stroke-linejoin:miter;stroke-miterlimit:6;stroke-opacity:1;stroke-dasharray:none;stroke-dashoffset:0;marker:none;visibility:visible;display:inline;overflow:visible"
         inkscape:connector-curvature="0" />
      <path
         transform="matrix(1.5745457,0,0,1.5751256,21.650078,14.934807)"
         d="m 6.2468646,3.911716 c 0,1.3020614 -1.0555293,2.3575907 -2.3575907,2.3575907 -1.3020614,0 -2.3575907,-1.0555293 -2.3575907,-2.3575907 0,-1.3020614 1.0555293,-2.3575907 2.3575907,-2.3575907 1.3020614,0 2.3575907,1.0555293 2.3575907,2.3575907 z"
         sodipodi:ry="2.3575907"
         sodipodi:rx="2.3575907"
         sodipodi:cy="3.911716"
         sodipodi:cx="3.8892739"
         id="path22317"
         style="color:#000000;fill:url(#radialGradient22325);fill-opacity:1;fill-rule:evenodd;stroke:#2e3436;stroke-width:0.63498694;stroke-linecap:round;stroke-linejoin:miter;stroke-miterlimit:4;stroke-opacity:1;stroke-dasharray:none;stroke-dashoffset:0;marker:none;visibility:visible;display:inline;overflow:visible"
         sodipodi:type="arc" />
      <path
         sodipodi:type="arc"
         style="color:#000000;fill:url(#radialGradient22339);fill-opacity:1;fill-rule:evenodd;stroke:#2e3436;stroke-width:0.63498694;stroke-linecap:round;stroke-linejoin:miter;stroke-miterlimit:4;stroke-opacity:1;stroke-dasharray:none;stroke-dashoffset:0;marker:none;visibility:visible;display:inline;overflow:visible"
         id="path22331"
         sodipodi:cx="3.8892739"
         sodipodi:cy="3.911716"
         sodipodi:rx="2.3575907"
         sodipodi:ry="2.3575907"
         d="m 6.2468646,3.911716 c 0,1.3020614 -1.0555293,2.3575907 -2.3575907,2.3575907 -1.3020614,0 -2.3575907,-1.0555293 -2.3575907,-2.3575907 0,-1.3020614 1.0555293,-2.3575907 2.3575907,-2.3575907 1.3020614,0 2.3575907,1.0555293 2.3575907,2.3575907 z"
         transform="matrix(1.5745457,0,0,1.5751256,4.2670375,19.825627)" />
      <path
         sodipodi:type="arc"
         style="color:#000000;fill:url(#radialGradient22351);fill-opacity:1;fill-rule:evenodd;stroke:#2e3436;stroke-width:0.63498694;stroke-linecap:round;stroke-linejoin:miter;stroke-miterlimit:4;stroke-opacity:1;stroke-dasharray:none;stroke-dashoffset:0;marker:none;visibility:visible;display:inline;overflow:visible"
         id="path22349"
         sodipodi:cx="3.8892739"
         sodipodi:cy="3.911716"
         sodipodi:rx="2.3575907"
         sodipodi:ry="2.3575907"
         d="m 6.2468646,3.911716 c 0,1.3020614 -1.0555293,2.3575907 -2.3575907,2.3575907 -1.3020614,0 -2.3575907,-1.0555293 -2.3575907,-2.3575907 0,-1.3020614 1.0555293,-2.3575907 2.3575907,-2.3575907 1.3020614,0 2.3575907,1.0555293 2.3575907,2.3575907 z"
         transform="matrix(1.5745457,0,0,1.5751256,16.759257,1.4997787)" />
    </g>
  </g>
</svg>
