<?xml version="1.0" encoding="UTF-8" standalone="no"?>
<!-- Created with Inkscape (http://www.inkscape.org/) -->

<svg
   xmlns:dc="http://purl.org/dc/elements/1.1/"
   xmlns:cc="http://creativecommons.org/ns#"
   xmlns:rdf="http://www.w3.org/1999/02/22-rdf-syntax-ns#"
   xmlns:svg="http://www.w3.org/2000/svg"
   xmlns="http://www.w3.org/2000/svg"
   xmlns:xlink="http://www.w3.org/1999/xlink"
   xmlns:sodipodi="http://sodipodi.sourceforge.net/DTD/sodipodi-0.dtd"
   xmlns:inkscape="http://www.inkscape.org/namespaces/inkscape"
   width="48px"
   height="48px"
   id="svg90649"
   version="1.1"
   inkscape:version="0.48.4 r9939"
   sodipodi:docname="voronoifracture.svg">
  <defs
     id="defs90651">
    <linearGradient
       inkscape:collect="always"
       id="linearGradient91247">
      <stop
         style="stop-color:#2e3436;stop-opacity:1;"
         offset="0"
         id="stop91249" />
      <stop
         style="stop-color:#2e3436;stop-opacity:0;"
         offset="1"
         id="stop91251" />
    </linearGradient>
    <radialGradient
       inkscape:collect="always"
       xlink:href="#linearGradient91247"
       id="radialGradient91253"
       cx="23.857143"
       cy="39.25"
       fx="23.857143"
       fy="39.25"
       r="22.214285"
       gradientTransform="matrix(1,0,0,0.403537,0,23.411173)"
       gradientUnits="userSpaceOnUse" />
  </defs>
  <sodipodi:namedview
     id="base"
     pagecolor="#ffffff"
     bordercolor="#666666"
     borderopacity="1.0"
     inkscape:pageopacity="0.0"
     inkscape:pageshadow="2"
     inkscape:zoom="14"
     inkscape:cx="1.2857141"
     inkscape:cy="22.785714"
     inkscape:current-layer="layer1"
     showgrid="true"
     inkscape:grid-bbox="true"
     inkscape:document-units="px"
     inkscape:window-width="2560"
     inkscape:window-height="1538"
     inkscape:window-x="-8"
     inkscape:window-y="-8"
     inkscape:window-maximized="1" />
  <metadata
     id="metadata90654">
    <rdf:RDF>
      <cc:Work
         rdf:about="">
        <dc:format>image/svg+xml</dc:format>
        <dc:type
           rdf:resource="http://purl.org/dc/dcmitype/StillImage" />
        <dc:title></dc:title>
      </cc:Work>
    </rdf:RDF>
  </metadata>
  <g
     id="layer1"
     inkscape:label="Layer 1"
     inkscape:groupmode="layer">
    <path
       sodipodi:type="arc"
       style="color:#000000;fill:url(#radialGradient91253);fill-opacity:1;fill-rule:nonzero;stroke:none;stroke-width:1.5;marker:none;visibility:visible;display:inline;overflow:visible;enable-background:accumulate"
       id="path91245"
       sodipodi:cx="23.857143"
       sodipodi:cy="39.25"
       sodipodi:rx="22.214285"
       sodipodi:ry="8.9642859"
       d="m 46.071428,39.25 a 22.214285,8.9642859 0 1 1 -44.4285695,0 22.214285,8.9642859 0 1 1 44.4285695,0 z"
       transform="matrix(1,0,0,1.5537849,0,-26.700341)" />
    <path
       style="fill:#d3d7cf;stroke:#000000;stroke-width:1px;stroke-linecap:butt;stroke-linejoin:miter;stroke-opacity:1"
       d="M 7.842796,7.0582605 8.8631347,9.1831604 7.2475979,10.628093 9.2032487,19.297687 7.5877108,21.932562 5.2919469,20.317637 3.5063525,8.8431766 z"
       id="path90670"
       inkscape:connector-curvature="0" />
    <path
       style="fill:#d3d7cf;stroke:#000000;stroke-width:1px;stroke-linecap:butt;stroke-linejoin:miter;stroke-opacity:1"
       d="m 9.5433617,6.2083 2.9759913,4.504789 -2.380792,1.69992 L 9.8834748,19.552675 7.1625691,10.713089 8.8631347,9.1831604 7.9278237,7.0582605 z"
       id="path90672"
       inkscape:connector-curvature="0" />
    <path
       style="fill:#d3d7cf;stroke:#000000;stroke-width:1px;stroke-linecap:butt;stroke-linejoin:miter;stroke-opacity:1"
       d="m 5.0368617,20.147647 2.7209055,1.869911 1.8706238,-2.889864 4.591527,3.654829 2.210736,6.034716 -1.700565,0.934957 -4.9316414,-3.314845 -1.1053694,3.399841 -2.8059331,0.085 z"
       id="path90674"
       inkscape:connector-curvature="0" />
    <path
       style="fill:#d3d7cf;stroke:#000000;stroke-width:1px;stroke-linecap:butt;stroke-linejoin:miter;stroke-opacity:1"
       d="M 5.7170887,30.177176 8.7781071,29.837192 14.64506,35.19194 15.580373,39.101758 6.1422292,32.302076 z"
       id="path90676"
       inkscape:connector-curvature="0" />
    <path
       style="fill:#d3d7cf;stroke:#000000;stroke-width:1px;stroke-linecap:butt;stroke-linejoin:miter;stroke-opacity:1"
       d="m 9.7984476,26.522347 4.8466124,3.229849 0.08502,5.354749 -6.2070684,-5.354749 z"
       id="path90678"
       inkscape:connector-curvature="0" />
    <path
       style="fill:#d3d7cf;stroke:#000000;stroke-width:1px;stroke-linecap:butt;stroke-linejoin:miter;stroke-opacity:1"
       d="m 14.730089,29.922188 1.700565,-1.27494 3.826274,1.869913 5.441813,9.349561 1.870622,-1.189945 -1.105368,6.79968 -0.935312,0.594972 -10.118368,-7.054669 -0.935311,-4.164804 z"
       id="path90680"
       inkscape:connector-curvature="0" />
    <path
       style="fill:#d3d7cf;stroke:#000000;stroke-width:1px;stroke-linecap:butt;stroke-linejoin:miter;stroke-opacity:1"
       d="m 12.349296,10.798085 c 0.51017,0.085 5.101699,2.379888 5.101699,2.379888 l -4.251415,1.104948 0.595198,7.819634 -4.166387,-2.974861 0.680225,-6.799681 z"
       id="path90682"
       inkscape:connector-curvature="0" />
    <path
       style="fill:#d3d7cf;stroke:#000000;stroke-width:1px;stroke-linecap:butt;stroke-linejoin:miter;stroke-opacity:1"
       d="M 14.815117,4.1683962 16.600711,5.698324 22.127552,5.1883484 24.083204,9.2681572 20.1719,11.903034 17.280937,13.007981 12.519353,10.883082 9.628391,6.2932966 z"
       id="path90684"
       inkscape:connector-curvature="0" />
    <path
       style="fill:#d3d7cf;stroke:#000000;stroke-width:1px;stroke-linecap:butt;stroke-linejoin:miter;stroke-opacity:1"
       d="M 14.475004,3.8284124 16.600711,5.9533129 22.212579,5.103352 25.103543,3.9984042 26.804109,1.6185158 23.402976,0.42857155 z"
       id="path90686"
       inkscape:connector-curvature="0" />
    <path
       style="fill:#d3d7cf;stroke:#000000;stroke-width:1px;stroke-linecap:butt;stroke-linejoin:miter;stroke-opacity:1"
       d="M 24.678402,4.338388 28.419647,6.2932966 33.691401,4.338388 26.71908,1.6185158 z"
       id="path90688"
       inkscape:connector-curvature="0" />
    <path
       style="fill:#d3d7cf;stroke:#000000;stroke-width:1px;stroke-linecap:butt;stroke-linejoin:miter;stroke-opacity:1"
       d="M 24.593372,4.1683962 33.606374,8.5881885 31.22558,9.608141 23.913146,9.013169 22.212579,5.1883484 z"
       id="path90690"
       inkscape:connector-curvature="0" />
    <path
       style="fill:#d3d7cf;stroke:#000000;stroke-width:1px;stroke-linecap:butt;stroke-linejoin:miter;stroke-opacity:1"
       d="M 33.521345,4.2533927 35.136882,7.3982442 33.351288,8.5031928 29.014845,6.2932966 z"
       id="path90692"
       inkscape:connector-curvature="0" />
    <path
       style="fill:#d3d7cf;stroke:#000000;stroke-width:1px;stroke-linecap:butt;stroke-linejoin:miter;stroke-opacity:1"
       d="m 33.946487,4.338388 1.275425,3.1448523 c 0,0 -2.465822,0.7649643 -1.955652,0.8499612 0.51017,0.085001 9.09803,2.4648835 9.09803,2.4648835 l -0.08502,1.359935 2.380793,0.254989 0.595198,-3.4848357 z"
       id="path90694"
       inkscape:connector-curvature="0"
       sodipodi:nodetypes="ccsccccc" />
    <path
       style="fill:#d3d7cf;stroke:#000000;stroke-width:1px;stroke-linecap:butt;stroke-linejoin:miter;stroke-opacity:1"
       d="m 19.661731,12.15802 2.975991,1.614925 -5.186727,2.464884 5.101698,11.474462 -2.125707,2.80487 -4.251415,-1.954909 -2.295766,-6.799681 -0.425141,-7.564645 z"
       id="path90696"
       inkscape:connector-curvature="0" />
    <path
       style="fill:#d3d7cf;stroke:#000000;stroke-width:1px;stroke-linecap:butt;stroke-linejoin:miter;stroke-opacity:1"
       d="m 22.807777,13.68795 6.12204,0.764964 3.911301,2.804868 -0.680227,5.439744 -5.781924,6.714685 -3.826274,-1.954908 -5.101698,-11.219474 z"
       id="path90698"
       inkscape:connector-curvature="0" />
    <path
       style="fill:#d3d7cf;stroke:#000000;stroke-width:1px;stroke-linecap:butt;stroke-linejoin:miter;stroke-opacity:1"
       d="m 19.916816,12.15802 2.635877,1.699922 6.207066,0.764964 2.975991,-5.014765 -7.482491,-0.594972 z"
       id="path90700"
       inkscape:connector-curvature="0" />
    <path
       style="fill:#d3d7cf;stroke:#000000;stroke-width:1px;stroke-linecap:butt;stroke-linejoin:miter;stroke-opacity:1"
       d="m 31.310608,9.6931377 2.295766,-1.4449331 8.842943,2.5498804 -0.255085,1.359935 -5.611867,10.879491 -4.421474,-0.84996 0.595199,-4.929769 -3.741245,-2.804868 z"
       id="path90702"
       inkscape:connector-curvature="0" />
    <path
       style="fill:#d3d7cf;stroke:#000000;stroke-width:1px;stroke-linecap:butt;stroke-linejoin:miter;stroke-opacity:1"
       d="m 42.109204,12.15802 2.550849,0.169993 -2.040679,11.899443 -3.146048,2.039903 -2.890961,-0.169993 0,-3.144851 z"
       id="path90704"
       inkscape:connector-curvature="0" />
    <path
       style="fill:#d3d7cf;stroke:#000000;stroke-width:1px;stroke-linecap:butt;stroke-linejoin:miter;stroke-opacity:1"
       d="m 32.415977,22.187551 4.166388,0.934956 0.08502,3.144852 -2.12571,4.334796 -8.672887,9.349562 -5.441812,-9.179569 2.210736,-3.059857 4.081359,1.869913 z"
       id="path90708"
       inkscape:connector-curvature="0" />
    <path
       style="fill:#d3d7cf;stroke:#000000;stroke-width:1px;stroke-linecap:butt;stroke-linejoin:miter;stroke-opacity:1"
       d="m 27.654392,38.251798 -1.190397,7.309656 7.482492,-7.309656 0.93531,-7.819635 z"
       id="path90710"
       inkscape:connector-curvature="0" />
    <path
       style="fill:#d3d7cf;stroke:#000000;stroke-width:1px;stroke-linecap:butt;stroke-linejoin:miter;stroke-opacity:1"
       d="m 36.667392,26.097366 2.805934,0.085 -1.105367,7.90463 -4.591529,4.334794 0.935311,-7.989625 z"
       id="path90712"
       inkscape:connector-curvature="0" />
    <path
       style="fill:#d3d7cf;stroke:#000000;stroke-width:1px;stroke-linecap:butt;stroke-linejoin:miter;stroke-opacity:1"
       d="m 39.30327,26.267359 3.146047,-1.784916 -1.105368,7.05467 -2.97599,2.039903 z"
       id="path90714"
       inkscape:connector-curvature="0" />
    <path
       style="fill:#eeeeec;fill-opacity:0.44680852;stroke:none"
       d="M 4.0743509,9.326019 26.946964,19.355546 25.926626,45.44932 6.5401719,32.359936 z"
       id="path91224"
       inkscape:connector-curvature="0"
       sodipodi:nodetypes="ccccc" />
    <path
       style="color:#000000;fill:#eeeeec;fill-opacity:0.69680852;fill-rule:nonzero;stroke:none;stroke-width:1px;marker:none;visibility:visible;display:inline;overflow:visible;enable-background:accumulate"
       d="M 3.7036077,9.0845964 23.515204,1.0949721 44.517195,9.254589 26.66125,19.284118 z"
       id="path91226"
       inkscape:connector-curvature="0" />
  </g>
</svg>
