<?xml version="1.0" encoding="UTF-8" standalone="no"?>
<!-- Created with Inkscape (http://www.inkscape.org/) -->
<svg
   xmlns:i="http://ns.adobe.com/AdobeIllustrator/10.0/"
   xmlns:dc="http://purl.org/dc/elements/1.1/"
   xmlns:cc="http://web.resource.org/cc/"
   xmlns:rdf="http://www.w3.org/1999/02/22-rdf-syntax-ns#"
   xmlns:svg="http://www.w3.org/2000/svg"
   xmlns="http://www.w3.org/2000/svg"
   xmlns:xlink="http://www.w3.org/1999/xlink"
   xmlns:sodipodi="http://sodipodi.sourceforge.net/DTD/sodipodi-0.dtd"
   xmlns:inkscape="http://www.inkscape.org/namespaces/inkscape"
   width="48px"
   height="48px"
   id="svg2920"
   sodipodi:version="0.32"
   inkscape:version="0.44"
   sodipodi:docbase="e:\dev_clean\src\houdini\support\icons\desktop"
   sodipodi:docname="installer2.svg">
  <defs
     id="defs2922">
    <linearGradient
       id="linearGradient4535">
      <stop
         id="stop4537"
         offset="0"
         style="stop-color:white;stop-opacity:1;" />
      <stop
         id="stop4539"
         offset="1"
         style="stop-color:#6c6c6c;stop-opacity:1;" />
    </linearGradient>
    <linearGradient
       inkscape:collect="always"
       id="linearGradient5054">
      <stop
         style="stop-color:#2e3436;stop-opacity:1;"
         offset="0"
         id="stop5056" />
      <stop
         style="stop-color:#2e3436;stop-opacity:0;"
         offset="1"
         id="stop5058" />
    </linearGradient>
    <linearGradient
       id="linearGradient5038">
      <stop
         style="stop-color:#d3d7cf;stop-opacity:1;"
         offset="0"
         id="stop5040" />
      <stop
         id="stop5046"
         offset="0.40000001"
         style="stop-color:#e0e6ef;stop-opacity:1;" />
      <stop
         style="stop-color:white;stop-opacity:1;"
         offset="0.5"
         id="stop5048" />
      <stop
         id="stop5050"
         offset="0.60000002"
         style="stop-color:#f6e8c0;stop-opacity:1;" />
      <stop
         style="stop-color:#b0b8a9;stop-opacity:1;"
         offset="1"
         id="stop5042" />
    </linearGradient>
    <linearGradient
       inkscape:collect="always"
       id="linearGradient6028">
      <stop
         style="stop-color:#ffffff;stop-opacity:1;"
         offset="0"
         id="stop6030" />
      <stop
         style="stop-color:#ffffff;stop-opacity:0;"
         offset="1"
         id="stop6032" />
    </linearGradient>
    <linearGradient
       inkscape:collect="always"
       id="linearGradient6036">
      <stop
         style="stop-color:#ffffff;stop-opacity:1;"
         offset="0"
         id="stop6038" />
      <stop
         style="stop-color:#ffffff;stop-opacity:0;"
         offset="1"
         id="stop6040" />
    </linearGradient>
    <linearGradient
       id="linearGradient4236">
      <stop
         style="stop-color:#ffffff;stop-opacity:0.32673267;"
         offset="0.0000000"
         id="stop4238" />
      <stop
         style="stop-color:#ffffff;stop-opacity:0.60396039;"
         offset="1.0000000"
         id="stop4240" />
    </linearGradient>
    <linearGradient
       id="aigrd1"
       gradientUnits="userSpaceOnUse"
       x1="14.9966"
       y1="11.1885"
       x2="32.511"
       y2="34.3075">
      <stop
         offset="0"
         style="stop-color:#EBEBEB"
         id="stop3034" />
      <stop
         offset="0.5"
         style="stop-color:#FFFFFF"
         id="stop3036" />
      <stop
         offset="1"
         style="stop-color:#EBEBEB"
         id="stop3038" />
    </linearGradient>
    <linearGradient
       inkscape:collect="always"
       id="linearGradient3018">
      <stop
         style="stop-color:#2e3436;stop-opacity:1;"
         offset="0"
         id="stop3020" />
      <stop
         style="stop-color:#2e3436;stop-opacity:0;"
         offset="1"
         id="stop3022" />
    </linearGradient>
    <linearGradient
       id="linearGradient2867">
      <stop
         style="stop-color:#ffae00;stop-opacity:1;"
         offset="0"
         id="stop2869" />
      <stop
         style="stop-color:#ff3600;stop-opacity:1;"
         offset="1"
         id="stop2871" />
    </linearGradient>
    <linearGradient
       id="linearGradient2946">
      <stop
         style="stop-color:white;stop-opacity:0.51546389;"
         offset="0"
         id="stop2948" />
      <stop
         style="stop-color:white;stop-opacity:0.29896906;"
         offset="1"
         id="stop2950" />
    </linearGradient>
    <linearGradient
       id="linearGradient2932">
      <stop
         style="stop-color:#2e3436;stop-opacity:1;"
         offset="0"
         id="stop2934" />
      <stop
         style="stop-color:black;stop-opacity:1;"
         offset="1"
         id="stop2936" />
    </linearGradient>
    <linearGradient
       inkscape:collect="always"
       xlink:href="#linearGradient2946"
       id="linearGradient2981"
       x1="9"
       y1="0.54837871"
       x2="8.214283"
       y2="46.499241"
       gradientUnits="userSpaceOnUse"
       gradientTransform="matrix(0.968491,0,0,0.968619,0.456197,0.411132)" />
    <linearGradient
       inkscape:collect="always"
       xlink:href="#linearGradient2946"
       id="linearGradient2985"
       gradientUnits="userSpaceOnUse"
       gradientTransform="matrix(0.968491,0,0,0.968619,0.433138,0.895442)"
       x1="9"
       y1="0.54837871"
       x2="8.214283"
       y2="46.499241" />
    <linearGradient
       inkscape:collect="always"
       xlink:href="#linearGradient2932"
       id="linearGradient2987"
       gradientUnits="userSpaceOnUse"
       x1="9.9648914"
       y1="2.0476189"
       x2="38.388885"
       y2="42.896839"
       gradientTransform="matrix(0.997999,0,0,1.016383,-0.256676,-1.00196)" />
    <linearGradient
       inkscape:collect="always"
       xlink:href="#linearGradient4535"
       id="linearGradient3000"
       x1="2.6666667"
       y1="5.9486213"
       x2="30.547073"
       y2="43.394402"
       gradientUnits="userSpaceOnUse"
       gradientTransform="matrix(0.968491,0,0,0.968619,2.575719e-2,1.833585e-2)" />
    <linearGradient
       inkscape:collect="always"
       xlink:href="#linearGradient3018"
       id="linearGradient3024"
       x1="23.619047"
       y1="44.380955"
       x2="24.095238"
       y2="48"
       gradientUnits="userSpaceOnUse" />
    <radialGradient
       inkscape:collect="always"
       xlink:href="#linearGradient5054"
       id="radialGradient5146"
       gradientUnits="userSpaceOnUse"
       gradientTransform="matrix(1,0,0,0.276243,0,33.08603)"
       cx="38.619049"
       cy="45.714287"
       fx="38.619049"
       fy="45.714287"
       r="8.6190472" />
    <linearGradient
       inkscape:collect="always"
       xlink:href="#linearGradient6028"
       id="linearGradient5158"
       gradientUnits="userSpaceOnUse"
       x1="28.702885"
       y1="31.494707"
       x2="17.742729"
       y2="18.366575" />
    <linearGradient
       inkscape:collect="always"
       xlink:href="#linearGradient6036"
       id="linearGradient5162"
       gradientUnits="userSpaceOnUse"
       gradientTransform="matrix(-0.618901,0,0.153332,0.787071,45.20865,9.172642)"
       x1="10.501720"
       y1="3.6100161"
       x2="48.798885"
       y2="54.698483" />
    <linearGradient
       inkscape:collect="always"
       xlink:href="#linearGradient4236"
       id="linearGradient5165"
       gradientUnits="userSpaceOnUse"
       gradientTransform="matrix(-0.773625,0,0.191665,0.983839,48.30798,7.122981)"
       x1="21.125000"
       y1="14.625000"
       x2="29.000000"
       y2="28.000000" />
    <linearGradient
       inkscape:collect="always"
       xlink:href="#linearGradient4236"
       id="linearGradient5168"
       gradientUnits="userSpaceOnUse"
       gradientTransform="matrix(-0.773625,0,0.191665,0.983839,48.30798,7.122981)"
       x1="21.125000"
       y1="14.625000"
       x2="29.000000"
       y2="28.000000" />
    <linearGradient
       inkscape:collect="always"
       xlink:href="#linearGradient5038"
       id="linearGradient5172"
       gradientUnits="userSpaceOnUse"
       x1="27.050457"
       y1="19.904776"
       x2="44.473316"
       y2="41.809536"
       gradientTransform="matrix(1.11889,0,0,1.11889,-5.773655,-5.676349)" />
    <linearGradient
       inkscape:collect="always"
       xlink:href="#aigrd1"
       id="linearGradient5175"
       gradientUnits="userSpaceOnUse"
       gradientTransform="matrix(-0.736787,0,0.182538,0.936989,47.43981,7.204962)"
       x1="14.9966"
       y1="11.1885"
       x2="32.511"
       y2="34.3075" />
  </defs>
  <sodipodi:namedview
     id="base"
     pagecolor="#ffffff"
     bordercolor="#666666"
     borderopacity="1.0"
     inkscape:pageopacity="0.0"
     inkscape:pageshadow="2"
     inkscape:zoom="4.6666667"
     inkscape:cx="36.793651"
     inkscape:cy="16.455026"
     inkscape:current-layer="layer1"
     showgrid="false"
     inkscape:grid-bbox="false"
     inkscape:document-units="px"
     inkscape:window-width="976"
     inkscape:window-height="1039"
     inkscape:window-x="524"
     inkscape:window-y="40"
     showborder="false" />
  <metadata
     id="metadata2925">
    <rdf:RDF>
      <cc:Work
         rdf:about="">
        <dc:format>image/svg+xml</dc:format>
        <dc:type
           rdf:resource="http://purl.org/dc/dcmitype/StillImage" />
      </cc:Work>
    </rdf:RDF>
  </metadata>
  <g
     id="layer1"
     inkscape:label="Layer 1"
     inkscape:groupmode="layer">
    <path
       style="fill:url(#linearGradient3024);fill-opacity:1.0;fill-rule:evenodd;stroke:none;stroke-width:1px;stroke-linecap:butt;stroke-linejoin:miter;stroke-opacity:1"
       d="M 8.4761905,46.380952 L 19.619047,48 L 48,45.714286 L 39.047619,43.238095 L 8.4761905,46.380952 z "
       id="path3006"
       sodipodi:nodetypes="ccccc" />
    <path
       id="path2928"
       style="color:black;fill:url(#linearGradient3000);fill-opacity:1.0;fill-rule:evenodd;stroke:black;stroke-width:1px;stroke-linecap:butt;stroke-linejoin:bevel;marker:none;marker-start:none;marker-mid:none;marker-end:none;stroke-miterlimit:4;stroke-dashoffset:0;stroke-opacity:1;visibility:visible;display:inline;overflow:visible"
       d="M 8.5688003,0.58430126 L 38.873005,3.2660253 L 38.873005,43.401717 L 8.6042132,46.092547 L 0.81746033,42.041185 L 0.95348259,4.6265573 L 8.5688003,0.58430126 z "
       sodipodi:nodetypes="ccccccc" />
    <path
       sodipodi:nodetypes="ccsccccsccccsccccccccscccccccsc"
       style="opacity:1;color:black;fill:url(#linearGradient2987);fill-opacity:1;fill-rule:evenodd;stroke:none;stroke-width:1.00000024px;stroke-linecap:butt;stroke-linejoin:bevel;marker:none;marker-start:none;marker-mid:none;marker-end:none;stroke-miterlimit:4;stroke-dasharray:none;stroke-dashoffset:0;stroke-opacity:1;visibility:visible;display:inline;overflow:visible"
       id="path1940"
       d="M 28.635719,30.402584 C 28.00955,27.476183 24.917327,24.226556 21.499822,23.769206 C 17.946105,23.300207 15.567473,23.496827 12.777494,25.612485 C 11.958186,26.233198 10.089899,27.292669 8.8036769,28.801895 L 8.8036769,33.43001 C 10.615775,29.371984 15.238802,25.731979 19.863242,26.4833 C 27.718151,27.754842 26.459712,33.356363 25.516391,35.668196 C 23.822208,39.826194 17.594393,42.125752 15.677933,38.47918 C 13.595444,34.514758 18.24157,33.406392 18.24157,33.406392 C 18.24157,33.406392 17.033278,34.682112 18.548556,36.077384 C 19.59895,37.051328 21.597407,35.896354 22.291345,33.954684 C 22.900573,32.259901 21.589275,30.107087 18.717298,30.125439 C 16.311558,30.136501 12.702271,32.278488 12.334972,35.949752 C 11.987327,39.426453 13.540552,40.710775 15.795849,42.025219 C 18.044368,43.339615 22.860589,43.467497 25.609231,40.54433 C 28.599125,37.367935 29.473323,34.31159 28.635719,30.402584 z M 8.8670419,1.0792042 L 8.8036769,25.003228 C 10.175964,23.674141 11.812487,22.966421 11.859246,22.933241 C 16.868605,19.592589 21.283644,20.613012 23.880488,21.189499 C 27.982442,22.096336 31.205456,24.998128 32.596719,28.158399 C 34.217713,31.836175 32.814929,39.27777 27.344075,43.475541 C 27.104855,43.658732 26.865636,43.817747 26.625741,43.979508 L 38.41183,42.895433 L 38.41183,3.6282281 L 8.8670419,1.0792042 z M 8.8036769,40.708325 L 8.8036769,45.574191 L 14.420172,45.102838 C 14.041353,44.934183 13.693029,44.75869 13.388754,44.581163 C 11.88432,43.700027 9.7876576,42.405665 8.8036769,40.708325 z "
       i:knockout="Off" />
    <path
       id="path2970"
       style="color:black;fill:none;fill-opacity:1;fill-rule:evenodd;stroke:url(#linearGradient2981);stroke-width:1px;stroke-linecap:butt;stroke-linejoin:bevel;marker:none;marker-start:none;marker-mid:none;marker-end:none;stroke-miterlimit:4;stroke-dashoffset:0;stroke-opacity:1;visibility:visible;display:inline;overflow:visible"
       d="M 8.8608849,1.549611 L 37.99675,4.0468365 L 37.935259,42.214541 L 8.8348063,44.96687 L 1.8474427,41.407505 L 1.9219735,5.2228696 L 8.8608849,1.549611 z "
       sodipodi:nodetypes="ccccccc" />
    <path
       style="opacity:1;color:black;fill:none;fill-opacity:1;fill-rule:evenodd;stroke:url(#linearGradient2985);stroke-width:0.99999982;stroke-linecap:butt;stroke-linejoin:bevel;marker:none;marker-start:none;marker-mid:none;marker-end:none;stroke-miterlimit:4;stroke-dasharray:none;stroke-dashoffset:0;stroke-opacity:1;visibility:visible;display:inline;overflow:visible"
       d="M 8.8574728,1.2098908 L 8.9189643,44.382623"
       id="path2983"
       sodipodi:nodetypes="cc" />
    <path
       sodipodi:type="arc"
       style="color:black;fill:url(#radialGradient5146);fill-opacity:1;fill-rule:evenodd;stroke:none;stroke-width:1;stroke-linecap:butt;stroke-linejoin:bevel;marker:none;marker-start:none;marker-mid:none;marker-end:none;stroke-miterlimit:4;stroke-dasharray:none;stroke-dashoffset:0;stroke-opacity:1;visibility:visible;display:inline;overflow:visible"
       id="path5052"
       sodipodi:cx="38.619049"
       sodipodi:cy="45.714287"
       sodipodi:rx="8.6190472"
       sodipodi:ry="2.3809524"
       d="M 47.238096 45.714287 A 8.6190472 2.3809524 0 1 1  30.000002,45.714287 A 8.6190472 2.3809524 0 1 1  47.238096 45.714287 z"
       transform="matrix(1.290792,5.426968e-2,-5.916774e-2,1.183937,-9.707466,-11.33177)" />
    <path
       inkscape:r_cy="true"
       inkscape:r_cx="true"
       id="path3040"
       d="M 30.779152,12.452104 C 37.92598,12.452104 45.096707,19.760618 46.867322,28.849413 C 48.637937,37.938208 44.314796,45.246724 37.167967,45.246724 C 30.021139,45.246724 22.850411,37.938208 21.079797,28.849413 C 19.309181,19.760618 23.632323,12.452104 30.779152,12.452104 L 30.779152,12.452104 z M 34.740217,32.784769 C 36.434825,32.784769 37.487899,31.004489 37.068062,28.849413 C 36.648226,26.694338 34.90151,24.914059 33.206902,24.914059 C 31.512292,24.914059 30.45922,26.694338 30.879057,28.849413 C 31.298893,31.004489 33.045609,32.784769 34.740217,32.784769 z "
       style="fill:url(#linearGradient5175);fill-rule:nonzero;stroke:none;stroke-miterlimit:4" />
    <path
       inkscape:r_cy="true"
       inkscape:r_cx="true"
       id="path3049"
       d="M 30.779152,12.452104 C 37.92598,12.452104 45.096707,19.760618 46.867321,28.849413 C 48.637937,37.938208 44.314796,45.246724 37.167967,45.246724 C 30.021139,45.246724 22.850411,37.938208 21.079797,28.849413 C 19.309181,19.760618 23.632323,12.452104 30.779152,12.452104 L 30.779152,12.452104 z M 34.740217,32.784769 C 36.434825,32.784769 37.487899,31.004489 37.068062,28.849413 C 36.648226,26.694338 34.90151,24.914059 33.206902,24.914059 C 31.512292,24.914059 30.45922,26.694338 30.879057,28.849413 C 31.298893,31.004489 33.045609,32.784769 34.740217,32.784769 z "
       style="fill:url(#linearGradient5172);fill-opacity:1;fill-rule:nonzero;stroke:#2e3436;stroke-width:1.00000095;stroke-miterlimit:4;stroke-opacity:1" />
    <path
       inkscape:r_cy="true"
       inkscape:r_cx="true"
       id="path3051"
       d="M 32.424272,20.896719 C 35.916472,20.896719 39.381967,24.511581 40.227033,28.849413 C 41.092221,33.290529 38.933832,36.802107 35.522847,36.802107 C 32.030647,36.802107 28.565151,33.187247 27.720086,28.849413 C 26.854898,24.408298 29.013286,20.896719 32.424272,20.896719 L 32.424272,20.896719 z M 34.818626,33.187247 C 36.686546,33.187247 37.847319,31.224895 37.384545,28.849413 C 36.92177,26.473934 34.996414,24.511581 33.128493,24.511581 C 31.260574,24.511581 30.0998,26.473934 30.562574,28.849413 C 31.025348,31.224895 32.950705,33.187247 34.818626,33.187247 z "
       style="opacity:0.10999995;fill-rule:nonzero;stroke:none;stroke-miterlimit:4" />
    <path
       inkscape:r_cy="true"
       inkscape:r_cx="true"
       style="fill:url(#linearGradient5168);fill-opacity:1;fill-rule:nonzero;stroke:none;stroke-miterlimit:4;stroke-opacity:1"
       d="M 27.559106,13.63473 L 31.930864,24.649521 C 31.280709,24.885262 30.830758,25.433027 30.600287,26.191032 L 21.773192,20.249211 C 22.709043,16.998832 24.761451,14.607433 27.559106,13.63473 z "
       id="path3916" />
    <path
       inkscape:r_cy="true"
       inkscape:r_cx="true"
       id="path4214"
       d="M 41.207543,43.619629 L 36.183684,32.874933 C 36.802211,32.567195 37.203877,31.963069 37.376847,31.168086 L 46.402012,36.287704 C 45.711479,39.691165 43.871966,42.337826 41.207543,43.619629 z "
       style="fill:url(#linearGradient5165);fill-opacity:1;fill-rule:nonzero;stroke:none;stroke-miterlimit:4;stroke-opacity:1" />
    <path
       inkscape:r_cy="true"
       inkscape:r_cx="true"
       style="opacity:0.54644811;fill:none;fill-rule:nonzero;stroke:url(#linearGradient5162);stroke-width:1.00000095;stroke-miterlimit:4;stroke-opacity:1"
       d="M 45.847444,28.849411 C 47.530034,37.486368 43.611254,44.052667 36.819721,44.052667 C 30.028189,44.052667 23.924351,37.581089 22.241761,28.944132 C 20.559169,20.307176 24.146427,13.598795 30.937959,13.598795 C 39.77645,14.579598 43.364637,21.111385 45.847444,28.849411 z "
       id="path5264"
       sodipodi:nodetypes="ccccc" />
    <path
       transform="matrix(-0.618901,0,0.153332,0.787071,45.16749,9.242214)"
       style="opacity:0.67213111;color:black;fill:none;fill-opacity:0.31638417;fill-rule:nonzero;stroke:url(#linearGradient5158);stroke-width:1.33326805;stroke-linecap:butt;stroke-linejoin:miter;stroke-miterlimit:4;stroke-dashoffset:0;stroke-opacity:1;marker:none;marker-start:none;marker-mid:none;marker-end:none;visibility:visible;display:inline;overflow:visible"
       d="M 30.875901,25.172647 C 30.875901,28.539183 27.855861,31.352112 24.489326,31.352112 C 21.122791,31.352112 17.800306,27.893833 17.800306,24.527297 C 17.800306,21.160762 20.94026,18.831845 24.306795,18.831845 C 27.67333,18.831845 30.875901,21.806112 30.875901,25.172647 z "
       id="path6026"
       sodipodi:nodetypes="csssc" />
  </g>
</svg>
