<?xml version="1.0" encoding="UTF-8" standalone="no"?>
<!-- Created with Inkscape (http://www.inkscape.org/) -->
<svg
   xmlns:ns="http://ns.adobe.com/AdobeIllustrator/10.0/"
   xmlns:a="http://ns.adobe.com/AdobeSVGViewerExtensions/3.0/"
   xmlns:dc="http://purl.org/dc/elements/1.1/"
   xmlns:cc="http://web.resource.org/cc/"
   xmlns:rdf="http://www.w3.org/1999/02/22-rdf-syntax-ns#"
   xmlns:svg="http://www.w3.org/2000/svg"
   xmlns="http://www.w3.org/2000/svg"
   xmlns:xlink="http://www.w3.org/1999/xlink"
   xmlns:sodipodi="http://sodipodi.sourceforge.net/DTD/sodipodi-0.dtd"
   xmlns:inkscape="http://www.inkscape.org/namespaces/inkscape"
   width="48px"
   height="48px"
   id="svg6501"
   sodipodi:version="0.32"
   inkscape:version="0.44.1"
   sodipodi:docbase="e:\dev_clean\src\houdini\support\icons\desktop"
   sodipodi:docname="rat.svg">
  <defs
     id="defs6503">
    <linearGradient
       inkscape:collect="always"
       id="linearGradient18295">
      <stop
         style="stop-color:#2e3436;stop-opacity:1;"
         offset="0"
         id="stop18297" />
      <stop
         style="stop-color:#2e3436;stop-opacity:0;"
         offset="1"
         id="stop18299" />
    </linearGradient>
    <radialGradient
       inkscape:collect="always"
       xlink:href="#linearGradient18295"
       id="radialGradient18301"
       cx="24.507936"
       cy="38.888889"
       fx="24.507936"
       fy="38.888889"
       r="12.571428"
       gradientTransform="matrix(1,0,0,0.244949,0,29.36308)"
       gradientUnits="userSpaceOnUse" />
    <radialGradient
       gradientUnits="userSpaceOnUse"
       fy="613.7427"
       fx="1125.395"
       r="27.2786"
       cy="613.7427"
       cx="1125.395"
       id="XMLID_357_">
      <stop
         id="stop8509"
         style="stop-color:#FFFFFF"
         offset="0.264" />
      <stop
         id="stop8511"
         style="stop-color:#F6F7F8"
         offset="0.2853" />
      <stop
         id="stop8513"
         style="stop-color:#E3E6E8"
         offset="0.3469" />
      <stop
         id="stop8515"
         style="stop-color:#D5D9DD"
         offset="0.4176" />
      <stop
         id="stop8517"
         style="stop-color:#CCD2D7"
         offset="0.5048" />
      <stop
         id="stop8519"
         style="stop-color:#CAD0D5"
         offset="0.6573" />
      <stop
         id="stop8521"
         style="stop-color:#78828C"
         offset="1" />
      <a:midPointStop
         style="stop-color:#FFFFFF"
         offset="0.264" />
      <a:midPointStop
         style="stop-color:#FFFFFF"
         offset="0.1921" />
      <a:midPointStop
         style="stop-color:#CAD0D5"
         offset="0.6573" />
      <a:midPointStop
         style="stop-color:#CAD0D5"
         offset="0.5" />
      <a:midPointStop
         style="stop-color:#78828C"
         offset="1" />
    </radialGradient>
    <radialGradient
       inkscape:collect="always"
       xlink:href="#XMLID_357_"
       id="radialGradient17388"
       gradientUnits="userSpaceOnUse"
       cx="1125.395"
       cy="613.7427"
       fx="1125.395"
       fy="613.7427"
       r="27.2786" />
    <linearGradient
       id="linearGradient2182">
      <stop
         id="stop2184"
         offset="0"
         style="stop-color:#888a85;stop-opacity:1" />
      <stop
         id="stop2186"
         offset="1"
         style="stop-color:#2e3436;stop-opacity:1" />
    </linearGradient>
    <radialGradient
       gradientUnits="userSpaceOnUse"
       gradientTransform="matrix(-1,0,0,1,55.3594,-2.108036e-14)"
       fy="220.8765"
       fx="-64.877"
       r="14.1194"
       cy="220.8765"
       cx="-64.877"
       id="XMLID_514_">
      <stop
         id="stop7514"
         style="stop-color:#ff8e6b;stop-opacity:1;"
         offset="0" />
      <stop
         id="stop7516"
         style="stop-color:#A40E0A"
         offset="0.8258" />
      <stop
         id="stop7518"
         style="stop-color:#660D0B"
         offset="1" />
      <a:midPointStop
         style="stop-color:#FFFFFF"
         offset="0" />
      <a:midPointStop
         style="stop-color:#FFFFFF"
         offset="0.5" />
      <a:midPointStop
         style="stop-color:#A40E0A"
         offset="0.8258" />
      <a:midPointStop
         style="stop-color:#A40E0A"
         offset="0.5" />
      <a:midPointStop
         style="stop-color:#660D0B"
         offset="1" />
    </radialGradient>
    <radialGradient
       id="XMLID_515_"
       cx="-62.017101"
       cy="217.6792"
       r="17.1761"
       fx="-62.017101"
       fy="217.6792"
       gradientTransform="matrix(-1,0,0,1,55.3594,-2.108036e-14)"
       gradientUnits="userSpaceOnUse">
      <stop
         offset="0"
         style="stop-color:#FFFFFF"
         id="stop7525" />
      <stop
         offset="1"
         style="stop-color:#A42522"
         id="stop7527" />
      <a:midPointStop
         offset="0"
         style="stop-color:#FFFFFF" />
      <a:midPointStop
         offset="0.5"
         style="stop-color:#FFFFFF" />
      <a:midPointStop
         offset="1"
         style="stop-color:#A42522" />
    </radialGradient>
    <linearGradient
       gradientTransform="translate(191.6904,-2.108036e-14)"
       y2="222.647"
       x2="-83.8262"
       y1="222.647"
       x1="-100.2061"
       gradientUnits="userSpaceOnUse"
       id="XMLID_517_">
      <stop
         id="stop7539"
         style="stop-color:#84A8C9"
         offset="0.0281" />
      <stop
         id="stop7541"
         style="stop-color:#88ABCB"
         offset="0.1081" />
      <stop
         id="stop7543"
         style="stop-color:#95B5CE"
         offset="0.1909" />
      <stop
         id="stop7545"
         style="stop-color:#A3C0D3"
         offset="0.2528" />
      <stop
         id="stop7547"
         style="stop-color:#9CBBD0"
         offset="0.2942" />
      <stop
         id="stop7549"
         style="stop-color:#88ACCA"
         offset="0.3548" />
      <stop
         id="stop7551"
         style="stop-color:#6A94BE"
         offset="0.4271" />
      <stop
         id="stop7553"
         style="stop-color:#4177AF"
         offset="0.5079" />
      <stop
         id="stop7555"
         style="stop-color:#3F76AF"
         offset="0.5112" />
      <stop
         id="stop7557"
         style="stop-color:#224987"
         offset="0.736" />
      <stop
         id="stop7559"
         style="stop-color:#244D8A"
         offset="0.8287" />
      <stop
         id="stop7561"
         style="stop-color:#2A5794"
         offset="0.9236" />
      <stop
         id="stop7563"
         style="stop-color:#3065A0"
         offset="1" />
      <a:midPointStop
         style="stop-color:#84A8C9"
         offset="0.0281" />
      <a:midPointStop
         style="stop-color:#84A8C9"
         offset="0.7" />
      <a:midPointStop
         style="stop-color:#A3C0D3"
         offset="0.2528" />
      <a:midPointStop
         style="stop-color:#A3C0D3"
         offset="0.625" />
      <a:midPointStop
         style="stop-color:#3F76AF"
         offset="0.5112" />
      <a:midPointStop
         style="stop-color:#3F76AF"
         offset="0.5" />
      <a:midPointStop
         style="stop-color:#224987"
         offset="0.736" />
      <a:midPointStop
         style="stop-color:#224987"
         offset="0.7021" />
      <a:midPointStop
         style="stop-color:#3065A0"
         offset="1" />
    </linearGradient>
    <radialGradient
       gradientUnits="userSpaceOnUse"
       gradientTransform="matrix(-1,0,0,0.8472,55.6533,28.5194)"
       fy="214.0054"
       fx="-37.2915"
       r="19.4461"
       cy="214.0054"
       cx="-37.2915"
       id="XMLID_518_">
      <stop
         id="stop7568"
         style="stop-color:#FFFFFF"
         offset="0" />
      <stop
         id="stop7570"
         style="stop-color:#224987"
         offset="1" />
      <a:midPointStop
         style="stop-color:#FFFFFF"
         offset="0" />
      <a:midPointStop
         style="stop-color:#FFFFFF"
         offset="0.5" />
      <a:midPointStop
         style="stop-color:#224987"
         offset="1" />
    </radialGradient>
    <radialGradient
       id="XMLID_519_"
       cx="-38.265598"
       cy="214.14211"
       r="20.101801"
       fx="-38.265598"
       fy="214.14211"
       gradientTransform="matrix(-1,0,0,1,55.6533,-2.108036e-14)"
       gradientUnits="userSpaceOnUse">
      <stop
         offset="0"
         style="stop-color:#FFFFFF"
         id="stop7577" />
      <stop
         offset="1"
         style="stop-color:#3065A0"
         id="stop7579" />
      <a:midPointStop
         offset="0"
         style="stop-color:#FFFFFF" />
      <a:midPointStop
         offset="0.5"
         style="stop-color:#FFFFFF" />
      <a:midPointStop
         offset="1"
         style="stop-color:#3065A0" />
    </radialGradient>
    <linearGradient
       y2="229.1887"
       x2="118.0705"
       y1="229.561"
       x1="103.9902"
       gradientUnits="userSpaceOnUse"
       id="XMLID_521_">
      <stop
         id="stop7607"
         style="stop-color:#FFFFFF"
         offset="0" />
      <stop
         id="stop7609"
         style="stop-color:#FEFDEC"
         offset="0.0781" />
      <stop
         id="stop7611"
         style="stop-color:#FCF7BB"
         offset="0.2364" />
      <stop
         id="stop7613"
         style="stop-color:#F8ED6D"
         offset="0.4586" />
      <stop
         id="stop7615"
         style="stop-color:#F6E94F"
         offset="0.5393" />
      <stop
         id="stop7617"
         style="stop-color:#F5E84A"
         offset="0.641" />
      <stop
         id="stop7619"
         style="stop-color:#F3E43E"
         offset="0.7553" />
      <stop
         id="stop7621"
         style="stop-color:#F0DD29"
         offset="0.8757" />
      <stop
         id="stop7623"
         style="stop-color:#EBD30F"
         offset="0.9996" />
      <stop
         id="stop7625"
         style="stop-color:#EBD30F"
         offset="1" />
      <a:midPointStop
         style="stop-color:#FFFFFF"
         offset="0" />
      <a:midPointStop
         style="stop-color:#FFFFFF"
         offset="0.549" />
      <a:midPointStop
         style="stop-color:#F6E94F"
         offset="0.5393" />
      <a:midPointStop
         style="stop-color:#F6E94F"
         offset="0.6829" />
      <a:midPointStop
         style="stop-color:#EBD30F"
         offset="1" />
    </linearGradient>
    <linearGradient
       y2="227.5685"
       x2="105.6043"
       y1="228.6987"
       x1="107.7705"
       gradientUnits="userSpaceOnUse"
       id="XMLID_523_">
      <stop
         id="stop7637"
         style="stop-color:#EFEEEC"
         offset="0" />
      <stop
         id="stop7639"
         style="stop-color:#F6E94F"
         offset="1" />
      <a:midPointStop
         style="stop-color:#EFEEEC"
         offset="0" />
      <a:midPointStop
         style="stop-color:#EFEEEC"
         offset="0.5" />
      <a:midPointStop
         style="stop-color:#F6E94F"
         offset="1" />
    </linearGradient>
    <linearGradient
       id="XMLID_524_"
       gradientUnits="userSpaceOnUse"
       x1="105.5703"
       y1="226.4146"
       x2="115.7383"
       y2="240.7748">
      <stop
         offset="0"
         style="stop-color:#FAFAFA"
         id="stop7648" />
      <stop
         offset="0.5787"
         style="stop-color:#F6E94F"
         id="stop7650" />
      <stop
         offset="0.693"
         style="stop-color:#F3E54B"
         id="stop7652" />
      <stop
         offset="0.7933"
         style="stop-color:#EAD740"
         id="stop7654" />
      <stop
         offset="0.8883"
         style="stop-color:#DBC32F"
         id="stop7656" />
      <stop
         offset="0.9796"
         style="stop-color:#C8A61A"
         id="stop7658" />
      <stop
         offset="1"
         style="stop-color:#C3A016"
         id="stop7660" />
      <a:midPointStop
         offset="0"
         style="stop-color:#FAFAFA" />
      <a:midPointStop
         offset="0.5"
         style="stop-color:#FAFAFA" />
      <a:midPointStop
         offset="0.5787"
         style="stop-color:#F6E94F" />
      <a:midPointStop
         offset="0.7333"
         style="stop-color:#F6E94F" />
      <a:midPointStop
         offset="1"
         style="stop-color:#C3A016" />
    </linearGradient>
    <radialGradient
       id="XMLID_520_"
       cx="96.070297"
       cy="217.4595"
       r="30.601999"
       fx="96.070297"
       fy="217.4595"
       gradientTransform="matrix(1,0,0,0.8472,-1.501577e-14,28.5194)"
       gradientUnits="userSpaceOnUse">
      <stop
         offset="0"
         style="stop-color:#FFFFFF"
         id="stop7586" />
      <stop
         offset="0.0661"
         style="stop-color:#F4F7FA"
         id="stop7588" />
      <stop
         offset="0.1822"
         style="stop-color:#D7E1EC"
         id="stop7590" />
      <stop
         offset="0.3348"
         style="stop-color:#A7BDD7"
         id="stop7592" />
      <stop
         offset="0.5157"
         style="stop-color:#668DB9"
         id="stop7594" />
      <stop
         offset="0.6517"
         style="stop-color:#3065A0"
         id="stop7596" />
      <stop
         offset="0.9157"
         style="stop-color:#1A3A6B"
         id="stop7598" />
      <a:midPointStop
         offset="0"
         style="stop-color:#FFFFFF" />
      <a:midPointStop
         offset="0.5826"
         style="stop-color:#FFFFFF" />
      <a:midPointStop
         offset="0.6517"
         style="stop-color:#3065A0" />
      <a:midPointStop
         offset="0.5"
         style="stop-color:#3065A0" />
      <a:midPointStop
         offset="0.9157"
         style="stop-color:#1A3A6B" />
    </radialGradient>
    <linearGradient
       id="linearGradient2867">
      <stop
         style="stop-color:#ffae00;stop-opacity:1;"
         offset="0"
         id="stop2869" />
      <stop
         style="stop-color:#ff3600;stop-opacity:1;"
         offset="1"
         id="stop2871" />
    </linearGradient>
    <radialGradient
       inkscape:collect="always"
       xlink:href="#linearGradient2867"
       id="radialGradient2873"
       cx="21.482999"
       cy="22.169078"
       fx="21.482999"
       fy="22.169078"
       r="21.155687"
       gradientTransform="matrix(0.731538,0,0,0.731538,-12.23944,5.30628)"
       gradientUnits="userSpaceOnUse" />
    <linearGradient
       id="linearGradient6550">
      <stop
         style="stop-color:#2e3436;stop-opacity:0.627451;"
         offset="0"
         id="stop6552" />
      <stop
         style="stop-color:#2e3436;stop-opacity:0;"
         offset="1"
         id="stop6554" />
    </linearGradient>
    <linearGradient
       id="linearGradient6534">
      <stop
         style="stop-color:#d7d7d2;stop-opacity:1"
         offset="0"
         id="stop6536" />
      <stop
         id="stop6542"
         offset="0.25"
         style="stop-color:#e6e6e4;stop-opacity:1;" />
      <stop
         style="stop-color:#fdfdfd;stop-opacity:1;"
         offset="1"
         id="stop6538" />
    </linearGradient>
    <linearGradient
       id="linearGradient6511">
      <stop
         style="stop-color:#767873;stop-opacity:1"
         offset="0"
         id="stop6513" />
      <stop
         style="stop-color:black;stop-opacity:1;"
         offset="1"
         id="stop6515" />
    </linearGradient>
    <linearGradient
       inkscape:collect="always"
       xlink:href="#linearGradient6511"
       id="linearGradient6517"
       x1="10.268147"
       y1="-0.3101005"
       x2="32.10799"
       y2="47.619049"
       gradientUnits="userSpaceOnUse"
       gradientTransform="matrix(0.935475,0,0,0.925811,5.290164,0.292966)" />
    <linearGradient
       inkscape:collect="always"
       xlink:href="#linearGradient6534"
       id="linearGradient6540"
       x1="7.1883569"
       y1="1.5177766"
       x2="40.660942"
       y2="43.704922"
       gradientUnits="userSpaceOnUse"
       gradientTransform="matrix(0.988931,0,0,0.988935,0.265345,0.261404)" />
    <linearGradient
       inkscape:collect="always"
       xlink:href="#linearGradient2182"
       id="linearGradient6544"
       gradientUnits="userSpaceOnUse"
       gradientTransform="matrix(1.142117,0,0,1.148141,-2.522191,0.236372)"
       x1="28.462433"
       y1="1.3810794"
       x2="36.768177"
       y2="10.375507" />
    <radialGradient
       inkscape:collect="always"
       xlink:href="#linearGradient6550"
       id="radialGradient6556"
       cx="23.714285"
       cy="44.190475"
       fx="23.714285"
       fy="44.190475"
       r="23.269842"
       gradientTransform="matrix(1,0,0,0.141883,0,37.92061)"
       gradientUnits="userSpaceOnUse" />
    <radialGradient
       inkscape:collect="always"
       xlink:href="#linearGradient2867"
       id="radialGradient6572"
       cx="10.075436"
       cy="41.235737"
       fx="10.075436"
       fy="41.235737"
       r="16.472261"
       gradientTransform="matrix(1.770352,3.219228e-2,-3.24163e-2,1.782687,-6.129846,-33.09413)"
       gradientUnits="userSpaceOnUse" />
  </defs>
  <sodipodi:namedview
     id="base"
     pagecolor="#ffffff"
     bordercolor="#666666"
     borderopacity="1.0"
     inkscape:pageopacity="0.0"
     inkscape:pageshadow="2"
     inkscape:zoom="15.75"
     inkscape:cx="24"
     inkscape:cy="24.545467"
     inkscape:current-layer="layer1"
     showgrid="true"
     inkscape:grid-bbox="false"
     inkscape:document-units="px"
     inkscape:window-width="1298"
     inkscape:window-height="1058"
     inkscape:window-x="319"
     inkscape:window-y="10" />
  <metadata
     id="metadata6506">
    <rdf:RDF>
      <cc:Work
         rdf:about="">
        <dc:format>image/svg+xml</dc:format>
        <dc:type
           rdf:resource="http://purl.org/dc/dcmitype/StillImage" />
      </cc:Work>
    </rdf:RDF>
  </metadata>
  <g
     id="layer1"
     inkscape:label="Layer 1"
     inkscape:groupmode="layer">
    <path
       sodipodi:type="arc"
       style="opacity:1;color:black;fill:url(#radialGradient6556);fill-opacity:1;fill-rule:evenodd;stroke:none;stroke-width:0.96590275;stroke-linecap:butt;stroke-linejoin:round;marker:none;marker-start:none;marker-mid:none;marker-end:none;stroke-miterlimit:4;stroke-dasharray:none;stroke-dashoffset:0;stroke-opacity:1;visibility:visible;display:inline;overflow:visible"
       id="path6546"
       sodipodi:cx="23.714285"
       sodipodi:cy="44.190475"
       sodipodi:rx="23.269842"
       sodipodi:ry="3.3015873"
       d="M 46.984127 44.190475 A 23.269842 3.3015873 0 1 1  0.44444275,44.190475 A 23.269842 3.3015873 0 1 1  46.984127 44.190475 z"
       transform="matrix(0.999893,0,0,1.173367,0.260473,-7.6644)" />
    <path
       style="color:black;fill:url(#linearGradient6540);fill-opacity:1;fill-rule:evenodd;stroke:url(#linearGradient6517);stroke-width:1.49999976;stroke-linecap:butt;stroke-linejoin:round;marker:none;marker-start:none;marker-mid:none;marker-end:none;stroke-miterlimit:4;stroke-dasharray:none;stroke-dashoffset:0;stroke-opacity:1;visibility:visible;display:inline;overflow:visible"
       d="M 6.6933776,0.75587144 L 28.5566,0.75587144 L 41.305982,13.166276 L 41.305982,44.269 L 6.6933776,44.269 L 6.6933776,0.75587144 z "
       id="rect6509"
       sodipodi:nodetypes="cccccc" />
    <path
       sodipodi:type="arc"
       style="opacity:1;color:black;fill:url(#radialGradient18301);fill-opacity:1;fill-rule:nonzero;stroke:none;stroke-width:0.5;stroke-linecap:round;stroke-linejoin:miter;marker:none;marker-start:none;marker-mid:none;marker-end:none;stroke-miterlimit:6;stroke-dasharray:none;stroke-dashoffset:0;stroke-opacity:1;visibility:visible;display:inline;overflow:visible"
       id="path17408"
       sodipodi:cx="24.507936"
       sodipodi:cy="38.888889"
       sodipodi:rx="12.571428"
       sodipodi:ry="3.079365"
       d="M 37.079365 38.888889 A 12.571428 3.079365 0 1 1  11.936508,38.888889 A 12.571428 3.079365 0 1 1  37.079365 38.888889 z"
       transform="matrix(0.899619,0,0,0.899619,1.675826,2.967242)" />
    <path
       style="color:black;fill:none;fill-opacity:1;fill-rule:evenodd;stroke:white;stroke-width:1;stroke-linecap:butt;stroke-linejoin:miter;marker:none;marker-start:none;marker-mid:none;marker-end:none;stroke-miterlimit:4;stroke-dashoffset:0;stroke-opacity:1;visibility:visible;display:inline;overflow:visible;stroke-dasharray:none"
       d="M 7.8728073,1.9856869 L 30.494348,1.9856869 L 40.126597,10.879127 L 40.126597,43.039159 L 7.8728073,43.039159 L 7.8728073,1.9856869 z "
       id="path6574"
       sodipodi:nodetypes="cccccc" />
    <g
       id="g17365"
       transform="matrix(0.573434,0,0,0.573434,6.414792,10.99772)">
      <circle
         ns:knockout="Off"
         a:adobe-blending-mode="multiply"
         cx="1131.193"
         cy="619.51099"
         r="21.458"
         id="circle8523"
         style="fill:url(#radialGradient17388);stroke:#41464c;stroke-width:1.02304006"
         sodipodi:cx="1131.193"
         sodipodi:cy="619.51099"
         sodipodi:rx="21.458"
         sodipodi:ry="21.458"
         transform="matrix(1.086548,0,0,1.086548,-1198.429,-648.4935)" />
      <path
         ns:knockout="Off"
         d="M 39.484178,46.223486 C 41.180279,45.176054 42.592792,43.546233 43.645656,41.454628 L 43.645656,41.454628 C 46.166447,40.597342 48.216763,39.493409 49.607544,38.229754 L 49.606458,38.230841 C 47.067195,41.762121 43.565252,44.555635 39.484178,46.223486"
         id="path8525" />
      <path
         ns:knockout="Off"
         d="M 53.977639,24.299125 C 53.977639,25.394365 53.535415,26.44723 52.718331,27.427296 L 52.718331,27.427296 C 52.761792,31.575735 51.574196,35.315633 49.476072,38.348188 L 49.607544,38.231927 C 52.35977,34.405106 53.980899,29.709046 53.980899,24.634868 L 53.977639,24.299125 z "
         id="path8527" />
      <path
         ns:knockout="Off"
         d="M 52.718331,27.427296 C 52.716157,27.073081 52.703119,26.716694 52.681388,26.358133 C 52.470598,22.844237 51.40904,19.456381 49.705334,16.401009 L 49.705334,16.401009 C 48.557939,17.821127 46.494585,19.070657 43.802119,20.028992 L 43.802119,20.027905 C 44.640934,22.519359 45.238535,25.139026 45.535163,27.801068 C 45.68402,29.12557 45.751386,30.40661 45.742694,31.637669 L 45.744867,31.637669 C 48.906721,30.530476 51.342761,29.079935 52.718331,27.427296 L 52.718331,27.427296 z "
         id="path8529" />
      <path
         ns:knockout="Off"
         d="M 30.923268,3.1961935 C 34.8381,3.7894486 38.531276,5.3464716 41.725726,7.591279 L 41.725726,7.591279 C 41.028163,8.3703338 39.83296,9.0537724 38.288976,9.5807481 L 38.288976,9.5796615 C 36.122399,6.7828878 33.624426,4.571763 30.99498,3.2320496 L 30.923268,3.1961935 z "
         id="path8531" />
      <path
         ns:knockout="Off"
         d="M 20.584766,3.605822 C 20.179483,3.8763724 19.839394,4.1653941 19.574276,4.4674544 L 19.574276,4.4674544 C 22.451455,3.264646 25.746954,2.7213721 29.285841,3.0071342 C 29.835634,3.0505961 30.383254,3.1136159 30.924355,3.1961935 L 30.996067,3.2320496 C 29.878009,2.6637851 28.73822,2.2519834 27.587566,2.0183757 C 27.006263,1.9021151 26.436912,1.832576 25.883859,1.810845 L 25.883859,1.810845 C 24.025863,2.1976561 22.250444,2.8061228 20.584766,3.605822 L 20.584766,3.605822 z "
         id="path8533" />
      <path
         ns:knockout="Off"
         d="M 45.744867,31.637669 C 42.650379,32.722043 38.8605,33.477194 34.690329,33.778168 L 34.691416,33.778168 C 34.679464,37.569133 34.499097,40.835296 34.16444,43.270249 L 34.163354,43.270249 C 37.704413,43.014911 40.944499,42.374934 43.646743,41.454628 L 43.646743,41.454628 C 44.969072,38.829528 45.719876,35.476442 45.74378,31.637669 L 45.744867,31.637669 z "
         id="path8535" />
      <path
         ns:knockout="Off"
         d="M 32.899699,10.619488 C 33.46579,13.838929 33.940611,17.704866 34.25571,21.908719 C 37.865222,21.640342 41.14225,20.976461 43.802119,20.028992 L 43.802119,20.027905 C 42.48305,16.116333 40.568553,12.524206 38.290062,9.5807481 L 38.290062,9.5818346 C 36.776501,10.097945 34.931543,10.463025 32.899699,10.619488 L 32.899699,10.619488 z "
         id="path8537" />
      <path
         ns:knockout="Off"
         d="M 49.501063,10.890038 C 47.553969,8.6224129 45.116842,6.7481183 42.313549,5.4203568 L 42.296164,5.3649429 C 42.368963,5.5757332 42.408078,5.7919562 42.408078,6.0125254 C 42.408078,6.5666648 42.166865,7.0979867 41.726813,7.591279 L 41.726813,7.591279 C 45.012534,9.9001931 47.771278,12.937094 49.705334,16.399922 L 49.705334,16.399922 C 50.362695,15.585011 50.720169,14.7136 50.720169,13.808506 C 50.720169,13.043576 50.465917,12.303637 49.992182,11.601727 L 49.501063,10.890038 z "
         id="path8539" />
      <path
         ns:knockout="Off"
         d="M 11.363235,11.552832 C 10.871029,12.266694 10.612431,13.029451 10.612431,13.809592 C 10.612431,14.312664 10.723259,14.807043 10.935135,15.285124 L 10.935135,15.285124 C 12.950682,11.900528 15.798523,9.0439935 19.162475,6.9589085 L 19.162475,6.9589085 C 19.004925,6.6535886 18.922348,6.3374032 18.922348,6.0125254 C 18.922348,5.4714246 19.153782,4.9509682 19.574276,4.4674544 L 19.574276,4.4674544 C 18.509459,4.912939 17.503316,5.4496936 16.56128,6.0690259 L 16.56128,6.0690259 C 14.54682,7.6021445 12.788786,9.4547085 11.363235,11.552832 z "
         id="path8541" />
      <path
         ns:knockout="Off"
         d="M 7.7080884,25.981101 C 7.4744806,25.434567 7.3527873,24.872822 7.3527873,24.299125 L 7.3527873,24.303471 C 7.3527873,24.414299 7.3506142,24.52404 7.3506142,24.634868 C 7.3506142,26.239699 7.5135964,27.806501 7.8221759,29.321149 L 7.8221759,29.321149 C 7.7004826,28.230255 7.6613669,27.115457 7.709175,25.98436"
         id="path8543" />
      <path
         ns:knockout="Off"
         d="M 32.466166,47.880472 C 31.871824,47.92502 31.270963,47.948924 30.665756,47.948924 C 29.417313,47.948924 28.192773,47.851135 26.997571,47.662076 L 26.997571,47.662076 C 25.582886,47.250274 24.468088,45.531355 23.724889,42.887785 L 23.724889,42.887785 C 25.897985,43.215922 28.231889,43.395202 30.665756,43.395202 C 31.857699,43.395202 33.025738,43.35174 34.163354,43.270249 L 34.16444,43.270249 C 33.786322,46.001831 33.214797,47.684893 32.466166,47.880472 L 32.466166,47.880472 z "
         id="path8545" />
      <path
         ns:knockout="Off"
         d="M 23.786822,21.542553 C 23.608628,22.54435 23.446733,23.564618 23.307655,24.602272 C 22.887161,27.694587 22.683976,30.644564 22.673111,33.339202 L 22.673111,33.339202 C 25.166738,33.715148 27.85703,33.920505 30.665756,33.920505 C 32.039153,33.920505 33.383212,33.871611 34.690329,33.777081 L 34.691416,33.777081 C 34.699022,31.088962 34.622963,28.136812 34.454548,25.032544 C 34.399135,23.97316 34.331769,22.930074 34.254624,21.907633 C 33.089844,21.994557 31.890296,22.039105 30.66467,22.039105 C 28.249274,22.040192 25.931667,21.865258 23.786822,21.542553 L 23.786822,21.542553 z "
         id="path8547" />
      <path
         ns:knockout="Off"
         d="M 30.940653,3.1798953 C 29.486852,4.718447 28.061301,7.2446703 26.812858,10.446727 L 26.813944,10.446727 C 28.020012,10.614055 29.31735,10.705325 30.665756,10.705325 C 31.430686,10.705325 32.177144,10.675988 32.899699,10.620574 L 32.899699,10.620574 C 32.329261,7.3717964 31.662121,4.7803802 30.968903,3.1722894 L 30.940653,3.1798953 z "
         id="path8549" />
      <path
         ns:knockout="Off"
         d="M 33.7396,1.5196502 C 32.820381,1.6087471 31.873997,2.1889637 30.940653,3.1788087 L 30.967817,3.1701163 C 30.483216,2.0455394 29.985577,1.40013 29.496631,1.3425429 L 29.521621,1.3458026 C 29.901913,1.3273313 30.281118,1.3186389 30.66467,1.3186389 C 31.705583,1.3186389 32.730197,1.3870914 33.735254,1.5196502 L 33.7396,1.5196502 z "
         id="path8551" />
      <path
         ns:knockout="Off"
         d="M 18.910396,44.771858 C 17.405527,43.571223 16.174469,42.121768 15.22374,40.469129 L 15.22374,40.469129 C 13.812314,39.807422 12.627977,39.053357 11.723969,38.231927 L 11.721796,38.227581 C 13.612389,40.858113 16.03865,43.07793 18.83977,44.73057 L 18.910396,44.771858 z "
         id="path8553" />
      <path
         ns:knockout="Off"
         d="M 12.787699,30.453331 C 12.776834,34.224739 13.592831,37.641932 15.22374,40.469129 L 15.22374,40.469129 C 17.528307,41.552417 20.440255,42.392319 23.724889,42.888871 L 23.724889,42.888871 C 23.028412,40.413715 22.660072,37.127995 22.672024,33.340289 L 22.672024,33.340289 C 18.790875,32.756813 15.391068,31.757189 12.786613,30.475062 L 12.786613,30.453331 L 12.787699,30.453331 z "
         id="path8555" />
      <path
         ns:knockout="Off"
         d="M 7.7080884,25.981101 C 8.4306427,27.672856 10.223447,29.211407 12.787699,30.475062 L 12.787699,30.453331 C 12.792046,28.740932 12.965893,26.953561 13.311415,25.116209 C 13.710179,23.002873 14.328424,20.955817 15.130296,19.014156 L 15.12921,19.014156 C 13.02674,17.956945 11.551208,16.682425 10.935135,15.285124 L 10.935135,15.285124 C 9.3857182,17.880887 8.3274206,20.786316 7.8982342,23.892756 C 7.800445,24.594666 7.7395983,25.292229 7.709175,25.983274 L 7.7080884,25.981101 z "
         id="path8557" />
      <path
         ns:knockout="Off"
         d="M 26.813944,10.44564 C 24.807091,10.167484 23.04797,9.6785374 21.704997,9.0439935 L 21.702823,9.0439935 C 18.991887,11.772315 16.706877,15.189508 15.130296,19.014156 L 15.12921,19.014156 C 17.388142,20.148512 20.369629,21.030789 23.786822,21.542553 L 23.786822,21.542553 C 24.531107,17.39194 25.586145,13.593369 26.813944,10.44564 L 26.813944,10.44564 z "
         id="path8559" />
      <path
         ns:knockout="Off"
         d="M 30.726603,3.2483478 C 27.484344,4.3207705 24.38551,6.345009 21.702823,9.0439935 L 21.704997,9.0439935 C 20.455467,8.4561711 19.563411,7.7433957 19.162475,6.9589085 L 19.162475,6.9589085 C 22.592706,4.8325345 26.552086,3.5091193 30.726603,3.2483478 z "
         id="path8563" />
      <path
         ns:knockout="Off"
         d="M 30.993894,3.2320496 C 32.067403,3.1766356 33.153951,3.1907607 34.247018,3.2809442 C 37.161139,3.5167251 39.876422,4.2620969 42.313549,5.4203568 L 42.296164,5.3649429 C 42.077768,4.7282259 41.53884,4.1338842 40.74892,3.605822 L 40.716323,3.5906103 C 39.910105,3.2048859 39.076723,2.8647964 38.223783,2.5714285 L 38.223783,2.5714285 C 37.475151,2.4497351 36.701529,2.3856288 35.90183,2.3856288 C 34.237239,2.3856288 32.570475,2.661612 30.93848,3.1788087 L 30.993894,3.2320496 z "
         id="path8565" />
    </g>
    <path
       style="opacity:1;color:black;fill:black;fill-opacity:0.0627451;fill-rule:evenodd;stroke:none;stroke-width:1.5000006;stroke-linecap:butt;stroke-linejoin:round;marker:none;marker-start:none;marker-mid:none;marker-end:none;stroke-miterlimit:4;stroke-dasharray:none;stroke-dashoffset:0;stroke-opacity:1;visibility:visible;display:inline;overflow:visible"
       d="M 28.027656,1.3627649 C 27.326838,5.5101499 27.139879,11.63601 27.016413,14.122418 C 26.988344,14.804938 27.453503,15.215514 28.059253,14.998223 C 30.826929,14.765639 37.557725,14.306298 40.822966,13.565828 L 28.027656,1.3627649 z "
       id="path3097"
       sodipodi:nodetypes="ccccc" />
    <path
       style="opacity:1;color:black;fill:black;fill-opacity:0.0627451;fill-rule:evenodd;stroke:none;stroke-width:1.5000006;stroke-linecap:butt;stroke-linejoin:round;marker:none;marker-start:none;marker-mid:none;marker-end:none;stroke-miterlimit:4;stroke-dasharray:none;stroke-dashoffset:0;stroke-opacity:1;visibility:visible;display:inline;overflow:visible"
       d="M 28.043005,1.2301259 C 27.915476,5.3555364 27.68278,10.81978 27.575015,13.280535 C 27.518649,14.1601 28.231814,14.572455 29.068155,14.446512 C 31.847873,14.20947 37.684659,13.71719 40.86354,13.488723 L 28.043005,1.2301259 z "
       id="path3103"
       sodipodi:nodetypes="ccccc" />
    <path
       style="opacity:1;color:black;fill:black;fill-opacity:0.0627451;fill-rule:evenodd;stroke:none;stroke-width:1.5000006;stroke-linecap:butt;stroke-linejoin:round;marker:none;marker-start:none;marker-mid:none;marker-end:none;stroke-miterlimit:4;stroke-dasharray:none;stroke-dashoffset:0;stroke-opacity:1;visibility:visible;display:inline;overflow:visible"
       d="M 28.074751,1.3888561 C 28.918209,5.4680966 28.368742,11.1235 28.239609,12.715451 C 28.161709,13.675809 28.924818,13.867303 29.686972,13.761959 C 31.325792,13.535442 37.504782,13.089916 40.895286,13.647453 L 28.074751,1.3888561 z "
       id="path3105"
       sodipodi:nodetypes="csscc" />
    <path
       style="opacity:1;color:black;fill:white;fill-opacity:1;fill-rule:evenodd;stroke:url(#linearGradient6544);stroke-width:1.5000006;stroke-linecap:butt;stroke-linejoin:round;marker:none;marker-start:none;marker-mid:none;marker-end:none;stroke-miterlimit:4;stroke-dasharray:none;stroke-dashoffset:0;stroke-opacity:1;visibility:visible;display:inline;overflow:visible"
       d="M 28.813487,0.80092769 C 30.548554,6.5442825 29.811704,12.245439 29.811704,12.245439 C 29.811704,12.245439 37.552029,11.398334 41.380054,12.932541 C 40.071776,7.4192937 34.496948,2.7493335 28.813487,0.80092769 z "
       id="path6520"
       sodipodi:nodetypes="cccc" />
  </g>
</svg>
