<?xml version="1.0" encoding="UTF-8" standalone="no"?>
<!-- Created with Inkscape (http://www.inkscape.org/) -->

<svg
   xmlns:a="http://ns.adobe.com/AdobeSVGViewerExtensions/3.0/"
   xmlns:i="http://ns.adobe.com/AdobeIllustrator/10.0/"
   xmlns:dc="http://purl.org/dc/elements/1.1/"
   xmlns:cc="http://creativecommons.org/ns#"
   xmlns:rdf="http://www.w3.org/1999/02/22-rdf-syntax-ns#"
   xmlns:svg="http://www.w3.org/2000/svg"
   xmlns="http://www.w3.org/2000/svg"
   xmlns:xlink="http://www.w3.org/1999/xlink"
   xmlns:sodipodi="http://sodipodi.sourceforge.net/DTD/sodipodi-0.dtd"
   xmlns:inkscape="http://www.inkscape.org/namespaces/inkscape"
   width="48px"
   height="48px"
   id="svg3412"
   sodipodi:version="0.32"
   inkscape:version="0.48.5 r10040"
   sodipodi:docname="ffmpeg.svg"
   version="1.1">
  <defs
     id="defs3414">
    <linearGradient
       id="linearGradient16947">
      <stop
         style="stop-color:#ffffff;stop-opacity:1;"
         offset="0"
         id="stop16949" />
      <stop
         style="stop-color:#ffffff;stop-opacity:0;"
         offset="1"
         id="stop16951" />
    </linearGradient>
    <radialGradient
       r="29.5804"
       gradientTransform="matrix(1,0,0,-1,134.4463,453.7334)"
       cx="-122.3936"
       cy="442.72311"
       gradientUnits="userSpaceOnUse"
       id="a">
      <stop
         id="stop7"
         offset="0"
         stop-color="#fff" />
      <stop
         id="stop9"
         offset="1"
         stop-color="#007808" />
    </radialGradient>
    <linearGradient
       gradientTransform="matrix(0.90427466,0.5649853,-0.56494732,0.90425098,2515.3573,542.17986)"
       y2="854.0769"
       x2="-2239.4355"
       y1="802.6499"
       x1="-2251.4932"
       gradientUnits="userSpaceOnUse"
       id="XMLID_207_">
      <stop
         id="stop22956"
         style="stop-color:#FFFFFF"
         offset="0" />
      <stop
         id="stop22958"
         style="stop-color:#B8C0CA"
         offset="1" />
      <a:midPointStop
         style="stop-color:#FFFFFF"
         offset="0" />
      <a:midPointStop
         style="stop-color:#FFFFFF"
         offset="0.5" />
      <a:midPointStop
         style="stop-color:#B8C0CA"
         offset="1" />
    </linearGradient>
    <linearGradient
       y2="515.8241"
       x2="3.6057"
       y1="524.39398"
       x1="45.409199"
       gradientUnits="userSpaceOnUse"
       id="XMLID_206_"
       gradientTransform="matrix(0.75397631,-0.75397631,0.75400804,0.75400804,-386.15005,-349.99066)">
      <stop
         id="stop22949"
         style="stop-color:#FFFFFF"
         offset="0" />
      <stop
         id="stop22951"
         style="stop-color:#B8C0CA"
         offset="1" />
      <a:midPointStop
         style="stop-color:#FFFFFF"
         offset="0" />
      <a:midPointStop
         style="stop-color:#FFFFFF"
         offset="0.5" />
      <a:midPointStop
         style="stop-color:#B8C0CA"
         offset="1" />
    </linearGradient>
    <linearGradient
       gradientTransform="matrix(0.90427466,0.5649853,-0.56494732,0.90425098,2515.3573,542.17986)"
       y2="850.93927"
       x2="-2226.0481"
       y1="799.50928"
       x1="-2238.1064"
       gradientUnits="userSpaceOnUse"
       id="XMLID_205_">
      <stop
         id="stop22942"
         style="stop-color:#FFFFFF"
         offset="0" />
      <stop
         id="stop22944"
         style="stop-color:#B8C0CA"
         offset="1" />
      <a:midPointStop
         style="stop-color:#FFFFFF"
         offset="0" />
      <a:midPointStop
         style="stop-color:#FFFFFF"
         offset="0.5" />
      <a:midPointStop
         style="stop-color:#B8C0CA"
         offset="1" />
    </linearGradient>
    <radialGradient
       inkscape:collect="always"
       xlink:href="#linearGradient16947"
       id="radialGradient16953"
       cx="24.357143"
       cy="24.571428"
       fx="24.357143"
       fy="24.571428"
       r="24.071428"
       gradientUnits="userSpaceOnUse" />
  </defs>
  <sodipodi:namedview
     id="base"
     pagecolor="#ffffff"
     bordercolor="#666666"
     borderopacity="1.0"
     inkscape:pageopacity="0.0"
     inkscape:pageshadow="2"
     inkscape:zoom="14"
     inkscape:cx="10.352857"
     inkscape:cy="24.068767"
     inkscape:current-layer="layer1"
     showgrid="true"
     inkscape:grid-bbox="false"
     inkscape:document-units="px"
     inkscape:window-width="2560"
     inkscape:window-height="1537"
     inkscape:window-x="-8"
     inkscape:window-y="-8"
     inkscape:window-maximized="1" />
  <metadata
     id="metadata3417">
    <rdf:RDF>
      <cc:Work
         rdf:about="">
        <dc:format>image/svg+xml</dc:format>
        <dc:type
           rdf:resource="http://purl.org/dc/dcmitype/StillImage" />
        <dc:title />
      </cc:Work>
    </rdf:RDF>
  </metadata>
  <g
     id="layer1"
     inkscape:label="Layer 1"
     inkscape:groupmode="layer">
    <path
       sodipodi:type="arc"
       style="color:#000000;fill:url(#radialGradient16953);fill-opacity:1;fill-rule:nonzero;stroke:none;stroke-width:3;marker:none;visibility:visible;display:inline;overflow:visible;enable-background:accumulate"
       id="path16437"
       sodipodi:cx="24.357143"
       sodipodi:cy="24.571428"
       sodipodi:rx="24.071428"
       sodipodi:ry="24.071428"
       d="m 48.428572,24.571428 a 24.071428,24.071428 0 1 1 -48.1428569,0 24.071428,24.071428 0 1 1 48.1428569,0 z"
       transform="translate(-0.28571429,-0.5)" />
    <g
       transform="matrix(0.75397631,-0.75397631,0.75400804,0.75400804,-386.15005,-349.99066)"
       id="g22937">
      <path
         inkscape:connector-curvature="0"
         id="path22939"
         d="m 47.669,528.135 0,-1.048 -0.697,-0.002 c -0.071,10e-4 -0.131,-0.058 -0.129,-0.13 l -0.001,-1.04 c 0.001,-0.07 0.058,-0.13 0.13,-0.129 l 0.697,-10e-4 0,-11.448 -0.699,-0.002 c -0.072,10e-4 -0.131,-0.058 -0.131,-0.13 l 0,-1.037 c 0,-0.073 0.057,-0.133 0.131,-0.131 l 0.699,-0.001 0,-1.114 -47.285,10e-4 0,1.102 0.738,0 c 0.073,-10e-4 0.131,0.059 0.131,0.13 l 0.001,1.039 c -0.001,0.073 -0.06,0.13 -0.131,0.131 l -0.739,0 0.002,11.449 0.74,0 c 0.072,0 0.131,0.058 0.131,0.131 l 0,1.039 c 0,0.07 -0.059,0.13 -0.132,0.131 l -0.74,-0.001 -0.001,1.062 47.285,0 0,-10e-4 z M 2.381,514.324 c -0.073,0.001 -0.132,-0.057 -0.132,-0.128 l 0,-1.041 c 10e-4,-0.07 0.059,-0.13 0.131,-0.129 l 1.716,-10e-4 c 0.073,10e-4 0.131,0.059 0.13,0.13 l 0.001,1.039 c -0.001,0.072 -0.058,0.132 -0.133,0.133 l -1.713,-0.003 z m 2.972,0.002 c -0.072,10e-4 -0.131,-0.06 -0.131,-0.13 l 0,-1.039 c 0.002,-0.072 0.059,-0.13 0.133,-0.131 l 1.713,0 c 0.073,0 0.132,0.058 0.131,0.131 l 0,1.039 c 0,0.072 -0.057,0.13 -0.129,0.129 l -1.717,10e-4 z m 2.972,0.002 c -0.072,-10e-4 -0.131,-0.06 -0.129,-0.132 l -10e-4,-1.041 c 0,-0.069 0.059,-0.128 0.13,-0.127 l 1.716,-0.002 c 0.073,0.002 0.13,0.06 0.132,0.131 l -10e-4,1.039 c -0.001,0.072 -0.059,0.132 -0.132,0.133 l -1.715,-10e-4 z m 2.973,0 c -0.07,-10e-4 -0.129,-0.06 -0.13,-0.13 l -10e-4,-1.039 c 10e-4,-0.073 0.059,-0.133 0.132,-0.131 l 1.714,0 c 0.073,-10e-4 0.132,0.058 0.131,0.13 l 10e-4,1.04 c -10e-4,0.072 -0.06,0.132 -0.132,0.13 l -1.715,0 z m 2.974,0.002 c -0.074,-0.002 -0.133,-0.06 -0.133,-0.133 l 0,-1.039 c 0.002,-0.072 0.059,-0.13 0.131,-0.129 l 1.715,10e-4 c 0.072,-10e-4 0.13,0.057 0.131,0.13 l 0,1.037 c 0,0.073 -0.059,0.132 -0.129,0.132 l -1.715,0.001 z m 2.97,-0.001 c -0.071,0.001 -0.13,-0.059 -0.129,-0.129 l -0.001,-1.04 c 0.002,-0.072 0.061,-0.132 0.133,-0.13 l 1.715,-0.002 c 0.071,10e-4 0.129,0.062 0.129,0.132 l 0,1.037 c 0.002,0.073 -0.059,0.132 -0.129,0.131 l -1.718,10e-4 z m 2.975,0.001 c -0.073,0 -0.132,-0.058 -0.131,-0.131 l -10e-4,-1.039 c 0,-0.07 0.06,-0.13 0.131,-0.129 l 1.715,-10e-4 c 0.074,-10e-4 0.131,0.059 0.132,0.132 l -10e-4,1.037 c 0,0.073 -0.058,0.132 -0.131,0.131 l -1.714,0 z m 2.971,10e-4 c -0.072,10e-4 -0.132,-0.058 -0.131,-0.13 l 0,-1.039 c 0.002,-0.074 0.059,-0.13 0.132,-0.131 l 1.714,0.001 c 0.073,-0.001 0.131,0.057 0.131,0.13 l 0,1.039 c 0,0.071 -0.059,0.13 -0.131,0.131 l -1.715,-10e-4 z m 2.973,0 c -0.071,10e-4 -0.131,-0.057 -0.131,-0.13 l 0.002,-1.039 c -0.002,-0.071 0.057,-0.132 0.129,-0.131 l 1.717,-10e-4 c 0.07,0.003 0.128,0.061 0.129,0.132 l 10e-4,1.039 c -10e-4,0.072 -0.06,0.132 -0.132,0.131 l -1.715,-10e-4 z m 2.972,0.002 c -0.072,-10e-4 -0.13,-0.06 -0.128,-0.132 l -0.002,-1.037 c 0,-0.075 0.059,-0.133 0.131,-0.131 l 1.715,0 c 0.072,-10e-4 0.132,0.058 0.131,0.131 l 0,1.039 c 0,0.07 -0.059,0.13 -0.132,0.13 l -1.715,0 z m 2.974,0 c -0.073,10e-4 -0.132,-0.06 -0.131,-0.13 l -10e-4,-1.037 c 0.002,-0.075 0.06,-0.132 0.131,-0.134 l 1.716,10e-4 c 0.071,10e-4 0.13,0.06 0.13,0.13 l 0,1.04 c 0,0.072 -0.059,0.13 -0.131,0.13 l -1.714,0 0,0 z m 2.972,10e-4 c -0.072,-10e-4 -0.131,-0.06 -0.131,-0.132 l 0,-1.038 c 10e-4,-0.072 0.059,-0.132 0.13,-0.131 l 1.716,10e-4 c 0.073,-10e-4 0.132,0.058 0.131,0.13 l -10e-4,1.039 c 10e-4,0.073 -0.058,0.131 -0.13,0.131 l -1.715,0 z m 2.973,0 c -0.073,0 -0.131,-0.058 -0.131,-0.131 l 0,-1.039 c 0,-0.072 0.059,-0.13 0.131,-0.131 l 1.715,10e-4 c 0.072,10e-4 0.13,0.059 0.131,0.13 l 0,1.039 c 0,0.073 -0.059,0.13 -0.131,0.131 l -1.715,0 z m 2.971,0.001 c -0.071,10e-4 -0.13,-0.059 -0.13,-0.132 l 0,-1.037 c 0,-0.074 0.059,-0.132 0.131,-0.133 l 1.716,10e-4 c 0.071,10e-4 0.129,0.059 0.13,0.132 l 0,1.039 c -10e-4,0.072 -0.059,0.13 -0.131,0.131 l -1.716,-10e-4 z m 2.972,0.002 c -0.071,-10e-4 -0.129,-0.061 -0.128,-0.132 l -10e-4,-1.037 c 0,-0.074 0.058,-0.132 0.133,-0.133 l 1.715,-10e-4 c 0.07,10e-4 0.129,0.061 0.129,0.132 l 0,1.039 c -0.002,0.072 -0.059,0.132 -0.131,0.131 l -1.717,10e-4 z m 1.72,11.447 c 0.072,10e-4 0.13,0.06 0.13,0.134 l 0,1.037 c 0,0.073 -0.059,0.133 -0.129,0.132 L 44,527.085 c -0.073,-0.001 -0.131,-0.06 -0.132,-0.132 l 0,-1.038 c 0.002,-0.072 0.06,-0.129 0.131,-0.13 l 1.716,-10e-4 z m -2.973,0 c 0.073,0.002 0.132,0.06 0.13,0.133 l 0.002,1.037 c -0.002,0.072 -0.061,0.132 -0.131,0.131 l -1.716,-0.001 c -0.073,0.001 -0.132,-0.058 -0.132,-0.128 l 0,-1.042 c 10e-4,-0.07 0.059,-0.129 0.133,-0.13 l 1.714,0 z m -2.972,0.003 c 0.073,-0.001 0.13,0.055 0.13,0.128 l 0.002,1.039 c -0.002,0.072 -0.059,0.13 -0.133,0.131 l -1.714,-0.001 c -0.072,-10e-4 -0.132,-0.058 -0.131,-0.13 l 10e-4,-1.039 c 0,-0.072 0.059,-0.132 0.131,-0.131 l 1.714,0.003 z m -2.973,-0.004 c 0.073,10e-4 0.131,0.059 0.132,0.13 l 0,1.039 c -0.002,0.072 -0.061,0.132 -0.131,0.131 l -1.716,0.002 c -0.072,-0.002 -0.13,-0.06 -0.132,-0.131 l 0,-1.039 c 0,-0.073 0.059,-0.132 0.132,-0.131 l 1.715,-10e-4 z m -2.973,-0.002 c 0.073,0.001 0.131,0.062 0.13,0.132 l 10e-4,1.039 c -10e-4,0.072 -0.06,0.132 -0.132,0.131 l -1.714,0 c -0.072,10e-4 -0.131,-0.06 -0.131,-0.131 l 10e-4,-1.039 c -0.002,-0.073 0.058,-0.13 0.131,-0.131 l 1.714,-0.001 z m -2.971,0 c 0.072,0.001 0.13,0.06 0.129,0.132 l 0.002,1.038 c 0,0.072 -0.061,0.131 -0.131,0.13 l -1.717,0.002 c -0.072,-0.002 -0.129,-0.06 -0.131,-0.133 l 0.001,-1.039 c 0.001,-0.07 0.06,-0.13 0.131,-0.129 l 1.716,-0.001 z m -2.973,0 c 0.072,0.001 0.129,0.058 0.131,0.13 l -10e-4,1.039 c -0.001,0.073 -0.058,0.131 -0.132,0.131 l -1.714,0 c -0.072,-10e-4 -0.132,-0.058 -0.13,-0.132 l 0,-1.038 c 0,-0.072 0.059,-0.132 0.129,-0.131 l 1.717,10e-4 z m -2.973,-0.002 c 0.072,0.002 0.13,0.06 0.129,0.132 l 0,1.039 c 10e-4,0.073 -0.057,0.131 -0.13,0.132 l -1.714,-0.003 c -0.074,0.001 -0.133,-0.058 -0.131,-0.13 l -0.002,-1.038 c 0.002,-0.072 0.061,-0.131 0.132,-0.13 l 1.716,-0.002 z m -2.972,0 c 0.072,0 0.13,0.06 0.131,0.131 l 0,1.039 c -0.002,0.072 -0.059,0.13 -0.133,0.131 l -1.713,-0.001 c -0.072,0.001 -0.133,-0.058 -0.131,-0.13 l 0,-1.041 c 0,-0.071 0.058,-0.128 0.129,-0.129 l 1.717,0 0,0 z m -2.973,-10e-4 c 0.072,-10e-4 0.13,0.059 0.129,0.132 l 10e-4,1.039 c -10e-4,0.07 -0.06,0.13 -0.13,0.129 l -1.715,10e-4 c -0.074,0.001 -0.131,-0.059 -0.133,-0.132 l 0.002,-1.039 c -0.001,-0.071 0.059,-0.13 0.131,-0.131 l 1.715,10e-4 z m -2.973,0 c 0.072,-10e-4 0.131,0.057 0.131,0.13 l -0.001,1.039 c -0.001,0.072 -0.058,0.13 -0.132,0.131 l -1.714,-10e-4 c -0.073,10e-4 -0.13,-0.057 -0.131,-0.13 l -10e-4,-1.039 c 0.002,-0.072 0.061,-0.132 0.133,-0.131 l 1.715,10e-4 z m -2.972,0 c 0.072,-10e-4 0.13,0.057 0.129,0.13 l 10e-4,1.039 c -10e-4,0.07 -0.058,0.13 -0.131,0.131 l -1.714,0 c -0.073,-0.002 -0.131,-0.06 -0.131,-0.133 l 0,-1.039 c -10e-4,-0.071 0.059,-0.13 0.131,-0.129 l 1.715,10e-4 z m -2.972,-0.004 c 0.072,10e-4 0.128,0.061 0.13,0.134 l -0.001,1.037 c 0.001,0.073 -0.059,0.132 -0.13,0.131 l -1.716,0 c -0.073,0 -0.13,-0.058 -0.13,-0.13 l 0,-1.04 c -0.001,-0.07 0.059,-0.13 0.131,-0.131 l 1.716,-10e-4 z m -7.662,1.3 c -0.071,0.001 -0.132,-0.058 -0.131,-0.13 l -10e-4,-1.04 c 0.002,-0.072 0.06,-0.13 0.133,-0.13 l 1.715,0 c 0.072,10e-4 0.131,0.058 0.131,0.13 l 0,1.04 c -0.002,0.072 -0.06,0.132 -0.131,0.131 l -1.716,-0.001 z m 2.843,-1.168 c 0,-0.074 0.057,-0.13 0.13,-0.131 l 1.714,10e-4 c 0.074,-10e-4 0.132,0.058 0.131,0.13 l 0.002,1.038 c 0,0.072 -0.059,0.132 -0.131,0.131 l -1.715,10e-4 c -0.072,-10e-4 -0.131,-0.06 -0.133,-0.133 l 0.002,-1.037 z"
         i:knockout="Off" />
    </g>
    <path
       inkscape:connector-curvature="0"
       style="fill:url(#XMLID_205_)"
       id="path22946"
       d="m 34.526557,20.703352 c -0.09198,0.09049 -0.239014,0.09123 -0.330249,-7e-6 l -6.829032,-6.826053 c -0.08974,-0.09272 -0.09048,-0.239771 7.47e-4,-0.331002 l 9.868034,-9.8665438 c 0.08974,-0.09272 0.238261,-0.09198 0.32874,-0.00301 l 6.828306,6.8297957 c 0.09124,0.09124 0.09124,0.239021 0.0015,0.328741 l -9.868042,9.868042 z"
       i:knockout="Off" />
    <path
       inkscape:connector-curvature="0"
       style="fill:url(#XMLID_206_)"
       id="path22953"
       d="m 22.784128,32.444272 c -0.09123,0.09123 -0.236753,0.09047 -0.32874,-0.0015 l -6.829032,-6.826093 c -0.08973,-0.08973 -0.09124,-0.239022 -7e-6,-0.330249 l 9.868787,-9.867298 c 0.09123,-0.09123 0.239015,-0.09123 0.328741,7e-6 l 6.83055,6.829059 c 0.08972,0.08972 0.08898,0.236752 -7.47e-4,0.327987 l -9.869542,9.868052 z"
       i:knockout="Off" />
    <path
       inkscape:connector-curvature="0"
       style="fill:url(#XMLID_207_)"
       id="path22960"
       d="m 11.045471,44.181422 c -0.09125,0.09423 -0.237503,0.09424 -0.329495,7.47e-4 L 3.8861748,37.355377 c -0.091234,-0.09124 -0.088975,-0.236755 0.0015,-0.330248 l 9.8680333,-9.866544 c 0.09123,-0.09123 0.237508,-0.09123 0.32874,7e-6 l 6.828287,6.826797 c 0.09124,0.09124 0.09124,0.239014 8e-6,0.330249 l -9.867279,9.865789 z"
       i:knockout="Off" />
  </g>
</svg>
