<?xml version="1.0" encoding="UTF-8" standalone="no"?>
<!-- Created with Inkscape (http://www.inkscape.org/) -->

<svg
   xmlns:i="http://ns.adobe.com/AdobeIllustrator/10.0/"
   xmlns:dc="http://purl.org/dc/elements/1.1/"
   xmlns:cc="http://creativecommons.org/ns#"
   xmlns:rdf="http://www.w3.org/1999/02/22-rdf-syntax-ns#"
   xmlns:svg="http://www.w3.org/2000/svg"
   xmlns="http://www.w3.org/2000/svg"
   xmlns:xlink="http://www.w3.org/1999/xlink"
   xmlns:sodipodi="http://sodipodi.sourceforge.net/DTD/sodipodi-0.dtd"
   xmlns:inkscape="http://www.inkscape.org/namespaces/inkscape"
   width="48px"
   height="48px"
   id="svg3412"
   sodipodi:version="0.32"
   inkscape:version="0.48.5 r10040"
   sodipodi:docname="partitionbyframe.svg"
   version="1.1">
  <defs
     id="defs3414">
    <linearGradient
       inkscape:collect="always"
       id="linearGradient4621">
      <stop
         style="stop-color:#2e3436;stop-opacity:0.50196081"
         offset="0"
         id="stop4623" />
      <stop
         style="stop-color:#2e3436;stop-opacity:0;"
         offset="1"
         id="stop4625" />
    </linearGradient>
    <linearGradient
       id="linearGradient4592">
      <stop
         style="stop-color:#647f8e;stop-opacity:1;"
         offset="0"
         id="stop4594" />
      <stop
         style="stop-color:#bac8cf;stop-opacity:1"
         offset="1"
         id="stop4596" />
    </linearGradient>
    <linearGradient
       inkscape:collect="always"
       id="linearGradient4501">
      <stop
         style="stop-color:#d3d7cf;stop-opacity:1"
         offset="0"
         id="stop4503" />
      <stop
         style="stop-color:white;stop-opacity:1"
         offset="1"
         id="stop4505" />
    </linearGradient>
    <linearGradient
       inkscape:collect="always"
       xlink:href="#linearGradient4501"
       id="linearGradient4507"
       x1="23.200819"
       y1="3.504847"
       x2="22.285788"
       y2="32.37022"
       gradientUnits="userSpaceOnUse"
       gradientTransform="matrix(1.061055,0,0,1.061055,46.27903,6.200503)" />
    <linearGradient
       inkscape:collect="always"
       id="linearGradient4464">
      <stop
         style="stop-color:#2e3436;stop-opacity:1;"
         offset="0"
         id="stop4466" />
      <stop
         style="stop-color:#2e3436;stop-opacity:0;"
         offset="1"
         id="stop4468" />
    </linearGradient>
    <linearGradient
       inkscape:collect="always"
       xlink:href="#linearGradient4464"
       id="linearGradient4470"
       x1="10.276073"
       y1="35.035416"
       x2="14.831536"
       y2="37.582352"
       gradientUnits="userSpaceOnUse"
       gradientTransform="matrix(0.709046,6.803315e-2,-6.803315e-2,0.709046,37.19117,14.61957)" />
    <linearGradient
       id="linearGradient2911">
      <stop
         style="stop-color:white;stop-opacity:1;"
         offset="0"
         id="stop2913" />
      <stop
         style="stop-color:#8e8e8e;stop-opacity:1;"
         offset="1"
         id="stop2915" />
    </linearGradient>
    <radialGradient
       inkscape:collect="always"
       xlink:href="#linearGradient2911"
       id="radialGradient2917"
       cx="3.2992275"
       cy="3.4160771"
       fx="3.2992275"
       fy="3.4160771"
       r="2.7505228"
       gradientUnits="userSpaceOnUse" />
    <linearGradient
       inkscape:collect="always"
       id="linearGradient5099">
      <stop
         style="stop-color:#ef8229;stop-opacity:1"
         offset="0"
         id="stop5101" />
      <stop
         style="stop-color:#c00;stop-opacity:1"
         offset="1"
         id="stop5103" />
    </linearGradient>
    <linearGradient
       inkscape:collect="always"
       xlink:href="#linearGradient7804"
       id="linearGradient7810"
       x1="13.697268"
       y1="6.8871083"
       x2="13.697268"
       y2="1.7436063"
       gradientUnits="userSpaceOnUse"
       gradientTransform="matrix(0.951571,0,0,1.112664,-1.145373,-0.472973)" />
    <linearGradient
       id="linearGradient3518">
      <stop
         style="stop-color:#ef2929;stop-opacity:1;"
         offset="0"
         id="stop3520" />
      <stop
         style="stop-color:#f57900;stop-opacity:1"
         offset="1"
         id="stop3522" />
    </linearGradient>
    <linearGradient
       id="linearGradient7804">
      <stop
         style="stop-color:#dfeaa1;stop-opacity:1;"
         offset="0"
         id="stop7806" />
      <stop
         style="stop-color:#9db029;stop-opacity:1;"
         offset="1"
         id="stop7808" />
    </linearGradient>
    <linearGradient
       inkscape:collect="always"
       xlink:href="#linearGradient7804"
       id="linearGradient33185"
       gradientUnits="userSpaceOnUse"
       gradientTransform="matrix(0.625429,0,0,0.637937,-0.648352,2.054657e-2)"
       x1="13.697268"
       y1="6.8871083"
       x2="13.697268"
       y2="1.7436063" />
    <linearGradient
       inkscape:collect="always"
       xlink:href="#linearGradient7804"
       id="linearGradient3514"
       gradientUnits="userSpaceOnUse"
       gradientTransform="matrix(0.625429,0,0,0.637937,20.28021,22.1634)"
       x1="13.697268"
       y1="6.8871083"
       x2="13.697268"
       y2="1.7436063" />
    <linearGradient
       inkscape:collect="always"
       xlink:href="#linearGradient7804"
       id="linearGradient4028"
       gradientUnits="userSpaceOnUse"
       gradientTransform="matrix(1.009669,0,0,1.180598,23.47876,7.844687)"
       x1="13.697268"
       y1="6.8871083"
       x2="13.697268"
       y2="1.7436063" />
    <linearGradient
       inkscape:collect="always"
       xlink:href="#linearGradient7804"
       id="linearGradient5064"
       gradientUnits="userSpaceOnUse"
       gradientTransform="matrix(0.559632,0,0,0.655016,23.17208,24.09204)"
       x1="13.697268"
       y1="6.8871083"
       x2="13.697268"
       y2="1.7436063" />
    <linearGradient
       inkscape:collect="always"
       xlink:href="#linearGradient5099"
       id="linearGradient5105"
       x1="10.785715"
       y1="26.15589"
       x2="14.80308"
       y2="44.441605"
       gradientUnits="userSpaceOnUse"
       gradientTransform="translate(-24,24.95238)" />
    <radialGradient
       inkscape:collect="always"
       xlink:href="#linearGradient2911"
       id="radialGradient4574"
       gradientUnits="userSpaceOnUse"
       cx="3.2992275"
       cy="3.4160771"
       fx="3.2992275"
       fy="3.4160771"
       r="2.7505228" />
    <radialGradient
       inkscape:collect="always"
       xlink:href="#linearGradient2911"
       id="radialGradient4578"
       gradientUnits="userSpaceOnUse"
       cx="3.2992275"
       cy="3.4160771"
       fx="3.2992275"
       fy="3.4160771"
       r="2.7505228" />
    <radialGradient
       inkscape:collect="always"
       xlink:href="#linearGradient2911"
       id="radialGradient4582"
       gradientUnits="userSpaceOnUse"
       cx="3.2992275"
       cy="3.4160771"
       fx="3.2992275"
       fy="3.4160771"
       r="2.7505228" />
    <linearGradient
       inkscape:collect="always"
       xlink:href="#linearGradient4592"
       id="linearGradient4598"
       x1="12.285714"
       y1="17.142857"
       x2="26.714287"
       y2="32.42857"
       gradientUnits="userSpaceOnUse" />
    <linearGradient
       inkscape:collect="always"
       xlink:href="#linearGradient4501"
       id="linearGradient4606"
       gradientUnits="userSpaceOnUse"
       gradientTransform="matrix(1.061055,0,0,1.061055,46.27903,6.200503)"
       x1="23.200819"
       y1="3.504847"
       x2="22.285788"
       y2="32.37022" />
    <linearGradient
       inkscape:collect="always"
       xlink:href="#linearGradient5099"
       id="linearGradient4612"
       gradientUnits="userSpaceOnUse"
       gradientTransform="translate(-24,24.95238)"
       x1="10.785715"
       y1="26.15589"
       x2="14.80308"
       y2="44.441605" />
    <linearGradient
       inkscape:collect="always"
       xlink:href="#linearGradient4621"
       id="linearGradient4627"
       x1="22.714285"
       y1="29.142857"
       x2="26.142857"
       y2="36.57143"
       gradientUnits="userSpaceOnUse"
       gradientTransform="matrix(0.961115,-0.276148,0.276148,0.961115,-9.136427,6.757043)" />
    <linearGradient
       inkscape:collect="always"
       id="linearGradient4493">
      <stop
         style="stop-color:#ffffff;stop-opacity:1"
         offset="0"
         id="stop4489" />
      <stop
         style="stop-color:#c3c3c3;stop-opacity:1"
         offset="1"
         id="stop4491" />
    </linearGradient>
    <radialGradient
       inkscape:collect="always"
       xlink:href="#linearGradient4493"
       id="radialGradient4559"
       gradientUnits="userSpaceOnUse"
       gradientTransform="matrix(0.69000154,0,0,0.69000154,4.6209674,1.9191032)"
       cx="9.3878422"
       cy="8.5827713"
       fx="9.3878422"
       fy="8.5827713"
       r="6.7640119" />
    <radialGradient
       inkscape:collect="always"
       xlink:href="#linearGradient4493"
       id="radialGradient10369"
       gradientUnits="userSpaceOnUse"
       gradientTransform="matrix(0.69000154,0,0,0.69000154,4.6209674,30.294103)"
       cx="9.3878422"
       cy="8.5827713"
       fx="9.3878422"
       fy="8.5827713"
       r="6.7640119" />
    <radialGradient
       inkscape:collect="always"
       xlink:href="#linearGradient4493"
       id="radialGradient10377"
       gradientUnits="userSpaceOnUse"
       gradientTransform="matrix(0.69000154,0,0,0.69000154,15.692396,1.9191032)"
       cx="9.3878422"
       cy="8.5827713"
       fx="9.3878422"
       fy="8.5827713"
       r="6.7640119" />
    <radialGradient
       inkscape:collect="always"
       xlink:href="#linearGradient4493"
       id="radialGradient10379"
       gradientUnits="userSpaceOnUse"
       gradientTransform="matrix(0.69000154,0,0,0.69000154,15.692396,30.294103)"
       cx="9.3878422"
       cy="8.5827713"
       fx="9.3878422"
       fy="8.5827713"
       r="6.7640119" />
    <radialGradient
       inkscape:collect="always"
       xlink:href="#linearGradient4493"
       id="radialGradient10387"
       gradientUnits="userSpaceOnUse"
       gradientTransform="matrix(0.69000154,0,0,0.69000154,26.692396,1.9191032)"
       cx="9.3878422"
       cy="8.5827713"
       fx="9.3878422"
       fy="8.5827713"
       r="6.7640119" />
    <radialGradient
       inkscape:collect="always"
       xlink:href="#linearGradient4493"
       id="radialGradient10389"
       gradientUnits="userSpaceOnUse"
       gradientTransform="matrix(0.69000154,0,0,0.69000154,26.692396,30.294103)"
       cx="9.3878422"
       cy="8.5827713"
       fx="9.3878422"
       fy="8.5827713"
       r="6.7640119" />
    <radialGradient
       inkscape:collect="always"
       xlink:href="#linearGradient4493-1"
       id="radialGradient4557"
       gradientUnits="userSpaceOnUse"
       cx="9.3878422"
       cy="8.5827713"
       fx="9.3878422"
       fy="8.5827713"
       r="6.7640119"
       gradientTransform="matrix(0.69000154,0,0,0.69000154,-1.645228,0.02624606)" />
    <linearGradient
       inkscape:collect="always"
       id="linearGradient4493-1">
      <stop
         style="stop-color:#ffffff;stop-opacity:1"
         offset="0"
         id="stop4489-7" />
      <stop
         style="stop-color:#c3c3c3;stop-opacity:1"
         offset="1"
         id="stop4491-4" />
    </linearGradient>
    <radialGradient
       inkscape:collect="always"
       xlink:href="#linearGradient4493-1"
       id="radialGradient4559-8"
       gradientUnits="userSpaceOnUse"
       gradientTransform="matrix(0.69000154,0,0,0.69000154,9.8709674,0.02624606)"
       cx="9.3878422"
       cy="8.5827713"
       fx="9.3878422"
       fy="8.5827713"
       r="6.7640119" />
    <radialGradient
       inkscape:collect="always"
       xlink:href="#linearGradient4493-1"
       id="radialGradient4561"
       gradientUnits="userSpaceOnUse"
       gradientTransform="matrix(0.69000154,0,0,0.69000154,22.549593,0.02624606)"
       cx="9.3878422"
       cy="8.5827713"
       fx="9.3878422"
       fy="8.5827713"
       r="6.7640119" />
    <radialGradient
       inkscape:collect="always"
       xlink:href="#linearGradient4493-1"
       id="radialGradient4563"
       gradientUnits="userSpaceOnUse"
       gradientTransform="matrix(0.69000154,0,0,0.69000154,33.766792,0.02624606)"
       cx="9.3878422"
       cy="8.5827713"
       fx="9.3878422"
       fy="8.5827713"
       r="6.7640119" />
    <radialGradient
       inkscape:collect="always"
       xlink:href="#linearGradient68743"
       id="radialGradient4566"
       gradientUnits="userSpaceOnUse"
       gradientTransform="matrix(1,0,0,0.35652175,0,28.270661)"
       cx="23.763838"
       cy="43.934135"
       fx="23.763838"
       fy="43.934135"
       r="8.7125654" />
    <linearGradient
       inkscape:collect="always"
       id="linearGradient68743">
      <stop
         style="stop-color:#000000;stop-opacity:1;"
         offset="0"
         id="stop68745" />
      <stop
         style="stop-color:#000000;stop-opacity:0;"
         offset="1"
         id="stop68747" />
    </linearGradient>
    <radialGradient
       inkscape:collect="always"
       xlink:href="#linearGradient68743"
       id="radialGradient4578-0"
       gradientUnits="userSpaceOnUse"
       gradientTransform="matrix(1,0,0,0.35652175,0,28.270661)"
       cx="23.763838"
       cy="43.934135"
       fx="23.763838"
       fy="43.934135"
       r="8.7125654" />
    <radialGradient
       inkscape:collect="always"
       xlink:href="#linearGradient68743"
       id="radialGradient4590"
       gradientUnits="userSpaceOnUse"
       gradientTransform="matrix(1,0,0,0.35652175,0,28.270661)"
       cx="23.763838"
       cy="43.934135"
       fx="23.763838"
       fy="43.934135"
       r="8.7125654" />
    <radialGradient
       r="6.7640119"
       fy="8.5827713"
       fx="9.3878422"
       cy="8.5827713"
       cx="9.3878422"
       gradientTransform="matrix(0.69000154,0,0,0.69000154,-1.645228,0.02624606)"
       gradientUnits="userSpaceOnUse"
       id="radialGradient17676"
       xlink:href="#linearGradient4493-1"
       inkscape:collect="always" />
    <radialGradient
       inkscape:collect="always"
       xlink:href="#linearGradient4493-1"
       id="radialGradient18441"
       gradientUnits="userSpaceOnUse"
       gradientTransform="matrix(0.69000154,0,0,0.69000154,-1.645228,0.02624606)"
       cx="9.3878422"
       cy="8.5827713"
       fx="9.3878422"
       fy="8.5827713"
       r="6.7640119" />
    <radialGradient
       inkscape:collect="always"
       xlink:href="#linearGradient68743"
       id="radialGradient18443"
       gradientUnits="userSpaceOnUse"
       gradientTransform="matrix(1,0,0,0.35652175,0,28.270661)"
       cx="23.763838"
       cy="43.934135"
       fx="23.763838"
       fy="43.934135"
       r="8.7125654" />
    <radialGradient
       inkscape:collect="always"
       xlink:href="#linearGradient4493-1"
       id="radialGradient18481"
       gradientUnits="userSpaceOnUse"
       gradientTransform="matrix(0.69000154,0,0,0.69000154,-1.645228,0.02624606)"
       cx="9.3878422"
       cy="8.5827713"
       fx="9.3878422"
       fy="8.5827713"
       r="6.7640119" />
    <radialGradient
       inkscape:collect="always"
       xlink:href="#linearGradient68743"
       id="radialGradient18483"
       gradientUnits="userSpaceOnUse"
       gradientTransform="matrix(1,0,0,0.35652175,0,28.270661)"
       cx="23.763838"
       cy="43.934135"
       fx="23.763838"
       fy="43.934135"
       r="8.7125654" />
  </defs>
  <sodipodi:namedview
     id="base"
     pagecolor="#ffffff"
     bordercolor="#666666"
     borderopacity="1.0"
     inkscape:pageopacity="0.0"
     inkscape:pageshadow="2"
     inkscape:zoom="14"
     inkscape:cx="-8.7661818"
     inkscape:cy="20.696679"
     inkscape:current-layer="layer1"
     showgrid="true"
     inkscape:grid-bbox="false"
     inkscape:document-units="px"
     inkscape:window-width="2880"
     inkscape:window-height="1557"
     inkscape:window-x="-8"
     inkscape:window-y="-8"
     inkscape:window-maximized="1"
     showguides="false" />
  <metadata
     id="metadata3417">
    <rdf:RDF>
      <cc:Work
         rdf:about="">
        <dc:format>image/svg+xml</dc:format>
        <dc:type
           rdf:resource="http://purl.org/dc/dcmitype/StillImage" />
        <dc:title></dc:title>
      </cc:Work>
    </rdf:RDF>
  </metadata>
  <g
     id="layer1"
     inkscape:label="Layer 1"
     inkscape:groupmode="layer">
    <g
       id="g17883"
       transform="matrix(0.8660254,0.5,-0.5,0.8660254,6.7916231,-4.415572)"
       style="stroke:#4e9a06;stroke-width:3;stroke-miterlimit:4;stroke-dasharray:none">
      <g
         style="stroke:#4e9a06;stroke-width:3;stroke-miterlimit:4;stroke-dasharray:none"
         transform="matrix(0.99737186,0.07245258,-0.07245258,0.99737186,1.1412572,-2.3917336)"
         id="g17885">
        <path
           inkscape:connector-curvature="0"
           id="path17887"
           d="M 5.9599,10.472833 23.486047,36.888322 24.142646,31.18096"
           style="fill:none;stroke:#4e9a06;stroke-width:3;stroke-linecap:round;stroke-linejoin:round;stroke-miterlimit:4;stroke-opacity:1;stroke-dasharray:none" />
        <path
           sodipodi:nodetypes="cc"
           inkscape:connector-curvature="0"
           id="path17889"
           d="M 23.435539,36.837814 17.759291,35.873338"
           style="color:#000000;fill:none;stroke:#4e9a06;stroke-width:3;stroke-linecap:round;stroke-linejoin:round;stroke-miterlimit:4;stroke-opacity:1;stroke-dasharray:none;stroke-dashoffset:0;marker:none;visibility:visible;display:inline;overflow:visible;enable-background:accumulate" />
      </g>
      <g
         id="g17891"
         transform="matrix(0.99737186,0.07245258,-0.07245258,0.99737186,1.1412572,-2.3917336)"
         style="stroke:#4e9a06;stroke-width:3;stroke-miterlimit:4;stroke-dasharray:none">
        <path
           style="fill:none;stroke:#4e9a06;stroke-width:3;stroke-linecap:round;stroke-linejoin:round;stroke-miterlimit:4;stroke-opacity:1;stroke-dasharray:none"
           d="M 5.9599,10.472833 23.486047,36.888322 24.142646,31.18096"
           id="path17893"
           inkscape:connector-curvature="0" />
        <path
           style="color:#000000;fill:none;stroke:#4e9a06;stroke-width:3;stroke-linecap:round;stroke-linejoin:round;stroke-miterlimit:4;stroke-opacity:1;stroke-dasharray:none;stroke-dashoffset:0;marker:none;visibility:visible;display:inline;overflow:visible;enable-background:accumulate"
           d="M 23.435539,36.837814 17.759291,35.873338"
           id="path17895"
           inkscape:connector-curvature="0"
           sodipodi:nodetypes="cc" />
      </g>
    </g>
    <circle
       r="4.5412531"
       cy="7.8847528"
       cx="6.4921379"
       id="circle4533"
       style="fill:url(#radialGradient17676);fill-opacity:1;stroke:#000000;stroke-width:0.5;stroke-linecap:square;stroke-linejoin:round;stroke-miterlimit:4;stroke-opacity:1;stroke-dasharray:none;stroke-dashoffset:0"
       inkscape:export-xdpi="60"
       inkscape:export-ydpi="60"
       sodipodi:cx="6.4921379"
       sodipodi:cy="7.8847528"
       sodipodi:rx="4.5412531"
       sodipodi:ry="4.5412531"
       transform="translate(1.5936331,-2.8928518)" />
    <path
       inkscape:connector-curvature="0"
       style="fill:none;stroke:#2d3335;stroke-width:0.84884423"
       id="path4121"
       i:knockout="Off"
       d="" />
    <path
       style="fill:none;stroke:#2d3335;stroke-width:0.84884423"
       id="path4121-9"
       i:knockout="Off"
       d=""
       inkscape:connector-curvature="0" />
    <path
       sodipodi:type="arc"
       style="color:#000000;fill:url(#radialGradient4566);fill-opacity:1;fill-rule:evenodd;stroke:none;stroke-width:0.5;marker:none;visibility:visible;display:inline;overflow:visible;enable-background:accumulate"
       id="path68741"
       sodipodi:cx="23.763838"
       sodipodi:cy="43.934135"
       sodipodi:rx="8.7125654"
       sodipodi:ry="3.1062191"
       d="m 32.476403,43.934135 a 8.7125654,3.1062191 0 1 1 -17.425131,0 8.7125654,3.1062191 0 1 1 17.425131,0 z"
       transform="matrix(0.88985506,0,0,0.88985506,-13.427447,6.0831118)" />
    <path
       id="path68732"
       style="fill:#555753;stroke:#000000;stroke-width:0.49999997;stroke-linecap:butt;stroke-linejoin:bevel;stroke-miterlimit:4;stroke-opacity:1;stroke-dasharray:none"
       d="M 14.203067,36.906707 7.7679268,34.821294 1.3327869,36.906707 7.7679268,39.017878 z"
       inkscape:connector-curvature="0"
       sodipodi:nodetypes="ccccc" />
    <g
       transform="matrix(0.8660254,0.5,-0.5,0.8660254,6.7916231,-4.415572)"
       id="g5313">
      <g
         id="g5317"
         transform="matrix(0.99737186,0.07245258,-0.07245258,0.99737186,1.1412572,-2.3917336)"
         style="stroke-width:2;stroke-miterlimit:4;stroke-dasharray:none">
        <path
           style="color:#000000;fill:none;stroke:#8ae234;stroke-width:2;stroke-linecap:round;stroke-linejoin:round;stroke-miterlimit:4;stroke-opacity:1;stroke-dasharray:none;stroke-dashoffset:0;marker:none;visibility:visible;display:inline;overflow:visible;enable-background:accumulate"
           d="M 23.435539,36.837814 17.759291,35.873338"
           id="path5294"
           inkscape:connector-curvature="0"
           sodipodi:nodetypes="cc" />
      </g>
      <g
         style="stroke-width:2;stroke-miterlimit:4;stroke-dasharray:none"
         transform="matrix(0.99737186,0.07245258,-0.07245258,0.99737186,1.1412572,-2.3917336)"
         id="g5321">
        <path
           inkscape:connector-curvature="0"
           id="path5323"
           d="M 7.2832747,12.423423 23.486047,36.888322 24.142646,31.18096"
           style="fill:none;stroke:#8ae234;stroke-width:2;stroke-linecap:round;stroke-linejoin:round;stroke-miterlimit:4;stroke-opacity:1;stroke-dasharray:none"
           sodipodi:nodetypes="ccc" />
        <path
           sodipodi:nodetypes="cc"
           inkscape:connector-curvature="0"
           id="path5325"
           d="M 23.435539,36.837814 17.759291,35.873338"
           style="color:#000000;fill:none;stroke:#8ae234;stroke-width:2;stroke-linecap:round;stroke-linejoin:round;stroke-miterlimit:4;stroke-opacity:1;stroke-dasharray:none;stroke-dashoffset:0;marker:none;visibility:visible;display:inline;overflow:visible;enable-background:accumulate" />
      </g>
    </g>
    <path
       style="fill:#eeeeec;stroke:#000000;stroke-width:0.49999997;stroke-linecap:butt;stroke-linejoin:bevel;stroke-miterlimit:4;stroke-opacity:1;stroke-dasharray:none"
       d="m 1.374697,36.789652 0,8.220658 6.5505259,1.86335 6.2527741,-1.808546 0,-8.220659 -6.4512751,2.043896 z"
       id="path68737"
       inkscape:connector-curvature="0"
       sodipodi:nodetypes="ccccccc" />
    <path
       style="fill:#babdb6;stroke:none"
       d="m 8.0415893,46.111996 0,-6.615019 5.4712037,-1.674172 0,6.778354 z"
       id="path68739"
       inkscape:connector-curvature="0" />
    <g
       style="stroke:#4e9a06;stroke-width:3;stroke-miterlimit:4;stroke-dasharray:none"
       transform="matrix(0.8660254,0.5,-0.5,0.8660254,39.220194,-4.415572)"
       id="g18405">
      <g
         id="g18407"
         transform="matrix(0.99737186,0.07245258,-0.07245258,0.99737186,1.1412572,-2.3917336)"
         style="stroke:#4e9a06;stroke-width:3;stroke-miterlimit:4;stroke-dasharray:none">
        <path
           style="fill:none;stroke:#4e9a06;stroke-width:3;stroke-linecap:round;stroke-linejoin:round;stroke-miterlimit:4;stroke-opacity:1;stroke-dasharray:none"
           d="M 5.9599,10.472833 23.486047,36.888322 24.142646,31.18096"
           id="path18409"
           inkscape:connector-curvature="0" />
        <path
           style="color:#000000;fill:none;stroke:#4e9a06;stroke-width:3;stroke-linecap:round;stroke-linejoin:round;stroke-miterlimit:4;stroke-opacity:1;stroke-dasharray:none;stroke-dashoffset:0;marker:none;visibility:visible;display:inline;overflow:visible;enable-background:accumulate"
           d="M 23.435539,36.837814 17.759291,35.873338"
           id="path18411"
           inkscape:connector-curvature="0"
           sodipodi:nodetypes="cc" />
      </g>
      <g
         style="stroke:#4e9a06;stroke-width:3;stroke-miterlimit:4;stroke-dasharray:none"
         transform="matrix(0.99737186,0.07245258,-0.07245258,0.99737186,1.1412572,-2.3917336)"
         id="g18413">
        <path
           inkscape:connector-curvature="0"
           id="path18415"
           d="M 5.9599,10.472833 23.486047,36.888322 24.142646,31.18096"
           style="fill:none;stroke:#4e9a06;stroke-width:3;stroke-linecap:round;stroke-linejoin:round;stroke-miterlimit:4;stroke-opacity:1;stroke-dasharray:none" />
        <path
           sodipodi:nodetypes="cc"
           inkscape:connector-curvature="0"
           id="path18417"
           d="M 23.435539,36.837814 17.759291,35.873338"
           style="color:#000000;fill:none;stroke:#4e9a06;stroke-width:3;stroke-linecap:round;stroke-linejoin:round;stroke-miterlimit:4;stroke-opacity:1;stroke-dasharray:none;stroke-dashoffset:0;marker:none;visibility:visible;display:inline;overflow:visible;enable-background:accumulate" />
      </g>
    </g>
    <circle
       transform="translate(34.022204,-2.8928518)"
       sodipodi:ry="4.5412531"
       sodipodi:rx="4.5412531"
       sodipodi:cy="7.8847528"
       sodipodi:cx="6.4921379"
       inkscape:export-ydpi="60"
       inkscape:export-xdpi="60"
       style="fill:url(#radialGradient18441);fill-opacity:1;stroke:#000000;stroke-width:0.5;stroke-linecap:square;stroke-linejoin:round;stroke-miterlimit:4;stroke-opacity:1;stroke-dasharray:none;stroke-dashoffset:0"
       id="circle18419"
       cx="6.4921379"
       cy="7.8847528"
       r="4.5412531" />
    <path
       transform="matrix(0.88985506,0,0,0.88985506,19.001124,6.0831118)"
       d="m 32.476403,43.934135 a 8.7125654,3.1062191 0 1 1 -17.425131,0 8.7125654,3.1062191 0 1 1 17.425131,0 z"
       sodipodi:ry="3.1062191"
       sodipodi:rx="8.7125654"
       sodipodi:cy="43.934135"
       sodipodi:cx="23.763838"
       id="path18421"
       style="color:#000000;fill:url(#radialGradient18443);fill-opacity:1;fill-rule:evenodd;stroke:none;stroke-width:0.5;marker:none;visibility:visible;display:inline;overflow:visible;enable-background:accumulate"
       sodipodi:type="arc" />
    <path
       sodipodi:nodetypes="ccccc"
       inkscape:connector-curvature="0"
       d="m 46.631638,36.906707 -6.43514,-2.085413 -6.43514,2.085413 6.43514,2.111171 z"
       style="fill:#555753;stroke:#000000;stroke-width:0.49999997;stroke-linecap:butt;stroke-linejoin:bevel;stroke-miterlimit:4;stroke-opacity:1;stroke-dasharray:none"
       id="path18423" />
    <g
       id="g18425"
       transform="matrix(0.8660254,0.5,-0.5,0.8660254,39.220194,-4.415572)">
      <g
         style="stroke-width:2;stroke-miterlimit:4;stroke-dasharray:none"
         transform="matrix(0.99737186,0.07245258,-0.07245258,0.99737186,1.1412572,-2.3917336)"
         id="g18427">
        <path
           sodipodi:nodetypes="cc"
           inkscape:connector-curvature="0"
           id="path18429"
           d="M 23.435539,36.837814 17.759291,35.873338"
           style="color:#000000;fill:none;stroke:#8ae234;stroke-width:2;stroke-linecap:round;stroke-linejoin:round;stroke-miterlimit:4;stroke-opacity:1;stroke-dasharray:none;stroke-dashoffset:0;marker:none;visibility:visible;display:inline;overflow:visible;enable-background:accumulate" />
      </g>
      <g
         id="g18431"
         transform="matrix(0.99737186,0.07245258,-0.07245258,0.99737186,1.1412572,-2.3917336)"
         style="stroke-width:2;stroke-miterlimit:4;stroke-dasharray:none">
        <path
           sodipodi:nodetypes="ccc"
           style="fill:none;stroke:#8ae234;stroke-width:2;stroke-linecap:round;stroke-linejoin:round;stroke-miterlimit:4;stroke-opacity:1;stroke-dasharray:none"
           d="M 7.2832747,12.423423 23.486047,36.888322 24.142646,31.18096"
           id="path18433"
           inkscape:connector-curvature="0" />
        <path
           style="color:#000000;fill:none;stroke:#8ae234;stroke-width:2;stroke-linecap:round;stroke-linejoin:round;stroke-miterlimit:4;stroke-opacity:1;stroke-dasharray:none;stroke-dashoffset:0;marker:none;visibility:visible;display:inline;overflow:visible;enable-background:accumulate"
           d="M 23.435539,36.837814 17.759291,35.873338"
           id="path18435"
           inkscape:connector-curvature="0"
           sodipodi:nodetypes="cc" />
      </g>
    </g>
    <path
       sodipodi:nodetypes="ccccccc"
       inkscape:connector-curvature="0"
       id="path18437"
       d="m 33.803268,36.789652 0,8.220658 6.550526,1.86335 6.252774,-1.808546 0,-8.220659 -6.451275,2.043896 z"
       style="fill:#eeeeec;stroke:#000000;stroke-width:0.49999997;stroke-linecap:butt;stroke-linejoin:bevel;stroke-miterlimit:4;stroke-opacity:1;stroke-dasharray:none" />
    <path
       inkscape:connector-curvature="0"
       id="path18439"
       d="m 40.47016,46.111996 0,-6.615019 5.471204,-1.674172 0,6.778354 z"
       style="fill:#babdb6;stroke:none" />
    <g
       id="g18445"
       transform="matrix(0.8660254,0.5,-0.5,0.8660254,22.863051,-4.415572)"
       style="stroke:#4e9a06;stroke-width:3;stroke-miterlimit:4;stroke-dasharray:none">
      <g
         style="stroke:#4e9a06;stroke-width:3;stroke-miterlimit:4;stroke-dasharray:none"
         transform="matrix(0.99737186,0.07245258,-0.07245258,0.99737186,1.1412572,-2.3917336)"
         id="g18447">
        <path
           inkscape:connector-curvature="0"
           id="path18449"
           d="M 5.9599,10.472833 23.486047,36.888322 24.142646,31.18096"
           style="fill:none;stroke:#4e9a06;stroke-width:3;stroke-linecap:round;stroke-linejoin:round;stroke-miterlimit:4;stroke-opacity:1;stroke-dasharray:none" />
        <path
           sodipodi:nodetypes="cc"
           inkscape:connector-curvature="0"
           id="path18451"
           d="M 23.435539,36.837814 17.759291,35.873338"
           style="color:#000000;fill:none;stroke:#4e9a06;stroke-width:3;stroke-linecap:round;stroke-linejoin:round;stroke-miterlimit:4;stroke-opacity:1;stroke-dasharray:none;stroke-dashoffset:0;marker:none;visibility:visible;display:inline;overflow:visible;enable-background:accumulate" />
      </g>
      <g
         id="g18453"
         transform="matrix(0.99737186,0.07245258,-0.07245258,0.99737186,1.1412572,-2.3917336)"
         style="stroke:#4e9a06;stroke-width:3;stroke-miterlimit:4;stroke-dasharray:none">
        <path
           style="fill:none;stroke:#4e9a06;stroke-width:3;stroke-linecap:round;stroke-linejoin:round;stroke-miterlimit:4;stroke-opacity:1;stroke-dasharray:none"
           d="M 5.9599,10.472833 23.486047,36.888322 24.142646,31.18096"
           id="path18455"
           inkscape:connector-curvature="0" />
        <path
           style="color:#000000;fill:none;stroke:#4e9a06;stroke-width:3;stroke-linecap:round;stroke-linejoin:round;stroke-miterlimit:4;stroke-opacity:1;stroke-dasharray:none;stroke-dashoffset:0;marker:none;visibility:visible;display:inline;overflow:visible;enable-background:accumulate"
           d="M 23.435539,36.837814 17.759291,35.873338"
           id="path18457"
           inkscape:connector-curvature="0"
           sodipodi:nodetypes="cc" />
      </g>
    </g>
    <circle
       r="4.5412531"
       cy="7.8847528"
       cx="6.4921379"
       id="circle18459"
       style="fill:url(#radialGradient18481);fill-opacity:1;stroke:#000000;stroke-width:0.5;stroke-linecap:square;stroke-linejoin:round;stroke-miterlimit:4;stroke-opacity:1;stroke-dasharray:none;stroke-dashoffset:0"
       inkscape:export-xdpi="60"
       inkscape:export-ydpi="60"
       sodipodi:cx="6.4921379"
       sodipodi:cy="7.8847528"
       sodipodi:rx="4.5412531"
       sodipodi:ry="4.5412531"
       transform="translate(17.665061,-2.8928518)" />
    <path
       sodipodi:type="arc"
       style="color:#000000;fill:url(#radialGradient18483);fill-opacity:1;fill-rule:evenodd;stroke:none;stroke-width:0.5;marker:none;visibility:visible;display:inline;overflow:visible;enable-background:accumulate"
       id="path18461"
       sodipodi:cx="23.763838"
       sodipodi:cy="43.934135"
       sodipodi:rx="8.7125654"
       sodipodi:ry="3.1062191"
       d="m 32.476403,43.934135 a 8.7125654,3.1062191 0 1 1 -17.425131,0 8.7125654,3.1062191 0 1 1 17.425131,0 z"
       transform="matrix(0.88985506,0,0,0.88985506,2.6439811,6.0831118)" />
    <path
       id="path18463"
       style="fill:#555753;stroke:#000000;stroke-width:0.49999997;stroke-linecap:butt;stroke-linejoin:bevel;stroke-miterlimit:4;stroke-opacity:1;stroke-dasharray:none"
       d="m 30.274495,36.906707 -6.43514,-2.085413 -6.43514,2.085413 6.43514,2.111171 z"
       inkscape:connector-curvature="0"
       sodipodi:nodetypes="ccccc" />
    <g
       transform="matrix(0.8660254,0.5,-0.5,0.8660254,22.863051,-4.415572)"
       id="g18465">
      <g
         id="g18467"
         transform="matrix(0.99737186,0.07245258,-0.07245258,0.99737186,1.1412572,-2.3917336)"
         style="stroke-width:2;stroke-miterlimit:4;stroke-dasharray:none">
        <path
           style="color:#000000;fill:none;stroke:#8ae234;stroke-width:2;stroke-linecap:round;stroke-linejoin:round;stroke-miterlimit:4;stroke-opacity:1;stroke-dasharray:none;stroke-dashoffset:0;marker:none;visibility:visible;display:inline;overflow:visible;enable-background:accumulate"
           d="M 23.435539,36.837814 17.759291,35.873338"
           id="path18469"
           inkscape:connector-curvature="0"
           sodipodi:nodetypes="cc" />
      </g>
      <g
         style="stroke-width:2;stroke-miterlimit:4;stroke-dasharray:none"
         transform="matrix(0.99737186,0.07245258,-0.07245258,0.99737186,1.1412572,-2.3917336)"
         id="g18471">
        <path
           inkscape:connector-curvature="0"
           id="path18473"
           d="M 7.2832747,12.423423 23.486047,36.888322 24.142646,31.18096"
           style="fill:none;stroke:#8ae234;stroke-width:2;stroke-linecap:round;stroke-linejoin:round;stroke-miterlimit:4;stroke-opacity:1;stroke-dasharray:none"
           sodipodi:nodetypes="ccc" />
        <path
           sodipodi:nodetypes="cc"
           inkscape:connector-curvature="0"
           id="path18475"
           d="M 23.435539,36.837814 17.759291,35.873338"
           style="color:#000000;fill:none;stroke:#8ae234;stroke-width:2;stroke-linecap:round;stroke-linejoin:round;stroke-miterlimit:4;stroke-opacity:1;stroke-dasharray:none;stroke-dashoffset:0;marker:none;visibility:visible;display:inline;overflow:visible;enable-background:accumulate" />
      </g>
    </g>
    <path
       style="fill:#eeeeec;stroke:#000000;stroke-width:0.49999997;stroke-linecap:butt;stroke-linejoin:bevel;stroke-miterlimit:4;stroke-opacity:1;stroke-dasharray:none"
       d="m 17.446125,36.789652 0,8.220658 6.550526,1.86335 6.252774,-1.808546 0,-8.220659 -6.451275,2.043896 z"
       id="path18477"
       inkscape:connector-curvature="0"
       sodipodi:nodetypes="ccccccc" />
    <path
       style="fill:#babdb6;stroke:none"
       d="m 24.113017,46.111996 0,-6.615019 5.471204,-1.674172 0,6.778354 z"
       id="path18479"
       inkscape:connector-curvature="0" />
    <path
       sodipodi:type="arc"
       style="color:#000000;fill:#860000;fill-opacity:1;fill-rule:nonzero;stroke:#ffffff;stroke-width:0.91808873000000002;stroke-miterlimit:4;stroke-dasharray:none;marker:none;visibility:visible;display:inline;overflow:visible;enable-background:accumulate"
       id="path19868"
       sodipodi:cx="24.535715"
       sodipodi:cy="20.892857"
       sodipodi:rx="9.6071424"
       sodipodi:ry="9.6071424"
       d="m 34.142858,20.892857 a 9.6071424,9.6071424 0 1 1 -19.214285,0 9.6071424,9.6071424 0 1 1 19.214285,0 z"
       transform="matrix(1.0892193,0,0,1.0892193,-2.9033459,-1.5069039)" />
    <path
       style="font-size:20.92497444px;font-style:normal;font-variant:normal;font-weight:normal;font-stretch:normal;text-align:start;line-height:125%;letter-spacing:0px;word-spacing:0px;writing-mode:lr-tb;text-anchor:start;fill:#ffffff;fill-opacity:1;stroke:none;font-family:Adobe Garamond Pro;-inkscape-font-specification:Adobe Garamond Pro"
       inkscape:connector-curvature="0"
       id="path10205"
       d="m 19.475743,20.571311 c -0.421165,-0.223139 -0.772968,-0.49252 -1.055414,-0.808146 -0.282451,-0.315613 -0.429204,-0.68953 -0.440258,-1.121755 -0.02211,-0.380946 0.09448,-0.756875 0.349794,-1.127786 0.255307,-0.370893 0.782009,-0.573934 1.580106,-0.609124 z m 0.337734,1.576084 c 0.692546,0.390341 1.136826,0.787712 1.332836,1.192117 0.196,0.40441 0.282443,0.78972 0.259331,1.15593 -0.01978,0.636264 -0.233538,1.088585 -0.641291,1.35696 -0.407762,0.268378 -0.890907,0.395028 -1.449435,0.37995 z m 0.852371,-6.94764 c -0.05998,-0.05627 -0.153124,-0.08442 -0.279433,-0.08443 -0.126319,1.1e-5 -0.215444,0.02816 -0.267372,0.08443 l -0.144741,1.238352 c -0.986399,0.03988 -1.743616,0.297872 -2.271655,0.773971 -0.528043,0.476117 -0.794744,1.07586 -0.800104,1.79923 0.01675,0.598745 0.20036,1.118075 0.550826,1.557992 0.350463,0.43993 0.767266,0.778332 1.250414,1.015209 l 0.611135,0.305566 -0.530722,4.294029 c -0.665752,-0.173221 -1.159618,-0.482138 -1.4816,-0.926755 -0.321988,-0.444611 -0.530391,-0.854045 -0.625208,-1.2283 -0.05997,-0.05327 -0.124976,-0.07136 -0.195,-0.05428 -0.07003,0.0171 -0.122966,0.05126 -0.158815,0.102526 0.0026,0.476781 0.04557,0.906318 0.128661,1.288611 0.08309,0.382296 0.190307,0.655028 0.321649,0.818197 0.119947,0.08075 0.342421,0.176573 0.667424,0.287475 0.324998,0.110903 0.756545,0.186625 1.294642,0.227165 l -0.192991,1.543921 c 0.06332,0.04824 0.149765,0.07237 0.259331,0.07237 0.109558,-3e-6 0.200022,-0.02413 0.271392,-0.07237 l 0.176908,-1.511755 c 1.039326,-0.01541 1.851492,-0.278093 2.436498,-0.788043 0.584995,-0.509948 0.882521,-1.174691 0.892579,-1.99423 -0.01107,-0.655359 -0.194002,-1.206185 -0.548815,-1.652478 -0.354827,-0.446284 -0.815187,-0.812161 -1.381085,-1.09763 l -0.675464,-0.353815 0.482474,-3.891966 c 0.541774,0.149443 0.929764,0.38934 1.16397,0.719692 0.234196,0.330371 0.39301,0.626556 0.476445,0.888559 0.05394,0.04726 0.118938,0.06535 0.195,0.05428 0.07605,-0.01106 0.128989,-0.04523 0.158816,-0.102527 -0.01207,-0.313935 -0.05227,-0.646976 -0.12062,-0.999125 -0.06836,-0.352131 -0.140728,-0.624861 -0.217113,-0.818196 -0.289156,-0.06532 -0.56725,-0.119604 -0.83428,-0.162836 -0.267043,-0.04321 -0.525033,-0.06935 -0.773971,-0.0784 z" />
    <path
       style="font-size:20.92497444px;font-style:normal;font-variant:normal;font-weight:normal;font-stretch:normal;text-align:start;line-height:125%;letter-spacing:0px;word-spacing:0px;writing-mode:lr-tb;text-anchor:start;fill:#ffffff;fill-opacity:1;stroke:none;font-family:Adobe Garamond Pro;-inkscape-font-specification:Adobe Garamond Pro"
       inkscape:connector-curvature="0"
       id="path10207"
       d="m 25.9093,17.258314 c -0.01006,-0.294165 0.01004,-0.477775 0.06031,-0.550826 0.05025,-0.07303 0.190977,-0.103856 0.422166,-0.09247 l 0.981033,0 c 0.338397,-0.002 0.638604,0.002 0.90062,0.01206 0.262005,0.01006 0.481799,0.03821 0.659383,0.08443 0.390664,0.109907 0.662726,0.300216 0.816187,0.570929 0.153447,0.270732 0.256642,0.5897 0.309588,0.956909 0.06231,0.04625 0.134683,0.06233 0.217115,0.04824 0.08241,-0.01407 0.138703,-0.04622 0.168865,-0.09649 -0.01609,-0.30958 -0.02816,-0.647311 -0.03619,-1.013198 -0.0081,-0.365866 -0.01206,-0.735764 -0.01206,-1.109693 -0.117611,0.02312 -0.376941,0.0372 -0.777992,0.04222 -0.401064,0.0051 -0.865446,0.0071 -1.393146,0.006 l -2.959181,0 c -0.316961,9e-6 -0.623869,-0.004 -0.920723,-0.01206 -0.296858,-0.008 -0.611806,-0.02009 -0.944847,-0.03619 -0.04959,0.03385 -0.07907,0.09885 -0.08845,0.195 -0.0094,0.09617 0.0094,0.165191 0.0563,0.207063 l 0.25732,0.03217 c 0.448299,0.02815 0.725721,0.168877 0.832269,0.422166 0.106544,0.253308 0.150772,0.788051 0.132682,1.604229 l 0,5.789702 c 0.01809,0.815517 -0.02614,1.34758 -0.132682,1.596188 -0.106548,0.24861 -0.383971,0.386651 -0.832269,0.414124 l -0.402063,0.04824 c -0.0469,0.05596 -0.06567,0.128995 -0.05629,0.219125 0.0094,0.09013 0.03887,0.151108 0.08845,0.182937 0.370232,-0.01609 0.711317,-0.02814 1.023253,-0.03619 0.311933,-0.008 0.640955,-0.01206 0.987067,-0.01206 0.311261,0 0.629561,0.004 0.954901,0.01206 0.325333,0.008 0.720024,0.02011 1.184078,0.03619 0.04957,-0.03384 0.07906,-0.09884 0.08844,-0.195 0.0094,-0.09616 -0.0094,-0.16518 -0.0563,-0.207062 l -0.546801,-0.04823 c -0.45601,-0.0134 -0.738124,-0.147421 -0.846342,-0.402063 -0.108225,-0.254638 -0.153123,-0.790721 -0.134691,-1.608249 l 0,-2.235468 c -0.0081,-0.201027 0.0201,-0.325666 0.08443,-0.373918 0.06432,-0.04825 0.21309,-0.06835 0.44629,-0.06031 l 1.09361,0 c 0.304892,-7e-4 0.559531,0.0047 0.763919,0.01608 0.204375,0.0114 0.36252,0.03284 0.474433,0.06433 0.150098,0.04959 0.264015,0.127324 0.341754,0.233196 0.07772,0.105882 0.135354,0.231862 0.172887,0.377939 l 0.160825,0.627218 c 0.06265,0.04826 0.138369,0.07238 0.227165,0.07237 0.08878,3e-6 0.152441,-0.02412 0.19098,-0.07237 -0.0026,-0.190646 -0.01339,-0.424516 -0.03215,-0.701611 -0.01876,-0.277084 -0.02949,-0.563219 -0.03217,-0.858407 0.0026,-0.303887 0.01339,-0.600745 0.03217,-0.890571 0.01875,-0.289815 0.02948,-0.534403 0.03217,-0.733766 -0.04056,-0.04822 -0.108244,-0.07235 -0.203058,-0.07236 -0.09483,9e-6 -0.166531,0.02413 -0.215106,0.07237 l -0.144743,0.643301 c -0.04792,0.202378 -0.104878,0.340419 -0.170876,0.414123 -0.06601,0.07372 -0.143075,0.123306 -0.231186,0.148765 -0.100187,0.03217 -0.269724,0.05629 -0.50861,0.07237 -0.238899,0.01609 -0.525032,0.02413 -0.858404,0.02413 l -1.09361,0 c -0.2332,0.0091 -0.381963,-0.009 -0.446289,-0.05428 -0.06433,-0.04523 -0.09248,-0.171876 -0.08443,-0.37995 z" />
  </g>
</svg>
