<?xml version="1.0" encoding="UTF-8" standalone="no"?>
<!-- Created with Inkscape (http://www.inkscape.org/) -->

<svg
   xmlns:dc="http://purl.org/dc/elements/1.1/"
   xmlns:cc="http://creativecommons.org/ns#"
   xmlns:rdf="http://www.w3.org/1999/02/22-rdf-syntax-ns#"
   xmlns:svg="http://www.w3.org/2000/svg"
   xmlns="http://www.w3.org/2000/svg"
   xmlns:xlink="http://www.w3.org/1999/xlink"
   xmlns:sodipodi="http://sodipodi.sourceforge.net/DTD/sodipodi-0.dtd"
   xmlns:inkscape="http://www.inkscape.org/namespaces/inkscape"
   width="48px"
   height="48px"
   id="svg2985"
   version="1.1"
   inkscape:version="0.48.5 r10040"
   sodipodi:docname="New document 2">
  <defs
     id="defs2987">
    <linearGradient
       id="linearGradient3817">
      <stop
         style="stop-color:#f4b300;stop-opacity:1;"
         offset="0"
         id="stop3819" />
      <stop
         style="stop-color:#cf7000;stop-opacity:1;"
         offset="1"
         id="stop3821" />
    </linearGradient>
    <radialGradient
       inkscape:collect="always"
       xlink:href="#linearGradient3817"
       id="radialGradient3823"
       cx="24.016376"
       cy="10.977909"
       fx="24.016376"
       fy="10.977909"
       r="23.5113"
       gradientTransform="matrix(1.233865,0.00378231,-0.00244903,0.79892517,-5.5897047,2.116544)"
       gradientUnits="userSpaceOnUse" />
    <radialGradient
       inkscape:collect="always"
       xlink:href="#linearGradient3817"
       id="radialGradient3833"
       cx="24.454357"
       cy="14.710566"
       fx="24.454357"
       fy="14.710566"
       r="23.183001"
       gradientTransform="matrix(0.9999658,-0.00826986,0.00616215,0.74510813,-0.08981248,11.560502)"
       gradientUnits="userSpaceOnUse" />
    <radialGradient
       inkscape:collect="always"
       xlink:href="#linearGradient3817"
       id="radialGradient3841"
       cx="25.077038"
       cy="37.544922"
       fx="25.077038"
       fy="37.544922"
       r="22.501148"
       gradientTransform="matrix(0.99948342,-0.0321387,0.02222109,0.69105499,-0.82133469,12.405258)"
       gradientUnits="userSpaceOnUse" />
  </defs>
  <sodipodi:namedview
     id="base"
     pagecolor="#ffffff"
     bordercolor="#666666"
     borderopacity="1.0"
     inkscape:pageopacity="0.0"
     inkscape:pageshadow="2"
     inkscape:zoom="14"
     inkscape:cx="17.5122"
     inkscape:cy="17.433368"
     inkscape:current-layer="layer1"
     showgrid="true"
     inkscape:grid-bbox="true"
     inkscape:document-units="px"
     inkscape:window-width="2560"
     inkscape:window-height="1537"
     inkscape:window-x="-8"
     inkscape:window-y="-8"
     inkscape:window-maximized="1" />
  <metadata
     id="metadata2990">
    <rdf:RDF>
      <cc:Work
         rdf:about="">
        <dc:format>image/svg+xml</dc:format>
        <dc:type
           rdf:resource="http://purl.org/dc/dcmitype/StillImage" />
        <dc:title></dc:title>
      </cc:Work>
    </rdf:RDF>
  </metadata>
  <g
     id="layer1"
     inkscape:label="Layer 1"
     inkscape:groupmode="layer">
    <g
       style="fill:#2e3436;stroke:none"
       id="g3806"
       transform="translate(0,0.50507627)">
      <path
         style="fill:#2e3436;fill-opacity:1;stroke:none"
         d="m 0.50507627,11.331463 0.003019,-0.876857 46.98439373,-0.06187 0.03519,0.938724 C 38.787973,13.891077 30.828842,17.291308 23.8396,21.736034 17.005001,17.324268 9.358199,13.724705 0.50507627,11.331463 z"
         id="path3808"
         inkscape:connector-curvature="0"
         sodipodi:nodetypes="cccccc" />
      <path
         style="color:#000000;fill:#2e3436;fill-opacity:1;stroke:none;stroke-width:0.1;marker:none;visibility:visible;display:inline;overflow:visible;enable-background:accumulate"
         d="m 1.4856422,27.14035 0.017405,-0.901778 23.8255108,1.85368 22.401796,-7.925161 0.04986,0.861836 C 40.045193,24.214994 32.703223,28.467918 25.910413,34.211418 17.995242,31.053665 10.06541,28.171393 1.4856422,27.14035 z"
         id="path3810"
         inkscape:connector-curvature="0"
         sodipodi:nodetypes="ccccccc" />
      <path
         style="color:#000000;fill:#2e3436;fill-opacity:1;stroke:none;stroke-width:0.1;marker:none;visibility:visible;display:inline;overflow:visible;enable-background:accumulate"
         d="m 2.575889,43.353298 0.050507,-0.959644 26.3159317,-2.520635 18.610603,-10.106272 0.02525,0.909137 C 39.442955,34.983366 33.458459,40.827088 28.132748,47.14137 19.785316,43.391622 11.187522,43.272132 2.575889,43.353298 z"
         id="path3812"
         inkscape:connector-curvature="0"
         sodipodi:nodetypes="ccccccc" />
    </g>
    <path
       style="fill:url(#radialGradient3823);fill-opacity:1;stroke:none"
       d="M 0.50507627,10.927402 C 8.4643196,7.7771959 16.350449,4.4442039 24.041631,0.62384558 31.723277,4.4994735 39.577153,7.858408 47.527677,10.927402 38.787973,13.487016 30.828842,16.887247 23.8396,21.331973 17.005001,16.920207 9.358199,13.320644 0.50507627,10.927402 z"
       id="path3004"
       inkscape:connector-curvature="0"
       sodipodi:nodetypes="ccccc" />
    <path
       style="color:#000000;fill:url(#radialGradient3833);fill-opacity:1;stroke:none;stroke-width:0.10000000000000001;marker:none;visibility:visible;display:inline;overflow:visible;enable-background:accumulate"
       d="m 1.4142136,26.736289 8.8388344,-5.151778 c 4.882404,1.584612 9.764808,3.485355 14.647212,6.010408 5.566396,-3.841151 11.394022,-7.225147 18.031223,-9.192389 l 4.848732,2.222336 C 40.045193,23.810933 32.703223,28.063857 25.910413,33.807357 17.995242,30.649604 9.9939819,27.767332 1.4142136,26.736289 z"
       id="path3774"
       inkscape:connector-curvature="0"
       sodipodi:nodetypes="ccccccc" />
    <path
       style="color:#000000;fill:url(#radialGradient3841);fill-opacity:1;stroke:none;stroke-width:0.10000000000000001;marker:none;visibility:visible;display:inline;overflow:visible;enable-background:accumulate"
       d="m 2.575889,42.949237 9.040865,-6.818529 c 5.238377,0.755145 10.384692,1.924568 15.354319,3.889087 5.286604,-4.60343 10.563399,-9.290239 16.111933,-11.667262 l 4.495179,1.91929 C 39.442955,34.579305 33.458459,40.423027 28.132748,46.737309 19.785316,42.987561 11.187522,42.868071 2.575889,42.949237 z"
       id="path3793"
       inkscape:connector-curvature="0"
       sodipodi:nodetypes="ccccccc" />
  </g>
</svg>
