<?xml version="1.0" encoding="UTF-8" standalone="no"?>
<!-- Created with Inkscape (http://www.inkscape.org/) -->

<svg
   xmlns:dc="http://purl.org/dc/elements/1.1/"
   xmlns:cc="http://creativecommons.org/ns#"
   xmlns:rdf="http://www.w3.org/1999/02/22-rdf-syntax-ns#"
   xmlns:svg="http://www.w3.org/2000/svg"
   xmlns="http://www.w3.org/2000/svg"
   xmlns:xlink="http://www.w3.org/1999/xlink"
   xmlns:sodipodi="http://sodipodi.sourceforge.net/DTD/sodipodi-0.dtd"
   xmlns:inkscape="http://www.inkscape.org/namespaces/inkscape"
   width="48px"
   height="48px"
   id="svg34623"
   version="1.1"
   inkscape:version="0.48.5 r10040"
   sodipodi:docname="New document 26">
  <defs
     id="defs34625">
    <linearGradient
       id="linearGradient35305">
      <stop
         style="stop-color:#dfdfdf;stop-opacity:1;"
         offset="0"
         id="stop35307" />
      <stop
         id="stop35313"
         offset="0.68510115"
         style="stop-color:#dadad6;stop-opacity:1;" />
      <stop
         style="stop-color:#ffffff;stop-opacity:1;"
         offset="1"
         id="stop35309" />
    </linearGradient>
    <linearGradient
       id="linearGradient35295">
      <stop
         style="stop-color:#000000;stop-opacity:0.16216215;"
         offset="0"
         id="stop35297" />
      <stop
         style="stop-color:#000000;stop-opacity:0;"
         offset="1"
         id="stop35299" />
    </linearGradient>
    <radialGradient
       inkscape:collect="always"
       xlink:href="#linearGradient35295"
       id="radialGradient35301"
       cx="25.020327"
       cy="32.582783"
       fx="25.020327"
       fy="32.582783"
       r="5.3448141"
       gradientTransform="matrix(1.1468968,-0.01574873,0.06682068,4.8661989,-5.7684859,-124.49955)"
       gradientUnits="userSpaceOnUse" />
    <radialGradient
       inkscape:collect="always"
       xlink:href="#linearGradient35305"
       id="radialGradient35317"
       cx="24.850039"
       cy="29.675838"
       fx="24.850039"
       fy="29.675838"
       r="21.9069"
       gradientTransform="matrix(1.2575835,-0.03260551,0.01961187,0.75642331,-6.9448411,7.4339276)"
       gradientUnits="userSpaceOnUse" />
  </defs>
  <sodipodi:namedview
     id="base"
     pagecolor="#ffffff"
     bordercolor="#666666"
     borderopacity="1.0"
     inkscape:pageopacity="0.0"
     inkscape:pageshadow="2"
     inkscape:zoom="14"
     inkscape:cx="-5.2751895"
     inkscape:cy="16.230649"
     inkscape:current-layer="layer1"
     showgrid="true"
     inkscape:grid-bbox="true"
     inkscape:document-units="px"
     inkscape:window-width="2560"
     inkscape:window-height="1537"
     inkscape:window-x="-8"
     inkscape:window-y="-8"
     inkscape:window-maximized="1" />
  <metadata
     id="metadata34628">
    <rdf:RDF>
      <cc:Work
         rdf:about="">
        <dc:format>image/svg+xml</dc:format>
        <dc:type
           rdf:resource="http://purl.org/dc/dcmitype/StillImage" />
        <dc:title></dc:title>
      </cc:Work>
    </rdf:RDF>
  </metadata>
  <g
     id="layer1"
     inkscape:label="Layer 1"
     inkscape:groupmode="layer">
    <path
       sodipodi:nodetypes="ccccc"
       inkscape:connector-curvature="0"
       id="path35315"
       d="M 45.248497,8.4879085 42.675381,0.99942686 C 42.253027,0.38727055 41.479147,0.84072503 41.484181,1.405367 l 2.81311,8.0423653 z"
       style="color:#000000;fill:#2e3436;stroke:none;stroke-width:0.25;marker:none;visibility:visible;display:inline;overflow:visible;enable-background:accumulate" />
    <path
       style="color:#000000;fill:#c17d11;stroke:#8f5902;stroke-width:0.5;stroke-linecap:butt;stroke-linejoin:miter;stroke-miterlimit:4;stroke-opacity:1;stroke-dasharray:none;stroke-dashoffset:0;marker:none;visibility:visible;display:inline;overflow:visible;enable-background:accumulate"
       d="m 28.067516,7.7476049 c 0,2.5881681 -1.677429,4.2791401 -3.746642,4.2791401 -2.069214,0 -3.746642,-1.690972 -3.746642,-4.2791401 0,-2.5881683 1.677428,-4.5220176 3.746642,-4.5220176 2.069213,0 3.746642,1.9338493 3.746642,4.5220176 z"
       id="path35244"
       inkscape:connector-curvature="0"
       sodipodi:nodetypes="sssss" />
    <path
       style="color:#000000;fill:#c17d11;stroke:#8f5902;stroke-width:0.5;stroke-linecap:butt;stroke-linejoin:miter;stroke-miterlimit:4;stroke-opacity:1;stroke-dasharray:none;stroke-dashoffset:0;marker:none;visibility:visible;display:inline;overflow:visible;enable-background:accumulate"
       d="M 1.0919702,16.706472 0.53792898,17.735936 0.46867309,19.497459 2.9326246,22.822237 3.3773895,21.1446 z"
       id="path35195"
       inkscape:connector-curvature="0"
       sodipodi:nodetypes="cccccc" />
    <path
       style="color:#000000;fill:#c17d11;stroke:#8f5902;stroke-width:0.5;stroke-linecap:butt;stroke-linejoin:miter;stroke-miterlimit:4;stroke-opacity:1;stroke-dasharray:none;stroke-dashoffset:0;marker:none;visibility:visible;display:inline;overflow:visible;enable-background:accumulate"
       d="m 1.4844159,16.180305 0.7387217,-0.549048 0.4386161,0.457538 -0.5771262,1.006586 z"
       id="path35203"
       inkscape:connector-curvature="0" />
    <path
       style="color:#000000;fill:#c17d11;stroke:#8f5902;stroke-width:0.5;stroke-linecap:butt;stroke-linejoin:miter;stroke-miterlimit:4;stroke-opacity:1;stroke-dasharray:none;stroke-dashoffset:0;marker:none;visibility:visible;display:inline;overflow:visible;enable-background:accumulate"
       d="M 2.0846275,16.866612 3.2619648,15.97441 3.6774959,16.706472 2.361648,18.262105 z"
       id="path35211"
       inkscape:connector-curvature="0" />
    <path
       style="color:#000000;fill:#c17d11;stroke:#8f5902;stroke-width:0.5;stroke-linecap:butt;stroke-linejoin:miter;stroke-miterlimit:4;stroke-opacity:1;stroke-dasharray:none;stroke-dashoffset:0;marker:none;visibility:visible;display:inline;overflow:visible;enable-background:accumulate"
       d="m 2.269308,18.124844 c 0.1615946,-0.160143 1.4312728,-1.418372 1.4312728,-1.418372 l 0.5540411,0.09152 0.023086,0.709186 -0.8079767,0.983708 -0.3462757,0.846447 z"
       id="path35219"
       inkscape:connector-curvature="0" />
    <path
       style="color:#000000;fill:#c17d11;stroke:#8f5902;stroke-width:0.5;stroke-linecap:butt;stroke-linejoin:miter;stroke-miterlimit:4;stroke-opacity:1;stroke-dasharray:none;stroke-dashoffset:0;marker:none;visibility:visible;display:inline;overflow:visible;enable-background:accumulate"
       d="m 3.1465396,19.177184 0.5309563,-0.937957 0.5309559,-0.732063 0.5078713,0.480417 -0.415531,1.029463 -0.415531,1.189601 z"
       id="path35227"
       inkscape:connector-curvature="0" />
    <path
       style="color:#000000;fill:#c17d11;stroke:#8f5902;stroke-width:0.5;stroke-linecap:butt;stroke-linejoin:miter;stroke-miterlimit:4;stroke-opacity:1;stroke-dasharray:none;stroke-dashoffset:0;marker:none;visibility:visible;display:inline;overflow:visible;enable-background:accumulate"
       d="M 3.839091,20.18377 3.6544106,19.588969 C 3.5024432,18.993202 3.0849508,18.254512 2.361648,17.987581 l 0,-0.937953 -1.2927629,-1.487003 -0.6232964,0.228769 -0.092341,0.480416 0.946487,0.937958 0.2308503,1.532752 -0.2770204,0.640556 0.3693608,0.937954 0.923402,0.960831 z"
       id="path35187"
       inkscape:connector-curvature="0"
       sodipodi:nodetypes="ccccccccccccc" />
    <path
       style="color:#000000;fill:#ffffff;stroke:#888a85;stroke-width:0.25;stroke-linecap:butt;stroke-linejoin:miter;stroke-miterlimit:4;stroke-opacity:1;stroke-dasharray:none;stroke-dashoffset:0;marker:none;visibility:visible;display:inline;overflow:visible;enable-background:accumulate"
       d="M 45.462783,8.059337 42.889667,0.57085539 c -0.422354,-0.61215627 -1.196234,-0.15870179 -1.1912,0.40594014 l 2.81311,8.04236527 z"
       id="path35179"
       inkscape:connector-curvature="0"
       sodipodi:nodetypes="ccccc" />
    <path
       style="color:#000000;fill:#c17d11;stroke:#8f5902;stroke-width:0.5;stroke-linecap:butt;stroke-linejoin:miter;stroke-miterlimit:4;stroke-opacity:1;stroke-dasharray:none;stroke-dashoffset:0;marker:none;visibility:visible;display:inline;overflow:visible;enable-background:accumulate"
       d="m 44.283158,11.499947 -0.143823,-0.805345 -0.304939,-0.171455 0,-1.4668811 0.313578,-0.8001186 0.555301,-0.4512307 0.570932,0.8565192 -0.152467,0.5334111 0.362111,-0.152403 0.438346,-0.5143604 0,-0.361959 -0.895751,0.076205 0.173308,-0.9103071 1.451878,-7.481e-4 0.71819,0.780317 -0.304119,0.8927558 0.438347,0.4381581 0,0.7048658 0.171526,0.247656 -0.05717,0.247656 -0.133411,0.285755 -0.07624,0.762016 -0.838576,0.247655 -1.201645,1.820615 z"
       id="path35171"
       inkscape:connector-curvature="0"
       sodipodi:nodetypes="ccccccccccccccccccccccccc" />
    <path
       style="color:#000000;fill:#000000;stroke:#8ae234;stroke-width:0.1;stroke-linecap:butt;stroke-linejoin:miter;stroke-miterlimit:4;stroke-opacity:1;stroke-dasharray:none;stroke-dashoffset:0;marker:none;visibility:visible;display:inline;overflow:visible;enable-background:accumulate"
       d="M 25.21875 31.59375 L 18.28125 43.6875 C 18.616661 45.796167 18.879391 48.097974 19.28125 50.15625 L 33.5 50.15625 C 33.570903 49.784111 33.658476 49.383133 33.6875 49.125 C 34.008731 46.26802 34.4375 40 34.4375 40 L 25.21875 31.59375 z "
       id="path35152" />
    <path
       style="fill:url(#radialGradient35317);stroke:#555753;stroke-width:0.50000000000000000;stroke-linecap:butt;stroke-linejoin:miter;stroke-miterlimit:4;stroke-opacity:1;stroke-dasharray:none;fill-opacity:1"
       d="m 20.703973,13.824181 c -2.086189,0.5952 -3.580292,1.049778 -5.309707,1.858952 -0.796148,0.692357 -1.400715,2.389007 -1.563265,3.421552 l -0.449092,0.118918 -0.428362,0.865655 c -0.995218,1.26701 -2.784513,1.293717 -3.7853846,2.571684 L 8.6021521,22.52623 C 7.1019367,22.283608 5.780931,21.781017 4.77485,21.044462 L 3.7775958,20.505635 c -0.5763899,0.03145 -1.6466985,0.929902 -1.6171696,1.832012 0.6809849,1.100825 1.4282553,2.216143 1.724981,3.232962 l 4.9593214,1.885895 c 1.6142184,-0.231396 3.1538144,-0.834403 4.5550274,-1.562598 0,0 2.933141,-2.099486 3.489088,-2.107086 0.565387,-0.0078 1.078114,1.481774 1.078114,1.481774 l 0.0539,2.101426 0.323434,2.343898 -0.26953,2.613311 0.431244,0.969888 -1.252004,4.450983 -0.08085,5.79239 6.899926,-0.323295 -0.02696,-2.77496 1.105065,-5.19968 1.592912,4.480347 1.075419,3.521234 c 3.405049,-0.77728 6.810091,-1.615235 10.215132,-2.748018 l -5.080712,-9.054783 c -1.008218,-2.687012 -0.806012,-5.506963 -1.640044,-8.312991 -0.04996,-0.268059 0.601987,-1.214126 1.293737,-1.508717 2.262853,0.17654 5.95078,0.08501 8.284018,-0.09022 0.568635,0.04468 1.574642,-1.264811 2.075369,-2.424723 l 2.371847,-2.263073 -0.134756,-3.098254 0.269524,-0.484944 -0.188669,-0.942947 C 44.915798,11.98805 44.26138,11.014813 43.236539,11.561107 l -1.158973,2.559428 -0.714611,0.584998 -0.471314,0.223242 -0.835536,1.212362 -1.239831,0.59271 c -0.984608,0.126188 -2.057366,-0.495378 -3.34215,-0.323296 -0.326178,-0.715692 -1.054612,-1.029299 -1.72498,-1.40095 l -1.536312,-1.670363 c -1.482405,0.02112 -2.10232,0.03141 -3.584726,-0.215535 -0.453641,-0.342429 -0.7906,-0.772332 -1.509358,-0.916004 -0.04202,-0.548332 -0.542296,-1.058901 -0.94335,-1.320127 -1.745541,0.0923 -2.68551,0.473448 -4.150736,1.266244 z"
       id="path34642"
       inkscape:connector-curvature="0"
       sodipodi:nodetypes="cccccccccccccscccccccccccccccccccccccccccccccccccc" />
    <path
       style="color:#000000;fill:url(#radialGradient35301);fill-opacity:1;fill-rule:nonzero;stroke:none;stroke-width:0.50000000000000000;marker:none;visibility:visible;display:inline;overflow:visible;enable-background:accumulate"
       d="M 24.9375 19.4375 C 22.05773 19.4375 19.84375 21.748187 19.84375 26.71875 C 19.84375 30.331308 19.529319 38.75537 22.03125 43.3125 L 24.0625 43.21875 L 24.03125 40.4375 L 25.15625 35.25 L 26.75 39.71875 L 27.8125 43.25 C 28.467437 43.100496 29.126313 42.93691 29.78125 42.78125 C 31.071281 38.09324 30.28125 30.085076 30.28125 26.71875 C 30.28125 21.748187 27.817271 19.4375 24.9375 19.4375 z "
       id="path35289" />
    <path
       style="fill:#babdb6;stroke:none"
       d="m 17.533435,24.062565 -2.462006,-5.252868 2.708206,4.121481 -1.395136,-6.788321 1.559271,5.414495 0.984801,-2.262774 -0.738602,7.919708 z"
       id="path35268"
       inkscape:connector-curvature="0" />
    <path
       style="fill:#babdb6;stroke:none;stroke-width:1px;stroke-linecap:butt;stroke-linejoin:miter;stroke-opacity:1;color:#000000;fill-opacity:1;fill-rule:nonzero;marker:none;visibility:visible;display:inline;overflow:visible;enable-background:accumulate"
       d="m 31.214286,23.285714 0,-8.928571 0.928571,7.357143 z"
       id="path35270"
       inkscape:connector-curvature="0" />
  </g>
</svg>
