<?xml version="1.0" encoding="UTF-8" standalone="no"?>
<!-- Created with Inkscape (http://www.inkscape.org/) -->

<svg
   xmlns:dc="http://purl.org/dc/elements/1.1/"
   xmlns:cc="http://creativecommons.org/ns#"
   xmlns:rdf="http://www.w3.org/1999/02/22-rdf-syntax-ns#"
   xmlns:svg="http://www.w3.org/2000/svg"
   xmlns="http://www.w3.org/2000/svg"
   xmlns:xlink="http://www.w3.org/1999/xlink"
   xmlns:sodipodi="http://sodipodi.sourceforge.net/DTD/sodipodi-0.dtd"
   xmlns:inkscape="http://www.inkscape.org/namespaces/inkscape"
   width="48"
   height="48"
   id="svg2"
   version="1.1"
   inkscape:version="0.48.5 r10040"
   sodipodi:docname="shotgundownload.svg">
  <defs
     id="defs4">
    <linearGradient
       id="linearGradient3819">
      <stop
         style="stop-color:#cdcccc;stop-opacity:1;"
         offset="0"
         id="stop3821" />
      <stop
         id="stop3827"
         offset="0.72020787"
         style="stop-color:#cdcccc;stop-opacity:1;" />
      <stop
         style="stop-color:#a6a5a5;stop-opacity:1;"
         offset="1"
         id="stop3823" />
    </linearGradient>
    <linearGradient
       id="linearGradient3796">
      <stop
         style="stop-color:#a9ef65;stop-opacity:1;"
         offset="0"
         id="stop3798" />
      <stop
         style="stop-color:#73d216;stop-opacity:1;"
         offset="1"
         id="stop3800" />
    </linearGradient>
    <radialGradient
       inkscape:collect="always"
       xlink:href="#linearGradient3819"
       id="radialGradient3825"
       cx="30.01116"
       cy="26.962053"
       fx="30.01116"
       fy="26.962053"
       r="9.1629467"
       gradientUnits="userSpaceOnUse" />
    <radialGradient
       inkscape:collect="always"
       xlink:href="#linearGradient89640"
       id="radialGradient89646"
       cx="5.1633663"
       cy="5.3128715"
       fx="5.1633663"
       fy="5.3128715"
       r="4.2046204"
       gradientUnits="userSpaceOnUse" />
    <linearGradient
       id="linearGradient89640">
      <stop
         style="stop-color:#c6efff;stop-opacity:0.47863248;"
         offset="0"
         id="stop89642" />
      <stop
         id="stop89648"
         offset="0.5"
         style="stop-color:#c6efff;stop-opacity:0.35042736;" />
      <stop
         style="stop-color:#c6efff;stop-opacity:0.23076923;"
         offset="1"
         id="stop89644" />
    </linearGradient>
    <linearGradient
       id="linearGradient2909">
      <stop
         style="stop-color:#929292;stop-opacity:1;"
         offset="0"
         id="stop2911" />
      <stop
         id="stop2917"
         offset="0.5"
         style="stop-color:#ffffff;stop-opacity:1;" />
      <stop
         style="stop-color:#c5c5c3;stop-opacity:1;"
         offset="1"
         id="stop2913" />
    </linearGradient>
    <linearGradient
       id="linearGradient89628">
      <stop
         style="stop-color:#eeeeec;stop-opacity:1;"
         offset="0"
         id="stop89630" />
      <stop
         style="stop-color:#ccccc5;stop-opacity:1;"
         offset="1"
         id="stop89632" />
    </linearGradient>
    <linearGradient
       id="linearGradient5197">
      <stop
         style="stop-color:#616d72;stop-opacity:1;"
         offset="0"
         id="stop5199" />
      <stop
         style="stop-color:#2e3436;stop-opacity:1;"
         offset="1"
         id="stop5201" />
    </linearGradient>
    <linearGradient
       inkscape:collect="always"
       xlink:href="#linearGradient5197"
       id="linearGradient2896"
       x1="12.432674"
       y1="10.357092"
       x2="13.777565"
       y2="15.763033"
       gradientUnits="userSpaceOnUse" />
    <linearGradient
       id="linearGradient4167">
      <stop
         style="stop-color:#616d72;stop-opacity:1;"
         offset="0"
         id="stop4169" />
      <stop
         style="stop-color:#2e3436;stop-opacity:1;"
         offset="1"
         id="stop4171" />
    </linearGradient>
    <linearGradient
       gradientTransform="translate(27.1183,1031.9359)"
       y2="15.763033"
       x2="13.777565"
       y1="10.357092"
       x1="12.432674"
       gradientUnits="userSpaceOnUse"
       id="linearGradient4177"
       xlink:href="#linearGradient5197"
       inkscape:collect="always" />
  </defs>
  <sodipodi:namedview
     id="base"
     pagecolor="#ffffff"
     bordercolor="#666666"
     borderopacity="1.0"
     inkscape:pageopacity="0.0"
     inkscape:pageshadow="2"
     inkscape:zoom="22.4"
     inkscape:cx="21.419463"
     inkscape:cy="23.68942"
     inkscape:document-units="px"
     inkscape:current-layer="layer1"
     showgrid="false"
     inkscape:window-width="2880"
     inkscape:window-height="1557"
     inkscape:window-x="-8"
     inkscape:window-y="-8"
     inkscape:window-maximized="1" />
  <metadata
     id="metadata7">
    <rdf:RDF>
      <cc:Work
         rdf:about="">
        <dc:format>image/svg+xml</dc:format>
        <dc:type
           rdf:resource="http://purl.org/dc/dcmitype/StillImage" />
        <dc:title></dc:title>
      </cc:Work>
    </rdf:RDF>
  </metadata>
  <g
     inkscape:label="Layer 1"
     inkscape:groupmode="layer"
     id="layer1"
     transform="translate(0,-1004.3622)">
    <path
       sodipodi:type="arc"
       style="opacity:0.56699997000000002;color:#000000;fill:url(#radialGradient3825);fill-opacity:1;stroke:none;stroke-width:0.09856136000000000;marker:none;visibility:visible;display:inline;overflow:visible;enable-background:accumulate"
       id="path3785"
       sodipodi:cx="30.01116"
       sodipodi:cy="26.962053"
       sodipodi:rx="9.1629467"
       sodipodi:ry="9.1629467"
       d="m 39.174107,26.962053 a 9.1629467,9.1629467 0 1 1 -18.325894,0 9.1629467,9.1629467 0 1 1 18.325894,0 z"
       transform="matrix(2.0133783,0,0,2.0133783,-41.885873,968.64653)" />
    <path
       style="fill:#000000;stroke:none"
       d="m 13.776242,1020.2073 4.695262,-0.6202 c 0,0 -0.454533,-3.3555 -6.422765,-3.3664 -5.9682308,-0.011 -6.332311,2.8895 -6.3341744,4.1637 -0.00186,1.2743 0.7378266,2.6791 2.8210653,3.6615 2.0832391,0.9824 5.7505891,0.7314 5.7721511,1.8754 0.02157,1.144 -0.673918,1.5513 -1.904683,1.506 -1.230765,-0.045 -2.391926,-1.6389 -2.391926,-1.6389 l -4.650968,0.5316 c 0,0 0.047963,3.6931 6.467061,3.765 6.419102,0.072 7.042964,-2.6849 7.087188,-4.3409 0.04423,-1.6559 -0.903471,-3.4266 -2.96959,-4.0265 -2.06612,-0.5999 -5.706388,-0.9373 -5.712217,-1.6432 -0.0058,-0.706 0.578679,-1.1902 1.771799,-1.196 1.193121,-0.01 1.771797,1.3289 1.771797,1.3289 z"
       id="path2996"
       inkscape:connector-curvature="0"
       sodipodi:nodetypes="cczzzzzcczzzzzc" />
    <path
       style="color:#000000;fill:#000000;stroke:none;stroke-width:0.1;marker:none;visibility:visible;display:inline;overflow:visible;enable-background:accumulate"
       d="m 19.445994,1023.3965 c 0.100074,5.2064 5.289677,6.9939 7.707317,6.91 2.41764,-0.084 4.3852,-1.0631 4.3852,-1.0631 l 0,-5.8469 -3.455006,0 0,3.5879 c 0,0 -4.724102,0.053 -4.695262,-3.6765 0.02883,-3.7298 3.363286,-4.0555 4.385197,-4.0751 1.021912,-0.02 3.765071,0.8859 3.765071,0.8859 l 0,-3.1007 c 0,0 -1.280994,-0.9393 -4.429494,-1.0188 -3.148499,-0.079 -7.763099,2.1909 -7.663023,7.3973 z"
       id="path3766"
       inkscape:connector-curvature="0"
       sodipodi:nodetypes="zzcccczzcczz" />
    <path
       sodipodi:type="arc"
       style="color:#000000;fill:#000000;fill-opacity:1;fill-rule:nonzero;stroke:#ffffff;stroke-width:0.71179885;stroke-miterlimit:4;stroke-dasharray:none;marker:none;visibility:visible;display:inline;overflow:visible;enable-background:accumulate"
       id="path3794"
       sodipodi:cx="36.473213"
       sodipodi:cy="39.875"
       sodipodi:rx="8.2142859"
       sodipodi:ry="8.2142859"
       d="m 44.687499,39.875 a 8.2142859,8.2142859 0 1 1 -16.428572,0 8.2142859,8.2142859 0 1 1 16.428572,0 z"
       transform="matrix(1.4048914,0,0,1.4048914,-15.325723,984.2662)" />
    <path
       inkscape:connector-curvature="0"
       style="color:#000000;fill:#eeeeec;fill-opacity:1;fill-rule:evenodd;stroke:none;stroke-width:0.5;marker:none;visibility:visible;display:inline;overflow:visible"
       d="m 34.179671,1034.0359 c -2.877664,0 -5.217621,2.34 -5.217621,5.2177 0,2.8776 2.339957,5.2176 5.217621,5.2176 2.877665,0 5.217621,-2.34 5.217621,-5.2176 0,-2.8777 -2.339956,-5.2177 -5.217621,-5.2177 z m 0,1.678 c 1.958925,0 3.539592,1.5807 3.539592,3.5397 0,1.9588 -1.580667,3.5395 -3.539592,3.5395 -1.958925,0 -3.539592,-1.5807 -3.539592,-3.5395 0,-1.959 1.580667,-3.5397 3.539592,-3.5397 z"
       id="path4304" />
    <path
       style="color:#000000;fill:#eeeeec;fill-opacity:1;fill-rule:evenodd;stroke:none;stroke-width:4;marker:none;visibility:visible;display:inline;overflow:visible"
       d="m 38.277468,1041.8772 3.611146,3.5773 c 0.311996,0.9687 -0.253473,1.5502 -1.259401,1.2595 l -3.611147,-3.5773 c -0.178763,-0.9845 0.25187,-1.4274 1.259402,-1.2595 z"
       id="rect5195"
       sodipodi:nodetypes="ccccc"
       inkscape:connector-curvature="0" />
  </g>
</svg>
