<?xml version="1.0" encoding="UTF-8" standalone="no"?>
<!-- Created with Inkscape (http://www.inkscape.org/) -->

<svg
   xmlns:dc="http://purl.org/dc/elements/1.1/"
   xmlns:cc="http://creativecommons.org/ns#"
   xmlns:rdf="http://www.w3.org/1999/02/22-rdf-syntax-ns#"
   xmlns:svg="http://www.w3.org/2000/svg"
   xmlns="http://www.w3.org/2000/svg"
   xmlns:xlink="http://www.w3.org/1999/xlink"
   xmlns:sodipodi="http://sodipodi.sourceforge.net/DTD/sodipodi-0.dtd"
   xmlns:inkscape="http://www.inkscape.org/namespaces/inkscape"
   width="16px"
   height="16px"
   id="svg9824"
   version="1.1"
   inkscape:version="0.48.4 r9939"
   sodipodi:docname="parameter_override.svg">
  <defs
     id="defs9826">
    <linearGradient
       id="linearGradient10423">
      <stop
         style="stop-color:#bec6c8;stop-opacity:1;"
         offset="0"
         id="stop10425" />
      <stop
         style="stop-color:#444c4f;stop-opacity:1;"
         offset="1"
         id="stop10427" />
    </linearGradient>
    <linearGradient
       id="linearGradient10415">
      <stop
         style="stop-color:#b0c9e4;stop-opacity:1;"
         offset="0"
         id="stop10417" />
      <stop
         style="stop-color:#729fcf;stop-opacity:1;"
         offset="1"
         id="stop10419" />
    </linearGradient>
    <linearGradient
       id="linearGradient10388">
      <stop
         style="stop-color:#ff4242;stop-opacity:1;"
         offset="0"
         id="stop10390" />
      <stop
         id="stop10396"
         offset="0.13541667"
         style="stop-color:#fff942;stop-opacity:1;" />
      <stop
         style="stop-color:#42fff9;stop-opacity:1;"
         offset="0.50520831"
         id="stop10398" />
      <stop
         id="stop10400"
         offset="0.7800926"
         style="stop-color:#40b1ff;stop-opacity:1;" />
      <stop
         style="stop-color:#ff4242;stop-opacity:1;"
         offset="1"
         id="stop10392" />
    </linearGradient>
    <linearGradient
       id="linearGradient10352">
      <stop
         style="stop-color:#eab8b8;stop-opacity:1;"
         offset="0"
         id="stop10354" />
      <stop
         style="stop-color:#f2d5d5;stop-opacity:1;"
         offset="1"
         id="stop10356" />
    </linearGradient>
    <linearGradient
       id="linearGradient10344">
      <stop
         style="stop-color:#ffffff;stop-opacity:1;"
         offset="0"
         id="stop10346" />
      <stop
         style="stop-color:#c87070;stop-opacity:1;"
         offset="1"
         id="stop10348" />
    </linearGradient>
    <linearGradient
       inkscape:collect="always"
       xlink:href="#linearGradient10344"
       id="linearGradient10350"
       x1="7.6257071"
       y1="0.0052504539"
       x2="14.492033"
       y2="0.0052504539"
       gradientUnits="userSpaceOnUse"
       gradientTransform="matrix(0.80600153,0,0,0.80600153,16.486248,-12.346288)" />
    <linearGradient
       inkscape:collect="always"
       xlink:href="#linearGradient10352"
       id="linearGradient10358"
       x1="1.8728304"
       y1="0.037105083"
       x2="20.754586"
       y2="0.037105083"
       gradientUnits="userSpaceOnUse"
       gradientTransform="matrix(0.80600153,0,0,0.80600153,16.306523,-12.320613)" />
    <radialGradient
       inkscape:collect="always"
       xlink:href="#linearGradient10415"
       id="radialGradient10421"
       cx="3.2330978"
       cy="2.8362217"
       fx="3.2330978"
       fy="2.8362217"
       r="6.4316122"
       gradientTransform="matrix(1,0,0,0.85300028,0,0.85944313)"
       gradientUnits="userSpaceOnUse" />
    <linearGradient
       inkscape:collect="always"
       xlink:href="#linearGradient10423"
       id="linearGradient10429"
       x1="2.3279703"
       y1="0.96336627"
       x2="11.987376"
       y2="12.766336"
       gradientUnits="userSpaceOnUse" />
    <linearGradient
       inkscape:collect="always"
       xlink:href="#linearGradient10352"
       id="linearGradient10447"
       gradientUnits="userSpaceOnUse"
       gradientTransform="matrix(0.80600153,0,0,0.80600153,16.306523,-12.320613)"
       x1="1.8728304"
       y1="0.037105083"
       x2="20.754586"
       y2="0.037105083" />
  </defs>
  <sodipodi:namedview
     id="base"
     pagecolor="#ffffff"
     bordercolor="#666666"
     borderopacity="1.0"
     inkscape:pageopacity="0.0"
     inkscape:pageshadow="2"
     inkscape:zoom="22.197802"
     inkscape:cx="0.83712865"
     inkscape:cy="7.6170792"
     inkscape:current-layer="layer1"
     showgrid="false"
     inkscape:grid-bbox="true"
     inkscape:document-units="px"
     inkscape:window-width="2560"
     inkscape:window-height="1496"
     inkscape:window-x="-8"
     inkscape:window-y="-8"
     inkscape:window-maximized="1">
    <inkscape:grid
       type="xygrid"
       id="grid10384" />
  </sodipodi:namedview>
  <metadata
     id="metadata9829">
    <rdf:RDF>
      <cc:Work
         rdf:about="">
        <dc:format>image/svg+xml</dc:format>
        <dc:type
           rdf:resource="http://purl.org/dc/dcmitype/StillImage" />
        <dc:title></dc:title>
      </cc:Work>
    </rdf:RDF>
  </metadata>
  <g
     id="layer1"
     inkscape:label="Layer 1"
     inkscape:groupmode="layer">
    <path
       style="color:#000000;fill:#cc0000;fill-opacity:1;fill-rule:evenodd;stroke:none;stroke-width:0.75;marker:none;visibility:visible;display:inline;overflow:visible;enable-background:accumulate"
       d="m 13.31372,3.5349727 c 0.718861,1.0995556 1.136775,2.413685 1.136775,3.8254233 0,3.865993 -3.134006,7 -7.0000004,7 -2.39082,0 -4.501694,-1.198593 -5.764509,-3.027666"
       id="path10413"
       inkscape:connector-curvature="0" />
    <path
       style="color:#000000;fill:url(#radialGradient10421);fill-opacity:1;fill-rule:evenodd;stroke:none;stroke-width:0.75000000000000000;marker:none;visibility:visible;display:inline;overflow:visible;enable-background:accumulate"
       d="M 1.6859856,11.33273 C 0.90680862,10.204164 0.45049562,8.8355689 0.45049562,7.360396 c 0,-3.8659932 3.13400598,-6.99999999 6.99999898,-6.99999999 2.4542549,0 4.6135104,1.26303999 5.8632254,3.17457669"
       id="path10404"
       inkscape:connector-curvature="0" />
    <path
       style="fill:#eeeeec;stroke:none"
       d="M 0.67574259,9.0623762 C 5.1258755,8.3137241 9.4646703,5.4952755 11.442574,1.8094058 c 1.216542,0.8855639 1.966587,1.8031315 2.702971,3.64901 C 11.996174,9.5795441 7.0885484,13.044388 3.5138614,13.34208 2.2680483,12.165323 1.2048628,10.836377 0.67574259,9.0623762 z"
       id="path10402"
       inkscape:connector-curvature="0"
       sodipodi:nodetypes="ccccc" />
    <path
       sodipodi:type="arc"
       style="color:#000000;fill:none;fill-opacity:1;fill-rule:evenodd;stroke:url(#linearGradient10429);stroke-width:0.75000000000000000;marker:none;visibility:visible;display:inline;overflow:visible;enable-background:accumulate"
       id="path10386"
       sodipodi:cx="7"
       sodipodi:cy="7"
       sodipodi:rx="7"
       sodipodi:ry="7"
       d="M 14,7 A 7,7 0 1 1 0,7 7,7 0 1 1 14,7 z"
       transform="translate(0.40544555,0.36039604)" />
    <g
       id="g10431"
       transform="matrix(0.9574195,0.28870035,-0.28870035,0.9574195,-12.490989,-7.7995113)">
      <rect
         transform="matrix(0.70710678,0.70710678,-0.70710678,0.70710678,0,0)"
         ry="3.3711135"
         y="-15.66182"
         x="18.017527"
         height="6.7422271"
         width="14.815723"
         id="rect9832"
         style="color:#000000;fill:url(#linearGradient10447);fill-opacity:1;fill-rule:evenodd;stroke:#d59191;stroke-width:0.49999994;stroke-miterlimit:4;stroke-opacity:1;stroke-dasharray:none;marker:none;visibility:visible;display:inline;overflow:visible;enable-background:accumulate" />
      <rect
         style="color:#000000;fill:none;stroke:url(#linearGradient10350);stroke-width:0.75;stroke-miterlimit:4;stroke-opacity:1;stroke-dasharray:none;marker:none;visibility:visible;display:inline;overflow:visible;enable-background:accumulate"
         id="rect10342"
         width="5.131268"
         height="5.4147625"
         x="22.83408"
         y="-15.049438"
         ry="1.1540419"
         transform="matrix(0.70710678,0.70710678,-0.70710678,0.70710678,0,0)" />
      <path
         transform="matrix(0.80600154,0,0,0.80600154,20.169822,2.4916741)"
         d="m 5.8113863,2.1923265 c 0,0.4105226 -0.3327943,0.7433169 -0.7433168,0.7433169 -0.4105226,0 -0.7433169,-0.3327943 -0.7433169,-0.7433169 0,-0.4105225 0.3327943,-0.7433168 0.7433169,-0.7433168 0.4105225,0 0.7433168,0.3327943 0.7433168,0.7433168 z"
         sodipodi:ry="0.74331683"
         sodipodi:rx="0.74331683"
         sodipodi:cy="2.1923265"
         sodipodi:cx="5.0680695"
         id="path10360"
         style="color:#000000;fill:#b98585;fill-opacity:1;stroke:none;stroke-width:0.75;marker:none;visibility:visible;display:inline;overflow:visible;enable-background:accumulate"
         sodipodi:type="arc" />
      <path
         sodipodi:type="arc"
         style="color:#000000;fill:#b98585;fill-opacity:1;stroke:none;stroke-width:0.75;marker:none;visibility:visible;display:inline;overflow:visible;enable-background:accumulate"
         id="path10362"
         sodipodi:cx="5.0680695"
         sodipodi:cy="2.1923265"
         sodipodi:rx="0.74331683"
         sodipodi:ry="0.74331683"
         d="m 5.8113863,2.1923265 c 0,0.4105226 -0.3327943,0.7433169 -0.7433168,0.7433169 -0.4105226,0 -0.7433169,-0.3327943 -0.7433169,-0.7433169 0,-0.4105225 0.3327943,-0.7433168 0.7433169,-0.7433168 0.4105225,0 0.7433168,0.3327943 0.7433168,0.7433168 z"
         transform="matrix(0.80600154,0,0,0.80600154,19.516243,4.1256227)" />
      <path
         transform="matrix(0.80600154,0,0,0.80600154,17.737054,4.7065823)"
         d="m 5.8113863,2.1923265 c 0,0.4105226 -0.3327943,0.7433169 -0.7433168,0.7433169 -0.4105226,0 -0.7433169,-0.3327943 -0.7433169,-0.7433169 0,-0.4105225 0.3327943,-0.7433168 0.7433169,-0.7433168 0.4105225,0 0.7433168,0.3327943 0.7433168,0.7433168 z"
         sodipodi:ry="0.74331683"
         sodipodi:rx="0.74331683"
         sodipodi:cy="2.1923265"
         sodipodi:cx="5.0680695"
         id="path10364"
         style="color:#000000;fill:#b98585;fill-opacity:1;stroke:none;stroke-width:0.75;marker:none;visibility:visible;display:inline;overflow:visible;enable-background:accumulate"
         sodipodi:type="arc" />
      <path
         transform="matrix(0.80600154,0,0,0.80600154,18.935283,5.9048113)"
         d="m 5.8113863,2.1923265 c 0,0.4105226 -0.3327943,0.7433169 -0.7433168,0.7433169 -0.4105226,0 -0.7433169,-0.3327943 -0.7433169,-0.7433169 0,-0.4105225 0.3327943,-0.7433168 0.7433169,-0.7433168 0.4105225,0 0.7433168,0.3327943 0.7433168,0.7433168 z"
         sodipodi:ry="0.74331683"
         sodipodi:rx="0.74331683"
         sodipodi:cy="2.1923265"
         sodipodi:cx="5.0680695"
         id="path10366"
         style="color:#000000;fill:#b98585;fill-opacity:1;stroke:none;stroke-width:0.75;marker:none;visibility:visible;display:inline;overflow:visible;enable-background:accumulate"
         sodipodi:type="arc" />
      <path
         sodipodi:type="arc"
         style="color:#000000;fill:#b98585;fill-opacity:1;stroke:none;stroke-width:0.75;marker:none;visibility:visible;display:inline;overflow:visible;enable-background:accumulate"
         id="path10368"
         sodipodi:cx="5.0680695"
         sodipodi:cy="2.1923265"
         sodipodi:rx="0.74331683"
         sodipodi:ry="0.74331683"
         d="m 5.8113863,2.1923265 c 0,0.4105226 -0.3327943,0.7433169 -0.7433168,0.7433169 -0.4105226,0 -0.7433169,-0.3327943 -0.7433169,-0.7433169 0,-0.4105225 0.3327943,-0.7433168 0.7433169,-0.7433168 0.4105225,0 0.7433168,0.3327943 0.7433168,0.7433168 z"
         transform="matrix(0.80600154,0,0,0.80600154,21.331741,3.6899031)" />
      <path
         sodipodi:type="arc"
         style="color:#000000;fill:#b98585;fill-opacity:1;stroke:none;stroke-width:0.75;marker:none;visibility:visible;display:inline;overflow:visible;enable-background:accumulate"
         id="path10370"
         sodipodi:cx="5.0680695"
         sodipodi:cy="2.1923265"
         sodipodi:rx="0.74331683"
         sodipodi:ry="0.74331683"
         d="m 5.8113863,2.1923265 c 0,0.4105226 -0.3327943,0.7433169 -0.7433168,0.7433169 -0.4105226,0 -0.7433169,-0.3327943 -0.7433169,-0.7433169 0,-0.4105225 0.3327943,-0.7433168 0.7433169,-0.7433168 0.4105225,0 0.7433168,0.3327943 0.7433168,0.7433168 z"
         transform="matrix(0.80600154,0,0,0.80600154,26.415137,8.9548488)" />
      <path
         transform="matrix(0.80600154,0,0,0.80600154,25.761558,10.588798)"
         d="m 5.8113863,2.1923265 c 0,0.4105226 -0.3327943,0.7433169 -0.7433168,0.7433169 -0.4105226,0 -0.7433169,-0.3327943 -0.7433169,-0.7433169 0,-0.4105225 0.3327943,-0.7433168 0.7433169,-0.7433168 0.4105225,0 0.7433168,0.3327943 0.7433168,0.7433168 z"
         sodipodi:ry="0.74331683"
         sodipodi:rx="0.74331683"
         sodipodi:cy="2.1923265"
         sodipodi:cx="5.0680695"
         id="path10372"
         style="color:#000000;fill:#b98585;fill-opacity:1;stroke:none;stroke-width:0.75;marker:none;visibility:visible;display:inline;overflow:visible;enable-background:accumulate"
         sodipodi:type="arc" />
      <path
         sodipodi:type="arc"
         style="color:#000000;fill:#b98585;fill-opacity:1;stroke:none;stroke-width:0.75;marker:none;visibility:visible;display:inline;overflow:visible;enable-background:accumulate"
         id="path10374"
         sodipodi:cx="5.0680695"
         sodipodi:cy="2.1923265"
         sodipodi:rx="0.74331683"
         sodipodi:ry="0.74331683"
         d="m 5.8113863,2.1923265 c 0,0.4105226 -0.3327943,0.7433169 -0.7433168,0.7433169 -0.4105226,0 -0.7433169,-0.3327943 -0.7433169,-0.7433169 0,-0.4105225 0.3327943,-0.7433168 0.7433169,-0.7433168 0.4105225,0 0.7433168,0.3327943 0.7433168,0.7433168 z"
         transform="matrix(0.80600154,0,0,0.80600154,23.982369,11.169757)" />
      <path
         sodipodi:type="arc"
         style="color:#000000;fill:#b98585;fill-opacity:1;stroke:none;stroke-width:0.75;marker:none;visibility:visible;display:inline;overflow:visible;enable-background:accumulate"
         id="path10376"
         sodipodi:cx="5.0680695"
         sodipodi:cy="2.1923265"
         sodipodi:rx="0.74331683"
         sodipodi:ry="0.74331683"
         d="m 5.8113863,2.1923265 c 0,0.4105226 -0.3327943,0.7433169 -0.7433168,0.7433169 -0.4105226,0 -0.7433169,-0.3327943 -0.7433169,-0.7433169 0,-0.4105225 0.3327943,-0.7433168 0.7433169,-0.7433168 0.4105225,0 0.7433168,0.3327943 0.7433168,0.7433168 z"
         transform="matrix(0.80600154,0,0,0.80600154,25.180598,12.367986)" />
      <path
         transform="matrix(0.80600154,0,0,0.80600154,27.577057,10.153078)"
         d="m 5.8113863,2.1923265 c 0,0.4105226 -0.3327943,0.7433169 -0.7433168,0.7433169 -0.4105226,0 -0.7433169,-0.3327943 -0.7433169,-0.7433169 0,-0.4105225 0.3327943,-0.7433168 0.7433169,-0.7433168 0.4105225,0 0.7433168,0.3327943 0.7433168,0.7433168 z"
         sodipodi:ry="0.74331683"
         sodipodi:rx="0.74331683"
         sodipodi:cy="2.1923265"
         sodipodi:cx="5.0680695"
         id="path10378"
         style="color:#000000;fill:#b98585;fill-opacity:1;stroke:none;stroke-width:0.75;marker:none;visibility:visible;display:inline;overflow:visible;enable-background:accumulate"
         sodipodi:type="arc" />
      <path
         sodipodi:type="arc"
         style="color:#000000;fill:#b98585;fill-opacity:1;stroke:none;stroke-width:0.75;marker:none;visibility:visible;display:inline;overflow:visible;enable-background:accumulate"
         id="path10380"
         sodipodi:cx="5.0680695"
         sodipodi:cy="2.1923265"
         sodipodi:rx="0.74331683"
         sodipodi:ry="0.74331683"
         d="m 5.8113863,2.1923265 c 0,0.4105226 -0.3327943,0.7433169 -0.7433168,0.7433169 -0.4105226,0 -0.7433169,-0.3327943 -0.7433169,-0.7433169 0,-0.4105225 0.3327943,-0.7433168 0.7433169,-0.7433168 0.4105225,0 0.7433168,0.3327943 0.7433168,0.7433168 z"
         transform="matrix(0.80600154,0,0,0.80600154,26.959787,11.750716)" />
      <path
         transform="matrix(0.80600154,0,0,0.80600154,18.209084,2.9273934)"
         d="m 5.8113863,2.1923265 c 0,0.4105226 -0.3327943,0.7433169 -0.7433168,0.7433169 -0.4105226,0 -0.7433169,-0.3327943 -0.7433169,-0.7433169 0,-0.4105225 0.3327943,-0.7433168 0.7433169,-0.7433168 0.4105225,0 0.7433168,0.3327943 0.7433168,0.7433168 z"
         sodipodi:ry="0.74331683"
         sodipodi:rx="0.74331683"
         sodipodi:cy="2.1923265"
         sodipodi:cx="5.0680695"
         id="path10382"
         style="color:#000000;fill:#b98585;fill-opacity:1;stroke:none;stroke-width:0.75;marker:none;visibility:visible;display:inline;overflow:visible;enable-background:accumulate"
         sodipodi:type="arc" />
    </g>
  </g>
</svg>
