<?xml version="1.0" encoding="UTF-8" standalone="no"?>
<!-- Created with Inkscape (http://www.inkscape.org/) -->

<svg
   xmlns:dc="http://purl.org/dc/elements/1.1/"
   xmlns:cc="http://creativecommons.org/ns#"
   xmlns:rdf="http://www.w3.org/1999/02/22-rdf-syntax-ns#"
   xmlns:svg="http://www.w3.org/2000/svg"
   xmlns="http://www.w3.org/2000/svg"
   xmlns:xlink="http://www.w3.org/1999/xlink"
   xmlns:sodipodi="http://sodipodi.sourceforge.net/DTD/sodipodi-0.dtd"
   xmlns:inkscape="http://www.inkscape.org/namespaces/inkscape"
   width="16px"
   height="16px"
   id="svg3114"
   sodipodi:version="0.32"
   inkscape:version="0.48.5 r10040"
   sodipodi:docname="rgba.svg"
   version="1.1">
  <defs
     id="defs3116">
    <linearGradient
       id="linearGradient7169">
      <stop
         style="stop-color:#ffffff;stop-opacity:0;"
         offset="0"
         id="stop7171" />
      <stop
         style="stop-color:#ffffff;stop-opacity:1;"
         offset="1"
         id="stop7173" />
    </linearGradient>
    <linearGradient
       inkscape:collect="always"
       id="linearGradient6586">
      <stop
         style="stop-color:#747672;stop-opacity:1"
         offset="0"
         id="stop6588" />
      <stop
         style="stop-color:#2e3436;stop-opacity:1"
         offset="1"
         id="stop6590" />
    </linearGradient>
    <linearGradient
       inkscape:collect="always"
       id="linearGradient6565">
      <stop
         style="stop-color:#f3f4f2;stop-opacity:1"
         offset="0"
         id="stop6567" />
      <stop
         style="stop-color:#b7bdb0;stop-opacity:1"
         offset="1"
         id="stop6569" />
    </linearGradient>
    <linearGradient
       inkscape:collect="always"
       xlink:href="#linearGradient6565"
       id="linearGradient6673"
       gradientUnits="userSpaceOnUse"
       gradientTransform="matrix(0.757006,0,0,0.534766,-13.41479,-0.107294)"
       x1="21.430296"
       y1="2.3277211"
       x2="21.492798"
       y2="11.17457" />
    <linearGradient
       inkscape:collect="always"
       xlink:href="#linearGradient6586"
       id="linearGradient6675"
       gradientUnits="userSpaceOnUse"
       gradientTransform="matrix(0.82964,0,0,0.586437,-13.97487,-0.503855)"
       x1="24.328287"
       y1="0.8591854"
       x2="24.259846"
       y2="12.795678" />
    <linearGradient
       inkscape:collect="always"
       xlink:href="#linearGradient6565"
       id="linearGradient6704"
       gradientUnits="userSpaceOnUse"
       gradientTransform="matrix(0.757006,0,0,0.534766,-13.41479,-0.107294)"
       x1="21.430296"
       y1="2.3277211"
       x2="21.492798"
       y2="11.17457" />
    <linearGradient
       inkscape:collect="always"
       xlink:href="#linearGradient6586"
       id="linearGradient6706"
       gradientUnits="userSpaceOnUse"
       gradientTransform="matrix(0.82964,0,0,0.586437,-13.97487,-0.503855)"
       x1="24.328287"
       y1="0.8591854"
       x2="24.259846"
       y2="12.795678" />
    <radialGradient
       inkscape:collect="always"
       xlink:href="#linearGradient7169"
       id="radialGradient19546"
       cx="7.7372527"
       cy="4.4110146"
       fx="7.7372527"
       fy="4.4110146"
       r="4.0206685"
       gradientUnits="userSpaceOnUse" />
  </defs>
  <sodipodi:namedview
     id="base"
     pagecolor="#ffffff"
     bordercolor="#666666"
     borderopacity="1.0"
     inkscape:pageopacity="0.0"
     inkscape:pageshadow="2"
     inkscape:zoom="59.19414"
     inkscape:cx="7.6627683"
     inkscape:cy="8.077599"
     inkscape:current-layer="layer1"
     showgrid="true"
     inkscape:grid-bbox="true"
     inkscape:document-units="px"
     inkscape:window-width="2880"
     inkscape:window-height="1557"
     inkscape:window-x="-8"
     inkscape:window-y="-8"
     showguides="true"
     inkscape:guide-bbox="true"
     inkscape:window-maximized="1" />
  <metadata
     id="metadata3119">
    <rdf:RDF>
      <cc:Work
         rdf:about="">
        <dc:format>image/svg+xml</dc:format>
        <dc:type
           rdf:resource="http://purl.org/dc/dcmitype/StillImage" />
      </cc:Work>
    </rdf:RDF>
  </metadata>
  <g
     id="layer1"
     inkscape:label="Layer 1"
     inkscape:groupmode="layer">
    <path
       style="color:#000000;fill:#2e3436;stroke:none;stroke-width:3;marker:none;visibility:visible;display:inline;overflow:visible;enable-background:accumulate"
       d="m 2.5363923,0.96197438 c 3.6765222,-1.2935004 7.2725703,-1.3396664 10.7792167,0 0.835272,0.31910412 1.297429,0.77775212 1.613991,1.61399112 1.370124,3.619361 1.348117,7.1952189 0,10.7296335 -0.318659,0.835441 -0.778681,1.294985 -1.613991,1.61399 -3.4609044,1.321718 -7.0635545,1.225923 -10.7792167,0 -0.849129,-0.280156 -1.307739,-0.773922 -1.61399199,-1.61399 -1.2718761,-3.4888286 -1.1910141,-7.0709495 0,-10.7296335 C 1.1991784,1.7257295 1.6929213,1.2587295 2.5363923,0.96197438 z"
       id="rect11049"
       inkscape:connector-curvature="0"
       sodipodi:nodetypes="sssssssss" />
    <path
       transform="matrix(0.82072825,0,0,0.82557529,1.649819,0.56642117)"
       d="m 11.757921,4.4110146 a 4.0206685,4.0206685 0 1 1 -8.0413368,0 4.0206685,4.0206685 0 1 1 8.0413368,0 z"
       sodipodi:ry="4.0206685"
       sodipodi:rx="4.0206685"
       sodipodi:cy="4.4110146"
       sodipodi:cx="7.7372527"
       id="path19020"
       style="color:#000000;fill:#ffffff;fill-opacity:1;fill-rule:evenodd;stroke:none;stroke-width:1.14538574;marker:none;visibility:visible;display:inline;overflow:visible"
       sodipodi:type="arc" />
    <path
       transform="matrix(0.82072825,0,0,0.82072825,4.4782835,4.378574)"
       d="m 11.757921,4.4110146 a 4.0206685,4.0206685 0 1 1 -8.0413368,0 4.0206685,4.0206685 0 1 1 8.0413368,0 z"
       sodipodi:ry="4.0206685"
       sodipodi:rx="4.0206685"
       sodipodi:cy="4.4110146"
       sodipodi:cx="7.7372527"
       id="path19022"
       style="color:#000000;fill:#ffffff;fill-opacity:1;fill-rule:evenodd;stroke:none;stroke-width:1.14876223;marker:none;visibility:visible;display:inline;overflow:visible"
       sodipodi:type="arc" />
    <path
       transform="matrix(0.82072825,0,0,0.81588214,-1.1786472,4.4194349)"
       d="m 11.757921,4.4110146 a 4.0206685,4.0206685 0 1 1 -8.0413368,0 4.0206685,4.0206685 0 1 1 8.0413368,0 z"
       sodipodi:ry="4.0206685"
       sodipodi:rx="4.0206685"
       sodipodi:cy="4.4110146"
       sodipodi:cx="7.7372527"
       id="path19024"
       style="color:#000000;fill:#ffffff;fill-opacity:1;fill-rule:evenodd;stroke:none;stroke-width:1.15216947;marker:none;visibility:visible;display:inline;overflow:visible"
       sodipodi:type="arc" />
    <path
       sodipodi:type="arc"
       style="color:#000000;fill:#ef2929;fill-opacity:0.6745098;fill-rule:evenodd;stroke:none;stroke-width:1.14538574;marker:none;visibility:visible;display:inline;overflow:visible"
       id="path7074"
       sodipodi:cx="7.7372527"
       sodipodi:cy="4.4110146"
       sodipodi:rx="4.0206685"
       sodipodi:ry="4.0206685"
       d="m 11.757921,4.4110146 a 4.0206685,4.0206685 0 1 1 -8.0413368,0 4.0206685,4.0206685 0 1 1 8.0413368,0 z"
       transform="matrix(0.82072825,0,0,0.82557529,1.649819,0.56642117)" />
    <path
       sodipodi:type="arc"
       style="color:#000000;fill:#8ae234;fill-opacity:0.6745098;fill-rule:evenodd;stroke:none;stroke-width:1.14876223;marker:none;visibility:visible;display:inline;overflow:visible"
       id="path7076"
       sodipodi:cx="7.7372527"
       sodipodi:cy="4.4110146"
       sodipodi:rx="4.0206685"
       sodipodi:ry="4.0206685"
       d="m 11.757921,4.4110146 a 4.0206685,4.0206685 0 1 1 -8.0413368,0 4.0206685,4.0206685 0 1 1 8.0413368,0 z"
       transform="matrix(0.82072825,0,0,0.82072825,4.4782835,4.378574)" />
    <path
       sodipodi:type="arc"
       style="color:#000000;fill:#729fcf;fill-opacity:0.6745098;fill-rule:evenodd;stroke:none;stroke-width:1.15216947;marker:none;visibility:visible;display:inline;overflow:visible"
       id="path7078"
       sodipodi:cx="7.7372527"
       sodipodi:cy="4.4110146"
       sodipodi:rx="4.0206685"
       sodipodi:ry="4.0206685"
       d="m 11.757921,4.4110146 a 4.0206685,4.0206685 0 1 1 -8.0413368,0 4.0206685,4.0206685 0 1 1 8.0413368,0 z"
       transform="matrix(0.82072825,0,0,0.81588214,-1.1786472,4.4194349)" />
    <path
       sodipodi:type="arc"
       style="color:#000000;fill:url(#radialGradient19546);fill-opacity:1;fill-rule:evenodd;stroke:none;stroke-width:1.14538574000000000;marker:none;visibility:visible;display:inline;overflow:visible"
       id="path7167"
       sodipodi:cx="7.7372527"
       sodipodi:cy="4.4110146"
       sodipodi:rx="4.0206685"
       sodipodi:ry="4.0206685"
       d="m 11.757921,4.4110146 a 4.0206685,4.0206685 0 1 1 -8.0413368,0 4.0206685,4.0206685 0 1 1 8.0413368,0 z"
       transform="matrix(0.82072825,0,0,0.82557529,1.6498181,8.1089926)" />
  </g>
</svg>
