<?xml version="1.0" encoding="UTF-8" standalone="no"?>
<!-- Created with Inkscape (http://www.inkscape.org/) -->

<svg
   xmlns:dc="http://purl.org/dc/elements/1.1/"
   xmlns:cc="http://creativecommons.org/ns#"
   xmlns:rdf="http://www.w3.org/1999/02/22-rdf-syntax-ns#"
   xmlns:svg="http://www.w3.org/2000/svg"
   xmlns="http://www.w3.org/2000/svg"
   xmlns:xlink="http://www.w3.org/1999/xlink"
   xmlns:sodipodi="http://sodipodi.sourceforge.net/DTD/sodipodi-0.dtd"
   xmlns:inkscape="http://www.inkscape.org/namespaces/inkscape"
   width="48px"
   height="48px"
   id="svg4008"
   version="1.1"
   inkscape:version="0.48.4 r9939"
   sodipodi:docname="baker.svg"
   inkscape:output_extension="org.inkscape.output.svg.inkscape">
  <defs
     id="defs4010">
    <linearGradient
       inkscape:collect="always"
       id="linearGradient3626">
      <stop
         style="stop-color:#c17d11;stop-opacity:1;"
         offset="0"
         id="stop3628" />
      <stop
         style="stop-color:#c17d11;stop-opacity:0;"
         offset="1"
         id="stop3630" />
    </linearGradient>
    <linearGradient
       id="linearGradient3608">
      <stop
         style="stop-color:#c17803;stop-opacity:1"
         offset="0"
         id="stop3610" />
      <stop
         style="stop-color:#8f5902;stop-opacity:1;"
         offset="1"
         id="stop3612" />
    </linearGradient>
    <linearGradient
       id="linearGradient3598">
      <stop
         style="stop-color:#edc112;stop-opacity:1;"
         offset="0"
         id="stop3600" />
      <stop
         id="stop3606"
         offset="0.85057473"
         style="stop-color:#f7e2c7;stop-opacity:1;" />
      <stop
         style="stop-color:#fcf0de;stop-opacity:1;"
         offset="1"
         id="stop3602" />
    </linearGradient>
    <linearGradient
       inkscape:collect="always"
       id="linearGradient4532">
      <stop
         style="stop-color:#000000;stop-opacity:1;"
         offset="0"
         id="stop4534" />
      <stop
         style="stop-color:#000000;stop-opacity:0;"
         offset="1"
         id="stop4536" />
    </linearGradient>
    <inkscape:perspective
       sodipodi:type="inkscape:persp3d"
       inkscape:vp_x="0 : 24 : 1"
       inkscape:vp_y="0 : 1000 : 0"
       inkscape:vp_z="48 : 24 : 1"
       inkscape:persp3d-origin="24 : 16 : 1"
       id="perspective4016" />
    <radialGradient
       inkscape:collect="always"
       xlink:href="#linearGradient4532"
       id="radialGradient4538"
       cx="50.619049"
       cy="39.809525"
       fx="50.619049"
       fy="39.809525"
       r="27.190475"
       gradientTransform="matrix(1,0,0,0.44791307,0,21.978318)"
       gradientUnits="userSpaceOnUse" />
    <radialGradient
       inkscape:collect="always"
       xlink:href="#linearGradient3598"
       id="radialGradient3604"
       cx="19.91592"
       cy="14.689261"
       fx="19.91592"
       fy="14.689261"
       r="23.701614"
       gradientTransform="matrix(1.59301,-0.54885106,0.29139258,0.84575094,-16.866003,17.375499)"
       gradientUnits="userSpaceOnUse" />
    <linearGradient
       inkscape:collect="always"
       xlink:href="#linearGradient3608"
       id="linearGradient3614"
       x1="14.772317"
       y1="13.820464"
       x2="29.985069"
       y2="41.058559"
       gradientUnits="userSpaceOnUse" />
    <linearGradient
       inkscape:collect="always"
       xlink:href="#linearGradient3626"
       id="linearGradient3632"
       x1="18.285713"
       y1="12.952381"
       x2="26.190477"
       y2="23.476191"
       gradientUnits="userSpaceOnUse"
       gradientTransform="translate(0.38095238,-0.19047619)" />
    <linearGradient
       inkscape:collect="always"
       xlink:href="#linearGradient3626"
       id="linearGradient3636"
       gradientUnits="userSpaceOnUse"
       gradientTransform="matrix(0.87684388,0.48077521,-0.48077521,0.87684388,25.001007,-8.2916871)"
       x1="18.285713"
       y1="12.952381"
       x2="26.190477"
       y2="23.476191" />
    <linearGradient
       inkscape:collect="always"
       xlink:href="#linearGradient3626"
       id="linearGradient3640"
       gradientUnits="userSpaceOnUse"
       gradientTransform="translate(-11.333333,6.1904762)"
       x1="18.285713"
       y1="12.952381"
       x2="26.190477"
       y2="23.476191" />
  </defs>
  <sodipodi:namedview
     id="base"
     pagecolor="#ffffff"
     bordercolor="#666666"
     borderopacity="1.0"
     inkscape:pageopacity="0.0"
     inkscape:pageshadow="2"
     inkscape:zoom="10.5"
     inkscape:cx="26.333333"
     inkscape:cy="12.880952"
     inkscape:current-layer="layer1"
     showgrid="true"
     inkscape:grid-bbox="true"
     inkscape:document-units="px"
     inkscape:window-width="2560"
     inkscape:window-height="1537"
     inkscape:window-x="-8"
     inkscape:window-y="-8"
     inkscape:window-maximized="1"
     inkscape:snap-global="false" />
  <metadata
     id="metadata4013">
    <rdf:RDF>
      <cc:Work
         rdf:about="">
        <dc:format>image/svg+xml</dc:format>
        <dc:type
           rdf:resource="http://purl.org/dc/dcmitype/StillImage" />
        <dc:title></dc:title>
      </cc:Work>
    </rdf:RDF>
  </metadata>
  <g
     id="layer1"
     inkscape:label="Layer 1"
     inkscape:groupmode="layer">
    <path
       style="fill:#eeeeec;stroke:none"
       d="m 38.255598,-1.6330772 c 0,0 -3.500952,1.65474207 -3.126944,4.9413147 0.309668,2.7211987 2.889743,2.5003448 2.690956,6.1071529 -0.0577,1.0470186 -1.440539,3.2562346 -2.16081,4.8843546 0,0 5.900819,-4.179579 5.212717,-6.6221978 -0.722419,-2.564441 -2.01101,-2.2649045 -2.631612,-3.7992666 -0.467871,-1.1567548 -0.08419,-4.15848876 0.01569,-5.5113578 z"
       id="path3663"
       sodipodi:nodetypes="czsczsc" />
    <path
       sodipodi:type="arc"
       style="color:#000000;fill:url(#radialGradient4538);fill-opacity:1;fill-rule:nonzero;stroke:none;stroke-width:1;marker:none;visibility:visible;display:inline;overflow:visible;enable-background:accumulate"
       id="path4530"
       sodipodi:cx="50.619049"
       sodipodi:cy="39.809525"
       sodipodi:rx="27.190475"
       sodipodi:ry="12.178969"
       d="m 77.809525,39.809525 a 27.190475,12.178969 0 1 1 -54.380951,0 27.190475,12.178969 0 1 1 54.380951,0 z"
       transform="matrix(0.86529314,-0.2257892,0.19361083,0.93412189,-28.039629,9.2469342)" />
    <path
       style="fill:url(#radialGradient3604);stroke:url(#linearGradient3614);stroke-width:0.90848344999999997px;stroke-linecap:butt;stroke-linejoin:miter;stroke-opacity:1;fill-opacity:1"
       d="M 0.91021511,32.448204 C 0.18120764,39.402962 5.6005021,43.695826 18.234338,43.342832 30.030955,43.013231 44.44431,35.613414 47.043013,25.737132 48.105022,21.701001 46.245389,17.72178 42.689093,15.349153 41.292475,14.417382 38.672902,13.39166 35.38121,12.702358 c -2.613289,0.262087 -5.53109,0.13388 -8.425512,-0.799777 -2.569314,0.04526 -5.243515,0.364918 -7.876081,1.073451 -1.79616,1.792376 -4.022948,2.664477 -6.579168,2.778777 -1.777648,1.064152 -3.4905509,2.341094 -4.7904001,3.574058 -0.5109308,2.030179 -2.6537681,4.508889 -4.4940428,5.853215 -1.3452792,2.508738 -2.0714671,5.030664 -2.30579099,7.266122 z"
       id="path4528"
       sodipodi:nodetypes="csssccccccs" />
    <path
       style="fill:#ffffff;fill-opacity:0.31999996;stroke:none"
       d="m 3.0476191,24.952381 c 5.1741192,2.472717 9.4822179,4.602838 11.9047619,7.714285 1.12308,1.442453 3.969942,0.174491 3.04762,-1.809523 C 14.882266,24.150562 11.746175,22.03149 7.8095238,19.428572 6.9265157,21.551559 5.1971003,23.335983 3.0476191,24.952381 z"
       id="path3616"
       sodipodi:nodetypes="csscc" />
    <path
       sodipodi:nodetypes="csscc"
       id="path3618"
       d="m 12.686565,16.086447 c 3.877091,1.855615 8.769223,6.138143 10.778853,9.448565 0.948654,1.5627 4.169805,0.970056 3.771934,-1.181382 -1.347677,-7.287383 -3.969572,-9.702142 -7.982674,-11.437055 -1.655578,1.595568 -3.952659,2.543442 -6.568113,3.169872 z"
       style="fill:#ffffff;fill-opacity:0.31999996;stroke:none" />
    <path
       style="fill:#ffffff;fill-opacity:0.31999996;stroke:none"
       d="m 27.27472,12.346126 c 3.766562,2.070783 6.50527,6.812217 7.468344,9.087592 0.712564,1.683517 4.003929,1.213867 3.83242,-0.967319 -0.173681,-2.208799 -0.846057,-5.529135 -3.231395,-7.868014 -1.55224,0.650568 -5.518055,0.468972 -8.069369,-0.252259 z"
       id="path3622"
       sodipodi:nodetypes="csscc" />
    <path
       style="fill:url(#linearGradient3632);fill-opacity:1;stroke:none"
       d="m 18.666666,13.619048 c 5.343558,2.088422 7.650473,7.280637 9.142857,10.857143 -0.875978,-4.680769 -2.36645,-9.367988 -7.428571,-11.714286 l -1.714286,0.857143 z"
       id="path3624"
       sodipodi:nodetypes="cccc" />
    <path
       sodipodi:nodetypes="cccc"
       id="path3634"
       d="m 34.966875,12.703662 c 2.157595,1.92408 3.588873,5.109763 3.082727,8.677588 1.291826,-3.66831 -0.237777,-7.161518 -1.738901,-8.700216 l -1.343826,0.02263 z"
       style="fill:url(#linearGradient3636);fill-opacity:1;stroke:none" />
    <path
       sodipodi:nodetypes="cccc"
       id="path3638"
       d="M 6.9523803,20 C 13.534033,23.136041 16.602853,27.661589 18.095237,31.238095 17.219259,26.557326 14.395454,22.72725 8.6666663,19.142857 L 6.9523803,20 z"
       style="fill:url(#linearGradient3640);fill-opacity:1;stroke:none" />
    <path
       style="fill:#eeeeec;stroke:none;stroke-width:0.78146475999999998px;stroke-linecap:butt;stroke-linejoin:miter;stroke-opacity:1"
       d="m 22.827027,0.46216092 c 0,0 -3.500952,1.19974748 -3.126944,3.58263098 0.309668,1.9729671 2.889743,1.81284 2.690956,4.4279057 -0.0577,0.7591255 -1.440539,2.3608874 -2.16081,3.5413324 0,0 5.900819,-3.0303445 5.212717,-4.8013317 -0.722419,-1.8593116 -2.01101,-1.6421369 -2.631612,-2.7546046 -0.467871,-0.8386889 -0.08419,-3.015054 0.01569,-3.99593278 z"
       id="path3659"
       sodipodi:nodetypes="czsczsc" />
    <path
       sodipodi:nodetypes="czsczsc"
       id="path3661"
       d="m 10.255598,0.55739902 c 0,0 -3.5009516,1.79321858 -3.1269436,5.35482708 0.309668,2.9489215 2.8897426,2.7095854 2.690956,6.6182279 -0.0577,1.134637 -1.440539,3.528732 -2.16081,5.2931 0,0 5.9008186,-4.529345 5.2127166,-7.176374 C 12.149098,7.8681347 10.860507,8.1927378 10.239905,6.5299731 9.7720344,5.2764156 10.155715,2.0234825 10.255595,0.55739902 z"
       style="fill:#eeeeec;stroke:none" />
  </g>
</svg>
