<?xml version="1.0" encoding="UTF-8" standalone="no"?>
<!-- Created with Inkscape (http://www.inkscape.org/) -->

<svg
   xmlns:dc="http://purl.org/dc/elements/1.1/"
   xmlns:cc="http://creativecommons.org/ns#"
   xmlns:rdf="http://www.w3.org/1999/02/22-rdf-syntax-ns#"
   xmlns:svg="http://www.w3.org/2000/svg"
   xmlns="http://www.w3.org/2000/svg"
   xmlns:sodipodi="http://sodipodi.sourceforge.net/DTD/sodipodi-0.dtd"
   xmlns:inkscape="http://www.inkscape.org/namespaces/inkscape"
   width="48px"
   height="48px"
   id="svg53136"
   version="1.1"
   inkscape:version="0.48.5 r10040"
   sodipodi:docname="New document 27">
  <defs
     id="defs53138" />
  <sodipodi:namedview
     id="base"
     pagecolor="#ffffff"
     bordercolor="#666666"
     borderopacity="1.0"
     inkscape:pageopacity="0.0"
     inkscape:pageshadow="2"
     inkscape:zoom="4.9497475"
     inkscape:cx="-67.040256"
     inkscape:cy="11.931651"
     inkscape:current-layer="layer1"
     showgrid="true"
     inkscape:grid-bbox="true"
     inkscape:document-units="px"
     inkscape:window-width="2560"
     inkscape:window-height="1537"
     inkscape:window-x="-8"
     inkscape:window-y="-8"
     inkscape:window-maximized="1" />
  <metadata
     id="metadata53141">
    <rdf:RDF>
      <cc:Work
         rdf:about="">
        <dc:format>image/svg+xml</dc:format>
        <dc:type
           rdf:resource="http://purl.org/dc/dcmitype/StillImage" />
        <dc:title></dc:title>
      </cc:Work>
    </rdf:RDF>
  </metadata>
  <g
     id="layer1"
     inkscape:label="Layer 1"
     inkscape:groupmode="layer">
    <path
       style="color:#000000;fill:#8ae234;stroke:#4e9a06;stroke-width:0.49999997000000002;stroke-linecap:butt;stroke-linejoin:bevel;stroke-miterlimit:4;stroke-opacity:1;stroke-dasharray:none;stroke-dashoffset:0;marker:none;visibility:visible;display:inline;overflow:visible;enable-background:accumulate"
       d="m 22.279566,10.698347 c -11.957266,0 -21.64677944,6.004817 -21.64677944,13.410017 0,5.087422 4.57077774,9.513877 11.23936444,11.805082 2.356592,0.723743 10.894256,0.275722 10.858278,-6.531718 l 0,-11.341196 -1.696102,0 0,2.042161 c -0.948218,-1.373037 -2.383431,-2.25011 -3.993356,-2.25011 -2.855405,0 -5.16882,2.754877 -5.16882,6.153145 0,3.398268 2.313415,6.153146 5.16882,6.153146 1.608552,0 3.045111,-0.873758 3.993356,-2.244779 l 0,1.487633 c -0.06111,2.955285 -2.247188,4.491112 -4.610609,3.86571 -5.606762,-1.872158 -9.3393,-5.231035 -9.3393,-9.069757 0,-5.819506 8.585206,-10.536062 19.172402,-10.536062 6.020984,0 11.393504,1.521221 14.81943,3.807059 -3.844019,-4.079139 -10.818385,-6.750331 -18.796684,-6.750331 z m -4.873611,8.675188 c 2.002914,0 3.628372,2.064404 3.628372,4.612193 0,2.547789 -1.625458,4.612194 -3.628372,4.612194 -2.002913,0 -3.628371,-2.064405 -3.628371,-4.612194 0,-2.547789 1.625458,-4.612193 3.628371,-4.612193 z m 23.444863,11.618461 c -3.603112,2.308942 -8.798072,3.721746 -14.593998,3.721746 -1.378799,0 -2.723921,-0.07724 -4.020192,-0.229276 -0.976078,1.278873 -3.229533,2.343114 -5.464028,2.591359 1.758498,0.285602 3.603806,0.442557 5.506966,0.442557 7.943787,0 14.892281,-2.650876 18.571252,-6.526386 z"
       id="path53155"
       inkscape:connector-curvature="0" />
    <rect
       y="15.282921"
       x="24.50194"
       height="14.580772"
       width="1.9082491"
       id="rect53673"
       style="color:#000000;fill:#8ae234;stroke:#4e9a06;stroke-width:0.49999997000000002;stroke-linecap:butt;stroke-linejoin:bevel;stroke-miterlimit:4;stroke-opacity:1;stroke-dasharray:none;stroke-dashoffset:0;marker:none;visibility:visible;display:inline;overflow:visible;enable-background:accumulate" />
    <path
       style="color:#000000;fill:#8ae234;stroke:#4e9a06;stroke-width:0.49999997000000002;stroke-linecap:butt;stroke-linejoin:bevel;stroke-miterlimit:4;stroke-opacity:1;stroke-dasharray:none;stroke-dashoffset:0;marker:none;visibility:visible;display:inline;overflow:visible;enable-background:accumulate"
       d="m 28.044169,18.14184 0,2.314095 3.639106,0 0,9.405674 2.603196,0 0,-9.405674 3.644474,0 0,-2.314095 -9.886776,0 z"
       id="rect53675"
       inkscape:connector-curvature="0" />
    <path
       style="color:#000000;fill:#8ae234;stroke:#4e9a06;stroke-width:0.49999997000000002;stroke-linecap:butt;stroke-linejoin:bevel;stroke-miterlimit:4;stroke-opacity:1;stroke-dasharray:none;stroke-dashoffset:0;marker:none;visibility:visible;display:inline;overflow:visible;enable-background:accumulate"
       d="m 39.600211,18.14184 0,0.06932 -0.0053,0 0,11.650453 2.603196,0 0,-4.718834 5.206392,0 0,-2.308762 -5.206392,0 0,-2.378079 5.861215,0 0,-2.314094 -8.459044,0 z"
       id="rect53679"
       inkscape:connector-curvature="0" />
  </g>
</svg>
