<?xml version="1.0" encoding="UTF-8" standalone="no"?>
<!-- Generator: Adobe Illustrator 15.0.0, SVG Export Plug-In . SVG Version: 6.00 Build 0)  -->

<svg
   xmlns:dc="http://purl.org/dc/elements/1.1/"
   xmlns:cc="http://creativecommons.org/ns#"
   xmlns:rdf="http://www.w3.org/1999/02/22-rdf-syntax-ns#"
   xmlns:svg="http://www.w3.org/2000/svg"
   xmlns="http://www.w3.org/2000/svg"
   xmlns:sodipodi="http://sodipodi.sourceforge.net/DTD/sodipodi-0.dtd"
   xmlns:inkscape="http://www.inkscape.org/namespaces/inkscape"
   version="1.0"
   id="Layer_1"
   x="0px"
   y="0px"
   width="48"
   height="48"
   viewBox="0 0 106.14857 113.07861"
   enable-background="new 0 0 123.84 108.367"
   xml:space="preserve"
   sodipodi:version="0.32"
   inkscape:version="0.48.5 r10040"
   sodipodi:docname="openvdb.svg"
   inkscape:export-filename="/usr/home/malden/openvdb_icon.png"
   inkscape:export-xdpi="90"
   inkscape:export-ydpi="90"><metadata
     id="metadata1412"><rdf:RDF><cc:Work
         rdf:about=""><dc:format>image/svg+xml</dc:format><dc:type
           rdf:resource="http://purl.org/dc/dcmitype/StillImage" /></cc:Work></rdf:RDF></metadata><defs
     id="defs1410"><radialGradient
       id="SVGID_3_"
       cx="45.291"
       cy="84.226601"
       r="85.773697"
       gradientUnits="userSpaceOnUse"><stop
         offset="0"
         style="stop-color:#32363F"
         id="stop1403" /><stop
         offset="1"
         style="stop-color:#16080F"
         id="stop1405" /></radialGradient><radialGradient
       id="SVGID_2_"
       cx="45.284199"
       cy="84.226601"
       r="85.792297"
       gradientUnits="userSpaceOnUse"><stop
         offset="0"
         style="stop-color:#32363F"
         id="stop1396" /><stop
         offset="1"
         style="stop-color:#16080F"
         id="stop1398" /></radialGradient><radialGradient
       id="SVGID_1_"
       cx="45.291"
       cy="84.2314"
       r="85.7659"
       gradientUnits="userSpaceOnUse"><stop
         offset="0"
         style="stop-color:#32363F"
         id="stop1389" /><stop
         offset="1"
         style="stop-color:#16080F"
         id="stop1391" /></radialGradient><radialGradient
       gradientUnits="userSpaceOnUse"
       r="85.7659"
       cy="84.2314"
       cx="45.291"
       id="radialGradient1469"><stop
         id="stop1471"
         style="stop-color:#32363F"
         offset="0" /><stop
         id="stop1473"
         style="stop-color:#16080F"
         offset="1" /></radialGradient><radialGradient
       gradientUnits="userSpaceOnUse"
       r="85.792297"
       cy="84.226601"
       cx="45.284199"
       id="radialGradient1476"><stop
         id="stop1478"
         style="stop-color:#32363F"
         offset="0" /><stop
         id="stop1480"
         style="stop-color:#16080F"
         offset="1" /></radialGradient><radialGradient
       gradientUnits="userSpaceOnUse"
       r="85.773697"
       cy="84.226601"
       cx="45.291"
       id="radialGradient1483"><stop
         id="stop1485"
         style="stop-color:#32363F"
         offset="0" /><stop
         id="stop1487"
         style="stop-color:#16080F"
         offset="1" /></radialGradient></defs><sodipodi:namedview
     inkscape:window-height="1156"
     inkscape:window-width="1920"
     inkscape:pageshadow="2"
     inkscape:pageopacity="0.0"
     borderopacity="1.0"
     bordercolor="#666666"
     pagecolor="#ffffff"
     id="base"
     inkscape:zoom="11.313708"
     inkscape:cx="-15.198836"
     inkscape:cy="13.533706"
     inkscape:window-x="0"
     inkscape:window-y="22"
     inkscape:current-layer="g1382"
     inkscape:grid-points="false"
     inkscape:grid-bbox="false"
     showgrid="true"
     borderlayer="top"
     inkscape:showpageshadow="false"
     inkscape:window-maximized="1" /><g
     id="g1382"
     transform="translate(0,4.7116087)"><g
       id="g74054"
       transform="matrix(0.99065995,0,0,0.99065995,0.3927375,3.2866309)"
       style="stroke:#2e3436"><path
         inkscape:connector-curvature="0"
         style="fill:none;stroke:#2e3436;stroke-width:7.06741333;stroke-miterlimit:4;stroke-dasharray:none"
         id="path74048"
         d="m 15.555851,95.940404 -11.14911,-34.797506 8.621216,0 4.234983,14.699781 c 1.190628,4.191638 2.277963,8.113055 3.097846,12.450408 l 0.153094,0 c 0.877062,-4.184259 1.964397,-8.315028 3.155025,-12.290858 l 4.436957,-14.859331 8.370363,0 -11.728284,34.796584 z" /><path
         inkscape:connector-curvature="0"
         style="fill:none;stroke:#2e3436;stroke-width:7.06741333;stroke-miterlimit:4;stroke-dasharray:none"
         id="path74050"
         d="m 40.187369,61.649214 c 2.890339,-0.473115 6.665118,-0.771925 10.585613,-0.771925 6.664196,0 11.002471,1.239507 14.304135,3.718522 3.621685,2.680988 5.891349,6.971306 5.891349,13.112585 0,6.664196 -2.430136,11.254246 -5.738255,14.087406 -3.663187,3.063722 -9.289849,4.506125 -16.108061,4.506125 -4.080967,0 -7.026641,-0.264686 -8.934781,-0.521995 l 0,-34.130718 0,0 z m 7.848368,28.35004 c 0.675089,0.154016 1.803003,0.154016 2.737245,0.154016 7.178813,0.05533 11.879533,-3.878993 11.879533,-12.186643 0,-7.228615 -4.233138,-11.045818 -11.050428,-11.045818 -1.699711,0 -2.890339,0.153094 -3.565428,0.30711 z" /><path
         inkscape:connector-curvature="0"
         style="fill:none;stroke:#2e3436;stroke-width:7.06741333;stroke-miterlimit:4;stroke-dasharray:none"
         id="path74052"
         d="m 76.127546,61.594802 c 2.061234,-0.35599 6.198458,-0.717513 10.174289,-0.717513 4.805857,0 7.743231,0.45836 10.33476,1.964398 2.416302,1.287464 4.121545,3.669642 4.121545,6.866169 0,3.042511 -1.808536,5.883971 -5.730875,7.388164 l 0,0.09592 c 3.977675,1.031078 6.915045,4.081889 6.915045,8.523457 0,3.197449 -1.44148,5.675541 -3.606926,7.424132 -2.526971,2.019732 -6.761032,3.162403 -13.684381,3.162403 -3.878072,0 -6.761033,-0.264686 -8.523457,-0.521995 l 0,-34.18513 z m 7.800411,13.329314 2.576773,0 c 4.184259,0 6.35063,-1.706167 6.35063,-4.296774 0,-2.626575 -2.005899,-4.018254 -5.570404,-4.018254 -1.762425,0 -2.744624,0.09684 -3.356999,0.201973 l 0,8.113055 0,0 z m 0,15.431128 c 0.765469,0.105136 1.706167,0.105136 3.043433,0.105136 3.564505,0 6.712153,-1.394445 6.712153,-5.057632 0,-3.459369 -3.147648,-4.852892 -7.068143,-4.852892 l -2.687443,0 0,9.805388 z" /></g><path
       d="M 108.76199,26.176053 C 107.26655,13.812442 97.352625,3.9750281 84.856243,2.4224313 80.853048,1.836981 76.217382,2.0259846 71.001805,3.6053181 c 0,0 -8.695097,2.694917 -15.697447,10.5537849 0,0 -2.994564,3.516391 -5.360338,6.752503 -0.139216,0.203755 -0.284887,0.397369 -0.425021,0.592827 -0.01384,0 -2.930947,3.863974 -3.334768,4.406092 -2.491163,3.403911 -5.860959,8.069077 -9.870607,11.529228 -3.022218,3.091364 -7.289091,5.018279 -12.029856,5.018279 -1.845782,0 -3.620573,-0.297795 -5.28473,-0.841757 -3.062782,-0.863886 -6.41875,-2.728108 -8.701543,-6.621583 -1.6355759,-2.478255 -2.58428,-5.429481 -2.58428,-8.589991 0,-8.854596 7.408026,-15.93532 16.549352,-16.038581 5.671953,-0.06269 14.388249,1.385721 21.204374,10.839594 0.06915,0.09681 0.13829,0.201913 0.210207,0.298719 0,0 0.01937,0.02674 0.0064,0.02028 C 44.75701,18.941352 41.129982,7.2941137 30.56144,3.2365262 c 0,0 -2.554771,-0.981898 -6.396622,-1.1626035 -5.214659,-0.2295711 -12.810764,1.0224638 -19.6388702,8.2774403 0,0 -8.1105694,7.699367 -7.3582355,19.562349 0.3549584,14.934062 12.6134656,26.768458 27.4414987,26.547188 3.231497,0.109716 6.801362,-0.293186 10.69484,-1.477914 0,0 7.873619,-2.073515 15.719583,-10.511377 0,0 2.533571,-2.965053 4.783174,-5.966985 0.347586,-0.465595 0.681335,-0.924736 1.009558,-1.377424 0.36234,-0.445311 0.730197,-0.897999 1.106365,-1.363592 2.764068,-3.683269 11.61958,-16.089289 19.854612,-18.824773 1.691811,-0.619565 3.529302,-0.960692 5.436855,-0.960692 8.750428,0 15.85235,7.087179 15.85235,15.831139 0,7.908652 -5.806559,15.231859 -13.394379,16.408287 -0.926585,0.160424 -16.179638,2.671869 -25.738622,-10.583285 -0.06915,-0.102339 -0.144753,-0.201912 -0.214816,-0.304249 -0.01383,-0.0073 0.0627,0.138295 0.132762,0.381695 1.210554,3.725679 4.719566,14.097837 15.921498,17.697202 0,0 2.861793,0.952395 7.080722,0.925659 5.179636,-0.03411 12.406029,-1.530468 18.957537,-8.033116 -0.003,0 8.83154,-9.035304 6.9581,-22.110675 z"
       id="path1384"
       sodipodi:nodetypes="cccccsccsccscscsccccccccscccsscccsccscc"
       style="fill:#ce3131;stroke:#a40000;stroke-width:1.16690052;stroke-miterlimit:4;stroke-dasharray:none"
       inkscape:connector-curvature="0" /><path
       inkscape:connector-curvature="0"
       style="fill:#eeeeec;stroke:none"
       id="path1393"
       d="M 15.803296,98.330947 4.7583193,63.858451 l 8.5406937,0 4.195428,14.562484 c 1.179507,4.152488 2.256687,8.037279 3.068912,12.334121 l 0.151664,0 c 0.86887,-4.145178 1.94605,-8.237365 3.125557,-12.176061 l 4.395516,-14.720544 8.292183,0 -11.618741,34.471582 -9.106236,0 0,9.14e-4 z" /><path
       inkscape:connector-curvature="0"
       style="fill:#eeeeec;stroke:none"
       id="path1400"
       d="m 40.204755,64.360038 c 2.863343,-0.468696 6.602865,-0.764715 10.486743,-0.764715 6.601952,0 10.899707,1.22793 14.170533,3.683791 3.587859,2.655947 5.836324,6.906193 5.836324,12.990112 0,6.601953 -2.407438,11.149131 -5.684659,13.955829 -3.628973,3.035107 -9.203082,4.464038 -15.957611,4.464038 -4.042851,0 -6.961012,-0.262214 -8.85133,-0.51712 l 0,-33.811935 0,0 z m 7.775064,28.085249 c 0.668783,0.152578 1.786163,0.152578 2.711679,0.152578 7.111762,0.05481 11.768577,-3.842763 11.768577,-12.072819 0,-7.1611 -4.1936,-10.94265 -10.947216,-10.94265 -1.683836,0 -2.863343,0.151664 -3.532127,0.304242 l 0,22.558649 -9.13e-4,0 z" /><path
       inkscape:connector-curvature="0"
       style="fill:#eeeeec;stroke:none"
       id="path1407"
       d="m 75.809249,64.306134 c 2.041982,-0.352665 6.140564,-0.710811 10.079261,-0.710811 4.76097,0 7.670908,0.454079 10.238232,1.94605 2.393734,1.275439 4.083048,3.635368 4.083048,6.802039 0,3.014094 -1.791642,5.829014 -5.677346,7.319158 l 0,0.09502 c 3.940523,1.021448 6.850456,4.043764 6.850456,8.443848 0,3.167584 -1.428015,5.622531 -3.573235,7.35479 -2.503369,2.000868 -6.697884,3.132866 -13.556569,3.132866 -3.84185,0 -6.697884,-0.262214 -8.443847,-0.51712 l 0,-33.865839 z m 7.727555,13.204818 2.552706,0 c 4.145177,0 6.291314,-1.690232 6.291314,-4.256642 0,-2.602043 -1.987163,-3.980723 -5.518376,-3.980723 -1.745964,0 -2.718989,0.09593 -3.325644,0.200086 l 0,8.037279 0,0 z m 0,15.287 c 0.758319,0.104154 1.690231,0.104154 3.015007,0.104154 3.531212,0 6.649461,-1.38142 6.649461,-5.010393 0,-3.427058 -3.118249,-4.807566 -7.002126,-4.807566 l -2.662342,0 0,9.713805 z" /></g></svg>