<?xml version="1.0" encoding="UTF-8" standalone="no"?>
<!-- Generator: Adobe Illustrator 15.0.0, SVG Export Plug-In . SVG Version: 6.00 Build 0)  -->
<svg
   xmlns:dc="http://purl.org/dc/elements/1.1/"
   xmlns:cc="http://creativecommons.org/ns#"
   xmlns:rdf="http://www.w3.org/1999/02/22-rdf-syntax-ns#"
   xmlns:svg="http://www.w3.org/2000/svg"
   xmlns="http://www.w3.org/2000/svg"
   xmlns:xlink="http://www.w3.org/1999/xlink"
   xmlns:sodipodi="http://sodipodi.sourceforge.net/DTD/sodipodi-0.dtd"
   xmlns:inkscape="http://www.inkscape.org/namespaces/inkscape"
   version="1.0"
   id="Layer_1"
   x="0px"
   y="0px"
   width="48"
   height="48"
   viewBox="0 0 612 792"
   enable-background="new 0 0 612 792"
   xml:space="preserve"
   sodipodi:version="0.32"
   inkscape:version="0.46"
   sodipodi:docname="Cycle.svg"
   inkscape:output_extension="org.inkscape.output.svg.inkscape"><metadata
   id="metadata11426"><rdf:RDF><cc:Work
       rdf:about=""><dc:format>image/svg+xml</dc:format><dc:type
         rdf:resource="http://purl.org/dc/dcmitype/StillImage" /></cc:Work></rdf:RDF></metadata><defs
   id="defs11424"><inkscape:perspective
   sodipodi:type="inkscape:persp3d"
   inkscape:vp_x="0 : 396 : 1"
   inkscape:vp_y="0 : 1000 : 0"
   inkscape:vp_z="612 : 396 : 1"
   inkscape:persp3d-origin="306 : 264 : 1"
   id="perspective11428" />
	
	
<linearGradient
   inkscape:collect="always"
   xlink:href="#SVGID_1_"
   id="linearGradient11457"
   gradientUnits="userSpaceOnUse"
   x1="290.42429"
   y1="421.20999"
   x2="300.94131"
   y2="421.29379" /><linearGradient
   inkscape:collect="always"
   xlink:href="#SVGID_2_"
   id="linearGradient11459"
   gradientUnits="userSpaceOnUse"
   x1="307.94339"
   y1="423.14359"
   x2="268.7879"
   y2="423.14359" />
		
		
		
		
		<linearGradient
   id="SVGID_1_"
   gradientUnits="userSpaceOnUse"
   x1="290.42429"
   y1="421.20999"
   x2="300.94131"
   y2="421.29379">
			<stop
   offset="0"
   style="stop-color:#A0CC3A"
   id="stop11384" />
			<stop
   offset="0.0797"
   style="stop-color:#8EC24B;stop-opacity:0.9203"
   id="stop11386" />
			<stop
   offset="0.2357"
   style="stop-color:#6FB663;stop-opacity:0.7643"
   id="stop11388" />
			<stop
   offset="0.3998"
   style="stop-color:#50AD75;stop-opacity:0.6002"
   id="stop11390" />
			<stop
   offset="0.5736"
   style="stop-color:#33A77F;stop-opacity:0.4264"
   id="stop11392" />
			<stop
   offset="0.7635"
   style="stop-color:#14A484;stop-opacity:0.2365"
   id="stop11394" />
			<stop
   offset="1"
   style="stop-color:#00A386;stop-opacity:0"
   id="stop11396" />
		</linearGradient>
		
		
		<linearGradient
   id="SVGID_2_"
   gradientUnits="userSpaceOnUse"
   x1="307.94339"
   y1="423.14359"
   x2="268.7879"
   y2="423.14359">
			<stop
   offset="0"
   style="stop-color:#5F64AD"
   id="stop11403" />
			<stop
   offset="0.1397"
   style="stop-color:#545EAA;stop-opacity:0.9022"
   id="stop11405" />
			<stop
   offset="0.3882"
   style="stop-color:#4657A6;stop-opacity:0.7283"
   id="stop11407" />
			<stop
   offset="0.6607"
   style="stop-color:#3D53A4;stop-opacity:0.5375"
   id="stop11409" />
			<stop
   offset="1"
   style="stop-color:#3A52A4;stop-opacity:0.3"
   id="stop11411" />
		</linearGradient>
		
		
		
		
		
	<linearGradient
   inkscape:collect="always"
   xlink:href="#SVGID_2_"
   id="linearGradient11480"
   gradientUnits="userSpaceOnUse"
   x1="307.94339"
   y1="423.14359"
   x2="268.7879"
   y2="423.14359"
   gradientTransform="matrix(16.391758,0,0,16.391758,-4685.8439,-6525.4362)" /><linearGradient
   inkscape:collect="always"
   xlink:href="#SVGID_1_"
   id="linearGradient11484"
   gradientUnits="userSpaceOnUse"
   x1="290.42429"
   y1="421.20999"
   x2="300.94131"
   y2="421.29379"
   gradientTransform="matrix(16.391758,0,0,16.391758,-4685.8439,-6525.4362)" /></defs><sodipodi:namedview
   inkscape:window-height="1538"
   inkscape:window-width="2560"
   inkscape:pageshadow="2"
   inkscape:pageopacity="0.0"
   guidetolerance="10.0"
   gridtolerance="10.0"
   objecttolerance="10.0"
   borderopacity="1.0"
   bordercolor="#666666"
   pagecolor="#ffffff"
   id="base"
   showgrid="false"
   inkscape:zoom="18.666667"
   inkscape:cx="17.049637"
   inkscape:cy="22.804194"
   inkscape:window-x="0"
   inkscape:window-y="24"
   inkscape:current-layer="Layer_1" />
<path
   stroke-miterlimit="10"
   d="M 209.1449,752.93061 C 47.751655,721.7207 -69.400241,579.48941 -69.400241,414.81781 C -69.400241,400.93401 -68.334776,386.41089 -66.023538,369.08481 C -65.269518,362.9543 -64.335187,356.82377 -63.236939,350.74244 C -63.236939,350.74244 -62.171475,344.77583 -61.860032,343.2514 C -55.418071,311.86118 -44.370027,281.48725 -29.010949,253.08034 L -26.929195,249.12992 C -23.241049,242.54043 -19.323419,236.16404 -15.241871,229.886 C 2.2317427,202.51176 23.573812,177.66186 48.145058,156.09031 C 108.74539,96.850493 191.01562,58.346255 273.56451,50.724087 C 284.43224,49.609448 295.28359,49.019345 305.75791,49.019345 C 355.53969,49.019345 403.81342,57.854504 449.33333,75.295333 C 451.49704,76.114921 463.90561,81.196366 463.90561,81.196366 C 468.34777,83.081419 472.74077,85.097602 477.08458,87.179355 C 513.91686,104.81689 545.07759,126.91298 570.96018,153.41844 C 575.02533,157.61473 578.13976,161.00783 581.18864,164.46649 L 583.02451,166.56464 C 585.76193,169.72825 588.40101,172.94104 590.94173,176.20299 L 593.26937,179.13712 C 595.66255,182.28433 597.97379,185.48073 600.23585,188.67712 L 602.39957,191.82434 C 604.69442,195.20103 606.87453,198.61052 608.97267,202.06919 L 610.43153,204.47877 C 612.80834,208.44557 615.07039,212.47796 617.23412,216.5759 C 632.21618,245.26147 641.10051,275.25839 643.77237,306.09129 L 681.65372,315.31984 L 669.73692,369.62573 L 667.62239,377.82162 C 667.62239,377.82162 521.63737,596.06148 520.785,596.58603 C 519.94903,597.06138 517.39191,597.32364 515.06428,596.32376 C 512.75304,595.32386 511.90068,589.29168 511.90068,589.29168 L 473.08499,329.69541 L 487.21468,268.02963 L 509.93367,273.53726 C 476.96984,197.98764 416.3859,146.97649 338.14803,129.30617 C 324.39536,126.61793 310.7902,125.20823 297.77514,125.20823 C 270.82708,125.20823 244.50192,130.07658 219.52087,139.61659 C 133.51333,174.99001 82.092388,258.35848 82.092388,362.57728 C 82.092388,459.2067 118.02311,521.21672 195.16273,557.73756 C 227.92986,573.12942 268.08966,584.02994 317.92061,591.04561 C 317.92061,591.04561 324.32979,591.35705 325.32969,593.58634 C 326.37875,595.94673 322.78895,601.47077 322.78895,601.47077 L 318.31401,607.43737 L 287.75977,658.301 L 216.2917,749.88175 L 215.22624,750.94722 L 213.75099,753.3404 L 209.1449,752.93061 z"
   id="path11375"
   style="fill:none;stroke:#2d4583;stroke-width:41.25;stroke-linecap:round;stroke-linejoin:round;stroke-miterlimit:10;stroke-dasharray:none;stroke-opacity:1" /><path
   stroke-miterlimit="10"
   d="M 662.31145,373.88759 L 674.09711,320.04067 L 637.78937,311.20551 C 635.64205,278.99571 626.5938,248.22837 611.74288,219.83785 C 611.6937,219.73949 611.64452,219.64115 611.59534,219.5428 C 609.51359,215.5596 607.28432,211.60919 604.95669,207.70795 C 604.5305,206.92114 604.02235,206.15074 603.57978,205.38032 C 601.51441,202.02001 599.3671,198.6597 597.12143,195.39774 C 596.44935,194.34867 595.72812,193.33238 595.02329,192.3161 C 592.81039,189.18527 590.56471,186.07082 588.20432,183.02197 C 587.46668,182.03846 586.71266,181.10413 585.95864,180.13701 C 583.46709,176.95702 580.8608,173.8098 578.20534,170.72814 C 577.61523,170.03968 577.02513,169.35124 576.43503,168.67917 C 573.45173,165.28608 570.38646,161.95855 567.20648,158.6966 C 566.92781,158.41793 566.64915,158.15566 566.38689,157.8606 C 541.37305,132.2403 510.63851,110.32452 475.46179,93.441002 C 475.10118,93.277082 474.72417,93.113172 474.36355,92.932864 C 470.06891,90.916684 465.75787,88.933274 461.38127,87.048223 C 459.31593,86.146678 457.20138,85.32709 455.11962,84.45833 C 452.41499,83.376468 449.75952,82.278219 447.03849,81.261933 C 403.71507,64.64069 355.68722,55.395739 305.74154,55.395739 C 295.28359,55.395739 284.7273,55.96945 274.12183,57.067698 C 193.70386,64.525949 112.38436,102.17781 52.292172,160.89309 C 28.278246,181.97289 7.2967961,206.31465 -9.9637257,233.37745 C -13.963314,239.54075 -17.815377,245.80239 -21.405173,252.19518 C -22.110019,253.50653 -22.78208,254.81787 -23.470534,256.11281 C -38.239508,283.43788 -49.238377,313.12335 -55.69673,344.57913 C -56.204876,346.98872 -56.565493,349.46388 -57.040855,351.90624 C -58.12271,357.85646 -59.040649,363.85584 -59.778279,369.93719 C -61.745289,384.65698 -63.122196,399.58988 -63.122196,414.83422 C -63.122196,579.45663 54.52145,716.57368 210.30871,746.71813 L 210.55459,746.32474 C 210.63655,746.32474 210.70212,746.3575 210.78409,746.37391 L 211.43976,745.70184 L 282.21935,655.07182 L 313.1506,603.68366 L 317.64194,597.73344 C 317.34689,597.70066 317.11741,597.6351 316.82235,597.60231 L 316.95349,597.37283 C 268.6142,590.55386 226.89717,579.71889 192.35975,563.50745 C 116.59704,527.64229 75.666819,465.59948 75.666819,362.61006 C 75.666819,240.31115 141.93869,164.6632 217.16047,133.73195 C 243.10862,123.81493 270.56482,118.9138 297.69318,118.9138 C 311.18359,118.9138 325.23134,120.35627 339.47577,123.15926 C 426.08981,142.69824 489.1653,201.83971 520.45717,282.70024 L 491.91912,275.75013 L 479.47778,329.99047 L 518.11315,588.37375 L 518.45737,587.86561 L 518.57212,588.61963 L 662.29506,374.34657 L 662,374.2646 L 662.31145,373.88759 z"
   id="path11377"
   style="fill:none;stroke:#e4e5f3;stroke-width:16.39175797;stroke-linecap:round;stroke-linejoin:round;stroke-miterlimit:10" /><path
   d="M 317.03546,596.25819 C 162.00221,574.40797 75.043932,511.28332 75.043932,361.15121 C 75.043932,196.34846 189.16334,117.79917 297.77514,117.79917 C 406.37053,117.79917 549.56894,210.06836 549.56894,374.88749 C 549.56894,414.08018 628.42968,395.11492 632.85546,374.88749 C 670.01556,205.79012 514.2283,54.543368 303.28277,54.543368 C 138.29972,54.543368 -42.271882,188.16897 -42.271882,374.88749 C -42.271882,539.41156 74.978365,678.70873 234.37181,706.37803 L 317.03546,596.25819 z"
   id="path11379"
   style="fill:#eef2c0" /><polygon
   points="298.77,443.517 303.088,437.987 305.207,434.468 300.165,441.186 298.77,443.517 "
   id="polygon11381"
   style="fill:#363a96"
   transform="matrix(16.391758,0,0,16.391758,-4685.8439,-6525.4362)" /><path
   style="opacity:0.47999998;fill:url(#linearGradient11484)"
   d="M 305.8071,54.297491 C 143.06972,54.297491 -41.550644,188.52959 -41.550644,375.23172 C -41.550644,539.78858 75.699602,679.06934 235.10945,706.72224 L 317.72391,596.6024 C 162.69066,574.7522 75.732386,511.59475 75.732386,361.49542 C 75.732386,196.6763 196.0315,116.42225 296.49658,116.42225"
   id="path12001" /><path
   d="M 235.02749,705.55844 C 90.681669,684.56059 -20.53641,559.91766 -20.53641,409.83472 C -20.53641,245.03199 113.53177,110.9638 278.33451,110.9638 C 443.13724,110.9638 545.60213,245.04837 545.60213,409.83472 L 552.53583,409.83472 C 552.53583,223.11621 453.31653,78.753995 278.33451,78.753995 C 91.616,78.753995 -62.351785,223.14898 -62.351785,409.85111 C -62.351785,574.35881 51.423408,714.14772 210.84964,745.25926 L 235.02749,705.55844 z"
   id="path11400"
   style="fill:#f2f5d1" /><path
   d="M 232.51955,709.6072 C 87.780328,688.92079 -23.831153,564.09756 -23.831153,413.71957 C -23.831153,248.90043 110.23703,114.83225 275.03977,114.83225 C 439.87529,114.83225 542.97945,240.96683 542.97945,405.78596 C 542.97945,444.99504 557.55172,428.45576 557.55172,407.78575 C 557.55172,221.01805 458.11931,75.63956 275.05616,75.63956 C 88.337648,75.63956 -63.023847,226.96826 -63.023847,413.71957 C -63.023847,578.35838 54.619801,715.45905 210.40706,745.60349 L 232.51955,709.6072 z"
   id="path11413"
   style="fill:url(#linearGradient11480)" /><polygon
   points="326.275,420.859 317.508,433.933 315.165,418.157 326.275,420.859 "
   id="polygon11415"
   style="fill:#005ead"
   transform="matrix(16.391758,0,0,16.391758,-4685.8439,-6525.4362)" /><polygon
   points="326.991,417.55 318.424,429.594 315.882,414.848 326.991,417.55 "
   id="polygon11417"
   style="fill:#eef2c0"
   transform="matrix(16.391758,0,0,16.391758,-4685.8439,-6525.4362)" /><polygon
   points="326.991,417.55 326.272,420.836 317.479,433.918 318.424,429.594 326.991,417.55 "
   id="polygon11419"
   style="fill:#363a96"
   transform="matrix(16.391758,0,0,16.391758,-4685.8439,-6525.4362)" /><polygon
   points="315.882,414.848 315.123,418.155 317.479,433.918 318.424,429.594 315.882,414.848 "
   id="polygon11421"
   style="fill:#6977b9"
   transform="matrix(16.391758,0,0,16.391758,-4685.8439,-6525.4362)" />

</svg>