<?xml version="1.0" encoding="UTF-8" standalone="no"?>
<!-- Created with Inkscape (http://www.inkscape.org/) -->
<svg
   xmlns:i="http://ns.adobe.com/AdobeIllustrator/10.0/"
   xmlns:a="http://ns.adobe.com/AdobeSVGViewerExtensions/3.0/"
   xmlns:dc="http://purl.org/dc/elements/1.1/"
   xmlns:cc="http://web.resource.org/cc/"
   xmlns:rdf="http://www.w3.org/1999/02/22-rdf-syntax-ns#"
   xmlns:svg="http://www.w3.org/2000/svg"
   xmlns="http://www.w3.org/2000/svg"
   xmlns:xlink="http://www.w3.org/1999/xlink"
   xmlns:sodipodi="http://sodipodi.sourceforge.net/DTD/sodipodi-0.dtd"
   xmlns:inkscape="http://www.inkscape.org/namespaces/inkscape"
   width="48px"
   height="48px"
   id="svg4926"
   sodipodi:version="0.32"
   inkscape:version="0.44"
   sodipodi:docbase="e:\dev_clean\src\houdini\support\icons\dop"
   sodipodi:docname="rbdactiveobject.svg">
  <defs
     id="defs4928">
    <linearGradient
       id="linearGradient5360">
      <stop
         id="stop5362"
         offset="0"
         style="stop-color:#fcaf3e;stop-opacity:0.51546389;" />
      <stop
         id="stop5364"
         offset="1"
         style="stop-color:#fcaf3e;stop-opacity:0;" />
    </linearGradient>
    <linearGradient
       id="linearGradient5311">
      <stop
         style="stop-color:#ffab66;stop-opacity:0.67010307;"
         offset="0"
         id="stop5313" />
      <stop
         style="stop-color:#ce5c00;stop-opacity:0;"
         offset="1"
         id="stop5315" />
    </linearGradient>
    <linearGradient
       id="linearGradient5303">
      <stop
         style="stop-color:#fcaf3e;stop-opacity:1;"
         offset="0"
         id="stop5305" />
      <stop
         style="stop-color:#fcaf3e;stop-opacity:0;"
         offset="1"
         id="stop5307" />
    </linearGradient>
    <linearGradient
       inkscape:collect="always"
       id="linearGradient5285">
      <stop
         style="stop-color:#eeeeec;stop-opacity:1;"
         offset="0"
         id="stop5287" />
      <stop
         style="stop-color:#eeeeec;stop-opacity:0;"
         offset="1"
         id="stop5289" />
    </linearGradient>
    <linearGradient
       y2="1670.4375"
       x2="412.2319"
       y1="1666.4692"
       x1="404.4971"
       gradientUnits="userSpaceOnUse"
       id="XMLID_937_"
       gradientTransform="matrix(1.101797,0,0,1.099875,-450.4246,-1823.944)">
      <stop
         id="stop19051"
         style="stop-color:#B9BFC2"
         offset="0" />
      <stop
         id="stop19053"
         style="stop-color:#7E858C"
         offset="1" />
      <a:midPointStop
         style="stop-color:#B9BFC2"
         offset="0" />
      <a:midPointStop
         style="stop-color:#B9BFC2"
         offset="0.5" />
      <a:midPointStop
         style="stop-color:#7E858C"
         offset="1" />
    </linearGradient>
    <linearGradient
       y2="1670.4818"
       x2="421.9818"
       y1="1666.646"
       x1="414.3774"
       gradientUnits="userSpaceOnUse"
       id="XMLID_938_"
       gradientTransform="matrix(1.101797,0,0,1.099875,-450.4246,-1823.944)">
      <stop
         id="stop19060"
         style="stop-color:#B9BFC2"
         offset="0" />
      <stop
         id="stop19062"
         style="stop-color:#7E858C"
         offset="1" />
      <a:midPointStop
         style="stop-color:#B9BFC2"
         offset="0" />
      <a:midPointStop
         style="stop-color:#B9BFC2"
         offset="0.5" />
      <a:midPointStop
         style="stop-color:#7E858C"
         offset="1" />
    </linearGradient>
    <linearGradient
       y2="1676.3336"
       x2="416.8868"
       y1="1672.2954"
       x1="409.2813"
       gradientUnits="userSpaceOnUse"
       id="XMLID_939_"
       gradientTransform="matrix(1.101797,0,0,1.099875,-450.4246,-1823.944)">
      <stop
         id="stop19069"
         style="stop-color:#B9BFC2"
         offset="0" />
      <stop
         id="stop19071"
         style="stop-color:#7E858C"
         offset="1" />
      <a:midPointStop
         style="stop-color:#B9BFC2"
         offset="0" />
      <a:midPointStop
         style="stop-color:#B9BFC2"
         offset="0.5" />
      <a:midPointStop
         style="stop-color:#7E858C"
         offset="1" />
    </linearGradient>
    <linearGradient
       y2="1676.4236"
       x2="407.3731"
       y1="1672.2817"
       x1="403.0439"
       gradientUnits="userSpaceOnUse"
       id="XMLID_940_"
       gradientTransform="matrix(1.101797,0,0,1.099875,-450.4246,-1823.944)">
      <stop
         id="stop19078"
         style="stop-color:#B9BFC2"
         offset="0" />
      <stop
         id="stop19080"
         style="stop-color:#7E858C"
         offset="1" />
      <a:midPointStop
         style="stop-color:#B9BFC2"
         offset="0" />
      <a:midPointStop
         style="stop-color:#B9BFC2"
         offset="0.5" />
      <a:midPointStop
         style="stop-color:#7E858C"
         offset="1" />
    </linearGradient>
    <linearGradient
       y2="1676.375"
       x2="423.4853"
       y1="1672.2026"
       x1="419.0439"
       gradientUnits="userSpaceOnUse"
       id="XMLID_941_"
       gradientTransform="matrix(1.101797,0,0,1.099875,-450.4246,-1823.944)">
      <stop
         id="stop19087"
         style="stop-color:#B9BFC2"
         offset="0" />
      <stop
         id="stop19089"
         style="stop-color:#7E858C"
         offset="1" />
      <a:midPointStop
         style="stop-color:#B9BFC2"
         offset="0" />
      <a:midPointStop
         style="stop-color:#B9BFC2"
         offset="0.5" />
      <a:midPointStop
         style="stop-color:#7E858C"
         offset="1" />
    </linearGradient>
    <linearGradient
       y2="1682.1824"
       x2="412.446"
       y1="1678.3462"
       x1="404.9082"
       gradientUnits="userSpaceOnUse"
       id="XMLID_942_"
       gradientTransform="matrix(1.101797,0,0,1.099875,-450.4246,-1823.944)">
      <stop
         id="stop19096"
         style="stop-color:#B9BFC2"
         offset="0" />
      <stop
         id="stop19098"
         style="stop-color:#7E858C"
         offset="1" />
      <a:midPointStop
         style="stop-color:#B9BFC2"
         offset="0" />
      <a:midPointStop
         style="stop-color:#B9BFC2"
         offset="0.5" />
      <a:midPointStop
         style="stop-color:#7E858C"
         offset="1" />
    </linearGradient>
    <linearGradient
       y2="1682.0439"
       x2="421.943"
       y1="1678.2993"
       x1="414.2446"
       gradientUnits="userSpaceOnUse"
       id="XMLID_943_"
       gradientTransform="matrix(1.101797,0,0,1.099875,-450.4246,-1823.944)">
      <stop
         id="stop19105"
         style="stop-color:#B9BFC2"
         offset="0" />
      <stop
         id="stop19107"
         style="stop-color:#7E858C"
         offset="1" />
      <a:midPointStop
         style="stop-color:#B9BFC2"
         offset="0" />
      <a:midPointStop
         style="stop-color:#B9BFC2"
         offset="0.5" />
      <a:midPointStop
         style="stop-color:#7E858C"
         offset="1" />
    </linearGradient>
    <linearGradient
       y2="1688.0518"
       x2="416.9448"
       y1="1684.063"
       x1="409.5713"
       gradientUnits="userSpaceOnUse"
       id="XMLID_944_"
       gradientTransform="matrix(1.101797,0,0,1.099875,-450.4246,-1823.944)">
      <stop
         id="stop19114"
         style="stop-color:#B9BFC2"
         offset="0" />
      <stop
         id="stop19116"
         style="stop-color:#7E858C"
         offset="1" />
      <a:midPointStop
         style="stop-color:#B9BFC2"
         offset="0" />
      <a:midPointStop
         style="stop-color:#B9BFC2"
         offset="0.5" />
      <a:midPointStop
         style="stop-color:#7E858C"
         offset="1" />
    </linearGradient>
    <linearGradient
       y2="1688.1359"
       x2="407.351"
       y1="1683.8853"
       x1="403.0879"
       gradientUnits="userSpaceOnUse"
       id="XMLID_945_"
       gradientTransform="matrix(1.101797,0,0,1.099875,-450.4246,-1823.944)">
      <stop
         id="stop19123"
         style="stop-color:#B9BFC2"
         offset="0" />
      <stop
         id="stop19125"
         style="stop-color:#7E858C"
         offset="1" />
      <a:midPointStop
         style="stop-color:#B9BFC2"
         offset="0" />
      <a:midPointStop
         style="stop-color:#B9BFC2"
         offset="0.5" />
      <a:midPointStop
         style="stop-color:#7E858C"
         offset="1" />
    </linearGradient>
    <linearGradient
       y2="1688.1165"
       x2="423.7769"
       y1="1683.9312"
       x1="418.9399"
       gradientUnits="userSpaceOnUse"
       id="XMLID_946_"
       gradientTransform="matrix(1.101797,0,0,1.099875,-450.4246,-1823.944)">
      <stop
         id="stop19132"
         style="stop-color:#B9BFC2"
         offset="0" />
      <stop
         id="stop19134"
         style="stop-color:#7E858C"
         offset="1" />
      <a:midPointStop
         style="stop-color:#B9BFC2"
         offset="0" />
      <a:midPointStop
         style="stop-color:#B9BFC2"
         offset="0.5" />
      <a:midPointStop
         style="stop-color:#7E858C"
         offset="1" />
    </linearGradient>
    <linearGradient
       y2="1693.5895"
       x2="412.4431"
       y1="1690.0747"
       x1="404.5723"
       gradientUnits="userSpaceOnUse"
       id="XMLID_947_"
       gradientTransform="matrix(1.101797,0,0,1.099875,-450.4246,-1823.944)">
      <stop
         id="stop19141"
         style="stop-color:#B9BFC2"
         offset="0" />
      <stop
         id="stop19143"
         style="stop-color:#7E858C"
         offset="1" />
      <a:midPointStop
         style="stop-color:#B9BFC2"
         offset="0" />
      <a:midPointStop
         style="stop-color:#B9BFC2"
         offset="0.5" />
      <a:midPointStop
         style="stop-color:#7E858C"
         offset="1" />
    </linearGradient>
    <linearGradient
       y2="1693.6904"
       x2="422.0019"
       y1="1690.0562"
       x1="414.397"
       gradientUnits="userSpaceOnUse"
       id="XMLID_948_"
       gradientTransform="matrix(1.101797,0,0,1.099875,-450.4246,-1823.944)">
      <stop
         id="stop19150"
         style="stop-color:#B9BFC2"
         offset="0" />
      <stop
         id="stop19152"
         style="stop-color:#7E858C"
         offset="1" />
      <a:midPointStop
         style="stop-color:#B9BFC2"
         offset="0" />
      <a:midPointStop
         style="stop-color:#B9BFC2"
         offset="0.5" />
      <a:midPointStop
         style="stop-color:#7E858C"
         offset="1" />
    </linearGradient>
    <linearGradient
       y2="1699.637"
       x2="416.9694"
       y1="1695.769"
       x1="409.5361"
       gradientUnits="userSpaceOnUse"
       id="XMLID_949_"
       gradientTransform="matrix(1.101797,0,0,1.099875,-450.4246,-1823.944)">
      <stop
         id="stop19159"
         style="stop-color:#B9BFC2"
         offset="0" />
      <stop
         id="stop19161"
         style="stop-color:#7E858C"
         offset="1" />
      <a:midPointStop
         style="stop-color:#B9BFC2"
         offset="0" />
      <a:midPointStop
         style="stop-color:#B9BFC2"
         offset="0.5" />
      <a:midPointStop
         style="stop-color:#7E858C"
         offset="1" />
    </linearGradient>
    <linearGradient
       y2="1699.6893"
       x2="407.1522"
       y1="1695.5845"
       x1="403.2495"
       gradientUnits="userSpaceOnUse"
       id="XMLID_950_"
       gradientTransform="matrix(1.101797,0,0,1.099875,-450.4246,-1823.944)">
      <stop
         id="stop19168"
         style="stop-color:#B9BFC2"
         offset="0" />
      <stop
         id="stop19170"
         style="stop-color:#7E858C"
         offset="1" />
      <a:midPointStop
         style="stop-color:#B9BFC2"
         offset="0" />
      <a:midPointStop
         style="stop-color:#B9BFC2"
         offset="0.5" />
      <a:midPointStop
         style="stop-color:#7E858C"
         offset="1" />
    </linearGradient>
    <linearGradient
       y2="1700.0179"
       x2="423.6972"
       y1="1695.5093"
       x1="419.1885"
       gradientUnits="userSpaceOnUse"
       id="XMLID_951_"
       gradientTransform="matrix(1.101797,0,0,1.099875,-450.4246,-1823.944)">
      <stop
         id="stop19177"
         style="stop-color:#B9BFC2"
         offset="0" />
      <stop
         id="stop19179"
         style="stop-color:#7E858C"
         offset="1" />
      <a:midPointStop
         style="stop-color:#B9BFC2"
         offset="0" />
      <a:midPointStop
         style="stop-color:#B9BFC2"
         offset="0.5" />
      <a:midPointStop
         style="stop-color:#7E858C"
         offset="1" />
    </linearGradient>
    <radialGradient
       gradientUnits="userSpaceOnUse"
       gradientTransform="matrix(-1,0,0,1,1856.516,0)"
       fy="1679.0435"
       fx="1419.3115"
       r="8.9708"
       cy="1679.0435"
       cx="1419.3115"
       id="XMLID_953_">
      <stop
         id="stop19209"
         style="stop-color:#FFFFFF"
         offset="0" />
      <stop
         id="stop19211"
         style="stop-color:#F17912"
         offset="0.764" />
      <stop
         id="stop19213"
         style="stop-color:#8C3E0C"
         offset="1" />
      <a:midPointStop
         style="stop-color:#FFFFFF"
         offset="0" />
      <a:midPointStop
         style="stop-color:#FFFFFF"
         offset="0.5" />
      <a:midPointStop
         style="stop-color:#F17912"
         offset="0.764" />
      <a:midPointStop
         style="stop-color:#F17912"
         offset="0.5" />
      <a:midPointStop
         style="stop-color:#8C3E0C"
         offset="1" />
    </radialGradient>
    <linearGradient
       id="linearGradient5055">
      <stop
         style="stop-color:white;stop-opacity:1;"
         offset="0"
         id="stop5057" />
      <stop
         style="stop-color:#d0f8ff;stop-opacity:1;"
         offset="1"
         id="stop5059" />
    </linearGradient>
    <linearGradient
       id="linearGradient5047">
      <stop
         style="stop-color:#fd9c00;stop-opacity:1;"
         offset="0"
         id="stop5049" />
      <stop
         style="stop-color:#ce5c00;stop-opacity:1;"
         offset="1"
         id="stop5051" />
    </linearGradient>
    <linearGradient
       y2="1670.438"
       x2="328.2315"
       y1="1666.4702"
       x1="320.4976"
       gradientUnits="userSpaceOnUse"
       id="XMLID_922_"
       gradientTransform="translate(-307.269,-1655.985)">
      <stop
         id="stop18910"
         style="stop-color:#FAAF3E"
         offset="0" />
      <stop
         id="stop18912"
         style="stop-color:#F17912"
         offset="1" />
      <a:midPointStop
         style="stop-color:#FAAF3E"
         offset="0" />
      <a:midPointStop
         style="stop-color:#FAAF3E"
         offset="0.5" />
      <a:midPointStop
         style="stop-color:#F17912"
         offset="1" />
    </linearGradient>
    <linearGradient
       y2="1670.4828"
       x2="337.9823"
       y1="1666.647"
       x1="330.3779"
       gradientUnits="userSpaceOnUse"
       id="XMLID_923_"
       gradientTransform="translate(-307.269,-1655.985)">
      <stop
         id="stop18919"
         style="stop-color:#FAAF3E"
         offset="0" />
      <stop
         id="stop18921"
         style="stop-color:#F17912"
         offset="1" />
      <a:midPointStop
         style="stop-color:#FAAF3E"
         offset="0" />
      <a:midPointStop
         style="stop-color:#FAAF3E"
         offset="0.5" />
      <a:midPointStop
         style="stop-color:#F17912"
         offset="1" />
    </linearGradient>
    <linearGradient
       y2="1676.3336"
       x2="332.8873"
       y1="1672.2954"
       x1="325.2817"
       gradientUnits="userSpaceOnUse"
       id="XMLID_924_"
       gradientTransform="translate(-307.269,-1655.985)">
      <stop
         id="stop18928"
         style="stop-color:#FAAF3E"
         offset="0" />
      <stop
         id="stop18930"
         style="stop-color:#F17912"
         offset="1" />
      <a:midPointStop
         style="stop-color:#FAAF3E"
         offset="0" />
      <a:midPointStop
         style="stop-color:#FAAF3E"
         offset="0.5" />
      <a:midPointStop
         style="stop-color:#F17912"
         offset="1" />
    </linearGradient>
    <linearGradient
       y2="1676.4236"
       x2="323.3731"
       y1="1672.2817"
       x1="319.0439"
       gradientUnits="userSpaceOnUse"
       id="XMLID_925_"
       gradientTransform="translate(-315.4119,-1650.271)">
      <stop
         id="stop18937"
         style="stop-color:#FAAF3E"
         offset="0" />
      <stop
         id="stop18939"
         style="stop-color:#F17912"
         offset="1" />
      <a:midPointStop
         style="stop-color:#FAAF3E"
         offset="0" />
      <a:midPointStop
         style="stop-color:#FAAF3E"
         offset="0.5" />
      <a:midPointStop
         style="stop-color:#F17912"
         offset="1" />
    </linearGradient>
    <linearGradient
       y2="1676.3756"
       x2="339.486"
       y1="1672.2026"
       x1="335.0439"
       gradientUnits="userSpaceOnUse"
       id="XMLID_926_"
       gradientTransform="translate(-307.269,-1655.985)">
      <stop
         id="stop18946"
         style="stop-color:#FAAF3E"
         offset="0" />
      <stop
         id="stop18948"
         style="stop-color:#F17912"
         offset="1" />
      <a:midPointStop
         style="stop-color:#FAAF3E"
         offset="0" />
      <a:midPointStop
         style="stop-color:#FAAF3E"
         offset="0.5" />
      <a:midPointStop
         style="stop-color:#F17912"
         offset="1" />
    </linearGradient>
    <linearGradient
       y2="1682.1824"
       x2="328.4465"
       y1="1678.3462"
       x1="320.9087"
       gradientUnits="userSpaceOnUse"
       id="XMLID_927_"
       gradientTransform="translate(-307.269,-1655.985)">
      <stop
         id="stop18955"
         style="stop-color:#FAAF3E"
         offset="0" />
      <stop
         id="stop18957"
         style="stop-color:#F17912"
         offset="1" />
      <a:midPointStop
         style="stop-color:#FAAF3E"
         offset="0" />
      <a:midPointStop
         style="stop-color:#FAAF3E"
         offset="0.5" />
      <a:midPointStop
         style="stop-color:#F17912"
         offset="1" />
    </linearGradient>
    <linearGradient
       y2="1682.0449"
       x2="337.943"
       y1="1678.3003"
       x1="330.2446"
       gradientUnits="userSpaceOnUse"
       id="XMLID_928_"
       gradientTransform="translate(-307.269,-1655.985)">
      <stop
         id="stop18964"
         style="stop-color:#FAAF3E"
         offset="0" />
      <stop
         id="stop18966"
         style="stop-color:#F17912"
         offset="1" />
      <a:midPointStop
         style="stop-color:#FAAF3E"
         offset="0" />
      <a:midPointStop
         style="stop-color:#FAAF3E"
         offset="0.5" />
      <a:midPointStop
         style="stop-color:#F17912"
         offset="1" />
    </linearGradient>
    <linearGradient
       y2="1688.0518"
       x2="332.9448"
       y1="1684.063"
       x1="325.5713"
       gradientUnits="userSpaceOnUse"
       id="XMLID_929_"
       gradientTransform="translate(-307.269,-1655.985)">
      <stop
         id="stop18973"
         style="stop-color:#FAAF3E"
         offset="0" />
      <stop
         id="stop18975"
         style="stop-color:#F17912"
         offset="1" />
      <a:midPointStop
         style="stop-color:#FAAF3E"
         offset="0" />
      <a:midPointStop
         style="stop-color:#FAAF3E"
         offset="0.5" />
      <a:midPointStop
         style="stop-color:#F17912"
         offset="1" />
    </linearGradient>
    <linearGradient
       y2="1688.1366"
       x2="323.3517"
       y1="1683.8853"
       x1="319.0879"
       gradientUnits="userSpaceOnUse"
       id="XMLID_930_"
       gradientTransform="translate(-307.269,-1655.985)">
      <stop
         id="stop18982"
         style="stop-color:#FAAF3E"
         offset="0" />
      <stop
         id="stop18984"
         style="stop-color:#F17912"
         offset="1" />
      <a:midPointStop
         style="stop-color:#FAAF3E"
         offset="0" />
      <a:midPointStop
         style="stop-color:#FAAF3E"
         offset="0.5" />
      <a:midPointStop
         style="stop-color:#F17912"
         offset="1" />
    </linearGradient>
    <linearGradient
       y2="1688.1165"
       x2="339.7764"
       y1="1683.9312"
       x1="334.9395"
       gradientUnits="userSpaceOnUse"
       id="XMLID_931_"
       gradientTransform="translate(-307.269,-1655.985)">
      <stop
         id="stop18991"
         style="stop-color:#FAAF3E"
         offset="0" />
      <stop
         id="stop18993"
         style="stop-color:#F17912"
         offset="1" />
      <a:midPointStop
         style="stop-color:#FAAF3E"
         offset="0" />
      <a:midPointStop
         style="stop-color:#FAAF3E"
         offset="0.5" />
      <a:midPointStop
         style="stop-color:#F17912"
         offset="1" />
    </linearGradient>
    <linearGradient
       y2="1693.5895"
       x2="328.4436"
       y1="1690.0747"
       x1="320.5728"
       gradientUnits="userSpaceOnUse"
       id="XMLID_932_"
       gradientTransform="translate(-307.269,-1655.985)">
      <stop
         id="stop19000"
         style="stop-color:#FAAF3E"
         offset="0" />
      <stop
         id="stop19002"
         style="stop-color:#F17912"
         offset="1" />
      <a:midPointStop
         style="stop-color:#FAAF3E"
         offset="0" />
      <a:midPointStop
         style="stop-color:#FAAF3E"
         offset="0.5" />
      <a:midPointStop
         style="stop-color:#F17912"
         offset="1" />
    </linearGradient>
    <linearGradient
       y2="1693.6904"
       x2="338.0023"
       y1="1690.0562"
       x1="330.3975"
       gradientUnits="userSpaceOnUse"
       id="XMLID_933_"
       gradientTransform="translate(-307.269,-1655.985)">
      <stop
         id="stop19009"
         style="stop-color:#FAAF3E"
         offset="0" />
      <stop
         id="stop19011"
         style="stop-color:#F17912"
         offset="1" />
      <a:midPointStop
         style="stop-color:#FAAF3E"
         offset="0" />
      <a:midPointStop
         style="stop-color:#FAAF3E"
         offset="0.5" />
      <a:midPointStop
         style="stop-color:#F17912"
         offset="1" />
    </linearGradient>
    <linearGradient
       y2="1699.6364"
       x2="332.9693"
       y1="1695.7681"
       x1="325.5352"
       gradientUnits="userSpaceOnUse"
       id="XMLID_934_"
       gradientTransform="translate(-307.269,-1655.985)">
      <stop
         id="stop19018"
         style="stop-color:#FAAF3E"
         offset="0" />
      <stop
         id="stop19020"
         style="stop-color:#F17912"
         offset="1" />
      <a:midPointStop
         style="stop-color:#FAAF3E"
         offset="0" />
      <a:midPointStop
         style="stop-color:#FAAF3E"
         offset="0.5" />
      <a:midPointStop
         style="stop-color:#F17912"
         offset="1" />
    </linearGradient>
    <linearGradient
       y2="1699.6901"
       x2="323.1523"
       y1="1695.5845"
       x1="319.249"
       gradientUnits="userSpaceOnUse"
       id="XMLID_935_"
       gradientTransform="translate(-307.269,-1655.985)">
      <stop
         id="stop19027"
         style="stop-color:#FAAF3E"
         offset="0" />
      <stop
         id="stop19029"
         style="stop-color:#F17912"
         offset="1" />
      <a:midPointStop
         style="stop-color:#FAAF3E"
         offset="0" />
      <a:midPointStop
         style="stop-color:#FAAF3E"
         offset="0.5" />
      <a:midPointStop
         style="stop-color:#F17912"
         offset="1" />
    </linearGradient>
    <linearGradient
       y2="1700.0179"
       x2="339.6972"
       y1="1695.5093"
       x1="335.1885"
       gradientUnits="userSpaceOnUse"
       id="XMLID_936_"
       gradientTransform="translate(-307.269,-1655.985)">
      <stop
         id="stop19036"
         style="stop-color:#FAAF3E"
         offset="0" />
      <stop
         id="stop19038"
         style="stop-color:#F17912"
         offset="1" />
      <a:midPointStop
         style="stop-color:#FAAF3E"
         offset="0" />
      <a:midPointStop
         style="stop-color:#FAAF3E"
         offset="0.5" />
      <a:midPointStop
         style="stop-color:#F17912"
         offset="1" />
    </linearGradient>
    <radialGradient
       gradientUnits="userSpaceOnUse"
       gradientTransform="matrix(-1,0,0,1,1856.516,0)"
       fy="1679.0034"
       fx="1503.709"
       r="9.8174"
       cy="1679.0034"
       cx="1503.709"
       id="XMLID_952_">
      <stop
         id="stop19192"
         style="stop-color:#FFFFFF"
         offset="0" />
      <stop
         id="stop19194"
         style="stop-color:#F9FAFA"
         offset="0.0903" />
      <stop
         id="stop19196"
         style="stop-color:#E8EBED"
         offset="0.2113" />
      <stop
         id="stop19198"
         style="stop-color:#CCD2D7"
         offset="0.3497" />
      <stop
         id="stop19200"
         style="stop-color:#A5B0B8"
         offset="0.5" />
      <stop
         id="stop19202"
         style="stop-color:#8E9CA6"
         offset="0.5787" />
      <stop
         id="stop19204"
         style="stop-color:#505359"
         offset="1" />
      <a:midPointStop
         style="stop-color:#FFFFFF"
         offset="0" />
      <a:midPointStop
         style="stop-color:#FFFFFF"
         offset="0.6446" />
      <a:midPointStop
         style="stop-color:#8E9CA6"
         offset="0.5787" />
      <a:midPointStop
         style="stop-color:#8E9CA6"
         offset="0.5" />
      <a:midPointStop
         style="stop-color:#505359"
         offset="1" />
    </radialGradient>
    <linearGradient
       inkscape:collect="always"
       xlink:href="#linearGradient5055"
       id="linearGradient5061"
       x1="16.571428"
       y1="3.1760309"
       x2="29.829428"
       y2="6.8903165"
       gradientUnits="userSpaceOnUse"
       gradientTransform="matrix(1,0,0,1.135718,0,-0.384116)" />
    <radialGradient
       inkscape:collect="always"
       xlink:href="#XMLID_953_"
       id="radialGradient5297"
       gradientUnits="userSpaceOnUse"
       gradientTransform="matrix(-1,0,0,1,1856.516,0)"
       cx="1419.3115"
       cy="1679.0435"
       fx="1419.3115"
       fy="1679.0435"
       r="8.9708" />
    <linearGradient
       inkscape:collect="always"
       xlink:href="#linearGradient5285"
       id="linearGradient5299"
       gradientUnits="userSpaceOnUse"
       x1="439.09299"
       y1="1674.2695"
       x2="439.09299"
       y2="1689.1326" />
    <linearGradient
       inkscape:collect="always"
       xlink:href="#linearGradient5303"
       id="linearGradient5309"
       x1="29.285715"
       y1="33.392857"
       x2="13.357144"
       y2="24.178572"
       gradientUnits="userSpaceOnUse"
       gradientTransform="matrix(1.020349,0,0,1,-0.84593,0)" />
    <linearGradient
       inkscape:collect="always"
       xlink:href="#linearGradient5311"
       id="linearGradient5317"
       x1="31.500004"
       y1="29.392857"
       x2="17.50001"
       y2="20.321428"
       gradientUnits="userSpaceOnUse" />
    <linearGradient
       inkscape:collect="always"
       xlink:href="#linearGradient5360"
       id="linearGradient5321"
       gradientUnits="userSpaceOnUse"
       gradientTransform="matrix(-1.204116,7.477259e-2,-0.316207,1.054912,67.83481,-15.84641)"
       x1="29.285715"
       y1="33.392857"
       x2="13.357144"
       y2="24.178572" />
    <linearGradient
       inkscape:collect="always"
       xlink:href="#linearGradient5311"
       id="linearGradient5323"
       gradientUnits="userSpaceOnUse"
       x1="31.500004"
       y1="29.392857"
       x2="17.50001"
       y2="20.321428"
       gradientTransform="matrix(-1.180103,7.328191e-2,-0.316207,1.054912,66.83652,-15.78441)" />
  </defs>
  <sodipodi:namedview
     id="base"
     pagecolor="#ffffff"
     bordercolor="#666666"
     borderopacity="1.0"
     inkscape:pageopacity="0.0"
     inkscape:pageshadow="2"
     inkscape:zoom="14"
     inkscape:cx="23.685147"
     inkscape:cy="22.130344"
     inkscape:current-layer="layer1"
     showgrid="true"
     inkscape:grid-bbox="true"
     inkscape:document-units="px"
     inkscape:window-width="1247"
     inkscape:window-height="1070"
     inkscape:window-x="303"
     inkscape:window-y="25" />
  
  <g
     id="layer1"
     inkscape:label="Layer 1"
     inkscape:groupmode="layer">
    <path
       style="fill:url(#linearGradient5321);fill-opacity:1.0;fill-rule:evenodd;stroke:url(#linearGradient5323);stroke-width:2.00000024;stroke-linecap:butt;stroke-linejoin:round;stroke-miterlimit:4;stroke-dasharray:none;stroke-opacity:1"
       d="M 16.056036,32 C 15.912341,30.660246 16.094247,20.408466 16.061767,18.971039 C 23.994979,5.7689086 46.698356,2.582038 46.698356,2.582038 L 45.929665,11.544021 C 45.929665,11.544021 23.66935,15.101204 16.056036,32 z "
       id="path5319"
       sodipodi:nodetypes="ccccc" />
    <path
       style="fill:url(#linearGradient5309);fill-opacity:1;fill-rule:evenodd;stroke:url(#linearGradient5317);stroke-width:2;stroke-linecap:butt;stroke-linejoin:round;stroke-opacity:1;stroke-miterlimit:4;stroke-dasharray:none"
       d="M 30.142032,42.857143 C 31.12594,41.571429 40.663317,29.964285 41.428579,29.142857 C 31.480176,21.035714 16.000003,19.428571 16.000003,19.428571 L 15.857146,31.5 C 15.857146,31.5 24.202143,35.428572 30.142032,42.857143 z "
       id="path5301"
       sodipodi:nodetypes="ccccc" />
    <g
       id="g5293"
       transform="translate(1.000047,1.998573)">
      <circle
         i:knockout="Off"
         cx="439.09299"
         cy="1681.701"
         r="7.0650001"
         id="circle19215"
         style="fill:url(#radialGradient5297);stroke:#3f1c08;stroke-width:0.7436949;stroke-miterlimit:4;stroke-dasharray:none"
         sodipodi:cx="439.09299"
         sodipodi:cy="1681.701"
         sodipodi:rx="7.0650001"
         sodipodi:ry="7.0650001"
         transform="matrix(1.344659,0,0,1.344616,-554.4304,-2226.241)" />
      <circle
         i:knockout="Off"
         cx="439.09299"
         cy="1681.701"
         r="7.0650001"
         id="circle5281"
         style="fill:none;stroke:url(#linearGradient5299);stroke-width:0.8311711;stroke-miterlimit:4;stroke-dasharray:none"
         sodipodi:cx="439.09299"
         sodipodi:cy="1681.701"
         sodipodi:rx="7.0650001"
         sodipodi:ry="7.0650001"
         transform="matrix(1.203118,0,0,1.203125,-492.2809,-1988.297)" />
    </g>
    <g
       id="g5325">
      <rect
         x="-6.5030122"
         y="6.3331046"
         i:knockout="Off"
         width="23.118998"
         height="41.408077"
         id="rect19048"
         style="fill:white" />
      <path
         i:knockout="Off"
         d="M -4.6828459,9.3478845 C -4.5969058,9.0168223 -4.2641632,8.9618285 -3.5006182,8.9618285 C -2.6246899,8.9618285 0.60908297,8.9618285 1.4839094,8.9618285 C 1.9775143,8.9618285 2.4711192,8.9618285 2.9636222,8.9618285 C 3.2346642,8.9618285 3.7293708,8.870539 3.945323,9.0256213 C 4.3089158,9.2917909 4.1205086,10.375167 4.1205086,10.786521 C 4.1205086,11.468443 4.1194068,12.151465 4.1205086,12.834487 C 4.1216104,13.695689 3.6114786,13.578002 2.8909037,13.578002 C 1.4365322,13.578002 -1.2970251,13.578002 -2.7513966,13.578002 C -3.187708,13.578002 -4.200259,13.640695 -4.3941752,13.541707 C -4.866846,13.296434 -4.7269178,12.638709 -4.7269178,12.199859 C -4.7269178,11.274865 -4.909816,10.227784 -4.6828459,9.3478845 z "
         id="path19055"
         style="fill:url(#XMLID_937_)" />
      <path
         i:knockout="Off"
         d="M 3.2401732,9.4710705 L 2.9526043,9.4853689 L 2.964724,9.4853689 L -3.4995164,9.4853689 C -4.01075,9.4853689 -4.1771213,9.5161654 -4.2289057,9.5436622 C -4.265265,9.7504387 -4.2784866,9.9946108 -4.2784866,10.257481 C -4.2784866,10.587443 -4.2575525,10.943803 -4.2377201,11.295763 L -4.2035644,12.19876 L -4.2123788,12.477028 C -4.216786,12.54962 -4.222295,12.646409 -4.222295,12.740998 C -4.222295,12.89608 -4.2079716,13.043463 -4.1528818,13.07426 C -4.1473728,13.052262 -3.1777918,13.063261 -3.1777918,13.063261 L -2.7502948,13.054462 L 2.8920055,13.054462 L 3.1332989,13.057762 C 3.1332989,13.057762 3.5850355,13.035764 3.5982571,13.034664 C 3.5894427,13.033564 3.5872391,13.014867 3.5872391,12.98737 C 3.5872391,12.926877 3.5982571,12.832287 3.5982571,12.832287 L 3.5982571,10.784321 L 3.620293,10.393865 C 3.6291074,10.26848 3.6467361,10.029807 3.6467361,9.8131315 C 3.6467361,9.6437508 3.6324127,9.4952677 3.5982571,9.422676 C 3.5817301,9.4688708 3.2401732,9.4710705 3.2401732,9.4710705 z "
         id="path19057"
         style="fill:#b9bfc2" />
      <path
         i:knockout="Off"
         d="M 5.8977065,9.3478845 C 5.981443,9.0168223 6.3152874,8.9618285 7.0788324,8.9618285 C 7.9547607,8.9618285 11.187432,8.9618285 12.064462,8.9618285 C 12.556965,8.9618285 13.05057,8.9618285 13.544175,8.9618285 C 13.814115,8.9618285 14.309923,8.870539 14.524774,9.0256213 C 14.888366,9.2917909 14.701061,10.375167 14.701061,10.786521 C 14.701061,11.468443 14.699959,12.151465 14.701061,12.834487 C 14.702163,13.695689 14.189827,13.578002 13.470354,13.578002 C 12.015983,13.578002 9.2824255,13.578002 7.8280541,13.578002 C 7.3917426,13.578002 6.3791916,13.640695 6.1852754,13.541707 C 5.7137065,13.296434 5.8536346,12.638709 5.8536346,12.199859 C 5.8536346,11.274865 5.6696346,10.227784 5.8977065,9.3478845 z "
         id="path19064"
         style="fill:url(#XMLID_938_)" />
      <path
         i:knockout="Off"
         d="M 13.818522,9.4710705 L 13.532055,9.4853689 L 13.544175,9.4853689 L 7.0788324,9.4853689 C 6.5687006,9.4853689 6.4012275,9.5161654 6.3494431,9.5436622 C 6.3130838,9.7504387 6.2998622,9.993511 6.2998622,10.254181 C 6.2998622,10.585244 6.3207964,10.943803 6.3406287,11.295763 L 6.3758862,12.19876 L 6.36597,12.478128 C 6.3615628,12.550719 6.3571557,12.647508 6.3571557,12.743198 C 6.3571557,12.89828 6.371479,13.043463 6.4265688,13.07426 C 6.4320778,13.052262 7.400557,13.063261 7.400557,13.063261 L 7.8280541,13.054462 L 13.470354,13.054462 L 13.711648,13.057762 C 13.711648,13.057762 14.165588,13.034664 14.177708,13.034664 C 14.169995,13.032465 14.167792,13.013767 14.167792,12.98517 C 14.167792,12.924677 14.178809,12.834487 14.178809,12.834487 C 14.178809,12.832287 14.178809,10.784321 14.178809,10.784321 L 14.198642,10.394965 C 14.208558,10.270679 14.226187,10.030907 14.226187,9.8153313 C 14.226187,9.6448507 14.211863,9.4952677 14.176606,9.422676 C 14.161181,9.4688708 13.818522,9.4710705 13.818522,9.4710705 z "
         id="path19066"
         style="fill:#b9bfc2" />
      <path
         i:knockout="Off"
         d="M 0.43610091,15.755754 C 0.52204104,15.424692 0.8558854,15.368598 1.6183286,15.368598 C 2.4942569,15.368598 5.726928,15.368598 6.6028563,15.368598 C 7.0964611,15.368598 7.590066,15.368598 8.0836709,15.368598 C 8.3547128,15.368598 8.8494195,15.276209 9.063168,15.432391 C 9.4289645,15.697461 9.2405573,16.780837 9.2405573,17.19329 C 9.2405573,17.875213 9.2394555,18.557135 9.2405573,19.240157 C 9.2416591,20.102459 8.7304255,19.983672 8.0109523,19.983672 C 6.555479,19.983672 3.8230236,19.983672 2.3686521,19.983672 C 1.9301371,19.983672 0.9197896,20.046365 0.72477161,19.947376 C 0.25320268,19.702104 0.39313084,19.043279 0.39313084,18.606629 C 0.39313084,17.680535 0.20913082,16.633454 0.43610091,15.755754 z "
         id="path19073"
         style="fill:url(#XMLID_939_)" />
      <path
         i:knockout="Off"
         d="M 8.35912,15.87784 L 8.0836709,15.891039 L 1.6183286,15.891039 C 1.107095,15.891039 0.93962194,15.922935 0.8900411,15.951532 C 0.85258001,16.158308 0.83825666,16.400281 0.83825666,16.662051 C 0.83825666,16.990913 0.86029259,17.350572 0.88122672,17.703632 L 0.91538242,18.605529 L 0.90546625,18.883798 C 0.90216086,18.957489 0.89665187,19.054278 0.89665187,19.148867 C 0.89665187,19.30395 0.91097523,19.449133 0.96496326,19.47993 C 0.97157404,19.459032 1.9400532,19.468931 1.9400532,19.468931 L 2.3686521,19.460132 L 8.0109523,19.460132 L 8.2522457,19.463432 C 8.2522457,19.463432 8.7061859,19.441434 8.7172039,19.440334 C 8.7105931,19.438134 8.7072877,19.418337 8.7072877,19.38864 C 8.7072877,19.328147 8.7172039,19.242357 8.7172039,19.242357 C 8.7172039,19.239057 8.7172039,17.191091 8.7172039,17.191091 L 8.7392398,16.800635 C 8.7480542,16.676349 8.7656829,16.436577 8.7656829,16.221001 C 8.7656829,16.050521 8.7513596,15.902037 8.7172039,15.829446 C 8.7017787,15.875641 8.35912,15.87784 8.35912,15.87784 z "
         id="path19075"
         style="fill:#b9bfc2" />
      <path
         i:knockout="Off"
         d="M -6.3663911,15.368598 C -5.3395167,15.368598 -4.3137441,15.368598 -3.875229,15.368598 C -3.3816242,15.368598 -2.8880193,15.368598 -2.3944145,15.368598 C -2.1244743,15.368598 -1.6286659,15.276209 -1.4138155,15.431291 C -1.0502227,15.697461 -1.2375281,16.780837 -1.2375281,17.19219 C -1.2375281,17.874113 -1.2397317,18.557135 -1.2375281,19.240157 C -1.2375281,20.101359 -1.7476599,19.983672 -2.4682348,19.983672 C -3.447732,19.983672 -5.0078759,19.983672 -6.3652893,19.983672 L -6.3652893,15.368598 L -6.3663911,15.368598 z "
         id="path19082"
         style="fill:url(#XMLID_940_)" />
      <path
         i:knockout="Off"
         d="M -2.1200671,15.87784 L -2.3955163,15.891039 C -2.3966181,15.891039 -5.1907741,15.891039 -5.8441395,15.891039 C -5.8441395,16.608157 -5.8441395,18.744114 -5.8441395,19.461232 C -5.0596604,19.461232 -2.4693366,19.461232 -2.4693366,19.461232 L -2.2280432,19.464531 C -2.2280432,19.464531 -1.774103,19.442534 -1.7619832,19.441434 C -1.7696958,19.439234 -1.7718994,19.419437 -1.7718994,19.39194 C -1.7718994,19.331447 -1.7608814,19.241257 -1.7608814,19.241257 L -1.7608814,17.191091 C -1.7608814,17.189991 -1.7399473,16.801735 -1.7399473,16.801735 C -1.7300311,16.675249 -1.7135042,16.436577 -1.7135042,16.222101 C -1.7135042,16.050521 -1.7278275,15.903137 -1.763085,15.829446 C -1.7785102,15.875641 -2.1200671,15.87784 -2.1200671,15.87784 z "
         id="path19084"
         style="fill:#b9bfc2" />
      <path
         i:knockout="Off"
         d="M 16.467241,19.985872 C 15.180343,19.985872 13.768941,19.985872 12.858857,19.985872 C 12.422546,19.985872 11.409995,20.048565 11.21718,19.947376 C 10.743408,19.702104 10.884438,19.044379 10.884438,18.607729 C 10.884438,17.681635 10.70154,16.634554 10.927408,15.755754 C 11.012246,15.424692 11.34609,15.368598 12.109636,15.368598 C 12.836821,15.368598 15.186953,15.368598 16.467241,15.368598 L 16.467241,19.985872 L 16.467241,19.985872 z "
         id="path19091"
         style="fill:url(#XMLID_941_)" />
      <path
         i:knockout="Off"
         d="M 12.109636,15.892139 C 11.599504,15.892139 11.432031,15.924035 11.380246,15.951532 C 11.343887,16.158308 11.330665,16.399181 11.330665,16.660951 C 11.330665,16.992013 11.352701,17.350572 11.371432,17.703632 L 11.407791,18.607729 L 11.396773,18.885997 C 11.392366,18.958589 11.387959,19.055378 11.387959,19.151067 C 11.387959,19.30505 11.402282,19.451333 11.457372,19.48103 C 11.462881,19.461232 12.430258,19.470031 12.430258,19.470031 L 12.858857,19.462332 C 12.858857,19.462332 15.178139,19.462332 15.944989,19.462332 C 15.944989,18.746313 15.943888,16.608157 15.943888,15.892139 C 15.132965,15.892139 12.109636,15.892139 12.109636,15.892139 z "
         id="path19093"
         style="fill:#b9bfc2" />
      <path
         i:knockout="Off"
         d="M -4.6828459,22.161424 C -4.5969058,21.830362 -4.2641632,21.774268 -3.5006182,21.774268 C -2.6246899,21.774268 0.60908297,21.774268 1.4839094,21.774268 C 1.9775143,21.774268 2.4711192,21.774268 2.9636222,21.774268 C 3.2346642,21.774268 3.7293708,21.682979 3.945323,21.839161 C 4.3089158,22.104231 4.1205086,23.188707 4.1205086,23.59896 C 4.1205086,24.281982 4.1194068,24.963905 4.1205086,25.646927 C 4.1216104,26.509228 3.6114786,26.391542 2.8909037,26.391542 C 1.4365322,26.391542 -1.2970251,26.391542 -2.7513966,26.391542 C -3.187708,26.391542 -4.200259,26.454235 -4.3941752,26.354146 C -4.866846,26.109974 -4.7269178,25.451149 -4.7269178,25.012299 C -4.7269178,24.087305 -4.909816,23.040224 -4.6828459,22.161424 z "
         id="path19100"
         style="fill:url(#XMLID_942_)" />
      <path
         i:knockout="Off"
         d="M 3.2379696,22.28461 L 2.9526043,22.298908 L 2.964724,22.297808 L -3.4995164,22.297808 C -4.0096482,22.297808 -4.1771213,22.329705 -4.2289057,22.358302 C -4.265265,22.565078 -4.2784866,22.80925 -4.2784866,23.07322 C -4.2784866,23.402083 -4.2575525,23.758442 -4.2377201,24.109302 L -4.2035644,25.012299 L -4.2123788,25.290567 C -4.216786,25.364259 -4.222295,25.461048 -4.222295,25.555637 C -4.222295,25.710719 -4.2079716,25.858103 -4.1539836,25.888899 C -4.1473728,25.866902 -3.1777918,25.8779 -3.1777918,25.8779 L -2.7502948,25.869101 L 2.8920055,25.869101 L 3.1355025,25.871301 C 3.1355025,25.871301 3.5850355,25.850404 3.5982571,25.849304 C 3.5905445,25.848204 3.5872391,25.828406 3.5872391,25.800909 C 3.5872391,25.739316 3.5982571,25.646927 3.5982571,25.646927 L 3.5982571,23.59786 L 3.620293,23.207405 C 3.6291074,23.083119 3.6478379,22.842246 3.6478379,22.627771 C 3.6478379,22.45839 3.6324127,22.309907 3.5982571,22.237315 C 3.5817301,22.28241 3.2379696,22.28461 3.2379696,22.28461 z "
         id="path19102"
         style="fill:#b9bfc2" />
      <path
         i:knockout="Off"
         d="M 5.8977065,22.161424 C 5.981443,21.830362 6.3152874,21.774268 7.0788324,21.774268 C 7.9547607,21.774268 11.187432,21.774268 12.064462,21.774268 C 12.556965,21.774268 13.05057,21.774268 13.544175,21.774268 C 13.814115,21.774268 14.309923,21.682979 14.524774,21.839161 C 14.888366,22.104231 14.701061,23.188707 14.701061,23.59896 C 14.701061,24.281982 14.699959,24.963905 14.701061,25.646927 C 14.702163,26.509228 14.189827,26.391542 13.470354,26.391542 C 12.015983,26.391542 9.2824255,26.391542 7.8280541,26.391542 C 7.3917426,26.391542 6.3791916,26.454235 6.1852754,26.354146 C 5.7137065,26.109974 5.8536346,25.451149 5.8536346,25.012299 C 5.8536346,24.087305 5.6696346,23.040224 5.8977065,22.161424 z "
         id="path19109"
         style="fill:url(#XMLID_943_)" />
      <path
         i:knockout="Off"
         d="M 13.816318,22.28461 L 13.532055,22.298908 L 13.544175,22.297808 L 7.0788324,22.297808 C 6.5687006,22.297808 6.4012275,22.329705 6.3494431,22.358302 C 6.3130838,22.565078 6.2998622,22.80925 6.2998622,23.07102 C 6.2998622,23.399883 6.3207964,23.758442 6.3406287,24.110402 L 6.3758862,25.012299 L 6.36597,25.291667 C 6.3615628,25.364259 6.3571557,25.461048 6.3571557,25.556737 C 6.3571557,25.711819 6.371479,25.858103 6.425467,25.888899 C 6.4320778,25.866902 7.400557,25.8779 7.400557,25.8779 L 7.8280541,25.869101 L 13.470354,25.869101 L 13.714953,25.871301 C 13.714953,25.871301 14.165588,25.850404 14.176606,25.849304 C 14.169995,25.848204 14.165588,25.829506 14.165588,25.802009 C 14.165588,25.741516 14.178809,25.646927 14.178809,25.646927 L 14.178809,23.59786 L 14.198642,23.208505 C 14.208558,23.084219 14.226187,22.844446 14.226187,22.629971 C 14.226187,22.45839 14.211863,22.309907 14.176606,22.237315 C 14.162283,22.28241 13.816318,22.28461 13.816318,22.28461 z "
         id="path19111"
         style="fill:#b9bfc2" />
      <path
         i:knockout="Off"
         d="M 0.43610091,28.568194 C 0.52204104,28.237132 0.8558854,28.181038 1.6183286,28.181038 C 2.4942569,28.181038 5.726928,28.181038 6.6028563,28.181038 C 7.0964611,28.181038 7.590066,28.181038 8.0836709,28.181038 C 8.3547128,28.181038 8.8494195,28.089748 9.063168,28.244831 C 9.4289645,28.511 9.2405573,29.594377 9.2405573,30.00683 C 9.2405573,30.687652 9.2394555,31.370674 9.2405573,32.053697 C 9.2416591,32.914898 8.7304255,32.797212 8.0109523,32.797212 C 6.555479,32.797212 3.8230236,32.797212 2.3686521,32.797212 C 1.9301371,32.797212 0.9197896,32.859905 0.72477161,32.760916 C 0.25320268,32.515644 0.39313084,31.856819 0.39313084,31.420169 C 0.39313084,30.494074 0.20913082,29.445894 0.43610091,28.568194 z "
         id="path19118"
         style="fill:url(#XMLID_944_)" />
      <path
         i:knockout="Off"
         d="M 8.3580182,28.69138 L 8.0715511,28.705678 L 8.0836709,28.705678 L 1.6183286,28.705678 C 1.1081968,28.705678 0.94072374,28.736475 0.8900411,28.763971 C 0.85258001,28.971848 0.83825666,29.21492 0.83825666,29.47669 C 0.83825666,29.806653 0.86029259,30.165212 0.88122672,30.518272 L 0.91538242,31.420169 L 0.90546625,31.697337 C 0.90216086,31.769929 0.89665187,31.867818 0.89665187,31.962407 C 0.89665187,32.117489 0.91097523,32.263773 0.96606506,32.294569 C 0.97157404,32.273671 1.9378496,32.28357 1.9378496,32.28357 L 2.3686521,32.274771 L 8.0109523,32.274771 L 8.2544493,32.276971 C 8.2544493,32.276971 8.7039823,32.256073 8.7161021,32.254974 C 8.7083895,32.253874 8.7061859,32.235176 8.7061859,32.208779 C 8.7061859,32.147186 8.7172039,32.052597 8.7172039,32.052597 L 8.7172039,30.00573 L 8.7392398,29.615274 C 8.7480542,29.490989 8.7656829,29.250116 8.7656829,29.035641 C 8.7656829,28.86406 8.7513596,28.715577 8.7172039,28.642985 C 8.7017787,28.68918 8.3580182,28.69138 8.3580182,28.69138 z "
         id="path19120"
         style="fill:#b9bfc2" />
      <path
         i:knockout="Off"
         d="M -6.3663911,28.181038 C -5.3395167,28.181038 -4.3137441,28.181038 -3.875229,28.181038 C -3.3816242,28.181038 -2.8880193,28.181038 -2.3944145,28.181038 C -2.1244743,28.181038 -1.6286659,28.089748 -1.4138155,28.245931 C -1.0502227,28.5121 -1.2375281,29.595477 -1.2375281,30.00683 C -1.2375281,30.688752 -1.2397317,31.371774 -1.2375281,32.054796 C -1.2375281,32.915998 -1.7476599,32.798312 -2.4682348,32.798312 C -3.447732,32.798312 -5.0078759,32.798312 -6.3652893,32.798312 L -6.3652893,28.181038 L -6.3663911,28.181038 z "
         id="path19127"
         style="fill:url(#XMLID_945_)" />
      <path
         i:knockout="Off"
         d="M -2.1211689,28.69028 L -2.407636,28.705678 L -2.3955163,28.704578 C -2.3955163,28.704578 -5.1907741,28.704578 -5.8441395,28.704578 C -5.8441395,29.420597 -5.8441395,31.558753 -5.8441395,32.275871 C -5.0596604,32.275871 -2.4693366,32.275871 -2.4693366,32.275871 L -2.2247378,32.278071 C -2.2247378,32.278071 -1.7763066,32.257173 -1.763085,32.256073 C -1.7696958,32.253874 -1.774103,32.236276 -1.774103,32.208779 C -1.774103,32.148286 -1.7608814,32.053697 -1.7608814,32.053697 L -1.7608814,30.00573 L -1.7399473,29.616374 C -1.7300311,29.489889 -1.7135042,29.251216 -1.7135042,29.034541 C -1.7135042,28.86516 -1.7278275,28.716677 -1.763085,28.644085 C -1.7785102,28.68808 -2.1211689,28.69028 -2.1211689,28.69028 z "
         id="path19129"
         style="fill:#b9bfc2" />
      <path
         i:knockout="Off"
         d="M 16.467241,32.798312 C 15.180343,32.798312 13.768941,32.798312 12.858857,32.798312 C 12.422546,32.798312 11.409995,32.862104 11.21718,32.760916 C 10.743408,32.515644 10.884438,31.856819 10.884438,31.420169 C 10.884438,30.495174 10.70154,29.446994 10.927408,28.569294 C 11.012246,28.238231 11.34609,28.182138 12.109636,28.182138 C 12.836821,28.182138 15.186953,28.182138 16.467241,28.182138 L 16.467241,32.798312 L 16.467241,32.798312 z "
         id="path19136"
         style="fill:url(#XMLID_946_)" />
      <path
         i:knockout="Off"
         d="M 12.109636,28.704578 C 11.599504,28.704578 11.432031,28.736475 11.380246,28.763971 C 11.343887,28.970748 11.330665,29.21382 11.330665,29.47449 C 11.330665,29.805553 11.352701,30.164112 11.371432,30.517172 L 11.407791,31.420169 L 11.396773,31.699537 C 11.392366,31.772129 11.387959,31.868918 11.387959,31.963507 C 11.387959,32.118589 11.402282,32.264872 11.457372,32.295669 C 11.463983,32.274771 12.428055,32.28357 12.428055,32.28357 L 12.858857,32.274771 C 12.858857,32.274771 15.178139,32.274771 15.944989,32.274771 C 15.944989,31.558753 15.943888,29.421697 15.943888,28.704578 C 15.132965,28.704578 12.109636,28.704578 12.109636,28.704578 z "
         id="path19138"
         style="fill:#b9bfc2" />
      <path
         i:knockout="Off"
         d="M -4.6828459,34.976063 C -4.5969058,34.645001 -4.2641632,34.588908 -3.5006182,34.588908 C -2.6246899,34.588908 0.60908297,34.588908 1.4839094,34.588908 C 1.9775143,34.588908 2.4711192,34.588908 2.9636222,34.588908 C 3.2346642,34.588908 3.7293708,34.496518 3.945323,34.6538 C 4.3089158,34.91777 4.1205086,36.001147 4.1205086,36.4136 C 4.1205086,37.096622 4.1194068,37.777444 4.1205086,38.460466 C 4.1216104,39.323868 3.6114786,39.206181 2.8909037,39.206181 C 1.4365322,39.206181 -1.2970251,39.206181 -2.7513966,39.206181 C -3.187708,39.206181 -4.200259,39.267774 -4.3941752,39.167686 C -4.866846,38.923513 -4.7269178,38.265788 -4.7269178,37.826938 C -4.7269178,36.900844 -4.909816,35.853763 -4.6828459,34.976063 z "
         id="path19145"
         style="fill:url(#XMLID_947_)" />
      <path
         i:knockout="Off"
         d="M 3.2390714,35.098149 L 2.964724,35.111348 L -3.4995164,35.111348 C -4.0096482,35.111348 -4.1771213,35.143244 -4.2289057,35.171841 C -4.265265,35.378618 -4.2784866,35.62279 -4.2784866,35.88566 C -4.2784866,36.214522 -4.2575525,36.571982 -4.2377201,36.922842 L -4.2035644,37.825839 L -4.2123788,38.104107 C -4.216786,38.176699 -4.222295,38.274587 -4.222295,38.369177 C -4.222295,38.524259 -4.2079716,38.670542 -4.1539836,38.700239 C -4.1473728,38.680441 -3.1788936,38.69034 -3.1788936,38.69034 L -2.7502948,38.682641 L 2.8920055,38.682641 L 3.1355025,38.684841 C 3.1355025,38.684841 3.5850355,38.662843 3.5982571,38.662843 C 3.5905445,38.660643 3.5872391,38.640846 3.5872391,38.613349 C 3.5872391,38.552856 3.5982571,38.460466 3.5982571,38.460466 L 3.5982571,36.4114 L 3.620293,36.020944 C 3.6291074,35.895559 3.6467361,35.655786 3.6467361,35.440211 C 3.6467361,35.27083 3.6324127,35.122347 3.5982571,35.050855 C 3.5817301,35.09595 3.2390714,35.098149 3.2390714,35.098149 z "
         id="path19147"
         style="fill:#b9bfc2" />
      <path
         i:knockout="Off"
         d="M 5.8977065,34.976063 C 5.981443,34.645001 6.3152874,34.588908 7.0788324,34.588908 C 7.9547607,34.588908 11.187432,34.588908 12.064462,34.588908 C 12.556965,34.588908 13.05057,34.588908 13.544175,34.588908 C 13.814115,34.588908 14.309923,34.496518 14.524774,34.6538 C 14.888366,34.91777 14.701061,36.001147 14.701061,36.4136 C 14.701061,37.096622 14.699959,37.777444 14.701061,38.460466 C 14.702163,39.323868 14.189827,39.206181 13.470354,39.206181 C 12.015983,39.206181 9.2824255,39.206181 7.8280541,39.206181 C 7.3917426,39.206181 6.3791916,39.267774 6.1852754,39.167686 C 5.7137065,38.923513 5.8536346,38.265788 5.8536346,37.826938 C 5.8536346,36.900844 5.6696346,35.853763 5.8977065,34.976063 z "
         id="path19154"
         style="fill:url(#XMLID_948_)" />
      <path
         i:knockout="Off"
         d="M 13.81742,35.098149 L 13.544175,35.111348 L 7.0788324,35.111348 C 6.5687006,35.111348 6.4012275,35.143244 6.3494431,35.171841 C 6.3130838,35.378618 6.2998622,35.62169 6.2998622,35.88346 C 6.2998622,36.213422 6.3207964,36.571982 6.3406287,36.922842 L 6.3758862,37.825839 L 6.36597,38.105207 C 6.3615628,38.177798 6.3571557,38.274587 6.3571557,38.370277 C 6.3571557,38.524259 6.371479,38.670542 6.425467,38.700239 C 6.430976,38.680441 7.3994552,38.69034 7.3994552,38.69034 L 7.8280541,38.682641 L 13.470354,38.682641 L 13.714953,38.684841 C 13.714953,38.684841 14.165588,38.662843 14.176606,38.662843 C 14.169995,38.660643 14.165588,38.641946 14.165588,38.615549 C 14.165588,38.553956 14.178809,38.459366 14.178809,38.459366 L 14.178809,36.4114 L 14.198642,36.020944 C 14.208558,35.896658 14.226187,35.657986 14.226187,35.44351 C 14.226187,35.27193 14.211863,35.123447 14.176606,35.050855 C 14.162283,35.09595 13.81742,35.098149 13.81742,35.098149 z "
         id="path19156"
         style="fill:#b9bfc2" />
      <path
         i:knockout="Off"
         d="M 0.43610091,41.381733 C 0.52204104,41.051771 0.8558854,40.994577 1.6183286,40.994577 C 2.4942569,40.994577 5.726928,40.994577 6.6028563,40.994577 C 7.0964611,40.994577 7.590066,40.994577 8.0836709,40.994577 C 8.3547128,40.994577 8.8494195,40.903288 9.063168,41.05947 C 9.4289645,41.32564 9.2405573,42.409016 9.2405573,42.820369 C 9.2405573,43.502292 9.2394555,44.185314 9.2405573,44.867236 C 9.2416591,45.729538 8.7304255,45.611851 8.0109523,45.611851 C 6.555479,45.611851 3.8230236,45.611851 2.3686521,45.611851 C 1.9301371,45.611851 0.9197896,45.674544 0.72477161,45.573356 C 0.25320268,45.328083 0.39313084,44.671458 0.39313084,44.233708 C 0.39313084,43.308714 0.20913082,42.260533 0.43610091,41.381733 z "
         id="path19163"
         style="fill:url(#XMLID_949_)" />
      <path
         i:knockout="Off"
         d="M 8.3580182,41.503819 L 8.0715511,41.519218 L 8.0836709,41.518118 L 1.6183286,41.518118 C 1.1081968,41.518118 0.94072374,41.548914 0.8900411,41.577511 C 0.85258001,41.784287 0.83825666,42.02736 0.83825666,42.28803 C 0.83825666,42.619092 0.86029259,42.977651 0.88122672,43.329611 L 0.91538242,44.232608 L 0.90546625,44.510877 C 0.90216086,44.583468 0.89665187,44.680257 0.89665187,44.774847 C 0.89665187,44.929929 0.91097523,45.077312 0.96606506,45.108109 C 0.97157404,45.086111 1.9378496,45.09711 1.9378496,45.09711 L 2.3686521,45.088311 L 8.0109523,45.088311 L 8.2522457,45.090511 C 8.2522457,45.090511 8.7061859,45.068513 8.7172039,45.068513 C 8.7105931,45.066313 8.7072877,45.045416 8.7072877,45.016819 C 8.7072877,44.956326 8.7172039,44.868336 8.7172039,44.868336 C 8.7172039,44.866136 8.7172039,42.81817 8.7172039,42.81817 L 8.7392398,42.427714 C 8.7480542,42.303428 8.7656829,42.063656 8.7656829,41.84808 C 8.7656829,41.6776 8.7513596,41.529116 8.7172039,41.456525 C 8.7017787,41.50162 8.3580182,41.503819 8.3580182,41.503819 z "
         id="path19165"
         style="fill:#b9bfc2" />
      <path
         i:knockout="Off"
         d="M -6.3663911,40.994577 C -5.3395167,40.994577 -4.3137441,40.994577 -3.875229,40.994577 C -3.3816242,40.994577 -2.8880193,40.994577 -2.3944145,40.994577 C -2.1244743,40.994577 -1.6286659,40.902188 -1.4138155,41.05947 C -1.0502227,41.32454 -1.2375281,42.409016 -1.2375281,42.819269 C -1.2375281,43.502292 -1.2397317,44.185314 -1.2375281,44.867236 C -1.2375281,45.729538 -1.7476599,45.611851 -2.4682348,45.611851 C -3.447732,45.611851 -5.0078759,45.611851 -6.3652893,45.611851 L -6.3652893,40.994577 L -6.3663911,40.994577 z "
         id="path19172"
         style="fill:url(#XMLID_950_)" />
      <path
         i:knockout="Off"
         d="M -2.1211689,41.503819 L -2.407636,41.518118 L -2.3955163,41.517018 C -2.3955163,41.517018 -5.1907741,41.517018 -5.8441395,41.517018 C -5.8441395,42.234136 -5.8441395,44.372292 -5.8441395,45.088311 C -5.0596604,45.088311 -2.4693366,45.088311 -2.4693366,45.088311 L -2.2280432,45.09161 C -2.2280432,45.09161 -1.774103,45.069613 -1.7619832,45.068513 C -1.7696958,45.066313 -1.7718994,45.046516 -1.7718994,45.017919 C -1.7718994,44.958526 -1.7608814,44.868336 -1.7608814,44.868336 C -1.7608814,44.867236 -1.7608814,42.81817 -1.7608814,42.81817 L -1.7399473,42.428814 C -1.7300311,42.303428 -1.7135042,42.063656 -1.7135042,41.84808 C -1.7135042,41.678699 -1.7278275,41.530216 -1.763085,41.456525 C -1.7785102,41.50162 -2.1211689,41.503819 -2.1211689,41.503819 z "
         id="path19174"
         style="fill:#b9bfc2" />
      <path
         i:knockout="Off"
         d="M 16.467241,45.611851 C 15.180343,45.611851 13.768941,45.611851 12.858857,45.611851 C 12.422546,45.611851 11.409995,45.676744 11.21718,45.574455 C 10.743408,45.329183 10.884438,44.671458 10.884438,44.234808 C 10.884438,43.308714 10.70154,42.260533 10.927408,41.381733 C 11.012246,41.052871 11.34609,40.995677 12.109636,40.995677 C 12.836821,40.995677 15.186953,40.995677 16.467241,40.995677 L 16.467241,45.611851 L 16.467241,45.611851 z "
         id="path19181"
         style="fill:url(#XMLID_951_)" />
      <path
         i:knockout="Off"
         d="M 12.109636,41.519218 C 11.599504,41.519218 11.432031,41.551114 11.380246,41.578611 C 11.343887,41.784287 11.330665,42.02626 11.330665,42.28913 C 11.330665,42.617992 11.352701,42.978751 11.371432,43.330711 L 11.407791,44.234808 L 11.396773,44.513076 C 11.392366,44.585668 11.387959,44.683557 11.387959,44.778146 C 11.387959,44.932129 11.402282,45.078412 11.457372,45.109208 C 11.462881,45.088311 12.428055,45.09821 12.428055,45.09821 L 12.858857,45.089411 C 12.858857,45.089411 15.178139,45.089411 15.944989,45.089411 C 15.944989,44.372292 15.943888,42.235236 15.943888,41.519218 C 15.132965,41.519218 12.109636,41.519218 12.109636,41.519218 z "
         id="path19183"
         style="fill:#b9bfc2" />
      <rect
         x="-6.5030146"
         y="6.3331075"
         i:knockout="Off"
         width="23.119007"
         height="41.408092"
         id="rect19185"
         style="fill:none;stroke:#7e858c;stroke-width:1.00000036" />
      <rect
         x="-7.7568603"
         y="0.54453182"
         i:knockout="Off"
         width="25.625593"
         height="5.7886419"
         id="rect19187"
         style="fill:white;stroke:#7e858c;stroke-width:1.00000036" />
    </g>
  </g>
</svg>
