<?xml version="1.0" encoding="UTF-8" standalone="no"?>
<!-- Created with Inkscape (http://www.inkscape.org/) -->

<svg
   xmlns:i="http://ns.adobe.com/AdobeIllustrator/10.0/"
   xmlns:dc="http://purl.org/dc/elements/1.1/"
   xmlns:cc="http://creativecommons.org/ns#"
   xmlns:rdf="http://www.w3.org/1999/02/22-rdf-syntax-ns#"
   xmlns:svg="http://www.w3.org/2000/svg"
   xmlns="http://www.w3.org/2000/svg"
   xmlns:xlink="http://www.w3.org/1999/xlink"
   xmlns:sodipodi="http://sodipodi.sourceforge.net/DTD/sodipodi-0.dtd"
   xmlns:inkscape="http://www.inkscape.org/namespaces/inkscape"
   width="48px"
   height="48px"
   id="svg2985"
   version="1.1"
   inkscape:version="0.48.5 r10040"
   sodipodi:docname="gamepad.svg">
  <defs
     id="defs2987">
    <linearGradient
       id="linearGradient15740">
      <stop
         id="stop15742"
         offset="0"
         style="stop-color:#a5a5a5;stop-opacity:1;" />
      <stop
         id="stop15744"
         offset="1"
         style="stop-color:#1e1e1e;stop-opacity:1;" />
    </linearGradient>
    <linearGradient
       inkscape:collect="always"
       id="linearGradient15720">
      <stop
         style="stop-color:#000000;stop-opacity:1;"
         offset="0"
         id="stop15722" />
      <stop
         style="stop-color:#000000;stop-opacity:0;"
         offset="1"
         id="stop15724" />
    </linearGradient>
    <linearGradient
       id="linearGradient15686">
      <stop
         style="stop-color:#a1a39f;stop-opacity:1;"
         offset="0"
         id="stop15688" />
      <stop
         style="stop-color:#3e3f3d;stop-opacity:1;"
         offset="1"
         id="stop15690" />
    </linearGradient>
    <linearGradient
       id="linearGradient15678">
      <stop
         style="stop-color:#ffffff;stop-opacity:1;"
         offset="0"
         id="stop15680" />
      <stop
         style="stop-color:#dadada;stop-opacity:1;"
         offset="1"
         id="stop15682" />
    </linearGradient>
    <linearGradient
       id="linearGradient4007">
      <stop
         style="stop-color:#ff8a2c;stop-opacity:1;"
         offset="0"
         id="stop4009" />
      <stop
         style="stop-color:#984400;stop-opacity:1;"
         offset="1"
         id="stop4011" />
    </linearGradient>
    <linearGradient
       id="linearGradient3997">
      <stop
         style="stop-color:#939393;stop-opacity:1;"
         offset="0"
         id="stop3999" />
      <stop
         style="stop-color:#ffffff;stop-opacity:1;"
         offset="1"
         id="stop4001" />
    </linearGradient>
    <linearGradient
       id="linearGradient3989">
      <stop
         style="stop-color:#fee3bb;stop-opacity:1;"
         offset="0"
         id="stop3991" />
      <stop
         style="stop-color:#fcaf3e;stop-opacity:1;"
         offset="1"
         id="stop3993" />
    </linearGradient>
    <linearGradient
       id="linearGradient3975">
      <stop
         style="stop-color:#888a85;stop-opacity:0;"
         offset="0"
         id="stop3977" />
      <stop
         style="stop-color:#000000;stop-opacity:0.11711711;"
         offset="1"
         id="stop3979" />
    </linearGradient>
    <linearGradient
       inkscape:collect="always"
       id="linearGradient3940">
      <stop
         style="stop-color:#000000;stop-opacity:1;"
         offset="0"
         id="stop3942" />
      <stop
         style="stop-color:#000000;stop-opacity:0;"
         offset="1"
         id="stop3944" />
    </linearGradient>
    <linearGradient
       id="linearGradient3886">
      <stop
         style="stop-color:#f4f4f4;stop-opacity:1;"
         offset="0"
         id="stop3888" />
      <stop
         id="stop3894"
         offset="0.7361111"
         style="stop-color:#e8e8e8;stop-opacity:1;" />
      <stop
         style="stop-color:#d1d1d1;stop-opacity:1;"
         offset="1"
         id="stop3890" />
    </linearGradient>
    <linearGradient
       inkscape:collect="always"
       id="linearGradient3844">
      <stop
         style="stop-color:#d3d7cf;stop-opacity:1;"
         offset="0"
         id="stop3846" />
      <stop
         style="stop-color:#d3d7cf;stop-opacity:0;"
         offset="1"
         id="stop3848" />
    </linearGradient>
    <linearGradient
       id="linearGradient3812">
      <stop
         style="stop-color:#838383;stop-opacity:1;"
         offset="0"
         id="stop3814" />
      <stop
         style="stop-color:#000000;stop-opacity:1;"
         offset="1"
         id="stop3816" />
    </linearGradient>
    <linearGradient
       id="linearGradient3793">
      <stop
         style="stop-color:#1c1c1b;stop-opacity:1;"
         offset="0"
         id="stop3795" />
      <stop
         style="stop-color:#888a85;stop-opacity:1;"
         offset="1"
         id="stop3797" />
    </linearGradient>
    <linearGradient
       inkscape:collect="always"
       xlink:href="#linearGradient3812"
       id="linearGradient3868"
       gradientUnits="userSpaceOnUse"
       x1="14.950892"
       y1="18.491072"
       x2="21.700893"
       y2="25.5625" />
    <linearGradient
       inkscape:collect="always"
       xlink:href="#linearGradient3812"
       id="linearGradient3870"
       gradientUnits="userSpaceOnUse"
       x1="20.359829"
       y1="24.116072"
       x2="15.256245"
       y2="19.116072" />
    <radialGradient
       inkscape:collect="always"
       xlink:href="#linearGradient3844"
       id="radialGradient3872"
       gradientUnits="userSpaceOnUse"
       gradientTransform="matrix(1.4919028,-0.0217387,0.02126535,1.4594171,-8.5797203,-9.1280267)"
       cx="16.549109"
       cy="20.651785"
       fx="16.549109"
       fy="20.651785"
       r="3.3410655" />
    <radialGradient
       inkscape:collect="always"
       xlink:href="#linearGradient3886"
       id="radialGradient3892"
       cx="23.994301"
       cy="15.351305"
       fx="23.994301"
       fy="15.351305"
       r="22.862841"
       gradientTransform="matrix(1.3975578,0.00917112,-0.00479358,0.73075136,-9.4123377,6.194928)"
       gradientUnits="userSpaceOnUse" />
    <radialGradient
       inkscape:collect="always"
       xlink:href="#linearGradient3940"
       id="radialGradient3964"
       gradientUnits="userSpaceOnUse"
       cx="18.586807"
       cy="21.432987"
       fx="18.586807"
       fy="21.432987"
       r="3.384011" />
    <radialGradient
       inkscape:collect="always"
       xlink:href="#linearGradient3975"
       id="radialGradient3981"
       cx="23.488838"
       cy="17.299812"
       fx="23.488838"
       fy="17.299812"
       r="22.620722"
       gradientTransform="matrix(1.8204546,-0.00707906,0.00325702,0.83788989,-19.293706,6.0696441)"
       gradientUnits="userSpaceOnUse" />
    <linearGradient
       inkscape:collect="always"
       xlink:href="#linearGradient4007"
       id="linearGradient4019"
       gradientUnits="userSpaceOnUse"
       x1="30.407006"
       y1="14.178572"
       x2="34.450133"
       y2="14.178572" />
    <linearGradient
       inkscape:collect="always"
       xlink:href="#linearGradient3997"
       id="linearGradient4021"
       gradientUnits="userSpaceOnUse"
       x1="30.940474"
       y1="12.467262"
       x2="34.363094"
       y2="15.778275" />
    <radialGradient
       inkscape:collect="always"
       xlink:href="#linearGradient3989"
       id="radialGradient4023"
       gradientUnits="userSpaceOnUse"
       cx="31.663263"
       cy="13.362246"
       fx="31.663263"
       fy="13.362246"
       r="1.7857143" />
    <linearGradient
       inkscape:collect="always"
       xlink:href="#linearGradient4007"
       id="linearGradient4031"
       gradientUnits="userSpaceOnUse"
       x1="30.407006"
       y1="14.178572"
       x2="34.450133"
       y2="14.178572" />
    <linearGradient
       inkscape:collect="always"
       xlink:href="#linearGradient3997"
       id="linearGradient4033"
       gradientUnits="userSpaceOnUse"
       x1="30.940474"
       y1="12.467262"
       x2="34.363094"
       y2="15.778275" />
    <radialGradient
       inkscape:collect="always"
       xlink:href="#linearGradient3989"
       id="radialGradient4035"
       gradientUnits="userSpaceOnUse"
       cx="31.663263"
       cy="13.362246"
       fx="31.663263"
       fy="13.362246"
       r="1.7857143" />
    <linearGradient
       inkscape:collect="always"
       xlink:href="#linearGradient4007"
       id="linearGradient4043"
       gradientUnits="userSpaceOnUse"
       x1="30.407006"
       y1="14.178572"
       x2="34.450133"
       y2="14.178572" />
    <linearGradient
       inkscape:collect="always"
       xlink:href="#linearGradient3997"
       id="linearGradient4045"
       gradientUnits="userSpaceOnUse"
       x1="30.940474"
       y1="12.467262"
       x2="34.363094"
       y2="15.778275" />
    <radialGradient
       inkscape:collect="always"
       xlink:href="#linearGradient3989"
       id="radialGradient4047"
       gradientUnits="userSpaceOnUse"
       cx="31.663263"
       cy="13.362246"
       fx="31.663263"
       fy="13.362246"
       r="1.7857143" />
    <linearGradient
       inkscape:collect="always"
       xlink:href="#linearGradient4007"
       id="linearGradient4055"
       gradientUnits="userSpaceOnUse"
       x1="30.407006"
       y1="14.178572"
       x2="34.450133"
       y2="14.178572" />
    <linearGradient
       inkscape:collect="always"
       xlink:href="#linearGradient3997"
       id="linearGradient4057"
       gradientUnits="userSpaceOnUse"
       x1="30.940474"
       y1="12.467262"
       x2="34.363094"
       y2="15.778275" />
    <radialGradient
       inkscape:collect="always"
       xlink:href="#linearGradient3989"
       id="radialGradient4059"
       gradientUnits="userSpaceOnUse"
       cx="31.663263"
       cy="13.362246"
       fx="31.663263"
       fy="13.362246"
       r="1.7857143" />
    <radialGradient
       inkscape:collect="always"
       xlink:href="#linearGradient3793"
       id="radialGradient4073"
       gradientUnits="userSpaceOnUse"
       gradientTransform="matrix(1.6135775,-0.01704405,0.02100358,1.9884308,-17.888184,-18.434148)"
       cx="28.49868"
       cy="19.141333"
       fx="28.49868"
       fy="19.141333"
       r="3.6699984" />
    <radialGradient
       inkscape:collect="always"
       xlink:href="#linearGradient3793"
       id="radialGradient4075"
       gradientUnits="userSpaceOnUse"
       gradientTransform="matrix(1.6135775,-0.01704405,0.02100358,1.9884308,-17.888184,-18.434148)"
       cx="28.49868"
       cy="19.141333"
       fx="28.49868"
       fy="19.141333"
       r="3.6699984" />
    <radialGradient
       inkscape:collect="always"
       xlink:href="#linearGradient2867"
       id="radialGradient1966"
       gradientUnits="userSpaceOnUse"
       gradientTransform="matrix(1.087178,0,0,1.087178,24.07273,3.3268214)"
       cx="21.483"
       cy="22.169079"
       fx="21.483"
       fy="22.169079"
       r="21.155687" />
    <linearGradient
       id="linearGradient2867">
      <stop
         style="stop-color:#ffae00;stop-opacity:1;"
         offset="0"
         id="stop2869" />
      <stop
         style="stop-color:#ff3600;stop-opacity:1;"
         offset="1"
         id="stop2871" />
    </linearGradient>
    <linearGradient
       inkscape:collect="always"
       xlink:href="#linearGradient15678"
       id="linearGradient15684"
       x1="24.915657"
       y1="7.2243528"
       x2="24.685827"
       y2="46.224354"
       gradientUnits="userSpaceOnUse"
       gradientTransform="matrix(1.0376586,0,0,1.0378526,-0.85039503,-0.16855063)" />
    <linearGradient
       inkscape:collect="always"
       xlink:href="#linearGradient15686"
       id="linearGradient15692"
       x1="22.702888"
       y1="4.6879768"
       x2="21.249998"
       y2="42.509407"
       gradientUnits="userSpaceOnUse"
       gradientTransform="matrix(1.0376586,0,0,1.0378526,-0.85039503,-0.16855063)" />
    <radialGradient
       inkscape:collect="always"
       xlink:href="#linearGradient3940"
       id="radialGradient15710"
       gradientUnits="userSpaceOnUse"
       cx="18.586807"
       cy="21.432987"
       fx="18.586807"
       fy="21.432987"
       r="3.384011" />
    <radialGradient
       inkscape:collect="always"
       xlink:href="#linearGradient3793"
       id="radialGradient15712"
       gradientUnits="userSpaceOnUse"
       gradientTransform="matrix(1.6135775,-0.01704405,0.02100358,1.9884308,-17.888184,-18.434148)"
       cx="28.49868"
       cy="19.141333"
       fx="28.49868"
       fy="19.141333"
       r="3.6699984" />
    <radialGradient
       inkscape:collect="always"
       xlink:href="#linearGradient15720"
       id="radialGradient15726"
       cx="23.75"
       cy="25.785715"
       fx="23.75"
       fy="25.785715"
       r="22.392857"
       gradientTransform="matrix(1,0,0,0.76236045,0,6.1277057)"
       gradientUnits="userSpaceOnUse" />
    <linearGradient
       inkscape:collect="always"
       xlink:href="#linearGradient15740"
       id="linearGradient15733"
       gradientUnits="userSpaceOnUse"
       x1="20.359829"
       y1="24.116072"
       x2="15.256245"
       y2="19.116072"
       gradientTransform="matrix(1.2445099,0.14091425,-0.14088791,1.2447425,-7.3777471,-15.215101)" />
    <radialGradient
       inkscape:collect="always"
       xlink:href="#linearGradient3844"
       id="radialGradient15735"
       gradientUnits="userSpaceOnUse"
       gradientTransform="matrix(1.8597505,0.18317128,-0.17914929,1.8195951,-16.769265,-27.786149)"
       cx="16.549109"
       cy="20.651785"
       fx="16.549109"
       fy="20.651785"
       r="3.3410655" />
    <linearGradient
       inkscape:collect="always"
       xlink:href="#linearGradient3812"
       id="linearGradient15738"
       gradientUnits="userSpaceOnUse"
       x1="14.950892"
       y1="18.491072"
       x2="21.700893"
       y2="25.5625"
       gradientTransform="matrix(1.2445099,0.14091425,-0.14088791,1.2447425,-7.3777471,-15.215101)" />
  </defs>
  <sodipodi:namedview
     id="base"
     pagecolor="#ffffff"
     bordercolor="#666666"
     borderopacity="1.0"
     inkscape:pageopacity="0.0"
     inkscape:pageshadow="2"
     inkscape:zoom="19.79899"
     inkscape:cx="20.335412"
     inkscape:cy="21.173779"
     inkscape:current-layer="layer1"
     showgrid="true"
     inkscape:grid-bbox="true"
     inkscape:document-units="px"
     inkscape:window-width="2560"
     inkscape:window-height="1537"
     inkscape:window-x="-8"
     inkscape:window-y="-8"
     inkscape:window-maximized="1" />
  <metadata
     id="metadata2990">
    <rdf:RDF>
      <cc:Work
         rdf:about="">
        <dc:format>image/svg+xml</dc:format>
        <dc:type
           rdf:resource="http://purl.org/dc/dcmitype/StillImage" />
        <dc:title></dc:title>
      </cc:Work>
    </rdf:RDF>
  </metadata>
  <g
     id="layer1"
     inkscape:label="Layer 1"
     inkscape:groupmode="layer">
    <path
       sodipodi:nodetypes="cszscc"
       inkscape:connector-curvature="0"
       d="m 6.25153,10.335023 c 0.5929477,-1.1490501 3.5381599,-5.5655297 6.461755,-6.024267 3.449881,-0.5413163 5.74374,1.4826465 11.260095,1.4826465 5.516355,0 7.810213,-2.0239628 11.260095,-1.4826465 2.923595,0.4587373 5.919314,5.0267398 6.512262,6.17579 z"
       style="fill:#555753;fill-opacity:1;stroke:#888a85;stroke-width:0.5;stroke-linecap:butt;stroke-linejoin:miter;stroke-miterlimit:4;stroke-opacity:1;stroke-dasharray:none"
       id="path15728" />
    <path
       id="path3778"
       style="fill:url(#radialGradient3892);fill-opacity:1;stroke:url(#linearGradient15692);stroke-width:0.99999994;stroke-linecap:butt;stroke-linejoin:miter;stroke-miterlimit:4;stroke-opacity:1;stroke-dasharray:none"
       d="M 13.9733,29.224918 C 12.713286,29.706777 10.267376,33.302196 9.8226646,34.265917 9.377954,35.229636 6.8949853,38.565597 5.0790827,38.528525 3.2631802,38.491463 0.29844132,35.600298 0.52079672,30.411035 0.74315212,25.221772 5.7090898,11.989151 6.3020376,10.8401 6.8949853,9.6910491 9.7896899,6.1837068 12.713285,5.7249695 16.163166,5.1836532 18.457025,7.207616 23.97338,7.207616 c 5.516355,0 7.810213,-2.0239628 11.260095,-1.4826465 2.923595,0.4587373 5.818299,3.9660796 6.411247,5.1151305 0.592948,1.149051 5.558886,14.381672 5.781241,19.570935 0.222355,5.189263 -2.742384,8.080424 -4.558286,8.11749 -1.815903,0.03707 -4.33593,-3.039425 -4.780641,-4.003145 -0.444711,-0.963721 -2.92768,-4.818603 -4.187694,-5.300462 -1.260013,-0.48186 -7.522748,0.518926 -10.000081,0.518926 -2.477333,0 -8.665948,-1.000786 -9.925961,-0.518926 z"
       inkscape:connector-curvature="0"
       sodipodi:nodetypes="sssssszsssssszs" />
    <path
       style="fill:url(#radialGradient3981);fill-opacity:1;stroke:none"
       d="M 6.649468,10.196076 C 6.4423658,10.48289 6.2590904,10.723517 6.1630655,10.909599 5.5701183,12.058649 0.58101715,25.309804 0.35866247,30.499067 0.13630679,35.68833 3.1149433,38.570229 4.9308459,38.607291 c 1.8159026,0.03707 4.2896071,-3.317422 4.734318,-4.281142 0.4447111,-0.963721 2.8906201,-4.545239 4.1506341,-5.027099 1.260014,-0.48186 7.445278,0.518926 9.922611,0.518926 2.477333,0 8.759878,-1.000786 10.019891,-0.518926 1.260015,0.48186 3.73835,4.322841 4.183062,5.286562 0.44471,0.96372 2.950846,4.058751 4.766744,4.021679 1.815903,-0.03706 4.794543,-2.918961 4.572183,-8.108224 -0.222349,-5.189263 -5.179029,-18.440418 -5.771976,-19.589468 -0.09603,-0.186082 -0.2793,-0.426709 -0.486402,-0.713523 1.517223,4.075067 4.095701,11.724939 4.247915,15.275893 0.203391,4.744622 -2.489603,7.393242 -4.150635,7.427132 -1.661027,0.0339 -3.97084,-2.783773 -4.377622,-3.664917 -0.406784,-0.881145 -2.673814,-4.391929 -3.826366,-4.832501 -1.152552,-0.440572 -6.878317,0.454061 -9.144367,0.454061 -2.26605,0 -7.926962,-0.894633 -9.079513,-0.454061 -1.152551,0.440572 -3.387157,3.724327 -3.793939,4.605471 -0.406783,0.881144 -2.6841665,3.925844 -4.3451965,3.891947 C 4.8911565,32.865216 2.1657336,30.216591 2.3691261,25.471969 2.5213496,21.920947 5.1322544,14.271082 6.649468,10.196076 z"
       id="path3966"
       inkscape:connector-curvature="0" />
    <path
       sodipodi:type="arc"
       style="color:#000000;fill:url(#radialGradient3964);fill-opacity:1;fill-rule:nonzero;stroke:none;visibility:visible;display:inline;overflow:visible;enable-background:accumulate"
       id="path3962"
       sodipodi:cx="18.586807"
       sodipodi:cy="21.432987"
       sodipodi:rx="3.384011"
       sodipodi:ry="3.384011"
       d="m 21.970818,21.432987 a 3.384011,3.384011 0 1 1 -6.768022,0 3.384011,3.384011 0 1 1 6.768022,0 z"
       transform="matrix(1.3844018,0,0,1.3846606,-7.8397088,-6.0832632)" />
    <path
       inkscape:connector-curvature="0"
       style="color:#000000;fill:url(#linearGradient15738);fill-opacity:1;fill-rule:nonzero;stroke:none;visibility:visible;display:inline;overflow:visible;enable-background:accumulate"
       d="m 12.068454,9.6004848 c -0.763329,-0.086431 -1.467755,0.4394372 -1.55417,1.2029082 L 10.333772,12.39822 8.7392432,12.217673 c -0.7633289,-0.08643 -1.433267,0.482739 -1.5196816,1.246211 l -0.070444,0.622371 c -0.086415,0.763471 0.4437577,1.429131 1.2070866,1.515562 l 1.5945283,0.180546 -0.1805126,1.594827 c -0.086415,0.763471 0.4782461,1.472433 1.2415751,1.558864 l 0.622255,0.07046 c 0.763328,0.08643 1.433267,-0.482739 1.519681,-1.246211 l 0.180513,-1.594826 1.594528,0.180546 c 0.763329,0.08643 1.467755,-0.439437 1.55417,-1.202908 l 0.07044,-0.622371 C 16.6398,13.757269 16.07514,13.048307 15.311811,12.961877 L 13.717283,12.78133 13.897795,11.186504 C 13.98421,10.423032 13.454038,9.7573727 12.690709,9.6709419 l -0.622255,-0.070457 z"
       id="rect3781" />
    <path
       id="path3810"
       d="m 12.037529,10.270112 c -0.654645,-0.07412 -1.091633,0.395881 -1.155097,1.051766 L 10.697431,12.95636 9.152149,12.781389 c -0.6546445,-0.07412 -1.1990043,0.147275 -1.2731151,0.802042 l -0.060414,0.533755 c -0.074111,0.654767 0.4132798,0.936691 1.0679244,1.010815 l 1.5452817,0.174971 -0.187517,1.656708 c -0.07411,0.654767 0.232365,1.242655 0.88701,1.316779 l 0.533656,0.06043 c 0.654644,0.07412 1.029186,-0.436652 1.103296,-1.091419 l 0.187517,-1.656708 1.567505,0.177486 c 0.654645,0.07413 1.226067,-0.08791 1.300178,-0.742678 l 0.06041,-0.533755 c 0.07411,-0.654767 -0.440343,-0.996054 -1.094987,-1.070179 l -1.567505,-0.177487 0.185001,-1.634481 c 0.07411,-0.654767 -0.180565,-1.203001 -0.83521,-1.277125 z"
       style="color:#000000;fill:url(#linearGradient15733);fill-opacity:1.0;fill-rule:nonzero;stroke:url(#radialGradient15735);stroke-width:0.25000000000000000;stroke-miterlimit:4;stroke-dasharray:none;visibility:visible;display:inline;overflow:visible;enable-background:accumulate"
       inkscape:connector-curvature="0"
       sodipodi:nodetypes="sscsssscsssscsssscsss" />
    <g
       id="g4061"
       transform="matrix(1.1311576,0,0,1.131369,-2.9613115,-3.037235)">
      <path
         sodipodi:type="arc"
         style="color:#000000;fill:#ffffff;stroke:none;visibility:visible;display:inline;overflow:visible;enable-background:accumulate"
         id="path3876"
         sodipodi:cx="30.125"
         sodipodi:cy="21.017857"
         sodipodi:rx="3.2321429"
         sodipodi:ry="3.2321429"
         d="m 33.357143,21.017857 c 0,1.785063 -1.44708,3.232143 -3.232143,3.232143 -1.785063,0 -3.232143,-1.44708 -3.232143,-3.232143 0,-1.785064 1.44708,-3.232143 3.232143,-3.232143 1.785063,0 3.232143,1.447079 3.232143,3.232143 z"
         transform="translate(-11.928571,1.5714286)" />
      <path
         transform="matrix(0.86791415,0,0,0.86791415,-7.949485,4.3475901)"
         d="m 33.357143,21.017857 c 0,1.785063 -1.44708,3.232143 -3.232143,3.232143 -1.785063,0 -3.232143,-1.44708 -3.232143,-3.232143 0,-1.785064 1.44708,-3.232143 3.232143,-3.232143 1.785063,0 3.232143,1.447079 3.232143,3.232143 z"
         sodipodi:ry="3.2321429"
         sodipodi:rx="3.2321429"
         sodipodi:cy="21.017857"
         sodipodi:cx="30.125"
         id="path3878"
         style="color:#000000;fill:#000000;stroke:none;visibility:visible;display:inline;overflow:visible;enable-background:accumulate"
         sodipodi:type="arc" />
      <path
         sodipodi:type="arc"
         style="color:#000000;fill:#555753;stroke:none;visibility:visible;display:inline;overflow:visible;enable-background:accumulate"
         id="path3880"
         sodipodi:cx="30.125"
         sodipodi:cy="21.017857"
         sodipodi:rx="3.2321429"
         sodipodi:ry="3.2321429"
         d="m 33.357143,21.017857 c 0,1.785063 -1.44708,3.232143 -3.232143,3.232143 -1.785063,0 -3.232143,-1.44708 -3.232143,-3.232143 0,-1.785064 1.44708,-3.232143 3.232143,-3.232143 1.785063,0 3.232143,1.447079 3.232143,3.232143 z"
         transform="matrix(0.7469064,0,0,0.7469064,-4.304126,6.8909137)" />
      <path
         transform="matrix(0.57096462,0,0,0.57096462,0.996119,10.588833)"
         d="m 33.357143,21.017857 c 0,1.785063 -1.44708,3.232143 -3.232143,3.232143 -1.785063,0 -3.232143,-1.44708 -3.232143,-3.232143 0,-1.785064 1.44708,-3.232143 3.232143,-3.232143 1.785063,0 3.232143,1.447079 3.232143,3.232143 z"
         sodipodi:ry="3.2321429"
         sodipodi:rx="3.2321429"
         sodipodi:cy="21.017857"
         sodipodi:cx="30.125"
         id="path3882"
         style="color:#000000;fill:url(#radialGradient4073);fill-opacity:1;stroke:#888a85;stroke-width:0.77410012;stroke-linecap:butt;stroke-linejoin:miter;stroke-miterlimit:4;stroke-opacity:1;stroke-dasharray:none;stroke-dashoffset:0;visibility:visible;display:inline;overflow:visible;enable-background:accumulate"
         sodipodi:type="arc" />
    </g>
    <g
       id="g4015"
       transform="matrix(1.0376586,0,0,1.0378526,-1.2580467,-0.79867543)">
      <path
         transform="matrix(1.06,0,0,1.06,-1.8028571,-0.99357146)"
         d="m 34.214284,14.178572 c 0,0.986222 -0.799491,1.785714 -1.785714,1.785714 -0.986223,0 -1.785714,-0.799492 -1.785714,-1.785714 0,-0.986223 0.799491,-1.785715 1.785714,-1.785715 0.986223,0 1.785714,0.799492 1.785714,1.785715 z"
         sodipodi:ry="1.7857143"
         sodipodi:rx="1.7857143"
         sodipodi:cy="14.178572"
         sodipodi:cx="32.42857"
         id="path3852"
         style="color:#000000;fill:url(#linearGradient4019);fill-opacity:1;fill-rule:nonzero;stroke:url(#linearGradient4021);stroke-width:0.4545368;stroke-linecap:butt;stroke-linejoin:miter;stroke-miterlimit:4;stroke-opacity:1;stroke-dasharray:none;stroke-dashoffset:0;visibility:visible;display:inline;overflow:visible;enable-background:accumulate"
         sodipodi:type="arc" />
      <path
         sodipodi:type="arc"
         style="color:#000000;fill:url(#radialGradient4023);fill-opacity:1;fill-rule:nonzero;stroke:none;visibility:visible;display:inline;overflow:visible;enable-background:accumulate"
         id="path3987"
         sodipodi:cx="32.42857"
         sodipodi:cy="14.178572"
         sodipodi:rx="1.7857143"
         sodipodi:ry="1.7857143"
         d="m 34.214284,14.178572 c 0,0.986222 -0.799491,1.785714 -1.785714,1.785714 -0.986223,0 -1.785714,-0.799492 -1.785714,-1.785714 0,-0.986223 0.799491,-1.785715 1.785714,-1.785715 0.986223,0 1.785714,0.799492 1.785714,1.785715 z"
         transform="matrix(0.82,0,0,0.82,5.9799992,1.8735717)" />
    </g>
    <g
       transform="matrix(1.0376586,0,0,1.0378526,2.9667064,-3.5786378)"
       id="g4025">
      <path
         sodipodi:type="arc"
         style="color:#000000;fill:url(#linearGradient4031);fill-opacity:1;fill-rule:nonzero;stroke:url(#linearGradient4033);stroke-width:0.4545368;stroke-linecap:butt;stroke-linejoin:miter;stroke-miterlimit:4;stroke-opacity:1;stroke-dasharray:none;stroke-dashoffset:0;visibility:visible;display:inline;overflow:visible;enable-background:accumulate"
         id="path4027"
         sodipodi:cx="32.42857"
         sodipodi:cy="14.178572"
         sodipodi:rx="1.7857143"
         sodipodi:ry="1.7857143"
         d="m 34.214284,14.178572 c 0,0.986222 -0.799491,1.785714 -1.785714,1.785714 -0.986223,0 -1.785714,-0.799492 -1.785714,-1.785714 0,-0.986223 0.799491,-1.785715 1.785714,-1.785715 0.986223,0 1.785714,0.799492 1.785714,1.785715 z"
         transform="matrix(1.06,0,0,1.06,-1.8028571,-0.99357146)" />
      <path
         transform="matrix(0.82,0,0,0.82,5.9799992,1.8735717)"
         d="m 34.214284,14.178572 c 0,0.986222 -0.799491,1.785714 -1.785714,1.785714 -0.986223,0 -1.785714,-0.799492 -1.785714,-1.785714 0,-0.986223 0.799491,-1.785715 1.785714,-1.785715 0.986223,0 1.785714,0.799492 1.785714,1.785715 z"
         sodipodi:ry="1.7857143"
         sodipodi:rx="1.7857143"
         sodipodi:cy="14.178572"
         sodipodi:cx="32.42857"
         id="path4029"
         style="color:#000000;fill:url(#radialGradient4035);fill-opacity:1;fill-rule:nonzero;stroke:none;visibility:visible;display:inline;overflow:visible;enable-background:accumulate"
         sodipodi:type="arc" />
    </g>
    <g
       id="g4037"
       transform="matrix(1.0376586,0,0,1.0378526,6.19086,0.94343434)">
      <path
         transform="matrix(1.06,0,0,1.06,-1.8028571,-0.99357146)"
         d="m 34.214284,14.178572 c 0,0.986222 -0.799491,1.785714 -1.785714,1.785714 -0.986223,0 -1.785714,-0.799492 -1.785714,-1.785714 0,-0.986223 0.799491,-1.785715 1.785714,-1.785715 0.986223,0 1.785714,0.799492 1.785714,1.785715 z"
         sodipodi:ry="1.7857143"
         sodipodi:rx="1.7857143"
         sodipodi:cy="14.178572"
         sodipodi:cx="32.42857"
         id="path4039"
         style="color:#000000;fill:url(#linearGradient4043);fill-opacity:1;fill-rule:nonzero;stroke:url(#linearGradient4045);stroke-width:0.4545368;stroke-linecap:butt;stroke-linejoin:miter;stroke-miterlimit:4;stroke-opacity:1;stroke-dasharray:none;stroke-dashoffset:0;visibility:visible;display:inline;overflow:visible;enable-background:accumulate"
         sodipodi:type="arc" />
      <path
         sodipodi:type="arc"
         style="color:#000000;fill:url(#radialGradient4047);fill-opacity:1;fill-rule:nonzero;stroke:none;visibility:visible;display:inline;overflow:visible;enable-background:accumulate"
         id="path4041"
         sodipodi:cx="32.42857"
         sodipodi:cy="14.178572"
         sodipodi:rx="1.7857143"
         sodipodi:ry="1.7857143"
         d="m 34.214284,14.178572 c 0,0.986222 -0.799491,1.785714 -1.785714,1.785714 -0.986223,0 -1.785714,-0.799492 -1.785714,-1.785714 0,-0.986223 0.799491,-1.785715 1.785714,-1.785715 0.986223,0 1.785714,0.799492 1.785714,1.785715 z"
         transform="matrix(0.82,0,0,0.82,5.9799992,1.8735717)" />
    </g>
    <g
       transform="matrix(1.0376586,0,0,1.0378526,1.7174519,3.6863305)"
       id="g4049">
      <path
         sodipodi:type="arc"
         style="color:#000000;fill:url(#linearGradient4055);fill-opacity:1;fill-rule:nonzero;stroke:url(#linearGradient4057);stroke-width:0.4545368;stroke-linecap:butt;stroke-linejoin:miter;stroke-miterlimit:4;stroke-opacity:1;stroke-dasharray:none;stroke-dashoffset:0;visibility:visible;display:inline;overflow:visible;enable-background:accumulate"
         id="path4051"
         sodipodi:cx="32.42857"
         sodipodi:cy="14.178572"
         sodipodi:rx="1.7857143"
         sodipodi:ry="1.7857143"
         d="m 34.214284,14.178572 c 0,0.986222 -0.799491,1.785714 -1.785714,1.785714 -0.986223,0 -1.785714,-0.799492 -1.785714,-1.785714 0,-0.986223 0.799491,-1.785715 1.785714,-1.785715 0.986223,0 1.785714,0.799492 1.785714,1.785715 z"
         transform="matrix(1.06,0,0,1.06,-1.8028571,-0.99357146)" />
      <path
         transform="matrix(0.82,0,0,0.82,5.9799992,1.8735717)"
         d="m 34.214284,14.178572 c 0,0.986222 -0.799491,1.785714 -1.785714,1.785714 -0.986223,0 -1.785714,-0.799492 -1.785714,-1.785714 0,-0.986223 0.799491,-1.785715 1.785714,-1.785715 0.986223,0 1.785714,0.799492 1.785714,1.785715 z"
         sodipodi:ry="1.7857143"
         sodipodi:rx="1.7857143"
         sodipodi:cy="14.178572"
         sodipodi:cx="32.42857"
         id="path4053"
         style="color:#000000;fill:url(#radialGradient4059);fill-opacity:1;fill-rule:nonzero;stroke:none;visibility:visible;display:inline;overflow:visible;enable-background:accumulate"
         sodipodi:type="arc" />
    </g>
    <path
       sodipodi:nodetypes="ccsccccsccccsccccccccscccccccsc"
       style="fill:#babdb6;fill-opacity:1"
       id="path1940"
       d="m 25.245957,12.589492 c -0.146646,-0.686327 -0.870831,-1.499168 -1.671196,-1.676659 -0.832266,-0.183051 -1.38933,-0.188149 -2.042732,0.239435 -0.191878,0.125433 -0.514215,0.339997 -0.815442,0.659911 l 0,1.064479 c 0.424385,-0.895021 1.39187,-1.644836 2.474893,-1.374199 1.839586,0.458634 1.544865,1.720375 1.323943,2.232146 -0.39677,0.920509 -1.855297,1.317661 -2.304124,0.438397 -0.48771,-0.955884 0.600393,-1.11252 0.600393,-1.11252 0,0 -0.282976,0.267857 0.0719,0.62083 0.245998,0.246231 0.714028,0.02286 0.876545,-0.409046 0.142679,-0.376917 -0.164422,-0.89981 -0.837027,-0.956347 -0.563413,-0.04835 -1.408693,0.367956 -1.494713,1.204586 -0.08141,0.792295 0.282342,1.120552 0.810523,1.47059 0.526593,0.349883 1.654532,0.481186 2.298252,-0.133002 0.70022,-0.667327 0.904953,-1.3518 0.70879,-2.268601 z m -4.52937,-3.7398103 0,2.0887953 c 0.321384,-0.276664 0.589441,-0.415226 0.600393,-0.421869 1.173169,-0.6623831 2.207153,-0.334281 2.815322,-0.14675 0.96066,0.295354 1.715476,1.030958 2.041303,1.787261 0.379631,0.880192 0.05111,2.562102 -1.230146,3.411862 -0.05602,0.03707 -0.112048,0.06859 -0.168231,0.100713 l 2.760251,0 0,-6.8200164 -6.818892,0 z m 0,5.7010083 0,1.119163 1.20015,0 c -0.08872,-0.04681 -0.170293,-0.09454 -0.241553,-0.141807 -0.352332,-0.234492 -0.728153,-0.566147 -0.958597,-0.977356 z"
       i:knockout="Off"
       inkscape:connector-curvature="0" />
    <path
       sodipodi:nodetypes="sssssszsssssszs"
       inkscape:connector-curvature="0"
       d="M 13.781293,28.738739 C 12.553119,29.205307 10.169018,32.686625 9.7355438,33.619762 9.3020719,34.552897 6.9189064,38.07952 5.1488918,38.043624 3.3788772,38.007739 0.85964994,35.208325 1.0763865,30.183744 1.2931228,25.159163 6.1706301,12.198215 6.748594,11.085629 7.3265579,9.9730434 9.9998759,6.6511392 12.849592,6.2069598 c 3.362703,-0.5241375 5.746832,1.4726609 11.123788,1.4726609 5.376956,0 7.798144,-1.9597323 11.160848,-1.4355947 2.849715,0.4441793 5.523033,3.6919513 6.100997,4.804537 0.577963,1.112586 5.386921,14.037925 5.635148,19.06105 0.253796,5.135779 -2.080135,7.898122 -3.850149,7.934011 -1.770015,0.0359 -4.374598,-3.202431 -4.80807,-4.135567 -0.433475,-0.933138 -2.853698,-4.665684 -4.081872,-5.132252 -1.228172,-0.466569 -8.036773,0.465393 -10.451504,0.465393 -2.414731,0 -8.669314,-0.969028 -9.897485,-0.502459 z"
       style="fill:none;stroke:url(#linearGradient15684);stroke-width:0.49999997;stroke-linecap:butt;stroke-linejoin:miter;stroke-miterlimit:4;stroke-opacity:1;stroke-dasharray:none"
       id="path15676" />
    <path
       transform="matrix(1.3844018,0,0,1.3846606,4.2786616,-6.0832632)"
       d="m 21.970818,21.432987 a 3.384011,3.384011 0 1 1 -6.768022,0 3.384011,3.384011 0 1 1 6.768022,0 z"
       sodipodi:ry="3.384011"
       sodipodi:rx="3.384011"
       sodipodi:cy="21.432987"
       sodipodi:cx="18.586807"
       id="path15698"
       style="color:#000000;fill:url(#radialGradient15710);fill-opacity:1;fill-rule:nonzero;stroke:none;visibility:visible;display:inline;overflow:visible;enable-background:accumulate"
       sodipodi:type="arc" />
    <g
       transform="matrix(1.1311576,0,0,1.131369,9.1570589,-3.037235)"
       id="g15700">
      <path
         transform="translate(-11.928571,1.5714286)"
         d="m 33.357143,21.017857 c 0,1.785063 -1.44708,3.232143 -3.232143,3.232143 -1.785063,0 -3.232143,-1.44708 -3.232143,-3.232143 0,-1.785064 1.44708,-3.232143 3.232143,-3.232143 1.785063,0 3.232143,1.447079 3.232143,3.232143 z"
         sodipodi:ry="3.2321429"
         sodipodi:rx="3.2321429"
         sodipodi:cy="21.017857"
         sodipodi:cx="30.125"
         id="path15702"
         style="color:#000000;fill:#ffffff;stroke:none;visibility:visible;display:inline;overflow:visible;enable-background:accumulate"
         sodipodi:type="arc" />
      <path
         sodipodi:type="arc"
         style="color:#000000;fill:#000000;stroke:none;visibility:visible;display:inline;overflow:visible;enable-background:accumulate"
         id="path15704"
         sodipodi:cx="30.125"
         sodipodi:cy="21.017857"
         sodipodi:rx="3.2321429"
         sodipodi:ry="3.2321429"
         d="m 33.357143,21.017857 c 0,1.785063 -1.44708,3.232143 -3.232143,3.232143 -1.785063,0 -3.232143,-1.44708 -3.232143,-3.232143 0,-1.785064 1.44708,-3.232143 3.232143,-3.232143 1.785063,0 3.232143,1.447079 3.232143,3.232143 z"
         transform="matrix(0.86791415,0,0,0.86791415,-7.949485,4.3475901)" />
      <path
         transform="matrix(0.7469064,0,0,0.7469064,-4.304126,6.8909137)"
         d="m 33.357143,21.017857 c 0,1.785063 -1.44708,3.232143 -3.232143,3.232143 -1.785063,0 -3.232143,-1.44708 -3.232143,-3.232143 0,-1.785064 1.44708,-3.232143 3.232143,-3.232143 1.785063,0 3.232143,1.447079 3.232143,3.232143 z"
         sodipodi:ry="3.2321429"
         sodipodi:rx="3.2321429"
         sodipodi:cy="21.017857"
         sodipodi:cx="30.125"
         id="path15706"
         style="color:#000000;fill:#555753;stroke:none;visibility:visible;display:inline;overflow:visible;enable-background:accumulate"
         sodipodi:type="arc" />
      <path
         sodipodi:type="arc"
         style="color:#000000;fill:url(#radialGradient15712);fill-opacity:1;stroke:#888a85;stroke-width:0.77410012;stroke-linecap:butt;stroke-linejoin:miter;stroke-miterlimit:4;stroke-opacity:1;stroke-dasharray:none;stroke-dashoffset:0;visibility:visible;display:inline;overflow:visible;enable-background:accumulate"
         id="path15708"
         sodipodi:cx="30.125"
         sodipodi:cy="21.017857"
         sodipodi:rx="3.2321429"
         sodipodi:ry="3.2321429"
         d="m 33.357143,21.017857 c 0,1.785063 -1.44708,3.232143 -3.232143,3.232143 -1.785063,0 -3.232143,-1.44708 -3.232143,-3.232143 0,-1.785064 1.44708,-3.232143 3.232143,-3.232143 1.785063,0 3.232143,1.447079 3.232143,3.232143 z"
         transform="matrix(0.57096462,0,0,0.57096462,0.996119,10.588833)" />
    </g>
  </g>
</svg>
