<?xml version="1.0" encoding="UTF-8" standalone="no"?>
<!-- Created with Inkscape (http://www.inkscape.org/) -->
<svg
   xmlns:dc="http://purl.org/dc/elements/1.1/"
   xmlns:cc="http://creativecommons.org/ns#"
   xmlns:rdf="http://www.w3.org/1999/02/22-rdf-syntax-ns#"
   xmlns:svg="http://www.w3.org/2000/svg"
   xmlns="http://www.w3.org/2000/svg"
   xmlns:xlink="http://www.w3.org/1999/xlink"
   xmlns:sodipodi="http://sodipodi.sourceforge.net/DTD/sodipodi-0.dtd"
   xmlns:inkscape="http://www.inkscape.org/namespaces/inkscape"
   width="48px"
   height="48px"
   id="svg4828"
   sodipodi:version="0.32"
   inkscape:version="0.46"
   sodipodi:docname="lag.svg"
   inkscape:output_extension="org.inkscape.output.svg.inkscape">
  <defs
     id="defs4830">
    <linearGradient
       id="linearGradient5501">
      <stop
         style="stop-color:#c9c9c9;stop-opacity:1"
         offset="0"
         id="stop5503" />
      <stop
         style="stop-color:#8b8b8b;stop-opacity:1"
         offset="1"
         id="stop5505" />
    </linearGradient>
    <linearGradient
       id="linearGradient5481">
      <stop
         style="stop-color:#f57900;stop-opacity:1;"
         offset="0"
         id="stop5483" />
      <stop
         style="stop-color:#ce5c00;stop-opacity:1"
         offset="1"
         id="stop5485" />
    </linearGradient>
    <linearGradient
       id="linearGradient5467">
      <stop
         style="stop-color:#588acb;stop-opacity:1;"
         offset="0"
         id="stop5469" />
      <stop
         style="stop-color:#3465a4;stop-opacity:1;"
         offset="1"
         id="stop5471" />
    </linearGradient>
    <linearGradient
       id="linearGradient5454">
      <stop
         style="stop-color:#ffffff;stop-opacity:1;"
         offset="0"
         id="stop5456" />
      <stop
         style="stop-color:#babdb6;stop-opacity:1;"
         offset="1"
         id="stop5458" />
    </linearGradient>
    <linearGradient
       id="linearGradient5393">
      <stop
         style="stop-color:#2e3436;stop-opacity:1;"
         offset="0"
         id="stop5395" />
      <stop
         id="stop5401"
         offset="0.10057471"
         style="stop-color:#2e3436;stop-opacity:1;" />
      <stop
         style="stop-color:#7e8c91;stop-opacity:1;"
         offset="0.25733253"
         id="stop5405" />
      <stop
         style="stop-color:#2e3436;stop-opacity:1;"
         offset="0.48781553"
         id="stop5403" />
      <stop
         style="stop-color:#000000;stop-opacity:1;"
         offset="1"
         id="stop5397" />
    </linearGradient>
    <inkscape:perspective
       sodipodi:type="inkscape:persp3d"
       inkscape:vp_x="0 : 24 : 1"
       inkscape:vp_y="0 : 1000 : 0"
       inkscape:vp_z="48 : 24 : 1"
       inkscape:persp3d-origin="24 : 16 : 1"
       id="perspective4836" />
    <linearGradient
       inkscape:collect="always"
       xlink:href="#linearGradient5393"
       id="linearGradient5399"
       x1="9.8609247"
       y1="35.177452"
       x2="12.927484"
       y2="47.653641"
       gradientUnits="userSpaceOnUse"
       gradientTransform="matrix(1.089739,0,0,1,-6.0303887,0)" />
    <linearGradient
       inkscape:collect="always"
       xlink:href="#linearGradient5393"
       id="linearGradient5413"
       x1="34.399124"
       y1="30.378794"
       x2="36.428314"
       y2="43.61689"
       gradientUnits="userSpaceOnUse"
       gradientTransform="matrix(1.0124644,0,0,0.9290889,-3.4759943,2.4364589)" />
    <linearGradient
       inkscape:collect="always"
       xlink:href="#linearGradient5393"
       id="linearGradient5430"
       x1="40.6875"
       y1="10.091517"
       x2="38.855656"
       y2="19.710566"
       gradientUnits="userSpaceOnUse" />
    <linearGradient
       inkscape:collect="always"
       xlink:href="#linearGradient5393"
       id="linearGradient5452"
       gradientUnits="userSpaceOnUse"
       x1="40.6875"
       y1="10.091517"
       x2="38.855656"
       y2="19.710566" />
    <radialGradient
       inkscape:collect="always"
       xlink:href="#linearGradient5454"
       id="radialGradient5460"
       cx="19.15873"
       cy="21.603174"
       fx="19.15873"
       fy="21.603174"
       r="2.6428571"
       gradientUnits="userSpaceOnUse" />
    <linearGradient
       inkscape:collect="always"
       xlink:href="#linearGradient5467"
       id="linearGradient5475"
       x1="27.488216"
       y1="1.5245537"
       x2="22.596725"
       y2="10.794394"
       gradientUnits="userSpaceOnUse"
       gradientTransform="matrix(1.089739,0,0,1,-6.0303888,0)" />
    <linearGradient
       inkscape:collect="always"
       xlink:href="#linearGradient5481"
       id="linearGradient5487"
       x1="12.886147"
       y1="38.405399"
       x2="34.276062"
       y2="40.310162"
       gradientUnits="userSpaceOnUse"
       gradientTransform="matrix(1.089739,0,0,1,-6.0303888,0)" />
    <linearGradient
       inkscape:collect="always"
       xlink:href="#linearGradient5467"
       id="linearGradient5499"
       x1="33.322788"
       y1="3.0359888"
       x2="34.171848"
       y2="11.797894"
       gradientUnits="userSpaceOnUse"
       gradientTransform="matrix(1.089739,0,0,1,-6.0303888,0)" />
    <linearGradient
       inkscape:collect="always"
       xlink:href="#linearGradient5501"
       id="linearGradient5507"
       x1="18.293652"
       y1="20.460318"
       x2="22.055555"
       y2="24.26984"
       gradientUnits="userSpaceOnUse" />
  </defs>
  <sodipodi:namedview
     id="base"
     pagecolor="#ffffff"
     bordercolor="#666666"
     borderopacity="1.0"
     inkscape:pageopacity="0.0"
     inkscape:pageshadow="2"
     inkscape:zoom="15.75"
     inkscape:cx="26.730159"
     inkscape:cy="24.31746"
     inkscape:current-layer="layer1"
     showgrid="true"
     inkscape:grid-bbox="true"
     inkscape:document-units="px"
     inkscape:window-width="1920"
     inkscape:window-height="1115"
     inkscape:window-x="-4"
     inkscape:window-y="-4" />
  <metadata
     id="metadata4833">
    <rdf:RDF>
      <cc:Work
         rdf:about="">
        <dc:format>image/svg+xml</dc:format>
        <dc:type
           rdf:resource="http://purl.org/dc/dcmitype/StillImage" />
      </cc:Work>
    </rdf:RDF>
  </metadata>
  <g
     id="layer1"
     inkscape:label="Layer 1"
     inkscape:groupmode="layer">
    <path
       style="fill:#000000;fill-opacity:0.1254902;fill-rule:evenodd;stroke:none;stroke-width:1px;stroke-linecap:butt;stroke-linejoin:miter;stroke-opacity:1"
       d="M 26.350428,26.285714 L 31.470471,26.349206 L 37.628362,25.523809 C 41.468723,24.550465 43.005509,22.69697 43.855443,19.365079 L 44.47815,15.301587 C 44.725977,13.70519 44.775679,12.191432 43.025165,11.428571 L 21.507143,21.333333 L 26.350428,26.285714 z"
       id="path5489"
       sodipodi:nodetypes="cccccccc" />
    <path
       sodipodi:nodetypes="cccccccc"
       id="path5491"
       d="M 27.292272,25.081953 L 31.798823,25.137837 L 37.218863,24.411341 C 40.599065,23.554625 41.951711,21.923219 42.699803,18.990561 L 43.247897,15.413964 C 43.466028,14.00885 43.509776,12.676473 41.969012,12.00502 L 23.029318,20.722975 L 27.292272,25.081953 z"
       style="fill:#000000;fill-opacity:0.1254902;fill-rule:evenodd;stroke:none;stroke-width:1px;stroke-linecap:butt;stroke-linejoin:miter;stroke-opacity:1" />
    <path
       id="path5421"
       d="M 10.498961,44.390766 L 30.633271,39.122362 L 32.280331,43.123618 L 8.9671625,48.016638 L 10.498961,44.390766 z"
       style="fill:#000000;fill-opacity:0.35555558;fill-rule:evenodd;stroke:none;stroke-width:1;stroke-linecap:butt;stroke-linejoin:bevel;stroke-miterlimit:4;stroke-dasharray:none;stroke-opacity:1"
       sodipodi:nodetypes="ccccc" />
    <path
       transform="matrix(0.8361474,0,0,0.7690492,-14.274539,0.6973592)"
       d="M 35.904762,21.095238 A 2.9047618,6.8095236 0 1 1 30.095238,21.095238 A 2.9047618,6.8095236 0 1 1 35.904762,21.095238 z"
       sodipodi:ry="6.8095236"
       sodipodi:rx="2.9047618"
       sodipodi:cy="21.095238"
       sodipodi:cx="33"
       id="path5373"
       style="opacity:1;fill:#2e3436;fill-opacity:1;fill-rule:evenodd;stroke:#000000;stroke-width:1.24704325px;stroke-linecap:butt;stroke-linejoin:bevel;marker:none;marker-start:none;marker-mid:none;marker-end:none;stroke-miterlimit:4;stroke-dasharray:none;stroke-dashoffset:0;stroke-opacity:1;visibility:visible;display:inline;overflow:visible;enable-background:accumulate"
       sodipodi:type="arc" />
    <path
       style="fill:#3465a4;fill-rule:evenodd;stroke:#163766;stroke-width:1.00000012px;stroke-linecap:butt;stroke-linejoin:bevel;stroke-opacity:1"
       d="M 28.160173,2.84375 L 14.504382,10.34375 C 9.5549589,14.211491 11.512804,16.078868 11.74598,19.3125 L 25.129337,22.9375 C 25.171292,23.053861 25.185232,23.163623 25.2315,23.28125 L 41.441368,13.84375 L 43.961389,9.40625 C 43.090972,7.2294217 41.495525,6.0337852 40.215412,5.7147817 L 28.160173,2.84375 z"
       id="path5347"
       sodipodi:nodetypes="ccccccccc" />
    <path
       style="fill:#417ac3;fill-opacity:1;fill-rule:evenodd;stroke:#204a87;stroke-width:1px;stroke-linecap:butt;stroke-linejoin:miter;stroke-opacity:1"
       d="M 17.355758,10.984127 C 14.806689,12.084656 13.528207,14.074074 13.896268,16 C 15.362,17.850876 18.88837,18.635538 21.922282,18.349206 C 22.341226,16.434444 23.348938,14.13354 26.00448,12.952381 L 17.355758,10.984127 z"
       id="path5463"
       sodipodi:nodetypes="ccccc" />
    <path
       style="fill:url(#linearGradient5475);fill-opacity:1;fill-rule:evenodd;stroke:#163766;stroke-width:1.00000012px;stroke-linecap:butt;stroke-linejoin:bevel;stroke-opacity:1"
       d="M 20.772002,0.56448413 C 13.046109,2.5487737 15.111356,7.1500573 14.81087,10.3125 L 28.228283,13.46875 L 31.126144,2.563492 L 20.772002,0.56448413 z"
       id="path5359"
       sodipodi:nodetypes="ccccc" />
    <path
       style="opacity:1;fill:url(#linearGradient5499);fill-opacity:1;fill-rule:evenodd;stroke:#163766;stroke-width:1.00000012px;stroke-linecap:butt;stroke-linejoin:bevel;marker:none;marker-start:none;marker-mid:none;marker-end:none;stroke-miterlimit:4;stroke-dasharray:none;stroke-dashoffset:0;stroke-opacity:1;visibility:visible;display:inline;overflow:visible;enable-background:accumulate"
       d="M 37.476299,7.2979334 C 37.60165,5.604526 32.412531,2.5022325 30.835421,2.5615664 C 26.652349,4.0497176 27.13581,7.5145643 28.094069,13.39432 L 29.841541,21.03506 L 38.481581,15.899594 L 37.476299,7.2979334 z"
       id="path5357"
       sodipodi:nodetypes="cccccc" />
    <path
       style="fill:url(#linearGradient5413);fill-opacity:1;fill-rule:evenodd;stroke:none;stroke-width:1px;stroke-linecap:butt;stroke-linejoin:miter;stroke-opacity:1"
       d="M 30.222388,30.169312 C 33.418472,31.015691 35.525045,33.795462 35.428096,37.412123 C 35.333278,40.949244 33.434451,42.82177 32.304671,43.063109 L 29.701817,43.540657 C 28.768871,43.354943 27.374983,42.293726 27.272486,41.312099 L 30.222388,30.169312 z"
       id="path5379"
       sodipodi:nodetypes="czcccc" />
    <path
       style="opacity:1;fill:url(#linearGradient5399);fill-opacity:1;fill-rule:evenodd;stroke:none;stroke-width:1px;stroke-linecap:butt;stroke-linejoin:miter;marker:none;marker-start:none;marker-mid:none;marker-end:none;stroke-miterlimit:4;stroke-dasharray:none;stroke-dashoffset:0;stroke-opacity:1;visibility:visible;display:inline;overflow:visible;enable-background:accumulate"
       d="M 7.641096,34.561147 C 6.0535714,34.481279 4.6702254,34.80219 3.6430041,35.934832 C 2.7966273,40.049759 4.7052168,45.03015 7.4543273,48.182041 L 12.403667,47.239716 C 14.691792,36.613907 9.2286192,38.787336 7.641096,34.561147 z"
       id="path5383"
       sodipodi:nodetypes="ccccc" />
    <path
       sodipodi:type="arc"
       style="opacity:1;fill:url(#radialGradient5460);fill-opacity:1;fill-rule:evenodd;stroke:url(#linearGradient5507);stroke-width:0.8343358px;stroke-linecap:butt;stroke-linejoin:bevel;marker:none;marker-start:none;marker-mid:none;marker-end:none;stroke-miterlimit:4;stroke-dasharray:none;stroke-dashoffset:0;stroke-opacity:1;visibility:visible;display:inline;overflow:visible;enable-background:accumulate"
       id="path5419"
       sodipodi:cx="20.047619"
       sodipodi:cy="22.619047"
       sodipodi:rx="2.1428571"
       sodipodi:ry="2.1428571"
       d="M 22.190476,22.619047 A 2.1428571,2.1428571 0 1 1 17.904762,22.619047 A 2.1428571,2.1428571 0 1 1 22.190476,22.619047 z"
       transform="matrix(1.2511818,0,0,1.1481482,-8.9555789,-4.0176368)" />
    <path
       style="fill:#fcaf3e;fill-rule:evenodd;stroke:#8b3c00;stroke-width:1;stroke-linecap:butt;stroke-linejoin:bevel;stroke-miterlimit:4;stroke-dasharray:none;stroke-opacity:1"
       d="M 6.2437885,24.295528 L 21.707791,21.2176 L 32.176547,32.55219 L 7.3066077,37.730924 L 6.2437885,24.295528 z"
       id="path5353" />
    <path
       style="fill:url(#linearGradient5487);fill-opacity:1;fill-rule:evenodd;stroke:#8b3c00;stroke-width:1;stroke-linecap:butt;stroke-linejoin:bevel;stroke-miterlimit:4;stroke-dasharray:none;stroke-opacity:1"
       d="M 7.5191711,37.926348 L 10.641279,45.655435 L 31.857702,40.808851 L 32.229688,32.55219 L 7.5191711,37.926348 z"
       id="path5355"
       sodipodi:nodetypes="ccccc" />
    <path
       sodipodi:nodetypes="ccccc"
       id="path5375"
       d="M 26.221567,6.076605 L 17.024325,3.9864507 C 16.182978,5.8658118 16.139967,7.8135498 16.085826,9.2762178 L 26.296759,11.78584 C 25.847916,9.8093584 25.857298,7.9140449 26.221567,6.076605 z"
       style="fill:#ffffff;fill-opacity:1;fill-rule:evenodd;stroke:none;stroke-width:1.00000012px;stroke-linecap:butt;stroke-linejoin:bevel;stroke-opacity:1" />
    <path
       sodipodi:nodetypes="ccccc"
       id="path5377"
       d="M 36.023313,8.7464779 C 35.607424,6.9325601 35.277822,5.0504683 32.819085,4.5104167 L 29.228573,5.9852752 C 28.350737,7.8232829 29.080375,10.464016 29.453211,12.124845 L 36.023313,8.7464779 z"
       style="opacity:1;fill:#ffffff;fill-opacity:1;fill-rule:evenodd;stroke:none;stroke-width:1.00000012px;stroke-linecap:butt;stroke-linejoin:bevel;marker:none;marker-start:none;marker-mid:none;marker-end:none;stroke-miterlimit:4;stroke-dasharray:none;stroke-dashoffset:0;stroke-opacity:1;visibility:visible;display:inline;overflow:visible;enable-background:accumulate" />
    <g
       id="g5436"
       transform="matrix(1.089739,0,0,1,-5.1414998,-0.1904762)">
      <path
         sodipodi:nodetypes="csccscc"
         id="path5369"
         d="M 40,9.8125 C 38.769703,9.8125 37.781249,12.171754 37.78125,15.0625 C 37.78125,17.953246 38.769703,20.28125 40,20.28125 L 41.375,20.65625 C 42.605297,20.65625 43.59375,18.296996 43.59375,15.40625 C 43.59375,12.303864 42.77461,10.483796 41.713624,10.229828 L 40,9.8125 z"
         style="opacity:1;fill:url(#linearGradient5430);fill-opacity:1;fill-rule:evenodd;stroke:#000000;stroke-width:0.95794111px;stroke-linecap:butt;stroke-linejoin:bevel;marker:none;marker-start:none;marker-mid:none;marker-end:none;stroke-miterlimit:4;stroke-dasharray:none;stroke-dashoffset:0;stroke-opacity:1;visibility:visible;display:inline;overflow:visible;enable-background:accumulate" />
      <path
         sodipodi:type="arc"
         style="opacity:1;fill:#2e3436;fill-opacity:1;fill-rule:evenodd;stroke:none;stroke-width:2.34919262px;stroke-linecap:butt;stroke-linejoin:bevel;marker:none;marker-start:none;marker-mid:none;marker-end:none;stroke-miterlimit:4;stroke-dasharray:none;stroke-dashoffset:0;stroke-opacity:1;visibility:visible;display:inline;overflow:visible;enable-background:accumulate"
         id="path5432"
         sodipodi:cx="33"
         sodipodi:cy="21.095238"
         sodipodi:rx="2.9047618"
         sodipodi:ry="6.8095236"
         d="M 35.904762,21.095238 A 2.9047618,6.8095236 0 1 1 30.095238,21.095238 A 2.9047618,6.8095236 0 1 1 35.904762,21.095238 z"
         transform="matrix(0.5768047,0,0,0.6320927,22.697586,2.1607619)" />
      <path
         transform="matrix(0.4066356,0,0,0.4456125,28.397823,6.22159)"
         d="M 35.904762,21.095238 A 2.9047618,6.8095236 0 1 1 30.095238,21.095238 A 2.9047618,6.8095236 0 1 1 35.904762,21.095238 z"
         sodipodi:ry="6.8095236"
         sodipodi:rx="2.9047618"
         sodipodi:cy="21.095238"
         sodipodi:cx="33"
         id="path5417"
         style="opacity:1;fill:#888a85;fill-opacity:1;fill-rule:evenodd;stroke:none;stroke-width:2.34919262px;stroke-linecap:butt;stroke-linejoin:bevel;marker:none;marker-start:none;marker-mid:none;marker-end:none;stroke-miterlimit:4;stroke-dasharray:none;stroke-dashoffset:0;stroke-opacity:1;visibility:visible;display:inline;overflow:visible;enable-background:accumulate"
         sodipodi:type="arc" />
      <path
         sodipodi:type="arc"
         style="opacity:1;fill:#eeeeec;fill-opacity:1;fill-rule:evenodd;stroke:none;stroke-width:2.34919262px;stroke-linecap:butt;stroke-linejoin:bevel;marker:none;marker-start:none;marker-mid:none;marker-end:none;stroke-miterlimit:4;stroke-dasharray:none;stroke-dashoffset:0;stroke-opacity:1;visibility:visible;display:inline;overflow:visible;enable-background:accumulate"
         id="path5434"
         sodipodi:cx="33"
         sodipodi:cy="21.095238"
         sodipodi:rx="2.9047618"
         sodipodi:ry="6.8095236"
         d="M 35.904762,21.095238 A 2.9047618,6.8095236 0 1 1 30.095238,21.095238 A 2.9047618,6.8095236 0 1 1 35.904762,21.095238 z"
         transform="matrix(0.3050721,0,0,0.3343138,32.00211,8.8194154)" />
    </g>
    <g
       id="g5442"
       transform="matrix(1.089739,0,0,1,-15.181895,5.3333333)">
      <path
         style="opacity:1;fill:url(#linearGradient5452);fill-opacity:1;fill-rule:evenodd;stroke:#000000;stroke-width:0.95794111px;stroke-linecap:butt;stroke-linejoin:bevel;marker:none;marker-start:none;marker-mid:none;marker-end:none;stroke-miterlimit:4;stroke-dasharray:none;stroke-dashoffset:0;stroke-opacity:1;visibility:visible;display:inline;overflow:visible;enable-background:accumulate"
         d="M 40,9.8125 C 38.769703,9.8125 37.781249,12.171754 37.78125,15.0625 C 37.78125,17.953246 38.769703,20.28125 40,20.28125 L 41.375,20.65625 C 42.605297,20.65625 43.59375,18.296996 43.59375,15.40625 C 43.59375,12.303864 42.77461,10.483796 41.713624,10.229828 L 40,9.8125 z"
         id="path5444"
         sodipodi:nodetypes="csccscc" />
      <path
         transform="matrix(0.5768047,0,0,0.6320927,22.697586,2.1607619)"
         d="M 35.904762,21.095238 A 2.9047618,6.8095236 0 1 1 30.095238,21.095238 A 2.9047618,6.8095236 0 1 1 35.904762,21.095238 z"
         sodipodi:ry="6.8095236"
         sodipodi:rx="2.9047618"
         sodipodi:cy="21.095238"
         sodipodi:cx="33"
         id="path5446"
         style="opacity:1;fill:#2e3436;fill-opacity:1;fill-rule:evenodd;stroke:none;stroke-width:2.34919262px;stroke-linecap:butt;stroke-linejoin:bevel;marker:none;marker-start:none;marker-mid:none;marker-end:none;stroke-miterlimit:4;stroke-dasharray:none;stroke-dashoffset:0;stroke-opacity:1;visibility:visible;display:inline;overflow:visible;enable-background:accumulate"
         sodipodi:type="arc" />
      <path
         sodipodi:type="arc"
         style="opacity:1;fill:#888a85;fill-opacity:1;fill-rule:evenodd;stroke:none;stroke-width:2.34919262px;stroke-linecap:butt;stroke-linejoin:bevel;marker:none;marker-start:none;marker-mid:none;marker-end:none;stroke-miterlimit:4;stroke-dasharray:none;stroke-dashoffset:0;stroke-opacity:1;visibility:visible;display:inline;overflow:visible;enable-background:accumulate"
         id="path5448"
         sodipodi:cx="33"
         sodipodi:cy="21.095238"
         sodipodi:rx="2.9047618"
         sodipodi:ry="6.8095236"
         d="M 35.904762,21.095238 A 2.9047618,6.8095236 0 1 1 30.095238,21.095238 A 2.9047618,6.8095236 0 1 1 35.904762,21.095238 z"
         transform="matrix(0.4066356,0,0,0.4456125,28.397823,6.22159)" />
      <path
         transform="matrix(0.3050721,0,0,0.3343138,32.00211,8.8194154)"
         d="M 35.904762,21.095238 A 2.9047618,6.8095236 0 1 1 30.095238,21.095238 A 2.9047618,6.8095236 0 1 1 35.904762,21.095238 z"
         sodipodi:ry="6.8095236"
         sodipodi:rx="2.9047618"
         sodipodi:cy="21.095238"
         sodipodi:cx="33"
         id="path5450"
         style="opacity:1;fill:#eeeeec;fill-opacity:1;fill-rule:evenodd;stroke:none;stroke-width:2.34919262px;stroke-linecap:butt;stroke-linejoin:bevel;marker:none;marker-start:none;marker-mid:none;marker-end:none;stroke-miterlimit:4;stroke-dasharray:none;stroke-dashoffset:0;stroke-opacity:1;visibility:visible;display:inline;overflow:visible;enable-background:accumulate"
         sodipodi:type="arc" />
    </g>
    <path
       style="fill:none;fill-rule:evenodd;stroke:#ffce89;stroke-width:1;stroke-linecap:butt;stroke-linejoin:miter;stroke-miterlimit:4;stroke-dasharray:none;stroke-opacity:1"
       d="M 7.4337279,24.963006 L 21.37754,22.212806 L 30.114566,31.893059 L 8.2515471,36.517355 L 7.4337279,24.963006 z"
       id="path5477"
       sodipodi:nodetypes="ccccc" />
    <path
       sodipodi:nodetypes="ccccc"
       id="path5479"
       d="M 9.0735962,38.652647 L 11.263146,44.468081 L 30.804797,40.083243 L 30.882834,33.866523 L 9.0735962,38.652647 z"
       style="fill:none;fill-rule:evenodd;stroke:#fcaf3e;stroke-width:1;stroke-linecap:butt;stroke-linejoin:miter;stroke-miterlimit:4;stroke-dasharray:none;stroke-opacity:1" />
  </g>
</svg>
