<?xml version="1.0" encoding="UTF-8" standalone="no"?>
<svg width="35.2778mm" height="35.2778mm"
 viewBox="0 0 100 100"
 xmlns="http://www.w3.org/2000/svg" xmlns:xlink="http://www.w3.org/1999/xlink"  version="1.2" baseProfile="tiny">
<title>CHOP_phoneme.icon</title>
<desc>Generated with Qt</desc>
<defs>
</defs>
<g fill="none" stroke="black" stroke-width="1" fill-rule="evenodd" stroke-linecap="square" stroke-linejoin="bevel" >

<g fill="none" stroke="#000000" stroke-opacity="1" stroke-width="1" stroke-linecap="square" stroke-linejoin="bevel" transform="matrix(1,0,0,1,0,0)"
font-family="MS Shell Dlg 2" font-size="8.25" font-weight="400" font-style="normal" 
>
</g>

<g fill="#cccccc" fill-opacity="1" stroke="#cccccc" stroke-opacity="1" stroke-width="1" stroke-linecap="square" stroke-linejoin="bevel" transform="matrix(1,0,0,1,0,0)"
font-family="MS Shell Dlg 2" font-size="8.25" font-weight="400" font-style="normal" 
>
<path vector-effect="non-scaling-stroke" fill-rule="evenodd" d="M31.4,40.4 L31.4,32.75 L22.6,32.75 L22.6,17.45 L13.4,17.45 L13.4,32.75 L6,32.75 L6,40.4 L13.4,40.4 L13.4,76.5 L13.9,81.1 L15.6,84.8 L18.9,87.3 L24.5,88.2 L32.25,88.2 L32.1,80.2 L26.5,80.2 L24.65,79.75 L23.2,78.4 L22.6,76 L22.6,40.4 L31.4,40.4"/>
</g>

<g fill="#cccccc" fill-opacity="1" stroke="#cccccc" stroke-opacity="1" stroke-width="1" stroke-linecap="square" stroke-linejoin="bevel" transform="matrix(1,0,0,1,0,0)"
font-family="MS Shell Dlg 2" font-size="8.25" font-weight="400" font-style="normal" 
>
<polyline fill="none" vector-effect="non-scaling-stroke" points="31.4,40.4 31.4,32.75 22.6,32.75 22.6,17.45 13.4,17.45 13.4,32.75 6,32.75 6,40.4 13.4,40.4 13.4,76.5 13.9,81.1 15.6,84.8 18.9,87.3 24.5,88.2 32.25,88.2 32.1,80.2 26.5,80.2 24.65,79.75 23.2,78.4 22.6,76 22.6,40.4 31.4,40.4 " />
</g>

<g fill="#cccccc" fill-opacity="1" stroke="#cccccc" stroke-opacity="1" stroke-width="1" stroke-linecap="square" stroke-linejoin="bevel" transform="matrix(1,0,0,1,0,0)"
font-family="MS Shell Dlg 2" font-size="8.25" font-weight="400" font-style="normal" 
>
<path vector-effect="non-scaling-stroke" fill-rule="evenodd" d="M85,50.2 L83.2,40.6 L78.6,34.8 L72.45,32 L65.85,31.2 L60,32 L55.5,34.3 L52.2,37.25 L49.8,40.1 L49.7,40.1 L49.6,40.1 L49.6,12.34 L41.8,12.24 L41.8,87.4 L49.6,87.5 L49.6,57.7 L50.95,49 L54.4,43.4 L59.4,40.3 L64.9,39.45 L70.3,40.3 L73.6,42.8 L75.3,46.7 L75.8,51.7 L75.8,57.3 L75.8,87.5 L85,87.5 L85,56 L85,50.2"/>
</g>

<g fill="#cccccc" fill-opacity="1" stroke="#cccccc" stroke-opacity="1" stroke-width="1" stroke-linecap="square" stroke-linejoin="bevel" transform="matrix(1,0,0,1,0,0)"
font-family="MS Shell Dlg 2" font-size="8.25" font-weight="400" font-style="normal" 
>
<polyline fill="none" vector-effect="non-scaling-stroke" points="85,50.2 83.2,40.6 78.6,34.8 72.45,32 65.85,31.2 60,32 55.5,34.3 52.2,37.25 49.8,40.1 49.7,40.1 49.7,40.1 49.6,40.1 49.6,12.34 41.8,12.24 41.8,87.4 49.6,87.5 49.6,57.7 50.95,49 54.4,43.4 59.4,40.3 64.9,39.45 70.3,40.3 73.6,42.8 75.3,46.7 75.8,51.7 75.8,57.3 75.8,87.5 85,87.5 85,56 85,50.2 " />
</g>
</g>
</svg>
