<?xml version="1.0" encoding="UTF-8" standalone="no"?>
<!-- Generator: Adobe Illustrator 15.0.0, SVG Export Plug-In . SVG Version: 6.00 Build 0)  -->
<svg
   xmlns:dc="http://purl.org/dc/elements/1.1/"
   xmlns:cc="http://creativecommons.org/ns#"
   xmlns:rdf="http://www.w3.org/1999/02/22-rdf-syntax-ns#"
   xmlns:svg="http://www.w3.org/2000/svg"
   xmlns="http://www.w3.org/2000/svg"
   xmlns:xlink="http://www.w3.org/1999/xlink"
   xmlns:sodipodi="http://sodipodi.sourceforge.net/DTD/sodipodi-0.dtd"
   xmlns:inkscape="http://www.inkscape.org/namespaces/inkscape"
   version="1.0"
   id="Layer_1"
   x="0px"
   y="0px"
   width="48"
   height="48"
   viewBox="0 0 612 792"
   enable-background="new 0 0 612 792"
   xml:space="preserve"
   sodipodi:version="0.32"
   inkscape:version="0.46"
   sodipodi:docname="Pitch.svg"
   inkscape:output_extension="org.inkscape.output.svg.inkscape"><metadata
   id="metadata24718"><rdf:RDF><cc:Work
       rdf:about=""><dc:format>image/svg+xml</dc:format><dc:type
         rdf:resource="http://purl.org/dc/dcmitype/StillImage" /></cc:Work></rdf:RDF></metadata><defs
   id="defs24716"><inkscape:perspective
   sodipodi:type="inkscape:persp3d"
   inkscape:vp_x="0 : 396 : 1"
   inkscape:vp_y="0 : 1000 : 0"
   inkscape:vp_z="612 : 396 : 1"
   inkscape:persp3d-origin="306 : 264 : 1"
   id="perspective24720" />
	
	
<radialGradient
   inkscape:collect="always"
   xlink:href="#SVGID_1_"
   id="radialGradient24800"
   gradientUnits="userSpaceOnUse"
   cx="331.2402"
   cy="629.97662"
   r="16.250999" /><radialGradient
   inkscape:collect="always"
   xlink:href="#SVGID_2_"
   id="radialGradient24802"
   gradientUnits="userSpaceOnUse"
   cx="331.44919"
   cy="629.54199"
   r="0.792" /><radialGradient
   inkscape:collect="always"
   xlink:href="#SVGID_3_"
   id="radialGradient24804"
   gradientUnits="userSpaceOnUse"
   cx="331.418"
   cy="629.52643"
   r="1.5576" /><radialGradient
   inkscape:collect="always"
   xlink:href="#SVGID_4_"
   id="radialGradient24806"
   gradientUnits="userSpaceOnUse"
   cx="331.418"
   cy="629.51068"
   r="2.6670001" /><radialGradient
   inkscape:collect="always"
   xlink:href="#SVGID_5_"
   id="radialGradient24808"
   gradientUnits="userSpaceOnUse"
   cx="331.41891"
   cy="629.67578"
   r="5.25" /><radialGradient
   inkscape:collect="always"
   xlink:href="#SVGID_6_"
   id="radialGradient24810"
   gradientUnits="userSpaceOnUse"
   cx="331.418"
   cy="629.74902"
   r="9.0830002" /><radialGradient
   inkscape:collect="always"
   xlink:href="#SVGID_7_"
   id="radialGradient24812"
   gradientUnits="userSpaceOnUse"
   cx="331.41891"
   cy="629.83301"
   r="10.6665" /><radialGradient
   inkscape:collect="always"
   xlink:href="#SVGID_8_"
   id="radialGradient24814"
   gradientUnits="userSpaceOnUse"
   cx="331.4541"
   cy="629.97662"
   r="12.1064" /><radialGradient
   inkscape:collect="always"
   xlink:href="#SVGID_9_"
   id="radialGradient24816"
   gradientUnits="userSpaceOnUse"
   cx="331.24121"
   cy="629.97662"
   r="16.250999" /><linearGradient
   inkscape:collect="always"
   xlink:href="#SVGID_10_"
   id="linearGradient24818"
   gradientUnits="userSpaceOnUse"
   x1="336.5029"
   y1="644.47461"
   x2="327.2529"
   y2="634.39062" />
		<radialGradient
   id="SVGID_1_"
   cx="331.2402"
   cy="629.97662"
   r="16.250999"
   gradientUnits="userSpaceOnUse">
			<stop
   offset="0.7975"
   style="stop-color:#FFF9E3;stop-opacity:0.95"
   id="stop24574" />
			<stop
   offset="0.8712"
   style="stop-color:#FFF8D1;stop-opacity:0.5"
   id="stop24576" />
			<stop
   offset="1"
   style="stop-color:#FDF9D1;stop-opacity:0"
   id="stop24578" />
		</radialGradient>
		
		<radialGradient
   id="SVGID_2_"
   cx="331.44919"
   cy="629.54199"
   r="0.792"
   gradientUnits="userSpaceOnUse">
			<stop
   offset="0.5744"
   style="stop-color:#CDA5CD;stop-opacity:0"
   id="stop24583" />
			<stop
   offset="0.6183"
   style="stop-color:#C198C6;stop-opacity:0.128"
   id="stop24585" />
			<stop
   offset="0.703"
   style="stop-color:#A478B5;stop-opacity:0.3748"
   id="stop24587" />
			<stop
   offset="0.7977"
   style="stop-color:#8453A1;stop-opacity:0.6512"
   id="stop24589" />
			<stop
   offset="1"
   style="stop-color:#8453A1;stop-opacity:0.95"
   id="stop24591" />
		</radialGradient>
		
		<radialGradient
   id="SVGID_3_"
   cx="331.418"
   cy="629.52643"
   r="1.5576"
   gradientUnits="userSpaceOnUse">
			<stop
   offset="0.5744"
   style="stop-color:#CDA5CD;stop-opacity:0"
   id="stop24596" />
			<stop
   offset="0.6183"
   style="stop-color:#C198C6;stop-opacity:0.128"
   id="stop24598" />
			<stop
   offset="0.703"
   style="stop-color:#A478B5;stop-opacity:0.3748"
   id="stop24600" />
			<stop
   offset="0.7977"
   style="stop-color:#8453A1;stop-opacity:0.6512"
   id="stop24602" />
			<stop
   offset="1"
   style="stop-color:#8453A1;stop-opacity:0.95"
   id="stop24604" />
		</radialGradient>
		
		<radialGradient
   id="SVGID_4_"
   cx="331.418"
   cy="629.51068"
   r="2.6670001"
   gradientUnits="userSpaceOnUse">
			<stop
   offset="0.5744"
   style="stop-color:#CDA5CD;stop-opacity:0"
   id="stop24609" />
			<stop
   offset="0.6183"
   style="stop-color:#C198C6;stop-opacity:0.128"
   id="stop24611" />
			<stop
   offset="0.703"
   style="stop-color:#A478B5;stop-opacity:0.3748"
   id="stop24613" />
			<stop
   offset="0.7977"
   style="stop-color:#8453A1;stop-opacity:0.6512"
   id="stop24615" />
			<stop
   offset="1"
   style="stop-color:#8453A1;stop-opacity:0.95"
   id="stop24617" />
		</radialGradient>
		
		<radialGradient
   id="SVGID_5_"
   cx="331.41891"
   cy="629.67578"
   r="5.25"
   gradientUnits="userSpaceOnUse">
			<stop
   offset="0.5744"
   style="stop-color:#CDA5CD;stop-opacity:0"
   id="stop24622" />
			<stop
   offset="0.6328"
   style="stop-color:#C198C6;stop-opacity:0.128"
   id="stop24624" />
			<stop
   offset="0.7452"
   style="stop-color:#A478B5;stop-opacity:0.3748"
   id="stop24626" />
			<stop
   offset="0.8712"
   style="stop-color:#8453A1;stop-opacity:0.6512"
   id="stop24628" />
			<stop
   offset="1"
   style="stop-color:#8453A1;stop-opacity:0.95"
   id="stop24630" />
		</radialGradient>
		
		<radialGradient
   id="SVGID_6_"
   cx="331.418"
   cy="629.74902"
   r="9.0830002"
   gradientUnits="userSpaceOnUse">
			<stop
   offset="0.7117"
   style="stop-color:#CDA5CD;stop-opacity:0"
   id="stop24635" />
			<stop
   offset="0.7503"
   style="stop-color:#C198C6;stop-opacity:0.128"
   id="stop24637" />
			<stop
   offset="0.8247"
   style="stop-color:#A478B5;stop-opacity:0.3748"
   id="stop24639" />
			<stop
   offset="0.908"
   style="stop-color:#8453A1;stop-opacity:0.6512"
   id="stop24641" />
			<stop
   offset="1"
   style="stop-color:#8453A1;stop-opacity:0.95"
   id="stop24643" />
		</radialGradient>
		
		<radialGradient
   id="SVGID_7_"
   cx="331.41891"
   cy="629.83301"
   r="10.6665"
   gradientUnits="userSpaceOnUse">
			<stop
   offset="0.8589"
   style="stop-color:#CDA5CD;stop-opacity:0"
   id="stop24648" />
			<stop
   offset="0.8794"
   style="stop-color:#C198C6;stop-opacity:0.128"
   id="stop24650" />
			<stop
   offset="0.9189"
   style="stop-color:#A478B5;stop-opacity:0.3748"
   id="stop24652" />
			<stop
   offset="0.9632"
   style="stop-color:#8453A1;stop-opacity:0.6512"
   id="stop24654" />
			<stop
   offset="1"
   style="stop-color:#8453A1;stop-opacity:0.95"
   id="stop24656" />
		</radialGradient>
		
		<radialGradient
   id="SVGID_8_"
   cx="331.4541"
   cy="629.97662"
   r="12.1064"
   gradientUnits="userSpaceOnUse">
			<stop
   offset="0.8589"
   style="stop-color:#CDA5CD;stop-opacity:0"
   id="stop24661" />
			<stop
   offset="0.8794"
   style="stop-color:#C198C6;stop-opacity:0.128"
   id="stop24663" />
			<stop
   offset="0.9189"
   style="stop-color:#A478B5;stop-opacity:0.3748"
   id="stop24665" />
			<stop
   offset="0.9632"
   style="stop-color:#8453A1;stop-opacity:0.6512"
   id="stop24667" />
			<stop
   offset="1"
   style="stop-color:#8453A1;stop-opacity:0.95"
   id="stop24669" />
		</radialGradient>
		
		<radialGradient
   id="SVGID_9_"
   cx="331.24121"
   cy="629.97662"
   r="16.250999"
   gradientUnits="userSpaceOnUse">
			<stop
   offset="0.8589"
   style="stop-color:#CDA5CD;stop-opacity:0"
   id="stop24674" />
			<stop
   offset="0.8794"
   style="stop-color:#C198C6;stop-opacity:0.128"
   id="stop24676" />
			<stop
   offset="0.9189"
   style="stop-color:#A478B5;stop-opacity:0.3748"
   id="stop24678" />
			<stop
   offset="0.9632"
   style="stop-color:#8453A1;stop-opacity:0.6512"
   id="stop24680" />
			<stop
   offset="1"
   style="stop-color:#8453A1;stop-opacity:0.95"
   id="stop24682" />
		</radialGradient>
		
		
			
		
		
		
		<linearGradient
   id="SVGID_10_"
   gradientUnits="userSpaceOnUse"
   x1="336.5029"
   y1="644.47461"
   x2="327.2529"
   y2="634.39062">
			<stop
   offset="0"
   style="stop-color:#E8D4AC"
   id="stop24695" />
			<stop
   offset="0.1243"
   style="stop-color:#EEDEC0;stop-opacity:0.8757"
   id="stop24697" />
			<stop
   offset="0.3114"
   style="stop-color:#F4EAD7;stop-opacity:0.6886"
   id="stop24699" />
			<stop
   offset="0.5108"
   style="stop-color:#F9F3EA;stop-opacity:0.4892"
   id="stop24701" />
			<stop
   offset="0.7287"
   style="stop-color:#FDFCF8;stop-opacity:0.2713"
   id="stop24703" />
			<stop
   offset="1"
   style="stop-color:#FFFFFF;stop-opacity:0"
   id="stop24705" />
		</linearGradient>
		
		
		
		
	<linearGradient
   inkscape:collect="always"
   xlink:href="#SVGID_10_"
   id="linearGradient24883"
   gradientUnits="userSpaceOnUse"
   x1="336.5029"
   y1="644.47461"
   x2="327.2529"
   y2="634.39062"
   gradientTransform="matrix(16.655881,0,0,16.655881,-5220.4904,-10218.379)" /><radialGradient
   inkscape:collect="always"
   xlink:href="#SVGID_9_"
   id="radialGradient24898"
   gradientUnits="userSpaceOnUse"
   cx="331.24121"
   cy="629.97662"
   r="16.250999" /><radialGradient
   inkscape:collect="always"
   xlink:href="#SVGID_8_"
   id="radialGradient24900"
   gradientUnits="userSpaceOnUse"
   cx="331.4541"
   cy="629.97662"
   r="12.1064" /><radialGradient
   inkscape:collect="always"
   xlink:href="#SVGID_7_"
   id="radialGradient24902"
   gradientUnits="userSpaceOnUse"
   cx="331.41891"
   cy="629.83301"
   r="10.6665" /><radialGradient
   inkscape:collect="always"
   xlink:href="#SVGID_6_"
   id="radialGradient24904"
   gradientUnits="userSpaceOnUse"
   cx="331.418"
   cy="629.74902"
   r="9.0830002" /><radialGradient
   inkscape:collect="always"
   xlink:href="#SVGID_5_"
   id="radialGradient24906"
   gradientUnits="userSpaceOnUse"
   cx="331.41891"
   cy="629.67578"
   r="5.25" /><radialGradient
   inkscape:collect="always"
   xlink:href="#SVGID_4_"
   id="radialGradient24908"
   gradientUnits="userSpaceOnUse"
   cx="331.418"
   cy="629.51068"
   r="2.6670001" /><radialGradient
   inkscape:collect="always"
   xlink:href="#SVGID_3_"
   id="radialGradient24910"
   gradientUnits="userSpaceOnUse"
   cx="331.418"
   cy="629.52643"
   r="1.5576" /><radialGradient
   inkscape:collect="always"
   xlink:href="#SVGID_2_"
   id="radialGradient24912"
   gradientUnits="userSpaceOnUse"
   cx="331.44919"
   cy="629.54199"
   r="0.792" /><radialGradient
   inkscape:collect="always"
   xlink:href="#SVGID_1_"
   id="radialGradient24914"
   gradientUnits="userSpaceOnUse"
   cx="331.2402"
   cy="629.97662"
   r="16.250999" /></defs><sodipodi:namedview
   inkscape:window-height="1538"
   inkscape:window-width="2560"
   inkscape:pageshadow="2"
   inkscape:pageopacity="0.0"
   guidetolerance="10.0"
   gridtolerance="10.0"
   objecttolerance="10.0"
   borderopacity="1.0"
   bordercolor="#666666"
   pagecolor="#ffffff"
   id="base"
   showgrid="false"
   inkscape:zoom="18.666667"
   inkscape:cx="23.838343"
   inkscape:cy="21.508793"
   inkscape:window-x="0"
   inkscape:window-y="24"
   inkscape:current-layer="Layer_1" />
<path
   sodipodi:type="arc"
   style="fill:#ffffff;fill-opacity:0.39215687;fill-rule:evenodd;stroke:#26aeff;stroke-width:16.50000000000000000;stroke-linecap:round;stroke-linejoin:miter;marker:none;marker-start:none;marker-mid:none;marker-end:none;stroke-miterlimit:4;stroke-dasharray:none;stroke-dashoffset:0;stroke-opacity:1;visibility:visible;display:inline;overflow:visible;enable-background:accumulate"
   id="path24916"
   sodipodi:cx="334.72769"
   sodipodi:cy="370.80804"
   sodipodi:rx="368.15625"
   sodipodi:ry="368.15625"
   d="M 702.88394,370.80804 A 368.15625,368.15625 0 1 1 -33.428558,370.80804 A 368.15625,368.15625 0 1 1 702.88394,370.80804 z"
   transform="translate(-8.8392857,5.3035714)" /><path
   transform="matrix(0.8343337,0,0,0.8343337,46.613801,66.733956)"
   d="M 702.88394,370.80804 A 368.15625,368.15625 0 1 1 -33.428558,370.80804 A 368.15625,368.15625 0 1 1 702.88394,370.80804 z"
   sodipodi:ry="368.15625"
   sodipodi:rx="368.15625"
   sodipodi:cy="370.80804"
   sodipodi:cx="334.72769"
   id="path25427"
   style="fill:#ffffff;fill-opacity:0.39215687;fill-rule:evenodd;stroke:#26aeff;stroke-width:19.77625846999999800;stroke-linecap:round;stroke-linejoin:miter;marker:none;marker-start:none;marker-mid:none;marker-end:none;stroke-miterlimit:4;stroke-dasharray:none;stroke-dashoffset:0;stroke-opacity:1;visibility:visible;display:inline;overflow:visible;enable-background:accumulate"
   sodipodi:type="arc" /><path
   sodipodi:type="arc"
   style="fill:#ffffff;fill-opacity:0.39215687;fill-rule:evenodd;stroke:#26aeff;stroke-width:25.50000000000000000;stroke-linecap:round;stroke-linejoin:miter;marker:none;marker-start:none;marker-mid:none;marker-end:none;stroke-miterlimit:4;stroke-dasharray:none;stroke-dashoffset:0;stroke-opacity:1;visibility:visible;display:inline;overflow:visible;enable-background:accumulate"
   id="path25429"
   sodipodi:cx="334.72769"
   sodipodi:cy="370.80804"
   sodipodi:rx="368.15625"
   sodipodi:ry="368.15625"
   d="M 702.88394,370.80804 A 368.15625,368.15625 0 1 1 -33.428558,370.80804 A 368.15625,368.15625 0 1 1 702.88394,370.80804 z"
   transform="matrix(0.6470588,0,0,0.6470588,109.2999,136.177)" /><path
   transform="matrix(0.4645858,0,0,0.4645858,170.37866,203.83945)"
   d="M 702.88394,370.80804 A 368.15625,368.15625 0 1 1 -33.428558,370.80804 A 368.15625,368.15625 0 1 1 702.88394,370.80804 z"
   sodipodi:ry="368.15625"
   sodipodi:rx="368.15625"
   sodipodi:cy="370.80804"
   sodipodi:cx="334.72769"
   id="path25431"
   style="fill:#ffffff;fill-opacity:0.39215687;fill-rule:evenodd;stroke:#26aeff;stroke-width:35.51550292999999700;stroke-linecap:round;stroke-linejoin:miter;marker:none;marker-start:none;marker-mid:none;marker-end:none;stroke-miterlimit:4;stroke-dasharray:none;stroke-dashoffset:0;stroke-opacity:1;visibility:visible;display:inline;overflow:visible;enable-background:accumulate"
   sodipodi:type="arc" /><path
   sodipodi:type="arc"
   style="fill:#ffffff;fill-opacity:0.39215687;fill-rule:evenodd;stroke:#26aeff;stroke-width:56.10000228999999900;stroke-linecap:round;stroke-linejoin:miter;marker:none;marker-start:none;marker-mid:none;marker-end:none;stroke-miterlimit:4;stroke-dasharray:none;stroke-dashoffset:0;stroke-opacity:1;visibility:visible;display:inline;overflow:visible;enable-background:accumulate"
   id="path25433"
   sodipodi:cx="334.72769"
   sodipodi:cy="370.80804"
   sodipodi:rx="368.15625"
   sodipodi:ry="368.15625"
   d="M 702.88394,370.80804 A 368.15625,368.15625 0 1 1 -33.428558,370.80804 A 368.15625,368.15625 0 1 1 702.88394,370.80804 z"
   transform="matrix(0.2941176,0,0,0.2941176,227.43908,267.05043)" /><path
   transform="matrix(0.147659,0,0,0.147659,276.46282,321.35845)"
   d="M 702.88394,370.80804 A 368.15625,368.15625 0 1 1 -33.428558,370.80804 A 368.15625,368.15625 0 1 1 702.88394,370.80804 z"
   sodipodi:ry="368.15625"
   sodipodi:rx="368.15625"
   sodipodi:cy="370.80804"
   sodipodi:cx="334.72769"
   id="path25435"
   style="fill:#ffffff;fill-opacity:0.39215687;fill-rule:evenodd;stroke:#26aeff;stroke-width:111.74392700000000000;stroke-linecap:round;stroke-linejoin:miter;marker:none;marker-start:none;marker-mid:none;marker-end:none;stroke-miterlimit:4;stroke-dasharray:none;stroke-dashoffset:0;stroke-opacity:1;visibility:visible;display:inline;overflow:visible;enable-background:accumulate"
   sodipodi:type="arc" /><path
   stroke-miterlimit="10"
   d="M 321.0877,627.94739 C 320.77124,627.94739 320.45478,627.94739 320.13832,627.94739 C 271.20334,627.94739 227.96467,594.93543 207.29473,541.7532 C 190.62219,498.84765 140.6712,235.75136 138.55591,224.55861 L 137.45662,218.72905 L 179.92911,194.42812 L 234.2606,186.30005 L 235.59307,194.42812 C 235.94284,196.75994 273.61844,428.64312 296.52028,485.98931 L 298.93538,492.0354 C 311.12749,522.89874 317.83981,539.88774 348.66984,539.88774 C 354.93245,539.88774 362.17776,539.15488 370.23921,537.70582 C 372.07136,537.37271 373.7536,536.97296 375.38588,536.55657 C 378.53384,529.79428 380.43261,520.86673 381.5319,507.64196 C 382.63118,493.95082 354.7659,317.59836 335.76154,202.40629 L 334.84546,196.84322 L 376.35192,171.67619 L 432.56551,163.26496 L 433.99792,171.24313 C 436.14653,183.21871 486.28073,464.71975 483.14942,501.06289 C 479.63503,541.93642 457.78252,576.28084 425.55339,592.33711 L 459.01505,754.41549 L 421.37276,779.53256 L 356.73129,788.79323 L 321.0877,627.94739 z"
   id="path24686"
   style="fill:none;stroke:#8f7221;stroke-width:11.65911674;stroke-linecap:round;stroke-linejoin:round;stroke-miterlimit:10" /><path
   stroke-miterlimit="10"
   d="M 425.78657,172.70885 L 379.23338,179.67101 L 343.95623,201.0405 C 343.95623,201.0405 391.44215,488.85412 389.80987,508.3415 C 388.61065,522.64891 386.42872,534.35799 381.04888,543.65197 C 378.06747,544.45145 375.15269,545.3009 371.68827,545.91717 C 312.21012,556.6269 304.71497,528.92817 288.7753,489.08731 C 265.25719,430.20877 227.34841,195.76059 227.34841,195.76059 L 182.69399,202.4396 L 146.73394,223.00961 C 146.73394,223.00961 198.45045,496.04946 215.05637,538.72183 C 235.85956,592.23718 279.64787,622.91731 327.71675,619.33629 L 363.19377,779.44928 L 420.1902,771.2879 L 420.14023,771.03806 L 449.73773,750.68457 L 416.07619,587.59019 C 416.14282,587.52356 416.20944,587.45694 416.27606,587.39032 C 450.18744,573.466 471.57359,538.55527 474.87145,500.31337 C 477.91948,464.68644 425.78657,172.70885 425.78657,172.70885 z"
   id="path24688"
   style="fill:none;stroke:#f3e8d4;stroke-width:16.65587997;stroke-linecap:round;stroke-linejoin:round;stroke-miterlimit:10" /><path
   d="M 420.17354,770.67163 L 363.17712,778.83301 L 327.70009,618.72003 C 279.63122,622.30104 235.84291,591.62091 215.03971,538.10556 C 198.45045,495.41654 146.71729,222.39334 146.71729,222.39334 L 197.53438,215.73099 C 197.53438,215.73099 235.44317,450.14586 258.97792,509.05771 C 274.90095,548.88192 282.37944,576.56399 341.8909,565.85426 C 380.53254,558.92542 387.14493,539.43803 389.79321,507.72524 C 391.42549,488.23786 343.93957,200.44089 343.93957,200.44089 L 396.38894,192.59597 C 396.38894,192.59597 448.33863,484.62353 445.29061,520.28377 C 441.99274,558.60895 420.52331,593.60296 386.47869,607.49396 L 420.17354,770.67163 z"
   id="path24690"
   style="fill:#e0b93b" /><path
   d="M 259.0612,508.99108 C 274.96757,548.8153 282.46272,576.46406 341.95752,565.75433 C 363.1438,561.97344 374.50311,554.27842 381.08219,543.01905 C 378.10078,543.83519 375.18601,544.68464 371.70493,545.3009 C 312.22678,556.01064 304.73163,528.31191 288.79195,488.47104 C 265.27385,429.5925 227.36506,195.14432 227.36506,195.14432 L 197.63431,215.63106 C 197.61766,215.6144 235.52644,450.06258 259.0612,508.99108 z"
   id="path24692"
   style="fill:#937522" /><path
   d="M 259.0612,508.99108 C 274.96757,548.8153 282.46272,576.46406 341.95752,565.75433 C 363.1438,561.97344 374.50311,554.27842 381.08219,543.01905 C 378.10078,543.83519 375.18601,544.68464 371.70493,545.3009 C 312.22678,556.01064 304.73163,528.31191 288.79195,488.47104 C 265.27385,429.5925 227.36506,195.14432 227.36506,195.14432 L 197.63431,215.63106 C 197.61766,215.6144 235.52644,450.06258 259.0612,508.99108 z"
   id="path24707"
   style="fill:url(#linearGradient24883)" /><path
   d="M 474.83814,499.71376 C 477.91948,464.05352 425.93647,172.02596 425.93647,172.02596 L 396.20573,192.49604 C 396.20573,192.49604 448.17208,484.5236 445.10739,520.18384 C 441.80953,558.54233 420.35675,593.50302 386.31213,607.36072 L 419.69052,770.73825 L 449.73773,750.08496 L 416.05954,586.90729 C 450.0875,573.03295 471.54028,538.03894 474.83814,499.71376 z"
   id="path24709"
   style="fill:#937522" /><polygon
   points="322.242,626.852 325.297,626.445 327.082,625.215 324.401,625.617 322.242,626.852 "
   id="polygon24711"
   style="fill:#e7d3ab"
   transform="matrix(16.655881,0,0,16.655881,-5220.4904,-10218.379)" /><polygon
   points="334.094,625.533 337.211,625.063 338.996,623.832 336.201,624.25 334.094,625.533 "
   id="polygon24713"
   style="fill:#e7d3ab"
   transform="matrix(16.655881,0,0,16.655881,-5220.4904,-10218.379)" />

</svg>