<?xml version="1.0" encoding="UTF-8" standalone="no"?>
<!-- Created with Inkscape (http://www.inkscape.org/) -->

<svg
   xmlns:dc="http://purl.org/dc/elements/1.1/"
   xmlns:cc="http://creativecommons.org/ns#"
   xmlns:rdf="http://www.w3.org/1999/02/22-rdf-syntax-ns#"
   xmlns:svg="http://www.w3.org/2000/svg"
   xmlns="http://www.w3.org/2000/svg"
   xmlns:xlink="http://www.w3.org/1999/xlink"
   xmlns:sodipodi="http://sodipodi.sourceforge.net/DTD/sodipodi-0.dtd"
   xmlns:inkscape="http://www.inkscape.org/namespaces/inkscape"
   width="48px"
   height="48px"
   id="svg10151"
   version="1.1"
   inkscape:version="0.48.5 r10040"
   sodipodi:docname="New document 13">
  <defs
     id="defs10153">
    <linearGradient
       id="linearGradient3862">
      <stop
         style="stop-color:#e9b96e;stop-opacity:1"
         offset="0"
         id="stop3864" />
      <stop
         id="stop3948"
         offset="0.76889235"
         style="stop-color:#c17d11;stop-opacity:1;" />
      <stop
         style="stop-color:#905d0d;stop-opacity:1;"
         offset="1"
         id="stop3866" />
    </linearGradient>
    <linearGradient
       id="linearGradient3962">
      <stop
         style="stop-color:#edc78b;stop-opacity:0.64864862;"
         offset="0"
         id="stop3964" />
      <stop
         style="stop-color:#e9b96e;stop-opacity:0;"
         offset="1"
         id="stop3966" />
    </linearGradient>
    <linearGradient
       id="linearGradient3942">
      <stop
         id="stop3944"
         offset="0"
         style="stop-color:#e9b96e;stop-opacity:0.65765768;" />
      <stop
         id="stop3946"
         offset="1"
         style="stop-color:#ffffff;stop-opacity:0;" />
    </linearGradient>
    <linearGradient
       id="linearGradient3896">
      <stop
         style="stop-color:#955d03;stop-opacity:1;"
         offset="0"
         id="stop3898" />
      <stop
         style="stop-color:#6c4402;stop-opacity:1;"
         offset="1"
         id="stop3900" />
    </linearGradient>
    <linearGradient
       inkscape:collect="always"
       id="linearGradient3922">
      <stop
         style="stop-color:#ecc384;stop-opacity:1;"
         offset="0"
         id="stop3924" />
      <stop
         style="stop-color:#ecc384;stop-opacity:0;"
         offset="1"
         id="stop3926" />
    </linearGradient>
    <radialGradient
       inkscape:collect="always"
       xlink:href="#linearGradient3922"
       id="radialGradient3940"
       gradientUnits="userSpaceOnUse"
       gradientTransform="matrix(1,0,0,0.6724138,0,1.916833)"
       cx="26.011429"
       cy="5.8513851"
       fx="26.011429"
       fy="5.8513851"
       r="1.4647212" />
  </defs>
  <sodipodi:namedview
     id="base"
     pagecolor="#ffffff"
     bordercolor="#666666"
     borderopacity="1.0"
     inkscape:pageopacity="0.0"
     inkscape:pageshadow="2"
     inkscape:zoom="14"
     inkscape:cx="10.397859"
     inkscape:cy="19.928571"
     inkscape:current-layer="layer1"
     showgrid="true"
     inkscape:grid-bbox="true"
     inkscape:document-units="px"
     inkscape:window-width="2560"
     inkscape:window-height="1377"
     inkscape:window-x="-8"
     inkscape:window-y="-8"
     inkscape:window-maximized="1" />
  <metadata
     id="metadata10156">
    <rdf:RDF>
      <cc:Work
         rdf:about="">
        <dc:format>image/svg+xml</dc:format>
        <dc:type
           rdf:resource="http://purl.org/dc/dcmitype/StillImage" />
        <dc:title></dc:title>
      </cc:Work>
    </rdf:RDF>
  </metadata>
  <g
     id="layer1"
     inkscape:label="Layer 1"
     inkscape:groupmode="layer">
    <path
       style="fill:#fdeaea;fill-opacity:1;stroke:none"
       d="m 32.927293,30.784523 c -1.813481,-4.222745 -8.759748,-5.886527 -10.103535,-5.813117 -1.343788,0.07342 -4.385122,-0.285669 -6.268618,1.692428 0.344158,-1.349036 -1.641005,-6.805332 -1.524136,-9.247026 0.116863,-2.441695 0.10329,-5.226385 1.573301,-5.665949 0.58924,1.221954 2.192916,1.822605 3.441595,1.128284 0.681663,0.603311 1.481818,0.654888 2.359949,0.343392 0.465368,0.343993 1.31911,0.304009 1.524134,-0.245279 2.031396,0.529774 3.909074,-2.717099 3.859496,-3.7773009 C 27.739906,8.1397538 27.141219,7.4636639 26.533146,6.5526783 25.915492,5.6273391 25.335519,4.6429966 25.109959,4.3924835 24.884398,4.1419705 23.536659,3.4604226 23.536659,3.4604226 22.097283,3.252965 20.719841,2.7983167 19.160918,3.067976 17.423883,2.412238 15.620842,2.4809677 13.752699,3.2641994 12.777958,3.8631833 11.409324,4.7064036 11.024008,5.2264328 10.63869,5.746462 7.3501124,14.157256 5.4771687,17.158519 3.1394711,20.904515 1.1882581,26.782606 0.87130508,28.577011 c -0.3169529,1.794403 -0.3045439,4.453659 0.098333,6.769705 -0.3143538,1.687342 -0.075756,3.052854 1.17997522,3.826355 2.7714582,2.398814 6.1323212,3.180379 9.6856287,3.433908 5.778312,3.652725 12.741295,3.81848 21.141218,-0.245278 2.27934,-4.580142 1.764317,-7.354434 -0.04915,-11.577178 z"
       id="path3004"
       inkscape:connector-curvature="0"
       sodipodi:nodetypes="zzczcccczszccczszccccz" />
    <path
       sodipodi:nodetypes="cccc"
       inkscape:connector-curvature="0"
       id="path3988"
       d="m 10.929887,42.063118 c 2.166411,-0.03238 3.892288,-1.15333 5.790162,-1.849267 -1.387452,1.064189 -2.358669,2.645716 -4.409241,2.885717 z"
       style="color:#000000;fill:#000000;fill-opacity:0.20618555;fill-rule:nonzero;stroke:none;stroke-width:0.1;marker:none;visibility:visible;display:inline;overflow:visible;enable-background:accumulate" />
    <path
       style="color:#000000;fill:#000000;fill-opacity:0.20618555;stroke:none;stroke-width:0.1;marker:none;visibility:visible;display:inline;overflow:visible;enable-background:accumulate"
       d="M 15.182421,11.274669 C 13.581283,10.978478 13.198988,10.027453 12.769385,9.1018443 13.704191,9.9512271 14.9113,10.420236 16.309312,10.622576 16.205803,9.7297702 15.087497,9.3391672 15.227668,8.1207272 c 0.549119,0.416669 1.296569,1.1068654 1.5733,1.4716756 0.271732,-0.3217695 0.400683,-1.2133839 0.589986,-1.8641219 l 0.147498,4.1206901 c 0.737485,0.665937 1.47497,0.430001 2.212454,0.294336 -0.23264,-1.650271 -0.181183,-3.4139264 0.04915,-5.2489755 0.416784,1.6234916 0.642358,3.3423745 0.688319,5.1508625 1.03444,0.953308 1.417114,0.280835 1.720798,-0.588669 0.03089,-1.4572096 -0.257349,-3.23283 -0.491652,-4.9546398 0.756261,0.9868283 1.127081,3.0312538 1.524134,5.0036958 0.827584,0.405214 1.345474,0.148278 1.524135,-0.83395 l -0.983312,-4.5621925 1.769963,4.0716345 c 0.663402,-0.03459 1.299983,-0.12652 1.327471,-1.5207318 l -1.917459,-4.3659693 2.851607,4.2678584 -0.884982,3.5320197 -3.244931,1.128285 -5.162392,0 -2.359949,-1.226396 z"
       id="path3774"
       inkscape:connector-curvature="0"
       sodipodi:nodetypes="cccccccccccccccccc" />
    <path
       style="color:#000000;fill:#000000;fill-opacity:0.20618555;stroke:none;stroke-width:0.1;marker:none;visibility:visible;display:inline;overflow:visible;enable-background:accumulate"
       d="M 13.413218,3.7730976 18.454192,4.9177921 14.803831,3.1834065 z"
       id="path3801"
       inkscape:connector-curvature="0" />
    <path
       style="color:#000000;fill:#000000;fill-opacity:0.20618555;fill-rule:nonzero;stroke:none;stroke-width:0.1;marker:none;visibility:visible;display:inline;overflow:visible;enable-background:accumulate"
       d="m 15.429518,3.0793433 1.874565,-0.3441321 1.914993,0.5643591 2.850758,1.4915716 z"
       id="path3809"
       inkscape:connector-curvature="0"
       sodipodi:nodetypes="ccccc" />
    <path
       style="color:#000000;fill:#000000;fill-opacity:0.20618555;stroke:none;stroke-width:0.1;marker:none;visibility:visible;display:inline;overflow:visible;enable-background:accumulate"
       d="m 16.542145,34.206324 c 1.693586,0.949826 4.595829,1.730514 8.310333,1.193357 2.914619,-0.421489 5.786368,-1.318251 7.299308,-3.448059 0.157002,0.88576 0.08036,2.032526 -1.008196,2.324077 l 1.773033,1.110008 c 0,0 -0.877868,-0.194156 -2.155451,-0.138751 -1.277583,0.05539 -4.359547,1.513709 -7.648377,1.665008 -3.288829,0.151301 -6.316383,-1.621373 -6.57065,-2.70564 z"
       id="path3817"
       inkscape:connector-curvature="0"
       sodipodi:nodetypes="csccczzc" />
    <path
       style="color:#000000;fill:#000000;fill-opacity:0.20618555;fill-rule:nonzero;stroke:none;stroke-width:0.1;marker:none;visibility:visible;display:inline;overflow:visible;enable-background:accumulate"
       d="m 16.277162,25.175551 c -0.470658,2.760001 -2.015034,5.59233 -4.059997,6.981811 2.548607,-0.933695 4.045079,-4.204539 5.267921,-6.090332 l -0.917109,0.589697 z"
       id="path3827"
       inkscape:connector-curvature="0"
       sodipodi:nodetypes="ccccc" />
    <path
       style="color:#000000;fill:#000000;fill-opacity:0.20618555;fill-rule:nonzero;stroke:none;stroke-width:0.1;marker:none;visibility:visible;display:inline;overflow:visible;enable-background:accumulate"
       d="M 0.92047038,37.210839 C 3.2634235,38.121708 5.6075116,37.670104 7.9511563,37.750452 5.995614,38.288774 4.261913,39.564913 1.9529485,38.927793 z"
       id="path3846"
       inkscape:connector-curvature="0"
       sodipodi:nodetypes="cccc" />
    <path
       sodipodi:nodetypes="zzczcccczszccczszccccz"
       inkscape:connector-curvature="0"
       id="path10602"
       d="m 32.927293,30.784523 c -1.813482,-4.222745 -8.759748,-5.886527 -10.103535,-5.813117 -1.343788,0.07342 -4.385122,-0.285669 -6.268618,1.692428 0.344158,-1.349036 -1.641005,-6.805332 -1.524136,-9.247026 0.116863,-2.441695 0.10329,-5.226385 1.573301,-5.665949 0.58924,1.221954 2.192916,1.822605 3.441595,1.128284 0.681663,0.603311 1.481818,0.654888 2.359949,0.343392 0.465368,0.343993 1.31911,0.304009 1.524134,-0.245279 2.031396,0.529774 3.909074,-2.717099 3.859496,-3.7773009 C 27.739906,8.1397538 27.141219,7.4636639 26.533146,6.5526783 25.915492,5.6273391 25.335519,4.6429966 25.109959,4.3924836 24.884398,4.1419705 23.536659,3.4604227 23.536659,3.4604227 22.097283,3.2529651 20.719841,2.7983168 19.160918,3.067976 17.423882,2.4122381 15.620842,2.4809678 13.752699,3.2641994 12.777958,3.8631833 11.409324,4.7064036 11.024008,5.2264328 10.63869,5.746462 7.3501123,14.157256 5.4771686,17.158519 3.1394711,20.904515 1.188258,26.782606 0.87130508,28.577011 c -0.3169529,1.794403 -0.304544,4.453659 0.098333,6.769705 -0.3143539,1.687342 -0.075756,3.052854 1.17997522,3.826355 2.7714582,2.398813 6.1323212,3.180379 9.6856287,3.433908 5.778312,3.652724 12.741295,3.81848 21.141218,-0.245278 2.27934,-4.580142 1.764317,-7.354434 -0.04915,-11.577178 z"
       style="fill:none;stroke:#888a85;stroke-width:1" />
    <path
       style="fill:#e8eff7;fill-opacity:1;stroke:none"
       d="m 45.92729,30.784523 c -1.81348,-4.222745 -8.759745,-5.886527 -10.103532,-5.813117 -1.343788,0.07342 -4.385122,-0.285669 -6.268618,1.692428 0.344158,-1.349036 -1.641005,-6.805332 -1.524136,-9.247026 0.116863,-2.441695 0.10329,-5.226385 1.573301,-5.665949 0.58924,1.221954 2.192916,1.822605 3.441595,1.128284 0.681663,0.603311 1.481818,0.654888 2.359949,0.343392 0.465368,0.343993 1.31911,0.304009 1.524134,-0.245279 C 38.961379,13.50703 40.83906,10.260157 40.78948,9.1999551 40.73988,8.1397538 40.14122,7.4636639 39.53315,6.5526783 38.915492,5.6273391 38.335519,4.6429966 38.109959,4.3924835 37.884398,4.1419705 36.536659,3.4604226 36.536659,3.4604226 35.097283,3.252965 33.719841,2.7983167 32.160918,3.067976 30.423883,2.412238 28.620842,2.4809677 26.752699,3.2641994 25.777958,3.8631833 24.409324,4.7064036 24.024008,5.2264328 23.63869,5.746462 20.350112,14.157256 18.477168,17.158519 c -2.337697,3.745996 -4.28891,9.624087 -4.605863,11.418492 -0.316953,1.794403 -0.304544,4.453659 0.09833,6.769705 -0.314354,1.687342 -0.07576,3.052854 1.179975,3.826355 2.771458,2.398814 6.132321,3.180379 9.685629,3.433908 5.778312,3.652725 12.741295,3.81848 21.141221,-0.245278 2.27934,-4.580142 1.76431,-7.354434 -0.0491,-11.577178 z"
       id="path11183"
       inkscape:connector-curvature="0"
       sodipodi:nodetypes="zzczcccczszccczszccccz" />
    <path
       sodipodi:nodetypes="cccc"
       inkscape:connector-curvature="0"
       id="path11185"
       d="m 23.929887,42.063118 c 2.166411,-0.03238 3.892288,-1.15333 5.790162,-1.849267 -1.387452,1.064189 -2.358669,2.645716 -4.409241,2.885717 z"
       style="color:#000000;fill:#000000;fill-opacity:0.20618555;fill-rule:nonzero;stroke:none;stroke-width:0.1;marker:none;visibility:visible;display:inline;overflow:visible;enable-background:accumulate" />
    <path
       style="color:#000000;fill:#000000;fill-opacity:0.20618555;stroke:none;stroke-width:0.1;marker:none;visibility:visible;display:inline;overflow:visible;enable-background:accumulate"
       d="M 28.182421,11.274669 C 26.581283,10.978478 26.198988,10.027453 25.769385,9.1018443 26.704191,9.9512271 27.9113,10.420236 29.309312,10.622576 29.205803,9.7297702 28.087497,9.3391672 28.227668,8.1207272 c 0.549119,0.416669 1.296569,1.1068654 1.5733,1.4716756 0.271732,-0.3217695 0.400683,-1.2133839 0.589986,-1.8641219 l 0.147498,4.1206901 c 0.737485,0.665937 1.47497,0.430001 2.212454,0.294336 -0.23264,-1.650271 -0.181183,-3.4139264 0.04915,-5.2489755 0.416784,1.6234916 0.642358,3.3423745 0.688319,5.1508625 1.03444,0.953308 1.417114,0.280835 1.720798,-0.588669 0.03089,-1.4572096 -0.257349,-3.23283 -0.491652,-4.9546398 0.756261,0.9868283 1.127081,3.0312538 1.524134,5.0036958 0.827584,0.405214 1.345474,0.148278 1.524135,-0.83395 l -0.983312,-4.5621925 1.769963,4.0716345 c 0.663402,-0.03459 1.299979,-0.12652 1.327469,-1.5207318 l -1.917457,-4.3659693 2.851607,4.2678584 -0.88498,3.5320197 -3.244933,1.128285 -5.162392,0 -2.359949,-1.226396 z"
       id="path11187"
       inkscape:connector-curvature="0"
       sodipodi:nodetypes="cccccccccccccccccc" />
    <path
       style="color:#000000;fill:#000000;fill-opacity:0.20618555;stroke:none;stroke-width:0.1;marker:none;visibility:visible;display:inline;overflow:visible;enable-background:accumulate"
       d="M 26.413218,3.7730976 31.454192,4.9177921 27.803831,3.1834065 z"
       id="path11189"
       inkscape:connector-curvature="0" />
    <path
       style="color:#000000;fill:#000000;fill-opacity:0.20618555;fill-rule:nonzero;stroke:none;stroke-width:0.1;marker:none;visibility:visible;display:inline;overflow:visible;enable-background:accumulate"
       d="m 28.429518,3.0793433 1.874565,-0.3441321 1.914993,0.5643591 2.850758,1.4915716 z"
       id="path11191"
       inkscape:connector-curvature="0"
       sodipodi:nodetypes="ccccc" />
    <path
       style="color:#000000;fill:#000000;fill-opacity:0.20618555;stroke:none;stroke-width:0.1;marker:none;visibility:visible;display:inline;overflow:visible;enable-background:accumulate"
       d="m 29.542145,34.206324 c 1.693586,0.949826 4.595829,1.730514 8.310333,1.193357 2.914622,-0.421489 5.786372,-1.318251 7.299312,-3.448059 0.157,0.88576 0.0804,2.032526 -1.0082,2.324077 l 1.77303,1.110008 c 0,0 -0.87786,-0.194156 -2.15545,-0.138751 -1.27758,0.05539 -4.359545,1.513709 -7.648375,1.665008 -3.288829,0.151301 -6.316383,-1.621373 -6.57065,-2.70564 z"
       id="path11193"
       inkscape:connector-curvature="0"
       sodipodi:nodetypes="csccczzc" />
    <path
       style="color:#000000;fill:#000000;fill-opacity:0.20618555;fill-rule:nonzero;stroke:none;stroke-width:0.1;marker:none;visibility:visible;display:inline;overflow:visible;enable-background:accumulate"
       d="m 29.277162,25.175551 c -0.470658,2.760001 -2.015034,5.59233 -4.059997,6.981811 2.548607,-0.933695 4.045079,-4.204539 5.267921,-6.090332 l -0.917109,0.589697 z"
       id="path11195"
       inkscape:connector-curvature="0"
       sodipodi:nodetypes="ccccc" />
    <path
       style="color:#000000;fill:#000000;fill-opacity:0.20618555;fill-rule:nonzero;stroke:none;stroke-width:0.1;marker:none;visibility:visible;display:inline;overflow:visible;enable-background:accumulate"
       d="m 13.92047,37.210839 c 2.342953,0.910869 4.687041,0.459265 7.030686,0.539613 -1.955542,0.538322 -3.689243,1.814461 -5.998208,1.177341 z"
       id="path11197"
       inkscape:connector-curvature="0"
       sodipodi:nodetypes="cccc" />
    <path
       sodipodi:nodetypes="zzczcccczszccczszccccz"
       inkscape:connector-curvature="0"
       id="path11199"
       d="m 45.92729,30.784523 c -1.81348,-4.222745 -8.759745,-5.886527 -10.103532,-5.813117 -1.343788,0.07342 -4.385122,-0.285669 -6.268618,1.692428 0.344158,-1.349036 -1.641005,-6.805332 -1.524136,-9.247026 0.116863,-2.441695 0.10329,-5.226385 1.573301,-5.665949 0.58924,1.221954 2.192916,1.822605 3.441595,1.128284 0.681663,0.603311 1.481818,0.654888 2.359949,0.343392 0.465368,0.343993 1.31911,0.304009 1.524134,-0.245279 C 38.961379,13.50703 40.83906,10.260157 40.78948,9.1999551 40.73988,8.1397538 40.14122,7.4636639 39.53315,6.5526783 38.915492,5.6273391 38.335519,4.6429966 38.109959,4.3924836 37.884398,4.1419705 36.536659,3.4604227 36.536659,3.4604227 35.097283,3.2529651 33.719841,2.7983168 32.160918,3.067976 30.423882,2.4122381 28.620842,2.4809678 26.752699,3.2641994 25.777958,3.8631833 24.409324,4.7064036 24.024008,5.2264328 23.63869,5.746462 20.350112,14.157256 18.477168,17.158519 c -2.337697,3.745996 -4.28891,9.624087 -4.605863,11.418492 -0.316953,1.794403 -0.304544,4.453659 0.09833,6.769705 -0.314354,1.687342 -0.07576,3.052854 1.179975,3.826355 2.771458,2.398813 6.132321,3.180379 9.685629,3.433908 5.778312,3.652724 12.741295,3.81848 21.141221,-0.245278 2.27934,-4.580142 1.76431,-7.354434 -0.0491,-11.577178 z"
       style="fill:none;stroke:#888a85;stroke-width:1" />
    <path
       style="fill:#fbe426;fill-opacity:0.65979379;stroke:#888a85"
       d="M 25.0625 4.34375 C 24.594064 4.6697 24.211151 4.9759526 24.03125 5.21875 C 23.765635 5.5772261 22.110082 9.6552999 20.5 13.15625 C 21.077915 13.459588 21.710159 13.465672 22.40625 13.21875 C 22.871618 13.562743 23.732476 13.518038 23.9375 12.96875 C 25.968896 13.498524 27.830828 10.247702 27.78125 9.1875 C 27.731677 8.1272987 27.139323 7.4734856 26.53125 6.5625 C 25.913596 5.6371608 25.35056 4.6567631 25.125 4.40625 C 25.113417 4.3933858 25.079667 4.3587368 25.0625 4.34375 z M 15.875 22.4375 C 14.813553 25.050491 14.061222 27.508218 13.875 28.5625 C 13.558047 30.356903 13.565876 33.027704 13.96875 35.34375 C 13.654396 37.031092 13.900515 38.413999 15.15625 39.1875 C 17.927708 41.586314 21.290442 42.340221 24.84375 42.59375 C 25.927183 43.278636 27.050356 43.846436 28.21875 44.28125 C 29.753674 43.804463 31.325767 43.169851 32.96875 42.375 C 35.24809 37.794858 34.750967 35.003994 32.9375 30.78125 C 31.124019 26.558505 24.156287 24.89534 22.8125 24.96875 C 21.468712 25.04217 18.445996 24.678153 16.5625 26.65625 C 16.734579 25.981732 16.313662 24.275415 15.875 22.4375 z "
       id="path11246" />
  </g>
</svg>
