<?xml version="1.0" encoding="UTF-8" standalone="no"?>
<!-- Generator: Adobe Illustrator 15.0.0, SVG Export Plug-In . SVG Version: 6.00 Build 0)  -->
<svg
   xmlns:dc="http://purl.org/dc/elements/1.1/"
   xmlns:cc="http://creativecommons.org/ns#"
   xmlns:rdf="http://www.w3.org/1999/02/22-rdf-syntax-ns#"
   xmlns:svg="http://www.w3.org/2000/svg"
   xmlns="http://www.w3.org/2000/svg"
   xmlns:xlink="http://www.w3.org/1999/xlink"
   xmlns:sodipodi="http://sodipodi.sourceforge.net/DTD/sodipodi-0.dtd"
   xmlns:inkscape="http://www.inkscape.org/namespaces/inkscape"
   version="1.0"
   id="Layer_1"
   x="0px"
   y="0px"
   width="48"
   height="48"
   viewBox="0 0 612 792"
   enable-background="new 0 0 612 792"
   xml:space="preserve"
   sodipodi:version="0.32"
   inkscape:version="0.46"
   sodipodi:docname="metronome.svg"
   inkscape:output_extension="org.inkscape.output.svg.inkscape"><metadata
   id="metadata22780"><rdf:RDF><cc:Work
       rdf:about=""><dc:format>image/svg+xml</dc:format><dc:type
         rdf:resource="http://purl.org/dc/dcmitype/StillImage" /></cc:Work></rdf:RDF></metadata><defs
   id="defs22778"><linearGradient
   y2="391.83221"
   x2="284.05881"
   y1="392.62891"
   x1="282.6748"
   gradientUnits="userSpaceOnUse"
   id="linearGradient23954">
			<stop
   id="stop23956"
   style="stop-color:#000000"
   offset="0" />
			<stop
   id="stop23958"
   style="stop-color:#ffffff;stop-opacity:0.9137255;"
   offset="0.52600282" />
			<stop
   id="stop23960"
   style="stop-color:#000000;stop-opacity:1;"
   offset="0.78898114" />
		</linearGradient><inkscape:perspective
   sodipodi:type="inkscape:persp3d"
   inkscape:vp_x="0 : 396 : 1"
   inkscape:vp_y="0 : 1000 : 0"
   inkscape:vp_z="612 : 396 : 1"
   inkscape:persp3d-origin="306 : 264 : 1"
   id="perspective22782" />
	
	
<linearGradient
   inkscape:collect="always"
   xlink:href="#SVGID_1_"
   id="linearGradient23054"
   gradientUnits="userSpaceOnUse"
   x1="278.8208"
   y1="397.25101"
   x2="286.1947"
   y2="387.95001" /><linearGradient
   inkscape:collect="always"
   xlink:href="#SVGID_2_"
   id="linearGradient23056"
   gradientUnits="userSpaceOnUse"
   x1="320.48831"
   y1="396.24951"
   x2="327.8613"
   y2="386.94958" /><linearGradient
   inkscape:collect="always"
   xlink:href="#SVGID_3_"
   id="linearGradient23058"
   gradientUnits="userSpaceOnUse"
   x1="277.27979"
   y1="413.1846"
   x2="296.27328"
   y2="402.25119" /><linearGradient
   inkscape:collect="always"
   xlink:href="#SVGID_4_"
   id="linearGradient23060"
   gradientUnits="userSpaceOnUse"
   x1="261.50241"
   y1="402.67871"
   x2="319.2536"
   y2="369.43491" /><linearGradient
   inkscape:collect="always"
   xlink:href="#SVGID_5_"
   id="linearGradient23062"
   gradientUnits="userSpaceOnUse"
   x1="267.12061"
   y1="407.0947"
   x2="313.0321"
   y2="380.66629" /><linearGradient
   inkscape:collect="always"
   xlink:href="#SVGID_6_"
   id="linearGradient23064"
   gradientUnits="userSpaceOnUse"
   x1="262.6738"
   y1="403.13669"
   x2="319.25549"
   y2="370.5661" /><linearGradient
   inkscape:collect="always"
   xlink:href="#SVGID_7_"
   id="linearGradient23066"
   gradientUnits="userSpaceOnUse"
   x1="272.7739"
   y1="411.95209"
   x2="298.4975"
   y2="397.14471" /><linearGradient
   inkscape:collect="always"
   xlink:href="#SVGID_8_"
   id="linearGradient23068"
   gradientUnits="userSpaceOnUse"
   x1="263.7832"
   y1="403.7764"
   x2="319.4827"
   y2="371.71359" /><linearGradient
   inkscape:collect="always"
   xlink:href="#SVGID_9_"
   id="linearGradient23070"
   gradientUnits="userSpaceOnUse"
   x1="286.20209"
   y1="411.47171"
   x2="305.1824"
   y2="400.5459" /><linearGradient
   inkscape:collect="always"
   xlink:href="#SVGID_10_"
   id="linearGradient23072"
   gradientUnits="userSpaceOnUse"
   x1="291.31351"
   y1="411.59769"
   x2="307.06631"
   y2="402.52979" /><linearGradient
   inkscape:collect="always"
   xlink:href="#SVGID_11_"
   id="linearGradient23074"
   gradientUnits="userSpaceOnUse"
   x1="295.10159"
   y1="412.60251"
   x2="303.71219"
   y2="407.6459" /><linearGradient
   inkscape:collect="always"
   xlink:href="#SVGID_12_"
   id="linearGradient23076"
   gradientUnits="userSpaceOnUse"
   x1="280.58981"
   y1="412.7861"
   x2="300.51541"
   y2="401.31619" /><linearGradient
   inkscape:collect="always"
   xlink:href="#SVGID_13_"
   id="linearGradient23078"
   gradientUnits="userSpaceOnUse"
   x1="288.22409"
   y1="411.27051"
   x2="308.09451"
   y2="399.8324" /><linearGradient
   inkscape:collect="always"
   xlink:href="#SVGID_14_"
   id="linearGradient23080"
   gradientUnits="userSpaceOnUse"
   x1="284.2305"
   y1="412.0625"
   x2="304.18951"
   y2="400.5733" /><linearGradient
   inkscape:collect="always"
   xlink:href="#SVGID_15_"
   id="linearGradient23082"
   gradientUnits="userSpaceOnUse"
   x1="282.55621"
   y1="412.40039"
   x2="302.444"
   y2="400.95209" /><linearGradient
   inkscape:collect="always"
   xlink:href="#SVGID_16_"
   id="linearGradient23084"
   gradientUnits="userSpaceOnUse"
   x1="318.94531"
   y1="412.18259"
   x2="337.93939"
   y2="401.2489" /><linearGradient
   inkscape:collect="always"
   xlink:href="#SVGID_17_"
   id="linearGradient23086"
   gradientUnits="userSpaceOnUse"
   x1="303.16849"
   y1="401.6777"
   x2="360.91959"
   y2="368.4339" /><linearGradient
   inkscape:collect="always"
   xlink:href="#SVGID_18_"
   id="linearGradient23088"
   gradientUnits="userSpaceOnUse"
   x1="308.78711"
   y1="406.0947"
   x2="354.69861"
   y2="379.66629" /><linearGradient
   inkscape:collect="always"
   xlink:href="#SVGID_19_"
   id="linearGradient23090"
   gradientUnits="userSpaceOnUse"
   x1="304.3403"
   y1="402.13669"
   x2="360.9231"
   y2="369.56549" /><linearGradient
   inkscape:collect="always"
   xlink:href="#SVGID_20_"
   id="linearGradient23092"
   gradientUnits="userSpaceOnUse"
   x1="314.4404"
   y1="410.9512"
   x2="340.16339"
   y2="396.14401" /><linearGradient
   inkscape:collect="always"
   xlink:href="#SVGID_21_"
   id="linearGradient23094"
   gradientUnits="userSpaceOnUse"
   x1="305.44971"
   y1="402.77441"
   x2="361.14819"
   y2="370.71219" /><linearGradient
   inkscape:collect="always"
   xlink:href="#SVGID_22_"
   id="linearGradient23096"
   gradientUnits="userSpaceOnUse"
   x1="327.86819"
   y1="410.46881"
   x2="346.84839"
   y2="399.543" /><linearGradient
   inkscape:collect="always"
   xlink:href="#SVGID_23_"
   id="linearGradient23098"
   gradientUnits="userSpaceOnUse"
   x1="332.97949"
   y1="410.5957"
   x2="348.7323"
   y2="401.5278" /><linearGradient
   inkscape:collect="always"
   xlink:href="#SVGID_24_"
   id="linearGradient23100"
   gradientUnits="userSpaceOnUse"
   x1="336.76761"
   y1="411.60059"
   x2="345.3782"
   y2="406.64401" /><linearGradient
   inkscape:collect="always"
   xlink:href="#SVGID_25_"
   id="linearGradient23102"
   gradientUnits="userSpaceOnUse"
   x1="322.25589"
   y1="411.78519"
   x2="342.1814"
   y2="400.31519" /><linearGradient
   inkscape:collect="always"
   xlink:href="#SVGID_26_"
   id="linearGradient23104"
   gradientUnits="userSpaceOnUse"
   x1="329.89059"
   y1="410.2695"
   x2="349.76099"
   y2="398.83139" /><linearGradient
   inkscape:collect="always"
   xlink:href="#SVGID_27_"
   id="linearGradient23106"
   gradientUnits="userSpaceOnUse"
   x1="325.89651"
   y1="411.06149"
   x2="345.8555"
   y2="399.5723" /><linearGradient
   inkscape:collect="always"
   xlink:href="#SVGID_28_"
   id="linearGradient23108"
   gradientUnits="userSpaceOnUse"
   x1="324.22269"
   y1="411.39941"
   x2="344.1105"
   y2="399.9512" /><linearGradient
   inkscape:collect="always"
   xlink:href="#SVGID_29_"
   id="linearGradient23110"
   gradientUnits="userSpaceOnUse"
   x1="282.6748"
   y1="392.62891"
   x2="284.05881"
   y2="391.83221" /><linearGradient
   inkscape:collect="always"
   xlink:href="#SVGID_30_"
   id="linearGradient23112"
   gradientUnits="userSpaceOnUse"
   x1="324.34079"
   y1="391.62741"
   x2="325.72589"
   y2="390.83011" />
		
		
		
		
		
		
		
		
		
		
		
		
		
		
		
		
		
		
		
		
		
		
		
		
		
		
		
		
		
		
		
		
		
		
		<linearGradient
   id="SVGID_1_"
   gradientUnits="userSpaceOnUse"
   x1="278.8208"
   y1="397.25101"
   x2="286.1947"
   y2="387.95001">
			<stop
   offset="0.1472"
   style="stop-color:#FFFFFF;stop-opacity:0.74"
   id="stop22340" />
			<stop
   offset="0.2736"
   style="stop-color:#E6E7E8;stop-opacity:0.6363"
   id="stop22342" />
			<stop
   offset="0.4288"
   style="stop-color:#D3D4D6;stop-opacity:0.5089"
   id="stop22344" />
			<stop
   offset="0.5942"
   style="stop-color:#C5C7C9;stop-opacity:0.3731"
   id="stop22346" />
			<stop
   offset="0.7749"
   style="stop-color:#BCBEC1;stop-opacity:0.2247"
   id="stop22348" />
			<stop
   offset="1"
   style="stop-color:#BABCBE;stop-opacity:0.04"
   id="stop22350" />
		</linearGradient>
		
		<linearGradient
   id="SVGID_2_"
   gradientUnits="userSpaceOnUse"
   x1="320.48831"
   y1="396.24951"
   x2="327.8613"
   y2="386.94958">
			<stop
   offset="0.1472"
   style="stop-color:#FFFFFF;stop-opacity:0.74"
   id="stop22355" />
			<stop
   offset="0.2736"
   style="stop-color:#E6E7E8;stop-opacity:0.6363"
   id="stop22357" />
			<stop
   offset="0.4288"
   style="stop-color:#D3D4D6;stop-opacity:0.5089"
   id="stop22359" />
			<stop
   offset="0.5942"
   style="stop-color:#C5C7C9;stop-opacity:0.3731"
   id="stop22361" />
			<stop
   offset="0.7749"
   style="stop-color:#BCBEC1;stop-opacity:0.2247"
   id="stop22363" />
			<stop
   offset="1"
   style="stop-color:#BABCBE;stop-opacity:0.04"
   id="stop22365" />
		</linearGradient>
		
		<linearGradient
   id="SVGID_3_"
   gradientUnits="userSpaceOnUse"
   x1="277.27979"
   y1="413.1846"
   x2="296.27328"
   y2="402.25119">
			<stop
   offset="0"
   style="stop-color:#000000"
   id="stop22370" />
			<stop
   offset="0.0539"
   style="stop-color:#000000;stop-opacity:0.9104"
   id="stop22372" />
			<stop
   offset="0.6012"
   style="stop-color:#000000;stop-opacity:0"
   id="stop22374" />
		</linearGradient>
		
		<linearGradient
   id="SVGID_4_"
   gradientUnits="userSpaceOnUse"
   x1="261.50241"
   y1="402.67871"
   x2="319.2536"
   y2="369.43491">
			<stop
   offset="0"
   style="stop-color:#321D0A"
   id="stop22379" />
			<stop
   offset="0.0364"
   style="stop-color:#462F1C;stop-opacity:0.9505"
   id="stop22381" />
			<stop
   offset="0.1345"
   style="stop-color:#665243;stop-opacity:0.8173"
   id="stop22383" />
			<stop
   offset="0.2373"
   style="stop-color:#7D6E63;stop-opacity:0.6777"
   id="stop22385" />
			<stop
   offset="0.3445"
   style="stop-color:#8D847E;stop-opacity:0.5321"
   id="stop22387" />
			<stop
   offset="0.4579"
   style="stop-color:#9A9593;stop-opacity:0.378"
   id="stop22389" />
			<stop
   offset="0.5819"
   style="stop-color:#A1A1A1;stop-opacity:0.2096"
   id="stop22391" />
			<stop
   offset="0.7362"
   style="stop-color:#A3A5A8;stop-opacity:0"
   id="stop22393" />
		</linearGradient>
		
		<linearGradient
   id="SVGID_5_"
   gradientUnits="userSpaceOnUse"
   x1="267.12061"
   y1="407.0947"
   x2="313.0321"
   y2="380.66629">
			<stop
   offset="0"
   style="stop-color:#321D0A"
   id="stop22398" />
			<stop
   offset="0.0364"
   style="stop-color:#462F1C;stop-opacity:0.9505"
   id="stop22400" />
			<stop
   offset="0.1345"
   style="stop-color:#665243;stop-opacity:0.8173"
   id="stop22402" />
			<stop
   offset="0.2373"
   style="stop-color:#7D6E63;stop-opacity:0.6777"
   id="stop22404" />
			<stop
   offset="0.3445"
   style="stop-color:#8D847E;stop-opacity:0.5321"
   id="stop22406" />
			<stop
   offset="0.4579"
   style="stop-color:#9A9593;stop-opacity:0.378"
   id="stop22408" />
			<stop
   offset="0.5819"
   style="stop-color:#A1A1A1;stop-opacity:0.2096"
   id="stop22410" />
			<stop
   offset="0.7362"
   style="stop-color:#A3A5A8;stop-opacity:0"
   id="stop22412" />
		</linearGradient>
		
		<linearGradient
   id="SVGID_6_"
   gradientUnits="userSpaceOnUse"
   x1="262.6738"
   y1="403.13669"
   x2="319.25549"
   y2="370.5661">
			<stop
   offset="0"
   style="stop-color:#321D0A"
   id="stop22417" />
			<stop
   offset="0.0364"
   style="stop-color:#462F1C;stop-opacity:0.9505"
   id="stop22419" />
			<stop
   offset="0.1345"
   style="stop-color:#665243;stop-opacity:0.8173"
   id="stop22421" />
			<stop
   offset="0.2373"
   style="stop-color:#7D6E63;stop-opacity:0.6777"
   id="stop22423" />
			<stop
   offset="0.3445"
   style="stop-color:#8D847E;stop-opacity:0.5321"
   id="stop22425" />
			<stop
   offset="0.4579"
   style="stop-color:#9A9593;stop-opacity:0.378"
   id="stop22427" />
			<stop
   offset="0.5819"
   style="stop-color:#A1A1A1;stop-opacity:0.2096"
   id="stop22429" />
			<stop
   offset="0.7362"
   style="stop-color:#A3A5A8;stop-opacity:0"
   id="stop22431" />
		</linearGradient>
		
		<linearGradient
   id="SVGID_7_"
   gradientUnits="userSpaceOnUse"
   x1="272.7739"
   y1="411.95209"
   x2="298.4975"
   y2="397.14471">
			<stop
   offset="0"
   style="stop-color:#321D0A"
   id="stop22436" />
			<stop
   offset="0.0364"
   style="stop-color:#462F1C;stop-opacity:0.9505"
   id="stop22438" />
			<stop
   offset="0.1345"
   style="stop-color:#665243;stop-opacity:0.8173"
   id="stop22440" />
			<stop
   offset="0.2373"
   style="stop-color:#7D6E63;stop-opacity:0.6777"
   id="stop22442" />
			<stop
   offset="0.3445"
   style="stop-color:#8D847E;stop-opacity:0.5321"
   id="stop22444" />
			<stop
   offset="0.4579"
   style="stop-color:#9A9593;stop-opacity:0.378"
   id="stop22446" />
			<stop
   offset="0.5819"
   style="stop-color:#A1A1A1;stop-opacity:0.2096"
   id="stop22448" />
			<stop
   offset="0.7362"
   style="stop-color:#A3A5A8;stop-opacity:0"
   id="stop22450" />
		</linearGradient>
		
		<linearGradient
   id="SVGID_8_"
   gradientUnits="userSpaceOnUse"
   x1="263.7832"
   y1="403.7764"
   x2="319.4827"
   y2="371.71359">
			<stop
   offset="0"
   style="stop-color:#321D0A"
   id="stop22455" />
			<stop
   offset="0.0364"
   style="stop-color:#462F1C;stop-opacity:0.9505"
   id="stop22457" />
			<stop
   offset="0.1345"
   style="stop-color:#665243;stop-opacity:0.8173"
   id="stop22459" />
			<stop
   offset="0.2373"
   style="stop-color:#7D6E63;stop-opacity:0.6777"
   id="stop22461" />
			<stop
   offset="0.3445"
   style="stop-color:#8D847E;stop-opacity:0.5321"
   id="stop22463" />
			<stop
   offset="0.4579"
   style="stop-color:#9A9593;stop-opacity:0.378"
   id="stop22465" />
			<stop
   offset="0.5819"
   style="stop-color:#A1A1A1;stop-opacity:0.2096"
   id="stop22467" />
			<stop
   offset="0.7362"
   style="stop-color:#A3A5A8;stop-opacity:0"
   id="stop22469" />
		</linearGradient>
		
		<linearGradient
   id="SVGID_9_"
   gradientUnits="userSpaceOnUse"
   x1="286.20209"
   y1="411.47171"
   x2="305.1824"
   y2="400.5459">
			<stop
   offset="0"
   style="stop-color:#000000"
   id="stop22474" />
			<stop
   offset="0.0539"
   style="stop-color:#000000;stop-opacity:0.9104"
   id="stop22476" />
			<stop
   offset="0.6012"
   style="stop-color:#000000;stop-opacity:0"
   id="stop22478" />
		</linearGradient>
		
		<linearGradient
   id="SVGID_10_"
   gradientUnits="userSpaceOnUse"
   x1="291.31351"
   y1="411.59769"
   x2="307.06631"
   y2="402.52979">
			<stop
   offset="0"
   style="stop-color:#000000"
   id="stop22483" />
			<stop
   offset="0.0539"
   style="stop-color:#000000;stop-opacity:0.9104"
   id="stop22485" />
			<stop
   offset="0.6012"
   style="stop-color:#000000;stop-opacity:0"
   id="stop22487" />
		</linearGradient>
		
		<linearGradient
   id="SVGID_11_"
   gradientUnits="userSpaceOnUse"
   x1="295.10159"
   y1="412.60251"
   x2="303.71219"
   y2="407.6459">
			<stop
   offset="0"
   style="stop-color:#000000"
   id="stop22492" />
			<stop
   offset="0.0539"
   style="stop-color:#000000;stop-opacity:0.9104"
   id="stop22494" />
			<stop
   offset="0.6012"
   style="stop-color:#000000;stop-opacity:0"
   id="stop22496" />
		</linearGradient>
		
		<linearGradient
   id="SVGID_12_"
   gradientUnits="userSpaceOnUse"
   x1="280.58981"
   y1="412.7861"
   x2="300.51541"
   y2="401.31619">
			<stop
   offset="0"
   style="stop-color:#000000"
   id="stop22501" />
			<stop
   offset="0.0539"
   style="stop-color:#000000;stop-opacity:0.9104"
   id="stop22503" />
			<stop
   offset="0.6012"
   style="stop-color:#000000;stop-opacity:0"
   id="stop22505" />
		</linearGradient>
		
		<linearGradient
   id="SVGID_13_"
   gradientUnits="userSpaceOnUse"
   x1="288.22409"
   y1="411.27051"
   x2="308.09451"
   y2="399.8324">
			<stop
   offset="0"
   style="stop-color:#000000"
   id="stop22510" />
			<stop
   offset="0.0539"
   style="stop-color:#000000;stop-opacity:0.9104"
   id="stop22512" />
			<stop
   offset="0.6012"
   style="stop-color:#000000;stop-opacity:0"
   id="stop22514" />
		</linearGradient>
		
		<linearGradient
   id="SVGID_14_"
   gradientUnits="userSpaceOnUse"
   x1="284.2305"
   y1="412.0625"
   x2="304.18951"
   y2="400.5733">
			<stop
   offset="0"
   style="stop-color:#000000"
   id="stop22519" />
			<stop
   offset="0.0539"
   style="stop-color:#000000;stop-opacity:0.9104"
   id="stop22521" />
			<stop
   offset="0.6012"
   style="stop-color:#000000;stop-opacity:0"
   id="stop22523" />
		</linearGradient>
		
		<linearGradient
   id="SVGID_15_"
   gradientUnits="userSpaceOnUse"
   x1="282.55621"
   y1="412.40039"
   x2="302.444"
   y2="400.95209">
			<stop
   offset="0"
   style="stop-color:#000000"
   id="stop22528" />
			<stop
   offset="0.0539"
   style="stop-color:#000000;stop-opacity:0.9104"
   id="stop22530" />
			<stop
   offset="0.6012"
   style="stop-color:#000000;stop-opacity:0"
   id="stop22532" />
		</linearGradient>
		
		<linearGradient
   id="SVGID_16_"
   gradientUnits="userSpaceOnUse"
   x1="318.94531"
   y1="412.18259"
   x2="337.93939"
   y2="401.2489">
			<stop
   offset="0"
   style="stop-color:#5F6062"
   id="stop22537" />
			<stop
   offset="0.0539"
   style="stop-color:#5F6062;stop-opacity:0.9104"
   id="stop22539" />
			<stop
   offset="0.6012"
   style="stop-color:#5F6062;stop-opacity:0"
   id="stop22541" />
		</linearGradient>
		
		<linearGradient
   id="SVGID_17_"
   gradientUnits="userSpaceOnUse"
   x1="303.16849"
   y1="401.6777"
   x2="360.91959"
   y2="368.4339">
			<stop
   offset="0"
   style="stop-color:#6B4A30"
   id="stop22546" />
			<stop
   offset="0.0364"
   style="stop-color:#77573F;stop-opacity:0.9505"
   id="stop22548" />
			<stop
   offset="0.1345"
   style="stop-color:#927864;stop-opacity:0.8173"
   id="stop22550" />
			<stop
   offset="0.2373"
   style="stop-color:#A99687;stop-opacity:0.6777"
   id="stop22552" />
			<stop
   offset="0.3445"
   style="stop-color:#BCB0A6;stop-opacity:0.5321"
   id="stop22554" />
			<stop
   offset="0.4579"
   style="stop-color:#C9C3BE;stop-opacity:0.378"
   id="stop22556" />
			<stop
   offset="0.5819"
   style="stop-color:#D1D0CF;stop-opacity:0.2096"
   id="stop22558" />
			<stop
   offset="0.7362"
   style="stop-color:#D3D5D6;stop-opacity:0"
   id="stop22560" />
		</linearGradient>
		
		<linearGradient
   id="SVGID_18_"
   gradientUnits="userSpaceOnUse"
   x1="308.78711"
   y1="406.0947"
   x2="354.69861"
   y2="379.66629">
			<stop
   offset="0"
   style="stop-color:#6B4A30"
   id="stop22565" />
			<stop
   offset="0.0364"
   style="stop-color:#77573F;stop-opacity:0.9505"
   id="stop22567" />
			<stop
   offset="0.1345"
   style="stop-color:#927864;stop-opacity:0.8173"
   id="stop22569" />
			<stop
   offset="0.2373"
   style="stop-color:#A99687;stop-opacity:0.6777"
   id="stop22571" />
			<stop
   offset="0.3445"
   style="stop-color:#BCB0A6;stop-opacity:0.5321"
   id="stop22573" />
			<stop
   offset="0.4579"
   style="stop-color:#C9C3BE;stop-opacity:0.378"
   id="stop22575" />
			<stop
   offset="0.5819"
   style="stop-color:#D1D0CF;stop-opacity:0.2096"
   id="stop22577" />
			<stop
   offset="0.7362"
   style="stop-color:#D3D5D6;stop-opacity:0"
   id="stop22579" />
		</linearGradient>
		
		<linearGradient
   id="SVGID_19_"
   gradientUnits="userSpaceOnUse"
   x1="304.3403"
   y1="402.13669"
   x2="360.9231"
   y2="369.56549">
			<stop
   offset="0"
   style="stop-color:#6B4A30"
   id="stop22584" />
			<stop
   offset="0.0364"
   style="stop-color:#77573F;stop-opacity:0.9505"
   id="stop22586" />
			<stop
   offset="0.1345"
   style="stop-color:#927864;stop-opacity:0.8173"
   id="stop22588" />
			<stop
   offset="0.2373"
   style="stop-color:#A99687;stop-opacity:0.6777"
   id="stop22590" />
			<stop
   offset="0.3445"
   style="stop-color:#BCB0A6;stop-opacity:0.5321"
   id="stop22592" />
			<stop
   offset="0.4579"
   style="stop-color:#C9C3BE;stop-opacity:0.378"
   id="stop22594" />
			<stop
   offset="0.5819"
   style="stop-color:#D1D0CF;stop-opacity:0.2096"
   id="stop22596" />
			<stop
   offset="0.7362"
   style="stop-color:#D3D5D6;stop-opacity:0"
   id="stop22598" />
		</linearGradient>
		
		<linearGradient
   id="SVGID_20_"
   gradientUnits="userSpaceOnUse"
   x1="314.4404"
   y1="410.9512"
   x2="340.16339"
   y2="396.14401">
			<stop
   offset="0"
   style="stop-color:#6B4A30"
   id="stop22603" />
			<stop
   offset="0.0364"
   style="stop-color:#77573F;stop-opacity:0.9505"
   id="stop22605" />
			<stop
   offset="0.1345"
   style="stop-color:#927864;stop-opacity:0.8173"
   id="stop22607" />
			<stop
   offset="0.2373"
   style="stop-color:#A99687;stop-opacity:0.6777"
   id="stop22609" />
			<stop
   offset="0.3445"
   style="stop-color:#BCB0A6;stop-opacity:0.5321"
   id="stop22611" />
			<stop
   offset="0.4579"
   style="stop-color:#C9C3BE;stop-opacity:0.378"
   id="stop22613" />
			<stop
   offset="0.5819"
   style="stop-color:#D1D0CF;stop-opacity:0.2096"
   id="stop22615" />
			<stop
   offset="0.7362"
   style="stop-color:#D3D5D6;stop-opacity:0"
   id="stop22617" />
		</linearGradient>
		
		<linearGradient
   id="SVGID_21_"
   gradientUnits="userSpaceOnUse"
   x1="305.44971"
   y1="402.77441"
   x2="361.14819"
   y2="370.71219">
			<stop
   offset="0"
   style="stop-color:#6B4A30"
   id="stop22622" />
			<stop
   offset="0.0364"
   style="stop-color:#77573F;stop-opacity:0.9505"
   id="stop22624" />
			<stop
   offset="0.1345"
   style="stop-color:#927864;stop-opacity:0.8173"
   id="stop22626" />
			<stop
   offset="0.2373"
   style="stop-color:#A99687;stop-opacity:0.6777"
   id="stop22628" />
			<stop
   offset="0.3445"
   style="stop-color:#BCB0A6;stop-opacity:0.5321"
   id="stop22630" />
			<stop
   offset="0.4579"
   style="stop-color:#C9C3BE;stop-opacity:0.378"
   id="stop22632" />
			<stop
   offset="0.5819"
   style="stop-color:#D1D0CF;stop-opacity:0.2096"
   id="stop22634" />
			<stop
   offset="0.7362"
   style="stop-color:#D3D5D6;stop-opacity:0"
   id="stop22636" />
		</linearGradient>
		
		<linearGradient
   id="SVGID_22_"
   gradientUnits="userSpaceOnUse"
   x1="327.86819"
   y1="410.46881"
   x2="346.84839"
   y2="399.543">
			<stop
   offset="0"
   style="stop-color:#5F6062"
   id="stop22641" />
			<stop
   offset="0.0539"
   style="stop-color:#5F6062;stop-opacity:0.9104"
   id="stop22643" />
			<stop
   offset="0.6012"
   style="stop-color:#5F6062;stop-opacity:0"
   id="stop22645" />
		</linearGradient>
		
		<linearGradient
   id="SVGID_23_"
   gradientUnits="userSpaceOnUse"
   x1="332.97949"
   y1="410.5957"
   x2="348.7323"
   y2="401.5278">
			<stop
   offset="0"
   style="stop-color:#5F6062"
   id="stop22650" />
			<stop
   offset="0.0539"
   style="stop-color:#5F6062;stop-opacity:0.9104"
   id="stop22652" />
			<stop
   offset="0.6012"
   style="stop-color:#5F6062;stop-opacity:0"
   id="stop22654" />
		</linearGradient>
		
		<linearGradient
   id="SVGID_24_"
   gradientUnits="userSpaceOnUse"
   x1="336.76761"
   y1="411.60059"
   x2="345.3782"
   y2="406.64401">
			<stop
   offset="0"
   style="stop-color:#5F6062"
   id="stop22659" />
			<stop
   offset="0.0539"
   style="stop-color:#5F6062;stop-opacity:0.9104"
   id="stop22661" />
			<stop
   offset="0.6012"
   style="stop-color:#5F6062;stop-opacity:0"
   id="stop22663" />
		</linearGradient>
		
		<linearGradient
   id="SVGID_25_"
   gradientUnits="userSpaceOnUse"
   x1="322.25589"
   y1="411.78519"
   x2="342.1814"
   y2="400.31519">
			<stop
   offset="0"
   style="stop-color:#5F6062"
   id="stop22668" />
			<stop
   offset="0.0539"
   style="stop-color:#5F6062;stop-opacity:0.9104"
   id="stop22670" />
			<stop
   offset="0.6012"
   style="stop-color:#5F6062;stop-opacity:0"
   id="stop22672" />
		</linearGradient>
		
		<linearGradient
   id="SVGID_26_"
   gradientUnits="userSpaceOnUse"
   x1="329.89059"
   y1="410.2695"
   x2="349.76099"
   y2="398.83139">
			<stop
   offset="0"
   style="stop-color:#5F6062"
   id="stop22677" />
			<stop
   offset="0.0539"
   style="stop-color:#5F6062;stop-opacity:0.9104"
   id="stop22679" />
			<stop
   offset="0.6012"
   style="stop-color:#5F6062;stop-opacity:0"
   id="stop22681" />
		</linearGradient>
		
		<linearGradient
   id="SVGID_27_"
   gradientUnits="userSpaceOnUse"
   x1="325.89651"
   y1="411.06149"
   x2="345.8555"
   y2="399.5723">
			<stop
   offset="0"
   style="stop-color:#5F6062"
   id="stop22686" />
			<stop
   offset="0.0539"
   style="stop-color:#5F6062;stop-opacity:0.9104"
   id="stop22688" />
			<stop
   offset="0.6012"
   style="stop-color:#5F6062;stop-opacity:0"
   id="stop22690" />
		</linearGradient>
		
		<linearGradient
   id="SVGID_28_"
   gradientUnits="userSpaceOnUse"
   x1="324.22269"
   y1="411.39941"
   x2="344.1105"
   y2="399.9512">
			<stop
   offset="0"
   style="stop-color:#5F6062"
   id="stop22695" />
			<stop
   offset="0.0539"
   style="stop-color:#5F6062;stop-opacity:0.9104"
   id="stop22697" />
			<stop
   offset="0.6012"
   style="stop-color:#5F6062;stop-opacity:0"
   id="stop22699" />
		</linearGradient>
		
		
		
		
		
		
		
		
		<linearGradient
   id="SVGID_29_"
   gradientUnits="userSpaceOnUse"
   x1="282.6748"
   y1="392.62891"
   x2="284.05881"
   y2="391.83221">
			<stop
   offset="0"
   style="stop-color:#000000"
   id="stop22718" />
			<stop
   offset="0.31729999"
   style="stop-color:#ffffff;stop-opacity:0.9137255;"
   id="stop22720" />
			<stop
   offset="0.60119998"
   style="stop-color:#000000;stop-opacity:1;"
   id="stop22722" />
		</linearGradient>
		
		
		
		
		
		
		
		
		
		
		
		
		<linearGradient
   id="SVGID_30_"
   gradientUnits="userSpaceOnUse"
   x1="324.34079"
   y1="391.62741"
   x2="325.72589"
   y2="390.83011">
			<stop
   offset="0"
   style="stop-color:#000000"
   id="stop22749" />
			<stop
   offset="0.0539"
   style="stop-color:#000000;stop-opacity:0.9104"
   id="stop22751" />
			<stop
   offset="0.6012"
   style="stop-color:#000000;stop-opacity:0"
   id="stop22753" />
		</linearGradient>
		
		
		
		
		
		
		
		
		
		
		
	<linearGradient
   inkscape:collect="always"
   xlink:href="#SVGID_28_"
   id="linearGradient23321"
   gradientUnits="userSpaceOnUse"
   x1="324.22269"
   y1="411.39941"
   x2="344.1105"
   y2="399.9512"
   gradientTransform="translate(-247.5,-372.13393)" /><linearGradient
   inkscape:collect="always"
   xlink:href="#SVGID_27_"
   id="linearGradient23324"
   gradientUnits="userSpaceOnUse"
   x1="325.89651"
   y1="411.06149"
   x2="345.8555"
   y2="399.5723"
   gradientTransform="translate(-247.5,-372.13393)" /><linearGradient
   inkscape:collect="always"
   xlink:href="#SVGID_26_"
   id="linearGradient23327"
   gradientUnits="userSpaceOnUse"
   x1="329.89059"
   y1="410.2695"
   x2="349.76099"
   y2="398.83139"
   gradientTransform="translate(-247.5,-372.13393)" /><linearGradient
   inkscape:collect="always"
   xlink:href="#SVGID_25_"
   id="linearGradient23330"
   gradientUnits="userSpaceOnUse"
   x1="322.25589"
   y1="411.78519"
   x2="342.1814"
   y2="400.31519"
   gradientTransform="translate(-247.5,-372.13393)" /><linearGradient
   inkscape:collect="always"
   xlink:href="#SVGID_24_"
   id="linearGradient23333"
   gradientUnits="userSpaceOnUse"
   x1="336.76761"
   y1="411.60059"
   x2="345.3782"
   y2="406.64401"
   gradientTransform="translate(-247.5,-372.13393)" /><linearGradient
   inkscape:collect="always"
   xlink:href="#SVGID_23_"
   id="linearGradient23336"
   gradientUnits="userSpaceOnUse"
   x1="332.97949"
   y1="410.5957"
   x2="348.7323"
   y2="401.5278"
   gradientTransform="translate(-247.5,-372.13393)" /><linearGradient
   inkscape:collect="always"
   xlink:href="#SVGID_22_"
   id="linearGradient23339"
   gradientUnits="userSpaceOnUse"
   x1="327.86819"
   y1="410.46881"
   x2="346.84839"
   y2="399.543"
   gradientTransform="translate(-247.5,-372.13393)" /><linearGradient
   inkscape:collect="always"
   xlink:href="#SVGID_21_"
   id="linearGradient23342"
   gradientUnits="userSpaceOnUse"
   x1="305.44971"
   y1="402.77441"
   x2="361.14819"
   y2="370.71219"
   gradientTransform="translate(-247.5,-372.13393)" /><linearGradient
   inkscape:collect="always"
   xlink:href="#SVGID_20_"
   id="linearGradient23345"
   gradientUnits="userSpaceOnUse"
   x1="314.4404"
   y1="410.9512"
   x2="340.16339"
   y2="396.14401"
   gradientTransform="translate(-247.5,-372.13393)" /><linearGradient
   inkscape:collect="always"
   xlink:href="#SVGID_19_"
   id="linearGradient23348"
   gradientUnits="userSpaceOnUse"
   x1="304.3403"
   y1="402.13669"
   x2="360.9231"
   y2="369.56549"
   gradientTransform="translate(-247.5,-372.13393)" /><linearGradient
   inkscape:collect="always"
   xlink:href="#SVGID_18_"
   id="linearGradient23351"
   gradientUnits="userSpaceOnUse"
   x1="308.78711"
   y1="406.0947"
   x2="354.69861"
   y2="379.66629"
   gradientTransform="translate(-247.5,-372.13393)" /><linearGradient
   inkscape:collect="always"
   xlink:href="#SVGID_17_"
   id="linearGradient23354"
   gradientUnits="userSpaceOnUse"
   x1="303.16849"
   y1="401.6777"
   x2="360.91959"
   y2="368.4339"
   gradientTransform="translate(-247.5,-372.13393)" /><linearGradient
   inkscape:collect="always"
   xlink:href="#SVGID_16_"
   id="linearGradient23357"
   gradientUnits="userSpaceOnUse"
   x1="318.94531"
   y1="412.18259"
   x2="337.93939"
   y2="401.2489"
   gradientTransform="translate(-247.5,-372.13393)" /><linearGradient
   inkscape:collect="always"
   xlink:href="#SVGID_15_"
   id="linearGradient23360"
   gradientUnits="userSpaceOnUse"
   x1="282.55621"
   y1="412.40039"
   x2="302.444"
   y2="400.95209"
   gradientTransform="matrix(16.887703,0,0,16.885209,-4532.9284,-6302.0068)" /><linearGradient
   inkscape:collect="always"
   xlink:href="#SVGID_14_"
   id="linearGradient23363"
   gradientUnits="userSpaceOnUse"
   x1="284.2305"
   y1="412.0625"
   x2="304.18951"
   y2="400.5733"
   gradientTransform="matrix(16.887703,0,0,16.885209,-4532.9284,-6302.0068)" /><linearGradient
   inkscape:collect="always"
   xlink:href="#SVGID_13_"
   id="linearGradient23366"
   gradientUnits="userSpaceOnUse"
   x1="288.22409"
   y1="411.27051"
   x2="308.09451"
   y2="399.8324"
   gradientTransform="matrix(16.887703,0,0,16.885209,-4532.9284,-6302.0068)" /><linearGradient
   inkscape:collect="always"
   xlink:href="#SVGID_12_"
   id="linearGradient23369"
   gradientUnits="userSpaceOnUse"
   x1="280.58981"
   y1="412.7861"
   x2="300.51541"
   y2="401.31619"
   gradientTransform="matrix(16.887703,0,0,16.885209,-4532.9284,-6302.0068)" /><linearGradient
   inkscape:collect="always"
   xlink:href="#SVGID_11_"
   id="linearGradient23372"
   gradientUnits="userSpaceOnUse"
   x1="295.10159"
   y1="412.60251"
   x2="303.71219"
   y2="407.6459"
   gradientTransform="matrix(16.887703,0,0,16.885209,-4532.9284,-6302.0068)" /><linearGradient
   inkscape:collect="always"
   xlink:href="#SVGID_10_"
   id="linearGradient23375"
   gradientUnits="userSpaceOnUse"
   x1="291.31351"
   y1="411.59769"
   x2="307.06631"
   y2="402.52979"
   gradientTransform="matrix(16.887703,0,0,16.885209,-4532.9284,-6302.0068)" /><linearGradient
   inkscape:collect="always"
   xlink:href="#SVGID_9_"
   id="linearGradient23378"
   gradientUnits="userSpaceOnUse"
   x1="286.20209"
   y1="411.47171"
   x2="305.1824"
   y2="400.5459"
   gradientTransform="matrix(16.887703,0,0,16.885209,-4532.9284,-6302.0068)" /><linearGradient
   inkscape:collect="always"
   xlink:href="#SVGID_8_"
   id="linearGradient23381"
   gradientUnits="userSpaceOnUse"
   x1="263.7832"
   y1="403.7764"
   x2="319.4827"
   y2="371.71359"
   gradientTransform="matrix(16.887703,0,0,16.885209,-4532.9284,-6302.0068)" /><linearGradient
   inkscape:collect="always"
   xlink:href="#SVGID_7_"
   id="linearGradient23384"
   gradientUnits="userSpaceOnUse"
   x1="272.7739"
   y1="411.95209"
   x2="298.4975"
   y2="397.14471"
   gradientTransform="matrix(16.887703,0,0,16.885209,-4532.9284,-6302.0068)" /><linearGradient
   inkscape:collect="always"
   xlink:href="#SVGID_6_"
   id="linearGradient23387"
   gradientUnits="userSpaceOnUse"
   x1="262.6738"
   y1="403.13669"
   x2="319.25549"
   y2="370.5661"
   gradientTransform="matrix(16.887703,0,0,16.885209,-4532.9284,-6302.0068)" /><linearGradient
   inkscape:collect="always"
   xlink:href="#SVGID_5_"
   id="linearGradient23390"
   gradientUnits="userSpaceOnUse"
   x1="267.12061"
   y1="407.0947"
   x2="313.0321"
   y2="380.66629"
   gradientTransform="matrix(16.887703,0,0,16.885209,-4532.9284,-6302.0068)" /><linearGradient
   inkscape:collect="always"
   xlink:href="#SVGID_4_"
   id="linearGradient23393"
   gradientUnits="userSpaceOnUse"
   x1="261.50241"
   y1="402.67871"
   x2="319.2536"
   y2="369.43491"
   gradientTransform="matrix(16.887703,0,0,16.885209,-4532.9284,-6302.0068)" /><linearGradient
   inkscape:collect="always"
   xlink:href="#SVGID_3_"
   id="linearGradient23396"
   gradientUnits="userSpaceOnUse"
   x1="277.27979"
   y1="413.1846"
   x2="296.27328"
   y2="402.25119"
   gradientTransform="matrix(16.887703,0,0,16.885209,-4532.9284,-6302.0068)" /><linearGradient
   inkscape:collect="always"
   xlink:href="#SVGID_2_"
   id="linearGradient23399"
   gradientUnits="userSpaceOnUse"
   x1="320.48831"
   y1="396.24951"
   x2="327.8613"
   y2="386.94958"
   gradientTransform="translate(-247.5,-372.13393)" /><linearGradient
   inkscape:collect="always"
   xlink:href="#SVGID_1_"
   id="linearGradient23402"
   gradientUnits="userSpaceOnUse"
   x1="278.8208"
   y1="397.25101"
   x2="286.1947"
   y2="387.95001"
   gradientTransform="matrix(16.654217,0,0,16.654217,-4514.8757,-6275.7717)" /><linearGradient
   inkscape:collect="always"
   xlink:href="#SVGID_30_"
   id="linearGradient23438"
   gradientUnits="userSpaceOnUse"
   x1="324.34079"
   y1="391.62741"
   x2="325.72589"
   y2="390.83011" /><linearGradient
   inkscape:collect="always"
   xlink:href="#SVGID_29_"
   id="linearGradient23440"
   gradientUnits="userSpaceOnUse"
   x1="282.6748"
   y1="392.62891"
   x2="284.05881"
   y2="391.83221" /><linearGradient
   inkscape:collect="always"
   xlink:href="#linearGradient23954"
   id="linearGradient23952"
   gradientUnits="userSpaceOnUse"
   x1="281.32288"
   y1="390.5668"
   x2="283.29834"
   y2="389.37524" /></defs><sodipodi:namedview
   inkscape:window-height="1538"
   inkscape:window-width="2560"
   inkscape:pageshadow="2"
   inkscape:pageopacity="0.0"
   guidetolerance="10.0"
   gridtolerance="10.0"
   objecttolerance="10.0"
   borderopacity="1.0"
   bordercolor="#666666"
   pagecolor="#ffffff"
   id="base"
   showgrid="false"
   inkscape:zoom="18.666667"
   inkscape:cx="19.071428"
   inkscape:cy="20.325197"
   inkscape:window-x="0"
   inkscape:window-y="24"
   inkscape:current-layer="Layer_1" />
<polygon
   stroke-miterlimit="10"
   points="278.414,418.031 278.414,417.218 270.415,409.48 281.877,374.105 285.609,373.811 288.643,374.675 300.407,414.131 299.333,414.344 299.503,415.691 296.625,416.354 295.193,415.306 282.977,417.597 283.036,418.945 279.929,419.688 278.414,418.031 "
   id="polygon22271"
   style="fill:none;stroke:#45341a;stroke-width:0.98624706;stroke-linecap:round;stroke-linejoin:round;stroke-miterlimit:10"
   transform="matrix(16.887703,0,0,16.885209,-4532.9284,-6302.0068)" /><polygon
   stroke-miterlimit="10"
   points="299.638,413.668 288.16,375.164 285.548,374.421 282.327,374.676 271.104,409.309 279.018,416.962 279.018,417.796 280.134,419.018 282.411,418.474 282.352,417.106 295.583,414.613 295.625,414.875 296.759,415.705 298.855,415.222 298.682,413.857 299.638,413.668 "
   id="polygon22273"
   style="fill:none;stroke:#ebe6e1;stroke-width:0.98624706;stroke-linecap:round;stroke-linejoin:round;stroke-miterlimit:10"
   transform="matrix(16.887703,0,0,16.885209,-4532.9284,-6302.0068)" /><polygon
   points="298.717,413.864 298.875,415.25 296.708,415.771 296.553,414.291 298.717,413.864 "
   id="polygon22279"
   style="fill:#493c25"
   transform="matrix(16.887703,0,0,16.885209,-4532.9284,-6302.0068)" /><polygon
   points="295.66,415.006 296.714,415.779 296.634,414.252 295.502,414.031 295.66,415.006 "
   id="polygon22281"
   style="fill:#9a8d7f"
   transform="matrix(16.887703,0,0,16.885209,-4532.9284,-6302.0068)" /><polygon
   points="280.091,417.601 280.176,419.102 282.453,418.558 282.39,417.112 280.091,417.601 "
   id="polygon22283"
   style="fill:#493c25"
   transform="matrix(16.887703,0,0,16.885209,-4532.9284,-6302.0068)" /><polygon
   points="279.059,416.86 280.091,417.601 280.176,419.102 279.059,417.88 279.059,416.86 "
   id="polygon22285"
   style="fill:#9a8d7f"
   transform="matrix(16.887703,0,0,16.885209,-4532.9284,-6302.0068)" /><polygon
   points="284.083,375.82 288.179,375.248 299.68,413.752 279.751,417.715 271.146,409.393 282.342,374.76 284.083,375.82 "
   id="polygon22295"
   style="fill:#4d3420"
   transform="matrix(16.887703,0,0,16.885209,-4532.9284,-6302.0068)" /><polygon
   points="284.647,376.639 287.848,376.303 295.122,400.958 281.79,403.122 284.647,376.639 "
   id="polygon22297"
   style="fill:#3c3627"
   transform="matrix(16.887703,0,0,16.885209,-4532.9284,-6302.0068)" /><polygon
   points="295.122,400.958 293.763,400.618 281.832,402.569 281.79,403.122 295.122,400.958 "
   id="polygon22299"
   style="fill:#ddd7d2"
   transform="matrix(16.887703,0,0,16.885209,-4532.9284,-6302.0068)" /><polygon
   points="287.856,376.338 295.122,400.958 293.785,400.618 287.31,377.378 287.367,376.415 287.856,376.338 "
   id="polygon22301"
   style="fill:#9a8d7f"
   transform="matrix(16.887703,0,0,16.885209,-4532.9284,-6302.0068)" /><polygon
   points="282.158,375.34 284.054,376.217 279.751,417.715 271.146,409.393 282.158,375.34 "
   id="polygon22303"
   style="fill:#836c4a"
   transform="matrix(16.887703,0,0,16.885209,-4532.9284,-6302.0068)" /><polygon
   points="284.537,376.652 286.893,376.525 289.517,401.311 286.799,401.757 284.537,376.652 "
   id="polygon22315"
   style="fill:#e8e4e2"
   transform="matrix(16.887703,0,0,16.885209,-4532.9284,-6302.0068)" /><polygon
   points="285.198,376.574 286.452,376.66 289.136,401.354 287.522,401.594 285.198,376.574 "
   id="polygon22317"
   style="fill:#b3c0c3"
   transform="matrix(16.887703,0,0,16.885209,-4532.9284,-6302.0068)" /><polygon
   points="285.063,376.703 285.322,376.683 287.679,401.662 287.394,401.692 285.063,376.703 "
   id="polygon22319"
   style="fill:#596b6f"
   transform="matrix(16.887703,0,0,16.885209,-4532.9284,-6302.0068)" /><polygon
   points="286.17,376.4 286.422,376.525 289.093,401.382 288.81,401.442 286.17,376.4 "
   id="polygon22321"
   style="fill:#596b6f"
   transform="matrix(16.887703,0,0,16.885209,-4532.9284,-6302.0068)" /><path
   d="M 334.25964,34.590049 L 265.03694,44.282159 L 191.8963,751.65422 L 528.43445,684.73814 L 334.25964,34.590049 z M 227.03961,495.97839 L 227.34359,495.94462 L 274.59538,58.077374 L 285.57239,57.25 L 286.58566,75.317173 L 318.84117,70.791937 L 320.27662,58.263112 L 320.51305,54.311973 L 320.74948,54.278202 L 320.8508,53.417057 L 328.65292,52.387059 L 451.51096,468.72566 L 226.34722,505.26525 L 227.03961,495.97839 z"
   id="path22331"
   style="fill:#4d3420" /><polygon
   points="285.385,377.688 285.326,376.617 285.071,376.651 285.071,377.217 285.385,377.688 "
   id="polygon22333"
   style="fill:#857868"
   transform="matrix(16.887703,0,0,16.885209,-4532.9284,-6302.0068)" /><path
   d="M 234.03112,506.14328 C 234.03112,506.14328 202.1978,713.05464 224.48957,744.90014 L 243.58956,740.66195 L 255.25896,502.96886 L 234.03112,506.14328 z"
   id="path22376"
   style="fill:url(#linearGradient23396)" /><path
   d="M 237.2229,39.250367 C 237.2229,39.250367 52.555862,581.48509 61.050377,624.98138 L 77.05992,640.11053 L 243.58956,43.50544 L 237.2229,39.250367 z"
   id="path22395"
   style="fill:url(#linearGradient23393)" /><path
   d="M 249.95623,185.69578 C 224.48957,158.10535 121.60968,648.31674 130.08731,691.82993 L 146.45149,707.66825 C 146.45149,707.66825 219.16994,217.55818 240.39779,261.05447 L 249.95623,185.69578 z"
   id="path22414"
   style="fill:url(#linearGradient23390)" /><path
   d="M 242.52563,40.314135 C 242.52563,40.314135 82.27822,610.1224 90.755847,653.63559 L 99.216584,661.47032 C 98.152664,622.21221 245.70052,42.441671 245.70052,42.441671 L 242.52563,40.314135 z"
   id="path22433"
   style="fill:url(#linearGradient23387)" /><path
   d="M 224.48957,435.05655 C 202.1978,436.12032 148.07271,673.79652 156.56722,717.30971 L 170.46581,730.59837 C 169.40188,691.34026 207.50054,475.37843 221.29779,471.12336 L 224.48957,435.05655 z"
   id="path22452"
   style="fill:url(#linearGradient23384)" /><path
   d="M 246.76445,42.441671 C 246.76445,42.441671 106.83294,633.77858 115.31057,677.30865 L 124.02463,685.75125 C 122.9607,646.49314 249.95623,44.552322 249.95623,44.552322 L 246.76445,42.441671 z"
   id="path22471"
   style="fill:url(#linearGradient23381)" /><path
   d="M 384.73699,477.50597 C 384.73699,477.50597 352.43081,683.38732 374.70569,715.21594 L 394.41363,711.34923 L 405.96483,474.33155 L 384.73699,477.50597 z"
   id="path22480"
   style="fill:url(#linearGradient23378)" /><path
   d="M 473.53253,504.21837 C 473.53253,504.21837 420.03228,604.0775 445.78603,701.13368 L 463.73766,697.26697 C 454.83784,631.88744 483.44561,539.86305 483.44561,539.86305 L 473.53253,504.21837 z"
   id="path22489"
   style="fill:url(#linearGradient23375)" /><path
   d="M 498.17169,586.39868 C 498.17169,586.39868 468.83775,640.73529 482.97275,693.95747 L 492.73385,691.77927 C 487.8533,655.93197 503.62642,605.95176 503.62642,605.95176 L 498.17169,586.39868 z"
   id="path22498"
   style="fill:url(#linearGradient23372)" /><path
   d="M 305.14524,494.4756 C 305.14524,494.4756 273.3457,702.38318 279.71236,734.2118 L 299.77495,729.9905 C 297.66399,708.7658 300.90642,601.64602 307.27309,558.13284 C 313.63975,514.63654 318.9425,492.34806 318.9425,492.34806 L 305.14524,494.4756 z"
   id="path22507"
   style="fill:url(#linearGradient23369)" /><path
   d="M 433.54245,469.0127 C 433.54245,469.0127 402.11443,676.68389 408.4811,708.5294 L 428.54369,704.66268 C 426.41584,683.43798 429.32052,576.18313 435.68718,532.66994 C 442.05385,489.15677 447.35659,466.88517 447.35659,466.88517 L 433.54245,469.0127 z"
   id="path22516"
   style="fill:url(#linearGradient23366)" /><path
   d="M 366.68403,481.74415 C 366.68403,481.74415 334.81693,690.05698 341.1836,721.90249 L 361.76971,717.95134 C 359.64186,696.72664 362.44522,588.91458 368.81188,545.41828 C 375.17854,501.92198 380.48128,479.63351 380.48128,479.63351 L 366.68403,481.74415 z"
   id="path22525"
   style="fill:url(#linearGradient23363)" /><path
   d="M 338.04249,488.10988 C 338.04249,488.10988 306.32738,695.59533 312.69405,727.44083 L 333.00995,723.4897 C 330.8821,702.26498 333.78678,595.2803 340.17034,551.78401 C 346.537,508.2877 351.82285,485.99923 351.82285,485.99923 L 338.04249,488.10988 z"
   id="path22534"
   style="fill:url(#linearGradient23360)" /><path
   style="fill:#eeeeec;fill-rule:evenodd;stroke:#536e6c;stroke-width:12.375;stroke-linecap:butt;stroke-linejoin:miter;stroke-miterlimit:4;stroke-dasharray:none;stroke-opacity:1"
   d="M 325.13362,478.45736 L 92.015819,113.6841 C 94.484126,93.214788 101.04761,88.874863 122.49073,91.279381 L 357.40116,473.0312 L 325.13362,478.45736 z"
   id="path24000"
   sodipodi:nodetypes="ccccc" /><polygon
   points="284.062,376.225 282.129,375.396 282.342,374.738 284.146,375.545 284.062,376.225 "
   id="polygon22703"
   style="fill:#482f1f"
   transform="matrix(16.887703,0,0,16.885209,-4532.9284,-6302.0068)" /><polygon
   points="288.202,375.248 288.35,375.82 284.062,376.225 284.146,375.545 288.202,375.248 "
   id="polygon22705"
   style="fill:#341f0e"
   transform="matrix(16.887703,0,0,16.885209,-4532.9284,-6302.0068)" /><polygon
   points="285.59,374.504 288.202,375.248 284.146,375.545 282.321,374.738 285.59,374.504 "
   id="polygon22707"
   style="fill:#cabeb0"
   transform="matrix(16.887703,0,0,16.885209,-4532.9284,-6302.0068)" /><path
   style="fill:#2e3436;stroke:#2e3436;stroke-width:18.06749916;stroke-miterlimit:4;stroke-dasharray:none"
   d="M 255.31038,224.70011 L 161.19669,297.29139 L 219.00938,366.52196 L 233.12643,371.89909 L 233.79867,372.57123 L 234.47091,372.57123 L 298.33378,320.81634 L 270.09967,236.79866 L 255.31038,224.70011 z"
   id="polygon23971" /><polygon
   points="279.695,390.072 282.413,387.992 282.837,388.332 283.644,390.752 281.813,392.24 281.394,392.04 279.695,390.072 "
   id="polygon22726"
   style="fill:#b1b3b6"
   transform="matrix(34.734373,0,0,34.729243,-9554.0754,-13249.761)" /><polygon
   points="282.413,387.992 282.837,388.332 280.261,390.299 279.695,390.072 282.413,387.992 "
   id="polygon22728"
   style="fill:#e9e9ea"
   transform="matrix(34.734373,0,0,34.729243,-9554.0754,-13249.761)" /><polygon
   points="281.79,392.238 280.261,390.32 279.695,390.072 281.365,392.068 281.79,392.238 "
   id="polygon22730"
   style="fill:#c9cacc"
   transform="matrix(34.734373,0,0,34.729243,-9554.0754,-13249.761)" /><circle
   cx="282.505"
   cy="389.439"
   r="0.27200001"
   id="circle22732"
   sodipodi:cx="282.505"
   sodipodi:cy="389.439"
   sodipodi:rx="0.27200001"
   sodipodi:ry="0.27200001"
   style="fill:#6b6c6f"
   transform="matrix(34.734373,0,0,34.729243,-9554.0754,-13249.761)" /><circle
   cx="281.207"
   cy="390.44501"
   r="0.27200001"
   id="circle22734"
   sodipodi:cx="281.207"
   sodipodi:cy="390.44501"
   sodipodi:rx="0.27200001"
   sodipodi:ry="0.27200001"
   style="fill:#6b6c6f"
   transform="matrix(34.734373,0,0,34.729243,-9554.0754,-13249.761)" /><polygon
   points="286.999,394.584 288.087,394.326 288.087,394.541 287.041,394.793 286.999,394.584 "
   id="polygon22736"
   style="fill:#596b6f"
   transform="matrix(16.887703,0,0,16.885209,-4532.9284,-6302.0068)" /><polygon
   points="286.433,388.582 287.522,388.324 287.522,388.54 286.475,388.791 286.433,388.582 "
   id="polygon22738"
   style="fill:#596b6f"
   transform="matrix(16.887703,0,0,16.885209,-4532.9284,-6302.0068)" /><polygon
   points="285.993,384.686 287.082,384.428 287.082,384.645 286.035,384.896 285.993,384.686 "
   id="polygon22740"
   style="fill:#596b6f"
   transform="matrix(16.887703,0,0,16.885209,-4532.9284,-6302.0068)" /><polygon
   points="285.742,381.983 286.831,381.726 286.831,381.941 285.784,382.193 285.742,381.983 "
   id="polygon22742"
   style="fill:#596b6f"
   transform="matrix(16.887703,0,0,16.885209,-4532.9284,-6302.0068)" /><polygon
   points="285.521,379.658 286.611,379.4 286.611,379.617 285.563,379.868 285.521,379.658 "
   id="polygon22744"
   style="fill:#596b6f"
   transform="matrix(16.887703,0,0,16.885209,-4532.9284,-6302.0068)" />

</svg>