<?xml version="1.0" encoding="UTF-8" standalone="no"?>
<!-- Generator: Adobe Illustrator 15.0.0, SVG Export Plug-In . SVG Version: 6.00 Build 0)  -->
<svg
   xmlns:dc="http://purl.org/dc/elements/1.1/"
   xmlns:cc="http://creativecommons.org/ns#"
   xmlns:rdf="http://www.w3.org/1999/02/22-rdf-syntax-ns#"
   xmlns:svg="http://www.w3.org/2000/svg"
   xmlns="http://www.w3.org/2000/svg"
   xmlns:xlink="http://www.w3.org/1999/xlink"
   xmlns:sodipodi="http://sodipodi.sourceforge.net/DTD/sodipodi-0.dtd"
   xmlns:inkscape="http://www.inkscape.org/namespaces/inkscape"
   version="1.0"
   id="Layer_1"
   x="0px"
   y="0px"
   width="48"
   height="48"
   viewBox="0 0 612 792"
   enable-background="new 0 0 612 792"
   xml:space="preserve"
   sodipodi:version="0.32"
   inkscape:version="0.46"
   sodipodi:docname="puppet.svg"
   inkscape:output_extension="org.inkscape.output.svg.inkscape"><metadata
   id="metadata27116"><rdf:RDF><cc:Work
       rdf:about=""><dc:format>image/svg+xml</dc:format><dc:type
         rdf:resource="http://purl.org/dc/dcmitype/StillImage" /></cc:Work></rdf:RDF></metadata><defs
   id="defs27114"><inkscape:perspective
   sodipodi:type="inkscape:persp3d"
   inkscape:vp_x="0 : 396 : 1"
   inkscape:vp_y="0 : 1000 : 0"
   inkscape:vp_z="612 : 396 : 1"
   inkscape:persp3d-origin="306 : 264 : 1"
   id="perspective27118" />
	
	
<linearGradient
   inkscape:collect="always"
   xlink:href="#SVGID_1_"
   id="linearGradient27238"
   gradientUnits="userSpaceOnUse"
   x1="297.24271"
   y1="413.1113"
   x2="307.03711"
   y2="413.1113" /><linearGradient
   inkscape:collect="always"
   xlink:href="#SVGID_2_"
   id="linearGradient27240"
   gradientUnits="userSpaceOnUse"
   x1="313.09381"
   y1="390.99219"
   x2="315.22919"
   y2="396.30029" /><radialGradient
   inkscape:collect="always"
   xlink:href="#SVGID_3_"
   id="radialGradient27242"
   gradientUnits="userSpaceOnUse"
   cx="320.07419"
   cy="392.8071"
   r="4.4493999" /><linearGradient
   inkscape:collect="always"
   xlink:href="#SVGID_4_"
   id="linearGradient27244"
   gradientUnits="userSpaceOnUse"
   x1="301.7114"
   y1="403.9707"
   x2="308.017"
   y2="395.22891" /><linearGradient
   inkscape:collect="always"
   xlink:href="#SVGID_5_"
   id="linearGradient27246"
   gradientUnits="userSpaceOnUse"
   x1="311.0986"
   y1="409.67581"
   x2="308.23251"
   y2="392.47879" /><radialGradient
   inkscape:collect="always"
   xlink:href="#SVGID_6_"
   id="radialGradient27248"
   gradientUnits="userSpaceOnUse"
   cx="303.5903"
   cy="392.2612"
   r="13.2363" /><radialGradient
   inkscape:collect="always"
   xlink:href="#SVGID_7_"
   id="radialGradient27250"
   gradientUnits="userSpaceOnUse"
   cx="313"
   cy="387.75"
   r="8.1014996" /><radialGradient
   inkscape:collect="always"
   xlink:href="#SVGID_8_"
   id="radialGradient27252"
   gradientUnits="userSpaceOnUse"
   cx="305.76709"
   cy="386.38181"
   r="3.4284999" /><radialGradient
   inkscape:collect="always"
   xlink:href="#SVGID_9_"
   id="radialGradient27254"
   gradientUnits="userSpaceOnUse"
   gradientTransform="matrix(0.9483,-0.3174,9.52e-2,0.2845,-20.6165,370.575)"
   cx="305.47269"
   cy="382.3945"
   r="20.114799" /><linearGradient
   inkscape:collect="always"
   xlink:href="#SVGID_10_"
   id="linearGradient27256"
   gradientUnits="userSpaceOnUse"
   x1="298.16019"
   y1="376.16159"
   x2="305.11499"
   y2="381.95731" /><linearGradient
   inkscape:collect="always"
   xlink:href="#SVGID_11_"
   id="linearGradient27258"
   gradientUnits="userSpaceOnUse"
   x1="309.8125"
   y1="376.02051"
   x2="320.18451"
   y2="380.0473" /><radialGradient
   inkscape:collect="always"
   xlink:href="#SVGID_12_"
   id="radialGradient27260"
   gradientUnits="userSpaceOnUse"
   cx="310.15921"
   cy="383.41211"
   r="3.8231001" /><linearGradient
   inkscape:collect="always"
   xlink:href="#SVGID_13_"
   id="linearGradient27262"
   gradientUnits="userSpaceOnUse"
   x1="299.5835"
   y1="391.18509"
   x2="298.91241"
   y2="399.177" /><linearGradient
   inkscape:collect="always"
   xlink:href="#SVGID_14_"
   id="linearGradient27264"
   gradientUnits="userSpaceOnUse"
   x1="296.73001"
   y1="392.11469"
   x2="295.479"
   y2="398.40021" /><radialGradient
   inkscape:collect="always"
   xlink:href="#SVGID_15_"
   id="radialGradient27266"
   gradientUnits="userSpaceOnUse"
   cx="295.2627"
   cy="396.67191"
   r="4.6381001" />
		
			
		
		
		<linearGradient
   id="SVGID_1_"
   gradientUnits="userSpaceOnUse"
   x1="297.24271"
   y1="413.1113"
   x2="307.03711"
   y2="413.1113">
			<stop
   offset="0.3252"
   style="stop-color:#FDB714;stop-opacity:0"
   id="stop26903" />
			<stop
   offset="0.8712"
   style="stop-color:#AD7E20;stop-opacity:0.7"
   id="stop26905" />
		</linearGradient>
		
		
		<linearGradient
   id="SVGID_2_"
   gradientUnits="userSpaceOnUse"
   x1="313.09381"
   y1="390.99219"
   x2="315.22919"
   y2="396.30029">
			<stop
   offset="0.3252"
   style="stop-color:#FDB714;stop-opacity:0"
   id="stop26912" />
			<stop
   offset="0.8712"
   style="stop-color:#708B3A;stop-opacity:0.7"
   id="stop26914" />
		</linearGradient>
		
		
		
		<radialGradient
   id="SVGID_3_"
   cx="320.07419"
   cy="392.8071"
   r="4.4493999"
   gradientUnits="userSpaceOnUse">
			<stop
   offset="0"
   style="stop-color:#D4AB9D;stop-opacity:0.7"
   id="stop26923" />
			<stop
   offset="0.0343"
   style="stop-color:#CF9F8F;stop-opacity:0.676"
   id="stop26925" />
			<stop
   offset="0.1496"
   style="stop-color:#C37E6A;stop-opacity:0.5953"
   id="stop26927" />
			<stop
   offset="0.2702"
   style="stop-color:#B96450;stop-opacity:0.5109"
   id="stop26929" />
			<stop
   offset="0.3948"
   style="stop-color:#B14E3B;stop-opacity:0.4236"
   id="stop26931" />
			<stop
   offset="0.5249"
   style="stop-color:#AC3B2E;stop-opacity:0.3326"
   id="stop26933" />
			<stop
   offset="0.6625"
   style="stop-color:#A82C26;stop-opacity:0.2363"
   id="stop26935" />
			<stop
   offset="0.8128"
   style="stop-color:#A62222;stop-opacity:0.131"
   id="stop26937" />
			<stop
   offset="1"
   style="stop-color:#A51F22;stop-opacity:0"
   id="stop26939" />
		</radialGradient>
		
		
		
		<linearGradient
   id="SVGID_4_"
   gradientUnits="userSpaceOnUse"
   x1="301.7114"
   y1="403.9707"
   x2="308.017"
   y2="395.22891">
			<stop
   offset="0.3252"
   style="stop-color:#FDB714;stop-opacity:0"
   id="stop26948" />
			<stop
   offset="0.8712"
   style="stop-color:#708B3A;stop-opacity:0.7"
   id="stop26950" />
		</linearGradient>
		
		<linearGradient
   id="SVGID_5_"
   gradientUnits="userSpaceOnUse"
   x1="311.0986"
   y1="409.67581"
   x2="308.23251"
   y2="392.47879">
			<stop
   offset="0.3252"
   style="stop-color:#FDB714;stop-opacity:0"
   id="stop26955" />
			<stop
   offset="0.8712"
   style="stop-color:#BD1F50;stop-opacity:0.7"
   id="stop26957" />
		</linearGradient>
		
		
		<radialGradient
   id="SVGID_6_"
   cx="303.5903"
   cy="392.2612"
   r="13.2363"
   gradientUnits="userSpaceOnUse">
			<stop
   offset="0.3742"
   style="stop-color:#256B7F;stop-opacity:0.7"
   id="stop26964" />
			<stop
   offset="0.6748"
   style="stop-color:#256B7F;stop-opacity:0"
   id="stop26966" />
		</radialGradient>
		
		
		<radialGradient
   id="SVGID_7_"
   cx="313"
   cy="387.75"
   r="8.1014996"
   gradientUnits="userSpaceOnUse">
			<stop
   offset="0"
   style="stop-color:#D4AB9D;stop-opacity:0.7"
   id="stop26973" />
			<stop
   offset="0.0343"
   style="stop-color:#CF9F8F;stop-opacity:0.676"
   id="stop26975" />
			<stop
   offset="0.1496"
   style="stop-color:#C37E6A;stop-opacity:0.5953"
   id="stop26977" />
			<stop
   offset="0.2702"
   style="stop-color:#B96450;stop-opacity:0.5109"
   id="stop26979" />
			<stop
   offset="0.3948"
   style="stop-color:#B14E3B;stop-opacity:0.4236"
   id="stop26981" />
			<stop
   offset="0.5249"
   style="stop-color:#AC3B2E;stop-opacity:0.3326"
   id="stop26983" />
			<stop
   offset="0.6625"
   style="stop-color:#A82C26;stop-opacity:0.2363"
   id="stop26985" />
			<stop
   offset="0.8128"
   style="stop-color:#A62222;stop-opacity:0.131"
   id="stop26987" />
			<stop
   offset="1"
   style="stop-color:#A51F22;stop-opacity:0"
   id="stop26989" />
		</radialGradient>
		
		
		
		
		
			
		
		
			
		
			
		
			
		
		<radialGradient
   id="SVGID_8_"
   cx="305.76709"
   cy="386.38181"
   r="3.4284999"
   gradientUnits="userSpaceOnUse">
			<stop
   offset="0"
   style="stop-color:#8D191B;stop-opacity:0.7"
   id="stop27012" />
			<stop
   offset="0.279"
   style="stop-color:#9A1C1F;stop-opacity:0.5047"
   id="stop27014" />
			<stop
   offset="0.5999"
   style="stop-color:#A21E21;stop-opacity:0.2801"
   id="stop27016" />
			<stop
   offset="1"
   style="stop-color:#A51F22;stop-opacity:0"
   id="stop27018" />
		</radialGradient>
		
		
		
			<radialGradient
   id="SVGID_9_"
   cx="305.47269"
   cy="382.3945"
   r="20.114799"
   gradientTransform="matrix(0.9483,-0.3174,9.52e-2,0.2845,-20.6165,370.575)"
   gradientUnits="userSpaceOnUse">
			<stop
   offset="0"
   style="stop-color:#8E3E1B;stop-opacity:0.95"
   id="stop27025" />
			<stop
   offset="0.319"
   style="stop-color:#8D2E1A;stop-opacity:0.6512"
   id="stop27027" />
			<stop
   offset="0.3539"
   style="stop-color:#872E19;stop-opacity:0.5623"
   id="stop27029" />
			<stop
   offset="0.4709"
   style="stop-color:#782D16;stop-opacity:0.2639"
   id="stop27031" />
			<stop
   offset="0.5744"
   style="stop-color:#742D15;stop-opacity:0"
   id="stop27033" />
		</radialGradient>
		
		
		<linearGradient
   id="SVGID_10_"
   gradientUnits="userSpaceOnUse"
   x1="298.16019"
   y1="376.16159"
   x2="305.11499"
   y2="381.95731">
			<stop
   offset="0.3252"
   style="stop-color:#FDB714;stop-opacity:0"
   id="stop27040" />
			<stop
   offset="0.8712"
   style="stop-color:#708B3A;stop-opacity:0.7"
   id="stop27042" />
		</linearGradient>
		
		
		<linearGradient
   id="SVGID_11_"
   gradientUnits="userSpaceOnUse"
   x1="309.8125"
   y1="376.02051"
   x2="320.18451"
   y2="380.0473">
			<stop
   offset="0"
   style="stop-color:#FDB714;stop-opacity:0"
   id="stop27049" />
			<stop
   offset="1"
   style="stop-color:#BD1F50;stop-opacity:0.7"
   id="stop27051" />
		</linearGradient>
		
		
		
		<radialGradient
   id="SVGID_12_"
   cx="310.15921"
   cy="383.41211"
   r="3.8231001"
   gradientUnits="userSpaceOnUse">
			<stop
   offset="0"
   style="stop-color:#FDF9D2"
   id="stop27060" />
			<stop
   offset="0.0896"
   style="stop-color:#FCF9D2;stop-opacity:0.9104"
   id="stop27062" />
			<stop
   offset="1"
   style="stop-color:#F8F8D2;stop-opacity:0"
   id="stop27064" />
		</radialGradient>
		
		
		
		<linearGradient
   id="SVGID_13_"
   gradientUnits="userSpaceOnUse"
   x1="299.5835"
   y1="391.18509"
   x2="298.91241"
   y2="399.177">
			<stop
   offset="0.3252"
   style="stop-color:#FDB714;stop-opacity:0"
   id="stop27073" />
			<stop
   offset="0.8712"
   style="stop-color:#BD1F50;stop-opacity:0.7"
   id="stop27075" />
		</linearGradient>
		
		
		<linearGradient
   id="SVGID_14_"
   gradientUnits="userSpaceOnUse"
   x1="296.73001"
   y1="392.11469"
   x2="295.479"
   y2="398.40021">
			<stop
   offset="0.3252"
   style="stop-color:#A9A5A6;stop-opacity:0"
   id="stop27082" />
			<stop
   offset="0.8712"
   style="stop-color:#0096BC;stop-opacity:0.7"
   id="stop27084" />
		</linearGradient>
		
		
		<radialGradient
   id="SVGID_15_"
   cx="295.2627"
   cy="396.67191"
   r="4.6381001"
   gradientUnits="userSpaceOnUse">
			<stop
   offset="0"
   style="stop-color:#D4AB9D;stop-opacity:0.7"
   id="stop27091" />
			<stop
   offset="0.0343"
   style="stop-color:#CF9F8F;stop-opacity:0.676"
   id="stop27093" />
			<stop
   offset="0.1496"
   style="stop-color:#C37E6A;stop-opacity:0.5953"
   id="stop27095" />
			<stop
   offset="0.2702"
   style="stop-color:#B96450;stop-opacity:0.5109"
   id="stop27097" />
			<stop
   offset="0.3948"
   style="stop-color:#B14E3B;stop-opacity:0.4236"
   id="stop27099" />
			<stop
   offset="0.5249"
   style="stop-color:#AC3B2E;stop-opacity:0.3326"
   id="stop27101" />
			<stop
   offset="0.6625"
   style="stop-color:#A82C26;stop-opacity:0.2363"
   id="stop27103" />
			<stop
   offset="0.8128"
   style="stop-color:#A62222;stop-opacity:0.131"
   id="stop27105" />
			<stop
   offset="1"
   style="stop-color:#A51F22;stop-opacity:0"
   id="stop27107" />
		</radialGradient>
		
		
			
	<radialGradient
   inkscape:collect="always"
   xlink:href="#SVGID_15_"
   id="radialGradient27342"
   gradientUnits="userSpaceOnUse"
   cx="295.2627"
   cy="396.67191"
   r="4.6381001"
   gradientTransform="matrix(16.888768,0,0,16.888768,-4981.8891,-6291.9492)" /><linearGradient
   inkscape:collect="always"
   xlink:href="#SVGID_14_"
   id="linearGradient27346"
   gradientUnits="userSpaceOnUse"
   x1="296.73001"
   y1="392.11469"
   x2="295.479"
   y2="398.40021"
   gradientTransform="matrix(16.888768,0,0,16.888768,-4981.8891,-6291.9492)" /><linearGradient
   inkscape:collect="always"
   xlink:href="#SVGID_13_"
   id="linearGradient27350"
   gradientUnits="userSpaceOnUse"
   x1="299.5835"
   y1="391.18509"
   x2="298.91241"
   y2="399.177"
   gradientTransform="matrix(16.888768,0,0,16.888768,-4981.8891,-6291.9492)" /><linearGradient
   inkscape:collect="always"
   xlink:href="#SVGID_11_"
   id="linearGradient27358"
   gradientUnits="userSpaceOnUse"
   x1="309.8125"
   y1="376.02051"
   x2="320.18451"
   y2="380.0473"
   gradientTransform="matrix(16.888768,0,0,16.888768,-4981.8891,-6291.9492)" /><linearGradient
   inkscape:collect="always"
   xlink:href="#SVGID_10_"
   id="linearGradient27362"
   gradientUnits="userSpaceOnUse"
   x1="298.16019"
   y1="376.16159"
   x2="305.11499"
   y2="381.95731"
   gradientTransform="matrix(16.888768,0,0,16.888768,-4981.8891,-6291.9492)" /><radialGradient
   inkscape:collect="always"
   xlink:href="#SVGID_9_"
   id="radialGradient27366"
   gradientUnits="userSpaceOnUse"
   gradientTransform="matrix(16.015618,-5.3604949,1.6078107,4.8048544,-5330.0764,-33.394207)"
   cx="305.47269"
   cy="382.3945"
   r="20.114799" /><radialGradient
   inkscape:collect="always"
   xlink:href="#SVGID_6_"
   id="radialGradient27382"
   gradientUnits="userSpaceOnUse"
   cx="303.5903"
   cy="392.2612"
   r="13.2363"
   gradientTransform="matrix(16.888768,0,0,16.888768,-4981.8891,-6291.9492)" /><linearGradient
   inkscape:collect="always"
   xlink:href="#SVGID_5_"
   id="linearGradient27386"
   gradientUnits="userSpaceOnUse"
   x1="311.0986"
   y1="409.67581"
   x2="308.23251"
   y2="392.47879"
   gradientTransform="matrix(16.888768,0,0,16.888768,-4981.8891,-6291.9492)" /><linearGradient
   inkscape:collect="always"
   xlink:href="#SVGID_4_"
   id="linearGradient27389"
   gradientUnits="userSpaceOnUse"
   x1="301.7114"
   y1="403.9707"
   x2="308.017"
   y2="395.22891"
   gradientTransform="matrix(16.888768,0,0,16.888768,-4981.8891,-6291.9492)" /><radialGradient
   inkscape:collect="always"
   xlink:href="#SVGID_3_"
   id="radialGradient27394"
   gradientUnits="userSpaceOnUse"
   cx="320.07419"
   cy="392.8071"
   r="4.4493999"
   gradientTransform="matrix(16.888768,0,0,16.888768,-4981.8891,-6291.9492)" /><linearGradient
   inkscape:collect="always"
   xlink:href="#SVGID_2_"
   id="linearGradient27399"
   gradientUnits="userSpaceOnUse"
   x1="313.09381"
   y1="390.99219"
   x2="315.22919"
   y2="396.30029"
   gradientTransform="matrix(16.888768,0,0,16.888768,-4981.8891,-6291.9492)" /><linearGradient
   inkscape:collect="always"
   xlink:href="#SVGID_1_"
   id="linearGradient27403"
   gradientUnits="userSpaceOnUse"
   x1="297.24271"
   y1="413.1113"
   x2="307.03711"
   y2="413.1113"
   gradientTransform="matrix(16.888768,0,0,16.888768,-4981.8891,-6291.9492)" /><radialGradient
   inkscape:collect="always"
   xlink:href="#SVGID_12_"
   id="radialGradient27408"
   gradientUnits="userSpaceOnUse"
   cx="310.15921"
   cy="383.41211"
   r="3.8231001" /><radialGradient
   inkscape:collect="always"
   xlink:href="#SVGID_8_"
   id="radialGradient27410"
   gradientUnits="userSpaceOnUse"
   cx="305.76709"
   cy="386.38181"
   r="3.4284999" /><radialGradient
   inkscape:collect="always"
   xlink:href="#SVGID_7_"
   id="radialGradient27412"
   gradientUnits="userSpaceOnUse"
   cx="313"
   cy="387.75"
   r="8.1014996" /></defs><sodipodi:namedview
   inkscape:window-height="1538"
   inkscape:window-width="2560"
   inkscape:pageshadow="2"
   inkscape:pageopacity="0.0"
   guidetolerance="10.0"
   gridtolerance="10.0"
   objecttolerance="10.0"
   borderopacity="1.0"
   bordercolor="#666666"
   pagecolor="#ffffff"
   id="base"
   showgrid="false"
   inkscape:zoom="18.666667"
   inkscape:cx="21.363172"
   inkscape:cy="26.305228"
   inkscape:window-x="0"
   inkscape:window-y="24"
   inkscape:current-layer="Layer_1" />
<path
   stroke-miterlimit="10"
   d="M 433.46045,319.80059 C 427.27915,307.70823 410.40728,303.65493 393.6874,309.414 C 394.71762,300.19273 392.3363,292.45767 387.01634,290.83635 C 380.41282,288.87726 372.12044,297.01764 368.55692,309.07622 C 367.81381,311.57576 367.45914,313.97397 367.23959,316.28773 C 364.55428,316.05128 361.91962,313.66997 357.69743,314.15974 C 355.68767,314.39618 352.51259,316.89572 350.02994,320.20592 C 337.41402,324.69834 325.62567,328.17742 315.05329,331.11607 L 312.30043,317.60505 C 312.58754,315.86551 312.70576,314.78462 312.73953,314.3793 C 312.7902,314.12596 312.85776,313.66997 312.85776,313.66997 C 312.85776,313.66997 302.7245,304.58381 285.00818,304.58381 L 284.63663,304.58381 C 301.00184,282.49331 311.11821,252.92107 311.11821,220.27509 C 311.11821,179.06648 295.057,142.6712 270.50073,120.2598 C 274.4527,122.33712 278.92823,124.026 283.20108,124.24555 C 294.70234,124.87043 322.53502,114.58518 309.81778,101.86793 C 306.47381,98.523957 300.24185,94.977316 292.20279,91.76845 C 274.04737,69.880607 267.74786,71.535706 266.53186,61.942886 C 265.34965,52.248733 266.81898,27.456023 293.46945,38.332389 C 320.05237,49.225644 367.27337,79.490316 350.31704,120.02336 C 345.13219,132.41972 345.35174,146.94406 347.86817,158.31019 C 342.19355,162.22839 338.24157,168.46034 338.24157,175.8914 C 338.24157,187.89931 348.00328,197.67791 360.06187,197.67791 C 372.06978,197.67791 381.8146,187.89931 381.8146,175.8914 C 381.8146,165.99459 375.10976,157.97242 366.09115,155.32088 C 366.36137,147.45071 366.04049,137.2499 364.8245,124.24555 C 355.75523,24.432934 376.32575,21.409844 321.26837,16.562767 C 291.37524,13.945008 216.1189,16.832987 199.68612,26.848026 C 202.10122,27.320912 204.27987,27.844464 206.42475,28.368016 C 174.28542,22.777834 127.26709,32.032879 96.816642,34.701304 C 41.75926,39.54838 62.312891,83.1214 53.243622,182.95091 C 51.841854,198.53924 51.622301,210.12493 52.213407,218.46798 C 43.718357,221.42352 37.50329,229.32746 37.50329,238.81895 C 37.50329,250.84375 47.264998,260.60546 59.289801,260.60546 C 71.314603,260.60546 81.076311,250.86064 81.076311,238.81895 C 81.076311,230.57723 76.29679,223.61906 69.524394,219.93731 C 72.665705,208.2165 73.391922,192.22284 67.767962,178.71182 C 50.81164,138.17879 98.015746,67.397958 124.64933,56.504703 C 151.28292,45.594559 152.46513,74.643239 151.28292,84.320503 C 150.05004,94.014656 142.82165,104.28302 128.29731,121.84734 C 128.34797,121.84734 128.43242,121.83046 128.48308,121.84734 C 108.21656,145.03562 87.477154,172.29409 114.36407,167.22746 C 118.68759,166.4168 122.60579,165.43726 126.25376,164.39015 C 119.48137,181.17759 115.59696,200.14367 115.59696,220.29197 C 115.59696,252.93796 125.71333,282.51019 142.06166,304.6007 L 141.40298,304.6007 C 141.40298,304.6007 138.75146,305.00603 135.03592,305.81669 C 131.1684,306.57668 126.84488,307.7589 122.47068,309.414 C 121.71069,309.68421 120.9338,309.93755 120.17381,310.25844 C 120.14003,310.27533 120.12314,310.29221 120.08937,310.29221 C 115.81651,312.06554 111.9152,314.31174 109.17922,317.06461 C 108.94278,317.25039 108.65566,317.40238 108.43611,317.60505 C 107.81123,318.17927 107.38901,318.78726 107.11879,319.46282 C 107.01746,319.63171 106.81479,319.7837 106.73035,319.9357 C 105.76769,321.60769 105.78458,323.46545 106.29124,325.39078 C 97.880635,334.32494 90.094913,345.91062 82.934075,359.15142 C 68.511068,359.4723 52.027631,359.69186 33.889094,358.76298 C 29.852678,355.80744 25.360267,354.01723 23.012728,354.43945 C 17.929209,355.35145 15.699891,359.0332 12.693691,360.19852 C 11.646588,357.59765 10.396819,354.94611 8.6572755,352.32835 C 0.34800178,339.67867 -12.048354,333.12583 -19.006526,337.70268 C -24.579819,341.40133 -24.69804,351.17992 -20.306961,361.46518 C -41.586808,360.63763 -59.708456,371.17622 -62.66399,387.27122 C -65.991078,405.56175 -48.528092,424.00428 -23.634048,428.51359 C -18.466085,429.45936 -13.483899,429.57758 -8.6537114,429.25669 C -8.8394878,430.54024 -9.1603747,431.70556 -9.7008153,432.75267 C -13.163013,439.50818 -3.5364148,440.25128 2.5604304,441.5855 C 3.8270879,442.46371 5.2288556,443.08859 6.799511,443.32504 C 10.025266,446.90546 15.615448,447.32767 21.138075,446.11168 C 28.974463,447.81745 37.587735,449.92854 46.961,452.09031 C 28.028692,517.33162 18.756758,579.70184 18.756758,579.70184 C 18.756758,579.70184 28.282023,564.70461 65.403534,592.57108 L 199.78746,650.95555 C 301.12007,621.50153 297.38765,544.67453 360.04497,552.29137 L 331.75628,413.38125 C 351.43171,403.77154 367.76314,393.9254 381.13904,386.51122 C 385.74968,386.13967 390.00565,384.43391 391.69452,380.87037 C 392.84297,380.29616 393.83939,379.48549 394.61628,378.50595 C 399.15936,375.95574 406.59042,373.06776 402.28378,368.55847 C 401.62512,367.86602 401.33801,366.83581 400.9158,365.95759 C 404.73265,365.07938 408.5664,363.79583 412.3326,361.8874 C 430.96091,352.32835 440.46929,333.49739 433.46045,319.80059 z"
   id="path26898"
   style="fill:none;stroke:#4e651d;stroke-width:33;stroke-linecap:round;stroke-linejoin:round;stroke-miterlimit:10;stroke-dasharray:none;stroke-opacity:1"
   sodipodi:nodetypes="ccsscscccscccscsscssscsssccsccsscssscsssssscsccsssssssscccscsscsscscccccccccccsscsc" /><path
   d="M 65.589311,591.16931 L 38.161952,738.01715 C 63.157328,761.40808 126.91243,791.25054 176.1263,769.86936 C 193.04884,687.19884 203.57054,630.70591 203.57054,630.70591 L 65.589311,591.16931 z"
   id="path26900"
   style="fill:#fec87f" /><path
   d="M 65.6062,591.97997 L 38.178841,738.81092 C 63.207995,762.21875 126.91243,792.07809 176.14318,770.68002 C 193.04884,687.99261 203.58743,631.53346 203.58743,631.53346 L 65.6062,591.97997 z"
   id="path26907"
   style="fill:url(#linearGradient27403);stroke:#8f5902;stroke-width:16.5;stroke-miterlimit:4;stroke-dasharray:none" /><path
   d="M 274.33447,344.18797 C 251.63598,357.56388 288.06504,431.79001 314.58042,420.72786 C 348.20595,406.72708 373.33643,389.04454 391.76208,380.21171 C 410.17084,371.39578 380.39594,308.01223 359.11609,316.28773 C 321.30214,330.98096 289.41615,335.2707 274.33447,344.18797 z"
   id="path26909"
   style="fill:#aed474" /><path
   d="M 270.23051,346.23152 C 247.49823,359.64119 283.94419,433.81666 310.44267,422.7883 C 344.0682,408.8044 369.19868,391.10497 387.60745,382.27214 C 406.0162,373.4562 376.24131,310.07266 354.99524,318.33127 C 317.19818,333.04138 285.29529,337.31424 270.23051,346.23152 z"
   id="path26916"
   style="fill:url(#linearGradient27399)" /><path
   d="M 353.18813,360.36741 C 358.15343,370.09534 363.79428,367.59581 365.78716,379.65438 C 366.86804,386.57878 387.50611,389.28098 391.76208,380.21171 C 393.24829,376.98596 408.02597,373.86153 402.33445,367.8998 C 397.40293,362.74872 399.49713,351.11237 393.3834,339.08757 C 386.83056,326.2521 377.86262,309.46466 370.24579,314.8353 C 366.34449,317.62194 363.50718,312.89308 357.74811,313.55175 C 353.3908,314.04152 343.34198,325.17122 347.14195,332.73739 C 355.26546,348.62972 347.6824,349.5586 353.18813,360.36741 z"
   id="path26918"
   style="fill:#256b7f" /><path
   d="M 368.74269,327.97476 C 366.68227,323.12768 366.31071,316.06817 368.59069,308.45134 C 372.17111,296.42653 380.4466,288.26926 387.05012,290.24524 C 392.37008,291.83279 394.75139,299.56784 393.73807,308.806 C 410.42417,303.06383 427.31293,307.10024 433.49423,319.17571 C 440.50307,332.90627 431.01158,351.72037 412.36637,361.24563 C 393.72118,370.77089 372.91422,367.37625 365.92226,353.66257 C 361.91962,345.85996 363.43962,336.43603 368.74269,327.97476 z"
   id="path26920"
   style="fill:#ffe1ba" /><path
   d="M 368.74269,327.95786 C 366.68227,323.11079 366.31071,316.06817 368.59069,308.43445 C 372.17111,296.40965 380.4466,288.25237 387.05012,290.22836 C 392.37008,291.81591 394.75139,299.56784 393.73807,308.78912 C 410.42417,303.04693 427.31293,307.06646 433.49423,319.15882 C 440.50307,332.88939 431.01158,351.70347 412.36637,361.22874 C 393.72118,370.754 372.91422,367.35936 365.92226,353.64568 C 361.91962,345.84307 363.43962,336.43603 368.74269,327.95786 z"
   id="path26941"
   style="fill:url(#radialGradient27394)" /><path
   d="M 142.24743,305.17492 C 58.732471,310.03888 18.790536,579.06006 18.790536,579.06006 C 18.790536,579.06006 31.879331,557.89843 88.186482,611.3345 C 119.63337,641.19384 181.76714,654.89063 181.76714,654.89063 C 145.87851,558.118 173.69431,333.0076 173.69431,333.0076 L 142.24743,305.17492 z"
   id="path26943"
   style="fill:#aed474" /><path
   d="M 181.76714,654.89063 C 301.9814,629.89525 293.92545,543.59365 360.07875,551.63271 L 311.67555,313.63619 L 253.59507,347.53194 L 171.29611,339.05379 C 171.29611,339.05379 138.21101,537.10837 181.76714,654.89063 z"
   id="path26945"
   style="fill:#e04598" /><path
   d="M 142.24743,304.65137 C 58.732471,309.48156 18.790536,578.53651 18.790536,578.53651 C 18.790536,578.53651 31.862442,557.39178 88.186482,610.79406 C 119.65026,640.68717 181.75026,654.36708 181.75026,654.36708 C 145.86163,557.56066 161.77085,376.46241 172.86676,331.60584 C 136.47147,330.03518 142.24743,304.65137 142.24743,304.65137 z"
   id="path26952"
   style="fill:url(#linearGradient27389)" /><path
   d="M 181.63203,654.55285 C 301.84628,629.55748 293.79034,543.25588 359.94364,551.31181 L 311.54044,313.29841 L 253.45997,347.19417 L 171.161,338.71601 C 171.14411,338.69912 138.0759,536.78747 181.63203,654.55285 z"
   id="path26959"
   style="fill:url(#linearGradient27386)" /><path
   d="M 141.41988,303.97581 C 141.41988,303.97581 113.19875,307.97845 106.73035,319.29393 C 100.27884,330.57563 129.5133,349.94704 153.12379,341.46888 C 163.00372,353.7639 173.69431,368.08558 208.78917,365.68737 C 245.7418,363.13716 239.66184,346.31596 239.66184,346.31596 C 239.66184,346.31596 265.50166,359.20208 289.28104,350.55504 C 309.22668,343.29286 312.89154,313.02819 312.89154,313.02819 C 312.89154,313.02819 302.75827,303.97581 285.02507,303.97581"
   id="path26961"
   style="fill:#53c8ea" /><path
   d="M 147.17895,303.5367 C 147.17895,303.5367 121.93024,304.58381 108.46989,316.98017 C 98.91085,325.77922 131.26973,347.61639 154.86333,339.15511 C 164.72637,351.46703 175.43386,365.77182 210.51183,363.37361 C 247.46445,360.8234 239.4085,344.00219 239.4085,344.00219 C 239.4085,344.00219 267.2243,356.88832 290.9868,348.24128 C 310.96622,340.9791 312.84087,313.33219 312.84087,313.33219 C 312.84087,313.33219 302.97782,304.31359 285.24463,304.31359 L 147.17895,303.5367 z"
   id="path26968"
   style="fill:url(#radialGradient27382)" /><ellipse
   cx="307.617"
   cy="385.55899"
   rx="5.789"
   ry="7.3080001"
   id="ellipse26970"
   sodipodi:cx="307.617"
   sodipodi:cy="385.55899"
   sodipodi:rx="5.789"
   sodipodi:ry="7.3080001"
   style="fill:#ffe1ba"
   transform="matrix(16.888768,0,0,16.888768,-4981.8891,-6291.9492)" /><ellipse
   cx="307.625"
   cy="385.58499"
   rx="5.789"
   ry="7.3080001"
   id="ellipse26991"
   sodipodi:cx="307.625"
   sodipodi:cy="385.58499"
   sodipodi:rx="5.789"
   sodipodi:ry="7.3080001"
   style="opacity:0.62999998;fill:url(#radialGradient27412)"
   transform="matrix(16.888768,0,0,16.888768,-4981.8891,-6291.9492)" /><circle
   cx="316.30301"
   cy="382.92999"
   r="1.29"
   id="circle26993"
   sodipodi:cx="316.30301"
   sodipodi:cy="382.92999"
   sodipodi:rx="1.29"
   sodipodi:ry="1.29"
   style="fill:#53c8ea"
   transform="matrix(16.888768,0,0,16.888768,-4981.8891,-6291.9492)" /><circle
   cx="298.496"
   cy="386.65601"
   r="1.29"
   id="circle26995"
   sodipodi:cx="298.496"
   sodipodi:cy="386.65601"
   sodipodi:rx="1.29"
   sodipodi:ry="1.29"
   style="fill:#256b7f"
   transform="matrix(16.888768,0,0,16.888768,-4981.8891,-6291.9492)" /><path
   d="M 295.361,151.75735 C 285.93707,161.80617 282.57619,173.40876 283.30241,193.96238 C 273.8616,173.84786 262.68123,165.3697 247.38,161.58662 C 262.73189,149.59559 263.72833,129.81884 263.13723,116.67939 C 268.67675,127.21797 278.53978,145.20451 293.75656,148.85248 C 295.31033,149.24092 295.361,151.75735 295.361,151.75735 z"
   id="path26997"
   style="fill:#256b7f" /><ellipse
   transform="matrix(21.251373,-6.6370189,6.6370189,21.251373,-8874.3032,-5894.8813)"
   cx="311.142"
   cy="381.767"
   rx="0.86699998"
   ry="1.101"
   id="ellipse26999"
   sodipodi:cx="311.142"
   sodipodi:cy="381.767"
   sodipodi:rx="0.86699998"
   sodipodi:ry="1.101"
   style="fill:#e4f4f9" /><path
   d="M 229.27525,165.15014 C 218.07799,175.7563 214.05847,187.52777 214.86913,209.75338 C 205.42831,189.62197 194.21417,181.1607 178.92983,177.37762 C 194.29861,165.38659 196.47726,146.16717 195.86927,133.02771 C 201.88167,144.44451 211.72781,164.4577 229.27525,165.15014 z"
   id="path27001"
   style="fill:#256b7f" /><ellipse
   transform="matrix(21.516322,-5.7197255,5.7197255,21.516322,-8592.2948,-6306.5849)"
   cx="307.11301"
   cy="382.72699"
   rx="0.85299999"
   ry="1.0829999"
   id="ellipse27003"
   sodipodi:cx="307.11301"
   sodipodi:cy="382.72699"
   sodipodi:rx="0.85299999"
   sodipodi:ry="1.0829999"
   style="fill:#e4f4f9" /><ellipse
   transform="matrix(24.470058,-5.9374764,5.9374764,24.470058,-9605.6259,-7344.8085)"
   cx="311.048"
   cy="381.56299"
   rx="0.45899999"
   ry="0.58399999"
   id="ellipse27005"
   sodipodi:cx="311.048"
   sodipodi:cy="381.56299"
   sodipodi:rx="0.45899999"
   sodipodi:ry="0.58399999"
   style="fill:#0a4857" /><ellipse
   transform="matrix(26.885287,-6.5090115,6.5090115,26.885287,-10543.872,-8122.8637)"
   cx="307.05301"
   cy="383.05099"
   rx="0.46000001"
   ry="0.58399999"
   id="ellipse27007"
   sodipodi:cx="307.05301"
   sodipodi:cy="383.05099"
   sodipodi:rx="0.46000001"
   sodipodi:ry="0.58399999"
   style="fill:#0a4857" /><circle
   cx="310.76501"
   cy="384.54501"
   r="1.748"
   id="circle27009"
   sodipodi:cx="310.76501"
   sodipodi:cy="384.54501"
   sodipodi:rx="1.748"
   sodipodi:ry="1.748"
   style="fill:#b73e17"
   transform="matrix(16.888768,0,0,16.888768,-4981.8891,-6291.9492)" /><circle
   cx="305.767"
   cy="386.38101"
   r="2.8469999"
   id="circle27020"
   sodipodi:cx="305.767"
   sodipodi:cy="386.38101"
   sodipodi:rx="2.8469999"
   sodipodi:ry="2.8469999"
   style="fill:url(#radialGradient27410)"
   transform="matrix(16.888768,0,0,16.888768,-4981.8891,-6291.9492)" /><path
   d="M 139.83233,108.50522 C 118.04583,132.70682 82.342969,172.64876 114.41473,166.58569 C 146.48651,160.53952 159.79485,146.64006 167.66502,136.9459 C 175.5183,127.25175 190.04264,142.99208 211.82915,142.99208 C 233.63255,142.99208 236.63875,147.82227 245.1338,124.83666 C 253.59507,101.83415 258.42526,111.51142 258.42526,111.51142 C 258.42526,111.51142 271.7505,123.01267 283.25175,123.60377 C 294.753,124.22866 322.5688,113.9434 309.86844,101.22616 C 297.13431,88.542695 243.90092,72.785475 205.19187,85.502717 C 166.44903,98.219959 139.83233,108.50522 139.83233,108.50522 z"
   id="path27022"
   style="fill:#be4e27" /><path
   d="M 139.84922,108.5221 C 118.06271,132.72372 82.376746,172.66565 114.43163,166.60258 C 146.48651,160.5564 159.81175,146.65694 167.66502,136.96279 C 175.53518,127.26864 190.05952,143.00897 211.84604,143.00897 C 233.64944,143.00897 236.65564,147.83916 245.15069,124.85355 C 253.61196,101.85104 258.44215,111.5283 258.44215,111.5283 C 258.44215,111.5283 271.76739,123.02956 283.26863,123.62067 C 294.76989,124.24555 322.58569,113.96029 309.88534,101.24305 C 297.15121,88.542695 243.91781,72.802364 205.19187,85.519606 C 166.48281,98.236847 139.84922,108.5221 139.84922,108.5221 z"
   id="path27035"
   style="fill:url(#radialGradient27366)" /><path
   d="M 238.46274,81.871632 C 238.46274,81.871632 154.96467,123.02956 128.33109,121.22246 C 142.85543,103.67503 150.11759,93.389772 151.3167,83.695619 C 152.53269,74.018355 151.3167,44.969675 124.69999,55.862929 C 98.066411,66.773074 50.879194,137.5539 67.818628,178.08694 C 84.758063,218.61999 44.208131,282.15553 53.294288,182.32602 C 62.363556,82.479627 41.793037,38.906607 96.867309,34.093308 C 151.92469,29.246231 261.43147,2.6295341 238.46274,81.871632 z"
   id="path27037"
   style="fill:#aed474" /><path
   d="M 238.46274,81.871632 C 238.46274,81.871632 154.94778,123.02956 128.33109,121.22246 C 142.85543,103.67503 150.11759,93.389772 151.3167,83.695619 C 152.53269,74.018355 151.3167,44.969675 124.69999,55.862929 C 98.0833,66.773074 50.879194,137.5539 67.818628,178.08694 C 84.774952,218.61999 44.208131,282.15553 53.294288,182.32602 C 62.380445,82.479627 41.809926,38.906607 96.867309,34.093308 C 151.92469,29.246231 261.43147,2.6295341 238.46274,81.871632 z"
   id="path27044"
   style="fill:url(#linearGradient27362)" /><path
   d="M 237.82096,82.496516 C 237.82096,82.496516 244.79603,80.064533 292.59124,91.582673 C 274.11492,69.171279 267.78164,70.995265 266.54876,61.318002 C 265.36655,51.640738 266.83586,26.831139 293.48634,37.724393 C 320.08615,48.634537 367.30715,78.88232 350.33394,119.39847 C 333.3945,159.93152 373.92754,223.48395 364.84138,123.62067 C 355.78901,23.79116 376.34263,20.768071 321.28525,15.937883 C 291.40902,13.303235 216.13579,16.224992 199.70302,26.206253 C 249.93021,35.900407 242.07694,58.294912 237.82096,82.496516 z"
   id="path27046"
   style="fill:#e04598" /><path
   d="M 237.82096,82.496516 C 237.82096,82.496516 244.79603,80.064533 292.59124,91.582673 C 274.11492,69.171279 267.78164,70.995265 266.54876,61.318002 C 265.36655,51.640738 266.83586,26.831139 293.48634,37.724393 C 320.08615,48.634537 367.30715,78.88232 350.33394,119.39847 C 333.3945,159.93152 373.92754,223.48395 364.84138,123.62067 C 355.78901,23.79116 376.34263,20.768071 321.28525,15.937883 C 291.40902,13.303235 216.13579,16.224992 199.7199,26.206253 C 249.93021,35.900407 242.07694,58.294912 237.82096,82.496516 z"
   id="path27053"
   style="fill:url(#linearGradient27358)" /><path
   d="M 310.848,228.11147 C 310.848,249.2731 282.57619,312.82553 251.17998,312.82553 C 219.76687,312.82553 188.23555,289.62036 188.23555,268.45874 C 188.23555,247.28022 231.01479,253.9344 262.46167,253.9344 C 293.87479,253.9344 310.848,206.94984 310.848,228.11147 z"
   id="path27055"
   style="fill:#be4e27" /><path
   d="M 305.62936,237.80563 C 305.62936,249.49265 277.49268,306.89757 252.07508,306.89757 C 226.65749,306.89757 201.13856,288.11727 201.13856,271.00894 C 201.13856,253.88374 235.77742,259.27125 261.19502,259.27125 C 286.61261,259.27125 305.62936,226.50704 305.62936,237.80563 z"
   id="path27057"
   style="fill:#fdf8c1" /><circle
   cx="310.767"
   cy="384.54501"
   r="1.748"
   id="circle27066"
   sodipodi:cx="310.767"
   sodipodi:cy="384.54501"
   sodipodi:rx="1.748"
   sodipodi:ry="1.748"
   style="fill:url(#radialGradient27408)"
   transform="matrix(16.888768,0,0,16.888768,-4981.8891,-6291.9492)" /><ellipse
   cx="301.689"
   cy="396.71399"
   rx="1.2"
   ry="2.135"
   id="ellipse27068"
   sodipodi:cx="301.689"
   sodipodi:cy="396.71399"
   sodipodi:rx="1.2"
   sodipodi:ry="2.135"
   style="fill:#256b7f"
   transform="matrix(16.888768,0,0,16.888768,-4981.8891,-6291.9492)" /><path
   d="M 130.07063,360.26608 C 160.97707,367.86602 144.59497,466.27687 110.12499,462.73023 C 66.366194,458.22093 31.20378,446.46635 6.8501773,442.66637 C -17.520314,438.84951 -5.1070701,355.23322 22.370954,357.42876 C 71.145716,361.31319 109.53389,355.18256 130.07063,360.26608 z"
   id="path27070"
   style="fill:#e04598" /><path
   d="M 130.07063,360.26608 C 160.97707,367.86602 144.59497,466.27687 110.12499,462.73023 C 66.366194,458.22093 31.20378,446.46635 6.8501773,442.66637 C -17.520314,438.84951 -5.1070701,355.23322 22.370954,357.42876 C 71.145716,361.29629 109.53389,355.18256 130.07063,360.26608 z"
   id="path27077"
   style="fill:url(#linearGradient27350)" /><path
   d="M 44.495241,406.32175 C 42.147701,419.34299 34.750422,418.38032 36.709518,433.006 C 37.807289,441.34905 15.17634,453.54274 7.1541751,444.55792 C 4.2999734,441.34905 -14.227005,440.9775 -9.6839264,432.12779 C -5.7826209,424.46028 -12.267907,411.70926 -9.3461505,395.71561 C -6.2217288,378.59039 -1.6955391,356.07766 8.9612733,359.62431 C 14.500789,361.4483 16.105222,355.03056 23.012728,353.78079 C 28.163802,352.8519 43.68458,362.22517 41.89437,372.30777 C 38.077509,393.50317 47.129888,391.9494 44.495241,406.32175 z"
   id="path27079"
   style="fill:#53c8ea" /><path
   d="M 42.384145,406.32175 C 40.036606,419.34299 32.639326,418.38032 34.598423,433.006 C 35.696193,441.34905 13.842127,452.47875 5.8368513,443.49392 C 2.9826495,440.28506 -14.024339,440.74105 -9.4643718,431.87445 C -5.5630669,424.20695 -14.362115,411.69237 -11.440358,395.68183 C -8.315936,378.55661 -2.4386449,356.78699 8.2181675,360.35052 C 13.757683,362.17451 14.500789,356.33099 21.408295,355.06434 C 26.559369,354.13546 41.590373,362.1914 39.783274,372.29088 C 35.966413,393.50317 45.018792,391.9494 42.384145,406.32175 z"
   id="path27086"
   style="fill:url(#linearGradient27346)" /><path
   d="M 15.260784,374.31753 C 15.970112,367.96735 13.943459,359.67497 8.6741643,351.66969 C 0.34800178,339.0369 -12.014576,332.46717 -18.972748,337.02714 C -24.56293,340.70889 -24.681152,350.50437 -20.273184,360.78963 C -41.569919,359.96208 -59.691567,370.50067 -62.630213,386.61256 C -65.9573,404.90309 -48.494314,423.36252 -23.600271,427.90559 C 1.2937728,432.44867 24.161164,421.30208 27.488251,403.01155 C 29.379793,392.62496 24.380718,382.23836 15.260784,374.31753 z"
   id="path27088"
   style="fill:#ffe1ba" /><path
   d="M 15.260784,374.31753 C 15.970112,367.96735 13.943459,359.67497 8.6741643,351.66969 C 0.34800178,339.0369 -12.014576,332.46717 -18.972748,337.02714 C -24.56293,340.70889 -24.681152,350.50437 -20.273184,360.78963 C -41.569919,359.96208 -59.691567,370.50067 -62.630213,386.61256 C -65.9573,404.90309 -48.494314,423.36252 -23.600271,427.90559 C 1.2937728,432.44867 24.161164,421.30208 27.488251,403.01155 C 29.379793,392.62496 24.380718,382.23836 15.260784,374.31753 z"
   id="path27109"
   style="fill:url(#radialGradient27342)" /><path
   stroke-miterlimit="10"
   d="M 203.60656,655.51577 C 111.79549,647.30187 112.9864,620.53391 63.078099,595.34108"
   id="path27111"
   style="fill:none;stroke:#4e8883;stroke-width:16.5;stroke-linecap:round;stroke-linejoin:round;stroke-miterlimit:10;stroke-dasharray:none"
   sodipodi:nodetypes="cc" />

</svg>