<?xml version="1.0" encoding="UTF-8" standalone="no"?>
<svg width="35.2778mm" height="35.2778mm"
 viewBox="0 0 100 100"
 xmlns="http://www.w3.org/2000/svg" xmlns:xlink="http://www.w3.org/1999/xlink"  version="1.2" baseProfile="tiny">
<title>CHOP_record.icon</title>
<desc>Generated with Qt</desc>
<defs>
</defs>
<g fill="none" stroke="black" stroke-width="1" fill-rule="evenodd" stroke-linecap="square" stroke-linejoin="bevel" >

<g fill="none" stroke="#000000" stroke-opacity="1" stroke-width="1" stroke-linecap="square" stroke-linejoin="bevel" transform="matrix(1,0,0,1,0,0)"
font-family="MS Shell Dlg 2" font-size="8.25" font-weight="400" font-style="normal" 
>
</g>

<g fill="#7f7f7f" fill-opacity="1" stroke="#7f7f7f" stroke-opacity="1" stroke-width="1" stroke-linecap="square" stroke-linejoin="bevel" transform="matrix(1,0,0,1,0,0)"
font-family="MS Shell Dlg 2" font-size="8.25" font-weight="400" font-style="normal" 
>
<path vector-effect="non-scaling-stroke" fill-rule="evenodd" d="M20.13,85.18 L20.13,17.89 L82.93,17.89 L82.93,85.18 L20.13,85.18"/>
</g>

<g fill="#cccccc" fill-opacity="1" stroke="#cccccc" stroke-opacity="1" stroke-width="1" stroke-linecap="square" stroke-linejoin="bevel" transform="matrix(1,0,0,1,0,0)"
font-family="MS Shell Dlg 2" font-size="8.25" font-weight="400" font-style="normal" 
>
<polyline fill="none" vector-effect="non-scaling-stroke" points="20.13,85.18 20.13,17.89 82.93,17.89 82.93,85.18 20.13,85.18 " />
</g>

<g fill="#545454" fill-opacity="1" stroke="#545454" stroke-opacity="1" stroke-width="1" stroke-linecap="square" stroke-linejoin="bevel" transform="matrix(1,0,0,1,0,0)"
font-family="MS Shell Dlg 2" font-size="8.25" font-weight="400" font-style="normal" 
>
<path vector-effect="non-scaling-stroke" fill-rule="evenodd" d="M46.91,32.46 L43.37,21.59 L34.13,14.88 L22.7,14.88 L13.46,21.59 L9.93,32.46 L13.46,43.33 L22.7,50.04 L34.13,50.04 L43.37,43.33 L46.91,32.46"/>
</g>

<g fill="#cccccc" fill-opacity="1" stroke="#cccccc" stroke-opacity="1" stroke-width="1" stroke-linecap="square" stroke-linejoin="bevel" transform="matrix(1,0,0,1,0,0)"
font-family="MS Shell Dlg 2" font-size="8.25" font-weight="400" font-style="normal" 
>
<polyline fill="none" vector-effect="non-scaling-stroke" points="46.91,32.46 43.37,21.59 34.13,14.88 22.7,14.88 13.46,21.59 9.93,32.46 13.46,43.33 22.7,50.04 34.13,50.04 43.37,43.33 46.91,32.46 " />
</g>

<g fill="#000000" fill-opacity="1" stroke="#000000" stroke-opacity="1" stroke-width="1" stroke-linecap="square" stroke-linejoin="bevel" transform="matrix(1,0,0,1,0,0)"
font-family="MS Shell Dlg 2" font-size="8.25" font-weight="400" font-style="normal" 
>
<path vector-effect="non-scaling-stroke" fill-rule="evenodd" d="M28.42,32.46 L43.21,32.46 L39.75,22.95 L28.42,32.46"/>
</g>

<g fill="#cccccc" fill-opacity="1" stroke="#cccccc" stroke-opacity="1" stroke-width="1" stroke-linecap="square" stroke-linejoin="bevel" transform="matrix(1,0,0,1,0,0)"
font-family="MS Shell Dlg 2" font-size="8.25" font-weight="400" font-style="normal" 
>
<polyline fill="none" vector-effect="non-scaling-stroke" points="28.42,32.46 43.21,32.46 39.75,22.95 28.42,32.46 " />
</g>

<g fill="#000000" fill-opacity="1" stroke="#000000" stroke-opacity="1" stroke-width="1" stroke-linecap="square" stroke-linejoin="bevel" transform="matrix(1,0,0,1,0,0)"
font-family="MS Shell Dlg 2" font-size="8.25" font-weight="400" font-style="normal" 
>
<path vector-effect="non-scaling-stroke" fill-rule="evenodd" d="M28.42,32.46 L21.02,19.65 L14.52,27.4 L28.42,32.46"/>
</g>

<g fill="#cccccc" fill-opacity="1" stroke="#cccccc" stroke-opacity="1" stroke-width="1" stroke-linecap="square" stroke-linejoin="bevel" transform="matrix(1,0,0,1,0,0)"
font-family="MS Shell Dlg 2" font-size="8.25" font-weight="400" font-style="normal" 
>
<polyline fill="none" vector-effect="non-scaling-stroke" points="28.42,32.46 21.02,19.65 14.52,27.4 28.42,32.46 " />
</g>

<g fill="#000000" fill-opacity="1" stroke="#000000" stroke-opacity="1" stroke-width="1" stroke-linecap="square" stroke-linejoin="bevel" transform="matrix(1,0,0,1,0,0)"
font-family="MS Shell Dlg 2" font-size="8.25" font-weight="400" font-style="normal" 
>
<path vector-effect="non-scaling-stroke" fill-rule="evenodd" d="M28.42,32.46 L21.02,45.27 L30.99,47.02 L28.42,32.46"/>
</g>

<g fill="#cccccc" fill-opacity="1" stroke="#cccccc" stroke-opacity="1" stroke-width="1" stroke-linecap="square" stroke-linejoin="bevel" transform="matrix(1,0,0,1,0,0)"
font-family="MS Shell Dlg 2" font-size="8.25" font-weight="400" font-style="normal" 
>
<polyline fill="none" vector-effect="non-scaling-stroke" points="28.42,32.46 21.02,45.27 30.99,47.02 28.42,32.46 " />
</g>

<g fill="#545454" fill-opacity="1" stroke="#545454" stroke-opacity="1" stroke-width="1" stroke-linecap="square" stroke-linejoin="bevel" transform="matrix(1,0,0,1,0,0)"
font-family="MS Shell Dlg 2" font-size="8.25" font-weight="400" font-style="normal" 
>
<path vector-effect="non-scaling-stroke" fill-rule="evenodd" d="M86.52,46.62 L92.57,36.93 L91.78,25.53 L84.44,16.78 L73.35,14.02 L62.75,18.3 L56.7,27.99 L57.5,39.39 L64.84,48.14 L75.93,50.9 L86.52,46.62"/>
</g>

<g fill="#cccccc" fill-opacity="1" stroke="#cccccc" stroke-opacity="1" stroke-width="1" stroke-linecap="square" stroke-linejoin="bevel" transform="matrix(1,0,0,1,0,0)"
font-family="MS Shell Dlg 2" font-size="8.25" font-weight="400" font-style="normal" 
>
<polyline fill="none" vector-effect="non-scaling-stroke" points="86.52,46.62 92.57,36.93 91.78,25.53 84.44,16.78 73.35,14.02 62.75,18.3 56.7,27.99 57.5,39.39 64.84,48.14 75.93,50.9 86.52,46.62 " />
</g>

<g fill="#000000" fill-opacity="1" stroke="#000000" stroke-opacity="1" stroke-width="1" stroke-linecap="square" stroke-linejoin="bevel" transform="matrix(1,0,0,1,0,0)"
font-family="MS Shell Dlg 2" font-size="8.25" font-weight="400" font-style="normal" 
>
<path vector-effect="non-scaling-stroke" fill-rule="evenodd" d="M74.64,32.46 L84.14,43.79 L89.2,35.03 L74.64,32.46"/>
</g>

<g fill="#cccccc" fill-opacity="1" stroke="#cccccc" stroke-opacity="1" stroke-width="1" stroke-linecap="square" stroke-linejoin="bevel" transform="matrix(1,0,0,1,0,0)"
font-family="MS Shell Dlg 2" font-size="8.25" font-weight="400" font-style="normal" 
>
<polyline fill="none" vector-effect="non-scaling-stroke" points="74.64,32.46 84.14,43.79 89.2,35.03 74.64,32.46 " />
</g>

<g fill="#000000" fill-opacity="1" stroke="#000000" stroke-opacity="1" stroke-width="1" stroke-linecap="square" stroke-linejoin="bevel" transform="matrix(1,0,0,1,0,0)"
font-family="MS Shell Dlg 2" font-size="8.25" font-weight="400" font-style="normal" 
>
<path vector-effect="non-scaling-stroke" fill-rule="evenodd" d="M74.64,32.46 L79.7,18.56 L69.58,18.56 L74.64,32.46"/>
</g>

<g fill="#cccccc" fill-opacity="1" stroke="#cccccc" stroke-opacity="1" stroke-width="1" stroke-linecap="square" stroke-linejoin="bevel" transform="matrix(1,0,0,1,0,0)"
font-family="MS Shell Dlg 2" font-size="8.25" font-weight="400" font-style="normal" 
>
<polyline fill="none" vector-effect="non-scaling-stroke" points="74.64,32.46 79.7,18.56 69.58,18.56 74.64,32.46 " />
</g>

<g fill="#000000" fill-opacity="1" stroke="#000000" stroke-opacity="1" stroke-width="1" stroke-linecap="square" stroke-linejoin="bevel" transform="matrix(1,0,0,1,0,0)"
font-family="MS Shell Dlg 2" font-size="8.25" font-weight="400" font-style="normal" 
>
<path vector-effect="non-scaling-stroke" fill-rule="evenodd" d="M74.64,32.46 L60.07,35.03 L65.13,43.79 L74.64,32.46"/>
</g>

<g fill="#cccccc" fill-opacity="1" stroke="#cccccc" stroke-opacity="1" stroke-width="1" stroke-linecap="square" stroke-linejoin="bevel" transform="matrix(1,0,0,1,0,0)"
font-family="MS Shell Dlg 2" font-size="8.25" font-weight="400" font-style="normal" 
>
<polyline fill="none" vector-effect="non-scaling-stroke" points="74.64,32.46 60.07,35.03 65.13,43.79 74.64,32.46 " />
</g>

<g fill="#545454" fill-opacity="1" stroke="#545454" stroke-opacity="1" stroke-width="1" stroke-linecap="square" stroke-linejoin="bevel" transform="matrix(1,0,0,1,0,0)"
font-family="MS Shell Dlg 2" font-size="8.25" font-weight="400" font-style="normal" 
>
<path vector-effect="non-scaling-stroke" fill-rule="evenodd" d="M28.79,76.36 L28.79,58.61 L37.66,58.61 L37.66,76.36 L28.79,76.36"/>
</g>

<g fill="#cccccc" fill-opacity="1" stroke="#cccccc" stroke-opacity="1" stroke-width="1" stroke-linecap="square" stroke-linejoin="bevel" transform="matrix(1,0,0,1,0,0)"
font-family="MS Shell Dlg 2" font-size="8.25" font-weight="400" font-style="normal" 
>
<polyline fill="none" vector-effect="non-scaling-stroke" points="28.79,76.36 28.79,58.61 37.66,58.61 37.66,76.36 28.79,76.36 " />
</g>

<g fill="#545454" fill-opacity="1" stroke="#545454" stroke-opacity="1" stroke-width="1" stroke-linecap="square" stroke-linejoin="bevel" transform="matrix(1,0,0,1,0,0)"
font-family="MS Shell Dlg 2" font-size="8.25" font-weight="400" font-style="normal" 
>
<path vector-effect="non-scaling-stroke" fill-rule="evenodd" d="M37.51,76.36 L37.51,58.61 L46.38,58.61 L46.38,76.36 L37.51,76.36"/>
</g>

<g fill="#cccccc" fill-opacity="1" stroke="#cccccc" stroke-opacity="1" stroke-width="1" stroke-linecap="square" stroke-linejoin="bevel" transform="matrix(1,0,0,1,0,0)"
font-family="MS Shell Dlg 2" font-size="8.25" font-weight="400" font-style="normal" 
>
<polyline fill="none" vector-effect="non-scaling-stroke" points="37.51,76.36 37.51,58.61 46.38,58.61 46.38,76.36 37.51,76.36 " />
</g>

<g fill="#545454" fill-opacity="1" stroke="#545454" stroke-opacity="1" stroke-width="1" stroke-linecap="square" stroke-linejoin="bevel" transform="matrix(1,0,0,1,0,0)"
font-family="MS Shell Dlg 2" font-size="8.25" font-weight="400" font-style="normal" 
>
<path vector-effect="non-scaling-stroke" fill-rule="evenodd" d="M46.3,76.36 L46.3,58.61 L55.17,58.61 L55.17,76.36 L46.3,76.36"/>
</g>

<g fill="#cccccc" fill-opacity="1" stroke="#cccccc" stroke-opacity="1" stroke-width="1" stroke-linecap="square" stroke-linejoin="bevel" transform="matrix(1,0,0,1,0,0)"
font-family="MS Shell Dlg 2" font-size="8.25" font-weight="400" font-style="normal" 
>
<polyline fill="none" vector-effect="non-scaling-stroke" points="46.3,76.36 46.3,58.61 55.17,58.61 55.17,76.36 46.3,76.36 " />
</g>

<g fill="#545454" fill-opacity="1" stroke="#545454" stroke-opacity="1" stroke-width="1" stroke-linecap="square" stroke-linejoin="bevel" transform="matrix(1,0,0,1,0,0)"
font-family="MS Shell Dlg 2" font-size="8.25" font-weight="400" font-style="normal" 
>
<path vector-effect="non-scaling-stroke" fill-rule="evenodd" d="M55.02,76.36 L55.02,58.61 L63.89,58.61 L63.89,76.36 L55.02,76.36"/>
</g>

<g fill="#cccccc" fill-opacity="1" stroke="#cccccc" stroke-opacity="1" stroke-width="1" stroke-linecap="square" stroke-linejoin="bevel" transform="matrix(1,0,0,1,0,0)"
font-family="MS Shell Dlg 2" font-size="8.25" font-weight="400" font-style="normal" 
>
<polyline fill="none" vector-effect="non-scaling-stroke" points="55.02,76.36 55.02,58.61 63.89,58.61 63.89,76.36 55.02,76.36 " />
</g>

<g fill="#545454" fill-opacity="1" stroke="#545454" stroke-opacity="1" stroke-width="1" stroke-linecap="square" stroke-linejoin="bevel" transform="matrix(1,0,0,1,0,0)"
font-family="MS Shell Dlg 2" font-size="8.25" font-weight="400" font-style="normal" 
>
<path vector-effect="non-scaling-stroke" fill-rule="evenodd" d="M63.89,76.36 L63.89,58.61 L72.77,58.61 L72.77,76.36 L63.89,76.36"/>
</g>

<g fill="#cccccc" fill-opacity="1" stroke="#cccccc" stroke-opacity="1" stroke-width="1" stroke-linecap="square" stroke-linejoin="bevel" transform="matrix(1,0,0,1,0,0)"
font-family="MS Shell Dlg 2" font-size="8.25" font-weight="400" font-style="normal" 
>
<polyline fill="none" vector-effect="non-scaling-stroke" points="63.89,76.36 63.89,58.61 72.77,58.61 72.77,76.36 63.89,76.36 " />
</g>
</g>
</svg>
