<?xml version="1.0" encoding="UTF-8" standalone="no"?>
<!-- Generator: Adobe Illustrator 15.0.0, SVG Export Plug-In . SVG Version: 6.00 Build 0)  -->
<svg
   xmlns:dc="http://purl.org/dc/elements/1.1/"
   xmlns:cc="http://creativecommons.org/ns#"
   xmlns:rdf="http://www.w3.org/1999/02/22-rdf-syntax-ns#"
   xmlns:svg="http://www.w3.org/2000/svg"
   xmlns="http://www.w3.org/2000/svg"
   xmlns:sodipodi="http://sodipodi.sourceforge.net/DTD/sodipodi-0.dtd"
   xmlns:inkscape="http://www.inkscape.org/namespaces/inkscape"
   version="1.0"
   id="Layer_1"
   x="0px"
   y="0px"
   width="48"
   height="48"
   viewBox="0 0 612 792"
   enable-background="new 0 0 612 792"
   xml:space="preserve"
   sodipodi:version="0.32"
   inkscape:version="0.46"
   sodipodi:docname="Voice_Split_Chop.svg"
   inkscape:output_extension="org.inkscape.output.svg.inkscape"><metadata
   id="metadata34691"><rdf:RDF><cc:Work
       rdf:about=""><dc:format>image/svg+xml</dc:format><dc:type
         rdf:resource="http://purl.org/dc/dcmitype/StillImage" /></cc:Work></rdf:RDF></metadata><defs
   id="defs34689"><inkscape:perspective
   sodipodi:type="inkscape:persp3d"
   inkscape:vp_x="0 : 396 : 1"
   inkscape:vp_y="0 : 1000 : 0"
   inkscape:vp_z="612 : 396 : 1"
   inkscape:persp3d-origin="306 : 264 : 1"
   id="perspective34693" />
	
	

		
			
		
		
			
		
		
		
		
		
		
		
		
		
		
		
	</defs><sodipodi:namedview
   inkscape:window-height="1538"
   inkscape:window-width="2560"
   inkscape:pageshadow="2"
   inkscape:pageopacity="0.0"
   guidetolerance="10.0"
   gridtolerance="10.0"
   objecttolerance="10.0"
   borderopacity="1.0"
   bordercolor="#666666"
   pagecolor="#ffffff"
   id="base"
   showgrid="false"
   inkscape:zoom="18.666667"
   inkscape:cx="12.922136"
   inkscape:cy="21.217664"
   inkscape:window-x="0"
   inkscape:window-y="24"
   inkscape:current-layer="Layer_1" />
<g
   transform="translate(22.098214,4.4196429)"
   id="g35325"
   style="stroke:#eeeeec;stroke-opacity:1;stroke-width:57.75;stroke-miterlimit:4;stroke-dasharray:none"><path
     style="fill:none;fill-opacity:1;fill-rule:nonzero;stroke:#eeeeec;stroke-width:57.75;stroke-linecap:square;stroke-linejoin:round;marker:none;marker-start:none;marker-mid:none;marker-end:none;stroke-miterlimit:4;stroke-dasharray:none;stroke-dashoffset:0;stroke-opacity:1;visibility:visible;display:inline;overflow:visible;enable-background:accumulate"
     d="M 104.85172,520.02567 C 112.31417,531.44039 116.65361,545.07892 116.65361,559.72486 C 116.65361,583.30132 102.81026,606.24888 87.992996,617.54859"
     id="path35327" /><path
     style="fill:none;fill-opacity:1;fill-rule:nonzero;stroke:#eeeeec;stroke-width:57.75;stroke-linecap:square;stroke-linejoin:round;marker:none;marker-start:none;marker-mid:none;marker-end:none;stroke-miterlimit:4;stroke-dasharray:none;stroke-dashoffset:0;stroke-opacity:1;visibility:visible;display:inline;overflow:visible;enable-background:accumulate"
     d="M 154.4594,469.79909 C 174.45358,494.32902 186.4466,525.63489 186.4466,559.72482 C 186.4466,603.07855 167.04989,641.92946 136.46697,668.06704"
     id="path35329" /><path
     id="path35331"
     d="M 201.51067,416.74405 C 234.87675,454.61538 255.3339,505.63929 255.3339,561.74246 C 255.3339,623.66335 230.41413,679.39692 190.72293,718.08892"
     style="fill:none;fill-opacity:1;fill-rule:nonzero;stroke:#eeeeec;stroke-width:57.75;stroke-linecap:square;stroke-linejoin:round;marker:none;marker-start:none;marker-mid:none;marker-end:none;stroke-miterlimit:4;stroke-dasharray:none;stroke-dashoffset:0;stroke-opacity:1;visibility:visible;display:inline;overflow:visible;enable-background:accumulate" /></g><g
   transform="translate(-32.705357,-11.491071)"
   id="g35333"
   style="stroke:#eeeeec;stroke-opacity:1;stroke-width:57.75;stroke-miterlimit:4;stroke-dasharray:none"><path
     id="path35335"
     d="M 556.91679,570.4096 C 549.45434,581.82432 545.1149,595.46285 545.1149,610.10879 C 545.1149,633.68525 558.95825,656.63281 573.77551,667.93252"
     style="fill:none;fill-opacity:1;fill-rule:nonzero;stroke:#eeeeec;stroke-width:57.75;stroke-linecap:square;stroke-linejoin:round;marker:none;marker-start:none;marker-mid:none;marker-end:none;stroke-miterlimit:4;stroke-dasharray:none;stroke-dashoffset:0;stroke-opacity:1;visibility:visible;display:inline;overflow:visible;enable-background:accumulate" /><path
     id="path35337"
     d="M 507.30911,520.18302 C 487.31493,544.71295 475.32191,576.01882 475.32191,610.10875 C 475.32191,653.46248 494.71862,692.31339 525.30154,718.45097"
     style="fill:none;fill-opacity:1;fill-rule:nonzero;stroke:#eeeeec;stroke-width:57.75;stroke-linecap:square;stroke-linejoin:round;marker:none;marker-start:none;marker-mid:none;marker-end:none;stroke-miterlimit:4;stroke-dasharray:none;stroke-dashoffset:0;stroke-opacity:1;visibility:visible;display:inline;overflow:visible;enable-background:accumulate" /><path
     style="fill:none;fill-opacity:1;fill-rule:nonzero;stroke:#eeeeec;stroke-width:57.75;stroke-linecap:square;stroke-linejoin:round;marker:none;marker-start:none;marker-mid:none;marker-end:none;stroke-miterlimit:4;stroke-dasharray:none;stroke-dashoffset:0;stroke-opacity:1;visibility:visible;display:inline;overflow:visible;enable-background:accumulate"
     d="M 460.25784,467.12798 C 426.89176,504.99931 406.43461,556.02322 406.43461,612.12639 C 406.43461,674.04728 431.35438,729.78085 471.04558,768.47285"
     id="path35339" /></g><path
   stroke-miterlimit="10"
   d="M 680.84612,777.2411 C 675.74622,775.57322 665.59457,771.7884 660.07771,768.66111 C 628.75671,750.98791 619.32673,725.80923 632.07645,693.84674 C 640.57626,672.50098 640.70456,666.23037 640.19136,664.41814 C 640.25551,665.12379 638.97252,665.6851 638.07443,666.08603 C 635.98957,667.00016 633.39151,668.12278 630.4246,668.12278 C 620.83424,668.12278 617.8994,657.10509 616.92113,653.49669 C 613.36082,640.15359 626.91241,633.89901 636.80748,629.34439 C 643.3828,626.32937 650.84017,622.89737 652.01091,618.93614 C 652.70052,616.62675 651.1449,613.43531 649.70153,611.17405 C 644.24881,602.51385 630.84157,596.2272 620.06446,591.17543 C 608.43735,585.73875 600.0498,581.79355 598.47814,574.56071 C 597.98098,572.23528 598.02909,568.69103 601.17242,564.98639 C 603.83462,561.8591 604.73272,557.12808 603.69029,551.62725 C 602.05447,542.95102 595.96027,534.6116 588.11799,530.42583 C 547.43116,508.53481 527.91367,489.0494 530.12683,472.51486 C 530.39946,470.52621 530.52776,468.8423 530.65605,467.31875 C 531.95508,452.30776 533.30223,449.69366 586.27369,387.43656 C 627.00864,339.54894 621.66818,324.44173 614.27495,303.52899 C 611.25993,295.02917 607.87605,285.37467 607.12228,272.8174 C 604.65253,231.05606 609.33544,185.12501 617.11357,129.01022 C 621.28329,98.924098 643.52714,58.622164 676.66036,21.206956 L 687.08466,9.4355204 L 687.87049,25.136115 C 689.92328,66.592742 690.4044,110.43893 689.2016,148.62394 C 687.95068,188.95795 687.95068,712.4982 689.21763,771.05069 L 689.41008,780.07972 L 680.84612,777.2411 z"
   id="path34660"
   style="fill:none;stroke:#68441b;stroke-width:22.45233154;stroke-linecap:round;stroke-linejoin:round;stroke-miterlimit:10" /><path
   stroke-miterlimit="10"
   d="M 682.83475,148.38338 C 684.03756,109.81348 683.52436,66.175769 681.50365,25.424788 C 650.87226,60.017416 627.63409,100.03068 623.51249,129.84416 C 616.05511,183.58542 611.08352,230.31834 613.56931,272.40043 C 616.05511,314.46648 650.84017,321.45878 591.19716,391.55817 C 531.57019,461.65756 538.9955,454.64922 536.52573,473.3488 C 534.03994,492.03234 573.81265,515.41484 591.19716,524.76464 C 608.59772,534.11443 616.05511,557.44882 606.09589,569.14007 C 596.15272,580.84736 641.9234,586.73307 655.17028,607.75808 C 672.61895,635.45464 618.156,633.12922 623.14362,651.84483 C 628.14729,670.52839 635.58863,656.51171 643.01394,658.85317 C 650.50339,661.19462 645.4837,677.55276 638.02632,696.25234 C 630.58497,714.91985 625.9662,742.07114 663.23708,763.11217 C 667.96811,765.79043 677.30186,769.3828 682.83475,771.17898 C 681.66403,716.39529 681.50365,191.13903 682.83475,148.38338 z"
   id="path34662"
   style="fill:none;stroke:#fce3d9;stroke-width:16.03738022;stroke-miterlimit:10" /><path
   stroke-miterlimit="10"
   d="M -40.051202,774.25052 C -49.273633,774.25052 -59.325597,773.2746 -70.711315,771.24144 L -76.143931,770.28179 L -76.078869,764.75158 C -75.753563,736.95415 -76.274052,441.51102 -76.648155,225.78417 C -76.810809,123.6868 -76.97346,11.195909 -76.97346,11.195909 L -70.711315,10.935665 C -64.140129,10.67542 -56.511699,10.577828 -48.330246,10.577828 C -29.153442,10.577828 -6.9675553,11.163379 11.591166,11.651339 C 24.814865,11.99291 36.168054,12.30195 43.210934,12.30195 L 50.839365,12.236889 L 51.489979,18.076137 C 57.361756,71.426361 60.582289,113.0005 58.419002,155.37164 C 56.906327,184.69799 56.906327,184.69799 67.267331,202.57358 C 74.098763,214.3822 84.427237,232.22524 100.66002,267.83 C 115.93314,301.32029 125.98511,343.96794 132.62136,372.18826 C 134.60572,380.61368 136.28105,387.65657 137.66361,392.68254 C 139.94075,400.96159 139.11122,408.06953 135.20754,413.84372 C 126.76584,426.31922 106.92217,428.51503 87.71283,430.64579 C 77.107845,431.83316 66.12876,433.05305 61.44435,435.96455 C 58.630451,437.68866 56.532225,441.8038 55.377388,447.85449 C 51.717693,466.73852 58.614186,496.17873 64.87633,504.65297 C 67.088413,507.66205 67.625169,511.30547 66.40527,514.94891 C 58.955758,536.97213 -32.390239,565.27378 -33.317362,565.53403 C -33.577607,565.61534 -33.789056,565.68041 -34.01677,565.76173 C -28.519095,570.41362 -13.245967,578.04205 -2.5921862,583.32828 C 26.734173,597.95079 52.042999,610.57268 48.415835,626.28496 C 47.358588,630.88806 44.528424,643.08703 34.541523,643.08703 C 31.337256,643.08703 28.604684,641.72076 26.408867,640.63098 C 25.481743,640.17555 23.969069,639.39482 23.416048,639.36228 C 23.806415,640.17555 22.96062,646.86059 32.84993,675.61766 C 45.683261,712.75137 36.070462,742.11027 4.2555104,762.81601 C -7.5856371,770.52576 -22.078031,774.25052 -40.051202,774.25052 z"
   id="path34664"
   style="fill:none;stroke:#68441b;stroke-width:22.77143669;stroke-linecap:round;stroke-linejoin:round;stroke-miterlimit:10" /><path
   stroke-miterlimit="10"
   d="M -70.45107,17.47432 C -36.570425,16.124299 25.774519,19.003259 45.032649,18.824341 C 50.758039,70.726949 54.092428,112.75652 51.929142,155.06259 C 49.359222,205.15976 51.896611,176.66294 94.75571,270.56259 C 114.35542,313.53555 125.39956,372.77381 131.38519,394.4392 C 141.30704,430.46686 75.920477,419.3414 57.996104,430.46686 C 40.039199,441.59234 49.359222,494.63353 59.622635,508.55664 C 69.886047,522.49602 -10.643516,552.18021 -35.155342,559.33695 C -71.898683,570.05578 47.195935,602.57014 42.056097,624.85362 C 36.916257,647.12084 29.239031,630.41636 21.529273,633.214 C 13.83578,636.01163 19.024415,655.48121 26.669111,677.74841 C 34.378869,700.01562 39.128341,732.35107 0.67714165,757.38339 C -17.718926,769.35466 -42.523529,769.64744 -69.572743,764.84917 C -69.10105,723.64913 -70.45107,90.668226 -70.45107,17.47432 z"
   id="path34666"
   style="fill:none;stroke:#fce3d9;stroke-width:16.26531219;stroke-miterlimit:10" /><path
   d="M 682.83475,147.7098 C 684.03756,109.1399 683.52436,65.502199 681.50365,24.751218 C 650.87226,59.343847 627.63409,99.357103 623.51249,129.17059 C 616.05511,182.91185 611.08352,229.64478 613.56931,271.72686 C 616.05511,313.7929 650.84017,320.80124 591.19716,390.90064 C 531.57019,461.00002 538.9955,453.97565 536.52573,472.67523 C 534.03994,491.35878 573.81265,514.74128 591.19716,524.09107 C 608.59772,533.44086 616.05511,556.77525 606.09589,568.4665 C 596.15272,580.17379 641.9234,586.05951 655.17028,607.08451 C 672.61895,634.78106 618.156,632.45564 623.14362,651.17127 C 628.14729,669.85481 635.58863,655.83814 643.01394,658.17961 C 650.50339,660.52106 645.4837,676.87919 638.02632,695.57878 C 630.58497,714.24628 625.9662,741.39756 663.23708,762.43861 C 667.96811,765.11684 677.30186,768.70922 682.83475,770.5054 C 681.66403,715.73776 681.50365,190.4815 682.83475,147.7098 z"
   id="path34668"
   style="fill:#805414" /><path
   d="M -70.45107,16.791177 C -36.570425,15.441156 25.774519,18.320116 45.032649,18.141197 C 50.758039,70.043808 54.092428,112.07337 51.929142,154.37945 C 49.359222,204.49289 51.896611,175.99605 94.75571,269.87944 C 114.35542,312.83613 125.39956,372.10692 131.38519,393.75606 C 141.30704,429.78373 75.920477,418.65825 57.996104,429.78373 C 40.039199,440.9092 49.359222,493.95038 59.622635,507.8735 C 69.886047,521.81287 -10.643516,551.49706 -35.155342,558.65381 C -71.898683,569.37265 47.195935,601.887 42.056097,624.17048 C 36.916257,646.43769 29.239031,629.73321 21.529273,632.53085 C 13.83578,635.32848 19.024415,654.79806 26.669111,677.06527 C 34.378869,699.33249 39.128341,731.66793 0.67714165,756.70025 C -17.718926,768.67151 -42.523529,768.96429 -69.572743,764.16603 C -69.10105,722.98225 -70.45107,89.985078 -70.45107,16.791177 z"
   id="path34670"
   style="fill:#fdd5bf" />

<g
   id="g35315"
   transform="translate(22.098214,4.4196429)"><path
     id="path35251"
     d="M 104.85172,520.02567 C 112.31417,531.44039 116.65361,545.07892 116.65361,559.72486 C 116.65361,583.30132 102.81026,606.24888 87.992996,617.54859"
     style="fill:none;fill-opacity:1;fill-rule:nonzero;stroke:#729fcf;stroke-width:33;stroke-linecap:square;stroke-linejoin:round;marker:none;marker-start:none;marker-mid:none;marker-end:none;stroke-miterlimit:10;stroke-dasharray:none;stroke-dashoffset:0;stroke-opacity:1;visibility:visible;display:inline;overflow:visible;enable-background:accumulate" /><path
     id="path35297"
     d="M 154.4594,469.79909 C 174.45358,494.32902 186.4466,525.63489 186.4466,559.72482 C 186.4466,603.07855 167.04989,641.92946 136.46697,668.06704"
     style="fill:none;fill-opacity:1;fill-rule:nonzero;stroke:#729fcf;stroke-width:33;stroke-linecap:square;stroke-linejoin:round;marker:none;marker-start:none;marker-mid:none;marker-end:none;stroke-miterlimit:10;stroke-dasharray:none;stroke-dashoffset:0;stroke-opacity:1;visibility:visible;display:inline;overflow:visible;enable-background:accumulate" /><path
     style="fill:none;fill-opacity:1;fill-rule:nonzero;stroke:#729fcf;stroke-width:33;stroke-linecap:square;stroke-linejoin:round;marker:none;marker-start:none;marker-mid:none;marker-end:none;stroke-miterlimit:10;stroke-dasharray:none;stroke-dashoffset:0;stroke-opacity:1;visibility:visible;display:inline;overflow:visible;enable-background:accumulate"
     d="M 201.51067,416.74405 C 234.87675,454.61538 255.3339,505.63929 255.3339,561.74246 C 255.3339,623.66335 230.41413,679.39692 190.72293,718.08892"
     id="path35305" /></g><g
   id="g35320"
   transform="translate(-32.705357,-11.491071)"><path
     style="fill:none;fill-opacity:1;fill-rule:nonzero;stroke:#ef2929;stroke-width:33;stroke-linecap:square;stroke-linejoin:round;marker:none;marker-start:none;marker-mid:none;marker-end:none;stroke-miterlimit:10;stroke-dasharray:none;stroke-dashoffset:0;stroke-opacity:1;visibility:visible;display:inline;overflow:visible;enable-background:accumulate"
     d="M 556.91679,570.4096 C 549.45434,581.82432 545.1149,595.46285 545.1149,610.10879 C 545.1149,633.68525 558.95825,656.63281 573.77551,667.93252"
     id="path35307" /><path
     style="fill:none;fill-opacity:1;fill-rule:nonzero;stroke:#ef2929;stroke-width:33;stroke-linecap:square;stroke-linejoin:round;marker:none;marker-start:none;marker-mid:none;marker-end:none;stroke-miterlimit:10;stroke-dasharray:none;stroke-dashoffset:0;stroke-opacity:1;visibility:visible;display:inline;overflow:visible;enable-background:accumulate"
     d="M 507.30911,520.18302 C 487.31493,544.71295 475.32191,576.01882 475.32191,610.10875 C 475.32191,653.46248 494.71862,692.31339 525.30154,718.45097"
     id="path35309" /><path
     id="path35313"
     d="M 460.25784,467.12798 C 426.89176,504.99931 406.43461,556.02322 406.43461,612.12639 C 406.43461,674.04728 431.35438,729.78085 471.04558,768.47285"
     style="fill:none;fill-opacity:1;fill-rule:nonzero;stroke:#ef2929;stroke-width:33;stroke-linecap:square;stroke-linejoin:round;marker:none;marker-start:none;marker-mid:none;marker-end:none;stroke-miterlimit:10;stroke-dasharray:none;stroke-dashoffset:0;stroke-opacity:1;visibility:visible;display:inline;overflow:visible;enable-background:accumulate" /></g></svg>