<?xml version="1.0" encoding="UTF-8" standalone="no"?>
<svg width="35.2778mm" height="35.2778mm"
 viewBox="0 0 100 100"
 xmlns="http://www.w3.org/2000/svg" xmlns:xlink="http://www.w3.org/1999/xlink"  version="1.2" baseProfile="tiny">
<title>CHOP_voicesync.icon</title>
<desc>Generated with Qt</desc>
<defs>
</defs>
<g fill="none" stroke="black" stroke-width="1" fill-rule="evenodd" stroke-linecap="square" stroke-linejoin="bevel" >

<g fill="none" stroke="#000000" stroke-opacity="1" stroke-width="1" stroke-linecap="square" stroke-linejoin="bevel" transform="matrix(1,0,0,1,0,0)"
font-family="MS Shell Dlg 2" font-size="8.25" font-weight="400" font-style="normal" 
>
</g>

<g fill="#d4d4d4" fill-opacity="1" stroke="#d4d4d4" stroke-opacity="1" stroke-width="1" stroke-linecap="square" stroke-linejoin="bevel" transform="matrix(1,0,0,1,0,0)"
font-family="MS Shell Dlg 2" font-size="8.25" font-weight="400" font-style="normal" 
>
<path vector-effect="non-scaling-stroke" fill-rule="evenodd" d="M12.8,100 L15,112.5 L-10,110 L-11,-12.03 L39.6,-12.03 L35.6,9.4 L37.8,15.6 L44.8,30 L44,32.8 L40.8,34.6 L37.8,35.2 L34,35.2 L36.8,42.3 L39,45.8 L36.8,47.3 L17.6,51.2 L36.8,57.3 L38.6,59 L36.8,62.3 L36.8,72.3 L31.8,74.8 L27.6,75.2 L17.6,80.2 L12.6,87.7 L12.8,100"/>
</g>

<g fill="#cccccc" fill-opacity="1" stroke="#cccccc" stroke-opacity="1" stroke-width="1" stroke-linecap="square" stroke-linejoin="bevel" transform="matrix(1,0,0,1,0,0)"
font-family="MS Shell Dlg 2" font-size="8.25" font-weight="400" font-style="normal" 
>
<polyline fill="none" vector-effect="non-scaling-stroke" points="12.8,100 15,112.5 -10,110 -11,-12.03 39.6,-12.03 35.6,9.4 37.8,15.6 44.8,30 44,32.8 40.8,34.6 37.8,35.2 34,35.2 36.8,42.3 39,45.8 36.8,47.3 17.6,51.2 36.8,57.3 38.6,59 36.8,62.3 36.8,72.3 31.8,74.8 27.6,75.2 17.6,80.2 12.6,87.7 12.8,100 " />
</g>

<g fill="#ffffff" fill-opacity="1" stroke="#ffffff" stroke-opacity="1" stroke-width="1" stroke-linecap="square" stroke-linejoin="bevel" transform="matrix(1,0,0,1,0,0)"
font-family="MS Shell Dlg 2" font-size="8.25" font-weight="400" font-style="normal" 
>
<path vector-effect="non-scaling-stroke" fill-rule="evenodd" d="M30,15 L22,20.4 L12.2,15.4 L22,10.4 L30,15"/>
</g>

<g fill="#cccccc" fill-opacity="1" stroke="#cccccc" stroke-opacity="1" stroke-width="1" stroke-linecap="square" stroke-linejoin="bevel" transform="matrix(1,0,0,1,0,0)"
font-family="MS Shell Dlg 2" font-size="8.25" font-weight="400" font-style="normal" 
>
<polyline fill="none" vector-effect="non-scaling-stroke" points="30,15 22,20.4 12.2,15.4 22,10.4 30,15 " />
</g>

<g fill="#cccccc" fill-opacity="1" stroke="#cccccc" stroke-opacity="1" stroke-width="1" stroke-linecap="square" stroke-linejoin="bevel" transform="matrix(1,0,0,1,0,0)"
font-family="MS Shell Dlg 2" font-size="8.25" font-weight="400" font-style="normal" 
>
<polyline fill="none" vector-effect="non-scaling-stroke" points="81.4,37.4 50,45 " />
<polyline fill="none" vector-effect="non-scaling-stroke" points="95,52.5 49.8,52.8 " />
<polyline fill="none" vector-effect="non-scaling-stroke" points="87.2,70.8 48.8,61.8 " />
<polyline fill="none" vector-effect="non-scaling-stroke" points="36,44.8 17.6,51.2 36,59.8 " />
</g>
</g>
</svg>
