<?xml version="1.0" encoding="UTF-8" standalone="no"?>
<!-- Created with Inkscape (http://www.inkscape.org/) -->

<svg
   xmlns:dc="http://purl.org/dc/elements/1.1/"
   xmlns:cc="http://creativecommons.org/ns#"
   xmlns:rdf="http://www.w3.org/1999/02/22-rdf-syntax-ns#"
   xmlns:svg="http://www.w3.org/2000/svg"
   xmlns="http://www.w3.org/2000/svg"
   xmlns:xlink="http://www.w3.org/1999/xlink"
   xmlns:sodipodi="http://sodipodi.sourceforge.net/DTD/sodipodi-0.dtd"
   xmlns:inkscape="http://www.inkscape.org/namespaces/inkscape"
   width="16px"
   height="16px"
   id="svg19868"
   version="1.1"
   inkscape:version="0.48.5 r10040"
   sodipodi:docname="New document 16">
  <defs
     id="defs19870">
    <linearGradient
       id="linearGradient20501">
      <stop
         id="stop20503"
         offset="0"
         style="stop-color:#4e585c;stop-opacity:1;" />
      <stop
         id="stop20505"
         offset="1"
         style="stop-color:#2e3436;stop-opacity:1;" />
    </linearGradient>
    <linearGradient
       id="linearGradient20485">
      <stop
         style="stop-color:#6e7c81;stop-opacity:1;"
         offset="0"
         id="stop20487" />
      <stop
         style="stop-color:#2e3436;stop-opacity:1;"
         offset="1"
         id="stop20489" />
    </linearGradient>
    <linearGradient
       inkscape:collect="always"
       xlink:href="#linearGradient20485"
       id="linearGradient20491"
       x1="10.195779"
       y1="0.49642509"
       x2="13.946067"
       y2="3.2198815"
       gradientUnits="userSpaceOnUse" />
    <linearGradient
       inkscape:collect="always"
       xlink:href="#linearGradient20501"
       id="linearGradient20499"
       x1="4.1256256"
       y1="3.5654061"
       x2="14.700146"
       y2="12.30501"
       gradientUnits="userSpaceOnUse" />
  </defs>
  <sodipodi:namedview
     id="base"
     pagecolor="#ffffff"
     bordercolor="#666666"
     borderopacity="1.0"
     inkscape:pageopacity="0.0"
     inkscape:pageshadow="2"
     inkscape:zoom="31.392433"
     inkscape:cx="10.116734"
     inkscape:cy="5.4775789"
     inkscape:current-layer="layer1"
     showgrid="true"
     inkscape:grid-bbox="true"
     inkscape:document-units="px"
     inkscape:snap-global="false"
     inkscape:window-width="2560"
     inkscape:window-height="1537"
     inkscape:window-x="-8"
     inkscape:window-y="-8"
     inkscape:window-maximized="1">
    <inkscape:grid
       type="xygrid"
       id="grid19876" />
  </sodipodi:namedview>
  <metadata
     id="metadata19873">
    <rdf:RDF>
      <cc:Work
         rdf:about="">
        <dc:format>image/svg+xml</dc:format>
        <dc:type
           rdf:resource="http://purl.org/dc/dcmitype/StillImage" />
        <dc:title></dc:title>
      </cc:Work>
    </rdf:RDF>
  </metadata>
  <g
     id="layer1"
     inkscape:label="Layer 1"
     inkscape:groupmode="layer">
    <path
       sodipodi:type="arc"
       style="color:#000000;fill:#d3d7cf;stroke:url(#linearGradient20491);stroke-width:0.61735278;stroke-linecap:butt;stroke-linejoin:miter;stroke-miterlimit:4;stroke-opacity:1;stroke-dasharray:none;stroke-dashoffset:0;marker:none;visibility:visible;display:inline;overflow:visible;enable-background:accumulate"
       id="path19889"
       sodipodi:cx="12"
       sodipodi:cy="2"
       sodipodi:rx="2"
       sodipodi:ry="2"
       d="m 14,2 a 2,2 0 1 1 -4,0 2,2 0 1 1 4,0 z"
       transform="matrix(0.80990973,0,0,0.80990973,2.4085023,0.2846161)" />
    <path
       style="fill:#ffffff;stroke:url(#linearGradient20499);stroke-width:0.50000000000000000;stroke-linecap:butt;stroke-linejoin:miter;stroke-miterlimit:4;stroke-opacity:1;stroke-dasharray:none"
       d="M 9.3334595,2.8121084 5.8822759,2.0984209 C 5.7116093,2.0533297 5.5891958,2.1417527 5.4940595,2.2476085 L 2.94657,5.1693644 C 2.562349,5.847456 3.731467,7.0004902 4.3481816,6.1887183 L 6.3709621,3.9270268 8.2185411,4.3092845 3.9818513,10.075005 1.178628,9.2467801 C 0.11676575,9.0260245 -0.01995937,10.62966 0.60524141,10.839521 L 4.5552379,11.986294 6.7850746,9.2149253 8.0592671,11.82702 6.052414,14.566534 c -0.4518501,0.663132 0.7956745,1.623803 1.4653213,0.891934 L 10.034265,12.081858 8.6007989,9.1830705 10.862491,6.2205731 11.881844,8.7052483 c 0.09248,0.1999787 0.424639,0.3443412 0.605242,0.3822578 l 2.293546,0.6370962 c 1.118615,0.2073541 1.325367,-1.4203621 0.477822,-1.688305 L 13.219747,7.5266203 11.881844,4.8189614 z"
       id="path19891"
       inkscape:connector-curvature="0"
       sodipodi:nodetypes="ccccccccccccccccccccccccc" />
    <path
       style="fill:#d3d7cf;stroke:none"
       d="M 8.3141056,9.1352883 7.820356,8.0203699 10.320959,4.5004134 11.29253,5.312711 12.506579,8.2830868 14.992546,9.5252585 12.365958,8.7803329 C 12.25062,8.7723745 12.144899,8.6970921 12.050793,8.540508 L 10.945006,5.7277543 z"
       id="path20435"
       inkscape:connector-curvature="0"
       sodipodi:nodetypes="cccccccccc" />
    <path
       style="color:#000000;fill:#d3d7cf;fill-opacity:1;fill-rule:nonzero;stroke:none;stroke-width:1px;marker:none;visibility:visible;display:inline;overflow:visible;enable-background:accumulate"
       d="m 6.5182906,15.323086 2.8470238,-4.037598 0.3822577,0.748588 -2.4169838,3.2691 c -0.2760817,0.224586 -0.5468342,0.230673 -0.8122977,0.01991 z"
       id="path20437"
       inkscape:connector-curvature="0"
       sodipodi:nodetypes="ccccc" />
    <path
       style="fill:#d3d7cf;stroke:none;stroke-width:1px;stroke-linecap:butt;stroke-linejoin:miter;stroke-opacity:1;color:#000000;fill-opacity:1;fill-rule:nonzero;marker:none;visibility:visible;display:inline;overflow:visible;enable-background:accumulate"
       d="M 6.8487843,8.768958 6.6098732,8.1637166 4.2526172,11.142141 1.0671362,10.250207 0.66895103,10.60061 4.4596735,11.715528 z"
       id="path20456"
       inkscape:connector-curvature="0" />
    <path
       style="color:#000000;fill:#d3d7cf;fill-opacity:1;fill-rule:nonzero;stroke:none;stroke-width:1px;marker:none;visibility:visible;display:inline;overflow:visible;enable-background:accumulate"
       d="M 3.4243922,6.0294442 6.0205592,3.0510194 9.0308388,3.6721882 8.6167263,4.1818652 6.2753977,3.6562608 4.1092706,6.0931539 c -0.266239,0.1305484 -0.5033904,0.144746 -0.6848784,-0.06371 z"
       id="path20475"
       inkscape:connector-curvature="0"
       sodipodi:nodetypes="ccccccc" />
    <path
       transform="matrix(0.51746532,0,0,0.51746532,5.6741315,0.65829507)"
       d="m 14,2 a 2,2 0 1 1 -4,0 2,2 0 1 1 4,0 z"
       sodipodi:ry="2"
       sodipodi:rx="2"
       sodipodi:cy="2"
       sodipodi:cx="12"
       id="path20483"
       style="color:#000000;fill:#ffffff;stroke:none;stroke-width:0.62973696;marker:none;visibility:visible;display:inline;overflow:visible;enable-background:accumulate"
       sodipodi:type="arc" />
  </g>
</svg>
