<?xml version="1.0" encoding="UTF-8" standalone="no"?>
<!-- Created with Inkscape (http://www.inkscape.org/) -->

<svg
   xmlns:dc="http://purl.org/dc/elements/1.1/"
   xmlns:cc="http://creativecommons.org/ns#"
   xmlns:rdf="http://www.w3.org/1999/02/22-rdf-syntax-ns#"
   xmlns:svg="http://www.w3.org/2000/svg"
   xmlns="http://www.w3.org/2000/svg"
   xmlns:sodipodi="http://sodipodi.sourceforge.net/DTD/sodipodi-0.dtd"
   xmlns:inkscape="http://www.inkscape.org/namespaces/inkscape"
   width="16px"
   height="16px"
   id="svg1872"
   sodipodi:version="0.32"
   inkscape:version="0.48.5 r10040"
   sodipodi:docname="add_constraints.svg"
   version="1.1">
  <defs
     id="defs1874">
    <linearGradient
       id="linearGradient2849">
      <stop
         style="stop-color:#2e3436;stop-opacity:1;"
         offset="0"
         id="stop2851" />
      <stop
         style="stop-color:#aeaeae;stop-opacity:1;"
         offset="1"
         id="stop2853" />
    </linearGradient>
    <linearGradient
       id="linearGradient2841">
      <stop
         style="stop-color:#5c5c5c;stop-opacity:1;"
         offset="0"
         id="stop2843" />
      <stop
         style="stop-color:#2e3436;stop-opacity:1;"
         offset="1"
         id="stop2845" />
    </linearGradient>
    <linearGradient
       id="linearGradient2809">
      <stop
         style="stop-color:#99a28f;stop-opacity:1;"
         offset="0"
         id="stop2811" />
      <stop
         style="stop-color:white;stop-opacity:1;"
         offset="1"
         id="stop2813" />
    </linearGradient>
    <linearGradient
       id="linearGradient2797">
      <stop
         style="stop-color:white;stop-opacity:1;"
         offset="0"
         id="stop2799" />
      <stop
         style="stop-color:#999e93;stop-opacity:1;"
         offset="1"
         id="stop2801" />
    </linearGradient>
    <linearGradient
       id="linearGradient2782">
      <stop
         style="stop-color:#d3d7cf;stop-opacity:1;"
         offset="0"
         id="stop2784" />
      <stop
         style="stop-color:#b3baac;stop-opacity:1;"
         offset="1"
         id="stop2786" />
    </linearGradient>
    <linearGradient
       id="linearGradient2774">
      <stop
         style="stop-color:#888a85;stop-opacity:1;"
         offset="0"
         id="stop2776" />
      <stop
         style="stop-color:#bbbcb9;stop-opacity:1;"
         offset="1"
         id="stop2778" />
    </linearGradient>
    <linearGradient
       gradientUnits="userSpaceOnUse"
       x1="8.248996"
       y1="1.7843466"
       x2="8.2976201"
       y2="15.468792"
       id="linearGradient-1">
      <stop
         stop-color="#EEEEEC"
         offset="0%"
         id="stop3032" />
      <stop
         stop-color="#616157"
         offset="100%"
         id="stop3034" />
    </linearGradient>
    <linearGradient
       gradientUnits="userSpaceOnUse"
       x1="8.1919247"
       y1="0.3107806"
       x2="8.068783"
       y2="16.502568"
       id="linearGradient-2">
      <stop
         stop-color="#FFFFFF"
         offset="0%"
         id="stop3037" />
      <stop
         stop-color="#EEEEEC"
         stop-opacity="0.20987654"
         offset="100%"
         id="stop3039" />
    </linearGradient>
    <radialGradient
       gradientUnits="userSpaceOnUse"
       cx="6.3013808"
       cy="6.591557"
       fx="6.3013808"
       fy="6.591557"
       r="7.2707486"
       id="radialGradient-3">
      <stop
         stop-color="#007400"
         offset="0%"
         id="stop3042" />
      <stop
         stop-color="#2A392A"
         offset="100%"
         id="stop3044" />
    </radialGradient>
    <linearGradient
       gradientUnits="userSpaceOnUse"
       x1="8.068783"
       y1="15.980031"
       x2="8.068783"
       y2="0.30716281"
       id="linearGradient-4">
      <stop
         stop-color="#EEEEEC"
         offset="0%"
         id="stop3047" />
      <stop
         stop-color="#FFFFFF"
         offset="100%"
         id="stop3049" />
    </linearGradient>
  </defs>
  <sodipodi:namedview
     id="base"
     pagecolor="#ffffff"
     bordercolor="#666666"
     borderopacity="1.0"
     inkscape:pageopacity="0.0"
     inkscape:pageshadow="2"
     inkscape:zoom="49.945054"
     inkscape:cx="6.7486249"
     inkscape:cy="6.0178217"
     inkscape:current-layer="layer1"
     showgrid="true"
     inkscape:grid-bbox="true"
     inkscape:document-units="px"
     inkscape:grid-points="false"
     inkscape:window-width="1276"
     inkscape:window-height="1578"
     inkscape:window-x="1280"
     inkscape:window-y="20"
     inkscape:window-maximized="0">
    <inkscape:grid
       type="xygrid"
       id="grid4129" />
  </sodipodi:namedview>
  <metadata
     id="metadata1877">
    <rdf:RDF>
      <cc:Work
         rdf:about="">
        <dc:format>image/svg+xml</dc:format>
        <dc:type
           rdf:resource="http://purl.org/dc/dcmitype/StillImage" />
        <dc:title />
      </cc:Work>
    </rdf:RDF>
  </metadata>
  <g
     id="layer1"
     inkscape:label="Layer 1"
     inkscape:groupmode="layer">
    <g
       transform="translate(-0.068783,-0.06878299)"
       style="fill:none;stroke:none"
       id="Page-1">
      <g
         id="chop_info">
        <path
           style="fill:url(#linearGradient-1);stroke:#2e3436;stroke-width:1.00000048"
           inkscape:connector-curvature="0"
           d="m 15.137566,8.068783 c 0,2.525433 -1.347303,4.859029 -3.534392,6.121746 -2.1870888,1.262716 -4.8816936,1.262716 -7.0687826,0 C 2.3473023,12.927812 0.99999995,10.594216 1,8.068783 c -5e-8,-2.5254329 1.3473023,-4.8590292 3.5343914,-6.1217457 2.187089,-1.26271642 4.8816938,-1.26271642 7.0687826,0 2.187089,1.2627165 3.534392,3.5963128 3.534392,6.1217457 l 0,0 z"
           id="path13696" />
        <path
           style="stroke:url(#linearGradient-2);stroke-width:1.00000012"
           inkscape:connector-curvature="0"
           d="m 15.137566,8.068783 c 0,2.525433 -1.347303,4.859029 -3.534392,6.121746 -2.1870888,1.262716 -4.8816936,1.262716 -7.0687826,0 C 2.3473023,12.927812 0.99999995,10.594216 1,8.068783 c -5e-8,-2.5254329 1.3473023,-4.8590292 3.5343914,-6.1217457 2.187089,-1.26271642 4.8816938,-1.26271642 7.0687826,0 2.187089,1.2627165 3.534392,3.5963128 3.534392,6.1217457 l 0,0 z"
           id="path13719" />
        <path
           style="fill:url(#radialGradient-3)"
           inkscape:connector-curvature="0"
           d="m 15.137566,8.068783 c 0,2.525433 -1.347303,4.859029 -3.534392,6.121746 -2.1870888,1.262716 -4.8816936,1.262716 -7.0687826,0 C 2.3473023,12.927812 0.99999995,10.594216 1,8.068783 c -5e-8,-2.5254329 1.3473023,-4.8590292 3.5343914,-6.1217457 2.187089,-1.26271642 4.8816938,-1.26271642 7.0687826,0 2.187089,1.2627165 3.534392,3.5963128 3.534392,6.1217457 l 0,0 z"
           id="path13731" />
        <g
           id="Group"
           transform="translate(2,6)">
          <path
             style="stroke:#57a10f;stroke-width:2.99999976"
             inkscape:connector-curvature="0"
             d="M 12,3.7529758 C 11.117016,2.8838286 11.214995,0.01893562 9.9951126,0.01781722 8.5552491,0.01650738 8.9514022,4.0075692 7.3957403,3.9999804 5.8400784,3.9923915 6.2362311,0.00132011 4.7963676,3.2244218e-7 3.356504,-0.00130973 3.7526571,3.9897521 2.2046134,3.9999804 0.81439377,4.0091658 0.99215409,0.7913339 0,0.13416117"
             id="path13802" />
          <path
             style="stroke:#eeeeec;stroke-width:1.00000012"
             inkscape:connector-curvature="0"
             d="M 12,3.7529758 C 11.117016,2.8838286 11.214995,0.01893582 9.9951126,0.01781742 8.5552491,0.01650738 8.9514019,4.0075692 7.39574,3.9999804 5.8400781,3.9923917 6.2362308,0.00132031 4.7963676,3.2244214e-7 3.3565041,-0.00130973 3.7526569,3.9897521 2.2046131,3.9999804 0.8143938,4.0091658 0.99215404,0.79133386 0,0.13416137"
             id="path13785" />
        </g>
        <path
           style="stroke:url(#linearGradient-4);stroke-width:0.97222382"
           inkscape:connector-curvature="0"
           d="m 15.137566,8.068783 c 0,2.525433 -1.347303,4.859029 -3.534392,6.121746 -2.1870888,1.262716 -4.8816936,1.262716 -7.0687826,0 C 2.3473023,12.927812 0.99999995,10.594216 1,8.068783 c -5e-8,-2.5254329 1.3473023,-4.8590292 3.5343914,-6.1217457 2.187089,-1.26271642 4.8816938,-1.26271642 7.0687826,0 2.187089,1.2627165 3.534392,3.5963128 3.534392,6.1217457 l 0,0 z"
           id="path13804" />
      </g>
    </g>
    <rect
       y="10.992227"
       x="9.0200214"
       height="3.054492"
       width="7.0011005"
       id="rect4189"
       style="color:#000000;fill:#2e3436;stroke:none;stroke-width:0.5;marker:none;visibility:visible;display:inline;overflow:visible;enable-background:accumulate" />
    <rect
       transform="matrix(0,1,-1,0,0,0)"
       style="color:#000000;fill:#2e3436;stroke:none;stroke-width:0.5;marker:none;visibility:visible;display:inline;overflow:visible;enable-background:accumulate"
       id="rect4191"
       width="7.1012106"
       height="3.0144479"
       x="8.9588556"
       y="-14.007773" />
    <path
       inkscape:connector-curvature="0"
       style="color:#000000;fill:none;stroke:none;stroke-width:2;marker:none;visibility:visible;display:inline;overflow:visible"
       d="m 21.868537,9.0062707 0,2.7832783 -2.783278,0 0,1.669967 2.783278,0 0,2.783278 1.669967,0 0,-2.783278 2.783279,0 0,-1.669967 -2.783279,0 0,-2.7832783 -1.669967,0 z"
       id="path2771"
       sodipodi:nodetypes="ccccccccccccc" />
    <rect
       style="color:#000000;fill:#eeeeec;stroke:none;stroke-width:0.5;marker:none;visibility:visible;display:inline;overflow:visible;enable-background:accumulate"
       id="rect4185"
       width="5.879868"
       height="1.9599559"
       x="9.5606155"
       y="11.49945" />
    <rect
       y="-13.480528"
       x="9.4994507"
       height="2"
       width="6.0400443"
       id="rect4187"
       style="color:#000000;fill:#eeeeec;stroke:none;stroke-width:0.5;marker:none;visibility:visible;display:inline;overflow:visible;enable-background:accumulate"
       transform="matrix(0,1,-1,0,0,0)" />
  </g>
</svg>
