<?xml version="1.0" encoding="UTF-8" standalone="no"?>
<!-- Created with Inkscape (http://www.inkscape.org/) -->
<svg
   xmlns:dc="http://purl.org/dc/elements/1.1/"
   xmlns:cc="http://creativecommons.org/ns#"
   xmlns:rdf="http://www.w3.org/1999/02/22-rdf-syntax-ns#"
   xmlns:svg="http://www.w3.org/2000/svg"
   xmlns="http://www.w3.org/2000/svg"
   xmlns:xlink="http://www.w3.org/1999/xlink"
   xmlns:sodipodi="http://sodipodi.sourceforge.net/DTD/sodipodi-0.dtd"
   xmlns:inkscape="http://www.inkscape.org/namespaces/inkscape"
   width="16"
   height="16"
   id="svg23883"
   sodipodi:version="0.32"
   inkscape:version="0.46"
   version="1.0"
   sodipodi:docbase="/home/jimmac/src/cvs/tango-icon-theme/scalable/actions"
   sodipodi:docname="cut.svg"
   inkscape:export-filename="/home/garrett/edit-cut.png"
   inkscape:export-xdpi="90"
   inkscape:export-ydpi="90"
   inkscape:output_extension="org.inkscape.output.svg.inkscape">
  <defs
     id="defs23885">
    <inkscape:perspective
       sodipodi:type="inkscape:persp3d"
       inkscape:vp_x="0 : 24 : 1"
       inkscape:vp_y="0 : 1000 : 0"
       inkscape:vp_z="48 : 24 : 1"
       inkscape:persp3d-origin="24 : 16 : 1"
       id="perspective9163" />
    <linearGradient
       inkscape:collect="always"
       id="linearGradient2269">
      <stop
         style="stop-color:#000000;stop-opacity:1;"
         offset="0"
         id="stop2271" />
      <stop
         style="stop-color:#000000;stop-opacity:0;"
         offset="1"
         id="stop2273" />
    </linearGradient>
    <linearGradient
       inkscape:collect="always"
       id="linearGradient2259">
      <stop
         style="stop-color:#9a0c00;stop-opacity:1;"
         offset="0"
         id="stop2261" />
      <stop
         style="stop-color:#9a0c00;stop-opacity:0;"
         offset="1"
         id="stop2263" />
    </linearGradient>
    <linearGradient
       inkscape:collect="always"
       id="linearGradient2251">
      <stop
         style="stop-color:#df2a2a;stop-opacity:1;"
         offset="0"
         id="stop2253" />
      <stop
         style="stop-color:#df2a2a;stop-opacity:0;"
         offset="1"
         id="stop2255" />
    </linearGradient>
    <linearGradient
       id="linearGradient2229">
      <stop
         style="stop-color:#e2e2e2;stop-opacity:1;"
         offset="0"
         id="stop2231" />
      <stop
         style="stop-color:#d8d8d8;stop-opacity:1;"
         offset="1"
         id="stop2233" />
    </linearGradient>
    <radialGradient
       gradientUnits="userSpaceOnUse"
       gradientTransform="matrix(1,0,0,1.0103,0,-0.159801)"
       r="7.2848282"
       cy="23.333008"
       cx="165.06104"
       id="radialGradient16850">
      <stop
         id="stop16852"
         style="stop-color:#EF3535"
         offset="0" />
      <stop
         id="stop16854"
         style="stop-color:#a40000;stop-opacity:0"
         offset="1" />
    </radialGradient>
    <linearGradient
       id="XMLID_897_"
       gradientUnits="userSpaceOnUse"
       x1="292.97168"
       y1="4.7592773"
       x2="296.93979"
       y2="10.711433">
      <stop
         offset="0"
         style="stop-color:#EEEEEC"
         id="stop45093" />
      <stop
         offset="1"
         style="stop-color:#ffffff;stop-opacity:1;"
         id="stop45095" />
    </linearGradient>
    <linearGradient
       id="path3230_2_"
       gradientUnits="userSpaceOnUse"
       x1="1668.7646"
       y1="185.30176"
       x2="1679.5989"
       y2="175.78883"
       gradientTransform="matrix(1.2138,0,0.2825,-1.6712,46.72625,447.9442)">
      <stop
         offset="0"
         style="stop-color:#FFFFFF"
         id="stop4977" />
      <stop
         offset="1"
         style="stop-color:#CFCFCF"
         id="stop4979" />
    </linearGradient>
    <linearGradient
       id="path3311_1_"
       gradientUnits="userSpaceOnUse"
       x1="1420.5474"
       y1="-50.919434"
       x2="1420.6542"
       y2="-79.574341"
       gradientTransform="matrix(2.051,0,0.1672,-0.989,-799.2049,221.0724)">
      <stop
         offset="0"
         style="stop-color:#C4A000"
         id="stop4970" />
      <stop
         offset="1"
         style="stop-color:#957A00"
         id="stop4972" />
    </linearGradient>
    <radialGradient
       id="XMLID_52_"
       cx="165.06104"
       cy="23.333008"
       r="7.2848282"
       gradientTransform="matrix(1,0,0,1.0103,0,-0.159801)"
       gradientUnits="userSpaceOnUse">
      <stop
         offset="0"
         style="stop-color:#EF3535"
         id="stop812" />
      <stop
         id="stop2239"
         style="stop-color:#c91a1a;stop-opacity:1;"
         offset="0" />
      <stop
         offset="1"
         style="stop-color:#ff4c4c;stop-opacity:1;"
         id="stop814" />
    </radialGradient>
    <linearGradient
       id="XMLID_45_"
       gradientUnits="userSpaceOnUse"
       x1="68.175293"
       y1="21.424805"
       x2="74.587158"
       y2="27.836672">
      <stop
         offset="0"
         style="stop-color:#BABDB6"
         id="stop695" />
      <stop
         offset="1"
         style="stop-color:#EEEEEC"
         id="stop697" />
    </linearGradient>
    <linearGradient
       inkscape:collect="always"
       xlink:href="#path3230_2_"
       id="linearGradient142876"
       gradientUnits="userSpaceOnUse"
       gradientTransform="matrix(1.213781,0,0.282495,-1.671173,-1712.251,391.532)"
       x1="1668.7646"
       y1="185.30176"
       x2="1679.5989"
       y2="175.78883" />
    <linearGradient
       inkscape:collect="always"
       xlink:href="#path3230_2_"
       id="linearGradient142884"
       gradientUnits="userSpaceOnUse"
       gradientTransform="matrix(1.213781,0,0.282495,-1.671173,-1385.251,394.532)"
       x1="1668.7646"
       y1="185.30176"
       x2="1679.5989"
       y2="175.78883" />
    <linearGradient
       inkscape:collect="always"
       xlink:href="#path3311_1_"
       id="linearGradient142892"
       gradientUnits="userSpaceOnUse"
       gradientTransform="matrix(2.050967,0,0.167197,-0.988984,-2231.169,167.6639)"
       x1="1420.5474"
       y1="-50.919434"
       x2="1420.6542"
       y2="-79.574341" />
    <linearGradient
       inkscape:collect="always"
       xlink:href="#XMLID_45_"
       id="linearGradient16739"
       x1="22.225399"
       y1="23.843431"
       x2="24.190449"
       y2="22.860907"
       gradientUnits="userSpaceOnUse" />
    <linearGradient
       inkscape:collect="always"
       xlink:href="#XMLID_52_"
       id="linearGradient16769"
       x1="294.59497"
       y1="12.187603"
       x2="297.18515"
       y2="13.3396"
       gradientUnits="userSpaceOnUse" />
    <linearGradient
       inkscape:collect="always"
       xlink:href="#XMLID_52_"
       id="linearGradient16894"
       gradientUnits="userSpaceOnUse"
       gradientTransform="matrix(3.624438,0,0,3.624438,-1053.179,-16.8472)"
       x1="296.76199"
       y1="12.012225"
       x2="297.79822"
       y2="10.946587" />
    <linearGradient
       inkscape:collect="always"
       xlink:href="#XMLID_52_"
       id="linearGradient16946"
       gradientUnits="userSpaceOnUse"
       gradientTransform="matrix(3.637893,0,0,3.470375,-1056.116,-16.00724)"
       x1="296.48611"
       y1="15.506916"
       x2="296.52905"
       y2="9.8769522" />
    <linearGradient
       inkscape:collect="always"
       xlink:href="#XMLID_897_"
       id="linearGradient16968"
       gradientUnits="userSpaceOnUse"
       gradientTransform="matrix(-4.127761,0,0,4.136601,1244.465,-11.90495)"
       x1="292.97168"
       y1="4.7592773"
       x2="296.93979"
       y2="10.711433" />
    <linearGradient
       inkscape:collect="always"
       xlink:href="#XMLID_897_"
       id="linearGradient16974"
       gradientUnits="userSpaceOnUse"
       gradientTransform="matrix(4.053427,0,0,4.136601,-1175.535,-11.90495)"
       x1="292.97168"
       y1="4.7592773"
       x2="296.93979"
       y2="10.711433" />
    <linearGradient
       inkscape:collect="always"
       xlink:href="#radialGradient16850"
       id="linearGradient17028"
       gradientUnits="userSpaceOnUse"
       gradientTransform="matrix(1.161878,0,0,0.992497,-5.112111,6.400522e-2)"
       x1="39.619942"
       y1="44.540932"
       x2="-3.532515"
       y2="-11.889042" />
    <linearGradient
       inkscape:collect="always"
       xlink:href="#XMLID_52_"
       id="linearGradient17034"
       gradientUnits="userSpaceOnUse"
       gradientTransform="matrix(1.161878,0,0,0.992497,-2.666967,6.400522e-2)"
       x1="13.82536"
       y1="40.068752"
       x2="7.6700611"
       y2="2.3262277" />
    <linearGradient
       inkscape:collect="always"
       xlink:href="#XMLID_52_"
       id="linearGradient17037"
       gradientUnits="userSpaceOnUse"
       x1="7.184845"
       y1="31.056622"
       x2="25.152235"
       y2="50.774887"
       gradientTransform="matrix(1.161878,0,0,0.992497,-2.430779,0.265761)" />
    <linearGradient
       inkscape:collect="always"
       xlink:href="#linearGradient2229"
       id="linearGradient2235"
       x1="20.288025"
       y1="6.4603648"
       x2="24.32597"
       y2="23.942537"
       gradientUnits="userSpaceOnUse" />
    <linearGradient
       inkscape:collect="always"
       xlink:href="#linearGradient2229"
       id="linearGradient2237"
       x1="20.288025"
       y1="6.4603648"
       x2="24.32597"
       y2="23.942537"
       gradientUnits="userSpaceOnUse" />
    <radialGradient
       inkscape:collect="always"
       xlink:href="#XMLID_52_"
       id="radialGradient2241"
       cx="34.376091"
       cy="37.50008"
       fx="34.376091"
       fy="37.50008"
       r="8.3887873"
       gradientTransform="matrix(1,0,0,1.060381,0,-2.299514)"
       gradientUnits="userSpaceOnUse" />
    <linearGradient
       inkscape:collect="always"
       xlink:href="#linearGradient2251"
       id="linearGradient2257"
       x1="298.47852"
       y1="13.599585"
       x2="298.86948"
       y2="13.802949"
       gradientUnits="userSpaceOnUse" />
    <linearGradient
       inkscape:collect="always"
       xlink:href="#linearGradient2259"
       id="linearGradient2265"
       x1="298.47852"
       y1="13.599585"
       x2="298.86948"
       y2="13.802949"
       gradientUnits="userSpaceOnUse" />
    <radialGradient
       inkscape:collect="always"
       xlink:href="#linearGradient2269"
       id="radialGradient2275"
       cx="25.1875"
       cy="41.625"
       fx="25.1875"
       fy="41.625"
       r="18.0625"
       gradientTransform="matrix(1,0,0,0.32526,0,28.08607)"
       gradientUnits="userSpaceOnUse" />
    <linearGradient
       inkscape:collect="always"
       xlink:href="#XMLID_897_"
       id="linearGradient9208"
       gradientUnits="userSpaceOnUse"
       gradientTransform="matrix(-4.127761,0,0,4.136601,1244.465,-11.90495)"
       x1="292.97168"
       y1="4.7592773"
       x2="296.93979"
       y2="10.711433" />
    <linearGradient
       inkscape:collect="always"
       xlink:href="#linearGradient2229"
       id="linearGradient9210"
       gradientUnits="userSpaceOnUse"
       x1="20.288025"
       y1="6.4603648"
       x2="24.32597"
       y2="23.942537" />
    <linearGradient
       inkscape:collect="always"
       xlink:href="#XMLID_52_"
       id="linearGradient9212"
       gradientUnits="userSpaceOnUse"
       x1="294.59497"
       y1="12.187603"
       x2="297.18515"
       y2="13.3396" />
    <linearGradient
       inkscape:collect="always"
       xlink:href="#XMLID_52_"
       id="linearGradient9214"
       gradientUnits="userSpaceOnUse"
       gradientTransform="matrix(3.637893,0,0,3.470375,-1056.116,-16.00724)"
       x1="296.48611"
       y1="15.506916"
       x2="296.52905"
       y2="9.8769522" />
    <linearGradient
       inkscape:collect="always"
       xlink:href="#XMLID_897_"
       id="linearGradient9216"
       gradientUnits="userSpaceOnUse"
       gradientTransform="matrix(4.053427,0,0,4.136601,-1175.535,-11.90495)"
       x1="292.97168"
       y1="4.7592773"
       x2="296.93979"
       y2="10.711433" />
    <linearGradient
       inkscape:collect="always"
       xlink:href="#linearGradient2229"
       id="linearGradient9218"
       gradientUnits="userSpaceOnUse"
       x1="20.288025"
       y1="6.4603648"
       x2="24.32597"
       y2="23.942537" />
    <linearGradient
       inkscape:collect="always"
       xlink:href="#XMLID_45_"
       id="linearGradient9220"
       gradientUnits="userSpaceOnUse"
       x1="22.225399"
       y1="23.843431"
       x2="24.190449"
       y2="22.860907" />
    <linearGradient
       inkscape:collect="always"
       xlink:href="#XMLID_52_"
       id="linearGradient9222"
       gradientUnits="userSpaceOnUse"
       gradientTransform="matrix(1.161878,0,0,0.992497,-2.430779,0.265761)"
       x1="7.184845"
       y1="31.056622"
       x2="25.152235"
       y2="50.774887" />
    <linearGradient
       inkscape:collect="always"
       xlink:href="#XMLID_52_"
       id="linearGradient9224"
       gradientUnits="userSpaceOnUse"
       gradientTransform="matrix(1.161878,0,0,0.992497,-2.666967,6.400522e-2)"
       x1="13.82536"
       y1="40.068752"
       x2="7.6700611"
       y2="2.3262277" />
    <radialGradient
       inkscape:collect="always"
       xlink:href="#XMLID_52_"
       id="radialGradient9226"
       gradientUnits="userSpaceOnUse"
       gradientTransform="matrix(1,0,0,1.060381,0,-2.299514)"
       cx="34.376091"
       cy="37.50008"
       fx="34.376091"
       fy="37.50008"
       r="8.3887873" />
    <linearGradient
       inkscape:collect="always"
       xlink:href="#linearGradient2251"
       id="linearGradient9228"
       gradientUnits="userSpaceOnUse"
       x1="298.47852"
       y1="13.599585"
       x2="298.86948"
       y2="13.802949" />
    <linearGradient
       inkscape:collect="always"
       xlink:href="#linearGradient2259"
       id="linearGradient9230"
       gradientUnits="userSpaceOnUse"
       x1="298.47852"
       y1="13.599585"
       x2="298.86948"
       y2="13.802949" />
    <linearGradient
       inkscape:collect="always"
       xlink:href="#XMLID_52_"
       id="linearGradient9232"
       gradientUnits="userSpaceOnUse"
       gradientTransform="matrix(3.624438,0,0,3.624438,-1053.179,-16.8472)"
       x1="296.76199"
       y1="12.012225"
       x2="297.79822"
       y2="10.946587" />
    <linearGradient
       inkscape:collect="always"
       xlink:href="#radialGradient16850"
       id="linearGradient9234"
       gradientUnits="userSpaceOnUse"
       gradientTransform="matrix(1.161878,0,0,0.992497,-5.112111,6.400522e-2)"
       x1="39.619942"
       y1="44.540932"
       x2="-3.532515"
       y2="-11.889042" />
    <linearGradient
       inkscape:collect="always"
       xlink:href="#radialGradient16850"
       id="linearGradient9746"
       gradientUnits="userSpaceOnUse"
       gradientTransform="matrix(0.4056852,0,0,0.3465435,-1.9254976,-0.4046824)"
       x1="39.619942"
       y1="44.540932"
       x2="-3.532515"
       y2="-11.889042" />
    <linearGradient
       inkscape:collect="always"
       xlink:href="#XMLID_52_"
       id="linearGradient9749"
       gradientUnits="userSpaceOnUse"
       gradientTransform="matrix(1.2655207,0,0,1.2655207,-367.87199,-6.3094546)"
       x1="296.76199"
       y1="12.012225"
       x2="297.79822"
       y2="10.946587" />
    <radialGradient
       inkscape:collect="always"
       xlink:href="#XMLID_52_"
       id="radialGradient9753"
       gradientUnits="userSpaceOnUse"
       gradientTransform="matrix(0.3491633,0,0,0.3702461,-0.1405361,-1.2299366)"
       cx="34.376091"
       cy="37.50008"
       fx="34.376091"
       fy="37.50008"
       r="8.3887873" />
    <linearGradient
       inkscape:collect="always"
       xlink:href="#XMLID_52_"
       id="linearGradient9756"
       gradientUnits="userSpaceOnUse"
       gradientTransform="matrix(0.4056852,0,0,0.3465435,-1.0717431,-0.4046824)"
       x1="13.82536"
       y1="40.068752"
       x2="7.6700611"
       y2="2.3262277" />
    <linearGradient
       inkscape:collect="always"
       xlink:href="#XMLID_52_"
       id="linearGradient9759"
       gradientUnits="userSpaceOnUse"
       gradientTransform="matrix(0.4056852,0,0,0.3465435,-0.9892749,-0.3342367)"
       x1="7.184845"
       y1="31.056622"
       x2="25.152235"
       y2="50.774887" />
    <linearGradient
       inkscape:collect="always"
       xlink:href="#linearGradient2229"
       id="linearGradient9763"
       gradientUnits="userSpaceOnUse"
       x1="20.288025"
       y1="6.4603648"
       x2="24.32597"
       y2="23.942537"
       gradientTransform="matrix(0.3491633,0,0,0.3491633,-0.1405361,-0.4270307)" />
    <linearGradient
       inkscape:collect="always"
       xlink:href="#XMLID_897_"
       id="linearGradient9766"
       gradientUnits="userSpaceOnUse"
       gradientTransform="matrix(1.4153079,0,0,1.4443493,-410.59422,-4.5838023)"
       x1="292.97168"
       y1="4.7592773"
       x2="296.93979"
       y2="10.711433" />
    <linearGradient
       inkscape:collect="always"
       xlink:href="#XMLID_52_"
       id="linearGradient9769"
       gradientUnits="userSpaceOnUse"
       gradientTransform="matrix(1.2702187,0,0,1.2117276,-368.89748,-6.0161714)"
       x1="296.48611"
       y1="15.506916"
       x2="296.52905"
       y2="9.8769522" />
    <linearGradient
       inkscape:collect="always"
       xlink:href="#linearGradient2229"
       id="linearGradient9773"
       gradientUnits="userSpaceOnUse"
       x1="20.288025"
       y1="6.4603648"
       x2="24.32597"
       y2="23.942537"
       gradientTransform="matrix(0.3491633,0,0,0.3491633,-0.1405361,-0.4270307)" />
    <linearGradient
       inkscape:collect="always"
       xlink:href="#XMLID_897_"
       id="linearGradient9776"
       gradientUnits="userSpaceOnUse"
       gradientTransform="matrix(-1.4412627,0,0,1.4443493,434.38097,-4.5838023)"
       x1="292.97168"
       y1="4.7592773"
       x2="296.93979"
       y2="10.711433" />
  </defs>
  <sodipodi:namedview
     id="base"
     pagecolor="#ffffff"
     bordercolor="#000000"
     borderopacity="0.13333333"
     inkscape:pageopacity="0.0"
     inkscape:pageshadow="2"
     inkscape:zoom="26.027778"
     inkscape:cx="5.9829242"
     inkscape:cy="3.3779723"
     inkscape:current-layer="layer1"
     showgrid="true"
     inkscape:document-units="px"
     inkscape:grid-bbox="true"
     gridtolerance="0.5px"
     inkscape:window-width="1920"
     inkscape:window-height="1115"
     inkscape:window-x="-4"
     inkscape:window-y="-4"
     stroke="#a40000"
     inkscape:showpageshadow="true"
     borderlayer="true">
    <inkscape:grid
       id="GridFromPre046Settings"
       type="xygrid"
       originx="0px"
       originy="0px"
       spacingx="1px"
       spacingy="1px"
       color="#0000ff"
       empcolor="#0000ff"
       opacity="0.11372549"
       empopacity="0.17647059"
       empspacing="4"
       visible="true"
       enabled="true"
       dotted="false" />
  </sodipodi:namedview>
  <metadata
     id="metadata23888">
    <rdf:RDF>
      <cc:Work
         rdf:about="">
        <dc:format>image/svg+xml</dc:format>
        <dc:type
           rdf:resource="http://purl.org/dc/dcmitype/StillImage" />
        <dc:title>Edit Cut</dc:title>
        <dc:creator>
          <cc:Agent>
            <dc:title>Garrett Le Sage</dc:title>
          </cc:Agent>
        </dc:creator>
        <dc:subject>
          <rdf:Bag>
            <rdf:li>edit</rdf:li>
            <rdf:li>cut</rdf:li>
            <rdf:li>clipboard</rdf:li>
          </rdf:Bag>
        </dc:subject>
        <cc:license
           rdf:resource="http://creativecommons.org/licenses/by-nc-sa/2.0/" />
        <dc:contributor>
          <cc:Agent>
            <dc:title>Jakub Steiner</dc:title>
          </cc:Agent>
        </dc:contributor>
      </cc:Work>
      <cc:License
         rdf:about="http://creativecommons.org/licenses/by-nc-sa/2.0/">
        <cc:permits
           rdf:resource="http://web.resource.org/cc/Reproduction" />
        <cc:permits
           rdf:resource="http://web.resource.org/cc/Distribution" />
        <cc:requires
           rdf:resource="http://web.resource.org/cc/Notice" />
        <cc:requires
           rdf:resource="http://web.resource.org/cc/Attribution" />
        <cc:prohibits
           rdf:resource="http://web.resource.org/cc/CommercialUse" />
        <cc:permits
           rdf:resource="http://web.resource.org/cc/DerivativeWorks" />
        <cc:requires
           rdf:resource="http://web.resource.org/cc/ShareAlike" />
      </cc:License>
    </rdf:RDF>
  </metadata>
  <g
     id="layer1"
     inkscape:label="Layer 1"
     inkscape:groupmode="layer">
    <path
       style="fill:url(#linearGradient9776);stroke:#373836;stroke-width:0.5;stroke-linecap:round;stroke-linejoin:round;stroke-miterlimit:4;stroke-dasharray:none;stroke-opacity:1"
       d="M 11.791879,0.14035956 C 11.865884,0.16428974 11.937571,0.19087029 12.009751,0.21630338 C 12.237201,0.98341574 13.291698,1.7591582 12.890711,2.5230964 C 11.554866,4.7508934 10.228574,7.0082499 8.9027092,9.2536161 C 8.6423221,9.3049089 8.3796532,9.3328458 8.1164759,9.3390528 C 7.562566,9.3530927 6.9939396,9.2711423 6.4682282,9.0827425 C 8.2318073,6.0969515 9.9961288,3.1045756 11.791879,0.14035956 z"
       id="path16717" />
    <path
       style="fill:url(#linearGradient9773);fill-opacity:1;stroke:none;stroke-width:1.25;stroke-linecap:round;stroke-linejoin:round;stroke-miterlimit:4;stroke-dasharray:none;stroke-opacity:1"
       d="M 11.831862,1.0569133 C 11.751164,1.1642646 11.674873,1.3610143 11.592326,1.4606334 C 10.179313,3.8184385 8.742452,6.1722705 7.3242177,8.5202789 C 7.3030755,8.608658 7.0400236,8.8737337 7.3200134,8.8495269 C 7.7081283,8.9186194 8.1132241,8.971945 8.500125,8.8694422 C 9.8126263,6.698622 11.099952,4.5110399 12.409457,2.3394522 C 12.529035,2.2042305 12.552305,2.0163862 12.42669,1.8813567 C 12.241628,1.5962272 12.054154,1.2966077 11.864527,1.0241793 L 11.83989,1.0488688 L 11.831862,1.0569133 z"
       id="path16719" />
    <polygon
       style="fill:url(#linearGradient9212);fill-opacity:1;stroke:#9a0c00;stroke-width:0.28144068;stroke-linecap:round;stroke-linejoin:round;stroke-miterlimit:4;stroke-dasharray:none;stroke-opacity:1"
       id="polygon45129"
       points="297.04443,12.300293 296.39941,13.384766 295.13281,14.71875 294.73242,13.672852 295.74658,11.960449 297.04443,12.300293 "
       transform="matrix(1.2702187,0,0,1.2117276,-368.89748,-6.0161714)" />
    <path
       style="fill:url(#linearGradient9769);fill-opacity:1;stroke:none;stroke-width:1.00000012;stroke-linecap:round;stroke-linejoin:round;stroke-miterlimit:4;stroke-dasharray:none;stroke-opacity:1"
       d="M 6.9845775,8.989467 C 6.5577795,9.1594111 6.560687,9.7000769 6.3124458,10.024391 C 6.1929192,10.274321 5.9829093,10.494444 5.8934422,10.757106 C 5.8900626,10.937062 6.0498509,11.232047 6.2535168,11.073535 C 6.7370996,10.67328 7.1488993,10.187122 7.4561138,9.6325836 C 7.5372464,9.4614821 7.7339608,9.3203747 7.7592836,9.142226 C 7.571235,8.9429204 7.231063,8.9561132 6.9845775,8.989467 z"
       id="polygon16896" />
    <path
       style="fill:url(#linearGradient9766);stroke:#373836;stroke-width:0.5;stroke-linecap:round;stroke-linejoin:round;stroke-miterlimit:4;stroke-dasharray:none;stroke-opacity:1"
       d="M 4.3846548,0.14035956 C 4.3119824,0.16428974 4.2415873,0.19087029 4.1707064,0.21630338 C 3.9473522,0.98341574 2.9118452,1.7591582 3.3056113,2.5230964 C 4.6173994,4.7508934 5.9198075,7.0082499 7.2217952,9.2536161 C 7.4774934,9.3049089 7.7354322,9.3328458 7.99387,9.3390528 C 8.5378049,9.3530927 9.0961911,9.2711423 9.6124353,9.0827425 C 7.8806154,6.0969515 6.1480667,3.1045756 4.3846548,0.14035956 z"
       id="polygon45097" />
    <path
       style="fill:url(#linearGradient9763);fill-opacity:1;stroke:none;stroke-width:1.25;stroke-linecap:round;stroke-linejoin:round;stroke-miterlimit:4;stroke-dasharray:none;stroke-opacity:1"
       d="M 4.3007048,1.0569133 C 4.166963,1.4503084 3.7945364,1.7398643 3.7019554,2.15896 C 4.9968348,4.3915492 6.3105345,6.6174709 7.6045194,8.8476195 C 8.0229448,8.937808 8.4524418,8.8801465 8.8661703,8.7930627 C 8.8002577,8.5345272 8.6084176,8.3283504 8.5065381,8.0844183 C 7.1466856,5.7902318 5.7747892,3.4985676 4.4290084,1.1987609 C 4.4238893,1.1458244 4.353344,1.0297188 4.3007048,1.0569133 z"
       id="path16635" />
    <path
       sodipodi:type="arc"
       style="fill:url(#linearGradient9220);fill-opacity:1;fill-rule:nonzero;stroke:none;stroke-width:1.25;stroke-linecap:round;stroke-linejoin:round;marker:none;marker-start:none;marker-mid:none;marker-end:none;stroke-miterlimit:4;stroke-dasharray:none;stroke-dashoffset:0;stroke-opacity:1;visibility:visible;display:inline;overflow:visible"
       id="path16731"
       sodipodi:cx="23.207924"
       sodipodi:cy="23.843431"
       sodipodi:rx="0.98252523"
       sodipodi:ry="0.98252523"
       d="M 24.190449,23.843431 A 0.98252523,0.98252523 0 1 1 22.225399,23.843431 A 0.98252523,0.98252523 0 1 1 24.190449,23.843431 z"
       transform="matrix(0.3421427,0,0,0.3491633,-3.1812235e-2,-0.3662613)" />
    <path
       id="path45138"
       style="fill:url(#linearGradient9759);fill-opacity:1;stroke:#a40000;stroke-width:0.34916329;stroke-opacity:1"
       d="M 6.0397915,10.148055 C 7.1693386,10.750938 7.2604092,12.457043 6.2415887,13.958946 C 5.2227794,15.461733 3.4816313,16.191911 2.3515753,15.59168 C 1.2215089,14.988797 1.1309582,13.283576 2.1497781,11.781673 C 3.1680681,10.279771 4.9097357,9.5495927 6.0397915,10.148055 z M 5.39205,11.105512 C 4.8904689,10.83888 3.8182111,11.294241 3.1342409,12.304548 C 2.4488647,13.314854 2.497752,14.369331 2.9988617,14.635159 C 3.499962,14.903396 4.5731632,14.446429 5.2571333,13.436123 C 5.9429815,12.425817 5.893622,11.372143 5.39205,11.105512 z" />
    <path
       style="fill:url(#linearGradient9756);fill-opacity:1;stroke:none;stroke-opacity:1"
       d="M 4.8614028,10.251531 C 4.1892177,10.386735 3.5923831,10.759221 3.0992079,11.11789 C 2.8367198,11.360524 2.6650013,11.624149 2.430334,11.904977 C 1.8338489,12.726232 1.583879,13.805622 2.0557384,14.722609 C 2.2720287,15.229981 2.9784495,15.437501 3.5809591,15.308901 C 4.0879139,15.222146 4.5171763,14.903498 4.9121135,14.680791 C 5.2336587,14.404679 5.4547181,14.112873 5.7266734,13.776012 C 6.3584355,12.912042 6.7015063,11.768785 6.1798797,10.803835 C 5.9271881,10.405046 5.3996251,10.19392 4.8614028,10.251531 z M 5.0262124,10.587245 C 5.7303016,10.67466 6.1983445,11.29703 6.1164912,11.886784 C 6.1237444,12.685299 5.7163424,13.438498 5.1656668,14.06351 C 4.6708312,14.553031 3.9964533,15.016122 3.1879515,14.984016 C 2.7134897,14.983015 2.3385858,14.665476 2.2047702,14.299496 C 1.9894626,13.415442 2.2727583,12.461072 2.8912938,11.737337 C 3.3655407,11.205452 4.0068172,10.729267 4.8003488,10.605456 C 4.8756594,10.600123 4.9507962,10.590619 5.0262124,10.587245 z"
       id="path16771" />
    <path
       d="M 10.450203,10.148055 C 9.3206556,10.750938 9.2295854,12.457043 10.248406,13.958946 C 11.267215,15.461733 13.008363,16.191911 14.138419,15.59168 C 15.268486,14.988797 15.359036,13.283576 14.340216,11.781673 C 13.321926,10.279771 11.580259,9.5495927 10.450203,10.148055 z M 11.097945,11.105512 C 11.599525,10.83888 12.671784,11.294241 13.355754,12.304548 C 14.04113,13.314854 13.992242,14.369331 13.491133,14.635159 C 12.990033,14.903396 11.916831,14.446429 11.232861,13.436123 C 10.547013,12.425817 10.596373,11.372143 11.097945,11.105512 z"
       style="fill:url(#radialGradient9753);fill-opacity:1;stroke:#a40000;stroke-width:0.34916329;stroke-opacity:1"
       id="path11967" />
    <polygon
       style="fill:url(#linearGradient9228);fill-opacity:1;stroke:url(#linearGradient9230);stroke-width:0.27590489;stroke-linecap:round;stroke-linejoin:round;stroke-miterlimit:4;stroke-dasharray:none;stroke-opacity:1"
       id="polygon45101"
       points="296.95605,12.300293 297.6001,13.384766 298.86719,14.71875 299.26807,13.672852 298.25391,11.960449 296.95605,12.300293 "
       transform="matrix(1.2655207,0,0,1.2655207,-367.87199,-6.3094546)" />
    <path
       style="fill:url(#linearGradient9749);fill-opacity:1;stroke:none;stroke-width:0.27590489;stroke-linecap:round;stroke-linejoin:round;stroke-miterlimit:4;stroke-dasharray:none;stroke-opacity:1"
       d="M 8.9922665,9.327719 C 8.8432617,9.39714 8.6372323,9.3980688 8.5230783,9.5023006 C 8.8547904,9.9916143 9.1829662,10.519993 9.5185006,10.973178 C 9.7519351,11.236637 9.9919014,11.497002 10.257983,11.728217 C 10.514715,11.242382 10.305176,10.659355 9.9742882,10.266095 C 9.7639051,9.9519556 9.6845449,9.5283266 9.3305184,9.3604531 C 9.2243557,9.3191083 9.1033475,9.2983449 8.9922665,9.327719 z"
       id="polygon16860" />
    <path
       style="fill:url(#linearGradient9746);fill-opacity:1;stroke:none;stroke-opacity:1"
       d="M 11.130486,10.204675 C 10.599623,10.284896 10.119677,10.583746 9.9990401,11.038464 C 9.6040861,11.874868 9.9240133,12.823916 10.445892,13.561816 C 10.830644,14.031511 11.123293,14.584834 11.716701,14.879547 C 12.230199,15.202043 12.883305,15.539667 13.538509,15.33377 C 14.066903,15.182425 14.366261,14.746978 14.474327,14.296107 C 14.685372,13.48953 14.371081,12.663433 13.878317,11.978891 C 13.648332,11.659858 13.412887,11.321344 13.140424,11.03802 C 12.723327,10.722567 12.219361,10.461366 11.712751,10.258564 C 11.526263,10.220012 11.323355,10.1773 11.130486,10.204675 z M 11.282618,10.627025 C 11.896204,10.603709 12.411991,10.885217 12.810686,11.244683 C 13.171126,11.583067 13.516573,11.874994 13.740337,12.291781 C 14.116449,12.927456 14.224927,13.681436 14.03367,14.374027 C 13.849179,14.836498 13.256379,15.06259 12.70995,14.93843 C 12.01795,14.858532 11.586573,14.354973 11.12944,13.957854 C 10.603688,13.458065 10.277264,12.743246 10.252837,12.04361 C 10.257764,11.688277 10.243595,11.282985 10.496603,10.984398 C 10.640553,10.79475 10.97845,10.616266 11.282618,10.627025 z"
       id="path16795" />
  </g>
</svg>
