<?xml version="1.0" encoding="UTF-8" standalone="no"?>
<svg
   xmlns:dc="http://purl.org/dc/elements/1.1/"
   xmlns:cc="http://creativecommons.org/ns#"
   xmlns:rdf="http://www.w3.org/1999/02/22-rdf-syntax-ns#"
   xmlns:svg="http://www.w3.org/2000/svg"
   xmlns="http://www.w3.org/2000/svg"
   xmlns:xlink="http://www.w3.org/1999/xlink"
   xmlns:sodipodi="http://sodipodi.sourceforge.net/DTD/sodipodi-0.dtd"
   xmlns:inkscape="http://www.inkscape.org/namespaces/inkscape"
   viewBox="0 0 16 16"
   version="1.1"
   id="svg128"
   sodipodi:docname="debug.svg"
   inkscape:version="1.0.1 (3bc2e813f5, 2020-09-07)"
   width="16"
   height="16">
  <metadata
     id="metadata132">
    <rdf:RDF>
      <cc:Work
         rdf:about="">
        <dc:format>image/svg+xml</dc:format>
        <dc:type
           rdf:resource="http://purl.org/dc/dcmitype/StillImage" />
        <dc:title>18-Bug</dc:title>
      </cc:Work>
    </rdf:RDF>
  </metadata>
  <sodipodi:namedview
     pagecolor="#ffffff"
     bordercolor="#666666"
     borderopacity="1"
     objecttolerance="10"
     gridtolerance="10"
     guidetolerance="10"
     inkscape:pageopacity="0"
     inkscape:pageshadow="2"
     inkscape:window-width="2560"
     inkscape:window-height="1377"
     id="namedview130"
     showgrid="false"
     inkscape:zoom="31.156846"
     inkscape:cx="9.788091"
     inkscape:cy="8.1396937"
     inkscape:window-x="-8"
     inkscape:window-y="-8"
     inkscape:window-maximized="1"
     inkscape:current-layer="svg128"
     inkscape:document-rotation="0" />
  <defs
     id="defs63">
    <style
       id="style2">.cls-1{fill:#d0d0d0;}.cls-2{fill:url(#radial-gradient);}.cls-19,.cls-3{fill:none;stroke:#3465a4;stroke-linecap:round;stroke-linejoin:round;}.cls-3{stroke-width:1.4px;}.cls-4{fill:url(#New_Gradient_Swatch_4);}.cls-5{fill:#204a87;}.cls-6{fill:url(#linear-gradient);}.cls-7{fill:url(#linear-gradient-2);}.cls-8{fill:url(#linear-gradient-3);}.cls-9{fill:url(#linear-gradient-4);}.cls-10{fill:url(#linear-gradient-5);}.cls-11{fill:url(#linear-gradient-6);}.cls-12{fill:url(#linear-gradient-7);}.cls-13{fill:url(#linear-gradient-8);}.cls-14{fill:url(#linear-gradient-9);}.cls-15{fill:url(#linear-gradient-10);}.cls-16{fill:url(#linear-gradient-11);}.cls-17{fill:url(#linear-gradient-12);}.cls-18{fill:url(#linear-gradient-13);}.cls-19{stroke-width:0.35px;}.cls-20{fill:#fff;}.cls-21{opacity:0.89;}.cls-22{fill:#555753;}.cls-23{fill:#2e3436;}</style>
    <radialGradient
       id="radial-gradient"
       cx="-17.65"
       cy="85.730003"
       r="20.790001"
       gradientTransform="matrix(1.12,0,0,0.41,43.84,1.04)"
       gradientUnits="userSpaceOnUse">
      <stop
         offset="0.03"
         stop-color="#2c2c2c"
         stop-opacity="0.5"
         id="stop4" />
      <stop
         offset="0.68"
         stop-color="#2c2c2c"
         stop-opacity="0.1"
         id="stop6" />
      <stop
         offset="0.93"
         stop-color="#2c2c2c"
         stop-opacity="0"
         id="stop8" />
    </radialGradient>
    <linearGradient
       id="New_Gradient_Swatch_4"
       x1="3.8199999"
       y1="35.619999"
       x2="27.440001"
       y2="35.619999"
       gradientUnits="userSpaceOnUse"
       gradientTransform="matrix(0.38096963,0,0,0.42400622,-1.0924528,-2.9948715)">
      <stop
         offset="0"
         stop-color="#b2cbe5"
         id="stop11" />
      <stop
         offset="1"
         stop-color="#3465a4"
         id="stop13" />
    </linearGradient>
    <linearGradient
       id="linear-gradient"
       x1="27.309999"
       y1="34.650002"
       x2="41.189999"
       y2="34.650002"
       gradientUnits="userSpaceOnUse">
      <stop
         offset="0"
         stop-color="#00255d"
         stop-opacity="0"
         id="stop16" />
      <stop
         offset="1"
         stop-color="#00255d"
         id="stop18" />
    </linearGradient>
    <linearGradient
       id="linear-gradient-2"
       x1="41.360001"
       y1="21.549999"
       x2="43.799999"
       y2="21.549999"
       xlink:href="#linear-gradient"
       gradientTransform="matrix(0.38096963,0,0,0.42400622,-1.0924528,-2.9948715)" />
    <linearGradient
       id="linear-gradient-3"
       x1="27.75"
       y1="14.98"
       x2="39.560001"
       y2="38.66"
       gradientUnits="userSpaceOnUse">
      <stop
         offset="0"
         stop-color="#d0dfef"
         id="stop22" />
      <stop
         offset="1"
         stop-color="#5681b6"
         id="stop24" />
    </linearGradient>
    <linearGradient
       id="linear-gradient-4"
       x1="27.959999"
       y1="23.84"
       x2="40.98"
       y2="10.37"
       gradientUnits="userSpaceOnUse"
       gradientTransform="matrix(0.38096963,0,0,0.42400622,-1.0924528,-2.9948715)">
      <stop
         offset="0"
         stop-color="#fff"
         stop-opacity="0"
         id="stop27" />
      <stop
         offset="1"
         stop-color="snow"
         id="stop29" />
    </linearGradient>
    <linearGradient
       id="linear-gradient-5"
       x1="30.27"
       y1="27.35"
       x2="30.73"
       y2="13.23"
       gradientUnits="userSpaceOnUse">
      <stop
         offset="0"
         stop-color="#eeeeec"
         id="stop32" />
      <stop
         offset="0.83"
         stop-color="#fce94f"
         id="stop34" />
      <stop
         offset="1"
         stop-color="#edd400"
         id="stop36" />
    </linearGradient>
    <linearGradient
       id="linear-gradient-6"
       x1="3.9200001"
       y1="32.540001"
       x2="41.189999"
       y2="32.540001"
       xlink:href="#linear-gradient-3"
       gradientTransform="matrix(0.38096963,0,0,0.42400622,-1.0924528,-2.9948715)" />
    <linearGradient
       id="linear-gradient-7"
       x1="20.82"
       y1="25.77"
       x2="5.77"
       y2="51.349998"
       gradientUnits="userSpaceOnUse"
       gradientTransform="matrix(0.38096963,0,0,0.42400622,-1.0924528,-2.9948715)">
      <stop
         offset="0"
         stop-color="#fff"
         stop-opacity="0"
         id="stop40" />
      <stop
         offset="0.08"
         stop-color="#fff"
         stop-opacity="0.08"
         id="stop42" />
      <stop
         offset="1"
         stop-color="snow"
         id="stop44" />
    </linearGradient>
    <linearGradient
       id="linear-gradient-8"
       x1="21.02"
       y1="39.169998"
       x2="24.98"
       y2="25.01"
       gradientUnits="userSpaceOnUse">
      <stop
         offset="0"
         stop-color="#d0dfef"
         id="stop47" />
      <stop
         offset="1"
         stop-color="#ad7fa8"
         id="stop49" />
    </linearGradient>
    <linearGradient
       id="linear-gradient-9"
       x1="16.84"
       y1="31.98"
       x2="26.43"
       y2="18.889999"
       gradientUnits="userSpaceOnUse">
      <stop
         offset="0"
         stop-color="#ad7fa8"
         id="stop52" />
      <stop
         offset="1"
         stop-color="#5c3566"
         id="stop54" />
      <stop
         offset="1"
         stop-color="#755076"
         id="stop56" />
    </linearGradient>
    <linearGradient
       id="linear-gradient-10"
       x1="16.889999"
       y1="32.009998"
       x2="26.469999"
       y2="18.92"
       xlink:href="#linear-gradient-9" />
    <linearGradient
       id="linear-gradient-11"
       x1="21.48"
       y1="35.369999"
       x2="31.059999"
       y2="22.280001"
       xlink:href="#linear-gradient-9" />
    <linearGradient
       id="linear-gradient-12"
       x1="21.959999"
       y1="35.73"
       x2="31.549999"
       y2="22.639999"
       xlink:href="#linear-gradient-9" />
    <linearGradient
       id="linear-gradient-13"
       x1="26.82"
       y1="39.279999"
       x2="36.400002"
       y2="26.190001"
       xlink:href="#linear-gradient-9" />
  </defs>
  <title
     id="title65">18-Bug</title>
  <path
     class="cls-3"
     d="M 0.43142572,10.878612 5.7116648,9.2249878 a 0.49907022,0.55544815 0 0 1 0.1828654,-0.0212 L 14.580638,10.0518 c 0,0 0.02286,0 0,0.03392 v 0 l -0.0381,0.534248 a 0.30096601,0.33496491 0 0 1 -0.175246,0.267124 l -4.7506915,2.319314 v 0 a 1.0514762,1.1702572 0 0 1 -0.3047757,0.09328 1.0819537,1.2041777 0 0 1 -0.2704884,0 h -0.057146 v 0 L 0.54571661,11.667264 A 0.25143996,0.27984411 0 0 1 0.36285119,11.353499 l 0.038097,-0.449447 c 0,0 0,-0.01696 0.0304775,-0.02544 z"
     id="path73"
     style="stroke-width:0.750001;stroke-miterlimit:4;stroke-dasharray:none;stroke:#2e3436" />
  <path
     class="cls-3"
     d="M 15.468297,2.4705687 15.197809,2.2840059 a 0.18286542,0.20352299 0 0 0 -0.06476,0 L 6.5269398,2.0253621 A 0.16762664,0.18656274 0 0 0 6.3593132,2.1949646 L 5.8107169,9.038425 A 0.14095876,0.1568823 0 0 0 5.9402466,9.2080275 L 14.500634,10.05604 a 0.19429451,0.21624317 0 0 0 0.163817,-0.080561 v 0 L 14.904462,9.7973962 A 0.38096963,0.42400622 0 0 0 15.06066,9.5048319 l 0.529547,-6.7162586 a 0.27810783,0.30952454 0 0 0 -0.12191,-0.3180046 z"
     id="path75"
     style="stroke-width:0.750001;stroke-miterlimit:4;stroke-dasharray:none;stroke:#2e3436" />
  <path
     class="cls-4"
     d="m 8.9841939,13.295447 v 0 h 0.057146 a 1.0819537,1.2041777 0 0 0 0.2704884,0 l 0.049526,-0.992174 -0.3543017,0.06784 -8.60610395,-1.467062 -0.038097,0.449447 a 0.25143996,0.27984411 0 0 0 0.18286542,0.313765 z"
     id="path77"
     style="fill:#d3d7cf;stroke-width:0.750001;stroke-miterlimit:4;stroke-dasharray:none" />
  <path
     class="cls-5"
     d="m 9.3613538,12.307513 -0.049526,0.992175 a 1.0514762,1.1702572 0 0 0 0.3047757,-0.09328 v 0 l 4.7697395,-2.315074 a 0.30096601,0.33496491 0 0 0 0.175246,-0.267124 l 0.0381,-0.534248 z"
     id="path79"
     style="stroke-width:0.750001;stroke-miterlimit:4;stroke-dasharray:none" />
  <path
     class="cls-6"
     d="m 9.3613538,12.307513 -0.049526,0.992175 a 1.0514762,1.1702572 0 0 0 0.3047757,-0.09328 v 0 l 4.7697395,-2.315074 a 0.30096601,0.33496491 0 0 0 0.175246,-0.267124 l 0.0381,-0.534248 z"
     id="path81"
     style="fill:#888a85;stroke-width:0.750001;stroke-miterlimit:4;stroke-dasharray:none" />
  <path
     class="cls-5"
     d="M 15.590207,2.7885733 15.06066,9.5048319 a 0.38096963,0.42400622 0 0 1 -0.156198,0.2925643 l -0.240011,0.1780826 0.571455,-7.6660325 0.232391,0.1611224 a 0.27810783,0.30952454 0 0 1 0.12191,0.3180046 z"
     id="path83"
     style="stroke-width:0.750001;stroke-miterlimit:4;stroke-dasharray:none" />
  <path
     class="cls-7"
     d="M 15.590207,2.7885733 15.06066,9.5048319 a 0.38096963,0.42400622 0 0 1 -0.156198,0.2925643 l -0.240011,0.1780826 0.571455,-7.6660325 0.232391,0.1611224 a 0.27810783,0.30952454 0 0 1 0.12191,0.3180046 z"
     id="path85"
     style="fill:#babdb6;stroke-width:0.750001;stroke-miterlimit:4;stroke-dasharray:none" />
  <path
     class="cls-8"
     d="M 14.500634,10.0518 5.9402466,9.2037874 A 0.14095876,0.1568823 0 0 1 5.8107169,9.034185 L 6.3516938,2.1907246 A 0.16762664,0.18656274 0 0 1 6.5193204,2.0211221 l 8.6137236,0.2374435 a 0.16762664,0.18656274 0 0 1 0.160007,0.1992829 L 14.706358,9.8609971 A 0.19429451,0.21624317 0 0 1 14.500634,10.0518 Z"
     id="path87"
     style="fill:#d3d7cf;stroke-width:0.750001;stroke-miterlimit:4;stroke-dasharray:none" />
  <path
     class="cls-9"
     d="M 15.289241,2.4620886 14.706358,9.8609971 6.3516938,2.1949646 A 0.16762664,0.18656274 0 0 1 6.5193204,2.0253621 l 8.6137236,0.2374435 a 0.16762664,0.18656274 0 0 1 0.156197,0.199283 z"
     id="path89"
     style="fill:#eeeeec;stroke-width:0.750001;stroke-miterlimit:4;stroke-dasharray:none" />
  <polygon
     class="cls-10"
     points="40.55,29.73 18.98,27.9 20.32,12.78 41.99,13.39 "
     id="polygon91"
     style="fill:#2e3436;stroke-width:1.86608;stroke-miterlimit:4;stroke-dasharray:none"
     transform="matrix(0.38096963,0,0,0.42400622,-1.0924528,-2.9948715)" />
  <path
     class="cls-11"
     d="M 9.0870557,12.392314 0.43142572,10.959173 a 0.03809696,0.04240062 0 0 1 0,-0.08056 L 5.7116648,9.2249878 a 0.49907022,0.55544815 0 0 1 0.1828654,-0.0212 L 14.580638,10.0518 a 0.02666787,0.02968044 0 0 1 0,0.05512 l -4.983083,2.217552 a 1.0171889,1.1320966 0 0 1 -0.5104993,0.06784 z"
     id="path93"
     style="fill:#d3d7cf;stroke-width:0.750001;stroke-miterlimit:4;stroke-dasharray:none" />
  <path
     class="cls-12"
     d="m 9.3461151,12.392314 a 0.98290165,1.093936 0 0 1 -0.2590594,0 L 0.43142572,10.959173 a 0.03809696,0.04240062 0 0 1 0,-0.08056 L 5.7116648,9.2249878 a 0.25524965,0.28408417 0 0 1 0.091433,0 z"
     id="path95"
     style="fill:#eeeeec;stroke-width:0.750001;stroke-miterlimit:4;stroke-dasharray:none" />
  <polygon
     class="cls-13"
     points="27.94,34.49 9.86,32.08 18.62,29.54 36.38,31.22 "
     id="polygon97"
     style="fill:#ffffff;stroke-width:1.86608;stroke-miterlimit:4;stroke-dasharray:none"
     transform="matrix(0.38096963,0,0,0.42400622,-1.0924528,-2.9948715)" />
  <polygon
     class="cls-14"
     points="17.55,31.1 14.45,30.75 18.62,29.54 21.71,29.83 "
     id="polygon99"
     style="fill:#888a85;stroke-width:1.86608;stroke-miterlimit:4;stroke-dasharray:none"
     transform="matrix(0.38096963,0,0,0.42400622,-1.0924528,-2.9948715)" />
  <polygon
     class="cls-15"
     points="16.29,32.94 12.96,32.49 17.55,31.1 20.87,31.47 "
     id="polygon101"
     style="fill:#888a85;stroke-width:1.86608;stroke-miterlimit:4;stroke-dasharray:none"
     transform="matrix(0.38096963,0,0,0.42400622,-1.0924528,-2.9948715)" />
  <polygon
     class="cls-16"
     points="24.43,31.87 20.87,31.47 25.01,30.14 28.53,30.48 "
     id="polygon103"
     style="fill:#888a85;stroke-width:1.86608;stroke-miterlimit:4;stroke-dasharray:none"
     transform="matrix(0.38096963,0,0,0.42400622,-1.0924528,-2.9948715)" />
  <polygon
     class="cls-17"
     points="23.74,33.93 19.87,33.41 24.43,31.87 28.26,32.3 "
     id="polygon105"
     style="fill:#888a85;stroke-width:1.86608;stroke-miterlimit:4;stroke-dasharray:none"
     transform="matrix(0.38096963,0,0,0.42400622,-1.0924528,-2.9948715)" />
  <polygon
     class="cls-18"
     points="32.4,32.76 28.26,32.3 32.32,30.84 36.38,31.22 "
     id="polygon107"
     style="fill:#888a85;stroke-width:1.86608;stroke-miterlimit:4;stroke-dasharray:none"
     transform="matrix(0.38096963,0,0,0.42400622,-1.0924528,-2.9948715)" />
  <path
     class="cls-22"
     d="M 13.087674,8.4508813 C 12.77653,8.1615129 12.623089,7.8531696 12.435549,7.7013698 a 0.71605863,0.79694886 0 0 0 -0.30262,-0.147056 0.9675316,1.0768297 0 0 0 -0.349504,0 A 1.6367055,1.8215974 0 0 0 11.118513,8.0286881 1.8114578,2.0160908 0 0 1 10.628354,8.3465189 1.4278551,1.5891539 0 0 1 10.0359,8.4271625 1.3468722,1.4990229 0 0 1 9.4732829,8.2374128 1.4832643,1.6508226 0 0 1 9.0470575,7.8436821 C 8.8382071,7.5638012 8.6932904,7.3455891 8.4887023,7.2649454 A 0.85245075,0.94874865 0 0 0 7.828053,7.2934075 C 7.6192026,7.4072577 7.4231388,7.6776511 7.1119943,7.8721446 L 6.9031439,7.4689264 C 7.1034698,7.3266141 7.2824845,7.051477 7.6021535,6.8380085 a 1.2786761,1.423123 0 0 1 0.5413062,-0.1850059 1.4065438,1.5654352 0 0 1 0.5583552,0.085387 1.9350632,2.1536594 0 0 1 0.7927792,0.7305365 0.8013037,0.89182372 0 0 0 0.6009779,0.3605244 0.85245075,0.94874865 0 0 0 0.647863,-0.2703933 2.1311268,2.3718716 0 0 1 0.920646,-0.6309179 1.6324432,1.8168536 0 0 1 0.609503,0 1.3724457,1.5274853 0 0 1 0.579667,0.2703935 c 0.32393,0.2751371 0.485896,0.5929678 0.68196,0.7447676 z"
     id="path113"
     style="opacity:0.89;fill:#eeeeec;stroke-width:0.839094;stroke-miterlimit:4;stroke-dasharray:none" />
  <polygon
     class="cls-22"
     points="36.39,21.68 37.28,20.85 35.7,18.85 37.62,17.02 36.88,16.11 34.99,17.93 33.43,15.97 32.58,16.81 34.11,18.77 32.24,20.56 32.95,21.47 34.83,19.69 "
     id="polygon115"
     style="opacity:0.89;fill:#eeeeec;stroke-width:1.86608;stroke-miterlimit:4;stroke-dasharray:none"
     transform="matrix(0.42622538,0,0,0.47437432,-2.6643861,-4.069475)" />
  <polygon
     class="cls-23"
     points="34.99,17.93 36.88,16.11 37.62,17.02 35.7,18.85 34.11,18.77 32.58,16.81 33.43,15.97 "
     id="polygon117"
     style="opacity:0.89;fill:#ffffff;stroke-width:1.86608;stroke-miterlimit:4;stroke-dasharray:none"
     transform="matrix(0.42622538,0,0,0.47437432,-2.6643861,-4.069475)" />
  <polygon
     class="cls-22"
     points="24.55,18.29 26.03,18.37 27.49,20.29 26.66,21.09 25.21,19.17 23.46,20.89 22.82,20.02 "
     id="polygon119"
     style="opacity:0.89;fill:#eeeeec;stroke-width:1.86608;stroke-miterlimit:4;stroke-dasharray:none"
     transform="matrix(0.42622538,0,0,0.47437432,-2.279238,-4.069475)" />
  <polygon
     class="cls-23"
     points="25.36,17.48 27.14,15.73 27.81,16.6 26.03,18.37 24.55,18.29 23.13,16.41 23.93,15.6 "
     id="polygon121"
     style="opacity:0.89;fill:#ffffff;stroke-width:1.86608;stroke-miterlimit:4;stroke-dasharray:none"
     transform="matrix(0.42622538,0,0,0.47437432,-2.279238,-4.069475)" />
  <path
     class="cls-23"
     d="M 10.0359,8.417675 A 1.3468722,1.4990229 0 0 1 9.4732829,8.2279254 1.4832643,1.6508226 0 0 1 9.0470575,7.8341946 C 8.8382071,7.5543138 8.6932904,7.3361016 8.4887023,7.255458 A 0.85245075,0.94874865 0 0 0 7.828053,7.28392 C 7.6192026,7.3977703 7.4231388,7.6681636 7.1119943,7.8626571 L 6.9031439,7.4689264 C 7.1034698,7.3266141 7.2824845,7.051477 7.6021535,6.8380085 a 1.2786761,1.423123 0 0 1 0.5413062,-0.1850059 1.4065438,1.5654352 0 0 1 0.5583552,0.085387 1.9350632,2.1536594 0 0 1 0.7927792,0.7305365 0.8013037,0.89182372 0 0 0 0.6009779,0.3605245"
     id="path123"
     style="opacity:0.89;fill:#ffffff;stroke-width:0.839094;stroke-miterlimit:4;stroke-dasharray:none" />
</svg>
