<?xml version="1.0" encoding="UTF-8"?>
<svg width="16px" height="16px" viewBox="0 0 16 16" version="1.1" xmlns="http://www.w3.org/2000/svg" xmlns:xlink="http://www.w3.org/1999/xlink">
    <!-- Generator: Sketch 40.3 (33839) - http://www.bohemiancoding.com/sketch -->
    <title>world</title>
    <desc>Created with Sketch.</desc>
    <defs>
        <radialGradient cx="31.1475764%" cy="36.1986212%" fx="31.1475764%" fy="36.1986212%" r="64.4455906%" id="radialGradient-1">
            <stop stop-color="#FFFFFF" offset="0%"></stop>
            <stop stop-color="#B9B7B7" offset="100%"></stop>
        </radialGradient>
    </defs>
    <g id="Page-1" stroke="none" stroke-width="1" fill="none" fill-rule="evenodd">
        <g id="world">
            <path d="M8,1.5 C4.41145833,1.5 1.5,4.41145833 1.5,8 C1.5,11.5885417 4.41145833,14.5 8,14.5 C11.5885417,14.5 14.5,11.5885417 14.5,8 C14.5,4.41145833 11.5885417,1.5 8,1.5 L8,1.5 Z" id="Path" fill="url(#radialGradient-1)"></path>
            <path d="M8.30230146,14.3474418 C8.29069637,14.2894163 8.27909128,14.1733654 8.27909128,14.1617603 C8.26748618,13.9760788 8.46477276,13.8484228 8.45316767,13.6743464 C8.32551165,13.6395311 8.29069637,13.5118751 8.31390655,13.372614 C8.33711674,13.1753274 8.51119313,13.0360663 8.65045424,12.9084103 C8.78971535,12.7807542 8.82453063,12.5138371 8.78971535,12.3513658 C8.73168989,12.0728436 8.73168989,11.7827163 8.68526952,11.5041941 C8.69687461,11.5738246 8.89416119,11.5506144 8.92897647,11.6434552 C8.97539684,11.5622195 8.99860702,11.4577737 9.05663249,11.376538 C9.10305286,11.3069075 9.18428851,11.2836973 9.25391906,11.2256718 C9.36996999,11.1560413 9.61367693,10.8891241 9.75293805,11.0515954 C9.86898897,11.1908565 9.57886166,11.3417228 9.72972786,11.4693788 C9.77614823,11.376538 9.72972786,11.2372769 9.8225686,11.1444362 C10.0082501,10.9355445 10.1359061,11.1676464 10.3215876,11.2256718 C10.5188742,11.2836973 10.5885047,11.3533278 10.7393709,11.4809839 C10.6929506,11.4345635 10.9250524,11.3533278 10.9482626,11.3417228 C11.1687594,11.2953024 11.2616001,11.4229584 11.4124663,11.5390093 C11.5749376,11.6550603 11.8302496,11.7362959 11.8070394,11.9683978 C11.9230904,11.9916079 11.9927209,12.0264232 12.0855617,12.0612385 C12.1784024,12.1076589 12.3060584,12.0844487 12.375689,12.1540792 C11.3080205,13.2797732 9.89219916,14.0689195 8.30230146,14.3474418 L8.30230146,14.3474418 Z" id="Path" fill="#000000"></path>
            <path d="M11.0467698,5.82080724 C11.1573588,5.75043241 11.3383227,5.65995048 11.4790724,5.70016467 C11.5896614,5.73032531 11.6801433,5.7705395 11.5494472,5.86102143 C11.4891259,5.90123562 11.398644,5.86102143 11.3282691,5.88112853 C11.4187511,5.90123562 11.5494472,5.94144981 11.509233,6.03193174 C11.7706252,6.18273496 11.4288046,6.36369882 11.2578943,6.34359172 C11.3383227,6.35364527 11.086984,6.50444848 11.086984,6.49439494 C10.9965021,6.54466268 10.8758595,6.54466268 10.8054847,6.6351446 C10.7250563,6.74573363 10.8356453,6.93675103 10.6848421,6.89653684 C10.6245208,7.02723296 10.3932892,6.95685813 10.2927537,7.0976078 C10.4033427,7.21825037 10.1821647,7.38916068 10.0715757,7.23835747 C9.9710402,7.27857166 10.0213079,7.38916068 9.92077246,7.44948197 C9.96098665,7.50980325 9.9710402,7.57012454 9.90066536,7.61033873 C9.92077246,7.60028518 10.041415,7.70082066 10.0715757,7.71087421 C10.0514686,7.76114194 10.0112544,7.80135614 9.96098665,7.80135614 C10.0112544,7.93205226 9.90066536,8.07280192 9.81018344,8.1532303 C9.70964796,8.23365869 9.47841636,8.31408707 9.44825572,8.33419416 C9.26729186,8.50510447 9.14664929,8.75644317 9.46836281,8.826818 C9.47841636,8.826818 9.47841636,9.15858507 9.48846991,9.16863862 C9.50857701,9.28928119 9.55884474,9.64115536 9.34772024,9.51045924 C9.24718477,9.4601915 9.18686348,9.17869217 9.15670284,9.06810314 C9.12654219,8.94746057 9.11648865,8.94746057 9.03606026,8.826818 C8.90536414,8.97762121 8.88525705,8.86703219 8.77466802,8.79665736 C8.664079,8.73633607 8.50322224,8.75644317 8.44290095,8.69612188 C8.29209774,8.8067109 8.18150871,8.77655026 8.15134807,8.60563995 C8.11113388,8.68606833 8.19156226,8.8067109 8.18150871,8.83687155 C8.13124097,8.93740702 8.04075904,8.91729993 7.96033066,8.85697864 C7.82963454,8.75644317 7.54813521,8.92735348 7.39733199,8.85697864 C7.40738554,8.85697864 7.44759973,8.89719283 7.47776037,8.91729993 C7.44759973,9.0379425 7.3772249,8.96756767 7.31690361,9.00778186 C7.24652878,9.0580496 7.18620749,9.15858507 7.1258862,9.20885281 C7.25658232,9.4601915 7.11583266,9.70147665 7.1258862,9.97292243 C7.1258862,10.1739934 7.25658232,10.5258676 7.44759973,10.6364566 C7.53808166,10.6867243 7.83968809,10.7068314 7.93017002,10.6666172 C8.07091969,10.6062959 8.05081259,10.4957069 8.10108033,10.3750643 C8.15134807,10.2443682 8.21166935,10.1840469 8.36247257,10.1739934 C8.79477512,10.1538863 8.46300805,10.5057605 8.41274031,10.6867243 C8.38257966,10.8174204 8.37252612,10.9682237 8.35241902,11.0888662 C8.40268676,11.1089733 8.4529545,11.0989198 8.50322224,11.0989198 C8.50322224,11.0587056 8.53338288,11.0084378 8.53338288,10.9782772 C8.59370417,11.0788127 8.79477512,11.1089733 8.85509641,10.9883308 C8.92547124,11.1089733 9.06622091,11.1994553 9.086328,11.3402049 C9.1064351,11.4809546 9.23713122,11.6317578 9.04611381,11.6317578 C8.90536414,11.6317578 9.06622091,11.9132571 9.086328,11.9635249 C9.19691703,12.1645958 9.37788089,12.2450242 9.57895184,12.1444887 C9.57895184,12.2249171 9.5487912,12.4460952 9.43820217,12.4662023 C9.33766669,12.4863094 9.14664929,12.2751849 9.18686348,12.1645958 C9.17680993,12.20481 9.14664929,12.2349707 9.11648865,12.2550778 C9.01595317,12.1344352 8.84504286,12.0741139 8.75456093,11.9534713 C8.73445383,11.9233107 8.46300805,11.5111152 8.52332933,11.4910081 C8.38257966,11.5513294 8.10108033,11.4507939 7.97038421,11.3804191 C7.75925971,11.2698301 7.72909907,10.9782772 7.46770683,11.0184914 C7.28674297,11.048652 7.23647523,11.1190269 7.02535073,11.0385985 C6.88460106,10.9883308 6.76395849,10.8877953 6.62320882,10.8174204 C6.46235206,10.7269385 6.18085272,10.6364566 6.12053144,10.4353856 C6.06021015,10.2745289 6.08031725,10.0835115 5.98983532,9.93270824 C5.92951403,9.83217277 5.74855017,9.63110181 5.61785405,9.63110181 C5.73849662,9.63110181 5.50726503,9.32949538 5.47710438,9.29933474 C5.36651536,9.16863862 4.96437345,8.81676445 5.04480183,8.6156935 C5.06490893,8.58553285 4.84373088,8.50510447 4.80351669,8.49505093 C4.84373088,8.5955864 4.85378443,8.70617543 4.90405217,8.79665736 C4.95431991,8.89719283 5.01464119,8.98767476 5.07496248,9.08821024 C5.1855515,9.2691741 5.33635472,9.49035215 5.31624762,9.7115302 C5.1855515,9.75174439 5.22576569,9.56072698 5.1855515,9.4802986 C5.11517667,9.34960248 4.92415926,9.34960248 4.87389152,9.20885281 C4.89399862,9.19879926 4.90405217,9.19879926 4.92415926,9.18874572 C4.93421281,9.0178354 4.68287412,8.87708574 4.72308831,8.75644317 C4.58233864,8.64585414 4.58233864,8.43472964 4.48180316,8.29397997 C4.39132124,8.16328385 4.24051802,8.10296257 4.1098219,8.01248064 C4.05955416,7.98231999 3.69762644,7.5198568 3.82832256,7.48969616 C3.62725161,7.5399639 3.52671613,7.06744715 3.55687678,6.94680458 C3.55687678,6.94680458 3.53676968,6.94680458 3.53676968,6.93675103 C3.57698387,6.81610846 3.50660904,6.19278851 3.6674658,6.18273496 C3.55687678,6.19278851 3.52671613,5.92134272 3.55687678,5.87107498 C3.57698387,5.83086079 3.72778709,5.981664 3.73784064,6.0017711 C3.79816192,5.97161046 3.85848321,5.89118208 3.83837611,5.82080724 C3.80821547,5.74037886 3.69762644,5.67000403 3.62725161,5.60968274 C3.59709097,5.58957565 3.19494906,5.32818341 3.18489551,5.33823695 C3.2251097,5.26786212 3.21505616,5.19748729 3.15473487,5.14721955 C2.96371746,5.29802276 3.06425294,5.00646988 2.96371746,4.97630924 C2.92350327,4.96625569 2.88328908,4.93609505 2.84307489,4.89588086 C3.42618066,3.97095447 4.24051802,3.1968313 5.2056586,2.66399327 C5.26597988,2.65393972 5.34640826,2.65393972 5.42683665,2.65393972 C5.6078005,2.67404682 5.70833598,2.82485003 5.8390321,2.91533196 C5.8591392,2.86506422 5.81892501,2.78463584 5.78876436,2.7343681 C5.81892501,2.65393972 5.93956758,2.63383263 6.00994241,2.61372553 C6.10042434,2.60367198 6.23112046,2.58356489 6.31154884,2.62377908 C6.25122756,2.53329715 6.18085272,2.45286877 6.11047789,2.37244039 C6.10042434,2.38249393 6.0702637,2.40260103 6.06021015,2.42270813 C5.94962113,2.3322262 5.73849662,2.45286877 5.63796115,2.49308296 C5.55753277,2.53329715 5.48715793,2.58356489 5.40672955,2.61372553 C5.35646181,2.63383263 5.32630117,2.63383263 5.28608698,2.62377908 C5.58769341,2.46292232 5.89935339,2.32217265 6.23112046,2.21158362 C6.29144175,2.25179781 6.35176303,2.32217265 6.44224496,2.39254748 C6.38192368,2.34227974 6.38192368,2.57351134 6.40203077,2.61372553 C6.5126198,2.76452875 6.75390494,2.66399327 6.90470816,2.66399327 C6.89465461,2.66399327 7.34706425,2.72431456 7.25658232,2.61372553 C7.32695716,2.71426101 7.32695716,2.86506422 7.41743909,2.95554615 C7.50792102,2.86506422 7.3772249,2.76452875 7.43754618,2.67404682 C7.45765328,2.63383263 7.63861714,2.58356489 7.69893842,2.55340425 C7.76931326,2.50313651 7.64867068,2.43276167 7.61851004,2.41265458 C7.51797456,2.35233329 7.1258862,2.32217265 7.31690361,2.09094105 C7.38727844,2.01051267 7.63861714,2.05072686 7.71904552,2.1009946 C7.82963454,2.16131589 7.95027711,2.27190491 7.7994739,2.37244039 C7.86984873,2.38249393 8.20161581,2.47297586 8.15134807,2.60367198 C8.18150871,2.5433507 8.23177645,2.45286877 8.31220483,2.45286877 C8.40268676,2.46292232 8.42279386,2.67404682 8.46300805,2.72431456 C8.60375771,2.97565325 8.84504286,2.47297586 8.88525705,2.49308296 C8.70429319,2.42270813 9.04611381,2.3322262 9.13659574,2.36238684 C9.20697057,2.39254748 9.3175596,2.63383263 9.18686348,2.62377908 C9.2974525,2.72431456 9.30750605,2.9454926 9.1064351,2.93543906 C8.96568543,2.92538551 8.80482867,2.7343681 8.67413255,2.88517132 C8.58365062,2.9857068 8.54343643,3.13651001 8.4529545,3.22699194 C8.31220483,3.36774161 8.12118743,3.35768806 7.95027711,3.33758096 C8.02065195,3.34763451 7.7994739,3.57886611 7.7793668,3.6190803 C7.71904552,3.68945513 7.67883133,3.76988351 7.65872423,3.8503119 C7.63861714,3.95084737 7.65872423,4.0614364 7.60845649,4.16197187 C7.7793668,4.11170414 7.86984873,4.42336411 7.7994739,4.43341766 C8.0105984,4.40325702 8.18150871,4.40325702 8.38257966,4.47363185 C8.52332933,4.52389959 8.73445383,4.58422088 8.79477512,4.73502409 C8.83498931,4.67470281 9.02600672,4.70486345 9.086328,4.72497054 C9.20697057,4.78529183 9.21702412,4.91598795 9.24718477,5.02657698 C9.28739896,5.17738019 9.41809508,5.42871888 9.58900539,5.3482905 C9.61916603,5.32818341 9.84034408,5.22764793 9.7599157,5.16732664 C9.67948732,5.09695181 9.58900539,4.91598795 9.66943377,4.81545247 C9.74986215,4.70486345 9.94087956,4.67470281 9.99114729,4.53395314 C10.0715757,4.30272154 9.74986215,4.33288218 9.74986215,4.16197187 C9.74986215,4.0614364 9.88055827,4.03127575 9.87050472,3.91063318 C9.87050472,3.81009771 9.71970151,3.60902675 9.84034408,3.53865192 C9.94087956,3.47833063 10.4234498,3.57886611 10.5139318,3.63918739 C10.6044137,3.69950868 10.885913,3.77993706 10.9060201,3.87041899 L10.8557524,3.87041899 C10.9361808,3.94079383 11.0065556,4.09159704 10.8658059,4.13181123 C10.9562879,4.11170414 11.2176801,4.21223961 11.0367163,4.2725609 C11.0970375,4.24240026 11.1473053,4.26250735 11.2076266,4.22229316 C11.2780014,4.18207897 11.3182156,4.11170414 11.4086975,4.16197187 C11.4288046,4.17202542 11.5393936,3.95084737 11.5997149,3.96090092 C11.6901969,3.97095447 11.7103039,4.10165059 11.7505181,4.16197187 C11.7907323,4.2524538 11.9013214,4.28261445 11.9415355,4.37309638 C12.0119104,4.54400669 11.9817497,4.70486345 12.2129813,4.76518474 C12.2833562,4.78529183 12.4743736,4.67470281 12.46432,4.82550602 C12.5045342,4.78529183 12.5246413,4.75513119 12.5246413,4.74507764 C12.5346949,4.88582731 12.5950161,5.04668407 12.7659265,5.02657698 C12.7659265,5.02657698 12.7659265,5.21759438 12.7458194,5.24775502 C12.6854981,5.33823695 12.5346949,5.31812986 12.4442129,5.3683976 C12.4140523,5.37845114 12.1727671,5.58957565 12.2029278,5.61973629 C12.0722317,5.46893307 11.8611072,5.46893307 11.6901969,5.50914726 C11.509233,5.53930791 11.3383227,5.559415 11.1674124,5.62978984 C11.086984,5.67000403 11.0065556,5.71021822 10.9462343,5.78059305 C10.9160737,5.82080724 10.8658059,6.0017711 10.8155382,6.01182465 C10.9160737,5.99171755 10.9663414,5.88112853 11.0467698,5.82080724 L11.0467698,5.82080724 Z" id="Path" fill="#000000"></path>
        </g>
    </g>
</svg>