<?xml version="1.0" encoding="UTF-8" standalone="no"?>
<!-- Created with Inkscape (http://www.inkscape.org/) -->
<svg
   xmlns:dc="http://purl.org/dc/elements/1.1/"
   xmlns:cc="http://web.resource.org/cc/"
   xmlns:rdf="http://www.w3.org/1999/02/22-rdf-syntax-ns#"
   xmlns:svg="http://www.w3.org/2000/svg"
   xmlns="http://www.w3.org/2000/svg"
   xmlns:xlink="http://www.w3.org/1999/xlink"
   xmlns:sodipodi="http://sodipodi.sourceforge.net/DTD/sodipodi-0.dtd"
   xmlns:inkscape="http://www.inkscape.org/namespaces/inkscape"
   width="16px"
   height="16px"
   id="svg3617"
   sodipodi:version="0.32"
   inkscape:version="0.45.1"
   sodipodi:docbase="c:\dev\src\houdini\support\icons\BUTTONS"
   sodipodi:docname="fast.svg"
   inkscape:output_extension="org.inkscape.output.svg.inkscape">
  <defs
     id="defs3619">
    <linearGradient
       id="linearGradient3757">
      <stop
         style="stop-color:#a3a398;stop-opacity:1;"
         offset="0"
         id="stop3759" />
      <stop
         id="stop3765"
         offset="0.5"
         style="stop-color:#eeeeec;stop-opacity:1;" />
      <stop
         style="stop-color:#7e7e71;stop-opacity:1;"
         offset="1"
         id="stop3761" />
    </linearGradient>
    <linearGradient
       inkscape:collect="always"
       id="linearGradient3747">
      <stop
         style="stop-color:#000000;stop-opacity:1;"
         offset="0"
         id="stop3749" />
      <stop
         style="stop-color:#000000;stop-opacity:0;"
         offset="1"
         id="stop3751" />
    </linearGradient>
    <linearGradient
       id="linearGradient3726">
      <stop
         id="stop3728"
         offset="0"
         style="stop-color:#393939;stop-opacity:0;" />
      <stop
         style="stop-color:#434343;stop-opacity:1;"
         offset="0.5"
         id="stop3730" />
      <stop
         id="stop3732"
         offset="1"
         style="stop-color:#393939;stop-opacity:0;" />
    </linearGradient>
    <linearGradient
       id="linearGradient3712">
      <stop
         style="stop-color:#393939;stop-opacity:0;"
         offset="0"
         id="stop3714" />
      <stop
         id="stop3720"
         offset="0.5"
         style="stop-color:#717171;stop-opacity:1;" />
      <stop
         style="stop-color:#393939;stop-opacity:0;"
         offset="1"
         id="stop3716" />
    </linearGradient>
    <linearGradient
       id="linearGradient3704">
      <stop
         style="stop-color:#414141;stop-opacity:1;"
         offset="0"
         id="stop3706" />
      <stop
         style="stop-color:#000000;stop-opacity:1;"
         offset="1"
         id="stop3708" />
    </linearGradient>
    <linearGradient
       id="linearGradient3686">
      <stop
         style="stop-color:#eeeeec;stop-opacity:1;"
         offset="0"
         id="stop3688" />
      <stop
         style="stop-color:#57574c;stop-opacity:1;"
         offset="1"
         id="stop3690" />
    </linearGradient>
    <radialGradient
       inkscape:collect="always"
       xlink:href="#linearGradient3686"
       id="radialGradient3692"
       cx="0.4899219"
       cy="9.9472246"
       fx="0.4899219"
       fy="9.9472246"
       r="0.74858803"
       gradientTransform="matrix(1,0,0,2.0425533,0,-10.204837)"
       gradientUnits="userSpaceOnUse" />
    <radialGradient
       inkscape:collect="always"
       xlink:href="#linearGradient3686"
       id="radialGradient3702"
       gradientUnits="userSpaceOnUse"
       gradientTransform="matrix(1,0,0,2.0425533,0,-10.204837)"
       cx="0.4899219"
       cy="9.9472246"
       fx="0.4899219"
       fy="9.9472246"
       r="0.74858803" />
    <radialGradient
       inkscape:collect="always"
       xlink:href="#linearGradient3704"
       id="radialGradient3710"
       cx="7.5666933"
       cy="9.9029713"
       fx="7.5666933"
       fy="9.9029713"
       r="3.6674988"
       gradientTransform="matrix(1.1615116,0.5778401,-0.2745844,0.551635,1.6966029,-1.9894499)"
       gradientUnits="userSpaceOnUse" />
    <linearGradient
       inkscape:collect="always"
       xlink:href="#linearGradient3712"
       id="linearGradient3718"
       x1="1.9398503"
       y1="6.4491806"
       x2="2.957706"
       y2="9.019311"
       gradientUnits="userSpaceOnUse"
       gradientTransform="matrix(0.9794526,0,0,0.9791817,8.628254e-3,-0.4741086)" />
    <linearGradient
       inkscape:collect="always"
       xlink:href="#linearGradient3726"
       id="linearGradient3724"
       gradientUnits="userSpaceOnUse"
       x1="1.9398503"
       y1="6.4491806"
       x2="2.957706"
       y2="9.019311"
       gradientTransform="matrix(0.9526314,0.2275786,-0.2276415,0.952368,8.2543844,-2.3652499)" />
    <radialGradient
       inkscape:collect="always"
       xlink:href="#linearGradient3686"
       id="radialGradient3741"
       gradientUnits="userSpaceOnUse"
       gradientTransform="matrix(1,0,0,2.0425533,0,-10.204837)"
       cx="0.4899219"
       cy="9.9472246"
       fx="0.4899219"
       fy="9.9472246"
       r="0.74858803" />
    <radialGradient
       inkscape:collect="always"
       xlink:href="#linearGradient3747"
       id="radialGradient3753"
       cx="11.467731"
       cy="11.062505"
       fx="11.467731"
       fy="11.062505"
       r="7.3584614"
       gradientTransform="matrix(1,0,0,0.3333333,0,7.3750031)"
       gradientUnits="userSpaceOnUse" />
    <linearGradient
       inkscape:collect="always"
       xlink:href="#linearGradient3757"
       id="linearGradient3763"
       x1="1.5161709"
       y1="3.0428927"
       x2="2.7028203"
       y2="2.6287801"
       gradientUnits="userSpaceOnUse" />
  </defs>
  <sodipodi:namedview
     id="base"
     pagecolor="#ffffff"
     bordercolor="#666666"
     borderopacity="1.0"
     inkscape:pageopacity="0.0"
     inkscape:pageshadow="2"
     inkscape:zoom="31.392433"
     inkscape:cx="8"
     inkscape:cy="8"
     inkscape:current-layer="layer1"
     showgrid="true"
     inkscape:grid-bbox="false"
     inkscape:document-units="px"
     inkscape:window-width="1262"
     inkscape:window-height="1003"
     inkscape:window-x="303"
     inkscape:window-y="12" />
  <metadata
     id="metadata3622">
    <rdf:RDF>
      <cc:Work
         rdf:about="">
        <dc:format>image/svg+xml</dc:format>
        <dc:type
           rdf:resource="http://purl.org/dc/dcmitype/StillImage" />
      </cc:Work>
    </rdf:RDF>
  </metadata>
  <g
     id="layer1"
     inkscape:label="Layer 1"
     inkscape:groupmode="layer">
    <path
       sodipodi:type="arc"
       style="opacity:1;color:#000000;fill:url(#radialGradient3753);fill-opacity:1;fill-rule:evenodd;stroke:none;stroke-width:1.5;stroke-linecap:round;stroke-linejoin:miter;marker:none;marker-start:none;marker-mid:none;marker-end:none;stroke-miterlimit:4;stroke-dasharray:none;stroke-dashoffset:0;stroke-opacity:1;visibility:visible;display:inline;overflow:visible;enable-background:accumulate"
       id="path3745"
       sodipodi:cx="11.467731"
       sodipodi:cy="11.062505"
       sodipodi:rx="7.3584614"
       sodipodi:ry="2.4528205"
       d="M 18.826193 11.062505 A 7.3584614 2.4528205 0 1 1  4.1092701,11.062505 A 7.3584614 2.4528205 0 1 1  18.826193 11.062505 z"
       transform="matrix(0.9402977,0.3403531,-0.3403531,0.9402977,0.4361022,-3.8797175)" />
    <path
       style="opacity:1;color:#000000;fill:#000000;fill-opacity:1;fill-rule:evenodd;stroke:none;stroke-width:1.5;stroke-linecap:round;stroke-linejoin:miter;marker:none;marker-start:none;marker-mid:none;marker-end:none;stroke-miterlimit:4;stroke-dasharray:none;stroke-dashoffset:0;stroke-opacity:1;visibility:visible;display:inline;overflow:visible;enable-background:accumulate"
       d="M 14.243674,7.0790911 C 13.90182,6.9863659 13.250454,7.1302641 12.951007,7.193646 C 12.507331,7.2875541 11.893861,8.0456523 11.789539,9.2031636 C 11.685217,10.360674 12.132929,11.05689 12.770729,11.299875 C 13.19214,11.460423 13.543034,11.389872 13.898185,11.296792 C 14.579037,11.118349 15.163945,10.509418 15.268266,9.3519064 C 15.372589,8.1943947 14.843795,7.2418691 14.243674,7.0790911 z "
       id="path3743"
       sodipodi:nodetypes="cssssss" />
    <path
       style="opacity:1;color:#000000;fill:#000000;fill-opacity:1;fill-rule:evenodd;stroke:none;stroke-width:1.5;stroke-linecap:round;stroke-linejoin:miter;marker:none;marker-start:none;marker-mid:none;marker-end:none;stroke-miterlimit:4;stroke-dasharray:none;stroke-dashoffset:0;stroke-opacity:1;visibility:visible;display:inline;overflow:visible;enable-background:accumulate"
       d="M 9.2439231,4.0232633 C 8.6716866,3.9933566 8.0904005,4.1474242 7.5480353,4.2424521 C 6.8510036,4.2388103 6.2738194,5.4262507 6.261083,6.8749111 C 6.2487,8.2833313 6.7674519,9.4123947 7.4371513,9.4787229 C 8.1750613,9.7433299 8.8271003,9.356131 9.532282,9.1004684 C 10.102732,8.8649781 10.559725,7.8357373 10.568351,6.5957532 C 10.577832,5.2837831 10.236852,4.6149292 9.2439231,4.0232633 z "
       id="path3694"
       sodipodi:nodetypes="ccscccc" />
    <path
       style="fill:url(#linearGradient3724);fill-opacity:1;fill-rule:evenodd;stroke:none;stroke-width:1px;stroke-linecap:butt;stroke-linejoin:miter;stroke-opacity:1"
       d="M 7.8021384,4.7469191 L 9.7496942,4.2703752 C 10.347838,4.7622476 10.660623,5.7102332 10.489923,6.3789636 L 8.3026059,6.7264651 C 8.4708556,6.0265241 8.4234832,5.3523829 7.8021384,4.7469191 z "
       id="path3722"
       sodipodi:nodetypes="ccccc" />
    <path
       style="fill:#cc0000;fill-rule:evenodd;stroke:#390000;stroke-width:0.5;stroke-linecap:butt;stroke-linejoin:miter;stroke-miterlimit:4;stroke-dasharray:none;stroke-opacity:1"
       d="M 1.9469611,8.2641651 C 3.843698,10.132707 7.1191015,11.349182 10.568315,12.163262 C 11.545636,12.393928 12.659542,12.783448 14.111783,12.325924 C 15.877683,11.769582 15.978788,10.709505 15.565966,10.223136 C 14.90367,9.4428441 13.137661,7.9844473 11.725261,7.4945685 L 10.42051,7.2473625 L 8.9068429,6.171187 L 8.6363995,5.5393639 C 7.7205313,5.0652572 6.8949686,4.6930471 6.2827043,4.4834056 C 4.4440535,3.8538447 2.4811933,4.4260518 1.7407991,5.3258119 C 1.2566739,5.9141422 1.3258415,7.6522782 1.9469611,8.2641651 z "
       id="path3657"
       sodipodi:nodetypes="csssccccsss" />
    <path
       style="fill:#ef2929;fill-opacity:1;fill-rule:evenodd;stroke:none;stroke-width:1px;stroke-linecap:butt;stroke-linejoin:miter;stroke-opacity:1"
       d="M 1.6798531,6.4922898 C 6.0229288,8.0233642 9.3336239,10.177998 12.322021,11.691197 C 12.822655,11.944697 12.346061,11.417892 12.897222,11.680839 C 11.150133,9.5657293 8.2420827,6.874717 3.2613744,4.6242813 C 2.8281309,4.8451361 1.5008834,5.089407 1.6798531,6.4922898 z "
       id="path3665"
       sodipodi:nodetypes="csccc" />
    <path
       style="fill:#eeeeec;fill-opacity:1;fill-rule:evenodd;stroke:none;stroke-width:1px;stroke-linecap:butt;stroke-linejoin:miter;stroke-opacity:1"
       d="M 2.108381,5.8901114 C 6.2202321,7.4864048 10.484987,10.056218 12.559425,11.730961 C 13.110773,12.176077 12.341661,11.335745 12.963517,11.712146 C 10.008985,9.5367044 7.7952147,7.3886802 2.8145065,5.1382444 C 2.2505208,5.1699388 2.0560014,5.5181674 2.108381,5.8901114 z "
       id="path3659"
       sodipodi:nodetypes="csccc" />
    <path
       sodipodi:type="arc"
       style="opacity:1;color:#000000;fill:#000000;fill-opacity:1;fill-rule:evenodd;stroke:none;stroke-width:1;stroke-linecap:round;stroke-linejoin:miter;marker:none;marker-start:none;marker-mid:none;marker-end:none;stroke-miterlimit:4;stroke-dasharray:none;stroke-dashoffset:0;stroke-opacity:1;visibility:visible;display:inline;overflow:visible;enable-background:accumulate"
       id="path3663"
       sodipodi:cx="13.012691"
       sodipodi:cy="12.543753"
       sodipodi:rx="2.0546353"
       sodipodi:ry="0.62116879"
       d="M 15.067326 12.543753 A 2.0546353 0.62116879 0 1 1  10.958055,12.543753 A 2.0546353 0.62116879 0 1 1  15.067326 12.543753 z"
       transform="matrix(0.8918639,-0.2273973,0.1986139,1.1012062,-0.6799294,0.3291409)" />
    <path
       style="fill:url(#radialGradient3710);fill-opacity:1;fill-rule:evenodd;stroke:none;stroke-width:1px;stroke-linecap:butt;stroke-linejoin:miter;stroke-opacity:1"
       d="M 8.4657942,5.3772896 C 7.5906095,5.2707363 5.8195745,5.5200023 5.4890552,6.2873357 C 5.3175194,7.3585989 7.0715146,9.3379565 8.6469105,8.2128925 C 9.2771921,7.7627789 10.385451,7.4831285 12.138351,7.5139464 L 11.055326,7.3516448 C 10.356136,7.1430198 9.2359642,6.60892 8.950729,6.067854 L 8.4657942,5.3772896 z "
       id="path3667"
       sodipodi:nodetypes="ccscccc" />
    <path
       style="fill:none;fill-rule:evenodd;stroke:#555753;stroke-width:1.50000012;stroke-linecap:round;stroke-linejoin:miter;stroke-miterlimit:4;stroke-dasharray:none;stroke-opacity:1"
       d="M 4.7439784,5.3854557 L 4.125593,3.2215729 C 3.7039295,1.5610062 6.5196955,1.0237233 6.6962006,2.5157822 L 6.8513842,4.4935058"
       id="path3671"
       sodipodi:nodetypes="cccc" />
    <path
       style="fill:none;fill-rule:evenodd;stroke:#eeeeec;stroke-width:0.49999997;stroke-linecap:round;stroke-linejoin:miter;stroke-miterlimit:4;stroke-dasharray:none;stroke-opacity:1"
       d="M 4.7538288,5.4093487 L 4.1354433,3.2454659 C 3.7137799,1.5848991 6.5295459,1.0476162 6.706051,2.5396752 L 6.8612343,4.5173987"
       id="path3669"
       sodipodi:nodetypes="cccc" />
    <path
       style="opacity:1;color:#000000;fill:#000000;fill-opacity:1;fill-rule:evenodd;stroke:none;stroke-width:1.5;stroke-linecap:round;stroke-linejoin:miter;marker:none;marker-start:none;marker-mid:none;marker-end:none;stroke-miterlimit:4;stroke-dasharray:none;stroke-dashoffset:0;stroke-opacity:1;visibility:visible;display:inline;overflow:visible;enable-background:accumulate"
       d="M 2.3838299,5.4103106 C 1.8203116,5.514189 1.2907641,5.7991058 0.78534594,6.0175566 C 0.10655535,6.1759782 -0.17875194,7.4650151 0.14566023,8.8769624 C 0.461061,10.249689 1.2281034,11.227293 1.8948832,11.136192 C 2.6741031,11.222091 3.218266,10.693986 3.8446949,10.281467 C 4.3447735,9.9198751 4.5499624,8.812633 4.2700671,7.6046029 C 3.9742682,6.326359 3.4871219,5.7550538 2.3838299,5.4103106 z "
       id="path3673"
       sodipodi:nodetypes="ccscccc" />
    <path
       style="fill:url(#linearGradient3718);fill-opacity:1;fill-rule:evenodd;stroke:none;stroke-width:1px;stroke-linecap:butt;stroke-linejoin:miter;stroke-opacity:1"
       d="M 1.2222136,6.5483827 L 3.0056503,5.6323682 C 3.7017664,5.971791 4.226374,6.8211406 4.215816,7.5112213 L 2.1691841,8.3574362 C 2.1701032,7.637569 1.9673027,6.9928954 1.2222136,6.5483827 z "
       id="path3680"
       sodipodi:nodetypes="ccccc" />
    <path
       sodipodi:type="arc"
       style="opacity:1;color:#000000;fill:url(#radialGradient3692);fill-opacity:1;fill-rule:evenodd;stroke:none;stroke-width:1.5;stroke-linecap:round;stroke-linejoin:miter;marker:none;marker-start:none;marker-mid:none;marker-end:none;stroke-miterlimit:4;stroke-dasharray:none;stroke-dashoffset:0;stroke-opacity:1;visibility:visible;display:inline;overflow:visible;enable-background:accumulate"
       id="path3684"
       sodipodi:cx="0.2707659"
       sodipodi:cy="9.788312"
       sodipodi:rx="0.74858803"
       sodipodi:ry="1.5290309"
       d="M 1.0193539 9.788312 A 0.74858803 1.5290309 0 1 1  -0.47782212,9.788312 A 0.74858803 1.5290309 0 1 1  1.0193539 9.788312 z"
       transform="matrix(0.6651379,-0.1189686,0.1190153,0.6646918,-0.1821567,2.118668)" />
    <path
       style="opacity:1;color:#000000;fill:#000000;fill-opacity:1;fill-rule:evenodd;stroke:none;stroke-width:1.5;stroke-linecap:round;stroke-linejoin:miter;marker:none;marker-start:none;marker-mid:none;marker-end:none;stroke-miterlimit:4;stroke-dasharray:none;stroke-dashoffset:0;stroke-opacity:1;visibility:visible;display:inline;overflow:visible;enable-background:accumulate"
       d="M 7.6469721,9.1081283 C 7.2950636,9.1484622 6.7431944,9.5231309 6.4884626,9.6927996 C 6.1110396,9.9441876 5.8217124,10.875431 6.1532298,11.98936 C 6.4847473,13.103289 7.1583728,13.584436 7.8408369,13.574204 C 8.2917599,13.567443 8.5916324,13.372081 8.8871218,13.154213 C 9.4535981,12.736542 9.7716008,11.954445 9.4400831,10.840514 C 9.1085655,9.7265845 8.2647445,9.0373226 7.6469721,9.1081283 z "
       id="path3734"
       sodipodi:nodetypes="cssssss" />
    <path
       sodipodi:type="arc"
       style="opacity:1;color:#000000;fill:url(#radialGradient3741);fill-opacity:1;fill-rule:evenodd;stroke:none;stroke-width:1.5;stroke-linecap:round;stroke-linejoin:miter;marker:none;marker-start:none;marker-mid:none;marker-end:none;stroke-miterlimit:4;stroke-dasharray:none;stroke-dashoffset:0;stroke-opacity:1;visibility:visible;display:inline;overflow:visible;enable-background:accumulate"
       id="path3739"
       sodipodi:cx="0.2707659"
       sodipodi:cy="9.788312"
       sodipodi:rx="0.74858803"
       sodipodi:ry="1.5290309"
       d="M 1.0193539 9.788312 A 0.74858803 1.5290309 0 1 1  -0.47782212,9.788312 A 0.74858803 1.5290309 0 1 1  1.0193539 9.788312 z"
       transform="matrix(0.6537515,-0.1707952,0.1708067,0.6533031,5.1760265,5.3787875)" />
  </g>
</svg>
