<?xml version="1.0" encoding="UTF-8" standalone="no"?>
<!-- Created with Inkscape (http://www.inkscape.org/) -->

<svg
   xmlns:dc="http://purl.org/dc/elements/1.1/"
   xmlns:cc="http://creativecommons.org/ns#"
   xmlns:rdf="http://www.w3.org/1999/02/22-rdf-syntax-ns#"
   xmlns:svg="http://www.w3.org/2000/svg"
   xmlns="http://www.w3.org/2000/svg"
   xmlns:xlink="http://www.w3.org/1999/xlink"
   xmlns:sodipodi="http://sodipodi.sourceforge.net/DTD/sodipodi-0.dtd"
   xmlns:inkscape="http://www.inkscape.org/namespaces/inkscape"
   width="16px"
   height="16px"
   id="svg4071"
   version="1.1"
   inkscape:version="0.48.2 r9819"
   sodipodi:docname="global.svg">
  <defs
     id="defs4073">
    <linearGradient
       id="linearGradient4724">
      <stop
         style="stop-color:#ffffff;stop-opacity:1;"
         offset="0"
         id="stop4726" />
      <stop
         style="stop-color:#cdcdc8;stop-opacity:1;"
         offset="1"
         id="stop4728" />
    </linearGradient>
    <linearGradient
       id="linearGradient4716">
      <stop
         style="stop-color:#667478;stop-opacity:1;"
         offset="0"
         id="stop4718" />
      <stop
         style="stop-color:#000000;stop-opacity:1;"
         offset="1"
         id="stop4720" />
    </linearGradient>
    <radialGradient
       inkscape:collect="always"
       xlink:href="#linearGradient4716"
       id="radialGradient4722"
       cx="5.9112902"
       cy="6.1935487"
       fx="5.9112902"
       fy="6.1935487"
       r="7.2258065"
       gradientUnits="userSpaceOnUse" />
    <radialGradient
       inkscape:collect="always"
       xlink:href="#linearGradient4724"
       id="radialGradient4730"
       cx="6.2175217"
       cy="5.475141"
       fx="6.2175217"
       fy="5.475141"
       r="6.9146392"
       gradientTransform="matrix(0.90057326,0,0,0.84506214,0.7859705,1.1578983)"
       gradientUnits="userSpaceOnUse" />
    <radialGradient
       inkscape:collect="always"
       xlink:href="#linearGradient4716"
       id="radialGradient4753"
       gradientUnits="userSpaceOnUse"
       cx="5.9112902"
       cy="6.1935487"
       fx="5.9112902"
       fy="6.1935487"
       r="7.2258065" />
  </defs>
  <sodipodi:namedview
     id="base"
     pagecolor="#ffffff"
     bordercolor="#666666"
     borderopacity="1.0"
     inkscape:pageopacity="0.0"
     inkscape:pageshadow="2"
     inkscape:zoom="32"
     inkscape:cx="2.9168706"
     inkscape:cy="6.8501773"
     inkscape:current-layer="layer1"
     showgrid="true"
     inkscape:grid-bbox="true"
     inkscape:document-units="px"
     inkscape:snap-global="false"
     inkscape:window-width="2560"
     inkscape:window-height="1468"
     inkscape:window-x="0"
     inkscape:window-y="0"
     inkscape:window-maximized="1">
    <inkscape:grid
       type="xygrid"
       id="grid4079" />
  </sodipodi:namedview>
  <metadata
     id="metadata4076">
    <rdf:RDF>
      <cc:Work
         rdf:about="">
        <dc:format>image/svg+xml</dc:format>
        <dc:type
           rdf:resource="http://purl.org/dc/dcmitype/StillImage" />
        <dc:title></dc:title>
      </cc:Work>
    </rdf:RDF>
  </metadata>
  <g
     id="layer1"
     inkscape:label="Layer 1"
     inkscape:groupmode="layer">
    <path
       sodipodi:type="arc"
       style="color:#000000;fill:url(#radialGradient4753);fill-opacity:1;stroke:#eeeeec;stroke-width:0.93333334;stroke-linecap:round;stroke-linejoin:round;stroke-miterlimit:4;stroke-opacity:1;stroke-dasharray:none;stroke-dashoffset:0;marker:none;visibility:visible;display:inline;overflow:visible;enable-background:accumulate"
       id="path4081"
       sodipodi:cx="8"
       sodipodi:cy="8"
       sodipodi:rx="7"
       sodipodi:ry="7"
       d="M 15,8 A 7,7 0 1 1 1,8 7,7 0 1 1 15,8 z"
       transform="matrix(1.0714286,0,0,1.0714286,-0.57142857,-0.57142856)" />
    <path
       style="color:#000000;fill:url(#radialGradient4730);fill-opacity:1;stroke:none;stroke-width:0.5;marker:none;visibility:visible;display:inline;overflow:visible;enable-background:accumulate"
       d="m 8.0174445,1.6300104 c -0.4529675,0 -0.8950781,0.046917 -1.3210426,0.1369449 0.030427,0.00434 0.027838,0.041324 0.00841,0.048051 -0.051313,0.017722 -0.1094623,0.01797 -0.1526591,0.055258 -0.00377,0.00323 -0.00479,0.00887 -0.00239,0.013214 0.00239,0.00434 0.00721,0.00623 0.012019,0.00482 0.00881,-0.00261 0.024887,-0.00763 0.062507,-0.021624 0.00658,-0.00245 0.014183,0.00145 0.013224,0.00841 -4.553e-4,0.00265 -0.00231,0.00493 -0.00482,0.00602 -0.018462,0.00807 -0.038686,0.012206 -0.056496,0.021624 -0.00354,0.00185 -0.00554,0.0057 -0.00482,0.00961 0.00173,0.0095 -0.00685,0.028293 -0.0012,0.033636 -0.00145,0.00168 -0.1836525,0.1253548 -0.2524286,0.1297371 -0.082469,0.00372 -0.158852,0.036577 -0.1815079,0.055259 -0.022888,0.018912 -0.047908,0.034827 -0.074527,0.048051 -0.055467,0.0276 -0.1046064,0.075306 -0.1370326,0.1105166 -0.016618,0.017991 0.012049,0.023517 0.034859,0.032434 0,0 0.015782,0.00614 -0.00841,0.00961 -0.0912,0.012456 -0.1686685,0.1145531 -0.1923246,0.1489575 -0.00449,0.00654 -0.00562,0.015128 -0.0012,0.021624 1.153e-4,2.305e-4 0.00105,9.636e-4 0.0012,0.0012 -0.042235,0.041786 -0.04585,0.044995 -0.076931,0.1081145 -0.00187,0.00395 -0.00171,0.00875 0.0012,0.012011 0.00393,0.00449 0.053199,0.00798 0.057698,0.016818 0.00669,0.013223 -0.018878,0.024034 -0.013224,0.034837 0.00154,0.003 0.00511,0.00539 0.00841,0.00602 0.00801,0.00168 -0.025435,0.035049 -0.030051,0.042045 -0.00762,0.011533 0.00195,0.041574 0.019234,0.040844 0.01758,-6.829e-4 0.029138,-0.012127 0.045677,-0.031233 0,0 0.044215,-0.025313 0.074527,-0.050453 0.029426,-0.02445 0.089634,-0.031491 0.1117895,-0.073278 0.01208,-0.022756 0.034812,-0.037 0.052889,-0.040844 0.00778,-0.00165 0.015301,0.00328 0.018029,0.01081 0.00242,0.010417 0.1407544,-0.051539 0.1358307,-0.07568 -0.0043,-0.022413 0.00834,-0.024207 0.022839,-0.018018 0.010042,0.00423 0.018818,6.262e-4 0.025244,-0.00482 0.041543,-0.034635 0.1038371,-0.075882 0.1562655,-0.062466 0.012655,0.00323 0.025955,0.00161 0.037263,-0.00482 0.052351,-0.029907 0.058256,-0.016894 0.045677,-0.012014 -0.013654,0.00527 -0.052169,0.020056 -0.044475,0.032434 0.00194,0.00313 0.00615,0.00374 0.00961,0.00239 0.022464,-0.00888 0.0456,-0.012831 0.069718,-0.013214 0.033464,-5.691e-4 0.083258,-0.00662 0.1274162,-0.030031 0.00187,-9.996e-4 0.00412,-0.00139 0.00602,-0.00239 3.984e-4,-1.921e-4 8.494e-4,-9.997e-4 0.0012,-0.0012 0.1046641,-0.053086 0.1474088,-0.088154 0.1694878,-0.073278 0.00677,0.00461 0.010311,0.013398 0.00961,0.021624 1.152e-4,7.69e-5 0.00105,-1.152e-4 0.0012,0 0.017156,0.012071 0.034714,4.554e-4 0.055293,-0.00482 0,0 0.017492,0.016425 0.080537,0.015616 C 6.9218445,2.3868071 7.5813696,2.2440099 7.9994104,1.8978904 8.1126907,1.8040953 8.2390876,1.717575 8.3648308,1.6396175 8.2496656,1.6333913 8.1341447,1.6300079 8.0174411,1.6300079 z m 2.3283525,0.4396647 c 0.01285,0.010226 0.01952,0.027534 0.01683,0.044447 -0.005,0.031406 -0.04162,0.039353 -0.04447,0.04685 -0.0087,0.023027 0.05109,0.053424 0.06852,0.070876 0.0096,0.00965 0.01036,0.025966 0.0013,0.036039 -1.94e-4,1.924e-4 -9.01e-4,7.71e-5 -0.0013,0 -0.02935,-0.00708 -0.06013,6.543e-4 -0.08294,0.020422 -0.02231,0.019297 -0.05475,0.032799 -0.07332,0.039641 -0.01091,0.004 -0.02031,0.010062 -0.02885,0.018018 -0.01031,-0.00311 -0.02121,-0.00248 -0.03126,0.0012 -0.04146,0.015261 -0.06503,0.093583 -0.0565,0.1225297 0.0032,0.011299 3.98e-4,0.022978 -0.0072,0.032433 -0.0096,0.012107 -0.02625,0.01701 -0.04087,0.012012 -0.0086,-0.00296 -0.03226,0.018633 -0.02042,0.027628 0.01388,0.010494 -0.005,0.017675 -0.01923,0.027628 -0.007,0.00488 -0.01652,0.00626 -0.02524,0.0036 -0.050576,-0.015339 -0.047037,-0.027429 -0.062499,0.012012 -0.0072,0.018528 -0.017705,0.036048 -0.030052,0.051654 -0.00793,0.00996 -0.00693,0.023555 0.00234,0.032434 0.074559,0.071769 -0.033654,0.06066 -0.072127,0.043246 -0.034888,-0.015799 -0.055008,0.042976 0.00965,0.043246 0.017615,1.154e-4 0.035032,0.00847 0.046875,0.021624 0.03324,0.036749 -0.04311,0.023775 -0.090151,0.00721 -0.039959,-0.014109 -0.078435,-0.034932 -0.11179,-0.061265 -0.021037,-0.016721 -0.0284,-0.044419 -0.01923,-0.069673 0.00924,-0.025255 0.033172,-0.041574 0.060096,-0.040844 0.038809,0.00103 0.072431,-0.02755 0.076928,-0.06607 0.0045,-0.038518 -0.022136,-0.07493 -0.060096,-0.082888 -0.093353,-0.01945 -0.1972493,-0.00683 -0.2836806,-0.04685 -0.074582,-0.03448 -0.1361392,-0.028917 -0.1550641,-0.054058 -0.0082,-0.010916 -0.011765,-0.023786 -0.00964,-0.037239 -0.040157,-0.00776 -0.065709,-0.01332 -0.082941,-0.016818 -0.016535,-0.00335 -0.066786,-0.00358 -0.1358302,0.018018 -0.148976,0.047205 -0.2896917,0.1849954 -0.2896917,0.1849954 0,0 -0.028999,0.047878 -0.056498,0.079285 -0.025038,0.028677 -0.044196,0.064148 -0.072121,0.090096 -0.011042,0.010185 -0.018675,0.023754 -0.021635,0.038441 -0.014578,0.00415 -0.025975,0.015463 -0.030051,0.030031 -0.018194,0.06458 -0.068775,0.160576 -0.3413796,0.2750908 -0.080008,0.03379 -0.1306377,0.1138897 -0.1262141,0.2006118 0.00442,0.086722 0.062439,0.1618735 0.1454468,0.187398 0.1030869,0.031714 0.1262237,-0.082763 0.2428121,-0.04805 0.04385,0.013069 0.079536,0.047042 0.094962,0.090096 0.01908,0.053164 0.045659,0.083359 0.048082,0.1513599 0.023271,0.023218 0.090605,0.075631 0.098567,0.040844 0.019345,-0.082532 0.1034712,-0.028879 0.1394366,-0.097303 0.030814,-0.058815 -0.015366,-0.1209919 0.00718,-0.1801904 1.528e-4,-4.553e-4 -1.929e-4,-7.398e-4 0,-0.0012 0.028464,-0.069578 0.035941,-0.1448633 0.021633,-0.2186311 -0.00667,-0.034366 0.00277,-0.087173 0.019234,-0.1861965 0.00657,-0.038595 0.08169,-0.058046 0.099774,-0.086491 0.031542,-0.049203 -0.020966,-0.1433643 0.057697,-0.1609699 0.039348,-0.00876 0.1097702,0.00975 0.1190019,0.050453 0.00328,0.014452 7.683e-4,0.029196 -0.00841,0.040844 -0.02231,0.028408 -0.032967,0.066896 -0.052888,0.097302 -0.040157,0.061274 -0.048497,0.1391647 -0.022843,0.2078197 0.022084,0.059199 0.057687,0.1119871 0.1141943,0.1165233 0.016227,0.00131 0.032024,-0.00191 0.045676,-0.01081 7.7e-5,-3.86e-5 0.00113,3.83e-5 0.00123,0 1.158e-4,-3.86e-5 -7.71e-5,-0.00116 0,-0.0012 l 0.081741,-0.027628 c 0.067126,-0.023487 0.1396479,-0.028323 0.2091545,-0.013214 0.00658,0.00142 0.01146,0.00665 0.013225,0.013214 0.00175,0.00654 -9.186e-4,0.013559 -0.00608,0.018017 -0.08405,0.074766 -0.099169,0.024659 -0.1875182,0.040844 -0.03027,0.00541 -0.053852,0.02958 -0.057698,0.060063 -0.00349,0.027446 0.00944,0.054096 0.032454,0.068472 0.00451,0.00284 0.00769,0.00783 0.00718,0.013214 0,1.536e-4 0,0.00105 0,0.0012 -0.00194,0.026677 -0.018659,0.049569 -0.043276,0.060063 -0.018576,0.00792 -0.039809,0.00807 -0.057697,0 -0.013889,-0.00623 -0.030577,-0.00478 -0.043276,0.00359 -0.025304,0.016684 -0.015509,0.02835 -0.020432,0.050453 -0.0079,0.035328 -0.00564,0.072701 0.00604,0.106913 0.019233,0.056199 -0.085331,0.1567226 -0.1274161,0.1489577 -0.085434,-0.015721 -0.1733248,-0.00231 -0.2500254,0.038441 -0.036271,0.019259 -0.080355,0.013377 -0.1105867,-0.014416 -2.308e-4,-1.535e-4 -0.00103,1.924e-4 -0.00123,0 -0.020197,-0.01845 -0.00113,-0.027408 -0.026443,-0.043245 -0.00523,-0.00335 -0.1383213,0.051942 -0.1442451,0.054058 -0.00611,0.00222 -0.013693,0.00225 -0.019234,-0.0012 -0.00554,-0.00346 -0.009,-0.00912 -0.00961,-0.015616 -7.72e-5,-2.308e-4 3.85e-5,-0.00103 0,-0.0012 -0.00466,-0.038441 -0.1771999,-0.032752 -0.042072,-0.1825929 2.307e-4,-2.692e-4 -2.692e-4,-9.636e-4 0,-0.0012 0.013964,-0.015378 0.020135,-0.037095 0.01683,-0.05766 -0.00538,-0.034367 0.00187,-0.06583 -0.030051,-0.079285 -0.070737,0.073845 -0.104318,0.1760869 -0.091355,0.2774933 0.0087,0.1127465 -0.045351,0.09369 -0.086548,0.092498 -0.01731,-5.122e-4 -0.034331,0.00615 -0.045677,0.019219 -1.154e-4,1.922e-4 1.537e-4,0.00105 0,0.0012 -0.016466,0 -0.040024,-7.71e-5 -0.079335,0.00359 -0.016849,0.00158 -0.031917,0.00949 -0.042072,0.022824 -0.00111,0.00145 -0.00149,0.00424 -0.0012,0.00602 0.00142,0.00942 -0.00512,0.018231 -0.014424,0.020422 -0.030428,0.00714 -0.058621,0.021131 -0.081739,0.042043 -0.053852,0.048743 -0.080643,0.069461 -0.1370325,0.1009069 -0.039541,0.021947 -0.075037,0.049954 -0.1045777,0.084089 -0.012386,0.014262 -0.038657,0.030782 -0.1009715,0.06607 -0.00573,0.00323 -0.00932,0.00796 -0.01082,0.014416 -0.00312,0.013493 -0.013953,0.02443 -0.027648,0.026427 -0.055467,0.00801 -0.071488,-0.00551 -0.1033756,-0.026427 -0.016348,-0.010725 -0.029359,0.010656 -0.025244,0.025225 7.68e-5,2.305e-4 -3.85e-5,9.366e-4 0,0.0012 0.00393,0.013954 0.00126,0.02908 -0.00721,0.040844 -0.0085,0.011763 -0.021598,0.018527 -0.036061,0.019219 -0.038273,0.00184 -0.076354,-0.00559 -0.1105877,-0.022824 -0.00304,-0.00154 -0.00762,-0.00225 -0.01082,-0.0012 -0.055621,0.01776 -0.087133,0.083869 -0.073326,0.08529 0.095855,0.010418 0.09376,0.027206 0.1322244,0.051654 0.045543,0.028831 0.023243,0.1186376 0.092557,0.1261334 3.415e-4,3.84e-5 8.495e-4,-3.85e-5 0.0012,0 0.00862,7.399e-4 0.015213,0.070481 0.01683,0.079284 0.00116,0.00654 -5.122e-4,0.013126 -0.00602,0.016817 -0.020733,0.013724 -0.035197,0.035462 -0.038464,0.060062 -0.00626,0.046552 -0.0012,0.095842 -0.032455,0.1357435 -0.013188,0.01691 -0.043825,0.048326 -0.079291,0.034833 C 7.365167,4.8457983 7.3246736,4.8369078 7.2840919,4.8349878 7.1165756,4.8271078 7.0183544,4.791464 6.9691573,4.7665154 6.9330767,4.748178 6.888601,4.7573863 6.8621757,4.7881391 c -0.01177,5.123e-4 -0.024811,0.00168 -0.038464,0.00239 -0.024694,0.00139 -0.043071,0.024026 -0.037263,0.048051 0.013079,0.054395 0.013212,0.1098537 -0.050486,0.2726883 -0.00248,0.00629 -0.00522,0.014464 -0.00841,0.020422 -0.020657,0.038441 -0.095048,0.1145531 -0.076931,0.134542 0.00204,0.00227 0.00425,0.00358 0.00721,0.00359 0.015503,3.416e-4 0.029321,0.00953 0.034859,0.024026 0.00472,0.012302 0.00563,0.025639 0.00239,0.038441 -0.00523,0.021219 -0.028502,0.095823 -0.019234,0.1141206 0.00527,0.010265 0.015366,0.017232 0.026444,0.020422 0.016194,0.00477 0.026945,0.017933 0.040869,0.026427 0.010422,0.00607 0.043476,-0.00929 0.063708,-0.018018 0.015003,-0.00634 0.024581,-0.010426 0.057698,0.027628 0.030694,0.035058 0.0073,0.1163406 0.072122,0.1177243 0.017653,1.153e-4 0.026868,-0.016201 0.031254,-0.026427 0.00469,-0.01134 0.00488,-0.011226 0.1298204,-0.038441 0.055352,-0.012149 0.109174,0.02269 0.1646796,0.00602 0.042542,-0.013034 0.044398,-0.069424 0.087749,-0.081686 0.028772,-0.00823 0.059439,0.00739 0.087748,-0.00721 0.015232,-0.00831 0.00131,-0.054913 0.018029,-0.069673 0.025773,-0.022142 0.0366,-0.057651 0.026444,-0.090096 -0.00477,-0.015532 -0.00359,-0.020161 -0.0012,-0.031233 0.00276,-0.013417 0.043889,-0.036279 0.067313,-0.090096 0.00199,-0.00458 0.00414,-0.0092 0.00721,-0.012012 0.076431,-0.069885 0.1801523,-0.086194 0.266853,-0.1357436 0.076124,-0.043591 0.023097,-0.1612966 0.1129917,-0.1970081 0.083201,-0.03306 0.1441583,0.082493 0.2295899,0.033637 0.090663,-0.051664 0.2034526,-0.1154086 0.2271854,-0.1165231 0.024694,-0.00116 0.047379,0.00464 0.066112,0.013214 0.028618,0.013146 0.053064,0.034511 0.069718,0.061265 0.082239,0.1320817 0.2385425,0.1879265 0.3341679,0.3063236 0.014309,0.01776 0.087659,0.061669 0.1153954,0.087692 0.044999,0.042054 0.018576,-0.013482 0.057697,0.054058 1.928e-4,3.129e-4 9.997e-4,8.828e-4 0.00123,0.0012 0.01908,0.029561 0.052281,0.081484 0.020432,0.0949 -0.02231,0.00926 -0.021951,0.016336 -0.021633,0.024026 4.555e-4,0.017106 -0.01399,0.032732 -0.00359,0.050454 0.00287,0.005 0.014421,0.021296 0.038464,0.00961 0.028465,-0.014607 0.017499,-0.020056 0.028844,-0.042045 0.02793,-0.055969 0.027141,-0.058978 0.026443,-0.058862 0.00964,-0.00689 0.028248,-0.00165 0.031254,-0.018018 0.00738,-0.039056 -0.020422,-0.052768 -0.038464,-0.061265 -0.011498,-0.00566 -0.033357,-0.015924 -0.020432,-0.049251 3.131e-4,-8.494e-4 8.212e-4,-0.00159 0.00123,-0.00239 1.158e-4,-3.13e-4 0.00113,3.131e-4 0.00123,0 0.013622,-0.029331 0.047164,-0.042603 0.076931,-0.030031 0.021736,0.0093 0.038844,0.013589 0.046877,0.036039 0.00143,0.00407 0.00257,0.00778 0.00237,0.01081 -4.554e-4,0.00984 -7.395e-4,0.01894 0.00359,0.022824 0.00604,0.00549 0.026803,8.829e-4 0.032454,-0.00961 0.00338,-0.00607 0.00748,-0.026131 0.00718,-0.032434 0,-2.305e-4 7.69e-5,-9.366e-4 0,-0.0012 -1.15e-4,-9.636e-4 -7.108e-4,-0.00158 -0.00123,-0.00239 -0.053631,-0.083993 -0.1535667,-0.090143 -0.2307668,-0.1345423 -0.00862,-0.005 -0.014627,-0.013523 -0.015622,-0.022825 -0.00205,-0.019259 -0.017951,-0.034952 -0.037265,-0.034837 -0.047307,5.121e-4 -0.092111,-0.022247 -0.1190029,-0.061265 L 8.7037632,4.7401228 c -0.00681,-0.00984 -0.013348,-0.019498 -0.019234,-0.030031 -0.010578,-0.019219 -5.121e-4,-0.042919 0.019234,-0.050453 0.00122,-5.121e-4 0.00225,-7.683e-4 0.00359,-0.0012 0.031349,-0.00938 0.065015,0.00271 0.08294,0.030031 0.00892,0.013608 0.017345,0.028667 0.033654,0.027628 0.019694,-0.00122 0.039327,0.00402 0.055298,0.015616 l 0.2788744,0.2030145 0,0.0012 c 0,0 0.023274,0.00392 0.058898,0.027628 0.00769,0.00512 0.017602,0.00756 0.026443,0.00721 0.013888,-5.691e-4 0.02754,0.0044 0.038464,0.013214 0.04224,0.034058 0.069309,0.083051 0.07573,0.1369449 0.00287,0.024062 0.00482,0.045658 0.00604,0.061264 0.00143,0.020067 0.011221,0.038807 0.027644,0.050454 0.00748,0.0053 0.017448,0.012407 0.022843,0.018018 0.00674,0.00724 0.00767,0.00963 0.020432,0.031233 0.00512,0.00895 0.037867,0.038307 0.040865,0.040844 0.00131,0.00116 0.00495,0.00349 0.01082,0.0036 l 0.00124,0 c 0.00995,1.921e-4 0.019078,-0.00418 0.028843,-0.0036 0.030115,0.00177 0.075938,0.040045 0.1105883,0.022824 0.00308,-0.00154 0.039668,-0.022824 0.039668,-0.022824 0.084161,-0.038787 -0.019422,-0.078083 -0.022845,-0.1165232 -0.00125,-0.013915 0.004,-0.024927 0.013225,-0.031233 0.00872,-0.00593 0.019904,-0.0065 0.031256,-0.0012 0.00633,0.00284 0.0135,0.00161 0.01923,-0.00239 0.00692,-0.00484 0.011535,-0.012196 0.013225,-0.02042 0.00913,-0.044168 0.053917,-0.05646 0.098563,-0.05646 0.037266,0 0.074477,0.00956 0.1069818,0.027628 0.013319,0.00738 0.029052,0.010494 0.04447,0.00961 0.029007,-0.00165 0.055952,-0.011647 0.079322,-0.028831 0.01097,-0.00802 -0.01351,0.021172 -0.068515,0.042043 -4.547e-4,1.54e-4 -8.33e-4,9.996e-4 -0.00126,0.0012 -0.022974,0.00937 -0.035591,0.03352 -0.030052,0.057661 0.011122,0.048436 0.1117993,0.096294 0.045668,0.1585676 -7.745e-4,7.977e-4 -0.00162,0.00171 -0.00234,0.00239 0.036852,0.014952 0.067399,0.041584 0.087752,0.07568 0.06704,0.1122465 0.291556,0.1475254 0.311327,0.099706 7.7e-5,-1.924e-4 -3.7e-5,-9.997e-4 0,-0.0012 0.0098,-0.025677 0.03918,-0.038595 0.06491,-0.028831 0.05117,0.019373 0.09629,0.057613 0.155063,0.051655 0.03335,-0.00346 0.05828,-0.015406 0.07813,-0.032434 0.05519,-0.047398 0.124589,-0.075997 0.197134,-0.081686 6.26e-4,-3.85e-5 7.69e-4,-4.553e-4 0.0013,0 4.56e-4,5.121e-4 1.17e-4,0.0018 0,0.00239 -0.0365,0.2140757 0.202722,0.4520809 -0.03246,0.6462827 -0.01857,0.015378 -0.05199,0.022199 -0.07573,0.026427 -0.212136,0.037478 -0.42658,0.00484 -0.639485,0.019219 -0.123051,0.00834 -0.140639,-0.036548 -0.1791051,-0.037239 l -0.00126,0 -0.00126,0 c -0.041452,8.512e-4 -0.048657,8.845e-4 -0.1105405,-0.013213 -0.038468,-0.00876 -0.14235,-0.1560594 -0.2824795,-0.042045 -0.040159,0.032752 -0.063699,0.075296 -0.062507,0.099706 0.017501,0.3501174 -0.4139968,0.092498 -0.4459229,0.054058 C 9.0092194,6.1444801 8.9433621,6.1019839 8.8696618,6.0807265 8.7886183,6.0572793 8.6909526,6.0252476 8.6292544,5.9930342 8.5824807,5.9686248 8.5257634,5.9534214 8.5018379,5.9521915 c -0.00866,-0.00143 -0.013203,-0.043073 0.013224,-0.069673 0.0697,-0.070231 0.091874,-0.098494 0.069718,-0.1357435 -0.058236,-0.097909 -0.019569,-0.089854 -0.07092,-0.1561649 -1.925e-4,-1.924e-4 -0.00105,-9.637e-4 -0.0012,-0.0012 -0.018155,-0.023333 -0.046264,-0.035519 -0.075728,-0.033636 -0.8714697,0.055509 -1.0589494,0.080995 -1.2308893,0.1633727 -0.015232,0.00711 -0.046379,0.021372 -0.094961,0 -0.037196,-0.016413 -0.07945,-0.01826 -0.1177997,-0.00482 -0.056389,-0.037211 -0.1303205,-0.032943 -0.1827102,0.00961 l -0.2836732,0.230656 c -0.028656,0.023256 -0.053476,0.050511 -0.073325,0.081686 -0.051274,0.080841 -0.048264,0.1414422 -0.046878,0.1705802 0.00482,0.090835 -0.2545056,0.2582249 -0.3918651,0.2426566 -1.924e-4,-3.84e-5 -9.456e-4,0 -0.0012,0 -0.063007,0.025332 -0.1169729,0.047685 -0.4327346,0.4877154 -0.17348,0.2415609 -0.1732395,0.2417244 -0.1382361,0.3087263 0.01881,0.035982 0.056534,0.1093444 0.027648,0.3099277 -0.00183,0.012955 -0.00405,0.025563 -0.00721,0.038441 -0.0015,0.00601 -0.00304,0.012061 -0.00482,0.018019 L 5.3368811,8.0159786 c -0.034003,0.1127848 -0.01156,0.2355834 0.060103,0.3291477 3.984e-4,5.691e-4 -2.692e-4,0.0018 0,0.00239 l 0.026444,0.049251 c 0.00438,0.00827 0.00942,0.016656 0.013224,0.025225 0.026003,0.058967 0.062362,0.3895667 0.1598714,0.5393697 0.015269,0.023409 0.032888,0.045263 0.052889,0.064868 L 5.9571348,9.327746 c 0.054005,0.053084 0.1611695,0.08901 0.2355999,0.1033094 0.2193675,0.042124 0.4513803,0.043557 0.6671322,0.1249318 0.010464,0.00392 0.024908,0.010268 0.036062,0.01081 0.2499477,0.01684 0.45516,-0.1907908 0.6971836,-0.2078195 0.05689,-0.00383 0.1725167,0.032488 0.2019429,0.2018132 0.021808,0.126085 0.2159826,0.086857 0.3077222,0.060063 0.04162,-0.012142 0.087182,-0.010368 0.1274164,0.00608 3.128e-4,1.532e-4 -3.86e-5,8.328e-4 0,0.00116 0.00276,0.027408 0.027867,0.047954 0.055294,0.045647 7.977e-4,-3.92e-5 0.00161,7.66e-5 0.00239,0 0.01577,-0.00159 0.030974,0.00483 0.039668,0.018014 0.050045,0.075654 0.04011,0.1255755 0.032455,0.1621712 -1.154e-4,4.268e-4 1.156e-4,7.681e-4 0,0.00117 l -0.00359,0.012005 c -7.71e-5,5.125e-4 7.68e-5,7.115e-4 0,0.00117 -0.00199,0.00911 -0.00354,0.018363 -0.00482,0.02763 -0.025313,0.1855527 -0.010195,0.2723517 -0.096163,0.3411597 -0.00927,0.0075 -0.015666,0.01664 -0.020435,0.02762 0.093239,0.191165 0.2957019,0.288305 0.2957019,0.288305 0.029773,0.03167 0.2049619,0.334019 0.22358,0.467294 0.028464,0.20285 0.028424,0.164142 0.033654,0.172982 0.089588,0.146381 0.011386,0.21471 -0.043276,0.242657 -0.016699,0.0086 -0.02427,0.01502 -0.028844,0.02403 -0.0082,0.01608 -0.01858,0.03204 -0.028849,0.04685 -0.00892,0.01276 -0.1207422,0.315665 -0.1202039,0.3784 l 0,0.0013 c 4.553e-4,0.05751 0.096317,0.111824 0.1298205,0.158567 l 0.2151654,0.301519 c 0.0037,0.0052 0.00801,0.01066 0.012022,0.01562 0.074551,0.09399 -0.040219,0.226368 0.026443,0.32074 0.021736,0.03079 0.074131,0.154811 0.1021737,0.174186 0.043656,0.03005 0.2273689,0.293896 0.1730941,0.338756 -0.00575,0.0048 -0.00615,0.01804 -0.00359,0.02522 0.01635,0.04712 0.2390523,0.121472 0.3209451,0.08649 0.1216659,-0.05197 0.3768441,-0.09203 0.4808166,-0.0913 0.143783,0.0012 0.834667,-0.494635 0.780124,-0.665504 -7.4e-4,-0.0023 -3.41e-4,-0.005 0,-0.0072 0.08089,-0.09541 0.31531,-0.212567 0.308924,-0.224637 -1.16e-4,-2.31e-4 1.16e-4,-9.91e-4 0,-0.0013 0.03039,-0.06747 0.04034,-0.122539 0.04087,-0.166976 0.0015,-0.120781 0.06027,-0.234634 0.157467,-0.306325 0.08289,-0.0613 0.203952,-0.148092 0.381047,-0.276291 0.110588,-0.08007 0.165689,-0.136629 0.156265,-0.481709 -0.0087,-0.316521 -0.06526,-0.564098 -0.08414,-0.617453 -0.02653,-0.07485 -0.01907,-0.08849 0.01082,-0.144152 0.08889,-0.164065 0.209453,-0.309102 0.2945,-0.4757021 0.135205,-0.2647417 0.300856,-0.420272 0.391865,-0.5045329 0.004,-0.00375 0.0086,-0.00783 0.01201,-0.012009 0.16467,-0.1929342 0.258689,-0.4533792 0.318541,-0.6979382 0.01269,-0.051857 0.03289,-0.1004258 0.04808,-0.1513602 0.01146,-0.038556 0.02885,-0.07198 0.04929,-0.2714867 0.0036,-0.034097 -0.01608,-0.064677 -0.01443,-0.098505 0.0076,-0.13139 -0.03723,-0.016165 -0.07573,0.0024 -0.09836,0.046667 -0.04498,0.031146 -0.08775,0.058862 -0.02077,0.013069 -0.180345,0.068731 -0.199538,0.086491 -0.02239,0.020719 -0.04326,0.043861 -0.07573,0.048051 -0.195366,0.024449 -0.229945,0.028262 -0.26445,-0.00359 -0.0327,-0.03003 -0.05265,-0.06697 -0.0613,-0.1104848 -0.009,-0.045753 -0.03219,-0.088624 -0.0673,-0.1214132 -0.187029,-0.174263 -0.553922,-0.2872111 -0.640698,-0.7603 -0.01319,-0.071116 -0.533832,-0.8233599 -0.640688,-0.975431 -0.01196,-0.016952 -0.01606,-0.038797 -0.01082,-0.058861 0.02032,0.051741 0.100902,0.14371 0.150257,0.1946056 0.01411,0.014607 0.03433,0.021834 0.05049,0.00961 0.01923,-0.014607 0.0069,-0.036826 0.01082,-0.1057118 0.0012,-0.019679 0.02927,-0.020499 0.03246,-0.0012 0.0072,0.043015 0.02751,0.081427 0.0589,0.1117177 0.06916,0.066657 0.153649,0.1905024 0.209155,0.2774936 0.03404,0.053394 0.08064,0.097399 0.135831,0.1285355 0.07897,0.044592 0.102203,0.117571 0.158668,0.2907076 0.0669,0.2050423 0.306733,0.2533332 0.395473,0.4384633 0.07516,0.1561842 0.09562,0.3346449 0.191124,0.4829104 6.54e-4,0.00104 0.0016,0.00145 0.0023,0.0024 0.01215,0.016454 0.03289,0.025073 0.05288,0.020421 0.145244,-0.034059 0.314068,-0.2162188 0.355803,-0.2486628 0.08762,-0.068232 0.150438,-0.1192811 0.197135,-0.1585676 0.06363,-0.053547 0.108414,-0.1257007 0.127416,-0.2066183 0.01608,-0.068194 0.120262,-0.1283436 0.151458,-0.1285359 0.0812,-6.145e-4 0.04428,-0.1053945 0.07813,-0.1525612 0.03608,-0.049781 0.03903,-0.1060287 0.08054,-0.1501586 0.01338,-0.014186 0.02821,-0.024987 0.04567,-0.033636 0.0017,-8.412e-4 0.0032,-0.00284 0.0036,-0.00481 0.01025,-0.053164 -0.02333,-0.1015983 -0.02285,-0.1537626 1.54e-4,-0.013454 0.01299,-0.024314 0.02644,-0.021624 4.56e-4,7.71e-5 7.7e-4,3.131e-4 0.0013,0 3.42e-4,-2.688e-4 0.0012,-7.398e-4 0.0013,-0.0012 0.02882,-0.1641799 0.08393,-0.3030372 -0.0613,-0.3711925 -0.05729,-0.027216 -0.126493,0.01629 -0.180306,-0.030031 -3.12e-4,-2.692e-4 -9e-4,-9.456e-4 -0.0013,-0.0012 -0.0295,-0.025371 -0.0689,-0.035471 -0.106981,-0.027628 -0.03808,0.00784 -0.07075,0.03229 -0.08775,0.06727 -1.54e-4,2.689e-4 1.16e-4,9.366e-4 0,0.0012 -0.01489,0.03033 -0.04345,0.051693 -0.07693,0.05646 -0.05405,0.00761 -0.04861,0.016721 -0.09015,0.04805 -0.08805,-0.046168 -0.143263,-0.050703 -0.454371,-0.5141432 -0.09286,-0.1380787 0.03448,-0.2067147 0.07813,-0.1561649 0.03873,0.041939 0.196692,0.2085498 0.32455,0.2798956 0.04344,0.02418 0.174335,0.05719 0.198336,0.013214 0.08882,-0.1623733 0.152333,-0.044159 0.164681,-0.018018 0.06531,0.1388475 0.247947,0.017182 0.28849,0.019219 0.08866,0.00453 0.08011,-0.013712 0.334168,-0.1573664 0.100664,-0.057007 0.222704,-0.065809 0.330561,-0.024026 0.107895,0.042093 0.191181,0.1303522 0.227185,0.240254 C 13.605569,4.3613261 12.188084,2.79641 10.345749,2.0697033 z M 5.0544147,2.3627848 c -0.6164009,0.3260236 -1.1733716,0.749455 -1.6479975,1.251723 0.00195,-4.552e-4 0.00397,-5.406e-4 0.00602,0 0.075315,0.02095 0.0702,0.00457 0.1346285,-0.073278 0.037426,-0.045206 0.1053852,-0.061293 0.1430428,-0.074478 0.037657,-0.013187 0.099692,-0.019219 0.099769,-0.019219 0.036272,-0.00677 0.1404558,0.01604 0.1706895,-0.00841 0.025312,-0.020487 -0.00768,-0.026917 0.00721,-0.049251 0.014271,-0.021296 0.026331,-0.044794 0.036062,-0.068473 0.00831,-0.020104 0.033262,-0.025937 0.051687,-0.037239 0.031349,-0.019259 0.00122,-0.018568 -0.00482,-0.028831 -0.00466,-0.00792 3.982e-4,-0.037681 0.012019,-0.039641 1.538e-4,0 0.00105,0.00105 0.0012,0.0012 0.016501,0.015184 0.039417,0.020653 0.061304,0.015616 0.01908,-0.00434 0.025754,-0.011177 0.031254,-0.022824 0.00381,-0.00802 0.010655,-0.013156 0.019235,-0.015616 1.151e-4,-3.82e-5 -7.71e-5,-0.00116 0,-0.0012 0.051505,-0.1237021 -0.1766232,-0.052702 -0.1767,-0.052856 -0.00923,-0.018337 0.120329,-0.060228 0.1406388,-0.06607 1.537e-4,1.537e-4 9.636e-4,-7.68e-5 0.0012,0 0.012117,0.00319 0.023311,0.00168 0.033658,-0.00239 0.06189,-0.024295 0.1318782,0.00666 0.1562653,0.068472 0.00661,0.016644 0.019993,0.029022 0.037263,0.033637 0.020348,0.00541 0.040927,0.011674 0.062507,0.00359 0.1111261,-0.0414 0.1428601,-0.00692 0.2356,-0.048052 2.692e-4,-7.71e-5 9.636e-4,1.153e-4 0.0012,0 0.1208964,-0.053932 0.12657,-0.3213062 0.2908938,-0.4684954 0.016118,-0.014416 0.033338,-0.028071 0.051687,-0.039641 0.030041,-0.018952 0.049956,-0.04781 0.070921,-0.075681 0.010002,-0.013263 0.020838,-0.026563 0.032455,-0.038441 0.013964,-0.014223 0.01628,-0.036836 0.00602,-0.054058 -0.01054,-0.017606 -0.032148,-0.025602 -0.051687,-0.019219 -0.013693,0.00453 -0.039032,0.014433 -0.046878,0.00239 -0.00265,-0.00426 -0.00259,-0.010072 0,-0.014416 0.00573,-0.00961 0.020329,-0.029331 0.021637,-0.038441 0.00105,-0.00761 0.00614,-0.015423 0.012019,-0.02042 z m 2.4750014,0.9766323 c -0.00811,0 -0.01577,4.837e-4 -0.02404,0.0036 -0.00538,0.00199 -0.011685,0.00922 -0.018029,0.018018 -0.012925,0.018029 -0.028255,0.03425 -0.045677,0.048052 -9.636e-4,7.398e-4 -0.00272,0.00171 -0.00359,0.00239 -0.00484,0.0037 -0.010206,0.00348 -0.015626,0.0012 -0.00319,-0.00133 -0.00762,-0.00131 -0.01082,0 -6.544e-4,2.691e-4 -5.974e-4,8.827e-4 -0.0012,0.0012 -0.00593,0.00312 -0.011231,0.00802 -0.014424,0.013214 -0.004,0.00642 -0.00276,0.014885 0.00239,0.02042 0.00515,0.00554 0.013781,0.00593 0.020433,0.00239 3.84e-5,7.69e-5 -3.85e-5,0.00107 0,0.0012 9.186e-4,0.0021 9.186e-4,0.00393 0,0.00602 -0.00389,0.00849 -0.00492,0.017856 -0.00841,0.026427 -3.984e-4,9.636e-4 -0.00128,0.00222 -0.00239,0.00239 -0.00154,2.692e-4 -0.00272,-0.00105 -0.0036,-0.00239 -0.00435,-0.00677 -0.00658,-0.00662 -0.00961,-0.00602 -2.691e-4,7.7e-5 -9.366e-4,-3.86e-5 -0.0012,0 -0.01227,0.00253 -0.020936,0.031378 -0.020434,0.039642 1.923e-4,0.00284 0.00105,0.00455 0.00239,0.00602 0.015809,0.017338 0.017568,0.043514 0.0036,0.062466 -0.00145,0.00195 -0.00373,0.00397 -0.00482,0.00602 -0.00204,0.00407 -2.037e-4,0.00948 0.0036,0.012014 0.00389,0.00253 0.00902,0.00231 0.012019,-0.0012 0.00361,-0.00423 0.00842,-0.00967 0.014424,-0.016818 0.0056,-0.00677 0.00733,-0.0096 0.015625,-0.013214 0.0065,-0.00283 0.012501,-0.00503 0.019234,-0.00721 0.00253,-8.495e-4 0.00629,-4.27e-4 0.00841,0.0012 0.0021,0.00161 0.00248,0.00331 0.00239,0.00602 -6.546e-4,0.015415 0.00471,0.032339 -0.010819,0.044447 -0.00888,0.007 -0.015129,0.012321 -0.020435,0.016817 -0.00523,0.00437 -0.00681,0.012023 -0.0036,0.018018 0.00327,0.00603 0.010247,0.00909 0.01683,0.00721 l 0,0.0012 c 5.693e-4,4.267e-4 0.00105,4.552e-4 0.0012,0.0012 0.00436,0.018297 0.00585,0.018212 0.030051,0.0036 7.683e-4,-4.554e-4 0.00158,-2.305e-4 0.00239,0 4.268e-4,1.155e-4 9.997e-4,-3.985e-4 0.0012,0 0.0033,0.00642 0.00793,0.012503 0.014424,0.015616 0.009,0.00438 0.015875,0.012674 0.018028,0.022824 1.152e-4,5.691e-4 -1.54e-4,5.123e-4 0,0.0012 1.921e-4,5.69e-4 9.997e-4,0.00183 0.0012,0.00239 0.00824,0.025178 0.00191,0.052192 -0.01683,0.070876 -0.01877,0.018681 -0.047004,0.025199 -0.072122,0.016818 -0.0042,-0.00139 -0.00948,-3.83e-5 -0.012019,0.00359 -0.00253,0.00365 -0.00159,0.0086 0.0012,0.012012 0.00248,0.00307 0.00488,0.00655 0.00482,0.01081 -4.27e-4,0.015646 -0.02033,0.010002 -0.026445,0.020423 -3.984e-4,7.398e-4 1.156e-4,0.00149 0,0.00239 -1.923e-4,0.00199 -3.13e-4,0.00341 0.0012,0.00482 0.0015,0.00139 0.00402,0.00282 0.00602,0.00239 0.00904,-0.00199 0.016906,-0.010002 0.026444,-0.01081 0.018002,-0.0012 0.00351,0.043843 -0.00239,0.050454 -0.00658,0.00735 -0.051688,0.023188 -0.066113,0.025225 -0.00923,0.00142 -0.014953,0.00271 -0.018029,0.00602 -0.00288,0.00327 -0.00557,0.021479 0.00721,0.027628 0.019465,0.00926 0.038388,-0.00739 0.057697,-0.00239 0.018272,0.00477 0.033955,0.015183 0.046878,0.028831 0.00107,0.0012 0.00342,0.00187 0.00482,0.00239 0.00626,0.00249 0.013038,0.00145 0.019234,-0.0012 0.0015,-6.544e-4 0.00237,-0.00128 0.00359,-0.00239 0.00512,-0.00449 0.011329,-0.00581 0.01683,-0.00602 0.00412,-1.536e-4 0.00711,0.00204 0.00841,0.00602 0.00133,0.004 -1.463e-4,0.00835 -0.0036,0.010811 -0.014077,0.010073 -0.027224,0.020249 -0.046878,0.018018 -0.010464,-0.0012 -0.021994,-0.00111 -0.032455,0 -0.032233,0.00341 -0.062035,0.018672 -0.085345,0.042045 -0.00781,0.00781 -0.016618,0.015176 -0.02404,0.022824 -0.004,0.00412 -0.00358,0.011118 0,0.015616 0.00358,0.00449 0.00954,0.0054 0.014425,0.00239 0.00338,-0.00204 0.0067,-0.0047 0.010819,-0.00721 0.013769,-0.00854 0.039117,-0.018116 0.052889,0.00841 1.925e-4,3.83e-5 9.996e-4,-3.85e-5 0.0012,0 0.00204,6.26e-4 0.00427,6.91e-5 0.00602,-0.0012 0.018618,-0.013954 0.028024,-0.0397 0.055292,-0.042043 0.019388,-0.0015 0.034205,0.017367 0.054093,0.013214 0.022273,-0.00466 0.03955,-0.021729 0.063708,-0.020422 0.00892,5.124e-4 0.033677,0.00699 0.036062,0.00841 0.00673,0.00412 0.00708,0.00418 0.043274,0.00482 0.015232,2.689e-4 0.026444,0.012149 0.040869,0.014416 0.01754,0.00272 0.033253,-0.00747 0.050486,-0.00602 4.553e-4,0 0.052689,-0.00986 0.051687,-0.031233 0,-4.269e-4 3.984e-4,-9.637e-4 0,-0.0012 -2.307e-4,-1.156e-4 -9.636e-4,1.152e-4 -0.0012,0 -0.018155,-0.010725 -0.029994,-0.029542 -0.032455,-0.050453 -1.923e-4,-0.00161 8.288e-4,-0.00314 0.00239,-0.00359 0.00165,-5.123e-4 0.00335,4.6e-5 0.00482,0.0012 0.00105,8.495e-4 0.0015,0.0018 0.00239,0.00239 0.00562,0.00376 0.00994,0.00386 0.012019,0.00239 0.012386,-0.00892 0.025118,-0.017808 0.038464,-0.025225 0.00714,-0.00395 0.011627,-0.012023 0.015628,-0.027628 0.00111,-0.00482 0.00614,-0.029321 -0.025244,-0.04685 -1.922e-4,-7.69e-5 -9.996e-4,1.154e-4 -0.0012,0 -0.00259,-0.00145 -0.060429,-0.031897 -0.076931,-0.022824 -0.011,0.00581 -0.01102,0.00566 -0.031253,-0.00482 -7.4e-4,-0.003 1.93e-5,-0.00532 0.00239,-0.00721 0.023042,-0.01776 0.023299,-0.017788 0.02284,-0.022824 -8.495e-4,-0.01107 -0.0066,-0.019086 -0.013223,-0.026427 -0.00581,-0.00638 -0.00613,-0.015791 -0.0012,-0.022824 1.154e-4,-1.152e-4 -7.69e-5,-0.00107 0,-0.0012 0.00442,-0.00601 -0.018963,-0.054913 -0.019235,-0.055257 -0.00154,-0.00168 -0.00282,-0.00259 -0.00602,-0.00239 -0.00965,6.544e-4 -0.019157,0.00126 -0.028849,0.0012 -0.0012,0 -0.00249,-3.985e-4 -0.00482,0 -2.69e-4,3.83e-5 -0.00107,2.307e-4 -0.0012,0 -5.407e-4,-9.636e-4 -2.692e-4,-0.00257 0,-0.0036 0.00307,-0.012149 -0.0085,-0.020085 -0.00961,-0.031233 -0.00111,-0.011264 0.00126,-0.021326 0.00239,-0.032434 9.186e-4,-0.00996 -4.269e-4,-0.021516 -0.00359,-0.032433 -0.011693,-0.040056 -0.00943,-0.083079 0.00482,-0.1213283 0.00595,-0.015915 0.014117,-0.030684 0.02404,-0.044447 0.022965,-0.031867 -0.080267,-0.027695 -0.099769,-0.026427 -0.0015,7.68e-5 -0.00279,-0.00107 -0.00359,-0.00239 -7.682e-4,-0.00131 -8.495e-4,-0.00225 0,-0.0036 0.005,-0.00754 0.00619,-0.017492 0.013224,-0.024026 0.00943,-0.009 0.021682,-0.01261 0.032455,-0.019219 0.023773,-0.014838 0.00389,-0.022957 -0.00482,-0.025225 -0.020693,-0.00535 -0.042321,-0.00837 -0.063707,-0.00841 z m -0.262045,0.2570715 c -0.00293,-5.1e-6 -0.00566,4.838e-4 -0.00841,0.0012 -0.045737,0.011763 -0.082056,0.079005 -0.097365,0.078082 -0.019388,-0.00103 -0.027867,-0.0018 -0.040869,0.00841 -0.010042,0.00772 -0.011809,0.020807 -0.019235,0.030031 -0.0087,0.011263 -0.019924,0.020085 -0.028849,0.031233 -0.00747,0.00915 -0.010464,0.01697 0,0.026427 0.00774,0.00677 0.011915,0.010236 -0.01082,0.039641 -0.018809,0.024179 -0.049428,0.037519 -0.062507,0.06727 -0.00466,0.010801 -0.00394,0.032271 -0.00239,0.040844 0.00595,0.031022 0.053939,0.018538 0.082941,0.00602 0.026347,-0.011417 0.050207,-0.027305 0.078132,-0.034837 2.308e-4,-7.69e-5 9.996e-4,-0.00114 0.0012,-0.0012 0.038464,-0.010531 0.072565,1.537e-4 0.084143,-0.014416 0.011309,-0.014416 0.03059,-0.040275 0.039668,-0.061264 0.00436,-0.010418 -0.00664,-0.024976 0.00721,-0.032433 0.015427,-0.00846 7.682e-4,-0.02536 0.00482,-0.037239 0.010656,-0.031675 0.018675,-0.031867 0.031254,-0.033636 0.012194,-0.00177 0.023417,-0.00307 0.027648,-0.00961 0.018677,-0.027569 -0.042625,-0.1044298 -0.086549,-0.1045122 z m 3.4835129,0.7099506 c 0.0061,-8.827e-4 0.02095,0.014117 0.01683,0.025225 -0.0027,0.00724 -0.009,0.019017 -0.02405,0.027628 -0.01785,0.010302 -0.06245,0.032675 -0.0601,0.052856 0.0031,0.025371 0.03383,0.015463 0.04929,0.025225 0.01173,0.00749 0.0068,0.013264 0.0036,0.024026 -0.0086,0.030329 -0.02135,0.059651 -0.03967,0.08529 -9.9e-4,0.00145 -0.0027,0.00213 -0.0023,0.0036 0.0036,0.019489 0.0044,0.019902 0.07212,0.04685 0.03012,0.011994 0.06348,-0.00462 0.09255,0.013214 0.06601,0.040478 0.116156,0.105039 0.191124,0.1321397 0.02493,0.009 0.107712,0.042938 0.126214,0.1057117 0.03412,0.115591 -0.106682,0.1378674 -0.156265,0.1129195 -0.02853,-0.014376 -0.0408,0.017905 -0.0613,0.027628 -8.33e-4,4.553e-4 -0.0027,7.398e-4 -0.0036,0.0012 -0.01462,3.415e-4 -0.0296,-0.00331 -0.03967,-0.00602 -0.02469,-0.00692 -0.128504,-0.00788 -0.167084,-0.024026 -0.0086,-0.00418 -0.139475,-0.053413 -0.149053,-0.050453 -0.04181,0.0128 -0.09117,-0.01704 -0.12982,0.013214 -0.02293,0.017719 -0.05075,0.026572 -0.07333,0.044447 -0.03148,0.024833 -0.03316,0.026371 -0.03365,0.033636 -7.8e-5,6.829e-4 7.7e-5,0.00171 0,0.00239 -8.33e-4,0.00834 -0.0019,0.014914 -0.01201,0.019219 -0.01227,0.00523 -0.03126,0.00841 -0.04087,0.00841 -0.02824,1.155e-4 -0.05595,0.00448 -0.08414,0.0012 -0.02547,-0.00288 -0.05014,0.014866 -0.07573,0.0036 -0.04693,-0.019833 -0.08701,-0.052183 -0.116597,-0.093699 l -0.03006,-0.040844 c -0.0022,-0.00304 -0.0018,-0.00758 0,-0.01081 0.0025,-0.00438 0.0077,-0.00747 0.01803,0.00239 0.0016,0.00161 0.0041,0.00225 0.0061,0.0012 0.0019,-0.00107 0.0028,-0.00385 0.0023,-0.00602 -0.0059,-0.02445 -0.01677,-0.060064 -0.0084,-0.084089 1.15e-4,-2.309e-4 0.0012,-9.637e-4 0.0013,-0.0012 0.005,-0.014262 0.02514,-0.010733 0.03005,-0.025225 0.0057,-0.016837 -0.0038,-0.033028 -0.0049,-0.049251 -6.54e-4,-0.00761 0.0072,-0.077853 0.0072,-0.078082 l 0.0013,0 c 0.01361,-0.00647 0.01996,-0.017182 0.02284,-0.028831 0.0077,-0.030675 0.02052,-0.058911 0.03967,-0.084089 0.0052,-0.00689 0.01123,-0.023027 0.02524,-0.062465 0.0052,-0.015144 0.0072,-0.018883 0.03005,-0.025225 0.02785,-0.00776 0.05662,-0.00951 0.08534,-0.00602 0.01523,0.00187 0.03345,0.00426 0.05529,0.00961 0.0019,5.121e-4 0.0039,0.0018 0.0049,0.00359 0.0013,0.00242 7.8e-5,0.00585 -0.0023,0.00721 -0.0063,0.00349 -0.0097,0.010717 -0.0084,0.018018 0.0015,0.00811 0.0086,0.014298 0.01683,0.014416 0.01027,1.153e-4 0.01945,-0.00457 0.02764,-0.00841 0.01389,-0.0063 0.01983,-0.00892 0.03126,-0.0012 0.0089,0.00607 0.01341,0.016903 0.01202,0.027628 -0.0031,0.023524 -0.03525,0.023131 -0.03485,0.042043 1.92e-4,0.00776 0.0059,0.014436 0.01323,0.016818 0.03636,0.010919 0.06089,0.0375 0.07212,0.069673 4.27e-4,0.00128 0.0017,0.00237 0.0023,0.00359 0.0016,0.00284 0.0084,0.011801 0.02764,0.00961 0.0073,-9.996e-4 0.07788,-0.067896 0.08054,-0.073278 0.0053,-0.010919 -0.0097,-0.013493 -0.02042,-0.019219 -0.0254,-0.013531 -0.04244,-0.039835 -0.04447,-0.068472 -0.0022,-0.028677 0.01047,-0.056248 0.03366,-0.073278 1.93e-4,-1.152e-4 9.9e-4,7.68e-5 0.0013,0 l 0.12982,-0.075681 c 0.0023,-0.00131 0.0059,-0.0021 0.0084,-0.00239 0.0083,-9.186e-4 0.06461,-0.034895 0.08534,-0.03724 z M 9.0043197,5.4704693 c -0.00123,-1.152e-4 -0.00237,9.636e-4 -0.00359,0.0012 -0.00584,0.00107 -0.01079,0.00407 -0.016833,0.00482 -0.019234,0.00199 -0.016925,-0.0062 -0.033654,0.0036 -0.00851,0.00496 -0.016402,0.010871 -0.026443,0.013214 -0.00954,0.0021 -0.018105,-0.00337 -0.027644,-0.00239 -0.013006,0.00103 -0.021243,0.013523 -0.034855,0.013214 -0.018115,-5.121e-4 -0.029797,-0.016223 -0.046877,-0.019219 -0.010883,-0.00195 -0.015981,0.010455 -0.026443,0.00961 -0.010616,-8.827e-4 -0.0082,-0.00444 -0.016833,-0.00721 -0.013386,-0.00449 -0.029213,0.043324 -0.026443,0.048051 0.00421,0.00726 0.01077,0.00811 0.014421,0.00841 3.129e-4,0 9.636e-4,-3.85e-5 0.00123,0 0.00728,6.261e-4 0.013201,-0.00442 0.020432,-0.00482 0.020351,-0.00133 0.085639,0.043246 0.1081834,0.052856 0.00728,0.00312 0.01595,0.00421 0.022844,0.00841 0.012996,0.00784 0.022402,0.021094 0.036064,0.027628 0.00461,0.00222 0.011878,0.00548 0.022844,0.0036 0.00769,-0.00131 0.019099,-0.00335 0.031254,-0.043246 0.00513,-0.015952 -0.01394,-0.024842 -0.012022,-0.039642 0.00287,-0.022756 0.021129,-0.038969 0.025244,-0.061265 0.00195,-0.010145 -0.00216,-0.015896 -0.010821,-0.016818 z M 1.7644301,6.9204016 c -0.056199,0.3396614 -0.086548,0.6882506 -0.086548,1.0439033 0,1.689619 0.6601128,3.2241791 1.7369485,4.3594071 -0.048736,-0.06336 -0.1005479,-0.176491 -0.1009715,-0.193405 -0.00134,-0.04406 -0.010289,-0.08752 -0.026444,-0.128535 -0.013655,-0.03482 -0.029906,-0.06906 -0.045678,-0.103309 -0.053274,-0.116091 0.1859604,-0.136081 0.2524287,-0.24506 0.00503,-0.01005 0.045562,-0.01521 0.093759,0.01922 0.038464,0.02749 0.094105,-0.03669 0.08895,-0.05886 -0.015924,-0.07119 -0.016021,-0.08189 -0.00721,-0.146554 0.014926,-0.110516 -0.015847,-0.384705 -0.028849,-0.421645 -0.043812,-0.125047 -0.052275,-0.188303 -0.05289,-0.218633 -4.268e-4,-0.02218 0.058987,-0.03858 0.069718,-0.07568 0.021733,-0.07488 0.1491398,-0.21421 0.1887205,-0.281097 0.034388,-0.05811 0.062477,-0.124076 0.054093,-0.191001 C 3.8816842,10.128888 3.4015207,9.5810893 3.2657765,9.4791059 3.1586123,9.3985719 3.0818644,9.3976141 3.0818644,9.3974226 3.0880604,9.3302299 3.0623805,9.263486 3.0121465,9.2184332 2.9931435,9.2014393 2.978104,9.1798454 2.9640649,9.1571654 2.9452565,9.1266828 2.912128,9.1079905 2.8763167,9.1079139 c -0.035536,0 -0.06889,0.016843 -0.087749,0.04685 0.03148,-0.1049249 0.032671,-0.1114948 -0.051689,-0.2150249 -0.04562,-0.055892 -0.051438,-0.050703 0.00361,-0.1537624 C 2.7484196,8.645318 2.4736857,8.1971869 2.2296232,7.9222594 2.2216943,7.9133046 2.2091896,7.9087566 2.1947645,7.9114481 2.1697943,7.8884604 2.0496386,7.4438179 2.0228668,7.3396437 c -0.00122,-0.005 -9.096e-4,-0.00921 0.00239,-0.013214 0.021271,-0.025564 0.030502,-0.059939 0.02404,-0.092498 -0.00535,-0.026947 -0.016376,-0.057959 -0.018029,-0.08529 -0.00308,-0.050627 -0.0504,-0.092487 -0.0589,-0.086491 -0.013232,0.00934 -0.027243,0.011081 -0.039668,0.00602 -0.012695,-0.00515 -0.022589,-0.016673 -0.025244,-0.032433 -0.01027,-0.05478 -0.057218,-0.093779 -0.1129924,-0.093702 -0.022273,0 -0.026395,-0.00551 -0.030051,-0.021623 z"
       id="path4705"
       inkscape:connector-curvature="0" />
  </g>
</svg>
