<?xml version="1.0" encoding="UTF-8" standalone="no"?>
<svg
   xmlns:dc="http://purl.org/dc/elements/1.1/"
   xmlns:cc="http://creativecommons.org/ns#"
   xmlns:rdf="http://www.w3.org/1999/02/22-rdf-syntax-ns#"
   xmlns:svg="http://www.w3.org/2000/svg"
   xmlns="http://www.w3.org/2000/svg"
   xmlns:sodipodi="http://sodipodi.sourceforge.net/DTD/sodipodi-0.dtd"
   xmlns:inkscape="http://www.inkscape.org/namespaces/inkscape"
   width="16px"
   height="16px"
   viewBox="0 0 16 16"
   version="1.1"
   id="svg7021"
   inkscape:version="0.48.5 r10040"
   sodipodi:docname="list_delete_reversed.svg">
  <metadata
     id="metadata7036">
    <rdf:RDF>
      <cc:Work
         rdf:about="">
        <dc:format>image/svg+xml</dc:format>
        <dc:type
           rdf:resource="http://purl.org/dc/dcmitype/StillImage" />
        <dc:title>Artboard</dc:title>
      </cc:Work>
    </rdf:RDF>
  </metadata>
  <sodipodi:namedview
     pagecolor="#ffffff"
     bordercolor="#666666"
     borderopacity="1"
     objecttolerance="10"
     gridtolerance="10"
     guidetolerance="10"
     inkscape:pageopacity="0"
     inkscape:pageshadow="2"
     inkscape:window-width="2880"
     inkscape:window-height="1557"
     id="namedview7034"
     showgrid="false"
     inkscape:zoom="14.75"
     inkscape:cx="-2.779661"
     inkscape:cy="7.4237288"
     inkscape:window-x="-8"
     inkscape:window-y="-8"
     inkscape:window-maximized="1"
     inkscape:current-layer="svg7021" />
  <!-- Generator: Sketch 45.2 (43514) - http://www.bohemiancoding.com/sketch -->
  <title
     id="title7023">Artboard</title>
  <desc
     id="desc7025">Created with Sketch.</desc>
  <defs
     id="defs7027" />
  <path
     d="m 14,8 c 0,1.0885471 -0.268227,2.092443 -0.804687,3.011719 -0.536461,0.919275 -1.264319,1.647133 -2.183594,2.183594 C 10.092443,13.731773 9.0885471,14 8,14 6.9114529,14 5.9075567,13.731773 4.9882812,13.195313 4.0690058,12.658852 3.3411485,11.930994 2.8046875,11.011719 2.2682265,10.092443 2,9.0885471 2,8 2,6.9114529 2.2682265,5.9075567 2.8046875,4.9882812 3.3411485,4.0690058 4.0690058,3.3411485 4.9882812,2.8046875 5.9075567,2.2682265 6.9114529,2 8,2 c 1.0885471,0 2.092443,0.2682265 3.011719,0.8046875 0.919275,0.536461 1.647133,1.2643183 2.183594,2.1835937 C 13.731773,5.9075567 14,6.9114529 14,8 z"
     id="Path"
     inkscape:connector-curvature="0"
     style="fill:#000000;stroke:none" />
  <path
     d="M 10.828427,5.8786797 10.12132,5.1715729 C 10.025566,5.0758184 9.9077156,5.027942 9.7677673,5.0279415 c -0.139949,1e-7 -0.2577995,0.047877 -0.3535537,0.1436314 L 5.1715729,9.4142136 c -0.095754,0.095754 -0.1436311,0.2136045 -0.1436311,0.3535534 0,0.1399488 0.047877,0.257799 0.1436311,0.353553 l 0.7071068,0.707107 c 0.095754,0.09576 0.2136047,0.143631 0.3535533,0.143631 0.1399489,0 0.2577989,-0.04788 0.3535534,-0.143631 L 10.828427,6.5857864 c 0.09575,-0.095754 0.143631,-0.2136047 0.143632,-0.3535537 -10e-7,-0.1399483 -0.04788,-0.2577986 -0.143632,-0.353553 z"
     id="path7032"
     inkscape:connector-curvature="0"
     style="color:#000000;fill:#ff6868;fill-opacity:1;fill-rule:nonzero;stroke:none;marker:none;visibility:visible;display:inline;overflow:visible;enable-background:accumulate" />
  <path
     style="color:#000000;fill:#ff6868;fill-opacity:1;fill-rule:nonzero;stroke:none;marker:none;visibility:visible;display:inline;overflow:visible;enable-background:accumulate"
     inkscape:connector-curvature="0"
     id="path7796"
     d="m 10.12132,10.828427 0.707107,-0.707107 c 0.09576,-0.09575 0.14363,-0.2136051 0.143632,-0.3535527 -10e-7,-0.139949 -0.04788,-0.2577995 -0.143632,-0.3535537 L 6.5857864,5.1715729 C 6.4900319,5.0758184 6.3721819,5.0279418 6.232233,5.0279418 c -0.1399488,0 -0.2577989,0.047877 -0.3535533,0.1436311 L 5.1715729,5.8786797 C 5.0758184,5.9744341 5.027942,6.0922844 5.0279418,6.232233 c 0,0.1399489 0.047877,0.2577989 0.1436311,0.3535534 l 4.2426407,4.2426406 c 0.095754,0.09575 0.2136049,0.143631 0.3535537,0.143632 0.1399483,-10e-7 0.2577987,-0.04788 0.3535527,-0.143632 z" />
</svg>
