<?xml version="1.0" encoding="UTF-8" standalone="no"?>
<!-- Created with Inkscape (http://www.inkscape.org/) -->

<svg
   xmlns:dc="http://purl.org/dc/elements/1.1/"
   xmlns:cc="http://creativecommons.org/ns#"
   xmlns:rdf="http://www.w3.org/1999/02/22-rdf-syntax-ns#"
   xmlns:svg="http://www.w3.org/2000/svg"
   xmlns="http://www.w3.org/2000/svg"
   xmlns:xlink="http://www.w3.org/1999/xlink"
   xmlns:sodipodi="http://sodipodi.sourceforge.net/DTD/sodipodi-0.dtd"
   xmlns:inkscape="http://www.inkscape.org/namespaces/inkscape"
   width="16px"
   height="16px"
   id="svg2973"
   sodipodi:version="0.32"
   inkscape:version="0.48.5 r10040"
   sodipodi:docname="node_palette.svg"
   version="1.1">
  <defs
     id="defs2975">
    <linearGradient
       id="linearGradient21055">
      <stop
         style="stop-color:#5f6c70;stop-opacity:1;"
         offset="0"
         id="stop21057" />
      <stop
         style="stop-color:#4a5457;stop-opacity:1;"
         offset="1"
         id="stop21059" />
    </linearGradient>
    <linearGradient
       id="linearGradient21045">
      <stop
         style="stop-color:#535353;stop-opacity:1;"
         offset="0"
         id="stop21047" />
      <stop
         id="stop21053"
         offset="0.34325814"
         style="stop-color:#989898;stop-opacity:1;" />
      <stop
         style="stop-color:#010002;stop-opacity:1;"
         offset="1"
         id="stop21049" />
    </linearGradient>
    <linearGradient
       id="linearGradient21031">
      <stop
         style="stop-color:#babdb6;stop-opacity:1;"
         offset="0"
         id="stop21033" />
      <stop
         style="stop-color:#868b7f;stop-opacity:1;"
         offset="1"
         id="stop21035" />
    </linearGradient>
    <linearGradient
       id="linearGradient20727">
      <stop
         style="stop-color:#596468;stop-opacity:1;"
         offset="0"
         id="stop20729" />
      <stop
         style="stop-color:#2e3436;stop-opacity:1;"
         offset="1"
         id="stop20731" />
    </linearGradient>
    <linearGradient
       inkscape:collect="always"
       xlink:href="#linearGradient20727"
       id="linearGradient20733"
       x1="3.2646689"
       y1="2.4383461"
       x2="14.794617"
       y2="13.226509"
       gradientUnits="userSpaceOnUse"
       gradientTransform="matrix(1.0724913,0,0,1.0723853,-0.446043,-0.74939618)" />
    <linearGradient
       inkscape:collect="always"
       xlink:href="#linearGradient21031"
       id="linearGradient21037"
       x1="10.895841"
       y1="3.8161922"
       x2="12.230224"
       y2="5.2127266"
       gradientUnits="userSpaceOnUse" />
    <linearGradient
       inkscape:collect="always"
       xlink:href="#linearGradient21045"
       id="linearGradient21051"
       x1="3.4342792"
       y1="10.981904"
       x2="5.147944"
       y2="12.712683"
       gradientUnits="userSpaceOnUse" />
    <linearGradient
       inkscape:collect="always"
       xlink:href="#linearGradient21055"
       id="linearGradient21061"
       x1="3.9345345"
       y1="9.8192053"
       x2="6.305336"
       y2="12.272025"
       gradientUnits="userSpaceOnUse" />
  </defs>
  <sodipodi:namedview
     id="base"
     pagecolor="#ffffff"
     bordercolor="#666666"
     borderopacity="1.0"
     inkscape:pageopacity="0.0"
     inkscape:pageshadow="2"
     inkscape:zoom="47.088649"
     inkscape:cx="9.3466995"
     inkscape:cy="8.2898242"
     inkscape:current-layer="layer1"
     showgrid="true"
     inkscape:grid-bbox="true"
     inkscape:document-units="px"
     inkscape:window-width="2560"
     inkscape:window-height="1537"
     inkscape:window-x="-8"
     inkscape:window-y="-8"
     inkscape:window-maximized="1"
     inkscape:snap-global="false">
    <inkscape:grid
       type="xygrid"
       id="grid20581" />
  </sodipodi:namedview>
  <metadata
     id="metadata2978">
    <rdf:RDF>
      <cc:Work
         rdf:about="">
        <dc:format>image/svg+xml</dc:format>
        <dc:type
           rdf:resource="http://purl.org/dc/dcmitype/StillImage" />
        <dc:title></dc:title>
      </cc:Work>
    </rdf:RDF>
  </metadata>
  <g
     id="layer1"
     inkscape:label="Layer 1"
     inkscape:groupmode="layer">
    <path
       inkscape:connector-curvature="0"
       id="path20725"
       d="m 0.50605527,3.8230995 c 0.12313441,-0.044984 0.35207408,0.7371757 0.44470784,0.829643 L 2.8460737,6.5477505 4.9471895,5.8825373 5.612466,3.781652 3.3982609,1.6359801 3.765186,0.46397828 7.0209218,2.4400717 c 1.1168016,1.1167866 1.4125512,2.7476102 0.8888384,4.1376881 0.057242,0.048223 0.113722,0.099317 0.1694362,0.1544155 l 6.3266366,5.9693157 c 0.0021,0.0021 0.0044,0.0046 0.0069,0.0066 l 0.91104,1.446026 -0.91104,1.252628 c -0.744157,0.743933 -1.945953,0.734888 -2.689865,-0.0091 -0.0032,-0.003 -0.0061,-0.006 -0.0091,-0.0093 L 5.7959306,9.0131157 C 5.7419884,8.9589343 5.6918971,8.9022468 5.6446785,8.8440621 4.2541015,9.3686722 2.6693562,9.0242894 1.5043044,7.9561334 0.56292431,7.0930465 0.03483505,5.3546096 0.50605527,3.8230995 z"
       style="fill:#888a85;stroke:none"
       sodipodi:nodetypes="ccccccccccccccccccsc" />
    <path
       style="fill:#eeeeec;stroke:url(#linearGradient20733);stroke-width:0.49999997;stroke-miterlimit:4;stroke-dasharray:none"
       d="M 0.71875205,3.9054841 C 0.72999937,3.7749666 0.81597027,3.6628438 0.93879938,3.6181358 1.0619338,3.5731514 1.1997694,3.6037777 1.2924031,3.6962452 L 3.1877138,5.591253 5.2888297,4.9260398 5.9541061,2.8251544 4.0587651,0.92999373 C 3.9660085,0.83733814 3.9357524,0.69948547 3.9804346,0.57657628 4.0255758,0.45342313 4.1374328,0.36764303 4.2682383,0.35633612 5.4192998,0.25717136 6.5471343,0.66810126 7.3625624,1.4835741 8.479364,2.6003608 8.7751137,4.2311844 8.2514008,5.6212623 c 0.057242,0.048223 0.1137221,0.099317 0.1694363,0.1544155 l 6.3266359,5.9693152 c 0.0021,0.0021 0.0044,0.0046 0.0069,0.0066 0.744036,0.743994 0.744036,1.954537 0,2.698655 -0.744157,0.743933 -1.945953,0.734887 -2.689865,-0.0091 -0.0032,-0.003 -0.0061,-0.006 -0.0091,-0.0093 L 6.1375708,8.0566183 C 6.0836286,8.0024369 6.0335373,7.9457494 5.9863186,7.8875647 4.5957416,8.4121748 2.9637238,8.117156 1.8459445,6.999636 1.0306995,6.1841021 0.61945569,5.0562833 0.71875205,3.9054841 z"
       id="path20717"
       inkscape:connector-curvature="0" />
    <path
       style="fill:#babdb6;stroke:#555753;stroke-width:0.49999997;stroke-miterlimit:4;stroke-dasharray:none"
       d="m 12.715217,13.594718 c 0.343437,0.34333 0.899652,0.343101 1.243048,0 0.343284,-0.343026 0.343284,-0.899651 0,-1.242791 -0.343396,-0.3431 -0.899611,-0.3431 -1.243048,0 -0.343284,0.34314 -0.343284,0.899765 0,1.242791 z"
       id="path20640"
       inkscape:connector-curvature="0" />
    <path
       style="fill:#000000;fill-opacity:0.26288656;stroke:none"
       d="M 7.3157692,9.6424249 9.9042296,6.8124774 10.634259,7.5089877 7.9927083,10.390803 z"
       id="path21043"
       inkscape:connector-curvature="0"
       sodipodi:nodetypes="ccccc" />
    <path
       style="fill:#eeeeec;stroke:url(#linearGradient21037);stroke-width:0.50000000000000000;stroke-miterlimit:4;stroke-dasharray:none"
       d="M 5.634784,9.6386135 6.6781511,10.683961 12.481562,4.609281 14.596879,3.5155979 15.704316,1.3746537 14.671814,0.34215241 12.531843,1.4505957 11.436215,3.5639336 z"
       id="polygon20851"
       inkscape:connector-curvature="0"
       sodipodi:nodetypes="ccccccccc" />
    <path
       style="fill:none;stroke:#ffffff;stroke-width:0.50000000000000000;stroke-linecap:round;stroke-linejoin:miter;stroke-opacity:1;stroke-miterlimit:4;stroke-dasharray:none"
       d="M 6.7874588,9.4828382 12.013201,4.0768976"
       id="path21063"
       inkscape:connector-curvature="0" />
    <g
       id="g20855"
       transform="translate(112.38261,-213.28345)">
	</g>
    <g
       id="g20857"
       transform="translate(112.38261,-213.28345)">
	</g>
    <g
       id="g20859"
       transform="translate(112.38261,-213.28345)">
	</g>
    <g
       id="g20861"
       transform="translate(112.38261,-213.28345)">
	</g>
    <g
       id="g20863"
       transform="translate(112.38261,-213.28345)">
	</g>
    <g
       id="g20865"
       transform="translate(112.38261,-213.28345)">
	</g>
    <g
       id="g20867"
       transform="translate(112.38261,-213.28345)">
	</g>
    <g
       id="g20869"
       transform="translate(112.38261,-213.28345)">
	</g>
    <g
       id="g20871"
       transform="translate(112.38261,-213.28345)">
	</g>
    <g
       id="g20873"
       transform="translate(112.38261,-213.28345)">
	</g>
    <g
       id="g20875"
       transform="translate(112.38261,-213.28345)">
	</g>
    <g
       id="g20877"
       transform="translate(112.38261,-213.28345)">
	</g>
    <g
       id="g20879"
       transform="translate(112.38261,-213.28345)">
	</g>
    <g
       id="g20881"
       transform="translate(112.38261,-213.28345)">
	</g>
    <g
       id="g20883"
       transform="translate(112.38261,-213.28345)">
	</g>
    <g
       id="g20885"
       transform="translate(112.38261,-213.28345)">
</g>
    <g
       id="g20887"
       transform="translate(112.38261,-213.28345)">
</g>
    <g
       id="g20889"
       transform="translate(112.38261,-213.28345)">
</g>
    <g
       id="g20891"
       transform="translate(112.38261,-213.28345)">
</g>
    <g
       id="g20893"
       transform="translate(112.38261,-213.28345)">
</g>
    <g
       id="g20895"
       transform="translate(112.38261,-213.28345)">
</g>
    <g
       id="g20897"
       transform="translate(112.38261,-213.28345)">
</g>
    <g
       id="g20899"
       transform="translate(112.38261,-213.28345)">
</g>
    <g
       id="g20901"
       transform="translate(112.38261,-213.28345)">
</g>
    <g
       id="g20903"
       transform="translate(112.38261,-213.28345)">
</g>
    <g
       id="g20905"
       transform="translate(112.38261,-213.28345)">
</g>
    <g
       id="g20907"
       transform="translate(112.38261,-213.28345)">
</g>
    <g
       id="g20909"
       transform="translate(112.38261,-213.28345)">
</g>
    <g
       id="g20911"
       transform="translate(112.38261,-213.28345)">
</g>
    <g
       id="g20913"
       transform="translate(112.38261,-213.28345)">
</g>
    <path
       inkscape:connector-curvature="0"
       style="fill:url(#linearGradient21051);fill-opacity:1.0;stroke:url(#linearGradient21061);stroke-width:0.50000000000000000;stroke-miterlimit:4;stroke-dasharray:none"
       d="m 0.86850352,13.220504 c -0.57469339,0.581063 -0.57788678,1.513749 0,2.091636 0.28894348,0.288944 0.66761508,0.432912 1.04632068,0.432912 0.3787056,0 0.7573773,-0.143968 1.0463207,-0.432912 L 7.7542588,10.464929 5.6616173,8.3742672 z"
       id="path20849"
       sodipodi:nodetypes="ssscccs" />
  </g>
</svg>
