<?xml version="1.0" encoding="UTF-8"?>
<svg width="16px" height="16px" viewBox="0 0 16 16" version="1.1" xmlns="http://www.w3.org/2000/svg" xmlns:xlink="http://www.w3.org/1999/xlink">
    <!-- Generator: Sketch 41.2 (35397) - http://www.bohemiancoding.com/sketch -->
    <title>pin_out copy</title>
    <desc>Created with Sketch.</desc>
    <defs></defs>
    <g id="Page-1" stroke="none" stroke-width="1" fill="none" fill-rule="evenodd">
        <g id="pin_out-copy">
            <g id="Group" transform="translate(7.500000, 8.000000) rotate(90.000000) translate(-7.500000, -8.000000) translate(2.500000, 0.500000)">
                <path d="M9.96044922,9.89770508 L0.29031033,9.89770508 C0.29031033,9.89770508 0.227138932,7.84275116 0.681423611,7.29026442 C1.13570829,6.73777769 1.64930269,6.46153846 2.22222222,6.46153846 L2.22222222,2.15384615 C1.92129479,2.15384615 1.66088073,2.04727671 1.44097222,1.83413462 C1.22106372,1.62099252 1.11111111,1.3685912 1.11111111,1.07692308 C1.11111111,0.785254952 1.22106372,0.53285363 1.44097222,0.319711538 C1.66088073,0.106569447 1.92129479,0 2.22222222,0 L7.77777778,0 C8.07870521,0 8.33911927,0.106569447 8.55902778,0.319711538 C8.77893628,0.53285363 8.88888889,0.785254952 8.88888889,1.07692308 C8.88888889,1.3685912 8.77893628,1.62099252 8.55902778,1.83413462 C8.33911927,2.04727671 8.07870521,2.15384615 7.77777778,2.15384615 L7.77777778,6.46153846 C8.35069731,6.46153846 8.86429171,6.73777769 9.31857639,7.29026442 C9.77286107,7.84275116 9.96044922,9.89770508 9.96044922,9.89770508 Z" id="Shape" fill="#DEDEDE"></path>
                <path d="M9.96044922,9.89770508 C9.96044922,9.89770508 7.72106934,9.9831543 7.05432129,9.97045898 C7.09362793,8.65893555 6.82159424,7.1038208 5.43383789,6.43652344 C5.39794922,5.54870605 5.38757324,2.01696777 5.38757324,2.01696777 L6.13879395,1.98693848 L6.16064453,8.73051631e-14 C6.55080957,-0.00250556641 8.00054104,0.00723025334 8.00054104,0.00723025334 C8.00054104,0.00723025334 8.35010444,0.0685518705 8.55560303,0.287658691 C8.76110162,0.506765512 8.88888889,0.785254952 8.88888889,1.07692308 C8.88888889,1.3685912 8.77893628,1.62099252 8.55902778,1.83413462 C8.33911927,2.04727671 8.07870521,2.15384615 7.77777778,2.15384615 L7.77777778,6.46153846 C8.35069731,6.46153846 8.86429171,6.73777769 9.31857639,7.29026442 C9.77286107,7.84275116 9.96044922,9.89770508 9.96044922,9.89770508 Z" id="Shape-Copy" fill-opacity="0.400362319" fill="#000000"></path>
                <rect id="Rectangle-26" fill="#FFFFFF" x="3" y="2" width="1" height="5"></rect>
                <path d="M2.5,2.5 L7.5,2.5" id="Line" stroke-opacity="0.28331635" stroke="#000000" stroke-linecap="square"></path>
                <path d="M0.5,9.5 L9.5,9.5" id="Line" stroke-opacity="0.646173007" stroke="#000000" stroke-linecap="square"></path>
                <path d="M4,9.01905054 L4.76776112,14.590332 L5.21895363,14.5642629 L6,9 L4,9.01905054 Z" id="Path-16" fill="#FFFFFF"></path>
            </g>
        </g>
    </g>
</svg>