<?xml version="1.0" encoding="UTF-8"?>
<svg width="16px" height="16px" viewBox="0 0 16 16" version="1.1" xmlns="http://www.w3.org/2000/svg" xmlns:xlink="http://www.w3.org/1999/xlink">
    <!-- Generator: Sketch 41.2 (35397) - http://www.bohemiancoding.com/sketch -->
    <title>pin_in copy</title>
    <desc>Created with Sketch.</desc>
    <defs>
        <radialGradient cx="29.9303642%" cy="40.5500716%" fx="29.9303642%" fy="40.5500716%" r="67.1475657%" id="radialGradient-1">
            <stop stop-color="#CFCFCF" offset="0%"></stop>
            <stop stop-color="#888888" offset="100%"></stop>
        </radialGradient>
        <linearGradient x1="14.2716029%" y1="17.7716113%" x2="88.8758672%" y2="84.8928332%" id="linearGradient-2">
            <stop stop-color="#838383" offset="0%"></stop>
            <stop stop-color="#282828" offset="100%"></stop>
        </linearGradient>
        <linearGradient x1="25.6858454%" y1="46.8106064%" x2="55.7340394%" y2="84.646851%" id="linearGradient-3">
            <stop stop-color="#1A1A1A" stop-opacity="0.43137255" offset="0%"></stop>
            <stop stop-color="#000000" stop-opacity="0" offset="100%"></stop>
        </linearGradient>
    </defs>
    <g id="Page-1" stroke="none" stroke-width="1" fill="none" fill-rule="evenodd">
        <g id="pin_in-copy">
            <path d="M12.3871086,9.68907282 C12.387574,11.6984994 11.3024905,13.5554828 9.54070755,14.5603288 C7.77892461,15.5651748 5.60818417,15.5651748 3.84640123,14.5603288 C2.08461829,13.5554828 0.999534769,11.6984994 1.00000015,9.68907282 C0.999534769,7.67964623 2.08461829,5.82266281 3.84640123,4.81781681 C5.60818417,3.8129708 7.77892461,3.8129708 9.54070755,4.81781681 C11.3024905,5.82266281 12.387574,7.67964623 12.3871086,9.68907282 L12.3871086,9.68907282 Z" id="path2526" stroke="url(#linearGradient-2)" stroke-width="1.40891445" fill="url(#radialGradient-1)"></path>
            <path d="M6,10.3841406 C6,10.3841406 6.8671757,11.6865069 7.15427079,12.5735068 C7.24419665,13.6811644 6.20307588,15.7092398 6.20307588,15.7092398 C6.20307588,15.7092398 7.54800396,16.0053168 9.64123164,14.3542773 C11.3266563,13.0248933 11.7985753,11.6377105 11.7985753,11.6377105 L12.957028,7.87704484 L8.34824088,7 L6,10.3841406 L6,10.3841406 Z" id="path2538" fill="url(#linearGradient-3)"></path>
            <path d="M15.2801449,6.30937733 C15.2801449,8.74749466 13.2975213,10.7239793 10.8518311,10.7239793 C8.4061409,10.7239793 6.42351728,8.74749466 6.42351728,6.30937733 C6.42351728,3.87126 8.4061409,1.89477539 10.8518311,1.89477539 C13.2975213,1.89477539 15.2801449,3.87126 15.2801449,6.30937733 L15.2801449,6.30937733 Z" id="path2524" stroke="url(#linearGradient-2)" stroke-width="1.40891445" fill="#DADADA"></path>
            <path d="M5.69987792,8.58352469 C5.69987794,9.03554855 5.45872542,9.45323583 5.06726018,9.67924777 C4.67579495,9.9052597 4.19348989,9.9052597 3.80202465,9.67924777 C3.41055942,9.45323583 3.1694069,9.03554855 3.16940691,8.58352469 C3.1694069,8.13150083 3.41055942,7.71381355 3.80202465,7.48780162 C4.19348989,7.26178968 4.67579495,7.26178968 5.06726018,7.48780162 C5.45872542,7.71381355 5.69987794,8.13150083 5.69987792,8.58352469 L5.69987792,8.58352469 Z" id="path3550" fill="#FFFFFF"></path>
        </g>
    </g>
</svg>