<?xml version="1.0" encoding="UTF-8" standalone="no"?>
<!-- Created with Inkscape (http://www.inkscape.org/) -->
<svg
   xmlns:dc="http://purl.org/dc/elements/1.1/"
   xmlns:cc="http://creativecommons.org/ns#"
   xmlns:rdf="http://www.w3.org/1999/02/22-rdf-syntax-ns#"
   xmlns:svg="http://www.w3.org/2000/svg"
   xmlns="http://www.w3.org/2000/svg"
   xmlns:xlink="http://www.w3.org/1999/xlink"
   xmlns:sodipodi="http://sodipodi.sourceforge.net/DTD/sodipodi-0.dtd"
   xmlns:inkscape="http://www.inkscape.org/namespaces/inkscape"
   inkscape:export-ydpi="90.000000"
   inkscape:export-xdpi="90.000000"
   inkscape:export-filename="/home/jimmac/Desktop/wi-fi.png"
   width="16"
   height="16"
   id="svg11300"
   sodipodi:version="0.32"
   inkscape:version="0.46"
   sodipodi:docbase="e:\dev_clean\src\houdini\support\icons\networks"
   sodipodi:docname="render.svg"
   inkscape:output_extension="org.inkscape.output.svg.inkscape"
   version="1.0">
  <defs
     id="defs3">
    <linearGradient
       id="linearGradient10853">
      <stop
         style="stop-color:#000000;stop-opacity:0.703125;"
         offset="0"
         id="stop10855" />
      <stop
         style="stop-color:#000000;stop-opacity:0;"
         offset="1"
         id="stop10857" />
    </linearGradient>
    <inkscape:perspective
       sodipodi:type="inkscape:persp3d"
       inkscape:vp_x="0 : 24 : 1"
       inkscape:vp_y="0 : 1000 : 0"
       inkscape:vp_z="48 : 24 : 1"
       inkscape:persp3d-origin="24 : 16 : 1"
       id="perspective10340" />
    <linearGradient
       inkscape:collect="always"
       id="linearGradient7138">
      <stop
         style="stop-color:#ffffff;stop-opacity:1;"
         offset="0"
         id="stop7140" />
      <stop
         style="stop-color:#ffffff;stop-opacity:0;"
         offset="1"
         id="stop7142" />
    </linearGradient>
    <linearGradient
       id="linearGradient7087">
      <stop
         style="stop-color:#888a85;stop-opacity:1;"
         offset="0"
         id="stop7089" />
      <stop
         style="stop-color:#b8b9b6;stop-opacity:1;"
         offset="1"
         id="stop7091" />
    </linearGradient>
    <linearGradient
       inkscape:collect="always"
       id="linearGradient7079">
      <stop
         style="stop-color:#000000;stop-opacity:1;"
         offset="0"
         id="stop7081" />
      <stop
         style="stop-color:#000000;stop-opacity:0;"
         offset="1"
         id="stop7083" />
    </linearGradient>
    <linearGradient
       inkscape:collect="always"
       id="linearGradient7069">
      <stop
         style="stop-color:#888a85;stop-opacity:1;"
         offset="0"
         id="stop7071" />
      <stop
         style="stop-color:#888a85;stop-opacity:0;"
         offset="1"
         id="stop7073" />
    </linearGradient>
    <radialGradient
       id="aigrd4"
       cx="9.3417997"
       cy="22.6138"
       r="14.1515"
       fx="9.3417997"
       fy="22.6138"
       gradientUnits="userSpaceOnUse">
      <stop
         offset="0"
         style="stop-color:#767676"
         id="stop6452" />
      <stop
         offset="1"
         style="stop-color:#484848"
         id="stop6454" />
    </radialGradient>
    <radialGradient
       r="14.1515"
       fy="24.735121"
       fx="20.655508"
       cy="24.735121"
       cx="20.655508"
       gradientUnits="userSpaceOnUse"
       id="radialGradient6540"
       xlink:href="#aigrd4"
       inkscape:collect="always"
       gradientTransform="matrix(0.3467554,0,0,0.3727364,-0.2374344,1.7656043)" />
    <linearGradient
       inkscape:collect="always"
       xlink:href="#linearGradient7069"
       id="linearGradient7075"
       x1="46.54464"
       y1="35.24506"
       x2="40.820396"
       y2="34.140205"
       gradientUnits="userSpaceOnUse"
       gradientTransform="matrix(0.3068365,0,0,0.3298263,0.9229604,0.5441537)" />
    <radialGradient
       inkscape:collect="always"
       xlink:href="#linearGradient7079"
       id="radialGradient7085"
       cx="23.157747"
       cy="26.963573"
       fx="23.157747"
       fy="26.963573"
       r="21.566757"
       gradientTransform="matrix(1,0,0,0.663934,0,9.061528)"
       gradientUnits="userSpaceOnUse" />
    <linearGradient
       inkscape:collect="always"
       xlink:href="#linearGradient7087"
       id="linearGradient7093"
       x1="23.816254"
       y1="12.75"
       x2="29.049412"
       y2="25.772396"
       gradientUnits="userSpaceOnUse" />
    <linearGradient
       inkscape:collect="always"
       xlink:href="#linearGradient7138"
       id="linearGradient7144"
       x1="43.6875"
       y1="32.133045"
       x2="26.625"
       y2="32.133045"
       gradientUnits="userSpaceOnUse"
       gradientTransform="matrix(0.2518139,0,0,0.3727365,3.5292547,-0.8406586)" />
    <radialGradient
       inkscape:collect="always"
       xlink:href="#linearGradient10853"
       id="radialGradient10859"
       cx="25.75"
       cy="21"
       fx="25.75"
       fy="21"
       r="14.75"
       gradientTransform="matrix(1,0,0,0.559322,0,9.2542373)"
       gradientUnits="userSpaceOnUse" />
  </defs>
  <sodipodi:namedview
     stroke="#ef2929"
     fill="#eeeeec"
     id="base"
     pagecolor="#ffffff"
     bordercolor="#666666"
     borderopacity="0.25490196"
     inkscape:pageopacity="0.0"
     inkscape:pageshadow="2"
     inkscape:zoom="38.443359"
     inkscape:cx="5.7333919"
     inkscape:cy="7.6265072"
     inkscape:current-layer="layer1"
     showgrid="false"
     inkscape:grid-bbox="true"
     inkscape:document-units="px"
     inkscape:showpageshadow="false"
     inkscape:window-width="1920"
     inkscape:window-height="1115"
     inkscape:window-x="-4"
     inkscape:window-y="-4" />
  <metadata
     id="metadata4">
    <rdf:RDF>
      <cc:Work
         rdf:about="">
        <dc:format>image/svg+xml</dc:format>
        <dc:type
           rdf:resource="http://purl.org/dc/dcmitype/StillImage" />
        <dc:creator>
          <cc:Agent>
            <dc:title>Jakub Steiner</dc:title>
          </cc:Agent>
        </dc:creator>
        <dc:source>http://jimmac.musichall.cz</dc:source>
        <cc:license
           rdf:resource="http://creativecommons.org/licenses/by-sa/2.0/" />
        <dc:title>Multimedia Category</dc:title>
        <dc:subject>
          <rdf:Bag>
            <rdf:li>video</rdf:li>
            <rdf:li>audio</rdf:li>
            <rdf:li>multimedia</rdf:li>
            <rdf:li>applications</rdf:li>
            <rdf:li>category</rdf:li>
          </rdf:Bag>
        </dc:subject>
      </cc:Work>
      <cc:License
         rdf:about="http://creativecommons.org/licenses/by-sa/2.0/">
        <cc:permits
           rdf:resource="http://web.resource.org/cc/Reproduction" />
        <cc:permits
           rdf:resource="http://web.resource.org/cc/Distribution" />
        <cc:requires
           rdf:resource="http://web.resource.org/cc/Notice" />
        <cc:requires
           rdf:resource="http://web.resource.org/cc/Attribution" />
        <cc:permits
           rdf:resource="http://web.resource.org/cc/DerivativeWorks" />
        <cc:requires
           rdf:resource="http://web.resource.org/cc/ShareAlike" />
      </cc:License>
    </rdf:RDF>
  </metadata>
  <g
     id="layer1"
     inkscape:label="Layer 1"
     inkscape:groupmode="layer">
    <path
       sodipodi:type="arc"
       style="opacity:1;fill:url(#radialGradient10859);fill-opacity:1;fill-rule:evenodd;stroke:none;stroke-width:1.40011561;stroke-linecap:round;stroke-linejoin:round;marker:none;marker-start:none;marker-mid:none;marker-end:none;stroke-miterlimit:4;stroke-dasharray:none;stroke-dashoffset:0;stroke-opacity:1;visibility:visible;display:inline;overflow:visible"
       id="path10851"
       sodipodi:cx="25.75"
       sodipodi:cy="21"
       sodipodi:rx="14.75"
       sodipodi:ry="8.25"
       d="M 40.5,21 A 14.75,8.25 0 1 1 11,21 A 14.75,8.25 0 1 1 40.5,21 z"
       inkscape:r_cx="true"
       inkscape:r_cy="true"
       transform="matrix(0.4349136,0,0,0.5747319,-4.3181527,-0.6390255)" />
    <path
       sodipodi:type="arc"
       style="opacity:0.70329674;fill:url(#radialGradient7085);fill-opacity:1;fill-rule:evenodd;stroke:none;stroke-width:1;stroke-linecap:round;stroke-linejoin:round;marker:none;marker-start:none;marker-mid:none;marker-end:none;stroke-miterlimit:4;stroke-dasharray:none;stroke-dashoffset:0;stroke-opacity:1;visibility:visible;display:inline;overflow:visible"
       id="path7077"
       sodipodi:cx="23.157747"
       sodipodi:cy="26.963573"
       sodipodi:rx="21.566757"
       sodipodi:ry="14.318913"
       d="M 44.724504,26.963573 A 21.566757,14.318913 0 1 1 1.5909901,26.963573 A 21.566757,14.318913 0 1 1 44.724504,26.963573 z"
       inkscape:r_cx="true"
       inkscape:r_cy="true"
       transform="matrix(0.3467553,0,0,0.3727365,-0.4920366,-1.3868427)" />
    <path
       transform="matrix(0.4349136,0,0,0.5747319,-4.3181527,-3.3963287)"
       inkscape:r_cy="true"
       inkscape:r_cx="true"
       d="M 40.5,21 A 14.75,8.25 0 1 1 11,21 A 14.75,8.25 0 1 1 40.5,21 z"
       sodipodi:ry="8.25"
       sodipodi:rx="14.75"
       sodipodi:cy="21"
       sodipodi:cx="25.75"
       id="path7028"
       style="opacity:1;fill:#babbb8;fill-opacity:1;fill-rule:evenodd;stroke:#51524f;stroke-width:1.40011561000000010;stroke-linecap:round;stroke-linejoin:round;marker:none;marker-start:none;marker-mid:none;marker-end:none;stroke-miterlimit:4;stroke-dasharray:none;stroke-dashoffset:0;stroke-opacity:1;visibility:visible;display:inline;overflow:visible"
       sodipodi:type="arc" />
    <path
       sodipodi:type="arc"
       style="opacity:1;fill:#555753;fill-opacity:1;fill-rule:evenodd;stroke:none;stroke-width:1.11522388;stroke-linecap:round;stroke-linejoin:round;marker:none;marker-start:none;marker-mid:none;marker-end:none;stroke-miterlimit:4;stroke-dasharray:none;stroke-dashoffset:0;stroke-opacity:1;visibility:visible;display:inline;overflow:visible"
       id="path7042"
       sodipodi:cx="25.75"
       sodipodi:cy="21"
       sodipodi:rx="14.75"
       sodipodi:ry="8.25"
       d="M 40.5,21 A 14.75,8.25 0 1 1 11,21 A 14.75,8.25 0 1 1 40.5,21 z"
       inkscape:r_cx="true"
       inkscape:r_cy="true"
       transform="matrix(0.2649251,0,0,0.3734124,-0.1199546,-0.7231781)" />
    <path
       style="fill:url(#radialGradient6540);fill-rule:nonzero;stroke:#3b3d39;stroke-width:1;stroke-miterlimit:4;stroke-opacity:1"
       d="M 15.038572,13.695439 C 15.038572,13.695439 12.152217,12.302521 10.303281,12.477815 C 8.3326656,12.664643 5.0406514,12.789958 3.7502634,10.599469 C 9.228339,12.375358 11.755803,9.4269342 15.463446,11.087573 C 15.463446,11.087573 15.038572,13.695439 15.038572,13.695439 z"
       id="path6456"
       inkscape:r_cx="true"
       inkscape:r_cy="true"
       sodipodi:nodetypes="czccc" />
    <path
       transform="matrix(0.2638702,0,0,0.3677653,8.6216626e-2,-1.4533)"
       inkscape:r_cy="true"
       inkscape:r_cx="true"
       d="M 40.5,21 A 14.75,8.25 0 1 1 11,21 A 14.75,8.25 0 1 1 40.5,21 z"
       sodipodi:ry="8.25"
       sodipodi:rx="14.75"
       sodipodi:cy="21"
       sodipodi:cx="25.75"
       id="path7026"
       style="opacity:1;fill:url(#linearGradient7093);fill-opacity:1;fill-rule:evenodd;stroke:#757972;stroke-width:3.43268275;stroke-linecap:round;stroke-linejoin:round;marker:none;marker-start:none;marker-mid:none;marker-end:none;stroke-miterlimit:4;stroke-dasharray:none;stroke-dashoffset:0;stroke-opacity:1;visibility:visible;display:inline;overflow:visible"
       sodipodi:type="arc" />
    <path
       style="opacity:1;fill:#e6e8e4;fill-opacity:1;fill-rule:evenodd;stroke:#5f615d;stroke-width:0.6;stroke-linecap:round;stroke-linejoin:round;marker:none;marker-start:none;marker-mid:none;marker-end:none;stroke-miterlimit:4;stroke-dasharray:none;stroke-dashoffset:0;stroke-opacity:1;visibility:visible;display:inline;overflow:visible"
       d="M 6.3932476,1.2059813 C 3.0791254,1.4019191 0.46589719,3.5969434 0.46589716,6.2495701 C 0.46589716,9.0305734 3.3398071,11.293159 6.8808726,11.293159 C 10.421939,11.293159 13.295848,9.030573 13.295848,6.2495701 C 13.295848,3.4685673 10.421939,1.2059813 6.8808726,1.2059813 C 6.8670402,1.2059813 6.8513399,1.2059125 6.837528,1.2059813 C 6.7549808,1.2063923 6.6700778,1.2031333 6.5882976,1.2059813 C 6.5483661,1.2073719 6.5088387,1.2040162 6.4691004,1.2059813 C 6.4429188,1.207276 6.4193432,1.2044385 6.3932476,1.2059813 z M 5.916459,2.0213422 C 5.9383923,2.0194387 5.9593147,2.0226356 5.9814756,2.0213422 C 6.0279769,2.0186281 6.0749417,2.0213422 6.1223448,2.0213422 C 7.1336198,2.0213422 7.9536471,2.6558151 7.9536471,3.4307515 C 7.9536471,4.2056879 7.1336195,4.8285128 6.1223448,4.8285128 C 5.1110706,4.8285128 4.2910432,4.2056879 4.2910432,3.4307515 C 4.2910432,2.7094514 5.0025694,2.1006556 5.916459,2.0213422 z M 9.9041465,3.7336 C 9.9272566,3.7313773 9.9458213,3.7351846 9.9691634,3.7336 C 10.009647,3.730851 10.04723,3.7344011 10.088361,3.7336 C 10.105074,3.7332745 10.11489,3.7336 10.131704,3.7336 C 11.207844,3.7336 12.082204,4.4098192 12.082204,5.2361931 C 12.082204,6.0625668 11.207844,6.7271385 10.131704,6.7271385 C 9.055565,6.7271389 8.1812055,6.0625671 8.1812055,5.2361931 C 8.1812051,4.4728282 8.9412181,3.8262037 9.9041465,3.7336 z M 3.2399405,4.9100487 C 3.3154729,4.9034053 3.4005002,4.9100487 3.478335,4.9100487 C 4.5853132,4.9100487 5.4830148,5.5967588 5.4830148,6.4475863 C 5.4830148,7.2984135 4.5853132,7.9851237 3.478335,7.9851237 C 2.371357,7.9851237 1.4736551,7.2984135 1.4736551,6.4475863 C 1.4736551,5.6565829 2.2412343,4.9978893 3.2399405,4.9100487 z M 7.2384642,6.8203226 C 7.2467774,6.8192842 7.2517933,6.8212883 7.2601361,6.8203226 C 7.2610896,6.8202789 7.2700892,6.8203103 7.2709723,6.8203226 C 7.2718578,6.8203393 7.2808524,6.8203596 7.2818084,6.8203226 C 7.283973,6.820362 7.291537,6.8203656 7.2926447,6.8203226 C 7.3017134,6.8203894 7.3160544,6.8201799 7.3251531,6.8203226 C 7.3262658,6.820294 7.3338279,6.8202918 7.3359889,6.8203226 C 7.4195487,6.8129505 7.4991131,6.8203226 7.5852196,6.8203226 C 8.8098439,6.8203226 9.8066215,7.5768139 9.8066215,8.5209323 C 9.8066215,9.4650512 8.8098439,10.23319 7.5852196,10.23319 C 6.3605951,10.23319 5.3638175,9.465051 5.3638175,8.5209323 C 5.3638175,7.6703597 6.182661,6.9521928 7.2384642,6.8203226 z"
       id="path7012"
       inkscape:r_cx="true"
       inkscape:r_cy="true" />
    <path
       style="opacity:1;fill:url(#linearGradient7075);fill-opacity:1;fill-rule:evenodd;stroke:none;stroke-width:1;stroke-linecap:round;stroke-linejoin:round;marker:none;marker-start:none;marker-mid:none;marker-end:none;stroke-miterlimit:4;stroke-dasharray:none;stroke-dashoffset:0;stroke-opacity:1;visibility:visible;display:inline;overflow:visible"
       d="M 15.33304,11.186056 L 14.958003,13.441107 C 14.053312,13.1148 13.507854,12.856598 12.506037,12.599893 L 12.6211,10.768771 C 13.279426,10.693737 14.307469,10.821601 15.33304,11.186056 z"
       id="path7067"
       inkscape:r_cx="true"
       inkscape:r_cy="true"
       sodipodi:nodetypes="ccccc" />
    <path
       style="opacity:0.70329674;fill:url(#linearGradient7144);fill-opacity:1;fill-rule:evenodd;stroke:none;stroke-width:1;stroke-linecap:round;stroke-linejoin:round;marker:none;marker-start:none;marker-mid:none;marker-end:none;stroke-miterlimit:4;stroke-dasharray:none;stroke-dashoffset:0;stroke-opacity:1;visibility:visible;display:inline;overflow:visible"
       d="M 15.33304,11.203386 L 15.207788,11.867691 C 13.16686,10.738714 11.36607,11.445024 9.3996706,11.529531 C 12.071684,11.200561 12.947792,10.144569 15.33304,11.203386 z"
       id="path7136"
       inkscape:r_cx="true"
       inkscape:r_cy="true"
       sodipodi:nodetypes="cccc" />
  </g>
</svg>
