<?xml version="1.0" encoding="UTF-8" standalone="no"?>
<!-- Created with Inkscape (http://www.inkscape.org/) -->

<svg
   xmlns:dc="http://purl.org/dc/elements/1.1/"
   xmlns:cc="http://creativecommons.org/ns#"
   xmlns:rdf="http://www.w3.org/1999/02/22-rdf-syntax-ns#"
   xmlns:svg="http://www.w3.org/2000/svg"
   xmlns="http://www.w3.org/2000/svg"
   xmlns:xlink="http://www.w3.org/1999/xlink"
   xmlns:sodipodi="http://sodipodi.sourceforge.net/DTD/sodipodi-0.dtd"
   xmlns:inkscape="http://www.inkscape.org/namespaces/inkscape"
   width="16"
   height="16"
   id="svg2"
   sodipodi:version="0.32"
   inkscape:version="0.48.3.1 r9886"
   version="1.0"
   sodipodi:docname="swatch_previous.svg"
   inkscape:output_extension="org.inkscape.output.svg.inkscape">
  <defs
     id="defs4">
    <linearGradient
       id="linearGradient3207">
      <stop
         style="stop-color:#ffb434;stop-opacity:1;"
         offset="0"
         id="stop3209" />
      <stop
         style="stop-color:#ff9327;stop-opacity:1;"
         offset="1"
         id="stop3211" />
    </linearGradient>
    <linearGradient
       inkscape:collect="always"
       id="linearGradient3180">
      <stop
         style="stop-color:#ffffff;stop-opacity:1;"
         offset="0"
         id="stop3182" />
      <stop
         style="stop-color:#ffffff;stop-opacity:0;"
         offset="1"
         id="stop3184" />
    </linearGradient>
    <linearGradient
       id="linearGradient3170">
      <stop
         style="stop-color:#ff801f;stop-opacity:1;"
         offset="0"
         id="stop3172" />
      <stop
         style="stop-color:#ffd03f;stop-opacity:1;"
         offset="1"
         id="stop3174" />
    </linearGradient>
    <inkscape:perspective
       sodipodi:type="inkscape:persp3d"
       inkscape:vp_x="0 : 526.18109 : 1"
       inkscape:vp_y="0 : 1000 : 0"
       inkscape:vp_z="744.09448 : 526.18109 : 1"
       inkscape:persp3d-origin="372.04724 : 350.78739 : 1"
       id="perspective10" />
    <inkscape:perspective
       id="perspective2390"
       inkscape:persp3d-origin="372.04724 : 350.78739 : 1"
       inkscape:vp_z="744.09448 : 526.18109 : 1"
       inkscape:vp_y="0 : 1000 : 0"
       inkscape:vp_x="0 : 526.18109 : 1"
       sodipodi:type="inkscape:persp3d" />
    <linearGradient
       inkscape:collect="always"
       xlink:href="#linearGradient3207"
       id="linearGradient3213"
       x1="174.89386"
       y1="200.77371"
       x2="249.22404"
       y2="241.19048"
       gradientUnits="userSpaceOnUse"
       gradientTransform="translate(-80,0)" />
    <linearGradient
       inkscape:collect="always"
       xlink:href="#linearGradient3180"
       id="linearGradient3225"
       x1="84.959869"
       y1="78.889908"
       x2="12.836839"
       y2="73.195984"
       gradientUnits="userSpaceOnUse"
       gradientTransform="translate(78.85715,154.07646)" />
    <linearGradient
       inkscape:collect="always"
       xlink:href="#linearGradient3180"
       id="linearGradient74231"
       gradientUnits="userSpaceOnUse"
       gradientTransform="matrix(0.13929442,0,0,0.13929442,157.91765,264.32535)"
       x1="84.959869"
       y1="78.889908"
       x2="12.836839"
       y2="73.195984" />
    <linearGradient
       inkscape:collect="always"
       xlink:href="#linearGradient3180"
       id="linearGradient74239"
       gradientUnits="userSpaceOnUse"
       gradientTransform="matrix(0.13929442,0,0,0.13929442,158.65253,265.73136)"
       x1="16.104851"
       y1="27.512449"
       x2="111.39187"
       y2="32.209698" />
    <linearGradient
       inkscape:collect="always"
       xlink:href="#linearGradient3180"
       id="linearGradient3012"
       gradientUnits="userSpaceOnUse"
       gradientTransform="matrix(0.13929442,0,0,0.13929442,158.65253,265.73136)"
       x1="16.104851"
       y1="27.512449"
       x2="111.39187"
       y2="32.209698" />
    <linearGradient
       inkscape:collect="always"
       xlink:href="#linearGradient3180"
       id="linearGradient3014"
       gradientUnits="userSpaceOnUse"
       gradientTransform="matrix(0.13929442,0,0,0.13929442,157.91765,264.32535)"
       x1="84.959869"
       y1="78.889908"
       x2="12.836839"
       y2="73.195984" />
    <linearGradient
       inkscape:collect="always"
       xlink:href="#linearGradient3180"
       id="linearGradient3017"
       gradientUnits="userSpaceOnUse"
       gradientTransform="matrix(0.09849603,-0.09849603,0.09849603,0.09849603,153.65591,273.53591)"
       x1="84.959869"
       y1="78.889908"
       x2="12.836839"
       y2="73.195984" />
    <linearGradient
       inkscape:collect="always"
       xlink:href="#linearGradient3180"
       id="linearGradient3023"
       gradientUnits="userSpaceOnUse"
       gradientTransform="matrix(0.09849603,-0.09849603,0.09849603,0.09849603,155.16975,274.01047)"
       x1="16.104851"
       y1="27.512449"
       x2="111.39187"
       y2="32.209698" />
    <linearGradient
       inkscape:collect="always"
       xlink:href="#linearGradient3180"
       id="linearGradient3036"
       gradientUnits="userSpaceOnUse"
       gradientTransform="matrix(0.09849603,-0.09849603,0.09849603,0.09849603,155.16975,274.01047)"
       x1="16.104851"
       y1="27.512449"
       x2="111.39187"
       y2="32.209698" />
    <linearGradient
       inkscape:collect="always"
       xlink:href="#linearGradient3180"
       id="linearGradient3038"
       gradientUnits="userSpaceOnUse"
       gradientTransform="matrix(0.09849603,-0.09849603,0.09849603,0.09849603,153.65591,273.53591)"
       x1="84.959869"
       y1="78.889908"
       x2="12.836839"
       y2="73.195984" />
    <linearGradient
       inkscape:collect="always"
       xlink:href="#linearGradient3180-4"
       id="linearGradient3036-4"
       gradientUnits="userSpaceOnUse"
       gradientTransform="matrix(0.09849603,-0.09849603,0.09849603,0.09849603,155.16975,274.01047)"
       x1="16.104851"
       y1="27.512449"
       x2="111.39187"
       y2="32.209698" />
    <linearGradient
       inkscape:collect="always"
       id="linearGradient3180-4">
      <stop
         style="stop-color:#ffffff;stop-opacity:1;"
         offset="0"
         id="stop3182-4" />
      <stop
         style="stop-color:#ffffff;stop-opacity:0;"
         offset="1"
         id="stop3184-3" />
    </linearGradient>
    <linearGradient
       inkscape:collect="always"
       xlink:href="#linearGradient3180"
       id="linearGradient3222"
       gradientUnits="userSpaceOnUse"
       gradientTransform="matrix(0.09849603,-0.09849603,0.09849603,0.09849603,153.65591,273.53591)"
       x1="84.959869"
       y1="78.889908"
       x2="12.836839"
       y2="73.195984" />
  </defs>
  <sodipodi:namedview
     id="base"
     pagecolor="#ffffff"
     bordercolor="#666666"
     borderopacity="1.0"
     gridtolerance="10000"
     guidetolerance="10"
     objecttolerance="10"
     inkscape:pageopacity="0.0"
     inkscape:pageshadow="2"
     inkscape:zoom="33.720155"
     inkscape:cx="2.733759"
     inkscape:cy="7.4256149"
     inkscape:document-units="px"
     inkscape:current-layer="layer2"
     showgrid="true"
     showguides="true"
     inkscape:guide-bbox="true"
     inkscape:window-width="1208"
     inkscape:window-height="919"
     inkscape:window-x="157"
     inkscape:window-y="230"
     inkscape:snap-global="false"
     inkscape:window-maximized="0">
    <inkscape:grid
       type="xygrid"
       id="grid74752"
       empspacing="5"
       visible="true"
       enabled="true"
       snapvisiblegridlinesonly="true" />
  </sodipodi:namedview>
  <metadata
     id="metadata7">
    <rdf:RDF>
      <cc:Work
         rdf:about="">
        <dc:format>image/svg+xml</dc:format>
        <dc:type
           rdf:resource="http://purl.org/dc/dcmitype/StillImage" />
        <dc:title />
      </cc:Work>
    </rdf:RDF>
  </metadata>
  <g
     inkscape:label="Layer 1"
     inkscape:groupmode="layer"
     id="layer1"
     transform="translate(-158.85715,-266.07646)"
     style="display:none">
    <g
       id="g3026"
       transform="matrix(1.1210854,0,0,2.5324217,-21.150567,-409.41315)">
      <path
         sodipodi:nodetypes="ccsccccc"
         id="path2396"
         d="m 160.98605,272.85382 c 6.34505,-0.19828 6.34505,-0.19828 6.34505,-0.19828 l -1.32188,-1.85065 c 0.63956,-0.66996 4.74699,-1.62439 6.34505,2.01588 l 2.04891,-2.04892 c -2.95282,-4.20927 -7.78588,-3.77998 -10.16198,-2.36288 l -1.14014,-1.4706 -2.11501,5.91545 z"
         style="fill:#d3d7cf;fill-opacity:1;fill-rule:evenodd;stroke:#2e3436;stroke-width:0.55717766;stroke-linecap:round;stroke-linejoin:round;stroke-opacity:1"
         inkscape:connector-curvature="0" />
      <path
         sodipodi:nodetypes="cccccccc"
         id="path3178"
         d="m 161.73787,271.92024 c 1.47886,-4.13916 1.47886,-4.13916 1.47886,-4.13916 l 0.88401,1.16492 c 2.23454,-1.53176 4.71369,-1.75885 7.47692,-0.47092 l -0.76006,0.69402 c -4.77644,-1.27506 -5.12251,0.24801 -6.80771,0.92532 l -0.59485,-0.99142 -1.67714,2.81727 z"
         style="fill:url(#linearGradient3036);fill-opacity:1;fill-rule:evenodd;stroke:none"
         inkscape:connector-curvature="0" />
      <path
         sodipodi:nodetypes="cccccccsssssccccscccccccccccccccccccccccccccccccccc"
         id="path3190"
         d="m 164.98587,270.39069 c -0.0362,0.12599 0.0111,0.25545 0.081,0.36029 0.0922,0.1567 0.21785,0.29026 0.31606,0.44305 0.17032,0.2102 0.32717,0.43098 0.49866,0.64019 0.026,0.0788 -0.0816,0.12033 -0.14158,0.10467 -0.21943,-0.01 -0.43902,-0.0194 -0.65869,-0.0123 -0.22574,0.001 -0.45145,-0.003 -0.67715,-0.006 -0.0501,0.0284 0.003,0.0921 -0.0123,0.13536 0.0137,0.13719 0.024,0.27471 0.0308,0.41245 0.0388,0.0459 0.0996,-0.003 0.14854,0.0114 0.34445,-0.01 0.68798,-0.0381 1.03237,-0.049 0.0967,0.001 0.18044,-0.0561 0.27868,-0.0517 0.14154,-0.0155 0.28442,0.0143 0.42859,0.0209 0.11102,0.001 0.2377,0.0453 0.33719,-0.0209 0.29845,0.10066 0.15374,-0.11782 0.0585,-0.25547 -0.0566,-0.10365 -0.12212,-0.18251 -0.21114,-0.26192 -0.10907,-0.11006 -0.20523,-0.23195 -0.27834,-0.36898 -0.0915,-0.17627 -0.20944,-0.33673 -0.31562,-0.50419 -0.0647,-0.10651 -0.18346,-0.22319 -0.11531,-0.35766 0.0527,-0.0925 0.17261,-0.0832 0.25729,-0.12973 0.14729,-0.0538 0.29341,-0.11109 0.44453,-0.15341 0.28215,-0.0893 0.5643,-0.17852 0.84645,-0.26779 0.18905,-0.0443 0.38085,-0.0744 0.57251,-0.10464 0.22043,-0.0175 0.44101,-0.0334 0.66177,-0.0462 0.23069,0.006 0.4611,0.0243 0.69,0.0532 0.14778,0.0216 0.29421,0.0522 0.43963,0.0853 0.2108,0.0755 0.41531,0.16702 0.62077,0.25572 0.17707,0.0751 0.34852,0.16417 0.50886,0.27063 0.2039,0.1602 0.41161,0.31643 0.59936,0.49583 0.17683,0.16001 0.3641,0.31135 0.51235,0.49962 0.0955,0.11434 0.19075,0.22937 0.27061,0.35547 0.0728,0.10164 0.14572,0.20313 0.21851,0.30477 0.0918,-0.10316 0.19517,-0.19616 0.30471,-0.2801 0.0551,-0.0494 0.11529,-0.0937 0.16625,-0.14773 -0.24626,-0.29547 -0.49244,-0.59101 -0.73875,-0.88642 -0.11019,-0.10594 -0.22507,-0.20654 -0.34476,-0.30163 -0.13783,-0.1176 -0.28698,-0.22093 -0.42481,-0.33853 -0.14627,-0.10272 -0.29398,-0.20333 -0.4432,-0.30168 -0.13709,-0.0685 -0.26869,-0.14891 -0.41245,-0.20315 -0.16821,-0.0743 -0.3365,-0.14854 -0.50858,-0.21362 -0.16406,-0.0682 -0.33597,-0.11432 -0.50408,-0.17113 -0.15031,-0.0414 -0.30463,-0.0674 -0.45938,-0.0852 -0.17929,-0.0147 -0.3586,-0.0294 -0.5379,-0.0441 -0.14258,0.007 -0.28623,4.9e-4 -0.42784,0.0215 -0.2087,0.0212 -0.41381,0.0661 -0.62044,0.10102 -0.15031,0.0239 -0.30083,0.0469 -0.44886,0.0833 -0.14873,0.028 -0.29363,0.0711 -0.43341,0.12901 -0.25919,0.0982 -0.51874,0.19536 -0.77809,0.29308 -0.17636,0.085 -0.35955,0.15551 -0.53197,0.24877 -0.11349,0.0552 -0.24419,0.11734 -0.29912,0.23747 l -2e-5,2e-5 z"
         style="fill:#babdb6;fill-opacity:1;fill-rule:evenodd;stroke:none"
         inkscape:connector-curvature="0" />
    </g>
  </g>
  <g
     inkscape:groupmode="layer"
     id="layer2"
     inkscape:label="Layer"
     style="display:inline">
    <path
       style="color:#000000;fill:#000000;fill-opacity:1;fill-rule:nonzero;stroke:#ffffff;stroke-width:0.36533286999999998;stroke-linecap:butt;stroke-linejoin:round;stroke-miterlimit:4;stroke-opacity:1;stroke-dasharray:none;stroke-dashoffset:0;marker:none;visibility:visible;display:inline;overflow:visible;enable-background:accumulate"
       d="m 6.5194301,9.9049276 -3.8404916,2.1508534 3.8404916,2.150834 0,-1.433705 6.8012749,0 3.56e-4,-1.43441 -6.8014084,0 z"
       id="path3791"
       inkscape:connector-curvature="0"
       sodipodi:nodetypes="cccccccc" />
  </g>
</svg>
