<?xml version="1.0" encoding="UTF-8" standalone="no"?>
<!-- Created with Inkscape (http://www.inkscape.org/) -->

<svg
   xmlns:dc="http://purl.org/dc/elements/1.1/"
   xmlns:cc="http://creativecommons.org/ns#"
   xmlns:rdf="http://www.w3.org/1999/02/22-rdf-syntax-ns#"
   xmlns:svg="http://www.w3.org/2000/svg"
   xmlns="http://www.w3.org/2000/svg"
   xmlns:xlink="http://www.w3.org/1999/xlink"
   xmlns:sodipodi="http://sodipodi.sourceforge.net/DTD/sodipodi-0.dtd"
   xmlns:inkscape="http://www.inkscape.org/namespaces/inkscape"
   width="16px"
   height="16px"
   id="svg3275"
   sodipodi:version="0.32"
   inkscape:version="0.48.2 r9819"
   sodipodi:docname="update_ui.svg"
   version="1.1">
  <defs
     id="defs3277">
    <linearGradient
       inkscape:collect="always"
       id="linearGradient3321">
      <stop
         style="stop-color:#2e3436;stop-opacity:1;"
         offset="0"
         id="stop3323" />
      <stop
         style="stop-color:#2e3436;stop-opacity:0;"
         offset="1"
         id="stop3325" />
    </linearGradient>
    <linearGradient
       id="linearGradient3305">
      <stop
         style="stop-color:#555753;stop-opacity:1"
         offset="0"
         id="stop3307" />
      <stop
         style="stop-color:#2e3436;stop-opacity:1"
         offset="1"
         id="stop3309" />
    </linearGradient>
    <linearGradient
       id="linearGradient3294">
      <stop
         style="stop-color:#eeeeec;stop-opacity:1;"
         offset="0"
         id="stop3296" />
      <stop
         style="stop-color:#b0b0a6;stop-opacity:1;"
         offset="1"
         id="stop3298" />
    </linearGradient>
    <linearGradient
       inkscape:collect="always"
       xlink:href="#linearGradient3294"
       id="linearGradient3300"
       x1="2.0000016"
       y1="10.586797"
       x2="14.048812"
       y2="10.586797"
       gradientUnits="userSpaceOnUse"
       gradientTransform="matrix(1,0,0,1.006576,0,-3.503056e-2)" />
    <linearGradient
       inkscape:collect="always"
       xlink:href="#linearGradient3305"
       id="linearGradient3311"
       x1="4.853137"
       y1="5.9085445"
       x2="12.517129"
       y2="14.888412"
       gradientUnits="userSpaceOnUse"
       gradientTransform="matrix(1,0,0,1.006576,0,-3.503056e-2)" />
    <radialGradient
       inkscape:collect="always"
       xlink:href="#linearGradient3321"
       id="radialGradient3327"
       cx="12.333204"
       cy="13.236964"
       fx="12.333204"
       fy="13.236964"
       r="3.7325435"
       gradientTransform="matrix(0.999959,-9.008647e-3,8.046257e-3,0.893134,-0.106008,1.525679)"
       gradientUnits="userSpaceOnUse" />
  </defs>
  <sodipodi:namedview
     id="base"
     pagecolor="#ffffff"
     bordercolor="#666666"
     borderopacity="1.0"
     inkscape:pageopacity="0.0"
     inkscape:pageshadow="2"
     inkscape:zoom="33.296703"
     inkscape:cx="0.91584132"
     inkscape:cy="7.6846535"
     inkscape:current-layer="layer1"
     showgrid="true"
     inkscape:grid-bbox="false"
     inkscape:document-units="px"
     inkscape:window-width="2560"
     inkscape:window-height="1468"
     inkscape:window-x="0"
     inkscape:window-y="0"
     inkscape:window-maximized="1">
    <inkscape:grid
       type="xygrid"
       id="grid39258" />
  </sodipodi:namedview>
  <metadata
     id="metadata3280">
    <rdf:RDF>
      <cc:Work
         rdf:about="">
        <dc:format>image/svg+xml</dc:format>
        <dc:type
           rdf:resource="http://purl.org/dc/dcmitype/StillImage" />
      </cc:Work>
    </rdf:RDF>
  </metadata>
  <g
     id="layer1"
     inkscape:label="Layer 1"
     inkscape:groupmode="layer">
    <path
       style="fill:url(#radialGradient3327);fill-opacity:1.0;fill-rule:evenodd;stroke:none;stroke-width:1px;stroke-linecap:butt;stroke-linejoin:miter;stroke-opacity:1"
       d="M 9.1712872,16 L 15.330363,15.030033 C 16.317192,14.067988 16.304538,12.561561 15.330363,11.69967 L 13,10.50396 L 9.1712872,16 z "
       id="path3319"
       sodipodi:nodetypes="ccccc" />
    <rect
       style="opacity:1;color:black;fill:white;fill-opacity:1;fill-rule:nonzero;stroke:#555753;stroke-width:0.99999982;stroke-linecap:butt;stroke-linejoin:miter;marker:none;marker-start:none;marker-mid:none;marker-end:none;stroke-miterlimit:4;stroke-dasharray:none;stroke-dashoffset:0;stroke-opacity:1;visibility:visible;display:inline;overflow:visible"
       id="rect3302"
       width="14.999996"
       height="8"
       x="0.49999985"
       y="0.49999997"
       ry="0" />
    <path
       style="font-size:6.8811655px;font-style:normal;font-variant:normal;font-weight:normal;font-stretch:normal;text-align:start;line-height:125%;writing-mode:lr-tb;text-anchor:start;fill:#888a85;fill-opacity:1;stroke:none;stroke-width:1px;stroke-linecap:butt;stroke-linejoin:miter;stroke-opacity:1;font-family:Tahoma"
       d="M 5.4604416,7.0760398 L 3.0211221,7.0760398 L 3.0211221,6.5653283 L 3.9283071,6.5653283 L 3.9283071,3.2121041 L 3.0211221,3.2121041 L 3.0211221,2.7551517 C 3.3638353,2.755156 3.6163909,2.7064369 3.7787895,2.6089941 C 3.9411852,2.5115603 4.0324635,2.3273236 4.052625,2.0562833 L 4.5734163,2.0562833 L 4.5734163,6.5653283 L 5.4604416,6.5653283 L 5.4604416,7.0760398 z "
       id="path3358" />
    <path
       style="font-size:6.8811655px;font-style:normal;font-variant:normal;font-weight:normal;font-stretch:normal;text-align:start;line-height:125%;writing-mode:lr-tb;text-anchor:start;fill:#888a85;fill-opacity:1;stroke:none;stroke-width:1px;stroke-linecap:butt;stroke-linejoin:miter;stroke-opacity:1;font-family:Tahoma"
       d="M 9.7191986,7.0760398 L 6.63141,7.0760398 L 6.63141,6.3738115 C 6.8531657,6.1632559 7.0626021,5.9616594 7.2597196,5.7690215 C 7.4568351,5.5763862 7.6494717,5.3759098 7.83763,5.1675915 C 8.2184217,4.7487208 8.4782571,4.4132868 8.617137,4.1612883 C 8.7560122,3.9092956 8.825451,3.6489002 8.8254535,3.3801013 C 8.825451,3.2412274 8.8036113,3.1191496 8.7599346,3.0138674 C 8.7162529,2.9085933 8.6563339,2.8212348 8.5801776,2.7517917 C 8.5017767,2.6845973 8.4110583,2.6341981 8.3080221,2.6005943 C 8.2049819,2.5669993 8.0918639,2.5501996 7.9686678,2.5501951 C 7.8499482,2.5501996 7.7295503,2.5653194 7.6074738,2.5955543 C 7.4853946,2.6257983 7.3683567,2.6633176 7.2563596,2.7081125 C 7.1622803,2.7461962 7.0715619,2.7921154 6.9842042,2.8458702 C 6.896845,2.8996335 6.8262862,2.9455526 6.7725277,2.9836279 L 6.7355683,2.9836279 L 6.7355683,2.2713197 C 6.8744454,2.2018858 7.067642,2.134127 7.3151587,2.0680431 C 7.5626732,2.0019693 7.7973091,1.9689299 8.0190669,1.9689248 C 8.484977,1.9689299 8.8500905,2.0926877 9.1144087,2.3401986 C 9.3787212,2.587719 9.5108789,2.923153 9.5108821,3.3465018 C 9.5108789,3.5413821 9.4879193,3.721699 9.4420033,3.8874528 C 9.3960809,4.0532131 9.332802,4.2066504 9.2521664,4.3477652 C 9.1692849,4.4933653 9.0696067,4.6378428 8.9531314,4.781198 C 8.8366508,4.9245577 8.7134529,5.0656753 8.5835375,5.2045509 C 8.3729789,5.4330288 8.1383431,5.6704646 7.8796293,5.9168591 C 7.6209122,6.1632559 7.4142759,6.3581325 7.2597196,6.5014894 L 9.7191986,6.5014894 L 9.7191986,7.0760398 z "
       id="path3356" />
    <path
       style="font-size:6.8811655px;font-style:normal;font-variant:normal;font-weight:normal;font-stretch:normal;text-align:start;line-height:125%;writing-mode:lr-tb;text-anchor:start;fill:#888a85;fill-opacity:1;stroke:none;stroke-width:1px;stroke-linecap:butt;stroke-linejoin:miter;stroke-opacity:1;font-family:Tahoma"
       d="M 12.375938,2.5501951 C 12.254978,2.5501996 12.13402,2.5647594 12.013064,2.5938744 C 11.892105,2.6229983 11.773387,2.6610777 11.65691,2.7081125 C 11.549391,2.752916 11.455872,2.7999552 11.376355,2.8492301 C 11.296835,2.8985135 11.225717,2.9444327 11.162998,2.9869878 L 11.122679,2.9869878 L 11.122679,2.2780396 C 11.268276,2.1996458 11.465952,2.1285271 11.715709,2.0646832 C 11.965463,2.0008493 12.203459,1.9689299 12.429697,1.9689248 C 12.655931,1.9689299 12.853608,1.9918895 13.022727,2.0378036 C 13.191842,2.0837279 13.344719,2.1548466 13.481359,2.2511601 C 13.629194,2.358683 13.740632,2.4886007 13.815674,2.6409136 C 13.890709,2.7932353 13.928229,2.9713122 13.928232,3.1751447 C 13.928229,3.4506637 13.83751,3.6925795 13.656076,3.9008926 C 13.474637,4.1092121 13.257361,4.2413698 13.004247,4.297366 L 13.004247,4.3444052 C 13.109523,4.3645676 13.222081,4.399287 13.341922,4.4485635 C 13.461757,4.4978453 13.573195,4.570644 13.676236,4.6669599 C 13.779271,4.7632806 13.86327,4.8870384 13.928232,5.0382337 C 13.993188,5.1894331 14.025667,5.3736698 14.02567,5.5909445 C 14.025667,5.817182 13.987028,6.0249383 13.909752,6.2142141 C 13.83247,6.4034917 13.723272,6.5709287 13.582158,6.7165258 C 13.436557,6.8688434 13.26072,6.9842014 13.054647,7.0626 C 12.848568,7.1409986 12.614492,7.180198 12.352418,7.1801981 C 12.101541,7.180198 11.852905,7.1499585 11.606511,7.0894796 C 11.360114,7.0290006 11.152918,6.9562019 10.984921,6.8710832 L 10.984921,6.162135 L 11.03196,6.162135 C 11.173077,6.2651741 11.362354,6.3637324 11.599791,6.4578101 C 11.837226,6.551889 12.074661,6.5989282 12.312099,6.5989277 C 12.448735,6.5989282 12.585932,6.5770886 12.723692,6.5334088 C 12.861448,6.4897301 12.976245,6.4186114 13.068086,6.3200524 C 13.157682,6.2214949 13.226001,6.1128568 13.273043,5.9941378 C 13.320079,5.875421 13.343599,5.7253436 13.343602,5.5439053 C 13.343599,5.36247 13.317279,5.2135126 13.264643,5.0970327 C 13.212001,4.9805568 13.138643,4.8887184 13.044567,4.8215173 C 12.950486,4.7543207 12.839048,4.7078416 12.710252,4.6820796 C 12.581452,4.6563225 12.442015,4.6434427 12.291939,4.6434403 L 12.006344,4.6434403 L 12.006344,4.0856895 L 12.2281,4.0856895 C 12.530493,4.0856925 12.776329,4.0140138 12.965608,3.8706531 C 13.154882,3.7272989 13.249521,3.5189825 13.249523,3.2457035 C 13.249521,3.1202696 13.224881,3.0121915 13.175604,2.9214689 C 13.126323,2.8307547 13.063604,2.7585159 12.987448,2.7047525 C 12.902327,2.6465179 12.808248,2.6061986 12.705212,2.5837945 C 12.602172,2.5613994 12.492414,2.5501996 12.375938,2.5501951 L 12.375938,2.5501951 z "
       id="text3349" />
    <path
       id="path3285"
       style="color:black;fill:url(#linearGradient3300);fill-opacity:1;fill-rule:nonzero;stroke:url(#linearGradient3311);stroke-width:0.86620557;stroke-linecap:butt;stroke-linejoin:round;marker:none;marker-start:none;marker-mid:none;marker-end:none;stroke-miterlimit:4;stroke-dashoffset:0;stroke-opacity:1;visibility:visible;display:inline;overflow:visible"
       d="M 13.615709,12.540193 L 12.392931,7.4451439 C 12.168456,7.0213439 11.883333,6.8258053 11.571686,6.5601402 L 11.306514,5.3269903 L 8.9814531,5.7298211 C 8.7555971,5.6774982 8.4512345,5.6758738 7.9996606,5.6758738 C 5.8576248,5.6758738 4.0587321,6.4626056 3.5680441,7.5224261 L 2.4331442,12.509962 C 2.4215964,14.214058 4.9205677,15.566896 7.9996574,15.566896 C 11.078747,15.566896 13.615709,14.207083 13.615709,12.540193 z "
       sodipodi:nodetypes="cccccsccsc" />
    <path
       transform="matrix(0.972166,0,0,1.318681,0.291974,-2.267216)"
       style="color:black;fill:white;fill-opacity:1;fill-rule:nonzero;stroke:none;stroke-width:0.87454969;stroke-linecap:butt;stroke-linejoin:round;stroke-miterlimit:4;stroke-dashoffset:0;stroke-opacity:1;marker:none;marker-start:none;marker-mid:none;marker-end:none;visibility:visible;display:inline;overflow:visible"
       d="M 12.043234,7.7859735 C 12.043234,8.6231735 10.199929,9.3026402 7.9287128,9.3026402 C 5.657497,9.3026402 3.8141913,8.6231735 3.8141913,7.7859735 C 3.8141913,6.9487736 5.657497,6.2693069 7.9287128,6.2693069 C 8.3328844,6.2693069 8.754398,6.1997239 9.1234915,6.2398178 L 11.131892,5.8774052 L 11.204353,6.8683935 C 11.730662,7.1232188 12.043234,7.4412226 12.043234,7.7859735 z "
       id="path3292"
       sodipodi:nodetypes="cssscccc" />
    <path
       style="fill:none;fill-opacity:0.75;fill-rule:evenodd;stroke:#d3d7cf;stroke-width:0.9999997px;stroke-linecap:butt;stroke-linejoin:miter;stroke-opacity:1"
       d="M 1.5016502,8.017817 L 1.5016502,1.4940582 L 15,1.4940582"
       id="path3329" />
  </g>
</svg>
