<?xml version="1.0" encoding="UTF-8" standalone="no"?>
<!-- Created with Inkscape (http://www.inkscape.org/) -->
<svg
   xmlns:a="http://ns.adobe.com/AdobeSVGViewerExtensions/3.0/"
   xmlns:i="http://ns.adobe.com/AdobeIllustrator/10.0/"
   xmlns:dc="http://purl.org/dc/elements/1.1/"
   xmlns:cc="http://web.resource.org/cc/"
   xmlns:rdf="http://www.w3.org/1999/02/22-rdf-syntax-ns#"
   xmlns:svg="http://www.w3.org/2000/svg"
   xmlns="http://www.w3.org/2000/svg"
   xmlns:xlink="http://www.w3.org/1999/xlink"
   xmlns:sodipodi="http://sodipodi.sourceforge.net/DTD/sodipodi-0.dtd"
   xmlns:inkscape="http://www.inkscape.org/namespaces/inkscape"
   width="48px"
   height="48px"
   id="svg51428"
   sodipodi:version="0.32"
   inkscape:version="0.44.1"
   sodipodi:docbase="e:\dev_clean\src\houdini\support\icons\sop"
   sodipodi:docname="capturemeta.svg">
  <defs
     id="defs51430">
    <linearGradient
       id="linearGradient11615">
      <stop
         style="stop-color:#fbfdff;stop-opacity:1;"
         offset="0"
         id="stop11617" />
      <stop
         style="stop-color:#8bafe5;stop-opacity:1;"
         offset="1"
         id="stop11619" />
    </linearGradient>
    <linearGradient
       inkscape:collect="always"
       xlink:href="#linearGradient11615"
       id="linearGradient2552"
       gradientUnits="userSpaceOnUse"
       gradientTransform="matrix(0.461694,-0.891009,0.896186,0.464376,-7.044903,36.82187)"
       x1="4.540381"
       y1="9.1704388"
       x2="44.792812"
       y2="35.011627" />
    <radialGradient
       inkscape:collect="always"
       xlink:href="#linearGradient11593"
       id="radialGradient2555"
       gradientUnits="userSpaceOnUse"
       gradientTransform="matrix(0.923303,-0.473638,0.920017,1.79694,6.1696,-8.802879)"
       cx="14.360154"
       cy="19.117756"
       fx="14.360154"
       fy="19.117756"
       r="9.1040385" />
    <linearGradient
       id="linearGradient11593">
      <stop
         style="stop-color:#00419e;stop-opacity:0;"
         offset="0"
         id="stop11595" />
      <stop
         id="stop11607"
         offset="0.44465849"
         style="stop-color:#00419e;stop-opacity:0;" />
      <stop
         id="stop11603"
         offset="0.67274517"
         style="stop-color:#00419e;stop-opacity:0.4742268;" />
      <stop
         style="stop-color:#00419e;stop-opacity:0;"
         offset="1"
         id="stop11597" />
    </linearGradient>
    <radialGradient
       inkscape:collect="always"
       xlink:href="#linearGradient11593"
       id="radialGradient2558"
       gradientUnits="userSpaceOnUse"
       gradientTransform="matrix(0.85919,-0.44075,0.856132,1.672163,-12.00013,6.924316)"
       cx="14.360154"
       cy="19.117756"
       fx="14.360154"
       fy="19.117756"
       r="9.1040385" />
    <radialGradient
       inkscape:collect="always"
       xlink:href="#linearGradient11576"
       id="radialGradient2565"
       gradientUnits="userSpaceOnUse"
       gradientTransform="matrix(0.693338,0.435977,-0.532316,0.846546,11.17187,-2.836786)"
       cx="11.551481"
       cy="14.332607"
       fx="11.551481"
       fy="14.332607"
       r="10.718985" />
    <linearGradient
       id="linearGradient11576">
      <stop
         style="stop-color:white;stop-opacity:1;"
         offset="0"
         id="stop11578" />
      <stop
         style="stop-color:white;stop-opacity:0;"
         offset="1"
         id="stop11580" />
    </linearGradient>
    <radialGradient
       inkscape:collect="always"
       xlink:href="#linearGradient11576"
       id="radialGradient2567"
       gradientUnits="userSpaceOnUse"
       gradientTransform="matrix(0.813071,0.620446,-0.606639,0.794977,10.48467,-3.641845)"
       cx="10.510629"
       cy="14.044463"
       fx="10.510629"
       fy="14.044463"
       r="10.718985" />
    <linearGradient
       y2="1712.6716"
       x2="949.1129"
       y1="1677.3403"
       x1="928.4619"
       gradientUnits="userSpaceOnUse"
       id="XMLID_824_"
       gradientTransform="translate(-904.2197,-1655.897)">
      <stop
         id="stop22180"
         style="stop-color:#FEF3DC"
         offset="0" />
      <stop
         id="stop22182"
         style="stop-color:#FAAF3E"
         offset="1" />
      <a:midPointStop
         style="stop-color:#FEF3DC"
         offset="0" />
      <a:midPointStop
         style="stop-color:#FEF3DC"
         offset="0.5" />
      <a:midPointStop
         style="stop-color:#FAAF3E"
         offset="1" />
    </linearGradient>
    <radialGradient
       inkscape:collect="always"
       xlink:href="#linearGradient11576"
       id="radialGradient3329"
       gradientUnits="userSpaceOnUse"
       gradientTransform="matrix(0.813071,0.620446,-0.606639,0.794977,10.48467,-3.641845)"
       cx="10.510629"
       cy="14.044463"
       fx="10.510629"
       fy="14.044463"
       r="10.718985" />
    <radialGradient
       inkscape:collect="always"
       xlink:href="#linearGradient11576"
       id="radialGradient3331"
       gradientUnits="userSpaceOnUse"
       gradientTransform="matrix(0.693338,0.435977,-0.532316,0.846546,11.17187,-2.836786)"
       cx="11.551481"
       cy="14.332607"
       fx="11.551481"
       fy="14.332607"
       r="10.718985" />
    <radialGradient
       inkscape:collect="always"
       xlink:href="#linearGradient11593"
       id="radialGradient3333"
       gradientUnits="userSpaceOnUse"
       gradientTransform="matrix(0.85919,-0.44075,0.856132,1.672163,-12.00013,6.924316)"
       cx="14.360154"
       cy="19.117756"
       fx="14.360154"
       fy="19.117756"
       r="9.1040385" />
    <radialGradient
       inkscape:collect="always"
       xlink:href="#linearGradient11593"
       id="radialGradient3335"
       gradientUnits="userSpaceOnUse"
       gradientTransform="matrix(0.923303,-0.473638,0.920017,1.79694,6.1696,-8.802879)"
       cx="14.360154"
       cy="19.117756"
       fx="14.360154"
       fy="19.117756"
       r="9.1040385" />
    <linearGradient
       inkscape:collect="always"
       xlink:href="#linearGradient11615"
       id="linearGradient3337"
       gradientUnits="userSpaceOnUse"
       gradientTransform="matrix(0.461694,-0.891009,0.896186,0.464376,-7.044903,36.82187)"
       x1="4.540381"
       y1="9.1704388"
       x2="44.792812"
       y2="35.011627" />
  </defs>
  <sodipodi:namedview
     id="base"
     pagecolor="#ffffff"
     bordercolor="#666666"
     borderopacity="1.0"
     inkscape:pageopacity="0.0"
     inkscape:pageshadow="2"
     inkscape:zoom="7"
     inkscape:cx="24"
     inkscape:cy="24"
     inkscape:current-layer="layer1"
     showgrid="true"
     inkscape:grid-bbox="true"
     inkscape:document-units="px"
     inkscape:window-width="1335"
     inkscape:window-height="1094"
     inkscape:window-x="276"
     inkscape:window-y="-2" />
  <metadata
     id="metadata51433">
    <rdf:RDF>
      <cc:Work
         rdf:about="">
        <dc:format>image/svg+xml</dc:format>
        <dc:type
           rdf:resource="http://purl.org/dc/dcmitype/StillImage" />
      </cc:Work>
    </rdf:RDF>
  </metadata>
  <g
     id="layer1"
     inkscape:label="Layer 1"
     inkscape:groupmode="layer">
    <g
       id="g3321"
       transform="matrix(0.992657,-0.120959,0.120959,0.992657,-2.28608,1.904321)">
      <path
         sodipodi:nodetypes="ccscscsscsc"
         d="M 23.274658,14.015479 C 26.688825,7.4265837 34.205351,5.2642639 40.416673,8.4827848 C 46.627996,11.701305 49.084361,19.301586 45.89963,25.447699 C 44.307263,28.520756 41.604637,30.651288 38.302485,31.666564 C 33.72835,33.026901 28.735973,30.57059 27.311036,31.449462 C 25.886099,32.328333 26.528996,35.453456 24.705638,39.110275 C 21.551929,45.126598 14.461217,47.261669 8.6483586,44.249621 C 2.8355002,41.237573 0.57427757,34.052366 3.6009867,28.211214 C 5.1143416,25.290638 7.6645546,23.256329 10.69262,22.319142 C 14.857237,20.79425 19.645097,23.372776 20.986674,22.131858 C 22.321834,20.896878 21.776717,17.032215 23.274658,14.015479 z "
         style="color:black;fill:#729fcf;fill-opacity:1;fill-rule:evenodd;stroke:#132c51;stroke-width:2.00000167;stroke-linecap:butt;stroke-linejoin:round;marker:none;marker-start:none;marker-mid:none;marker-end:none;stroke-miterlimit:4;stroke-dasharray:none;stroke-dashoffset:0;stroke-opacity:1;visibility:visible;display:inline;overflow:visible"
         id="path11546" />
      <path
         transform="matrix(0.489257,-0.944202,0.943417,0.488851,-8.273303,37.56626)"
         d="M 23.491991 16.986053 A 10.593985 10.593985 0 1 1  2.3040218,16.986053 A 10.593985 10.593985 0 1 1  23.491991 16.986053 z"
         sodipodi:ry="10.593985"
         sodipodi:rx="10.593985"
         sodipodi:cy="16.986053"
         sodipodi:cx="12.898006"
         id="path11566"
         style="color:black;fill:url(#radialGradient3329);fill-opacity:1;fill-rule:evenodd;stroke:none;stroke-width:0.25;stroke-linecap:butt;stroke-linejoin:round;marker:none;marker-start:none;marker-mid:none;marker-end:none;stroke-miterlimit:4;stroke-dasharray:none;stroke-dashoffset:0;stroke-opacity:1;visibility:visible;display:inline;overflow:visible"
         sodipodi:type="arc" />
      <path
         transform="matrix(0.526665,-1.016396,1.015551,0.526228,10.51987,23.84857)"
         d="M 23.491991 16.986053 A 10.593985 10.593985 0 1 1  2.3040218,16.986053 A 10.593985 10.593985 0 1 1  23.491991 16.986053 z"
         sodipodi:ry="10.593985"
         sodipodi:rx="10.593985"
         sodipodi:cy="16.986053"
         sodipodi:cx="12.898006"
         id="path11584"
         style="color:black;fill:url(#radialGradient3331);fill-opacity:1;fill-rule:evenodd;stroke:none;stroke-width:0.25;stroke-linecap:butt;stroke-linejoin:round;marker:none;marker-start:none;marker-mid:none;marker-end:none;stroke-miterlimit:4;stroke-dasharray:none;stroke-dashoffset:0;stroke-opacity:1;visibility:visible;display:inline;overflow:visible"
         sodipodi:type="arc" />
      <path
         sodipodi:nodetypes="cscssc"
         id="path11588"
         d="M 19.223911,43.851564 C 21.288288,40.740346 21.830585,36.804084 19.812994,31.461214 C 17.795399,26.118342 14.61539,23.717552 11.821757,22.575874 C 14.203922,21.239303 17.694737,22.530689 20.211937,23.835025 C 25.246331,26.443694 27.27652,33.050642 24.55702,38.298924 C 23.197269,40.923065 21.769351,42.987909 19.223911,43.851564 z "
         style="color:black;fill:url(#radialGradient3333);fill-opacity:1;fill-rule:evenodd;stroke:none;stroke-width:1;stroke-linecap:butt;stroke-linejoin:round;marker:none;marker-start:none;marker-mid:none;marker-end:none;stroke-miterlimit:4;stroke-dasharray:none;stroke-dashoffset:0;stroke-opacity:1;visibility:visible;display:inline;overflow:visible" />
      <path
         sodipodi:nodetypes="cscssc"
         id="path11609"
         d="M 39.723562,30.879861 C 41.94198,27.536484 42.524746,23.306501 40.3566,17.564948 C 38.188454,11.823394 34.771153,9.2434587 31.769062,8.0165884 C 34.328983,6.5802832 38.080282,7.9680313 40.785312,9.3696964 C 46.195372,12.173025 48.377053,19.27298 45.454624,24.912885 C 43.99341,27.732838 42.458941,29.95176 39.723562,30.879861 z "
         style="color:black;fill:url(#radialGradient3335);fill-opacity:1;fill-rule:evenodd;stroke:none;stroke-width:1;stroke-linecap:butt;stroke-linejoin:round;marker:none;marker-start:none;marker-mid:none;marker-end:none;stroke-miterlimit:4;stroke-dasharray:none;stroke-dashoffset:0;stroke-opacity:1;visibility:visible;display:inline;overflow:visible" />
      <path
         sodipodi:nodetypes="ccscscsscsc"
         d="M 24.2165,14.246658 C 27.470452,7.9669587 34.028028,6.3578992 39.985494,9.4448795 C 45.942962,12.53186 48.060645,18.893803 45.025364,24.751498 C 43.507724,27.680344 41.331614,29.713762 38.171166,30.674526 C 33.793206,31.961452 28.313828,29.553684 26.642572,30.585802 C 25.057462,31.564721 25.446988,35.087696 23.709537,38.573089 C 20.70365,44.306994 14.755077,46.097483 9.1797876,43.208537 C 3.604499,40.31959 1.5348994,34.128605 4.4195751,28.56156 C 5.8619129,25.778037 8.0934756,24.042454 10.991583,23.155538 C 14.976881,21.710554 20.386414,23.993901 21.66837,22.812943 C 22.944194,21.637639 22.789166,17.121989 24.2165,14.246658 z "
         style="color:black;fill:none;fill-opacity:1;fill-rule:evenodd;stroke:url(#linearGradient3337);stroke-width:1.0000006;stroke-linecap:butt;stroke-linejoin:round;marker:none;marker-start:none;marker-mid:none;marker-end:none;stroke-miterlimit:4;stroke-dasharray:none;stroke-dashoffset:0;stroke-opacity:1;visibility:visible;display:inline;overflow:visible"
         id="path11613" />
    </g>
    <path
       style="opacity:0.73015873;fill:url(#XMLID_824_)"
       id="path22184"
       d="M 45.007328,15.155868 C 44.372328,15.342868 43.473328,17.765868 41.684328,20.344868 C 39.543328,23.430869 33.322328,26.578869 32.576328,27.324869 C 31.829328,28.072869 30.359328,29.393869 28.426328,30.578869 C 27.252328,31.296869 21.559328,33.233869 20.237328,34.787869 C 19.750328,35.359869 18.413328,36.262869 18.017328,36.957869 C 17.734328,37.451869 17.307328,38.785869 16.187328,39.906869 C 15.067328,41.025869 13.275328,41.922869 13.125328,42.295869 C 12.977328,42.668869 11.087328,45.791869 10.834328,46.193869 C 10.296328,47.047869 8.9323279,46.482869 9.4403279,45.369869 C 9.9563279,44.244869 11.445328,41.885869 11.333328,41.586869 C 11.221328,41.287869 10.886328,41.324869 10.587328,41.511869 C 10.288328,41.698869 7.2743279,45.495869 6.7123279,46.038869 C 6.0143279,46.711869 4.6913279,45.846869 5.3893279,44.955869 C 5.8463279,44.372869 9.2603279,40.557869 9.0573279,40.279869 C 8.7093279,39.806869 3.5443279,43.179869 3.0063279,43.439869 C 2.2613279,43.800869 1.4673279,42.645869 2.3103279,41.923869 C 2.9713279,41.357869 7.9733279,38.485869 7.7123279,38.112869 C 7.4503279,37.739869 2.0883279,39.819869 1.6593279,39.902869 C 0.91432786,40.046869 0.38932786,39.053869 1.0343279,38.434869 C 1.5693279,37.921869 6.3753279,36.438869 7.0403279,35.760869 C 7.5773279,35.213869 8.8463279,34.318869 8.6183279,33.838869 C 8.3243279,33.216869 6.2083279,33.424869 5.4973279,33.459869 C 3.8493279,33.539869 4.2263279,31.833869 6.0673279,31.695869 C 7.1233279,31.617869 8.1993279,31.341869 8.9243279,31.033869 C 9.7183279,30.697869 10.632328,30.278869 11.763328,30.278869 C 13.207328,30.278869 14.567328,31.018869 14.852328,30.840869 C 17.024328,29.473869 20.705328,24.602869 23.371328,22.672869 C 25.263328,21.301868 27.717328,20.963868 28.735328,19.752868 C 29.920328,18.348868 33.353328,12.740868 33.924328,11.533868 C 38.880328,-0.34813158 45.891328,1.7098685 47.542328,1.7098685"
       i:knockout="Off" />
    <path
       style="fill:none;stroke:#d99357;stroke-width:1.5;stroke-miterlimit:4;stroke-dasharray:none"
       id="path22774"
       d="M 45.007328,15.155868 C 44.372328,15.342868 43.473328,17.765868 41.684328,20.344868 C 39.543328,23.430869 33.322328,26.578869 32.576328,27.324869 C 31.829328,28.072869 30.359328,29.393869 28.426328,30.578869 C 27.252328,31.296869 21.559328,33.233869 20.237328,34.787869 C 19.750328,35.359869 18.413328,36.262869 18.017328,36.957869 C 17.734328,37.451869 17.307328,38.785869 16.187328,39.906869 C 15.067328,41.025869 13.275328,41.922869 13.125328,42.295869 C 12.977328,42.668869 11.087328,45.791869 10.834328,46.193869 C 10.296328,47.047869 8.9323279,46.482869 9.4403279,45.369869 C 9.9563279,44.244869 11.445328,41.885869 11.333328,41.586869 C 11.221328,41.287869 10.886328,41.324869 10.587328,41.511869 C 10.288328,41.698869 7.2743279,45.495869 6.7123279,46.038869 C 6.0143279,46.711869 4.6913279,45.846869 5.3893279,44.955869 C 5.8463279,44.372869 9.2603279,40.557869 9.0573279,40.279869 C 8.7093279,39.806869 3.5443279,43.179869 3.0063279,43.439869 C 2.2613279,43.800869 1.4673279,42.645869 2.3103279,41.923869 C 2.9713279,41.357869 7.9733279,38.485869 7.7123279,38.112869 C 7.4503279,37.739869 2.0883279,39.819869 1.6593279,39.902869 C 0.91432786,40.046869 0.38932786,39.053869 1.0343279,38.434869 C 1.5693279,37.921869 6.3753279,36.438869 7.0403279,35.760869 C 7.5773279,35.213869 8.8463279,34.318869 8.6183279,33.838869 C 8.3243279,33.216869 6.2083279,33.424869 5.4973279,33.459869 C 3.8493279,33.539869 4.2263279,31.833869 6.0673279,31.695869 C 7.1233279,31.617869 8.1993279,31.341869 8.9243279,31.033869 C 9.7183279,30.697869 10.632328,30.278869 11.763328,30.278869 C 13.207328,30.278869 14.567328,31.018869 14.852328,30.840869 C 17.024328,29.473869 20.705328,24.602869 23.371328,22.672869 C 25.263328,21.301868 27.717328,20.963868 28.735328,19.752868 C 29.920328,18.348868 33.353328,12.740868 33.924328,11.533868 C 38.880328,-0.34813158 45.891328,1.7098685 47.542328,1.7098685"
       i:knockout="Off" />
  </g>
</svg>
