<?xml version="1.0" encoding="UTF-8" standalone="no"?>
<!-- Created with Inkscape (http://www.inkscape.org/) -->

<svg
   xmlns:dc="http://purl.org/dc/elements/1.1/"
   xmlns:cc="http://creativecommons.org/ns#"
   xmlns:rdf="http://www.w3.org/1999/02/22-rdf-syntax-ns#"
   xmlns:svg="http://www.w3.org/2000/svg"
   xmlns="http://www.w3.org/2000/svg"
   xmlns:sodipodi="http://sodipodi.sourceforge.net/DTD/sodipodi-0.dtd"
   xmlns:inkscape="http://www.inkscape.org/namespaces/inkscape"
   width="48px"
   height="48px"
   id="svg10"
   version="1.1"
   inkscape:version="0.48+devel r10855"
   sodipodi:docname="clusterpoints.svg">
  <defs
     id="defs12" />
  <sodipodi:namedview
     id="base"
     pagecolor="#ffffff"
     bordercolor="#666666"
     borderopacity="1.0"
     inkscape:pageopacity="0.0"
     inkscape:pageshadow="2"
     inkscape:zoom="19.79899"
     inkscape:cx="15.969287"
     inkscape:cy="24"
     inkscape:current-layer="layer1"
     showgrid="true"
     inkscape:grid-bbox="true"
     inkscape:document-units="px"
     inkscape:snap-global="false"
     inkscape:window-width="2560"
     inkscape:window-height="1538"
     inkscape:window-x="-8"
     inkscape:window-y="-8"
     inkscape:window-maximized="1">
    <inkscape:grid
       type="xygrid"
       id="grid18" />
  </sodipodi:namedview>
  <metadata
     id="metadata15">
    <rdf:RDF>
      <cc:Work
         rdf:about="">
        <dc:format>image/svg+xml</dc:format>
        <dc:type
           rdf:resource="http://purl.org/dc/dcmitype/StillImage" />
        <dc:title />
      </cc:Work>
    </rdf:RDF>
  </metadata>
  <g
     id="layer1"
     inkscape:label="Layer 1"
     inkscape:groupmode="layer">
    <path
       sodipodi:type="arc"
       style="color:#000000;fill:#fcaf3e;fill-opacity:0.25405404;fill-rule:nonzero;stroke:#fcaf3e;stroke-width:1;stroke-linecap:butt;stroke-linejoin:miter;stroke-miterlimit:4;stroke-opacity:1;stroke-dasharray:2,1;stroke-dashoffset:0.7;marker:none;visibility:visible;display:inline;overflow:visible;enable-background:accumulate"
       id="path20"
       sodipodi:cx="13.83909"
       sodipodi:cy="13.856844"
       sodipodi:rx="13.687567"
       sodipodi:ry="13.687567"
       d="m 27.526657,13.856844 a 13.687567,13.687567 0 1 1 -27.37513341,0 13.687567,13.687567 0 1 1 27.37513341,0 z"
       transform="translate(0.35355339,0.35355339)" />
    <path
       transform="translate(20.00102,1.3637059)"
       d="m 27.526657,13.856844 a 13.687567,13.687567 0 1 1 -27.37513341,0 13.687567,13.687567 0 1 1 27.37513341,0 z"
       sodipodi:ry="13.687567"
       sodipodi:rx="13.687567"
       sodipodi:cy="13.856844"
       sodipodi:cx="13.83909"
       id="path3905"
       style="color:#000000;fill:#ad7fa8;fill-opacity:0.25405405;fill-rule:nonzero;stroke:#ad7fa8;stroke-width:1;stroke-linecap:butt;stroke-linejoin:miter;stroke-miterlimit:4;stroke-opacity:1;stroke-dasharray:2, 1;stroke-dashoffset:0.7;marker:none;visibility:visible;display:inline;overflow:visible;enable-background:accumulate"
       sodipodi:type="arc" />
    <path
       sodipodi:type="arc"
       style="color:#000000;fill:#729fcf;fill-opacity:0.25405405;fill-rule:nonzero;stroke:#729fcf;stroke-width:1;stroke-linecap:butt;stroke-linejoin:miter;stroke-miterlimit:4;stroke-opacity:1;stroke-dasharray:2, 1;stroke-dashoffset:0.7;marker:none;visibility:visible;display:inline;overflow:visible;enable-background:accumulate"
       id="path3907"
       sodipodi:cx="13.83909"
       sodipodi:cy="13.856844"
       sodipodi:rx="13.687567"
       sodipodi:ry="13.687567"
       d="m 27.526657,13.856844 a 13.687567,13.687567 0 1 1 -27.37513341,0 13.687567,13.687567 0 1 1 27.37513341,0 z"
       transform="translate(2.3233504,17.8797)" />
    <path
       transform="translate(17.930207,20.152543)"
       d="m 27.526657,13.856844 a 13.687567,13.687567 0 1 1 -27.37513341,0 13.687567,13.687567 0 1 1 27.37513341,0 z"
       sodipodi:ry="13.687567"
       sodipodi:rx="13.687567"
       sodipodi:cy="13.856844"
       sodipodi:cx="13.83909"
       id="path3909"
       style="color:#000000;fill:#8ae234;fill-opacity:0.25405405;fill-rule:nonzero;stroke:#8ae234;stroke-width:1;stroke-linecap:butt;stroke-linejoin:miter;stroke-miterlimit:4;stroke-opacity:1;stroke-dasharray:2, 1;stroke-dashoffset:0.7;marker:none;visibility:visible;display:inline;overflow:visible;enable-background:accumulate"
       sodipodi:type="arc" />
    <path
       transform="matrix(1.0095494,0,0,1.0097257,-1.7944631,-1.6838847)"
       d="m 14.142135,9.0838728 a 3.0052037,3.0052037 0 1 1 -6.0104073,0 3.0052037,3.0052037 0 1 1 6.0104073,0 z"
       sodipodi:ry="3.0052037"
       sodipodi:rx="3.0052037"
       sodipodi:cy="9.0838728"
       sodipodi:cx="11.136931"
       id="path3913"
       style="color:#000000;fill:#2e3436;stroke:#eeeeec;stroke-width:0.99045444;stroke-linecap:butt;stroke-linejoin:miter;stroke-miterlimit:4;stroke-opacity:1;stroke-dasharray:none;stroke-dashoffset:0.7;marker:none;visibility:visible;display:inline;overflow:visible;enable-background:accumulate"
       sodipodi:type="arc" />
    <path
       sodipodi:type="arc"
       style="color:#000000;fill:#2e3436;stroke:#eeeeec;stroke-width:0.99045444;stroke-linecap:butt;stroke-linejoin:miter;stroke-miterlimit:4;stroke-opacity:1;stroke-dasharray:none;stroke-dashoffset:0.7;marker:none;visibility:visible;display:inline;overflow:visible;enable-background:accumulate"
       id="path3923"
       sodipodi:cx="11.136931"
       sodipodi:cy="9.0838728"
       sodipodi:rx="3.0052037"
       sodipodi:ry="3.0052037"
       d="m 14.142135,9.0838728 a 3.0052037,3.0052037 0 1 1 -6.0104073,0 3.0052037,3.0052037 0 1 1 6.0104073,0 z"
       transform="matrix(1.0095494,0,0,1.0097257,10.206047,0.38692798)" />
    <path
       sodipodi:type="arc"
       style="color:#000000;fill:#2e3436;stroke:#eeeeec;stroke-width:0.99045444;stroke-linecap:butt;stroke-linejoin:miter;stroke-miterlimit:4;stroke-opacity:1;stroke-dasharray:none;stroke-dashoffset:0.7;marker:none;visibility:visible;display:inline;overflow:visible;enable-background:accumulate"
       id="path3929"
       sodipodi:cx="11.136931"
       sodipodi:cy="9.0838728"
       sodipodi:rx="3.0052037"
       sodipodi:ry="3.0052037"
       d="m 14.142135,9.0838728 a 3.0052037,3.0052037 0 1 1 -6.0104073,0 3.0052037,3.0052037 0 1 1 6.0104073,0 z"
       transform="matrix(1.0095494,0,0,1.0097257,-3.7642606,8.3166257)" />
    <path
       transform="matrix(1.0095494,0,0,1.0097257,6.185742,12.33693)"
       d="m 14.142135,9.0838728 a 3.0052037,3.0052037 0 1 1 -6.0104073,0 3.0052037,3.0052037 0 1 1 6.0104073,0 z"
       sodipodi:ry="3.0052037"
       sodipodi:rx="3.0052037"
       sodipodi:cy="9.0838728"
       sodipodi:cx="11.136931"
       id="path3935"
       style="color:#000000;fill:#2e3436;stroke:#eeeeec;stroke-width:0.99045444;stroke-linecap:butt;stroke-linejoin:miter;stroke-miterlimit:4;stroke-opacity:1;stroke-dasharray:none;stroke-dashoffset:0.7;marker:none;visibility:visible;display:inline;overflow:visible;enable-background:accumulate"
       sodipodi:type="arc" />
    <path
       transform="matrix(1.0095494,0,0,1.0097257,23.287522,-1.6838847)"
       d="m 14.142135,9.0838728 a 3.0052037,3.0052037 0 1 1 -6.0104073,0 3.0052037,3.0052037 0 1 1 6.0104073,0 z"
       sodipodi:ry="3.0052037"
       sodipodi:rx="3.0052037"
       sodipodi:cy="9.0838728"
       sodipodi:cx="11.136931"
       id="path3941"
       style="color:#000000;fill:#2e3436;stroke:#eeeeec;stroke-width:0.99045444;stroke-linecap:butt;stroke-linejoin:miter;stroke-miterlimit:4;stroke-opacity:1;stroke-dasharray:none;stroke-dashoffset:0.7;marker:none;visibility:visible;display:inline;overflow:visible;enable-background:accumulate"
       sodipodi:type="arc" />
    <path
       sodipodi:type="arc"
       style="color:#000000;fill:#2e3436;stroke:#eeeeec;stroke-width:0.99045444;stroke-linecap:butt;stroke-linejoin:miter;stroke-miterlimit:4;stroke-opacity:1;stroke-dasharray:none;stroke-dashoffset:0.7;marker:none;visibility:visible;display:inline;overflow:visible;enable-background:accumulate"
       id="path3953"
       sodipodi:cx="11.136931"
       sodipodi:cy="9.0838728"
       sodipodi:rx="3.0052037"
       sodipodi:ry="3.0052037"
       d="m 14.142135,9.0838728 a 3.0052037,3.0052037 0 1 1 -6.0104073,0 3.0052037,3.0052037 0 1 1 6.0104073,0 z"
       transform="matrix(1.0095494,0,0,1.0097257,30.207067,7.306473)" />
    <path
       transform="matrix(1.0095494,0,0,1.0097257,19.246912,10.33693)"
       d="m 14.142135,9.0838728 a 3.0052037,3.0052037 0 1 1 -6.0104073,0 3.0052037,3.0052037 0 1 1 6.0104073,0 z"
       sodipodi:ry="3.0052037"
       sodipodi:rx="3.0052037"
       sodipodi:cy="9.0838728"
       sodipodi:cx="11.136931"
       id="path3959"
       style="color:#000000;fill:#2e3436;stroke:#eeeeec;stroke-width:0.99045444;stroke-linecap:butt;stroke-linejoin:miter;stroke-miterlimit:4;stroke-opacity:1;stroke-dasharray:none;stroke-dashoffset:0.7;marker:none;visibility:visible;display:inline;overflow:visible;enable-background:accumulate"
       sodipodi:type="arc" />
    <path
       sodipodi:type="arc"
       style="color:#000000;fill:#2e3436;stroke:#eeeeec;stroke-width:0.99045444;stroke-linecap:butt;stroke-linejoin:miter;stroke-miterlimit:4;stroke-opacity:1;stroke-dasharray:none;stroke-dashoffset:0.7;marker:none;visibility:visible;display:inline;overflow:visible;enable-background:accumulate"
       id="path3965"
       sodipodi:cx="11.136931"
       sodipodi:cy="9.0838728"
       sodipodi:rx="3.0052037"
       sodipodi:ry="3.0052037"
       d="m 14.142135,9.0838728 a 3.0052037,3.0052037 0 1 1 -6.0104073,0 3.0052037,3.0052037 0 1 1 6.0104073,0 z"
       transform="matrix(1.0095494,0,0,1.0097257,24.247166,19.327288)" />
    <path
       transform="matrix(1.0095494,0,0,1.0097257,28.237269,28.317645)"
       d="m 14.142135,9.0838728 a 3.0052037,3.0052037 0 1 1 -6.0104073,0 3.0052037,3.0052037 0 1 1 6.0104073,0 z"
       sodipodi:ry="3.0052037"
       sodipodi:rx="3.0052037"
       sodipodi:cy="9.0838728"
       sodipodi:cx="11.136931"
       id="path3977"
       style="color:#000000;fill:#2e3436;stroke:#eeeeec;stroke-width:0.99045444;stroke-linecap:butt;stroke-linejoin:miter;stroke-miterlimit:4;stroke-opacity:1;stroke-dasharray:none;stroke-dashoffset:0.7;marker:none;visibility:visible;display:inline;overflow:visible;enable-background:accumulate"
       sodipodi:type="arc" />
    <path
       sodipodi:type="arc"
       style="color:#000000;fill:#2e3436;stroke:#eeeeec;stroke-width:0.99045444;stroke-linecap:butt;stroke-linejoin:miter;stroke-miterlimit:4;stroke-opacity:1;stroke-dasharray:none;stroke-dashoffset:0.7;marker:none;visibility:visible;display:inline;overflow:visible;enable-background:accumulate"
       id="path3989"
       sodipodi:cx="11.136931"
       sodipodi:cy="9.0838728"
       sodipodi:rx="3.0052037"
       sodipodi:ry="3.0052037"
       d="m 14.142135,9.0838728 a 3.0052037,3.0052037 0 1 1 -6.0104073,0 3.0052037,3.0052037 0 1 1 6.0104073,0 z"
       transform="matrix(1.0095494,0,0,1.0097257,17.226607,31.398611)" />
    <path
       transform="matrix(1.0095494,0,0,1.0097257,11.216199,23.266882)"
       d="m 14.142135,9.0838728 a 3.0052037,3.0052037 0 1 1 -6.0104073,0 3.0052037,3.0052037 0 1 1 6.0104073,0 z"
       sodipodi:ry="3.0052037"
       sodipodi:rx="3.0052037"
       sodipodi:cy="9.0838728"
       sodipodi:cx="11.136931"
       id="path3995"
       style="color:#000000;fill:#2e3436;stroke:#eeeeec;stroke-width:0.99045444;stroke-linecap:butt;stroke-linejoin:miter;stroke-miterlimit:4;stroke-opacity:1;stroke-dasharray:none;stroke-dashoffset:0.7;marker:none;visibility:visible;display:inline;overflow:visible;enable-background:accumulate"
       sodipodi:type="arc" />
    <path
       sodipodi:type="arc"
       style="color:#000000;fill:#2e3436;stroke:#eeeeec;stroke-width:0.99045444;stroke-linecap:butt;stroke-linejoin:miter;stroke-miterlimit:4;stroke-opacity:1;stroke-dasharray:none;stroke-dashoffset:0.7;marker:none;visibility:visible;display:inline;overflow:visible;enable-background:accumulate"
       id="path4007"
       sodipodi:cx="11.136931"
       sodipodi:cy="9.0838728"
       sodipodi:rx="3.0052037"
       sodipodi:ry="3.0052037"
       d="m 14.142135,9.0838728 a 3.0052037,3.0052037 0 1 1 -6.0104073,0 3.0052037,3.0052037 0 1 1 6.0104073,0 z"
       transform="matrix(1.0095494,0,0,1.0097257,4.1956388,30.236935)" />
    <path
       transform="matrix(1.0095494,0,0,1.0097257,-1.764261,20.387947)"
       d="m 14.142135,9.0838728 a 3.0052037,3.0052037 0 1 1 -6.0104073,0 3.0052037,3.0052037 0 1 1 6.0104073,0 z"
       sodipodi:ry="3.0052037"
       sodipodi:rx="3.0052037"
       sodipodi:cy="9.0838728"
       sodipodi:cx="11.136931"
       id="path4013"
       style="color:#000000;fill:#2e3436;stroke:#eeeeec;stroke-width:0.99045444;stroke-linecap:butt;stroke-linejoin:miter;stroke-miterlimit:4;stroke-opacity:1;stroke-dasharray:none;stroke-dashoffset:0.7;marker:none;visibility:visible;display:inline;overflow:visible;enable-background:accumulate"
       sodipodi:type="arc" />
  </g>
</svg>
