<?xml version="1.0" encoding="UTF-8" standalone="no"?>
<!-- Created with Inkscape (http://www.inkscape.org/) -->

<svg
   xmlns:dc="http://purl.org/dc/elements/1.1/"
   xmlns:cc="http://creativecommons.org/ns#"
   xmlns:rdf="http://www.w3.org/1999/02/22-rdf-syntax-ns#"
   xmlns:svg="http://www.w3.org/2000/svg"
   xmlns="http://www.w3.org/2000/svg"
   xmlns:sodipodi="http://sodipodi.sourceforge.net/DTD/sodipodi-0.dtd"
   xmlns:inkscape="http://www.inkscape.org/namespaces/inkscape"
   width="48px"
   height="48px"
   id="svg8410"
   version="1.1"
   inkscape:version="0.48.5 r10040"
   sodipodi:docname="New document 4">
  <defs
     id="defs8412" />
  <sodipodi:namedview
     id="base"
     pagecolor="#ffffff"
     bordercolor="#666666"
     borderopacity="1.0"
     inkscape:pageopacity="0.0"
     inkscape:pageshadow="2"
     inkscape:zoom="9.8994949"
     inkscape:cx="9.8710401"
     inkscape:cy="18.443651"
     inkscape:current-layer="layer1"
     showgrid="true"
     inkscape:grid-bbox="true"
     inkscape:document-units="px"
     inkscape:window-width="2560"
     inkscape:window-height="1537"
     inkscape:window-x="-8"
     inkscape:window-y="-8"
     inkscape:window-maximized="1" />
  <metadata
     id="metadata8415">
    <rdf:RDF>
      <cc:Work
         rdf:about="">
        <dc:format>image/svg+xml</dc:format>
        <dc:type
           rdf:resource="http://purl.org/dc/dcmitype/StillImage" />
        <dc:title></dc:title>
      </cc:Work>
    </rdf:RDF>
  </metadata>
  <g
     id="layer1"
     inkscape:label="Layer 1"
     inkscape:groupmode="layer">
    <path
       style="fill:none;stroke:#dd3893;stroke-width:1.5;stroke-linecap:butt;stroke-linejoin:miter;stroke-miterlimit:4;stroke-opacity:1;stroke-dasharray:none"
       d="m 49.720432,2.3680356 c 0,0 -5.701462,5.4403494 -11.703832,10.0492364 -3.585078,2.752782 -8.258141,5.623544 -9.169862,5.712231 -0.91172,0.08868 -3.997113,0.476051 -4.925253,-0.644521 -0.928142,-1.120521 -1.51639,-3.616726 -0.410438,-4.628833 1.105951,-1.012105 2.932052,-0.905096 3.917751,0.813485 0.985699,1.71858 0.538135,4.616732 0.362529,5.866096 -0.175606,1.249366 -1.265376,4.726568 -2.813967,9.099172 -0.922247,2.604057 -2.478072,7.085889 -2.697627,8.59586 -0.219555,1.509969 0.287641,8.933639 0.460499,16.643179 0.21129,9.423553 0.125841,19.274219 0.125841,19.274219"
       id="path8429"
       inkscape:connector-curvature="0"
       sodipodi:nodetypes="cszzzzzszsc" />
    <path
       inkscape:connector-curvature="0"
       id="path9009"
       d="m 36.469153,-0.97175521 c 0,0 1.791672,15.47051921 1.700386,20.39030021 -0.09129,4.919781 -0.979356,8.077401 -1.912051,10.158389"
       style="color:#000000;fill:none;stroke:#4e9a06;stroke-width:1.5;stroke-linecap:butt;stroke-linejoin:miter;stroke-miterlimit:4;stroke-opacity:1;stroke-dasharray:none;stroke-dashoffset:0;marker:none;visibility:visible;display:inline;overflow:visible;enable-background:accumulate" />
    <path
       style="color:#000000;fill:none;stroke:#322087;stroke-width:1.5;stroke-linecap:butt;stroke-linejoin:miter;stroke-miterlimit:4;stroke-opacity:1;stroke-dasharray:none;stroke-dashoffset:0;marker:none;visibility:visible;display:inline;overflow:visible;enable-background:accumulate"
       d="m 18.553909,-1.2424605 c 0.571448,0.61166502 1.458969,2.448923 1.272377,4.8427564 -0.186591,2.3938333 -7.477292,6.7494441 -9.192949,10.1198101 -2.0067014,3.942115 -3.2667394,6.796695 -1.3587004,10.712784 1.9080374,3.916089 9.4486094,6.685437 9.3697914,10.278382 -0.04624,2.108304 -0.439117,6.11437 -0.491966,11.865184 -0.104359,11.355768 0.140161,26.513112 0.140161,26.513112"
       id="path8974"
       inkscape:connector-curvature="0"
       sodipodi:nodetypes="czszssc" />
    <path
       style="color:#000000;fill:none;stroke:#f57900;stroke-width:1.5;stroke-linecap:butt;stroke-linejoin:miter;stroke-miterlimit:4;stroke-opacity:1;stroke-dasharray:none;stroke-dashoffset:0;marker:none;visibility:visible;display:inline;overflow:visible;enable-background:accumulate"
       d="m 13.829442,-0.75355396 c 0,0 -1.06087,6.87340906 -0.983089,10.15306646 0.07779,3.2796565 1.548571,8.2612095 3.980441,10.7226605 1.933589,1.957107 7.167544,3.609238 8.032834,4.100983 0.865289,0.491746 4.327546,2.429005 6.490801,2.305569 2.163255,-0.123437 4.739189,-2.379949 4.304693,-4.852323 -0.434495,-2.472375 -4.114973,-3.101752 -5.972902,-2.668006 -1.857928,0.433746 -5.074889,4.88528 -5.526199,6.913953 -0.451311,2.028673 -0.7129,4.518618 0.483812,7.508227 0.858626,2.145009 1.403775,3.885182 2.143991,8.356793 0.740215,4.471611 0.597065,31.302199 0.597065,31.302199"
       id="path8982"
       inkscape:connector-curvature="0"
       sodipodi:nodetypes="czszzzzzszc" />
    <path
       style="color:#000000;fill:none;stroke:#3465a4;stroke-width:1.5;stroke-linecap:butt;stroke-linejoin:miter;stroke-miterlimit:4;stroke-opacity:1;stroke-dasharray:none;stroke-dashoffset:0;marker:none;visibility:visible;display:inline;overflow:visible;enable-background:accumulate"
       d="M 0.58516371,-0.91316221 C 2.9925106,1.7610398 5.8913976,10.168089 8.0286696,14.433513 c 1.594652,3.182503 3.9170524,5.435538 5.6943864,5.929334 1.777333,0.493797 3.558786,0.484559 5.301471,-0.500071 1.742684,-0.98463 3.449087,-3.394796 3.255206,-5.483213 -0.19388,-2.088418 -1.587977,-3.160009 -3.57279,-3.263501 -1.984814,-0.103492 -3.61141,1.26214 -2.718614,4.17516 0.892797,2.913021 4.647949,9.27614 4.646615,14.283819 -9.74e-4,3.657266 3.277453,9.846456 3.638344,10.878326 0.360892,1.031869 0.497354,5.97422 0.468707,9.178747 -0.03296,3.686738 0.2349,23.457454 0.2349,23.457454"
       id="path8990"
       inkscape:connector-curvature="0"
       sodipodi:nodetypes="cszzzzzszsc" />
    <path
       style="color:#000000;fill:none;stroke:#edd400;stroke-width:1.5;stroke-linecap:butt;stroke-linejoin:miter;stroke-miterlimit:4;stroke-opacity:1;stroke-dasharray:none;stroke-dashoffset:0;marker:none;visibility:visible;display:inline;overflow:visible;enable-background:accumulate"
       d="m 23.921485,-0.97175521 c 0.815803,4.53705851 3.938746,11.48168321 5.690456,13.45733921 1.75171,1.975656 4.889225,5.358421 7.209017,5.057991 2.31979,-0.300428 4.507316,-2.318887 4.352602,-4.653345 -0.154715,-2.334459 -3.174634,-4.427092 -6.008043,-4.0143269 -2.833408,0.4127652 -5.247132,4.4021459 -5.673805,7.1442589 -0.426672,2.742113 1.390994,11.825537 1.375957,16.149731 -0.01504,4.324195 -1.250661,7.33765 -1.331012,10.516692 -0.08035,3.179042 0.248224,30.34439 0.248224,30.34439"
       id="path8966"
       inkscape:connector-curvature="0"
       sodipodi:nodetypes="czzzzzzzc" />
    <path
       style="color:#000000;fill:none;stroke:#8ae234;stroke-width:1.5;stroke-linecap:butt;stroke-linejoin:miter;stroke-miterlimit:4;stroke-opacity:1;stroke-dasharray:none;stroke-dashoffset:0;marker:none;visibility:visible;display:inline;overflow:visible;enable-background:accumulate"
       d="M 29.57134,-0.56769419 C 24.970593,4.0229492 22.95778,12.10466 21.888163,16.025545 c -1.069615,3.920885 -3.189209,7.700606 -3.830076,8.197611 -0.640867,0.497006 -1.661153,2.39212 -2.990333,2.402306 -1.329179,0.01025 -3.147577,-0.860209 -3.224867,-2.10934 -0.07729,-1.249133 1.22459,-2.380728 2.697162,-2.402307 1.472573,-0.02158 4.969373,1.528559 6.156568,4.98039 1.187194,3.45183 -0.22343,4.785266 -0.469074,10.839671 -0.245643,6.054406 0.293171,35.214284 0.293171,35.214284"
       id="path8958"
       inkscape:connector-curvature="0"
       sodipodi:nodetypes="czzzzzzzc" />
    <path
       inkscape:connector-curvature="0"
       id="path8939"
       d="m 36.257488,29.576934 c -0.678429,1.51368 -1.38047,2.457726 -1.816651,3.095964 -0.436181,0.638238 -3.741789,2.651939 -5.511593,2.167935 -1.769804,-0.484005 -3.459403,-1.933564 -2.990331,-3.984312 0.46907,-2.050749 2.759235,-2.584985 4.74935,-1.992156 8.762122,7.089352 0.900714,12.672026 1.441977,44.342388"
       style="color:#000000;fill:none;stroke:#4e9a06;stroke-width:1.5;stroke-linecap:butt;stroke-linejoin:miter;stroke-miterlimit:4;stroke-opacity:1;stroke-dasharray:none;stroke-dashoffset:0;marker:none;visibility:visible;display:inline;overflow:visible;enable-background:accumulate"
       sodipodi:nodetypes="cssscc" />
  </g>
</svg>
