<?xml version="1.0" encoding="UTF-8" standalone="no"?>
<!-- Created with Inkscape (http://www.inkscape.org/) -->

<svg
   xmlns:dc="http://purl.org/dc/elements/1.1/"
   xmlns:cc="http://creativecommons.org/ns#"
   xmlns:rdf="http://www.w3.org/1999/02/22-rdf-syntax-ns#"
   xmlns:svg="http://www.w3.org/2000/svg"
   xmlns="http://www.w3.org/2000/svg"
   xmlns:xlink="http://www.w3.org/1999/xlink"
   xmlns:sodipodi="http://sodipodi.sourceforge.net/DTD/sodipodi-0.dtd"
   xmlns:inkscape="http://www.inkscape.org/namespaces/inkscape"
   width="48px"
   height="48px"
   id="svg3183"
   version="1.1"
   inkscape:version="0.48.5 r10040"
   sodipodi:docname="heightfield.svg">
  <defs
     id="defs3185">
    <linearGradient
       inkscape:collect="always"
       xlink:href="#linearGradient31615"
       id="linearGradient31621"
       x1="7.59835"
       y1="7.6808586"
       x2="12.40363"
       y2="12.335973"
       gradientUnits="userSpaceOnUse"
       gradientTransform="matrix(1.1245264,-0.29235211,0.29238268,1.1244088,47.126399,26.973958)" />
    <linearGradient
       id="linearGradient31615">
      <stop
         style="stop-color:#eeeeec;stop-opacity:1;"
         offset="0"
         id="stop31617" />
      <stop
         style="stop-color:#d2d2cc;stop-opacity:1;"
         offset="1"
         id="stop31619" />
    </linearGradient>
  </defs>
  <sodipodi:namedview
     id="base"
     pagecolor="#ffffff"
     bordercolor="#666666"
     borderopacity="1.0"
     inkscape:pageopacity="0.0"
     inkscape:pageshadow="2"
     inkscape:zoom="19.79899"
     inkscape:cx="22.686802"
     inkscape:cy="22.040727"
     inkscape:current-layer="layer1"
     showgrid="true"
     inkscape:grid-bbox="true"
     inkscape:document-units="px"
     inkscape:window-width="2560"
     inkscape:window-height="1537"
     inkscape:window-x="-8"
     inkscape:window-y="-8"
     inkscape:window-maximized="1" />
  <metadata
     id="metadata3188">
    <rdf:RDF>
      <cc:Work
         rdf:about="">
        <dc:format>image/svg+xml</dc:format>
        <dc:type
           rdf:resource="http://purl.org/dc/dcmitype/StillImage" />
        <dc:title></dc:title>
      </cc:Work>
    </rdf:RDF>
  </metadata>
  <g
     id="layer1"
     inkscape:label="Layer 1"
     inkscape:groupmode="layer">
    <path
       sodipodi:nodetypes="ccccccc"
       style="color:#000000;fill:#5e92c8;fill-opacity:1;stroke:#204a87;stroke-width:0.25;stroke-linecap:butt;stroke-linejoin:bevel;stroke-miterlimit:4;stroke-opacity:1;stroke-dasharray:none;stroke-dashoffset:0;marker:none;visibility:visible;display:inline;overflow:visible;enable-background:accumulate"
       d="m 27.913563,13.987975 -2.889419,-0.644982 -0.02579,2.683133 4.668849,2.065856 0.731009,-0.939 -3.31019,-0.868862 z"
       id="path4045"
       inkscape:connector-curvature="0" />
    <path
       inkscape:connector-curvature="0"
       id="path4039"
       d="m 42.825023,15.406941 -4.875893,-1.006175 -1.702693,2.167146 5.185474,1.186772 z"
       style="color:#000000;fill:#99badc;fill-opacity:1;stroke:#204a87;stroke-width:0.25;stroke-linecap:butt;stroke-linejoin:bevel;stroke-miterlimit:4;stroke-opacity:1;stroke-dasharray:none;stroke-dashoffset:0;marker:none;visibility:visible;display:inline;overflow:visible;enable-background:accumulate"
       sodipodi:nodetypes="ccccc" />
    <path
       style="color:#000000;fill:#bcd1e9;fill-opacity:1;stroke:#204a87;stroke-width:0.25;stroke-linecap:butt;stroke-linejoin:bevel;stroke-miterlimit:4;stroke-opacity:1;stroke-dasharray:none;stroke-dashoffset:0;marker:none;visibility:visible;display:inline;overflow:visible;enable-background:accumulate"
       d="m 47.855706,14.942552 -4.953288,-1.135172 -1.573701,2.218746 5.108078,1.21257 z"
       id="path4031"
       inkscape:connector-curvature="0" />
    <path
       inkscape:connector-curvature="0"
       id="path4043"
       d="m 33.51181,13.80738 -4.488918,-0.980374 -1.805886,1.98655 4.695304,1.109374 z"
       style="color:#000000;fill:#729fcf;stroke:#204a87;stroke-width:0.25;stroke-linecap:butt;stroke-linejoin:bevel;stroke-miterlimit:4;stroke-opacity:1;stroke-dasharray:none;stroke-dashoffset:0;marker:none;visibility:visible;display:inline;overflow:visible;enable-background:accumulate"
       sodipodi:nodetypes="ccccc" />
    <path
       sodipodi:nodetypes="ccccc"
       style="color:#000000;fill:#a1c0df;fill-opacity:1;stroke:#204a87;stroke-width:0.25;stroke-linecap:butt;stroke-linejoin:bevel;stroke-miterlimit:4;stroke-opacity:1;stroke-dasharray:none;stroke-dashoffset:0;marker:none;visibility:visible;display:inline;overflow:visible;enable-background:accumulate"
       d="m 37.94913,13.497788 -4.488917,-0.980375 -1.805887,1.98655 4.695304,1.109374 z"
       id="path4041"
       inkscape:connector-curvature="0" />
    <path
       style="color:#000000;fill:#729fcf;stroke:#204a87;stroke-width:0.25;stroke-linecap:butt;stroke-linejoin:bevel;stroke-miterlimit:4;stroke-opacity:1;stroke-dasharray:none;stroke-dashoffset:0;marker:none;visibility:visible;display:inline;overflow:visible;enable-background:accumulate"
       d="m 17.00085,11.38224 3.070007,0.773981 -1.831685,1.702758 -3.1732,-0.85138 z"
       id="path4049"
       inkscape:connector-curvature="0" />
    <path
       sodipodi:nodetypes="ccccc"
       style="color:#000000;fill:#b3cbe5;fill-opacity:1;stroke:#204a87;stroke-width:0.25;stroke-linecap:butt;stroke-linejoin:bevel;stroke-miterlimit:4;stroke-opacity:1;stroke-dasharray:none;stroke-dashoffset:0;marker:none;visibility:visible;display:inline;overflow:visible;enable-background:accumulate"
       d="m 24.972548,12.465814 -4.514716,-0.980375 -2.425047,2.115547 4.643707,1.186772 z"
       id="path4047"
       inkscape:connector-curvature="0" />
    <path
       style="color:#000000;fill:#729fcf;stroke:#204a87;stroke-width:0.25;stroke-linecap:butt;stroke-linejoin:bevel;stroke-miterlimit:4;stroke-opacity:1;stroke-dasharray:none;stroke-dashoffset:0;marker:none;visibility:visible;display:inline;overflow:visible;enable-background:accumulate"
       d="m 39.393839,20.953804 1.10933,-2.579936 -4.256732,-1.006176 -1.857483,2.373542 z"
       id="path4065"
       inkscape:connector-curvature="0" />
    <path
       style="color:#000000;fill:#99badc;fill-opacity:1;stroke:#204a87;stroke-width:0.25;stroke-linecap:butt;stroke-linejoin:bevel;stroke-miterlimit:4;stroke-opacity:1;stroke-dasharray:none;stroke-dashoffset:0;marker:none;visibility:visible;display:inline;overflow:visible;enable-background:accumulate"
       d="m 46.230408,18.606062 -5.030683,-1.23837 -1.676894,2.42514 5.185473,1.289969 z"
       id="path4057"
       inkscape:connector-curvature="0" />
    <path
       style="color:#000000;fill:#729fcf;stroke:#204a87;stroke-width:0.25;stroke-linecap:butt;stroke-linejoin:bevel;stroke-miterlimit:4;stroke-opacity:1;stroke-dasharray:none;stroke-dashoffset:0;marker:none;visibility:visible;display:inline;overflow:visible;enable-background:accumulate"
       d="m 36.272236,16.954903 -4.695304,-1.083574 -1.986475,2.244545 4.798497,1.186771 z"
       id="path4073"
       inkscape:connector-curvature="0" />
    <path
       style="color:#000000;fill:#729fcf;stroke:#204a87;stroke-width:0.25;stroke-linecap:butt;stroke-linejoin:bevel;stroke-miterlimit:4;stroke-opacity:1;stroke-dasharray:none;stroke-dashoffset:0;marker:none;visibility:visible;display:inline;overflow:visible;enable-background:accumulate"
       d="m 18.032785,13.83318 -3.353788,-0.877179 -2.39925,1.960752 4.101943,1.006175 z"
       id="path4097"
       inkscape:connector-curvature="0"
       sodipodi:nodetypes="ccccc" />
    <path
       style="color:#000000;fill:#729fcf;stroke:#204a87;stroke-width:0.25;stroke-linecap:butt;stroke-linejoin:bevel;stroke-miterlimit:4;stroke-opacity:1;stroke-dasharray:none;stroke-dashoffset:0;marker:none;visibility:visible;display:inline;overflow:visible;enable-background:accumulate"
       d="m 18.084382,13.858979 -1.780088,1.470564 1.831685,0.438589 z"
       id="path4089"
       inkscape:connector-curvature="0" />
    <path
       style="color:#000000;fill:none;stroke:#204a87;stroke-width:0.25;stroke-linecap:butt;stroke-linejoin:bevel;stroke-miterlimit:4;stroke-opacity:1;stroke-dasharray:none;stroke-dashoffset:0;marker:none;visibility:visible;display:inline;overflow:visible;enable-background:accumulate"
       d="m 17.362027,16.64531 -1.006136,-0.283793 -1.135129,1.006175 1.006137,0.283793 z"
       id="path4105"
       inkscape:connector-curvature="0" />
    <path
       style="color:#000000;fill:#4581bf;fill-opacity:1;stroke:#204a87;stroke-width:0.25;stroke-linecap:butt;stroke-linejoin:bevel;stroke-miterlimit:4;stroke-opacity:1;stroke-dasharray:none;stroke-dashoffset:0;marker:none;visibility:visible;display:inline;overflow:visible;enable-background:accumulate"
       d="m 17.387826,16.593711 -5.08228,-1.315767 -4.3341266,3.586111 3.1216036,0.954577 5.159675,-2.167147 z"
       id="path4113"
       inkscape:connector-curvature="0"
       sodipodi:nodetypes="cccccc" />
    <path
       style="color:#000000;fill:#729fcf;stroke:#204a87;stroke-width:0.25;stroke-linecap:butt;stroke-linejoin:bevel;stroke-miterlimit:4;stroke-opacity:1;stroke-dasharray:none;stroke-dashoffset:0;marker:none;visibility:visible;display:inline;overflow:visible;enable-background:accumulate"
       d="m 16.201101,17.651485 -2.425048,-0.670783 -2.708829,2.373542 4.514715,1.160971 z"
       id="path4121"
       inkscape:connector-curvature="0" />
    <path
       style="color:#000000;fill:#91b4da;fill-opacity:1;stroke:#204a87;stroke-width:0.25;stroke-linecap:butt;stroke-linejoin:bevel;stroke-miterlimit:4;stroke-opacity:1;stroke-dasharray:none;stroke-dashoffset:0;marker:none;visibility:visible;display:inline;overflow:visible;enable-background:accumulate"
       d="m 22.702291,17.109699 -4.617909,-1.135172 -2.657233,2.347742 4.746901,1.264169 z"
       id="path4081"
       inkscape:connector-curvature="0" />
    <path
       style="color:#000000;fill:#729fcf;stroke:#204a87;stroke-width:0.25;stroke-linecap:butt;stroke-linejoin:bevel;stroke-miterlimit:4;stroke-opacity:1;stroke-dasharray:none;stroke-dashoffset:0;marker:none;visibility:visible;display:inline;overflow:visible;enable-background:accumulate"
       d="m 34.285761,20.128224 -4.721103,-1.264169 -1.805886,2.115548 4.643708,1.702759 z"
       id="path4137"
       inkscape:connector-curvature="0" />
    <path
       style="color:#000000;fill:#729fcf;stroke:#204a87;stroke-width:0.25;stroke-linecap:butt;stroke-linejoin:bevel;stroke-miterlimit:4;stroke-opacity:1;stroke-dasharray:none;stroke-dashoffset:0;marker:none;visibility:visible;display:inline;overflow:visible;enable-background:accumulate"
       d="m 39.006864,21.779384 -4.669506,-1.23837 -1.960677,2.579936 5.185474,1.367367 z"
       id="path4145"
       inkscape:connector-curvature="0" />
    <path
       style="color:#000000;fill:#729fcf;stroke:#204a87;stroke-width:0.25;stroke-linecap:butt;stroke-linejoin:bevel;stroke-miterlimit:4;stroke-opacity:1;stroke-dasharray:none;stroke-dashoffset:0;marker:none;visibility:visible;display:inline;overflow:visible;enable-background:accumulate"
       d="m 44.553514,22.630763 -5.185473,-1.289969 -1.831685,2.631535 5.366062,1.418966 z"
       id="path4153"
       inkscape:connector-curvature="0" />
    <path
       style="color:#000000;fill:#729fcf;stroke:#204a87;stroke-width:0.25;stroke-linecap:butt;stroke-linejoin:bevel;stroke-miterlimit:4;stroke-opacity:1;stroke-dasharray:none;stroke-dashoffset:0;marker:none;visibility:visible;display:inline;overflow:visible;enable-background:accumulate"
       d="m 42.773426,26.165275 -5.314465,-1.470563 -1.444709,2.167146 5.08228,2.296144 z"
       id="path4161"
       inkscape:connector-curvature="0" />
    <path
       style="color:#000000;fill:#83abd5;fill-opacity:1;stroke:#204a87;stroke-width:0.25;stroke-linecap:butt;stroke-linejoin:bevel;stroke-miterlimit:4;stroke-opacity:1;stroke-dasharray:none;stroke-dashoffset:0;marker:none;visibility:visible;display:inline;overflow:visible;enable-background:accumulate"
       d="m 29.616255,17.212896 -4.592111,-1.160972 -2.270256,2.321944 4.772699,1.264169 z"
       id="path4129"
       inkscape:connector-curvature="0" />
    <path
       style="color:#000000;fill:#729fcf;stroke:#204a87;stroke-width:0.25;stroke-linecap:butt;stroke-linejoin:bevel;stroke-miterlimit:4;stroke-opacity:1;stroke-dasharray:none;stroke-dashoffset:0;marker:none;visibility:visible;display:inline;overflow:visible;enable-background:accumulate"
       d="m 27.500788,20.179823 -4.7469,-1.238369 -2.502442,2.528337 4.953287,1.367366 z"
       id="path4177"
       inkscape:connector-curvature="0" />
    <path
       style="color:#000000;fill:#729fcf;stroke:#204a87;stroke-width:0.25;stroke-linecap:butt;stroke-linejoin:bevel;stroke-miterlimit:4;stroke-opacity:1;stroke-dasharray:none;stroke-dashoffset:0;marker:none;visibility:visible;display:inline;overflow:visible;enable-background:accumulate"
       d="m 32.350883,22.217973 -4.901691,-1.367366 -2.21866,2.683133 5.056481,1.418965 z"
       id="path4185"
       inkscape:connector-curvature="0" />
    <path
       style="color:#000000;fill:#729fcf;stroke:#204a87;stroke-width:0.25;stroke-linecap:butt;stroke-linejoin:bevel;stroke-miterlimit:4;stroke-opacity:1;stroke-dasharray:none;stroke-dashoffset:0;marker:none;visibility:visible;display:inline;overflow:visible;enable-background:accumulate"
       d="m 37.252574,24.978505 -4.92749,-1.393166 -1.702692,2.296143 4.695304,1.264169 0.748152,-0.361191 z"
       id="path4193"
       inkscape:connector-curvature="0" />
    <path
       style="color:#000000;fill:#85acd6;fill-opacity:1;stroke:#204a87;stroke-width:0.25;stroke-linecap:butt;stroke-linejoin:bevel;stroke-miterlimit:4;stroke-opacity:1;stroke-dasharray:none;stroke-dashoffset:0;marker:none;visibility:visible;display:inline;overflow:visible;enable-background:accumulate"
       d="m 41.148129,28.332422 -5.572449,-1.625359 -1.522104,2.296143 5.288667,2.528338 z"
       id="path4201"
       inkscape:connector-curvature="0" />
    <path
       style="color:#000000;fill:#6294ca;fill-opacity:1;stroke:#204a87;stroke-width:0.25;stroke-linecap:butt;stroke-linejoin:bevel;stroke-miterlimit:4;stroke-opacity:1;stroke-dasharray:none;stroke-dashoffset:0;marker:none;visibility:visible;display:inline;overflow:visible;enable-background:accumulate"
       d="m 35.291897,27.119853 -5.030683,-1.393166 -1.883281,2.450939 4.592111,1.315767 1.160926,-0.593385 z"
       id="path4225"
       inkscape:connector-curvature="0" />
    <path
       style="color:#000000;fill:#4e86c3;fill-opacity:1;stroke:#204a87;stroke-width:0.25;stroke-linecap:butt;stroke-linejoin:bevel;stroke-miterlimit:4;stroke-opacity:1;stroke-dasharray:none;stroke-dashoffset:0;marker:none;visibility:visible;display:inline;overflow:visible;enable-background:accumulate"
       d="m 29.822642,26.294272 -4.695304,-1.315767 -2.218661,2.657335 4.308329,1.264168 1.238322,-0.773981 z"
       id="path4233"
       inkscape:connector-curvature="0" />
    <path
       style="color:#000000;fill:#6093c9;fill-opacity:1;stroke:#204a87;stroke-width:0.25;stroke-linecap:butt;stroke-linejoin:bevel;stroke-miterlimit:4;stroke-opacity:1;stroke-dasharray:none;stroke-dashoffset:0;marker:none;visibility:visible;display:inline;overflow:visible;enable-background:accumulate"
       d="m 25.10154,24.307721 -4.798498,-1.367366 -2.683031,2.81213 5.004884,1.470565 z"
       id="path4241"
       inkscape:connector-curvature="0" />
    <path
       style="color:#000000;fill:#729fcf;stroke:#204a87;stroke-width:0.25;stroke-linecap:butt;stroke-linejoin:bevel;stroke-miterlimit:4;stroke-opacity:1;stroke-dasharray:none;stroke-dashoffset:0;marker:none;visibility:visible;display:inline;overflow:visible;enable-background:accumulate"
       d="m 20.199848,21.805183 -4.721102,-1.289968 -2.760426,2.657334 4.875893,1.393166 z"
       id="path4249"
       inkscape:connector-curvature="0" />
    <path
       style="color:#000000;fill:#5c90c8;fill-opacity:1;stroke:#204a87;stroke-width:0.25;stroke-linecap:butt;stroke-linejoin:bevel;stroke-miterlimit:4;stroke-opacity:1;stroke-dasharray:none;stroke-dashoffset:0;marker:none;visibility:visible;display:inline;overflow:visible;enable-background:accumulate"
       d="m 14.550005,21.366594 -3.431184,-0.954577 -1.5221036,1.367367 3.0442076,0.851379 0.0516,0.619184 z"
       id="path4257"
       inkscape:connector-curvature="0" />
    <path
       style="color:#000000;fill:#95b8db;fill-opacity:1;stroke:#204a87;stroke-width:0.25;stroke-linecap:butt;stroke-linejoin:bevel;stroke-miterlimit:4;stroke-opacity:1;stroke-dasharray:none;stroke-dashoffset:0;marker:none;visibility:visible;display:inline;overflow:visible;enable-background:accumulate"
       d="m 11.067224,19.844431 -4.3341266,-1.264169 -1.1867251,0.980376 2.3734511,0.696583 0.1031929,0.980376 1.10933,0.309593 z"
       id="path4265"
       inkscape:connector-curvature="0" />
    <path
       style="color:#000000;fill:#afc9e3;fill-opacity:1;stroke:#204a87;stroke-width:0.25;stroke-linecap:butt;stroke-linejoin:bevel;stroke-miterlimit:4;stroke-opacity:1;stroke-dasharray:none;stroke-dashoffset:0;marker:none;visibility:visible;display:inline;overflow:visible;enable-background:accumulate"
       d="M 7.8682264,20.231421 3.3535104,18.967253 0.07711635,21.572989 4.6434284,22.966155 z"
       id="path4273"
       inkscape:connector-curvature="0" />
    <path
       style="color:#000000;fill:#97b9dc;fill-opacity:1;stroke:#204a87;stroke-width:0.25;stroke-linecap:butt;stroke-linejoin:bevel;stroke-miterlimit:4;stroke-opacity:1;stroke-dasharray:none;stroke-dashoffset:0;marker:none;visibility:visible;display:inline;overflow:visible;enable-background:accumulate"
       d="m 12.640925,22.682362 -4.5921106,-1.444765 -3.250595,2.786331 4.7727,1.496363 z"
       id="path4281"
       inkscape:connector-curvature="0" />
    <path
       style="color:#000000;fill:#729fcf;stroke:#204a87;stroke-width:0.25;stroke-linecap:butt;stroke-linejoin:bevel;stroke-miterlimit:4;stroke-opacity:1;stroke-dasharray:none;stroke-dashoffset:0;marker:none;visibility:visible;display:inline;overflow:visible;enable-background:accumulate"
       d="m 17.645809,25.494492 -4.875892,-1.444764 -3.0442076,2.941127 4.9790856,1.547962 z"
       id="path4289"
       inkscape:connector-curvature="0" />
    <path
       style="color:#000000;fill:#6093c9;fill-opacity:1;stroke:#204a87;stroke-width:0.25;stroke-linecap:butt;stroke-linejoin:bevel;stroke-miterlimit:4;stroke-opacity:1;stroke-dasharray:none;stroke-dashoffset:0;marker:none;visibility:visible;display:inline;overflow:visible;enable-background:accumulate"
       d="m 22.39271,27.842234 -4.695304,-1.393166 -2.966813,3.121724 5.288667,1.625359 z"
       id="path4297"
       inkscape:connector-curvature="0" />
    <path
       style="color:#000000;fill:#729fcf;stroke:#204a87;stroke-width:0.25;stroke-linecap:butt;stroke-linejoin:bevel;stroke-miterlimit:4;stroke-opacity:1;stroke-dasharray:none;stroke-dashoffset:0;marker:none;visibility:visible;display:inline;overflow:visible;enable-background:accumulate"
       d="m 27.16541,28.874209 -4.540515,-1.289969 -2.760426,3.224921 5.417659,1.728557 z"
       id="path4305"
       inkscape:connector-curvature="0" />
    <path
       style="color:#000000;fill:#8bb0d8;fill-opacity:1;stroke:#204a87;stroke-width:0.25;stroke-linecap:butt;stroke-linejoin:bevel;stroke-miterlimit:4;stroke-opacity:1;stroke-dasharray:none;stroke-dashoffset:0;marker:none;visibility:visible;display:inline;overflow:visible;enable-background:accumulate"
       d="m 32.944245,29.519193 -5.108079,-1.496363 -2.52824,3.457115 5.675643,1.702758 z"
       id="path4217"
       inkscape:connector-curvature="0" />
    <path
       style="color:#000000;fill:#a1c0df;fill-opacity:1;stroke:#204a87;stroke-width:0.25;stroke-linecap:butt;stroke-linejoin:bevel;stroke-miterlimit:4;stroke-opacity:1;stroke-dasharray:none;stroke-dashoffset:0;marker:none;visibility:visible;display:inline;overflow:visible;enable-background:accumulate"
       d="m 39.393839,30.551168 -5.882029,-1.780156 -2.373451,3.560312 6.062618,1.857553 z"
       id="path4209"
       inkscape:connector-curvature="0" />
    <path
       style="fill:#3465a4;stroke:#204a87;stroke-width:0.25;stroke-linecap:butt;stroke-linejoin:bevel;stroke-miterlimit:4;stroke-opacity:1;stroke-dasharray:none"
       d="m 36.942993,37.155805 0.283782,-2.992726 -6.062617,-1.857555 -0.103193,0.851379 -5.72724,-1.728558 -0.02579,1.083575 -5.417659,-1.754358 0.0516,0.41279 -5.211272,-1.62536 0.02579,-1.006175 -5.0822786,-1.59956 -0.103193,-1.444765 -4.798499,-1.444764 -0.154789,-1.109373 -4.59211105,-1.393165 0.619161,3.895704 z"
       id="path4010"
       inkscape:connector-curvature="0" />
    <path
       style="color:#000000;fill:#3465a4;fill-opacity:1;fill-rule:nonzero;stroke:#204a87;stroke-width:0.25;stroke-linecap:butt;stroke-linejoin:bevel;stroke-miterlimit:4;stroke-opacity:1;stroke-dasharray:none;stroke-dashoffset:0;marker:none;visibility:visible;display:inline;overflow:visible;enable-background:accumulate"
       d="m 46.436795,17.212896 -5.159674,-1.160972 -0.0774,1.341568 5.030682,1.18677 z"
       id="path4324"
       inkscape:connector-curvature="0" />
    <path
       style="color:#000000;fill:#3465a4;fill-opacity:1;fill-rule:nonzero;stroke:#204a87;stroke-width:0.25;stroke-linecap:butt;stroke-linejoin:bevel;stroke-miterlimit:4;stroke-opacity:1;stroke-dasharray:none;stroke-dashoffset:0;marker:none;visibility:visible;display:inline;overflow:visible;enable-background:accumulate"
       d="m 41.019137,17.651485 -4.746901,-1.083573 0,0.82558 4.205135,0.954576 z"
       id="path4332"
       inkscape:connector-curvature="0" />
    <path
       style="color:#000000;fill:#3465a4;fill-opacity:1;fill-rule:nonzero;stroke:#204a87;stroke-width:0.25;stroke-linecap:butt;stroke-linejoin:bevel;stroke-miterlimit:4;stroke-opacity:1;stroke-dasharray:none;stroke-dashoffset:0;marker:none;visibility:visible;display:inline;overflow:visible;enable-background:accumulate"
       d="m 36.323832,15.613336 -0.07739,1.367366 -4.695304,-1.109373 0.0516,-1.367366 z"
       id="path4340"
       inkscape:connector-curvature="0" />
    <path
       style="color:#000000;fill:#3465a4;fill-opacity:1;fill-rule:nonzero;stroke:#204a87;stroke-width:0.25;stroke-linecap:butt;stroke-linejoin:bevel;stroke-miterlimit:4;stroke-opacity:1;stroke-dasharray:none;stroke-dashoffset:0;marker:none;visibility:visible;display:inline;overflow:visible;enable-background:accumulate"
       d="m 31.551133,15.84553 -4.359926,-1.006176 -0.07794,1.798865 3.150125,0.725655 z"
       id="path4348"
       inkscape:connector-curvature="0"
       sodipodi:nodetypes="ccccc" />
    <path
       style="color:#000000;fill:#3465a4;fill-opacity:1;fill-rule:nonzero;stroke:#204a87;stroke-width:0.25;stroke-linecap:butt;stroke-linejoin:bevel;stroke-miterlimit:4;stroke-opacity:1;stroke-dasharray:none;stroke-dashoffset:0;marker:none;visibility:visible;display:inline;overflow:visible;enable-background:accumulate"
       d="m 22.676492,14.787756 0.0258,2.347742 -4.643708,-1.160971 -0.0258,-2.399342 z"
       id="path4356"
       inkscape:connector-curvature="0" />
    <path
       style="color:#000000;fill:#3465a4;fill-opacity:1;fill-rule:nonzero;stroke:#204a87;stroke-width:0.25;stroke-linecap:butt;stroke-linejoin:bevel;stroke-miterlimit:4;stroke-opacity:1;stroke-dasharray:none;stroke-dashoffset:0;marker:none;visibility:visible;display:inline;overflow:visible;enable-background:accumulate"
       d="m 18.084382,15.768132 -1.831685,-0.464389 0.103194,0.619185 -4.076144,-1.006175 0.02579,0.38699 5.056481,1.289969 0.696556,-0.644985 z"
       id="path4364"
       inkscape:connector-curvature="0" />
    <path
       style="color:#000000;fill:#3465a4;fill-opacity:1;fill-rule:nonzero;stroke:#204a87;stroke-width:0.25;stroke-linecap:butt;stroke-linejoin:bevel;stroke-miterlimit:4;stroke-opacity:1;stroke-dasharray:none;stroke-dashoffset:0;marker:none;visibility:visible;display:inline;overflow:visible;enable-background:accumulate"
       d="m 22.702291,18.399667 4.824296,1.264168 -0.0258,0.515988 -4.7469,-1.186771 z"
       id="path4372"
       inkscape:connector-curvature="0" />
    <path
       style="color:#000000;fill:#3465a4;fill-opacity:1;fill-rule:nonzero;stroke:#204a87;stroke-width:0.25;stroke-linecap:butt;stroke-linejoin:bevel;stroke-miterlimit:4;stroke-opacity:1;stroke-dasharray:none;stroke-dashoffset:0;marker:none;visibility:visible;display:inline;overflow:visible;enable-background:accumulate"
       d="m 29.590457,18.115874 -0.02579,0.79978 4.824296,1.21257 -0.02579,-0.825579 z"
       id="path4380"
       inkscape:connector-curvature="0" />
    <path
       style="color:#000000;fill:#3465a4;fill-opacity:1;fill-rule:nonzero;stroke:#204a87;stroke-width:0.25;stroke-linecap:butt;stroke-linejoin:bevel;stroke-miterlimit:4;stroke-opacity:1;stroke-dasharray:none;stroke-dashoffset:0;marker:none;visibility:visible;display:inline;overflow:visible;enable-background:accumulate"
       d="m 39.368041,20.953804 -5.004885,-1.18677 -0.0516,0.79978 4.669506,1.238369 0.386976,-0.464389 z"
       id="path4388"
       inkscape:connector-curvature="0" />
    <path
       style="color:#000000;fill:#3465a4;fill-opacity:1;fill-rule:nonzero;stroke:#204a87;stroke-width:0.25;stroke-linecap:butt;stroke-linejoin:bevel;stroke-miterlimit:4;stroke-opacity:1;stroke-dasharray:none;stroke-dashoffset:0;marker:none;visibility:visible;display:inline;overflow:visible;enable-background:accumulate"
       d="m 44.682506,21.082801 -5.211272,-1.23837 -0.0774,1.496363 5.159675,1.264169 z"
       id="path4396"
       inkscape:connector-curvature="0" />
    <path
       style="color:#000000;fill:#3465a4;fill-opacity:1;fill-rule:nonzero;stroke:#204a87;stroke-width:0.25;stroke-linecap:butt;stroke-linejoin:bevel;stroke-miterlimit:4;stroke-opacity:1;stroke-dasharray:none;stroke-dashoffset:0;marker:none;visibility:visible;display:inline;overflow:visible;enable-background:accumulate"
       d="m 42.902418,25.391295 -5.39186,-1.418966 -0.0258,0.464389 -5.159675,-1.341566 -0.02579,0.490187 4.979086,1.418965 0.180588,-0.309592 5.340264,1.470563 z"
       id="path4404"
       inkscape:connector-curvature="0" />
    <path
       style="color:#000000;fill:#3465a4;fill-opacity:1;fill-rule:nonzero;stroke:#204a87;stroke-width:0.25;stroke-linecap:butt;stroke-linejoin:bevel;stroke-miterlimit:4;stroke-opacity:1;stroke-dasharray:none;stroke-dashoffset:0;marker:none;visibility:visible;display:inline;overflow:visible;enable-background:accumulate"
       d="m 30.287013,25.778285 -0.0258,-0.748181 -5.108078,-1.522163 0.0258,-0.696582 -4.953288,-1.341568 -0.0516,-1.857554 -4.772699,-1.264169 0.128992,2.192946 4.7469,1.289969 0.0258,1.135172 4.824295,1.341566 0.02579,0.696583 4.669505,1.315767 z"
       id="path4412"
       inkscape:connector-curvature="0" />
    <path
       style="color:#000000;fill:#3465a4;fill-opacity:1;fill-rule:nonzero;stroke:#204a87;stroke-width:0.25;stroke-linecap:butt;stroke-linejoin:bevel;stroke-miterlimit:4;stroke-opacity:1;stroke-dasharray:none;stroke-dashoffset:0;marker:none;visibility:visible;display:inline;overflow:visible;enable-background:accumulate"
       d="m 15.556142,20.489415 -4.514717,-1.135171 0.0516,1.031974 3.431183,0.980376 z"
       id="path4420"
       inkscape:connector-curvature="0" />
    <path
       style="color:#000000;fill:#3465a4;fill-opacity:1;fill-rule:nonzero;stroke:#204a87;stroke-width:0.25;stroke-linecap:butt;stroke-linejoin:bevel;stroke-miterlimit:4;stroke-opacity:1;stroke-dasharray:none;stroke-dashoffset:0;marker:none;visibility:visible;display:inline;overflow:visible;enable-background:accumulate"
       d="m 22.624895,27.58424 0,-0.36119 -5.004884,-1.470565 0.0516,0.722383 4.721102,1.367366 z"
       id="path4428"
       inkscape:connector-curvature="0" />
    <path
       style="color:#000000;fill:#3465a4;fill-opacity:1;fill-rule:nonzero;stroke:#204a87;stroke-width:0.25;stroke-linecap:butt;stroke-linejoin:bevel;stroke-miterlimit:4;stroke-opacity:1;stroke-dasharray:none;stroke-dashoffset:0;marker:none;visibility:visible;display:inline;overflow:visible;enable-background:accumulate"
       d="m 17.594213,25.494492 -0.07739,-0.928777 -4.798497,-1.341567 0.0516,0.82558 z"
       id="path4436"
       inkscape:connector-curvature="0" />
    <path
       style="color:#000000;fill:#000000;fill-opacity:1;stroke:#204a87;stroke-width:0.25;stroke-linecap:butt;stroke-linejoin:bevel;stroke-miterlimit:4;stroke-opacity:1;stroke-dasharray:none;stroke-dashoffset:0;marker:none;visibility:visible;display:inline;overflow:visible;enable-background:accumulate"
       d="m 47.210747,19.070451 0.619161,-4.127899 -1.393113,2.296144 -0.206387,1.393165 -1.522104,2.42514 -0.180588,1.599561 -1.651096,2.760532 -0.0774,0.748181 -1.728491,3.018527 0.07739,-0.85138 -1.883282,3.276519 0.128992,-1.057773 -2.192862,3.663509 -0.257984,2.941128 z"
       id="path4012"
       inkscape:connector-curvature="0" />
    <path
       style="color:#000000;fill:#173560;fill-opacity:1;fill-rule:nonzero;stroke:#204a87;stroke-width:0.25;stroke-linecap:butt;stroke-linejoin:bevel;stroke-miterlimit:4;stroke-opacity:1;stroke-dasharray:none;stroke-dashoffset:0;marker:none;visibility:visible;display:inline;overflow:visible;enable-background:accumulate"
       d="m 37.974929,14.400765 0.103193,-0.954576 -1.780088,2.192945 0,0.980376 z"
       id="path4455"
       inkscape:connector-curvature="0" />
    <path
       style="color:#000000;fill:#173560;fill-opacity:1;fill-rule:nonzero;stroke:#204a87;stroke-width:0.25;stroke-linecap:butt;stroke-linejoin:bevel;stroke-miterlimit:4;stroke-opacity:1;stroke-dasharray:none;stroke-dashoffset:0;marker:none;visibility:visible;display:inline;overflow:visible;enable-background:accumulate"
       d="m 36.272236,16.929103 -1.934878,2.399341 0.0516,0.541787 1.90908,-2.502539 z"
       id="path4463"
       inkscape:connector-curvature="0" />
    <path
       style="color:#000000;fill:#000000;fill-opacity:1;fill-rule:nonzero;stroke:#204a87;stroke-width:0.25;stroke-linecap:butt;stroke-linejoin:bevel;stroke-miterlimit:4;stroke-opacity:1;stroke-dasharray:none;stroke-dashoffset:0;marker:none;visibility:visible;display:inline;overflow:visible;enable-background:accumulate"
       d="m 34.311559,20.102425 -1.934878,2.453668 5.46e-4,-0.389174 -2.116012,2.837385 0.0516,0.773981 0.361177,0.0516 1.625298,-2.192946 0.0516,-0.515988 1.960676,-2.579936 z"
       id="path4471"
       inkscape:connector-curvature="0"
       sodipodi:nodetypes="cccccccccc" />
    <path
       style="color:#000000;fill:#000000;fill-opacity:1;fill-rule:nonzero;stroke:#204a87;stroke-width:0.25;stroke-linecap:butt;stroke-linejoin:bevel;stroke-miterlimit:4;stroke-opacity:1;stroke-dasharray:none;stroke-dashoffset:0;marker:none;visibility:visible;display:inline;overflow:visible;enable-background:accumulate"
       d="m 29.590457,18.915654 0.0516,-1.728557 -2.115467,2.476738 -0.02579,0.541787 -2.321853,2.683134 0,0.619185 2.270257,-2.657334 0.283782,0.103197 z"
       id="path4479"
       inkscape:connector-curvature="0" />
    <path
       style="color:#000000;fill:#000000;fill-opacity:1;fill-rule:nonzero;stroke:#204a87;stroke-width:0.25;stroke-linecap:butt;stroke-linejoin:bevel;stroke-miterlimit:4;stroke-opacity:1;stroke-dasharray:none;stroke-dashoffset:0;marker:none;visibility:visible;display:inline;overflow:visible;enable-background:accumulate"
       d="m 24.972547,16.103523 0.07739,-3.63771 -2.399249,2.373541 0,2.347743 -2.450846,2.45094 0,1.883353 2.528241,-2.502538 0.02579,-0.619185 z"
       id="path4487"
       inkscape:connector-curvature="0" />
    <path
       style="color:#000000;fill:#173560;fill-opacity:1;fill-rule:nonzero;stroke:#204a87;stroke-width:0.25;stroke-linecap:butt;stroke-linejoin:bevel;stroke-miterlimit:4;stroke-opacity:1;stroke-dasharray:none;stroke-dashoffset:0;marker:none;visibility:visible;display:inline;overflow:visible;enable-background:accumulate"
       d="m 25.153136,25.030104 0.0258,-0.722383 -2.579837,2.966927 0.02579,0.335392 0.283782,0.0774 z"
       id="path4495"
       inkscape:connector-curvature="0" />
    <path
       style="color:#000000;fill:#000000;fill-opacity:1;fill-rule:nonzero;stroke:#204a87;stroke-width:0.25;stroke-linecap:butt;stroke-linejoin:bevel;stroke-miterlimit:4;stroke-opacity:1;stroke-dasharray:none;stroke-dashoffset:0;marker:none;visibility:visible;display:inline;overflow:visible;enable-background:accumulate"
       d="m 20.32884,22.991953 -0.103193,-1.16097 -2.70883,2.837929 0.103194,1.135172 z"
       id="path4503"
       inkscape:connector-curvature="0" />
    <path
       style="color:#000000;fill:#000000;fill-opacity:1;fill-rule:nonzero;stroke:#204a87;stroke-width:0.25;stroke-linecap:butt;stroke-linejoin:bevel;stroke-miterlimit:4;stroke-opacity:1;stroke-dasharray:none;stroke-dashoffset:0;marker:none;visibility:visible;display:inline;overflow:visible;enable-background:accumulate"
       d="m 17.697406,26.552266 -0.103193,-0.928777 -2.889418,2.941127 0.0516,1.006176 z"
       id="path4511"
       inkscape:connector-curvature="0" />
    <path
       style="color:#000000;fill:#173560;fill-opacity:1;fill-rule:nonzero;stroke:#204a87;stroke-width:0.25;stroke-linecap:butt;stroke-linejoin:bevel;stroke-miterlimit:4;stroke-opacity:1;stroke-dasharray:none;stroke-dashoffset:0;marker:none;visibility:visible;display:inline;overflow:visible;enable-background:accumulate"
       d="m 11.067224,19.870231 -1.9864746,1.676959 0.567564,0.232194 1.4447096,-1.341567 z"
       id="path4519"
       inkscape:connector-curvature="0" />
    <path
       style="color:#000000;fill:#000000;fill-opacity:1;fill-rule:nonzero;stroke:#204a87;stroke-width:0.25;stroke-linecap:butt;stroke-linejoin:bevel;stroke-miterlimit:4;stroke-opacity:1;stroke-dasharray:none;stroke-dashoffset:0;marker:none;visibility:visible;display:inline;overflow:visible;enable-background:accumulate"
       d="m 8.0230164,21.289196 -0.15479,-1.031975 -3.250595,2.708934 0.154789,1.083573 z"
       id="path4527"
       inkscape:connector-curvature="0" />
    <path
       style="color:#000000;fill:#000000;fill-opacity:1;fill-rule:nonzero;stroke:#204a87;stroke-width:0.25;stroke-linecap:butt;stroke-linejoin:bevel;stroke-miterlimit:4;stroke-opacity:1;stroke-dasharray:none;stroke-dashoffset:0;marker:none;visibility:visible;display:inline;overflow:visible;enable-background:accumulate"
       d="m 12.640925,22.70816 -3.0700056,2.812131 0.103193,1.470564 3.0700056,-2.889529 z"
       id="path4535"
       inkscape:connector-curvature="0" />
    <path
       sodipodi:type="arc"
       style="color:#000000;fill:#000000;fill-opacity:1;fill-rule:nonzero;stroke:#ffffff;stroke-width:0.79541111;stroke-linecap:butt;stroke-linejoin:miter;stroke-miterlimit:4;stroke-opacity:1;stroke-dasharray:none;stroke-dashoffset:0;marker:none;visibility:visible;display:inline;overflow:visible;enable-background:accumulate"
       id="path12848"
       sodipodi:cx="58.386818"
       sodipodi:cy="34.059895"
       sodipodi:rx="10.505587"
       sodipodi:ry="10.505587"
       d="m 68.892405,34.059895 a 10.505587,10.505587 0 1 1 -21.011174,0 10.505587,10.505587 0 1 1 21.011174,0 z"
       transform="matrix(1.2572115,0,0,1.2572115,-39.337185,-8.583821)" />
    <g
       id="g12842"
       transform="matrix(1.2572115,0,0,1.2572115,-39.273687,-8.2663271)">
      <path
         id="path31611"
         style="color:#000000;fill:none;stroke:#000000;stroke-width:0.79541111;stroke-miterlimit:4;stroke-opacity:1;stroke-dasharray:none;marker:none;visibility:visible;display:inline;overflow:visible;enable-background:accumulate"
         d="m 60.644083,33.585798 c 0.302378,1.16285 -0.395271,2.35062 -1.55824,2.652969 -1.162971,0.30234 -2.350869,-0.395229 -2.653248,-1.558069 -0.302378,-1.16285 0.395269,-2.35062 1.558239,-2.65298 1.16297,-0.30235 2.35087,0.39523 2.653249,1.55808 z m -4.004929,-6.7562 c -0.67444,0.17534 -1.076228,0.8594 -0.90087,1.53377 l 0.514362,1.97807 c -0.04439,0.23464 -0.0699,0.44734 -0.185652,0.5356 -0.09237,0.0704 -0.253897,0.0725 -0.428374,0.0708 l -1.917415,-1.12597 c -0.606999,-0.35645 -1.393528,-0.15197 -1.750016,0.45496 -0.356487,0.60694 -0.151985,1.39339 0.455013,1.74984 l 1.869481,1.09782 c 0.10405,0.1674 0.173668,0.32087 0.156741,0.44658 -0.017,0.12623 -0.117672,0.25887 -0.263261,0.39334 l -2.054366,0.53409 c -0.674441,0.17534 -1.076228,0.8594 -0.90087,1.53378 0.175358,0.674359 0.85949,1.076109 1.533932,0.900769 l 1.978278,-0.5143 c 0.234662,0.0444 0.447381,0.0699 0.535659,0.18563 0.07044,0.0924 0.0725,0.25387 0.07076,0.42832 l -1.12609,1.91721 c -0.356488,0.60695 -0.151986,1.39339 0.455013,1.74984 0.607,0.35645 1.393527,0.15197 1.750016,-0.45496 l 1.097936,-1.86929 c 0.167418,-0.1041 0.320895,-0.17366 0.446635,-0.15673 0.126242,0.017 0.258888,0.11767 0.393376,0.26324 l 0.534145,2.05415 c 0.175358,0.67437 0.859492,1.07612 1.533932,0.90078 0.674441,-0.17535 1.07623,-0.8594 0.900871,-1.53378 l -0.514362,-1.97807 c 0.0444,-0.23463 0.0699,-0.44733 0.185652,-0.5356 0.09237,-0.0704 0.253899,-0.0725 0.428366,-0.0707 l 1.917417,1.12597 c 0.606999,0.35645 1.393527,0.15197 1.750015,-0.45497 0.356486,-0.60694 0.151986,-1.39338 -0.455013,-1.74983 l -1.86947,-1.097779 c -0.104038,-0.1674 -0.173668,-0.32086 -0.15674,-0.44659 0.017,-0.12623 0.117673,-0.25886 0.263262,-0.39333 l 2.054363,-0.5341 c 0.674441,-0.17533 1.07623,-0.8594 0.900873,-1.53376 -0.175363,-0.67438 -0.859494,-1.07612 -1.533934,-0.90078 l -1.978277,0.51431 c -0.234665,-0.0444 -0.447385,-0.0699 -0.535661,-0.18563 -0.07045,-0.0924 -0.0725,-0.25388 -0.07076,-0.42833 l 1.126086,-1.91722 c 0.356487,-0.60693 0.151985,-1.39337 -0.455013,-1.74983 -0.607,-0.35645 -1.393529,-0.15197 -1.750017,0.45497 l -1.097935,1.86929 c -0.167422,0.10398 -0.320893,0.17365 -0.446634,0.15672 -0.12624,-0.017 -0.258889,-0.11766 -0.393375,-0.26324 l -0.534146,-2.0542 c -0.175358,-0.67436 -0.859491,-1.07611 -1.533932,-0.90077 z"
         inkscape:connector-curvature="0" />
      <path
         inkscape:connector-curvature="0"
         d="m 60.478593,33.088038 c 0.302378,1.16285 -0.39527,2.35062 -1.55824,2.65297 -1.16297,0.302339 -2.350869,-0.39523 -2.653248,-1.55807 -0.302378,-1.16285 0.395269,-2.35064 1.55824,-2.65298 1.162969,-0.30235 2.350869,0.39523 2.653248,1.55808 z m -4.004929,-6.7562 c -0.67444,0.17534 -1.076229,0.8594 -0.900871,1.53378 l 0.514363,1.97807 c -0.04439,0.23463 -0.0699,0.44732 -0.185652,0.53559 -0.09238,0.0704 -0.253896,0.0725 -0.428373,0.0708 l -1.917416,-1.12601 c -0.606999,-0.35645 -1.393528,-0.15197 -1.750015,0.45496 -0.356487,0.60695 -0.151986,1.39339 0.455013,1.74984 l 1.86948,1.09782 c 0.104045,0.16741 0.173672,0.32086 0.156744,0.44658 -0.017,0.12623 -0.117674,0.25886 -0.263262,0.39334 l -2.054366,0.53409 c -0.674442,0.17534 -1.076229,0.8594 -0.900871,1.53378 0.175358,0.674359 0.85949,1.076109 1.533932,0.900769 l 1.978278,-0.514309 c 0.234661,0.0444 0.447381,0.0699 0.535659,0.185629 0.07044,0.0924 0.07251,0.25387 0.07076,0.42833 l -1.126089,1.91721 c -0.356488,0.60695 -0.151987,1.39339 0.455013,1.74984 0.606999,0.35645 1.393527,0.15197 1.750015,-0.45497 l 1.097936,-1.86928 c 0.167418,-0.1041 0.320895,-0.17365 0.446635,-0.15673 0.126241,0.017 0.258888,0.11767 0.393375,0.26324 l 0.534146,2.05415 c 0.175357,0.67437 0.859492,1.07612 1.533932,0.90078 0.674441,-0.17535 1.07623,-0.85941 0.900871,-1.53378 l -0.514362,-1.97807 c 0.04439,-0.23463 0.0699,-0.44733 0.185651,-0.53561 0.09238,-0.0704 0.253901,-0.0725 0.428366,-0.0708 l 1.917417,1.12598 c 0.606999,0.35645 1.393528,0.15197 1.750016,-0.45497 0.356486,-0.60694 0.151984,-1.39338 -0.455014,-1.749829 l -1.869474,-1.09778 c -0.104038,-0.1674 -0.173668,-0.32086 -0.156741,-0.44659 0.017,-0.12623 0.117673,-0.25886 0.263261,-0.39334 l 2.054366,-0.53409 c 0.674441,-0.17533 1.07623,-0.8594 0.900871,-1.53376 -0.175357,-0.67438 -0.859492,-1.07612 -1.533933,-0.90079 l -1.978277,0.51432 c -0.234664,-0.0444 -0.447385,-0.0699 -0.535661,-0.18563 -0.07044,-0.0924 -0.07251,-0.25388 -0.07076,-0.42833 l 1.12609,-1.91722 c 0.356487,-0.60693 0.151985,-1.39338 -0.455013,-1.74983 -0.607001,-0.35645 -1.393529,-0.15197 -1.750016,0.45497 l -1.097937,1.86928 c -0.167421,0.10409 -0.320892,0.17366 -0.446634,0.15672 -0.126241,-0.017 -0.258889,-0.11765 -0.393375,-0.26323 l -0.534145,-2.0542 c -0.175362,-0.67431 -0.859496,-1.07606 -1.533937,-0.90072 z"
         style="color:#000000;fill:url(#linearGradient31621);fill-opacity:1;fill-rule:evenodd;stroke:#888a85;stroke-width:0.39770555;stroke-miterlimit:4;stroke-dasharray:none;marker:none;visibility:visible;display:inline;overflow:visible;enable-background:accumulate"
         id="path3643" />
    </g>
  </g>
</svg>
