<?xml version="1.0" encoding="UTF-8" standalone="no"?>
<!-- Created with Inkscape (http://www.inkscape.org/) -->

<svg
   xmlns:dc="http://purl.org/dc/elements/1.1/"
   xmlns:cc="http://creativecommons.org/ns#"
   xmlns:rdf="http://www.w3.org/1999/02/22-rdf-syntax-ns#"
   xmlns:svg="http://www.w3.org/2000/svg"
   xmlns="http://www.w3.org/2000/svg"
   xmlns:sodipodi="http://sodipodi.sourceforge.net/DTD/sodipodi-0.dtd"
   xmlns:inkscape="http://www.inkscape.org/namespaces/inkscape"
   width="48px"
   height="48px"
   id="svg58691"
   version="1.1"
   inkscape:version="0.48.5 r10040"
   sodipodi:docname="New document 46">
  <defs
     id="defs58693">
    <inkscape:perspective
       sodipodi:type="inkscape:persp3d"
       inkscape:vp_x="9.6428575 : 29.5 : 1"
       inkscape:vp_y="0 : 1000 : 0"
       inkscape:vp_z="36.357143 : 29.214286 : 1"
       inkscape:persp3d-origin="24 : 16 : 1"
       id="perspective58699" />
  </defs>
  <sodipodi:namedview
     id="base"
     pagecolor="#ffffff"
     bordercolor="#666666"
     borderopacity="1.0"
     inkscape:pageopacity="0.0"
     inkscape:pageshadow="2"
     inkscape:zoom="14"
     inkscape:cx="12.642857"
     inkscape:cy="28.5"
     inkscape:current-layer="layer1"
     showgrid="true"
     inkscape:grid-bbox="true"
     inkscape:document-units="px"
     inkscape:window-width="2560"
     inkscape:window-height="1537"
     inkscape:window-x="-8"
     inkscape:window-y="-8"
     inkscape:window-maximized="1" />
  <metadata
     id="metadata58696">
    <rdf:RDF>
      <cc:Work
         rdf:about="">
        <dc:format>image/svg+xml</dc:format>
        <dc:type
           rdf:resource="http://purl.org/dc/dcmitype/StillImage" />
        <dc:title></dc:title>
      </cc:Work>
    </rdf:RDF>
  </metadata>
  <g
     id="layer1"
     inkscape:label="Layer 1"
     inkscape:groupmode="layer">
    <path
       sodipodi:type="arc"
       style="color:#000000;fill:#8ae234;fill-opacity:1;fill-rule:nonzero;stroke:#336504;stroke-width:0.91858101000000003;stroke-linecap:butt;stroke-linejoin:miter;stroke-miterlimit:4;stroke-opacity:1;stroke-dasharray:none;stroke-dashoffset:0;marker:none;visibility:visible;display:inline;overflow:visible;enable-background:accumulate"
       id="path58729"
       sodipodi:cx="10.714286"
       sodipodi:cy="10.928572"
       sodipodi:rx="2.1428571"
       sodipodi:ry="2.1428571"
       d="m 12.857143,10.928572 a 2.1428571,2.1428571 0 1 1 -4.2857142,0 2.1428571,2.1428571 0 1 1 4.2857142,0 z"
       transform="matrix(1.0886288,0,0,1.0886424,-7.6963687,-0.45903171)" />
    <path
       transform="matrix(1.0886288,0,0,1.0886424,-1.3201145,2.6513752)"
       d="m 12.857143,10.928572 a 2.1428571,2.1428571 0 1 1 -4.2857142,0 2.1428571,2.1428571 0 1 1 4.2857142,0 z"
       sodipodi:ry="2.1428571"
       sodipodi:rx="2.1428571"
       sodipodi:cy="10.928572"
       sodipodi:cx="10.714286"
       id="path59239"
       style="color:#000000;fill:#8ae234;fill-opacity:1;fill-rule:nonzero;stroke:#336504;stroke-width:0.91858101000000003;stroke-linecap:butt;stroke-linejoin:miter;stroke-miterlimit:4;stroke-opacity:1;stroke-dasharray:none;stroke-dashoffset:0;marker:none;visibility:visible;display:inline;overflow:visible;enable-background:accumulate"
       sodipodi:type="arc" />
    <path
       sodipodi:type="arc"
       style="color:#000000;fill:#4e9a06;fill-opacity:1;fill-rule:nonzero;stroke:#336504;stroke-width:0.91858101000000003;stroke-linecap:butt;stroke-linejoin:miter;stroke-miterlimit:4;stroke-opacity:1;stroke-dasharray:none;stroke-dashoffset:0;marker:none;visibility:visible;display:inline;overflow:visible;enable-background:accumulate"
       id="path59241"
       sodipodi:cx="10.714286"
       sodipodi:cy="10.928572"
       sodipodi:rx="2.1428571"
       sodipodi:ry="2.1428571"
       d="m 12.857143,10.928572 a 2.1428571,2.1428571 0 1 1 -4.2857142,0 2.1428571,2.1428571 0 1 1 4.2857142,0 z"
       transform="matrix(1.0886288,0,0,1.0886424,5.1338988,5.9950621)" />
    <path
       transform="matrix(1.0886288,0,0,1.0886424,11.510153,9.4165102)"
       d="m 12.857143,10.928572 a 2.1428571,2.1428571 0 1 1 -4.2857142,0 2.1428571,2.1428571 0 1 1 4.2857142,0 z"
       sodipodi:ry="2.1428571"
       sodipodi:rx="2.1428571"
       sodipodi:cy="10.928572"
       sodipodi:cx="10.714286"
       id="path59243"
       style="color:#000000;fill:#4e9a06;fill-opacity:1;fill-rule:nonzero;stroke:#336504;stroke-width:0.91858101000000003;stroke-linecap:butt;stroke-linejoin:miter;stroke-miterlimit:4;stroke-opacity:1;stroke-dasharray:none;stroke-dashoffset:0;marker:none;visibility:visible;display:inline;overflow:visible;enable-background:accumulate"
       sodipodi:type="arc" />
    <path
       sodipodi:type="arc"
       style="color:#000000;fill:#4e9a06;fill-opacity:1;fill-rule:nonzero;stroke:#336504;stroke-width:0.91858101000000003;stroke-linecap:butt;stroke-linejoin:miter;stroke-miterlimit:4;stroke-opacity:1;stroke-dasharray:none;stroke-dashoffset:0;marker:none;visibility:visible;display:inline;overflow:visible;enable-background:accumulate"
       id="path59245"
       sodipodi:cx="10.714286"
       sodipodi:cy="10.928572"
       sodipodi:rx="2.1428571"
       sodipodi:ry="2.1428571"
       d="m 12.857143,10.928572 a 2.1428571,2.1428571 0 1 1 -4.2857142,0 2.1428571,2.1428571 0 1 1 4.2857142,0 z"
       transform="matrix(1.0886288,0,0,1.0886424,11.199116,17.192527)" />
    <path
       transform="matrix(1.0886288,0,0,1.0886424,3.4774246,13.672544)"
       d="m 12.857143,10.928572 a 2.1428571,2.1428571 0 1 1 -4.2857142,0 2.1428571,2.1428571 0 1 1 4.2857142,0 z"
       sodipodi:ry="2.1428571"
       sodipodi:rx="2.1428571"
       sodipodi:cy="10.928572"
       sodipodi:cx="10.714286"
       id="path59247"
       style="color:#000000;fill:#beff7e;fill-opacity:1;fill-rule:nonzero;stroke:#336504;stroke-width:0.91858101;stroke-linecap:butt;stroke-linejoin:miter;stroke-miterlimit:4;stroke-opacity:1;stroke-dasharray:none;stroke-dashoffset:0;marker:none;visibility:visible;display:inline;overflow:visible;enable-background:accumulate"
       sodipodi:type="arc" />
    <path
       sodipodi:type="arc"
       style="color:#000000;fill:#beff7e;fill-opacity:1;fill-rule:nonzero;stroke:#336504;stroke-width:0.91858101;stroke-linecap:butt;stroke-linejoin:miter;stroke-miterlimit:4;stroke-opacity:1;stroke-dasharray:none;stroke-dashoffset:0;marker:none;visibility:visible;display:inline;overflow:visible;enable-background:accumulate"
       id="path59249"
       sodipodi:cx="10.714286"
       sodipodi:cy="10.928572"
       sodipodi:rx="2.1428571"
       sodipodi:ry="2.1428571"
       d="m 12.857143,10.928572 a 2.1428571,2.1428571 0 1 1 -4.2857142,0 2.1428571,2.1428571 0 1 1 4.2857142,0 z"
       transform="matrix(1.0886288,0,0,1.0886424,-2.9765888,9.9400559)" />
    <path
       transform="matrix(1.0886288,0,0,1.0886424,-8.4739609,6.3838632)"
       d="m 12.857143,10.928572 a 2.1428571,2.1428571 0 1 1 -4.2857142,0 2.1428571,2.1428571 0 1 1 4.2857142,0 z"
       sodipodi:ry="2.1428571"
       sodipodi:rx="2.1428571"
       sodipodi:cy="10.928572"
       sodipodi:cx="10.714286"
       id="path59251"
       style="color:#000000;fill:#ffffff;fill-opacity:1;fill-rule:nonzero;stroke:#336504;stroke-width:0.91858101000000003;stroke-linecap:butt;stroke-linejoin:miter;stroke-miterlimit:4;stroke-opacity:1;stroke-dasharray:none;stroke-dashoffset:0;marker:none;visibility:visible;display:inline;overflow:visible;enable-background:accumulate"
       sodipodi:type="arc" />
    <path
       sodipodi:type="arc"
       style="color:#000000;fill:#8ae234;fill-opacity:1;fill-rule:nonzero;stroke:#336504;stroke-width:0.91858101000000003;stroke-linecap:butt;stroke-linejoin:miter;stroke-miterlimit:4;stroke-opacity:1;stroke-dasharray:none;stroke-dashoffset:0;marker:none;visibility:visible;display:inline;overflow:visible;enable-background:accumulate"
       id="path59253"
       sodipodi:cx="10.714286"
       sodipodi:cy="10.928572"
       sodipodi:rx="2.1428571"
       sodipodi:ry="2.1428571"
       d="m 12.857143,10.928572 a 2.1428571,2.1428571 0 1 1 -4.2857142,0 2.1428571,2.1428571 0 1 1 4.2857142,0 z"
       transform="matrix(1.0886288,0,0,1.0886424,-8.4739609,6.3838632)" />
    <path
       transform="matrix(1.0886288,0,0,1.0886424,-7.6963687,15.404045)"
       d="m 12.857143,10.928572 a 2.1428571,2.1428571 0 1 1 -4.2857142,0 2.1428571,2.1428571 0 1 1 4.2857142,0 z"
       sodipodi:ry="2.1428571"
       sodipodi:rx="2.1428571"
       sodipodi:cy="10.928572"
       sodipodi:cx="10.714286"
       id="path59255"
       style="color:#000000;fill:#8ae234;fill-opacity:1;fill-rule:nonzero;stroke:#336504;stroke-width:0.91858101000000003;stroke-linecap:butt;stroke-linejoin:miter;stroke-miterlimit:4;stroke-opacity:1;stroke-dasharray:none;stroke-dashoffset:0;marker:none;visibility:visible;display:inline;overflow:visible;enable-background:accumulate"
       sodipodi:type="arc" />
    <path
       sodipodi:type="arc"
       style="color:#000000;fill:#beff7e;fill-opacity:1;fill-rule:nonzero;stroke:#336504;stroke-width:0.91858101;stroke-linecap:butt;stroke-linejoin:miter;stroke-miterlimit:4;stroke-opacity:1;stroke-dasharray:none;stroke-dashoffset:0;marker:none;visibility:visible;display:inline;overflow:visible;enable-background:accumulate"
       id="path59257"
       sodipodi:cx="10.714286"
       sodipodi:cy="10.928572"
       sodipodi:rx="2.1428571"
       sodipodi:ry="2.1428571"
       d="m 12.857143,10.928572 a 2.1428571,2.1428571 0 1 1 -4.2857142,0 2.1428571,2.1428571 0 1 1 4.2857142,0 z"
       transform="matrix(1.0886288,0,0,1.0886424,-2.1989966,18.571435)" />
    <path
       transform="matrix(1.0886288,0,0,1.0886424,4.2550167,21.915123)"
       d="m 12.857143,10.928572 a 2.1428571,2.1428571 0 1 1 -4.2857142,0 2.1428571,2.1428571 0 1 1 4.2857142,0 z"
       sodipodi:ry="2.1428571"
       sodipodi:rx="2.1428571"
       sodipodi:cy="10.928572"
       sodipodi:cx="10.714286"
       id="path59259"
       style="color:#000000;fill:#beff7e;fill-opacity:1;fill-rule:nonzero;stroke:#336504;stroke-width:0.91858101;stroke-linecap:butt;stroke-linejoin:miter;stroke-miterlimit:4;stroke-opacity:1;stroke-dasharray:none;stroke-dashoffset:0;marker:none;visibility:visible;display:inline;overflow:visible;enable-background:accumulate"
       sodipodi:type="arc" />
    <path
       sodipodi:type="arc"
       style="color:#000000;fill:#8ae234;fill-opacity:1;fill-rule:nonzero;stroke:#336504;stroke-width:0.91858101000000003;stroke-linecap:butt;stroke-linejoin:miter;stroke-miterlimit:4;stroke-opacity:1;stroke-dasharray:none;stroke-dashoffset:0;marker:none;visibility:visible;display:inline;overflow:visible;enable-background:accumulate"
       id="path59261"
       sodipodi:cx="10.714286"
       sodipodi:cy="10.928572"
       sodipodi:rx="2.1428571"
       sodipodi:ry="2.1428571"
       d="m 12.857143,10.928572 a 2.1428571,2.1428571 0 1 1 -4.2857142,0 2.1428571,2.1428571 0 1 1 4.2857142,0 z"
       transform="matrix(1.0886288,0,0,1.0886424,11.510153,25.279586)" />
    <path
       transform="matrix(1.0886288,0,0,1.0886424,11.199116,33.055603)"
       d="m 12.857143,10.928572 a 2.1428571,2.1428571 0 1 1 -4.2857142,0 2.1428571,2.1428571 0 1 1 4.2857142,0 z"
       sodipodi:ry="2.1428571"
       sodipodi:rx="2.1428571"
       sodipodi:cy="10.928572"
       sodipodi:cx="10.714286"
       id="path59263"
       style="color:#000000;fill:#8ae234;fill-opacity:1;fill-rule:nonzero;stroke:#336504;stroke-width:0.91858101000000003;stroke-linecap:butt;stroke-linejoin:miter;stroke-miterlimit:4;stroke-opacity:1;stroke-dasharray:none;stroke-dashoffset:0;marker:none;visibility:visible;display:inline;overflow:visible;enable-background:accumulate"
       sodipodi:type="arc" />
    <path
       sodipodi:type="arc"
       style="color:#000000;fill:#8ae234;fill-opacity:1;fill-rule:nonzero;stroke:#336504;stroke-width:0.91858101000000003;stroke-linecap:butt;stroke-linejoin:miter;stroke-miterlimit:4;stroke-opacity:1;stroke-dasharray:none;stroke-dashoffset:0;marker:none;visibility:visible;display:inline;overflow:visible;enable-background:accumulate"
       id="path59265"
       sodipodi:cx="10.714286"
       sodipodi:cy="10.928572"
       sodipodi:rx="2.1428571"
       sodipodi:ry="2.1428571"
       d="m 12.857143,10.928572 a 2.1428571,2.1428571 0 1 1 -4.2857142,0 2.1428571,2.1428571 0 1 1 4.2857142,0 z"
       transform="matrix(1.0886288,0,0,1.0886424,4.3563066,29.478635)" />
    <path
       transform="matrix(1.0886288,0,0,1.0886424,-2.0977068,25.746148)"
       d="m 12.857143,10.928572 a 2.1428571,2.1428571 0 1 1 -4.2857142,0 2.1428571,2.1428571 0 1 1 4.2857142,0 z"
       sodipodi:ry="2.1428571"
       sodipodi:rx="2.1428571"
       sodipodi:cy="10.928572"
       sodipodi:cx="10.714286"
       id="path59267"
       style="color:#000000;fill:#8ae234;fill-opacity:1;fill-rule:nonzero;stroke:#336504;stroke-width:0.91858101000000003;stroke-linecap:butt;stroke-linejoin:miter;stroke-miterlimit:4;stroke-opacity:1;stroke-dasharray:none;stroke-dashoffset:0;marker:none;visibility:visible;display:inline;overflow:visible;enable-background:accumulate"
       sodipodi:type="arc" />
    <path
       sodipodi:type="arc"
       style="color:#000000;fill:#ffffff;fill-opacity:1;fill-rule:nonzero;stroke:#336504;stroke-width:0.91858101000000003;stroke-linecap:butt;stroke-linejoin:miter;stroke-miterlimit:4;stroke-opacity:1;stroke-dasharray:none;stroke-dashoffset:0;marker:none;visibility:visible;display:inline;overflow:visible;enable-background:accumulate"
       id="path59269"
       sodipodi:cx="10.714286"
       sodipodi:cy="10.928572"
       sodipodi:rx="2.1428571"
       sodipodi:ry="2.1428571"
       d="m 12.857143,10.928572 a 2.1428571,2.1428571 0 1 1 -4.2857142,0 2.1428571,2.1428571 0 1 1 4.2857142,0 z"
       transform="matrix(1.0886288,0,0,1.0886424,-8.4739609,22.246939)" />
    <path
       transform="matrix(1.0886288,0,0,1.0886424,-8.4739609,22.246939)"
       d="m 12.857143,10.928572 a 2.1428571,2.1428571 0 1 1 -4.2857142,0 2.1428571,2.1428571 0 1 1 4.2857142,0 z"
       sodipodi:ry="2.1428571"
       sodipodi:rx="2.1428571"
       sodipodi:cy="10.928572"
       sodipodi:cx="10.714286"
       id="path59271"
       style="color:#000000;fill:#8ae234;fill-opacity:1;fill-rule:nonzero;stroke:#336504;stroke-width:0.91858101000000003;stroke-linecap:butt;stroke-linejoin:miter;stroke-miterlimit:4;stroke-opacity:1;stroke-dasharray:none;stroke-dashoffset:0;marker:none;visibility:visible;display:inline;overflow:visible;enable-background:accumulate"
       sodipodi:type="arc" />
    <path
       sodipodi:type="arc"
       style="color:#000000;fill:#fcaf3e;fill-opacity:1;fill-rule:nonzero;stroke:#ce5c00;stroke-width:0.91858101000000003;stroke-linecap:butt;stroke-linejoin:miter;stroke-miterlimit:4;stroke-opacity:1;stroke-dasharray:none;stroke-dashoffset:0;marker:none;visibility:visible;display:inline;overflow:visible;enable-background:accumulate"
       id="path59273"
       sodipodi:cx="10.714286"
       sodipodi:cy="10.928572"
       sodipodi:rx="2.1428571"
       sodipodi:ry="2.1428571"
       d="m 12.857143,10.928572 a 2.1428571,2.1428571 0 1 1 -4.2857142,0 2.1428571,2.1428571 0 1 1 4.2857142,0 z"
       transform="matrix(1.0886288,0,0,1.0886424,18.041925,12.215877)" />
    <path
       transform="matrix(1.0886288,0,0,1.0886424,18.197444,21.935898)"
       d="m 12.857143,10.928572 a 2.1428571,2.1428571 0 1 1 -4.2857142,0 2.1428571,2.1428571 0 1 1 4.2857142,0 z"
       sodipodi:ry="2.1428571"
       sodipodi:rx="2.1428571"
       sodipodi:cy="10.928572"
       sodipodi:cx="10.714286"
       id="path59275"
       style="color:#000000;fill:#fcaf3e;fill-opacity:1;fill-rule:nonzero;stroke:#ce5c00;stroke-width:0.91858101000000003;stroke-linecap:butt;stroke-linejoin:miter;stroke-miterlimit:4;stroke-opacity:1;stroke-dasharray:none;stroke-dashoffset:0;marker:none;visibility:visible;display:inline;overflow:visible;enable-background:accumulate"
       sodipodi:type="arc" />
    <path
       sodipodi:type="arc"
       style="color:#000000;fill:#fcaf3e;fill-opacity:1;fill-rule:nonzero;stroke:#ce5c00;stroke-width:0.91858101000000003;stroke-linecap:butt;stroke-linejoin:miter;stroke-miterlimit:4;stroke-opacity:1;stroke-dasharray:none;stroke-dashoffset:0;marker:none;visibility:visible;display:inline;overflow:visible;enable-background:accumulate"
       id="path59277"
       sodipodi:cx="10.714286"
       sodipodi:cy="10.928572"
       sodipodi:rx="2.1428571"
       sodipodi:ry="2.1428571"
       d="m 12.857143,10.928572 a 2.1428571,2.1428571 0 1 1 -4.2857142,0 2.1428571,2.1428571 0 1 1 4.2857142,0 z"
       transform="matrix(1.0886288,0,0,1.0886424,18.430721,29.556395)" />
    <path
       transform="matrix(1.0886288,0,0,1.0886424,24.184902,15.792845)"
       d="m 12.857143,10.928572 a 2.1428571,2.1428571 0 1 1 -4.2857142,0 2.1428571,2.1428571 0 1 1 4.2857142,0 z"
       sodipodi:ry="2.1428571"
       sodipodi:rx="2.1428571"
       sodipodi:cy="10.928572"
       sodipodi:cx="10.714286"
       id="path59279"
       style="color:#000000;fill:#ef2929;fill-opacity:1;fill-rule:nonzero;stroke:#640000;stroke-width:0.91858101000000003;stroke-linecap:butt;stroke-linejoin:miter;stroke-miterlimit:4;stroke-opacity:1;stroke-dasharray:none;stroke-dashoffset:0;marker:none;visibility:visible;display:inline;overflow:visible;enable-background:accumulate"
       sodipodi:type="arc" />
    <path
       sodipodi:type="arc"
       style="color:#000000;fill:#ef2929;fill-opacity:1;fill-rule:nonzero;stroke:#640000;stroke-width:0.91858101000000003;stroke-linecap:butt;stroke-linejoin:miter;stroke-miterlimit:4;stroke-opacity:1;stroke-dasharray:none;stroke-dashoffset:0;marker:none;visibility:visible;display:inline;overflow:visible;enable-background:accumulate"
       id="path59281"
       sodipodi:cx="10.714286"
       sodipodi:cy="10.928572"
       sodipodi:rx="2.1428571"
       sodipodi:ry="2.1428571"
       d="m 12.857143,10.928572 a 2.1428571,2.1428571 0 1 1 -4.2857142,0 2.1428571,2.1428571 0 1 1 4.2857142,0 z"
       transform="matrix(1.0886288,0,0,1.0886424,24.806976,24.579744)" />
    <path
       transform="matrix(1.0886288,0,0,1.0886424,33.360488,15.559565)"
       d="m 12.857143,10.928572 a 2.1428571,2.1428571 0 1 1 -4.2857142,0 2.1428571,2.1428571 0 1 1 4.2857142,0 z"
       sodipodi:ry="2.1428571"
       sodipodi:rx="2.1428571"
       sodipodi:cy="10.928572"
       sodipodi:cx="10.714286"
       id="path59283"
       style="color:#000000;fill:#ef2929;fill-opacity:1;fill-rule:nonzero;stroke:#640000;stroke-width:0.91858101000000003;stroke-linecap:butt;stroke-linejoin:miter;stroke-miterlimit:4;stroke-opacity:1;stroke-dasharray:none;stroke-dashoffset:0;marker:none;visibility:visible;display:inline;overflow:visible;enable-background:accumulate"
       sodipodi:type="arc" />
    <path
       sodipodi:type="arc"
       style="color:#000000;fill:#ef2929;fill-opacity:1;fill-rule:nonzero;stroke:#640000;stroke-width:0.91858101000000003;stroke-linecap:butt;stroke-linejoin:miter;stroke-miterlimit:4;stroke-opacity:1;stroke-dasharray:none;stroke-dashoffset:0;marker:none;visibility:visible;display:inline;overflow:visible;enable-background:accumulate"
       id="path59285"
       sodipodi:cx="10.714286"
       sodipodi:cy="10.928572"
       sodipodi:rx="2.1428571"
       sodipodi:ry="2.1428571"
       d="m 12.857143,10.928572 a 2.1428571,2.1428571 0 1 1 -4.2857142,0 2.1428571,2.1428571 0 1 1 4.2857142,0 z"
       transform="matrix(1.0886288,0,0,1.0886424,17.108816,3.4289776)" />
    <path
       transform="matrix(1.0886288,0,0,1.0886424,25.118013,-2.9473565)"
       d="m 12.857143,10.928572 a 2.1428571,2.1428571 0 1 1 -4.2857142,0 2.1428571,2.1428571 0 1 1 4.2857142,0 z"
       sodipodi:ry="2.1428571"
       sodipodi:rx="2.1428571"
       sodipodi:cy="10.928572"
       sodipodi:cx="10.714286"
       id="path59287"
       style="color:#000000;fill:#ef2929;fill-opacity:1;fill-rule:nonzero;stroke:#640000;stroke-width:0.91858101000000003;stroke-linecap:butt;stroke-linejoin:miter;stroke-miterlimit:4;stroke-opacity:1;stroke-dasharray:none;stroke-dashoffset:0;marker:none;visibility:visible;display:inline;overflow:visible;enable-background:accumulate"
       sodipodi:type="arc" />
    <path
       sodipodi:type="arc"
       style="color:#000000;fill:#ef2929;fill-opacity:1;fill-rule:nonzero;stroke:#640000;stroke-width:0.91858101000000003;stroke-linecap:butt;stroke-linejoin:miter;stroke-miterlimit:4;stroke-opacity:1;stroke-dasharray:none;stroke-dashoffset:0;marker:none;visibility:visible;display:inline;overflow:visible;enable-background:accumulate"
       id="path59289"
       sodipodi:cx="10.714286"
       sodipodi:cy="10.928572"
       sodipodi:rx="2.1428571"
       sodipodi:ry="2.1428571"
       d="m 12.857143,10.928572 a 2.1428571,2.1428571 0 1 1 -4.2857142,0 2.1428571,2.1428571 0 1 1 4.2857142,0 z"
       transform="matrix(1.0886288,0,0,1.0886424,9.1773779,-2.0919947)" />
    <path
       transform="matrix(1.0886288,0,0,1.0886424,1.4014583,-3.8027184)"
       d="m 12.857143,10.928572 a 2.1428571,2.1428571 0 1 1 -4.2857142,0 2.1428571,2.1428571 0 1 1 4.2857142,0 z"
       sodipodi:ry="2.1428571"
       sodipodi:rx="2.1428571"
       sodipodi:cy="10.928572"
       sodipodi:cx="10.714286"
       id="path59291"
       style="color:#000000;fill:#fcaf3e;fill-opacity:1;fill-rule:nonzero;stroke:#ce5c00;stroke-width:0.91858101000000003;stroke-linecap:butt;stroke-linejoin:miter;stroke-miterlimit:4;stroke-opacity:1;stroke-dasharray:none;stroke-dashoffset:0;marker:none;visibility:visible;display:inline;overflow:visible;enable-background:accumulate"
       sodipodi:type="arc" />
    <path
       sodipodi:type="arc"
       style="color:#000000;fill:#ef2929;fill-opacity:1;fill-rule:nonzero;stroke:#640000;stroke-width:0.91858101000000003;stroke-linecap:butt;stroke-linejoin:miter;stroke-miterlimit:4;stroke-opacity:1;stroke-dasharray:none;stroke-dashoffset:0;marker:none;visibility:visible;display:inline;overflow:visible;enable-background:accumulate"
       id="path59293"
       sodipodi:cx="10.714286"
       sodipodi:cy="10.928572"
       sodipodi:rx="2.1428571"
       sodipodi:ry="2.1428571"
       d="m 12.857143,10.928572 a 2.1428571,2.1428571 0 1 1 -4.2857142,0 2.1428571,2.1428571 0 1 1 4.2857142,0 z"
       transform="matrix(1.0886288,0,0,1.0886424,16.797779,-8.4683288)" />
  </g>
</svg>
