<?xml version="1.0" encoding="UTF-8" standalone="no"?>
<!-- Created with Inkscape (http://www.inkscape.org/) -->
<svg
   xmlns:i="http://ns.adobe.com/AdobeIllustrator/10.0/"
   xmlns:a="http://ns.adobe.com/AdobeSVGViewerExtensions/3.0/"
   xmlns:dc="http://purl.org/dc/elements/1.1/"
   xmlns:cc="http://web.resource.org/cc/"
   xmlns:rdf="http://www.w3.org/1999/02/22-rdf-syntax-ns#"
   xmlns:svg="http://www.w3.org/2000/svg"
   xmlns="http://www.w3.org/2000/svg"
   xmlns:xlink="http://www.w3.org/1999/xlink"
   xmlns:sodipodi="http://sodipodi.sourceforge.net/DTD/sodipodi-0.dtd"
   xmlns:inkscape="http://www.inkscape.org/namespaces/inkscape"
   width="48px"
   height="48px"
   id="svg29243"
   sodipodi:version="0.32"
   inkscape:version="0.44"
   sodipodi:docbase="E:\dev_clean\src\houdini\support\icons\sop"
   sodipodi:docname="revolve.svg">
  <defs
     id="defs29245">
    <linearGradient
       inkscape:collect="always"
       id="linearGradient36275">
      <stop
         style="stop-color:#eeeeec;stop-opacity:1;"
         offset="0"
         id="stop36277" />
      <stop
         style="stop-color:#eeeeec;stop-opacity:0;"
         offset="1"
         id="stop36279" />
    </linearGradient>
    <linearGradient
       inkscape:collect="always"
       id="linearGradient36255">
      <stop
         style="stop-color:#eeeeec;stop-opacity:1;"
         offset="0"
         id="stop36257" />
      <stop
         style="stop-color:#eeeeec;stop-opacity:0;"
         offset="1"
         id="stop36259" />
    </linearGradient>
    <linearGradient
       id="linearGradient80837">
      <stop
         style="stop-color:#590b08;stop-opacity:1;"
         offset="0"
         id="stop80839" />
      <stop
         style="stop-color:#590b08;stop-opacity:0;"
         offset="1"
         id="stop80841" />
    </linearGradient>
    <linearGradient
       inkscape:collect="always"
       xlink:href="#linearGradient80837"
       id="linearGradient80843"
       x1="4.7551956"
       y1="22.354654"
       x2="9.469799"
       y2="25.004877"
       gradientUnits="userSpaceOnUse"
       gradientTransform="matrix(-1.048203,0,0,1.048276,47.96351,18.56382)" />
    <linearGradient
       y2="238.09256"
       x2="904.77185"
       y1="232.16945"
       x1="897.26459"
       gradientUnits="userSpaceOnUse"
       id="XMLID_646_"
       gradientTransform="matrix(-1.142279,0,0,1.142872,1070.812,-226.8452)">
      <stop
         id="stop65776"
         style="stop-color:#D8300C"
         offset="0.0056" />
      <stop
         offset="0.18317142"
         style="stop-color:#ff6c12;stop-opacity:1;"
         id="stop80852" />
      <stop
         id="stop65784"
         style="stop-color:#faaf3e;stop-opacity:0;"
         offset="1" />
      <a:midPointStop
         style="stop-color:#D8300C"
         offset="0.0056" />
      <a:midPointStop
         style="stop-color:#D8300C"
         offset="0.5" />
      <a:midPointStop
         style="stop-color:#F17912"
         offset="0.618" />
      <a:midPointStop
         style="stop-color:#F17912"
         offset="0.3846" />
      <a:midPointStop
         style="stop-color:#FAAF3E"
         offset="1" />
    </linearGradient>
    <linearGradient
       y2="236.8673"
       x2="910.1406"
       y1="218.1997"
       x1="910.1406"
       gradientUnits="userSpaceOnUse"
       id="XMLID_645_"
       gradientTransform="matrix(1.08975,0,0,1.09024,-975.8101,-234.1074)">
      <stop
         id="stop65763"
         style="stop-color:#F17912"
         offset="0.0056" />
      <stop
         id="stop65765"
         style="stop-color:#F07512"
         offset="0.0388" />
      <stop
         id="stop65767"
         style="stop-color:#DB3B0D"
         offset="0.4881" />
      <stop
         id="stop65769"
         style="stop-color:#D0190A"
         offset="0.8215" />
      <stop
         id="stop65771"
         style="stop-color:#CB1009"
         offset="1" />
      <a:midPointStop
         style="stop-color:#F17912"
         offset="0.0056" />
      <a:midPointStop
         style="stop-color:#F17912"
         offset="0.4318" />
      <a:midPointStop
         style="stop-color:#CB1009"
         offset="1" />
    </linearGradient>
    <linearGradient
       inkscape:collect="always"
       xlink:href="#XMLID_645_"
       id="linearGradient80850"
       gradientUnits="userSpaceOnUse"
       gradientTransform="matrix(-1.142279,0,0,1.142872,1056.389,-227.5481)"
       x1="911.93817"
       y1="237.96368"
       x2="921.98322"
       y2="232.70903" />
    <linearGradient
       id="linearGradient36011">
      <stop
         style="stop-color:#eeeeec;stop-opacity:0.46391752;"
         offset="0"
         id="stop36013" />
      <stop
         style="stop-color:#eeeeec;stop-opacity:0;"
         offset="1"
         id="stop36015" />
    </linearGradient>
    <linearGradient
       id="linearGradient35999">
      <stop
         style="stop-color:#363f4c;stop-opacity:0.46391752;"
         offset="0"
         id="stop36001" />
      <stop
         style="stop-color:#363f4c;stop-opacity:0;"
         offset="1"
         id="stop36003" />
    </linearGradient>
    <linearGradient
       id="linearGradient35983">
      <stop
         id="stop35985"
         offset="0"
         style="stop-color:white;stop-opacity:1;" />
      <stop
         style="stop-color:#363f4c;stop-opacity:1;"
         offset="0.4107143"
         id="stop35987" />
      <stop
         id="stop35993"
         offset="0.85163265"
         style="stop-color:#a6b1c0;stop-opacity:1;" />
      <stop
         id="stop35991"
         offset="1"
         style="stop-color:#d7dce3;stop-opacity:1;" />
    </linearGradient>
    <linearGradient
       id="linearGradient35954">
      <stop
         style="stop-color:#363f4c;stop-opacity:1;"
         offset="0"
         id="stop35956" />
      <stop
         id="stop35962"
         offset="0.2857143"
         style="stop-color:#a3aebe;stop-opacity:1;" />
      <stop
         style="stop-color:#ced4dc;stop-opacity:1;"
         offset="0.41326532"
         id="stop35964" />
      <stop
         style="stop-color:#363f4c;stop-opacity:1;"
         offset="1"
         id="stop35958" />
    </linearGradient>
    <radialGradient
       inkscape:collect="always"
       xlink:href="#linearGradient35983"
       id="radialGradient36229"
       gradientUnits="userSpaceOnUse"
       gradientTransform="matrix(-5.969922,-0.611244,0.344792,-3.367532,142.8882,88.99326)"
       cx="20.485632"
       cy="20.661034"
       fx="20.485632"
       fy="20.661034"
       r="9.4999962" />
    <linearGradient
       inkscape:collect="always"
       xlink:href="#linearGradient35999"
       id="linearGradient36231"
       gradientUnits="userSpaceOnUse"
       gradientTransform="translate(29.07143,-1.642857)"
       x1="-17.892858"
       y1="25.928571"
       x2="9.1785713"
       y2="25.928571" />
    <radialGradient
       inkscape:collect="always"
       xlink:href="#linearGradient35954"
       id="radialGradient36233"
       gradientUnits="userSpaceOnUse"
       gradientTransform="matrix(-5.037591,-0.671394,0.447206,-3.355467,121.6728,89.97621)"
       cx="21.571424"
       cy="18.996246"
       fx="21.571424"
       fy="18.996246"
       r="9.4999962" />
    <linearGradient
       inkscape:collect="always"
       xlink:href="#linearGradient36011"
       id="linearGradient36235"
       gradientUnits="userSpaceOnUse"
       gradientTransform="translate(19.5,6)"
       x1="-8.2142814"
       y1="20.571429"
       x2="9.7857106"
       y2="20.571429" />
    <linearGradient
       inkscape:collect="always"
       xlink:href="#linearGradient36011"
       id="linearGradient36238"
       gradientUnits="userSpaceOnUse"
       gradientTransform="matrix(0.8943,0,0,1.000898,19.66778,4.01833)"
       x1="-8.2142814"
       y1="20.571429"
       x2="9.7857106"
       y2="20.571429" />
    <radialGradient
       inkscape:collect="always"
       xlink:href="#linearGradient35954"
       id="radialGradient36241"
       gradientUnits="userSpaceOnUse"
       gradientTransform="matrix(-5.280418,-0.703806,0.468763,-3.517456,125.9334,90.58726)"
       cx="21.571424"
       cy="18.996246"
       fx="21.571424"
       fy="18.996246"
       r="9.4999962" />
    <linearGradient
       inkscape:collect="always"
       xlink:href="#linearGradient35999"
       id="linearGradient36245"
       gradientUnits="userSpaceOnUse"
       gradientTransform="matrix(1.048203,0,0,1.048276,28.86838,-5.454811)"
       x1="-17.892858"
       y1="25.928571"
       x2="9.1785713"
       y2="25.928571" />
    <radialGradient
       inkscape:collect="always"
       xlink:href="#linearGradient35983"
       id="radialGradient36249"
       gradientUnits="userSpaceOnUse"
       gradientTransform="matrix(-8.032127,-0.723459,0.318268,-3.534254,185.4133,91.33693)"
       cx="20.485632"
       cy="20.661034"
       fx="20.485632"
       fy="20.661034"
       r="9.4999962" />
    <linearGradient
       inkscape:collect="always"
       xlink:href="#linearGradient36255"
       id="linearGradient36261"
       x1="21.774014"
       y1="9.7152166"
       x2="22.0117"
       y2="44.786644"
       gradientUnits="userSpaceOnUse"
       gradientTransform="translate(0,-1)" />
    <linearGradient
       inkscape:collect="always"
       xlink:href="#linearGradient36275"
       id="linearGradient36281"
       x1="24.888453"
       y1="4.0492601"
       x2="24.306946"
       y2="42.107147"
       gradientUnits="userSpaceOnUse"
       gradientTransform="translate(0,-1)" />
  </defs>
  <sodipodi:namedview
     id="base"
     pagecolor="#ffffff"
     bordercolor="#666666"
     borderopacity="1.0"
     inkscape:pageopacity="0.0"
     inkscape:pageshadow="2"
     inkscape:zoom="14"
     inkscape:cx="23.576711"
     inkscape:cy="25.715095"
     inkscape:current-layer="layer1"
     showgrid="true"
     inkscape:grid-bbox="false"
     inkscape:document-units="px"
     inkscape:window-width="1346"
     inkscape:window-height="1086"
     inkscape:window-x="286"
     inkscape:window-y="10" />
  <metadata
     id="metadata29248">
    <rdf:RDF>
      <cc:Work
         rdf:about="">
        <dc:format>image/svg+xml</dc:format>
        <dc:type
           rdf:resource="http://purl.org/dc/dcmitype/StillImage" />
      </cc:Work>
    </rdf:RDF>
  </metadata>
  <g
     id="layer1"
     inkscape:label="Layer 1"
     inkscape:groupmode="layer">
    <path
       style="fill:url(#linearGradient80850);stroke:#400809;stroke-width:1;stroke-linecap:round;stroke-linejoin:round;stroke-miterlimit:4;stroke-dasharray:none"
       d="M 16.753078,31.73639 C 10.437416,31.73639 5.3154366,33.627845 5.3154366,36.665599 C 5.3154366,38.559339 7.301861,40.229076 10.327757,41.218803 L 13.255419,38.957059 C 13.377643,38.863343 13.698624,38.787913 13.703193,39.115918 L 15.004248,45.225714 C 15.03509,45.447431 14.779219,45.610862 14.418259,45.610862 L 3.8864456,46.536588 L 3.8864456,46.536588 C 3.8350427,46.538874 3.8099131,46.510303 3.7996324,46.463445 C 3.7790718,46.362872 3.8704542,46.201727 4.0006735,46.104583 L 6.3389188,44.298844 C 2.8424029,42.719395 0.62181209,40.417649 0.62181209,38.039332 C 0.62181209,33.75356 7.8444433,30.280371 16.753078,30.280371"
       id="path80848" />
    <path
       style="fill:url(#XMLID_646_);stroke:url(#linearGradient80843);stroke-width:1;stroke-linecap:round;stroke-linejoin:round;stroke-miterlimit:4;stroke-dasharray:none"
       id="path65786"
       d="M 31.174343,30.983227 C 40.085263,30.983227 47.306753,34.456416 47.306753,38.742187 C 47.306753,41.690798 43.891337,44.525121 38.858455,46.006284 L 33.868979,42.718241 C 38.885869,42.135376 42.611985,39.962775 42.611985,37.368454 C 42.611985,34.3307 37.492289,32.439246 31.1732,32.439246"
       i:knockout="Off" />
    <g
       id="g36019"
       transform="matrix(1.048203,0,0,1.048276,-1.604384,-3.732643)">
      <path
         sodipodi:nodetypes="csscscsscc"
         d="M 31.5,42.5 C 31.5,42.5 38,34.5 38,28.5 C 38,24.214286 32.714286,22 32,19.714286 C 31.40345,17.805326 31.071429,13.5 35.46428,9.3750001 C 35.499988,7.0817144 30.795991,6.0714288 24.999995,6.0714288 C 19.203999,6.0714288 14.500002,7.3674287 14.500001,9.1607143 C 18.857142,13.357143 18.525121,17.662469 17.928571,19.571429 C 17.214285,21.857143 11.928571,24.071429 11.928571,28.357143 C 11.928571,34.357143 18.428571,42.357143 18.428571,42.357143 L 31.5,42.5 z "
         style="opacity:1;color:black;fill:url(#radialGradient36229);fill-opacity:1;fill-rule:evenodd;stroke:#2e3436;stroke-width:0.95398045;stroke-linecap:butt;stroke-linejoin:bevel;marker:none;marker-start:none;marker-mid:none;marker-end:none;stroke-miterlimit:4;stroke-dasharray:none;stroke-dashoffset:0;stroke-opacity:1;visibility:visible;display:inline;overflow:visible"
         id="path35939" />
      <path
         sodipodi:nodetypes="csssc"
         id="path35941"
         d="M 27.028667,44.029193 C 26.25099,44.442053 25.538648,44.355888 24.607148,44.355888 C 20.881149,44.355888 17.857151,43.389776 17.857151,42.199388 C 17.857151,41.009 20.881149,40.042888 24.607148,40.042888 C 28.333147,40.042888 31.357145,40.796013 31.357145,42.412376"
         style="fill:none;fill-opacity:0.75;fill-rule:evenodd;stroke:#2e3436;stroke-width:0.95398021px;stroke-linecap:butt;stroke-linejoin:miter;stroke-opacity:1" />
      <path
         sodipodi:nodetypes="csscscsscc"
         d="M 31.25,42.5 C 31.25,42.5 37.75,34.5 37.75,28.5 C 37.75,24.214286 32.464286,22 31.75,19.714286 C 31.15345,17.805326 30.821429,13.5 35.21428,9.3749999 C 35.249988,7.0817145 30.545991,6.0714285 24.749995,6.0714285 C 18.953999,6.0714285 14.250002,7.3674285 14.250001,9.1607139 C 18.607142,13.357143 18.275121,17.662469 17.678571,19.571429 C 16.964285,21.857143 11.678571,24.071429 11.678571,28.357143 C 11.678571,34.357143 18.178571,42.357143 18.178571,42.357143 L 31.25,42.5 z "
         style="opacity:1;color:black;fill:url(#linearGradient36231);fill-opacity:1;fill-rule:evenodd;stroke:none;stroke-width:1;stroke-linecap:butt;stroke-linejoin:bevel;marker:none;marker-start:none;marker-mid:none;marker-end:none;stroke-miterlimit:4;stroke-dasharray:none;stroke-dashoffset:0;stroke-opacity:1;visibility:visible;display:inline;overflow:visible"
         id="path35995" />
      <path
         id="path35971"
         d="M 35.42857,9.5000001 C 31.071428,13.5 31.403449,17.805326 31.999999,19.714286 C 32.714285,22 37.999999,24.214286 37.999999,28.5 C 37.999999,34.5 31.499999,42.5 31.499999,42.5 L 24.999999,42.5"
         style="fill:none;fill-opacity:0.75;fill-rule:evenodd;stroke:#ef2929;stroke-width:1.43097067;stroke-linecap:butt;stroke-linejoin:miter;stroke-miterlimit:4;stroke-dasharray:none;stroke-opacity:1" />
      <path
         sodipodi:nodetypes="cscsscscssc"
         d="M 26.999997,44.07483 C 26.22232,44.419434 25.652837,44.279477 24.721337,44.279477 C 20.995338,44.279477 17.97134,43.473088 17.914241,42.311179 C 17.857142,42.142857 11.357142,34.142857 11.357142,28.142857 C 11.357142,23.857143 16.642856,21.642857 17.357142,19.357143 C 17.953692,17.448183 18.285713,13.142857 14.321428,8.9107142 C 14.714285,10.275428 19.418282,11.571428 25.214278,11.571428 C 26.663277,11.571428 27.401168,11.561857 28.512677,11.279132 C 26.692302,15.142859 26.820002,19.448186 27.049444,21.357147 C 27.32417,23.642862 29.357134,25.857149 29.357134,30.142863 C 29.357134,36.142865 26.999997,44.07483 26.999997,44.07483 z "
         style="fill:url(#radialGradient36233);fill-opacity:1;fill-rule:evenodd;stroke:#2e3436;stroke-width:0.95398045;stroke-linecap:butt;stroke-linejoin:bevel;stroke-miterlimit:4;stroke-dasharray:none;stroke-opacity:1"
         id="path35929" />
      <path
         sodipodi:nodetypes="cscsscscssc"
         d="M 26.928574,44.037105 C 26.150897,44.381709 25.581414,44.241752 24.649914,44.241752 C 20.923915,44.241752 17.899917,43.435363 17.842818,42.273454 C 17.785719,42.105132 11.285719,34.105132 11.285719,28.105132 C 11.285719,23.819418 16.571433,21.605132 17.285719,19.319418 C 17.882269,17.410458 18.21429,13.105132 14.250005,8.8729892 C 14.642862,10.237703 19.346859,11.533703 25.142855,11.533703 C 26.591854,11.533703 27.329745,11.524132 28.441254,11.241407 C 26.620879,15.105134 26.748579,19.410461 26.978021,21.319422 C 27.252747,23.605137 29.285711,25.819424 29.285711,30.105138 C 29.285711,36.10514 26.928574,44.037105 26.928574,44.037105 z "
         style="fill:url(#linearGradient36235);fill-opacity:1;fill-rule:evenodd;stroke:none;stroke-width:1;stroke-linecap:butt;stroke-linejoin:bevel;stroke-miterlimit:4;stroke-dasharray:none;stroke-opacity:1"
         id="path36007" />
    </g>
    <path
       sodipodi:nodetypes="csscscsscc"
       d="M 31.414011,40.819086 C 31.414011,40.819086 38.227331,32.432878 38.227331,26.143222 C 38.227331,21.650611 32.686829,19.329428 31.938113,16.933369 C 31.312807,14.932252 30.964782,10.419082 35.569381,6.0949439 C 35.60681,3.6909476 30.676067,2.2747465 24.600686,2.2747465 C 18.525306,2.2747465 13.594562,3.990455 13.594561,5.8703132 C 18.161729,10.269329 17.813704,14.782499 17.188398,16.783616 C 16.439682,19.179675 10.89918,21.500858 10.89918,25.993469 C 10.89918,32.283125 17.7125,40.669333 17.7125,40.669333 L 31.414011,40.819086 z "
       style="color:black;fill:url(#radialGradient36249);fill-opacity:1;fill-rule:evenodd;stroke:#2e3436;stroke-width:1.5;stroke-linecap:butt;stroke-linejoin:bevel;marker:none;marker-start:none;marker-mid:none;marker-end:none;stroke-miterlimit:4;stroke-dasharray:none;stroke-dashoffset:0;stroke-opacity:1;visibility:visible;display:inline;overflow:visible"
       id="path36200" />
    <path
       sodipodi:nodetypes="csssc"
       id="path36202"
       d="M 26.727146,42.422103 C 25.911983,42.854894 25.165304,42.764569 24.188903,42.764569 C 20.2833,42.764569 17.113536,41.751817 17.113536,40.503962 C 17.113536,39.256107 20.2833,38.243355 24.188903,38.243355 C 28.094506,38.243355 31.26427,39.032838 31.26427,40.727232"
       style="fill:none;fill-opacity:0.75;fill-rule:evenodd;stroke:#2e3436;stroke-width:0.99999976px;stroke-linecap:butt;stroke-linejoin:miter;stroke-opacity:1" />
    <path
       sodipodi:nodetypes="csscscsscc"
       d="M 31.151964,40.819085 C 31.151964,40.819085 37.965284,32.432877 37.965284,26.143221 C 37.965284,21.650611 32.424782,19.329428 31.676065,16.933369 C 31.05076,14.932252 30.702734,10.419082 35.307334,6.0949436 C 35.344764,3.6909476 30.414019,2.6318891 24.338638,2.6318891 C 18.263257,2.6318891 13.332513,3.9904547 13.332512,5.8703127 C 17.89968,10.269328 17.551655,14.782498 16.926349,16.783615 C 16.177633,19.179674 10.637131,21.500857 10.637131,25.993468 C 10.637131,32.283124 17.450451,40.669331 17.450451,40.669331 L 31.151964,40.819085 z "
       style="color:black;fill:url(#linearGradient36245);fill-opacity:1;fill-rule:evenodd;stroke:none;stroke-width:1;stroke-linecap:butt;stroke-linejoin:bevel;marker:none;marker-start:none;marker-mid:none;marker-end:none;stroke-miterlimit:4;stroke-dasharray:none;stroke-dashoffset:0;stroke-opacity:1;visibility:visible;display:inline;overflow:visible"
       id="path36204" />
    <path
       sodipodi:nodetypes="csscsc"
       d="M 30.859886,39.665035 C 30.859886,39.665035 36.434571,32.800517 36.949803,26.779925 C 37.306946,22.606641 31.439478,19.519491 30.762407,17.21755 C 30.196938,15.295037 29.382214,10.316287 34.403338,6.162 C 34.437186,4.4238611 28.906841,3.0492601 24.698534,3.0492601 C 20.990226,3.0492601 14.745596,4.3544607 14.745595,6.0890497"
       style="color:black;fill:none;fill-opacity:1;fill-rule:evenodd;stroke:url(#linearGradient36281);stroke-width:1.00000036;stroke-linecap:butt;stroke-linejoin:bevel;marker:none;marker-start:none;marker-mid:none;marker-end:none;stroke-miterlimit:4;stroke-dasharray:none;stroke-dashoffset:0;stroke-opacity:1;visibility:visible;display:inline;overflow:visible"
       id="path36263" />
    <path
       id="path36206"
       d="M 35.53195,6.2259784 C 30.964781,10.419082 31.312806,14.932252 31.938111,16.933369 C 32.686828,19.329428 38.227329,21.650611 38.227329,26.143222 C 38.227329,32.432878 31.41401,40.819086 31.41401,40.819086 L 24.60069,40.819086"
       style="fill:none;fill-opacity:0.75;fill-rule:evenodd;stroke:#ef2929;stroke-width:1.5;stroke-linecap:butt;stroke-linejoin:miter;stroke-miterlimit:4;stroke-dasharray:none;stroke-opacity:1" />
    <path
       sodipodi:nodetypes="cscsscscssc"
       d="M 26.697094,43.1128 C 25.881931,43.47404 25.284997,43.327326 24.308596,43.327326 C 20.402993,43.327326 17.233229,41.839151 17.173378,40.62115 C 17.113526,40.444702 10.300207,32.058494 10.300207,25.768838 C 10.300207,21.276227 15.840708,18.955044 16.589425,16.558985 C 17.21473,14.557868 17.562756,10.044698 13.40738,5.6082441 C 16.247745,6.9674123 18.749918,8.3974066 24.825298,8.3974066 C 26.344143,8.3974066 27.117603,8.3873735 28.28269,8.0909997 C 26.374568,12.141252 26.508423,16.654423 26.748925,18.655541 C 27.036894,21.051601 29.167852,23.372785 29.167852,27.865396 C 29.167852,34.155054 26.697094,43.1128 26.697094,43.1128 z "
       style="fill:url(#radialGradient36241);fill-opacity:1;fill-rule:evenodd;stroke:#2e3436;stroke-width:1;stroke-linecap:butt;stroke-linejoin:bevel;stroke-miterlimit:4;stroke-dasharray:none;stroke-opacity:1"
       id="path36208" />
    <path
       sodipodi:nodetypes="cscsscscssc"
       d="M 26.382586,42.518188 C 25.687109,42.863103 25.17782,42.723019 24.34478,42.723019 C 21.012618,42.723019 17.862468,41.711967 17.811405,40.549012 C 17.760341,39.931278 10.824316,32.148719 10.824316,26.143328 C 10.824316,21.853762 16.374919,19.637487 17.013706,17.349719 C 17.5472,15.439043 18.51797,11.129848 14.97271,6.8939019 C 15.324042,8.2598422 18.856982,8.8831156 24.040343,8.8831156 C 25.336183,8.8831156 26.220695,8.9484117 27.214717,8.6654327 C 25.586756,12.532632 26.150188,17.440843 26.355378,19.351519 C 26.601065,21.639289 28.419145,23.855566 28.419145,28.145131 C 28.419145,34.150525 26.382586,42.518188 26.382586,42.518188 z "
       style="fill:url(#linearGradient36238);fill-opacity:1;fill-rule:evenodd;stroke:none;stroke-width:1;stroke-linecap:butt;stroke-linejoin:bevel;stroke-miterlimit:4;stroke-dasharray:none;stroke-opacity:1"
       id="path36210" />
    <path
       sodipodi:nodetypes="ccssccssc"
       d="M 25.832284,42.552799 C 23.316785,43.065435 20.751879,42.356984 18.189674,40.797908 C 17.352896,39.251603 11.345442,31.969044 11.345442,25.963653 C 11.345442,21.674087 16.108161,19.954196 17.249118,17.670044 C 18.339803,15.486534 18.396239,10.307316 15.422407,7.4285133 C 18.793792,8.8318969 23.479477,9.656271 27.092986,9.057187 C 25.465025,12.924386 25.291402,17.677251 25.805076,19.528987 C 26.479334,21.959614 28.154557,24.104462 28.154557,28.394027 C 28.154557,34.399421 25.832284,42.552799 25.832284,42.552799 z "
       style="fill:none;fill-opacity:1;fill-rule:evenodd;stroke:url(#linearGradient36261);stroke-width:1;stroke-linecap:butt;stroke-linejoin:round;stroke-miterlimit:4;stroke-dasharray:none;stroke-opacity:1"
       id="path36251" />
  </g>
</svg>
