<?xml version="1.0" encoding="UTF-8" standalone="no"?>
<!-- Created with Inkscape (http://www.inkscape.org/) -->
<svg
   xmlns:a="http://ns.adobe.com/AdobeSVGViewerExtensions/3.0/"
   xmlns:i="http://ns.adobe.com/AdobeIllustrator/10.0/"
   xmlns:dc="http://purl.org/dc/elements/1.1/"
   xmlns:cc="http://web.resource.org/cc/"
   xmlns:rdf="http://www.w3.org/1999/02/22-rdf-syntax-ns#"
   xmlns:svg="http://www.w3.org/2000/svg"
   xmlns="http://www.w3.org/2000/svg"
   xmlns:xlink="http://www.w3.org/1999/xlink"
   xmlns:sodipodi="http://sodipodi.sourceforge.net/DTD/sodipodi-0.dtd"
   xmlns:inkscape="http://www.inkscape.org/namespaces/inkscape"
   width="48px"
   height="48px"
   id="svg27586"
   sodipodi:version="0.32"
   inkscape:version="0.44"
   sodipodi:docbase="e:\dev_clean\src\houdini\support\icons\sop"
   sodipodi:docname="shop.svg">
  <defs
     id="defs27588">
    <radialGradient
       id="XMLID_640_"
       cx="842.49121"
       cy="440.8721"
       r="45.9594"
       fx="842.49121"
       fy="440.8721"
       gradientUnits="userSpaceOnUse">
							<stop
   offset="0"
   style="stop-color:#CAD6DD"
   id="stop11030" />

							<stop
   offset="0.2443"
   style="stop-color:#BDCBD4"
   id="stop11032" />

							<stop
   offset="0.6332"
   style="stop-color:#B0C0CC"
   id="stop11034" />

							<stop
   offset="1"
   style="stop-color:#ACBDCA"
   id="stop11036" />

							<a:midPointStop
   offset="0"
   style="stop-color:#CAD6DD" />

							<a:midPointStop
   offset="0.3051"
   style="stop-color:#CAD6DD" />

							<a:midPointStop
   offset="1"
   style="stop-color:#ACBDCA" />

						</radialGradient>
    <radialGradient
       id="XMLID_641_"
       cx="844.18408"
       cy="396.7002"
       r="24.5317"
       fx="844.18408"
       fy="396.7002"
       gradientUnits="userSpaceOnUse">
							<stop
   offset="0"
   style="stop-color:#FFFFFF"
   id="stop11041" />

							<stop
   offset="1"
   style="stop-color:#C2CED4"
   id="stop11043" />

							<a:midPointStop
   offset="0"
   style="stop-color:#FFFFFF" />

							<a:midPointStop
   offset="0.5"
   style="stop-color:#FFFFFF" />

							<a:midPointStop
   offset="1"
   style="stop-color:#C2CED4" />

						</radialGradient>
    <radialGradient
       id="XMLID_642_"
       cx="867.57813"
       cy="431.33011"
       r="52.4664"
       fx="867.57813"
       fy="431.33011"
       gradientUnits="userSpaceOnUse">
							<stop
   offset="0"
   style="stop-color:#B3BFCA"
   id="stop11048" />

							<stop
   offset="0.2859"
   style="stop-color:#AEBAC4"
   id="stop11050" />

							<stop
   offset="0.6236"
   style="stop-color:#9EA9B3"
   id="stop11052" />

							<stop
   offset="0.9863"
   style="stop-color:#83909A"
   id="stop11054" />

							<stop
   offset="1"
   style="stop-color:#828F99"
   id="stop11056" />

							<a:midPointStop
   offset="0"
   style="stop-color:#B3BFCA" />

							<a:midPointStop
   offset="0.6723"
   style="stop-color:#B3BFCA" />

							<a:midPointStop
   offset="1"
   style="stop-color:#828F99" />

						</radialGradient>
    <radialGradient
       gradientUnits="userSpaceOnUse"
       fy="396.95901"
       fx="824.03027"
       r="50.908699"
       cy="396.95901"
       cx="824.03027"
       id="XMLID_649_"
       gradientTransform="translate(-827.574,-395.9514)">
						<stop
   id="stop11133"
   style="stop-color:#EFEEEC"
   offset="0" />

						<stop
   id="stop11135"
   style="stop-color:#000000"
   offset="1" />

						<a:midPointStop
   style="stop-color:#EFEEEC"
   offset="0" />

						<a:midPointStop
   style="stop-color:#EFEEEC"
   offset="0.5" />

						<a:midPointStop
   style="stop-color:#000000"
   offset="1" />

					</radialGradient>
    <radialGradient
       gradientUnits="userSpaceOnUse"
       fy="414.80081"
       fx="833.29742"
       r="33.354099"
       cy="414.80081"
       cx="833.29742"
       id="XMLID_650_">
						<stop
   id="stop11140"
   style="stop-color:#EFEEEC"
   offset="0" />

						<stop
   id="stop11142"
   style="stop-color:#000000"
   offset="1" />

						<a:midPointStop
   style="stop-color:#EFEEEC"
   offset="0" />

						<a:midPointStop
   style="stop-color:#EFEEEC"
   offset="0.5" />

						<a:midPointStop
   style="stop-color:#000000"
   offset="1" />

					</radialGradient>
    <radialGradient
       gradientUnits="userSpaceOnUse"
       fy="414.80081"
       fx="833.29791"
       r="33.3536"
       cy="414.80081"
       cx="833.29791"
       id="XMLID_654_"
       gradientTransform="translate(-827.574,-395.9514)">
						<stop
   id="stop11153"
   style="stop-color:#EFEEEC"
   offset="0" />

						<stop
   id="stop11155"
   style="stop-color:#000000"
   offset="1" />

						<a:midPointStop
   style="stop-color:#EFEEEC"
   offset="0" />

						<a:midPointStop
   style="stop-color:#EFEEEC"
   offset="0.5" />

						<a:midPointStop
   style="stop-color:#000000"
   offset="1" />

					</radialGradient>
    <radialGradient
       gradientUnits="userSpaceOnUse"
       fy="402.77731"
       fx="828.90228"
       r="27.216801"
       cy="402.77731"
       cx="828.90228"
       id="XMLID_655_"
       gradientTransform="translate(-827.574,-395.9514)">
						<stop
   id="stop11160"
   style="stop-color:#EFEEEC"
   offset="0" />

						<stop
   id="stop11162"
   style="stop-color:#000000"
   offset="1" />

						<a:midPointStop
   style="stop-color:#EFEEEC"
   offset="0" />

						<a:midPointStop
   style="stop-color:#EFEEEC"
   offset="0.5" />

						<a:midPointStop
   style="stop-color:#000000"
   offset="1" />

					</radialGradient>
    <radialGradient
       inkscape:collect="always"
       xlink:href="#XMLID_640_"
       id="radialGradient27654"
       gradientUnits="userSpaceOnUse"
       cx="842.49121"
       cy="440.8721"
       fx="842.49121"
       fy="440.8721"
       r="45.9594" />
    <radialGradient
       inkscape:collect="always"
       xlink:href="#XMLID_641_"
       id="radialGradient27656"
       gradientUnits="userSpaceOnUse"
       cx="844.18408"
       cy="396.7002"
       fx="844.18408"
       fy="396.7002"
       r="24.5317" />
    <radialGradient
       inkscape:collect="always"
       xlink:href="#XMLID_642_"
       id="radialGradient27658"
       gradientUnits="userSpaceOnUse"
       cx="867.57813"
       cy="431.33011"
       fx="867.57813"
       fy="431.33011"
       r="52.4664" />
    <radialGradient
       inkscape:collect="always"
       xlink:href="#XMLID_649_"
       id="radialGradient27660"
       gradientUnits="userSpaceOnUse"
       gradientTransform="translate(-827.574,-395.9514)"
       cx="824.03027"
       cy="396.95901"
       fx="824.03027"
       fy="396.95901"
       r="50.908699" />
    <radialGradient
       inkscape:collect="always"
       xlink:href="#XMLID_650_"
       id="radialGradient27662"
       gradientUnits="userSpaceOnUse"
       gradientTransform="translate(-827.574,-395.9514)"
       cx="833.2974"
       cy="414.8008"
       fx="833.2974"
       fy="414.8008"
       r="33.3541" />
    <radialGradient
       inkscape:collect="always"
       xlink:href="#XMLID_650_"
       id="radialGradient27664"
       gradientUnits="userSpaceOnUse"
       gradientTransform="translate(-827.574,-395.9514)"
       cx="833.2974"
       cy="414.8008"
       fx="833.2974"
       fy="414.8008"
       r="33.3541" />
    <radialGradient
       inkscape:collect="always"
       xlink:href="#XMLID_650_"
       id="radialGradient27666"
       gradientUnits="userSpaceOnUse"
       gradientTransform="translate(-827.574,-395.9514)"
       cx="833.2974"
       cy="414.8008"
       fx="833.2974"
       fy="414.8008"
       r="33.3541" />
    <radialGradient
       inkscape:collect="always"
       xlink:href="#XMLID_650_"
       id="radialGradient27668"
       gradientUnits="userSpaceOnUse"
       gradientTransform="translate(-827.574,-395.9514)"
       cx="833.2974"
       cy="414.8008"
       fx="833.2974"
       fy="414.8008"
       r="33.3541" />
    <radialGradient
       inkscape:collect="always"
       xlink:href="#XMLID_654_"
       id="radialGradient27670"
       gradientUnits="userSpaceOnUse"
       gradientTransform="translate(-827.574,-395.9514)"
       cx="833.29791"
       cy="414.80081"
       fx="833.29791"
       fy="414.80081"
       r="33.3536" />
    <radialGradient
       inkscape:collect="always"
       xlink:href="#XMLID_655_"
       id="radialGradient27672"
       gradientUnits="userSpaceOnUse"
       gradientTransform="translate(-827.574,-395.9514)"
       cx="828.90228"
       cy="402.77731"
       fx="828.90228"
       fy="402.77731"
       r="27.216801" />
  </defs>
  <sodipodi:namedview
     id="base"
     pagecolor="#ffffff"
     bordercolor="#666666"
     borderopacity="1.0"
     inkscape:pageopacity="0.0"
     inkscape:pageshadow="2"
     inkscape:zoom="7"
     inkscape:cx="24"
     inkscape:cy="24"
     inkscape:current-layer="layer1"
     showgrid="true"
     inkscape:grid-bbox="true"
     inkscape:document-units="px"
     inkscape:window-width="853"
     inkscape:window-height="573"
     inkscape:window-x="312"
     inkscape:window-y="65" />
  <metadata
     id="metadata27591">
    <rdf:RDF>
      <cc:Work
         rdf:about="">
        <dc:format>image/svg+xml</dc:format>
        <dc:type
           rdf:resource="http://purl.org/dc/dcmitype/StillImage" />
      </cc:Work>
    </rdf:RDF>
  </metadata>
  <g
     id="layer1"
     inkscape:label="Layer 1"
     inkscape:groupmode="layer">
    <g
       id="g27638"
       transform="matrix(1.095087,0,0,1.095087,2,-6.903336e-3)">
      <polygon
         style="fill:url(#radialGradient27654)"
         id="polygon11038"
         points="842.046,439.093 830.052,424.667 828.074,401.63 841.15,413.243 842.046,439.093 "
         i:knockout="Off"
         transform="translate(-827.574,-395.9514)" />
      <polygon
         style="fill:url(#radialGradient27656)"
         id="polygon11045"
         points="867.7,405.798 841.15,413.243 828.074,401.63 851.639,396.524 867.7,405.798 "
         i:knockout="Off"
         transform="translate(-827.574,-395.9514)" />
      <polygon
         style="fill:url(#radialGradient27658)"
         id="polygon11058"
         points="865.418,429.954 842.046,439.093 841.15,413.243 867.7,405.798 865.418,429.954 "
         i:knockout="Off"
         transform="translate(-827.574,-395.9514)" />
      <polygon
         style="fill:none;stroke:#192333;stroke-width:0.91316921"
         id="polygon11130"
         points="828.074,401.63 851.639,396.524 867.7,405.798 865.418,429.954 842.046,439.093 830.052,424.667 828.074,401.63 "
         i:knockout="Off"
         transform="translate(-827.574,-395.9514)" />
      <path
         i:knockout="Off"
         a:adobe-blending-mode="multiply"
         d="M 13.930986,27.545643 C 14.257986,27.416643 14.584986,27.274643 14.929986,27.274643 C 15.595986,27.274643 17.399986,27.208643 17.966986,27.473643 C 18.531986,27.740643 18.942986,28.738643 19.458986,28.870643 C 19.974986,29.004643 20.406986,28.736643 20.654986,28.338643 C 20.903986,27.939643 21.600986,27.139643 21.991986,27.206643 C 22.383986,27.273643 22.874986,27.606643 23.298986,27.406643 C 23.722986,27.206643 23.995986,26.607643 24.586986,26.675643 C 25.177986,26.740643 25.708986,26.209643 25.574986,25.676643 C 25.440986,25.143643 26.436986,24.078643 26.160986,23.613643 C 25.885986,23.147643 24.617986,22.086643 24.748986,21.021643 C 24.879986,19.956643 26.273986,18.360643 26.338986,17.827643 C 26.403986,17.295643 26.617986,16.098643 27.157986,16.030643 C 27.698986,15.964643 27.936986,15.099643 28.236986,14.833643 C 28.535986,14.567643 29.124986,13.563643 29.731986,13.499643 C 30.065986,13.465643 33.462986,15.629643 33.629986,15.895643 C 33.796986,16.161643 34.339986,17.159643 34.514986,17.358643 C 34.689986,17.558643 34.540986,17.691643 34.033986,18.024643 C 33.527986,18.357643 33.660986,18.889643 33.287986,19.222643 C 32.914986,19.555643 32.457986,20.021643 32.483986,20.353643 C 32.508986,20.685643 32.783986,20.620643 32.958986,20.819643 C 33.133986,21.018643 32.826986,21.351643 32.860986,21.617643 C 32.894986,21.884643 33.070986,22.616643 33.328986,22.681643 C 33.586986,22.748643 34.178986,22.816643 34.651986,22.748643 C 35.125986,22.681643 36.265986,22.615643 36.522986,22.681643 C 36.780986,22.748643 37.697986,23.414643 37.773986,23.879643 C 37.849986,24.345643 37.626986,25.077643 37.318986,25.410643 C 37.010986,25.743643 36.264986,26.407643 36.215986,26.807643 C 36.166986,27.206643 36.210986,28.470643 35.845986,28.737643 C 35.479986,29.004643 35.389986,29.735643 35.341986,30.133643 C 35.292986,30.533643 33.838986,31.530643 33.347986,31.197643 C 32.856986,30.865643 32.553986,29.534643 31.805986,29.667643 C 31.057986,29.801643 30.892986,30.600643 31.126986,30.865643 C 31.359986,31.132643 30.695986,31.664643 30.795986,31.930643 C 30.896986,32.196643 31.264986,32.991643 31.580986,33.123643 C 31.897986,33.256643 32.424986,34.388643 32.350986,34.986643 C 32.307986,35.339643 32.134986,35.806643 32.008986,36.282643 L 24.045986,39.404643 C 23.988986,39.309643 23.962986,39.214643 23.991986,39.114643 C 24.107986,38.715643 24.889986,39.381643 24.971986,38.715643 C 25.053986,38.050643 24.404986,37.916643 24.236986,37.118643 C 24.068986,36.319643 23.923986,34.789643 23.556986,34.522643 C 23.190986,34.255643 22.591986,34.255643 22.148986,33.524643 C 21.706986,32.793643 21.171986,31.728643 20.639986,31.728643 C 20.107986,31.728643 19.941986,31.994643 19.600986,32.059643 C 19.259986,32.126643 18.270986,32.592643 18.213986,33.058643 C 18.156986,33.524643 18.170986,36.120643 17.805986,36.385643 C 17.439986,36.652643 17.208986,36.917643 16.725986,37.051643 C 16.243986,37.184643 15.628986,37.317643 15.437986,37.782643 C 15.246986,38.247643 15.315986,38.780643 15.048986,38.780643 C 14.781986,38.780643 14.399986,38.647643 14.331986,38.115643 C 14.223986,37.512643 14.721986,37.831643 14.329986,37.037643 C 13.936986,36.244643 13.642986,34.736643 13.144986,34.419643 C 12.646986,34.101643 11.921986,33.833643 11.361986,33.333643 C 10.800986,32.834643 10.177986,32.149643 10.080986,32.506643 C 9.982986,32.861643 9.1929856,32.472643 9.3679856,33.196643 C 9.5429856,33.922643 9.5139856,34.339643 9.0209856,33.961643 C 8.5259856,33.583643 7.0979856,31.614643 7.1149856,31.376643 C 7.1299856,31.137643 7.0179856,30.595643 6.8279856,30.109643 C 6.6369856,29.623643 5.8679856,27.797643 6.3379856,27.395643 C 6.8109856,26.996643 7.5419856,27.143643 6.9929856,26.463643 C 6.4449856,25.783643 6.1729856,25.414643 6.1969856,25.058643 C 6.2199856,24.699643 6.7809856,25.199643 6.5289856,24.531643 C 6.2769856,23.864643 5.2969856,21.852643 4.8809856,21.417643 C 4.4639856,20.983643 4.4879856,20.624643 4.5309856,19.968643 C 4.5739856,19.313643 3.8599856,17.789643 4.1669856,17.620643 C 4.4749856,17.452643 6.1759856,18.655643 6.7839856,18.438643 C 7.3919856,18.222643 8.0119856,17.828643 8.5059856,18.205643 C 8.9999856,18.584643 10.387986,21.149643 10.422986,21.749643 C 10.457986,22.350643 12.279986,26.188643 12.976986,26.874643 C 13.309986,27.205643 13.620986,27.381643 13.930986,27.545643 z "
         id="path11137"
         style="fill:url(#radialGradient27660)" />
      <path
         i:knockout="Off"
         a:adobe-blending-mode="multiply"
         d="M 25.184986,9.6226429 C 25.483986,9.0236429 26.573986,9.2496429 27.161986,9.5166429 C 27.749986,9.7836429 29.191986,10.264643 28.551986,10.532643 C 27.909986,10.799643 27.215986,11.173643 26.200986,10.585643 C 25.185986,9.9986429 24.596986,10.316643 24.596986,9.9986429 C 24.596986,9.6776429 25.023986,9.9446429 25.184986,9.6226429 z "
         id="path11144"
         style="fill:url(#radialGradient27662)" />
      <path
         i:knockout="Off"
         a:adobe-blending-mode="multiply"
         d="M 8.4399856,10.548643 C 8.4689856,9.6666429 13.835986,9.3196429 14.686986,9.3146429 C 15.538986,9.3106429 17.529986,9.0906429 16.909986,9.7656429 C 16.287986,10.438643 17.820986,10.937643 14.123986,11.121643 C 12.579986,11.198643 12.185986,11.591643 11.879986,11.303643 C 10.996986,10.471643 8.4239856,11.019643 8.4399856,10.548643 z "
         id="path11146"
         style="fill:url(#radialGradient27664)" />
      <path
         i:knockout="Off"
         a:adobe-blending-mode="multiply"
         d="M 13.965986,7.0506429 C 13.128986,6.5066429 15.196986,6.4586429 15.887986,5.9656429 C 16.576986,5.4746429 16.626986,4.9316429 17.613986,4.9316429 C 18.598986,4.9316429 20.126986,5.0296429 21.458986,4.3386429 C 22.789986,3.6496429 25.993986,3.5496429 27.275986,3.6496429 C 28.557986,3.7496429 30.627986,4.3886429 29.099986,5.5726429 C 27.571986,6.7556429 25.846986,6.8046429 24.712986,6.7556429 C 23.578986,6.7056429 21.508986,6.8526429 20.571986,7.0016429 C 19.634986,7.1486429 18.599986,6.5086429 17.662986,6.7056429 C 16.725986,6.9036429 14.950986,7.6916429 13.965986,7.0506429 z "
         id="path11148"
         style="fill:url(#radialGradient27666)" />
      <path
         i:knockout="Off"
         a:adobe-blending-mode="multiply"
         d="M 20.077986,8.1726429 C 20.627986,7.8586429 21.131986,8.5226429 21.774986,8.5816429 C 22.418986,8.6406429 22.477986,9.5746429 21.306986,9.5746429 C 20.136986,9.5746429 20.780986,9.0506429 20.311986,8.9316429 C 19.844986,8.8166429 19.669986,8.4046429 20.077986,8.1726429 z "
         id="path11150"
         style="fill:url(#radialGradient27668)" />
      <path
         i:knockout="Off"
         a:adobe-blending-mode="multiply"
         d="M 18.920986,2.1816429 C 19.530986,2.3046429 21.242986,2.9566429 22.097986,2.6716429 C 22.951986,2.3876429 22.666986,1.7356429 23.724986,1.7756429 C 24.783986,1.8166429 24.498986,1.0436429 24.172986,1.0436429 L 18.920986,2.1816429 z "
         id="path11157"
         style="fill:url(#radialGradient27670)" />
      <path
         i:knockout="Off"
         a:adobe-blending-mode="multiply"
         d="M 5.9889856,13.406643 C 6.6139856,13.434643 6.5129856,13.735643 6.4399856,13.911643 C 6.3499856,14.127643 6.8029856,14.560643 6.2829856,14.664643 C 5.7629856,14.768643 5.6069856,14.612643 5.6069856,14.248643 C 5.6069856,13.884643 5.7649856,14.011643 5.8439856,13.820643 C 5.9339856,13.605643 5.6599856,13.392643 5.9889856,13.406643 z "
         id="path11164"
         style="fill:url(#radialGradient27672)" />
      <path
         id="path27580"
         d="M 1.0408256,6.2047829 L 13.797136,17.652753"
         style="fill:none;fill-opacity:0.75;fill-rule:evenodd;stroke:white;stroke-width:0.91316921px;stroke-linecap:round;stroke-linejoin:miter;stroke-opacity:0.61111109" />
      <path
         sodipodi:nodetypes="cc"
         id="path27582"
         d="M 13.851646,17.489213 L 39.364266,10.184313"
         style="fill:none;fill-opacity:0.75;fill-rule:evenodd;stroke:white;stroke-width:0.91316921px;stroke-linecap:round;stroke-linejoin:miter;stroke-opacity:0.61111109" />
      <path
         sodipodi:nodetypes="cc"
         id="path27584"
         d="M 13.906166,17.380183 L 14.451316,42.565713"
         style="fill:none;fill-opacity:0.75;fill-rule:evenodd;stroke:white;stroke-width:0.91316921px;stroke-linecap:round;stroke-linejoin:miter;stroke-opacity:0.61111109" />
    </g>
  </g>
</svg>
