<?xml version="1.0" encoding="UTF-8" standalone="no"?>
<!-- Created with Inkscape (http://www.inkscape.org/) -->
<svg
   xmlns:a="http://ns.adobe.com/AdobeSVGViewerExtensions/3.0/"
   xmlns:i="http://ns.adobe.com/AdobeIllustrator/10.0/"
   xmlns:dc="http://purl.org/dc/elements/1.1/"
   xmlns:cc="http://web.resource.org/cc/"
   xmlns:rdf="http://www.w3.org/1999/02/22-rdf-syntax-ns#"
   xmlns:svg="http://www.w3.org/2000/svg"
   xmlns="http://www.w3.org/2000/svg"
   xmlns:sodipodi="http://sodipodi.sourceforge.net/DTD/sodipodi-0.dtd"
   xmlns:inkscape="http://www.inkscape.org/namespaces/inkscape"
   width="48px"
   height="48px"
   id="svg5327"
   sodipodi:version="0.32"
   inkscape:version="0.44"
   sodipodi:docbase="e:\dev_clean\src\houdini\support\icons\sop"
   sodipodi:docname="sculpt.svg">
  <defs
     id="defs5329">
    <radialGradient
       gradientUnits="userSpaceOnUse"
       fy="31.3706"
       fx="41.1519"
       r="8.6254"
       cy="31.3706"
       cx="41.1519"
       id="XMLID_125_"
       gradientTransform="matrix(1.031755,0,0,1.032126,-0.869938,6.753946)">
				<stop
   id="stop3516"
   style="stop-color:#8893A0"
   offset="0" />

				<stop
   id="stop3518"
   style="stop-color:#4B5359"
   offset="1" />

				<a:midPointStop
   style="stop-color:#8893A0"
   offset="0" />

				<a:midPointStop
   style="stop-color:#8893A0"
   offset="0.5" />

				<a:midPointStop
   style="stop-color:#4B5359"
   offset="1" />

			</radialGradient>
    <radialGradient
       gradientUnits="userSpaceOnUse"
       fy="5.1543"
       fx="-6.8257"
       r="47.3475"
       cy="5.1543"
       cx="-6.8257"
       id="XMLID_126_"
       gradientTransform="matrix(1.031755,0,0,1.032126,-0.869938,6.753945)">
				<stop
   id="stop3525"
   style="stop-color:#FFFFFF"
   offset="0" />

				<stop
   id="stop3527"
   style="stop-color:#97A6B3"
   offset="1" />

				<a:midPointStop
   style="stop-color:#FFFFFF"
   offset="0" />

				<a:midPointStop
   style="stop-color:#FFFFFF"
   offset="0.5" />

				<a:midPointStop
   style="stop-color:#97A6B3"
   offset="1" />

			</radialGradient>
    <radialGradient
       gradientUnits="userSpaceOnUse"
       fy="15.519"
       fx="-2.0581"
       r="32.9266"
       cy="15.519"
       cx="-2.0581"
       id="XMLID_127_"
       gradientTransform="matrix(1.031755,0,0,1.032126,-0.869938,6.753945)">
				<stop
   id="stop3532"
   style="stop-color:#F6F6F7"
   offset="0.0056" />

				<stop
   id="stop3534"
   style="stop-color:#8794A0"
   offset="1" />

				<a:midPointStop
   style="stop-color:#F6F6F7"
   offset="0.0056" />

				<a:midPointStop
   style="stop-color:#F6F6F7"
   offset="0.5" />

				<a:midPointStop
   style="stop-color:#8794A0"
   offset="1" />

			</radialGradient>
    <radialGradient
       gradientUnits="userSpaceOnUse"
       fy="16.1172"
       fx="5.1753"
       r="34.6451"
       cy="16.1172"
       cx="5.1753"
       id="XMLID_128_"
       gradientTransform="matrix(1.031755,0,0,1.032126,-0.869938,6.753945)">
				<stop
   id="stop3539"
   style="stop-color:#FFFFFF"
   offset="0" />

				<stop
   id="stop3541"
   style="stop-color:#8794A0"
   offset="1" />

				<a:midPointStop
   style="stop-color:#FFFFFF"
   offset="0" />

				<a:midPointStop
   style="stop-color:#FFFFFF"
   offset="0.5" />

				<a:midPointStop
   style="stop-color:#8794A0"
   offset="1" />

			</radialGradient>
    <linearGradient
       y2="25.3755"
       x2="29.7847"
       y1="17.2896"
       x1="7.6304"
       gradientUnits="userSpaceOnUse"
       id="XMLID_129_"
       gradientTransform="matrix(1.031755,0,0,1.032126,-0.869938,6.753945)">
				<stop
   id="stop3552"
   style="stop-color:#FFFFFF"
   offset="0.0056" />

				<stop
   id="stop3554"
   style="stop-color:#8794A0"
   offset="1" />

				<a:midPointStop
   style="stop-color:#FFFFFF"
   offset="0.0056" />

				<a:midPointStop
   style="stop-color:#FFFFFF"
   offset="0.5" />

				<a:midPointStop
   style="stop-color:#8794A0"
   offset="1" />

			</linearGradient>
  </defs>
  <sodipodi:namedview
     id="base"
     pagecolor="#ffffff"
     bordercolor="#666666"
     borderopacity="1.0"
     inkscape:pageopacity="0.0"
     inkscape:pageshadow="2"
     inkscape:zoom="15.75"
     inkscape:cx="24"
     inkscape:cy="24"
     inkscape:current-layer="layer1"
     showgrid="true"
     inkscape:grid-bbox="false"
     inkscape:document-units="px"
     inkscape:guide-bbox="false"
     inkscape:object-paths="false"
     inkscape:window-width="1209"
     inkscape:window-height="1052"
     inkscape:window-x="369"
     inkscape:window-y="13" />
  <metadata
     id="metadata5332">
    <rdf:RDF>
      <cc:Work
         rdf:about="">
        <dc:format>image/svg+xml</dc:format>
        <dc:type
           rdf:resource="http://purl.org/dc/dcmitype/StillImage" />
      </cc:Work>
    </rdf:RDF>
  </metadata>
  <g
     id="layer1"
     inkscape:label="Layer 1"
     inkscape:groupmode="layer">
    <path
       style="fill:url(#XMLID_125_);stroke:#192333;stroke-width:0.79999995"
       id="path3520"
       d="M 42.04797,33.16605 C 40.536449,32.441498 36.656019,30.141921 35.676883,29.978845 C 36.412524,29.651661 37.871426,29.140759 39.121913,29.732167 C 40.575656,30.419563 41.040977,32.542646 42.04797,33.16605 z "
       i:knockout="Off" />
    <path
       style="fill:url(#XMLID_126_)"
       id="path3529"
       d="M 25.909264,20.562758 C 22.996619,21.808534 16.755532,23.933681 14.487734,24.575663 C 13.829474,24.761446 13.222802,24.66133 12.589304,24.344467 C 11.956838,24.027605 10.666112,23.390783 9.1349872,23.895492 C 6.716553,24.692294 6.2863111,25.638753 5.7601159,26.928911 C 5.1482851,28.425493 4.6045501,28.401754 4.1567683,28.587537 C 3.7089866,28.77332 0.96039067,29.72494 0.80253212,29.750743 C 3.9782747,31.274161 16.652356,39.958468 21.197238,42.599679 C 23.90869,41.36732 24.794968,41.043233 26.742922,40.176247 C 31.5736,38.025297 31.790268,38.259589 32.118367,36.902344 C 32.446465,35.547162 32.356702,31.863505 35.848162,30.38034 C 39.186921,28.961167 40.244471,30.53103 41.200908,32.326929 C 41.820993,33.490135 42.63092,33.218686 43.125131,32.959622 C 43.761724,32.625214 46.74556,31.382534 47.197469,31.176109 C 45.515708,30.476327 25.909264,20.562758 25.909264,20.562758 z "
       i:knockout="Off" />
    <path
       style="fill:url(#XMLID_127_)"
       id="path3536"
       d="M 31.537488,37.961305 C 30.972087,38.414408 29.765965,38.829323 26.740858,40.176247 C 24.793936,41.043233 23.906627,41.366288 21.195174,42.599679 C 16.651324,39.959501 3.9762112,31.275193 0.80150037,29.751775 C 0.95935891,29.725972 3.7079548,28.77332 4.1557366,28.588569 C 4.6747094,28.371823 5.6682897,28.381112 6.3482164,28.713456 C 8.1816454,29.607277 12.632638,32.84196 14.728133,34.136246 C 16.823627,35.430532 21.382954,36.293389 25.140606,35.244749 C 28.89929,34.198174 30.070332,34.937176 31.055659,35.923888 C 31.555028,36.353253 31.874872,37.69192 31.537488,37.961305 z "
       i:knockout="Off" />
    <path
       style="fill:url(#XMLID_128_)"
       id="path3543"
       d="M 14.487734,24.575663 C 13.829474,24.761446 13.222802,24.66133 12.589304,24.344467 L 13.063911,24.520961 C 14.357732,25.014317 18.806661,28.10863 20.580248,28.158173 C 25.077669,28.280996 30.252953,26.677072 33.581395,27.539929 C 35.652128,28.077667 38.695806,29.389499 39.496448,29.637209 C 40.447726,30.027353 40.673681,31.339185 41.200908,32.327961 C 41.820993,33.491167 42.63092,33.219718 43.125131,32.960655 C 43.761724,32.626246 46.74556,31.383566 47.197469,31.177141 C 45.515708,30.476327 25.909264,20.562758 25.909264,20.562758 C 22.996619,21.807502 16.755532,23.933681 14.487734,24.575663"
       i:knockout="Off" />
    <path
       style="fill:none;stroke:#192333;stroke-width:0.79999995"
       id="path3545"
       d="M 25.909259,20.562759 C 22.996614,21.808535 16.755528,23.933683 14.487731,24.575665 C 13.829471,24.761448 13.222799,24.661332 12.589302,24.344469 C 11.956836,24.027606 10.66611,23.390785 9.1349854,23.895494 C 6.7165516,24.692296 6.2863098,25.638755 5.7601148,26.928913 C 5.148284,28.425495 4.6045492,28.401756 4.1567675,28.587539 C 3.7089858,28.773322 0.96039047,29.724942 0.80253195,29.750745 C 3.9782739,31.274163 16.652353,39.958471 21.197233,42.599682 C 23.908686,41.367323 24.794963,41.043236 26.742917,40.17625 C 31.573594,38.025299 31.790262,38.259592 32.11836,36.902346 C 32.446458,35.547165 32.356696,31.863507 35.848154,30.380342 C 39.186914,28.961169 40.244463,30.531032 41.200899,32.326932 C 41.820984,33.490138 42.630912,33.218688 43.125122,32.959625 C 43.761715,32.625216 46.745551,31.382536 47.197459,31.176111 C 45.515699,30.47633 25.909259,20.562759 25.909259,20.562759 z "
       i:knockout="Off" />
    <path
       style="fill:none;stroke:#4d5359;stroke-width:0.79999995;stroke-linecap:round"
       id="path3547"
       d="M 15.386389,24.948263 L 15.603058,25.075214 C 17.199183,26.004128 19.611426,27.408851 20.599847,27.436719 C 22.448752,27.487293 24.447262,27.23339 26.378707,26.987744 C 29.12008,26.638885 31.709785,26.309637 33.761946,26.841182 C 35.19299,27.212747 37.020228,27.92285 38.354287,28.439945 L 39.304534,28.815639 C 40.110334,29.154176 40.577719,29.799255 40.884151,30.251326 C 41.662094,31.398018 42.012891,32.590124 42.544244,32.380602"
       i:knockout="Off" />
    <path
       style="fill:none;stroke:#eaeff2;stroke-width:0.69999993;stroke-linecap:round"
       id="path3549"
       d="M 14.620827,25.339439 C 16.499653,26.423171 19.269915,28.121018 20.579212,28.157142 C 25.076632,28.279965 30.251915,26.676042 33.580357,27.538899 C 34.853543,27.869179 36.495065,28.492583 37.755869,28.981811"
       i:knockout="Off" />
    <path
       style="fill:url(#XMLID_129_)"
       id="path3556"
       d="M 6.6102822,26.307571 C 6.6102822,26.307571 7.0436194,25.511802 7.2540975,25.371432 C 8.7253804,26.493353 13.355898,28.979745 16.125129,30.183204 C 21.451049,32.49723 28.320476,29.124242 31.122723,29.762096 C 33.423537,30.286416 34.038463,30.959362 34.038463,30.959362 C 33.057264,31.87073 32.745674,32.685077 32.605355,33.036 C 28.610399,30.022192 24.327583,32.894598 20.960966,32.847121 C 15.98481,32.776936 8.5014895,27.499676 6.6102822,26.307571 z "
       i:knockout="Off" />
    <path
       style="fill:none;stroke:#6c7680;stroke-width:0.79999995"
       id="path3558"
       d="M 6.3471834,28.712426 C 8.180612,29.606247 12.631603,32.84093 14.727098,34.135216 C 16.822592,35.429502 21.381918,36.29236 25.139569,35.24372 C 28.898253,34.197144 30.069295,34.936146 31.054621,35.922859"
       i:knockout="Off" />
    <path
       i:knockout="Off"
       d="M 35.41972,28.90509 C 34.909305,30.725172 32.2592,32.083859 29.499864,31.938904 C 26.739334,31.793887 24.918074,30.200308 25.427295,28.380163 C 25.936515,26.560018 28.587816,25.201394 31.347151,25.346349 C 34.106485,25.491304 35.928942,27.084945 35.41972,28.90509 z "
       id="path3562"
       style="fill:none;stroke:white;stroke-width:1.9999994" />
    <path
       i:knockout="Off"
       d="M 35.41972,28.90509 C 34.909305,30.725172 32.2592,32.083859 29.499864,31.938904 C 26.739334,31.793887 24.918074,30.200308 25.427295,28.380163 C 25.936515,26.560018 28.587816,25.201394 31.347151,25.346349 C 34.106485,25.491304 35.928942,27.084945 35.41972,28.90509 z "
       id="path3568"
       style="fill:none;stroke:#ed2728;stroke-width:0.99999976;stroke-miterlimit:4;stroke-dasharray:none;stroke-dashoffset:0" />
    <path
       style="fill:none;fill-opacity:0.75;fill-rule:evenodd;stroke:white;stroke-width:3;stroke-linecap:square;stroke-linejoin:miter;stroke-miterlimit:4;stroke-dasharray:none;stroke-dashoffset:0;stroke-opacity:1"
       d="M 30.260875,27.276559 L 29.167695,17.167885"
       id="path6266"
       sodipodi:nodetypes="cc" />
    <path
       style="fill:none;fill-opacity:0.75;fill-rule:evenodd;stroke:#ef2929;stroke-width:0.99999976;stroke-linecap:butt;stroke-linejoin:miter;stroke-miterlimit:4;stroke-dasharray:none;stroke-dashoffset:0;stroke-opacity:1"
       d="M 30.297883,27.968458 L 29.014227,16.589943"
       id="path6252"
       sodipodi:nodetypes="cc" />
  </g>
</svg>
