<?xml version="1.0" encoding="UTF-8" standalone="no"?>
<!-- Created with Inkscape (http://www.inkscape.org/) -->

<svg
   xmlns:dc="http://purl.org/dc/elements/1.1/"
   xmlns:cc="http://creativecommons.org/ns#"
   xmlns:rdf="http://www.w3.org/1999/02/22-rdf-syntax-ns#"
   xmlns:svg="http://www.w3.org/2000/svg"
   xmlns="http://www.w3.org/2000/svg"
   xmlns:xlink="http://www.w3.org/1999/xlink"
   xmlns:sodipodi="http://sodipodi.sourceforge.net/DTD/sodipodi-0.dtd"
   xmlns:inkscape="http://www.inkscape.org/namespaces/inkscape"
   width="48px"
   height="48px"
   id="svg27536"
   version="1.1"
   inkscape:version="0.48.4 r9939"
   sodipodi:docname="testgeometry_rubbertoy.svg">
  <defs
     id="defs27538">
    <linearGradient
       id="linearGradient28397">
      <stop
         style="stop-color:#0f5eea;stop-opacity:1;"
         offset="0"
         id="stop28399" />
      <stop
         style="stop-color:#0b44a9;stop-opacity:1;"
         offset="1"
         id="stop28401" />
    </linearGradient>
    <radialGradient
       inkscape:collect="always"
       xlink:href="#linearGradient28397"
       id="radialGradient28403"
       cx="23.999163"
       cy="25.087405"
       fx="23.999163"
       fy="25.087405"
       r="23.406189"
       gradientTransform="matrix(1,0,0,0.86562064,0,3.3712295)"
       gradientUnits="userSpaceOnUse" />
  </defs>
  <sodipodi:namedview
     id="base"
     pagecolor="#ffffff"
     bordercolor="#666666"
     borderopacity="1.0"
     inkscape:pageopacity="0.0"
     inkscape:pageshadow="2"
     inkscape:zoom="19.79899"
     inkscape:cx="18.3684"
     inkscape:cy="28.695107"
     inkscape:current-layer="layer1"
     showgrid="true"
     inkscape:grid-bbox="true"
     inkscape:document-units="px"
     inkscape:window-width="2560"
     inkscape:window-height="1496"
     inkscape:window-x="-8"
     inkscape:window-y="-8"
     inkscape:window-maximized="1" />
  <metadata
     id="metadata27541">
    <rdf:RDF>
      <cc:Work
         rdf:about="">
        <dc:format>image/svg+xml</dc:format>
        <dc:type
           rdf:resource="http://purl.org/dc/dcmitype/StillImage" />
      </cc:Work>
    </rdf:RDF>
  </metadata>
  <g
     id="layer1"
     inkscape:label="Layer 1"
     inkscape:groupmode="layer">
    <path
       inkscape:connector-curvature="0"
       id="path27585"
       d="M 42.076204,45.358273 C 37.51824,44.427952 33.130249,42.042622 28.382572,42.46445 c -3.10925,0.87269 -6.3427,2.018654 -9.6049,1.274894 C 14.226808,43.205456 9.7701851,40.940401 7.0703033,37.171657 4.9543394,35.952114 1.7559856,36.729953 0.39425192,34.309617 -0.66708251,31.541816 2.6585966,29.850452 4.8118856,29.14549 7.2582406,28.887787 10.905397,25.538539 7.8700262,23.563238 5.6435793,21.671469 5.273753,18.274912 6.8345051,15.854112 c 0.9713547,-2.439667 4.1448429,-1.921584 5.2996709,-4.104934 1.094245,-1.681912 1.544062,-3.9469567 3.425416,-4.9886864 1.018674,-1.7434211 2.99756,-3.9536064 4.767314,-2.2470073 3.021411,-0.9266893 2.273481,2.8593197 3.934517,3.9388285 2.167132,1.4542755 4.024665,4.7484642 1.477391,6.7755132 -1.533839,0.978511 -3.416409,4.451273 -0.464887,4.563159 3.03907,-0.273348 5.405422,-2.495858 7.638538,-4.348497 2.833383,-1.702146 5.445948,1.82133 4.374503,4.472509 0.375113,2.694517 0.704025,5.562931 1.768155,8.048073 1.646709,2.228973 4.624385,0.756247 6.848288,1.600469 3.330973,0.856152 2.050682,5.293217 -0.676538,6.068809 -1.241135,0.539641 -5.683545,1.152379 -3.59383,3.142108 2.091241,1.33072 5.971173,2.822205 5.21762,5.86851 -1.098063,1.514071 -3.228676,1.036237 -4.774459,0.715307 z M 18.798246,11.331208 c -0.374212,-2.1037686 -1.071139,1.44234 0,0 z"
       style="fill:#9ea8d3" />
    <path
       inkscape:connector-curvature="0"
       id="path27583"
       d="M 42.428901,45.328348 C 38.435282,44.237925 34.414676,43.242196 30.455066,42.030492 26.572091,42.549577 22.802222,44.594035 18.80796,43.682436 14.179194,43.132212 9.7071795,40.762589 6.9287127,36.976353 4.9109204,35.839053 1.910705,36.666662 0.5312037,34.457328 -0.58817865,31.753443 2.6401654,29.927654 4.7994566,29.26905 6.9581731,28.91527 10.560293,26.510707 8.6693091,24.171891 6.4575526,22.484898 5.197447,19.580572 6.4957387,16.925372 c 0.851204,-3.272363 5.1046493,-2.8197 6.2097393,-5.864854 0.769874,-2.739121 3.292437,-3.7259094 4.665576,-6.0572074 1.368199,-1.6602625 2.663523,1.1488811 4.434762,-0.078195 1.689214,0.1083478 0.161925,2.8447468 1.975008,3.5230025 1.438843,1.2523794 3.64952,2.817482 2.730161,5.012304 -0.84234,2.011382 -5.362668,4.938551 -2.073598,6.767455 2.27165,0.376417 3.977706,-1.551934 5.965293,-2.284991 1.427395,-1.885917 5.48656,-4.068475 6.426047,-0.645215 0.506868,2.535809 0.351777,5.154921 0.825188,7.697672 0.257853,2.44083 2.329532,5.174007 5.032521,4.485784 2.035846,-0.162991 5.203458,0.488641 5.065868,3.090245 -0.550637,2.992742 -4.139988,3.061851 -6.241518,4.434056 -1.804086,2.209493 2.635109,3.095916 3.905141,4.203809 2.626653,1.640376 0.488977,5.64324 -2.300408,4.283654 l -0.342829,-0.0838 -0.343789,-0.08074 0,0 z m -24.592428,-32.0066 c -0.918788,-1.993863 -1.622379,1.10315 0,0 z m 1.031645,-0.956558 c 2.250658,-1.572842 -3.269395,-2.348467 -1.134932,-0.388577 0.08232,0.451424 0.864448,1.003275 1.134932,0.388577 z m -3.722674,-1.885957 c 0.204109,-1.9941727 -1.177303,1.173033 0,0 z"
       style="fill:#55c6d4" />
    <path
       inkscape:connector-curvature="0"
       id="path27581"
       d="M 42.428901,45.328348 C 38.435282,44.237925 34.414676,43.242196 30.455066,42.030492 26.572091,42.549577 22.802222,44.594035 18.80796,43.682436 14.179194,43.132212 9.7071795,40.762589 6.9287127,36.976353 4.9109204,35.839053 1.910705,36.666662 0.5312037,34.457328 -0.58817865,31.753443 2.6401654,29.927654 4.7994566,29.26905 6.9581731,28.91527 10.560293,26.510707 8.6693091,24.171891 6.4575526,22.484898 5.197447,19.580572 6.4957387,16.925372 c 0.851204,-3.272363 5.1046493,-2.8197 6.2097393,-5.864854 0.769874,-2.739121 3.292437,-3.7259094 4.665576,-6.0572074 1.368199,-1.6602625 2.663523,1.1488811 4.434762,-0.078195 1.689214,0.1083478 0.161925,2.8447468 1.975008,3.5230025 1.438843,1.2523794 3.64952,2.817482 2.730161,5.012304 -0.84234,2.011382 -5.362668,4.938551 -2.073598,6.767455 2.27165,0.376417 3.977706,-1.551934 5.965293,-2.284991 1.427395,-1.885917 5.48656,-4.068475 6.426047,-0.645215 0.506868,2.535809 0.351777,5.154921 0.825188,7.697672 0.257853,2.44083 2.329532,5.174007 5.032521,4.485784 2.035846,-0.162991 5.203458,0.488641 5.065868,3.090245 -0.550637,2.992742 -4.139988,3.061851 -6.241518,4.434056 -1.804086,2.209493 2.635109,3.095916 3.905141,4.203809 2.626653,1.640376 0.488977,5.64324 -2.300408,4.283654 l -0.342829,-0.0838 -0.343789,-0.08074 0,0 z m -24.74635,-9.383854 c -1.372369,-1.202714 -0.591579,1.786414 0,0 z m -0.9892,-2.244298 c -0.401515,-2.103 0.07067,-4.646155 -1.593045,-6.286904 -2.911806,-1.482465 -2.037315,3.7385 -0.661659,5.049998 0.55417,0.651691 1.236995,1.767845 2.254704,1.236906 z M 15.599559,21.789649 c -0.268465,-2.186548 -3.384066,1.249054 -0.76453,0.328831 l 0.400693,-0.122149 0.363837,-0.206682 z m 0.394113,-1.780439 c 2.570749,-2.728735 -4.909386,-4.109424 -3.110644,-0.592041 0.643822,0.98109 2.170068,1.403042 3.110644,0.592041 z M 13.89694,19.194545 c -0.711751,-2.858254 3.20514,1.192741 0,0 z m 3.939533,-5.872797 c -0.918788,-1.993863 -1.622379,1.10315 0,0 z m 1.031645,-0.956558 c 2.250659,-1.572841 -3.269395,-2.348468 -1.134932,-0.388577 0.08232,0.451424 0.864448,1.003276 1.134932,0.388577 z m -3.722674,-1.885957 c 0.204109,-1.9941727 -1.177303,1.173033 0,0 z"
       style="fill:#9ea0a6" />
    <path
       inkscape:connector-curvature="0"
       id="path27579"
       d="M 41.841073,44.921651 C 37.976657,43.77631 34.013152,42.984978 30.183989,41.717478 26.772387,42.275865 23.510272,44.082891 19.9661,43.508962 14.964567,43.258361 9.9266197,40.884789 7.0717216,36.678332 4.8840961,35.655322 0.48160092,36.470003 0.56630498,32.974643 1.1762062,30.287642 4.2434331,29.7098 6.4311965,28.824417 8.2985908,28.161066 10.466267,25.881077 8.9432851,23.954878 7.1749673,22.575947 5.7458266,20.489917 6.3519328,18.137695 6.6246366,15.11425 9.5580653,13.995605 11.784537,12.65004 c 2.033445,-1.824647 2.345898,-4.8709382 4.665413,-6.5866209 1.12397,-1.5294157 2.087635,-2.1571165 3.649494,-0.9936854 1.592056,0.066638 2.924885,-0.1946945 2.743471,1.9028161 0.444996,2.4318154 3.945778,2.5882399 3.861331,5.4112702 0.432917,2.609452 -3.156798,2.888691 -3.312916,5.372396 -0.915649,2.932682 2.550925,2.877425 4.169501,1.661667 2.091094,-0.870954 3.94555,-2.204682 5.607626,-3.724008 3.267925,-1.602477 4.612383,2.93668 4.041837,5.403563 0.446174,2.428901 0.24891,5.2233 1.847729,7.252422 1.897732,2.329721 5.12545,0.282299 7.43751,1.7162 2.786074,1.754025 0.123907,5.516596 -2.435212,5.768376 -2.32862,-0.745368 -4.885266,2.980092 -1.725436,3.568376 1.783323,1.024114 4.436018,2.280794 4.208983,4.720886 -0.450816,2.159422 -3.291239,1.113772 -4.702795,0.797953 z M 17.682551,35.944494 c -1.372369,-1.202714 -0.591579,1.786414 0,0 z m -0.9892,-2.244298 c -0.401515,-2.103 0.07067,-4.646155 -1.593045,-6.286904 -2.911806,-1.482465 -2.037315,3.7385 -0.661659,5.049998 0.55417,0.651691 1.236995,1.767845 2.254704,1.236906 z M 15.599559,21.789649 c -0.268465,-2.186548 -3.384066,1.249054 -0.76453,0.328831 l 0.400693,-0.122149 0.363837,-0.206682 z m 0.394113,-1.780439 c 2.570749,-2.728735 -4.909386,-4.109424 -3.110644,-0.592041 0.643822,0.98109 2.170068,1.403042 3.110644,0.592041 z M 13.89694,19.194545 c -0.711751,-2.858254 3.20514,1.192741 0,0 z m 3.939533,-5.872797 c -0.918788,-1.993863 -1.622379,1.10315 0,0 z m 1.031645,-0.956558 c 2.250659,-1.572841 -3.269395,-2.348468 -1.134932,-0.388577 0.08232,0.451424 0.864448,1.003276 1.134932,0.388577 z M 15.16972,10.43731 c -0.50217,-2.7548876 -1.294315,1.673458 0,0 z"
       style="fill:#4eacca" />
    <path
       inkscape:connector-curvature="0"
       id="path27577"
       d="M 41.841073,44.921651 C 37.976657,43.77631 34.013152,42.984978 30.183989,41.717478 26.772387,42.275865 23.510272,44.082891 19.9661,43.508962 14.964567,43.258361 9.9266197,40.884789 7.0717216,36.678332 4.9379883,35.640552 0.76858635,36.507398 0.56166491,33.224251 0.84424915,30.736706 3.6113149,29.799121 5.6437702,29.094314 7.7726049,28.735072 10.255974,26.436221 9.1578016,24.151881 7.6623574,22.838311 5.9776258,21.284162 6.242574,19.044127 6.2483713,16.817299 7.6573489,14.752105 9.7052019,13.893514 12.489132,12.863936 13.366662,10.09033 14.889159,7.8854308 16.331491,6.4153305 17.965245,2.6561284 20.08004,5.125 c 1.13767,0.2868761 2.635971,-0.9205844 2.570612,1.1403426 -0.608451,2.5341121 2.311758,2.4037635 3.18783,4.1828684 1.527205,2.063291 0.262457,4.676807 -1.806174,5.724982 -2.096116,2.119776 0.11698,5.454373 2.710519,3.676958 2.809031,-0.83967 4.634778,-3.480459 7.361957,-4.415496 3.546957,-0.108686 2.974114,4.438685 3.227945,6.837281 0.518289,2.371104 0.236901,6.040259 3.01542,6.981864 2.277075,0.589183 5.182746,-0.470934 6.901153,1.623667 1.541332,2.206803 -0.998424,4.513064 -3.139388,4.836556 -1.872981,0.103963 -5.018749,2.090199 -2.191901,3.572463 2.082271,0.981453 5.960336,2.786651 4.130864,5.656351 -1.138265,1.360633 -2.860359,0.225241 -4.207804,-0.02118 z M 25.25035,40.314453 c -2.590046,-1.441498 -5.341984,-2.614518 -7.737409,-4.383618 -2.032936,-1.127723 -3.541827,2.177088 -0.852271,2.414796 2.701165,1.086577 5.618402,2.397068 8.58968,1.968822 z m -9.465331,-5.955239 c 1.839253,-2.197699 0.264006,-5.032178 -0.548735,-7.310607 -1.597403,-3.46547 -5.8460473,2.281025 -2.301973,3.322405 0.853002,1.327322 0.2456,4.922168 2.850708,3.988202 z m 0.0059,-11.49991 c 2.467177,-1.589121 0.821598,-7.187738 -2.309756,-5.751934 -1.598047,1.380213 0.630784,3.690162 -1.529758,4.454094 -1.44754,2.535707 2.727004,1.874061 3.839514,1.29784 z M 14.02514,19.113867 c -0.791904,-2.008574 2.712303,0.642742 0.348877,0.170183 L 14.02514,19.113867 z m 3.811385,-5.792119 c -0.918788,-1.993863 -1.622379,1.10315 0,0 z m 1.02177,-0.955343 c 2.207516,-1.735043 -3.417938,-2.294187 -1.142201,-0.236968 0.15415,0.409413 0.916993,0.784362 1.142201,0.236968 z M 15.169772,10.43731 c -0.50217,-2.7548876 -1.294315,1.673458 0,0 z"
       style="fill:#2ba3d1" />
    <path
       inkscape:connector-curvature="0"
       id="path27575"
       d="M 41.841073,44.921651 C 37.976657,43.77631 34.013152,42.984978 30.183989,41.717478 26.772387,42.275865 23.510272,44.082891 19.9661,43.508962 14.964567,43.258361 9.9266197,40.884789 7.0717216,36.678332 4.9379883,35.640552 0.76858635,36.507398 0.56166491,33.224251 0.84424915,30.736706 3.6113149,29.799121 5.6437702,29.094314 7.7726049,28.735072 10.255974,26.436221 9.1578016,24.151881 7.6623574,22.838311 5.9776258,21.284162 6.242574,19.044127 6.2483713,16.817299 7.6573489,14.752105 9.7052019,13.893514 12.489132,12.863936 13.366662,10.09033 14.889159,7.8854308 16.331491,6.4153305 17.965245,2.6561284 20.08004,5.125 c 1.13767,0.2868761 2.635971,-0.9205844 2.570612,1.1403426 -0.608451,2.5341121 2.311758,2.4037635 3.18783,4.1828684 1.527205,2.063291 0.262457,4.676807 -1.806174,5.724982 -2.096116,2.119776 0.11698,5.454373 2.710519,3.676958 2.809031,-0.83967 4.634778,-3.480459 7.361957,-4.415496 3.546957,-0.108686 2.974114,4.438685 3.227945,6.837281 0.518289,2.371104 0.236901,6.040259 3.01542,6.981864 2.277075,0.589183 5.182746,-0.470934 6.901153,1.623667 1.541332,2.206803 -0.998424,4.513064 -3.139388,4.836556 -1.872981,0.103963 -5.018749,2.090199 -2.191901,3.572463 2.082271,0.981453 5.960336,2.786651 4.130864,5.656351 -1.138265,1.360633 -2.860359,0.225241 -4.207804,-0.02118 z M 24.852866,40.442242 c 2.912671,-1.675898 -1.091386,-4.611795 -3.178351,-4.118518 -1.622692,-1.146571 -3.935462,-2.032357 -5.831771,-1.051604 -2.548655,2.45378 2.11394,3.852189 4.016991,4.156213 1.566965,0.681311 3.258741,1.204101 4.993131,1.013909 z m -7.62654,-6.122646 c 2.166057,-2.215698 -0.557538,-5.225579 0.522434,-7.741702 -0.48417,-2.221936 -3.473779,-2.134655 -4.84931,-0.828471 -1.728838,1.246446 -0.985307,3.496301 -0.457671,5.166906 0.533411,1.892257 2.123807,4.271368 4.401198,3.565903 0.127783,-0.05422 0.255567,-0.10842 0.383349,-0.162636 z M 15.788911,22.860389 c 3.010614,-1.059291 2.006867,-6.334275 -1.153321,-6.295657 -2.161838,0.773913 -5.2611989,4.265897 -3.287516,6.289561 1.348267,0.785889 3.040773,0.479142 4.440837,0.0061 z m -1.763823,-3.746522 c -0.791904,-2.008574 2.712303,0.642742 0.348877,0.170183 l -0.348877,-0.170183 z m 3.811385,-5.792119 c -0.918788,-1.993863 -1.622379,1.10315 0,0 z m 1.02177,-0.955343 c 2.207516,-1.735043 -3.417938,-2.294187 -1.142201,-0.236968 0.154149,0.409413 0.916993,0.784362 1.142201,0.236968 z M 15.16972,10.43731 c -0.50217,-2.7548876 -1.294315,1.673458 0,0 z"
       style="fill:#5868cd" />
    <path
       inkscape:connector-curvature="0"
       id="path27573"
       d="M 41.253246,44.804229 C 37.553466,43.575043 33.66404,42.996498 30.012249,41.612078 24.769488,43.583173 18.668851,44.540675 13.458867,41.940025 10.865813,40.845251 8.7489939,38.913046 6.9839434,36.77583 5.0459326,35.394451 0.83257968,36.618795 0.56416474,33.39056 0.75086318,30.861697 3.5861199,30.114543 5.5354164,29.275652 7.9155626,28.845688 11.408462,25.521969 8.2899106,23.645277 5.9628934,21.46764 5.3568848,16.998976 8.1966757,14.984384 10.380285,13.908662 12.801389,12.796321 13.380718,10.184009 14.638947,8.0038963 16.827079,6.5857514 18.228,4.5153713 c 1.121006,0.8734505 2.784643,1.522687 3.73658,1.0912404 0.481162,1.7564861 0.991402,3.7607016 3.0494,3.9348218 1.899372,1.8186405 1.351485,5.5253545 -1.15687,6.5115545 -2.079009,1.838697 -0.119935,6.239465 2.528293,4.044458 3.065256,-0.711183 5.054153,-3.580348 8.020682,-4.437595 3.259517,0.02083 1.989071,4.1174 2.587314,6.177082 0.790373,2.452245 0.01837,6.082455 2.753021,7.390422 2.394763,1.287072 6.228813,-0.758467 7.499759,2.397145 0.976351,3.470307 -3.395278,3.988423 -5.660949,4.852054 -2.738062,1.792463 0.887696,3.463235 2.534852,4.186671 2.557883,0.535432 3.134986,5.265348 -0.140047,4.691151 -0.928112,-0.07541 -1.821691,-0.350429 -2.726789,-0.550147 z m -16.40038,-4.361987 c 2.912671,-1.675898 -1.091386,-4.611795 -3.178351,-4.118518 -1.622692,-1.146571 -3.935462,-2.032357 -5.831771,-1.051604 -2.548655,2.45378 2.11394,3.852189 4.016991,4.156213 1.566965,0.681311 3.258741,1.204101 4.993131,1.013909 z m -7.62654,-6.122646 c 2.166057,-2.215698 -0.557538,-5.225579 0.522434,-7.741702 -0.48417,-2.221936 -3.473779,-2.134655 -4.84931,-0.828471 -1.728838,1.246446 -0.985307,3.496301 -0.457671,5.166906 0.533411,1.892257 2.123807,4.271368 4.401198,3.565903 0.127783,-0.05422 0.255567,-0.10842 0.383349,-0.162636 z M 15.788911,22.860389 c 3.010614,-1.059291 2.006867,-6.334275 -1.153321,-6.295657 -2.161838,0.773913 -5.2611989,4.265897 -3.287516,6.289561 1.348267,0.785889 3.040773,0.479142 4.440837,0.0061 z m -1.763823,-3.746522 c -0.791904,-2.008574 2.712303,0.642742 0.348877,0.170183 l -0.348877,-0.170183 z m 4.462597,-5.760702 c 3.4097,-1.372625 -2.855385,-4.8836758 -2.095171,-0.949129 -0.484036,1.285345 1.380965,1.879371 2.095171,0.949129 z M 14.3217,12.289406 c 2.486852,0.192567 -0.359436,-4.2527728 -0.355838,-1.292547 -0.07535,0.350429 -0.669817,2.17363 0.355838,1.292547 z"
       style="fill:#3395ac" />
    <path
       inkscape:connector-curvature="0"
       id="path27571"
       d="M 41.253246,44.802953 C 37.569517,43.627349 33.756461,42.912296 30.079561,41.713365 26.373912,42.44157 22.703368,44.266612 18.848613,43.405425 14.432694,42.916759 10.01203,40.802767 7.4760662,37.051734 5.516179,35.250531 0.92174469,36.930972 0.59297398,33.390245 0.8803567,30.505699 4.2330558,29.729551 6.4841342,28.869539 8.7737067,28.283099 10.875665,25.180071 8.2913687,23.611951 6.6145317,21.758373 5.6954258,18.89182 7.0645119,16.602913 c 1.2463404,-2.749068 5.4290571,-2.824411 6.0547661,-6.007285 1.646621,-2.0685452 3.302731,-5.1084343 5.662715,-5.9747774 0.756428,1.0822761 1.700978,1.3416543 2.676006,0.5370979 1.787728,0.6745205 0.550506,3.9154489 3.100133,4.1768355 2.716655,1.72048 1.776915,5.080569 -0.432524,6.702798 -2.130667,1.759665 -1.392428,5.747972 1.876053,4.318774 2.622193,-0.99962 4.893284,-2.681949 7.158807,-4.296272 3.098481,-1.775691 4.076705,2.435618 3.725939,4.691416 0.542094,2.639533 0.391342,5.718372 2.032531,7.958749 2.132851,2.181934 5.603858,-0.250706 7.710955,1.854663 1.855308,2.086636 -0.03066,5.112694 -2.6247,5.128959 -2.008707,-0.01329 -5.071235,2.238021 -2.150396,3.6366 1.999,0.864079 6.366461,3.684669 3.553133,5.844501 -1.378196,0.409647 -2.782921,-0.253765 -4.154684,-0.372019 z M 26.993777,41.455919 c 2.335151,-1.862399 -1.943401,-3.97565 -3.67199,-4.41292 -2.307021,-0.954608 -4.777232,-2.999123 -7.37817,-1.768976 -1.998901,1.538812 -5.229191,-0.57874 -6.4162077,-0.813639 2.1060337,3.337509 5.8619087,5.215128 9.4528497,6.533501 2.564065,0.854187 5.375844,1.186834 8.013518,0.462034 z m -10.120378,-6.85422 c 2.272839,-1.952766 0.694616,-5.071 0.326837,-7.494458 -0.338312,-3.099569 1.6049,-6.482084 -0.356588,-9.330737 -1.672033,-2.092279 -4.852158,-0.683851 -4.805736,1.541724 -1.884641,0.367733 -5.1599207,2.195055 -2.380942,3.979989 1.146088,0.821806 4.40108,0.413658 4.295133,1.65429 -3.294913,0.339073 -3.176639,4.445815 -2.638111,6.878353 0.477678,2.461001 3.27275,4.140964 5.559407,2.770839 z M 14.082966,18.703775 c 0.567266,-2.221304 1.400806,1.369546 0,0 z m 4.404719,-5.35061 c 3.4097,-1.372625 -2.855385,-4.8836758 -2.095171,-0.949129 -0.484036,1.285345 1.380965,1.879371 2.095171,0.949129 z M 14.3217,12.289406 c 2.486852,0.192567 -0.359436,-4.2527728 -0.355838,-1.292547 -0.07535,0.350429 -0.669817,2.17363 0.355838,1.292547 z"
       style="fill:#1067da" />
    <path
       inkscape:connector-curvature="0"
       id="path27569"
       d="M 41.253246,44.802953 C 37.569517,43.627349 33.756461,42.912296 30.079561,41.713365 26.373912,42.44157 22.703368,44.266612 18.848613,43.405425 14.432694,42.916759 10.01203,40.802767 7.4760662,37.051734 5.516179,35.250531 0.92174469,36.930972 0.59297398,33.390245 0.87574234,30.528201 4.1957583,29.73127 6.4396789,28.89122 8.6229759,28.311406 10.927563,25.322861 8.4416497,23.637851 5.617528,21.454267 5.7944141,16.671162 8.7336827,14.671925 11.323756,13.857727 12.794649,11.67396 13.93056,9.3286719 c 1.857847,-1.1280671 2.657864,-4.7893864 4.96282,-4.4841403 1.051435,2.0189175 3.876869,-1.1166528 3.533017,1.7858199 -0.130384,1.9228431 -1.973708,6.1778455 -3.91726,3.0556493 -2.792778,0.061831 -2.682837,5.0214332 0.0048,5.3492722 2.707774,0.872065 3.466991,-4.09713 6.18535,-2.199698 1.183226,0.167957 0.137201,-3.0685049 1.311646,-0.978366 1.141498,2.968599 -3.518127,4.094954 -3.030649,7.068322 1.14377,3.029726 5.001015,0.827545 6.772021,-0.500559 1.442624,-0.511207 2.99845,-2.887988 4.39432,-2.212276 -1.024628,1.438338 -1.048151,3.469804 1.215536,3.373757 2.345951,0.290028 1.465128,3.278863 1.978661,4.960451 0.132951,2.228719 1.159883,5.08938 3.810934,5.163964 2.028331,0.188033 4.666933,-0.532555 6.01556,1.468748 1.141705,2.629852 -2.069665,4.806387 -4.405506,4.749672 -2.16314,0.07545 -3.566423,3.121801 -0.734653,3.565686 1.88687,0.862398 4.487364,2.150451 4.178409,4.623518 -0.565287,2.311488 -3.441078,0.648353 -4.95226,0.684461 z M 26.836997,41.500797 c 2.544272,0.692953 -0.436436,-2.583906 1.417458,-2.778135 1.4122,-0.984907 -1.267679,-2.385649 0.437348,-2.210194 1.621055,-0.966496 4.357819,-2.116977 4.559481,-4.039977 -1.153529,-2.232219 -3.66928,-3.058452 -6.008677,-3.353275 -3.148622,-1.059408 -4.724392,2.064738 -6.48252,3.934249 -2.549977,1.206452 -1.2475,-2.179267 -0.264981,-3.178954 1.43265,-1.963597 -0.902651,-3.764166 -0.465658,-5.818592 0.136007,-2.012659 1.420888,-3.891461 1.06722,-5.922687 -1.184892,-2.335377 -3.724765,1.824558 -4.387139,-1.333857 -0.822393,-1.977826 -3.858777,-3.87403 -5.079474,-1.221129 -0.545163,2.528718 -4.6632354,4.443211 -2.6235168,6.975026 1.1719088,1.779079 4.1074978,0.963975 5.1699118,2.23222 -2.757331,0.512797 -3.37646,3.057004 -2.918716,5.53562 -0.03324,2.36548 0.787533,4.812019 3.55624,4.817369 -0.07993,1.747336 -3.654947,0.221916 -4.728365,-0.751544 -1.77479,-0.616033 0.834689,2.067911 1.510181,2.561697 3.839601,2.81388 8.413377,5.28738 13.33138,4.872473 0.643906,-0.05445 1.28368,-0.160214 1.909827,-0.32031 z m 4.413518,-8.015494 c 0.19255,-1.082723 0.215746,0.926119 0,0 z M 25.6032,30.126543 c 0.751215,-0.75191 0.494486,0.982699 0,0 z m -8.245656,-7.209832 c -1.283276,-1.609722 3.007585,-2.500875 0.830208,-0.440154 -0.135953,0.165985 -1.151922,1.45392 -0.830208,0.440154 z m -3.274578,-4.212936 c 0.567266,-2.221304 1.400806,1.369546 0,0 z m 1.423447,-2.37147 c 0.506396,-0.917914 0.454521,0.903514 0,0 z m 19.163168,14.150908 c -0.214981,-2.328991 -2.145467,0.318227 0,0 z m 0.470262,-9.127796 c -0.265483,-1.809128 -3.150723,0.488185 -0.453395,0.16522 l 0.242848,-0.03829 0.210547,-0.126929 z m -20.73114,-9.162752 c 2.641928,-0.28508 -1.221655,-3.7802558 -0.608743,-0.819349 0.08567,0.40632 -0.248217,1.91792 0.608743,0.819349 z m 4.619049,1.298238 c -0.0141,-0.945703 0.374716,1.027132 0,0 z"
       style="fill:url(#radialGradient28403);fill-opacity:1" />
    <path
       inkscape:connector-curvature="0"
       id="path27567"
       d="M 41.253246,44.802953 C 37.569517,43.627349 33.756461,42.912296 30.079561,41.713365 26.373912,42.44157 22.703368,44.266612 18.848613,43.405425 14.432694,42.916759 10.01203,40.802767 7.4760662,37.051734 5.516179,35.250531 0.92174469,36.930972 0.59297398,33.390245 0.87528665,30.528626 4.1944521,29.732803 6.4370246,28.89084 8.6475848,28.307151 10.93041,25.296612 8.4144956,23.609664 5.4846823,21.354166 5.9579551,16.422109 9.0277477,14.504831 c 0.569869,-0.119294 -1.1915805,2.569715 -0.9198336,3.781345 -0.1032843,1.776243 0.2791828,3.832588 1.677272,5.031705 0.9940469,0.841996 4.4715869,0.310074 4.1309929,1.516765 -2.597431,0.606478 -3.122951,3.733143 -2.748434,5.981921 -0.269321,2.591672 2.026473,4.208554 4.340404,4.593015 -1.943429,1.916329 -5.231096,-1.480557 -6.0050851,-0.955017 1.1293451,2.413587 3.7681331,3.628585 5.9302751,4.96033 3.554232,1.971351 7.989497,3.333256 11.938333,1.778937 2.504029,-1.447079 2.46151,-5.15331 5.277871,-6.25804 2.73359,-0.193087 4.744978,-2.172525 5.780057,-4.635241 2.029326,-2.146234 5.881927,-0.187639 8.364328,0.426614 1.994445,2.550291 -1.623485,5.345453 -4.126504,5.185995 -2.050987,0.187915 -3.496513,2.998802 -0.819484,3.526797 2.167616,0.710604 6.072509,3.689932 3.158597,5.788237 -1.257067,0.432413 -2.500959,-0.373553 -3.753291,-0.425241 z M 8.7084022,30.947473 c -1.1462698,0.431058 0.909401,0.605599 0,0 z m 17.4964658,8.636956 c 0.660537,-0.813143 0.30473,0.929673 0,0 z m -6.818795,-6.702916 c 0.38392,-1.809425 1.846908,0.261687 0,0 z m 2.116178,-3.038131 c -0.745003,-1.514523 2.545892,-3.913167 1.461765,-1.060713 -0.256121,0.565928 -0.786385,1.12494 -1.461765,1.060713 z M 17.37583,22.916711 c -0.742911,-1.47279 2.157342,-2.272617 0.496112,-0.429884 -0.07173,0.116795 -0.684317,1.210024 -0.496112,0.429884 z m 5.085508,-0.590283 c -0.327571,-1.207342 0.443961,0.201348 0,0 z m 0.124119,-0.719263 c 0.5065,-0.979749 3.900077,-1.524757 3.259847,-1.13298 -1.049386,0.474508 -2.137283,0.870723 -3.259847,1.13298 z m -8.502491,-2.90339 c 0.567266,-2.221304 1.400806,1.369546 0,0 z m 15.413735,0.150839 c 0.300488,-0.994502 1.015188,0.509774 0,0 z m -6.191024,-1.109797 c -0.244712,-1.493421 0.499605,0.559908 0,0 z m 8.17546,-0.29526 c 1.388041,-1.367 -0.72714,1.456132 0,0 z m -7.831755,-2.047639 c -0.907997,-1.444979 2.56958,-0.260901 0.592629,-0.447709 -0.256035,0.09701 -0.773698,1.608846 -0.592629,0.447709 z m 9.609413,0.604423 c 0.385324,-1.071683 0.297838,0.378765 0,0 z M 12.390929,13.055255 C 12.923095,10.547992 14.059346,7.5379386 16.841946,6.8776836 16.016208,5.159197 19.710189,3.5231817 19.423189,5.9567499 20.57939,5.6730961 23.488715,4.7642669 21.914287,7.020707 20.061238,9.4502305 16.075341,6.7719087 14.456962,9.3336977 13.81133,10.463836 14.41402,13.391227 12.390929,13.055255 z m 3.721874,-0.789859 c 0.04931,-1.46731 1.431409,0.576888 0,0 z m 3.743532,-2.4040257 c -1.474116,-1.2028156 0.246436,-1.4875868 0.42154,-0.1034539 l -0.153048,0.076285 -0.268492,0.027169 z"
       style="fill:#1c5da5" />
    <path
       inkscape:connector-curvature="0"
       id="path27565"
       d="M 41.253246,44.815381 C 37.516452,43.610346 33.649069,42.870595 29.907302,41.68261 25.647809,42.971179 21.070785,44.421901 16.642693,43.022129 13.027665,42.174789 9.5666382,40.171778 7.4716367,37.045432 5.518888,35.277964 1.1841533,36.895437 0.60519026,33.591808 0.6108243,31.026967 3.4329552,30.016321 5.4537702,29.292724 8.0050786,29.167482 11.006901,25.897677 8.7062951,23.669969 7.5531506,22.783077 5.4503874,20.515429 6.850543,19.429819 c 1.7227434,1.490691 1.8958005,5.0022 5.002925,4.513761 1.633612,0.140467 1.920272,1.23865 0.31595,1.755187 -1.740472,2.105061 -1.069819,4.998403 -0.58919,7.428111 0.799735,0.740921 1.097383,3.280186 -0.510966,1.719608 -0.657593,-0.693078 -2.297172,-4.329749 -2.658374,-1.867914 0.7431353,3.153599 4.036249,4.504046 6.337869,6.358409 3.804178,2.264154 8.597713,3.451689 12.909631,2.113015 2.514457,-1.507703 2.041361,-5.597233 5.064747,-6.529241 2.80885,-0.164463 4.952135,-2.329845 5.606355,-4.822745 2.268859,-1.529939 5.117952,-0.382349 7.525183,0.09956 2.492304,1.07817 1.200504,4.473021 -0.923743,5.138302 -1.660898,0.333771 -6.301298,1.356536 -4.07626,3.617158 1.863991,1.406957 5.402287,2.032049 5.273432,4.927927 -0.638258,2.011158 -3.387903,1.360471 -4.874856,0.934417 z m -3.056702,-9.129699 c -0.183638,-1.692605 -1.31456,0.818241 0,0 z M 19.386073,32.881513 c 0.38392,-1.809425 1.846908,0.261687 0,0 z m 2.116178,-3.002624 c -0.896654,-1.474484 2.633779,-3.637756 1.401286,-0.985748 -0.270251,0.519176 -0.779288,1.004039 -1.401286,0.985748 z m 0.959087,-7.552461 c -0.327571,-1.207342 0.443961,0.201348 0,0 z M 7.6295284,17.974951 c 0.042616,-1.361463 0.8502096,0.532306 0,0 z m 0.9405235,-2.837849 c 0.4989668,-0.963985 -0.075078,0.800007 0,0 z M 12.876129,12.04044 c -0.550375,-3.0267316 3.437688,-3.8476502 4.112296,-6.4847089 0.832425,-1.5746875 2.566984,-0.484975 3.005913,0.1547388 1.222043,-0.9194913 3.536818,0.1703996 1.672609,1.4675407 -2.112876,2.0030136 -6.414365,-0.3282022 -7.660874,2.8443044 -0.219731,0.729959 -0.317288,1.686964 -1.129944,2.018125 z m 6.980206,-2.1790697 c -1.474116,-1.2028156 0.246436,-1.4875868 0.42154,-0.1034539 l -0.153048,0.076285 -0.268492,0.027169 z"
       style="fill:#0307d5" />
    <path
       inkscape:connector-curvature="0"
       id="path27563"
       d="M 41.253246,44.802953 C 37.569517,43.627349 33.756461,42.912296 30.079561,41.713365 26.373576,42.441754 22.702596,44.266738 18.847489,43.405369 14.429443,42.91625 10.00684,40.799696 7.4716367,37.045432 5.518888,35.277964 1.1841533,36.895437 0.60519026,33.591808 0.6108243,31.026967 3.4329552,30.016321 5.4537702,29.292724 8.0050786,29.167482 11.006901,25.897677 8.7062951,23.669969 7.5531506,22.783077 5.4503874,20.515429 6.850543,19.429819 c 1.7227434,1.490691 1.8958005,5.0022 5.002925,4.513761 1.633612,0.140467 1.920272,1.23865 0.31595,1.755187 -1.740472,2.105061 -1.069819,4.998403 -0.58919,7.428111 0.799735,0.740921 1.097383,3.280186 -0.510966,1.719608 -0.660233,-0.690157 -2.2874683,-4.325821 -2.6607332,-1.873047 0.7083842,3.103213 3.9395052,4.434682 6.1891602,6.266594 3.682546,2.328432 8.248306,3.294806 12.542611,2.47117 2.183785,-0.677224 3.091759,-4.992123 3.913835,-5.33439 -1.521244,2.207868 0.587717,4.646192 2.834616,5.068863 2.920845,0.70362 5.743145,1.729546 8.656864,2.448641 1.151674,0.223455 5.027262,0.939787 1.978355,1.27467 -1.101229,0.118385 -2.211613,-0.07018 -3.270724,-0.366034 z M 5.51917,33.37696 C 7.8904714,31.982754 3.6329666,28.754988 3.8938997,32.096031 3.8180346,32.900847 4.663033,34.551998 5.51917,33.37696 z m 32.037696,3.239855 c -2.593975,0.255155 -2.040463,-5.014217 0.08087,-2.991987 1.103716,2.536625 4.434109,2.830609 6.44758,1.234702 0.551338,-0.498615 3.87719,-2.700871 2.413995,-0.825753 -2.242961,1.559492 -4.99465,2.92414 -7.741251,3.060146 -0.429781,-0.06296 -0.848775,-0.220486 -1.2012,-0.477108 z m 0.639678,-0.931133 c -0.183638,-1.692605 -1.31456,0.818241 0,0 z M 19.386073,32.881513 c 0.38392,-1.809425 1.846908,0.261687 0,0 z m 2.116178,-3.002624 c -0.896654,-1.474484 2.633779,-3.637756 1.401286,-0.985748 -0.270251,0.519176 -0.779288,1.004039 -1.401286,0.985748 z m 21.923215,-0.0054 c 0.656783,-0.378313 0.749104,0.575565 0,0 z M 22.461338,22.326428 c -0.327571,-1.207342 0.443961,0.201348 0,0 z M 7.6295284,17.974951 c 0.042616,-1.361463 0.8502096,0.532306 0,0 z m 0.9405235,-2.837849 c 0.4989668,-0.963985 -0.075078,0.800007 0,0 z M 12.876129,12.04044 C 12.056375,9.8348544 15.91897,6.2434697 16.766252,8.209101 14.65856,8.591338 13.025774,9.943506 13.30501,12.168129 c -0.09431,0.36219 -0.45718,0.206003 -0.428881,-0.127689 z m 7.003643,-2.1247423 c -1.819029,-1.4459075 1.415601,-1.188028 0,0 z M 19.249935,7.497638 c -0.756404,-2.5877342 1.6569,0.1828903 0,0 z M 17.288458,5.8108993 c -0.327569,-1.2072896 0.443966,0.2013659 0,0 z"
       style="fill:#205567" />
    <path
       inkscape:connector-curvature="0"
       id="path27561"
       d="m 41.35758,44.591089 c -3.69708,-1.194596 -7.537566,-1.87418 -11.233309,-3.073368 -2.021689,-1.013188 0.0121,-4.900426 0.760243,-4.693871 -1.168933,2.345134 1.374233,4.468228 3.503513,4.853806 2.961329,0.500891 5.786519,1.669952 8.712632,2.376865 0.850128,-0.23512 2.906286,0.680161 1.133546,1.080901 -0.930146,-0.301393 -1.929696,-0.275694 -2.876625,-0.544333 z M 16.329371,42.779186 C 12.74576,41.830792 9.411617,39.717944 7.2785415,36.653684 5.3769331,35.404033 2.486739,36.261309 1.0506213,34.252835 c -0.97783945,-2.18181 1.4351299,-3.756712 3.2369205,-4.315564 1.809063,-0.425768 3.1339851,-1.729006 4.5811016,-2.71627 2.7936906,-0.418742 1.6432806,2.994255 2.0642456,4.629662 0.113988,2.848613 -2.2642334,-1.56377 -3.0573697,0.912304 -0.3698361,2.23846 1.7686257,4.067489 3.2379847,5.514285 2.448713,1.877558 5.381817,3.003044 8.249289,4.057338 1.621888,0.385292 3.298122,0.331811 4.947891,0.467931 -2.598188,0.779143 -5.359688,0.450716 -7.981313,-0.02333 z M 5.51917,33.37696 C 7.8904714,31.982754 3.6329666,28.754988 3.8938997,32.096031 3.8180346,32.900847 4.663033,34.551998 5.51917,33.37696 z m 32.078508,3.268647 c -2.602194,0.271042 -2.121606,-5.035069 0.04026,-3.019176 1.096841,2.510845 4.416523,2.85665 6.413797,1.238631 0.667865,-0.709012 4.08865,-2.512909 2.047038,-0.562822 -2.049211,1.824815 -5.061273,2.574103 -7.69913,1.745786 0.810245,1.236412 -0.04832,1.285979 -0.801968,0.597581 z M 19.386073,32.881513 c 0.38392,-1.809425 1.846908,0.261687 0,0 z m 2.116178,-3.002624 c -0.896654,-1.474484 2.633779,-3.637756 1.401286,-0.985748 -0.270251,0.519176 -0.779288,1.004039 -1.401286,0.985748 z m 21.923215,-0.0054 c 0.656783,-0.378313 0.749104,0.575565 0,0 z M 10.768638,25.12703 C 8.6105588,24.707639 6.7483966,21.226656 6.9461101,20.224043 c 0.9447352,2.100241 3.0823799,3.916408 4.7179289,4.912493 -0.294113,0.10392 -0.597739,0.0072 -0.895401,-0.0095 z m 11.6927,-2.800602 c -0.327571,-1.207342 0.443961,0.201348 0,0 z M 7.6295284,17.974951 c 0.042616,-1.361463 0.8502096,0.532306 0,0 z m 0.9405235,-2.837849 c 0.4989668,-0.963985 -0.075078,0.800007 0,0 z m 4.5850521,-3.585608 c 0.03549,-0.766116 0.537871,0.309634 0,0 z m 6.724668,-1.6357963 c -1.819029,-1.4459075 1.415601,-1.188028 0,0 z M 14.341676,8.632914 C 13.708552,6.3208034 19.065525,7.780388 16.131809,8.4429465 15.566243,8.6377473 14.935945,8.8643292 14.341676,8.632914 z m 4.908259,-1.135276 c -0.756404,-2.5877342 1.6569,0.1828903 0,0 z M 17.288458,5.8108993 c -0.327569,-1.2072896 0.443966,0.2013659 0,0 z"
       style="fill:#0719a6" />
    <path
       inkscape:connector-curvature="0"
       id="path27559"
       d="m 41.35758,44.591089 c -3.616046,-1.138234 -7.334826,-1.900418 -10.982279,-2.925491 -1.208297,-2.110408 2.624895,-0.326368 3.332096,0.281923 3.102513,1.08034 6.39977,1.550595 9.417504,2.882569 -0.593608,0.298356 -1.168947,-0.254321 -1.767321,-0.239001 z M 16.329371,42.779186 C 12.74576,41.830792 9.411617,39.717944 7.2785415,36.653684 5.2332642,35.379803 2.1136318,36.25037 0.70624953,33.952872 -0.73062791,31.54967 3.7359367,31.209612 3.39109,33.672799 4.0389512,36.442318 8.0196085,33.030843 6.0373544,31.302722 5.7811557,30.049362 8.6836203,26.992573 7.8232255,29.8959 c -0.7964494,4.248663 2.0465716,8.571174 5.9908505,10.076975 3.412071,1.931638 7.380501,3.174053 11.330905,2.681125 -2.849566,0.93338 -5.916576,0.657412 -8.81561,0.125186 z m 21.767428,-6.218893 c 0.685751,-0.944624 0.221136,1.08145 0,0 z m 2.157141,0.05519 c 0.341095,-0.542803 0.455586,0.361039 0,0 z m -3.420816,-0.998096 c -1.192167,-1.500655 1.21118,-0.0014 0,0 z M 10.507748,33.880053 c -1.3720471,-1.461791 -2.3411332,-5.322335 -0.04381,-6.071424 0.667976,1.866642 0.342061,4.270474 0.206522,6.229767 l -0.162717,-0.158343 z m 0.26089,-8.753023 C 8.6092893,24.708083 6.7521457,21.227918 6.9442872,20.224329 c 0.9762038,2.089295 3.0027738,3.880245 4.7214608,4.919384 -0.295593,0.09717 -0.599385,0.0085 -0.89711,-0.01668 z m 2.2689,-13.454056 c 0.129467,-1.031497 0.885551,0.618993 0,0 z"
       style="fill:#0e205c" />
    <path
       inkscape:connector-curvature="0"
       id="path27557"
       d="M 16.329371,42.764492 C 11.462684,41.595499 6.4471714,37.881708 6.1371864,32.51509 c 0.4579858,-2.184624 1.57874,0.228983 1.3903185,1.269248 1.2981947,3.984012 5.2012571,6.173698 8.8486431,7.656992 1.948253,0.831698 4.036003,1.407227 6.165085,1.434707 -1.960231,1.055965 -4.178553,0.113712 -6.211862,-0.111545 z M 30.614773,41.57367 c -0.938813,-1.080574 1.486924,0.739826 0,0 z M 3.2897635,35.668346 C 1.0360742,37.349073 0.42329594,31.506028 2.913477,34.060398 3.6527006,34.44801 5.7679662,36.353394 3.2897635,35.668346 z M 9.9309837,32.467541 C 9.4580698,31.504483 8.88912,28.207153 10.590214,28.721227 c 0.142074,1.237569 0.730507,2.981559 -0.6592303,3.746314 z M 10.684081,24.91364 C 9.2162617,25.287192 7.4431244,21.832506 9.8431072,23.758804 10.273002,23.982607 10.739038,24.378017 10.684081,24.91364 z M 6.7075676,19.936022 c -0.3275772,-1.207276 0.4439704,0.201334 0,0 z"
       style="fill:#0b151e" />
    <path
       sodipodi:type="arc"
       style="color:#000000;fill:#eeeeec;fill-opacity:1;fill-rule:nonzero;stroke:none;stroke-width:0.5;marker:none;visibility:visible;display:inline;overflow:visible;enable-background:accumulate"
       id="path28405"
       sodipodi:cx="17.993341"
       sodipodi:cy="12.253227"
       sodipodi:rx="1.3258252"
       sodipodi:ry="1.8561553"
       d="m 19.319167,12.253227 a 1.3258252,1.8561553 0 1 1 -2.651651,0 1.3258252,1.8561553 0 1 1 2.651651,0 z"
       transform="matrix(1.148337,0.44755393,-0.42315222,1.2145575,2.5159023,-10.909297)" />
    <path
       transform="matrix(0.87678953,0.34172078,-0.32308934,0.92735089,2.4130368,-6.5212035)"
       d="m 18.922904,12.253227 a 0.92956233,1.8561553 0 1 1 -1.859125,0 0.92956233,1.8561553 0 1 1 1.859125,0 z"
       sodipodi:ry="1.8561553"
       sodipodi:rx="0.92956233"
       sodipodi:cy="12.253227"
       sodipodi:cx="17.993341"
       id="path28409"
       style="color:#000000;fill:#eeeeec;fill-opacity:1;fill-rule:nonzero;stroke:none;stroke-width:0.5;marker:none;visibility:visible;display:inline;overflow:visible;enable-background:accumulate"
       sodipodi:type="arc" />
    <path
       transform="matrix(0.6659963,0.25956602,-0.24541386,0.70440193,9.6104193,-1.977342)"
       d="m 19.319167,12.253227 a 1.3258252,1.8561553 0 1 1 -2.651651,0 1.3258252,1.8561553 0 1 1 2.651651,0 z"
       sodipodi:ry="1.8561553"
       sodipodi:rx="1.3258252"
       sodipodi:cy="12.253227"
       sodipodi:cx="17.993341"
       id="path28411"
       style="color:#000000;fill:#2e3436;fill-opacity:1;fill-rule:nonzero;stroke:none;stroke-width:0.5;marker:none;visibility:visible;display:inline;overflow:visible;enable-background:accumulate"
       sodipodi:type="arc" />
    <path
       sodipodi:type="arc"
       style="color:#000000;fill:#2e3436;fill-opacity:1;fill-rule:nonzero;stroke:none;stroke-width:0.5;marker:none;visibility:visible;display:inline;overflow:visible;enable-background:accumulate"
       id="path28413"
       sodipodi:cx="17.993341"
       sodipodi:cy="12.253227"
       sodipodi:rx="0.92956233"
       sodipodi:ry="1.8561553"
       d="m 18.922904,12.253227 a 0.92956233,1.8561553 0 1 1 -1.859125,0 0.92956233,1.8561553 0 1 1 1.859125,0 z"
       transform="matrix(0.52669873,0.20527606,-0.19408392,0.55707159,7.5356684,-0.22801481)" />
  </g>
</svg>
