<?xml version="1.0" encoding="UTF-8" standalone="no"?>
<!-- Created with Inkscape (http://www.inkscape.org/) -->
<svg
   xmlns:a="http://ns.adobe.com/AdobeSVGViewerExtensions/3.0/"
   xmlns:i="http://ns.adobe.com/AdobeIllustrator/10.0/"
   xmlns:dc="http://purl.org/dc/elements/1.1/"
   xmlns:cc="http://web.resource.org/cc/"
   xmlns:rdf="http://www.w3.org/1999/02/22-rdf-syntax-ns#"
   xmlns:svg="http://www.w3.org/2000/svg"
   xmlns="http://www.w3.org/2000/svg"
   xmlns:sodipodi="http://sodipodi.sourceforge.net/DTD/sodipodi-0.dtd"
   xmlns:inkscape="http://www.inkscape.org/namespaces/inkscape"
   width="48px"
   height="48px"
   id="svg13006"
   sodipodi:version="0.32"
   inkscape:version="0.44"
   sodipodi:docbase="e:\dev_clean\src\houdini\support\icons\sop"
   sodipodi:docname="uvtexture.svg">
  <defs
     id="defs13008">
    <radialGradient
       gradientUnits="userSpaceOnUse"
       fy="613.7427"
       fx="1125.395"
       r="27.2786"
       cy="613.7427"
       cx="1125.395"
       id="XMLID_357_">
				<stop
   id="stop8509"
   style="stop-color:#FFFFFF"
   offset="0.264" />

				<stop
   id="stop8511"
   style="stop-color:#F6F7F8"
   offset="0.2853" />

				<stop
   id="stop8513"
   style="stop-color:#E3E6E8"
   offset="0.3469" />

				<stop
   id="stop8515"
   style="stop-color:#D5D9DD"
   offset="0.4176" />

				<stop
   id="stop8517"
   style="stop-color:#CCD2D7"
   offset="0.5048" />

				<stop
   id="stop8519"
   style="stop-color:#CAD0D5"
   offset="0.6573" />

				<stop
   id="stop8521"
   style="stop-color:#78828C"
   offset="1" />

				<a:midPointStop
   style="stop-color:#FFFFFF"
   offset="0.264" />

				<a:midPointStop
   style="stop-color:#FFFFFF"
   offset="0.1921" />

				<a:midPointStop
   style="stop-color:#CAD0D5"
   offset="0.6573" />

				<a:midPointStop
   style="stop-color:#CAD0D5"
   offset="0.5" />

				<a:midPointStop
   style="stop-color:#78828C"
   offset="1" />

			</radialGradient>
  </defs>
  <sodipodi:namedview
     id="base"
     pagecolor="#ffffff"
     bordercolor="#666666"
     borderopacity="1.0"
     inkscape:pageopacity="0.0"
     inkscape:pageshadow="2"
     inkscape:zoom="7"
     inkscape:cx="24"
     inkscape:cy="24"
     inkscape:current-layer="layer1"
     showgrid="true"
     inkscape:grid-bbox="true"
     inkscape:document-units="px"
     inkscape:window-width="853"
     inkscape:window-height="573"
     inkscape:window-x="327"
     inkscape:window-y="236" />
  <metadata
     id="metadata13011">
    <rdf:RDF>
      <cc:Work
         rdf:about="">
        <dc:format>image/svg+xml</dc:format>
        <dc:type
           rdf:resource="http://purl.org/dc/dcmitype/StillImage" />
      </cc:Work>
    </rdf:RDF>
  </metadata>
  <g
     id="layer1"
     inkscape:label="Layer 1"
     inkscape:groupmode="layer">
    <circle
       transform="matrix(1.086548,0,0,1.086548,-1204.851,-648.9436)"
       sodipodi:ry="21.458"
       sodipodi:rx="21.458"
       sodipodi:cy="619.51099"
       sodipodi:cx="1131.193"
       style="fill:url(#XMLID_357_);stroke:#41464c;stroke-width:0.92034608"
       id="circle8523"
       r="21.458"
       cy="619.51099"
       cx="1131.193"
       a:adobe-blending-mode="multiply"
       i:knockout="Off" />
    <path
       id="path8525"
       d="M 33.061996,45.773389 C 34.758097,44.725957 36.17061,43.096136 37.223474,41.004531 L 37.223474,41.004531 C 39.744265,40.147245 41.794581,39.043312 43.185362,37.779657 L 43.184276,37.780744 C 40.645013,41.312024 37.14307,44.105538 33.061996,45.773389"
       i:knockout="Off" />
    <path
       id="path8527"
       d="M 47.555457,23.849028 C 47.555457,24.944268 47.113233,25.997133 46.296149,26.977199 L 46.296149,26.977199 C 46.33961,31.125638 45.152014,34.865536 43.05389,37.898091 L 43.185362,37.78183 C 45.937588,33.955009 47.558717,29.258949 47.558717,24.184771 L 47.555457,23.849028 z "
       i:knockout="Off" />
    <path
       id="path8529"
       d="M 46.296149,26.977199 C 46.293975,26.622984 46.280937,26.266597 46.259206,25.908036 C 46.048416,22.39414 44.986858,19.006284 43.283152,15.950912 L 43.283152,15.950912 C 42.135757,17.37103 40.072403,18.62056 37.379937,19.578895 L 37.379937,19.577808 C 38.218752,22.069262 38.816353,24.688929 39.112981,27.350971 C 39.261838,28.675473 39.329204,29.956513 39.320512,31.187572 L 39.322685,31.187572 C 42.484539,30.080379 44.920579,28.629838 46.296149,26.977199 L 46.296149,26.977199 z "
       i:knockout="Off" />
    <path
       id="path8531"
       d="M 24.501086,2.746096 C 28.415918,3.3393511 32.109094,4.8963741 35.303544,7.1411815 L 35.303544,7.1411815 C 34.605981,7.9202363 33.410778,8.6036749 31.866794,9.1306506 L 31.866794,9.129564 C 29.700217,6.3327903 27.202244,4.1216655 24.572798,2.7819521 L 24.501086,2.746096 z "
       i:knockout="Off" />
    <path
       id="path8533"
       d="M 14.162584,3.1557245 C 13.757301,3.4262749 13.417212,3.7152966 13.152094,4.0173569 L 13.152094,4.0173569 C 16.029273,2.8145485 19.324772,2.2712746 22.863659,2.5570367 C 23.413452,2.6004986 23.961072,2.6635184 24.502173,2.746096 L 24.573885,2.7819521 C 23.455827,2.2136876 22.316038,1.8018859 21.165384,1.5682782 C 20.584081,1.4520176 20.01473,1.3824785 19.461677,1.3607475 L 19.461677,1.3607475 C 17.603681,1.7475586 15.828262,2.3560253 14.162584,3.1557245 L 14.162584,3.1557245 z "
       i:knockout="Off" />
    <path
       id="path8535"
       d="M 39.322685,31.187572 C 36.228197,32.271946 32.438318,33.027097 28.268147,33.328071 L 28.269234,33.328071 C 28.257282,37.119036 28.076915,40.385199 27.742258,42.820152 L 27.741172,42.820152 C 31.282231,42.564814 34.522317,41.924837 37.224561,41.004531 L 37.224561,41.004531 C 38.54689,38.379431 39.297694,35.026345 39.321598,31.187572 L 39.322685,31.187572 z "
       i:knockout="Off" />
    <path
       id="path8537"
       d="M 26.477517,10.169391 C 27.043608,13.388832 27.518429,17.254769 27.833528,21.458622 C 31.44304,21.190245 34.720068,20.526364 37.379937,19.578895 L 37.379937,19.577808 C 36.060868,15.666236 34.146371,12.074109 31.86788,9.1306506 L 31.86788,9.1317371 C 30.354319,9.6478473 28.509361,10.012928 26.477517,10.169391 L 26.477517,10.169391 z "
       i:knockout="Off" />
    <path
       id="path8539"
       d="M 43.078881,10.439941 C 41.131787,8.1723154 38.69466,6.2980208 35.891367,4.9702593 L 35.873982,4.9148454 C 35.946781,5.1256357 35.985896,5.3418587 35.985896,5.5624279 C 35.985896,6.1165673 35.744683,6.6478892 35.304631,7.1411815 L 35.304631,7.1411815 C 38.590352,9.4500956 41.349096,12.486997 43.283152,15.949825 L 43.283152,15.949825 C 43.940513,15.134914 44.297987,14.263503 44.297987,13.358409 C 44.297987,12.593479 44.043735,11.85354 43.57,11.15163 L 43.078881,10.439941 z "
       i:knockout="Off" />
    <path
       id="path8541"
       d="M 4.9410529,11.102735 C 4.4488467,11.816597 4.1902484,12.579354 4.1902484,13.359495 C 4.1902484,13.862567 4.3010762,14.356946 4.5129531,14.835027 L 4.5129531,14.835027 C 6.5284992,11.450431 9.376341,8.593896 12.740293,6.508811 L 12.740293,6.508811 C 12.582743,6.2034911 12.500166,5.8873057 12.500166,5.5624279 C 12.500166,5.0213271 12.7316,4.5008707 13.152094,4.0173569 L 13.152094,4.0173569 C 12.087277,4.4628415 11.081134,4.9995961 10.139098,5.6189284 L 10.139098,5.6189284 C 8.124638,7.152047 6.3666036,9.004611 4.9410529,11.102735 z "
       i:knockout="Off" />
    <path
       id="path8543"
       d="M 1.2859061,25.531004 C 1.0522983,24.98447 0.93060499,24.422725 0.93060499,23.849028 L 0.93060499,23.853374 C 0.93060499,23.964202 0.92843189,24.073943 0.92843189,24.184771 C 0.92843189,25.789602 1.0914141,27.356404 1.3999936,28.871052 L 1.3999936,28.871052 C 1.2783003,27.780158 1.2391846,26.66536 1.2869927,25.534263"
       i:knockout="Off" />
    <path
       id="path8545"
       d="M 26.043984,47.430375 C 25.449642,47.474923 24.848781,47.498827 24.243574,47.498827 C 22.995131,47.498827 21.770591,47.401038 20.575389,47.211979 L 20.575389,47.211979 C 19.160704,46.800177 18.045906,45.081258 17.302707,42.437688 L 17.302707,42.437688 C 19.475803,42.765825 21.809707,42.945105 24.243574,42.945105 C 25.435517,42.945105 26.603556,42.901643 27.741172,42.820152 L 27.742258,42.820152 C 27.36414,45.551734 26.792615,47.234796 26.043984,47.430375 L 26.043984,47.430375 z "
       i:knockout="Off" />
    <path
       id="path8547"
       d="M 17.36464,21.092456 C 17.186446,22.094253 17.024551,23.114521 16.885473,24.152175 C 16.464979,27.24449 16.261794,30.194467 16.250929,32.889105 L 16.250929,32.889105 C 18.744556,33.265051 21.434848,33.470408 24.243574,33.470408 C 25.616971,33.470408 26.96103,33.421514 28.268147,33.326984 L 28.269234,33.326984 C 28.27684,30.638865 28.200781,27.686715 28.032366,24.582447 C 27.976953,23.523063 27.909587,22.479977 27.832442,21.457536 C 26.667662,21.54446 25.468114,21.589008 24.242488,21.589008 C 21.827092,21.590095 19.509485,21.415161 17.36464,21.092456 L 17.36464,21.092456 z "
       i:knockout="Off" />
    <path
       id="path8549"
       d="M 24.518471,2.7297978 C 23.06467,4.2683495 21.639119,6.7945728 20.390676,9.9966292 L 20.391762,9.9966292 C 21.59783,10.163958 22.895168,10.255228 24.243574,10.255228 C 25.008504,10.255228 25.754962,10.225891 26.477517,10.170477 L 26.477517,10.170477 C 25.907079,6.9216989 25.239939,4.3302827 24.546721,2.7221919 L 24.518471,2.7297978 z "
       i:knockout="Off" />
    <path
       id="path8551"
       d="M 27.317418,1.0695527 C 26.398199,1.1586496 25.451815,1.7388662 24.518471,2.7287112 L 24.545635,2.7200188 C 24.061034,1.5954419 23.563395,0.95003251 23.074449,0.89244548 L 23.099439,0.89570512 C 23.479731,0.87723381 23.858936,0.86854143 24.242488,0.86854143 C 25.283401,0.86854143 26.308015,0.93699394 27.313072,1.0695527 L 27.317418,1.0695527 z "
       i:knockout="Off" />
    <path
       id="path8553"
       d="M 12.488214,44.321761 C 10.983345,43.121126 9.7522866,41.671671 8.8015573,40.019032 L 8.8015573,40.019032 C 7.3901317,39.357325 6.2057945,38.60326 5.3017868,37.78183 L 5.2996137,37.777484 C 7.1902069,40.408016 9.6164681,42.627833 12.417588,44.280473 L 12.488214,44.321761 z "
       i:knockout="Off" />
    <path
       id="path8555"
       d="M 6.3655171,30.003234 C 6.3546516,33.774642 7.170649,37.191835 8.8015573,40.019032 L 8.8015573,40.019032 C 11.106125,41.10232 14.018073,41.942222 17.302707,42.438774 L 17.302707,42.438774 C 16.60623,39.963618 16.23789,36.677898 16.249842,32.890192 L 16.249842,32.890192 C 12.368693,32.306716 8.9688856,31.307092 6.3644305,30.024965 L 6.3644305,30.003234 L 6.3655171,30.003234 z "
       i:knockout="Off" />
    <path
       id="path8557"
       d="M 1.2859061,25.531004 C 2.0084604,27.222759 3.8012642,28.76131 6.3655171,30.024965 L 6.3655171,30.003234 C 6.3698633,28.290835 6.5437109,26.503464 6.8892331,24.666112 C 7.2879962,22.552776 7.9062419,20.50572 8.7081141,18.564059 L 8.7070276,18.564059 C 6.6045576,17.506848 5.1290257,16.232328 4.5129531,14.835027 L 4.5129531,14.835027 C 2.9635359,17.43079 1.9052383,20.336219 1.4760519,23.442659 C 1.3782627,24.144569 1.317416,24.842132 1.2869927,25.533177 L 1.2859061,25.531004 z "
       i:knockout="Off" />
    <path
       id="path8559"
       d="M 20.391762,9.9955426 C 18.384909,9.7173864 16.625788,9.2284399 15.282815,8.593896 L 15.280641,8.593896 C 12.569705,11.322218 10.284695,14.739411 8.7081141,18.564059 L 8.7070276,18.564059 C 10.96596,19.698415 13.947447,20.580692 17.36464,21.092456 L 17.36464,21.092456 C 18.108925,16.941843 19.163963,13.143272 20.391762,9.9955426 L 20.391762,9.9955426 z "
       i:knockout="Off" />
    <path
       id="path8563"
       d="M 24.304421,2.7982503 C 21.062162,3.870673 17.963328,5.8949115 15.280641,8.593896 L 15.282815,8.593896 C 14.033285,8.0060736 13.141229,7.2932982 12.740293,6.508811 L 12.740293,6.508811 C 16.170524,4.382437 20.129904,3.0590218 24.304421,2.7982503 z "
       i:knockout="Off" />
    <path
       id="path8565"
       d="M 24.571712,2.7819521 C 25.645221,2.7265381 26.731769,2.7406632 27.824836,2.8308467 C 30.738957,3.0666276 33.45424,3.8119994 35.891367,4.9702593 L 35.873982,4.9148454 C 35.655586,4.2781284 35.116658,3.6837867 34.326738,3.1557245 L 34.294141,3.1405128 C 33.487923,2.7547884 32.654541,2.4146989 31.801601,2.121331 L 31.801601,2.121331 C 31.052969,1.9996376 30.279347,1.9355313 29.479648,1.9355313 C 27.815057,1.9355313 26.148293,2.2115145 24.516298,2.7287112 L 24.571712,2.7819521 z "
       i:knockout="Off" />
  </g>
</svg>
