<?xml version="1.0" encoding="UTF-8" standalone="no"?>
<!-- Created with Inkscape (http://www.inkscape.org/) -->

<svg
   xmlns:i="http://ns.adobe.com/AdobeIllustrator/10.0/"
   xmlns:a="http://ns.adobe.com/AdobeSVGViewerExtensions/3.0/"
   xmlns:dc="http://purl.org/dc/elements/1.1/"
   xmlns:cc="http://creativecommons.org/ns#"
   xmlns:rdf="http://www.w3.org/1999/02/22-rdf-syntax-ns#"
   xmlns:svg="http://www.w3.org/2000/svg"
   xmlns="http://www.w3.org/2000/svg"
   xmlns:xlink="http://www.w3.org/1999/xlink"
   xmlns:sodipodi="http://sodipodi.sourceforge.net/DTD/sodipodi-0.dtd"
   xmlns:inkscape="http://www.inkscape.org/namespaces/inkscape"
   width="48px"
   height="48px"
   id="svg7845"
   version="1.1"
   inkscape:version="0.48.5 r10040"
   sodipodi:docname="vellumglueconstraints.svg">
  <defs
     id="defs7847">
    <linearGradient
       id="linearGradient8550">
      <stop
         id="stop8552"
         offset="0"
         style="stop-color:#f57900;stop-opacity:1;" />
      <stop
         style="stop-color:#ffae5e;stop-opacity:1;"
         offset="0.14190862"
         id="stop8554" />
      <stop
         id="stop8556"
         offset="1"
         style="stop-color:#f57900;stop-opacity:1;" />
    </linearGradient>
    <linearGradient
       id="linearGradient8512">
      <stop
         style="stop-color:#f57900;stop-opacity:1;"
         offset="0"
         id="stop8514" />
      <stop
         id="stop8520"
         offset="0.5"
         style="stop-color:#ffae5e;stop-opacity:1;" />
      <stop
         style="stop-color:#f57900;stop-opacity:1;"
         offset="1"
         id="stop8516" />
    </linearGradient>
    <linearGradient
       y2="1528.2897"
       x2="240.8098"
       y1="1525.7026"
       x1="238.48579"
       gradientUnits="userSpaceOnUse"
       id="XMLID_869_">
      <stop
         id="stop18057"
         style="stop-color:#3E444C"
         offset="0.0056" />
      <stop
         id="stop18059"
         style="stop-color:#ADBECA"
         offset="0.2978" />
      <stop
         id="stop18061"
         style="stop-color:#ADBECA"
         offset="0.4775" />
      <stop
         id="stop18063"
         style="stop-color:#828F99"
         offset="0.7022" />
      <stop
         id="stop18065"
         style="stop-color:#292E33"
         offset="1" />
      <a:midPointStop
         style="stop-color:#3E444C"
         offset="0.0056" />
      <a:midPointStop
         style="stop-color:#3E444C"
         offset="0.5" />
      <a:midPointStop
         style="stop-color:#ADBECA"
         offset="0.2978" />
      <a:midPointStop
         style="stop-color:#ADBECA"
         offset="0.5" />
      <a:midPointStop
         style="stop-color:#ADBECA"
         offset="0.4775" />
      <a:midPointStop
         style="stop-color:#ADBECA"
         offset="0.5" />
      <a:midPointStop
         style="stop-color:#828F99"
         offset="0.7022" />
      <a:midPointStop
         style="stop-color:#828F99"
         offset="0.5" />
      <a:midPointStop
         style="stop-color:#292E33"
         offset="1" />
    </linearGradient>
    <linearGradient
       inkscape:collect="always"
       xlink:href="#XMLID_870_"
       id="linearGradient30967"
       gradientUnits="userSpaceOnUse"
       gradientTransform="translate(-232.54653,-1487.5738)"
       x1="242.98"
       y1="1506.5864"
       x2="260.02969"
       y2="1526.3899" />
    <linearGradient
       y2="1526.3899"
       x2="260.02969"
       y1="1506.5864"
       x1="242.98"
       gradientUnits="userSpaceOnUse"
       id="XMLID_870_"
       gradientTransform="translate(9.073071,-1121.746)">
      <stop
         id="stop18082"
         style="stop-color:#0f6f73;stop-opacity:1;"
         offset="0.0056" />
      <stop
         id="stop18084"
         style="stop-color:#12e9f1;stop-opacity:1;"
         offset="0.46070001" />
      <stop
         id="stop18086"
         style="stop-color:#0f6f73;stop-opacity:1;"
         offset="1" />
      <a:midPointStop
         style="stop-color:#73340F"
         offset="0.0056" />
      <a:midPointStop
         style="stop-color:#73340F"
         offset="0.5" />
      <a:midPointStop
         style="stop-color:#F17912"
         offset="0.4607" />
      <a:midPointStop
         style="stop-color:#F17912"
         offset="0.5" />
      <a:midPointStop
         style="stop-color:#73340F"
         offset="1" />
    </linearGradient>
    <linearGradient
       inkscape:collect="always"
       xlink:href="#XMLID_871_"
       id="linearGradient30964"
       gradientUnits="userSpaceOnUse"
       gradientTransform="translate(-232.54653,-1487.5738)"
       x1="244.2827"
       y1="1505.2856"
       x2="261.4632"
       y2="1525.255" />
    <linearGradient
       y2="1525.255"
       x2="261.4632"
       y1="1505.2856"
       x1="244.2827"
       gradientUnits="userSpaceOnUse"
       id="XMLID_871_"
       gradientTransform="translate(9.073071,-1121.746)">
      <stop
         id="stop18091"
         style="stop-color:#12e9f1;stop-opacity:1;"
         offset="0.0056" />
      <stop
         id="stop18093"
         style="stop-color:#ffffff;stop-opacity:1;"
         offset="0.29210001" />
      <stop
         id="stop18095"
         style="stop-color:#ffffff;stop-opacity:1;"
         offset="0.5449" />
      <stop
         id="stop18097"
         style="stop-color:#12e9f1;stop-opacity:1;"
         offset="0.65170002" />
      <stop
         id="stop18099"
         style="stop-color:#0f6f73;stop-opacity:1;"
         offset="1" />
      <a:midPointStop
         style="stop-color:#F17912"
         offset="0.0056" />
      <a:midPointStop
         style="stop-color:#F17912"
         offset="0.5" />
      <a:midPointStop
         style="stop-color:#FAAF3E"
         offset="0.2921" />
      <a:midPointStop
         style="stop-color:#FAAF3E"
         offset="0.5" />
      <a:midPointStop
         style="stop-color:#FAAF3E"
         offset="0.5449" />
      <a:midPointStop
         style="stop-color:#FAAF3E"
         offset="0.5" />
      <a:midPointStop
         style="stop-color:#F17912"
         offset="0.6517" />
      <a:midPointStop
         style="stop-color:#F17912"
         offset="0.5" />
      <a:midPointStop
         style="stop-color:#73340F"
         offset="1" />
    </linearGradient>
    <radialGradient
       inkscape:collect="always"
       xlink:href="#XMLID_872_"
       id="radialGradient30961"
       gradientUnits="userSpaceOnUse"
       gradientTransform="translate(-232.54653,-1487.5738)"
       cx="247.01711"
       cy="1513.6431"
       fx="247.01711"
       fy="1513.6431"
       r="14.582" />
    <radialGradient
       gradientUnits="userSpaceOnUse"
       fy="1513.6431"
       fx="247.01711"
       r="14.582"
       cy="1513.6431"
       cx="247.01711"
       id="XMLID_872_"
       gradientTransform="translate(9.073071,-1121.746)">
      <stop
         id="stop18104"
         style="stop-color:#d2fcfe;stop-opacity:1;"
         offset="0.0056" />
      <stop
         id="stop18106"
         style="stop-color:#3ef3fa;stop-opacity:1;"
         offset="0.3371" />
      <stop
         id="stop18110"
         style="stop-color:#1c6466;stop-opacity:1;"
         offset="1" />
      <a:midPointStop
         style="stop-color:#FAAF3E"
         offset="0.0056" />
      <a:midPointStop
         style="stop-color:#FAAF3E"
         offset="0.5" />
      <a:midPointStop
         style="stop-color:#FAAF3E"
         offset="0.3371" />
      <a:midPointStop
         style="stop-color:#FAAF3E"
         offset="0.5" />
      <a:midPointStop
         style="stop-color:#F17912"
         offset="0.6517" />
      <a:midPointStop
         style="stop-color:#F17912"
         offset="0.5" />
      <a:midPointStop
         style="stop-color:#73340F"
         offset="1" />
    </radialGradient>
    <linearGradient
       inkscape:collect="always"
       xlink:href="#XMLID_877_"
       id="linearGradient30958"
       gradientUnits="userSpaceOnUse"
       gradientTransform="translate(-232.54653,-1487.5738)"
       x1="250.59419"
       y1="1507.1665"
       x2="260.63409"
       y2="1518.8663" />
    <linearGradient
       y2="1509.7975"
       x2="274.92651"
       y1="1494.3853"
       x1="260.88281"
       gradientUnits="userSpaceOnUse"
       id="XMLID_877_"
       gradientTransform="translate(9.073071,-1121.746)">
      <stop
         id="stop18181"
         style="stop-color:#12e9f1;stop-opacity:1;"
         offset="0.0056" />
      <stop
         id="stop18183"
         style="stop-color:#ffffff;stop-opacity:1;"
         offset="0.29210001" />
      <stop
         id="stop18185"
         style="stop-color:#12e9f1;stop-opacity:1;"
         offset="0.58990002" />
      <stop
         id="stop18187"
         style="stop-color:#0f6f73;stop-opacity:1;"
         offset="1" />
      <a:midPointStop
         style="stop-color:#F17912"
         offset="0.0056" />
      <a:midPointStop
         style="stop-color:#F17912"
         offset="0.5" />
      <a:midPointStop
         style="stop-color:#FAAF3E"
         offset="0.2921" />
      <a:midPointStop
         style="stop-color:#FAAF3E"
         offset="0.5" />
      <a:midPointStop
         style="stop-color:#F17912"
         offset="0.5899" />
      <a:midPointStop
         style="stop-color:#F17912"
         offset="0.5" />
      <a:midPointStop
         style="stop-color:#73340F"
         offset="1" />
    </linearGradient>
    <linearGradient
       inkscape:collect="always"
       xlink:href="#XMLID_874_"
       id="linearGradient30955"
       gradientUnits="userSpaceOnUse"
       gradientTransform="translate(-232.54653,-1487.5738)"
       x1="255.8857"
       y1="1504.6606"
       x2="263.77759"
       y2="1513.642" />
    <linearGradient
       y2="1513.642"
       x2="263.77759"
       y1="1504.6606"
       x1="255.8857"
       gradientUnits="userSpaceOnUse"
       id="XMLID_874_"
       gradientTransform="translate(9.073071,-1121.746)">
      <stop
         id="stop18128"
         style="stop-color:#15eaf2;stop-opacity:1;"
         offset="0.0223" />
      <stop
         id="stop18130"
         style="stop-color:#95f7fb;stop-opacity:1;"
         offset="0.098" />
      <stop
         id="stop18132"
         style="stop-color:#a6f9fd;stop-opacity:1;"
         offset="0.1573" />
      <stop
         id="stop18134"
         style="stop-color:#17bfc5;stop-opacity:1;"
         offset="0.6742" />
      <stop
         id="stop18136"
         style="stop-color:#1a5b5d;stop-opacity:1;"
         offset="1" />
      <a:midPointStop
         style="stop-color:#F17912"
         offset="0.0056" />
      <a:midPointStop
         style="stop-color:#F17912"
         offset="0.3446" />
      <a:midPointStop
         style="stop-color:#F99326"
         offset="0.1573" />
      <a:midPointStop
         style="stop-color:#F99326"
         offset="0.5" />
      <a:midPointStop
         style="stop-color:#C56417"
         offset="0.6742" />
      <a:midPointStop
         style="stop-color:#C56417"
         offset="0.5" />
      <a:midPointStop
         style="stop-color:#994511"
         offset="1" />
    </linearGradient>
    <radialGradient
       inkscape:collect="always"
       xlink:href="#linearGradient31501"
       id="radialGradient31507"
       cx="35.772278"
       cy="16.216782"
       fx="35.772278"
       fy="16.216782"
       r="5.4295702"
       gradientTransform="matrix(0.78137174,-0.62406587,1.1255813,1.4093022,-11.48076,13.655056)"
       gradientUnits="userSpaceOnUse" />
    <linearGradient
       inkscape:collect="always"
       id="linearGradient31501">
      <stop
         style="stop-color:#000000;stop-opacity:1;"
         offset="0"
         id="stop31503" />
      <stop
         style="stop-color:#000000;stop-opacity:0;"
         offset="1"
         id="stop31505" />
    </linearGradient>
    <linearGradient
       inkscape:collect="always"
       xlink:href="#XMLID_877_"
       id="linearGradient30948"
       gradientUnits="userSpaceOnUse"
       gradientTransform="translate(-232.54653,-1487.5738)"
       x1="260.88281"
       y1="1494.3853"
       x2="274.92651"
       y2="1509.7975" />
    <linearGradient
       y2="1509.7975"
       x2="274.92651"
       y1="1494.3853"
       x1="260.88281"
       gradientUnits="userSpaceOnUse"
       id="linearGradient7811"
       gradientTransform="translate(9.073071,-1121.746)">
      <stop
         id="stop7813"
         style="stop-color:#12e9f1;stop-opacity:1;"
         offset="0.0056" />
      <stop
         id="stop7815"
         style="stop-color:#ffffff;stop-opacity:1;"
         offset="0.29210001" />
      <stop
         id="stop7817"
         style="stop-color:#12e9f1;stop-opacity:1;"
         offset="0.58990002" />
      <stop
         id="stop7819"
         style="stop-color:#0f6f73;stop-opacity:1;"
         offset="1" />
      <a:midPointStop
         style="stop-color:#F17912"
         offset="0.0056" />
      <a:midPointStop
         style="stop-color:#F17912"
         offset="0.5" />
      <a:midPointStop
         style="stop-color:#FAAF3E"
         offset="0.2921" />
      <a:midPointStop
         style="stop-color:#FAAF3E"
         offset="0.5" />
      <a:midPointStop
         style="stop-color:#F17912"
         offset="0.5899" />
      <a:midPointStop
         style="stop-color:#F17912"
         offset="0.5" />
      <a:midPointStop
         style="stop-color:#73340F"
         offset="1" />
    </linearGradient>
    <radialGradient
       inkscape:collect="always"
       xlink:href="#XMLID_878_"
       id="radialGradient30945"
       gradientUnits="userSpaceOnUse"
       gradientTransform="translate(-232.54653,-1487.5738)"
       cx="264.8848"
       cy="1499.855"
       fx="264.8848"
       fy="1499.855"
       r="8.5592003" />
    <radialGradient
       gradientUnits="userSpaceOnUse"
       fy="1499.855"
       fx="264.8848"
       r="8.5592003"
       cy="1499.855"
       cx="264.8848"
       id="XMLID_878_"
       gradientTransform="translate(9.073071,-1121.746)">
      <stop
         id="stop18192"
         style="stop-color:#ffffff;stop-opacity:1;"
         offset="0.0056" />
      <stop
         id="stop18196"
         style="stop-color:#4ed3d8;stop-opacity:1;"
         offset="1" />
      <a:midPointStop
         style="stop-color:#FCDFA8"
         offset="0.0056" />
      <a:midPointStop
         style="stop-color:#FCDFA8"
         offset="0.5" />
      <a:midPointStop
         style="stop-color:#FAAF3E"
         offset="0.3876" />
      <a:midPointStop
         style="stop-color:#FAAF3E"
         offset="0.5" />
      <a:midPointStop
         style="stop-color:#F3841A"
         offset="1" />
    </radialGradient>
    <radialGradient
       r="8.5592003"
       fy="1499.855"
       fx="264.8848"
       cy="1499.855"
       cx="264.8848"
       gradientTransform="translate(-232.54653,-1487.5738)"
       gradientUnits="userSpaceOnUse"
       id="radialGradient7843"
       xlink:href="#XMLID_878_"
       inkscape:collect="always" />
    <linearGradient
       inkscape:collect="always"
       xlink:href="#linearGradient8512"
       id="linearGradient8518"
       x1="31.801422"
       y1="24.978644"
       x2="34.932896"
       y2="25.442928"
       gradientUnits="userSpaceOnUse"
       gradientTransform="matrix(1.5612446,0,0,1.5397527,10.386077,-10.431492)" />
    <linearGradient
       inkscape:collect="always"
       xlink:href="#linearGradient8512"
       id="linearGradient8530"
       x1="30.435179"
       y1="28.521389"
       x2="34.870567"
       y2="28.557104"
       gradientUnits="userSpaceOnUse"
       gradientTransform="matrix(1.1947193,0,0,1.1918631,-6.8942109,-5.0152105)" />
    <linearGradient
       inkscape:collect="always"
       xlink:href="#linearGradient8550"
       id="linearGradient8548"
       x1="27.585608"
       y1="36.619061"
       x2="39.553822"
       y2="36.619061"
       gradientUnits="userSpaceOnUse"
       gradientTransform="translate(29.395439,1.7172593)" />
  </defs>
  <sodipodi:namedview
     id="base"
     pagecolor="#ffffff"
     bordercolor="#666666"
     borderopacity="1.0"
     inkscape:pageopacity="0.0"
     inkscape:pageshadow="2"
     inkscape:zoom="19.79899"
     inkscape:cx="27.485026"
     inkscape:cy="21.017422"
     inkscape:current-layer="layer1"
     showgrid="true"
     inkscape:grid-bbox="true"
     inkscape:document-units="px"
     inkscape:window-width="2880"
     inkscape:window-height="1557"
     inkscape:window-x="-8"
     inkscape:window-y="-8"
     inkscape:window-maximized="1" />
  <metadata
     id="metadata7850">
    <rdf:RDF>
      <cc:Work
         rdf:about="">
        <dc:format>image/svg+xml</dc:format>
        <dc:type
           rdf:resource="http://purl.org/dc/dcmitype/StillImage" />
        <dc:title />
      </cc:Work>
    </rdf:RDF>
  </metadata>
  <g
     id="layer1"
     inkscape:label="Layer 1"
     inkscape:groupmode="layer">
    <g
       transform="translate(-1.1432533,-2.7609172)"
       id="g7741">
      <polyline
         i:knockout="Off"
         points="246.203,1523.445 237.089,1530.839 234.291,1531.882      235.66,1529.078 243.88,1520.858 "
         id="polyline18054"
         style="fill:none;stroke:#3e444c"
         transform="translate(-232.54653,-1487.5738)" />
      <polyline
         i:knockout="Off"
         points="246.203,1523.445 237.087,1530.839 234.291,1531.882      235.658,1529.078 243.88,1520.858 "
         id="polyline18067"
         style="fill:url(#XMLID_869_)"
         transform="translate(-232.54653,-1487.5738)" />
      <path
         i:knockout="Off"
         d="m 25.75947,23.51468 c 3.822,4.477 5.478,12.314 1.722,15.297 -3.755,2.98 -10.614,0.967 -15.321,-4.5 -4.705,-5.467 -5.477,-12.315 -1.722,-15.297 3.755,-2.982 11.024,-0.535 15.321,4.5 z"
         id="path18069"
         style="fill:none;stroke:#0d7d81;stroke-opacity:1"
         inkscape:connector-curvature="0" />
      <path
         i:knockout="Off"
         d="m 27.12447,22.29668 c 3.851,4.516 5.543,12.398 1.789,15.382 -3.756,2.981 -10.645,0.929 -15.387,-4.583 -4.742,-5.513 -5.543,-12.398 -1.789,-15.38 3.756,-2.984 11.057,-0.496 15.387,4.581 z"
         id="path18071"
         style="fill:none;stroke:#0f9499;stroke-opacity:1"
         inkscape:connector-curvature="0" />
      <ellipse
         i:knockout="Off"
         transform="matrix(0.7831,-0.6219,0.6219,0.7831,-1119.5582,-1001.3142)"
         cx="253.55499"
         cy="1514.673"
         rx="7.7509999"
         ry="11.967"
         id="ellipse18073"
         sodipodi:cx="253.55499"
         sodipodi:cy="1514.673"
         sodipodi:rx="7.7509999"
         sodipodi:ry="11.967"
         style="fill:none;stroke:#0f9499;stroke-opacity:1"
         d="m 261.30599,1514.673 c 0,6.6092 -3.47024,11.967 -7.751,11.967 -4.28076,0 -7.751,-5.3578 -7.751,-11.967 0,-6.6092 3.47024,-11.967 7.751,-11.967 4.28076,0 7.751,5.3578 7.751,11.967 z" />
      <path
         i:knockout="Off"
         d="m 28.18647,29.75868 c -1.619,1.305 -4.923,0.063 -7.381,-2.771 -2.457,-2.835 -3.138,-6.19 -1.52,-7.495 l 0.182,-0.143 c 0.541,-0.325 8.143,-6.05 8.446,-6.283 0.36,-0.279 1.104,-1.201 1.462,-1.779 l 8.457,9.508 c -0.62,0.273 -1.701,0.934 -2.027,1.253 -0.273,0.268 -7,6.999 -7.397,7.489 l -0.222,0.221 z"
         id="path18075"
         style="fill:none;stroke:#0f9499;stroke-opacity:1"
         inkscape:connector-curvature="0" />
      <path
         i:knockout="Off"
         d="m 43.44947,21.24968 1.288,-1.084 c -2.154,1.625 -6.875,-0.465 -10.644,-4.74 -3.719,-4.221 -5.146,-9.019 -3.296,-10.914 l -1.275,1.304 c -1.855,1.891 -0.453,6.661 3.237,10.845 3.798,4.305 8.586,6.359 10.69,4.589 z"
         id="path18077"
         style="fill:none;stroke:#0f9499;stroke-opacity:1"
         inkscape:connector-curvature="0" />
      <ellipse
         i:knockout="Off"
         transform="matrix(0.765,-0.644,0.644,0.765,-1134.8325,-961.028)"
         cx="270.45099"
         cy="1499.792"
         rx="4.9809999"
         ry="10.488"
         id="ellipse18079"
         sodipodi:cx="270.45099"
         sodipodi:cy="1499.792"
         sodipodi:rx="4.9809999"
         sodipodi:ry="10.488"
         style="fill:none;stroke:#0f9499;stroke-opacity:1"
         d="m 275.43199,1499.792 c 0,5.7924 -2.23007,10.488 -4.981,10.488 -2.75093,0 -4.981,-4.6956 -4.981,-10.488 0,-5.7924 2.23007,-10.488 4.981,-10.488 2.75093,0 4.981,4.6956 4.981,10.488 z" />
      <path
         i:knockout="Off"
         d="m 25.75747,23.51468 c 3.822,4.477 5.479,12.314 1.724,15.297 -3.755,2.98 -10.615,0.967 -15.321,-4.5 -4.705,-5.467 -5.477,-12.315 -1.723,-15.297 3.755,-2.981 11.023,-0.535 15.32,4.5 z"
         id="path18088"
         style="fill:url(#linearGradient30967)"
         inkscape:connector-curvature="0" />
      <path
         i:knockout="Off"
         d="m 27.12447,22.29668 c 3.851,4.516 5.543,12.398 1.788,15.382 -3.755,2.981 -10.644,0.929 -15.386,-4.583 -4.742,-5.513 -5.543,-12.398 -1.789,-15.38 3.756,-2.984 11.057,-0.496 15.387,4.581 z"
         id="path18101"
         style="fill:url(#linearGradient30964)"
         inkscape:connector-curvature="0" />
      <path
         i:knockout="Off"
         d="m 27.07747,22.27868 c 4.305,5.012 5.079,11.234 1.728,13.897 -3.353,2.661 -9.561,0.755 -13.866,-4.257 -4.306,-5.014 -5.08,-11.236 -1.729,-13.898 3.352,-2.662 9.56,-0.756 13.867,4.258 z"
         id="path18112"
         style="fill:url(#radialGradient30961)"
         inkscape:connector-curvature="0" />
      <path
         i:knockout="Off"
         d="m 26.92847,22.37568 c 2.771,3.23 3.29,7.222 1.158,8.915 -2.132,1.693 -6.106,0.447 -8.879,-2.781 -2.771,-3.23 -3.29,-7.223 -1.157,-8.916 2.133,-1.693 6.107,-0.448 8.878,2.782 z"
         id="path18123"
         style="fill:url(#linearGradient30958);fill-opacity:1"
         inkscape:connector-curvature="0" />
      <path
         i:knockout="Off"
         d="m 28.18547,29.75868 c -1.618,1.305 -4.922,0.063 -7.38,-2.771 -2.457,-2.835 -3.139,-6.19 -1.521,-7.495 l 0.183,-0.143 c 0.539,-0.325 8.143,-6.05 8.446,-6.283 0.36,-0.279 1.104,-1.201 1.46,-1.779 l 8.459,9.508 c -0.621,0.273 -1.701,0.934 -2.027,1.253 -0.273,0.268 -7.001,6.999 -7.397,7.489 l -0.223,0.221 z"
         id="path18138"
         style="fill:url(#linearGradient30955)"
         inkscape:connector-curvature="0" />
      <path
         inkscape:connector-curvature="0"
         id="path31499"
         d="m 26.971073,13.806336 1.010153,-0.858629 1.818274,-2.020305 8.030713,9.899495 -1.818275,0.909137 -0.606091,0.757614 z"
         style="fill:url(#radialGradient31507);fill-opacity:1;stroke:none" />
      <path
         i:knockout="Off"
         a:adobe-blending-mode="multiply"
         d="m 28.18547,29.75868 c -1.618,1.305 -4.922,0.063 -7.38,-2.771 -2.457,-2.835 -3.139,-6.19 -1.521,-7.495 l 0.183,-0.143 c 0.539,-0.325 8.143,-6.05 8.446,-6.283 0.36,-0.279 1.104,-1.201 1.46,-1.779 l 8.459,9.508 c -0.621,0.273 -1.701,0.934 -2.027,1.253 -0.273,0.268 -7.001,6.999 -7.397,7.489 l -0.223,0.221 z"
         id="path18159"
         style="fill:none"
         inkscape:connector-curvature="0" />
      <path
         i:knockout="Off"
         d="m 43.44947,21.24968 1.287,-1.084 c -2.154,1.625 -6.874,-0.465 -10.643,-4.74 -3.72,-4.221 -5.146,-9.019 -3.298,-10.914 l -1.273,1.304 c -1.855,1.891 -0.455,6.661 3.236,10.845 3.799,4.305 8.587,6.359 10.691,4.589 z"
         id="path18189"
         style="fill:url(#linearGradient30948)"
         inkscape:connector-curvature="0" />
      <path
         i:knockout="Off"
         d="m 41.71547,9.00968 c 3.829,4.345 5.228,9.304 3.124,11.075 -2.105,1.771 -6.916,-0.315 -10.745,-4.66 -3.829,-4.346 -5.229,-9.304 -3.124,-11.075 2.105,-1.771 6.916,0.316 10.745,4.66 z"
         id="path18198"
         style="fill:url(#radialGradient7843)"
         inkscape:connector-curvature="0" />
    </g>
    <path
       sodipodi:type="arc"
       style="color:#000000;fill:#000000;fill-opacity:1;fill-rule:nonzero;stroke:#ffffff;stroke-width:0.89473683;stroke-linecap:butt;stroke-linejoin:miter;stroke-miterlimit:4;stroke-opacity:1;stroke-dasharray:none;stroke-dashoffset:2;marker:none;visibility:visible;display:inline;overflow:visible;enable-background:accumulate"
       id="path7996"
       sodipodi:cx="35.860416"
       sodipodi:cy="35.67614"
       sodipodi:rx="12.020815"
       sodipodi:ry="12.020815"
       d="m 47.881231,35.67614 a 12.020815,12.020815 0 1 1 -24.041629,0 12.020815,12.020815 0 1 1 24.041629,0 z"
       transform="matrix(1.1176471,0,0,1.1176471,-6.2391777,-5.9144523)" />
    <rect
       style="color:#000000;fill:#ffffff;fill-opacity:1;fill-rule:nonzero;stroke:#888a85;stroke-width:0.5;marker:none;visibility:visible;display:inline;overflow:visible;enable-background:accumulate;stroke-miterlimit:4;stroke-dasharray:none"
       id="rect8506"
       width="11.861071"
       height="15.455334"
       x="57.052475"
       y="30.524361"
       ry="2.0367494" />
    <path
       style="fill:url(#linearGradient8518);fill-opacity:1;stroke:#000000;stroke-width:0.5;stroke-miterlimit:4;stroke-dasharray:none"
       d="m 60.426188,30.954798 c 0.315418,-0.622155 1.919573,-6.60486 1.919573,-6.60486 0.284625,-0.478985 1.015318,-0.661369 1.522977,0 l 1.446445,6.760398 c -1.629665,1.596258 -3.25933,1.170943 -4.888995,-0.155538 z"
       id="path8510"
       inkscape:connector-curvature="0"
       sodipodi:nodetypes="ccccc" />
    <path
       id="path8539"
       style="color:#000000;fill:url(#linearGradient8548);fill-opacity:1;stroke:none;stroke-width:0.5;marker:none;visibility:visible;display:inline;overflow:visible;enable-background:accumulate"
       d="m 68.94926,39.764374 c 0,1.128359 -0.90839,2.03675 -2.036749,2.03675 l -7.787572,0 c -1.128359,0 -2.036749,-0.908391 -2.036749,-2.03675 m 0,0 -0.107143,-4.892857 c 0,1.128359 0.90839,2.03675 2.036749,2.03675 l 7.787572,0 c 1.128359,0 2.036749,-0.908391 2.036749,-2.03675 l 0.107143,4.892857"
       inkscape:connector-curvature="0" />
    <path
       style="fill:#fbc9c9;stroke:none;stroke-width:1px;stroke-linecap:butt;stroke-linejoin:miter;stroke-opacity:1;fill-opacity:1"
       d="m 31.264221,40.322841 1.414214,2.272843 14.344166,-8.384266 -0.303046,-3.990103 -2.929442,-5.252793 -5.000255,-3.434519 -5.656855,-1.161675 -3.788072,1.010152 z"
       id="path9415"
       inkscape:connector-curvature="0" />
    <path
       style="fill:none;stroke:#ffffff;stroke-width:1px;stroke-linecap:butt;stroke-linejoin:miter;stroke-opacity:1"
       d="m 31.112698,40.019794 1.616244,2.626397 14.243151,-8.384266"
       id="path9409"
       inkscape:connector-curvature="0"
       sodipodi:nodetypes="ccc" />
    <path
       style="fill:#729fcf;stroke:none;stroke-width:1px;stroke-linecap:butt;stroke-linejoin:miter;stroke-opacity:1"
       d="m 38.789858,36.130708 -13.788583,7.879189 -3.232488,-4.04061 -1.515228,-5.707362 1.161675,-5.858884 3.485026,-4.69721 4.394164,-2.424366 z"
       id="path9411"
       inkscape:connector-curvature="0" />
    <path
       style="fill:#fbc9c9;fill-opacity:1;stroke:none"
       d="m 31.365237,40.575379 3.939595,-9.242896 -1.868783,-2.929442 -3.737565,8.687312 z"
       id="path9417"
       inkscape:connector-curvature="0"
       sodipodi:nodetypes="ccccc" />
    <path
       sodipodi:nodetypes="ccccc"
       inkscape:connector-curvature="0"
       id="path9419"
       d="m 28.132748,34.817509 3.939595,-9.242896 -1.868783,-2.929442 -3.737565,8.687312 z"
       style="fill:#fbc9c9;fill-opacity:1;stroke:none" />
    <path
       style="fill:#fbc9c9;fill-opacity:1;stroke:none"
       d="m 25.001275,28.554563 2.842326,-6.668534 -4.509079,3.183508 z"
       id="path9421"
       inkscape:connector-curvature="0"
       sodipodi:nodetypes="cccc" />
    <path
       sodipodi:nodetypes="cccc"
       inkscape:connector-curvature="0"
       id="path9423"
       d="m 38.688843,36.484261 -1.565737,-2.272843 -1.490571,3.93552 z"
       style="fill:#fbc9c9;fill-opacity:1;stroke:none" />
    <path
       transform="matrix(1.1176471,0,0,1.1176471,-6.2391777,-5.9144523)"
       d="m 47.881231,35.67614 a 12.020815,12.020815 0 1 1 -24.041629,0 12.020815,12.020815 0 1 1 24.041629,0 z"
       sodipodi:ry="12.020815"
       sodipodi:rx="12.020815"
       sodipodi:cy="35.67614"
       sodipodi:cx="35.860416"
       id="path9413"
       style="color:#000000;fill:none;fill-opacity:1;fill-rule:nonzero;stroke:#ffffff;stroke-width:0.89473683000000004;stroke-linecap:butt;stroke-linejoin:miter;stroke-miterlimit:4;stroke-opacity:1;stroke-dasharray:none;stroke-dashoffset:2;marker:none;visibility:visible;display:inline;overflow:visible;enable-background:accumulate"
       sodipodi:type="arc" />
    <path
       style="fill:none;stroke:#ffffff;stroke-width:1px;stroke-linecap:butt;stroke-linejoin:miter;stroke-opacity:1"
       d="M 29.445946,21.483496 38.890873,36.0802 24.950768,43.858375"
       id="path9407"
       inkscape:connector-curvature="0"
       sodipodi:nodetypes="ccc" />
  </g>
</svg>
