<?xml version="1.0" encoding="UTF-8" standalone="no"?>
<!-- Created with Inkscape (http://www.inkscape.org/) -->

<svg
   xmlns:dc="http://purl.org/dc/elements/1.1/"
   xmlns:cc="http://creativecommons.org/ns#"
   xmlns:rdf="http://www.w3.org/1999/02/22-rdf-syntax-ns#"
   xmlns:svg="http://www.w3.org/2000/svg"
   xmlns="http://www.w3.org/2000/svg"
   xmlns:xlink="http://www.w3.org/1999/xlink"
   xmlns:sodipodi="http://sodipodi.sourceforge.net/DTD/sodipodi-0.dtd"
   xmlns:inkscape="http://www.inkscape.org/namespaces/inkscape"
   width="16"
   height="16"
   id="svg10797"
   version="1.1"
   inkscape:version="0.48.2 r9819"
   sodipodi:docname="inspect.svg">
  <defs
     id="defs10799">
    <linearGradient
       id="linearGradient11600">
      <stop
         style="stop-color:#61a7d0;stop-opacity:1;"
         offset="0"
         id="stop11602" />
      <stop
         style="stop-color:#235775;stop-opacity:1;"
         offset="1"
         id="stop11604" />
    </linearGradient>
    <linearGradient
       inkscape:collect="always"
       id="linearGradient11588">
      <stop
         style="stop-color:#83abd5;stop-opacity:1;"
         offset="0"
         id="stop11590" />
      <stop
         style="stop-color:#83abd5;stop-opacity:0;"
         offset="1"
         id="stop11592" />
    </linearGradient>
    <linearGradient
       inkscape:collect="always"
       id="linearGradient11580">
      <stop
         style="stop-color:#83abd5;stop-opacity:1;"
         offset="0"
         id="stop11582" />
      <stop
         style="stop-color:#83abd5;stop-opacity:0;"
         offset="1"
         id="stop11584" />
    </linearGradient>
    <linearGradient
       id="linearGradient11549">
      <stop
         style="stop-color:#91938e;stop-opacity:1;"
         offset="0"
         id="stop11551" />
      <stop
         id="stop11561"
         offset="0.07825203"
         style="stop-color:#555753;stop-opacity:1;" />
      <stop
         id="stop11559"
         offset="0.19105691"
         style="stop-color:#333431;stop-opacity:1;" />
      <stop
         id="stop11557"
         offset="0.3699187"
         style="stop-color:#2c2d2b;stop-opacity:1;" />
      <stop
         style="stop-color:#757872;stop-opacity:1;"
         offset="1"
         id="stop11553" />
    </linearGradient>
    <linearGradient
       id="linearGradient11530">
      <stop
         style="stop-color:#ffffff;stop-opacity:1;"
         offset="0"
         id="stop11532" />
      <stop
         style="stop-color:#c4e2dd;stop-opacity:1;"
         offset="1"
         id="stop11534" />
    </linearGradient>
    <linearGradient
       id="linearGradient11460">
      <stop
         id="stop11462"
         offset="0"
         style="stop-color:#2e3436;stop-opacity:1" />
      <stop
         style="stop-color:#d6d7d5;stop-opacity:1;"
         offset="0.38338271"
         id="stop11464" />
      <stop
         id="stop11466"
         offset="1"
         style="stop-color:#2e3436;stop-opacity:1" />
    </linearGradient>
    <linearGradient
       id="linearGradient11406">
      <stop
         style="stop-color:#2e3436;stop-opacity:1"
         offset="0"
         id="stop11408" />
      <stop
         id="stop11422"
         offset="0.46635795"
         style="stop-color:#d6d7d5;stop-opacity:1;" />
      <stop
         style="stop-color:#2e3436;stop-opacity:1"
         offset="1"
         id="stop11410" />
    </linearGradient>
    <linearGradient
       inkscape:collect="always"
       xlink:href="#linearGradient11406"
       id="linearGradient11412"
       x1="4.5689974"
       y1="8.3738604"
       x2="24.623533"
       y2="4.1945105"
       gradientUnits="userSpaceOnUse" />
    <linearGradient
       inkscape:collect="always"
       xlink:href="#linearGradient11460"
       id="linearGradient11412-8"
       x1="4.5689974"
       y1="8.3738604"
       x2="24.623533"
       y2="4.1945105"
       gradientUnits="userSpaceOnUse" />
    <linearGradient
       id="linearGradient11406-8">
      <stop
         style="stop-color:#2e3436;stop-opacity:1"
         offset="0"
         id="stop11408-1" />
      <stop
         id="stop11422-8"
         offset="0.46635795"
         style="stop-color:#d6d7d5;stop-opacity:1;" />
      <stop
         style="stop-color:#2e3436;stop-opacity:1"
         offset="1"
         id="stop11410-6" />
    </linearGradient>
    <linearGradient
       y2="4.1945105"
       x2="24.623533"
       y1="8.3738604"
       x1="4.5689974"
       gradientUnits="userSpaceOnUse"
       id="linearGradient11440"
       xlink:href="#linearGradient11406-8"
       inkscape:collect="always" />
    <radialGradient
       inkscape:collect="always"
       xlink:href="#linearGradient11530"
       id="radialGradient11536"
       cx="16.370396"
       cy="9.8658428"
       fx="16.370396"
       fy="9.8658428"
       r="5.7337046"
       gradientTransform="matrix(0.50797319,0,0,0.14511951,-0.00569233,19.023747)"
       gradientUnits="userSpaceOnUse" />
    <radialGradient
       inkscape:collect="always"
       xlink:href="#linearGradient11530"
       id="radialGradient11544"
       cx="13.097242"
       cy="23.331772"
       fx="13.097242"
       fy="23.331772"
       r="15.737539"
       gradientTransform="matrix(0.5301018,0.02244715,-0.01381361,0.38597758,-0.03721437,18.03906)"
       gradientUnits="userSpaceOnUse" />
    <linearGradient
       inkscape:collect="always"
       xlink:href="#linearGradient11549"
       id="linearGradient11555"
       x1="5.0902848"
       y1="12.130342"
       x2="27.058882"
       y2="12.130342"
       gradientUnits="userSpaceOnUse"
       gradientTransform="matrix(0.50797319,0,0,0.50796676,-0.00569233,15.443954)" />
    <linearGradient
       inkscape:collect="always"
       xlink:href="#linearGradient11580"
       id="linearGradient11586"
       x1="0.75907803"
       y1="20.881746"
       x2="6.3025389"
       y2="20.881746"
       gradientUnits="userSpaceOnUse"
       gradientTransform="matrix(0.47896671,0,0,0.52099531,0.45726573,15.253331)" />
    <linearGradient
       inkscape:collect="always"
       xlink:href="#linearGradient11588"
       id="linearGradient11594"
       x1="31.16683"
       y1="20.881746"
       x2="25.859947"
       y2="20.97105"
       gradientUnits="userSpaceOnUse"
       gradientTransform="matrix(0.47896671,0,0,0.52099531,0.45726573,15.253331)" />
    <linearGradient
       inkscape:collect="always"
       xlink:href="#linearGradient11600"
       id="linearGradient11606"
       x1="0.097958043"
       y1="23.285797"
       x2="31.823036"
       y2="23.285797"
       gradientUnits="userSpaceOnUse"
       gradientTransform="matrix(0.47896671,0,0,0.52099531,0.45726574,15.253331)" />
  </defs>
  <sodipodi:namedview
     id="base"
     pagecolor="#ffffff"
     bordercolor="#666666"
     borderopacity="1.0"
     inkscape:pageopacity="0.0"
     inkscape:pageshadow="2"
     inkscape:zoom="44.791208"
     inkscape:cx="4.9899042"
     inkscape:cy="6.6177324"
     inkscape:current-layer="layer1"
     showgrid="true"
     inkscape:grid-bbox="true"
     inkscape:document-units="px"
     inkscape:window-width="2560"
     inkscape:window-height="1468"
     inkscape:window-x="0"
     inkscape:window-y="0"
     inkscape:window-maximized="1" />
  <metadata
     id="metadata10802">
    <rdf:RDF>
      <cc:Work
         rdf:about="">
        <dc:format>image/svg+xml</dc:format>
        <dc:type
           rdf:resource="http://purl.org/dc/dcmitype/StillImage" />
        <dc:title />
      </cc:Work>
    </rdf:RDF>
  </metadata>
  <g
     id="layer1"
     inkscape:label="Layer 1"
     inkscape:groupmode="layer"
     transform="translate(0,-16)">
    <path
       style="color:#000000;fill:url(#radialGradient11544);fill-opacity:1;stroke:url(#linearGradient11606);stroke-width:0.37370059;stroke-linecap:butt;stroke-linejoin:miter;stroke-miterlimit:4;stroke-opacity:1;stroke-dasharray:none;stroke-dashoffset:0;marker:none;visibility:visible;display:inline;overflow:visible;enable-background:accumulate"
       d="m 2.4747335,22.908434 c 0,0 -1.84173,2.817375 -1.78986124,4.37046 0.084435,2.528201 3.86549884,4.567114 7.55839314,4.582834 3.6928946,0.01572 7.2053526,-2.179961 7.2753706,-4.456036 0.05355,-1.74077 -1.714248,-4.390044 -1.714248,-4.390044 z"
       id="path11384"
       inkscape:connector-curvature="0"
       sodipodi:nodetypes="cszscc" />
    <path
       sodipodi:nodetypes="ccscc"
       inkscape:connector-curvature="0"
       id="path11578"
       d="M 3.4759719,25.062513 C 1.5937434,26.354469 1.1228584,27.638937 1.4442413,29.087062 1.0224018,28.628827 0.847794,27.94753 0.82402859,27.365579 0.76415732,25.89947 1.556544,24.460038 2.40664,23.178187 z"
       style="fill:url(#linearGradient11586);fill-opacity:1;stroke:none" />
    <path
       style="fill:url(#linearGradient11594);fill-opacity:1;stroke:none"
       d="m 12.797357,25.109039 c 1.882229,1.291957 2.353114,2.576424 2.031731,4.024549 0.421839,-0.458235 0.596447,-1.139532 0.620212,-1.721483 0.05987,-1.466108 -0.732515,-2.905541 -1.582611,-4.187391 z"
       id="path11576"
       inkscape:connector-curvature="0"
       sodipodi:nodetypes="ccscc" />
    <path
       sodipodi:nodetypes="cszscc"
       inkscape:connector-curvature="0"
       id="path11572"
       d="m 2.728409,23.031833 c 0,0 -1.77270223,2.710433 -1.7227775,4.204567 0.08127,2.432236 3.7206205,4.393757 7.2751056,4.40888 3.5544849,0.01513 6.9352959,-2.097215 7.0026899,-4.286896 0.05154,-1.674694 -1.649997,-4.223407 -1.649997,-4.223407 z"
       style="color:#000000;fill:none;stroke:#ffffff;stroke-width:0.24913368;stroke-linecap:butt;stroke-linejoin:miter;stroke-miterlimit:4;stroke-opacity:1;stroke-dasharray:none;stroke-dashoffset:0;marker:none;visibility:visible;display:inline;overflow:visible;enable-background:accumulate" />
    <path
       style="fill:#ffffff;fill-opacity:1;stroke:none"
       d="m 9.7021292,26.595545 c 0.6094298,0.3235 1.1900308,0.704657 1.3835918,1.859885 0.998,-1.804967 1.996,-2.839012 2.994001,-4.150721 z"
       id="path11574"
       inkscape:connector-curvature="0"
       sodipodi:nodetypes="cccc" />
    <path
       sodipodi:nodetypes="cszscccccc"
       inkscape:connector-curvature="0"
       id="path11382"
       d="m 2.1443448,20.867755 c 0,0 -0.00418,1.310731 -0.016657,1.965954 -0.03395,1.782246 2.2192837,3.57213 6.2633179,3.565375 4.0440343,-0.0068 5.7605683,-1.842203 5.7969023,-3.681999 0.01218,-0.616323 0,-1.84933 0,-1.84933 l -0.227983,-0.297327 -3.020281,3.112973 -5.3638,-0.01666 -3.2188467,-3.132787 z"
       style="color:#000000;fill:#232829;fill-opacity:1;stroke:#1d1d1d;stroke-width:0.24913371;stroke-linecap:butt;stroke-linejoin:miter;stroke-miterlimit:4;stroke-opacity:1;stroke-dasharray:none;stroke-dashoffset:0;marker:none;visibility:visible;display:inline;overflow:visible;enable-background:accumulate" />
    <path
       style="color:#000000;fill:#2e3436;stroke:#171a1b;stroke-width:0.24913371;stroke-linecap:butt;stroke-linejoin:miter;stroke-miterlimit:4;stroke-opacity:1;stroke-dasharray:none;stroke-dashoffset:0;marker:none;visibility:visible;display:inline;overflow:visible;enable-background:accumulate"
       d="m 8.1695014,16.174156 c -2.5471427,-0.03555 -5.8254695,1.347427 -5.7940693,2.936683 0,0 -0.00386,1.258254 -0.015874,1.889001 -0.032688,1.71567 2.1226191,3.435278 6.0163075,3.428776 3.8936884,-0.0065 5.5527224,-1.768825 5.5877054,-3.539893 0.01172,-0.593301 0,-1.777884 0,-1.777884 0.005,-1.95767 -3.246927,-2.901136 -5.7940693,-2.936683 z"
       id="path10816"
       inkscape:connector-curvature="0"
       sodipodi:nodetypes="zcssscz" />
    <path
       style="color:#000000;fill:url(#linearGradient11555);fill-opacity:1;fill-rule:nonzero;stroke:none;stroke-width:0.5;marker:none;visibility:visible;display:inline;overflow:visible;enable-background:accumulate"
       d="m 2.5800359,19.087955 c 1.6526605,2.74653 3.4587773,2.986079 5.7879488,2.987007 2.6074433,9.97e-4 4.6063263,-0.916952 5.3715103,-2.987007 l 0,2.449606 c -1.566218,2.454087 -3.584976,2.567384 -5.4211826,2.585363 -1.8814065,0.01843 -4.013423,-0.344371 -5.7382765,-2.403911 z"
       id="rect11546"
       inkscape:connector-curvature="0"
       sodipodi:nodetypes="csccscc" />
    <path
       sodipodi:type="arc"
       style="color:#000000;fill:none;stroke:url(#linearGradient11412-8);stroke-width:1.63326824;stroke-linecap:butt;stroke-linejoin:miter;stroke-miterlimit:4;stroke-opacity:1;stroke-dasharray:none;stroke-dashoffset:0;marker:none;visibility:visible;display:inline;overflow:visible;enable-background:accumulate"
       id="path11353"
       sodipodi:cx="14.981608"
       sodipodi:cy="6.7885895"
       sodipodi:rx="10.277163"
       sodipodi:ry="5.0359674"
       d="m 25.258771,6.7885895 a 10.277163,5.0359674 0 1 1 -20.5543252,0 10.277163,5.0359674 0 1 1 20.5543252,0 z"
       transform="matrix(0.33176167,0,0,0.28053281,3.3905633,18.246914)" />
    <path
       sodipodi:type="arc"
       style="color:#000000;fill:none;stroke:url(#linearGradient11412);stroke-width:1.12968326;stroke-linecap:butt;stroke-linejoin:miter;stroke-miterlimit:4;stroke-opacity:1;stroke-dasharray:none;stroke-dashoffset:0;marker:none;visibility:visible;display:inline;overflow:visible;enable-background:accumulate"
       id="path11335"
       sodipodi:cx="14.981608"
       sodipodi:cy="6.7885895"
       sodipodi:rx="10.277163"
       sodipodi:ry="5.0359674"
       d="m 25.258771,6.7885895 a 10.277163,5.0359674 0 1 1 -20.5543252,0 10.277163,5.0359674 0 1 1 20.5543252,0 z"
       transform="matrix(0.43702351,0,0,0.44515042,1.7228444,16.295403)" />
    <path
       id="path11328"
       style="color:#000000;fill:url(#radialGradient11536);fill-opacity:1;fill-rule:nonzero;stroke:#171a1b;stroke-width:0.24913371;stroke-linecap:butt;stroke-linejoin:miter;stroke-miterlimit:4;stroke-opacity:1;stroke-dasharray:none;stroke-dashoffset:0;marker:none;visibility:visible;display:inline;overflow:visible;enable-background:accumulate"
       d="m 8.327793,21.160554 c -1.049844,0 -2.0237795,-0.164512 -2.8033373,-0.461075 0.5341222,-0.569529 1.5792591,-0.949086 2.7855621,-0.949086 1.2120843,0 2.2614532,0.383204 2.7855882,0.960479 -0.778544,0.290944 -1.7365559,0.449682 -2.767813,0.449682 z"
       inkscape:connector-curvature="0"
       sodipodi:nodetypes="scscs" />
    <path
       style="color:#000000;fill:#888a85;fill-opacity:1;fill-rule:nonzero;stroke:none;stroke-width:0.99999994;marker:none;visibility:visible;display:inline;overflow:visible;enable-background:accumulate"
       d="m 5.1747346,23.968444 0.7056933,0.753798 0.048118,1.95667 -0.7538091,-0.609454 z"
       id="rect11469"
       inkscape:connector-curvature="0"
       sodipodi:nodetypes="ccccc" />
    <path
       style="color:#000000;fill:#babdb6;fill-opacity:1;fill-rule:nonzero;stroke:none;stroke-width:0.99999994;marker:none;visibility:visible;display:inline;overflow:visible;enable-background:accumulate"
       d="m 6.5219666,24.257134 0.7698467,0.56134 0.016034,1.988745 -0.7858853,-0.449072 z"
       id="rect11471"
       inkscape:connector-curvature="0"
       sodipodi:nodetypes="ccccc" />
    <path
       style="color:#000000;fill:#d3d7cf;fill-opacity:1;fill-rule:nonzero;stroke:none;stroke-width:0.99999994;marker:none;visibility:visible;display:inline;overflow:visible;enable-background:accumulate"
       d="m 7.9493912,24.38544 0.7538079,0.529263 0.032079,2.03686 -0.7858844,-0.46511 z"
       id="rect11473"
       inkscape:connector-curvature="0"
       sodipodi:nodetypes="ccccc" />
    <path
       style="color:#000000;fill:#d3d7cf;fill-opacity:1;fill-rule:nonzero;stroke:none;stroke-width:0.99999994;marker:none;visibility:visible;display:inline;overflow:visible;enable-background:accumulate"
       d="m 9.3928531,24.305249 0.7538079,0.400957 0,2.052898 -0.7538079,-0.433033 z"
       id="rect11475"
       inkscape:connector-curvature="0"
       sodipodi:nodetypes="ccccc" />
    <path
       style="color:#000000;fill:#babdb6;fill-opacity:1;fill-rule:nonzero;stroke:none;stroke-width:0.99999994;marker:none;visibility:visible;display:inline;overflow:visible;enable-background:accumulate"
       d="m 10.80424,24.032598 0.753808,0.160383 0,2.13309 -0.753808,-0.192459 z"
       id="rect11477"
       inkscape:connector-curvature="0"
       sodipodi:nodetypes="ccccc" />
    <path
       style="color:#000000;fill:#888a85;fill-opacity:1;fill-rule:nonzero;stroke:none;stroke-width:0.99999994;marker:none;visibility:visible;display:inline;overflow:visible;enable-background:accumulate"
       d="m 12.119394,23.455221 0.753808,0 0,2.277434 -0.753808,-0.06415 z"
       id="rect11479"
       inkscape:connector-curvature="0"
       sodipodi:nodetypes="ccccc" />
    <path
       style="color:#000000;fill:#555753;fill-opacity:1;fill-rule:nonzero;stroke:none;stroke-width:0.99999994;marker:none;visibility:visible;display:inline;overflow:visible;enable-background:accumulate"
       d="m 13.274164,22.653306 0.73777,-0.384918 0.01603,2.245358 -0.753808,0.28869 z"
       id="rect11481"
       inkscape:connector-curvature="0"
       sodipodi:nodetypes="ccccc" />
    <path
       style="color:#000000;fill:#555753;fill-opacity:1;fill-rule:nonzero;stroke:none;stroke-width:0.99999994;marker:none;visibility:visible;display:inline;overflow:visible;enable-background:accumulate"
       d="m 3.8114643,23.342952 0.4362628,0.87271 0,1.99814 -0.4202243,-0.914181 z"
       id="rect11483"
       inkscape:connector-curvature="0"
       sodipodi:nodetypes="ccccc" />
    <path
       style="fill:#222628;fill-opacity:1;stroke:none"
       d="m 4.2410835,24.279815 0.9176123,-0.295333 0.016034,1.972708 -0.9657282,0.279294 z"
       id="path11493"
       inkscape:connector-curvature="0"
       sodipodi:nodetypes="ccccc" />
    <path
       inkscape:connector-curvature="0"
       id="path11495"
       d="m 5.9125043,24.706205 0.5934236,-0.352842 0.016034,1.972707 -0.6415388,0.320766 z"
       style="fill:#222628;fill-opacity:1;stroke:none"
       sodipodi:nodetypes="ccccc" />
    <path
       style="fill:#222628;fill-opacity:1;stroke:none"
       d="M 7.3238897,24.834511 7.9493902,24.385439 7.9173118,26.454376 7.2918113,26.79118 z"
       id="path11497"
       inkscape:connector-curvature="0"
       sodipodi:nodetypes="ccccc" />
    <path
       inkscape:connector-curvature="0"
       id="path11499"
       d="m 8.7352751,24.898664 0.6736162,-0.545301 -0.016039,2.020822 -0.6896545,0.481148 z"
       style="fill:#222628;fill-opacity:1;stroke:none"
       sodipodi:nodetypes="ccccc" />
    <path
       style="fill:#222628;fill-opacity:1;stroke:none"
       d="m 10.162699,24.706205 0.593424,-0.577378 0.03207,1.988746 -0.657577,0.545301 z"
       id="path11501"
       inkscape:connector-curvature="0"
       sodipodi:nodetypes="ccccc" />
    <path
       inkscape:connector-curvature="0"
       id="path11503"
       d="m 11.558047,24.209018 0.577385,-0.673607 0.01603,2.117052 -0.609461,0.657569 z"
       style="fill:#222628;fill-opacity:1;stroke:none"
       sodipodi:nodetypes="ccccc" />
    <path
       style="fill:#222628;fill-opacity:1;stroke:none"
       d="m 12.841125,23.471258 0.417,-0.801914 0.04811,2.133091 -0.465116,0.930219 z"
       id="path11505"
       inkscape:connector-curvature="0"
       sodipodi:nodetypes="ccccc" />
    <path
       inkscape:connector-curvature="0"
       id="path11507"
       d="m 14.04401,22.204234 -0.09623,-0.83399 -0.256617,0.625493 -0.465115,0.657569 z"
       style="fill:#222628;fill-opacity:1;stroke:none"
       sodipodi:nodetypes="ccccc" />
    <g
       style="font-size:4.53259706px;font-style:normal;font-variant:normal;font-weight:normal;font-stretch:normal;text-align:start;line-height:125%;letter-spacing:0px;word-spacing:0px;writing-mode:lr-tb;text-anchor:start;fill:#eeeeec;fill-opacity:1;stroke:none;font-family:Tahoma;-inkscape-font-specification:Tahoma"
       id="text11509"
       transform="matrix(0.45566818,0,0,0.45566242,0.84055677,16.223863)">
      <path
         d="m 14.743873,16.593002 -2.033915,0 0,-0.462555 c 0.14607,-0.138692 0.284025,-0.271483 0.413865,-0.398373 0.12984,-0.126888 0.256729,-0.258941 0.380668,-0.396159 0.250826,-0.275909 0.421978,-0.496858 0.513458,-0.662848 0.09148,-0.165987 0.137216,-0.337508 0.137217,-0.514565 -10e-7,-0.09148 -0.01439,-0.171888 -0.04316,-0.241237 -0.02877,-0.06934 -0.06824,-0.126886 -0.118405,-0.172628 -0.05164,-0.04426 -0.111398,-0.07746 -0.179268,-0.09959 -0.06787,-0.02213 -0.142382,-0.0332 -0.223531,-0.0332 -0.0782,3e-6 -0.157506,0.01 -0.237917,0.02988 -0.08041,0.01992 -0.157506,0.04463 -0.231278,0.07414 -0.06197,0.02509 -0.121725,0.05533 -0.179268,0.09074 -0.05754,0.03541 -0.10402,0.06566 -0.13943,0.09074 l -0.02434,0 0,-0.469194 c 0.09148,-0.04574 0.218736,-0.09037 0.381774,-0.133898 0.163037,-0.04352 0.31759,-0.06529 0.463661,-0.06529 0.306894,4e-6 0.547392,0.08152 0.721498,0.244557 0.174101,0.163041 0.261153,0.38399 0.261155,0.662848 -2e-6,0.128367 -0.01512,0.247141 -0.04537,0.356322 -0.03025,0.109186 -0.07193,0.210255 -0.125045,0.303206 -0.05459,0.09591 -0.120251,0.191073 -0.196973,0.285501 -0.07672,0.09443 -0.157875,0.187384 -0.24345,0.278861 -0.138694,0.150497 -0.293248,0.306895 -0.463662,0.469194 -0.170416,0.162301 -0.306526,0.290666 -0.408332,0.385094 l 1.62005,0 z"
         id="path11564"
         inkscape:connector-curvature="0" />
      <path
         d="m 17.222637,16.593002 -2.033915,0 0,-0.462555 c 0.14607,-0.138692 0.284025,-0.271483 0.413865,-0.398373 0.12984,-0.126888 0.256729,-0.258941 0.380668,-0.396159 0.250826,-0.275909 0.421978,-0.496858 0.513458,-0.662848 0.09148,-0.165987 0.137216,-0.337508 0.137217,-0.514565 -1e-6,-0.09148 -0.01439,-0.171888 -0.04316,-0.241237 -0.02877,-0.06934 -0.06824,-0.126886 -0.118405,-0.172628 -0.05164,-0.04426 -0.111398,-0.07746 -0.179268,-0.09959 -0.06787,-0.02213 -0.142382,-0.0332 -0.223531,-0.0332 -0.0782,3e-6 -0.157506,0.01 -0.237917,0.02988 -0.08041,0.01992 -0.157506,0.04463 -0.231278,0.07414 -0.06197,0.02509 -0.121725,0.05533 -0.179268,0.09074 -0.05754,0.03541 -0.10402,0.06566 -0.13943,0.09074 l -0.02434,0 0,-0.469194 c 0.09148,-0.04574 0.218736,-0.09037 0.381774,-0.133898 0.163037,-0.04352 0.317591,-0.06529 0.463662,-0.06529 0.306893,4e-6 0.547392,0.08152 0.721497,0.244557 0.174102,0.163041 0.261153,0.38399 0.261155,0.662848 -2e-6,0.128367 -0.01513,0.247141 -0.04537,0.356322 -0.03025,0.109186 -0.07193,0.210255 -0.125045,0.303206 -0.05459,0.09591 -0.120251,0.191073 -0.196973,0.285501 -0.07672,0.09443 -0.157875,0.187384 -0.24345,0.278861 -0.138694,0.150497 -0.293248,0.306895 -0.463662,0.469194 -0.170415,0.162301 -0.306526,0.290666 -0.408332,0.385094 l 1.62005,0 z"
         id="path11566"
         inkscape:connector-curvature="0" />
      <path
         d="m 19.648284,16.593002 -0.511245,0 -0.599772,-0.933963 -0.617478,0.933963 -0.471408,0 0.858715,-1.226103 -0.849862,-1.246021 0.511245,0 0.595346,0.92511 0.610838,-0.92511 0.473621,0 -0.854288,1.21725 z"
         id="path11568"
         inkscape:connector-curvature="0" />
    </g>
  </g>
</svg>
