<?xml version="1.0" encoding="UTF-8" standalone="no"?>
<!-- Created with Inkscape (http://www.inkscape.org/) -->

<svg
   xmlns:a="http://ns.adobe.com/AdobeSVGViewerExtensions/3.0/"
   xmlns:dc="http://purl.org/dc/elements/1.1/"
   xmlns:cc="http://creativecommons.org/ns#"
   xmlns:rdf="http://www.w3.org/1999/02/22-rdf-syntax-ns#"
   xmlns:svg="http://www.w3.org/2000/svg"
   xmlns="http://www.w3.org/2000/svg"
   xmlns:xlink="http://www.w3.org/1999/xlink"
   xmlns:sodipodi="http://sodipodi.sourceforge.net/DTD/sodipodi-0.dtd"
   xmlns:inkscape="http://www.inkscape.org/namespaces/inkscape"
   width="16px"
   height="16px"
   id="svg52968"
   version="1.1"
   inkscape:version="0.48.5 r10040"
   sodipodi:docname="New document 43">
  <defs
     id="defs52970">
    <linearGradient
       id="linearGradient53535">
      <stop
         style="stop-color:#fce94f;stop-opacity:1"
         offset="0"
         id="stop53537" />
      <stop
         style="stop-color:#ffcc0f;stop-opacity:1"
         offset="1"
         id="stop53539" />
    </linearGradient>
    <linearGradient
       y2="229.18871"
       x2="118.0705"
       y1="229.561"
       x1="103.9902"
       gradientUnits="userSpaceOnUse"
       id="XMLID_521_">
      <stop
         id="stop7615"
         style="stop-color:#ffe36c;stop-opacity:1;"
         offset="0" />
      <stop
         offset="0.23214285"
         style="stop-color:#fff89b;stop-opacity:1;"
         id="stop33300" />
      <stop
         id="stop7625"
         style="stop-color:#ffcc0f;stop-opacity:1;"
         offset="1" />
      <a:midPointStop
         style="stop-color:#FFFFFF"
         offset="0" />
      <a:midPointStop
         style="stop-color:#FFFFFF"
         offset="0.549" />
      <a:midPointStop
         style="stop-color:#F6E94F"
         offset="0.5393" />
      <a:midPointStop
         style="stop-color:#F6E94F"
         offset="0.6829" />
      <a:midPointStop
         style="stop-color:#EBD30F"
         offset="1" />
    </linearGradient>
    <radialGradient
       inkscape:collect="always"
       xlink:href="#linearGradient53535"
       id="radialGradient53543"
       cx="7.5870466"
       cy="6.5602889"
       fx="7.5870466"
       fy="6.5602889"
       r="5.9313655"
       gradientTransform="matrix(1,0,0,1.0924831,0,-0.60671555)"
       gradientUnits="userSpaceOnUse" />
    <radialGradient
       inkscape:collect="always"
       xlink:href="#linearGradient53535"
       id="radialGradient53559"
       gradientUnits="userSpaceOnUse"
       gradientTransform="matrix(1,0,0,1.0924831,0,-0.60671555)"
       cx="7.5870466"
       cy="6.5602889"
       fx="7.5870466"
       fy="6.5602889"
       r="5.9313655" />
    <radialGradient
       inkscape:collect="always"
       xlink:href="#linearGradient53535"
       id="radialGradient53567"
       gradientUnits="userSpaceOnUse"
       gradientTransform="matrix(1,0,0,1.0924831,0,-0.60671555)"
       cx="7.5870466"
       cy="6.5602889"
       fx="7.5870466"
       fy="6.5602889"
       r="5.9313655" />
    <radialGradient
       inkscape:collect="always"
       xlink:href="#linearGradient53535"
       id="radialGradient53569"
       gradientUnits="userSpaceOnUse"
       gradientTransform="matrix(1,0,0,1.0924831,0,-0.60671555)"
       cx="7.5870466"
       cy="6.5602889"
       fx="7.5870466"
       fy="6.5602889"
       r="5.9313655" />
    <linearGradient
       inkscape:collect="always"
       xlink:href="#linearGradient-3"
       id="linearGradient60041"
       gradientUnits="userSpaceOnUse"
       gradientTransform="scale(0.82642236,1.210035)"
       x1="0.015321008"
       y1="0.32699364"
       x2="6.1027517"
       y2="9.0320396" />
    <linearGradient
       x1="0.015321008"
       y1="0.32699364"
       x2="6.1027517"
       y2="9.0320396"
       id="linearGradient-3"
       gradientTransform="scale(0.82642236,1.210035)"
       gradientUnits="userSpaceOnUse">
      <stop
         stop-color="#FFFFFF"
         offset="0%"
         id="stop60001" />
      <stop
         stop-color="#BCBCB4"
         offset="100%"
         id="stop60003" />
    </linearGradient>
    <linearGradient
       inkscape:collect="always"
       xlink:href="#linearGradient-4"
       id="linearGradient60043"
       gradientUnits="userSpaceOnUse"
       gradientTransform="scale(0.82642236,1.210035)"
       x1="-0.48182887"
       y1="2.4156578"
       x2="9.044219"
       y2="6.743856" />
    <linearGradient
       x1="-0.48182887"
       y1="2.4156578"
       x2="9.044219"
       y2="6.743856"
       id="linearGradient-4"
       gradientTransform="scale(0.82642236,1.210035)"
       gradientUnits="userSpaceOnUse">
      <stop
         stop-color="#6E6E6E"
         offset="0%"
         id="stop60006" />
      <stop
         stop-color="#000000"
         offset="100%"
         id="stop60008" />
    </linearGradient>
    <linearGradient
       inkscape:collect="always"
       xlink:href="#linearGradient-3-6"
       id="linearGradient60041-3"
       gradientUnits="userSpaceOnUse"
       gradientTransform="scale(0.82642236,1.210035)"
       x1="0.015321008"
       y1="0.32699364"
       x2="6.1027517"
       y2="9.0320396" />
    <linearGradient
       x1="0.015321008"
       y1="0.32699364"
       x2="6.1027517"
       y2="9.0320396"
       id="linearGradient-3-6"
       gradientTransform="scale(0.82642236,1.210035)"
       gradientUnits="userSpaceOnUse">
      <stop
         stop-color="#FFFFFF"
         offset="0%"
         id="stop60001-4" />
      <stop
         stop-color="#BCBCB4"
         offset="100%"
         id="stop60003-4" />
    </linearGradient>
    <linearGradient
       inkscape:collect="always"
       xlink:href="#linearGradient-4-9"
       id="linearGradient60043-1"
       gradientUnits="userSpaceOnUse"
       gradientTransform="scale(0.82642236,1.210035)"
       x1="-0.48182887"
       y1="2.4156578"
       x2="9.044219"
       y2="6.743856" />
    <linearGradient
       x1="-0.48182887"
       y1="2.4156578"
       x2="9.044219"
       y2="6.743856"
       id="linearGradient-4-9"
       gradientTransform="scale(0.82642236,1.210035)"
       gradientUnits="userSpaceOnUse">
      <stop
         stop-color="#6E6E6E"
         offset="0%"
         id="stop60006-5" />
      <stop
         stop-color="#000000"
         offset="100%"
         id="stop60008-5" />
    </linearGradient>
  </defs>
  <sodipodi:namedview
     id="base"
     pagecolor="#ffffff"
     bordercolor="#666666"
     borderopacity="1.0"
     inkscape:pageopacity="0.0"
     inkscape:pageshadow="2"
     inkscape:zoom="22.197802"
     inkscape:cx="0.83712865"
     inkscape:cy="7.6170792"
     inkscape:current-layer="g53551"
     showgrid="true"
     inkscape:grid-bbox="true"
     inkscape:document-units="px"
     inkscape:snap-global="false"
     showguides="true"
     inkscape:guide-bbox="true"
     inkscape:window-width="2560"
     inkscape:window-height="1537"
     inkscape:window-x="-8"
     inkscape:window-y="-8"
     inkscape:window-maximized="1">
    <inkscape:grid
       type="xygrid"
       id="grid52976" />
  </sodipodi:namedview>
  <metadata
     id="metadata52973">
    <rdf:RDF>
      <cc:Work
         rdf:about="">
        <dc:format>image/svg+xml</dc:format>
        <dc:type
           rdf:resource="http://purl.org/dc/dcmitype/StillImage" />
        <dc:title></dc:title>
      </cc:Work>
    </rdf:RDF>
  </metadata>
  <g
     id="layer1"
     inkscape:label="Layer 1"
     inkscape:groupmode="layer">
    <g
       id="g53551"
       transform="matrix(0.80386962,0,0,0.80386962,-0.21576721,0.42670417)">
      <g
         id="g53561"
         transform="translate(-4.2030609,-3.5866119)">
        <g
           transform="translate(3.5827416,3.8234125)"
           id="g53547"
           style="font-size:40px;font-style:normal;font-variant:normal;font-weight:normal;font-stretch:normal;text-align:start;line-height:125%;letter-spacing:0px;word-spacing:0px;writing-mode:lr-tb;text-anchor:start;fill:none;stroke:#554400;stroke-width:1.24398279;stroke-opacity:1;font-family:Adobe Caslon Pro;-inkscape-font-specification:Adobe Caslon Pro">
          <path
             style="fill:none;stroke:#554400;stroke-width:1.54749322;stroke-opacity:1"
             inkscape:connector-curvature="0"
             id="path53549"
             d="M 7.5599155,13.040205 C 8.0857351,13.019388 8.4340635,12.861057 8.6049018,12.565212 8.7757249,12.269399 8.8540572,11.96107 8.8398991,11.640224 8.8270516,11.407651 8.7327319,10.921732 8.5569397,10.182464 8.3811324,9.4432335 8.2008879,8.7262063 8.0162058,8.0313798 7.8315096,7.3365953 7.7194124,6.9395642 7.679914,6.8402853 l 0.079999,-0.079999 c 0.1524911,0.212519 0.6874836,0.7675114 1.604979,1.6649789 0.917479,0.8975087 1.54247,1.4625007 1.874976,1.6949778 0.334152,0.190849 0.685813,0.279181 1.054986,0.264996 0.369151,-0.01415 0.670813,-0.195812 0.904989,-0.5449923 C 13.527325,9.25194 13.602324,8.8186125 13.424839,8.5402628 13.247329,8.2619541 13.012333,8.0686237 12.719849,7.9602709 12.53663,7.8807866 12.067501,7.7331341 11.312459,7.517313 10.557397,7.3015349 9.8156789,7.0946243 9.0873019,6.8965807 8.3589086,6.6985813 7.9431124,6.5864841 7.8399119,6.5602889 l 0,-0.079999 C 7.9527429,6.4692022 8.3581694,6.3758701 9.0561924,6.2002935 9.7541993,6.0247626 10.46777,5.8336538 11.196905,5.6269666 11.92602,5.4203262 12.393668,5.2647731 12.599851,5.1603069 12.936502,4.9853325 13.173165,4.7553355 13.309842,4.4703152 13.446494,4.185344 13.383162,3.8153493 13.119844,3.3603301 12.891501,3.0070269 12.618171,2.803696 12.299854,2.7503368 11.981514,2.69703 11.668185,2.7536963 11.359867,2.9203358 11.024861,3.1570246 10.38487,3.7336831 9.4398913,4.6503129 8.4948959,5.5669914 7.9349037,6.1236505 7.759913,6.320292 L 7.679914,6.240293 C 7.7194132,6.1405639 7.8315104,5.7400756 8.0162058,5.0388267 8.2008872,4.3376258 8.3811314,3.6141789 8.5569391,2.8684839 8.7327317,2.1228412 8.8270516,1.6334655 8.8398991,1.4003553 8.8490576,0.97788815 8.7607254,0.65289237 8.5749022,0.425367 8.3890638,0.19789878 8.0507353,0.08290067 7.5599155,0.08037233 7.1040817,0.09040131 6.7757526,0.22039971 6.5749273,0.47036791 6.3740909,0.72039317 6.2757592,1.0303887 6.279932,1.4003553 6.293507,1.5959353 6.3907897,2.0670398 6.5717802,2.8136703 6.7527596,3.5603532 6.9359668,4.289232 7.1214024,5.000309 7.3068257,5.711434 7.4129972,6.1114284 7.4399171,6.2002935 l -0.079999,0.079999 C 7.2049136,6.0903181 6.6549208,5.5603254 5.7099382,4.690313 4.7649461,3.8203492 4.1149555,3.2703568 3.7599645,3.0403342 3.4474652,2.8620288 3.1124693,2.7786965 2.7549759,2.7903368 2.397479,2.8020297 2.0924837,3.0186935 1.8399892,3.4403291 1.6224912,3.8645152 1.5974917,4.2261767 1.7649904,4.5253148 1.9324877,4.8245018 2.1574845,5.0361657 2.4399815,5.1603069 2.6350388,5.2388475 3.107131,5.379586 3.8562593,5.582523 4.605382,5.7855068 5.3411744,5.9795783 6.0636387,6.1647382 6.7860929,6.3499437 7.2048524,6.4551275 7.3199186,6.4802899 l 0,0.079999 C 7.1937413,6.5729046 6.7794261,6.6766068 6.0769717,6.8713959 5.3745071,7.0662293 4.6609367,7.2765965 3.9362583,7.5024983 3.2115741,7.728443 2.7528151,7.8943669 2.5599799,8.0002704 2.3574809,8.1019561 2.1424836,8.3086197 1.9149873,8.6202618 c -0.2274981,0.3116828 -0.212498,0.718344 0.045,1.2199849 0.2299965,0.3533473 0.5199927,0.5466773 0.8699894,0.5799923 0.3499932,0.03335 0.6999881,-0.05331 1.0499859,-0.259996 C 4.1724556,9.9419314 4.7474476,9.4086055 5.6049404,8.5602632 6.4624241,7.7119617 7.047416,7.1386364 7.3599181,6.8402853 l 0.079999,0 C 7.4129972,6.9417878 7.3068257,7.347708 7.1214024,8.0580469 6.9359668,8.7684278 6.7527594,9.4943437 6.5717796,10.235797 c -0.1809909,0.74149 -0.2782733,1.209632 -0.2918476,1.404427 -0.00417,0.373345 0.09416,0.696674 0.2949959,0.969986 0.2008249,0.273346 0.5291538,0.416677 0.9849876,0.429995 z" />
        </g>
        <g
           style="font-size:40px;font-style:normal;font-variant:normal;font-weight:normal;font-stretch:normal;text-align:start;line-height:125%;letter-spacing:0px;word-spacing:0px;writing-mode:lr-tb;text-anchor:start;fill:url(#radialGradient53569);fill-opacity:1;stroke:none;font-family:Adobe Caslon Pro;-inkscape-font-specification:Adobe Caslon Pro"
           id="text52978"
           transform="translate(3.5827416,3.8234125)">
          <path
             d="M 7.5599155,13.040205 C 8.0857351,13.019388 8.4340635,12.861057 8.6049018,12.565212 8.7757249,12.269399 8.8540572,11.96107 8.8398991,11.640224 8.8270516,11.407651 8.7327319,10.921732 8.5569397,10.182464 8.3811324,9.4432335 8.2008879,8.7262063 8.0162058,8.0313798 7.8315096,7.3365953 7.7194124,6.9395642 7.679914,6.8402853 l 0.079999,-0.079999 c 0.1524911,0.212519 0.6874836,0.7675114 1.604979,1.6649789 0.917479,0.8975087 1.54247,1.4625007 1.874976,1.6949778 0.334152,0.190849 0.685813,0.279181 1.054986,0.264996 0.369151,-0.01415 0.670813,-0.195812 0.904989,-0.5449923 C 13.527325,9.25194 13.602324,8.8186125 13.424839,8.5402628 13.247329,8.2619541 13.012333,8.0686237 12.719849,7.9602709 12.53663,7.8807866 12.067501,7.7331341 11.312459,7.517313 10.557397,7.3015349 9.8156789,7.0946243 9.0873019,6.8965807 8.3589086,6.6985813 7.9431124,6.5864841 7.8399119,6.5602889 l 0,-0.079999 C 7.9527429,6.4692022 8.3581694,6.3758701 9.0561924,6.2002935 9.7541993,6.0247626 10.46777,5.8336538 11.196905,5.6269666 11.92602,5.4203262 12.393668,5.2647731 12.599851,5.1603069 12.936502,4.9853325 13.173165,4.7553355 13.309842,4.4703152 13.446494,4.185344 13.383162,3.8153493 13.119844,3.3603301 12.891501,3.0070269 12.618171,2.803696 12.299854,2.7503368 11.981514,2.69703 11.668185,2.7536963 11.359867,2.9203358 11.024861,3.1570246 10.38487,3.7336831 9.4398913,4.6503129 8.4948959,5.5669914 7.9349037,6.1236505 7.759913,6.320292 L 7.679914,6.240293 C 7.7194132,6.1405639 7.8315104,5.7400756 8.0162058,5.0388267 8.2008872,4.3376258 8.3811314,3.6141789 8.5569391,2.8684839 8.7327317,2.1228412 8.8270516,1.6334655 8.8398991,1.4003553 8.8490576,0.97788815 8.7607254,0.65289237 8.5749022,0.425367 8.3890638,0.19789878 8.0507353,0.08290067 7.5599155,0.08037233 7.1040817,0.09040131 6.7757526,0.22039971 6.5749273,0.47036791 6.3740909,0.72039317 6.2757592,1.0303887 6.279932,1.4003553 6.293507,1.5959353 6.3907897,2.0670398 6.5717802,2.8136703 6.7527596,3.5603532 6.9359668,4.289232 7.1214024,5.000309 7.3068257,5.711434 7.4129972,6.1114284 7.4399171,6.2002935 l -0.079999,0.079999 C 7.2049136,6.0903181 6.6549208,5.5603254 5.7099382,4.690313 4.7649461,3.8203492 4.1149555,3.2703568 3.7599645,3.0403342 3.4474652,2.8620288 3.1124693,2.7786965 2.7549759,2.7903368 2.397479,2.8020297 2.0924837,3.0186935 1.8399892,3.4403291 1.6224912,3.8645152 1.5974917,4.2261767 1.7649904,4.5253148 1.9324877,4.8245018 2.1574845,5.0361657 2.4399815,5.1603069 2.6350388,5.2388475 3.107131,5.379586 3.8562593,5.582523 4.605382,5.7855068 5.3411744,5.9795783 6.0636387,6.1647382 6.7860929,6.3499437 7.2048524,6.4551275 7.3199186,6.4802899 l 0,0.079999 C 7.1937413,6.5729046 6.7794261,6.6766068 6.0769717,6.8713959 5.3745071,7.0662293 4.6609367,7.2765965 3.9362583,7.5024983 3.2115741,7.728443 2.7528151,7.8943669 2.5599799,8.0002704 2.3574809,8.1019561 2.1424836,8.3086197 1.9149873,8.6202618 c -0.2274981,0.3116828 -0.212498,0.718344 0.045,1.2199849 0.2299965,0.3533473 0.5199927,0.5466773 0.8699894,0.5799923 0.3499932,0.03335 0.6999881,-0.05331 1.0499859,-0.259996 C 4.1724556,9.9419314 4.7474476,9.4086055 5.6049404,8.5602632 6.4624241,7.7119617 7.047416,7.1386364 7.3599181,6.8402853 l 0.079999,0 C 7.4129972,6.9417878 7.3068257,7.347708 7.1214024,8.0580469 6.9359668,8.7684278 6.7527594,9.4943437 6.5717796,10.235797 c -0.1809909,0.74149 -0.2782733,1.209632 -0.2918476,1.404427 -0.00417,0.373345 0.09416,0.696674 0.2949959,0.969986 0.2008249,0.273346 0.5291538,0.416677 0.9849876,0.429995 z"
             id="path52983"
             inkscape:connector-curvature="0"
             style="fill:url(#radialGradient53567);fill-opacity:1" />
        </g>
      </g>
      <g
         style="fill:none;stroke:none"
         id="Group-7"
         transform="matrix(1.2439828,0,0,1.2439828,10.027495,5.1560166)">
        <polygon
           id="polygon7493-4"
           points="0.09949274,10.458536 2.4066324,8.1510897 3.7109375,11.089844 5.4978218,10.348985 4.1935167,7.4114569 7.4559898,7.4114569 0.09949274,0.054347 "
           style="fill:url(#linearGradient60041-3);stroke:url(#linearGradient60043-1);stroke-width:0.56922543" />
        <polygon
           id="polygon7495-7"
           points="2.3675227,7.2796707 0.89928993,1.7212964 0.96560534,8.5674254 2.3675227,7.2796707 "
           style="fill:#ffffff" />
      </g>
    </g>
  </g>
</svg>
