<?xml version="1.0" encoding="UTF-8"?>
<svg width="16px" height="16px" viewBox="0 0 16 16" version="1.1" xmlns="http://www.w3.org/2000/svg" xmlns:xlink="http://www.w3.org/1999/xlink">
    <!-- Generator: Sketch 40.1 (33804) - http://www.bohemiancoding.com/sketch -->
    <title>16</title>
    <desc>Created with Sketch.</desc>
    <defs>
        <path d="M1.42951883,3.91412073 C1.43333714,3.90782373 3.01224032,3.33606915 3.61697115,4.27416427 C4.22170198,5.2122594 4.94076947,5.5201642 5.30284389,5.02994944 C5.66491832,4.53973467 5.54506587,3.75548611 5.36378663,3.1972021 C5.18250739,2.63891809 4.74704997,0.633911733 6.15396082,0.584008367 C7.56087168,0.534105 7.14497015,2.00052466 6.95662368,2.82026006 C6.76827721,3.63999546 6.52440943,4.54163575 7.01074122,4.78782569 C7.497073,5.03401564 8.29552456,4.7417773 8.55512418,4.50451187 C8.8147238,4.26724645 9.90602968,3.87942601 10.2982124,4.6964154 C10.6903952,5.5134048 9.98071963,6.36186764 9.38281277,6.44503992 C8.78490591,6.52821219 8.05756228,6.86581243 7.92493074,7.28341647 C7.7922992,7.70102051 8.50967126,8.67051882 8.55667316,9.23387238 C8.60367507,9.79722594 8.39301359,10.8779375 7.48414869,10.9282633 C6.57528379,10.9785891 6.27807297,10.4143906 6.22095427,9.985961 C6.16383558,9.55753135 6.29138453,8.99544518 5.92137157,8.90076081 C5.55135861,8.80607643 5.22936408,8.93476903 5.01487855,9.38653971 C4.80039302,9.8383104 4.49538888,10.2654727 4.02222343,9.91504013 C3.54905799,9.5646076 3.59412367,9.00864713 3.79979937,8.69581376 C4.00547507,8.38298038 4.26899555,8.05018565 4.23070666,7.52110436 C4.19241778,6.99202306 3.64373948,6.35663967 3.01538546,6.25868121 C2.38703143,6.16072275 1.54148031,5.59997043 1.4096241,5.22290912 C1.27776789,4.8458478 1.12186013,4.42149763 1.42951883,3.91412073 Z" id="path-1"></path>
        <mask id="mask-2" maskContentUnits="userSpaceOnUse" maskUnits="objectBoundingBox" x="-0.5" y="-0.5" width="10.1599998" height="11.3486411">
            <rect x="0.751008254" y="0.082766786" width="10.1599998" height="11.3486411" fill="white"></rect>
            <use xlink:href="#path-1" fill="black"></use>
        </mask>
        <linearGradient x1="2.4954394%" y1="5.39383408%" x2="65.9696418%" y2="96.1621493%" id="linearGradient-3">
            <stop stop-color="#FFFFFF" offset="0%"></stop>
            <stop stop-color="#BCBCB4" offset="100%"></stop>
        </linearGradient>
        <linearGradient x1="-2.68838817%" y1="27.1725259%" x2="96.6405873%" y2="72.3030455%" id="linearGradient-4">
            <stop stop-color="#6E6E6E" offset="0%"></stop>
            <stop stop-color="#000000" offset="100%"></stop>
        </linearGradient>
    </defs>
    <g id="Page-1" stroke="none" stroke-width="1" fill="none" fill-rule="evenodd">
        <g id="16">
            <g id="Path" transform="translate(5.831008, 5.757087) rotate(-88.000000) translate(-5.831008, -5.757087) ">
                <use fill="#B8E986" fill-rule="evenodd" xlink:href="#path-1"></use>
                <use stroke="#749552" mask="url(#mask-2)" stroke-width="1" xlink:href="#path-1"></use>
            </g>
            <g id="Group" transform="translate(6.000000, 4.500000)">
                <polygon id="polygon7493" stroke="url(#linearGradient-4)" stroke-width="0.569225402" fill="url(#linearGradient-3)" points="3.7109375 11.0898438 5.49782176 10.3489854 4.19351665 7.41145687 7.45598983 7.41145687 0.09949274 0.054347 0.09949274 10.4585357 2.40663239 8.15108969"></polygon>
                <polygon id="polygon7495" fill="#FFFFFF" points="2.36752266 7.27967072 0.89928993 1.72129639 0.965605335 8.56742538 2.36752266 7.27967072"></polygon>
            </g>
        </g>
    </g>
</svg>