<?xml version="1.0" encoding="UTF-8" standalone="no"?>
<!-- Created with Inkscape (http://www.inkscape.org/) -->

<svg
   xmlns:dc="http://purl.org/dc/elements/1.1/"
   xmlns:cc="http://creativecommons.org/ns#"
   xmlns:rdf="http://www.w3.org/1999/02/22-rdf-syntax-ns#"
   xmlns:svg="http://www.w3.org/2000/svg"
   xmlns="http://www.w3.org/2000/svg"
   xmlns:xlink="http://www.w3.org/1999/xlink"
   xmlns:sodipodi="http://sodipodi.sourceforge.net/DTD/sodipodi-0.dtd"
   xmlns:inkscape="http://www.inkscape.org/namespaces/inkscape"
   width="16"
   height="16"
   id="svg1306"
   sodipodi:version="0.32"
   inkscape:version="0.92.4 (5da689c313, 2019-01-14)"
   sodipodi:docname="primtype_volume.svg"
   version="1.1">
  <defs
     id="defs1308">
    <linearGradient
       id="linearGradient9073">
      <stop
         id="stop9075"
         offset="0"
         style="stop-color:#74726e;stop-opacity:1;" />
      <stop
         id="stop9077"
         offset="1"
         style="stop-color:#5d5b58;stop-opacity:0;" />
    </linearGradient>
    <linearGradient
       inkscape:collect="always"
       id="linearGradient9061">
      <stop
         style="stop-color:#5d5b58;stop-opacity:1;"
         offset="0"
         id="stop9063" />
      <stop
         style="stop-color:#5d5b58;stop-opacity:0;"
         offset="1"
         id="stop9065" />
    </linearGradient>
    <linearGradient
       inkscape:collect="always"
       id="linearGradient9035">
      <stop
         style="stop-color:#888a85;stop-opacity:1;"
         offset="0"
         id="stop9037" />
      <stop
         style="stop-color:#51534f;stop-opacity:1"
         offset="1"
         id="stop9039" />
    </linearGradient>
    <linearGradient
       id="linearGradient9027">
      <stop
         style="stop-color:#2e3436;stop-opacity:0.61855668;"
         offset="0"
         id="stop9029" />
      <stop
         style="stop-color:#2e3436;stop-opacity:0;"
         offset="1"
         id="stop9031" />
    </linearGradient>
    <linearGradient
       inkscape:collect="always"
       id="linearGradient6549">
      <stop
         style="stop-color:#ffffff;stop-opacity:1;"
         offset="0"
         id="stop6551" />
      <stop
         style="stop-color:#ffffff;stop-opacity:0;"
         offset="1"
         id="stop6553" />
    </linearGradient>
    <linearGradient
       inkscape:collect="always"
       id="linearGradient6527">
      <stop
         style="stop-color:#ffffff;stop-opacity:1;"
         offset="0"
         id="stop6530" />
      <stop
         style="stop-color:#ffffff;stop-opacity:0;"
         offset="1"
         id="stop6532" />
    </linearGradient>
    <linearGradient
       inkscape:collect="always"
       id="linearGradient6538">
      <stop
         style="stop-color:#ffffff;stop-opacity:1;"
         offset="0"
         id="stop6540" />
      <stop
         style="stop-color:#ffffff;stop-opacity:0;"
         offset="1"
         id="stop6542" />
    </linearGradient>
    <linearGradient
       inkscape:collect="always"
       id="linearGradient6513">
      <stop
         style="stop-color:#ffffff;stop-opacity:1;"
         offset="0"
         id="stop6515" />
      <stop
         style="stop-color:#ffffff;stop-opacity:0;"
         offset="1"
         id="stop6517" />
    </linearGradient>
    <linearGradient
       inkscape:collect="always"
       id="linearGradient6497">
      <stop
         style="stop-color:#ffffff;stop-opacity:1;"
         offset="0"
         id="stop6499" />
      <stop
         style="stop-color:#ffffff;stop-opacity:0;"
         offset="1"
         id="stop6501" />
    </linearGradient>
    <linearGradient
       inkscape:collect="always"
       id="linearGradient6470">
      <stop
         style="stop-color:#ffffff;stop-opacity:1;"
         offset="0"
         id="stop6472" />
      <stop
         style="stop-color:#ffffff;stop-opacity:0;"
         offset="1"
         id="stop6474" />
    </linearGradient>
    <linearGradient
       inkscape:collect="always"
       xlink:href="#linearGradient6497"
       id="linearGradient7996"
       gradientUnits="userSpaceOnUse"
       x1="287.5173"
       y1="-439.75281"
       x2="289.67633"
       y2="-436.32199" />
    <linearGradient
       inkscape:collect="always"
       xlink:href="#linearGradient6513"
       id="linearGradient7998"
       gradientUnits="userSpaceOnUse"
       x1="286.51172"
       y1="-441.29074"
       x2="289.85379"
       y2="-436.14453" />
    <linearGradient
       inkscape:collect="always"
       xlink:href="#linearGradient6538"
       id="linearGradient8000"
       gradientUnits="userSpaceOnUse"
       x1="285.94086"
       y1="-439.939"
       x2="289.39124"
       y2="-436.4429" />
    <linearGradient
       inkscape:collect="always"
       xlink:href="#linearGradient6527"
       id="linearGradient8002"
       gradientUnits="userSpaceOnUse"
       x1="275.94193"
       y1="-437.10501"
       x2="279.97546"
       y2="-431.91833" />
    <linearGradient
       inkscape:collect="always"
       xlink:href="#linearGradient6549"
       id="linearGradient8004"
       gradientUnits="userSpaceOnUse"
       x1="286.66589"
       y1="-439.48358"
       x2="289.76562"
       y2="-436.70703"
       gradientTransform="matrix(0.45039948,0,0,0.39791074,-126.46185,212.27875)" />
    <linearGradient
       inkscape:collect="always"
       xlink:href="#linearGradient6538"
       id="linearGradient8006"
       gradientUnits="userSpaceOnUse"
       x1="284.80219"
       y1="-441.23294"
       x2="288.89954"
       y2="-436.83109" />
    <linearGradient
       inkscape:collect="always"
       xlink:href="#linearGradient6538"
       id="linearGradient8089"
       gradientUnits="userSpaceOnUse"
       x1="286.41476"
       y1="-435.78354"
       x2="290.07755"
       y2="-439.28937" />
    <linearGradient
       inkscape:collect="always"
       xlink:href="#linearGradient6549"
       id="linearGradient8091"
       gradientUnits="userSpaceOnUse"
       x1="286.2952"
       y1="-435.6282"
       x2="289.39493"
       y2="-438.18988"
       gradientTransform="matrix(0.45039948,0,0,0.39791074,-126.46766,133.29932)" />
    <linearGradient
       inkscape:collect="always"
       xlink:href="#linearGradient6470"
       id="linearGradient8093"
       gradientUnits="userSpaceOnUse"
       x1="276.61383"
       y1="-431.00018"
       x2="283.46283"
       y2="-438.72214" />
    <linearGradient
       inkscape:collect="always"
       xlink:href="#linearGradient6538"
       id="linearGradient8095"
       gradientUnits="userSpaceOnUse"
       x1="286.01407"
       y1="-435.54623"
       x2="288.375"
       y2="-438.97083" />
    <linearGradient
       inkscape:collect="always"
       xlink:href="#linearGradient6513"
       id="linearGradient8097"
       gradientUnits="userSpaceOnUse"
       x1="287.14722"
       y1="-434.80862"
       x2="289.4725"
       y2="-437.59375" />
    <linearGradient
       inkscape:collect="always"
       xlink:href="#linearGradient6497"
       id="linearGradient8099"
       gradientUnits="userSpaceOnUse"
       x1="286.24631"
       y1="-434.73236"
       x2="290.12119"
       y2="-439.69016" />
    <linearGradient
       inkscape:collect="always"
       xlink:href="#linearGradient6470"
       id="linearGradient8130"
       gradientUnits="userSpaceOnUse"
       gradientTransform="matrix(0.47389356,0,0,0.41981354,-124.80968,219.56469)"
       x1="271.0217"
       y1="-441.05182"
       x2="285.02859"
       y2="-431.96991" />
    <linearGradient
       inkscape:collect="always"
       xlink:href="#linearGradient6538"
       id="linearGradient9023"
       gradientUnits="userSpaceOnUse"
       x1="286.41476"
       y1="-435.78354"
       x2="288.375"
       y2="-437.8876" />
    <radialGradient
       inkscape:collect="always"
       xlink:href="#linearGradient9027"
       id="radialGradient9033"
       cx="23.334522"
       cy="44.420273"
       fx="23.334522"
       fy="44.420273"
       r="18.561552"
       gradientTransform="matrix(0.37485122,0,0,0.07229269,-0.82670367,43.329015)"
       gradientUnits="userSpaceOnUse" />
    <linearGradient
       inkscape:collect="always"
       xlink:href="#linearGradient9035"
       id="linearGradient9041"
       x1="20.730019"
       y1="29.8146"
       x2="23.295853"
       y2="45.055626"
       gradientUnits="userSpaceOnUse"
       gradientTransform="matrix(0.32287638,0,0,0.32288161,0.3885069,32.119856)" />
    <linearGradient
       inkscape:collect="always"
       xlink:href="#linearGradient9061"
       id="linearGradient9067"
       x1="29.123692"
       y1="38.897343"
       x2="27.355925"
       y2="34.879128"
       gradientUnits="userSpaceOnUse"
       gradientTransform="matrix(0.32648337,0,0,0.32648337,0.30193818,32.037798)" />
    <linearGradient
       inkscape:collect="always"
       xlink:href="#linearGradient9073"
       id="linearGradient9071"
       gradientUnits="userSpaceOnUse"
       x1="29.123692"
       y1="38.897343"
       x2="27.355925"
       y2="34.879128"
       gradientTransform="matrix(0.29932558,-0.13036713,0.13036713,0.29932558,-1.030247,34.640636)" />
  </defs>
  <sodipodi:namedview
     id="base"
     pagecolor="#ffffff"
     bordercolor="#666666"
     borderopacity="1.0"
     inkscape:pageopacity="0.0"
     inkscape:pageshadow="2"
     inkscape:zoom="16.970563"
     inkscape:cx="26.117226"
     inkscape:cy="24.938886"
     inkscape:current-layer="layer1"
     showgrid="true"
     inkscape:grid-bbox="false"
     inkscape:document-units="px"
     inkscape:window-width="2880"
     inkscape:window-height="1557"
     inkscape:window-x="-8"
     inkscape:window-y="-8"
     inkscape:showpageshadow="false"
     showguides="true"
     inkscape:guide-bbox="true"
     inkscape:window-maximized="1" />
  <metadata
     id="metadata1311">
    <rdf:RDF>
      <cc:Work
         rdf:about="">
        <dc:format>image/svg+xml</dc:format>
        <dc:type
           rdf:resource="http://purl.org/dc/dcmitype/StillImage" />
        <dc:title></dc:title>
        <dc:date>January 2006</dc:date>
        <dc:creator>
          <cc:Agent>
            <dc:title>Ryan Collier (pseudo)</dc:title>
          </cc:Agent>
        </dc:creator>
        <dc:publisher>
          <cc:Agent>
            <dc:title>http://www.tango-project.org</dc:title>
          </cc:Agent>
        </dc:publisher>
        <dc:source>http://www.pseudocode.org</dc:source>
        <dc:subject>
          <rdf:Bag>
            <rdf:li>weather</rdf:li>
            <rdf:li>applet</rdf:li>
            <rdf:li>notify</rdf:li>
          </rdf:Bag>
        </dc:subject>
        <cc:license
           rdf:resource="http://creativecommons.org/licenses/by-sa/2.0/" />
      </cc:Work>
      <cc:License
         rdf:about="http://creativecommons.org/licenses/by-sa/2.0/">
        <cc:permits
           rdf:resource="http://web.resource.org/cc/Reproduction" />
        <cc:permits
           rdf:resource="http://web.resource.org/cc/Distribution" />
        <cc:requires
           rdf:resource="http://web.resource.org/cc/Notice" />
        <cc:requires
           rdf:resource="http://web.resource.org/cc/Attribution" />
        <cc:permits
           rdf:resource="http://web.resource.org/cc/DerivativeWorks" />
        <cc:requires
           rdf:resource="http://web.resource.org/cc/ShareAlike" />
      </cc:License>
    </rdf:RDF>
  </metadata>
  <g
     id="layer1"
     inkscape:label="Layer 1"
     inkscape:groupmode="layer"
     transform="translate(0,-32)">
    <ellipse
       style="color:#000000;display:inline;overflow:visible;visibility:visible;opacity:1;fill:url(#radialGradient9033);fill-opacity:1;fill-rule:evenodd;stroke:none;stroke-width:0.74970245;stroke-linecap:round;stroke-linejoin:miter;stroke-miterlimit:4;stroke-dasharray:none;stroke-dashoffset:0;stroke-opacity:0.50196078;marker:none;marker-start:none;marker-mid:none;marker-end:none"
       id="path9025"
       cx="7.92027"
       cy="46.540276"
       rx="6.9578204"
       ry="1.3418654" />
    <path
       id="path7796"
       style="fill:#c4c5c2;fill-opacity:1;stroke:url(#linearGradient9041);stroke-width:0.48972517;stroke-linecap:butt;stroke-linejoin:miter;stroke-miterlimit:2;stroke-dasharray:none;stroke-dashoffset:0;stroke-opacity:1"
       d="m 14.505595,39.507708 c 0.176562,0.280777 0.514666,0.943691 0.514666,1.287456 0,0.732588 -0.477204,1.348841 -1.152706,1.683737 0.08913,0.224769 0.169063,0.454535 0.169063,0.706083 0,1.199256 -1.10168,2.17256 -2.459107,2.172565 -0.411527,0 -0.781023,-0.113482 -1.121968,-0.271571 -0.29944,0.901493 -1.2039398,1.57511 -2.3207819,1.57511 -1.1168435,0 -2.0213428,-0.673617 -2.3207832,-1.57511 -0.340945,0.158089 -0.7104412,0.271571 -1.121967,0.271571 -1.3574276,0 -2.4591129,-0.973304 -2.4591078,-2.172565 0,-0.251552 0.079931,-0.48131 0.1690634,-0.706083 -0.675502,-0.334896 -1.1527062,-0.951149 -1.1527062,-1.683737 0,-0.389798 0.1293211,-1.307425 0.3282011,-1.635312 -0.2136816,-0.311195 -0.3223923,-0.646289 -0.3223923,-1.003678 0,-0.732589 0.4772043,-1.348841 1.1527062,-1.683738 -0.089133,-0.224773 -0.1690634,-0.454531 -0.1690634,-0.706083 -5.2e-6,-1.199259 1.10168,-2.172564 2.4591072,-2.172564 0.4115267,0 0.7810223,0.113482 1.1219679,0.27157 0.2994404,-0.901492 1.2039398,-1.575109 2.3207826,-1.575109 1.1168428,0 2.0213414,0.673617 2.3207824,1.575109 0.340945,-0.158088 0.710441,-0.27157 1.121968,-0.27157 1.357428,4e-6 2.459107,0.973309 2.459107,2.172564 0,0.251548 -0.07993,0.481314 -0.169064,0.706083 0.675503,0.334897 1.152707,0.951149 1.152707,1.683738 0,0.334234 -0.352923,1.076276 -0.520475,1.351534 z"
       sodipodi:nodetypes="cscsscccsscscscsscccsscsc"
       inkscape:connector-curvature="0" />
    <g
       id="g7800"
       transform="matrix(0.49731548,0,0,0.43936011,-131.35062,227.95898)">
      <circle
         transform="matrix(1.056604,0,0,1.056604,-24.19818,21.86331)"
         id="path7802"
         style="opacity:1;fill:#c4c5c2;fill-opacity:1;stroke:none;stroke-width:1;stroke-linecap:butt;stroke-linejoin:miter;stroke-miterlimit:2;stroke-dasharray:none;stroke-dashoffset:0;stroke-opacity:1"
         cx="288.375"
         cy="-437.59375"
         r="3.3125" />
      <circle
         transform="matrix(1.056604,0,0,1.056604,-24.19818,21.86331)"
         id="path7804"
         style="opacity:1;fill:url(#linearGradient7996);fill-opacity:1;stroke:none;stroke-width:1;stroke-linecap:butt;stroke-linejoin:miter;stroke-miterlimit:2;stroke-dasharray:none;stroke-dashoffset:0;stroke-opacity:1"
         cx="288.375"
         cy="-437.59375"
         r="3.3125" />
    </g>
    <rect
       style="fill:#c4c5c2;fill-opacity:1;stroke:none;stroke-width:0.32648337;stroke-linecap:butt;stroke-linejoin:miter;stroke-miterlimit:2;stroke-dasharray:none;stroke-dashoffset:0;stroke-opacity:1"
       id="rect7806"
       width="9.9463148"
       height="3.9542391"
       x="3.4219744"
       y="35.51936" />
    <ellipse
       style="fill:#c4c5c2;fill-opacity:1;stroke:none;stroke-width:0.42334241;stroke-linecap:butt;stroke-linejoin:miter;stroke-miterlimit:2;stroke-dasharray:none;stroke-dashoffset:0;stroke-opacity:1"
       id="path7808"
       cx="3.4220271"
       cy="38.155563"
       rx="1.4919482"
       ry="1.3180794" />
    <g
       id="g7810"
       transform="matrix(0.49731548,0,0,0.43936011,-131.35062,227.95898)">
      <circle
         transform="matrix(1.056604,0,0,1.056604,-17.19811,24.86321)"
         id="path7812"
         style="opacity:1;fill:#c4c5c2;fill-opacity:1;stroke:none;stroke-width:1;stroke-linecap:butt;stroke-linejoin:miter;stroke-miterlimit:2;stroke-dasharray:none;stroke-dashoffset:0;stroke-opacity:1"
         cx="288.375"
         cy="-437.59375"
         r="3.3125" />
      <circle
         transform="matrix(1.056604,0,0,1.056604,-17.19818,24.86331)"
         id="path7814"
         style="opacity:1;fill:url(#linearGradient7998);fill-opacity:1;stroke:none;stroke-width:1;stroke-linecap:butt;stroke-linejoin:miter;stroke-miterlimit:2;stroke-dasharray:none;stroke-dashoffset:0;stroke-opacity:1"
         cx="288.375"
         cy="-437.59375"
         r="3.3125" />
    </g>
    <g
       id="g7816"
       transform="matrix(0.49731548,0,0,0.43936011,-131.35062,227.95898)">
      <circle
         transform="matrix(1.056604,0,0,1.056604,-31.19818,24.86331)"
         id="path7818"
         style="opacity:1;fill:#c4c5c2;fill-opacity:1;stroke:none;stroke-width:1;stroke-linecap:butt;stroke-linejoin:miter;stroke-miterlimit:2;stroke-dasharray:none;stroke-dashoffset:0;stroke-opacity:1"
         cx="288.375"
         cy="-437.59375"
         r="3.3125" />
      <circle
         transform="matrix(1.056604,0,0,1.056604,-31.19818,24.86331)"
         id="path7820"
         style="opacity:1;fill:url(#linearGradient8000);fill-opacity:1;stroke:none;stroke-width:1;stroke-linecap:butt;stroke-linejoin:miter;stroke-miterlimit:2;stroke-dasharray:none;stroke-dashoffset:0;stroke-opacity:1"
         cx="288.375"
         cy="-437.59375"
         r="3.3125" />
    </g>
    <g
       id="g7822"
       transform="matrix(0.49731548,0,0,0.43936011,-131.84793,227.95898)">
      <path
         id="path7824"
         d="m 280.46875,-440.96875 c -3.57938,0 -6.46875,2.92063 -6.46875,6.5 0,2.37068 1.34943,4.33779 3.25,5.46875 h 6.46875 c 1.90057,-1.13096 3.25,-3.12931 3.25,-5.5 0,-3.57938 -2.92063,-6.46875 -6.5,-6.46875 z"
         style="opacity:1;fill:#c4c5c2;fill-opacity:1;stroke:none;stroke-width:1;stroke-linecap:butt;stroke-linejoin:miter;stroke-miterlimit:2;stroke-dasharray:none;stroke-dashoffset:0;stroke-opacity:1"
         inkscape:connector-curvature="0" />
      <path
         id="path7826"
         d="m 280.5,-441 c -3.588,0 -6.5,2.91201 -6.5,6.5 0,2.3764 1.34485,4.36632 3.25,5.5 h 6.5 c 1.90515,-1.13368 3.25,-3.1236 3.25,-5.5 0,-3.588 -2.912,-6.49999 -6.5,-6.5 z"
         style="opacity:1;fill:url(#linearGradient8002);fill-opacity:1;stroke:none;stroke-width:1;stroke-linecap:butt;stroke-linejoin:miter;stroke-miterlimit:2;stroke-dasharray:none;stroke-dashoffset:0;stroke-opacity:1"
         inkscape:connector-curvature="0" />
    </g>
    <ellipse
       style="fill:url(#linearGradient8004);fill-opacity:1;stroke:none;stroke-width:0.42334241;stroke-linecap:butt;stroke-linejoin:miter;stroke-miterlimit:2;stroke-dasharray:none;stroke-dashoffset:0;stroke-opacity:1"
       id="path7828"
       cx="3.422092"
       cy="38.155499"
       rx="1.4919482"
       ry="1.3180794" />
    <g
       id="g7832"
       transform="matrix(0.56836086,0,0,0.50212555,-145.55964,257.39612)">
      <circle
         transform="matrix(1.056604,0,0,1.056604,-31.19818,24.86331)"
         id="path7834"
         style="opacity:1;fill:#c4c5c2;fill-opacity:1;stroke:none;stroke-width:1;stroke-linecap:butt;stroke-linejoin:miter;stroke-miterlimit:2;stroke-dasharray:none;stroke-dashoffset:0;stroke-opacity:1"
         cx="288.375"
         cy="-437.59375"
         r="3.3125" />
      <circle
         transform="matrix(1.056604,0,0,1.056604,-31.19818,24.86331)"
         id="path7836"
         style="opacity:1;fill:url(#linearGradient8006);fill-opacity:1;stroke:none;stroke-width:1;stroke-linecap:butt;stroke-linejoin:miter;stroke-miterlimit:2;stroke-dasharray:none;stroke-dashoffset:0;stroke-opacity:1"
         cx="288.375"
         cy="-437.59375"
         r="3.3125" />
    </g>
    <g
       id="g8014"
       transform="matrix(0.49731548,0,0,-0.43936011,-131.35649,-148.97957)">
      <circle
         transform="matrix(1.056604,0,0,1.056604,-24.19818,21.86331)"
         id="path8016"
         style="opacity:1;fill:#c4c5c2;fill-opacity:1;stroke:none;stroke-width:1;stroke-linecap:butt;stroke-linejoin:miter;stroke-miterlimit:2;stroke-dasharray:none;stroke-dashoffset:0;stroke-opacity:1"
         cx="288.375"
         cy="-437.59375"
         r="3.3125" />
      <circle
         transform="matrix(1.056604,0,0,1.056604,-24.19818,21.86331)"
         id="path8018"
         style="opacity:1;fill:url(#linearGradient8099);fill-opacity:1;stroke:none;stroke-width:1;stroke-linecap:butt;stroke-linejoin:miter;stroke-miterlimit:2;stroke-dasharray:none;stroke-dashoffset:0;stroke-opacity:1"
         cx="288.375"
         cy="-437.59375"
         r="3.3125" />
    </g>
    <rect
       style="fill:#c4c5c2;fill-opacity:1;stroke:none;stroke-width:0.32648337;stroke-linecap:butt;stroke-linejoin:miter;stroke-miterlimit:2;stroke-dasharray:none;stroke-dashoffset:0;stroke-opacity:1"
       id="rect8020"
       width="9.9463148"
       height="3.9542391"
       x="3.4161005"
       y="-43.460106"
       transform="scale(1,-1)" />
    <ellipse
       style="fill:#c4c5c2;fill-opacity:1;stroke:none;stroke-width:0.42334241;stroke-linecap:butt;stroke-linejoin:miter;stroke-miterlimit:2;stroke-dasharray:none;stroke-dashoffset:0;stroke-opacity:1"
       id="path8022"
       transform="scale(1,-1)"
       cx="3.4162154"
       cy="-40.823837"
       rx="1.4919482"
       ry="1.3180794" />
    <g
       id="g8024"
       transform="matrix(0.49731548,0,0,-0.43936011,-131.35649,-148.97957)">
      <circle
         transform="matrix(1.056604,0,0,1.056604,-17.19811,24.86321)"
         id="path8026"
         style="opacity:1;fill:#c4c5c2;fill-opacity:1;stroke:none;stroke-width:1;stroke-linecap:butt;stroke-linejoin:miter;stroke-miterlimit:2;stroke-dasharray:none;stroke-dashoffset:0;stroke-opacity:1"
         cx="288.375"
         cy="-437.59375"
         r="3.3125" />
      <circle
         transform="matrix(1.056604,0,0,1.056604,-17.19818,24.86331)"
         id="path8028"
         style="opacity:1;fill:url(#linearGradient8097);fill-opacity:1;stroke:none;stroke-width:1;stroke-linecap:butt;stroke-linejoin:miter;stroke-miterlimit:2;stroke-dasharray:none;stroke-dashoffset:0;stroke-opacity:1"
         cx="288.375"
         cy="-437.59375"
         r="3.3125" />
    </g>
    <g
       id="g8030"
       transform="matrix(0.49731548,0,0,-0.43936011,-131.35649,-148.97957)">
      <circle
         transform="matrix(1.056604,0,0,1.056604,-31.19818,24.86331)"
         id="path8032"
         style="opacity:1;fill:#c4c5c2;fill-opacity:1;stroke:none;stroke-width:1;stroke-linecap:butt;stroke-linejoin:miter;stroke-miterlimit:2;stroke-dasharray:none;stroke-dashoffset:0;stroke-opacity:1"
         cx="288.375"
         cy="-437.59375"
         r="3.3125" />
      <circle
         transform="matrix(1.056604,0,0,1.056604,-31.19818,24.86331)"
         id="path8034"
         style="opacity:1;fill:url(#linearGradient8095);fill-opacity:1;stroke:none;stroke-width:1;stroke-linecap:butt;stroke-linejoin:miter;stroke-miterlimit:2;stroke-dasharray:none;stroke-dashoffset:0;stroke-opacity:1"
         cx="288.375"
         cy="-437.59375"
         r="3.3125" />
    </g>
    <g
       id="g8036"
       transform="matrix(0.49731548,0,0,-0.43936011,-131.8538,-148.97957)">
      <path
         id="path8038"
         d="m 280.46875,-440.96875 c -3.57938,0 -6.46875,2.92063 -6.46875,6.5 0,2.37068 1.34943,4.33779 3.25,5.46875 h 6.46875 c 1.90057,-1.13096 3.25,-3.12931 3.25,-5.5 0,-3.57938 -2.92063,-6.46875 -6.5,-6.46875 z"
         style="opacity:1;fill:#c4c5c2;fill-opacity:1;stroke:none;stroke-width:1;stroke-linecap:butt;stroke-linejoin:miter;stroke-miterlimit:2;stroke-dasharray:none;stroke-dashoffset:0;stroke-opacity:1"
         inkscape:connector-curvature="0" />
      <path
         id="path8040"
         d="m 280.5,-441 c -3.588,0 -6.5,2.91201 -6.5,6.5 0,2.3764 1.34485,4.36632 3.25,5.5 h 6.5 c 1.90515,-1.13368 3.25,-3.1236 3.25,-5.5 0,-3.588 -2.912,-6.49999 -6.5,-6.5 z"
         style="opacity:1;fill:url(#linearGradient8093);fill-opacity:1;stroke:none;stroke-width:1;stroke-linecap:butt;stroke-linejoin:miter;stroke-miterlimit:2;stroke-dasharray:none;stroke-dashoffset:0;stroke-opacity:1"
         inkscape:connector-curvature="0" />
    </g>
    <ellipse
       style="fill:url(#linearGradient8091);fill-opacity:1;stroke:none;stroke-width:0.42334241;stroke-linecap:butt;stroke-linejoin:miter;stroke-miterlimit:2;stroke-dasharray:none;stroke-dashoffset:0;stroke-opacity:1"
       id="path8042"
       transform="scale(1,-1)"
       cx="3.4162807"
       cy="-40.823933"
       rx="1.4919482"
       ry="1.3180794" />
    <g
       id="g8046"
       transform="matrix(0.56836086,0,0,-0.50212555,-146.90122,-179.30178)">
      <circle
         transform="matrix(1.056604,0,0,1.056604,-31.19818,24.86331)"
         id="path8048"
         style="opacity:1;fill:#c4c5c2;fill-opacity:1;stroke:none;stroke-width:1;stroke-linecap:butt;stroke-linejoin:miter;stroke-miterlimit:2;stroke-dasharray:none;stroke-dashoffset:0;stroke-opacity:1"
         cx="288.375"
         cy="-437.59375"
         r="3.3125" />
      <circle
         transform="matrix(1.056604,0,0,1.056604,-31.19818,24.86331)"
         id="path8050"
         style="opacity:1;fill:url(#linearGradient8089);fill-opacity:1;stroke:none;stroke-width:1;stroke-linecap:butt;stroke-linejoin:miter;stroke-miterlimit:2;stroke-dasharray:none;stroke-dashoffset:0;stroke-opacity:1"
         cx="288.375"
         cy="-437.59375"
         r="3.3125" />
    </g>
    <g
       id="g9017"
       transform="matrix(0.56836086,0,0,-0.50212555,-143.75866,-180.26885)">
      <circle
         transform="matrix(1.056604,0,0,1.056604,-31.19818,24.86331)"
         id="path9019"
         style="opacity:1;fill:#c4c5c2;fill-opacity:1;stroke:none;stroke-width:1;stroke-linecap:butt;stroke-linejoin:miter;stroke-miterlimit:2;stroke-dasharray:none;stroke-dashoffset:0;stroke-opacity:1"
         cx="288.375"
         cy="-437.59375"
         r="3.3125" />
      <circle
         transform="matrix(1.056604,0,0,1.056604,-31.19818,24.86331)"
         id="path9021"
         style="opacity:1;fill:url(#linearGradient9023);fill-opacity:1;stroke:none;stroke-width:1;stroke-linecap:butt;stroke-linejoin:miter;stroke-miterlimit:2;stroke-dasharray:none;stroke-dashoffset:0;stroke-opacity:1"
         cx="288.375"
         cy="-437.59375"
         r="3.3125" />
    </g>
    <path
       id="path7798"
       style="fill:url(#linearGradient8130);fill-opacity:1;stroke:#ffffff;stroke-width:0.32648316;stroke-linecap:butt;stroke-linejoin:miter;stroke-miterlimit:2;stroke-dashoffset:0;stroke-opacity:0.50196078"
       d="m 2.0998984,39.23566 c -0.3242146,0.319716 -0.3855806,1.149528 -0.3855806,1.62398 0,0.622185 0.5271591,1.167757 1.1547983,1.47336 -0.082813,0.205109 -0.2094423,0.477846 -0.2094423,0.707388 -4.8e-6,1.094337 0.9011563,1.93704 2.1884929,1.93704 0.3823658,0 0.8639125,-0.234355 1.1806908,-0.378612 0.3184333,1.05279 1.012863,1.699841 2.0505569,1.699841 1.0376992,0 1.8289441,-0.67397 2.1364296,-1.690567 0.31678,0.144258 0.90725,0.378616 1.28962,0.378616 1.26123,-5e-6 2.069102,-0.851984 2.069102,-1.946318 0,-0.229537 -0.137103,-0.550527 -0.21992,-0.755631 0.627639,-0.305603 1.154798,-0.756619 1.154798,-1.425117 0,-0.43795 -0.276812,-0.81045 -0.574757,-1.32728 0.287996,-0.522866 0.580354,-0.971586 0.580354,-1.432117 0,-0.668499 -0.52716,-1.119515 -1.154798,-1.425118 0.08282,-0.205104 0.219919,-0.526094 0.219919,-0.755631 0,-1.094333 -1.002668,-1.917554 -2.263898,-1.917558 -0.38237,0 -0.778042,0.2056 -1.094822,0.349856 -0.3074871,-1.016597 -1.0662653,-1.60429 -2.1039636,-1.60429 -1.0376944,0 -1.7645904,0.560775 -2.0830234,1.613564 -0.3167786,-0.144257 -0.7333927,-0.349853 -1.1157582,-0.349853 -1.2873367,0 -2.2534306,0.813944 -2.2534259,1.908281 0,0.229541 0.1266293,0.559797 0.2094422,0.764905 -0.6276391,0.305603 -1.1547982,0.793658 -1.1547982,1.415844 0,0.460533 0.074073,0.818776 0.3799835,1.135417 z"
       sodipodi:nodetypes="cscsscccsscscscsscccsscss"
       inkscape:connector-curvature="0" />
    <path
       style="fill:#888a85;fill-opacity:1;fill-rule:evenodd;stroke:none;stroke-width:0.32648337px;stroke-linecap:butt;stroke-linejoin:miter;stroke-opacity:1"
       d="m 14.196083,36.090946 c -7.51e-4,1.151677 -1.587517,1.593285 -1.587517,1.593285 0,0 1.140522,-0.697532 1.134749,-1.58945 0,0 0.452768,-0.0039 0.452768,-0.0039 z"
       id="path7830"
       sodipodi:nodetypes="ccss"
       inkscape:connector-curvature="0" />
    <path
       style="fill:url(#linearGradient9067);fill-opacity:1;fill-rule:evenodd;stroke:none;stroke-width:0.32648337px;stroke-linecap:butt;stroke-linejoin:miter;stroke-opacity:1"
       d="m 10.685894,45.433394 c -1.2525707,-0.204187 -1.4527011,-2.00814 -1.4527011,-2.00814 0,0 0.5573102,1.36375 1.5284851,1.514977 0,0 -0.07579,0.493163 -0.07579,0.493163 z"
       id="path8044"
       sodipodi:nodetypes="ccss"
       inkscape:connector-curvature="0" />
    <path
       style="fill:url(#linearGradient9071);fill-opacity:1;fill-rule:evenodd;stroke:none;stroke-width:0.32648337px;stroke-linecap:butt;stroke-linejoin:miter;stroke-opacity:1"
       d="m 13.838901,42.775561 c -1.22991,0.312958 -2.133725,-1.261024 -2.133725,-1.261024 0,0 1.055507,1.027772 2.006283,0.778623 0,0 0.127442,0.482401 0.127442,0.482401 z"
       id="path9069"
       sodipodi:nodetypes="ccss"
       inkscape:connector-curvature="0" />
  </g>
</svg>
