<?xml version="1.0" encoding="UTF-8" standalone="no"?>
<!-- Created with Inkscape (http://www.inkscape.org/) -->

<svg
   xmlns:dc="http://purl.org/dc/elements/1.1/"
   xmlns:cc="http://creativecommons.org/ns#"
   xmlns:rdf="http://www.w3.org/1999/02/22-rdf-syntax-ns#"
   xmlns:svg="http://www.w3.org/2000/svg"
   xmlns="http://www.w3.org/2000/svg"
   xmlns:sodipodi="http://sodipodi.sourceforge.net/DTD/sodipodi-0.dtd"
   xmlns:inkscape="http://www.inkscape.org/namespaces/inkscape"
   width="16px"
   height="16px"
   id="svg21084"
   version="1.1"
   inkscape:version="0.48.5 r10040"
   sodipodi:docname="primtype_joint.svg">
  <defs
     id="defs21086" />
  <sodipodi:namedview
     id="base"
     pagecolor="#ffffff"
     bordercolor="#666666"
     borderopacity="1.0"
     inkscape:pageopacity="0.0"
     inkscape:pageshadow="2"
     inkscape:zoom="44.395604"
     inkscape:cx="-1.3829328"
     inkscape:cy="7.9201412"
     inkscape:current-layer="layer1"
     showgrid="true"
     inkscape:grid-bbox="true"
     inkscape:document-units="px"
     inkscape:window-width="2880"
     inkscape:window-height="1557"
     inkscape:window-x="-8"
     inkscape:window-y="-8"
     inkscape:window-maximized="1" />
  <metadata
     id="metadata21089">
    <rdf:RDF>
      <cc:Work
         rdf:about="">
        <dc:format>image/svg+xml</dc:format>
        <dc:type
           rdf:resource="http://purl.org/dc/dcmitype/StillImage" />
        <dc:title />
      </cc:Work>
    </rdf:RDF>
  </metadata>
  <g
     id="layer1"
     inkscape:label="Layer 1"
     inkscape:groupmode="layer">
    <path
       sodipodi:nodetypes="cssccccc"
       inkscape:connector-curvature="0"
       id="path28074"
       d="m 5.9558346,14.484071 c -0.151221,-1.741647 -0.03354,-3.401963 -0.904746,-3.943066 -0.208323,-0.129388 -0.245541,-0.5720838 -0.08535,-0.6928158 0.202402,-0.152548 0.431562,-0.2415791 0.563332,-0.6158361 0.488302,0.0044 0.739245,0.365669 1.007171,0.7013691 l -0.01707,1.7277638 0.05121,2.993651 z"
       style="color:#000000;fill:#000000;stroke:#000000;stroke-width:2;stroke-linecap:butt;stroke-linejoin:miter;stroke-miterlimit:4;stroke-opacity:1;stroke-dasharray:none;stroke-dashoffset:0;marker:none;visibility:visible;display:inline;overflow:visible;enable-background:accumulate" />
    <path
       sodipodi:nodetypes="cssccscc"
       inkscape:connector-curvature="0"
       id="path28076"
       d="m 7.4832006,14.690203 c -0.03239,-3.784128 -1.50862,-4.431293 -1.451009,-5.4569979 0.04014,-0.7145723 -0.113938,-1.4167729 0.625332,-1.9888633 0.52932,-0.4096184 1.627999,-1.0561075 1.627999,-1.0561075 l 2.3216124,2.2922813 c 0,0 0.385969,0.3844143 0.290203,0.9408615 -0.243064,1.4123209 -1.3569854,0.9841879 -1.6387864,5.2346119 -0.406015,0.193858 -1.234651,0.232257 -1.775351,0.03421 z"
       style="color:#000000;fill:#000000;stroke:#000000;stroke-width:2;stroke-linecap:butt;stroke-linejoin:miter;stroke-miterlimit:4;stroke-opacity:1;stroke-dasharray:none;stroke-dashoffset:0;marker:none;visibility:visible;display:inline;overflow:visible;enable-background:accumulate" />
    <path
       sodipodi:nodetypes="cscsccscc"
       inkscape:connector-curvature="0"
       id="path28080"
       d="m 6.2199696,1.466819 c 0.544092,4.4323676 -0.330288,5.1514433 -0.307273,5.6793835 0.01442,0.3308505 0.219905,0.6190833 0.273131,0.7869028 0.364706,-0.4158171 0.53365,-1.0903757 1.399797,-0.9921817 0.684068,0.077552 1.303149,0.8714782 1.946058,1.4027394 0.3891991,-0.2730376 0.7476004,-0.1398585 1.0925234,0.1710654 0,0 0.904774,-0.4247087 0.716969,-1.3685259 C 10.978388,5.3230027 9.7497646,6.9095914 8.2343106,1.1931138 c -0.67899,-0.071305 -1.368087,0.00577 -2.014341,0.2737052 z"
       style="fill:#000000;stroke:#000000;stroke-width:2;stroke-linecap:butt;stroke-linejoin:miter;stroke-miterlimit:4;stroke-opacity:1;stroke-dasharray:none" />
    <path
       style="color:#000000;fill:#d3d7cf;stroke:#4e9a06;stroke-width:0.5;stroke-linecap:butt;stroke-linejoin:miter;stroke-miterlimit:4;stroke-opacity:1;stroke-dasharray:none;stroke-dashoffset:0;marker:none;visibility:visible;display:inline;overflow:visible;enable-background:accumulate"
       d="M 5.9558349,14.393972 C 5.8046134,12.652325 5.9222969,10.992009 5.0510886,10.450906 4.8427653,10.321518 4.8055474,9.8788222 4.9657351,9.7580902 5.1681379,9.6055424 5.3972971,9.5165113 5.5290678,9.1422539 6.01737,9.1466539 6.2683123,9.5079233 6.5362382,9.8436232 l -0.017071,1.7277638 0.051212,2.993651 z"
       id="path21640"
       inkscape:connector-curvature="0"
       sodipodi:nodetypes="cssccccc" />
    <path
       style="color:#000000;fill:#eeeeec;stroke:#4e9a06;stroke-width:0.5;stroke-linecap:butt;stroke-linejoin:miter;stroke-miterlimit:4;stroke-opacity:1;stroke-dasharray:none;stroke-dashoffset:0;marker:none;visibility:visible;display:inline;overflow:visible;enable-background:accumulate"
       d="M 7.4832001,14.600104 C 7.450812,10.815976 5.974581,10.168811 6.0321918,9.1431059 6.0723275,8.4285338 5.9182535,7.7263332 6.6575238,7.1542428 7.1868436,6.7446244 8.2855223,6.0981353 8.2855223,6.0981353 l 2.3216127,2.2922813 c 0,0 0.385969,0.3844143 0.290203,0.9408615 -0.243064,1.4123209 -1.3569851,0.9841879 -1.6387866,5.2346119 -0.4060147,0.193858 -1.2346511,0.232257 -1.7753513,0.03421 z"
       id="path21613"
       inkscape:connector-curvature="0"
       sodipodi:nodetypes="cssccscc" />
    <path
       style="color:#000000;fill:#babdb6;stroke:none;stroke-width:0.5;marker:none;visibility:visible;display:inline;overflow:visible;enable-background:accumulate"
       d="M 6.3830967,8.225075 C 6.7275416,7.9190754 7.465191,7.9089648 7.9535997,8.0540096 8.5817696,8.2405588 9.1590024,9.443031 10.002083,9.5764942 10.608662,9.6725182 10.857742,9.4396416 10.857742,9.4396416 L 10.804405,8.8580184 8.3462257,7.0789339 6.5367328,6.9762949 z"
       id="path21632"
       inkscape:connector-curvature="0"
       sodipodi:nodetypes="cssccccc" />
    <path
       style="fill:#eeeeec;stroke:#4e9a06;stroke-width:0.5;stroke-linecap:butt;stroke-linejoin:miter;stroke-miterlimit:4;stroke-opacity:1;stroke-dasharray:none"
       d="M 6.2199693,1.37672 C 6.7640617,5.8090876 5.8896812,6.5281633 5.912697,7.0561035 5.9271207,7.386954 6.1326015,7.6751868 6.185828,7.8430063 6.5505335,7.4271892 6.7194777,6.7526306 7.5856242,6.8508246 c 0.6840686,0.077552 1.303149,0.8714782 1.946058,1.4027394 0.3891995,-0.2730376 0.7476008,-0.1398585 1.0925238,0.1710654 0,0 0.904774,-0.4247087 0.716969,-1.3685259 C 10.978388,5.2329037 9.7497642,6.8194924 8.2343104,1.1030148 7.5553202,1.0317094 6.8662233,1.1087867 6.2199693,1.37672 z"
       id="path21103"
       inkscape:connector-curvature="0"
       sodipodi:nodetypes="cscsccscc" />
  </g>
</svg>
