<?xml version="1.0" encoding="UTF-8" standalone="no"?>
<svg width="35.2778mm" height="35.2778mm"
 viewBox="0 0 100 100"
 xmlns="http://www.w3.org/2000/svg" xmlns:xlink="http://www.w3.org/1999/xlink"  version="1.2" baseProfile="tiny">
<title>bboxl.icon</title>
<desc>Generated with Qt</desc>
<defs>
</defs>
<g fill="none" stroke="black" stroke-width="1" fill-rule="evenodd" stroke-linecap="square" stroke-linejoin="bevel" >

<g fill="none" stroke="#000000" stroke-opacity="1" stroke-width="1" stroke-linecap="square" stroke-linejoin="bevel" transform="matrix(1,0,0,1,0,0)"
font-family="MS Shell Dlg 2" font-size="8.25" font-weight="400" font-style="normal" 
>
</g>

<g fill="#ff00ff" fill-opacity="1" stroke="#ff00ff" stroke-opacity="1" stroke-width="1" stroke-linecap="square" stroke-linejoin="bevel" transform="matrix(1,0,0,1,0,0)"
font-family="MS Shell Dlg 2" font-size="8.25" font-weight="400" font-style="normal" 
>
<polyline fill="none" vector-effect="non-scaling-stroke" points="30.64,5.88 30.59,70.88 10.85,87.92 " />
<polyline fill="none" vector-effect="non-scaling-stroke" points="70.21,5.88 69.82,71.25 90,87.92 " />
</g>

<g fill="#545454" fill-opacity="1" stroke="#545454" stroke-opacity="1" stroke-width="1" stroke-linecap="square" stroke-linejoin="bevel" transform="matrix(1,0,0,1,0,0)"
font-family="MS Shell Dlg 2" font-size="8.25" font-weight="400" font-style="normal" 
>
<path vector-effect="non-scaling-stroke" fill-rule="evenodd" d="M50.43,8.92 L50.43,81.73 L31.83,77.44 L17.88,66.74 L13.24,51.75 L13.24,38.91 L17.88,23.91 L31.83,13.2 L50.43,8.92"/>
</g>

<g fill="#cccccc" fill-opacity="1" stroke="#cccccc" stroke-opacity="1" stroke-width="1" stroke-linecap="square" stroke-linejoin="bevel" transform="matrix(1,0,0,1,0,0)"
font-family="MS Shell Dlg 2" font-size="8.25" font-weight="400" font-style="normal" 
>
<polyline fill="none" vector-effect="non-scaling-stroke" points="50.43,8.92 50.43,81.73 31.83,77.44 17.88,66.74 13.24,51.75 13.24,38.91 17.88,23.91 31.83,13.2 50.43,8.92 " />
</g>

<g fill="#d4d4d4" fill-opacity="1" stroke="#d4d4d4" stroke-opacity="1" stroke-width="1" stroke-linecap="square" stroke-linejoin="bevel" transform="matrix(1,0,0,1,0,0)"
font-family="MS Shell Dlg 2" font-size="8.25" font-weight="400" font-style="normal" 
>
<path vector-effect="non-scaling-stroke" fill-rule="evenodd" d="M50.43,8.92 L50.43,81.73 L69.03,77.44 L82.97,66.74 L87.61,51.75 L87.61,38.91 L82.97,23.91 L69.03,13.2 L50.43,8.92"/>
</g>

<g fill="#cccccc" fill-opacity="1" stroke="#cccccc" stroke-opacity="1" stroke-width="1" stroke-linecap="square" stroke-linejoin="bevel" transform="matrix(1,0,0,1,0,0)"
font-family="MS Shell Dlg 2" font-size="8.25" font-weight="400" font-style="normal" 
>
<polyline fill="none" vector-effect="non-scaling-stroke" points="50.43,8.92 50.43,81.73 69.03,77.44 82.97,66.74 87.61,51.75 87.61,38.91 82.97,23.91 69.03,13.2 50.43,8.92 " />
</g>

<g fill="#7f7f7f" fill-opacity="1" stroke="#7f7f7f" stroke-opacity="1" stroke-width="1" stroke-linecap="square" stroke-linejoin="bevel" transform="matrix(1,0,0,1,0,0)"
font-family="MS Shell Dlg 2" font-size="8.25" font-weight="400" font-style="normal" 
>
<path vector-effect="non-scaling-stroke" fill-rule="evenodd" d="M50.43,8.92 L50.43,81.73 L36.48,71.03 L32.03,62.29 L29.23,47.47 L32.03,32.31 L36.48,19.63 L50.43,8.92"/>
</g>

<g fill="#cccccc" fill-opacity="1" stroke="#cccccc" stroke-opacity="1" stroke-width="1" stroke-linecap="square" stroke-linejoin="bevel" transform="matrix(1,0,0,1,0,0)"
font-family="MS Shell Dlg 2" font-size="8.25" font-weight="400" font-style="normal" 
>
<polyline fill="none" vector-effect="non-scaling-stroke" points="50.43,8.92 50.43,81.73 36.48,71.03 32.03,62.29 29.23,47.47 32.03,32.31 36.48,19.63 50.43,8.92 " />
</g>

<g fill="#a9a9a9" fill-opacity="1" stroke="#a9a9a9" stroke-opacity="1" stroke-width="1" stroke-linecap="square" stroke-linejoin="bevel" transform="matrix(1,0,0,1,0,0)"
font-family="MS Shell Dlg 2" font-size="8.25" font-weight="400" font-style="normal" 
>
<path vector-effect="non-scaling-stroke" fill-rule="evenodd" d="M50.43,8.92 L50.43,81.73 L64.37,71.03 L69.21,62.88 L71.81,47.81 L69.21,32.22 L64.37,19.63 L50.43,8.92"/>
</g>

<g fill="#cccccc" fill-opacity="1" stroke="#cccccc" stroke-opacity="1" stroke-width="1" stroke-linecap="square" stroke-linejoin="bevel" transform="matrix(1,0,0,1,0,0)"
font-family="MS Shell Dlg 2" font-size="8.25" font-weight="400" font-style="normal" 
>
<polyline fill="none" vector-effect="non-scaling-stroke" points="50.43,8.92 50.43,81.73 64.37,71.03 69.21,62.88 71.81,47.81 69.21,32.22 64.37,19.63 50.43,8.92 " />
</g>

<g fill="#cccccc" fill-opacity="1" stroke="#cccccc" stroke-opacity="1" stroke-width="1" stroke-linecap="square" stroke-linejoin="bevel" transform="matrix(1,0,0,1,0,0)"
font-family="MS Shell Dlg 2" font-size="8.25" font-weight="400" font-style="normal" 
>
<polyline fill="none" vector-effect="non-scaling-stroke" points="87.61,39.77 78.31,45.93 61.77,49.87 38.71,49.87 22.54,45.93 13.24,38.91 " />
<polyline fill="none" vector-effect="non-scaling-stroke" points="87.61,52.62 78.31,58.78 61.77,62.71 38.71,62.71 22.54,58.78 13.24,51.75 " />
<polyline fill="none" vector-effect="non-scaling-stroke" points="82.97,23.91 69.21,32.22 50.43,34.32 32.03,32.31 17.88,23.91 " />
<polyline fill="none" vector-effect="non-scaling-stroke" points="69.03,13.2 64.37,19.63 50.43,21.2 36.48,19.63 31.83,13.2 " />
<polyline fill="none" vector-effect="non-scaling-stroke" points="82.97,66.74 59.44,74.82 50.43,75.89 40.51,74.12 17.88,66.74 " />
</g>

<g fill="#ff00ff" fill-opacity="1" stroke="#ff00ff" stroke-opacity="1" stroke-width="1" stroke-linecap="square" stroke-linejoin="bevel" transform="matrix(1,0,0,1,0,0)"
font-family="MS Shell Dlg 2" font-size="8.25" font-weight="400" font-style="normal" 
>
<polyline fill="none" vector-effect="non-scaling-stroke" points="90,15 70.21,5.88 30.64,5.88 10.85,15 10.85,87.92 90,87.92 90,15 10.85,15 " />
</g>
</g>
</svg>
