<?xml version="1.0" encoding="UTF-8" standalone="no"?>
<svg width="35.2778mm" height="35.2778mm"
 viewBox="0 0 100 100"
 xmlns="http://www.w3.org/2000/svg" xmlns:xlink="http://www.w3.org/1999/xlink"  version="1.2" baseProfile="tiny">
<title>CHILI_Cubic.icon</title>
<desc>Generated with Qt</desc>
<defs>
</defs>
<g fill="none" stroke="black" stroke-width="1" fill-rule="evenodd" stroke-linecap="square" stroke-linejoin="bevel" >

<g fill="none" stroke="#000000" stroke-opacity="1" stroke-width="1" stroke-linecap="square" stroke-linejoin="bevel" transform="matrix(1,0,0,1,0,0)"
font-family="MS Shell Dlg 2" font-size="8.25" font-weight="400" font-style="normal" 
>
</g>

<g fill="#388d8d" fill-opacity="1" stroke="#388d8d" stroke-opacity="1" stroke-width="1" stroke-linecap="square" stroke-linejoin="bevel" transform="matrix(1,0,0,1,0,0)"
font-family="MS Shell Dlg 2" font-size="8.25" font-weight="400" font-style="normal" 
>
<path vector-effect="non-scaling-stroke" fill-rule="evenodd" d="M0,0 L0,100 L100,100 L100,0 L0,0"/>
</g>

<g fill="#cccccc" fill-opacity="1" stroke="#cccccc" stroke-opacity="1" stroke-width="1" stroke-linecap="square" stroke-linejoin="bevel" transform="matrix(1,0,0,1,0,0)"
font-family="MS Shell Dlg 2" font-size="8.25" font-weight="400" font-style="normal" 
>
<polyline fill="none" vector-effect="non-scaling-stroke" points="0,0 0,100 100,100 100,0 0,0 " />
</g>

<g fill="#cccccc" fill-opacity="1" stroke="#cccccc" stroke-opacity="1" stroke-width="1" stroke-linecap="square" stroke-linejoin="bevel" transform="matrix(1,0,0,1,0,0)"
font-family="MS Shell Dlg 2" font-size="8.25" font-weight="400" font-style="normal" 
>
<polyline fill="none" vector-effect="non-scaling-stroke" points="2.5,78.5 4.44,78.5 6.38,78.5 8.32,78.5 10.26,78.5 12.19,78.5 14.13,78.5 16.07,78.5 18.01,78.5 19.95,78.5 21.89,78.5 23.83,81.94 25.77,84.76 27.7,86.4 29.64,86.96 31.58,86.53 33.52,85.19 35.46,83.05 37.4,80.2 39.34,76.72 41.28,72.71 43.21,68.25 45.15,63.45 47.09,58.39 49.03,53.17 50.97,47.87 52.91,42.6 54.85,37.43 56.79,32.47 58.72,27.8 60.66,23.52 62.6,19.71 64.54,16.48 66.48,13.91 68.42,12.09 70.36,11.12 72.3,11.09 74.23,12.08 76.17,14.2 78.11,17.53 80.05,21.5 81.99,21.5 83.93,21.5 85.87,21.5 87.81,21.5 89.74,21.5 91.68,21.5 93.62,21.5 95.56,21.5 97.5,21.5 " />
</g>
</g>
</svg>
