<?xml version="1.0" encoding="UTF-8" standalone="no"?>
<svg width="35.2778mm" height="35.2778mm"
 viewBox="0 0 100 100"
 xmlns="http://www.w3.org/2000/svg" xmlns:xlink="http://www.w3.org/1999/xlink"  version="1.2" baseProfile="tiny">
<title>CHILI_CopyUnc.icon</title>
<desc>Generated with Qt</desc>
<defs>
</defs>
<g fill="none" stroke="black" stroke-width="1" fill-rule="evenodd" stroke-linecap="square" stroke-linejoin="bevel" >

<g fill="none" stroke="#000000" stroke-opacity="1" stroke-width="1" stroke-linecap="square" stroke-linejoin="bevel" transform="matrix(1,0,0,1,0,0)"
font-family="MS Shell Dlg 2" font-size="8.25" font-weight="400" font-style="normal" 
>
</g>

<g fill="#8db78d" fill-opacity="1" stroke="#8db78d" stroke-opacity="1" stroke-width="1" stroke-linecap="square" stroke-linejoin="bevel" transform="matrix(1,0,0,1,0,0)"
font-family="MS Shell Dlg 2" font-size="8.25" font-weight="400" font-style="normal" 
>
<path vector-effect="non-scaling-stroke" fill-rule="evenodd" d="M0,0 L0,100 L100,100 L100,0 L0,0"/>
</g>

<g fill="#cccccc" fill-opacity="1" stroke="#cccccc" stroke-opacity="1" stroke-width="1" stroke-linecap="square" stroke-linejoin="bevel" transform="matrix(1,0,0,1,0,0)"
font-family="MS Shell Dlg 2" font-size="8.25" font-weight="400" font-style="normal" 
>
<polyline fill="none" vector-effect="non-scaling-stroke" points="0,0 0,100 100,100 100,0 0,0 " />
</g>

<g fill="#cccccc" fill-opacity="1" stroke="#cccccc" stroke-opacity="1" stroke-width="1" stroke-linecap="square" stroke-linejoin="bevel" transform="matrix(1,0,0,1,0,0)"
font-family="MS Shell Dlg 2" font-size="8.25" font-weight="400" font-style="normal" 
>
<polyline fill="none" vector-effect="non-scaling-stroke" points="2.3,50.01 4.24,54.59 6.18,49.78 8.12,45.36 10.06,41.7 11.99,39.07 13.93,37.69 15.87,37.69 17.81,39.07 19.75,41.7 21.69,45.36 23.63,49.78 25.57,77.98 27.5,74.3 29.44,71.68 31.38,70.31 33.32,70.31 35.26,71.68 37.2,74.3 39.14,77.98 41.08,82.4 43.01,68.14 44.95,64.47 46.89,61.85 48.83,60.48 50.77,60.48 52.71,61.85 54.65,64.47 56.59,68.14 58.52,72.56 60.46,59.91 62.4,57.27 64.34,55.9 66.28,55.9 68.22,57.27 70.16,33.47 72.1,28.67 74.03,24.25 75.97,20.59 77.91,17.95 79.85,16.58 81.79,16.58 83.73,17.95 85.67,20.59 87.61,24.25 89.54,28.67 91.48,33.47 93.42,65.68 95.36,68.3 97.3,69.66 " />
</g>
</g>
</svg>
