<?xml version="1.0" encoding="UTF-8" standalone="no"?>
<svg width="35.2778mm" height="35.2778mm"
 viewBox="0 0 100 100"
 xmlns="http://www.w3.org/2000/svg" xmlns:xlink="http://www.w3.org/1999/xlink"  version="1.2" baseProfile="tiny">
<title>CHILI_Smooth.icon</title>
<desc>Generated with Qt</desc>
<defs>
</defs>
<g fill="none" stroke="black" stroke-width="1" fill-rule="evenodd" stroke-linecap="square" stroke-linejoin="bevel" >

<g fill="none" stroke="#000000" stroke-opacity="1" stroke-width="1" stroke-linecap="square" stroke-linejoin="bevel" transform="matrix(1,0,0,1,0,0)"
font-family="MS Shell Dlg 2" font-size="8.25" font-weight="400" font-style="normal" 
>
</g>

<g fill="#d4d454" fill-opacity="1" stroke="#d4d454" stroke-opacity="1" stroke-width="1" stroke-linecap="square" stroke-linejoin="bevel" transform="matrix(1,0,0,1,0,0)"
font-family="MS Shell Dlg 2" font-size="8.25" font-weight="400" font-style="normal" 
>
<path vector-effect="non-scaling-stroke" fill-rule="evenodd" d="M0,0 L0,100 L100,100 L100,0 L0,0"/>
</g>

<g fill="#cccccc" fill-opacity="1" stroke="#cccccc" stroke-opacity="1" stroke-width="1" stroke-linecap="square" stroke-linejoin="bevel" transform="matrix(1,0,0,1,0,0)"
font-family="MS Shell Dlg 2" font-size="8.25" font-weight="400" font-style="normal" 
>
<polyline fill="none" vector-effect="non-scaling-stroke" points="0,0 0,100 100,100 100,0 0,0 " />
</g>

<g fill="#cccccc" fill-opacity="1" stroke="#cccccc" stroke-opacity="1" stroke-width="1" stroke-linecap="square" stroke-linejoin="bevel" transform="matrix(1,0,0,1,0,0)"
font-family="MS Shell Dlg 2" font-size="8.25" font-weight="400" font-style="normal" 
>
<polyline fill="none" vector-effect="non-scaling-stroke" points="2.41,53.46 4.35,56.43 6.29,58.99 8.23,61.14 10.17,62.87 12.1,64.28 14.04,65.37 15.98,66.21 17.92,66.83 19.86,67.28 21.8,67.6 23.74,67.58 25.68,67.25 27.61,66.79 29.55,66.16 31.49,65.3 33.43,64.19 35.37,62.77 37.31,60.99 39.25,58.82 41.19,56.23 43.12,53.21 45.06,49.82 47,46.06 48.94,42.06 50.88,37.89 52.82,33.75 54.76,29.76 56.7,26.12 58.63,23.01 60.57,20.59 62.51,18.96 64.45,18.25 66.39,18.46 68.33,19.62 70.27,21.64 72.21,24.42 74.14,27.79 76.08,31.62 78.02,35.7 79.96,39.88 81.9,43.97 83.84,47.87 85.78,51.47 87.72,54.69 89.65,57.5 91.59,59.89 93.53,61.87 95.47,63.47 97.41,64.75 " />
</g>
</g>
</svg>
