<?xml version="1.0" encoding="UTF-8" standalone="no"?>
<svg width="35.2778mm" height="35.2778mm"
 viewBox="0 0 100 100"
 xmlns="http://www.w3.org/2000/svg" xmlns:xlink="http://www.w3.org/1999/xlink"  version="1.2" baseProfile="tiny">
<title>CHILI_Ease.icon</title>
<desc>Generated with Qt</desc>
<defs>
</defs>
<g fill="none" stroke="black" stroke-width="1" fill-rule="evenodd" stroke-linecap="square" stroke-linejoin="bevel" >

<g fill="none" stroke="#000000" stroke-opacity="1" stroke-width="1" stroke-linecap="square" stroke-linejoin="bevel" transform="matrix(1,0,0,1,0,0)"
font-family="MS Shell Dlg 2" font-size="8.25" font-weight="400" font-style="normal" 
>
</g>

<g fill="#388d8d" fill-opacity="1" stroke="#388d8d" stroke-opacity="1" stroke-width="1" stroke-linecap="square" stroke-linejoin="bevel" transform="matrix(1,0,0,1,0,0)"
font-family="MS Shell Dlg 2" font-size="8.25" font-weight="400" font-style="normal" 
>
<path vector-effect="non-scaling-stroke" fill-rule="evenodd" d="M0,0 L0,100 L100,100 L100,0 L0,0"/>
</g>

<g fill="#cccccc" fill-opacity="1" stroke="#cccccc" stroke-opacity="1" stroke-width="1" stroke-linecap="square" stroke-linejoin="bevel" transform="matrix(1,0,0,1,0,0)"
font-family="MS Shell Dlg 2" font-size="8.25" font-weight="400" font-style="normal" 
>
<polyline fill="none" vector-effect="non-scaling-stroke" points="0,0 0,100 100,100 100,0 0,0 " />
</g>

<g fill="#cccccc" fill-opacity="1" stroke="#cccccc" stroke-opacity="1" stroke-width="1" stroke-linecap="square" stroke-linejoin="bevel" transform="matrix(1,0,0,1,0,0)"
font-family="MS Shell Dlg 2" font-size="8.25" font-weight="400" font-style="normal" 
>
<polyline fill="none" vector-effect="non-scaling-stroke" points="2.5,78.5 4.44,78.5 6.38,78.5 8.32,78.5 10.26,78.5 12.19,78.5 14.13,78.5 16.07,78.5 18.01,78.5 19.95,78.37 21.89,77.98 23.83,77.35 25.77,76.46 27.7,75.33 29.64,73.98 31.58,72.4 33.52,70.63 35.46,68.66 37.4,66.53 39.34,64.25 41.28,61.84 43.21,59.32 45.15,56.72 47.09,54.06 49.03,51.36 50.97,48.64 52.91,45.94 54.85,43.28 56.79,40.68 58.72,38.16 60.66,35.75 62.6,33.47 64.54,31.34 66.48,29.37 68.42,27.6 70.36,26.02 72.3,24.67 74.23,23.54 76.17,22.65 78.11,22.02 80.05,21.63 81.99,21.5 83.93,21.5 85.87,21.5 87.81,21.5 89.74,21.5 91.68,21.5 93.62,21.5 95.56,21.5 97.5,21.5 " />
</g>
</g>
</svg>
