<?xml version="1.0" encoding="UTF-8" standalone="no"?>
<svg width="35.2778mm" height="35.2778mm"
 viewBox="0 0 100 100"
 xmlns="http://www.w3.org/2000/svg" xmlns:xlink="http://www.w3.org/1999/xlink"  version="1.2" baseProfile="tiny">
<title>CHILI_FlatUp.icon</title>
<desc>Generated with Qt</desc>
<defs>
</defs>
<g fill="none" stroke="black" stroke-width="1" fill-rule="evenodd" stroke-linecap="square" stroke-linejoin="bevel" >

<g fill="none" stroke="#000000" stroke-opacity="1" stroke-width="1" stroke-linecap="square" stroke-linejoin="bevel" transform="matrix(1,0,0,1,0,0)"
font-family="MS Shell Dlg 2" font-size="8.25" font-weight="400" font-style="normal" 
>
</g>

<g fill="#d4d454" fill-opacity="1" stroke="#d4d454" stroke-opacity="1" stroke-width="1" stroke-linecap="square" stroke-linejoin="bevel" transform="matrix(1,0,0,1,0,0)"
font-family="MS Shell Dlg 2" font-size="8.25" font-weight="400" font-style="normal" 
>
<path vector-effect="non-scaling-stroke" fill-rule="evenodd" d="M0,0 L0,100 L100,100 L100,0 L0,0"/>
</g>

<g fill="#cccccc" fill-opacity="1" stroke="#cccccc" stroke-opacity="1" stroke-width="1" stroke-linecap="square" stroke-linejoin="bevel" transform="matrix(1,0,0,1,0,0)"
font-family="MS Shell Dlg 2" font-size="8.25" font-weight="400" font-style="normal" 
>
<polyline fill="none" vector-effect="non-scaling-stroke" points="0,0 0,100 100,100 100,0 0,0 " />
</g>

<g fill="#cccccc" fill-opacity="1" stroke="#cccccc" stroke-opacity="1" stroke-width="1" stroke-linecap="square" stroke-linejoin="bevel" transform="matrix(1,0,0,1,0,0)"
font-family="MS Shell Dlg 2" font-size="8.25" font-weight="400" font-style="normal" 
>
<polyline fill="none" vector-effect="non-scaling-stroke" points="1.6,75.76 3.54,75.42 5.48,74.92 7.42,74.29 9.36,73.47 11.29,72.39 13.23,71.02 15.17,69.31 17.11,67.23 19.05,64.71 20.99,61.76 22.93,58.31 24.87,54.39 26.8,50 28.74,45.21 30.68,40.08 32.62,35.37 34.56,31.74 36.5,29.16 38.44,27.56 40.38,26.71 42.31,26.69 44.25,26.66 46.19,26.64 48.13,26.61 50.07,26.58 52.01,26.56 53.95,26.53 55.89,26.5 57.82,26.48 59.76,26.71 61.7,27.56 63.64,29.16 65.58,31.74 67.52,35.37 69.46,40.08 71.4,45.21 73.33,50 75.27,54.39 77.21,58.31 79.15,61.76 81.09,64.71 83.03,67.23 84.97,69.31 86.91,71.02 88.84,72.39 90.78,73.47 92.72,74.29 94.66,74.92 96.6,75.42 " />
</g>
</g>
</svg>
