<?xml version="1.0" encoding="UTF-8" standalone="no"?>
<svg
   xmlns:dc="http://purl.org/dc/elements/1.1/"
   xmlns:cc="http://creativecommons.org/ns#"
   xmlns:rdf="http://www.w3.org/1999/02/22-rdf-syntax-ns#"
   xmlns:svg="http://www.w3.org/2000/svg"
   xmlns="http://www.w3.org/2000/svg"
   xmlns:xlink="http://www.w3.org/1999/xlink"
   xmlns:sodipodi="http://sodipodi.sourceforge.net/DTD/sodipodi-0.dtd"
   xmlns:inkscape="http://www.inkscape.org/namespaces/inkscape"
   sodipodi:docname="star_on.svg"
   inkscape:version="1.0beta1 (fe3e306, 2019-09-17)"
   width="16px"
   height="16px"
   viewBox="0 0 16 16"
   version="1.1"
   id="SVGRoot">
  <defs
     id="defs1444">
    <linearGradient
       id="linearGradient2060"
       inkscape:collect="always">
      <stop
         id="stop2056"
         offset="0"
         style="stop-color:#ffffff;stop-opacity:1;" />
      <stop
         id="stop2058"
         offset="1"
         style="stop-color:#ffffff;stop-opacity:0;" />
    </linearGradient>
    <linearGradient
       id="linearGradient2034"
       inkscape:collect="always">
      <stop
         id="stop2030"
         offset="0"
         style="stop-color:#fff496;stop-opacity:1" />
      <stop
         id="stop2032"
         offset="1"
         style="stop-color:#edd400;stop-opacity:1" />
    </linearGradient>
    <linearGradient
       id="linearGradient2026"
       inkscape:collect="always">
      <stop
         id="stop2022"
         offset="0"
         style="stop-color:#c4a000;stop-opacity:1;" />
      <stop
         id="stop2024"
         offset="1"
         style="stop-color:#886f00;stop-opacity:1" />
    </linearGradient>
    <linearGradient
       gradientTransform="matrix(0.91043893,0,0,0.91043893,0.71413651,0.7819385)"
       gradientUnits="userSpaceOnUse"
       y2="15.538158"
       x2="12.759639"
       y1="5.1434855"
       x1="5.6784406"
       id="linearGradient2028"
       xlink:href="#linearGradient2026"
       inkscape:collect="always" />
    <radialGradient
       gradientUnits="userSpaceOnUse"
       gradientTransform="matrix(0.91043893,0,0,0.87188823,0.71413651,1.0903683)"
       r="7.4530833"
       fy="6.9983683"
       fx="6.7252741"
       cy="6.9983683"
       cx="6.7252741"
       id="radialGradient2036"
       xlink:href="#linearGradient2034"
       inkscape:collect="always" />
    <linearGradient
       gradientUnits="userSpaceOnUse"
       y2="11.340074"
       x2="10.038758"
       y1="7.5313406"
       x1="7.507772"
       id="linearGradient2062"
       xlink:href="#linearGradient2060"
       inkscape:collect="always" />
  </defs>
  <sodipodi:namedview
     inkscape:snap-global="false"
     inkscape:grid-bbox="true"
     inkscape:window-maximized="1"
     inkscape:window-y="-8"
     inkscape:window-x="-8"
     inkscape:window-height="1557"
     inkscape:window-width="2880"
     showgrid="true"
     inkscape:document-rotation="0"
     inkscape:current-layer="layer1"
     inkscape:document-units="px"
     inkscape:cy="8.7074518"
     inkscape:cx="6.1225501"
     inkscape:zoom="44.8"
     inkscape:pageshadow="2"
     inkscape:pageopacity="0.0"
     borderopacity="1.0"
     bordercolor="#666666"
     pagecolor="#ffffff"
     id="base">
    <inkscape:grid
       id="grid2018"
       type="xygrid" />
  </sodipodi:namedview>
  <metadata
     id="metadata1447">
    <rdf:RDF>
      <cc:Work
         rdf:about="">
        <dc:format>image/svg+xml</dc:format>
        <dc:type
           rdf:resource="http://purl.org/dc/dcmitype/StillImage" />
        <dc:title></dc:title>
      </cc:Work>
    </rdf:RDF>
  </metadata>
  <g
     id="layer1"
     inkscape:groupmode="layer"
     inkscape:label="Layer 1">
    <path
       transform="rotate(-0.43901086,7.9737375,8.7307852)"
       inkscape:transform-center-y="-0.68046999"
       inkscape:transform-center-x="-0.0048142677"
       d="m 14.776894,6.6223176 c 0.1397,0.4592585 -3.424162,2.7431038 -3.581078,3.1967687 -0.156912,0.4536537 1.234292,4.4512717 0.840692,4.7260457 -0.393611,0.274782 -3.6669714,-2.408906 -4.1469221,-2.417952 -0.4799384,-0.009 -3.851993,2.549401 -4.2349485,2.259974 C 3.2716721,14.09772 4.8124867,10.155265 4.6727769,9.6960093 4.5330707,9.2367654 1.0578215,6.8203543 1.2147428,6.3667042 1.3716682,5.9130425 5.597304,6.1601586 5.9909093,5.8853689 6.3845046,5.6105863 7.608737,1.5587157 8.0886753,1.5677712 c 0.4799505,0.00906 1.5507224,4.1042373 1.9336937,4.3936635 0.382961,0.2894188 4.614828,0.2016362 4.754525,0.6608829 z"
       inkscape:randomized="0"
       inkscape:rounded="0.1"
       inkscape:flatsided="false"
       sodipodi:arg2="0.33302508"
       sodipodi:arg1="-0.29531394"
       sodipodi:r2="3.4299747"
       sodipodi:r1="7.1313109"
       sodipodi:cy="8.6978159"
       sodipodi:cx="7.9542913"
       sodipodi:sides="5"
       id="path2020"
       style="color:#000000;overflow:visible;fill:url(#radialGradient2036);fill-opacity:1;stroke:url(#linearGradient2028);stroke-width:0.999999;stroke-miterlimit:4;stroke-dasharray:none;stop-color:#000000"
       sodipodi:type="star" />
    <path
       transform="rotate(-0.43901086,7.9737375,8.7307852)"
       d="M 8.0507812,3.5859375 C 7.9932618,3.7267202 7.9449628,3.8220415 7.8867188,3.96875 7.6815012,4.4856636 7.4771307,5.0200114 7.2890625,5.4628906 7.1950284,5.6843302 7.1057705,5.8817273 7.0117188,6.0605469 6.917667,6.2393664 6.9356944,6.3811162 6.5332031,6.6621094 6.1307776,6.9430568 6.0030082,6.8776063 5.8027344,6.9042969 c -0.2002739,0.026691 -0.415952,0.042688 -0.65625,0.054687 -0.4805961,0.023999 -1.0513917,0.032271 -1.6074219,0.046875 -0.1584491,0.00416 -0.2653942,0.01595 -0.4179687,0.021484 0.1161895,0.098244 0.1928424,0.1726691 0.3144531,0.2734374 0.4282102,0.3548212 0.8732237,0.7136395 1.2363281,1.0292969 0.1815522,0.1578287 0.3414029,0.3025721 0.4824219,0.4472657 0.141019,0.1446935 0.28095,0.1729076 0.4238281,0.6425781 0.1428824,0.4696845 0.042388,0.5688382 0.00586,0.7675781 -0.036529,0.19874 -0.089465,0.408349 -0.1523438,0.640625 -0.1257572,0.464552 -0.2931496,1.011508 -0.4511718,1.544922 -0.044802,0.151231 -0.067656,0.256205 -0.109375,0.402344 0.129099,-0.07999 0.224271,-0.128546 0.3574218,-0.212891 0.4698862,-0.297651 0.9488436,-0.609601 1.3613282,-0.857422 0.2062422,-0.12391 0.3949742,-0.230901 0.5761718,-0.320312 0.1811976,-0.08941 0.249392,-0.214283 0.7402344,-0.205078 0.4909233,0.0093 0.5546768,0.13626 0.7324219,0.232421 0.177745,0.09616 0.3609747,0.2102 0.5625,0.341797 0.4030504,0.263196 0.8714651,0.593021 1.3300781,0.908203 0.129996,0.08934 0.223503,0.141727 0.349609,0.226563 -0.03612,-0.147107 -0.05476,-0.252035 -0.09375,-0.404297 -0.138023,-0.539014 -0.286195,-1.093513 -0.394531,-1.5625 -0.05417,-0.234494 -0.09788,-0.444531 -0.126953,-0.644531 -0.02908,-0.200001 -0.125416,-0.3052947 0.03516,-0.7695315 0.160579,-0.4642508 0.300819,-0.4857265 0.447266,-0.625 0.146447,-0.1392735 0.312529,-0.2768687 0.5,-0.4277344 0.374942,-0.3017314 0.831904,-0.6459616 1.273437,-0.984375 0.124488,-0.095414 0.20319,-0.1666219 0.322266,-0.2597656 C 12.692567,7.1997549 12.586669,7.1838794 12.429688,7.1738281 11.874343,7.1382704 11.303751,7.1065518 10.824219,7.0644531 10.584453,7.0434038 10.36909,7.0205439 10.169922,6.9863281 9.9707533,6.9521124 9.8428864,7.0128311 9.4511719,6.7167969 9.0595498,6.4208327 9.0813896,6.2798976 8.9941406,6.0976562 8.9068917,5.9154149 8.8258608,5.7150682 8.7402344,5.4902344 8.5689816,5.0405666 8.3848207,4.4989115 8.1992188,3.9746094 8.1466276,3.8260461 8.1028746,3.7285772 8.0507812,3.5859375 Z"
       inkscape:original="M 8.0878906 1.5683594 C 7.6079523 1.5593039 6.3838297 5.609983 5.9902344 5.8847656 C 5.5966291 6.1595553 1.3717691 5.9135258 1.2148438 6.3671875 C 1.0579225 6.8208376 4.5321688 9.2360686 4.671875 9.6953125 C 4.8115848 10.154568 3.2713316 14.097285 3.6542969 14.386719 C 4.0372524 14.676146 7.4087335 12.117953 7.8886719 12.126953 C 8.3686226 12.135999 11.643498 14.819704 12.037109 14.544922 C 12.430709 14.270148 11.0384 10.272013 11.195312 9.8183594 C 11.352229 9.3646945 14.917044 7.0823054 14.777344 6.6230469 C 14.637647 6.1638002 10.404445 6.2503563 10.021484 5.9609375 C 9.6385131 5.6715113 8.5678411 1.5774194 8.0878906 1.5683594 z "
       inkscape:radius="-0.94707847"
       sodipodi:type="inkscape:offset"
       inkscape:transform-center-y="-0.68046999"
       inkscape:transform-center-x="-0.0048142677"
       style="color:#000000;overflow:visible;fill:none;fill-opacity:1;stroke:url(#linearGradient2062);stroke-width:0.999999;stroke-miterlimit:4;stroke-dasharray:none;stop-color:#000000"
       id="path2048" />
  </g>
</svg>
