<?xml version="1.0" encoding="UTF-8" standalone="no"?>
<svg
   xmlns:dc="http://purl.org/dc/elements/1.1/"
   xmlns:cc="http://creativecommons.org/ns#"
   xmlns:rdf="http://www.w3.org/1999/02/22-rdf-syntax-ns#"
   xmlns:svg="http://www.w3.org/2000/svg"
   xmlns="http://www.w3.org/2000/svg"
   xmlns:xlink="http://www.w3.org/1999/xlink"
   xmlns:sodipodi="http://sodipodi.sourceforge.net/DTD/sodipodi-0.dtd"
   xmlns:inkscape="http://www.inkscape.org/namespaces/inkscape"
   inkscape:version="1.0.1 (3bc2e813f5, 2020-09-07)"
   sodipodi:docname="snapshots.svg"
   width="16.0px"
   height="16.0px"
   viewBox="0 0 16.0 16.0"
   version="1.1"
   id="SVGRoot">
  <defs
     id="defs18794">
    <linearGradient
       id="linearGradient3210"
       inkscape:collect="always">
      <stop
         id="stop3206"
         offset="0"
         style="stop-color:#000000;stop-opacity:0" />
      <stop
         id="stop3208"
         offset="1"
         style="stop-color:#000000;stop-opacity:0.50403225" />
    </linearGradient>
    <linearGradient
       id="linearGradient19623"
       inkscape:collect="always">
      <stop
         id="stop19619"
         offset="0"
         style="stop-color:#c3b3af;stop-opacity:1" />
      <stop
         id="stop19621"
         offset="1"
         style="stop-color:#a79289;stop-opacity:1" />
    </linearGradient>
    <linearGradient
       id="linearGradient19602"
       inkscape:collect="always">
      <stop
         id="stop19598"
         offset="0"
         style="stop-color:#555753;stop-opacity:1;" />
      <stop
         id="stop19600"
         offset="1"
         style="stop-color:#2e3436;stop-opacity:1" />
    </linearGradient>
    <linearGradient
       id="linearGradient19582"
       inkscape:collect="always">
      <stop
         id="stop19578"
         offset="0"
         style="stop-color:#babdb6;stop-opacity:1" />
      <stop
         id="stop19588"
         offset="0.51744825"
         style="stop-color:#eeeeec;stop-opacity:1" />
      <stop
         id="stop19580"
         offset="1"
         style="stop-color:#9e9f9b;stop-opacity:1" />
    </linearGradient>
    <linearGradient
       id="linearGradient19570"
       inkscape:collect="always">
      <stop
         id="stop19566"
         offset="0"
         style="stop-color:#babdb6;stop-opacity:1" />
      <stop
         id="stop19568"
         offset="1"
         style="stop-color:#555753;stop-opacity:1" />
    </linearGradient>
    <linearGradient
       id="linearGradient19560"
       inkscape:collect="always">
      <stop
         id="stop19556"
         offset="0"
         style="stop-color:#555753;stop-opacity:1" />
      <stop
         id="stop19558"
         offset="1"
         style="stop-color:#d3d7cf;stop-opacity:1" />
    </linearGradient>
    <linearGradient
       id="linearGradient19523"
       inkscape:collect="always">
      <stop
         id="stop19519"
         offset="0"
         style="stop-color:#b6b8b4;stop-opacity:1" />
      <stop
         style="stop-color:#babdb6;stop-opacity:1;"
         offset="0.32470161"
         id="stop19527" />
      <stop
         id="stop19529"
         offset="0.7039836"
         style="stop-color:#babdb6;stop-opacity:1" />
      <stop
         id="stop19521"
         offset="1"
         style="stop-color:#6b6d68;stop-opacity:1" />
    </linearGradient>
    <linearGradient
       gradientTransform="matrix(1.0531408,0,0,1.0524185,-0.81388895,0.00297615)"
       gradientUnits="userSpaceOnUse"
       y2="1.8583985"
       x2="13.000841"
       y1="1.8583985"
       x1="9.4991584"
       id="linearGradient19525"
       xlink:href="#linearGradient19523"
       inkscape:collect="always" />
    <linearGradient
       gradientTransform="matrix(1.0531408,0,0,1.0524185,-0.81388895,0.00297615)"
       gradientUnits="userSpaceOnUse"
       y2="2.1541133"
       x2="15.326504"
       y1="2.1541133"
       x1="7.1319006"
       id="linearGradient19562"
       xlink:href="#linearGradient19560"
       inkscape:collect="always" />
    <radialGradient
       gradientUnits="userSpaceOnUse"
       gradientTransform="matrix(1.3808335,0,0,0.42468939,-4.1160467,1.8136237)"
       r="2.2319241"
       fy="2.781656"
       fx="10.076997"
       cy="2.781656"
       cx="10.076997"
       id="radialGradient19572"
       xlink:href="#linearGradient19570"
       inkscape:collect="always" />
    <linearGradient
       gradientTransform="matrix(0.97668404,0,0,0.97670457,0.35704739,0.00170364)"
       gradientUnits="userSpaceOnUse"
       y2="9.5514069"
       x2="15.172246"
       y1="9.551407"
       x1="6.6277976"
       id="linearGradient19584"
       xlink:href="#linearGradient19582"
       inkscape:collect="always" />
    <linearGradient
       gradientTransform="matrix(0.97668404,0,0,0.97670457,0.35704739,0.00170364)"
       gradientUnits="userSpaceOnUse"
       y2="4.7746906"
       x2="8.3989344"
       y1="3.9724941"
       x1="8.4335804"
       id="linearGradient19604"
       xlink:href="#linearGradient19602"
       inkscape:collect="always" />
    <linearGradient
       y2="8.8094921"
       x2="5.8656912"
       y1="8.7465754"
       x1="0.49856794"
       gradientTransform="matrix(1.039395,0.06101311,0,0.99710138,-0.06533751,-0.57258751)"
       gradientUnits="userSpaceOnUse"
       id="linearGradient3162"
       xlink:href="#linearGradient19623"
       inkscape:collect="always" />
    <radialGradient
       gradientUnits="userSpaceOnUse"
       gradientTransform="matrix(2.2578485,0.00823796,-0.003174,0.86995604,-13.562061,0.63418534)"
       r="1.8561566"
       fy="0.87327254"
       fx="10.881184"
       cy="0.87327254"
       cx="10.881184"
       id="radialGradient3212"
       xlink:href="#linearGradient3210"
       inkscape:collect="always" />
    <linearGradient
       gradientTransform="matrix(0.97668404,0,0,0.97670457,0.37862928,11.138184)"
       y2="4.7746906"
       x2="8.3989344"
       y1="3.9724941"
       x1="8.4335804"
       gradientUnits="userSpaceOnUse"
       id="linearGradient3228"
       xlink:href="#linearGradient19602"
       inkscape:collect="always" />
  </defs>
  <sodipodi:namedview
     inkscape:snap-global="false"
     inkscape:window-maximized="1"
     inkscape:window-y="-8"
     inkscape:window-x="-8"
     inkscape:window-height="1377"
     inkscape:window-width="2560"
     showgrid="true"
     inkscape:document-rotation="0"
     inkscape:current-layer="layer1"
     inkscape:document-units="px"
     inkscape:cy="10.559633"
     inkscape:cx="7.5002599"
     inkscape:zoom="22.627417"
     inkscape:pageshadow="2"
     inkscape:pageopacity="0.0"
     borderopacity="1.0"
     bordercolor="#666666"
     pagecolor="#ffffff"
     id="base">
    <inkscape:grid
       type="xygrid"
       id="grid19364" />
  </sodipodi:namedview>
  <metadata
     id="metadata18797">
    <rdf:RDF>
      <cc:Work
         rdf:about="">
        <dc:format>image/svg+xml</dc:format>
        <dc:type
           rdf:resource="http://purl.org/dc/dcmitype/StillImage" />
        <dc:title />
      </cc:Work>
    </rdf:RDF>
  </metadata>
  <g
     id="layer1"
     inkscape:groupmode="layer"
     inkscape:label="Layer 1">
    <path
       sodipodi:nodetypes="ccccccccccccccccccccccccccccccccccccccccccc"
       d="m 0.12559737,2.3159113 0.0263909,1.2405343 0.30857039,0.1674819 V 5.1650506 L 0.18446937,5.0150958 0.31439374,10.995758 0.56409214,11.13208 v 1.441122 l -0.21924738,-0.118794 0.006089,0.241485 C 1.0653112,13.613994 3.2881615,14.221578 6.276704,14.249969 L 6.205652,4.2127409 C 2.4614273,3.8740586 0.0954191,3.2811555 0.12559737,2.3159113 Z M 0.96807575,3.9381485 1.8004039,4.1679492 V 5.6090723 L 0.96807575,5.3792715 Z M 2.5860402,4.3588006 3.6497961,4.5671792 V 6.0083024 L 2.5860402,5.8018712 Z M 4.3907709,4.6918169 5.7082852,4.876826 V 6.3198965 L 4.3907709,6.1348874 Z m -3.3171316,6.6544841 0.8485686,0.321331 -0.016241,1.443071 -0.832328,-0.323279 z m 1.5720293,0.486751 1.0704828,0.262297 -0.00673,1.427491 -1.0637557,-0.270699 z m 1.8648764,0.329236 1.3012737,0.12269 v 1.441123 L 4.510545,13.618991 Z"
       style="font-variation-settings:normal;opacity:1;vector-effect:none;fill:url(#linearGradient3162);fill-opacity:1;fill-rule:evenodd;stroke:#4a3d38;stroke-width:0.25;stroke-linecap:round;stroke-linejoin:miter;stroke-miterlimit:4;stroke-dasharray:none;stroke-dashoffset:0;stroke-opacity:1;stop-color:#000000;stop-opacity:1"
       id="path19656" />
    <path
       d="M 3.1889705,3.8699873 3.0610762,4.4522789 3.6497961,4.5671792 v 1.4411232 l -0.88917,-0.1733243 -1.2403717,5.6807519 0.4019535,0.151902 -0.016241,1.443071 -0.6760127,-0.262908 -0.099474,0.457654 c 0.069335,0.03716 0.1516285,0.06987 0.2273677,0.105163 l 2.2066842,0.619293 c 0.051144,0.0083 0.1042498,0.01555 0.1563153,0.02337 L 5.5743007,6.3004219 4.3907709,6.1348874 V 4.6918169 L 5.7082852,4.876826 V 5.7376049 L 6.0594871,4.2672698 Z m -0.5440582,7.9631797 1.071876,0.262908 -0.00812,1.42749 -1.0637558,-0.270698 z"
       style="font-variation-settings:normal;opacity:1;vector-effect:none;fill:#ffffff;fill-opacity:0.32661289;fill-rule:evenodd;stroke:none;stroke-width:0.25;stroke-linecap:round;stroke-linejoin:miter;stroke-miterlimit:4;stroke-dasharray:none;stroke-dashoffset:0;stroke-opacity:1;stop-color:#000000;stop-opacity:1"
       id="path3170" />
    <path
       sodipodi:nodetypes="ccccccccccccccccc"
       d="m 0.13168756,2.571029 0.0203007,0.9854166 0.30857037,0.1674819 V 5.1650506 L 0.18446939,5.0150958 0.18852926,5.2020523 0.34078461,10.436835 1.4562876,5.5422476 0.96807575,5.3792715 V 3.9381485 L 1.8004039,4.1679492 V 4.960567 L 2.0408278,3.6285017 1.8836366,3.5330761 C 1.6332276,3.463043 1.4134349,3.3875138 1.2137141,3.3091178 L 0.6392047,3.1221613 Z"
       style="font-variation-settings:normal;opacity:1;vector-effect:none;fill:#ffffff;fill-opacity:0.32661289;fill-rule:evenodd;stroke:none;stroke-width:0.25;stroke-linecap:round;stroke-linejoin:miter;stroke-miterlimit:4;stroke-dasharray:none;stroke-dashoffset:0;stroke-opacity:1;stop-color:#000000;stop-opacity:1"
       id="path3177" />
    <path
       d="m 6.7712451,14.486334 c 0,0.761292 1.9083322,1.378442 4.2623789,1.378442 2.354047,0 4.262379,-0.61715 4.262379,-1.378442 v -0.714273 m 0,0 c 0,0.761293 -1.908332,1.378443 -4.262379,1.378443 -2.3540467,0 -4.2623789,-0.61715 -4.2623789,-1.378443 v 0.714273"
       style="color:#000000;overflow:visible;fill:#888a85;stroke:url(#linearGradient3228);stroke-width:0.25;stroke-linecap:round;stroke-miterlimit:4;stroke-dasharray:none;stop-color:#000000"
       id="path3220" />
    <ellipse
       style="color:#000000;overflow:visible;fill:none;stroke:#eeeeec;stroke-width:0.25;stroke-linecap:round;stroke-miterlimit:4;stroke-dasharray:none;stop-color:#000000"
       id="ellipse3222"
       cx="11.033624"
       cy="13.714147"
       rx="4.2623792"
       ry="1.3784423" />
    <path
       sodipodi:nodetypes="cccccccccc"
       id="path19574"
       style="color:#000000;font-variation-settings:normal;overflow:visible;opacity:1;vector-effect:none;fill:url(#linearGradient19584);fill-opacity:1;stroke:#2e3436;stroke-width:0.250001;stroke-linecap:round;stroke-linejoin:round;stroke-miterlimit:4;stroke-dasharray:none;stroke-dashoffset:0;stroke-opacity:1;stop-color:#000000;stop-opacity:1"
       d="m 6.9523975,3.7528684 v 9.9356896 0.03754 h 0.00462 c 0.066758,0.658608 1.8582994,1.18213 4.0457795,1.182252 2.187477,-1.23e-4 3.979013,-0.523645 4.045771,-1.182252 h 0.0049 v -0.03754 -9.9356896 z" />
    <path
       d="m 6.7496636,2.6020898 c 0,-0.7612927 1.9083318,-1.3784422 4.2623784,-1.3784424 2.354047,0 4.262379,0.6171497 4.262379,1.3784424 v 0.7142725 m 0,0 c 0,-0.7612927 -1.908332,-1.3784425 -4.262379,-1.3784425 -2.3540466,1e-7 -4.2623784,0.6171498 -4.2623784,1.3784425 V 2.6020898"
       style="color:#000000;overflow:visible;fill:url(#linearGradient19562);fill-opacity:1;stroke:#d3d7cf;stroke-width:0.25;stroke-linecap:round;stroke-miterlimit:4;stroke-dasharray:none;stop-color:#000000"
       id="path19548" />
    <ellipse
       style="color:#000000;overflow:visible;fill:#d3d7cf;stroke:#555753;stroke-width:0.25;stroke-linecap:round;stroke-miterlimit:4;stroke-dasharray:none;stop-color:#000000"
       id="ellipse19393"
       cx="11.012042"
       cy="3.3251615"
       rx="4.2623792"
       ry="1.3784423" />
    <ellipse
       style="color:#000000;overflow:visible;fill:url(#radialGradient19572);fill-opacity:1;stroke:#555753;stroke-width:0.25;stroke-linecap:round;stroke-miterlimit:4;stroke-dasharray:none;stop-color:#000000"
       id="ellipse19387"
       cx="11.012042"
       cy="3.0281856"
       rx="2.2978735"
       ry="0.74575466" />
    <path
       id="path19554"
       style="color:#000000;overflow:visible;fill:#888a85;stroke:url(#linearGradient19604);stroke-width:0.25;stroke-linecap:round;stroke-miterlimit:4;stroke-dasharray:none;stop-color:#000000"
       d="m 6.7496636,3.3498539 c 0,0.7612927 1.9083318,1.3784423 4.2623784,1.3784424 2.354047,0 4.262379,-0.6171497 4.262379,-1.3784424 V 2.6355815 m 0,0 c 0,0.7612927 -1.908332,1.3784424 -4.262379,1.3784424 -2.3540466,-10e-8 -4.2623784,-0.6171497 -4.2623784,-1.3784424 v 0.7142724" />
    <ellipse
       ry="1.3784423"
       rx="4.2623792"
       cy="2.577667"
       cx="11.012042"
       id="ellipse19564"
       style="color:#000000;overflow:visible;fill:none;stroke:#eeeeec;stroke-width:0.25;stroke-linecap:round;stroke-miterlimit:4;stroke-dasharray:none;stop-color:#000000" />
    <path
       d="m 9.238258,0.6134611 v 2.1562246 0.016444 h 0.00205 a 1.794801,0.53429302 0 0 0 1.793633,0.5179873 1.794801,0.53429302 0 0 0 1.793631,-0.5179873 h 0.0021 V 2.7696857 0.6134611 Z"
       style="color:#000000;font-variation-settings:normal;overflow:visible;opacity:1;vector-effect:none;fill:url(#linearGradient19525);fill-opacity:1;stroke:none;stroke-width:0.25;stroke-linecap:round;stroke-linejoin:round;stroke-miterlimit:4;stroke-dasharray:none;stroke-dashoffset:0;stroke-opacity:1;stop-color:#000000;stop-opacity:1"
       id="rect19514" />
    <path
       sodipodi:nodetypes="ccccc"
       id="path19590"
       d="M 6.2458154,4.1331774 6.2303998,14.415614 9.3622105,14.801225 9.37752,4.6574786 Z"
       style="fill:#ffffff;fill-rule:evenodd;stroke:none;stroke-width:0.999998px;stroke-linecap:butt;stroke-linejoin:miter;stroke-opacity:1;fill-opacity:1" />
    <path
       sodipodi:nodetypes="cccc"
       id="path19399"
       d="M 9.4810185,4.6329256 6.2220686,4.1311463 6.2737664,14.344171 9.4352402,14.802604"
       style="font-variation-settings:normal;opacity:1;vector-effect:none;fill:none;fill-opacity:1;fill-rule:evenodd;stroke:#2e3436;stroke-width:0.25;stroke-linecap:round;stroke-linejoin:miter;stroke-miterlimit:4;stroke-dasharray:none;stroke-dashoffset:0;stroke-opacity:1;stop-color:#000000;stop-opacity:1" />
    <path
       sodipodi:nodetypes="ccccc"
       d="m 9.9325361,4.7959037 0.6474559,0.055243 v 9.9317166 l -0.6585044,-0.0442 z"
       style="color:#000000;font-variation-settings:normal;overflow:visible;opacity:1;vector-effect:none;fill:#ffffff;fill-opacity:1;stroke:none;stroke-width:0.25;stroke-linecap:round;stroke-linejoin:round;stroke-miterlimit:4;stroke-dasharray:none;stroke-dashoffset:0;stroke-opacity:1;stop-color:#000000;stop-opacity:1"
       id="rect19592" />
    <path
       sodipodi:nodetypes="ccccc"
       d="m 11.150953,4.8571968 h 0.386292 v 9.9206672 l -0.375243,0 z"
       style="color:#000000;font-variation-settings:normal;overflow:visible;opacity:1;vector-effect:none;fill:#ffffff;fill-opacity:1;stroke:none;stroke-width:0.25;stroke-linecap:round;stroke-linejoin:round;stroke-miterlimit:4;stroke-dasharray:none;stroke-dashoffset:0;stroke-opacity:1;stop-color:#000000;stop-opacity:1"
       id="rect19594" />
    <g
       transform="matrix(0,0.08346311,-0.08346136,-0.01094452,7.3116279,4.6728288)"
       style="font-style:normal;font-variant:normal;font-weight:bold;font-stretch:normal;font-size:40px;line-height:125%;font-family:Arial;-inkscape-font-specification:'Arial, Bold';font-variant-ligatures:normal;font-variant-caps:normal;font-variant-numeric:normal;font-variant-east-asian:normal;letter-spacing:0px;word-spacing:0px;fill:#f57900;fill-opacity:1;stroke:none;stroke-width:11.9815px;stroke-linecap:butt;stroke-linejoin:miter;stroke-opacity:1"
       id="text19632"
       aria-label="200">
      <path
         style="stroke-width:11.9815px;fill:#f57900"
         id="path19634"
         d="M 24.088063,2.1850281 V 7.2826843 H 4.8497818 q 0.3125,-2.890625 1.875,-5.46875 1.5625,-2.59765622 6.1718752,-6.875 3.710937,-3.4570312 4.550781,-4.6875 1.132813,-1.6992183 1.132813,-3.3593753 0,-1.835937 -0.996094,-2.8125 -0.976563,-0.996093 -2.714844,-0.996093 -1.71875,0 -2.734375,1.035156 -1.015625,1.035156 -1.171875,3.4375 l -5.46875,-0.546875 q 0.4882813,-4.53125 3.0664063,-6.503906 2.5781247,-1.972657 6.4453127,-1.972657 4.238281,0 6.660156,2.285157 2.421875,2.285156 2.421875,5.683593 0,1.933594 -0.703125,3.6914066 -0.683594,1.7382812 -2.1875,3.6523437 -0.996094,1.2695313 -3.59375,3.6523438 -2.597656,2.38281248 -3.300781,3.16406248 -0.683594,0.78125002 -1.113281,1.52343752 z" />
      <path
         style="stroke-width:11.9815px;fill:#f57900"
         id="path19636"
         d="m 37.095876,-21.467316 q 4.160156,0 6.503906,2.96875 2.792969,3.515625 2.792969,11.6601566 0,8.125 -2.8125,11.6796875 -2.324219,2.9296875 -6.484375,2.9296875 -4.179688,0 -6.738282,-3.203125 -2.558593,-3.2226563 -2.558593,-11.4648438 0,-8.0859378 2.8125,-11.6406248 2.324218,-2.929688 6.484375,-2.929688 z m 0,4.550782 q -0.996094,0 -1.777344,0.644531 -0.78125,0.625 -1.210938,2.265625 -0.566406,2.128906 -0.566406,7.1679686 0,5.0390625 0.507813,6.93359373 0.507812,1.87499997 1.269531,2.49999997 0.78125,0.625 1.777344,0.625 0.996093,0 1.777343,-0.625 0.78125,-0.6445312 1.210938,-2.28515622 0.566406,-2.10937498 0.566406,-7.14843748 0,-5.0390626 -0.507812,-6.9140626 -0.507813,-1.894531 -1.289063,-2.519531 -0.761719,-0.644531 -1.757812,-0.644531 z" />
      <path
         style="stroke-width:11.9815px;fill:#f57900"
         id="path19638"
         d="m 59.361501,-21.467316 q 4.160156,0 6.503906,2.96875 2.792969,3.515625 2.792969,11.6601566 0,8.125 -2.8125,11.6796875 -2.324219,2.9296875 -6.484375,2.9296875 -4.179688,0 -6.738282,-3.203125 -2.558593,-3.2226563 -2.558593,-11.4648438 0,-8.0859378 2.8125,-11.6406248 2.324218,-2.929688 6.484375,-2.929688 z m 0,4.550782 q -0.996094,0 -1.777344,0.644531 -0.78125,0.625 -1.210938,2.265625 -0.566406,2.128906 -0.566406,7.1679686 0,5.0390625 0.507813,6.93359373 0.507812,1.87499997 1.269531,2.49999997 0.78125,0.625 1.777344,0.625 0.996093,0 1.777343,-0.625 0.78125,-0.6445312 1.210938,-2.28515622 0.566406,-2.10937498 0.566406,-7.14843748 0,-5.0390626 -0.507812,-6.9140626 -0.507813,-1.894531 -1.289063,-2.519531 -0.761719,-0.644531 -1.757812,-0.644531 z" />
    </g>
    <path
       sodipodi:nodetypes="cccccccc"
       id="path3196"
       d="m 9.205615,2.8505707 c 0,-0.086329 0.052103,-1.7922315 0.052103,-1.7922315 l 3.582591,-0.043165 -0.0089,1.7922315 -0.647456,0.4748111 -1.575477,0.043165 -0.8417446,-0.1079116 z"
       style="fill:url(#radialGradient3212);fill-opacity:1;fill-rule:evenodd;stroke:none;stroke-width:0.999998px;stroke-linecap:butt;stroke-linejoin:miter;stroke-opacity:1" />
    <path
       id="path3198"
       style="color:#000000;font-variation-settings:normal;overflow:visible;opacity:1;vector-effect:none;fill:none;fill-opacity:1;stroke:#555753;stroke-width:0.25;stroke-linecap:round;stroke-linejoin:round;stroke-miterlimit:4;stroke-dasharray:none;stroke-dashoffset:0;stroke-opacity:1;stop-color:#000000;stop-opacity:1"
       d="m 9.1950942,0.67820808 v 2.15622452 0.016444 h 0.00205 a 1.794801,0.53429302 0 0 0 1.7936338,0.5179873 1.794801,0.53429302 0 0 0 1.79363,-0.5179873 h 0.0021 V 2.8344326 0.67820808 Z" />
    <ellipse
       ry="0.5871489"
       rx="1.8014191"
       cy="0.61296707"
       cx="11.021431"
       id="path19385"
       style="color:#000000;overflow:visible;fill:#d3d7cf;fill-opacity:1;stroke:none;stroke-width:0.25;stroke-linecap:round;stroke-linejoin:round;stroke-miterlimit:4;stroke-dasharray:none;stop-color:#000000" />
    <ellipse
       style="color:#000000;overflow:visible;fill:#000000;fill-opacity:1;stroke:none;stroke-width:0.25;stroke-linecap:round;stroke-miterlimit:4;stroke-dasharray:none;stop-color:#000000"
       id="ellipse19539"
       cx="11.021431"
       cy="0.61296707"
       rx="1.1478467"
       ry="0.30525106" />
    <ellipse
       style="color:#000000;overflow:visible;fill:none;fill-opacity:1;stroke:#eeeeec;stroke-width:0.25;stroke-linecap:round;stroke-linejoin:round;stroke-miterlimit:4;stroke-dasharray:none;stop-color:#000000"
       id="ellipse3200"
       cx="10.978268"
       cy="0.67771399"
       rx="1.8014191"
       ry="0.5871489" />
  </g>
</svg>
