<?xml version="1.0" encoding="UTF-8" standalone="no"?>
<!-- Created with Inkscape (http://www.inkscape.org/) -->
<svg
   xmlns:dc="http://purl.org/dc/elements/1.1/"
   xmlns:cc="http://web.resource.org/cc/"
   xmlns:rdf="http://www.w3.org/1999/02/22-rdf-syntax-ns#"
   xmlns:svg="http://www.w3.org/2000/svg"
   xmlns="http://www.w3.org/2000/svg"
   xmlns:sodipodi="http://sodipodi.sourceforge.net/DTD/sodipodi-0.dtd"
   xmlns:inkscape="http://www.inkscape.org/namespaces/inkscape"
   width="16px"
   height="16px"
   id="svg6803"
   sodipodi:version="0.32"
   inkscape:version="0.45.1"
   sodipodi:docbase="c:\dev\src\houdini\support\icons\IMAGE"
   sodipodi:docname="view_labels.svg"
   inkscape:output_extension="org.inkscape.output.svg.inkscape">
  <defs
     id="defs6805" />
  <sodipodi:namedview
     id="base"
     pagecolor="#ffffff"
     bordercolor="#666666"
     borderopacity="1.0"
     inkscape:pageopacity="0.0"
     inkscape:pageshadow="2"
     inkscape:zoom="44.395604"
     inkscape:cx="8"
     inkscape:cy="8"
     inkscape:current-layer="layer1"
     showgrid="true"
     inkscape:grid-bbox="true"
     inkscape:document-units="px"
     inkscape:window-width="1326"
     inkscape:window-height="1092"
     inkscape:window-x="298"
     inkscape:window-y="6" />
  <metadata
     id="metadata6808">
    <rdf:RDF>
      <cc:Work
         rdf:about="">
        <dc:format>image/svg+xml</dc:format>
        <dc:type
           rdf:resource="http://purl.org/dc/dcmitype/StillImage" />
      </cc:Work>
    </rdf:RDF>
  </metadata>
  <g
     id="layer1"
     inkscape:label="Layer 1"
     inkscape:groupmode="layer">
    <path
       style="font-size:9.20012474px;font-style:normal;font-variant:normal;font-weight:normal;font-stretch:normal;text-align:start;line-height:125%;writing-mode:lr-tb;text-anchor:start;fill:#ffffff;fill-opacity:0.67843137;stroke:none;stroke-width:2;stroke-linecap:butt;stroke-linejoin:miter;stroke-miterlimit:4;stroke-dasharray:none;stroke-opacity:1;font-family:Tahoma"
       d="M 5.28125,3 L 5.28125,4 L 5.28125,5.5625 C 5.2152899,5.5012557 5.1662001,5.4276751 5.09375,5.375 C 4.7898737,5.1564517 4.4584262,4.9863651 4.09375,4.90625 C 3.7534914,4.831515 3.3698024,4.8125054 2.96875,4.8125 C 2.6181116,4.8125062 2.2890591,4.8433609 1.9375,4.90625 C 1.6247377,4.9622088 1.3699919,5.0343139 1.15625,5.09375 L 0.40625,5.28125 L 0.40625,6.03125 L 0.40625,6.875 L 0.40625,7.875 L 0.5625,7.875 C 0.5110221,7.939687 0.4193562,7.960124 0.375,8.03125 C 0.1128232,8.451661 -3.9999781e-007,8.950346 2.185585e-012,9.4375 C -3.9999781e-007,9.782513 0.0549044,10.11792 0.1875,10.4375 C 0.3143997,10.743357 0.5097874,11.044521 0.75,11.28125 C 0.98519691,11.508 1.2606718,11.690474 1.5625,11.8125 C 1.8711209,11.937275 2.2309512,12 2.5625,12 C 2.8722675,12 3.1408623,11.992352 3.4375,11.90625 C 3.4601033,11.899689 3.4775345,11.882064 3.5,11.875 L 4.21875,11.875 L 5.0625,11.875 L 5.28125,11.875 L 6.0625,11.875 L 6.28125,11.875 L 7.09375,11.875 L 7.625,11.875 C 7.889835,11.940083 8.1561163,12 8.4375,12 C 9.3158564,12 10.156335,11.587069 10.71875,10.90625 C 10.757565,10.859262 10.776477,10.798965 10.8125,10.75 C 10.889954,10.8551 10.971407,10.970861 11.0625,11.0625 C 11.378498,11.380396 11.764644,11.599249 12.1875,11.75 C 12.599279,11.896804 13.050032,11.96875 13.5,11.96875 C 13.723172,11.96875 13.914153,11.977619 14.125,11.9375 C 14.277188,11.908541 14.425943,11.859685 14.59375,11.8125 C 14.760924,11.769836 14.898741,11.725789 15.0625,11.65625 C 15.194573,11.600163 15.312123,11.542132 15.40625,11.5 L 16,11.21875 L 16,10.59375 L 16,9.65625 L 16,8.65625 L 15,8.65625 L 14.9375,8.65625 L 14.5625,8.65625 L 14.28125,8.90625 C 14.167664,9.008911 14.037148,9.115929 13.875,9.1875 C 13.746709,9.244126 13.616626,9.25 13.46875,9.25 C 13.238751,9.25 13.235973,9.255584 13.15625,9.15625 C 13.077965,9.05871 12.999999,8.839178 13,8.40625 C 12.999999,7.963743 13.108951,7.750803 13.1875,7.65625 C 13.284712,7.539232 13.266648,7.531252 13.46875,7.53125 C 13.519845,7.531251 13.601323,7.538989 13.6875,7.5625 C 13.800376,7.593303 13.859554,7.633166 13.90625,7.65625 L 13.9375,7.65625 C 14.044358,7.70891 14.109209,7.74958 14.15625,7.78125 C 14.234693,7.834073 14.286956,7.885321 14.3125,7.90625 L 14.59375,8.125 L 14.9375,8.125 L 15,8.125 L 16,8.125 L 16,7.125 L 16,6.1875 L 16,5.5625 L 15.4375,5.3125 C 15.17271,5.1829637 14.899777,5.0584743 14.59375,4.96875 C 14.240056,4.8650644 13.871418,4.8125061 13.5,4.8125 C 13.043011,4.8125065 12.576641,4.8999781 12.15625,5.0625 C 11.732632,5.2262827 11.340789,5.4824341 11.03125,5.8125 C 10.990642,5.8558024 10.97547,5.9230561 10.9375,5.96875 C 10.915918,5.937407 10.897883,5.9056637 10.875,5.875 C 10.37684,5.2074873 9.552812,4.8125076 8.71875,4.8125 C 8.5158791,4.8125032 8.3232566,4.899178 8.125,4.9375 L 8.125,4 L 8.125,3 L 7.125,3 L 6.28125,3 L 5.28125,3 z M 8.53125,7.5625 C 8.5678047,7.622298 8.6874966,7.892343 8.6875,8.375 C 8.6874967,8.893057 8.5548848,9.127906 8.53125,9.15625 C 8.4655266,9.235066 8.4928319,9.25 8.28125,9.25 C 8.2165413,9.25 8.1757056,9.255791 8.125,9.25 L 8.125,7.6875 C 8.1472717,7.67662 8.1642818,7.666516 8.1875,7.65625 C 8.3163399,7.599288 8.4153721,7.593751 8.5,7.59375 C 8.5496161,7.593751 8.5253073,7.568839 8.53125,7.5625 z "
       id="path3497" />
    <path
       style="font-size:9.20012474px;font-style:normal;font-variant:normal;font-weight:normal;font-stretch:normal;text-align:start;line-height:125%;writing-mode:lr-tb;text-anchor:start;fill:#2e3436;fill-opacity:1;stroke:none;stroke-width:1px;stroke-linecap:butt;stroke-linejoin:miter;stroke-opacity:1;font-family:Tahoma"
       d="M 13.490191,10.973531 C 13.139426,10.973531 12.817641,10.921336 12.524832,10.816946 C 12.23202,10.712557 11.980387,10.554502 11.769931,10.342782 C 11.559473,10.131063 11.396291,9.864207 11.280388,9.542215 C 11.164483,9.220226 11.106531,8.84163 11.106532,8.406425 C 11.106531,7.974166 11.166771,7.600716 11.287251,7.286073 C 11.40773,6.971437 11.568623,6.706787 11.769931,6.492123 C 11.971237,6.277467 12.222107,6.112061 12.522545,5.9959036 C 12.822979,5.8797563 13.145527,5.8216803 13.490191,5.8216754 C 13.770798,5.8216803 14.041495,5.8599077 14.302282,5.9363576 C 14.563063,6.012816 14.795634,6.101033 14.999995,6.201007 L 14.999995,7.131694 L 14.949668,7.131694 C 14.888662,7.081708 14.810122,7.024367 14.714048,6.959671 C 14.617965,6.894983 14.501298,6.82882 14.364048,6.761183 C 14.24509,6.702377 14.104785,6.650917 13.943133,6.606804 C 13.781474,6.5627 13.625918,6.540646 13.476465,6.540642 C 13.031148,6.540646 12.673523,6.703111 12.40359,7.028039 C 12.133654,7.352974 11.998687,7.812436 11.998688,8.406425 C 11.998687,8.988657 12.129079,9.442238 12.389864,9.767167 C 12.650648,10.0921 13.012847,10.254565 13.476465,10.254565 C 13.757073,10.254565 14.023957,10.198696 14.277119,10.086953 C 14.530274,9.975213 14.754457,9.831126 14.949668,9.654691 L 14.999995,9.654691 L 14.999995,10.585377 C 14.914588,10.623605 14.807834,10.669919 14.679734,10.724319 C 14.551625,10.77872 14.435722,10.819152 14.332021,10.845617 C 14.185613,10.886785 14.054458,10.918396 13.938558,10.94045 C 13.82265,10.962504 13.673195,10.973531 13.490191,10.973531 L 13.490191,10.973531 z "
       id="text3456" />
    <path
       id="path3482"
       style="font-size:9.20012474px;font-style:normal;font-variant:normal;font-weight:normal;font-stretch:normal;text-align:start;line-height:125%;writing-mode:lr-tb;text-anchor:start;fill:#2e3436;fill-opacity:1;stroke:none;stroke-width:1px;stroke-linecap:butt;stroke-linejoin:miter;stroke-opacity:1;font-family:Tahoma"
       d="M 4.2117633,9.650281 L 4.2117633,8.282922 C 4.0074028,8.300567 3.7489065,8.324827 3.4362734,8.355701 C 3.123635,8.386579 2.8712388,8.429952 2.6790841,8.48582 C 2.4503243,8.553456 2.2612178,8.657109 2.1117641,8.796784 C 1.9623075,8.936462 1.88758,9.131274 1.8875811,9.38122 C 1.88758,9.663515 1.9699328,9.876705 2.1346398,10.020791 C 2.2993441,10.164879 2.5403025,10.236922 2.8575155,10.236922 C 3.1289726,10.236922 3.3745061,10.180317 3.5941165,10.067104 C 3.8137212,9.953894 4.0196033,9.814952 4.2117633,9.650281 L 4.2117633,9.650281 z M 4.2117633,10.33837 C 4.1416074,10.388361 4.0478167,10.458199 3.9303909,10.547885 C 3.8129587,10.637573 3.6993423,10.708881 3.5895413,10.761811 C 3.4370333,10.838266 3.2898657,10.897077 3.1480383,10.938244 C 3.0062059,10.979412 2.8071866,10.999996 2.5509796,10.999996 C 2.3405205,10.999996 2.1407387,10.961769 1.9516334,10.885314 C 1.7625257,10.80886 1.596295,10.701529 1.4529407,10.563323 C 1.3156853,10.428058 1.2058816,10.261182 1.1235291,10.062694 C 1.0411759,9.864207 0.99999951,9.654692 0.99999978,9.43415 C 0.99999951,9.093047 1.0747271,8.802667 1.2241827,8.563009 C 1.3736374,8.323357 1.6100204,8.132956 1.9333327,7.991806 C 2.2200414,7.865366 2.558603,7.777884 2.9490187,7.729361 C 3.3394299,7.680846 3.7603444,7.644824 4.2117633,7.621296 L 4.2117633,7.462506 C 4.2117599,7.268433 4.1812588,7.111849 4.1202602,6.992752 C 4.0592546,6.873663 3.9738517,6.781771 3.864051,6.717075 C 3.7542441,6.649447 3.6200395,6.604602 3.4614368,6.582545 C 3.3028287,6.560495 3.139648,6.549467 2.9718945,6.549463 C 2.7736354,6.549467 2.5403025,6.578138 2.2718947,6.635475 C 2.003484,6.692819 1.7350747,6.77589 1.4666663,6.884687 L 1.4163394,6.884687 L 1.4163394,6.042217 C 1.5749442,5.9981138 1.8021771,5.9495943 2.0980386,5.8966594 C 2.3938974,5.8437342 2.6867075,5.8172697 2.9764696,5.8172646 C 3.3272295,5.8172697 3.6230897,5.8437342 3.864051,5.8966594 C 4.1050062,5.9495943 4.3215637,6.045162 4.513724,6.183364 C 4.6997767,6.318634 4.8385564,6.493597 4.9300637,6.708253 C 5.0215627,6.922918 5.0673143,7.184628 5.0673186,7.493382 L 5.0673186,10.86326 L 4.2117633,10.86326 L 4.2117633,10.33837 z " />
    <path
       id="path3478"
       style="font-size:9.20012474px;font-style:normal;font-variant:normal;font-weight:normal;font-stretch:normal;text-align:start;line-height:125%;writing-mode:lr-tb;text-anchor:start;fill:#2e3436;fill-opacity:1;stroke:none;stroke-width:1px;stroke-linecap:butt;stroke-linejoin:miter;stroke-opacity:1;font-family:Tahoma"
       d="M 9.6790817,8.38437 C 9.6790776,7.796262 9.5860494,7.350034 9.3999968,7.045682 C 9.2139366,6.741339 8.9150264,6.589165 8.503265,6.589161 C 8.2684042,6.589165 8.0312585,6.642095 7.7918274,6.747951 C 7.552392,6.853815 7.335072,6.98761 7.1398668,7.149337 L 7.1398668,9.972272 C 7.3564228,10.075192 7.5485794,10.147971 7.7163372,10.190608 C 7.8840909,10.233247 8.0686222,10.254565 8.2699317,10.254565 C 8.7091443,10.254565 9.0538061,10.104597 9.3039184,9.804659 C 9.5540233,9.504724 9.6790776,9.031295 9.6790817,8.38437 L 9.6790817,8.38437 z M 10.566663,8.318209 C 10.566658,9.123922 10.363827,9.772314 9.9581665,10.263386 C 9.5524983,10.754459 9.0446558,10.999996 8.4346376,10.999996 C 8.1570753,10.999996 7.9199296,10.966915 7.7232,10.900752 C 7.5264661,10.834589 7.332022,10.745638 7.1398668,10.633897 L 7.0849649,10.86326 L 6.2797364,10.86326 L 6.2797364,4.0000004 L 7.1398668,4.0000004 L 7.1398668,6.452425 C 7.3564228,6.264234 7.5912809,6.108384 7.8444417,5.9848761 C 8.0975982,5.8613776 8.3843081,5.7996263 8.7045721,5.7996212 C 9.2810389,5.7996263 9.7355045,6.022373 10.06797,6.467862 C 10.400428,6.913362 10.566658,7.530142 10.566663,8.318209 L 10.566663,8.318209 z " />
  </g>
</svg>
