<?xml version="1.0" encoding="UTF-8" standalone="no"?>
<!-- Created with Inkscape (http://www.inkscape.org/) -->

<svg
   xmlns:i="http://ns.adobe.com/AdobeIllustrator/10.0/"
   xmlns:a="http://ns.adobe.com/AdobeSVGViewerExtensions/3.0/"
   xmlns:dc="http://purl.org/dc/elements/1.1/"
   xmlns:cc="http://creativecommons.org/ns#"
   xmlns:rdf="http://www.w3.org/1999/02/22-rdf-syntax-ns#"
   xmlns:svg="http://www.w3.org/2000/svg"
   xmlns="http://www.w3.org/2000/svg"
   xmlns:xlink="http://www.w3.org/1999/xlink"
   xmlns:sodipodi="http://sodipodi.sourceforge.net/DTD/sodipodi-0.dtd"
   xmlns:inkscape="http://www.inkscape.org/namespaces/inkscape"
   width="48px"
   height="48px"
   id="svg74342"
   sodipodi:version="0.32"
   inkscape:version="0.48.2 r9819"
   sodipodi:docname="clothattachtobody.svg"
   version="1.1">
  <metadata
     id="metadata19934">
    <rdf:RDF>
      <cc:Work
         rdf:about="">
        <dc:format>image/svg+xml</dc:format>
        <dc:type
           rdf:resource="http://purl.org/dc/dcmitype/StillImage" />
        <dc:title></dc:title>
      </cc:Work>
    </rdf:RDF>
  </metadata>
  <defs
     id="defs74344">
    <linearGradient
       id="linearGradient20689">
      <stop
         style="stop-color:#bc5d00;stop-opacity:1;"
         offset="0"
         id="stop20691" />
      <stop
         style="stop-color:#f57900;stop-opacity:0;"
         offset="1"
         id="stop20693" />
    </linearGradient>
    <linearGradient
       inkscape:collect="always"
       id="linearGradient20677">
      <stop
         style="stop-color:#f57900;stop-opacity:1;"
         offset="0"
         id="stop20679" />
      <stop
         style="stop-color:#f57900;stop-opacity:0;"
         offset="1"
         id="stop20681" />
    </linearGradient>
    <radialGradient
       gradientUnits="userSpaceOnUse"
       fy="1658.4282"
       fx="1182.248"
       r="3.295"
       cy="1658.4282"
       cx="1182.248"
       id="XMLID_823_"
       gradientTransform="translate(-1156.642,-1655.956)">
      <stop
         id="stop22171"
         style="stop-color:#e6e6e6;stop-opacity:1;"
         offset="0" />
      <stop
         id="stop22175"
         style="stop-color:#a5a5a5;stop-opacity:1;"
         offset="1" />
      <a:midPointStop
         style="stop-color:#F3D196"
         offset="0" />
      <a:midPointStop
         style="stop-color:#F3D196"
         offset="0.5" />
      <a:midPointStop
         style="stop-color:#F3D196"
         offset="0.1966" />
      <a:midPointStop
         style="stop-color:#F3D196"
         offset="0.5" />
      <a:midPointStop
         style="stop-color:#EE8424"
         offset="1" />
    </radialGradient>
    <radialGradient
       inkscape:collect="always"
       xlink:href="#XMLID_823_"
       id="radialGradient19937"
       gradientUnits="userSpaceOnUse"
       gradientTransform="matrix(1.9148427,0,0,1.9149447,-2233.8307,-3171.0686)"
       cx="1182.248"
       cy="1658.4282"
       fx="1182.248"
       fy="1658.4282"
       r="3.295" />
    <radialGradient
       inkscape:collect="always"
       xlink:href="#XMLID_823_"
       id="radialGradient19940"
       gradientUnits="userSpaceOnUse"
       gradientTransform="matrix(1.9148427,0,0,1.9149447,-2233.8307,-3171.0686)"
       cx="1181.2627"
       cy="1662.6655"
       fx="1181.2627"
       fy="1662.6655"
       r="1.5416" />
    <linearGradient
       inkscape:collect="always"
       xlink:href="#XMLID_823_"
       id="linearGradient19943"
       gradientUnits="userSpaceOnUse"
       gradientTransform="matrix(1.8169432,-0.60446589,0.60443373,1.8170399,-3126.0745,-2296.5063)"
       x1="1164.1084"
       y1="1674.438"
       x2="1165.697"
       y2="1675.8204" />
    <radialGradient
       inkscape:collect="always"
       xlink:href="#XMLID_823_"
       id="radialGradient19946"
       gradientUnits="userSpaceOnUse"
       gradientTransform="matrix(1.8169432,-0.60446589,0.60443373,1.8170399,-3126.0745,-2296.5063)"
       cx="1166.4258"
       cy="1673.1479"
       fx="1166.4258"
       fy="1673.1479"
       r="0.61199999" />
    <linearGradient
       inkscape:collect="always"
       xlink:href="#XMLID_823_"
       id="linearGradient19949"
       gradientUnits="userSpaceOnUse"
       gradientTransform="matrix(1.8169432,-0.60446589,0.60443373,1.8170399,-3126.0745,-2296.5063)"
       x1="1168.0264"
       y1="1670.603"
       x2="1169.2555"
       y2="1671.9275" />
    <radialGradient
       inkscape:collect="always"
       xlink:href="#XMLID_823_"
       id="radialGradient19952"
       gradientUnits="userSpaceOnUse"
       gradientTransform="matrix(1.8169432,-0.60446589,0.60443373,1.8170399,-3126.0745,-2296.5063)"
       cx="1171.0762"
       cy="1668.9565"
       fx="1171.0762"
       fy="1668.9565"
       r="0.71219999" />
    <linearGradient
       inkscape:collect="always"
       xlink:href="#XMLID_823_"
       id="linearGradient19955"
       gradientUnits="userSpaceOnUse"
       gradientTransform="matrix(1.8169432,-0.60446589,0.60443373,1.8170399,-3126.0745,-2296.5063)"
       x1="1173.0576"
       y1="1666.4204"
       x2="1174.4287"
       y2="1668.0752" />
    <radialGradient
       inkscape:collect="always"
       xlink:href="#XMLID_823_"
       id="radialGradient19958"
       gradientUnits="userSpaceOnUse"
       gradientTransform="matrix(1.8169432,-0.60446589,0.60443373,1.8170399,-3126.0745,-2296.5063)"
       cx="1176.8682"
       cy="1664.6011"
       fx="1176.8682"
       fy="1664.6011"
       r="1.28" />
    <radialGradient
       inkscape:collect="always"
       xlink:href="#XMLID_823_"
       id="radialGradient19961"
       gradientUnits="userSpaceOnUse"
       gradientTransform="matrix(2.1483505,0,0,2.3504092,-2509.5398,-3895.2845)"
       cx="1181.5469"
       cy="1665.856"
       fx="1181.5469"
       fy="1665.856"
       r="5.7747998" />
    <radialGradient
       inkscape:collect="always"
       xlink:href="#XMLID_823_"
       id="radialGradient19964"
       gradientUnits="userSpaceOnUse"
       gradientTransform="matrix(2.1483505,0,0,2.3504092,-2509.5398,-3895.2845)"
       cx="1181.3916"
       cy="1672.2339"
       fx="1181.3916"
       fy="1672.2339"
       r="2.9812" />
    <radialGradient
       inkscape:collect="always"
       xlink:href="#XMLID_823_"
       id="radialGradient19994"
       gradientUnits="userSpaceOnUse"
       gradientTransform="matrix(1.831358,0.55927103,-0.55924126,1.8314554,-1202.864,-3693.8767)"
       cx="1184.2646"
       cy="1665.2134"
       fx="1184.2646"
       fy="1665.2134"
       r="1.1028" />
    <linearGradient
       inkscape:collect="always"
       xlink:href="#XMLID_823_"
       id="linearGradient19997"
       gradientUnits="userSpaceOnUse"
       gradientTransform="matrix(1.831358,0.55927103,-0.55924126,1.8314554,-1202.864,-3693.8767)"
       x1="1186.3926"
       y1="1665.9634"
       x2="1185.3057"
       y2="1667.476" />
    <linearGradient
       inkscape:collect="always"
       xlink:href="#XMLID_823_"
       id="linearGradient20000"
       gradientUnits="userSpaceOnUse"
       gradientTransform="matrix(1.831358,0.55927103,-0.55924126,1.8314554,-1202.864,-3693.8767)"
       x1="1189.7734"
       y1="1668.9937"
       x2="1189.0643"
       y2="1670.0813" />
    <radialGradient
       inkscape:collect="always"
       xlink:href="#XMLID_823_"
       id="radialGradient20003"
       gradientUnits="userSpaceOnUse"
       gradientTransform="matrix(1.831358,0.55927103,-0.55924126,1.8314554,-1202.864,-3693.8767)"
       cx="1187.8115"
       cy="1667.9722"
       fx="1187.8115"
       fy="1667.9722"
       r="0.51679999" />
    <linearGradient
       inkscape:collect="always"
       xlink:href="#XMLID_823_"
       id="linearGradient20006"
       gradientUnits="userSpaceOnUse"
       gradientTransform="matrix(1.831358,0.55927103,-0.55924126,1.8314554,-1202.864,-3693.8767)"
       x1="1192.7393"
       y1="1671.6216"
       x2="1192.1241"
       y2="1672.3988" />
    <radialGradient
       inkscape:collect="always"
       xlink:href="#XMLID_823_"
       id="radialGradient20009"
       gradientUnits="userSpaceOnUse"
       gradientTransform="matrix(1.831358,0.55927103,-0.55924126,1.8314554,-1202.864,-3693.8767)"
       cx="1190.832"
       cy="1670.7847"
       fx="1190.832"
       fy="1670.7847"
       r="0.40110001" />
    <linearGradient
       inkscape:collect="always"
       xlink:href="#linearGradient20677"
       id="linearGradient20683"
       x1="27.223612"
       y1="22.165348"
       x2="26.516504"
       y2="32.115353"
       gradientUnits="userSpaceOnUse"
       gradientTransform="translate(0,0.5555839)" />
    <radialGradient
       inkscape:collect="always"
       xlink:href="#linearGradient20689"
       id="radialGradient20695"
       cx="34.799755"
       cy="23.102114"
       fx="34.799755"
       fy="23.102114"
       r="2.3233505"
       gradientTransform="matrix(1.45566,0.02371024,-0.05970833,3.6657177,-14.477468,-60.21411)"
       gradientUnits="userSpaceOnUse" />
  </defs>
  <sodipodi:namedview
     id="base"
     pagecolor="#ffffff"
     bordercolor="#666666"
     borderopacity="1.0"
     inkscape:pageopacity="0.0"
     inkscape:pageshadow="2"
     inkscape:zoom="19.79899"
     inkscape:cx="19.204448"
     inkscape:cy="22.620462"
     inkscape:current-layer="layer1"
     showgrid="true"
     inkscape:grid-bbox="true"
     inkscape:document-units="px"
     inkscape:window-width="1317"
     inkscape:window-height="1062"
     inkscape:window-x="303"
     inkscape:window-y="-5" />
  <g
     id="layer1"
     inkscape:label="Layer 1"
     inkscape:groupmode="layer">
    <path
       style="fill:#f57900;stroke:#5f2a00;stroke-width:1px;stroke-linecap:butt;stroke-linejoin:bevel;stroke-opacity:1"
       d="m 22.122341,12.897199 -0.153469,6.225606 9.593417,0.172924 -0.550605,-6.247007 c 0,0 -3.029332,0.749102 -4.69721,0.757614 -1.667878,0.0085 -4.192133,-0.909137 -4.192133,-0.909137 z"
       id="path20663"
       inkscape:connector-curvature="0"
       sodipodi:nodetypes="cccczc" />
    <path
       sodipodi:type="arc"
       style="color:#000000;fill:#f57900;stroke:#4c2200;stroke-width:1.18040764px;stroke-linecap:butt;stroke-linejoin:miter;stroke-miterlimit:4;stroke-opacity:1;stroke-dasharray:none;stroke-dashoffset:0;marker:none;visibility:visible;display:inline;overflow:visible;enable-background:accumulate"
       id="path20644"
       sodipodi:cx="16.036171"
       sodipodi:cy="26.887812"
       sodipodi:rx="4.2678943"
       sodipodi:ry="1.7352445"
       d="m 20.304065,26.887812 a 4.2678943,1.7352445 0 1 1 -8.535788,0 4.2678943,1.7352445 0 1 1 8.535788,0 z"
       transform="matrix(0.66285532,0.52162509,-0.50387659,0.68620367,15.19183,-0.15485693)" />
    <path
       i:knockout="Off"
       d="m 44.152186,31.427911 c 0.119044,0.03637 0.2922,0.367546 0.243153,0.606853 -0.052,0.242411 -0.771462,0.93972 -1.074867,0.799011 -0.300296,-0.13777 -0.554906,-0.503834 -0.515815,-0.658081 0.02928,-0.161252 1.190899,-0.785602 1.347529,-0.747783 z"
       id="path21872"
       style="fill:none;stroke:#66330d;stroke-width:1.19999993"
       inkscape:connector-curvature="0" />
    <path
       i:knockout="Off"
       d="m 43.222905,32.83201 c 0.580185,-0.123156 1.060113,-0.521202 1.172995,-0.799079 0.12604,-0.307893 1.847378,1.142811 2.940474,4.355848 0.389441,1.144078 0.02287,2.21345 -0.06187,2.025396 0,0 -0.901329,-0.549562 -2.454936,-2.838041 -0.863147,-1.264712 -1.401339,-2.183913 -1.596667,-2.744124 z"
       id="path21874"
       style="fill:none;stroke:#2e3436;stroke-width:1.19999992999999990"
       inkscape:connector-curvature="0" />
    <path
       i:knockout="Off"
       d="m 39.307893,24.278188 c 0.381371,0.06241 1.00258,0.696614 1.135752,1.289899 0.123092,0.55417 -1.349016,1.572248 -1.680535,1.517057 -0.335897,-0.06052 -1.000131,-0.934128 -0.955495,-1.395026 0.04425,-0.453014 1.319025,-1.441252 1.500278,-1.41193 z"
       id="path21876"
       style="fill:none;stroke:#2e3436;stroke-width:1.19999992999999990"
       inkscape:connector-curvature="0" />
    <path
       i:knockout="Off"
       d="m 39.712172,26.245713 c 0.398239,-0.346907 0.696414,-0.746397 0.780504,-0.726725 0.512346,0.02032 3.747606,5.561408 3.68585,5.84889 -0.06383,0.300866 -1.081596,1.011198 -1.470765,0.85631 -0.247848,-0.09971 -4.114078,-4.439941 -4.057009,-5.079248 0.0079,-0.09773 0.586177,-0.483732 1.06142,-0.899227 z"
       id="path21878"
       style="fill:none;stroke:#2e3436;stroke-width:1.19999992999999990"
       inkscape:connector-curvature="0" />
    <path
       i:knockout="Off"
       d="m 36.003368,17.941074 c 0.311563,0.271345 2.697423,3.729004 3.411924,6.129643 0.190005,0.636672 -1.307088,1.959474 -1.752792,1.701226 -0.477545,-0.271985 -4.005436,-4.526901 -4.003818,-4.892817 0.01504,-1.911534 1.861773,-3.349823 2.344686,-2.938052 z"
       id="path21880"
       style="fill:none;stroke:#2e3436;stroke-width:1.19999992999999990"
       inkscape:connector-curvature="0" />
    <path
       i:knockout="Off"
       d="m 34.412482,15.317687 c 0.397515,0.173454 1.602132,1.073922 1.601308,2.210942 -0.0027,1.136462 -1.606902,3.177378 -2.485433,3.287512 -0.879089,0.111974 0.884125,-5.498454 0.884125,-5.498454 z"
       id="path21882"
       style="fill:none;stroke:#2e3436;stroke-width:1.19999993"
       inkscape:connector-curvature="0" />
    <path
       i:knockout="Off"
       d="m 22.923122,32.935711 c 0.749773,-0.69102 6.561062,-1.819217 8.443017,-0.272648 0.449005,0.366664 0.971056,3.772407 0.599392,4.120267 -1.445842,1.337382 -7.158304,1.922634 -9.858782,0.242095 -0.754071,-0.472433 0.408187,-3.711298 0.816373,-4.089714 z"
       id="path21902"
       style="fill:none;stroke:#2e3436;stroke-width:1.19999992999999990"
       inkscape:connector-curvature="0" />
    <path
       i:knockout="Off"
       d="m 18.905708,14.426238 c 0.526343,-0.531193 8.821126,-2.301051 14.630267,0.378416 0.74118,0.34081 1.27612,6.863195 1.172998,7.377934 -0.384555,1.948489 -2.541497,9.655482 -3.089328,10.386458 -0.474786,0.632261 -5.794101,1.104693 -8.879133,0.406622 -0.06874,-0.02343 -0.111712,0.582901 -0.27284,0.39487 -0.191201,-0.220946 -1.082768,-1.492511 -1.611263,-2.350409 -0.840006,-1.358539 -3.327795,-6.517685 -3.987337,-10.924704 -0.365221,-2.42562 0.8443,-4.470478 2.036636,-5.669187 z"
       id="path21904"
       style="fill:none;stroke:#2e3436;stroke-width:1.19999992999999990"
       inkscape:connector-curvature="0" />
    <path
       i:knockout="Off"
       d="m 18.062271,15.119837 c 1.605839,0.02882 3.390375,2.966854 2.716696,4.526974 -0.432342,0.999519 -1.729094,1.529813 -2.362981,1.365325 -0.689589,-0.174207 -2.922962,-1.871117 -3.055297,-2.329604 -0.340812,-1.176199 0.398567,-2.229429 0.917816,-2.749292 0.722827,-0.720785 1.408343,-0.819684 1.783766,-0.813403 z"
       id="path21906"
       style="fill:none;stroke:#2e3436;stroke-width:1.19999992999999990"
       inkscape:connector-curvature="0" />
    <path
       i:knockout="Off"
       d="m 15.716549,17.993013 c 0.976893,-0.296742 3.146054,1.443729 2.850443,2.635896 -0.25858,1.042616 -5.139532,7.760172 -6.188636,8.313021 -0.122976,0.06715 -2.6441921,-1.24541 -2.4143821,-1.767867 1.1860481,-2.725512 4.9167961,-8.927217 5.7525751,-9.18105 z"
       id="path21908"
       style="fill:none;stroke:#2e3436;stroke-width:1.19999992999999990"
       inkscape:connector-curvature="0" />
    <path
       i:knockout="Off"
       d="m 9.9621569,27.174668 c 0.6540671,-0.163102 2.1510421,0.65469 2.4143831,1.767868 0.07611,0.325834 -0.515434,1.222918 -1.02295,1.365525 -0.2822,0.07377 -2.2725887,-0.929084 -2.3952599,-1.346389 -0.1571752,-0.532966 0.4702808,-1.655921 1.0038268,-1.787004 z"
       id="path21910"
       style="fill:none;stroke:#2e3436;stroke-width:1.19999992999999990"
       inkscape:connector-curvature="0" />
    <path
       i:knockout="Off"
       d="m 8.6603411,29.078972 c 0.599105,-0.401131 2.2658109,0.113999 2.7908109,1.10985 0.261294,0.494293 -4.8417463,7.975934 -5.3741584,8.231763 C 5.0133878,38.923768 3.5309631,38.076914 3.655321,37.704569 4.2928822,35.787148 7.5626881,29.807406 8.6603411,29.078972 z"
       id="path21912"
       style="fill:none;stroke:#2e3436;stroke-width:1.19999992999999990"
       inkscape:connector-curvature="0" />
    <path
       i:knockout="Off"
       d="M 3.7824222,37.801534 C 4.1512818,37.6425 5.1879173,37.689137 5.8729434,38.40169 5.98067,38.513182 5.6864846,39.333534 5.4593911,39.372757 5.2655989,39.408965 3.4588162,39.231055 3.3275374,39.030547 3.1914141,38.827603 3.3893435,37.966615 3.7824222,37.801534 z"
       id="path21914"
       style="fill:none;stroke:#2e3436;stroke-width:1.19999992999999990"
       inkscape:connector-curvature="0" />
    <path
       i:knockout="Off"
       d="m 3.3251161,39.029333 c 0.2841088,-0.189361 1.6399028,-0.226704 2.1239959,0.318589 0.5954325,0.673741 -0.012916,3.412922 -0.3416947,4.323484 -0.4937111,1.348891 -2.0782892,3.222142 -2.7324682,3.57297 -0.4433872,0.23833 -1.83114654,0.05824 -1.95913844,-0.575248 C 0.28660811,46.038059 0.34106905,44.09667 1.1493004,42.316209 1.9575373,40.535746 3.082203,39.190871 3.3251161,39.029333 z"
       id="path21916"
       style="fill:none;stroke:#2e3436;stroke-width:1.19999992999999990"
       inkscape:connector-curvature="0" />
    <path
       i:knockout="Off"
       d="m 25.230053,13.662517 c 0.07468,0.279582 1.181459,0.716189 2.32462,0.716189 1.143161,0 1.692721,-0.350435 1.865056,-0.582143 0.162767,-0.218304 0.197228,-2.673261 -0.04022,-2.790075 -0.354245,-0.176174 -3.597988,-0.235538 -4.046062,0.01909 -0.260418,0.147448 -0.166583,2.403255 -0.103404,2.638793 z"
       id="path21918"
       style="fill:none;stroke:#2e3436;stroke-width:1.19999992999999990"
       inkscape:connector-curvature="0" />
    <path
       i:knockout="Off"
       d="M 29.216755,0.82281299 C 30.478637,1.2038863 31.861154,2.8545686 31.790305,5.8303936 31.71753,8.8043025 30.536083,10.644565 29.844824,11.121385 29.249308,11.533099 25.310477,11.64225 24.806873,10.893506 23.273085,8.6089786 22.637357,4.3788658 23.899237,2.4715808 24.988783,0.82281299 27.782539,0.39195097 29.216755,0.82281299 z"
       id="path21920"
       style="fill:none;stroke:#2e3436;stroke-width:1.19999992999999990"
       inkscape:connector-curvature="0" />
    <path
       inkscape:connector-curvature="0"
       style="fill:url(#radialGradient20009);stroke:#729fcf;stroke-width:0.24999994000000000;fill-opacity:1"
       id="path21955"
       d="m 44.152813,31.429188 c 0.121279,0.02897 0.292199,0.367545 0.243154,0.606852 -0.052,0.242412 -0.771464,0.93972 -1.074868,0.799011 -0.300297,-0.13777 -0.554906,-0.503836 -0.515816,-0.658083 0.03297,-0.160134 1.190902,-0.7856 1.34753,-0.74778 z"
       i:knockout="Off" />
    <path
       inkscape:connector-curvature="0"
       style="fill:url(#linearGradient20006);stroke:#729fcf;stroke-width:0.24999994000000000;fill-opacity:1"
       id="path21962"
       d="m 43.223534,32.833288 c 0.580185,-0.123155 1.060111,-0.521202 1.172992,-0.79908 0.126041,-0.307894 1.847381,1.142811 2.940476,4.355849 0.38944,1.144076 0.02287,2.213449 -0.06186,2.025394 0,0 -0.901329,-0.549559 -2.454936,-2.838038 -0.863147,-1.264713 -1.401339,-2.183914 -1.596667,-2.744125 z"
       i:knockout="Off" />
    <path
       inkscape:connector-curvature="0"
       style="fill:url(#radialGradient20003);stroke:#729fcf;stroke-width:0.24999994000000000;fill-opacity:1"
       id="path21971"
       d="m 39.308519,24.279466 c 0.381371,0.06241 1.002583,0.696612 1.135755,1.289897 0.123091,0.55417 -1.349019,1.57225 -1.680538,1.517059 -0.335894,-0.06052 -1.00013,-0.934128 -0.955493,-1.395029 0.04424,-0.453012 1.319026,-1.44125 1.500276,-1.411927 z"
       i:knockout="Off" />
    <path
       inkscape:connector-curvature="0"
       style="fill:url(#linearGradient20000);stroke:#729fcf;stroke-width:0.24999994000000000;fill-opacity:1"
       id="path21980"
       d="m 39.712799,26.246992 c 0.398241,-0.346909 0.696415,-0.7464 0.780504,-0.726728 0.512348,0.02032 3.747608,5.56141 3.685849,5.848892 -0.06383,0.300866 -1.081593,1.011196 -1.470765,0.856308 -0.247847,-0.09971 -4.114076,-4.439941 -4.057006,-5.079248 0.0077,-0.09773 0.586173,-0.483732 1.061418,-0.899224 z"
       i:knockout="Off" />
    <path
       inkscape:connector-curvature="0"
       style="fill:url(#linearGradient19997);stroke:#729fcf;stroke-width:0.24999994000000000;fill-opacity:1"
       id="path21989"
       d="m 36.003995,17.942351 c 0.311565,0.271346 2.697424,3.729003 3.411921,6.129645 0.190006,0.636669 -1.307084,1.959471 -1.752789,1.701223 -0.477544,-0.271985 -4.005435,-4.526898 -4.003819,-4.892814 0.01504,-1.911537 1.861775,-3.349823 2.344687,-2.938054 z"
       i:knockout="Off" />
    <path
       inkscape:connector-curvature="0"
       style="fill:url(#radialGradient19994);stroke:#729fcf;stroke-width:0.24999994000000000;fill-opacity:1"
       id="path21998"
       d="m 34.428956,15.238871 c 0.397514,0.173454 1.60213,1.07392 1.601308,2.210942 -0.0027,1.136461 -1.606905,3.177378 -2.485434,3.28751 -0.879088,0.111974 0.884126,-5.498452 0.884126,-5.498452 z"
       i:knockout="Off" />
    <path
       inkscape:connector-curvature="0"
       style="fill:url(#radialGradient19964);stroke:#729fcf;stroke-width:0.24999994000000000;fill-opacity:1;stroke-opacity:1"
       id="path22094"
       d="m 22.924215,32.936986 c 0.749773,-0.69102 6.561062,-1.819218 8.443017,-0.272651 0.449005,0.366665 0.971054,3.77241 0.59939,4.120269 -1.44584,1.337383 -7.158303,1.922637 -9.858781,0.242092 -0.754071,-0.472433 0.408188,-3.711294 0.816374,-4.08971 z"
       i:knockout="Off" />
    <path
       inkscape:connector-curvature="0"
       style="fill:url(#radialGradient19961);stroke:#729fcf;stroke-width:0.24999994000000000;fill-opacity:1;stroke-opacity:1"
       id="path22103"
       d="m 18.906797,14.427512 c 0.526347,-0.531194 8.82113,-2.301049 14.63027,0.378415 0.74118,0.340811 1.27612,6.863197 1.172999,7.377934 -0.384555,1.948491 -2.541499,9.655482 -3.089329,10.386461 -0.474786,0.632259 -5.7941,1.104692 -8.879133,0.40662 -0.06874,-0.01869 -0.111724,0.582902 -0.272841,0.394868 -0.191201,-0.220944 -1.082767,-1.492509 -1.611261,-2.35041 -0.840006,-1.358536 -3.327795,-6.517684 -3.987341,-10.924701 -0.365218,-2.425621 0.844304,-4.470477 2.036636,-5.669187 z"
       i:knockout="Off" />
    <path
       inkscape:connector-curvature="0"
       style="fill:url(#radialGradient19958);stroke:#729fcf;stroke-width:0.24999994000000000;fill-opacity:1"
       id="path22112"
       d="m 18.063521,15.120514 c 1.605838,0.02883 3.390376,2.966854 2.716696,4.526977 -0.432341,0.999516 -1.729091,1.529813 -2.362979,1.365324 -0.68959,-0.174208 -2.922962,-1.87112 -3.055298,-2.329606 -0.340808,-1.176201 0.398567,-2.229428 0.917817,-2.749291 0.722824,-0.720784 1.408342,-0.819685 1.783764,-0.813404 z"
       i:knockout="Off" />
    <path
       inkscape:connector-curvature="0"
       style="fill:url(#linearGradient19955);stroke:#729fcf;stroke-width:0.24999994000000000;fill-opacity:1"
       id="path22123"
       d="m 15.717801,17.993691 c 0.976892,-0.296741 3.146052,1.443727 2.850443,2.635895 -0.25858,1.042616 -5.139532,7.760172 -6.188637,8.313023 -0.122956,0.06713 -2.6441901,-1.245409 -2.4143821,-1.767868 1.1860481,-2.725513 4.9167961,-8.927218 5.7525761,-9.18105 z"
       i:knockout="Off" />
    <path
       inkscape:connector-curvature="0"
       style="fill:url(#radialGradient19952);stroke:#729fcf;stroke-width:0.24999994000000000;fill-opacity:1"
       id="path22132"
       d="m 9.9634079,27.175347 c 0.6540691,-0.163102 2.1510421,0.654689 2.4143831,1.767865 0.07611,0.325837 -0.515434,1.22292 -1.022952,1.365525 -0.279825,0.0809 -2.2725866,-0.929083 -2.3952578,-1.346384 -0.160838,-0.531751 0.4702787,-1.655923 1.0038267,-1.787006 z"
       i:knockout="Off" />
    <path
       inkscape:connector-curvature="0"
       style="fill:url(#linearGradient19949);stroke:#729fcf;stroke-width:0.24999994000000000;fill-opacity:1"
       id="path22143"
       d="m 8.6615922,29.079649 c 0.5991032,-0.401129 2.2658108,0.113998 2.7908098,1.109852 0.261297,0.494293 -4.8417452,7.975931 -5.3741572,8.231761 -1.0636058,0.503182 -2.5460325,-0.343672 -2.4216746,-0.716016 0.6375631,-1.91742 3.907369,-7.897164 5.005022,-8.625597 z"
       i:knockout="Off" />
    <path
       inkscape:connector-curvature="0"
       style="fill:url(#radialGradient19946);stroke:#729fcf;stroke-width:0.24999994000000000;fill-opacity:1"
       id="path22152"
       d="m 3.7836734,37.802214 c 0.3688614,-0.159035 1.4054952,-0.112399 2.0905211,0.600154 0.1077074,0.111492 -0.1864588,0.931842 -0.4135522,0.971067 -0.1937922,0.03621 -2.0005749,-0.141684 -2.1318537,-0.342211 -0.1361234,-0.202945 0.061806,-1.06393 0.4548848,-1.22901 z"
       i:knockout="Off" />
    <path
       inkscape:connector-curvature="0"
       style="fill:url(#linearGradient19943);stroke:#729fcf;stroke-width:0.24999994000000000;fill-opacity:1"
       id="path22159"
       d="M 3.3263673,39.030011 C 3.610476,38.84065 4.96627,38.803307 5.4503632,39.3486 6.0457958,40.022343 5.4374468,42.761522 5.1086666,43.672087 4.6149574,45.020974 3.0303793,46.894225 2.3762002,47.245055 1.9328131,47.483385 0.54505176,47.303297 0.41706186,46.669807 0.28785926,46.038736 0.34232021,44.09735 1.1505496,42.316885 1.9587885,40.536424 3.0834541,39.191548 3.3263673,39.030011 z"
       i:knockout="Off" />
    <path
       inkscape:connector-curvature="0"
       style="fill:url(#radialGradient19940);stroke:#729fcf;stroke-width:0.24999994000000000;fill-opacity:1;stroke-opacity:1"
       id="path22168"
       d="m 25.231026,13.663554 c 0.07468,0.279581 1.181459,0.716189 2.32462,0.716189 1.143161,0 1.692721,-0.350435 1.865057,-0.582142 0.162766,-0.218305 0.197228,-2.673263 -0.04022,-2.790075 -0.354245,-0.176174 -3.597989,-0.235537 -4.046063,0.01716 -0.260419,0.147447 -0.166582,2.403257 -0.103404,2.638796 z"
       i:knockout="Off" />
    <path
       inkscape:connector-curvature="0"
       style="fill:url(#radialGradient19937);stroke:#729fcf;stroke-width:0.24999994000000000;stroke-opacity:1"
       id="path22177"
       d="M 29.217729,0.82385208 C 30.47961,1.2049255 31.862127,2.8556077 31.791277,5.8314308 31.718523,8.8053393 30.537056,10.645603 29.845797,11.122424 29.250281,11.534135 25.31145,11.643287 24.807846,10.894546 23.274057,8.6100154 22.638328,4.3799031 23.900211,2.472618 24.989757,0.82385208 27.783512,0.39298817 29.217729,0.82385208 z"
       i:knockout="Off" />
    <path
       style="fill:#fcaf3e;stroke:#833b00;stroke-width:1px;stroke-linecap:butt;stroke-linejoin:bevel;stroke-opacity:1"
       d="m 9.5964492,24.1604 c 2.3991198,-0.495264 5.9537658,2.262482 5.4548238,4.747717 l 2.020305,-2.373858 c 0.757274,4.46621 3.749052,8.919672 2.77792,13.384521 0,0 2.339807,2.562993 7.929697,2.171828 5.589891,-0.391165 6.010408,-3.687057 6.010408,-3.687057 -1.935488,-4.435751 1.072306,-7.993403 1.111168,-12.626907 l 1.616243,1.161676 c 2.014869,-0.718244 3.304894,-2.884822 3.384011,-4.646703 -0.603187,-1.812647 -2.031039,-4.565219 -4.343656,-7.071067 -1.399603,-0.977907 -3.520609,-1.811676 -4.848732,-2.12132 0,0 0.753337,4.27375 -3.333503,4.24264 -4.086839,-0.03111 -5.10127,-4.444671 -5.10127,-4.444671 -2.2648,0.262117 -3.871395,1.027265 -5.101271,1.666752 -1.294191,1.535967 -6.127152,5.846145 -7.5761438,9.596449 z"
       id="path20642"
       inkscape:connector-curvature="0"
       sodipodi:nodetypes="cccczcccccczccc" />
    <path
       style="fill:url(#radialGradient20695);fill-opacity:1;stroke:none"
       d="m 34.49671,25.726137 c 0.545301,-2.977665 -0.12753,-5.606067 -1.06066,-8.333759 1.679059,2.58911 3.002536,6.461482 4.646701,7.727667 -0.562789,0.909137 -0.943087,1.161676 -1.515229,1.414214 z"
       id="path20665"
       inkscape:connector-curvature="0"
       sodipodi:nodetypes="ccccc" />
    <path
       style="fill:url(#linearGradient20683);fill-opacity:1;stroke:none"
       d="m 19.647467,26.988827 c 4.292075,1.049515 10.681053,2.258255 14.950257,-1.414213 -0.130723,3.590004 -1.150546,5.02822 -1.767766,8.131727 l -12.273354,1.010153 z"
       id="path20667"
       inkscape:connector-curvature="0"
       sodipodi:nodetypes="ccccc" />
    <path
       style="fill:none;stroke:#eeeeec;stroke-width:1px;stroke-linecap:butt;stroke-linejoin:miter;stroke-opacity:1"
       d="m 11.566247,23.857354 c 0.877484,-1.736521 5.337799,-7.03609 6.05059,-7.786889 0.918392,-0.967364 2.374787,-1.549285 4.606519,-1.910575"
       id="path20699"
       inkscape:connector-curvature="0"
       sodipodi:nodetypes="csc" />
    <path
       style="fill:#f57900;stroke:none"
       d="m 14.89975,26.382736 3.636549,-4.091118 c 0.36095,1.563376 0.262181,3.011823 -1.515229,4.04061 l -1.616244,1.464721 z"
       id="path20701"
       inkscape:connector-curvature="0"
       sodipodi:nodetypes="ccccc" />
    <path
       style="fill:#eeeeec;stroke:none"
       d="m 31.264221,14.715474 4.141626,0.959645 c -1.276163,-0.768833 -2.435164,-1.732935 -4.091118,-1.868783 z"
       id="path20703"
       inkscape:connector-curvature="0"
       sodipodi:nodetypes="cccc" />
  </g>
</svg>
