<?xml version="1.0" encoding="UTF-8" standalone="no"?>
<!-- Created with Inkscape (http://www.inkscape.org/) -->
<svg
   xmlns:i="http://ns.adobe.com/AdobeIllustrator/10.0/"
   xmlns:dc="http://purl.org/dc/elements/1.1/"
   xmlns:cc="http://web.resource.org/cc/"
   xmlns:rdf="http://www.w3.org/1999/02/22-rdf-syntax-ns#"
   xmlns:svg="http://www.w3.org/2000/svg"
   xmlns="http://www.w3.org/2000/svg"
   xmlns:xlink="http://www.w3.org/1999/xlink"
   xmlns:sodipodi="http://sodipodi.sourceforge.net/DTD/sodipodi-0.dtd"
   xmlns:inkscape="http://www.inkscape.org/namespaces/inkscape"
   width="48px"
   height="48px"
   id="svg5542"
   sodipodi:version="0.32"
   inkscape:version="0.45.1"
   sodipodi:docbase="C:\dev\src\houdini\support\icons\DOP"
   sodipodi:docname="clothforces.svg"
   inkscape:output_extension="org.inkscape.output.svg.inkscape">
  <defs
     id="defs5544">
    <linearGradient
       inkscape:collect="always"
       xlink:href="#linearGradient5502"
       id="linearGradient5512"
       gradientUnits="userSpaceOnUse"
       x1="8.8902855"
       y1="9.8889999"
       x2="20.643999"
       y2="17.460428"
       gradientTransform="matrix(-1,0,0,1,40.644,1.0733926)" />
    <linearGradient
       inkscape:collect="always"
       xlink:href="#linearGradient5502"
       id="linearGradient5508"
       x1="8.8902855"
       y1="9.8889999"
       x2="20.643999"
       y2="17.460428"
       gradientUnits="userSpaceOnUse" />
    <linearGradient
       inkscape:collect="always"
       xlink:href="#linearGradient5502"
       id="linearGradient5524"
       gradientUnits="userSpaceOnUse"
       x1="21.318857"
       y1="20.317572"
       x2="32.072571"
       y2="13.746143"
       gradientTransform="matrix(-1,0,0,1,57.601714,10.982964)" />
    <clipPath
       id="XMLID_54_">
      <rect
         id="use33307"
         x="-14.341493"
         y="-40.481159"
         transform="matrix(-0.5107998,0.8596997,-0.8596997,-0.5107998,0,0)"
         width="16.272005"
         height="16.346006" />
    </clipPath>
    <clipPath
       id="XMLID_53_">
      <polygon
         id="use33297"
         points="27.986,5.473 26.322,12.36 24.384,11.285 24.952,17.267 31.222,15.082 29.361,14.047 36.39,5.745 27.986,5.473 " />
    </clipPath>
    <clipPath
       id="XMLID_46_">
      <rect
         id="use33259"
         x="27.325001"
         y="17.687"
         width="15.678"
         height="7.5500002" />
    </clipPath>
    <clipPath
       id="XMLID_45_">
      <polygon
         id="use33249"
         points="40.794,18.675 32.645,19.538 31.977,17.558 27.626,21.137 34.348,24.584 33.645,22.5 43.076,23.139 40.794,18.675 " />
    </clipPath>
    <linearGradient
       inkscape:collect="always"
       id="linearGradient5502">
      <stop
         style="stop-color:#f57900;stop-opacity:1"
         offset="0"
         id="stop5504" />
      <stop
         style="stop-color:#cc0000;stop-opacity:1"
         offset="1"
         id="stop5506" />
    </linearGradient>
    <linearGradient
       inkscape:collect="always"
       xlink:href="#linearGradient5502"
       id="linearGradient5520"
       gradientUnits="userSpaceOnUse"
       x1="21.318857"
       y1="20.317572"
       x2="32.072571"
       y2="13.746143"
       gradientTransform="translate(-14.176,11.930536)" />
    <linearGradient
       id="linearGradient5467">
      <stop
         style="stop-color:#ffffff;stop-opacity:1;"
         offset="0"
         id="stop5469" />
      <stop
         style="stop-color:#bbd3dc;stop-opacity:1;"
         offset="1"
         id="stop5471" />
    </linearGradient>
    <radialGradient
       inkscape:collect="always"
       xlink:href="#linearGradient5467"
       id="radialGradient5473"
       cx="20.490639"
       cy="22.246885"
       fx="20.490639"
       fy="22.246885"
       r="23.8605"
       gradientTransform="matrix(1.1556666,-0.3200799,0.2137306,0.771686,46.139602,17.704781)"
       gradientUnits="userSpaceOnUse" />
    <radialGradient
       inkscape:collect="always"
       xlink:href="#linearGradient5467"
       id="radialGradient5709"
       gradientUnits="userSpaceOnUse"
       gradientTransform="matrix(1.1556666,-0.3200799,0.2137306,0.771686,-7.860398,11.561924)"
       cx="20.490639"
       cy="22.246885"
       fx="20.490639"
       fy="22.246885"
       r="23.8605" />
  </defs>
  <sodipodi:namedview
     id="base"
     pagecolor="#ffffff"
     bordercolor="#666666"
     borderopacity="1.0"
     inkscape:pageopacity="0.0"
     inkscape:pageshadow="2"
     inkscape:zoom="7"
     inkscape:cx="24"
     inkscape:cy="24"
     inkscape:current-layer="layer1"
     showgrid="true"
     inkscape:grid-bbox="true"
     inkscape:document-units="px"
     inkscape:window-width="744"
     inkscape:window-height="573"
     inkscape:window-x="572"
     inkscape:window-y="130" />
  <metadata
     id="metadata5547">
    <rdf:RDF>
      <cc:Work
         rdf:about="">
        <dc:format>image/svg+xml</dc:format>
        <dc:type
           rdf:resource="http://purl.org/dc/dcmitype/StillImage" />
      </cc:Work>
    </rdf:RDF>
  </metadata>
  <g
     id="layer1"
     inkscape:label="Layer 1"
     inkscape:groupmode="layer">
    <path
       style="fill:url(#radialGradient5709);fill-opacity:1;stroke:#575d66;stroke-width:0.5"
       id="path33215"
       d="M 1.921,40.113465 C 4.876,39.657465 8.921,40.634465 12.786,37.607465 C 16.652,34.576465 20.284,33.380465 20.517,32.591465 C 20.888,31.335465 21.562,26.845465 20.099,21.723465 C 20.935,24.859465 26.682,31.233465 27.517,31.440465 C 28.353,31.651465 36.607,30.187465 39.531,28.620465 C 42.458,27.054465 45.486,24.023465 47.471,23.919465 C 46.427,22.666465 43.398,21.723465 38.486,19.949465 C 33.576,18.173465 31.279,15.874465 30.861,14.934465 C 30.443,13.995465 29.816,11.905465 30.443,9.085465 C 29.502,10.025465 21.772,9.189465 15.608,12.427465 C 9.444,15.667465 2.861,15.875465 0.25,15.875465 C 0.785,17.710465 3.982,22.506465 4.256,23.470465 C 4.532,24.435465 4.988,25.381465 5.158,26.510465 C 5.285,27.364465 5.441,29.456465 5.496,30.221465 C 5.611,31.789465 2.83,38.546465 1.921,40.113465 z "
       i:knockout="Off"
       clip-path="none" />
    <path
       style="fill:url(#linearGradient5520);fill-opacity:1;stroke:#590c08;stroke-width:0.5"
       d="M 6.633429,29.17225 L 13.385286,26.646107 L 12.333571,24.79125 L 18.789429,25.15525 L 15.826571,31.609679 L 14.840857,29.807679 L 7.535714,35.600107 L 6.633429,29.17225 z "
       id="polygon5515"
       sodipodi:nodetypes="cccccccc"
       clip-path="none" />
    <path
       style="fill:none;stroke:#ec2628"
       id="path33241"
       d="M 7.506,34.590036 C 8.631,33.694036 15.082,28.552036 15.082,28.552036 C 15.082,28.552036 15.557,29.645036 15.742,30.069036 C 16.28,28.768036 17.099,26.792036 17.464,25.911036 C 16.545,25.891036 14.87,25.852036 13.899,25.829036 C 14.068,26.219036 14.463,27.128036 14.463,27.128036 C 14.463,27.128036 7.824,29.640036 7.041,29.937036"
       i:knockout="Off"
       clip-path="none" />
    <path
       style="fill:url(#linearGradient5524);fill-opacity:1;stroke:#590c08;stroke-width:0.5"
       d="M 38.506571,22.224679 L 30.040428,23.127107 L 29.377857,20.986536 L 24.636285,24.779108 L 32.170572,28.947822 L 31.013428,26.431537 L 40.604286,27.081107 L 38.506571,22.224679 z "
       id="path5522"
       sodipodi:nodetypes="cccccccc"
       clip-path="none" />
    <path
       style="fill:none;stroke:#ec2628"
       id="path33315"
       d="M 38.386,23.051036 C 37.65,23.129036 29.594,23.980036 29.594,23.980036 C 29.594,23.980036 29.236,22.916036 29.039,22.337036 C 28.291,22.952036 26.72,24.246036 25.942,24.886036 C 26.877,25.367036 29.327,26.624036 30.727,27.342036 C 30.597,26.957036 30.192,25.756036 30.192,25.756036 C 30.192,25.756036 38.491,26.319036 39.952,26.417036"
       i:knockout="Off"
       clip-path="none" />
    <polygon
       style="fill:url(#linearGradient5508);fill-opacity:1;stroke:#590c08;stroke-width:0.5"
       id="polygon33325"
       points="13.238,8.956 17.847,14.287 19.081,12.575 20.394,17.939 14.574,18.822 15.874,17.02 4.426,11.241 13.238,8.956 "
       i:knockout="Off"
       transform="translate(-2.674,3.8560356)"
       clip-path="none" />
    <path
       style="fill:none;stroke:#ec2628;stroke-width:0.99999994"
       id="path33317"
       d="M 3.407906,15.303095 C 4.968999,16.089673 13.708491,20.488889 13.708491,20.488889 C 13.708491,20.488889 13.102077,21.328841 12.819522,21.719321 C 14.062389,21.531104 16.021499,21.234265 16.671094,21.135942 C 16.516205,20.503871 16.076884,18.711598 15.803716,17.595407 C 15.5221,17.985886 14.892218,18.855804 14.892218,18.855804 C 14.892218,18.855804 10.478352,13.764587 10.080335,13.30575"
       i:knockout="Off"
       clip-path="none" />
    <path
       style="fill:url(#linearGradient5512);fill-opacity:1;stroke:#590c08;stroke-width:0.5"
       d="M 25.120286,8.6008213 L 23.368429,15.788963 L 21.134429,14.219821 L 21.964286,21.583821 L 29.498571,19.038249 L 26.627143,17.807678 L 34.218,9.4572493 L 25.120286,8.6008213 z "
       id="polygon5510"
       sodipodi:nodetypes="cccccccc"
       clip-path="none" />
    <path
       style="fill:none;stroke:#ec2628"
       id="path33319"
       d="M 25.861,9.3470363 C 25.671,10.134036 24.005,17.027036 24.005,17.027036 C 24.005,17.027036 22.861,16.393036 22.342,16.104036 C 22.456,17.311036 22.666,19.525036 22.749,20.392036 C 23.578,20.102036 25.914,19.287036 27.242,18.826036 C 26.842,18.602036 25.857,18.055036 25.857,18.055036 C 25.857,18.055036 31.877,10.943036 33.031,9.5780363"
       i:knockout="Off"
       clip-path="none" />
  </g>
</svg>
