<?xml version="1.0" encoding="UTF-8" standalone="no"?>
<!-- Created with Inkscape (http://www.inkscape.org/) -->
<svg
   xmlns:i="http://ns.adobe.com/AdobeIllustrator/10.0/"
   xmlns:a="http://ns.adobe.com/AdobeSVGViewerExtensions/3.0/"
   xmlns:dc="http://purl.org/dc/elements/1.1/"
   xmlns:cc="http://web.resource.org/cc/"
   xmlns:rdf="http://www.w3.org/1999/02/22-rdf-syntax-ns#"
   xmlns:svg="http://www.w3.org/2000/svg"
   xmlns="http://www.w3.org/2000/svg"
   xmlns:xlink="http://www.w3.org/1999/xlink"
   xmlns:sodipodi="http://sodipodi.sourceforge.net/DTD/sodipodi-0.dtd"
   xmlns:inkscape="http://www.inkscape.org/namespaces/inkscape"
   width="48px"
   height="48px"
   id="svg78253"
   sodipodi:version="0.32"
   inkscape:version="0.44"
   sodipodi:docbase="e:\dev_clean\src\houdini\support\icons\pop"
   sodipodi:docname="drag.svg">
  <defs
     id="defs78255">
    <linearGradient
       y2="648.125"
       x2="854.57361"
       y1="648.125"
       x1="840.9834"
       gradientUnits="userSpaceOnUse"
       id="XMLID_421_">
					<stop
   id="stop58505"
   style="stop-color:white;stop-opacity:0;"
   offset="0" />

					<stop
   id="stop58507"
   style="stop-color:#89ABBF"
   offset="1" />

					<a:midPointStop
   style="stop-color:#FFFFFF"
   offset="0" />

					<a:midPointStop
   style="stop-color:#FFFFFF"
   offset="0.5" />

					<a:midPointStop
   style="stop-color:#89ABBF"
   offset="1" />

				</linearGradient>
    <linearGradient
       y2="648.12891"
       x2="859.80957"
       y1="648.12891"
       x1="840.91699"
       gradientUnits="userSpaceOnUse"
       id="XMLID_420_">
						<stop
   id="stop58498"
   style="stop-color:#FFFFFF"
   offset="0" />

						<stop
   id="stop58500"
   style="stop-color:#B7D0DC"
   offset="1" />

						<a:midPointStop
   style="stop-color:#FFFFFF"
   offset="0" />

						<a:midPointStop
   style="stop-color:#FFFFFF"
   offset="0.5" />

						<a:midPointStop
   style="stop-color:#B7D0DC"
   offset="1" />

					</linearGradient>
    <radialGradient
       gradientUnits="userSpaceOnUse"
       gradientTransform="matrix(0,1,1,0,199.6689,-234.9302)"
       fy="656.18549"
       fx="876.98932"
       r="17.944901"
       cy="656.18549"
       cx="876.98932"
       id="XMLID_423_">
						<stop
   id="stop58537"
   style="stop-color:#FFFFFF"
   offset="0" />

						<stop
   id="stop58539"
   style="stop-color:#2E659E"
   offset="0.6854" />

						<stop
   id="stop58541"
   style="stop-color:#1D3E63"
   offset="1" />

						<a:midPointStop
   style="stop-color:#FFFFFF"
   offset="0" />

						<a:midPointStop
   style="stop-color:#FFFFFF"
   offset="0.5" />

						<a:midPointStop
   style="stop-color:#2E659E"
   offset="0.6854" />

						<a:midPointStop
   style="stop-color:#2E659E"
   offset="0.5" />

						<a:midPointStop
   style="stop-color:#1D3E63"
   offset="1" />

					</radialGradient>
    <radialGradient
       gradientUnits="userSpaceOnUse"
       gradientTransform="matrix(0,-1,1,0,199.6689,824.2393)"
       fy="658.7334"
       fx="178.7798"
       r="10.1781"
       cy="658.7334"
       cx="178.7798"
       id="XMLID_422_">
					<stop
   id="stop58516"
   style="stop-color:#FFFFFF"
   offset="0" />

					<stop
   id="stop58518"
   style="stop-color:#DBE8F2"
   offset="0.0898" />

					<stop
   id="stop58520"
   style="stop-color:#A2C3DE"
   offset="0.2484" />

					<stop
   id="stop58522"
   style="stop-color:#75A6CD"
   offset="0.3951" />

					<stop
   id="stop58524"
   style="stop-color:#5591C2"
   offset="0.5253" />

					<stop
   id="stop58526"
   style="stop-color:#4185BB"
   offset="0.6339" />

					<stop
   id="stop58528"
   style="stop-color:#3A80B8"
   offset="0.7079" />

					<stop
   id="stop58530"
   style="stop-color:#244A87"
   offset="1" />

					<a:midPointStop
   style="stop-color:#FFFFFF"
   offset="0" />

					<a:midPointStop
   style="stop-color:#FFFFFF"
   offset="0.376" />

					<a:midPointStop
   style="stop-color:#3A80B8"
   offset="0.7079" />

					<a:midPointStop
   style="stop-color:#3A80B8"
   offset="0.5" />

					<a:midPointStop
   style="stop-color:#244A87"
   offset="1" />

				</radialGradient>
    <linearGradient
       y2="648.2002"
       x2="876.6957"
       y1="648.2002"
       x1="888.7441"
       gradientUnits="userSpaceOnUse"
       id="XMLID_424_"
       gradientTransform="translate(-855.3446,-636.7715)">
				<stop
   id="stop58546"
   style="stop-color:white;stop-opacity:1;"
   offset="0" />

				<stop
   id="stop58548"
   style="stop-color:#acd5f9;stop-opacity:1;"
   offset="1" />

				<a:midPointStop
   style="stop-color:#FAAF3E"
   offset="0" />

				<a:midPointStop
   style="stop-color:#FAAF3E"
   offset="0.5" />

				<a:midPointStop
   style="stop-color:#E96712"
   offset="1" />

			</linearGradient>
    <linearGradient
       inkscape:collect="always"
       xlink:href="#XMLID_421_"
       id="linearGradient78336"
       gradientUnits="userSpaceOnUse"
       x1="840.9834"
       y1="648.125"
       x2="854.57361"
       y2="648.125"
       gradientTransform="translate(-845.2017,-623.7715)" />
    <linearGradient
       inkscape:collect="always"
       xlink:href="#XMLID_421_"
       id="linearGradient78349"
       x1="840.91602"
       y1="648.12848"
       x2="859.80902"
       y2="648.12848"
       gradientUnits="userSpaceOnUse" />
    <linearGradient
       inkscape:collect="always"
       xlink:href="#XMLID_421_"
       id="linearGradient78351"
       gradientUnits="userSpaceOnUse"
       x1="840.91602"
       y1="648.12848"
       x2="859.80902"
       y2="648.12848" />
    <linearGradient
       inkscape:collect="always"
       xlink:href="#XMLID_424_"
       id="linearGradient78355"
       gradientUnits="userSpaceOnUse"
       gradientTransform="translate(-836.7384,-614.0572)"
       x1="888.7441"
       y1="648.2002"
       x2="876.6957"
       y2="648.2002" />
    <linearGradient
       inkscape:collect="always"
       xlink:href="#XMLID_424_"
       id="linearGradient78361"
       gradientUnits="userSpaceOnUse"
       gradientTransform="translate(-856.368,-626.7715)"
       x1="888.7441"
       y1="648.2002"
       x2="876.6957"
       y2="648.2002" />
    <linearGradient
       inkscape:collect="always"
       xlink:href="#XMLID_424_"
       id="linearGradient78370"
       gradientUnits="userSpaceOnUse"
       gradientTransform="translate(-855.3446,-636.7715)"
       x1="904.17267"
       y1="648.2002"
       x2="876.6957"
       y2="648.2002" />
    <linearGradient
       inkscape:collect="always"
       xlink:href="#XMLID_424_"
       id="linearGradient78376"
       gradientUnits="userSpaceOnUse"
       gradientTransform="translate(-855.3446,-636.7715)"
       x1="904.17267"
       y1="648.2002"
       x2="876.6957"
       y2="648.2002" />
    <linearGradient
       inkscape:collect="always"
       xlink:href="#XMLID_424_"
       id="linearGradient78384"
       gradientUnits="userSpaceOnUse"
       gradientTransform="translate(-855.3446,-636.7715)"
       x1="904.17267"
       y1="648.2002"
       x2="876.6957"
       y2="648.2002" />
    <linearGradient
       inkscape:collect="always"
       xlink:href="#XMLID_424_"
       id="linearGradient78392"
       gradientUnits="userSpaceOnUse"
       gradientTransform="translate(-855.3446,-636.7715)"
       x1="904.17267"
       y1="648.2002"
       x2="876.6957"
       y2="648.2002" />
    <linearGradient
       inkscape:collect="always"
       xlink:href="#XMLID_424_"
       id="linearGradient78400"
       gradientUnits="userSpaceOnUse"
       gradientTransform="translate(-855.3446,-636.7715)"
       x1="904.17267"
       y1="648.2002"
       x2="876.6957"
       y2="648.2002" />
    <linearGradient
       inkscape:collect="always"
       xlink:href="#XMLID_424_"
       id="linearGradient78413"
       gradientUnits="userSpaceOnUse"
       gradientTransform="translate(-855.3446,-636.7715)"
       x1="904.17267"
       y1="648.2002"
       x2="876.6957"
       y2="648.2002" />
    <linearGradient
       inkscape:collect="always"
       xlink:href="#XMLID_424_"
       id="linearGradient78415"
       gradientUnits="userSpaceOnUse"
       gradientTransform="translate(-855.3446,-636.7715)"
       x1="904.17267"
       y1="648.2002"
       x2="876.6957"
       y2="648.2002" />
    <linearGradient
       inkscape:collect="always"
       xlink:href="#XMLID_424_"
       id="linearGradient78417"
       gradientUnits="userSpaceOnUse"
       gradientTransform="translate(-855.3446,-636.7715)"
       x1="904.17267"
       y1="648.2002"
       x2="876.6957"
       y2="648.2002" />
  </defs>
  <sodipodi:namedview
     id="base"
     pagecolor="#ffffff"
     bordercolor="#666666"
     borderopacity="1.0"
     inkscape:pageopacity="0.0"
     inkscape:pageshadow="2"
     inkscape:zoom="7"
     inkscape:cx="22.285714"
     inkscape:cy="25.060666"
     inkscape:current-layer="layer1"
     showgrid="true"
     inkscape:grid-bbox="true"
     inkscape:document-units="px"
     inkscape:window-width="853"
     inkscape:window-height="539"
     inkscape:window-x="340"
     inkscape:window-y="277" />
  <metadata
     id="metadata78258">
    <rdf:RDF>
      <cc:Work
         rdf:about="">
        <dc:format>image/svg+xml</dc:format>
        <dc:type
           rdf:resource="http://purl.org/dc/dcmitype/StillImage" />
      </cc:Work>
    </rdf:RDF>
  </metadata>
  <g
     id="layer1"
     inkscape:label="Layer 1"
     inkscape:groupmode="layer">
    <g
       id="g78386"
       transform="matrix(0.788419,0,0,0.788419,12.06591,14.30118)">
      <path
         sodipodi:nodetypes="cscccsccccccscccsc"
         d="M 50.262299,18 C 46.119442,18 44.405156,15.142857 40.405156,15 C 36.405156,14.857143 35.405156,17.857143 29.263286,17.668 C 23.977572,17.525143 25.571429,16.380286 22.36835,16.427572 L 22.022415,20.326572 C 22.022415,20.539572 21.851415,20.709572 21.639415,20.709572 C 21.532415,20.709572 21.433415,20.664572 21.364415,20.593572 L 21.372415,20.597572 L 13.440415,11.969572 C 13.141415,11.670572 13.141415,11.186572 13.440415,10.887572 C 13.440415,10.887572 19.362415,4.214571 21.357415,2.276571 L 21.372415,2.262571 C 21.441415,2.190571 21.536415,2.147571 21.640415,2.147571 C 21.852415,2.147571 22.024415,2.319571 22.023415,2.530571 L 22.023415,6.094572 C 25.880558,5.9517149 25.000987,7.5251435 30.286701,7.6680006 C 36.428571,7.8571429 37.428571,4.8571429 41.428571,5 C 45.428571,5.1428571 47.142857,8 51.285714,8"
         style="fill:url(#linearGradient78415);stroke:#9cc8f7;stroke-width:2.53672099;stroke-linejoin:round;stroke-miterlimit:4;stroke-opacity:1"
         id="path78388" />
      <path
         sodipodi:nodetypes="cscccsccccccscccsc"
         d="M 49.955525,16.218516 C 46.573867,16.218516 43.603132,13.614749 40.338083,13.498846 C 37.073034,13.382944 34.256772,16.245471 29.243394,16.092016 C 24.928865,15.976113 23.944157,14.332985 21.329604,14.371348 L 21.475801,18.820394 C 21.475801,18.993205 21.336221,19.13113 21.163173,19.13113 C 21.075833,19.13113 20.995024,19.09462 20.938701,19.037017 L 20.945231,19.040262 L 14.470638,12.040202 C 14.226576,11.797619 14.226576,11.40494 14.470638,11.162356 C 14.470638,11.162356 19.304544,5.7484233 20.932987,4.1760873 L 20.945231,4.1647288 C 21.001553,4.1063138 21.079098,4.0714271 21.16399,4.0714271 C 21.337037,4.0714271 21.477435,4.210974 21.476618,4.3821622 L 21.476618,7.2737036 C 25.625059,7.1578011 26.478527,9.0057823 30.793055,9.1216848 C 35.806433,9.2751394 38.33698,6.5554684 41.602029,6.671371 C 44.867078,6.7872735 47.409242,9.5338991 50.7909,9.5338991"
         style="fill:none;stroke:white;stroke-width:1.2683605;stroke-linejoin:round;stroke-miterlimit:4;stroke-dasharray:none;stroke-opacity:1"
         id="path78390" />
    </g>
    <g
       i:knockout="Off"
       a:adobe-blending-mode="normal"
       id="g58495"
       transform="translate(-845.2017,-623.7715)"
       style="fill:url(#linearGradient78349);fill-opacity:1">
					<linearGradient
   id="linearGradient78285"
   gradientUnits="userSpaceOnUse"
   x1="840.91699"
   y1="648.12891"
   x2="859.80957"
   y2="648.12891"
   style="fill-opacity:1.0;fill:url(#linearGradient78349)">
						<stop
   offset="0"
   style="stop-color:#FFFFFF;fill-opacity:1.0;fill:url(#linearGradient78349)"
   id="stop78287" />

						<stop
   offset="1"
   style="stop-color:#B7D0DC;fill-opacity:1.0;fill:url(#linearGradient78349)"
   id="stop78289" />

						<a:midPointStop
   offset="0"
   style="stop-color:#FFFFFF;fill-opacity:1.0;fill:url(#linearGradient78349)" />

						<a:midPointStop
   offset="0.5"
   style="stop-color:#FFFFFF;fill-opacity:1.0;fill:url(#linearGradient78349)" />

						<a:midPointStop
   offset="1"
   style="stop-color:#B7D0DC;fill-opacity:1.0;fill:url(#linearGradient78349)" />

					</linearGradient>

					<path
   i:knockout="Off"
   d="M 859.229,640.063 L 840.916,641.715 L 840.916,654.396 L 859.809,656.236 L 859.767,640.021 L 859.229,640.063 z M 858.77,641.102 C 858.773,642.068 858.805,654.172 858.808,655.149 C 857.8,655.064 842.77,653.549 841.917,653.477 C 841.917,652.664 841.917,643.46 841.917,642.642 C 842.775,642.574 857.773,641.18 858.77,641.102 z "
   id="path58502"
   style="fill:url(#linearGradient78351);fill-opacity:1" />

				</g>
    <path
       i:knockout="Off"
       a:adobe-blending-mode="normal"
       d="M 13.568285,17.3305 C 13.571285,18.2965 13.603285,30.4005 13.606285,31.3775 C 12.598285,31.2925 -2.4317143,29.7775 -3.2847143,29.7055 C -3.2847143,28.8925 -3.2847143,19.6885 -3.2847143,18.8705 C -2.4267143,18.8025 12.571285,17.4085 13.568285,17.3305 z "
       id="path58509"
       style="fill:url(#linearGradient78336)" />
    <g
       transform="translate(-845.2017,-623.7715)"
       id="g58511">
				<path
   style="fill:none;stroke:#152a4c;stroke-width:1.79999995"
   id="path58513"
   d="M 860.065,640.865 C 864.065,640.865 867.309,644.104 867.309,648.107 C 867.309,652.109 864.065,655.353 860.065,655.353 C 856.057,655.353 852.811,652.109 852.811,648.107 C 852.812,644.104 856.058,640.865 860.065,640.865 z "
   i:knockout="Off" />

				
					<radialGradient
   gradientUnits="userSpaceOnUse"
   gradientTransform="matrix(0,-1,1,0,199.6689,824.2393)"
   fy="658.7334"
   fx="178.7798"
   r="10.1781"
   cy="658.7334"
   cx="178.7798"
   id="radialGradient78301">
					<stop
   id="stop78303"
   style="stop-color:#FFFFFF"
   offset="0" />

					<stop
   id="stop78305"
   style="stop-color:#DBE8F2"
   offset="0.0898" />

					<stop
   id="stop78307"
   style="stop-color:#A2C3DE"
   offset="0.2484" />

					<stop
   id="stop78309"
   style="stop-color:#75A6CD"
   offset="0.3951" />

					<stop
   id="stop78311"
   style="stop-color:#5591C2"
   offset="0.5253" />

					<stop
   id="stop78313"
   style="stop-color:#4185BB"
   offset="0.6339" />

					<stop
   id="stop78315"
   style="stop-color:#3A80B8"
   offset="0.7079" />

					<stop
   id="stop78317"
   style="stop-color:#244A87"
   offset="1" />

					<a:midPointStop
   style="stop-color:#FFFFFF"
   offset="0" />

					<a:midPointStop
   style="stop-color:#FFFFFF"
   offset="0.376" />

					<a:midPointStop
   style="stop-color:#3A80B8"
   offset="0.7079" />

					<a:midPointStop
   style="stop-color:#3A80B8"
   offset="0.5" />

					<a:midPointStop
   style="stop-color:#244A87"
   offset="1" />

				</radialGradient>

				<path
   style="fill:url(#XMLID_422_)"
   id="path58532"
   d="M 860.065,640.865 C 864.065,640.865 867.309,644.104 867.309,648.107 C 867.309,652.109 864.065,655.353 860.065,655.353 C 856.057,655.353 852.811,652.109 852.811,648.107 C 852.812,644.104 856.058,640.865 860.065,640.865 z "
   i:knockout="Off" />

				<g
   id="g58534"
   i:knockout="Off">
					
						<radialGradient
   gradientUnits="userSpaceOnUse"
   gradientTransform="matrix(0,1,1,0,199.6689,-234.9302)"
   fy="656.18549"
   fx="876.98932"
   r="17.944901"
   cy="656.18549"
   cx="876.98932"
   id="radialGradient78321">
						<stop
   id="stop78323"
   style="stop-color:#FFFFFF"
   offset="0" />

						<stop
   id="stop78325"
   style="stop-color:#2E659E"
   offset="0.6854" />

						<stop
   id="stop78327"
   style="stop-color:#1D3E63"
   offset="1" />

						<a:midPointStop
   style="stop-color:#FFFFFF"
   offset="0" />

						<a:midPointStop
   style="stop-color:#FFFFFF"
   offset="0.5" />

						<a:midPointStop
   style="stop-color:#2E659E"
   offset="0.6854" />

						<a:midPointStop
   style="stop-color:#2E659E"
   offset="0.5" />

						<a:midPointStop
   style="stop-color:#1D3E63"
   offset="1" />

					</radialGradient>

					<path
   style="fill:url(#XMLID_423_)"
   id="path58543"
   d="M 852.812,648.107 C 852.812,650.039 853.563,651.863 854.936,653.226 C 856.31,654.6 858.122,655.353 860.066,655.353 C 861.994,655.353 863.821,654.6 865.189,653.226 C 866.562,651.863 867.31,650.049 867.31,648.107 C 867.31,644.114 864.061,640.865 860.066,640.865 C 856.065,640.865 852.812,644.114 852.812,648.107 z M 866.151,648.107 C 866.151,649.736 865.521,651.258 864.373,652.412 C 863.218,653.565 861.687,654.195 860.065,654.195 C 858.43,654.195 856.903,653.565 855.755,652.412 C 854.602,651.259 853.966,649.736 853.966,648.107 C 853.966,644.75 856.705,642.013 860.065,642.013 C 863.42,642.014 866.151,644.75 866.151,648.107 z "
   i:knockout="Off" />

				</g>

			</g>
  </g>
</svg>
