<?xml version="1.0" encoding="UTF-8" standalone="no"?>
<svg
   xmlns:dc="http://purl.org/dc/elements/1.1/"
   xmlns:cc="http://creativecommons.org/ns#"
   xmlns:rdf="http://www.w3.org/1999/02/22-rdf-syntax-ns#"
   xmlns:svg="http://www.w3.org/2000/svg"
   xmlns="http://www.w3.org/2000/svg"
   xmlns:xlink="http://www.w3.org/1999/xlink"
   xmlns:sodipodi="http://sodipodi.sourceforge.net/DTD/sodipodi-0.dtd"
   xmlns:inkscape="http://www.inkscape.org/namespaces/inkscape"
   version="1.1"
   inkscape:output_extension="org.inkscape.output.svg.inkscape"
   sodipodi:docname="gaserror.svg"
   inkscape:version="1.0beta1 (fe3e306, 2019-09-17)"
   sodipodi:version="0.32"
   id="svg4016"
   height="48px"
   width="48px">
  <defs
     id="defs4018">
    <linearGradient
       id="linearGradient4250"
       inkscape:collect="always">
      <stop
         id="stop4252"
         offset="0"
         style="stop-color:#2e3436;stop-opacity:1;" />
      <stop
         id="stop4254"
         offset="1"
         style="stop-color:#2e3436;stop-opacity:0;" />
    </linearGradient>
    <linearGradient
       id="linearGradient4222">
      <stop
         id="stop4224"
         offset="0"
         style="stop-color:#2e3436;stop-opacity:1" />
      <stop
         id="stop4226"
         offset="1"
         style="stop-color:#334777;stop-opacity:1;" />
    </linearGradient>
    <linearGradient
       id="linearGradient4157">
      <stop
         style="stop-color:#ffffff;stop-opacity:1;"
         offset="0"
         id="stop4159" />
      <stop
         style="stop-color:#ffffff;stop-opacity:0;"
         offset="1"
         id="stop4161" />
    </linearGradient>
    <linearGradient
       id="linearGradient4145"
       inkscape:collect="always">
      <stop
         id="stop4147"
         offset="0"
         style="stop-color:#2e3436;stop-opacity:1;" />
      <stop
         id="stop4149"
         offset="1"
         style="stop-color:#2e3436;stop-opacity:0;" />
    </linearGradient>
    <linearGradient
       id="linearGradient4125">
      <stop
         id="stop4127"
         offset="0"
         style="stop-color:#486d7f;stop-opacity:1;" />
      <stop
         style="stop-color:#c5d8e2;stop-opacity:1;"
         offset="0.25"
         id="stop4133" />
      <stop
         id="stop4135"
         offset="0.5"
         style="stop-color:#ffffff;stop-opacity:1;" />
      <stop
         style="stop-color:#8ea7bd;stop-opacity:1;"
         offset="0.75"
         id="stop4137" />
      <stop
         id="stop4129"
         offset="1"
         style="stop-color:#476670;stop-opacity:1;" />
    </linearGradient>
    <linearGradient
       id="linearGradient4113">
      <stop
         id="stop4115"
         offset="0"
         style="stop-color:#254902;stop-opacity:1;" />
      <stop
         style="stop-color:#87da39;stop-opacity:1;"
         offset="0.34482759"
         id="stop4121" />
      <stop
         id="stop4117"
         offset="1"
         style="stop-color:#3e7b04;stop-opacity:1;" />
    </linearGradient>
    <linearGradient
       id="linearGradient4087">
      <stop
         id="stop4089"
         offset="0"
         style="stop-color:#5c6f77;stop-opacity:1;" />
      <stop
         style="stop-color:#aebbc1;stop-opacity:1;"
         offset="0.23563218"
         id="stop4097" />
      <stop
         id="stop4099"
         offset="0.40276125"
         style="stop-color:#c2ccd1;stop-opacity:1;" />
      <stop
         style="stop-color:#ffffff;stop-opacity:1;"
         offset="0.5"
         id="stop4095" />
      <stop
         id="stop4101"
         offset="0.63218391"
         style="stop-color:#aeb9b9;stop-opacity:1;" />
      <stop
         id="stop4091"
         offset="1"
         style="stop-color:#425555;stop-opacity:1;" />
    </linearGradient>
    <linearGradient
       gradientTransform="matrix(1.054066,0,0,1.0403908,-37.559692,2.2316089)"
       gradientUnits="userSpaceOnUse"
       y2="31.641575"
       x2="48.5"
       y1="31.641575"
       x1="36.642857"
       id="linearGradient4093"
       xlink:href="#linearGradient4087"
       inkscape:collect="always" />
    <linearGradient
       gradientTransform="matrix(1.176962,0,0,1.1158927,-21.066893,-1.5439196)"
       gradientUnits="userSpaceOnUse"
       y2="9.3694906"
       x2="25.732143"
       y1="9.3694906"
       x1="22.732143"
       id="linearGradient4131"
       xlink:href="#linearGradient4125"
       inkscape:collect="always" />
    <radialGradient
       gradientUnits="userSpaceOnUse"
       gradientTransform="matrix(2.511689,-0.00387874,0.00267672,1.5619182,-53.465368,-6.1400307)"
       r="6.4136782"
       fy="12.556728"
       fx="24.242075"
       cy="12.556728"
       cx="24.242075"
       id="radialGradient4139"
       xlink:href="#linearGradient4113"
       inkscape:collect="always" />
    <linearGradient
       gradientTransform="matrix(1.176962,0,0,1.1158926,-20.993826,-1.5439195)"
       gradientUnits="userSpaceOnUse"
       y2="8.6428576"
       x2="23.964285"
       y1="6.9285712"
       x1="24.142857"
       id="linearGradient4151"
       xlink:href="#linearGradient4145"
       inkscape:collect="always" />
    <linearGradient
       gradientTransform="matrix(0.8031742,0,0,-0.7614999,-12.074848,15.884862)"
       y2="8.6428576"
       x2="24.054976"
       y1="6.9285712"
       x1="24.142857"
       gradientUnits="userSpaceOnUse"
       id="linearGradient4155"
       xlink:href="#linearGradient4157"
       inkscape:collect="always" />
    <linearGradient
       gradientTransform="matrix(0.6538677,0,0,0.5849681,-8.3835202,-1.8475651)"
       y2="9.3694906"
       x2="25.732143"
       y1="9.3694906"
       x1="22.732143"
       gradientUnits="userSpaceOnUse"
       id="linearGradient4167"
       xlink:href="#linearGradient4125"
       inkscape:collect="always" />
    <linearGradient
       y2="9.3694906"
       x2="25.732143"
       y1="9.3694906"
       x1="22.732143"
       gradientTransform="matrix(-0.04285082,1.2261284,-1.2721113,-0.04072654,17.96494,-20.278957)"
       gradientUnits="userSpaceOnUse"
       id="linearGradient4177"
       xlink:href="#linearGradient4125"
       inkscape:collect="always" />
    <linearGradient
       y2="9.3694906"
       x2="25.732143"
       y1="9.3694906"
       x1="22.732143"
       gradientTransform="matrix(0.02010111,1.1800196,0.5967413,-0.03919501,0.71955372,-17.798608)"
       gradientUnits="userSpaceOnUse"
       id="linearGradient4185"
       xlink:href="#linearGradient4125"
       inkscape:collect="always" />
    <linearGradient
       gradientTransform="matrix(1.176962,0,0,1.1158927,-20.993826,-1.616984)"
       y2="9.3694906"
       x2="25.732143"
       y1="9.3694906"
       x1="22.732143"
       gradientUnits="userSpaceOnUse"
       id="linearGradient4191"
       xlink:href="#linearGradient4125"
       inkscape:collect="always" />
    <linearGradient
       gradientTransform="matrix(1.022934,0,0,1.0229014,-17.235548,-0.01121371)"
       gradientUnits="userSpaceOnUse"
       y2="6.7484198"
       x2="28.40254"
       y1="11.101309"
       x1="28.40254"
       id="linearGradient4228"
       xlink:href="#linearGradient4222"
       inkscape:collect="always" />
    <linearGradient
       gradientTransform="matrix(1.2411769,0,0,1.2489367,-22.396942,-1.9755206)"
       gradientUnits="userSpaceOnUse"
       y2="8.2147779"
       x2="21.001781"
       y1="11.751698"
       x1="21.001781"
       id="linearGradient4237"
       xlink:href="#linearGradient4222"
       inkscape:collect="always" />
    <radialGradient
       gradientUnits="userSpaceOnUse"
       gradientTransform="matrix(1.868261,-0.07185621,0.016685,0.4338099,-41.850695,26.669145)"
       r="11.928606"
       fy="46.116005"
       fx="26.785749"
       cy="46.116005"
       cx="26.785749"
       id="radialGradient4256"
       xlink:href="#linearGradient4250"
       inkscape:collect="always" />
    <linearGradient
       y2="9.3694906"
       x2="25.732143"
       y1="9.3694906"
       x1="22.732143"
       gradientTransform="matrix(0.02010111,1.1800196,0.5967413,-0.03919501,0.71955372,-17.798608)"
       gradientUnits="userSpaceOnUse"
       id="linearGradient4272"
       xlink:href="#linearGradient4125"
       inkscape:collect="always" />
    <linearGradient
       gradientTransform="matrix(1.2411769,0,0,1.2489367,-22.396942,-1.9755206)"
       y2="8.2147779"
       x2="21.001781"
       y1="11.751698"
       x1="21.001781"
       gradientUnits="userSpaceOnUse"
       id="linearGradient4274"
       xlink:href="#linearGradient4222"
       inkscape:collect="always" />
    <linearGradient
       y2="9.3694906"
       x2="25.732143"
       y1="9.3694906"
       x1="22.732143"
       gradientTransform="matrix(0.02010111,1.1800196,0.5967413,-0.03919501,0.71955372,-17.798608)"
       gradientUnits="userSpaceOnUse"
       id="linearGradient4276"
       xlink:href="#linearGradient4125"
       inkscape:collect="always" />
    <linearGradient
       gradientTransform="matrix(1.2411769,0,0,1.2489367,-22.396942,-1.9755206)"
       y2="8.2147779"
       x2="21.001781"
       y1="11.751698"
       x1="21.001781"
       gradientUnits="userSpaceOnUse"
       id="linearGradient4278"
       xlink:href="#linearGradient4222"
       inkscape:collect="always" />
    <linearGradient
       y2="9.3694906"
       x2="25.732143"
       y1="9.3694906"
       x1="22.732143"
       gradientTransform="matrix(-0.04285082,1.2261284,-1.2721113,-0.04072654,17.96494,-20.278957)"
       gradientUnits="userSpaceOnUse"
       id="linearGradient31321"
       xlink:href="#linearGradient4125"
       inkscape:collect="always" />
    <linearGradient
       gradientTransform="matrix(1.022934,0,0,1.0229014,-17.235548,-0.01121371)"
       y2="6.7484198"
       x2="28.40254"
       y1="11.101309"
       x1="28.40254"
       gradientUnits="userSpaceOnUse"
       id="linearGradient31323"
       xlink:href="#linearGradient4222"
       inkscape:collect="always" />
  </defs>
  <sodipodi:namedview
     inkscape:window-maximized="1"
     inkscape:snap-global="false"
     inkscape:document-rotation="0"
     inkscape:window-y="-8"
     inkscape:window-x="-8"
     inkscape:window-height="1557"
     inkscape:window-width="2880"
     inkscape:document-units="px"
     inkscape:grid-bbox="false"
     showgrid="true"
     inkscape:current-layer="layer1"
     inkscape:cy="24.169588"
     inkscape:cx="31.981565"
     inkscape:zoom="19.48281"
     inkscape:pageshadow="2"
     inkscape:pageopacity="0.0"
     borderopacity="1.0"
     bordercolor="#666666"
     pagecolor="#ffffff"
     id="base" />
  <metadata
     id="metadata4021">
    <rdf:RDF>
      <cc:Work
         rdf:about="">
        <dc:format>image/svg+xml</dc:format>
        <dc:type
           rdf:resource="http://purl.org/dc/dcmitype/StillImage" />
        <dc:title></dc:title>
      </cc:Work>
    </rdf:RDF>
  </metadata>
  <g
     inkscape:groupmode="layer"
     inkscape:label="Layer 1"
     id="layer1">
    <g
       transform="translate(5.4406937)"
       id="g1428">
      <path
         style="color:#000000;display:inline;overflow:visible;visibility:visible;fill:url(#radialGradient4256);fill-opacity:1;fill-rule:evenodd;stroke:none;stroke-width:0.5;stroke-linecap:butt;stroke-linejoin:miter;stroke-miterlimit:4;stroke-dashoffset:0;stroke-opacity:1;marker:none;marker-start:none;marker-mid:none;marker-end:none;enable-background:accumulate"
         d="m 6.2471987,39.571427 21.9285733,0.785714 c 2.644205,2.880953 2.497793,4.119048 0,7 L 6.2471987,48.214284 Z"
         id="rect4239"
         sodipodi:nodetypes="ccccc"
         inkscape:connector-curvature="0" />
      <path
         style="fill:url(#linearGradient4093);fill-opacity:1;fill-rule:evenodd;stroke:#222e3f;stroke-width:1;stroke-linecap:butt;stroke-linejoin:miter;stroke-miterlimit:4;stroke-dasharray:none;stroke-opacity:1"
         d="m 0.53726372,22.593542 c 3.35536398,1.630523 9.87281728,1.838315 13.77815028,0 l -0.602323,23.260165 c -2.394114,2.248155 -9.5272683,2.30145 -12.87466428,0 z"
         id="path4085"
         sodipodi:nodetypes="ccccc"
         inkscape:connector-curvature="0" />
      <path
         style="fill:url(#radialGradient4139);fill-opacity:1;fill-rule:evenodd;stroke:#264d00;stroke-width:1;stroke-linecap:butt;stroke-linejoin:miter;stroke-miterlimit:4;stroke-dasharray:none;stroke-opacity:1"
         d="m 0.50958672,22.624325 c -0.077069,-2.078473 0.05458,-5.705192 3.65171498,-7.335284 0.670092,-0.303662 0.667389,-1.827832 0.667389,-1.827832 0.00501,-0.177465 0.200726,-0.303738 0.419771,-0.392794 1.03152,-0.419381 2.754173,-0.533001 4.397561,0.04763 0.146272,0.05168 0.222335,0.200249 0.257757,0.332417 0,0 -0.02928,1.382555 0.8619493,1.919404 1.674795,1.008842 3.907721,2.194988 3.627971,7.225679 -3.899186,1.716694 -9.9295703,1.622286 -13.88411328,0.03078 z"
         id="path4103"
         sodipodi:nodetypes="cscsscscc"
         inkscape:connector-curvature="0" />
      <ellipse
         style="color:#000000;display:inline;overflow:visible;visibility:visible;opacity:1;fill:#eeeeec;fill-opacity:1;fill-rule:evenodd;stroke:none;stroke-width:0.0511668;stroke-linecap:butt;stroke-linejoin:miter;stroke-miterlimit:4;stroke-dasharray:none;stroke-dashoffset:0;stroke-opacity:1;marker:none;marker-start:none;marker-mid:none;marker-end:none;enable-background:accumulate"
         id="path4105"
         cx="7.6096101"
         cy="21.062664"
         rx="0.34482053"
         ry="0.30214903" />
      <path
         style="fill:#eeeeec;fill-rule:evenodd;stroke:none;stroke-width:1px;stroke-linecap:butt;stroke-linejoin:miter;stroke-opacity:1"
         d="m 6.4344547,18.752821 0.166067,0.825371 c 0.728852,-0.282774 1.457703,-0.177238 2.186556,0.02628 l 0.11071,-0.867038 c -0.755871,-0.178328 -1.560247,-0.291847 -2.463333,0.01539 z"
         id="path4107"
         sodipodi:nodetypes="ccccc"
         inkscape:connector-curvature="0" />
      <path
         style="color:#000000;display:inline;overflow:visible;visibility:visible;opacity:1;fill:#eeeeec;fill-opacity:1;fill-rule:evenodd;stroke:none;stroke-width:1px;stroke-linecap:butt;stroke-linejoin:miter;stroke-miterlimit:4;stroke-dasharray:none;stroke-dashoffset:0;stroke-opacity:1;marker:none;marker-start:none;marker-mid:none;marker-end:none;enable-background:accumulate"
         d="m 5.9639307,17.739024 -0.496235,-1.338098 c 1.406305,-0.384493 2.950166,-0.460237 4.209009,-0.07431 l -0.400923,1.287417 c -1.245814,-0.252755 -2.434867,-0.252465 -3.311851,0.124994 z"
         id="path4109"
         sodipodi:nodetypes="ccccc"
         inkscape:connector-curvature="0" />
      <path
         style="color:#000000;display:inline;overflow:visible;visibility:visible;opacity:1;fill:#eeeeec;fill-opacity:1;fill-rule:evenodd;stroke:none;stroke-width:1px;stroke-linecap:butt;stroke-linejoin:miter;stroke-miterlimit:4;stroke-dasharray:none;stroke-dashoffset:0;stroke-opacity:1;marker:none;marker-start:none;marker-mid:none;marker-end:none;enable-background:accumulate"
         d="m 2.7809717,23.230255 c 0.034375,-5.099363 1.199135,-4.344525 2.048164,-6.594732 -0.437819,2.157268 -1.266312,2.248354 -1.245505,6.831198 z"
         id="path4111"
         sodipodi:nodetypes="cccc"
         inkscape:connector-curvature="0" />
      <path
         id="path4211"
         style="fill:none;fill-opacity:1;fill-rule:evenodd;stroke:#eeeeec;stroke-width:1;stroke-linecap:butt;stroke-linejoin:miter;stroke-miterlimit:4;stroke-dasharray:none;stroke-opacity:0.376471"
         d="m 13.520316,22.918296 c 0.245193,-4.813227 -1.817212,-5.783942 -3.436645,-6.774427 -0.7975353,-0.487792 -1.0080113,-1.861687 -1.0080113,-1.861687 -0.00579,-0.378993 -0.393372,-0.39679 -0.528963,-0.419062 -1.058762,-0.173908 -1.810447,-0.165658 -2.313854,0.03019 -0.195753,0.07616 -0.540307,0.206021 -0.569948,0.704114 0,0 -0.129034,1.200066 -0.73647,1.445774 -3.481086,1.408105 -3.621726,4.95381 -3.528701,6.889822 l 0.289437,22.202068 c 2.933897,2.201964 9.1859033,2.150972 11.2842773,0 z"
         sodipodi:nodetypes="cscsscscccc"
         inkscape:connector-curvature="0" />
      <path
         style="color:#000000;display:inline;overflow:visible;visibility:visible;opacity:1;fill:url(#linearGradient4185);fill-opacity:1;fill-rule:evenodd;stroke:url(#linearGradient4237);stroke-width:0.5;stroke-linecap:butt;stroke-linejoin:miter;stroke-miterlimit:4;stroke-dasharray:none;stroke-dashoffset:0;stroke-opacity:1;marker:none;marker-start:none;marker-mid:none;marker-end:none;enable-background:accumulate"
         d="m 4.4032817,8.8148512 1.313488,0.029479 c 0.454206,0.699474 0.568459,2.4807568 0.145187,3.1011408 l -1.346157,0.07866 z"
         id="path4179"
         sodipodi:nodetypes="ccccc"
         inkscape:connector-curvature="0" />
      <path
         style="fill:url(#linearGradient4131);fill-opacity:1;fill-rule:evenodd;stroke:#000000;stroke-width:0.5;stroke-linecap:butt;stroke-linejoin:miter;stroke-miterlimit:4;stroke-dasharray:none;stroke-opacity:1"
         d="m 5.0364427,4.5137839 c 0.489611,-0.5351165 4.162818,-0.5246511 4.791915,0.039853 L 9.7442907,6.068063 c -0.501903,0.4700614 -0.993779,1.4454189 -1.008825,1.952812 l -0.168138,1.992666 0.630517,0.71736 -0.126105,2.351346 c -1.131851,0.571321 -2.580798,0.522551 -3.446817,-0.03986 L 5.5408547,10.571488 6.0452657,9.8939803 5.9611977,8.0607284 C 5.9583127,7.3037798 5.4021037,6.3697569 4.9944067,5.9086496 Z"
         id="path4123"
         sodipodi:nodetypes="ccccccccccccc"
         inkscape:connector-curvature="0" />
      <path
         style="color:#000000;display:inline;overflow:visible;visibility:visible;opacity:1;fill:url(#linearGradient4276);fill-opacity:1;fill-rule:evenodd;stroke:url(#linearGradient4278);stroke-width:0.5;stroke-linecap:butt;stroke-linejoin:miter;stroke-miterlimit:4;stroke-dasharray:none;stroke-dashoffset:0;stroke-opacity:1;marker:none;marker-start:none;marker-mid:none;marker-end:none;enable-background:accumulate"
         d="m 1.4629357,9.13171 1.44055,0.023892 c 0.265544,0.5825365 0.33172,2.066545 0.083772,2.583631 l -1.459712,0.06622 C 1.0597097,10.974762 0.98596472,10.092042 1.4629357,9.13171 Z"
         id="path4187"
         sodipodi:nodetypes="ccccc"
         inkscape:connector-curvature="0" />
      <path
         style="color:#000000;display:inline;overflow:visible;visibility:visible;opacity:1;fill:url(#linearGradient4272);fill-opacity:1;fill-rule:evenodd;stroke:url(#linearGradient4274);stroke-width:0.5;stroke-linecap:butt;stroke-linejoin:miter;stroke-miterlimit:4;stroke-dasharray:none;stroke-dashoffset:0;stroke-opacity:1;marker:none;marker-start:none;marker-mid:none;marker-end:none;enable-background:accumulate"
         d="m 2.8656027,8.5964509 1.440551,0.033894 c 0.265542,0.826372 0.331721,2.9315591 0.083772,3.6650901 l -1.459711,0.09394 C 2.7797457,11.125065 2.7506817,9.8607573 2.8656027,8.5964509 Z"
         id="path4181"
         sodipodi:nodetypes="ccccc"
         inkscape:connector-curvature="0" />
      <path
         style="color:#000000;display:inline;overflow:visible;visibility:visible;opacity:1;fill:url(#linearGradient4191);fill-opacity:1;fill-rule:evenodd;stroke:#000000;stroke-width:0.5;stroke-linecap:butt;stroke-linejoin:miter;stroke-miterlimit:4;stroke-dasharray:none;stroke-dashoffset:0;stroke-opacity:1;marker:none;marker-start:none;marker-mid:none;marker-end:none;enable-background:accumulate"
         d="m 5.4878177,2.8067336 0.08407,1.4347192 c 0.840685,0.4697109 2.942405,0.5263362 3.656988,0.039853 l 0.042036,-1.4745725 z"
         id="path4141"
         sodipodi:nodetypes="ccccc"
         inkscape:connector-curvature="0" />
      <path
         style="fill:url(#linearGradient4151);fill-opacity:1;fill-rule:evenodd;stroke:none;stroke-width:0.5;stroke-linecap:butt;stroke-linejoin:miter;stroke-miterlimit:4;stroke-dasharray:none;stroke-opacity:1"
         d="m 5.1515437,6.0282092 c 1.016211,0.6683423 3.335521,0.6589542 4.749883,0.039853 L 9.1027747,6.9448353 8.8085357,8.1005812 5.9922337,8.060728 5.7820597,6.9448353 Z"
         id="path4143"
         sodipodi:nodetypes="ccccccc"
         inkscape:connector-curvature="0" />
      <path
         style="fill:url(#linearGradient4155);fill-opacity:1;fill-rule:evenodd;stroke:none;stroke-width:0.5;stroke-linecap:butt;stroke-linejoin:miter;stroke-miterlimit:4;stroke-dasharray:none;stroke-opacity:1"
         d="m 5.8763567,10.717541 c 0.657058,0.491598 2.166941,0.558664 3.132122,-0.0272 l -0.545011,-0.598323 -0.200793,-0.7886954 -1.921882,0.027196 0.111515,0.5888483 z"
         id="path4153"
         sodipodi:nodetypes="ccccccc"
         inkscape:connector-curvature="0" />
      <path
         style="fill:#000000;fill-opacity:1;fill-rule:evenodd;stroke:#000000;stroke-width:0.25;stroke-linecap:butt;stroke-linejoin:miter;stroke-miterlimit:4;stroke-dasharray:none;stroke-opacity:1"
         d="m 3.1338947,2.7668802 c 0.997038,0.4804373 1.834834,-0.1069926 2.350488,0.3910068 0.564125,0.5448137 3.108431,0.6432806 3.829136,0.060517 0.476035,-0.3849242 1.3548073,0.00993 2.5214863,-0.3718169 0,0 0.105087,-1.1955995 -0.546445,-1.6339857 C 10.637027,0.77421456 9.0607377,1.451721 9.0607377,1.451721 8.4024737,1.0227936 6.6930187,0.93853259 5.8661277,1.3720143 c 0,0 -1.376623,-0.54798301 -2.143753,-0.1594131 -0.767128,0.3885696 -0.58848,1.554279 -0.58848,1.554279 z"
         id="path4163"
         sodipodi:nodetypes="csscsccsc"
         inkscape:connector-curvature="0" />
      <path
         style="color:#000000;display:inline;overflow:visible;visibility:visible;opacity:1;fill:url(#linearGradient4167);fill-opacity:1;fill-rule:evenodd;stroke:#000000;stroke-width:0.25;stroke-linecap:butt;stroke-linejoin:miter;stroke-miterlimit:4;stroke-dasharray:none;stroke-dashoffset:0;stroke-opacity:1;marker:none;marker-start:none;marker-mid:none;marker-end:none;enable-background:accumulate"
         d="m 6.3285047,0.47141533 0.046706,0.75210197 c 0.467047,0.2462294 1.634669,0.2759134 2.031661,0.020891 l 0.023351,-0.77299337 c -0.490402,-0.47558019 -1.653351,-0.44828279 -2.101718,4e-7 z"
         id="path4165"
         sodipodi:nodetypes="ccccc"
         inkscape:connector-curvature="0" />
      <path
         style="fill:#babdb6;fill-rule:evenodd;stroke:none;stroke-width:1px;stroke-linecap:butt;stroke-linejoin:miter;stroke-opacity:1"
         d="m 3.2599997,2.0893739 c 0,0 0.556954,-0.7671763 1.218996,-0.7173597 0.66204,0.049817 1.387134,0.4383864 1.387134,0.4383864 0,0 0.74611,-0.2590466 1.513236,-0.3188265 0.767126,-0.05978 1.471203,0.3586797 1.471203,0.3586797 0,0 0.998318,-0.4782396 1.7234093,-0.4383863 0.725095,0.039853 1.05086,0.7173595 1.05086,0.7173595 0,0 -0.577972,-0.3586797 -1.387134,-0.159413 -0.8091613,0.1992664 -1.3451013,0.7572126 -1.3451013,0.7572126 0,0 -0.597871,-0.5180931 -1.387132,-0.518093 -0.914249,0 -1.765445,0.518093 -1.765445,0.518093 0,0 -0.830176,-0.7273226 -1.429168,-0.7572126 -0.624197,-0.031148 -1.050858,0.1195599 -1.050858,0.1195599 z"
         id="path4169"
         sodipodi:nodetypes="cscscscscscsc"
         inkscape:connector-curvature="0" />
      <path
         style="color:#000000;display:inline;overflow:visible;visibility:visible;opacity:1;fill:url(#linearGradient4177);fill-opacity:1;fill-rule:evenodd;stroke:url(#linearGradient4228);stroke-width:0.5;stroke-linecap:butt;stroke-linejoin:miter;stroke-miterlimit:4;stroke-dasharray:none;stroke-dashoffset:0;stroke-opacity:1;marker:none;marker-start:none;marker-mid:none;marker-end:none;enable-background:accumulate"
         d="m 10.276049,7.3744138 -1.3661583,0.030631 c -0.472421,0.7268065 -0.591258,2.57769 -0.151009,3.2223162 l 1.4001333,0.08173 z"
         id="path4171"
         sodipodi:nodetypes="ccccc"
         inkscape:connector-curvature="0" />
      <path
         style="color:#000000;display:inline;overflow:visible;visibility:visible;opacity:1;fill:url(#linearGradient31321);fill-opacity:1;fill-rule:evenodd;stroke:url(#linearGradient31323);stroke-width:0.5;stroke-linecap:butt;stroke-linejoin:miter;stroke-miterlimit:4;stroke-dasharray:none;stroke-dashoffset:0;stroke-opacity:1;marker:none;marker-start:none;marker-mid:none;marker-end:none;enable-background:accumulate"
         d="m 13.39007,7.1474796 -3.070918,0.035219 C 9.7530767,8.0413603 9.6120047,10.228806 10.140576,10.990999 l 3.111758,0.09761 c 0.758887,-1.3137059 0.72314,-2.6274162 0.137736,-3.9411254 z"
         id="path4175"
         sodipodi:nodetypes="ccccc"
         inkscape:connector-curvature="0" />
    </g>
    <g
       style="stroke-width:1.26412"
       transform="matrix(0.79106437,0,0,0.79106437,10.98809,4.6864327)"
       id="g1582">
      <path
         style="opacity:1;fill-rule:evenodd;stroke:#a40000;stroke-width:1.26412;stop-opacity:1"
         d="M 30.294502,6.9265267 45.858804,35.461083 c 0.472877,0.851175 0.459365,1.70234 -0.04054,2.553517 -0.229677,0.391811 -0.543804,0.702553 -0.94237,0.932237 -0.398555,0.229683 -0.827515,0.344521 -1.286879,0.344521 h -31.12861 c -0.459364,0 -0.888324,-0.114833 -1.286891,-0.344521 C 10.774947,38.717153 10.460827,38.406411 10.231144,38.0146 9.731246,37.163423 9.7177351,36.312258 10.190618,35.461083 L 25.754921,6.9265267 c 0.229683,-0.4188328 0.54718,-0.7498413 0.952502,-0.9930337 0.405324,-0.2431936 0.844415,-0.3647889 1.317292,-0.3647889 0.472876,0 0.911968,0.1215955 1.317291,0.3647889 0.405322,0.2431924 0.72282,0.5742009 0.952503,0.9930337 z"
         id="Path"
         fill="#FF6969"
         inkscape:connector-curvature="0" />
      <path
         style="opacity:1;fill-rule:evenodd;stroke:none;stroke-width:1.26412;stop-opacity:1"
         d="m 30.618758,33.43448 v -3.850544 c 0,-0.18915 -0.06417,-0.347899 -0.192526,-0.476251 -0.128351,-0.12835 -0.280346,-0.192528 -0.455987,-0.192528 h -3.891074 c -0.175641,0 -0.327633,0.06417 -0.455986,0.192528 -0.128351,0.12835 -0.192527,0.287101 -0.192527,0.476251 v 3.850544 c 0,0.189158 0.06417,0.347899 0.192528,0.476251 0.12835,0.12835 0.280344,0.192526 0.455985,0.192526 h 3.891074 c 0.175641,0 0.327634,-0.06417 0.455987,-0.192529 0.12835,-0.12835 0.192526,-0.287098 0.192526,-0.476248 z"
         id="path5412"
         fill="#000000"
         inkscape:connector-curvature="0" />
      <path
         style="opacity:1;fill-rule:evenodd;stroke:none;stroke-width:1.26412;stop-opacity:1"
         d="m 30.578227,23.260938 0.364788,-9.302102 c 0,-0.162128 -0.06755,-0.29048 -0.20266,-0.385055 -0.17564,-0.148619 -0.337767,-0.222925 -0.486385,-0.222925 h -4.458524 c -0.148618,0 -0.310745,0.07431 -0.486385,0.222925 -0.135106,0.09457 -0.20266,0.236436 -0.20266,0.425586 l 0.344523,9.261571 c 0,0.135109 0.06755,0.24657 0.20266,0.334389 0.135107,0.08782 0.297234,0.131723 0.486384,0.131723 h 3.749213 c 0.189152,0 0.3479,-0.04391 0.476252,-0.131723 0.12835,-0.08782 0.199283,-0.199283 0.212794,-0.334391 z"
         id="path5414"
         fill="#000000"
         inkscape:connector-curvature="0" />
    </g>
  </g>
</svg>
