<?xml version="1.0" encoding="UTF-8" standalone="no"?>
<!-- Created with Inkscape (http://www.inkscape.org/) -->

<svg
   xmlns:dc="http://purl.org/dc/elements/1.1/"
   xmlns:cc="http://creativecommons.org/ns#"
   xmlns:rdf="http://www.w3.org/1999/02/22-rdf-syntax-ns#"
   xmlns:svg="http://www.w3.org/2000/svg"
   xmlns="http://www.w3.org/2000/svg"
   xmlns:xlink="http://www.w3.org/1999/xlink"
   xmlns:sodipodi="http://sodipodi.sourceforge.net/DTD/sodipodi-0.dtd"
   xmlns:inkscape="http://www.inkscape.org/namespaces/inkscape"
   width="48px"
   height="48px"
   id="svg91283"
   version="1.1"
   inkscape:version="0.48.5 r10040"
   sodipodi:docname="hybridobject.svg">
  <defs
     id="defs91285">
    <linearGradient
       inkscape:collect="always"
       id="linearGradient7727">
      <stop
         style="stop-color:#ffffff;stop-opacity:1;"
         offset="0"
         id="stop7729" />
      <stop
         style="stop-color:#ffffff;stop-opacity:0;"
         offset="1"
         id="stop7731" />
    </linearGradient>
    <linearGradient
       id="linearGradient7695">
      <stop
         style="stop-color:#dce0e2;stop-opacity:1;"
         offset="0"
         id="stop7697" />
      <stop
         style="stop-color:#d2d3d4;stop-opacity:1;"
         offset="1"
         id="stop7699" />
    </linearGradient>
    <linearGradient
       id="linearGradient7687">
      <stop
         style="stop-color:#9dbcde;stop-opacity:1;"
         offset="0"
         id="stop7689" />
      <stop
         style="stop-color:#4a7cb3;stop-opacity:1;"
         offset="1"
         id="stop7691" />
    </linearGradient>
    <linearGradient
       id="linearGradient7663">
      <stop
         style="stop-color:#000000;stop-opacity:1;"
         offset="0"
         id="stop7665" />
      <stop
         style="stop-color:#000000;stop-opacity:0;"
         offset="1"
         id="stop7667" />
    </linearGradient>
    <linearGradient
       id="linearGradient7640">
      <stop
         style="stop-color:#ffffff;stop-opacity:1;"
         offset="0"
         id="stop7642" />
      <stop
         style="stop-color:#ffffff;stop-opacity:0.12612613;"
         offset="1"
         id="stop7644" />
    </linearGradient>
    <linearGradient
       id="linearGradient7414">
      <stop
         style="stop-color:#eeeeec;stop-opacity:1;"
         offset="0"
         id="stop7416" />
      <stop
         style="stop-color:#afafa5;stop-opacity:1;"
         offset="1"
         id="stop7418" />
    </linearGradient>
    <linearGradient
       id="linearGradient100109">
      <stop
         style="stop-color:#888a85;stop-opacity:1;"
         offset="0"
         id="stop100111" />
      <stop
         style="stop-color:#e1e2e1;stop-opacity:1;"
         offset="1"
         id="stop100113" />
    </linearGradient>
    <linearGradient
       id="linearGradient100101">
      <stop
         style="stop-color:#a8aaa6;stop-opacity:1;"
         offset="0"
         id="stop100103" />
      <stop
         style="stop-color:#555753;stop-opacity:1;"
         offset="1"
         id="stop100105" />
    </linearGradient>
    <linearGradient
       id="linearGradient100091">
      <stop
         style="stop-color:#e1f1f4;stop-opacity:1;"
         offset="0"
         id="stop100093" />
      <stop
         style="stop-color:#7d9292;stop-opacity:1;"
         offset="1"
         id="stop100095" />
    </linearGradient>
    <radialGradient
       inkscape:collect="always"
       xlink:href="#linearGradient7640"
       id="radialGradient7646"
       cx="19.795008"
       cy="6.1466513"
       fx="19.795008"
       fy="6.1466513"
       r="13.520764"
       gradientTransform="matrix(1.5515886,-0.01775993,0.01407318,1.2295975,-13.578503,-1.1081168)"
       gradientUnits="userSpaceOnUse" />
    <radialGradient
       inkscape:collect="always"
       xlink:href="#linearGradient7640"
       id="radialGradient7656"
       cx="20.944834"
       cy="23.063454"
       fx="20.944834"
       fy="23.063454"
       r="11.278407"
       gradientTransform="matrix(1.5503555,-0.11829738,0.11474064,1.5038646,-16.594179,-6.4435085)"
       gradientUnits="userSpaceOnUse" />
    <radialGradient
       inkscape:collect="always"
       xlink:href="#linearGradient7663"
       id="radialGradient7683"
       cx="16.635645"
       cy="42.975266"
       fx="16.635645"
       fy="42.975266"
       r="21.817526"
       gradientTransform="matrix(1.4027876,-0.40283965,0.17296756,0.60231727,-13.847511,19.981819)"
       gradientUnits="userSpaceOnUse" />
    <linearGradient
       inkscape:collect="always"
       xlink:href="#linearGradient7727"
       id="linearGradient7733"
       x1="8.8596649"
       y1="6.3484015"
       x2="24.486511"
       y2="32.460846"
       gradientUnits="userSpaceOnUse"
       gradientTransform="matrix(1.0032905,0,0,1.0032916,1.0589736,0.14752136)" />
  </defs>
  <sodipodi:namedview
     id="base"
     pagecolor="#333333"
     bordercolor="#666666"
     borderopacity="1.0"
     inkscape:pageopacity="1"
     inkscape:pageshadow="2"
     inkscape:zoom="19.79899"
     inkscape:cx="19.983183"
     inkscape:cy="21.198111"
     inkscape:current-layer="layer1"
     showgrid="true"
     inkscape:grid-bbox="true"
     inkscape:document-units="px"
     inkscape:window-width="2560"
     inkscape:window-height="1537"
     inkscape:window-x="-8"
     inkscape:window-y="-8"
     inkscape:window-maximized="1" />
  <metadata
     id="metadata91288">
    <rdf:RDF>
      <cc:Work
         rdf:about="">
        <dc:format>image/svg+xml</dc:format>
        <dc:type
           rdf:resource="http://purl.org/dc/dcmitype/StillImage" />
        <dc:title></dc:title>
      </cc:Work>
    </rdf:RDF>
  </metadata>
  <g
     id="layer1"
     inkscape:label="Layer 1"
     inkscape:groupmode="layer">
    <path
       style="fill:url(#radialGradient7683);fill-opacity:1;stroke:none"
       d="M 39.169678,45.467782 16.983169,34.628393 c 0,0 12.805055,-11.407809 25.987045,-8.264663 13.18199,3.143145 -3.800536,19.104052 -3.800536,19.104052 z"
       id="path7675"
       inkscape:connector-curvature="0"
       sodipodi:nodetypes="cczc" />
    <path
       style="fill:#cfd5d7;fill-opacity:1;stroke:none"
       d="m 8.4878707,12.635476 c 0,0 -5.3957978,-4.2862962 -4.0045718,-6.2931522 1.3912261,-2.006856 7.0366051,1.4874723 7.0366051,1.4874723 5.464569,-2.7026167 12.479917,-4.0084289 18.9359,-4.1763655 0,0 2.746382,-3.2905976 4.118988,-2.1167884 1.372605,1.1738099 -1.945077,5.892681 -1.945077,5.892681 2.764816,4.0716108 3.953177,11.3252418 3.032032,17.1059348 1.200878,4.746924 2.097918,9.519168 1.487413,14.417045 0,0 4.918586,4.458545 3.432489,6.350363 -1.486097,1.891818 -6.979396,-1.830735 -6.979396,-1.830735 -7.610529,1.306621 -15.368091,1.87805 -23.283721,1.659103 0,0 -6.006809,4.330866 -8.2379756,1.601895 C -0.15061065,44.003957 4.6549236,40.840248 4.6549236,40.840248 5.2865287,35.593161 6.7926932,30.491839 11.062239,25.8511 8.8941278,21.882572 7.9111659,17.518979 8.4878707,12.635476 z"
       id="path7490-5"
       inkscape:connector-curvature="0"
       sodipodi:nodetypes="czcczccczcczccc" />
    <path
       style="color:#000000;fill:url(#radialGradient7656);fill-opacity:1;stroke:none;stroke-width:0.1;marker:none;visibility:visible;display:inline;overflow:visible;enable-background:accumulate"
       d="m 5.6350164,35.560007 c 1.2652492,3.602521 7.0343326,4.520665 11.5288976,4.409477 8.135273,0.333807 11.995981,-5.000352 12.944731,-6.755804 0.94875,-1.755453 1.262118,-3.898095 0.970854,-6.189451 -0.291265,-2.291356 -6.665992,-3.145255 -10.11307,-3.398131 -3.447078,-0.252876 -6.962267,0.108729 -9.870355,2.224967 -1.7775631,1.905024 -4.8974124,6.862282 -5.4610576,9.708942 z"
       id="path7527-9"
       inkscape:connector-curvature="0"
       sodipodi:nodetypes="cczzzcc" />
    <path
       style="color:#000000;fill:url(#radialGradient7646);fill-opacity:1;stroke:none;stroke-width:0.1;marker:none;visibility:visible;display:inline;overflow:visible;enable-background:accumulate"
       d="m 8.2644142,16.587116 c 0.7309964,1.947978 2.6279998,4.317615 5.3396998,4.247662 2.711702,-0.06996 4.221668,-1.53381 6.431912,-1.901335 2.210244,-0.367525 4.790621,0.823553 6.957794,-0.04045 2.167171,-0.864002 4.409757,-3.154031 5.137439,-4.814017 0.727681,-1.659985 0.404523,-6.6344427 0.404523,-6.6344427 0,0 3.512149,-4.6537289 2.14397,-5.8658188 -1.368178,-1.21209133 -4.207038,2.1440574 -4.207038,2.1440574 -6.918757,0.028521 -13.280312,1.374119 -19.01257,4.207208 0,0 -5.3685179,-3.7262753 -6.8364355,-1.779972 -1.4679177,1.9463025 3.8429678,6.5130811 3.8429678,6.5130811 z"
       id="path7535-8"
       inkscape:connector-curvature="0"
       sodipodi:nodetypes="czzzzczcczcc" />
    <path
       style="fill:#b6babd;fill-opacity:1;stroke:none"
       d="m 1.5511832,44.266018 c 2.5035971,0.825237 5.800253,0.55243 7.7231028,-2.917735 7.43706,2.00301 14.874122,1.229785 22.311183,-1.02979 2.626109,1.036231 5.174079,2.43713 8.237976,1.430263 0,0 1.836233,2.549544 0.457664,3.833103 -1.378568,1.283559 -6.80777,-2.116789 -6.80777,-2.116789 -7.642651,1.277127 -15.374197,1.754158 -23.169306,1.659105 C 6.8324304,47.37841 4.26808,48.258749 2.8406812,47.417349 2.0319773,46.940648 1.2449716,45.568027 1.5511832,44.266018 z"
       id="path7671"
       inkscape:connector-curvature="0"
       sodipodi:nodetypes="cccczccsc" />
    <path
       sodipodi:nodetypes="czcczccczcczccc"
       inkscape:connector-curvature="0"
       id="path7619"
       d="m 8.4878704,12.635477 c 0,0 -5.3957977,-4.2862967 -4.0045717,-6.2931528 1.391226,-2.0068561 7.0366043,1.4874724 7.0366043,1.4874724 5.464568,-2.7026168 12.479917,-4.008429 18.9359,-4.1763656 0,0 2.746383,-3.29059777 4.118988,-2.1167886 1.372604,1.17381 -1.945078,5.8926811 -1.945078,5.8926811 2.764817,4.0716115 3.953179,11.3252415 3.032032,17.1059365 1.200878,4.746923 2.097918,9.519166 1.487414,14.417043 0,0 4.918585,4.458546 3.432488,6.350365 -1.486096,1.891817 -6.979394,-1.830737 -6.979394,-1.830737 -7.761241,1.307545 -15.522481,1.877137 -23.283722,1.659105 0,0 -6.0068082,4.330865 -8.2379747,1.601894 C -0.15061055,44.003959 4.6549234,40.840249 4.6549234,40.840249 5.2865284,35.593162 6.7926929,30.49184 11.062238,25.851101 8.8941275,21.882573 7.9111655,17.51898 8.4878704,12.635477 z"
       style="fill:none;stroke:#4d72aa;stroke-width:0.50000000000000000;stroke-linecap:butt;stroke-linejoin:miter;stroke-miterlimit:4;stroke-opacity:1;stroke-dasharray:none" />
    <path
       style="font-size:medium;font-style:normal;font-variant:normal;font-weight:normal;font-stretch:normal;text-indent:0;text-align:start;text-decoration:none;line-height:normal;letter-spacing:normal;word-spacing:normal;text-transform:none;direction:ltr;block-progression:tb;writing-mode:lr-tb;text-anchor:start;baseline-shift:baseline;color:#000000;fill:#a1bed7;fill-opacity:1;stroke:none;stroke-width:1;marker:none;visibility:visible;display:inline;overflow:visible;enable-background:accumulate;font-family:Sans;-inkscape-font-specification:Sans"
       d="m 29.180265,6.418094 -0.344882,0.1567643 c 1.186339,3.4229232 1.966427,6.7483807 2.780533,9.6539207 0.836982,3.015538 1.404975,5.896524 0.480162,9.314562 l -0.06271,0.125411 0.06271,0.156764 c 0.740286,1.541057 1.628963,4.612872 1.644434,7.378637 0.01529,2.733433 -0.83882,5.160862 -0.759967,6.704242 2.758867,-4.958189 1.192126,-10.219866 -0.368594,-13.954921 1.165512,-3.937076 0.853211,-7.253276 0.06792,-10.345586 C 31.935224,12.675603 30.765275,9.9446361 30.026791,7.0765041 31.307039,6.4173327 32.601104,5.6484904 33.632366,4.1606879 32.778197,4.898321 30.481822,5.7668965 29.180265,6.418094 z"
       id="path7511-9"
       inkscape:connector-curvature="0"
       sodipodi:nodetypes="ccccccsccsccc" />
    <path
       style="color:#000000;fill:#a8cae8;fill-opacity:1;stroke:none;stroke-width:0.1;marker:none;visibility:visible;display:inline;overflow:visible;enable-background:accumulate"
       d="m 11.577035,24.719378 c 0,0 5.095053,-1.978696 8.171633,-2.093644 3.076579,-0.114944 9.724916,2.026107 9.724916,2.026107 0,0 -6.721821,-1.054615 -9.724916,-1.013054 -3.003097,0.04156 -8.171633,1.080591 -8.171633,1.080591 z"
       id="path7492-2"
       inkscape:connector-curvature="0"
       sodipodi:nodetypes="czczc" />
    <path
       style="color:#000000;fill:none;stroke:#98b8d3;stroke-width:1;stroke-linecap:butt;stroke-linejoin:miter;stroke-miterlimit:4;stroke-opacity:1;stroke-dasharray:none;stroke-dashoffset:0;marker:none;visibility:visible;display:inline;overflow:visible;enable-background:accumulate"
       d="m 33.593161,36.979426 c 1.791118,0.636362 3.508893,3.57833 3.993755,6.392087"
       id="path7621"
       inkscape:connector-curvature="0"
       sodipodi:nodetypes="cc" />
    <path
       style="fill:none;stroke:url(#linearGradient7733);stroke-width:0.5;stroke-linecap:butt;stroke-linejoin:miter;stroke-miterlimit:4;stroke-opacity:1;stroke-dasharray:none"
       d="M 33.791326,1.8092231 C 31.73556,2.1483645 31.085217,4.9287462 28.745077,4.2315214 22.701665,4.4693239 16.688705,6.0872613 11.279995,8.2679128 9.4513061,7.4480111 6.7955565,5.3380119 4.8526658,6.6689168 4.565696,9.3346377 7.8245503,10.810886 8.9912392,12.688667 8.4003553,17.285302 9.3890659,21.91073 11.656229,25.919575 7.5124843,30.020352 5.8425247,35.898224 4.9153715,41.282477 c -1.900299,0.976611 -4.42808489,4.24169 -1.6303471,5.737574 3.7205289,0.884824 6.1346932,-3.453946 9.9388466,-2.351465 6.905432,0.122999 13.865114,-0.754016 20.630161,-1.630349 1.862762,0.960563 4.248562,2.996832 6.333271,1.975231 0.65032,-2.522836 -2.568072,-4.305394 -3.54287,-6.113808 C 37.43274,33.862564 35.941518,28.870459 35.22781,23.978942 35.873917,18.346613 35.14275,12.259457 32.035568,7.4213855 32.814697,5.8120028 35.02985,3.6584856 34.136207,1.840576 34.039957,1.824376 33.925595,1.7136547 33.791326,1.809223 z"
       id="path7719"
       inkscape:connector-curvature="0" />
  </g>
</svg>
