<?xml version="1.0" encoding="UTF-8" standalone="no"?>
<!-- Created with Inkscape (http://www.inkscape.org/) -->
<svg
   xmlns:i="http://ns.adobe.com/AdobeIllustrator/10.0/"
   xmlns:dc="http://purl.org/dc/elements/1.1/"
   xmlns:cc="http://web.resource.org/cc/"
   xmlns:rdf="http://www.w3.org/1999/02/22-rdf-syntax-ns#"
   xmlns:svg="http://www.w3.org/2000/svg"
   xmlns="http://www.w3.org/2000/svg"
   xmlns:xlink="http://www.w3.org/1999/xlink"
   xmlns:sodipodi="http://sodipodi.sourceforge.net/DTD/sodipodi-0.dtd"
   xmlns:inkscape="http://www.inkscape.org/namespaces/inkscape"
   width="48px"
   height="48px"
   id="svg5100"
   sodipodi:version="0.32"
   inkscape:version="0.45.1"
   sodipodi:docbase="C:\dev\src\houdini\support\icons\DOP"
   sodipodi:docname="impulseforce.svg"
   inkscape:output_extension="org.inkscape.output.svg.inkscape">
  <defs
     id="defs5102">
    <linearGradient
       id="linearGradient5090">
      <stop
         style="stop-color:#ffcc00;stop-opacity:1;"
         offset="0"
         id="stop5092" />
      <stop
         id="stop5098"
         offset="0.73563218"
         style="stop-color:#d75600;stop-opacity:1;" />
      <stop
         style="stop-color:#ff7213;stop-opacity:1;"
         offset="1"
         id="stop5094" />
    </linearGradient>
    <radialGradient
       inkscape:collect="always"
       xlink:href="#linearGradient5090"
       id="radialGradient5096"
       cx="12.46139"
       cy="20.318304"
       fx="12.46139"
       fy="20.318304"
       r="17.165864"
       gradientTransform="matrix(1.229824,-2.7955188e-3,2.3704983e-3,1.042846,-4.1169523,-0.9839151)"
       gradientUnits="userSpaceOnUse" />
    <linearGradient
       inkscape:collect="always"
       id="linearGradient34989">
      <stop
         style="stop-color:#2e3436;stop-opacity:1;"
         offset="0"
         id="stop34991" />
      <stop
         style="stop-color:#2e3436;stop-opacity:0;"
         offset="1"
         id="stop34993" />
    </linearGradient>
    <radialGradient
       inkscape:collect="always"
       xlink:href="#linearGradient34989"
       id="radialGradient34995"
       cx="27.856983"
       cy="35.999359"
       fx="27.856983"
       fy="35.999359"
       r="14.678413"
       gradientTransform="matrix(1.230882,0.1175317,-4.5263532e-2,0.4740344,-4.8022174,16.867366)"
       gradientUnits="userSpaceOnUse" />
  </defs>
  <sodipodi:namedview
     id="base"
     pagecolor="#ffffff"
     bordercolor="#666666"
     borderopacity="1.0"
     inkscape:pageopacity="0.0"
     inkscape:pageshadow="2"
     inkscape:zoom="7"
     inkscape:cx="24"
     inkscape:cy="24"
     inkscape:current-layer="layer1"
     showgrid="true"
     inkscape:grid-bbox="true"
     inkscape:document-units="px"
     inkscape:window-width="744"
     inkscape:window-height="573"
     inkscape:window-x="325"
     inkscape:window-y="208" />
  <metadata
     id="metadata5105">
    <rdf:RDF>
      <cc:Work
         rdf:about="">
        <dc:format>image/svg+xml</dc:format>
        <dc:type
           rdf:resource="http://purl.org/dc/dcmitype/StillImage" />
      </cc:Work>
    </rdf:RDF>
  </metadata>
  <g
     id="layer1"
     inkscape:label="Layer 1"
     inkscape:groupmode="layer">
    <path
       sodipodi:type="arc"
       style="opacity:1;color:#000000;fill:url(#radialGradient34995);fill-opacity:1;fill-rule:evenodd;stroke:none;stroke-width:0.75;stroke-linecap:round;stroke-linejoin:miter;marker:none;marker-start:none;marker-mid:none;marker-end:none;stroke-miterlimit:4;stroke-dasharray:none;stroke-dashoffset:0;stroke-opacity:1;visibility:visible;display:inline;overflow:visible;enable-background:accumulate"
       id="path34979"
       sodipodi:cx="33.410866"
       sodipodi:cy="38.303669"
       sodipodi:rx="14.678413"
       sodipodi:ry="6.9897208"
       d="M 48.089279 38.303669 A 14.678413 6.9897208 0 1 1  18.732452,38.303669 A 14.678413 6.9897208 0 1 1  48.089279 38.303669 z"
       transform="matrix(0.9893226,0.1576179,-0.1575565,0.9897078,-2.4416873,-5.2036641)" />
    <path
       style="fill:url(#radialGradient5096);fill-opacity:1;stroke:#a14000;stroke-width:1;stroke-miterlimit:4;stroke-dasharray:none;stroke-opacity:1"
       id="path34842"
       d="M 0.81692571,21.232911 C -0.14078529,29.168173 5.5113137,36.369839 13.440482,37.326922 C 21.366644,38.280997 28.568512,32.631708 29.525223,24.696446 C 30.479928,16.765193 24.828831,9.5625239 16.90367,8.6054419 C 8.9734997,7.6493629 1.7736347,13.301658 0.81692571,21.232911 z "
       i:knockout="Off" />
    <path
       style="fill:none;fill-opacity:1;stroke:#ffffff;stroke-width:1;stroke-miterlimit:4;stroke-dasharray:none;stroke-opacity:0.34509805"
       id="path9112"
       d="M 1.5370333,21.335601 C 0.63606963,28.800681 5.9532642,35.575633 13.412604,36.476007 C 20.869117,37.373551 27.644252,32.058994 28.544275,24.593914 C 29.44241,17.132605 24.126158,10.35671 16.670588,9.4563374 C 9.2103051,8.5569082 2.4370543,13.874292 1.5370333,21.335601 z "
       i:knockout="Off" />
    <path
       style="fill:#1e4173"
       id="path34844"
       d="M 28.188835,20.380057 C 27.62583,20.498314 27.160999,20.591517 27.003718,20.61156 C 26.563931,20.668685 23.975307,20.515351 22.09094,20.342976 C 21.890581,20.34498 21.493873,20.326942 21.55398,19.821842 C 21.583032,19.575306 21.854517,19.061188 21.646145,18.790599 C 21.622102,18.634259 21.562996,19.266635 21.50389,19.139358 C 21.390688,18.899837 21.368649,17.575957 21.23541,17.500794 C 21.103174,17.430641 20.74253,17.764367 20.560204,18.282494 C 20.269685,19.10829 20.153477,18.681362 20.1104,18.792604 C 20.071331,18.899837 20.131438,19.335786 20.16049,19.568291 C 20.190544,19.798793 20.287717,20.410122 20.451009,20.714785 C 20.612298,21.018445 20.610293,21.275004 20.807646,21.298054 C 21.002995,21.322107 21.499883,21.57666 21.884571,21.570647 C 22.266253,21.562629 26.29445,21.992565 26.84844,21.897358 C 27.405435,21.800147 30.959786,22.065724 31.716138,22.105811 C 32.254099,22.130865 32.795066,22.614919 33.600505,23.148079 C 34.405945,23.679234 35.659184,24.101152 35.987771,24.522067 C 36.318362,24.942983 36.30634,25.485163 36.369453,25.872004 C 36.430562,26.26085 36.232208,26.999457 36.034855,27.302115 C 35.834497,27.603772 32.594708,30.146302 32.173957,30.479027 C 31.751201,30.807741 31.360503,31.357938 31.34247,31.518287 C 31.321433,31.679638 31.667051,32.866219 31.903473,33.163867 C 32.138894,33.46452 33.08258,34.665133 33.397142,35.190275 C 33.686659,35.672323 34.946911,37.443176 35.546983,38.70492 C 35.710275,39.028625 35.294533,38.795117 34.530167,38.642785 C 34.100398,38.556598 33.131667,38.782089 32.757999,39.039649 C 32.46147,39.240085 33.201793,39.836382 34.114423,40.114988 C 35.027054,40.394596 35.84151,40.931765 36.134032,41.035992 C 36.426555,41.138214 37.131816,41.460916 37.677791,40.849586 C 38.226771,40.239258 37.079722,39.35734 36.952495,39.046664 C 36.785196,38.642785 36.181117,36.885964 35.895607,36.08923 C 35.610096,35.296506 34.717501,33.230011 34.522152,33.043606 C 34.329808,32.859204 34.161508,32.456328 34.125443,31.855019 C 34.094388,31.345912 37.508488,29.858676 38.953069,29.256366 L 38.944053,29.282423 C 38.975109,29.937849 39.092318,32.562559 39.274644,32.859204 C 39.45697,33.147832 40.108134,33.610839 40.550924,33.988661 C 40.991712,34.368487 42.705775,35.497945 43.30184,35.953936 C 43.836796,36.356812 45.05898,37.884135 45.434651,38.489452 C 45.326457,38.508493 45.128103,38.543569 45.055974,38.559604 C 44.950786,38.581653 43.848817,38.448362 43.729604,38.601696 C 43.610391,38.758036 42.737833,38.718951 42.675721,39.218036 C 42.615613,39.717123 44.396797,39.799301 45.243309,40.071894 C 46.08882,40.342483 46.39136,40.648148 46.824134,40.700261 C 47.256907,40.755381 47.757803,40.239258 47.788858,39.753201 C 47.786854,39.319257 47.315011,38.717949 46.775046,37.785922 C 46.237085,36.850888 44.951788,34.899643 44.377762,34.232191 C 43.806743,33.567745 41.550711,31.98831 41.362374,31.747786 C 41.174038,31.509267 42.090676,28.411528 42.033574,27.536625 C 41.976472,26.657714 41.55572,25.630478 41.260192,24.941981 C 40.961658,24.253484 40.232355,23.564986 39.779546,23.241281 C 39.329742,22.915573 39.754502,23.454746 38.703624,21.806159 C 37.652746,20.157573 36.537753,19.479097 35.947699,18.970992 C 35.355641,18.463888 34.774603,18.339619 34.345837,18.288507 C 33.91707,18.237396 32.823116,17.833517 32.512561,17.254257 C 32.943331,15.947414 32.363294,14.896128 31.658034,14.43312 C 30.952774,13.966104 29.157566,14.571421 28.776886,15.33408 C 28.421251,16.053645 29.023327,16.452513 29.045366,16.725106 C 29.066403,16.999703 28.812951,17.296349 28.792915,17.4577 C 28.772879,17.617047 29.129516,17.824498 29.217674,17.997875 C 29.305831,18.17025 29.348908,18.720446 29.669481,18.759532 C 29.925939,18.790599 30.480931,18.64829 30.946763,18.78659 L 30.954778,18.790599 C 30.297604,19.014086 29.653452,19.244587 29.230697,19.248595 C 28.41524,19.260622 26.151195,19.096264 25.722429,19.044151 C 25.422893,18.987026 25.268617,18.8828 25.334735,18.33561 C 25.399852,17.789421 25.014163,17.075869 25.090299,16.668984 C 25.166435,16.262099 24.517275,16.598831 24.45817,16.842361 C 24.40307,17.083887 24.34096,17.826502 24.330942,17.91269 C 24.211728,17.75635 24.1396,18.110119 24.119564,18.523017 C 24.096523,18.93792 24.076487,19.100273 24.162641,19.307724 C 24.246791,19.511167 24.736667,19.598357 24.778742,19.714609 C 24.819815,19.830862 25.250585,20.01827 25.46597,20.020275 C 25.823609,20.020275 27.07785,20.204675 28.188835,20.380057"
       i:knockout="Off" />
  </g>
</svg>
