<?xml version="1.0" encoding="UTF-8" standalone="no"?>
<!-- Created with Inkscape (http://www.inkscape.org/) -->

<svg
   xmlns:dc="http://purl.org/dc/elements/1.1/"
   xmlns:cc="http://creativecommons.org/ns#"
   xmlns:rdf="http://www.w3.org/1999/02/22-rdf-syntax-ns#"
   xmlns:svg="http://www.w3.org/2000/svg"
   xmlns="http://www.w3.org/2000/svg"
   xmlns:xlink="http://www.w3.org/1999/xlink"
   xmlns:sodipodi="http://sodipodi.sourceforge.net/DTD/sodipodi-0.dtd"
   xmlns:inkscape="http://www.inkscape.org/namespaces/inkscape"
   width="48px"
   height="48px"
   id="svg5738"
   sodipodi:version="0.32"
   inkscape:version="0.48.4 r9939"
   sodipodi:docname="oceanwaves.svg"
   version="1.1">
  <defs
     id="defs5740">
    <linearGradient
       id="linearGradient92587">
      <stop
         style="stop-color:#a6c2e1;stop-opacity:1;"
         offset="0"
         id="stop92589" />
      <stop
         style="stop-color:#498acf;stop-opacity:1;"
         offset="1"
         id="stop92591" />
    </linearGradient>
    <linearGradient
       inkscape:collect="always"
       id="linearGradient92579">
      <stop
         style="stop-color:#204a87;stop-opacity:1;"
         offset="0"
         id="stop92581" />
      <stop
         style="stop-color:#204a87;stop-opacity:0;"
         offset="1"
         id="stop92583" />
    </linearGradient>
    <linearGradient
       inkscape:collect="always"
       id="linearGradient3936">
      <stop
         style="stop-color:#3465a4;stop-opacity:1"
         offset="0"
         id="stop3938" />
      <stop
         style="stop-color:#c2deea;stop-opacity:1"
         offset="1"
         id="stop3940" />
    </linearGradient>
    <linearGradient
       id="linearGradient3930">
      <stop
         id="stop3932"
         offset="0"
         style="stop-color:#3465a4;stop-opacity:1;" />
      <stop
         id="stop3934"
         offset="1"
         style="stop-color:#3465a4;stop-opacity:1;" />
    </linearGradient>
    <linearGradient
       id="linearGradient3816">
      <stop
         style="stop-color:#c7dfe0;stop-opacity:1;"
         offset="0"
         id="stop3818" />
      <stop
         style="stop-color:#b1efff;stop-opacity:0;"
         offset="1"
         id="stop3820" />
    </linearGradient>
    <linearGradient
       id="linearGradient5878">
      <stop
         style="stop-color:#2f4664;stop-opacity:1;"
         offset="0"
         id="stop5880" />
      <stop
         style="stop-color:#3e5d84;stop-opacity:0;"
         offset="1"
         id="stop5882" />
    </linearGradient>
    <linearGradient
       id="linearGradient5859">
      <stop
         style="stop-color:white;stop-opacity:1;"
         offset="0"
         id="stop5861" />
      <stop
         style="stop-color:white;stop-opacity:0;"
         offset="1"
         id="stop5863" />
    </linearGradient>
    <linearGradient
       id="linearGradient5833">
      <stop
         style="stop-color:#b8c7d9;stop-opacity:1;"
         offset="0"
         id="stop5835" />
      <stop
         id="stop5841"
         offset="0.32142857"
         style="stop-color:#54769c;stop-opacity:1;" />
      <stop
         style="stop-color:#b8c8d9;stop-opacity:1;"
         offset="0.49107143"
         id="stop5843" />
      <stop
         id="stop5845"
         offset="0.69100767"
         style="stop-color:#54769c;stop-opacity:1;" />
      <stop
         style="stop-color:#b8c8d9;stop-opacity:1;"
         offset="1"
         id="stop5837" />
    </linearGradient>
    <radialGradient
       inkscape:collect="always"
       xlink:href="#linearGradient5859"
       id="radialGradient5935"
       gradientUnits="userSpaceOnUse"
       gradientTransform="matrix(1,0,0,0.294574,0,21.30424)"
       cx="24.277332"
       cy="30.200514"
       fx="24.277332"
       fy="30.200514"
       r="7.5283074" />
    <radialGradient
       inkscape:collect="always"
       xlink:href="#linearGradient5859"
       id="radialGradient5937"
       gradientUnits="userSpaceOnUse"
       gradientTransform="matrix(1,0,0,0.294574,0,21.30424)"
       cx="24.277332"
       cy="30.200514"
       fx="24.277332"
       fy="30.200514"
       r="7.5283074" />
    <radialGradient
       inkscape:collect="always"
       xlink:href="#linearGradient5878"
       id="radialGradient5953"
       gradientUnits="userSpaceOnUse"
       gradientTransform="matrix(1.371391,8.050737e-6,4.660546e-6,-0.362632,-3.148428,41.36869)"
       cx="19.998341"
       cy="41.294899"
       fx="19.998341"
       fy="41.294899"
       r="5.4937214" />
    <radialGradient
       inkscape:collect="always"
       xlink:href="#linearGradient5878"
       id="radialGradient5956"
       gradientUnits="userSpaceOnUse"
       gradientTransform="matrix(0.830034,-8.050737e-6,2.820794e-6,0.362632,7.717477,6.189229)"
       cx="19.998341"
       cy="41.294899"
       fx="19.998341"
       fy="41.294899"
       r="5.4937214" />
    <radialGradient
       inkscape:collect="always"
       xlink:href="#linearGradient5833"
       id="radialGradient5963"
       gradientUnits="userSpaceOnUse"
       gradientTransform="matrix(1,0,0,0.572637,0,1.624602)"
       spreadMethod="pad"
       cx="23.401949"
       cy="37.268871"
       fx="23.401949"
       fy="37.268871"
       r="24.405289" />
    <radialGradient
       inkscape:collect="always"
       xlink:href="#linearGradient5859"
       id="radialGradient5966"
       gradientUnits="userSpaceOnUse"
       gradientTransform="matrix(1,0,0,0.294574,0,21.30424)"
       cx="24.277332"
       cy="30.200514"
       fx="24.277332"
       fy="30.200514"
       r="7.5283074" />
    <radialGradient
       inkscape:collect="always"
       xlink:href="#linearGradient5833"
       id="radialGradient5996"
       gradientUnits="userSpaceOnUse"
       gradientTransform="matrix(1,0,0,0.572637,0,1.624602)"
       spreadMethod="pad"
       cx="23.401949"
       cy="37.268871"
       fx="23.401949"
       fy="37.268871"
       r="24.405289" />
    <radialGradient
       inkscape:collect="always"
       xlink:href="#linearGradient5859"
       id="radialGradient6000"
       gradientUnits="userSpaceOnUse"
       gradientTransform="matrix(1,0,0,0.294574,0,21.30424)"
       cx="24.277332"
       cy="30.200514"
       fx="24.277332"
       fy="30.200514"
       r="7.5283074" />
    <radialGradient
       inkscape:collect="always"
       xlink:href="#linearGradient5878"
       id="radialGradient6004"
       gradientUnits="userSpaceOnUse"
       gradientTransform="matrix(0.830034,-8.050737e-6,2.820794e-6,0.362632,7.717477,6.189229)"
       cx="19.998341"
       cy="41.294899"
       fx="19.998341"
       fy="41.294899"
       r="5.4937214" />
    <radialGradient
       inkscape:collect="always"
       xlink:href="#linearGradient5878"
       id="radialGradient6006"
       gradientUnits="userSpaceOnUse"
       gradientTransform="matrix(1.371391,8.050737e-6,4.660546e-6,-0.362632,-3.148428,41.36869)"
       cx="19.998341"
       cy="41.294899"
       fx="19.998341"
       fy="41.294899"
       r="5.4937214" />
    <linearGradient
       inkscape:collect="always"
       xlink:href="#linearGradient3816"
       id="linearGradient3822"
       x1="14.236379"
       y1="19.527243"
       x2="4.5060101"
       y2="19.20072"
       gradientUnits="userSpaceOnUse"
       gradientTransform="translate(0,-6.5957534)" />
    <linearGradient
       inkscape:collect="always"
       xlink:href="#linearGradient3816"
       id="linearGradient3826"
       gradientUnits="userSpaceOnUse"
       x1="14.236379"
       y1="19.527243"
       x2="4.5060101"
       y2="19.20072"
       gradientTransform="translate(9.5344552,-10.579327)" />
    <linearGradient
       inkscape:collect="always"
       xlink:href="#linearGradient3816"
       id="linearGradient3830"
       gradientUnits="userSpaceOnUse"
       gradientTransform="translate(17.240385,-12.538461)"
       x1="14.236379"
       y1="19.527243"
       x2="4.5060101"
       y2="19.20072" />
    <linearGradient
       inkscape:collect="always"
       xlink:href="#linearGradient3816"
       id="linearGradient3840"
       gradientUnits="userSpaceOnUse"
       gradientTransform="translate(17.89343,-4.6366187)"
       x1="12.864985"
       y1="22.204727"
       x2="6.2692313"
       y2="16.457932" />
    <linearGradient
       inkscape:collect="always"
       xlink:href="#linearGradient3816"
       id="linearGradient3842"
       gradientUnits="userSpaceOnUse"
       gradientTransform="translate(25.599359,-6.5957534)"
       x1="14.171074"
       y1="18.155848"
       x2="4.9631414"
       y2="13.258012" />
    <linearGradient
       inkscape:collect="always"
       xlink:href="#linearGradient3816-7"
       id="linearGradient3840-1"
       gradientUnits="userSpaceOnUse"
       gradientTransform="translate(17.89343,-4.6366187)"
       x1="2.0244396"
       y1="27.624998"
       x2="-4.5060091"
       y2="21.35577" />
    <linearGradient
       id="linearGradient3816-7">
      <stop
         style="stop-color:#c7dfe0;stop-opacity:1;"
         offset="0"
         id="stop3818-4" />
      <stop
         style="stop-color:#b1efff;stop-opacity:0;"
         offset="1"
         id="stop3820-0" />
    </linearGradient>
    <linearGradient
       y2="19.20072"
       x2="4.5060101"
       y1="19.527243"
       x1="14.236379"
       gradientTransform="translate(2.08694,-14.893429)"
       gradientUnits="userSpaceOnUse"
       id="linearGradient3859"
       xlink:href="#linearGradient3816-7"
       inkscape:collect="always" />
    <linearGradient
       inkscape:collect="always"
       xlink:href="#linearGradient3816"
       id="linearGradient3885"
       gradientUnits="userSpaceOnUse"
       gradientTransform="translate(29.452324,-2.6774838)"
       x1="6.7916675"
       y1="25.861778"
       x2="3.0693114"
       y2="20.376202" />
    <linearGradient
       inkscape:collect="always"
       xlink:href="#linearGradient3936"
       id="linearGradient3895"
       x1="37.288864"
       y1="19.135418"
       x2="48.064102"
       y2="21.94351"
       gradientUnits="userSpaceOnUse"
       gradientTransform="translate(0,-6.5957534)" />
    <linearGradient
       inkscape:collect="always"
       id="linearGradient3889-8">
      <stop
         style="stop-color:#3465a4;stop-opacity:1;"
         offset="0"
         id="stop3891-8" />
      <stop
         style="stop-color:#3465a4;stop-opacity:0;"
         offset="1"
         id="stop3893-2" />
    </linearGradient>
    <linearGradient
       gradientTransform="translate(-36.442709,-14.175081)"
       y2="21.94351"
       x2="48.064102"
       y1="19.004808"
       x1="36.635818"
       gradientUnits="userSpaceOnUse"
       id="linearGradient3912"
       xlink:href="#linearGradient3889-8"
       inkscape:collect="always" />
    <linearGradient
       inkscape:collect="always"
       xlink:href="#linearGradient3936"
       id="linearGradient3942"
       x1="20.83213"
       y1="29.127005"
       x2="26.709536"
       y2="35.200321"
       gradientUnits="userSpaceOnUse"
       gradientTransform="translate(0,-6.5957534)" />
    <radialGradient
       inkscape:collect="always"
       xlink:href="#linearGradient92579"
       id="radialGradient92585"
       cx="23.901443"
       cy="38.139023"
       fx="23.901443"
       fy="38.139023"
       r="23.70553"
       gradientTransform="matrix(1,0,0,0.41322313,0,22.379096)"
       gradientUnits="userSpaceOnUse" />
    <radialGradient
       inkscape:collect="always"
       xlink:href="#linearGradient92587"
       id="radialGradient92593"
       cx="23.843519"
       cy="22.416834"
       fx="23.843519"
       fy="22.416834"
       r="24.061775"
       gradientTransform="matrix(1.1763381,-0.02021141,0.01154507,0.6719431,-4.554763,10.553502)"
       gradientUnits="userSpaceOnUse" />
  </defs>
  <sodipodi:namedview
     id="base"
     pagecolor="#ffffff"
     bordercolor="#666666"
     borderopacity="1.0"
     inkscape:pageopacity="0.0"
     inkscape:pageshadow="2"
     inkscape:zoom="15.312883"
     inkscape:cx="30.822917"
     inkscape:cy="15.936899"
     inkscape:current-layer="layer1"
     showgrid="true"
     inkscape:grid-bbox="false"
     inkscape:document-units="px"
     inkscape:object-paths="false"
     inkscape:window-width="2560"
     inkscape:window-height="1496"
     inkscape:window-x="-8"
     inkscape:window-y="-8"
     inkscape:window-maximized="1" />
  <metadata
     id="metadata5743">
    <rdf:RDF>
      <cc:Work
         rdf:about="">
        <dc:format>image/svg+xml</dc:format>
        <dc:type
           rdf:resource="http://purl.org/dc/dcmitype/StillImage" />
        <dc:title></dc:title>
      </cc:Work>
    </rdf:RDF>
  </metadata>
  <g
     id="layer1"
     inkscape:label="Layer 1"
     inkscape:groupmode="layer">
    <path
       sodipodi:type="arc"
       style="color:#000000;fill:url(#radialGradient92585);fill-opacity:1;fill-rule:nonzero;stroke:none;stroke-width:0.75;marker:none;visibility:visible;display:inline;overflow:visible;enable-background:accumulate"
       id="path92577"
       sodipodi:cx="23.901443"
       sodipodi:cy="38.139023"
       sodipodi:rx="23.70553"
       sodipodi:ry="9.7956734"
       d="m 47.606974,38.139023 a 23.70553,9.7956734 0 1 1 -47.41106069,0 23.70553,9.7956734 0 1 1 47.41106069,0 z"
       transform="matrix(1,0,0,1.3966667,0,-19.014096)" />
    <path
       style="color:#000000;fill:url(#radialGradient92593);stroke:#204a87;stroke-width:0.75000000000000000;stroke-linecap:butt;stroke-linejoin:round;stroke-miterlimit:4;stroke-opacity:1;stroke-dasharray:none;stroke-dashoffset:0;marker:none;visibility:visible;display:inline;overflow:visible;enable-background:accumulate;fill-opacity:1"
       d="m 0.39182694,15.543669 0,14.69351 23.11033206,13.434722 24.263218,-14.104928 0,-14.480435 z"
       id="path92050"
       inkscape:connector-curvature="0" />
    <path
       style="fill:#204a87;stroke:none;stroke-width:1px;stroke-linecap:butt;stroke-linejoin:miter;stroke-opacity:1;fill-opacity:0.26804122"
       d="m 23.509616,43.298077 0,-27.49319 24.162661,-0.130609 -0.261218,13.713943 z"
       id="path92595"
       inkscape:connector-curvature="0" />
    <path
       inkscape:connector-curvature="0"
       sodipodi:nodetypes="ccccccccccccc"
       d="m 24.379455,2.2554932 c 2.072726,1.7941334 5.096971,1.8807244 6.685572,1.2542324 2.846817,4.763699 5.617333,6.309765 11.403728,4.354608 1.127752,4.3200704 1.752299,6.3316464 5.662797,7.3472044 -2.223908,1.618574 -4.448494,3.245967 -6.332519,0.446065 -3.325666,5.707314 -3.850926,9.686608 -11.527858,7.645103 -0.880552,4.739901 -3.854457,7.766857 -6.489894,10.069928 -2.561581,0.03543 -6.146479,-3.230892 -7.581185,-7.811 C 11.210919,26.02062 6.8716912,21.447894 6.049187,16.053733 L 0.32097436,15.626434 C 3.6192117,13.297278 6.675165,10.888482 7.1482927,7.6306876 c 5.1631393,2.3837704 7.7811193,1.525971 9.5652453,-3.327024 1.771652,1.380197 6.024874,-0.179627 7.665917,-2.0481704 z"
       style="fill:#729fcf;stroke:none"
       id="path3944" />
    <path
       style="fill:url(#linearGradient3822);fill-opacity:1;stroke:none"
       d="M 0.19591346,15.608974 C 3.6401015,13.669478 6.4413897,11.287989 7.1181891,7.4459136 8.9031783,11.538329 12.56023,13.018563 15.346555,11.886619 14.65305,15.467452 11.415509,19.238521 6.2692308,16.196715 z"
       id="path3814"
       inkscape:connector-curvature="0"
       sodipodi:nodetypes="ccccc" />
    <path
       sodipodi:nodetypes="ccccc"
       inkscape:connector-curvature="0"
       id="path3824"
       d="m 7.510016,7.6418256 c 4.031929,2.8277324 8.269915,0.772766 9.142628,-3.265223 2.24212,5.137287 7.662394,3.874732 10.448719,2.546875 C 25.232377,11.483878 20.558137,13.883553 15.607773,11.625401 12.363625,13.571233 7.8856887,10.69474 7.510016,7.6418256 z"
       style="fill:url(#linearGradient3826);fill-opacity:1;stroke:none" />
    <path
       style="fill:url(#linearGradient3830);fill-opacity:1;stroke:none"
       d="m 16.913863,4.3112966 c 2.138099,1.19512 5.788344,-0.141497 7.444711,-1.8938286 1.327857,1.2843216 4.135952,1.9155966 6.726363,1.2407846 -0.366983,3.189006 -2.102521,4.609114 -4.048878,2.938702 -4.484933,2.925399 -9.420002,1.354996 -10.122196,-2.285658 z"
       id="path3828"
       inkscape:connector-curvature="0"
       sodipodi:nodetypes="ccccc" />
    <path
       sodipodi:nodetypes="ccccc"
       inkscape:connector-curvature="0"
       id="path3832"
       d="m 6.1386218,16.262019 c 5.7951502,2.762427 8.6617422,-0.01089 9.3385412,-4.636618 1.654381,4.157719 6.290999,6.944043 9.077324,5.812099 -0.04046,5.539968 -3.604523,7.678425 -8.29367,8.032452 -5.9695,0.414413 -9.3273544,-4.793187 -10.1221952,-9.207933 z"
       style="color:#000000;fill:url(#linearGradient3840-1);fill-opacity:1;fill-rule:nonzero;stroke:none;stroke-width:0.1;marker:none;visibility:visible;display:inline;overflow:visible;enable-background:accumulate" />
    <path
       style="fill:url(#linearGradient3840);fill-opacity:1;stroke:none"
       d="m 15.673077,11.560095 c 4.031929,2.827732 10.490267,-0.598628 11.36298,-4.6366174 2.046207,4.0924154 6.748131,6.4869114 9.534456,5.1590544 -1.333466,5.879574 -8.019854,8.944584 -11.950721,5.485577 -2.721712,0.509133 -7.395562,-1.453097 -8.946715,-6.008014 z"
       id="path3834"
       inkscape:connector-curvature="0"
       sodipodi:nodetypes="ccccc" />
    <path
       sodipodi:nodetypes="ccccc"
       inkscape:connector-curvature="0"
       id="path3836"
       d="m 26.970754,6.9234756 c 2.340384,1.31312 4.188468,-0.802655 4.179486,-3.52644 2.324835,5.123143 5.977192,6.529964 11.558895,4.179486 -0.366983,3.1890064 -3.604524,6.8294664 -6.138621,4.5713144 -3.635975,1.4887 -8.048608,-1.779619 -9.59976,-5.2243604 z"
       style="fill:url(#linearGradient3842);fill-opacity:1;stroke:none" />
    <path
       sodipodi:nodetypes="ccccc"
       inkscape:connector-curvature="0"
       id="path3877"
       d="m 16.064903,25.469951 c 4.038822,-0.118976 8.171494,-1.550239 8.489584,-7.901842 0.217681,3.569979 2.829862,6.095085 5.746795,5.550881 -0.6282,4.233878 -2.951478,7.482511 -6.465145,10.514023 -2.454768,-0.58436 -7.134168,-4.171034 -7.771234,-8.163062 z"
       style="color:#000000;fill:url(#linearGradient3942);fill-opacity:1;fill-rule:nonzero;stroke:none;stroke-width:0.1;marker:none;visibility:visible;display:inline;overflow:visible;enable-background:accumulate" />
    <path
       style="fill:url(#linearGradient3885);fill-opacity:1;stroke:none"
       d="m 24.619792,17.502804 c 4.48906,3.611385 11.273921,-0.337411 11.950721,-5.224358 0.740117,2.198585 3.221689,3.940036 5.22436,3.461138 -1.803682,3.84205 -4.257569,10.355908 -11.428286,7.314102 -2.525798,0.900961 -5.371123,-1.64901 -5.746795,-5.550882 z"
       id="path3879"
       inkscape:connector-curvature="0"
       sodipodi:nodetypes="ccccc" />
    <path
       sodipodi:nodetypes="ccccc"
       inkscape:connector-curvature="0"
       id="path3881"
       d="m 36.505209,12.343749 c 3.182971,1.652251 5.72304,-1.382282 6.334535,-4.7019214 0.02177,4.0924144 2.372731,7.2705644 5.420273,7.5100154 -2.195508,1.948221 -3.996351,3.368329 -6.530448,0.653045 -2.199276,0.378524 -4.456861,-0.800052 -5.22436,-3.461139 z"
       style="fill:url(#linearGradient3895);fill-opacity:1;stroke:none" />
    <path
       style="opacity:0.5;fill:none;stroke:#204a87;stroke-width:0.5;stroke-linecap:butt;stroke-linejoin:miter;stroke-miterlimit:4;stroke-opacity:1;stroke-dasharray:none"
       d="m 30.301281,23.11899 c -2.49455,0.686671 -6.045329,-1.556137 -5.779807,-5.524427 -4.349985,0.92944 -8.136217,-3.833825 -9.17492,-5.77325 -3.330918,1.260458 -6.3685711,0.08448 -8.3589741,-4.0488774"
       id="path3808"
       inkscape:connector-curvature="0"
       sodipodi:nodetypes="cccc" />
    <path
       sodipodi:nodetypes="cccc"
       inkscape:connector-curvature="0"
       id="path3804"
       d="M 41.794871,15.674279 C 39.300321,16.36095 36.729109,13.987533 36.472195,12.3049 30.81612,13.364949 27.944151,8.9935106 26.905448,7.0540856 c -4.767617,1.652285 -8.262401,1.978313 -10.252804,-3.06931"
       style="opacity:0.5;fill:none;stroke:#204a87;stroke-width:0.5;stroke-linecap:butt;stroke-linejoin:miter;stroke-miterlimit:4;stroke-opacity:1;stroke-dasharray:none" />
    <path
       sodipodi:nodetypes="cccc"
       inkscape:connector-curvature="0"
       id="path3812"
       d="m 16.130208,25.404647 c 5.302643,-0.09698 7.80855,-2.862227 8.391987,-7.679476 5.851988,3.280402 10.22596,-0.829818 12.178926,-5.316118 3.004396,1.064544 5.323699,-1.22161 5.812099,-4.7019224"
       style="opacity:0.5;fill:none;stroke:#204a87;stroke-width:0.5;stroke-linecap:butt;stroke-linejoin:miter;stroke-miterlimit:4;stroke-opacity:1;stroke-dasharray:none" />
    <path
       style="opacity:0.5;fill:none;stroke:#204a87;stroke-width:0.5;stroke-linecap:butt;stroke-linejoin:miter;stroke-miterlimit:4;stroke-opacity:1;stroke-dasharray:none"
       d="m 6.3998392,16.000801 c 3.4088128,2.776414 8.2003768,0.860129 9.0450318,-4.153033 4.872421,1.843703 9.507611,0.08444 11.591186,-4.9242924 2.351351,1.12985 3.887,-1.156302 3.852964,-3.265223"
       id="path3810"
       inkscape:connector-curvature="0"
       sodipodi:nodetypes="cccc" />
    <path
       id="path5806"
       style="fill:none;stroke:#204a87;stroke-width:0.75;stroke-linecap:butt;stroke-linejoin:round;stroke-miterlimit:4;stroke-opacity:1;stroke-dasharray:none"
       d="m 24.510064,2.1901891 c 2.072726,1.7941325 5.096971,1.8807235 6.685572,1.2542315 2.846817,4.763699 5.617333,6.309765 11.403728,4.354608 1.127752,4.3200704 1.752299,6.3316464 5.662797,7.3472044 -2.223908,1.618574 -4.448494,3.245967 -6.332519,0.446065 -3.325666,5.707314 -3.850926,9.686608 -11.527858,7.645103 -0.880552,4.739901 -3.854457,7.766857 -6.489894,10.069928 -2.561581,0.03543 -6.146479,-3.230892 -7.581185,-7.811 -4.989177,0.458986 -9.3284047,-4.11374 -10.1509087,-9.507901 L 0.45158334,15.561129 C 3.7498203,13.231973 6.8057743,10.823177 7.2789013,7.5653826 c 5.1631397,2.38377 7.7811197,1.525971 9.5652457,-3.327024 1.771652,1.380197 6.024874,-0.179627 7.665917,-2.0481695 z"
       sodipodi:nodetypes="ccccccccccccc"
       inkscape:connector-curvature="0" />
  </g>
</svg>
