<?xml version="1.0" encoding="UTF-8" standalone="no"?>
<svg
   xmlns:dc="http://purl.org/dc/elements/1.1/"
   xmlns:cc="http://creativecommons.org/ns#"
   xmlns:rdf="http://www.w3.org/1999/02/22-rdf-syntax-ns#"
   xmlns:svg="http://www.w3.org/2000/svg"
   xmlns="http://www.w3.org/2000/svg"
   xmlns:xlink="http://www.w3.org/1999/xlink"
   xmlns:sodipodi="http://sodipodi.sourceforge.net/DTD/sodipodi-0.dtd"
   xmlns:inkscape="http://www.inkscape.org/namespaces/inkscape"
   width="48.0px"
   height="48.0px"
   viewBox="0 0 48.0 48.0"
   version="1.1"
   id="SVGRoot"
   sodipodi:docname="onlyonce.svg"
   inkscape:version="1.0.1 (3bc2e813f5, 2020-09-07)">
  <defs
     id="defs65794">
    <linearGradient
       inkscape:collect="always"
       id="linearGradient66433">
      <stop
         style="stop-color:#fefbe5;stop-opacity:1"
         offset="0"
         id="stop66429" />
      <stop
         style="stop-color:#fbcc00;stop-opacity:1"
         offset="1"
         id="stop66431" />
    </linearGradient>
    <linearGradient
       inkscape:collect="always"
       id="linearGradient66400">
      <stop
         style="stop-color:#dd0000;stop-opacity:1"
         offset="0"
         id="stop66396" />
      <stop
         style="stop-color:#510000;stop-opacity:1"
         offset="1"
         id="stop66398" />
    </linearGradient>
    <linearGradient
       inkscape:collect="always"
       xlink:href="#linearGradient66400"
       id="linearGradient66402"
       x1="37.544643"
       y1="2.1875"
       x2="33.392857"
       y2="39.285713"
       gradientUnits="userSpaceOnUse" />
    <linearGradient
       inkscape:collect="always"
       xlink:href="#linearGradient66400"
       id="linearGradient66402-7"
       x1="37.544643"
       y1="2.1875"
       x2="33.392857"
       y2="39.285713"
       gradientUnits="userSpaceOnUse"
       gradientTransform="translate(-24.375,-0.08928571)" />
    <linearGradient
       inkscape:collect="always"
       xlink:href="#linearGradient66400"
       id="linearGradient66427"
       gradientUnits="userSpaceOnUse"
       x1="20"
       y1="6.4285717"
       x2="23.883928"
       y2="16.339285" />
    <radialGradient
       inkscape:collect="always"
       xlink:href="#linearGradient66433"
       id="radialGradient66435"
       cx="13.346569"
       cy="11.112636"
       fx="13.346569"
       fy="11.112636"
       r="7.5504634"
       gradientTransform="matrix(1,0,0,1.4972721,0,-5.5183811)"
       gradientUnits="userSpaceOnUse" />
  </defs>
  <sodipodi:namedview
     id="base"
     pagecolor="#ffffff"
     bordercolor="#666666"
     borderopacity="1.0"
     inkscape:pageopacity="0.0"
     inkscape:pageshadow="2"
     inkscape:zoom="22.4"
     inkscape:cx="16.185935"
     inkscape:cy="24.510673"
     inkscape:document-units="px"
     inkscape:current-layer="layer1"
     inkscape:document-rotation="0"
     showgrid="true"
     inkscape:window-width="2560"
     inkscape:window-height="1377"
     inkscape:window-x="-8"
     inkscape:window-y="-8"
     inkscape:window-maximized="1"
     inkscape:snap-global="false">
    <inkscape:grid
       type="xygrid"
       id="grid66364" />
  </sodipodi:namedview>
  <metadata
     id="metadata65797">
    <rdf:RDF>
      <cc:Work
         rdf:about="">
        <dc:format>image/svg+xml</dc:format>
        <dc:type
           rdf:resource="http://purl.org/dc/dcmitype/StillImage" />
        <dc:title></dc:title>
      </cc:Work>
    </rdf:RDF>
  </metadata>
  <g
     inkscape:label="Layer 1"
     inkscape:groupmode="layer"
     id="layer1">
    <path
       style="fill:url(#linearGradient66402);fill-rule:evenodd;stroke:none;stroke-width:1px;stroke-linecap:butt;stroke-linejoin:miter;stroke-opacity:1;fill-opacity:1"
       d="M 37.276786,0.08928571 40.714286,9.0625 33.750001,39.419643 24.375,39.375 Z"
       id="path66386"
       sodipodi:nodetypes="ccccc" />
    <path
       style="fill:url(#linearGradient66427);fill-opacity:1;fill-rule:evenodd;stroke:none;stroke-width:1px;stroke-linecap:butt;stroke-linejoin:miter;stroke-opacity:1;font-variation-settings:normal;opacity:1;vector-effect:none;stroke-miterlimit:4;stroke-dasharray:none;stroke-dashoffset:0;stop-color:#000000;stop-opacity:1"
       d="m 15.536578,9.834493 7.471539,6.246602 3.121244,0.08929 1.878399,-6.9162451 z"
       id="path66394"
       sodipodi:nodetypes="ccccc" />
    <g
       aria-label="1"
       id="text66373"
       style="font-style:italic;font-variant:normal;font-weight:normal;font-stretch:normal;font-size:40px;line-height:125%;font-family:Georgia;-inkscape-font-specification:'Georgia, Italic';font-variant-ligatures:normal;font-variant-caps:normal;font-variant-numeric:normal;font-variant-east-asian:normal;letter-spacing:0px;word-spacing:0px;fill:url(#radialGradient66435);fill-opacity:1;stroke:#f57900;stroke-width:1.02816456;stroke-linecap:butt;stroke-linejoin:miter;stroke-opacity:1;stroke-miterlimit:4;stroke-dasharray:none"
       transform="matrix(1.9452139,0,0,1.9452139,1.8402909,0.44907319)">
      <path
         d="m 17.557024,0.30629158 q -0.410156,1.46484372 -0.898437,3.35937502 -0.488282,1.875 -0.664063,2.65625 L 13.299212,18.001604 q -0.03906,0.15625 -0.05859,0.332031 -0.01953,0.175782 -0.01953,0.332032 0,0.507812 0.234375,0.859375 0.234375,0.332031 0.566406,0.488281 0.390625,0.195312 1.484375,0.371094 1.09375,0.175781 1.757812,0.214843 l -0.3125,1.289063 H 3.787493 l 0.3125,-1.289063 Q 4.7054617,20.5602 5.9554617,20.44301 7.224993,20.306292 7.7328055,20.169573 8.2601492,20.013323 8.7679617,19.485979 9.2757742,18.939104 9.4320242,18.216448 L 12.635149,4.3101978 H 7.771868 L 8.1234305,2.7672291 h 1.0742187 q 2.0312498,0 3.8085938,-0.6835938 1.777344,-0.703125 2.929687,-1.77734372 z"
         id="path66375"
         style="fill:url(#radialGradient66435);stroke:#f57900;stroke-width:1.02816456;stroke-miterlimit:4;stroke-dasharray:none;fill-opacity:1;stroke-opacity:1" />
    </g>
    <path
       style="fill:#6b0000;fill-rule:evenodd;stroke:none;stroke-width:1px;stroke-linecap:butt;stroke-linejoin:miter;stroke-opacity:1;fill-opacity:1"
       d="m 8.0812204,43.941636 7.8286826,4.103745 h 23.612315 l -4.103744,-4.103745 z"
       id="path66382" />
    <path
       style="fill:#a40000;fill-rule:evenodd;stroke:none;stroke-width:1px;stroke-linecap:butt;stroke-linejoin:miter;stroke-opacity:1"
       d="m 36.61037,39.685471 3.543194,6.150201 -0.757615,2.209709 -3.985135,-4.059102 z"
       id="path66384"
       sodipodi:nodetypes="ccccc" />
    <g
       aria-label="1"
       id="g66390"
       style="font-style:italic;font-variant:normal;font-weight:normal;font-stretch:normal;font-size:40px;line-height:125%;font-family:Georgia;-inkscape-font-specification:'Georgia, Italic';font-variant-ligatures:normal;font-variant-caps:normal;font-variant-numeric:normal;font-variant-east-asian:normal;letter-spacing:0px;word-spacing:0px;fill:none;fill-opacity:1;stroke:#ffffff;stroke-width:0.51408228;stroke-linecap:butt;stroke-linejoin:miter;stroke-opacity:1;stroke-miterlimit:4;stroke-dasharray:none"
       transform="matrix(1.9452139,0,0,1.9452139,1.8402909,0.44907319)">
      <path
         id="path66388"
         style="fill:none;stroke:#ffffff;stroke-width:0.514082;stroke-miterlimit:4;stroke-dasharray:none"
         d="M 16.042969,0.63671875 C 15.256423,1.3425741 14.290307,1.930397 13.126953,2.390625 c -6.64e-4,6.528e-4 -0.0013,0.0013 -0.002,0.00195 -1.224166,0.4708544 -2.536498,0.7050812 -3.9276874,0.7050812 H 8.3867188 L 8.1855469,3.9804688 H 13.047868 L 9.7539062,18.287109 c -0.1161399,0.537148 -0.3677598,1.018496 -0.7441406,1.423829 -0.00129,0.0013 -0.0026,0.0026 -0.00391,0.0039 -0.3668385,0.380948 -0.7588261,0.646784 -1.1796875,0.771484 -0.0026,6.98e-4 -0.0052,0.0014 -0.00781,0.002 -0.3785425,0.101916 -0.9747841,0.191306 -1.828125,0.283203 -0.0013,8e-6 -0.00261,8e-6 -0.00391,0 -0.7264336,0.0681 -1.2186177,0.107856 -1.6230469,0.136719 l -0.15625,0.650391 H 16.691406 l 0.164063,-0.675782 c -0.406528,-0.03687 -0.826257,-0.07933 -1.402344,-0.171915 -0.740054,-0.118938 -1.240977,-0.233506 -1.576172,-0.400391 -0.274129,-0.129873 -0.507731,-0.335497 -0.691406,-0.595703 -0.002,-0.0019 -0.004,-0.0039 -0.0059,-0.0059 -0.196932,-0.295399 -0.289063,-0.653653 -0.289063,-1.042968 0,-0.11792 0.0073,-0.241288 0.02148,-0.369141 0.01427,-0.128433 0.03523,-0.25104 0.06445,-0.369141 l 0.002,-0.0059 L 15.671875,6.25 V 6.24805 c 0.119118,-0.5292778 0.340704,-1.4148191 0.666016,-2.6640625 v -0.00195 c 0.285135,-1.1062848 0.543533,-2.0574468 0.789062,-2.94531245 z"
         sodipodi:nodetypes="cccsccccccccccccccscccsccccccccc" />
    </g>
  </g>
</svg>
