<?xml version="1.0" encoding="UTF-8" standalone="no"?>
<!-- Created with Inkscape (http://www.inkscape.org/) -->

<svg
   xmlns:ns0="&amp;#38;#38;ns_ai;"
   xmlns:a="http://ns.adobe.com/AdobeSVGViewerExtensions/3.0/"
   xmlns:dc="http://purl.org/dc/elements/1.1/"
   xmlns:cc="http://creativecommons.org/ns#"
   xmlns:rdf="http://www.w3.org/1999/02/22-rdf-syntax-ns#"
   xmlns:svg="http://www.w3.org/2000/svg"
   xmlns="http://www.w3.org/2000/svg"
   xmlns:xlink="http://www.w3.org/1999/xlink"
   xmlns:sodipodi="http://sodipodi.sourceforge.net/DTD/sodipodi-0.dtd"
   xmlns:inkscape="http://www.inkscape.org/namespaces/inkscape"
   width="48px"
   height="48px"
   id="svg7511"
   version="1.1"
   inkscape:version="0.48.4 r9939"
   sodipodi:docname="popwrangle.svg">
  <defs
     id="defs7513">
    <linearGradient
       id="linearGradient8408">
      <stop
         style="stop-color:#dbb718;stop-opacity:1;"
         offset="0"
         id="stop8410" />
      <stop
         style="stop-color:#9e830c;stop-opacity:1;"
         offset="1"
         id="stop8412" />
    </linearGradient>
    <linearGradient
       id="linearGradient8400">
      <stop
         style="stop-color:#ffffff;stop-opacity:1;"
         offset="0"
         id="stop8402" />
      <stop
         style="stop-color:#c4c4be;stop-opacity:1;"
         offset="1"
         id="stop8404" />
    </linearGradient>
    <linearGradient
       id="linearGradient8390">
      <stop
         style="stop-color:#888a85;stop-opacity:1;"
         offset="0"
         id="stop8392" />
      <stop
         style="stop-color:#5c5e5a;stop-opacity:1;"
         offset="1"
         id="stop8394" />
    </linearGradient>
    <linearGradient
       id="linearGradient8367">
      <stop
         style="stop-color:#4f595c;stop-opacity:1;"
         offset="0"
         id="stop8369" />
      <stop
         id="stop8375"
         offset="0.21371238"
         style="stop-color:#6c7a7e;stop-opacity:1;" />
      <stop
         style="stop-color:#232829;stop-opacity:1"
         offset="1"
         id="stop8371" />
    </linearGradient>
    <linearGradient
       inkscape:collect="always"
       id="linearGradient8349">
      <stop
         style="stop-color:#c4a000;stop-opacity:1;"
         offset="0"
         id="stop8351" />
      <stop
         style="stop-color:#c4a000;stop-opacity:0;"
         offset="1"
         id="stop8353" />
    </linearGradient>
    <radialGradient
       inkscape:collect="always"
       xlink:href="#linearGradient8349"
       id="radialGradient8355"
       cx="22.847643"
       cy="8.3079605"
       fx="22.847643"
       fy="8.3079605"
       r="5.2556424"
       gradientTransform="matrix(1.6224555,0.05080385,-0.04110298,0.43480224,-13.880159,3.0689266)"
       gradientUnits="userSpaceOnUse" />
    <radialGradient
       inkscape:collect="always"
       xlink:href="#linearGradient8349"
       id="radialGradient8357"
       cx="22.648104"
       cy="8.2414837"
       fx="22.648104"
       fy="8.2414837"
       r="5.2556424"
       gradientTransform="matrix(1.4726685,-0.01806093,0.16011993,0.62689572,-12.02467,3.0572315)"
       gradientUnits="userSpaceOnUse" />
    <linearGradient
       inkscape:collect="always"
       xlink:href="#linearGradient8367"
       id="linearGradient8373"
       x1="13.086551"
       y1="21.735846"
       x2="28.683256"
       y2="17.695236"
       gradientUnits="userSpaceOnUse"
       gradientTransform="matrix(1.0034428,-0.27352386,0.27352386,1.0034428,-6.95931,5.9225948)" />
    <linearGradient
       inkscape:collect="always"
       xlink:href="#linearGradient8390"
       id="linearGradient8396"
       x1="11.523636"
       y1="6.6066289"
       x2="24.842701"
       y2="19.486074"
       gradientUnits="userSpaceOnUse"
       gradientTransform="matrix(1.0034428,-0.27352386,0.27352386,1.0034428,-6.95931,5.9225948)" />
    <radialGradient
       inkscape:collect="always"
       xlink:href="#linearGradient8400"
       id="radialGradient8406"
       cx="16.061848"
       cy="12.38868"
       fx="16.061848"
       fy="12.38868"
       r="7.265625"
       gradientTransform="matrix(1.0034428,-0.27352386,0.30469973,1.1178137,-7.393597,4.3293809)"
       gradientUnits="userSpaceOnUse" />
    <linearGradient
       inkscape:collect="always"
       xlink:href="#linearGradient8408"
       id="linearGradient8414"
       x1="-0.0060398073"
       y1="25.303881"
       x2="48.17985"
       y2="25.303881"
       gradientUnits="userSpaceOnUse"
       gradientTransform="matrix(1.0034428,-0.27352386,0.27352386,1.0034428,-6.95931,5.9225948)" />
    <linearGradient
       id="linearGradient2911">
      <stop
         style="stop-color:white;stop-opacity:1;"
         offset="0"
         id="stop2913" />
      <stop
         style="stop-color:#8e8e8e;stop-opacity:1;"
         offset="1"
         id="stop2915" />
    </linearGradient>
    <radialGradient
       inkscape:collect="always"
       xlink:href="#linearGradient2911"
       id="radialGradient9296"
       gradientUnits="userSpaceOnUse"
       cx="3.2992275"
       cy="3.4160771"
       fx="3.2992275"
       fy="3.4160771"
       r="2.7505229" />
    <radialGradient
       inkscape:collect="always"
       xlink:href="#XMLID_703_"
       id="radialGradient22390"
       gradientUnits="userSpaceOnUse"
       gradientTransform="matrix(-1,0,0,1,55.3594,0)"
       cx="40.541"
       cy="486.09329"
       fx="40.541"
       fy="486.09329"
       r="2.8687" />
    <radialGradient
       gradientUnits="userSpaceOnUse"
       gradientTransform="matrix(-1,0,0,1,55.3594,0)"
       fy="486.09329"
       fx="40.541"
       r="2.8687"
       cy="486.09329"
       cx="40.541"
       id="XMLID_703_">
      <stop
         id="stop9959"
         style="stop-color:#FFFFFF"
         offset="0" />
      <stop
         id="stop9961"
         style="stop-color:#FDFDFE"
         offset="0.0038" />
      <stop
         id="stop9963"
         style="stop-color:#C7D5E5"
         offset="0.1073" />
      <stop
         id="stop9965"
         style="stop-color:#98B3CF"
         offset="0.2118" />
      <stop
         id="stop9967"
         style="stop-color:#7297BD"
         offset="0.3151" />
      <stop
         id="stop9969"
         style="stop-color:#5481B0"
         offset="0.4171" />
      <stop
         id="stop9971"
         style="stop-color:#3F72A6"
         offset="0.5174" />
      <stop
         id="stop9973"
         style="stop-color:#3268A0"
         offset="0.6153" />
      <stop
         id="stop9975"
         style="stop-color:#2E659E"
         offset="0.7079" />
      <stop
         id="stop9977"
         style="stop-color:#193766"
         offset="1" />
      <a:midPointStop
         style="stop-color:#FFFFFF"
         offset="0" />
      <a:midPointStop
         style="stop-color:#FFFFFF"
         offset="0.304" />
      <a:midPointStop
         style="stop-color:#2E659E"
         offset="0.7079" />
      <a:midPointStop
         style="stop-color:#2E659E"
         offset="0.5" />
      <a:midPointStop
         style="stop-color:#193766"
         offset="1" />
    </radialGradient>
    <radialGradient
       inkscape:collect="always"
       xlink:href="#XMLID_704_"
       id="radialGradient22392"
       gradientUnits="userSpaceOnUse"
       cx="14.3105"
       cy="485.4155"
       fx="14.3105"
       fy="485.4155"
       r="4.0651002" />
    <radialGradient
       gradientUnits="userSpaceOnUse"
       fy="485.4155"
       fx="14.3105"
       r="4.0651002"
       cy="485.4155"
       cx="14.3105"
       id="XMLID_704_">
      <stop
         id="stop9984"
         style="stop-color:#FFFFFF"
         offset="0" />
      <stop
         id="stop9986"
         style="stop-color:#2E659E"
         offset="0.6854" />
      <stop
         id="stop9988"
         style="stop-color:#1D3E63"
         offset="1" />
      <a:midPointStop
         style="stop-color:#FFFFFF"
         offset="0" />
      <a:midPointStop
         style="stop-color:#FFFFFF"
         offset="0.5" />
      <a:midPointStop
         style="stop-color:#2E659E"
         offset="0.6854" />
      <a:midPointStop
         style="stop-color:#2E659E"
         offset="0.5" />
      <a:midPointStop
         style="stop-color:#1D3E63"
         offset="1" />
    </radialGradient>
    <linearGradient
       inkscape:collect="always"
       xlink:href="#linearGradient23188"
       id="linearGradient23218"
       gradientUnits="userSpaceOnUse"
       x1="10.606602"
       y1="22.485231"
       x2="20.977501"
       y2="35.566708" />
    <linearGradient
       inkscape:collect="always"
       id="linearGradient23188">
      <stop
         style="stop-color:#204a87;stop-opacity:1;"
         offset="0"
         id="stop23190" />
      <stop
         style="stop-color:#204a87;stop-opacity:0;"
         offset="1"
         id="stop23192" />
    </linearGradient>
    <linearGradient
       inkscape:collect="always"
       xlink:href="#linearGradient23200"
       id="linearGradient23220"
       gradientUnits="userSpaceOnUse"
       x1="11.079597"
       y1="24.189341"
       x2="16.99914"
       y2="32.910324" />
    <linearGradient
       id="linearGradient23200">
      <stop
         style="stop-color:#bed3e9;stop-opacity:1;"
         offset="0"
         id="stop23202" />
      <stop
         style="stop-color:#729fcf;stop-opacity:0;"
         offset="1"
         id="stop23204" />
    </linearGradient>
    <linearGradient
       inkscape:collect="always"
       xlink:href="#linearGradient9073"
       id="linearGradient9071"
       gradientUnits="userSpaceOnUse"
       x1="29.123692"
       y1="38.897343"
       x2="27.355925"
       y2="34.879128"
       gradientTransform="matrix(0.916817,-0.399307,0.399307,0.916817,-60.313171,6.0460233)" />
    <linearGradient
       id="linearGradient9073">
      <stop
         id="stop9075"
         offset="0"
         style="stop-color:#74726e;stop-opacity:1;" />
      <stop
         id="stop9077"
         offset="1"
         style="stop-color:#5d5b58;stop-opacity:0;" />
    </linearGradient>
    <linearGradient
       gradientTransform="translate(-56.232769,-1.9263214)"
       inkscape:collect="always"
       xlink:href="#linearGradient9061"
       id="linearGradient9067"
       x1="29.123692"
       y1="38.897343"
       x2="27.355925"
       y2="34.879128"
       gradientUnits="userSpaceOnUse" />
    <linearGradient
       inkscape:collect="always"
       id="linearGradient9061">
      <stop
         style="stop-color:#5d5b58;stop-opacity:1;"
         offset="0"
         id="stop9063" />
      <stop
         style="stop-color:#5d5b58;stop-opacity:0;"
         offset="1"
         id="stop9065" />
    </linearGradient>
    <linearGradient
       inkscape:collect="always"
       xlink:href="#linearGradient6538"
       id="linearGradient9023"
       gradientUnits="userSpaceOnUse"
       x1="286.41476"
       y1="-435.78354"
       x2="288.375"
       y2="-437.8876" />
    <linearGradient
       inkscape:collect="always"
       id="linearGradient6538">
      <stop
         style="stop-color:#ffffff;stop-opacity:1;"
         offset="0"
         id="stop6540" />
      <stop
         style="stop-color:#ffffff;stop-opacity:0;"
         offset="1"
         id="stop6542" />
    </linearGradient>
    <linearGradient
       inkscape:collect="always"
       xlink:href="#linearGradient6513"
       id="linearGradient8097"
       gradientUnits="userSpaceOnUse"
       x1="287.14722"
       y1="-434.80862"
       x2="289.4725"
       y2="-437.59375" />
    <linearGradient
       inkscape:collect="always"
       id="linearGradient6513">
      <stop
         style="stop-color:#ffffff;stop-opacity:1;"
         offset="0"
         id="stop6515" />
      <stop
         style="stop-color:#ffffff;stop-opacity:0;"
         offset="1"
         id="stop6517" />
    </linearGradient>
    <linearGradient
       y2="-437.59375"
       x2="289.4725"
       y1="-434.80862"
       x1="287.14722"
       gradientUnits="userSpaceOnUse"
       id="linearGradient4980"
       xlink:href="#linearGradient6513"
       inkscape:collect="always" />
  </defs>
  <sodipodi:namedview
     id="base"
     pagecolor="#ffffff"
     bordercolor="#666666"
     borderopacity="1.0"
     inkscape:pageopacity="0.0"
     inkscape:pageshadow="2"
     inkscape:zoom="19.79899"
     inkscape:cx="8.6961893"
     inkscape:cy="22.356399"
     inkscape:current-layer="layer1"
     showgrid="true"
     inkscape:grid-bbox="true"
     inkscape:document-units="px"
     inkscape:window-width="2560"
     inkscape:window-height="1496"
     inkscape:window-x="-8"
     inkscape:window-y="-8"
     inkscape:window-maximized="1" />
  <metadata
     id="metadata7516">
    <rdf:RDF>
      <cc:Work
         rdf:about="">
        <dc:format>image/svg+xml</dc:format>
        <dc:type
           rdf:resource="http://purl.org/dc/dcmitype/StillImage" />
        <dc:title></dc:title>
      </cc:Work>
    </rdf:RDF>
  </metadata>
  <g
     id="layer1"
     inkscape:label="Layer 1"
     inkscape:groupmode="layer">
    <path
       style="color:#000000;fill:#e4cc09;fill-opacity:1;stroke:#897100;stroke-width:1.04005432;stroke-linecap:butt;stroke-linejoin:miter;stroke-miterlimit:4;stroke-opacity:1;stroke-dasharray:none;stroke-dashoffset:0;marker:none;visibility:visible;display:inline;overflow:visible;enable-background:accumulate"
       d="m 13.204153,26.362383 c 0,0 -3.078822,-11.092608 -4.080096,-14.568649 -1.189929,-4.1309881 1.72077,-9.6496881 3.106655,-10.3751048 1.571525,-0.82258656 7.720235,-2.0440222 11.955626,1.3146436 1.831157,1.452105 6.794243,10.9431052 6.794243,10.9431052 -3.763321,7.071136 -9.713788,11.266948 -17.776428,12.686005 z"
       id="path8319"
       inkscape:connector-curvature="0"
       sodipodi:nodetypes="cssscc" />
    <path
       sodipodi:nodetypes="cssscc"
       inkscape:connector-curvature="0"
       id="path8418"
       d="m 13.655399,25.383172 c 0,0 -2.869485,-10.338395 -3.802684,-13.578092 -1.109022,-3.850112 1.603769,-8.9935834 2.895424,-9.6696768 1.464675,-0.7666574 7.195323,-1.90504525 11.142737,1.2252578 1.706652,1.3533733 6.332288,10.199058 6.332288,10.199058 -3.507444,6.590355 -9.053328,10.500883 -16.567768,11.823454 z"
       style="color:#000000;fill:none;stroke:#fce94f;stroke-width:0.96933872;stroke-linecap:butt;stroke-linejoin:miter;stroke-miterlimit:4;stroke-opacity:1;stroke-dasharray:none;stroke-dashoffset:0;marker:none;visibility:visible;display:inline;overflow:visible;enable-background:accumulate" />
    <path
       sodipodi:type="arc"
       style="color:#000000;fill:url(#radialGradient8355);fill-opacity:1;stroke:none;stroke-width:0.1;marker:none;visibility:visible;display:inline;overflow:visible;enable-background:accumulate"
       id="path8335"
       sodipodi:cx="25.75889"
       sodipodi:cy="7.518137"
       sodipodi:rx="5.1931424"
       sodipodi:ry="2.0925124"
       d="m 30.952033,7.518137 a 5.1931424,2.0925124 0 1 1 -10.386285,0 5.1931424,2.0925124 0 1 1 10.386285,0 z"
       transform="matrix(0.86066437,0.20297853,-0.27243104,0.81351766,-1.466281,-8.3287509)" />
    <path
       style="color:#000000;fill:url(#linearGradient8373);fill-opacity:1;stroke:#181818;stroke-width:1.04005432;stroke-linecap:butt;stroke-linejoin:miter;stroke-miterlimit:4;stroke-opacity:1;stroke-dasharray:none;stroke-dashoffset:0;marker:none;visibility:visible;display:inline;overflow:visible;enable-background:accumulate"
       d="m 11.951563,21.966905 c 4.497272,-4.661842 12.144284,-8.18425 18.586936,-9.912337 l 1.934342,5.298588 -18.992387,10.022856 z"
       id="path8327"
       inkscape:connector-curvature="0"
       sodipodi:nodetypes="ccccc" />
    <path
       transform="matrix(-0.18630761,0.74265486,0.59446539,0.30225498,11.375697,-14.243261)"
       d="m 30.952033,7.518137 a 5.1931424,2.0925124 0 1 1 -10.386285,0 5.1931424,2.0925124 0 1 1 10.386285,0 z"
       sodipodi:ry="2.0925124"
       sodipodi:rx="5.1931424"
       sodipodi:cy="7.518137"
       sodipodi:cx="25.75889"
       id="path8337"
       style="color:#000000;fill:url(#radialGradient8357);fill-opacity:1;stroke:none;stroke-width:0.1;marker:none;visibility:visible;display:inline;overflow:visible;enable-background:accumulate"
       sodipodi:type="arc" />
    <path
       inkscape:connector-curvature="0"
       id="path8420"
       d="m 12.798989,7.8602727 c -0.867708,0.2365253 -1.376105,1.1309181 -1.131949,2.026618 0.210837,0.7734653 0.912762,1.2950233 1.658874,1.2658813 l 0.150685,3.024493 -1.699121,1.305345 C 11.373869,15.038773 10.762123,14.816128 10.158409,14.980691 9.2907,15.21721 8.790851,16.142966 9.035006,17.038668 c 0.24416,0.895699 1.144647,1.439739 2.012357,1.203213 0.464226,-0.126535 0.817377,-0.440499 1.014921,-0.849341 l 2.180622,0.584659 0.971695,2.699634 c -0.730672,0.320005 -1.135149,1.149791 -0.912449,1.966785 0.244159,0.8957 1.1361,1.408379 2.003809,1.171856 0.86771,-0.23652 1.407464,-1.139465 1.163307,-2.035166 -0.133055,-0.488156 -0.486154,-0.861883 -0.897793,-1.069089 l 1.496862,-2.294525 2.773633,-0.0823 c 0.0062,0.122165 0.03761,0.261685 0.07121,0.384839 0.244159,0.895698 1.136099,1.408381 2.003808,1.171855 0.86771,-0.236518 1.376105,-1.130918 1.13195,-2.026618 -0.244159,-0.895699 -1.144646,-1.439738 -2.012353,-1.203214 -0.254789,0.06945 -0.456065,0.207064 -0.638584,0.376194 l -1.715776,-2.092558 0.678731,-2.206265 c 0.29842,0.106519 0.62955,0.13158 0.954939,0.04288 0.867712,-0.236519 1.36756,-1.162275 1.123406,-2.057975 C 22.195147,9.8278259 21.294659,9.2837867 20.426949,9.5203106 19.624748,9.7389763 19.160499,10.55413 19.283618,11.381593 l -2.408869,0.926122 -2.448431,-1.690721 c 0.370928,-0.407852 0.5357,-1.0007677 0.376481,-1.5848739 C 14.558644,8.1364206 13.6667,7.6237387 12.79899,7.8602637 z"
       style="color:#000000;fill:#2e3436;fill-opacity:1;stroke:none;stroke-width:0.5;marker:none;visibility:visible;display:inline;overflow:visible;enable-background:accumulate" />
    <path
       style="color:#000000;fill:url(#radialGradient8406);fill-opacity:1;stroke:url(#linearGradient8396);stroke-width:0.52002716;stroke-miterlimit:4;stroke-dasharray:none;marker:none;visibility:visible;display:inline;overflow:visible;enable-background:accumulate"
       d="m 11.743993,7.3855874 c -0.86771,0.2365253 -1.376104,1.1309174 -1.13195,2.026619 0.210836,0.7734656 0.912762,1.2950206 1.658874,1.2658786 l 0.150675,3.024494 -1.699122,1.305345 C 10.318863,14.564088 9.707116,14.341445 9.103402,14.506007 8.235695,14.742535 7.735845,15.668282 7.98,16.563981 c 0.24415,0.895703 1.144647,1.439739 2.012358,1.203215 0.464222,-0.126547 0.817375,-0.4405 1.01492,-0.849341 l 2.180622,0.584658 0.971693,2.699635 c -0.73067,0.320002 -1.135147,1.149791 -0.912447,1.966786 0.24416,0.895697 1.1361,1.408379 2.003809,1.171855 0.867709,-0.236529 1.407463,-1.139465 1.163309,-2.035166 -0.133056,-0.488158 -0.486157,-0.86188 -0.897794,-1.069088 l 1.49686,-2.294526 2.773633,-0.08231 c 0.0062,0.122166 0.03761,0.261685 0.07121,0.384839 0.244159,0.895701 1.136099,1.408381 2.003807,1.171855 0.867709,-0.236529 1.376104,-1.130917 1.131951,-2.026618 -0.244161,-0.895699 -1.144647,-1.439738 -2.012356,-1.203213 -0.254786,0.06945 -0.456063,0.207063 -0.638581,0.376192 l -1.715774,-2.092555 0.678732,-2.206265 c 0.298419,0.106519 0.62955,0.131584 0.95494,0.04288 0.867709,-0.23653 1.367558,-1.162277 1.123403,-2.057978 C 21.140136,9.3531492 20.23965,8.8091098 19.37194,9.0456344 18.569739,9.2643007 18.10549,10.079453 18.228609,10.906916 L 15.819741,11.83304 13.371309,10.142318 C 13.742248,9.7344656 13.907021,9.1415502 13.747802,8.5574436 13.503647,7.6617434 12.611703,7.1490627 11.743993,7.3855874 z"
       id="path8377"
       inkscape:connector-curvature="0" />
    <path
       style="fill:url(#linearGradient8414);fill-opacity:1;stroke:#796300;stroke-width:1.02926564;stroke-linecap:butt;stroke-linejoin:miter;stroke-miterlimit:4;stroke-opacity:1;stroke-dasharray:none"
       d="M 20.826601,22.067876 C 24.885235,19.650791 27.816038,10.123275 38.386755,9.1988587 40.40652,9.0222266 45.383716,9.1185078 47.235737,16.162312 49.623312,25.242999 35.314751,33.19363 26.505843,35.984079 16.75618,39.072535 1.400303,36.401284 0.58592298,31.626379 -0.22845702,26.851474 12.889863,26.794536 20.826601,22.067876 z"
       id="path7530"
       inkscape:connector-curvature="0"
       sodipodi:nodetypes="ssssss" />
    <path
       style="color:#000000;fill:#000000;fill-opacity:1;stroke:none;stroke-width:0.1;marker:none;visibility:visible;display:inline;overflow:visible;enable-background:accumulate"
       d="m 16.018475,31.693335 c -0.807425,-3.317277 4.789632,-5.808239 8.303167,-6.891341 2.873358,-0.885753 10.575053,-4.331714 11.592016,-1.417501 1.053591,3.01918 -4.916601,8.092349 -10.726879,9.18543 -3.255295,0.612412 -8.573841,1.565743 -9.168304,-0.876588 z"
       id="path8300"
       inkscape:connector-curvature="0"
       sodipodi:nodetypes="sssss" />
    <path
       sodipodi:nodetypes="ssssss"
       inkscape:connector-curvature="0"
       id="path8416"
       d="m 21.576482,22.868207 c 3.922796,-2.270682 6.261663,-11.616302 16.41564,-12.590422 1.940136,-0.186128 6.572073,-0.2803203 8.266627,6.176512 C 48.443326,24.778273 34.763155,32.382976 26.277857,35.052732 16.886366,38.007608 2.279632,36.085461 1.554155,31.70329 0.82867798,27.321116 13.905383,27.30857 21.576482,22.868207 z"
       style="fill:none;stroke:#edd400;stroke-width:0.96685767;stroke-linecap:butt;stroke-linejoin:miter;stroke-miterlimit:4;stroke-opacity:1;stroke-dasharray:none" />
    <g
       id="g23212"
       transform="matrix(-0.77560352,-1.4726664,1.3433846,-0.85024435,10.517196,77.573674)">
      <path
         inkscape:connector-curvature="0"
         style="fill:url(#linearGradient23218);fill-opacity:1;fill-rule:evenodd;stroke:none"
         d="m 14.259986,21.483496 c 0.144772,6.772352 3.51269,10.240402 8.838835,12.963624 l -4.360492,3.653385 C 13.422713,36.35658 9.0542874,33.209833 6.3639609,24.665477 l 7.8960251,-3.181981 z"
         id="path23214"
         sodipodi:nodetypes="ccccc" />
      <path
         inkscape:connector-curvature="0"
         style="fill:url(#linearGradient23220);fill-opacity:1;fill-rule:evenodd;stroke:none"
         d="m 13.433735,23.285352 c -0.342073,4.279668 1.559696,6.682009 4.743915,8.739993 L 15.1943,34.050013 C 11.954055,32.610211 9.4008408,30.346449 8.2511691,24.78653 l 5.1825659,-1.501178 z"
         id="path23216"
         sodipodi:nodetypes="ccccc" />
    </g>
    <g
       transform="matrix(1.4121554,-0.6786923,0.6786923,1.4121554,-14.498992,36.293827)"
       id="g22372">
      <circle
         transform="matrix(1.884164,0.391016,-0.391016,1.884164,188.5805,-907.4443)"
         style="fill:none;stroke:#152a4c;stroke-width:0.49751693"
         sodipodi:ry="2.072"
         sodipodi:rx="2.072"
         sodipodi:cy="487.164"
         sodipodi:cx="15.3"
         id="circle22374"
         r="2.072"
         cy="487.164"
         cx="15.3"
         ns0:knockout="Off"
         d="m 17.372,487.164 c 0,1.14434 -0.927666,2.072 -2.072,2.072 -1.144334,0 -2.072,-0.92766 -2.072,-2.072 0,-1.14433 0.927666,-2.072 2.072,-2.072 1.144334,0 2.072,0.92767 2.072,2.072 z" />
      <circle
         transform="matrix(1.884164,0.391016,-0.391016,1.884164,188.5805,-907.4443)"
         sodipodi:ry="2.072"
         sodipodi:rx="2.072"
         sodipodi:cy="487.164"
         sodipodi:cx="15.3"
         style="fill:url(#radialGradient22390)"
         id="circle22376"
         r="2.072"
         cy="487.164"
         cx="15.3"
         ns0:knockout="Off"
         d="m 17.372,487.164 c 0,1.14434 -0.927666,2.072 -2.072,2.072 -1.144334,0 -2.072,-0.92766 -2.072,-2.072 0,-1.14433 0.927666,-2.072 2.072,-2.072 1.144334,0 2.072,0.92767 2.072,2.072 z" />
      <g
         transform="matrix(1.884164,0.391016,-0.391016,1.884164,188.5805,-907.4443)"
         id="g22378"
         ns0:knockout="Off">
        <radialGradient
           gradientUnits="userSpaceOnUse"
           fy="485.4155"
           fx="14.3105"
           r="4.0651002"
           cy="485.4155"
           cx="14.3105"
           id="radialGradient22380">
          <stop
             id="stop22382"
             style="stop-color:#FFFFFF"
             offset="0" />
          <stop
             id="stop22384"
             style="stop-color:#2E659E"
             offset="0.6854" />
          <stop
             id="stop22386"
             style="stop-color:#1D3E63"
             offset="1" />
          <a:midPointStop
             style="stop-color:#FFFFFF"
             offset="0" />
          <a:midPointStop
             style="stop-color:#FFFFFF"
             offset="0.5" />
          <a:midPointStop
             style="stop-color:#2E659E"
             offset="0.6854" />
          <a:midPointStop
             style="stop-color:#2E659E"
             offset="0.5" />
          <a:midPointStop
             style="stop-color:#1D3E63"
             offset="1" />
        </radialGradient>
        <path
           inkscape:connector-curvature="0"
           style="fill:url(#radialGradient22392)"
           id="path22388"
           d="m 13.228,487.164 c 0,1.144 0.93,2.073 2.072,2.073 0.555,0 1.074,-0.216 1.465,-0.607 0.393,-0.391 0.607,-0.912 0.607,-1.466 0,-0.554 -0.215,-1.073 -0.607,-1.466 -0.391,-0.392 -0.911,-0.606 -1.465,-0.606 -1.143,-10e-4 -2.072,0.928 -2.072,2.072 z m 0.152,0 c 0,-1.059 0.861,-1.92 1.92,-1.92 0.514,0 0.995,0.199 1.358,0.563 0.362,0.361 0.563,0.844 0.563,1.356 0,0.512 -0.2,0.995 -0.563,1.358 -0.363,0.362 -0.845,0.562 -1.358,0.562 -1.059,0 -1.92,-0.861 -1.92,-1.919 z"
           ns0:knockout="Off" />
      </g>
    </g>
  </g>
</svg>
