<?xml version="1.0" encoding="UTF-8" standalone="no"?>
<!-- Created with Inkscape (http://www.inkscape.org/) -->
<svg
   xmlns:a="http://ns.adobe.com/AdobeSVGViewerExtensions/3.0/"
   xmlns:i="http://ns.adobe.com/AdobeIllustrator/10.0/"
   xmlns:dc="http://purl.org/dc/elements/1.1/"
   xmlns:cc="http://web.resource.org/cc/"
   xmlns:rdf="http://www.w3.org/1999/02/22-rdf-syntax-ns#"
   xmlns:svg="http://www.w3.org/2000/svg"
   xmlns="http://www.w3.org/2000/svg"
   xmlns:xlink="http://www.w3.org/1999/xlink"
   xmlns:sodipodi="http://sodipodi.sourceforge.net/DTD/sodipodi-0.dtd"
   xmlns:inkscape="http://www.inkscape.org/namespaces/inkscape"
   width="48px"
   height="48px"
   id="svg31175"
   sodipodi:version="0.32"
   inkscape:version="0.44"
   sodipodi:docbase="e:\dev_clean\src\houdini\support\icons\dop"
   sodipodi:docname="rbdautofreeze.svg">
  <defs
     id="defs31177">
    <radialGradient
       gradientUnits="userSpaceOnUse"
       fy="1684.6167"
       fx="509.2314"
       r="26.8639"
       cy="1684.6167"
       cx="509.2314"
       id="XMLID_954_"
       gradientTransform="translate(-484.055,-1655.83)">
				<stop
   id="stop19220"
   style="stop-color:#709EC3"
   offset="0.0056" />

				<stop
   id="stop19222"
   style="stop-color:#dbdede;stop-opacity:0;"
   offset="1" />

				<a:midPointStop
   style="stop-color:#709EC3"
   offset="0.0056" />

				<a:midPointStop
   style="stop-color:#709EC3"
   offset="0.5" />

				<a:midPointStop
   style="stop-color:#DBDEDE"
   offset="1" />

			</radialGradient>
    <radialGradient
       gradientUnits="userSpaceOnUse"
       fy="1698.5083"
       fx="497.45309"
       r="41.3307"
       cy="1698.5083"
       cx="497.45309"
       id="XMLID_955_">
						<stop
   id="stop19231"
   style="stop-color:#BAD1D7"
   offset="0" />

						<stop
   id="stop19233"
   style="stop-color:#97A6B3"
   offset="1" />

						<a:midPointStop
   style="stop-color:#BAD1D7"
   offset="0" />

						<a:midPointStop
   style="stop-color:#BAD1D7"
   offset="0.5" />

						<a:midPointStop
   style="stop-color:#97A6B3"
   offset="1" />

					</radialGradient>
    <radialGradient
       inkscape:collect="always"
       xlink:href="#XMLID_955_"
       id="radialGradient31065"
       gradientUnits="userSpaceOnUse"
       cx="497.45309"
       cy="1698.5083"
       fx="497.45309"
       fy="1698.5083"
       r="41.3307" />
    <radialGradient
       gradientUnits="userSpaceOnUse"
       fy="1663.7007"
       fx="491.6431"
       r="53.255699"
       cy="1663.7007"
       cx="491.6431"
       id="XMLID_956_">
						<stop
   id="stop19238"
   style="stop-color:#FFFFFF"
   offset="0" />

						<stop
   id="stop19240"
   style="stop-color:#8794A0"
   offset="1" />

						<a:midPointStop
   style="stop-color:#FFFFFF"
   offset="0" />

						<a:midPointStop
   style="stop-color:#FFFFFF"
   offset="0.5" />

						<a:midPointStop
   style="stop-color:#8794A0"
   offset="1" />

					</radialGradient>
    <radialGradient
       inkscape:collect="always"
       xlink:href="#XMLID_956_"
       id="radialGradient31067"
       gradientUnits="userSpaceOnUse"
       cx="491.6431"
       cy="1663.7007"
       fx="491.6431"
       fy="1663.7007"
       r="53.255699" />
    <radialGradient
       gradientUnits="userSpaceOnUse"
       fy="1698.7681"
       fx="520.44482"
       r="37.804199"
       cy="1698.7681"
       cx="520.44482"
       id="XMLID_957_">
						<stop
   id="stop19245"
   style="stop-color:#BAD1D7"
   offset="0" />

						<stop
   id="stop19247"
   style="stop-color:#8E99A6"
   offset="0.8258" />

						<a:midPointStop
   style="stop-color:#BAD1D7"
   offset="0" />

						<a:midPointStop
   style="stop-color:#BAD1D7"
   offset="0.5" />

						<a:midPointStop
   style="stop-color:#8E99A6"
   offset="0.8258" />

					</radialGradient>
    <radialGradient
       inkscape:collect="always"
       xlink:href="#XMLID_957_"
       id="radialGradient31069"
       gradientUnits="userSpaceOnUse"
       cx="520.44482"
       cy="1698.7681"
       fx="520.44482"
       fy="1698.7681"
       r="37.804199" />
    <radialGradient
       gradientUnits="userSpaceOnUse"
       fy="1673.062"
       fx="500.55179"
       r="47.376801"
       cy="1673.062"
       cx="500.55179"
       id="XMLID_959_">
							<stop
   id="stop19261"
   style="stop-color:#EFEEEC"
   offset="0" />

							<stop
   id="stop19263"
   style="stop-color:#8794A0"
   offset="1" />

							<a:midPointStop
   style="stop-color:#EFEEEC"
   offset="0" />

							<a:midPointStop
   style="stop-color:#EFEEEC"
   offset="0.5" />

							<a:midPointStop
   style="stop-color:#8794A0"
   offset="1" />

						</radialGradient>
    <radialGradient
       inkscape:collect="always"
       xlink:href="#XMLID_959_"
       id="radialGradient31073"
       gradientUnits="userSpaceOnUse"
       cx="500.55179"
       cy="1673.062"
       fx="500.55179"
       fy="1673.062"
       r="47.376801" />
    <radialGradient
       gradientUnits="userSpaceOnUse"
       fy="1667.1401"
       fx="492.7417"
       r="20.575001"
       cy="1667.1401"
       cx="492.7417"
       id="XMLID_958_">
							<stop
   id="stop19254"
   style="stop-color:#FFFFFF"
   offset="0" />

							<stop
   id="stop19256"
   style="stop-color:#545652"
   offset="1" />

							<a:midPointStop
   style="stop-color:#FFFFFF"
   offset="0" />

							<a:midPointStop
   style="stop-color:#FFFFFF"
   offset="0.5" />

							<a:midPointStop
   style="stop-color:#545652"
   offset="1" />

						</radialGradient>
    <radialGradient
       inkscape:collect="always"
       xlink:href="#XMLID_958_"
       id="radialGradient31071"
       gradientUnits="userSpaceOnUse"
       cx="492.7417"
       cy="1667.1401"
       fx="492.7417"
       fy="1667.1401"
       r="20.575001" />
    <radialGradient
       gradientUnits="userSpaceOnUse"
       fy="1675.8101"
       fx="520.44482"
       r="26.632601"
       cy="1675.8101"
       cx="520.44482"
       id="XMLID_960_">
							<stop
   id="stop19270"
   style="stop-color:#BABDB6"
   offset="0" />

							<stop
   id="stop19272"
   style="stop-color:#545652"
   offset="0.8258" />

							<stop
   id="stop19274"
   style="stop-color:#2D3335"
   offset="1" />

							<a:midPointStop
   style="stop-color:#BABDB6"
   offset="0" />

							<a:midPointStop
   style="stop-color:#BABDB6"
   offset="0.5" />

							<a:midPointStop
   style="stop-color:#545652"
   offset="0.8258" />

							<a:midPointStop
   style="stop-color:#545652"
   offset="0.5" />

							<a:midPointStop
   style="stop-color:#2D3335"
   offset="1" />

						</radialGradient>
    <radialGradient
       inkscape:collect="always"
       xlink:href="#XMLID_960_"
       id="radialGradient31075"
       gradientUnits="userSpaceOnUse"
       cx="520.44482"
       cy="1675.8101"
       fx="520.44482"
       fy="1675.8101"
       r="26.632601" />
    <radialGradient
       gradientUnits="userSpaceOnUse"
       fy="1673.063"
       fx="500.54349"
       r="47.389099"
       cy="1673.063"
       cx="500.54349"
       id="XMLID_963_">
							<stop
   id="stop19297"
   style="stop-color:#EFEEEC"
   offset="0" />

							<stop
   id="stop19299"
   style="stop-color:#8794A0"
   offset="1" />

							<a:midPointStop
   style="stop-color:#EFEEEC"
   offset="0" />

							<a:midPointStop
   style="stop-color:#EFEEEC"
   offset="0.5" />

							<a:midPointStop
   style="stop-color:#8794A0"
   offset="1" />

						</radialGradient>
    <radialGradient
       inkscape:collect="always"
       xlink:href="#XMLID_963_"
       id="radialGradient31079"
       gradientUnits="userSpaceOnUse"
       cx="500.54349"
       cy="1673.063"
       fx="500.54349"
       fy="1673.063"
       r="47.389099" />
    <radialGradient
       gradientUnits="userSpaceOnUse"
       fy="1697.9253"
       fx="503.98831"
       r="21.390699"
       cy="1697.9253"
       cx="503.98831"
       id="XMLID_962_">
							<stop
   id="stop19288"
   style="stop-color:#BABDB6"
   offset="0" />

							<stop
   id="stop19290"
   style="stop-color:#545652"
   offset="0.8258" />

							<stop
   id="stop19292"
   style="stop-color:#2D3335"
   offset="1" />

							<a:midPointStop
   style="stop-color:#BABDB6"
   offset="0" />

							<a:midPointStop
   style="stop-color:#BABDB6"
   offset="0.5" />

							<a:midPointStop
   style="stop-color:#545652"
   offset="0.8258" />

							<a:midPointStop
   style="stop-color:#545652"
   offset="0.5" />

							<a:midPointStop
   style="stop-color:#2D3335"
   offset="1" />

						</radialGradient>
    <radialGradient
       inkscape:collect="always"
       xlink:href="#XMLID_962_"
       id="radialGradient31077"
       gradientUnits="userSpaceOnUse"
       cx="503.98831"
       cy="1697.9253"
       fx="503.98831"
       fy="1697.9253"
       r="21.390699" />
    <linearGradient
       y2="1711.6469"
       x2="541.67261"
       y1="1662.23"
       x1="495.67291"
       gradientUnits="userSpaceOnUse"
       id="XMLID_964_">
							<stop
   id="stop19306"
   style="stop-color:#FFFFFF"
   offset="0" />

							<stop
   id="stop19308"
   style="stop-color:#709EC3"
   offset="1" />

							<a:midPointStop
   style="stop-color:#FFFFFF"
   offset="0" />

							<a:midPointStop
   style="stop-color:#FFFFFF"
   offset="0.5" />

							<a:midPointStop
   style="stop-color:#709EC3"
   offset="1" />

						</linearGradient>
    <linearGradient
       inkscape:collect="always"
       xlink:href="#XMLID_964_"
       id="linearGradient31081"
       gradientUnits="userSpaceOnUse"
       x1="495.67291"
       y1="1662.23"
       x2="541.67261"
       y2="1711.6469" />
    <radialGradient
       gradientUnits="userSpaceOnUse"
       fy="1679.2036"
       fx="508.2402"
       r="24.6278"
       cy="1679.2036"
       cx="508.2402"
       id="XMLID_965_"
       gradientTransform="translate(-484.055,-1655.83)">
				<stop
   id="stop19315"
   style="stop-color:#709EC3"
   offset="0.0056" />

				<stop
   id="stop19317"
   style="stop-color:#dbdede;stop-opacity:0;"
   offset="1" />

				<a:midPointStop
   style="stop-color:#709EC3"
   offset="0.0056" />

				<a:midPointStop
   style="stop-color:#709EC3"
   offset="0.5" />

				<a:midPointStop
   style="stop-color:#DBDEDE"
   offset="1" />

			</radialGradient>
  </defs>
  <sodipodi:namedview
     id="base"
     pagecolor="#ffffff"
     bordercolor="#666666"
     borderopacity="1.0"
     inkscape:pageopacity="0.0"
     inkscape:pageshadow="2"
     inkscape:zoom="7"
     inkscape:cx="24"
     inkscape:cy="24"
     inkscape:current-layer="layer1"
     showgrid="true"
     inkscape:grid-bbox="true"
     inkscape:document-units="px"
     inkscape:window-width="853"
     inkscape:window-height="573"
     inkscape:window-x="88"
     inkscape:window-y="116" />
  <g
     id="layer1"
     inkscape:label="Layer 1"
     inkscape:groupmode="layer">
    <path
       style="fill:url(#XMLID_954_)"
       id="path19224"
       d="M 10.002,19.15 L 7.219,26.748 L 2.957,29.48 L 1.427,29.152 L 0.662,29.59 L 0.637,29.517 C 0.22,27.746 0,25.899 0,24.001 C 0,10.746 10.745,0.0010004 24,0.0010004 C 37.255,0.0010004 48,10.746 48,24.001 C 48,26.459 47.631,28.83 46.945,31.063 L 43.79,29.622 L 42.769,29.565 L 41.578,28.09 L 41.124,25.99 L 40.33,25.195 L 39.366,22.416 L 10.002,19.15 z "
       i:knockout="Off" />
    <polygon
       style="fill:url(#radialGradient31065)"
       id="polygon19235"
       points="504.108,1694.999 494.816,1683.82 493.283,1665.966 503.414,1674.967 504.108,1694.999 "
       i:knockout="Off"
       transform="translate(-484.055,-1655.83)" />
    <polygon
       style="fill:url(#radialGradient31067)"
       id="polygon19242"
       points="523.993,1669.196 503.414,1674.967 493.283,1665.966 511.542,1662.01 523.993,1669.196 "
       i:knockout="Off"
       transform="translate(-484.055,-1655.83)" />
    <polygon
       style="fill:url(#radialGradient31069)"
       id="polygon19249"
       points="522.222,1687.915 504.108,1694.999 503.414,1674.967 523.993,1669.196 522.222,1687.915 "
       i:knockout="Off"
       transform="translate(-484.055,-1655.83)" />
    <g
       id="g19251"
       transform="translate(-484.055,-1655.83)">
						
							<radialGradient
   gradientUnits="userSpaceOnUse"
   fy="1667.1401"
   fx="492.7417"
   r="20.575001"
   cy="1667.1401"
   cx="492.7417"
   id="radialGradient29779">
							<stop
   id="stop29781"
   style="stop-color:#FFFFFF"
   offset="0" />

							<stop
   id="stop29783"
   style="stop-color:#545652"
   offset="1" />

							<a:midPointStop
   style="stop-color:#FFFFFF"
   offset="0" />

							<a:midPointStop
   style="stop-color:#FFFFFF"
   offset="0.5" />

							<a:midPointStop
   style="stop-color:#545652"
   offset="1" />

						</radialGradient>

						
							<line
   style="fill:url(#radialGradient31071)"
   id="line19258"
   y2="1665.9659"
   x2="493.28299"
   y1="1674.967"
   x1="503.414"
   enable-background="new    "
   i:knockout="Off"
   i:isolated="yes" />

						
							<radialGradient
   gradientUnits="userSpaceOnUse"
   fy="1673.062"
   fx="500.55179"
   r="47.376801"
   cy="1673.062"
   cx="500.55179"
   id="radialGradient29786">
							<stop
   id="stop29788"
   style="stop-color:#EFEEEC"
   offset="0" />

							<stop
   id="stop29790"
   style="stop-color:#8794A0"
   offset="1" />

							<a:midPointStop
   style="stop-color:#EFEEEC"
   offset="0" />

							<a:midPointStop
   style="stop-color:#EFEEEC"
   offset="0.5" />

							<a:midPointStop
   style="stop-color:#8794A0"
   offset="1" />

						</radialGradient>

						<polygon
   style="fill:url(#radialGradient31073)"
   id="polygon19265"
   points="493.026,1666.254 503.156,1675.254 503.67,1674.674 493.538,1665.674 493.026,1666.254 "
   i:knockout="Off" />

					</g>
    <g
       id="g19267"
       transform="translate(-484.055,-1655.83)">
						
							<radialGradient
   gradientUnits="userSpaceOnUse"
   fy="1675.8101"
   fx="520.44482"
   r="26.632601"
   cy="1675.8101"
   cx="520.44482"
   id="radialGradient29794">
							<stop
   id="stop29796"
   style="stop-color:#BABDB6"
   offset="0" />

							<stop
   id="stop29798"
   style="stop-color:#545652"
   offset="0.8258" />

							<stop
   id="stop29800"
   style="stop-color:#2D3335"
   offset="1" />

							<a:midPointStop
   style="stop-color:#BABDB6"
   offset="0" />

							<a:midPointStop
   style="stop-color:#BABDB6"
   offset="0.5" />

							<a:midPointStop
   style="stop-color:#545652"
   offset="0.8258" />

							<a:midPointStop
   style="stop-color:#545652"
   offset="0.5" />

							<a:midPointStop
   style="stop-color:#2D3335"
   offset="1" />

						</radialGradient>

						
							<line
   style="fill:url(#radialGradient31075)"
   id="line19276"
   y2="1669.196"
   x2="523.99298"
   y1="1674.967"
   x1="503.414"
   enable-background="new    "
   i:knockout="Off"
   i:isolated="yes" />

						
							<radialGradient
   gradientUnits="userSpaceOnUse"
   fy="1673.062"
   fx="500.54831"
   r="47.392399"
   cy="1673.062"
   cx="500.54831"
   id="radialGradient29803">
							<stop
   id="stop29805"
   style="stop-color:#EFEEEC"
   offset="0" />

							<stop
   id="stop29807"
   style="stop-color:#8794A0"
   offset="1" />

							<a:midPointStop
   style="stop-color:#EFEEEC"
   offset="0" />

							<a:midPointStop
   style="stop-color:#EFEEEC"
   offset="0.5" />

							<a:midPointStop
   style="stop-color:#8794A0"
   offset="1" />

						</radialGradient>

						 
					</g>
    <g
       id="g19285"
       transform="translate(-484.055,-1655.83)">
						
							<radialGradient
   gradientUnits="userSpaceOnUse"
   fy="1697.9253"
   fx="503.98831"
   r="21.390699"
   cy="1697.9253"
   cx="503.98831"
   id="radialGradient29811">
							<stop
   id="stop29813"
   style="stop-color:#BABDB6"
   offset="0" />

							<stop
   id="stop29815"
   style="stop-color:#545652"
   offset="0.8258" />

							<stop
   id="stop29817"
   style="stop-color:#2D3335"
   offset="1" />

							<a:midPointStop
   style="stop-color:#BABDB6"
   offset="0" />

							<a:midPointStop
   style="stop-color:#BABDB6"
   offset="0.5" />

							<a:midPointStop
   style="stop-color:#545652"
   offset="0.8258" />

							<a:midPointStop
   style="stop-color:#545652"
   offset="0.5" />

							<a:midPointStop
   style="stop-color:#2D3335"
   offset="1" />

						</radialGradient>

						
							<line
   style="fill:url(#radialGradient31077)"
   id="line19294"
   y2="1674.967"
   x2="503.414"
   y1="1694.999"
   x1="504.108"
   enable-background="new    "
   i:knockout="Off"
   i:isolated="yes" />

						
							<radialGradient
   gradientUnits="userSpaceOnUse"
   fy="1673.063"
   fx="500.54349"
   r="47.389099"
   cy="1673.063"
   cx="500.54349"
   id="radialGradient29820">
							<stop
   id="stop29822"
   style="stop-color:#EFEEEC"
   offset="0" />

							<stop
   id="stop29824"
   style="stop-color:#8794A0"
   offset="1" />

							<a:midPointStop
   style="stop-color:#EFEEEC"
   offset="0" />

							<a:midPointStop
   style="stop-color:#EFEEEC"
   offset="0.5" />

							<a:midPointStop
   style="stop-color:#8794A0"
   offset="1" />

						</radialGradient>

						<rect
   style="fill:url(#radialGradient31079)"
   id="rect19301"
   height="20.044001"
   width="0.77999997"
   i:knockout="Off"
   y="1674.962"
   x="503.37201" />
 
					</g>
    <g
       id="g19303"
       transform="translate(-484.055,-1655.83)">
						<linearGradient
   y2="1711.6469"
   x2="541.67261"
   y1="1662.23"
   x1="495.67291"
   gradientUnits="userSpaceOnUse"
   id="linearGradient29828">
							<stop
   id="stop29830"
   style="stop-color:#FFFFFF"
   offset="0" />

							<stop
   id="stop29832"
   style="stop-color:#709EC3"
   offset="1" />

							<a:midPointStop
   style="stop-color:#FFFFFF"
   offset="0" />

							<a:midPointStop
   style="stop-color:#FFFFFF"
   offset="0.5" />

							<a:midPointStop
   style="stop-color:#709EC3"
   offset="1" />

						</linearGradient>

						<path
   style="fill:url(#linearGradient31081)"
   id="path19310"
   d="M 511.581,1660.365 L 491.568,1664.701 L 493.264,1684.458 L 503.616,1696.91 L 523.721,1689.046 L 525.682,1668.324 L 511.806,1660.317 L 511.581,1660.365 z M 511.607,1661.586 C 511.985,1661.805 523.791,1668.617 524.415,1668.978 C 524.347,1669.702 522.662,1687.502 522.596,1688.198 C 521.946,1688.452 504.744,1695.179 503.985,1695.476 C 503.468,1694.855 494.656,1684.254 494.427,1683.979 C 494.396,1683.622 492.938,1666.634 492.854,1665.65 C 493.831,1665.438 511.456,1661.619 511.456,1661.619 L 511.455,1661.62 C 511.456,1661.62 511.534,1661.602 511.607,1661.586 z "
   i:knockout="Off" />

					</g>
    <polygon
       style="fill:none;stroke:#737b87;stroke-width:0.80000001"
       id="polygon19312"
       points="493.283,1665.966 511.542,1662.01 523.993,1669.196 522.222,1687.915 504.108,1694.999 494.816,1683.82 493.283,1665.966 "
       i:knockout="Off"
       transform="translate(-484.055,-1655.83)" />
    <path
       style="fill:url(#XMLID_965_)"
       id="path19319"
       d="M 0.637,29.516 C 3.129,40.113 12.643,48 24,48 C 34.797,48 43.93,40.87 46.945,31.062 L 43.79,29.621 L 42.769,29.564 L 41.578,28.089 L 41.124,25.989 L 40.33,25.194 L 39.366,22.415 L 38.969,24.628 L 38.344,24.344 L 37.777,27.692 L 36.813,28.826 L 36.415,30.529 L 35.281,30.586 L 33.919,31.437 L 33.125,30.302 L 32.501,33.196 L 31.536,33.196 L 30.969,32.231 L 29.494,32.913 L 27.849,33.026 L 27.281,31.721 L 26.657,30.869 L 26.43,28.316 L 25.465,25.877 L 23.877,33.309 L 23.593,34.217 L 21.891,35.068 L 20.87,34.444 L 19.112,31.211 L 18.828,32.516 L 17.977,33.083 L 17.41,33.877 L 16.502,30.927 L 15.764,33.423 L 14.629,31.04 L 13.778,30.644 L 13.211,30.019 L 12.474,30.133 L 11.963,27.579 L 11.735,29.055 L 11.508,28.091 L 11.111,27.353 L 10.204,23.098 L 10.204,23.098 L 10.061,18.991 L 7.219,26.75 L 2.957,29.482 L 1.427,29.154 L 0.637,29.516 z "
       i:knockout="Off" />
    <polyline
       transform="translate(-484.055,-1655.83)"
       style="fill:none;stroke:#709ec3;stroke-width:0.80000001"
       id="polyline19321"
       points="494.057,1674.981 491.274,1682.579      487.012,1685.311 485.482,1684.983 484.717,1685.42 "
       i:knockout="Off" />
    <g
       transform="translate(-484.055,-1655.83)"
       id="g19323">
				<path
   style="fill:white"
   id="path19325"
   d="M 491.521,1682.778 C 491.174,1683 487.489,1685.362 487.069,1685.632 C 486.691,1685.55 485.53,1685.302 485.53,1685.302 L 484.865,1685.683 L 485.56,1686.898 C 485.56,1686.898 485.661,1686.839 485.76,1686.783 C 486.122,1686.861 487.338,1687.121 487.338,1687.121 L 492.672,1683.703 L 494.317,1679.211 L 494.142,1675.617 C 494.144,1675.616 491.675,1682.358 491.521,1682.778 z "
   i:knockout="Off" />

			</g>
    <g
       transform="translate(-484.055,-1655.83)"
       id="g19327">
				<path
   style="fill:white"
   id="path19329"
   d="M 522.478,1681.506 C 522.478,1681.506 522.168,1683.333 522.114,1683.654 C 521.924,1683.877 521.143,1684.795 521.143,1684.795 C 521.143,1684.795 520.851,1686.044 520.71,1686.648 C 520.228,1686.672 519.428,1686.711 519.428,1686.711 L 517.872,1687.684 L 517.331,1686.864 C 517.331,1686.864 516.889,1688.905 516.798,1689.326 C 516.293,1689.326 515.809,1689.326 515.418,1689.326 C 515.321,1689.161 514.902,1688.448 514.902,1688.448 C 514.902,1688.448 513.795,1688.959 513.623,1689.038 C 513.439,1689.051 512.311,1689.129 511.712,1689.171 C 511.487,1688.653 511.073,1687.702 511.073,1687.702 C 511.073,1687.702 510.583,1687.033 510.42,1686.811 C 510.396,1686.543 510.199,1684.181 510.199,1684.181 L 509.603,1682.828 L 508.201,1689.291 C 508.201,1689.291 508.003,1689.918 507.896,1690.257 C 507.533,1690.439 506.389,1691.011 505.931,1691.24 C 505.549,1691.006 504.907,1690.614 504.699,1690.487 C 504.553,1690.218 503.298,1687.918 503.298,1687.918 L 503.047,1688.606 L 502.244,1689.131 C 502.244,1689.131 501.763,1689.805 501.356,1690.374 C 501.319,1690.254 500.562,1687.795 500.562,1687.795 C 500.562,1687.795 499.886,1690.083 499.884,1690.088 C 499.268,1688.793 498.459,1687.096 498.459,1687.096 C 498.459,1687.096 497.823,1686.799 497.652,1686.719 C 497.553,1686.612 497.153,1686.17 497.153,1686.17 C 497.153,1686.17 496.531,1686.266 496.291,1686.303 C 496.172,1685.709 495.904,1684.369 495.904,1684.369 C 495.904,1684.369 495.461,1684.387 495.366,1684.39 C 495.362,1684.374 495.362,1684.113 495.362,1684.113 L 494.906,1683.378 L 494.516,1681.636 L 494.538,1683.287 L 492.08,1686.874 C 492.08,1686.874 490.795,1688.249 490.561,1688.498 C 490.237,1688.584 488.546,1689.031 488.546,1689.031 L 488.904,1690.385 L 491.309,1689.748 L 493.17,1687.746 C 493.209,1687.697 493.917,1686.664 494.49,1685.826 C 494.619,1685.82 494.698,1685.818 494.762,1685.815 C 494.879,1686.401 495.177,1687.89 495.177,1687.89 C 495.177,1687.89 496.278,1687.72 496.618,1687.667 C 496.652,1687.704 496.801,1687.868 496.801,1687.868 C 496.801,1687.868 497.198,1688.054 497.407,1688.151 C 497.601,1688.558 500.187,1693.986 500.187,1693.986 C 500.187,1693.986 500.443,1693.12 500.585,1692.641 C 500.707,1693.037 500.846,1693.488 500.846,1693.488 C 500.846,1693.488 502.695,1690.901 503.054,1690.398 C 503.303,1690.855 503.645,1691.485 503.645,1691.485 L 505.86,1692.839 L 509.05,1691.243 L 509.55,1689.645 C 509.556,1689.621 509.68,1689.047 509.826,1688.37 C 509.83,1688.376 509.846,1688.397 509.848,1688.401 C 509.906,1688.534 510.819,1690.633 510.819,1690.633 L 513.973,1690.414 C 513.973,1690.414 514.231,1690.295 514.333,1690.248 C 514.357,1690.288 514.613,1690.724 514.613,1690.724 L 517.924,1690.724 C 517.924,1690.724 518.193,1689.477 518.279,1689.077 C 518.588,1688.884 519.627,1688.234 519.857,1688.091 C 520.143,1688.076 521.828,1687.992 521.828,1687.992 C 521.828,1687.992 522.358,1685.725 522.424,1685.443 C 522.598,1685.239 523.425,1684.266 523.425,1684.266 C 523.425,1684.266 523.559,1683.471 523.662,1682.868 C 523.774,1683.387 524.052,1684.673 524.052,1684.673 L 525.971,1687.05 C 525.971,1687.05 527.169,1687.116 527.395,1687.128 C 527.628,1687.245 529.803,1688.333 529.803,1688.333 L 530.429,1687.081 L 527.762,1685.746 C 527.762,1685.746 527.022,1685.706 526.67,1685.686 C 526.39,1685.338 525.509,1684.248 525.35,1684.051 C 525.29,1683.776 524.9,1681.968 524.9,1681.968 L 524.191,1681.26 L 523.494,1679.455 L 523.227,1680.882 L 522.624,1680.608 L 522.478,1681.506 z "
   i:knockout="Off" />

			</g>
    <polyline
       transform="translate(-484.055,-1655.83)"
       style="fill:none;stroke:white"
       id="polyline19331"
       points="495.581,1692.395 497.226,1690.806 499.495,1692.848      500.744,1694.549 502.389,1695.288 503.07,1695.742 500.914,1695.174 499.552,1694.549 498.361,1693.87 495.581,1694.437      494.503,1695.401 "
       i:knockout="Off" />
    <path
       style="fill:none;stroke:white"
       id="path19333"
       d="M 34.45,36.841 L 35.925,35.536 L 36.777,32.473 L 37.514,31.906 L 38.025,30.317 L 39.103,33.438 L 40.181,33.041 C 40.181,33.041 41.486,33.892 41.769,33.948 L 44.095,35.14"
       i:knockout="Off" />
    <path
       style="fill:none;stroke:white"
       id="path19335"
       d="M 11.526,36.564 L 9.824,35.826 L 8.973,32.933 L 8.179,34.408 L 7.498,34.351 C 7.498,34.351 6.703,36.79 6.307,37.13 C 5.91,37.471 4.094,38.946 4.094,38.946"
       i:knockout="Off" />
    <polyline
       transform="translate(-484.055,-1655.83)"
       style="fill:none;stroke:#709ec3;stroke-width:0.80000001"
       id="polyline19337"
       points="531,1686.893 527.845,1685.452      526.824,1685.395 525.633,1683.92 525.179,1681.821 524.384,1681.026 523.42,1678.247 523.023,1680.459 522.398,1680.175      521.832,1683.523 520.867,1684.657 520.469,1686.36 519.335,1686.417 517.974,1687.267 517.179,1686.132 516.556,1689.026      515.59,1689.026 515.023,1688.061 513.548,1688.743 511.903,1688.856 511.335,1687.551 510.711,1686.7 510.485,1684.147      509.52,1681.708 507.932,1689.139 507.647,1690.047 505.946,1690.898 504.924,1690.274 503.166,1687.041 502.882,1688.345      502.031,1688.913 501.464,1689.707 500.556,1686.756 499.818,1689.252 498.684,1686.87 497.833,1686.473 497.266,1685.848      496.528,1685.962 496.018,1683.409 495.79,1684.884 495.563,1683.92 495.166,1683.182 494.259,1678.927 494.202,1683.239      491.876,1686.643 490.401,1688.231 488.472,1688.743 "
       i:knockout="Off" />
    <path
       style="fill:none;fill-opacity:0.75;fill-rule:evenodd;stroke:#eeeeec;stroke-width:1px;stroke-linecap:round;stroke-linejoin:miter;stroke-opacity:1"
       d="M 19.41127,19.26256 L 39.09954,13.74248"
       id="path31173"
       sodipodi:nodetypes="cc" />
  </g>
</svg>
