<?xml version="1.0" encoding="UTF-8" standalone="no"?>
<!-- Created with Inkscape (http://www.inkscape.org/) -->
<svg
   xmlns:i="http://ns.adobe.com/AdobeIllustrator/10.0/"
   xmlns:a="http://ns.adobe.com/AdobeSVGViewerExtensions/3.0/"
   xmlns:dc="http://purl.org/dc/elements/1.1/"
   xmlns:cc="http://web.resource.org/cc/"
   xmlns:rdf="http://www.w3.org/1999/02/22-rdf-syntax-ns#"
   xmlns:svg="http://www.w3.org/2000/svg"
   xmlns="http://www.w3.org/2000/svg"
   xmlns:sodipodi="http://sodipodi.sourceforge.net/DTD/sodipodi-0.dtd"
   xmlns:inkscape="http://www.inkscape.org/namespaces/inkscape"
   width="48px"
   height="48px"
   id="svg55470"
   sodipodi:version="0.32"
   inkscape:version="0.45.1"
   sodipodi:docbase="C:\dev\src\houdini\support\icons\DOP"
   sodipodi:docname="rbdhingeconstraint.svg"
   inkscape:output_extension="org.inkscape.output.svg.inkscape">
  <defs
     id="defs55472">
    <linearGradient
       y2="543.82031"
       x2="25.1073"
       y1="524.04688"
       x1="24.3057"
       gradientUnits="userSpaceOnUse"
       id="XMLID_1764_"
       gradientTransform="translate(-2.7282141,-503.72579)">
						<stop
   id="stop23028"
   style="stop-color:#ffffff;stop-opacity:0;"
   offset="0.0112" />

						
						
						
						
						<stop
   id="stop23038"
   style="stop-color:#7696ad;stop-opacity:1;"
   offset="0.8883" />

						<stop
   id="stop23040"
   style="stop-color:#ffffff;stop-opacity:0;"
   offset="1" />

						<a:midPointStop
   style="stop-color:#FFFFFF"
   offset="0.0112" />

						<a:midPointStop
   style="stop-color:#FFFFFF"
   offset="0.6435" />

						<a:midPointStop
   style="stop-color:#C8D5DE"
   offset="0.6536" />

						<a:midPointStop
   style="stop-color:#C8D5DE"
   offset="0.5" />

						<a:midPointStop
   style="stop-color:#C8D5DE"
   offset="0.8883" />

						<a:midPointStop
   style="stop-color:#C8D5DE"
   offset="0.5" />

						<a:midPointStop
   style="stop-color:#FFFFFF"
   offset="1" />

					</linearGradient>
    <radialGradient
       gradientUnits="userSpaceOnUse"
       fy="485.51559"
       fx="27.2031"
       r="56.502998"
       cy="485.51559"
       cx="27.2031"
       id="XMLID_1765_"
       gradientTransform="translate(-2.7282141,-502.86865)">
						<stop
   id="stop23045"
   style="stop-color:#528FCC"
   offset="0.8045" />

						<stop
   id="stop23047"
   style="stop-color:#FFFFFF"
   offset="0.8659" />

						<stop
   id="stop23049"
   style="stop-color:#3065A0"
   offset="0.9385" />

						<stop
   id="stop23051"
   style="stop-color:#3671B3"
   offset="1" />

						<a:midPointStop
   style="stop-color:#528FCC"
   offset="0.8045" />

						<a:midPointStop
   style="stop-color:#528FCC"
   offset="0.5" />

						<a:midPointStop
   style="stop-color:#FFFFFF"
   offset="0.8659" />

						<a:midPointStop
   style="stop-color:#FFFFFF"
   offset="0.5" />

						<a:midPointStop
   style="stop-color:#3065A0"
   offset="0.9385" />

						<a:midPointStop
   style="stop-color:#3065A0"
   offset="0.5" />

						<a:midPointStop
   style="stop-color:#3671B3"
   offset="1" />

					</radialGradient>
    <radialGradient
       gradientUnits="userSpaceOnUse"
       fy="541.24609"
       fx="4.1665001"
       r="10.3267"
       cy="541.24609"
       cx="4.1665001"
       id="XMLID_1766_"
       gradientTransform="translate(-2.7282141,-502.86865)">
						<stop
   id="stop23056"
   style="stop-color:#FFFFFF"
   offset="0" />

						<stop
   id="stop23058"
   style="stop-color:#3065A0"
   offset="1" />

						<a:midPointStop
   style="stop-color:#FFFFFF"
   offset="0" />

						<a:midPointStop
   style="stop-color:#FFFFFF"
   offset="0.5" />

						<a:midPointStop
   style="stop-color:#3065A0"
   offset="1" />

					</radialGradient>
  </defs>
  <sodipodi:namedview
     id="base"
     pagecolor="#ffffff"
     bordercolor="#666666"
     borderopacity="1.0"
     inkscape:pageopacity="0.0"
     inkscape:pageshadow="2"
     inkscape:zoom="7"
     inkscape:cx="24"
     inkscape:cy="24"
     inkscape:current-layer="layer1"
     showgrid="true"
     inkscape:grid-bbox="true"
     inkscape:document-units="px"
     inkscape:window-width="744"
     inkscape:window-height="573"
     inkscape:window-x="154"
     inkscape:window-y="168" />
  <metadata
     id="metadata55475">
    <rdf:RDF>
      <cc:Work
         rdf:about="">
        <dc:format>image/svg+xml</dc:format>
        <dc:type
           rdf:resource="http://purl.org/dc/dcmitype/StillImage" />
      </cc:Work>
    </rdf:RDF>
  </metadata>
  <g
     id="layer1"
     inkscape:label="Layer 1"
     inkscape:groupmode="layer">
    <path
       style="fill:url(#XMLID_1764_)"
       id="path23042"
       d="M 35.843786,38.31221 C 42.704786,36.78721 46.543786,35.11021 46.543786,35.11021 C 43.650786,35.11021 26.074786,28.27321 20.540786,21.10321 C 20.540786,21.10321 15.316786,22.15221 10.097786,22.32121 C 4.8787859,22.49021 -2.7282141,21.85721 -2.7282141,21.85721 C 0.54278586,29.65621 10.478786,42.62321 18.869786,40.44821 C 18.869786,40.44821 29.330786,39.76021 35.843786,38.31221 z "
       i:knockout="Off" />
    <path
       style="fill:url(#XMLID_1765_)"
       id="path23053"
       d="M 11.898786,38.414353 C 23.719786,39.576353 39.839786,37.780353 46.544786,33.604353 C 47.273786,33.139353 47.756786,32.165353 47.756786,30.940353 C 47.756786,29.020353 46.570786,27.213353 45.108786,26.904353 C 44.795786,26.839353 44.497786,26.845353 44.219786,26.917353 C 36.067786,30.042353 23.091786,30.899353 11.709786,30.575353 L 11.725786,30.575353 C 11.783786,30.575353 11.841786,30.581353 11.899786,30.591353 C 13.090786,30.797353 14.055786,32.784353 14.055786,35.031353 C 14.055786,37.278353 13.089786,38.618353 11.898786,38.414353 z "
       i:knockout="Off" />
    <path
       style="fill:url(#XMLID_1766_)"
       id="path23060"
       d="M 14.054786,35.031353 C 14.054786,37.278353 13.089786,38.618353 11.898786,38.414353 C 10.708786,38.210353 9.7437859,36.538353 9.7437859,34.291353 C 9.7437859,32.044353 10.708786,30.388353 11.898786,30.591353 C 13.089786,30.797353 14.054786,32.784353 14.054786,35.031353 z "
       i:knockout="Off" />
    <g
       transform="translate(-2.7282141,-502.86865)"
       id="g23062">
						<path
   style="fill:none;stroke:#192333;stroke-width:0.80000001"
   id="path23064"
   d="M 14.627,541.283 C 26.448,542.445 42.568,540.649 49.273,536.473 C 50.002,536.008 50.485,535.034 50.485,533.809 C 50.485,531.889 49.299,530.082 47.837,529.773 C 47.524,529.708 47.226,529.714 46.948,529.786 C 38.796,532.911 25.82,533.768 14.438,533.444 L 14.454,533.444 C 14.512,533.444 14.57,533.45 14.628,533.46"
   i:knockout="Off" />

						<path
   style="fill:none;stroke:#192333;stroke-width:0.80000001"
   id="path23066"
   d="M 14.627,541.283 C 13.437,541.079 12.472,539.407 12.472,537.16 C 12.472,534.913 13.437,533.257 14.627,533.46"
   i:knockout="Off" />

					</g>
    <line
       style="fill:none;stroke:#000000;stroke-width:0.69999999;stroke-linecap:round"
       id="line23068"
       y2="12.031378"
       x2="13.900784"
       y1="31.29035"
       x1="16.085785"
       i:knockout="Off" />
    <line
       style="fill:none;stroke:#000000;stroke-width:0.69999999;stroke-linecap:round"
       id="line23070"
       y2="10.41535"
       x2="38.742786"
       y1="28.441351"
       x1="41.893787"
       i:knockout="Off" />
    <circle
       transform="translate(-2.7282141,-502.86865)"
       sodipodi:ry="1.1059999"
       sodipodi:rx="1.1059999"
       sodipodi:cy="514.90002"
       sodipodi:cx="16.628"
       id="circle23072"
       r="1.1059999"
       cy="514.90002"
       cx="16.628"
       i:knockout="Off" />
    <circle
       transform="translate(-2.7282141,-502.86865)"
       sodipodi:ry="1.1059999"
       sodipodi:rx="1.1059999"
       sodipodi:cy="513.284"
       sodipodi:cx="41.471001"
       id="circle23074"
       r="1.1059999"
       cy="513.284"
       cx="41.471001"
       i:knockout="Off" />
  </g>
</svg>
