<?xml version="1.0" encoding="UTF-8" standalone="no"?>
<!-- Created with Inkscape (http://www.inkscape.org/) -->

<svg
   xmlns:dc="http://purl.org/dc/elements/1.1/"
   xmlns:cc="http://creativecommons.org/ns#"
   xmlns:rdf="http://www.w3.org/1999/02/22-rdf-syntax-ns#"
   xmlns:svg="http://www.w3.org/2000/svg"
   xmlns="http://www.w3.org/2000/svg"
   xmlns:xlink="http://www.w3.org/1999/xlink"
   xmlns:sodipodi="http://sodipodi.sourceforge.net/DTD/sodipodi-0.dtd"
   xmlns:inkscape="http://www.inkscape.org/namespaces/inkscape"
   width="48px"
   height="48px"
   id="svg5246"
   version="1.1"
   inkscape:version="0.48.5 r10040"
   sodipodi:docname="rbdobject.svg">
  <defs
     id="defs5248">
    <linearGradient
       inkscape:collect="always"
       id="linearGradient6670">
      <stop
         style="stop-color:#fcaf3e;stop-opacity:1;"
         offset="0"
         id="stop6672" />
      <stop
         style="stop-color:#fcaf3e;stop-opacity:0;"
         offset="1"
         id="stop6674" />
    </linearGradient>
    <linearGradient
       id="linearGradient6660">
      <stop
         style="stop-color:#fced3e;stop-opacity:1;"
         offset="0"
         id="stop6662" />
      <stop
         style="stop-color:#fcaf3e;stop-opacity:1;"
         offset="1"
         id="stop6664" />
    </linearGradient>
    <linearGradient
       inkscape:collect="always"
       id="linearGradient6650">
      <stop
         style="stop-color:#000000;stop-opacity:1;"
         offset="0"
         id="stop6652" />
      <stop
         style="stop-color:#000000;stop-opacity:0;"
         offset="1"
         id="stop6654" />
    </linearGradient>
    <linearGradient
       id="linearGradient6510">
      <stop
         style="stop-color:#d3d7cf;stop-opacity:1;"
         offset="0"
         id="stop6512" />
      <stop
         style="stop-color:#a3ac9b;stop-opacity:1;"
         offset="1"
         id="stop6514" />
    </linearGradient>
    <linearGradient
       id="linearGradient6426">
      <stop
         style="stop-color:#767676;stop-opacity:1;"
         offset="0"
         id="stop6428" />
      <stop
         style="stop-color:#000000;stop-opacity:1;"
         offset="1"
         id="stop6430" />
    </linearGradient>
    <linearGradient
       id="linearGradient6414">
      <stop
         style="stop-color:#204a87;stop-opacity:1;"
         offset="0"
         id="stop6416" />
      <stop
         style="stop-color:#0b192e;stop-opacity:1;"
         offset="1"
         id="stop6418" />
    </linearGradient>
    <linearGradient
       id="linearGradient6357">
      <stop
         style="stop-color:#204a87;stop-opacity:1;"
         offset="0"
         id="stop6359" />
      <stop
         style="stop-color:#c7d8f2;stop-opacity:1;"
         offset="1"
         id="stop6361" />
    </linearGradient>
    <linearGradient
       id="linearGradient6347">
      <stop
         style="stop-color:#b7cee7;stop-opacity:1;"
         offset="0"
         id="stop6349" />
      <stop
         id="stop6355"
         offset="0.27057368"
         style="stop-color:#468dd5;stop-opacity:1;" />
      <stop
         style="stop-color:#194a80;stop-opacity:1;"
         offset="1"
         id="stop6351" />
    </linearGradient>
    <linearGradient
       id="linearGradient6242">
      <stop
         style="stop-color:#f24d4d;stop-opacity:1;"
         offset="0"
         id="stop6244" />
      <stop
         style="stop-color:#a40000;stop-opacity:1"
         offset="1"
         id="stop6246" />
    </linearGradient>
    <linearGradient
       inkscape:collect="always"
       xlink:href="#linearGradient6242"
       id="linearGradient6248"
       x1="12.98046"
       y1="10.112113"
       x2="16.869548"
       y2="10.112113"
       gradientUnits="userSpaceOnUse" />
    <linearGradient
       inkscape:collect="always"
       xlink:href="#linearGradient6242-6"
       id="linearGradient6248-3"
       x1="12.98046"
       y1="10.112113"
       x2="16.869549"
       y2="10.112113"
       gradientUnits="userSpaceOnUse" />
    <linearGradient
       id="linearGradient6242-6">
      <stop
         style="stop-color:#f24d4d;stop-opacity:1;"
         offset="0"
         id="stop6244-2" />
      <stop
         style="stop-color:#a40000;stop-opacity:1"
         offset="1"
         id="stop6246-1" />
    </linearGradient>
    <linearGradient
       gradientTransform="translate(-12.98046,-8.9937785)"
       y2="10.112113"
       x2="16.869549"
       y1="10.112113"
       x1="12.98046"
       gradientUnits="userSpaceOnUse"
       id="linearGradient6265"
       xlink:href="#linearGradient6242-6"
       inkscape:collect="always" />
    <linearGradient
       inkscape:collect="always"
       xlink:href="#linearGradient6242-8"
       id="linearGradient6248-4"
       x1="28.688332"
       y1="10.718204"
       x2="32.021835"
       y2="12.384956"
       gradientUnits="userSpaceOnUse" />
    <linearGradient
       id="linearGradient6242-8">
      <stop
         style="stop-color:#f24d4d;stop-opacity:1;"
         offset="0"
         id="stop6244-5" />
      <stop
         style="stop-color:#a40000;stop-opacity:1"
         offset="1"
         id="stop6246-0" />
    </linearGradient>
    <linearGradient
       gradientTransform="translate(-12.98046,-8.9937785)"
       y2="10.112113"
       x2="16.869549"
       y1="10.112113"
       x1="12.98046"
       gradientUnits="userSpaceOnUse"
       id="linearGradient6265-0"
       xlink:href="#linearGradient6242-8"
       inkscape:collect="always" />
    <linearGradient
       inkscape:collect="always"
       xlink:href="#linearGradient6242-0"
       id="linearGradient6248-0"
       x1="27.577164"
       y1="12.688002"
       x2="30.910669"
       y2="14.304246"
       gradientUnits="userSpaceOnUse" />
    <linearGradient
       id="linearGradient6242-0">
      <stop
         style="stop-color:#f24d4d;stop-opacity:1;"
         offset="0"
         id="stop6244-8" />
      <stop
         style="stop-color:#a40000;stop-opacity:1"
         offset="1"
         id="stop6246-13" />
    </linearGradient>
    <linearGradient
       gradientTransform="translate(-12.98046,-8.9937785)"
       y2="10.112113"
       x2="16.869549"
       y1="10.112113"
       x1="12.98046"
       gradientUnits="userSpaceOnUse"
       id="linearGradient6265-5"
       xlink:href="#linearGradient6242-0"
       inkscape:collect="always" />
    <linearGradient
       id="linearGradient6242-81">
      <stop
         style="stop-color:#f24d4d;stop-opacity:1;"
         offset="0"
         id="stop6244-89" />
      <stop
         style="stop-color:#a40000;stop-opacity:1"
         offset="1"
         id="stop6246-09" />
    </linearGradient>
    <linearGradient
       gradientTransform="translate(-12.98046,-8.9937785)"
       y2="10.112113"
       x2="16.869549"
       y1="10.112113"
       x1="12.98046"
       gradientUnits="userSpaceOnUse"
       id="linearGradient6265-7"
       xlink:href="#linearGradient6242-81"
       inkscape:collect="always" />
    <linearGradient
       id="linearGradient6242-2">
      <stop
         style="stop-color:#f24d4d;stop-opacity:1;"
         offset="0"
         id="stop6244-9" />
      <stop
         style="stop-color:#a40000;stop-opacity:1"
         offset="1"
         id="stop6246-6" />
    </linearGradient>
    <linearGradient
       gradientTransform="translate(-12.98046,-8.9937785)"
       y2="10.112113"
       x2="16.869549"
       y1="10.112113"
       x1="12.98046"
       gradientUnits="userSpaceOnUse"
       id="linearGradient6265-75"
       xlink:href="#linearGradient6242-2"
       inkscape:collect="always" />
    <linearGradient
       id="linearGradient6357-0">
      <stop
         style="stop-color:#204a87;stop-opacity:1;"
         offset="0"
         id="stop6359-4" />
      <stop
         style="stop-color:#c7d8f2;stop-opacity:1;"
         offset="1"
         id="stop6361-8" />
    </linearGradient>
    <linearGradient
       y2="27.109051"
       x2="10.014604"
       y1="25.695204"
       x1="10.063928"
       gradientUnits="userSpaceOnUse"
       id="linearGradient6380"
       xlink:href="#linearGradient6357-0"
       inkscape:collect="always" />
    <linearGradient
       id="linearGradient6357-2">
      <stop
         style="stop-color:#204a87;stop-opacity:1;"
         offset="0"
         id="stop6359-5" />
      <stop
         style="stop-color:#c7d8f2;stop-opacity:1;"
         offset="1"
         id="stop6361-1" />
    </linearGradient>
    <linearGradient
       y2="27.109051"
       x2="10.014604"
       y1="25.695204"
       x1="10.063928"
       gradientUnits="userSpaceOnUse"
       id="linearGradient6380-0"
       xlink:href="#linearGradient6357-2"
       inkscape:collect="always" />
    <linearGradient
       inkscape:collect="always"
       xlink:href="#linearGradient6426"
       id="linearGradient6432"
       x1="12.359147"
       y1="4.8565617"
       x2="20.542198"
       y2="20.513926"
       gradientUnits="userSpaceOnUse" />
    <linearGradient
       inkscape:collect="always"
       xlink:href="#linearGradient6426-2"
       id="linearGradient6432-2"
       x1="29.986309"
       y1="6.0687447"
       x2="28.219358"
       y2="26.221287"
       gradientUnits="userSpaceOnUse" />
    <linearGradient
       id="linearGradient6426-2">
      <stop
         style="stop-color:#767676;stop-opacity:1;"
         offset="0"
         id="stop6428-0" />
      <stop
         style="stop-color:#000000;stop-opacity:1;"
         offset="1"
         id="stop6430-1" />
    </linearGradient>
    <linearGradient
       gradientTransform="translate(-11.601533,-3.6858075)"
       y2="20.513926"
       x2="20.542198"
       y1="4.8565617"
       x1="12.359147"
       gradientUnits="userSpaceOnUse"
       id="linearGradient6472"
       xlink:href="#linearGradient6426-2"
       inkscape:collect="always" />
    <linearGradient
       id="linearGradient6426-4">
      <stop
         style="stop-color:#767676;stop-opacity:1;"
         offset="0"
         id="stop6428-7" />
      <stop
         style="stop-color:#000000;stop-opacity:1;"
         offset="1"
         id="stop6430-5" />
    </linearGradient>
    <linearGradient
       gradientTransform="translate(-11.601533,-3.6858075)"
       y2="20.513926"
       x2="20.542198"
       y1="4.8565617"
       x1="12.359147"
       gradientUnits="userSpaceOnUse"
       id="linearGradient6472-8"
       xlink:href="#linearGradient6426-4"
       inkscape:collect="always" />
    <linearGradient
       inkscape:collect="always"
       xlink:href="#linearGradient6510"
       id="linearGradient6516"
       x1="16.061424"
       y1="14.832397"
       x2="19.147472"
       y2="15.034428"
       gradientUnits="userSpaceOnUse" />
    <linearGradient
       inkscape:collect="always"
       xlink:href="#linearGradient6510"
       id="linearGradient6520"
       gradientUnits="userSpaceOnUse"
       x1="17.197884"
       y1="15.113148"
       x2="20.006985"
       y2="14.884303"
       gradientTransform="matrix(0.77407155,0.67797106,-0.61476146,0.85366137,24.212907,-6.691571)" />
    <linearGradient
       id="linearGradient6510-9">
      <stop
         style="stop-color:#d3d7cf;stop-opacity:1;"
         offset="0"
         id="stop6512-4" />
      <stop
         style="stop-color:#a3ac9b;stop-opacity:1;"
         offset="1"
         id="stop6514-8" />
    </linearGradient>
    <linearGradient
       y2="14.884303"
       x2="20.006985"
       y1="15.113148"
       x1="17.197884"
       gradientTransform="matrix(0.77407155,0.67797106,-0.61476146,0.85366137,3.26432,-13.146282)"
       gradientUnits="userSpaceOnUse"
       id="linearGradient6539"
       xlink:href="#linearGradient6510-9"
       inkscape:collect="always" />
    <linearGradient
       inkscape:collect="always"
       xlink:href="#linearGradient6510"
       id="linearGradient6640"
       gradientUnits="userSpaceOnUse"
       gradientTransform="matrix(0.77407155,0.67797106,-0.61476146,0.85366137,24.212907,-6.691571)"
       x1="23.176302"
       y1="22.230932"
       x2="26.670483"
       y2="22.769171" />
    <linearGradient
       inkscape:collect="always"
       xlink:href="#linearGradient6242-81"
       id="linearGradient6642"
       gradientUnits="userSpaceOnUse"
       x1="30.860161"
       y1="22.486483"
       x2="33.688587"
       y2="25.314909" />
    <linearGradient
       inkscape:collect="always"
       xlink:href="#linearGradient6242-2"
       id="linearGradient6644"
       gradientUnits="userSpaceOnUse"
       x1="29.597469"
       y1="23.547142"
       x2="32.4259"
       y2="26.325062" />
    <linearGradient
       inkscape:collect="always"
       xlink:href="#linearGradient6426-4"
       id="linearGradient6646"
       gradientUnits="userSpaceOnUse"
       x1="31.350016"
       y1="20.665449"
       x2="31.855906"
       y2="37.332966" />
    <radialGradient
       inkscape:collect="always"
       xlink:href="#linearGradient6650"
       id="radialGradient6656"
       cx="13.535714"
       cy="42.607143"
       fx="13.535714"
       fy="42.607143"
       r="10.107142"
       gradientTransform="matrix(1,0,0,0.38515902,0,26.196618)"
       gradientUnits="userSpaceOnUse" />
    <radialGradient
       inkscape:collect="always"
       xlink:href="#linearGradient6670"
       id="radialGradient6676"
       cx="23.392857"
       cy="22.321428"
       fx="23.392857"
       fy="22.321428"
       r="20.928572"
       gradientUnits="userSpaceOnUse" />
    <radialGradient
       inkscape:collect="always"
       xlink:href="#linearGradient6347"
       id="radialGradient6684"
       gradientUnits="userSpaceOnUse"
       gradientTransform="matrix(1.2806133,0.01092294,-0.01086745,1.2276761,-3.4168436,-5.9746605)"
       cx="13.174594"
       cy="25.776257"
       fx="13.174594"
       fy="25.776257"
       r="8.4866601" />
    <linearGradient
       inkscape:collect="always"
       xlink:href="#linearGradient6414"
       id="linearGradient6686"
       gradientUnits="userSpaceOnUse"
       x1="9.9692163"
       y1="22.10391"
       x2="19.797272"
       y2="34.759346" />
    <linearGradient
       inkscape:collect="always"
       xlink:href="#linearGradient6357"
       id="linearGradient6688"
       gradientUnits="userSpaceOnUse"
       x1="10.063928"
       y1="25.695204"
       x2="10.014604"
       y2="27.109051" />
    <linearGradient
       inkscape:collect="always"
       xlink:href="#linearGradient6357-2"
       id="linearGradient6690"
       gradientUnits="userSpaceOnUse"
       x1="10.917933"
       y1="30.288177"
       x2="9.9261026"
       y2="30.545771" />
    <linearGradient
       inkscape:collect="always"
       xlink:href="#linearGradient6357-0"
       id="linearGradient6692"
       gradientUnits="userSpaceOnUse"
       x1="12.858924"
       y1="27.889481"
       x2="13.067599"
       y2="29.346352" />
  </defs>
  <sodipodi:namedview
     id="base"
     pagecolor="#ffffff"
     bordercolor="#666666"
     borderopacity="1.0"
     inkscape:pageopacity="0.0"
     inkscape:pageshadow="2"
     inkscape:zoom="14"
     inkscape:cx="30.583279"
     inkscape:cy="12.903626"
     inkscape:current-layer="layer1"
     showgrid="true"
     inkscape:grid-bbox="true"
     inkscape:document-units="px"
     inkscape:window-width="2560"
     inkscape:window-height="1537"
     inkscape:window-x="-8"
     inkscape:window-y="-8"
     inkscape:window-maximized="1" />
  <metadata
     id="metadata5251">
    <rdf:RDF>
      <cc:Work
         rdf:about="">
        <dc:format>image/svg+xml</dc:format>
        <dc:type
           rdf:resource="http://purl.org/dc/dcmitype/StillImage" />
        <dc:title></dc:title>
      </cc:Work>
    </rdf:RDF>
  </metadata>
  <g
     id="layer1"
     inkscape:label="Layer 1"
     inkscape:groupmode="layer">
    <path
       sodipodi:type="arc"
       style="color:#000000;fill:url(#radialGradient6676);fill-opacity:1;fill-rule:nonzero;stroke:none;stroke-width:0.5;marker:none;visibility:visible;display:inline;overflow:visible;enable-background:accumulate"
       id="path6668"
       sodipodi:cx="23.392857"
       sodipodi:cy="22.321428"
       sodipodi:rx="20.678572"
       sodipodi:ry="20.678572"
       d="m 44.071428,22.321428 a 20.678572,20.678572 0 1 1 -41.3571431,0 20.678572,20.678572 0 1 1 41.3571431,0 z"
       transform="matrix(1.0060496,0,0,1.0060455,-0.01668652,-0.00194354)" />
    <path
       sodipodi:type="arc"
       style="color:#000000;fill:url(#radialGradient6656);fill-opacity:1;fill-rule:nonzero;stroke:none;stroke-width:0.5;marker:none;visibility:visible;display:inline;overflow:visible;enable-background:accumulate"
       id="path6648"
       sodipodi:cx="13.535714"
       sodipodi:cy="42.607143"
       sodipodi:rx="10.107142"
       sodipodi:ry="3.8928571"
       d="m 23.642857,42.607143 a 10.107142,3.8928571 0 1 1 -20.2142853,0 10.107142,3.8928571 0 1 1 20.2142853,0 z"
       transform="matrix(1.0166815,0,0,1.0166773,0.71127693,0.86902794)" />
    <g
       id="g6595"
       transform="matrix(1.3032464,-0.12159712,0.12159662,1.303241,-14.003589,-3.0270701)">
      <path
         sodipodi:nodetypes="ssssccssss"
         inkscape:connector-curvature="0"
         id="path6140"
         d="m 14.243151,3.957349 c 1.149264,-0.172676 2.428754,0.7056503 2.727412,2.171828 0.311632,1.5298664 -0.360228,3.963957 -0.151523,5.606347 0.345674,2.720254 3.054786,4.904357 3.384011,7.626652 0.321108,2.655174 -1.464721,8.232742 -1.464721,8.232742 -0.690271,0.714194 -2.087649,0.867044 -3.131473,0.555584 0,0 -3.282073,-4.33759 -3.687057,-6.919544 -0.485118,-3.092844 1.778143,-6.11422 1.666752,-9.242896 -0.06305,-1.771049 -1.305289,-3.6077657 -1.313199,-5.1517782 -0.008,-1.5660576 0.819932,-2.7061682 1.969798,-2.8789348 z"
         style="color:#000000;fill:#eeeeec;stroke:none;stroke-width:0.5;marker:none;visibility:visible;display:inline;overflow:visible;enable-background:accumulate" />
      <path
         sodipodi:nodetypes="csccsssc"
         inkscape:connector-curvature="0"
         id="path6422"
         d="m 14.344166,4.0078566 c 3.199631,2.9242321 0.654005,5.6927301 0.909137,8.4852814 0.314815,3.445821 2.359011,10.154723 0.707107,15.657365 0,0 1.74999,0.08059 2.718976,-0.493217 0.526507,-1.323584 1.437319,-4.356654 1.574173,-6.577851 C 20.464531,17.655291 17.393436,14.779791 16.920055,11.38197 16.684685,9.692538 17.294878,8.0222775 17.071578,6.3312075 16.848297,4.6402796 15.507152,3.8550236 14.344166,4.0078566 z"
         style="fill:url(#linearGradient6516);fill-opacity:1;stroke:none" />
      <path
         sodipodi:nodetypes="ccccc"
         inkscape:connector-curvature="0"
         id="path6148"
         d="m 12.98046,9.7657262 c 0.927915,-0.7848273 2.674986,-1.0331739 3.889088,-0.4545687 l -0.101016,1.5657365 c -1.036126,-0.441117 -2.314714,-0.34667 -3.282996,0.353553 z"
         style="color:#000000;fill:url(#linearGradient6248);fill-opacity:1;fill-rule:nonzero;stroke:none;stroke-width:0.1;marker:none;visibility:visible;display:inline;overflow:visible;enable-background:accumulate" />
      <path
         sodipodi:nodetypes="ccccc"
         inkscape:connector-curvature="0"
         id="path6156"
         d="m 13.586552,12.291108 c 0.809632,-0.713374 2.188871,-0.671986 3.282996,-0.404061 l 0.454568,1.464721 c -1.363706,-0.447067 -2.676904,-0.309821 -4.091118,0.404061 z"
         style="color:#000000;fill:url(#linearGradient6248-3);fill-opacity:1;fill-rule:nonzero;stroke:none;stroke-width:0.1;marker:none;visibility:visible;display:inline;overflow:visible;enable-background:accumulate" />
      <path
         style="color:#000000;fill:none;stroke:url(#linearGradient6432);stroke-width:0.38199899;stroke-linecap:butt;stroke-linejoin:miter;stroke-miterlimit:4;stroke-opacity:1;stroke-dasharray:none;stroke-dashoffset:0;marker:none;visibility:visible;display:inline;overflow:visible;enable-background:accumulate"
         d="m 14.243151,3.957349 c 1.149264,-0.172676 2.428754,0.7056503 2.727412,2.171828 0.311632,1.5298664 -0.360228,3.963957 -0.151523,5.606347 0.345674,2.720254 3.054786,4.904357 3.384011,7.626652 0.321108,2.655174 -1.464721,8.232742 -1.464721,8.232742 -0.690271,0.714194 -2.087649,0.867044 -3.131473,0.555584 0,0 -3.282073,-4.33759 -3.687057,-6.919544 -0.485118,-3.092844 1.778143,-6.11422 1.666752,-9.242896 -0.06305,-1.771049 -1.305289,-3.6077657 -1.313199,-5.1517782 -0.008,-1.5660576 0.819932,-2.7061682 1.969798,-2.8789348 z"
         id="path6424"
         inkscape:connector-curvature="0"
         sodipodi:nodetypes="ssssccssss" />
      <path
         sodipodi:type="arc"
         style="color:#000000;fill:#ffffff;fill-opacity:1;fill-rule:nonzero;stroke:none;stroke-width:0.5;marker:none;visibility:visible;display:inline;overflow:visible;enable-background:accumulate"
         id="path6559"
         sodipodi:cx="33.688587"
         sodipodi:cy="20.877403"
         sodipodi:rx="0.80812204"
         sodipodi:ry="0.80812204"
         d="m 34.496709,20.877403 c 0,0.446314 -0.361808,0.808122 -0.808122,0.808122 -0.446313,0 -0.808122,-0.361808 -0.808122,-0.808122 0,-0.446313 0.361809,-0.808122 0.808122,-0.808122 0.446314,0 0.808122,0.361809 0.808122,0.808122 z"
         transform="translate(-19.748482,-4.3941636)" />
    </g>
    <g
       id="g6568"
       transform="matrix(1.2759322,0.54548717,-0.5454894,1.275927,6.2137158,-23.022322)">
      <path
         sodipodi:nodetypes="sssssssccs"
         inkscape:connector-curvature="0"
         id="path6116"
         d="m 22.273864,18.301515 c 1.3414,-2.482871 4.438558,-3.672843 5.858884,-6.111423 0.857867,-1.472886 0.617148,-3.7403584 1.464722,-4.8992396 0.64449,-0.8812065 2.136138,-1.4082011 3.131472,-0.9596449 0.927326,0.4179078 1.478759,1.7839904 1.262691,2.7779195 -0.432232,1.988295 -2.40808,3.011843 -3.030457,4.798225 -0.880226,2.526476 0.213811,5.529134 -0.85863,7.980205 -1.128781,2.579837 -5.555839,6.363961 -5.555839,6.363961 -1.273985,-0.0602 -2.547712,-0.562804 -3.282996,-1.565737 0,0 -0.506079,-5.577788 1.010153,-8.384266 z"
         style="color:#000000;fill:#eeeeec;fill-opacity:1;fill-rule:nonzero;stroke:none;stroke-width:0.5;marker:none;visibility:visible;display:inline;overflow:visible;enable-background:accumulate" />
      <path
         style="fill:url(#linearGradient6520);fill-opacity:1;stroke:none"
         d="m 32.852443,6.4547107 c 1.037644,4.3470983 -3.266414,5.5486423 -4.058119,8.4155093 -1.066547,3.862106 -2.073064,8.166631 -7.845737,11.744081 0,0 2.326884,1.512053 3.6975,1.494804 1.267145,-0.780238 4.509667,-3.693155 5.720219,-6.458662 0.786281,-1.796258 -0.411975,-5.043999 0.603337,-7.507911 0.692017,-1.679355 1.547427,-2.411892 2.565704,-3.85536 1.046317,-1.4832165 0.311286,-3.174458 -0.682904,-3.8324613 z"
         id="path6518"
         inkscape:connector-curvature="0"
         sodipodi:nodetypes="csccsssc" />
      <path
         sodipodi:nodetypes="ccccc"
         inkscape:connector-curvature="0"
         id="path6124"
         d="m 28.688332,10.371818 c 1.11265,-0.9150661 3.138735,-0.130063 3.636549,1.515229 l -0.909137,1.212183 c -0.330095,-1.17915 -1.994717,-2.232203 -3.030457,-1.414214 z"
         style="color:#000000;fill:url(#linearGradient6248-4);fill-opacity:1;fill-rule:nonzero;stroke:none;stroke-width:0.1;marker:none;visibility:visible;display:inline;overflow:visible;enable-background:accumulate" />
      <path
         sodipodi:nodetypes="ccccc"
         inkscape:connector-curvature="0"
         id="path6132"
         d="m 27.88021,12.493138 c 1.319745,-0.564933 2.584275,0.252669 3.181981,1.262691 l -0.454569,1.26269 C 30.04371,13.789141 28.338846,13.183978 27.122596,13.503291 z"
         style="color:#000000;fill:url(#linearGradient6248-0);fill-opacity:1;fill-rule:nonzero;stroke:none;stroke-width:0.1;marker:none;visibility:visible;display:inline;overflow:visible;enable-background:accumulate" />
      <path
         style="color:#000000;fill:none;stroke:url(#linearGradient6432-2);stroke-width:0.36032316;stroke-linecap:butt;stroke-linejoin:miter;stroke-miterlimit:4;stroke-opacity:1;stroke-dasharray:none;stroke-dashoffset:0;marker:none;visibility:visible;display:inline;overflow:visible;enable-background:accumulate"
         d="m 22.273864,18.301515 c 1.3414,-2.482871 4.438558,-3.672843 5.858884,-6.111423 0.857867,-1.472886 0.617148,-3.7403584 1.464722,-4.8992396 0.64449,-0.8812065 2.136138,-1.4082011 3.131472,-0.9596449 0.927326,0.4179078 1.478759,1.7839904 1.262691,2.7779195 -0.432232,1.988295 -2.40808,3.011843 -3.030457,4.798225 -0.880226,2.526476 0.213811,5.529134 -0.85863,7.980205 -1.128781,2.579837 -5.555839,6.363961 -5.555839,6.363961 -1.273985,-0.0602 -2.547712,-0.562804 -3.282996,-1.565737 0,0 -0.506079,-5.577788 1.010153,-8.384266 z"
         id="path6474"
         inkscape:connector-curvature="0"
         sodipodi:nodetypes="sssssssccs" />
    </g>
    <path
       sodipodi:type="arc"
       style="color:#000000;fill:url(#radialGradient6684);fill-opacity:1;stroke:url(#linearGradient6686);stroke-width:0.52528286;stroke-linecap:butt;stroke-linejoin:miter;stroke-miterlimit:4;stroke-opacity:1;stroke-dasharray:none;stroke-dashoffset:0;marker:none;visibility:visible;display:inline;overflow:visible;enable-background:accumulate"
       id="path6164"
       sodipodi:cx="15.556349"
       sodipodi:cy="27.897964"
       sodipodi:rx="8.2327433"
       sodipodi:ry="8.0812206"
       d="m 23.789092,27.897964 a 8.2327433,8.0812206 0 1 1 -16.4654865,0 8.2327433,8.0812206 0 1 1 16.4654865,0 z"
       transform="matrix(1.4146148,0,0,1.4411125,-7.5012043,-6.5760046)" />
    <path
       sodipodi:type="arc"
       style="color:#000000;fill:#000000;stroke:url(#linearGradient6688);stroke-width:0.27406719;stroke-linecap:butt;stroke-linejoin:miter;stroke-miterlimit:4;stroke-opacity:1;stroke-dasharray:none;stroke-dashoffset:0;marker:none;visibility:visible;display:inline;overflow:visible;enable-background:accumulate"
       id="path6166"
       sodipodi:cx="10.025764"
       sodipodi:cy="25.902912"
       sodipodi:rx="0.58083773"
       sodipodi:ry="1.085914"
       d="m 10.606602,25.902912 a 0.58083773,1.085914 0 1 1 -1.1616753,0 0.58083773,1.085914 0 1 1 1.1616753,0 z"
       transform="matrix(1.7016111,0.69253741,-0.70626155,1.6685452,8.5249172,-19.501648)" />
    <path
       sodipodi:type="arc"
       style="color:#000000;fill:#000000;fill-opacity:1;fill-rule:nonzero;stroke:url(#linearGradient6690);stroke-width:0.28229257;stroke-linecap:butt;stroke-linejoin:miter;stroke-miterlimit:4;stroke-opacity:1;stroke-dasharray:none;stroke-dashoffset:0;marker:none;visibility:visible;display:inline;overflow:visible;enable-background:accumulate"
       id="path6168"
       sodipodi:cx="10.707617"
       sodipodi:cy="29.968777"
       sodipodi:rx="0.65659916"
       sodipodi:ry="1.2626907"
       d="m 11.364216,29.968777 a 0.65659916,1.2626907 0 1 1 -1.313198,0 0.65659916,1.2626907 0 1 1 1.313198,0 z"
       transform="matrix(1.6503016,-0.67091082,0.68187119,1.6237747,-30.558648,-4.0418125)" />
    <path
       sodipodi:type="arc"
       style="color:#000000;fill:#000000;fill-opacity:1;fill-rule:nonzero;stroke:url(#linearGradient6692);stroke-width:0.29362169;stroke-linecap:butt;stroke-linejoin:miter;stroke-miterlimit:4;stroke-opacity:1;stroke-dasharray:none;stroke-dashoffset:0;marker:none;visibility:visible;display:inline;overflow:visible;enable-background:accumulate"
       id="path6170"
       sodipodi:cx="12.854191"
       sodipodi:cy="28.099995"
       sodipodi:rx="1.1364216"
       sodipodi:ry="1.1616755"
       d="m 13.990612,28.099995 a 1.1364216,1.1616755 0 1 1 -2.272843,0 1.1364216,1.1616755 0 1 1 2.272843,0 z"
       transform="matrix(1.7033719,0,0,1.7023722,-10.136891,-13.549296)" />
    <path
       transform="matrix(1.3447857,0,0,1.3699753,-6.4149176,-4.591422)"
       d="m 23.789092,27.897964 a 8.2327433,8.0812206 0 1 1 -16.4654865,0 8.2327433,8.0812206 0 1 1 16.4654865,0 z"
       sodipodi:ry="8.0812206"
       sodipodi:rx="8.2327433"
       sodipodi:cy="27.897964"
       sodipodi:cx="15.556349"
       id="path6682"
       style="color:#000000;fill:none;stroke:#729fcf;stroke-width:0.36837241;stroke-linecap:butt;stroke-linejoin:miter;stroke-miterlimit:4;stroke-opacity:1;stroke-dasharray:none;stroke-dashoffset:0;marker:none;visibility:visible;display:inline;overflow:visible;enable-background:accumulate"
       sodipodi:type="arc" />
    <g
       id="g6632"
       transform="matrix(1.7576727,-0.15533282,0.15533346,1.7576655,-20.687016,-8.3426362)">
      <path
         sodipodi:nodetypes="cssssssscc"
         inkscape:connector-curvature="0"
         id="path5319"
         d="m 21.768787,31.837559 c 0,0 1.296755,-4.87901 3.080966,-6.464976 1.973327,-1.754069 3.371501,-0.870783 5.151778,-1.969797 1.706242,-1.053311 1.60583,-3.346453 3.080965,-4.040611 1.023483,-0.481623 2.620055,-0.581638 3.384011,0.252538 0.852879,0.931273 0.563103,2.684374 -0.05051,3.788073 -0.728457,1.310267 -3.062978,1.3754 -3.889087,2.626397 -0.935069,1.415997 -0.362603,3.850753 -2.626397,5.757869 -1.657582,1.396418 -6.313453,2.171828 -6.313453,2.171828 -0.769471,-0.212908 -1.69928,-1.361134 -1.818273,-2.121321 z"
         style="color:#000000;fill:#eeeeec;fill-opacity:1;fill-rule:nonzero;stroke:none;stroke-width:0.5;marker:none;visibility:visible;display:inline;overflow:visible;enable-background:accumulate" />
      <path
         sodipodi:nodetypes="cscccccccccccccc"
         inkscape:connector-curvature="0"
         id="path6522"
         d="m 21.970818,31.686036 c 5.446772,0.116447 7.408278,-3.581585 9.444927,-6.768021 1.279241,-2.001436 3.881374,-3.086605 3.131472,-5.808378 l 1.515229,0.151523 0.85863,1.212183 0,2.171828 -0.85863,1.313198 -2.727412,1.313199 -1.010153,0.858629 -0.808122,3.485027 -1.161675,1.868782 -1.414214,1.06066 -3.282995,0.85863 -2.171828,0.606091 -1.363706,-1.161675 z"
         style="color:#000000;fill:url(#linearGradient6640);fill-opacity:1;fill-rule:nonzero;stroke:none;stroke-width:1px;marker:none;visibility:visible;display:inline;overflow:visible;enable-background:accumulate" />
      <path
         sodipodi:nodetypes="ccccc"
         inkscape:connector-curvature="0"
         id="path6089"
         d="m 31.314729,21.938064 c 0.08367,1.949448 1.131899,2.729422 2.97995,2.929442 l -1.313198,0.6566 c -1.637327,-0.262743 -2.213724,-0.944095 -2.373859,-2.525381 z"
         style="color:#000000;fill:url(#linearGradient6642);fill-opacity:1;fill-rule:nonzero;stroke:none;stroke-width:0.1;marker:none;visibility:visible;display:inline;overflow:visible;enable-background:accumulate" />
      <path
         sodipodi:nodetypes="ccccc"
         inkscape:connector-curvature="0"
         id="path6108"
         d="m 30.304576,23.200755 c -0.415232,1.616579 0.693557,2.876525 2.373859,2.424366 l -0.606092,0.959645 c -1.927668,1.045053 -3.53549,-1.74255 -2.777919,-2.676904 z"
         style="color:#000000;fill:url(#linearGradient6644);fill-opacity:1;fill-rule:nonzero;stroke:none;stroke-width:0.1;marker:none;visibility:visible;display:inline;overflow:visible;enable-background:accumulate" />
      <path
         style="color:#000000;fill:none;stroke:url(#linearGradient6646);stroke-width:0.28336322;stroke-linecap:butt;stroke-linejoin:miter;stroke-miterlimit:4;stroke-opacity:1;stroke-dasharray:none;stroke-dashoffset:0;marker:none;visibility:visible;display:inline;overflow:visible;enable-background:accumulate"
         d="m 21.768787,31.837559 c 0,0 1.296755,-4.87901 3.080966,-6.464976 1.973327,-1.754069 3.371501,-0.870783 5.151778,-1.969797 1.706242,-1.053311 1.323672,-2.291427 2.42632,-3.492279 1.037473,-1.129872 3.2747,-1.12997 4.038656,-0.295794 0.852879,0.931273 0.563103,2.684374 -0.05051,3.788073 -0.728457,1.310267 -3.062978,1.3754 -3.889087,2.626397 -0.935069,1.415997 -0.362603,3.850753 -2.626397,5.757869 -1.657582,1.396418 -6.313453,2.171828 -6.313453,2.171828 -0.769471,-0.212908 -1.69928,-1.361134 -1.818273,-2.121321 z"
         id="path6492"
         inkscape:connector-curvature="0"
         sodipodi:nodetypes="cssssssscc" />
      <path
         transform="translate(-0.45456865,-0.15152288)"
         d="m 34.496709,20.877403 c 0,0.446314 -0.361808,0.808122 -0.808122,0.808122 -0.446313,0 -0.808122,-0.361808 -0.808122,-0.808122 0,-0.446313 0.361809,-0.808122 0.808122,-0.808122 0.446314,0 0.808122,0.361809 0.808122,0.808122 z"
         sodipodi:ry="0.80812204"
         sodipodi:rx="0.80812204"
         sodipodi:cy="20.877403"
         sodipodi:cx="33.688587"
         id="path6557"
         style="color:#000000;fill:#ffffff;fill-opacity:1;fill-rule:nonzero;stroke:none;stroke-width:0.5;marker:none;visibility:visible;display:inline;overflow:visible;enable-background:accumulate"
         sodipodi:type="arc" />
    </g>
  </g>
</svg>
