<?xml version="1.0" encoding="UTF-8" standalone="no"?>
<!-- Created with Inkscape (http://www.inkscape.org/) -->
<svg
   xmlns:a="http://ns.adobe.com/AdobeSVGViewerExtensions/3.0/"
   xmlns:i="http://ns.adobe.com/AdobeIllustrator/10.0/"
   xmlns:dc="http://purl.org/dc/elements/1.1/"
   xmlns:cc="http://web.resource.org/cc/"
   xmlns:rdf="http://www.w3.org/1999/02/22-rdf-syntax-ns#"
   xmlns:svg="http://www.w3.org/2000/svg"
   xmlns="http://www.w3.org/2000/svg"
   xmlns:sodipodi="http://sodipodi.sourceforge.net/DTD/sodipodi-0.dtd"
   xmlns:inkscape="http://www.inkscape.org/namespaces/inkscape"
   width="48px"
   height="48px"
   id="svg38127"
   sodipodi:version="0.32"
   inkscape:version="0.45.1"
   sodipodi:docbase="C:\dev\src\houdini\support\icons\DOP"
   sodipodi:docname="rippleobject.svg"
   inkscape:output_extension="org.inkscape.output.svg.inkscape">
  <defs
     id="defs38129">
    <radialGradient
       gradientUnits="userSpaceOnUse"
       fy="421.8599"
       fx="298.6802"
       r="41.2797"
       cy="421.8599"
       cx="298.6802"
       id="XMLID_462_"
       gradientTransform="matrix(1.0155975,0,0,1.0157033,-293.34866,-423.35077)">
				<stop
   id="stop32528"
   style="stop-color:#F3F9FE"
   offset="0" />

				<stop
   id="stop32530"
   style="stop-color:#2E94E6"
   offset="0.8436" />

				<a:midPointStop
   style="stop-color:#F3F9FE"
   offset="0" />

				<a:midPointStop
   style="stop-color:#F3F9FE"
   offset="0.5" />

				<a:midPointStop
   style="stop-color:#2E94E6"
   offset="0.8436" />

			</radialGradient>
    <radialGradient
       gradientUnits="userSpaceOnUse"
       fy="435.8706"
       fx="313.5786"
       r="21.2117"
       cy="435.8706"
       cx="313.5786"
       id="XMLID_463_"
       gradientTransform="matrix(1.0155975,0,0,1.0157033,-293.34864,-423.35078)">
				<stop
   id="stop32535"
   style="stop-color:#F3F9FE"
   offset="0" />

				<stop
   id="stop32537"
   style="stop-color:#DAECFB"
   offset="0.1978" />

				<stop
   id="stop32539"
   style="stop-color:#2E94E6"
   offset="0.8436" />

				<a:midPointStop
   style="stop-color:#F3F9FE"
   offset="0" />

				<a:midPointStop
   style="stop-color:#F3F9FE"
   offset="0.5" />

				<a:midPointStop
   style="stop-color:#DAECFB"
   offset="0.1978" />

				<a:midPointStop
   style="stop-color:#DAECFB"
   offset="0.5" />

				<a:midPointStop
   style="stop-color:#2E94E6"
   offset="0.8436" />

			</radialGradient>
    <radialGradient
       gradientUnits="userSpaceOnUse"
       fy="438.7905"
       fx="313.8101"
       r="30.8688"
       cy="438.7905"
       cx="313.8101"
       id="XMLID_464_"
       gradientTransform="matrix(1.0155975,0,0,1.0157033,-293.34864,-423.35078)">
				<stop
   id="stop32546"
   style="stop-color:#FFFFFF"
   offset="0" />

				<stop
   id="stop32548"
   style="stop-color:#F8FCFF"
   offset="0.1023" />

				<stop
   id="stop32550"
   style="stop-color:#E6F4FF"
   offset="0.247" />

				<stop
   id="stop32552"
   style="stop-color:#C8E6FF"
   offset="0.4168" />

				<stop
   id="stop32554"
   style="stop-color:#9ED3FF"
   offset="0.6043" />

				<stop
   id="stop32556"
   style="stop-color:#80C5FF"
   offset="0.7207" />

				<stop
   id="stop32558"
   style="stop-color:#0078FF"
   offset="1" />

				<a:midPointStop
   style="stop-color:#FFFFFF"
   offset="0" />

				<a:midPointStop
   style="stop-color:#FFFFFF"
   offset="0.6328" />

				<a:midPointStop
   style="stop-color:#80C5FF"
   offset="0.7207" />

				<a:midPointStop
   style="stop-color:#80C5FF"
   offset="0.5" />

				<a:midPointStop
   style="stop-color:#0078FF"
   offset="1" />

			</radialGradient>
    <radialGradient
       gradientUnits="userSpaceOnUse"
       fy="446.48291"
       fx="306.88531"
       r="45.3344"
       cy="446.48291"
       cx="306.88531"
       id="XMLID_465_">
					<stop
   id="stop32565"
   style="stop-color:#FFFFFF"
   offset="0" />

					<stop
   id="stop32567"
   style="stop-color:#FBFDFF"
   offset="0.1817" />

					<stop
   id="stop32569"
   style="stop-color:#F1F8FD"
   offset="0.3445" />

					<stop
   id="stop32571"
   style="stop-color:#DEEEFB"
   offset="0.5" />

					<stop
   id="stop32573"
   style="stop-color:#C5E1F8"
   offset="0.6511" />

					<stop
   id="stop32575"
   style="stop-color:#A3D0F4"
   offset="0.799" />

					<stop
   id="stop32577"
   style="stop-color:#7BBBEF"
   offset="0.9425" />

					<stop
   id="stop32579"
   style="stop-color:#69B2ED"
   offset="1" />

					<a:midPointStop
   style="stop-color:#FFFFFF"
   offset="0" />

					<a:midPointStop
   style="stop-color:#FFFFFF"
   offset="0.7293" />

					<a:midPointStop
   style="stop-color:#69B2ED"
   offset="1" />

				</radialGradient>
    <radialGradient
       gradientUnits="userSpaceOnUse"
       fy="433.1724"
       fx="310.1626"
       r="25.3819"
       cy="433.1724"
       cx="310.1626"
       id="XMLID_466_"
       gradientTransform="matrix(1.0155975,0,0,1.0157033,-293.34864,-423.35078)">
				<stop
   id="stop32584"
   style="stop-color:#F3F9FE"
   offset="0" />

				<stop
   id="stop32586"
   style="stop-color:#2E94E6"
   offset="0.8436" />

				<a:midPointStop
   style="stop-color:#F3F9FE"
   offset="0" />

				<a:midPointStop
   style="stop-color:#F3F9FE"
   offset="0.5" />

				<a:midPointStop
   style="stop-color:#2E94E6"
   offset="0.8436" />

			</radialGradient>
    <radialGradient
       gradientUnits="userSpaceOnUse"
       fy="445.44781"
       fx="338.3696"
       r="31.973301"
       cy="445.44781"
       cx="338.3696"
       id="XMLID_467_">
					<stop
   id="stop32593"
   style="stop-color:#F3F9FE"
   offset="0" />

					<stop
   id="stop32595"
   style="stop-color:#2E94E6"
   offset="0.8436" />

					<a:midPointStop
   style="stop-color:#F3F9FE"
   offset="0" />

					<a:midPointStop
   style="stop-color:#F3F9FE"
   offset="0.5" />

					<a:midPointStop
   style="stop-color:#2E94E6"
   offset="0.8436" />

				</radialGradient>
  </defs>
  <sodipodi:namedview
     id="base"
     pagecolor="#ffffff"
     bordercolor="#666666"
     borderopacity="1.0"
     inkscape:pageopacity="0.0"
     inkscape:pageshadow="2"
     inkscape:zoom="7"
     inkscape:cx="24"
     inkscape:cy="24"
     inkscape:current-layer="layer1"
     showgrid="true"
     inkscape:grid-bbox="true"
     inkscape:document-units="px"
     inkscape:window-width="744"
     inkscape:window-height="573"
     inkscape:window-x="132"
     inkscape:window-y="144" />
  <metadata
     id="metadata38132">
    <rdf:RDF>
      <cc:Work
         rdf:about="">
        <dc:format>image/svg+xml</dc:format>
        <dc:type
           rdf:resource="http://purl.org/dc/dcmitype/StillImage" />
      </cc:Work>
    </rdf:RDF>
  </metadata>
  <g
     id="layer1"
     inkscape:label="Layer 1"
     inkscape:groupmode="layer">
    <path
       style="fill:url(#XMLID_462_);stroke:#3d81cc;stroke-width:2"
       id="path32532"
       d="M 20.428316,46.219021 L 45.893408,33.175359 L 46.929317,17.898165 C 44.887966,15.714403 44.263374,14.341172 39.274759,13.597678 C 28.995897,12.068028 30.818894,9.6577645 27.682729,8.4216538 C 23.526904,8.2012462 20.758385,11.627213 15.653992,14.765736 C 9.537048,18.522823 3.9888389,13.234056 0.92782797,13.889184 L 2.6533282,34.242863 L 20.428316,46.219021 z "
       i:knockout="Off" />
    <path
       style="fill:url(#XMLID_463_)"
       id="path32541"
       d="M 0.92681234,13.889185 C 4.7911607,14.692606 7.9557624,20.614156 12.22635,24.387494 C 16.005388,27.728142 17.401835,27.014103 19.807785,28.979489 C 20.509563,30.193254 23.235427,30.948938 26.589945,28.616883 C 29.942432,26.283812 31.983783,21.253034 37.014037,18.191704 C 41.14041,15.67987 46.930331,17.898166 46.930331,17.898166 C 44.886949,15.714404 44.262356,14.341173 39.275773,13.597678 C 28.996911,12.068029 30.817877,9.6577647 27.683743,8.4216539 C 23.527919,8.2012463 20.757369,11.627213 15.655007,14.765737 C 9.536032,18.522823 3.9888387,13.234056 0.92681234,13.889185 z "
       i:knockout="Off" />
    <path
       style="fill:none;stroke:#ffffff;stroke-width:1"
       id="path32543"
       d="M 20.011921,12.36563 L 15.911954,15.186238 C 11.745973,17.743778 7.7536588,16.283197 4.8358472,15.219756 C 4.4824193,15.08873 4.172662,14.989191 3.8415772,14.876448 C 5.3395835,16.031303 6.776654,17.651349 8.2563796,19.401406 C 9.610171,20.998092 11.012712,22.654704 12.553373,24.017778 C 14.663785,25.88464 16.020623,26.451403 17.216997,26.952145 C 18.155409,27.345222 19.042025,27.715953 20.12059,28.5986 L 20.189651,28.656495 L 20.235352,28.733688 C 20.451675,29.108483 20.951349,29.414209 21.568832,29.551329 C 22.919577,29.855025 24.649139,29.36444 26.305579,28.210601 C 27.691869,27.244667 28.890274,25.744473 30.15774,24.155913 C 31.875115,21.997544 33.823031,19.555793 36.757093,17.770187 C 39.651545,16.008957 43.289416,16.450788 45.391703,16.941373 C 44.098847,15.536655 42.954269,14.647915 39.20062,14.086231 C 32.039642,13.020758 30.557885,11.481968 29.369636,10.241794 C 28.841526,9.6943298 28.411928,9.2636717 27.556795,8.9142698 C 24.871555,8.8106682 22.723566,10.381961 20.011921,12.36563 z "
       a:adobe-blending-mode="softLight"
       i:knockout="Off" />
    <path
       style="fill:url(#XMLID_464_)"
       id="path32560"
       d="M 0.92681234,13.889185 C 4.7911607,14.692606 7.9557624,20.614156 12.22635,24.387494 C 16.005388,27.728142 17.401835,27.014103 19.807785,28.979489 L 20.428315,46.219021 L 2.6533281,34.242863 L 0.92681234,13.889185 z "
       i:knockout="Off" />
    <g
       transform="matrix(1.0155975,0,0,1.0157033,-293.34864,-423.35078)"
       id="g32562"
       a:adobe-blending-mode="softLight"
       i:knockout="Off">
				
					<radialGradient
   gradientUnits="userSpaceOnUse"
   fy="446.48291"
   fx="306.88531"
   r="45.3344"
   cy="446.48291"
   cx="306.88531"
   id="radialGradient38170">
					<stop
   id="stop38172"
   style="stop-color:#FFFFFF"
   offset="0" />

					<stop
   id="stop38174"
   style="stop-color:#FBFDFF"
   offset="0.1817" />

					<stop
   id="stop38176"
   style="stop-color:#F1F8FD"
   offset="0.3445" />

					<stop
   id="stop38178"
   style="stop-color:#DEEEFB"
   offset="0.5" />

					<stop
   id="stop38180"
   style="stop-color:#C5E1F8"
   offset="0.6511" />

					<stop
   id="stop38182"
   style="stop-color:#A3D0F4"
   offset="0.799" />

					<stop
   id="stop38184"
   style="stop-color:#7BBBEF"
   offset="0.9425" />

					<stop
   id="stop38186"
   style="stop-color:#69B2ED"
   offset="1" />

					<a:midPointStop
   style="stop-color:#FFFFFF"
   offset="0" />

					<a:midPointStop
   style="stop-color:#FFFFFF"
   offset="0.7293" />

					<a:midPointStop
   style="stop-color:#69B2ED"
   offset="1" />

				</radialGradient>

				<path
   style="fill:url(#XMLID_465_)"
   id="path32581"
   d="M 291.457,450.519 L 308.959,462.31 L 308.35,445.357 L 308.17,445.218 C 307.248,444.501 306.465,444.148 305.609,443.788 C 304.397,443.284 303.023,442.708 300.882,440.815 C 299.337,439.45 297.946,437.809 296.602,436.221 C 294.395,433.616 292.542,431.557 290.48,430.776 L 289.757,430.499 L 291.457,450.519 z M 290.869,432.087 C 292.469,432.991 294.088,434.757 295.861,436.851 C 297.228,438.462 298.642,440.134 300.238,441.546 C 302.5,443.544 303.953,444.15 305.234,444.687 C 305.99,445.003 306.646,445.318 307.394,445.869 C 307.412,446.346 307.87,459.08 307.919,460.437 C 306.501,459.482 292.743,450.214 292.386,449.97 C 292.348,449.539 290.998,433.623 290.869,432.087 z "
   a:adobe-blending-mode="normal"
   i:knockout="Off" />

			</g>
    <path
       style="fill:url(#XMLID_466_)"
       id="path32588"
       d="M 19.807785,28.979489 C 20.509563,30.193254 23.235427,30.948938 26.589945,28.616883 C 29.942432,26.283812 31.983783,21.253034 37.014037,18.191704 C 41.14041,15.67987 46.930331,17.898166 46.930331,17.898166 L 45.894422,33.175359 L 20.429331,46.219021 L 19.807785,28.979489 z "
       i:knockout="Off" />
    <g
       transform="matrix(1.0155975,0,0,1.0157033,-293.34864,-423.35078)"
       id="g32590"
       i:knockout="Off">
				
					<radialGradient
   gradientUnits="userSpaceOnUse"
   fy="445.44781"
   fx="338.3696"
   r="31.973301"
   cy="445.44781"
   cx="338.3696"
   id="radialGradient38191">
					<stop
   id="stop38193"
   style="stop-color:#F3F9FE"
   offset="0" />

					<stop
   id="stop38195"
   style="stop-color:#2E94E6"
   offset="0.8436" />

					<a:midPointStop
   style="stop-color:#F3F9FE"
   offset="0" />

					<a:midPointStop
   style="stop-color:#F3F9FE"
   offset="0.5" />

					<a:midPointStop
   style="stop-color:#2E94E6"
   offset="0.8436" />

				</radialGradient>

				<path
   style="fill:url(#XMLID_467_)"
   id="path32597"
   d="M 325.289,434.716 L 325.289,434.716 C 322.475,436.429 320.586,438.798 318.918,440.89 C 317.648,442.488 316.449,443.99 315.025,444.98 C 312.636,446.64 310.839,446.568 309.978,446.375 L 308.417,445.732 L 308.388,446.461 L 308.958,462.311 L 334.032,449.469 L 335.052,434.424 L 334.691,434.307 C 333.361,433.871 328.744,432.613 325.289,434.716 z M 334.029,435.125 C 333.982,435.814 333.134,448.344 333.099,448.854 C 332.765,449.026 311.156,460.094 309.876,460.747 C 309.829,459.444 309.433,448.45 309.387,447.171 C 309.554,447.241 309.763,447.327 309.763,447.327 C 310.781,447.554 312.886,447.651 315.577,445.778 C 317.118,444.71 318.362,443.149 319.675,441.501 C 321.294,439.47 323.124,437.171 325.794,435.548 C 328.669,433.796 332.5,434.666 334.029,435.125 z "
   i:knockout="Off" />

			</g>
  </g>
</svg>
