<?xml version="1.0" encoding="UTF-8" standalone="no"?>
<!-- Created with Inkscape (http://www.inkscape.org/) -->

<svg
   xmlns:i="http://ns.adobe.com/AdobeIllustrator/10.0/"
   xmlns:a="http://ns.adobe.com/AdobeSVGViewerExtensions/3.0/"
   xmlns:dc="http://purl.org/dc/elements/1.1/"
   xmlns:cc="http://creativecommons.org/ns#"
   xmlns:rdf="http://www.w3.org/1999/02/22-rdf-syntax-ns#"
   xmlns:svg="http://www.w3.org/2000/svg"
   xmlns="http://www.w3.org/2000/svg"
   xmlns:xlink="http://www.w3.org/1999/xlink"
   xmlns:sodipodi="http://sodipodi.sourceforge.net/DTD/sodipodi-0.dtd"
   xmlns:inkscape="http://www.inkscape.org/namespaces/inkscape"
   width="48px"
   height="48px"
   id="svg20696"
   sodipodi:version="0.32"
   inkscape:version="0.48.2 r9819"
   sodipodi:docname="sandsolver.svg"
   inkscape:output_extension="org.inkscape.output.svg.inkscape"
   version="1.1">
  <defs
     id="defs20698">
    <linearGradient
       inkscape:collect="always"
       id="linearGradient4095">
      <stop
         style="stop-color:#80690f;stop-opacity:1;"
         offset="0"
         id="stop4097" />
      <stop
         style="stop-color:#80690f;stop-opacity:0;"
         offset="1"
         id="stop4099" />
    </linearGradient>
    <linearGradient
       inkscape:collect="always"
       id="linearGradient4087">
      <stop
         style="stop-color:#80690f;stop-opacity:1;"
         offset="0"
         id="stop4089" />
      <stop
         style="stop-color:#80690f;stop-opacity:0;"
         offset="1"
         id="stop4091" />
    </linearGradient>
    <linearGradient
       id="linearGradient4079">
      <stop
         style="stop-color:#dfdfa3;stop-opacity:0;"
         offset="0"
         id="stop4081" />
      <stop
         style="stop-color:#dfdfa3;stop-opacity:1;"
         offset="1"
         id="stop4083" />
    </linearGradient>
    <radialGradient
       gradientTransform="matrix(0.9246534,0,0,0.9247248,-36.267954,-23.186861)"
       id="radialGradient4065"
       cx="26.9014"
       cy="60.9575"
       r="30.9064"
       fx="26.9014"
       fy="60.9575"
       gradientUnits="userSpaceOnUse">
      <stop
         offset="0"
         style="stop-color:#aaa045;stop-opacity:1;"
         id="stop4067" />
      <stop
         offset="1"
         style="stop-color:#dfdfa3;stop-opacity:1"
         id="stop4069" />
      <a:midPointStop
         offset="0"
         style="stop-color:#D0C98B" />
      <a:midPointStop
         offset="0.5"
         style="stop-color:#D0C98B" />
      <a:midPointStop
         offset="1"
         style="stop-color:#F2F2DC" />
    </radialGradient>
    <radialGradient
       inkscape:collect="always"
       xlink:href="#XMLID_329_"
       id="radialGradient20964"
       cx="26.125883"
       cy="32.449398"
       fx="26.125883"
       fy="32.449398"
       r="22.072868"
       gradientTransform="matrix(0.8148092,0,0,0.5054809,1.5901648,17.171744)"
       gradientUnits="userSpaceOnUse" />
    <linearGradient
       id="linearGradient45273">
      <stop
         style="stop-color:#80690f;stop-opacity:1;"
         offset="0"
         id="stop45275" />
      <stop
         style="stop-color:#80690f;stop-opacity:0;"
         offset="1"
         id="stop45277" />
    </linearGradient>
    <linearGradient
       id="linearGradient45265">
      <stop
         style="stop-color:#80690f;stop-opacity:1;"
         offset="0"
         id="stop45267" />
      <stop
         style="stop-color:#c3a014;stop-opacity:1"
         offset="1"
         id="stop45269" />
    </linearGradient>
    <linearGradient
       inkscape:collect="always"
       id="linearGradient45257">
      <stop
         style="stop-color:#80690f;stop-opacity:1;"
         offset="0"
         id="stop45259" />
      <stop
         style="stop-color:#80690f;stop-opacity:0;"
         offset="1"
         id="stop45261" />
    </linearGradient>
    <linearGradient
       inkscape:collect="always"
       id="linearGradient45249">
      <stop
         style="stop-color:#80690f;stop-opacity:1;"
         offset="0"
         id="stop45251" />
      <stop
         style="stop-color:#80690f;stop-opacity:0;"
         offset="1"
         id="stop45253" />
    </linearGradient>
    <radialGradient
       gradientUnits="userSpaceOnUse"
       fy="57.1865"
       fx="27.5132"
       r="14.3455"
       cy="57.1865"
       cx="27.5132"
       id="XMLID_176_"
       gradientTransform="matrix(0.9246534,0,0,0.9247248,-36.267954,-23.186861)">
      <stop
         id="stop7708"
         style="stop-color:#D0CA96"
         offset="0" />
      <stop
         id="stop7710"
         style="stop-color:#F2F2EA"
         offset="1" />
      <a:midPointStop
         style="stop-color:#D0CA96"
         offset="0" />
      <a:midPointStop
         style="stop-color:#D0CA96"
         offset="0.5" />
      <a:midPointStop
         style="stop-color:#F2F2EA"
         offset="1" />
    </radialGradient>
    <linearGradient
       y2="60.1648"
       x2="30.6118"
       y1="74.2705"
       x1="16.6694"
       gradientUnits="userSpaceOnUse"
       id="XMLID_178_"
       gradientTransform="matrix(0.9246534,0,0,0.9247248,-36.267954,-23.186861)">
      <stop
         id="stop7722"
         style="stop-color:#EDEBD4"
         offset="0" />
      <stop
         id="stop7724"
         style="stop-color:#DBD074"
         offset="0.5189" />
      <stop
         id="stop7726"
         style="stop-color:#D6CC73"
         offset="0.6772" />
      <stop
         id="stop7728"
         style="stop-color:#C9C171"
         offset="0.8523" />
      <stop
         id="stop7730"
         style="stop-color:#B8B26E"
         offset="1" />
      <a:midPointStop
         style="stop-color:#EDEBD4"
         offset="0" />
      <a:midPointStop
         style="stop-color:#EDEBD4"
         offset="0.5" />
      <a:midPointStop
         style="stop-color:#DBD074"
         offset="0.5189" />
      <a:midPointStop
         style="stop-color:#DBD074"
         offset="0.686" />
      <a:midPointStop
         style="stop-color:#B8B26E"
         offset="1" />
    </linearGradient>
    <linearGradient
       inkscape:collect="always"
       id="linearGradient45025">
      <stop
         style="stop-color:#76570f;stop-opacity:1"
         offset="0"
         id="stop45027" />
      <stop
         style="stop-color:#76570f;stop-opacity:0"
         offset="1"
         id="stop45029" />
    </linearGradient>
    <linearGradient
       y2="41.714901"
       x2="20.4746"
       y1="47.292"
       x1="32.2295"
       gradientUnits="userSpaceOnUse"
       id="XMLID_183_">
      <stop
         id="stop7785"
         style="stop-color:#EDEBD4"
         offset="0" />
      <stop
         id="stop7787"
         style="stop-color:#DBD38F"
         offset="0.5189" />
      <stop
         id="stop7789"
         style="stop-color:#D8D08A"
         offset="0.6662" />
      <stop
         id="stop7791"
         style="stop-color:#D0C87D"
         offset="0.8292" />
      <stop
         id="stop7793"
         style="stop-color:#C3BB67"
         offset="0.9993" />
      <stop
         id="stop7795"
         style="stop-color:#C3BB67"
         offset="1" />
      <a:midPointStop
         style="stop-color:#EDEBD4"
         offset="0" />
      <a:midPointStop
         style="stop-color:#EDEBD4"
         offset="0.5" />
      <a:midPointStop
         style="stop-color:#DBD38F"
         offset="0.5189" />
      <a:midPointStop
         style="stop-color:#DBD38F"
         offset="0.686" />
      <a:midPointStop
         style="stop-color:#C3BB67"
         offset="1" />
    </linearGradient>
    <linearGradient
       y2="42.0029"
       x2="40.0337"
       y1="31.0264"
       x1="25.5737"
       gradientUnits="userSpaceOnUse"
       id="XMLID_200_"
       gradientTransform="matrix(0.9246534,0,0,0.9247248,-41.157021,-24.475943)">
      <stop
         id="stop8034"
         style="stop-color:#B8CFE1"
         offset="0.0056" />
      <stop
         id="stop8036"
         style="stop-color:#FFFFFF"
         offset="0.486" />
      <stop
         id="stop8038"
         style="stop-color:#FFFFFF"
         offset="0.6425" />
      <stop
         id="stop8040"
         style="stop-color:#8AAAC3"
         offset="1" />
      <a:midPointStop
         style="stop-color:#B8CFE1"
         offset="0.0056" />
      <a:midPointStop
         style="stop-color:#B8CFE1"
         offset="0.5" />
      <a:midPointStop
         style="stop-color:#FFFFFF"
         offset="0.486" />
      <a:midPointStop
         style="stop-color:#FFFFFF"
         offset="0.5" />
      <a:midPointStop
         style="stop-color:#FFFFFF"
         offset="0.6425" />
      <a:midPointStop
         style="stop-color:#FFFFFF"
         offset="0.5" />
      <a:midPointStop
         style="stop-color:#8AAAC3"
         offset="1" />
    </linearGradient>
    <radialGradient
       gradientUnits="userSpaceOnUse"
       fy="192.1543"
       fx="20.836399"
       r="25.121799"
       cy="192.1543"
       cx="20.836399"
       id="XMLID_329_">
      <stop
         id="stop13705"
         style="stop-color:#70570b;stop-opacity:1;"
         offset="0" />
      <stop
         offset="0.5"
         style="stop-color:#70570b;stop-opacity:1;"
         id="stop47997" />
      <stop
         id="stop13707"
         style="stop-color:#70570b;stop-opacity:0;"
         offset="1" />
      <a:midPointStop
         style="stop-color:#B5BABE"
         offset="0" />
      <a:midPointStop
         style="stop-color:#B5BABE"
         offset="0.5" />
      <a:midPointStop
         style="stop-color:#FFFFFF"
         offset="1" />
    </radialGradient>
    <linearGradient
       inkscape:collect="always"
       xlink:href="#XMLID_200_"
       id="linearGradient45034"
       gradientUnits="userSpaceOnUse"
       gradientTransform="matrix(0.8655196,0,0,0.8656033,0.7558098,-23.38647)"
       x1="25.5737"
       y1="31.0264"
       x2="40.0337"
       y2="42.0029" />
    <linearGradient
       inkscape:collect="always"
       xlink:href="#linearGradient45025"
       id="linearGradient45175"
       gradientUnits="userSpaceOnUse"
       gradientTransform="matrix(1.2384217,0,0,0.9981391,-6.9221547,5.1470518)"
       x1="24.57143"
       y1="11.071429"
       x2="33.85714"
       y2="17.785715" />
    <radialGradient
       inkscape:collect="always"
       xlink:href="#XMLID_178_"
       id="radialGradient45231"
       cx="25.091436"
       cy="18.823292"
       fx="25.091436"
       fy="18.823292"
       r="12.35552"
       gradientTransform="matrix(2.1929454,-1.4729676,0.9089111,1.353126,-49.554112,35.659134)"
       gradientUnits="userSpaceOnUse" />
    <radialGradient
       inkscape:collect="always"
       xlink:href="#XMLID_183_"
       id="radialGradient45239"
       cx="14.741035"
       cy="17.39777"
       fx="14.741035"
       fy="17.39777"
       r="9.6882677"
       gradientTransform="matrix(1.5607177,-1.6012555,0.9560886,0.9318455,-29.227394,28.977232)"
       gradientUnits="userSpaceOnUse" />
    <linearGradient
       inkscape:collect="always"
       xlink:href="#linearGradient45249"
       id="linearGradient45255"
       x1="27.839828"
       y1="26.416016"
       x2="24.335957"
       y2="33.689114"
       gradientUnits="userSpaceOnUse"
       gradientTransform="matrix(1.2588353,0,0,1.2588094,-8.1435279,-0.05390031)" />
    <linearGradient
       inkscape:collect="always"
       xlink:href="#linearGradient45257"
       id="linearGradient45263"
       x1="39.478207"
       y1="24.083395"
       x2="32.542313"
       y2="30.709057"
       gradientUnits="userSpaceOnUse"
       gradientTransform="matrix(1.2588353,0,0,1.2588094,-8.1435279,-0.05390031)" />
    <linearGradient
       inkscape:collect="always"
       xlink:href="#linearGradient45265"
       id="linearGradient45271"
       x1="19.625263"
       y1="16.879272"
       x2="16.386786"
       y2="24.772875"
       gradientUnits="userSpaceOnUse"
       gradientTransform="matrix(1.2588353,0,0,1.2588094,-8.1435279,-0.05390031)" />
    <linearGradient
       inkscape:collect="always"
       xlink:href="#linearGradient45273"
       id="linearGradient45279"
       x1="10.480442"
       y1="21.261627"
       x2="11.263578"
       y2="30.069357"
       gradientUnits="userSpaceOnUse"
       gradientTransform="matrix(1.2588353,0,0,1.2588094,-8.2071087,0.00967829)" />
    <linearGradient
       inkscape:collect="always"
       xlink:href="#XMLID_178_"
       id="linearGradient45320"
       gradientUnits="userSpaceOnUse"
       gradientTransform="matrix(1.14929,0,0,1.1494012,-7.9917973,-37.313839)"
       x1="16.6694"
       y1="74.2705"
       x2="30.6118"
       y2="60.1648" />
    <radialGradient
       inkscape:collect="always"
       xlink:href="#XMLID_176_"
       id="radialGradient45326"
       gradientUnits="userSpaceOnUse"
       gradientTransform="matrix(1.14929,0,0,1.1494012,-7.5422132,-37.403755)"
       cx="27.5132"
       cy="57.1865"
       fx="27.5132"
       fy="57.1865"
       r="14.3455" />
    <linearGradient
       inkscape:collect="always"
       xlink:href="#radialGradient4065"
       id="linearGradient4073"
       x1="23.450773"
       y1="46.678757"
       x2="23.450773"
       y2="32.536621"
       gradientUnits="userSpaceOnUse" />
    <radialGradient
       inkscape:collect="always"
       xlink:href="#linearGradient4079"
       id="radialGradient4085"
       cx="23.266994"
       cy="28.693529"
       fx="23.266994"
       fy="28.693529"
       r="20.732399"
       gradientTransform="matrix(1,0,0,0.1565208,0,24.202396)"
       gradientUnits="userSpaceOnUse" />
    <linearGradient
       inkscape:collect="always"
       xlink:href="#linearGradient4087"
       id="linearGradient4093"
       x1="34.117561"
       y1="16.74325"
       x2="38.112072"
       y2="32.360352"
       gradientUnits="userSpaceOnUse"
       gradientTransform="translate(0,-0.20203051)" />
    <linearGradient
       inkscape:collect="always"
       xlink:href="#linearGradient4095"
       id="linearGradient4101"
       x1="17.644222"
       y1="46.965115"
       x2="16.830721"
       y2="28.378307"
       gradientUnits="userSpaceOnUse" />
    <radialGradient
       gradientUnits="userSpaceOnUse"
       fy="60.9575"
       fx="26.9014"
       r="30.906401"
       cy="60.9575"
       cx="26.9014"
       id="XMLID_177_"
       gradientTransform="matrix(1.2337189,0,0,1.2338141,-9.1786917,-44.941485)">
      <stop
         id="stop7715"
         style="stop-color:#D0C98B"
         offset="0" />
      <stop
         offset="0.5"
         style="stop-color:#e1ddb3;stop-opacity:0.70940173;"
         id="stop131907" />
      <stop
         id="stop7717"
         style="stop-color:#f2f2dc;stop-opacity:0;"
         offset="1" />
      <a:midPointStop
         style="stop-color:#D0C98B"
         offset="0" />
      <a:midPointStop
         style="stop-color:#D0C98B"
         offset="0.5" />
      <a:midPointStop
         style="stop-color:#F2F2DC"
         offset="1" />
    </radialGradient>
    <radialGradient
       r="30.906401"
       fy="60.9575"
       fx="26.9014"
       cy="60.9575"
       cx="26.9014"
       gradientTransform="matrix(1.2337189,0,0,1.2338141,-9.4803661,-43.153495)"
       gradientUnits="userSpaceOnUse"
       id="radialGradient132598"
       xlink:href="#XMLID_177_"
       inkscape:collect="always" />
    <linearGradient
       inkscape:collect="always"
       xlink:href="#XMLID_178_"
       id="linearGradient132617"
       gradientUnits="userSpaceOnUse"
       gradientTransform="matrix(1.14929,0,0,1.1494012,-7.9917973,-37.51587)"
       x1="16.6694"
       y1="74.2705"
       x2="30.6118"
       y2="60.1648" />
  </defs>
  <sodipodi:namedview
     id="base"
     pagecolor="#ffffff"
     bordercolor="#666666"
     borderopacity="1.0"
     inkscape:pageopacity="0.0"
     inkscape:pageshadow="2"
     inkscape:zoom="9.8994949"
     inkscape:cx="11.798101"
     inkscape:cy="20.026432"
     inkscape:current-layer="layer1"
     showgrid="true"
     inkscape:grid-bbox="true"
     inkscape:document-units="px"
     inkscape:window-width="2560"
     inkscape:window-height="1468"
     inkscape:window-x="0"
     inkscape:window-y="0"
     inkscape:window-maximized="1" />
  <metadata
     id="metadata20701">
    <rdf:RDF>
      <cc:Work
         rdf:about="">
        <dc:format>image/svg+xml</dc:format>
        <dc:type
           rdf:resource="http://purl.org/dc/dcmitype/StillImage" />
      </cc:Work>
    </rdf:RDF>
  </metadata>
  <g
     id="layer1"
     inkscape:label="Layer 1"
     inkscape:groupmode="layer">
    <path
       style="fill:url(#radialGradient132598)"
       id="path7719"
       d="m 46.972138,33.291153 c 1.464423,2.25171 0.509526,6.287516 -2.843722,8.741573 -1.510071,1.104262 -4.446322,1.037636 -6.631237,1.860592 -2.931317,1.105496 -8.032744,2.810628 -11.864674,3.35844 C 17.74164,48.376997 13.043637,47.588589 8.0051298,44.81004 6.1076708,43.761298 5.8399538,42.291826 4.5297448,41.171524 3.2861558,40.107976 0.87793677,39.629256 0.40665577,38.346089 -1.8880607,32.088184 6.8762788,26.459525 19.98084,25.120837 33.086633,23.790786 42.823141,26.9074 46.972138,33.291153 z"
       i:knockout="Off"
       inkscape:connector-curvature="0" />
    <path
       style="fill:url(#radialGradient20964);fill-opacity:1"
       id="path13709"
       d="m 8.0217326,31.758919 c -0.6704464,0.06233 -1.375427,0.93069 -1.7232834,1.466362 -0.1423441,0.219829 -0.4371382,0.49356 -0.514627,0.743709 -0.1111804,0.350376 0.09265,0.682224 0.1137055,1.035128 -1.0115661,0.28384 -1.2162364,1.7721 -0.8068934,2.626986 0.1532935,0.319214 0.2223583,0.437971 0.3259579,0.763081 0.1347634,0.425337 0.2830026,0.763081 0.5752701,1.138724 0.3049026,0.391648 0.4826211,0.448079 0.9290243,0.642639 0.5971692,0.261099 0.7976291,0.749605 1.2802491,1.120196 0.8540625,0.6578 2.3524613,0.821195 3.4027723,0.703281 0.427874,-0.04885 0.966925,-0.416915 1.356896,-0.368906 0.64939,0.08085 0.289742,0.671275 0.537368,1.058711 0.28216,0.442182 1.168228,0.649376 1.632319,0.828777 0.389129,0.150762 0.790049,0.277944 1.179178,0.433759 0.411869,0.165082 0.795103,0.475873 1.22803,0.559256 0.771519,0.146552 1.71823,0.04969 2.511648,0.04969 1.019988,0 2.435002,0.376488 3.367395,0.01348 0.61991,-0.240885 1.105899,-0.573575 1.799931,-0.67717 0.677184,-0.10107 1.149698,0.06738 1.791508,0.177714 1.458811,0.249307 2.655675,-0.341112 3.917396,-0.881838 0.773204,-0.331006 1.496714,-0.730233 2.276655,-1.059553 0.915547,-0.385752 1.890896,-0.650219 2.672523,-1.312231 0.582851,-0.492716 1.33584,-1.201893 1.726652,-1.848744 0.507889,-0.840567 1.181706,-1.628074 1.490817,-2.575608 0.377338,-1.163992 0.977877,-2.135952 1.041047,-3.402699 0.03369,-0.663695 -0.03117,-1.047762 0.297321,-1.610388 0.424504,-0.72939 0.567689,-1.42509 0.288057,-2.281661 -0.317537,-0.97196 -1.136222,-1.820107 -1.939749,-2.401262 -0.558423,-0.40428 -1.265088,-0.590418 -1.898475,-0.854886 -0.718457,-0.298999 -1.07221,-0.65443 -1.672747,-1.087347 -0.621596,-0.446395 -1.334157,-0.429551 -2.058508,-0.553361 -0.974506,-0.165923 -1.900161,-0.636743 -2.869613,-0.865835 -2.642202,-0.625793 -5.285243,-0.990489 -8.005776,-0.911317 -1.229712,0.03622 -2.349932,0.0598 -3.486996,0.561782 -1.173282,0.517143 -2.319612,1.104192 -3.494578,1.621335 -1.428489,0.627479 -2.01134,1.400668 -2.98332,2.50149 -0.60138,0.679699 -1.245717,1.286963 -1.828568,2.001192 -0.5651629,0.690647 -2.1646344,1.514371 -2.2943437,2.483802"
       a:adobe-blending-mode="multiply"
       i:knockout="Off"
       inkscape:connector-curvature="0" />
    <path
       style="opacity:0.4;fill:url(#linearGradient132617)"
       id="path7732"
       d="m 43.233211,34.121705 c 0.573495,1.560888 -0.805653,3.114878 -1.806683,4.544732 -1.341223,1.917203 -3.646698,2.57351 -7.118704,3.760842 -2.158366,0.736765 -4.604057,2.430982 -7.294543,2.981546 C 22.195457,46.393862 18.543012,46.132947 15.093993,45.30423 8.1292955,43.633 10.249735,41.449139 8.1971032,39.990547 6.4915558,38.774481 4.4090432,38.562992 3.9079523,37.192905 2.0863273,32.23094 9.6314185,28.110339 20.026747,27.04829 c 10.398777,-1.055149 21.384839,2.105705 23.206464,7.073415 z"
       a:adobe-blending-mode="multiply"
       i:knockout="Off"
       inkscape:connector-curvature="0" />
    <path
       style="fill:url(#radialGradient45231);fill-opacity:1;fill-rule:nonzero;stroke:url(#linearGradient45255);stroke-width:0.5;stroke-linecap:butt;stroke-linejoin:miter;stroke-miterlimit:4;stroke-opacity:1;stroke-dasharray:none;stroke-dashoffset:0;marker:none;visibility:visible;display:inline;overflow:visible;enable-background:accumulate"
       id="path13711"
       d="m 20.067137,17.753354 c 0.721228,-0.461511 1.673282,-0.453917 1.824629,-0.628567 0.152195,-0.172959 0.956282,-1.213258 1.195564,-1.408156 0.23759,-0.195742 1.172735,-0.08774 1.477121,-0.260707 0.302696,-0.172961 0.43375,-0.650503 0.694171,-0.716312 0.261265,-0.06328 1.390877,0.195742 1.867749,0.108838 0.478564,-0.08606 0.261267,-0.260707 0.521686,-0.324828 0.261264,-0.06497 2.303192,0.0869 2.715806,0.172961 0.412612,0.08606 1.064506,0.412576 1.282652,0.412576 0.217297,0 0.607927,0 0.999401,0.107995 0.391476,0.107151 2.997363,1.387906 3.432806,1.625834 0.435443,0.238772 1.498258,1.408999 1.911717,1.885699 0.478564,0.151867 1.412017,0.585535 1.673281,0.73656 0.261265,0.152712 1.282653,1.214104 1.433154,1.582805 0.152193,0.369547 0.08793,0.825151 0.261265,1.149137 0.174178,0.32483 0.282403,0.541663 0.326371,0.801527 0.04312,0.259863 0.04312,1.344034 0.152193,1.583649 0.108225,0.237083 0.304387,0.692686 0.304387,1.430092 0,0.736562 -0.239283,1.842668 -0.347508,2.428206 -0.109072,0.583848 -0.608774,1.560023 -0.608774,1.77686 0,0.216834 -0.06426,0.519726 -0.195315,0.693531 -3.180512,11.112157 -10.784827,9.097301 -18.943842,10.101771 -0.325523,-0.129931 -0.564806,-0.325673 -0.564806,-0.325673 -1.013777,0.166212 -2.294738,0.190679 -3.009199,0.09281 -0.71531,-0.09787 -1.7739,-0.811651 -1.947232,-0.787184 -0.171639,0.02447 -0.788022,-0.0734 -1.847456,-0.393169 -1.059436,-0.319768 -1.970905,-0.68847 -2.31503,-1.253758 -0.345816,-0.565286 -0.394858,-1.204823 -0.419377,-1.401405 -0.02452,-0.195742 -0.221528,-0.663158 -0.07356,-1.794578 0.04904,-0.295299 -0.197007,-0.662315 -0.197007,-1.106108 0,-0.443792 -0.0947,-1.333909 0.344129,-2.778345 1.110165,-3.638933 1.774742,-4.056571 1.798417,-4.425273 0.02536,-0.367859 -0.04904,-0.687625 0.665422,-2.702412 0.71531,-2.017317 1.281807,-1.574369 1.602259,-2.066252 0.320451,-0.491042 0.862427,-1.548214 1.428079,-2.187746 0.565651,-0.639537 1.207402,-0.737406 1.502487,-1.056331 0.29424,-0.317234 0.508157,-0.722217 1.054361,-1.074045 z"
       i:knockout="Off"
       sodipodi:nodetypes="csssssssssscsssssssscccsssssssssssssc"
       inkscape:connector-curvature="0" />
    <path
       style="fill:url(#radialGradient45239);fill-opacity:1;stroke:none"
       id="path13722"
       d="M 12.556396,38.593059 C 12.47861,38.51628 12.41266,38.43444 12.361081,38.348381 12.015264,37.783094 11.966224,37.14356 11.941705,36.946974 c -0.02452,-0.195741 -0.221526,-0.663159 -0.07356,-1.794577 0.04904,-0.2953 -0.197007,-0.662313 -0.197007,-1.106108 0,-0.443793 -0.0947,-1.333908 0.344125,-2.778345 1.110167,-3.638933 1.774744,-4.05657 1.798419,-4.425272 0.02537,-0.367859 -0.04904,-0.687626 0.665423,-2.702413 0.715309,-2.017317 1.281806,-1.574368 1.602258,-2.066253 0.320451,-0.491039 0.862428,-1.548213 1.428081,-2.187747 0.565652,-0.639533 1.207399,-0.737404 1.502487,-1.056327 0.295932,-0.320612 0.509848,-0.72475 1.055205,-1.076578 0.721227,-0.461511 1.673282,-0.453917 1.82463,-0.628566 0.152194,-0.17296 0.956281,-1.213259 1.195563,-1.408158 0.23759,-0.195741 1.172736,-0.08774 1.477122,-0.260706 0.302696,-0.172962 0.43375,-0.650503 0.69417,-0.716313 0.261266,-0.06328 1.390878,0.195743 1.86775,0.108839 l -0.02959,0.0051 c -0.416841,-0.03712 -0.678952,-0.110526 -0.860738,-0.291924 -0.202924,-0.201648 -0.135282,-0.335799 -1.992887,-0.707875 -1.857605,-0.369546 -4.019595,-0.60663 -6.85631,0.472479 -2.836714,1.079109 -2.870534,1.516996 -3.174921,1.685738 -0.303542,0.168742 -2.532329,1.314505 -3.073461,1.819888 -0.541132,0.505384 -0.810852,0.639535 -0.979957,0.875775 -0.168257,0.235394 -0.2697198,0.607472 -0.5749513,0.808276 -0.302696,0.203335 -2.0258625,1.888229 -2.5661484,2.730253 -0.5402871,0.84287 -0.7085456,1.280757 -0.9452909,1.651146 -0.2367455,0.371234 -1.113547,1.348254 -1.5878836,2.224027 -0.4726445,0.877462 -0.9444438,2.124468 -0.9444438,2.46111 0,0.336642 0.4388241,1.078265 0.4388241,1.281601 0,0.201646 -0.5741071,0.640377 -0.6079279,0.909522 -0.033821,0.269988 0.066796,1.01161 0.1344376,1.584492 0.067641,0.573724 0.034666,0.944114 0.1691036,1.213259 0.1344375,0.269988 0.5064656,0.404139 0.5741071,0.641223 0.067641,0.23455 0.2705663,0.808275 0.6079279,1.110323 0.3382075,0.302895 0.6425952,0.404984 0.9791095,0.741626 0.3382088,0.33664 0.9808028,0.910364 1.4534476,1.044516 0.4726446,0.134993 1.2158554,0 1.5193969,0.202489 0.3035405,0.202492 1.3511386,1.247008 1.8576046,1.415751 0.506465,0.169586 1.586191,-0.101246 1.890578,-0.134149 l 0,0 z"
       i:knockout="Off"
       inkscape:connector-curvature="0" />
    <path
       style="fill:none;stroke:url(#linearGradient45263);stroke-width:0.50000006;stroke-opacity:1"
       id="path13737"
       d="m 21.479154,40.689684 c 0.651048,-0.100403 1.31309,-0.238771 2.009797,-0.361109 0.695017,-0.124026 2.411417,-0.04809 4.127823,-0.848776 0.770267,-0.361108 1.576892,-1.435155 3.3863,-2.330334 0.684871,-0.338328 2.536556,-1.867137 3.217198,-2.191122 0.680642,-0.323985 2.178902,-1.157573 2.534865,-1.419969 0.355964,-0.262393 0.804088,-1.141543 1.176116,-1.619928 0.370338,-0.478386 2.566149,-1.374408 2.736098,-1.403937 0.169951,-0.03122 0.123445,0.307954 0.123445,0.585535"
       i:knockout="Off"
       inkscape:connector-curvature="0" />
    <path
       style="fill:none;stroke:url(#linearGradient4093);stroke-width:0.50000006;stroke-opacity:1"
       id="path13739"
       d="m 31.539133,15.11422 c 0.22829,0.104621 0.771959,0.383891 1.50756,0.892648 0.736446,0.506228 1.963293,1.661272 2.086738,1.802171 0.123447,0.139213 1.104248,2.290679 1.577738,3.026398 0.473492,0.734874 2.120561,3.446566 2.226251,3.725835 0.10569,0.280114 0.299313,1.085014 0.333979,1.43431 0.03467,0.349299 -0.123444,1.994538 -0.210534,2.32696 -0.08793,0.333267 -0.525912,1.52206 -0.666268,1.889073 -0.140355,0.367015 -0.455734,1.452875 -0.613847,1.696707"
       i:knockout="Off"
       inkscape:connector-curvature="0" />
    <path
       i:knockout="Off"
       d="m 23.68173,33.476783 c -0.376256,-0.188147 -1.705411,-2.969868 -2.592359,-3.785738 -0.886948,-0.81587 -1.566747,-1.632584 -4.002685,-2.049378 -2.43594,-0.416795 -2.488361,-0.382202 -2.818959,-0.572881 -0.330597,-0.192367 -0.452352,-0.226958 -0.470108,-0.122338 -0.01776,0.103775 -0.123445,0.313017 -0.191933,0.382201 -0.05242,0.19068 0.156421,0.05147 0.504775,0.0869 0.348353,0.03543 1.235303,0.504539 1.810254,0.607471 0.574953,0.103778 2.523029,0.417637 3.027803,0.729812 0.504775,0.313018 2.123096,1.389594 2.575449,1.980194 0.453199,0.590598 0.835373,1.494215 0.992639,1.753234 0.157266,0.260709 0.591018,0.8859 0.800706,0.955928 0.207997,0.06834 0.607929,0.155242 0.364418,0.03459 z"
       id="path13743"
       style="fill:#90883f;fill-opacity:1;fill-rule:nonzero;stroke-width:1;stroke-linecap:butt;stroke-linejoin:miter;stroke-miterlimit:4;stroke-opacity:1;stroke-dasharray:none;stroke-dashoffset:0;marker:none;visibility:visible;display:inline;overflow:visible;enable-background:accumulate"
       inkscape:connector-curvature="0" />
    <path
       i:knockout="Off"
       d="m 17.177156,23.153115 c 0.375412,-0.306268 3.699143,-0.701124 4.584403,0.294455 0.883566,0.998113 1.497412,3.080396 2.087585,4.144318 0.589325,1.064765 0.952899,2.01563 1.701183,2.942869 0.74913,0.928929 1.361285,1.699238 1.339302,2.241745 -0.02283,0.544194 -0.817616,2.671194 -0.86243,2.943713 -0.0465,0.270833 -0.476872,0.519729 -0.613001,0.40667 -0.136127,-0.113901 -2.087584,-1.154199 -2.655774,-1.154199 -0.566497,0 -2.405499,0.180557 -2.813885,-0.04556 -0.407539,-0.226958 -1.701183,-0.951706 -2.018252,-1.404781 -0.318761,-0.452231 -0.318761,-1.131417 -1.339303,-1.040298 -1.021385,0.09028 -2.835869,0.453073 -3.177459,0.610849 -0.339897,0.158617 -0.544512,-0.157776 -0.249427,-0.316393 0.295931,-0.158617 2.60927,-0.407513 2.949168,-0.588912 0.340745,-0.181397 1.225156,-0.248895 1.362131,-0.08943 0.135283,0.158617 0.407541,1.085858 0.748283,1.358377 0.339901,0.270832 1.111012,0.767779 1.883817,0.928083 0.771958,0.158619 2.156072,0.09028 2.587286,0.158619 0.431214,0.06834 2.314184,1.020047 2.609271,0.997268 0.295931,-0.02278 1.339301,-2.218965 1.248831,-2.740379 -0.09047,-0.520571 -1.525316,-2.307553 -2.178056,-3.486221 -1.293645,-2.332866 -2.019945,-4.642106 -2.31503,-4.982122 -0.29424,-0.339175 -0.567343,-0.996424 -1.791654,-1.107796 -1.225156,-0.113058 -2.541628,0.04472 -2.905202,0.225271 -0.363573,0.180554 -0.431215,-0.09028 -0.181787,-0.296143 z"
       id="path13745"
       style="fill:#90883f;fill-opacity:1;fill-rule:nonzero;stroke-width:1;stroke-linecap:butt;stroke-linejoin:miter;stroke-miterlimit:4;stroke-opacity:1;stroke-dasharray:none;stroke-dashoffset:0;marker:none;visibility:visible;display:inline;overflow:visible;enable-background:accumulate"
       inkscape:connector-curvature="0" />
    <path
       i:knockout="Off"
       d="m 21.526504,17.243751 c 0.552124,0.04134 1.297872,0.48176 1.740078,0.68847 0.442206,0.206711 1.173578,0.647128 1.53208,1.004862 0.360191,0.358579 0.249428,0.550944 0.06933,0.771996 -0.17925,0.22021 -0.27564,0.701126 -0.607082,0.964364 -0.331444,0.261551 -1.380731,0.936521 -1.712175,1.39044 -0.331444,0.454761 -0.607083,1.281599 -1.021385,1.212414 0.180093,0.06919 0.387245,0.386421 0.387245,0.386421 0.01353,-0.344234 0.49632,-1.005706 0.786333,-1.198916 0.290014,-0.19321 1.03576,-1.074045 1.215011,-1.282444 0.180095,-0.205021 0.66204,-0.508758 0.731373,-0.673282 0.06933,-0.165368 0.249427,-0.675815 0.538595,-0.923866 0.290858,-0.248051 0.332289,-0.344234 -0.137818,-0.729811 -0.47011,-0.385578 -1.089875,-0.896024 -1.434846,-0.993049 -0.344973,-0.09534 -0.967274,-0.426076 -1.255595,-0.605787 -0.290859,-0.178022 -0.249428,-0.315548 -0.234207,-0.411731 -0.112456,0.179709 -0.279022,0.426919 -0.596938,0.399919 z"
       id="path13747"
       style="fill:#90883f;fill-opacity:1;fill-rule:nonzero;stroke-width:1;stroke-linecap:butt;stroke-linejoin:miter;stroke-miterlimit:4;stroke-opacity:1;stroke-dasharray:none;stroke-dashoffset:0;marker:none;visibility:visible;display:inline;overflow:visible;enable-background:accumulate"
       inkscape:connector-curvature="0" />
    <path
       i:knockout="Off"
       d="m 15.90888,22.271435 c 0.510691,-0.247207 1.035758,-0.509602 1.324926,-0.592285 0.290013,-0.08184 1.215011,-0.371234 1.435691,-0.536603 0.221526,-0.165366 0.827763,-0.441261 1.076345,-0.454761 0.247737,-0.01434 0.883567,0.316392 1.200635,0.302893 0.317071,-0.01434 0.538596,-0.317236 0.344972,-0.317236 -0.193622,0 -0.289166,0.124025 -0.634138,0.04134 -0.345817,-0.08353 -0.690789,-0.178866 -0.552124,-0.220209 0.137819,-0.04218 0.676415,-0.248052 0.772804,-0.372077 0.09639,-0.123181 0.551278,-0.49526 0.551278,-0.619285 -0.206306,0.178866 -0.441362,0.440418 -0.620611,0.523102 -0.179249,0.08268 -0.952053,0.261552 -1.145677,0.372077 -0.192778,0.110527 -1.104248,0.660627 -1.352831,0.716312 -0.248581,0.054 -1.035759,0.371234 -1.24291,0.453918 -0.206307,0.08268 -0.510693,0.372077 -0.580027,0.275893 -0.06849,-0.09618 -0.04143,-0.358577 -0.04143,-0.358577 -0.1226,0.275051 -0.536903,0.785496 -0.536903,0.785496 z"
       id="path13749"
       style="fill:#90883f;fill-opacity:1;fill-rule:nonzero;stroke-width:1;stroke-linecap:butt;stroke-linejoin:miter;stroke-miterlimit:4;stroke-opacity:1;stroke-dasharray:none;stroke-dashoffset:0;marker:none;visibility:visible;display:inline;overflow:visible;enable-background:accumulate"
       inkscape:connector-curvature="0" />
    <path
       i:knockout="Off"
       d="m 11.877445,34.970999 c 0.151349,0.254801 0.313688,0.55685 0.523377,0.637847 0.209689,0.081 1.849993,0.742467 2.453694,0.82515 0.605391,0.081 1.884661,0.37039 2.059685,0.498633 0.175022,0.128247 1.023922,1.195543 0.953743,1.288352 -0.06933,0.09196 -0.361035,-0.161994 -0.546203,-0.348454 -0.18686,-0.185616 -0.384711,-0.53407 -0.698399,-0.673283 -0.313687,-0.139212 -2.338705,-0.545882 -2.907739,-0.777902 -0.569878,-0.232021 -1.407788,-0.626035 -1.512632,-0.707876 -0.103999,-0.08184 -0.361037,-0.674126 -0.361037,-0.371234 -0.01015,-0.174649 0.03551,-0.371233 0.03551,-0.371233 z"
       id="path13751"
       style="fill:#90883f;fill-opacity:1;fill-rule:nonzero;stroke-width:1;stroke-linecap:butt;stroke-linejoin:miter;stroke-miterlimit:4;stroke-opacity:1;stroke-dasharray:none;stroke-dashoffset:0;marker:none;visibility:visible;display:inline;overflow:visible;enable-background:accumulate"
       inkscape:connector-curvature="0" />
    <path
       i:knockout="Off"
       d="m 25.92151,23.491444 c -0.09724,-0.112214 -0.265493,-0.194897 -0.587636,-0.04219 -0.321298,0.153556 -0.264648,0.489354 -0.166566,0.642909 0.09723,0.153556 1.370585,2.63829 1.370585,3.153799 0,0.515509 -0.50393,1.786982 -0.769422,2.150624 -0.265492,0.362796 -0.09724,0.58638 -0.08455,0.627722 0.01438,0.04218 0.33567,-0.600725 0.462499,-0.740781 0.125137,-0.139211 0.671342,-1.199759 0.671342,-1.381156 0,-0.181399 -0.112452,-1.061391 -0.210534,-1.353315 -0.09723,-0.293613 -1.006166,-1.968382 -1.062817,-2.359865 -0.05665,-0.391484 0.01437,-0.432824 0.09808,-0.432824 0.08371,0 0.293395,-0.05569 0.293395,-0.112214 0,-0.05653 -0.01437,-0.152713 -0.01437,-0.152713 z"
       id="path13753"
       style="fill:#90883f;fill-opacity:1;fill-rule:nonzero;stroke-width:1;stroke-linecap:butt;stroke-linejoin:miter;stroke-miterlimit:4;stroke-opacity:1;stroke-dasharray:none;stroke-dashoffset:0;marker:none;visibility:visible;display:inline;overflow:visible;enable-background:accumulate"
       inkscape:connector-curvature="0" />
    <path
       i:knockout="Off"
       d="m 27.404549,27.022381 c 0.271412,-0.405826 0.936834,-1.772639 0.97911,-1.897509 0.04228,-0.125714 0.181786,-1.801327 0.334826,-1.926196 0.154731,-0.126557 0.448125,0.05484 0.797323,0.250582 0.350046,0.194899 1.427235,0.725592 1.69273,0.795621 0.265492,0.06918 1.595491,0.460668 1.833085,0.529853 0.237588,0.07087 0.405002,0.391482 0.503927,0.530694 0.09724,0.140057 0.671341,1.243634 0.755895,1.396345 0.0837,0.153555 0.208842,0.461511 0.04227,0.57288 -0.168258,0.110526 -0.350044,0.334111 -0.503929,0.389796 -0.15473,0.05653 -0.574107,0.587225 -0.909778,0.57288 -0.334825,-0.01434 -0.895405,-0.01434 -1.203172,-0.334109 -0.30777,-0.322299 -0.950364,-0.294456 -0.950364,-0.545039 0,-0.250583 -0.113299,-0.34761 -0.196159,-0.322298 -0.08455,0.02869 -0.405849,0.447167 -0.20969,0.628566 0.19616,0.182241 1.091565,0.545038 1.370586,0.725592 0.279867,0.182244 0.265492,0.321456 0.251965,0.432825 -0.01438,0.113057 0.154729,0.350142 0.307769,0.182242 0.153037,-0.167899 0.153884,-0.293611 0.0558,-0.446323 -0.09808,-0.154399 -0.392321,-0.154399 -0.350046,-0.251427 0.04228,-0.09703 0.476028,0.09703 0.769423,0.09703 0.293395,0 0.517457,-0.293613 0.699245,-0.361954 0.182631,-0.07087 0.685714,-0.113056 0.895402,-0.377983 0.210536,-0.264926 0.36442,-0.418481 0.322144,-0.642909 -0.04228,-0.22274 -0.50393,-1.059703 -0.881031,-1.619085 -0.377947,-0.556851 -0.616383,-0.696906 -0.616383,-0.92049 0,-0.224427 0.04227,-0.572881 -0.153883,-0.837806 -0.196162,-0.264927 -0.223219,-0.432826 -0.195317,-0.585538 0.02706,-0.154399 0.07018,-0.460666 -0.01437,-0.558538 -0.08455,-0.09787 -0.307768,-0.112213 -0.33567,-0.01434 -0.0279,0.09787 0.01437,0.529851 0.111608,0.669908 0.09808,0.140055 0.392322,0.685093 0.392322,0.964362 0,0.279269 0.05496,0.417638 -0.05496,0.417638 -0.112455,0 -0.812543,-0.250582 -1.287725,-0.432823 -0.476028,-0.181399 -1.817865,-0.725594 -2.068984,-0.837807 -0.25281,-0.11137 -0.644286,-0.23624 -0.630758,-0.486822 0.01522,-0.253116 0.393166,-0.92218 0.79817,-1.186261 0.405005,-0.265769 0.489555,-1.07489 0.489555,-1.467216 0,-0.39064 -0.252811,-0.892649 -0.881876,-1.283288 -0.629065,-0.389795 -2.097732,-1.339815 -2.559383,-1.646084 -0.4625,-0.307111 -0.672188,-0.433666 -0.783796,-0.572881 -0.11161,-0.139211 -0.210535,-0.30711 -0.419377,-0.265767 -0.210536,0.04218 0.05496,0.321455 0.208842,0.419323 0.15473,0.09703 2.028399,1.353316 2.56023,1.702612 0.531832,0.349299 1.34353,0.866495 1.398488,1.313662 0.0558,0.446324 0.08371,1.087546 -0.224062,1.464685 -0.306923,0.376295 -0.866657,0.97702 -0.979112,1.395501 -0.110763,0.418481 -0.419376,1.592086 -0.629065,2.233307 -0.209688,0.641223 -0.769422,1.828325 -0.727992,2.010568 0.04228,0.180553 0.11161,0.250582 0.196161,0.124025 z"
       id="path13755"
       style="fill:#9d9545;fill-opacity:1"
       inkscape:connector-curvature="0" />
    <path
       i:knockout="Off"
       d="m 24.58559,15.451706 c 0.207999,-0.081 0.554661,-0.05569 0.806625,0.0067 0.251965,0.06243 1.209937,0.427762 1.455983,0.472479 0.246046,0.04387 1.090719,0.245521 1.216702,0.175492 0.125136,-0.06834 0.125136,0.151025 -0.158957,0.194899 -0.282404,0.04472 -0.826073,-0.132463 -1.20402,-0.226959 -0.377947,-0.0945 -1.285188,-0.478385 -1.537152,-0.478385 -0.251964,0 -0.674724,-0.08184 -0.843829,-0.06159 0.112455,-0.0329 0.264648,-0.08268 0.264648,-0.08268 z"
       id="path13757"
       style="fill:#c0b870;fill-opacity:1;fill-rule:nonzero;stroke-width:1;stroke-linecap:butt;stroke-linejoin:miter;stroke-miterlimit:4;stroke-opacity:1;stroke-dasharray:none;stroke-dashoffset:0;marker:none;visibility:visible;display:inline;overflow:visible;enable-background:accumulate"
       inkscape:connector-curvature="0" />
    <path
       i:knockout="Off"
       d="m 27.116227,14.868699 c 0.231672,-0.0084 1.255595,0.334111 1.488959,0.421014 0.230826,0.08606 1.332537,0.66822 1.659753,0.917959 0.326369,0.248896 1.273351,1.553275 1.488111,1.759985 0.214763,0.205866 0.533525,0.660628 0.714464,0.592287 0.180941,-0.07003 0.08624,-0.120652 -0.05242,-0.32736 -0.136973,-0.205868 -1.058589,-1.176137 -1.342682,-1.492529 -0.283248,-0.318924 -0.601165,-0.653033 -0.901324,-0.825995 -0.30185,-0.171273 -1.462746,-0.651346 -1.686807,-0.764405 -0.224063,-0.109681 -1.213321,-0.333265 -1.213321,-0.333265 l -0.15473,0.05231 z"
       id="path13759"
       style="fill:#c0b870;fill-opacity:1;fill-rule:nonzero;stroke-width:1;stroke-linecap:butt;stroke-linejoin:miter;stroke-miterlimit:4;stroke-opacity:1;stroke-dasharray:none;stroke-dashoffset:0;marker:none;visibility:visible;display:inline;overflow:visible;enable-background:accumulate"
       inkscape:connector-curvature="0" />
    <path
       i:knockout="Off"
       d="m 33.501583,21.505345 c 0.07356,-0.04472 0.290013,0.350139 0.442208,0.471634 0.152193,0.122339 0.777029,0.700283 1.02054,0.913741 0.244356,0.214304 0.427831,0.578787 0.503928,0.729812 0.0761,0.153555 0.27395,0.974488 0.290859,1.187103 0.01522,0.213461 0.136974,2.068784 0.181787,2.359022 0.0465,0.289394 0.0465,0.578786 0.122598,0.790559 0.07695,0.214301 0.305234,0.457291 0.320454,1.065608 0.01522,0.609162 0.153038,1.217478 0.10738,2.146406 -0.0465,0.928928 -0.137821,1.689955 -0.183478,1.977661 -0.0465,0.290239 -0.0465,0.47248 0.04566,0.47248 0.09216,0 0.183479,0.07593 0.335672,-0.02953 -0.244354,0.136682 -0.457425,0.288551 -0.625685,0.378827 -0.02959,-0.167054 0.122603,-0.440419 0.122603,-0.683407 0,-0.243834 0.03044,-1.24785 0.0761,-1.842668 0.0465,-0.59313 0.09131,-2.024068 0,-2.161593 -0.09047,-0.13668 -0.04566,-0.410045 -0.0761,-0.638692 -0.03044,-0.228644 -0.410923,-0.669063 -0.396549,-0.882521 0.01522,-0.212616 -0.1226,-1.446125 -0.197851,-2.055284 -0.0761,-0.608317 -0.1226,-1.871354 -0.350892,-2.068783 -0.229134,-0.198274 -0.915696,-1.155887 -1.175268,-1.338974 -0.25873,-0.183085 -0.48702,-0.456447 -0.533524,-0.59313 -0.04566,-0.136681 -0.106535,-0.151867 -0.03044,-0.198271 z"
       id="path13761"
       style="fill:#7a7335;fill-opacity:1;fill-rule:nonzero;stroke-width:1;stroke-linecap:butt;stroke-linejoin:miter;stroke-miterlimit:4;stroke-opacity:1;stroke-dasharray:none;stroke-dashoffset:0;marker:none;visibility:visible;display:inline;overflow:visible;enable-background:accumulate"
       inkscape:connector-curvature="0" />
    <path
       i:knockout="Off"
       d="m 28.89858,28.923266 c 0.125138,-0.06244 0.18686,0.0869 0.136974,0.199116 -0.04988,0.112214 -0.136974,0.137527 -0.21138,0.211774 -0.07525,0.07509 -0.150502,0.334952 -0.07525,0.485132 0.07525,0.149338 0.286632,0.696907 0.524224,0.895181 0.0744,0.174649 0.236744,0.585536 0.498856,0.759341 0.174177,0.112213 0.212224,0.535757 0.399929,0.509602 0.186014,-0.02278 0.785487,-0.409201 0.997713,-0.522257 0.211378,-0.112215 0.76012,-0.335798 0.997713,-0.409202 0.236744,-0.07509 0.52422,-0.324828 0.772802,-0.348453 0.249428,-0.02531 0.574953,-0.162837 0.736448,-0.263239 0.161493,-0.09871 0.149655,0.07593 0,0.150183 -0.150504,0.07424 -0.736448,0.26155 -0.923307,0.39823 -0.18686,0.136683 -0.611311,0.349298 -0.77365,0.4362 -0.161493,0.08775 -0.547895,0.07593 -1.122003,0.436199 -0.574106,0.361111 -0.685716,0.610006 -0.82269,0.846244 -0.137819,0.23624 -0.500547,0.721376 -0.585943,1.156731 -0.08793,0.437042 -0.03805,0.647972 0.07441,0.747528 0.112454,0.09956 0.249427,0.534915 0.348353,0.660627 0.100616,0.123184 0.3492,0.186462 0.42445,0.111372 0.07441,-0.07593 0.175022,0.08774 0.125138,0.174648 -0.05158,0.0869 -0.1133,0.07425 -0.287477,0 -0.175022,-0.07593 -0.410922,-0.113058 -0.524222,-0.38642 -0.111608,-0.274207 -0.349199,-0.572881 -0.399083,-0.734874 -0.04989,-0.16115 -0.08794,-0.509603 0.01268,-0.696064 0.09977,-0.187302 0.698399,-1.095983 0.772805,-1.269786 0.07525,-0.174649 -0.0372,-0.36111 -0.198698,-0.572883 -0.161493,-0.210927 -0.373719,-0.621815 -0.536904,-0.784651 -0.161492,-0.161151 -0.361882,-0.485136 -0.486171,-0.684252 -0.124295,-0.199116 -0.212227,-0.460667 -0.224911,-0.734031 -0.01268,-0.274205 -0.09977,-0.460666 0.05073,-0.535757 0.149658,-0.07509 0.18686,0.06159 0.236745,-0.04978 0.04989,-0.112213 0.06172,-0.18646 0.06172,-0.18646 z"
       id="path13763"
       style="fill:#7e7737;fill-opacity:1;fill-rule:nonzero;stroke-width:1;stroke-linecap:butt;stroke-linejoin:miter;stroke-miterlimit:4;stroke-opacity:1;stroke-dasharray:none;stroke-dashoffset:0;marker:none;visibility:visible;display:inline;overflow:visible;enable-background:accumulate"
       inkscape:connector-curvature="0" />
    <path
       i:knockout="Off"
       d="m 32.076039,34.122225 c 0.176714,-0.08015 0.410077,0.113057 0.410077,0.158618 0,0.04556 -0.170795,-0.0675 -0.205461,0.08099 -0.03467,0.146808 -0.136128,0.306269 0.102308,0.454762 0.239281,0.14765 0.183477,0.124027 0.297622,0.306268 0.114146,0.182242 0.03382,0.09028 -0.182632,-0.02194 -0.217298,-0.114744 -0.524221,-0.159461 -0.558888,-0.387262 -0.03467,-0.227805 -0.09047,-0.488512 0.136974,-0.591443 z"
       id="path13765"
       style="fill:#c0b870;fill-opacity:1;fill-rule:nonzero;stroke-width:1;stroke-linecap:butt;stroke-linejoin:miter;stroke-miterlimit:4;stroke-opacity:1;stroke-dasharray:none;stroke-dashoffset:0;marker:none;visibility:visible;display:inline;overflow:visible;enable-background:accumulate"
       inkscape:connector-curvature="0" />
    <path
       i:knockout="Off"
       d="m 34.574545,33.130861 c 0.08963,-0.09028 0.04481,-0.237082 -0.114144,-0.328204 -0.158111,-0.08859 -0.202924,-0.157775 -0.08962,-0.191523 0.1133,-0.0329 0.26042,0.04556 0.305234,0 0.04566,-0.04472 -0.383867,-0.191524 -0.610464,-0.169587 -0.2266,0.02278 -0.361883,-0.145962 -0.361883,-0.06665 0,0.07847 0.282403,0.236239 0.384711,0.360265 0.101461,0.124871 0.383865,0.496103 0.486171,0.395701 z"
       id="path13767"
       style="fill:#c0b870;fill-opacity:1;fill-rule:nonzero;stroke-width:1;stroke-linecap:butt;stroke-linejoin:miter;stroke-miterlimit:4;stroke-opacity:1;stroke-dasharray:none;stroke-dashoffset:0;marker:none;visibility:visible;display:inline;overflow:visible;enable-background:accumulate"
       inkscape:connector-curvature="0" />
    <path
       i:knockout="Off"
       d="m 19.944539,38.485907 c 0.204616,-0.03459 0.814234,0.761029 1.160898,0.863961 0.346661,0.103777 0.589325,0.467415 0.952899,0.62266 0.365263,0.156087 1.439071,0.260706 1.664825,0.276737 -0.234208,0.07847 -0.83199,0.190679 -0.83199,0.190679 -0.640904,-0.190679 -1.50756,-0.467416 -1.76798,-0.657251 -0.260419,-0.189837 -0.623992,-0.743312 -0.865811,-0.847088 -0.242663,-0.103776 -0.554659,-0.08606 -0.503929,-0.345922 0.07018,-0.120651 0.08709,-0.08606 0.191088,-0.103776 z"
       id="path13769"
       style="fill:#807938;fill-opacity:1;fill-rule:nonzero;stroke-width:1;stroke-linecap:butt;stroke-linejoin:miter;stroke-miterlimit:4;stroke-opacity:1;stroke-dasharray:none;stroke-dashoffset:0;marker:none;visibility:visible;display:inline;overflow:visible;enable-background:accumulate"
       inkscape:connector-curvature="0" />
    <path
       i:knockout="Off"
       d="m 25.569775,36.514994 c 0.200386,-0.114746 0.237589,0.200804 0.09047,0.309641 -0.145429,0.110528 -0.401623,0.237928 -0.62061,0.820932 -0.21899,0.58385 -0.255347,1.094297 -0.03636,1.130576 0.219835,0.03628 0.547896,0.237083 0.530141,0.346766 -0.01776,0.109683 -0.273948,-0.109683 -0.51154,-0.183085 -0.236744,-0.07172 -0.529294,-0.418482 -0.438822,-0.728967 0.09132,-0.309644 0.45658,-0.966053 0.730527,-1.240259 0.273948,-0.272519 0.128518,-0.382202 0.256193,-0.455604 z"
       id="path13771"
       style="fill:#807938;fill-opacity:1;fill-rule:nonzero;stroke-width:1;stroke-linecap:butt;stroke-linejoin:miter;stroke-miterlimit:4;stroke-opacity:1;stroke-dasharray:none;stroke-dashoffset:0;marker:none;visibility:visible;display:inline;overflow:visible;enable-background:accumulate"
       inkscape:connector-curvature="0" />
    <path
       i:knockout="Off"
       d="m 30.119509,37.610132 c -0.273948,0.05315 -1.150752,0.235395 -1.516013,0.07172 -0.366111,-0.162837 -1.096641,-0.491885 -1.096641,-0.419325 0,0.07425 0.693327,0.529851 0.821846,0.547569 0.128518,0.01772 0.877648,0.126556 0.932607,0.182243 0.05411,0.054 0.01776,0.255644 0.01776,0.255644 0.273947,-0.237083 0.840445,-0.637847 0.840445,-0.637847 z"
       id="path13773"
       style="fill:#7a7335;fill-opacity:1;fill-rule:nonzero;stroke-width:1;stroke-linecap:butt;stroke-linejoin:miter;stroke-miterlimit:4;stroke-opacity:1;stroke-dasharray:none;stroke-dashoffset:0;marker:none;visibility:visible;display:inline;overflow:visible;enable-background:accumulate"
       inkscape:connector-curvature="0" />
    <path
       i:knockout="Off"
       d="m 11.648311,34.205752 c -0.175022,0.2683 -0.430369,0.685094 -0.686561,0.669908 -0.255347,-0.01266 -0.470955,-0.160306 -0.673033,-0.173805 -0.201234,-0.0135 -1.3308461,0.0405 -1.6140958,-0.0135 -0.282403,-0.05316 -1.9379286,-0.457292 -2.2871271,-0.6041 -0.3500456,-0.148492 -1.27927,-0.241301 -1.2378392,-0.430293 0.039739,-0.188148 0.2012324,-0.107152 0.4312128,-0.03965 0.2282911,0.06581 0.928381,0.403294 1.2107831,0.469947 0.2824046,0.06665 1.3993341,0.348455 1.7620614,0.348455 0.3635727,0 1.5481438,0 1.7223218,0.02784 0.175022,0.02531 0.551278,0.119808 0.645976,0.0135 0.09385,-0.107994 0.564806,-0.390639 0.61892,-0.645439 0.05411,-0.254803 0.107381,-0.334955 0.107381,-0.334955 -0.01353,0.322298 0,0.712094 0,0.712094 z"
       id="path13775"
       style="fill:#9d9545;fill-opacity:1;fill-rule:nonzero;stroke-width:1;stroke-linecap:butt;stroke-linejoin:miter;stroke-miterlimit:4;stroke-opacity:1;stroke-dasharray:none;stroke-dashoffset:0;marker:none;visibility:visible;display:inline;overflow:visible;enable-background:accumulate"
       inkscape:connector-curvature="0" />
    <path
       i:knockout="Off"
       d="m 3.9921394,29.907878 c 0.2156071,-0.282643 0.5927088,-0.562755 0.8209986,-0.631096 0.2291357,-0.06665 0.7533563,-0.187306 0.9283798,0 0.1750221,0.188149 0.3644189,0.685938 0.4853276,0.847088 0.1209085,0.160305 0.4295221,0.107151 0.510693,0.188147 0.08117,0.08015 0.7136175,0.8589 0.7136175,0.993893 0,0.133307 -0.1209099,0.402452 -0.040585,0.483449 0.08117,0.08015 0.2967766,-0.054 0.3356714,-0.148494 0.04143,-0.0945 0.067641,-0.456448 0.013529,-0.550943 -0.053269,-0.09365 -0.6316035,-0.952554 -0.7660407,-0.979552 -0.1335914,-0.027 -0.4438968,-0.027 -0.6586592,-0.2683 -0.215607,-0.241303 -0.5656513,-0.898554 -0.7263002,-0.898554 -0.1614947,0 -0.4312141,0.12065 -0.6459764,0.200804 -0.215607,0.08099 -0.7398285,0.178866 -0.7939417,0.165367 -0.053268,-0.0135 -0.4489704,-0.231178 -0.5436685,-0.366171 0.1462747,0.201648 0.366955,0.964362 0.366955,0.964362 z"
       id="path13777"
       style="fill:#9d9545;fill-opacity:1;fill-rule:nonzero;stroke-width:1;stroke-linecap:butt;stroke-linejoin:miter;stroke-miterlimit:4;stroke-opacity:1;stroke-dasharray:none;stroke-dashoffset:0;marker:none;visibility:visible;display:inline;overflow:visible;enable-background:accumulate"
       inkscape:connector-curvature="0" />
    <path
       i:knockout="Off"
       d="m 4.6017581,26.868827 c 0.2198355,-0.218522 0.4565796,-0.626879 0.7229189,-0.759342 0.2671841,-0.134152 0.8193068,-0.685095 1.0670443,-0.626879 0.2477363,0.05569 0.6865613,0.569505 1.2564406,0.626879 0.5715714,0.05568 2.1137965,0.05568 2.4756791,0.17043 0.362727,0.1139 1.999651,0 2.437631,-0.17043 0.438822,-0.172117 0.591015,0.340859 0.782102,0.361108 0.1133,0.01772 -0.266337,0.247209 -0.610464,0.247209 -0.342433,0 -0.990102,-0.286019 -1.313936,-0.247209 -0.323833,0.03797 -1.98105,-0.171272 -2.2854361,-0.171272 -0.304386,0 -1.6749724,0.05737 -2.2659905,-0.208399 -0.590171,-0.266612 -0.8379086,-0.153554 -1.1997897,0.05569 -0.3618825,0.210084 -0.8379097,0.77959 -1.1050925,1.007393 -0.2663392,0.227801 -0.4954746,0.399919 -0.4954746,0.285175 0,-0.114745 0.3246792,-0.361109 0.5343675,-0.570349 z"
       id="path13779"
       style="fill:#9d9545;fill-opacity:1;fill-rule:nonzero;stroke-width:1;stroke-linecap:butt;stroke-linejoin:miter;stroke-miterlimit:4;stroke-opacity:1;stroke-dasharray:none;stroke-dashoffset:0;marker:none;visibility:visible;display:inline;overflow:visible;enable-background:accumulate"
       inkscape:connector-curvature="0" />
    <path
       i:knockout="Off"
       d="m 15.22739,22.725353 c -0.322988,-0.3223 -1.370585,-0.949178 -1.580273,-1.728767 -0.208844,-0.778747 -0.476028,-1.214947 -0.380484,-1.728767 0.0947,-0.512978 -0.133592,-0.361953 -0.285784,-0.342548 -0.152193,0.01941 -0.743213,0.171273 -1.008705,0.1139 -0.267184,-0.05653 -0.419378,8.44e-4 -0.267184,0.09534 0.153884,0.0945 0.724609,0.0945 0.9529,0.03797 0.229135,-0.05737 0.266338,0.05653 0.285785,0.361109 0.0186,0.302892 -0.0761,1.291726 0.247736,1.539778 0.323836,0.246363 0.57157,0.873241 0.990103,1.06392 0.418531,0.19068 0.761812,0.647128 0.761812,0.739936 0,0.09534 -0.0761,0.362796 -0.0761,0.419326 0.208843,-0.39992 0.36019,-0.571194 0.36019,-0.571194 z"
       id="path13781"
       style="fill:#a79e49;fill-opacity:1;fill-rule:nonzero;stroke-width:1;stroke-linecap:butt;stroke-linejoin:miter;stroke-miterlimit:4;stroke-opacity:1;stroke-dasharray:none;stroke-dashoffset:0;marker:none;visibility:visible;display:inline;overflow:visible;enable-background:accumulate"
       inkscape:connector-curvature="0" />
    <path
       i:knockout="Off"
       d="m 15.322934,18.222458 c 0.01437,-0.132463 0.20969,-0.247208 0.285786,-0.20924 0.07694,0.03797 0.05749,0.361952 0.209688,0.47501 0.15304,0.115587 0.819307,0.703656 1.028996,0.874086 0.209689,0.171273 0.533522,0.493573 0.647667,0.437887 0.114147,-0.05653 0.05665,0.07593 0.05665,0.07593 -0.11499,0.0945 -0.342434,0.417638 -0.342434,0.417638 -0.09554,-0.303736 -0.533522,-0.493572 -0.628221,-0.626878 -0.0947,-0.132464 -0.324679,-0.456449 -0.62822,-0.684252 -0.306079,-0.227802 -0.648513,-0.57035 -0.629912,-0.760185 z"
       id="path13783"
       style="fill:#90883f;fill-opacity:1;fill-rule:nonzero;stroke-width:1;stroke-linecap:butt;stroke-linejoin:miter;stroke-miterlimit:4;stroke-opacity:1;stroke-dasharray:none;stroke-dashoffset:0;marker:none;visibility:visible;display:inline;overflow:visible;enable-background:accumulate"
       inkscape:connector-curvature="0" />
    <path
       i:knockout="Off"
       d="m 20.616726,17.479991 c -0.114146,-0.01772 -0.609618,-0.208396 -0.952054,-0.47501 -0.342434,-0.264926 -0.799861,-0.494415 -1.217547,-0.494415 -0.419378,0 -2.037699,-0.07593 -2.419027,0.03881 -0.381331,0.113901 -0.55297,0.228645 -0.666269,0.361953 -0.114991,0.132462 0.361881,-0.152712 0.628219,-0.190681 0.265494,-0.03881 1.694418,-0.07593 2.132398,-0.0194 0.438823,0.05737 1.047598,0.113903 1.427236,0.45645 0.381329,0.341704 0.516611,0.595661 0.516611,0.595661 0.189397,-0.195742 0.550433,-0.273363 0.550433,-0.273363 z"
       id="path13785"
       style="fill:#90883f;fill-opacity:1;fill-rule:nonzero;stroke-width:1;stroke-linecap:butt;stroke-linejoin:miter;stroke-miterlimit:4;stroke-opacity:1;stroke-dasharray:none;stroke-dashoffset:0;marker:none;visibility:visible;display:inline;overflow:visible;enable-background:accumulate"
       inkscape:connector-curvature="0" />
    <path
       i:knockout="Off"
       d="m 11.000644,19.07714 c 0.0558,0.03712 -0.439671,0.646283 -0.381329,0.835275 0.05665,0.189835 0.514074,0.779589 0.781258,0.950021 0.265494,0.170429 0.399931,0.551786 0.379639,0.703654 -0.01776,0.151871 -0.22829,0.721376 -0.476028,0.702815 -0.247737,-0.01856 -0.190241,-0.09534 -0.05665,-0.171275 0.133593,-0.07593 0.304388,-0.285174 0.285786,-0.588911 -0.0186,-0.303737 -0.170795,-0.475011 -0.380482,-0.646283 -0.20969,-0.171274 -0.514076,-0.645442 -0.609622,-0.741625 -0.09554,-0.09449 -0.09554,-0.208396 0.0761,-0.456449 0.17164,-0.24552 0.381329,-0.587222 0.381329,-0.587222 z"
       id="path13787"
       style="fill:#c0b870;fill-opacity:1;fill-rule:nonzero;stroke-width:1;stroke-linecap:butt;stroke-linejoin:miter;stroke-miterlimit:4;stroke-opacity:1;stroke-dasharray:none;stroke-dashoffset:0;marker:none;visibility:visible;display:inline;overflow:visible;enable-background:accumulate"
       inkscape:connector-curvature="0" />
    <path
       i:knockout="Off"
       d="m 7.7242594,22.459583 c 0.2096877,-0.132463 0.381327,-0.571192 1.008702,-0.874086 0.629066,-0.303737 0.9909488,-0.532383 1.1617426,-0.512132 0.170795,0.01772 0.552125,0.05568 0.514076,-0.133307 -0.03805,-0.190681 -0.132746,-0.265772 -0.114144,-0.417639 0.0186,-0.153556 0.0186,-0.400763 0.132746,-0.400763 0.11499,0 0.209688,-0.226959 0.0186,-0.151868 -0.191085,0.07678 -0.323832,0.228645 -0.323832,0.380514 0,0.151867 0.11499,0.456448 0,0.475011 -0.114145,0.01856 -0.3999309,-0.07594 -0.6096186,0.05653 -0.2096897,0.132462 -1.1431418,0.664845 -1.256441,0.798151 -0.1124537,0.133308 -0.53183,0.779591 -0.53183,0.779591 z"
       id="path13789"
       style="fill:#9d9545;fill-opacity:1;fill-rule:nonzero;stroke-width:1;stroke-linecap:butt;stroke-linejoin:miter;stroke-miterlimit:4;stroke-opacity:1;stroke-dasharray:none;stroke-dashoffset:0;marker:none;visibility:visible;display:inline;overflow:visible;enable-background:accumulate"
       inkscape:connector-curvature="0" />
    <path
       i:knockout="Off"
       d="m 25.259469,14.740456 c 0.361881,-0.05653 -2.076594,-0.551788 -2.415646,-0.608317 -0.338208,-0.05653 -3.455634,-0.140899 -3.948573,0 -0.495473,0.140057 -1.384114,0.477542 -1.750223,0.619285 -0.125982,0.04134 0.113299,0.07087 0.409231,0.07087 0.295932,0 0.944444,0.054 1.354521,0.06919 0.408384,0.01519 1.495722,0.04303 1.833929,0.09871 0.338208,0.05653 1.551527,0.238771 1.818711,0.437043 0.268029,0.196585 0.240127,0.09787 0.240127,0.225271 0,0.125713 0.01437,0.337484 -0.01437,0.39317 0.141201,-0.167899 0.211378,-0.295299 0.35258,-0.350984 0.141202,-0.05568 0.282403,-0.09871 0.282403,-0.09871 -0.493782,-0.195741 -0.973191,-0.547569 -1.368049,-0.5771 -0.395701,-0.02784 -1.889733,-0.168743 -2.257534,-0.182242 -0.366955,-0.01434 -2.186511,-0.01434 -2.144237,-0.113901 0.04312,-0.09787 0.268032,-0.182242 0.607084,-0.308798 0.338208,-0.127403 0.748285,-0.281801 1.453446,-0.281801 0.705163,0 3.004128,0.09871 3.413359,0.168743 0.409231,0.07003 1.580275,0.323985 1.62255,0.436199 0.04228,0.113057 -0.07187,0.669065 -0.162339,0.714625 0.191086,-0.136682 0.373719,-0.418482 0.45827,-0.516352 0.08371,-0.09872 0.105692,-0.177179 0.214763,-0.194898 z"
       id="path13791"
       style="fill:#90883f;fill-opacity:1;fill-rule:nonzero;stroke-width:1;stroke-linecap:butt;stroke-linejoin:miter;stroke-miterlimit:4;stroke-opacity:1;stroke-dasharray:none;stroke-dashoffset:0;marker:none;visibility:visible;display:inline;overflow:visible;enable-background:accumulate"
       inkscape:connector-curvature="0" />
    <path
       i:knockout="Off"
       d="m 14.252508,16.004338 c 0.394857,-0.08521 0.959662,-0.226116 1.114393,-0.309643 -0.296776,0.05569 -0.83199,0.183085 -0.776186,0.08437 0.05581,-0.09787 0.142047,-0.183085 0.142047,-0.183085 -0.212224,0.182241 -0.480254,0.408357 -0.480254,0.408357 z"
       id="path13793"
       style="fill:#f57e80"
       inkscape:connector-curvature="0" />
    <path
       i:knockout="Off"
       d="m 38.293982,26.128889 c 0.108227,-0.106308 0.277331,0.228647 0.317071,0.346765 0.03889,0.118964 0.0465,0.53829 0.118373,0.718845 0.07102,0.181397 0.197005,0.653877 0.213915,0.788872 0.01607,0.133305 0.09385,0.417637 0.118372,0.30711 -0.03974,0.213461 -0.134437,0.489355 -0.134437,0.489355 -0.04819,-0.339175 -0.133592,-0.647973 -0.165723,-0.844556 -0.03128,-0.196587 -0.110761,-0.410045 -0.197004,-0.78803 -0.08709,-0.378827 -0.165722,-0.75006 -0.261266,-0.789714 -0.09554,-0.03965 -0.08032,-0.156932 -0.0093,-0.228647 z"
       id="path13795"
       style="fill:#8c843d;fill-opacity:1;fill-rule:nonzero;stroke-width:1;stroke-linecap:butt;stroke-linejoin:miter;stroke-miterlimit:4;stroke-opacity:1;stroke-dasharray:none;stroke-dashoffset:0;marker:none;visibility:visible;display:inline;overflow:visible;enable-background:accumulate"
       inkscape:connector-curvature="0" />
    <path
       i:knockout="Off"
       d="m 36.455824,21.653838 c 0,-0.196586 -0.45658,0.269144 -0.45658,0.394857 0,0.123182 0.103155,0.269145 0.228292,0.08268 0.124291,-0.186459 0.228288,-0.393168 0.228288,-0.47754 z"
       id="path13797"
       style="fill:#8c843d;fill-opacity:1;fill-rule:nonzero;stroke-width:1;stroke-linecap:butt;stroke-linejoin:miter;stroke-miterlimit:4;stroke-opacity:1;stroke-dasharray:none;stroke-dashoffset:0;marker:none;visibility:visible;display:inline;overflow:visible;enable-background:accumulate"
       inkscape:connector-curvature="0" />
    <path
       i:knockout="Off"
       d="m 38.491835,19.114263 c -0.106537,-0.07509 -0.303541,-0.07509 -0.289168,0.01603 0.01437,0.09112 0.243509,0.606631 0.578335,0.879148 0.333979,0.272521 0.607926,1.152512 0.6223,1.304382 0.01438,0.151868 0.122602,1.713579 0.259575,1.896665 0.13613,0.182242 0.546204,1.000643 0.668805,1.197229 0.120911,0.197428 0.455735,1.289192 0.546206,1.471433 0.09047,0.182243 0.121754,0.652191 0.228288,1.487466 0.105692,0.832746 0.303542,0.97027 0.379638,0.894336 0.0761,-0.07509 -0.01522,-0.04556 -0.136128,-0.454763 -0.1226,-0.410044 -0.167413,-1.167697 -0.213915,-1.562556 -0.04481,-0.394012 -0.470954,-1.456247 -0.66796,-1.819887 -0.197005,-0.363639 -0.395703,-0.742467 -0.440516,-1.197228 -0.04566,-0.455605 -0.273102,-1.213258 -0.410077,-1.744798 -0.136972,-0.530694 -0.440514,-1.182885 -0.561424,-1.33391 -0.122599,-0.151868 -0.578334,-0.607473 -0.578334,-0.74331 -8.45e-4,-0.137526 0.01438,-0.290237 0.01438,-0.290237 z"
       id="path13799"
       style="fill:#8e863e;fill-opacity:1;fill-rule:nonzero;stroke-width:1;stroke-linecap:butt;stroke-linejoin:miter;stroke-miterlimit:4;stroke-opacity:1;stroke-dasharray:none;stroke-dashoffset:0;marker:none;visibility:visible;display:inline;overflow:visible;enable-background:accumulate"
       inkscape:connector-curvature="0" />
    <path
       i:knockout="Off"
       d="m 40.225148,20.481078 c 0.175868,-0.02194 0.394857,0.287705 0.31876,0.318923 -0.0761,0.02953 -0.106536,0.135836 -0.03044,0.302893 0.0761,0.166211 0.365264,0.863118 0.516612,1.031017 0.152193,0.166211 0.50224,0.621815 0.562271,0.637002 0.06088,0.01603 0.0761,0.377983 0.0761,0.439575 0,0.0599 0.06088,0.378827 -0.136128,0.120649 -0.197852,-0.257331 -0.395705,-0.605784 -0.486175,-0.832744 -0.09131,-0.228645 -0.334826,-0.789714 -0.45658,-1.032702 -0.121754,-0.241303 -0.212224,-0.54504 -0.22829,-0.681721 -0.01522,-0.136682 -0.258728,-0.28855 -0.136127,-0.302892 z"
       id="path13801"
       style="fill:#888a85"
       inkscape:connector-curvature="0" />
    <path
       i:knockout="Off"
       d="m 41.182273,30.459667 c -0.136128,-0.151868 -0.242663,-0.28855 -0.531829,-0.121495 -0.288322,0.167055 -0.897095,0.196585 -1.018005,0.334111 -0.121755,0.135836 -0.577489,0.531539 -0.668806,0.576256 0.455735,-0.227803 1.657216,-0.818401 1.747686,-0.727281 0.09047,0.09112 0.105692,0.530695 0.105692,0.530695 0.167412,-0.07762 0.365262,-0.592286 0.365262,-0.592286 z"
       id="path13803"
       style="fill:#888a85"
       inkscape:connector-curvature="0" />
    <path
       i:knockout="Off"
       d="m 35.936677,36.820418 c -0.149657,0.224426 -0.485328,0.65219 -0.691634,0.765247 -0.205462,0.112214 -1.104248,0.672439 -1.422162,0.802371 -0.31876,0.130776 -0.804088,0.318078 -0.972347,0.541664 -0.168258,0.22527 -0.486173,0.467415 -0.711081,0.635314 -0.224908,0.167899 -0.692481,0.317237 -0.973192,0.559383 -0.279867,0.242989 -0.804087,0.747528 -0.710234,0.822619 0.09216,0.07425 0.523374,-0.393171 0.728836,-0.505384 0.205461,-0.11137 0.804932,-0.280111 0.879339,-0.372077 0.07525,-0.09365 0.355964,-0.485136 0.71108,-0.746685 0.355963,-0.262395 0.954593,-0.56107 1.310556,-0.784654 0.355116,-0.225272 1.34691,-0.840337 1.496566,-1.026797 0.148813,-0.18815 0.354273,-0.691001 0.354273,-0.691001 z"
       id="path13809"
       style="fill:#90883f;fill-opacity:1;fill-rule:nonzero;stroke-width:1;stroke-linecap:butt;stroke-linejoin:miter;stroke-miterlimit:4;stroke-opacity:1;stroke-dasharray:none;stroke-dashoffset:0;marker:none;visibility:visible;display:inline;overflow:visible;enable-background:accumulate"
       inkscape:connector-curvature="0" />
    <path
       i:knockout="Off"
       d="m 39.566489,33.608404 c 0,0.131618 -0.13021,0.691001 -0.13021,0.859742 0,0.168743 0.168257,-0.05653 0.204615,-0.280114 0.03805,-0.225271 -0.07441,-0.579628 -0.07441,-0.579628 z"
       id="path13811"
       style="fill:#888a85"
       inkscape:connector-curvature="0" />
    <path
       i:knockout="Off"
       d="m 38.967862,32.676099 c 0.130209,-0.149336 0.336514,0 0.187705,0.129933 -0.150503,0.130776 -0.411768,0.373766 -0.411768,0.615066 0,0.243833 -0.131055,0.878307 -0.149656,1.120453 -0.0186,0.242987 0.01775,0.672437 -0.224909,0.822619 -0.242663,0.148493 -0.410922,-0.09365 -0.50562,0.09196 -0.09216,0.187304 -0.393166,0.298674 -0.654432,1.158417 -0.09301,0.298675 -0.224908,0.317235 -0.299313,0.223584 -0.07525,-0.09281 -0.150503,-0.37292 -0.317916,-0.280113 -0.168257,0.09281 -0.318759,0.205867 -0.448969,0.336642 0.13021,-0.336642 0.430367,-0.598192 0.523376,-0.579632 0.09301,0.01772 0.224908,0.298676 0.317914,0.149339 0.09301,-0.149339 0.336516,-0.745843 0.524222,-0.913741 0.18686,-0.167899 0.523376,-0.167899 0.673879,-0.355204 0.150502,-0.187305 0.299312,-0.430292 0.355118,-0.971112 0.0558,-0.540821 0.0744,-1.0268 0.186859,-1.176136 0.112453,-0.149337 0.24351,-0.372079 0.24351,-0.372079 z"
       id="path13813"
       style="fill:#928940;fill-opacity:1;fill-rule:nonzero;stroke-width:1;stroke-linecap:butt;stroke-linejoin:miter;stroke-miterlimit:4;stroke-opacity:1;stroke-dasharray:none;stroke-dashoffset:0;marker:none;visibility:visible;display:inline;overflow:visible;enable-background:accumulate"
       inkscape:connector-curvature="0" />
    <path
       style="fill:none;stroke:#cb696b;stroke-width:0.50000006"
       id="path13954"
       d="m 12.556396,38.593059 c -0.07779,-0.07678 -0.143737,-0.158619 -0.195315,-0.244677 -0.345817,-0.565288 -0.394857,-1.204822 -0.419376,-1.401408 -0.02452,-0.195741 -0.221526,-0.663158 -0.07356,-1.794576 0.04904,-0.295301 -0.197006,-0.662314 -0.197006,-1.106109 0,-0.443793 -0.0947,-1.333908 0.344125,-2.778346 1.110167,-3.638931 1.774744,-4.056569 1.798418,-4.425271 0.02537,-0.367859 -0.04904,-0.687626 0.665424,-2.702413 0.715309,-2.017317 1.281806,-1.574368 1.602258,-2.066253 0.32045,-0.491038 0.862428,-1.548213 1.42808,-2.187747 0.565652,-0.639533 1.2074,-0.737405 1.502487,-1.056327 0.295932,-0.320612 0.509848,-0.72475 1.055206,-1.076578 0.721228,-0.461511 1.673282,-0.453917 1.824629,-0.628567 0.152195,-0.172959 0.956282,-1.213258 1.195564,-1.408156 0.23759,-0.195742 1.172735,-0.08774 1.477121,-0.260707 0.302696,-0.172961 0.43375,-0.650503 0.694171,-0.716312 0.261265,-0.06328 1.390877,0.195742 1.867749,0.108838"
       i:knockout="Off"
       inkscape:connector-curvature="0" />
    <path
       style="fill:none;stroke:url(#linearGradient45271);stroke-width:0.5;stroke-miterlimit:4;stroke-opacity:1;stroke-dasharray:none"
       id="path13962"
       d="m 12.556396,38.5939 c -0.07779,-0.07762 -0.143737,-0.158617 -0.195315,-0.245518 -0.345817,-0.565288 -0.394857,-1.204822 -0.419376,-1.401408 -0.02452,-0.195741 -0.221526,-0.663158 -0.07356,-1.794576 0.04904,-0.295301 -0.197006,-0.662314 -0.197006,-1.106109 0,-0.443793 -0.0947,-1.333908 0.344125,-2.778346 1.110167,-3.638931 1.774744,-4.056569 1.798418,-4.425271 0.02537,-0.367859 -0.04904,-0.687626 0.665424,-2.702413 0.715309,-2.017317 1.281806,-1.574368 1.602258,-2.066253 0.32045,-0.491038 0.862428,-1.548213 1.42808,-2.187747 0.565652,-0.639533 1.2074,-0.737405 1.502487,-1.056327 0.295932,-0.320612 0.509848,-0.72475 1.055206,-1.076578 0.721228,-0.461511 1.673282,-0.453917 1.824629,-0.628567 0.152195,-0.172959 0.956282,-1.213258 1.195564,-1.408156 0.23759,-0.195742 1.172735,-0.08774 1.477121,-0.260707 0.302696,-0.172961 0.43375,-0.650503 0.694171,-0.716312 0.261265,-0.06328 1.390877,0.195742 1.867749,0.108838"
       i:knockout="Off"
       inkscape:connector-curvature="0" />
    <path
       style="fill:none;stroke:url(#linearGradient45279);stroke-width:0.5;stroke-miterlimit:4;stroke-opacity:1;stroke-dasharray:none"
       id="path13964"
       d="m 27.063635,14.912874 -0.02959,0.0051 c -0.416839,-0.03712 -0.67895,-0.110528 -0.860736,-0.291924 -0.202925,-0.201649 -0.135283,-0.335799 -1.992887,-0.707876 -1.857605,-0.369546 -4.019597,-0.60663 -6.85631,0.472478 -2.836717,1.079109 -2.870536,1.516997 -3.174923,1.685739 -0.303542,0.168743 -2.532327,1.314505 -3.073461,1.819888 -0.541131,0.505384 -0.810851,0.639534 -0.979955,0.875774 -0.1682589,0.235394 -0.2697195,0.607474 -0.5749531,0.808277 -0.302696,0.203334 -2.0258625,1.888227 -2.5661482,2.730254 -0.5402858,0.842869 -0.7085443,1.280757 -0.9452897,1.651144 -0.236744,0.371235 -1.1135481,1.348255 -1.5878831,2.224029 -0.4726449,0.87746 -0.9444443,2.124467 -0.9444443,2.461108 0,0.336642 0.4388243,1.078266 0.4388243,1.281601 0,0.201647 -0.5741073,0.640376 -0.6079279,0.909521 -0.033821,0.269988 0.066796,1.011613 0.1344374,1.584493 0.067642,0.573725 0.034666,0.944115 0.1691037,1.213259 0.1344375,0.269989 0.5064657,0.404138 0.5741071,0.641222 0.067642,0.234553 0.2705652,0.808276 0.607928,1.110326 0.3382075,0.302892 0.6425938,0.404982 0.9791108,0.741623 0.3382062,0.336641 0.9808014,0.910367 1.4534449,1.044515 0.4726444,0.134995 1.2158562,0 1.5193967,0.202493 0.3035415,0.20249 1.3511394,1.247006 1.8576054,1.41575 0.507311,0.167899 1.586192,-0.10209 1.889733,-0.134993 l 8.46e-4,0"
       i:knockout="Off"
       inkscape:connector-curvature="0" />
    <path
       style="fill:none;stroke:#7e6811;stroke-width:0.5;stroke-miterlimit:4;stroke-opacity:0.34444442;stroke-dasharray:none"
       id="path13956"
       d="m 22.043961,41.014512 c -0.325525,-0.129931 -0.564807,-0.325671 -0.564807,-0.325671 -1.013778,0.166211 -2.294737,0.190677 -3.0092,0.09281 -0.715309,-0.09787 -1.773899,-0.811652 -1.94723,-0.787184 -0.17164,0.02447 -0.788023,-0.0734 -1.847456,-0.393171 -0.897943,-0.270831 -1.690194,-0.577942 -2.119717,-1.008234"
       i:knockout="Off"
       inkscape:connector-curvature="0" />
    <path
       style="fill:url(#linearGradient45175);fill-opacity:1;fill-rule:evenodd;stroke:none"
       d="m 23.065343,16.910833 c 6.376623,1.812038 9.091179,3.96626 11.588086,8.69807 l 1.680715,-0.998139 c -2.823048,-4.501307 -5.10899,-6.739617 -12.118839,-8.412886 l -1.149962,0.712955 z"
       id="path45023"
       sodipodi:nodetypes="ccccc"
       inkscape:connector-curvature="0" />
    <path
       style="fill:#ffffff;stroke:#565d66;stroke-width:0.5"
       id="path8029"
       d="m 23.075199,1.8268252 0,14.6650508 c 0,0.151482 0.289219,0.271802 0.651473,0.271802 0.363716,0 0.655856,-0.121187 0.655856,-0.271802 l 0,-14.6650508"
       i:knockout="Off"
       inkscape:connector-curvature="0" />
    <circle
       transform="matrix(0.8655196,0,0,0.8656033,0.7558097,-23.386469)"
       style="fill:#ffffff;stroke:#565d66;stroke-width:0.57765973"
       sodipodi:ry="0.95700002"
       sodipodi:rx="0.95700002"
       sodipodi:cy="28.284"
       sodipodi:cx="26.542"
       id="circle8031"
       r="0.95700002"
       cy="28.284"
       cx="26.542"
       i:knockout="Off" />
    <path
       style="fill:url(#linearGradient45034);stroke:#193766;stroke-width:0.5"
       id="path8042"
       d="M 24.116184,2.3124285 C 25.303678,5.6363444 34.888442,5.3316531 34.888442,11.061946 33.238761,7.0429513 25.353012,10.406684 24.116184,7.9431784 l 0,-5.6307499 0,0 z"
       i:knockout="Off"
       inkscape:connector-curvature="0" />
  </g>
</svg>
