<?xml version="1.0" encoding="UTF-8" standalone="no"?>
<!-- Created with Inkscape (http://www.inkscape.org/) -->
<svg
   xmlns:a="http://ns.adobe.com/AdobeSVGViewerExtensions/3.0/"
   xmlns:i="http://ns.adobe.com/AdobeIllustrator/10.0/"
   xmlns:dc="http://purl.org/dc/elements/1.1/"
   xmlns:cc="http://web.resource.org/cc/"
   xmlns:rdf="http://www.w3.org/1999/02/22-rdf-syntax-ns#"
   xmlns:svg="http://www.w3.org/2000/svg"
   xmlns="http://www.w3.org/2000/svg"
   xmlns:xlink="http://www.w3.org/1999/xlink"
   xmlns:sodipodi="http://sodipodi.sourceforge.net/DTD/sodipodi-0.dtd"
   xmlns:inkscape="http://www.inkscape.org/namespaces/inkscape"
   width="48px"
   height="48px"
   id="svg31642"
   sodipodi:version="0.32"
   inkscape:version="0.44"
   sodipodi:docbase="e:\dev_clean\src\houdini\support\icons\dop"
   sodipodi:docname="clothconstraint.svg">
  <defs
     id="defs31644"><linearGradient
   y2="1522.7539"
   x2="344.602"
   y1="1514.9897"
   x1="349.8682"
   gradientUnits="userSpaceOnUse"
   id="XMLID_885_"
   gradientTransform="translate(-317.0331,-1490.904)">
				<stop
   id="stop18271"
   style="stop-color:#B6BDBF"
   offset="0.0056" />

				<stop
   id="stop18273"
   style="stop-color:#969EA6"
   offset="1" />

				<a:midPointStop
   style="stop-color:#B6BDBF"
   offset="0.0056" />

				<a:midPointStop
   style="stop-color:#B6BDBF"
   offset="0.5" />

				<a:midPointStop
   style="stop-color:#969EA6"
   offset="1" />

			</linearGradient>
<linearGradient
   y2="1527.0828"
   x2="350.7413"
   y1="1531.6782"
   x1="346.4897"
   gradientUnits="userSpaceOnUse"
   id="XMLID_886_"
   gradientTransform="translate(-317.0331,-1490.904)">
				<stop
   id="stop18278"
   style="stop-color:#CBD3D4"
   offset="0.0056" />

				<stop
   id="stop18280"
   style="stop-color:#969EA6"
   offset="1" />

				<a:midPointStop
   style="stop-color:#CBD3D4"
   offset="0.0056" />

				<a:midPointStop
   style="stop-color:#CBD3D4"
   offset="0.5" />

				<a:midPointStop
   style="stop-color:#969EA6"
   offset="1" />

			</linearGradient>
<linearGradient
   y2="1516.1515"
   x2="337.368"
   y1="1526.3794"
   x1="328.4976"
   gradientUnits="userSpaceOnUse"
   id="XMLID_887_"
   gradientTransform="translate(-317.0331,-1490.904)">
				<stop
   id="stop18287"
   style="stop-color:#E8ECED"
   offset="0" />

				<stop
   id="stop18289"
   style="stop-color:#ACB1B2"
   offset="0.6067" />

				<stop
   id="stop18291"
   style="stop-color:#ACB1B2"
   offset="0.7753" />

				<stop
   id="stop18293"
   style="stop-color:#C3C9CB"
   offset="1" />

				<a:midPointStop
   style="stop-color:#E8ECED"
   offset="0" />

				<a:midPointStop
   style="stop-color:#E8ECED"
   offset="0.5" />

				<a:midPointStop
   style="stop-color:#ACB1B2"
   offset="0.6067" />

				<a:midPointStop
   style="stop-color:#ACB1B2"
   offset="0.5" />

				<a:midPointStop
   style="stop-color:#ACB1B2"
   offset="0.7753" />

				<a:midPointStop
   style="stop-color:#ACB1B2"
   offset="0.5" />

				<a:midPointStop
   style="stop-color:#C3C9CB"
   offset="1" />

			</linearGradient>
<radialGradient
   gradientUnits="userSpaceOnUse"
   fy="1499.855"
   fx="264.8848"
   r="8.5592"
   cy="1499.855"
   cx="264.8848"
   id="XMLID_878_"
   gradientTransform="translate(9.073071,-1121.746)">
				<stop
   id="stop18192"
   style="stop-color:#FCDFA8"
   offset="0.0056" />

				
				<stop
   id="stop18196"
   style="stop-color:#F3841A"
   offset="1" />

				<a:midPointStop
   style="stop-color:#FCDFA8"
   offset="0.0056" />

				<a:midPointStop
   style="stop-color:#FCDFA8"
   offset="0.5" />

				<a:midPointStop
   style="stop-color:#FAAF3E"
   offset="0.3876" />

				<a:midPointStop
   style="stop-color:#FAAF3E"
   offset="0.5" />

				<a:midPointStop
   style="stop-color:#F3841A"
   offset="1" />

			</radialGradient>
<radialGradient
   inkscape:collect="always"
   xlink:href="#XMLID_878_"
   id="radialGradient30825"
   gradientUnits="userSpaceOnUse"
   gradientTransform="translate(9.073071,-1121.746)"
   cx="264.8848"
   cy="1499.855"
   fx="264.8848"
   fy="1499.855"
   r="8.5592" />
<linearGradient
   y2="1509.7975"
   x2="274.9265"
   y1="1494.3853"
   x1="260.8828"
   gradientUnits="userSpaceOnUse"
   id="XMLID_877_"
   gradientTransform="translate(9.073071,-1121.746)">
				<stop
   id="stop18181"
   style="stop-color:#F17912"
   offset="0.0056" />

				<stop
   id="stop18183"
   style="stop-color:#FAAF3E"
   offset="0.2921" />

				<stop
   id="stop18185"
   style="stop-color:#F17912"
   offset="0.5899" />

				<stop
   id="stop18187"
   style="stop-color:#73340F"
   offset="1" />

				<a:midPointStop
   style="stop-color:#F17912"
   offset="0.0056" />

				<a:midPointStop
   style="stop-color:#F17912"
   offset="0.5" />

				<a:midPointStop
   style="stop-color:#FAAF3E"
   offset="0.2921" />

				<a:midPointStop
   style="stop-color:#FAAF3E"
   offset="0.5" />

				<a:midPointStop
   style="stop-color:#F17912"
   offset="0.5899" />

				<a:midPointStop
   style="stop-color:#F17912"
   offset="0.5" />

				<a:midPointStop
   style="stop-color:#73340F"
   offset="1" />

			</linearGradient>
<linearGradient
   inkscape:collect="always"
   xlink:href="#XMLID_877_"
   id="linearGradient30823"
   gradientUnits="userSpaceOnUse"
   gradientTransform="translate(9.073071,-1121.746)"
   x1="260.8828"
   y1="1494.3853"
   x2="274.9265"
   y2="1509.7975" />
<linearGradient
   y2="1503.7035"
   x2="266.0486"
   y1="1505.2087"
   x1="264.23267"
   gradientUnits="userSpaceOnUse"
   id="XMLID_876_"
   gradientTransform="translate(9.073071,-1121.746)">
				<stop
   id="stop18162"
   style="stop-color:#a82900;stop-opacity:0;"
   offset="0.0056" />

				
				
				
				
				
				
				<stop
   id="stop18176"
   style="stop-color:#8a3e0e;stop-opacity:1;"
   offset="1" />

				<a:midPointStop
   style="stop-color:#FFFFFF"
   offset="0.0056" />

				<a:midPointStop
   style="stop-color:#FFFFFF"
   offset="0.3446" />

				<a:midPointStop
   style="stop-color:#BF5614"
   offset="1" />

			</linearGradient>
<linearGradient
   inkscape:collect="always"
   xlink:href="#XMLID_876_"
   id="linearGradient30821"
   gradientUnits="userSpaceOnUse"
   gradientTransform="translate(9.073071,-1121.746)"
   x1="264.23267"
   y1="1505.2087"
   x2="266.0486"
   y2="1503.7035" />
<linearGradient
   y2="1513.642"
   x2="263.7776"
   y1="1504.6606"
   x1="255.8857"
   gradientUnits="userSpaceOnUse"
   id="XMLID_874_"
   gradientTransform="translate(9.073071,-1121.746)">
				<stop
   id="stop18126"
   style="stop-color:#F17912"
   offset="0.0056" />

				<stop
   id="stop18128"
   style="stop-color:#F27D15"
   offset="0.0223" />

				<stop
   id="stop18130"
   style="stop-color:#F78E21"
   offset="0.098" />

				<stop
   id="stop18132"
   style="stop-color:#F99326"
   offset="0.1573" />

				<stop
   id="stop18134"
   style="stop-color:#C56417"
   offset="0.6742" />

				<stop
   id="stop18136"
   style="stop-color:#994511"
   offset="1" />

				<a:midPointStop
   style="stop-color:#F17912"
   offset="0.0056" />

				<a:midPointStop
   style="stop-color:#F17912"
   offset="0.3446" />

				<a:midPointStop
   style="stop-color:#F99326"
   offset="0.1573" />

				<a:midPointStop
   style="stop-color:#F99326"
   offset="0.5" />

				<a:midPointStop
   style="stop-color:#C56417"
   offset="0.6742" />

				<a:midPointStop
   style="stop-color:#C56417"
   offset="0.5" />

				<a:midPointStop
   style="stop-color:#994511"
   offset="1" />

			</linearGradient>
<linearGradient
   inkscape:collect="always"
   xlink:href="#XMLID_874_"
   id="linearGradient30819"
   gradientUnits="userSpaceOnUse"
   gradientTransform="translate(9.073071,-1121.746)"
   x1="255.8857"
   y1="1504.6606"
   x2="263.7776"
   y2="1513.642" />
<linearGradient
   y2="1518.8663"
   x2="260.6341"
   y1="1507.1665"
   x1="250.5942"
   gradientUnits="userSpaceOnUse"
   id="XMLID_873_"
   gradientTransform="translate(9.073071,-1121.746)">
				<stop
   id="stop18115"
   style="stop-color:#F17912"
   offset="0.0056" />

				<stop
   id="stop18117"
   style="stop-color:#FAAF3E"
   offset="0.3146" />

				<stop
   id="stop18119"
   style="stop-color:#F17912"
   offset="0.5899" />

				<stop
   id="stop18121"
   style="stop-color:#6E290A"
   offset="1" />

				<a:midPointStop
   style="stop-color:#F17912"
   offset="0.0056" />

				<a:midPointStop
   style="stop-color:#F17912"
   offset="0.5" />

				<a:midPointStop
   style="stop-color:#FAAF3E"
   offset="0.3146" />

				<a:midPointStop
   style="stop-color:#FAAF3E"
   offset="0.5" />

				<a:midPointStop
   style="stop-color:#F17912"
   offset="0.5899" />

				<a:midPointStop
   style="stop-color:#F17912"
   offset="0.5" />

				<a:midPointStop
   style="stop-color:#6E290A"
   offset="1" />

			</linearGradient>
<linearGradient
   inkscape:collect="always"
   xlink:href="#XMLID_873_"
   id="linearGradient30817"
   gradientUnits="userSpaceOnUse"
   gradientTransform="translate(9.073071,-1121.746)"
   x1="250.5942"
   y1="1507.1665"
   x2="260.6341"
   y2="1518.8663" />
<radialGradient
   gradientUnits="userSpaceOnUse"
   fy="1513.6431"
   fx="247.0171"
   r="14.582"
   cy="1513.6431"
   cx="247.0171"
   id="XMLID_872_"
   gradientTransform="translate(9.073071,-1121.746)">
				<stop
   id="stop18104"
   style="stop-color:#FAAF3E"
   offset="0.0056" />

				<stop
   id="stop18106"
   style="stop-color:#FAAF3E"
   offset="0.3371" />

				<stop
   id="stop18108"
   style="stop-color:#F17912"
   offset="0.6517" />

				<stop
   id="stop18110"
   style="stop-color:#73340F"
   offset="1" />

				<a:midPointStop
   style="stop-color:#FAAF3E"
   offset="0.0056" />

				<a:midPointStop
   style="stop-color:#FAAF3E"
   offset="0.5" />

				<a:midPointStop
   style="stop-color:#FAAF3E"
   offset="0.3371" />

				<a:midPointStop
   style="stop-color:#FAAF3E"
   offset="0.5" />

				<a:midPointStop
   style="stop-color:#F17912"
   offset="0.6517" />

				<a:midPointStop
   style="stop-color:#F17912"
   offset="0.5" />

				<a:midPointStop
   style="stop-color:#73340F"
   offset="1" />

			</radialGradient>
<radialGradient
   inkscape:collect="always"
   xlink:href="#XMLID_872_"
   id="radialGradient30815"
   gradientUnits="userSpaceOnUse"
   gradientTransform="translate(9.073071,-1121.746)"
   cx="247.0171"
   cy="1513.6431"
   fx="247.0171"
   fy="1513.6431"
   r="14.582" />
<linearGradient
   y2="1525.255"
   x2="261.4632"
   y1="1505.2856"
   x1="244.2827"
   gradientUnits="userSpaceOnUse"
   id="XMLID_871_"
   gradientTransform="translate(9.073071,-1121.746)">
				<stop
   id="stop18091"
   style="stop-color:#F17912"
   offset="0.0056" />

				<stop
   id="stop18093"
   style="stop-color:#FAAF3E"
   offset="0.2921" />

				<stop
   id="stop18095"
   style="stop-color:#FAAF3E"
   offset="0.5449" />

				<stop
   id="stop18097"
   style="stop-color:#F17912"
   offset="0.6517" />

				<stop
   id="stop18099"
   style="stop-color:#73340F"
   offset="1" />

				<a:midPointStop
   style="stop-color:#F17912"
   offset="0.0056" />

				<a:midPointStop
   style="stop-color:#F17912"
   offset="0.5" />

				<a:midPointStop
   style="stop-color:#FAAF3E"
   offset="0.2921" />

				<a:midPointStop
   style="stop-color:#FAAF3E"
   offset="0.5" />

				<a:midPointStop
   style="stop-color:#FAAF3E"
   offset="0.5449" />

				<a:midPointStop
   style="stop-color:#FAAF3E"
   offset="0.5" />

				<a:midPointStop
   style="stop-color:#F17912"
   offset="0.6517" />

				<a:midPointStop
   style="stop-color:#F17912"
   offset="0.5" />

				<a:midPointStop
   style="stop-color:#73340F"
   offset="1" />

			</linearGradient>
<linearGradient
   inkscape:collect="always"
   xlink:href="#XMLID_871_"
   id="linearGradient30813"
   gradientUnits="userSpaceOnUse"
   gradientTransform="translate(9.073071,-1121.746)"
   x1="244.2827"
   y1="1505.2856"
   x2="261.4632"
   y2="1525.255" />
<linearGradient
   y2="1526.3899"
   x2="260.0297"
   y1="1506.5864"
   x1="242.98"
   gradientUnits="userSpaceOnUse"
   id="XMLID_870_"
   gradientTransform="translate(9.073071,-1121.746)">
				<stop
   id="stop18082"
   style="stop-color:#73340F"
   offset="0.0056" />

				<stop
   id="stop18084"
   style="stop-color:#F17912"
   offset="0.4607" />

				<stop
   id="stop18086"
   style="stop-color:#73340F"
   offset="1" />

				<a:midPointStop
   style="stop-color:#73340F"
   offset="0.0056" />

				<a:midPointStop
   style="stop-color:#73340F"
   offset="0.5" />

				<a:midPointStop
   style="stop-color:#F17912"
   offset="0.4607" />

				<a:midPointStop
   style="stop-color:#F17912"
   offset="0.5" />

				<a:midPointStop
   style="stop-color:#73340F"
   offset="1" />

			</linearGradient>
<linearGradient
   inkscape:collect="always"
   xlink:href="#XMLID_870_"
   id="linearGradient30811"
   gradientUnits="userSpaceOnUse"
   gradientTransform="translate(9.073071,-1121.746)"
   x1="242.98"
   y1="1506.5864"
   x2="260.0297"
   y2="1526.3899" />
<linearGradient
   y2="1528.2897"
   x2="240.8098"
   y1="1525.7026"
   x1="238.4858"
   gradientUnits="userSpaceOnUse"
   id="XMLID_869_">
				<stop
   id="stop18057"
   style="stop-color:#3E444C"
   offset="0.0056" />

				<stop
   id="stop18059"
   style="stop-color:#ADBECA"
   offset="0.2978" />

				<stop
   id="stop18061"
   style="stop-color:#ADBECA"
   offset="0.4775" />

				<stop
   id="stop18063"
   style="stop-color:#828F99"
   offset="0.7022" />

				<stop
   id="stop18065"
   style="stop-color:#292E33"
   offset="1" />

				<a:midPointStop
   style="stop-color:#3E444C"
   offset="0.0056" />

				<a:midPointStop
   style="stop-color:#3E444C"
   offset="0.5" />

				<a:midPointStop
   style="stop-color:#ADBECA"
   offset="0.2978" />

				<a:midPointStop
   style="stop-color:#ADBECA"
   offset="0.5" />

				<a:midPointStop
   style="stop-color:#ADBECA"
   offset="0.4775" />

				<a:midPointStop
   style="stop-color:#ADBECA"
   offset="0.5" />

				<a:midPointStop
   style="stop-color:#828F99"
   offset="0.7022" />

				<a:midPointStop
   style="stop-color:#828F99"
   offset="0.5" />

				<a:midPointStop
   style="stop-color:#292E33"
   offset="1" />

			</linearGradient>
<linearGradient
   inkscape:collect="always"
   xlink:href="#XMLID_869_"
   id="linearGradient30809"
   gradientUnits="userSpaceOnUse"
   x1="238.4858"
   y1="1525.7026"
   x2="240.8098"
   y2="1528.2897" />

				
				
			</defs>
  <sodipodi:namedview
     id="base"
     pagecolor="#ffffff"
     bordercolor="#666666"
     borderopacity="1.0"
     inkscape:pageopacity="0.0"
     inkscape:pageshadow="2"
     inkscape:zoom="6.6644814"
     inkscape:cx="43.580917"
     inkscape:cy="28.833534"
     inkscape:current-layer="layer1"
     showgrid="true"
     inkscape:grid-bbox="true"
     inkscape:document-units="px"
     inkscape:window-width="853"
     inkscape:window-height="573"
     inkscape:window-x="132"
     inkscape:window-y="174" />
  
  <g
     id="layer1"
     inkscape:label="Layer 1"
     inkscape:groupmode="layer">
    <path
       style="fill:none;stroke:#292d2e;stroke-width:2;stroke-miterlimit:4;stroke-dasharray:none;stroke-opacity:1"
       id="path18227"
       d="M 14.674928,19.29617 C 13.321928,17.87917 10.034929,17.98417 8.2769276,18.62517 C 6.9999276,19.08917 3.2219286,20.36917 1.2579286,18.86317 C 1.3959286,22.19617 1.7479276,22.88117 2.8429286,24.35317 C 4.2769276,26.28117 9.6769286,33.57517 10.709929,34.69117 C 16.473928,40.91217 17.562928,42.93917 18.463928,43.19417 C 20.029929,43.63817 23.567928,43.25817 27.074928,40.36517 C 28.682928,39.03817 31.670928,35.76617 33.271928,35.63517 C 34.128929,35.56317 33.386928,36.31717 34.161929,37.27917 C 34.211928,37.34217 34.287928,37.39117 34.383929,37.42917 C 34.197929,37.36017 34.026928,37.02817 34.031929,36.85017 C 34.064928,35.92217 34.103928,35.48917 33.828928,35.32917 C 33.488929,35.13017 28.220928,31.81717 25.089929,29.24717 C 22.553929,27.16217 17.467929,22.34017 14.674928,19.29617"
       i:knockout="Off" />
    <path
       i:knockout="Off"
       d="M 34.3839,37.429 C 34.8589,37.609 37.6009,37.423 40.2059,36.057 C 42.8719,34.659 45.1019,31.672 45.8849,31.244 C 45.2139,31.329 41.9679,29.519 39.3699,28.405 C 36.7729,27.29 35.3609,26.091 31.7249,23.946 C 28.4349,22.007 26.3389,19.66 24.4669,19.745 C 22.5959,19.831 19.2009,21.974 16.7099,21.46 C 18.5139,23.302 22.6189,27.439 25.4529,29.817 C 28.2889,32.195 33.9659,37.272 34.3839,37.429 z "
       id="path18266"
       style="fill:none;stroke:#454a4d;stroke-width:2;stroke-miterlimit:4;stroke-dasharray:none" />
    <path
       i:knockout="Off"
       d="M 34.3839,37.429 C 34.0249,37.321 33.1789,37.069 31.7469,36.315 C 32.0909,36.076 32.7369,35.669 33.3209,35.631 C 33.8229,35.559 33.7519,36.062 33.7519,36.176 C 33.7619,36.79 34.1109,37.352 34.3839,37.429 z "
       id="path18268"
       style="fill:none;stroke:#454a4d;stroke-width:1.5" />
    <path
       style="fill:url(#XMLID_885_)"
       id="path18275"
       d="M 34.383929,37.42817 C 34.858929,37.60817 37.600928,37.42217 40.205929,36.05617 C 42.871929,34.65817 45.101929,31.67117 45.884928,31.24317 C 45.213928,31.32817 41.967929,29.51817 39.369928,28.40417 C 36.772929,27.28917 35.360928,26.09017 31.724929,23.94517 C 28.434928,22.00617 26.338928,19.65917 24.466928,19.74417 C 22.595928,19.83017 19.200929,21.97317 16.709929,21.45917 C 18.513928,23.30117 22.618929,27.43817 25.452929,29.81617 C 28.288928,32.19417 33.965928,37.27117 34.383929,37.42817 z "
       i:knockout="Off" />
    <path
       style="fill:url(#XMLID_886_)"
       id="path18282"
       d="M 34.383929,37.42817 C 34.024929,37.32017 33.178929,37.06817 31.746929,36.31417 C 32.090928,36.07517 32.736929,35.66817 33.320929,35.63017 C 33.822929,35.55817 33.751928,36.06117 33.751928,36.17517 C 33.761928,36.78917 34.110928,37.35117 34.383929,37.42817 z "
       i:knockout="Off" />
    <path
       style="fill:none;stroke:#454b4e;stroke-width:0.5"
       id="path18284"
       d="M 31.847929,36.55417 C 32.190929,36.31617 32.836928,35.90817 33.420928,35.87017"
       i:knockout="Off" />
    <path
       style="fill:url(#XMLID_887_)"
       id="path18295"
       d="M 14.674928,19.29617 C 13.321928,17.87917 10.034929,17.98417 8.2769276,18.62517 C 6.9999276,19.08917 3.2219286,20.36917 1.2579286,18.86317 C 1.3959286,22.19617 1.7479276,22.88117 2.8429286,24.35317 C 4.2769276,26.28117 9.6769286,33.57517 10.709929,34.69117 C 16.473928,40.91217 17.562928,42.93917 18.463928,43.19417 C 20.029929,43.63817 23.567928,43.25817 27.074928,40.36517 C 28.682928,39.03817 31.670928,35.76617 33.271928,35.63517 C 34.128929,35.56317 33.386928,36.31717 34.161929,37.27917 C 34.211928,37.34217 34.287928,37.39117 34.383929,37.42917 C 34.197929,37.36017 34.026928,37.02817 34.031929,36.85017 C 34.064928,35.92217 34.103928,35.48917 33.828928,35.32917 C 33.488929,35.13017 28.220928,31.81717 25.089929,29.24717 C 22.553929,27.16217 17.467929,22.34017 14.674928,19.29617"
       i:knockout="Off" />
    <path
       style="fill:none;stroke:#454b4e;stroke-width:1;stroke-miterlimit:4;stroke-dasharray:none"
       id="path18445"
       d="M 2.5035174,19.838584 C 2.4670011,20.955908 2.7001436,21.703051 3.896756,21.940347"
       i:knockout="Off" />
    <g
       id="g30773"
       transform="matrix(0.450127,0,0,0.450127,-106.4962,-163.8441)">
      <polyline
         i:knockout="Off"
         points="246.203,1523.445 237.089,1530.839 234.291,1531.882      235.66,1529.078 243.88,1520.858 "
         id="polyline30775"
         style="fill:none;stroke:#3e444c;stroke-width:2.22159553"
         transform="translate(9.073071,-1121.746)" />
      <polyline
         i:knockout="Off"
         points="246.203,1523.445 237.087,1530.839 234.291,1531.882      235.658,1529.078 243.88,1520.858 "
         id="polyline30777"
         style="fill:url(#linearGradient30809)"
         transform="translate(9.073071,-1121.746)" />
      <path
         i:knockout="Off"
         d="M 267.37907,389.34248 C 271.20107,393.81948 272.85707,401.65648 269.10107,404.63948 C 265.34607,407.61948 258.48707,405.60648 253.78007,400.13948 C 249.07507,394.67248 248.30307,387.82448 252.05807,384.84248 C 255.81307,381.86048 263.08207,384.30748 267.37907,389.34248 z "
         id="path30779"
         style="fill:none;stroke:#99440f;stroke-width:2.22159553" />
      <path
         i:knockout="Off"
         d="M 268.74407,388.12448 C 272.59507,392.64048 274.28707,400.52248 270.53307,403.50648 C 266.77707,406.48748 259.88807,404.43548 255.14607,398.92348 C 250.40407,393.41048 249.60307,386.52548 253.35707,383.54348 C 257.11307,380.55948 264.41407,383.04748 268.74407,388.12448 z "
         id="path30781"
         style="fill:none;stroke:#99440f;stroke-width:2.22159553" />
      <ellipse
         i:knockout="Off"
         transform="matrix(0.7831,-0.6219,0.6219,0.7831,-877.9386,-635.4864)"
         cx="253.55499"
         cy="1514.673"
         rx="7.7509999"
         ry="11.967"
         id="ellipse30783"
         sodipodi:cx="253.55499"
         sodipodi:cy="1514.673"
         sodipodi:rx="7.7509999"
         sodipodi:ry="11.967"
         style="fill:none;stroke:#99440f;stroke-width:2.22159553" />
      <path
         i:knockout="Off"
         d="M 269.80607,395.58648 C 268.18707,396.89148 264.88307,395.64948 262.42507,392.81548 C 259.96807,389.98048 259.28707,386.62548 260.90507,385.32048 L 261.08707,385.17748 C 261.62807,384.85248 269.23007,379.12748 269.53307,378.89448 C 269.89307,378.61548 270.63707,377.69348 270.99507,377.11548 L 279.45207,386.62348 C 278.83207,386.89648 277.75107,387.55748 277.42507,387.87648 C 277.15207,388.14448 270.42507,394.87548 270.02807,395.36548 L 269.80607,395.58648 z "
         id="path30785"
         style="fill:none;stroke:#99440f;stroke-width:2.22159553" />
      <path
         i:knockout="Off"
         d="M 285.06907,387.07748 L 286.35707,385.99348 C 284.20307,387.61848 279.48207,385.52848 275.71307,381.25348 C 271.99407,377.03248 270.56707,372.23448 272.41707,370.33948 L 271.14207,371.64348 C 269.28707,373.53448 270.68907,378.30448 274.37907,382.48848 C 278.17707,386.79348 282.96507,388.84748 285.06907,387.07748 z "
         id="path30787"
         style="fill:none;stroke:#99440f;stroke-width:2.22159553" />
      <ellipse
         i:knockout="Off"
         transform="matrix(0.765,-0.644,0.644,0.765,-893.2129,-595.2002)"
         cx="270.45099"
         cy="1499.792"
         rx="4.9809999"
         ry="10.488"
         id="ellipse30789"
         sodipodi:cx="270.45099"
         sodipodi:cy="1499.792"
         sodipodi:rx="4.9809999"
         sodipodi:ry="10.488"
         style="fill:none;stroke:#99440f;stroke-width:2.22159553" />
      <path
         i:knockout="Off"
         d="M 267.37707,389.34248 C 271.19907,393.81948 272.85607,401.65648 269.10107,404.63948 C 265.34607,407.61948 258.48607,405.60648 253.78007,400.13948 C 249.07507,394.67248 248.30307,387.82448 252.05707,384.84248 C 255.81207,381.86148 263.08007,384.30748 267.37707,389.34248 z "
         id="path30791"
         style="fill:url(#linearGradient30811)" />
      <path
         i:knockout="Off"
         d="M 268.74407,388.12448 C 272.59507,392.64048 274.28707,400.52248 270.53207,403.50648 C 266.77707,406.48748 259.88807,404.43548 255.14607,398.92348 C 250.40407,393.41048 249.60307,386.52548 253.35707,383.54348 C 257.11307,380.55948 264.41407,383.04748 268.74407,388.12448 z "
         id="path30793"
         style="fill:url(#linearGradient30813)" />
      <path
         i:knockout="Off"
         d="M 268.69707,388.10648 C 273.00207,393.11848 273.77607,399.34048 270.42507,402.00348 C 267.07207,404.66448 260.86407,402.75848 256.55907,397.74648 C 252.25307,392.73248 251.47907,386.51048 254.83007,383.84848 C 258.18207,381.18648 264.39007,383.09248 268.69707,388.10648 z "
         id="path30795"
         style="fill:url(#radialGradient30815)" />
      <path
         i:knockout="Off"
         d="M 268.54807,388.20348 C 271.31907,391.43348 271.83807,395.42548 269.70607,397.11848 C 267.57407,398.81148 263.60007,397.56548 260.82707,394.33748 C 258.05607,391.10748 257.53707,387.11448 259.67007,385.42148 C 261.80307,383.72848 265.77707,384.97348 268.54807,388.20348 z "
         id="path30797"
         style="fill:url(#linearGradient30817)" />
      <path
         i:knockout="Off"
         d="M 269.80507,395.58648 C 268.18707,396.89148 264.88307,395.64948 262.42507,392.81548 C 259.96807,389.98048 259.28607,386.62548 260.90407,385.32048 L 261.08707,385.17748 C 261.62607,384.85248 269.23007,379.12748 269.53307,378.89448 C 269.89307,378.61548 270.63707,377.69348 270.99307,377.11548 L 279.45207,386.62348 C 278.83107,386.89648 277.75107,387.55748 277.42507,387.87648 C 277.15207,388.14448 270.42407,394.87548 270.02807,395.36548 L 269.80507,395.58648 z "
         id="path30799"
         style="fill:url(#linearGradient30819)" />
      <path
         i:knockout="Off"
         a:adobe-blending-mode="multiply"
         d="M 269.80507,395.58648 C 268.18707,396.89148 264.88307,395.64948 262.42507,392.81548 C 259.96807,389.98048 259.28607,386.62548 260.90407,385.32048 L 261.08707,385.17748 C 261.62607,384.85248 269.23007,379.12748 269.53307,378.89448 C 269.89307,378.61548 270.63707,377.69348 270.99307,377.11548 L 279.45207,386.62348 C 278.83107,386.89648 277.75107,387.55748 277.42507,387.87648 C 277.15207,388.14448 270.42407,394.87548 270.02807,395.36548 L 269.80507,395.58648 z "
         id="path30801"
         style="fill:none" />
      <path
         i:knockout="Off"
         a:adobe-blending-mode="multiply"
         d="M 279.26107,386.71348 C 277.33107,386.52248 275.12607,385.37148 273.37007,383.45948 C 271.60007,381.53448 270.70007,379.28748 270.77607,377.44148 L 270.99507,377.11648 L 279.45207,386.62348 L 279.26107,386.71348 z "
         id="path30803"
         style="fill:url(#linearGradient30821)" />
      <path
         i:knockout="Off"
         d="M 285.06907,387.07748 L 286.35607,385.99348 C 284.20207,387.61848 279.48207,385.52848 275.71307,381.25348 C 271.99307,377.03248 270.56707,372.23448 272.41507,370.33948 L 271.14207,371.64348 C 269.28707,373.53448 270.68707,378.30448 274.37807,382.48848 C 278.17707,386.79348 282.96507,388.84748 285.06907,387.07748 z "
         id="path30805"
         style="fill:url(#linearGradient30823)" />
      <path
         i:knockout="Off"
         d="M 283.33507,374.83748 C 287.16407,379.18248 288.56307,384.14148 286.45907,385.91248 C 284.35407,387.68348 279.54307,385.59748 275.71407,381.25248 C 271.88507,376.90648 270.48507,371.94848 272.59007,370.17748 C 274.69507,368.40648 279.50607,370.49348 283.33507,374.83748 z "
         id="path30807"
         style="fill:url(#radialGradient30825)" />
    </g>
  </g>
</svg>
