<?xml version="1.0" encoding="UTF-8" standalone="no"?>
<!-- Created with Inkscape (http://www.inkscape.org/) -->
<svg
   xmlns:i="http://ns.adobe.com/AdobeIllustrator/10.0/"
   xmlns:a="http://ns.adobe.com/AdobeSVGViewerExtensions/3.0/"
   xmlns:dc="http://purl.org/dc/elements/1.1/"
   xmlns:cc="http://web.resource.org/cc/"
   xmlns:rdf="http://www.w3.org/1999/02/22-rdf-syntax-ns#"
   xmlns:svg="http://www.w3.org/2000/svg"
   xmlns="http://www.w3.org/2000/svg"
   xmlns:xlink="http://www.w3.org/1999/xlink"
   xmlns:sodipodi="http://sodipodi.sourceforge.net/DTD/sodipodi-0.dtd"
   xmlns:inkscape="http://www.inkscape.org/namespaces/inkscape"
   width="48px"
   height="48px"
   id="svg4926"
   sodipodi:version="0.32"
   inkscape:version="0.44"
   sodipodi:docbase="e:\dev_clean\src\houdini\support\icons\dop"
   sodipodi:docname="rbdpassiveobject.svg">
  <defs
     id="defs4928">
    <linearGradient
       id="linearGradient5055">
      <stop
         style="stop-color:white;stop-opacity:1;"
         offset="0"
         id="stop5057" />
      <stop
         style="stop-color:#d0f8ff;stop-opacity:1;"
         offset="1"
         id="stop5059" />
    </linearGradient>
    <linearGradient
       id="linearGradient5047">
      <stop
         style="stop-color:#fd9c00;stop-opacity:1;"
         offset="0"
         id="stop5049" />
      <stop
         style="stop-color:#ce5c00;stop-opacity:1;"
         offset="1"
         id="stop5051" />
    </linearGradient>
    <linearGradient
       inkscape:collect="always"
       id="linearGradient5039">
      <stop
         style="stop-color:#2e3436;stop-opacity:1;"
         offset="0"
         id="stop5041" />
      <stop
         style="stop-color:#2e3436;stop-opacity:0;"
         offset="1"
         id="stop5043" />
    </linearGradient>
    <linearGradient
       y2="1670.438"
       x2="328.2315"
       y1="1666.4702"
       x1="320.4976"
       gradientUnits="userSpaceOnUse"
       id="XMLID_922_"
       gradientTransform="translate(-307.269,-1655.985)">
      <stop
         id="stop18910"
         style="stop-color:#FAAF3E"
         offset="0" />
      <stop
         id="stop18912"
         style="stop-color:#F17912"
         offset="1" />
      <a:midPointStop
         style="stop-color:#FAAF3E"
         offset="0" />
      <a:midPointStop
         style="stop-color:#FAAF3E"
         offset="0.5" />
      <a:midPointStop
         style="stop-color:#F17912"
         offset="1" />
    </linearGradient>
    <linearGradient
       y2="1670.4828"
       x2="337.9823"
       y1="1666.647"
       x1="330.3779"
       gradientUnits="userSpaceOnUse"
       id="XMLID_923_"
       gradientTransform="translate(-307.269,-1655.985)">
      <stop
         id="stop18919"
         style="stop-color:#FAAF3E"
         offset="0" />
      <stop
         id="stop18921"
         style="stop-color:#F17912"
         offset="1" />
      <a:midPointStop
         style="stop-color:#FAAF3E"
         offset="0" />
      <a:midPointStop
         style="stop-color:#FAAF3E"
         offset="0.5" />
      <a:midPointStop
         style="stop-color:#F17912"
         offset="1" />
    </linearGradient>
    <linearGradient
       y2="1676.3336"
       x2="332.8873"
       y1="1672.2954"
       x1="325.2817"
       gradientUnits="userSpaceOnUse"
       id="XMLID_924_"
       gradientTransform="translate(-307.269,-1655.985)">
      <stop
         id="stop18928"
         style="stop-color:#FAAF3E"
         offset="0" />
      <stop
         id="stop18930"
         style="stop-color:#F17912"
         offset="1" />
      <a:midPointStop
         style="stop-color:#FAAF3E"
         offset="0" />
      <a:midPointStop
         style="stop-color:#FAAF3E"
         offset="0.5" />
      <a:midPointStop
         style="stop-color:#F17912"
         offset="1" />
    </linearGradient>
    <linearGradient
       y2="1676.4236"
       x2="323.3731"
       y1="1672.2817"
       x1="319.0439"
       gradientUnits="userSpaceOnUse"
       id="XMLID_925_"
       gradientTransform="translate(-315.4119,-1650.271)">
      <stop
         id="stop18937"
         style="stop-color:#FAAF3E"
         offset="0" />
      <stop
         id="stop18939"
         style="stop-color:#F17912"
         offset="1" />
      <a:midPointStop
         style="stop-color:#FAAF3E"
         offset="0" />
      <a:midPointStop
         style="stop-color:#FAAF3E"
         offset="0.5" />
      <a:midPointStop
         style="stop-color:#F17912"
         offset="1" />
    </linearGradient>
    <linearGradient
       y2="1676.3756"
       x2="339.486"
       y1="1672.2026"
       x1="335.0439"
       gradientUnits="userSpaceOnUse"
       id="XMLID_926_"
       gradientTransform="translate(-307.269,-1655.985)">
      <stop
         id="stop18946"
         style="stop-color:#FAAF3E"
         offset="0" />
      <stop
         id="stop18948"
         style="stop-color:#F17912"
         offset="1" />
      <a:midPointStop
         style="stop-color:#FAAF3E"
         offset="0" />
      <a:midPointStop
         style="stop-color:#FAAF3E"
         offset="0.5" />
      <a:midPointStop
         style="stop-color:#F17912"
         offset="1" />
    </linearGradient>
    <linearGradient
       y2="1682.1824"
       x2="328.4465"
       y1="1678.3462"
       x1="320.9087"
       gradientUnits="userSpaceOnUse"
       id="XMLID_927_"
       gradientTransform="translate(-307.269,-1655.985)">
      <stop
         id="stop18955"
         style="stop-color:#FAAF3E"
         offset="0" />
      <stop
         id="stop18957"
         style="stop-color:#F17912"
         offset="1" />
      <a:midPointStop
         style="stop-color:#FAAF3E"
         offset="0" />
      <a:midPointStop
         style="stop-color:#FAAF3E"
         offset="0.5" />
      <a:midPointStop
         style="stop-color:#F17912"
         offset="1" />
    </linearGradient>
    <linearGradient
       y2="1682.0449"
       x2="337.943"
       y1="1678.3003"
       x1="330.2446"
       gradientUnits="userSpaceOnUse"
       id="XMLID_928_"
       gradientTransform="translate(-307.269,-1655.985)">
      <stop
         id="stop18964"
         style="stop-color:#FAAF3E"
         offset="0" />
      <stop
         id="stop18966"
         style="stop-color:#F17912"
         offset="1" />
      <a:midPointStop
         style="stop-color:#FAAF3E"
         offset="0" />
      <a:midPointStop
         style="stop-color:#FAAF3E"
         offset="0.5" />
      <a:midPointStop
         style="stop-color:#F17912"
         offset="1" />
    </linearGradient>
    <linearGradient
       y2="1688.0518"
       x2="332.9448"
       y1="1684.063"
       x1="325.5713"
       gradientUnits="userSpaceOnUse"
       id="XMLID_929_"
       gradientTransform="translate(-307.269,-1655.985)">
      <stop
         id="stop18973"
         style="stop-color:#FAAF3E"
         offset="0" />
      <stop
         id="stop18975"
         style="stop-color:#F17912"
         offset="1" />
      <a:midPointStop
         style="stop-color:#FAAF3E"
         offset="0" />
      <a:midPointStop
         style="stop-color:#FAAF3E"
         offset="0.5" />
      <a:midPointStop
         style="stop-color:#F17912"
         offset="1" />
    </linearGradient>
    <linearGradient
       y2="1688.1366"
       x2="323.3517"
       y1="1683.8853"
       x1="319.0879"
       gradientUnits="userSpaceOnUse"
       id="XMLID_930_"
       gradientTransform="translate(-307.269,-1655.985)">
      <stop
         id="stop18982"
         style="stop-color:#FAAF3E"
         offset="0" />
      <stop
         id="stop18984"
         style="stop-color:#F17912"
         offset="1" />
      <a:midPointStop
         style="stop-color:#FAAF3E"
         offset="0" />
      <a:midPointStop
         style="stop-color:#FAAF3E"
         offset="0.5" />
      <a:midPointStop
         style="stop-color:#F17912"
         offset="1" />
    </linearGradient>
    <linearGradient
       y2="1688.1165"
       x2="339.7764"
       y1="1683.9312"
       x1="334.9395"
       gradientUnits="userSpaceOnUse"
       id="XMLID_931_"
       gradientTransform="translate(-307.269,-1655.985)">
      <stop
         id="stop18991"
         style="stop-color:#FAAF3E"
         offset="0" />
      <stop
         id="stop18993"
         style="stop-color:#F17912"
         offset="1" />
      <a:midPointStop
         style="stop-color:#FAAF3E"
         offset="0" />
      <a:midPointStop
         style="stop-color:#FAAF3E"
         offset="0.5" />
      <a:midPointStop
         style="stop-color:#F17912"
         offset="1" />
    </linearGradient>
    <linearGradient
       y2="1693.5895"
       x2="328.4436"
       y1="1690.0747"
       x1="320.5728"
       gradientUnits="userSpaceOnUse"
       id="XMLID_932_"
       gradientTransform="translate(-307.269,-1655.985)">
      <stop
         id="stop19000"
         style="stop-color:#FAAF3E"
         offset="0" />
      <stop
         id="stop19002"
         style="stop-color:#F17912"
         offset="1" />
      <a:midPointStop
         style="stop-color:#FAAF3E"
         offset="0" />
      <a:midPointStop
         style="stop-color:#FAAF3E"
         offset="0.5" />
      <a:midPointStop
         style="stop-color:#F17912"
         offset="1" />
    </linearGradient>
    <linearGradient
       y2="1693.6904"
       x2="338.0023"
       y1="1690.0562"
       x1="330.3975"
       gradientUnits="userSpaceOnUse"
       id="XMLID_933_"
       gradientTransform="translate(-307.269,-1655.985)">
      <stop
         id="stop19009"
         style="stop-color:#FAAF3E"
         offset="0" />
      <stop
         id="stop19011"
         style="stop-color:#F17912"
         offset="1" />
      <a:midPointStop
         style="stop-color:#FAAF3E"
         offset="0" />
      <a:midPointStop
         style="stop-color:#FAAF3E"
         offset="0.5" />
      <a:midPointStop
         style="stop-color:#F17912"
         offset="1" />
    </linearGradient>
    <linearGradient
       y2="1699.6364"
       x2="332.9693"
       y1="1695.7681"
       x1="325.5352"
       gradientUnits="userSpaceOnUse"
       id="XMLID_934_"
       gradientTransform="translate(-307.269,-1655.985)">
      <stop
         id="stop19018"
         style="stop-color:#FAAF3E"
         offset="0" />
      <stop
         id="stop19020"
         style="stop-color:#F17912"
         offset="1" />
      <a:midPointStop
         style="stop-color:#FAAF3E"
         offset="0" />
      <a:midPointStop
         style="stop-color:#FAAF3E"
         offset="0.5" />
      <a:midPointStop
         style="stop-color:#F17912"
         offset="1" />
    </linearGradient>
    <linearGradient
       y2="1699.6901"
       x2="323.1523"
       y1="1695.5845"
       x1="319.249"
       gradientUnits="userSpaceOnUse"
       id="XMLID_935_"
       gradientTransform="translate(-307.269,-1655.985)">
      <stop
         id="stop19027"
         style="stop-color:#FAAF3E"
         offset="0" />
      <stop
         id="stop19029"
         style="stop-color:#F17912"
         offset="1" />
      <a:midPointStop
         style="stop-color:#FAAF3E"
         offset="0" />
      <a:midPointStop
         style="stop-color:#FAAF3E"
         offset="0.5" />
      <a:midPointStop
         style="stop-color:#F17912"
         offset="1" />
    </linearGradient>
    <linearGradient
       y2="1700.0179"
       x2="339.6972"
       y1="1695.5093"
       x1="335.1885"
       gradientUnits="userSpaceOnUse"
       id="XMLID_936_"
       gradientTransform="translate(-307.269,-1655.985)">
      <stop
         id="stop19036"
         style="stop-color:#FAAF3E"
         offset="0" />
      <stop
         id="stop19038"
         style="stop-color:#F17912"
         offset="1" />
      <a:midPointStop
         style="stop-color:#FAAF3E"
         offset="0" />
      <a:midPointStop
         style="stop-color:#FAAF3E"
         offset="0.5" />
      <a:midPointStop
         style="stop-color:#F17912"
         offset="1" />
    </linearGradient>
    <radialGradient
       gradientUnits="userSpaceOnUse"
       gradientTransform="matrix(-1,0,0,1,1856.516,0)"
       fy="1679.0034"
       fx="1503.709"
       r="9.8174"
       cy="1679.0034"
       cx="1503.709"
       id="XMLID_952_">
      <stop
         id="stop19192"
         style="stop-color:#FFFFFF"
         offset="0" />
      <stop
         id="stop19194"
         style="stop-color:#F9FAFA"
         offset="0.0903" />
      <stop
         id="stop19196"
         style="stop-color:#E8EBED"
         offset="0.2113" />
      <stop
         id="stop19198"
         style="stop-color:#CCD2D7"
         offset="0.3497" />
      <stop
         id="stop19200"
         style="stop-color:#A5B0B8"
         offset="0.5" />
      <stop
         id="stop19202"
         style="stop-color:#8E9CA6"
         offset="0.5787" />
      <stop
         id="stop19204"
         style="stop-color:#505359"
         offset="1" />
      <a:midPointStop
         style="stop-color:#FFFFFF"
         offset="0" />
      <a:midPointStop
         style="stop-color:#FFFFFF"
         offset="0.6446" />
      <a:midPointStop
         style="stop-color:#8E9CA6"
         offset="0.5787" />
      <a:midPointStop
         style="stop-color:#8E9CA6"
         offset="0.5" />
      <a:midPointStop
         style="stop-color:#505359"
         offset="1" />
    </radialGradient>
    <linearGradient
       inkscape:collect="always"
       xlink:href="#XMLID_925_"
       id="linearGradient5035"
       gradientUnits="userSpaceOnUse"
       gradientTransform="translate(-315.4119,-1650.271)"
       x1="319.0439"
       y1="1672.2817"
       x2="323.3731"
       y2="1676.4236" />
    <linearGradient
       inkscape:collect="always"
       xlink:href="#linearGradient5055"
       id="linearGradient5061"
       x1="16.571428"
       y1="3.1760309"
       x2="29.829428"
       y2="6.8903165"
       gradientUnits="userSpaceOnUse"
       gradientTransform="matrix(1,0,0,1.135718,0,-0.384116)" />
    <linearGradient
       inkscape:collect="always"
       xlink:href="#XMLID_926_"
       id="linearGradient5067"
       gradientUnits="userSpaceOnUse"
       gradientTransform="translate(-307.269,-1655.985)"
       x1="335.0439"
       y1="1672.2026"
       x2="339.486"
       y2="1676.3756" />
    <linearGradient
       inkscape:collect="always"
       xlink:href="#XMLID_931_"
       id="linearGradient5073"
       gradientUnits="userSpaceOnUse"
       gradientTransform="translate(-307.269,-1655.985)"
       x1="334.9395"
       y1="1683.9312"
       x2="339.7764"
       y2="1688.1165" />
    <linearGradient
       inkscape:collect="always"
       xlink:href="#XMLID_930_"
       id="linearGradient5079"
       gradientUnits="userSpaceOnUse"
       gradientTransform="translate(-307.269,-1655.985)"
       x1="319.0879"
       y1="1683.8853"
       x2="323.3517"
       y2="1688.1366" />
    <linearGradient
       inkscape:collect="always"
       xlink:href="#XMLID_935_"
       id="linearGradient5085"
       gradientUnits="userSpaceOnUse"
       gradientTransform="translate(-307.269,-1655.985)"
       x1="319.249"
       y1="1695.5845"
       x2="323.1523"
       y2="1699.6901" />
    <linearGradient
       inkscape:collect="always"
       xlink:href="#XMLID_936_"
       id="linearGradient5091"
       gradientUnits="userSpaceOnUse"
       gradientTransform="translate(-307.269,-1655.985)"
       x1="335.1885"
       y1="1695.5093"
       x2="339.6972"
       y2="1700.0179" />
    <linearGradient
       inkscape:collect="always"
       xlink:href="#linearGradient5055"
       id="linearGradient5135"
       gradientUnits="userSpaceOnUse"
       gradientTransform="matrix(1.122936,0,0,1.240458,-10.10223,-2.302124)"
       x1="16.571428"
       y1="3.1760309"
       x2="29.829428"
       y2="6.8903165" />
    <linearGradient
       inkscape:collect="always"
       xlink:href="#linearGradient5039"
       id="linearGradient5138"
       gradientUnits="userSpaceOnUse"
       gradientTransform="matrix(1.136504,0,0,0.577024,-10.7929,3.05408)"
       x1="21.285715"
       y1="8.5714283"
       x2="21.428572"
       y2="16.142857" />
    <linearGradient
       inkscape:collect="always"
       xlink:href="#XMLID_934_"
       id="linearGradient5148"
       gradientUnits="userSpaceOnUse"
       gradientTransform="matrix(1.092224,0,0,1.092224,-345.1006,-1811.161)"
       x1="325.5352"
       y1="1695.7681"
       x2="332.9693"
       y2="1699.6364" />
    <linearGradient
       inkscape:collect="always"
       xlink:href="#XMLID_933_"
       id="linearGradient5152"
       gradientUnits="userSpaceOnUse"
       gradientTransform="matrix(1.092224,0,0,1.092224,-345.1006,-1811.161)"
       x1="330.3975"
       y1="1690.0562"
       x2="338.0023"
       y2="1693.6904" />
    <linearGradient
       inkscape:collect="always"
       xlink:href="#XMLID_932_"
       id="linearGradient5156"
       gradientUnits="userSpaceOnUse"
       gradientTransform="matrix(1.092224,0,0,1.092224,-345.1006,-1811.161)"
       x1="320.5728"
       y1="1690.0747"
       x2="328.4436"
       y2="1693.5895" />
    <linearGradient
       inkscape:collect="always"
       xlink:href="#XMLID_929_"
       id="linearGradient5166"
       gradientUnits="userSpaceOnUse"
       gradientTransform="matrix(1.092224,0,0,1.092224,-345.1006,-1811.161)"
       x1="325.5713"
       y1="1684.063"
       x2="332.9448"
       y2="1688.0518" />
    <linearGradient
       inkscape:collect="always"
       xlink:href="#XMLID_928_"
       id="linearGradient5170"
       gradientUnits="userSpaceOnUse"
       gradientTransform="matrix(1.092224,0,0,1.092224,-345.1006,-1811.161)"
       x1="330.2446"
       y1="1678.3003"
       x2="337.943"
       y2="1682.0449" />
    <linearGradient
       inkscape:collect="always"
       xlink:href="#XMLID_927_"
       id="linearGradient5174"
       gradientUnits="userSpaceOnUse"
       gradientTransform="matrix(1.092224,0,0,1.092224,-345.1006,-1811.161)"
       x1="320.9087"
       y1="1678.3462"
       x2="328.4465"
       y2="1682.1824" />
    <linearGradient
       inkscape:collect="always"
       xlink:href="#XMLID_924_"
       id="linearGradient5184"
       gradientUnits="userSpaceOnUse"
       gradientTransform="matrix(1.092224,0,0,1.092224,-345.1006,-1811.161)"
       x1="325.2817"
       y1="1672.2954"
       x2="332.8873"
       y2="1676.3336" />
    <linearGradient
       inkscape:collect="always"
       xlink:href="#XMLID_923_"
       id="linearGradient5188"
       gradientUnits="userSpaceOnUse"
       gradientTransform="matrix(1.092224,0,0,1.092224,-345.1006,-1811.161)"
       x1="330.3779"
       y1="1666.647"
       x2="337.9823"
       y2="1670.4828" />
    <linearGradient
       inkscape:collect="always"
       xlink:href="#XMLID_922_"
       id="linearGradient5192"
       gradientUnits="userSpaceOnUse"
       gradientTransform="matrix(1.092224,0,0,1.092224,-345.1006,-1811.161)"
       x1="320.4976"
       y1="1666.4702"
       x2="328.2315"
       y2="1670.438" />
    <linearGradient
       inkscape:collect="always"
       xlink:href="#linearGradient5047"
       id="linearGradient5195"
       gradientUnits="userSpaceOnUse"
       x1="22.129499"
       y1="8.9171848"
       x2="22.129499"
       y2="45.488613"
       gradientTransform="matrix(1.092224,0,0,1.092224,-9.494041,-2.454012)" />
  </defs>
  <sodipodi:namedview
     id="base"
     pagecolor="#ffffff"
     bordercolor="#666666"
     borderopacity="1.0"
     inkscape:pageopacity="0.0"
     inkscape:pageshadow="2"
     inkscape:zoom="7"
     inkscape:cx="24"
     inkscape:cy="3.9880122"
     inkscape:current-layer="layer1"
     showgrid="true"
     inkscape:grid-bbox="true"
     inkscape:document-units="px"
     inkscape:window-width="1247"
     inkscape:window-height="1070"
     inkscape:window-x="323"
     inkscape:window-y="11" />
  
  <g
     id="layer1"
     inkscape:label="Layer 1"
     inkscape:groupmode="layer">
    <g
       transform="matrix(1.185931,0,0,1.185931,-380.7902,-1968.658)"
       id="g19189">
      <radialGradient
         gradientUnits="userSpaceOnUse"
         gradientTransform="matrix(-1,0,0,1,1856.516,0)"
         fy="1679.0034"
         fx="1503.709"
         r="9.8174"
         cy="1679.0034"
         cx="1503.709"
         id="radialGradient29735">
        <stop
           id="stop29737"
           style="stop-color:#FFFFFF"
           offset="0" />
        <stop
           id="stop29739"
           style="stop-color:#F9FAFA"
           offset="0.0903" />
        <stop
           id="stop29741"
           style="stop-color:#E8EBED"
           offset="0.2113" />
        <stop
           id="stop29743"
           style="stop-color:#CCD2D7"
           offset="0.3497" />
        <stop
           id="stop29745"
           style="stop-color:#A5B0B8"
           offset="0.5" />
        <stop
           id="stop29747"
           style="stop-color:#8E9CA6"
           offset="0.5787" />
        <stop
           id="stop29749"
           style="stop-color:#505359"
           offset="1" />
        <a:midPointStop
           style="stop-color:#FFFFFF"
           offset="0" />
        <a:midPointStop
           style="stop-color:#FFFFFF"
           offset="0.6446" />
        <a:midPointStop
           style="stop-color:#8E9CA6"
           offset="0.5787" />
        <a:midPointStop
           style="stop-color:#8E9CA6"
           offset="0.5" />
        <a:midPointStop
           style="stop-color:#505359"
           offset="1" />
      </radialGradient>
      <circle
         sodipodi:ry="6.5650001"
         sodipodi:rx="6.5650001"
         sodipodi:cy="1681.658"
         sodipodi:cx="354.70001"
         style="fill:url(#XMLID_952_);stroke:#676d73;stroke-width:0.59025347"
         id="circle19206"
         r="6.5650001"
         cy="1681.658"
         cx="354.70001"
         i:knockout="Off" />
    </g>
    <rect
       style="fill:url(#linearGradient5195);fill-opacity:1;stroke:#b15011;stroke-width:1"
       id="rect19044"
       height="41.120049"
       width="22.918137"
       i:knockout="Off"
       y="6.3855581"
       x="3.217262" />
    <path
       style="fill:url(#linearGradient5192)"
       id="path18914"
       d="M 5.0216154,9.3793678 C 5.1068084,9.0506084 5.4366604,8.9959972 6.1935714,8.9959972 C 7.0618894,8.9959972 10.267567,8.9959972 11.134793,8.9959972 C 11.624109,8.9959972 12.113425,8.9959972 12.601649,8.9959972 C 12.870337,8.9959972 13.360745,8.9053426 13.574821,9.0593462 C 13.935255,9.3236644 13.748485,10.399505 13.748485,10.807997 C 13.748485,11.485176 13.747392,12.163447 13.748485,12.841718 C 13.749577,13.696929 13.243877,13.580061 12.529563,13.580061 C 11.087827,13.580061 8.3780194,13.580061 6.9362844,13.580061 C 6.5037634,13.580061 5.5000094,13.642318 5.3077784,13.544018 C 4.8392134,13.300452 4.9779264,12.647302 4.9779264,12.211505 C 4.9779264,11.292944 4.7966174,10.253147 5.0216154,9.3793678 z "
       i:knockout="Off" />
    <path
       style="fill:#faaf3e"
       id="path18916"
       d="M 12.875798,9.5016969 L 12.590727,9.5158958 L 12.602742,9.5158958 L 6.1946634,9.5158958 C 5.6878724,9.5158958 5.5229464,9.5464781 5.4716114,9.5737837 C 5.4355684,9.7791218 5.4224614,10.021596 5.4224614,10.282637 C 5.4224614,10.610304 5.4432134,10.964185 5.4628734,11.313697 L 5.4967324,12.210412 L 5.4879954,12.486745 C 5.4836264,12.558832 5.4781644,12.654948 5.4781644,12.748879 C 5.4781644,12.902882 5.4923634,13.04924 5.5469754,13.079823 C 5.5524364,13.057978 6.5135934,13.0689 6.5135934,13.0689 L 6.9373764,13.060163 L 12.530655,13.060163 L 12.769852,13.063439 C 12.769852,13.063439 13.217664,13.041595 13.23077,13.040503 C 13.222033,13.03941 13.219848,13.020843 13.219848,12.993537 C 13.219848,12.933465 13.23077,12.839533 13.23077,12.839533 L 13.23077,10.805812 L 13.252615,10.418073 C 13.261353,10.293559 13.278828,10.056547 13.278828,9.8413786 C 13.278828,9.6731761 13.264629,9.5257258 13.23077,9.453639 C 13.214387,9.4995125 12.875798,9.5016969 12.875798,9.5016969 z "
       i:knockout="Off" />
    <path
       style="fill:url(#linearGradient5188)"
       id="path18923"
       d="M 15.510242,9.3793678 C 15.593251,9.0506084 15.924195,8.9959972 16.681106,8.9959972 C 17.549424,8.9959972 20.754009,8.9959972 21.62342,8.9959972 C 22.111644,8.9959972 22.60096,8.9959972 23.090276,8.9959972 C 23.357871,8.9959972 23.849372,8.9053426 24.062356,9.0593462 C 24.42279,9.3236644 24.237112,10.399505 24.237112,10.807997 C 24.237112,11.485176 24.236019,12.163447 24.237112,12.841718 C 24.238204,13.696929 23.73032,13.580061 23.017097,13.580061 C 21.575362,13.580061 18.865554,13.580061 17.423818,13.580061 C 16.991298,13.580061 15.987544,13.642318 15.795312,13.544018 C 15.327841,13.300452 15.466553,12.647302 15.466553,12.211505 C 15.466553,11.292944 15.284152,10.253147 15.510242,9.3793678 z "
       i:knockout="Off" />
    <path
       style="fill:#faaf3e"
       id="path18925"
       d="M 23.36224,9.5016969 L 23.078262,9.5158958 L 23.090276,9.5158958 L 16.681106,9.5158958 C 16.175406,9.5158958 16.009388,9.5464781 15.958054,9.5737837 C 15.92201,9.7791218 15.908904,10.020503 15.908904,10.27936 C 15.908904,10.60812 15.929656,10.964185 15.949316,11.313697 L 15.984267,12.210412 L 15.974437,12.487837 C 15.970068,12.559924 15.965699,12.65604 15.965699,12.751063 C 15.965699,12.905067 15.979898,13.04924 16.034509,13.079823 C 16.039971,13.057978 17.000035,13.0689 17.000035,13.0689 L 17.423818,13.060163 L 23.017097,13.060163 L 23.256295,13.063439 C 23.256295,13.063439 23.706291,13.040503 23.718305,13.040503 C 23.71066,13.038318 23.708475,13.01975 23.708475,12.991353 C 23.708475,12.93128 23.719398,12.841718 23.719398,12.841718 C 23.719398,12.839533 23.719398,10.805812 23.719398,10.805812 L 23.739058,10.419165 C 23.748888,10.295744 23.766363,10.057639 23.766363,9.843563 C 23.766363,9.6742683 23.752164,9.5257258 23.717213,9.453639 C 23.701922,9.4995125 23.36224,9.5016969 23.36224,9.5016969 z "
       i:knockout="Off" />
    <path
       style="fill:url(#linearGradient5184)"
       id="path18932"
       d="M 10.096088,15.742665 C 10.181281,15.413905 10.512225,15.358202 11.268044,15.358202 C 12.136362,15.358202 15.340947,15.358202 16.209265,15.358202 C 16.698582,15.358202 17.187898,15.358202 17.677214,15.358202 C 17.945901,15.358202 18.43631,15.266455 18.648201,15.421551 C 19.01082,15.684777 18.82405,16.760618 18.82405,17.170202 C 18.82405,17.84738 18.822957,18.524559 18.82405,19.20283 C 18.825142,20.059134 18.31835,19.941174 17.605128,19.941174 C 16.1623,19.941174 13.453584,19.941174 12.011848,19.941174 C 11.577143,19.941174 10.575574,20.003431 10.38225,19.905131 C 9.9147784,19.661565 10.053491,19.007322 10.053491,18.573709 C 10.053491,17.654057 9.8710894,16.61426 10.096088,15.742665 z "
       i:knockout="Off" />
    <path
       style="fill:#faaf3e"
       id="path18934"
       d="M 17.95027,15.863902 L 17.677214,15.877008 L 11.268044,15.877008 C 10.761252,15.877008 10.595234,15.908683 10.546084,15.937081 C 10.508948,16.142419 10.494749,16.382708 10.494749,16.642657 C 10.494749,16.969232 10.516594,17.32639 10.537346,17.676994 L 10.571205,18.572617 L 10.561375,18.84895 C 10.558098,18.922129 10.552637,19.018245 10.552637,19.112176 C 10.552637,19.266179 10.566836,19.410353 10.620355,19.440935 C 10.626908,19.420183 11.586973,19.430013 11.586973,19.430013 L 12.011848,19.421275 L 17.605128,19.421275 L 17.844325,19.424552 C 17.844325,19.424552 18.294321,19.402707 18.305243,19.401615 C 18.29869,19.399431 18.295413,19.379771 18.295413,19.350281 C 18.295413,19.290208 18.305243,19.205015 18.305243,19.205015 C 18.305243,19.201738 18.305243,17.168017 18.305243,17.168017 L 18.327088,16.780278 C 18.335825,16.656856 18.353301,16.418751 18.353301,16.204676 C 18.353301,16.035381 18.339102,15.887931 18.305243,15.815844 C 18.289952,15.861717 17.95027,15.863902 17.95027,15.863902 z "
       i:knockout="Off" />
    <g
       id="g5031"
       transform="matrix(1.092224,0,0,1.092224,-1.224346,-8.53926)">
      <path
         i:knockout="Off"
         d="M 3.6191419,22.022492 C 4.5511419,22.022492 5.4821419,22.022492 5.8801419,22.022492 C 6.3281419,22.022492 6.7761419,22.022492 7.2241419,22.022492 C 7.4691419,22.022492 7.9191419,21.938492 8.1141419,22.079492 C 8.4441419,22.321492 8.2741419,23.306492 8.2741419,23.680492 C 8.2741419,24.300492 8.2721419,24.921492 8.2741419,25.542492 C 8.2741419,26.325492 7.8111419,26.218492 7.1571419,26.218492 C 6.2681419,26.218492 4.8521419,26.218492 3.6201419,26.218492 L 3.6201419,22.022492 L 3.6191419,22.022492 z "
         id="path18941"
         style="fill:url(#linearGradient5035)" />
      <path
         i:knockout="Off"
         d="M 7.0445704,22.485491 L 6.7945704,22.497491 C 6.7935704,22.497491 4.2575704,22.497491 3.6645704,22.497491 C 3.6645704,23.149491 3.6645704,25.091491 3.6645704,25.743491 C 4.3765704,25.743491 6.7275704,25.743491 6.7275704,25.743491 L 6.9465704,25.746491 C 6.9465704,25.746491 7.3585704,25.726491 7.3695704,25.725491 C 7.3625704,25.723491 7.3605704,25.705491 7.3605704,25.680491 C 7.3605704,25.625491 7.3705704,25.543491 7.3705704,25.543491 L 7.3705704,23.679491 C 7.3705704,23.678491 7.3895704,23.325491 7.3895704,23.325491 C 7.3985704,23.210491 7.4135704,22.993491 7.4135704,22.798491 C 7.4135704,22.642491 7.4005704,22.508491 7.3685704,22.441491 C 7.3545704,22.483491 7.0445704,22.485491 7.0445704,22.485491 z "
         id="path18943"
         style="fill:#faaf3e" />
    </g>
    <g
       id="g5063"
       transform="matrix(1.092224,0,0,1.092224,-8.869913,-2.29798)">
      <path
         i:knockout="Off"
         d="M 32.485999,20.506206 C 31.317999,20.506206 30.036999,20.506206 29.210999,20.506206 C 28.814999,20.506206 27.895999,20.563206 27.720999,20.471206 C 27.290999,20.248206 27.418999,19.650206 27.418999,19.253206 C 27.418999,18.411206 27.252999,17.459206 27.457999,16.660206 C 27.534999,16.359206 27.837999,16.308206 28.530999,16.308206 C 29.190999,16.308206 31.323999,16.308206 32.485999,16.308206 L 32.485999,20.506206 L 32.485999,20.506206 z "
         id="path18950"
         style="fill:url(#linearGradient5067)" />
      <path
         i:knockout="Off"
         d="M 28.530999,16.784206 C 28.067999,16.784206 27.915999,16.813206 27.868999,16.838206 C 27.835999,17.026206 27.823999,17.245206 27.823999,17.483206 C 27.823999,17.784206 27.843999,18.110206 27.860999,18.431206 L 27.893999,19.253206 L 27.883999,19.506206 C 27.879999,19.572206 27.875999,19.660206 27.875999,19.747206 C 27.875999,19.887206 27.888999,20.020206 27.938999,20.047206 C 27.943999,20.029206 28.821999,20.037206 28.821999,20.037206 L 29.210999,20.030206 C 29.210999,20.030206 31.315999,20.030206 32.011999,20.030206 C 32.011999,19.379206 32.010999,17.435206 32.010999,16.784206 C 31.274999,16.784206 28.530999,16.784206 28.530999,16.784206 z "
         id="path18952"
         style="fill:#faaf3e" />
    </g>
    <path
       style="fill:url(#linearGradient5174)"
       id="path18959"
       d="M 5.0216154,22.103777 C 5.1068084,21.775018 5.4366604,21.719315 6.1935714,21.719315 C 7.0618894,21.719315 10.267567,21.719315 11.134793,21.719315 C 11.624109,21.719315 12.113425,21.719315 12.601649,21.719315 C 12.870337,21.719315 13.360745,21.62866 13.574821,21.783756 C 13.935255,22.046982 13.748485,23.123915 13.748485,23.531314 C 13.748485,24.209585 13.747392,24.886764 13.748485,25.565035 C 13.749577,26.421339 13.243877,26.304471 12.529563,26.304471 C 11.087827,26.304471 8.3780194,26.304471 6.9362844,26.304471 C 6.5037634,26.304471 5.5000094,26.366728 5.3077784,26.267335 C 4.8392134,26.024862 4.9779264,25.370619 4.9779264,24.934822 C 4.9779264,24.016262 4.7966174,22.976464 5.0216154,22.103777 z "
       i:knockout="Off" />
    <path
       style="fill:#faaf3e"
       id="path18961"
       d="M 12.873613,22.226107 L 12.590727,22.240305 L 12.602742,22.239213 L 6.1946634,22.239213 C 5.6889644,22.239213 5.5229464,22.270888 5.4716114,22.299286 C 5.4355684,22.504624 5.4224614,22.747097 5.4224614,23.009231 C 5.4224614,23.335806 5.4432134,23.689687 5.4628734,24.038106 L 5.4967324,24.934822 L 5.4879954,25.211155 C 5.4836264,25.284334 5.4781644,25.380449 5.4781644,25.474381 C 5.4781644,25.628384 5.4923634,25.774742 5.5458824,25.805325 C 5.5524364,25.78348 6.5135934,25.794402 6.5135934,25.794402 L 6.9373764,25.785665 L 12.530655,25.785665 L 12.772036,25.787849 C 12.772036,25.787849 13.217664,25.767097 13.23077,25.766004 C 13.223125,25.764912 13.219848,25.745252 13.219848,25.717947 C 13.219848,25.656782 13.23077,25.565035 13.23077,25.565035 L 13.23077,23.530222 L 13.252615,23.142482 C 13.261353,23.019061 13.279921,22.779864 13.279921,22.56688 C 13.279921,22.398678 13.264629,22.251228 13.23077,22.179141 C 13.214387,22.223922 12.873613,22.226107 12.873613,22.226107 z "
       i:knockout="Off" />
    <path
       style="fill:url(#linearGradient5170)"
       id="path18968"
       d="M 15.510242,22.103777 C 15.593251,21.775018 15.924195,21.719315 16.681106,21.719315 C 17.549424,21.719315 20.754009,21.719315 21.62342,21.719315 C 22.111644,21.719315 22.60096,21.719315 23.090276,21.719315 C 23.357871,21.719315 23.849372,21.62866 24.062356,21.783756 C 24.42279,22.046982 24.237112,23.123915 24.237112,23.531314 C 24.237112,24.209585 24.236019,24.886764 24.237112,25.565035 C 24.238204,26.421339 23.73032,26.304471 23.017097,26.304471 C 21.575362,26.304471 18.865554,26.304471 17.423818,26.304471 C 16.991298,26.304471 15.987544,26.366728 15.795312,26.267335 C 15.327841,26.024862 15.466553,25.370619 15.466553,24.934822 C 15.466553,24.016262 15.284152,22.976464 15.510242,22.103777 z "
       i:knockout="Off" />
    <path
       style="fill:#faaf3e"
       id="path18970"
       d="M 23.360056,22.226107 L 23.078262,22.240305 L 23.090276,22.239213 L 16.681106,22.239213 C 16.175406,22.239213 16.009388,22.270888 15.958054,22.299286 C 15.92201,22.504624 15.908904,22.747097 15.908904,23.007047 C 15.908904,23.333622 15.929656,23.689687 15.949316,24.039198 L 15.984267,24.934822 L 15.974437,25.212247 C 15.970068,25.284334 15.965699,25.380449 15.965699,25.475473 C 15.965699,25.629476 15.979898,25.774742 16.033417,25.805325 C 16.039971,25.78348 17.000035,25.794402 17.000035,25.794402 L 17.423818,25.785665 L 23.017097,25.785665 L 23.259571,25.787849 C 23.259571,25.787849 23.706291,25.767097 23.717213,25.766004 C 23.71066,25.764912 23.706291,25.746344 23.706291,25.719039 C 23.706291,25.658967 23.719398,25.565035 23.719398,25.565035 L 23.719398,23.530222 L 23.739058,23.143575 C 23.748888,23.020153 23.766363,22.782049 23.766363,22.569065 C 23.766363,22.398678 23.752164,22.251228 23.717213,22.179141 C 23.703014,22.223922 23.360056,22.226107 23.360056,22.226107 z "
       i:knockout="Off" />
    <path
       style="fill:url(#linearGradient5166)"
       id="path18977"
       d="M 10.096088,28.465982 C 10.181281,28.137223 10.512225,28.081519 11.268044,28.081519 C 12.136362,28.081519 15.340947,28.081519 16.209265,28.081519 C 16.698582,28.081519 17.187898,28.081519 17.677214,28.081519 C 17.945901,28.081519 18.43631,27.990865 18.648201,28.144868 C 19.01082,28.409187 18.82405,29.485027 18.82405,29.894611 C 18.82405,30.570698 18.822957,31.248969 18.82405,31.92724 C 18.825142,32.782451 18.31835,32.665583 17.605128,32.665583 C 16.1623,32.665583 13.453584,32.665583 12.011848,32.665583 C 11.577143,32.665583 10.575574,32.72784 10.38225,32.62954 C 9.9147784,32.385974 10.053491,31.731732 10.053491,31.298119 C 10.053491,30.378466 9.8710894,29.337577 10.096088,28.465982 z "
       i:knockout="Off" />
    <path
       style="fill:#faaf3e"
       id="path18979"
       d="M 17.949178,28.588311 L 17.6652,28.60251 L 17.677214,28.60251 L 11.268044,28.60251 C 10.762344,28.60251 10.596326,28.633092 10.546084,28.660398 C 10.508948,28.866828 10.494749,29.10821 10.494749,29.368159 C 10.494749,29.695826 10.516594,30.051891 10.537346,30.402495 L 10.571205,31.298119 L 10.561375,31.573359 C 10.558098,31.645446 10.552637,31.742654 10.552637,31.836585 C 10.552637,31.990589 10.566836,32.135855 10.621447,32.166437 C 10.626908,32.145685 11.584789,32.155515 11.584789,32.155515 L 12.011848,32.146777 L 17.605128,32.146777 L 17.846509,32.148962 C 17.846509,32.148962 18.292136,32.128209 18.304151,32.127117 C 18.296505,32.126025 18.294321,32.107457 18.294321,32.081244 C 18.294321,32.020079 18.305243,31.926148 18.305243,31.926148 L 18.305243,29.893519 L 18.327088,29.505779 C 18.335825,29.382358 18.353301,29.143161 18.353301,28.930177 C 18.353301,28.75979 18.339102,28.61234 18.305243,28.540253 C 18.289952,28.586127 17.949178,28.588311 17.949178,28.588311 z "
       i:knockout="Off" />
    <g
       id="g5075"
       transform="matrix(1.092224,0,0,1.092224,-10.11817,-2.380938)">
      <path
         i:knockout="Off"
         d="M 11.761999,27.957206 C 12.693999,27.957206 13.624999,27.957206 14.022999,27.957206 C 14.470999,27.957206 14.918999,27.957206 15.366999,27.957206 C 15.611999,27.957206 16.061999,27.874206 16.256999,28.016206 C 16.586999,28.258206 16.416999,29.243206 16.416999,29.617206 C 16.416999,30.237206 16.414999,30.858206 16.416999,31.479206 C 16.416999,32.262206 15.953999,32.155206 15.299999,32.155206 C 14.410999,32.155206 12.994999,32.155206 11.762999,32.155206 L 11.762999,27.957206 L 11.761999,27.957206 z "
         id="path18986"
         style="fill:url(#linearGradient5079)" />
      <path
         i:knockout="Off"
         d="M 15.614999,28.420206 L 15.354999,28.434206 L 15.365999,28.433206 C 15.365999,28.433206 12.828999,28.433206 12.235999,28.433206 C 12.235999,29.084206 12.235999,31.028206 12.235999,31.680206 C 12.947999,31.680206 15.298999,31.680206 15.298999,31.680206 L 15.520999,31.682206 C 15.520999,31.682206 15.927999,31.663206 15.939999,31.662206 C 15.933999,31.660206 15.929999,31.644206 15.929999,31.619206 C 15.929999,31.564206 15.941999,31.478206 15.941999,31.478206 L 15.941999,29.616206 L 15.960999,29.262206 C 15.969999,29.147206 15.984999,28.930206 15.984999,28.733206 C 15.984999,28.579206 15.971999,28.444206 15.939999,28.378206 C 15.925999,28.418206 15.614999,28.420206 15.614999,28.420206 z "
         id="path18988"
         style="fill:#faaf3e" />
    </g>
    <g
       id="g5069"
       transform="matrix(1.092224,0,0,1.092224,-8.869913,-2.408364)">
      <path
         i:knockout="Off"
         d="M 32.485999,32.155206 C 31.317999,32.155206 30.036999,32.155206 29.210999,32.155206 C 28.814999,32.155206 27.895999,32.213206 27.720999,32.121206 C 27.290999,31.898206 27.418999,31.299206 27.418999,30.902206 C 27.418999,30.061206 27.252999,29.108206 27.457999,28.310206 C 27.534999,28.009206 27.837999,27.958206 28.530999,27.958206 C 29.190999,27.958206 31.323999,27.958206 32.485999,27.958206 L 32.485999,32.155206 L 32.485999,32.155206 z "
         id="path18995"
         style="fill:url(#linearGradient5073)" />
      <path
         i:knockout="Off"
         d="M 28.530999,28.433206 C 28.067999,28.433206 27.915999,28.462206 27.868999,28.487206 C 27.835999,28.675206 27.823999,28.896206 27.823999,29.133206 C 27.823999,29.434206 27.843999,29.760206 27.860999,30.081206 L 27.893999,30.902206 L 27.883999,31.156206 C 27.879999,31.222206 27.875999,31.310206 27.875999,31.396206 C 27.875999,31.537206 27.888999,31.670206 27.938999,31.698206 C 27.944999,31.679206 28.819999,31.687206 28.819999,31.687206 L 29.210999,31.679206 C 29.210999,31.679206 31.315999,31.679206 32.011999,31.679206 C 32.011999,31.028206 32.010999,29.085206 32.010999,28.433206 C 31.274999,28.433206 28.530999,28.433206 28.530999,28.433206 z "
         id="path18997"
         style="fill:#faaf3e" />
    </g>
    <path
       style="fill:url(#linearGradient5156)"
       id="path19004"
       d="M 5.0216154,34.829279 C 5.1068084,34.50052 5.4366604,34.444816 6.1935714,34.444816 C 7.0618894,34.444816 10.267567,34.444816 11.134793,34.444816 C 11.624109,34.444816 12.113425,34.444816 12.601649,34.444816 C 12.870337,34.444816 13.360745,34.35307 13.574821,34.509258 C 13.935255,34.771391 13.748485,35.847232 13.748485,36.256816 C 13.748485,36.935087 13.747392,37.611174 13.748485,38.289445 C 13.749577,39.146841 13.243877,39.029973 12.529563,39.029973 C 11.087827,39.029973 8.3780194,39.029973 6.9362844,39.029973 C 6.5037634,39.029973 5.5000094,39.091137 5.3077784,38.991745 C 4.8392134,38.749271 4.9779264,38.096121 4.9779264,37.660324 C 4.9779264,36.740671 4.7966174,35.700874 5.0216154,34.829279 z "
       i:knockout="Off" />
    <path
       style="fill:#faaf3e"
       id="path19006"
       d="M 12.874705,34.950516 L 12.602742,34.963623 L 6.1946634,34.963623 C 5.6889644,34.963623 5.5229464,34.995297 5.4716114,35.023695 C 5.4355684,35.229033 5.4224614,35.471507 5.4224614,35.732548 C 5.4224614,36.059123 5.4432134,36.414096 5.4628734,36.762516 L 5.4967324,37.659232 L 5.4879954,37.935564 C 5.4836264,38.007651 5.4781644,38.104859 5.4781644,38.19879 C 5.4781644,38.352794 5.4923634,38.49806 5.5458824,38.52755 C 5.5524364,38.50789 6.5125014,38.51772 6.5125014,38.51772 L 6.9373764,38.510074 L 12.530655,38.510074 L 12.772036,38.512259 C 12.772036,38.512259 13.217664,38.490414 13.23077,38.490414 C 13.223125,38.48823 13.219848,38.46857 13.219848,38.441264 C 13.219848,38.381192 13.23077,38.289445 13.23077,38.289445 L 13.23077,36.254632 L 13.252615,35.866892 C 13.261353,35.742379 13.278828,35.504274 13.278828,35.290198 C 13.278828,35.121995 13.264629,34.974545 13.23077,34.90355 C 13.214387,34.948332 12.874705,34.950516 12.874705,34.950516 z "
       i:knockout="Off" />
    <path
       style="fill:url(#linearGradient5152)"
       id="path19013"
       d="M 15.510242,34.829279 C 15.593251,34.50052 15.924195,34.444816 16.681106,34.444816 C 17.549424,34.444816 20.754009,34.444816 21.62342,34.444816 C 22.111644,34.444816 22.60096,34.444816 23.090276,34.444816 C 23.357871,34.444816 23.849372,34.35307 24.062356,34.509258 C 24.42279,34.771391 24.237112,35.847232 24.237112,36.256816 C 24.237112,36.935087 24.236019,37.611174 24.237112,38.289445 C 24.238204,39.146841 23.73032,39.029973 23.017097,39.029973 C 21.575362,39.029973 18.865554,39.029973 17.423818,39.029973 C 16.991298,39.029973 15.987544,39.091137 15.795312,38.991745 C 15.327841,38.749271 15.466553,38.096121 15.466553,37.660324 C 15.466553,36.740671 15.284152,35.700874 15.510242,34.829279 z "
       i:knockout="Off" />
    <path
       style="fill:#faaf3e"
       id="path19015"
       d="M 23.361148,34.950516 L 23.090276,34.963623 L 16.681106,34.963623 C 16.175406,34.963623 16.009388,34.995297 15.958054,35.023695 C 15.92201,35.229033 15.908904,35.470415 15.908904,35.730364 C 15.908904,36.058031 15.929656,36.414096 15.949316,36.762516 L 15.984267,37.659232 L 15.974437,37.936657 C 15.970068,38.008743 15.965699,38.104859 15.965699,38.199883 C 15.965699,38.352794 15.979898,38.49806 16.033417,38.52755 C 16.038878,38.50789 16.998943,38.51772 16.998943,38.51772 L 17.423818,38.510074 L 23.017097,38.510074 L 23.259571,38.512259 C 23.259571,38.512259 23.706291,38.490414 23.717213,38.490414 C 23.71066,38.48823 23.706291,38.469662 23.706291,38.443448 C 23.706291,38.382284 23.719398,38.288353 23.719398,38.288353 L 23.719398,36.254632 L 23.739058,35.866892 C 23.748888,35.743471 23.766363,35.506458 23.766363,35.293474 C 23.766363,35.123087 23.752164,34.975637 23.717213,34.90355 C 23.703014,34.948332 23.361148,34.950516 23.361148,34.950516 z "
       i:knockout="Off" />
    <path
       style="fill:url(#linearGradient5148)"
       id="path19022"
       d="M 10.096088,41.190392 C 10.181281,40.862725 10.512225,40.805929 11.268044,40.805929 C 12.136362,40.805929 15.340947,40.805929 16.209265,40.805929 C 16.698582,40.805929 17.187898,40.805929 17.677214,40.805929 C 17.945901,40.805929 18.43631,40.715274 18.648201,40.87037 C 19.01082,41.134688 18.82405,42.210529 18.82405,42.619021 C 18.82405,43.2962 18.822957,43.974471 18.82405,44.65165 C 18.825142,45.507953 18.31835,45.391085 17.605128,45.391085 C 16.1623,45.391085 13.453584,45.391085 12.011848,45.391085 C 11.577143,45.391085 10.575574,45.453342 10.38225,45.352857 C 9.9147784,45.109292 10.053491,44.457234 10.053491,44.022529 C 10.053491,43.103968 9.8710894,42.063079 10.096088,41.190392 z "
       i:knockout="Off" />
    <path
       style="fill:#faaf3e"
       id="path19024"
       d="M 17.949178,41.311629 L 17.6652,41.32692 L 17.677214,41.325828 L 11.268044,41.325828 C 10.762344,41.325828 10.596326,41.35641 10.546084,41.384808 C 10.508948,41.590146 10.494749,41.831527 10.494749,42.090384 C 10.494749,42.419144 10.516594,42.775209 10.537346,43.124721 L 10.571205,44.021436 L 10.561375,44.297769 C 10.558098,44.369856 10.552637,44.465972 10.552637,44.559903 C 10.552637,44.713906 10.566836,44.860264 10.621447,44.890847 C 10.626908,44.869002 11.584789,44.879924 11.584789,44.879924 L 12.011848,44.871187 L 17.605128,44.871187 L 17.844325,44.873371 C 17.844325,44.873371 18.294321,44.851527 18.305243,44.851527 C 18.29869,44.849342 18.295413,44.82859 18.295413,44.800192 C 18.295413,44.74012 18.305243,44.652742 18.305243,44.652742 C 18.305243,44.650557 18.305243,42.616836 18.305243,42.616836 L 18.327088,42.229097 C 18.335825,42.105676 18.353301,41.867571 18.353301,41.653495 C 18.353301,41.4842 18.339102,41.33675 18.305243,41.264663 C 18.289952,41.309444 17.949178,41.311629 17.949178,41.311629 z "
       i:knockout="Off" />
    <g
       id="g5081"
       transform="matrix(1.092224,0,0,1.092224,-9.962137,-2.454012)">
      <path
         i:knockout="Off"
         d="M 11.761999,39.607206 C 12.693999,39.607206 13.624999,39.607206 14.022999,39.607206 C 14.470999,39.607206 14.918999,39.607206 15.366999,39.607206 C 15.611999,39.607206 16.061999,39.523206 16.256999,39.666206 C 16.586999,39.907206 16.416999,40.893206 16.416999,41.266206 C 16.416999,41.887206 16.414999,42.508206 16.416999,43.128206 C 16.416999,43.912206 15.953999,43.805206 15.299999,43.805206 C 14.410999,43.805206 12.994999,43.805206 11.762999,43.805206 L 11.762999,39.607206 L 11.761999,39.607206 z "
         id="path19031"
         style="fill:url(#linearGradient5085)" />
      <path
         i:knockout="Off"
         d="M 15.614999,40.070206 L 15.354999,40.083206 L 15.365999,40.082206 C 15.365999,40.082206 12.828999,40.082206 12.235999,40.082206 C 12.235999,40.734206 12.235999,42.678206 12.235999,43.329206 C 12.947999,43.329206 15.298999,43.329206 15.298999,43.329206 L 15.517999,43.332206 C 15.517999,43.332206 15.929999,43.312206 15.940999,43.311206 C 15.933999,43.309206 15.931999,43.291206 15.931999,43.265206 C 15.931999,43.211206 15.941999,43.129206 15.941999,43.129206 C 15.941999,43.128206 15.941999,41.265206 15.941999,41.265206 L 15.960999,40.911206 C 15.969999,40.797206 15.984999,40.579206 15.984999,40.383206 C 15.984999,40.229206 15.971999,40.094206 15.939999,40.027206 C 15.925999,40.068206 15.614999,40.070206 15.614999,40.070206 z "
         id="path19033"
         style="fill:#faaf3e" />
    </g>
    <g
       id="g5087"
       transform="matrix(1.092224,0,0,1.092224,-9.025945,-2.454012)">
      <path
         i:knockout="Off"
         d="M 32.485999,43.805206 C 31.317999,43.805206 30.036999,43.805206 29.210999,43.805206 C 28.814999,43.805206 27.895999,43.864206 27.720999,43.771206 C 27.290999,43.548206 27.418999,42.950206 27.418999,42.553206 C 27.418999,41.711206 27.252999,40.758206 27.457999,39.959206 C 27.534999,39.660206 27.837999,39.608206 28.530999,39.608206 C 29.190999,39.608206 31.323999,39.608206 32.485999,39.608206 L 32.485999,43.805206 L 32.485999,43.805206 z "
         id="path19040"
         style="fill:url(#linearGradient5091)" />
      <path
         i:knockout="Off"
         d="M 28.530999,40.084206 C 28.067999,40.084206 27.915999,40.113206 27.868999,40.138206 C 27.835999,40.325206 27.823999,40.545206 27.823999,40.784206 C 27.823999,41.083206 27.843999,41.411206 27.860999,41.731206 L 27.893999,42.553206 L 27.883999,42.806206 C 27.879999,42.872206 27.875999,42.961206 27.875999,43.047206 C 27.875999,43.187206 27.888999,43.320206 27.938999,43.348206 C 27.943999,43.329206 28.819999,43.338206 28.819999,43.338206 L 29.210999,43.330206 C 29.210999,43.330206 31.315999,43.330206 32.011999,43.330206 C 32.011999,42.678206 32.010999,40.735206 32.010999,40.084206 C 31.274999,40.084206 28.530999,40.084206 28.530999,40.084206 z "
         id="path19042"
         style="fill:#faaf3e" />
    </g>
    <rect
       style="color:black;fill:url(#linearGradient5138);fill-opacity:1;fill-rule:evenodd;stroke:none;stroke-width:0.5;stroke-linecap:butt;stroke-linejoin:round;marker:none;marker-start:none;marker-mid:none;marker-end:none;stroke-miterlimit:4;stroke-dasharray:none;stroke-dashoffset:0;stroke-opacity:1;visibility:visible;display:inline;overflow:visible"
       id="rect5037"
       width="24.028927"
       height="4.368896"
       x="2.5204237"
       y="8" />
    <rect
       style="fill:url(#linearGradient5135);fill-opacity:1;stroke:#888a85;stroke-width:2.00000048;stroke-miterlimit:4;stroke-dasharray:none"
       id="rect19046"
       height="6.528533"
       width="26.117243"
       i:knockout="Off"
       y="1.2086775"
       x="1.6886013" />
  </g>
</svg>
