<?xml version="1.0" encoding="UTF-8" standalone="no"?>
<svg
   xmlns:i="http://ns.adobe.com/AdobeIllustrator/10.0/"
   xmlns:a="http://ns.adobe.com/AdobeSVGViewerExtensions/3.0/"
   xmlns:dc="http://purl.org/dc/elements/1.1/"
   xmlns:cc="http://creativecommons.org/ns#"
   xmlns:rdf="http://www.w3.org/1999/02/22-rdf-syntax-ns#"
   xmlns:svg="http://www.w3.org/2000/svg"
   xmlns="http://www.w3.org/2000/svg"
   xmlns:xlink="http://www.w3.org/1999/xlink"
   xmlns:sodipodi="http://sodipodi.sourceforge.net/DTD/sodipodi-0.dtd"
   xmlns:inkscape="http://www.inkscape.org/namespaces/inkscape"
   width="48px"
   height="48px"
   id="svg5711"
   sodipodi:version="0.32"
   inkscape:version="1.0.1 (3bc2e813f5, 2020-09-07)"
   sodipodi:docname="vortexforceattribs.svg"
   inkscape:output_extension="org.inkscape.output.svg.inkscape"
   version="1.1">
  <defs
     id="defs5713">
    <linearGradient
       y2="111.7559"
       x2="374.30521"
       y1="111.7559"
       x1="346.78271"
       gradientUnits="userSpaceOnUse"
       id="XMLID_84_"
       gradientTransform="matrix(1.019616,0,0,1.0193019,-342.57116,-84.577942)">
      <stop
         id="stop11981"
         style="stop-color:#A2BBD5"
         offset="0" />
      <stop
         id="stop11983"
         style="stop-color:#FFFFFF"
         offset="0.4494" />
      <stop
         id="stop11985"
         style="stop-color:#FFFFFF"
         offset="0.6517" />
      <stop
         id="stop11987"
         style="stop-color:#A2BBD5"
         offset="1" />
      <a:midPointStop
         style="stop-color:#A2BBD5"
         offset="0" />
      <a:midPointStop
         style="stop-color:#A2BBD5"
         offset="0.5" />
      <a:midPointStop
         style="stop-color:#FFFFFF"
         offset="0.4494" />
      <a:midPointStop
         style="stop-color:#FFFFFF"
         offset="0.5" />
      <a:midPointStop
         style="stop-color:#FFFFFF"
         offset="0.6517" />
      <a:midPointStop
         style="stop-color:#FFFFFF"
         offset="0.5" />
      <a:midPointStop
         style="stop-color:#A2BBD5"
         offset="1" />
    </linearGradient>
    <radialGradient
       gradientUnits="userSpaceOnUse"
       fy="94.525398"
       fx="361.7056"
       r="7.1034002"
       cy="94.525398"
       cx="361.7056"
       id="XMLID_83_"
       gradientTransform="matrix(1.019616,0,0,1.0193019,-342.57116,-84.577942)">
      <stop
         id="stop11964"
         style="stop-color:#C1DEEA"
         offset="0.5562" />
      <stop
         id="stop11966"
         style="stop-color:#BEDCE9"
         offset="0.6992" />
      <stop
         id="stop11968"
         style="stop-color:#B6D5E5"
         offset="0.7866" />
      <stop
         id="stop11970"
         style="stop-color:#A8CADE"
         offset="0.859" />
      <stop
         id="stop11972"
         style="stop-color:#93B9D3"
         offset="0.9232" />
      <stop
         id="stop11974"
         style="stop-color:#7AA5C7"
         offset="0.9815" />
      <stop
         id="stop11976"
         style="stop-color:#709EC3"
         offset="1" />
      <a:midPointStop
         style="stop-color:#C1DEEA"
         offset="0.5562" />
      <a:midPointStop
         style="stop-color:#C1DEEA"
         offset="0.7975" />
      <a:midPointStop
         style="stop-color:#709EC3"
         offset="1" />
    </radialGradient>
    <radialGradient
       gradientUnits="userSpaceOnUse"
       fy="86.0298"
       fx="374.7005"
       r="15.7714"
       cy="94.791"
       cx="361.5864"
       id="XMLID_82_"
       gradientTransform="matrix(1.019616,0,0,1.0193019,-342.57116,-84.577942)">
      <stop
         id="stop11951"
         style="stop-color:#C1DEEA"
         offset="0" />
      <stop
         id="stop11953"
         style="stop-color:#FFFFFF"
         offset="0.4775" />
      <stop
         id="stop11955"
         style="stop-color:#FFFFFF"
         offset="0.6292" />
      <stop
         id="stop11957"
         style="stop-color:#A2BBD5"
         offset="1" />
      <a:midPointStop
         style="stop-color:#C1DEEA"
         offset="0" />
      <a:midPointStop
         style="stop-color:#C1DEEA"
         offset="0.5" />
      <a:midPointStop
         style="stop-color:#FFFFFF"
         offset="0.4775" />
      <a:midPointStop
         style="stop-color:#FFFFFF"
         offset="0.5" />
      <a:midPointStop
         style="stop-color:#FFFFFF"
         offset="0.6292" />
      <a:midPointStop
         style="stop-color:#FFFFFF"
         offset="0.5" />
      <a:midPointStop
         style="stop-color:#A2BBD5"
         offset="1" />
    </radialGradient>
    <linearGradient
       y2="119.3423"
       x2="358.72311"
       y1="119.3423"
       x1="352.21729"
       gradientUnits="userSpaceOnUse"
       id="XMLID_81_">
      <stop
         id="stop11936"
         style="stop-color:#567C99"
         offset="0" />
      <stop
         id="stop11938"
         style="stop-color:#C1DEEA"
         offset="0.5225" />
      <stop
         id="stop11940"
         style="stop-color:#A2BBD5"
         offset="1" />
      <a:midPointStop
         style="stop-color:#567C99"
         offset="0" />
      <a:midPointStop
         style="stop-color:#567C99"
         offset="0.5" />
      <a:midPointStop
         style="stop-color:#C1DEEA"
         offset="0.5225" />
      <a:midPointStop
         style="stop-color:#C1DEEA"
         offset="0.5" />
      <a:midPointStop
         style="stop-color:#A2BBD5"
         offset="1" />
    </linearGradient>
    <linearGradient
       y2="110.1895"
       x2="369.07669"
       y1="110.1895"
       x1="351.6528"
       gradientUnits="userSpaceOnUse"
       id="XMLID_80_">
      <stop
         id="stop11927"
         style="stop-color:#567C99"
         offset="0" />
      <stop
         id="stop11929"
         style="stop-color:#C1DEEA"
         offset="0.5225" />
      <stop
         id="stop11931"
         style="stop-color:#A2BBD5"
         offset="1" />
      <a:midPointStop
         style="stop-color:#567C99"
         offset="0" />
      <a:midPointStop
         style="stop-color:#567C99"
         offset="0.5" />
      <a:midPointStop
         style="stop-color:#C1DEEA"
         offset="0.5225" />
      <a:midPointStop
         style="stop-color:#C1DEEA"
         offset="0.5" />
      <a:midPointStop
         style="stop-color:#A2BBD5"
         offset="1" />
    </linearGradient>
    <linearGradient
       inkscape:collect="always"
       xlink:href="#linearGradient4501"
       id="linearGradient4507"
       x1="23.200819"
       y1="3.504847"
       x2="22.285788"
       y2="32.37022"
       gradientUnits="userSpaceOnUse"
       gradientTransform="translate(0.235602,0.169254)" />
    <linearGradient
       inkscape:collect="always"
       id="linearGradient4501">
      <stop
         style="stop-color:#d3d7cf;stop-opacity:1"
         offset="0"
         id="stop4503" />
      <stop
         style="stop-color:white;stop-opacity:1"
         offset="1"
         id="stop4505" />
    </linearGradient>
  </defs>
  <sodipodi:namedview
     id="base"
     pagecolor="#ffffff"
     bordercolor="#666666"
     borderopacity="1.0"
     inkscape:pageopacity="0.0"
     inkscape:pageshadow="2"
     inkscape:zoom="14"
     inkscape:cx="24"
     inkscape:cy="24"
     inkscape:current-layer="layer1"
     showgrid="true"
     inkscape:grid-bbox="true"
     inkscape:document-units="px"
     inkscape:window-width="2560"
     inkscape:window-height="1377"
     inkscape:window-x="-8"
     inkscape:window-y="-8"
     inkscape:document-rotation="0"
     inkscape:snap-global="false"
     inkscape:window-maximized="1" />
  <metadata
     id="metadata5716">
    <rdf:RDF>
      <cc:Work
         rdf:about="">
        <dc:format>image/svg+xml</dc:format>
        <dc:type
           rdf:resource="http://purl.org/dc/dcmitype/StillImage" />
        <dc:title></dc:title>
      </cc:Work>
    </rdf:RDF>
  </metadata>
  <g
     id="layer1"
     inkscape:label="Layer 1"
     inkscape:groupmode="layer">
    <g
       id="g71801"
       transform="matrix(0.93154895,0,0,0.93154895,-9.1605427,3.4847979)">
      <path
         style="fill:url(#XMLID_84_)"
         id="path11989"
         d="M 23.34558,20.257259 C 10.909323,18.734422 11.013324,11.169163 11.013324,11.169163 c 1.08793,8.239017 9.476312,10.912646 10.646831,17.12733 0.938047,4.97929 -5.188826,10.948322 -5.188826,19.204667 2.600021,-5.794731 9.379448,-10.175691 13.863718,-14.6596 8.459755,-8.456129 7.200529,-13.965455 8.740149,-18.975324 0.001,0 -5.865851,7.598895 -15.729616,6.391023 z"
         a:adobe-blending-mode="darken"
         i:knockout="Off" />
      <path
         style="fill:#c1deea"
         id="path11922"
         d="m 32.034748,16.949624 c -2.108567,0.493342 -4.423095,0.699241 -7.219902,0.699241 -7.240293,0 -10.96597,-3.836652 -10.96597,-6.537802 0,-3.0803297 4.371094,-5.9455874 10.034042,-5.9455874 6.807976,0 11.466601,4.9721534 5.949459,7.5193894 0.328316,-0.517805 0.508789,-1.085556 0.508789,-1.681848 0,-2.3882237 -2.89673,-4.323878 -6.470484,-4.323878 -3.573754,0 -6.471502,1.9356543 -6.471502,4.323878 0,1.08046 1.045106,4.23418 6.911976,4.648016 5.374396,0.377142 10.034042,-1.459639 13.044968,-5.404338 -0.430279,2.485058 -6.951743,8.593734 -16.985783,5.889526 4.368035,1.240491 8.221163,1.236413 11.280012,0.48111 z"
         i:knockout="Off" />
      <g
         transform="matrix(1.019616,0,0,1.0193019,-342.57116,-84.577942)"
         id="g11924"
         i:knockout="Off">
        <linearGradient
           y2="110.1895"
           x2="369.07669"
           y1="110.1895"
           x1="351.6528"
           gradientUnits="userSpaceOnUse"
           id="linearGradient13522">
          <stop
             id="stop13524"
             style="stop-color:#567C99"
             offset="0" />
          <stop
             id="stop13526"
             style="stop-color:#C1DEEA"
             offset="0.5225" />
          <stop
             id="stop13528"
             style="stop-color:#A2BBD5"
             offset="1" />
          <a:midPointStop
             style="stop-color:#567C99"
             offset="0" />
          <a:midPointStop
             style="stop-color:#567C99"
             offset="0.5" />
          <a:midPointStop
             style="stop-color:#C1DEEA"
             offset="0.5225" />
          <a:midPointStop
             style="stop-color:#C1DEEA"
             offset="0.5" />
          <a:midPointStop
             style="stop-color:#A2BBD5"
             offset="1" />
        </linearGradient>
        <path
           style="fill:url(#XMLID_80_)"
           id="path11933"
           d="m 355.445,106.924 c 1.505,1.716 10.008,2.386 7.658,10.71 l 5.942,-6.226 c 0.805,-5.592 -14.258,-5.315 -17.393,-8.664 z"
           i:knockout="Off" />
        <linearGradient
           y2="119.3423"
           x2="358.72311"
           y1="119.3423"
           x1="352.21729"
           gradientUnits="userSpaceOnUse"
           id="linearGradient13531">
          <stop
             id="stop13533"
             style="stop-color:#567C99"
             offset="0" />
          <stop
             id="stop13535"
             style="stop-color:#C1DEEA"
             offset="0.5225" />
          <stop
             id="stop13537"
             style="stop-color:#A2BBD5"
             offset="1" />
          <a:midPointStop
             style="stop-color:#567C99"
             offset="0" />
          <a:midPointStop
             style="stop-color:#567C99"
             offset="0.5" />
          <a:midPointStop
             style="stop-color:#C1DEEA"
             offset="0.5225" />
          <a:midPointStop
             style="stop-color:#C1DEEA"
             offset="0.5" />
          <a:midPointStop
             style="stop-color:#A2BBD5"
             offset="1" />
        </linearGradient>
        <path
           style="fill:url(#XMLID_81_)"
           id="path11942"
           d="m 355.641,117.579 c -0.328,2.544 0.598,4.46 -3.424,10.369 l 5.108,-5.18 c 3.202,-7.305 -0.101,-9.843 -0.101,-12.031 z"
           i:knockout="Off" />
      </g>
      <path
         style="fill:none;stroke:#3065a0;stroke-width:1"
         id="path11944"
         d="M 23.345582,20.25726 C 10.909323,18.734423 11.013324,11.169163 11.013324,11.169163 c 1.08793,8.239019 9.476313,10.912647 10.646832,17.127331 0.938047,4.97929 -5.188826,10.948323 -5.188826,19.204669 2.600021,-5.794732 9.379448,-10.175692 13.86372,-14.659601 8.459754,-8.456129 7.200528,-13.965456 8.740148,-18.975325 10e-4,0 -5.865851,7.598896 -15.729616,6.391023 z"
         i:knockout="Off" />
      <path
         style="opacity:0.8;fill:none;stroke:#ffffff;stroke-width:1"
         id="path11991"
         d="m 16.977059,19.671161 c 0.234512,0.246672 0.466985,0.498439 0.701496,0.743072 2.25947,2.344394 4.392506,4.558318 4.983884,7.693691 l 0.0102,0.04791 -0.0102,-0.04791 0.115217,1.266992 c 0,2.316873 -1.100167,4.761159 -2.265587,7.347128 -0.870753,1.934635 -1.771074,4.051726 -2.366529,6.323749 2.032095,-2.528887 4.59337,-4.812124 7.149547,-7.018913 1.558993,-1.346497 3.031319,-2.617567 4.319094,-3.905964 6.213541,-6.210608 6.983351,-10.733251 7.662415,-14.724836 0.02345,-0.138626 0.05098,-0.269096 0.07341,-0.405683"
         i:knockout="Off" />
      <path
         style="fill:none;stroke:#3065a0;stroke-width:2"
         id="path11946"
         d="m 17.39918,11.001998 c 0,1.08046 1.045107,4.234181 6.911978,4.648017 5.374397,0.377142 10.034041,-1.459641 13.044968,-5.404339 -0.430278,2.485059 -6.951742,8.593735 -16.985784,5.889527 11.037344,3.133334 18.777249,-1.674713 18.777249,-6.4847989 0,-4.5389512 -8.171203,-10.592585 -21.716802,-7.6733043 C 28.397779,0.35538954 30.54611,3.2736515 29.400062,3.0585788 28.252994,2.8424865 15.567951,0.68156709 11.410975,6.6791393 13.41758,5.1124722 14.13437,5.4366102 14.13437,5.4366102 6.3934442,11.59727 14.205743,20.298032 24.525277,20.298032 c 3.941836,0 7.454413,-0.378161 8.529089,-0.864368 0,0 -3.153673,0.377141 -3.153673,-0.272154 7.454413,-1.349556 9.173486,-5.295273 9.173486,-5.295273 -4.371095,2.810215 -8.170183,3.782629 -14.26137,3.782629 -7.240294,0 -10.965971,-3.836653 -10.965971,-6.537803 0,-3.0803292 4.371094,-5.9455871 10.034042,-5.9455871 6.807977,0 11.466602,4.9721551 5.949459,7.5193891 0.328317,-0.517805 0.508789,-1.085556 0.508789,-1.681848 0,-2.3882232 -2.896729,-4.3238777 -6.470484,-4.3238777 -3.573753,0 -6.469464,1.9346352 -6.469464,4.3228587 z"
         i:knockout="Off" />
      <path
         style="fill:none;stroke:#709ec3;stroke-width:2"
         id="path11948"
         d="m 24.814849,17.648866 c -7.240294,0 -10.965972,-3.836653 -10.965972,-6.537803 0,-3.0803292 4.371094,-5.9455871 10.034042,-5.9455871 6.807977,0 11.466602,4.9721551 5.94946,7.5193891 0.328317,-0.517805 0.508788,-1.085556 0.508788,-1.681848 0,-2.3882232 -2.896729,-4.3238777 -6.470483,-4.3238777 -3.573754,0 -6.471504,1.9356545 -6.471504,4.3238777 0,1.080461 1.045107,4.234181 6.911978,4.648018 5.374397,0.377142 10.034041,-1.459641 13.044968,-5.404339 -0.430278,2.485057 -6.951742,8.593734 -16.985784,5.889526"
         i:knockout="Off" />
      <path
         style="fill:url(#XMLID_82_)"
         id="path11959"
         d="m 17.39918,11.001998 c 0,1.08046 1.045106,4.234179 6.911976,4.648016 5.374396,0.377142 10.034042,-1.45964 13.044968,-5.404339 -0.430279,2.485058 -6.951743,8.593735 -16.985783,5.889527 11.037342,3.133334 18.777247,-1.674714 18.777247,-6.4847984 0,-4.538951 -8.171202,-10.59258451 -21.716801,-7.6733039 C 28.397778,0.3553895 30.546108,3.2736513 29.400059,3.0585786 28.252992,2.8424864 15.567949,0.68156704 11.410974,6.679139 13.417579,5.1124719 14.134369,5.43661 14.134369,5.43661 c -7.7409251,6.16066 0.07137,14.861421 10.390906,14.861421 3.941836,0 7.454414,-0.378161 8.529088,-0.864368 0,0 -3.153672,0.377142 -3.153672,-0.272154 7.454413,-1.349555 9.173486,-5.295273 9.173486,-5.295273 -4.371094,2.810216 -8.170184,3.782629 -14.26137,3.782629 -7.240293,0 -10.96597,-3.836652 -10.96597,-6.537802 0,-3.0803297 4.371094,-5.9455874 10.034042,-5.9455874 6.807975,0 11.466601,4.9721534 5.949459,7.5193894 0.328316,-0.517805 0.508789,-1.085556 0.508789,-1.681848 0,-2.3882237 -2.89673,-4.323878 -6.470484,-4.323878 -3.573754,0 -6.469463,1.934635 -6.469463,4.322859 z"
         i:knockout="Off" />
      <path
         style="opacity:0.8;fill:none;stroke:#ffffff;stroke-width:1"
         id="path11961"
         d="m 30.06893,2.5795069 c 0.07749,0.1253745 0.117255,0.2568643 0.117255,0.3842768 0,0.1202776 -0.03569,0.2354587 -0.10502,0.3373889 -0.07239,0.1070268 -0.295689,0.347582 -0.775927,0.2568641 -0.466985,-0.08766 -9.954512,-1.8112992 -15.226947,1.3648454 0.100942,0.01529 0.218198,0.026502 0.264081,0.047907 l 0.765732,0.3414662 -0.656634,0.5229019 c -1.933192,1.5371074 -2.935475,3.3331174 -2.935475,5.1882458 0,0.59935 0.105021,1.204815 0.316081,1.808242 1.386679,3.967123 6.844684,6.956736 12.693201,6.955716 1.955624,0 3.656344,-0.09683 5.048119,-0.2324 -0.07137,-0.153915 -0.457808,-0.992801 -0.457808,-0.992801 l 0.695379,0.09683 c 3.578852,-0.648276 5.777144,-1.914249 7.086332,-3.011017 -3.497283,1.762372 -7.042489,2.509521 -12.08449,2.509521 -7.829632,0 -11.475778,-4.20564 -11.475778,-7.047454 0,-3.4992628 4.827881,-6.4552385 10.543849,-6.4552385 4.384349,0 8.262969,2.0182179 8.828856,4.5960326 0.198825,0.9041199 0.117255,2.6114509 -2.665277,3.8957709 l -1.570208,0.724724 0.925811,-1.46066 c 0.284472,-0.448492 0.429258,-0.923487 0.429258,-1.409694 0,-2.1028194 -2.673433,-3.8142274 -5.960676,-3.8142274 -3.287242,0 -5.961694,1.711408 -5.961694,3.8142274 0,0.03669 0.07341,3.690892 6.437855,4.139385 5.283651,0.371026 9.758746,-1.476968 12.603474,-5.204556 l 0.908478,0.396508 c -0.23859,1.376058 -1.821034,3.206725 -3.938776,4.559338 -0.615849,0.393451 -1.482522,0.825635 -2.469511,1.226221 1.737427,-0.419953 3.305595,-1.082499 4.578077,-2.042681 1.680327,-1.269032 2.608177,-2.840795 2.609197,-4.42479 0,-1.4637172 -0.971694,-3.0864459 -2.666296,-4.4553685 -1.617111,-1.3036871 -3.701206,-2.207808 -6.048363,-2.7796358 0.05812,0.057081 0.116237,0.1141612 0.147845,0.1641071 z"
         i:knockout="Off" />
      <path
         style="fill:url(#XMLID_83_)"
         id="path11978"
         d="m 29.832377,12.683846 c 0,-1.799068 -1.931153,-3.6001738 -4.988981,-3.0772724 -2.984416,0.5106704 -3.24034,3.8335944 0.937027,4.4309044 4.177367,0.597311 11.76229,-2.812254 7.415667,-7.4979834 C 28.686328,1.6774242 20.069554,3.4703765 18.449384,4.9198239 c 6.052441,-2.2149426 14.490782,0 14.490782,3.835633 0.001,3.4085451 -3.107789,3.9283891 -3.107789,3.9283891 z"
         i:knockout="Off" />
      <path
         style="fill:none;stroke:#c1deea;stroke-width:0.5"
         id="path11993"
         d="m 11.549643,13.244462 c 1.653818,3.759186 6.877311,6.797725 12.977674,6.797725 3.941835,0 7.454412,-0.37816 8.529088,-0.864368 0,0 -3.153673,0.377142 -3.153673,-0.272154 7.454413,-1.349556 9.173487,-5.295273 9.173487,-5.295273"
         i:knockout="Off" />
    </g>
    <g
       id="g71745"
       transform="matrix(0.77010144,0,0,0.84172205,14.196601,-0.97253966)">
      <path
         style="color:#000000;display:inline;overflow:visible;visibility:visible;opacity:1;fill:url(#linearGradient4507);fill-opacity:1;fill-rule:evenodd;stroke:#2e3436;stroke-width:1.88492;stroke-linecap:butt;stroke-linejoin:round;stroke-miterlimit:4;stroke-dasharray:none;stroke-dashoffset:0;stroke-opacity:1;marker:none;marker-start:none;marker-mid:none;marker-end:none"
         d="m 13.446432,2.218629 v 18.38952 h 7.745959 L 9.0225007,35.842329 34.813254,20.608149 h 8.126055 V 2.218629 Z"
         id="rect4410"
         sodipodi:nodetypes="cccccccc" />
      <path
         style="color:#000000;display:inline;overflow:visible;visibility:visible;opacity:1;fill:none;fill-opacity:1;fill-rule:evenodd;stroke:#ffffff;stroke-width:0.942458;stroke-linecap:butt;stroke-linejoin:miter;stroke-miterlimit:6;stroke-dasharray:none;stroke-dashoffset:0;stroke-opacity:1;marker:none;marker-start:none;marker-mid:none;marker-end:none"
         d="M 14.843706,3.6155326 V 19.148412 h 9.255436 L 13.360284,32.082598 34.237548,19.148412 h 7.255023 V 3.6155326 Z"
         id="path4425"
         sodipodi:nodetypes="cccccccc" />
    </g>
  </g>
</svg>
