<?xml version="1.0" encoding="UTF-8" standalone="no"?>
<!-- Created with Inkscape (http://www.inkscape.org/) -->
<svg
   xmlns:i="http://ns.adobe.com/AdobeIllustrator/10.0/"
   xmlns:a="http://ns.adobe.com/AdobeSVGViewerExtensions/3.0/"
   xmlns:dc="http://purl.org/dc/elements/1.1/"
   xmlns:cc="http://web.resource.org/cc/"
   xmlns:rdf="http://www.w3.org/1999/02/22-rdf-syntax-ns#"
   xmlns:svg="http://www.w3.org/2000/svg"
   xmlns="http://www.w3.org/2000/svg"
   xmlns:sodipodi="http://sodipodi.sourceforge.net/DTD/sodipodi-0.dtd"
   xmlns:inkscape="http://www.inkscape.org/namespaces/inkscape"
   width="48px"
   height="48px"
   id="svg5711"
   sodipodi:version="0.32"
   inkscape:version="0.45.1"
   sodipodi:docbase="C:\dev\src\houdini\support\icons\DOP"
   sodipodi:docname="vortexforce.svg"
   inkscape:output_extension="org.inkscape.output.svg.inkscape">
  <defs
     id="defs5713">
    <linearGradient
       y2="111.7559"
       x2="374.30521"
       y1="111.7559"
       x1="346.78271"
       gradientUnits="userSpaceOnUse"
       id="XMLID_84_"
       gradientTransform="matrix(1.019616,0,0,1.0193019,-342.57116,-84.577942)">
      <stop
         id="stop11981"
         style="stop-color:#A2BBD5"
         offset="0" />
      <stop
         id="stop11983"
         style="stop-color:#FFFFFF"
         offset="0.4494" />
      <stop
         id="stop11985"
         style="stop-color:#FFFFFF"
         offset="0.6517" />
      <stop
         id="stop11987"
         style="stop-color:#A2BBD5"
         offset="1" />
      <a:midPointStop
         style="stop-color:#A2BBD5"
         offset="0" />
      <a:midPointStop
         style="stop-color:#A2BBD5"
         offset="0.5" />
      <a:midPointStop
         style="stop-color:#FFFFFF"
         offset="0.4494" />
      <a:midPointStop
         style="stop-color:#FFFFFF"
         offset="0.5" />
      <a:midPointStop
         style="stop-color:#FFFFFF"
         offset="0.6517" />
      <a:midPointStop
         style="stop-color:#FFFFFF"
         offset="0.5" />
      <a:midPointStop
         style="stop-color:#A2BBD5"
         offset="1" />
    </linearGradient>
    <radialGradient
       gradientUnits="userSpaceOnUse"
       fy="94.525398"
       fx="361.7056"
       r="7.1034002"
       cy="94.525398"
       cx="361.7056"
       id="XMLID_83_"
       gradientTransform="matrix(1.019616,0,0,1.0193019,-342.57116,-84.577942)">
      <stop
         id="stop11964"
         style="stop-color:#C1DEEA"
         offset="0.5562" />
      <stop
         id="stop11966"
         style="stop-color:#BEDCE9"
         offset="0.6992" />
      <stop
         id="stop11968"
         style="stop-color:#B6D5E5"
         offset="0.7866" />
      <stop
         id="stop11970"
         style="stop-color:#A8CADE"
         offset="0.859" />
      <stop
         id="stop11972"
         style="stop-color:#93B9D3"
         offset="0.9232" />
      <stop
         id="stop11974"
         style="stop-color:#7AA5C7"
         offset="0.9815" />
      <stop
         id="stop11976"
         style="stop-color:#709EC3"
         offset="1" />
      <a:midPointStop
         style="stop-color:#C1DEEA"
         offset="0.5562" />
      <a:midPointStop
         style="stop-color:#C1DEEA"
         offset="0.7975" />
      <a:midPointStop
         style="stop-color:#709EC3"
         offset="1" />
    </radialGradient>
    <radialGradient
       gradientUnits="userSpaceOnUse"
       fy="86.0298"
       fx="374.7005"
       r="15.7714"
       cy="94.791"
       cx="361.5864"
       id="XMLID_82_"
       gradientTransform="matrix(1.019616,0,0,1.0193019,-342.57116,-84.577942)">
      <stop
         id="stop11951"
         style="stop-color:#C1DEEA"
         offset="0" />
      <stop
         id="stop11953"
         style="stop-color:#FFFFFF"
         offset="0.4775" />
      <stop
         id="stop11955"
         style="stop-color:#FFFFFF"
         offset="0.6292" />
      <stop
         id="stop11957"
         style="stop-color:#A2BBD5"
         offset="1" />
      <a:midPointStop
         style="stop-color:#C1DEEA"
         offset="0" />
      <a:midPointStop
         style="stop-color:#C1DEEA"
         offset="0.5" />
      <a:midPointStop
         style="stop-color:#FFFFFF"
         offset="0.4775" />
      <a:midPointStop
         style="stop-color:#FFFFFF"
         offset="0.5" />
      <a:midPointStop
         style="stop-color:#FFFFFF"
         offset="0.6292" />
      <a:midPointStop
         style="stop-color:#FFFFFF"
         offset="0.5" />
      <a:midPointStop
         style="stop-color:#A2BBD5"
         offset="1" />
    </radialGradient>
    <linearGradient
       y2="119.3423"
       x2="358.72311"
       y1="119.3423"
       x1="352.21729"
       gradientUnits="userSpaceOnUse"
       id="XMLID_81_">
      <stop
         id="stop11936"
         style="stop-color:#567C99"
         offset="0" />
      <stop
         id="stop11938"
         style="stop-color:#C1DEEA"
         offset="0.5225" />
      <stop
         id="stop11940"
         style="stop-color:#A2BBD5"
         offset="1" />
      <a:midPointStop
         style="stop-color:#567C99"
         offset="0" />
      <a:midPointStop
         style="stop-color:#567C99"
         offset="0.5" />
      <a:midPointStop
         style="stop-color:#C1DEEA"
         offset="0.5225" />
      <a:midPointStop
         style="stop-color:#C1DEEA"
         offset="0.5" />
      <a:midPointStop
         style="stop-color:#A2BBD5"
         offset="1" />
    </linearGradient>
    <linearGradient
       y2="110.1895"
       x2="369.07669"
       y1="110.1895"
       x1="351.6528"
       gradientUnits="userSpaceOnUse"
       id="XMLID_80_">
      <stop
         id="stop11927"
         style="stop-color:#567C99"
         offset="0" />
      <stop
         id="stop11929"
         style="stop-color:#C1DEEA"
         offset="0.5225" />
      <stop
         id="stop11931"
         style="stop-color:#A2BBD5"
         offset="1" />
      <a:midPointStop
         style="stop-color:#567C99"
         offset="0" />
      <a:midPointStop
         style="stop-color:#567C99"
         offset="0.5" />
      <a:midPointStop
         style="stop-color:#C1DEEA"
         offset="0.5225" />
      <a:midPointStop
         style="stop-color:#C1DEEA"
         offset="0.5" />
      <a:midPointStop
         style="stop-color:#A2BBD5"
         offset="1" />
    </linearGradient>
  </defs>
  <sodipodi:namedview
     id="base"
     pagecolor="#ffffff"
     bordercolor="#666666"
     borderopacity="1.0"
     inkscape:pageopacity="0.0"
     inkscape:pageshadow="2"
     inkscape:zoom="19.79899"
     inkscape:cx="24"
     inkscape:cy="24"
     inkscape:current-layer="layer1"
     showgrid="true"
     inkscape:grid-bbox="true"
     inkscape:document-units="px"
     inkscape:window-width="1920"
     inkscape:window-height="1115"
     inkscape:window-x="-4"
     inkscape:window-y="-4" />
  <metadata
     id="metadata5716">
    <rdf:RDF>
      <cc:Work
         rdf:about="">
        <dc:format>image/svg+xml</dc:format>
        <dc:type
           rdf:resource="http://purl.org/dc/dcmitype/StillImage" />
      </cc:Work>
    </rdf:RDF>
  </metadata>
  <g
     id="layer1"
     inkscape:label="Layer 1"
     inkscape:groupmode="layer">
    <path
       style="fill:url(#XMLID_84_)"
       id="path11989"
       d="M 23.34558,20.257259 C 10.909323,18.734422 11.013324,11.169163 11.013324,11.169163 C 12.101254,19.40818 20.489636,22.081809 21.660155,28.296493 C 22.598202,33.275783 16.471329,39.244815 16.471329,47.50116 C 19.07135,41.706429 25.850777,37.325469 30.335047,32.84156 C 38.794802,24.385431 37.535576,18.876105 39.075196,13.866236 C 39.076216,13.866236 33.209345,21.465131 23.34558,20.257259 z "
       a:adobe-blending-mode="darken"
       i:knockout="Off" />
    <path
       style="fill:#c1deea"
       id="path11922"
       d="M 32.034748,16.949624 C 29.926181,17.442966 27.611653,17.648865 24.814846,17.648865 C 17.574553,17.648865 13.848876,13.812213 13.848876,11.111063 C 13.848876,8.0307333 18.21997,5.1654756 23.882918,5.1654756 C 30.690894,5.1654756 35.349519,10.137629 29.832377,12.684865 C 30.160693,12.16706 30.341166,11.599309 30.341166,11.003017 C 30.341166,8.6147933 27.444436,6.679139 23.870682,6.679139 C 20.296928,6.679139 17.39918,8.6147933 17.39918,11.003017 C 17.39918,12.083477 18.444286,15.237197 24.311156,15.651033 C 29.685552,16.028175 34.345198,14.191394 37.356124,10.246695 C 36.925845,12.731753 30.404381,18.840429 20.370341,16.136221 C 24.738376,17.376712 28.591504,17.372634 31.650353,16.617331 L 32.034748,16.949624 z "
       i:knockout="Off" />
    <g
       transform="matrix(1.019616,0,0,1.0193019,-342.57116,-84.577942)"
       id="g11924"
       i:knockout="Off">
      <linearGradient
         y2="110.1895"
         x2="369.07669"
         y1="110.1895"
         x1="351.6528"
         gradientUnits="userSpaceOnUse"
         id="linearGradient13522">
        <stop
           id="stop13524"
           style="stop-color:#567C99"
           offset="0" />
        <stop
           id="stop13526"
           style="stop-color:#C1DEEA"
           offset="0.5225" />
        <stop
           id="stop13528"
           style="stop-color:#A2BBD5"
           offset="1" />
        <a:midPointStop
           style="stop-color:#567C99"
           offset="0" />
        <a:midPointStop
           style="stop-color:#567C99"
           offset="0.5" />
        <a:midPointStop
           style="stop-color:#C1DEEA"
           offset="0.5225" />
        <a:midPointStop
           style="stop-color:#C1DEEA"
           offset="0.5" />
        <a:midPointStop
           style="stop-color:#A2BBD5"
           offset="1" />
      </linearGradient>
      <path
         style="fill:url(#XMLID_80_)"
         id="path11933"
         d="M 355.445,106.924 C 356.95,108.64 365.453,109.31 363.103,117.634 L 369.045,111.408 C 369.85,105.816 354.787,106.093 351.652,102.744 L 355.445,106.924 z "
         i:knockout="Off" />
      <linearGradient
         y2="119.3423"
         x2="358.72311"
         y1="119.3423"
         x1="352.21729"
         gradientUnits="userSpaceOnUse"
         id="linearGradient13531">
        <stop
           id="stop13533"
           style="stop-color:#567C99"
           offset="0" />
        <stop
           id="stop13535"
           style="stop-color:#C1DEEA"
           offset="0.5225" />
        <stop
           id="stop13537"
           style="stop-color:#A2BBD5"
           offset="1" />
        <a:midPointStop
           style="stop-color:#567C99"
           offset="0" />
        <a:midPointStop
           style="stop-color:#567C99"
           offset="0.5" />
        <a:midPointStop
           style="stop-color:#C1DEEA"
           offset="0.5225" />
        <a:midPointStop
           style="stop-color:#C1DEEA"
           offset="0.5" />
        <a:midPointStop
           style="stop-color:#A2BBD5"
           offset="1" />
      </linearGradient>
      <path
         style="fill:url(#XMLID_81_)"
         id="path11942"
         d="M 355.641,117.579 C 355.313,120.123 356.239,122.039 352.217,127.948 L 357.325,122.768 C 360.527,115.463 357.224,112.925 357.224,110.737 L 355.641,117.579 z "
         i:knockout="Off" />
    </g>
    <path
       style="fill:none;stroke:#3065a0;stroke-width:1"
       id="path11944"
       d="M 23.345582,20.25726 C 10.909323,18.734423 11.013324,11.169163 11.013324,11.169163 C 12.101254,19.408182 20.489637,22.08181 21.660156,28.296494 C 22.598203,33.275784 16.47133,39.244817 16.47133,47.501163 C 19.071351,41.706431 25.850778,37.325471 30.33505,32.841562 C 38.794804,24.385433 37.535578,18.876106 39.075198,13.866237 C 39.076219,13.866237 33.209347,21.465133 23.345582,20.25726 z "
       i:knockout="Off" />
    <path
       style="opacity:0.8;fill:none;stroke:#ffffff;stroke-width:1"
       id="path11991"
       d="M 16.977059,19.671161 C 17.211571,19.917833 17.444044,20.1696 17.678555,20.414233 C 19.938025,22.758627 22.071061,24.972551 22.662439,28.107924 L 22.672635,28.155831 L 22.662439,28.107924 L 22.777656,29.374916 C 22.777656,31.691789 21.677489,34.136075 20.512069,36.722044 C 19.641316,38.656679 18.740995,40.77377 18.14554,43.045793 C 20.177635,40.516906 22.73891,38.233669 25.295087,36.02688 C 26.85408,34.680383 28.326406,33.409313 29.614181,32.120916 C 35.827722,25.910308 36.597532,21.387665 37.276596,17.39608 C 37.300047,17.257454 37.327576,17.126984 37.350008,16.990397"
       i:knockout="Off" />
    <path
       style="fill:none;stroke:#3065a0;stroke-width:2"
       id="path11946"
       d="M 17.39918,11.001998 C 17.39918,12.082458 18.444287,15.236179 24.311158,15.650015 C 29.685555,16.027157 34.345199,14.190374 37.356126,10.245676 C 36.925848,12.730735 30.404384,18.839411 20.370342,16.135203 C 31.407686,19.268537 39.147591,14.46049 39.147591,9.6504041 C 39.147591,5.1114529 30.976388,-0.9421809 17.430789,1.9770998 C 28.397779,0.35538954 30.54611,3.2736515 29.400062,3.0585788 C 28.252994,2.8424865 15.567951,0.68156709 11.410975,6.6791393 C 13.41758,5.1124722 14.13437,5.4366102 14.13437,5.4366102 C 6.3934442,11.59727 14.205743,20.298032 24.525277,20.298032 C 28.467113,20.298032 31.97969,19.919871 33.054366,19.433664 C 33.054366,19.433664 29.900693,19.810805 29.900693,19.16151 C 37.355106,17.811954 39.074179,13.866237 39.074179,13.866237 C 34.703084,16.676452 30.903996,17.648866 24.812809,17.648866 C 17.572515,17.648866 13.846838,13.812213 13.846838,11.111063 C 13.846838,8.0307338 18.217932,5.1654759 23.88088,5.1654759 C 30.688857,5.1654759 35.347482,10.137631 29.830339,12.684865 C 30.158656,12.16706 30.339128,11.599309 30.339128,11.003017 C 30.339128,8.6147938 27.442399,6.6791393 23.868644,6.6791393 C 20.294891,6.6791393 17.39918,8.6137745 17.39918,11.001998 z "
       i:knockout="Off" />
    <path
       style="fill:none;stroke:#709ec3;stroke-width:2"
       id="path11948"
       d="M 24.814849,17.648866 C 17.574555,17.648866 13.848877,13.812213 13.848877,11.111063 C 13.848877,8.0307338 18.219971,5.1654759 23.882919,5.1654759 C 30.690896,5.1654759 35.349521,10.137631 29.832379,12.684865 C 30.160696,12.16706 30.341167,11.599309 30.341167,11.003017 C 30.341167,8.6147938 27.444438,6.6791393 23.870684,6.6791393 C 20.29693,6.6791393 17.39918,8.6147938 17.39918,11.003017 C 17.39918,12.083478 18.444287,15.237198 24.311158,15.651035 C 29.685555,16.028177 34.345199,14.191394 37.356126,10.246696 C 36.925848,12.731753 30.404384,18.84043 20.370342,16.136222"
       i:knockout="Off" />
    <path
       style="fill:url(#XMLID_82_)"
       id="path11959"
       d="M 17.39918,11.001998 C 17.39918,12.082458 18.444286,15.236177 24.311156,15.650014 C 29.685552,16.027156 34.345198,14.190374 37.356124,10.245675 C 36.925845,12.730733 30.404381,18.83941 20.370341,16.135202 C 31.407683,19.268536 39.147588,14.460488 39.147588,9.6504036 C 39.147588,5.1114526 30.976386,-0.94218091 17.430787,1.9770997 C 28.397778,0.3553895 30.546108,3.2736513 29.400059,3.0585786 C 28.252992,2.8424864 15.567949,0.68156704 11.410974,6.679139 C 13.417579,5.1124719 14.134369,5.43661 14.134369,5.43661 C 6.3934439,11.59727 14.205742,20.298031 24.525275,20.298031 C 28.467111,20.298031 31.979689,19.91987 33.054363,19.433663 C 33.054363,19.433663 29.900691,19.810805 29.900691,19.161509 C 37.355104,17.811954 39.074177,13.866236 39.074177,13.866236 C 34.703083,16.676452 30.903993,17.648865 24.812807,17.648865 C 17.572514,17.648865 13.846837,13.812213 13.846837,11.111063 C 13.846837,8.0307333 18.217931,5.1654756 23.880879,5.1654756 C 30.688854,5.1654756 35.34748,10.137629 29.830338,12.684865 C 30.158654,12.16706 30.339127,11.599309 30.339127,11.003017 C 30.339127,8.6147933 27.442397,6.679139 23.868643,6.679139 C 20.294889,6.679139 17.39918,8.613774 17.39918,11.001998 z "
       i:knockout="Off" />
    <path
       style="opacity:0.8;fill:none;stroke:#ffffff;stroke-width:1"
       id="path11961"
       d="M 30.06893,2.5795069 C 30.14642,2.7048814 30.186185,2.8363712 30.186185,2.9637837 C 30.186185,3.0840613 30.150499,3.1992424 30.081165,3.3011726 C 30.008773,3.4081994 29.785476,3.6487546 29.305238,3.5580367 C 28.838253,3.4703767 19.350726,1.7467375 14.078291,4.9228821 C 14.179233,4.9381716 14.296489,4.9493839 14.342372,4.9707892 L 15.108104,5.3122554 L 14.45147,5.8351573 C 12.518278,7.3722647 11.515995,9.1682747 11.515995,11.023403 C 11.515995,11.622753 11.621016,12.228218 11.832076,12.831645 C 13.218755,16.798768 18.67676,19.788381 24.525277,19.787361 C 26.480901,19.787361 28.181621,19.690528 29.573396,19.554961 C 29.502024,19.401046 29.115588,18.56216 29.115588,18.56216 L 29.810967,18.658994 C 33.389819,18.010718 35.588111,16.744745 36.897299,15.647977 C 33.400016,17.410349 29.85481,18.157498 24.812809,18.157498 C 16.983177,18.157498 13.337031,13.951858 13.337031,11.110044 C 13.337031,7.6107813 18.164912,4.6548056 23.88088,4.6548056 C 28.265229,4.6548056 32.143849,6.6730235 32.709736,9.2508382 C 32.908561,10.154958 32.826991,11.862289 30.044459,13.146609 L 28.474251,13.871333 L 29.400062,12.410673 C 29.684534,11.962181 29.82932,11.487186 29.82932,11.000979 C 29.82932,8.8981597 27.155887,7.1867517 23.868644,7.1867517 C 20.581402,7.1867517 17.90695,8.8981597 17.90695,11.000979 C 17.90695,11.037673 17.980361,14.691871 24.344805,15.140364 C 29.628456,15.51139 34.103551,13.663396 36.948279,9.9358081 L 37.856757,10.332316 C 37.618167,11.708374 36.035723,13.539041 33.917981,14.891654 C 33.302132,15.285105 32.435459,15.717289 31.44847,16.117875 C 33.185897,15.697922 34.754065,15.035376 36.026547,14.075194 C 37.706874,12.806162 38.634724,11.234399 38.635744,9.6504041 C 38.635744,8.1866869 37.66405,6.5639582 35.969448,5.1950356 C 34.352337,3.8913485 32.268242,2.9872276 29.921085,2.4153998 C 29.979204,2.4724804 30.037322,2.529561 30.06893,2.5795069 z "
       i:knockout="Off" />
    <path
       style="fill:url(#XMLID_83_)"
       id="path11978"
       d="M 29.832377,12.683846 C 29.832377,10.884778 27.901224,9.0836722 24.843396,9.6065736 C 21.85898,10.117244 21.603056,13.440168 25.780423,14.037478 C 29.95779,14.634789 37.542713,11.225224 33.19609,6.5394946 C 28.686328,1.6774242 20.069554,3.4703765 18.449384,4.9198239 C 24.501825,2.7048813 32.940166,4.9198239 32.940166,8.7554569 C 32.941187,12.164002 29.832377,12.683846 29.832377,12.683846 z "
       i:knockout="Off" />
    <path
       style="fill:none;stroke:#c1deea;stroke-width:0.5"
       id="path11993"
       d="M 11.549643,13.244462 C 13.203461,17.003648 18.426954,20.042187 24.527317,20.042187 C 28.469152,20.042187 31.981729,19.664027 33.056405,19.177819 C 33.056405,19.177819 29.902732,19.554961 29.902732,18.905665 C 37.357145,17.556109 39.076219,13.610392 39.076219,13.610392"
       i:knockout="Off" />
  </g>
</svg>
