<?xml version="1.0" encoding="UTF-8" standalone="no"?>
<!-- Created with Inkscape (http://www.inkscape.org/) -->
<svg
   xmlns:i="http://ns.adobe.com/AdobeIllustrator/10.0/"
   xmlns:a="http://ns.adobe.com/AdobeSVGViewerExtensions/3.0/"
   xmlns:dc="http://purl.org/dc/elements/1.1/"
   xmlns:cc="http://web.resource.org/cc/"
   xmlns:rdf="http://www.w3.org/1999/02/22-rdf-syntax-ns#"
   xmlns:svg="http://www.w3.org/2000/svg"
   xmlns="http://www.w3.org/2000/svg"
   xmlns:xlink="http://www.w3.org/1999/xlink"
   xmlns:sodipodi="http://sodipodi.sourceforge.net/DTD/sodipodi-0.dtd"
   xmlns:inkscape="http://www.inkscape.org/namespaces/inkscape"
   width="48px"
   height="48px"
   id="svg78253"
   sodipodi:version="0.32"
   inkscape:version="0.44"
   sodipodi:docbase="e:\dev_clean\src\houdini\support\icons\pop"
   sodipodi:docname="wind.svg">
  <defs
     id="defs78255">
    <linearGradient
       id="linearGradient161021">
      <stop
         style="stop-color:#9cc8f7;stop-opacity:0;"
         offset="0"
         id="stop161023" />
      <stop
         style="stop-color:#9cc8f7;stop-opacity:1;"
         offset="1"
         id="stop161025" />
    </linearGradient>
    <linearGradient
       y2="648.125"
       x2="854.57361"
       y1="648.125"
       x1="840.9834"
       gradientUnits="userSpaceOnUse"
       id="XMLID_421_">
      <stop
         id="stop58505"
         style="stop-color:white;stop-opacity:0;"
         offset="0" />
      <stop
         id="stop58507"
         style="stop-color:#89ABBF"
         offset="1" />
      <a:midPointStop
         style="stop-color:#FFFFFF"
         offset="0" />
      <a:midPointStop
         style="stop-color:#FFFFFF"
         offset="0.5" />
      <a:midPointStop
         style="stop-color:#89ABBF"
         offset="1" />
    </linearGradient>
    <linearGradient
       y2="648.12891"
       x2="859.80957"
       y1="648.12891"
       x1="840.91699"
       gradientUnits="userSpaceOnUse"
       id="XMLID_420_">
      <stop
         id="stop58498"
         style="stop-color:#FFFFFF"
         offset="0" />
      <stop
         id="stop58500"
         style="stop-color:#B7D0DC"
         offset="1" />
      <a:midPointStop
         style="stop-color:#FFFFFF"
         offset="0" />
      <a:midPointStop
         style="stop-color:#FFFFFF"
         offset="0.5" />
      <a:midPointStop
         style="stop-color:#B7D0DC"
         offset="1" />
    </linearGradient>
    <radialGradient
       gradientUnits="userSpaceOnUse"
       gradientTransform="matrix(0,1,1,0,199.6689,-234.9302)"
       fy="656.18549"
       fx="876.98932"
       r="17.944901"
       cy="656.18549"
       cx="876.98932"
       id="XMLID_423_">
      <stop
         id="stop58537"
         style="stop-color:#FFFFFF"
         offset="0" />
      <stop
         id="stop58539"
         style="stop-color:#2E659E"
         offset="0.6854" />
      <stop
         id="stop58541"
         style="stop-color:#1D3E63"
         offset="1" />
      <a:midPointStop
         style="stop-color:#FFFFFF"
         offset="0" />
      <a:midPointStop
         style="stop-color:#FFFFFF"
         offset="0.5" />
      <a:midPointStop
         style="stop-color:#2E659E"
         offset="0.6854" />
      <a:midPointStop
         style="stop-color:#2E659E"
         offset="0.5" />
      <a:midPointStop
         style="stop-color:#1D3E63"
         offset="1" />
    </radialGradient>
    <radialGradient
       gradientUnits="userSpaceOnUse"
       gradientTransform="matrix(0,-1,1,0,199.6689,824.2393)"
       fy="658.7334"
       fx="178.7798"
       r="10.1781"
       cy="658.7334"
       cx="178.7798"
       id="XMLID_422_">
      <stop
         id="stop58516"
         style="stop-color:#FFFFFF"
         offset="0" />
      <stop
         id="stop58518"
         style="stop-color:#DBE8F2"
         offset="0.0898" />
      <stop
         id="stop58520"
         style="stop-color:#A2C3DE"
         offset="0.2484" />
      <stop
         id="stop58522"
         style="stop-color:#75A6CD"
         offset="0.3951" />
      <stop
         id="stop58524"
         style="stop-color:#5591C2"
         offset="0.5253" />
      <stop
         id="stop58526"
         style="stop-color:#4185BB"
         offset="0.6339" />
      <stop
         id="stop58528"
         style="stop-color:#3A80B8"
         offset="0.7079" />
      <stop
         id="stop58530"
         style="stop-color:#244A87"
         offset="1" />
      <a:midPointStop
         style="stop-color:#FFFFFF"
         offset="0" />
      <a:midPointStop
         style="stop-color:#FFFFFF"
         offset="0.376" />
      <a:midPointStop
         style="stop-color:#3A80B8"
         offset="0.7079" />
      <a:midPointStop
         style="stop-color:#3A80B8"
         offset="0.5" />
      <a:midPointStop
         style="stop-color:#244A87"
         offset="1" />
    </radialGradient>
    <linearGradient
       y2="648.2002"
       x2="876.6957"
       y1="648.2002"
       x1="888.7441"
       gradientUnits="userSpaceOnUse"
       id="XMLID_424_"
       gradientTransform="translate(-855.3446,-636.7715)">
      <stop
         id="stop58546"
         style="stop-color:white;stop-opacity:0;"
         offset="0" />
      <stop
         id="stop58548"
         style="stop-color:#acd5f9;stop-opacity:1;"
         offset="1" />
      <a:midPointStop
         style="stop-color:#FAAF3E"
         offset="0" />
      <a:midPointStop
         style="stop-color:#FAAF3E"
         offset="0.5" />
      <a:midPointStop
         style="stop-color:#E96712"
         offset="1" />
    </linearGradient>
    <linearGradient
       inkscape:collect="always"
       xlink:href="#XMLID_421_"
       id="linearGradient78349"
       x1="840.91602"
       y1="648.12848"
       x2="859.80902"
       y2="648.12848"
       gradientUnits="userSpaceOnUse" />
    <linearGradient
       inkscape:collect="always"
       xlink:href="#XMLID_424_"
       id="linearGradient78355"
       gradientUnits="userSpaceOnUse"
       gradientTransform="translate(-836.7384,-614.0572)"
       x1="888.7441"
       y1="648.2002"
       x2="876.6957"
       y2="648.2002" />
    <linearGradient
       inkscape:collect="always"
       xlink:href="#XMLID_424_"
       id="linearGradient78361"
       gradientUnits="userSpaceOnUse"
       gradientTransform="translate(-856.368,-626.7715)"
       x1="888.7441"
       y1="648.2002"
       x2="876.6957"
       y2="648.2002" />
    <linearGradient
       inkscape:collect="always"
       xlink:href="#XMLID_424_"
       id="linearGradient78370"
       gradientUnits="userSpaceOnUse"
       gradientTransform="translate(-855.3446,-636.7715)"
       x1="904.17267"
       y1="648.2002"
       x2="876.6957"
       y2="648.2002" />
    <linearGradient
       inkscape:collect="always"
       xlink:href="#XMLID_424_"
       id="linearGradient78376"
       gradientUnits="userSpaceOnUse"
       gradientTransform="translate(-855.3446,-636.7715)"
       x1="904.17267"
       y1="648.2002"
       x2="876.6957"
       y2="648.2002" />
    <linearGradient
       inkscape:collect="always"
       xlink:href="#XMLID_424_"
       id="linearGradient78384"
       gradientUnits="userSpaceOnUse"
       gradientTransform="translate(-855.3446,-636.7715)"
       x1="904.17267"
       y1="648.2002"
       x2="876.6957"
       y2="648.2002" />
    <linearGradient
       inkscape:collect="always"
       xlink:href="#XMLID_424_"
       id="linearGradient78392"
       gradientUnits="userSpaceOnUse"
       gradientTransform="translate(-855.3446,-636.7715)"
       x1="904.17267"
       y1="648.2002"
       x2="876.6957"
       y2="648.2002" />
    <linearGradient
       inkscape:collect="always"
       xlink:href="#XMLID_424_"
       id="linearGradient78400"
       gradientUnits="userSpaceOnUse"
       gradientTransform="translate(-855.3446,-636.7715)"
       x1="904.17267"
       y1="648.2002"
       x2="876.6957"
       y2="648.2002" />
    <linearGradient
       inkscape:collect="always"
       xlink:href="#XMLID_424_"
       id="linearGradient78413"
       gradientUnits="userSpaceOnUse"
       gradientTransform="translate(-855.3446,-636.7715)"
       x1="904.17267"
       y1="648.2002"
       x2="876.6957"
       y2="648.2002" />
    <linearGradient
       inkscape:collect="always"
       xlink:href="#XMLID_424_"
       id="linearGradient78415"
       gradientUnits="userSpaceOnUse"
       gradientTransform="translate(-855.3446,-636.7715)"
       x1="904.17267"
       y1="648.2002"
       x2="876.6957"
       y2="648.2002" />
    <linearGradient
       inkscape:collect="always"
       xlink:href="#XMLID_424_"
       id="linearGradient78417"
       gradientUnits="userSpaceOnUse"
       gradientTransform="translate(-855.3446,-636.7715)"
       x1="904.17267"
       y1="648.2002"
       x2="876.6957"
       y2="648.2002" />
    <linearGradient
       inkscape:collect="always"
       xlink:href="#XMLID_424_"
       id="linearGradient154791"
       gradientUnits="userSpaceOnUse"
       gradientTransform="translate(-855.3446,-636.7715)"
       x1="904.17267"
       y1="648.2002"
       x2="876.6957"
       y2="648.2002" />
    <linearGradient
       inkscape:collect="always"
       xlink:href="#XMLID_424_"
       id="linearGradient154799"
       gradientUnits="userSpaceOnUse"
       gradientTransform="translate(-855.3446,-636.7715)"
       x1="904.17267"
       y1="648.2002"
       x2="876.6957"
       y2="648.2002" />
    <linearGradient
       inkscape:collect="always"
       xlink:href="#XMLID_421_"
       id="linearGradient161009"
       gradientUnits="userSpaceOnUse"
       x1="840.91602"
       y1="648.12848"
       x2="859.80902"
       y2="648.12848" />
    <linearGradient
       inkscape:collect="always"
       xlink:href="#XMLID_421_"
       id="linearGradient161011"
       gradientUnits="userSpaceOnUse"
       gradientTransform="translate(-820.0588,-623.7715)"
       x1="840.9834"
       y1="648.125"
       x2="854.57361"
       y2="648.125" />
    <radialGradient
       inkscape:collect="always"
       xlink:href="#XMLID_422_"
       id="radialGradient161013"
       gradientUnits="userSpaceOnUse"
       gradientTransform="matrix(0,-1,1,0,199.6689,824.2393)"
       cx="178.7798"
       cy="658.7334"
       fx="178.7798"
       fy="658.7334"
       r="10.1781" />
    <radialGradient
       inkscape:collect="always"
       xlink:href="#XMLID_423_"
       id="radialGradient161015"
       gradientUnits="userSpaceOnUse"
       gradientTransform="matrix(0,1,1,0,199.6689,-234.9302)"
       cx="876.98932"
       cy="656.18549"
       fx="876.98932"
       fy="656.18549"
       r="17.944901" />
    <linearGradient
       inkscape:collect="always"
       xlink:href="#XMLID_424_"
       id="linearGradient161019"
       gradientUnits="userSpaceOnUse"
       gradientTransform="matrix(-0.939402,0,0,0.788419,843.4301,-502.7416)"
       x1="904.17267"
       y1="648.2002"
       x2="876.69568"
       y2="648.2002" />
    <linearGradient
       inkscape:collect="always"
       xlink:href="#linearGradient161021"
       id="linearGradient161027"
       x1="-9.2602019"
       y1="8.3116839"
       x2="7.2889977"
       y2="8.3117495"
       gradientUnits="userSpaceOnUse" />
    <linearGradient
       inkscape:collect="always"
       xlink:href="#XMLID_424_"
       id="linearGradient161039"
       gradientUnits="userSpaceOnUse"
       gradientTransform="matrix(-0.939402,0,0,0.788419,843.4301,-502.7416)"
       x1="904.17267"
       y1="648.2002"
       x2="876.69568"
       y2="648.2002" />
    <linearGradient
       inkscape:collect="always"
       xlink:href="#linearGradient161021"
       id="linearGradient161041"
       gradientUnits="userSpaceOnUse"
       x1="-9.2602019"
       y1="8.3116839"
       x2="7.2889977"
       y2="8.3117495" />
    <linearGradient
       inkscape:collect="always"
       xlink:href="#XMLID_424_"
       id="linearGradient161049"
       gradientUnits="userSpaceOnUse"
       gradientTransform="matrix(-0.939402,0,0,0.788419,843.4301,-502.7416)"
       x1="904.17267"
       y1="648.2002"
       x2="876.69568"
       y2="648.2002" />
    <linearGradient
       inkscape:collect="always"
       xlink:href="#linearGradient161021"
       id="linearGradient161051"
       gradientUnits="userSpaceOnUse"
       x1="-9.2602019"
       y1="8.3116839"
       x2="7.2889977"
       y2="8.3117495" />
    <linearGradient
       inkscape:collect="always"
       xlink:href="#XMLID_424_"
       id="linearGradient161053"
       gradientUnits="userSpaceOnUse"
       gradientTransform="matrix(-0.939402,0,0,0.788419,843.4301,-502.7416)"
       x1="904.17267"
       y1="648.2002"
       x2="876.69568"
       y2="648.2002" />
    <linearGradient
       inkscape:collect="always"
       xlink:href="#linearGradient161021"
       id="linearGradient161055"
       gradientUnits="userSpaceOnUse"
       x1="-9.2602019"
       y1="8.3116839"
       x2="7.2889977"
       y2="8.3117495" />
    <linearGradient
       inkscape:collect="always"
       xlink:href="#XMLID_424_"
       id="linearGradient161061"
       gradientUnits="userSpaceOnUse"
       gradientTransform="matrix(-0.939402,0,0,0.788419,843.4301,-502.7416)"
       x1="904.17267"
       y1="648.2002"
       x2="876.69568"
       y2="648.2002" />
    <linearGradient
       inkscape:collect="always"
       xlink:href="#linearGradient161021"
       id="linearGradient161063"
       gradientUnits="userSpaceOnUse"
       x1="-9.2602019"
       y1="8.3116839"
       x2="7.2889977"
       y2="8.3117495" />
    <linearGradient
       inkscape:collect="always"
       xlink:href="#XMLID_424_"
       id="linearGradient161067"
       gradientUnits="userSpaceOnUse"
       gradientTransform="matrix(-0.939402,0,0,0.788419,848.5971,-502.8845)"
       x1="904.17267"
       y1="648.2002"
       x2="876.69568"
       y2="648.2002" />
    <linearGradient
       inkscape:collect="always"
       xlink:href="#linearGradient161021"
       id="linearGradient161069"
       gradientUnits="userSpaceOnUse"
       x1="-9.2602019"
       y1="8.3116839"
       x2="7.2889977"
       y2="8.3117495"
       gradientTransform="translate(5.167018,-0.142857)" />
    <linearGradient
       inkscape:collect="always"
       xlink:href="#XMLID_424_"
       id="linearGradient161075"
       gradientUnits="userSpaceOnUse"
       gradientTransform="matrix(-0.939402,0,0,0.788419,848.5971,-502.8845)"
       x1="904.17267"
       y1="648.2002"
       x2="876.69568"
       y2="648.2002" />
    <linearGradient
       inkscape:collect="always"
       xlink:href="#linearGradient161021"
       id="linearGradient161077"
       gradientUnits="userSpaceOnUse"
       gradientTransform="translate(5.167018,-0.142857)"
       x1="-9.2602019"
       y1="8.3116839"
       x2="7.2889977"
       y2="8.3117495" />
    <linearGradient
       inkscape:collect="always"
       xlink:href="#XMLID_424_"
       id="linearGradient161085"
       gradientUnits="userSpaceOnUse"
       gradientTransform="matrix(-0.939402,0,0,0.788419,848.5971,-502.8845)"
       x1="904.17267"
       y1="648.2002"
       x2="876.69568"
       y2="648.2002" />
    <linearGradient
       inkscape:collect="always"
       xlink:href="#linearGradient161021"
       id="linearGradient161087"
       gradientUnits="userSpaceOnUse"
       gradientTransform="translate(5.167018,-0.142857)"
       x1="-9.2602019"
       y1="8.3116839"
       x2="7.2889977"
       y2="8.3117495" />
    <linearGradient
       inkscape:collect="always"
       xlink:href="#XMLID_424_"
       id="linearGradient161095"
       gradientUnits="userSpaceOnUse"
       gradientTransform="matrix(-0.939402,0,0,0.788419,848.5971,-502.8845)"
       x1="904.17267"
       y1="648.2002"
       x2="876.69568"
       y2="648.2002" />
    <linearGradient
       inkscape:collect="always"
       xlink:href="#linearGradient161021"
       id="linearGradient161097"
       gradientUnits="userSpaceOnUse"
       gradientTransform="translate(5.167018,-0.142857)"
       x1="-9.2602019"
       y1="8.3116839"
       x2="7.2889977"
       y2="8.3117495" />
  </defs>
  <sodipodi:namedview
     id="base"
     pagecolor="#ffffff"
     bordercolor="#666666"
     borderopacity="1.0"
     inkscape:pageopacity="0.0"
     inkscape:pageshadow="2"
     inkscape:zoom="7"
     inkscape:cx="22.285714"
     inkscape:cy="18.906241"
     inkscape:current-layer="layer1"
     showgrid="true"
     inkscape:grid-bbox="true"
     inkscape:document-units="px"
     inkscape:window-width="949"
     inkscape:window-height="694"
     inkscape:window-x="353"
     inkscape:window-y="234" />
  <metadata
     id="metadata78258">
    <rdf:RDF>
      <cc:Work
         rdf:about="">
        <dc:format>image/svg+xml</dc:format>
        <dc:type
           rdf:resource="http://purl.org/dc/dcmitype/StillImage" />
      </cc:Work>
    </rdf:RDF>
  </metadata>
  <g
     id="layer1"
     inkscape:label="Layer 1"
     inkscape:groupmode="layer">
    <g
       id="g161071"
       transform="translate(0.857143,1.396973)">
      <path
         sodipodi:nodetypes="cscccsccccccscccsc"
         d="M -2.1317862,13.349866 C 1.7600219,13.349866 3.3704256,11.09724 7.1280336,10.984609 C 10.885642,10.871978 11.825044,13.237235 17.594729,13.088111 C 22.560139,12.97548 21.062866,12.072853 24.071845,12.110134 L 24.396817,15.18418 C 24.396817,15.352113 24.557455,15.486144 24.756608,15.486144 C 24.857124,15.486144 24.950125,15.450665 25.014944,15.394687 L 25.007429,15.397841 L 32.458765,8.595362 C 32.739646,8.3596247 32.739646,7.9780299 32.458765,7.7422926 C 32.458765,7.7422926 26.895627,2.4811719 25.02152,0.9532158 L 25.007429,0.942178 C 24.94261,0.8854118 24.853367,0.85150978 24.755669,0.85150978 C 24.556516,0.85150978 24.394939,0.9871178 24.395878,1.1534743 L 24.395878,3.9634004 C 20.77247,3.8507691 21.598741,5.0912901 16.633331,5.2039214 C 10.863646,5.3530447 9.9242435,2.9877877 6.1666355,3.100419 C 2.4090275,3.2130503 0.7986238,5.465676 -3.0931843,5.465676"
         style="fill:url(#linearGradient161075);stroke:url(#linearGradient161077);stroke-width:1.99999917;stroke-linejoin:round;stroke-miterlimit:4;stroke-opacity:1"
         id="path78388" />
      <path
         sodipodi:nodetypes="cscccsccccccscccsc"
         d="M -1.8436021,11.94531 C 1.3331342,11.94531 4.1238486,9.892451 7.1910422,9.8010707 C 10.258236,9.7096913 12.903838,11.966562 17.613415,11.845575 C 21.666492,11.754195 22.591529,10.458722 25.047645,10.488968 L 24.910308,13.99668 C 24.910308,14.132928 25.041429,14.24167 25.203991,14.24167 C 25.286038,14.24167 25.36195,14.212885 25.41486,14.16747 L 25.408726,14.170028 L 31.490972,8.651048 C 31.720244,8.459791 31.720244,8.1501954 31.490972,7.9589376 C 31.490972,7.9589376 26.949991,3.6904901 25.420228,2.4508306 L 25.408726,2.4418753 C 25.355817,2.3958198 25.282971,2.3683145 25.203223,2.3683145 C 25.040663,2.3683145 24.908773,2.4783359 24.90954,2.6133039 L 24.90954,4.8930501 C 21.012486,4.8016704 20.210737,6.2586539 16.157661,6.3500336 C 11.448083,6.4710201 9.0708823,4.3267798 6.0036887,4.4181597 C 2.9364952,4.5095394 0.5483812,6.6750312 -2.628355,6.6750312"
         style="fill:none;stroke:white;stroke-width:0.99999958;stroke-linejoin:round;stroke-miterlimit:4;stroke-dasharray:none;stroke-opacity:1"
         id="path78390" />
    </g>
    <g
       id="g160982"
       transform="translate(0.142864,8.571429)">
      <g
         transform="matrix(1.011127,0,0,0.702873,1.053587,-1.197229)"
         id="g154861">
        <g
           i:knockout="Off"
           a:adobe-blending-mode="normal"
           id="g58495"
           transform="translate(-820.0588,-623.7715)"
           style="fill:url(#linearGradient78349);fill-opacity:1">
          <linearGradient
             id="linearGradient78285"
             gradientUnits="userSpaceOnUse"
             x1="840.91699"
             y1="648.12891"
             x2="859.80957"
             y2="648.12891"
             style="fill-opacity:1.0;fill:url(#linearGradient78349)">
            <stop
               offset="0"
               style="stop-color:#FFFFFF;fill-opacity:1.0;fill:url(#linearGradient78349)"
               id="stop78287" />
            <stop
               offset="1"
               style="stop-color:#B7D0DC;fill-opacity:1.0;fill:url(#linearGradient78349)"
               id="stop78289" />
            <a:midPointStop
               offset="0"
               style="stop-color:#FFFFFF;fill-opacity:1.0;fill:url(#linearGradient78349)" />
            <a:midPointStop
               offset="0.5"
               style="stop-color:#FFFFFF;fill-opacity:1.0;fill:url(#linearGradient78349)" />
            <a:midPointStop
               offset="1"
               style="stop-color:#B7D0DC;fill-opacity:1.0;fill:url(#linearGradient78349)" />
          </linearGradient>
          <path
             i:knockout="Off"
             d="M 859.229,640.063 L 840.916,641.715 L 840.916,654.396 L 859.809,656.236 L 859.767,640.021 L 859.229,640.063 z M 858.77,641.102 C 858.773,642.068 858.805,654.172 858.808,655.149 C 857.8,655.064 842.77,653.549 841.917,653.477 C 841.917,652.664 841.917,643.46 841.917,642.642 C 842.775,642.574 857.773,641.18 858.77,641.102 z "
             id="path58502"
             style="fill:url(#linearGradient161009);fill-opacity:1" />
        </g>
        <path
           i:knockout="Off"
           a:adobe-blending-mode="normal"
           d="M 38.711145,17.3305 C 38.714145,18.2965 38.746145,30.4005 38.749145,31.3775 C 37.741145,31.2925 22.711146,29.7775 21.858146,29.7055 C 21.858146,28.8925 21.858146,19.6885 21.858146,18.8705 C 22.716146,18.8025 37.714145,17.4085 38.711145,17.3305 z "
           id="path58509"
           style="fill:url(#linearGradient161011)" />
      </g>
      <g
         id="g58511"
         transform="matrix(0.702873,0,0,0.702873,-563.0901,-439.6292)">
        <path
           i:knockout="Off"
           d="M 860.065,640.865 C 864.065,640.865 867.309,644.104 867.309,648.107 C 867.309,652.109 864.065,655.353 860.065,655.353 C 856.057,655.353 852.811,652.109 852.811,648.107 C 852.812,644.104 856.058,640.865 860.065,640.865 z "
           id="path58513"
           style="fill:none;stroke:#152a4c;stroke-width:2.56091928" />
        <radialGradient
           id="radialGradient78301"
           cx="178.7798"
           cy="658.7334"
           r="10.1781"
           fx="178.7798"
           fy="658.7334"
           gradientTransform="matrix(0,-1,1,0,199.6689,824.2393)"
           gradientUnits="userSpaceOnUse">
          <stop
             offset="0"
             style="stop-color:#FFFFFF"
             id="stop78303" />
          <stop
             offset="0.0898"
             style="stop-color:#DBE8F2"
             id="stop78305" />
          <stop
             offset="0.2484"
             style="stop-color:#A2C3DE"
             id="stop78307" />
          <stop
             offset="0.3951"
             style="stop-color:#75A6CD"
             id="stop78309" />
          <stop
             offset="0.5253"
             style="stop-color:#5591C2"
             id="stop78311" />
          <stop
             offset="0.6339"
             style="stop-color:#4185BB"
             id="stop78313" />
          <stop
             offset="0.7079"
             style="stop-color:#3A80B8"
             id="stop78315" />
          <stop
             offset="1"
             style="stop-color:#244A87"
             id="stop78317" />
          <a:midPointStop
             offset="0"
             style="stop-color:#FFFFFF" />
          <a:midPointStop
             offset="0.376"
             style="stop-color:#FFFFFF" />
          <a:midPointStop
             offset="0.7079"
             style="stop-color:#3A80B8" />
          <a:midPointStop
             offset="0.5"
             style="stop-color:#3A80B8" />
          <a:midPointStop
             offset="1"
             style="stop-color:#244A87" />
        </radialGradient>
        <path
           i:knockout="Off"
           d="M 860.065,640.865 C 864.065,640.865 867.309,644.104 867.309,648.107 C 867.309,652.109 864.065,655.353 860.065,655.353 C 856.057,655.353 852.811,652.109 852.811,648.107 C 852.812,644.104 856.058,640.865 860.065,640.865 z "
           id="path58532"
           style="fill:url(#radialGradient161013)" />
        <g
           i:knockout="Off"
           id="g58534">
          <radialGradient
             id="radialGradient78321"
             cx="876.98932"
             cy="656.18549"
             r="17.944901"
             fx="876.98932"
             fy="656.18549"
             gradientTransform="matrix(0,1,1,0,199.6689,-234.9302)"
             gradientUnits="userSpaceOnUse">
            <stop
               offset="0"
               style="stop-color:#FFFFFF"
               id="stop78323" />
            <stop
               offset="0.6854"
               style="stop-color:#2E659E"
               id="stop78325" />
            <stop
               offset="1"
               style="stop-color:#1D3E63"
               id="stop78327" />
            <a:midPointStop
               offset="0"
               style="stop-color:#FFFFFF" />
            <a:midPointStop
               offset="0.5"
               style="stop-color:#FFFFFF" />
            <a:midPointStop
               offset="0.6854"
               style="stop-color:#2E659E" />
            <a:midPointStop
               offset="0.5"
               style="stop-color:#2E659E" />
            <a:midPointStop
               offset="1"
               style="stop-color:#1D3E63" />
          </radialGradient>
          <path
             i:knockout="Off"
             d="M 852.812,648.107 C 852.812,650.039 853.563,651.863 854.936,653.226 C 856.31,654.6 858.122,655.353 860.066,655.353 C 861.994,655.353 863.821,654.6 865.189,653.226 C 866.562,651.863 867.31,650.049 867.31,648.107 C 867.31,644.114 864.061,640.865 860.066,640.865 C 856.065,640.865 852.812,644.114 852.812,648.107 z M 866.151,648.107 C 866.151,649.736 865.521,651.258 864.373,652.412 C 863.218,653.565 861.687,654.195 860.065,654.195 C 858.43,654.195 856.903,653.565 855.755,652.412 C 854.602,651.259 853.966,649.736 853.966,648.107 C 853.966,644.75 856.705,642.013 860.065,642.013 C 863.42,642.014 866.151,644.75 866.151,648.107 z "
             id="path58543"
             style="fill:url(#radialGradient161015)" />
        </g>
      </g>
    </g>
    <g
       id="g161079"
       transform="translate(0.783307,16.51386)">
      <path
         sodipodi:nodetypes="cscccsccccccscccsc"
         d="M -2.1317862,13.349866 C 1.7600219,13.349866 3.3704256,11.09724 7.1280336,10.984609 C 10.885642,10.871978 11.825044,13.237235 17.594729,13.088111 C 22.560139,12.97548 21.062866,12.072853 24.071845,12.110134 L 24.396817,15.18418 C 24.396817,15.352113 24.557455,15.486144 24.756608,15.486144 C 24.857124,15.486144 24.950125,15.450665 25.014944,15.394687 L 25.007429,15.397841 L 32.458765,8.595362 C 32.739646,8.3596247 32.739646,7.9780299 32.458765,7.7422926 C 32.458765,7.7422926 26.895627,2.4811719 25.02152,0.9532158 L 25.007429,0.942178 C 24.94261,0.8854118 24.853367,0.85150978 24.755669,0.85150978 C 24.556516,0.85150978 24.394939,0.9871178 24.395878,1.1534743 L 24.395878,3.9634004 C 20.77247,3.8507691 21.598741,5.0912901 16.633331,5.2039214 C 10.863646,5.3530447 9.9242435,2.9877877 6.1666355,3.100419 C 2.4090275,3.2130503 0.7986238,5.465676 -3.0931843,5.465676"
         style="fill:url(#linearGradient161085);stroke:url(#linearGradient161087);stroke-width:1.99999917;stroke-linejoin:round;stroke-miterlimit:4;stroke-opacity:1"
         id="path161081" />
      <path
         sodipodi:nodetypes="cscccsccccccscccsc"
         d="M -1.8436021,11.94531 C 1.3331342,11.94531 4.1238486,9.892451 7.1910422,9.8010707 C 10.258236,9.7096913 12.903838,11.966562 17.613415,11.845575 C 21.666492,11.754195 22.591529,10.458722 25.047645,10.488968 L 24.910308,13.99668 C 24.910308,14.132928 25.041429,14.24167 25.203991,14.24167 C 25.286038,14.24167 25.36195,14.212885 25.41486,14.16747 L 25.408726,14.170028 L 31.490972,8.651048 C 31.720244,8.459791 31.720244,8.1501954 31.490972,7.9589376 C 31.490972,7.9589376 26.949991,3.6904901 25.420228,2.4508306 L 25.408726,2.4418753 C 25.355817,2.3958198 25.282971,2.3683145 25.203223,2.3683145 C 25.040663,2.3683145 24.908773,2.4783359 24.90954,2.6133039 L 24.90954,4.8930501 C 21.012486,4.8016704 20.210737,6.2586539 16.157661,6.3500336 C 11.448083,6.4710201 9.0708823,4.3267798 6.0036887,4.4181597 C 2.9364952,4.5095394 0.5483812,6.6750312 -2.628355,6.6750312"
         style="fill:none;stroke:white;stroke-width:0.99999958;stroke-linejoin:round;stroke-miterlimit:4;stroke-dasharray:none;stroke-opacity:1"
         id="path161083" />
    </g>
    <g
       id="g161089"
       transform="translate(0.783313,31.51386)">
      <path
         sodipodi:nodetypes="cscccsccccccscccsc"
         d="M -2.1317862,13.349866 C 1.7600219,13.349866 3.3704256,11.09724 7.1280336,10.984609 C 10.885642,10.871978 11.825044,13.237235 17.594729,13.088111 C 22.560139,12.97548 21.062866,12.072853 24.071845,12.110134 L 24.396817,15.18418 C 24.396817,15.352113 24.557455,15.486144 24.756608,15.486144 C 24.857124,15.486144 24.950125,15.450665 25.014944,15.394687 L 25.007429,15.397841 L 32.458765,8.595362 C 32.739646,8.3596247 32.739646,7.9780299 32.458765,7.7422926 C 32.458765,7.7422926 26.895627,2.4811719 25.02152,0.9532158 L 25.007429,0.942178 C 24.94261,0.8854118 24.853367,0.85150978 24.755669,0.85150978 C 24.556516,0.85150978 24.394939,0.9871178 24.395878,1.1534743 L 24.395878,3.9634004 C 20.77247,3.8507691 21.598741,5.0912901 16.633331,5.2039214 C 10.863646,5.3530447 9.9242435,2.9877877 6.1666355,3.100419 C 2.4090275,3.2130503 0.7986238,5.465676 -3.0931843,5.465676"
         style="fill:url(#linearGradient161095);stroke:url(#linearGradient161097);stroke-width:1.99999917;stroke-linejoin:round;stroke-miterlimit:4;stroke-opacity:1"
         id="path161091" />
      <path
         sodipodi:nodetypes="cscccsccccccscccsc"
         d="M -1.8436021,11.94531 C 1.3331342,11.94531 4.1238486,9.892451 7.1910422,9.8010707 C 10.258236,9.7096913 12.903838,11.966562 17.613415,11.845575 C 21.666492,11.754195 22.591529,10.458722 25.047645,10.488968 L 24.910308,13.99668 C 24.910308,14.132928 25.041429,14.24167 25.203991,14.24167 C 25.286038,14.24167 25.36195,14.212885 25.41486,14.16747 L 25.408726,14.170028 L 31.490972,8.651048 C 31.720244,8.459791 31.720244,8.1501954 31.490972,7.9589376 C 31.490972,7.9589376 26.949991,3.6904901 25.420228,2.4508306 L 25.408726,2.4418753 C 25.355817,2.3958198 25.282971,2.3683145 25.203223,2.3683145 C 25.040663,2.3683145 24.908773,2.4783359 24.90954,2.6133039 L 24.90954,4.8930501 C 21.012486,4.8016704 20.210737,6.2586539 16.157661,6.3500336 C 11.448083,6.4710201 9.0708823,4.3267798 6.0036887,4.4181597 C 2.9364952,4.5095394 0.5483812,6.6750312 -2.628355,6.6750312"
         style="fill:none;stroke:white;stroke-width:0.99999958;stroke-linejoin:round;stroke-miterlimit:4;stroke-dasharray:none;stroke-opacity:1"
         id="path161093" />
    </g>
  </g>
</svg>
