<svg xmlns="http://www.w3.org/2000/svg" xmlns:xlink="http://www.w3.org/1999/xlink" viewBox="0 0 48 48"><defs><style>.cls-1{fill:url(#radial-gradient);}.cls-2{fill:none;stroke:#204a87;stroke-miterlimit:10;stroke-width:1.4px;}.cls-3{fill:url(#linear-gradient);}.cls-4{fill:#3465a4;}.cls-5{fill:url(#linear-gradient-2);}.cls-6{fill:url(#linear-gradient-3);}.cls-7{fill:url(#linear-gradient-4);}.cls-8{fill:url(#linear-gradient-5);}.cls-9{fill:url(#linear-gradient-6);}.cls-10{fill:url(#linear-gradient-7);}.cls-11{fill:url(#linear-gradient-8);}.cls-12{fill:url(#linear-gradient-9);}.cls-13{fill:url(#linear-gradient-10);}.cls-14{fill:url(#linear-gradient-11);}.cls-15{fill:url(#linear-gradient-12);}.cls-16{fill:url(#linear-gradient-13);}.cls-17{fill:url(#linear-gradient-14);}.cls-18{fill:url(#linear-gradient-15);}.cls-19{fill:url(#linear-gradient-17);}.cls-20{fill:url(#linear-gradient-18);}</style><radialGradient id="radial-gradient" cx="-22.5" cy="39.47" r="20.34" gradientTransform="translate(48.99 26.09) scale(1.11 0.36)" gradientUnits="userSpaceOnUse"><stop offset="0.03" stop-color="#2c2c2c" stop-opacity="0.5"/><stop offset="0.68" stop-color="#2c2c2c" stop-opacity="0.1"/><stop offset="0.93" stop-color="#2c2c2c" stop-opacity="0"/></radialGradient><linearGradient id="linear-gradient" x1="41.7" y1="1.48" x2="74.93" y2="1.48" gradientTransform="matrix(0.5, 0.87, -0.87, 0.5, -2.88, -32.3)" gradientUnits="userSpaceOnUse"><stop offset="0" stop-color="#b2cbe5"/><stop offset="1" stop-color="#3465a4"/></linearGradient><linearGradient id="linear-gradient-2" x1="27.85" y1="19.83" x2="-4.75" y2="31.34" gradientTransform="matrix(1, 0, 0, 1, 0, 0)" xlink:href="#linear-gradient"/><linearGradient id="linear-gradient-3" x1="16.5" y1="24.79" x2="32.13" y2="7.76" gradientUnits="userSpaceOnUse"><stop offset="0" stop-color="#fff" stop-opacity="0"/><stop offset="1" stop-color="snow"/></linearGradient><linearGradient id="linear-gradient-4" x1="56.44" y1="7.61" x2="66.3" y2="19.68" xlink:href="#linear-gradient"/><linearGradient id="linear-gradient-5" x1="17.05" y1="21.71" x2="14.44" y2="12.97" xlink:href="#linear-gradient-3"/><linearGradient id="linear-gradient-6" x1="54.18" y1="14.95" x2="54.18" y2="6.39" xlink:href="#linear-gradient"/><linearGradient id="linear-gradient-7" x1="14.86" y1="26.47" x2="18.38" y2="2.84" gradientUnits="userSpaceOnUse"><stop offset="0" stop-color="#00255d" stop-opacity="0"/><stop offset="1" stop-color="#00255d"/></linearGradient><linearGradient id="linear-gradient-8" x1="58.54" y1="5.5" x2="59.01" y2="9.93" xlink:href="#linear-gradient"/><linearGradient id="linear-gradient-9" x1="17.32" y1="21.2" x2="17.84" y2="33.15" xlink:href="#linear-gradient-7"/><linearGradient id="linear-gradient-10" x1="57.86" y1="5.92" x2="57.86" y2="13" xlink:href="#linear-gradient"/><linearGradient id="linear-gradient-11" x1="7.71" y1="18.18" x2="28.72" y2="39.19" xlink:href="#linear-gradient-7"/><linearGradient id="linear-gradient-12" x1="15.5" y1="31" x2="3.17" y2="3.85" xlink:href="#linear-gradient-3"/><linearGradient id="linear-gradient-13" x1="16.67" y1="23.73" x2="2.99" y2="27.23" xlink:href="#linear-gradient-3"/><linearGradient id="linear-gradient-14" x1="11.74" y1="5.47" x2="15.21" y2="15.03" gradientTransform="matrix(1, 0, 0, 1, 0, 0)" xlink:href="#linear-gradient"/><linearGradient id="linear-gradient-15" x1="17.81" y1="22.3" x2="11.78" y2="5.24" xlink:href="#linear-gradient-3"/><linearGradient id="linear-gradient-17" x1="76.72" y1="-8.35" x2="65.8" y2="6.6" xlink:href="#linear-gradient"/><linearGradient id="linear-gradient-18" x1="33.04" y1="29.72" x2="36.3" y2="44.85" xlink:href="#linear-gradient-7"/></defs><title>7-Wire Plasticity</title><g id="shadow"><ellipse class="cls-1" cx="24" cy="40.17" rx="21.72" ry="7"/></g><g id="ART"><path class="cls-2" d="M22.1,38.75a5.57,5.57,0,0,1-.91-.06,6.8,6.8,0,0,1-5-3.36L5.92,17.61a5.92,5.92,0,0,1,10.26-5.92L24,25.18a3.46,3.46,0,0,1-1.27,4.74A3.48,3.48,0,0,1,18,28.64l-5.76-10c-.07-.12.26-.45.74-.73s.93-.39,1-.27l5.75,10a1.47,1.47,0,0,0,2,.55,1.52,1.52,0,0,0,.69-.9,1.49,1.49,0,0,0-.15-1.11L14.45,12.69a3.93,3.93,0,0,0-7.19.94,3.92,3.92,0,0,0,.39,3L17.88,34.33a4.85,4.85,0,0,0,7.63,1L42.35,18.5h0c.12-.07.5.15.88.53s.62.79.52.89L26.92,36.74A6.75,6.75,0,0,1,22.1,38.75Z"/><path class="cls-3" d="M22.1,38.75a5.57,5.57,0,0,1-.91-.06,6.8,6.8,0,0,1-5-3.36L5.92,17.61a5.92,5.92,0,0,1,10.26-5.92L24,25.18a3.46,3.46,0,0,1-1.27,4.74A3.48,3.48,0,0,1,18,28.64l-5.76-10c-.07-.12.26-.45.74-.73s.93-.39,1-.27l5.75,10a1.47,1.47,0,0,0,2,.55,1.52,1.52,0,0,0,.69-.9,1.49,1.49,0,0,0-.15-1.11L14.45,12.69a3.93,3.93,0,0,0-7.19.94,3.92,3.92,0,0,0,.39,3L17.88,34.33a4.85,4.85,0,0,0,7.63,1L42.35,18.5h0c.12-.07.5.15.88.53s.62.79.52.89L26.92,36.74A6.75,6.75,0,0,1,22.1,38.75Z"/><path class="cls-4" d="M22.1,38.75a5.57,5.57,0,0,1-.91-.06,6.8,6.8,0,0,1-5-3.36L5.92,17.61a5.92,5.92,0,0,1,10.26-5.92L24,25.18a3.46,3.46,0,0,1-1.27,4.74A3.48,3.48,0,0,1,18,28.64l-5.76-10c-.07-.12.26-.45.74-.73s.93-.39,1-.27l5.75,10a1.47,1.47,0,0,0,2,.55,1.52,1.52,0,0,0,.69-.9,1.49,1.49,0,0,0-.15-1.11L14.45,12.69a3.93,3.93,0,0,0-7.19.94,3.92,3.92,0,0,0,.39,3L17.88,34.33a4.85,4.85,0,0,0,7.63,1L42.35,18.5h0c.12-.07.5.15.88.53s.62.79.52.89L26.92,36.74A6.75,6.75,0,0,1,22.1,38.75Z"/><path class="cls-5" d="M21.32,37.7A5.8,5.8,0,0,1,17,34.83L6.8,17.11A4.92,4.92,0,0,1,8.59,10.4l.5.86a3.91,3.91,0,0,0-1.44,5.35L17.88,34.33a4.85,4.85,0,0,0,7.63,1L42.35,18.5h0c.12-.07.49.14.87.52l-.7.7L26.2,36A5.81,5.81,0,0,1,21.32,37.7Z"/><path class="cls-6" d="M21.32,37.7A5.8,5.8,0,0,1,17,34.83L6.8,17.11A4.92,4.92,0,0,1,8.59,10.4l.5.86a3.91,3.91,0,0,0-1.44,5.35L17.88,34.33a4.85,4.85,0,0,0,7.63,1L42.35,18.5h0c.12-.07.49.14.87.52l-.7.7L26.2,36A5.81,5.81,0,0,1,21.32,37.7Z"/><path class="cls-7" d="M22.2,29a2.45,2.45,0,0,1-3.35-.89L13,17.94c.48-.28.92-.39,1-.27l5.75,10a1.47,1.47,0,0,0,2,.55Z"/><path class="cls-8" d="M22.2,29a2.45,2.45,0,0,1-3.35-.89L13,17.94c.48-.28.92-.39,1-.27l5.75,10a1.47,1.47,0,0,0,2,.55Z"/><path class="cls-9" d="M22.2,29a2.44,2.44,0,0,0,1.14-1.49,2.47,2.47,0,0,0-.24-1.86l-7.8-13.5a4.9,4.9,0,0,0-6.7-1.8l.49.86a3.92,3.92,0,0,1,5.36,1.44h0l7.79,13.5h0a1.41,1.41,0,0,1,.15,1.1,1.46,1.46,0,0,1-.68.89"/><path class="cls-10" d="M22.2,29a2.44,2.44,0,0,0,1.14-1.49,2.47,2.47,0,0,0-.24-1.86l-7.8-13.5a4.9,4.9,0,0,0-6.7-1.8l.49.86a3.92,3.92,0,0,1,5.36,1.44h0l7.79,13.5h0a1.41,1.41,0,0,1,.15,1.1,1.46,1.46,0,0,1-.68.89"/><path class="cls-11" d="M22.7,29.92A3.48,3.48,0,0,1,18,28.64l-5.76-10c-.07-.12.25-.45.73-.72l5.89,10.2a2.48,2.48,0,0,0,3.38.91Z"/><path class="cls-12" d="M22.7,29.92A3.48,3.48,0,0,1,18,28.64l-5.76-10c-.07-.12.25-.45.73-.72l5.89,10.2a2.48,2.48,0,0,0,3.38.91Z"/><path class="cls-13" d="M22.1,37.76a5,5,0,0,1-.78,0A5.84,5.84,0,0,1,17,34.84L6.78,17.11a4.93,4.93,0,0,1,1.81-6.73l-.5-.86a5.93,5.93,0,0,0-2.17,8.09h0L16.15,35.33a6.8,6.8,0,0,0,5,3.36,5.57,5.57,0,0,0,.91.06Z"/><path class="cls-14" d="M22.1,37.76a5,5,0,0,1-.78,0A5.84,5.84,0,0,1,17,34.84L6.78,17.11a4.93,4.93,0,0,1,1.81-6.73l-.5-.86a5.93,5.93,0,0,0-2.17,8.09h0L16.15,35.33a6.8,6.8,0,0,0,5,3.36,5.57,5.57,0,0,0,.91.06Z"/><path class="cls-15" d="M22.1,37.76a5,5,0,0,1-.78,0A5.84,5.84,0,0,1,17,34.84L6.78,17.11a4.93,4.93,0,0,1,1.81-6.73l-.5-.86a5.93,5.93,0,0,0-2.17,8.09h0L16.15,35.33a6.8,6.8,0,0,0,5,3.36,5.57,5.57,0,0,0,.91.06Z"/><path class="cls-16" d="M22.1,37.76a5,5,0,0,1-.78,0A5.84,5.84,0,0,1,17,34.84L6.78,17.11a4.93,4.93,0,0,1,1.81-6.73l-.5-.86a5.93,5.93,0,0,0-2.17,8.09h0L16.15,35.33a6.8,6.8,0,0,0,5,3.36,5.57,5.57,0,0,0,.91.06Z"/><path class="cls-17" d="M22.71,29.91A3.45,3.45,0,0,0,24,25.19l-7.79-13.5A5.93,5.93,0,0,0,8.09,9.52l.5.86a4.89,4.89,0,0,1,3.74-.5,4.94,4.94,0,0,1,3,2.3l7.8,13.5a2.49,2.49,0,0,1-.91,3.38"/><path class="cls-18" d="M22.71,29.91A3.45,3.45,0,0,0,24,25.19l-7.79-13.5A5.93,5.93,0,0,0,8.09,9.52l.5.86a4.89,4.89,0,0,1,3.74-.5,4.94,4.94,0,0,1,3,2.3l7.8,13.5a2.49,2.49,0,0,1-.91,3.38"/><path class="cls-18" d="M22.71,29.91A3.45,3.45,0,0,0,24,25.19l-7.79-13.5A5.93,5.93,0,0,0,8.09,9.52l.5.86a4.89,4.89,0,0,1,3.74-.5,4.94,4.94,0,0,1,3,2.3l7.8,13.5a2.49,2.49,0,0,1-.91,3.38"/><path class="cls-19" d="M22.1,38.75v-1a5.78,5.78,0,0,0,4.12-1.71L42.55,19.72l.69-.7c.38.39.62.79.52.89L26.92,36.74A6.75,6.75,0,0,1,22.1,38.75Z"/><path class="cls-20" d="M22.1,38.75v-1a5.78,5.78,0,0,0,4.12-1.71L42.55,19.72l.69-.7c.38.39.62.79.52.89L26.92,36.74A6.75,6.75,0,0,1,22.1,38.75Z"/></g></svg>