<?xml version="1.0" encoding="UTF-8" standalone="no"?>
<!-- Created with Inkscape (http://www.inkscape.org/) -->
<svg
   xmlns:a="http://ns.adobe.com/AdobeSVGViewerExtensions/3.0/"
   xmlns:i="http://ns.adobe.com/AdobeIllustrator/10.0/"
   xmlns:dc="http://purl.org/dc/elements/1.1/"
   xmlns:cc="http://web.resource.org/cc/"
   xmlns:rdf="http://www.w3.org/1999/02/22-rdf-syntax-ns#"
   xmlns:svg="http://www.w3.org/2000/svg"
   xmlns="http://www.w3.org/2000/svg"
   xmlns:xlink="http://www.w3.org/1999/xlink"
   xmlns:sodipodi="http://sodipodi.sourceforge.net/DTD/sodipodi-0.dtd"
   xmlns:inkscape="http://www.inkscape.org/namespaces/inkscape"
   width="48px"
   height="48px"
   id="svg31403"
   sodipodi:version="0.32"
   inkscape:version="0.44"
   sodipodi:docbase="e:\dev_clean\src\houdini\support\icons\dop"
   sodipodi:docname="wireobject.svg">
  <defs
     id="defs31405">
    <linearGradient
       gradientTransform="matrix(-1,0,0,1,1812.6,0)"
       y2="1597.5581"
       x2="1409.4609"
       y1="1597.5581"
       x1="1373.5156"
       gradientUnits="userSpaceOnUse"
       id="XMLID_912_">
					<stop
   id="stop18666"
   style="stop-color:#E8EDED"
   offset="0.0056" />

					<stop
   id="stop18668"
   style="stop-color:#A1ACB3"
   offset="0.3539" />

					<stop
   id="stop18670"
   style="stop-color:#575D66"
   offset="1" />

					<a:midPointStop
   style="stop-color:#E8EDED"
   offset="0.0056" />

					<a:midPointStop
   style="stop-color:#E8EDED"
   offset="0.5" />

					<a:midPointStop
   style="stop-color:#A1ACB3"
   offset="0.3539" />

					<a:midPointStop
   style="stop-color:#A1ACB3"
   offset="0.5" />

					<a:midPointStop
   style="stop-color:#575D66"
   offset="1" />

				</linearGradient>
    <linearGradient
       gradientTransform="matrix(-1,0,0,1,1812.6,0)"
       y2="1608.2056"
       x2="1380.0703"
       y1="1608.2056"
       x1="1366.5303"
       gradientUnits="userSpaceOnUse"
       id="XMLID_913_">
					<stop
   id="stop18677"
   style="stop-color:#A1ACB3"
   offset="0" />

					<stop
   id="stop18679"
   style="stop-color:#D0D6D8"
   offset="0.3258" />

					<stop
   id="stop18681"
   style="stop-color:#575D66"
   offset="1" />

					<a:midPointStop
   style="stop-color:#A1ACB3"
   offset="0" />

					<a:midPointStop
   style="stop-color:#A1ACB3"
   offset="0.5" />

					<a:midPointStop
   style="stop-color:#D0D6D8"
   offset="0.3258" />

					<a:midPointStop
   style="stop-color:#D0D6D8"
   offset="0.5" />

					<a:midPointStop
   style="stop-color:#575D66"
   offset="1" />

				</linearGradient>
    <linearGradient
       gradientTransform="matrix(-1,0,0,1,1812.6,0)"
       y2="1596.6069"
       x2="1409.4609"
       y1="1596.6069"
       x1="1382.9512"
       gradientUnits="userSpaceOnUse"
       id="XMLID_914_">
					<stop
   id="stop18688"
   style="stop-color:#A1ACB3"
   offset="0" />

					<stop
   id="stop18690"
   style="stop-color:#E8EDED"
   offset="0.4888" />

					<stop
   id="stop18692"
   style="stop-color:#575D66"
   offset="1" />

					<a:midPointStop
   style="stop-color:#A1ACB3"
   offset="0" />

					<a:midPointStop
   style="stop-color:#A1ACB3"
   offset="0.5" />

					<a:midPointStop
   style="stop-color:#E8EDED"
   offset="0.4888" />

					<a:midPointStop
   style="stop-color:#E8EDED"
   offset="0.5" />

					<a:midPointStop
   style="stop-color:#575D66"
   offset="1" />

				</linearGradient>
    <linearGradient
       gradientTransform="matrix(-1,0,0,1,1812.6,0)"
       y2="1593.2808"
       x2="1386.8467"
       y1="1593.2808"
       x1="1373.5693"
       gradientUnits="userSpaceOnUse"
       id="XMLID_915_">
					<stop
   id="stop18701"
   style="stop-color:#FFFFFF"
   offset="0" />

					<stop
   id="stop18703"
   style="stop-color:#D0D6D8"
   offset="0.2079" />

					<stop
   id="stop18705"
   style="stop-color:#737B87"
   offset="0.3933" />

					<stop
   id="stop18707"
   style="stop-color:#D0D6D8"
   offset="1" />

					<a:midPointStop
   style="stop-color:#FFFFFF"
   offset="0" />

					<a:midPointStop
   style="stop-color:#FFFFFF"
   offset="0.5" />

					<a:midPointStop
   style="stop-color:#D0D6D8"
   offset="0.2079" />

					<a:midPointStop
   style="stop-color:#D0D6D8"
   offset="0.5" />

					<a:midPointStop
   style="stop-color:#737B87"
   offset="0.3933" />

					<a:midPointStop
   style="stop-color:#737B87"
   offset="0.5" />

					<a:midPointStop
   style="stop-color:#D0D6D8"
   offset="1" />

				</linearGradient>
    <linearGradient
       inkscape:collect="always"
       xlink:href="#XMLID_912_"
       id="linearGradient31492"
       gradientUnits="userSpaceOnUse"
       gradientTransform="matrix(-1,0,0,1,1812.6,0)"
       x1="1373.5156"
       y1="1597.5581"
       x2="1409.4609"
       y2="1597.5581" />
    <linearGradient
       inkscape:collect="always"
       xlink:href="#XMLID_913_"
       id="linearGradient31494"
       gradientUnits="userSpaceOnUse"
       gradientTransform="matrix(-1,0,0,1,1812.6,0)"
       x1="1366.5303"
       y1="1608.2056"
       x2="1380.0703"
       y2="1608.2056" />
    <linearGradient
       inkscape:collect="always"
       xlink:href="#XMLID_914_"
       id="linearGradient31496"
       gradientUnits="userSpaceOnUse"
       gradientTransform="matrix(-1,0,0,1,1812.6,0)"
       x1="1382.9512"
       y1="1596.6069"
       x2="1409.4609"
       y2="1596.6069" />
    <linearGradient
       inkscape:collect="always"
       xlink:href="#XMLID_915_"
       id="linearGradient31498"
       gradientUnits="userSpaceOnUse"
       gradientTransform="matrix(-1,0,0,1,1812.6,0)"
       x1="1373.5693"
       y1="1593.2808"
       x2="1386.8467"
       y2="1593.2808" />
  </defs>
  <sodipodi:namedview
     id="base"
     pagecolor="#ffffff"
     bordercolor="#666666"
     borderopacity="1.0"
     inkscape:pageopacity="0.0"
     inkscape:pageshadow="2"
     inkscape:zoom="7"
     inkscape:cx="24"
     inkscape:cy="24"
     inkscape:current-layer="layer1"
     showgrid="true"
     inkscape:grid-bbox="true"
     inkscape:document-units="px"
     inkscape:window-width="853"
     inkscape:window-height="573"
     inkscape:window-x="110"
     inkscape:window-y="145" />
  
  <g
     id="layer1"
     inkscape:label="Layer 1"
     inkscape:groupmode="layer">
    <g
       id="g31459"
       transform="matrix(1.073865,0,0,1.073865,2.551148e-6,2.187026)">
      <g
         id="g18653"
         transform="translate(-402.3878,-1577.269)">
				<path
   i:knockout="Off"
   d="M 421.794,1582.173 C 420.596,1583.544 420.286,1585.39 420.286,1586.935 C 420.286,1587.906 420.407,1588.757 420.511,1589.297 C 421.361,1593.799 424.434,1598.73 429.613,1603.951 C 429.515,1603.962 429.42,1604.003 429.322,1604.011 C 422.238,1604.544 415.771,1596.717 413.321,1593.327 C 410.515,1589.447 407.334,1587.791 403.31,1588.114 C 402.757,1588.159 402.347,1588.64 402.391,1589.192 C 402.435,1589.743 402.917,1590.154 403.469,1590.11 C 406.817,1589.841 409.279,1591.155 411.697,1594.5 C 414.988,1599.05 421.672,1606.596 429.474,1606.009 C 430.115,1605.959 430.751,1605.818 431.378,1605.622 C 433.763,1607.771 436.351,1609.647 438.85,1610.979 C 441.355,1612.313 444.884,1613.868 446.609,1611.979 C 446.981,1611.57 446.952,1610.937 446.545,1610.564 C 446.136,1610.192 445.503,1610.22 445.13,1610.627 C 445.04,1610.727 444.129,1611.521 439.793,1609.211 C 437.701,1608.097 435.463,1606.521 433.389,1604.736 C 434.715,1603.966 435.938,1602.884 436.957,1601.52 C 438.66,1599.24 439.601,1596.466 439.601,1593.906 C 439.601,1593.218 439.534,1592.547 439.395,1591.905 C 438.223,1586.469 431.616,1580.844 426.057,1580.549 C 424.28,1580.456 422.806,1581.017 421.794,1582.173 z M 431.8,1603.279 C 431.595,1603.082 431.374,1602.896 431.175,1602.697 C 426.188,1597.705 423.261,1593.072 422.478,1588.926 C 422.351,1588.254 422.29,1587.596 422.29,1586.979 C 422.29,1585.504 422.643,1584.249 423.304,1583.493 C 423.912,1582.797 424.778,1582.489 425.95,1582.552 C 430.65,1582.802 436.446,1587.738 437.437,1592.331 C 437.547,1592.843 437.601,1593.382 437.601,1593.932 C 437.601,1596.056 436.799,1598.388 435.352,1600.326 C 434.346,1601.671 433.11,1602.65 431.8,1603.279 z "
   id="path18655"
   style="fill:#737b87" />

			</g>
      <path
         i:knockout="Off"
         d="M 28.465226,27.016651 C 28.334226,26.889651 28.206226,26.762651 28.080226,26.634651 C 24.318226,22.870651 20.126226,17.738651 19.107226,12.342651 C 18.427226,8.751651 19.287226,4.551651 23.615226,4.780651 C 28.755226,5.054651 34.943226,10.327651 36.027226,15.348651"
         id="path18657"
         style="fill:none;stroke:#41464c;stroke-width:0.46560767;stroke-linecap:round" />
      <path
         i:knockout="Off"
         d="M 43.480226,34.535651 C 42.110226,36.036651 38.235226,34.020651 36.932226,33.326651 C 34.382226,31.968651 31.828226,30.090651 29.611226,28.091651"
         id="path18659"
         style="fill:none;stroke:#4c5259;stroke-width:0.37248614;stroke-linecap:round" />
      <path
         i:knockout="Off"
         d="M 43.480226,34.034651 C 42.110226,35.535651 38.235226,33.520651 36.932226,32.826651 C 33.771226,31.141651 30.601226,28.658651 28.079226,26.134651 C 24.317226,22.370651 20.125226,17.236651 19.106226,11.841651 C 18.426226,8.251651 19.286226,4.050651 23.614226,4.280651 C 28.754226,4.553651 34.942226,9.827651 36.026226,14.846651 C 37.197226,20.273651 32.754226,27.306651 27.008226,27.739651 C 20.147226,28.257651 13.806226,21.743651 10.119226,16.643651 C 7.7802255,13.409651 5.0692255,11.515651 0.99922554,11.842651"
         id="path18661"
         style="fill:none;stroke:#cfdade;stroke-width:0.46560767;stroke-linecap:round" />
      <g
         id="g18663"
         transform="translate(-402.3878,-1577.269)">
				
					<linearGradient
   id="linearGradient29539"
   gradientUnits="userSpaceOnUse"
   x1="1373.5156"
   y1="1597.5581"
   x2="1409.4609"
   y2="1597.5581"
   gradientTransform="matrix(-1,0,0,1,1812.6,0)">
					<stop
   offset="0.0056"
   style="stop-color:#E8EDED"
   id="stop29541" />

					<stop
   offset="0.3539"
   style="stop-color:#A1ACB3"
   id="stop29543" />

					<stop
   offset="1"
   style="stop-color:#575D66"
   id="stop29545" />

					<a:midPointStop
   offset="0.0056"
   style="stop-color:#E8EDED" />

					<a:midPointStop
   offset="0.5"
   style="stop-color:#E8EDED" />

					<a:midPointStop
   offset="0.3539"
   style="stop-color:#A1ACB3" />

					<a:midPointStop
   offset="0.5"
   style="stop-color:#A1ACB3" />

					<a:midPointStop
   offset="1"
   style="stop-color:#575D66" />

				</linearGradient>

				<path
   i:knockout="Off"
   d="M 412.712,1594.268 C 415.237,1597.761 421.917,1605.824 429.379,1605.261 C 431.801,1605.077 434.198,1603.624 435.953,1601.274 C 437.902,1598.664 439.013,1595.368 438.431,1592.671 C 438.402,1592.536 438.488,1592.402 438.622,1592.374 C 438.757,1592.345 438.89,1592.43 438.919,1592.565 C 439.53,1595.397 438.39,1598.849 436.355,1601.573 C 434.513,1604.04 431.984,1605.565 429.417,1605.76 C 421.703,1606.341 414.881,1598.121 412.307,1594.561 C 409.748,1591.024 407.004,1589.574 403.411,1589.863 C 403.272,1589.874 403.152,1589.771 403.141,1589.634 C 403.129,1589.496 403.232,1589.375 403.37,1589.365 C 407.157,1589.06 410.04,1590.574 412.712,1594.268 z "
   id="path18672"
   style="fill:url(#linearGradient31492)" />

			</g>
      <g
         id="g18674"
         transform="translate(-402.3878,-1577.269)">
				
					<linearGradient
   id="linearGradient29549"
   gradientUnits="userSpaceOnUse"
   x1="1366.5303"
   y1="1608.2056"
   x2="1380.0703"
   y2="1608.2056"
   gradientTransform="matrix(-1,0,0,1,1812.6,0)">
					<stop
   offset="0"
   style="stop-color:#A1ACB3"
   id="stop29551" />

					<stop
   offset="0.3258"
   style="stop-color:#D0D6D8"
   id="stop29553" />

					<stop
   offset="1"
   style="stop-color:#575D66"
   id="stop29555" />

					<a:midPointStop
   offset="0"
   style="stop-color:#A1ACB3" />

					<a:midPointStop
   offset="0.5"
   style="stop-color:#A1ACB3" />

					<a:midPointStop
   offset="0.3258"
   style="stop-color:#D0D6D8" />

					<a:midPointStop
   offset="0.5"
   style="stop-color:#D0D6D8" />

					<a:midPointStop
   offset="1"
   style="stop-color:#575D66" />

				</linearGradient>

				<path
   i:knockout="Off"
   d="M 432.948,1604.925 C 435.036,1606.704 437.327,1608.304 439.415,1609.417 C 443.557,1611.622 445.13,1611.315 445.721,1610.668 C 445.795,1610.585 445.921,1610.58 446.003,1610.655 C 446.085,1610.729 446.092,1610.856 446.017,1610.937 C 444.884,1612.165 442.734,1611.638 439.226,1609.77 C 437.115,1608.643 434.712,1606.928 432.603,1605.131 C 432.519,1605.059 432.503,1604.928 432.576,1604.842 C 432.647,1604.759 432.864,1604.854 432.948,1604.925 z "
   id="path18683"
   style="fill:url(#linearGradient31494)" />

			</g>
      <g
         id="g18685"
         transform="translate(-402.3878,-1577.269)">
				
					<linearGradient
   id="linearGradient29559"
   gradientUnits="userSpaceOnUse"
   x1="1382.9512"
   y1="1596.6069"
   x2="1409.4609"
   y2="1596.6069"
   gradientTransform="matrix(-1,0,0,1,1812.6,0)">
					<stop
   offset="0"
   style="stop-color:#A1ACB3"
   id="stop29561" />

					<stop
   offset="0.4888"
   style="stop-color:#E8EDED"
   id="stop29563" />

					<stop
   offset="1"
   style="stop-color:#575D66"
   id="stop29565" />

					<a:midPointStop
   offset="0"
   style="stop-color:#A1ACB3" />

					<a:midPointStop
   offset="0.5"
   style="stop-color:#A1ACB3" />

					<a:midPointStop
   offset="0.4888"
   style="stop-color:#E8EDED" />

					<a:midPointStop
   offset="0.5"
   style="stop-color:#E8EDED" />

					<a:midPointStop
   offset="1"
   style="stop-color:#575D66" />

				</linearGradient>

				<path
   i:knockout="Off"
   d="M 412.712,1593.367 C 415.237,1596.859 421.917,1604.923 429.379,1604.359 C 429.517,1604.349 429.637,1604.453 429.648,1604.591 C 429.658,1604.729 429.554,1604.748 429.416,1604.759 C 421.703,1605.339 414.881,1597.12 412.307,1593.56 C 409.748,1590.023 407.004,1588.573 403.411,1588.861 C 403.272,1588.873 403.152,1588.87 403.141,1588.732 C 403.129,1588.593 403.232,1588.474 403.37,1588.462 C 407.157,1588.16 410.04,1589.671 412.712,1593.367 z "
   id="path18694"
   style="fill:url(#linearGradient31496)" />

			</g>
      <path
         i:knockout="Off"
         d="M 30.187226,27.573651 C 30.187226,27.573651 29.421226,27.920651 29.208226,28.005651 L 29.525226,28.286651 L 30.471226,27.855651 L 30.187226,27.573651 z "
         id="path18696"
         style="fill:#4c5259" />
      <g
         id="g18698"
         transform="translate(-402.3878,-1577.269)">
				
					<linearGradient
   id="linearGradient29570"
   gradientUnits="userSpaceOnUse"
   x1="1373.5693"
   y1="1593.2808"
   x2="1386.8467"
   y2="1593.2808"
   gradientTransform="matrix(-1,0,0,1,1812.6,0)">
					<stop
   offset="0"
   style="stop-color:#FFFFFF"
   id="stop29572" />

					<stop
   offset="0.2079"
   style="stop-color:#D0D6D8"
   id="stop29574" />

					<stop
   offset="0.3933"
   style="stop-color:#737B87"
   id="stop29576" />

					<stop
   offset="1"
   style="stop-color:#D0D6D8"
   id="stop29578" />

					<a:midPointStop
   offset="0"
   style="stop-color:#FFFFFF" />

					<a:midPointStop
   offset="0.5"
   style="stop-color:#FFFFFF" />

					<a:midPointStop
   offset="0.2079"
   style="stop-color:#D0D6D8" />

					<a:midPointStop
   offset="0.5"
   style="stop-color:#D0D6D8" />

					<a:midPointStop
   offset="0.3933"
   style="stop-color:#737B87" />

					<a:midPointStop
   offset="0.5"
   style="stop-color:#737B87" />

					<a:midPointStop
   offset="1"
   style="stop-color:#D0D6D8" />

				</linearGradient>

				<path
   i:knockout="Off"
   d="M 426.017,1581.3 C 431.287,1581.58 437.749,1586.912 438.861,1592.065 C 439.472,1594.899 438.39,1598.346 436.355,1601.073 C 434.513,1603.54 431.984,1605.066 429.417,1605.26 C 429.279,1605.271 429.159,1605.168 429.148,1605.03 C 429.138,1604.891 429.242,1604.771 429.379,1604.76 C 431.801,1604.578 434.198,1603.125 435.953,1600.774 C 437.902,1598.164 438.752,1594.868 438.171,1592.171 C 437.119,1587.3 430.972,1582.066 425.989,1581.801 C 425.85,1581.793 425.745,1581.675 425.753,1581.537 C 425.761,1581.398 425.878,1581.292 426.017,1581.3 z "
   id="path18709"
   style="fill:url(#linearGradient31498)" />

			</g>
    </g>
  </g>
</svg>
