<svg xmlns="http://www.w3.org/2000/svg" xmlns:xlink="http://www.w3.org/1999/xlink" viewBox="0 0 48 48"><defs><style>.cls-1{fill:url(#radial-gradient);}.cls-2{fill:#4e9a06;}.cls-3{fill:#8ae234;}.cls-4{fill:#babdb6;stroke:#2e3436;stroke-miterlimit:10;stroke-width:0.3px;}.cls-5{fill:url(#linear-gradient);}.cls-6{fill:url(#linear-gradient-2);}.cls-7{fill:#555753;}.cls-8{fill:#888a85;}.cls-9{fill:#2e3436;}.cls-10{fill:url(#linear-gradient-3);}.cls-11{fill:url(#linear-gradient-4);}.cls-12{fill:url(#linear-gradient-5);}.cls-13{fill:url(#radial-gradient-2);}.cls-14{fill:url(#linear-gradient-6);}.cls-15{fill:url(#linear-gradient-7);}.cls-16{fill:url(#linear-gradient-8);}.cls-17{fill:none;stroke:#4e9a06;stroke-linecap:round;stroke-linejoin:round;stroke-width:0.7px;}.cls-18{fill:url(#linear-gradient-9);}</style><radialGradient id="radial-gradient" cx="-15.71" cy="39.47" r="20.34" gradientTransform="translate(41.46 26.09) scale(1.11 0.36)" gradientUnits="userSpaceOnUse"><stop offset="0.03" stop-color="#2c2c2c" stop-opacity="0.5"/><stop offset="0.68" stop-color="#2c2c2c" stop-opacity="0.1"/><stop offset="0.93" stop-color="#2c2c2c" stop-opacity="0"/></radialGradient><linearGradient id="linear-gradient" x1="18.27" y1="31.15" x2="31.93" y2="31.15" gradientTransform="translate(15.62 -9.15) rotate(25.95)" gradientUnits="userSpaceOnUse"><stop offset="0" stop-color="#babdb6"/><stop offset="1" stop-color="#888a85"/></linearGradient><linearGradient id="linear-gradient-2" x1="19.08" y1="27.6" x2="17.63" y2="26.88" gradientUnits="userSpaceOnUse"><stop offset="0" stop-color="#fff" stop-opacity="0"/><stop offset="1" stop-color="snow"/></linearGradient><linearGradient id="linear-gradient-3" x1="26.19" y1="27.89" x2="23.72" y2="25.8" gradientTransform="translate(15.62 -9.15) rotate(25.95)" xlink:href="#linear-gradient-2"/><linearGradient id="linear-gradient-4" x1="22.39" y1="22.58" x2="24.6" y2="22.58" xlink:href="#linear-gradient"/><linearGradient id="linear-gradient-5" x1="24.32" y1="20.19" x2="28.84" y2="22.39" xlink:href="#linear-gradient-2"/><radialGradient id="radial-gradient-2" cx="22.65" cy="18.04" r="3.03" gradientTransform="translate(15.62 -9.15) rotate(25.95)" xlink:href="#linear-gradient"/><linearGradient id="linear-gradient-6" x1="27.36" y1="19.69" x2="29.08" y2="16.14" xlink:href="#linear-gradient-2"/><linearGradient id="linear-gradient-7" x1="26.99" y1="32.53" x2="22.51" y2="24.09" gradientTransform="translate(15.62 -9.15) rotate(25.95)" xlink:href="#linear-gradient-2"/><linearGradient id="linear-gradient-8" x1="23.52" y1="18.75" x2="23.05" y2="17.48" gradientTransform="translate(46.46 -6.18) rotate(90)" xlink:href="#linear-gradient-2"/><linearGradient id="linear-gradient-9" x1="28.88" y1="9.25" x2="22.91" y2="6.35" gradientUnits="userSpaceOnUse"><stop offset="0" stop-color="#4e9a06" stop-opacity="0.1"/><stop offset="1" stop-color="#4e9a06"/></linearGradient></defs><title>6-Wire Elasticity</title><g id="shadow"><ellipse class="cls-1" cx="24" cy="40.17" rx="21.72" ry="7"/></g><g id="ART"><path class="cls-2" d="M29.11-2.41c-2.36-.25-4.83,1-6.6,2.5a5.62,5.62,0,0,0-2,5.79,5.27,5.27,0,0,0,4.78,3.85c2.06.16,4.59-1.1,4.75-3.38a3.35,3.35,0,0,0-1.55-2.86,5.11,5.11,0,0,0-3.49-.66,13.74,13.74,0,0,0-6.36,2.43A7.61,7.61,0,0,0,15.2,10.2,4.29,4.29,0,0,0,18.31,15c2.56.7,5.24-.41,7.5-1.52.69-.33,2.37-1,2.56.2s-.65,2.23-1.33,3.11a1,1,0,0,0,.37,1.43,1.08,1.08,0,0,0,1.44-.37c1.13-1.47,2.14-3.32,1.4-5.2-.83-2.09-3.28-2-5-1.21s-3.49,1.72-5.49,1.66a2.32,2.32,0,0,1-2.5-2.53A5.56,5.56,0,0,1,20,6.9a11.92,11.92,0,0,1,5.16-2,3,3,0,0,1,2.45.52A1,1,0,0,1,27.53,7a3.19,3.19,0,0,1-4.14-.28,3.31,3.31,0,0,1,.06-4.64A7.38,7.38,0,0,1,29.11-.31a1.06,1.06,0,0,0,1.05-1,1.07,1.07,0,0,0-1.05-1Z"/><path class="cls-3" d="M29.11-1.71A8.61,8.61,0,0,0,23,.59,4.92,4.92,0,0,0,21.23,5.7,4.56,4.56,0,0,0,25.34,9c1.64.13,3.92-.78,4.05-2.68a2.65,2.65,0,0,0-1.2-2.26,4.52,4.52,0,0,0-3.14-.56,13.05,13.05,0,0,0-6,2.34,6.88,6.88,0,0,0-3.17,4.52,3.58,3.58,0,0,0,2.62,3.95c2.37.65,4.88-.42,7-1.44,1.12-.55,3.24-1.18,3.59.62.27,1.39-.6,2.6-1.41,3.64-.27.36.34.71.61.35,1-1.28,2-3,1.33-4.65s-2.68-1.37-4-.8c-1.88.83-3.71,1.82-5.84,1.76a3,3,0,0,1-3.18-3.41A6.34,6.34,0,0,1,19.65,6.3a12.26,12.26,0,0,1,5.51-2.09,3.6,3.6,0,0,1,2.95.72A1.69,1.69,0,0,1,28,7.51a3.88,3.88,0,0,1-5.13-.28A4,4,0,0,1,23,1.6,8.06,8.06,0,0,1,29.11-1c.45.05.45-.66,0-.7Z"/><path class="cls-4" d="M26,22.43a26.14,26.14,0,0,1,5.21,3.16,1.13,1.13,0,0,1,.22,1.49L26.53,37.22a1.21,1.21,0,0,1-1.36.56,36.21,36.21,0,0,1-5.54-2.2,36,36,0,0,1-5.16-3,1.21,1.21,0,0,1-.4-1.41L19,21a1.13,1.13,0,0,1,1.31-.74A26.13,26.13,0,0,1,26,22.43"/><path class="cls-5" d="M26,22.43a26.14,26.14,0,0,1,5.21,3.16,1.13,1.13,0,0,1,.22,1.49L26.53,37.22a1.21,1.21,0,0,1-1.36.56,36.21,36.21,0,0,1-5.54-2.2,36,36,0,0,1-5.16-3,1.21,1.21,0,0,1-.4-1.41L19,21a1.13,1.13,0,0,1,1.31-.74A26.13,26.13,0,0,1,26,22.43"/><path class="cls-6" d="M19.61,21.49a.94.94,0,0,1,.12-.59h0c-.33.56,0,.09-1,2l-4.1,8.43A4.29,4.29,0,0,0,15.79,33l5.09-10.46A12.52,12.52,0,0,1,19.61,21.49Z"/><path class="cls-7" d="M26.53,37.22l.11-.22s-.53.39-.71,0c0,0-.57.59-6-2s-5.33-3.55-5.33-3.55c-.45.13-.44-.42-.44-.42l-.11.22a1.21,1.21,0,0,0,.4,1.41,36,36,0,0,0,5.16,3,36.21,36.21,0,0,0,5.54,2.2A1.21,1.21,0,0,0,26.53,37.22Z"/><path class="cls-8" d="M24.85,24.84l-.6-.31-4.9,10.09,1.2.58,4.9-10.08Z"/><path class="cls-7" d="M30.72,26.89s-.31,0-1.11-.22a13.39,13.39,0,0,0-1.56,2l-3.9,8a6.22,6.22,0,0,0,1.72.36l4.7-9.67.28-.56Z"/><path class="cls-9" d="M30.72,26.89s-.19,0-.65-.11L25.12,37a3.78,3.78,0,0,0,.76.1l4.71-9.67.29-.6A.85.85,0,0,1,30.72,26.89Z"/><path class="cls-10" d="M23.28,22.94a20.69,20.69,0,0,0,2.63,1.74c1,.5,1.48.72,1.74.61s-.25-.48-1.06-.87S23.28,22.94,23.28,22.94Z"/><path class="cls-11" d="M27.55,19.28l.9.44a.49.49,0,0,1,.21.69,5.26,5.26,0,0,0-.53,1.49,4.15,4.15,0,0,0,.1,1.43.75.75,0,0,1,0,.41l-.13.25a.38.38,0,0,1-.32.16,10.61,10.61,0,0,1-2.14-.86h0a10,10,0,0,1-2-1.15.35.35,0,0,1-.08-.35l.12-.26a.75.75,0,0,1,.29-.28,4.22,4.22,0,0,0,1.19-.8A5.58,5.58,0,0,0,26,19.11a.49.49,0,0,1,.67-.26l.89.43Z"/><path class="cls-7" d="M27.19,19.05a2.69,2.69,0,0,1,.72.35l-.32.66-.74,1-.37-.18.41-1.21Z"/><path class="cls-7" d="M26.43,18.8a.57.57,0,0,1,.23.05l.89.43h0l.9.44a.49.49,0,0,1,.21.69,5.26,5.26,0,0,0-.53,1.49,4.15,4.15,0,0,0,.1,1.43.75.75,0,0,1,0,.41l-.13.25a.38.38,0,0,1-.27.16h-.05a10.61,10.61,0,0,1-2.14-.86h0a10,10,0,0,1-2-1.15.35.35,0,0,1-.08-.35l.12-.26a.75.75,0,0,1,.29-.28,4.22,4.22,0,0,0,1.19-.8A5.58,5.58,0,0,0,26,19.11a.48.48,0,0,1,.44-.31m0-.35h0a.82.82,0,0,0-.75.5,5.42,5.42,0,0,1-.79,1.26,3.34,3.34,0,0,1-1,.66l-.13.08a1,1,0,0,0-.44.43l-.13.25v.06a.7.7,0,0,0,.19.72,11.29,11.29,0,0,0,2.06,1.2,11,11,0,0,0,2.22.88h.12a.75.75,0,0,0,.56-.31l0,0v0l.12-.25a1.05,1.05,0,0,0,.07-.61l0-.16A3.48,3.48,0,0,1,28.47,22a5.74,5.74,0,0,1,.5-1.39.82.82,0,0,0,0-.88.84.84,0,0,0-.33-.27L27.71,19l-.9-.44a1,1,0,0,0-.38-.08Z"/><path class="cls-12" d="M26.43,19.15h.07l.9.44.9.44a.18.18,0,0,1,.06.05s0,.06,0,.16a6.07,6.07,0,0,0-.56,1.6,4.19,4.19,0,0,0,.08,1.4l0,.14a.39.39,0,0,1,0,.19h0l-.11.21a10.34,10.34,0,0,1-2-.81,11.29,11.29,0,0,1-1.89-1.08l.1-.21a.4.4,0,0,1,.15-.13l.12-.06a4.17,4.17,0,0,0,1.16-.81,5.72,5.72,0,0,0,.9-1.43c.06-.11.1-.11.13-.11m0-.35a.48.48,0,0,0-.44.31,5.58,5.58,0,0,1-.85,1.34,4.22,4.22,0,0,1-1.19.8.75.75,0,0,0-.29.28l-.12.26a.35.35,0,0,0,.08.35,10,10,0,0,0,2,1.15h0a10.61,10.61,0,0,0,2.14.86h.05a.38.38,0,0,0,.27-.16l.13-.25a.75.75,0,0,0,0-.41,4.15,4.15,0,0,1-.1-1.43,5.26,5.26,0,0,1,.53-1.49.49.49,0,0,0-.21-.69l-.9-.44h0l-.89-.43a.57.57,0,0,0-.23-.05Z"/><rect class="cls-7" x="25.8" y="21.49" width="0.92" height="0.92" transform="translate(12.25 -9.28) rotate(25.95)"/><path class="cls-13" d="M26,19.05l2.64,1.28A2.25,2.25,0,1,0,26,19.05Z"/><path class="cls-7" d="M29.59,18.81a1.6,1.6,0,0,1-1,.85l-1.9-.93a1.61,1.61,0,0,1,0-1.34,2.56,2.56,0,0,0,.4,1l1.41.69S28.84,19.3,29.59,18.81Z"/><path class="cls-7" d="M28.1,15.92a2.24,2.24,0,0,1,.58,4.41L26,19.05a2.24,2.24,0,0,1,2.06-3.13m0-.35a2.58,2.58,0,0,0-2.38,3.62l.05.12.12.05,2.63,1.29.12.05.13,0a2.59,2.59,0,0,0,.47-4.84,2.64,2.64,0,0,0-1.14-.26Z"/><path class="cls-14" d="M28.1,16.27a1.84,1.84,0,0,1,.83.19,1.89,1.89,0,0,1-.22,3.5l-2.39-1.17a1.83,1.83,0,0,1,.07-1.45,1.89,1.89,0,0,1,1.71-1.07m0-.35A2.24,2.24,0,0,0,26,19.05l2.64,1.28a2.24,2.24,0,0,0-.58-4.41Z"/><path class="cls-9" d="M28.1,15.92a2.24,2.24,0,0,1,.58,4.41h0s0,.05,0,.08a5.26,5.26,0,0,0-.53,1.49,4.15,4.15,0,0,0,.1,1.43.69.69,0,0,1,0,.25,15.19,15.19,0,0,1,3,2,1.13,1.13,0,0,1,.22,1.49c-.15.32-4.81,9.9-4.93,10.14a1.12,1.12,0,0,1-1.07.58l-.29,0a36.21,36.21,0,0,1-5.54-2.2,36,36,0,0,1-5.16-3,1.21,1.21,0,0,1-.4-1.41L19,21a1.11,1.11,0,0,1,1.19-.75h.12a14.8,14.8,0,0,1,3.44,1.13.64.64,0,0,1,.19-.16,4.22,4.22,0,0,0,1.19-.8A5.58,5.58,0,0,0,26,19.11s0,0,.05-.06h0a2.24,2.24,0,0,1,2.06-3.13m0-.7A2.94,2.94,0,0,0,25.27,19a4.39,4.39,0,0,1-.63,1,3.13,3.13,0,0,1-.88.6l-.1.05a12.46,12.46,0,0,0-3.31-1H20.2a1.8,1.8,0,0,0-1.81,1.11l-4,8.17-1,2A1.91,1.91,0,0,0,14,33.08a35.64,35.64,0,0,0,5.33,3.13,35.55,35.55,0,0,0,5.75,2.26l.39,0a1.84,1.84,0,0,0,1.7-1l4.93-10.14a1.83,1.83,0,0,0-.32-2.26,12.64,12.64,0,0,0-2.86-2l0-.11A3.22,3.22,0,0,1,28.82,22a4.68,4.68,0,0,1,.38-1.11,2.93,2.93,0,0,0,1.55-1.43,3,3,0,0,0-1.36-4,3,3,0,0,0-1.29-.29Z"/><path class="cls-15" d="M25.42,23.67a27.06,27.06,0,0,0,5.45,2.08.7.7,0,0,1,.28.59.83.83,0,0,1-.43.55s-1.47,0-5.87-2.05-5.22-3.39-5.24-3.35a.84.84,0,0,1,.18-.68.66.66,0,0,1,.63-.14A27.49,27.49,0,0,0,25.42,23.67Z"/><path class="cls-7" d="M29.42,17.35a.76.76,0,0,1-1,.23.76.76,0,0,1-.46-1,3.2,3.2,0,0,0-.33,1.18,1.38,1.38,0,0,0,.5.38h0a1.39,1.39,0,0,0,.61.16,3.3,3.3,0,0,0,.73-1Z"/><ellipse class="cls-16" cx="28.67" cy="16.99" rx="0.66" ry="0.84" transform="translate(0.85 35.33) rotate(-64.05)"/><line class="cls-17" x1="20.76" y1="4.43" x2="21.88" y2="3.95"/><line class="cls-17" x1="21.16" y1="5.81" x2="22.26" y2="5.29"/><path class="cls-18" d="M21,6.08l1.1-.5A3.67,3.67,0,0,0,25.2,8.13c2.49.3,3.2-1.27,3.2-1.27s-.27.94.52.94c0,0-.6,1.32-3.31,1.51s-4.47-2.93-4.47-2.93"/></g></svg>