<?xml version="1.0" encoding="UTF-8" standalone="no"?>
<!-- Created with Inkscape (http://www.inkscape.org/) -->

<svg
   xmlns:dc="http://purl.org/dc/elements/1.1/"
   xmlns:cc="http://creativecommons.org/ns#"
   xmlns:rdf="http://www.w3.org/1999/02/22-rdf-syntax-ns#"
   xmlns:svg="http://www.w3.org/2000/svg"
   xmlns="http://www.w3.org/2000/svg"
   xmlns:xlink="http://www.w3.org/1999/xlink"
   xmlns:sodipodi="http://sodipodi.sourceforge.net/DTD/sodipodi-0.dtd"
   xmlns:inkscape="http://www.inkscape.org/namespaces/inkscape"
   width="16"
   height="16"
   id="svg1306"
   sodipodi:version="0.32"
   inkscape:version="0.48.4 r9939"
   sodipodi:docname="volume.svg"
   version="1.1">
  <defs
     id="defs1308">
    <linearGradient
       id="linearGradient9073">
      <stop
         id="stop9075"
         offset="0"
         style="stop-color:#74726e;stop-opacity:1;" />
      <stop
         id="stop9077"
         offset="1"
         style="stop-color:#5d5b58;stop-opacity:0;" />
    </linearGradient>
    <linearGradient
       inkscape:collect="always"
       id="linearGradient9061">
      <stop
         style="stop-color:#5d5b58;stop-opacity:1;"
         offset="0"
         id="stop9063" />
      <stop
         style="stop-color:#5d5b58;stop-opacity:0;"
         offset="1"
         id="stop9065" />
    </linearGradient>
    <linearGradient
       inkscape:collect="always"
       id="linearGradient9035">
      <stop
         style="stop-color:#888a85;stop-opacity:1;"
         offset="0"
         id="stop9037" />
      <stop
         style="stop-color:#51534f;stop-opacity:1"
         offset="1"
         id="stop9039" />
    </linearGradient>
    <linearGradient
       id="linearGradient9027">
      <stop
         style="stop-color:#2e3436;stop-opacity:0.61855668;"
         offset="0"
         id="stop9029" />
      <stop
         style="stop-color:#2e3436;stop-opacity:0;"
         offset="1"
         id="stop9031" />
    </linearGradient>
    <linearGradient
       inkscape:collect="always"
       id="linearGradient6549">
      <stop
         style="stop-color:#ffffff;stop-opacity:1;"
         offset="0"
         id="stop6551" />
      <stop
         style="stop-color:#ffffff;stop-opacity:0;"
         offset="1"
         id="stop6553" />
    </linearGradient>
    <linearGradient
       inkscape:collect="always"
       id="linearGradient6527">
      <stop
         style="stop-color:#ffffff;stop-opacity:1;"
         offset="0"
         id="stop6530" />
      <stop
         style="stop-color:#ffffff;stop-opacity:0;"
         offset="1"
         id="stop6532" />
    </linearGradient>
    <linearGradient
       inkscape:collect="always"
       id="linearGradient6538">
      <stop
         style="stop-color:#ffffff;stop-opacity:1;"
         offset="0"
         id="stop6540" />
      <stop
         style="stop-color:#ffffff;stop-opacity:0;"
         offset="1"
         id="stop6542" />
    </linearGradient>
    <linearGradient
       inkscape:collect="always"
       id="linearGradient6513">
      <stop
         style="stop-color:#ffffff;stop-opacity:1;"
         offset="0"
         id="stop6515" />
      <stop
         style="stop-color:#ffffff;stop-opacity:0;"
         offset="1"
         id="stop6517" />
    </linearGradient>
    <linearGradient
       inkscape:collect="always"
       id="linearGradient6497">
      <stop
         style="stop-color:#ffffff;stop-opacity:1;"
         offset="0"
         id="stop6499" />
      <stop
         style="stop-color:#ffffff;stop-opacity:0;"
         offset="1"
         id="stop6501" />
    </linearGradient>
    <linearGradient
       inkscape:collect="always"
       id="linearGradient6470">
      <stop
         style="stop-color:#ffffff;stop-opacity:1;"
         offset="0"
         id="stop6472" />
      <stop
         style="stop-color:#ffffff;stop-opacity:0;"
         offset="1"
         id="stop6474" />
    </linearGradient>
    <linearGradient
       inkscape:collect="always"
       xlink:href="#linearGradient6497"
       id="linearGradient7996"
       gradientUnits="userSpaceOnUse"
       x1="287.5173"
       y1="-439.75281"
       x2="289.67633"
       y2="-436.32199" />
    <linearGradient
       inkscape:collect="always"
       xlink:href="#linearGradient6513"
       id="linearGradient7998"
       gradientUnits="userSpaceOnUse"
       x1="286.51172"
       y1="-441.29074"
       x2="289.85379"
       y2="-436.14453" />
    <linearGradient
       inkscape:collect="always"
       xlink:href="#linearGradient6538"
       id="linearGradient8000"
       gradientUnits="userSpaceOnUse"
       x1="285.94086"
       y1="-439.939"
       x2="289.39124"
       y2="-436.4429" />
    <linearGradient
       inkscape:collect="always"
       xlink:href="#linearGradient6527"
       id="linearGradient8002"
       gradientUnits="userSpaceOnUse"
       x1="275.94193"
       y1="-437.10501"
       x2="279.97546"
       y2="-431.91833" />
    <linearGradient
       inkscape:collect="always"
       xlink:href="#linearGradient6549"
       id="linearGradient8004"
       gradientUnits="userSpaceOnUse"
       x1="286.66589"
       y1="-439.48358"
       x2="289.76562"
       y2="-436.70703" />
    <linearGradient
       inkscape:collect="always"
       xlink:href="#linearGradient6538"
       id="linearGradient8006"
       gradientUnits="userSpaceOnUse"
       x1="284.80219"
       y1="-441.23294"
       x2="288.89954"
       y2="-436.83109" />
    <linearGradient
       inkscape:collect="always"
       xlink:href="#linearGradient6538"
       id="linearGradient8089"
       gradientUnits="userSpaceOnUse"
       x1="286.41476"
       y1="-435.78354"
       x2="290.07755"
       y2="-439.28937" />
    <linearGradient
       inkscape:collect="always"
       xlink:href="#linearGradient6549"
       id="linearGradient8091"
       gradientUnits="userSpaceOnUse"
       x1="286.2952"
       y1="-435.6282"
       x2="289.39493"
       y2="-438.18988" />
    <linearGradient
       inkscape:collect="always"
       xlink:href="#linearGradient6470"
       id="linearGradient8093"
       gradientUnits="userSpaceOnUse"
       x1="276.61383"
       y1="-431.00018"
       x2="283.46283"
       y2="-438.72214" />
    <linearGradient
       inkscape:collect="always"
       xlink:href="#linearGradient6538"
       id="linearGradient8095"
       gradientUnits="userSpaceOnUse"
       x1="286.01407"
       y1="-435.54623"
       x2="288.375"
       y2="-438.97083" />
    <linearGradient
       inkscape:collect="always"
       xlink:href="#linearGradient6513"
       id="linearGradient8097"
       gradientUnits="userSpaceOnUse"
       x1="287.14722"
       y1="-434.80862"
       x2="289.4725"
       y2="-437.59375" />
    <linearGradient
       inkscape:collect="always"
       xlink:href="#linearGradient6497"
       id="linearGradient8099"
       gradientUnits="userSpaceOnUse"
       x1="286.24631"
       y1="-434.73236"
       x2="290.12119"
       y2="-439.69016" />
    <linearGradient
       inkscape:collect="always"
       xlink:href="#linearGradient6470"
       id="linearGradient8130"
       gradientUnits="userSpaceOnUse"
       gradientTransform="matrix(0.50611423,0,0,0.44835724,-133.92561,232.29536)"
       x1="271.0217"
       y1="-441.05182"
       x2="285.02859"
       y2="-431.96991" />
    <linearGradient
       inkscape:collect="always"
       xlink:href="#linearGradient6538"
       id="linearGradient9023"
       gradientUnits="userSpaceOnUse"
       x1="286.41476"
       y1="-435.78354"
       x2="288.375"
       y2="-437.8876" />
    <radialGradient
       inkscape:collect="always"
       xlink:href="#linearGradient9027"
       id="radialGradient9033"
       cx="23.334522"
       cy="44.420273"
       fx="23.334522"
       fy="44.420273"
       r="18.561552"
       gradientTransform="matrix(1,0,0,0.192857,0,35.85351)"
       gradientUnits="userSpaceOnUse" />
    <linearGradient
       inkscape:collect="always"
       xlink:href="#linearGradient9035"
       id="linearGradient9041"
       x1="20.730019"
       y1="29.8146"
       x2="23.295853"
       y2="45.055626"
       gradientUnits="userSpaceOnUse"
       gradientTransform="matrix(0.34482919,0,0,0.34483477,-0.21501402,32.105903)" />
    <linearGradient
       inkscape:collect="always"
       xlink:href="#linearGradient9061"
       id="linearGradient9067"
       x1="29.123692"
       y1="38.897343"
       x2="27.355925"
       y2="34.879128"
       gradientUnits="userSpaceOnUse"
       gradientTransform="matrix(0.34868143,0,0,0.34868143,-0.30746865,32.018266)" />
    <linearGradient
       inkscape:collect="always"
       xlink:href="#linearGradient9073"
       id="linearGradient9071"
       gradientUnits="userSpaceOnUse"
       x1="29.123692"
       y1="38.897343"
       x2="27.355925"
       y2="34.879128"
       gradientTransform="matrix(0.31967706,-0.13923093,0.13923093,0.31967706,-1.730229,34.798075)" />
  </defs>
  <sodipodi:namedview
     id="base"
     pagecolor="#ffffff"
     bordercolor="#666666"
     borderopacity="1.0"
     inkscape:pageopacity="0.0"
     inkscape:pageshadow="2"
     inkscape:zoom="16.970563"
     inkscape:cx="26.117226"
     inkscape:cy="24.438019"
     inkscape:current-layer="layer1"
     showgrid="true"
     inkscape:grid-bbox="false"
     inkscape:document-units="px"
     inkscape:window-width="2560"
     inkscape:window-height="1496"
     inkscape:window-x="-8"
     inkscape:window-y="-8"
     inkscape:showpageshadow="false"
     showguides="true"
     inkscape:guide-bbox="true"
     inkscape:window-maximized="1" />
  <metadata
     id="metadata1311">
    <rdf:RDF>
      <cc:Work
         rdf:about="">
        <dc:format>image/svg+xml</dc:format>
        <dc:type
           rdf:resource="http://purl.org/dc/dcmitype/StillImage" />
        <dc:title></dc:title>
        <dc:date>January 2006</dc:date>
        <dc:creator>
          <cc:Agent>
            <dc:title>Ryan Collier (pseudo)</dc:title>
          </cc:Agent>
        </dc:creator>
        <dc:publisher>
          <cc:Agent>
            <dc:title>http://www.tango-project.org</dc:title>
          </cc:Agent>
        </dc:publisher>
        <dc:source>http://www.pseudocode.org</dc:source>
        <dc:subject>
          <rdf:Bag>
            <rdf:li>weather</rdf:li>
            <rdf:li>applet</rdf:li>
            <rdf:li>notify</rdf:li>
          </rdf:Bag>
        </dc:subject>
        <cc:license
           rdf:resource="http://creativecommons.org/licenses/by-sa/2.0/" />
      </cc:Work>
      <cc:License
         rdf:about="http://creativecommons.org/licenses/by-sa/2.0/">
        <cc:permits
           rdf:resource="http://web.resource.org/cc/Reproduction" />
        <cc:permits
           rdf:resource="http://web.resource.org/cc/Distribution" />
        <cc:requires
           rdf:resource="http://web.resource.org/cc/Notice" />
        <cc:requires
           rdf:resource="http://web.resource.org/cc/Attribution" />
        <cc:permits
           rdf:resource="http://web.resource.org/cc/DerivativeWorks" />
        <cc:requires
           rdf:resource="http://web.resource.org/cc/ShareAlike" />
      </cc:License>
    </rdf:RDF>
  </metadata>
  <g
     id="layer1"
     inkscape:label="Layer 1"
     inkscape:groupmode="layer"
     transform="translate(0,-32)">
    <path
       id="path7796"
       style="fill:#c4c5c2;fill-opacity:1;stroke:url(#linearGradient9041);stroke-width:0.52302223;stroke-linecap:butt;stroke-linejoin:miter;stroke-miterlimit:2;stroke-opacity:1;stroke-dasharray:none;stroke-dashoffset:0"
       d="m 14.861913,39.996065 c 0.188567,0.299867 0.54966,1.007854 0.54966,1.374991 0,0.782399 -0.50965,1.44055 -1.23108,1.798217 0.0952,0.240051 0.180558,0.48544 0.180558,0.754091 0,1.280795 -1.176586,2.320275 -2.626306,2.32028 -0.439507,0 -0.834125,-0.121197 -1.198252,-0.290035 -0.319799,0.962786 -1.2857969,1.682203 -2.4785747,1.682203 -1.192779,0 -2.1587767,-0.719417 -2.4785764,-1.682203 -0.3641259,0.168838 -0.758745,0.290035 -1.1982507,0.290035 -1.449721,0 -2.6263115,-1.039481 -2.6263059,-2.32028 0,-0.268656 0.085365,-0.514035 0.1805582,-0.754091 -0.7214303,-0.357667 -1.23108041,-1.015818 -1.23108041,-1.798217 0,-0.416301 0.13811393,-1.396319 0.35051601,-1.746498 -0.22821015,-0.332354 -0.34431223,-0.690232 -0.34431223,-1.07192 0,-0.782399 0.50965013,-1.440551 1.23108043,-1.798217 C 1.8463543,36.514365 1.760989,36.268985 1.760989,36.00033 c -5.5e-6,-1.280799 1.1765847,-2.32028 2.6263052,-2.32028 0.439507,0 0.834125,0.121198 1.198252,0.290035 0.3197997,-0.962786 1.2857974,-1.682203 2.4785758,-1.682203 1.1927784,0 2.158776,0.719417 2.478576,1.682203 0.364126,-0.168837 0.758744,-0.290035 1.198251,-0.290035 1.449721,5e-6 2.626306,1.039486 2.626306,2.32028 0,0.268651 -0.08536,0.514039 -0.180559,0.754091 0.72143,0.357666 1.23108,1.015818 1.23108,1.798217 0,0.356959 -0.376918,1.149453 -0.555863,1.443427 z"
       sodipodi:nodetypes="cscsscccsscscscsscccsscsc"
       inkscape:connector-curvature="0" />
    <g
       id="g7800"
       transform="matrix(0.53112863,0,0,0.4692328,-140.91127,241.26038)">
      <path
         transform="matrix(1.056604,0,0,1.056604,-24.19818,21.86331)"
         d="m 291.6875,-437.59375 c 0,1.82944 -1.48306,3.3125 -3.3125,3.3125 -1.82944,0 -3.3125,-1.48306 -3.3125,-3.3125 0,-1.82944 1.48306,-3.3125 3.3125,-3.3125 1.82944,0 3.3125,1.48306 3.3125,3.3125 z"
         sodipodi:ry="3.3125"
         sodipodi:rx="3.3125"
         sodipodi:cy="-437.59375"
         sodipodi:cx="288.375"
         id="path7802"
         style="fill:#c4c5c2;fill-opacity:1;stroke:none"
         sodipodi:type="arc" />
      <path
         transform="matrix(1.056604,0,0,1.056604,-24.19818,21.86331)"
         d="m 291.6875,-437.59375 c 0,1.82944 -1.48306,3.3125 -3.3125,3.3125 -1.82944,0 -3.3125,-1.48306 -3.3125,-3.3125 0,-1.82944 1.48306,-3.3125 3.3125,-3.3125 1.82944,0 3.3125,1.48306 3.3125,3.3125 z"
         sodipodi:ry="3.3125"
         sodipodi:rx="3.3125"
         sodipodi:cy="-437.59375"
         sodipodi:cx="288.375"
         id="path7804"
         style="fill:url(#linearGradient7996);fill-opacity:1;stroke:none"
         sodipodi:type="arc" />
    </g>
    <rect
       style="fill:#c4c5c2;fill-opacity:1;stroke:none"
       id="rect7806"
       width="10.622579"
       height="4.2230935"
       x="3.0247035"
       y="35.736546" />
    <path
       sodipodi:type="arc"
       style="fill:#c4c5c2;fill-opacity:1;stroke:none"
       id="path7808"
       sodipodi:cx="288.375"
       sodipodi:cy="-437.59375"
       sodipodi:rx="3.3125"
       sodipodi:ry="3.3125"
       d="m 291.6875,-437.59375 a 3.3125,3.3125 0 1 1 -6.625,0 3.3125,3.3125 0 1 1 6.625,0 z"
       transform="matrix(0.48102277,0,0,0.42496525,-135.69018,224.51412)" />
    <g
       id="g7810"
       transform="matrix(0.53112863,0,0,0.4692328,-140.91127,241.26038)">
      <path
         transform="matrix(1.056604,0,0,1.056604,-17.19811,24.86321)"
         d="m 291.6875,-437.59375 c 0,1.82944 -1.48306,3.3125 -3.3125,3.3125 -1.82944,0 -3.3125,-1.48306 -3.3125,-3.3125 0,-1.82944 1.48306,-3.3125 3.3125,-3.3125 1.82944,0 3.3125,1.48306 3.3125,3.3125 z"
         sodipodi:ry="3.3125"
         sodipodi:rx="3.3125"
         sodipodi:cy="-437.59375"
         sodipodi:cx="288.375"
         id="path7812"
         style="fill:#c4c5c2;fill-opacity:1;stroke:none"
         sodipodi:type="arc" />
      <path
         transform="matrix(1.056604,0,0,1.056604,-17.19818,24.86331)"
         d="m 291.6875,-437.59375 c 0,1.82944 -1.48306,3.3125 -3.3125,3.3125 -1.82944,0 -3.3125,-1.48306 -3.3125,-3.3125 0,-1.82944 1.48306,-3.3125 3.3125,-3.3125 1.82944,0 3.3125,1.48306 3.3125,3.3125 z"
         sodipodi:ry="3.3125"
         sodipodi:rx="3.3125"
         sodipodi:cy="-437.59375"
         sodipodi:cx="288.375"
         id="path7814"
         style="fill:url(#linearGradient7998);fill-opacity:1;stroke:none"
         sodipodi:type="arc" />
    </g>
    <g
       id="g7816"
       transform="matrix(0.53112863,0,0,0.4692328,-140.91127,241.26038)">
      <path
         transform="matrix(1.056604,0,0,1.056604,-31.19818,24.86331)"
         d="m 291.6875,-437.59375 c 0,1.82944 -1.48306,3.3125 -3.3125,3.3125 -1.82944,0 -3.3125,-1.48306 -3.3125,-3.3125 0,-1.82944 1.48306,-3.3125 3.3125,-3.3125 1.82944,0 3.3125,1.48306 3.3125,3.3125 z"
         sodipodi:ry="3.3125"
         sodipodi:rx="3.3125"
         sodipodi:cy="-437.59375"
         sodipodi:cx="288.375"
         id="path7818"
         style="fill:#c4c5c2;fill-opacity:1;stroke:none"
         sodipodi:type="arc" />
      <path
         transform="matrix(1.056604,0,0,1.056604,-31.19818,24.86331)"
         d="m 291.6875,-437.59375 c 0,1.82944 -1.48306,3.3125 -3.3125,3.3125 -1.82944,0 -3.3125,-1.48306 -3.3125,-3.3125 0,-1.82944 1.48306,-3.3125 3.3125,-3.3125 1.82944,0 3.3125,1.48306 3.3125,3.3125 z"
         sodipodi:ry="3.3125"
         sodipodi:rx="3.3125"
         sodipodi:cy="-437.59375"
         sodipodi:cx="288.375"
         id="path7820"
         style="fill:url(#linearGradient8000);fill-opacity:1;stroke:none"
         sodipodi:type="arc" />
    </g>
    <g
       id="g7822"
       transform="matrix(0.53112863,0,0,0.4692328,-141.44238,241.26038)">
      <path
         id="path7824"
         d="m 280.46875,-440.96875 c -3.57938,0 -6.46875,2.92063 -6.46875,6.5 0,2.37068 1.34943,4.33779 3.25,5.46875 l 6.46875,0 c 1.90057,-1.13096 3.25,-3.12931 3.25,-5.5 0,-3.57938 -2.92063,-6.46875 -6.5,-6.46875 z"
         style="fill:#c4c5c2;fill-opacity:1;stroke:none"
         inkscape:connector-curvature="0" />
      <path
         id="path7826"
         d="m 280.5,-441 c -3.588,0 -6.5,2.91201 -6.5,6.5 0,2.3764 1.34485,4.36632 3.25,5.5 l 6.5,0 c 1.90515,-1.13368 3.25,-3.1236 3.25,-5.5 0,-3.588 -2.912,-6.49999 -6.5,-6.5 z"
         style="fill:url(#linearGradient8002);fill-opacity:1;stroke:none"
         inkscape:connector-curvature="0" />
    </g>
    <path
       sodipodi:type="arc"
       style="fill:url(#linearGradient8004);fill-opacity:1;stroke:none"
       id="path7828"
       sodipodi:cx="288.375"
       sodipodi:cy="-437.59375"
       sodipodi:rx="3.3125"
       sodipodi:ry="3.3125"
       d="m 291.6875,-437.59375 a 3.3125,3.3125 0 1 1 -6.625,0 3.3125,3.3125 0 1 1 6.625,0 z"
       transform="matrix(0.48102277,0,0,0.42496525,-135.69011,224.51406)" />
    <g
       id="g7832"
       transform="matrix(0.60700452,0,0,0.53626574,-156.08637,272.699)">
      <path
         transform="matrix(1.056604,0,0,1.056604,-31.19818,24.86331)"
         d="m 291.6875,-437.59375 c 0,1.82944 -1.48306,3.3125 -3.3125,3.3125 -1.82944,0 -3.3125,-1.48306 -3.3125,-3.3125 0,-1.82944 1.48306,-3.3125 3.3125,-3.3125 1.82944,0 3.3125,1.48306 3.3125,3.3125 z"
         sodipodi:ry="3.3125"
         sodipodi:rx="3.3125"
         sodipodi:cy="-437.59375"
         sodipodi:cx="288.375"
         id="path7834"
         style="fill:#c4c5c2;fill-opacity:1;stroke:none"
         sodipodi:type="arc" />
      <path
         transform="matrix(1.056604,0,0,1.056604,-31.19818,24.86331)"
         d="m 291.6875,-437.59375 c 0,1.82944 -1.48306,3.3125 -3.3125,3.3125 -1.82944,0 -3.3125,-1.48306 -3.3125,-3.3125 0,-1.82944 1.48306,-3.3125 3.3125,-3.3125 1.82944,0 3.3125,1.48306 3.3125,3.3125 z"
         sodipodi:ry="3.3125"
         sodipodi:rx="3.3125"
         sodipodi:cy="-437.59375"
         sodipodi:cx="288.375"
         id="path7836"
         style="fill:url(#linearGradient8006);fill-opacity:1;stroke:none"
         sodipodi:type="arc" />
    </g>
    <g
       id="g8014"
       transform="matrix(0.53112863,0,0,-0.4692328,-140.91755,-161.30672)">
      <path
         transform="matrix(1.056604,0,0,1.056604,-24.19818,21.86331)"
         d="m 291.6875,-437.59375 c 0,1.82944 -1.48306,3.3125 -3.3125,3.3125 -1.82944,0 -3.3125,-1.48306 -3.3125,-3.3125 0,-1.82944 1.48306,-3.3125 3.3125,-3.3125 1.82944,0 3.3125,1.48306 3.3125,3.3125 z"
         sodipodi:ry="3.3125"
         sodipodi:rx="3.3125"
         sodipodi:cy="-437.59375"
         sodipodi:cx="288.375"
         id="path8016"
         style="fill:#c4c5c2;fill-opacity:1;stroke:none"
         sodipodi:type="arc" />
      <path
         transform="matrix(1.056604,0,0,1.056604,-24.19818,21.86331)"
         d="m 291.6875,-437.59375 c 0,1.82944 -1.48306,3.3125 -3.3125,3.3125 -1.82944,0 -3.3125,-1.48306 -3.3125,-3.3125 0,-1.82944 1.48306,-3.3125 3.3125,-3.3125 1.82944,0 3.3125,1.48306 3.3125,3.3125 z"
         sodipodi:ry="3.3125"
         sodipodi:rx="3.3125"
         sodipodi:cy="-437.59375"
         sodipodi:cx="288.375"
         id="path8018"
         style="fill:url(#linearGradient8099);fill-opacity:1;stroke:none"
         sodipodi:type="arc" />
    </g>
    <rect
       style="fill:#c4c5c2;fill-opacity:1;stroke:none"
       id="rect8020"
       width="10.622579"
       height="4.2230935"
       x="3.01843"
       y="-44.21719"
       transform="scale(1,-1)" />
    <path
       sodipodi:type="arc"
       style="fill:#c4c5c2;fill-opacity:1;stroke:none"
       id="path8022"
       sodipodi:cx="288.375"
       sodipodi:cy="-437.59375"
       sodipodi:rx="3.3125"
       sodipodi:ry="3.3125"
       d="m 291.6875,-437.59375 a 3.3125,3.3125 0 1 1 -6.625,0 3.3125,3.3125 0 1 1 6.625,0 z"
       transform="matrix(0.48102277,0,0,-0.42496525,-135.69639,-144.56046)" />
    <g
       id="g8024"
       transform="matrix(0.53112863,0,0,-0.4692328,-140.91755,-161.30672)">
      <path
         transform="matrix(1.056604,0,0,1.056604,-17.19811,24.86321)"
         d="m 291.6875,-437.59375 c 0,1.82944 -1.48306,3.3125 -3.3125,3.3125 -1.82944,0 -3.3125,-1.48306 -3.3125,-3.3125 0,-1.82944 1.48306,-3.3125 3.3125,-3.3125 1.82944,0 3.3125,1.48306 3.3125,3.3125 z"
         sodipodi:ry="3.3125"
         sodipodi:rx="3.3125"
         sodipodi:cy="-437.59375"
         sodipodi:cx="288.375"
         id="path8026"
         style="fill:#c4c5c2;fill-opacity:1;stroke:none"
         sodipodi:type="arc" />
      <path
         transform="matrix(1.056604,0,0,1.056604,-17.19818,24.86331)"
         d="m 291.6875,-437.59375 c 0,1.82944 -1.48306,3.3125 -3.3125,3.3125 -1.82944,0 -3.3125,-1.48306 -3.3125,-3.3125 0,-1.82944 1.48306,-3.3125 3.3125,-3.3125 1.82944,0 3.3125,1.48306 3.3125,3.3125 z"
         sodipodi:ry="3.3125"
         sodipodi:rx="3.3125"
         sodipodi:cy="-437.59375"
         sodipodi:cx="288.375"
         id="path8028"
         style="fill:url(#linearGradient8097);fill-opacity:1;stroke:none"
         sodipodi:type="arc" />
    </g>
    <g
       id="g8030"
       transform="matrix(0.53112863,0,0,-0.4692328,-140.91755,-161.30672)">
      <path
         transform="matrix(1.056604,0,0,1.056604,-31.19818,24.86331)"
         d="m 291.6875,-437.59375 c 0,1.82944 -1.48306,3.3125 -3.3125,3.3125 -1.82944,0 -3.3125,-1.48306 -3.3125,-3.3125 0,-1.82944 1.48306,-3.3125 3.3125,-3.3125 1.82944,0 3.3125,1.48306 3.3125,3.3125 z"
         sodipodi:ry="3.3125"
         sodipodi:rx="3.3125"
         sodipodi:cy="-437.59375"
         sodipodi:cx="288.375"
         id="path8032"
         style="fill:#c4c5c2;fill-opacity:1;stroke:none"
         sodipodi:type="arc" />
      <path
         transform="matrix(1.056604,0,0,1.056604,-31.19818,24.86331)"
         d="m 291.6875,-437.59375 c 0,1.82944 -1.48306,3.3125 -3.3125,3.3125 -1.82944,0 -3.3125,-1.48306 -3.3125,-3.3125 0,-1.82944 1.48306,-3.3125 3.3125,-3.3125 1.82944,0 3.3125,1.48306 3.3125,3.3125 z"
         sodipodi:ry="3.3125"
         sodipodi:rx="3.3125"
         sodipodi:cy="-437.59375"
         sodipodi:cx="288.375"
         id="path8034"
         style="fill:url(#linearGradient8095);fill-opacity:1;stroke:none"
         sodipodi:type="arc" />
    </g>
    <g
       id="g8036"
       transform="matrix(0.53112863,0,0,-0.4692328,-141.44865,-161.30672)">
      <path
         id="path8038"
         d="m 280.46875,-440.96875 c -3.57938,0 -6.46875,2.92063 -6.46875,6.5 0,2.37068 1.34943,4.33779 3.25,5.46875 l 6.46875,0 c 1.90057,-1.13096 3.25,-3.12931 3.25,-5.5 0,-3.57938 -2.92063,-6.46875 -6.5,-6.46875 z"
         style="fill:#c4c5c2;fill-opacity:1;stroke:none"
         inkscape:connector-curvature="0" />
      <path
         id="path8040"
         d="m 280.5,-441 c -3.588,0 -6.5,2.91201 -6.5,6.5 0,2.3764 1.34485,4.36632 3.25,5.5 l 6.5,0 c 1.90515,-1.13368 3.25,-3.1236 3.25,-5.5 0,-3.588 -2.912,-6.49999 -6.5,-6.5 z"
         style="fill:url(#linearGradient8093);fill-opacity:1;stroke:none"
         inkscape:connector-curvature="0" />
    </g>
    <path
       sodipodi:type="arc"
       style="fill:url(#linearGradient8091);fill-opacity:1;stroke:none"
       id="path8042"
       sodipodi:cx="288.375"
       sodipodi:cy="-437.59375"
       sodipodi:rx="3.3125"
       sodipodi:ry="3.3125"
       d="m 291.6875,-437.59375 a 3.3125,3.3125 0 1 1 -6.625,0 3.3125,3.3125 0 1 1 6.625,0 z"
       transform="matrix(0.48102277,0,0,-0.42496525,-135.69632,-144.56036)" />
    <g
       id="g8046"
       transform="matrix(0.60700452,0,0,-0.53626574,-157.51917,-193.69058)">
      <path
         transform="matrix(1.056604,0,0,1.056604,-31.19818,24.86331)"
         d="m 291.6875,-437.59375 c 0,1.82944 -1.48306,3.3125 -3.3125,3.3125 -1.82944,0 -3.3125,-1.48306 -3.3125,-3.3125 0,-1.82944 1.48306,-3.3125 3.3125,-3.3125 1.82944,0 3.3125,1.48306 3.3125,3.3125 z"
         sodipodi:ry="3.3125"
         sodipodi:rx="3.3125"
         sodipodi:cy="-437.59375"
         sodipodi:cx="288.375"
         id="path8048"
         style="fill:#c4c5c2;fill-opacity:1;stroke:none"
         sodipodi:type="arc" />
      <path
         transform="matrix(1.056604,0,0,1.056604,-31.19818,24.86331)"
         d="m 291.6875,-437.59375 c 0,1.82944 -1.48306,3.3125 -3.3125,3.3125 -1.82944,0 -3.3125,-1.48306 -3.3125,-3.3125 0,-1.82944 1.48306,-3.3125 3.3125,-3.3125 1.82944,0 3.3125,1.48306 3.3125,3.3125 z"
         sodipodi:ry="3.3125"
         sodipodi:rx="3.3125"
         sodipodi:cy="-437.59375"
         sodipodi:cx="288.375"
         id="path8050"
         style="fill:url(#linearGradient8089);fill-opacity:1;stroke:none"
         sodipodi:type="arc" />
    </g>
    <g
       id="g9017"
       transform="matrix(0.60700452,0,0,-0.53626574,-154.16294,-194.72341)">
      <path
         transform="matrix(1.056604,0,0,1.056604,-31.19818,24.86331)"
         d="m 291.6875,-437.59375 c 0,1.82944 -1.48306,3.3125 -3.3125,3.3125 -1.82944,0 -3.3125,-1.48306 -3.3125,-3.3125 0,-1.82944 1.48306,-3.3125 3.3125,-3.3125 1.82944,0 3.3125,1.48306 3.3125,3.3125 z"
         sodipodi:ry="3.3125"
         sodipodi:rx="3.3125"
         sodipodi:cy="-437.59375"
         sodipodi:cx="288.375"
         id="path9019"
         style="fill:#c4c5c2;fill-opacity:1;stroke:none"
         sodipodi:type="arc" />
      <path
         transform="matrix(1.056604,0,0,1.056604,-31.19818,24.86331)"
         d="m 291.6875,-437.59375 c 0,1.82944 -1.48306,3.3125 -3.3125,3.3125 -1.82944,0 -3.3125,-1.48306 -3.3125,-3.3125 0,-1.82944 1.48306,-3.3125 3.3125,-3.3125 1.82944,0 3.3125,1.48306 3.3125,3.3125 z"
         sodipodi:ry="3.3125"
         sodipodi:rx="3.3125"
         sodipodi:cy="-437.59375"
         sodipodi:cx="288.375"
         id="path9021"
         style="fill:url(#linearGradient9023);fill-opacity:1;stroke:none"
         sodipodi:type="arc" />
    </g>
    <path
       id="path7798"
       style="fill:url(#linearGradient8130);fill-opacity:1;stroke:#ffffff;stroke-width:0.34868121;stroke-linecap:butt;stroke-linejoin:miter;stroke-miterlimit:2;stroke-opacity:0.50196078;stroke-dashoffset:0"
       d="m 1.6127374,39.705518 c -0.3462584,0.341455 -0.4117968,1.227687 -0.4117968,1.734398 0,0.664488 0.5630014,1.247155 1.2333146,1.573536 -0.088444,0.219055 -0.2236825,0.510335 -0.2236825,0.755484 -5.1e-6,1.168743 0.9624272,2.068742 2.3372914,2.068742 0.4083636,0 0.922651,-0.250288 1.2609675,-0.404353 0.3400842,1.124369 1.081729,1.815414 2.1899768,1.815414 1.1082541,0 1.953297,-0.719794 2.2816896,-1.80551 0.338317,0.154065 0.968935,0.404358 1.377302,0.404358 1.346983,-5e-6 2.209782,-0.909912 2.209782,-2.078651 0,-0.245143 -0.146423,-0.587958 -0.234871,-0.807007 0.670312,-0.326382 1.233313,-0.808063 1.233313,-1.522013 0,-0.467726 -0.295633,-0.865553 -0.613835,-1.417524 0.307578,-0.558416 0.619812,-1.037644 0.619812,-1.529488 0,-0.713952 -0.563001,-1.195632 -1.233314,-1.522013 0.08845,-0.21905 0.234873,-0.561864 0.234873,-0.807008 0,-1.168738 -1.070842,-2.047932 -2.417824,-2.047936 -0.408368,0 -0.830943,0.219579 -1.16926,0.373643 -0.3283932,-1.085716 -1.1387625,-1.713367 -2.2470151,-1.713367 -1.1082488,0 -1.8845676,0.598903 -2.2246514,1.723271 -0.3383164,-0.154064 -0.7832568,-0.373639 -1.1916198,-0.373639 -1.3748644,0 -2.4066444,0.869285 -2.4066394,2.038028 0,0.245148 0.135239,0.597858 0.2236826,0.816912 -0.6703132,0.326382 -1.2333147,0.84762 -1.2333147,1.512109 0,0.491846 0.07911,0.874445 0.4058192,1.212614 z"
       sodipodi:nodetypes="cscsscccsscscscsscccsscss"
       inkscape:connector-curvature="0" />
    <path
       style="fill:#888a85;fill-opacity:1;fill-rule:evenodd;stroke:none"
       d="m 14.531358,36.346992 c -7.86e-4,1.229981 -1.695455,1.701614 -1.695455,1.701614 0,0 1.218068,-0.744957 1.211901,-1.697517 0,0 0.483554,-0.0041 0.483554,-0.0041 z"
       id="path7830"
       sodipodi:nodetypes="ccss"
       inkscape:connector-curvature="0" />
    <path
       style="fill:url(#linearGradient9067);fill-opacity:1;fill-rule:evenodd;stroke:none"
       d="m 10.782505,46.324646 c -1.3377335,-0.21807 -1.5514706,-2.144677 -1.5514706,-2.144677 0,0 0.5952021,1.456474 1.6324086,1.617984 0,0 -0.08094,0.526693 -0.08094,0.526693 z"
       id="path8044"
       sodipodi:nodetypes="ccss"
       inkscape:connector-curvature="0" />
    <path
       style="fill:url(#linearGradient9071);fill-opacity:1;fill-rule:evenodd;stroke:none"
       d="M 14.149891,43.486103 C 12.836356,43.820339 11.87109,42.13934 11.87109,42.13934 c 0,0 1.127272,1.097652 2.142693,0.831563 0,0 0.136108,0.5152 0.136108,0.5152 z"
       id="path9069"
       sodipodi:nodetypes="ccss"
       inkscape:connector-curvature="0" />
  </g>
</svg>
