<?xml version="1.0" encoding="UTF-8" standalone="no"?>
<svg
   xmlns:dc="http://purl.org/dc/elements/1.1/"
   xmlns:cc="http://creativecommons.org/ns#"
   xmlns:rdf="http://www.w3.org/1999/02/22-rdf-syntax-ns#"
   xmlns:svg="http://www.w3.org/2000/svg"
   xmlns="http://www.w3.org/2000/svg"
   xmlns:sodipodi="http://sodipodi.sourceforge.net/DTD/sodipodi-0.dtd"
   xmlns:inkscape="http://www.inkscape.org/namespaces/inkscape"
   sodipodi:docname="argsort.svg"
   inkscape:version="1.0beta2 (95f4e85, 2020-03-08)"
   width="48.0px"
   height="48.0px"
   viewBox="0 0 48.0 48.0"
   version="1.1"
   id="SVGRoot">
  <defs
     id="defs10" />
  <sodipodi:namedview
     inkscape:snap-global="false"
     inkscape:window-maximized="1"
     inkscape:window-y="-8"
     inkscape:window-x="-8"
     inkscape:window-height="1557"
     inkscape:window-width="2880"
     showgrid="false"
     inkscape:document-rotation="0"
     inkscape:current-layer="layer1"
     inkscape:document-units="px"
     inkscape:cy="22.23118"
     inkscape:cx="29.657244"
     inkscape:zoom="15.893865"
     inkscape:pageshadow="2"
     inkscape:pageopacity="0.0"
     borderopacity="1.0"
     bordercolor="#666666"
     pagecolor="#ffffff"
     id="base">
    <inkscape:grid
       type="xygrid"
       id="grid19" />
  </sodipodi:namedview>
  <metadata
     id="metadata13">
    <rdf:RDF>
      <cc:Work
         rdf:about="">
        <dc:format>image/svg+xml</dc:format>
        <dc:type
           rdf:resource="http://purl.org/dc/dcmitype/StillImage" />
        <dc:title />
      </cc:Work>
    </rdf:RDF>
  </metadata>
  <g
     id="layer1"
     inkscape:groupmode="layer"
     inkscape:label="Layer 1">
    <g
       id="g924">
      <path
         style="font-style:normal;font-variant:normal;font-weight:normal;font-stretch:normal;font-size:16px;line-height:125%;font-family:Tahoma;-inkscape-font-specification:'Tahoma Normal';font-variant-ligatures:normal;font-variant-caps:normal;font-variant-numeric:normal;font-variant-east-asian:normal;letter-spacing:0px;word-spacing:0px;fill:#ffffff;fill-opacity:1;stroke:#2e3436;stroke-width:3;stroke-linecap:butt;stroke-linejoin:bevel;stroke-miterlimit:4;stroke-dasharray:none;stroke-opacity:1"
         inkscape:connector-curvature="0"
         id="path882"
         d="M 9.3315364,26.516504 H 3.659661 v -1.1875 H 5.769036 V 17.53213 H 3.659661 v -1.0625 q 1.1953125,0 1.7578125,-0.335938 0.5703125,-0.34375 0.640625,-1.289062 h 1.2109379 v 10.484374 h 2.0625 z" />
      <path
         style="font-style:normal;font-variant:normal;font-weight:normal;font-stretch:normal;font-size:16px;line-height:125%;font-family:Tahoma;-inkscape-font-specification:'Tahoma Normal';font-variant-ligatures:normal;font-variant-caps:normal;font-variant-numeric:normal;font-variant-east-asian:normal;letter-spacing:0px;word-spacing:0px;fill:#ffffff;fill-opacity:1;stroke:#2e3436;stroke-width:3;stroke-linecap:butt;stroke-linejoin:bevel;stroke-miterlimit:4;stroke-dasharray:none;stroke-opacity:1"
         inkscape:connector-curvature="0"
         id="path884"
         d="M 21.895148,26.390235 H 14.71546 v -1.632812 q 0.773438,-0.734375 1.460938,-1.40625 0.6875,-0.671875 1.34375,-1.398438 1.328125,-1.460937 1.8125,-2.335937 0.484375,-0.882812 0.484375,-1.820312 0,-0.484375 -0.15625,-0.851563 -0.148438,-0.367187 -0.414063,-0.609375 -0.273437,-0.234375 -0.632812,-0.351562 -0.359375,-0.117188 -0.789063,-0.117188 -0.414062,0 -0.84375,0.109375 -0.421875,0.101563 -0.8125,0.257813 -0.328125,0.132812 -0.632812,0.320312 -0.304688,0.1875 -0.492188,0.320313 h -0.08594 v -1.65625 q 0.484375,-0.242188 1.34375,-0.46875 0.867187,-0.234375 1.640625,-0.234375 1.625,0 2.546875,0.867187 0.921875,0.859375 0.921875,2.335938 0,0.679687 -0.164063,1.257812 -0.15625,0.578125 -0.4375,1.070313 -0.289062,0.507812 -0.695312,1.007812 -0.40625,0.5 -0.859375,0.984375 -0.734375,0.796875 -1.640625,1.65625 -0.898438,0.859375 -1.4375,1.359375 h 5.71875 z" />
      <path
         style="font-style:normal;font-variant:normal;font-weight:normal;font-stretch:normal;font-size:16px;line-height:125%;font-family:Tahoma;-inkscape-font-specification:'Tahoma Normal';font-variant-ligatures:normal;font-variant-caps:normal;font-variant-numeric:normal;font-variant-east-asian:normal;letter-spacing:0px;word-spacing:0px;fill:#ffffff;fill-opacity:1;stroke:#2e3436;stroke-width:3;stroke-linecap:butt;stroke-linejoin:bevel;stroke-miterlimit:4;stroke-dasharray:none;stroke-opacity:1"
         inkscape:connector-curvature="0"
         id="path886"
         d="m 29.762811,15.61426 q -0.421875,0 -0.84375,0.101563 -0.421875,0.101562 -0.828125,0.265625 -0.375,0.15625 -0.65625,0.328125 -0.273437,0.171875 -0.492187,0.320312 h -0.09375 v -1.648437 q 0.507812,-0.273438 1.375,-0.492188 0.875,-0.226562 1.664062,-0.226562 0.789063,0 1.375,0.164062 0.59375,0.15625 1.070313,0.492188 0.515625,0.375 0.773437,0.90625 0.265625,0.53125 0.265625,1.242187 0,0.960937 -0.632812,1.6875 -0.632813,0.726562 -1.515625,0.921875 v 0.109375 q 0.367187,0.07031 0.78125,0.242187 0.421875,0.171875 0.78125,0.507813 0.359375,0.335937 0.585937,0.867187 0.226563,0.523438 0.226563,1.28125 0,0.789063 -0.273438,1.453125 -0.265625,0.65625 -0.757812,1.164063 -0.507813,0.53125 -1.226563,0.804687 -0.71875,0.273438 -1.632812,0.273438 -0.875,0 -1.734375,-0.210938 -0.859375,-0.210937 -1.445313,-0.507812 v -1.648438 h 0.109375 q 0.492188,0.359375 1.320313,0.6875 0.828125,0.328125 1.65625,0.328125 0.476562,0 0.953125,-0.148437 0.484375,-0.15625 0.804687,-0.5 0.3125,-0.34375 0.476563,-0.757813 0.164062,-0.414062 0.164062,-1.046875 0,-0.632812 -0.1875,-1.039062 -0.179687,-0.40625 -0.507812,-0.640625 -0.328125,-0.234375 -0.78125,-0.320313 -0.445313,-0.09375 -0.96875,-0.09375 h -0.664063 v -1.296875 h 0.515625 q 1.054688,0 1.710938,-0.5 0.664062,-0.5 0.664062,-1.453125 0,-0.437499 -0.171875,-0.749999 -0.171875,-0.320313 -0.4375,-0.507813 -0.296875,-0.203125 -0.65625,-0.28125 -0.359375,-0.07813 -0.765625,-0.07813 z" />
      <path
         style="font-style:normal;font-variant:normal;font-weight:normal;font-stretch:normal;font-size:16px;line-height:125%;font-family:Tahoma;-inkscape-font-specification:'Tahoma Normal';font-variant-ligatures:normal;font-variant-caps:normal;font-variant-numeric:normal;font-variant-east-asian:normal;letter-spacing:0px;word-spacing:0px;fill:#ffffff;fill-opacity:1;stroke:#2e3436;stroke-width:3;stroke-linecap:butt;stroke-linejoin:bevel;stroke-miterlimit:4;stroke-dasharray:none;stroke-opacity:1"
         inkscape:connector-curvature="0"
         id="path888"
         d="m 45.634481,21.948294 h -1.382812 v 4 h -1.5 v -4 h -5.140625 v -1.640625 l 5.203125,-5.992188 h 1.4375 v 6.382813 h 1.382812 z m -2.882812,-1.25 v -4.546875 l -3.921875,4.546875 z" />
    </g>
    <g
       style="font-variation-settings:normal;opacity:1;vector-effect:none;fill:#feeea6;fill-opacity:1;stroke:#8c6200;stroke-width:1;stroke-linecap:butt;stroke-linejoin:miter;stroke-miterlimit:4;stroke-dasharray:none;stroke-dashoffset:0;stroke-opacity:1;stop-color:#000000;stop-opacity:1"
       id="g932"
       transform="translate(0,5.9142315)">
      <rect
         style="fill:#feeea6;fill-opacity:1;stroke:#8c6200;stroke-width:1;stroke-miterlimit:4;stroke-dasharray:none;stroke-opacity:1;font-variation-settings:normal;vector-effect:none;stroke-linecap:butt;stroke-linejoin:miter;stroke-dashoffset:0;stop-color:#000000;stop-opacity:1"
         id="rect26"
         width="11.659782"
         height="11.703841"
         x="0.53571427"
         y="29.925133" />
      <rect
         y="29.925133"
         x="12.246952"
         height="11.703841"
         width="11.659782"
         id="rect859"
         style="fill:#feeea6;fill-opacity:1;stroke:#8c6200;stroke-width:1;stroke-miterlimit:4;stroke-dasharray:none;stroke-opacity:1;font-variation-settings:normal;vector-effect:none;stroke-linecap:butt;stroke-linejoin:miter;stroke-dashoffset:0;stop-color:#000000;stop-opacity:1" />
      <rect
         style="fill:#feeea6;fill-opacity:1;stroke:#8c6200;stroke-width:1;stroke-miterlimit:4;stroke-dasharray:none;stroke-opacity:1;font-variation-settings:normal;vector-effect:none;stroke-linecap:butt;stroke-linejoin:miter;stroke-dashoffset:0;stop-color:#000000;stop-opacity:1"
         id="rect861"
         width="11.659782"
         height="11.703841"
         x="24.02511"
         y="29.925133" />
      <rect
         y="29.925133"
         x="35.736347"
         height="11.703841"
         width="11.659782"
         id="rect863"
         style="fill:#feeea6;fill-opacity:1;stroke:#8c6200;stroke-width:1;stroke-miterlimit:4;stroke-dasharray:none;stroke-opacity:1;font-variation-settings:normal;vector-effect:none;stroke-linecap:butt;stroke-linejoin:miter;stroke-dashoffset:0;stop-color:#000000;stop-opacity:1" />
    </g>
    <path
       style="font-style:normal;font-variant:normal;font-weight:normal;font-stretch:normal;font-size:16px;line-height:125%;font-family:Tahoma;-inkscape-font-specification:'Tahoma Normal';font-variant-ligatures:normal;font-variant-caps:normal;font-variant-numeric:normal;font-variant-east-asian:normal;letter-spacing:0px;word-spacing:0px;fill:#ffffff;fill-opacity:1;stroke:none;stroke-width:1px;stroke-linecap:butt;stroke-linejoin:miter;stroke-opacity:1"
       inkscape:connector-curvature="0"
       id="path869"
       d="M 9.3315364,26.516504 H 3.659661 v -1.1875 H 5.769036 V 17.53213 H 3.659661 v -1.0625 q 1.1953125,0 1.7578125,-0.335938 0.5703125,-0.34375 0.640625,-1.289062 h 1.2109379 v 10.484374 h 2.0625 z" />
    <path
       style="font-style:normal;font-variant:normal;font-weight:normal;font-stretch:normal;font-size:16px;line-height:125%;font-family:Tahoma;-inkscape-font-specification:'Tahoma Normal';font-variant-ligatures:normal;font-variant-caps:normal;font-variant-numeric:normal;font-variant-east-asian:normal;letter-spacing:0px;word-spacing:0px;fill:#ffffff;fill-opacity:1;stroke:none;stroke-width:1px;stroke-linecap:butt;stroke-linejoin:miter;stroke-opacity:1"
       inkscape:connector-curvature="0"
       id="path871"
       d="M 21.895148,26.390235 H 14.71546 v -1.632812 q 0.773438,-0.734375 1.460938,-1.40625 0.6875,-0.671875 1.34375,-1.398438 1.328125,-1.460937 1.8125,-2.335937 0.484375,-0.882812 0.484375,-1.820312 0,-0.484375 -0.15625,-0.851563 -0.148438,-0.367187 -0.414063,-0.609375 -0.273437,-0.234375 -0.632812,-0.351562 -0.359375,-0.117188 -0.789063,-0.117188 -0.414062,0 -0.84375,0.109375 -0.421875,0.101563 -0.8125,0.257813 -0.328125,0.132812 -0.632812,0.320312 -0.304688,0.1875 -0.492188,0.320313 h -0.08594 v -1.65625 q 0.484375,-0.242188 1.34375,-0.46875 0.867187,-0.234375 1.640625,-0.234375 1.625,0 2.546875,0.867187 0.921875,0.859375 0.921875,2.335938 0,0.679687 -0.164063,1.257812 -0.15625,0.578125 -0.4375,1.070313 -0.289062,0.507812 -0.695312,1.007812 -0.40625,0.5 -0.859375,0.984375 -0.734375,0.796875 -1.640625,1.65625 -0.898438,0.859375 -1.4375,1.359375 h 5.71875 z" />
    <path
       style="font-style:normal;font-variant:normal;font-weight:normal;font-stretch:normal;font-size:16px;line-height:125%;font-family:Tahoma;-inkscape-font-specification:'Tahoma Normal';font-variant-ligatures:normal;font-variant-caps:normal;font-variant-numeric:normal;font-variant-east-asian:normal;letter-spacing:0px;word-spacing:0px;fill:#ffffff;fill-opacity:1;stroke:none;stroke-width:1px;stroke-linecap:butt;stroke-linejoin:miter;stroke-opacity:1"
       inkscape:connector-curvature="0"
       id="path873"
       d="m 29.762811,15.61426 q -0.421875,0 -0.84375,0.101563 -0.421875,0.101562 -0.828125,0.265625 -0.375,0.15625 -0.65625,0.328125 -0.273437,0.171875 -0.492187,0.320312 h -0.09375 v -1.648437 q 0.507812,-0.273438 1.375,-0.492188 0.875,-0.226562 1.664062,-0.226562 0.789063,0 1.375,0.164062 0.59375,0.15625 1.070313,0.492188 0.515625,0.375 0.773437,0.90625 0.265625,0.53125 0.265625,1.242187 0,0.960937 -0.632812,1.6875 -0.632813,0.726562 -1.515625,0.921875 v 0.109375 q 0.367187,0.07031 0.78125,0.242187 0.421875,0.171875 0.78125,0.507813 0.359375,0.335937 0.585937,0.867187 0.226563,0.523438 0.226563,1.28125 0,0.789063 -0.273438,1.453125 -0.265625,0.65625 -0.757812,1.164063 -0.507813,0.53125 -1.226563,0.804687 -0.71875,0.273438 -1.632812,0.273438 -0.875,0 -1.734375,-0.210938 -0.859375,-0.210937 -1.445313,-0.507812 v -1.648438 h 0.109375 q 0.492188,0.359375 1.320313,0.6875 0.828125,0.328125 1.65625,0.328125 0.476562,0 0.953125,-0.148437 0.484375,-0.15625 0.804687,-0.5 0.3125,-0.34375 0.476563,-0.757813 0.164062,-0.414062 0.164062,-1.046875 0,-0.632812 -0.1875,-1.039062 -0.179687,-0.40625 -0.507812,-0.640625 -0.328125,-0.234375 -0.78125,-0.320313 -0.445313,-0.09375 -0.96875,-0.09375 h -0.664063 v -1.296875 h 0.515625 q 1.054688,0 1.710938,-0.5 0.664062,-0.5 0.664062,-1.453125 0,-0.437499 -0.171875,-0.749999 -0.171875,-0.320313 -0.4375,-0.507813 -0.296875,-0.203125 -0.65625,-0.28125 -0.359375,-0.07813 -0.765625,-0.07813 z" />
    <path
       style="font-style:normal;font-variant:normal;font-weight:normal;font-stretch:normal;font-size:16px;line-height:125%;font-family:Tahoma;-inkscape-font-specification:'Tahoma Normal';font-variant-ligatures:normal;font-variant-caps:normal;font-variant-numeric:normal;font-variant-east-asian:normal;letter-spacing:0px;word-spacing:0px;fill:#ffffff;fill-opacity:1;stroke:none;stroke-width:1px;stroke-linecap:butt;stroke-linejoin:miter;stroke-opacity:1"
       inkscape:connector-curvature="0"
       id="path875"
       d="m 45.634481,21.948294 h -1.382812 v 4 h -1.5 v -4 h -5.140625 v -1.640625 l 5.203125,-5.992188 h 1.4375 v 6.382813 h 1.382812 z m -2.882812,-1.25 v -4.546875 l -3.921875,4.546875 z" />
    <path
       style="fill:none;fill-rule:evenodd;stroke:#ef2929;stroke-width:2;stroke-linecap:butt;stroke-linejoin:miter;stroke-miterlimit:4;stroke-dasharray:none;stroke-opacity:1"
       d="m 9.1844208,11.011651 c 4.3982612,-7.1007639 16.0536532,-7.2584407 20.4519152,0"
       id="path896"
       inkscape:connector-curvature="0"
       sodipodi:nodetypes="cc" />
    <path
       style="font-variation-settings:normal;opacity:1;vector-effect:none;fill:none;fill-opacity:1;fill-rule:evenodd;stroke:#ef2929;stroke-width:2;stroke-linecap:butt;stroke-linejoin:miter;stroke-miterlimit:4;stroke-dasharray:none;stroke-dashoffset:0;stroke-opacity:1;stop-color:#000000;stop-opacity:1"
       d="m 22.839001,9.7521903 c 0.314586,0.062917 6.732157,1.3212647 6.732157,1.3212647 l 0.377504,-6.2288186"
       id="path898"
       inkscape:connector-curvature="0"
       sodipodi:nodetypes="ccc" />
    <path
       sodipodi:nodetypes="cc"
       inkscape:connector-curvature="0"
       id="path914"
       d="m 6.1102925,11.461248 c 8.1009165,-13.46896 29.5683475,-13.7680465 37.6692665,0"
       style="fill:none;fill-rule:evenodd;stroke:#ef2929;stroke-width:2;stroke-linecap:butt;stroke-linejoin:miter;stroke-miterlimit:4;stroke-dasharray:none;stroke-opacity:1" />
    <path
       sodipodi:nodetypes="ccc"
       inkscape:connector-curvature="0"
       id="path926"
       d="M 12.819268,9.878025 C 12.504682,9.940942 6.0871113,11.19929 6.0871113,11.19929 L 5.7096073,4.9704711"
       style="font-variation-settings:normal;opacity:1;vector-effect:none;fill:none;fill-opacity:1;fill-rule:evenodd;stroke:#ef2929;stroke-width:2;stroke-linecap:butt;stroke-linejoin:miter;stroke-miterlimit:4;stroke-dasharray:none;stroke-dashoffset:0;stroke-opacity:1;stop-color:#000000;stop-opacity:1" />
    <path
       sodipodi:nodetypes="cc"
       inkscape:connector-curvature="0"
       id="path934"
       d="m 16.419917,28.646681 c -0.711672,14.343751 24.289065,14.187106 25.548221,0.125835"
       style="fill:none;fill-rule:evenodd;stroke:#ef2929;stroke-width:2;stroke-linecap:butt;stroke-linejoin:miter;stroke-miterlimit:4;stroke-dasharray:none;stroke-opacity:1" />
    <path
       sodipodi:nodetypes="ccc"
       inkscape:connector-curvature="0"
       id="path936"
       d="m 35.611224,31.762953 c 0.314586,-0.06292 6.606322,-2.831281 6.606322,-2.831281 l 3.271703,6.354653"
       style="font-variation-settings:normal;opacity:1;vector-effect:none;fill:none;fill-opacity:1;fill-rule:evenodd;stroke:#ef2929;stroke-width:2;stroke-linecap:butt;stroke-linejoin:miter;stroke-miterlimit:4;stroke-dasharray:none;stroke-dashoffset:0;stroke-opacity:1;stop-color:#000000;stop-opacity:1" />
    <path
       style="fill:none;fill-rule:evenodd;stroke:#ef2929;stroke-width:2;stroke-linecap:butt;stroke-linejoin:miter;stroke-miterlimit:4;stroke-dasharray:none;stroke-opacity:1"
       d="m 21.776714,29.23597 c 1.746264,4.283025 8.742703,4.078772 9.671043,-0.125835"
       id="path938"
       inkscape:connector-curvature="0"
       sodipodi:nodetypes="cc" />
    <path
       style="font-variation-settings:normal;opacity:1;vector-effect:none;fill:none;fill-opacity:1;fill-rule:evenodd;stroke:#ef2929;stroke-width:2;stroke-linecap:butt;stroke-linejoin:miter;stroke-miterlimit:4;stroke-dasharray:none;stroke-dashoffset:0;stroke-opacity:1;stop-color:#000000;stop-opacity:1"
       d="m 26.549686,29.264093 c -0.230675,-0.04581 -4.999379,-0.395816 -4.999379,-0.395816 l -1.031818,5.101738"
       id="path940"
       inkscape:connector-curvature="0"
       sodipodi:nodetypes="ccc" />
  </g>
</svg>
