<?xml version="1.0" encoding="UTF-8" standalone="no"?>
<!-- Created with Inkscape (http://www.inkscape.org/) -->
<svg
   xmlns:dc="http://purl.org/dc/elements/1.1/"
   xmlns:cc="http://creativecommons.org/ns#"
   xmlns:rdf="http://www.w3.org/1999/02/22-rdf-syntax-ns#"
   xmlns:svg="http://www.w3.org/2000/svg"
   xmlns="http://www.w3.org/2000/svg"
   xmlns:xlink="http://www.w3.org/1999/xlink"
   xmlns:sodipodi="http://sodipodi.sourceforge.net/DTD/sodipodi-0.dtd"
   xmlns:inkscape="http://www.inkscape.org/namespaces/inkscape"
   width="48px"
   height="48px"
   id="svg10659"
   sodipodi:version="0.32"
   inkscape:version="0.46"
   sodipodi:docname="banana.svg"
   inkscape:output_extension="org.inkscape.output.svg.inkscape">
  <defs
     id="defs10661">
    <linearGradient
       inkscape:collect="always"
       id="linearGradient11184">
      <stop
         style="stop-color:#000000;stop-opacity:1;"
         offset="0"
         id="stop11186" />
      <stop
         style="stop-color:#000000;stop-opacity:0;"
         offset="1"
         id="stop11188" />
    </linearGradient>
    <inkscape:perspective
       sodipodi:type="inkscape:persp3d"
       inkscape:vp_x="0 : 24 : 1"
       inkscape:vp_y="0 : 1000 : 0"
       inkscape:vp_z="48 : 24 : 1"
       inkscape:persp3d-origin="24 : 16 : 1"
       id="perspective10667" />
    <linearGradient
       inkscape:collect="always"
       xlink:href="#linearGradient11184"
       id="linearGradient11190"
       x1="7.3015876"
       y1="1.6507937"
       x2="8.3809519"
       y2="5.5238094"
       gradientUnits="userSpaceOnUse"
       gradientTransform="matrix(1.2848492,0.2698853,-0.2797345,1.2396113,-4.8711175,-2.9543676)" />
    <linearGradient
       inkscape:collect="always"
       xlink:href="#linearGradient11184"
       id="linearGradient11194"
       gradientUnits="userSpaceOnUse"
       x1="7.3015876"
       y1="1.6507937"
       x2="8.3809519"
       y2="5.5238094"
       gradientTransform="matrix(-0.3674927,0.9789608,-1.0146866,-0.3545537,51.482182,38.770379)" />
  </defs>
  <sodipodi:namedview
     id="base"
     pagecolor="#ffffff"
     bordercolor="#666666"
     borderopacity="1.0"
     inkscape:pageopacity="0.0"
     inkscape:pageshadow="2"
     inkscape:zoom="15.75"
     inkscape:cx="14.412698"
     inkscape:cy="24"
     inkscape:current-layer="layer1"
     showgrid="true"
     inkscape:grid-bbox="true"
     inkscape:document-units="px"
     inkscape:window-width="1920"
     inkscape:window-height="1115"
     inkscape:window-x="-4"
     inkscape:window-y="-4" />
  <metadata
     id="metadata10664">
    <rdf:RDF>
      <cc:Work
         rdf:about="">
        <dc:format>image/svg+xml</dc:format>
        <dc:type
           rdf:resource="http://purl.org/dc/dcmitype/StillImage" />
      </cc:Work>
    </rdf:RDF>
  </metadata>
  <g
     id="layer1"
     inkscape:label="Layer 1"
     inkscape:groupmode="layer">
    <path
       style="fill:#edd400;fill-rule:evenodd;stroke:#564600;stroke-width:1px;stroke-linecap:butt;stroke-linejoin:miter;stroke-opacity:1"
       d="M 5.7593575,0.6349204 L 2.9124648,0.65899781 L 2.1490786,6.3563493 C 0.72322943,12.928883 -1.9769231,26.030754 6.4832541,36.608403 C 14.979239,47.230821 37.77459,48.260098 40.960137,47.324718 L 47.588575,46.76394 L 47.270079,44.117779 L 41.427686,42.167221 C 35.120487,35.16528 26.469061,33.636572 20.39598,27.187456 C 13.960639,20.353654 13.9069,13.418399 6.2562685,5.0690277 L 5.7593575,0.6349204 z"
       id="path10669"
       sodipodi:nodetypes="ccczccccscc" />
    <path
       style="fill:#fdf863;fill-opacity:1;fill-rule:evenodd;stroke:none;stroke-width:1px;stroke-linecap:butt;stroke-linejoin:miter;stroke-opacity:1"
       d="M 5.7584987,5.4266173 L 4.424198,6.3563497 C 4.424198,6.3563497 9.5998936,24.56605 15.098603,31.030011 C 20.597313,37.493973 41.043338,44.117781 41.043338,44.117781 L 40.96921,42.758942 C 37.576341,37.680952 27.31086,34.36033 20.435805,27.811708 C 13.597708,21.29829 13.633979,13.673166 5.7584987,5.4266173 z"
       id="path11180"
       sodipodi:nodetypes="cczcczc" />
    <path
       style="fill:url(#linearGradient11190);fill-opacity:1;fill-rule:evenodd;stroke:none;stroke-width:1px;stroke-linecap:butt;stroke-linejoin:miter;stroke-opacity:1"
       d="M 2.9169836,1.1546257 L 5.2616696,0.98764244 L 6.7459914,6.9050893 L 2.3474092,7.465009 L 2.9169836,1.1546257 z"
       id="path11182"
       sodipodi:nodetypes="ccccc" />
    <path
       style="fill:url(#linearGradient11194);fill-opacity:1;fill-rule:evenodd;stroke:none;stroke-width:1px;stroke-linecap:butt;stroke-linejoin:miter;stroke-opacity:1"
       d="M 47.169492,44.434978 L 47.054904,46.293287 L 41.459604,46.87716 L 41.91105,42.856211 L 47.169492,44.434978 z"
       id="path11192"
       sodipodi:nodetypes="ccccc" />
    <path
       style="fill:#554500;fill-rule:evenodd;stroke:none;stroke-width:1px;stroke-linecap:butt;stroke-linejoin:miter;stroke-opacity:1;fill-opacity:1"
       d="M 26.539683,38.349206 C 26.539683,38.349206 29.174171,40.735709 30.666667,41.333333 C 32.159163,41.930957 35.809524,42.222222 35.809524,42.222222 C 35.809524,42.222222 32.931151,39.951687 31.492063,39.365079 C 30.052975,38.778471 26.539683,38.349206 26.539683,38.349206 z"
       id="path11198"
       sodipodi:nodetypes="czczc" />
    <path
       style="fill:#554500;fill-opacity:1;fill-rule:evenodd;stroke:none;stroke-width:1px;stroke-linecap:butt;stroke-linejoin:miter;stroke-opacity:1"
       d="M 21.714285,39.879974 C 21.714285,39.879974 23.518729,41.514565 24.540987,41.923896 C 25.563244,42.333228 28.063492,42.532724 28.063492,42.532724 C 28.063492,42.532724 26.092003,40.977563 25.106327,40.575777 C 24.12065,40.173991 21.714285,39.879974 21.714285,39.879974 z"
       id="path11200"
       sodipodi:nodetypes="czczc" />
    <path
       sodipodi:nodetypes="czczc"
       id="path11202"
       d="M 31.924949,44.073245 C 31.924949,44.073245 33.322577,44.9216 33.99695,44.922396 C 34.671321,44.923195 36.138541,44.180723 36.138541,44.180723 C 36.138541,44.180723 34.663965,43.468111 34.012111,43.460746 C 33.360256,43.453382 31.924949,44.073245 31.924949,44.073245 z"
       style="fill:#554500;fill-opacity:1;fill-rule:evenodd;stroke:none;stroke-width:1px;stroke-linecap:butt;stroke-linejoin:miter;stroke-opacity:1" />
    <path
       style="fill:#554500;fill-opacity:1;fill-rule:evenodd;stroke:none;stroke-width:1px;stroke-linecap:butt;stroke-linejoin:miter;stroke-opacity:1"
       d="M 27.140692,44.033201 C 27.140692,44.033201 28.26715,45.218174 28.917746,45.395671 C 29.568338,45.573171 31.178855,45.241153 31.178855,45.241153 C 31.178855,45.241153 29.942565,44.167014 29.315423,43.989078 C 28.68828,43.811144 27.140692,44.033201 27.140692,44.033201 z"
       id="path11204"
       sodipodi:nodetypes="czczc" />
    <path
       style="fill:#554500;fill-opacity:1;fill-rule:evenodd;stroke:none;stroke-width:1px;stroke-linecap:butt;stroke-linejoin:miter;stroke-opacity:1"
       d="M 4.9861413,8.4713289 C 4.9861413,8.4713289 4.8489407,10.100514 5.1485405,10.704684 C 5.4481355,11.308852 6.7663073,12.29192 6.7663073,12.29192 C 6.7663073,12.29192 6.7477007,10.654287 6.4640118,10.067355 C 6.1803208,9.4804241 4.9861413,8.4713289 4.9861413,8.4713289 z"
       id="path11206"
       sodipodi:nodetypes="czczc" />
    <path
       sodipodi:nodetypes="czczc"
       id="path11208"
       d="M 7.5258238,9.8681543 C 7.5258238,9.8681543 7.3886232,11.497339 7.688223,12.101509 C 7.987818,12.705677 9.3059898,13.688745 9.3059898,13.688745 C 9.3059898,13.688745 9.2873832,12.051112 9.0036943,11.46418 C 8.7200033,10.877249 7.5258238,9.8681543 7.5258238,9.8681543 z"
       style="fill:#554500;fill-opacity:1;fill-rule:evenodd;stroke:none;stroke-width:1px;stroke-linecap:butt;stroke-linejoin:miter;stroke-opacity:1" />
    <path
       style="fill:#554500;fill-opacity:1;fill-rule:evenodd;stroke:none;stroke-width:1px;stroke-linecap:butt;stroke-linejoin:miter;stroke-opacity:1"
       d="M 4.0035212,10.632748 C 4.0035212,10.632748 3.5810643,12.212177 3.7693823,12.859725 C 3.957696,13.507269 5.0817689,14.707461 5.0817689,14.707461 C 5.0817689,14.707461 5.3523525,13.092229 5.1766549,12.464456 C 5.0009549,11.836684 4.0035212,10.632748 4.0035212,10.632748 z"
       id="path11210"
       sodipodi:nodetypes="czczc" />
  </g>
</svg>
