<?xml version="1.0" encoding="UTF-8" standalone="no"?>
<!-- Generator: Adobe Illustrator 15.0.0, SVG Export Plug-In . SVG Version: 6.00 Build 0)  -->
<svg
   xmlns:dc="http://purl.org/dc/elements/1.1/"
   xmlns:cc="http://creativecommons.org/ns#"
   xmlns:rdf="http://www.w3.org/1999/02/22-rdf-syntax-ns#"
   xmlns:svg="http://www.w3.org/2000/svg"
   xmlns="http://www.w3.org/2000/svg"
   xmlns:sodipodi="http://sodipodi.sourceforge.net/DTD/sodipodi-0.dtd"
   xmlns:inkscape="http://www.inkscape.org/namespaces/inkscape"
   version="1.0"
   id="Layer_1"
   x="0px"
   y="0px"
   width="48"
   height="48"
   viewBox="0 0 612 792"
   enable-background="new 0 0 612 792"
   xml:space="preserve"
   sodipodi:version="0.32"
   inkscape:version="0.46"
   sodipodi:docname="Brick_Wall.svg"
   inkscape:output_extension="org.inkscape.output.svg.inkscape"><metadata
   id="metadata2473"><rdf:RDF><cc:Work
       rdf:about=""><dc:format>image/svg+xml</dc:format><dc:type
         rdf:resource="http://purl.org/dc/dcmitype/StillImage" /></cc:Work></rdf:RDF></metadata><defs
   id="defs2471" /><sodipodi:namedview
   inkscape:window-height="1538"
   inkscape:window-width="2560"
   inkscape:pageshadow="2"
   inkscape:pageopacity="0.0"
   guidetolerance="10.0"
   gridtolerance="10.0"
   objecttolerance="10.0"
   borderopacity="1.0"
   bordercolor="#666666"
   pagecolor="#ffffff"
   id="base"
   showgrid="false"
   inkscape:zoom="18.666667"
   inkscape:cx="22.672206"
   inkscape:cy="22.747552"
   inkscape:window-x="-8"
   inkscape:window-y="-8"
   inkscape:current-layer="Layer_1" />
















<path
   transform="matrix(17.663124,0,0,17.663124,-4950.6092,-6511.8389)"
   style="fill:#000000;fill-opacity:0.37765958"
   d="M 313.43752,404.72104 L 319.99,408.277 L 311.97018,413.52904 L 281.84312,405.31127 L 276.03769,398.90222 L 313.43752,404.72104 z"
   id="polygon3782"
   sodipodi:nodetypes="cccccc" /><polygon
   style="fill:none;stroke:#761d05;stroke-linecap:round;stroke-linejoin:round;stroke-miterlimit:10"
   stroke-miterlimit="10"
   points="276.249,373.444 276.249,398.652 309.06,406.896 313.023,404.744 313.023,379.259 280.402,371.33 276.249,373.444 "
   id="polygon3784"
   transform="matrix(17.663124,0,0,17.663124,-4950.6092,-6511.8389)" /><polygon
   style="fill:#f1c7ba;stroke:#eeefed;stroke-width:0.30000001;stroke-linecap:round;stroke-linejoin:round;stroke-miterlimit:10"
   stroke-miterlimit="10"
   points="303.007,379.964 308.858,381.36 312.813,379.447 306.842,378.047 303.007,379.964 "
   id="polygon3786"
   transform="matrix(17.663124,0,0,17.663124,-4950.6092,-6511.8389)" /><polygon
   style="fill:#821113;stroke:#d8dad9;stroke-width:0.30000001;stroke-linecap:round;stroke-linejoin:round;stroke-miterlimit:10"
   stroke-miterlimit="10"
   points="309.011,386.521 312.812,384.551 312.83,379.415 309.011,381.31 309.011,386.521 "
   id="polygon3788"
   transform="matrix(17.663124,0,0,17.663124,-4950.6092,-6511.8389)" /><polygon
   style="fill:#821113;stroke:#d8dad9;stroke-width:0.30000001;stroke-linecap:round;stroke-linejoin:round;stroke-miterlimit:10"
   stroke-miterlimit="10"
   points="309.011,391.422 312.812,389.45 312.815,384.582 309.011,386.465 309.011,391.422 "
   id="polygon3790"
   transform="matrix(17.663124,0,0,17.663124,-4950.6092,-6511.8389)" /><polygon
   style="fill:#821113;stroke:#d8dad9;stroke-width:0.30000001;stroke-linecap:round;stroke-linejoin:round;stroke-miterlimit:10"
   stroke-miterlimit="10"
   points="309.011,396.425 312.812,394.454 312.797,389.452 309.011,391.391 309.011,396.425 "
   id="polygon3792"
   transform="matrix(17.663124,0,0,17.663124,-4950.6092,-6511.8389)" /><polygon
   style="fill:#821113;stroke:#d8dad9;stroke-width:0.30000001;stroke-linecap:round;stroke-linejoin:round;stroke-miterlimit:10"
   stroke-miterlimit="10"
   points="309.011,401.561 312.812,399.589 312.815,394.398 309.011,396.395 309.011,401.561 "
   id="polygon3794"
   transform="matrix(17.663124,0,0,17.663124,-4950.6092,-6511.8389)" /><polygon
   style="fill:#821113;stroke:#d8dad9;stroke-width:0.30000001;stroke-linecap:round;stroke-linejoin:round;stroke-miterlimit:10"
   stroke-miterlimit="10"
   points="309.011,406.633 312.812,404.611 312.797,399.591 309.011,401.548 309.011,406.633 "
   id="polygon3796"
   transform="matrix(17.663124,0,0,17.663124,-4950.6092,-6511.8389)" /><polygon
   style="fill:#f1c7ba;stroke:#eeefed;stroke-width:0.30000001;stroke-linecap:round;stroke-linejoin:round;stroke-miterlimit:10"
   stroke-miterlimit="10"
   points="289.771,376.745 303.007,379.964 306.832,378.051 293.605,374.828 289.771,376.745 "
   id="polygon3798"
   transform="matrix(17.663124,0,0,17.663124,-4950.6092,-6511.8389)" /><polygon
   style="fill:#f1c7ba;stroke:#eeefed;stroke-width:0.30000001;stroke-linecap:round;stroke-linejoin:round;stroke-miterlimit:10"
   stroke-miterlimit="10"
   points="276.582,373.46 289.716,376.754 293.586,374.809 280.417,371.543 276.582,373.46 "
   id="polygon3800"
   transform="matrix(17.663124,0,0,17.663124,-4950.6092,-6511.8389)" /><polygon
   style="fill:#a31d21;stroke:#e3e4e2;stroke-width:0.40000001;stroke-linecap:round;stroke-linejoin:round;stroke-miterlimit:10"
   stroke-miterlimit="10"
   points="299.521,389.159 299.515,389.158 299.515,394.157 286.217,390.902 286.217,385.906 282.766,385.062 282.766,380.052 276.539,378.529 276.539,378.532 282.697,380.038 282.677,385.075 286.188,385.934 286.188,390.943 295.978,393.292 295.978,398.316 282.677,395.063 282.677,395.057 276.539,393.557 276.539,393.604 289.568,396.791 289.568,396.764 296,398.357 296,393.377 309.01,396.558 309.01,396.475 299.521,394.154 299.521,389.159 "
   id="polygon3802"
   transform="matrix(17.663124,0,0,17.663124,-4950.6092,-6511.8389)" /><rect
   style="fill:#a31d21;stroke:#e3e4e2;stroke-width:7.06550312;stroke-linecap:round;stroke-linejoin:round;stroke-miterlimit:10"
   x="-630.77832"
   y="-444.03168"
   transform="matrix(-0.9713652,-0.2375915,0.2375915,-0.9713652,0,0)"
   stroke-miterlimit="10"
   width="111.22868"
   height="0.088318788"
   id="rect3804" /><polygon
   style="fill:#a31d21;stroke:#e3e4e2;stroke-width:0.40000001;stroke-linecap:round;stroke-linejoin:round;stroke-miterlimit:10"
   stroke-miterlimit="10"
   points="282.677,390.101 283.425,390.279 276.539,388.595 276.539,388.61 282.677,390.123 282.677,390.101 "
   id="polygon3806"
   transform="matrix(17.663124,0,0,17.663124,-4950.6092,-6511.8389)" /><rect
   style="fill:#a31d21;stroke:#e3e4e2;stroke-width:7.06524992;stroke-linecap:round;stroke-linejoin:round;stroke-miterlimit:10"
   x="278.82364"
   y="258.50693"
   stroke-miterlimit="10"
   width="0.10597874"
   height="88.033012"
   id="rect3808" /><polygon
   style="fill:#a31d21;stroke:#e3e4e2;stroke-width:0.40000001;stroke-linecap:round;stroke-linejoin:round;stroke-miterlimit:10"
   stroke-miterlimit="10"
   points="282.677,385.075 282.697,380.038 276.539,378.532 276.539,383.572 282.677,385.075 "
   id="polygon3810"
   transform="matrix(17.663124,0,0,17.663124,-4950.6092,-6511.8389)" /><polygon
   style="fill:#a31d21;stroke:#e3e4e2;stroke-width:0.40000001;stroke-linecap:round;stroke-linejoin:round;stroke-miterlimit:10"
   stroke-miterlimit="10"
   points="286.188,390.943 286.188,385.934 282.677,385.075 282.677,385.076 276.539,383.573 276.539,388.595 283.425,390.279 286.188,390.943 "
   id="polygon3812"
   transform="matrix(17.663124,0,0,17.663124,-4950.6092,-6511.8389)" /><rect
   style="fill:#a31d21;stroke:#e3e4e2;stroke-width:7.06515265;stroke-linecap:round;stroke-linejoin:round;stroke-miterlimit:10"
   x="-109.85122"
   y="-271.7085"
   transform="matrix(-0.9713133,-0.2378033,0.2378033,-0.9713133,0,0)"
   stroke-miterlimit="10"
   width="111.61174"
   height="0.017662883"
   id="rect3814" /><polygon
   style="fill:#a31d21;stroke:#e3e4e2;stroke-width:0.40000001;stroke-linecap:round;stroke-linejoin:round;stroke-miterlimit:10"
   stroke-miterlimit="10"
   points="282.677,390.123 276.539,388.61 276.539,393.557 282.677,395.057 282.677,390.123 "
   id="polygon3816"
   transform="matrix(17.663124,0,0,17.663124,-4950.6092,-6511.8389)" /><polygon
   style="fill:#a31d21;stroke:#e3e4e2;stroke-width:0.40000001;stroke-linecap:round;stroke-linejoin:round;stroke-miterlimit:10"
   stroke-miterlimit="10"
   points="283.425,390.279 282.677,390.101 282.677,390.123 282.677,395.057 282.677,395.063 295.978,398.316 295.978,393.292 286.188,390.943 286.188,390.956 283.425,390.279 "
   id="polygon3818"
   transform="matrix(17.663124,0,0,17.663124,-4950.6092,-6511.8389)" /><polygon
   style="fill:#a31d21;stroke:#e3e4e2;stroke-width:0.40000001;stroke-linecap:round;stroke-linejoin:round;stroke-miterlimit:10"
   stroke-miterlimit="10"
   points="286.188,390.956 286.188,390.943 283.425,390.279 286.188,390.956 "
   id="polygon3820"
   transform="matrix(17.663124,0,0,17.663124,-4950.6092,-6511.8389)" /><polygon
   style="fill:#a31d21;stroke:#e3e4e2;stroke-width:0.40000001;stroke-linecap:round;stroke-linejoin:round;stroke-miterlimit:10"
   stroke-miterlimit="10"
   points="296.071,388.289 296.065,388.288 296.065,388.316 286.217,385.906 286.217,390.902 299.515,394.157 299.515,389.158 296.071,388.315 296.071,388.289 "
   id="polygon3822"
   transform="matrix(17.663124,0,0,17.663124,-4950.6092,-6511.8389)" /><polygon
   style="fill:#a31d21;stroke:#e3e4e2;stroke-width:0.40000001;stroke-linecap:round;stroke-linejoin:round;stroke-miterlimit:10"
   stroke-miterlimit="10"
   points="299.521,389.159 299.521,394.154 309.01,396.475 309.01,391.481 299.521,389.159 "
   id="polygon3824"
   transform="matrix(17.663124,0,0,17.663124,-4950.6092,-6511.8389)" /><polygon
   style="fill:#a31d21;stroke:#e3e4e2;stroke-width:0.40000001;stroke-linecap:round;stroke-linejoin:round;stroke-miterlimit:10"
   stroke-miterlimit="10"
   points="302.981,384.996 296.071,383.305 296.071,388.289 299.515,389.133 299.515,389.158 299.521,389.159 299.521,389.133 309.01,391.452 309.01,386.478 302.981,385.002 302.981,384.996 "
   id="polygon3826"
   transform="matrix(17.663124,0,0,17.663124,-4950.6092,-6511.8389)" /><polygon
   style="fill:#a31d21;stroke:#e3e4e2;stroke-width:0.40000001;stroke-linecap:round;stroke-linejoin:round;stroke-miterlimit:10"
   stroke-miterlimit="10"
   points="296.071,388.289 296.071,388.315 299.515,389.158 299.515,389.133 296.071,388.289 "
   id="polygon3828"
   transform="matrix(17.663124,0,0,17.663124,-4950.6092,-6511.8389)" /><polygon
   style="fill:#a31d21;stroke:#e3e4e2;stroke-width:0.40000001;stroke-linecap:round;stroke-linejoin:round;stroke-miterlimit:10"
   stroke-miterlimit="10"
   points="299.521,389.159 309.01,391.481 309.01,391.452 299.521,389.133 299.521,389.159 "
   id="polygon3830"
   transform="matrix(17.663124,0,0,17.663124,-4950.6092,-6511.8389)" /><polygon
   style="fill:#a31d21;stroke:#e3e4e2;stroke-width:0.40000001;stroke-linecap:round;stroke-linejoin:round;stroke-miterlimit:10"
   stroke-miterlimit="10"
   points="296,398.357 302.894,400.063 302.894,400.086 309.01,401.581 309.01,396.558 296,393.377 296,398.357 "
   id="polygon3832"
   transform="matrix(17.663124,0,0,17.663124,-4950.6092,-6511.8389)" /><polygon
   style="fill:#a31d21;stroke:#e3e4e2;stroke-width:0.40000001;stroke-linecap:round;stroke-linejoin:round;stroke-miterlimit:10"
   stroke-miterlimit="10"
   points="302.894,405.081 309.01,406.593 309.01,401.586 302.894,400.09 302.894,405.081 "
   id="polygon3834"
   transform="matrix(17.663124,0,0,17.663124,-4950.6092,-6511.8389)" /><polygon
   style="fill:#a31d21;stroke:#e3e4e2;stroke-width:0.40000001;stroke-linecap:round;stroke-linejoin:round;stroke-miterlimit:10"
   stroke-miterlimit="10"
   points="289.595,401.793 302.894,405.085 302.894,405.081 302.888,405.079 302.865,400.084 302.894,400.09 302.894,400.086 296,398.4 296,398.357 289.568,396.764 289.568,396.791 289.595,396.798 289.595,401.793 "
   id="polygon3836"
   transform="matrix(17.663124,0,0,17.663124,-4950.6092,-6511.8389)" /><polygon
   style="fill:#a31d21;stroke:#e3e4e2;stroke-width:0.40000001;stroke-linecap:round;stroke-linejoin:round;stroke-miterlimit:10"
   stroke-miterlimit="10"
   points="289.595,401.793 289.568,401.785 289.568,396.791 276.539,393.604 276.539,398.626 289.595,401.801 289.595,401.793 "
   id="polygon3838"
   transform="matrix(17.663124,0,0,17.663124,-4950.6092,-6511.8389)" /><polygon
   style="fill:#a31d21;stroke:#e3e4e2;stroke-width:0.40000001;stroke-linecap:round;stroke-linejoin:round;stroke-miterlimit:10"
   stroke-miterlimit="10"
   points="296.065,388.288 296.065,383.304 289.701,381.746 289.701,381.735 289.695,381.734 289.695,381.747 282.766,380.052 282.766,385.062 286.217,385.906 286.217,385.881 296.065,388.288 "
   id="polygon3840"
   transform="matrix(17.663124,0,0,17.663124,-4950.6092,-6511.8389)" /><polygon
   style="fill:#a31d21;stroke:#e3e4e2;stroke-width:0.40000001;stroke-linecap:round;stroke-linejoin:round;stroke-miterlimit:10"
   stroke-miterlimit="10"
   points="296.065,388.288 286.217,385.881 286.217,385.906 296.065,388.316 296.065,388.288 "
   id="polygon3842"
   transform="matrix(17.663124,0,0,17.663124,-4950.6092,-6511.8389)" /><polygon
   style="fill:#a31d21;stroke:#e3e4e2;stroke-width:0.40000001;stroke-linecap:round;stroke-linejoin:round;stroke-miterlimit:10"
   stroke-miterlimit="10"
   points="282.766,380.039 289.695,381.734 289.695,376.723 276.539,373.505 276.539,378.529 282.766,380.052 282.766,380.039 "
   id="polygon3844"
   transform="matrix(17.663124,0,0,17.663124,-4950.6092,-6511.8389)" /><polygon
   style="fill:#a31d21;stroke:#e3e4e2;stroke-width:0.40000001;stroke-linecap:round;stroke-linejoin:round;stroke-miterlimit:10"
   stroke-miterlimit="10"
   points="296.065,383.304 296.071,383.305 296.071,383.292 302.981,384.981 302.981,379.98 303,379.984 303,379.975 289.701,376.723 289.701,381.735 296.065,383.293 296.065,383.304 "
   id="polygon3846"
   transform="matrix(17.663124,0,0,17.663124,-4950.6092,-6511.8389)" /><polygon
   style="fill:#a31d21;stroke:#e3e4e2;stroke-width:0.40000001;stroke-linecap:round;stroke-linejoin:round;stroke-miterlimit:10"
   stroke-miterlimit="10"
   points="296.065,383.304 296.065,383.293 289.701,381.735 289.701,381.746 296.065,383.304 "
   id="polygon3848"
   transform="matrix(17.663124,0,0,17.663124,-4950.6092,-6511.8389)" /><polygon
   style="fill:#a31d21;stroke:#e3e4e2;stroke-width:0.40000001;stroke-linecap:round;stroke-linejoin:round;stroke-miterlimit:10"
   stroke-miterlimit="10"
   points="303,384.985 309.01,386.457 309.01,381.453 303,379.984 303,384.985 "
   id="polygon3850"
   transform="matrix(17.663124,0,0,17.663124,-4950.6092,-6511.8389)" /><polygon
   style="fill:#a31d21;stroke:#e3e4e2;stroke-width:0.40000001;stroke-linecap:round;stroke-linejoin:round;stroke-miterlimit:10"
   stroke-miterlimit="10"
   points="303,384.985 303,385 302.981,384.996 302.981,385.002 309.01,386.478 309.01,386.457 303,384.985 "
   id="polygon3852"
   transform="matrix(17.663124,0,0,17.663124,-4950.6092,-6511.8389)" /><rect
   style="fill:#a31d21;stroke:#e3e4e2;stroke-width:7.06524992;stroke-linecap:round;stroke-linejoin:round;stroke-miterlimit:10"
   x="400.98157"
   y="288.1636"
   stroke-miterlimit="10"
   width="0.33559933"
   height="0.26494685"
   id="rect3854" /></svg>