<?xml version="1.0" encoding="UTF-8" standalone="no"?>
<!-- Generator: Adobe Illustrator 15.0.0, SVG Export Plug-In . SVG Version: 6.00 Build 0)  -->
<svg
   xmlns:dc="http://purl.org/dc/elements/1.1/"
   xmlns:cc="http://creativecommons.org/ns#"
   xmlns:rdf="http://www.w3.org/1999/02/22-rdf-syntax-ns#"
   xmlns:svg="http://www.w3.org/2000/svg"
   xmlns="http://www.w3.org/2000/svg"
   xmlns:xlink="http://www.w3.org/1999/xlink"
   xmlns:sodipodi="http://sodipodi.sourceforge.net/DTD/sodipodi-0.dtd"
   xmlns:inkscape="http://www.inkscape.org/namespaces/inkscape"
   version="1.0"
   id="Layer_1"
   x="0px"
   y="0px"
   width="48"
   height="48"
   viewBox="0 0 612 792"
   enable-background="new 0 0 612 792"
   xml:space="preserve"
   sodipodi:version="0.32"
   inkscape:version="0.46"
   sodipodi:docname="cavity.svg"
   inkscape:output_extension="org.inkscape.output.svg.inkscape"><metadata
   id="metadata7135"><rdf:RDF><cc:Work
       rdf:about=""><dc:format>image/svg+xml</dc:format><dc:type
         rdf:resource="http://purl.org/dc/dcmitype/StillImage" /></cc:Work></rdf:RDF></metadata><defs
   id="defs7133"><inkscape:perspective
   sodipodi:type="inkscape:persp3d"
   inkscape:vp_x="0 : 396 : 1"
   inkscape:vp_y="0 : 1000 : 0"
   inkscape:vp_z="612 : 396 : 1"
   inkscape:persp3d-origin="306 : 264 : 1"
   id="perspective7137" />
	
	
<linearGradient
   inkscape:collect="always"
   xlink:href="#SVGID_1_"
   id="linearGradient7218"
   gradientUnits="userSpaceOnUse"
   x1="317.30469"
   y1="478.20309"
   x2="284.50549"
   y2="451.5853" /><radialGradient
   inkscape:collect="always"
   xlink:href="#SVGID_2_"
   id="radialGradient7220"
   gradientUnits="userSpaceOnUse"
   gradientTransform="matrix(1.0016,-0.1381,0.1366,0.9906,-54.5106,48.3748)"
   cx="316.76859"
   cy="487.418"
   r="14.0811" /><radialGradient
   inkscape:collect="always"
   xlink:href="#SVGID_3_"
   id="radialGradient7222"
   gradientUnits="userSpaceOnUse"
   cx="323.8262"
   cy="500.70901"
   fx="328.1286"
   fy="497.97131"
   r="13.0575" /><radialGradient
   inkscape:collect="always"
   xlink:href="#SVGID_4_"
   id="radialGradient7224"
   gradientUnits="userSpaceOnUse"
   gradientTransform="matrix(1.0111,0,0,1,-3.0644,0)"
   cx="314.25879"
   cy="481.6445"
   r="10.3987" /><radialGradient
   inkscape:collect="always"
   xlink:href="#SVGID_5_"
   id="radialGradient7226"
   gradientUnits="userSpaceOnUse"
   gradientTransform="matrix(1.0111,0,0,1,-3.0644,0)"
   cx="326.5"
   cy="497.16019"
   r="7.1919999" /><radialGradient
   inkscape:collect="always"
   xlink:href="#SVGID_6_"
   id="radialGradient7228"
   gradientUnits="userSpaceOnUse"
   gradientTransform="matrix(1.0059,-0.1029,0.1017,0.9948,-42.8166,32.3639)"
   cx="293.522"
   cy="499.75391"
   r="21.6245" /><radialGradient
   inkscape:collect="always"
   xlink:href="#SVGID_7_"
   id="radialGradient7230"
   gradientUnits="userSpaceOnUse"
   gradientTransform="matrix(1.0111,0,0,1,-3.0644,0)"
   cx="302.8364"
   cy="479.37701"
   r="5.8934999" />
		
		
		
		<linearGradient
   id="SVGID_1_"
   gradientUnits="userSpaceOnUse"
   x1="317.30469"
   y1="478.20309"
   x2="284.50549"
   y2="451.5853">
			<stop
   offset="0"
   style="stop-color:#F9A86D"
   id="stop6992" />
			<stop
   offset="0.1008"
   style="stop-color:#FBBB89;stop-opacity:0.8992"
   id="stop6994" />
			<stop
   offset="0.2268"
   style="stop-color:#FDCEA9;stop-opacity:0.7732"
   id="stop6996" />
			<stop
   offset="0.3589"
   style="stop-color:#FEDFC5;stop-opacity:0.6411"
   id="stop6998" />
			<stop
   offset="0.4966"
   style="stop-color:#FFEBDC;stop-opacity:0.5034"
   id="stop7000" />
			<stop
   offset="0.6424"
   style="stop-color:#FFF5ED;stop-opacity:0.3576"
   id="stop7002" />
			<stop
   offset="0.8017"
   style="stop-color:#FFFCF9;stop-opacity:0.1983"
   id="stop7004" />
			<stop
   offset="1"
   style="stop-color:#FFFFFF;stop-opacity:0"
   id="stop7006" />
		</linearGradient>
		
		
		
			
		
		
		
			<radialGradient
   id="SVGID_2_"
   cx="316.76859"
   cy="487.418"
   r="14.0811"
   gradientTransform="matrix(1.0016,-0.1381,0.1366,0.9906,-54.5106,48.3748)"
   gradientUnits="userSpaceOnUse">
			<stop
   offset="0"
   style="stop-color:#C6AF8E;stop-opacity:0.95"
   id="stop7019" />
			<stop
   offset="0.1097"
   style="stop-color:#C1AA89;stop-opacity:0.8431"
   id="stop7021" />
			<stop
   offset="0.2337"
   style="stop-color:#B49B79;stop-opacity:0.7223"
   id="stop7023" />
			<stop
   offset="0.3067"
   style="stop-color:#AA8F6D;stop-opacity:0.6512"
   id="stop7025" />
			<stop
   offset="0.34"
   style="stop-color:#A4825C;stop-opacity:0.4691"
   id="stop7027" />
			<stop
   offset="0.3962"
   style="stop-color:#9C7242;stop-opacity:0.1607"
   id="stop7029" />
			<stop
   offset="0.4256"
   style="stop-color:#996C39;stop-opacity:0"
   id="stop7031" />
		</radialGradient>
		
		
		
		
		
			<radialGradient
   id="SVGID_3_"
   cx="323.8262"
   cy="500.70901"
   r="13.0575"
   fx="328.1286"
   fy="497.97131"
   gradientUnits="userSpaceOnUse">
			<stop
   offset="0"
   style="stop-color:#C6AF8E;stop-opacity:0.8"
   id="stop7042" />
			<stop
   offset="0.1097"
   style="stop-color:#C1AA89;stop-opacity:0.7106"
   id="stop7044" />
			<stop
   offset="0.2337"
   style="stop-color:#B49B79;stop-opacity:0.6095"
   id="stop7046" />
			<stop
   offset="0.3067"
   style="stop-color:#AA8F6D;stop-opacity:0.55"
   id="stop7048" />
			<stop
   offset="0.34"
   style="stop-color:#A4825C;stop-opacity:0.3962"
   id="stop7050" />
			<stop
   offset="0.3962"
   style="stop-color:#9C7242;stop-opacity:0.1358"
   id="stop7052" />
			<stop
   offset="0.4256"
   style="stop-color:#996C39;stop-opacity:0"
   id="stop7054" />
		</radialGradient>
		
		
		
			<radialGradient
   id="SVGID_4_"
   cx="314.25879"
   cy="481.6445"
   r="10.3987"
   gradientTransform="matrix(1.0111,0,0,1,-3.0644,0)"
   gradientUnits="userSpaceOnUse">
			<stop
   offset="0"
   style="stop-color:#C6AF8E;stop-opacity:0.95"
   id="stop7061" />
			<stop
   offset="0.1097"
   style="stop-color:#C1AA89;stop-opacity:0.8431"
   id="stop7063" />
			<stop
   offset="0.2337"
   style="stop-color:#B49B79;stop-opacity:0.7223"
   id="stop7065" />
			<stop
   offset="0.3067"
   style="stop-color:#AA8F6D;stop-opacity:0.6512"
   id="stop7067" />
			<stop
   offset="0.34"
   style="stop-color:#A4825C;stop-opacity:0.4691"
   id="stop7069" />
			<stop
   offset="0.3962"
   style="stop-color:#9C7242;stop-opacity:0.1607"
   id="stop7071" />
			<stop
   offset="0.4256"
   style="stop-color:#996C39;stop-opacity:0"
   id="stop7073" />
		</radialGradient>
		
		
			<radialGradient
   id="SVGID_5_"
   cx="326.5"
   cy="497.16019"
   r="7.1919999"
   gradientTransform="matrix(1.0111,0,0,1,-3.0644,0)"
   gradientUnits="userSpaceOnUse">
			<stop
   offset="0"
   style="stop-color:#C6AF8E;stop-opacity:0.95"
   id="stop7078" />
			<stop
   offset="0.1163"
   style="stop-color:#C1AA89;stop-opacity:0.8431"
   id="stop7080" />
			<stop
   offset="0.2478"
   style="stop-color:#B49B79;stop-opacity:0.7223"
   id="stop7082" />
			<stop
   offset="0.3252"
   style="stop-color:#AA8F6D;stop-opacity:0.6512"
   id="stop7084" />
			<stop
   offset="0.3532"
   style="stop-color:#A4825C;stop-opacity:0.4691"
   id="stop7086" />
			<stop
   offset="0.4008"
   style="stop-color:#9C7242;stop-opacity:0.1607"
   id="stop7088" />
			<stop
   offset="0.4256"
   style="stop-color:#996C39;stop-opacity:0"
   id="stop7090" />
		</radialGradient>
		
		
		
		
			<radialGradient
   id="SVGID_6_"
   cx="293.522"
   cy="499.75391"
   r="21.6245"
   gradientTransform="matrix(1.0059,-0.1029,0.1017,0.9948,-42.8166,32.3639)"
   gradientUnits="userSpaceOnUse">
			<stop
   offset="0"
   style="stop-color:#C6AF8E;stop-opacity:0.95"
   id="stop7099" />
			<stop
   offset="0.1163"
   style="stop-color:#C1AA89;stop-opacity:0.8431"
   id="stop7101" />
			<stop
   offset="0.2478"
   style="stop-color:#B49B79;stop-opacity:0.7223"
   id="stop7103" />
			<stop
   offset="0.3252"
   style="stop-color:#AA8F6D;stop-opacity:0.6512"
   id="stop7105" />
			<stop
   offset="0.3532"
   style="stop-color:#A4825C;stop-opacity:0.4691"
   id="stop7107" />
			<stop
   offset="0.4008"
   style="stop-color:#9C7242;stop-opacity:0.1607"
   id="stop7109" />
			<stop
   offset="0.4256"
   style="stop-color:#996C39;stop-opacity:0"
   id="stop7111" />
		</radialGradient>
		
		
			<radialGradient
   id="SVGID_7_"
   cx="302.8364"
   cy="479.37701"
   r="5.8934999"
   gradientTransform="matrix(1.0111,0,0,1,-3.0644,0)"
   gradientUnits="userSpaceOnUse">
			<stop
   offset="0"
   style="stop-color:#C6AF8E;stop-opacity:0.95"
   id="stop7116" />
			<stop
   offset="0.1163"
   style="stop-color:#C1AA89;stop-opacity:0.8431"
   id="stop7118" />
			<stop
   offset="0.2478"
   style="stop-color:#B49B79;stop-opacity:0.7223"
   id="stop7120" />
			<stop
   offset="0.3252"
   style="stop-color:#AA8F6D;stop-opacity:0.6512"
   id="stop7122" />
			<stop
   offset="0.3532"
   style="stop-color:#A4825C;stop-opacity:0.4691"
   id="stop7124" />
			<stop
   offset="0.4008"
   style="stop-color:#9C7242;stop-opacity:0.1607"
   id="stop7126" />
			<stop
   offset="0.4256"
   style="stop-color:#996C39;stop-opacity:0"
   id="stop7128" />
		</radialGradient>
		
	<radialGradient
   inkscape:collect="always"
   xlink:href="#SVGID_6_"
   id="radialGradient7291"
   gradientUnits="userSpaceOnUse"
   gradientTransform="matrix(16.744994,-1.7129535,1.6929773,16.560215,-5534.3227,-7113.9826)"
   cx="293.522"
   cy="499.75391"
   r="21.6245" /><radialGradient
   inkscape:collect="always"
   xlink:href="#SVGID_3_"
   id="radialGradient7299"
   gradientUnits="userSpaceOnUse"
   cx="323.8262"
   cy="500.70901"
   fx="328.1286"
   fy="497.97131"
   r="13.0575"
   gradientTransform="matrix(16.646778,0,0,16.646778,-4821.5643,-7652.7373)" /><radialGradient
   inkscape:collect="always"
   xlink:href="#SVGID_2_"
   id="radialGradient7305"
   gradientUnits="userSpaceOnUse"
   gradientTransform="matrix(16.673413,-2.29892,2.2739499,16.490298,-5728.9902,-6847.4527)"
   cx="316.76859"
   cy="487.418"
   r="14.0811" /><linearGradient
   inkscape:collect="always"
   xlink:href="#SVGID_1_"
   id="linearGradient7312"
   gradientUnits="userSpaceOnUse"
   x1="317.30469"
   y1="478.20309"
   x2="284.50549"
   y2="451.5853"
   gradientTransform="matrix(16.646778,0,0,16.646778,-4821.5643,-7652.7373)" /></defs><sodipodi:namedview
   inkscape:window-height="1538"
   inkscape:window-width="2560"
   inkscape:pageshadow="2"
   inkscape:pageopacity="0.0"
   guidetolerance="10.0"
   gridtolerance="10.0"
   objecttolerance="10.0"
   borderopacity="1.0"
   bordercolor="#666666"
   pagecolor="#ffffff"
   id="base"
   showgrid="false"
   inkscape:zoom="6.5996633"
   inkscape:cx="14.16693"
   inkscape:cy="3.1011675"
   inkscape:window-x="0"
   inkscape:window-y="24"
   inkscape:current-layer="Layer_1" />
<path
   stroke-miterlimit="10"
   d="M -29.922427,614.90164 L -70.157689,605.82915 L -70.590506,597.023 C -72.837821,552.3597 -91.349038,159.29597 -47.434837,107.35803 C -31.40399,88.347406 -3.4374031,77.077537 11.811046,72.033563 C 121.92948,35.743587 239.38915,14.086129 326.03563,14.086129 C 354.58485,14.086129 378.04016,16.516558 395.75233,21.294184 C 439.48342,33.096749 639.56104,240.7986 679.23032,282.31566 L 682.44314,285.67831 L 682.44314,363.40212 C 682.44314,363.40212 659.73694,375.20468 656.27441,412.99287 C 652.81188,450.78106 682.44314,476.79997 682.44314,476.79997 L 682.44314,777.90689 L 521.60197,741.08422 C 521.60197,741.08422 510.8648,725.10331 477.8376,717.29597 C 444.81039,709.48863 420.88897,718.04508 420.88897,718.04508 L 250.65902,679.09162 C 250.65902,679.09162 233.51283,627.65307 163.46319,610.30713 C 93.396905,592.96119 44.721726,631.98123 44.721726,631.98123 L -29.922427,614.90164 z"
   id="path6985"
   style="fill:none;stroke:#6a5533;stroke-width:16.5;stroke-miterlimit:10;stroke-opacity:1;stroke-dasharray:none" /><path
   stroke-miterlimit="10"
   d="M 392.65603,32.530759 C 327.76689,15.018348 173.0018,31.199017 15.539924,83.087024 C -5.0854341,89.895556 -26.459897,100.66602 -38.395637,114.81578 C -80.611866,164.75612 -58.821234,596.44036 -58.821234,596.44036 L -27.258942,603.56518 L 42.94052,619.62933 C 42.94052,619.62933 90.616893,583.25612 164.14571,601.28458 C 237.67453,619.31304 258.61618,668.93708 258.61618,668.93708 L 420.38956,705.95952 C 420.38956,705.95952 443.51194,698.302 480.70084,706.62539 C 516.69118,714.66578 527.52823,730.48022 527.52823,730.48022 L 670.65723,763.24108 L 670.65723,479.91292 C 670.65723,479.91292 644.12226,450.78106 646.90227,414.35791 C 649.68228,377.93476 670.84034,358.52461 670.84034,358.52461 L 670.65723,290.27282 C 670.65723,290.28947 435.40496,44.050329 392.65603,32.530759 z"
   id="path6987"
   style="fill:none;stroke:#fff5d5;stroke-width:16.64677811;stroke-miterlimit:10" /><path
   d="M 671.75591,290.406 C 671.75591,290.406 15.656451,134.65874 -9.6300045,153.86912 C -34.91646,173.1128 -26.160255,603.68171 -26.160255,603.68171 L -57.722546,596.55689 C -57.722546,596.55689 -79.529825,164.88929 -37.29695,114.94896 C -25.36121,100.7659 -3.9701,90.012083 16.638611,83.220198 C 174.10048,31.315544 328.86558,15.134876 393.75472,32.647286 C 436.50365,44.166857 671.75591,290.406 671.75591,290.406 z"
   id="path6989"
   style="fill:#f47920" /><path
   d="M -38.012761,113.91686 C -26.060374,99.733802 -4.6692647,88.979983 15.939446,82.188098 C 173.40132,30.283444 328.14977,14.102776 393.03891,31.615186 C 435.78783,43.134757 671.0401,289.3739 671.0401,289.3739 C 671.0401,289.3739 14.957287,133.62664 -10.329169,152.83702"
   id="path7008"
   style="fill:url(#linearGradient7312)" /><path
   d="M 671.75591,290.406 L 671.75591,357.49251 C 671.75591,357.49251 650.71439,371.34263 646.55269,412.62664 C 642.42429,453.54442 671.75591,479.91292 671.75591,479.91292 L 671.75591,763.35761 L 527.57817,730.38034 C 527.57817,730.38034 528.09422,714.68243 480.43449,705.59329 C 436.7367,697.2699 420.08992,705.85964 420.08992,705.85964 L 257.71725,668.67073 C 257.71725,668.67073 241.13706,621.42718 166.92572,604.08123 C 92.714387,586.73529 42.091535,619.31304 42.091535,619.31304 L -26.160255,603.69836 C -26.160255,603.69836 -39.36115,211.89979 -11.078274,153.88577 C 0.10836059,130.91322 671.75591,290.406 671.75591,290.406 z"
   id="path7010"
   style="fill:#fee99e" /><path
   stroke-miterlimit="10"
   d="M -28.157868,601.98374 C -28.157868,601.98374 -41.475291,210.61799 -13.175768,152.63726 C -2.0057802,129.66471 668.24344,289.15749 668.24344,289.15749"
   id="path7012"
   style="fill:none;stroke:#9e6e29;stroke-width:4.99403381;stroke-linecap:round;stroke-linejoin:round;stroke-miterlimit:10" /><path
   d="M 672.22202,357.70892 L 672.22202,357.70892 C 662.45036,347.45451 650.51462,339.61387 637.1972,335.65194 C 650.51462,339.61387 662.43372,347.45451 672.22202,357.70892 z"
   id="path7014"
   style="fill:#9e6e29" /><path
   d="M 670.89028,480.0128 C 658.67155,467.19478 649.89869,450.46477 647.23521,431.07127 C 643.28992,402.62193 653.09487,375.73738 671.17328,357.72557 C 661.38497,347.47115 649.46588,339.63052 636.14845,335.66859 C 626.16039,332.73875 615.53974,331.80653 604.68604,333.2881 C 561.23795,339.26429 531.22381,381.8301 537.64947,428.37449 C 540.84565,451.6134 552.54834,471.48965 568.87882,484.74048 C 585.19267,498.02461 606.15096,504.71662 627.84171,501.73684 C 644.7049,499.42294 659.42065,491.44913 670.89028,480.0128 z"
   id="path7016"
   style="fill:#9e6e29" /><path
   d="M 670.89028,480.0128 C 658.67155,467.19478 649.89869,450.46477 647.23521,431.07127 C 643.28992,402.62193 653.09487,375.73738 671.17328,357.72557 C 661.38497,347.47115 649.46588,339.63052 636.14845,335.66859 C 626.16039,332.73875 615.53974,331.80653 604.68604,333.2881 C 561.23795,339.26429 531.22381,381.8301 537.64947,428.37449 C 540.84565,451.6134 552.54834,471.48965 568.87882,484.74048 C 585.19267,498.02461 606.15096,504.71662 627.84171,501.73684 C 644.7049,499.42294 659.42065,491.44913 670.89028,480.0128 z"
   id="path7033"
   style="fill:url(#radialGradient7305)" /><ellipse
   cx="312.98801"
   cy="479.42099"
   rx="3.52"
   ry="3.77"
   id="ellipse7035"
   sodipodi:cx="312.98801"
   sodipodi:cy="479.42099"
   sodipodi:rx="3.52"
   sodipodi:ry="3.77"
   style="fill:#9e6e29"
   transform="matrix(16.646778,0,0,16.646778,-4821.5643,-7652.7373)" /><ellipse
   cx="325.888"
   cy="495.61801"
   rx="2.437"
   ry="2.6110001"
   id="ellipse7037"
   sodipodi:cx="325.888"
   sodipodi:cy="495.61801"
   sodipodi:rx="2.437"
   sodipodi:ry="2.6110001"
   style="fill:#9e6e29"
   transform="matrix(16.646778,0,0,16.646778,-4821.5643,-7652.7373)" /><path
   d="M 535.80168,699.16763 C 535.80168,709.72169 532.10609,721.07479 527.77793,729.78106 C 524.91468,721.97372 514.51045,714.43273 486.42733,707.15808 C 467.2003,702.16405 439.35024,699.8668 420.35627,705.34359 C 420.1898,703.51244 420.08992,701.06536 420.08992,699.18428 C 420.08992,664.9585 446.00896,637.19168 477.95412,637.19168 C 509.88264,637.17503 535.80168,664.94186 535.80168,699.16763 z"
   id="path7039"
   style="fill:#9e6e29" /><path
   d="M 535.68515,699.16763 C 535.68515,709.72169 531.98956,721.07479 527.6614,729.78106 C 524.79816,721.97372 514.39392,714.43273 486.31081,707.15808 C 467.08378,702.16405 439.23372,699.8668 420.23974,705.34359 C 420.07328,703.51244 419.9734,701.06536 419.9734,699.18428 C 419.9734,664.9585 445.89243,637.19168 477.8376,637.19168 C 509.76612,637.17503 535.68515,664.94186 535.68515,699.16763 z"
   id="path7056"
   style="fill:url(#radialGradient7299)" /><ellipse
   cx="302.18301"
   cy="478.10101"
   rx="1.999"
   ry="2.1429999"
   id="ellipse7058"
   sodipodi:cx="302.18301"
   sodipodi:cy="478.10101"
   sodipodi:rx="1.999"
   sodipodi:ry="2.1429999"
   style="fill:#9e6e29"
   transform="matrix(16.646778,0,0,16.646778,-4821.5643,-7652.7373)" /><ellipse
   cx="312.98801"
   cy="479.42099"
   rx="3.52"
   ry="3.77"
   id="ellipse7075"
   sodipodi:cx="312.98801"
   sodipodi:cy="479.42099"
   sodipodi:rx="3.52"
   sodipodi:ry="3.77"
   style="fill:url(#radialGradient7224)"
   transform="matrix(16.646778,0,0,16.646778,-4821.5643,-7652.7373)" /><ellipse
   cx="325.88699"
   cy="495.61801"
   rx="2.4360001"
   ry="2.6110001"
   id="ellipse7092"
   sodipodi:cx="325.88699"
   sodipodi:cy="495.61801"
   sodipodi:rx="2.4360001"
   sodipodi:ry="2.6110001"
   style="fill:url(#radialGradient7226)"
   transform="matrix(16.646778,0,0,16.646778,-4821.5643,-7652.7373)" /><path
   d="M 281.77184,576.13129 C 285.28431,610.4403 275.94547,642.81829 258.06683,668.12139 L 258.06683,668.13804 C 275.97877,642.81829 285.31761,610.42366 281.80514,576.13129 C 274.4972,504.45027 214.25251,451.77986 147.28252,458.60504 L 147.26588,458.60504 C 214.21922,451.81316 274.46391,504.48356 281.77184,576.13129 z"
   id="path7094"
   style="fill:#9e6e29" /><path
   d="M 39.361463,600.91835 C 39.9441,606.67813 41.009494,612.2548 42.258002,617.73159 C 60.885747,608.32616 81.860687,601.88386 104.35048,599.5866 C 169.20633,592.96119 228.35233,621.61029 258.06683,668.13804 C 275.94547,642.81829 285.28431,610.4403 281.77184,576.14794 C 274.46391,504.48356 214.20257,451.81316 147.26588,458.62169 C 80.362477,465.46351 32.036881,529.25397 39.361463,600.91835 z"
   id="path7096"
   style="fill:#9e6e29" /><path
   d="M 39.361463,600.91835 C 39.9441,606.67813 41.009494,612.2548 42.258002,617.73159 C 60.885747,608.32616 81.860687,601.88386 104.35048,599.5866 C 169.20633,592.96119 228.35233,621.61029 258.06683,668.13804 C 275.94547,642.81829 285.28431,610.4403 281.77184,576.14794 C 274.46391,504.48356 214.20257,451.81316 147.26588,458.62169 C 80.362477,465.46351 32.036881,529.25397 39.361463,600.91835 z"
   id="path7113"
   style="fill:url(#radialGradient7291)" /><ellipse
   cx="302.172"
   cy="478.11401"
   rx="1.9960001"
   ry="2.1389999"
   id="ellipse7130"
   sodipodi:cx="302.172"
   sodipodi:cy="478.11401"
   sodipodi:rx="1.9960001"
   sodipodi:ry="2.1389999"
   style="fill:url(#radialGradient7230)"
   transform="matrix(16.646778,0,0,16.646778,-4821.5643,-7652.7373)" />

</svg>