<?xml version="1.0" encoding="UTF-8" standalone="no"?>
<!-- Generator: Adobe Illustrator 15.0.0, SVG Export Plug-In . SVG Version: 6.00 Build 0)  -->
<svg
   xmlns:dc="http://purl.org/dc/elements/1.1/"
   xmlns:cc="http://creativecommons.org/ns#"
   xmlns:rdf="http://www.w3.org/1999/02/22-rdf-syntax-ns#"
   xmlns:svg="http://www.w3.org/2000/svg"
   xmlns="http://www.w3.org/2000/svg"
   xmlns:sodipodi="http://sodipodi.sourceforge.net/DTD/sodipodi-0.dtd"
   xmlns:inkscape="http://www.inkscape.org/namespaces/inkscape"
   version="1.0"
   id="Layer_1"
   x="0px"
   y="0px"
   width="48"
   height="48"
   viewBox="0 0 612 792"
   enable-background="new 0 0 612 792"
   xml:space="preserve"
   sodipodi:version="0.32"
   inkscape:version="0.46"
   sodipodi:docname="Concrete.svg"
   inkscape:output_extension="org.inkscape.output.svg.inkscape"><metadata
   id="metadata2473"><rdf:RDF><cc:Work
       rdf:about=""><dc:format>image/svg+xml</dc:format><dc:type
         rdf:resource="http://purl.org/dc/dcmitype/StillImage" /></cc:Work></rdf:RDF></metadata><defs
   id="defs2471"><linearGradient
     id="linearGradient4447"><stop
       id="stop4449"
       offset="0"
       style="stop-color:#c4c4c4;stop-opacity:1;" /><stop
       style="stop-color:#606060;stop-opacity:1;"
       offset="0.08667567"
       id="stop4451" /><stop
       id="stop4453"
       offset="0.22779967"
       style="stop-color:#ffffff;stop-opacity:1;" /><stop
       style="stop-color:#bfbfbf;stop-opacity:1;"
       offset="0.49675766"
       id="stop4455" /><stop
       id="stop4457"
       offset="0.60348654"
       style="stop-color:#717171;stop-opacity:1;" /><stop
       style="stop-color:#969696;stop-opacity:1;"
       offset="0.72306687"
       id="stop4459" /><stop
       id="stop4461"
       offset="1"
       style="stop-color:#969696;stop-opacity:1;" /></linearGradient><linearGradient
     id="linearGradient4419"><stop
       style="stop-color:#c4c4c4;stop-opacity:1;"
       offset="0"
       id="stop4421" /><stop
       id="stop4427"
       offset="0.16354743"
       style="stop-color:#606060;stop-opacity:1;" /><stop
       style="stop-color:#ffffff;stop-opacity:1;"
       offset="0.35556072"
       id="stop4429" /><stop
       id="stop4431"
       offset="0.57580364"
       style="stop-color:#bfbfbf;stop-opacity:1;" /><stop
       style="stop-color:#717171;stop-opacity:1;"
       offset="0.71482235"
       id="stop4433" /><stop
       id="stop4437"
       offset="0.78749949"
       style="stop-color:#969696;stop-opacity:1;" /><stop
       style="stop-color:#969696;stop-opacity:1;"
       offset="1"
       id="stop4423" /></linearGradient><linearGradient
     id="linearGradient4403"><stop
       style="stop-color:#ffffff;stop-opacity:1;"
       offset="0"
       id="stop4405" /><stop
       style="stop-color:#ffffff;stop-opacity:0"
       offset="1"
       id="stop4407" /></linearGradient><linearGradient
     id="linearGradient4387"><stop
       style="stop-color:#464648;stop-opacity:1;"
       offset="0"
       id="stop4389" /><stop
       id="stop4395"
       offset="0.5"
       style="stop-color:#464648;stop-opacity:1;" /><stop
       style="stop-color:#464648;stop-opacity:1;"
       offset="1"
       id="stop4391" /></linearGradient><linearGradient
     id="linearGradient4375"><stop
       style="stop-color:#656565;stop-opacity:1;"
       offset="0"
       id="stop4377" /><stop
       style="stop-color:#232323;stop-opacity:1;"
       offset="1"
       id="stop4379" /></linearGradient><inkscape:perspective
     id="perspective4681"
     inkscape:persp3d-origin="306 : 264 : 1"
     inkscape:vp_z="612 : 396 : 1"
     inkscape:vp_y="0 : 1000 : 0"
     inkscape:vp_x="0 : 396 : 1"
     sodipodi:type="inkscape:persp3d" /><inkscape:perspective
     id="perspective5001"
     inkscape:persp3d-origin="306 : 264 : 1"
     inkscape:vp_z="612 : 396 : 1"
     inkscape:vp_y="0 : 1000 : 0"
     inkscape:vp_x="0 : 396 : 1"
     sodipodi:type="inkscape:persp3d" /></defs><sodipodi:namedview
   inkscape:window-height="1538"
   inkscape:window-width="2560"
   inkscape:pageshadow="2"
   inkscape:pageopacity="0.0"
   guidetolerance="10.0"
   gridtolerance="10.0"
   objecttolerance="10.0"
   borderopacity="1.0"
   bordercolor="#666666"
   pagecolor="#ffffff"
   id="base"
   showgrid="false"
   inkscape:zoom="18.666667"
   inkscape:cx="33.200391"
   inkscape:cy="20.290602"
   inkscape:window-x="-8"
   inkscape:window-y="-8"
   inkscape:current-layer="Layer_1" />
















<path
   style="fill:none;stroke:#465e76;stroke-width:22.73003769;stroke-linecap:round;stroke-linejoin:round;stroke-miterlimit:10"
   stroke-miterlimit="10"
   d="M -71.873642,470.99939 L -71.331618,158.40891 L -71.296649,142.28806 L -58.42795,137.74206 L -5.554384,119.71539 L -0.81604518,122.60035 C 10.741305,129.57673 26.879633,137.06015 32.474719,137.06015 C 40.744956,136.02856 104.42403,113.2111 157.19269,92.316948 L 157.19269,61.316672 L 213.58067,42.118532 L 680.00106,233.26067 L 692.36271,237.78919 L 692.39768,614.39096 L 631.30633,644.44707 L 619.25941,636.07192 C 611.91585,631.36855 603.31341,627.22469 598.01556,627.22469 C 595.82998,627.45199 578.31037,631.28113 475.83286,682.79089 L 475.83286,710.32921 L 407.4679,740.15801 L -71.873642,470.99939 z"
   id="path4896" /><path
   style="fill:none;stroke:#eef1f5;stroke-width:17.48464584;stroke-linecap:round;stroke-linejoin:round;stroke-miterlimit:10"
   stroke-miterlimit="10"
   d="M 169.09973,69.81421 L 169.09973,100.37737 C 121.68138,119.36569 41.444342,148.93223 32.492204,148.93223 C 19.745897,148.93223 -6.9531556,132.74145 -6.9531556,132.74145 L -59.057398,150.50585 L -59.407091,150.34848 L -59.407091,150.61075 L -59.686845,150.71566 L -59.407091,150.83805 L -59.966599,463.88314 L 408.00992,726.88717 L 463.90833,702.4786 L 463.90833,675.41237 C 505.83651,654.23847 584.86711,615.24771 598.01556,615.24771 C 611.47874,615.24771 629.54038,628.58849 631.14896,629.75997 L 631.14896,630.16211 L 680.5256,606.80263 L 680.5256,246.23428 L 680.49063,246.25176 L 213.21349,54.75993 L 169.09973,69.81421"
   id="path4898" /><polygon
   style="fill:none"
   points="311.566,394.81 284.835,382.401 284.802,400.333 311.566,415.375 311.566,394.81 "
   id="polygon4900"
   transform="matrix(17.484645,0,0,17.484645,-5037.88,-6534.7132)" /><path
   style="fill:#e1e7ef"
   d="M 682.25658,247.37078 L 633.59681,271.79683 C 633.59681,271.79683 611.42628,255.83335 594.62354,255.83335 C 577.78583,255.83335 434.86634,319.82715 434.86634,328.90168 C 434.86634,337.95873 465.18471,343.20412 465.18471,343.20412 L 409.39121,368.38201 L -57.955865,151.79971 L -5.2046911,133.8255 C -5.2046911,133.8255 21.476877,150.01628 34.240668,150.01628 C 46.986974,150.01628 205.55522,89.589343 205.55522,86.004991 C 205.55522,82.420639 170.83071,70.880773 170.83071,70.880773 L 214.92699,55.878948 L 682.25658,247.37078 z"
   id="path4902" /><path
   style="fill:#b3bdcc"
   d="M 331.23485,139.75279 C 350.97501,152.88376 349.82103,166.39939 328.76951,175.14171 L 232.23679,214.42971 C 211.18528,223.18952 185.27303,222.35025 161.40649,208.41499 L 113.48108,185.38771 C 92.114843,172.57147 109.09243,160.52455 130.16143,151.76474 L 226.04722,115.58901 C 247.08125,106.84669 257.85179,108.49024 287.75054,121.30649 L 331.23485,139.75279 z"
   id="path4904" /><path
   style="fill:#b3bdcc"
   d="M 511.30921,218.66099 C 531.66133,232.19411 530.47238,246.12937 508.75645,255.11648 L 409.4087,298.28607 C 387.72774,307.29066 359.92715,301.81796 331.81184,289.4738 L 286.33428,268.14254 C 264.3386,254.92415 280.49441,241.04134 302.17537,232.03675 L 396.01546,192.15427 C 417.69642,183.14968 432.73321,183.16716 463.55864,196.36807 L 511.30921,218.66099 z"
   id="path4906" /><polygon
   style="fill:#717f8f"
   points="314.766,413.979 311.566,415.375 311.566,394.793 314.766,393.357 314.766,413.979 "
   id="polygon4908"
   transform="matrix(17.484645,0,0,17.484645,-5037.88,-6534.7132)" /><polygon
   style="fill:#717f8f"
   points="327.152,408.508 324.328,409.844 324.328,389.298 327.152,387.886 327.152,408.508 "
   id="polygon4910"
   transform="matrix(17.484645,0,0,17.484645,-5037.88,-6534.7132)" /><path
   style="fill:#717f8f"
   d="M 633.08976,271.74437 C 632.37289,271.23732 611.26892,255.86832 594.22139,255.86832 C 576.91159,255.86832 434.46419,319.89709 434.46419,328.93665 C 434.46419,337.97621 464.81754,343.23909 464.81754,343.23909 L 462.91171,344.11332 L 465.27214,343.04676 L 465.27214,676.70624 C 507.11289,655.5673 586.5806,616.34924 599.78151,616.34924 C 613.33211,616.34924 631.74344,629.98727 632.96737,630.91395 L 632.96737,271.79683 L 633.08976,271.74437 z"
   id="path4912" /><polygon
   style="fill:#b3bdcc"
   points="311.566,415.375 284.802,400.333 284.835,382.401 311.566,394.81 311.566,415.375 "
   id="polygon4914"
   transform="matrix(17.484645,0,0,17.484645,-5037.88,-6534.7132)" /><path
   style="fill:#b3bdcc"
   d="M 170.83071,70.880773 C 170.83071,70.880773 201.79602,81.616345 203.96412,84.08168 C 206.07976,86.5645 205.18804,86.30223 202.35553,88.068179 L 170.83071,101.44393 L 170.83071,70.880773 z"
   id="path4916" /><path
   style="fill:#717f8f"
   d="M 462.47459,196.36807 C 438.60805,186.80397 426.91083,178.84846 402.13508,188.91961 C 367.02592,203.18708 301.80819,232.15914 292.06924,236.70515 C 275.09165,244.66066 267.83553,258.29868 288.88704,270.15327 C 314.36217,284.49068 329.15418,288.49466 353.65016,298.28607 C 380.20934,308.91673 404.6179,302.55232 430.61757,289.26399 C 442.68198,283.09191 460.79607,274.54192 462.01999,275.4686 L 463.01662,196.63034 L 462.47459,196.36807 z"
   id="path4918" /><path
   style="fill:#b3bdcc"
   d="M 632.87994,630.6342 C 632.87994,630.6342 612.17812,618.15016 607.94684,617.62562 L 607.94684,258.49101 C 619.08456,261.41095 632.87994,272.02413 632.87994,272.02413 L 632.87994,630.6342 z"
   id="path4920" /><path
   style="fill:#b3bdcc"
   d="M 462.75435,275.20633 L 436.99947,286.36154 L 436.31756,186.03465 C 440.7237,186.9963 463.01662,196.38555 463.01662,196.38555 L 462.75435,275.20633 z"
   id="path4924" /><path
   style="fill:#717f8f"
   d="M 289.42906,122.04084 C 265.54504,112.49423 253.86529,104.52123 229.07207,114.60987 C 193.9629,128.87734 135.0921,149.63161 125.23076,153.89787 C 101.5041,164.16135 94.265454,175.8411 117.45009,187.87053 C 144.70866,202.0331 156.72061,207.78554 181.51383,216.91253 C 201.65614,224.3435 225.38281,219.74504 257.22235,203.72911 C 269.3392,197.62696 287.40084,190.31838 288.64225,191.26255 L 289.97109,122.3206 L 289.42906,122.04084 z"
   id="path4928" /><path
   style="fill:#b3bdcc"
   d="M 289.34164,190.9828 L 263.58676,201.6834 L 263.23706,111.70742 C 267.64319,112.66907 289.93612,122.05833 289.93612,122.05833 L 289.34164,190.9828 z"
   id="path4930" /><polyline
   style="fill:none;stroke:#284964;stroke-width:0.40000001;stroke-linecap:round;stroke-linejoin:round;stroke-miterlimit:10"
   stroke-miterlimit="10"
   points="  314.542,413.873 314.563,393.563 311.781,394.938 "
   id="polyline4934"
   transform="matrix(17.484645,0,0,17.484645,-5037.88,-6534.7132)" /><line
   style="fill:none;stroke:#767c90;stroke-width:1.39877152;stroke-miterlimit:10"
   stroke-miterlimit="10"
   x1="319.71234"
   y1="325.10776"
   x2="319.71234"
   y2="559.68152"
   id="line4936" /><line
   style="fill:none;stroke:#767c90;stroke-width:1.39877152;stroke-miterlimit:10"
   stroke-miterlimit="10"
   x1="248.30531"
   y1="294.50964"
   x2="248.30531"
   y2="362.97925"
   id="line4938" /><line
   style="fill:none;stroke:#767c90;stroke-width:1.39877152;stroke-miterlimit:10"
   stroke-miterlimit="10"
   x1="9.3598814"
   y1="182.31027"
   x2="9.3598814"
   y2="310.52533"
   id="line4940" /><ellipse
   style="fill:#8192a7"
   sodipodi:ry="0.75"
   sodipodi:rx="0.182"
   sodipodi:cy="394.83301"
   sodipodi:cx="289.784"
   cx="289.784"
   cy="394.83301"
   rx="0.182"
   ry="0.75"
   id="ellipse4942"
   transform="matrix(17.484645,0,0,17.484645,-5037.88,-6534.7132)" /><ellipse
   style="fill:#8192a7"
   sodipodi:ry="0.75"
   sodipodi:rx="0.182"
   sodipodi:cy="399.95901"
   sodipodi:cx="291.95801"
   cx="291.95801"
   cy="399.95901"
   rx="0.182"
   ry="0.75"
   id="ellipse4944"
   transform="matrix(17.484645,0,0,17.484645,-5037.88,-6534.7132)" /><ellipse
   style="fill:#8192a7"
   sodipodi:ry="0.75"
   sodipodi:rx="0.182"
   sodipodi:cy="392.16699"
   sodipodi:cx="295.625"
   cx="295.625"
   cy="392.16699"
   rx="0.182"
   ry="0.75"
   id="ellipse4946"
   transform="matrix(17.484645,0,0,17.484645,-5037.88,-6534.7132)" /><ellipse
   style="fill:#8192a7"
   sodipodi:ry="0.75"
   sodipodi:rx="0.182"
   sodipodi:cy="395.70801"
   sodipodi:cx="304.35901"
   cx="304.35901"
   cy="395.70801"
   rx="0.182"
   ry="0.75"
   id="ellipse4948"
   transform="matrix(17.484645,0,0,17.484645,-5037.88,-6534.7132)" /><ellipse
   style="fill:#8192a7"
   sodipodi:ry="0.75"
   sodipodi:rx="0.182"
   sodipodi:cy="400.45901"
   sodipodi:cx="304.94299"
   cx="304.94299"
   cy="400.45901"
   rx="0.182"
   ry="0.75"
   id="ellipse4950"
   transform="matrix(17.484645,0,0,17.484645,-5037.88,-6534.7132)" /><ellipse
   style="fill:#8192a7"
   sodipodi:ry="0.75"
   sodipodi:rx="0.182"
   sodipodi:cy="402.66699"
   sodipodi:cx="305.5"
   cx="305.5"
   cy="402.66699"
   rx="0.182"
   ry="0.75"
   id="ellipse4952"
   transform="matrix(17.484645,0,0,17.484645,-5037.88,-6534.7132)" /><ellipse
   style="fill:#8192a7"
   sodipodi:ry="0.75"
   sodipodi:rx="0.183"
   sodipodi:cy="402.20901"
   sodipodi:cx="308.58301"
   cx="308.58301"
   cy="402.20901"
   rx="0.183"
   ry="0.75"
   id="ellipse4954"
   transform="matrix(17.484645,0,0,17.484645,-5037.88,-6534.7132)" /><ellipse
   style="fill:#8192a7"
   sodipodi:ry="0.75"
   sodipodi:rx="0.183"
   sodipodi:cy="408.04199"
   sodipodi:cx="307.95801"
   cx="307.95801"
   cy="408.04199"
   rx="0.183"
   ry="0.75"
   id="ellipse4956"
   transform="matrix(17.484645,0,0,17.484645,-5037.88,-6534.7132)" /><ellipse
   style="fill:#8192a7"
   sodipodi:ry="0.75"
   sodipodi:rx="0.182"
   sodipodi:cy="404.41699"
   sodipodi:cx="304.33401"
   cx="304.33401"
   cy="404.41699"
   rx="0.182"
   ry="0.75"
   id="ellipse4958"
   transform="matrix(17.484645,0,0,17.484645,-5037.88,-6534.7132)" /><ellipse
   style="fill:#3d5f79"
   sodipodi:ry="0.75"
   sodipodi:rx="0.182"
   sodipodi:cy="391.5"
   sodipodi:cx="325.25"
   cx="325.25"
   cy="391.5"
   rx="0.182"
   ry="0.75"
   id="ellipse4960"
   transform="matrix(17.484645,0,0,17.484645,-5037.88,-6534.7132)" /><ellipse
   style="fill:#3d5f79"
   sodipodi:ry="0.75"
   sodipodi:rx="0.182"
   sodipodi:cy="399.41699"
   sodipodi:cx="326.33301"
   cx="326.33301"
   cy="399.41699"
   rx="0.182"
   ry="0.75"
   id="ellipse4962"
   transform="matrix(17.484645,0,0,17.484645,-5037.88,-6534.7132)" /><ellipse
   style="fill:#3d5f79"
   sodipodi:ry="0.75"
   sodipodi:rx="0.182"
   sodipodi:cy="407.83401"
   sodipodi:cx="316.73499"
   cx="316.73499"
   cy="407.83401"
   rx="0.182"
   ry="0.75"
   id="ellipse4964"
   transform="matrix(17.484645,0,0,17.484645,-5037.88,-6534.7132)" /><ellipse
   style="fill:#3d5f79"
   sodipodi:ry="0.75"
   sodipodi:rx="0.182"
   sodipodi:cy="406.16699"
   sodipodi:cx="317.41699"
   cx="317.41699"
   cy="406.16699"
   rx="0.182"
   ry="0.75"
   id="ellipse4966"
   transform="matrix(17.484645,0,0,17.484645,-5037.88,-6534.7132)" /><ellipse
   style="fill:#3d5f79"
   sodipodi:ry="0.75"
   sodipodi:rx="0.182"
   sodipodi:cy="399.25"
   sodipodi:cx="313.5"
   cx="313.5"
   cy="399.25"
   rx="0.182"
   ry="0.75"
   id="ellipse4968"
   transform="matrix(17.484645,0,0,17.484645,-5037.88,-6534.7132)" /><ellipse
   style="fill:#c7cdd8"
   sodipodi:ry="0.75"
   sodipodi:rx="0.25"
   sodipodi:cy="393.16699"
   sodipodi:cx="311.33301"
   transform="matrix(7.7509431,15.673236,-15.673236,7.7509431,4154.5305,-7587.2154)"
   cx="311.33301"
   cy="393.16699"
   rx="0.25"
   ry="0.75"
   id="ellipse4970" /><ellipse
   style="fill:#c7cdd8"
   sodipodi:ry="0.75"
   sodipodi:rx="0.25"
   sodipodi:cy="387"
   sodipodi:cx="319.33301"
   transform="matrix(8.8070157,15.104985,-15.104985,8.8070157,3578.7594,-7999.8355)"
   cx="319.33301"
   cy="387"
   rx="0.25"
   ry="0.75"
   id="ellipse4972" /><ellipse
   style="fill:#c7cdd8"
   sodipodi:ry="0.75"
   sodipodi:rx="0.25"
   sodipodi:cy="387.16699"
   sodipodi:cx="323.33301"
   transform="matrix(8.0499306,15.521119,-15.521119,8.0499306,4021.7259,-7900.5822)"
   cx="323.33301"
   cy="387.16699"
   rx="0.25"
   ry="0.75"
   id="ellipse4974" /><ellipse
   style="fill:#c7cdd8"
   sodipodi:ry="0.75"
   sodipodi:rx="0.25"
   sodipodi:cy="388.08301"
   sodipodi:cx="302.58301"
   transform="matrix(7.8873234,15.605046,-15.605046,7.8873234,3921.8518,-7531.9062)"
   cx="302.58301"
   cy="388.08301"
   rx="0.25"
   ry="0.75"
   id="ellipse4976" /><ellipse
   style="fill:#c7cdd8"
   sodipodi:ry="0.75"
   sodipodi:rx="0.25"
   sodipodi:cy="380"
   sodipodi:cx="300.5"
   transform="matrix(7.2141645,15.926763,-15.926763,7.2141645,4101.031,-7417.7979)"
   cx="300.5"
   cy="380"
   rx="0.25"
   ry="0.75"
   id="ellipse4978" /><line
   style="fill:none;stroke:#133c57;stroke-width:1.39877152;stroke-miterlimit:10"
   stroke-miterlimit="10"
   x1="498.92993"
   y1="293.05829"
   x2="498.92993"
   y2="527.61438"
   id="line4980" /><line
   style="fill:none;stroke:#133c57;stroke-width:1.39877152;stroke-miterlimit:10"
   stroke-miterlimit="10"
   x1="535.35059"
   y1="277.02499"
   x2="535.35059"
   y2="430.01566"
   id="line4982" /><line
   style="fill:none;stroke:#133c57;stroke-width:1.39877152;stroke-miterlimit:10"
   stroke-miterlimit="10"
   x1="373.61761"
   y1="201.24629"
   x2="373.61761"
   y2="244.9579"
   id="line4984" /><line
   style="fill:none;stroke:#133c57;stroke-width:1.39877152;stroke-miterlimit:10"
   stroke-miterlimit="10"
   x1="198.77118"
   y1="125.48518"
   x2="198.77118"
   y2="218.73093"
   id="line4986" /><line
   style="fill:none;stroke:#133c57;stroke-width:1.39877152;stroke-miterlimit:10"
   stroke-miterlimit="10"
   x1="181.28653"
   y1="132.77667"
   x2="181.28653"
   y2="173.56796"
   id="line4988" /><line
   style="fill:none;stroke:#43556d;stroke-width:1.39877152;stroke-miterlimit:10"
   stroke-miterlimit="10"
   x1="449.37872"
   y1="191.0526"
   x2="449.37872"
   y2="250.78043"
   id="line4990" /><line
   style="fill:none;stroke:#43556d;stroke-width:1.39877152;stroke-miterlimit:10"
   stroke-miterlimit="10"
   x1="472.70297"
   y1="211.45758"
   x2="472.70297"
   y2="271.18488"
   id="line4992" /><line
   style="fill:none;stroke:#43556d;stroke-width:1.39877152;stroke-miterlimit:10"
   stroke-miterlimit="10"
   x1="308.0502"
   y1="129.85634"
   x2="308.0502"
   y2="158.98604"
   id="line4994" /></svg>