<?xml version="1.0" encoding="UTF-8" standalone="no"?>
<svg
   xmlns:dc="http://purl.org/dc/elements/1.1/"
   xmlns:cc="http://creativecommons.org/ns#"
   xmlns:rdf="http://www.w3.org/1999/02/22-rdf-syntax-ns#"
   xmlns:svg="http://www.w3.org/2000/svg"
   xmlns="http://www.w3.org/2000/svg"
   xmlns:sodipodi="http://sodipodi.sourceforge.net/DTD/sodipodi-0.dtd"
   xmlns:inkscape="http://www.inkscape.org/namespaces/inkscape"
   width="48px"
   height="48px"
   id="svg23252"
   sodipodi:version="0.32"
   inkscape:version="1.0.1 (3bc2e813f5, 2020-09-07)"
   sodipodi:docname="constant.svg"
   inkscape:output_extension="org.inkscape.output.svg.inkscape"
   version="1.1">
  <defs
     id="defs23254">
    <inkscape:perspective
       sodipodi:type="inkscape:persp3d"
       inkscape:vp_x="0 : 24 : 1"
       inkscape:vp_y="0 : 1000 : 0"
       inkscape:vp_z="48 : 24 : 1"
       inkscape:persp3d-origin="24 : 16 : 1"
       id="perspective23260" />
  </defs>
  <sodipodi:namedview
     id="base"
     pagecolor="#ffffff"
     bordercolor="#666666"
     borderopacity="1.0"
     inkscape:pageopacity="0.0"
     inkscape:pageshadow="2"
     inkscape:zoom="7"
     inkscape:cx="2.4285714"
     inkscape:cy="24"
     inkscape:current-layer="layer1"
     showgrid="true"
     inkscape:grid-bbox="true"
     inkscape:document-units="px"
     inkscape:window-width="2560"
     inkscape:window-height="1377"
     inkscape:window-x="-8"
     inkscape:window-y="-8"
     inkscape:document-rotation="0"
     inkscape:window-maximized="1" />
  <metadata
     id="metadata23257">
    <rdf:RDF>
      <cc:Work
         rdf:about="">
        <dc:format>image/svg+xml</dc:format>
        <dc:type
           rdf:resource="http://purl.org/dc/dcmitype/StillImage" />
      </cc:Work>
    </rdf:RDF>
  </metadata>
  <g
     id="layer1"
     inkscape:label="Layer 1"
     inkscape:groupmode="layer">
    <path
       style="font-style:normal;font-variant:normal;font-weight:normal;font-stretch:normal;font-size:14px;font-family:'Frutiger Linotype';-inkscape-font-specification:'Frutiger Linotype';fill:#ffffff;fill-opacity:1;stroke:#2e3436;stroke-width:5;stroke-linecap:butt;stroke-linejoin:miter;stroke-miterlimit:4;stroke-dasharray:none;stroke-opacity:1"
       d="M 14.691415,35.624989 H 10.220791 V 15.959953 L 4.7772872,19.670336 3.2484718,16.400563 10.382936,11.414736 h 4.308479 z"
       id="path23273" />
    <path
       id="path23269"
       style="font-style:normal;font-variant:normal;font-weight:normal;font-stretch:normal;font-size:14px;font-family:'Frutiger Linotype';-inkscape-font-specification:'Frutiger Linotype';fill:#ffffff;fill-opacity:1;stroke:#2e3436;stroke-width:5;stroke-linecap:butt;stroke-linejoin:miter;stroke-miterlimit:4;stroke-dasharray:none;stroke-opacity:1"
       d="m 45.568272,23.519863 c -2.3e-5,3.509412 -1.06556,6.485446 -3.196611,8.928111 -2.177421,2.504508 -4.895312,3.756765 -8.153675,3.756765 -3.289277,0 -6.022609,-1.252257 -8.200004,-3.756765 -2.115636,-2.442665 -3.17345,-5.418699 -3.173448,-8.928111 -2e-6,-3.58669 0.9806,-6.562725 2.94181,-8.928113 2.100181,-2.504484 4.910724,-3.75674 8.431642,-3.756765 3.505445,2.5e-5 6.300547,1.260008 8.385312,3.779955 1.976625,2.365389 2.964951,5.333692 2.964974,8.904923 z m -4.748588,0 c -2.2e-5,-2.210759 -0.532788,-4.150976 -1.598308,-5.820665 -1.250863,-1.947931 -2.918658,-2.921906 -5.00339,-2.921931 -2.100201,2.5e-5 -3.775718,0.966267 -5.026558,2.898742 -1.080986,1.669687 -1.621475,3.617636 -1.621467,5.843854 -8e-6,2.288079 0.525037,4.243759 1.575143,5.867042 1.219952,1.91704 2.910911,2.875552 5.072882,2.875549 2.146502,3e-6 3.822017,-0.935323 5.026555,-2.805978 1.050074,-1.607825 1.575121,-3.586695 1.575143,-5.936613 z" />
    <ellipse
       style="display:inline;overflow:visible;visibility:visible;opacity:1;fill:#ffffff;fill-opacity:1;fill-rule:evenodd;stroke:#2e3436;stroke-width:5;stroke-linecap:round;stroke-linejoin:miter;stroke-miterlimit:4;stroke-dasharray:none;stroke-dashoffset:2.6;stroke-opacity:1;marker:none;marker-start:none;marker-mid:none;marker-end:none;enable-background:accumulate"
       id="path23284"
       cx="20.296879"
       cy="32.427002"
       rx="3.4649737"
       ry="3.4687819" />
    <path
       style="font-style:normal;font-variant:normal;font-weight:normal;font-stretch:normal;font-size:14px;font-family:'Frutiger Linotype';-inkscape-font-specification:'Frutiger Linotype';fill:#ffffff;fill-opacity:1;stroke:none;stroke-width:5;stroke-linecap:butt;stroke-linejoin:miter;stroke-miterlimit:4;stroke-dasharray:none;stroke-opacity:1"
       d="M 14.691415,35.624989 H 10.220791 V 15.959953 L 4.7772872,19.670336 3.2484718,16.400563 10.382936,11.414736 h 4.308479 z"
       id="path1877" />
    <path
       id="path1879"
       style="font-style:normal;font-variant:normal;font-weight:normal;font-stretch:normal;font-size:14px;font-family:'Frutiger Linotype';-inkscape-font-specification:'Frutiger Linotype';fill:#ffffff;fill-opacity:1;stroke:none;stroke-width:5;stroke-linecap:butt;stroke-linejoin:miter;stroke-miterlimit:4;stroke-dasharray:none;stroke-opacity:1"
       d="m 45.568272,23.519863 c -2.3e-5,3.509412 -1.06556,6.485446 -3.196611,8.928111 -2.177421,2.504508 -4.895312,3.756765 -8.153675,3.756765 -3.289277,0 -6.022609,-1.252257 -8.200004,-3.756765 -2.115636,-2.442665 -3.17345,-5.418699 -3.173448,-8.928111 -2e-6,-3.58669 0.9806,-6.562725 2.94181,-8.928113 2.100181,-2.504484 4.910724,-3.75674 8.431642,-3.756765 3.505445,2.5e-5 6.300547,1.260008 8.385312,3.779955 1.976625,2.365389 2.964951,5.333692 2.964974,8.904923 z m -4.748588,0 c -2.2e-5,-2.210759 -0.532788,-4.150976 -1.598308,-5.820665 -1.250863,-1.947931 -2.918658,-2.921906 -5.00339,-2.921931 -2.100201,2.5e-5 -3.775718,0.966267 -5.026558,2.898742 -1.080986,1.669687 -1.621475,3.617636 -1.621467,5.843854 -8e-6,2.288079 0.525037,4.243759 1.575143,5.867042 1.219952,1.91704 2.910911,2.875552 5.072882,2.875549 2.146502,3e-6 3.822017,-0.935323 5.026555,-2.805978 1.050074,-1.607825 1.575121,-3.586695 1.575143,-5.936613 z" />
    <ellipse
       style="display:inline;overflow:visible;visibility:visible;opacity:1;fill:#ffffff;fill-opacity:1;fill-rule:evenodd;stroke:none;stroke-width:5;stroke-linecap:round;stroke-linejoin:miter;stroke-miterlimit:4;stroke-dasharray:none;stroke-dashoffset:2.6;stroke-opacity:1;marker:none;marker-start:none;marker-mid:none;marker-end:none;enable-background:accumulate"
       id="ellipse1881"
       cx="20.296879"
       cy="32.427002"
       rx="3.4649737"
       ry="3.4687819" />
  </g>
</svg>
