<?xml version="1.0" encoding="UTF-8" standalone="no"?>
<svg
   xmlns:dc="http://purl.org/dc/elements/1.1/"
   xmlns:cc="http://creativecommons.org/ns#"
   xmlns:rdf="http://www.w3.org/1999/02/22-rdf-syntax-ns#"
   xmlns:svg="http://www.w3.org/2000/svg"
   xmlns="http://www.w3.org/2000/svg"
   xmlns:xlink="http://www.w3.org/1999/xlink"
   xmlns:sodipodi="http://sodipodi.sourceforge.net/DTD/sodipodi-0.dtd"
   xmlns:inkscape="http://www.inkscape.org/namespaces/inkscape"
   sodipodi:docname="cvexbuilder.svg"
   inkscape:version="1.0beta2 (95f4e85, 2020-03-08)"
   width="48.0px"
   height="48.0px"
   viewBox="0 0 48.0 48.0"
   version="1.1"
   id="SVGRoot">
  <defs
     id="defs833">
    <linearGradient
       id="linearGradient2572"
       inkscape:collect="always">
      <stop
         id="stop2568"
         offset="0"
         style="stop-color:#4f2e58;stop-opacity:1" />
      <stop
         style="stop-color:#ad7fa8;stop-opacity:1"
         offset="0.5815661"
         id="stop2576" />
      <stop
         id="stop2578"
         offset="0.59431231"
         style="stop-color:#bc97b8;stop-opacity:1" />
      <stop
         id="stop2570"
         offset="1"
         style="stop-color:#5c3566;stop-opacity:1" />
    </linearGradient>
    <linearGradient
       id="linearGradient2530"
       inkscape:collect="always">
      <stop
         id="stop2526"
         offset="0"
         style="stop-color:#e3bde1;stop-opacity:1;" />
      <stop
         id="stop2528"
         offset="1"
         style="stop-color:#e3bde1;stop-opacity:0;" />
    </linearGradient>
    <linearGradient
       id="linearGradient2480"
       inkscape:collect="always">
      <stop
         id="stop2476"
         offset="0"
         style="stop-color:#5c3566;stop-opacity:1" />
      <stop
         id="stop2478"
         offset="1"
         style="stop-color:#a878a6;stop-opacity:1" />
    </linearGradient>
    <linearGradient
       id="linearGradient9164">
      <stop
         style="stop-color:#672179;stop-opacity:1;"
         offset="0"
         id="stop9166" />
      <stop
         style="stop-color:#c666bc;stop-opacity:1;"
         offset="1"
         id="stop9168" />
    </linearGradient>
    <linearGradient
       id="linearGradient9239">
      <stop
         style="stop-color:#894f98;stop-opacity:1;"
         offset="0"
         id="stop9241" />
      <stop
         style="stop-color:#321c37;stop-opacity:1;"
         offset="1"
         id="stop9243" />
    </linearGradient>
    <linearGradient
       id="linearGradient9273">
      <stop
         style="stop-color:#361f3c;stop-opacity:1;"
         offset="0"
         id="stop9275" />
      <stop
         style="stop-color:#6a3d76;stop-opacity:1;"
         offset="1"
         id="stop9277" />
    </linearGradient>
    <linearGradient
       id="linearGradient9231">
      <stop
         style="stop-color:#6f2b8c;stop-opacity:1;"
         offset="0"
         id="stop9233" />
      <stop
         style="stop-color:#ad7fa8;stop-opacity:1;"
         offset="1"
         id="stop9235" />
    </linearGradient>
    <linearGradient
       id="linearGradient9281">
      <stop
         style="stop-color:#361f3c;stop-opacity:1;"
         offset="0"
         id="stop9283" />
      <stop
         style="stop-color:#894f99;stop-opacity:1;"
         offset="1"
         id="stop9285" />
    </linearGradient>
    <linearGradient
       inkscape:collect="always"
       id="linearGradient13633">
      <stop
         style="stop-color:white;stop-opacity:1;"
         offset="0"
         id="stop13635" />
      <stop
         style="stop-color:white;stop-opacity:0;"
         offset="1"
         id="stop13637" />
    </linearGradient>
    <linearGradient
       inkscape:collect="always"
       xlink:href="#linearGradient9212"
       id="linearGradient13593"
       gradientUnits="userSpaceOnUse"
       x1="27.069448"
       y1="13.163941"
       x2="26.265755"
       y2="44.863716"
       gradientTransform="matrix(-0.956467,0,0,0.956438,47.104191,11.641813)" />
    <linearGradient
       id="linearGradient9212">
      <stop
         style="stop-color:#ffd00d;stop-opacity:1;"
         offset="0"
         id="stop9214" />
      <stop
         id="stop9220"
         offset="0.5"
         style="stop-color:#ff8841;stop-opacity:1;" />
      <stop
         style="stop-color:#a40000;stop-opacity:1;"
         offset="1"
         id="stop9216" />
    </linearGradient>
    <linearGradient
       inkscape:collect="always"
       xlink:href="#linearGradient9202"
       id="linearGradient13595"
       gradientUnits="userSpaceOnUse"
       x1="24.910717"
       y1="13.163941"
       x2="23.853056"
       y2="46.704987"
       gradientTransform="matrix(-0.956467,0,0,0.956438,47.104191,11.641813)" />
    <linearGradient
       id="linearGradient9202">
      <stop
         style="stop-color:#ffec6c;stop-opacity:1;"
         offset="0"
         id="stop9204" />
      <stop
         id="stop9210"
         offset="0.625"
         style="stop-color:#ffa337;stop-opacity:1;" />
      <stop
         style="stop-color:#c36000;stop-opacity:1;"
         offset="1"
         id="stop9206" />
    </linearGradient>
    <radialGradient
       inkscape:collect="always"
       xlink:href="#linearGradient9352"
       id="radialGradient9358"
       cx="24.063492"
       cy="42.698414"
       fx="24.063492"
       fy="42.698414"
       r="21.015873"
       gradientTransform="matrix(0.998112,0,0,0.26170772,0.71934141,31.334205)"
       gradientUnits="userSpaceOnUse" />
    <linearGradient
       id="linearGradient9352">
      <stop
         style="stop-color:#2e3436;stop-opacity:0.69072163;"
         offset="0"
         id="stop9354" />
      <stop
         style="stop-color:#2e3436;stop-opacity:0;"
         offset="1"
         id="stop9356" />
    </linearGradient>
    <linearGradient
       gradientTransform="matrix(0.956467,0,0,0.956438,0.24247732,-6.4848424)"
       y2="8.3412657"
       x2="24.000021"
       y1="29.166664"
       x1="24.000021"
       gradientUnits="userSpaceOnUse"
       id="linearGradient13611-1"
       xlink:href="#linearGradient9164"
       inkscape:collect="always" />
    <linearGradient
       gradientTransform="matrix(0.956467,0,0,0.956438,-22.394614,-0.23793537)"
       y2="5.0158725"
       x2="33.325397"
       y1="19.365078"
       x1="24.388889"
       gradientUnits="userSpaceOnUse"
       id="linearGradient13599-9"
       xlink:href="#linearGradient9231"
       inkscape:collect="always" />
    <linearGradient
       gradientTransform="matrix(0.956467,0,0,0.956438,-22.394614,-0.23793537)"
       y2="1.0158725"
       x2="32.563492"
       y1="14.730158"
       x1="24.515873"
       gradientUnits="userSpaceOnUse"
       id="linearGradient13601-4"
       xlink:href="#linearGradient9281"
       inkscape:collect="always" />
    <linearGradient
       gradientTransform="matrix(0.956467,0,0,0.956438,-57.692868,-1.3535365)"
       y2="5.0158725"
       x2="33.325397"
       y1="19.365078"
       x1="24.388889"
       gradientUnits="userSpaceOnUse"
       id="linearGradient13599-0"
       xlink:href="#linearGradient9231"
       inkscape:collect="always" />
    <linearGradient
       y2="9.2167273"
       x2="93.862549"
       y1="8.9562931"
       x1="66.256142"
       gradientTransform="matrix(0.956467,0,0,0.956438,-51.637753,-1.1935338)"
       gradientUnits="userSpaceOnUse"
       id="linearGradient2484"
       xlink:href="#linearGradient2480"
       inkscape:collect="always" />
    <linearGradient
       gradientUnits="userSpaceOnUse"
       y2="29.77898"
       x2="24.573149"
       y1="2.2563736"
       x1="18.238094"
       id="linearGradient13639-2"
       xlink:href="#linearGradient13633"
       inkscape:collect="always"
       gradientTransform="translate(-3.4750993,-9.2475866)" />
    <linearGradient
       gradientUnits="userSpaceOnUse"
       y2="22.980072"
       x2="27.992395"
       y1="12.174741"
       x1="27.994204"
       id="linearGradient2532"
       xlink:href="#linearGradient2530"
       inkscape:collect="always" />
    <linearGradient
       y2="8.3412657"
       x2="24.000021"
       y1="29.166664"
       x1="24.000021"
       gradientTransform="matrix(1.3396261,0,0,1.3395855,-86.395851,-10.66204)"
       gradientUnits="userSpaceOnUse"
       id="linearGradient2555"
       xlink:href="#linearGradient9164"
       inkscape:collect="always" />
    <linearGradient
       gradientUnits="userSpaceOnUse"
       y2="32.00473"
       x2="14.877344"
       y1="31.950462"
       x1="-6.4214926"
       id="linearGradient2574"
       xlink:href="#linearGradient2572"
       inkscape:collect="always" />
    <linearGradient
       y2="32.00473"
       x2="14.877344"
       y1="31.950462"
       x1="-6.4214926"
       gradientUnits="userSpaceOnUse"
       id="linearGradient2596"
       xlink:href="#linearGradient2572"
       inkscape:collect="always" />
  </defs>
  <sodipodi:namedview
     inkscape:snap-global="false"
     inkscape:window-maximized="1"
     inkscape:window-y="-8"
     inkscape:window-x="-8"
     inkscape:window-height="1557"
     inkscape:window-width="2880"
     showgrid="true"
     inkscape:document-rotation="0"
     inkscape:current-layer="layer1"
     inkscape:document-units="px"
     inkscape:cy="19.177948"
     inkscape:cx="7.6053404"
     inkscape:zoom="15.839192"
     inkscape:pageshadow="2"
     inkscape:pageopacity="0.0"
     borderopacity="1.0"
     bordercolor="#666666"
     pagecolor="#ffffff"
     id="base">
    <inkscape:grid
       type="xygrid"
       id="grid1403" />
  </sodipodi:namedview>
  <metadata
     id="metadata836">
    <rdf:RDF>
      <cc:Work
         rdf:about="">
        <dc:format>image/svg+xml</dc:format>
        <dc:type
           rdf:resource="http://purl.org/dc/dcmitype/StillImage" />
        <dc:title></dc:title>
      </cc:Work>
    </rdf:RDF>
  </metadata>
  <g
     id="layer1"
     inkscape:groupmode="layer"
     inkscape:label="Layer 1">
    <ellipse
       ry="5.5000081"
       rx="20.976194"
       cy="42.508694"
       cx="24.7374"
       style="color:#000000;display:inline;overflow:visible;visibility:visible;opacity:1;fill:url(#radialGradient9358);fill-opacity:1;fill-rule:evenodd;stroke:none;stroke-width:0.494208;stroke-linecap:butt;stroke-linejoin:miter;stroke-miterlimit:4;stroke-dasharray:none;stroke-dashoffset:0;stroke-opacity:1;marker:none;marker-start:none;marker-mid:none;marker-end:none"
       id="path9350" />
    <g
       style="stroke-width:1.06136"
       transform="matrix(0.94205447,0,0,0.94230434,0.89804961,-0.12285442)"
       id="g2594">
      <g
         transform="matrix(1.1633714,0,0,1.1633714,25.195356,-7.6954852)"
         style="font-style:normal;font-variant:normal;font-weight:900;font-stretch:normal;font-size:40px;line-height:125%;font-family:Arial;-inkscape-font-specification:'Arial Heavy';font-variant-ligatures:normal;font-variant-caps:normal;font-variant-numeric:normal;font-variant-east-asian:normal;font-variation-settings:normal;letter-spacing:0px;word-spacing:0px;opacity:1;vector-effect:none;fill:url(#linearGradient2574);fill-opacity:1;stroke:#311c36;stroke-width:0.912322px;stroke-linecap:butt;stroke-linejoin:miter;stroke-miterlimit:4;stroke-dasharray:none;stroke-dashoffset:0;stroke-opacity:1;marker:none;marker-start:none;marker-mid:none;marker-end:none;stop-color:#000000;stop-opacity:1"
         id="g2391"
         aria-label="C">
        <path
           style="font-variation-settings:normal;vector-effect:none;fill:url(#linearGradient2596);fill-opacity:1;stroke:#311c36;stroke-width:0.912322px;stroke-linecap:butt;stroke-linejoin:miter;stroke-miterlimit:4;stroke-dasharray:none;stroke-dashoffset:0;stroke-opacity:1;marker:none;marker-start:none;marker-mid:none;marker-end:none;stop-color:#000000;stop-opacity:1"
           inkscape:connector-curvature="0"
           id="path2389"
           d="m 5.9132805,28.201805 7.7539085,2.34375 2.182279,4.988734 L 9.2451745,44.513436 -7.7836074,38.1737 C -10.313974,32.488378 -10.429137,26.303418 -6.9094719,22.696004 l 2.8032185,-2.873105 c -0.807291,1.197917 -1.210937,3.079427 -1.210937,5.644531 0,3.177083 0.481771,5.358073 1.445312,6.542969 0.9635425,1.171875 2.31771,1.757812 4.06250145,1.757812 1.69270945,0 2.96875095,-0.47526 3.82812595,-1.425781 0.8723965,-0.950521 1.5039065,-2.330729 1.8945315,-4.140625 z"
           sodipodi:nodetypes="cccccscscscc" />
      </g>
      <path
         style="font-variation-settings:normal;opacity:1;vector-effect:none;fill:url(#linearGradient2484);fill-opacity:1;fill-rule:evenodd;stroke:#311c36;stroke-width:1.06136px;stroke-linecap:butt;stroke-linejoin:miter;stroke-miterlimit:4;stroke-dasharray:none;stroke-dashoffset:0;stroke-opacity:1;marker:none;marker-start:none;marker-mid:none;marker-end:none;stop-color:#000000;stop-opacity:1"
         d="M 6.502857,16.667517 11.806158,5.9977808 C 12.877587,4.5996285 16.769615,0.6005496 25.276792,0.66066919 33.783969,0.72078879 36.849906,4.4038177 38.033141,6.5136892 L 43.31029,18.498419 39.699522,19.341347 25.68941,12.540249 Z"
         id="path2355"
         inkscape:connector-curvature="0"
         sodipodi:nodetypes="cczccccc" />
      <path
         style="font-style:normal;font-variant:normal;font-weight:900;font-stretch:normal;font-size:40px;line-height:125%;font-family:Arial;-inkscape-font-specification:'Arial Heavy';font-variant-ligatures:normal;font-variant-caps:normal;font-variant-numeric:normal;font-variant-east-asian:normal;font-variation-settings:normal;letter-spacing:0px;word-spacing:0px;vector-effect:none;fill:url(#linearGradient2555);fill-opacity:1;stroke:none;stroke-width:1.06136px;stroke-linecap:butt;stroke-linejoin:miter;stroke-miterlimit:4;stroke-dasharray:none;stroke-dashoffset:0;stroke-opacity:1;stop-color:#000000"
         inkscape:connector-curvature="0"
         id="path2292"
         d="m 32.735254,30.509025 10.86011,3.282652 q -1.094217,4.568359 -3.446786,7.632168 -2.352567,3.063809 -5.854063,4.623068 -3.47414,1.55926 -8.863161,1.55926 -6.53795,0 -10.695977,-1.887525 -4.130671,-1.91488 -7.1397686,-6.702082 -3.0090988,-4.787202 -3.0090988,-12.255236 0,-9.957379 5.2795991,-15.29169 5.3069553,-5.3616656 14.9907793,-5.3616656 7.577458,0 11.899616,3.063809 4.349515,3.0638086 6.455883,9.4102706 l -10.942175,2.434633 q -0.574463,-1.832813 -1.203639,-2.680832 -1.039506,-1.422482 -2.544055,-2.188435 -1.50455,-0.765952 -3.364719,-0.765952 -4.212737,0 -6.455884,3.392074 -1.696036,2.516701 -1.696036,7.905721 0,6.674727 2.024302,9.164072 2.024303,2.461989 5.689931,2.461989 3.556207,0 5.361665,-1.996947 1.832815,-1.996946 2.653477,-5.799352 z" />
      <path
         id="path2460"
         style="fill:#fcaf3e;fill-opacity:0.616519;fill-rule:evenodd;stroke:none;stroke-width:1.06136px;stroke-linecap:butt;stroke-linejoin:miter;stroke-opacity:1"
         d="m 13.248047,16.943359 c -0.06855,3.720214 -1.625997,4.740163 -2.048828,9.125 -0.86916,-3.138403 -2.1008432,-2.091893 -2.3593752,-6.15039 -1.3481361,2.036464 -3.1042067,3.403409 -3.5625,5.785156 v 2.214844 l 0.515625,6.160156 3.2109374,6.277344 5.3398438,4.890625 8.357422,1.9375 8.472656,-0.517578 6.710938,-3.423828 3.857422,-5.529297 -1.246094,-4.857422 -7.761719,-2.345703 c -0.547108,2.534937 -1.430467,4.46753 -2.652344,5.798828 -1.203638,1.331298 -2.990523,1.996094 -5.361328,1.996094 -2.443752,0 -4.341871,-0.819612 -5.691406,-2.460938 -1.039556,-0.934033 -2.023964,-3.501408 -2.123047,-4.982422 -3.821591,-4.699814 -0.57623,-8.607504 -3.658203,-13.917969 z"
         inkscape:connector-curvature="0"
         sodipodi:nodetypes="cccccccccccccccsccc" />
      <path
         inkscape:connector-curvature="0"
         sodipodi:nodetypes="cccccccccccccccccccc"
         id="path9196"
         d="m 6.9293076,33.605015 c -0.389921,-1.846033 0.8299557,-3.881793 2.1780917,-5.918257 0.258532,4.058497 1.4898777,3.010186 2.3590377,6.148589 0.422831,-4.384837 1.98008,-5.404607 2.048629,-9.124821 3.081973,5.310465 -0.162924,9.219623 3.658667,13.919437 0.707937,-0.507485 0.996952,-0.870728 1.666693,-2.467142 1.049751,2.399656 3.352321,4.210255 4.825378,5.355674 1.186211,-0.666088 1.426976,-1.517677 2.167399,-2.708308 0.643351,1.95677 1.066081,2.220613 1.898263,4.056172 2.050761,-1.059468 2.670232,-3.611825 3.072415,-6.465415 0.672834,1.418998 2.050974,0.623979 3.184533,1.868986 0.97087,-1.930932 0.437282,-4.042209 1.828314,-6.192573 1.761186,4.774549 4.349712,1.982834 4.581742,5.253302 l 0.266224,2.903816 -6.053155,5.136228 -9.151828,1.617216 -9.491389,-1.410176 -6.0688597,-4.53483 -3.1937446,-6.070646 z"
         style="fill:url(#linearGradient13593);fill-opacity:1;fill-rule:evenodd;stroke:url(#linearGradient13595);stroke-width:1.06136px;stroke-linecap:butt;stroke-linejoin:miter;stroke-opacity:1" />
      <path
         id="path2343"
         style="fill:none;fill-opacity:1;fill-rule:evenodd;stroke:#fce94f;stroke-width:0.796027;stroke-linecap:butt;stroke-linejoin:miter;stroke-miterlimit:4;stroke-dasharray:none;stroke-opacity:1"
         d="m 13.867188,27.201172 c -0.172277,0.740693 -0.393568,1.397413 -0.623047,2.042969 -0.4523,1.272382 -0.918563,2.53376 -1.123047,4.654297 -0.07022,0.724523 -1.091415,0.814401 -1.28711,0.113281 C 10.425737,32.5376 10.011975,32.180964 9.5214844,31.484375 9.223255,31.060833 8.9704743,30.428468 8.765625,29.613281 7.9656058,31.014254 6.5188863,33.261287 6.7240513,34.335101 l 2.4372213,5.492186 6.1336494,5.217635 9.396205,2.192802 10.241071,-1.902624 5.373606,-4.592634 -0.07087,-2.540457 c -0.0648,-0.549903 -0.712721,-1.830536 -0.859933,-1.9774 -0.16671,-0.166315 -0.464478,-0.290195 -0.927734,-0.486328 -0.733968,-0.310747 -1.723496,-0.912698 -2.56836,-2.384765 -0.208943,0.601865 -0.361074,1.21886 -0.46289,1.86914 -0.170138,1.086637 -0.285859,2.239993 -0.839844,3.341797 -0.206392,0.413261 -0.76349,0.490242 -1.074219,0.148438 -0.430723,-0.473071 -0.834563,-0.53365 -1.429687,-0.673829 -0.269426,-0.06346 -0.590222,-0.180938 -0.898438,-0.353515 -0.17771,0.993471 -0.327247,2.00794 -0.679687,2.869141 -0.498991,1.219302 -1.268242,2.28031 -2.460938,2.896484 -0.333776,0.171415 -0.743083,0.02905 -0.898437,-0.3125 -0.584074,-1.288303 -0.948932,-2.230342 -1.359375,-3.289063 -0.08914,0.189688 -0.174886,0.353831 -0.275391,0.546875 -0.325888,0.625947 -0.765606,1.274398 -1.511719,1.69336 -0.230663,0.130541 -0.517165,0.109748 -0.726562,-0.05273 -1.250542,-0.972395 -3.125176,-2.484544 -4.376953,-4.501953 -0.10194,0.190637 -0.21602,0.488534 -0.322266,0.642578 -0.291239,0.422266 -0.62562,0.713754 -1.005859,0.986328 -0.282263,0.202393 -0.673282,0.1502 -0.892579,-0.11914 -2.024508,-2.489752 -2.201872,-4.881706 -2.253906,-7.128906 -0.03642,-1.57307 -0.05347,-3.089965 -0.542968,-4.714844 z"
         inkscape:connector-curvature="0"
         sodipodi:nodetypes="csccsccccccccsscsccscscccscccsccssc" />
      <g
         transform="matrix(1.4005984,0,0,1.4005984,-14.072097,-8.9903783)"
         style="font-style:normal;font-variant:normal;font-weight:900;font-stretch:normal;font-size:40px;line-height:125%;font-family:Arial;-inkscape-font-specification:'Arial Heavy';font-variant-ligatures:normal;font-variant-caps:normal;font-variant-numeric:normal;font-variant-east-asian:normal;font-variation-settings:normal;letter-spacing:0px;word-spacing:0px;opacity:1;vector-effect:none;fill:none;fill-opacity:1;stroke:#fce94f;stroke-width:0.757798px;stroke-linecap:butt;stroke-linejoin:miter;stroke-miterlimit:4;stroke-dasharray:none;stroke-dashoffset:0;stroke-opacity:1;stop-color:#000000;stop-opacity:1"
         id="g2335"
         aria-label="C">
        <path
           id="path2333"
           style="font-variation-settings:normal;vector-effect:none;fill:none;fill-opacity:1;stroke:#fce94f;stroke-width:0.757798px;stroke-linecap:butt;stroke-linejoin:miter;stroke-miterlimit:4;stroke-dasharray:none;stroke-dashoffset:0;stroke-opacity:1;stop-color:#000000;stop-opacity:1"
           sodipodi:type="inkscape:offset"
           inkscape:radius="-0.76092505"
           inkscape:original="M 27.794922 10.779297 C 23.185547 10.779297 19.617839 12.055339 17.091797 14.607422 C 14.578776 17.146485 13.322266 20.785807 13.322266 25.525391 C 13.322266 29.080078 14.038411 31.996745 15.470703 34.275391 C 16.902994 36.554037 18.602213 38.149089 20.568359 39.060547 C 22.547526 39.958984 25.093099 40.408203 28.205078 40.408203 C 30.770182 40.408203 32.879557 40.037109 34.533203 39.294922 C 36.19987 38.552735 37.593099 37.452474 38.712891 35.994141 C 39.832683 34.535807 40.652995 32.719401 41.173828 30.544922 L 33.419922 28.201172 C 33.029297 30.011068 32.397787 31.391276 31.525391 32.341797 C 30.666016 33.292318 29.389974 33.767578 27.697266 33.767578 C 25.952474 33.767578 24.598308 33.18164 23.634766 32.009766 C 22.671224 30.82487 22.189453 28.64388 22.189453 25.466797 C 22.189453 22.901693 22.593099 21.020182 23.400391 19.822266 C 24.468099 18.207682 26.004558 17.400391 28.009766 17.400391 C 28.895182 17.400391 29.695963 17.582682 30.412109 17.947266 C 31.128255 18.311849 31.733724 18.832682 32.228516 19.509766 C 32.527995 19.913412 32.814453 20.551433 33.087891 21.423828 L 40.900391 19.685547 C 39.897787 16.664714 38.361328 14.42513 36.291016 12.966797 C 34.233724 11.508464 31.401693 10.779297 27.794922 10.779297 z "
           d="m 27.794922,11.541016 c -4.468941,0 -7.798853,1.213943 -10.16211,3.601562 -2.3465,2.370817 -3.548828,5.777714 -3.548828,10.382813 0,3.452487 0.693832,6.217992 2.03125,8.345703 1.37157,2.182043 2.95955,3.656253 4.767578,4.496094 1.842482,0.836389 4.283514,1.279296 7.322266,1.279296 2.491715,0 4.496071,-0.362917 6.015625,-1.044922 a 0.76100115,0.76100115 0 0 1 0.0039,-0.002 c 1.555328,-0.692606 2.838059,-1.705206 3.884766,-3.068359 0.919138,-1.197018 1.595955,-2.720564 2.095703,-4.484375 l -6.292969,-1.902344 c -0.415962,1.505039 -0.982313,2.79151 -1.826171,3.710938 -1.026035,1.132116 -2.555719,1.673828 -4.388672,1.673828 -1.915149,0 -3.543748,-0.691194 -4.650391,-2.037109 a 0.76100115,0.76100115 0 0 1 -0.002,-0.002 c -1.173576,-1.44318 -1.617188,-3.76943 -1.617188,-7.023437 0,-2.644064 0.394513,-4.661773 1.341797,-6.068359 3.11e-4,-4.62e-4 -3.1e-4,-0.0015 0,-0.002 1.188737,-1.793516 3.033272,-2.757812 5.240235,-2.757812 0.989856,0 1.918912,0.208754 2.748046,0.630859 0.821078,0.418003 1.52299,1.023525 2.082032,1.78711 0.271915,0.366494 0.469774,0.942037 0.679687,1.492187 l 6.285157,-1.398437 C 38.850645,16.696026 37.570995,14.79964 35.853516,13.589844 a 0.76100115,0.76100115 0 0 1 -0.002,-0.002 c -1.886137,-1.337008 -4.552425,-2.046875 -8.05664,-2.046875 z" />
      </g>
      <g
         transform="matrix(1.4005984,0,0,1.4005984,-14.072097,-8.9903783)"
         style="font-style:normal;font-variant:normal;font-weight:900;font-stretch:normal;font-size:40px;line-height:125%;font-family:Arial;-inkscape-font-specification:'Arial Heavy';font-variant-ligatures:normal;font-variant-caps:normal;font-variant-numeric:normal;font-variant-east-asian:normal;font-variation-settings:normal;letter-spacing:0px;word-spacing:0px;opacity:1;vector-effect:none;fill:none;fill-opacity:1;stroke:#361f3c;stroke-width:0.757798px;stroke-linecap:butt;stroke-linejoin:miter;stroke-miterlimit:4;stroke-dasharray:none;stroke-dashoffset:0;stroke-opacity:1;stop-color:#000000;stop-opacity:1"
         id="g2341"
         aria-label="C">
        <path
           style="font-variation-settings:normal;vector-effect:none;fill:none;fill-opacity:1;stroke:#361f3c;stroke-width:0.757798px;stroke-linecap:butt;stroke-linejoin:miter;stroke-miterlimit:4;stroke-dasharray:none;stroke-dashoffset:0;stroke-opacity:1;stop-color:#000000;stop-opacity:1"
           inkscape:connector-curvature="0"
           id="path2339"
           d="m 33.419538,28.201805 7.753907,2.34375 q -0.78125,3.261719 -2.460938,5.449219 -1.679687,2.1875 -4.179687,3.300781 -2.480469,1.113281 -6.328125,1.113281 -4.667969,0 -7.636719,-1.347656 -2.949219,-1.367187 -5.097656,-4.785156 -2.148438,-3.417969 -2.148438,-8.75 0,-7.109375 3.769531,-10.917969 3.789063,-3.828125 10.703125,-3.828125 5.410157,0 8.496094,2.1875 3.105469,2.1875 4.609375,6.71875 l -7.8125,1.738281 q -0.410156,-1.308593 -0.859375,-1.914062 -0.742187,-1.015625 -1.816406,-1.5625 -1.074219,-0.546875 -2.402344,-0.546875 -3.007812,0 -4.609375,2.421875 -1.210937,1.796875 -1.210937,5.644531 0,4.765625 1.445312,6.542969 1.445313,1.757812 4.0625,1.757812 2.539063,0 3.828125,-1.425781 1.308594,-1.425781 1.894531,-4.140625 z" />
      </g>
      <path
         id="path2486"
         style="font-style:normal;font-variant:normal;font-weight:900;font-stretch:normal;font-size:40px;line-height:125%;font-family:Arial;-inkscape-font-specification:'Arial Heavy';font-variant-ligatures:normal;font-variant-caps:normal;font-variant-numeric:normal;font-variant-east-asian:normal;font-variation-settings:normal;letter-spacing:0px;word-spacing:0px;vector-effect:none;fill:none;fill-opacity:1;stroke:url(#linearGradient2532);stroke-width:0.757798px;stroke-linecap:butt;stroke-linejoin:miter;stroke-miterlimit:4;stroke-dasharray:none;stroke-dashoffset:0;stroke-opacity:1;stop-color:#000000"
         transform="matrix(1.4005984,0,0,1.4005984,-14.072097,-8.9903783)"
         d="m 27.794922,12.261719 c -4.338304,0 -7.437515,1.154958 -9.648438,3.388672 -2.190105,2.212802 -3.341796,5.395462 -3.341796,9.875 0,3.355838 0.674512,5.976496 1.921874,7.960937 1.31597,2.093588 2.799065,3.454612 4.460938,4.226563 1.710961,0.775465 4.051813,1.21289 7.017578,1.21289 2.421669,0 4.330128,-0.358305 5.720703,-0.982422 0.002,-6.75e-4 0.0039,-0.0013 0.0059,-0.002 5.26e-4,-2.34e-4 0.0014,2.35e-4 0.002,0 1.450558,-0.646244 2.62545,-1.57585 3.603515,-2.849609 0.723066,-0.941668 1.277545,-2.176983 1.732422,-3.572266 l -4.914062,-1.486328 c -0.41181,1.267494 -0.929021,2.428814 -1.738281,3.310547 -1.188674,1.308782 -2.94689,1.90625 -4.919922,1.90625 -2.088718,0 -3.956828,-0.778313 -5.207032,-2.298828 -0.002,-0.002 -0.0039,-0.0039 -0.0059,-0.0059 -0.0026,-0.0039 -0.0052,-0.0078 -0.0078,-0.01172 -0.03324,-0.04353 -0.06142,-0.09071 -0.08398,-0.140625 -1.271251,-1.666674 -1.685547,-4.096443 -1.685547,-7.326172 0,-2.580986 0.394673,-4.622462 1.351563,-6.191406 0.01675,-0.09905 0.054,-0.193519 0.109375,-0.277344 1.312803,-1.980702 3.424703,-3.080078 5.841797,-3.080078 1.091279,0 2.138574,0.231661 3.076172,0.708984 0.923959,0.470379 1.714259,1.154767 2.335937,2.003906 0.252699,0.341717 0.36454,0.717666 0.505859,1.087891 l 4.808594,-1.070312 c -0.870168,-1.943564 -1.926965,-3.502274 -3.298891,-4.468661 -0.0013,-0.0013 -0.0026,-0.0026 -0.0039,-0.0039 -1.722746,-1.221187 -4.23188,-1.914062 -7.638672,-1.914062 z"
         inkscape:connector-curvature="0"
         sodipodi:nodetypes="ccsscscccscccsccccsccssccccccc" />
      <path
         id="path2534"
         style="font-variation-settings:normal;opacity:1;vector-effect:none;fill:none;fill-opacity:1;fill-rule:evenodd;stroke:#c4a000;stroke-width:0.530684;stroke-linecap:butt;stroke-linejoin:miter;stroke-miterlimit:4;stroke-dasharray:none;stroke-dashoffset:0;stroke-opacity:1;marker:none;marker-start:none;marker-mid:none;marker-end:none;stop-color:#000000;stop-opacity:1"
         d="M 25.271484,1.4042969 C 17.047889,1.3461813 13.412453,5.1457583 12.427734,6.4199219 L 10.446708,10.258091 C 13.035993,7.8602801 19.027856,5.2678121 25.265346,5.4732143 31.502836,5.6786164 35.845201,7.7597058 38.517578,9.539062 L 37.373047,6.8632812 C 36.272903,4.9073255 33.548014,1.4627865 25.271484,1.4042969 Z"
         inkscape:connector-curvature="0"
         sodipodi:nodetypes="scczccs" />
      <path
         inkscape:connector-curvature="0"
         id="path2538"
         style="font-style:normal;font-variant:normal;font-weight:900;font-stretch:normal;font-size:40px;line-height:125%;font-family:Arial;-inkscape-font-specification:'Arial Heavy';font-variant-ligatures:normal;font-variant-caps:normal;font-variant-numeric:normal;font-variant-east-asian:normal;font-variation-settings:normal;letter-spacing:0px;word-spacing:0px;vector-effect:none;fill:none;fill-opacity:1;stroke:#c4a000;stroke-width:0.530684;stroke-linecap:butt;stroke-linejoin:miter;stroke-miterlimit:4;stroke-dasharray:none;stroke-dashoffset:0;stroke-opacity:1;marker:none;marker-start:none;marker-mid:none;marker-end:none;stop-color:#000000"
         d="m 18.638672,20 c -0.744409,1.570744 -1.167969,3.800306 -1.167969,6.769531 0,4.401005 0.697918,7.367071 1.917969,8.869141 1.261825,1.534651 2.992362,2.291016 5.332031,2.291016 2.283785,0 3.91399,-0.625276 5.015625,-1.84375 a 0.46554538,0.46554538 0 0 1 0.002,-0.002 c 1.145701,-1.2483 2.005414,-3.100406 2.541016,-5.582031 a 0.46554538,0.46554538 0 0 1 0.589844,-0.347656 L 42.882812,33.177734 40.755859,28.3125 32.375,25.779297 c -0.471987,1.907407 -1.159577,3.466457 -2.160156,4.556641 -1.101935,1.217427 -2.743686,1.808593 -4.798828,1.808593 -2.134046,0 -3.875617,-0.745209 -5.083985,-2.214843 a 0.46554538,0.46554538 0 0 1 -0.002,-0.002 c -1.249387,-1.53641 -1.785156,-4.161094 -1.785156,-7.904296 0,-0.724393 0.03805,-1.387825 0.09375,-2.023438 z" />
    </g>
  </g>
</svg>
