<?xml version="1.0" encoding="UTF-8" standalone="no"?>
<!-- Created with Inkscape (http://www.inkscape.org/) -->

<svg
   xmlns:dc="http://purl.org/dc/elements/1.1/"
   xmlns:cc="http://creativecommons.org/ns#"
   xmlns:rdf="http://www.w3.org/1999/02/22-rdf-syntax-ns#"
   xmlns:svg="http://www.w3.org/2000/svg"
   xmlns="http://www.w3.org/2000/svg"
   xmlns:xlink="http://www.w3.org/1999/xlink"
   xmlns:sodipodi="http://sodipodi.sourceforge.net/DTD/sodipodi-0.dtd"
   xmlns:inkscape="http://www.inkscape.org/namespaces/inkscape"
   width="48px"
   height="48px"
   id="svg24248"
   version="1.1"
   inkscape:version="0.48.5 r10040"
   sodipodi:docname="startswith.svg">
  <defs
     id="defs24250">
    <linearGradient
       id="linearGradient24766">
      <stop
         style="stop-color:#e3e9eb;stop-opacity:1;"
         offset="0"
         id="stop24768" />
      <stop
         style="stop-color:#b1c6ce;stop-opacity:1;"
         offset="1"
         id="stop24770" />
    </linearGradient>
    <radialGradient
       inkscape:collect="always"
       xlink:href="#linearGradient24766"
       id="radialGradient24772"
       cx="25.642857"
       cy="25.214285"
       fx="25.642857"
       fy="25.214285"
       r="25.714285"
       gradientUnits="userSpaceOnUse" />
  </defs>
  <sodipodi:namedview
     id="base"
     pagecolor="#ffffff"
     bordercolor="#666666"
     borderopacity="1.0"
     inkscape:pageopacity="0.0"
     inkscape:pageshadow="2"
     inkscape:zoom="7"
     inkscape:cx="-1.5714286"
     inkscape:cy="22.642857"
     inkscape:current-layer="layer1"
     showgrid="true"
     inkscape:grid-bbox="true"
     inkscape:document-units="px"
     inkscape:window-width="2560"
     inkscape:window-height="1475"
     inkscape:window-x="0"
     inkscape:window-y="0"
     inkscape:window-maximized="1" />
  <metadata
     id="metadata24253">
    <rdf:RDF>
      <cc:Work
         rdf:about="">
        <dc:format>image/svg+xml</dc:format>
        <dc:type
           rdf:resource="http://purl.org/dc/dcmitype/StillImage" />
        <dc:title></dc:title>
      </cc:Work>
    </rdf:RDF>
  </metadata>
  <g
     id="layer1"
     inkscape:label="Layer 1"
     inkscape:groupmode="layer">
    <path
       sodipodi:type="arc"
       style="color:#000000;fill:url(#radialGradient24772);fill-opacity:1;stroke:none;stroke-width:3.22857117999999987;stroke-linecap:round;stroke-linejoin:round;stroke-miterlimit:4;stroke-opacity:1;stroke-dasharray:none;stroke-dashoffset:0;marker:none;visibility:visible;display:inline;overflow:visible;enable-background:accumulate"
       id="path24256"
       sodipodi:cx="25.642857"
       sodipodi:cy="25.214285"
       sodipodi:rx="24.214285"
       sodipodi:ry="24.214285"
       d="m 49.857141,25.214285 a 24.214285,24.214285 0 1 1 -48.4285693,0 24.214285,24.214285 0 1 1 48.4285693,0 z"
       transform="matrix(0.92920357,0,0,0.92920357,0.17256607,0.57079631)" />
    <rect
       style="color:#000000;fill:#ffffff;fill-opacity:1;fill-rule:nonzero;stroke:none;stroke-width:3;marker:none;visibility:visible;display:inline;overflow:visible;enable-background:accumulate"
       id="rect24778"
       width="17.428572"
       height="17.571428"
       x="26.142857"
       y="15.285714" />
    <g
       style="font-size:18px;font-style:normal;font-variant:normal;font-weight:normal;font-stretch:normal;text-align:start;line-height:125%;letter-spacing:0px;word-spacing:0px;writing-mode:lr-tb;text-anchor:start;fill:#000000;fill-opacity:1;stroke:none;font-family:Baskerville;-inkscape-font-specification:Baskerville"
       id="text24774"
       transform="translate(1.2260741,-2.2274683)">
      <path
         d="m 13.369629,30.178711 -0.395508,0 -2.144531,-5.712891 -2.1884767,5.712891 -0.3867188,0 -2.1972656,-5.712891 c -0.2519542,-0.650384 -0.439454,-1.040032 -0.5625,-1.168945 -0.1230475,-0.1289 -0.369141,-0.193353 -0.7382812,-0.193359 l 0,-0.404297 3.2871093,0 0,0.404297 c -0.3691435,6e-6 -0.6210964,0.03516 -0.7558593,0.105468 -0.1347681,0.06446 -0.2021508,0.178718 -0.2021485,0.342774 -2.3e-6,0.117194 0.1142554,0.459967 0.3427735,1.02832 l 1.4589843,3.858399 2.232422,-5.739258 0.342773,0 2.16211,5.739258 1.582031,-4.086915 c 0.169911,-0.433587 0.254872,-0.694329 0.254883,-0.782226 -1.1e-5,-0.287103 -0.295909,-0.442376 -0.887696,-0.46582 l 0,-0.404297 2.337891,0 0,0.404297 c -0.281262,0.0059 -0.503918,0.06153 -0.667969,0.166992 -0.158214,0.09962 -0.304698,0.328131 -0.439453,0.685547 l -0.193359,0.509765 -2.241211,5.712891"
         id="path24860"
         inkscape:connector-curvature="0" />
      <path
         d="m 21.789551,25.810547 2.021484,2.540039 c 0.351555,0.439454 0.641594,0.738282 0.870117,0.896484 0.234367,0.152345 0.512687,0.234376 0.834961,0.246094 l 0,0.404297 -3.594726,0 0,-0.404297 c 0.591791,0 0.887689,-0.114257 0.887695,-0.342773 -6e-6,-0.09375 -0.134771,-0.295898 -0.404297,-0.606446 l -1.423828,-1.766601 -1.318359,1.564453 c -0.322268,0.375001 -0.483401,0.609376 -0.483399,0.703125 -2e-6,0.292969 0.325193,0.442383 0.975586,0.448242 l 0,0.404297 -2.961914,0 0,-0.404297 c 0.257812,0 0.541992,-0.06738 0.852539,-0.202148 0.310546,-0.134765 0.711912,-0.492187 1.204102,-1.072266 l 1.485351,-1.757813 -1.59082,-2.012695 c -0.451174,-0.574213 -0.793947,-0.940423 -1.02832,-1.098633 -0.234376,-0.164055 -0.509767,-0.246087 -0.826172,-0.246093 l 0,-0.404297 3.392578,0 0,0.404297 c -0.486331,6e-6 -0.729495,0.108405 -0.729492,0.325195 -3e-6,0.09962 0.108395,0.278326 0.325195,0.536133 l 1.265625,1.564453 1.168945,-1.371094 c 0.263666,-0.3164 0.395502,-0.512689 0.395508,-0.588867 -6e-6,-0.31054 -0.322271,-0.465814 -0.966797,-0.46582 l 0,-0.404297 2.856446,0 0,0.404297 c -0.574227,0.01759 -1.168953,0.377936 -1.78418,1.081054 l -1.423828,1.625977"
         id="path24862"
         inkscape:connector-curvature="0" />
      <path
         d="m 30.244629,28.535156 1.669922,-3.999023 c 0.240228,-0.585932 0.360345,-0.911127 0.360351,-0.975586 -6e-6,-0.292962 -0.325201,-0.445306 -0.975586,-0.457031 l 0,-0.404297 2.53125,0 0,0.404297 c -0.392586,0.01759 -0.679695,0.123053 -0.861328,0.316406 -0.181648,0.187506 -0.407233,0.606451 -0.676758,1.256836 l -3.208007,7.743164 c -0.304691,0.738278 -0.574222,1.239254 -0.808594,1.50293 -0.234378,0.269527 -0.49219,0.404292 -0.773438,0.404296 -0.380861,-4e-6 -0.57129,-0.172855 -0.571289,-0.518554 -1e-6,-0.398441 0.304686,-0.735355 0.914063,-1.010742 0.357419,-0.158206 0.594724,-0.292972 0.711914,-0.404297 0.123044,-0.111331 0.243161,-0.313479 0.360351,-0.606446 l 0.685547,-1.713867 -2.707031,-5.800781 c -0.240235,-0.50976 -0.439454,-0.832025 -0.597656,-0.966797 -0.158204,-0.134759 -0.427735,-0.202142 -0.808594,-0.202148 l 0,-0.404297 3.304688,0 0,0.404297 c -0.580081,0.01759 -0.87012,0.137702 -0.870118,0.360351 -2e-6,0.0879 0.114256,0.375006 0.342774,0.861328 l 1.977539,4.209961"
         id="path24864"
         inkscape:connector-curvature="0" />
      <path
         d="m 34.305176,29.897461 0,-0.272461 4.772461,-6.521484 -2.619141,0 c -0.333987,6e-6 -0.562502,0.02344 -0.685547,0.07031 -0.117189,0.04102 -0.260744,0.181647 -0.430664,0.421875 -0.164064,0.234381 -0.331056,0.600592 -0.500976,1.098633 l -0.325196,0 0.114258,-1.995117 6.029297,0 0,0.316406 -4.746094,6.477539 1.96875,0 c 0.638667,0 1.066401,-0.03516 1.283203,-0.105469 0.216792,-0.07031 0.430659,-0.243163 0.641602,-0.518554 0.210931,-0.281249 0.421869,-0.703124 0.632812,-1.265625 l 0.351563,0 -0.210938,2.293945 -6.27539,0"
         id="path24866"
         inkscape:connector-curvature="0" />
    </g>
    <path
       transform="matrix(0.92920357,0,0,0.92920357,0.17256607,0.57079631)"
       d="m 49.857141,25.214285 a 24.214285,24.214285 0 1 1 -48.4285693,0 24.214285,24.214285 0 1 1 48.4285693,0 z"
       sodipodi:ry="24.214285"
       sodipodi:rx="24.214285"
       sodipodi:cy="25.214285"
       sodipodi:cx="25.642857"
       id="path24780"
       style="color:#000000;fill:none;fill-opacity:1;stroke:#204a87;stroke-width:3.22857117999999987;stroke-linecap:round;stroke-linejoin:round;stroke-miterlimit:4;stroke-opacity:1;stroke-dasharray:none;stroke-dashoffset:0;marker:none;visibility:visible;display:inline;overflow:visible;enable-background:accumulate"
       sodipodi:type="arc" />
  </g>
</svg>
