<?xml version="1.0" encoding="UTF-8" standalone="no"?>
<!-- Created with Inkscape (http://www.inkscape.org/) -->

<svg
   xmlns:dc="http://purl.org/dc/elements/1.1/"
   xmlns:cc="http://creativecommons.org/ns#"
   xmlns:rdf="http://www.w3.org/1999/02/22-rdf-syntax-ns#"
   xmlns:svg="http://www.w3.org/2000/svg"
   xmlns="http://www.w3.org/2000/svg"
   xmlns:xlink="http://www.w3.org/1999/xlink"
   xmlns:sodipodi="http://sodipodi.sourceforge.net/DTD/sodipodi-0.dtd"
   xmlns:inkscape="http://www.inkscape.org/namespaces/inkscape"
   width="48px"
   height="48px"
   id="svg5296"
   version="1.1"
   inkscape:version="0.48.4 r9939"
   sodipodi:docname="fuzzyand.svg">
  <defs
     id="defs5298">
    <linearGradient
       id="linearGradient6758">
      <stop
         style="stop-color:#fabbe8;stop-opacity:1;"
         offset="0"
         id="stop6760" />
      <stop
         style="stop-color:#f799dc;stop-opacity:1;"
         offset="1"
         id="stop6762" />
    </linearGradient>
    <linearGradient
       id="linearGradient6127">
      <stop
         style="stop-color:#ffffff;stop-opacity:0.34234235;"
         offset="0"
         id="stop6129" />
      <stop
         style="stop-color:#eeeeec;stop-opacity:0;"
         offset="1"
         id="stop6131" />
    </linearGradient>
    <radialGradient
       inkscape:collect="always"
       xlink:href="#linearGradient6758"
       id="radialGradient6764"
       cx="24"
       cy="24"
       fx="24"
       fy="24"
       r="23.5"
       gradientUnits="userSpaceOnUse" />
    <inkscape:perspective
       id="perspective14425"
       inkscape:persp3d-origin="24 : 16 : 1"
       inkscape:vp_z="48 : 24 : 1"
       inkscape:vp_y="0 : 1000 : 0"
       inkscape:vp_x="0 : 24 : 1"
       sodipodi:type="inkscape:persp3d" />
    <linearGradient
       inkscape:collect="always"
       xlink:href="#linearGradient52262"
       id="linearGradient3738"
       gradientUnits="userSpaceOnUse"
       x1="21.015873"
       y1="18.442076"
       x2="21.015873"
       y2="32.727791"
       gradientTransform="matrix(0.26141,0,0,0.38306,-0.522797,-3.430027)" />
    <linearGradient
       id="linearGradient52262">
      <stop
         style="stop-color:#ddddd8;stop-opacity:1;"
         offset="0"
         id="stop52264" />
      <stop
         style="stop-color:white;stop-opacity:1;"
         offset="1"
         id="stop52266" />
    </linearGradient>
    <linearGradient
       y2="32.727791"
       x2="21.015873"
       y1="18.442076"
       x1="21.015873"
       gradientTransform="matrix(0.26141,0,0,0.38306,17.425177,14.294481)"
       gradientUnits="userSpaceOnUse"
       id="linearGradient37769"
       xlink:href="#linearGradient52262"
       inkscape:collect="always" />
    <linearGradient
       inkscape:collect="always"
       xlink:href="#linearGradient52262"
       id="linearGradient37812"
       gradientUnits="userSpaceOnUse"
       gradientTransform="matrix(0.26141,0,0,0.38306,17.425177,14.294481)"
       x1="21.015873"
       y1="18.442076"
       x2="21.015873"
       y2="32.727791" />
  </defs>
  <sodipodi:namedview
     id="base"
     pagecolor="#ffffff"
     bordercolor="#666666"
     borderopacity="1.0"
     inkscape:pageopacity="0.0"
     inkscape:pageshadow="2"
     inkscape:zoom="19.79899"
     inkscape:cx="11.394818"
     inkscape:cy="21.135946"
     inkscape:current-layer="layer1"
     showgrid="true"
     inkscape:grid-bbox="true"
     inkscape:document-units="px"
     inkscape:window-width="2560"
     inkscape:window-height="1496"
     inkscape:window-x="-8"
     inkscape:window-y="-8"
     inkscape:window-maximized="1" />
  <metadata
     id="metadata5301">
    <rdf:RDF>
      <cc:Work
         rdf:about="">
        <dc:format>image/svg+xml</dc:format>
        <dc:type
           rdf:resource="http://purl.org/dc/dcmitype/StillImage" />
        <dc:title></dc:title>
      </cc:Work>
    </rdf:RDF>
  </metadata>
  <g
     id="layer1"
     inkscape:label="Layer 1"
     inkscape:groupmode="layer">
    <path
       style="color:#000000;fill:none;stroke:#5c3566;stroke-width:1;stroke-miterlimit:4;stroke-dasharray:none;marker:none;visibility:visible;display:inline;overflow:visible;enable-background:accumulate;stroke-linejoin:round"
       d="M 23.937081,0.50000005 C 23.79437,2.3855732 23.371306,3.9684778 22.867469,5.4232271 22.509467,4.6069293 22.434817,3.5036881 22.301204,2.6405335 21.733569,3.3481584 21.33975,4.1048643 21.137215,4.9033832 20.378243,3.7075834 19.399875,2.843314 18.400267,1.9983735 c 0.902711,1.3338564 1.41905,2.7838966 1.761713,4.281067 -0.65458,-1.3822739 -1.918981,-1.7839677 -2.799866,-2.8132726 0.724865,1.639066 1.134839,3.1474075 1.384204,4.5868575 -0.685966,-0.4192781 -1.378534,-1.0233583 -1.950469,-1.4983735 0.06934,1.2918794 0.489009,2.4120339 1.258367,3.3636956 L 17.771084,10.16298 C 17.057004,7.9069026 15.61626,6.724987 14.184738,5.5149642 c 0.825307,1.21948 1.324696,2.5233113 1.667336,3.8835394 -0.753488,-1.1587304 -1.725443,-1.9848698 -2.705488,-2.8132726 1.150514,1.7000127 1.682114,3.56532 2.013387,5.504229 -0.820661,-0.388729 -1.645263,-1.145404 -2.327979,-1.712427 0.03922,0.730795 0.20838,1.396428 0.471888,2.018218 -1.32495,-1.085518 -2.735139,-0.80487 -4.0896923,-1.3149 1.4496273,1.087843 2.5557653,2.225946 3.4919673,3.363696 -0.959739,-0.268158 -1.962835,-1.226842 -2.7684064,-1.895901 0.077308,1.440318 0.5943514,2.682499 1.5414994,3.700065 l -0.06292,0.06116 C 10.656925,15.110422 9.6491729,14.281266 8.6479227,13.434938 9.3792669,14.51558 9.8509596,15.664582 10.189422,16.859792 9.4384327,16.446887 8.6749297,15.757965 8.0502005,15.239102 8.1044844,16.250493 8.384541,17.157899 8.8681389,17.960638 8.0764558,17.559439 7.2929216,16.825604 6.6345379,16.27879 6.665539,16.856393 6.7779707,17.389994 6.9491296,17.899479 6.2243748,16.886543 5.3309545,16.120943 4.4323961,15.361418 5.3762466,16.756063 5.9153251,18.286304 6.2570279,19.856539 5.945316,19.493648 5.6019219,19.260754 5.2817936,19.061483 4.6506869,18.325936 3.9243353,17.712043 3.2054885,17.104424 3.5122918,17.55776 3.7653298,18.034348 3.9919677,18.51106 3.2022503,18.3326 2.3847886,18.28631 1.6010709,17.991217 c 1.3389342,1.004775 2.3803935,2.070782 3.2717535,3.119063 0.028256,0.114686 0.068303,0.221047 0.094378,0.336369 C 4.3346913,21.03193 3.703227,20.448953 3.1740298,20.009434 c 0.056439,1.051544 0.3603801,1.987257 0.8808567,2.813273 -1.3272423,0.115358 -2.5122561,0.602876 -3.55488602,1.528952 1.31207922,0.09099 3.16934142,0.08323 3.86947772,0.97853 -0.9633042,1.022818 -1.4949667,2.246973 -1.5729589,3.700065 0.7191775,-0.597307 1.5905283,-1.440818 2.4538152,-1.804164 -0.9784824,1.227467 -2.1204014,2.437416 -3.6807228,3.608328 1.4359099,-0.540663 2.9148727,-0.193624 4.3099061,-1.528953 -0.2721228,0.630751 -0.4634352,1.305189 -0.5033467,2.048796 0.6083881,-0.505291 1.3452992,-1.173724 2.0763052,-1.59011 -0.6486311,0.896648 -1.0062192,1.937981 -1.0696118,3.119063 0.6960191,-0.578071 1.5545683,-1.362586 2.3908969,-1.743006 -1.0035902,1.283222 -2.2090415,2.538791 -3.8380186,3.761223 1.6425086,-0.618452 3.3438979,-0.08236 4.9076303,-2.23227 -0.3429783,1.436157 -0.8305174,2.845196 -1.6987951,4.128171 0.5896297,-0.498395 1.1568312,-1.022216 1.6987951,-1.59011 -0.1010418,0.392752 -0.1656413,0.792535 -0.188755,1.223162 0.8974979,-0.745409 2.0607899,-1.851062 3.1144579,-1.957059 -0.971366,1.211998 -2.10801,2.421146 -3.6492638,3.577748 1.5338838,-0.577553 3.1162598,-0.147044 4.5930388,-1.834743 -0.999077,1.331808 -2.156922,2.543395 -3.649264,3.455433 1.356804,-0.390848 2.723225,-0.751322 3.995315,-1.651269 -0.278934,0.63769 -0.462898,1.32578 -0.503347,2.079376 0.769284,-0.638921 1.722489,-1.550879 2.64257,-1.865322 -1.074213,1.44935 -2.382461,2.874899 -4.215528,4.250488 1.522551,-0.573286 3.0941,-0.160252 4.561579,-1.804164 -0.340073,1.238494 -0.816882,2.460563 -1.572958,3.577749 0.718846,-0.60762 1.445198,-1.221512 2.076305,-1.95706 -0.07168,0.328422 -0.106835,0.655085 -0.125837,1.009109 0.806185,-0.669568 1.808009,-1.628609 2.768407,-1.895901 -1.001348,1.278169 -2.1838,2.543456 -3.80656,3.761223 1.5858,-0.597101 3.231495,-0.08881 4.750335,-1.987638 -0.342564,1.507423 -0.853224,2.969251 -1.761713,4.311646 1.319942,-1.11571 2.638425,-2.225408 3.39759,-4.158751 0.383923,1.239803 1.122095,2.252209 2.26506,3.057905 -0.145658,-1.068409 -0.425075,-2.465025 -0.06292,-3.394274 1.105358,1.288986 2.061528,2.682253 2.611111,4.342225 -0.05893,-1.499664 -0.13297,-2.996464 -0.880857,-4.556279 0.841353,0.493023 1.795663,0.771523 2.862784,0.825635 -0.438207,-0.498508 -0.992951,-1.087037 -1.415662,-1.681848 0.971288,0.81183 1.928936,1.759827 2.862784,2.935589 -0.459581,-1.153229 -0.307685,-2.344419 -1.006693,-3.486012 0.905502,0.303702 1.776572,0.689533 2.611111,1.223162 -0.493226,-0.551319 -0.984855,-1.079888 -1.5415,-1.590111 0.497039,0.148956 1.013883,0.246859 1.572959,0.275212 -0.583343,-0.663617 -1.361797,-1.465149 -1.761714,-2.26285 0.81984,0.461437 1.738085,0.712225 2.768407,0.764476 -0.65731,-0.747761 -1.595514,-1.674299 -1.919009,-2.56864 1.248438,0.94487 2.48939,2.047221 3.680723,3.54717 -0.537831,-1.349586 -0.227988,-2.75054 -1.447122,-4.067014 1.396071,0.333022 2.743507,0.820246 3.995314,1.62069 -0.798557,-0.892616 -1.565401,-1.79541 -2.64257,-2.507482 0.576903,0.204053 1.223019,0.333248 1.88755,0.366948 -0.611979,-0.696192 -1.448398,-1.549343 -1.824632,-2.385166 1.444979,0.333349 2.828412,0.855231 4.121152,1.681848 -0.684579,-0.765211 -1.343636,-1.549188 -2.202142,-2.201691 0.707117,0.322163 1.477332,0.507288 2.327978,0.550423 -0.474725,-0.540052 -1.07949,-1.157186 -1.51004,-1.804164 1.0718,0.86316 2.118408,1.886533 3.145917,3.180221 -0.640996,-1.608455 -0.08893,-3.271652 -2.359438,-4.800911 0.354395,0.0712 0.689686,0.154227 1.038153,0.244632 0.724648,0.666756 1.436946,1.409226 2.139223,2.293429 -0.226914,-0.569399 -0.310727,-1.136773 -0.408969,-1.712427 0.65871,0.262735 1.332606,0.55287 1.950469,0.947951 -0.693647,-0.775347 -1.390332,-1.543689 -2.265061,-2.201692 -0.157636,-0.382101 -0.429245,-0.759024 -0.786479,-1.131425 0.96695,0.720965 2.093793,1.126463 3.39759,1.192583 -0.760044,-0.864632 -1.918532,-1.980085 -2.044845,-2.996747 1.175279,0.912201 2.336919,1.97962 3.460508,3.394275 -0.63433,-1.591724 -0.07681,-3.254127 -2.26506,-4.770332 1.707405,0.330323 3.365038,0.837898 4.876171,1.804164 -1.232495,-1.377663 -2.442304,-2.754347 -4.718875,-3.455432 -0.01306,-0.278628 -0.03945,-0.556843 -0.125837,-0.825635 1.271174,-0.642823 2.184073,-1.651253 2.768407,-2.996747 -0.967763,0.353807 -2.191799,0.920708 -3.177376,0.886793 0.935287,-1.135865 2.04467,-2.24702 3.491968,-3.333117 -1.406942,0.529757 -2.876688,0.225695 -4.246988,1.467795 0.270483,-0.629062 0.432105,-1.307611 0.471887,-2.048797 -0.682716,0.567024 -1.507318,1.323698 -2.327978,1.712427 0.960555,-1.188783 2.105177,-2.350891 3.617804,-3.486012 -1.313362,0.494521 -2.675098,0.250295 -3.963855,1.223162 0.335196,-1.129048 0.81663,-2.216789 1.51004,-3.241379 -0.593543,0.501704 -1.18536,1.017474 -1.730254,1.590111 0.04205,-0.245106 0.08048,-0.475108 0.09438,-0.733898 -0.665402,0.552644 -1.464977,1.283892 -2.26506,1.681848 0.613946,-0.878931 0.976567,-1.87994 1.038153,-3.027326 -0.788638,0.654995 -1.764091,1.604963 -2.705489,1.895901 0.984152,-1.239896 2.105088,-2.487082 3.680723,-3.669486 -1.280451,0.482129 -2.578507,0.272802 -3.838019,1.162004 0.247211,-0.604242 0.402536,-1.251086 0.440429,-1.957059 -0.364614,0.302827 -0.771391,0.645578 -1.195449,0.97853 0.333179,-1.09608 0.804138,-2.1530781 1.478581,-3.1496425 -0.696733,0.5889285 -1.396362,1.1601756 -2.013386,1.8653225 0.04784,-0.2635336 0.07938,-0.5461415 0.09438,-0.8256348 C 33.126582,9.808684 32.198821,10.68556 31.29853,11.019193 32.214677,9.9221724 33.296843,8.8278733 34.69612,7.7778139 33.225708,8.3314686 31.716,7.9763104 30.291837,9.4290827 30.835977,8.5888919 31.11491,7.631218 31.172694,6.5546519 30.37559,7.216679 29.386351,8.1707435 28.435746,8.4505531 29.261186,7.5236856 30.236231,6.6206302 31.424367,5.7290176 30.230623,6.1784982 28.987713,6.0132495 27.806562,6.7075472 28.666609,5.7183806 29.686872,4.7522834 30.952475,3.8025375 29.294904,4.4266628 27.588853,3.8756679 26.013386,6.0959662 26.35489,4.5144343 26.856355,2.974298 27.806558,1.5702668 26.813136,2.4099778 25.826909,3.2607092 25.069611,4.4446975 25.229386,2.8204114 24.241266,1.8575856 23.937081,0.50000005 z M 4.4953144,25.116135 c 0.00272,0.01302 0.028577,0.01758 0.031459,0.03058 -0.010352,0.01019 -0.0212,0.02034 -0.031459,0.03058 l 0,-0.06116 z m 28.6593026,9.785296 c 0.100599,0.07979 0.210229,0.141586 0.314592,0.214054 -0.121341,-0.0501 -0.249363,-0.107206 -0.37751,-0.152896 l 0.06292,-0.06116 z"
       id="rect6620"
       inkscape:connector-curvature="0" />
    <path
       style="color:#000000;fill:url(#radialGradient6764);fill-opacity:1;fill-rule:nonzero;stroke:none;stroke-width:0.10000000000000001;marker:none;visibility:visible;display:inline;overflow:visible;enable-background:accumulate;stroke-linejoin:round"
       d="M 23.9375 0.5 C 23.794391 2.3908404 23.380943 3.9795195 22.875 5.4375 C 22.514011 4.6204947 22.415316 3.4910789 22.28125 2.625 C 21.713615 3.3326248 21.327536 4.076481 21.125 4.875 C 20.367421 3.6890657 19.400694 2.8405751 18.40625 2 C 19.303388 3.3256214 19.782254 4.7627141 20.125 6.25 C 19.462754 4.9126244 18.212561 4.4839458 17.34375 3.46875 C 18.066269 5.1025116 18.469097 6.5959986 18.71875 8.03125 C 18.04337 7.6122202 17.375932 6.9992029 16.8125 6.53125 C 16.881837 7.8231293 17.293141 8.9545882 18.0625 9.90625 L 17.78125 10.15625 C 17.067157 7.9002476 15.618997 6.710002 14.1875 5.5 C 14.999569 6.6999207 15.470146 8.0068578 15.8125 9.34375 C 15.063388 8.2116717 14.121954 7.4100307 13.15625 6.59375 C 14.306764 8.2937627 14.824977 10.154841 15.15625 12.09375 C 14.341527 11.702167 13.521453 10.937859 12.84375 10.375 C 12.8831 11.108163 13.01616 11.782799 13.28125 12.40625 C 11.9563 11.320732 10.573303 11.603779 9.21875 11.09375 C 10.682906 12.192496 11.808111 13.319238 12.75 14.46875 C 11.774616 14.222042 10.757741 13.243742 9.9375 12.5625 C 10.00684 13.854378 10.418142 14.985838 11.1875 15.9375 C 10.46515 14.934478 9.5489814 14.1921 8.65625 13.4375 C 9.3921849 14.524926 9.8487091 15.671765 10.1875 16.875 C 9.4365087 16.462095 8.6872292 15.768863 8.0625 15.25 C 8.1168661 16.262913 8.390028 17.165116 8.875 17.96875 C 8.0828722 17.567715 7.2837549 16.797122 6.625 16.25 C 6.6558173 16.824169 6.7681864 17.368142 6.9375 17.875 C 6.217081 16.879758 5.3256315 16.125711 4.4375 15.375 C 5.3803732 16.7682 5.9082679 18.275253 6.25 19.84375 C 5.9385223 19.481292 5.6011299 19.261616 5.28125 19.0625 C 4.6501432 18.326952 3.9375968 17.732619 3.21875 17.125 C 3.5255533 17.578336 3.7733621 18.054537 4 18.53125 C 3.2058447 18.349976 2.4132133 18.296786 1.625 18 C 2.9648821 19.005487 3.983244 20.044704 4.875 21.09375 C 4.9032561 21.208437 4.9426757 21.322177 4.96875 21.4375 C 4.3362389 21.02278 3.7166972 20.47077 3.1875 20.03125 C 3.2431732 21.068517 3.5240394 21.994685 4.03125 22.8125 C 2.7086292 22.929841 1.5396374 23.451581 0.5 24.375 C 1.7977695 24.465006 3.6262769 24.446738 4.34375 25.3125 C 3.3894492 26.332405 2.8588608 27.585262 2.78125 29.03125 C 3.508888 28.426916 4.4082209 27.575009 5.28125 27.21875 C 4.3001101 28.452033 3.129986 29.667462 1.5625 30.84375 C 2.9984099 30.303087 4.4799665 30.647829 5.875 29.3125 C 5.6028772 29.94325 5.4149116 30.631392 5.375 31.375 C 6.0097852 30.847785 6.7680309 30.097559 7.53125 29.6875 C 6.8402385 30.604573 6.4717883 31.68519 6.40625 32.90625 C 7.1077429 32.323632 7.9385121 31.501688 8.78125 31.125 C 7.7759722 32.412035 6.5711687 33.680296 4.9375 34.90625 C 6.5819548 34.287065 8.2784967 34.815162 9.84375 32.65625 C 9.5007794 34.097595 8.9962081 35.493945 8.125 36.78125 C 8.711168 36.285781 9.3043887 35.782466 9.84375 35.21875 C 9.7469633 35.602949 9.6788081 36.017225 9.65625 36.4375 C 10.553748 35.692091 11.696332 34.574748 12.75 34.46875 C 11.779681 35.678487 10.663467 36.876739 9.125 38.03125 C 10.65838 37.453885 12.242383 37.904487 13.71875 36.21875 C 12.719673 37.550557 11.586092 38.775461 10.09375 39.6875 C 11.463796 39.292837 12.810961 38.887802 14.09375 37.96875 C 13.800622 38.620507 13.604044 39.319721 13.5625 40.09375 C 14.31447 39.469209 15.255541 38.583253 16.15625 38.25 C 15.087181 39.686825 13.817701 41.104694 12 42.46875 C 13.511722 41.899542 15.072697 42.321575 16.53125 40.71875 C 16.191518 41.947145 15.719062 43.141332 14.96875 44.25 C 15.687597 43.64238 16.400143 43.048048 17.03125 42.3125 C 16.960942 42.63756 16.92504 42.962402 16.90625 43.3125 C 17.721191 42.63566 18.748992 41.660893 19.71875 41.40625 C 18.714709 42.69049 17.505231 43.964126 15.875 45.1875 C 17.461546 44.590118 19.136812 45.058245 20.65625 43.15625 C 20.313862 44.679396 19.792348 46.144516 18.875 47.5 C 20.194119 46.384985 21.490596 45.274851 22.25 43.34375 C 22.633617 44.584927 23.387348 45.599892 24.53125 46.40625 C 24.385592 45.33784 24.106592 43.92925 24.46875 43 C 25.574089 44.288972 26.512925 45.683801 27.0625 47.34375 C 27.003026 45.830342 26.955318 44.325251 26.1875 42.75 C 27.037683 43.256525 27.980004 43.570108 29.0625 43.625 C 28.624293 43.126492 28.078962 42.532311 27.65625 41.9375 C 28.627538 42.749331 29.597402 43.667988 30.53125 44.84375 C 30.074972 43.698808 30.212794 42.540244 29.53125 41.40625 C 30.428067 41.708875 31.297993 42.096187 32.125 42.625 C 31.637244 42.079794 31.142777 41.536752 30.59375 41.03125 C 31.082517 41.17514 31.607775 41.284684 32.15625 41.3125 C 31.572908 40.648883 30.774917 39.828952 30.375 39.03125 C 31.19484 39.492687 32.125927 39.760248 33.15625 39.8125 C 32.484894 39.048761 31.52188 38.099462 31.21875 37.1875 C 32.47471 38.135644 33.70796 39.241292 34.90625 40.75 C 34.366807 39.39637 34.700907 38.007463 33.46875 36.6875 C 34.865625 37.02053 36.216269 37.511626 37.46875 38.3125 C 36.636383 37.382094 35.804837 36.475492 34.65625 35.75 C 35.285471 35.996865 35.950518 36.150124 36.6875 36.1875 C 36.07714 35.49315 35.252765 34.64619 34.875 33.8125 C 36.326854 34.145868 37.732763 34.638458 39.03125 35.46875 C 38.332537 34.68774 37.602629 33.91102 36.71875 33.25 C 37.449082 33.597639 38.270207 33.79882 39.15625 33.84375 C 38.694312 33.318246 38.084977 32.691269 37.65625 32.0625 C 38.716053 32.919736 39.733653 33.907866 40.75 35.1875 C 40.113206 33.589589 40.687157 31.958542 38.46875 30.4375 C 38.789399 30.502874 39.121725 30.543833 39.4375 30.625 C 40.166858 31.294819 40.887024 32.078945 41.59375 32.96875 C 41.364024 32.392296 41.256412 31.8015 41.15625 31.21875 C 41.825092 31.483629 42.498122 31.786655 43.125 32.1875 C 42.433677 31.41475 41.714303 30.656605 40.84375 30 C 40.697883 29.638571 40.506789 29.2905 40.1875 28.9375 C 41.126224 29.599648 42.221946 29.968019 43.46875 30.03125 C 42.701887 29.15886 41.546547 28.05544 41.4375 27.03125 C 42.614313 27.944152 43.781239 29.021055 44.90625 30.4375 C 44.269456 28.839592 44.812157 27.177292 42.59375 25.65625 C 44.311386 25.986332 45.980386 26.497061 47.5 27.46875 C 46.267505 26.091087 45.057822 24.701086 42.78125 24 C 42.767667 23.723864 42.741864 23.453911 42.65625 23.1875 C 43.925631 22.544624 44.853701 21.56301 45.4375 20.21875 C 44.469737 20.572556 43.235576 21.127665 42.25 21.09375 C 43.186202 19.956 44.269123 18.837844 45.71875 17.75 C 44.3045 18.282508 42.845313 17.953585 41.46875 19.21875 C 41.740872 18.588 41.928835 17.899858 41.96875 17.15625 C 41.293053 17.717444 40.468593 18.482317 39.65625 18.875 C 40.612485 17.695396 41.748697 16.532873 43.25 15.40625 C 41.948844 15.896174 40.590444 15.652556 39.3125 16.59375 C 39.647111 15.47473 40.093604 14.391073 40.78125 13.375 C 40.185955 13.878185 39.608701 14.393984 39.0625 14.96875 C 39.105147 14.721666 39.142241 14.479753 39.15625 14.21875 C 38.51518 14.751184 37.739583 15.466998 36.96875 15.875 C 37.560858 15.007725 37.877076 14.000682 37.9375 12.875 C 37.133696 13.54259 36.145338 14.510616 35.1875 14.78125 C 36.173994 13.536189 37.355504 12.312176 38.9375 11.125 C 37.668079 11.602976 36.343398 11.387611 35.09375 12.25 C 35.335308 11.652038 35.493827 11.009676 35.53125 10.3125 C 35.179024 10.605038 34.752178 10.926407 34.34375 11.25 C 34.675873 10.169572 35.115827 9.1082352 35.78125 8.125 C 35.084516 8.7139284 34.398275 9.3261034 33.78125 10.03125 C 33.832121 9.7585689 33.859445 9.4773448 33.875 9.1875 C 33.105714 9.8264213 32.170081 10.748056 31.25 11.0625 C 32.177272 9.9430313 33.260464 8.8521404 34.6875 7.78125 C 33.224647 8.3320583 31.730311 7.9798159 30.3125 9.40625 C 30.841475 8.5750781 31.130576 7.6230933 31.1875 6.5625 C 30.400704 7.215966 29.408135 8.1442112 28.46875 8.4375 C 29.287757 7.5218741 30.232114 6.6311066 31.40625 5.75 C 30.210653 6.2001783 28.995345 6.0206577 27.8125 6.71875 C 28.67255 5.7295833 29.671897 4.762246 30.9375 3.8125 C 29.27756 4.4375172 27.577304 3.8934883 26 6.125 C 26.341328 4.5339209 26.856929 2.9744617 27.8125 1.5625 C 26.819078 2.402211 25.819798 3.2535116 25.0625 4.4375 C 25.222275 2.8132138 24.241685 1.8575855 23.9375 0.5 z M 11.1875 15.96875 C 11.273362 16.074105 11.374297 16.14882 11.46875 16.25 L 11.40625 16.3125 C 11.331534 16.195196 11.266726 16.079479 11.1875 15.96875 z M 7.84375 19.5625 C 7.8750196 19.602344 7.9050269 19.648241 7.9375 19.6875 L 7.90625 19.71875 C 7.887022 19.665913 7.8638013 19.614137 7.84375 19.5625 z M 4.5 25.125 C 4.5028605 25.138677 4.5282074 25.142602 4.53125 25.15625 C 4.521446 25.165952 4.509721 25.177758 4.5 25.1875 L 4.5 25.125 z M 33.15625 34.90625 C 33.255902 34.985188 33.365406 35.05324 33.46875 35.125 C 33.34741 35.074899 33.221897 35.01444 33.09375 34.96875 L 33.15625 34.90625 z M 14.28125 35.40625 L 14.3125 35.4375 C 14.194668 35.608209 14.059093 35.769991 13.9375 35.9375 C 14.059445 35.778868 14.16104 35.598611 14.28125 35.40625 z "
       id="rect6211" />
    <g
       id="g37802"
       transform="matrix(2.2091178,0,0,2.2091178,-27.231117,-26.795712)">
      <path
         sodipodi:nodetypes="ccc"
         id="path52252"
         d="m 18.13887,23.682507 c 4.066379,-5.253401 7.618237,-2.286201 9.560142,0.778281 -2.004039,5.280694 -8.049772,3.137446 -9.560142,-0.778281 z"
         style="fill:url(#linearGradient37812);fill-opacity:1;fill-rule:evenodd;stroke:none"
         inkscape:connector-curvature="0" />
      <path
         sodipodi:nodetypes="ccc"
         id="path2844"
         d="m 18.207553,23.897842 c 2.827943,0.457996 5.966292,0.757319 8.737797,0.29096 -2.926035,-2.423669 -6.986261,-1.638947 -8.737797,-0.29096 z"
         style="fill:#ffffff;fill-opacity:0.75;fill-rule:evenodd;stroke:none"
         inkscape:connector-curvature="0" />
      <path
         transform="matrix(0.277533,0,0,0.277533,17.361187,17.107689)"
         d="m 27.238095,25.492064 c 0,3.979956 -3.226392,7.206349 -7.206349,7.206349 -3.979957,0 -7.206349,-3.226393 -7.206349,-7.206349 0,-3.979957 3.226392,-7.20635 7.206349,-7.20635 3.979957,0 7.206349,3.226393 7.206349,7.20635 z"
         sodipodi:ry="7.2063494"
         sodipodi:rx="7.2063494"
         sodipodi:cy="25.492064"
         sodipodi:cx="20.031746"
         id="path52221"
         style="color:#000000;fill:#3465a4;fill-opacity:1;fill-rule:nonzero;stroke:none;stroke-width:0.87307727;marker:none;visibility:visible;display:inline;overflow:visible"
         sodipodi:type="arc" />
      <path
         transform="matrix(0.08859687,0,0,0.08859767,21.030519,21.962539)"
         d="m 27.238095,25.492064 c 0,3.979956 -3.226392,7.206349 -7.206349,7.206349 -3.979957,0 -7.206349,-3.226393 -7.206349,-7.206349 0,-3.979957 3.226392,-7.20635 7.206349,-7.20635 3.979957,0 7.206349,3.226393 7.206349,7.20635 z"
         sodipodi:ry="7.2063494"
         sodipodi:rx="7.2063494"
         sodipodi:cy="25.492064"
         sodipodi:cx="20.031746"
         id="path52223"
         style="color:#000000;fill:#2e3436;fill-opacity:1;fill-rule:nonzero;stroke:none;stroke-width:3.2898581;marker:none;visibility:visible;display:inline;overflow:visible"
         sodipodi:type="arc" />
      <path
         sodipodi:nodetypes="ccccc"
         id="path52225"
         d="m 22.843174,23.741547 c 0,0 -0.107693,-0.569233 -0.153845,-0.830771 -0.415387,0.01538 -1.138465,0.246153 -1.307697,0.461539 0.107693,0.261539 0.292308,0.584616 0.369232,0.784617 0.400001,-0.261539 0.707695,-0.400001 1.09231,-0.415385 z"
         style="fill:#eeeeec;fill-opacity:0.71604937;fill-rule:evenodd;stroke:none"
         inkscape:connector-curvature="0" />
      <path
         sodipodi:nodetypes="cccsc"
         id="path52217"
         d="m 17.947998,23.870997 c 3.878682,-2.631592 6.89253,-2.349922 9.254788,0.565471 l 0.745188,-0.579964 c -1.578519,-2.373818 -2.615755,-3.252046 -5.221558,-3.252046 -2.605803,0 -4.786715,3.345583 -4.778418,3.266539 z"
         style="fill:#2e3436;fill-opacity:1;fill-rule:evenodd;stroke:none"
         inkscape:connector-curvature="0" />
      <path
         sodipodi:nodetypes="cccc"
         id="path52227"
         d="m 18.076909,23.82649 c 3.453236,3.766822 5.971404,3.447182 8.937887,0.950395 l 0.96602,0.908769 c -4.230158,3.436664 -7.685545,2.311166 -9.903907,-1.859164 z"
         style="fill:#2e3436;fill-opacity:1;fill-rule:evenodd;stroke:none"
         inkscape:connector-curvature="0" />
      <path
         sodipodi:nodetypes="ccc"
         d="m 28.013966,21.381448 c -2.939698,-5.37689 -8.357388,-4.410761 -9.972123,0.714163 2.591146,-2.841974 6.166037,-4.177066 9.972123,-0.714163 z"
         style="fill:#2e3436;fill-opacity:1;fill-rule:evenodd;stroke:none"
         id="path52229"
         inkscape:connector-curvature="0" />
    </g>
  </g>
</svg>
