<?xml version="1.0" encoding="UTF-8" standalone="no"?>
<!-- Created with Inkscape (http://www.inkscape.org/) -->

<svg
   xmlns:dc="http://purl.org/dc/elements/1.1/"
   xmlns:cc="http://creativecommons.org/ns#"
   xmlns:rdf="http://www.w3.org/1999/02/22-rdf-syntax-ns#"
   xmlns:svg="http://www.w3.org/2000/svg"
   xmlns="http://www.w3.org/2000/svg"
   xmlns:xlink="http://www.w3.org/1999/xlink"
   xmlns:sodipodi="http://sodipodi.sourceforge.net/DTD/sodipodi-0.dtd"
   xmlns:inkscape="http://www.inkscape.org/namespaces/inkscape"
   width="48px"
   height="48px"
   id="svg2985"
   version="1.1"
   inkscape:version="0.48.5 r10040"
   sodipodi:docname="New document 2">
  <defs
     id="defs2987">
    <inkscape:path-effect
       effect="bend_path"
       id="path-effect3833"
       is_visible="true"
       bendpath="m 18.368303,9.3264504 c 42.229834,4.0283296 84.762367,4.5704156 127.851567,0"
       prop_scale="1"
       scale_y_rel="false"
       vertical="false"
       bendpath-nodetypes="cc" />
    <inkscape:path-effect
       effect="envelope"
       id="path-effect3831"
       is_visible="true"
       yy="true"
       xx="true"
       bendpath1="m 18.368303,-5.4782372 c 43.480094,-3.883071 86.093717,-3.86703 127.851567,0"
       bendpath2="m 146.21987,-5.4782372 c 1.00748,12.8922213 0.70314,21.8489962 0,29.6093752"
       bendpath3="m 18.368303,24.131138 c 42.617189,5.208878 85.234377,4.242673 127.851567,0"
       bendpath4="m 18.368303,-5.4782372 c -1.541204,9.4844906 -1.89559,19.2656862 0,29.6093752"
       bendpath1-nodetypes="cc"
       bendpath3-nodetypes="cc"
       bendpath4-nodetypes="cc"
       bendpath2-nodetypes="cc" />
    <inkscape:path-effect
       effect="bend_path"
       id="path-effect3829"
       is_visible="true"
       bendpath="m 18.368303,9.3264504 c 42.617189,7.6297956 85.234377,7.8696586 127.851567,0"
       prop_scale="1"
       scale_y_rel="false"
       vertical="false"
       bendpath-nodetypes="cc" />
    <linearGradient
       inkscape:collect="always"
       id="linearGradient3804">
      <stop
         style="stop-color:#000000;stop-opacity:1;"
         offset="0"
         id="stop3806" />
      <stop
         style="stop-color:#000000;stop-opacity:0;"
         offset="1"
         id="stop3808" />
    </linearGradient>
    <inkscape:path-effect
       effect="bend_path"
       id="path-effect3800"
       is_visible="true"
       bendpath="m 3.7968739,22.57645 c 13.0624691,3.359887 26.4147411,4.111546 40.3073691,0"
       prop_scale="1"
       scale_y_rel="false"
       vertical="false"
       bendpath-nodetypes="cc" />
    <linearGradient
       id="linearGradient3763">
      <stop
         style="stop-color:#ededed;stop-opacity:1;"
         offset="0"
         id="stop3765" />
      <stop
         id="stop3771"
         offset="0.57102436"
         style="stop-color:#e6e6e6;stop-opacity:1;" />
      <stop
         style="stop-color:#a1a1a1;stop-opacity:1;"
         offset="1"
         id="stop3767" />
    </linearGradient>
    <radialGradient
       inkscape:collect="always"
       xlink:href="#linearGradient3763"
       id="radialGradient3769"
       cx="19.741667"
       cy="19.1143"
       fx="19.741667"
       fy="19.1143"
       r="22.473356"
       gradientUnits="userSpaceOnUse"
       gradientTransform="matrix(1.4246741,-1.5458017e-8,1.3696359e-8,1.2623124,-7.9389336,-4.5398791)" />
    <radialGradient
       inkscape:collect="always"
       xlink:href="#linearGradient3804"
       id="radialGradient3810"
       cx="24.142857"
       cy="43.17857"
       fx="24.142857"
       fy="43.17857"
       r="20.857143"
       gradientTransform="matrix(1,0,0,0.22089041,0,33.640838)"
       gradientUnits="userSpaceOnUse" />
  </defs>
  <sodipodi:namedview
     id="base"
     pagecolor="#ffffff"
     bordercolor="#666666"
     borderopacity="1.0"
     inkscape:pageopacity="0.0"
     inkscape:pageshadow="2"
     inkscape:zoom="14"
     inkscape:cx="22.212053"
     inkscape:cy="17.428571"
     inkscape:current-layer="layer1"
     showgrid="true"
     inkscape:grid-bbox="true"
     inkscape:document-units="px"
     inkscape:window-width="2560"
     inkscape:window-height="1537"
     inkscape:window-x="-8"
     inkscape:window-y="-8"
     inkscape:window-maximized="1" />
  <metadata
     id="metadata2990">
    <rdf:RDF>
      <cc:Work
         rdf:about="">
        <dc:format>image/svg+xml</dc:format>
        <dc:type
           rdf:resource="http://purl.org/dc/dcmitype/StillImage" />
        <dc:title></dc:title>
      </cc:Work>
    </rdf:RDF>
  </metadata>
  <g
     id="layer1"
     inkscape:label="Layer 1"
     inkscape:groupmode="layer">
    <path
       sodipodi:type="arc"
       style="color:#000000;fill:url(#radialGradient3810);fill-opacity:1;fill-rule:nonzero;stroke:none;stroke-width:1;marker:none;visibility:visible;display:inline;overflow:visible;enable-background:accumulate"
       id="path3802"
       sodipodi:cx="24.142857"
       sodipodi:cy="43.17857"
       sodipodi:rx="20.857143"
       sodipodi:ry="4.6071429"
       d="m 45,43.17857 a 20.857143,4.6071429 0 1 1 -41.7142868,0 20.857143,4.6071429 0 1 1 41.7142868,0 z"
       transform="matrix(1,0,0,1.0232558,0,-0.89700991)" />
    <path
       sodipodi:type="arc"
       style="color:#000000;fill:url(#radialGradient3769);fill-opacity:1;fill-rule:nonzero;stroke:#888a85;stroke-width:1.02624011000000000;stroke-miterlimit:4;stroke-dasharray:none;marker:none;visibility:visible;display:inline;overflow:visible;enable-background:accumulate"
       id="path2993"
       sodipodi:cx="24.496199"
       sodipodi:cy="22.948217"
       sodipodi:rx="22.223356"
       sodipodi:ry="22.223356"
       d="m 46.719555,22.948217 a 22.223356,22.223356 0 1 1 -44.4467126,0 22.223356,22.223356 0 1 1 44.4467126,0 z"
       transform="matrix(0.97443085,0,0,0.97443085,0.22228607,0.53625888)" />
    <g
       style="font-size:40px;font-style:normal;font-weight:normal;line-height:125%;letter-spacing:0px;word-spacing:0px;fill:#000000;fill-opacity:1;stroke:none;font-family:Sans"
       id="text3812"
       transform="matrix(0.22119508,0,0,0.22119508,5.8053245,20.977771)"
       inkscape:path-effect="#path-effect3833">
      <path
         d="m 17.882377,14.420514 c 1.205979,0.01054 2.411827,0.01818 3.617517,0.0229 0.04075,1.441979 0.331423,2.648438 0.874129,3.618497 0.54269,0.970071 1.448433,1.795493 2.718785,2.472283 1.270334,0.676796 2.73309,1.082263 4.384121,1.212933 1.466089,0.116038 2.777771,-7.5e-5 3.931761,-0.345882 1.153953,-0.345802 2.030553,-0.874509 2.62991,-1.583115 0.599316,-0.708599 0.928295,-1.505231 0.989382,-2.388781 0.06194,-0.896531 -0.146521,-1.697389 -0.62313,-2.403275 -0.47665,-0.705868 -1.29951,-1.328681 -2.467055,-1.87198 C 33.189546,12.79849 31.520326,12.208881 28.940713,11.366514 26.361072,10.524171 24.574292,9.768996 23.572112,9.11823 22.272122,8.2842861 21.339126,7.3060786 20.771055,6.1877403 20.202972,5.0694363 19.982614,3.8551531 20.105597,2.5457596 c 0.13515,-1.4389927 0.666605,-2.74570227 1.588363,-3.9227787 0.921746,-1.1770268 2.182365,-2.0199771 3.782173,-2.5341621 1.599789,-0.51413 3.339333,-0.694203 5.224978,-0.5433486 2.076728,0.1662028 3.881637,0.6446867 5.421327,1.4415378 1.539648,0.7969044 2.694401,1.8840827 3.464402,3.26720956 0.769954,1.38317394 1.135924,2.91420564 1.091195,4.59498664 -1.206052,0.012784 -2.412412,0.022472 -3.619055,0.029093 -0.06667,-1.8194916 -0.623424,-3.2291503 -1.6658,-4.23241953 -1.042415,-1.00322313 -2.642301,-1.58557259 -4.805525,-1.75832267 -2.252854,-0.179855 -3.928462,0.097904 -5.032886,0.84524787 -1.104443,0.7473918 -1.711719,1.70934833 -1.816749,2.88967383 -0.09119,1.0247171 0.200759,1.9007124 0.878982,2.6266384 0.665291,0.724834 2.496365,1.5697195 5.505699,2.5082623 3.009306,0.9385745 5.073315,1.6960771 6.180511,2.2967635 1.609663,0.88439 2.77547,1.937549 3.494818,3.166015 0.719298,1.228487 1.032945,2.608798 0.93487,4.142546 -0.0973,1.520764 -0.629156,2.926035 -1.602794,4.212862 -0.973684,1.286831 -2.319415,2.247597 -4.036752,2.876123 -1.717378,0.628523 -3.621825,0.862622 -5.70505,0.698176 -2.640555,-0.208444 -4.821085,-0.773337 -6.535008,-1.682262 -1.713938,-0.908924 -3.004084,-2.168983 -3.870262,-3.773566 -0.866186,-1.604575 -1.230129,-3.363106 -1.100657,-5.273521 z"
         id="path3817"
         inkscape:connector-curvature="0"
         inkscape:original-d="m 18.368303,14.443638 3.574219,-0.3125 c 0.169265,1.4323 0.563145,2.607429 1.181641,3.52539 0.618482,0.917974 1.578768,1.660161 2.880859,2.226563 1.302073,0.566409 2.766915,0.849612 4.394531,0.849609 1.445298,3e-6 2.721338,-0.21484 3.828125,-0.644531 1.106752,-0.429683 1.930319,-1.018876 2.470703,-1.767578 0.540344,-0.748692 0.810526,-1.565748 0.810547,-2.451172 -2.1e-5,-0.898429 -0.260437,-1.682933 -0.78125,-2.353516 C 36.206825,12.845341 35.347451,12.282191 34.149553,11.82645 33.381307,11.526983 31.68209,11.061489 29.051897,10.429966 26.421679,9.7984694 24.579233,9.2027669 23.524553,8.6428566 22.15736,7.9267265 21.138481,7.0380555 20.467913,5.976841 19.797337,4.9156618 19.46205,3.7275119 19.462053,2.4123878 c -3e-6,-1.44528978 0.410153,-2.79619988 1.230469,-4.0527343 0.820308,-1.2564839 2.018223,-2.210259 3.59375,-2.8613282 1.575512,-0.6510128 3.326812,-0.9765333 5.253906,-0.9765625 2.122381,2.92e-5 3.994124,0.3418257 5.615235,1.0253907 1.621073,0.6836211 2.867817,1.6894795 3.740234,3.0175781 0.872373,1.32814875 1.341122,2.8320535 1.40625,4.5117187 L 36.669085,3.3498878 C 36.473752,1.5400141 35.812946,0.17282798 34.686663,-0.75167465 33.560344,-1.6761285 31.896934,-2.1383676 29.696428,-2.1383934 c -2.291677,2.58e-5 -3.961597,0.4199472 -5.009765,1.25976562 -1.048184,0.83986743 -1.572272,1.85223621 -1.572266,3.03710938 -6e-6,1.0286663 0.371087,1.8750196 1.113281,2.5390625 0.729159,0.6640808 2.633454,1.3444186 5.712891,2.0410156 3.079411,0.6966308 5.192039,1.3053542 6.337891,1.8261719 1.666645,0.7682435 2.897112,1.7415494 3.691406,2.9199214 0.794246,1.178397 1.191381,2.535817 1.191406,4.072266 -2.5e-5,1.523444 -0.436222,2.95899 -1.308594,4.306641 -0.872418,1.347658 -2.125672,2.395834 -3.759765,3.144531 -1.634133,0.748698 -3.473324,1.123046 -5.517578,1.123047 -2.591158,-1e-6 -4.762379,-0.377604 -6.513672,-1.132813 -1.751308,-0.755207 -3.125005,-1.891273 -4.121094,-3.408203 -0.996096,-1.516921 -1.520184,-3.232414 -1.572266,-5.146484 z" />
      <path
         d="m 45.079705,25.729065 1.634657,-28.5943508 c 1.148339,0.065652 2.296733,0.1284322 3.445162,0.1883115 l -0.534717,10.262417 c 1.731025,-1.8139274 3.824982,-2.6621965 6.302309,-2.5554613 1.522502,0.065631 2.832366,0.4201158 3.934076,1.0670951 1.101676,0.6470188 1.878403,1.5106416 2.329043,2.5942799 0.450602,1.0836728 0.644738,2.6404476 0.578894,4.6710296 l -0.426215,13.140307 c -1.198526,-0.03873 -2.396857,-0.08061 -3.594973,-0.125615 L 59.242815,13.238805 C 59.308978,11.481844 58.97596,10.189118 58.247866,9.3588381 57.519741,8.528591 56.464281,8.0851544 55.077572,8.0239344 54.040759,7.9781933 53.053603,8.2027821 52.112848,8.69836 c -0.940773,0.495612 -1.630426,1.1940269 -2.068153,2.097526 -0.437745,0.903529 -0.700129,2.167908 -0.784837,3.793754 l -0.590629,11.335484 c -1.196777,-0.06232 -2.393291,-0.127679 -3.589524,-0.196059 z"
         id="path3819"
         inkscape:connector-curvature="0"
         inkscape:original-d="m 45.926897,23.642857 0,-28.6328129 3.515625,0 0,10.2734375 c 1.640617,-1.9010214 3.710928,-2.8515413 6.210938,-2.8515625 1.536444,2.12e-5 2.871078,0.3027553 4.003906,0.9082031 1.132795,0.6054885 1.943341,1.4420762 2.43164,2.5097656 0.488262,1.0677251 0.732403,2.6172027 0.732422,4.6484372 l 0,13.144532 -3.515625,0 0,-13.144532 C 59.305787,8.7405278 58.924928,7.4612322 58.163225,6.6604347 57.401492,5.8596713 56.324019,5.459281 54.930803,5.4592628 53.889126,5.459281 52.909309,5.7294631 51.99135,6.2698097 51.073374,6.8101911 50.419077,7.5426123 50.02846,8.4670753 49.637828,9.3915688 49.442516,10.667609 49.442522,12.2952 l 0,11.347657 z" />
      <path
         d="m 81.702335,24.291084 c -1.332152,1.102278 -2.619918,1.875173 -3.856986,2.319549 -1.237095,0.444376 -2.564521,0.656611 -3.978363,0.635133 -2.334198,-0.03546 -4.117748,-0.630917 -5.341929,-1.773116 -1.224187,-1.142197 -1.808868,-2.581554 -1.763574,-4.313021 0.02656,-1.015439 0.285283,-1.936773 0.773558,-2.76479 0.48827,-0.828 1.115284,-1.486871 1.88112,-1.977801 0.765828,-0.49091 1.622272,-0.857316 2.570271,-1.100307 0.697646,-0.169446 1.748304,-0.326674 3.151269,-0.476792 2.858263,-0.299486 4.960236,-0.691872 6.307941,-1.155299 0.01496,-0.481701 0.02268,-0.787662 0.02322,-0.917883 0.0056,-1.432262 -0.322435,-2.442423 -0.981488,-3.0320405 -0.891685,-0.7992094 -2.21645,-1.2051723 -3.979355,-1.2259347 -1.646263,-0.019353 -2.865516,0.2501916 -3.660864,0.8159179 -0.795361,0.5657608 -1.396528,1.5796523 -1.804173,3.0433023 -1.14449,-0.179218 -2.288124,-0.361432 -3.430895,-0.54661 0.349874,-1.463206 0.892242,-2.638344 1.625821,-3.5268416 0.733573,-0.888461 1.776681,-1.562324 3.129188,-2.0260831 1.352494,-0.4637184 2.910435,-0.6835285 4.678284,-0.6640721 1.754923,0.019356 3.17874,0.2364334 4.274785,0.6577938 1.096012,0.4214013 1.903257,0.9462901 2.420881,1.5779943 0.517586,0.6317422 0.881436,1.4288133 1.09066,2.3920227 0.117733,0.598796 0.178117,1.679371 0.180652,3.241782 l 0.0075,4.687279 c 0.0052,3.268081 0.08465,5.334922 0.239157,6.200438 0.154463,0.865521 0.458975,1.694912 0.915131,2.487524 -1.253683,0.0044 -2.507281,0.0052 -3.760775,0.0024 -0.371637,-0.729991 -0.608273,-1.583665 -0.711083,-2.560576 z m -0.267641,-7.852565 c -1.288077,0.515789 -3.222199,0.948009 -5.803864,1.279507 -1.462106,0.189611 -2.498589,0.406272 -3.108551,0.656049 -0.609978,0.249794 -1.084655,0.621642 -1.4241,1.116423 -0.339457,0.494796 -0.515999,1.047963 -0.52852,1.659884 -0.01919,0.937426 0.325173,1.726245 1.036218,2.364735 0.711031,0.638496 1.765386,0.96989 3.160191,0.989316 1.381503,0.01925 2.61437,-0.264134 3.694135,-0.847613 1.079738,-0.583471 1.872939,-1.389884 2.380315,-2.416138 0.387226,-0.792437 0.582876,-1.96364 0.589052,-3.513112 z"
         id="path3821"
         inkscape:connector-curvature="0"
         inkscape:original-d="m 81.727678,21.084263 c -1.302098,1.106772 -2.555352,1.888021 -3.759765,2.34375 -1.204439,0.455729 -2.496755,0.683593 -3.876953,0.683594 -2.278653,-1e-6 -4.029953,-0.556641 -5.253907,-1.669922 -1.22396,-1.113279 -1.835939,-2.535804 -1.835937,-4.267578 -2e-6,-1.015619 0.231118,-1.943352 0.693359,-2.783204 0.462237,-0.839834 1.067705,-1.513662 1.816406,-2.021484 0.748694,-0.507802 1.591792,-0.891916 2.529297,-1.152344 0.690097,-0.18228 1.731763,-0.358061 3.125,-0.527343 2.83853,-0.33853 4.928371,-0.742175 6.269532,-1.210938 0.013,-0.4817571 0.01951,-0.7877464 0.01953,-0.9179687 C 81.454224,8.1285492 81.122193,7.1194356 80.458146,6.5334816 79.559695,5.7392287 78.22506,5.3420936 76.45424,5.3420753 74.800585,5.3420936 73.579883,5.6318069 72.79213,6.211216 72.004364,6.7906599 71.421682,7.8160495 71.044084,9.2873878 l -3.4375,-0.46875 C 67.919082,7.3473 68.433405,6.1591501 69.149553,5.2541847 69.865695,4.3492561 70.90085,3.6526422 72.255022,3.164341 73.609181,2.6760807 75.17819,2.4319403 76.962053,2.4319191 c 1.77082,2.12e-5 3.209621,0.2083543 4.316407,0.625 1.106754,0.4166868 1.920555,0.9407749 2.441406,1.5722656 0.520814,0.6315288 0.885397,1.4290541 1.09375,2.3925781 0.117168,0.5989744 0.175762,1.6797025 0.175781,3.2421872 l 0,4.6875 c -1.9e-5,3.268235 0.07485,5.33529 0.224609,6.201172 0.14972,0.865887 0.445944,1.695965 0.888672,2.490235 l -3.671875,0 c -0.3646,-0.729166 -0.598974,-1.58203 -0.703125,-2.558594 z M 81.43471,13.2327 c -1.276057,0.520844 -3.190117,0.963551 -5.742188,1.328125 -1.445321,0.208343 -2.467456,0.442717 -3.066406,0.703125 -0.598965,0.260425 -1.061204,0.641284 -1.386719,1.142578 -0.325526,0.501309 -0.488286,1.057949 -0.488281,1.669922 -5e-6,0.937505 0.354812,1.718754 1.064453,2.34375 0.709628,0.625003 1.748039,0.937503 3.115234,0.9375 1.354156,3e-6 2.558582,-0.296221 3.613282,-0.888672 1.054673,-0.592444 1.829412,-1.40299 2.324218,-2.43164 0.377589,-0.794265 0.566391,-1.966138 0.566407,-3.515625 z" />
      <path
         d="m 104.42292,26.5239 -0.0842,-2.615171 c -1.27556,2.099031 -3.23179,3.187744 -5.848487,3.247445 -1.695529,0.03868 -3.264174,-0.388088 -4.696765,-1.277427 -1.432602,-0.889336 -2.544318,-2.149483 -3.335389,-3.775428 -0.791077,-1.625936 -1.190913,-3.501097 -1.208466,-5.623222 -0.01713,-2.070028 0.314805,-3.95064 0.987396,-5.643412 0.672587,-1.6927402 1.687509,-2.9958392 3.043986,-3.9144012 1.356467,-0.918522 2.874661,-1.3947102 4.563379,-1.4324557 1.237517,-0.027624 2.345596,0.2075655 3.328126,0.7076367 0.98252,0.5001127 1.79139,1.1622951 2.42677,1.9886575 l -0.32651,-10.2656675 c 1.13893,-0.036083 2.27762,-0.075463 3.41606,-0.1181652 l 1.07588,28.6046234 c -1.11391,0.04201 -2.22784,0.08099 -3.34179,0.116987 z M 92.891313,16.439278 c 0.03733,2.655624 0.631333,4.633603 1.792681,5.929077 1.161334,1.295485 2.524785,1.926968 4.079635,1.890696 1.568121,-0.03658 2.885081,-0.70136 3.940881,-1.989503 1.05579,-1.288135 1.53707,-3.222261 1.45389,-5.798397 -0.0916,-2.836331 -0.70796,-4.899573 -1.83848,-6.194553 -1.13056,-1.2949467 -2.486931,-1.9218774 -4.080057,-1.8853947 -1.554289,0.035629 -2.839156,0.6973616 -3.864119,1.9903447 -1.024977,1.293017 -1.523056,3.311004 -1.484431,6.05773 0,0 0,0 0,0 z"
         id="path3823"
         inkscape:connector-curvature="0"
         inkscape:original-d="m 103.91518,23.642857 0,-2.617188 c -1.31512,2.057292 -3.24871,3.085937 -5.800783,3.085938 -1.653654,-1e-6 -3.173835,-0.45573 -4.560547,-1.367188 -1.386723,-0.911456 -2.460941,-2.184242 -3.222656,-3.818359 -0.761721,-1.634109 -1.14258,-3.512362 -1.142578,-5.634766 -2e-6,-2.0703 0.34505,-3.9485533 1.035156,-5.6347655 0.690101,-1.6861803 1.725256,-2.9784967 3.105469,-3.8769532 1.380201,-0.8984167 2.923168,-1.347635 4.628906,-1.3476562 1.249989,2.12e-5 2.363273,0.2636928 3.339843,0.7910156 0.97655,0.5273637 1.77082,1.2142119 2.38281,2.0605469 l 0,-10.2734375 3.4961,0 0,28.6328129 z M 92.801897,13.291294 c -5e-6,2.656258 0.55989,4.641933 1.679688,5.957031 1.119783,1.315108 2.441397,1.972659 3.964843,1.972657 1.536446,2e-6 2.841782,-0.628253 3.916012,-1.884766 1.07421,-1.256505 1.61132,-3.173821 1.61133,-5.751953 -1e-5,-2.838529 -0.54689,-4.9218602 -1.64062,-6.2500002 -1.09377,-1.3281073 -2.441421,-1.9921692 -4.042972,-1.9921875 -1.562509,1.83e-5 -2.867846,0.6380385 -3.916015,1.9140625 -1.048183,1.2760568 -1.572271,3.2877732 -1.572266,6.0351562 z" />
      <path
         d="m 127.51372,18.646544 c 1.2363,0.06188 2.47334,0.119819 3.71113,0.173782 -0.41559,2.160512 -1.37011,3.886056 -2.86854,5.168641 -1.49847,1.282591 -3.48902,2.007368 -5.95779,2.15995 -3.10934,0.19217 -5.62994,-0.611 -7.53585,-2.386846 -1.90591,-1.775841 -2.9221,-4.354483 -3.0735,-7.72246 -0.15665,-3.484989 0.62338,-6.2282717 2.31311,-8.2407617 1.68972,-2.0124529 3.93675,-3.0954321 6.76593,-3.2694473 2.73915,-0.1684354 5.03562,0.6167113 6.91679,2.3712131 1.88114,1.7545415 2.9674,4.3314129 3.23362,7.7445779 0.0162,0.207659 0.0334,0.519675 0.0532,0.935938 -5.19179,0.404498 -10.38792,0.738435 -15.58687,1.004196 0.24754,2.268249 0.98935,3.977487 2.23373,5.122103 1.24437,1.144626 2.75517,1.665297 4.52143,1.556065 1.31471,-0.0813 2.41551,-0.492745 3.29768,-1.230752 0.88215,-0.737998 1.54123,-1.867486 1.97592,-3.386201 -1e-5,1e-6 -2e-5,2e-6 -3e-5,2e-6 z m -11.98028,-4.957205 c 3.87368,-0.199272 7.74551,-0.436622 11.61486,-0.713051 -0.28092,-1.728628 -0.81578,-3.0017952 -1.60185,-3.8216727 -1.20822,-1.2734306 -2.69147,-1.85234 -4.46212,-1.7433519 -1.60264,0.098682 -2.91801,0.7143372 -3.95483,1.8528669 -1.03682,1.1385627 -1.57143,2.6122437 -1.59606,4.4252087 z"
         id="path3825"
         inkscape:connector-curvature="0"
         inkscape:original-d="m 126.92299,16.963169 3.63281,0.449219 c -0.57293,2.1224 -1.63413,3.769534 -3.18359,4.941406 -1.5495,1.171875 -3.52866,1.757812 -5.9375,1.757813 -3.03386,-1e-6 -5.43946,-0.934245 -7.2168,-2.802735 -1.77734,-1.868485 -2.66601,-4.488925 -2.66601,-7.861328 0,-3.4895696 0.89843,-6.1979002 2.69531,-8.1249999 1.79687,-1.9270631 4.1276,-2.8906038 6.99219,-2.890625 2.77342,2.12e-5 5.03904,0.9440307 6.79687,2.8320312 1.75779,1.8880374 2.6367,4.5442847 2.63672,7.9687497 -2e-5,0.208344 -0.007,0.520844 -0.0195,0.9375 l -15.46875,0 c 0.1302,2.278653 0.77473,4.023443 1.93359,5.234375 1.15885,1.210941 2.60416,1.816409 4.33594,1.816407 1.28905,2e-6 2.38931,-0.338539 3.30078,-1.015625 0.91144,-0.67708 1.6341,-1.757808 2.16797,-3.242188 z m -11.54297,-5.683594 11.58203,0 c -0.15626,-1.7447772 -0.59897,-3.0533697 -1.32812,-3.9257809 -1.11981,-1.354149 -2.57163,-2.0312317 -4.35547,-2.03125 -1.61459,1.83e-5 -2.97201,0.5403824 -4.07227,1.6210937 -1.10026,1.0807448 -1.70899,2.5260559 -1.82617,4.3359372 z" />
      <path
         d="M 136.20504,24.663695 134.43628,4.0017132 c 1.04039,-0.089154 2.08051,-0.1812425 3.12035,-0.2762846 l 0.28582,3.1309602 c 0.6667,-1.5381021 1.3113,-2.5727016 1.94082,-3.1036329 0.62949,-0.5308877 1.3467,-0.8360256 2.15412,-0.9164646 1.16626,-0.1161364 2.38868,0.1377577 3.67475,0.7605807 -0.28318,1.1234368 -0.56879,2.2466512 -0.85683,3.3696382 -0.90477,-0.4165026 -1.78113,-0.5826964 -2.63264,-0.4982494 -0.7612,0.075525 -1.42244,0.3717615 -1.98591,0.8897783 -0.56349,0.5180523 -0.93729,1.1968669 -1.12074,2.0376326 -0.27339,1.2806313 -0.34415,2.6597403 -0.20829,4.1376203 l 0.99389,10.81195 c -1.19868,0.109897 -2.39754,0.216038 -3.59658,0.318453 z"
         id="path3827"
         inkscape:connector-curvature="0"
         inkscape:original-d="m 134.95033,23.642857 0,-20.7421879 3.16407,0 0,3.1445312 c 0.80728,-1.471335 1.55272,-2.4413862 2.23633,-2.9101562 0.68358,-0.468729 1.43553,-0.7031038 2.25585,-0.703125 1.18489,2.12e-5 2.38931,0.377625 3.61329,1.1328125 l -1.21094,3.2617187 c -0.85939,-0.5077951 -1.71876,-0.7617011 -2.57813,-0.7617187 -0.76824,1.76e-5 -1.45834,0.2311371 -2.07031,0.6933594 -0.61199,0.462256 -1.04818,1.1035314 -1.30859,1.9238281 -0.39063,1.2500137 -0.58595,2.6171999 -0.58594,4.1015629 l 0,10.859375 z" />
    </g>
    <path
       style="fill:#ffffff;fill-opacity:0.556701;stroke:none"
       d="m 13.907147,7.5920686 c 1.936446,0.1071458 3.818185,1.2458537 5.624431,2.4434004 -2.177988,2.27116 -3.780161,4.706839 -4.241374,7.468507 C 12.813948,16.990498 10.621566,15.956584 8.8820403,14.092435 9.8205409,11.609989 11.254713,9.3399723 13.907147,7.5920686 z"
       id="path3773"
       inkscape:connector-curvature="0"
       sodipodi:nodetypes="ccccc" />
    <path
       transform="matrix(0.94624339,0,0,0.94624339,0.91277153,1.1831107)"
       d="m 46.719555,22.948217 a 22.223356,22.223356 0 1 1 -44.4467126,0 22.223356,22.223356 0 1 1 44.4467126,0 z"
       sodipodi:ry="22.223356"
       sodipodi:rx="22.223356"
       sodipodi:cy="22.948217"
       sodipodi:cx="24.496199"
       id="path3775"
       style="color:#000000;fill:none;stroke:#ffffff;stroke-width:0.52840531;marker:none;visibility:visible;display:inline;overflow:visible;enable-background:accumulate"
       sodipodi:type="arc" />
  </g>
</svg>
