<?xml version="1.0" encoding="UTF-8" standalone="no"?>
<!-- Created with Inkscape (http://www.inkscape.org/) -->
<svg
   xmlns:dc="http://purl.org/dc/elements/1.1/"
   xmlns:cc="http://creativecommons.org/ns#"
   xmlns:rdf="http://www.w3.org/1999/02/22-rdf-syntax-ns#"
   xmlns:svg="http://www.w3.org/2000/svg"
   xmlns="http://www.w3.org/2000/svg"
   xmlns:xlink="http://www.w3.org/1999/xlink"
   xmlns:sodipodi="http://sodipodi.sourceforge.net/DTD/sodipodi-0.dtd"
   xmlns:inkscape="http://www.inkscape.org/namespaces/inkscape"
   width="48px"
   height="48px"
   id="svg17061"
   sodipodi:version="0.32"
   inkscape:version="0.46"
   sodipodi:docname="hasinput.svg"
   inkscape:output_extension="org.inkscape.output.svg.inkscape">
  <defs
     id="defs17063">
    <linearGradient
       inkscape:collect="always"
       id="linearGradient3184">
      <stop
         style="stop-color:#ffffff;stop-opacity:0.65740741"
         offset="0"
         id="stop3186" />
      <stop
         style="stop-color:#ffffff;stop-opacity:0;"
         offset="1"
         id="stop3188" />
    </linearGradient>
    <linearGradient
       inkscape:collect="always"
       xlink:href="#linearGradient3184"
       id="linearGradient3190"
       x1="27.827209"
       y1="26.185154"
       x2="28.2129"
       y2="11.645473"
       gradientUnits="userSpaceOnUse"
       gradientTransform="matrix(1.4672875,0,0,1.4653339,-25.506116,-35.403361)" />
    <inkscape:perspective
       sodipodi:type="inkscape:persp3d"
       inkscape:vp_x="0 : 24 : 1"
       inkscape:vp_y="0 : 1000 : 0"
       inkscape:vp_z="48 : 24 : 1"
       inkscape:persp3d-origin="24 : 16 : 1"
       id="perspective17069" />
    <linearGradient
       inkscape:collect="always"
       xlink:href="#linearGradient3184"
       id="linearGradient8132"
       gradientUnits="userSpaceOnUse"
       gradientTransform="matrix(1.4672875,0,0,1.4653339,-25.506116,-35.403361)"
       x1="27.827209"
       y1="26.185154"
       x2="28.2129"
       y2="11.645473" />
    <linearGradient
       inkscape:collect="always"
       xlink:href="#linearGradient3184"
       id="linearGradient8138"
       gradientUnits="userSpaceOnUse"
       gradientTransform="matrix(0.9472335,0,0,0.9459649,-11.813487,-10.079479)"
       x1="27.827209"
       y1="26.185154"
       x2="28.2129"
       y2="11.645473" />
  </defs>
  <sodipodi:namedview
     id="base"
     pagecolor="#ffffff"
     bordercolor="#666666"
     borderopacity="1.0"
     inkscape:pageopacity="0.0"
     inkscape:pageshadow="2"
     inkscape:zoom="10.5"
     inkscape:cx="-14.349207"
     inkscape:cy="24"
     inkscape:current-layer="layer1"
     showgrid="true"
     inkscape:grid-bbox="true"
     inkscape:document-units="px"
     inkscape:window-width="1920"
     inkscape:window-height="1115"
     inkscape:window-x="0"
     inkscape:window-y="56" />
  <metadata
     id="metadata17066">
    <rdf:RDF>
      <cc:Work
         rdf:about="">
        <dc:format>image/svg+xml</dc:format>
        <dc:type
           rdf:resource="http://purl.org/dc/dcmitype/StillImage" />
      </cc:Work>
    </rdf:RDF>
  </metadata>
  <g
     id="layer1"
     inkscape:label="Layer 1"
     inkscape:groupmode="layer">
    <path
       sodipodi:nodetypes="cc"
       id="path17827"
       d="M 37.871619,39.784763 C 19.568512,39.478334 15.575356,29.08624 -1.062093,29.436793"
       style="fill:none;fill-rule:evenodd;stroke:#eeeeec;stroke-width:4;stroke-linecap:butt;stroke-linejoin:miter;stroke-miterlimit:4;stroke-dasharray:none;stroke-opacity:1" />
    <path
       style="fill:none;fill-rule:evenodd;stroke:#4e9a06;stroke-width:2.00000024;stroke-linecap:butt;stroke-linejoin:miter;stroke-miterlimit:4;stroke-dasharray:none;stroke-opacity:1"
       d="M 37.659446,40.007456 C 19.35634,39.690605 15.363184,28.945004 -1.2742658,29.307481"
       id="path17825"
       sodipodi:nodetypes="cc" />
    <rect
       style="opacity:1;fill:#888a85;fill-opacity:1;fill-rule:evenodd;stroke:#2e3436;stroke-width:1.99999976;stroke-linecap:square;stroke-linejoin:miter;marker:none;marker-start:none;marker-mid:none;marker-end:none;stroke-miterlimit:4;stroke-dasharray:none;stroke-dashoffset:0;stroke-opacity:1;visibility:visible;display:inline;overflow:visible;enable-background:accumulate"
       id="rect17817"
       width="15.183933"
       height="8.4761915"
       x="-16.242603"
       y="38.5"
       transform="matrix(0,-1,1,0,0,0)" />
    <path
       style="fill:none;fill-rule:evenodd;stroke:#eeeeec;stroke-width:1;stroke-linecap:butt;stroke-linejoin:miter;stroke-miterlimit:4;stroke-dasharray:none;stroke-opacity:1"
       d="M 46.246453,1.7521242 L 39.678808,1.7892307 L 39.678808,15.741384"
       id="path17819"
       sodipodi:nodetypes="ccc" />
    <path
       sodipodi:type="star"
       style="opacity:1;fill:#eeeeec;fill-opacity:1;fill-rule:evenodd;stroke:none;stroke-width:1;stroke-linecap:square;stroke-linejoin:miter;marker:none;marker-start:none;marker-mid:none;marker-end:none;stroke-miterlimit:4;stroke-dasharray:none;stroke-dashoffset:0;stroke-opacity:1;visibility:visible;display:inline;overflow:visible;enable-background:accumulate"
       id="path17823"
       sodipodi:sides="3"
       sodipodi:cx="20.095238"
       sodipodi:cy="39.047619"
       sodipodi:r1="6.0271497"
       sodipodi:r2="3.0135746"
       sodipodi:arg1="-0.52359878"
       sodipodi:arg2="0.52359878"
       inkscape:flatsided="true"
       inkscape:rounded="0"
       inkscape:randomized="0"
       d="M 25.314902,36.034044 L 20.095238,45.074769 L 14.875573,36.034044 L 25.314902,36.034044 z"
       transform="matrix(0,-0.4651287,0.581205,0,19.803178,18.132279)" />
    <rect
       transform="matrix(0,-1,1,0,0,0)"
       y="38.5"
       x="-31.873838"
       height="8.4761915"
       width="15.183933"
       id="rect3220"
       style="opacity:1;fill:#888a85;fill-opacity:1;fill-rule:evenodd;stroke:#2e3436;stroke-width:1.99999976;stroke-linecap:square;stroke-linejoin:miter;marker:none;marker-start:none;marker-mid:none;marker-end:none;stroke-miterlimit:4;stroke-dasharray:none;stroke-dashoffset:0;stroke-opacity:1;visibility:visible;display:inline;overflow:visible;enable-background:accumulate" />
    <path
       sodipodi:nodetypes="ccc"
       id="path3222"
       d="M 46.246453,17.383358 L 39.678808,17.420465 L 39.678808,31.372617"
       style="fill:none;fill-rule:evenodd;stroke:#eeeeec;stroke-width:1;stroke-linecap:butt;stroke-linejoin:miter;stroke-miterlimit:4;stroke-dasharray:none;stroke-opacity:1" />
    <path
       transform="matrix(0,-0.4651287,0.581205,0,19.803178,33.763513)"
       d="M 25.314902,36.034044 L 20.095238,45.074769 L 14.875573,36.034044 L 25.314902,36.034044 z"
       inkscape:randomized="0"
       inkscape:rounded="0"
       inkscape:flatsided="true"
       sodipodi:arg2="0.52359878"
       sodipodi:arg1="-0.52359878"
       sodipodi:r2="3.0135746"
       sodipodi:r1="6.0271497"
       sodipodi:cy="39.047619"
       sodipodi:cx="20.095238"
       sodipodi:sides="3"
       id="path3224"
       style="opacity:1;fill:#eeeeec;fill-opacity:1;fill-rule:evenodd;stroke:none;stroke-width:1;stroke-linecap:square;stroke-linejoin:miter;marker:none;marker-start:none;marker-mid:none;marker-end:none;stroke-miterlimit:4;stroke-dasharray:none;stroke-dashoffset:0;stroke-opacity:1;visibility:visible;display:inline;overflow:visible;enable-background:accumulate"
       sodipodi:type="star" />
    <rect
       style="opacity:1;fill:#888a85;fill-opacity:1;fill-rule:evenodd;stroke:#2e3436;stroke-width:1.99999976;stroke-linecap:square;stroke-linejoin:miter;marker:none;marker-start:none;marker-mid:none;marker-end:none;stroke-miterlimit:4;stroke-dasharray:none;stroke-dashoffset:0;stroke-opacity:1;visibility:visible;display:inline;overflow:visible;enable-background:accumulate"
       id="rect3226"
       width="15.183933"
       height="8.4761915"
       x="-47.17942"
       y="38.5"
       transform="matrix(0,-1,1,0,0,0)" />
    <path
       style="fill:none;fill-rule:evenodd;stroke:#eeeeec;stroke-width:1;stroke-linecap:butt;stroke-linejoin:miter;stroke-miterlimit:4;stroke-dasharray:none;stroke-opacity:1"
       d="M 46.246453,32.688942 L 39.678808,32.726048 L 39.678808,46.678201"
       id="path3228"
       sodipodi:nodetypes="ccc" />
    <path
       sodipodi:type="star"
       style="opacity:1;fill:#eeeeec;fill-opacity:1;fill-rule:evenodd;stroke:none;stroke-width:1;stroke-linecap:square;stroke-linejoin:miter;marker:none;marker-start:none;marker-mid:none;marker-end:none;stroke-miterlimit:4;stroke-dasharray:none;stroke-dashoffset:0;stroke-opacity:1;visibility:visible;display:inline;overflow:visible;enable-background:accumulate"
       id="path3230"
       sodipodi:sides="3"
       sodipodi:cx="20.095238"
       sodipodi:cy="39.047619"
       sodipodi:r1="6.0271497"
       sodipodi:r2="3.0135746"
       sodipodi:arg1="-0.52359878"
       sodipodi:arg2="0.52359878"
       inkscape:flatsided="true"
       inkscape:rounded="0"
       inkscape:randomized="0"
       d="M 25.314902,36.034044 L 20.095238,45.074769 L 14.875573,36.034044 L 25.314902,36.034044 z"
       transform="matrix(0,-0.4651287,0.581205,0,19.803178,49.069096)" />
    <rect
       style="fill:#edd400;fill-opacity:1;fill-rule:evenodd;stroke:#746100;stroke-width:2.00000072;stroke-linecap:butt;stroke-linejoin:miter;marker:none;marker-start:none;marker-mid:none;marker-end:none;stroke-miterlimit:4;stroke-dasharray:none;stroke-dashoffset:0;stroke-opacity:1;visibility:visible;display:inline;overflow:visible;enable-background:accumulate"
       id="rect3163"
       width="21.396709"
       height="21.396709"
       x="10.322243"
       y="-10.682134"
       ry="3.1268685"
       transform="matrix(0.707666,0.7065472,-0.707666,0.7065472,0,0)" />
    <path
       style="fill:url(#linearGradient8138);fill-opacity:1;fill-rule:evenodd;stroke:none;stroke-width:2;stroke-linecap:butt;stroke-linejoin:miter;marker:none;marker-start:none;marker-mid:none;marker-end:none;stroke-miterlimit:4;stroke-dashoffset:0;stroke-opacity:1;visibility:visible;display:inline;overflow:visible;enable-background:accumulate"
       d="M 2.3979267,16.977835 C 1.2736902,15.855375 1.2736902,14.048093 2.3979267,12.925631 L 12.826999,2.5129014 C 13.951236,1.3904421 15.76138,1.3904421 16.885619,2.5129014 L 27.720923,13.571728 C 18.296407,10.258513 8.7254727,19.26002 2.3979267,16.977835 z"
       id="path3182"
       sodipodi:nodetypes="cccccc" />
    <rect
       transform="matrix(0.7076674,0.7065457,-0.7076674,0.7065457,0,0)"
       ry="1.8518913"
       y="-8.9479618"
       x="11.940533"
       height="18.044289"
       width="18.044289"
       id="rect3192"
       style="fill:none;fill-opacity:1;fill-rule:evenodd;stroke:#ffffff;stroke-width:2.00000072;stroke-linecap:butt;stroke-linejoin:miter;marker:none;marker-start:none;marker-mid:none;marker-end:none;stroke-miterlimit:4;stroke-dasharray:none;stroke-dashoffset:0;stroke-opacity:0.65;visibility:visible;display:inline;overflow:visible;enable-background:accumulate" />
    <path
       id="path3846"
       d="M 14.829392,18.009613 L 14.269078,18.009613 C 14.269075,17.177965 14.313125,16.522511 14.401228,16.043247 C 14.489324,15.563997 14.602091,15.185171 14.73953,14.906773 C 14.876961,14.628388 15.227597,14.119177 15.791438,13.379139 C 16.235454,12.801219 16.547326,12.25677 16.727056,11.745785 C 16.906771,11.234824 16.996634,10.672752 16.996639,10.059573 C 16.996634,9.227935 16.762289,8.5583832 16.293605,8.0509198 C 15.824911,7.5434856 15.252263,7.2897621 14.575665,7.2897465 C 13.990681,7.2897621 13.50261,7.4342435 13.111451,7.7231922 C 12.720286,8.0121719 12.524705,8.3081838 12.524709,8.611229 C 12.524705,8.7803929 12.66214,8.9706867 12.937013,9.1821104 C 13.35284,9.5063255 13.560754,9.8587211 13.560759,10.239295 C 13.560754,10.577607 13.451511,10.859523 13.233029,11.085043 C 13.014539,11.310588 12.739668,11.423355 12.408416,11.423343 C 12.01373,11.423355 11.680713,11.264778 11.409367,10.94761 C 11.13802,10.630466 11.002347,10.214641 11.002348,9.7001296 C 11.002347,8.889635 11.375889,8.1619393 12.122974,7.5170408 C 12.870055,6.8721726 13.810958,6.5497309 14.945682,6.5497154 C 16.108591,6.5497309 17.068875,6.9091744 17.826537,7.6280459 C 18.584185,8.3469472 18.963013,9.2244103 18.963022,10.260439 C 18.963013,10.922954 18.832626,11.522026 18.571859,12.057656 C 18.37451,12.459396 17.877628,13.023229 17.081216,13.749154 C 16.045159,14.679485 15.416128,15.366656 15.194124,15.810666 C 14.972108,16.254691 14.85053,16.987673 14.829392,18.009613 L 14.829392,18.009613 z M 14.575665,20.293136 C 14.928058,20.293138 15.227597,20.416476 15.47428,20.663151 C 15.720954,20.90983 15.844292,21.205841 15.844297,21.551187 C 15.844292,21.917679 15.720954,22.229549 15.47428,22.486797 C 15.227597,22.744046 14.928058,22.872669 14.575665,22.87267 C 14.223262,22.872669 13.923725,22.745806 13.67705,22.492083 C 13.430368,22.238359 13.307028,21.924727 13.307032,21.551187 C 13.307028,21.198794 13.430368,20.901019 13.67705,20.657865 C 13.923725,20.414714 14.223262,20.293138 14.575665,20.293136 L 14.575665,20.293136 z"
       style="font-size:14px;font-style:normal;font-variant:normal;font-weight:normal;font-stretch:normal;fill:none;fill-opacity:1;stroke:#ffffff;stroke-width:1.99999976;stroke-linecap:butt;stroke-linejoin:miter;stroke-miterlimit:4;stroke-dasharray:none;stroke-opacity:1;font-family:Century;-inkscape-font-specification:Century" />
    <path
       style="font-size:14px;font-style:normal;font-variant:normal;font-weight:normal;font-stretch:normal;fill:#000000;fill-opacity:1;stroke:none;stroke-width:1px;stroke-linecap:butt;stroke-linejoin:miter;stroke-opacity:1;font-family:Century;-inkscape-font-specification:Century"
       d="M 14.829392,18.009613 L 14.269079,18.009613 C 14.269075,17.177964 14.313125,16.522511 14.401229,16.043247 C 14.489324,15.563997 14.602092,15.185171 14.739531,14.906773 C 14.876962,14.628387 15.227597,14.119177 15.791439,13.379138 C 16.235454,12.801219 16.547327,12.25677 16.727056,11.745785 C 16.906772,11.234823 16.996634,10.672752 16.99664,10.059573 C 16.996634,9.2279348 16.76229,8.558383 16.293606,8.0509197 C 15.824911,7.5434854 15.252264,7.2897619 14.575666,7.2897463 C 13.990681,7.2897619 13.502611,7.4342434 13.111451,7.723192 C 12.720286,8.0121717 12.524705,8.3081836 12.524709,8.6112288 C 12.524705,8.7803927 12.662141,8.9706865 12.937014,9.1821101 C 13.35284,9.5063252 13.560754,9.8587208 13.560759,10.239294 C 13.560754,10.577607 13.451512,10.859523 13.23303,11.085043 C 13.014539,11.310588 12.739668,11.423354 12.408416,11.423343 C 12.01373,11.423354 11.680714,11.264778 11.409367,10.947609 C 11.13802,10.630465 11.002347,10.21464 11.002348,9.7001294 C 11.002347,8.8896347 11.375889,8.161939 12.122974,7.5170406 C 12.870055,6.8721725 13.810958,6.5497307 14.945683,6.5497152 C 16.108592,6.5497307 17.068876,6.9091743 17.826537,7.6280457 C 18.584186,8.346947 18.963014,9.22441 18.963023,10.260439 C 18.963014,10.922954 18.832626,11.522026 18.57186,12.057656 C 18.37451,12.459396 17.877628,13.023229 17.081216,13.749153 C 16.04516,14.679485 15.416129,15.366656 15.194125,15.810665 C 14.972108,16.254691 14.850531,16.987673 14.829392,18.009613 L 14.829392,18.009613 z M 14.575666,20.293136 C 14.928058,20.293137 15.227597,20.416475 15.47428,20.66315 C 15.720954,20.909829 15.844292,21.20584 15.844298,21.551186 C 15.844292,21.917678 15.720954,22.229548 15.47428,22.486797 C 15.227597,22.744045 14.928058,22.872668 14.575666,22.872669 C 14.223263,22.872668 13.923725,22.745806 13.67705,22.492083 C 13.430369,22.238358 13.307029,21.924726 13.307032,21.551186 C 13.307029,21.198793 13.430369,20.901018 13.67705,20.657864 C 13.923725,20.414714 14.223263,20.293137 14.575666,20.293136 L 14.575666,20.293136 z"
       id="text3841" />
  </g>
</svg>
