<?xml version="1.0" encoding="UTF-8" standalone="no"?>
<!-- Created with Inkscape (http://www.inkscape.org/) -->
<svg
   xmlns:dc="http://purl.org/dc/elements/1.1/"
   xmlns:cc="http://creativecommons.org/ns#"
   xmlns:rdf="http://www.w3.org/1999/02/22-rdf-syntax-ns#"
   xmlns:svg="http://www.w3.org/2000/svg"
   xmlns="http://www.w3.org/2000/svg"
   xmlns:sodipodi="http://sodipodi.sourceforge.net/DTD/sodipodi-0.dtd"
   xmlns:inkscape="http://www.inkscape.org/namespaces/inkscape"
   width="48px"
   height="48px"
   id="svg17061"
   sodipodi:version="0.32"
   inkscape:version="0.46"
   sodipodi:docname="hilownoise.svg"
   inkscape:output_extension="org.inkscape.output.svg.inkscape">
  <defs
     id="defs17063" />
  <sodipodi:namedview
     id="base"
     pagecolor="#ffffff"
     bordercolor="#666666"
     borderopacity="1.0"
     inkscape:pageopacity="0.0"
     inkscape:pageshadow="2"
     inkscape:zoom="10.5"
     inkscape:cx="21.118421"
     inkscape:cy="22.854005"
     inkscape:current-layer="layer1"
     showgrid="true"
     inkscape:grid-bbox="true"
     inkscape:document-units="px"
     inkscape:window-width="1189"
     inkscape:window-height="853"
     inkscape:window-x="545"
     inkscape:window-y="98"
     objecttolerance="5"
     gridtolerance="5"
     guidetolerance="5"
     inkscape:snap-global="false">
    <inkscape:grid
       type="xygrid"
       id="grid22699"
       visible="true"
       enabled="true" />
  </sodipodi:namedview>
  <metadata
     id="metadata17066">
    <rdf:RDF>
      <cc:Work
         rdf:about="">
        <dc:format>image/svg+xml</dc:format>
        <dc:type
           rdf:resource="http://purl.org/dc/dcmitype/StillImage" />
      </cc:Work>
    </rdf:RDF>
  </metadata>
  <g
     id="layer1"
     inkscape:label="Layer 1"
     inkscape:groupmode="layer">
    <path
       sodipodi:nodetypes="ccccccccccccccccc"
       id="path22703"
       d="M 1.4999999,12.743627 L 4.3125001,6.2654409 L 7.1250002,21.577517 L 9.9375,9.210071 L 12.75,15.099331 L 15.382979,1.1843873 L 18.375001,18.632888 L 21.187501,9.210071 L 24.455926,12.248812 L 26.812501,10.387922 L 29.625001,13.921479 L 32.437501,8.621145 L 35.250001,21.577517 L 38.062501,3.3208107 L 40.875001,18.043961 L 43.687502,8.0322188 L 46.500002,13.921479"
       style="fill:none;fill-rule:evenodd;stroke:#ffffff;stroke-width:3;stroke-linecap:butt;stroke-linejoin:miter;stroke-miterlimit:4;stroke-dasharray:none;stroke-opacity:1" />
    <path
       style="fill:none;fill-rule:evenodd;stroke:#3b7403;stroke-width:0.99999988px;stroke-linecap:butt;stroke-linejoin:miter;stroke-opacity:1"
       d="M 1.4999999,12.743627 L 4.3125001,6.2654409 L 7.1250002,21.577517 L 9.9375,9.210071 L 12.75,15.099331 L 15.382979,1.1843873 L 18.375001,18.632888 L 21.187501,9.210071 L 24.455926,12.248812 L 26.812501,10.387922 L 29.625001,13.921479 L 32.437501,8.621145 L 35.250001,21.577517 L 38.062501,3.3208107 L 40.875001,18.043961 L 43.687502,8.0322188 L 46.500002,13.921479"
       id="path22701"
       sodipodi:nodetypes="ccccccccccccccccc" />
    <path
       style="fill:none;fill-rule:evenodd;stroke:#ffffff;stroke-width:2.99999976;stroke-linecap:butt;stroke-linejoin:miter;stroke-miterlimit:4;stroke-dasharray:none;stroke-opacity:1"
       d="M 46.500002,37.803487 L 43.687502,31.267099 L 40.875002,46.716744 L 38.062502,34.238184 L 35.250002,40.180356 L 32.617023,26.140396 L 29.625001,43.745659 L 26.812501,34.238184 L 23.544076,37.304226 L 21.187501,35.426618 L 18.375001,38.991921 L 15.562501,33.643967 L 12.750001,46.716744 L 9.9375009,28.296013 L 7.1250009,43.151441 L 4.3124999,33.04975 L 1.4999999,38.991921"
       id="path22864"
       sodipodi:nodetypes="ccccccccccccccccc" />
    <path
       sodipodi:nodetypes="ccccccccccccccccc"
       id="path22866"
       d="M 46.500002,37.803487 L 43.687502,31.267099 L 40.875002,46.716744 L 38.062502,34.238184 L 35.250002,40.180356 L 32.617023,26.140396 L 29.625001,43.745659 L 26.812501,34.238184 L 23.544076,37.304226 L 21.187501,35.426618 L 18.375001,38.991921 L 15.562501,33.643967 L 12.750001,46.716744 L 9.9375009,28.296013 L 7.1250009,43.151441 L 4.3124999,33.04975 L 1.4999999,38.991921"
       style="fill:none;fill-rule:evenodd;stroke:#3b7403;stroke-width:0.99999988px;stroke-linecap:butt;stroke-linejoin:miter;stroke-opacity:1" />
  </g>
</svg>
