<?xml version="1.0" encoding="UTF-8" standalone="no"?>
<!-- Created with Inkscape (http://www.inkscape.org/) -->
<svg
   xmlns:dc="http://purl.org/dc/elements/1.1/"
   xmlns:cc="http://creativecommons.org/ns#"
   xmlns:rdf="http://www.w3.org/1999/02/22-rdf-syntax-ns#"
   xmlns:svg="http://www.w3.org/2000/svg"
   xmlns="http://www.w3.org/2000/svg"
   xmlns:xlink="http://www.w3.org/1999/xlink"
   xmlns:sodipodi="http://sodipodi.sourceforge.net/DTD/sodipodi-0.dtd"
   xmlns:inkscape="http://www.inkscape.org/namespaces/inkscape"
   width="48px"
   height="48px"
   id="svg2383"
   sodipodi:version="0.32"
   inkscape:version="0.46"
   sodipodi:docname="if.svg"
   inkscape:output_extension="org.inkscape.output.svg.inkscape">
  <defs
     id="defs2385">
    <linearGradient
       inkscape:collect="always"
       id="linearGradient3184">
      <stop
         style="stop-color:#ffffff;stop-opacity:0.65740741"
         offset="0"
         id="stop3186" />
      <stop
         style="stop-color:#ffffff;stop-opacity:0;"
         offset="1"
         id="stop3188" />
    </linearGradient>
    <inkscape:perspective
       sodipodi:type="inkscape:persp3d"
       inkscape:vp_x="0 : 24 : 1"
       inkscape:vp_y="0 : 1000 : 0"
       inkscape:vp_z="48 : 24 : 1"
       inkscape:persp3d-origin="24 : 16 : 1"
       id="perspective2391" />
    <linearGradient
       inkscape:collect="always"
       xlink:href="#linearGradient3184"
       id="linearGradient3190"
       x1="27.827209"
       y1="26.185154"
       x2="28.2129"
       y2="11.645473"
       gradientUnits="userSpaceOnUse"
       gradientTransform="matrix(1.4672875,0,0,1.4653339,-17.301111,-16.185996)" />
  </defs>
  <sodipodi:namedview
     id="base"
     pagecolor="#ffffff"
     bordercolor="#666666"
     borderopacity="1.0"
     inkscape:pageopacity="0.0"
     inkscape:pageshadow="2"
     inkscape:zoom="15.75"
     inkscape:cx="5.9206354"
     inkscape:cy="21.142857"
     inkscape:current-layer="layer1"
     showgrid="true"
     inkscape:grid-bbox="true"
     inkscape:document-units="px"
     inkscape:window-width="1920"
     inkscape:window-height="1115"
     inkscape:window-x="-4"
     inkscape:window-y="-4" />
  <metadata
     id="metadata2388">
    <rdf:RDF>
      <cc:Work
         rdf:about="">
        <dc:format>image/svg+xml</dc:format>
        <dc:type
           rdf:resource="http://purl.org/dc/dcmitype/StillImage" />
      </cc:Work>
    </rdf:RDF>
  </metadata>
  <g
     id="layer1"
     inkscape:label="Layer 1"
     inkscape:groupmode="layer">
    <rect
       transform="matrix(0.7076632,0.7065499,-0.7076632,0.7065499,0,0)"
       ry="5.0677996"
       y="-16.383659"
       x="17.818443"
       height="34.678219"
       width="34.678219"
       id="rect3171"
       style="opacity:1;fill:#000000;fill-opacity:0.25098039;fill-rule:evenodd;stroke:none;stroke-width:2;stroke-linecap:butt;stroke-linejoin:miter;marker:none;marker-start:none;marker-mid:none;marker-end:none;stroke-miterlimit:4;stroke-dasharray:none;stroke-dashoffset:0;stroke-opacity:1;visibility:visible;display:inline;overflow:visible;enable-background:accumulate" />
    <rect
       style="opacity:1;fill:#edd400;fill-opacity:1;fill-rule:evenodd;stroke:#746100;stroke-width:2.00000095;stroke-linecap:butt;stroke-linejoin:miter;marker:none;marker-start:none;marker-mid:none;marker-end:none;stroke-miterlimit:4;stroke-dasharray:none;stroke-dashoffset:0;stroke-opacity:1;visibility:visible;display:inline;overflow:visible;enable-background:accumulate"
       id="rect3163"
       width="33.14415"
       height="33.14415"
       x="16.28964"
       y="-17.657425"
       ry="4.8436141"
       transform="matrix(0.7076632,0.7065499,-0.7076632,0.7065499,0,0)" />
    <path
       style="fill:url(#linearGradient3190);fill-opacity:1;fill-rule:evenodd;stroke:none;stroke-width:2;stroke-linecap:butt;stroke-linejoin:miter;marker:none;marker-start:none;marker-mid:none;marker-end:none;stroke-miterlimit:4;stroke-dashoffset:0;stroke-opacity:1;visibility:visible;display:inline;overflow:visible;enable-background:accumulate"
       d="M 4.712711,25.726762 C 2.9712416,23.98803 2.9712416,21.188485 4.712711,19.449751 L 20.867595,3.3200555 C 22.609066,1.581325 25.413022,1.581325 27.154495,3.3200555 L 43.938641,20.450578 C 29.339839,15.318289 14.514232,29.261948 4.712711,25.726762 z"
       id="path3182"
       sodipodi:nodetypes="cccccc" />
    <rect
       transform="matrix(0.7076629,0.7065502,-0.7076629,0.7065502,0,0)"
       ry="2.9951837"
       y="-15.587742"
       x="18.179897"
       height="29.184198"
       width="29.184198"
       id="rect3192"
       style="opacity:1;fill:none;fill-opacity:1;fill-rule:evenodd;stroke:#ffffff;stroke-width:2.00000095;stroke-linecap:butt;stroke-linejoin:miter;marker:none;marker-start:none;marker-mid:none;marker-end:none;stroke-miterlimit:4;stroke-dasharray:none;stroke-dashoffset:0;stroke-opacity:0.65;visibility:visible;display:inline;overflow:visible;enable-background:accumulate" />
    <path
       id="path3846"
       d="M 23.96935,27.325022 L 23.101411,27.325022 C 23.101406,26.036769 23.16964,25.021448 23.306115,24.27905 C 23.442576,23.536674 23.617256,22.949859 23.830153,22.51861 C 24.043036,22.087382 24.586179,21.298596 25.459583,20.15225 C 26.147375,19.257032 26.630472,18.41366 26.908877,17.622126 C 27.187261,16.830628 27.32646,15.95996 27.326469,15.010123 C 27.32646,13.721885 26.963454,12.684725 26.237452,11.898646 C 25.511433,11.112612 24.624389,10.719585 23.576322,10.719561 C 22.670166,10.719585 21.914133,10.943392 21.308218,11.390984 C 20.702295,11.838624 20.399335,12.297157 20.39934,12.766585 C 20.399335,13.028626 20.612225,13.323398 21.03801,13.650901 C 21.682135,14.153122 22.0042,14.698996 22.004207,15.288518 C 22.0042,15.812576 21.83498,16.249275 21.496546,16.598614 C 21.158099,16.947991 20.732317,17.122669 20.2192,17.122652 C 19.607821,17.122669 19.091971,16.877029 18.67165,16.385724 C 18.251327,15.894457 18.041166,15.250328 18.041168,14.453332 C 18.041166,13.197846 18.61979,12.070619 19.777044,11.071648 C 20.93429,10.072724 22.391771,9.57325 24.149487,9.573226 C 25.950861,9.57325 27.438363,10.130041 28.612,11.243599 C 29.785616,12.357203 30.372429,13.716425 30.372443,15.321271 C 30.372429,16.347531 30.170455,17.275516 29.766523,18.105226 C 29.460823,18.727536 28.691142,19.600933 27.45748,20.725417 C 25.852603,22.166533 24.87822,23.230986 24.534329,23.918773 C 24.190421,24.606584 24.002095,25.742 23.96935,27.325022 L 23.96935,27.325022 z M 23.576322,30.862281 C 24.122187,30.862284 24.586179,31.05334 24.968297,31.435448 C 25.350401,31.817562 25.541455,32.276094 25.541464,32.811047 C 25.541455,33.378757 25.350401,33.861854 24.968297,34.260342 C 24.586179,34.658829 24.122187,34.858071 23.576322,34.858073 C 23.030441,34.858071 22.566451,34.661557 22.184345,34.26853 C 21.802229,33.875502 21.611173,33.389674 21.611178,32.811047 C 21.611173,32.265178 21.802229,31.803914 22.184345,31.42726 C 22.566451,31.050611 23.030441,30.862284 23.576322,30.862281 L 23.576322,30.862281 z"
       style="font-size:14px;font-style:normal;font-variant:normal;font-weight:normal;font-stretch:normal;fill:none;fill-opacity:1;stroke:#ffffff;stroke-width:2;stroke-linecap:butt;stroke-linejoin:miter;stroke-opacity:1;font-family:Century;-inkscape-font-specification:Century;stroke-miterlimit:4;stroke-dasharray:none" />
    <path
       style="font-size:14px;font-style:normal;font-variant:normal;font-weight:normal;font-stretch:normal;fill:#000000;fill-opacity:1;stroke:none;stroke-width:1px;stroke-linecap:butt;stroke-linejoin:miter;stroke-opacity:1;font-family:Century;-inkscape-font-specification:Century"
       d="M 23.96935,27.325022 L 23.101411,27.325022 C 23.101406,26.036769 23.16964,25.021448 23.306115,24.27905 C 23.442576,23.536674 23.617256,22.949859 23.830153,22.51861 C 24.043036,22.087382 24.586179,21.298596 25.459583,20.15225 C 26.147375,19.257032 26.630472,18.41366 26.908877,17.622126 C 27.187261,16.830628 27.32646,15.95996 27.326469,15.010123 C 27.32646,13.721885 26.963454,12.684725 26.237452,11.898646 C 25.511433,11.112612 24.624389,10.719585 23.576322,10.719561 C 22.670166,10.719585 21.914133,10.943392 21.308218,11.390984 C 20.702295,11.838624 20.399335,12.297157 20.39934,12.766585 C 20.399335,13.028626 20.612225,13.323398 21.03801,13.650901 C 21.682135,14.153122 22.0042,14.698996 22.004207,15.288518 C 22.0042,15.812576 21.83498,16.249275 21.496546,16.598614 C 21.158099,16.947991 20.732317,17.122669 20.2192,17.122652 C 19.607821,17.122669 19.091971,16.877029 18.67165,16.385724 C 18.251327,15.894457 18.041166,15.250328 18.041168,14.453332 C 18.041166,13.197846 18.61979,12.070619 19.777044,11.071648 C 20.93429,10.072724 22.391771,9.57325 24.149487,9.573226 C 25.950861,9.57325 27.438363,10.130041 28.612,11.243599 C 29.785616,12.357203 30.372429,13.716425 30.372443,15.321271 C 30.372429,16.347531 30.170455,17.275516 29.766523,18.105226 C 29.460823,18.727536 28.691142,19.600933 27.45748,20.725417 C 25.852603,22.166533 24.87822,23.230986 24.534329,23.918773 C 24.190421,24.606584 24.002095,25.742 23.96935,27.325022 L 23.96935,27.325022 z M 23.576322,30.862281 C 24.122187,30.862284 24.586179,31.05334 24.968297,31.435448 C 25.350401,31.817562 25.541455,32.276094 25.541464,32.811047 C 25.541455,33.378757 25.350401,33.861854 24.968297,34.260342 C 24.586179,34.658829 24.122187,34.858071 23.576322,34.858073 C 23.030441,34.858071 22.566451,34.661557 22.184345,34.26853 C 21.802229,33.875502 21.611173,33.389674 21.611178,32.811047 C 21.611173,32.265178 21.802229,31.803914 22.184345,31.42726 C 22.566451,31.050611 23.030441,30.862284 23.576322,30.862281 L 23.576322,30.862281 z"
       id="text3841" />
  </g>
</svg>
