<?xml version="1.0" standalone="no"?>
<!DOCTYPE svg PUBLIC "-//W3C//DTD SVG 20000303 Stylable//EN"
	"http://www.w3.org/TR/2000/03/WD-SVG-20000303/DTD/svg-20000303-stylable.dtd">
<svg xmlns="http://www.w3.org/2000/svg" width="50pt" height="50pt" viewBox="0 0 50 50" xml:space="preserve">
<g transform="scale(0.5)">
	<g id="Path_0" style="fill-rule:nonzero;clip-rule:nonzero;fill:#FFFFFF;stroke:#000000;stroke-miterlimit:4;fill-opacity:1.0;">
		<path d="M10.00 75L7.00 70.4L5.00 62.5L20.00 60L10.00 55L10.00 45L20.00 40L15.00 32.5L25.00 27.5L20.00 20L30.00 10L40.00 5L50.00 5L60.00 10L65.00 17.5L75.00 22.5L75.00 32.5L70.00 40L80.00 45L85.00 52.5L85.00 57.5L90.00 65L85.00 67.5L90.00 75L80.00 80L65.00 82.5L35.00 82.5L20.00 80z"/>
	</g>
	<g id="Path_2" style="fill-rule:nonzero;clip-rule:nonzero;fill:#FFFFFF;stroke:none;stroke-miterlimit:4;fill-opacity:1.0;">
		<path d="M45.00 77.5L55.00 67.5L62.60 68L72.20 69.4L80.00 75L65.00 77.5z"/>
	</g>
	<g id="Path_3" style="fill-rule:nonzero;clip-rule:nonzero;fill:#f8fcf8;stroke:none;stroke-miterlimit:4;fill-opacity:1.0;">
		<path d="M50.00 10L65.00 22.5L65.00 32.5L47.60 18.6z"/>
	</g>
	<g id="Path_3" style="fill-rule:nonzero;clip-rule:nonzero;fill:none;stroke:#000000;stroke-miterlimit:4;fill-opacity:1.0;">
		<path d="M15.00 12.5L50.00 75"/>
	</g>
	<g id="Path_2" style="fill-rule:nonzero;clip-rule:nonzero;fill:#FFFFFF;stroke:#000000;stroke-miterlimit:4;fill-opacity:1.0;">
		<path d="M13.00 33.4L34.98 48.19L35.00 22.5z"/>
	</g>
	<g id="Path_3" style="fill-rule:nonzero;clip-rule:nonzero;fill:none;stroke:#000000;stroke-miterlimit:4;fill-opacity:1.0;">
		<path d="M57.80 71L42.80 78.6"/>
	</g>
	<g id="Path_4" style="fill-rule:nonzero;clip-rule:nonzero;fill:none;stroke:#000000;stroke-miterlimit:4;fill-opacity:1.0;">
		<path d="M42.00 71.4L57.60 78.8"/>
	</g>
</g>
</svg>