<?xml version="1.0" encoding="UTF-8" standalone="no"?>
<!-- Created with Inkscape (http://www.inkscape.org/) -->
<svg
   xmlns:dc="http://purl.org/dc/elements/1.1/"
   xmlns:cc="http://creativecommons.org/ns#"
   xmlns:rdf="http://www.w3.org/1999/02/22-rdf-syntax-ns#"
   xmlns:svg="http://www.w3.org/2000/svg"
   xmlns="http://www.w3.org/2000/svg"
   xmlns:sodipodi="http://sodipodi.sourceforge.net/DTD/sodipodi-0.dtd"
   xmlns:inkscape="http://www.inkscape.org/namespaces/inkscape"
   width="48px"
   height="48px"
   id="svg15291"
   sodipodi:version="0.32"
   inkscape:version="0.46"
   sodipodi:docname="inttofloat.svg"
   inkscape:output_extension="org.inkscape.output.svg.inkscape">
  <defs
     id="defs15293">
    <inkscape:perspective
       sodipodi:type="inkscape:persp3d"
       inkscape:vp_x="0 : 24 : 1"
       inkscape:vp_y="0 : 1000 : 0"
       inkscape:vp_z="48 : 24 : 1"
       inkscape:persp3d-origin="24 : 16 : 1"
       id="perspective15299" />
  </defs>
  <sodipodi:namedview
     id="base"
     pagecolor="#ffffff"
     bordercolor="#666666"
     borderopacity="1.0"
     inkscape:pageopacity="0.0"
     inkscape:pageshadow="2"
     inkscape:zoom="7"
     inkscape:cx="-19.142857"
     inkscape:cy="24"
     inkscape:current-layer="layer1"
     showgrid="true"
     inkscape:grid-bbox="true"
     inkscape:document-units="px"
     inkscape:window-width="1920"
     inkscape:window-height="1115"
     inkscape:window-x="0"
     inkscape:window-y="24" />
  <metadata
     id="metadata15296">
    <rdf:RDF>
      <cc:Work
         rdf:about="">
        <dc:format>image/svg+xml</dc:format>
        <dc:type
           rdf:resource="http://purl.org/dc/dcmitype/StillImage" />
      </cc:Work>
    </rdf:RDF>
  </metadata>
  <g
     id="layer1"
     inkscape:label="Layer 1"
     inkscape:groupmode="layer">
    <path
       sodipodi:nodetypes="ccccc"
       id="path16940"
       d="M 20.571429,35.714285 C 28.693199,32.78368 37.225395,33.136491 45.714286,33.142857 C 37.4047,34.987876 29.133783,36.96824 21.571429,41.428571 C 28.476191,39.940754 35.380952,39.362591 42.285714,41.285714 C 37.343596,42.239327 32.018526,42.554687 28.142857,45.285714"
       style="fill:none;fill-rule:evenodd;stroke:#ffffff;stroke-width:5;stroke-linecap:butt;stroke-linejoin:miter;stroke-miterlimit:4;stroke-dasharray:none;stroke-opacity:1" />
    <g
       id="g16421"
       style="fill:none;stroke:#ffffff;stroke-opacity:1;stroke-width:2;stroke-miterlimit:4;stroke-dasharray:none">
      <path
         style="font-size:14px;font-style:normal;font-variant:normal;font-weight:normal;font-stretch:normal;fill:none;fill-opacity:1;stroke:#ffffff;stroke-width:2;stroke-linecap:butt;stroke-linejoin:miter;stroke-opacity:1;font-family:Georgia;-inkscape-font-specification:Georgia;stroke-miterlimit:4;stroke-dasharray:none"
         d="M 18.966872,30.447264 L 1.0376673,30.447264 L 1.0376673,27.844945 C 1.3820893,27.449498 1.8604562,27.00621 2.472769,26.515083 C 3.0850749,26.023964 3.8121925,25.491384 4.6541237,24.917338 C 5.1643757,24.57292 5.7766851,24.196604 6.4910538,23.788391 C 7.2054073,23.380193 8.0154415,22.933715 8.921159,22.448964 C 9.9289086,21.913201 10.703863,21.441212 11.246024,21.032995 C 11.788161,20.6248 12.282474,20.120921 12.728963,19.521353 C 13.022349,19.125915 13.25834,18.631602 13.436948,18.038415 C 13.615523,17.445255 13.704819,16.600138 13.704832,15.503069 C 13.704819,13.90853 13.277475,12.738126 12.422808,11.991854 C 11.568112,11.24562 10.471058,10.872496 9.1316409,10.872477 C 8.3024617,10.872496 7.5179402,11.03514 6.7780739,11.36041 C 6.0381923,11.685719 5.4832869,12.135383 5.1133562,12.709406 C 5.2026451,13.11763 5.3142641,13.602374 5.4482132,14.163642 C 5.5821495,14.724941 5.6491206,15.27347 5.6491274,15.809223 C 5.6491206,16.293986 5.4482068,16.724515 5.0463848,17.100816 C 4.6445506,17.477145 4.0481867,17.665302 3.2572912,17.665289 C 2.6194646,17.665302 2.1283415,17.445255 1.7839204,17.005144 C 1.4394934,16.565059 1.2672813,15.975073 1.2672835,15.235183 C 1.2672813,14.54635 1.458628,13.854313 1.8413244,13.15907 C 2.2240146,12.463862 2.7725421,11.822848 3.4869076,11.236034 C 4.1885077,10.662013 5.0559461,10.196402 6.0892253,9.8392023 C 7.1224903,9.4820415 8.2386793,9.3034513 9.4377959,9.3034317 C 12.052858,9.3034513 14.128968,9.887059 15.666136,11.054255 C 17.203274,12.221491 17.971848,13.780965 17.971867,15.732687 C 17.971848,16.663922 17.834715,17.512224 17.560471,18.277599 C 17.28619,19.042999 16.842903,19.71909 16.230612,20.305879 C 15.554501,20.956467 14.763601,21.51456 13.857908,21.980162 C 12.952188,22.445781 11.568112,23.093172 9.7056815,23.922334 C 8.5958599,24.41984 7.5625877,24.939667 6.6058618,25.481812 C 5.6491206,26.023964 4.8645994,26.550168 4.2522952,27.060424 L 18.966872,27.060424 L 18.966872,30.447264 z"
         id="path16423" />
      <path
         style="font-size:14px;font-style:normal;font-variant:normal;font-weight:normal;font-stretch:normal;fill:none;fill-opacity:1;stroke:#ffffff;stroke-width:2;stroke-linecap:butt;stroke-linejoin:miter;stroke-opacity:1;font-family:Georgia;-inkscape-font-specification:Georgia;stroke-miterlimit:4;stroke-dasharray:none"
         d="M 26.673832,28.246774 C 26.673823,28.961138 26.415505,29.570257 25.898875,30.074136 C 25.382229,30.578017 24.766731,30.829956 24.052377,30.829956 C 23.33801,30.829956 22.722511,30.578017 22.205879,30.074136 C 21.68924,29.570257 21.430923,28.961138 21.430925,28.246774 C 21.430923,27.532414 21.68924,26.916915 22.205879,26.400277 C 22.722511,25.883643 23.33801,25.625326 24.052377,25.62532 C 24.766731,25.625326 25.382229,25.883643 25.898875,26.400277 C 26.415505,26.916915 26.673823,27.532414 26.673832,28.246774 L 26.673832,28.246774 z"
         id="path16425" />
      <path
         id="path16427"
         style="font-size:14px;font-style:normal;font-variant:normal;font-weight:normal;font-stretch:normal;fill:none;fill-opacity:1;stroke:#ffffff;stroke-width:2;stroke-linecap:butt;stroke-linejoin:miter;stroke-opacity:1;font-family:Georgia;-inkscape-font-specification:Georgia;stroke-miterlimit:4;stroke-dasharray:none"
         d="M 44.766602,12.575463 C 45.582994,13.557726 46.192116,14.708997 46.593965,16.029275 C 46.995773,17.34958 47.196685,18.730465 47.196708,20.171934 C 47.196685,21.906823 46.947935,23.459921 46.450453,24.831232 C 45.952934,26.202554 45.270463,27.341068 44.403043,28.246774 C 43.510073,29.177997 42.451287,29.8796 41.226684,30.351589 C 40.00205,30.823579 38.637108,31.059572 37.131862,31.059574 C 35.486266,31.059572 34.019275,30.78531 32.730882,30.236781 C 31.442473,29.688254 30.396445,28.935624 29.592793,27.978889 C 28.750864,26.983887 28.122611,25.819863 27.708029,24.486807 C 27.293441,23.153765 27.086148,21.715477 27.086151,20.171934 C 27.086148,18.653928 27.287061,17.257097 27.688894,15.981438 C 28.090717,14.705806 28.718974,13.551349 29.573661,12.518058 C 30.390067,11.523074 31.442473,10.738552 32.730882,10.164492 C 34.019275,9.5904714 35.492646,9.3034513 37.150997,9.3034317 C 38.898618,9.3034513 40.397499,9.5968507 41.647648,10.183627 C 42.897763,10.770443 43.937413,11.567722 44.766602,12.575463 L 44.766602,12.575463 z M 42.967942,20.171934 C 42.967923,17.135908 42.448099,14.782346 41.408465,13.111233 C 40.368797,11.440158 38.956023,10.604608 37.170132,10.604589 C 35.358705,10.604608 33.92998,11.440158 32.883962,13.111233 C 31.837923,14.782346 31.314911,17.135908 31.314917,20.171934 C 31.314911,23.054903 31.8156,25.373388 32.816989,27.127393 C 33.818362,28.881411 35.256651,29.758414 37.131862,29.758414 C 39.007048,29.758414 40.448525,28.881411 41.456302,27.127393 C 42.464046,25.373388 42.967923,23.054903 42.967942,20.171934 L 42.967942,20.171934 z" />
    </g>
    <path
       style="font-size:14px;font-style:normal;font-variant:normal;font-weight:normal;font-stretch:normal;fill:#000000;fill-opacity:1;stroke:none;stroke-width:1px;stroke-linecap:butt;stroke-linejoin:miter;stroke-opacity:1;font-family:Georgia;-inkscape-font-specification:Georgia"
       d="M 18.966872,30.447264 L 1.0376673,30.447264 L 1.0376673,27.844945 C 1.3820893,27.449498 1.8604562,27.00621 2.472769,26.515083 C 3.0850749,26.023964 3.8121925,25.491384 4.6541237,24.917338 C 5.1643757,24.57292 5.7766851,24.196604 6.4910538,23.788391 C 7.2054073,23.380193 8.0154415,22.933715 8.921159,22.448964 C 9.9289086,21.913201 10.703863,21.441212 11.246024,21.032995 C 11.788161,20.6248 12.282474,20.120921 12.728963,19.521353 C 13.022349,19.125915 13.25834,18.631602 13.436948,18.038415 C 13.615523,17.445255 13.704819,16.600138 13.704832,15.503069 C 13.704819,13.90853 13.277475,12.738126 12.422808,11.991854 C 11.568112,11.24562 10.471058,10.872496 9.1316409,10.872477 C 8.3024617,10.872496 7.5179402,11.03514 6.7780739,11.36041 C 6.0381923,11.685719 5.4832869,12.135383 5.1133562,12.709406 C 5.2026451,13.11763 5.3142641,13.602374 5.4482132,14.163642 C 5.5821495,14.724941 5.6491206,15.27347 5.6491274,15.809223 C 5.6491206,16.293986 5.4482068,16.724515 5.0463848,17.100816 C 4.6445506,17.477145 4.0481867,17.665302 3.2572912,17.665289 C 2.6194646,17.665302 2.1283415,17.445255 1.7839204,17.005144 C 1.4394934,16.565059 1.2672813,15.975073 1.2672835,15.235183 C 1.2672813,14.54635 1.458628,13.854313 1.8413244,13.15907 C 2.2240146,12.463862 2.7725421,11.822848 3.4869076,11.236034 C 4.1885077,10.662013 5.0559461,10.196402 6.0892253,9.8392023 C 7.1224903,9.4820415 8.2386793,9.3034513 9.4377959,9.3034317 C 12.052858,9.3034513 14.128968,9.887059 15.666136,11.054255 C 17.203274,12.221491 17.971848,13.780965 17.971867,15.732687 C 17.971848,16.663922 17.834715,17.512224 17.560471,18.277599 C 17.28619,19.042999 16.842903,19.71909 16.230612,20.305879 C 15.554501,20.956467 14.763601,21.51456 13.857908,21.980162 C 12.952188,22.445781 11.568112,23.093172 9.7056815,23.922334 C 8.5958599,24.41984 7.5625877,24.939667 6.6058618,25.481812 C 5.6491206,26.023964 4.8645994,26.550168 4.2522952,27.060424 L 18.966872,27.060424 L 18.966872,30.447264 z"
       id="path16411" />
    <path
       style="font-size:14px;font-style:normal;font-variant:normal;font-weight:normal;font-stretch:normal;fill:#204a87;fill-opacity:1;stroke:none;stroke-width:1px;stroke-linecap:butt;stroke-linejoin:miter;stroke-opacity:1;font-family:Georgia;-inkscape-font-specification:Georgia"
       d="M 26.673832,28.246774 C 26.673823,28.961138 26.415505,29.570257 25.898875,30.074136 C 25.382229,30.578017 24.766731,30.829956 24.052377,30.829956 C 23.33801,30.829956 22.722511,30.578017 22.205879,30.074136 C 21.68924,29.570257 21.430923,28.961138 21.430925,28.246774 C 21.430923,27.532414 21.68924,26.916915 22.205879,26.400277 C 22.722511,25.883643 23.33801,25.625326 24.052377,25.62532 C 24.766731,25.625326 25.382229,25.883643 25.898875,26.400277 C 26.415505,26.916915 26.673823,27.532414 26.673832,28.246774 L 26.673832,28.246774 z"
       id="path16409" />
    <path
       id="path16407"
       style="font-size:14px;font-style:normal;font-variant:normal;font-weight:normal;font-stretch:normal;fill:#204a87;fill-opacity:1;stroke:none;stroke-width:1px;stroke-linecap:butt;stroke-linejoin:miter;stroke-opacity:1;font-family:Georgia;-inkscape-font-specification:Georgia"
       d="M 44.766602,12.575463 C 45.582994,13.557726 46.192116,14.708997 46.593965,16.029275 C 46.995773,17.34958 47.196685,18.730465 47.196708,20.171934 C 47.196685,21.906823 46.947935,23.459921 46.450453,24.831232 C 45.952934,26.202554 45.270463,27.341068 44.403043,28.246774 C 43.510073,29.177997 42.451287,29.8796 41.226684,30.351589 C 40.00205,30.823579 38.637108,31.059572 37.131862,31.059574 C 35.486266,31.059572 34.019275,30.78531 32.730882,30.236781 C 31.442473,29.688254 30.396445,28.935624 29.592793,27.978889 C 28.750864,26.983887 28.122611,25.819863 27.708029,24.486807 C 27.293441,23.153765 27.086148,21.715477 27.086151,20.171934 C 27.086148,18.653928 27.287061,17.257097 27.688894,15.981438 C 28.090717,14.705806 28.718974,13.551349 29.573661,12.518058 C 30.390067,11.523074 31.442473,10.738552 32.730882,10.164492 C 34.019275,9.5904714 35.492646,9.3034513 37.150997,9.3034317 C 38.898618,9.3034513 40.397499,9.5968507 41.647648,10.183627 C 42.897763,10.770443 43.937413,11.567722 44.766602,12.575463 L 44.766602,12.575463 z M 42.967942,20.171934 C 42.967923,17.135908 42.448099,14.782346 41.408465,13.111233 C 40.368797,11.440158 38.956023,10.604608 37.170132,10.604589 C 35.358705,10.604608 33.92998,11.440158 32.883962,13.111233 C 31.837923,14.782346 31.314911,17.135908 31.314917,20.171934 C 31.314911,23.054903 31.8156,25.373388 32.816989,27.127393 C 33.818362,28.881411 35.256651,29.758414 37.131862,29.758414 C 39.007048,29.758414 40.448525,28.881411 41.456302,27.127393 C 42.464046,25.373388 42.967923,23.054903 42.967942,20.171934 L 42.967942,20.171934 z" />
    <path
       style="fill:none;fill-rule:evenodd;stroke:#729fcf;stroke-width:3;stroke-linecap:butt;stroke-linejoin:miter;stroke-miterlimit:4;stroke-dasharray:none;stroke-opacity:1"
       d="M 20.571429,35.714285 C 28.693199,32.78368 37.225395,33.136491 45.714286,33.142857 C 37.4047,34.987876 29.133783,36.96824 21.571429,41.428571 C 28.476191,39.940754 35.380952,39.362591 42.285714,41.285714 C 37.343596,42.239327 32.018526,42.554687 28.142857,45.285714"
       id="path16938"
       sodipodi:nodetypes="ccccc" />
  </g>
</svg>
