<?xml version="1.0" encoding="UTF-8" standalone="no"?>
<!-- Created with Inkscape (http://www.inkscape.org/) -->

<svg
   xmlns:dc="http://purl.org/dc/elements/1.1/"
   xmlns:cc="http://creativecommons.org/ns#"
   xmlns:rdf="http://www.w3.org/1999/02/22-rdf-syntax-ns#"
   xmlns:svg="http://www.w3.org/2000/svg"
   xmlns="http://www.w3.org/2000/svg"
   xmlns:xlink="http://www.w3.org/1999/xlink"
   xmlns:sodipodi="http://sodipodi.sourceforge.net/DTD/sodipodi-0.dtd"
   xmlns:inkscape="http://www.inkscape.org/namespaces/inkscape"
   width="48px"
   height="48px"
   id="svg24248"
   version="1.1"
   inkscape:version="0.48.5 r10040"
   sodipodi:docname="isalpha.svg">
  <defs
     id="defs24250">
    <linearGradient
       id="linearGradient24766">
      <stop
         style="stop-color:#e3e9eb;stop-opacity:1;"
         offset="0"
         id="stop24768" />
      <stop
         style="stop-color:#b1c6ce;stop-opacity:1;"
         offset="1"
         id="stop24770" />
    </linearGradient>
    <radialGradient
       inkscape:collect="always"
       xlink:href="#linearGradient24766"
       id="radialGradient24772"
       cx="25.642857"
       cy="25.214285"
       fx="25.642857"
       fy="25.214285"
       r="25.714285"
       gradientUnits="userSpaceOnUse" />
  </defs>
  <sodipodi:namedview
     id="base"
     pagecolor="#ffffff"
     bordercolor="#666666"
     borderopacity="1.0"
     inkscape:pageopacity="0.0"
     inkscape:pageshadow="2"
     inkscape:zoom="7"
     inkscape:cx="-1.5714286"
     inkscape:cy="22.642857"
     inkscape:current-layer="layer1"
     showgrid="true"
     inkscape:grid-bbox="true"
     inkscape:document-units="px"
     inkscape:window-width="2560"
     inkscape:window-height="1475"
     inkscape:window-x="0"
     inkscape:window-y="0"
     inkscape:window-maximized="1" />
  <metadata
     id="metadata24253">
    <rdf:RDF>
      <cc:Work
         rdf:about="">
        <dc:format>image/svg+xml</dc:format>
        <dc:type
           rdf:resource="http://purl.org/dc/dcmitype/StillImage" />
        <dc:title></dc:title>
      </cc:Work>
    </rdf:RDF>
  </metadata>
  <g
     id="layer1"
     inkscape:label="Layer 1"
     inkscape:groupmode="layer">
    <path
       sodipodi:type="arc"
       style="color:#000000;fill:url(#radialGradient24772);fill-opacity:1;stroke:none;stroke-width:3.22857117999999987;stroke-linecap:round;stroke-linejoin:round;stroke-miterlimit:4;stroke-opacity:1;stroke-dasharray:none;stroke-dashoffset:0;marker:none;visibility:visible;display:inline;overflow:visible;enable-background:accumulate"
       id="path24256"
       sodipodi:cx="25.642857"
       sodipodi:cy="25.214285"
       sodipodi:rx="24.214285"
       sodipodi:ry="24.214285"
       d="m 49.857141,25.214285 a 24.214285,24.214285 0 1 1 -48.4285693,0 24.214285,24.214285 0 1 1 48.4285693,0 z"
       transform="matrix(0.92920357,0,0,0.92920357,0.17256607,0.57079631)" />
    <path
       transform="matrix(0.92920357,0,0,0.92920357,0.17256607,0.57079631)"
       d="m 49.857141,25.214285 a 24.214285,24.214285 0 1 1 -48.4285693,0 24.214285,24.214285 0 1 1 48.4285693,0 z"
       sodipodi:ry="24.214285"
       sodipodi:rx="24.214285"
       sodipodi:cy="25.214285"
       sodipodi:cx="25.642857"
       id="path24780"
       style="color:#000000;fill:none;fill-opacity:1;stroke:#204a87;stroke-width:3.22857117999999987;stroke-linecap:round;stroke-linejoin:round;stroke-miterlimit:4;stroke-opacity:1;stroke-dasharray:none;stroke-dashoffset:0;marker:none;visibility:visible;display:inline;overflow:visible;enable-background:accumulate"
       sodipodi:type="arc" />
    <g
       style="font-size:32.75192261px;font-style:normal;font-variant:normal;font-weight:normal;font-stretch:normal;line-height:125%;letter-spacing:0px;word-spacing:0px;fill:#000000;fill-opacity:1;stroke:none;font-family:Baskerville;-inkscape-font-specification:Baskerville"
       id="text24887">
      <path
         d="m 17.347265,22.832572 c 0.330496,-0.09594 0.661,-0.143917 0.991514,-0.143929 1.56722,1.2e-5 2.798614,0.538414 3.694186,1.615207 0.906208,1.066153 1.359319,2.409492 1.359333,4.030022 -1.4e-5,1.951046 -0.666353,3.55026 -1.999019,4.797645 -1.33269,1.247388 -3.049179,1.871081 -5.149472,1.871081 -1.407315,0 -2.617386,-0.319843 -3.630218,-0.959529 -1.012839,-0.639685 -1.519256,-1.327346 -1.519254,-2.062987 -2e-6,-0.309179 0.09595,-0.570384 0.287858,-0.783615 0.191904,-0.223887 0.442447,-0.335832 0.751631,-0.335836 0.554392,4e-6 0.948864,0.378485 1.18342,1.135443 0.298515,0.970192 0.724972,1.593885 1.279372,1.871082 0.543727,0.287859 1.082129,0.431788 1.615207,0.431788 1.343332,0 2.430797,-0.490426 3.262398,-1.471278 0.842242,-0.980849 1.263368,-2.500102 1.26338,-4.557763 -1.2e-5,-1.652514 -0.314523,-2.883908 -0.943537,-3.694186 -0.618373,-0.810259 -1.354011,-1.215393 -2.206916,-1.215404 -0.735647,1.1e-5 -1.545915,0.447791 -2.430807,1.343341 -0.149266,0.159931 -0.303857,0.239892 -0.463773,0.239882 -0.319848,10e-6 -0.479769,-0.170573 -0.479764,-0.511749 -5e-6,-0.14925 0.07996,-0.30384 0.239882,-0.463772 0.170578,-0.170572 0.63968,-0.517069 1.407309,-1.03949 1.684498,-1.14076 2.798617,-2.089627 3.34236,-2.846602 0.543722,-0.756947 0.815588,-1.711144 0.815599,-2.862595 -1.1e-5,-1.098109 -0.282538,-1.945693 -0.847584,-2.542752 -0.565065,-0.607681 -1.316695,-0.911532 -2.254893,-0.911553 -0.959535,2.1e-5 -1.812449,0.309202 -2.558744,0.927545 -0.735643,0.607721 -1.103462,1.386005 -1.103458,2.334854 -4e-6,0.756978 0.325169,1.465963 0.975521,2.126956 0.07462,0.07465 0.11194,0.138614 0.111945,0.191906 -5e-6,0.138613 -0.175918,0.287873 -0.527741,0.44778 -0.351831,0.159936 -0.607705,0.239897 -0.767623,0.239882 -0.330508,1.5e-5 -0.639689,-0.250529 -0.927545,-0.751631 -0.287861,-0.501072 -0.43179,-1.044804 -0.431788,-1.631199 -2e-6,-1.183401 0.511746,-2.254874 1.535247,-3.214422 1.023492,-0.959508 2.393485,-1.439272 4.109982,-1.439294 1.759127,2.2e-5 3.086474,0.405156 3.982045,1.215404 0.906209,0.799627 1.35932,1.695186 1.359333,2.686681 -1.3e-5,0.874254 -0.309195,1.689853 -0.927545,2.446799 -0.607713,0.746314 -1.641871,1.60989 -3.102477,2.590728 l -1.295364,0.89556"
         style=""
         id="path24916" />
      <path
         d="m 30.236938,28.413833 -0.719647,0 0,-6.716703 0.719647,0 c 0.437114,0.810281 1.01283,1.215415 1.727152,1.215403 0.831585,1.2e-5 1.449947,-0.405122 1.855089,-1.215403 0.415788,-0.820917 0.623685,-2.04165 0.623694,-3.662203 -9e-6,-1.513905 -0.330513,-2.612032 -0.991513,-3.294382 -0.661016,-0.692973 -1.417977,-1.039469 -2.270885,-1.03949 -1.034164,2.1e-5 -1.796455,0.52243 -2.286878,1.567231 -0.245216,0.543751 -0.586381,0.815618 -1.023497,0.815599 -0.511751,1.9e-5 -0.767625,-0.266517 -0.767623,-0.799607 -2e-6,-0.586359 0.421124,-1.1141 1.263379,-1.583223 0.84225,-0.469082 1.81777,-0.703633 2.926564,-0.703655 1.76979,2.2e-5 3.145114,0.581069 4.125974,1.743145 0.991503,1.162114 1.487259,2.569422 1.48727,4.221927 -1.1e-5,1.417985 -0.421137,2.590741 -1.263379,3.518273 -0.831601,0.916894 -1.849767,1.375336 -3.054501,1.375325 -0.938212,1.1e-5 -1.721827,-0.298509 -2.350846,-0.89556 l 0,5.453323 m -2.062987,4.861613 c -3e-6,-0.469101 0.165249,-0.868905 0.495756,-1.199411 0.341163,-0.341163 0.746297,-0.511746 1.215404,-0.511749 0.479759,3e-6 0.884893,0.170586 1.215403,0.511749 0.34116,0.330506 0.511743,0.73031 0.511749,1.199411 -6e-6,0.479765 -0.170589,0.884899 -0.511749,1.215403 -0.33051,0.341166 -0.735644,0.511749 -1.215403,0.511749 -0.479769,0 -0.884903,-0.175914 -1.215404,-0.527741 -0.330507,-0.341165 -0.495759,-0.740969 -0.495756,-1.199411"
         style=""
         id="path24918" />
    </g>
  </g>
</svg>
