<?xml version="1.0" encoding="UTF-8" standalone="no"?>
<!-- Created with Inkscape (http://www.inkscape.org/) -->
<svg
   xmlns:a="http://ns.adobe.com/AdobeSVGViewerExtensions/3.0/"
   xmlns:i="http://ns.adobe.com/AdobeIllustrator/10.0/"
   xmlns:dc="http://purl.org/dc/elements/1.1/"
   xmlns:cc="http://creativecommons.org/ns#"
   xmlns:rdf="http://www.w3.org/1999/02/22-rdf-syntax-ns#"
   xmlns:svg="http://www.w3.org/2000/svg"
   xmlns="http://www.w3.org/2000/svg"
   xmlns:xlink="http://www.w3.org/1999/xlink"
   xmlns:sodipodi="http://sodipodi.sourceforge.net/DTD/sodipodi-0.dtd"
   xmlns:inkscape="http://www.inkscape.org/namespaces/inkscape"
   width="48px"
   height="48px"
   id="svg9144"
   sodipodi:version="0.32"
   inkscape:version="0.46"
   sodipodi:docbase="C:\dev\src\houdini\support\icons\OBJ"
   sodipodi:docname="isfog.svg"
   inkscape:output_extension="org.inkscape.output.svg.inkscape">
  <metadata
     id="metadata2619">
    <rdf:RDF>
      <cc:Work
         rdf:about="">
        <dc:format>image/svg+xml</dc:format>
        <dc:type
           rdf:resource="http://purl.org/dc/dcmitype/StillImage" />
      </cc:Work>
    </rdf:RDF>
  </metadata>
  <defs
     id="defs9146">
    <linearGradient
       inkscape:collect="always"
       id="linearGradient3184">
      <stop
         style="stop-color:#ffffff;stop-opacity:0.65740741"
         offset="0"
         id="stop3186" />
      <stop
         style="stop-color:#ffffff;stop-opacity:0;"
         offset="1"
         id="stop3188" />
    </linearGradient>
    <linearGradient
       inkscape:collect="always"
       xlink:href="#linearGradient3184"
       id="linearGradient3190"
       x1="27.827209"
       y1="26.185154"
       x2="28.2129"
       y2="11.645473"
       gradientUnits="userSpaceOnUse"
       gradientTransform="matrix(0.9590032,0,0,0.9576908,32.744823,-20.539216)" />
    <inkscape:perspective
       sodipodi:type="inkscape:persp3d"
       inkscape:vp_x="0 : 24 : 1"
       inkscape:vp_y="0 : 1000 : 0"
       inkscape:vp_z="48 : 24 : 1"
       inkscape:persp3d-origin="24 : 16 : 1"
       id="perspective18576" />
    <linearGradient
       id="linearGradient3596"
       gradientUnits="userSpaceOnUse"
       x1="99.4624"
       y1="270.6895"
       x2="99.4624"
       y2="310.6905">
      <stop
         offset="0"
         style="stop-color:#081323;stop-opacity:1;"
         id="stop3598" />
      <stop
         id="stop3600"
         style="stop-color:#92aaca;stop-opacity:1;"
         offset="0.64367819" />
      <stop
         offset="1"
         style="stop-color:#ffffff;stop-opacity:0;"
         id="stop3602" />
      <a:midPointStop
         offset="0"
         style="stop-color:#265596" />
      <a:midPointStop
         offset="0.5"
         style="stop-color:#265596" />
      <a:midPointStop
         offset="1"
         style="stop-color:#FFFFFF" />
    </linearGradient>
    <radialGradient
       gradientUnits="userSpaceOnUse"
       fy="287.15039"
       fx="100.9844"
       r="23.9133"
       cy="287.15039"
       cx="100.9844"
       id="XMLID_244_">
      <stop
         id="stop7941"
         style="stop-color:#939393;stop-opacity:1;"
         offset="0" />
      <stop
         offset="0.7303161"
         style="stop-color:#e3e4e4;stop-opacity:1;"
         id="stop3590" />
      <stop
         id="stop7945"
         style="stop-color:#dbdede;stop-opacity:0;"
         offset="0.97750002" />
      <a:midPointStop
         style="stop-color:#FFFFFF"
         offset="0" />
      <a:midPointStop
         style="stop-color:#FFFFFF"
         offset="0.548" />
      <a:midPointStop
         style="stop-color:#DBDEDE"
         offset="0.9775" />
    </radialGradient>
    <linearGradient
       y2="310.6905"
       x2="99.4624"
       y1="270.6895"
       x1="99.4624"
       gradientUnits="userSpaceOnUse"
       id="XMLID_245_">
      <stop
         id="stop7950"
         style="stop-color:#265596"
         offset="0" />
      <stop
         offset="0.5"
         style="stop-color:#92aaca;stop-opacity:1;"
         id="stop3594" />
      <stop
         id="stop7952"
         style="stop-color:#ffffff;stop-opacity:0;"
         offset="1" />
      <a:midPointStop
         style="stop-color:#265596"
         offset="0" />
      <a:midPointStop
         style="stop-color:#265596"
         offset="0.5" />
      <a:midPointStop
         style="stop-color:#FFFFFF"
         offset="1" />
    </linearGradient>
    <linearGradient
       inkscape:collect="always"
       xlink:href="#linearGradient3596"
       id="linearGradient3592"
       gradientUnits="userSpaceOnUse"
       x1="99.462402"
       y1="270.68951"
       x2="99.462402"
       y2="310.69049" />
  </defs>
  <sodipodi:namedview
     id="base"
     pagecolor="#ffffff"
     bordercolor="#666666"
     borderopacity="1.0"
     inkscape:pageopacity="0.0"
     inkscape:pageshadow="2"
     inkscape:zoom="10.141602"
     inkscape:cx="10.566678"
     inkscape:cy="22.627417"
     inkscape:current-layer="layer1"
     showgrid="true"
     inkscape:grid-bbox="true"
     inkscape:document-units="px"
     inkscape:window-width="1920"
     inkscape:window-height="1115"
     inkscape:window-x="-4"
     inkscape:window-y="-4" />
  <g
     id="layer1"
     inkscape:label="Layer 1"
     inkscape:groupmode="layer">
    <circle
       transform="translate(-77.071,-263.063)"
       sodipodi:ry="23.913"
       sodipodi:rx="23.913"
       sodipodi:cy="287.14999"
       sodipodi:cx="100.985"
       style="fill:url(#XMLID_244_);fill-opacity:1.0"
       id="circle7947"
       r="23.913"
       cy="287.14999"
       cx="100.985"
       i:knockout="Off" />
    <polyline
       transform="translate(-77.071,-263.063)"
       style="fill:url(#XMLID_245_)"
       id="polyline7954"
       points="121.853,292.486 121.853,291.543 116.568,291.543 116.568,293.053      107.981,293.053 107.981,292.016 95.903,292.016 95.903,285.881 84.768,285.881 84.768,292.864 81.088,292.864 81.088,297.11      77.071,297.11 77.071,302.395 121.853,302.395 121.853,292.486 "
       i:knockout="Off" />
    <polygon
       transform="translate(-77.071,-263.063)"
       style="fill:url(#linearGradient3592);fill-opacity:1.0;opacity:1;color:#000000;fill-rule:nonzero;stroke:none;stroke-width:1;stroke-linecap:butt;stroke-linejoin:miter;marker:none;marker-start:none;marker-mid:none;marker-end:none;stroke-miterlimit:4;stroke-dasharray:none;stroke-dashoffset:0;stroke-opacity:1;visibility:visible;display:inline;overflow:visible;enable-background:accumulate"
       id="polygon7961"
       points="125.072,300.62 122.986,300.62 122.986,294.864 119.683,294.864 119.683,297.035 118.457,297.035 118.457,299.677 116.002,299.677 116.002,298.072 114.776,298.072 114.776,285.711 108.737,285.711 108.737,289.485 105.623,289.485 105.623,294.015 103.263,294.015 103.263,282.125 92.978,282.125 92.978,295.808 92.318,295.808 92.318,287.598 87.505,287.598 87.505,297.506 86.373,297.506 86.373,294.676 79.012,294.676 79.012,300.62 77.071,300.62 77.071,310.889 125.072,310.889 125.072,300.62 "
       i:knockout="Off" />
    <g
       id="g18587"
       transform="translate(-26.721617,10.156186)">
      <rect
         transform="matrix(0.7076764,0.7065367,-0.7076764,0.7065367,0,0)"
         ry="3.1656749"
         y="-49.714237"
         x="34.722481"
         height="21.662254"
         width="21.662254"
         id="rect3163"
         style="opacity:1;fill:#edd400;fill-opacity:1;fill-rule:evenodd;stroke:#746100;stroke-width:2.00000095;stroke-linecap:butt;stroke-linejoin:miter;marker:none;marker-start:none;marker-mid:none;marker-end:none;stroke-miterlimit:4;stroke-dasharray:none;stroke-dashoffset:0;stroke-opacity:1;visibility:visible;display:inline;overflow:visible;enable-background:accumulate" />
      <path
         sodipodi:nodetypes="cccccc"
         id="path3182"
         d="M 47.132819,6.8534926 C 45.994614,5.7171176 45.994614,3.8874336 47.132819,2.7510576 L 57.691476,-7.7907446 C 58.829683,-8.9271176 60.662318,-8.9271176 61.800526,-7.7907446 L 72.770462,3.4051636 C 63.228843,0.050879556 53.538987,9.1639656 47.132819,6.8534926 z"
         style="fill:url(#linearGradient3190);fill-opacity:1;fill-rule:evenodd;stroke:none;stroke-width:2;stroke-linecap:butt;stroke-linejoin:miter;marker:none;marker-start:none;marker-mid:none;marker-end:none;stroke-miterlimit:4;stroke-dashoffset:0;stroke-opacity:1;visibility:visible;display:inline;overflow:visible;enable-background:accumulate" />
      <rect
         style="opacity:1;fill:none;fill-opacity:1;fill-rule:evenodd;stroke:#ffffff;stroke-width:2.00000072;stroke-linecap:butt;stroke-linejoin:miter;marker:none;marker-start:none;marker-mid:none;marker-end:none;stroke-miterlimit:4;stroke-dasharray:none;stroke-dashoffset:0;stroke-opacity:0.65;visibility:visible;display:inline;overflow:visible;enable-background:accumulate"
         id="rect3192"
         width="18.070396"
         height="18.070396"
         x="36.459667"
         y="-47.859543"
         ry="1.8545707"
         transform="matrix(0.7076783,0.7065348,-0.7076783,0.7065348,0,0)" />
      <path
         style="font-size:14px;font-style:normal;font-variant:normal;font-weight:normal;font-stretch:normal;fill:none;fill-opacity:1;stroke:#ffffff;stroke-width:2;stroke-linecap:butt;stroke-linejoin:miter;stroke-miterlimit:4;stroke-dasharray:none;stroke-opacity:1;font-family:Century;-inkscape-font-specification:Century"
         d="M 59.71875,7.8980576 L 59.151474,7.8980576 C 59.151471,7.0561006 59.196068,6.3925236 59.285266,5.9073186 C 59.374456,5.4221266 59.488624,5.0386056 59.627772,4.7567566 C 59.76691,4.4749206 60.121903,3.9593976 60.692749,3.2101866 C 61.142283,2.6251026 61.45803,2.0739046 61.639992,1.5565856 C 61.821941,1.0392916 61.912921,0.47025256 61.912926,-0.15052744 C 61.912921,-0.99247474 61.675664,-1.6703256 61.201156,-2.1840786 C 60.726638,-2.6978036 60.146875,-2.9546716 59.46187,-2.9546876 C 58.869616,-2.9546716 58.375482,-2.8083996 57.979462,-2.5158696 C 57.583438,-2.2233076 57.385426,-1.9236266 57.38543,-1.6168246 C 57.385426,-1.4455646 57.524569,-1.2529116 57.802858,-1.0388666 C 58.22385,-0.71063274 58.434349,-0.35386944 58.434353,0.031422556 C 58.434349,0.37392756 58.323748,0.65933856 58.102552,0.88765456 C 57.881346,1.1159956 57.60306,1.2301586 57.267692,1.2301466 C 56.868101,1.2301586 56.530947,1.0696166 56.25623,0.74851756 C 55.981511,0.42744156 55.844152,0.0064625558 55.844154,-0.51442664 C 55.844152,-1.3349676 56.222335,-2.0716836 56.978704,-2.7245756 C 57.735067,-3.3774376 58.687661,-3.7038756 59.836485,-3.7038926 C 61.013843,-3.7038756 61.986059,-3.3399766 62.753135,-2.6121956 C 63.520198,-1.8843826 63.903733,-0.99604304 63.903742,0.052828556 C 63.903733,0.72355556 63.771725,1.3300546 63.507719,1.8723236 C 63.307917,2.2790436 62.804861,2.8498646 61.998554,3.5847876 C 60.949623,4.5266506 60.312777,5.2223396 60.088014,5.6718536 C 59.863239,6.1213826 59.740152,6.8634516 59.71875,7.8980576 L 59.71875,7.8980576 z M 59.46187,10.209887 C 59.818642,10.209888 60.121903,10.334756 60.371651,10.584489 C 60.621389,10.834224 60.746261,11.133905 60.746266,11.483532 C 60.746261,11.854567 60.621389,12.170302 60.371651,12.43074 C 60.121903,12.691177 59.818642,12.821394 59.46187,12.821396 C 59.105089,12.821394 58.80183,12.69296 58.55209,12.436091 C 58.302343,12.179222 58.17747,11.861702 58.177474,11.483532 C 58.17747,11.126771 58.302343,10.825305 58.55209,10.579137 C 58.80183,10.332972 59.105089,10.209888 59.46187,10.209887 L 59.46187,10.209887 z"
         id="path3846" />
      <path
         id="text3841"
         d="M 59.718749,7.8980576 L 59.151474,7.8980576 C 59.151471,7.0561016 59.196068,6.3925246 59.285266,5.9073186 C 59.374456,5.4221276 59.488624,5.0386046 59.627772,4.7567556 C 59.76691,4.4749206 60.121903,3.9593976 60.692749,3.2101866 C 61.142283,2.6251036 61.45803,2.0739056 61.639992,1.5565866 C 61.821941,1.0392906 61.912921,0.47025256 61.912926,-0.15052744 C 61.912921,-0.99247414 61.675664,-1.6703256 61.201156,-2.1840786 C 60.726638,-2.6978036 60.146876,-2.9546726 59.461871,-2.9546876 C 58.869617,-2.9546726 58.375482,-2.8083996 57.979462,-2.5158686 C 57.583437,-2.2233076 57.385427,-1.9236256 57.385429,-1.6168246 C 57.385427,-1.4455636 57.524569,-1.2529116 57.802857,-1.0388666 C 58.223851,-0.71063294 58.434349,-0.35386844 58.434354,0.031421556 C 58.434349,0.37392756 58.323748,0.65933856 58.102552,0.88765456 C 57.881347,1.1159946 57.60306,1.2301586 57.267692,1.2301476 C 56.868101,1.2301586 56.530948,1.0696176 56.25623,0.74851656 C 55.981512,0.42744256 55.844152,0.0064615558 55.844154,-0.51442604 C 55.844152,-1.3349676 56.222335,-2.0716836 56.978704,-2.7245756 C 57.735067,-3.3774376 58.687661,-3.7038766 59.836485,-3.7038926 C 61.013843,-3.7038766 61.986059,-3.3399776 62.753135,-2.6121946 C 63.520198,-1.8843826 63.903733,-0.99604324 63.903742,0.052827556 C 63.903733,0.72355556 63.771725,1.3300536 63.507719,1.8723226 C 63.307917,2.2790426 62.804862,2.8498646 61.998554,3.5847886 C 60.949623,4.5266506 60.312777,5.2223406 60.088014,5.6718536 C 59.86324,6.1213836 59.740151,6.8634506 59.718749,7.8980576 L 59.718749,7.8980576 z M 59.461871,10.209887 C 59.818642,10.209889 60.121903,10.334756 60.37165,10.584489 C 60.621389,10.834225 60.746261,11.133905 60.746266,11.483532 C 60.746261,11.854568 60.621389,12.170302 60.37165,12.43074 C 60.121903,12.691177 59.818642,12.821394 59.461871,12.821396 C 59.105089,12.821394 58.80183,12.692961 58.552089,12.436091 C 58.302343,12.179223 58.17747,11.861702 58.177474,11.483532 C 58.17747,11.126771 58.302343,10.825305 58.552089,10.579137 C 58.80183,10.332972 59.105089,10.209889 59.461871,10.209887 L 59.461871,10.209887 z"
         style="font-size:14px;font-style:normal;font-variant:normal;font-weight:normal;font-stretch:normal;fill:#000000;fill-opacity:1;stroke:none;stroke-width:1px;stroke-linecap:butt;stroke-linejoin:miter;stroke-opacity:1;font-family:Century;-inkscape-font-specification:Century" />
    </g>
  </g>
</svg>
