<?xml version="1.0" encoding="UTF-8" standalone="no"?>
<!-- Created with Inkscape (http://www.inkscape.org/) -->
<svg
   xmlns:dc="http://purl.org/dc/elements/1.1/"
   xmlns:cc="http://creativecommons.org/ns#"
   xmlns:rdf="http://www.w3.org/1999/02/22-rdf-syntax-ns#"
   xmlns:svg="http://www.w3.org/2000/svg"
   xmlns="http://www.w3.org/2000/svg"
   xmlns:xlink="http://www.w3.org/1999/xlink"
   xmlns:sodipodi="http://sodipodi.sourceforge.net/DTD/sodipodi-0.dtd"
   xmlns:inkscape="http://www.inkscape.org/namespaces/inkscape"
   width="48px"
   height="48px"
   id="svg2383"
   sodipodi:version="0.32"
   inkscape:version="0.46"
   sodipodi:docname="isshadow.svg"
   inkscape:output_extension="org.inkscape.output.svg.inkscape">
  <defs
     id="defs2385">
    <linearGradient
       inkscape:collect="always"
       id="linearGradient25060">
      <stop
         style="stop-color:#ffffff;stop-opacity:1;"
         offset="0"
         id="stop25062" />
      <stop
         style="stop-color:#ffffff;stop-opacity:0;"
         offset="1"
         id="stop25064" />
    </linearGradient>
    <linearGradient
       id="linearGradient25040">
      <stop
         style="stop-color:#000000;stop-opacity:1;"
         offset="0"
         id="stop25042" />
      <stop
         style="stop-color:#000000;stop-opacity:0;"
         offset="1"
         id="stop25044" />
    </linearGradient>
    <linearGradient
       inkscape:collect="always"
       id="linearGradient3184">
      <stop
         style="stop-color:#ffffff;stop-opacity:0.65740741"
         offset="0"
         id="stop3186" />
      <stop
         style="stop-color:#ffffff;stop-opacity:0;"
         offset="1"
         id="stop3188" />
    </linearGradient>
    <inkscape:perspective
       sodipodi:type="inkscape:persp3d"
       inkscape:vp_x="0 : 24 : 1"
       inkscape:vp_y="0 : 1000 : 0"
       inkscape:vp_z="48 : 24 : 1"
       inkscape:persp3d-origin="24 : 16 : 1"
       id="perspective2391" />
    <linearGradient
       inkscape:collect="always"
       xlink:href="#linearGradient3184"
       id="linearGradient3190"
       x1="27.827209"
       y1="26.185154"
       x2="28.2129"
       y2="11.645473"
       gradientUnits="userSpaceOnUse"
       gradientTransform="matrix(1.0801889,0,0,1.0787236,0.7206247,-11.642738)" />
    <radialGradient
       inkscape:collect="always"
       xlink:href="#linearGradient25040"
       id="radialGradient25046"
       cx="23.555555"
       cy="39.047619"
       fx="23.555555"
       fy="39.047619"
       r="23.920819"
       gradientTransform="matrix(0.9794218,8.6747389e-8,-3.1531611e-8,0.3344367,0.4847314,25.98866)"
       gradientUnits="userSpaceOnUse" />
    <linearGradient
       inkscape:collect="always"
       xlink:href="#linearGradient25060"
       id="linearGradient25066"
       x1="23.746031"
       y1="47.936508"
       x2="23.746031"
       y2="21.396826"
       gradientUnits="userSpaceOnUse" />
  </defs>
  <sodipodi:namedview
     id="base"
     pagecolor="#ffffff"
     bordercolor="#666666"
     borderopacity="1.0"
     inkscape:pageopacity="0.0"
     inkscape:pageshadow="2"
     inkscape:zoom="15.75"
     inkscape:cx="21.476191"
     inkscape:cy="21.968254"
     inkscape:current-layer="layer1"
     showgrid="true"
     inkscape:grid-bbox="true"
     inkscape:document-units="px"
     inkscape:window-width="1920"
     inkscape:window-height="1115"
     inkscape:window-x="-4"
     inkscape:window-y="-4" />
  <metadata
     id="metadata2388">
    <rdf:RDF>
      <cc:Work
         rdf:about="">
        <dc:format>image/svg+xml</dc:format>
        <dc:type
           rdf:resource="http://purl.org/dc/dcmitype/StillImage" />
      </cc:Work>
    </rdf:RDF>
  </metadata>
  <g
     id="layer1"
     inkscape:label="Layer 1"
     inkscape:groupmode="layer">
    <rect
       style="opacity:1;fill:url(#linearGradient25066);fill-opacity:1;fill-rule:evenodd;stroke:none;stroke-width:1;stroke-linecap:round;stroke-linejoin:miter;marker:none;marker-start:none;marker-mid:none;marker-end:none;stroke-miterlimit:4;stroke-dasharray:none;stroke-dashoffset:2.60000000000000010;stroke-opacity:1;visibility:visible;display:inline;overflow:visible;enable-background:accumulate"
       id="rect25050"
       width="48.253967"
       height="26.539682"
       x="0"
       y="21.396826"
       ry="0" />
    <path
       sodipodi:type="arc"
       style="opacity:1;fill:url(#radialGradient25046);fill-opacity:1;fill-rule:evenodd;stroke:none;stroke-width:0.98449516000000004;stroke-linecap:round;stroke-linejoin:miter;marker:none;marker-start:none;marker-mid:none;marker-end:none;stroke-miterlimit:4;stroke-dasharray:none;stroke-dashoffset:2.60000000000000010;stroke-opacity:1;visibility:visible;display:inline;overflow:visible;enable-background:accumulate"
       id="path24529"
       sodipodi:cx="23.555555"
       sodipodi:cy="39.047619"
       sodipodi:rx="23.428572"
       sodipodi:ry="8"
       d="M 46.984127,39.047619 A 23.428572,8 0 1 1 0.12698364,39.047619 A 23.428572,8 0 1 1 46.984127,39.047619 z"
       transform="matrix(1,0,0,1.031746,0.5079365,-1.1126228)" />
    <rect
       style="opacity:1;fill:#edd400;fill-opacity:1;fill-rule:evenodd;stroke:#746100;stroke-width:2.00000119;stroke-linecap:butt;stroke-linejoin:miter;marker:none;marker-start:none;marker-mid:none;marker-end:none;stroke-miterlimit:4;stroke-dasharray:none;stroke-dashoffset:0;stroke-opacity:1;visibility:visible;display:inline;overflow:visible;enable-background:accumulate"
       id="rect3163"
       width="24.39978"
       height="24.39978"
       x="21.693207"
       y="-22.314049"
       ry="3.565731"
       transform="matrix(0.7076721,0.706541,-0.7076721,0.706541,0,0)" />
    <path
       style="fill:url(#linearGradient3190);fill-opacity:1;fill-rule:evenodd;stroke:none;stroke-width:2;stroke-linecap:butt;stroke-linejoin:miter;marker:none;marker-start:none;marker-mid:none;marker-end:none;stroke-miterlimit:4;stroke-dashoffset:0;stroke-opacity:1;visibility:visible;display:inline;overflow:visible;enable-background:accumulate"
       d="M 16.926777,19.211854 C 15.644741,17.931865 15.644741,15.870946 16.926777,14.590955 L 28.819693,2.7168818 C 30.10173,1.436894 32.165949,1.436894 33.447988,2.7168818 L 45.804154,15.327726 C 35.056796,11.549529 24.142469,21.814325 16.926777,19.211854 z"
       id="path3182"
       sodipodi:nodetypes="cccccc" />
    <rect
       transform="matrix(0.7076727,0.7065404,-0.7076727,0.7065404,0,0)"
       ry="2.1559885"
       y="-20.551748"
       x="23.323378"
       height="21.007324"
       width="21.007324"
       id="rect3192"
       style="opacity:1;fill:none;fill-opacity:1;fill-rule:evenodd;stroke:#ffffff;stroke-width:2.00000095;stroke-linecap:butt;stroke-linejoin:miter;marker:none;marker-start:none;marker-mid:none;marker-end:none;stroke-miterlimit:4;stroke-dasharray:none;stroke-dashoffset:0;stroke-opacity:0.65;visibility:visible;display:inline;overflow:visible;enable-background:accumulate" />
    <path
       id="path3846"
       d="M 31.103145,20.388433 L 30.464185,20.388433 C 30.464182,19.44007 30.514414,18.692629 30.614884,18.146103 C 30.715344,17.599594 30.84394,17.167603 31.000671,16.850134 C 31.157391,16.53268 31.557243,15.952006 32.200226,15.108109 C 32.706565,14.449083 33.062212,13.828224 33.267169,13.245527 C 33.47211,12.662856 33.574585,12.021903 33.574592,11.322669 C 33.574585,10.374317 33.307347,9.6107984 32.772878,9.0321167 C 32.238397,8.4534681 31.585372,8.1641364 30.813806,8.1641188 C 30.146711,8.1641364 29.590134,8.3288947 29.144071,8.6583951 C 28.698002,8.9879308 28.474969,9.3254855 28.474972,9.6710607 C 28.474969,9.8639654 28.631694,10.080965 28.945149,10.322061 C 29.419341,10.691777 29.65644,11.093629 29.656445,11.527613 C 29.65644,11.913404 29.531863,12.234886 29.282714,12.492056 C 29.033556,12.749254 28.720104,12.877845 28.342357,12.877833 C 27.892271,12.877845 27.512512,12.697015 27.20308,12.335334 C 26.893647,11.973682 26.73893,11.499499 26.738931,10.91278 C 26.73893,9.9885388 27.164902,9.1587167 28.01685,8.423312 C 28.868792,7.6879418 29.941762,7.3202478 31.235759,7.3202302 C 32.561896,7.3202478 33.656966,7.7301364 34.520975,8.5498958 C 35.384969,9.3696891 35.816969,10.370297 35.816979,11.551724 C 35.816969,12.307218 35.66828,12.990366 35.370913,13.601167 C 35.145862,14.059288 34.579238,14.70225 33.67104,15.530053 C 32.48956,16.590948 31.772238,17.374558 31.519072,17.880881 C 31.265893,18.387222 31.127251,19.223072 31.103145,20.388433 L 31.103145,20.388433 z M 30.813806,22.99243 C 31.215661,22.992432 31.557243,23.13308 31.838551,23.414374 C 32.119848,23.695672 32.260499,24.033226 32.260505,24.427038 C 32.260499,24.844965 32.119848,25.200602 31.838551,25.493954 C 31.557243,25.787305 31.215661,25.93398 30.813806,25.933981 C 30.411938,25.93398 30.070358,25.789314 29.789059,25.499982 C 29.507752,25.21065 29.367101,24.853001 29.367104,24.427038 C 29.367101,24.02519 29.507752,23.685625 29.789059,23.408346 C 30.070358,23.131071 30.411938,22.992432 30.813806,22.99243 L 30.813806,22.99243 z"
       style="font-size:14px;font-style:normal;font-variant:normal;font-weight:normal;font-stretch:normal;fill:none;fill-opacity:1;stroke:#ffffff;stroke-width:2;stroke-linecap:butt;stroke-linejoin:miter;stroke-miterlimit:4;stroke-dasharray:none;stroke-opacity:1;font-family:Century;-inkscape-font-specification:Century" />
    <path
       style="font-size:14px;font-style:normal;font-variant:normal;font-weight:normal;font-stretch:normal;fill:#000000;fill-opacity:1;stroke:none;stroke-width:1px;stroke-linecap:butt;stroke-linejoin:miter;stroke-opacity:1;font-family:Century;-inkscape-font-specification:Century"
       d="M 31.103145,20.388433 L 30.464185,20.388433 C 30.464181,19.440069 30.514414,18.692628 30.614884,18.146103 C 30.715344,17.599594 30.84394,17.167603 31.000671,16.850134 C 31.157391,16.53268 31.557243,15.952005 32.200226,15.108109 C 32.706565,14.449083 33.062212,13.828224 33.267169,13.245527 C 33.472109,12.662856 33.574585,12.021903 33.574592,11.322669 C 33.574585,10.374316 33.307347,9.6107983 32.772878,9.0321166 C 32.238397,8.453468 31.585372,8.1641363 30.813806,8.1641187 C 30.146711,8.1641363 29.590134,8.3288946 29.144071,8.6583949 C 28.698002,8.9879306 28.474969,9.3254853 28.474972,9.6710605 C 28.474969,9.8639652 28.631694,10.080965 28.945149,10.322061 C 29.419341,10.691777 29.656439,11.093629 29.656445,11.527612 C 29.656439,11.913404 29.531863,12.234886 29.282714,12.492056 C 29.033556,12.749254 28.720104,12.877845 28.342357,12.877833 C 27.892271,12.877845 27.512512,12.697014 27.20308,12.335334 C 26.893646,11.973682 26.73893,11.499498 26.738931,10.91278 C 26.73893,9.9885386 27.164902,9.1587166 28.01685,8.4233118 C 28.868792,7.6879417 29.941762,7.3202477 31.235759,7.3202301 C 32.561896,7.3202477 33.656966,7.7301363 34.520975,8.5498957 C 35.384969,9.3696889 35.816969,10.370297 35.816979,11.551724 C 35.816969,12.307218 35.66828,12.990365 35.370913,13.601167 C 35.145862,14.059288 34.579238,14.70225 33.67104,15.530052 C 32.48956,16.590948 31.772238,17.374558 31.519072,17.880881 C 31.265893,18.387221 31.127251,19.223072 31.103145,20.388433 L 31.103145,20.388433 z M 30.813806,22.992429 C 31.215661,22.992432 31.557243,23.13308 31.838551,23.414373 C 32.119848,23.695671 32.260499,24.033225 32.260505,24.427037 C 32.260499,24.844964 32.119848,25.200602 31.838551,25.493954 C 31.557243,25.787305 31.215661,25.933979 30.813806,25.933981 C 30.411938,25.933979 30.070358,25.789313 29.789059,25.499981 C 29.507752,25.210649 29.367101,24.853001 29.367104,24.427037 C 29.367101,24.025189 29.507752,23.685624 29.789059,23.408346 C 30.070358,23.131071 30.411938,22.992432 30.813806,22.992429 L 30.813806,22.992429 z"
       id="text3841" />
  </g>
</svg>
