<?xml version="1.0" encoding="UTF-8" standalone="no"?>
<svg
   xmlns:dc="http://purl.org/dc/elements/1.1/"
   xmlns:cc="http://creativecommons.org/ns#"
   xmlns:rdf="http://www.w3.org/1999/02/22-rdf-syntax-ns#"
   xmlns:svg="http://www.w3.org/2000/svg"
   xmlns="http://www.w3.org/2000/svg"
   xmlns:xlink="http://www.w3.org/1999/xlink"
   xmlns:sodipodi="http://sodipodi.sourceforge.net/DTD/sodipodi-0.dtd"
   xmlns:inkscape="http://www.inkscape.org/namespaces/inkscape"
   viewBox="0 0 48 48"
   version="1.1"
   id="svg54108"
   sodipodi:docname="kinefx-solveik.svg"
   inkscape:version="1.0.1 (3bc2e813f5, 2020-09-07)">
  <metadata
     id="metadata54112">
    <rdf:RDF>
      <cc:Work
         rdf:about="">
        <dc:format>image/svg+xml</dc:format>
        <dc:type
           rdf:resource="http://purl.org/dc/dcmitype/StillImage" />
      </cc:Work>
    </rdf:RDF>
  </metadata>
  <sodipodi:namedview
     pagecolor="#ffffff"
     bordercolor="#666666"
     borderopacity="1"
     objecttolerance="10"
     gridtolerance="10"
     guidetolerance="10"
     inkscape:pageopacity="0"
     inkscape:pageshadow="2"
     inkscape:window-width="2560"
     inkscape:window-height="1377"
     id="namedview54110"
     showgrid="false"
     inkscape:zoom="15.3125"
     inkscape:cx="24"
     inkscape:cy="23.956463"
     inkscape:window-x="-8"
     inkscape:window-y="-8"
     inkscape:window-maximized="1"
     inkscape:current-layer="svg54108"
     inkscape:document-rotation="0" />
  <defs
     id="defs53986">
    <style
       id="style53934">.cls-1{fill:url(#radial-gradient);}.cls-2{fill:url(#linear-gradient);}.cls-3{fill:url(#linear-gradient-2);}.cls-4{fill:url(#linear-gradient-3);}.cls-5{fill:#c4d7eb;}.cls-6{fill:url(#linear-gradient-4);}.cls-10,.cls-11,.cls-12,.cls-13,.cls-23,.cls-31,.cls-32,.cls-33,.cls-39,.cls-7{fill:none;}.cls-7{stroke:#aec8e4;}.cls-17,.cls-23,.cls-31,.cls-32,.cls-33,.cls-39,.cls-7{stroke-linecap:round;stroke-linejoin:round;}.cls-10,.cls-17,.cls-23,.cls-31,.cls-7{stroke-width:0.35px;}.cls-8{fill:url(#linear-gradient-5);}.cls-9{fill:url(#linear-gradient-6);}.cls-10,.cls-31{stroke:#729fcf;}.cls-10,.cls-11,.cls-12,.cls-13{stroke-miterlimit:10;}.cls-11,.cls-12,.cls-13,.cls-33{stroke:#8ae234;}.cls-11,.cls-12,.cls-13,.cls-39{stroke-width:0.7px;}.cls-12{stroke-dasharray:1.93 0.97;}.cls-13{stroke-dasharray:1.81 0.9;}.cls-14{fill:url(#radial-gradient-2);}.cls-15{fill:url(#radial-gradient-3);}.cls-16{fill:url(#radial-gradient-4);}.cls-17{fill:#204a87;}.cls-17,.cls-23{stroke:#3465a4;}.cls-18{fill:url(#linear-gradient-7);}.cls-19{fill:url(#linear-gradient-8);}.cls-20{fill:url(#linear-gradient-9);}.cls-21{fill:url(#linear-gradient-10);}.cls-22{fill:url(#New_Gradient_Swatch_2);}.cls-24{fill:url(#linear-gradient-11);}.cls-25{fill:url(#linear-gradient-12);}.cls-26{fill:url(#linear-gradient-13);}.cls-27{fill:url(#linear-gradient-14);}.cls-28{fill:url(#linear-gradient-15);}.cls-29{fill:url(#linear-gradient-16);}.cls-30{fill:url(#linear-gradient-17);}.cls-32{stroke:#fff;stroke-width:3.5px;opacity:0.5;}.cls-33{stroke-width:1.5px;}.cls-34{fill:url(#radial-gradient-5);}.cls-35{fill:#d0f3ae;}.cls-36{fill:url(#radial-gradient-6);}.cls-37{fill:url(#radial-gradient-7);}.cls-38{fill:url(#radial-gradient-8);}.cls-39{stroke:#f57f7f;}.cls-40{fill:#f57f7f;}</style>
    <radialGradient
       id="radial-gradient"
       cx="24.28"
       cy="40.95"
       r="20.08"
       gradientTransform="matrix(1.19,0,0,0.25,-5,30.8)"
       gradientUnits="userSpaceOnUse">
      <stop
         offset="0.03"
         stop-color="#2c2c2c"
         stop-opacity="0.5"
         id="stop53936" />
      <stop
         offset="0.68"
         stop-color="#2c2c2c"
         stop-opacity="0.1"
         id="stop53938" />
      <stop
         offset="0.93"
         stop-color="#2c2c2c"
         stop-opacity="0"
         id="stop53940" />
    </radialGradient>
    <linearGradient
       id="linear-gradient"
       x1="34.37"
       y1="10.05"
       x2="32.05"
       y2="53.01"
       gradientUnits="userSpaceOnUse">
      <stop
         offset="0"
         stop-color="#b2cbe5"
         id="stop53943" />
      <stop
         offset="1"
         stop-color="#3465a4"
         id="stop53945" />
    </linearGradient>
    <linearGradient
       id="linear-gradient-2"
       x1="43.32"
       y1="23.31"
       x2="43.32"
       y2="32.26"
       xlink:href="#linear-gradient"
       gradientTransform="matrix(1.104614,0,0,1.104614,-2.893846,-0.82074244)" />
    <linearGradient
       id="linear-gradient-3"
       x1="34.64"
       y1="29.84"
       x2="34.64"
       y2="32.78"
       gradientUnits="userSpaceOnUse">
      <stop
         offset="0"
         stop-color="#00255d"
         stop-opacity="0"
         id="stop53949" />
      <stop
         offset="1"
         stop-color="#00255d"
         id="stop53951" />
    </linearGradient>
    <linearGradient
       id="linear-gradient-4"
       x1="25.52"
       y1="9.57"
       x2="23.19"
       y2="52.53"
       xlink:href="#linear-gradient"
       gradientTransform="matrix(1.104614,0,0,1.104614,-2.893846,-0.82074244)" />
    <linearGradient
       id="linear-gradient-5"
       x1="24.72"
       y1="15.17"
       x2="24.72"
       y2="9.78"
       gradientTransform="matrix(1.1036125,0.04702691,-0.04702691,1.1036125,-2.8614339,-0.94615149)"
       xlink:href="#linear-gradient" />
    <linearGradient
       id="linear-gradient-6"
       x1="20.35"
       y1="466.15"
       x2="20.27"
       y2="482.03"
       gradientTransform="matrix(1.0256184,0.41021811,-0.41021811,1.0256184,198.66507,-480.19007)"
       xlink:href="#linear-gradient" />
    <radialGradient
       id="radial-gradient-2"
       cx="200.81"
       cy="495.06"
       r="1.93"
       gradientTransform="translate(250.43 -464.07) rotate(45)"
       gradientUnits="userSpaceOnUse">
      <stop
         offset="0.2"
         stop-color="#d6f5b8"
         id="stop53957" />
      <stop
         offset="0.54"
         stop-color="#8ae234"
         id="stop53959" />
      <stop
         offset="1"
         stop-color="#4e9a06"
         id="stop53961" />
    </radialGradient>
    <radialGradient
       id="radial-gradient-3"
       cx="176.86"
       cy="495.88"
       r="1.53"
       xlink:href="#radial-gradient-2"
       gradientTransform="matrix(1.104614,0,0,1.104614,-2.893846,-0.82074244)" />
    <radialGradient
       id="radial-gradient-4"
       cx="188.53"
       cy="507.57"
       r="1.3"
       xlink:href="#radial-gradient-2"
       gradientTransform="matrix(1.104614,0,0,1.104614,-2.893846,-0.82074244)" />
    <linearGradient
       id="linear-gradient-7"
       x1="12.66"
       y1="62.68"
       x2="22.53"
       y2="68.41"
       gradientTransform="matrix(0,1.104614,-1.104614,0,49.608162,22.508446)"
       xlink:href="#linear-gradient-3" />
    <linearGradient
       id="linear-gradient-8"
       x1="25.59"
       y1="31.74"
       x2="23.1"
       y2="37.16"
       xlink:href="#linear-gradient"
       gradientTransform="matrix(1.104614,0,0,1.104614,-2.893846,-0.82074244)" />
    <linearGradient
       id="linear-gradient-9"
       x1="34.19"
       y1="34.74"
       x2="37.81"
       y2="38.35"
       xlink:href="#linear-gradient-3"
       gradientTransform="matrix(1.104614,0,0,1.104614,-2.893846,-0.82074244)" />
    <linearGradient
       id="linear-gradient-10"
       x1="24.41"
       y1="32.12"
       x2="23.13"
       y2="34.92"
       xlink:href="#linear-gradient"
       gradientTransform="matrix(1.104614,0,0,1.104614,-2.893846,-0.82074244)" />
    <linearGradient
       id="New_Gradient_Swatch_2"
       x1="26.83"
       y1="28.38"
       x2="36.29"
       y2="29.87"
       gradientUnits="userSpaceOnUse"
       gradientTransform="matrix(1.104614,0,0,1.104614,-2.893846,-0.82074244)">
      <stop
         offset="0"
         stop-color="#729fcf"
         id="stop53970" />
      <stop
         offset="1"
         stop-color="#3465a4"
         id="stop53972" />
    </linearGradient>
    <linearGradient
       id="linear-gradient-11"
       x1="45.83"
       y1="-209.68"
       x2="50.85"
       y2="-209.68"
       gradientTransform="matrix(0.73855774,0.82140396,-0.82140396,0.73855774,-235.37403,141.90299)"
       xlink:href="#linear-gradient-3" />
    <linearGradient
       id="linear-gradient-12"
       x1="8.46"
       y1="35.92"
       x2="9.18"
       y2="47.26"
       xlink:href="#linear-gradient"
       gradientTransform="matrix(1.104614,0,0,1.104614,-2.893846,-0.82074244)" />
    <linearGradient
       id="linear-gradient-13"
       x1="11.85"
       y1="35.71"
       x2="12.56"
       y2="47.05"
       xlink:href="#linear-gradient"
       gradientTransform="matrix(1.104614,0,0,1.104614,-2.893846,-0.82074244)" />
    <linearGradient
       id="linear-gradient-14"
       x1="7.92"
       y1="35.96"
       x2="8.63"
       y2="47.3"
       xlink:href="#linear-gradient"
       gradientTransform="matrix(1.104614,0,0,1.104614,-2.893846,-0.82074244)" />
    <linearGradient
       id="linear-gradient-15"
       x1="10.8"
       y1="35.77"
       x2="11.52"
       y2="47.11"
       xlink:href="#linear-gradient"
       gradientTransform="matrix(1.104614,0,0,1.104614,-2.893846,-0.82074244)" />
    <linearGradient
       id="linear-gradient-16"
       x1="9.52"
       y1="35.85"
       x2="10.23"
       y2="47.2"
       xlink:href="#linear-gradient"
       gradientTransform="matrix(1.104614,0,0,1.104614,-2.893846,-0.82074244)" />
    <linearGradient
       id="linear-gradient-17"
       x1="14.11"
       y1="35.56"
       x2="14.83"
       y2="46.91"
       xlink:href="#linear-gradient"
       gradientTransform="matrix(1.104614,0,0,1.104614,-2.893846,-0.82074244)" />
    <radialGradient
       id="radial-gradient-5"
       cx="47.77"
       cy="-210.48"
       r="1.86"
       gradientTransform="matrix(1.0383372,-0.36452262,0.36452262,1.0383372,40.716315,271.80904)"
       xlink:href="#radial-gradient-2" />
    <radialGradient
       id="radial-gradient-6"
       cx="22.34"
       cy="68.53"
       r="1.93"
       gradientTransform="matrix(1.1004106,0.09627345,-0.09627345,1.1004106,26.731902,-47.457545)"
       xlink:href="#radial-gradient-2" />
    <radialGradient
       id="radial-gradient-7"
       cx="50.74"
       cy="-212.54"
       r="2.1"
       gradientTransform="matrix(1.0379976,-0.37780024,0.37780024,1.0379976,40.848868,274.71417)"
       xlink:href="#radial-gradient-2" />
    <radialGradient
       id="radial-gradient-8"
       cx="10.03"
       cy="80.98"
       r="1.55"
       gradientTransform="matrix(1.1004106,0.09627345,-0.09627345,1.1004106,26.731902,-47.457545)"
       xlink:href="#radial-gradient-2" />
    <linearGradient
       inkscape:collect="always"
       xlink:href="#linear-gradient"
       id="linearGradient54689"
       gradientUnits="userSpaceOnUse"
       x1="34.37"
       y1="10.05"
       x2="32.05"
       y2="53.01"
       gradientTransform="matrix(1.104614,0,0,1.104614,-2.893846,-0.82074244)" />
    <linearGradient
       inkscape:collect="always"
       xlink:href="#linear-gradient-3"
       id="linearGradient54691"
       gradientUnits="userSpaceOnUse"
       x1="34.64"
       y1="29.84"
       x2="34.64"
       y2="32.78"
       gradientTransform="matrix(1.104614,0,0,1.104614,-2.893846,-0.82074244)" />
    <radialGradient
       inkscape:collect="always"
       xlink:href="#radial-gradient-2"
       id="radialGradient54693"
       gradientUnits="userSpaceOnUse"
       gradientTransform="matrix(0.78108005,0.78108005,-0.78108005,0.78108005,273.73464,-513.43896)"
       cx="200.81"
       cy="495.06"
       r="1.93" />
    <radialGradient
       inkscape:collect="always"
       xlink:href="#radial-gradient-2"
       id="radialGradient21592"
       cx="36.446144"
       cy="17.980322"
       fx="36.446144"
       fy="17.980322"
       r="1.9441206"
       gradientUnits="userSpaceOnUse"
       gradientTransform="matrix(1.2687348,0,0,1.2351411,-9.7943452,-4.2279122)" />
    <radialGradient
       inkscape:collect="always"
       xlink:href="#radial-gradient-2"
       id="radialGradient21604"
       gradientUnits="userSpaceOnUse"
       gradientTransform="matrix(1.2687348,0,0,1.2351411,-9.7943452,-4.2279122)"
       cx="36.446144"
       cy="17.980322"
       fx="36.446144"
       fy="17.980322"
       r="1.9441206" />
  </defs>
  <title
     id="title53988">24-Solve IK</title>
  <g
     id="shadow"
     transform="matrix(1.0489554,0,0,0.88692693,-0.81815028,7.4404819)"
     style="stroke-width:0.95312">
    <ellipse
       class="cls-1"
       cx="23.799999"
       cy="40.950001"
       rx="22.879999"
       ry="4.8000002"
       id="ellipse53990"
       style="fill:url(#radial-gradient);stroke-width:0.95312" />
  </g>
  <path
     class="cls-2"
     d="m 20.866401,31.886878 a 4.1202102,4.1202102 0 0 0 3.446396,2.286551 c 0.364522,0 16.988963,0.474984 17.110471,0.474984 1.336583,0 2.562704,0.905784 3.534764,0.905784 0.972061,0 2.03249,-1.20403 2.03249,-4.904487 0,-3.700456 -1.60169,-4.506825 -2.03249,-4.506825 a 10.924632,10.924632 0 0 0 -2.91618,0.717999 c -0.972061,0.298246 -8.306698,0 -13.608845,0.07732"
     id="path53993"
     style="fill:url(#linearGradient54689);stroke-width:1.05283" />
  <ellipse
     class="cls-3"
     cx="44.958031"
     cy="30.848541"
     rx="2.0324898"
     ry="4.7056561"
     id="ellipse53995"
     style="fill:url(#linear-gradient-2);stroke-width:1.05283" />
  <path
     class="cls-4"
     d="m 40.440161,32.792662 c -3.181288,0 -13.432106,-0.165693 -16.414564,-0.198831 l -0.121507,1.513321 c 0.132553,0 0.265107,0.05523 0.408707,0.06628 l 15.265765,0.4308 a 2.1098127,2.1098127 0 0 0 0.441846,0 c 0,0 0.09941,0 0.132554,0 h 1.270306 c 1.336583,0 2.562704,0.905783 3.534764,0.905783 0.662769,0 1.535414,-0.751137 1.877844,-2.883043 a 39.666689,39.666689 0 0 1 -6.395715,0.165693 z"
     id="path53997"
     style="fill:url(#linearGradient54691);stroke-width:1.05283" />
  <path
     class="cls-5"
     d="m 45.410924,26.220208 a 7.4119599,7.4119599 0 0 0 -3.313842,0.640676 c -0.97206,0.298246 -8.306697,0 -13.608844,0.07732 0,0.706953 0,0.949968 0,1.25926 l 13.432106,-0.05523 a 22.09228,22.09228 0 0 1 3.578949,-0.397661 4.6062404,4.6062404 0 0 1 1.104614,0.143599 2.8057196,2.8057196 0 0 0 -1.192983,-1.667967 z"
     id="path53999"
     style="stroke-width:1.05283" />
  <path
     class="cls-6"
     d="m 28.488238,28.672451 c 0,-1.215075 -0.607538,-13.42106 -0.530215,-15.729703 v 0 c 0,0 0,-0.05523 0,-0.08837 0,-1.104614 -1.667967,-1.877844 -3.623134,-1.789475 -1.955167,0.08837 -3.313842,0.927876 -3.457442,1.944121 v 0 c 0,0.452892 -0.463938,12.625738 -0.132553,18.3145 l 0.121507,0.563353 a 4.1312564,4.1312564 0 0 0 4.06498,2.275505 h 0.09942 c 3.137104,-0.828461 3.479534,-4.219626 3.457442,-5.489932 z"
     id="path54001"
     style="fill:url(#linear-gradient-4);stroke-width:1.05283" />
  <path
     class="cls-5"
     d="M 22.589599,30.760172 A 144.43933,144.43933 0 0 1 22.84366,14.787453 C 21.739046,14.5113 20.89954,13.892716 20.877447,13.152625 a 0.62962998,0.62962998 0 0 1 0,-0.1436 v 0 c 0,0.452892 -0.463938,12.625738 -0.132553,18.3145 l 0.121507,0.563353 a 4.0981179,4.0981179 0 0 0 4.06498,2.264459 h 0.09942 l 0.320338,-0.110462 c -2.098767,-0.397661 -2.485382,-1.723197 -2.761535,-3.280703 z"
     id="path54003"
     style="stroke-width:1.05283" />
  <path
     class="cls-7"
     d="m 20.866401,31.886878 a 4.1202102,4.1202102 0 0 0 3.446396,2.286551 c 0.364522,0 16.988963,0.474984 17.110471,0.474984 1.336583,0 2.562704,0.905784 3.534764,0.905784 0.972061,0 2.03249,-1.20403 2.03249,-4.904487 0,-3.700456 -1.60169,-4.506825 -2.03249,-4.506825 a 10.924632,10.924632 0 0 0 -2.91618,0.717999 c -0.972061,0.298246 -8.306698,0 -13.608845,0.07732"
     id="path54005" />
  <path
     class="cls-7"
     d="m 28.256269,30.682849 a 7.9532208,7.9532208 0 0 0 0.231969,-2.010398 c 0,-0.154646 0,-0.320338 0,-0.474984 0,-0.154646 0,-0.574399 0,-0.850552 V 26.18707 c 0,-0.463938 0,-0.91683 -0.05523,-1.380768 -0.05523,-0.463938 0,-1.038337 -0.05523,-1.557505 -0.05523,-0.519169 0,-1.104614 -0.05523,-1.656921 -0.05523,-0.552307 0,-1.104614 -0.05523,-1.679014 -0.05523,-0.574399 0,-1.104614 0,-1.645875 0,-0.54126 0,-1.027291 -0.05523,-1.546459 L 28.035346,15.361853 V 14.257239 13.45087 c 0,-0.143599 0,-0.287199 0,-0.430799 a 1.3807675,1.3807675 0 0 0 -0.243015,-0.795322 1.8888899,1.8888899 0 0 0 -0.673815,-0.574399 4.7608863,4.7608863 0 0 0 -2.264458,-0.5744 h -0.441846 c -1.866798,0.07732 -3.313842,0.927876 -3.457442,1.944121 0,0.441846 -0.441845,12.150754 -0.154646,17.938931 a 5.4347009,5.4347009 0 0 0 0.110462,0.740092 v 0.19883"
     id="path54007" />
  <ellipse
     class="cls-8"
     cx="23.837086"
     cy="14.021368"
     rx="3.5458109"
     ry="1.9441206"
     transform="rotate(-2.4399999)"
     id="ellipse54009"
     style="fill:url(#linear-gradient-5);stroke-width:1.05283" />
  <ellipse
     class="cls-7"
     cx="23.837086"
     cy="14.021368"
     rx="3.5458109"
     ry="1.9441206"
     transform="rotate(-2.4399999)"
     id="ellipse54011" />
  <path
     class="cls-9"
     d="m 28.576607,9.2422911 a 0.4970763,0.4970763 0 0 0 0.132554,0.706953 c 0.121507,0.077323 0.34243,0.088369 0.872645,-0.1104614 A 10.836263,10.836263 0 0 0 30.68642,9.2975218 c 0.209876,-0.099415 0.795322,-0.2651074 1.104614,0 0.309292,0.2651074 0.231969,0.552307 -0.176739,0.8615992 a 17.817424,17.817424 0 0 1 -2.684212,1.502275 16.315149,16.315149 0 0 1 -2.109812,0.706953 3.5679032,3.5679032 0 0 1 -2.209228,-0.165692 2.606889,2.606889 0 0 1 -1.69006,-3.0045505 c 0.408707,-1.1819369 1.104614,-2.6731658 1.424952,-3.7667337 0.320338,-1.0935679 0.419754,-2.6952582 0.463938,-3.0376885 0.04418,-0.3424303 0.1436,-0.7842759 0.441846,-0.7732298 0.298245,0.011046 0.574399,0.3203381 0.574399,0.8726451 0,0.552307 -0.132554,1.7452901 -0.176738,2.1429511 -0.04419,0.3976611 0,0.4418456 0.110461,0.4970763 0.110462,0.055231 0.220923,-0.088369 0.309292,-0.3092919 0.08837,-0.2209228 1.237168,-3.6783646 1.336583,-3.89928742 A 0.65172226,0.65172226 0 0 1 28.134761,0.4606098 c 0.386615,0.1104614 0.452892,0.5633531 0.331384,0.9720603 -0.121507,0.4087072 -0.983106,3.4795341 -1.104614,3.7004569 -0.121507,0.2209228 -0.110461,0.4528918 0,0.4860302 0.110462,0.033138 0.276154,-0.1215076 0.419754,-0.3203381 0.1436,-0.1988305 2.209228,-3.7446414 2.408058,-3.9655642 a 0.70695296,0.70695296 0 0 1 0.806369,-0.2871997 0.79532208,0.79532208 0 0 1 0.209876,0.9941526 c -0.187784,0.3755688 -2.209228,3.7777799 -2.308643,4.0097488 -0.09942,0.231969 -0.1436,0.3645227 0,0.4418456 0.1436,0.077323 0.309292,-0.077323 0.419753,-0.1877843 0.110462,-0.1104614 2.397013,-2.7063043 2.584797,-2.8940887 a 0.59649156,0.59649156 0 0 1 0.77323,-0.066277 0.67381454,0.67381454 0 0 1 0.07732,0.9499681 C 32.597402,4.503497 30.763743,6.5580791 29.758544,7.7289699 a 18.778438,18.778438 0 0 0 -1.181937,1.5133212 z"
     id="path54013"
     style="fill:url(#linear-gradient-6);stroke-width:1.05283" />
  <path
     class="cls-10"
     d="m 28.576607,9.2422911 a 0.4970763,0.4970763 0 0 0 0.132554,0.706953 c 0.121507,0.077323 0.34243,0.088369 0.872645,-0.1104614 A 10.836263,10.836263 0 0 0 30.68642,9.2975218 c 0.209876,-0.099415 0.795322,-0.2651074 1.104614,0 0.309292,0.2651074 0.231969,0.552307 -0.176739,0.8615992 a 17.817424,17.817424 0 0 1 -2.684212,1.502275 16.315149,16.315149 0 0 1 -2.109812,0.706953 3.5679032,3.5679032 0 0 1 -2.209228,-0.165692 2.606889,2.606889 0 0 1 -1.69006,-3.0045505 c 0.408707,-1.1819369 1.104614,-2.6731658 1.424952,-3.7667337 0.320338,-1.0935679 0.419754,-2.6952582 0.463938,-3.0376885 0.04418,-0.3424303 0.1436,-0.7842759 0.441846,-0.7732298 0.298245,0.011046 0.574399,0.3203381 0.574399,0.8726451 0,0.552307 -0.132554,1.7452901 -0.176738,2.1429511 -0.04419,0.3976611 0,0.4418456 0.110461,0.4970763 0.110462,0.055231 0.220923,-0.088369 0.309292,-0.3092919 0.08837,-0.2209228 1.237168,-3.6783646 1.336583,-3.89928742 A 0.65172226,0.65172226 0 0 1 28.134761,0.4606098 c 0.386615,0.1104614 0.452892,0.5633531 0.331384,0.9720603 -0.121507,0.4087072 -0.983106,3.4795341 -1.104614,3.7004569 -0.121507,0.2209228 -0.110461,0.4528918 0,0.4860302 0.110462,0.033138 0.276154,-0.1215076 0.419754,-0.3203381 0.1436,-0.1988305 2.209228,-3.7446414 2.408058,-3.9655642 a 0.70695296,0.70695296 0 0 1 0.806369,-0.2871997 0.79532208,0.79532208 0 0 1 0.209876,0.9941526 c -0.187784,0.3755688 -2.209228,3.7777799 -2.308643,4.0097488 -0.09942,0.231969 -0.1436,0.3645227 0,0.4418456 0.1436,0.077323 0.309292,-0.077323 0.419753,-0.1877843 0.110462,-0.1104614 2.397013,-2.7063043 2.584797,-2.8940887 a 0.59649156,0.59649156 0 0 1 0.77323,-0.066277 0.67381454,0.67381454 0 0 1 0.07732,0.9499681 C 32.597402,4.503497 30.763743,6.5580791 29.758544,7.7289699 a 18.778438,18.778438 0 0 0 -1.181937,1.5133212 z"
     id="path54015" />
  <line
     class="cls-11"
     x1="24.41221"
     y1="30.64971"
     x2="25.516825"
     y2="30.64971"
     id="line54017" />
  <line
     class="cls-12"
     x1="26.588303"
     y1="30.64971"
     x2="42.074989"
     y2="30.64971"
     id="line54019" />
  <line
     class="cls-11"
     x1="42.616253"
     y1="30.64971"
     x2="43.720867"
     y2="30.64971"
     id="line54021" />
  <line
     class="cls-11"
     x1="24.41221"
     y1="12.467764"
     x2="24.41221"
     y2="13.572378"
     id="line54023" />
  <line
     class="cls-13"
     x1="24.41221"
     y1="14.566531"
     x2="24.41221"
     y2="29.048021"
     id="line54025" />
  <line
     class="cls-11"
     x1="24.41221"
     y1="29.545095"
     x2="24.41221"
     y2="30.64971"
     id="line54027" />
  <circle
     class="cls-14"
     cx="43.720867"
     cy="30.64971"
     r="1.9441206"
     id="circle54029"
     style="fill:url(#radialGradient54693);stroke-width:1.05283" />
  <path
     class="cls-17"
     d="m 47.388183,30.572387 c 0.243015,-2.772581 -0.386615,-5.09227 -1.413906,-5.191685 h -0.06628 a 2.9603655,2.9603655 0 0 0 -1.844706,0.62963 8.7485429,8.7485429 0 0 0 -2.838858,2.816765 c -0.806368,1.281353 -12.923984,10.118265 -14.006505,12.614692 -1.082522,2.496428 0.07732,4.319041 1.016245,4.83821 a 4.0760257,4.0760257 0 0 0 4.109164,-0.463938 c 0.287199,-0.220923 11.918785,-9.212481 12.272261,-9.78688 a 1.4801828,1.4801828 0 0 1 0.673815,-0.607538 l 0.19883,-0.05523 v 0 c 0.883691,-0.408707 1.69006,-2.37492 1.899936,-4.794025 z"
     id="path54035" />
  <ellipse
     class="cls-18"
     cx="-26.334049"
     cy="48.013985"
     rx="5.0480862"
     ry="1.8557514"
     transform="rotate(-85)"
     id="ellipse54037"
     style="fill:url(#linear-gradient-7);stroke-width:1.05283" />
  <path
     class="cls-19"
     d="m 30.078882,46.67766 a 3.7335953,3.7335953 0 0 0 3.479534,-2.606889 v -0.09942 c 0.596492,-3.192334 -2.330736,-4.926578 -3.49058,-5.445747 -1.159845,-0.519168 -12.404815,-5.103316 -14.459398,-6.1527 v 0 h -0.08837 c -0.983106,-0.408707 -2.397012,0.717999 -3.14815,2.51852 -0.751137,1.800521 -0.574399,3.446396 0.298246,3.954518 v 0 c 0.397661,0.220923 10.515926,5.52307 15.818073,7.588698 a 3.8219644,3.8219644 0 0 0 1.590644,0.220923"
     id="path54039"
     style="fill:url(#linear-gradient-8);stroke-width:1.05283" />
  <path
     class="cls-20"
     d="m 31.238727,39.177331 a 7.8427594,7.8427594 0 0 0 -1.104614,-0.651723 l -0.441846,-0.187784 -0.784276,-0.34243 -1.104614,-0.452892 -1.281352,-0.541261 -1.424952,-0.607538 -1.480183,-0.651722 -1.557506,-0.651722 -1.513321,-0.640676 -1.413906,-0.607538 -1.25926,-0.530215 -1.027291,-0.441845 -0.751137,-0.309292 -0.397661,-0.176739 a 1.3034445,1.3034445 0 0 0 -0.817415,-0.110461 1.9772591,1.9772591 0 0 0 -0.806368,0.364523 4.7277479,4.7277479 0 0 0 -1.502275,1.811567 c -0.06628,0.132553 -0.121508,0.265107 -0.176738,0.397661 -0.717999,1.734244 -0.5744,3.446395 0.298246,3.965564 0.386614,0.220923 10.063033,5.246916 15.464596,7.445098 l 0.397661,0.165692 a 4.2196255,4.2196255 0 0 0 3.799872,-0.607537 C 32.63054,45.573046 45.70917,35.266997 45.70917,35.189674 c 0.77323,-0.62963 1.447044,-2.441197 1.634829,-4.617287 a 11.731001,11.731001 0 0 0 -0.06628,-2.783627 4.7608863,4.7608863 0 0 0 -0.618584,-1.88889 c -0.651722,-0.961014 -1.88889,-0.375569 -2.640027,0.110462 a 8.7485429,8.7485429 0 0 0 -2.838858,2.816765 c -0.552307,0.850553 -7.312545,6.119562 -11.300202,9.632234"
     id="path54041"
     style="fill:url(#linear-gradient-9);stroke-width:1.05283" />
  <path
     class="cls-21"
     d="m 32.884601,40.756929 a 7.0695296,7.0695296 0 0 0 -2.794673,-2.209228 c -1.104614,-0.497077 -12.426907,-5.114363 -14.48149,-6.1527 v 0 h -0.08837 A 1.5575057,1.5575057 0 0 0 14.050933,32.6822 l -1.590644,1.966213 17.673824,8.406113 z"
     id="path54043"
     style="fill:url(#linear-gradient-10);stroke-width:1.05283" />
  <path
     class="cls-22"
     d="m 45.974277,25.391748 c 0,0 0,0 -0.06628,0 v 0 a 2.9493194,2.9493194 0 0 0 -1.844706,0.62963 8.836912,8.836912 0 0 0 -2.838858,2.816765 c -0.541261,0.839507 -7.290452,6.119562 -11.300201,9.632235 l 0.165692,0.06628 a 7.732298,7.732298 0 0 1 1.535413,0.938922 l 10.70371,-9.024696 a 22.09228,22.09228 0 0 1 2.485382,-2.551658 c 0.961014,-0.795323 1.45809,-1.524368 2.076674,-1.524368 -0.220923,-0.541261 -0.530215,-0.949968 -0.91683,-0.983106 z"
     id="path54045"
     style="fill:url(#New_Gradient_Swatch_2);stroke-width:1.05283" />
  <path
     class="cls-23"
     d="M 31.22768,39.243607 A 7.6218366,7.6218366 0 0 0 30.123066,38.602931 L 29.681221,38.404101 28.896945,38.072717 27.792331,37.619825 26.510979,37.078564 25.086027,36.471026 23.61689,35.819304 22.059384,35.167582 20.490832,34.526906 19.076926,33.930414 17.817667,33.422292 16.779329,32.980446 16.039238,32.660108 15.641577,32.494416 A 1.3918136,1.3918136 0 0 0 14.779978,32.317678 2.209228,2.209228 0 0 0 13.962564,32.6822 4.816117,4.816117 0 0 0 12.57075,34.526906 c -0.06628,0.132553 -0.121508,0.265107 -0.176738,0.397661 -0.717999,1.723197 -0.5744,3.446395 0.298246,3.954518 0.386614,0.220923 10.051987,5.257962 15.464596,7.456144 l 0.397661,0.154646 a 4.1754409,4.1754409 0 0 0 3.799872,-0.596491 c 0.298246,-0.220923 13.332691,-10.56011 13.42106,-10.626387 0.77323,-0.640676 1.435998,-2.441197 1.634829,-4.617287 a 11.731001,11.731001 0 0 0 -0.09942,-2.750488 4.6504249,4.6504249 0 0 0 -0.618584,-1.88889 c -0.651722,-0.961015 -1.888889,-0.375569 -2.651073,0.09942 a 8.836912,8.836912 0 0 0 -2.827812,2.827812 c -0.552307,0.850552 -7.312545,6.119561 -11.300201,9.621188"
     id="path54047" />
  <ellipse
     class="cls-24"
     cx="-27.4415"
     cy="26.735939"
     rx="3.5458109"
     ry="1.9441205"
     transform="rotate(-67.439999)"
     id="ellipse54049"
     style="fill:url(#linear-gradient-11);stroke-width:1.05283" />
  <ellipse
     class="cls-10"
     cx="-27.4415"
     cy="26.735939"
     rx="3.5458109"
     ry="1.9441205"
     transform="rotate(-67.439999)"
     id="ellipse54051" />
  <path
     class="cls-25"
     d="m 7.04768,36.868687 a 1.3365829,1.3365829 0 0 1 -0.2871996,0.817415 20.855112,20.855112 0 0 0 -1.7784286,3.866149 c -0.2651073,0.961014 -0.2761535,1.590644 0.1325537,1.701105 A 1.104614,1.104614 0 0 0 6.3296809,42.502219 17.585455,17.585455 0 0 1 8.1081094,39.1221 1.5133212,1.5133212 0 0 0 8.2627554,37.840748 C 8.0197403,37.299487 7.04768,36.868687 7.04768,36.868687 Z"
     id="path54053"
     style="fill:url(#linear-gradient-12);stroke-width:1.05283" />
  <path
     class="cls-26"
     d="m 11.256259,33.830999 a 8.0305438,8.0305438 0 0 0 -4.4184557,2.297597 8.9252811,8.9252811 0 0 0 -0.9941526,1.40286 l 4.4184563,1.104614 0.441845,0.994152 a 21.429512,21.429512 0 0 1 1.557506,-1.734244 c 0.574399,-0.497076 1.966213,-0.441845 1.899936,-1.612736 -0.02209,-0.651722 0.861599,-2.86095 -2.905135,-2.452243 z"
     id="path54055"
     style="fill:url(#linear-gradient-13);stroke-width:1.05283" />
  <path
     class="cls-27"
     d="m 5.865743,37.531456 a 14.094875,14.094875 0 0 0 -1.5133212,3.115011 c -0.1325536,0.751138 0.088369,0.872645 0.2651074,0.97206 0.1767382,0.09942 0.5191686,0.07732 0.8836912,-0.364522 0.3645226,-0.441846 1.6458749,-3.247565 1.8999361,-3.645226 0.2540612,-0.397661 -0.7732298,-0.2872 -0.7732298,-0.2872"
     id="path54057"
     style="fill:url(#linear-gradient-14);stroke-width:1.05283" />
  <path
     class="cls-28"
     d="M 9.5330615,37.57564 A 1.3697214,1.3697214 0 0 1 9.256908,38.393055 15.619242,15.619242 0 0 0 7.6883561,41.795266 C 7.445341,42.745234 7.445341,43.374864 7.8540482,43.485325 A 1.104614,1.104614 0 0 0 9.0580775,42.734188 15.188442,15.188442 0 0 1 10.714998,39.641268 1.4912289,1.4912289 0 0 0 10.582445,38.238409 1.5575057,1.5575057 0 0 0 9.5330615,37.57564 Z"
     id="path54059"
     style="fill:url(#linear-gradient-15);stroke-width:1.05283" />
  <path
     class="cls-29"
     d="m 8.229617,37.155887 a 1.3697214,1.3697214 0 0 1 -0.2761535,0.817414 23.594555,23.594555 0 0 0 -1.8667977,4.285903 c -0.2540612,0.949968 -0.2651073,1.579598 0.1435998,1.690059 A 1.104614,1.104614 0 0 0 7.4342949,43.198125 21.352189,21.352189 0 0 1 9.3231848,39.442438 1.8226131,1.8226131 0 0 0 9.5772461,38.337824 C 9.4778308,37.951209 8.229617,37.155887 8.229617,37.155887 Z"
     id="path54061"
     style="fill:url(#linear-gradient-16);stroke-width:1.05283" />
  <path
     class="cls-30"
     d="m 14.17244,36.294288 c 0,0.309292 -0.110461,0.717999 -0.265107,1.899936 a 3.1260576,3.1260576 0 0 1 -1.104614,2.209228 c -0.408707,0.353477 -1.270306,0.828461 -1.502275,0.452892 a 1.104614,1.104614 0 0 1 0.231969,-1.25926 3.7998722,3.7998722 0 0 0 0.607538,-1.458091 2.8499041,2.8499041 0 0 1 1.17089,-1.80052 c 0.828461,-0.640677 0.861599,-0.04418 0.861599,-0.04418 z"
     id="path54063"
     style="fill:url(#linear-gradient-17);stroke-width:1.05283" />
  <path
     class="cls-31"
     d="m 5.943066,43.032433 c -0.055231,0.497077 0,0.806369 0.3092919,0.883692 a 1.104614,1.104614 0 0 0 1.2040293,-0.751138 l 0.066277,-0.132554"
     id="path54065" />
  <path
     class="cls-31"
     d="M 7.9866019,37.542502 A 1.4028598,1.4028598 0 0 1 7.7104484,38.370962 19.352837,19.352837 0 0 0 6.0866658,42.259204 4.418456,4.418456 0 0 0 5.943066,43.032433"
     id="path54067" />
  <path
     class="cls-31"
     d="M 6.7825726,37.266348 A 1.3365829,1.3365829 0 0 1 6.495373,38.083763 16.745948,16.745948 0 0 0 4.9599595,41.552251 C 4.6948522,42.513265 4.683806,43.142895 5.0925132,43.253356 A 0.9389219,0.9389219 0 0 0 5.943066,43.04348"
     id="path54069" />
  <path
     class="cls-31"
     d="m 5.865743,37.531456 a 14.094875,14.094875 0 0 0 -1.5133212,3.115011 c -0.1325536,0.751138 0.088369,0.872645 0.2651074,0.97206 a 0.43079946,0.43079946 0 0 0 0.3203381,0"
     id="path54071" />
  <path
     class="cls-31"
     d="m 14.17244,36.294288 c 0,0 -0.07732,0.806368 -0.265107,1.899936 a 3.7667337,3.7667337 0 0 1 -1.104614,2.209228 c -0.408707,0.353477 -1.270306,0.828461 -1.502275,0.452892 a 1.104614,1.104614 0 0 1 0.231969,-1.25926 3.7998722,3.7998722 0 0 0 0.607538,-1.458091 c 0,-0.165692 0.09942,-0.927875 0.09942,-0.927875"
     id="path54073" />
  <path
     class="cls-31"
     d="m 14.17244,36.294288 c 0,-0.508122 0.563353,-2.783627 -2.916181,-2.463289 a 7.9642669,7.9642669 0 0 0 -4.4184557,2.297597 8.9252811,8.9252811 0 0 0 -0.9941526,1.40286"
     id="path54075" />
  <path
     class="cls-31"
     d="m 12.139951,38.06167 c -0.607538,0.62963 -1.424953,1.579598 -1.424953,1.579598 a 15.188442,15.188442 0 0 0 -1.6569205,3.09292 1.104614,1.104614 0 0 1 -1.2040293,0.751137 C 7.445341,43.374864 7.445341,42.745234 7.6883561,41.795266 a 11.587401,11.587401 0 0 1 1.336583,-3.00455 1.3918136,1.3918136 0 0 0 0.2651073,-0.817415"
     id="path54077" />
  <line
     class="cls-32"
     x1="30.156204"
     y1="43.054527"
     x2="44.93594"
     y2="30.64971"
     id="line54079" />
  <line
     class="cls-32"
     x1="13.675364"
     y1="35.37746"
     x2="30.156204"
     y2="43.054527"
     id="line54081" />
  <line
     class="cls-33"
     x1="30.156204"
     y1="43.054527"
     x2="44.93594"
     y2="30.64971"
     id="line54083" />
  <line
     class="cls-33"
     x1="13.675364"
     y1="35.37746"
     x2="30.156204"
     y2="43.054527"
     id="line54085" />
  <circle
     class="cls-34"
     cx="13.675364"
     cy="35.37746"
     r="1.8778439"
     id="circle54087"
     style="fill:url(#radial-gradient-5);stroke-width:1.05283" />
  <circle
     class="cls-35"
     cx="44.93594"
     cy="30.64971"
     r="2.8057196"
     id="circle54089"
     style="stroke-width:1.05283" />
  <circle
     class="cls-36"
     cx="44.93594"
     cy="30.64971"
     r="1.9441206"
     id="circle54091"
     style="fill:url(#radial-gradient-6);stroke-width:1.05283" />
  <circle
     class="cls-35"
     cx="13.675364"
     cy="35.37746"
     r="3.0597808"
     id="circle54093"
     style="stroke-width:1.05283" />
  <circle
     class="cls-37"
     cx="13.675364"
     cy="35.37746"
     r="2.1208589"
     id="circle54095"
     style="fill:url(#radial-gradient-7);stroke-width:1.05283" />
  <circle
     class="cls-35"
     cx="30.156204"
     cy="43.054527"
     r="2.2534125"
     id="circle54097"
     style="stroke-width:1.05283" />
  <circle
     class="cls-38"
     cx="30.156204"
     cy="43.054527"
     r="1.5685518"
     id="circle54099"
     style="fill:url(#radial-gradient-8);stroke-width:1.05283" />
  <path
     class="cls-39"
     d="M 16.20493,14.942099 A 17.673824,17.673824 0 0 0 6.6942035,30.64971 c 0,0.176739 0,0.353477 0,0.530215"
     id="path54101" />
  <polygon
     class="cls-40"
     points="17.14,14.38 16.96,16.02 19.56,13.3 15.8,13.42 "
     id="polygon54103"
     style="stroke-width:0.95312"
     transform="matrix(1.104614,0,0,1.104614,-2.893846,-0.82074244)" />
  <polygon
     class="cls-40"
     points="8.7,28.78 10.04,27.82 8.95,31.42 7.21,28.09 "
     id="polygon54105"
     style="stroke-width:0.95312"
     transform="matrix(1.104614,0,0,1.104614,-2.893846,-0.82074244)" />
  <g
     id="g21596"
     transform="matrix(0.88361966,0,0,0.88361966,-7.9326287,-3.5434745)"
     style="stroke-width:1.13171">
    <circle
       class="cls-35"
       cx="36.772675"
       cy="18.372158"
       r="2.8057196"
       id="circle21580"
       style="stroke-width:1.1915" />
    <circle
       class="cls-36"
       cx="36.772675"
       cy="18.372158"
       r="1.9441206"
       id="circle21582"
       style="fill:url(#radialGradient21592);fill-opacity:1;stroke-width:1.1915" />
  </g>
  <g
     id="g21602"
     transform="matrix(0.88361966,0,0,0.88361966,-7.9326287,14.285097)"
     style="stroke-width:1.13171">
    <circle
       class="cls-35"
       cx="36.772675"
       cy="18.372158"
       r="2.8057196"
       id="circle21598"
       style="stroke-width:1.1915" />
    <circle
       class="cls-36"
       cx="36.772675"
       cy="18.372158"
       r="1.9441206"
       id="circle21600"
       style="fill:url(#radialGradient21604);fill-opacity:1;stroke-width:1.1915" />
  </g>
</svg>
