<?xml version="1.0" encoding="UTF-8" standalone="no"?>
<svg
   xmlns:dc="http://purl.org/dc/elements/1.1/"
   xmlns:cc="http://creativecommons.org/ns#"
   xmlns:rdf="http://www.w3.org/1999/02/22-rdf-syntax-ns#"
   xmlns:svg="http://www.w3.org/2000/svg"
   xmlns="http://www.w3.org/2000/svg"
   xmlns:xlink="http://www.w3.org/1999/xlink"
   xmlns:sodipodi="http://sodipodi.sourceforge.net/DTD/sodipodi-0.dtd"
   xmlns:inkscape="http://www.inkscape.org/namespaces/inkscape"
   viewBox="0 0 48 48"
   version="1.1"
   id="svg1254"
   sodipodi:docname="kinefx-bindpointtransform.svg"
   inkscape:version="1.0.1 (3bc2e813f5, 2020-09-07)">
  <metadata
     id="metadata1258">
    <rdf:RDF>
      <cc:Work
         rdf:about="">
        <dc:format>image/svg+xml</dc:format>
        <dc:type
           rdf:resource="http://purl.org/dc/dcmitype/StillImage" />
        <dc:title>10-Skeleton</dc:title>
      </cc:Work>
    </rdf:RDF>
  </metadata>
  <sodipodi:namedview
     pagecolor="#ffffff"
     bordercolor="#666666"
     borderopacity="1"
     objecttolerance="10"
     gridtolerance="10"
     guidetolerance="10"
     inkscape:pageopacity="0"
     inkscape:pageshadow="2"
     inkscape:window-width="2560"
     inkscape:window-height="1377"
     id="namedview1256"
     showgrid="false"
     inkscape:zoom="16.867443"
     inkscape:cx="24"
     inkscape:cy="14.482932"
     inkscape:window-x="-8"
     inkscape:window-y="-8"
     inkscape:window-maximized="1"
     inkscape:current-layer="svg1254"
     inkscape:document-rotation="0"
     inkscape:snap-global="false" />
  <defs
     id="defs1070">
    <linearGradient
       inkscape:collect="always"
       id="linearGradient5150">
      <stop
         style="stop-color:#eeeeec;stop-opacity:1"
         offset="0"
         id="stop5146" />
      <stop
         style="stop-color:#888a85;stop-opacity:1"
         offset="1"
         id="stop5148" />
    </linearGradient>
    <style
       id="style1008">.cls-1{fill:url(#radial-gradient);}.cls-2{fill:#204a87;}.cls-3{fill:url(#linear-gradient);}.cls-4{fill:url(#linear-gradient-2);}.cls-13,.cls-15,.cls-20,.cls-27,.cls-28,.cls-5,.cls-9{fill:none;}.cls-5,.cls-9{stroke:#d0dfef;}.cls-15,.cls-27,.cls-28,.cls-5{stroke-linecap:round;stroke-linejoin:round;}.cls-13,.cls-15,.cls-20,.cls-5,.cls-9{stroke-width:0.35px;}.cls-6{fill:#3465a4;}.cls-7{fill:url(#linear-gradient-3);}.cls-8{fill:url(#linear-gradient-4);}.cls-13,.cls-9{stroke-miterlimit:10;}.cls-10{fill:url(#linear-gradient-5);}.cls-11{fill:url(#New_Gradient_Swatch_2);}.cls-12{fill:url(#linear-gradient-6);}.cls-13{stroke:#3465a4;}.cls-14{fill:url(#linear-gradient-7);}.cls-15,.cls-20{stroke:#729fcf;}.cls-16{fill:url(#linear-gradient-8);}.cls-17{fill:url(#linear-gradient-9);}.cls-18{fill:url(#linear-gradient-10);}.cls-19{fill:url(#linear-gradient-11);}.cls-20{stroke-linecap:square;stroke-linejoin:bevel;}.cls-21{fill:url(#linear-gradient-12);}.cls-22{fill:url(#linear-gradient-13);}.cls-23{fill:url(#linear-gradient-14);}.cls-24{fill:url(#linear-gradient-15);}.cls-25{fill:url(#New_Gradient_Swatch_2-2);}.cls-26{opacity:0.3;}.cls-27{stroke:#fff;stroke-width:1.5px;}.cls-28{stroke:#8ae234;stroke-width:0.7px;}.cls-29{fill:url(#linear-gradient-16);}.cls-30{fill:url(#linear-gradient-17);}.cls-31{fill:url(#radial-gradient-2);}.cls-32{fill:url(#radial-gradient-3);}.cls-33{fill:url(#radial-gradient-4);}.cls-34{fill:url(#radial-gradient-5);}.cls-35{fill:url(#radial-gradient-6);}.cls-36{fill:url(#radial-gradient-7);}.cls-37{fill:url(#radial-gradient-8);}.cls-38{fill:url(#radial-gradient-9);}.cls-39{fill:url(#radial-gradient-10);}.cls-40{fill:url(#radial-gradient-11);}.cls-41{fill:url(#radial-gradient-12);}.cls-42{fill:url(#radial-gradient-13);}.cls-43{fill:url(#radial-gradient-14);}.cls-44{fill:url(#radial-gradient-15);}.cls-45{fill:url(#radial-gradient-16);}.cls-46{fill:url(#radial-gradient-17);}</style>
    <linearGradient
       inkscape:collect="always"
       xlink:href="#linearGradient31811"
       id="linearGradient31817"
       x1="36.010799"
       y1="15.140912"
       x2="16.019247"
       y2="11.845008"
       gradientUnits="userSpaceOnUse"
       gradientTransform="matrix(0.43115122,0,0,1,4.4396689,-3.573918)" />
    <linearGradient
       inkscape:collect="always"
       id="linearGradient31811">
      <stop
         style="stop-color:#729fcf;stop-opacity:1;"
         offset="0"
         id="stop31813" />
      <stop
         style="stop-color:#729fcf;stop-opacity:0;"
         offset="1"
         id="stop31815" />
    </linearGradient>
    <linearGradient
       inkscape:collect="always"
       xlink:href="#linearGradient31803"
       id="linearGradient31809"
       x1="28.819921"
       y1="22.096727"
       x2="26.424448"
       y2="4.5177665"
       gradientUnits="userSpaceOnUse"
       gradientTransform="matrix(1,0,0,0.27765234,-9.4231357,5.1768408)" />
    <linearGradient
       inkscape:collect="always"
       id="linearGradient31803">
      <stop
         style="stop-color:#ef2929;stop-opacity:1;"
         offset="0"
         id="stop31805" />
      <stop
         style="stop-color:#ef2929;stop-opacity:0;"
         offset="1"
         id="stop31807" />
    </linearGradient>
    <radialGradient
       inkscape:collect="always"
       xlink:href="#linearGradient5150"
       id="radialGradient5152"
       cx="7.2625117"
       cy="7.14394"
       fx="7.2625117"
       fy="7.14394"
       r="3.8496482"
       gradientUnits="userSpaceOnUse" />
  </defs>
  <title
     id="title1072">10-Skeleton</title>
  <g
     id="g21437"
     transform="matrix(1.6450089,0,0,1.6450089,8.6399722,8.7602438)">
    <circle
       id="path31797"
       style="color:#000000;display:inline;overflow:visible;visibility:visible;fill:#ffffff;fill-opacity:0.25098;fill-rule:nonzero;stroke:#8ae234;stroke-width:1;stroke-linecap:butt;stroke-linejoin:miter;stroke-miterlimit:4;stroke-dasharray:none;stroke-dashoffset:0;stroke-opacity:1;marker:none;enable-background:accumulate"
       cx="12.227074"
       cy="12.117921"
       r="11.187439" />
    <circle
       style="color:#000000;display:inline;overflow:visible;visibility:visible;fill:none;fill-opacity:1;fill-rule:nonzero;stroke:#8ae234;stroke-width:1;stroke-linecap:butt;stroke-linejoin:miter;stroke-miterlimit:4;stroke-dasharray:none;stroke-dashoffset:0;stroke-opacity:1;marker:none;enable-background:accumulate"
       id="path31287"
       cx="12.227074"
       cy="12.117921"
       r="11.187439" />
    <ellipse
       transform="rotate(15)"
       id="path31799"
       style="color:#000000;display:inline;overflow:visible;visibility:visible;fill:none;stroke:url(#linearGradient31817);stroke-width:1;stroke-linecap:butt;stroke-linejoin:miter;stroke-miterlimit:4;stroke-dasharray:none;stroke-dashoffset:0;stroke-opacity:1;marker:none;enable-background:accumulate"
       cx="14.946795"
       cy="8.5404129"
       rx="4.8234782"
       ry="11.187439" />
    <ellipse
       transform="rotate(15)"
       id="path31801"
       style="color:#000000;display:inline;overflow:visible;visibility:visible;fill:none;stroke:url(#linearGradient31809);stroke-width:1;stroke-linecap:butt;stroke-linejoin:miter;stroke-miterlimit:4;stroke-dasharray:none;stroke-dashoffset:0;stroke-opacity:1;marker:none;enable-background:accumulate"
       cx="14.946795"
       cy="8.5404129"
       rx="11.187439"
       ry="3.1062186" />
  </g>
  <path
     d="M 12.426911,18.3278 H 1.1287916 V 15.974262 Q 2.305679,14.960776 3.4825665,13.947291 4.6706621,12.933805 5.6906314,11.931581 7.8426541,9.8370443 8.6384543,8.6096008 9.4342545,7.3708962 9.4342545,5.9407554 q 0,-1.3062703 -0.8630512,-2.0382319 -0.8518424,-0.743223 -2.3874001,-0.743223 -1.0199692,0 -2.2080648,0.3603504 Q 2.7876423,3.8800013 1.6555888,4.6232243 H 1.5435043 V 2.2584244 Q 2.3393044,1.8642916 3.6619018,1.5377236 4.9957076,1.2111562 6.2398453,1.2111562 q 2.5667359,0 4.0238347,1.2499656 1.457099,1.2387043 1.457099,3.3670244 0,0.9571806 -0.246586,1.7904909 -0.235378,0.8220494 -0.706133,1.5652721 -0.437129,0.6981789 -1.0311778,1.3738358 -0.5828395,0.675657 -1.4234729,1.497706 -1.1993045,1.1824 -2.4770682,2.297234 -1.2777632,1.103573 -2.3874001,2.049493 h 8.97797 z"
     id="path5166"
     style="font-style:normal;font-weight:normal;font-size:40px;line-height:125%;font-family:Sans;letter-spacing:0px;word-spacing:0px;fill:#000000;fill-opacity:1;stroke:#000000;stroke-width:2;stroke-linecap:butt;stroke-linejoin:miter;stroke-miterlimit:4;stroke-dasharray:none;stroke-opacity:1" />
  <path
     d="m 24.544149,10.253699 q 0.538005,0.484221 0.885468,1.216183 0.347462,0.731961 0.347462,1.891839 0,1.148617 -0.414713,2.105798 -0.414713,0.957181 -1.165679,1.666621 -0.840634,0.788266 -1.983896,1.171139 -1.132054,0.371611 -2.488276,0.371611 -1.389848,0 -2.734862,-0.337829 -1.345014,-0.326567 -2.208066,-0.7207 v -2.353539 h 0.168127 q 0.952719,0.630613 2.241691,1.047268 1.288972,0.416655 2.488276,0.416655 0.706132,0 1.501932,-0.236479 0.795801,-0.23648 1.288972,-0.698179 0.515589,-0.495482 0.762175,-1.092313 0.257795,-0.59683 0.257795,-1.508967 0,-0.900876 -0.29142,-1.486445 -0.280212,-0.596831 -0.784592,-0.934659 -0.50438,-0.349089 -1.221721,-0.47296 -0.717341,-0.135131 -1.546766,-0.135131 H 18.637295 V 8.2942941 h 0.784592 q 1.703684,0 2.712445,-0.7094399 1.019969,-0.7207008 1.019969,-2.0945368 0,-0.6080911 -0.257795,-1.0585291 Q 22.638712,3.9700889 22.179165,3.6773045 21.697202,3.3845195 21.147988,3.2719103 20.598774,3.1593005 19.90385,3.1593005 q -1.064803,0 -2.264107,0.3828726 -1.199305,0.382872 -2.264107,1.0810512 H 15.263551 V 2.2696858 q 0.7958,-0.3941334 2.118397,-0.7207008 1.333806,-0.3378288 2.577944,-0.3378288 1.221721,0 2.152023,0.225219 0.930302,0.225219 1.681267,0.7207008 0.807009,0.5405257 1.221722,1.3062703 0.414713,0.7657446 0.414713,1.7904912 0,1.3963579 -0.986344,2.4436262 -0.975136,1.0360075 -2.308941,1.3062703 v 0.1576533 q 0.538005,0.090088 1.23293,0.3828723 0.694923,0.2815238 1.176887,0.7094394 z"
     id="path5168"
     style="font-style:normal;font-weight:normal;font-size:40px;line-height:125%;font-family:Sans;letter-spacing:0px;word-spacing:0px;fill:#000000;fill-opacity:1;stroke:#000000;stroke-width:2;stroke-linecap:butt;stroke-linejoin:miter;stroke-miterlimit:4;stroke-dasharray:none;stroke-opacity:1" />
  <path
     d="M 12.426911,18.3278 H 1.1287916 V 15.974262 Q 2.305679,14.960776 3.4825665,13.947291 4.6706621,12.933805 5.6906314,11.931581 7.8426541,9.8370443 8.6384543,8.6096008 9.4342545,7.3708962 9.4342545,5.9407554 q 0,-1.3062703 -0.8630512,-2.0382319 -0.8518424,-0.743223 -2.3874001,-0.743223 -1.0199692,0 -2.2080648,0.3603504 Q 2.7876423,3.8800013 1.6555888,4.6232243 H 1.5435043 V 2.2584244 Q 2.3393044,1.8642916 3.6619018,1.5377236 4.9957076,1.2111562 6.2398453,1.2111562 q 2.5667359,0 4.0238347,1.2499656 1.457099,1.2387043 1.457099,3.3670244 0,0.9571806 -0.246586,1.7904909 -0.235378,0.8220494 -0.706133,1.5652721 -0.437129,0.6981789 -1.0311778,1.3738358 -0.5828395,0.675657 -1.4234729,1.497706 -1.1993045,1.1824 -2.4770682,2.297234 -1.2777632,1.103573 -2.3874001,2.049493 h 8.97797 z"
     id="path5171"
     style="font-style:normal;font-weight:normal;font-size:40px;line-height:125%;font-family:Sans;letter-spacing:0px;word-spacing:0px;fill:#ffffff;fill-opacity:1;stroke:none;stroke-width:1;stroke-linecap:butt;stroke-linejoin:miter;stroke-miterlimit:4;stroke-dasharray:none;stroke-opacity:1" />
  <path
     d="m 24.544149,10.253699 q 0.538005,0.484221 0.885468,1.216183 0.347462,0.731961 0.347462,1.891839 0,1.148617 -0.414713,2.105798 -0.414713,0.957181 -1.165679,1.666621 -0.840634,0.788266 -1.983896,1.171139 -1.132054,0.371611 -2.488276,0.371611 -1.389848,0 -2.734862,-0.337829 -1.345014,-0.326567 -2.208066,-0.7207 v -2.353539 h 0.168127 q 0.952719,0.630613 2.241691,1.047268 1.288972,0.416655 2.488276,0.416655 0.706132,0 1.501932,-0.236479 0.795801,-0.23648 1.288972,-0.698179 0.515589,-0.495482 0.762175,-1.092313 0.257795,-0.59683 0.257795,-1.508967 0,-0.900876 -0.29142,-1.486445 -0.280212,-0.596831 -0.784592,-0.934659 -0.50438,-0.349089 -1.221721,-0.47296 -0.717341,-0.135131 -1.546766,-0.135131 H 18.637295 V 8.2942941 h 0.784592 q 1.703684,0 2.712445,-0.7094399 1.019969,-0.7207008 1.019969,-2.0945368 0,-0.6080911 -0.257795,-1.0585291 Q 22.638712,3.9700889 22.179165,3.6773045 21.697202,3.3845195 21.147988,3.2719103 20.598774,3.1593005 19.90385,3.1593005 q -1.064803,0 -2.264107,0.3828726 -1.199305,0.382872 -2.264107,1.0810512 H 15.263551 V 2.2696858 q 0.7958,-0.3941334 2.118397,-0.7207008 1.333806,-0.3378288 2.577944,-0.3378288 1.221721,0 2.152023,0.225219 0.930302,0.225219 1.681267,0.7207008 0.807009,0.5405257 1.221722,1.3062703 0.414713,0.7657446 0.414713,1.7904912 0,1.3963579 -0.986344,2.4436262 -0.975136,1.0360075 -2.308941,1.3062703 v 0.1576533 q 0.538005,0.090088 1.23293,0.3828723 0.694923,0.2815238 1.176887,0.7094394 z"
     id="path5173"
     style="font-style:normal;font-weight:normal;font-size:40px;line-height:125%;font-family:Sans;letter-spacing:0px;word-spacing:0px;fill:#ffffff;fill-opacity:1;stroke:none;stroke-width:1;stroke-linecap:butt;stroke-linejoin:miter;stroke-miterlimit:4;stroke-dasharray:none;stroke-opacity:1" />
  <g
     id="g5160"
     transform="translate(20.21646,20.453604)">
    <circle
       style="color:#000000;overflow:visible;fill:url(#radialGradient5152);fill-opacity:1;stroke:#555753;stroke-width:1;stroke-miterlimit:4;stroke-dasharray:none;stop-color:#000000"
       id="path5144"
       cx="8.0925131"
       cy="7.8553696"
       r="3.3496482" />
    <circle
       style="color:#000000;overflow:visible;fill:none;fill-opacity:1;stroke:#eeeeec;stroke-width:0.999996;stroke-miterlimit:4;stroke-dasharray:none;stop-color:#000000"
       id="circle5154"
       cx="8.0925131"
       cy="7.8553696"
       r="2.4010754" />
  </g>
</svg>
