<?xml version="1.0" standalone="no"?>
<!DOCTYPE svg PUBLIC "-//W3C//DTD SVG 20000303 Stylable//EN"
	"http://www.w3.org/TR/2000/03/WD-SVG-20000303/DTD/svg-20000303-stylable.dtd">
<svg xmlns="http://www.w3.org/2000/svg" width="50pt" height="50pt" viewBox="0 0 50 50" xml:space="preserve">
<g transform="scale(0.5)">
	<g id="Path_4" style="fill-rule:nonzero;clip-rule:nonzero;fill:#000000;stroke:#000000;stroke-miterlimit:4;fill-opacity:1.0;">
		<path d="M45.00 2.5L45.00 27.5L55.00 27.5L55.00 2.5z"/>
	</g>
	<g id="Path_5" style="fill-rule:nonzero;clip-rule:nonzero;fill:#000000;stroke:#000000;stroke-miterlimit:4;fill-opacity:1.0;">
		<path d="M35.00 27.5L50.00 45L65.00 27.5z"/>
	</g>
	<g id="Path_1" style="fill-rule:nonzero;clip-rule:nonzero;fill:#f8fc7c;stroke:none;stroke-miterlimit:4;fill-opacity:1.0;">
		<path d="M29.81 60.38L38.71 53.03L85.00 81.1L85.00 88.15L34.70 88.59z"/>
	</g>
	<g id="Path_2" style="fill-rule:nonzero;clip-rule:nonzero;fill:#505450;stroke:#000000;stroke-miterlimit:4;fill-opacity:1.0;">
		<path d="M28.66 52.67L33.27 50.11L44.11 56.24L30.98 67.09z"/>
	</g>
	<g id="Path_3" style="fill-rule:nonzero;clip-rule:nonzero;fill:#f87e00;stroke:none;stroke-miterlimit:4;fill-opacity:1.0;">
		<path d="M68.10 94.42L85.00 92.5L85.00 84.3L60.54 82.64L43.51 84.56L34.70 88.59L46.71 92.63z"/>
	</g>
	<g id="Path_4" style="fill-rule:nonzero;clip-rule:nonzero;fill:#FFFFFF;stroke:#000000;stroke-miterlimit:4;fill-opacity:1.0;">
		<path d="M33.65 60.87L30.98 67.09L36.08 66.76L42.36 62.28L44.11 56.24L38.90 57.03z"/>
	</g>
</g>
</svg>