<?xml version="1.0" standalone="no"?>
<!DOCTYPE svg PUBLIC "-//W3C//DTD SVG 20000303 Stylable//EN"
	"http://www.w3.org/TR/2000/03/WD-SVG-20000303/DTD/svg-20000303-stylable.dtd">
<svg xmlns="http://www.w3.org/2000/svg" width="50pt" height="50pt" viewBox="0 0 50 50" xml:space="preserve">
<g transform="scale(0.5)">
	<g id="Path 0" style="fill-rule:nonzero;clip-rule:nonzero;fill:#C0C0C0;stroke:none;stroke-miterlimit:4;fill-opacity:0.5;">
		<path d="M31.25 49.8L31.11 48L30.69 46.25L30.00 44.59L29.06 43.06L27.89 41.69L26.52 40.52L24.99 39.58L23.33 38.89L21.58 38.47L19.79 38.33L17.99 38.47L16.24 38.89L14.58 39.58L13.05 40.52L11.68 41.69L10.51 43.06L9.57 44.59L8.89 46.25L8.46 48L8.32 49.8L8.46 51.59L8.89 53.34L9.57 55L10.51 56.53L11.68 57.9L13.05 59.07L14.58 60.01L16.24 60.7L17.99 61.12L19.79 61.26L21.58 61.12L23.33 60.7L24.99 60.01L26.52 59.07L27.89 57.9L29.06 56.53L30.00 55L30.69 53.34L31.11 51.59z"/>
	</g>
	<g id="Path 0" style="fill-rule:nonzero;clip-rule:nonzero;fill:#C0C0C0;stroke:none;stroke-miterlimit:4;fill-opacity:0.5;">
		<path d="M93.54 57.66L94.98 52.93L96.09 48.22L96.83 43.64L97.19 39.3L97.15 35.31L96.73 31.76L95.93 28.75L94.76 26.35L93.27 24.62L91.47 23.6L89.43 23.31L87.18 23.77L84.79 24.95L82.32 26.84L79.81 29.39L77.35 32.53L74.98 36.18L72.76 40.26L70.76 44.66L69.01 49.28L67.57 54.01L66.46 58.72L65.72 63.3L65.36 67.64L65.40 71.63L65.82 75.18L66.62 78.19L67.79 80.58L69.29 82.32L71.08 83.34L73.12 83.63L75.37 83.17L77.76 81.99L80.23 80.1L82.74 77.55L85.20 74.41L87.57 70.76L89.79 66.68L91.79 62.28z"/>
	</g>
	<g id="Path 0" style="fill-rule:nonzero;clip-rule:nonzero;fill:#a8a8a8;stroke:#000000;stroke-miterlimit:4;fill-opacity:0.5;">
		<path d="M27.17 47.95L27.03 46.16L26.61 44.41L25.92 42.75L24.98 41.22L23.81 39.85L22.45 38.68L20.91 37.74L19.25 37.05L17.50 36.63L15.71 36.49L13.92 36.63L12.17 37.05L10.51 37.74L8.97 38.68L7.61 39.85L6.44 41.22L5.50 42.75L4.81 44.41L4.39 46.16L4.25 47.95L4.39 49.75L4.81 51.49L5.50 53.16L6.44 54.69L7.61 56.06L8.97 57.23L10.51 58.17L12.17 58.85L13.92 59.27L15.71 59.42L17.50 59.27L19.25 58.85L20.91 58.17L22.45 57.23L23.81 56.06L24.98 54.69L25.92 53.16L26.61 51.49L27.03 49.75z"/>
	</g>
	<g id="Path_3" style="fill-rule:nonzero;clip-rule:nonzero;fill:#000000;stroke:#000000;stroke-miterlimit:4;fill-opacity:0.5;">
		<path d="M33.60 48.06L44.36 48.06L43.98 44.29L33.60 44.29z"/>
	</g>
	<g id="Path_4" style="fill-rule:nonzero;clip-rule:nonzero;fill:#000000;stroke:#000000;stroke-miterlimit:4;fill-opacity:0.5;">
		<path d="M42.57 42.45L42.66 49.38L50.02 45.98z"/>
	</g>
	<g id="Path 0" style="fill-rule:nonzero;clip-rule:nonzero;fill:#a8a8a8;stroke:#000000;stroke-miterlimit:4;fill-opacity:0.5;">
		<path d="M80.62 54L82.07 49.27L83.17 44.56L83.92 39.98L84.27 35.64L84.24 31.65L83.82 28.1L83.01 25.09L81.85 22.69L80.35 20.96L78.56 19.94L76.51 19.65L74.27 20.11L71.88 21.29L69.40 23.18L66.90 25.73L64.43 28.87L62.06 32.52L59.85 36.6L57.84 41L56.10 45.62L54.65 50.35L53.55 55.06L52.81 59.64L52.45 63.98L52.48 67.97L52.90 71.52L53.71 74.53L54.88 76.92L56.37 78.66L58.16 79.68L60.21 79.97L62.45 79.51L64.84 78.33L67.32 76.44L69.82 73.89L72.29 70.75L74.66 67.1L76.87 63.02L78.88 58.62z"/>
	</g>
</g>
</svg>