<?xml version="1.0" standalone="no"?>
<!DOCTYPE svg PUBLIC "-//W3C//DTD SVG 20000303 Stylable//EN"
	"http://www.w3.org/TR/2000/03/WD-SVG-20000303/DTD/svg-20000303-stylable.dtd">
<svg xmlns="http://www.w3.org/2000/svg" width="50pt" height="50pt" viewBox="0 0 50 50" xml:space="preserve">
<g transform="scale(0.5)">
	<g id="Path 0" style="fill-rule:nonzero;clip-rule:nonzero;fill:#000000;stroke:#000000;stroke-miterlimit:4;fill-opacity:1.0;">
		<path d="M91.73 50.61L91.24 44.35L89.77 38.25L87.37 32.45L84.09 27.1L80.01 22.33L75.24 18.25L69.89 14.97L64.09 12.57L57.99 11.1L51.73 10.61L45.47 11.1L39.37 12.57L33.57 14.97L28.22 18.25L23.45 22.33L19.37 27.1L16.09 32.45L13.69 38.25L12.22 44.35L11.73 50.61L12.22 56.87L13.69 62.97L16.09 68.77L19.37 74.12L23.45 78.89L28.22 82.97L33.57 86.25L39.37 88.65L45.47 90.12L51.73 90.61L57.99 90.12L64.09 88.65L69.89 86.25L75.24 82.97L80.01 78.89L84.09 74.12L87.37 68.77L89.77 62.97L91.24 56.87z"/>
	</g>
</g>
</svg>