<?xml version="1.0" standalone="no"?>
<!DOCTYPE svg PUBLIC "-//W3C//DTD SVG 20000303 Stylable//EN"
	"http://www.w3.org/TR/2000/03/WD-SVG-20000303/DTD/svg-20000303-stylable.dtd">
<svg xmlns="http://www.w3.org/2000/svg" width="50pt" height="50pt" viewBox="0 0 50 50" xml:space="preserve">
<g transform="scale(0.5)">
	<g id="Path_10" style="fill-rule:nonzero;clip-rule:nonzero;fill:#000000;stroke:#000000;stroke-miterlimit:4;fill-opacity:1.0;">
		<path d="M28.00 64L36.00 64L36.00 72L28.00 72z"/>
	</g>
	<g id="Path_11" style="fill-rule:nonzero;clip-rule:nonzero;fill:#000000;stroke:#000000;stroke-miterlimit:4;fill-opacity:1.0;">
		<path d="M48.00 64L56.00 64L56.00 72L48.00 72z"/>
	</g>
	<g id="Path_12" style="fill-rule:nonzero;clip-rule:nonzero;fill:#000000;stroke:#000000;stroke-miterlimit:4;fill-opacity:1.0;">
		<path d="M68.00 64L76.00 64L76.00 72L68.00 72z"/>
	</g>
	<g id="Path_10" style="fill-rule:nonzero;clip-rule:nonzero;fill:#000000;stroke:#000000;stroke-miterlimit:4;fill-opacity:1.0;">
		<path d="M28.00 44L36.00 44L36.00 52L28.00 52z"/>
	</g>
	<g id="Path_11" style="fill-rule:nonzero;clip-rule:nonzero;fill:#000000;stroke:#000000;stroke-miterlimit:4;fill-opacity:1.0;">
		<path d="M48.00 44L56.00 44L56.00 52L48.00 52z"/>
	</g>
	<g id="Path_10" style="fill-rule:nonzero;clip-rule:nonzero;fill:#000000;stroke:#000000;stroke-miterlimit:4;fill-opacity:1.0;">
		<path d="M28.00 24L36.00 24L36.00 32L28.00 32z"/>
	</g>
	<g id="Path_11" style="fill-rule:nonzero;clip-rule:nonzero;fill:#000000;stroke:#000000;stroke-miterlimit:4;fill-opacity:1.0;">
		<path d="M48.00 24L56.00 24L56.00 32L48.00 32z"/>
	</g>
	<g id="Path_12" style="fill-rule:nonzero;clip-rule:nonzero;fill:#000000;stroke:#000000;stroke-miterlimit:4;fill-opacity:1.0;">
		<path d="M68.00 24L76.00 24L76.00 32L68.00 32z"/>
	</g>
	<g id="Path_4" style="fill-rule:nonzero;clip-rule:nonzero;fill:none;stroke:#000000;stroke-miterlimit:4;fill-opacity:1.0;">
		<path d="M76.00 48L56.00 48"/>
	</g>
	<g id="Path_5" style="fill-rule:nonzero;clip-rule:nonzero;fill:#FFFFFF;stroke:#000000;stroke-miterlimit:4;fill-opacity:1.0;">
		<path d="M71.00 35.5L71.00 60.5L96.00 48z"/>
	</g>
</g>
</svg>