<?xml version="1.0" standalone="no"?>
<!DOCTYPE svg PUBLIC "-//W3C//DTD SVG 20000303 Stylable//EN"
	"http://www.w3.org/TR/2000/03/WD-SVG-20000303/DTD/svg-20000303-stylable.dtd">
<svg xmlns="http://www.w3.org/2000/svg" width="50pt" height="50pt" viewBox="0 0 50 50" xml:space="preserve">
<g transform="scale(0.5)">
	<g id="Path_0" style="fill-rule:nonzero;clip-rule:nonzero;fill:#505450;stroke:#000000;stroke-miterlimit:4;">
		<path d="M5.84 16.81L1.57 30.25L3.86 42.92L10.15 48.15L22.83 49.73L25.67 53.08L26.66 64.77L27.74 76.03L32.32 82.36L42.85 85.36L56.20 77.08L59.66 61.17L56.42 49.03L50.76 43.74L37.94 42.51L34.84 39.69L34.30 33.18L33.89 21.03L27.06 10.53L16.00 10z"/>
	</g>
	<g id="Path_1" style="fill-rule:nonzero;clip-rule:nonzero;fill:#7c7e7c;stroke:none;stroke-miterlimit:4;">
		<path d="M7.64 19.06L4.76 29.48L6.51 38.64L11.37 44.45L23.91 47.79L27.96 50.26L28.50 61.17L29.85 71.39L34.84 78.78L43.47 80.89L52.92 75.44L57.37 61.7L54.80 53.25L48.60 47.62L41.58 45.86L33.89 43.22L32.28 36.52L30.39 20.15L24.45 13.11L13.75 13.33z"/>
	</g>
	<g id="Path_1" style="fill-rule:nonzero;clip-rule:nonzero;fill:#d0d2d0;stroke:none;stroke-miterlimit:4;">
		<path d="M10.69 22.62L9.88 31.07L11.50 37.93L15.55 42.69L25.67 46.21L29.04 48.67L30.39 56.42L32.01 66.81L34.91 71.77L42.12 75.26L50.35 71.39L52.92 62.05L51.03 53.96L45.36 48.85L38.35 46.74L32.28 44.8L31.20 39.17L29.71 25.96L23.91 18.57L15.95 17.69z"/>
	</g>
	<g id="Path_2" style="fill-rule:nonzero;clip-rule:nonzero;fill:#f8fcf8;stroke:none;stroke-miterlimit:4;">
		<path d="M15.28 26.66L15.01 32.65L17.98 38.29L23.64 42.34L27.96 44.8L29.71 46.56L32.01 52.9L33.22 57.12L35.65 64.87L40.10 67.16L45.23 66.1L46.98 59.94L45.63 55.01L41.45 51.67L36.59 49.55L31.33 45.33L29.24 38.54L27.69 31.77L24.86 27.02L19.60 24.2z"/>
	</g>
	<g id="Path_4" style="fill-rule:nonzero;clip-rule:nonzero;fill:#7c7e7c;stroke:none;stroke-miterlimit:4;">
		<path d="M16.76 29.23L18.32 31.82L18.95 34.4L19.89 36.72L19.05 37.26L18.11 36.17L16.44 34.68L16.13 33.73L16.13 32.09L16.13 30.45L16.13 28.41z"/>
	</g>
	<g id="Path_5" style="fill-rule:nonzero;clip-rule:nonzero;fill:#7c7e7c;stroke:none;stroke-miterlimit:4;">
		<path d="M35.80 58.14L38.03 60.39L39.24 62.98L40.73 65.15L39.94 66.04L38.70 65.19L36.58 64.15L36.05 63.23L35.71 61.46L35.37 59.69L34.95 57.48z"/>
	</g>
	<g id="Path_6" style="fill-rule:nonzero;clip-rule:nonzero;fill:#00fc00;stroke:#000000;stroke-miterlimit:4;">
		<path d="M67.00 16L67.00 71L87.00 71L87.00 81L97.00 66L87.00 51L87.00 61L77.00 61L77.00 16z"/>
	</g>
</g>
</svg>