<?xml version="1.0" standalone="no"?>
<!DOCTYPE svg PUBLIC "-//W3C//DTD SVG 20000303 Stylable//EN"
	"http://www.w3.org/TR/2000/03/WD-SVG-20000303/DTD/svg-20000303-stylable.dtd">
<svg xmlns="http://www.w3.org/2000/svg" width="50pt" height="50pt" viewBox="0 0 50 50" xml:space="preserve">
<g transform="scale(0.5)">
	<g id="Path_0" style="fill-rule:nonzero;clip-rule:nonzero;fill:#505450;stroke:#000000;stroke-miterlimit:4;">
		<path d="M11.73 72.71L16.33 84.57L25.88 90.78L34.22 89.12L45.64 80.12L50.00 80L57.89 86.6L65.57 92.87L73.18 93.26L83.67 86.86L89.69 71.1L82.94 58.32L72.93 53.19L65.06 54.32L53.75 63.64L49.48 64.31L45.10 60.62L37.43 53.26L25.45 52.01L16.01 60.39z"/>
	</g>
	<g id="Path_1" style="fill-rule:nonzero;clip-rule:nonzero;fill:#7c7e7c;stroke:none;stroke-miterlimit:4;">
		<path d="M14.58 72.71L18.50 81.57L25.48 85.98L32.99 85.82L45.36 78.04L50.19 76.41L57.23 82.89L64.51 88.28L73.10 89.02L81.49 83.54L85.99 72.65L81.36 60.46L74.14 57.14L65.62 58.47L58.77 62.89L50.83 67.28L45.46 64.33L34.01 55.47L24.86 55.7L16.16 64.27z"/>
	</g>
	<g id="Path_1" style="fill-rule:nonzero;clip-rule:nonzero;fill:#d0d2d0;stroke:none;stroke-miterlimit:4;">
		<path d="M19.25 72.55L23.68 78.53L29.17 81.6L35.38 81.41L45.85 75.66L50.12 74.56L55.92 78.39L63.53 83.68L68.91 84.53L76.98 81.05L81.43 72.11L77.90 64.19L71.45 60.56L63.70 61.8L56.63 66L50.45 69.56L46.16 66.85L36.96 59.67L27.71 59.57L20.61 65.29z"/>
	</g>
	<g id="Path_2" style="fill-rule:nonzero;clip-rule:nonzero;fill:#f8fcf8;stroke:none;stroke-miterlimit:4;">
		<path d="M25.48 71.5L28.87 75.49L34.72 76.71L41.84 74.81L46.89 72.96L49.40 72.69L55.12 74.89L58.68 76.6L65.36 79.59L70.42 77.52L74.01 72.81L71.73 67.54L67.64 65.48L62.17 66.67L56.89 69.16L49.99 70.64L44.17 67.99L38.80 64.94L33.59 64.17L27.55 66.54z"/>
	</g>
	<g id="Path_4" style="fill-rule:nonzero;clip-rule:nonzero;fill:#7c7e7c;stroke:none;stroke-miterlimit:4;">
		<path d="M28.24 71.95L31.10 72.35L33.18 73.49L35.35 74.22L34.99 75.22L33.56 75.27L31.27 75.65L30.44 75.29L29.45 74.25L28.47 73.22L27.23 71.93z"/>
	</g>
	<g id="Path_5" style="fill-rule:nonzero;clip-rule:nonzero;fill:#7c7e7c;stroke:none;stroke-miterlimit:4;">
		<path d="M61.42 75.21L64.62 74.88L67.18 75.56L69.73 75.75L69.61 76.94L68.07 77.38L65.69 78.4L64.69 78.23L63.35 77.38L62.00 76.53L60.32 75.46z"/>
	</g>
	<g id="Path_0" style="fill-rule:nonzero;clip-rule:nonzero;fill:#FFFFFF;stroke:#000000;stroke-miterlimit:4;fill-opacity:1.0;">
		<path d="M25.55 7.89L36.59 7.89L36.59 20.17L49.60 20.17L49.61 31.33L36.59 31.33L36.59 45.1L25.42 45.1L25.42 31.2L12.40 31.2L12.40 20.29L25.55 20.29z"/>
	</g>
	<g id="Path_5" style="fill-rule:nonzero;clip-rule:nonzero;fill:none;stroke:#000000;stroke-miterlimit:4;fill-opacity:1.0;">
		<path d="M87.40 46.2L77.40 41.2L77.40 31.2L67.40 26.2L77.40 21.2L77.40 11.2L87.40 6.2"/>
	</g>
</g>
</svg>