<?xml version="1.0" standalone="no"?>
<!DOCTYPE svg PUBLIC "-//W3C//DTD SVG 20000303 Stylable//EN"
	"http://www.w3.org/TR/2000/03/WD-SVG-20000303/DTD/svg-20000303-stylable.dtd">
<svg xmlns="http://www.w3.org/2000/svg" width="50pt" height="50pt" viewBox="0 0 50 50" xml:space="preserve">
<g transform="scale(0.5)">
	<g id="Path_0" style="fill-rule:nonzero;clip-rule:nonzero;fill:#505450;stroke:#000000;stroke-miterlimit:4;">
		<path d="M12.80 15.4L6.47 30.67L9.87 45.07L19.20 51L38.00 52.8L42.20 56.6L43.68 69.88L45.27 82.67L52.07 89.87L67.67 93.27L87.47 83.87L92.60 65.8L87.80 52L79.40 46L60.40 44.6L55.80 41.4L55.00 34L54.40 20.2L44.27 8.27L27.87 7.67z"/>
	</g>
	<g id="Path_1" style="fill-rule:nonzero;clip-rule:nonzero;fill:#7c7e7c;stroke:none;stroke-miterlimit:4;">
		<path d="M15.47 17.96L11.20 29.8L13.80 40.2L21.00 46.8L39.60 50.6L45.60 53.4L46.40 65.8L48.40 77.4L55.80 85.8L68.60 88.2L82.60 82L89.20 66.4L85.40 56.8L76.20 50.4L65.80 48.4L54.40 45.4L52.00 37.8L49.20 19.2L40.40 11.2L24.53 11.45z"/>
	</g>
	<g id="Path_1" style="fill-rule:nonzero;clip-rule:nonzero;fill:#d0d2d0;stroke:none;stroke-miterlimit:4;">
		<path d="M20.00 22L18.80 31.6L21.20 39.4L27.20 44.8L42.20 48.8L47.20 51.6L49.20 60.4L51.60 72.2L55.90 77.83L66.60 81.8L78.80 77.4L82.60 66.8L79.80 57.6L71.40 51.8L61.00 49.4L52.00 47.2L50.40 40.8L48.20 25.8L39.60 17.4L27.80 16.4z"/>
	</g>
	<g id="Path_2" style="fill-rule:nonzero;clip-rule:nonzero;fill:#f8fcf8;stroke:none;stroke-miterlimit:4;">
		<path d="M26.80 26.6L26.40 33.4L30.80 39.8L39.20 44.4L45.60 47.2L48.20 49.2L51.60 56.4L53.40 61.2L57.00 70L63.60 72.6L71.20 71.4L73.80 64.4L71.80 58.8L65.60 55L58.40 52.6L50.60 47.8L47.50 40.09L45.20 32.4L41.00 27L33.20 23.8z"/>
	</g>
	<g id="Path_4" style="fill-rule:nonzero;clip-rule:nonzero;fill:#7c7e7c;stroke:none;stroke-miterlimit:4;">
		<path d="M28.99 29.51L31.31 32.45L32.24 35.39L33.63 38.02L32.39 38.64L31.00 37.4L28.52 35.7L28.06 34.62L28.06 32.76L28.06 30.9L28.06 28.58z"/>
	</g>
	<g id="Path_5" style="fill-rule:nonzero;clip-rule:nonzero;fill:#7c7e7c;stroke:none;stroke-miterlimit:4;">
		<path d="M57.23 62.35L60.53 64.91L62.32 67.85L64.54 70.32L63.36 71.33L61.52 70.36L58.38 69.18L57.59 68.13L57.09 66.12L56.59 64.11L55.97 61.6z"/>
	</g>
</g>
</svg>