<?xml version="1.0" encoding="UTF-8" standalone="no"?>
<svg width="35.2778mm" height="35.2778mm"
 viewBox="0 0 100 100"
 xmlns="http://www.w3.org/2000/svg" xmlns:xlink="http://www.w3.org/1999/xlink"  version="1.2" baseProfile="tiny">
<title>VOP_newgroup.icon</title>
<desc>Generated with Qt</desc>
<defs>
</defs>
<g fill="none" stroke="black" stroke-width="1" fill-rule="evenodd" stroke-linecap="square" stroke-linejoin="bevel" >

<g fill="none" stroke="#000000" stroke-opacity="1" stroke-width="1" stroke-linecap="square" stroke-linejoin="bevel" transform="matrix(1,0,0,1,0,0)"
font-family="MS Shell Dlg 2" font-size="8.25" font-weight="400" font-style="normal" 
>
</g>

<g fill="#000000" fill-opacity="1" stroke="#000000" stroke-opacity="1" stroke-width="1" stroke-linecap="square" stroke-linejoin="bevel" transform="matrix(1,0,0,1,0,0)"
font-family="MS Shell Dlg 2" font-size="8.25" font-weight="400" font-style="normal" 
>
<path vector-effect="non-scaling-stroke" fill-rule="evenodd" d="M70,70 L70,30 L30,30 L30,70 L70,70"/>
</g>

<g fill="#cccccc" fill-opacity="1" stroke="#cccccc" stroke-opacity="1" stroke-width="1" stroke-linecap="square" stroke-linejoin="bevel" transform="matrix(1,0,0,1,0,0)"
font-family="MS Shell Dlg 2" font-size="8.25" font-weight="400" font-style="normal" 
>
<polyline fill="none" vector-effect="non-scaling-stroke" points="90,90 90,10 10,10 10,90 90,90 " />
<polyline fill="none" vector-effect="non-scaling-stroke" points="30,70 30,30 " />
<polyline fill="none" vector-effect="non-scaling-stroke" points="50,70.14 50,30.4 " />
<polyline fill="none" vector-effect="non-scaling-stroke" points="70,70 70,30 " />
<polyline fill="none" vector-effect="non-scaling-stroke" points="30,30 70,30 " />
<polyline fill="none" vector-effect="non-scaling-stroke" points="29.9,50.4 70.3,50.4 " />
<polyline fill="none" vector-effect="non-scaling-stroke" points="30,70 70,70 " />
</g>
</g>
</svg>
