<?xml version="1.0" encoding="UTF-8" standalone="no"?>
<!-- Created with Inkscape (http://www.inkscape.org/) -->
<svg
   xmlns:ns="http://ns.adobe.com/AdobeIllustrator/10.0/"
   xmlns:dc="http://purl.org/dc/elements/1.1/"
   xmlns:cc="http://creativecommons.org/ns#"
   xmlns:rdf="http://www.w3.org/1999/02/22-rdf-syntax-ns#"
   xmlns:svg="http://www.w3.org/2000/svg"
   xmlns="http://www.w3.org/2000/svg"
   xmlns:xlink="http://www.w3.org/1999/xlink"
   xmlns:sodipodi="http://sodipodi.sourceforge.net/DTD/sodipodi-0.dtd"
   xmlns:inkscape="http://www.inkscape.org/namespaces/inkscape"
   width="48px"
   height="48px"
   id="svg13414"
   sodipodi:version="0.32"
   inkscape:version="0.46"
   sodipodi:docname="nrandom.svg"
   inkscape:output_extension="org.inkscape.output.svg.inkscape">
  <defs
     id="defs13416">
    <linearGradient
       inkscape:collect="always"
       id="linearGradient14087">
      <stop
         style="stop-color:#2e3436;stop-opacity:1;"
         offset="0"
         id="stop14089" />
      <stop
         style="stop-color:#2e3436;stop-opacity:0;"
         offset="1"
         id="stop14091" />
    </linearGradient>
    <linearGradient
       id="linearGradient14047">
      <stop
         id="stop14049"
         offset="0"
         style="stop-color:#ab0000;stop-opacity:1;" />
      <stop
         id="stop14051"
         offset="1"
         style="stop-color:#ff1f1f;stop-opacity:1;" />
    </linearGradient>
    <linearGradient
       id="linearGradient14025">
      <stop
         style="stop-color:#b1b1b1;stop-opacity:1;"
         offset="0"
         id="stop14027" />
      <stop
         style="stop-color:#ffffff;stop-opacity:1;"
         offset="1"
         id="stop14029" />
    </linearGradient>
    <linearGradient
       id="linearGradient14001">
      <stop
         style="stop-color:#ef0000;stop-opacity:1;"
         offset="0"
         id="stop14003" />
      <stop
         style="stop-color:#ff7b7b;stop-opacity:1;"
         offset="1"
         id="stop14005" />
    </linearGradient>
    <linearGradient
       inkscape:collect="always"
       xlink:href="#linearGradient14047"
       id="linearGradient14007"
       x1="27.541998"
       y1="5.9258609"
       x2="41.000198"
       y2="26.687267"
       gradientUnits="userSpaceOnUse" />
    <linearGradient
       inkscape:collect="always"
       xlink:href="#linearGradient14001"
       id="linearGradient14015"
       x1="19.3694"
       y1="2.0956426"
       x2="22.2045"
       y2="19.634384"
       gradientUnits="userSpaceOnUse" />
    <linearGradient
       inkscape:collect="always"
       xlink:href="#linearGradient14025"
       id="linearGradient14031"
       x1="30.176001"
       y1="3.5090001"
       x2="34.500001"
       y2="3.5090001"
       gradientUnits="userSpaceOnUse" />
    <linearGradient
       inkscape:collect="always"
       xlink:href="#linearGradient14025"
       id="linearGradient14039"
       x1="37.165852"
       y1="21.909409"
       x2="40.060173"
       y2="24.140486"
       gradientUnits="userSpaceOnUse" />
    <linearGradient
       inkscape:collect="always"
       xlink:href="#linearGradient14025"
       id="linearGradient14041"
       x1="29.1178"
       y1="9.3384876"
       x2="31.704252"
       y2="11.755486"
       gradientUnits="userSpaceOnUse" />
    <linearGradient
       inkscape:collect="always"
       xlink:href="#linearGradient14025"
       id="linearGradient14043"
       x1="18.990801"
       y1="11.947436"
       x2="21.360001"
       y2="14.178513"
       gradientUnits="userSpaceOnUse" />
    <linearGradient
       inkscape:collect="always"
       xlink:href="#linearGradient14025"
       id="linearGradient14045"
       x1="18.495001"
       y1="5.4464359"
       x2="20.678276"
       y2="7.6775126"
       gradientUnits="userSpaceOnUse" />
    <linearGradient
       inkscape:collect="always"
       xlink:href="#linearGradient14025"
       id="linearGradient14059"
       x1="23.355848"
       y1="20.566385"
       x2="25.919001"
       y2="22.487591"
       gradientUnits="userSpaceOnUse" />
    <linearGradient
       inkscape:collect="always"
       xlink:href="#linearGradient14025"
       id="linearGradient14061"
       x1="24.068001"
       y1="31.944359"
       x2="27.212225"
       y2="33.865562"
       gradientUnits="userSpaceOnUse" />
    <linearGradient
       inkscape:collect="always"
       xlink:href="#linearGradient14025"
       id="linearGradient14063"
       x1="14.092"
       y1="34.110359"
       x2="17.090176"
       y2="36.031563"
       gradientUnits="userSpaceOnUse" />
    <linearGradient
       inkscape:collect="always"
       xlink:href="#linearGradient14025"
       id="linearGradient14065"
       x1="18.773876"
       y1="26.995001"
       x2="21.608225"
       y2="29.324512"
       gradientUnits="userSpaceOnUse" />
    <linearGradient
       inkscape:collect="always"
       xlink:href="#linearGradient14025"
       id="linearGradient14067"
       x1="12.563"
       y1="22.390436"
       x2="15.673"
       y2="24.753"
       gradientUnits="userSpaceOnUse" />
    <linearGradient
       inkscape:collect="always"
       xlink:href="#linearGradient14025"
       id="linearGradient14069"
       x1="6.87185"
       y1="34.156357"
       x2="9.5262756"
       y2="36.325459"
       gradientUnits="userSpaceOnUse" />
    <linearGradient
       inkscape:collect="always"
       xlink:href="#linearGradient14025"
       id="linearGradient14071"
       x1="4.01685"
       y1="28.146999"
       x2="6.9811502"
       y2="29.997999"
       gradientUnits="userSpaceOnUse" />
    <linearGradient
       inkscape:collect="always"
       xlink:href="#linearGradient14025"
       id="linearGradient14073"
       x1="1.3887999"
       y1="21.969385"
       x2="4.1051998"
       y2="23.952564"
       gradientUnits="userSpaceOnUse" />
    <linearGradient
       inkscape:collect="always"
       xlink:href="#linearGradient14025"
       id="linearGradient14075"
       x1="11.93"
       y1="16.201"
       x2="16.254"
       y2="16.201"
       gradientUnits="userSpaceOnUse" />
    <linearGradient
       inkscape:collect="always"
       xlink:href="#linearGradient14001"
       id="linearGradient14083"
       x1="1.0007499"
       y1="18.232513"
       x2="10.15635"
       y2="40.295383"
       gradientUnits="userSpaceOnUse" />
    <linearGradient
       inkscape:collect="always"
       xlink:href="#linearGradient14047"
       id="linearGradient14085"
       x1="10.09555"
       y1="20.042885"
       x2="29.6255"
       y2="35.722397"
       gradientUnits="userSpaceOnUse" />
    <linearGradient
       inkscape:collect="always"
       xlink:href="#linearGradient14087"
       id="linearGradient14093"
       x1="21.777647"
       y1="30.969784"
       x2="32.243027"
       y2="43.035"
       gradientUnits="userSpaceOnUse" />
  </defs>
  <sodipodi:namedview
     id="base"
     pagecolor="#ffffff"
     bordercolor="#666666"
     borderopacity="1.0"
     inkscape:pageopacity="0.0"
     inkscape:pageshadow="2"
     inkscape:zoom="15.75"
     inkscape:cx="16.777778"
     inkscape:cy="20.603175"
     inkscape:current-layer="layer1"
     showgrid="true"
     inkscape:grid-bbox="true"
     inkscape:document-units="px"
     inkscape:window-width="640"
     inkscape:window-height="650"
     inkscape:window-x="176"
     inkscape:window-y="192" />
  <metadata
     id="metadata13419">
    <rdf:RDF>
      <cc:Work
         rdf:about="">
        <dc:format>image/svg+xml</dc:format>
        <dc:type
           rdf:resource="http://purl.org/dc/dcmitype/StillImage" />
      </cc:Work>
    </rdf:RDF>
  </metadata>
  <g
     id="layer1"
     inkscape:label="Layer 1"
     inkscape:groupmode="layer">
    <polygon
       ns:knockout="Off"
       points="46.454,9.439 42.804,26.158 40.185,28.268 24.425,26.914 22.584,24.326 25.923,6.874 28.751,4.655 44.82,6.744 46.454,9.439 "
       id="polygon5715"
       style="fill:url(#linearGradient14007);fill-opacity:1.0"
       transform="matrix(1.0244788,0,0,1.0244894,2.5363686e-2,3.1008964)" />
    <polygon
       ns:knockout="Off"
       points="25.48,3.855 25.923,6.874 28.751,4.655 25.48,3.855 "
       id="polygon5717"
       style="fill:#ffb6b6;fill-opacity:1"
       transform="matrix(1.0244788,0,0,1.0244894,2.5363686e-2,3.1008964)" />
    <polygon
       ns:knockout="Off"
       points="22.584,24.326 21.274,25.991 15.725,21.242 15.403,18.439 18.278,2.517 19.469,0.635 25.48,3.855 25.923,6.874 22.584,24.326 "
       id="polygon5724"
       style="fill:url(#linearGradient14015);fill-opacity:1"
       transform="matrix(1.0244788,0,0,1.0244894,2.5363686e-2,3.1008964)" />
    <polygon
       ns:knockout="Off"
       points="19.469,0.635 20.001,0.386 36.398,2.616 38.521,3.215 45.73,6.487 44.82,6.744 28.751,4.655 25.48,3.855 19.469,0.635 "
       id="polygon5731"
       style="fill:#f35e5e;fill-opacity:1"
       transform="matrix(1.0244788,0,0,1.0244894,2.5363686e-2,3.1008964)" />
    <polygon
       ns:knockout="Off"
       points="24.425,26.914 21.274,25.991 22.584,24.326 24.425,26.914 "
       id="polygon5750"
       style="fill:url(#XMLID_73_)"
       transform="matrix(1.0244788,0,0,1.0244894,2.5363686e-2,3.1008964)" />
    <circle
       sodipodi:ry="1.854"
       sodipodi:rx="1.854"
       sodipodi:cy="13.001"
       sodipodi:cx="20.349001"
       style="fill:url(#linearGradient14043);fill-opacity:1"
       id="circle5761"
       r="1.854"
       cy="13.001"
       cx="20.349001"
       ns:knockout="Off"
       transform="matrix(1.0244788,0,0,1.0244894,2.5363686e-2,3.1008964)" />
    <circle
       sodipodi:ry="1.854"
       sodipodi:rx="1.854"
       sodipodi:cy="6.5"
       sodipodi:cx="19.506001"
       style="fill:url(#linearGradient14045);fill-opacity:1"
       id="circle5768"
       r="1.854"
       cy="6.5"
       cx="19.506001"
       ns:knockout="Off"
       transform="matrix(1.0244788,0,0,1.0244894,2.5363686e-2,3.1008964)" />
    <ellipse
       sodipodi:ry="0.65399998"
       sodipodi:rx="2.1619999"
       sodipodi:cy="3.5090001"
       sodipodi:cx="32.338001"
       style="fill:url(#linearGradient14031);fill-opacity:1"
       id="ellipse5775"
       ry="0.65399998"
       rx="2.1619999"
       cy="3.5090001"
       cx="32.338001"
       ns:knockout="Off"
       transform="matrix(1.0040224,0.2037055,-0.2037076,1.0040327,1.4016939,-3.4147486)" />
    <circle
       sodipodi:ry="1.85"
       sodipodi:rx="1.85"
       sodipodi:cy="22.900999"
       sodipodi:cx="38.644001"
       style="fill:url(#linearGradient14039);fill-opacity:1"
       id="circle5789"
       r="1.85"
       cy="22.900999"
       cx="38.644001"
       ns:knockout="Off"
       transform="matrix(1.0244788,0,0,1.0244894,2.5363686e-2,3.1008964)" />
    <circle
       sodipodi:ry="1.851"
       sodipodi:rx="1.851"
       sodipodi:cy="10.516"
       sodipodi:cx="30.473"
       style="fill:url(#linearGradient14041);fill-opacity:1"
       id="circle5803"
       r="1.851"
       cy="10.516"
       cx="30.473"
       ns:knockout="Off"
       transform="matrix(1.0244788,0,0,1.0244894,2.5363686e-2,3.1008964)" />
    <polyline
       ns:knockout="Off"
       points="19.469,0.635 25.48,3.855 28.751,4.655 44.82,6.744         45.73,6.487 "
       id="polyline5805"
       style="fill:none;stroke:#ffb6b6;stroke-width:0.97610110000000005;stroke-opacity:1"
       transform="matrix(1.0244788,0,0,1.0244894,2.5363686e-2,3.1008964)" />
    <polygon
       ns:knockout="Off"
       points="26.024,4.456 21.979,25.6 22.676,25.733 26.721,4.588 26.024,4.456 "
       id="polygon5826"
       style="fill:#ffb6b6;fill-opacity:1"
       transform="translate(0.8888889,2.6031746)" />
    <polygon
       ns:knockout="Off"
       points="20.001,0.386 36.398,2.616 38.521,3.215 45.73,6.487 46.454,9.439 42.804,26.158 40.185,28.268 24.425,26.914 21.274,25.991 15.725,21.242 15.403,18.439 18.278,2.517 19.469,0.635 20.001,0.386 "
       id="polygon5828"
       style="fill:none;stroke:#000000;stroke-width:0.73207581"
       transform="matrix(1.0244788,0,0,1.0244894,2.5363686e-2,3.1008964)" />
    <polygon
       transform="matrix(1.0244788,0,0,1.0244894,2.5363686e-2,3.1008964)"
       style="opacity:0.50000000000000000;fill:url(#linearGradient14093);fill-opacity:1"
       id="polygon5835"
       points="6.723,36.77 4.101,36.84 3.557,38.097 14.881,43.035 17.906,42.996 33.976,39.75 34.206,37.664 33.241,35.688 42.967,34.86 44.7,33.251 38.213,30.174 30.44,29.936 14.334,39.357 6.723,36.77 "
       ns:knockout="Off" />
    <polygon
       ns:knockout="Off"
       points="29.336,17.628 30.865,34.671 28.998,37.47 13.556,40.901 11.024,38.983 8.98,21.333 11.014,18.369 26.97,15.546 29.336,17.628 "
       id="polygon5846"
       style="fill:url(#linearGradient14085);fill-opacity:1"
       transform="matrix(1.0244788,0,0,1.0244894,0.1531236,3.2286576)" />
    <polygon
       ns:knockout="Off"
       points="7.653,18.585 8.98,21.333 11.014,18.369 7.653,18.585 "
       id="polygon5848"
       style="fill:#ffb6b6;fill-opacity:1"
       transform="matrix(1.0244788,0,0,1.0244894,0.1531236,3.2286576)" />
    <polygon
       ns:knockout="Off"
       points="11.024,38.983 10.273,40.964 3.557,38.097 2.41,35.519 0.381,19.467 0.953,17.316 7.653,18.585 8.98,21.333 11.024,38.983 "
       id="polygon5855"
       style="fill:url(#linearGradient14083);fill-opacity:1"
       transform="matrix(1.0244788,0,0,1.0244894,0.1531236,3.2286576)" />
    <polygon
       ns:knockout="Off"
       points="0.953,17.316 1.386,16.918 17.698,14.131 19.903,14.067 27.761,15.028 26.97,15.546 11.014,18.369 7.653,18.585 0.953,17.316 "
       id="polygon5862"
       style="fill:#f35e5e;fill-opacity:1"
       transform="matrix(1.0244788,0,0,1.0244894,0.1531236,3.2286576)" />
    <polygon
       ns:knockout="Off"
       points="13.556,40.901 10.273,40.964 11.024,38.983 13.556,40.901 "
       id="polygon5881"
       style="fill:#ff9c9c;fill-opacity:1"
       transform="matrix(1.0244788,0,0,1.0244894,2.5363686e-2,3.1008964)" />
    <circle
       sodipodi:ry="1.854"
       sodipodi:rx="1.854"
       sodipodi:cy="28.849001"
       sodipodi:cx="5.4990001"
       style="fill:url(#linearGradient14071);fill-opacity:1"
       id="circle5892"
       r="1.854"
       cy="28.849001"
       cx="5.4990001"
       ns:knockout="Off"
       transform="matrix(1.0244788,0,0,1.0244894,0.1531236,3.2286576)" />
    <circle
       sodipodi:ry="1.854"
       sodipodi:rx="1.854"
       sodipodi:cy="22.899"
       sodipodi:cx="2.747"
       style="fill:url(#linearGradient14073);fill-opacity:1"
       id="circle5899"
       r="1.854"
       cy="22.899"
       cx="2.747"
       ns:knockout="Off"
       transform="matrix(1.0244788,0,0,1.0244894,0.1531236,3.2286576)" />
    <ellipse
       sodipodi:ry="0.65399998"
       sodipodi:rx="2.1619999"
       sodipodi:cy="16.201"
       sodipodi:cx="14.092"
       style="fill:url(#linearGradient14075);fill-opacity:1"
       id="ellipse5906"
       ry="0.65399998"
       rx="2.1619999"
       cy="16.201"
       cx="14.092"
       ns:knockout="Off"
       transform="matrix(1.0156576,-0.1341511,0.1341525,1.0156681,-1.8959721,5.2620292)" />
    <circle
       sodipodi:ry="1.854"
       sodipodi:rx="1.854"
       sodipodi:cy="35.023998"
       sodipodi:cx="8.3540001"
       style="fill:url(#linearGradient14069);fill-opacity:1"
       id="circle5913"
       r="1.854"
       cy="35.023998"
       cx="8.3540001"
       ns:knockout="Off"
       transform="matrix(1.0244788,0,0,1.0244894,0.1531236,3.2286576)" />
    <circle
       sodipodi:ry="1.851"
       sodipodi:rx="1.851"
       sodipodi:cy="28.146999"
       sodipodi:cx="20.315001"
       style="fill:url(#linearGradient14065);fill-opacity:1"
       id="circle5920"
       r="1.851"
       cy="28.146999"
       cx="20.315001"
       ns:knockout="Off"
       transform="matrix(1.0244788,0,0,1.0244894,0.1531236,3.2286576)" />
    <circle
       sodipodi:ry="1.851"
       sodipodi:rx="1.851"
       sodipodi:cy="32.812"
       sodipodi:cx="25.919001"
       style="fill:url(#linearGradient14061);fill-opacity:1"
       id="circle5927"
       r="1.851"
       cy="32.812"
       cx="25.919001"
       ns:knockout="Off"
       transform="matrix(1.0244788,0,0,1.0244894,0.1531236,3.2286576)" />
    <circle
       sodipodi:ry="1.85"
       sodipodi:rx="1.85"
       sodipodi:cy="21.496"
       sodipodi:cx="24.834"
       style="fill:url(#linearGradient14059);fill-opacity:1"
       id="circle5934"
       r="1.85"
       cy="21.496"
       cx="24.834"
       ns:knockout="Off"
       transform="matrix(1.0244788,0,0,1.0244894,0.1531236,3.2286576)" />
    <circle
       sodipodi:ry="1.851"
       sodipodi:rx="1.851"
       sodipodi:cy="34.978001"
       sodipodi:cx="15.673"
       style="fill:url(#linearGradient14063);fill-opacity:1"
       id="circle5941"
       r="1.851"
       cy="34.978001"
       cx="15.673"
       ns:knockout="Off"
       transform="matrix(1.0244788,0,0,1.0244894,0.1531236,3.2286576)" />
    <circle
       sodipodi:ry="1.85"
       sodipodi:rx="1.85"
       sodipodi:cy="23.444"
       sodipodi:cx="14.413"
       style="fill:url(#linearGradient14067);fill-opacity:1"
       id="circle5948"
       r="1.85"
       cy="23.444"
       cx="14.413"
       ns:knockout="Off"
       transform="matrix(1.0244788,0,0,1.0244894,0.1531236,3.2286576)" />
    <polyline
       ns:knockout="Off"
       points="0.953,17.316 7.653,18.585 11.014,18.369 26.97,15.546         27.761,15.028 "
       id="polyline5950"
       style="fill:none;stroke:#ffb6b6;stroke-width:0.97610110000000005;stroke-opacity:1"
       transform="matrix(1.0244788,0,0,1.0244894,0.1531236,3.2286576)" />
    <polygon
       ns:knockout="Off"
       points="8.352,18.996 10.829,40.38 11.534,40.298 9.057,18.914 8.352,18.996 "
       id="polygon5971"
       style="fill:#ffb6b6;fill-opacity:1"
       transform="translate(0.4444444,3.6825397)" />
    <polygon
       ns:knockout="Off"
       points="1.386,16.918 17.698,14.131 19.903,14.067 27.761,15.028 29.336,17.628 30.865,34.671 28.998,37.47 13.556,40.901 10.273,40.964 3.557,38.097 2.41,35.519 0.381,19.467 0.953,17.316 1.386,16.918 "
       id="polygon5973"
       style="fill:none;stroke:#000000;stroke-width:0.73207581"
       transform="matrix(1.0244788,0,0,1.0244894,0.1531236,3.2286576)" />
  </g>
</svg>
