<?xml version="1.0" standalone="no"?>
<!DOCTYPE svg PUBLIC "-//W3C//DTD SVG 20000303 Stylable//EN"
	"http://www.w3.org/TR/2000/03/WD-SVG-20000303/DTD/svg-20000303-stylable.dtd">
<svg xmlns="http://www.w3.org/2000/svg" width="50pt" height="50pt" viewBox="0 0 50 50" xml:space="preserve">
<g transform="scale(0.5)">
	<g id="Path 0" style="fill-rule:nonzero;clip-rule:nonzero;fill:#C0C0C0;stroke:#000000;stroke-miterlimit:4;fill-opacity:0.5;">
		<path d="M92.00 74.83L91.49 73.24L89.95 71.69L87.42 70.21L83.97 68.85L79.69 67.64L74.68 66.6L69.07 65.77L62.97 65.16L56.57 64.78L50.00 64.66L43.42 64.78L37.02 65.16L30.92 65.77L25.30 66.6L20.29 67.64L16.01 68.85L12.57 70.21L10.05 71.69L8.51 73.24L7.99 74.83L8.51 76.42L10.05 77.97L12.57 79.45L16.01 80.81L20.29 82.02L25.30 83.06L30.92 83.89L37.02 84.5L43.42 84.88L50.00 85L56.57 84.88L62.97 84.5L69.07 83.89L74.68 83.06L79.69 82.02L83.97 80.81L87.42 79.45L89.95 77.97L91.49 76.42z"/>
	</g>
	<g id="Path_1" style="fill-rule:nonzero;clip-rule:nonzero;fill:none;stroke:#000000;stroke-miterlimit:4;fill-opacity:1.0;">
		<path d="M92.00 74.83L92.00 64.6L90.00 55L88.20 48.8L85.00 42.5L79.80 32.8L72.60 26.4L65.00 22.5L56.00 20L46.80 19.6L40.00 20L29.00 23L20.00 30L15.00 37.5L11.00 47.2L8.80 53.2L7.80 60.4L7.40 65.8L7.99 74.83"/>
	</g>
	<g id="Path_2" style="fill-rule:nonzero;clip-rule:nonzero;fill:none;stroke:#000000;stroke-miterlimit:4;fill-opacity:1.0;">
		<path d="M50.00 25L50.00 75"/>
	</g>
	<g id="Path_3" style="fill-rule:nonzero;clip-rule:nonzero;fill:#000000;stroke:#000000;stroke-miterlimit:4;fill-opacity:1.0;">
		<path d="M40.00 40L60.00 40L50.00 20z"/>
	</g>
	<g id="Path_4" style="fill-rule:nonzero;clip-rule:nonzero;fill:none;stroke:#000000;stroke-miterlimit:4;fill-opacity:1.0;">
		<path d="M80.00 45L55.00 77.5"/>
	</g>
	<g id="Path_5" style="fill-rule:nonzero;clip-rule:nonzero;fill:#000000;stroke:#000000;stroke-miterlimit:4;fill-opacity:1.0;">
		<path d="M65.00 52.5L84.31 41.22L76.80 61.2z"/>
	</g>
	<g id="Path_6" style="fill-rule:nonzero;clip-rule:nonzero;fill:none;stroke:#000000;stroke-miterlimit:4;fill-opacity:1.0;">
		<path d="M20.00 55L45.00 77.5"/>
	</g>
	<g id="Path_7" style="fill-rule:nonzero;clip-rule:nonzero;fill:#000000;stroke:#000000;stroke-miterlimit:4;fill-opacity:1.0;">
		<path d="M20.00 65L10.49 48.59L30.00 55z"/>
	</g>
	<g id="Path_8" style="fill-rule:nonzero;clip-rule:nonzero;fill:#FFFFFF;stroke:#000000;stroke-miterlimit:4;fill-opacity:1.0;">
		<path d="M55.00 7.5L55.00 12.5L50.00 15L45.00 12.5L45.00 7.5L50.00 5z"/>
	</g>
	<g id="Path_9" style="fill-rule:nonzero;clip-rule:nonzero;fill:#FFFFFF;stroke:#000000;stroke-miterlimit:4;fill-opacity:1.0;">
		<path d="M75.00 7.5L75.00 12.5L70.00 15L65.00 12.5L65.00 7.5L70.00 5z"/>
	</g>
	<g id="Path_10" style="fill-rule:nonzero;clip-rule:nonzero;fill:#FFFFFF;stroke:#000000;stroke-miterlimit:4;fill-opacity:1.0;">
		<path d="M35.00 7.5L35.00 12.5L30.00 15L25.00 12.5L25.00 7.5L30.00 5z"/>
	</g>
</g>
</svg>