<?xml version="1.0" encoding="UTF-8" standalone="no"?>
<svg
   xmlns:dc="http://purl.org/dc/elements/1.1/"
   xmlns:cc="http://creativecommons.org/ns#"
   xmlns:rdf="http://www.w3.org/1999/02/22-rdf-syntax-ns#"
   xmlns:svg="http://www.w3.org/2000/svg"
   xmlns="http://www.w3.org/2000/svg"
   xmlns:xlink="http://www.w3.org/1999/xlink"
   xmlns:sodipodi="http://sodipodi.sourceforge.net/DTD/sodipodi-0.dtd"
   xmlns:inkscape="http://www.inkscape.org/namespaces/inkscape"
   sodipodi:docname="oslbuilder.svg"
   inkscape:version="1.0beta1 (fe3e306, 2019-09-17)"
   width="48px"
   height="48px"
   viewBox="0 0 48 48"
   version="1.1"
   id="SVGRoot">
  <defs
     id="defs833">
    <linearGradient
       id="linearGradient1500"
       inkscape:collect="always">
      <stop
         id="stop1496"
         offset="0"
         style="stop-color:#919191;stop-opacity:1" />
      <stop
         id="stop1498"
         offset="1"
         style="stop-color:#000000;stop-opacity:1" />
    </linearGradient>
    <linearGradient
       id="linearGradient1492"
       inkscape:collect="always">
      <stop
         id="stop1488"
         offset="0"
         style="stop-color:#ffffff;stop-opacity:1;" />
      <stop
         id="stop1490"
         offset="1"
         style="stop-color:#d3d3d3;stop-opacity:1" />
    </linearGradient>
    <radialGradient
       gradientUnits="userSpaceOnUse"
       gradientTransform="matrix(0.99998387,-0.00567908,0.00407582,0.71767888,-0.09933239,7.0364835)"
       r="21.906198"
       fy="24.461962"
       fx="22.953588"
       cy="24.461962"
       cx="22.953588"
       id="radialGradient1494"
       xlink:href="#linearGradient1492"
       inkscape:collect="always" />
    <linearGradient
       gradientUnits="userSpaceOnUse"
       y2="34.673126"
       x2="24.408264"
       y1="13.979385"
       x1="24.645384"
       id="linearGradient1502"
       xlink:href="#linearGradient1500"
       inkscape:collect="always" />
  </defs>
  <sodipodi:namedview
     inkscape:grid-bbox="true"
     inkscape:window-maximized="1"
     inkscape:window-y="-8"
     inkscape:window-x="-8"
     inkscape:window-height="1557"
     inkscape:window-width="2880"
     showgrid="false"
     inkscape:document-rotation="0"
     inkscape:current-layer="layer1"
     inkscape:document-units="px"
     inkscape:cy="30.074044"
     inkscape:cx="25.654285"
     inkscape:zoom="15.839192"
     inkscape:pageshadow="2"
     inkscape:pageopacity="0.0"
     borderopacity="1.0"
     bordercolor="#666666"
     pagecolor="#ffffff"
     id="base" />
  <metadata
     id="metadata836">
    <rdf:RDF>
      <cc:Work
         rdf:about="">
        <dc:format>image/svg+xml</dc:format>
        <dc:type
           rdf:resource="http://purl.org/dc/dcmitype/StillImage" />
        <dc:title></dc:title>
      </cc:Work>
    </rdf:RDF>
  </metadata>
  <g
     id="layer1"
     inkscape:groupmode="layer"
     inkscape:label="Layer 1">
    <path
       d="m 38.995351,14.437674 -3.067226,0.06961 v 8.602579 l 3.067226,-0.05696 z m -3.067226,10.868191 v 9.11097 h 8.931662 v -2.828852 h -5.864436 v -6.19141 z M 28.357097,14.098043 c -2.940071,0.04004 -5.953369,1.772671 -5.999445,5.214706 -0.02356,1.759561 1.006103,3.074872 2.23397,4.010177 l 6.379156,-0.120242 C 30.359292,22.836012 29.80072,22.568369 29.449822,22.415838 28.214671,21.87893 25.508263,20.88395 25.46074,19.416115 c -0.04752,-1.467835 1.536504,-2.240171 2.896357,-2.48922 1.359853,-0.249051 2.698422,1.27168 2.968079,2.012471 l 2.522973,-1.432356 c -0.306853,-1.309153 -2.550981,-3.449005 -5.491052,-3.408967 z m -0.276346,10.973666 c 1.571187,0.546053 3.141346,2.023471 3.174811,3.584056 0.03465,1.615781 -1.11698,3.278926 -3.204344,3.273958 -2.087363,-0.005 -3.450928,-1.753084 -3.442719,-3.716955 l -3.103088,0.748877 c 0.06158,2.218726 2.15293,5.825747 6.444551,5.864435 4.291619,0.03869 6.409228,-3.090454 6.44244,-6.57956 0.01144,-1.202004 -0.429086,-2.199563 -1.056863,-3.018707 z M 11.396643,14.098043 A 10.347777,10.347777 0 0 0 1.0473907,24.445185 10.347777,10.347777 0 0 0 3.5239544,31.161862 l 2.0420049,-2.204437 a 7.4326702,7.4326702 0 0 1 -1.5167372,-4.495364 7.4326702,7.4326702 0 0 1 7.4318009,-7.4318 7.4326702,7.4326702 0 0 1 7.357968,6.40025 l 2.847837,-0.05274 a 10.347777,10.347777 0 0 0 -10.290185,-9.27973 z m 7.507743,10.70154 a 7.4326702,7.4326702 0 0 1 -7.423363,7.094279 7.4326702,7.4326702 0 0 1 -4.4552834,-1.485095 l -2.2909269,1.953406 a 10.347777,10.347777 0 0 0 6.6618303,2.430155 10.347777,10.347777 0 0 0 10.336595,-9.908365 z"
       style="font-variation-settings:normal;opacity:1;vector-effect:none;fill:url(#radialGradient1494);fill-opacity:1;fill-rule:evenodd;stroke:url(#linearGradient1502);stroke-width:0.5;stroke-linecap:round;stroke-linejoin:miter;stroke-miterlimit:4;stroke-dasharray:none;stroke-dashoffset:0;stroke-opacity:1;stop-color:#000000;stop-opacity:1"
       id="path1441" />
    <path
       inkscape:connector-curvature="0"
       id="path1448"
       d="M -0.1451457,36.054306 10.219679,24.700732 8.0035157,23.882456 12.7086,23.234655 l -0.818275,4.53461 -0.647801,-2.011593 z"
       style="font-variation-settings:normal;opacity:1;vector-effect:none;fill:#a40000;fill-opacity:1;fill-rule:evenodd;stroke:none;stroke-width:0.2;stroke-linecap:round;stroke-linejoin:bevel;stroke-miterlimit:4;stroke-dasharray:none;stroke-dashoffset:0;stroke-opacity:1;stop-color:#000000;stop-opacity:1" />
    <path
       inkscape:connector-curvature="0"
       id="path1455"
       d="m 13.151834,24.018836 32.117317,-0.545517 -0.954655,-2.079785 3.716335,2.761681 -3.68224,2.591206 0.954654,-1.943405 z"
       style="font-variation-settings:normal;opacity:1;vector-effect:none;fill:#a40000;fill-opacity:1;fill-rule:evenodd;stroke:none;stroke-width:0.2;stroke-linecap:round;stroke-linejoin:bevel;stroke-miterlimit:4;stroke-dasharray:none;stroke-dashoffset:0;stroke-opacity:1;stop-color:#000000;stop-opacity:1" />
  </g>
</svg>
