<?xml version="1.0" encoding="UTF-8" standalone="no"?>
<!-- Created with Inkscape (http://www.inkscape.org/) -->
<svg
   xmlns:dc="http://purl.org/dc/elements/1.1/"
   xmlns:cc="http://creativecommons.org/ns#"
   xmlns:rdf="http://www.w3.org/1999/02/22-rdf-syntax-ns#"
   xmlns:svg="http://www.w3.org/2000/svg"
   xmlns="http://www.w3.org/2000/svg"
   xmlns:xlink="http://www.w3.org/1999/xlink"
   xmlns:sodipodi="http://sodipodi.sourceforge.net/DTD/sodipodi-0.dtd"
   xmlns:inkscape="http://www.inkscape.org/namespaces/inkscape"
   width="48px"
   height="48px"
   id="svg3989"
   sodipodi:version="0.32"
   inkscape:version="0.46"
   sodipodi:docname="pow.svg"
   inkscape:output_extension="org.inkscape.output.svg.inkscape">
  <defs
     id="defs3991">
    <linearGradient
       id="linearGradient4533">
      <stop
         style="stop-color:#ffcf83;stop-opacity:1;"
         offset="0"
         id="stop4535" />
      <stop
         style="stop-color:#f7ae00;stop-opacity:1;"
         offset="1"
         id="stop4537" />
    </linearGradient>
    <linearGradient
       id="linearGradient4523">
      <stop
         style="stop-color:#ce5c00;stop-opacity:1;"
         offset="0"
         id="stop4525" />
      <stop
         style="stop-color:#9f4700;stop-opacity:1;"
         offset="1"
         id="stop4527" />
    </linearGradient>
    <inkscape:perspective
       sodipodi:type="inkscape:persp3d"
       inkscape:vp_x="0 : 24 : 1"
       inkscape:vp_y="0 : 1000 : 0"
       inkscape:vp_z="48 : 24 : 1"
       inkscape:persp3d-origin="24 : 16 : 1"
       id="perspective3997" />
    <linearGradient
       inkscape:collect="always"
       xlink:href="#linearGradient4523"
       id="linearGradient4529"
       x1="17.857143"
       y1="17.000002"
       x2="41.285717"
       y2="39.57143"
       gradientUnits="userSpaceOnUse"
       gradientTransform="matrix(1.0429043,0,0,1.0428796,-1.8307402,-4.2879595e-2)" />
    <radialGradient
       inkscape:collect="always"
       xlink:href="#linearGradient4533"
       id="radialGradient4539"
       cx="24.684584"
       cy="24.541327"
       fx="24.684584"
       fy="24.541327"
       r="21.113155"
       gradientTransform="matrix(1,0,0,0.9999774,0,4.7682639e-4)"
       gradientUnits="userSpaceOnUse" />
  </defs>
  <sodipodi:namedview
     id="base"
     pagecolor="#ffffff"
     bordercolor="#666666"
     borderopacity="1.0"
     inkscape:pageopacity="0.0"
     inkscape:pageshadow="2"
     inkscape:zoom="7"
     inkscape:cx="2.4285714"
     inkscape:cy="24"
     inkscape:current-layer="layer1"
     showgrid="true"
     inkscape:grid-bbox="true"
     inkscape:document-units="px"
     inkscape:window-width="1920"
     inkscape:window-height="1115"
     inkscape:window-x="0"
     inkscape:window-y="56" />
  <metadata
     id="metadata3994">
    <rdf:RDF>
      <cc:Work
         rdf:about="">
        <dc:format>image/svg+xml</dc:format>
        <dc:type
           rdf:resource="http://purl.org/dc/dcmitype/StillImage" />
      </cc:Work>
    </rdf:RDF>
  </metadata>
  <g
     id="layer1"
     inkscape:label="Layer 1"
     inkscape:groupmode="layer">
    <path
       id="path4920"
       d="M 33.503083,16.855406 C 33.483488,17.994399 33.067777,18.833896 32.255946,19.373899 C 31.444055,19.91395 30.558834,20.183964 29.600278,20.183941 C 29.013363,20.183964 28.348223,20.080868 27.60486,19.874651 C 26.861443,19.668483 26.274556,19.496657 25.844197,19.359171 C 24.963841,20.144688 23.941679,21.303293 22.777706,22.834986 C 21.613692,24.36672 20.51328,26.05553 19.476462,27.901427 C 19.945954,29.76699 20.366557,31.362525 20.738271,32.688037 C 21.109947,34.013567 21.510988,35.343998 21.941391,36.67933 C 22.313066,37.877215 22.895063,38.834537 23.687382,39.551296 C 24.479659,40.268063 25.521384,40.626445 26.81256,40.626443 C 27.282046,40.626445 27.927622,40.562625 28.74929,40.434978 C 29.570907,40.307338 30.206701,40.164968 30.656677,40.007866 L 30.128478,41.951965 C 28.25041,42.73746 26.836989,43.248033 25.888211,43.483681 C 24.939387,43.719329 23.917226,43.837153 22.821723,43.837153 C 21.4523,43.837153 20.32254,43.522954 19.432445,42.894558 C 18.542315,42.266164 17.823379,40.970099 17.275633,39.00636 C 16.884359,37.572838 16.566461,36.370049 16.32194,35.397992 C 16.077388,34.425952 15.837743,33.458813 15.603003,32.496571 C 14.703094,33.85156 13.959703,35.005254 13.372827,35.957657 C 12.785928,36.910076 11.807783,38.22087 10.438388,39.890042 C 9.2450416,41.343209 8.1495181,42.374168 7.1518154,42.982926 C 6.1541013,43.591685 5.1368306,43.896063 4.0999984,43.896063 C 3.1805395,43.896063 2.4224767,43.626051 1.8258077,43.086024 C 1.2291393,42.545996 0.93080481,41.794868 0.93080369,40.832634 C 0.93080481,39.909682 1.2829372,39.119278 1.9872019,38.461422 C 2.6914668,37.803576 3.6598309,37.47465 4.8922969,37.474645 C 5.5183069,37.47465 6.1296477,37.587565 6.7263223,37.813389 C 7.3229855,38.039224 7.9441088,38.250325 8.5896903,38.446695 C 9.3330751,37.739756 10.316111,36.640063 11.538802,35.147615 C 12.761475,33.655186 13.901015,31.956554 14.957425,30.051719 C 14.585717,28.65748 14.179787,27.125768 13.739633,25.456574 C 13.299456,23.787417 12.883743,22.324435 12.492496,21.067623 C 11.983849,19.477019 11.396962,18.455878 10.731831,18.004193 C 10.066684,17.552557 9.2156977,17.326729 8.1788685,17.326704 C 7.6115396,17.326729 7.0099795,17.405278 6.3741883,17.562352 C 5.7383907,17.719475 5.146612,17.876575 4.598853,18.033648 L 5.1563966,16.089548 C 6.6627375,15.461181 8.0174695,14.945701 9.220596,14.543106 C 10.423706,14.140568 11.240459,13.939286 11.670853,13.939258 C 13.020684,13.939286 14.140661,14.268212 15.030786,14.926034 C 15.920886,15.583915 16.630041,16.855433 17.158254,18.740594 C 17.764689,20.920364 18.121714,22.250795 18.229325,22.73189 C 18.336906,23.213026 18.547207,24.160527 18.860229,25.574398 C 19.799232,24.121252 20.562187,22.893918 21.149092,21.892391 C 21.735962,20.890908 22.694542,19.565387 24.024843,17.915824 C 25.257285,16.364499 26.396823,15.299173 27.443465,14.719842 C 28.490056,14.140568 29.492655,13.850917 30.451266,13.850889 C 31.312006,13.850917 32.040724,14.13075 32.637423,14.690386 C 33.234062,15.25008 33.522614,15.971751 33.503083,16.855406 L 33.503083,16.855406 z"
       style="font-size:37.53015137px;font-style:italic;font-variant:normal;font-weight:normal;font-stretch:normal;fill:none;fill-opacity:1;stroke:#ffffff;stroke-width:2;stroke-linecap:butt;stroke-linejoin:miter;stroke-miterlimit:4;stroke-dasharray:none;stroke-opacity:1;font-family:Georgia;-inkscape-font-specification:Georgia Italic" />
    <path
       id="path4922"
       d="M 42.656054,14.20868 L 42.582429,14.20868 C 41.829835,14.838134 41.114059,15.3327 40.435099,15.692385 C 39.756129,16.052073 38.983091,16.231917 38.115984,16.231917 C 37.330672,16.231917 36.70897,16.005068 36.250876,15.551375 C 35.792777,15.097679 35.563729,14.502971 35.56373,13.767247 C 35.563729,13.571056 35.580088,13.33808 35.612813,13.068309 C 35.64553,12.798549 35.723244,12.39799 35.84595,11.866631 L 36.803046,8.0408758 C 36.893027,7.673022 36.962558,7.3521655 37.011643,7.0783063 C 37.060723,6.804463 37.085263,6.5408284 37.085266,6.287404 C 37.085263,5.8296316 37.009595,5.5251248 36.858262,5.3738825 C 36.706923,5.2226613 36.398118,5.1470456 35.931844,5.1470347 C 35.751875,5.1470456 35.522827,5.1797443 35.244699,5.2451311 C 34.966566,5.3105393 34.749788,5.3636747 34.594364,5.4045374 L 34.778421,4.619767 C 35.416484,4.3336646 35.978879,4.1170355 36.465608,3.9698791 C 36.952333,3.8227468 37.342942,3.7491745 37.637438,3.7491625 C 38.291857,3.7491745 38.776538,3.896319 39.091485,4.1905957 C 39.40642,4.4848962 39.563894,4.9263291 39.563898,5.5148957 C 39.563894,5.6620505 39.547531,5.8623303 39.514817,6.1157351 C 39.482089,6.3691595 39.433009,6.6225759 39.367572,6.8759827 L 38.25096,11.351627 C 38.169153,11.694966 38.09962,12.015824 38.042363,12.314196 C 37.985097,12.612574 37.956466,12.839422 37.956469,12.994739 C 37.956466,13.542445 38.089393,13.975703 38.355259,14.294515 C 38.621114,14.613329 39.011723,14.772736 39.527087,14.772735 C 40.124243,14.772736 40.707087,14.625592 41.275626,14.331301 C 41.844149,14.037013 42.377915,13.632365 42.876921,13.117359 L 44.913818,3.9453551 L 47.036606,3.7982105 L 47.183853,3.9821411 L 45.073334,13.583317 C 44.76247,14.989364 44.365725,16.191042 43.883098,17.188356 C 43.400451,18.185665 42.836011,18.990872 42.189776,19.603976 C 41.510803,20.249774 40.778667,20.71573 39.993364,21.001849 C 39.208051,21.287957 38.312308,21.431014 37.306134,21.431023 C 36.610807,21.431014 36.058636,21.381967 35.649623,21.283877 C 35.240606,21.185775 34.917486,21.050891 34.680257,20.879229 C 34.443028,20.71573 34.283513,20.5318 34.20171,20.327437 C 34.119906,20.123066 34.079005,19.918698 34.079005,19.714336 C 34.079005,19.362821 34.185347,19.052181 34.398037,18.78242 C 34.610724,18.512652 34.917486,18.377772 35.31832,18.377774 C 35.62099,18.377772 35.87867,18.463606 36.09136,18.635274 C 36.304045,18.806942 36.47583,18.99496 36.606719,19.199329 C 36.75396,19.420043 36.888937,19.66937 37.011643,19.947314 C 37.134345,20.225249 37.232509,20.445965 37.306134,20.609465 L 37.600626,20.609465 C 38.066898,20.60946 38.55976,20.495015 39.079216,20.266126 C 39.59866,20.03723 40.07516,19.681632 40.508725,19.199329 C 40.974995,18.676148 41.394233,18.001735 41.766444,17.176093 C 42.138641,16.35045 42.435178,15.361311 42.656054,14.20868 L 42.656054,14.20868 z"
       style="font-size:14.40578556px;font-style:italic;font-variant:normal;font-weight:normal;font-stretch:normal;fill:none;fill-opacity:1;stroke:#ffffff;stroke-width:2;stroke-linecap:butt;stroke-linejoin:miter;stroke-miterlimit:4;stroke-dasharray:none;stroke-opacity:1;font-family:Georgia;-inkscape-font-specification:Georgia Italic" />
    <path
       style="font-size:37.53015137px;font-style:italic;font-variant:normal;font-weight:normal;font-stretch:normal;fill:#000000;fill-opacity:1;stroke:none;stroke-width:1px;stroke-linecap:butt;stroke-linejoin:miter;stroke-opacity:1;font-family:Georgia;-inkscape-font-specification:Georgia Italic"
       d="M 33.503083,16.855405 C 33.483488,17.994399 33.067777,18.833896 32.255946,19.373899 C 31.444055,19.913951 30.558834,20.183963 29.600278,20.18394 C 29.013363,20.183963 28.348224,20.080867 27.60486,19.874651 C 26.861443,19.668483 26.274556,19.496656 25.844197,19.35917 C 24.963841,20.144688 23.941679,21.303293 22.777707,22.834985 C 21.613691,24.366719 20.51328,26.05553 19.476462,27.901426 C 19.945954,29.76699 20.366557,31.362525 20.738271,32.688036 C 21.109947,34.013566 21.510987,35.343997 21.941392,36.67933 C 22.313067,37.877215 22.895064,38.834536 23.687382,39.551296 C 24.47966,40.268063 25.521384,40.626444 26.81256,40.626443 C 27.282046,40.626444 27.927622,40.562623 28.74929,40.434976 C 29.570908,40.307338 30.206701,40.164967 30.656677,40.007864 L 30.128478,41.951964 C 28.250409,42.73746 26.836989,43.248031 25.888211,43.483679 C 24.939387,43.719327 23.917226,43.837151 22.821723,43.837151 C 21.4523,43.837151 20.32254,43.522953 19.432445,42.894557 C 18.542315,42.266164 17.823379,40.970098 17.275633,39.006359 C 16.884359,37.572837 16.566461,36.370047 16.321939,35.397992 C 16.077388,34.425951 15.837743,33.458812 15.603003,32.496571 C 14.703094,33.85156 13.959703,35.005254 13.372827,35.957657 C 12.785928,36.910075 11.807783,38.220869 10.438388,39.89004 C 9.2450417,41.343208 8.1495182,42.374168 7.1518154,42.982926 C 6.1541014,43.591684 5.1368306,43.896063 4.0999985,43.896063 C 3.1805395,43.896063 2.4224767,43.62605 1.8258077,43.086023 C 1.2291393,42.545995 0.93080484,41.794866 0.93080371,40.832633 C 0.93080484,39.909682 1.2829372,39.119277 1.9872019,38.461421 C 2.6914668,37.803575 3.6598309,37.474649 4.892297,37.474644 C 5.5183069,37.474649 6.1296478,37.587564 6.7263223,37.813388 C 7.3229856,38.039223 7.9441088,38.250324 8.5896904,38.446694 C 9.3330751,37.739754 10.316111,36.640063 11.538802,35.147615 C 12.761475,33.655185 13.901015,31.956554 14.957425,30.051718 C 14.585717,28.65748 14.179787,27.125767 13.739633,25.456574 C 13.299456,23.787416 12.883743,22.324434 12.492496,21.067622 C 11.983849,19.477019 11.396962,18.455877 10.731831,18.004192 C 10.066684,17.552558 9.2156976,17.326729 8.1788685,17.326703 C 7.6115396,17.326729 7.0099795,17.405278 6.3741883,17.562351 C 5.7383906,17.719476 5.1466121,17.876575 4.598853,18.033648 L 5.1563967,16.089548 C 6.6627376,15.461181 8.0174696,14.9457 9.2205961,14.543106 C 10.423706,14.140567 11.240459,13.939286 11.670853,13.939257 C 13.020684,13.939286 14.140661,14.268211 15.030786,14.926033 C 15.920886,15.583914 16.630041,16.855432 17.158255,18.740595 C 17.764689,20.920363 18.121714,22.250795 18.229325,22.73189 C 18.336906,23.213025 18.547207,24.160527 18.860229,25.574398 C 19.799232,24.121251 20.562187,22.893917 21.149092,21.892391 C 21.735962,20.890908 22.694542,19.565387 24.024843,17.915824 C 25.257285,16.364499 26.396823,15.299172 27.443465,14.719842 C 28.490057,14.140567 29.492655,13.850918 30.451267,13.850888 C 31.312006,13.850918 32.040724,14.13075 32.637422,14.690385 C 33.234062,15.25008 33.522615,15.971751 33.503083,16.855405 L 33.503083,16.855405 z"
       id="text4910" />
    <path
       style="font-size:14.40578556px;font-style:italic;font-variant:normal;font-weight:normal;font-stretch:normal;fill:#000000;fill-opacity:1;stroke:none;stroke-width:1px;stroke-linecap:butt;stroke-linejoin:miter;stroke-opacity:1;font-family:Georgia;-inkscape-font-specification:Georgia Italic"
       d="M 42.65605,14.20868 L 42.582428,14.20868 C 41.829832,14.838133 41.114057,15.332702 40.435098,15.692386 C 39.756127,16.052073 38.98309,16.231917 38.115981,16.231917 C 37.33067,16.231917 36.708968,16.005068 36.250875,15.551374 C 35.792774,15.097678 35.563728,14.502971 35.56373,13.767247 C 35.563728,13.571057 35.580087,13.338079 35.612809,13.06831 C 35.645529,12.79855 35.723242,12.39799 35.845948,11.866631 L 36.803044,8.0408757 C 36.893025,7.6730219 36.962556,7.3521671 37.011641,7.0783062 C 37.060719,6.8044628 37.085262,6.5408282 37.085265,6.2874038 C 37.085262,5.8296318 37.009593,5.525125 36.85826,5.3738827 C 36.706922,5.2226615 36.398116,5.1470458 35.931842,5.1470348 C 35.751873,5.1470458 35.522825,5.1797444 35.244697,5.2451312 C 34.966565,5.3105394 34.749786,5.3636748 34.594364,5.4045376 L 34.778419,4.6197672 C 35.416481,4.3336647 35.978878,4.1170357 36.465607,3.9698793 C 36.952332,3.8227472 37.342939,3.7491748 37.637434,3.7491626 C 38.291855,3.7491748 38.776537,3.8963191 39.091484,4.1905958 C 39.40642,4.4848963 39.56389,4.9263292 39.563897,5.514896 C 39.56389,5.6620506 39.54753,5.8623306 39.514815,6.1157366 C 39.482088,6.3691611 39.433006,6.6225759 39.36757,6.8759826 L 38.250958,11.351626 C 38.169151,11.694966 38.099618,12.015824 38.04236,12.314196 C 37.985094,12.612574 37.956462,12.839422 37.956466,12.994738 C 37.956462,13.542446 38.089392,13.975703 38.355257,14.294515 C 38.621112,14.613331 39.011721,14.772736 39.527086,14.772734 C 40.124241,14.772736 40.707087,14.625591 41.275624,14.3313 C 41.844148,14.037013 42.377911,13.632367 42.876919,13.117359 L 44.913815,3.9453552 L 47.036604,3.7982106 L 47.18385,3.9821412 L 45.073331,13.583317 C 44.762469,14.989364 44.365723,16.191044 43.883096,17.188356 C 43.400447,18.185666 42.836008,18.990873 42.189774,19.603976 C 41.510801,20.249773 40.778663,20.715732 39.993363,21.001849 C 39.208048,21.287958 38.312305,21.431016 37.306133,21.431022 C 36.610804,21.431016 36.058635,21.381968 35.649622,21.283877 C 35.240604,21.185774 34.917483,21.050892 34.680256,20.879229 C 34.443027,20.715732 34.283511,20.5318 34.201707,20.327438 C 34.119904,20.123067 34.079001,19.918698 34.079001,19.714335 C 34.079001,19.362821 34.185346,19.052183 34.398035,18.78242 C 34.610722,18.512653 34.917483,18.377771 35.31832,18.377773 C 35.620989,18.377771 35.878668,18.463605 36.091359,18.635276 C 36.304043,18.806941 36.47583,18.99496 36.606717,19.19933 C 36.753959,19.420043 36.888935,19.669369 37.011641,19.947313 C 37.134343,20.225249 37.232506,20.445965 37.306133,20.609465 L 37.600623,20.609465 C 38.066895,20.60946 38.559758,20.495014 39.079213,20.266127 C 39.598658,20.037231 40.07516,19.681633 40.508721,19.19933 C 40.974992,18.676147 41.394232,18.001735 41.766443,17.176094 C 42.13864,16.35045 42.435174,15.361313 42.65605,14.20868 L 42.65605,14.20868 z"
       id="text4914" />
  </g>
</svg>
