<?xml version="1.0" encoding="UTF-8" standalone="no"?>
<!-- Created with Inkscape (http://www.inkscape.org/) -->

<svg
   xmlns:dc="http://purl.org/dc/elements/1.1/"
   xmlns:cc="http://creativecommons.org/ns#"
   xmlns:rdf="http://www.w3.org/1999/02/22-rdf-syntax-ns#"
   xmlns:svg="http://www.w3.org/2000/svg"
   xmlns="http://www.w3.org/2000/svg"
   xmlns:sodipodi="http://sodipodi.sourceforge.net/DTD/sodipodi-0.dtd"
   xmlns:inkscape="http://www.inkscape.org/namespaces/inkscape"
   width="48"
   height="48"
   id="svg2"
   version="1.1"
   inkscape:version="0.48.1 "
   sodipodi:docname="distance_to_line_vop.svg"
   inkscape:export-filename="E:\dev\src\houdini\help\documents\nodes\images\distance_to_line_vop.png"
   inkscape:export-xdpi="90"
   inkscape:export-ydpi="90">
  <defs
     id="defs4">
    <marker
       inkscape:stockid="Arrow1Send"
       orient="auto"
       refY="0.0"
       refX="0.0"
       id="Arrow1Send"
       style="overflow:visible;">
      <path
         id="path3802"
         d="M 0.0,0.0 L 5.0,-5.0 L -12.5,0.0 L 5.0,5.0 L 0.0,0.0 z "
         style="fill-rule:evenodd;stroke:#000000;stroke-width:1.0pt;marker-start:none;"
         transform="scale(0.2) rotate(180) translate(6,0)" />
    </marker>
    <marker
       inkscape:stockid="Arrow2Mend"
       orient="auto"
       refY="0"
       refX="0"
       id="Arrow2Mend"
       style="overflow:visible">
      <path
         id="path3814"
         style="font-size:12px;fill-rule:evenodd;stroke-width:0.625;stroke-linejoin:round"
         d="M 8.7185878,4.0337352 -2.2072895,0.01601326 8.7185884,-4.0017078 c -1.7454984,2.3720609 -1.7354408,5.6174519 -6e-7,8.035443 z"
         transform="scale(-0.6,-0.6)"
         inkscape:connector-curvature="0" />
    </marker>
    <marker
       inkscape:stockid="Arrow2Send"
       orient="auto"
       refY="0"
       refX="0"
       id="Arrow2Send"
       style="overflow:visible">
      <path
         id="path3820"
         style="font-size:12px;fill-rule:evenodd;stroke-width:0.625;stroke-linejoin:round"
         d="M 8.7185878,4.0337352 -2.2072895,0.01601326 8.7185884,-4.0017078 c -1.7454984,2.3720609 -1.7354408,5.6174519 -6e-7,8.035443 z"
         transform="matrix(-0.3,0,0,-0.3,0.69,0)"
         inkscape:connector-curvature="0" />
    </marker>
  </defs>
  <sodipodi:namedview
     id="base"
     pagecolor="#ffffff"
     bordercolor="#666666"
     borderopacity="1.0"
     inkscape:pageopacity="0.0"
     inkscape:pageshadow="2"
     inkscape:zoom="16"
     inkscape:cx="18.92931"
     inkscape:cy="21.024831"
     inkscape:document-units="px"
     inkscape:current-layer="layer1"
     showgrid="false"
     fit-margin-top="0"
     fit-margin-left="0"
     fit-margin-right="0"
     fit-margin-bottom="0"
     inkscape:window-width="2560"
     inkscape:window-height="1538"
     inkscape:window-x="-8"
     inkscape:window-y="-8"
     inkscape:window-maximized="1" />
  <metadata
     id="metadata7">
    <rdf:RDF>
      <cc:Work
         rdf:about="">
        <dc:format>image/svg+xml</dc:format>
        <dc:type
           rdf:resource="http://purl.org/dc/dcmitype/StillImage" />
        <dc:title></dc:title>
      </cc:Work>
    </rdf:RDF>
  </metadata>
  <g
     inkscape:label="Layer 1"
     inkscape:groupmode="layer"
     id="layer1"
     transform="translate(-90.393426,-970.59009)">
    <path
       sodipodi:type="arc"
       style="color:#000000;fill:#e1e4de;fill-opacity:1;stroke:none;stroke-width:3;marker:none;visibility:visible;display:inline;overflow:visible;enable-background:accumulate"
       id="path3765"
       sodipodi:cx="70.625"
       sodipodi:cy="72.625"
       sodipodi:rx="5.625"
       sodipodi:ry="5.625"
       d="m 76.25,72.625 a 5.625,5.625 0 1 1 -11.25,0 5.625,5.625 0 1 1 11.25,0 z"
       transform="matrix(1.4764383,-0.84202518,0.84077844,1.4382334,-36.185294,942.89623)" />
    <path
       transform="matrix(1.4764383,-0.84202518,0.84077844,1.4382334,-65.292984,959.49659)"
       d="m 76.25,72.625 a 5.625,5.625 0 1 1 -11.25,0 5.625,5.625 0 1 1 11.25,0 z"
       sodipodi:ry="5.625"
       sodipodi:rx="5.625"
       sodipodi:cy="72.625"
       sodipodi:cx="70.625"
       id="path3761"
       style="color:#000000;fill:#e1e4de;fill-opacity:1;stroke:none;stroke-width:3;marker:none;visibility:visible;display:inline;overflow:visible;enable-background:accumulate"
       sodipodi:type="arc" />
    <rect
       style="color:#000000;fill:#e1e4de;fill-opacity:1;fill-rule:nonzero;stroke:none;stroke-width:3;marker:none;visibility:visible;display:inline;overflow:visible;enable-background:accumulate"
       id="rect3767"
       width="34.436874"
       height="18.742052"
       x="-420.59937"
       y="912.79706"
       transform="matrix(0.86866197,-0.49540527,0.50468101,0.8633059,0,0)" />
    <path
       style="fill:none;stroke:#3465a4;stroke-width:1.5;stroke-linecap:butt;stroke-linejoin:miter;stroke-miterlimit:4;stroke-opacity:1;stroke-dasharray:none;stroke-dashoffset:0.60000001999999997"
       d="M 100.30574,1004.3298 128.5957,988.19577"
       id="path2987"
       inkscape:connector-curvature="0" />
    <path
       sodipodi:type="arc"
       style="color:#000000;fill:#729fcf;stroke:none;stroke-width:3;marker:none;visibility:visible;display:inline;overflow:visible;enable-background:accumulate"
       id="path3757"
       sodipodi:cx="70.625"
       sodipodi:cy="72.625"
       sodipodi:rx="5.625"
       sodipodi:ry="5.625"
       d="m 76.25,72.625 a 5.625,5.625 0 1 1 -11.25,0 5.625,5.625 0 1 1 11.25,0 z"
       transform="matrix(0.33513879,-0.19083913,0.19055655,0.32545034,62.518674,994.35363)" />
    <path
       transform="matrix(0.34500733,-0.1964586,0.1961677,0.33503359,90.829537,977.37226)"
       d="m 76.25,72.625 a 5.625,5.625 0 1 1 -11.25,0 5.625,5.625 0 1 1 11.25,0 z"
       sodipodi:ry="5.625"
       sodipodi:rx="5.625"
       sodipodi:cy="72.625"
       sodipodi:cx="70.625"
       id="path3759"
       style="color:#000000;fill:#729fcf;stroke:none;stroke-width:3;marker:none;visibility:visible;display:inline;overflow:visible;enable-background:accumulate"
       sodipodi:type="arc" />
    <path
       style="fill:none;stroke:#000000;stroke-width:0.99999994px;stroke-linecap:butt;stroke-linejoin:miter;stroke-opacity:1;marker-end:url(#Arrow2Send)"
       d="m 105.66349,990.75767 4.30266,6.7983"
       id="path3782"
       inkscape:connector-curvature="0"
       sodipodi:nodetypes="cc" />
    <path
       transform="matrix(0.32527026,-0.18521965,0.1849454,0.31586709,69.377571,980.93617)"
       d="m 76.25,72.625 a 5.625,5.625 0 1 1 -11.25,0 5.625,5.625 0 1 1 11.25,0 z"
       sodipodi:ry="5.625"
       sodipodi:rx="5.625"
       sodipodi:cy="72.625"
       sodipodi:cx="70.625"
       id="path3780"
       style="color:#000000;fill:#ef2929;fill-opacity:1;stroke:none;stroke-width:3;marker:none;visibility:visible;display:inline;overflow:visible;enable-background:accumulate"
       sodipodi:type="arc" />
  </g>
</svg>
