<?xml version="1.0" encoding="UTF-8" standalone="no"?>
<!-- Created with Inkscape (http://www.inkscape.org/) -->
<svg
   xmlns:dc="http://purl.org/dc/elements/1.1/"
   xmlns:cc="http://creativecommons.org/ns#"
   xmlns:rdf="http://www.w3.org/1999/02/22-rdf-syntax-ns#"
   xmlns:svg="http://www.w3.org/2000/svg"
   xmlns="http://www.w3.org/2000/svg"
   xmlns:xlink="http://www.w3.org/1999/xlink"
   xmlns:sodipodi="http://sodipodi.sourceforge.net/DTD/sodipodi-0.dtd"
   xmlns:inkscape="http://www.inkscape.org/namespaces/inkscape"
   width="48px"
   height="48px"
   id="svg2383"
   sodipodi:version="0.32"
   inkscape:version="0.46"
   sodipodi:docname="mushroomcloud.svg"
   inkscape:output_extension="org.inkscape.output.svg.inkscape">
  <defs
     id="defs2385">
    <linearGradient
       id="linearGradient3266">
      <stop
         style="stop-color:#ff8d27;stop-opacity:1;"
         offset="0"
         id="stop3268" />
      <stop
         style="stop-color:#f18d3b;stop-opacity:0.4453125;"
         offset="1"
         id="stop3270" />
    </linearGradient>
    <linearGradient
       id="linearGradient3258">
      <stop
         style="stop-color:#ffffff;stop-opacity:1;"
         offset="0"
         id="stop3260" />
      <stop
         style="stop-color:#fce94f;stop-opacity:1;"
         offset="1"
         id="stop3262" />
    </linearGradient>
    <inkscape:perspective
       sodipodi:type="inkscape:persp3d"
       inkscape:vp_x="0 : 24 : 1"
       inkscape:vp_y="0 : 1000 : 0"
       inkscape:vp_z="48 : 24 : 1"
       inkscape:persp3d-origin="24 : 16 : 1"
       id="perspective2391" />
    <inkscape:perspective
       id="perspective2400"
       inkscape:persp3d-origin="372.04724 : 350.78739 : 1"
       inkscape:vp_z="744.09448 : 526.18109 : 1"
       inkscape:vp_y="0 : 1000 : 0"
       inkscape:vp_x="0 : 526.18109 : 1"
       sodipodi:type="inkscape:persp3d" />
    <radialGradient
       inkscape:collect="always"
       xlink:href="#linearGradient3258"
       id="radialGradient3264"
       cx="23.739641"
       cy="19.688005"
       fx="23.739641"
       fy="19.688005"
       r="23.316394"
       gradientTransform="matrix(1,0,0,0.8392485,0,3.1648765)"
       gradientUnits="userSpaceOnUse" />
    <radialGradient
       inkscape:collect="always"
       xlink:href="#linearGradient3266"
       id="radialGradient3272"
       cx="21.616245"
       cy="14.31365"
       fx="21.616245"
       fy="14.31365"
       r="23.381357"
       gradientTransform="matrix(1,0,0,1.0444025,9.5238095e-2,-0.9857172)"
       gradientUnits="userSpaceOnUse" />
  </defs>
  <sodipodi:namedview
     id="base"
     pagecolor="#ffffff"
     bordercolor="#666666"
     borderopacity="1.0"
     inkscape:pageopacity="0.0"
     inkscape:pageshadow="2"
     inkscape:zoom="10.5"
     inkscape:cx="15.904762"
     inkscape:cy="21.547619"
     inkscape:current-layer="layer1"
     showgrid="true"
     inkscape:grid-bbox="true"
     inkscape:document-units="px"
     inkscape:window-width="1920"
     inkscape:window-height="1115"
     inkscape:window-x="-4"
     inkscape:window-y="-4" />
  <metadata
     id="metadata2388">
    <rdf:RDF>
      <cc:Work
         rdf:about="">
        <dc:format>image/svg+xml</dc:format>
        <dc:type
           rdf:resource="http://purl.org/dc/dcmitype/StillImage" />
      </cc:Work>
    </rdf:RDF>
  </metadata>
  <g
     id="layer1"
     inkscape:label="Layer 1"
     inkscape:groupmode="layer">
    <path
       sodipodi:type="arc"
       style="opacity:1;fill:#8f5902;fill-opacity:1;fill-rule:evenodd;stroke:none;stroke-width:1;stroke-linecap:butt;stroke-linejoin:miter;marker:none;marker-start:none;marker-mid:none;marker-end:none;stroke-miterlimit:4;stroke-dasharray:none;stroke-dashoffset:0.50000000000000000;stroke-opacity:1;visibility:visible;display:inline;overflow:visible;enable-background:accumulate"
       id="path3254"
       sodipodi:cx="32.238094"
       sodipodi:cy="37.190475"
       sodipodi:rx="3.6666667"
       sodipodi:ry="2.3333333"
       d="M 35.904761,37.190475 A 3.6666667,2.3333333 0 1 1 28.571428,37.190475 A 3.6666667,2.3333333 0 1 1 35.904761,37.190475 z"
       transform="matrix(1.0384476,0,0,1.0384476,-1.1993271,-0.5941729)" />
    <path
       style="fill:url(#radialGradient3264);fill-opacity:1;fill-rule:evenodd;stroke:none;stroke-width:1;stroke-linecap:butt;stroke-linejoin:miter;marker:none;marker-start:none;marker-mid:none;marker-end:none;stroke-miterlimit:4;stroke-dasharray:none;stroke-dashoffset:0.50000000000000000;stroke-opacity:1;visibility:visible;display:inline;overflow:visible;enable-background:accumulate"
       d="M 26.027471,0.11975983 C 25.581926,0.11943013 25.072287,0.14206673 24.404897,0.18466281 C 20.189905,0.45368304 17.070203,1.2690542 14.572096,2.7807818 C 13.362273,3.5129039 11.296367,5.3106478 9.9964364,6.7723147 C 8.6965049,8.2339816 6.7862445,10.311718 5.7452912,11.380426 C 4.7043367,12.449134 3.388497,14.046634 2.8246573,14.917638 C 1.4270482,17.076626 0.42362634,19.712428 0.42324731,21.278129 C 0.4227177,23.466651 1.6881003,26.390256 3.2789781,27.930684 C 4.1876115,28.810503 4.5745329,29.459259 4.3174257,29.618162 C 4.0867234,29.760745 3.9280079,30.305406 3.9280079,30.818867 C 3.9280079,31.465228 4.2609778,31.928927 5.0638099,32.344086 C 5.7015683,32.673884 6.2320635,33.179014 6.2320635,33.479889 C 6.2320633,33.780762 6.4293415,34.152371 6.6539328,34.291176 C 7.4470895,34.781375 11.448504,35.150055 11.911074,34.777948 C 12.16292,34.575355 12.934565,34.483136 13.631003,34.550788 C 14.552582,34.640308 14.939609,34.881098 15.09132,35.491881 C 15.322886,36.424166 17.078619,37.958194 17.914599,37.958194 C 18.210576,37.958195 18.647329,37.744687 18.888144,37.503873 C 19.433712,36.958304 20.54317,37.352604 20.54317,38.088 C 20.543171,38.388758 20.189507,38.723197 19.764334,38.834384 C 19.451938,38.916078 19.228771,39.052652 19.115304,39.256253 L 30.927646,39.256253 C 30.843851,39.173105 30.784192,39.065309 30.732937,38.931738 C 30.412188,38.095884 30.688994,37.096467 31.381966,36.660134 C 31.721089,36.446607 32.472624,36.388681 33.036992,36.530328 C 34.445698,36.883892 34.421557,38.338559 33.004541,38.996641 C 32.753219,39.113359 32.560966,39.184176 32.355511,39.256253 L 41.831345,39.256253 C 42.289543,38.826694 42.946757,38.275723 43.45392,37.860839 C 44.379702,37.103506 44.536515,36.650058 44.654625,34.550788 C 44.741153,33.012796 45.002812,31.875451 45.401009,31.435445 C 45.746751,31.053403 46.046839,30.23918 46.050039,29.618162 C 46.05324,28.997142 46.29537,27.775033 46.601714,26.924688 C 46.781508,26.425624 46.950414,25.779132 47.056035,25.172308 L 47.056035,23.095413 C 46.320246,20.188725 42.758188,14.280741 40.046513,11.672489 C 39.272958,10.928437 38.112833,9.3103178 37.450394,8.0703742 C 36.128602,5.5962587 33.414096,3.238835 29.532232,1.1906589 C 27.991717,0.37784345 27.364106,0.12074916 26.027471,0.11975983 z"
       id="rect2431" />
    <path
       style="fill:#a26d49"
       d="M 31.154806,48.667185 L 31.25216,45.616745 C 31.319856,42.943812 31.433731,42.379405 32.355511,41.170891 C 32.936096,40.409702 33.589089,39.775477 33.783376,39.775477 C 33.977666,39.775477 34.320199,40.134558 34.562212,40.586764 L 35.860272,40.71657 C 36.300381,40.390283 37.496067,40.164895 38.748454,40.164895 C 40.35565,40.164893 41.076928,39.96328 41.669088,39.386059 C 42.101735,38.964324 42.962363,38.245243 43.551274,37.763485 C 44.477056,37.006151 44.633869,36.552704 44.751979,34.453433 C 44.838508,32.915441 45.100166,31.778096 45.498363,31.33809 C 45.844105,30.956048 46.144194,30.141826 46.147393,29.520807 C 46.150595,28.899787 46.392724,27.677679 46.699068,26.827334 C 47.005416,25.976987 47.274904,24.683203 47.283195,23.939151 C 47.308976,21.626447 43.194222,14.509149 40.143868,11.575135 C 39.370313,10.831083 38.210187,9.2129634 37.547749,7.9730198 C 36.225957,5.4989049 33.511451,3.1414805 29.629586,1.0933045 C 27.575568,0.0095505319 27.171811,-0.083075982 24.502251,0.087308345 C 20.28726,0.35632868 17.167558,1.1716998 14.66945,2.6834273 C 13.459628,3.4155495 11.393721,5.2132934 10.093791,6.6749603 C 8.7938598,8.1366273 6.883599,10.214363 5.8426456,11.283071 C 4.801691,12.351779 3.4858514,13.949279 2.9220118,14.820283 C 1.5244026,16.979272 0.5209808,19.615073 0.52060177,21.180775 C 0.52007227,23.369297 1.7854548,26.292902 3.3763326,27.83333 C 4.2849658,28.713147 4.6718874,29.361905 4.4147802,29.520807 C 4.1840777,29.663389 4.0253624,30.208052 4.0253624,30.721512 C 4.0253622,31.367873 4.3583323,31.831572 5.1611644,32.246732 C 5.7989226,32.576532 6.329418,33.081659 6.329418,33.382534 C 6.3294182,33.683408 6.526696,34.055016 6.7512873,34.193821 C 7.5444444,34.68402 11.545858,35.0527 12.008428,34.680594 C 12.260275,34.478001 13.031919,34.385781 13.728357,34.453433 C 14.649937,34.542954 15.036963,34.783744 15.188674,35.394526 C 15.420241,36.326811 17.175973,37.860839 18.011954,37.860839 C 18.307931,37.86084 18.744683,37.647332 18.985498,37.406519 C 19.531066,36.860948 20.640524,37.25525 20.640524,37.990645 C 20.640523,38.291404 20.286861,38.625843 19.861688,38.737029 C 18.820368,39.009341 18.872305,39.996955 20.023946,41.3656 C 20.546952,41.987161 21.113351,43.130558 21.257102,43.896816 C 21.459076,44.973423 21.356458,45.375664 20.867684,45.649196 C 20.472629,45.870278 20.251106,46.503714 20.251106,47.336674 L 20.251106,48.667185 L 25.313538,48.407573 C 25.67429,48.046821 25.76786,48.046823 25.767859,48.407573 C 25.767859,49.019612 27.775116,49.024332 28.428881,48.407573 C 28.838593,48.021052 29.00109,48.021052 29.142814,48.407573 L 31.154806,48.667185 z M 24.956572,1.060853 C 26.082944,1.0085821 26.959367,1.164648 27.877206,1.5151738 C 28.7989,1.8671717 29.663743,2.414507 29.791843,2.7483303 C 29.98144,3.2424108 29.8179,3.3132887 28.948105,3.1052967 C 28.36043,2.9647677 27.086783,2.7415194 26.092374,2.6185244 L 24.275091,2.3913639 L 24.145285,3.7218749 C 24.037262,4.8513683 23.877855,5.0470767 22.814774,5.2146433 C 21.408532,5.4363005 19.762307,7.2322059 20.1213,8.1677287 C 20.295166,8.6208177 20.685059,8.722301 21.614069,8.5571463 C 22.420008,8.4138712 23.143128,8.5167912 23.626061,8.8816612 C 24.038719,9.1934364 24.776278,9.465788 25.281087,9.465788 C 26.366831,9.465788 27.767915,10.126694 28.201721,10.861202 C 28.371724,11.149046 28.926523,11.380426 29.434877,11.380426 C 29.943234,11.380426 30.451151,11.543991 30.570679,11.737392 C 30.942826,12.339538 30.346259,13.358088 29.402426,13.716933 C 28.874298,13.917727 28.380662,14.514992 28.234172,15.144798 C 28.096444,15.736929 27.731454,16.422889 27.422885,16.670018 C 26.989015,17.017497 26.612182,16.959886 25.767859,16.475309 C 24.852143,15.949761 24.600333,15.946434 24.080382,16.377955 C 22.921519,17.339725 23.573317,19.103881 25.086378,19.10388 C 25.471918,19.10388 26.087664,19.312064 26.481792,19.558201 C 27.605934,20.260239 28.418227,19.690673 28.688493,18.000529 C 28.972506,16.22441 31.076717,13.716933 32.258156,13.716933 C 32.681774,13.716933 33.226668,13.98218 33.491313,14.30106 C 33.755959,14.619939 34.195667,14.852735 34.464858,14.852735 C 34.734048,14.852735 35.077134,15.435929 35.211242,16.150794 C 35.469782,17.528933 36.963623,19.361486 36.963622,18.292592 C 36.963622,17.983282 36.798353,17.543198 36.574204,17.319048 C 36.350055,17.094899 36.107161,16.365186 36.022529,15.696474 C 35.911663,14.820455 36.007445,14.495768 36.411947,14.495768 C 36.720727,14.495768 36.963623,14.719525 36.963622,15.014992 C 36.963622,15.310461 37.759364,15.928282 38.716002,16.377955 C 40.570718,17.249774 40.947074,18.23286 39.819353,19.168783 C 39.349468,19.558753 39.258046,20.056527 39.429935,21.310581 C 39.583075,22.427849 39.532645,22.998057 39.235226,22.998058 C 38.680102,22.998058 36.680297,25.198111 36.379495,26.145852 C 36.088467,27.062803 35.616547,27.030254 34.95163,26.080949 C 34.659303,25.663593 33.946123,24.990063 33.393959,24.55573 L 32.387962,23.744442 L 31.25216,24.717987 C 30.314276,25.507164 29.913085,25.62742 29.142814,25.334565 C 28.109781,24.941806 27.51276,23.915367 28.104366,23.549733 C 28.307668,23.424086 28.461331,23.063926 28.461332,22.738446 C 28.461332,22.271692 28.092128,22.180453 26.644049,22.284125 C 24.987363,22.402734 24.77596,22.322487 24.664508,21.537741 C 24.596576,21.059422 24.486401,20.66155 24.404897,20.661551 C 24.232978,20.661551 22.183455,21.523455 21.938584,21.699999 C 21.84781,21.765444 22.063715,22.052138 22.425356,22.316577 C 22.923503,22.680831 23.009897,23.093337 22.814774,24.068957 C 22.673119,24.777231 22.305697,25.47821 22.003487,25.594177 C 21.363029,25.839944 20.182897,24.328892 20.1213,23.192767 C 20.09825,22.767594 20.054042,21.839229 20.023946,21.148323 C 19.990057,20.370341 19.767077,19.882715 19.439819,19.882715 C 19.14919,19.882715 18.450546,20.581481 17.882148,21.440387 C 17.313749,22.299295 16.425389,23.188714 15.902607,23.387476 C 15.247636,23.636495 14.929062,24.028813 14.929062,24.685535 C 14.929062,25.209717 14.81494,25.743816 14.636999,25.853789 C 14.09623,26.188002 12.625007,24.934791 12.625007,24.13386 C 12.625007,23.720742 12.524469,23.355025 12.397846,23.355025 C 12.271224,23.355025 11.681904,23.719356 11.099787,24.13386 C 10.45689,24.591643 9.7261638,24.786076 9.2176003,24.653084 C 8.7571163,24.532665 8.3360894,24.333409 8.3089587,24.198763 C 7.5105843,20.236587 7.4969034,19.493298 8.1142498,19.493298 C 8.4409576,19.493298 9.0690619,19.97161 9.5096637,20.531745 L 10.320951,21.537741 L 10.320951,20.369488 C 10.320951,19.050534 11.108437,18.209707 12.138234,18.422398 C 12.660085,18.530181 12.796024,18.885812 12.722361,19.817812 C 12.617187,21.148501 13.004097,21.411077 13.760809,20.499294 C 14.122364,20.063646 14.139887,19.602494 13.79326,18.552204 C 13.546087,17.803262 13.462216,16.839962 13.598551,16.410406 C 13.923788,15.385677 13.046576,15.058689 11.16469,15.501765 C 10.084079,15.756186 9.699727,16.091244 9.6070186,16.734921 C 9.5383996,17.211343 9.0588044,17.885213 8.5361191,18.22769 C 7.8186031,18.697824 7.2782601,18.75012 6.3618694,18.487301 C 5.6943113,18.295848 5.0977053,17.982775 5.0313585,17.773369 C 4.7653857,16.933889 5.690817,16.227266 7.1082536,16.215697 L 8.5685706,16.215697 L 8.7632795,14.203705 C 8.8810611,13.032171 9.253353,11.896347 9.6394701,11.510232 C 10.272028,10.877673 10.330391,10.88328 10.775272,12.061907 C 11.318307,13.500571 12.473612,13.840278 12.105783,12.451325 C 11.869701,11.559859 12.677453,8.8856353 13.760809,7.0643781 C 14.095329,6.5020068 15.279507,5.2389695 16.389379,4.2410987 C 17.871833,2.9082458 19.006756,2.2682564 20.640524,1.8396887 C 22.461261,1.3620754 23.8302,1.1131238 24.956572,1.060853 z M 32.095899,16.442858 C 32.003646,16.424992 31.89963,16.444361 31.738933,16.475309 C 31.228596,16.573591 30.910944,17.081114 30.732937,18.162787 C 30.593375,19.010843 30.66579,19.997462 30.862743,20.369488 C 31.364383,21.317037 31.961024,21.210695 31.966093,20.174779 C 31.968433,19.696459 32.057977,18.65709 32.193254,17.838272 C 32.356247,16.851687 32.372656,16.496453 32.095899,16.442858 z M 36.574204,20.694003 C 36.43681,20.694003 36.315391,20.790558 36.152335,20.953614 C 35.911521,21.194428 35.829777,21.658895 35.957626,21.992062 C 36.085475,22.325231 36.348273,22.608641 36.574204,22.60864 C 37.200304,22.60864 37.523285,21.448373 37.028525,20.953614 C 36.86547,20.790558 36.711598,20.694003 36.574204,20.694003 z M 16.746346,26.470367 C 17.354087,26.470367 17.656743,26.656196 17.557633,26.95714 C 17.379429,27.498251 16.017306,27.78577 15.610544,27.379009 C 15.152493,26.920957 15.734235,26.470366 16.746346,26.470367 z M 31.187257,27.249203 C 31.399843,27.249203 31.576675,27.393584 31.576675,27.606169 C 31.576675,27.818755 31.399842,27.995586 31.187257,27.995587 C 30.974672,27.995587 30.797841,27.818756 30.79784,27.606169 C 30.79784,27.393583 30.974671,27.249203 31.187257,27.249203 z M 35.698014,27.508815 C 35.901499,27.506948 36.182354,27.57582 36.606656,27.735975 C 37.645868,28.128234 38.157928,28.76154 37.450394,28.774423 C 37.290954,28.777325 36.796047,28.881064 36.347044,29.001583 C 35.5177,29.224189 35.007877,28.627026 35.308596,27.768427 C 35.366237,27.603848 35.494529,27.510682 35.698014,27.508815 z M 21.64652,27.995587 C 21.794681,27.995587 21.651803,28.526082 21.322005,29.163841 C 20.700758,30.365199 19.959044,30.72047 19.959043,29.81287 C 19.959043,29.285478 21.153183,27.995586 21.64652,27.995587 z M 32.225705,36.368071 C 32.523447,36.344382 32.852162,36.36215 33.134347,36.432974 C 34.543053,36.786537 34.518912,38.241205 33.101895,38.899287 C 31.741234,39.531197 31.092977,39.518931 30.830291,38.834384 C 30.509543,37.998529 30.786348,36.999113 31.479321,36.56278 C 31.648882,36.456016 31.927963,36.39176 32.225705,36.368071 z"
       id="path2420"
       sodipodi:nodetypes="ccssccssssssssssssssssssssssssssssssssscccsscccssscccssssssssssssssssssssssssssssssscccssssssssssssssssssssssscccsssssssssscccssssssccsssssccssssccssccsssccssssccssccssssc" />
    <path
       style="fill:url(#radialGradient3272);fill-opacity:1"
       d="M 31.154806,48.667185 L 31.25216,45.616745 C 31.319856,42.943812 31.433731,42.379405 32.355511,41.170891 C 32.936096,40.409702 33.589089,39.775477 33.783376,39.775477 C 33.977666,39.775477 34.320199,40.134558 34.562212,40.586764 L 35.860272,40.71657 C 36.300381,40.390283 37.496067,40.164895 38.748454,40.164895 C 40.35565,40.164893 41.076928,39.96328 41.669088,39.386059 C 42.101735,38.964324 42.962363,38.245243 43.551274,37.763485 C 44.477056,37.006151 44.633869,36.552704 44.751979,34.453433 C 44.838508,32.915441 45.100166,31.778096 45.498363,31.33809 C 45.844105,30.956048 46.144194,30.141826 46.147393,29.520807 C 46.150595,28.899787 46.392724,27.677679 46.699068,26.827334 C 47.005416,25.976987 47.274904,24.683203 47.283195,23.939151 C 47.308976,21.626447 43.194222,14.509149 40.143868,11.575135 C 39.370313,10.831083 38.210187,9.2129634 37.547749,7.9730198 C 36.225957,5.4989049 33.511451,3.1414805 29.629586,1.0933045 C 27.575568,0.0095505322 27.171811,-0.083075985 24.502251,0.087308345 C 20.28726,0.35632868 17.167558,1.1716998 14.66945,2.6834273 C 13.459628,3.4155495 11.393721,5.2132934 10.093791,6.6749603 C 8.7938598,8.1366273 6.883599,10.214363 5.8426456,11.283071 C 4.801691,12.351779 3.4858514,13.949279 2.9220118,14.820283 C 1.5244026,16.979272 0.5209808,19.615073 0.52060177,21.180775 C 0.52007227,23.369297 1.7854548,26.292902 3.3763326,27.83333 C 4.2849658,28.713147 4.6718874,29.361905 4.4147802,29.520807 C 4.1840777,29.663389 4.0253624,30.208052 4.0253624,30.721512 C 4.0253622,31.367873 4.3583323,31.831572 5.1611644,32.246732 C 5.7989226,32.576532 6.329418,33.081659 6.329418,33.382534 C 6.3294182,33.683408 6.526696,34.055016 6.7512873,34.193821 C 7.5444444,34.68402 11.545858,35.0527 12.008428,34.680594 C 12.260275,34.478001 13.031919,34.385781 13.728357,34.453433 C 14.649937,34.542954 15.036963,34.783744 15.188674,35.394526 C 15.420241,36.326811 17.175973,37.860839 18.011954,37.860839 C 18.307931,37.86084 18.744683,37.647332 18.985498,37.406519 C 19.531066,36.860948 20.640524,37.25525 20.640524,37.990645 C 20.640523,38.291404 20.286861,38.625843 19.861688,38.737029 C 18.820368,39.009341 18.872305,39.996955 20.023946,41.3656 C 20.546952,41.987161 21.113351,43.130558 21.257102,43.896816 C 21.459076,44.973423 21.356458,45.375664 20.867684,45.649196 C 20.472629,45.870278 20.251106,46.503714 20.251106,47.336674 L 20.251106,48.667185 L 25.313538,48.407573 C 25.67429,48.046821 25.76786,48.046823 25.767859,48.407573 C 25.767859,49.009787 27.794214,49.009789 28.39643,48.407573 C 28.757182,48.046821 28.85075,48.046823 28.85075,48.407573 L 31.154806,48.667185 z M 25.313538,1.0284015 C 27.168907,1.074451 29.470448,1.9107884 29.791843,2.7483303 C 29.98144,3.2424108 29.8179,3.3132887 28.948105,3.1052967 C 28.36043,2.9647677 27.069706,2.742997 26.059922,2.6185244 C 24.360483,2.4090405 24.210188,2.452915 24.210188,3.2351026 C 24.210188,3.6998683 24.077564,4.013085 23.918124,3.9165838 C 23.758684,3.8200825 22.648277,3.8846174 21.41936,4.0788413 C 19.90066,4.3188638 18.935503,4.2997969 18.401371,4.0139383 C 17.817393,3.7014025 17.425349,3.7173081 16.941054,4.0788413 C 16.582618,4.3464192 16.751375,4.1092212 17.298021,3.527166 C 18.311894,2.4476223 21.200948,1.4524011 24.534703,1.060853 C 24.773589,1.0327958 25.048486,1.021823 25.313538,1.0284015 z M 12.949522,9.2061761 C 13.005209,9.1807497 12.964226,9.4543806 12.884619,9.9850118 C 12.661239,11.473971 13.423816,13.327515 14.247581,13.327515 C 14.613601,13.327515 14.992386,13.150683 15.123771,12.938097 C 15.255158,12.72551 15.869002,12.548679 16.486734,12.548679 C 17.214298,12.548679 17.776403,12.826749 18.044405,13.327515 C 18.271951,13.752688 18.786357,14.106351 19.212659,14.106351 C 20.138924,14.106351 22.295551,12.582659 22.29555,11.932101 C 22.29555,11.070156 23.491774,10.480174 25.118829,10.536687 C 26.34388,10.579236 26.951666,10.8462 27.617594,11.607586 C 28.103208,12.162812 28.987366,12.772623 29.564683,12.938097 L 30.603131,13.23016 L 29.532232,13.65203 C 28.91977,13.897409 28.376955,14.478545 28.234172,15.047444 C 28.099264,15.584959 27.821811,15.920041 27.617594,15.793828 C 27.413376,15.667614 27.177212,15.919911 27.065919,16.345503 C 26.873825,17.080069 26.797178,17.066056 25.767859,16.475309 C 24.858644,15.953491 24.600211,15.946536 24.080382,16.377955 C 22.910954,17.348494 23.550568,19.103881 25.086378,19.10388 C 25.485816,19.10388 26.596053,19.899623 27.552691,20.85626 C 29.332342,22.635911 30.370917,22.994843 31.122354,22.089417 C 31.433358,21.71468 31.404564,21.43315 31.057451,21.08342 C 30.682266,20.705405 30.74916,20.684862 31.284612,20.888711 C 31.809795,21.088652 31.96279,20.914573 31.966093,20.20723 C 31.968433,19.706167 32.056406,18.634322 32.193254,17.80582 C 32.441412,16.303423 32.469298,16.31401 31.349515,16.572664 L 30.213713,16.832276 L 31.641578,15.469313 C 32.92084,14.261934 33.135621,14.180228 34.010537,14.593123 C 34.634221,14.887454 35.065911,15.473468 35.211242,16.248149 C 35.457217,17.559309 36.963623,19.31973 36.963622,18.292592 C 36.963622,17.983282 36.798353,17.543198 36.574204,17.319048 C 36.350055,17.094899 36.107161,16.365186 36.022529,15.696474 C 35.911663,14.820455 36.007445,14.495768 36.411947,14.495768 C 36.720727,14.495768 36.963623,14.719525 36.963622,15.014992 C 36.963622,15.310461 37.759364,15.928282 38.716002,16.377955 C 40.570718,17.249774 40.947074,18.23286 39.819353,19.168783 C 39.349468,19.558753 39.258046,20.056527 39.429935,21.310581 C 39.583075,22.427849 39.532645,22.998057 39.235226,22.998058 C 38.680102,22.998058 36.680297,25.198111 36.379495,26.145852 C 36.088467,27.062803 35.616547,27.030254 34.95163,26.080949 C 34.659303,25.663593 33.946123,24.990063 33.393959,24.55573 L 32.387962,23.744442 L 31.25216,24.717987 C 30.314276,25.507164 29.913085,25.62742 29.142814,25.334565 C 28.109781,24.941806 27.51276,23.915367 28.104366,23.549733 C 28.307668,23.424086 28.461331,23.063926 28.461332,22.738446 C 28.461332,22.271692 28.092128,22.180453 26.644049,22.284125 C 24.987363,22.402734 24.77596,22.322487 24.664508,21.537741 C 24.596576,21.059422 24.486401,20.66155 24.404897,20.661551 C 24.232978,20.661551 22.183455,21.523455 21.938584,21.699999 C 21.84781,21.765444 22.063715,22.052138 22.425356,22.316577 C 22.923503,22.680831 23.009897,23.093337 22.814774,24.068957 C 22.673119,24.777231 22.305697,25.47821 22.003487,25.594177 C 21.363029,25.839944 20.182897,24.328892 20.1213,23.192767 C 20.09825,22.767594 20.054042,21.839229 20.023946,21.148323 C 19.990057,20.370341 19.767077,19.882715 19.439819,19.882715 C 19.14919,19.882715 18.450546,20.581481 17.882148,21.440387 C 17.313749,22.299295 16.425389,23.188714 15.902607,23.387476 C 15.247636,23.636495 14.929062,24.028813 14.929062,24.685535 C 14.929062,25.209717 14.81494,25.743816 14.636999,25.853789 C 14.09623,26.188002 12.625007,24.934791 12.625007,24.13386 C 12.625007,23.720742 12.524469,23.355025 12.397846,23.355025 C 12.271224,23.355025 11.681904,23.719356 11.099787,24.13386 C 10.45689,24.591643 9.7261638,24.786076 9.2176003,24.653084 C 8.7571163,24.532665 8.3360894,24.333409 8.3089587,24.198763 C 7.5105843,20.236587 7.4969034,19.493298 8.1142498,19.493298 C 8.4409576,19.493298 9.0690619,19.97161 9.5096637,20.531745 L 10.320951,21.537741 L 10.320951,20.369488 C 10.320951,19.050534 11.108437,18.209707 12.138234,18.422398 C 12.660085,18.530181 12.796024,18.885812 12.722361,19.817812 C 12.617187,21.148501 13.004097,21.411077 13.760809,20.499294 C 14.122364,20.063646 14.139887,19.602494 13.79326,18.552204 C 13.546087,17.803262 13.462216,16.839962 13.598551,16.410406 C 13.923788,15.385677 13.046576,15.058689 11.16469,15.501765 C 10.084079,15.756186 9.699727,16.091244 9.6070186,16.734921 C 9.5383996,17.211343 9.0588044,17.885213 8.5361191,18.22769 C 7.8186031,18.697824 7.2782601,18.75012 6.3618694,18.487301 C 5.6943113,18.295848 5.0977053,17.982775 5.0313585,17.773369 C 4.7653857,16.933889 5.690817,16.227266 7.1082536,16.215697 L 8.5685706,16.215697 L 8.7632795,14.203705 C 8.8810611,13.032171 9.253353,11.896347 9.6394701,11.510232 C 10.272028,10.877673 10.330391,10.88328 10.775272,12.061907 C 11.334104,13.542422 12.465287,13.8188 12.105783,12.386422 C 11.976981,11.873235 12.133123,10.896183 12.462749,10.179721 C 12.750631,9.5539947 12.893834,9.2316025 12.949522,9.2061761 z M 36.574204,20.694003 C 36.43681,20.694003 36.315391,20.790558 36.152335,20.953614 C 35.911521,21.194428 35.829777,21.658895 35.957626,21.992062 C 36.085475,22.325231 36.348273,22.608641 36.574204,22.60864 C 37.200304,22.60864 37.523285,21.448373 37.028525,20.953614 C 36.86547,20.790558 36.711598,20.694003 36.574204,20.694003 z M 16.746346,26.470367 C 17.354087,26.470367 17.656743,26.656196 17.557633,26.95714 C 17.379429,27.498251 16.017306,27.78577 15.610544,27.379009 C 15.152493,26.920957 15.734235,26.470366 16.746346,26.470367 z M 31.187257,27.249203 C 31.399843,27.249203 31.576675,27.393584 31.576675,27.606169 C 31.576675,27.818755 31.399842,27.995586 31.187257,27.995587 C 30.974672,27.995587 30.797841,27.818756 30.79784,27.606169 C 30.79784,27.393583 30.974671,27.249203 31.187257,27.249203 z M 35.698014,27.508815 C 35.901499,27.506948 36.182354,27.57582 36.606656,27.735975 C 37.645868,28.128234 38.157928,28.76154 37.450394,28.774423 C 37.290954,28.777325 36.796047,28.881064 36.347044,29.001583 C 35.5177,29.224189 35.007877,28.627026 35.308596,27.768427 C 35.366237,27.603848 35.494529,27.510682 35.698014,27.508815 z M 21.64652,27.995587 C 21.794681,27.995587 21.651803,28.526082 21.322005,29.163841 C 20.700758,30.365199 19.959044,30.72047 19.959043,29.81287 C 19.959043,29.285478 21.153183,27.995586 21.64652,27.995587 z M 32.225705,36.368071 C 32.523447,36.344382 32.852162,36.36215 33.134347,36.432974 C 34.543053,36.786537 34.518912,38.241205 33.101895,38.899287 C 31.741234,39.531197 31.092977,39.518931 30.830291,38.834384 C 30.509543,37.998529 30.786348,36.999113 31.479321,36.56278 C 31.648882,36.456016 31.927963,36.39176 32.225705,36.368071 z"
       id="path2422"
       sodipodi:nodetypes="ccssccssssssssssssssssssssssssssssssssscccsscccssssssssssccssssssssscccsssssssssssscccssssssssssssscccssssssssssssssssssssssscccsssssssssscccssssccssssccssccsssccssssccssccssssc" />
    <path
       style="fill:#985b3a"
       d="M 26.124825,0.21711429 C 25.67928,0.21678459 25.169642,0.23942119 24.502251,0.28201727 C 20.28726,0.5510375 17.167558,1.3664087 14.66945,2.8781363 C 13.459628,3.6102585 11.393721,5.4080023 10.093791,6.8696692 C 8.7938598,8.3313359 6.883599,10.409072 5.8426456,11.47778 C 4.801691,12.546488 3.4858514,14.143988 2.9220118,15.014992 C 1.5244026,17.173981 0.5209808,19.809782 0.52060177,21.375484 C 0.52007227,23.564006 1.7854548,26.487611 3.3763326,28.028039 C 4.2849658,28.907857 4.6718874,29.556614 4.4147802,29.715516 C 4.1840777,29.858099 4.0253624,30.402761 4.0253624,30.916221 C 4.0253622,31.562582 4.3583323,32.026281 5.1611644,32.441441 C 5.7989226,32.771238 6.329418,33.276368 6.329418,33.577243 C 6.3294182,33.878117 6.526696,34.249725 6.7512873,34.38853 C 7.5444444,34.87873 11.545858,35.247409 12.008428,34.875302 C 12.260275,34.67271 13.031919,34.58049 13.728357,34.648142 C 14.649937,34.737662 15.036963,34.978453 15.188674,35.589235 C 15.420241,36.52152 17.175973,38.055548 18.011954,38.055548 C 18.307931,38.055549 18.744683,37.842041 18.985498,37.601227 C 19.531066,37.055658 20.640524,37.449959 20.640524,38.185354 C 20.640523,38.486113 20.286861,38.820552 19.861688,38.931738 C 18.820368,39.204051 18.872305,40.191664 20.023946,41.560309 C 20.546952,42.181871 21.113351,43.325267 21.257102,44.091525 C 21.459076,45.168133 21.356458,45.570373 20.867684,45.843905 C 20.472629,46.064988 20.251106,46.698423 20.251106,47.531383 L 20.251106,48.861894 L 24.567154,48.894345 L 25.053926,48.018155 L 25.508247,47.141965 L 25.897665,48.018155 C 26.318058,48.960291 27.640853,49.163149 28.39643,48.407573 C 28.757182,48.046821 28.97677,48.046823 29.337523,48.407573 C 29.473116,48.543166 30.125666,48.626498 31.154806,48.699636 L 31.25216,45.811454 C 31.319856,43.138522 31.433731,42.574114 32.355511,41.3656 C 32.936096,40.604411 33.589089,39.970186 33.783376,39.970186 C 33.977666,39.970186 34.320199,40.361718 34.562212,40.813925 L 35.860272,40.911279 C 36.300381,40.584992 37.496067,40.359604 38.748454,40.359604 C 40.35565,40.359603 41.076928,40.190441 41.669088,39.61322 C 42.101735,39.191484 42.962363,38.439951 43.551274,37.958194 C 44.477056,37.20086 44.633869,36.747413 44.751979,34.648142 C 44.838508,33.11015 45.100166,31.972805 45.498363,31.532799 C 45.844105,31.150758 46.144194,30.336535 46.147393,29.715516 C 46.150595,29.094496 46.392724,27.872388 46.699068,27.022043 C 47.005416,26.171697 47.274904,24.877912 47.283195,24.13386 C 47.308976,21.821156 43.194222,14.703858 40.143868,11.769844 C 39.370313,11.025792 38.210187,9.4076723 37.547749,8.1677287 C 36.225957,5.6936136 33.511451,3.3361895 29.629586,1.2880134 C 28.089072,0.47519791 27.46146,0.21810362 26.124825,0.21711429 z M 24.632057,0.60653214 C 25.799688,0.53075517 26.820863,0.81787378 28.136818,1.4502708 C 29.926282,2.3102178 34.532053,6.2183454 34.172794,6.5776058 C 33.887453,6.8629475 32.328872,6.1038121 30.603131,4.8252255 C 28.843212,3.5213175 26.504754,2.6629054 25.605602,3.0079422 C 25.270764,3.1364317 24.989024,3.5644927 24.989023,3.9490353 C 24.989023,4.3335779 24.736441,5.0333612 24.404897,5.5067067 C 23.963044,6.1375389 23.546536,6.2906563 22.879677,6.123285 C 22.246418,5.9643475 21.709494,6.1576648 21.127296,6.7398632 C 20.048484,7.8186745 20.352999,8.8094444 21.614069,8.3299861 C 22.22317,8.0984063 22.820797,8.1686412 23.463803,8.5246948 C 23.986263,8.813997 24.739977,9.0363857 25.118829,9.0439186 C 25.497683,9.0514515 26.437805,9.363368 27.228176,9.7253999 C 28.018547,10.087432 29.193879,10.485303 29.824295,10.60159 C 30.698239,10.762798 31.052738,11.10484 31.317063,12.029455 C 31.603434,13.031184 31.907995,13.265237 33.069444,13.457321 C 33.842755,13.585213 35.022538,13.714593 35.698014,13.716933 C 36.525444,13.719799 37.160816,14.009904 37.645103,14.625574 C 38.040451,15.12818 38.932502,15.825324 39.624644,16.183246 C 40.31679,16.541168 41.047577,17.280723 41.247218,17.80582 C 41.44686,18.330915 41.989511,18.8848 42.480375,19.071428 C 42.971244,19.258056 43.578441,19.65974 43.810886,19.947618 C 44.620515,20.950313 44.780736,22.861727 44.167852,24.328569 C 43.542798,25.824533 42.772438,25.859279 42.772438,24.393472 C 42.772438,23.563941 42.121359,22.608641 41.571733,22.60864 C 41.428238,22.60864 41.212514,23.106683 41.084961,23.744442 C 40.83385,24.999987 39.927653,25.306994 39.52729,24.263666 C 39.320591,23.725016 39.053776,23.858686 37.937167,25.042502 C 37.200454,25.823557 36.574203,26.629567 36.574204,26.827334 C 36.574204,27.025101 36.927867,27.308968 37.35304,27.443912 C 38.88314,27.929546 37.959032,29.553259 36.152335,29.553259 C 35.435589,29.553259 35.020774,29.299008 34.854275,28.774423 C 34.719331,28.34925 34.347542,27.995586 34.042988,27.995587 C 33.367807,27.995587 33.322243,28.475545 33.945634,29.098938 C 34.293213,29.446517 34.308759,29.676904 33.978085,30.007579 C 33.647411,30.338253 33.195292,30.288369 32.193254,29.81287 C 31.457812,29.463881 30.692144,29.163841 30.473325,29.163841 C 30.254505,29.163841 30.022248,28.765971 29.954101,28.287651 C 29.85676,27.60443 29.588133,27.451646 28.753396,27.508815 C 27.784535,27.575166 27.714947,27.466061 27.714948,26.243207 C 27.714948,25.362249 27.478204,24.811294 27.065919,24.653084 C 26.68822,24.508147 26.307742,24.657663 26.092374,25.042502 C 25.611457,25.901854 25.137465,25.852621 24.891669,24.912696 C 24.780484,24.487523 24.432049,24.13386 24.145285,24.13386 C 23.599148,24.13386 22.608356,26.496253 22.620065,27.768427 C 22.623813,28.175617 22.270316,29.015567 21.841229,29.618162 C 21.03862,30.745323 20.21947,30.968652 19.212659,30.332094 C 18.735061,30.030132 18.844753,29.760789 19.926591,28.644617 L 21.224651,27.281654 L 20.251106,25.594177 L 19.24511,23.9067 L 17.395375,24.13386 C 15.860369,24.310203 15.51319,24.470828 15.513189,25.107405 C 15.513189,25.638657 15.822669,25.924187 16.486734,26.016046 C 17.018199,26.089563 17.6544,26.321615 17.914599,26.53527 C 18.276295,26.832264 18.161528,27.25072 17.395375,28.255199 C 16.315964,29.670379 15.707898,29.926274 15.707898,28.969132 C 15.707898,28.639406 15.117265,28.110018 14.377387,27.800878 C 13.63751,27.491738 12.730401,26.761808 12.365395,26.178304 C 12.00039,25.594801 11.634394,25.017218 11.554108,24.912696 C 11.473822,24.808174 11.219645,25.043782 11.002432,25.43192 C 10.706622,25.960503 10.375155,26.077905 9.6070186,25.886241 C 8.2875502,25.557008 7.2056078,24.611631 7.2056081,23.744442 C 7.2056081,22.54456 6.7692284,21.829805 6.0049031,21.829805 C 5.5958033,21.829805 5.1961032,21.608764 5.1287129,21.343032 C 5.0613223,21.0773 4.8283279,20.294107 4.6094891,19.623103 C 4.3183306,18.730352 4.3571112,17.883764 4.7392951,16.410406 C 5.3578982,14.02563 5.9541233,13.214913 6.8810932,13.457321 C 7.3529797,13.580723 7.8752526,13.126168 8.6010221,12.029455 C 9.8479031,10.145292 11.96376,7.7810916 15.123771,4.727871 C 16.681509,3.222777 17.979457,2.3362564 19.01795,2.0668491 C 19.868294,1.8462508 21.338913,1.4316967 22.29555,1.1257559 C 23.192015,0.83905904 23.931478,0.65199829 24.632057,0.60653214 z M 11.911074,16.799824 C 11.698488,16.799824 11.39343,16.976654 11.262044,17.189242 C 11.130659,17.401828 11.211715,17.578661 11.424302,17.57866 C 11.636887,17.57866 11.909494,17.401827 12.04088,17.189242 C 12.172265,16.976655 12.123661,16.799825 11.911074,16.799824 z M 24.567154,16.799824 C 23.495253,16.799824 23.753268,18.101924 24.859217,18.260141 C 25.319926,18.32605 25.903222,18.635506 26.157277,18.941622 C 26.411332,19.247739 26.848038,19.493298 27.09837,19.493298 C 27.786755,19.493298 28.461331,18.66784 28.461332,17.838272 C 28.461332,17.206528 28.29436,17.139306 27.163273,17.351499 C 26.39614,17.495415 25.715949,17.420297 25.57315,17.189242 C 25.437733,16.970134 24.995369,16.799825 24.567154,16.799824 z M 42.739987,28.839326 C 43.029878,28.742695 43.193583,28.906403 43.096953,29.196292 C 43.003949,29.475312 42.694488,29.784767 42.415472,29.877773 C 42.125582,29.974404 41.961875,29.810696 42.058506,29.520807 C 42.15151,29.241788 42.460967,28.932331 42.739987,28.839326 z M 32.225705,36.56278 C 32.523447,36.539092 32.852162,36.556859 33.134347,36.627683 C 34.543053,36.981246 34.518912,38.435914 33.101895,39.093996 C 31.741234,39.725906 31.092977,39.71364 30.830291,39.029093 C 30.509543,38.193238 30.786348,37.226273 31.479321,36.78994 C 31.648882,36.683174 31.927963,36.586468 32.225705,36.56278 z"
       id="path2418"
       sodipodi:nodetypes="cssssssssssssssssssssssccccccssccssccsssssssssssccsssssssssssssssssssssssssssssssssssssssssssssscccccssssssssssssssssssssccsssccssssssccsssccssssc" />
    <path
       style="fill:#6a4a37"
       d="M 25.930116,0.50917768 C 25.484572,0.50884787 24.974933,0.53148457 24.307542,0.57408065 C 20.09255,0.84310089 16.972849,1.6909236 14.474741,3.2026511 C 13.264919,3.9347733 11.199013,5.7325171 9.899082,7.1941841 C 8.5991511,8.6558508 6.6888901,10.701136 5.6479367,11.769844 C 4.6069823,12.838552 3.2911425,14.436052 2.7273029,15.307056 C 1.3296936,17.466044 0.32627188,20.101845 0.32589285,21.667547 C 0.32536324,23.856068 1.5907459,26.779674 3.1816237,28.320102 C 4.0902571,29.199922 4.4771784,29.848677 4.2200713,30.007579 C 3.9893686,30.150161 3.7982019,30.694824 3.7982019,31.208284 C 3.798202,31.854644 4.1636233,32.318344 4.9664555,32.733504 C 5.6042139,33.063303 6.134709,33.568432 6.134709,33.869306 C 6.1347089,34.170181 6.3319871,34.541788 6.5565784,34.680594 C 7.3497352,35.170791 11.351149,35.539473 11.81372,35.167366 C 12.065566,34.964774 12.83721,34.872554 13.533648,34.940205 C 14.455228,35.029727 14.842254,35.270516 14.993965,35.881299 C 15.225532,36.813581 16.981264,38.347612 17.817245,38.347612 C 18.113221,38.347614 18.549974,38.134105 18.790789,37.893291 C 19.336356,37.347723 20.445815,37.742022 20.445815,38.477418 C 20.445816,38.778177 20.092152,39.112615 19.666979,39.223802 C 18.625659,39.496115 18.677596,40.516179 19.829237,41.884824 C 20.352245,42.506382 20.918642,43.61733 21.062393,44.383588 C 21.264366,45.460197 21.161749,45.862436 20.672976,46.135969 C 20.277919,46.357052 20.056397,46.990486 20.056397,47.823446 L 20.056397,48.732088 L 24.729411,48.699636 L 24.859217,47.758543 C 25.03429,46.610492 25.200401,46.421895 25.735408,46.752547 C 25.962137,46.892676 26.157276,47.401881 26.157277,47.9208 C 26.157277,48.662536 26.359175,48.894343 27.09837,48.894345 C 27.69916,48.894345 28.109851,48.609456 28.266624,48.115509 C 28.401568,47.690337 28.697492,47.336675 28.915653,47.336674 C 29.133817,47.336674 29.421047,47.690338 29.532232,48.115509 C 29.62878,48.484711 29.75196,48.663661 30.960097,48.764539 L 31.025,46.103517 C 31.092694,43.430586 31.239022,42.866177 32.160802,41.657663 C 32.741387,40.896471 33.39438,40.262249 33.588667,40.262249 C 33.782956,40.26225 34.12549,40.653782 34.367503,41.105988 L 35.665563,41.203343 C 36.105672,40.877052 37.301359,40.651667 38.553745,40.651667 C 40.16094,40.651667 40.882219,40.482504 41.474379,39.905283 C 41.907025,39.483545 42.767654,38.732015 43.356565,38.250257 C 44.282347,37.49292 44.43916,37.039476 44.55727,34.940205 C 44.643799,33.402211 44.905457,32.264869 45.303654,31.824863 C 45.649396,31.442822 45.949485,30.628598 45.952684,30.007579 C 45.955886,29.386559 46.198015,28.164451 46.504359,27.314106 C 46.810707,26.463762 47.080195,25.169975 47.088486,24.425924 C 47.114267,22.11322 42.999513,14.995921 39.949159,12.061907 C 39.175604,11.317855 38.015478,9.6997357 37.35304,8.4597921 C 36.031248,5.9856771 33.316742,3.6282528 29.434877,1.5800768 C 27.894363,0.76726129 27.266751,0.51016701 25.930116,0.50917768 z M 25.832762,0.63898363 C 26.862234,0.65388504 27.56063,0.88914295 28.720944,1.4827223 C 31.055856,2.677187 36.217239,6.9868963 36.217238,7.7458593 C 36.217238,8.6797756 32.805759,7.1372041 30.246164,5.0523859 C 28.61074,3.7203149 27.740579,3.2462006 27.001016,3.3324571 C 26.255098,3.4194551 25.889936,3.7776784 25.638053,4.6305166 C 25.449695,5.2682752 25.166874,6.031566 25.021475,6.3504454 C 24.487001,7.5226276 25.051563,8.2781102 27.09837,9.0439186 C 28.233223,9.4685212 30.507203,9.9354612 32.128351,10.082366 C 35.041134,10.346316 35.084113,10.362423 36.152335,11.932101 C 36.962247,13.122211 37.463375,13.500694 38.131876,13.424869 C 39.197451,13.304007 40.078965,13.951247 40.078965,14.852735 C 40.078965,15.211332 41.004041,16.292183 42.15586,17.286596 C 45.371033,20.062373 45.827588,22.59433 43.713531,25.788886 C 43.028892,26.823448 42.481709,27.249203 41.798894,27.249203 C 41.078111,27.249203 40.857801,27.019201 40.857801,26.405464 C 40.857801,25.753076 40.659067,25.644178 39.98161,25.821338 C 39.514354,25.943528 38.885998,25.842987 38.586197,25.594177 C 38.15772,25.23857 37.928439,25.288789 37.515297,25.853789 C 36.858888,26.751481 37.186877,27.332273 38.164327,27.022043 C 39.161338,26.705603 39.128203,27.628799 38.099424,28.93668 C 37.489973,29.711472 36.956337,29.942677 35.860272,29.942676 C 35.067874,29.942676 34.221361,30.153719 33.978085,30.396997 C 33.646004,30.729077 33.21741,30.693462 32.258156,30.332094 C 29.673692,29.358485 29.183693,29.032443 29.369974,28.320102 C 29.575346,27.534762 29.23166,27.419968 28.591138,28.06049 C 27.878971,28.772656 27.325531,28.053932 27.32553,26.437916 C 27.32553,25.600117 27.192907,24.911038 27.033467,24.912696 C 26.646315,24.916723 25.76786,26.825442 25.767859,27.671072 C 25.767859,28.543758 25.097882,28.939111 23.788318,28.839326 C 22.979982,28.777732 22.57564,29.05395 22.035938,29.975128 C 21.415526,31.034068 21.16146,31.136232 19.991494,30.948673 C 18.004837,30.63019 17.871588,29.972301 19.504722,28.547262 C 20.581439,27.607743 20.812266,27.203826 20.478267,26.859785 C 20.150427,26.52209 19.838916,26.50954 19.24511,26.827334 C 18.359432,27.301335 16.34218,30.069318 15.935058,31.370542 C 15.654583,32.266989 14.707139,32.812731 14.377387,32.279184 C 14.266626,32.099968 14.450266,31.730599 14.766805,31.467896 C 15.484044,30.872641 15.495065,29.027377 14.799256,28.449908 C 14.513263,28.212554 13.768833,27.899837 13.111779,27.768427 C 12.454725,27.637015 11.797125,27.284614 11.683914,26.989591 C 11.570703,26.694567 11.101153,26.470366 10.613014,26.470367 C 9.7782274,26.470367 7.0690822,25.218464 6.2969665,24.490827 C 6.0887637,24.294618 6.1414727,23.92595 6.4267724,23.582185 C 7.0418976,22.841004 6.715727,22.349525 5.4207763,22.024514 C 4.8549267,21.882494 3.8704072,21.232064 3.2465267,20.564197 L 2.1107246,19.363492 L 3.1167207,18.617107 C 3.8275765,18.099285 4.1216897,17.540132 4.1227168,16.670018 C 4.1244577,15.195188 5.2423363,13.268911 6.6539328,12.289067 C 7.2225735,11.894351 7.9519875,11.304691 8.2765072,10.958556 C 13.076416,5.8389482 16.148985,2.9885984 17.460278,2.4562669 C 19.875517,1.4757786 22.299651,0.86614819 24.664508,0.67143512 C 25.110069,0.63474936 25.489605,0.63401653 25.832762,0.63898363 z M 34.237697,12.159261 C 33.825071,12.159261 33.491314,12.336092 33.491313,12.548679 C 33.491313,12.761265 33.953298,12.938097 34.497309,12.938097 C 35.058292,12.938097 35.379176,12.767898 35.243693,12.548679 C 35.112308,12.336092 34.650323,12.159261 34.237697,12.159261 z M 24.632057,16.832276 C 24.518713,16.816432 24.424614,16.84501 24.339994,16.92963 C 24.221581,17.048043 24.21411,17.412869 24.339994,17.740917 C 24.628867,18.493708 25.37844,18.515046 25.378441,17.773369 C 25.378441,17.31168 24.97209,16.879807 24.632057,16.832276 z M 27.617594,17.57866 C 26.761998,17.58856 26.023891,18.236101 26.319534,18.714462 C 26.472884,18.962586 26.910863,19.106335 27.260627,19.038977 C 28.025656,18.891645 28.346173,17.570229 27.617594,17.57866 z M 41.993603,23.355025 C 41.504948,23.355025 41.063061,25.131017 41.409476,25.691532 C 41.691887,26.148482 42.383023,26.078884 42.383021,25.594177 C 42.383021,25.434738 42.383023,24.860036 42.383021,24.328569 C 42.383021,23.797104 42.202136,23.355025 41.993603,23.355025 z M 16.389379,24.361021 C 16.126557,24.339763 15.872329,24.629296 15.805252,24.977599 C 15.71834,25.428899 16.088541,25.720467 17.135763,25.983595 C 17.94398,26.18667 18.765379,26.213558 18.953047,26.048498 C 19.552746,25.521039 18.861871,24.518352 17.849696,24.458375 C 17.311558,24.426486 16.6522,24.38228 16.389379,24.361021 z M 24.145285,26.275658 C 23.895219,26.305285 23.629112,26.493666 23.528706,26.794882 C 23.415818,27.133548 23.610916,27.274711 24.080382,27.1843 C 24.476891,27.10794 24.750108,26.874751 24.69696,26.665076 C 24.625764,26.384191 24.39535,26.246031 24.145285,26.275658 z M 42.610181,28.385005 C 43.389398,28.385005 43.687876,29.146601 43.161856,29.780419 C 42.643559,30.404926 41.604186,30.529285 41.604185,29.975128 C 41.604185,29.194588 42.122945,28.385006 42.610181,28.385005 z M 12.430298,29.163841 C 12.749177,29.163841 13.014425,29.409181 13.014425,29.715516 C 13.014425,30.361254 12.4665,30.822617 12.105783,30.4619 C 11.643831,29.999949 11.848109,29.163841 12.430298,29.163841 z M 17.038409,33.025568 C 17.134699,33.025568 17.659688,33.230669 18.206663,33.479889 C 18.753636,33.729106 19.158156,34.126977 19.082853,34.356079 C 18.919895,34.85186 17.52587,35.103153 17.135763,34.713045 C 16.836046,34.413327 16.75622,33.025568 17.038409,33.025568 z M 32.485317,36.854843 C 32.639282,36.865912 32.798546,36.916786 32.939638,36.952198 C 34.348343,37.305762 34.324203,38.760429 32.907186,39.418511 C 31.546524,40.050422 30.898268,40.005703 30.635582,39.321156 C 30.314833,38.485303 30.591639,37.518336 31.284612,37.082004 C 31.538954,36.921855 32.023422,36.821636 32.485317,36.854843 z"
       id="path2416"
       sodipodi:nodetypes="cssssssssssssssssssssssccccssssssccssccsssssssssssccsssssssssssssssssssssssssssssssssssssssssssscccsssssccsssccsssccssccsssccssssccsssccssccssccsssccssssc" />
    <path
       style="fill:#4a382e"
       d="M 27.001016,0.57408065 C 30.145833,1.7192652 35.089977,5.1701058 36.47685,7.453796 C 36.95408,8.2396259 37.351951,9.0142855 37.35304,9.1737246 C 37.354129,9.3331647 37.093254,9.465788 36.768913,9.465788 C 36.245554,9.465788 36.23289,9.5628849 36.736462,10.536687 C 37.088187,11.21685 37.79369,11.802596 38.586197,12.029455 C 39.512612,12.294648 40.421968,13.129319 41.896248,15.079895 C 43.01526,16.560421 44.629982,19.146624 45.465912,20.823809 C 46.877585,23.656157 46.937815,23.958242 46.471908,25.074953 C 46.119517,25.919572 45.755098,26.236872 45.2063,26.178304 C 44.567366,26.110117 44.37007,26.372911 44.200304,27.638621 C 43.935426,29.61345 43.033557,31.028209 41.798894,31.33809 C 41.063995,31.522538 40.560669,31.333021 39.786902,30.559255 C 39.22516,29.997511 38.589741,29.608182 38.359036,29.683065 C 38.128329,29.757948 37.698054,30.276608 37.417943,30.851318 L 36.931171,31.889766 L 36.217238,31.013576 C 35.505264,30.138611 35.49165,30.134547 34.270149,30.851318 C 32.925691,31.640238 33.063643,31.674886 28.980556,29.618162 C 27.258479,28.750719 26.88019,28.695627 25.995019,29.098938 C 25.432276,29.355341 24.598119,29.553259 24.145285,29.553259 C 23.69245,29.553259 22.874949,30.058404 22.328001,30.689061 C 21.367367,31.796716 21.270688,31.834291 19.407368,31.467896 C 18.346466,31.259285 17.24127,31.170438 16.973506,31.273187 C 16.10046,31.608206 16.469137,32.543147 17.557633,32.765956 C 18.142244,32.885622 18.949743,33.247823 19.374916,33.577243 C 20.140569,34.170466 20.169723,34.178279 19.212659,34.940205 C 18.681193,35.36331 18.050029,35.714315 17.817245,35.719041 C 17.158125,35.732426 16.097316,34.401089 16.097316,33.544792 C 16.097316,32.907211 15.915136,32.820704 14.961514,32.960665 C 14.156191,33.078862 13.728007,32.928267 13.5661,32.506344 C 13.438373,32.173492 12.717391,31.548376 11.975977,31.11093 C 10.808555,30.422134 10.666837,30.165696 10.872626,29.228744 C 11.161856,27.911892 10.49382,27.223692 7.9519923,26.275658 C 6.3343627,25.672326 6.056196,25.680792 5.0313585,26.210755 C 4.4081226,26.533044 3.6809997,26.683452 3.4412356,26.53527 C 2.7507183,26.108507 1.4288972,22.656167 1.4292434,21.310581 C 1.4296283,19.813572 2.4420515,17.119663 3.7982019,15.047444 C 5.2537933,12.823276 13.230241,4.8008417 15.610544,3.1701996 C 16.725709,2.4062488 18.366846,1.6928022 19.277562,1.5476253 C 20.11468,1.4141806 21.411601,1.0853416 22.328001,0.80124107 C 19.237296,1.1952437 16.789549,1.9785887 14.766805,3.2026511 C 13.556982,3.9347733 11.491076,5.7325171 10.191145,7.1941841 C 8.8912141,8.6558508 6.9809535,10.701136 5.9400001,11.769844 C 4.8990459,12.838552 3.5832059,14.436052 3.0193662,15.307056 C 1.6217569,17.466044 0.61833526,20.101847 0.61795623,21.667547 C 0.61742652,23.856068 1.8828092,26.779674 3.4736871,28.320102 C 4.3823206,29.199922 4.8016933,29.848677 4.5445862,30.007579 C 4.3138836,30.150161 4.1227168,30.694824 4.1227168,31.208284 C 4.1227166,31.854644 4.4556867,32.318344 5.2585189,32.733504 C 5.8962775,33.063303 6.4267724,33.568432 6.4267724,33.869306 C 6.4267724,34.170181 6.6240505,34.541788 6.8486417,34.680594 C 7.6417988,35.170791 11.643213,35.539473 12.105783,35.167366 C 12.357629,34.964774 13.129274,34.872554 13.825712,34.940205 C 14.747291,35.029727 15.166769,35.270516 15.31848,35.881299 C 15.550047,36.813581 17.273328,38.347612 18.109308,38.347612 C 18.405285,38.347614 18.842038,38.134105 19.082853,37.893291 C 19.628421,37.347723 20.737879,37.742022 20.737879,38.477418 C 20.737879,38.778177 20.384215,39.112615 19.959043,39.223802 C 18.917724,39.496115 18.96966,40.516179 20.1213,41.884824 C 20.644306,42.506382 21.210706,43.61733 21.354457,44.383588 C 21.556429,45.460197 21.453812,45.862436 20.965039,46.135969 C 20.569981,46.357052 20.348461,46.990486 20.348461,47.823446 L 20.348461,48.894345 L 24.599605,48.894345 L 24.599605,47.563834 C 24.599605,46.832329 24.827483,46.101268 25.086378,45.94126 C 25.345273,45.781256 26.273469,45.604256 27.163273,45.551842 C 28.653405,45.464064 28.831186,45.551885 29.305071,46.687644 C 29.588042,47.365836 29.753665,48.141839 29.694489,48.407573 C 29.657492,48.573704 30.176498,48.657003 31.25216,48.732088 L 31.349515,46.103517 C 31.417208,43.430586 31.531085,42.866177 32.452865,41.657663 C 33.03345,40.896471 33.686444,40.262249 33.880731,40.262249 C 34.07502,40.26225 34.417553,40.653782 34.659567,41.105988 L 35.990078,41.203343 C 36.430188,40.877052 37.593422,40.651667 38.845808,40.651667 C 40.453,40.651667 41.174282,40.482504 41.766442,39.905283 C 42.19909,39.483545 43.059718,38.732015 43.648629,38.250257 C 44.574412,37.49292 44.731224,37.039476 44.849334,34.940205 C 44.935862,33.402211 45.197521,32.264869 45.595718,31.824863 C 45.941461,31.442822 46.241548,30.628598 46.244748,30.007579 C 46.247949,29.386559 46.490079,28.164451 46.796423,27.314106 C 47.10277,26.463762 47.372259,25.169975 47.38055,24.425924 C 47.406331,22.11322 43.291576,14.995921 40.241222,12.061907 C 39.467668,11.317855 38.307542,9.6997357 37.645103,8.4597921 C 36.323312,5.9856771 33.608805,3.6282528 29.72694,1.5800768 C 28.519416,0.9429552 27.864092,0.67002345 27.001016,0.57408065 z M 27.617594,3.6569719 C 26.934369,3.6569719 26.157276,5.270958 26.157277,6.7074117 C 26.157277,7.8894494 27.063608,8.5621319 29.045459,8.8167582 C 31.280275,9.1038859 32.669935,9.0507786 32.874735,8.7194038 C 33.143459,8.2845991 28.338814,3.6569718 27.617594,3.6569719 z M 6.4267724,27.573718 L 7.6923804,27.703524 L 8.9579884,27.800878 L 8.9579884,30.624158 C 8.9656226,33.718142 8.5811692,34.116476 7.2380596,32.408989 C 6.6737363,31.691569 6.4267726,30.83029 6.4267724,29.488356 L 6.4267724,27.573718 z M 14.312484,29.326098 C 14.266282,29.315396 14.235825,29.325704 14.182678,29.35855 C 13.970091,29.489935 13.79326,29.939373 13.79326,30.364546 C 13.79326,30.789718 13.970091,31.047606 14.182678,30.916221 C 14.395264,30.784836 14.572096,30.335398 14.572096,29.910225 C 14.572096,29.591346 14.451088,29.358204 14.312484,29.326098 z M 24.502251,30.818867 C 24.748512,30.837516 25.069545,31.067969 25.313538,31.435445 C 25.619935,31.896903 26.199809,32.246732 26.611598,32.246732 C 27.023387,32.246732 27.278234,32.417685 27.163273,32.603698 C 26.831115,33.141141 25.018096,32.989735 24.404897,32.376538 C 23.726592,31.698232 23.66828,31.226348 24.275091,30.851318 C 24.341716,30.810142 24.420164,30.81265 24.502251,30.818867 z M 41.993603,33.804403 C 42.817289,33.804403 43.67656,34.759049 43.45392,35.426978 C 43.225293,36.112855 40.824312,36.165712 40.565737,35.491881 C 40.295269,34.787054 41.129056,33.804404 41.993603,33.804403 z M 32.77738,36.854843 C 32.931346,36.865912 33.090609,36.916786 33.231701,36.952198 C 34.640407,37.305762 34.616266,38.760429 33.19925,39.418511 C 31.838588,40.050422 31.190331,40.005703 30.927646,39.321156 C 30.606897,38.485303 30.883703,37.518336 31.576675,37.082004 C 31.831017,36.921855 32.315485,36.821636 32.77738,36.854843 z M 27.357982,46.525386 C 27.091303,46.50206 26.602445,47.189166 26.351986,48.018155 C 26.126768,48.763598 26.241462,48.894343 27.09837,48.894345 C 27.993102,48.894345 28.072974,48.774757 27.844754,47.823446 C 27.704505,47.238833 27.535267,46.68241 27.455336,46.590289 C 27.426451,46.556999 27.396078,46.528719 27.357982,46.525386 z"
       id="path2414"
       sodipodi:nodetypes="cssssssssssssscccssssssssssssssssssssssscsssssssssssssssssssssccccssssccssccsssssssssssccssscccccscccssssccsssssccssccssssccssssc" />
    <path
       style="fill:#2e2b29"
       d="M 26.254631,0.21711429 C 26.114725,0.21701076 25.893054,0.24463731 25.735408,0.24956578 C 26.662715,0.31480698 27.554336,0.51335338 28.331527,0.86614404 C 30.501203,1.8510268 33.907142,4.170154 35.568208,5.8312216 C 36.362114,6.6251276 37.283855,8.1241607 37.645103,9.1412731 C 38.083606,10.37591 38.801079,11.34689 39.75445,12.061907 C 41.271315,13.199544 44.252253,17.483763 46.050039,21.115872 C 46.956015,22.946242 47.07875,23.592603 46.861326,25.042502 C 46.718046,25.997955 46.358496,26.993204 46.050039,27.249203 C 45.74158,27.505202 45.465912,28.284058 45.465912,28.969132 C 45.465912,29.680199 45.203024,30.460445 44.816882,30.786415 C 43.760344,31.678314 41.011237,32.381264 39.689547,32.116926 C 38.439339,31.866885 36.516473,32.661428 35.243693,33.934209 C 34.884604,34.293298 34.258269,34.58324 33.848279,34.583239 C 33.33589,34.583239 33.108787,34.304839 33.101895,33.707049 C 33.094189,33.038412 32.3781,32.408807 30.019004,30.981124 C 27.447377,29.424821 26.816694,29.20035 26.157277,29.553259 C 25.72454,29.784853 25.375186,30.08278 25.378441,30.23474 C 25.393074,30.917815 26.04791,31.379588 26.936113,31.33809 C 27.762132,31.299499 27.877206,31.450218 27.877206,32.441441 C 27.877206,33.443089 27.74305,33.626485 26.741404,33.7395 C 26.103645,33.811459 25.37525,34.046645 25.118829,34.258724 C 24.52879,34.746727 23.722148,34.289534 23.983027,33.609694 C 24.316073,32.741792 23.369356,32.352114 20.640524,32.214281 C 17.910438,32.076385 17.877775,32.142278 20.348461,33.51234 C 21.019773,33.884601 21.506038,34.420561 21.41936,34.680594 C 21.332682,34.940627 20.654748,35.282624 19.926591,35.459429 C 19.198434,35.636234 18.274869,35.879229 17.849696,35.978653 C 16.844628,36.213685 16.235386,35.787927 15.740349,34.485885 C 15.449731,33.721499 15.084073,33.414985 14.377387,33.414986 C 13.762593,33.414986 12.817843,32.831783 11.81372,31.857314 C 10.937497,31.006969 10.064229,30.332094 9.8666305,30.332094 C 9.6690316,30.332094 9.5432253,31.146987 9.6070186,32.149378 C 9.7011144,33.627907 9.6012562,33.98472 9.0553429,34.096467 C 8.6677275,34.17581 7.9190984,33.73568 7.2705111,33.025568 C 6.0659196,31.706709 5.4319381,29.242051 5.8750971,27.476363 C 6.161331,26.335917 5.8218026,26.19231 4.869101,27.054494 C 4.5110799,27.378499 3.9700479,27.539668 3.6359445,27.41146 C 2.7715006,27.079742 1.3375764,23.880895 1.13718,21.829805 C 0.94543172,19.867228 1.8063036,17.458817 3.733299,14.658026 C 4.3781395,13.720782 7.0392082,10.827741 9.6394701,8.2001802 C 12.95374,4.8511139 14.978537,3.1183624 16.454282,2.3913639 C 17.612099,1.8209861 18.944369,1.3529163 19.407368,1.3529163 C 19.870366,1.3529163 21.002332,1.0876689 21.906132,0.76878958 C 22.378697,0.60205892 22.84732,0.47054431 23.333997,0.37937173 C 19.753913,0.72575184 17.005979,1.5555539 14.766805,2.9105877 C 13.556982,3.6427105 11.491076,5.4404537 10.191145,6.9021207 C 8.891214,8.3637877 6.980954,10.441524 5.9400001,11.510232 C 4.899046,12.57894 3.5832059,14.143988 3.0193662,15.014992 C 1.6217568,17.173981 0.65078665,19.809782 0.65040772,21.375484 C 0.64987811,23.564006 1.8828101,26.487611 3.4736871,28.028039 C 4.3823207,28.907856 4.8016941,29.556614 4.5445862,29.715516 C 4.3138843,29.858098 4.1227168,30.402761 4.1227168,30.916221 C 4.1227168,31.562582 4.4881378,32.026281 5.2909704,32.441441 C 5.9287288,32.77124 6.4267724,33.30882 6.4267724,33.609694 C 6.4267726,33.910569 6.6240498,34.249725 6.8486417,34.38853 C 7.6417988,34.878727 11.643213,35.279861 12.105783,34.907754 C 12.357629,34.705162 13.129274,34.58049 13.825712,34.648142 C 14.747291,34.737665 15.166769,35.010904 15.31848,35.621687 C 15.550047,36.55397 17.273328,38.055548 18.109308,38.055548 C 18.405285,38.055546 18.842038,37.874493 19.082853,37.633679 C 19.628422,37.088111 20.737879,37.449959 20.737879,38.185354 C 20.737879,38.486114 20.384215,38.820552 19.959043,38.931738 C 18.917724,39.204052 19.002111,40.224116 20.153752,41.59276 C 20.676759,42.214319 21.210706,43.357718 21.354457,44.123976 C 21.55643,45.200586 21.486264,45.570373 20.99749,45.843905 C 20.602434,46.064989 20.348461,46.698423 20.348461,47.531383 L 20.348461,48.894345 L 24.210188,48.894345 L 23.983027,47.790994 C 23.817687,46.964289 24.030302,46.43159 24.859217,45.486939 C 25.651129,44.58446 26.270164,44.253781 27.163273,44.253782 C 27.836434,44.253782 28.765259,44.550705 29.240168,44.935264 C 29.867324,45.443105 30.117958,46.095184 30.14881,47.271771 L 30.213713,48.894345 L 31.284612,48.894345 L 31.349515,45.811454 C 31.417208,43.138523 31.563537,42.574114 32.485317,41.3656 C 33.065903,40.604409 33.686444,40.002637 33.880731,40.002637 C 34.075021,40.00264 34.450005,40.361718 34.692018,40.813925 L 35.990078,40.943731 C 36.430188,40.617441 37.625873,40.392055 38.87826,40.392055 C 40.485452,40.392055 41.206734,40.190441 41.798894,39.61322 C 42.231541,39.191482 43.059718,38.439951 43.648629,37.958194 C 44.574412,37.200858 44.731224,36.747413 44.849334,34.648142 C 44.935863,33.110147 45.229972,31.972805 45.628169,31.532799 C 45.973912,31.150757 46.241548,30.336535 46.244748,29.715516 C 46.24795,29.094496 46.52253,27.904839 46.828874,27.054494 C 47.135223,26.204148 47.372259,24.877912 47.38055,24.13386 C 47.406331,21.821156 43.324027,14.703858 40.273674,11.769844 C 39.50012,11.025792 38.307542,9.4076723 37.645103,8.1677287 C 36.323312,5.6936138 33.608805,3.3361888 29.72694,1.2880134 C 28.186427,0.47519729 27.591267,0.21810373 26.254631,0.21711429 z M 27.877206,6.3504454 C 27.273625,6.3504454 27.140399,6.814344 27.585142,7.259087 C 28.029886,7.7038305 28.461331,7.5381526 28.461332,6.9345722 C 28.461332,6.6156928 28.196085,6.3504453 27.877206,6.3504454 z M 34.854275,31.11093 C 34.256556,31.11093 34.094468,31.551827 34.529761,31.98712 C 34.838564,32.295923 35.438402,31.95529 35.438402,31.467896 C 35.438402,31.267856 35.173156,31.110931 34.854275,31.11093 z M 42.577729,33.025568 C 43.701885,33.025568 43.868582,33.176684 44.070498,34.420982 C 44.193234,35.177292 44.178954,36.020524 44.070498,36.303168 C 43.92997,36.669374 43.110107,36.795283 41.214767,36.757489 C 38.906819,36.711465 38.540614,36.616996 38.359036,35.946202 C 37.951283,34.439868 38.108895,34.100678 39.10542,34.291176 C 39.725523,34.409716 40.274567,34.20467 40.695543,33.7395 C 41.071623,33.323937 41.858269,33.025568 42.577729,33.025568 z M 32.323059,36.595231 C 32.620801,36.571543 32.949516,36.58931 33.231701,36.660134 C 34.640408,37.0137 34.648718,38.468365 33.231701,39.126447 C 31.87104,39.758359 31.190331,39.746091 30.927646,39.061544 C 30.606898,38.225692 30.916154,37.226273 31.609127,36.78994 C 31.778689,36.683175 32.025318,36.618919 32.323059,36.595231 z M 27.390433,48.115509 C 27.194215,48.115509 26.921379,48.262787 26.546695,48.504927 C 26.077862,48.807909 26.135508,48.857104 26.838758,48.861894 C 27.317077,48.865148 27.714947,48.717513 27.714948,48.504927 C 27.714948,48.262787 27.586652,48.115509 27.390433,48.115509 z"
       id="path2412"
       sodipodi:nodetypes="ccsssssssssssssssssssssssssssssssssssssssssscsssssssssssssssssssssccccsssccccssccsssssssssssccssccssccssssssccssssccsssc" />
  </g>
</svg>
