<?xml version="1.0" standalone="no"?>
<!DOCTYPE svg PUBLIC "-//W3C//DTD SVG 20000303 Stylable//EN"
	"http://www.w3.org/TR/2000/03/WD-SVG-20000303/DTD/svg-20000303-stylable.dtd">
<svg xmlns="http://www.w3.org/2000/svg" width="50pt" height="50pt" viewBox="0 0 50 50" xml:space="preserve">
<g transform="scale(0.5)">
	<g id="Path_0" style="fill-rule:nonzero;clip-rule:nonzero;fill:#f80000;stroke:none;stroke-miterlimit:4;">
		<path d="M10.00 10L20.00 10L20.00 90L10.00 90z"/>
	</g>
	<g id="Path_0" style="fill-rule:nonzero;clip-rule:nonzero;fill:#f87e00;stroke:none;stroke-miterlimit:4;">
		<path d="M20.00 10L30.00 10L30.00 90L20.00 90z"/>
	</g>
	<g id="Path_0" style="fill-rule:nonzero;clip-rule:nonzero;fill:#f8fc00;stroke:none;stroke-miterlimit:4;">
		<path d="M30.00 10L40.00 10L40.00 90L30.00 90z"/>
	</g>
	<g id="Path_0" style="fill-rule:nonzero;clip-rule:nonzero;fill:#7cfc7c;stroke:none;stroke-miterlimit:4;">
		<path d="M40.00 10L50.00 10L50.00 90L40.00 90z"/>
	</g>
	<g id="Path_0" style="fill-rule:nonzero;clip-rule:nonzero;fill:#00fc00;stroke:none;stroke-miterlimit:4;">
		<path d="M50.00 10L60.00 10L60.00 90L50.00 90z"/>
	</g>
	<g id="Path_0" style="fill-rule:nonzero;clip-rule:nonzero;fill:#00fcf8;stroke:none;stroke-miterlimit:4;">
		<path d="M60.00 10L70.00 10L70.00 90L60.00 90z"/>
	</g>
	<g id="Path_0" style="fill-rule:nonzero;clip-rule:nonzero;fill:#0000f8;stroke:none;stroke-miterlimit:4;">
		<path d="M70.00 10L80.00 10L80.00 90L70.00 90z"/>
	</g>
	<g id="Path_0" style="fill-rule:nonzero;clip-rule:nonzero;fill:#c01cc0;stroke:none;stroke-miterlimit:4;">
		<path d="M80.00 10L90.00 10L90.00 90L80.00 90z"/>
	</g>
</g>
</svg>