<?xml version="1.0" encoding="UTF-8" standalone="no"?>
<!-- Created with Inkscape (http://www.inkscape.org/) -->
<svg
   xmlns:dc="http://purl.org/dc/elements/1.1/"
   xmlns:cc="http://creativecommons.org/ns#"
   xmlns:rdf="http://www.w3.org/1999/02/22-rdf-syntax-ns#"
   xmlns:svg="http://www.w3.org/2000/svg"
   xmlns="http://www.w3.org/2000/svg"
   xmlns:xlink="http://www.w3.org/1999/xlink"
   xmlns:sodipodi="http://sodipodi.sourceforge.net/DTD/sodipodi-0.dtd"
   xmlns:inkscape="http://www.inkscape.org/namespaces/inkscape"
   width="48px"
   height="48px"
   id="svg2383"
   sodipodi:version="0.32"
   inkscape:version="0.46"
   sodipodi:docname="rayweight.svg"
   inkscape:output_extension="org.inkscape.output.svg.inkscape">
  <defs
     id="defs2385">
    <linearGradient
       id="linearGradient3175">
      <stop
         style="stop-color:#ffffff;stop-opacity:1;"
         offset="0"
         id="stop3177" />
      <stop
         id="stop3183"
         offset="0.62446964"
         style="stop-color:#ffffff;stop-opacity:1;" />
      <stop
         style="stop-color:#ffda3b;stop-opacity:1;"
         offset="0.9136712"
         id="stop3189" />
      <stop
         style="stop-color:#d7ad00;stop-opacity:1;"
         offset="1"
         id="stop3179" />
    </linearGradient>
    <linearGradient
       id="linearGradient3165">
      <stop
         style="stop-color:#ffffff;stop-opacity:1;"
         offset="0"
         id="stop3167" />
      <stop
         style="stop-color:#fcce1b;stop-opacity:1;"
         offset="1"
         id="stop3169" />
    </linearGradient>
    <inkscape:perspective
       sodipodi:type="inkscape:persp3d"
       inkscape:vp_x="0 : 24 : 1"
       inkscape:vp_y="0 : 1000 : 0"
       inkscape:vp_z="48 : 24 : 1"
       inkscape:persp3d-origin="24 : 16 : 1"
       id="perspective2391" />
    <radialGradient
       inkscape:collect="always"
       xlink:href="#linearGradient3165"
       id="radialGradient3171"
       cx="44.606865"
       cy="-2.2057092"
       fx="44.606865"
       fy="-2.2057092"
       r="23.133727"
       gradientTransform="matrix(-1.3387438,0.4095612,-0.4019076,-1.3137266,103.68662,-19.579638)"
       gradientUnits="userSpaceOnUse" />
    <radialGradient
       inkscape:collect="always"
       xlink:href="#linearGradient3175"
       id="radialGradient3187"
       gradientUnits="userSpaceOnUse"
       gradientTransform="matrix(1,0,0,0.3211207,0,25.193965)"
       cx="23.36508"
       cy="37.111111"
       fx="23.36508"
       fy="37.111111"
       r="14.730159" />
  </defs>
  <sodipodi:namedview
     id="base"
     pagecolor="#ffffff"
     bordercolor="#666666"
     borderopacity="1.0"
     inkscape:pageopacity="0.0"
     inkscape:pageshadow="2"
     inkscape:zoom="15.75"
     inkscape:cx="19.492064"
     inkscape:cy="22.095238"
     inkscape:current-layer="layer1"
     showgrid="true"
     inkscape:grid-bbox="true"
     inkscape:document-units="px"
     inkscape:window-width="1920"
     inkscape:window-height="1115"
     inkscape:window-x="-4"
     inkscape:window-y="-4" />
  <metadata
     id="metadata2388">
    <rdf:RDF>
      <cc:Work
         rdf:about="">
        <dc:format>image/svg+xml</dc:format>
        <dc:type
           rdf:resource="http://purl.org/dc/dcmitype/StillImage" />
      </cc:Work>
    </rdf:RDF>
  </metadata>
  <g
     id="layer1"
     inkscape:label="Layer 1"
     inkscape:groupmode="layer">
    <path
       transform="matrix(1.4827587,0,0,1.4827587,-11.279694,-17.915708)"
       d="M 38.095239,37.111111 A 14.730159,4.7301588 0 1 1 8.6349211,37.111111 A 14.730159,4.7301588 0 1 1 38.095239,37.111111 z"
       sodipodi:ry="4.7301588"
       sodipodi:rx="14.730159"
       sodipodi:cy="37.111111"
       sodipodi:cx="23.36508"
       id="path3185"
       style="opacity:1;fill:url(#radialGradient3187);fill-opacity:1;fill-rule:evenodd;stroke:none;stroke-width:1;stroke-linecap:butt;stroke-linejoin:miter;marker:none;marker-start:none;marker-mid:none;marker-end:none;stroke-miterlimit:4;stroke-dasharray:none;stroke-dashoffset:0;stroke-opacity:1;visibility:visible;display:inline;overflow:visible;enable-background:accumulate"
       sodipodi:type="arc" />
    <path
       style="fill:url(#radialGradient3171);fill-rule:evenodd;stroke:#8b6f00;stroke-width:1px;stroke-linecap:butt;stroke-linejoin:miter;stroke-opacity:1;fill-opacity:1"
       d="M 0.44444445,5.0521539 L 20.956002,36.571428 L 25.623514,36.497265 L 39.774223,16.10244 L 46.219835,19.958916 L 45.34138,0.76190449 L 28.068401,9.3536074 L 34.069487,12.913431 L 23.400889,29.822594 L 0.44444445,5.0521539 z"
       id="path2393"
       sodipodi:nodetypes="cccccccccc" />
    <g
       id="g5039">
      <path
         d="M 30.157759,47.366382 C 31.611171,47.378281 32.822623,46.672998 33.79212,45.250529 C 34.761597,43.828064 35.265015,41.61702 35.302377,38.617394 C 35.321772,37.433114 35.210784,36.187289 34.969411,34.879914 C 34.728016,33.572563 34.239795,32.455584 33.504744,31.528973 C 32.769676,30.602392 31.671337,30.1181 30.209725,30.076096 C 28.317839,30.159947 26.956985,31.056696 26.127159,32.766346 C 25.29733,34.476025 24.891346,36.495602 24.90921,38.825086 C 24.897181,40.140149 25.042491,41.447511 25.345146,42.747178 C 25.647797,44.046852 26.179967,45.133065 26.941652,46.005813 C 27.703332,46.878565 28.766705,47.332087 30.131776,47.366382 L 30.157759,47.366382 z M 30.183743,43.939479 C 29.730659,43.965443 29.402626,43.582513 29.199639,42.790687 C 28.996643,41.998869 28.908951,40.642389 28.936562,38.72124 C 28.926273,36.822824 29.031287,35.472833 29.251604,34.671263 C 29.471913,33.869718 29.791286,33.480298 30.209725,33.503 C 30.629235,33.503014 30.913964,33.937866 31.063913,34.80756 C 31.213849,35.677278 31.284219,36.981836 31.275025,38.72124 C 31.280972,40.596956 31.204107,41.940457 31.044427,42.751745 C 30.884734,43.563041 30.6065,43.958954 30.209725,43.939479 L 30.183743,43.939479 z"
         style="font-size:24px;font-style:normal;font-variant:normal;font-weight:900;font-stretch:normal;fill:#000000;fill-opacity:1;stroke:#ffffff;stroke-width:1px;stroke-linecap:butt;stroke-linejoin:miter;stroke-opacity:1;font-family:Myriad Pro Black Cond;-inkscape-font-specification:Myriad Pro Black Cond Heavy"
         id="path5008" />
      <path
         id="path5004"
         d="M 38.435863,47.366382 C 39.12224,47.356647 39.672211,47.122995 40.085777,46.665424 C 40.499333,46.207857 40.711526,45.584784 40.722359,44.796206 C 40.70449,43.972475 40.480388,43.335339 40.050051,42.884798 C 39.619704,42.434262 39.090303,42.20602 38.461845,42.200066 C 37.843666,42.214133 37.313181,42.458603 36.870391,42.933474 C 36.427597,43.408357 36.195916,44.029266 36.175349,44.796206 C 36.193751,45.584784 36.416774,46.207857 36.84441,46.665424 C 37.272042,47.122995 37.793864,47.356647 38.409879,47.366382 L 38.435863,47.366382 z"
         style="font-size:24px;font-style:normal;font-variant:normal;font-weight:900;font-stretch:normal;fill:#000000;fill-opacity:1;stroke:#ffffff;stroke-width:1px;stroke-linecap:butt;stroke-linejoin:miter;stroke-opacity:1;font-family:Myriad Pro Black Cond;-inkscape-font-specification:Myriad Pro Black Cond Heavy" />
      <path
         id="text4997"
         d="M 43.394076,47.158692 L 47.369462,47.158692 L 47.369462,30.283786 L 43.809802,30.283786 L 39.808434,32.256853 L 40.458005,35.398182 L 43.342111,33.996266 L 43.394076,33.996266 L 43.394076,47.158692 z"
         style="font-size:24px;font-style:normal;font-variant:normal;font-weight:900;font-stretch:normal;fill:#000000;fill-opacity:1;stroke:#ffffff;stroke-width:1px;stroke-linecap:butt;stroke-linejoin:miter;stroke-opacity:1;font-family:Myriad Pro Black Cond;-inkscape-font-specification:Myriad Pro Black Cond Heavy" />
    </g>
  </g>
</svg>
