<?xml version="1.0" encoding="UTF-8" standalone="no"?>
<!-- Created with Inkscape (http://www.inkscape.org/) -->

<svg
   xmlns:dc="http://purl.org/dc/elements/1.1/"
   xmlns:cc="http://creativecommons.org/ns#"
   xmlns:rdf="http://www.w3.org/1999/02/22-rdf-syntax-ns#"
   xmlns:svg="http://www.w3.org/2000/svg"
   xmlns="http://www.w3.org/2000/svg"
   xmlns:xlink="http://www.w3.org/1999/xlink"
   xmlns:sodipodi="http://sodipodi.sourceforge.net/DTD/sodipodi-0.dtd"
   xmlns:inkscape="http://www.inkscape.org/namespaces/inkscape"
   width="48px"
   height="48px"
   id="svg24248"
   version="1.1"
   inkscape:version="0.48.5 r10040"
   sodipodi:docname="titlecase.svg">
  <defs
     id="defs24250">
    <linearGradient
       id="linearGradient24766">
      <stop
         style="stop-color:#ffffff;stop-opacity:1;"
         offset="0"
         id="stop24768" />
      <stop
         id="stop25048"
         offset="0.5"
         style="stop-color:#ffffff;stop-opacity:1;" />
      <stop
         style="stop-color:#b1c6ce;stop-opacity:1;"
         offset="1"
         id="stop24770" />
    </linearGradient>
    <radialGradient
       inkscape:collect="always"
       xlink:href="#linearGradient24766"
       id="radialGradient24772"
       cx="25.642857"
       cy="25.214285"
       fx="25.642857"
       fy="25.214285"
       r="25.714285"
       gradientUnits="userSpaceOnUse" />
    <radialGradient
       inkscape:collect="always"
       xlink:href="#linearGradient24766"
       id="radialGradient25050"
       gradientUnits="userSpaceOnUse"
       cx="25.642857"
       cy="25.214285"
       fx="25.642857"
       fy="25.214285"
       r="25.714285" />
  </defs>
  <sodipodi:namedview
     id="base"
     pagecolor="#ffffff"
     bordercolor="#666666"
     borderopacity="1.0"
     inkscape:pageopacity="0.0"
     inkscape:pageshadow="2"
     inkscape:zoom="7"
     inkscape:cx="-1.5714286"
     inkscape:cy="22.642857"
     inkscape:current-layer="layer1"
     showgrid="true"
     inkscape:grid-bbox="true"
     inkscape:document-units="px"
     inkscape:window-width="2560"
     inkscape:window-height="1475"
     inkscape:window-x="0"
     inkscape:window-y="0"
     inkscape:window-maximized="1" />
  <metadata
     id="metadata24253">
    <rdf:RDF>
      <cc:Work
         rdf:about="">
        <dc:format>image/svg+xml</dc:format>
        <dc:type
           rdf:resource="http://purl.org/dc/dcmitype/StillImage" />
        <dc:title></dc:title>
      </cc:Work>
    </rdf:RDF>
  </metadata>
  <g
     id="layer1"
     inkscape:label="Layer 1"
     inkscape:groupmode="layer">
    <path
       sodipodi:type="arc"
       style="color:#000000;fill:url(#radialGradient25050);fill-opacity:1.0;stroke:none;stroke-width:3.22857117999999987;stroke-linecap:round;stroke-linejoin:round;stroke-miterlimit:4;stroke-opacity:1;stroke-dasharray:none;stroke-dashoffset:0;marker:none;visibility:visible;display:inline;overflow:visible;enable-background:accumulate"
       id="path24256"
       sodipodi:cx="25.642857"
       sodipodi:cy="25.214285"
       sodipodi:rx="24.214285"
       sodipodi:ry="24.214285"
       d="m 49.857141,25.214285 a 24.214285,24.214285 0 1 1 -48.4285693,0 24.214285,24.214285 0 1 1 48.4285693,0 z"
       transform="matrix(0.92920357,0,0,0.92920357,0.17256607,0.57079631)" />
    <path
       transform="matrix(0.92920357,0,0,0.92920357,0.17256607,0.57079631)"
       d="m 49.857141,25.214285 a 24.214285,24.214285 0 1 1 -48.4285693,0 24.214285,24.214285 0 1 1 48.4285693,0 z"
       sodipodi:ry="24.214285"
       sodipodi:rx="24.214285"
       sodipodi:cy="25.214285"
       sodipodi:cx="25.642857"
       id="path24780"
       style="color:#000000;fill:none;fill-opacity:1;stroke:#204a87;stroke-width:3.22857117999999987;stroke-linecap:round;stroke-linejoin:round;stroke-miterlimit:4;stroke-opacity:1;stroke-dasharray:none;stroke-dashoffset:0;marker:none;visibility:visible;display:inline;overflow:visible;enable-background:accumulate"
       sodipodi:type="arc" />
    <path
       style="font-size:40px;font-style:normal;font-variant:normal;font-weight:normal;font-stretch:normal;line-height:125%;letter-spacing:0px;word-spacing:0px;fill:#000000;fill-opacity:1;stroke:none;font-family:Baskerville;-inkscape-font-specification:Baskerville"
       inkscape:connector-curvature="0"
       id="path25065"
       d="m 7.5853793,31.594292 c -7e-6,-1.294064 0.455856,-2.396963 1.367594,-3.308698 0.941132,-0.941134 2.0587337,-1.411704 3.3528127,-1.41171 1.323465,6e-6 2.441068,0.470576 3.352812,1.41171 0.941126,0.911735 1.411696,2.014634 1.411711,3.308698 -1.5e-5,1.32348 -0.470585,2.441083 -1.411711,3.352813 -0.941153,0.941139 -2.058757,1.411709 -3.352812,1.411711 -1.323489,-2e-6 -2.4410927,-0.485279 -3.3528127,-1.455829 -0.911738,-0.941138 -1.367601,-2.044037 -1.367594,-3.308695" />
    <path
       style="font-size:40px;font-style:normal;font-variant:normal;font-weight:normal;font-stretch:normal;line-height:125%;letter-spacing:0px;word-spacing:0px;fill:#000000;fill-opacity:1;stroke:none;font-family:Baskerville;-inkscape-font-specification:Baskerville"
       inkscape:connector-curvature="0"
       id="path25067"
       d="m 28.09064,20.374552 c -0.260341,-1.842297 -0.780998,-3.94495 -1.561973,-6.307967 -0.38049,-1.12138 -0.570731,-1.99248 -0.570721,-2.613301 -10e-6,-1.001227 0.250306,-1.7621871 0.750949,-2.2828841 0.500621,-0.540643 1.041303,-0.810984 1.622049,-0.811025 0.640796,4.1e-5 1.241555,0.26037 1.802276,0.780987 0.560694,0.520697 0.841047,1.2816571 0.841063,2.2828841 -1.6e-5,0.600796 -0.290382,1.722211 -0.8711,3.36425 -0.620799,1.722208 -1.001278,3.584558 -1.141443,5.587056 1.261579,-0.861057 2.593261,-2.112638 3.995048,-3.754742 1.802256,-2.102622 3.324178,-3.153948 4.565767,-3.153984 0.640787,3.6e-5 1.191481,0.2103 1.652086,0.630797 0.460558,0.40054 0.690848,0.951236 0.690873,1.652087 -2.5e-5,1.001296 -0.380504,1.762258 -1.141441,2.282884 -0.740959,0.520687 -1.92245,0.931205 -3.544478,1.231555 -2.082648,0.400536 -3.995062,1.021318 -5.737248,1.862353 1.021276,0.54071 2.513159,0.991278 4.475655,1.351707 2.50314,0.460608 4.115175,1.031329 4.836108,1.712163 0.740912,0.660858 1.111379,1.411806 1.111404,2.252846 -2.5e-5,0.560731 -0.220303,1.061362 -0.660834,1.501896 -0.440581,0.420552 -0.991275,0.630818 -1.652087,0.630798 -1.32169,2e-5 -2.853624,-0.971206 -4.595805,-2.913681 -1.68214,-1.862328 -3.013822,-3.123919 -3.995048,-3.784781 0.160189,2.102682 0.640796,4.175298 1.441821,6.217855 0.420517,1.081386 0.630783,1.912435 0.630798,2.493148 -1.5e-5,0.901156 -0.250332,1.642092 -0.750949,2.222809 -0.480621,0.580749 -1.061355,0.871115 -1.7422,0.8711 -0.620797,1.5e-5 -1.20153,-0.270326 -1.742202,-0.811025 -0.520667,-0.540665 -0.780996,-1.291614 -0.780986,-2.252845 -10e-6,-0.560689 0.210256,-1.421777 0.630797,-2.583264 0.780975,-2.242809 1.261582,-4.2954 1.441821,-6.157778 -1.461858,0.92119 -2.983778,2.383035 -4.565767,4.385539 -1.241575,1.561995 -2.453104,2.342981 -3.634591,2.342961 -0.70089,2e-5 -1.301647,-0.200233 -1.802277,-0.600759 -0.480608,-0.400485 -0.720912,-0.961193 -0.72091,-1.682125 -2e-6,-1.862329 1.632058,-3.053831 4.896185,-3.574516 2.663355,-0.440529 4.475642,-0.981212 5.436867,-1.622048 -1.822313,-0.90111 -3.664637,-1.511881 -5.526981,-1.832316 -3.143975,-0.560677 -4.715959,-1.722143 -4.715957,-3.484401 -2e-6,-0.640775 0.2403,-1.181458 0.72091,-1.622048 0.50063,-0.440522 1.061338,-0.6608 1.682125,-0.660836 1.181486,3.6e-5 2.52318,0.871136 4.025084,2.613302 0.620775,0.720943 1.201509,1.341726 1.742201,1.862352 l 2.463111,2.372997" />
  </g>
</svg>
