<?xml version="1.0" encoding="UTF-8" standalone="no"?>
<!-- Created with Inkscape (http://www.inkscape.org/) -->

<svg
   xmlns:dc="http://purl.org/dc/elements/1.1/"
   xmlns:cc="http://creativecommons.org/ns#"
   xmlns:rdf="http://www.w3.org/1999/02/22-rdf-syntax-ns#"
   xmlns:svg="http://www.w3.org/2000/svg"
   xmlns="http://www.w3.org/2000/svg"
   xmlns:xlink="http://www.w3.org/1999/xlink"
   xmlns:sodipodi="http://sodipodi.sourceforge.net/DTD/sodipodi-0.dtd"
   xmlns:inkscape="http://www.inkscape.org/namespaces/inkscape"
   width="48px"
   height="48px"
   id="svg24248"
   version="1.1"
   inkscape:version="0.48.5 r10040"
   sodipodi:docname="regex_findall.svg">
  <defs
     id="defs24250">
    <linearGradient
       id="linearGradient24766">
      <stop
         style="stop-color:#ffffff;stop-opacity:1;"
         offset="0"
         id="stop24768" />
      <stop
         id="stop25048"
         offset="0.5"
         style="stop-color:#ffffff;stop-opacity:1;" />
      <stop
         style="stop-color:#b1c6ce;stop-opacity:1;"
         offset="1"
         id="stop24770" />
    </linearGradient>
    <radialGradient
       inkscape:collect="always"
       xlink:href="#linearGradient24766"
       id="radialGradient25050"
       gradientUnits="userSpaceOnUse"
       cx="25.642857"
       cy="25.214285"
       fx="25.642857"
       fy="25.214285"
       r="25.714285" />
  </defs>
  <sodipodi:namedview
     id="base"
     pagecolor="#ffffff"
     bordercolor="#666666"
     borderopacity="1.0"
     inkscape:pageopacity="0.0"
     inkscape:pageshadow="2"
     inkscape:zoom="7"
     inkscape:cx="-1.5714286"
     inkscape:cy="22.642857"
     inkscape:current-layer="layer1"
     showgrid="true"
     inkscape:grid-bbox="true"
     inkscape:document-units="px"
     inkscape:window-width="2560"
     inkscape:window-height="1475"
     inkscape:window-x="0"
     inkscape:window-y="0"
     inkscape:window-maximized="1" />
  <metadata
     id="metadata24253">
    <rdf:RDF>
      <cc:Work
         rdf:about="">
        <dc:format>image/svg+xml</dc:format>
        <dc:type
           rdf:resource="http://purl.org/dc/dcmitype/StillImage" />
        <dc:title></dc:title>
      </cc:Work>
    </rdf:RDF>
  </metadata>
  <g
     id="layer1"
     inkscape:label="Layer 1"
     inkscape:groupmode="layer">
    <path
       sodipodi:type="arc"
       style="color:#000000;fill:url(#radialGradient25050);fill-opacity:1.0;stroke:none;stroke-width:3.22857117999999987;stroke-linecap:round;stroke-linejoin:round;stroke-miterlimit:4;stroke-opacity:1;stroke-dasharray:none;stroke-dashoffset:0;marker:none;visibility:visible;display:inline;overflow:visible;enable-background:accumulate"
       id="path24256"
       sodipodi:cx="25.642857"
       sodipodi:cy="25.214285"
       sodipodi:rx="24.214285"
       sodipodi:ry="24.214285"
       d="m 49.857141,25.214285 a 24.214285,24.214285 0 1 1 -48.4285693,0 24.214285,24.214285 0 1 1 48.4285693,0 z"
       transform="matrix(0.92920357,0,0,0.92920357,0.17256607,0.57079631)" />
    <path
       transform="matrix(0.92920357,0,0,0.92920357,0.17256607,0.57079631)"
       d="m 49.857141,25.214285 a 24.214285,24.214285 0 1 1 -48.4285693,0 24.214285,24.214285 0 1 1 48.4285693,0 z"
       sodipodi:ry="24.214285"
       sodipodi:rx="24.214285"
       sodipodi:cy="25.214285"
       sodipodi:cx="25.642857"
       id="path24780"
       style="color:#000000;fill:none;fill-opacity:1;stroke:#204a87;stroke-width:3.22857117999999987;stroke-linecap:round;stroke-linejoin:round;stroke-miterlimit:4;stroke-opacity:1;stroke-dasharray:none;stroke-dashoffset:0;marker:none;visibility:visible;display:inline;overflow:visible;enable-background:accumulate"
       sodipodi:type="arc" />
    <g
       id="g25151"
       transform="matrix(0.5809893,0,0,0.5809893,3.7585535,8.1408192)">
      <path
         d="m 33.474331,17.927456 0.722656,0 c -0.117206,2.226563 -1.210954,3.339843 -3.28125,3.339844 -0.885431,-10e-7 -1.588555,-0.234376 -2.109375,-0.703125 -0.507825,-0.46875 -0.839856,-1.165363 -0.996094,-2.089844 -1.302094,0.924481 -2.493499,1.621094 -3.574218,2.089844 -1.067716,0.468749 -2.024746,0.703124 -2.871094,0.703125 -1.080734,-10e-7 -2.011722,-0.3125 -2.792969,-0.9375 -0.781252,-0.624999 -1.171876,-1.451821 -1.171875,-2.480469 -1e-6,-1.341142 0.65104,-2.513015 1.953125,-3.515625 1.3151,-1.002597 3.124994,-1.979158 5.429688,-2.929688 l 3.027343,-1.230468 0,-0.7812503 C 27.810256,8.2855414 27.738642,7.4847609 27.595425,6.9899559 27.452184,6.4951786 27.081091,6.0524707 26.482143,5.6618309 25.883175,5.2712215 25.095415,5.0759092 24.118862,5.0758934 c -1.953131,1.58e-5 -3.04037,0.6510568 -3.261719,1.953125 -0.208338,1.3281375 -0.755212,1.9921993 -1.640625,1.9921875 -0.794273,1.18e-5 -1.191408,-0.377592 -1.191406,-1.1328125 -2e-6,-0.7421738 0.527341,-1.5364438 1.582031,-2.3828125 1.054683,-0.8593588 2.695306,-1.2890459 4.921875,-1.2890625 1.653636,1.66e-5 2.936187,0.260433 3.847657,0.78125 0.911445,0.5208487 1.510402,1.113296 1.796875,1.7773438 0.299464,0.6640759 0.449204,1.6796999 0.449218,3.046875 l 0,6.4648438 c -1.4e-5,1.51042 0.07811,2.480471 0.234375,2.910156 0.156235,0.429689 0.494777,0.644532 1.015625,0.644531 0.859359,1e-6 1.393212,-0.638019 1.601563,-1.914062 m -5.664063,-6.835938 -2.128906,0.859375 c -3.359381,1.367195 -5.039067,3.085944 -5.039062,5.15625 -5e-6,0.820316 0.214838,1.484378 0.644531,1.992188 0.429682,0.494793 0.989577,0.742188 1.679687,0.742187 0.611972,1e-6 1.321607,-0.201821 2.128907,-0.605468 0.807281,-0.403644 1.712228,-1.009112 2.714843,-1.816407 l 0,-6.328125"
         style="font-size:40px;font-style:normal;font-variant:normal;font-weight:normal;font-stretch:normal;line-height:125%;letter-spacing:0px;word-spacing:0px;fill:#000000;fill-opacity:1;stroke:none;font-family:Baskerville;-inkscape-font-specification:Baskerville"
         id="path25139"
         inkscape:connector-curvature="0" />
      <path
         d="m 38.532925,21.501675 -0.761719,0 0,-21.40625035 c -3e-6,-1.56247765 -0.04558,-2.57159125 -0.136719,-3.02734375 -0.07813,-0.4557049 -0.292971,-0.7942462 -0.644531,-1.015625 -0.338544,-0.2213291 -0.937501,-0.3320061 -1.796875,-0.3320312 l 0,-0.8984375 c 0.768228,2.6e-5 1.692706,-0.09112 2.773437,-0.2734375 1.080725,-0.1822652 1.816402,-0.3645567 2.207032,-0.546875 l 0.410156,0 0,12.65625 c 0.911451,-0.8202975 1.83593,-1.4322761 2.773437,-1.8359375 0.937491,-0.4036294 1.888011,-0.6054522 2.851563,-0.6054688 2.304674,1.66e-5 4.192693,0.8007971 5.664062,2.4023438 1.471336,1.6015751 2.207012,3.6458438 2.207032,6.1328128 -2e-5,2.500005 -0.755227,4.583337 -2.265625,6.25 -1.510433,1.666667 -3.470066,2.499999 -5.878907,2.5 -1.184905,-10e-7 -2.226571,-0.247397 -3.125,-0.742188 -0.885424,-0.494791 -1.62761,-1.230467 -2.226562,-2.207031 -0.846359,0.846356 -1.529952,1.829427 -2.050781,2.949219 m 2.050781,-13.6914066 0,6.2695316 c -6e-6,1.614588 0.104161,2.779952 0.3125,3.496093 0.221348,0.703128 0.74218,1.380211 1.5625,2.03125 0.820304,0.651043 1.777334,0.976563 2.871094,0.976563 1.679675,0 3.014309,-0.690103 4.003906,-2.070313 1.002588,-1.380204 1.50389,-3.365879 1.503906,-5.957031 -1.6e-5,-2.382802 -0.468766,-4.1926957 -1.40625,-5.4296873 -0.924493,-1.2499851 -2.161471,-1.8749844 -3.710937,-1.875 -0.885427,1.56e-5 -1.757822,0.2148591 -2.617188,0.6445312 -0.846362,0.4166812 -1.686204,1.0547014 -2.519531,1.9140625"
         style="font-size:40px;font-style:normal;font-variant:normal;font-weight:normal;font-stretch:normal;line-height:125%;letter-spacing:0px;word-spacing:0px;fill:#000000;fill-opacity:1;stroke:none;font-family:Baskerville;-inkscape-font-specification:Baskerville"
         id="path25141"
         inkscape:connector-curvature="0" />
    </g>
    <g
       id="g25155"
       transform="matrix(0.5809893,0,0,0.5809893,3.7585535,-2.9825012)">
      <path
         d="m 26.5798,61.775112 4.492187,5.644531 c 0.781234,0.976565 1.425765,1.640627 1.933594,1.992188 0.520816,0.338543 1.139305,0.520834 1.855469,0.546875 l 0,0.898437 -7.988282,0 0,-0.898437 c 1.315092,10e-7 1.972644,-0.253905 1.972657,-0.761719 -1.3e-5,-0.208331 -0.299492,-0.65755 -0.898438,-1.347656 l -3.164062,-3.925781 -2.929688,3.476562 c -0.716151,0.833336 -1.074224,1.354169 -1.074219,1.5625 -5e-6,0.651043 0.722651,0.983074 2.167969,0.996094 l 0,0.898437 -6.582031,0 0,-0.898437 c 0.572915,10e-7 1.204425,-0.149739 1.894531,-0.449219 0.690101,-0.299477 1.582027,-1.093747 2.675781,-2.382812 l 3.300782,-3.90625 -3.535157,-4.472657 C 19.698285,57.47174 18.936567,56.657939 18.415737,56.306362 17.894902,55.941794 17.282923,55.759502 16.5798,55.759487 l 0,-0.898437 7.539062,0 0,0.898437 c -1.080736,1.5e-5 -1.6211,0.2409 -1.621094,0.722656 -6e-6,0.221369 0.240879,0.618504 0.722657,1.191407 l 2.8125,3.476562 2.597656,-3.046875 c 0.585924,-0.703111 0.878892,-1.139309 0.878906,-1.308594 -1.4e-5,-0.690089 -0.716159,-1.035141 -2.148437,-1.035156 l 0,-0.898437 6.347656,0 0,0.898437 c -1.276058,0.03908 -2.597672,0.839858 -3.964844,2.402344 L 26.5798,61.775112"
         style="font-size:40px;font-style:normal;font-variant:normal;font-weight:normal;font-stretch:normal;line-height:125%;letter-spacing:0px;word-spacing:0px;fill:#000000;fill-opacity:1;stroke:none;font-family:Baskerville;-inkscape-font-specification:Baskerville"
         id="path25143"
         inkscape:connector-curvature="0" />
      <path
         d="M 45.368862,67.8298 49.0798,58.943081 c 0.533839,-1.30207 0.800766,-2.024726 0.800781,-2.167969 -1.5e-5,-0.651027 -0.722671,-0.989568 -2.167969,-1.015625 l 0,-0.898437 5.625,0 0,0.898437 c -0.872413,0.03908 -1.510433,0.273452 -1.914062,0.703125 -0.403662,0.416681 -0.904964,1.347669 -1.503907,2.792969 l -7.128906,17.207031 c -0.67709,1.640618 -1.276048,2.753898 -1.796875,3.339844 -0.520839,0.598949 -1.093755,0.898428 -1.71875,0.898437 -0.846357,-9e-6 -1.269534,-0.384124 -1.269531,-1.152343 -3e-6,-0.885425 0.67708,-1.634122 2.03125,-2.246094 0.794265,-0.351569 1.321608,-0.651048 1.582031,-0.898438 0.273431,-0.247401 0.540358,-0.696619 0.800781,-1.347656 l 1.523438,-3.808594 -6.015625,-12.890625 c -0.533857,-1.132798 -0.976565,-1.848944 -1.328125,-2.148437 -0.351564,-0.299464 -0.950522,-0.449204 -1.796875,-0.449219 l 0,-0.898437 7.34375,0 0,0.898437 c -1.289068,0.03908 -1.933599,0.306005 -1.933594,0.800781 -5e-6,0.195327 0.253901,0.833347 0.761719,1.914063 l 4.394531,9.355469"
         style="font-size:40px;font-style:normal;font-variant:normal;font-weight:normal;font-stretch:normal;line-height:125%;letter-spacing:0px;word-spacing:0px;fill:#000000;fill-opacity:1;stroke:none;font-family:Baskerville;-inkscape-font-specification:Baskerville"
         id="path25145"
         inkscape:connector-curvature="0" />
    </g>
    <path
       style="fill:#000000;stroke:none;stroke-width:1px;stroke-linecap:butt;stroke-linejoin:miter;stroke-opacity:1"
       d="m 24.142857,27 -4.785714,-4.785714 9.642857,0 z"
       id="path25159"
       inkscape:connector-curvature="0" />
  </g>
</svg>
