<?xml version="1.0" encoding="UTF-8" standalone="no"?>
<!-- Created with Inkscape (http://www.inkscape.org/) -->

<svg
   xmlns:dc="http://purl.org/dc/elements/1.1/"
   xmlns:cc="http://creativecommons.org/ns#"
   xmlns:rdf="http://www.w3.org/1999/02/22-rdf-syntax-ns#"
   xmlns:svg="http://www.w3.org/2000/svg"
   xmlns="http://www.w3.org/2000/svg"
   xmlns:xlink="http://www.w3.org/1999/xlink"
   xmlns:sodipodi="http://sodipodi.sourceforge.net/DTD/sodipodi-0.dtd"
   xmlns:inkscape="http://www.inkscape.org/namespaces/inkscape"
   width="48px"
   height="48px"
   id="svg24248"
   version="1.1"
   inkscape:version="0.48.5 r10040"
   sodipodi:docname="regex_replace.svg">
  <defs
     id="defs24250">
    <linearGradient
       id="linearGradient24766">
      <stop
         style="stop-color:#ffffff;stop-opacity:1;"
         offset="0"
         id="stop24768" />
      <stop
         id="stop25048"
         offset="0.5"
         style="stop-color:#ffffff;stop-opacity:1;" />
      <stop
         style="stop-color:#b1c6ce;stop-opacity:1;"
         offset="1"
         id="stop24770" />
    </linearGradient>
    <radialGradient
       inkscape:collect="always"
       xlink:href="#linearGradient24766"
       id="radialGradient25050"
       gradientUnits="userSpaceOnUse"
       cx="25.642857"
       cy="25.214285"
       fx="25.642857"
       fy="25.214285"
       r="25.714285" />
  </defs>
  <sodipodi:namedview
     id="base"
     pagecolor="#ffffff"
     bordercolor="#666666"
     borderopacity="1.0"
     inkscape:pageopacity="0.0"
     inkscape:pageshadow="2"
     inkscape:zoom="7"
     inkscape:cx="-1.5714286"
     inkscape:cy="22.642857"
     inkscape:current-layer="layer1"
     showgrid="true"
     inkscape:grid-bbox="true"
     inkscape:document-units="px"
     inkscape:window-width="2560"
     inkscape:window-height="1475"
     inkscape:window-x="0"
     inkscape:window-y="0"
     inkscape:window-maximized="1" />
  <metadata
     id="metadata24253">
    <rdf:RDF>
      <cc:Work
         rdf:about="">
        <dc:format>image/svg+xml</dc:format>
        <dc:type
           rdf:resource="http://purl.org/dc/dcmitype/StillImage" />
        <dc:title></dc:title>
      </cc:Work>
    </rdf:RDF>
  </metadata>
  <g
     id="layer1"
     inkscape:label="Layer 1"
     inkscape:groupmode="layer">
    <path
       sodipodi:type="arc"
       style="color:#000000;fill:url(#radialGradient25050);fill-opacity:1.0;stroke:none;stroke-width:3.22857117999999987;stroke-linecap:round;stroke-linejoin:round;stroke-miterlimit:4;stroke-opacity:1;stroke-dasharray:none;stroke-dashoffset:0;marker:none;visibility:visible;display:inline;overflow:visible;enable-background:accumulate"
       id="path24256"
       sodipodi:cx="25.642857"
       sodipodi:cy="25.214285"
       sodipodi:rx="24.214285"
       sodipodi:ry="24.214285"
       d="m 49.857141,25.214285 a 24.214285,24.214285 0 1 1 -48.4285693,0 24.214285,24.214285 0 1 1 48.4285693,0 z"
       transform="matrix(0.92920357,0,0,0.92920357,0.17256607,0.57079631)" />
    <rect
       style="color:#000000;fill:#ffffff;fill-opacity:1;fill-rule:nonzero;stroke:#000000;stroke-width:0.50000000000000000;marker:none;visibility:visible;display:inline;overflow:visible;enable-background:accumulate"
       id="rect25197"
       width="20.571428"
       height="15.857142"
       x="1.7142857"
       y="15.857142" />
    <path
       inkscape:connector-curvature="0"
       id="path25185"
       style="font-size:23.94137001px;font-style:normal;font-variant:normal;font-weight:normal;font-stretch:normal;line-height:125%;letter-spacing:0px;word-spacing:0px;fill:#000000;fill-opacity:1;stroke:none;font-family:Baskerville;-inkscape-font-specification:Baskerville"
       d="m 7.8121721,24.984254 -3.9617325,0 -0.269244,0.661571 c -0.4000218,0.959023 -0.6000314,1.584694 -0.6000294,1.877015 -2e-6,0.312836 0.1051313,0.551309 0.3154001,0.715419 0.2153926,0.158983 0.4897648,0.238473 0.8231172,0.238473 l 0,0.353863 -3.1001518,0 0,-0.353863 c 0.4615605,-0.07179 0.8051668,-0.233344 1.0308196,-0.484639 0.2256509,-0.256422 0.4974588,-0.792344 0.8154246,-1.607771 0.02564,-0.07692 0.1487233,-0.374374 0.3692489,-0.892352 l 3.0309177,-7.238815 0.3000147,0 3.4847858,8.285021 0.476947,1.09236 c 0.107688,0.246168 0.251285,0.441049 0.43079,0.584645 0.184614,0.138469 0.458986,0.225652 0.823117,0.261551 l 0,0.353863 -4.1002005,0 0,-0.353863 c 0.5025815,0 0.8410595,-0.0359 1.0154341,-0.107697 0.179488,-0.07693 0.269236,-0.225651 0.269244,-0.446176 -8e-6,-0.112825 -0.117963,-0.448739 -0.353864,-1.007742 L 7.8121721,24.984254 m -0.1307756,-0.346172 -1.8462444,-4.446371 -1.8385515,4.446371 3.6847959,0" />
    <path
       inkscape:connector-curvature="0"
       id="path25187"
       style="font-size:23.94137001px;font-style:normal;font-variant:normal;font-weight:normal;font-stretch:normal;line-height:125%;letter-spacing:0px;word-spacing:0px;fill:#000000;fill-opacity:1;stroke:none;font-family:Baskerville;-inkscape-font-specification:Baskerville"
       d="m 17.20494,23.214936 c 1.184667,0.08719 2.064196,0.382075 2.63859,0.884659 0.57438,0.502593 0.861572,1.130828 0.861581,1.884707 -9e-6,0.656445 -0.19489,1.223139 -0.584643,1.700084 -0.389771,0.471818 -0.889795,0.78209 -1.500074,0.930815 -0.605164,0.143597 -1.418024,0.215394 -2.438581,0.215394 l -4.092508,0 0,-0.353863 0.40002,0 c 0.446174,0 0.753881,-0.05641 0.923122,-0.169239 0.174365,-0.112826 0.284627,-0.287193 0.330785,-0.523102 0.04615,-0.241037 0.06923,-0.797473 0.06923,-1.669313 l 0,-5.077172 c -2e-6,-0.846186 -0.02564,-1.392366 -0.07693,-1.638541 -0.04616,-0.246156 -0.148726,-0.415396 -0.307707,-0.507718 -0.153855,-0.0923 -0.494897,-0.138457 -1.023127,-0.138468 l -0.20001,0 0,-0.353863 1.715469,-0.04615 1.953941,-0.06154 c 2.851415,1.1e-5 4.277124,0.820562 4.277134,2.461659 -10e-6,0.676964 -0.246175,1.220579 -0.738498,1.63085 -0.487211,0.410282 -1.223144,0.687218 -2.207801,0.830809 m -1.884707,-0.146161 c 0.128207,0.0051 0.235905,0.0077 0.323092,0.0077 1.107742,5e-6 1.864188,-0.174362 2.269342,-0.523103 0.405142,-0.348728 0.607716,-0.912857 0.607722,-1.692391 -6e-6,-0.543607 -0.07949,-0.96414 -0.238473,-1.2616 -0.158988,-0.297441 -0.397461,-0.525656 -0.71542,-0.684648 -0.317969,-0.164101 -0.861585,-0.246156 -1.630849,-0.246167 -0.200013,1.1e-5 -0.405152,0.0077 -0.615414,0.02308 l 0,4.377137 m 0,0.376942 0,2.32319 c -4e-6,0.989795 0.01795,1.61803 0.05385,1.884709 0.0359,0.26668 0.130773,0.469253 0.28463,0.607721 0.158979,0.138469 0.46925,0.207702 0.930815,0.207702 0.820547,0 1.435961,-0.210265 1.846244,-0.6308 0.41027,-0.420531 0.615408,-1.051331 0.615415,-1.8924 -7e-6,-0.861577 -0.233351,-1.49494 -0.700034,-1.900093 -0.461567,-0.410271 -1.276991,-0.61541 -2.446274,-0.615414 -0.184628,4e-6 -0.37951,0.0051 -0.584643,0.01538" />
    <rect
       y="15.857142"
       x="25.285715"
       height="15.857142"
       width="20.571428"
       id="rect25199"
       style="color:#000000;fill:#ffffff;fill-opacity:1;fill-rule:nonzero;stroke:#000000;stroke-width:0.5;marker:none;visibility:visible;display:inline;overflow:visible;enable-background:accumulate" />
    <path
       inkscape:connector-curvature="0"
       id="path25189"
       style="font-size:23.94137001px;font-style:normal;font-variant:normal;font-weight:normal;font-stretch:normal;line-height:125%;letter-spacing:0px;word-spacing:0px;fill:#000000;fill-opacity:1;stroke:none;font-family:Baskerville;-inkscape-font-specification:Baskerville"
       d="m 35.081458,24.915019 0.330786,0 0,3.654025 -0.330786,0 c -0.09232,-0.415404 -0.258997,-0.782088 -0.500024,-1.100053 -0.918003,1.035948 -2.089853,1.553921 -3.515557,1.553921 -1.507771,0 -2.741163,-0.476946 -3.700181,-1.430839 -0.953894,-0.95389 -1.430841,-2.215489 -1.43084,-3.7848 -1e-6,-1.030813 0.220524,-2.000091 0.661571,-2.907835 0.441045,-0.912857 1.05646,-1.589812 1.846244,-2.030869 0.789779,-0.441037 1.656487,-0.66156 2.600127,-0.66157 0.779519,10e-6 1.484682,0.161556 2.115489,0.484639 0.63592,0.317974 1.110301,0.671836 1.423147,1.06159 0.220514,-0.435909 0.353853,-0.887213 0.400019,-1.353912 l 0.338478,0 0.09231,3.95404 -0.330786,0 c -0.23079,-1.40519 -0.702607,-2.38216 -1.415454,-2.930914 -0.707735,-0.548734 -1.507774,-0.823106 -2.400117,-0.823117 -1.092367,1.1e-5 -1.96164,0.443621 -2.60782,1.330835 -0.641061,0.88723 -0.961589,2.156522 -0.961586,3.807878 -3e-6,1.564183 0.351296,2.764241 1.053897,3.600177 0.702595,0.830811 1.576996,1.246215 2.623206,1.246215 0.558995,0 1.130817,-0.135904 1.715469,-0.407713 0.584636,-0.271807 1.046196,-0.730803 1.384683,-1.37699 0.343597,-0.651311 0.546171,-1.279547 0.607722,-1.884708" />
    <path
       inkscape:connector-curvature="0"
       id="path25191"
       style="font-size:23.94137001px;font-style:normal;font-variant:normal;font-weight:normal;font-stretch:normal;line-height:125%;letter-spacing:0px;word-spacing:0px;fill:#000000;fill-opacity:1;stroke:none;font-family:Baskerville;-inkscape-font-specification:Baskerville"
       d="m 36.820004,18.483935 1.715469,-0.08462 c 1.430836,-0.07179 2.394985,-0.107688 2.89245,-0.107699 1.548787,1.1e-5 2.756537,0.23592 3.623254,0.707728 0.866699,0.471827 1.51032,1.112884 1.930864,1.923171 0.42565,0.805175 0.638482,1.735988 0.638492,2.792444 -1e-5,0.764145 -0.115401,1.464179 -0.346171,2.100103 -0.23079,0.630803 -0.548755,1.156469 -0.953892,1.577001 -0.400029,0.415406 -0.866719,0.73337 -1.400069,0.953893 -0.528238,0.215395 -1.030827,0.351299 -1.507766,0.407712 -0.476953,0.05128 -1.14878,0.07693 -2.015483,0.07693 l -4.623304,0 0,-0.353864 0.430791,0 c 0.446174,0 0.753881,-0.05641 0.923122,-0.169239 0.174365,-0.112825 0.284627,-0.287192 0.330785,-0.523102 0.05129,-0.241036 0.07693,-0.797473 0.07693,-1.669312 l 0,-5.031017 c -2e-6,-0.830801 -0.02564,-1.366724 -0.07693,-1.60777 -0.04615,-0.246156 -0.148727,-0.412832 -0.307706,-0.500025 -0.153856,-0.0923 -0.494899,-0.138458 -1.023129,-0.138468 l -0.307707,0 0,-0.353864 m 3.215542,0.215396 0,6.969571 c -3e-6,1.030823 0.01794,1.694957 0.05385,1.992406 0.04102,0.297451 0.156415,0.507718 0.346171,0.6308 0.194877,0.117955 0.60259,0.176932 1.223137,0.176932 0.907731,0 1.65392,-0.123083 2.238572,-0.369249 0.584635,-0.251293 1.071838,-0.74106 1.46161,-1.469303 0.394881,-0.733366 0.592327,-1.666744 0.592336,-2.800137 -9e-6,-0.882088 -0.1154,-1.669306 -0.346171,-2.361654 -0.225661,-0.692334 -0.551317,-1.253899 -0.976971,-1.684698 -0.425669,-0.43591 -0.897487,-0.730795 -1.415454,-0.884658 -0.517979,-0.158973 -1.182115,-0.238464 -1.992405,-0.238474 -0.389767,10e-6 -0.784658,0.01283 -1.184674,0.03846" />
    <path
       transform="matrix(0.92920357,0,0,0.92920357,0.17256607,0.57079631)"
       d="m 49.857141,25.214285 a 24.214285,24.214285 0 1 1 -48.4285693,0 24.214285,24.214285 0 1 1 48.4285693,0 z"
       sodipodi:ry="24.214285"
       sodipodi:rx="24.214285"
       sodipodi:cy="25.214285"
       sodipodi:cx="25.642857"
       id="path24780"
       style="color:#000000;fill:none;fill-opacity:1;stroke:#204a87;stroke-width:3.22857117999999987;stroke-linecap:round;stroke-linejoin:round;stroke-miterlimit:4;stroke-opacity:1;stroke-dasharray:none;stroke-dashoffset:0;marker:none;visibility:visible;display:inline;overflow:visible;enable-background:accumulate"
       sodipodi:type="arc" />
  </g>
</svg>
