<?xml version="1.0" encoding="UTF-8" standalone="no"?>
<!-- Generator: Adobe Illustrator 15.0.0, SVG Export Plug-In . SVG Version: 6.00 Build 0)  -->
<svg
   xmlns:dc="http://purl.org/dc/elements/1.1/"
   xmlns:cc="http://creativecommons.org/ns#"
   xmlns:rdf="http://www.w3.org/1999/02/22-rdf-syntax-ns#"
   xmlns:svg="http://www.w3.org/2000/svg"
   xmlns="http://www.w3.org/2000/svg"
   xmlns:xlink="http://www.w3.org/1999/xlink"
   xmlns:sodipodi="http://sodipodi.sourceforge.net/DTD/sodipodi-0.dtd"
   xmlns:inkscape="http://www.inkscape.org/namespaces/inkscape"
   version="1.0"
   id="Layer_1"
   x="0px"
   y="0px"
   width="48"
   height="48"
   viewBox="0 0 612 792"
   enable-background="new 0 0 612 792"
   xml:space="preserve"
   sodipodi:version="0.32"
   inkscape:version="0.46"
   sodipodi:docname="fish_scales.svg"
   inkscape:output_extension="org.inkscape.output.svg.inkscape"><metadata
   id="metadata4556"><rdf:RDF><cc:Work
       rdf:about=""><dc:format>image/svg+xml</dc:format><dc:type
         rdf:resource="http://purl.org/dc/dcmitype/StillImage" /></cc:Work></rdf:RDF></metadata><defs
   id="defs4554"><inkscape:perspective
   sodipodi:type="inkscape:persp3d"
   inkscape:vp_x="0 : 396 : 1"
   inkscape:vp_y="0 : 1000 : 0"
   inkscape:vp_z="612 : 396 : 1"
   inkscape:persp3d-origin="306 : 264 : 1"
   id="perspective4558" />
	
	

		
		
		
	
			<defs
   id="defs4148">
				<rect
   height="54.125"
   width="44.877998"
   y="373.418"
   x="164.53101"
   id="SVGID_1_" />
			</defs>
			
			
			
			
			
			
			
			
			
			
			
			
			
			
			
			
			
			
			
			
		<radialGradient
   inkscape:collect="always"
   xlink:href="#SVGID_21_"
   id="radialGradient5283"
   gradientUnits="userSpaceOnUse"
   gradientTransform="matrix(1,0,0,1.2028,0,-85.6532)"
   cx="178.2744"
   cy="431.55759"
   r="12.9477" /><radialGradient
   inkscape:collect="always"
   xlink:href="#SVGID_20_"
   id="radialGradient5285"
   gradientUnits="userSpaceOnUse"
   gradientTransform="matrix(1,0,0,1.2028,0,-85.6532)"
   cx="155.23579"
   cy="431.66599"
   r="12.9472" /><radialGradient
   inkscape:collect="always"
   xlink:href="#SVGID_19_"
   id="radialGradient5287"
   gradientUnits="userSpaceOnUse"
   gradientTransform="matrix(1,0,0,1.2028,0,-85.6532)"
   cx="167.0645"
   cy="426.12299"
   r="12.9465" /><radialGradient
   inkscape:collect="always"
   xlink:href="#SVGID_18_"
   id="radialGradient5289"
   gradientUnits="userSpaceOnUse"
   gradientTransform="matrix(1,0,0,1.2028,0,-85.6532)"
   cx="155.1431"
   cy="420.90631"
   r="12.9467" /><radialGradient
   inkscape:collect="always"
   xlink:href="#SVGID_17_"
   id="radialGradient5291"
   gradientUnits="userSpaceOnUse"
   gradientTransform="matrix(1,0,0,1.2028,0,-85.6532)"
   cx="201.05811"
   cy="431.89261"
   r="12.9461" /><radialGradient
   inkscape:collect="always"
   xlink:href="#SVGID_16_"
   id="radialGradient5293"
   gradientUnits="userSpaceOnUse"
   gradientTransform="matrix(1,0,0,1.2028,0,-85.6532)"
   cx="189.5083"
   cy="425.9805"
   r="12.9472" /><radialGradient
   inkscape:collect="always"
   xlink:href="#SVGID_15_"
   id="radialGradient5295"
   gradientUnits="userSpaceOnUse"
   gradientTransform="matrix(1,0,0,1.2028,0,-85.6532)"
   cx="212.41991"
   cy="426.35449"
   r="12.9478" /><radialGradient
   inkscape:collect="always"
   xlink:href="#SVGID_14_"
   id="radialGradient5297"
   gradientUnits="userSpaceOnUse"
   gradientTransform="matrix(1,0,0,1.2028,0,-85.6532)"
   cx="200.45309"
   cy="420.71881"
   r="12.9454" /><radialGradient
   inkscape:collect="always"
   xlink:href="#SVGID_13_"
   id="radialGradient5299"
   gradientUnits="userSpaceOnUse"
   gradientTransform="matrix(1,0,0,1.2028,0,-85.6532)"
   cx="212.32761"
   cy="415.59671"
   r="12.9471" /><radialGradient
   inkscape:collect="always"
   xlink:href="#SVGID_12_"
   id="radialGradient5301"
   gradientUnits="userSpaceOnUse"
   gradientTransform="matrix(1,0,0,1.2028,0,-85.6532)"
   cx="177.42329"
   cy="421.71881"
   r="12.9471" /><radialGradient
   inkscape:collect="always"
   xlink:href="#SVGID_11_"
   id="radialGradient5303"
   gradientUnits="userSpaceOnUse"
   gradientTransform="matrix(1,0,0,1.2028,0,-85.6532)"
   cx="166.0601"
   cy="416.50201"
   r="12.9478" /><radialGradient
   inkscape:collect="always"
   xlink:href="#SVGID_10_"
   id="radialGradient5305"
   gradientUnits="userSpaceOnUse"
   gradientTransform="matrix(1,0,0,1.2028,0,-85.6532)"
   cx="188.7852"
   cy="416.31741"
   r="12.9467" /><radialGradient
   inkscape:collect="always"
   xlink:href="#SVGID_9_"
   id="radialGradient5307"
   gradientUnits="userSpaceOnUse"
   gradientTransform="matrix(1,0,0,1.2028,0,-85.6532)"
   cx="200.14841"
   cy="410.543"
   r="12.9465" /><radialGradient
   inkscape:collect="always"
   xlink:href="#SVGID_8_"
   id="radialGradient5309"
   gradientUnits="userSpaceOnUse"
   gradientTransform="matrix(1,0,0,1.2028,0,-85.6532)"
   cx="154.51221"
   cy="410.668"
   r="12.9461" /><radialGradient
   inkscape:collect="always"
   xlink:href="#SVGID_7_"
   id="radialGradient5311"
   gradientUnits="userSpaceOnUse"
   gradientTransform="matrix(1,0,0,1.2028,0,-85.6532)"
   cx="177.42329"
   cy="410.72949"
   r="12.9472" /><radialGradient
   inkscape:collect="always"
   xlink:href="#SVGID_6_"
   id="radialGradient5313"
   gradientUnits="userSpaceOnUse"
   gradientTransform="matrix(1,0,0,1.2028,0,-85.6532)"
   cx="189.25"
   cy="405.18549"
   r="12.9467" /><radialGradient
   inkscape:collect="always"
   xlink:href="#SVGID_5_"
   id="radialGradient5315"
   gradientUnits="userSpaceOnUse"
   gradientTransform="matrix(1,0,0,1.2028,0,-85.6532)"
   cx="165.45509"
   cy="405.0918"
   r="12.9467" /><radialGradient
   inkscape:collect="always"
   xlink:href="#SVGID_4_"
   id="radialGradient5317"
   gradientUnits="userSpaceOnUse"
   gradientTransform="matrix(1,0,0,1.2028,0,-85.6532)"
   cx="177.3306"
   cy="399.9697"
   r="12.9461" /><radialGradient
   inkscape:collect="always"
   xlink:href="#SVGID_3_"
   id="radialGradient5319"
   gradientUnits="userSpaceOnUse"
   gradientTransform="matrix(1,0,0,1.2028,0,-85.6532)"
   cx="211.9512"
   cy="405.3916"
   r="12.9478" />
				
				
					<radialGradient
   id="SVGID_21_"
   cx="178.2744"
   cy="431.55759"
   r="12.9477"
   gradientTransform="matrix(1,0,0,1.2028,0,-85.6532)"
   gradientUnits="userSpaceOnUse">
					<stop
   offset="0"
   style="stop-color:#FFF462;stop-opacity:0.95"
   id="stop4537" />
					<stop
   offset="0.1159"
   style="stop-color:#FFF467;stop-opacity:0.7788"
   id="stop4539" />
					<stop
   offset="0.2023"
   style="stop-color:#FFF570;stop-opacity:0.6512"
   id="stop4541" />
					<stop
   offset="0.3021"
   style="stop-color:#FFF67E;stop-opacity:0.36"
   id="stop4543" />
					<stop
   offset="0.4256"
   style="stop-color:#FFF68B;stop-opacity:0"
   id="stop4545" />
				</radialGradient>
				
				
				
			<radialGradient
   inkscape:collect="always"
   xlink:href="#SVGID_21_"
   id="radialGradient5839"
   gradientUnits="userSpaceOnUse"
   gradientTransform="matrix(16.911913,0,0,20.341649,-2852.8755,-7914.8569)"
   cx="178.2744"
   cy="431.55759"
   r="12.9477" />
				
				
					<radialGradient
   id="SVGID_20_"
   cx="155.23579"
   cy="431.66599"
   r="12.9472"
   gradientTransform="matrix(1,0,0,1.2028,0,-85.6532)"
   gradientUnits="userSpaceOnUse">
					<stop
   offset="0"
   style="stop-color:#FFF462;stop-opacity:0.95"
   id="stop4516" />
					<stop
   offset="0.1159"
   style="stop-color:#FFF467;stop-opacity:0.7788"
   id="stop4518" />
					<stop
   offset="0.2023"
   style="stop-color:#FFF570;stop-opacity:0.6512"
   id="stop4520" />
					<stop
   offset="0.3021"
   style="stop-color:#FFF67E;stop-opacity:0.36"
   id="stop4522" />
					<stop
   offset="0.4256"
   style="stop-color:#FFF68B;stop-opacity:0"
   id="stop4524" />
				</radialGradient>
				
				
				
			<radialGradient
   inkscape:collect="always"
   xlink:href="#SVGID_20_"
   id="radialGradient5851"
   gradientUnits="userSpaceOnUse"
   gradientTransform="matrix(16.911913,0,0,20.341649,-2852.8755,-7914.8569)"
   cx="155.23579"
   cy="431.66599"
   r="12.9472" />
				
				
					<radialGradient
   id="SVGID_19_"
   cx="167.0645"
   cy="426.12299"
   r="12.9465"
   gradientTransform="matrix(1,0,0,1.2028,0,-85.6532)"
   gradientUnits="userSpaceOnUse">
					<stop
   offset="0"
   style="stop-color:#FFF462;stop-opacity:0.95"
   id="stop4495" />
					<stop
   offset="0.1159"
   style="stop-color:#FFF467;stop-opacity:0.7788"
   id="stop4497" />
					<stop
   offset="0.2023"
   style="stop-color:#FFF570;stop-opacity:0.6512"
   id="stop4499" />
					<stop
   offset="0.3021"
   style="stop-color:#FFF67E;stop-opacity:0.36"
   id="stop4501" />
					<stop
   offset="0.4256"
   style="stop-color:#FFF68B;stop-opacity:0"
   id="stop4503" />
				</radialGradient>
				
				
				
			<radialGradient
   inkscape:collect="always"
   xlink:href="#SVGID_19_"
   id="radialGradient5863"
   gradientUnits="userSpaceOnUse"
   gradientTransform="matrix(16.911913,0,0,20.341649,-2852.8755,-7914.8569)"
   cx="167.0645"
   cy="426.12299"
   r="12.9465" />
				
				
					<radialGradient
   id="SVGID_18_"
   cx="155.1431"
   cy="420.90631"
   r="12.9467"
   gradientTransform="matrix(1,0,0,1.2028,0,-85.6532)"
   gradientUnits="userSpaceOnUse">
					<stop
   offset="0"
   style="stop-color:#FFF462;stop-opacity:0.95"
   id="stop4474" />
					<stop
   offset="0.1159"
   style="stop-color:#FFF467;stop-opacity:0.7788"
   id="stop4476" />
					<stop
   offset="0.2023"
   style="stop-color:#FFF570;stop-opacity:0.6512"
   id="stop4478" />
					<stop
   offset="0.3021"
   style="stop-color:#FFF67E;stop-opacity:0.36"
   id="stop4480" />
					<stop
   offset="0.4256"
   style="stop-color:#FFF68B;stop-opacity:0"
   id="stop4482" />
				</radialGradient>
				
				
				
			<radialGradient
   inkscape:collect="always"
   xlink:href="#SVGID_18_"
   id="radialGradient5875"
   gradientUnits="userSpaceOnUse"
   gradientTransform="matrix(16.911913,0,0,20.341649,-2852.8755,-7914.8569)"
   cx="155.1431"
   cy="420.90631"
   r="12.9467" />
				
				
					<radialGradient
   id="SVGID_17_"
   cx="201.05811"
   cy="431.89261"
   r="12.9461"
   gradientTransform="matrix(1,0,0,1.2028,0,-85.6532)"
   gradientUnits="userSpaceOnUse">
					<stop
   offset="0"
   style="stop-color:#FFF462;stop-opacity:0.95"
   id="stop4453" />
					<stop
   offset="0.1159"
   style="stop-color:#FFF467;stop-opacity:0.7788"
   id="stop4455" />
					<stop
   offset="0.2023"
   style="stop-color:#FFF570;stop-opacity:0.6512"
   id="stop4457" />
					<stop
   offset="0.3021"
   style="stop-color:#FFF67E;stop-opacity:0.36"
   id="stop4459" />
					<stop
   offset="0.4256"
   style="stop-color:#FFF68B;stop-opacity:0"
   id="stop4461" />
				</radialGradient>
				
				
				
			<radialGradient
   inkscape:collect="always"
   xlink:href="#SVGID_17_"
   id="radialGradient5887"
   gradientUnits="userSpaceOnUse"
   gradientTransform="matrix(16.911913,0,0,20.341649,-2852.8755,-7914.8569)"
   cx="201.05811"
   cy="431.89261"
   r="12.9461" />
				
				
					<radialGradient
   id="SVGID_16_"
   cx="189.5083"
   cy="425.9805"
   r="12.9472"
   gradientTransform="matrix(1,0,0,1.2028,0,-85.6532)"
   gradientUnits="userSpaceOnUse">
					<stop
   offset="0"
   style="stop-color:#FFF462;stop-opacity:0.95"
   id="stop4432" />
					<stop
   offset="0.1159"
   style="stop-color:#FFF467;stop-opacity:0.7788"
   id="stop4434" />
					<stop
   offset="0.2023"
   style="stop-color:#FFF570;stop-opacity:0.6512"
   id="stop4436" />
					<stop
   offset="0.3021"
   style="stop-color:#FFF67E;stop-opacity:0.36"
   id="stop4438" />
					<stop
   offset="0.4256"
   style="stop-color:#FFF68B;stop-opacity:0"
   id="stop4440" />
				</radialGradient>
				
				
				
			<radialGradient
   inkscape:collect="always"
   xlink:href="#SVGID_16_"
   id="radialGradient5899"
   gradientUnits="userSpaceOnUse"
   gradientTransform="matrix(16.911913,0,0,20.341649,-2852.8755,-7914.8569)"
   cx="189.5083"
   cy="425.9805"
   r="12.9472" />
				
				
					<radialGradient
   id="SVGID_15_"
   cx="212.41991"
   cy="426.35449"
   r="12.9478"
   gradientTransform="matrix(1,0,0,1.2028,0,-85.6532)"
   gradientUnits="userSpaceOnUse">
					<stop
   offset="0"
   style="stop-color:#FFF462;stop-opacity:0.95"
   id="stop4411" />
					<stop
   offset="0.1159"
   style="stop-color:#FFF467;stop-opacity:0.7788"
   id="stop4413" />
					<stop
   offset="0.2023"
   style="stop-color:#FFF570;stop-opacity:0.6512"
   id="stop4415" />
					<stop
   offset="0.3021"
   style="stop-color:#FFF67E;stop-opacity:0.36"
   id="stop4417" />
					<stop
   offset="0.4256"
   style="stop-color:#FFF68B;stop-opacity:0"
   id="stop4419" />
				</radialGradient>
				
				
				
			<radialGradient
   inkscape:collect="always"
   xlink:href="#SVGID_15_"
   id="radialGradient5911"
   gradientUnits="userSpaceOnUse"
   gradientTransform="matrix(16.911913,0,0,20.341649,-2852.8755,-7914.8569)"
   cx="212.41991"
   cy="426.35449"
   r="12.9478" />
				
				
					<radialGradient
   id="SVGID_14_"
   cx="200.45309"
   cy="420.71881"
   r="12.9454"
   gradientTransform="matrix(1,0,0,1.2028,0,-85.6532)"
   gradientUnits="userSpaceOnUse">
					<stop
   offset="0"
   style="stop-color:#FFF462;stop-opacity:0.95"
   id="stop4390" />
					<stop
   offset="0.1159"
   style="stop-color:#FFF467;stop-opacity:0.7788"
   id="stop4392" />
					<stop
   offset="0.2023"
   style="stop-color:#FFF570;stop-opacity:0.6512"
   id="stop4394" />
					<stop
   offset="0.3021"
   style="stop-color:#FFF67E;stop-opacity:0.36"
   id="stop4396" />
					<stop
   offset="0.4256"
   style="stop-color:#FFF68B;stop-opacity:0"
   id="stop4398" />
				</radialGradient>
				
				
				
			<radialGradient
   inkscape:collect="always"
   xlink:href="#SVGID_14_"
   id="radialGradient5923"
   gradientUnits="userSpaceOnUse"
   gradientTransform="matrix(16.911913,0,0,20.341649,-2852.8755,-7914.8569)"
   cx="200.45309"
   cy="420.71881"
   r="12.9454" />
				
				
					<radialGradient
   id="SVGID_13_"
   cx="212.32761"
   cy="415.59671"
   r="12.9471"
   gradientTransform="matrix(1,0,0,1.2028,0,-85.6532)"
   gradientUnits="userSpaceOnUse">
					<stop
   offset="0"
   style="stop-color:#FFF462;stop-opacity:0.95"
   id="stop4369" />
					<stop
   offset="0.1159"
   style="stop-color:#FFF467;stop-opacity:0.7788"
   id="stop4371" />
					<stop
   offset="0.2023"
   style="stop-color:#FFF570;stop-opacity:0.6512"
   id="stop4373" />
					<stop
   offset="0.3021"
   style="stop-color:#FFF67E;stop-opacity:0.36"
   id="stop4375" />
					<stop
   offset="0.4256"
   style="stop-color:#FFF68B;stop-opacity:0"
   id="stop4377" />
				</radialGradient>
				
				
				
			<radialGradient
   inkscape:collect="always"
   xlink:href="#SVGID_13_"
   id="radialGradient5935"
   gradientUnits="userSpaceOnUse"
   gradientTransform="matrix(16.911913,0,0,20.341649,-2852.8755,-7914.8569)"
   cx="212.32761"
   cy="415.59671"
   r="12.9471" />
				
				
					<radialGradient
   id="SVGID_12_"
   cx="177.42329"
   cy="421.71881"
   r="12.9471"
   gradientTransform="matrix(1,0,0,1.2028,0,-85.6532)"
   gradientUnits="userSpaceOnUse">
					<stop
   offset="0"
   style="stop-color:#FFF462;stop-opacity:0.95"
   id="stop4348" />
					<stop
   offset="0.1159"
   style="stop-color:#FFF467;stop-opacity:0.7788"
   id="stop4350" />
					<stop
   offset="0.2023"
   style="stop-color:#FFF570;stop-opacity:0.6512"
   id="stop4352" />
					<stop
   offset="0.3021"
   style="stop-color:#FFF67E;stop-opacity:0.36"
   id="stop4354" />
					<stop
   offset="0.4256"
   style="stop-color:#FFF68B;stop-opacity:0"
   id="stop4356" />
				</radialGradient>
				
				
				
			<radialGradient
   inkscape:collect="always"
   xlink:href="#SVGID_12_"
   id="radialGradient5947"
   gradientUnits="userSpaceOnUse"
   gradientTransform="matrix(16.911913,0,0,20.341649,-2852.8755,-7914.8569)"
   cx="177.42329"
   cy="421.71881"
   r="12.9471" />
				
				
					<radialGradient
   id="SVGID_11_"
   cx="166.0601"
   cy="416.50201"
   r="12.9478"
   gradientTransform="matrix(1,0,0,1.2028,0,-85.6532)"
   gradientUnits="userSpaceOnUse">
					<stop
   offset="0"
   style="stop-color:#FFF462;stop-opacity:0.95"
   id="stop4327" />
					<stop
   offset="0.1159"
   style="stop-color:#FFF467;stop-opacity:0.7788"
   id="stop4329" />
					<stop
   offset="0.2023"
   style="stop-color:#FFF570;stop-opacity:0.6512"
   id="stop4331" />
					<stop
   offset="0.3021"
   style="stop-color:#FFF67E;stop-opacity:0.36"
   id="stop4333" />
					<stop
   offset="0.4256"
   style="stop-color:#FFF68B;stop-opacity:0"
   id="stop4335" />
				</radialGradient>
				
				
				
			<radialGradient
   inkscape:collect="always"
   xlink:href="#SVGID_11_"
   id="radialGradient5959"
   gradientUnits="userSpaceOnUse"
   gradientTransform="matrix(16.911913,0,0,20.341649,-2852.8755,-7914.8569)"
   cx="166.0601"
   cy="416.50201"
   r="12.9478" />
				
				
					<radialGradient
   id="SVGID_10_"
   cx="188.7852"
   cy="416.31741"
   r="12.9467"
   gradientTransform="matrix(1,0,0,1.2028,0,-85.6532)"
   gradientUnits="userSpaceOnUse">
					<stop
   offset="0"
   style="stop-color:#FFF462;stop-opacity:0.95"
   id="stop4306" />
					<stop
   offset="0.1159"
   style="stop-color:#FFF467;stop-opacity:0.7788"
   id="stop4308" />
					<stop
   offset="0.2023"
   style="stop-color:#FFF570;stop-opacity:0.6512"
   id="stop4310" />
					<stop
   offset="0.3021"
   style="stop-color:#FFF67E;stop-opacity:0.36"
   id="stop4312" />
					<stop
   offset="0.4256"
   style="stop-color:#FFF68B;stop-opacity:0"
   id="stop4314" />
				</radialGradient>
				
				
				
			<radialGradient
   inkscape:collect="always"
   xlink:href="#SVGID_10_"
   id="radialGradient5971"
   gradientUnits="userSpaceOnUse"
   gradientTransform="matrix(16.911913,0,0,20.341649,-2852.8755,-7914.8569)"
   cx="188.7852"
   cy="416.31741"
   r="12.9467" />
				
				
					<radialGradient
   id="SVGID_9_"
   cx="200.14841"
   cy="410.543"
   r="12.9465"
   gradientTransform="matrix(1,0,0,1.2028,0,-85.6532)"
   gradientUnits="userSpaceOnUse">
					<stop
   offset="0"
   style="stop-color:#FFF462;stop-opacity:0.95"
   id="stop4285" />
					<stop
   offset="0.1159"
   style="stop-color:#FFF467;stop-opacity:0.7788"
   id="stop4287" />
					<stop
   offset="0.2023"
   style="stop-color:#FFF570;stop-opacity:0.6512"
   id="stop4289" />
					<stop
   offset="0.3021"
   style="stop-color:#FFF67E;stop-opacity:0.36"
   id="stop4291" />
					<stop
   offset="0.4256"
   style="stop-color:#FFF68B;stop-opacity:0"
   id="stop4293" />
				</radialGradient>
				
				
				
			<radialGradient
   inkscape:collect="always"
   xlink:href="#SVGID_9_"
   id="radialGradient5983"
   gradientUnits="userSpaceOnUse"
   gradientTransform="matrix(16.911913,0,0,20.341649,-2852.8755,-7914.8569)"
   cx="200.14841"
   cy="410.543"
   r="12.9465" />
				
				
					<radialGradient
   id="SVGID_8_"
   cx="154.51221"
   cy="410.668"
   r="12.9461"
   gradientTransform="matrix(1,0,0,1.2028,0,-85.6532)"
   gradientUnits="userSpaceOnUse">
					<stop
   offset="0"
   style="stop-color:#FFF462;stop-opacity:0.95"
   id="stop4264" />
					<stop
   offset="0.1159"
   style="stop-color:#FFF467;stop-opacity:0.7788"
   id="stop4266" />
					<stop
   offset="0.2023"
   style="stop-color:#FFF570;stop-opacity:0.6512"
   id="stop4268" />
					<stop
   offset="0.3021"
   style="stop-color:#FFF67E;stop-opacity:0.36"
   id="stop4270" />
					<stop
   offset="0.4256"
   style="stop-color:#FFF68B;stop-opacity:0"
   id="stop4272" />
				</radialGradient>
				
				
				
			<radialGradient
   inkscape:collect="always"
   xlink:href="#SVGID_8_"
   id="radialGradient5995"
   gradientUnits="userSpaceOnUse"
   gradientTransform="matrix(16.911913,0,0,20.341649,-2852.8755,-7914.8569)"
   cx="154.51221"
   cy="410.668"
   r="12.9461" />
				
				
					<radialGradient
   id="SVGID_7_"
   cx="177.42329"
   cy="410.72949"
   r="12.9472"
   gradientTransform="matrix(1,0,0,1.2028,0,-85.6532)"
   gradientUnits="userSpaceOnUse">
					<stop
   offset="0"
   style="stop-color:#FFF462;stop-opacity:0.95"
   id="stop4243" />
					<stop
   offset="0.1159"
   style="stop-color:#FFF467;stop-opacity:0.7788"
   id="stop4245" />
					<stop
   offset="0.2023"
   style="stop-color:#FFF570;stop-opacity:0.6512"
   id="stop4247" />
					<stop
   offset="0.3021"
   style="stop-color:#FFF67E;stop-opacity:0.36"
   id="stop4249" />
					<stop
   offset="0.4256"
   style="stop-color:#FFF68B;stop-opacity:0"
   id="stop4251" />
				</radialGradient>
				
				
				
			<radialGradient
   inkscape:collect="always"
   xlink:href="#SVGID_7_"
   id="radialGradient6007"
   gradientUnits="userSpaceOnUse"
   gradientTransform="matrix(16.911913,0,0,20.341649,-2852.8755,-7914.8569)"
   cx="177.42329"
   cy="410.72949"
   r="12.9472" />
				
				
					<radialGradient
   id="SVGID_6_"
   cx="189.25"
   cy="405.18549"
   r="12.9467"
   gradientTransform="matrix(1,0,0,1.2028,0,-85.6532)"
   gradientUnits="userSpaceOnUse">
					<stop
   offset="0"
   style="stop-color:#FFF462;stop-opacity:0.95"
   id="stop4222" />
					<stop
   offset="0.1159"
   style="stop-color:#FFF467;stop-opacity:0.7788"
   id="stop4224" />
					<stop
   offset="0.2023"
   style="stop-color:#FFF570;stop-opacity:0.6512"
   id="stop4226" />
					<stop
   offset="0.3021"
   style="stop-color:#FFF67E;stop-opacity:0.36"
   id="stop4228" />
					<stop
   offset="0.4256"
   style="stop-color:#FFF68B;stop-opacity:0"
   id="stop4230" />
				</radialGradient>
				
				
				
			<radialGradient
   inkscape:collect="always"
   xlink:href="#SVGID_6_"
   id="radialGradient6019"
   gradientUnits="userSpaceOnUse"
   gradientTransform="matrix(16.911913,0,0,20.341649,-2852.8755,-7914.8569)"
   cx="189.25"
   cy="405.18549"
   r="12.9467" />
				
				
					<radialGradient
   id="SVGID_5_"
   cx="165.45509"
   cy="405.0918"
   r="12.9467"
   gradientTransform="matrix(1,0,0,1.2028,0,-85.6532)"
   gradientUnits="userSpaceOnUse">
					<stop
   offset="0"
   style="stop-color:#FFF462;stop-opacity:0.95"
   id="stop4201" />
					<stop
   offset="0.1159"
   style="stop-color:#FFF467;stop-opacity:0.7788"
   id="stop4203" />
					<stop
   offset="0.2023"
   style="stop-color:#FFF570;stop-opacity:0.6512"
   id="stop4205" />
					<stop
   offset="0.3021"
   style="stop-color:#FFF67E;stop-opacity:0.36"
   id="stop4207" />
					<stop
   offset="0.4256"
   style="stop-color:#FFF68B;stop-opacity:0"
   id="stop4209" />
				</radialGradient>
				
				
				
			<radialGradient
   inkscape:collect="always"
   xlink:href="#SVGID_5_"
   id="radialGradient6031"
   gradientUnits="userSpaceOnUse"
   gradientTransform="matrix(16.911913,0,0,20.341649,-2852.8755,-7914.8569)"
   cx="165.45509"
   cy="405.0918"
   r="12.9467" />
				
				
					<radialGradient
   id="SVGID_4_"
   cx="177.3306"
   cy="399.9697"
   r="12.9461"
   gradientTransform="matrix(1,0,0,1.2028,0,-85.6532)"
   gradientUnits="userSpaceOnUse">
					<stop
   offset="0"
   style="stop-color:#FFF462;stop-opacity:0.95"
   id="stop4180" />
					<stop
   offset="0.1159"
   style="stop-color:#FFF467;stop-opacity:0.7788"
   id="stop4182" />
					<stop
   offset="0.2023"
   style="stop-color:#FFF570;stop-opacity:0.6512"
   id="stop4184" />
					<stop
   offset="0.3021"
   style="stop-color:#FFF67E;stop-opacity:0.36"
   id="stop4186" />
					<stop
   offset="0.4256"
   style="stop-color:#FFF68B;stop-opacity:0"
   id="stop4188" />
				</radialGradient>
				
				
				
			<radialGradient
   inkscape:collect="always"
   xlink:href="#SVGID_4_"
   id="radialGradient6043"
   gradientUnits="userSpaceOnUse"
   gradientTransform="matrix(16.911913,0,0,20.341649,-2852.8755,-7914.8569)"
   cx="177.3306"
   cy="399.9697"
   r="12.9461" />
				
				
					<radialGradient
   id="SVGID_3_"
   cx="211.9512"
   cy="405.3916"
   r="12.9478"
   gradientTransform="matrix(1,0,0,1.2028,0,-85.6532)"
   gradientUnits="userSpaceOnUse">
					<stop
   offset="0"
   style="stop-color:#FFF462;stop-opacity:0.95"
   id="stop4159" />
					<stop
   offset="0.1159"
   style="stop-color:#FFF467;stop-opacity:0.7788"
   id="stop4161" />
					<stop
   offset="0.2023"
   style="stop-color:#FFF570;stop-opacity:0.6512"
   id="stop4163" />
					<stop
   offset="0.3021"
   style="stop-color:#FFF67E;stop-opacity:0.36"
   id="stop4165" />
					<stop
   offset="0.4256"
   style="stop-color:#FFF68B;stop-opacity:0"
   id="stop4167" />
				</radialGradient>
				
				
				
			<radialGradient
   inkscape:collect="always"
   xlink:href="#SVGID_3_"
   id="radialGradient6055"
   gradientUnits="userSpaceOnUse"
   gradientTransform="matrix(16.911913,0,0,20.341649,-2852.8755,-7914.8569)"
   cx="211.9512"
   cy="405.3916"
   r="12.9478" /></defs><sodipodi:namedview
   inkscape:window-height="1538"
   inkscape:window-width="2560"
   inkscape:pageshadow="2"
   inkscape:pageopacity="0.0"
   guidetolerance="10.0"
   gridtolerance="10.0"
   objecttolerance="10.0"
   borderopacity="1.0"
   bordercolor="#666666"
   pagecolor="#ffffff"
   id="base"
   showgrid="false"
   inkscape:zoom="9.3333333"
   inkscape:cx="4.2211039"
   inkscape:cy="22.948261"
   inkscape:window-x="0"
   inkscape:window-y="24"
   inkscape:current-layer="Layer_1" />
<polyline
   stroke-miterlimit="10"
   points="    209.373,390.175 209.373,427.628 164.492,427.628 164.492,389.228   "
   id="polyline4144"
   style="fill:none;stroke:#f1e481;stroke-linecap:round;stroke-linejoin:round;stroke-miterlimit:10"
   transform="matrix(16.911913,0,0,16.911913,-2852.8755,-6466.2974)" /><path
   d="M 732.11189,116.7157 C 895.85303,116.7157 912.40979,236.99323 912.40979,236.99323 C 779.22848,244.46829 756.95548,354.80161 756.95548,354.80161 L 732.11189,354.80161 C 732.07806,354.80161 707.20064,354.80161 707.20064,354.80161 C 707.20064,354.80161 683.87911,244.48521 553.2684,236.99323 C 553.28531,236.99323 568.30309,116.7157 732.11189,116.7157 z"
   id="path4156"
   style="fill:#7e7112" /><path
   d="M 732.11189,116.7157 C 895.85303,116.7157 912.44362,236.99323 912.44362,236.99323 C 779.22848,244.46829 756.9724,354.80161 756.9724,354.80161 L 732.11189,354.80161 L 707.20064,354.80161 C 707.20064,354.80161 683.87911,244.48521 553.2684,236.99323 C 553.28531,236.99323 568.30309,116.7157 732.11189,116.7157 z"
   id="path4169"
   style="fill:url(#radialGradient6055)" /><path
   d="M 731.45232,116.39437 C 886.68677,116.39437 902.39794,213.80699 902.39794,213.80699 C 806.79489,107.73547 649.39571,110.0355 561.9273,213.80699 C 561.94421,213.80699 576.18404,116.39437 731.45232,116.39437 z"
   id="path4171"
   style="fill:#ebdd60" /><path
   d="M 731.4185,128.99374 C 890.01842,128.99374 906.06782,225.18871 906.06782,225.18871 C 808.38462,120.43632 647.63688,122.70251 558.27432,225.18871 C 558.27432,225.18871 572.85239,128.99374 731.4185,128.99374 z"
   id="path4173"
   style="fill:#fffcdf" /><path
   d="M 146.58762,6.4161959 C 310.34568,6.4161959 326.91935,126.74446 326.91935,126.74446 C 193.72112,134.16879 171.46504,244.50212 171.46504,244.50212 L 146.58762,244.50212 L 121.69328,244.50212 C 121.69328,244.50212 98.371752,134.1857 -32.238956,126.74446 C -32.222044,126.76137 -17.204265,6.4161959 146.58762,6.4161959 z"
   id="path4177"
   style="fill:#9a7900" /><path
   d="M 146.62144,6.4161959 C 310.3795,6.4161959 326.91935,126.74446 326.91935,126.74446 C 193.72112,134.16879 171.46504,244.50212 171.46504,244.50212 L 146.62144,244.50212 C 146.58762,244.50212 121.69328,244.50212 121.69328,244.50212 C 121.69328,244.50212 98.405576,134.1857 -32.205132,126.74446 C -32.18822,126.76137 -17.170441,6.4161959 146.62144,6.4161959 z"
   id="path4190"
   style="fill:url(#radialGradient6043)" /><path
   d="M 145.94496,6.1625171 C 301.21324,6.1625171 316.92441,103.50749 316.92441,103.50749 C 221.27062,-2.5302063 63.922184,-0.21327421 -23.596969,103.50749 C -23.596969,103.50749 -9.3402253,6.1625171 145.94496,6.1625171 z"
   id="path4192"
   style="fill:#ebdd60" /><path
   d="M 145.94496,18.761893 C 304.51107,18.761893 320.59429,114.88921 320.59429,114.88921 C 222.89417,10.187553 62.146433,12.436837 -27.249942,114.88921 C -27.23303,114.88921 -12.688784,18.761893 145.94496,18.761893 z"
   id="path4194"
   style="fill:#fffcdf" /><path
   d="M -54.207532,110.64432 C 109.53361,110.64432 126.10729,230.95568 126.10729,230.95568 C -7.0740289,238.39692 -29.363931,348.71333 -29.363931,348.71333 L -54.207532,348.71333 C -54.241355,348.71333 -79.101868,348.71333 -79.101868,348.71333 C -79.101868,348.71333 -102.4234,238.41383 -233.03411,230.95568 C -233.03411,230.95568 -218.01633,110.64432 -54.207532,110.64432 z"
   id="path4198"
   style="fill:#9a7900" /><path
   d="M -54.207532,110.64432 C 109.53361,110.64432 126.10729,230.95568 126.10729,230.95568 C -7.0740289,238.39692 -29.363931,348.71333 -29.363931,348.71333 L -54.207532,348.71333 C -54.241355,348.71333 -79.101868,348.71333 -79.101868,348.71333 C -79.101868,348.71333 -102.4234,238.41383 -233.03411,230.95568 C -233.03411,230.95568 -218.01633,110.64432 -54.207532,110.64432 z"
   id="path4211"
   style="fill:url(#radialGradient6031)" /><path
   d="M -54.850184,110.3399 C 100.36736,110.3399 116.09544,207.75253 116.09544,207.75253 C 20.475478,101.66409 -136.9237,103.96411 -224.42594,207.75253 C -224.42594,207.75253 -210.15228,110.3399 -54.850184,110.3399 z"
   id="path4213"
   style="fill:#ebdd60" /><path
   d="M -54.884008,122.92237 C 103.68209,122.92237 119.74842,219.11733 119.74842,219.11733 C 22.048286,114.41567 -138.68254,116.64805 -228.07891,219.11733 C -228.07891,219.11733 -213.53467,122.92237 -54.884008,122.92237 z"
   id="path4215"
   style="fill:#fffcdf" /><path
   d="M 348.21145,112.53845 C 511.96951,112.53845 528.50936,232.84981 528.50936,232.84981 C 395.32804,240.30796 373.07196,350.62437 373.07196,350.62437 L 348.21145,350.62437 L 323.30021,350.62437 C 323.30021,350.62437 299.97867,240.32488 169.36796,232.84981 C 169.38488,232.84981 184.40266,112.53845 348.21145,112.53845 z"
   id="path4219"
   style="fill:#89740b" /><path
   d="M 348.22836,112.53845 C 511.96951,112.53845 528.50936,232.84981 528.50936,232.84981 C 395.32804,240.30796 373.07196,350.62437 373.07196,350.62437 L 348.22836,350.62437 L 323.30021,350.62437 C 323.30021,350.62437 300.0125,240.32488 169.36796,232.84981 C 169.38488,232.84981 184.43648,112.53845 348.22836,112.53845 z"
   id="path4232"
   style="fill:url(#radialGradient6019)" /><path
   d="M 347.55188,112.23404 C 502.78634,112.23404 518.51442,209.64666 518.51442,209.64666 C 422.89446,103.57514 265.52911,105.85825 178.00996,209.64666 C 178.02687,209.64666 192.26669,112.23404 347.55188,112.23404 z"
   id="path4234"
   style="fill:#ebdd60" /><path
   d="M 347.53497,124.83341 C 506.13489,124.83341 522.16739,221.02838 522.16739,221.02838 C 424.50109,116.2929 263.77027,118.55909 174.37389,221.02838 C 174.37389,221.02838 188.91813,124.83341 347.53497,124.83341 z"
   id="path4236"
   style="fill:#fffcdf" /><path
   d="M 148.17733,225.27327 C 311.93539,225.27327 328.47525,345.58462 328.47525,345.58462 C 195.29393,353.04278 173.00402,463.39301 173.00402,463.39301 L 148.17733,463.39301 C 148.14351,463.39301 123.283,463.39301 123.283,463.39301 C 123.283,463.39301 99.961467,353.05969 -30.649236,345.58462 C -30.649236,345.58462 -15.614545,225.27327 148.17733,225.27327 z"
   id="path4240"
   style="fill:#9a7900" /><path
   d="M 148.17733,225.27327 C 311.93539,225.27327 328.50907,345.58462 328.50907,345.58462 C 195.29393,353.04278 173.03784,463.39301 173.03784,463.39301 L 148.17733,463.39301 L 123.283,463.39301 C 123.283,463.39301 99.961467,353.05969 -30.649236,345.58462 C -30.649236,345.58462 -15.614545,225.27327 148.17733,225.27327 z"
   id="path4253"
   style="fill:url(#radialGradient6007)" /><path
   d="M 147.53469,224.98576 C 302.76914,224.98576 318.49722,322.38148 318.49722,322.38148 C 222.87726,216.30996 65.47808,218.60997 -21.990336,322.38148 C -22.007248,322.38148 -7.7674173,224.98576 147.53469,224.98576 z"
   id="path4255"
   style="fill:#ebdd60" /><path
   d="M 147.50086,237.56823 C 306.10078,237.56823 322.15019,333.76319 322.15019,333.76319 C 224.45006,229.01081 63.719241,231.27699 -25.64331,333.76319 C -25.660222,333.7801 -11.099064,237.56823 147.50086,237.56823 z"
   id="path4257"
   style="fill:#fffcdf" /><path
   d="M -239.2746,224.0387 C -75.533454,224.0387 -58.959779,344.35005 -58.959779,344.35005 C -192.17492,351.80821 -214.431,462.14153 -214.431,462.14153 L -239.25769,462.14153 C -239.29152,462.14153 -264.18585,462.14153 -264.18585,462.14153 C -264.18585,462.14153 -287.47355,351.82512 -418.08426,344.35005 C -418.11808,344.35005 -403.0834,224.0387 -239.2746,224.0387 z"
   id="path4261"
   style="fill:#89740b" /><path
   d="M -239.2746,224.0387 C -75.533454,224.0387 -58.959779,344.35005 -58.959779,344.35005 C -192.1411,351.80821 -214.431,462.14153 -214.431,462.14153 L -239.25769,462.14153 C -239.29152,462.14153 -264.15203,462.14153 -264.15203,462.14153 C -264.15203,462.14153 -287.45664,351.82512 -418.06735,344.35005 C -418.10117,344.35005 -403.0834,224.0387 -239.2746,224.0387 z"
   id="path4274"
   style="fill:url(#radialGradient5995)" /><path
   d="M -239.96799,223.73429 C -84.716623,223.73429 -68.988544,321.1469 -68.988544,321.1469 C -164.64233,215.05847 -321.99077,217.3585 -409.49301,321.1469 C -409.49301,321.1469 -395.25318,223.73429 -239.96799,223.73429 z"
   id="path4276"
   style="fill:#ebdd60" /><path
   d="M -239.96799,236.33367 C -81.401888,236.33367 -65.318659,332.52862 -65.318659,332.52862 C -163.01879,227.81006 -323.74961,230.05935 -413.14598,332.52862 C -413.14598,332.52862 -398.58483,236.33367 -239.96799,236.33367 z"
   id="path4278"
   style="fill:#fffcdf" /><path
   d="M 532.48366,221.50192 C 696.2248,221.50192 712.79848,341.77945 712.79848,341.77945 C 579.60025,349.23759 557.32726,459.57092 557.32726,459.57092 L 532.48366,459.57092 C 532.44983,459.57092 507.58932,459.57092 507.58932,459.57092 C 507.58932,459.57092 484.26779,349.2545 353.65708,341.77945 C 353.67399,341.79635 368.69178,221.50192 532.48366,221.50192 z"
   id="path4282"
   style="fill:#7f7111" /><path
   d="M 532.48366,221.50192 C 696.25863,221.50192 712.8323,341.77945 712.8323,341.77945 C 579.60025,349.23759 557.32726,459.57092 557.32726,459.57092 L 532.48366,459.57092 L 507.58932,459.57092 C 507.58932,459.57092 484.26779,349.2545 353.6909,341.77945 C 353.6909,341.79635 368.69178,221.50192 532.48366,221.50192 z"
   id="path4295"
   style="fill:url(#radialGradient5983)" /><path
   d="M 531.80718,221.1975 C 687.07546,221.1975 702.80354,318.59321 702.80354,318.59321 C 607.16667,212.52168 449.80131,214.82171 362.29907,318.59321 C 362.29907,318.5763 376.53891,221.1975 531.80718,221.1975 z"
   id="path4297"
   style="fill:#ebdd60" /><path
   d="M 531.80718,233.77996 C 690.42402,233.77996 706.4396,329.97493 706.4396,329.97493 C 608.75639,225.23944 448.05939,227.50564 358.66302,329.97493 C 358.6461,329.95802 373.20726,233.77996 531.80718,233.77996 z"
   id="path4299"
   style="fill:#fffcdf" /><path
   d="M 340.3305,338.97206 C 504.05473,338.97206 520.6115,459.2665 520.6115,459.2665 C 387.464,466.72466 365.17409,577.05798 365.17409,577.05798 L 340.3305,577.05798 C 340.29667,577.05798 315.43616,577.05798 315.43616,577.05798 C 315.43616,577.05798 292.11463,466.74157 161.50393,459.2665 C 161.52083,459.2665 176.53861,338.97206 340.3305,338.97206 z"
   id="path4303"
   style="fill:#89740b" /><path
   d="M 340.3305,338.97206 C 504.08855,338.97206 520.64531,459.2665 520.64531,459.2665 C 387.464,466.72466 365.17409,577.05798 365.17409,577.05798 L 340.3305,577.05798 C 340.29667,577.05798 315.43616,577.05798 315.43616,577.05798 C 315.43616,577.05798 292.11463,466.74157 161.50393,459.2665 C 161.52083,459.2665 176.53861,338.97206 340.3305,338.97206 z"
   id="path4316"
   style="fill:url(#radialGradient5971)" /><path
   d="M 339.68785,338.66764 C 494.88847,338.66764 510.59964,436.02953 510.59964,436.02953 C 415.03042,329.99184 257.63124,332.27495 170.11209,436.02953 C 170.129,436.02953 184.36884,338.66764 339.68785,338.66764 z"
   id="path4318"
   style="fill:#ebdd60" /><path
   d="M 339.65402,351.25011 C 498.22012,351.25011 514.26953,447.44507 514.26953,447.44507 C 416.62014,342.7096 255.85549,344.95888 166.47603,447.44507 C 166.47603,447.46199 181.03719,351.25011 339.65402,351.25011 z"
   id="path4320"
   style="fill:#fffcdf" /><path
   d="M -43.992736,342.7096 C 119.74842,342.7096 136.30518,463.03786 136.30518,463.03786 C 3.123855,470.46219 -19.166047,580.81243 -19.166047,580.81243 L -43.992736,580.81243 C -44.02656,580.81243 -68.887073,580.81243 -68.887073,580.81243 C -68.887073,580.81243 -92.208602,470.4791 -222.81931,463.03786 C -222.81931,463.03786 -207.80153,342.7096 -43.992736,342.7096 z"
   id="path4324"
   style="fill:#9a7900" /><path
   d="M -43.992736,342.7096 C 119.74842,342.7096 136.339,463.03786 136.339,463.03786 C 3.1407669,470.46219 -19.132224,580.81243 -19.132224,580.81243 L -43.992736,580.81243 L -68.887073,580.81243 C -68.887073,580.81243 -92.208602,470.4791 -222.81931,463.03786 C -222.81931,463.03786 -207.80153,342.7096 -43.992736,342.7096 z"
   id="path4337"
   style="fill:url(#radialGradient5959)" /><path
   d="M -44.635388,342.43901 C 110.59906,342.43901 126.31023,439.85163 126.31023,439.85163 C 30.690274,333.79702 -126.7089,336.08013 -214.17732,439.85163 C -214.17732,439.83472 -199.93749,342.43901 -44.635388,342.43901 z"
   id="path4339"
   style="fill:#ebdd60" /><path
   d="M -44.669213,355.03838 C 113.93071,355.03838 129.98012,451.21644 129.98012,451.21644 C 32.279994,346.51478 -128.45083,348.74715 -217.81338,451.21644 C -217.83029,451.19952 -203.28605,355.03838 -44.669213,355.03838 z"
   id="path4341"
   style="fill:#fffcdf" /><path
   d="M 148.17733,448.84877 C 311.93539,448.84877 328.47525,569.16012 328.47525,569.16012 C 195.29393,576.60136 173.00402,686.91777 173.00402,686.91777 L 148.17733,686.91777 C 148.14351,686.91777 123.283,686.91777 123.283,686.91777 C 123.283,686.91777 99.961467,576.61828 -30.649236,569.16012 C -30.649236,569.16012 -15.614545,448.84877 148.17733,448.84877 z"
   id="path4345"
   style="fill:#9a7900" /><path
   d="M 148.17733,448.84877 C 311.93539,448.84877 328.50907,569.16012 328.50907,569.16012 C 195.29393,576.60136 173.03784,686.91777 173.03784,686.91777 L 148.17733,686.91777 L 123.283,686.91777 C 123.283,686.91777 99.961467,576.61828 -30.649236,569.16012 C -30.649236,569.16012 -15.614545,448.84877 148.17733,448.84877 z"
   id="path4358"
   style="fill:url(#radialGradient5947)" /><path
   d="M 147.53469,448.54435 C 302.76914,448.54435 318.49722,545.95697 318.49722,545.95697 C 222.87726,439.86854 65.47808,442.18547 -21.990336,545.95697 C -22.007248,545.95697 -7.7674173,448.54435 147.53469,448.54435 z"
   id="path4360"
   style="fill:#ebdd60" /><path
   d="M 147.50086,461.12681 C 306.10078,461.12681 322.15019,557.32178 322.15019,557.32178 C 224.45006,452.60321 63.719241,454.85249 -25.64331,557.32178 C -25.660222,557.32178 -11.099064,461.12681 147.50086,461.12681 z"
   id="path4362"
   style="fill:#fffcdf" /><path
   d="M 738.45385,324.2587 C 902.21191,324.2587 918.8025,444.60387 918.8025,444.60387 C 785.58736,452.04512 763.31436,562.36153 763.31436,562.36153 L 738.45385,562.36153 L 713.55952,562.36153 C 713.55952,562.36153 690.23799,452.06203 559.61037,444.60387 C 559.62728,444.62079 574.66197,324.2587 738.45385,324.2587 z"
   id="path4366"
   style="fill:#7e7112" /><path
   d="M 738.48768,324.2587 C 902.24573,324.2587 918.8025,444.60387 918.8025,444.60387 C 785.58736,452.04512 763.31436,562.36153 763.31436,562.36153 L 738.48768,562.36153 C 738.45385,562.36153 713.55952,562.36153 713.55952,562.36153 C 713.55952,562.36153 690.27181,452.06203 559.64419,444.60387 C 559.6611,444.62079 574.6958,324.2587 738.48768,324.2587 z"
   id="path4379"
   style="fill:url(#radialGradient5935)" /><path
   d="M 737.81119,323.95429 C 893.07948,323.95429 908.79065,421.3669 908.79065,421.3669 C 813.15377,315.32921 655.77151,317.61232 568.25236,421.3669 C 568.26927,421.3669 582.52601,323.95429 737.81119,323.95429 z"
   id="path4381"
   style="fill:#ebdd60" /><path
   d="M 737.81119,336.60439 C 896.3773,336.60439 912.44362,432.73171 912.44362,432.73171 C 814.7435,328.03006 654.01267,330.27934 564.61629,432.73171 C 564.61629,432.7148 579.17745,336.60439 737.81119,336.60439 z"
   id="path4383"
   style="fill:#fffcdf" /><path
   d="M 537.6587,428.48682 C 701.39985,428.48682 717.95661,548.78126 717.95661,548.78126 C 584.77529,556.23941 562.48539,666.55582 562.48539,666.55582 L 537.6587,666.55582 C 537.62488,666.55582 512.74745,666.55582 512.74745,666.55582 C 512.74745,666.55582 489.42592,556.25633 358.81522,548.78126 C 358.83213,548.79817 373.88373,428.48682 537.6587,428.48682 z"
   id="path4387"
   style="fill:#7f7111" /><path
   d="M 537.6587,428.48682 C 701.39985,428.48682 717.95661,548.78126 717.95661,548.78126 C 584.77529,556.23941 562.48539,666.55582 562.48539,666.55582 L 537.6587,666.55582 C 537.62488,666.55582 512.74745,666.55582 512.74745,666.55582 C 512.74745,666.55582 489.42592,556.25633 358.84904,548.78126 C 358.86595,548.79817 373.88373,428.48682 537.6587,428.48682 z"
   id="path4400"
   style="fill:url(#radialGradient5923)" /><path
   d="M 536.99914,428.18241 C 692.23359,428.18241 707.94476,525.59502 707.94476,525.59502 C 612.34172,419.52351 454.95944,421.80662 367.4572,525.59502 C 367.47412,525.59502 381.71395,428.18241 536.99914,428.18241 z"
   id="path4402"
   style="fill:#ebdd60" /><path
   d="M 536.96532,440.78179 C 695.54833,440.78179 711.59774,536.94293 711.59774,536.94293 C 613.91452,432.24127 453.21752,434.47364 363.82115,536.94293 C 363.82115,536.94293 378.36539,440.78179 536.96532,440.78179 z"
   id="path4404"
   style="fill:#fffcdf" /><path
   d="M 740.02666,543.11577 C 903.78471,543.11577 920.3584,663.42712 920.3584,663.42712 C 787.16016,670.88527 764.87027,781.23552 764.87027,781.23552 L 740.02666,781.23552 C 739.99283,781.23552 715.14923,781.23552 715.14923,781.23552 C 715.14923,781.23552 691.82771,670.90219 561.20009,663.42712 C 561.217,663.42712 576.23478,543.11577 740.02666,543.11577 z"
   id="path4408"
   style="fill:#7e7112" /><path
   d="M 740.02666,543.11577 C 903.78471,543.11577 920.37531,663.42712 920.37531,663.42712 C 787.16016,670.88527 764.90409,781.23552 764.90409,781.23552 L 740.02666,781.23552 L 715.14923,781.23552 C 715.14923,781.23552 691.82771,670.90219 561.20009,663.42712 C 561.217,663.42712 576.23478,543.11577 740.02666,543.11577 z"
   id="path4421"
   style="fill:url(#radialGradient5911)" /><path
   d="M 739.40092,542.81136 C 894.63537,542.81136 910.34654,640.20707 910.34654,640.20707 C 814.70967,534.13554 657.32741,536.45248 569.84207,640.20707 C 569.85898,640.20707 584.11573,542.81136 739.40092,542.81136 z"
   id="path4423"
   style="fill:#ebdd60" /><path
   d="M 739.3671,555.39382 C 897.96702,555.39382 913.99952,651.6057 913.99952,651.6057 C 816.29939,546.87022 655.56856,549.1195 566.20602,651.6057 C 566.20602,651.62261 580.75026,555.39382 739.3671,555.39382 z"
   id="path4425"
   style="fill:#fffcdf" /><path
   d="M 352.57472,535.53923 C 516.31587,535.53923 532.88955,655.83368 532.88955,655.83368 C 399.69131,663.30874 377.43524,773.62515 377.43524,773.62515 L 352.57472,773.62515 L 327.68038,773.62515 C 327.68038,773.62515 304.35886,663.32566 173.74815,655.83368 C 173.74815,655.83368 188.78284,535.53923 352.57472,535.53923 z"
   id="path4429"
   style="fill:#89740b" /><path
   d="M 352.60854,535.53923 C 516.31587,535.53923 532.88955,655.83368 532.88955,655.83368 C 399.72513,663.30874 377.43524,773.62515 377.43524,773.62515 L 352.60854,773.62515 C 352.57472,773.62515 327.71421,773.62515 327.71421,773.62515 C 327.71421,773.62515 304.39268,663.32566 173.74815,655.83368 C 173.74815,655.83368 188.79975,535.53923 352.60854,535.53923 z"
   id="path4442"
   style="fill:url(#radialGradient5899)" /><path
   d="M 351.93207,535.23482 C 507.16652,535.23482 522.87769,632.64744 522.87769,632.64744 C 427.25773,526.55901 269.89238,528.85902 182.39014,632.64744 C 182.39014,632.64744 196.62997,535.23482 351.93207,535.23482 z"
   id="path4444"
   style="fill:#ebdd60" /><path
   d="M 351.93207,547.81728 C 510.48126,547.81728 526.53067,643.99533 526.53067,643.99533 C 428.88127,539.27676 268.09971,541.54296 178.73716,643.99533 C 178.73716,643.99533 193.29832,547.81728 351.93207,547.81728 z"
   id="path4446"
   style="fill:#fffcdf" /><path
   d="M 547.8735,655.79985 C 711.61465,655.79985 728.17141,776.1112 728.17141,776.1112 C 595.007,783.56935 572.7171,893.88577 572.7171,893.88577 L 547.8735,893.88577 C 547.83967,893.88577 522.96225,893.88577 522.96225,893.88577 C 522.96225,893.88577 499.64073,783.58627 369.08075,776.1112 C 369.09767,776.1112 384.09853,655.79985 547.8735,655.79985 z"
   id="path4450"
   style="fill:#7f7111" /><path
   d="M 547.8735,655.79985 C 711.61465,655.79985 728.20524,776.1112 728.20524,776.1112 C 595.007,783.56935 572.75093,893.88577 572.75093,893.88577 L 547.8735,893.88577 L 522.96225,893.88577 C 522.96225,893.88577 499.64073,783.58627 369.08075,776.1112 C 369.09767,776.1112 384.09853,655.79985 547.8735,655.79985 z"
   id="path4463"
   style="fill:url(#radialGradient5887)" /><path
   d="M 547.21393,655.51235 C 702.44838,655.51235 718.17647,752.90806 718.17647,752.90806 C 622.55651,646.83653 465.19116,649.13656 377.68891,752.90806 C 377.68891,752.90806 391.96257,655.51235 547.21393,655.51235 z"
   id="path4465"
   style="fill:#ebdd60" /><path
   d="M 547.18011,668.0779 C 705.79695,668.0779 721.84636,764.27287 721.84636,764.27287 C 624.14623,659.57121 463.43231,661.78667 374.03594,764.27287 C 374.03594,764.27287 388.5971,668.0779 547.18011,668.0779 z"
   id="path4467"
   style="fill:#fffcdf" /><path
   d="M -228.60319,432.30892 C -64.862038,432.30892 -48.305274,552.62027 -48.305274,552.62027 C -181.48659,560.07842 -203.7765,670.41175 -203.7765,670.41175 L -228.60319,670.41175 C -228.63701,670.41175 -253.51443,670.41175 -253.51443,670.41175 C -253.51443,670.41175 -276.83596,560.09533 -407.44666,552.62027 C -407.42976,552.62027 -392.41198,432.30892 -228.60319,432.30892 z"
   id="path4471"
   style="fill:#89740b" /><path
   d="M -228.60319,432.30892 C -64.862038,432.30892 -48.305274,552.62027 -48.305274,552.62027 C -181.48659,560.07842 -203.74267,670.41175 -203.74267,670.41175 L -228.60319,670.41175 L -253.51443,670.41175 C -253.51443,670.41175 -276.81905,560.09533 -407.42976,552.62027 C -407.41285,552.62027 -392.37815,432.30892 -228.60319,432.30892 z"
   id="path4484"
   style="fill:url(#radialGradient5875)" /><path
   d="M -229.26275,432.02141 C -74.028295,432.02141 -58.300214,529.40021 -58.300214,529.40021 C -153.92017,423.37942 -311.30244,425.62871 -398.78777,529.40021 C -398.78777,529.40021 -384.54793,432.02141 -229.26275,432.02141 z"
   id="path4486"
   style="fill:#ebdd60" /><path
   d="M -229.27966,444.67152 C -70.679736,444.67152 -54.63033,540.79884 -54.63033,540.79884 C -152.33045,436.06336 -313.06128,438.36338 -402.44074,540.79884 C -402.44074,540.78193 -387.89649,444.67152 -229.27966,444.67152 z"
   id="path4488"
   style="fill:#fffcdf" /><path
   d="M -26.979351,538.43117 C 136.76179,538.43117 153.31855,658.7087 153.31855,658.7087 C 20.13724,666.20068 -2.1526621,776.50018 -2.1526621,776.50018 L -26.979351,776.50018 C -27.013175,776.50018 -51.8906,776.50018 -51.8906,776.50018 C -51.8906,776.50018 -75.195217,666.21759 -205.82284,658.7087 C -205.80593,658.72561 -190.78814,538.43117 -26.979351,538.43117 z"
   id="path4492"
   style="fill:#9a7900" /><path
   d="M -26.979351,538.43117 C 136.76179,538.43117 153.31855,658.7087 153.31855,658.7087 C 20.13724,666.20068 -2.1526621,776.50018 -2.1526621,776.50018 L -26.979351,776.50018 C -27.013175,776.50018 -51.8906,776.50018 -51.8906,776.50018 C -51.8906,776.50018 -75.195217,666.21759 -205.82284,658.7087 C -205.80593,658.72561 -190.78814,538.43117 -26.979351,538.43117 z"
   id="path4505"
   style="fill:url(#radialGradient5863)" /><path
   d="M -27.638916,538.14366 C 127.59554,538.14366 143.32362,635.53938 143.32362,635.53938 C 47.669835,529.46786 -109.69552,531.76788 -197.16394,635.53938 C -197.16394,635.53938 -182.92411,538.14366 -27.638916,538.14366 z"
   id="path4507"
   style="fill:#ebdd60" /><path
   d="M -27.67274,550.70922 C 130.92719,550.70922 146.97659,646.90418 146.97659,646.90418 C 49.276467,542.18562 -111.45436,544.45181 -200.81691,646.90418 C -200.83382,646.90418 -186.27266,550.70922 -27.67274,550.70922 z"
   id="path4509"
   style="fill:#fff68b" /><path
   d="M -227.03037,651.1829 C -63.28923,651.1829 -46.715554,771.49425 -46.715554,771.49425 C -179.89687,778.95241 -202.18677,889.26881 -202.18677,889.26881 L -227.03037,889.26881 C -227.04728,889.26881 -251.92471,889.26881 -251.92471,889.26881 C -251.92471,889.26881 -275.24624,778.96932 -405.87386,771.49425 C -405.85695,771.51116 -390.83917,651.1829 -227.03037,651.1829 z"
   id="path4513"
   style="fill:#89740b" /><path
   d="M -227.03037,651.1829 C -63.28923,651.1829 -46.715554,771.49425 -46.715554,771.49425 C -179.89687,778.95241 -202.18677,889.26881 -202.18677,889.26881 L -227.03037,889.26881 C -227.04728,889.26881 -251.92471,889.26881 -251.92471,889.26881 C -251.92471,889.26881 -275.24624,778.96932 -405.87386,771.49425 C -405.85695,771.51116 -390.83917,651.1829 -227.03037,651.1829 z"
   id="path4526"
   style="fill:url(#radialGradient5851)" /><path
   d="M -227.67303,650.87848 C -72.438574,650.87848 -56.727406,748.27419 -56.727406,748.27419 C -152.38119,642.20267 -309.74654,644.5027 -397.23187,748.27419 C -397.23187,748.27419 -382.97513,650.87848 -227.67303,650.87848 z"
   id="path4528"
   style="fill:#ebdd60" /><path
   d="M -227.70686,663.46094 C -69.140752,663.46094 -53.057522,759.65591 -53.057522,759.65591 C -150.74073,654.95426 -311.50538,657.18662 -400.86794,759.65591 C -400.88485,759.65591 -386.3406,663.46094 -227.70686,663.46094 z"
   id="path4530"
   style="fill:#fffcdf" /><path
   d="M 162.53556,648.95052 C 326.32744,648.95052 342.8842,769.26188 342.8842,769.26188 C 209.68596,776.73694 187.41298,887.07026 187.41298,887.07026 L 162.53556,887.07026 L 137.64121,887.07026 C 137.64121,887.07026 114.31969,776.75386 -16.291022,769.26188 C -16.27411,769.26188 -1.2225068,648.95052 162.53556,648.95052 z"
   id="path4534"
   style="fill:#9a7900" /><path
   d="M 162.53556,648.95052 C 326.34435,648.95052 342.91802,769.26188 342.91802,769.26188 C 209.71979,776.73694 187.41298,887.07026 187.41298,887.07026 L 162.53556,887.07026 L 137.67503,887.07026 C 137.67503,887.07026 114.31969,776.75386 -16.257198,769.26188 C -16.257198,769.26188 -1.2225068,648.95052 162.53556,648.95052 z"
   id="path4547"
   style="fill:url(#radialGradient5839)" /><path
   d="M 161.8929,648.67994 C 317.14426,648.67994 332.88925,746.07564 332.88925,746.07564 C 237.23547,640.00412 79.870118,642.27032 -7.649034,746.07564 C -7.649034,746.07564 6.6077091,648.67994 161.8929,648.67994 z"
   id="path4549"
   style="fill:#ebdd60" /><path
   d="M 161.8929,661.24548 C 320.49282,661.24548 336.54223,757.42353 336.54223,757.42353 C 238.82519,652.72189 78.111279,654.97117 -11.285095,757.42353 C -11.285095,757.42353 3.2591503,661.24548 161.8929,661.24548 z"
   id="path4551"
   style="fill:#fffcdf" />

<polyline
   stroke-miterlimit="10"
   points="    210.108,390.172 210.108,428.623 163.815,428.623 163.815,389.228   "
   id="polyline4142"
   style="fill:none;stroke:#76723f;stroke-linecap:round;stroke-linejoin:round;stroke-miterlimit:10"
   transform="matrix(16.79977,0,0,16.79977,-2834.5609,-6419.1686)" /></svg>