<?xml version="1.0" encoding="UTF-8" standalone="no"?>
<!-- Created with Inkscape (http://www.inkscape.org/) -->
<svg
   xmlns:dc="http://purl.org/dc/elements/1.1/"
   xmlns:cc="http://creativecommons.org/ns#"
   xmlns:rdf="http://www.w3.org/1999/02/22-rdf-syntax-ns#"
   xmlns:svg="http://www.w3.org/2000/svg"
   xmlns="http://www.w3.org/2000/svg"
   xmlns:xlink="http://www.w3.org/1999/xlink"
   xmlns:sodipodi="http://sodipodi.sourceforge.net/DTD/sodipodi-0.dtd"
   xmlns:inkscape="http://www.inkscape.org/namespaces/inkscape"
   width="48px"
   height="48px"
   id="svg3467"
   sodipodi:version="0.32"
   inkscape:version="0.46"
   sodipodi:docname="shadowmap.svg"
   inkscape:output_extension="org.inkscape.output.svg.inkscape">
  <defs
     id="defs3469">
    <linearGradient
       id="linearGradient3998">
      <stop
         style="stop-color:#ffffff;stop-opacity:1;"
         offset="0"
         id="stop4000" />
      <stop
         style="stop-color:#dfdfdc;stop-opacity:1;"
         offset="1"
         id="stop4002" />
    </linearGradient>
    <inkscape:perspective
       sodipodi:type="inkscape:persp3d"
       inkscape:vp_x="0 : 24 : 1"
       inkscape:vp_y="0 : 1000 : 0"
       inkscape:vp_z="48 : 24 : 1"
       inkscape:persp3d-origin="24 : 16 : 1"
       id="perspective3475" />
    <radialGradient
       inkscape:collect="always"
       xlink:href="#linearGradient3998"
       id="radialGradient4004"
       cx="24.449362"
       cy="9.4914665"
       fx="24.449362"
       fy="9.4914665"
       r="15.190811"
       gradientUnits="userSpaceOnUse" />
  </defs>
  <sodipodi:namedview
     id="base"
     pagecolor="#ffffff"
     bordercolor="#666666"
     borderopacity="1.0"
     inkscape:pageopacity="0.0"
     inkscape:pageshadow="2"
     inkscape:zoom="10.5"
     inkscape:cx="23.190476"
     inkscape:cy="18.666667"
     inkscape:current-layer="layer1"
     showgrid="true"
     inkscape:grid-bbox="true"
     inkscape:document-units="px"
     inkscape:window-width="1920"
     inkscape:window-height="1115"
     inkscape:window-x="-4"
     inkscape:window-y="-4" />
  <metadata
     id="metadata3472">
    <rdf:RDF>
      <cc:Work
         rdf:about="">
        <dc:format>image/svg+xml</dc:format>
        <dc:type
           rdf:resource="http://purl.org/dc/dcmitype/StillImage" />
      </cc:Work>
    </rdf:RDF>
  </metadata>
  <g
     id="layer1"
     inkscape:label="Layer 1"
     inkscape:groupmode="layer">
    <path
       style="fill:#000000;fill-opacity:1;fill-rule:evenodd;stroke:#000000;stroke-width:1;stroke-linecap:butt;stroke-linejoin:miter;marker:none;marker-start:none;marker-mid:none;marker-end:none;stroke-miterlimit:4;stroke-dashoffset:0;stroke-opacity:1;visibility:visible;display:inline;overflow:visible;enable-background:accumulate"
       d="M 45.301587,40.761905 C 45.301587,41.235482 45.131108,41.69708 44.807724,42.141379 C 43.462799,43.989181 39.473155,45.537771 34.103039,46.404472 C 31.146881,46.881576 27.772394,47.152047 24.190477,47.152047 C 19.959409,47.152047 16.017771,46.774659 12.713154,46.125095 C 8.1446672,45.227102 4.7936461,43.808932 3.5784761,42.148569 C 3.2516891,41.702061 3.0793651,41.238037 3.0793651,40.761905 C 3.0793651,39.667758 3.9893661,38.637554 5.5926231,37.7369 C 8.2754582,36.229776 12.899517,35.085413 18.449202,34.611222 C 20.274844,34.455231 22.200653,34.371763 24.190477,34.371763 C 25.58959,34.371763 26.957055,34.413029 28.280302,34.491757 C 34.377042,34.854489 39.535144,36.012466 42.525341,37.593601 C 44.291708,38.527608 45.301587,39.609276 45.301587,40.761905 z"
       id="path4051"
       sodipodi:nodetypes="csssssssssssc" />
    <path
       style="fill:#729fcf;fill-opacity:1;fill-rule:evenodd;stroke:#204a87;stroke-width:1.27642572000000000;stroke-linecap:butt;stroke-linejoin:miter;stroke-miterlimit:4;stroke-dashoffset:0;stroke-opacity:1;marker:none;marker-start:none;marker-mid:none;marker-end:none;visibility:visible;display:inline;overflow:visible;enable-background:accumulate"
       d="M 18.417456,34.896937 C 20.243098,34.740945 22.168906,34.657478 24.15873,34.657478 C 25.557843,34.657478 26.925308,34.698744 28.248556,34.777472"
       id="path4049" />
    <path
       style="fill:#ffffff;fill-opacity:1;fill-rule:evenodd;stroke:none;stroke-width:1.27642572000000000;stroke-linecap:butt;stroke-linejoin:miter;stroke-miterlimit:4;stroke-dashoffset:0;stroke-opacity:1;marker:none;marker-start:none;marker-mid:none;marker-end:none;visibility:visible;display:inline;overflow:visible;enable-background:accumulate"
       d="M 42.493595,37.879316 C 44.259962,38.813323 45.269841,39.894991 45.269841,41.04762 C 45.269841,41.521197 45.099362,41.982795 44.775978,42.427094 L 31.52381,42.427094 L 29.428571,37.809524 L 42.493595,37.879316 z"
       id="path4045" />
    <path
       style="fill:#ffffff;fill-opacity:1;fill-rule:evenodd;stroke:none;stroke-width:1.27642572000000000;stroke-linecap:butt;stroke-linejoin:miter;stroke-miterlimit:4;stroke-dashoffset:0;stroke-opacity:1;marker:none;marker-start:none;marker-mid:none;marker-end:none;visibility:visible;display:inline;overflow:visible;enable-background:accumulate"
       d="M 34.071293,46.690187 C 31.115135,47.167291 27.740648,47.437761 24.15873,47.437761 C 19.927663,47.437761 15.986025,47.060373 12.681408,46.41081 L 14.761905,42.285714 L 31.714286,42.285714 L 34.071293,46.690187 z"
       id="path4041" />
    <path
       style="fill:#ffffff;fill-opacity:1;fill-rule:evenodd;stroke:none;stroke-width:1.27642572000000000;stroke-linecap:butt;stroke-linejoin:miter;stroke-miterlimit:4;stroke-dashoffset:0;stroke-opacity:1;marker:none;marker-start:none;marker-mid:none;marker-end:none;visibility:visible;display:inline;overflow:visible;enable-background:accumulate"
       d="M 3.3562533,42.14857 C 3.0294666,41.702062 3.0476191,41.523752 3.0476191,41.04762 C 3.0476191,39.953472 3.9576199,38.923268 5.5608772,38.022614 L 16.761905,38.022614 L 14.857142,42.190476 L 3.3562533,42.14857 z"
       id="path4037"
       sodipodi:nodetypes="cscccc" />
    <path
       sodipodi:type="arc"
       style="opacity:1;fill:url(#radialGradient4004);fill-opacity:1;fill-rule:evenodd;stroke:#2e3436;stroke-width:0.77446103;stroke-linecap:butt;stroke-linejoin:miter;marker:none;marker-start:none;marker-mid:none;marker-end:none;stroke-miterlimit:4;stroke-dasharray:none;stroke-dashoffset:0;stroke-opacity:1;visibility:visible;display:inline;overflow:visible;enable-background:accumulate"
       id="path3986"
       sodipodi:cx="24.031746"
       sodipodi:cy="16.730158"
       sodipodi:rx="14.825397"
       sodipodi:ry="14.825397"
       d="M 38.857142,16.730158 A 14.825397,14.825397 0 1 1 9.2063494,16.730158 A 14.825397,14.825397 0 1 1 38.857142,16.730158 z"
       transform="matrix(1.2912206,0,0,1.2912206,-7.3477449,-1.1261341)" />
  </g>
</svg>
