<?xml version="1.0" standalone="no"?>
<!DOCTYPE svg PUBLIC "-//W3C//DTD SVG 20000303 Stylable//EN"
	"http://www.w3.org/TR/2000/03/WD-SVG-20000303/DTD/svg-20000303-stylable.dtd">
<svg xmlns="http://www.w3.org/2000/svg" width="50pt" height="50pt" viewBox="0 0 50 50" xml:space="preserve">
<g transform="scale(0.5)">
	<g id="Path_3" style="fill-rule:nonzero;clip-rule:nonzero;fill:#f8fcf8;stroke:#000000;stroke-miterlimit:4;">
		<path d="M5.20 80L35.20 85L75.20 85L108.00 85.3L94.20 72.9L80.20 62.5L67.80 49.7L50.04 40.48L42.80 48.3L31.40 60.7L20.20 72.5z"/>
	</g>
	<g id="Path_4" style="fill-rule:nonzero;clip-rule:nonzero;fill:none;stroke:#C0C0C0;stroke-miterlimit:4;fill-opacity:0.5;">
		<path d="M50.04 40.48L60.20 52.5L66.40 62.3L76.60 72.7L92.39 85.16"/>
	</g>
	<g id="Path_5" style="fill-rule:nonzero;clip-rule:nonzero;fill:none;stroke:#C0C0C0;stroke-miterlimit:4;fill-opacity:0.5;">
		<path d="M18.19 84.67L32.00 75.5L40.20 67.5L43.00 55.3L50.04 40.48"/>
	</g>
	<g id="Path_6" style="fill-rule:nonzero;clip-rule:nonzero;fill:none;stroke:#C0C0C0;stroke-miterlimit:4;fill-opacity:0.5;">
		<path d="M50.00 85L54.00 77.9L55.20 70L55.80 57.7L50.04 40.48"/>
	</g>
	<g id="Path_9" style="fill-rule:nonzero;clip-rule:nonzero;fill:#7c7e7c;stroke:none;stroke-miterlimit:4;fill-opacity:0.5;">
		<path d="M20.20 72.5L18.19 84.67L29.09 77.43L32.00 75.5L40.20 67.5L43.00 55.3L50.04 40.48L42.80 48.3z"/>
	</g>
	<g id="Path_10" style="fill-rule:nonzero;clip-rule:nonzero;fill:#FFFFFF;stroke:#000000;stroke-miterlimit:4;fill-opacity:1.0;">
		<path d="M18.19 84.67L50.00 85L54.00 77.9L55.20 70L55.57 55.7L50.04 40.48L43.00 55.3L40.20 67.5L31.17 76.05z"/>
	</g>
	<g id="Path_11" style="fill-rule:nonzero;clip-rule:nonzero;fill:none;stroke:#000000;stroke-miterlimit:4;fill-opacity:1.0;">
		<path d="M50.04 40.48L42.80 48.3L20.46 72.22"/>
	</g>
	<g id="Path_12" style="fill-rule:nonzero;clip-rule:nonzero;fill:none;stroke:#000000;stroke-miterlimit:4;fill-opacity:1.0;">
		<path d="M108.00 85.3"/>
	</g>
	<g id="Path_8" style="fill-rule:nonzero;clip-rule:nonzero;fill:none;stroke:#000000;stroke-miterlimit:4;fill-opacity:1.0;">
		<path d="M95.00 17.5L15.00 57.5"/>
	</g>
	<g id="Path_9" style="fill-rule:nonzero;clip-rule:nonzero;fill:#FFFFFF;stroke:#000000;stroke-miterlimit:4;fill-opacity:1.0;">
		<path d="M70.00 20L80.00 35L95.00 17.5z"/>
	</g>
	<g id="Path_10" style="fill-rule:nonzero;clip-rule:nonzero;fill:none;stroke:#000000;stroke-miterlimit:4;fill-opacity:1.0;">
		<path d="M10.00 20L90.00 60"/>
	</g>
	<g id="Path_11" style="fill-rule:nonzero;clip-rule:nonzero;fill:#FFFFFF;stroke:#000000;stroke-miterlimit:4;fill-opacity:1.0;">
		<path d="M20.00 35L30.00 20L5.00 17.5z"/>
	</g>
</g>
</svg>