<?xml version="1.0" encoding="UTF-8" standalone="no"?>
<!-- Created with Inkscape (http://www.inkscape.org/) -->
<svg
   xmlns:dc="http://purl.org/dc/elements/1.1/"
   xmlns:cc="http://creativecommons.org/ns#"
   xmlns:rdf="http://www.w3.org/1999/02/22-rdf-syntax-ns#"
   xmlns:svg="http://www.w3.org/2000/svg"
   xmlns="http://www.w3.org/2000/svg"
   xmlns:xlink="http://www.w3.org/1999/xlink"
   xmlns:sodipodi="http://sodipodi.sourceforge.net/DTD/sodipodi-0.dtd"
   xmlns:inkscape="http://www.inkscape.org/namespaces/inkscape"
   width="48px"
   height="48px"
   id="svg3989"
   sodipodi:version="0.32"
   inkscape:version="0.46"
   sodipodi:docname="subconst.svg"
   inkscape:output_extension="org.inkscape.output.svg.inkscape">
  <defs
     id="defs3991">
    <linearGradient
       id="linearGradient4533">
      <stop
         style="stop-color:#ffcf83;stop-opacity:1;"
         offset="0"
         id="stop4535" />
      <stop
         style="stop-color:#f7ae00;stop-opacity:1;"
         offset="1"
         id="stop4537" />
    </linearGradient>
    <linearGradient
       id="linearGradient4523">
      <stop
         style="stop-color:#ce5c00;stop-opacity:1;"
         offset="0"
         id="stop4525" />
      <stop
         style="stop-color:#9f4700;stop-opacity:1;"
         offset="1"
         id="stop4527" />
    </linearGradient>
    <inkscape:perspective
       sodipodi:type="inkscape:persp3d"
       inkscape:vp_x="0 : 24 : 1"
       inkscape:vp_y="0 : 1000 : 0"
       inkscape:vp_z="48 : 24 : 1"
       inkscape:persp3d-origin="24 : 16 : 1"
       id="perspective3997" />
    <linearGradient
       inkscape:collect="always"
       xlink:href="#linearGradient4523"
       id="linearGradient4529"
       x1="17.857143"
       y1="17.000002"
       x2="41.285717"
       y2="39.57143"
       gradientUnits="userSpaceOnUse"
       gradientTransform="matrix(1.0429043,0,0,1.0428796,-1.8307402,-4.2879595e-2)" />
    <radialGradient
       inkscape:collect="always"
       xlink:href="#linearGradient4533"
       id="radialGradient4539"
       cx="24.684584"
       cy="24.541327"
       fx="24.684584"
       fy="24.541327"
       r="21.113155"
       gradientTransform="matrix(1,0,0,0.9999774,0,4.7682639e-4)"
       gradientUnits="userSpaceOnUse" />
  </defs>
  <sodipodi:namedview
     id="base"
     pagecolor="#ffffff"
     bordercolor="#666666"
     borderopacity="1.0"
     inkscape:pageopacity="0.0"
     inkscape:pageshadow="2"
     inkscape:zoom="7"
     inkscape:cx="-61.714286"
     inkscape:cy="24"
     inkscape:current-layer="layer1"
     showgrid="true"
     inkscape:grid-bbox="true"
     inkscape:document-units="px"
     inkscape:window-width="1920"
     inkscape:window-height="1115"
     inkscape:window-x="0"
     inkscape:window-y="56" />
  <metadata
     id="metadata3994">
    <rdf:RDF>
      <cc:Work
         rdf:about="">
        <dc:format>image/svg+xml</dc:format>
        <dc:type
           rdf:resource="http://purl.org/dc/dcmitype/StillImage" />
      </cc:Work>
    </rdf:RDF>
  </metadata>
  <g
     id="layer1"
     inkscape:label="Layer 1"
     inkscape:groupmode="layer">
    <g
       id="g3852"
       transform="matrix(1.5241629,0,0,1.5408573,-9.0464646,-10.121118)">
      <path
         style="font-size:14px;font-style:italic;font-variant:normal;font-weight:normal;font-stretch:normal;fill:none;fill-opacity:1;stroke:#ffffff;stroke-width:1.3050679;stroke-linecap:butt;stroke-linejoin:miter;stroke-miterlimit:4;stroke-dasharray:none;stroke-opacity:1;font-family:Georgia;-inkscape-font-specification:Georgia Italic"
         d="M 36.654548,26.906136 L 36.445466,27.798222 C 35.60912,28.132755 34.958642,28.376684 34.494028,28.530011 C 34.029385,28.683338 33.560111,28.760002 33.086204,28.760002 C 32.342787,28.760002 31.785234,28.567181 31.413542,28.181541 C 31.04183,27.795899 30.855978,27.319656 30.855989,26.752809 C 30.855978,26.548374 30.874564,26.32303 30.911744,26.076774 C 30.948904,25.830524 31.009305,25.540132 31.092949,25.205596 L 32.458956,20.006407 C 32.561162,19.606836 32.642472,19.244426 32.702886,18.919178 C 32.763275,18.593947 32.793475,18.333757 32.793488,18.138602 C 32.793475,17.516012 32.644795,17.023506 32.347445,16.661084 C 32.050071,16.298686 31.608675,16.117482 31.023255,16.11747 C 30.456398,16.117482 29.819859,16.303333 29.113632,16.675024 C 28.40739,17.046738 27.742972,17.585705 27.120377,18.291929 L 24.764714,28.523042 L 22.172088,28.523042 L 24.248977,19.49067 C 24.295434,19.267657 24.362806,18.944741 24.451089,18.52192 C 24.539364,18.099119 24.583503,17.757617 24.583507,17.497415 C 24.583503,16.977043 24.495224,16.628573 24.318671,16.452001 C 24.142107,16.275456 23.788989,16.187176 23.259317,16.187163 C 23.05488,16.187176 22.794687,16.222023 22.478743,16.291705 C 22.162793,16.361411 21.91654,16.419489 21.739983,16.465941 L 21.949066,15.573854 C 22.673884,15.248628 23.315071,15.007021 23.872628,14.849034 C 24.430177,14.691075 24.908742,14.612087 25.308328,14.612074 C 26.042434,14.612087 26.567464,14.811879 26.883418,15.211444 C 27.199359,15.611038 27.366624,16.163945 27.385217,16.870168 L 27.468848,16.870168 C 28.491024,16.052435 29.373815,15.446095 30.11723,15.051148 C 30.860624,14.656227 31.706246,14.458761 32.6541,14.458746 C 33.546173,14.458761 34.243115,14.71663 34.744927,15.232352 C 35.24671,15.748102 35.497609,16.424137 35.497624,17.260455 C 35.497609,17.427732 35.472054,17.725094 35.420961,18.15254 C 35.369836,18.580008 35.288527,19.00282 35.177031,19.420975 L 34.006168,23.895345 C 33.922521,24.192712 33.841212,24.534213 33.762238,24.91985 C 33.683238,25.305495 33.643745,25.60518 33.643758,25.818905 C 33.643745,26.348584 33.759901,26.70867 33.992229,26.899167 C 34.224529,27.089666 34.605523,27.184914 35.135214,27.184913 C 35.311758,27.184914 35.56498,27.154713 35.894881,27.09431 C 36.224752,27.033911 36.477974,26.971185 36.654548,26.906136 L 36.654548,26.906136 z"
         id="path3341" />
      <path
         id="text3336"
         d="M 36.654548,26.906136 L 36.445466,27.798222 C 35.60912,28.132755 34.958642,28.376684 34.494028,28.530011 C 34.029385,28.683338 33.560111,28.760002 33.086204,28.760002 C 32.342787,28.760002 31.785234,28.567181 31.413542,28.181541 C 31.04183,27.795899 30.855978,27.319656 30.855989,26.752809 C 30.855978,26.548374 30.874564,26.32303 30.911744,26.076774 C 30.948904,25.830524 31.009305,25.540132 31.092949,25.205596 L 32.458956,20.006407 C 32.561162,19.606836 32.642472,19.244426 32.702886,18.919178 C 32.763275,18.593947 32.793475,18.333757 32.793488,18.138602 C 32.793475,17.516012 32.644795,17.023506 32.347445,16.661084 C 32.050071,16.298686 31.608675,16.117482 31.023255,16.11747 C 30.456398,16.117482 29.819859,16.303333 29.113632,16.675024 C 28.40739,17.046738 27.742972,17.585705 27.120377,18.291929 L 24.764714,28.523042 L 22.172088,28.523042 L 24.248977,19.49067 C 24.295434,19.267657 24.362806,18.944741 24.451089,18.52192 C 24.539364,18.099119 24.583503,17.757617 24.583507,17.497415 C 24.583503,16.977043 24.495224,16.628573 24.318671,16.452001 C 24.142107,16.275456 23.788989,16.187176 23.259317,16.187163 C 23.05488,16.187176 22.794687,16.222023 22.478743,16.291705 C 22.162793,16.361411 21.91654,16.419489 21.739983,16.465941 L 21.949066,15.573854 C 22.673884,15.248628 23.315071,15.007021 23.872628,14.849034 C 24.430177,14.691075 24.908742,14.612087 25.308328,14.612074 C 26.042434,14.612087 26.567464,14.811879 26.883418,15.211444 C 27.199359,15.611038 27.366624,16.163945 27.385217,16.870168 L 27.468848,16.870168 C 28.491024,16.052435 29.373815,15.446095 30.11723,15.051148 C 30.860624,14.656227 31.706246,14.458761 32.6541,14.458746 C 33.546173,14.458761 34.243115,14.71663 34.744927,15.232352 C 35.24671,15.748102 35.497609,16.424137 35.497624,17.260455 C 35.497609,17.427732 35.472054,17.725094 35.420961,18.15254 C 35.369836,18.580008 35.288527,19.00282 35.177031,19.420975 L 34.006168,23.895345 C 33.922521,24.192712 33.841212,24.534213 33.762238,24.91985 C 33.683238,25.305495 33.643745,25.60518 33.643758,25.818905 C 33.643745,26.348584 33.759901,26.70867 33.992229,26.899167 C 34.224529,27.089666 34.605523,27.184914 35.135214,27.184913 C 35.311758,27.184914 35.56498,27.154713 35.894881,27.09431 C 36.224752,27.033911 36.477974,26.971185 36.654548,26.906136 L 36.654548,26.906136 z"
         style="font-size:14px;font-style:italic;font-variant:normal;font-weight:normal;font-stretch:normal;fill:#000000;fill-opacity:1;stroke:none;stroke-width:1px;stroke-linecap:butt;stroke-linejoin:miter;stroke-opacity:1;font-family:Georgia;-inkscape-font-specification:Georgia Italic" />
    </g>
    <rect
       style="opacity:1;fill:#000000;fill-opacity:1;fill-rule:evenodd;stroke:#ffffff;stroke-width:1;stroke-linecap:butt;stroke-linejoin:miter;marker:none;marker-start:none;marker-mid:none;marker-end:none;stroke-miterlimit:4;stroke-dasharray:none;stroke-dashoffset:0;stroke-opacity:1;visibility:visible;display:inline;overflow:visible;enable-background:accumulate"
       id="rect17729"
       width="18.072214"
       height="6.3363357"
       x="0.64285791"
       y="18.335634"
       ry="0" />
  </g>
</svg>
