<?xml version="1.0" standalone="no"?>
<!DOCTYPE svg PUBLIC "-//W3C//DTD SVG 20000303 Stylable//EN"
	"http://www.w3.org/TR/2000/03/WD-SVG-20000303/DTD/svg-20000303-stylable.dtd">
<svg xmlns="http://www.w3.org/2000/svg" width="50pt" height="50pt" viewBox="0 0 50 50" xml:space="preserve">
<g transform="scale(0.5)">
	<g id="Path_4" style="fill-rule:nonzero;clip-rule:nonzero;fill:none;stroke:#000000;stroke-miterlimit:4;fill-opacity:1.0;">
		<path d="M60.00 60L90.00 60L90.00 10L40.00 10L40.00 40"/>
	</g>
	<g id="Path_0" style="fill-rule:nonzero;clip-rule:nonzero;fill:#FFFFFF;stroke:#000000;stroke-miterlimit:4;fill-opacity:1.0;">
		<path d="M25.03 63.19L23.31 60.57L22.17 56.06L30.73 54.63L25.03 51.78L25.03 46.07L30.73 43.22L27.88 38.94L33.59 36.09L30.73 31.81L36.44 26.1L42.15 23.25L47.85 23.25L53.56 26.1L56.41 30.38L62.12 33.23L62.12 38.94L59.27 43.22L64.97 46.07L67.83 50.35L67.83 53.21L70.68 57.49L67.83 58.91L70.68 63.19L64.97 66.05L56.41 67.47L39.29 67.47L30.73 66.05z"/>
	</g>
	<g id="Path_1" style="fill-rule:nonzero;clip-rule:nonzero;fill:#505450;stroke:none;stroke-miterlimit:4;fill-opacity:1.0;">
		<path d="M29.36 57.14L33.59 56.06L42.15 57.49L50.71 58.91L45.00 64.62L32.33 64.33L25.03 60.34z"/>
	</g>
	<g id="Path_2" style="fill-rule:nonzero;clip-rule:nonzero;fill:#505450;stroke:none;stroke-miterlimit:4;fill-opacity:1.0;">
		<path d="M45.00 64.62L50.71 58.91L55.04 59.2L60.52 60L64.97 63.19L56.41 64.62z"/>
	</g>
	<g id="Path_3" style="fill-rule:nonzero;clip-rule:nonzero;fill:#f8fcf8;stroke:none;stroke-miterlimit:4;fill-opacity:1.0;">
		<path d="M47.85 26.1L56.41 33.23L56.41 38.94L46.48 31.01z"/>
	</g>
	<g id="Path_0" style="fill-rule:nonzero;clip-rule:nonzero;fill:none;stroke:#000000;stroke-miterlimit:4;fill-opacity:1.0;">
		<path d="M10.00 40L60.00 40L60.00 90L10.00 90z"/>
	</g>
	<g id="Path_1" style="fill-rule:nonzero;clip-rule:nonzero;fill:none;stroke:#000000;stroke-miterlimit:4;fill-opacity:1.0;">
		<path d="M20.00 80L10.00 90"/>
	</g>
	<g id="Path_3" style="fill-rule:nonzero;clip-rule:nonzero;fill:none;stroke:#000000;stroke-miterlimit:4;fill-opacity:1.0;">
		<path d="M30.00 70L25.00 75"/>
	</g>
	<g id="Path_9" style="fill-rule:nonzero;clip-rule:nonzero;fill:none;stroke:#000000;stroke-miterlimit:4;fill-opacity:1.0;">
		<path d="M40.00 10L10.00 40"/>
	</g>
	<g id="Path_10" style="fill-rule:nonzero;clip-rule:nonzero;fill:none;stroke:#000000;stroke-miterlimit:4;fill-opacity:1.0;">
		<path d="M90.00 10L60.00 40"/>
	</g>
	<g id="Path_11" style="fill-rule:nonzero;clip-rule:nonzero;fill:none;stroke:#000000;stroke-miterlimit:4;fill-opacity:1.0;">
		<path d="M90.00 60L60.00 90"/>
	</g>
</g>
</svg>