<?xml version="1.0" standalone="no"?>
<!DOCTYPE svg PUBLIC "-//W3C//DTD SVG 20000303 Stylable//EN"
	"http://www.w3.org/TR/2000/03/WD-SVG-20000303/DTD/svg-20000303-stylable.dtd">
<svg xmlns="http://www.w3.org/2000/svg" width="50pt" height="50pt" viewBox="0 0 50 50" xml:space="preserve">
<g transform="scale(0.5)">
	<g id="Path_0" style="fill-rule:nonzero;clip-rule:nonzero;fill:#000000;stroke:#000000;stroke-miterlimit:4;">
		<path d="M5.00 42.5L95.00 42.5L95.00 92.5L5.00 92.5z"/>
	</g>
	<g id="Path_1" style="fill-rule:nonzero;clip-rule:nonzero;fill:#f8fcf8;stroke:#000000;stroke-miterlimit:4;">
		<path d="M15.80 79.6L15.80 54.6L20.80 52.1L40.80 52.1L45.80 54.6L45.80 79.6L40.80 82.1L20.80 82.1z"/>
	</g>
	<g id="Path_2" style="fill-rule:nonzero;clip-rule:nonzero;fill:#f8fcf8;stroke:#000000;stroke-miterlimit:4;">
		<path d="M55.80 79.6L55.80 54.6L60.80 52.1L80.80 52.1L85.80 54.6L85.80 79.6L80.80 82.1L60.80 82.1z"/>
	</g>
	<g id="Path_3" style="fill-rule:nonzero;clip-rule:nonzero;fill:#000000;stroke:#000000;stroke-miterlimit:4;">
		<path d="M95.00 42.6L95.00 47.6L105.00 42.6z"/>
	</g>
	<g id="Path_4" style="fill-rule:nonzero;clip-rule:nonzero;fill:#000000;stroke:#000000;stroke-miterlimit:4;">
		<path d="M95.00 87.5L95.00 92.5L105.00 92.5z"/>
	</g>
	<g id="Path_5" style="fill-rule:nonzero;clip-rule:nonzero;fill:#000000;stroke:#000000;stroke-miterlimit:4;">
		<path d="M5.00 87.5L5.00 92.5z"/>
	</g>
	<g id="Path_6" style="fill-rule:nonzero;clip-rule:nonzero;fill:#000000;stroke:#000000;stroke-miterlimit:4;">
		<path d="M5.00 42.5L5.00 47.5z"/>
	</g>
	<g id="Path_7" style="fill-rule:nonzero;clip-rule:nonzero;fill:#a8a8a8;stroke:none;stroke-miterlimit:4;">
		<path d="M5.00 37.5L15.00 37.5L10.00 45z"/>
	</g>
	<g id="Path_8" style="fill-rule:nonzero;clip-rule:nonzero;fill:#a8a8a8;stroke:none;stroke-miterlimit:4;">
		<path d="M15.00 37.5L25.00 37.5L20.00 45z"/>
	</g>
	<g id="Path_9" style="fill-rule:nonzero;clip-rule:nonzero;fill:#a8a8a8;stroke:none;stroke-miterlimit:4;">
		<path d="M25.00 37.5L35.00 37.5L30.00 45z"/>
	</g>
	<g id="Path_10" style="fill-rule:nonzero;clip-rule:nonzero;fill:#a8a8a8;stroke:none;stroke-miterlimit:4;">
		<path d="M35.00 37.5L45.00 37.5L40.00 45z"/>
	</g>
	<g id="Path_11" style="fill-rule:nonzero;clip-rule:nonzero;fill:#a8a8a8;stroke:none;stroke-miterlimit:4;">
		<path d="M45.00 37.5L55.00 37.5L50.00 45z"/>
	</g>
	<g id="Path_12" style="fill-rule:nonzero;clip-rule:nonzero;fill:#a8a8a8;stroke:none;stroke-miterlimit:4;">
		<path d="M55.00 37.5L65.00 37.5L60.00 45z"/>
	</g>
	<g id="Path_13" style="fill-rule:nonzero;clip-rule:nonzero;fill:#a8a8a8;stroke:none;stroke-miterlimit:4;">
		<path d="M65.00 37.5L75.00 37.5L70.00 45z"/>
	</g>
	<g id="Path_14" style="fill-rule:nonzero;clip-rule:nonzero;fill:#a8a8a8;stroke:none;stroke-miterlimit:4;">
		<path d="M75.00 37.5L85.00 37.5L80.00 45z"/>
	</g>
	<g id="Path_15" style="fill-rule:nonzero;clip-rule:nonzero;fill:#a8a8a8;stroke:none;stroke-miterlimit:4;">
		<path d="M85.00 37.5L95.00 37.5L90.00 45z"/>
	</g>
	<g id="Path_16" style="fill-rule:nonzero;clip-rule:nonzero;fill:#a8a8a8;stroke:none;stroke-miterlimit:4;">
		<path d="M5.00 97.5L15.00 97.5L10.00 90z"/>
	</g>
	<g id="Path_17" style="fill-rule:nonzero;clip-rule:nonzero;fill:#a8a8a8;stroke:none;stroke-miterlimit:4;">
		<path d="M15.00 97.5L25.00 97.5L20.00 90z"/>
	</g>
	<g id="Path_18" style="fill-rule:nonzero;clip-rule:nonzero;fill:#a8a8a8;stroke:none;stroke-miterlimit:4;">
		<path d="M35.00 97.5L45.00 97.5L40.00 90z"/>
	</g>
	<g id="Path_19" style="fill-rule:nonzero;clip-rule:nonzero;fill:#a8a8a8;stroke:none;stroke-miterlimit:4;">
		<path d="M25.00 97.5L35.00 97.5L30.00 90z"/>
	</g>
	<g id="Path_20" style="fill-rule:nonzero;clip-rule:nonzero;fill:#a8a8a8;stroke:none;stroke-miterlimit:4;">
		<path d="M75.00 97.5L85.00 97.5L80.00 90z"/>
	</g>
	<g id="Path_21" style="fill-rule:nonzero;clip-rule:nonzero;fill:#a8a8a8;stroke:none;stroke-miterlimit:4;">
		<path d="M65.00 97.5L75.00 97.5L70.00 90z"/>
	</g>
	<g id="Path_22" style="fill-rule:nonzero;clip-rule:nonzero;fill:#a8a8a8;stroke:none;stroke-miterlimit:4;">
		<path d="M45.00 97.5L55.00 97.5L50.00 90z"/>
	</g>
	<g id="Path_23" style="fill-rule:nonzero;clip-rule:nonzero;fill:#a8a8a8;stroke:none;stroke-miterlimit:4;">
		<path d="M55.00 97.5L65.00 97.5L60.00 90z"/>
	</g>
	<g id="Path_24" style="fill-rule:nonzero;clip-rule:nonzero;fill:#a8a8a8;stroke:none;stroke-miterlimit:4;">
		<path d="M85.00 97.5L95.00 97.5L90.00 90z"/>
	</g>
	<g id="Path_25" style="fill-rule:nonzero;clip-rule:nonzero;fill:none;stroke:#000000;stroke-miterlimit:4;">
		<path d="M90.00 20L10.00 20"/>
	</g>
	<g id="Path_26" style="fill-rule:nonzero;clip-rule:nonzero;fill:#000000;stroke:#000000;stroke-miterlimit:4;">
		<path d="M70.00 10L90.00 20L70.00 30z"/>
	</g>
	<g id="Path_27" style="fill-rule:nonzero;clip-rule:nonzero;fill:#000000;stroke:#000000;stroke-miterlimit:4;">
		<path d="M10.00 20L30.00 30L30.00 10z"/>
	</g>
	<g id="Path_28" style="fill-rule:nonzero;clip-rule:nonzero;fill:none;stroke:#000000;stroke-miterlimit:4;fill-opacity:1.0;">
		<path d="M10.00 30L10.00 5"/>
	</g>
	<g id="Path_29" style="fill-rule:nonzero;clip-rule:nonzero;fill:none;stroke:#000000;stroke-miterlimit:4;fill-opacity:1.0;">
		<path d="M90.00 30L90.00 5"/>
	</g>
</g>
</svg>