<?xml version="1.0" encoding="UTF-8" standalone="no"?>
<!-- Created with Inkscape (http://www.inkscape.org/) -->

<svg
   xmlns:dc="http://purl.org/dc/elements/1.1/"
   xmlns:cc="http://creativecommons.org/ns#"
   xmlns:rdf="http://www.w3.org/1999/02/22-rdf-syntax-ns#"
   xmlns:svg="http://www.w3.org/2000/svg"
   xmlns="http://www.w3.org/2000/svg"
   xmlns:xlink="http://www.w3.org/1999/xlink"
   xmlns:sodipodi="http://sodipodi.sourceforge.net/DTD/sodipodi-0.dtd"
   xmlns:inkscape="http://www.inkscape.org/namespaces/inkscape"
   width="48px"
   height="48px"
   id="svg24248"
   version="1.1"
   inkscape:version="0.48.5 r10040"
   sodipodi:docname="tolower.svg">
  <defs
     id="defs24250">
    <linearGradient
       id="linearGradient24766">
      <stop
         style="stop-color:#e3e9eb;stop-opacity:1;"
         offset="0"
         id="stop24768" />
      <stop
         style="stop-color:#b1c6ce;stop-opacity:1;"
         offset="1"
         id="stop24770" />
    </linearGradient>
    <radialGradient
       inkscape:collect="always"
       xlink:href="#linearGradient24766"
       id="radialGradient24772"
       cx="25.642857"
       cy="25.214285"
       fx="25.642857"
       fy="25.214285"
       r="25.714285"
       gradientUnits="userSpaceOnUse" />
  </defs>
  <sodipodi:namedview
     id="base"
     pagecolor="#ffffff"
     bordercolor="#666666"
     borderopacity="1.0"
     inkscape:pageopacity="0.0"
     inkscape:pageshadow="2"
     inkscape:zoom="7"
     inkscape:cx="-1.5714286"
     inkscape:cy="22.642857"
     inkscape:current-layer="layer1"
     showgrid="true"
     inkscape:grid-bbox="true"
     inkscape:document-units="px"
     inkscape:window-width="2560"
     inkscape:window-height="1475"
     inkscape:window-x="0"
     inkscape:window-y="0"
     inkscape:window-maximized="1" />
  <metadata
     id="metadata24253">
    <rdf:RDF>
      <cc:Work
         rdf:about="">
        <dc:format>image/svg+xml</dc:format>
        <dc:type
           rdf:resource="http://purl.org/dc/dcmitype/StillImage" />
        <dc:title></dc:title>
      </cc:Work>
    </rdf:RDF>
  </metadata>
  <g
     id="layer1"
     inkscape:label="Layer 1"
     inkscape:groupmode="layer">
    <path
       sodipodi:type="arc"
       style="color:#000000;fill:url(#radialGradient24772);fill-opacity:1;stroke:none;stroke-width:3.22857117999999987;stroke-linecap:round;stroke-linejoin:round;stroke-miterlimit:4;stroke-opacity:1;stroke-dasharray:none;stroke-dashoffset:0;marker:none;visibility:visible;display:inline;overflow:visible;enable-background:accumulate"
       id="path24256"
       sodipodi:cx="25.642857"
       sodipodi:cy="25.214285"
       sodipodi:rx="24.214285"
       sodipodi:ry="24.214285"
       d="m 49.857141,25.214285 a 24.214285,24.214285 0 1 1 -48.4285693,0 24.214285,24.214285 0 1 1 48.4285693,0 z"
       transform="matrix(0.92920357,0,0,0.92920357,0.17256607,0.57079631)" />
    <g
       style="font-size:20.75324631px;font-style:normal;font-variant:normal;font-weight:normal;font-stretch:normal;line-height:125%;letter-spacing:0px;word-spacing:0px;fill:#000000;fill-opacity:1;stroke:none;font-family:Baskerville;-inkscape-font-specification:Baskerville"
       id="text25014">
      <path
         d="m 5.179561,20.296953 -0.4661373,0 0.070934,-3.303495 13.3355824,0 0.07093,3.303495 -0.435737,0 c -0.155393,-0.905241 -0.368195,-1.557157 -0.638406,-1.95575 -0.270237,-0.405324 -0.560728,-0.651904 -0.871474,-0.73974 -0.31077,-0.09456 -0.841085,-0.141854 -1.590947,-0.141868 l -2.209086,0 0,9.697684 c -8e-6,1.074145 0.02364,1.780106 0.07093,2.117885 0.05404,0.337782 0.192526,0.58774 0.41547,0.749873 0.222926,0.162136 0.641774,0.243203 1.256544,0.243203 l 0.668806,0 0,0.466137 -6.8501925,0 0,-0.466137 0.7093395,0 c 0.5877333,0 0.9930697,-0.07431 1.2160105,-0.222936 0.2296845,-0.148622 0.3749305,-0.378313 0.4357375,-0.689072 0.06755,-0.317513 0.101328,-1.050496 0.101334,-2.198953 l 0,-9.697684 -2.0368178,0 C 7.5474004,17.459609 6.9529069,17.50352 6.6489071,17.59133 6.3449023,17.67241 6.057789,17.925746 5.7875663,18.351336 5.524096,18.776952 5.3214278,19.42549 5.179561,20.296953"
         style=""
         id="path25019" />
      <path
         d="m 20.045289,17.864932 c -1e-6,-0.290478 0.101333,-0.540436 0.304003,-0.749873 0.209422,-0.20941 0.459379,-0.314122 0.749873,-0.314136 0.290489,1.4e-5 0.537068,0.104726 0.73974,0.314136 0.202665,0.209437 0.303999,0.459395 0.304002,0.749873 -3e-6,0.29726 -0.101337,0.550595 -0.304002,0.760007 -0.202672,0.209436 -0.449251,0.314148 -0.73974,0.314136 -0.290494,1.2e-5 -0.540451,-0.1047 -0.749873,-0.314136 -0.20267,-0.209412 -0.304004,-0.462747 -0.304003,-0.760007 m 1.955751,4.23577 0,5.786184 c -4e-6,0.884987 0.01351,1.442325 0.04053,1.672014 0.02702,0.229692 0.124976,0.405338 0.293869,0.526938 0.168887,0.121602 0.469511,0.182402 0.901875,0.182402 l 0.212802,0 0,0.466137 -4.468839,0 0,-0.466137 0.344536,0 c 0.479648,0 0.790406,-0.06756 0.932275,-0.202669 0.148622,-0.141867 0.233067,-0.307379 0.253336,-0.496538 0.02702,-0.195911 0.04053,-0.756626 0.04053,-1.682147 l 0,-2.513089 c -2e-6,-0.972802 -0.04729,-1.567295 -0.141868,-1.783482 -0.08782,-0.216172 -0.209425,-0.351284 -0.364803,-0.405337 -0.148625,-0.05404 -0.412093,-0.08106 -0.790407,-0.08107 l -0.273602,0 0,-0.466138 c 1.202498,-0.121592 2.134772,-0.300616 2.796824,-0.537071 l 0.222936,0"
         style=""
         id="path25021" />
      <path
         d="m 29.540305,22.901242 -2.502955,0 0,5.016044 c -3e-6,0.770142 0.03377,1.290324 0.101334,1.560547 0.06755,0.26347 0.209421,0.476271 0.425604,0.638405 0.222931,0.162135 0.459377,0.243203 0.709339,0.243202 0.486399,1e-6 0.908625,-0.276979 1.266678,-0.83094 l 0.324269,0.192535 c -0.20943,0.445871 -0.520188,0.783651 -0.932275,1.013342 -0.405341,0.222935 -0.817433,0.334402 -1.236277,0.334403 -0.486407,-1e-6 -0.915389,-0.141868 -1.286944,-0.425604 -0.364806,-0.290491 -0.594496,-0.628271 -0.689073,-1.013342 -0.08782,-0.385068 -0.131736,-1.060629 -0.131734,-2.026684 l 0,-4.701908 -1.205878,0 0,-0.466137 c 0.55396,-0.0135 1.050497,-0.246571 1.489613,-0.699206 0.439113,-0.452617 0.71947,-1.087644 0.841074,-1.905083 l 0.32427,0 0,2.604289 2.502955,0 0,0.466137"
         style=""
         id="path25023" />
      <path
         d="m 33.066735,16.800923 0,11.085963 c -3e-6,0.884987 0.01013,1.442325 0.0304,1.672014 0.02702,0.229692 0.124975,0.405338 0.293869,0.526938 0.168887,0.121602 0.469511,0.182402 0.901875,0.182402 l 0.243202,0 0,0.466137 -4.438439,0 0,-0.466137 0.283736,0 c 0.405336,0 0.692449,-0.05404 0.861341,-0.162135 0.175644,-0.114845 0.280356,-0.273602 0.314136,-0.476271 0.03378,-0.202667 0.05067,-0.783649 0.05067,-1.742948 l 0,-8.208071 c -2e-6,-0.871463 -0.07769,-1.418667 -0.233069,-1.641615 -0.15538,-0.229678 -0.533694,-0.344523 -1.134943,-0.344536 l 0,-0.466137 c 0.412092,1.3e-5 0.895118,-0.04728 1.449079,-0.141868 0.560714,-0.09456 0.945784,-0.189144 1.15521,-0.283736 l 0.222936,0"
         style=""
         id="path25025" />
      <path
         d="m 43.159622,25.242063 -5.786183,0 c -0.02702,0.398586 -0.04054,0.695833 -0.04053,0.891741 -2e-6,1.459216 0.226311,2.557002 0.678939,3.293362 0.459379,0.729606 1.141695,1.094409 2.046951,1.094409 1.229516,0 2.100989,-0.550582 2.614423,-1.651748 l 0.486404,0 c -0.216187,0.689074 -0.645168,1.229523 -1.286944,1.621348 -0.64179,0.38507 -1.340995,0.577604 -2.097618,0.577605 -0.702588,-1e-6 -1.368016,-0.175646 -1.996284,-0.526938 -0.621519,-0.358047 -1.131567,-0.86134 -1.530147,-1.50988 -0.398582,-0.648536 -0.597872,-1.435565 -0.597872,-2.361087 0,-1.310584 0.385069,-2.398236 1.15521,-3.262962 0.770138,-0.871466 1.732812,-1.307202 2.888025,-1.307211 1.087648,9e-6 1.928721,0.331034 2.523222,0.993075 0.594486,0.662058 0.908622,1.378152 0.942408,2.148286 m -1.773348,-0.405337 c 0.02026,-0.155373 0.03039,-0.293863 0.0304,-0.41547 -7e-6,-0.594488 -0.175652,-1.053869 -0.526938,-1.378146 -0.344542,-0.331017 -0.770145,-0.496529 -1.276811,-0.496537 -1.229525,8e-6 -1.962509,0.763392 -2.198952,2.290153 l 3.972301,0"
         style=""
         id="path25027" />
    </g>
    <path
       transform="matrix(0.92920357,0,0,0.92920357,0.17256607,0.57079631)"
       d="m 49.857141,25.214285 a 24.214285,24.214285 0 1 1 -48.4285693,0 24.214285,24.214285 0 1 1 48.4285693,0 z"
       sodipodi:ry="24.214285"
       sodipodi:rx="24.214285"
       sodipodi:cy="25.214285"
       sodipodi:cx="25.642857"
       id="path24780"
       style="color:#000000;fill:none;fill-opacity:1;stroke:#204a87;stroke-width:3.22857117999999987;stroke-linecap:round;stroke-linejoin:round;stroke-miterlimit:4;stroke-opacity:1;stroke-dasharray:none;stroke-dashoffset:0;marker:none;visibility:visible;display:inline;overflow:visible;enable-background:accumulate"
       sodipodi:type="arc" />
  </g>
</svg>
