<?xml version="1.0" encoding="UTF-8" standalone="no"?>
<!-- Created with Inkscape (http://www.inkscape.org/) -->

<svg
   xmlns:dc="http://purl.org/dc/elements/1.1/"
   xmlns:cc="http://creativecommons.org/ns#"
   xmlns:rdf="http://www.w3.org/1999/02/22-rdf-syntax-ns#"
   xmlns:svg="http://www.w3.org/2000/svg"
   xmlns="http://www.w3.org/2000/svg"
   xmlns:sodipodi="http://sodipodi.sourceforge.net/DTD/sodipodi-0.dtd"
   xmlns:inkscape="http://www.inkscape.org/namespaces/inkscape"
   width="48px"
   height="48px"
   id="svg19187"
   version="1.1"
   inkscape:version="0.48.5 r10040"
   sodipodi:docname="unified.svg">
  <defs
     id="defs19189">
    <inkscape:perspective
       sodipodi:type="inkscape:persp3d"
       inkscape:vp_x="0 : 24 : 1"
       inkscape:vp_y="0 : 1000 : 0"
       inkscape:vp_z="48 : 24 : 1"
       inkscape:persp3d-origin="24 : 16 : 1"
       id="perspective19313" />
  </defs>
  <sodipodi:namedview
     id="base"
     pagecolor="#ffffff"
     bordercolor="#666666"
     borderopacity="1.0"
     inkscape:pageopacity="0.0"
     inkscape:pageshadow="2"
     inkscape:zoom="19.79899"
     inkscape:cx="16.238106"
     inkscape:cy="20.035046"
     inkscape:current-layer="layer1"
     showgrid="true"
     inkscape:grid-bbox="true"
     inkscape:document-units="px"
     inkscape:window-width="2560"
     inkscape:window-height="1537"
     inkscape:window-x="-8"
     inkscape:window-y="-8"
     inkscape:window-maximized="1" />
  <metadata
     id="metadata19192">
    <rdf:RDF>
      <cc:Work
         rdf:about="">
        <dc:format>image/svg+xml</dc:format>
        <dc:type
           rdf:resource="http://purl.org/dc/dcmitype/StillImage" />
        <dc:title></dc:title>
      </cc:Work>
    </rdf:RDF>
  </metadata>
  <g
     id="layer1"
     inkscape:label="Layer 1"
     inkscape:groupmode="layer">
    <g
       id="g19315"
       transform="matrix(-1,0,0,-1.0373115,48.018001,48.100615)">
      <path
         inkscape:connector-curvature="0"
         id="path19226"
         d="M 17.986916,0.18491527 C 15.675209,1.4311433 12.892546,2.1210763 11.529099,4.6089461 10.307498,6.8619727 8.0989369,8.0180507 6.1871712,9.4776804 4.7392569,11.636955 2.6864813,13.624485 2.9688272,16.463998 c -0.500752,2.271338 1.1828847,5.321717 -1.1942499,6.809689 -2.51310405,1.457907 -1.7708966,4.448896 -0.78500751,6.626607 0.76093461,3.037329 3.70367641,4.247715 5.89490631,5.993624 0.7299355,1.511674 -0.6620809,3.860537 2.020062,4.068492 2.0960919,1.002787 1.2874739,4.557694 4.1872619,4.967619 2.35827,1.108673 4.833961,0.206672 7.353483,0.759155 2.448854,-1.251564 5.106462,0.758373 7.668332,0.02953 1.86374,-2.120198 6.117452,-0.336358 6.909754,-3.217808 1.829229,-1.02288 4.342288,-0.901906 5.137741,-3.144216 1.89111,-1.731021 4.401386,-3.40075 4.626253,-6.195006 -0.198313,-2.505084 1.776274,-4.864576 2.083819,-6.672277 1.467861,-1.085224 -1.344438,-2.114363 0.293184,-3.30018 C 48.61103,20.17969 47.71936,16.339345 45.107516,14.268453 42.797554,12.238635 43.058924,8.5000695 40.195727,6.8460704 38.22233,5.779054 36.311744,4.5721177 34.246307,3.6563593 32.24281,2.6879882 30.005669,2.6534653 27.861237,2.3377485 25.734113,1.207987 23.914603,3.0799952 21.912826,2.3224279 20.190845,2.0225428 20.434037,5.1597014 19.521288,2.7940592 19.042996,1.9070971 18.671387,0.94237915 17.986916,0.18491527 z"
         style="fill:#d3d2d7" />
      <path
         inkscape:connector-curvature="0"
         id="path19224"
         d="M 18.020152,0.31786262 C 15.859626,1.5419939 13.179087,2.1026019 11.852519,4.4429588 10.554027,6.7128604 8.4090011,8.0692029 6.3698359,9.4887938 4.9851237,11.59947 2.8869842,13.503811 3.0876268,16.262019 c -0.5364472,2.326909 1.1942339,5.459755 -1.1314259,7.059225 -2.5586751,1.451671 -1.85866149,4.486116 -0.8580414,6.698449 0.7809738,3.012762 3.6748988,4.285546 5.9110787,5.972063 0.7752111,1.488852 -0.704104,3.861207 1.9882948,4.078635 2.073956,1.145851 1.498153,4.787078 4.578368,5.100887 2.044436,1.07726 4.122198,-0.354235 6.272277,0.74752 1.996761,-1.085755 4.455263,-0.323417 6.494378,0.158113 2.385716,-0.08841 4.312492,-2.052681 6.808539,-1.725052 2.113331,-0.214615 1.887274,-3.007947 4.3747,-2.657287 2.272199,-0.602364 2.939353,-3.126135 4.947607,-4.328896 1.912245,-1.456576 2.494819,-3.853985 2.58579,-6.142227 0.222908,-1.66276 1.794259,-3.370569 1.811979,-4.634326 1.467395,-1.085615 -1.344849,-2.114854 0.296194,-3.299444 1.444059,-3.008163 0.552661,-6.851428 -2.074406,-8.906598 C 42.783002,12.343224 43.067358,8.5852058 40.181084,6.9342663 37.460684,5.4948718 34.840575,3.6741258 31.790749,2.9563337 29.336517,3.2859127 26.770849,1.2049063 24.473289,2.5528552 23.104958,3.1972813 20.265892,1.4526631 20.379973,4.0736246 19.269221,3.0441936 19.037613,1.4181283 18.020152,0.31786262 z M 32.710835,9.4912298 C 34.162639,8.8121206 34.495211,11.076075 32.877019,10.222437 32.099347,10.10075 31.487715,9.4341853 32.710835,9.4912298 z m 10.336656,4.2210782 c 1.380484,0.46476 2.201099,4.894597 0.198005,2.268411 -0.575023,-0.596586 -0.751179,-1.595189 -0.198005,-2.268411 z m 2.891605,2.459526 c 1.958149,1.027559 2.212673,5.399013 0.915334,5.894737 -0.538407,-1.799881 -2.05885,-4.17581 -1.619719,-5.716475 l 0.351061,-0.130309 0.353324,-0.04795 z m -14.624209,0.03324 c -0.830951,1.443949 -2.785085,2.493251 -3.477951,3.680202 -1.136486,-1.077747 2.26117,-3.166058 3.477951,-3.680202 l 0,0 z m -5.218183,0.265894 c -0.393458,0.874598 -1.772087,3.840893 -2.147242,2.712863 0.447376,-1.090219 1.396508,-1.842682 2.147242,-2.712863 z m 8.010078,3.1575 c 0.120088,0.688178 -0.888126,0.517277 0,0 z m -13.128551,1.628605 c -0.43498,1.152086 -1.985452,3.388811 -2.634521,3.072683 0.86045,-1.0387 1.652986,-2.140966 2.634521,-3.072683 z m 1.728316,0.897395 c -0.07398,1.005558 -0.915109,3.01186 0.626082,1.486828 -0.10112,1.928088 -2.137935,3.205684 -3.557042,4.381909 -0.935763,1.022097 -1.815479,1.016745 -0.68852,-0.331401 1.17168,-1.854197 2.183903,-3.886784 3.61948,-5.537336 z m 1.262999,0.598263 c 0.427801,0.486964 -0.70245,0.638797 0,0 z m -6.414709,2.09392 c -0.473674,0.685626 -1.00262,0.01829 0,0 z m 11.832314,0 c 0.892409,0.889984 -0.650255,1.043649 0,0 z m 15.189235,0.265895 c 1.159867,1.198752 -2.821965,2.654159 -3.804225,2.024043 0.76601,-1.299193 2.356006,-1.897195 3.804225,-2.024043 z m -8.907473,0.132948 c 0.114217,1.060308 -0.693361,1.119948 0,0 z m -7.644472,2.891604 c 3.239044,-0.352141 0.874571,4.018122 -1.246949,3.538446 -0.799605,0.698203 -3.097479,2.841849 -1.587233,0.536618 1.077385,-0.958134 1.726566,-2.208818 1.585771,-3.395316 0.325347,-0.351887 0.757149,-0.640791 1.248411,-0.679748 z m 9.87134,0.232658 c 0.219312,1.692357 0.504333,4.266902 1.924236,2.866981 0.701661,1.083807 3.608188,0.639751 1.065482,0.998112 -2.501045,1.601306 -3.320878,-0.530102 -3.165662,-2.801571 0.01275,-0.35994 0.06187,-0.720083 0.175944,-1.063522 z M 18.1531,29.400095 c 0.638112,1.277927 -2.258584,1.423578 -0.396461,0.238992 0.108244,-0.11474 0.264803,-0.158776 0.396461,-0.238992 z m 15.820734,0.731211 c 0.712685,0.556262 -0.298244,1.130899 0,0 z m 6.680605,0 c 1.453739,-0.231251 2.088845,1.559168 0.42767,0.683369 -0.194339,-0.178782 -0.464629,-0.376551 -0.42767,-0.683369 z M 8.7470749,30.663095 c 2.0199871,-0.04205 4.0047091,4.363306 0.8679514,3.536205 0.8870557,-1.711743 -0.2688605,-1.848095 -1.3838135,-1.79073 0.019682,-0.618923 0.3825666,-1.152988 0.5158621,-1.745475 z m 23.2325491,0.299132 c 1.31848,0.636924 -0.629616,2.908034 0,0 z m -10.968156,0.930631 c 0.558277,2.239775 -1.418415,3.544157 -2.75979,4.78307 -0.656021,1.063368 -2.652765,1.203134 -1.146391,-0.265781 1.437708,-1.364389 2.472262,-3.242625 3.906181,-4.517289 z m 13.959472,0.73121 c 1.290765,0.857638 -0.345766,1.646525 0,0 z M 6.8525751,33.022911 c -1.5312683,0.710173 0.4784466,2.137834 -1.512501,1.137917 -1.924493,-0.936675 1.0052798,-0.895602 1.512501,-1.137917 z m 1.9277366,1.063578 c 0.5276345,0.235838 -0.4575558,0.315542 0,0 z m -1.1965261,0.332369 c 1.7223182,1.208697 -0.9876491,1.225471 0,0 z M 22.440652,34.91741 c -0.716856,1.971059 0.19557,4.311391 -0.128682,6.114567 -0.94346,0.679143 -4.498988,2.44322 -2.569838,0.282378 1.632646,-1.785305 0.569569,-4.65579 2.422417,-6.194775 l 0.276099,-0.20217 4e-6,0 z m -9.14013,0.132948 c 2.326606,0.37072 -0.103805,1.951277 -0.225358,0.08977 l 0.225358,-0.08977 z m 29.547548,0.03324 c 2.068682,0.987996 -1.757252,2.245104 -2.135432,3.442158 -1.224878,0.448059 -1.63193,3.186035 -2.996907,2.07574 2.695733,-0.241259 -2.336448,-1.290539 -0.794407,-2.979457 0.189058,-1.596034 1.307568,2.052348 1.856889,-0.208846 0.752584,-1.569295 2.644855,-1.728989 4.069857,-2.329595 z M 29.91894,35.54891 c 0.277309,2.269396 -3.561657,2.77978 -4.709612,2.715514 -0.664984,-2.394152 4.165013,-0.756512 4.709612,-2.715514 z m 2.526,1.163289 0.0197,0.334373 -0.0197,-0.334373 z m 0,0.6315 c 0.454479,1.185605 0.623549,2.611099 -0.01132,2.791996 -0.529217,1.135836 0.444017,3.391639 -0.663038,3.764183 -0.608335,-1.091318 -0.679873,-4.352771 0.543921,-6.263067 l 0.130432,-0.293109 4e-6,-3e-6 z m -6.115578,0.365606 c -0.337516,0.212828 0.573319,0.01547 0,0 z m 3.223973,0.166184 c 0.361015,2.408691 -1.926845,4.47039 -4.132205,3.360709 -1.406427,-1.685263 0.789104,-3.120302 2.353232,-2.348128 0.672171,-0.174435 1.224996,-0.616817 1.778973,-1.012581 z m -14.358314,2.758657 c 0.704804,0.437423 -2.751376,0.396966 -0.477182,0.03573 0.159058,-0.01191 0.318134,-0.02382 0.477182,-0.03573 z m -2.658947,0.465316 c 0.978768,0.02816 -0.544185,0.585588 0,0 z m 15.355419,1.063579 c 1.294475,0.09381 2.984284,1.017741 1.188688,1.23813 3.457163,1.006529 -3.313328,1.186479 -2.096863,-0.846516 0.189638,-0.337022 0.582983,-0.334638 0.908175,-0.391614 z m -14.757156,0.132947 c 2.953572,-0.07946 1.288603,4.559545 -0.174853,1.841146 0.188237,-0.571954 0.696155,-1.292596 0.174853,-1.841146 z m 12.962367,0.199421 c 0.835106,1.314261 -2.19356,1.01626 0,0 z m -7.212394,0.03324 c 0.663802,1.934697 -4.228368,4.063725 -2.762926,1.614479 0.635554,-0.877952 1.594855,-1.748312 2.762926,-1.614479 z m 1.99421,0.697974 c 0.316264,1.220457 -3.167245,2.835201 -1.163289,0.963865 0.276761,-0.421587 0.631936,-0.872438 1.163289,-0.963865 z m 12.098209,0.332368 c 0.87075,-0.178058 0.261957,0.468205 -0.112295,0.138377 l 0.112295,-0.138377 z m -10.735498,0.664737 c 1.214121,-0.256858 2.738687,1.268435 0.669524,0.828394 -0.324248,0.100385 -1.270298,-0.598429 -0.669524,-0.828394 z m -0.764447,0.332368 c 0.721204,0.411961 -1.151076,0.274511 0,0 z m 6.115578,0.332369 c 2.966905,-0.15349 -1.920779,1.377064 -0.931258,0.299874 0.321809,-0.05987 0.631109,-0.171798 0.931258,-0.299874 z"
         style="fill:#bbbbc2" />
      <path
         inkscape:connector-curvature="0"
         id="path19222"
         d="M 17.986916,0.28462578 C 15.67794,1.530592 12.913759,2.2505157 11.528613,4.7094484 10.305025,6.960904 8.0975381,8.1212527 6.1862034,9.5858647 4.7232101,11.73887 2.6850406,13.740912 2.9680636,16.581601 c -0.5000823,2.269705 1.1845569,5.316904 -1.1996899,6.796473 -2.5100557,1.467358 -1.76556967,4.459576 -0.77279811,6.638091 0.74846661,3.112783 3.86361271,4.196824 5.95023411,6.126796 0.6674343,1.451716 -0.6983654,3.572818 1.7841012,3.847977 2.3097111,1.036373 1.5614331,4.921982 4.7759801,5.199977 2.344871,0.760433 4.82692,0.266103 7.31286,0.516527 2.404463,-1.224824 5.27636,1.239491 7.646415,-0.159758 2.136611,-1.724364 5.980211,-0.254488 6.852891,-3.185649 1.912054,-0.615203 4.042387,-0.877835 4.838845,-2.896221 1.96852,-1.774493 4.499203,-3.538388 4.694012,-6.431006 -0.248831,-2.446665 1.753392,-4.685347 2.020268,-6.445681 1.467395,-1.085615 -1.344849,-2.114854 0.296194,-3.299444 1.44406,-3.008164 0.552659,-6.851428 -2.074409,-8.906599 C 42.784972,12.351587 43.072501,8.6026232 40.202516,6.9491038 38.313482,5.9237002 36.451736,4.8357456 34.51257,3.8782585 32.489653,2.8267298 30.200853,2.7536983 27.998737,2.4844176 25.608767,1.3633447 23.697609,3.1515497 21.400024,2.4589548 20.111224,2.5894722 20.483323,5.0572717 19.661671,3.1560101 19.116716,2.1924022 18.736759,1.1193495 17.986916,0.28462578 z M 32.54465,9.3915193 C 34.346508,8.7225822 34.590635,11.292875 32.660859,10.22816 31.66801,10.032984 31.005362,9.4771866 32.54465,9.3915193 z m 10.436367,4.1546047 c 1.554438,1.406034 3.97286,2.050853 4.394143,4.438968 0.856969,1.553913 0.05296,5.340043 -0.882327,5.305343 -0.288472,-2.249 -0.529733,-5.039811 -2.503139,-6.456281 -0.938769,-0.757914 -1.905332,-2.121252 -1.008677,-3.28803 z M 22.04181,14.509992 c -0.236775,1.283386 -3.082076,3.623854 -1.074928,1.219631 0.341725,-0.420642 0.690287,-0.837132 1.074928,-1.219631 z m 4.61992,1.229763 c -1.103786,2.552446 -3.136207,4.613674 -3.809984,7.378412 -1.082523,2.438175 3.458914,-3.248562 1.749296,-0.498387 -1.60643,2.350906 -3.094323,4.831527 -5.599242,6.251271 -0.359074,1.080578 -3.042968,3.184972 -2.889486,2.101519 2.765358,-2.333627 4.216619,-5.775927 6.170457,-8.746549 1.19506,-2.356225 2.27198,-4.765492 4.378959,-6.486266 z m 4.819342,0.166184 c -0.12084,1.755561 -2.911801,2.445259 -3.38409,4.228215 -2.362457,-0.621288 1.348077,-2.869368 2.281321,-3.748889 0.345592,-0.204958 0.715918,-0.369586 1.102769,-0.479326 z m 3.589578,1.329474 c -0.413957,2.792861 -3.073509,5.02927 -2.184406,8.030721 -0.887239,2.039152 -0.784184,-1.915122 -0.320386,-2.576699 0.579202,-1.86264 1.316677,-3.945342 2.504792,-5.454022 z m -13.56063,3.190736 c -0.671455,2.393533 -3.508618,5.587657 -5.735027,4.750729 2.22493,-0.01464 3.336731,-1.877064 4.541597,-3.441911 0.370822,-0.459709 0.759474,-0.907132 1.19343,-1.308818 z m 15.056288,2.559237 c -0.272993,0.951447 -1.448237,4.762308 -0.89271,1.800248 0.195071,-0.642792 0.46535,-1.275308 0.89271,-1.800248 z m -7.544762,0.332368 c 1.054783,0.622184 0.564185,3.702448 -0.132948,1.263 -0.149874,-0.348845 -0.508483,-1.187623 0.132948,-1.263 z m 15.521603,0.565026 c 2.278631,2.084861 -1.478984,3.257313 -3.192345,3.61568 -3.208604,-0.222487 0.831149,-1.834636 1.899783,-2.534539 0.470298,-0.308601 0.919506,-0.657658 1.292562,-1.081141 z m -5.683499,2.193631 c 0.364546,1.175906 -1.344492,0.550453 0,0 z m 5.816446,1.395948 c -0.01528,0.589057 -2.033425,0.200367 0,0 z m -16.18634,0.531789 c 3.012957,0.647989 0.172148,4.238228 -1.793218,3.935917 -0.759578,0.890152 -3.32658,2.526625 -1.573347,0.259699 1.730244,-1.350394 0.412763,-4.488673 3.366565,-4.195616 z m 9.339552,0.166184 c 0.476114,0.502458 0.851412,2.681874 0.780397,0.844417 1.157869,-0.823572 -0.0503,2.827336 1.803912,2.600238 0.96531,1.082529 4.845705,-2.165822 2.760497,-0.0582 -1.518757,0.535206 -3.611907,1.523531 -4.909165,1.538858 -0.512986,-1.499784 -1.098215,-3.412125 -0.435638,-4.925309 l -3e-6,0 z m -4.287552,0.53179 c 1.02342,1.555858 1.201394,3.113464 1.97882,4.746847 -0.432349,0.983653 -1.934806,-2.917623 -2.006543,-4.10986 l -10e-4,-0.316116 0.02874,-0.320871 z M 1.2023128,29.03449 c 1.3995108,0.03087 0.5068474,1.31474 0,0 z m 20.7730232,0.265895 c 0.464482,2.24059 -0.686777,5.252835 -2.52094,6.371751 -0.411667,0.838622 1.528317,2.372677 -0.260973,1.439289 -0.682798,-1.672781 -2.46443,2.398874 -3.059266,-0.07236 1.729351,-1.791696 3.845414,-3.503757 4.709166,-5.986455 0.375742,-0.583057 0.562353,-1.308364 1.132013,-1.752221 z M 8.4147065,29.7657 C 9.7047273,30.731632 13.164893,33.607288 10.81008,34.536151 8.7287785,33.697033 7.9519505,36.676361 6.1167591,34.841872 5.0554984,34.282625 2.7111894,32.823951 5.1919878,32.711467 6.9363748,32.406278 7.39836,30.671065 8.4147065,29.7657 z M 40.22236,29.79894 c 0.77327,0.457079 4.051256,0.799823 1.549886,1.464476 -0.5326,-0.140764 -1.978941,-0.779787 -1.549886,-1.464476 z m -9.173367,0.06647 c 0.506192,0.216166 -0.215383,0.361273 0,0 z m 0.465316,0.232658 c 1.722048,0.434394 0.184083,3.915773 0.172555,1.122424 -0.0098,-0.346866 -0.500548,-0.800118 -0.172555,-1.122424 z M 8.3814697,32.9232 c -2.3031597,0.06617 -0.1234404,1.808613 0.4735,0.05249 l -0.077046,-0.05805 -0.3964536,0.0056 z m 36.1616793,0.73121 c -0.54971,1.932944 -1.867242,3.317192 -3.339916,4.507522 -1.626818,0.807213 -2.47855,4.316385 -4.462888,2.292057 -0.303416,-1.028628 -0.413514,-3.055404 0.389941,-3.689592 1.617284,2.613595 1.916431,-1.266369 2.345248,-1.514985 1.365229,1.920744 4.022265,-2.270663 4.261489,-0.853747 0.24917,-0.256481 0.445385,-0.626121 0.806126,-0.741255 z m -21.537471,0.166185 c -0.56669,2.048714 -1.540255,5.752533 0.701035,6.799098 -1.807541,0.712988 -4.327233,1.436483 -5.443414,3.505755 -0.780553,1.735061 -4.123026,1.567635 -2.028111,-0.426 1.618134,-1.66024 4.500366,-2.142211 4.396286,-5.046572 0.193016,-1.829636 0.916563,-3.655131 2.374204,-4.832281 z m 4.852578,0.697973 c 1.222865,0.839835 2.770646,0.490397 2.118277,2.53502 -0.312224,2.366588 -0.745959,5.668715 -4.018661,4.470592 -2.07843,-0.317176 -1.005837,-4.116606 -0.288406,-5.618631 0.506415,-0.721744 1.272212,-1.348702 2.18879,-1.386981 z m -14.424787,0.166184 c 1.570623,0.04873 2.516019,3.774243 0.354816,1.618886 -0.777616,-0.344533 -1.987921,-1.429166 -0.354816,-1.618886 z m 19.144418,0.731211 c -0.309149,1.627531 1.32245,4.193542 -0.0026,4.97333 -0.698338,1.578796 1.130427,3.480701 1.95768,2.508696 -0.809957,2.22311 -3.908459,0.126192 -5.415868,2.027207 -2.269335,1.50417 -4.731159,-0.311567 -7.209788,0.107088 -1.92222,-1.063996 2.416237,-1.01659 3.194683,-0.259778 1.256245,0.499447 4.730827,-0.8002 1.578997,-0.977282 -1.091826,-0.166482 -4.646475,-0.193106 -1.82524,-0.99725 1.72845,-1.210631 4.517625,-0.412834 5.828104,-0.518512 0.44939,-2.3387 1.591447,-4.499636 1.894,-6.863499 z m 4.52021,4.354026 c -0.490216,0.390661 0.613846,0.217023 0,0 z m -21.869839,0.631499 c 1.822514,0.80267 -3.88064,0.353554 -1.605471,1.903121 2.322442,0.356683 1.274281,4.113483 -0.777804,2.302571 -0.333425,-1.133478 0.131699,-2.324892 -0.956652,-3.180962 0.228627,-1.061086 2.478615,-0.605644 3.339927,-1.02473 z m 19.510024,0.365606 c 0.47853,0.768224 1.990416,1.050033 0.331364,0.661216 -0.136666,-0.136245 -0.567766,-0.428217 -0.331364,-0.661216 z m -5.085236,0.565026 c 0.709659,0.262319 -0.625746,0.294551 0,0 z m -8.708052,1.761552 c 0.865015,1.216747 -3.478732,3.196805 -1.448042,1.117383 0.422178,-0.431668 0.795649,-1.023137 1.448042,-1.117383 z"
         style="fill:#abacb4" />
      <path
         inkscape:connector-curvature="0"
         id="path19220"
         d="M 17.887205,0.18491527 C 15.561427,1.4136061 12.78285,2.115062 11.424641,4.6118373 10.198952,6.9241496 7.8840743,8.0291338 5.9913382,9.5932116 4.4111043,11.767749 2.54971,13.932406 2.8552983,16.825015 c -0.4185435,2.203647 1.1544089,5.143389 -1.2528868,6.517665 -2.45770784,1.454852 -1.68573329,4.421455 -0.73173652,6.562581 0.78951892,3.024166 3.71883202,4.244349 5.91488932,5.989086 0.7397527,1.505018 -0.6950874,3.862929 1.9938999,4.069255 2.1183418,0.985503 1.3106628,4.54971 4.2044508,4.962833 2.358184,1.113554 4.836533,0.207811 7.358244,0.763928 2.538094,-1.263434 5.319224,0.860932 7.961372,-0.05063 1.606531,-2.195336 5.828409,-0.176859 6.469929,-2.968386 0.770729,-1.16979 3.722445,-1.004323 3.838427,-1.570191 -2.113282,0.02189 -3.849523,0.97172 -4.713817,2.732074 -2.056096,0.387865 -4.082165,0.02835 -5.604315,1.661511 -2.523455,0.576506 -5.010269,-1.090731 -7.513856,-0.2459 -1.081605,0.34016 -3.007866,0.102012 -1.411743,-1.125702 0.562016,-1.577897 4.131393,-1.611727 1.516596,-0.205115 -1.348922,1.997917 2.780458,-1.265594 3.888632,-1.490076 1.337799,-1.36529 -2.63317,-1.829114 -3.544199,-0.733878 -2.402607,0.770718 -2.817498,4.48362 -5.886216,3.561917 -2.491714,0.176549 -3.871186,-1.646962 -3.896801,-4.036845 -0.581745,-1.045432 -0.463259,-1.841329 0.630988,-0.684313 1.064715,0.547688 3.287564,-1.289416 3.865601,0.246982 -1.03775,0.226863 -3.885317,0.697153 -1.651214,1.778787 0.834298,0.940189 1.102128,2.644921 2.033492,0.671785 1.775549,-1.317231 3.517527,-1.913042 4.164264,-4.320301 0.550931,-1.34437 -0.901255,-1.729985 -0.830499,-0.07279 -0.952943,1.594134 -0.340748,-1.520495 -1.065862,-1.514992 -2.32332,1.364103 -4.58978,-0.380409 -6.128687,-2.079998 -0.492336,-1.637206 2.498321,-3.807004 2.255724,-0.879139 -0.142301,1.635551 1.272408,3.170672 2.44551,1.369672 1.8855,-1.33169 3.072117,-3.325092 3.797542,-5.475597 0.163927,-0.906851 1.656559,-3.223354 1.342226,-0.850562 0.576258,2.376025 -2.114038,4.853222 -1.433375,6.840974 0.398013,-1.044897 3.169529,-4.120941 1.968046,-1.47324 -0.591867,1.572901 -0.714453,6.298115 1.719979,5.349132 0.328301,-2.410105 0.379965,-5.094353 2.191535,-6.946637 2.350711,-1.280763 4.060475,2.209719 3.350514,4.194773 -0.22996,1.03624 -0.872749,4.647737 0.857009,2.396575 1.237764,-2.15205 1.903003,-5.007819 0.766977,-7.317599 -1.59318,-1.816227 -4.514148,-0.726907 -6.062715,0.607113 -1.147368,1.10722 -1.92677,0.19418 -0.661917,-0.787695 0.704305,-2.160435 1.699547,-6.078233 4.79601,-3.874872 2.918997,1.361072 2.995902,4.770374 3.010689,7.537055 0.104985,2.027342 0.797499,3.734832 0.321373,5.528537 1.311263,1.92225 1.751565,-0.553935 1.048947,-1.61484 -0.07334,-2.540051 1.54482,-5.109934 0.173207,-7.568322 -0.343998,-1.368252 -2.01442,-3.503555 -1.370273,-4.578102 2.054886,1.48976 1.909067,4.347312 2.921294,6.47936 -0.02186,1.811475 3.292387,3.536775 2.776808,0.772925 -0.483207,-2.286209 -2.26438,-4.680689 -1.013733,-7.033627 1.825729,-0.796388 2.78972,3.542559 5.18245,2.344083 0.802662,-0.24833 0.620319,1.054575 1.660188,-0.04548 0.532415,0.341265 -2.38182,1.689711 -2.606245,2.683165 -0.761062,0.347684 -2.918161,-0.679942 -1.485073,0.689861 0.507162,3.647762 4.440015,-2.553934 4.095589,0.447 -0.535883,1.07907 -0.928191,1.519004 -0.08794,0.156911 0.654999,-2.147329 0.242146,-4.707986 2.126128,-6.300709 -0.991816,-1.557821 1.580318,-1.733102 0.210787,-2.982587 -0.992481,-0.993677 1.386349,-3.216389 -0.1915,-1.233715 -0.617908,0.12785 0.17964,-3.889857 -1.652912,-2.728573 1.495049,-2.758573 -3.49642,-5.015992 -1.774819,-7.283241 2.014073,0.143953 3.679586,2.651616 4.171059,4.013207 C 46.649355,14.879041 43.279134,13.695981 42.966232,10.73486 42.093681,7.8006714 39.273225,6.2000612 36.703115,4.9692859 34.186608,3.3033726 31.176011,2.5525551 28.193108,2.4429159 26.172568,1.2670192 24.189307,2.7637521 22.349687,2.3799813 20.387406,1.406215 20.246751,5.3403828 19.411464,2.7854592 18.943371,1.8977918 18.568376,0.93955058 17.887205,0.18491527 z M 39.989702,7.197888 c 1.239912,0.6510619 3.03592,3.042682 2.525938,3.711853 C 41.348502,9.9563428 40.271594,8.7235552 39.989702,7.197888 z m -2.193631,1.2629999 c 0.543775,0.2829726 -0.561967,0.4018991 0,0 z m -4.786105,0.8309209 c 1.488433,0.07117 4.970931,2.5710602 4.112974,2.9290132 -1.659268,-1.460469 -3.893253,-1.880008 -5.970536,-2.4011114 0.496107,-0.4623608 1.211193,-0.5452691 1.857562,-0.5279018 z m -7.012973,0.9971052 c -0.02167,1.433922 -2.851681,1.765708 -0.726094,0.477875 0.229603,-0.176657 0.462936,-0.35302 0.726094,-0.477875 z m 7.312105,1.628605 c 2.249075,0.264939 0.230342,1.502851 0,0 z m -10.768736,1.828026 c -0.231232,1.199434 -2.176447,3.823535 -2.708013,3.348511 0.809636,-1.185472 1.636421,-2.380701 2.708013,-3.348511 z m 4.52021,1.429184 c -1.040581,2.793827 -3.576363,4.998742 -3.911517,8.03983 0.642215,-0.387656 2.779581,-3.205976 2.111383,-0.938831 -2.212402,1.317848 -2.204037,4.809454 -4.95339,5.449035 -1.507789,0.914095 -2.967212,4.756529 -4.800701,3.345203 0.04623,-0.626651 2.147611,-0.844298 0.797154,-1.069176 2.849477,-1.635385 3.952422,-4.918052 5.699656,-7.515259 1.134121,-2.528264 2.521351,-4.94644 4.558405,-6.859516 l 0.243971,-0.231738 0.255039,-0.219548 z m 5.317894,0.299131 c -0.873208,2.251272 -4.222435,2.87279 -4.292329,5.636646 0.673775,1.430837 2.768114,2.880192 1.48021,4.588015 -1.554156,-1.415701 -4.009173,-2.972793 -2.683768,-5.362876 0.660589,-2.27433 3.178995,-4.317903 5.495887,-4.861785 z m 2.658947,0.6315 c 1.05227,2.301452 -1.514919,4.228686 -2.092521,6.296455 -0.0589,0.974392 0.59376,4.839973 -0.935965,3.2599 -0.140418,-3.157154 1.666058,-5.920913 2.499253,-8.859982 l 0.230185,-0.384184 0.299048,-0.312189 z M 15.52739,16.803334 c 0.392446,1.383336 -1.767576,0.03923 0,0 z m 7.644472,0.830921 c -1.315723,2.382569 -2.295936,5.138733 -4.416622,6.936213 -0.716603,1.089682 -4.391677,1.055292 -3.620329,0.516052 3.175475,0.108635 4.880917,-3.010319 6.4773,-5.267982 0.483814,-0.752373 0.960603,-1.516071 1.559651,-2.184283 z m 17.914656,0.132947 c -0.556225,2.307468 -1.904818,0.836339 0,0 z m 6.381473,0.398842 c 0.398428,1.117894 0.157747,4.573856 0.28159,1.488523 -0.03803,-0.504686 -0.136097,-1.004079 -0.28159,-1.488523 z m -8.641578,1.196526 c -1.237753,2.253511 -2.661069,4.452169 -3.252455,6.961163 -0.770376,-1.922085 1.286419,-3.659913 2.051497,-5.353256 0.36775,-0.559192 0.762932,-1.101468 1.200958,-1.607907 z m -22.60105,2.260105 c 0.240888,0.939014 -2.849901,0.230998 -0.569777,0.137779 0.18732,-0.05605 0.380056,-0.09116 0.569777,-0.137779 z m 28.48397,1.329474 c -0.610281,1.423124 2.35737,2.523086 -0.06488,3.266983 -1.905395,1.736409 -5.106695,1.558871 -6.790964,0.307708 0.33566,-1.680644 1.458811,-1.827704 1.980482,-0.375573 1.744897,-0.48896 3.75716,-1.767447 4.875359,-3.199118 z M 9.0794433,24.281622 C 10.240599,23.846311 13.272538,27.179105 10.804081,25.47476 10.228954,25.0776 9.5787952,24.781973 9.0794433,24.281622 z m 25.0938127,0.897395 c 0.360414,1.227141 -1.582772,1.403488 0,0 z m 11.533182,1.794789 c -0.442567,1.356129 -3.512703,0.812642 -0.945554,0.279978 0.314422,-0.09572 0.622623,-0.213947 0.945554,-0.279978 z m -14.424787,1.495658 c 1.039515,0.656862 -0.120823,1.115048 0,0 z M 0.86994442,28.502704 C 2.5776813,27.951216 2.0782845,31.608425 1.2359817,29.288841 1.0851116,29.043252 0.90850845,28.797622 0.86994442,28.502704 z M 14.862653,28.835069 c 0.720849,-0.07289 0.604135,0.77075 0,0 z m -6.1155781,0.465316 c 0.6864918,1.582901 4.7269461,4.031881 2.2937561,5.416764 C 9.7268985,34.265366 8.4945117,34.960945 7.9636611,35.598993 5.9460071,35.117776 2.8426578,33.352428 2.6706925,31.591375 4.14151,33.56149 6.2043706,31.987397 7.1323037,30.360916 7.4651066,29.769514 8.0338669,29.286969 8.7470749,29.300385 z m 30.5114171,0.565026 c -0.798831,1.55924 3.816565,2.370383 1.347224,0.951297 -0.453543,-0.310852 -0.867376,-0.679009 -1.347224,-0.951297 z m -25.426181,1.861263 c 0.570458,0.629496 -1.098483,0.297953 0,0 z m 21.637181,2.825131 c -0.288381,2.022963 -1.970644,4.760577 -0.07381,6.400728 1.74801,0.858789 0.496463,-2.265599 1.157838,-3.333449 0.0028,-1.049209 -0.423359,-2.274837 -1.084032,-3.067279 z m 8.275973,1.36271 c -0.130119,0.26024 -0.298882,0.597765 0,0 z m -0.166184,0.332369 c -1.472748,0.791436 -4.004549,3.471197 -4.122899,3.906492 1.221455,-1.451817 2.619763,-2.75091 4.122899,-3.906492 z M 7.916154,39.038778 c 1.6118135,0.03685 -0.8325104,0.487542 0,0 z m 15.488366,4.786105 c -0.503014,0.929913 2.566669,0.311202 0.313637,0.0088 -0.104514,-0.0029 -0.209175,-0.0059 -0.313637,-0.0088 z"
         style="fill:#898c96" />
      <path
         inkscape:connector-curvature="0"
         id="path19218"
         d="M 18.219573,0.05196792 C 15.894337,1.2996843 13.135179,2.0277114 11.742973,4.4994834 10.515465,6.7455187 8.3268484,7.9163585 6.4061802,9.3644368 4.8771623,11.553736 2.8647846,13.637598 3.1630225,16.544253 2.7639904,18.79811 4.3332758,21.80993 1.9233351,23.255306 -0.15621346,24.519462 -0.08031776,27.158295 0.93467526,29.094584 1.388138,30.163072 3.2475243,33.6993 2.0059083,30.972114 1.1475614,30.154639 0.40099838,27.216656 2.1632629,29.051307 c -0.2370063,1.354143 0.8476531,2.885916 1.7950149,2.592528 1.9617864,1.148736 2.5989484,-2.53259 4.5008256,-2.663078 0.8742305,-0.587677 2.2058936,-0.02416 0.9929703,0.880728 0.9412353,1.444774 2.6407123,3.352809 2.9082203,4.599155 0.702045,-0.79421 1.207531,-4.477104 2.150131,-1.836544 0.05438,1.787994 0.985889,5.425447 2.984252,2.751656 2.575496,-1.894041 2.98613,-5.314633 4.767742,-7.752946 0.825226,2.199904 -0.485539,4.840114 -1.178168,7.06298 -0.0067,2.110572 1.591377,-2.688397 2.92437,-1.39672 2.078405,-1.536039 0.814447,-5.945541 4.335726,-5.810816 1.075878,-0.05352 3.64881,2.948826 2.383426,0.429319 -0.848382,-2.467938 -3.592345,-3.482058 -5.007412,-5.463004 -2.537131,0.53927 -2.420413,4.219858 -4.792228,5.207583 -2.393234,0.597104 -3.02492,4.857591 -5.74842,3.636931 0.08646,-1.117239 -0.585394,-2.143476 -1.015919,-3.059368 0.90382,0.24391 2.668814,0.985611 2.311021,1.256123 2.914081,-1.664458 4.104884,-5.006496 5.795789,-7.716878 1.161341,-2.527468 2.640318,-5.059165 4.91185,-6.714531 -0.780085,2.56642 -3.213736,4.576971 -3.71737,7.351883 0.653854,0.239036 2.814388,-2.770119 2.66485,-0.550979 0.662477,-2.593206 2.482472,-4.834674 4.761675,-6.141006 1.07584,-0.822808 2.902947,-0.05037 1.042439,0.901078 -2.12798,1.113018 -4.788494,3.785075 -2.378003,5.96135 0.199771,2.817075 1.528391,5.132048 2.66688,7.619825 0.824929,2.560021 0.27219,5.37283 1.173379,7.886116 2.095812,-0.895757 1.340683,-4.825319 0.395133,-6.686972 -1.5006,-2.921932 -2.616951,-6.424987 -1.248439,-9.619009 1.222602,-1.831894 0.665731,-4.859271 2.494088,-5.994672 1.780912,2.112325 -1.850327,4.586671 -1.910794,6.970652 -0.53938,1.29834 0.413363,3.893575 1.299099,1.899385 -1.204167,2.4479 -0.07287,4.724894 0.768736,7.065996 0.11821,1.335149 2.31726,5.549735 2.596584,2.356452 -0.36924,-2.367406 -2.694184,-4.893075 -0.309415,-6.972178 -0.05076,-0.98873 1.749673,-5.111929 1.987509,-2.281308 1.278665,2.081071 3.357941,-1.219722 4.691781,-1.556818 1.753505,-2.395001 -0.461505,2.188084 1.92574,1.602342 -0.617343,1.611373 -4.013549,3.3422 -6.127528,2.638605 -2.495568,-0.815235 1.024319,3.717338 2.747492,2.660337 0.784057,-0.48384 2.374518,-1.09727 1.12101,0.241892 1.276497,-1.325059 1.721509,-0.239378 0.313087,0.447449 -0.860841,0.334866 -3.434147,3.222997 -1.449023,2.835183 0.959246,-1.766957 2.875954,-1.050234 1.71748,0.78841 -1.06912,2.373166 -3.385059,3.788243 -5.099226,5.63441 -0.533502,2.233837 -4.562003,0.494223 -4.785487,3.292315 -1.673035,1.468922 -4.519,0.02401 -6.000942,2.095631 -1.698088,0.61926 -3.451084,-0.436814 -5.126516,-0.211615 2.599731,0.563295 5.404275,0.807505 7.464348,-0.981233 1.891508,0.03473 4.248179,-0.165767 4.763962,-2.217305 2.260171,-0.344508 4.053201,-1.343531 5.20393,-3.214905 1.830512,-1.655261 4.102902,-3.352218 4.22949,-6.046415 -0.251836,-2.45082 1.748206,-4.675586 2.044967,-6.454459 1.419341,-1.099482 -1.381184,-2.110604 0.257194,-3.304829 1.441084,-3.007456 0.611659,-6.876546 -2.060076,-8.91388 C 42.966282,12.139162 43.320565,8.3515039 40.417871,6.7189266 38.480369,5.6813074 36.596711,4.5292723 34.59504,3.5890978 32.530879,2.5426826 30.205146,2.5229942 27.975473,2.2171702 25.678802,1.2003566 23.85212,2.9375755 21.630123,2.2536883 20.330543,2.6973285 20.578221,4.7123371 19.739622,2.6779052 19.267889,1.784532 18.890856,0.82256515 18.219573,0.05196792 z M 2.5317863,32.324937 c 1.0067507,2.106584 5.3872084,2.147828 4.6788632,4.920135 -0.759587,2.813174 3.0416865,1.946935 3.2842275,4.42622 0.67188,2.764468 3.42424,3.922851 5.999057,3.708267 1.988542,-0.28554 3.858748,0.553095 5.747296,-0.225211 -1.752272,0.214687 -3.581967,0.359188 -5.097752,0.04365 -1.94517,0.219414 -4.855753,0.01531 -5.651633,-2.091889 -0.403829,-1.147613 -1.017988,-5.722364 0.500753,-2.745632 1.642506,-0.02784 3.906516,-1.042339 5.364547,0.829276 1.596823,1.864048 3.217672,-1.938401 0.931127,-2.160476 0.110152,-0.767534 1.076421,-2.195951 -0.517788,-1.387144 -2.226994,1.3054 -4.650297,-2.154493 -6.906753,-2.874335 C 8.9914762,34.055639 7.9905558,36.94095 6.2240162,35.020661 4.8735133,34.304273 3.6253411,33.393224 2.5317863,32.324937 z M 39.059071,6.599625 c 1.901626,0.3557263 4.34931,3.61147 3.575875,4.717161 C 40.811425,10.53334 39.68974,8.2635137 39.059071,6.599625 z M 37.496939,7.8958616 C 39.7801,8.9724031 34.493759,10.336986 36.705907,8.483804 36.960906,8.3012799 37.135791,7.91512 37.496939,7.8958616 z M 32.777308,9.1588615 C 35.361773,9.7319669 38.29751,11.521819 38.644992,14.296873 36.732887,12.019323 34.083917,9.9810815 30.94908,10.10038 30.47554,9.5624713 32.403503,9.14257 32.777308,9.1588615 z m -6.414709,0.7312104 c -1.202227,2.3480411 -4.095623,3.3653781 -4.915404,6.0225891 -0.30946,0.774307 -2.907298,2.989195 -1.525722,0.907778 1.89037,-2.492763 3.623181,-5.385938 6.441126,-6.9303671 z m 12.197919,0.09971 c 2.234005,0.3809521 0.19517,2.5372841 -0.282828,0.2849361 l 0.07619,-0.195598 0.206639,-0.089338 z m -5.683499,1.7615521 c 1.176053,-0.03428 4.313322,1.8597 1.323085,1.237672 -0.56317,-0.135504 -1.332596,-0.581319 -1.323085,-1.237672 z m 10.203709,1.562132 c 2.505838,1.069808 4.520706,3.327128 4.746944,6.109021 0.435483,1.172688 -0.856502,5.007321 -1.555283,3.824129 0.439318,-1.465182 -1.131503,-2.165037 -1.384407,-2.419221 0.766321,-2.889688 -3.184569,-4.890828 -2.016203,-7.434692 l 0.208949,-0.07924 0,0 z m -1.096816,0.398842 c 0.483922,1.548201 -1.014786,1.616556 0,0 z m -25.592365,2.658947 c 0.753259,2.229815 -3.930751,0.79269 -0.958759,0.152325 0.313832,-0.07844 0.632614,-0.156296 0.958759,-0.152325 z m 25.027339,0.465316 c 0.51891,1.278291 -2.537132,4.208852 -1.144353,1.32929 0.219564,-0.575748 0.929394,-0.743775 1.144353,-1.32929 z m -18.213787,0.598263 c -0.917493,2.506558 -2.290589,4.934181 -4.075752,6.912652 -1.45882,1.283813 -3.844254,1.746393 -5.451829,0.463964 2.711151,0.603047 5.348308,-0.747096 6.568306,-3.200275 1.009624,-1.37567 1.897672,-2.838488 2.959275,-4.176341 z m 15.853972,1.36271 c -0.644453,2.547286 -2.96054,4.434132 -3.07395,7.144795 -1.72751,1.463069 -0.145388,-2.495125 0.398746,-3.164709 0.808922,-1.373642 1.695403,-2.73327 2.675204,-3.980086 z M 5.1242596,20.326439 c 0.6234021,0.796082 -0.3166037,1.421711 0,0 z m 11.2340514,1.096815 c 1.041529,1.582195 -4.444126,0.224015 -1.207368,0.293278 0.409739,-0.06917 0.796304,-0.230008 1.207368,-0.293278 z m -9.5722095,1.794789 c 2.0356318,-0.0804 5.2312255,2.153266 5.4260785,3.111489 C 10.635883,25.286701 7.4633884,24.34447 6.7861015,23.218043 l 0,0 z m -2.3265787,0.332369 c 0.4964061,0.812095 -0.9671522,0.692921 0,0 z M 47.202096,25.77728 c -0.160311,0.512957 -0.883323,0.190589 0,0 z M 33.17615,26.275832 c -1.130042,0.590801 1.03936,0.725315 0,0 z m 12.895893,0.365606 c 0.405337,1.814684 -4.586323,1.462844 -1.720089,0.589999 0.588195,-0.150006 1.158964,-0.360234 1.720089,-0.589999 z M 5.5895753,28.535937 c 1.4483376,0.4906 -0.3544014,3.515579 -0.100752,0.987257 0.040773,-0.31366 -0.2736658,-0.779512 0.100752,-0.987257 z m -1.6950787,0.06647 c 1.4166168,2.380699 -1.522443,0.420348 0,0 z m 35.4969424,1.528895 c -0.02442,1.447084 3.135046,1.640249 0.712783,0.470323 -0.221758,-0.177204 -0.432961,-0.385609 -0.712783,-0.470323 z m -9.904578,1.661842 c 0.704984,2.176374 0.463037,5.010755 1.332347,6.807513 1.832992,-1.153611 1.537529,-3.862437 0.759323,-5.611868 -0.399193,-0.767483 -1.234219,-1.229445 -2.09167,-1.195645 z m -3.290446,1.262999 c -1.872003,0.615093 -4.263353,1.286295 -3.695492,3.832647 -0.528895,1.408774 2.567222,4.363878 1.906005,1.672107 -0.757706,-0.528852 -0.595843,-2.017129 0.144268,-1.198804 0.691989,-1.352286 1.153692,-2.8673 1.645219,-4.30595 z m 9.406025,2.492763 c -2.039944,1.477901 0.513383,5.378375 0.447447,1.49285 -0.05084,-0.517006 -0.131827,-1.062367 -0.447447,-1.49285 z m -15.189235,2.160395 c -1.034873,1.006205 0.139244,2.412768 0,0 z M 7.6502593,38.772883 c 3.1710767,0.162325 -1.1468278,1.255172 0,0 z m 27.2209697,0.53179 c -0.842423,1.536945 2.415527,1.39131 0.387467,0.180116 -0.130006,-0.05037 -0.233998,-0.212999 -0.387467,-0.180116 z m -18.346734,1.562131 c -1.291929,0.02267 -4.540762,0.910879 -1.737768,1.901836 0.575293,2.548837 1.92306,-0.688162 2.029812,-1.720008 l -0.292044,-0.181828 z m 6.281762,0.265895 c -1.320188,0.315876 -4.159912,2.176374 -3.576494,2.671939 0.976081,-2.402607 4.490084,0.175081 5.367794,-2.060897 -0.45652,-0.383545 -1.194069,-0.630848 -1.7913,-0.611042 z m -5.517315,0.697973 c -0.776048,0.569283 0.402459,0.223757 0,0 z"
         style="fill:#7a8392" />
      <path
         inkscape:connector-curvature="0"
         id="path19216"
         d="M 18.086626,0.28462578 C 15.777807,1.5307405 13.013116,2.2503827 11.628244,4.7094882 10.421759,6.9714577 8.2032475,8.1146005 6.3019545,9.5878891 4.7719548,11.776713 2.7656721,13.872317 3.0618681,16.776303 c -0.3947997,2.247414 1.1727421,5.256781 -1.2502647,6.682837 -2.48124836,1.450588 -1.62997133,4.417167 -0.7134439,6.560553 0.7809738,3.012762 3.6748988,4.285546 5.9110787,5.972063 0.7751357,1.489973 -0.7069468,3.857816 1.9883759,4.073741 2.0924229,1.084615 1.4420119,4.691096 4.4340509,5.067918 2.347267,0.915945 4.744549,0.134186 7.187167,0.66699 2.403988,-1.279164 5.059744,0.763884 7.594494,0.01803 1.862239,-2.124751 6.135349,-0.327446 6.90014,-3.205009 1.821816,-1.041573 4.349097,-0.896739 5.151459,-3.142376 1.865333,-1.722951 4.336243,-3.346053 4.62951,-6.091552 -0.24589,-2.382656 1.354024,-4.105782 1.823899,-6.175961 -0.265539,-0.578451 1.649448,-1.450942 0.218298,-2.330821 0.406477,-2.282187 2.014812,-5.895049 0.02916,-8.503117 C 44.780775,14.314461 43.318089,11.922836 42.337728,9.1130425 40.989855,6.7067693 38.250612,6.0087521 36.090359,4.5995957 33.812567,3.2893208 31.219407,2.6321509 28.603361,2.5763835 26.755838,1.7493416 24.712398,2.2752487 23.11949,2.6290732 21.752347,1.6695382 20.293515,3.443349 20.214745,3.8521057 19.414157,2.7174172 19.054272,1.3071388 18.086626,0.28462578 z m 0.332369,0.96386832 c 0.989446,0.7746112 1.604458,3.8348121 0.456091,1.1787564 -0.19038,-0.3742389 -0.427569,-0.7462722 -0.456091,-1.1787564 z m 18.114076,4.0548942 c 2.31651,0.4097109 -0.287252,1.3412472 0,0 z m 2.160394,1.0968156 C 41.058049,6.7209318 43.420794,10.28904 42.942991,11.73166 40.791718,10.774346 39.661536,8.5184965 38.657944,6.5431977 l 0.03552,-0.1429938 z m -1.595368,1.2629999 c 1.717711,-0.3657792 0.828313,2.0682126 0.921398,1.7214504 1.767036,-0.1997287 3.200703,3.9646108 0.675987,2.0258868 -0.922539,-1.288763 -3.182711,-1.385118 -3.30484,-2.9874378 0.260349,-0.6567729 1.094304,-0.7678035 1.707455,-0.7598994 z M 8.7138381,8.4608879 c 0.9048159,0.4702268 -0.8117926,0.3502665 0,0 z M 32.777308,9.1256246 C 35.523457,9.5926469 38.42237,11.606473 38.827495,14.52539 37.189132,13.267944 35.51778,10.760445 33.058157,10.369384 31.849617,10.649607 29.598049,9.8390443 31.92341,9.2473689 l 0.423637,-0.084156 0.430261,-0.037588 0,0 z m -6.281762,0.6314999 c -1.009232,2.5157145 -4.159452,3.4343675 -4.983079,6.1512025 -0.459868,1.053536 -3.317139,3.232322 -1.665845,0.895252 1.94622,-2.545788 3.649232,-5.613774 6.648924,-7.0464545 z m -4.819341,0.7976845 c 0.250156,1.13693 -1.13318,0.905032 0,0 z m 11.234051,1.096815 c 1.528554,0.342141 3.287774,1.071309 4.121368,2.426289 -0.934788,-1.127467 -4.578583,-0.389742 -4.121368,-2.426289 z m 7.77742,0.166184 c 1.440332,0.964784 0.48712,1.834446 0,0 z M 6.4869699,12.150177 c 1.3139096,0.9564 -1.6397829,1.836794 0,0 z m 21.4045231,0.06647 c -0.04448,0.824337 -1.155468,0.351017 0,0 z m 13.793288,0.830921 c 1.306321,0.875674 -0.518885,3.287812 -0.221955,0.835532 0.05299,-0.283752 0.140679,-0.559127 0.221955,-0.835532 z m 1.263,0.09971 c 2.90133,1.201954 5.048721,4.085847 4.901211,7.28482 0.08376,2.043141 -1.915176,3.597091 -1.394599,5.045864 -1.091565,0.05585 -3.689254,2.309558 -1.213885,1.351834 1.123149,-0.311515 2.764781,-1.897329 1.107841,-0.173488 -0.548092,0.477211 0.636464,1.924021 -0.381275,1.510439 -0.866308,-0.697653 -3.124217,0.629467 -3.652098,-0.427329 -1.162718,0.472111 -4.403936,-1.528523 -2.778138,0.951536 0.912619,0.536081 2.442562,0.2301 1.815806,1.289689 1.023623,0.987077 4.384483,-2.240741 2.858139,0.117421 0.92612,-0.816717 1.867826,-1.491578 0.818242,0.06669 -0.232814,0.922927 -0.01713,1.425608 -0.64156,0.704999 -1.536318,0.177537 -2.146849,3.315782 -0.245387,1.313801 1.64823,-0.114361 -0.06931,3.103164 -0.646099,3.980531 -2.037636,1.623932 -3.618276,4.046668 -5.794437,5.263684 -2.816758,-0.446654 -2.926387,3.453022 -5.743074,2.694555 -2.588759,0.22608 -4.568538,2.40029 -7.318519,1.271344 -2.515835,-0.869183 -4.812925,0.629811 -7.347899,-0.275064 -2.203958,0.71189 -6.152373,-0.302211 -6.255246,-3.145679 C 9.4585854,39.812642 12.224212,36.705912 10.518932,34.79478 8.9305431,34.647864 7.514748,36.949467 6.093801,34.91594 3.8381918,33.91892 2.0502489,32.225372 1.3499174,29.824894 0.54602157,28.819315 0.86526033,27.488548 2.0880858,28.876317 c 1.6580316,-0.549272 4.1475985,-1.688305 4.8833987,0.584924 0.7418559,-0.963064 4.7299925,-1.469042 2.656723,0.399053 0.4380785,1.547596 3.3431495,3.53899 2.8795885,4.11079 0.296794,-1.128427 1.485473,-4.047141 2.061112,-1.373327 0.07389,1.460188 0.994074,5.131481 2.72266,2.631024 2.552951,-1.64421 3.193955,-4.78598 4.493457,-7.320892 -0.862896,-1.540873 -3.103916,1.821799 -3.931553,2.682113 -1.966162,2.500253 -3.342344,-0.203852 -3.931721,-2.074429 -1.069616,-2.092895 1.994602,1.203538 3.191401,0.107633 2.187629,-0.712716 2.830362,-3.273125 4.071315,-4.996115 1.607826,-2.950564 2.94542,-6.163031 5.584723,-8.376192 1.220179,-0.171205 -1.290296,2.72454 -1.585377,3.636988 -0.597757,0.551806 -2.433788,4.225117 -0.783287,2.909421 2.154159,-1.368313 3.334961,-3.595653 5.215445,-5.268643 0.607492,-1.236083 4.812232,-1.99167 2.936286,-0.01394 -2.107307,0.875047 -5.025489,2.937359 -3.247182,5.500501 1.491119,1.848925 0.154373,5.164994 2.639703,6.244998 0.03623,-2.489757 -0.468337,-5.508999 1.075301,-7.85057 0.634159,-1.369445 0.395973,-5.527568 2.349444,-4.691204 0.95752,2.107452 -1.222421,4.002875 -1.888783,5.872139 -0.971908,1.038538 -0.148491,5.389416 0.821252,2.496846 0.984596,-1.627409 -0.478781,2.03817 -0.285656,2.623383 0.01165,2.367901 1.215236,4.50503 1.833215,6.746663 0.516291,1.754745 1.936046,0.805881 1.027434,-0.643398 -1.181446,-2.39956 -1.441421,-4.910421 -1.590368,-7.48363 0.444499,-2.562488 2.395092,-4.456159 3.615999,-6.664841 0.653695,-0.255337 -0.672267,2.509028 -1.266677,3.221068 -1.015189,1.345524 -3.062492,5.489136 -0.676142,5.748354 0.454579,-1.490627 1.779781,-4.705587 2.188094,-4.958079 -0.362593,2.124035 2.159455,3.83106 3.242603,1.347153 1.002519,-0.411625 2.297731,-1.161495 2.600636,-1.956789 -0.24379,1.22232 0.475151,3.698377 1.204637,1.220216 0.42587,-1.34553 -0.923613,-2.115382 -1.470719,-2.318911 0.473846,-2.641249 -1.525888,-4.44519 -2.305894,-6.543138 0.02289,-0.466922 0.18045,-0.950815 0.528627,-1.278205 z m -1.263,2.658947 c 0.401354,1.697408 -1.727308,4.675402 -2.390299,4.584038 0.471144,-1.682602 1.631846,-3.037401 2.390299,-4.584038 z m -24.927628,0.166184 c 0.862869,1.965341 -3.705859,2.417019 -2.138139,0.582179 0.719288,-0.168378 1.436769,-0.348826 2.138139,-0.582179 z m -10.9681567,0.09971 c 0.8503955,0.739009 -0.7381067,0.704008 0,0 z m 17.5158137,1.16329 c -0.744828,2.509274 -2.296517,4.744009 -3.800093,6.84571 -1.505412,1.711221 -4.98697,2.170557 -6.244254,0.325899 2.282554,1.005071 4.824173,0.303562 6.18238,-1.839794 1.397666,-1.700828 2.433176,-3.665786 3.861967,-5.331815 z M 7.3843645,18.398702 c 0.4601148,0.720712 -0.4686683,0.880312 0,0 z M 5.0245491,18.897255 C 6.9809387,19.30517 5.1948183,22.259468 5.0701254,23.76078 4.6100717,26.181382 3.4321757,23.101513 4.695724,22.205668 5.5306107,21.122636 4.2097231,19.864529 5.0245491,18.897255 z m 2.3265786,0.465315 c 0.782562,1.539438 -0.4174437,1.999341 0,0 z m -3.7557626,1.329474 c 0.081733,0.96834 -0.1151151,0.65691 0,0 z m 3.9219468,0.432079 c 0.4633975,2.47611 4.8206151,3.744714 4.7639771,5.491344 -1.771527,-1.21402 -3.7072875,-2.121476 -5.6438404,-3.02417 -0.4081921,-0.84369 1.1586524,-1.266442 0.8798633,-2.467174 z m 9.0071831,0.132947 c 0.699692,2.450469 -5.068254,-0.09506 -1.787653,0.37705 0.615505,-9.63e-4 1.207306,-0.193733 1.787653,-0.37705 z m 8.840999,1.329474 c -1.725901,0.99755 -2.808185,3.201169 -2.846879,5.129526 0.596636,2.324393 -1.142392,5.121782 -0.946839,6.877806 1.498096,-1.586027 4.470408,-2.08993 3.756799,-4.977509 0.360646,-2.855933 4.186702,-2.529621 5.753652,-0.781301 -0.690486,-2.80397 -3.624307,-4.054545 -5.372052,-6.072963 L 25.365494,22.586544 z M 2.9638652,23.982491 c 1.9286156,0.156538 -1.4456403,2.054435 -0.2991319,0.166178 0.099711,-0.05539 0.1994213,-0.110785 0.2991319,-0.166178 z m 39.0865208,4.121368 c 0.656195,0.176046 -0.411571,0.298777 0,0 z M 2.6979705,29.300385 c -1.4696643,3.066145 3.1314136,1.815839 0,0 z m 29.8799165,0.565026 c -0.202143,2.511758 0.44152,5.078608 0.774866,7.531644 1.90234,-0.02512 1.463593,-3.881293 0.567904,-5.294049 -0.288562,-0.822248 -0.635619,-1.682536 -1.34277,-2.237595 z m -27.5865748,0.03324 c -1.1132794,1.318946 0.4562597,2.083708 0.2109636,0.339589 L 5.1548664,30.008794 4.9913122,29.898651 z m 34.3668898,0.265894 c 0.211909,1.378786 1.719554,0.586446 0,0 z m 1.429184,0.997106 c -0.272028,0.303047 0.411047,0.202872 0,0 z m -10.934919,0.963868 c 0.290418,1.340868 -0.002,5.409987 1.830963,4.535968 0.689078,-1.357037 0.06412,-4.530263 -1.830963,-4.535968 z m -4.121368,1.528894 c -2.60569,-1.130407 -4.112231,3.892863 -2.549626,4.048261 0.4461,-1.157829 1.266014,-3.710796 1.305738,-0.933385 0.627621,-0.616045 0.969871,-2.146972 1.243888,-3.114876 z m 5.517315,1.462421 c 1.550137,0.924937 -1.32265,1.136752 0,0 z M 11.63868,35.382726 c 0.590877,1.434775 -0.997247,5.766299 1.822208,4.570819 1.810857,-1.152429 5.060526,2.589727 4.424211,-1.009648 -1.49968,-1.329378 -3.808068,-1.639527 -5.409453,-3.111677 -0.27262,-0.161257 -0.550728,-0.313652 -0.836966,-0.449494 z m 23.830812,0.930631 c -1.316388,0.828694 -0.0462,3.308738 0.214952,1.040987 -0.02369,-0.353957 -0.07455,-0.711992 -0.214952,-1.040987 z m -5.051999,0.997106 c -0.507915,0.581195 0.481269,0.154663 0,0 z m -12.19792,0.09971 c -0.623097,0.356416 0.589879,0.266504 0,0 z M 7.3511277,38.506989 c 3.3174983,-0.143624 0.3442791,2.382408 0,0 z m 11.2008143,1.429184 c -0.597165,1.106019 0.104903,2.228458 0.536632,0.427668 0.628387,-0.511587 -0.251263,-0.480068 -0.536632,-0.427668 z m -2.326579,1.130052 c -1.15673,-0.0215 -3.892765,0.638228 -1.532948,1.61068 0.773393,-1.775398 0.53317,-0.159809 0.692826,0.842432 0.514055,-0.351919 1.673745,-2.199448 0.840122,-2.453112 z m 6.614131,0.09971 c -0.947263,0.04584 -2.971502,1.599194 -0.846023,1.367682 0.964669,0.857084 2.624749,-1.282225 0.846023,-1.367682 z"
         style="fill:#6a7385" />
      <path
         inkscape:connector-curvature="0"
         id="path19214"
         d="M 17.986916,0.18491527 C 15.675209,1.4311433 12.892546,2.1210763 11.529099,4.6089461 10.307498,6.8619727 8.0989369,8.0180507 6.1871712,9.4776804 4.7392569,11.636955 2.6864813,13.624485 2.9688272,16.463998 c -0.500752,2.271338 1.1828847,5.321717 -1.1942499,6.809689 -2.51310405,1.457907 -1.7708966,4.448896 -0.78500751,6.626607 0.76093461,3.037329 3.70367641,4.247715 5.89490631,5.993624 0.7299355,1.511674 -0.6620809,3.860537 2.020062,4.068492 2.0960919,1.002787 1.2874739,4.557694 4.1872619,4.967619 2.35827,1.108673 4.833961,0.206672 7.353483,0.759155 2.448854,-1.251564 5.106462,0.758373 7.668332,0.02953 1.86374,-2.120198 6.117452,-0.336358 6.909754,-3.217808 1.806074,-1.020863 4.312282,-0.896907 5.114484,-3.086217 0.969415,-0.748444 3.221572,-3.146698 3.285031,-3.021989 -2.038936,1.263056 -3.324937,3.447731 -5.143352,4.846066 -1.690259,0.254444 -3.589104,0.742959 -4.017402,2.478776 -2.416867,0.450403 -4.790091,0.881439 -6.902439,1.99666 -2.461594,-0.02892 -4.939134,-1.103472 -7.381078,-0.22958 C 17.639735,44.78841 15.02282,45.933199 12.669345,44.515951 10.351293,43.335626 10.757978,38.883499 7.3905957,39.137467 7.9964247,36.919623 7.2296561,34.563841 4.705851,34.22555 2.5896808,32.875727 1.0211889,30.278101 0.70881643,27.929093 2.4218128,30.154219 4.2824063,26.570525 6.1854468,27.829218 c 1.7668105,0.398712 5.4871652,-0.220988 3.6850161,2.281887 0.4677281,1.601983 2.3735341,3.388075 3.3944621,1.276908 2.4184,-1.2832 0.547677,4.251287 3.102969,3.888326 2.317559,-1.261963 3.590012,-3.586132 4.526139,-5.989177 1.57238,-2.259648 -1.636404,-1.452432 -1.909824,0.153208 -0.956812,2.165485 -4.91295,3.501686 -4.765968,0.04775 C 13.400853,26.734838 10.510129,25.429365 8.0969985,24.345454 6.0797709,23.60377 4.6209392,26.120299 2.4495075,25.362388 -1.0942788,24.57071 4.80299,22.549313 3.481657,20.126228 c 1.1326354,0.413231 1.6074655,-3.733953 3.4887501,-2.328751 0.8057923,-0.406264 1.1642927,-1.738971 0.8792958,0.03729 -0.4671225,2.77375 0.6080945,5.656562 3.2104851,6.933984 1.769239,1.300643 3.077334,4.078113 5.645643,3.510155 2.794385,-0.571481 3.69099,-3.862329 5.132661,-5.972919 1.409197,-2.830416 2.948808,-5.84778 5.647222,-7.646336 -0.429743,1.910818 -2.509822,3.998208 -3.309914,6.105316 -0.825094,2.257305 1.675072,-0.7319 2.266036,-1.134134 1.459073,-2.019646 3.538674,-3.834994 5.930027,-4.602394 2.476281,-1.035622 4.64831,1.656463 2.700724,3.729367 -0.963354,1.765076 -2.944424,4.559139 -1.34347,6.295342 0.36447,-1.15715 1.480047,-4.186365 1.041482,-1.261916 -0.326009,1.325759 -1.723377,4.940231 0.400467,4.640056 0.1245,-2.304594 -0.433479,-4.720323 1.527374,-6.549777 1.15548,-1.071198 2.335155,-4.299692 2.606165,-4.44709 0.406012,2.901544 -2.605,4.744447 -3.076183,7.464826 -0.893694,0.959521 0.779918,3.894663 0.576919,1.488134 -0.02312,-1.831817 2.040161,-2.803771 2.38552,-4.583638 0.245064,1.312061 0.425416,4.173556 2.536554,2.629736 0.328975,-1.506965 4.356799,-1.429396 2.403393,-3.186316 -1.133964,-0.90776 -1.436591,-0.797405 -2.275755,0.103369 0.07702,-1.533969 1.46813,-2.799109 2.432052,-2.349631 0.521466,-1.495614 -1.997389,-3.816752 -2.1315,-4.039514 -0.550528,2.107949 -0.968022,4.580781 -2.916892,5.837508 -0.17587,-2.299766 2.737392,-3.735123 1.936071,-5.96351 -1.671641,0.0949 0.509557,-1.010266 -0.828776,-1.948335 C 38.502072,11.358871 35.99929,10.697928 34.654011,8.5492132 33.725125,6.3514059 38.920518,7.4939818 36.111297,5.7863516 35.064474,4.9478899 32.244189,7.0879557 32.512712,6.0431466 34.336654,4.3410129 30.336505,6.3413668 29.619922,5.1487099 28.30954,4.4183361 27.165338,2.8604663 26.109146,2.1674873 c 1.891764,0.3792115 3.518543,1.5832307 4.3239,2.8475669 2.866113,-0.3076828 5.902046,-0.4929238 8.380134,1.2243496 2.399913,0.9644862 4.306206,3.4592672 4.493302,5.9785662 -2.581814,-0.886275 -3.522201,-3.6865337 -5.31099,-5.5186345 -0.848435,0.9144529 1.670735,2.8665772 2.155713,4.0856815 0.94402,0.604298 2.155733,3.44105 2.299381,3.030857 1.394418,-1.57707 3.632148,1.617551 4.50272,2.798328 1.114177,2.656543 -0.383105,-1.486531 -1.408649,-1.920072 C 42.934326,12.842547 43.306192,9.1214801 40.687659,7.2692217 38.767415,5.8653702 36.597358,4.8495294 34.4868,3.7502394 32.44346,2.7659218 30.160577,2.6283933 27.964527,2.3573705 25.926708,1.1915687 24.071038,3.0116284 22.181689,2.3425613 20.299723,1.6734288 20.428085,5.277924 19.521288,2.7940592 19.042996,1.9070971 18.671387,0.94237915 17.986916,0.18491527 z M 47.534464,18.066334 c 0.217438,0.732976 0.270176,1.058667 0,0 z m 0.199421,0.764447 c 1.363393,2.288826 -2.431063,4.793156 -0.489414,6.705453 -0.699385,0.878188 -1.155473,1.850948 -0.893609,2.60921 -2.106687,1.931803 -1.026279,4.973765 -2.377066,7.142768 0.05289,0.255972 1.360646,-2.640657 0.993843,-3.780403 -0.265823,-2.052229 2.311825,-2.906386 1.555809,-4.957969 2.032853,-0.664858 -1.116428,-2.522847 0.762665,-3.657529 0.599921,-1.254368 0.709269,-2.706538 0.447772,-4.06153 z M 17.986916,0.41757313 C 18.591794,1.2594737 20.517066,4.1693293 19.319459,3.9782323 18.447947,2.9519514 17.643403,1.6761418 17.986916,0.41757313 z M 17.554837,1.0823099 c 0.51398,0.2331864 -0.464857,0.3492644 0,0 z m 3.822236,1.429184 c 1.156072,0.029693 2.425252,1.0440605 3.489253,0.1452259 -0.252731,0.9300265 -3.199998,2.46814 -1.328859,0.7189316 -0.724935,-0.09962 -2.924829,1.915436 -2.109283,0.4177589 0.551224,-0.2968221 -0.525822,-0.9154574 -0.05111,-1.2819164 z M 24.66752,3.940678 c 0.07002,0.7568041 -0.379661,-0.1815762 0,0 z m -0.365605,1.1965261 c -0.522157,0.9146098 -3.598103,0.9941558 -3.837807,2.8662728 -1.359245,0.8252187 -0.328307,1.8149356 0.173581,2.2845511 0.354549,1.109182 2.556551,-2.2048123 2.334752,0.333256 -0.231814,1.760305 -2.907633,2.079271 -4.029401,2.374914 0.09299,-1.260538 -1.045099,-0.117827 -1.825878,-0.823866 -2.375136,0.136207 2.025273,1.015689 -0.415746,0.728981 -1.024729,0.620214 -1.570308,0.126439 -0.746095,-0.92054 2.427215,-1.293363 3.62009,-3.6602707 5.461229,-5.5585638 0.798644,-0.7108588 1.806367,-1.2182298 2.885365,-1.2850051 z m 1.36271,0.2991315 C 26.6623,5.1916901 29.6598,7.7575708 27.146357,6.9417329 26.399357,7.9455022 25.802205,5.4646766 25.664625,5.4363356 z m 4.453736,0.830921 c 2.621442,0.2094886 -2.607807,0.6306758 0,1e-6 l 0,-1e-6 z m -4.553446,0.099711 C 27.302814,8.3452148 22.848518,8.1307904 23.653259,7.2972518 24.413913,7.2535801 24.7415,6.2193677 25.564915,6.3669676 z M 10.442154,6.6328618 c 0.18197,0.7136513 -0.8985897,0.2167792 0,0 z m 11.267287,0.2991315 c 0.635809,0.2881526 -0.625422,0.2679036 0,0 z m 0.498553,0.066474 c 1.62332,-0.066191 0.0765,0.941611 0,0 z M 8.8800222,8.3279405 C 9.1369455,10.2655 7.2800597,12.321576 6.3772006,13.588254 5.6004997,12.118035 7.0651348,10.584287 6.592175,9.4688985 7.440244,9.3258833 7.8035037,8.1037713 8.8800222,8.3279405 z M 8.115575,8.9262036 C 6.3184369,9.1167403 7.3348879,13.13294 8.148812,10.355388 7.3585673,10.144979 8.7337206,9.2698714 8.115575,8.9262036 z m 24.661733,0.1329473 c 2.833804,0.4934588 5.863784,2.5056311 6.112679,5.5891491 -1.618452,-0.97991 -3.436992,-4.045335 -6.050248,-4.255122 -1.053168,0.101884 -3.921264,0.01074 -1.533116,-0.9740979 0.473584,-0.1778168 0.968768,-0.2975872 1.470685,-0.3599292 z m -6.314999,0.4985526 c -0.13202,2.6166255 -3.899296,3.1316485 -4.450561,5.7724035 -0.532562,0.89814 -2.642007,3.514557 -2.863605,2.398861 1.696745,-2.451412 3.254819,-5.127161 5.58134,-7.030663 0.548099,-0.42262 1.126445,-0.8066375 1.732826,-1.1406015 z M 20.0476,10.155967 c -0.126311,0.560517 0.634127,-0.117969 0,0 z m 12.463814,1.495657 c 1.743715,-0.405512 5.325865,2.39932 4.616397,2.687133 -0.695628,-1.279569 -2.51669,-0.14568 -1.998828,0.05818 0.08603,-1.311006 -5.274607,-2.030802 -2.617569,-2.74531 z m -4.187842,0.09971 c -0.31869,1.352785 -1.966486,1.403101 -0.381107,0.270511 0.109032,-0.114064 0.253332,-0.181272 0.381107,-0.270511 z m -13.294735,1.960974 c 0.457994,0.193968 -0.229722,0.369847 0,0 z m 4.187842,0.09971 c 1.095981,0.766626 -1.770103,1.073002 0,0 z m 14.192129,0.498553 c 0.959501,0.245762 -0.924425,0.177654 0,0 z m -15.421892,0.365605 c 0.04189,1.806439 -3.770848,5.037494 -4.064664,1.692484 -0.350136,-1.37538 0.885589,-1.856994 0.977678,-0.272226 1.203892,0.103968 2.213451,-0.703412 3.086986,-1.420258 z M 5.3236806,15.507097 c 2.1219809,-0.340948 0.4168341,2.841342 0.00885,0.424668 l -0.00885,-0.424668 z m 27.9521804,1.063579 c -0.314237,0.471924 0.63419,0.778625 0,0 z m -1.196526,0.332368 c -1.707125,0.595987 -4.341907,2.790356 -2.78443,4.624826 2.717329,1.223626 -0.341738,4.480042 2.136743,6.059351 1.539234,-0.221625 -0.53271,-3.348178 0.01125,-4.742865 0.651771,-1.330488 1.731582,-3.193648 1.323903,-4.312557 -2.115908,0.203202 0.09854,-1.193474 -0.68747,-1.628755 z m 5.650262,0 c -0.106386,1.015939 -0.613733,0.617997 0,0 z M 23.40452,17.102465 c -0.620487,2.47335 -2.27332,4.570646 -3.597258,6.699641 -1.633336,2.314446 -5.925781,2.387381 -7.160952,0.152236 2.151856,1.412742 5.325199,0.916702 6.656757,-1.386299 1.58857,-1.650791 2.542964,-3.790739 4.101453,-5.465578 z m -5.650262,3.1575 c -0.02499,0.45002 -0.542916,0.304014 0,0 z m -0.697974,0.6315 c 0.349111,2.729334 -4.85046,0.811223 -3.274895,0.370485 1.081847,0.446701 2.249958,0.02127 3.274895,-0.370485 z m 28.384259,0.398842 c -0.521865,0.794034 -0.589436,4.081201 0.498603,1.794789 0.104514,-0.559623 0.327148,-1.664493 -0.498603,-1.794789 z m -20.340944,1.495658 c -2.224554,1.545247 -2.822642,4.609599 -2.423352,7.120509 -0.218462,1.204145 -1.695688,4.824761 0.471981,2.82994 2.666948,0.31531 0.387107,-4.763533 3.181135,-5.230819 1.398158,-1.08801 3.992244,0.78401 4.32069,0.498571 -0.688009,-2.245995 -3.662858,-2.452905 -4.477366,-4.606505 -0.31627,-0.263134 -0.668669,-0.508913 -1.073088,-0.611696 z M 0.50433921,25.345201 c 0.28410248,0.190899 -0.21097407,0.365163 0,0 z m 6.71384119,0.565026 c 1.4133866,0.804828 -1.927789,0.64924 0,0 z m -1.8280261,0.232658 c 0.8322639,0.58945 -0.872326,0.547211 0,0 z m 33.6024427,1.030342 c -0.649959,2.220857 3.712228,1.218126 0.970469,0.391789 l -0.476488,-0.225099 -0.493981,-0.16669 z m -4.054894,2.459526 c -0.08498,1.349783 0.907214,4.13238 1.613883,4.040793 -0.471552,-1.367725 -0.477107,-2.992138 -1.613883,-4.040793 z m -32.2397325,0.09971 c -0.5204647,1.485533 1.4658843,1.073615 0,0 z m 36.7267055,0.498552 c -0.114334,0.789077 0.895576,0.188287 0,0 z m -6.813552,0.132947 c 0.196485,1.976921 -0.01832,5.365763 1.063755,6.392671 1.778401,-1.531457 0.321148,-5.101085 -1.063755,-6.392671 z m -2.492763,2.326579 c -0.768766,1.536222 1.637281,2.053863 0.442307,0.266715 l -0.198218,-0.169061 -0.244089,-0.09765 z m -6.481183,1.263 c -1.541736,0.506691 -0.882674,5.318775 -0.204292,2.240207 0.11556,-0.628964 1.521077,-2.134599 0.204292,-2.240207 z M 9.8106537,34.784463 c -2.5820638,0.04133 -0.9265703,5.326799 0.5288533,2.594108 0.689304,-0.863893 1.317408,-2.744782 -0.5288533,-2.594108 z m 3.9884203,2.027447 c -2.101146,2.921526 4.042637,1.519469 0,0 z m 21.43776,0.299132 c -0.510928,0.360068 0.458656,0.530065 0,0 z m -12.264393,4.121367 c -1.358312,0.162832 0.513405,0.393242 0,0 z m -8.874235,0.199421 c -1.445201,1.033216 2.30462,1.261023 0.121172,0.01908 l -0.121172,-0.01908 0,3e-6 z m 8.309209,0.03324 c -0.88265,0.242679 -0.230808,0.477726 0,0 z"
         style="fill:#656c7a" />
      <path
         inkscape:connector-curvature="0"
         id="path19212"
         d="M 18.086626,0.05196792 C 15.762144,1.3292826 12.985332,2.0515511 11.578362,4.530799 10.42795,6.9815691 7.8925395,7.8566574 6.1090318,9.6113296 4.9838606,11.46411 3.1818892,13.003904 3.1593369,15.324263 c -0.2709631,2.193083 -0.00232,4.39972 0.037186,6.597544 -1.3060053,1.426184 -3.65506735,2.692666 -3.02041741,5.000197 0.1498972,1.696797 2.07568281,5.09555 2.24971241,5.246706 C 1.4022798,29.909142 -0.43362355,27.238235 0.78796351,24.736927 2.894252,23.171898 3.9840345,20.991315 3.3539312,18.35485 c 0.7975076,1.362153 1.3138683,-0.212391 1.8519846,-0.848306 1.7212127,1.326159 -1.175844,-3.634967 0.78522,-1.833789 0.9920335,-0.491772 2.4277938,-2.638201 1.0618256,-0.586023 -1.2812891,0.976786 0.3973928,3.756503 0.8284912,1.168428 0.4109109,-1.220553 1.5324461,-2.773094 0.6092344,-0.521709 -0.7940785,2.572072 -1.0300763,6.03518 1.2681736,7.913194 2.2192844,1.50398 4.0344404,4.390903 7.0262284,4.076352 2.792688,-0.287498 3.629921,-3.386202 4.950872,-5.398025 1.517625,-2.882109 3.085004,-6.027489 5.893845,-7.831813 -0.277411,1.616511 -2.107048,3.596369 -2.876077,5.399512 -0.282281,1.495543 1.178719,-1.714912 2.188908,-1.516015 1.805002,-1.592995 4.366792,-2.714752 5.512924,-4.801011 -0.349947,-1.084507 -2.297363,0.717473 -1.703822,-0.983054 -1.402659,-0.260795 2.078903,-1.544847 2.973895,-0.849832 1.235877,0.294913 4.389722,1.97394 3.524768,3.043347 -1.100334,-1.138321 -0.539628,0.289889 -1.706336,0.76407 1.684636,2.137507 -1.013696,3.810288 -1.740967,5.662323 -0.927543,0.724018 -0.46766,3.37299 0.403393,1.307576 1.534941,-2.102982 -0.10332,4.257289 1.130053,1.163289 1.223062,-2.252752 3.366664,-4.429166 3.970615,-6.71192 0.270815,0.772021 -0.149349,3.139643 0.666828,1.142377 0.188188,-1.287899 1.532494,-2.860563 0.116486,-3.492206 0.106716,-1.008147 -2.139649,-3.127249 -1.261496,-0.901011 0.486096,2.771388 -1.855143,-1.13182 -2.771698,-1.555156 -1.522068,-1.875122 -4.277977,-1.833755 -6.188835,-1.761808 1.178856,-0.6763632 2.604452,-2.1283183 0.199892,-1.6401816 -2.729964,-0.4624208 -3.612303,2.5707506 -5.688894,3.6640006 -1.879713,1.801404 -2.95548,4.297356 -5.048331,5.944809 -1.154485,1.949088 -3.757001,5.901375 -6.123742,2.980775 -0.48488,-0.707543 -1.708466,-3.222323 -0.424872,-1.236458 2.15513,2.983665 5.745942,-0.145714 6.459336,-2.721627 0.818317,-1.375012 2.964375,-3.900863 2.988213,-4.535096 -0.810475,0.820894 -1.609004,-0.6967 -1.819659,1.051105 -1.471372,1.165371 -3.226902,2.382092 -4.625067,3.911642 -3.288931,0.37424 -1.759299,-4.369073 -0.08262,-5.590149 2.219498,-1.789182 4.018867,-4.0342063 5.841646,-6.2113722 1.37283,-1.0810429 0.534523,-1.8573454 -0.575287,-1.8459107 -0.679398,-2.3384238 2.428219,-1.209528 3.287364,-1.4297833 1.887162,-1.2698186 3.933194,0.1549195 5.896774,0.2363917 -2.610211,0.156782 2.376529,2.5998575 2.956471,1.025372 2.108742,-0.529596 4.132378,1.9175878 6.224109,2.4688674 3.036602,1.1797802 3.348141,4.5159741 4.835055,6.9030431 2.127051,2.004386 4.225474,4.546019 3.619768,7.702135 -0.180261,1.845376 -2.278915,3.304793 -0.443082,4.914438 -1.854389,0.507991 -0.01457,2.404408 -1.729115,3.15526 -1.155561,2.260091 -0.460905,5.0413 -2.045254,7.188341 1.039445,-1.018849 1.562134,-4.106826 1.695591,-6.06899 0.814778,-1.181286 1.48718,-2.919239 1.700025,-3.894022 1.455267,-1.088321 -1.333989,-2.118414 0.293981,-3.306204 1.441083,-3.007456 0.61166,-6.876547 -2.060071,-8.913884 C 42.866482,12.139149 43.220742,8.3515011 40.318051,6.7189246 38.38055,5.6813067 36.496893,4.5292715 34.495223,3.5890978 32.428879,2.5412835 30.100484,2.5253138 27.869063,2.2108259 25.569736,1.2258738 23.727006,2.9339333 21.505905,2.2498412 20.215883,2.3672025 20.575266,4.8205145 19.769983,2.9180082 19.230886,1.9514524 18.846609,0.87867917 18.086626,0.05196792 z M 2.797681,32.790253 c 1.2141841,1.729515 5.290088,1.94558 4.2642737,4.753716 -0.389303,2.637548 3.1533663,1.659703 3.3640443,4.19832 0.04375,1.059134 3.053602,4.123737 1.171679,2.085751 C 10.567322,42.029371 10.19811,39.216798 7.6361044,39.243148 6.9799742,37.653833 8.20356,34.950925 5.6064871,34.717232 4.6453441,34.113184 3.6669293,33.525374 2.797681,32.790253 z m 10.004288,11.965261 c 0.368879,0.122959 0.661403,0.220467 0.11919,0.03973 l -0.11919,-0.03973 z M 18.020152,0.41757313 C 18.599766,1.2762832 21.048492,4.5460382 19.18441,4.2182692 18.246565,3.3411964 16.848564,1.1261357 16.268586,3.5625636 16.123377,4.945853 15.164418,4.8056525 14.393493,4.4104685 12.385365,5.6284635 15.542659,2.3698146 16.108949,1.9095538 16.721596,1.3817277 17.372093,0.90043915 18.020152,0.41757313 z m 4.819342,3.19073647 c -0.526204,0.2246821 0.656749,0.1916592 0,0 z m 8.043315,0.9971051 c -0.658707,0.2071561 0.826776,0.178295 0,0 z m -2.526,0.7976841 c -2.475809,0.4155288 0.65596,1.7885624 0,0 z m 3.223973,0.5317894 c -1.598612,0.1365924 1.400612,0.3737585 0,0 z m -2.758657,0.099711 c -0.688604,0.3604742 0.975163,0.2241875 0,0 z M 10.508627,6.599625 C 8.8883765,8.3660647 8.7819428,10.970817 7.3781766,12.837488 6.6197951,15.42326 5.3900368,12.08361 6.4830297,11.049815 7.1437371,9.6611561 5.189123,10.47342 6.6592985,9.4131991 7.8815605,8.3918649 9.5735111,7.963055 10.508627,6.599625 z m 21.770129,0.3656052 c 0.01419,0.2830807 0.723951,-0.261481 0,0 z m 0.73121,0 c -0.317937,0.1905618 0.573939,-0.056341 0,0 z M 11.937811,7.2311249 c 0.484096,0.5621786 -0.480059,0.8489098 0,0 z M 11.538969,8.3944142 C 10.939006,9.9191524 9.1261019,12.968747 9.0991189,13.422549 9.5670955,11.610714 10.322811,9.8346759 11.538969,8.3944142 z m 21.537471,0 C 32.620089,9.2059897 31.31574,8.65756 33.07267,8.9131056 34.181104,9.3638863 36.340723,10.152919 34.267165,8.6630897 33.895696,8.4860351 33.483571,8.418255 33.07644,8.3944142 z m -5.949394,0.2991315 c -1.293075,0.748567 -2.965507,0.012287 -3.326627,2.0474493 1.060951,-0.671633 2.48836,-1.066303 3.326627,-2.0474493 z M 7.7499698,9.5244667 c -0.8100956,0.2097294 -0.049065,0.9378993 0,0 z M 41.418886,11.252782 c 0.05467,1.12995 1.025072,3.105892 1.392662,1.670533 1.368099,0.34156 -0.556084,-1.023699 -0.694372,-0.516752 0.125629,-1.084676 -0.125159,-0.504982 -0.69829,-1.153781 z m -12.596761,0.06647 c -0.07164,1.325929 -3.097525,2.529305 -1.003722,0.730083 0.302246,-0.282244 0.617205,-0.566688 1.003722,-0.730083 z m -23.6646286,0.66474 c 0.4857419,0.224445 -0.8118992,0.425446 0,0 z M 4.9248386,12.84815 c 0.364004,1.049098 -0.5081291,1.45177 0,0 z m 13.1950244,0.598263 c -2.418462,0.316129 0.205292,1.827128 0,0 z m 24.129944,1.495658 c -0.314385,2.407958 -1.616889,4.4792 -2.663683,6.547206 0.173547,3.009131 1.60586,-1.068091 1.952126,-1.99964 0.369917,-1.756475 2.99913,-2.776779 0.754171,-4.315693 l -0.04261,-0.231873 z m -4.420499,0.930631 c 1.082176,1.012691 -1.901115,3.932638 -1.71472,3.049862 0.756664,-0.906739 1.389318,-1.903327 1.71472,-3.049862 z M 23.40452,17.002755 c -0.403803,2.514287 -2.223592,4.536189 -3.454265,6.687344 -1.735941,2.315879 -5.244958,2.65063 -7.307157,0.60738 -0.737099,-0.412099 -2.122964,-2.500774 -0.635257,-0.900538 1.988532,1.753484 5.45035,1.783645 7.008847,-0.552127 1.684959,-1.774967 2.777381,-4.007442 4.387832,-5.842059 z m 8.176262,0.398842 c -2.514942,-0.264893 -3.928191,5.275281 -0.430922,3.568607 1.368728,-0.623787 -0.04232,-1.116853 -0.501841,-0.970139 0.180291,-0.907697 0.761343,-1.694623 0.932763,-2.598468 z m -20.207997,0.132947 c 0.56994,0.752719 -0.02198,0.683356 0,0 z m 27.187733,3.1575 c -0.750212,1.034822 -2.600609,3.364614 -1.818592,3.962952 0.994921,-1.040605 2.230567,-2.397901 1.818592,-3.962952 z m 3.855473,0.6315 c -0.487178,1.645277 1.774629,0.446834 0,0 z m 3.057789,0.166184 c -1.267025,1.595046 1.629253,0.604685 0,0 z m -20.440655,1.462421 c -2.284124,1.51388 -2.464028,4.520251 -2.394356,6.984997 -0.474393,1.205461 -0.302743,3.086663 0.990396,1.178304 0.813524,-1.824455 1.249528,-3.896365 2.846833,-5.142859 -0.228756,-1.227419 -0.232125,-2.576111 -1.442873,-3.020442 z M 7.2181804,24.281622 c -1.5720793,1.598803 -3.811969,1.285839 -5.889592,1.372209 -2.08501474,2.112812 1.703634,4.061955 3.1598351,1.852777 1.1869028,0.461092 2.5660311,-1.590663 0.6690734,-0.931647 0.2676669,-0.840397 2.5104677,-0.940207 3.3835075,-0.527208 -1.5208932,0.455249 -1.1016178,2.120426 0.5850366,1.561817 1.815083,-0.66958 1.942925,1.528062 0.803838,2.386066 0.387562,1.152538 2.396309,3.835134 2.856896,1.283464 C 15.80529,28.865999 11.872501,26.2388 9.7499423,25.14575 8.9555566,24.735037 8.1052573,24.416248 7.2181804,24.281622 z m 23.5649176,0.365605 c -1.459614,1.278147 1.833756,3.552632 0.71082,0.784188 0.0022,-0.380384 -0.269684,-0.863203 -0.71082,-0.784188 z m -2.658947,1.429184 c -0.909132,0.582099 0.839925,0.748617 0,0 z m 6.148815,0.166185 c -1.089533,2.181785 1.999725,1.668647 0,0 z m -5.849683,0.265894 c 0.434095,0.933365 2.444201,1.322717 0.830921,0.232658 l -0.403423,-0.165323 -0.427498,-0.06733 z m 7.87713,0.03324 c -0.241283,1.282091 1.269601,0.283564 0,0 z M 6.8525751,27.206464 c -0.2461843,0.774498 0.6649389,0.05207 0,0 z m 32.2397319,0.166184 c 0.225567,2.083766 2.792574,-0.07749 0,0 z m -18.679102,0.664737 c -1.672805,1.681819 -3.718383,4.17885 -5.753664,4.141145 -0.211117,3.015619 3.245408,2.461889 4.249094,0.426384 0.575887,-0.854067 1.956765,-3.388297 1.385223,-3.46155 -0.76503,0.306466 0.228602,-0.833043 0.119347,-1.105979 z m 12.231156,2.825131 c -0.04226,0.951171 0.489451,5.194457 1.260011,2.582227 0.02468,-1.008783 -0.633086,-1.860871 -1.260011,-2.582227 z m -16.28605,2.160395 c 0.296394,1.617826 -2.010968,0.971471 0,0 z m 7.212393,1.063578 c -1.220224,0.411528 -0.660836,4.240956 -0.334536,1.647247 0.114638,-0.496893 0.845796,-1.167112 0.334536,-1.647247 z M 9.6444695,34.950647 c -2.6032344,1.678521 3.0025145,1.570464 0.6384695,0.0095 l -0.3192254,-0.04471 -0.3192441,0.03521 z m 32.9044695,2.060684 c -0.960325,0.579559 -2.203263,2.775968 -0.738887,0.796176 0.191712,-0.305959 0.394164,-0.639151 0.738887,-0.796176 z m -2.359816,2.326579 c -1.121144,0.312318 -1.257596,2.778762 -0.681613,0.674367 0.122893,-0.305546 0.377524,-0.551287 0.681613,-0.674367 z m -1.562131,1.927736 c -1.286938,-0.151617 -4.121127,1.366704 -1.38803,0.210217 0.458451,-0.102938 0.934907,-0.07687 1.38803,-0.210217 z m -3.1575,0.864158 c -1.13201,0.395754 -1.012114,2.846166 -0.57274,0.577868 0.0044,-0.303234 0.299289,-0.523265 0.57274,-0.577868 z m -21.43776,-0.664737 c -0.940809,1.063884 1.878277,1.224511 0.305829,0.05033 -0.101927,-0.01677 -0.203924,-0.03357 -0.305829,-0.05033 z m 20.108287,2.492763 c -0.742857,0.0772 -1.350313,0.236249 0,0 z m -2.758658,0.299132 c -1.031392,-0.73449 -3.651403,2.306782 -1.611183,0.506211 0.449255,-0.364435 1.027199,-0.582674 1.611183,-0.506211 z m -13.726814,0.764447 c -0.578876,-0.02937 2.551648,1.084248 0.512356,0.05742 -0.13807,-0.08181 -0.352621,-0.02569 -0.512356,-0.05742 z m -3.223973,0.06647 c 0.648899,0.348928 0.944213,0.0029 3e-6,0 l -3e-6,0 z m 2.725421,0.06647 c -0.841652,0.319531 -0.367676,0.144504 0,0 z m 3.955183,0.03324 c -1.194963,0.363951 -1.188275,0.567703 0,0 z m 0.997105,0 c 1.11742,0.142157 3.892956,0.254309 1.246406,0.07437 -0.415392,-0.02603 -0.830723,-0.05328 -1.246406,-0.07437 z m 2.924842,0.232658 c 1.225046,0.424445 2.004345,0.502986 0.332423,0.06775 -0.110808,-0.02258 -0.221615,-0.04517 -0.332423,-0.06775 z m 1.761553,0.398842 c 1.035906,-0.128267 0.233462,-0.02891 0,0 z M 15.460916,45.519961 c 0.286264,0.05204 0.65754,0.119546 0,0 z m 3.788999,0.06647 c 0.417293,0.246819 0.726349,-0.0067 0,0 z"
         style="fill:#5b6476" />
      <path
         inkscape:connector-curvature="0"
         id="path19210"
         d="M 17.986916,0.28462578 C 15.983693,1.5245848 13.353268,1.8857401 12.064784,4.1037404 10.533636,6.0185912 9.1049406,8.1194356 6.7701488,9.0450847 5.2996176,10.841685 3.5630624,12.640288 3.1971692,15.026828 2.9276868,17.352488 3.1031774,19.691277 3.1965223,22.021516 3.6961101,19.026381 2.6001842,15.715771 4.101598,12.934346 5.5964208,10.664331 6.9309003,8.7884564 9.386191,7.4850146 11.189803,6.2826423 12.745885,2.7571859 14.284,2.5787635 12.31146,4.5773167 10.345133,6.8050711 9.8457099,9.6661437 9.178647,11.666751 7.3021066,15.237865 7.5370926,16.316852 8.9909271,14.224813 9.1415825,11.524134 10.595699,9.4117345 11.461557,6.932706 13.222531,5.061202 14.660917,2.996249 15.105747,1.1119977 17.076827,1.7598679 17.986916,0.28462578 z M 3.196523,22.021517 c -1.227868,1.418916 -3.56830858,2.565543 -3.00744945,4.790628 0.64262639,2.808207 1.73411705,6.205862 4.55398075,7.49953 1.9814599,0.569521 2.9291939,2.266456 2.3279171,4.167627 0.5677681,1.769128 3.0755276,1.069042 3.3128626,3.305099 0.687194,2.752471 3.424087,3.958869 6.016056,3.692475 2.25287,-0.116682 4.354453,0.246446 6.643658,-0.137206 2.428628,0.272472 4.873429,1.2312 7.037999,-0.570408 1.581215,-0.911145 4.827818,0.316373 4.989093,-2.307096 0.84515,-0.692095 3.889035,-1.083987 3.626901,-1.310186 -2.04111,0.08579 -3.989069,1.356472 -4.763432,2.780456 -2.830896,-0.314813 -5.098248,1.969968 -7.796652,1.758297 C 23.606436,44.81535 21.099992,45.517899 18.654068,45.44686 16.530047,44.813471 14.624178,46.040717 12.599683,44.499629 10.178024,43.714399 11.156507,40.254 8.7024078,39.53637 5.6124475,39.499294 9.1292576,35.353646 5.9434936,34.902229 3.4954465,33.889753 1.8199895,31.810501 1.0380096,29.315731 -0.71976674,26.228966 0.99645075,24.12014 3.196523,22.021517 z M 25.764336,1.9132309 C 24.297539,3.6807112 20.952701,1.2180142 20.529848,3.6567746 19.655751,4.4758332 18.768996,0.9010577 19.729376,3.3815788 20.99932,5.6783841 20.839912,1.1311033 22.872132,2.654864 24.438167,3.5988007 25.433047,1.4833757 26.925578,2.2416717 26.526565,2.1613211 26.18574,1.8471507 25.764336,1.9132309 z m 1.661841,0.5317894 c 3.465161,0.3812267 7.063537,0.9112819 9.948188,3.0330089 0.998968,0.6804053 1.956452,0.9046127 0.310465,0.1323932 C 35.020345,3.8824775 32.001924,2.5609003 28.769031,2.6306558 28.31851,2.5939579 27.868343,2.5408989 27.426177,2.4450203 z m -8.575104,2.2268681 c -1.945445,1.1399703 -3.908922,2.3819702 -5.549619,3.9036224 -2.307971,1.6305932 -3.300122,4.2388312 -4.3424665,6.7372792 -1.2811751,2.933341 -0.8904682,6.8503 1.8535105,8.831864 2.039268,1.627684 4.567845,4.272261 7.40459,2.786944 2.945946,-2.490562 3.885277,-6.519677 6.253193,-9.486665 1.928569,-2.16309 4.058831,-4.324271 6.693801,-5.605563 2.437307,-0.913508 5.358782,0.639115 6.629041,2.772707 1.486404,3.109798 -2.780447,4.71774 -2.777386,7.503371 -0.280568,1.016293 0.118931,2.348364 0.577266,0.578081 0.932307,-2.51725 4.296586,-4.445854 2.921149,-7.511267 -1.316139,-2.430771 -3.954535,-4.812729 -6.875128,-4.684638 -2.434752,0.19685 -3.782549,2.463894 -5.48805,3.911012 -2.40312,2.143631 -3.556182,5.177458 -5.178402,7.870334 -1.210752,2.19804 -3.735722,4.206189 -6.36643,3.181653 C 11.848013,24.34543 9.6893953,21.649707 9.1224356,18.740851 8.4822094,17.453667 10.92394,13.840424 9.7361177,16.728572 c -0.4711194,2.697093 0.9438413,5.854795 3.4436063,7.058935 1.397678,1.324127 3.417554,-1.548766 3.993779,-0.195291 -0.541524,0.62963 2.138344,-0.823654 2.474937,-1.625363 3.213845,-4.344483 6.322404,-8.942681 10.758933,-12.1566152 -0.366993,-1.5590153 -3.618253,0.3170142 -4.233644,1.5029012 -2.333051,1.649005 -3.894933,4.00994 -5.746527,6.118156 -1.954264,1.611185 -2.445913,5.307382 -5.601812,4.983932 -2.558912,-0.754047 -3.851302,-4.228844 -3.470865,-6.724787 1.053086,-1.875118 2.258388,-4.267663 4.32288,-5.098429 -1.696719,1.888409 -4.530282,3.987482 -3.832889,6.84215 0.213084,2.744986 3.724517,5.110303 5.694445,2.362278 0.855816,-1.079419 2.132196,-3.292429 1.804583,-4.203641 -1.728503,0.644055 -4.460944,4.510042 -5.567983,1.1611 -0.27745,-2.815442 1.960784,-5.171257 4.118901,-6.661539 1.414252,-0.8353125 1.317019,-2.3638114 -0.268471,-1.0425163 -1.882366,1.2765703 0.257423,-2.063119 0.594906,-2.8095186 0.283552,-0.4857884 0.596717,-0.9900889 0.630176,-1.5684357 z m 2.758658,0.2991315 c -1.760153,-0.229194 -3.538935,3.782398 -0.9706,1.7339887 0.450892,-0.4605094 1.054834,-1.0316837 0.9706,-1.7339887 z M 9.7774169,8.1285195 c -1.1185575,2.2033885 0.5607781,0.9853471 0,0 z M 9.1126801,10.12273 c -0.6332077,0.427889 0.262046,0.636609 0,0 z M 6.3872594,10.754229 C 5.3525474,11.688211 4.5299678,15.895982 6.8582517,14.968643 6.4175232,13.528971 5.2722363,12.139281 6.3872594,10.754229 z m 36.7267056,0.166185 c 0.324757,1.063583 1.367562,3.28435 0.405045,0.993772 -0.135399,-0.331101 -0.269023,-0.662925 -0.405045,-0.993772 z m -4.453736,2.027447 c 0.445083,0.784017 0.50062,4.72312 1.212005,3.412922 -0.0077,-1.22032 -0.264555,-2.559611 -1.212005,-3.412922 z M 4.4595228,13.37994 C 3.127959,14.703524 5.0195594,19.334739 5.0096237,15.493476 4.8489519,14.783063 4.604224,14.094223 4.4595228,13.37994 z M 29.28744,13.612597 c -1.553804,1.174071 -2.65315,2.851834 -3.423394,4.619921 0.147746,-0.282497 1.22167,-1.388271 0.798119,-0.2067 1.261154,-1.196075 4.466249,-2.763291 2.894703,-4.327622 l -0.0941,-0.09043 -0.175324,0.0048 0,0 z m 12.762946,2.991316 c -0.184073,1.65609 -3.031318,4.675001 -1.879394,5.329052 0.89685,-1.665791 1.464991,-3.4895 1.879394,-5.329052 z m -12.563525,2.525999 c -0.8358,1.047054 0.07085,2.099851 0.09375,0.360389 0.02896,-0.008 0.114142,-0.446911 -0.09375,-0.360389 z m 5.351131,1.030342 c -1.246053,0.181563 -1.469958,3.750522 -0.43208,1.329474 0.244887,-0.379559 0.70048,-0.838359 0.43208,-1.329474 z m 12.962367,0.930632 c -0.0763,1.037134 -2.166012,4.96598 -0.689847,2.23737 0.383551,-0.686985 0.603023,-1.457681 0.689847,-2.23737 z m -1.196526,3.788999 c 0.32929,0.333958 1.114801,0.906194 0.317586,0.25051 l -0.317586,-0.25051 z m 0.73121,0.6315 c -0.339216,0.733227 -1.757636,2.572478 -0.761422,1.130228 0.322218,-0.252208 1.358434,-0.57391 0.761422,-1.130228 z m -9.073656,-4.121368 c -1.007213,0.690002 -2.485105,4.45211 -0.680126,1.844052 0.371105,-0.541327 0.740163,-1.160275 0.680126,-1.844052 z m -14.025946,2.526 c -1.472918,1.406629 -0.421022,2.129193 -1.463555,3.515557 -0.759818,2.148929 1.386274,1.710202 1.850058,0.139923 1.135528,-1.13027 0.867747,-2.709823 -0.260567,-3.27786 l -0.03387,-0.198719 -0.09207,-0.178901 0,0 z M 8.1820487,24.613991 c -1.6952774,1.396983 3.5813703,0.87125 0.5992191,0.160592 -0.19051,-0.08433 -0.3992218,-0.107952 -0.5992191,-0.160592 z m 1.9277363,1.096815 c -3.0578114,0.893518 3.543088,1.924445 0.668342,3.918584 1.199035,1.112489 -1.0296522,1.900554 0.987466,2.344559 0.797264,-1.620523 2.902033,-3.909758 0.288855,-5.390247 -0.572223,-0.461896 -1.302324,-0.567731 -1.944663,-0.872896 z M 4.2933387,26.076411 C 2.3213226,25.238733 1.5552338,30.089936 3.4815555,27.8849 4.0413078,27.543402 5.9370374,26.452024 4.2933387,26.076411 z m 34.7989683,1.263 c 0.444095,0.94942 1.395996,0.221485 0,0 z m 7.577999,0.166184 c -0.98994,1.203266 -2.174857,4.461292 -1.897615,4.768802 0.04374,-1.784311 1.34721,-3.149145 1.897615,-4.768802 z m -27.387154,1.8945 c -0.614141,1.098081 -3.385786,2.515911 -2.884178,3.083034 2.223681,-0.135807 3.097655,-0.562222 2.884178,-3.083034 z m 3.755763,0.6315 c -1.39472,1.894221 0.774849,1.014732 0,0 z m 9.738393,1.429184 c -0.426032,1.299003 1.122321,3.143233 0.596019,0.810629 -0.143611,-0.306891 -0.369016,-0.5638 -0.596019,-0.810629 z m 12.231157,1.728316 c -0.580377,1.049648 -1.447714,3.018473 -0.316749,0.836654 0.160766,-0.236048 0.494647,-0.506022 0.316749,-0.836654 z m -1.063579,2.359815 c -1.212258,1.733138 -3.026215,2.956015 -4.475996,4.42501 -0.06255,0.446772 2.193009,-1.900639 2.872713,-2.56018 0.425375,-0.698572 1.589151,-0.994609 1.603283,-1.86483 z M 23.30481,34.418858 c -0.568252,0.524065 0.340764,0.496436 0,0 z"
         style="fill:#515968" />
    </g>
  </g>
</svg>
