<?xml version="1.0" encoding="UTF-8" standalone="no"?>
<!-- Created with Inkscape (http://www.inkscape.org/) -->
<svg
   xmlns:dc="http://purl.org/dc/elements/1.1/"
   xmlns:cc="http://creativecommons.org/ns#"
   xmlns:rdf="http://www.w3.org/1999/02/22-rdf-syntax-ns#"
   xmlns:svg="http://www.w3.org/2000/svg"
   xmlns="http://www.w3.org/2000/svg"
   xmlns:sodipodi="http://sodipodi.sourceforge.net/DTD/sodipodi-0.dtd"
   xmlns:inkscape="http://www.inkscape.org/namespaces/inkscape"
   width="48px"
   height="48px"
   id="svg17061"
   sodipodi:version="0.32"
   inkscape:version="0.46"
   sodipodi:docname="uvnoise.svg"
   inkscape:output_extension="org.inkscape.output.svg.inkscape">
  <defs
     id="defs17063" />
  <sodipodi:namedview
     id="base"
     pagecolor="#ffffff"
     bordercolor="#666666"
     borderopacity="1.0"
     inkscape:pageopacity="0.0"
     inkscape:pageshadow="2"
     inkscape:zoom="10.5"
     inkscape:cx="21.118421"
     inkscape:cy="22.854005"
     inkscape:current-layer="layer1"
     showgrid="true"
     inkscape:grid-bbox="true"
     inkscape:document-units="px"
     inkscape:window-width="1189"
     inkscape:window-height="853"
     inkscape:window-x="545"
     inkscape:window-y="98"
     objecttolerance="5"
     gridtolerance="5"
     guidetolerance="5"
     inkscape:snap-global="false">
    <inkscape:grid
       type="xygrid"
       id="grid22699"
       visible="true"
       enabled="true" />
  </sodipodi:namedview>
  <metadata
     id="metadata17066">
    <rdf:RDF>
      <cc:Work
         rdf:about="">
        <dc:format>image/svg+xml</dc:format>
        <dc:type
           rdf:resource="http://purl.org/dc/dcmitype/StillImage" />
      </cc:Work>
    </rdf:RDF>
  </metadata>
  <g
     id="layer1"
     inkscape:label="Layer 1"
     inkscape:groupmode="layer">
    <path
       sodipodi:nodetypes="ccccccccccccccccc"
       id="path22703"
       d="M 1.4246376,23.087029 L 3.8132245,10.946697 L 6.2018114,39.642026 L 8.590398,16.46503 L 10.978985,27.501694 L 13.215109,1.4246376 L 15.756159,34.123694 L 18.144746,16.46503 L 20.920539,22.159728 L 22.92192,18.672362 L 25.310506,25.294361 L 27.699093,15.361363 L 30.08768,39.642026 L 32.476267,5.4283643 L 34.864853,33.020026 L 37.253441,14.257696 L 39.642028,25.294361"
       style="fill:none;fill-rule:evenodd;stroke:#ffffff;stroke-width:2.99999976;stroke-linecap:butt;stroke-linejoin:miter;stroke-miterlimit:4;stroke-dasharray:none;stroke-opacity:1" />
    <path
       style="fill:none;fill-rule:evenodd;stroke:#5c3566;stroke-width:0.99999982px;stroke-linecap:butt;stroke-linejoin:miter;stroke-opacity:1"
       d="M 1.4246376,23.087029 L 3.8132245,10.946697 L 6.2018114,39.642026 L 8.590398,16.46503 L 10.978985,27.501694 L 13.215109,1.4246376 L 15.756159,34.123694 L 18.144746,16.46503 L 20.920539,22.159728 L 22.92192,18.672362 L 25.310506,25.294361 L 27.699093,15.361363 L 30.08768,39.642026 L 32.476267,5.4283643 L 34.864853,33.020026 L 37.253441,14.257696 L 39.642028,25.294361"
       id="path22701"
       sodipodi:nodetypes="ccccccccccccccccc" />
    <path
       id="path22842"
       d="M 19.905557,30.444916 L 19.905557,39.775474 C 19.93983,42.216818 20.482349,43.961889 21.533117,45.010694 C 22.583878,46.0595 23.937238,46.570683 25.593203,46.544243 C 27.344142,46.563338 28.771927,46.031591 29.876563,44.948999 C 30.981176,43.86641 31.551115,42.118401 31.586383,39.704966 L 31.586383,30.444916 L 29.518148,30.444916 L 29.518148,39.845982 C 29.502958,41.57735 29.151398,42.85041 28.463466,43.665165 C 27.775514,44.479926 26.842263,44.883388 25.663711,44.875553 C 24.584539,44.886327 23.705149,44.488741 23.025536,43.682793 C 22.345913,42.87685 21.995332,41.597915 21.973792,39.845982 L 21.973792,30.444916 L 19.905557,30.444916 z M 40.858013,46.285713 L 46.522156,30.444916 L 44.336408,30.444916 L 41.657104,38.271304 C 41.290846,39.307386 40.953975,40.319959 40.646489,41.309023 C 40.338989,42.298098 40.072626,43.251914 39.847399,44.170473 L 39.800393,44.170473 C 39.575642,43.255341 39.320051,42.306421 39.033618,41.323712 C 38.747174,40.341013 38.438702,39.31571 38.108201,38.247801 L 35.640421,30.444916 L 33.407668,30.444916 L 38.601757,46.285713 L 40.858013,46.285713 z"
       style="font-size:23.50296974px;font-style:normal;font-variant:normal;font-weight:normal;font-stretch:normal;fill:none;fill-opacity:1;stroke:#ffffff;stroke-width:3;stroke-linecap:butt;stroke-linejoin:miter;stroke-miterlimit:4;stroke-dasharray:none;stroke-opacity:1;font-family:Myriad Pro;-inkscape-font-specification:Myriad Pro" />
    <path
       style="font-size:23.50296974px;font-style:normal;font-variant:normal;font-weight:normal;font-stretch:normal;fill:#000000;fill-opacity:1;stroke:none;stroke-width:1px;stroke-linecap:butt;stroke-linejoin:miter;stroke-opacity:1;font-family:Myriad Pro;-inkscape-font-specification:Myriad Pro"
       d="M 19.905557,30.444916 L 19.905557,39.775474 C 19.93983,42.216818 20.482349,43.961889 21.533117,45.010694 C 22.583878,46.0595 23.937238,46.570683 25.593203,46.544243 C 27.344142,46.563338 28.771927,46.031591 29.876563,44.948999 C 30.981176,43.86641 31.551115,42.118401 31.586383,39.704966 L 31.586383,30.444916 L 29.518148,30.444916 L 29.518148,39.845982 C 29.502958,41.57735 29.151398,42.85041 28.463466,43.665165 C 27.775514,44.479926 26.842263,44.883388 25.663711,44.875553 C 24.584539,44.886327 23.705149,44.488741 23.025536,43.682793 C 22.345913,42.87685 21.995332,41.597915 21.973792,39.845982 L 21.973792,30.444916 L 19.905557,30.444916 z M 40.858013,46.285713 L 46.522156,30.444916 L 44.336408,30.444916 L 41.657104,38.271304 C 41.290846,39.307386 40.953975,40.319959 40.646489,41.309023 C 40.338989,42.298098 40.072626,43.251914 39.847399,44.170473 L 39.800393,44.170473 C 39.575642,43.255341 39.320051,42.306421 39.033618,41.323712 C 38.747174,40.341013 38.438702,39.31571 38.108201,38.247801 L 35.640421,30.444916 L 33.407668,30.444916 L 38.601757,46.285713 L 40.858013,46.285713 z"
       id="text22833" />
  </g>
</svg>
