<?xml version="1.0" encoding="UTF-8" standalone="no"?>
<!-- Created with Inkscape (http://www.inkscape.org/) -->

<svg
   xmlns:dc="http://purl.org/dc/elements/1.1/"
   xmlns:cc="http://creativecommons.org/ns#"
   xmlns:rdf="http://www.w3.org/1999/02/22-rdf-syntax-ns#"
   xmlns:svg="http://www.w3.org/2000/svg"
   xmlns="http://www.w3.org/2000/svg"
   xmlns:xlink="http://www.w3.org/1999/xlink"
   xmlns:sodipodi="http://sodipodi.sourceforge.net/DTD/sodipodi-0.dtd"
   xmlns:inkscape="http://www.inkscape.org/namespaces/inkscape"
   width="48px"
   height="48px"
   id="svg47163"
   sodipodi:version="0.32"
   inkscape:version="0.48.4 r9939"
   sodipodi:docname="uvtriplanarproject.svg"
   version="1.1">
  <defs
     id="defs47165">
    <linearGradient
       id="linearGradient5950">
      <stop
         style="stop-color:#000000;stop-opacity:1;"
         offset="0"
         id="stop5952" />
      <stop
         style="stop-color:#2e3436;stop-opacity:0;"
         offset="1"
         id="stop5954" />
    </linearGradient>
    <linearGradient
       id="linearGradient10168">
      <stop
         style="stop-color:#ffffff;stop-opacity:0.61261261;"
         offset="0"
         id="stop10170" />
      <stop
         style="stop-color:#ffffff;stop-opacity:0;"
         offset="1"
         id="stop10172" />
    </linearGradient>
    <linearGradient
       inkscape:collect="always"
       id="linearGradient10158">
      <stop
         style="stop-color:#000000;stop-opacity:1;"
         offset="0"
         id="stop10160" />
      <stop
         style="stop-color:#000000;stop-opacity:0;"
         offset="1"
         id="stop10162" />
    </linearGradient>
    <linearGradient
       id="linearGradient47218-7">
      <stop
         style="stop-color:white;stop-opacity:1;"
         offset="0"
         id="stop47220-4" />
      <stop
         style="stop-color:#d0d0cb;stop-opacity:1;"
         offset="1"
         id="stop47222-0" />
    </linearGradient>
    <radialGradient
       inkscape:collect="always"
       xlink:href="#linearGradient47218-7"
       id="radialGradient10154"
       gradientUnits="userSpaceOnUse"
       gradientTransform="matrix(1.196321,0.00314589,-0.0031558,1.200089,-4.55592,-4.418902)"
       cx="22.91757"
       cy="21.292709"
       fx="22.91757"
       fy="21.292709"
       r="16.817461" />
    <radialGradient
       inkscape:collect="always"
       xlink:href="#linearGradient10158"
       id="radialGradient10164"
       cx="27.428572"
       cy="24.317461"
       fx="27.428572"
       fy="24.317461"
       r="16.317461"
       gradientUnits="userSpaceOnUse" />
    <radialGradient
       inkscape:collect="always"
       xlink:href="#linearGradient10168"
       id="radialGradient10174"
       cx="17.643997"
       cy="16.48324"
       fx="17.643997"
       fy="16.48324"
       r="5.0732107"
       gradientUnits="userSpaceOnUse" />
    <radialGradient
       inkscape:collect="always"
       xlink:href="#linearGradient5950"
       id="radialGradient5956"
       cx="42.6637"
       cy="28.697496"
       fx="42.6637"
       fy="28.697496"
       r="13.586848"
       gradientTransform="matrix(0.72736487,-1.5272733,2.311658,1.1009286,-54.707173,64.798673)"
       gradientUnits="userSpaceOnUse" />
  </defs>
  <sodipodi:namedview
     id="base"
     pagecolor="#ffffff"
     bordercolor="#666666"
     borderopacity="1.0"
     inkscape:pageopacity="0.0"
     inkscape:pageshadow="2"
     inkscape:zoom="15.75"
     inkscape:cx="21.49651"
     inkscape:cy="20.253308"
     inkscape:current-layer="layer1"
     showgrid="true"
     inkscape:grid-bbox="false"
     inkscape:document-units="px"
     inkscape:window-width="2560"
     inkscape:window-height="1537"
     inkscape:window-x="-8"
     inkscape:window-y="-8"
     inkscape:window-maximized="1" />
  <metadata
     id="metadata47168">
    <rdf:RDF>
      <cc:Work
         rdf:about="">
        <dc:format>image/svg+xml</dc:format>
        <dc:type
           rdf:resource="http://purl.org/dc/dcmitype/StillImage" />
        <dc:title></dc:title>
      </cc:Work>
    </rdf:RDF>
  </metadata>
  <g
     id="layer1"
     inkscape:label="Layer 1"
     inkscape:groupmode="layer">
    <path
       transform="matrix(1.3281487,4.9698795e-8,-1.6295788e-7,0.40505798,-12.645405,31.213639)"
       d="m 43.746033,24.317461 a 16.317461,16.317461 0 1 1 -32.634922,0 16.317461,16.317461 0 1 1 32.634922,0 z"
       sodipodi:ry="16.317461"
       sodipodi:rx="16.317461"
       sodipodi:cy="24.317461"
       sodipodi:cx="27.428572"
       id="path10156"
       style="color:#000000;fill:url(#radialGradient10164);fill-opacity:1;stroke:none;stroke-width:0.56469584;marker:none;visibility:visible;display:inline;overflow:visible"
       sodipodi:type="arc" />
    <path
       transform="matrix(1.3281487,1.6295788e-7,-1.6295788e-7,1.3281487,-12.645405,-10.202007)"
       d="m 43.746033,24.317461 a 16.317461,16.317461 0 1 1 -32.634922,0 16.317461,16.317461 0 1 1 32.634922,0 z"
       sodipodi:ry="16.317461"
       sodipodi:rx="16.317461"
       sodipodi:cy="24.317461"
       sodipodi:cx="27.428572"
       id="path10152"
       style="color:#000000;fill:url(#radialGradient10154);fill-opacity:1;fill-rule:nonzero;stroke:none;stroke-width:0.56469584;marker:none;visibility:visible;display:inline;overflow:visible"
       sodipodi:type="arc" />
    <path
       sodipodi:type="arc"
       style="color:#000000;fill:none;stroke:#000000;stroke-width:0.56469583999999995;stroke-linecap:round;stroke-linejoin:bevel;stroke-miterlimit:4;stroke-opacity:1;stroke-dasharray:none;stroke-dashoffset:0;marker:none;visibility:visible;display:inline;overflow:visible;fill-opacity:1"
       id="path47216"
       sodipodi:cx="27.428572"
       sodipodi:cy="24.317461"
       sodipodi:rx="16.317461"
       sodipodi:ry="16.317461"
       d="m 43.746033,24.317461 a 16.317461,16.317461 0 1 1 -32.634922,0 16.317461,16.317461 0 1 1 32.634922,0 z"
       transform="matrix(1.3281487,1.6295788e-7,-1.6295788e-7,1.3281487,-12.499826,-10.202007)" />
    <path
       sodipodi:type="arc"
       style="color:#000000;fill:url(#radialGradient10174);fill-opacity:1;fill-rule:nonzero;stroke:none;stroke-width:0.75;marker:none;visibility:visible;display:inline;overflow:visible;enable-background:accumulate"
       id="path10166"
       sodipodi:cx="17.643997"
       sodipodi:cy="16.48324"
       sodipodi:rx="5.0732107"
       sodipodi:ry="5.0732107"
       d="m 22.717208,16.48324 a 5.0732107,5.0732107 0 1 1 -10.146422,0 5.0732107,5.0732107 0 1 1 10.146422,0 z"
       transform="matrix(1.2920354,0,0,1.2920354,-8.1157857,-6.3401421)" />
    <path
       id="path5895"
       style="fill:url(#radialGradient5956);stroke:none;stroke-width:1px;stroke-linecap:butt;stroke-linejoin:miter;stroke-opacity:1;color:#000000;fill-opacity:1;fill-rule:nonzero;marker:none;visibility:visible;display:inline;overflow:visible;enable-background:accumulate"
       d="m 36.698412,39.174603 1.396825,-3.111111 2.031746,-1.396825 -0.761904,2.730159 z m -2.873628,1.397134 -2.097149,2.231011 2.907189,-1.680059 2.313374,-2.201898 z m -10.467026,3.260789 1.498368,-1.252881 c 1.606327,-0.06531 3.212653,-0.08985 4.81898,-0.847782 l -1.278628,1.546349 z m 7.745194,-4.822496 -1.338605,2.543351 3.971196,-1.070883 1.383227,-2.721833 z m -13.073715,3.881957 c 0.991059,-0.582132 1.685681,-1.411295 1.963288,-2.587971 l 6.826889,-0.223101 -1.963288,2.587971 z m 10.173403,-9.102518 -6.514548,0.356961 -0.446201,3.301895 6.648408,-0.490823 z m -0.267721,3.123413 4.060437,-0.981644 -0.803163,2.900312 -4.328159,1.204745 c 0.830672,-0.988503 1.308222,-2.016242 1.070885,-3.123413 z m 10.664225,-3.391134 -2.454109,1.115504 -0.892405,2.989553 2.766451,-1.517086 z m 2.32025,-1.650947 2.364871,-1.472467 -1.740189,3.480375 -1.517086,1.026265 z m -1.829428,-1.740188 2.27563,-1.383226 -0.446202,3.168034 -2.275629,1.427846 z m -6.559167,2.587971 3.926575,-1.160125 -0.490821,3.123414 -3.926576,1.115504 z m -4.46202,-2.40949 4.149678,-1.160125 0.223101,3.435755 -4.194297,1.026264 z m -8.477835,-3.703476 7.406952,-0.08924 1.115503,3.748096 -7.094609,0.13386 c -0.01934,-1.416442 -0.708948,-2.60946 -1.427846,-3.792716 z m 16.732571,1.338606 2.721831,-1.249365 0.04462,3.391134 -2.587971,1.383226 z m 5.086701,-2.721831 2.007909,-1.204746 0.04462,3.346515 -2.14177,1.338605 z m 2.855693,0.446201 -0.758543,1.517087 -0.267722,3.257274 0.892403,-2.27563 z m 0.892403,-4.8636 -0.892403,1.338605 0.04462,3.346515 0.892403,-1.695568 z m -6.693027,2.231009 2.231009,-1.249365 0.580061,3.480375 -2.231009,1.293985 z m -7.183851,2.32025 4.194297,-0.981644 0.713922,3.658855 -3.971196,0.937024 z m 2.811072,-4.997461 3.078793,-0.981644 1.160124,3.658855 -2.900313,1.249365 z m 1.427845,-4.908221 2.14177,-1.249365 1.874047,3.748096 -2.364869,1.204745 z m 4.015817,2.45411 1.115505,3.703476 2.097149,-1.383226 -1.026264,-3.391134 z m 3.926577,1.160125 0.713923,3.078793 -0.713923,1.650947 -0.580063,-3.524995 z m -0.803164,-3.971197 0.758544,-1.383225 0.937023,3.614235 -0.758543,1.427846 z m -1.784807,-3.480374 -0.803164,1.338605 1.740187,3.837337 0.847784,-1.650947 z m -2.45411,-4.1942982 0.713923,-1.1155047 2.543351,3.7480959 -0.803164,1.383226 z M 33.646302,4.4740044 37.483639,8.8467829 38.331423,7.3743167 34.494087,3.2692592 z m 1.472468,5.5775236 2.27563,-1.160125 2.63259,3.971197 -2.27563,1.160125 z m -2.36487,0.937024 -4.685121,-4.4173989 3.034173,-0.9370239 3.926577,4.3727788 z m -0.803164,5.265182 -3.257274,-4.194297 3.971197,-0.892404 2.766451,4.194297 z m -2.052529,5.086702 -2.186388,-4.060437 4.149676,-0.847784 2.14177,4.015817 z m -2.989552,5.042081 -2.364871,-4.105057 5.399044,-0.803163 1.249365,3.881956 z" />
  </g>
</svg>
