<?xml version="1.0" encoding="UTF-8" standalone="no"?>
<!-- Created with Inkscape (http://www.inkscape.org/) -->

<svg
   xmlns:dc="http://purl.org/dc/elements/1.1/"
   xmlns:cc="http://creativecommons.org/ns#"
   xmlns:rdf="http://www.w3.org/1999/02/22-rdf-syntax-ns#"
   xmlns:svg="http://www.w3.org/2000/svg"
   xmlns="http://www.w3.org/2000/svg"
   xmlns:xlink="http://www.w3.org/1999/xlink"
   xmlns:sodipodi="http://sodipodi.sourceforge.net/DTD/sodipodi-0.dtd"
   xmlns:inkscape="http://www.inkscape.org/namespaces/inkscape"
   width="48px"
   height="48px"
   id="svg47163"
   sodipodi:version="0.32"
   inkscape:version="0.48.4 r9939"
   sodipodi:docname="triplane.svg"
   version="1.1">
  <defs
     id="defs47165">
    <linearGradient
       id="linearGradient10168">
      <stop
         style="stop-color:#ffffff;stop-opacity:0.61261261;"
         offset="0"
         id="stop10170" />
      <stop
         style="stop-color:#ffffff;stop-opacity:0;"
         offset="1"
         id="stop10172" />
    </linearGradient>
    <linearGradient
       inkscape:collect="always"
       id="linearGradient10158">
      <stop
         style="stop-color:#000000;stop-opacity:1;"
         offset="0"
         id="stop10160" />
      <stop
         style="stop-color:#000000;stop-opacity:0;"
         offset="1"
         id="stop10162" />
    </linearGradient>
    <linearGradient
       id="linearGradient47268">
      <stop
         style="stop-color:#434c4f;stop-opacity:1;"
         offset="0"
         id="stop47270" />
      <stop
         style="stop-color:black;stop-opacity:1;"
         offset="1"
         id="stop47272" />
    </linearGradient>
    <linearGradient
       id="linearGradient47218">
      <stop
         style="stop-color:white;stop-opacity:1;"
         offset="0"
         id="stop47220" />
      <stop
         style="stop-color:#d0d0cb;stop-opacity:1;"
         offset="1"
         id="stop47222" />
    </linearGradient>
    <radialGradient
       inkscape:collect="always"
       xlink:href="#linearGradient47218"
       id="radialGradient47224"
       cx="22.91757"
       cy="21.292709"
       fx="22.91757"
       fy="21.292709"
       r="16.817461"
       gradientUnits="userSpaceOnUse"
       gradientTransform="matrix(1.196321,3.145893e-3,-3.155803e-3,1.200089,-4.55592,-4.418902)" />
    <radialGradient
       inkscape:collect="always"
       xlink:href="#linearGradient47218"
       id="radialGradient47256"
       gradientUnits="userSpaceOnUse"
       gradientTransform="matrix(1.196321,0.00314589,-0.0031558,1.200089,-4.55592,-4.418902)"
       cx="22.91757"
       cy="21.292709"
       fx="22.91757"
       fy="21.292709"
       r="16.817461" />
    <radialGradient
       inkscape:collect="always"
       xlink:href="#linearGradient47268"
       id="radialGradient47274"
       cx="16.509638"
       cy="20.475857"
       fx="16.509638"
       fy="20.475857"
       r="17.928591"
       gradientTransform="matrix(0.55082858,0.31802102,-0.31817463,0.55109462,18.028467,0.75092202)"
       gradientUnits="userSpaceOnUse" />
    <linearGradient
       id="linearGradient47218-7">
      <stop
         style="stop-color:white;stop-opacity:1;"
         offset="0"
         id="stop47220-4" />
      <stop
         style="stop-color:#d0d0cb;stop-opacity:1;"
         offset="1"
         id="stop47222-0" />
    </linearGradient>
    <radialGradient
       inkscape:collect="always"
       xlink:href="#linearGradient47268-4"
       id="radialGradient10052-9"
       gradientUnits="userSpaceOnUse"
       gradientTransform="matrix(0.55082858,0.31802102,-0.31817463,0.55109462,18.028467,0.75092202)"
       cx="16.509638"
       cy="20.475857"
       fx="16.509638"
       fy="20.475857"
       r="17.928591" />
    <linearGradient
       id="linearGradient47268-4">
      <stop
         style="stop-color:#434c4f;stop-opacity:1;"
         offset="0"
         id="stop47270-8" />
      <stop
         style="stop-color:black;stop-opacity:1;"
         offset="1"
         id="stop47272-8" />
    </linearGradient>
    <radialGradient
       inkscape:collect="always"
       xlink:href="#linearGradient47268-4"
       id="radialGradient10126"
       gradientUnits="userSpaceOnUse"
       gradientTransform="matrix(1.0445385,0.60306456,-0.60335586,1.045043,13.658865,-16.649365)"
       cx="16.509638"
       cy="20.475857"
       fx="16.509638"
       fy="20.475857"
       r="17.928591" />
    <radialGradient
       inkscape:collect="always"
       xlink:href="#linearGradient47218-7"
       id="radialGradient10154"
       gradientUnits="userSpaceOnUse"
       gradientTransform="matrix(1.196321,0.00314589,-0.0031558,1.200089,-4.55592,-4.418902)"
       cx="22.91757"
       cy="21.292709"
       fx="22.91757"
       fy="21.292709"
       r="16.817461" />
    <radialGradient
       inkscape:collect="always"
       xlink:href="#linearGradient10158"
       id="radialGradient10164"
       cx="27.428572"
       cy="24.317461"
       fx="27.428572"
       fy="24.317461"
       r="16.317461"
       gradientUnits="userSpaceOnUse" />
    <radialGradient
       inkscape:collect="always"
       xlink:href="#linearGradient10168"
       id="radialGradient10174"
       cx="17.643997"
       cy="16.48324"
       fx="17.643997"
       fy="16.48324"
       r="5.0732107"
       gradientUnits="userSpaceOnUse" />
  </defs>
  <sodipodi:namedview
     id="base"
     pagecolor="#ffffff"
     bordercolor="#666666"
     borderopacity="1.0"
     inkscape:pageopacity="0.0"
     inkscape:pageshadow="2"
     inkscape:zoom="22.273864"
     inkscape:cx="28.634921"
     inkscape:cy="20.634921"
     inkscape:current-layer="layer1"
     showgrid="true"
     inkscape:grid-bbox="false"
     inkscape:document-units="px"
     inkscape:window-width="2560"
     inkscape:window-height="1537"
     inkscape:window-x="-8"
     inkscape:window-y="-8"
     inkscape:window-maximized="1" />
  <metadata
     id="metadata47168">
    <rdf:RDF>
      <cc:Work
         rdf:about="">
        <dc:format>image/svg+xml</dc:format>
        <dc:type
           rdf:resource="http://purl.org/dc/dcmitype/StillImage" />
        <dc:title></dc:title>
      </cc:Work>
    </rdf:RDF>
  </metadata>
  <g
     id="layer1"
     inkscape:label="Layer 1"
     inkscape:groupmode="layer">
    <path
       transform="matrix(1.3281487,4.9698795e-8,-1.6295788e-7,0.40505798,-12.45493,31.213639)"
       d="m 43.746033,24.317461 a 16.317461,16.317461 0 1 1 -32.634922,0 16.317461,16.317461 0 1 1 32.634922,0 z"
       sodipodi:ry="16.317461"
       sodipodi:rx="16.317461"
       sodipodi:cy="24.317461"
       sodipodi:cx="27.428572"
       id="path10156"
       style="color:#000000;fill:url(#radialGradient10164);fill-opacity:1;stroke:none;stroke-width:0.56469584;marker:none;visibility:visible;display:inline;overflow:visible"
       sodipodi:type="arc" />
    <path
       transform="matrix(1.3281487,1.6295788e-7,-1.6295788e-7,1.3281487,-12.45493,-10.202007)"
       d="m 43.746033,24.317461 a 16.317461,16.317461 0 1 1 -32.634922,0 16.317461,16.317461 0 1 1 32.634922,0 z"
       sodipodi:ry="16.317461"
       sodipodi:rx="16.317461"
       sodipodi:cy="24.317461"
       sodipodi:cx="27.428572"
       id="path10152"
       style="color:#000000;fill:url(#radialGradient10154);fill-opacity:1;fill-rule:nonzero;stroke:#000000;stroke-width:0.56469584;stroke-linecap:round;stroke-linejoin:bevel;stroke-miterlimit:4;stroke-opacity:1;stroke-dasharray:none;stroke-dashoffset:0;marker:none;visibility:visible;display:inline;overflow:visible"
       sodipodi:type="arc" />
    <path
       id="path47238"
       style="color:#000000;fill:url(#radialGradient10126);fill-opacity:1;fill-rule:nonzero;stroke:none;stroke-width:1;marker:none;visibility:visible;display:inline;overflow:visible"
       d="m 8.3329336,7.5929389 c 0,1.9920653 7.0437954,3.6088121 15.7227464,3.6088101 8.678959,-10e-7 15.722749,-1.6167498 15.722749,-3.6088158 1.805194,1.528233 3.271905,3.3949488 4.05872,5.9415588 -0.07657,2.480978 -8.938679,4.949731 -19.858047,4.949733 C 13.059733,18.484227 4.1976367,16.01548 4.1976367,13.445413 4.7811864,11.640875 6.7412139,9.2721442 8.3042179,7.5737938 M 15.871586,1.7454159 c 2e-6,1.0133129 3.583001,1.8357115 7.997765,1.8357115 4.414769,0 7.997767,-0.8224005 7.997767,-1.8357153 l 3.749318,2.4862652 c -0.421854,1.6449091 -6.231633,3.0538612 -11.786039,3.0538631 -5.554407,0 -11.517341,-1.7918481 -11.517343,-3.0991734 L 15.856981,1.7356784 M 2.4588944,19.49487 c 2.2208111,2.75786 12.7503206,5.473147 21.4292756,5.473145 8.678957,-4e-6 21.619376,-3.301506 21.619376,-5.293571 L 45.04807,26.30522 c -0.07659,2.48098 -10.317112,5.945266 -21.23648,5.94527 -10.919369,2e-6 -21.0833197,-4.000337 -21.0833197,-6.570404 m 2.1825228,6.530007 c 1.9822749,2.461647 11.0405589,5.893476 18.7873369,5.893476 7.74678,-2e-6 17.865572,-3.885641 19.397164,-5.816905 l -2.937254,4.769895 c -1.802934,1.3899 -6.740669,4.622251 -16.487224,4.622252 -9.746556,2e-6 -14.4723011,-3.903551 -16.386055,-5.180243"
       sodipodi:nodetypes="csccscccsccscccsccsccsccsc"
       inkscape:connector-curvature="0" />
    <path
       style="fill:#ef2929;fill-opacity:0.5051546;stroke:none"
       d="m 4.9892144,11.320238 c 6.8132506,0.670594 13.1437216,2.788765 18.8054896,9.248508 l 0,23.390644 C 15.055114,43.85051 5.8875813,37.34299 3.8387609,30.58048 1.7899404,23.81797 1.4780569,18.129505 4.9892144,11.320238 z"
       id="path10129"
       inkscape:connector-curvature="0"
       sodipodi:nodetypes="ccczc" />
    <path
       sodipodi:nodetypes="ccczc"
       inkscape:connector-curvature="0"
       id="path10131"
       d="m 42.897123,11.320238 c -6.927187,0.670594 -13.36352,2.788765 -19.119969,9.248508 l 0,23.390644 c 8.88574,-0.10888 18.206578,-6.6164 20.289661,-13.37891 2.083083,-6.76251 2.400182,-12.450975 -1.169692,-19.260242 z"
       style="fill:#fce94f;fill-opacity:0.48969074;stroke:none" />
    <path
       style="color:#000000;fill:#4fc1fc;fill-opacity:0.48969074;fill-rule:nonzero;stroke:none;stroke-width:1px;marker:none;visibility:visible;display:inline;overflow:visible;enable-background:accumulate"
       d="M 4.9834192,11.320238 C 7.2730983,7.1799642 12.863074,0.57325525 24.108974,0.45548685 35.354874,0.33771845 40.797929,8.2837192 42.965155,11.365134 35.309394,11.952553 28.220594,15.451443 23.749809,20.568746 18.600095,14.660105 11.704173,11.76736 4.9834192,11.320238 z"
       id="path10133"
       inkscape:connector-curvature="0"
       sodipodi:nodetypes="czccc" />
    <path
       sodipodi:type="arc"
       style="color:#000000;fill:none;stroke:#000000;stroke-width:0.56469584;stroke-linecap:round;stroke-linejoin:bevel;stroke-miterlimit:4;stroke-opacity:1;stroke-dasharray:none;stroke-dashoffset:0;marker:none;visibility:visible;display:inline;overflow:visible"
       id="path47216"
       sodipodi:cx="27.428572"
       sodipodi:cy="24.317461"
       sodipodi:rx="16.317461"
       sodipodi:ry="16.317461"
       d="m 43.746033,24.317461 a 16.317461,16.317461 0 1 1 -32.634922,0 16.317461,16.317461 0 1 1 32.634922,0 z"
       transform="matrix(1.3281487,1.6295788e-7,-1.6295788e-7,1.3281487,-12.45493,-10.202007)" />
    <path
       sodipodi:type="arc"
       style="color:#000000;fill:url(#radialGradient10174);fill-opacity:1;fill-rule:nonzero;stroke:none;stroke-width:0.75;marker:none;visibility:visible;display:inline;overflow:visible;enable-background:accumulate"
       id="path10166"
       sodipodi:cx="17.643997"
       sodipodi:cy="16.48324"
       sodipodi:rx="5.0732107"
       sodipodi:ry="5.0732107"
       d="m 22.717208,16.48324 a 5.0732107,5.0732107 0 1 1 -10.146422,0 5.0732107,5.0732107 0 1 1 10.146422,0 z"
       transform="matrix(1.2920354,0,0,1.2920354,-8.1157857,-6.3401421)" />
  </g>
</svg>
