<?xml version="1.0" encoding="UTF-8" standalone="no"?>
<!-- Generator: Adobe Illustrator 15.0.0, SVG Export Plug-In . SVG Version: 6.00 Build 0)  -->
<svg
   xmlns:dc="http://purl.org/dc/elements/1.1/"
   xmlns:cc="http://creativecommons.org/ns#"
   xmlns:rdf="http://www.w3.org/1999/02/22-rdf-syntax-ns#"
   xmlns:svg="http://www.w3.org/2000/svg"
   xmlns="http://www.w3.org/2000/svg"
   xmlns:sodipodi="http://sodipodi.sourceforge.net/DTD/sodipodi-0.dtd"
   xmlns:inkscape="http://www.inkscape.org/namespaces/inkscape"
   version="1.0"
   id="Layer_1"
   x="0px"
   y="0px"
   width="48"
   height="48"
   viewBox="0 0 612 792"
   enable-background="new 0 0 612 792"
   xml:space="preserve"
   sodipodi:version="0.32"
   inkscape:version="0.46"
   sodipodi:docname="Wood.svg"
   inkscape:output_extension="org.inkscape.output.svg.inkscape"><metadata
   id="metadata2473"><rdf:RDF><cc:Work
       rdf:about=""><dc:format>image/svg+xml</dc:format><dc:type
         rdf:resource="http://purl.org/dc/dcmitype/StillImage" /></cc:Work></rdf:RDF></metadata><defs
   id="defs2471"><linearGradient
     id="linearGradient88767"><stop
       style="stop-color:#ffffff;stop-opacity:1;"
       offset="0"
       id="stop88769" /><stop
       id="stop88775"
       offset="0.23315203"
       style="stop-color:#729fcf;stop-opacity:0.74774772;" /><stop
       style="stop-color:#294f78;stop-opacity:0.57657659;"
       offset="1"
       id="stop88771" /></linearGradient><linearGradient
     id="linearGradient88759"><stop
       style="stop-color:#f57f6d;stop-opacity:1;"
       offset="0"
       id="stop88761" /><stop
       style="stop-color:#c5260e;stop-opacity:1;"
       offset="1"
       id="stop88763" /></linearGradient><linearGradient
     id="linearGradient88751"><stop
       style="stop-color:#51140a;stop-opacity:1;"
       offset="0"
       id="stop88753" /><stop
       style="stop-color:#bc3019;stop-opacity:1;"
       offset="1"
       id="stop88755" /></linearGradient><inkscape:perspective
     id="perspective89165"
     inkscape:persp3d-origin="306 : 264 : 1"
     inkscape:vp_z="612 : 396 : 1"
     inkscape:vp_y="0 : 1000 : 0"
     inkscape:vp_x="0 : 396 : 1"
     sodipodi:type="inkscape:persp3d" /><inkscape:perspective
     id="perspective89336"
     inkscape:persp3d-origin="306 : 264 : 1"
     inkscape:vp_z="612 : 396 : 1"
     inkscape:vp_y="0 : 1000 : 0"
     inkscape:vp_x="0 : 396 : 1"
     sodipodi:type="inkscape:persp3d" /><inkscape:perspective
     id="perspective89492"
     inkscape:persp3d-origin="306 : 264 : 1"
     inkscape:vp_z="612 : 396 : 1"
     inkscape:vp_y="0 : 1000 : 0"
     inkscape:vp_x="0 : 396 : 1"
     sodipodi:type="inkscape:persp3d" /><inkscape:perspective
     id="perspective90202"
     inkscape:persp3d-origin="306 : 264 : 1"
     inkscape:vp_z="612 : 396 : 1"
     inkscape:vp_y="0 : 1000 : 0"
     inkscape:vp_x="0 : 396 : 1"
     sodipodi:type="inkscape:persp3d" /></defs><sodipodi:namedview
   inkscape:window-height="1538"
   inkscape:window-width="2560"
   inkscape:pageshadow="2"
   inkscape:pageopacity="0.0"
   guidetolerance="10.0"
   gridtolerance="10.0"
   objecttolerance="10.0"
   borderopacity="1.0"
   bordercolor="#666666"
   pagecolor="#ffffff"
   id="base"
   showgrid="false"
   inkscape:zoom="18.666667"
   inkscape:cx="23.39682"
   inkscape:cy="22.165602"
   inkscape:window-x="-8"
   inkscape:window-y="-8"
   inkscape:current-layer="Layer_1" />
















<g
   id="g90205"
   transform="matrix(17.041715,0,0,17.041715,-4450.8613,-6365.4627)"><polygon
     id="polygon89889"
     points="274.553,418.962 256.979,410.624 256.958,398.15 269.329,395.092 269.329,386.965 277.569,385.18 279.971,385.659 280,378.092 285.66,376.943 296.144,378.015 296.167,394.697 300.263,395.602 300.263,408.265 274.553,418.962 "
     stroke-miterlimit="10"
     style="fill:none;stroke:#755023;stroke-width:1.20000005;stroke-linecap:round;stroke-linejoin:round;stroke-miterlimit:10" /><path
     id="path89891"
     d="M 299.883,395.904 L 295.711,394.959 L 295.711,378.475 L 295.717,378.474 L 295.711,378.474 L 295.711,378.464 L 295.688,378.471 L 285.674,377.328 L 280.379,378.404 L 280.348,386.124 L 277.573,385.568 L 269.71,387.272 L 269.71,395.39 L 257.337,398.45 L 257.358,410.386 L 274.665,418.605 L 299.884,408.015 L 299.884,395.904 L 299.883,395.904 z"
     stroke-miterlimit="10"
     style="fill:none;stroke:#efe7df;stroke-linecap:round;stroke-linejoin:round;stroke-miterlimit:10" /><polygon
     id="polygon89893"
     points="274.557,403.917 299.883,395.83 299.883,407.937 274.581,418.489 274.557,403.917 "
     style="fill:#a17644" /><polygon
     id="polygon89895"
     points="274.55,403.911 274.596,418.435 257.334,410.265 257.336,398.371 274.55,403.911 "
     style="fill:#c7a37a" /><polygon
     id="polygon89897"
     points="274.557,403.917 299.883,395.83 283.053,392.013 257.336,398.371 274.557,403.917 "
     style="fill:#e2d4c5" /><path
     id="path89899"
     d="M 273.825,403.65 C 274.075,403.68 275.154,403.712 275.154,403.712"
     stroke-miterlimit="10"
     style="fill:none;stroke:#a3855b;stroke-width:0.30000001;stroke-linecap:round;stroke-linejoin:round;stroke-miterlimit:10" /><path
     id="path89901"
     d="M 272.081,403.11 C 273.411,403.276 275.403,403.358 276.214,403.358"
     stroke-miterlimit="10"
     style="fill:none;stroke:#a3855b;stroke-width:0.30000001;stroke-linecap:round;stroke-linejoin:round;stroke-miterlimit:10" /><path
     id="path89903"
     d="M 270.711,402.657 C 272.164,402.72 276.799,402.876 278.356,402.751"
     stroke-miterlimit="10"
     style="fill:none;stroke:#a3855b;stroke-width:0.30000001;stroke-linecap:round;stroke-linejoin:round;stroke-miterlimit:10" /><path
     id="path89905"
     d="M 267.39,401.574 C 270.732,402.031 278.911,402.238 280.448,402.051"
     stroke-miterlimit="10"
     style="fill:none;stroke:#a3855b;stroke-width:0.30000001;stroke-linecap:round;stroke-linejoin:round;stroke-miterlimit:10" /><path
     id="path89907"
     d="M 264.795,400.848 C 268.137,401.305 280.51,401.7 282.461,401.491"
     stroke-miterlimit="10"
     style="fill:none;stroke:#a3855b;stroke-width:0.30000001;stroke-linecap:round;stroke-linejoin:round;stroke-miterlimit:10" /><path
     id="path89909"
     d="M 262.459,400.027 C 266.01,400.588 282.316,401.242 285.408,400.525"
     stroke-miterlimit="10"
     style="fill:none;stroke:#a3855b;stroke-width:0.30000001;stroke-linecap:round;stroke-linejoin:round;stroke-miterlimit:10" /><path
     id="path89911"
     d="M 259.253,399 C 263.176,399.841 284.101,400.619 288.491,399.467"
     stroke-miterlimit="10"
     style="fill:none;stroke:#a3855b;stroke-width:0.30000001;stroke-linecap:round;stroke-linejoin:round;stroke-miterlimit:10" /><path
     id="path89913"
     d="M 259.19,398.034 C 267.94,399.685 287.433,399.592 291.824,398.439"
     stroke-miterlimit="10"
     style="fill:none;stroke:#a3855b;stroke-width:0.30000001;stroke-linecap:round;stroke-linejoin:round;stroke-miterlimit:10" /><path
     id="path89915"
     d="M 261.713,397.412 C 270.463,399.062 289.239,399 293.629,397.848"
     stroke-miterlimit="10"
     style="fill:none;stroke:#a3855b;stroke-width:0.30000001;stroke-linecap:round;stroke-linejoin:round;stroke-miterlimit:10" /><path
     id="path89917"
     d="M 264.453,396.742 C 273.202,398.393 291.637,398.221 296.026,397.07"
     stroke-miterlimit="10"
     style="fill:none;stroke:#a3855b;stroke-width:0.30000001;stroke-linecap:round;stroke-linejoin:round;stroke-miterlimit:10" /><path
     id="path89919"
     d="M 267.739,395.917 C 276.489,397.567 294.502,397.318 298.891,396.166"
     stroke-miterlimit="10"
     style="fill:none;stroke:#a3855b;stroke-width:0.30000001;stroke-linecap:round;stroke-linejoin:round;stroke-miterlimit:10" /><path
     id="path89921"
     d="M 269.996,395.325 C 278.745,396.975 293.703,396.705 298.094,395.553"
     stroke-miterlimit="10"
     style="fill:none;stroke:#a3855b;stroke-width:0.30000001;stroke-linecap:round;stroke-linejoin:round;stroke-miterlimit:10" /><path
     id="path89923"
     d="M 272.393,394.702 C 278.777,395.854 289.331,396.228 296.4,395.169"
     stroke-miterlimit="10"
     style="fill:none;stroke:#a3855b;stroke-width:0.30000001;stroke-linecap:round;stroke-linejoin:round;stroke-miterlimit:10" /><path
     id="path89925"
     d="M 274.842,405.206 C 275.336,405.716 275.887,411.276 276.047,412.722 C 276.213,414.218 276.254,417.542 276.254,417.542"
     stroke-miterlimit="10"
     style="fill:none;stroke:#5a3e10;stroke-width:0.5;stroke-linecap:round;stroke-linejoin:round;stroke-miterlimit:10" /><path
     id="path89927"
     d="M 274.713,410.706 C 275.252,412.224 275.34,417.954 275.34,417.954"
     stroke-miterlimit="10"
     style="fill:none;stroke:#5a3e10;stroke-width:0.30000001;stroke-linecap:round;stroke-linejoin:round;stroke-miterlimit:10" /><path
     id="path89929"
     d="M 274.511,410.739 C 273.971,412.255 273.84,417.917 273.84,417.917"
     stroke-miterlimit="10"
     style="fill:none;stroke:#70552b;stroke-width:0.30000001;stroke-linecap:round;stroke-linejoin:round;stroke-miterlimit:10" /><path
     id="path89931"
     d="M 274.323,405.124 C 273.618,405.995 273.3,411.153 273.141,412.599 C 272.974,414.093 272.912,417.372 272.912,417.372"
     stroke-miterlimit="10"
     style="fill:none;stroke:#75582e;stroke-width:0.5;stroke-linecap:round;stroke-linejoin:round;stroke-miterlimit:10" /><path
     id="path89933"
     d="M 275.368,404.043 C 276.157,404.665 277.132,410.696 277.292,412.14 C 277.459,413.636 277.905,416.857 277.905,416.857"
     stroke-miterlimit="10"
     style="fill:none;stroke:#5a3e10;stroke-width:0.5;stroke-linecap:round;stroke-linejoin:round;stroke-miterlimit:10" /><path
     id="path89935"
     d="M 273.637,403.94 C 272.848,404.563 271.807,410.53 271.646,411.973 C 271.479,413.469 271.065,416.52 271.065,416.52"
     stroke-miterlimit="10"
     style="fill:none;stroke:#75582e;stroke-width:0.5;stroke-linecap:round;stroke-linejoin:round;stroke-miterlimit:10" /><path
     id="path89937"
     d="M 276.425,403.655 C 277.422,404.568 278.418,410.196 278.579,411.641 C 278.744,413.137 279.274,416.282 279.274,416.282"
     stroke-miterlimit="10"
     style="fill:none;stroke:#5a3e10;stroke-width:0.5;stroke-linecap:round;stroke-linejoin:round;stroke-miterlimit:10" /><path
     id="path89939"
     d="M 272.004,403.358 C 271.008,404.272 269.938,409.741 269.777,411.186 C 269.611,412.68 269.2,415.61 269.2,415.61"
     stroke-miterlimit="10"
     style="fill:none;stroke:#75582e;stroke-width:0.5;stroke-linecap:round;stroke-linejoin:round;stroke-miterlimit:10" /><path
     id="path89941"
     d="M 270.555,402.892 C 269.559,403.806 268.195,409.119 268.034,410.562 C 267.868,412.058 267.505,414.787 267.505,414.787"
     stroke-miterlimit="10"
     style="fill:none;stroke:#75582e;stroke-width:0.5;stroke-linecap:round;stroke-linejoin:round;stroke-miterlimit:10" /><path
     id="path89943"
     d="M 267.241,401.85 C 266.245,402.763 265.288,408.122 265.127,409.568 C 264.962,411.062 264.629,413.427 264.629,413.427"
     stroke-miterlimit="10"
     style="fill:none;stroke:#75582e;stroke-width:0.5;stroke-linecap:round;stroke-linejoin:round;stroke-miterlimit:10" /><path
     id="path89945"
     d="M 264.754,401.055 C 263.883,402.384 263.17,407.499 263.009,408.945 C 262.844,410.439 262.694,412.56 262.694,412.56"
     stroke-miterlimit="10"
     style="fill:none;stroke:#75582e;stroke-width:0.5;stroke-linecap:round;stroke-linejoin:round;stroke-miterlimit:10" /><path
     id="path89947"
     d="M 278.574,402.938 C 279.068,403.448 280.868,409.325 281.028,410.768 C 281.195,412.264 281.549,415.299 281.549,415.299"
     stroke-miterlimit="10"
     style="fill:none;stroke:#5a3e10;stroke-width:0.5;stroke-linecap:round;stroke-linejoin:round;stroke-miterlimit:10" /><path
     id="path89949"
     d="M 280.645,402.315 C 281.091,402.872 282.326,408.78 282.468,410.225 C 282.617,411.723 282.698,414.817 282.698,414.817"
     stroke-miterlimit="10"
     style="fill:none;stroke:#5a3e10;stroke-width:0.5;stroke-linecap:round;stroke-linejoin:round;stroke-miterlimit:10" /><path
     id="path89951"
     d="M 282.668,401.678 C 283.067,402.278 284.029,408.115 284.156,409.56 C 284.286,411.058 284.365,414.148 284.365,414.148"
     stroke-miterlimit="10"
     style="fill:none;stroke:#5a3e10;stroke-width:0.5;stroke-linecap:round;stroke-linejoin:round;stroke-miterlimit:10" /><path
     id="path89953"
     d="M 285.564,400.806 C 285.918,401.453 286.608,407.197 286.717,408.644 C 286.83,410.142 286.857,413.074 286.857,413.074"
     stroke-miterlimit="10"
     style="fill:none;stroke:#5a3e10;stroke-width:0.5;stroke-linecap:round;stroke-linejoin:round;stroke-miterlimit:10" /><path
     id="path89955"
     d="M 288.709,399.747 C 288.968,400.485 289.146,406.108 289.222,407.56 C 289.3,409.06 289.348,412.015 289.348,412.015"
     stroke-miterlimit="10"
     style="fill:none;stroke:#5a3e10;stroke-width:0.5;stroke-linecap:round;stroke-linejoin:round;stroke-miterlimit:10" /><path
     id="path89957"
     d="M 262.304,400.275 C 262.044,401.015 261.832,406.69 261.756,408.141 C 261.678,409.641 261.599,412.014 261.599,412.014"
     stroke-miterlimit="10"
     style="fill:none;stroke:#75582e;stroke-width:0.5;stroke-linecap:round;stroke-linejoin:round;stroke-miterlimit:10" /><path
     id="path89959"
     d="M 259.206,399.248 C 258.947,399.987 258.72,405.733 258.643,407.185 C 258.566,408.687 258.568,410.568 258.568,410.568"
     stroke-miterlimit="10"
     style="fill:none;stroke:#75582e;stroke-width:0.5;stroke-linecap:round;stroke-linejoin:round;stroke-miterlimit:10" /><path
     id="path89961"
     d="M 292.104,398.673 C 292.27,399.503 291.934,405.083 291.975,406.536 C 292.019,408.04 291.838,411.003 291.838,411.003"
     stroke-miterlimit="10"
     style="fill:none;stroke:#5a3e10;stroke-width:0.5;stroke-linecap:round;stroke-linejoin:round;stroke-miterlimit:10" /><path
     id="path89963"
     d="M 293.738,398.158 C 293.904,398.988 293.568,404.444 293.61,405.897 C 293.653,407.401 293.712,410.188 293.712,410.188"
     stroke-miterlimit="10"
     style="fill:none;stroke:#5a3e10;stroke-width:0.5;stroke-linecap:round;stroke-linejoin:round;stroke-miterlimit:10" /><path
     id="path89965"
     d="M 296.369,397.303 C 296.535,398.133 296.342,403.228 296.383,404.681 C 296.426,406.185 296.448,409.042 296.448,409.042"
     stroke-miterlimit="10"
     style="fill:none;stroke:#5a3e10;stroke-width:0.5;stroke-linecap:round;stroke-linejoin:round;stroke-miterlimit:10" /><path
     id="path89967"
     d="M 299.078,396.446 C 299.245,397.277 299.214,402.134 299.256,403.589 C 299.299,405.091 299.319,407.821 299.319,407.821"
     stroke-miterlimit="10"
     style="fill:none;stroke:#5a3e10;stroke-width:0.5;stroke-linecap:round;stroke-linejoin:round;stroke-miterlimit:10" /><line
     id="line89969"
     y2="418.44601"
     x2="274.62"
     y1="403.95599"
     x1="274.599"
     stroke-miterlimit="10"
     style="fill:none;stroke:#a17644;stroke-width:0.1;stroke-linecap:round;stroke-linejoin:round;stroke-miterlimit:10" /><line
     id="line89971"
     y2="403.94"
     x2="274.55099"
     y1="398.41901"
     x1="257.34201"
     stroke-miterlimit="10"
     style="fill:none;stroke:#a17644;stroke-width:0.1;stroke-linecap:round;stroke-linejoin:round;stroke-miterlimit:10" /><line
     id="line89973"
     y2="418.41299"
     x2="274.604"
     y1="410.272"
     x1="257.38501"
     stroke-miterlimit="10"
     style="fill:none;stroke:#a17644;stroke-width:0.1;stroke-linecap:round;stroke-linejoin:round;stroke-miterlimit:10" /><line
     id="line89975"
     y2="404.02802"
     x2="274.63501"
     y1="395.979"
     x1="299.841"
     stroke-miterlimit="10"
     style="fill:none;stroke:#a17644;stroke-width:0.1;stroke-linecap:round;stroke-linejoin:round;stroke-miterlimit:10" /><line
     id="line89977"
     y2="418.431"
     x2="274.651"
     y1="407.87399"
     x1="299.82599"
     stroke-miterlimit="10"
     style="fill:none;stroke:#a17644;stroke-width:0.1;stroke-linecap:round;stroke-linejoin:round;stroke-miterlimit:10" /><polygon
     id="polygon89979"
     points="295.711,395.705 295.711,378.388 290.872,379.657 290.872,397.345 295.711,395.705 "
     style="fill:#a17644" /><polygon
     id="polygon89981"
     points="290.872,379.657 290.872,397.345 280.314,394.989 280.379,378.326 290.872,379.657 "
     style="fill:#c7a37a" /><polygon
     id="polygon89983"
     points="290.872,379.667 295.717,378.397 285.674,377.25 280.379,378.326 290.872,379.667 "
     style="fill:#e2d4c5" /><path
     id="path89985"
     d="M 290.702,381.209 C 290.177,381.625 289.757,392.883 289.649,393.845 C 289.539,394.842 289.394,396.82 289.394,396.82"
     stroke-miterlimit="10"
     style="fill:none;stroke:#75582e;stroke-width:0.40000001;stroke-linecap:round;stroke-linejoin:round;stroke-miterlimit:10" /><path
     id="path89987"
     d="M 289.363,379.663 C 288.701,380.271 288.294,388.483 288.274,389.451 C 288.253,390.489 288.04,396.493 288.04,396.493"
     stroke-miterlimit="10"
     style="fill:none;stroke:#75582e;stroke-width:0.40000001;stroke-linecap:round;stroke-linejoin:round;stroke-miterlimit:10" /><path
     id="path89989"
     d="M 287.836,379.492 C 287.174,380.1 286.917,388.601 286.81,389.566 C 286.692,390.632 286.55,396.169 286.55,396.169"
     stroke-miterlimit="10"
     style="fill:none;stroke:#75582e;stroke-width:0.40000001;stroke-linecap:round;stroke-linejoin:round;stroke-miterlimit:10" /><path
     id="path89991"
     d="M 285.906,379.243 C 285.327,380.127 285.741,388.347 285.689,389.316 C 285.634,390.332 285.689,395.979 285.689,395.979"
     stroke-miterlimit="10"
     style="fill:none;stroke:#75582e;stroke-width:0.40000001;stroke-linecap:round;stroke-linejoin:round;stroke-miterlimit:10" /><path
     id="path89993"
     d="M 284.225,379.009 C 284.052,379.57 284.383,387.724 284.332,388.825 C 284.279,389.964 284.381,395.683 284.381,395.683"
     stroke-miterlimit="10"
     style="fill:none;stroke:#75582e;stroke-width:0.40000001;stroke-linecap:round;stroke-linejoin:round;stroke-miterlimit:10" /><path
     id="path89995"
     d="M 282.59,378.807 C 282.417,379.368 282.764,387.475 282.712,388.577 C 282.661,389.717 282.793,395.296 282.793,395.296"
     stroke-miterlimit="10"
     style="fill:none;stroke:#75582e;stroke-width:0.40000001;stroke-linecap:round;stroke-linejoin:round;stroke-miterlimit:10" /><path
     id="path89997"
     d="M 281.002,378.635 C 280.829,379.197 281.188,387.184 281.134,388.285 C 281.082,389.425 281.204,394.967 281.204,394.967"
     stroke-miterlimit="10"
     style="fill:none;stroke:#75582e;stroke-width:0.40000001;stroke-linecap:round;stroke-linejoin:round;stroke-miterlimit:10" /><path
     id="path89999"
     d="M 291.159,381.127 C 291.684,381.541 291.425,389.493 291.533,390.455 C 291.643,391.452 291.731,396.851 291.731,396.851"
     stroke-miterlimit="10"
     style="fill:none;stroke:#5f4213;stroke-width:0.40000001;stroke-linecap:round;stroke-linejoin:round;stroke-miterlimit:10" /><path
     id="path90001"
     d="M 292.244,379.539 C 292.907,380.147 292.65,388.852 292.758,389.814 C 292.869,390.811 292.82,396.446 292.82,396.446"
     stroke-miterlimit="10"
     style="fill:none;stroke:#5f4213;stroke-width:0.40000001;stroke-linecap:round;stroke-linejoin:round;stroke-miterlimit:10" /><path
     id="path90003"
     d="M 293.864,379.087 C 294.284,380.052 293.647,389.179 293.74,390.145 C 293.84,391.174 293.738,396.151 293.738,396.151"
     stroke-miterlimit="10"
     style="fill:none;stroke:#5f4213;stroke-width:0.40000001;stroke-linecap:round;stroke-linejoin:round;stroke-miterlimit:10" /><path
     id="path90005"
     d="M 295.109,378.791 C 295.69,379.676 295.066,389.006 295.172,389.971 C 295.285,390.967 295.125,395.658 295.125,395.658"
     stroke-miterlimit="10"
     style="fill:none;stroke:#5f4213;stroke-width:0.40000001;stroke-linecap:round;stroke-linejoin:round;stroke-miterlimit:10" /><line
     id="line90007"
     y2="395.668"
     x2="295.65399"
     y1="397.271"
     x1="290.95099"
     stroke-miterlimit="10"
     style="fill:none;stroke:#a17644;stroke-width:0.1;stroke-linecap:round;stroke-linejoin:round;stroke-miterlimit:10" /><line
     id="line90009"
     y2="397.28699"
     x2="290.84201"
     y1="394.952"
     x1="280.36401"
     stroke-miterlimit="10"
     style="fill:none;stroke:#a17644;stroke-width:0.1;stroke-linecap:round;stroke-linejoin:round;stroke-miterlimit:10" /><path
     id="path90011"
     d="M 289.503,379.445 C 290.453,379.461 291.559,379.367 292.088,379.352"
     stroke-miterlimit="10"
     style="fill:none;stroke:#a3855b;stroke-width:0.2;stroke-linecap:round;stroke-linejoin:round;stroke-miterlimit:10" /><path
     id="path90013"
     d="M 293.708,378.869 C 293.085,379.025 288.975,379.321 287.994,379.258"
     stroke-miterlimit="10"
     style="fill:none;stroke:#a3855b;stroke-width:0.2;stroke-linecap:round;stroke-linejoin:round;stroke-miterlimit:10" /><path
     id="path90015"
     d="M 285.922,378.994 C 287.511,379.087 294.174,378.667 295.029,378.511"
     stroke-miterlimit="10"
     style="fill:none;stroke:#a3855b;stroke-width:0.2;stroke-linecap:round;stroke-linejoin:round;stroke-miterlimit:10" /><path
     id="path90017"
     d="M 284.242,378.775 C 285.285,378.822 292.679,378.448 293.443,378.199"
     stroke-miterlimit="10"
     style="fill:none;stroke:#a3855b;stroke-width:0.2;stroke-linecap:round;stroke-linejoin:round;stroke-miterlimit:10" /><path
     id="path90019"
     d="M 282.607,378.589 C 282.748,378.589 289.878,378.261 290.734,377.95"
     stroke-miterlimit="10"
     style="fill:none;stroke:#a3855b;stroke-width:0.2;stroke-linecap:round;stroke-linejoin:round;stroke-miterlimit:10" /><path
     id="path90021"
     d="M 281.035,378.371 C 281.377,378.371 287.293,377.981 289.145,377.717"
     stroke-miterlimit="10"
     style="fill:none;stroke:#a3855b;stroke-width:0.2;stroke-linecap:round;stroke-linejoin:round;stroke-miterlimit:10" /><path
     id="path90023"
     d="M 283.334,377.805 C 284.126,377.79 286.072,377.826 287.277,377.515"
     stroke-miterlimit="10"
     style="fill:none;stroke:#a3855b;stroke-width:0.1;stroke-linecap:round;stroke-linejoin:round;stroke-miterlimit:10" /><path
     id="path90025"
     d="M 285.019,377.468 C 285.361,377.468 285.736,377.484 286.11,377.359"
     stroke-miterlimit="10"
     style="fill:none;stroke:#a3855b;stroke-width:0.1;stroke-linecap:round;stroke-linejoin:round;stroke-miterlimit:10" /><line
     id="line90027"
     y2="379.694"
     x2="290.84201"
     y1="378.371"
     x1="280.41199"
     stroke-miterlimit="10"
     style="fill:none;stroke:#a17644;stroke-width:0.1;stroke-linecap:round;stroke-linejoin:round;stroke-miterlimit:10" /><line
     id="line90029"
     y2="378.43301"
     x2="295.668"
     y1="379.694"
     x1="290.91901"
     stroke-miterlimit="10"
     style="fill:none;stroke:#a17644;stroke-width:0.1;stroke-linecap:round;stroke-linejoin:round;stroke-miterlimit:10" /><polygon
     id="polygon90031"
     points="277.503,389.141 277.503,398.975 269.709,396.296 269.709,387.195 277.503,389.141 "
     style="fill:#c7a37a" /><polygon
     id="polygon90033"
     points="277.503,389.141 277.503,398.975 284.98,396.415 284.98,387.042 277.503,389.141 "
     style="fill:#a17644" /><polygon
     id="polygon90035"
     points="269.709,387.195 277.503,389.141 284.974,387.042 277.573,385.491 269.709,387.195 "
     style="fill:#e2d4c5" /><path
     id="path90037"
     d="M 277.27,390.135 C 276.941,390.474 276.554,394.149 276.446,395.111 C 276.337,396.108 276.316,398.397 276.316,398.397"
     stroke-miterlimit="10"
     style="fill:none;stroke:#75582e;stroke-width:0.40000001;stroke-linecap:round;stroke-linejoin:round;stroke-miterlimit:10" /><path
     id="path90039"
     d="M 276.586,389.222 C 276.059,389.637 275.309,393.714 275.201,394.676 C 275.09,395.673 274.885,397.899 274.885,397.899"
     stroke-miterlimit="10"
     style="fill:none;stroke:#75582e;stroke-width:0.40000001;stroke-linecap:round;stroke-linejoin:round;stroke-miterlimit:10" /><path
     id="path90041"
     d="M 275.395,388.932 C 274.731,389.54 274.063,393.186 273.956,394.149 C 273.847,395.146 273.598,397.484 273.598,397.484"
     stroke-miterlimit="10"
     style="fill:none;stroke:#75582e;stroke-width:0.40000001;stroke-linecap:round;stroke-linejoin:round;stroke-miterlimit:10" /><path
     id="path90043"
     d="M 273.969,388.578 C 273.305,389.187 272.631,393.291 272.455,394.245 C 272.268,395.263 272.019,396.903 272.019,396.903"
     stroke-miterlimit="10"
     style="fill:none;stroke:#75582e;stroke-width:0.40000001;stroke-linecap:round;stroke-linejoin:round;stroke-miterlimit:10" /><path
     id="path90045"
     d="M 271.895,388.059 C 271.314,388.944 271.026,392.957 270.918,393.921 C 270.807,394.917 270.732,396.467 270.732,396.467"
     stroke-miterlimit="10"
     style="fill:none;stroke:#75582e;stroke-width:0.40000001;stroke-linecap:round;stroke-linejoin:round;stroke-miterlimit:10" /><path
     id="path90047"
     d="M 270.379,387.685 C 270.205,388.247 270.065,392.422 270.013,393.524 C 269.963,394.664 269.965,396.198 269.965,396.198"
     stroke-miterlimit="10"
     style="fill:none;stroke:#75582e;stroke-width:0.40000001;stroke-linecap:round;stroke-linejoin:round;stroke-miterlimit:10" /><path
     id="path90049"
     d="M 277.765,390.203 C 278.093,390.543 278.359,394.16 278.464,395.123 C 278.575,396.119 278.537,398.48 278.537,398.48"
     stroke-miterlimit="10"
     style="fill:none;stroke:#5a3e10;stroke-width:0.40000001;stroke-linecap:round;stroke-linejoin:round;stroke-miterlimit:10" /><path
     id="path90051"
     d="M 278.247,389.222 C 278.773,389.637 279.524,393.714 279.632,394.676 C 279.743,395.673 279.991,397.921 279.991,397.921"
     stroke-miterlimit="10"
     style="fill:none;stroke:#5a3e10;stroke-width:0.40000001;stroke-linecap:round;stroke-linejoin:round;stroke-miterlimit:10" /><path
     id="path90053"
     d="M 279.446,388.864 C 280.11,389.472 280.769,393.186 280.878,394.149 C 280.987,395.146 281.257,397.505 281.257,397.505"
     stroke-miterlimit="10"
     style="fill:none;stroke:#5a3e10;stroke-width:0.40000001;stroke-linecap:round;stroke-linejoin:round;stroke-miterlimit:10" /><path
     id="path90055"
     d="M 281.438,388.319 C 281.859,389.284 282.202,393.192 282.295,394.158 C 282.394,395.187 282.419,397.151 282.419,397.151"
     stroke-miterlimit="10"
     style="fill:none;stroke:#5a3e10;stroke-width:0.40000001;stroke-linecap:round;stroke-linejoin:round;stroke-miterlimit:10" /><path
     id="path90057"
     d="M 282.917,387.899 C 283.499,388.784 283.807,392.957 283.913,393.921 C 284.025,394.917 284.059,396.57 284.059,396.57"
     stroke-miterlimit="10"
     style="fill:none;stroke:#5a3e10;stroke-width:0.40000001;stroke-linecap:round;stroke-linejoin:round;stroke-miterlimit:10" /><path
     id="path90059"
     d="M 284.413,387.463 C 284.587,388.024 284.688,392.48 284.74,393.581 C 284.792,394.721 284.745,396.3 284.745,396.3"
     stroke-miterlimit="10"
     style="fill:none;stroke:#5a3e10;stroke-width:0.40000001;stroke-linecap:round;stroke-linejoin:round;stroke-miterlimit:10" /><line
     id="line90061"
     y2="398.979"
     x2="277.479"
     y1="396.32101"
     x1="269.75601"
     stroke-miterlimit="10"
     style="fill:none;stroke:#a17644;stroke-width:0.1;stroke-linecap:round;stroke-linejoin:round;stroke-miterlimit:10" /><line
     id="line90063"
     y2="398.98401"
     x2="277.51599"
     y1="396.431"
     x1="284.974"
     stroke-miterlimit="10"
     style="fill:none;stroke:#a17644;stroke-width:0.1;stroke-linecap:round;stroke-linejoin:round;stroke-miterlimit:10" /><path
     id="path90065"
     d="M 276.784,388.942 C 277.111,388.989 277.827,389.004 277.999,388.989"
     stroke-miterlimit="10"
     style="fill:none;stroke:#a3855b;stroke-width:0.2;stroke-linecap:round;stroke-linejoin:round;stroke-miterlimit:10" /><path
     id="path90067"
     d="M 275.584,388.677 C 276.378,388.786 278.963,388.709 279.211,388.646"
     stroke-miterlimit="10"
     style="fill:none;stroke:#a3855b;stroke-width:0.2;stroke-linecap:round;stroke-linejoin:round;stroke-miterlimit:10" /><path
     id="path90069"
     d="M 281.268,388.039 C 280.318,388.226 276.021,388.335 274.153,388.273"
     stroke-miterlimit="10"
     style="fill:none;stroke:#a3855b;stroke-width:0.2;stroke-linecap:round;stroke-linejoin:round;stroke-miterlimit:10" /><path
     id="path90071"
     d="M 282.748,387.65 C 280.94,387.837 273.795,388.024 272.144,387.758"
     stroke-miterlimit="10"
     style="fill:none;stroke:#a3855b;stroke-width:0.2;stroke-linecap:round;stroke-linejoin:round;stroke-miterlimit:10" /><path
     id="path90073"
     d="M 284.257,387.183 C 282.139,387.448 271.646,387.525 270.539,387.354"
     stroke-miterlimit="10"
     style="fill:none;stroke:#a3855b;stroke-width:0.2;stroke-linecap:round;stroke-linejoin:round;stroke-miterlimit:10" /><path
     id="path90075"
     d="M 283.291,386.747 C 281.813,387.105 272.97,387.183 271.614,386.856"
     stroke-miterlimit="10"
     style="fill:none;stroke:#a3855b;stroke-width:0.2;stroke-linecap:round;stroke-linejoin:round;stroke-miterlimit:10" /><path
     id="path90077"
     d="M 281.859,386.436 C 280.225,386.701 274.87,386.793 273.405,386.483"
     stroke-miterlimit="10"
     style="fill:none;stroke:#a3855b;stroke-width:0.2;stroke-linecap:round;stroke-linejoin:round;stroke-miterlimit:10" /><path
     id="path90079"
     d="M 280.131,386.108 C 278.606,386.435 277.063,386.435 275.055,386.171"
     stroke-miterlimit="10"
     style="fill:none;stroke:#a3855b;stroke-width:0.2;stroke-linecap:round;stroke-linejoin:round;stroke-miterlimit:10" /><path
     id="path90081"
     d="M 278.829,385.838 C 278.04,386.066 277.335,386.046 276.587,385.838"
     stroke-miterlimit="10"
     style="fill:none;stroke:#a3855b;stroke-width:0.2;stroke-linecap:round;stroke-linejoin:round;stroke-miterlimit:10" /><path
     id="path90083"
     d="M 278.076,385.704 C 277.765,385.782 277.438,385.719 277.267,385.673"
     stroke-miterlimit="10"
     style="fill:none;stroke:#a3855b;stroke-width:0.1;stroke-linecap:round;stroke-linejoin:round;stroke-miterlimit:10" /><line
     id="line90085"
     y2="389.207"
     x2="277.5"
     y1="387.25"
     x1="269.75601"
     stroke-miterlimit="10"
     style="fill:none;stroke:#a17644;stroke-width:0.1;stroke-linecap:round;stroke-linejoin:round;stroke-miterlimit:10" /><line
     id="line90087"
     y2="389.19101"
     x2="277.547"
     y1="387.08899"
     x1="284.94199"
     stroke-miterlimit="10"
     style="fill:none;stroke:#a17644;stroke-width:0.1;stroke-linecap:round;stroke-linejoin:round;stroke-miterlimit:10" /><polygon
     id="polygon90089"
     points="284.946,396.393 292.708,398.177 286.515,400.18 277.594,399.037 284.946,396.393 "
     style="opacity:0.47999998;fill:#52493d" /><polygon
     id="polygon90091"
     points="300.66,408.56 302.52,409.011 280.628,419.558 274.659,419.435 300.66,408.56 "
     style="opacity:0.47999998;fill:#52493d" /><polygon
     id="polygon90093"
     points="295.78,395.684 298.908,396.231 294.917,397.512 290.878,397.295 295.78,395.684 "
     style="opacity:0.47999998;fill:#52493d" /><polygon
     id="polygon90110"
     points="274.627,418.382 299.971,407.937 299.713,395.941 274.499,404.003 274.627,418.382 "
     style="opacity:0.63999999;fill:url(#SVGID_1_)" /><polygon
     id="polygon90127"
     points="277.465,398.973 285.009,396.329 284.881,387.107 277.594,389.299 277.465,398.973 "
     style="opacity:0.63999999;fill:url(#SVGID_2_)" /><polygon
     id="polygon90144"
     points="291.008,397.295 295.715,395.748 295.652,378.465 290.943,379.754 291.008,397.295 "
     style="opacity:0.63999999;fill:url(#SVGID_3_)" /><polygon
     id="polygon90161"
     points="257.28,410.321 274.627,418.448 274.499,403.938 257.28,398.393 257.28,410.321 "
     style="opacity:0.63999999;fill:url(#SVGID_4_)" /><polygon
     id="polygon90178"
     points="269.792,396.329 277.465,398.973 277.53,389.235 269.726,387.3 269.792,396.329 "
     style="opacity:0.63999999;fill:url(#SVGID_5_)" /><polygon
     id="polygon90195"
     points="280.389,394.888 290.964,397.295 290.878,379.754 280.389,378.379 280.389,394.888 "
     style="opacity:0.63999999;fill:url(#SVGID_6_)" /></g></svg>