<?xml version="1.0" encoding="UTF-8" standalone="no"?>
<!-- Created with Inkscape (http://www.inkscape.org/) -->
<svg
   xmlns:dc="http://purl.org/dc/elements/1.1/"
   xmlns:cc="http://creativecommons.org/ns#"
   xmlns:rdf="http://www.w3.org/1999/02/22-rdf-syntax-ns#"
   xmlns:svg="http://www.w3.org/2000/svg"
   xmlns="http://www.w3.org/2000/svg"
   xmlns:sodipodi="http://sodipodi.sourceforge.net/DTD/sodipodi-0.dtd"
   xmlns:inkscape="http://www.inkscape.org/namespaces/inkscape"
   width="48px"
   height="48px"
   id="svg17061"
   sodipodi:version="0.32"
   inkscape:version="0.46"
   sodipodi:docname="worleynoise.svg"
   inkscape:output_extension="org.inkscape.output.svg.inkscape">
  <defs
     id="defs17063" />
  <sodipodi:namedview
     id="base"
     pagecolor="#ffffff"
     bordercolor="#666666"
     borderopacity="1.0"
     inkscape:pageopacity="0.0"
     inkscape:pageshadow="2"
     inkscape:zoom="10.5"
     inkscape:cx="24.16604"
     inkscape:cy="25.996862"
     inkscape:current-layer="layer2"
     showgrid="true"
     inkscape:grid-bbox="true"
     inkscape:document-units="px"
     inkscape:window-width="1189"
     inkscape:window-height="853"
     inkscape:window-x="545"
     inkscape:window-y="98"
     objecttolerance="5"
     gridtolerance="5"
     guidetolerance="5"
     inkscape:snap-global="false">
    <inkscape:grid
       type="xygrid"
       id="grid22699"
       visible="true"
       enabled="true" />
  </sodipodi:namedview>
  <metadata
     id="metadata17066">
    <rdf:RDF>
      <cc:Work
         rdf:about="">
        <dc:format>image/svg+xml</dc:format>
        <dc:type
           rdf:resource="http://purl.org/dc/dcmitype/StillImage" />
      </cc:Work>
    </rdf:RDF>
  </metadata>
  <g
     id="layer1"
     inkscape:label="Layer 1"
     inkscape:groupmode="layer">
    <path
       style="fill:#babdb6;fill-rule:evenodd;stroke:#2e3436;stroke-width:1px;stroke-linecap:butt;stroke-linejoin:miter;stroke-opacity:1"
       d="M 0.94414819,14.158837 L 8.5983722,7.8714277 L 10.785293,0.94616512 L 1.1263916,1.1284089 L 0.94414819,14.158837 z"
       id="path22921" />
    <path
       style="fill:#babdb6;fill-rule:evenodd;stroke:#2e3436;stroke-width:1px;stroke-linecap:butt;stroke-linejoin:miter;stroke-opacity:1"
       d="M 8.8717373,7.7803058 L 15.250257,14.249959 L 11.69651,26.9159 L 1.1263916,23.271025 L 1.1263916,13.976594 L 8.8717373,7.7803058 z"
       id="path22923"
       sodipodi:nodetypes="cccccc" />
    <path
       style="fill:#babdb6;fill-rule:evenodd;stroke:#2e3436;stroke-width:1px;stroke-linecap:butt;stroke-linejoin:miter;stroke-opacity:1"
       d="M 11.605389,26.9159 L 1.2175133,35.207991 L 1.308635,23.271025 L 11.605389,26.9159 z"
       id="path22925"
       sodipodi:nodetypes="cccc" />
    <path
       style="fill:#babdb6;fill-rule:evenodd;stroke:#2e3436;stroke-width:1px;stroke-linecap:butt;stroke-linejoin:miter;stroke-opacity:1"
       d="M 11.605389,26.824777 L 19.441856,29.011703 L 24.635794,43.317837 L 9.8740761,46.962713 L 0.85302647,35.572478 L 11.605389,26.824777 z"
       id="path22927"
       sodipodi:nodetypes="cccccc" />
    <path
       style="fill:#babdb6;fill-rule:evenodd;stroke:#2e3436;stroke-width:1px;stroke-linecap:butt;stroke-linejoin:miter;stroke-opacity:1"
       d="M 0.76190475,35.6636 L 1.0352699,47.053834 L 10.05632,46.871591 L 0.76190475,35.6636 z"
       id="path22929" />
    <path
       style="fill:#babdb6;fill-rule:evenodd;stroke:#2e3436;stroke-width:1px;stroke-linecap:butt;stroke-linejoin:miter;stroke-opacity:1"
       d="M 15.523622,14.249959 L 32.745626,24.273365 L 19.168491,29.193946 L 11.514267,27.007022 L 15.523622,14.249959 z"
       id="path22931"
       sodipodi:nodetypes="ccccc" />
    <path
       style="fill:#babdb6;fill-rule:evenodd;stroke:#2e3436;stroke-width:1px;stroke-linecap:butt;stroke-linejoin:miter;stroke-opacity:1"
       d="M 11.240902,0.76392137 L 26.731593,1.3106526 L 20.17083,17.165859 L 15.159136,14.158837 L 8.8717373,7.689184 L 11.240902,0.76392137 z"
       id="path22933" />
    <path
       style="fill:#babdb6;fill-rule:evenodd;stroke:#2e3436;stroke-width:1px;stroke-linecap:butt;stroke-linejoin:miter;stroke-opacity:1"
       d="M 20.17083,17.165859 C 20.17083,16.710249 24.362428,7.5069402 24.362428,7.5069402 L 32.198896,13.065375 L 32.290018,24.182243 L 20.17083,17.165859 z"
       id="path22937"
       sodipodi:nodetypes="ccccc" />
    <path
       style="fill:#d3d7cf;fill-rule:evenodd;stroke:#2e3436;stroke-width:1px;stroke-linecap:butt;stroke-linejoin:miter;stroke-opacity:1"
       d="M 32.107774,0.94616512 L 41.94892,9.7849871 L 32.107774,24.091122 L 32.107774,0.94616512 z"
       id="path22939" />
    <path
       style="fill:#babdb6;fill-rule:evenodd;stroke:#2e3436;stroke-width:1px;stroke-linecap:butt;stroke-linejoin:miter;stroke-opacity:1"
       d="M 41.675554,9.876109 L 47.051736,11.607425 L 47.142857,0.94616512 L 32.198897,1.037287 L 41.675554,9.876109 z"
       id="path22941" />
    <path
       style="fill:#babdb6;fill-rule:evenodd;stroke:#2e3436;stroke-width:1px;stroke-linecap:butt;stroke-linejoin:miter;stroke-opacity:1"
       d="M 32.290018,24 L 38.304051,34.752382 L 24.818037,43.317837 L 19.350734,29.193946 L 32.290018,24 z"
       id="path22943"
       sodipodi:nodetypes="ccccc" />
    <path
       style="fill:#babdb6;fill-rule:evenodd;stroke:#2e3436;stroke-width:1px;stroke-linecap:butt;stroke-linejoin:miter;stroke-opacity:1"
       d="M 38.212929,34.934625 L 46.960614,32.7477 L 47.051736,25.275706 L 32.107774,23.908878 L 38.212929,34.934625 z"
       id="path22945"
       sodipodi:nodetypes="ccccc" />
    <path
       style="fill:#babdb6;fill-rule:evenodd;stroke:#2e3436;stroke-width:1px;stroke-linecap:butt;stroke-linejoin:miter;stroke-opacity:1"
       d="M 32.198897,23.817756 L 42.040041,9.9672308 L 47.142857,11.698546 L 46.960614,25.549072 L 32.198897,23.817756 z"
       id="path22947" />
    <path
       style="fill:#d3d7cf;fill-rule:evenodd;stroke:#2e3436;stroke-width:1px;stroke-linecap:butt;stroke-linejoin:miter;stroke-opacity:1"
       d="M 24.818037,43.226716 L 31.561044,47.236078 L 9.6007111,47.236078 L 24.818037,43.226716 z"
       id="path22949" />
    <path
       style="fill:#babdb6;fill-rule:evenodd;stroke:#2e3436;stroke-width:1px;stroke-linecap:butt;stroke-linejoin:miter;stroke-opacity:1"
       d="M 38.304051,35.025747 L 36.66386,47.236078 L 30.740949,47.236078 L 24.362428,43.317837 L 38.304051,35.025747 z"
       id="path22951"
       sodipodi:nodetypes="ccccc" />
    <path
       style="fill:#babdb6;fill-rule:evenodd;stroke:#2e3436;stroke-width:1px;stroke-linecap:butt;stroke-linejoin:miter;stroke-opacity:1"
       d="M 47.051736,32.7477 L 47.051736,46.962713 L 36.299373,47.144956 L 38.212929,34.843504 L 47.051736,32.7477 z"
       id="path22953"
       sodipodi:nodetypes="ccccc" />
    <path
       style="fill:#babdb6;fill-rule:evenodd;stroke:#2e3436;stroke-width:1px;stroke-linecap:butt;stroke-linejoin:miter;stroke-opacity:1"
       d="M 24.225746,7.5525016 L 26.59491,1.17397 L 32.517821,0.99172616 L 32.062213,13.110936 L 24.225746,7.5525016 z"
       id="path22955"
       sodipodi:nodetypes="ccccc" />
  </g>
  <g
     inkscape:groupmode="layer"
     id="layer2">
    <path
       style="fill:none;fill-rule:evenodd;stroke:#f6f6f6;stroke-width:1.3;stroke-linecap:butt;stroke-linejoin:miter;stroke-opacity:1;stroke-miterlimit:4;stroke-dasharray:none"
       d="M 2.1863589,11.499311 L 7.5019586,7.2573342 L 9.2655996,2.0218643 L 2.3333294,2.2649032 L 2.1863589,11.499311 z"
       id="path22957"
       sodipodi:nodetypes="ccccc" />
    <path
       style="fill:none;fill-rule:evenodd;stroke:#f6f6f6;stroke-width:1.3;stroke-linecap:butt;stroke-linejoin:miter;stroke-opacity:1;stroke-miterlimit:4;stroke-dasharray:none"
       d="M 8.8789253,9.6373245 L 13.92104,14.678153 L 10.751317,25.379816 L 2.6543173,22.408457 L 2.4638411,14.631492 L 8.8789253,9.6373245 z"
       id="path22959"
       sodipodi:nodetypes="cccccc" />
    <path
       style="fill:none;fill-rule:evenodd;stroke:#f6f6f6;stroke-width:1.3;stroke-linecap:butt;stroke-linejoin:miter;stroke-opacity:1;stroke-miterlimit:4;stroke-dasharray:none"
       d="M 8.9428383,27.226493 L 2.5549621,32.827839 L 2.5241124,24.924488 L 8.9428383,27.226493 z"
       id="path22961"
       sodipodi:nodetypes="cccc" />
    <path
       style="fill:none;fill-rule:evenodd;stroke:#f6f6f6;stroke-width:1.3;stroke-linecap:butt;stroke-linejoin:miter;stroke-opacity:1;stroke-miterlimit:4;stroke-dasharray:none"
       d="M 11.651102,28.34657 L 18.355659,30.268851 L 23.211338,42.462813 L 10.413495,45.571376 L 2.5714283,35.749977 L 11.651102,28.34657 z"
       id="path22963"
       sodipodi:nodetypes="cccccc" />
    <path
       style="fill:none;fill-rule:evenodd;stroke:#f6f6f6;stroke-width:1.3;stroke-linecap:butt;stroke-linejoin:miter;stroke-opacity:1;stroke-miterlimit:4;stroke-dasharray:none"
       d="M 1.9088778,38.982599 L 2.1766406,45.960532 L 7.4890077,45.5586 L 1.9088778,38.982599 z"
       id="path22965"
       sodipodi:nodetypes="cccc" />
    <path
       style="fill:none;fill-rule:evenodd;stroke:#f6f6f6;stroke-width:1.3;stroke-linecap:butt;stroke-linejoin:miter;stroke-opacity:1;stroke-miterlimit:4;stroke-dasharray:none"
       d="M 11.938895,2.1070322 L 24.73571,2.5717457 L 19.440252,15.477015 L 15.843523,13.302042 L 10.209186,7.4219774 L 11.938895,2.1070322 z"
       id="path22969"
       sodipodi:nodetypes="cccccc" />
    <path
       style="fill:none;fill-rule:evenodd;stroke:#eeeeec;stroke-width:1.3;stroke-linecap:butt;stroke-linejoin:miter;stroke-opacity:1;stroke-miterlimit:4;stroke-dasharray:none"
       d="M 21.603517,16.613081 L 24.87281,9.3209317 L 30.889729,13.967492 L 30.675087,21.736804 L 21.603517,16.613081 z"
       id="path22971"
       sodipodi:nodetypes="ccccc" />
    <path
       style="fill:#babdb6;fill-rule:evenodd;stroke:#eeeeec;stroke-width:1.3;stroke-linecap:butt;stroke-linejoin:miter;stroke-opacity:1;stroke-miterlimit:4;stroke-dasharray:none"
       d="M 33.730937,4.0805284 L 40.238749,10.213379 L 33.445222,20.134836 L 33.730937,4.0805284 z"
       id="path22973"
       sodipodi:nodetypes="cccc" />
    <path
       style="fill:none;fill-rule:evenodd;stroke:#eeeeec;stroke-width:1.3;stroke-linecap:butt;stroke-linejoin:miter;stroke-opacity:1;stroke-miterlimit:4;stroke-dasharray:none"
       d="M 42.058296,8.6167983 L 45.835174,10.008763 L 46.004112,2.1990948 L 35.250628,2.1771181 L 42.058296,8.6167983 z"
       id="path22975"
       sodipodi:nodetypes="ccccc" />
    <path
       style="fill:none;fill-rule:evenodd;stroke:#f6f6f6;stroke-width:1.3;stroke-linecap:butt;stroke-linejoin:miter;stroke-opacity:1;stroke-miterlimit:4;stroke-dasharray:none"
       d="M 31.737356,25.569258 L 36.689118,34.30862 L 25.371602,41.498086 L 20.78342,29.643114 L 31.737356,25.569258 z"
       id="path22977"
       sodipodi:nodetypes="ccccc" />
    <path
       style="fill:none;fill-rule:evenodd;stroke:#eeeeec;stroke-width:1.3;stroke-linecap:butt;stroke-linejoin:miter;stroke-opacity:1;stroke-miterlimit:4;stroke-dasharray:none"
       d="M 38.746661,33.470378 L 45.933371,31.777633 L 45.722519,26.621074 L 34.11189,25.21787 L 38.746661,33.470378 z"
       id="path22979"
       sodipodi:nodetypes="ccccc" />
    <path
       style="fill:none;fill-rule:evenodd;stroke:#eeeeec;stroke-width:1.3;stroke-linecap:butt;stroke-linejoin:miter;stroke-opacity:1;stroke-miterlimit:4;stroke-dasharray:none"
       d="M 34.298252,22.811441 L 42.483182,11.478187 L 46.194593,12.26389 L 45.766125,24.168574 L 34.298252,22.811441 z"
       id="path22981"
       sodipodi:nodetypes="ccccc" />
    <path
       style="fill:none;fill-rule:evenodd;stroke:#f6f6f6;stroke-width:1.3;stroke-linecap:butt;stroke-linejoin:miter;stroke-opacity:1;stroke-miterlimit:4;stroke-dasharray:none"
       d="M 24.237681,44.411391 L 27.088967,46.086619 L 16.557206,46.181857 L 24.237681,44.411391 z"
       id="path22983"
       sodipodi:nodetypes="cccc" />
    <path
       style="fill:none;fill-rule:evenodd;stroke:#eeeeec;stroke-width:1.3;stroke-linecap:butt;stroke-linejoin:miter;stroke-opacity:1;stroke-miterlimit:4;stroke-dasharray:none"
       d="M 36.784358,37.203605 L 35.40187,46.045823 L 31.097384,46.045823 L 26.557021,43.303632 L 36.784358,37.203605 z"
       id="path22985"
       sodipodi:nodetypes="ccccc" />
    <path
       style="fill:none;fill-rule:evenodd;stroke:#eeeeec;stroke-width:1.3;stroke-linecap:butt;stroke-linejoin:miter;stroke-opacity:1;stroke-miterlimit:4;stroke-dasharray:none"
       d="M 45.817756,34.364479 L 45.912994,45.695299 L 37.827297,45.849112 L 39.34053,35.942863 L 45.817756,34.364479 z"
       id="path22987"
       sodipodi:nodetypes="ccccc" />
    <path
       style="fill:none;fill-rule:evenodd;stroke:#eeeeec;stroke-width:1.3;stroke-linecap:butt;stroke-linejoin:miter;stroke-opacity:1;stroke-miterlimit:4;stroke-dasharray:none"
       d="M 25.27748,6.9715883 L 27.048005,2.1500079 L 31.474317,2.0122483 L 31.133832,11.173251 L 25.27748,6.9715883 z"
       id="path22989"
       sodipodi:nodetypes="ccccc" />
    <path
       style="fill:none;fill-rule:evenodd;stroke:#f6f6f6;stroke-width:1.3;stroke-linecap:butt;stroke-linejoin:miter;stroke-opacity:1;stroke-miterlimit:4;stroke-dasharray:none"
       d="M 16.119815,16.161035 L 29.710918,24.121551 L 18.996238,28.02944 L 12.955748,26.292601 L 16.119815,16.161035 z"
       id="path22967"
       sodipodi:nodetypes="ccccc" />
    <path
       id="path23057"
       d="M 21.630061,35.999997 L 22.836047,30.171066 C 23.050991,29.128397 23.257572,27.981036 23.455789,26.728981 C 23.653985,25.476943 23.860565,24.145335 24.075532,22.734153 L 24.142532,22.734153 C 24.29257,24.180929 24.444714,25.533474 24.598964,26.791793 C 24.75319,28.050129 24.913708,29.176553 25.080521,30.171066 L 26.052009,35.999997 L 31.478946,35.999997 L 35.264401,13.421262 L 30.20596,13.421262 L 29.43547,21.595166 C 29.318204,22.889102 29.200955,24.170461 29.083723,25.439246 C 28.966458,26.708053 28.84921,28.039661 28.731978,29.434074 L 28.664979,29.434074 C 28.530266,28.001974 28.380914,26.645241 28.216921,25.363872 C 28.052897,24.082524 27.87842,22.82629 27.69349,21.595166 L 26.454005,13.421262 L 22.300053,13.421262 L 20.89307,21.595166 C 20.671824,22.893289 20.452681,24.183022 20.23564,25.46437 C 20.018583,26.745739 19.824565,28.068973 19.653584,29.434074 L 19.586585,29.434074 C 19.457465,28.060598 19.347196,26.720615 19.255777,25.414121 C 19.164344,24.107649 19.06245,22.834665 18.950093,21.595166 L 18.213101,13.421262 L 12.819665,13.421262 L 16.471122,35.999997 L 21.630061,35.999997 z"
       style="font-size:33.50003815px;font-style:normal;font-variant:normal;font-weight:900;font-stretch:normal;fill:none;fill-opacity:1;stroke:#ffffff;stroke-width:3;stroke-linecap:butt;stroke-linejoin:miter;stroke-miterlimit:4;stroke-dasharray:none;stroke-opacity:1;font-family:Myriad Pro Black Cond;-inkscape-font-specification:Myriad Pro Black Cond Heavy" />
    <path
       style="font-size:33.50003815px;font-style:normal;font-variant:normal;font-weight:900;font-stretch:normal;fill:#000000;fill-opacity:1;stroke:none;stroke-width:1px;stroke-linecap:butt;stroke-linejoin:miter;stroke-opacity:1;font-family:Myriad Pro Black Cond;-inkscape-font-specification:Myriad Pro Black Cond Heavy"
       d="M 21.630061,35.999997 L 22.836047,30.171066 C 23.050991,29.128397 23.257572,27.981036 23.455789,26.728981 C 23.653985,25.476943 23.860565,24.145335 24.075532,22.734153 L 24.142532,22.734153 C 24.29257,24.180929 24.444714,25.533474 24.598964,26.791793 C 24.75319,28.050129 24.913708,29.176553 25.080521,30.171066 L 26.052009,35.999997 L 31.478946,35.999997 L 35.264401,13.421262 L 30.20596,13.421262 L 29.43547,21.595166 C 29.318204,22.889102 29.200955,24.170461 29.083723,25.439246 C 28.966458,26.708053 28.84921,28.039661 28.731978,29.434074 L 28.664979,29.434074 C 28.530266,28.001974 28.380914,26.645241 28.216921,25.363872 C 28.052897,24.082524 27.87842,22.82629 27.69349,21.595166 L 26.454005,13.421262 L 22.300053,13.421262 L 20.89307,21.595166 C 20.671824,22.893289 20.452681,24.183022 20.23564,25.46437 C 20.018583,26.745739 19.824565,28.068973 19.653584,29.434074 L 19.586585,29.434074 C 19.457465,28.060598 19.347196,26.720615 19.255777,25.414121 C 19.164344,24.107649 19.06245,22.834665 18.950093,21.595166 L 18.213101,13.421262 L 12.819665,13.421262 L 16.471122,35.999997 L 21.630061,35.999997 z"
       id="text23029" />
  </g>
</svg>
