<?xml version="1.0" encoding="UTF-8" standalone="no"?>
<svg
   xmlns:dc="http://purl.org/dc/elements/1.1/"
   xmlns:cc="http://creativecommons.org/ns#"
   xmlns:rdf="http://www.w3.org/1999/02/22-rdf-syntax-ns#"
   xmlns:svg="http://www.w3.org/2000/svg"
   xmlns="http://www.w3.org/2000/svg"
   xmlns:xlink="http://www.w3.org/1999/xlink"
   xmlns:sodipodi="http://sodipodi.sourceforge.net/DTD/sodipodi-0.dtd"
   xmlns:inkscape="http://www.inkscape.org/namespaces/inkscape"
   viewBox="0 0 48 48"
   version="1.1"
   id="svg339"
   sodipodi:docname="hero.svg"
   inkscape:version="1.0.1 (3bc2e813f5, 2020-09-07)">
  <metadata
     id="metadata343">
    <rdf:RDF>
      <cc:Work
         rdf:about="">
        <dc:format>image/svg+xml</dc:format>
        <dc:type
           rdf:resource="http://purl.org/dc/dcmitype/StillImage" />
      </cc:Work>
    </rdf:RDF>
  </metadata>
  <sodipodi:namedview
     pagecolor="#ffffff"
     bordercolor="#666666"
     borderopacity="1"
     objecttolerance="10"
     gridtolerance="10"
     guidetolerance="10"
     inkscape:pageopacity="0"
     inkscape:pageshadow="2"
     inkscape:window-width="2560"
     inkscape:window-height="1377"
     id="namedview341"
     showgrid="false"
     inkscape:snap-global="false"
     inkscape:zoom="15.3125"
     inkscape:cx="24"
     inkscape:cy="24"
     inkscape:window-x="-8"
     inkscape:window-y="-8"
     inkscape:window-maximized="1"
     inkscape:current-layer="svg339" />
  <defs
     id="defs124">
    <style
       id="style2">.cls-1,.cls-12,.cls-15,.cls-21,.cls-25,.cls-31,.cls-38,.cls-39,.cls-41,.cls-49,.cls-54,.cls-7{fill:none;}.cls-2{fill:#d0d0d0;}.cls-3{fill:url(#radial-gradient);}.cls-4{fill:url(#linear-gradient);}.cls-5{fill:url(#linear-gradient-2);}.cls-6{fill:url(#linear-gradient-3);}.cls-7{stroke:#231f20;}.cls-12,.cls-21,.cls-25,.cls-38,.cls-39,.cls-42,.cls-49,.cls-54,.cls-7{stroke-linecap:round;}.cls-12,.cls-21,.cls-25,.cls-38,.cls-39,.cls-42,.cls-43,.cls-49,.cls-54,.cls-7{stroke-linejoin:round;}.cls-12,.cls-13,.cls-15,.cls-21,.cls-25,.cls-31,.cls-38,.cls-39,.cls-41,.cls-42,.cls-43,.cls-49,.cls-54,.cls-7{stroke-width:0.35px;}.cls-8{fill:url(#linear-gradient-4);}.cls-9{fill:url(#linear-gradient-5);}.cls-10{fill:url(#linear-gradient-6);}.cls-11{fill:url(#linear-gradient-7);}.cls-12{stroke:#ef2929;}.cls-13,.cls-42,.cls-43{fill:#ef2929;}.cls-13,.cls-15,.cls-42,.cls-43{stroke:#a40000;}.cls-13,.cls-15,.cls-31,.cls-41{stroke-miterlimit:10;}.cls-14{fill:url(#linear-gradient-8);}.cls-16{fill:url(#linear-gradient-9);}.cls-17{fill:url(#linear-gradient-10);}.cls-18{fill:url(#linear-gradient-11);}.cls-19{fill:url(#linear-gradient-12);}.cls-20{fill:url(#linear-gradient-13);}.cls-21{stroke:url(#linear-gradient-15);}.cls-22{fill:#204a87;}.cls-23{fill:url(#linear-gradient-16);}.cls-24{fill:#0c1e33;}.cls-25{stroke:#729fcf;}.cls-26{fill:url(#linear-gradient-17);}.cls-27{fill:#a40000;}.cls-28{fill:url(#linear-gradient-18);}.cls-29{fill:#729fcf;}.cls-30{fill:url(#linear-gradient-19);}.cls-31,.cls-39{stroke:#d0dfef;}.cls-32{fill:url(#linear-gradient-20);}.cls-33{fill:url(#linear-gradient-21);}.cls-34{fill:url(#linear-gradient-22);}.cls-35{fill:url(#linear-gradient-23);}.cls-36{fill:url(#linear-gradient-24);}.cls-37{fill:url(#linear-gradient-25);}.cls-38{stroke:#888a85;}.cls-40{fill:#fce94f;}.cls-41,.cls-54{stroke:#c4a000;}.cls-44{fill:url(#New_Gradient_Swatch_4);}.cls-45{fill:url(#linear-gradient-26);}.cls-46{fill:url(#linear-gradient-27);}.cls-47{clip-path:url(#clip-path);}.cls-48{opacity:0.65;fill:url(#linear-gradient-28);}.cls-49{stroke:url(#New_Gradient_Swatch_2);}.cls-50{fill:url(#New_Gradient_Swatch_4-2);}.cls-51{fill:url(#New_Gradient_Swatch_4-3);}.cls-52{fill:url(#linear-gradient-29);}.cls-53{fill:url(#linear-gradient-30);}.cls-55{fill:url(#linear-gradient-31);}.cls-56{fill:#c4a000;}.cls-57{fill:url(#linear-gradient-32);}.cls-58{fill:url(#linear-gradient-33);}.cls-59{fill:url(#linear-gradient-34);}.cls-60{fill:url(#linear-gradient-35);}.cls-61{fill:#888a85;}.cls-62{fill:url(#New_Gradient_Swatch_4-4);}.cls-63{fill:url(#linear-gradient-36);}.cls-64{fill:url(#linear-gradient-37);}.cls-65{fill:url(#linear-gradient-38);}.cls-66{fill:url(#linear-gradient-39);}.cls-67{fill:url(#New_Gradient_Swatch_4-5);}.cls-68{fill:url(#linear-gradient-40);}.cls-69{fill:url(#linear-gradient-41);}.cls-70{fill:url(#linear-gradient-42);}.cls-71{fill:url(#linear-gradient-43);}</style>
    <radialGradient
       id="radial-gradient"
       cx="-21.79"
       cy="40.95"
       r="20.08"
       gradientTransform="matrix(1.19,0,0,0.3,49.64,28.79)"
       gradientUnits="userSpaceOnUse">
      <stop
         offset="0.03"
         stop-color="#2c2c2c"
         stop-opacity="0.5"
         id="stop4" />
      <stop
         offset="0.68"
         stop-color="#2c2c2c"
         stop-opacity="0.1"
         id="stop6" />
      <stop
         offset="0.93"
         stop-color="#2c2c2c"
         stop-opacity="0"
         id="stop8" />
    </radialGradient>
    <linearGradient
       id="linear-gradient"
       x1="21.77"
       y1="13.89"
       x2="23.12"
       y2="10.84"
       gradientUnits="userSpaceOnUse">
      <stop
         offset="0"
         stop-color="#555753"
         id="stop11" />
      <stop
         offset="1"
         id="stop13" />
    </linearGradient>
    <linearGradient
       id="linear-gradient-2"
       x1="13.94"
       y1="8.72"
       x2="23.54"
       y2="8.72"
       xlink:href="#linear-gradient"
       gradientTransform="matrix(1.1376177,0,0,1.1377352,-2.4119229,-1.7502421)" />
    <linearGradient
       id="linear-gradient-3"
       x1="14.69"
       y1="9.78"
       x2="20.28"
       y2="9.78"
       gradientTransform="translate(4.07 -5.81) rotate(19.49)"
       gradientUnits="userSpaceOnUse">
      <stop
         offset="0"
         stop-color="#729fcf"
         id="stop17" />
      <stop
         offset="1"
         stop-color="#2e3436"
         stop-opacity="0"
         id="stop19" />
    </linearGradient>
    <linearGradient
       id="linear-gradient-4"
       x1="33"
       y1="28"
       x2="33.52"
       y2="20.57"
       gradientUnits="userSpaceOnUse">
      <stop
         offset="0"
         stop-color="#c00"
         id="stop22" />
      <stop
         offset="1"
         stop-color="#720000"
         id="stop24" />
    </linearGradient>
    <linearGradient
       id="linear-gradient-5"
       x1="34.46"
       y1="26.62"
       x2="31.68"
       y2="19.38"
       gradientUnits="userSpaceOnUse">
      <stop
         offset="0"
         stop-color="#a40000"
         id="stop27" />
      <stop
         offset="1"
         stop-color="#3e0000"
         id="stop29" />
    </linearGradient>
    <linearGradient
       id="linear-gradient-6"
       x1="26.46"
       y1="28.22"
       x2="28"
       y2="15.79"
       xlink:href="#linear-gradient-5"
       gradientTransform="matrix(0.9317663,0,0,1.1377352,2.3802493,-1.7502421)" />
    <linearGradient
       id="linear-gradient-7"
       x1="39.18"
       y1="24"
       x2="40.3"
       y2="20.36"
       xlink:href="#linear-gradient-5"
       gradientTransform="matrix(0.9317663,0,0,1.1377352,2.3802493,-1.7502421)" />
    <linearGradient
       id="linear-gradient-8"
       x1="34.78"
       y1="15.02"
       x2="35.21"
       y2="20.6"
       gradientUnits="userSpaceOnUse">
      <stop
         offset="0"
         stop-color="#ff7878"
         id="stop34" />
      <stop
         offset="1"
         stop-color="#ef2929"
         id="stop36" />
    </linearGradient>
    <linearGradient
       id="linear-gradient-9"
       x1="13.77"
       y1="31.44"
       x2="12.26"
       y2="17.93"
       xlink:href="#linear-gradient-4"
       gradientTransform="matrix(0.92863472,0,0,1.1377352,2.4531721,-1.7502421)" />
    <linearGradient
       id="linear-gradient-10"
       x1="17.85"
       y1="22.35"
       x2="10.47"
       y2="19.91"
       xlink:href="#linear-gradient-5"
       gradientTransform="matrix(0.9317663,0,0,1.1377352,2.3802493,-1.7502421)" />
    <linearGradient
       id="linear-gradient-11"
       x1="24.58"
       y1="27"
       x2="19.45"
       y2="17.23"
       xlink:href="#linear-gradient-5"
       gradientTransform="matrix(0.9317663,0,0,1.1377352,2.3802493,-1.7502421)" />
    <linearGradient
       id="linear-gradient-12"
       x1="11.78"
       y1="23.71"
       x2="6.41"
       y2="20.31"
       xlink:href="#linear-gradient-5"
       gradientTransform="matrix(0.9317663,0,0,1.1377352,2.3802493,-1.7502421)" />
    <linearGradient
       id="linear-gradient-13"
       x1="16.06"
       y1="14.31"
       x2="14.31"
       y2="16.64"
       xlink:href="#linear-gradient-8"
       gradientTransform="matrix(0.88126637,0,0,1.1377352,2.5973339,-1.7502421)" />
    <linearGradient
       id="linear-gradient-15"
       x1="9.68"
       y1="14.91"
       x2="19.72"
       y2="14.91"
       gradientUnits="userSpaceOnUse"
       gradientTransform="matrix(0.92863472,0,0,1.1377352,2.4531721,-1.7502421)">
      <stop
         offset="0"
         stop-color="#ef2929"
         id="stop44" />
      <stop
         offset="1"
         stop-color="#a40000"
         id="stop46" />
    </linearGradient>
    <linearGradient
       id="linear-gradient-16"
       x1="21.54"
       y1="23.82"
       x2="21.54"
       y2="30.59"
       gradientUnits="userSpaceOnUse">
      <stop
         offset="0"
         stop-color="#00255d"
         stop-opacity="0"
         id="stop49" />
      <stop
         offset="1"
         stop-color="#00255d"
         id="stop51" />
    </linearGradient>
    <linearGradient
       id="linear-gradient-17"
       x1="24.53"
       y1="23.82"
       x2="24.53"
       y2="30.59"
       xlink:href="#linear-gradient-16"
       gradientTransform="matrix(1.1376177,0,0,1.1377352,-2.4119229,-1.7502421)" />
    <linearGradient
       id="linear-gradient-18"
       x1="22.21"
       y1="20.48"
       x2="22.39"
       y2="21.97"
       xlink:href="#linear-gradient-4"
       gradientTransform="matrix(1.1376177,0,0,1.1377352,-2.4119229,-1.7502421)" />
    <linearGradient
       id="linear-gradient-19"
       x1="17.94"
       y1="15.84"
       x2="19.09"
       y2="16.28"
       xlink:href="#linear-gradient-16"
       gradientTransform="matrix(1.1376177,0,0,1.1377352,-2.4119229,-1.7502421)" />
    <linearGradient
       id="linear-gradient-20"
       x1="20.3"
       y1="9.99"
       x2="20.3"
       y2="10"
       gradientUnits="userSpaceOnUse">
      <stop
         offset="0"
         stop-color="#fff"
         id="stop57" />
      <stop
         offset="1"
         stop-color="#babdb6"
         id="stop59" />
    </linearGradient>
    <linearGradient
       id="linear-gradient-21"
       x1="25.92"
       y1="13.35"
       x2="25.92"
       y2="23.76"
       xlink:href="#linear-gradient-20"
       gradientTransform="matrix(1.1376177,0,0,1.1377352,-2.4119229,-1.7502421)" />
    <linearGradient
       id="linear-gradient-22"
       x1="29.73"
       y1="14.38"
       x2="26.02"
       y2="16.09"
       xlink:href="#linear-gradient-16"
       gradientTransform="matrix(1.1376177,0,0,1.1377352,-2.4119229,-1.7502421)" />
    <linearGradient
       id="linear-gradient-23"
       x1="19.42"
       y1="13.98"
       x2="26.42"
       y2="13.98"
       gradientUnits="userSpaceOnUse">
      <stop
         offset="0"
         stop-color="#d3d7cf"
         id="stop64" />
      <stop
         offset="1"
         stop-color="#babdb6"
         id="stop66" />
    </linearGradient>
    <linearGradient
       id="linear-gradient-24"
       x1="29.13"
       y1="18.05"
       x2="29.15"
       y2="16.89"
       xlink:href="#linear-gradient-23"
       gradientTransform="matrix(1.1376177,0,0,1.1377352,-2.4119229,-1.7502421)" />
    <linearGradient
       id="linear-gradient-25"
       x1="31.07"
       y1="19.83"
       x2="31.08"
       y2="19.38"
       gradientTransform="matrix(1.1373965,-0.02243721,0.02243489,1.1375139,-2.8555938,-1.067601)"
       xlink:href="#linear-gradient-23" />
    <linearGradient
       id="New_Gradient_Swatch_4"
       x1="22.88"
       y1="11.82"
       x2="22.88"
       y2="7.62"
       gradientUnits="userSpaceOnUse">
      <stop
         offset="0"
         stop-color="#b2cbe5"
         id="stop71" />
      <stop
         offset="1"
         stop-color="#3465a4"
         id="stop73" />
    </linearGradient>
    <linearGradient
       id="linear-gradient-26"
       x1="22.88"
       y1="11.05"
       x2="22.88"
       y2="5.79"
       xlink:href="#linear-gradient-16"
       gradientTransform="matrix(1.1376177,0,0,1.1377352,-2.4119229,-1.7502421)" />
    <linearGradient
       id="linear-gradient-27"
       x1="23.85"
       y1="10.21"
       x2="23.17"
       y2="7.93"
       xlink:href="#linear-gradient-16"
       gradientTransform="matrix(1.1376177,0,0,1.1377352,-2.4119229,-1.7502421)" />
    <clipPath
       id="clip-path">
      <path
         class="cls-1"
         d="M22.08,9.56a2.6,2.6,0,0,0-1.38,1.17c-.46.84.27,1.66,1,2.06,0,0,2.46-.74,3.3-1.89a1.06,1.06,0,0,0,.11-1.11,2.35,2.35,0,0,0-.63-.45,6.71,6.71,0,0,1-.29-1.6C24.07,6.67,24.08,6,24.08,6l-2,.39.08,1.55a5,5,0,0,1,.18,1.54Z"
         id="path78" />
    </clipPath>
    <linearGradient
       id="linear-gradient-28"
       x1="22.12"
       y1="11.63"
       x2="21.15"
       y2="14.08"
       gradientTransform="rotate(-5.4,21.720196,12.606697)"
       xlink:href="#linear-gradient-16" />
    <linearGradient
       id="New_Gradient_Swatch_2"
       x1="22.26"
       y1="10.18"
       x2="22.26"
       y2="7.63"
       gradientUnits="userSpaceOnUse"
       gradientTransform="matrix(1.1376177,0,0,1.1377352,-2.4119229,-1.7502421)">
      <stop
         offset="0"
         stop-color="#729fcf"
         id="stop82" />
      <stop
         offset="1"
         stop-color="#3465a4"
         id="stop84" />
    </linearGradient>
    <linearGradient
       id="New_Gradient_Swatch_4-2"
       x1="21.36"
       y1="7.23"
       x2="22.05"
       y2="7.23"
       xlink:href="#New_Gradient_Swatch_4"
       gradientTransform="matrix(1.1376177,0,0,1.1377352,-2.4119229,-1.7502421)" />
    <linearGradient
       id="New_Gradient_Swatch_4-3"
       x1="21.41"
       y1="6.72"
       x2="23.84"
       y2="6.72"
       xlink:href="#New_Gradient_Swatch_4"
       gradientTransform="matrix(1.1376177,0,0,1.1377352,-2.4119229,-1.7502421)" />
    <linearGradient
       id="linear-gradient-29"
       x1="20.91"
       y1="6.67"
       x2="26.09"
       y2="6.67"
       xlink:href="#linear-gradient"
       gradientTransform="matrix(1.1376177,0,0,1.1377352,-2.4119229,-1.7502421)" />
    <linearGradient
       id="linear-gradient-30"
       x1="23.36"
       y1="5.11"
       x2="23.36"
       y2="10.85"
       xlink:href="#linear-gradient-3"
       gradientTransform="matrix(1.1376177,0,0,1.1377352,-2.4119229,-1.7502421)" />
    <linearGradient
       id="linear-gradient-31"
       x1="22.52"
       y1="38.01"
       x2="25.36"
       y2="36.07"
       gradientUnits="userSpaceOnUse"
       gradientTransform="matrix(1.1376177,0,0,1.1377352,-2.4119229,-1.7502421)">
      <stop
         offset="0"
         stop-color="#fce94f"
         id="stop91" />
      <stop
         offset="1"
         stop-color="#c4a000"
         id="stop93" />
      <stop
         offset="1"
         stop-color="#babdb6"
         id="stop95" />
    </linearGradient>
    <linearGradient
       id="linear-gradient-32"
       x1="23.8"
       y1="34.89"
       x2="22.17"
       y2="35.91"
       gradientUnits="userSpaceOnUse">
      <stop
         offset="0"
         stop-color="#937703"
         id="stop98" />
      <stop
         offset="1"
         stop-color="#edd400"
         id="stop100" />
    </linearGradient>
    <linearGradient
       id="linear-gradient-33"
       x1="26.51"
       y1="38.68"
       x2="24.02"
       y2="40.61"
       xlink:href="#linear-gradient-32"
       gradientTransform="matrix(1.1376177,0,0,1.1377352,-2.4119229,-1.7502421)" />
    <linearGradient
       id="linear-gradient-34"
       x1="27.01"
       y1="36.41"
       x2="23.58"
       y2="33.04"
       gradientUnits="userSpaceOnUse">
      <stop
         offset="0"
         stop-color="#fff"
         stop-opacity="0"
         id="stop104" />
      <stop
         offset="1"
         stop-color="snow"
         id="stop106" />
    </linearGradient>
    <linearGradient
       id="linear-gradient-35"
       x1="26.26"
       y1="37.35"
       x2="22.06"
       y2="33.23"
       xlink:href="#linear-gradient-34"
       gradientTransform="matrix(1.1376177,0,0,1.1377352,-2.4119229,-1.7502421)" />
    <linearGradient
       id="New_Gradient_Swatch_4-4"
       x1="14.61"
       y1="20.74"
       x2="14.61"
       y2="25.36"
       xlink:href="#New_Gradient_Swatch_4"
       gradientTransform="matrix(1.1376177,0,0,1.1377352,-2.4119229,-1.7502421)" />
    <linearGradient
       id="linear-gradient-36"
       x1="13.22"
       y1="20.88"
       x2="16.17"
       y2="22.33"
       gradientUnits="userSpaceOnUse">
      <stop
         offset="0"
         stop-color="#d0dfef"
         id="stop111" />
      <stop
         offset="1"
         stop-color="#cdd8e8"
         stop-opacity="0"
         id="stop113" />
    </linearGradient>
    <linearGradient
       id="linear-gradient-37"
       x1="14.81"
       y1="19.93"
       x2="14.6"
       y2="19.3"
       xlink:href="#linear-gradient-34"
       gradientTransform="matrix(1.1376177,0,0,1.1377352,-2.4119229,-1.7502421)" />
    <linearGradient
       id="linear-gradient-38"
       x1="16.25"
       y1="18.18"
       x2="15.86"
       y2="17.71"
       xlink:href="#linear-gradient-34"
       gradientTransform="matrix(1.1376177,0,0,1.1377352,-2.4119229,-1.7502421)" />
    <linearGradient
       id="linear-gradient-39"
       x1="18.4"
       y1="16.11"
       x2="15.35"
       y2="19.59"
       xlink:href="#linear-gradient-32"
       gradientTransform="matrix(1.1376177,0,0,1.1377352,-2.4119229,-1.7502421)" />
    <linearGradient
       id="New_Gradient_Swatch_4-5"
       x1="12.45"
       y1="20.64"
       x2="12.45"
       y2="25.26"
       gradientTransform="matrix(-1.1262415,-0.12515087,-0.12513795,1.1263578,50.19152,0.14977568)"
       xlink:href="#New_Gradient_Swatch_4" />
    <linearGradient
       id="linear-gradient-40"
       x1="11.07"
       y1="20.78"
       x2="14.02"
       y2="22.23"
       gradientTransform="matrix(-1.1262415,-0.12515087,-0.12513795,1.1263578,50.19152,0.14977568)"
       xlink:href="#linear-gradient-36" />
    <linearGradient
       id="linear-gradient-41"
       x1="12.66"
       y1="19.83"
       x2="12.45"
       y2="19.2"
       gradientTransform="matrix(-1.1262415,-0.12515087,-0.12513795,1.1263578,50.19152,0.14977568)"
       xlink:href="#linear-gradient-34" />
    <linearGradient
       id="linear-gradient-42"
       x1="14.1"
       y1="18.08"
       x2="13.71"
       y2="17.61"
       gradientTransform="matrix(-1.1262415,-0.12515087,-0.12513795,1.1263578,50.19152,0.14977568)"
       xlink:href="#linear-gradient-34" />
    <linearGradient
       id="linear-gradient-43"
       x1="16.24"
       y1="16.01"
       x2="13.2"
       y2="19.49"
       gradientTransform="matrix(-1.1262415,-0.12515087,-0.12513795,1.1263578,50.19152,0.14977568)"
       xlink:href="#linear-gradient-32" />
    <linearGradient
       inkscape:collect="always"
       xlink:href="#linear-gradient"
       id="linearGradient1168"
       gradientUnits="userSpaceOnUse"
       x1="21.77"
       y1="13.89"
       x2="23.12"
       y2="10.84"
       gradientTransform="matrix(1.1376177,0,0,1.1377352,-2.4119229,-1.7502421)" />
    <linearGradient
       inkscape:collect="always"
       xlink:href="#linear-gradient-3"
       id="linearGradient1170"
       gradientUnits="userSpaceOnUse"
       gradientTransform="matrix(1.0724319,0.37959663,-0.37955742,1.0725427,2.2181811,-8.3604836)"
       x1="14.69"
       y1="9.78"
       x2="20.28"
       y2="9.78" />
    <linearGradient
       inkscape:collect="always"
       xlink:href="#linear-gradient-4"
       id="linearGradient1172"
       gradientUnits="userSpaceOnUse"
       x1="33"
       y1="28"
       x2="33.52"
       y2="20.57"
       gradientTransform="matrix(0.92863472,0,0,1.1377352,2.4531721,-1.7502421)" />
    <linearGradient
       inkscape:collect="always"
       xlink:href="#linear-gradient-5"
       id="linearGradient1174"
       gradientUnits="userSpaceOnUse"
       x1="34.46"
       y1="26.62"
       x2="31.68"
       y2="19.38"
       gradientTransform="matrix(0.9317663,0,0,1.1377352,2.3802493,-1.7502421)" />
    <linearGradient
       inkscape:collect="always"
       xlink:href="#linear-gradient-8"
       id="linearGradient1176"
       gradientUnits="userSpaceOnUse"
       x1="34.78"
       y1="15.02"
       x2="35.21"
       y2="20.6"
       gradientTransform="matrix(0.92863472,0,0,1.1377352,2.4531721,-1.7502421)" />
    <linearGradient
       inkscape:collect="always"
       xlink:href="#linear-gradient-8"
       id="linearGradient1178"
       x1="16.06"
       y1="14.31"
       x2="14.31"
       y2="16.64"
       gradientTransform="matrix(0.94198115,0,0,1.1377352,1.410931,-1.7502421)" />
    <linearGradient
       inkscape:collect="always"
       xlink:href="#linear-gradient-16"
       id="linearGradient1180"
       gradientUnits="userSpaceOnUse"
       x1="21.54"
       y1="23.82"
       x2="21.54"
       y2="30.59"
       gradientTransform="matrix(1.1376177,0,0,1.1377352,-2.4119229,-1.7502421)" />
    <linearGradient
       inkscape:collect="always"
       xlink:href="#linear-gradient-20"
       id="linearGradient1182"
       gradientUnits="userSpaceOnUse"
       x1="20.3"
       y1="9.99"
       x2="20.3"
       y2="10"
       gradientTransform="matrix(1.1376177,0,0,1.1377352,-2.4119229,-1.7502421)" />
    <linearGradient
       inkscape:collect="always"
       xlink:href="#linear-gradient-23"
       id="linearGradient1184"
       gradientUnits="userSpaceOnUse"
       x1="19.42"
       y1="13.98"
       x2="26.42"
       y2="13.98"
       gradientTransform="matrix(1.1376177,0,0,1.1377352,-2.4119229,-1.7502421)" />
    <linearGradient
       inkscape:collect="always"
       xlink:href="#New_Gradient_Swatch_4"
       id="linearGradient1186"
       gradientUnits="userSpaceOnUse"
       x1="22.88"
       y1="11.82"
       x2="22.88"
       y2="7.62"
       gradientTransform="matrix(1.1376177,0,0,1.1377352,-2.4119229,-1.7502421)" />
    <linearGradient
       inkscape:collect="always"
       xlink:href="#linear-gradient-32"
       id="linearGradient1188"
       gradientUnits="userSpaceOnUse"
       x1="23.8"
       y1="34.89"
       x2="22.17"
       y2="35.91"
       gradientTransform="matrix(1.1376177,0,0,1.1377352,-2.4119229,-1.7502421)" />
    <linearGradient
       inkscape:collect="always"
       xlink:href="#linear-gradient-34"
       id="linearGradient1190"
       gradientUnits="userSpaceOnUse"
       x1="27.01"
       y1="36.41"
       x2="23.58"
       y2="33.04"
       gradientTransform="matrix(1.1376177,0,0,1.1377352,-2.4119229,-1.7502421)" />
    <linearGradient
       inkscape:collect="always"
       xlink:href="#linear-gradient-36"
       id="linearGradient1192"
       gradientUnits="userSpaceOnUse"
       x1="13.22"
       y1="20.88"
       x2="16.17"
       y2="22.33"
       gradientTransform="matrix(1.1376177,0,0,1.1377352,-2.4119229,-1.7502421)" />
  </defs>
  <title
     id="title126">17-Superhero</title>
  <g
     id="shadow"
     transform="matrix(0.66890251,0,0,0.71753408,10.688284,14.650491)"
     style="stroke-width:1.44343">
    <ellipse
       class="cls-3"
       cx="23.799999"
       cy="41"
       rx="22.879999"
       ry="5.7800002"
       id="ellipse131"
       style="fill:url(#radial-gradient);stroke-width:1.44343" />
  </g>
  <g
     id="g1397"
     transform="matrix(1.063611,0,0,1.0635574,-0.35541306,-2.8680563)"
     style="stroke-width:0.940217">
    <rect
       class="cls-4"
       x="24.344847"
       y="6.7827721"
       width="1.3537651"
       height="2.4575081"
       id="rect134"
       style="fill:url(#linearGradient1168);stroke-width:0.940217" />
    <path
       class="cls-5"
       d="m 17.541892,11.492996 a 7.2238724,7.2246185 0 0 0 2.08184,0.489226 4.4594614,4.459922 0 0 0 2.115969,-1.137735 13.651412,13.652822 0 0 0 1.865693,-1.9455276 3.9134049,3.9138091 0 0 0 0.739451,-2.6850551 1.8088121,1.808999 0 0 0 -0.944222,-1.5359425 2.0477119,2.0479234 0 0 0 -0.784957,-0.3299432 0.85321328,0.8533014 0 0 0 -0.762203,0.3640752 1.7519313,1.7521122 0 0 0 -0.170643,0.807792 2.0818404,2.0820554 0 0 1 -1.513032,1.8317537 4.9600132,4.9605255 0 0 1 -1.422022,0 4.5504708,4.5509408 0 0 0 -1.513031,0.068264 1.7178027,1.7179802 0 0 0 -1.205875,0.9670749 c -0.182019,0.4778488 -0.07963,1.0467164 -0.341285,1.4676784 a 0.96697504,0.96707492 0 0 1 -1.672298,-0.9670749 1.9567024,1.9569045 0 0 0 -0.500552,1.6497161 1.7860598,1.7862443 0 0 0 1.558536,1.205999 3.7313861,3.7317715 0 0 0 1.444775,-0.261679 2.2069783,2.2072063 0 0 1 1.023856,0.01138 z"
       id="path136"
       style="fill:url(#linear-gradient-2);stroke-width:0.940217" />
    <path
       class="cls-6"
       d="M 21.330158,6.7941493 A 1.3310127,1.3311502 0 0 1 21.14814,7.1013378 c -0.614314,0.7736599 -2.468631,0.8533014 -3.355973,0.8533014 -0.887341,0 -1.137617,0.9329428 -1.137617,1.6610933 A 1.7633074,1.7634896 0 0 1 14.686471,11.242694 C 13.810506,11.094788 13.548853,10.776222 13.389587,10.332506 A 2.1273451,2.1275648 0 0 1 13.969772,8.9103367 0.96697504,0.96707492 0 0 0 15.630694,9.888789 C 15.892346,9.4450723 15.78996,8.887582 15.960603,8.4097332 a 1.7860598,1.7862443 0 0 1 1.217251,-0.9670749 4.2319378,4.2323749 0 0 1 1.569912,-0.091019 5.4150603,5.4156196 0 0 0 1.422022,0 2.4913828,2.4916401 0 0 0 1.16037,-0.55749 z"
       id="path138"
       style="fill:url(#linearGradient1170);stroke-width:0.940217" />
    <path
       class="cls-7"
       d="m 17.541892,11.492996 a 7.2238724,7.2246185 0 0 0 2.08184,0.489226 4.4594614,4.459922 0 0 0 2.115969,-1.137735 13.651412,13.652822 0 0 0 1.865693,-1.9455276 3.9134049,3.9138091 0 0 0 0.739451,-2.6850551 1.8088121,1.808999 0 0 0 -0.944222,-1.5359425 2.0477119,2.0479234 0 0 0 -0.784957,-0.3299432 0.85321328,0.8533014 0 0 0 -0.762203,0.3640752 1.7519313,1.7521122 0 0 0 -0.170643,0.807792 2.0818404,2.0820554 0 0 1 -1.513032,1.8317537 4.9600132,4.9605255 0 0 1 -1.422022,0 4.5504708,4.5509408 0 0 0 -1.513031,0.068264 1.7178027,1.7179802 0 0 0 -1.205875,0.9670749 c -0.182019,0.4778488 -0.07963,1.0467164 -0.341285,1.4676784 a 0.96697504,0.96707492 0 0 1 -1.672298,-0.9670749 1.9567024,1.9569045 0 0 0 -0.500552,1.6497161 1.7860598,1.7862443 0 0 0 1.558536,1.205999 3.7313861,3.7317715 0 0 0 1.444775,-0.261679 2.2069783,2.2072063 0 0 1 1.023856,0.01138 z"
       id="path140" />
    <path
       class="cls-8"
       d="m 42.059443,22.438008 a 5.6275265,6.8946753 0 0 1 1.411525,5.483884 3.6216754,4.4371673 0 0 0 -1.857269,-3.140149 4.3738696,5.3587328 0 0 0 -5.348936,1.023961 c -1.727261,2.173075 -3.073782,3.902432 -5.432514,2.75332 -2.358732,-1.149113 -4.085993,-1.012585 -4.968196,0.273056 0,0 -2.154432,-8.328222 -2.368018,-9.477334 -0.213586,-1.149113 2.590891,-4.767111 2.590891,-4.767111 l 1.736547,-2.013791 c 0,0 2.210151,6.826411 4.085993,7.509052 a 23.215868,28.44338 0 0 1 2.59089,1.035339 c 0,0 4.85676,-2.320979 7.559087,1.319773 z"
       id="path142"
       style="fill:url(#linearGradient1172);stroke-width:0.940217" />
    <path
       class="cls-9"
       d="m 32.867642,28.854835 c 0.689507,-2.15032 0.223624,-6.462336 -1.500143,-8.453373 -1.910121,-2.195829 3.354358,0.716773 4.14636,6.371317 a 5.5905978,6.8264112 0 0 1 -2.646217,2.082056 z"
       id="path144"
       style="fill:url(#linearGradient1174);stroke-width:0.940217" />
    <path
       class="cls-10"
       d="m 32.737196,20.378708 c -1.863533,0.773659 -3.922737,1.911395 -4.435208,3.310809 a 8.3113555,10.148598 0 0 0 -0.354071,4.141356 2.683487,3.2766774 0 0 0 -2.087157,1.058094 c 0,0 -2.161698,-8.328222 -2.366686,-9.477334 -0.204989,-1.149113 2.59031,-4.767111 2.59031,-4.767111 l 1.733085,-2.013791 c 0,0 2.217604,6.826411 4.109089,7.497675 0.270213,0.05689 0.577696,0.147905 0.810638,0.250302 z"
       id="path146"
       style="fill:url(#linear-gradient-6);stroke-width:0.940217" />
    <path
       class="cls-11"
       d="m 43.536367,27.921892 a 3.6338885,4.4371673 0 0 0 -1.863532,-3.140149 5.6837745,6.9401847 0 0 0 -1.863533,-0.659887 c -0.428613,-3.595243 -3.205277,-3.276677 -5.040856,-3.117394 1.062214,-0.409585 5.003585,-1.683848 7.342319,1.444924 a 5.5905978,6.8264112 0 0 1 1.425602,5.472506 z"
       id="path148"
       style="fill:url(#linear-gradient-7);stroke-width:0.940217" />
    <path
       class="cls-12"
       d="m 42.120082,22.438008 a 5.6465038,6.8946753 0 0 1 1.416285,5.483884 3.6338885,4.4371673 0 0 0 -1.863532,-3.140149 4.3886193,5.3587328 0 0 0 -5.366974,1.023961 c -1.733086,2.173075 -3.084147,3.902432 -5.450834,2.75332 -2.366686,-1.149113 -4.099771,-1.012585 -4.984949,0.273056 0,0 -2.161698,-8.328222 -2.376004,-9.477334 -0.214307,-1.149113 2.599628,-4.767111 2.599628,-4.767111 l 1.742403,-2.013791 c 0,0 2.217604,6.826411 4.099772,7.509052 a 23.294158,28.44338 0 0 1 2.599627,1.035339 c 0,0 4.873138,-2.320979 7.584578,1.319773 z"
       id="path150" />
    <path
       class="cls-13"
       d="m 28.590973,12.573844 c 0.09743,2.423376 -0.115149,6.906053 1.771527,8.658165 1.886675,1.752112 4.96913,0.978452 6.040904,0.284434 a 4.8628395,6.2461662 0 0 1 5.748602,0.921565 c 0,0 -1.124918,-2.411998 -4.756548,-2.400621 -3.631628,0.01138 -4.9337,-0.841924 -6.049762,-2.218584 -1.116061,-1.376659 -2.444706,-5.3246 -2.444706,-5.3246 z"
       id="path152" />
    <path
       class="cls-14"
       d="m 27.814186,12.573844 c 0.10215,2.423376 -0.120722,6.906053 1.85727,8.658165 1.977992,1.752112 5.20964,0.978452 6.333289,0.284434 a 5.0982047,6.2461662 0 0 1 6.026839,0.921565 c 0,0 -1.179366,-2.411998 -4.986769,-2.400621 -3.807402,0.01138 -5.172495,-0.841924 -6.342574,-2.218584 -1.170081,-1.376659 -2.563032,-5.3246 -2.563032,-5.3246 z"
       id="path154"
       style="fill:url(#linearGradient1176);stroke-width:0.940217" />
    <path
       class="cls-15"
       d="m 27.826787,12.573844 c 0.102494,2.423376 -0.12113,6.906053 1.863533,8.658165 1.984662,1.752112 5.227208,0.978452 6.354646,0.284434 a 5.115397,6.2461662 0 0 1 6.047163,0.921565 c 0,0 -1.183343,-2.411998 -5.003585,-2.400621 -3.820242,0.01138 -5.189938,-0.841924 -6.363963,-2.218584 -1.174027,-1.376659 -2.571676,-5.3246 -2.571676,-5.3246 z"
       id="path156" />
    <path
       class="cls-16"
       d="m 4.7561862,29.173401 c 0,0.06826 0.1671542,0.398207 0.1671542,0.398207 -0.3250221,-1.422169 2.2751551,-3.572489 4.4203013,-2.10481 1.7736923,1.217376 3.3523713,1.069471 4.3367243,-0.295811 0.984353,-1.365283 3.194503,-1.137736 4.893905,1.035339 1.699402,2.173074 3.296653,2.480262 4.643174,1.831753 1.34652,-0.648509 0.640757,-8.771938 0.705762,-10.091711 0.065,-1.319773 -0.30645,-6.234789 -0.76148,-6.564732 -0.455032,-0.329943 -2.312301,-2.036546 -2.312301,-2.036546 l -2.265868,3.538357 a 9.546365,11.695918 0 0 1 -2.7209,2.343734 11.013608,13.493539 0 0 1 -2.108001,0.864679 h -0.08358 c -1.968706,0.580245 -4.2252885,1.046716 -6.3147166,3.026375 a 6.5004431,7.9641464 0 0 0 -2.6001772,8.055166 z"
       id="path158"
       style="fill:url(#linear-gradient-9);stroke-width:0.940217" />
    <path
       class="cls-17"
       d="m 16.738768,26.693138 a 2.683487,3.2766774 0 0 0 -3.093464,0.466471 2.599628,3.1742812 0 0 1 -1.099484,0.921566 c 0.363388,-0.159283 0.428612,-2.138942 0.428612,-2.514395 a 8.2740846,10.103089 0 0 1 2.86984,-7.725222 6.5223641,7.9641464 0 0 1 2.059204,-1.638339 1.8635326,2.2754704 0 0 1 -0.288848,1.137736 14.908261,18.203763 0 0 1 -1.257884,2.082055 4.8638201,5.9389777 0 0 0 0.382024,7.270128 z"
       id="path160"
       style="fill:url(#linear-gradient-10);stroke-width:0.940217" />
    <path
       class="cls-18"
       d="m 23.186591,30.038079 a 3.1586878,3.8569223 0 0 1 -1.95671,0.182038 26.257175,32.061378 0 0 0 -1.686497,-6.291676 10.650089,13.004313 0 0 1 -1.267202,-5.859336 9.7183228,11.866578 0 0 1 0.931767,-4.175488 11.907973,14.540256 0 0 1 1.639908,-2.53715 c 0,0 1.863533,1.695226 2.329416,2.025169 0.465883,0.329943 0.819955,5.244959 0.754731,6.57611 -0.06522,1.33115 0.568377,9.431824 -0.745413,10.080333 z"
       id="path162"
       style="fill:url(#linear-gradient-11);stroke-width:0.940217" />
    <path
       class="cls-19"
       d="m 16.533779,16.772087 a 0.5031538,0.61437701 0 0 1 -0.06522,0.147906 2.5903103,3.1629039 0 0 1 -1.183343,1.001207 c -2.264192,1.228754 -5.6837744,1.308395 -6.4478227,4.869506 A 5.0222204,6.1323927 0 0 0 9.340546,27.50093 v 0 c -2.1616977,-1.467679 -4.7613257,0.682641 -4.4352075,2.093433 0,0 -0.1490826,-0.318566 -0.167718,-0.38683 a 6.5223641,7.9641464 0 0 1 2.5809902,-7.964147 c 2.0498859,-2.082055 4.3233953,-2.514395 6.2987403,-3.117394 h 0.07454 A 11.488678,14.028275 0 0 0 15.807,17.27269 Z"
       id="path164"
       style="fill:url(#linear-gradient-12);stroke-width:0.940217" />
    <path
       class="cls-12"
       d="m 4.6910298,29.173401 c 0,0.06826 0.1677179,0.398207 0.1677179,0.398207 -0.3261182,-1.422169 2.2828274,-3.572489 4.4352076,-2.10481 1.7796737,1.217376 3.3636757,1.069471 4.3513487,-0.295811 0.987672,-1.365283 3.205276,-1.137736 4.910408,1.035339 1.705133,2.173074 3.307771,2.480262 4.658832,1.831753 1.351061,-0.648509 0.642918,-8.771938 0.708142,-10.091711 0.06522,-1.319773 -0.307483,-6.234789 -0.764048,-6.564732 C 22.702072,13.051693 20.83854,11.34509 20.83854,11.34509 l -2.27351,3.538357 a 9.5785576,11.695918 0 0 1 -2.730075,2.343734 11.050748,13.493539 0 0 1 -2.115109,0.864679 h -0.08386 c -1.975344,0.580245 -4.2395364,1.046716 -6.3360106,3.026375 a 6.5223641,7.9641464 0 0 0 -2.6089456,8.055166 z"
       id="path166" />
    <path
       class="cls-20"
       d="m 18.818743,16.078068 c -1.281095,2.161697 -6.725746,2.275471 -8.119878,2.650923 0.715906,-0.238924 1.412972,-0.398207 2.072359,-0.602999 h 0.07536 a 11.614627,14.028275 0 0 0 2.138297,-0.853302 9.9096415,11.968974 0 0 0 2.760005,-2.355111 l 2.062939,-3.174282 a 5.7837643,6.9856941 0 0 1 -0.989081,4.334771 z"
       id="path168"
       style="fill:url(#linearGradient1178);stroke-width:0.940217" />
    <path
       class="cls-15"
       d="m 19.888219,16.078068 c -1.333921,2.161697 -7.003088,2.275471 -8.454709,2.650923 0.745427,-0.238924 1.471237,-0.398207 2.157815,-0.602999 h 0.07847 a 12.093569,14.028275 0 0 0 2.226472,-0.853302 10.318276,11.968974 0 0 0 2.873816,-2.355111 l 2.148007,-3.174282 a 6.0222639,6.9856941 0 0 1 -1.029867,4.334771 z"
       id="path172" />
    <path
       class="cls-21"
       d="m 19.614342,16.078068 c -1.262944,2.161697 -6.630452,2.275471 -8.004832,2.650923 0.352882,-0.12515 0.715049,-0.216169 1.06793,-0.318565 l 1.049358,-0.318566 a 11.450066,14.028275 0 0 0 2.108,-0.853302 9.7692371,11.968974 0 0 0 2.7209,-2.355111 l 2.03371,-3.174282 a 5.7018172,6.9856941 0 0 1 -0.975066,4.368903 z"
       id="path174"
       style="stroke:url(#linear-gradient-15)" />
    <path
       class="cls-22"
       d="m 22.274381,31.574022 c 0,-0.364075 -0.29578,-0.55749 -0.489175,-1.012584 a 7.4627721,7.4635429 0 0 1 -0.216148,-1.535943 c -0.204771,-1.342527 -1.137617,-3.356319 -1.490279,-5.415619 a 7.0759821,7.0767129 0 0 1 0.170643,-3.538357 c 0.887341,0.307189 1.535784,1.54732 1.922574,2.10481 a 2.889549,2.8898474 0 0 0 0.966975,0.819169 4.6756087,4.6760917 0 0 0 0,0.739528 32.990913,32.994321 0 0 0 0.796332,5.188073 6.3251544,6.3258077 0 0 1 0,1.467678 4.0612952,4.0617147 0 0 0 0.341285,1.137735 c 0,0.182038 0,0.614378 0,1.069472 a 0.3981662,0.39820732 0 0 1 -0.238899,-0.136529 0.1478903,0.14790558 0 0 1 0.07963,-0.09102 9.1009416,9.1018816 0 0 1 -1.729179,-0.125151 c 0,-0.09102 0,-0.204793 0,-0.329944 a 1.2058748,1.2059993 0 0 0 -0.113762,-0.34132 z"
       id="path176"
       style="stroke-width:0.940217" />
    <path
       class="cls-23"
       d="m 22.274381,31.574022 c 0,-0.364075 -0.29578,-0.55749 -0.489175,-1.012584 a 7.4627721,7.4635429 0 0 1 -0.216148,-1.535943 c -0.204771,-1.342527 -1.137617,-3.356319 -1.490279,-5.415619 a 7.0759821,7.0767129 0 0 1 0.170643,-3.538357 c 0.887341,0.307189 1.535784,1.54732 1.922574,2.10481 a 2.889549,2.8898474 0 0 0 0.966975,0.819169 4.6756087,4.6760917 0 0 0 0,0.739528 32.990913,32.994321 0 0 0 0.796332,5.188073 6.3251544,6.3258077 0 0 1 0,1.467678 4.0612952,4.0617147 0 0 0 0.341285,1.137735 c 0,0.182038 0,0.614378 0,1.069472 a 0.3981662,0.39820732 0 0 1 -0.238899,-0.136529 0.1478903,0.14790558 0 0 1 0.07963,-0.09102 9.1009416,9.1018816 0 0 1 -1.729179,-0.125151 c 0,-0.09102 0,-0.204793 0,-0.329944 a 1.2058748,1.2059993 0 0 0 -0.113762,-0.34132 z"
       id="path178"
       style="fill:url(#linearGradient1180);stroke-width:0.940217" />
    <path
       class="cls-24"
       d="m 24.378974,32.575229 a 0.3981662,0.39820732 0 0 1 -0.2389,-0.136528 c 0,0 0,-0.06826 0.07963,-0.102397 h -0.784956 c -0.136514,-1.592829 -0.38679,-1.638338 -0.409542,-1.638338 a 5.6880885,5.688676 0 0 0 -0.273028,-1.251509 c -0.204772,-0.546113 -0.614314,-2.685055 -1.137618,-4.76711 a 9.2488319,9.2497872 0 0 1 -0.250276,-3.583866 l 0.2389,-0.06826 c 0.341285,0.420962 0.602937,0.887433 0.807708,1.137735 a 2.7530348,2.7533192 0 0 0 0.955599,0.830546 6.5868065,6.5874868 0 0 0 0,0.739528 33.889631,33.893132 0 0 0 0.796333,5.188073 5.7563456,5.7569401 0 0 1 0,1.467678 3.8451478,3.845545 0 0 0 0.341285,1.137735 c -0.06826,0.159283 -0.125138,0.591623 -0.125138,1.046717 z"
       id="path180"
       style="stroke-width:0.940217" />
    <path
       class="cls-25"
       d="m 20.886488,18.330784 a 4.1067999,4.1072241 0 0 1 -0.4778,1.410792 c 0,0.07964 -0.09101,0.193415 -0.159266,0.329943 a 7.0759821,7.0767129 0 0 0 -0.170643,3.538357 c 0.352662,2.0593 1.285508,4.073092 1.490279,5.415619 a 7.4627721,7.4635429 0 0 0 0.216148,1.535943 c 0.193395,0.455094 0.455047,0.648509 0.489175,1.012584 a 1.2058748,1.2059993 0 0 1 0,0.318566 c 0,0.125151 0,0.238924 0,0.329943"
       id="path182" />
    <path
       class="cls-22"
       d="m 23.889798,28.968608 a 32.990913,32.994321 0 0 1 -0.796332,-5.188072 4.6756087,4.6760917 0 0 1 0,-0.739528 3.2422104,3.2425453 0 0 1 0.352661,-1.137735 4.9258846,4.9263934 0 0 1 3.253587,-1.900018 c 0.159267,0.17066 0.307157,0.329943 0.409542,0.466471 a 2.7530348,2.7533192 0 0 1 0.7167,2.207207 c 0,0.51198 -0.182019,0.648509 -0.295781,1.524565 a 29.987603,29.9907 0 0 1 -0.273028,3.162904 14.572883,14.574388 0 0 0 -0.38679,3.470092 9.4763554,9.4773342 0 0 0 0.341285,1.251509 c 0,0.113773 0,0.216169 0.07963,0.318566 l -0.125138,-0.02276 a 8.1225904,8.1234293 0 0 1 -2.741658,0.204792 H 24.15145 c 0,-0.455094 0.06826,-0.887433 0,-1.069471 a 4.0612952,4.0617147 0 0 1 -0.341285,-1.137735 6.3251544,6.3258077 0 0 0 0.07963,-1.410792 z"
       id="path184"
       style="stroke-width:0.940217" />
    <path
       class="cls-26"
       d="m 23.889798,28.968608 a 32.990913,32.994321 0 0 1 -0.796332,-5.188072 4.6756087,4.6760917 0 0 1 0,-0.739528 3.2422104,3.2425453 0 0 1 0.352661,-1.137735 4.9258846,4.9263934 0 0 1 3.253587,-1.900018 c 0.159267,0.17066 0.307157,0.329943 0.409542,0.466471 a 2.7530348,2.7533192 0 0 1 0.7167,2.207207 c 0,0.51198 -0.182019,0.648509 -0.295781,1.524565 a 29.987603,29.9907 0 0 1 -0.273028,3.162904 14.572883,14.574388 0 0 0 -0.38679,3.470092 9.4763554,9.4773342 0 0 0 0.341285,1.251509 c 0,0.113773 0,0.216169 0.07963,0.318566 l -0.125138,-0.02276 a 8.1225904,8.1234293 0 0 1 -2.741658,0.204792 H 24.15145 c 0,-0.455094 0.06826,-0.887433 0,-1.069471 a 4.0612952,4.0617147 0 0 1 -0.341285,-1.137735 6.3251544,6.3258077 0 0 0 0.07963,-1.410792 z"
       id="path186"
       style="fill:url(#linear-gradient-17);stroke-width:0.940217" />
    <path
       class="cls-24"
       d="m 25.948886,19.9805 a 3.2422104,3.2425453 0 0 1 1.069361,2.161697 23.275658,23.278062 0 0 1 -0.409542,4.937771 16.370319,16.37201 0 0 0 -0.38679,3.504224 15.619491,15.621104 0 0 0 0.523304,2.571282 H 25.93751 a 8.8279134,8.8288252 0 0 1 -0.796332,-3.276678 c 0.05688,-1.456301 0.489175,-5.449751 0.557432,-6.906052 a 2.9919346,2.9922436 0 0 0 -0.92147,-2.275471"
       id="path188"
       style="stroke-width:0.940217" />
    <path
       class="cls-25"
       d="m 24.196955,32.575229 c 0,-0.455094 0.06826,-0.887434 0,-1.069471 a 4.0612952,4.0617147 0 0 1 -0.341285,-1.137735 6.3251544,6.3258077 0 0 0 0,-1.467679 32.990913,32.994321 0 0 1 -0.796333,-5.188072 4.6756087,4.6760917 0 0 1 0,-0.739528 3.2422104,3.2425453 0 0 1 0.352662,-1.137735 4.9258846,4.9263934 0 0 1 3.253587,-1.900018"
       id="path190" />
    <path
       class="cls-25"
       d="m 25.835125,18.330784 a 5.1989129,5.1994499 0 0 0 0.910094,1.649716 c 0.159266,0.17066 0.307157,0.329943 0.409542,0.466472 a 2.7530348,2.7533192 0 0 1 0.716699,2.207206 c 0,0.511981 -0.182019,0.648509 -0.29578,1.524565 a 29.987603,29.9907 0 0 1 -0.273029,3.162904 14.572883,14.574388 0 0 0 -0.38679,3.470092 9.4763554,9.4773342 0 0 0 0.341286,1.251509 c 0,0.113774 0,0.21617 0.07963,0.318566 v 0"
       id="path192" />
    <path
       class="cls-13"
       d="m 22.171996,22.142197 c -0.38679,-0.55749 -1.035233,-1.797622 -1.922574,-2.10481 0.06826,-0.136528 0.113761,-0.250302 0.159266,-0.329943 a 4.1067999,4.1072241 0 0 0 0.4778,-1.410792 h 4.948637 a 5.1989129,5.1994499 0 0 0 0.910094,1.649716 4.9258846,4.9263934 0 0 0 -3.253587,1.900018 3.2422104,3.2425453 0 0 0 -0.352661,1.137735 2.889549,2.8898474 0 0 1 -0.966975,-0.841924 z"
       id="path194" />
    <path
       class="cls-27"
       d="m 24.322093,18.319407 a 4.0840475,4.0844694 0 0 1 0.204771,2.434753 L 25.948886,19.9805 25.40283,18.319407"
       id="path196"
       style="stroke-width:0.940217" />
    <path
       class="cls-28"
       d="m 23.138971,22.995498 a 3.151201,3.1515265 0 0 1 -1.467527,-1.581451 2.2752354,2.2754704 0 0 0 2.275235,-0.07964"
       id="path198"
       style="fill:url(#linear-gradient-18);stroke-width:0.940217" />
    <path
       class="cls-15"
       d="m 22.171996,22.142197 c -0.38679,-0.55749 -1.035233,-1.797622 -1.922574,-2.10481 0.06826,-0.136528 0.113761,-0.250302 0.159266,-0.329943 a 4.1067999,4.1072241 0 0 0 0.4778,-1.410792 h 4.948637 a 5.1989129,5.1994499 0 0 0 0.910094,1.649716 4.9258846,4.9263934 0 0 0 -3.253587,1.900018 3.2422104,3.2425453 0 0 0 -0.352661,1.137735 2.889549,2.8898474 0 0 1 -0.966975,-0.841924 z"
       id="path200" />
    <path
       class="cls-29"
       d="m 20.215293,14.257692 c -0.318533,0.671264 -1.205875,2.138942 -1.592665,3.014998 a 4.4822137,4.4826767 0 0 1 -1.69505,1.877264 24.060614,24.063099 0 0 0 -2.388997,1.911395 c 0,0 0,-0.06826 0,-0.102397 a 0.40954237,0.40958467 0 0 0 -0.182019,-0.443716 0.70532297,0.70539582 0 0 0 -0.591561,-0.125151 2.8667966,2.8670927 0 0 1 0.2389,-0.284434 c 1.137617,-1.353905 1.683674,-1.945527 2.150097,-2.605414 0.466423,-0.659886 1.137618,-1.137735 1.319636,-1.490433 a 12.70719,12.708502 0 0 0 0.591562,-1.433546 c 0.204771,-0.55749 0.511928,-1.342528 0.819084,-2.047923 0.307157,-0.705396 0.147891,-1.467679 0.511928,-2.207207 a 1.3196365,1.3197728 0 0 1 1.39927,-0.6940181"
       id="path202"
       style="stroke-width:0.940217" />
    <path
       class="cls-30"
       d="m 20.681716,11.90258 c 0,0.193415 -0.125138,0.284434 -0.227523,0.443717 a 2.4913828,2.4916401 0 0 0 -0.398166,1.137735 1.3082604,1.3083955 0 0 0 0.159266,0.750905 v 0 l -1.581288,3.117395 -1.353766,1.399414 -2.571016,2.025169 -0.29578,-0.238925 c 0,0 3.139825,-2.992243 3.469734,-3.526979 a 20.647761,20.649894 0 0 0 1.319636,-2.548526 l 0.409543,-1.217377 a 3.1739534,3.1742812 0 0 1 0.489175,-1.137735 1.8429407,1.843131 0 0 0 0.432295,-0.671264 c 0,0 0.102386,0.182038 0.113762,0.204792 a 0.91009416,0.91018816 0 0 1 0.03413,0.261679 z"
       id="path204"
       style="fill:url(#linear-gradient-19);stroke-width:0.940217" />
    <path
       class="cls-31"
       d="m 20.215293,14.257692 c -0.318533,0.671264 -1.205875,2.138942 -1.592665,3.014998 a 4.4822137,4.4826767 0 0 1 -1.69505,1.877264 24.060614,24.063099 0 0 0 -2.388997,1.911395 c 0,0 0,-0.06826 0,-0.102397 a 0.40954237,0.40958467 0 0 0 -0.182019,-0.443716 0.70532297,0.70539582 0 0 0 -0.591561,-0.125151 2.8667966,2.8670927 0 0 1 0.2389,-0.284434 c 1.137617,-1.353905 1.683674,-1.945527 2.150097,-2.605414 0.466423,-0.659886 1.137618,-1.137735 1.319636,-1.490433 a 12.70719,12.708502 0 0 0 0.591562,-1.433546 c 0.204771,-0.55749 0.511928,-1.342528 0.819084,-2.047923 0.307157,-0.705396 0.147891,-1.467679 0.511928,-2.207207 a 1.3196365,1.3197728 0 0 1 1.39927,-0.6940181"
       id="path206" />
    <path
       class="cls-32"
       d="M 20.704469,9.6271099 Z"
       id="path208"
       style="fill:url(#linearGradient1182);stroke-width:0.940217" />
    <path
       class="cls-33"
       d="M 34.412762,20.92482 A 0.67119444,0.67126377 0 0 0 33.809825,20.8338 1.9567024,1.9569045 0 0 0 33.241016,21.072724 C 31.944132,19.104444 30.67,18.706237 29.828163,17.511615 29.464125,17.011011 29.156968,16.37388 28.906692,15.98705 a 6.620935,6.6216189 0 0 1 -0.716699,-1.808999 c -0.102385,-0.273057 -0.477799,-0.603 -0.614313,-0.910188 a 3.2080819,3.2084133 0 0 1 -0.739452,1.353904 c -0.614313,0.705396 -0.716699,0.841924 -1.001103,2.810206 H 20.886488 A 17.667203,17.669028 0 0 0 20.704469,15.38405 5.4491888,5.4497516 0 0 1 20.511074,14.712786 v 0 a 0.94422269,0.94432022 0 0 1 -0.568809,-0.364075 v 0 0 a 1.3537651,1.3539049 0 0 1 -0.136514,-0.876056 c 0.125138,-0.489226 0.53468,-1.035339 0.591561,-1.342528 a 5.9269882,5.9276004 0 0 0 0,-1.695225 C 20.340431,10.195978 20.28355,9.9229211 20.238046,9.7067514 h 0.455047 a 4.0954237,4.0958467 0 0 0 2.502759,0.4778486 6.6436874,6.6443736 0 0 0 2.832668,-1.4107915 1.1376177,1.1377352 0 0 0 1.046608,0.4778488 2.2752354,2.2754704 0 0 1 1.865693,0.6826411 c 0.693947,0.8988106 0.398166,1.6383386 0.682571,2.2754706 0.284404,0.637132 0.591561,1.752112 0.853213,2.70781 a 2.6847778,2.6850551 0 0 0 0.978351,1.535942 6.8257062,6.8264112 0 0 1 1.490279,2.070678 8.6572707,8.6581649 0 0 0 1.046609,1.581452 c 0.136514,0.17066 0.284404,0.534736 0.420918,0.819169 z"
       id="path210"
       style="fill:url(#linear-gradient-21);stroke-width:0.940217" />
    <path
       class="cls-29"
       d="m 27.57568,13.245108 a 28.929618,28.932606 0 0 0 1.319636,2.741942 c 0.250276,0.409584 0.557433,1.023961 0.910094,1.524565 0.875966,1.194622 2.138722,1.592829 3.412853,3.561111 a 2.184226,2.1844516 0 0 1 0.568809,-0.250302 0.60293738,0.60299966 0 0 1 0.591562,0.113774 5.2557938,5.2563366 0 0 0 -0.38679,-0.830547 9.1009416,9.1018816 0 0 1 -1.137618,-1.54732 6.8825871,6.883298 0 0 0 -1.39927,-2.10481 2.6961539,2.6964324 0 0 1 -0.966975,-1.570074 24.071991,24.074477 0 0 0 -0.864589,-2.70781 c -0.284405,-0.637132 0,-1.365282 -0.671195,-2.2754707 A 2.184226,2.1844516 0 0 0 27.075128,9.2061479 h -0.216147 a 1.3992698,1.3994143 0 0 0 -0.534681,1.3197731 4.5504708,4.5509408 0 0 0 0.728076,2.377866 1.0352321,1.035339 0 0 0 0.523304,0.341321 z"
       id="path212"
       style="stroke-width:0.940217" />
    <path
       class="cls-34"
       d="m 33.434411,20.845179 -0.261652,0.113773 -0.216148,-0.284433 a 1.6267933,1.6269613 0 0 0 -0.159266,-0.227547 c 0,0 -0.06826,-0.07964 -0.102386,-0.136529 v 0 A 4.5504708,4.5509408 0 0 0 31.841746,19.388878 L 31.671103,19.275104 31.409451,19.047557 A 2.059088,2.0593007 0 0 0 31.147799,18.842765 C 30.988533,18.694859 30.829266,18.569709 30.67,18.43318 h -0.06826 v 0 l -0.341286,-0.329943 c -0.125138,-0.147905 -0.261652,-0.307188 -0.38679,-0.477849 -0.250275,-0.420962 -2.138721,-4.152733 -2.138721,-4.152733 v 0.05689 a 1.7178027,1.7179802 0 0 0 -0.06826,-0.170661 0.9897274,0.98982962 0 0 1 -0.523304,-0.284433 4.2205617,4.2209976 0 0 1 -0.693947,-1.945528 0.25027589,0.25030174 0 0 1 0,-0.09102 1.9680786,1.9682819 0 0 1 0.193395,-0.898811 1.1376177,1.1377352 0 0 1 1.080737,-0.7167734 1.3765174,1.3766596 0 0 1 0.580185,0.2047923 1.3310127,1.3311502 0 0 0 -0.864589,0.5916221 1.4333983,1.4335464 0 0 0 -0.193395,0.682641 2.5937684,2.5940363 0 0 0 0,0.546113 3.7200099,3.7203941 0 0 0 0.193395,0.352698 c 0.102385,0.182038 0.420918,0.443717 0.420918,0.671264 a 12.673061,12.67437 0 0 0 1.274132,2.741942 c 0.523304,0.77366 0.671194,1.50181 1.137618,2.036546 0.466423,0.534735 1.740555,1.524565 2.275235,2.150319 a 7.9633239,7.9641464 0 0 1 0.887342,1.444924 z"
       id="path214"
       style="fill:url(#linear-gradient-22);stroke-width:0.940217" />
    <path
       class="cls-35"
       d="m 27.643937,13.415768 c -0.147891,0.227547 -0.659819,1.001207 -0.910094,1.319773 A 6.8257062,6.8264112 0 0 0 26.0854,16.362502 l -0.09101,0.932943 h -0.762204 c -0.14789,0 -0.955599,0 -1.01248,0.136528 a 2.4117495,2.4119986 0 0 0 0.170643,-1.058093 1.9111977,1.9113951 0 0 0 -0.216147,-1.012585 1.2627556,1.2628861 0 0 0 -0.784956,-0.500603 4.7211135,4.7216011 0 0 0 -1.046609,-0.136528 0.73945151,0.73952788 0 0 0 -0.705323,0.375452 1.0238559,1.0239617 0 0 0 0,0.318566 10.830121,10.831239 0 0 0 0.07963,2.10481 0.5460565,0.5461129 0 0 0 -0.32991,0 14.88004,14.881576 0 0 0 -0.159266,-2.127565 c 0,-0.125151 -0.170643,-0.637131 -0.409542,-0.455094 a 0.22752354,0.22754704 0 0 0 -0.06826,0.147906 v 0.432339 A 1.8884454,1.8886404 0 0 0 20.317672,14.564881 C 20.20391,14.428352 20.067396,14.303202 19.953634,14.166673 a 0.78495621,0.78503729 0 0 1 -0.182019,-0.489226 1.2172509,1.2173767 0 0 1 0.159267,-0.443717 6.2568973,6.2575436 0 0 0 0.602937,-1.843131 1.1376177,1.1377352 0 0 1 0.102386,-0.375452 0.31853296,0.31856586 0 0 1 0.307156,-0.193415 c 0.193395,0 0.295781,0.227547 0.375414,0.398207 a 6.6436874,6.6443736 0 0 0 1.023856,1.54732 c -0.227523,0 -0.614313,-0.420962 -0.841837,-0.511981 a 0.83046092,0.8305467 0 0 0 -1.057984,0.375453 1.8884454,1.8886404 0 0 0 -0.204771,0.602999 0.86458945,0.86467875 0 0 0 0.07963,0.694019 0.81908474,0.81916934 0 0 0 0.273028,0.204792 c 0.716699,0.329944 1.376517,-0.193415 2.093217,-0.136528 0.273028,0 0.53468,0.136528 0.796332,0.182038 a 2.7757872,2.7760739 0 0 0 1.057984,-0.102396 1.5699124,1.5700746 0 0 0 0.489176,-0.21617 1.4447745,1.4449237 0 0 0 0.352662,-1.786244 c -0.261653,-0.398208 -1.01248,0 -1.342389,0.12515 -0.32991,0.125151 -1.558537,0.500604 -1.695051,0.568868 0.4778,-0.273056 1.54716,-0.796415 2.02496,-1.069471 a 7.2807533,7.2815053 0 0 1 1.137617,-0.55749 5.6880885,5.688676 0 0 1 0.602938,-0.136529 c 0.113762,0 0.398166,-0.159282 0.443671,-0.284433 a 2.1159689,2.1161875 0 0 0 0.182019,1.342527 2.2752354,2.2754704 0 0 0 0.432294,0.864679 0.9897274,0.98982962 0 0 0 0.523304,0.284434 1.7178027,1.7179802 0 0 1 -0.0455,0.204792 z"
       id="path216"
       style="fill:url(#linearGradient1184);stroke-width:0.940217" />
    <path
       class="cls-36"
       d="m 31.716608,19.25235 a 8.5890136,8.5899008 0 0 1 -1.842941,-1.740735 11.285168,11.286333 0 0 0 1.842941,1.740735 z"
       id="path218"
       style="fill:url(#linear-gradient-24);stroke-width:0.940217" />
    <path
       class="cls-37"
       d="m 33.172759,21.004462 v 0 a 7.9633239,7.9641464 0 0 0 -0.466424,-0.648509 c 0.147891,0.136528 0.295781,0.352698 0.466424,0.648509 z"
       id="path220"
       style="fill:url(#linear-gradient-25);stroke-width:0.940217" />
    <path
       class="cls-29"
       d="m 27.678065,13.358881 c 0,0 1.888446,3.731772 2.138722,4.152734 C 29.452749,17.011011 29.156968,16.37388 28.88394,15.98705 28.474398,15.315786 27.882836,13.939126 27.643937,13.415768 Z"
       id="path222"
       style="stroke-width:0.940217" />
    <path
       class="cls-29"
       d="m 32.672207,20.287689 a 10.898378,10.899503 0 0 0 -1.057984,-1.023962 l 0.182018,0.113774 a 4.5504708,4.5509408 0 0 1 0.875966,0.910188 z"
       id="path224"
       style="stroke-width:0.940217" />
    <path
       class="cls-38"
       d="m 27.57568,13.245108 a 3.1398249,3.1401492 0 0 1 -0.739452,1.353905 c -0.614313,0.716773 -0.716699,0.841924 -1.001103,2.821583 h -4.948637 a 15.437472,15.439067 0 0 0 -0.182019,-2.10481 5.4491888,5.4497516 0 0 1 -0.193395,-0.671264 v 0 A 0.86458945,0.86467875 0 0 1 19.908136,14.22356"
       id="path226" />
    <path
       class="cls-39"
       d="m 27.57568,13.245108 a 28.929618,28.932606 0 0 0 1.319636,2.741942 c 0.250276,0.409584 0.557433,1.023961 0.910094,1.524565 0.875966,1.194622 2.138722,1.592829 3.412853,3.561111 a 2.184226,2.1844516 0 0 1 0.568809,-0.250302 0.60293738,0.60299966 0 0 1 0.591562,0.113774 5.2557938,5.2563366 0 0 0 -0.38679,-0.830547 9.1009416,9.1018816 0 0 1 -1.137618,-1.54732 6.8825871,6.883298 0 0 0 -1.39927,-2.10481 2.6961539,2.6964324 0 0 1 -0.966975,-1.570074 24.071991,24.074477 0 0 0 -0.864589,-2.70781 c -0.284405,-0.637132 0,-1.365282 -0.671195,-2.2754707 A 2.184226,2.1844516 0 0 0 27.075128,9.2061479 h -0.216147 a 1.3992698,1.3994143 0 0 0 -0.534681,1.3197731 4.5504708,4.5509408 0 0 0 0.728076,2.377866 1.0352321,1.035339 0 0 0 0.523304,0.341321 z"
       id="path228" />
    <path
       class="cls-38"
       d="M 26.858981,9.2630346 A 1.3992698,1.3994143 0 0 0 26.3243,10.582807 4.5504708,4.5509408 0 0 0 27.052376,12.960674"
       id="path230" />
    <path
       class="cls-38"
       d="m 20.511074,14.678654 a 0.86458945,0.86467875 0 0 1 -0.602938,-0.420962 1.3196365,1.3197728 0 0 1 -0.14789,-0.762282 c 0,-0.750906 0.511928,-1.137736 0.614314,-1.558698 a 0.8418371,0.84192405 0 0 0 0,-0.477848 2.0249595,2.0251687 0 0 1 0,-0.887434"
       id="path232" />
    <rect
       class="cls-40"
       x="20.738598"
       y="17.420597"
       width="5.2444177"
       height="0.9101882"
       id="rect234"
       style="stroke-width:0.940217" />
    <rect
       class="cls-41"
       x="20.738598"
       y="17.420597"
       width="5.2444177"
       height="0.9101882"
       id="rect236" />
    <path
       class="cls-40"
       d="m 22.615666,18.956539 a 1.865693,1.8658857 0 0 0 0.602938,-1.137736 2.0022072,2.002414 0 0 0 -0.602938,-1.137735 1.990831,1.9910366 0 0 0 -0.614313,1.137735 1.8543169,1.8545084 0 0 0 0.614313,1.137736"
       id="path238"
       style="stroke-width:0.940217" />
    <path
       class="cls-41"
       d="m 22.615666,18.956539 a 1.865693,1.8658857 0 0 0 0.602938,-1.137736 2.0022072,2.002414 0 0 0 -0.602938,-1.137735 1.990831,1.9910366 0 0 0 -0.614313,1.137735 1.8543169,1.8545084 0 0 0 0.614313,1.137736 z"
       id="path240" />
    <path
       class="cls-38"
       d="m 23.992184,14.803805 a 2.7985395,2.7988286 0 0 0 1.137618,0 2.1728498,2.1730742 0 0 0 1.319636,-1.137735 1.604041,1.6042066 0 0 0 0,-1.137735"
       id="path242" />
    <path
       class="cls-42"
       d="M 23.275485,8.4893747 A 1.4106459,1.4107916 0 0 0 22.137867,8.8079406 1.990831,1.9910366 0 0 1 20.613459,9.3654308 C 20.101531,9.2061479 20.067403,9.5360911 20.067403,9.5360911 a 3.2535866,3.2539227 0 0 0 0.216147,0.7509049 2.8667966,2.8670927 0 0 0 1.774684,1.877263 1.9225739,1.9227725 0 0 1 -0.2389,-2.002414 1.8201883,1.8203763 0 0 1 1.456151,-0.887433 c 0,0 -0.01138,-0.6371317 0,-0.7850373 z"
       id="path244" />
    <path
       class="cls-43"
       d="m 24.731635,8.2504503 a 2.2752354,2.2754704 0 0 1 1.296885,0.2389244 c 0.671194,0.4550941 1.865693,-0.2844338 1.93395,0.5461129 A 1.1376177,1.1377352 0 0 0 27.302651,9.6043552 2.9805584,2.9808662 0 0 1 25.118425,11.447486 C 23.423375,12.027731 24.86815,9.1720158 24.86815,9.1720158"
       id="path246" />
    <path
       class="cls-44"
       d="m 22.706676,9.1265064 a 2.957806,2.9581115 0 0 0 -1.569913,1.3311506 c -0.523304,0.955697 0.307157,1.88864 1.137618,2.343734 0,0 2.79854,-0.841924 3.754139,-2.150319 A 1.2058748,1.2059993 0 0 0 26.153658,9.3881855 2.6734016,2.6736777 0 0 0 25.436958,8.8762047 7.6334148,7.6342032 0 0 1 25.107049,7.0558283 C 24.970535,5.8384517 24.981911,5.0761691 24.981911,5.0761691 l -2.275235,0.4437167 0.09101,1.7634896 a 5.6880885,5.688676 0 0 1 0.204772,1.7521122 z"
       id="path248"
       style="fill:url(#linearGradient1186);stroke-width:0.940217" />
    <path
       class="cls-45"
       d="m 22.706676,9.1265064 a 2.957806,2.9581115 0 0 0 -1.569913,1.3311506 c -0.523304,0.955697 0.307157,1.88864 1.137618,2.343734 0,0 2.79854,-0.841924 3.754139,-2.150319 A 1.2058748,1.2059993 0 0 0 26.153658,9.3881855 2.6734016,2.6736777 0 0 0 25.436958,8.8762047 7.6334148,7.6342032 0 0 1 25.107049,7.0558283 C 24.970535,5.8384517 24.981911,5.0761691 24.981911,5.0761691 l -2.275235,0.4437167 0.09101,1.7634896 a 5.6880885,5.688676 0 0 1 0.204772,1.7521122 z"
       id="path250"
       style="fill:url(#linear-gradient-26);stroke-width:0.940217" />
    <path
       class="cls-46"
       d="m 22.979704,8.8420726 a 5.2330414,5.2335819 0 0 1 0.500552,0.6257544 c 0.170643,0.2730564 0.830461,0.1592829 1.137618,0.1592829 0.307156,0 -0.182019,0.5233581 -0.182019,0.5233581 0,0 1.592665,-0.3071884 1.592665,-0.6598863 0,-0.3526979 -0.62569,-0.614377 -0.62569,-0.614377 a 9.9314025,9.9324283 0 0 1 -0.2389,-1.1377352 c 0,-0.3413206 -0.546056,-0.7850373 -0.546056,-0.7850373 l -1.63817,1.2515087"
       id="path252"
       style="fill:url(#linear-gradient-27);stroke-width:0.940217" />
    <g
       class="cls-47"
       clip-path="url(#clip-path)"
       id="g256"
       style="stroke-width:0.826437"
       transform="matrix(1.1376177,0,0,1.1377352,-2.4119229,-1.7502421)">
      <path
         class="cls-48"
         d="m 21.31,13 a 2,2 0 0 0 0.84,-1 2.18,2.18 0 0 1 -0.78,1.63"
         id="path254"
         style="fill:url(#linear-gradient-28);stroke-width:0.826437" />
    </g>
    <path
       class="cls-49"
       d="m 22.854566,7.1240925 a 13.105356,13.10671 0 0 1 0.06826,2.5030174"
       id="path258"
       style="stroke:url(#New_Gradient_Swatch_2)" />
    <path
       class="cls-50"
       d="M 22.524657,7.0330736 A 0.78495621,0.78503729 0 0 1 21.92172,6.5552249 c -0.113762,-0.3982074 0.05688,-0.5916223 0.307156,-0.6371318 0.250276,-0.045509 0.420919,0.3299433 0.443671,0.6257544 a 0.70532297,0.70539582 0 0 1 -0.14789,0.4892261 z"
       id="path260"
       style="fill:url(#New_Gradient_Swatch_4-2);stroke-width:0.940217" />
    <path
       class="cls-39"
       d="M 22.524657,7.0330736 A 0.78495621,0.78503729 0 0 1 21.92172,6.5552249 c -0.113762,-0.3982074 0.05688,-0.5916223 0.307156,-0.6371318 0.250276,-0.045509 0.420919,0.3299433 0.443671,0.6257544 a 0.70532297,0.70539582 0 0 1 -0.14789,0.4892261 z"
       id="path262" />
    <path
       class="cls-51"
       d="m 25.289068,5.2923388 v 0 c 0,-0.1479056 0,-0.2958112 0,-0.420962 A 1.6495457,1.649716 0 0 0 23.446127,3.5629813 C 22.30851,3.6653775 21.944472,4.1659809 22.06961,5.428867 a 3.9930381,3.9934506 0 0 0 0.546056,1.9227725 c 0.307157,0.4095847 0.841838,0.8988108 1.137618,0.8760561 a 1.9339501,1.9341498 0 0 0 1.25138,-1.0239617 2.7757872,2.7760739 0 0 0 0.261652,-0.7167732 0.76220386,0.76228258 0 0 0 0.511928,-0.5802449 C 25.766868,5.4971311 25.55072,5.3037161 25.289068,5.2923388 Z"
       id="path264"
       style="fill:url(#New_Gradient_Swatch_4-3);stroke-width:0.940217" />
    <path
       class="cls-39"
       d="m 25.25494,5.2923388 a 1.3310127,1.3311502 0 0 0 0,-0.420962 1.5699124,1.5700746 0 0 0 -1.763308,-1.1377352 1.5357839,1.5359425 0 0 0 -1.456151,1.6952254 3.9930381,3.9934506 0 0 0 0.580185,1.9227725 c 0.307157,0.4095847 0.841838,0.8988108 1.137618,0.8760561 a 1.9339501,1.9341498 0 0 0 1.25138,-1.0239617 2.9236775,2.9239795 0 0 0 0.329909,-1.6383387 C 25.243563,5.4857538 25.25494,5.394735 25.25494,5.2923388 Z"
       id="path266" />
    <path
       class="cls-52"
       d="m 25.857877,5.8612064 a 9.1009416,9.1018816 0 0 1 0.193395,1.1377352 1.4220221,1.422169 0 0 0 0.398166,1.0125843 1.990831,1.9910366 0 0 0 0.819085,0.4095847 C 25.653106,9.1833932 24.993287,8.0684127 24.560993,5.8953384 A 0.5460565,0.5461129 0 0 0 24.287965,5.5540179 1.2627556,1.2628861 0 0 0 23.639522,5.4857538 1.2627556,1.2628861 0 0 1 22.615666,5.235452 1.2968842,1.2970181 0 0 1 22.30851,4.7917353 1.7291789,1.7293575 0 0 0 21.853463,6.1228855 1.3310127,1.3311502 0 0 1 21.387039,5.0761691 a 1.5926648,1.5928293 0 0 1 0.398167,-0.9898296 0.9897274,0.98982962 0 0 1 0.83046,-0.4550941 2.2752354,2.2754704 0 0 1 0.113762,-0.2161697 1.1376177,1.1377352 0 0 1 0.307157,-0.2616791 0.9897274,0.98982962 0 0 1 0.716699,-0.1365282 3.7541384,3.7545262 0 0 1 2.104593,2.844338 z"
       id="path268"
       style="fill:url(#linear-gradient-29);stroke-width:0.940217" />
    <path
       class="cls-53"
       d="M 24.367598,4.0408301 A 1.0466083,1.0467164 0 0 0 24.049065,3.7677736 0.79633239,0.79641464 0 0 0 23.514384,3.6653775 0.48917561,0.48922614 0 0 0 23.22998,3.779151 0.27302825,0.27305645 0 0 0 23.138971,4.0635848 1.1376177,1.1377352 0 0 0 21.92172,4.6893391 1.1376177,1.1377352 0 0 0 21.842086,5.3150935 l 0.159267,-0.079641 A 2.1728498,2.1730742 0 0 0 21.864839,6.122886 1.3765174,1.3766596 0 0 1 21.375663,5.0761696 1.7064266,1.7066028 0 0 1 21.785206,4.08634 a 0.91009416,0.91018816 0 0 1 0.83046,-0.4437168 1.797436,1.7976216 0 0 1 0.113762,-0.227547 1.1376177,1.1377352 0 0 1 0.307157,-0.2616791 1.0011036,1.001207 0 0 1 0.716699,-0.1365282 2.1500975,2.1503195 0 0 1 1.387894,1.0239617 c 0.14789,0.2844338 0.2389,0.5916223 0.375414,0.8760561 a 4.7211135,4.7216011 0 0 1 0.352661,1.0467164 c 0.09101,0.4664714 0.113762,0.9443202 0.2389,1.3994143 A 1.6381695,1.6383387 0 0 0 26.961366,8.5007521 0.80770857,0.80779199 0 0 1 26.153658,8.3528465 1.6836742,1.6838481 0 0 1 25.69861,7.6360733 C 25.607601,7.3630169 25.539344,7.0785831 25.471087,6.7941493 A 9.3398413,9.340806 0 0 0 24.970535,5.042037 3.7768908,3.7772809 0 0 0 24.367598,4.0408301 Z"
       id="path270"
       style="fill:url(#linear-gradient-30);stroke-width:0.940217" />
    <path
       class="cls-7"
       d="m 25.857877,5.8612064 a 9.1009416,9.1018816 0 0 1 0.193395,1.1377352 1.4220221,1.422169 0 0 0 0.398166,1.0125843 1.990831,1.9910366 0 0 0 0.819085,0.4095847 c -1.615417,0.7622826 -2.377621,-0.420962 -2.753035,-2.4347533 0,-0.1479056 -0.102386,-0.3640753 -0.227523,-0.4323394 A 1.2627556,1.2628861 0 0 0 23.639522,5.4857538 1.2627556,1.2628861 0 0 1 22.615666,5.235452 1.2968842,1.2970181 0 0 1 22.30851,4.7917353 1.7291789,1.7293575 0 0 0 21.853463,6.1228855 1.3310127,1.3311502 0 0 1 21.387039,5.0761691 a 1.4333983,1.4335464 0 0 1 0.284405,-0.9670749 1.1376177,1.1377352 0 0 1 0.944222,-0.4778488 2.2752354,2.2754704 0 0 1 0.113762,-0.2161697 1.1376177,1.1377352 0 0 1 0.307157,-0.2616791 0.9897274,0.98982962 0 0 1 0.716699,-0.1365282 3.7541384,3.7545262 0 0 1 2.104593,2.844338 z"
       id="path272" />
    <path
       class="cls-40"
       d="m 22.501905,35.40819 a 12.889209,12.89054 0 0 1 -0.568809,-3.356319 c 0,0.05689 0.125138,0.125151 0.375414,0.17066 a 9.1009416,9.1018816 0 0 0 1.729179,0.125151 0.1478903,0.14790558 0 0 0 -0.07963,0.09102 19.476015,19.478027 0 0 0 0.705323,5.017412 13.731046,13.732464 0 0 1 0.602938,3.583866 6.4730447,6.4737133 0 0 1 -0.796333,2.6623 c -0.238899,0.409585 -0.807708,0.932943 -0.807708,1.297018 v 0.546113 a 1.8998216,1.9000178 0 0 1 -0.705323,0.06826 1.1376177,1.1377352 0 0 1 -1.023856,-0.455094 v -0.637132 c 0,-0.432339 1.274132,-1.308395 1.535784,-1.820376 a 2.8781728,2.8784701 0 0 0 0.341285,-1.88864 50.25995,50.265141 0 0 0 -1.30826,-5.404242 z"
       id="path274"
       style="stroke-width:0.940217" />
    <path
       class="cls-54"
       d="m 22.501905,35.40819 a 12.889209,12.89054 0 0 1 -0.568809,-3.356319 c 0,0.05689 0.125138,0.125151 0.375414,0.17066 a 6.552678,6.5533548 0 0 0 1.649545,0.21617 c 0,0 0,0 0,0 a 19.476015,19.478027 0 0 0 0.705323,5.017412 13.731046,13.732464 0 0 1 0.602938,3.583866 6.4730447,6.4737133 0 0 1 -0.796333,2.6623 c -0.238899,0.409585 -0.807708,0.932943 -0.807708,1.297018 v 0.546113 a 1.8998216,1.9000178 0 0 1 -0.705323,0.06826 1.1376177,1.1377352 0 0 1 -1.023856,-0.455094 v -0.637132 c 0,-0.432339 1.274132,-1.308395 1.535784,-1.820376 a 2.8781728,2.8784701 0 0 0 0.341285,-1.88864 50.25995,50.265141 0 0 0 -1.30826,-5.404242 z"
       id="path276" />
    <path
       class="cls-40"
       d="m 27.655313,32.222531 a 16.654723,16.656443 0 0 1 -0.398166,5.267714 11.808472,11.809691 0 0 0 0,3.811413 8.5890136,8.5899008 0 0 1 0.227523,1.524565 c 0,0.364075 -0.250276,0.250302 -0.432294,0.932943 -0.182019,0.682641 0.05688,1.023962 -0.295781,1.524565 a 2.0249595,2.0251687 0 0 1 -1.899822,0.853301 1.4447745,1.4449237 0 0 1 -1.137617,-0.591622 v -0.546113 c 0,-0.364075 0.568809,-0.887433 0.807708,-1.297018 a 6.4730447,6.4737133 0 0 0 0.796333,-2.6623 13.731046,13.732464 0 0 0 -0.602938,-3.583866 19.476015,19.478027 0 0 1 -0.705323,-5.017412 0.3981662,0.39820732 0 0 0 0.2389,0.136528 h 0.273028 a 8.1225904,8.1234293 0 0 0 2.639273,-0.193415 h 0.125138 c 0.204771,0 0.364038,-0.09102 0.364038,-0.159283 z"
       id="path278"
       style="stroke-width:0.940217" />
    <path
       class="cls-55"
       d="m 27.700818,32.677625 a 2.9464298,2.9467342 0 0 1 -1.808813,0.603 c 0,0.443716 0.09101,1.137735 0.125138,1.911395 0.03413,0.77366 0,1.774867 0.06826,2.730564 0.284405,2.798829 0.455048,3.492847 0,5.006035 -0.455047,1.513188 -1.137617,1.695226 -1.137617,2.389244 a 6.1886403,6.1892795 0 0 1 -0.06826,0.830547 2.059088,2.0593007 0 0 0 1.888445,-0.864679 c 0.364038,-0.500603 0.09101,-0.841924 0.295781,-1.524565 0.204771,-0.682641 0.432294,-0.55749 0.432294,-0.932943 a 8.5890136,8.5899008 0 0 0 -0.227523,-1.524565 12.206638,12.207899 0 0 1 0,-3.82279 17.667203,17.669028 0 0 0 0.432295,-4.801243 z"
       id="path280"
       style="fill:url(#linear-gradient-31);stroke-width:0.940217" />
    <path
       class="cls-54"
       d="m 27.655313,32.222531 a 16.654723,16.656443 0 0 1 -0.398166,5.267714 11.808472,11.809691 0 0 0 0,3.811413 8.5890136,8.5899008 0 0 1 0.227523,1.524565 c 0,0.364075 -0.250276,0.250302 -0.432294,0.932943 -0.182019,0.682641 0.05688,1.023962 -0.295781,1.524565 a 2.0249595,2.0251687 0 0 1 -1.899822,0.853301 1.4447745,1.4449237 0 0 1 -1.137617,-0.591622 v -0.546113 c 0,-0.364075 0.568809,-0.887433 0.807708,-1.297018 a 6.4730447,6.4737133 0 0 0 0.796333,-2.6623 13.731046,13.732464 0 0 0 -0.602938,-3.583866 19.476015,19.478027 0 0 1 -0.705323,-5.017412 0.3981662,0.39820732 0 0 0 0.2389,0.136528 h 0.273028 a 8.1225904,8.1234293 0 0 0 2.639273,-0.193415 h 0.125138 c 0.204771,0 0.364038,-0.09102 0.364038,-0.159283 z"
       id="path282" />
    <rect
       class="cls-56"
       x="24.322094"
       y="17.40922"
       width="1.0807368"
       height="0.92156553"
       id="rect284"
       style="stroke-width:0.940217" />
    <rect
       class="cls-56"
       x="21.387039"
       y="17.40922"
       width="0.43229473"
       height="0.92156553"
       id="rect286"
       style="stroke-width:0.940217" />
    <path
       class="cls-57"
       d="m 26.233291,33.246493 a 29.57806,29.581115 0 0 1 0.06826,3.413205 22.08116,22.08344 0 0 0 0.273028,3.800036 c 0,0 0.182019,-2.685055 0.398166,-3.583866 a 9.9541549,9.955183 0 0 0 0.329909,-3.959319 3.344596,3.3449415 0 0 1 -1.06936,0.329944 z"
       id="path288"
       style="fill:url(#linearGradient1188);stroke-width:0.940217" />
    <path
       class="cls-58"
       d="m 26.790723,41.290281 a 8.6003898,8.6012781 0 0 1 0.182019,1.399414 5.5174458,5.5180157 0 0 0 -0.432294,1.285641 1.6950504,1.6952254 0 0 1 -0.955599,1.638338 1.4447745,1.4449237 0 0 1 0.329909,-1.137735 6.3251544,6.3258077 0 0 0 0.875965,-3.185658 z"
       id="path290"
       style="fill:url(#linear-gradient-33);stroke-width:0.940217" />
    <path
       class="cls-59"
       d="m 25.16393,33.314757 a 2.9464298,2.9467342 0 0 1 -0.819085,-0.113774 13.844807,13.846237 0 0 0 0.341286,2.912602 c 0.318533,1.331151 0.887342,4.129979 0.887342,4.129979 -0.07963,-0.967075 -0.318533,-3.640753 -0.38679,-4.915016 -0.05688,-1.001207 -0.03413,-1.729357 -0.02275,-2.013791 z"
       id="path292"
       style="fill:url(#linearGradient1190);stroke-width:0.940217" />
    <path
       class="cls-60"
       d="m 22.479152,32.950682 a 2.7757872,2.7760739 0 0 0 0.614314,0.136528 30.863568,30.866756 0 0 0 0.568809,3.21979 18.327021,18.328914 0 0 1 0.762204,4.81262 c 0,0 -0.261652,-1.376659 -0.62569,-2.980866 a 43.456996,43.461485 0 0 1 -1.319637,-5.188072 z"
       id="path294"
       style="fill:url(#linear-gradient-35);stroke-width:0.940217" />
    <path
       class="cls-61"
       d="m 26.927238,12.471448 c 0.216147,0.409585 0.409542,0.420962 0.500551,0.72815 0.09101,0.307189 0.147891,0.591623 0.147891,0.591623 l -1.137618,1.137735 c 0,0 0.489176,-0.921566 0.09101,-1.217377 l -0.06826,-0.978452"
       id="path296"
       style="stroke-width:0.940217" />
    <path
       class="cls-61"
       d="m 26.17641,14.382843 a 4.1978093,4.1982429 0 0 0 -0.77358,2.070678 5.26717,5.267714 0 0 1 0,-1.672471"
       id="path298"
       style="stroke-width:0.940217" />
    <path
       class="cls-54"
       d="m 13.446468,20.503858 a 0.20477119,0.20479234 0 0 0 0,0.273057 1.2058748,1.2059993 0 0 0 0.523304,0.329943 c 0.193395,0.06826 0.557433,0.125151 0.648442,0 0.09101,-0.125151 0.432295,-0.72815 0.06826,-0.830547 a 1.1376177,1.1377352 0 0 0 -0.614313,0 0.87596563,0.8760561 0 0 0 -0.62569,0.227547 z"
       id="path300" />
    <path
       class="cls-62"
       d="m 15.266656,23.587121 a 0.23889972,0.23892439 0 0 1 -0.102385,0.238924 0.20477119,0.20479234 0 0 1 -0.284405,-0.136528 c 0,-0.09102 0,-0.193415 -0.09101,-0.295811 a 1.6950504,1.6952254 0 0 0 -0.352662,-0.648509 c -0.06826,-0.07964 -0.170642,0 -0.170642,0.09102 v 0.443716 a 1.5016554,1.5018105 0 0 0 0.09101,0.500604 l 0.307157,0.864679 a 0.47779943,0.47784878 0 0 1 -0.09101,0.443716 0.32990913,0.32994321 0 0 1 -0.341285,0.09102 v 0 a 1.3992698,1.3994143 0 0 1 -0.841837,-1.035339 c -0.07963,-0.227547 -0.125138,-0.432339 -0.159267,-0.534735 a 1.6836742,1.6838481 0 0 1 -0.09101,-0.637132 c 0,-0.250302 0.193395,-1.137735 0.273028,-1.661094 a 1.9111977,1.9113951 0 0 1 0.341286,-0.887433 0.70532297,0.70539582 0 0 1 0.591561,0.125151 0.40954237,0.40958467 0 0 1 0.182019,0.443717 v 0 a 0.30715678,0.3071885 0 0 0 -0.07963,0.250301 1.9111977,1.9113951 0 0 0 0,0.227547 c 0.06826,0.250302 0.489176,0.841924 0.637066,1.308396 a 5.6198314,5.6204119 0 0 1 0.182019,0.807792 z"
       id="path302"
       style="fill:url(#New_Gradient_Swatch_4-4);stroke-width:0.940217" />
    <path
       class="cls-29"
       d="m 15.266656,23.587121 a 0.23889972,0.23892439 0 0 1 -0.102385,0.238924 0.20477119,0.20479234 0 0 1 -0.284405,-0.136528 c 0,-0.09102 0,-0.193415 -0.09101,-0.295811 a 1.6950504,1.6952254 0 0 0 -0.352662,-0.648509 c -0.06826,-0.07964 -0.170642,0 -0.170642,0.09102 v 0.443716 a 1.5016554,1.5018105 0 0 0 0.09101,0.500604 l 0.307157,0.864679 a 0.47779943,0.47784878 0 0 1 -0.09101,0.443716 0.32990913,0.32994321 0 0 1 -0.341285,0.09102 v 0 a 1.3992698,1.3994143 0 0 1 -0.841837,-1.035339 c -0.07963,-0.227547 -0.125138,-0.432339 -0.159267,-0.534735 a 1.6836742,1.6838481 0 0 1 -0.09101,-0.637132 c 0,-0.250302 0.193395,-1.137735 0.273028,-1.661094 a 1.9111977,1.9113951 0 0 1 0.341286,-0.887433 0.70532297,0.70539582 0 0 1 0.591561,0.125151 0.40954237,0.40958467 0 0 1 0.182019,0.443717 v 0 a 0.30715678,0.3071885 0 0 0 -0.07963,0.250301 1.9111977,1.9113951 0 0 0 0,0.227547 c 0.06826,0.250302 0.489176,0.841924 0.637066,1.308396 a 5.6198314,5.6204119 0 0 1 0.182019,0.807792 z"
       id="path304"
       style="stroke-width:0.940217" />
    <path
       class="cls-63"
       d="m 14.447571,25.134441 a 0.25027589,0.25030174 0 0 1 -0.204771,0 v 0 a 1.4447745,1.4449237 0 0 1 -0.841837,-1.035339 4.6187279,4.6192049 0 0 1 -0.14789,-0.534736 1.5699124,1.5700746 0 0 1 -0.102386,-0.637132 c 0,-0.250301 0.193395,-1.137735 0.273028,-1.661093 a 1.8429407,1.843131 0 0 1 0.341286,-0.887433 0.75082768,0.75090523 0 0 1 0.602937,0.113773 c 0,0 0,0 0.06826,0.07964 -0.455047,0.375452 -0.53468,1.137735 -0.523304,2.400621 a 4.4708376,4.4712993 0 0 0 0.53468,2.161697 z"
       id="path306"
       style="fill:url(#linearGradient1192);stroke-width:0.940217" />
    <path
       class="cls-40"
       d="m 14.652343,21.129613 v 0 a 0.73945151,0.73952788 0 0 0 -0.261652,-0.614377 0.95559887,0.95569757 0 0 0 -0.62569,-0.136528 0.45504708,0.45509408 0 0 0 -0.273028,0.12515 c 0,0 1.444774,-1.820376 1.820188,-2.27547 0.375414,-0.455094 0.910094,-0.98983 1.137618,-1.251509 a 1.5926648,1.5928293 0 0 1 1.137617,0.329943 1.5357839,1.5359425 0 0 1 0.557433,0.932943 6.8257062,6.8264112 0 0 1 -1.513032,1.137736 9.703879,9.7048813 0 0 0 -1.979454,1.752112 z"
       id="path308"
       style="stroke-width:0.940217" />
    <path
       class="cls-64"
       d="m 13.958396,20.037387 a 0.61431356,0.61437701 0 0 1 0.659818,0 c 0.318533,0.238924 0.341285,0.500603 0.227524,0.682641 -0.113762,0.182038 -0.193395,0.284434 -0.193395,0.284434 0,0 -0.125138,-0.443717 -0.364038,-0.466472 -0.2389,-0.02275 -0.614314,-0.12515 -0.614314,-0.12515"
       id="path310"
       style="fill:url(#linear-gradient-37);stroke-width:0.940217" />
    <path
       class="cls-54"
       d="m 14.652343,21.129613 v 0 a 0.73945151,0.73952788 0 0 0 -0.261652,-0.614377 0.95559887,0.95569757 0 0 0 -0.62569,-0.136528 0.45504708,0.45509408 0 0 0 -0.273028,0.12515 c 0,0 1.444774,-1.820376 1.820188,-2.27547 0.375414,-0.455094 0.910094,-0.98983 1.137618,-1.251509 a 1.5926648,1.5928293 0 0 1 1.137617,0.329943 1.5357839,1.5359425 0 0 1 0.557433,0.932943 6.8257062,6.8264112 0 0 1 -1.513032,1.137736 9.703879,9.7048813 0 0 0 -1.979454,1.752112 z"
       id="path312" />
    <path
       class="cls-65"
       d="m 16.56354,17.352332 a 1.5130315,1.5131878 0 0 1 1.137618,0.466471 1.0693606,1.0694711 0 0 0 -0.910094,0.284434 C 16.336017,18.512822 14.834361,19.9805 14.834361,19.9805 a 0.51192796,0.51198084 0 0 0 -0.466423,-0.147905 26.620254,26.623004 0 0 1 2.195602,-2.480263 z"
       id="path314"
       style="fill:url(#linear-gradient-38);stroke-width:0.940217" />
    <path
       class="cls-66"
       d="m 14.982252,20.071519 a 11.45581,11.456993 0 0 1 2.582392,-2.195829 0.68257062,0.68264112 0 0 1 0.09101,0.227547 5.2899223,5.2904687 0 0 1 -0.602937,0.489226 l -0.784956,0.523358 c -0.398166,0.284434 -1.240004,1.058094 -1.240004,1.058094 z"
       id="path316"
       style="fill:url(#linear-gradient-39);stroke-width:0.940217" />
    <path
       class="cls-54"
       d="m 34.515148,20.742783 a 0.21614736,0.21616969 0 0 1 0,0.284434 1.2058748,1.2059993 0 0 1 -0.557433,0.261679 c -0.204771,0 -0.568809,0.06826 -0.648442,0 -0.07963,-0.06826 -0.352662,-0.77366 0,-0.841924 a 1.1376177,1.1377352 0 0 1 0.614313,0 0.89871798,0.89881081 0 0 1 0.591562,0.295811 z"
       id="path318" />
    <path
       class="cls-67"
       d="m 32.376426,23.621253 a 0.23889972,0.23892439 0 0 0 0.07963,0.250302 0.20477119,0.20479234 0 0 0 0.29578,-0.113774 c 0,-0.07964 0.06826,-0.182038 0.113762,-0.284434 a 1.6836742,1.6838481 0 0 1 0.420919,-0.602999 c 0.06826,-0.06826 0.170642,0 0.159266,0.102396 l -0.05688,0.409584 a 1.4333983,1.4335464 0 0 1 -0.14789,0.489227 l -0.38679,0.819169 a 0.48917561,0.48922614 0 0 0 0,0.466471 0.36403766,0.36407526 0 0 0 0.329909,0.125151 v 0 a 1.4447745,1.4449237 0 0 0 0.944223,-0.94432 4.6187279,4.6192049 0 0 0 0.204771,-0.523358 1.5812886,1.5814519 0 0 0 0.159266,-0.614377 c 0,-0.250302 -0.06826,-1.137735 -0.09101,-1.683848 a 1.8884454,1.8886404 0 0 0 -0.2389,-0.910188 0.75082768,0.75090523 0 0 0 -0.602937,0 0.3981662,0.39820732 0 0 0 -0.227524,0.432339 v 0 a 0.32990913,0.32994321 0 0 1 0,0.261679 c 0,0.05689 0,0.136528 0,0.21617 0,0.07964 -0.580185,0.785037 -0.77358,1.240131 a 3.9589096,3.9593185 0 0 0 -0.182019,0.864679 z"
       id="path320"
       style="fill:url(#New_Gradient_Swatch_4-5);stroke-width:0.940217" />
    <path
       class="cls-29"
       d="m 32.376426,23.621253 a 0.23889972,0.23892439 0 0 0 0.07963,0.250302 0.20477119,0.20479234 0 0 0 0.29578,-0.113774 c 0,-0.07964 0.06826,-0.182038 0.113762,-0.284434 a 1.6836742,1.6838481 0 0 1 0.420919,-0.602999 c 0.06826,-0.06826 0.170642,0 0.159266,0.102396 l -0.05688,0.409584 a 1.4333983,1.4335464 0 0 1 -0.14789,0.489227 l -0.38679,0.819169 a 0.48917561,0.48922614 0 0 0 0,0.466471 0.36403766,0.36407526 0 0 0 0.329909,0.125151 v 0 a 1.4447745,1.4449237 0 0 0 0.944223,-0.94432 4.6187279,4.6192049 0 0 0 0.204771,-0.523358 1.5812886,1.5814519 0 0 0 0.159266,-0.614377 c 0,-0.250302 -0.06826,-1.137735 -0.09101,-1.683848 a 1.8884454,1.8886404 0 0 0 -0.2389,-0.910188 0.75082768,0.75090523 0 0 0 -0.602937,0 0.3981662,0.39820732 0 0 0 -0.227524,0.432339 v 0 a 0.32990913,0.32994321 0 0 1 0,0.261679 c 0,0.05689 0,0.136528 0,0.21617 0,0.07964 -0.580185,0.785037 -0.77358,1.240131 a 3.9589096,3.9593185 0 0 0 -0.182019,0.864679 z"
       id="path322"
       style="stroke-width:0.940217" />
    <path
       class="cls-68"
       d="m 33.024868,25.236837 a 0.19339501,0.19341498 0 0 0 0.193395,0 v 0 a 1.3651412,1.3652822 0 0 0 0.932847,-0.932943 3.0146869,3.0149983 0 0 0 0.216147,-0.523358 1.5812886,1.5814519 0 0 0 0.159267,-0.614377 c 0,-0.250302 -0.06826,-1.137735 -0.09101,-1.683848 a 1.8543169,1.8545084 0 0 0 -0.238899,-0.921566 0.79633239,0.79641464 0 0 0 -0.614314,0.05689 l -0.07963,0.06826 c 0.420918,0.420962 0.420918,1.137735 0.273028,2.446131 a 4.2660664,4.266507 0 0 1 -0.750828,2.10481 z"
       id="path324"
       style="fill:url(#linear-gradient-40);stroke-width:0.940217" />
    <path
       class="cls-40"
       d="m 33.286521,21.254764 v 0 a 0.76220386,0.76228258 0 0 1 0.329909,-0.603 0.9897274,0.98982962 0 0 1 0.637066,-0.05689 0.56880885,0.5688676 0 0 1 0.261652,0.147906 c 0,0 -1.25138,-1.956905 -1.581289,-2.434754 -0.329909,-0.477848 -0.796332,-1.137735 -1.01248,-1.376659 a 1.6154171,1.615584 0 0 0 -1.137617,0.21617 1.5471601,1.5473199 0 0 0 -0.648443,0.864678 7.2693771,7.2701279 0 0 0 1.376518,1.319773 9.8290169,9.8300321 0 0 1 1.774684,1.922773 z"
       id="path326"
       style="stroke-width:0.940217" />
    <path
       class="cls-69"
       d="m 34.048724,20.230802 a 0.60293738,0.60299966 0 0 0 -0.659818,0 c -0.352661,0.204792 -0.398166,0.466471 -0.29578,0.671264 0.102385,0.204792 0.204771,0.216169 0.204771,0.216169 0,0 0.159266,-0.432339 0.409542,-0.432339 0.250276,0 0.62569,0 0.62569,0"
       id="path328"
       style="fill:url(#linear-gradient-41);stroke-width:0.940217" />
    <path
       class="cls-54"
       d="m 33.286521,21.254764 v 0 a 0.76220386,0.76228258 0 0 1 0.329909,-0.603 0.9897274,0.98982962 0 0 1 0.637066,-0.05689 0.56880885,0.5688676 0 0 1 0.261652,0.147906 c 0,0 -1.25138,-1.956905 -1.581289,-2.434754 -0.329909,-0.477848 -0.796332,-1.137735 -1.01248,-1.376659 a 1.6154171,1.615584 0 0 0 -1.137617,0.21617 1.5471601,1.5473199 0 0 0 -0.648443,0.864678 7.2693771,7.2701279 0 0 0 1.376518,1.319773 9.8290169,9.8300321 0 0 1 1.774684,1.922773 z"
       id="path330" />
    <path
       class="cls-70"
       d="m 31.716608,17.284068 a 1.4902792,1.4904331 0 0 0 -1.137618,0.307188 1.0579845,1.0580937 0 0 1 0.875966,0.375453 c 0.409542,0.455094 1.751931,2.070678 1.751931,2.070678 a 0.50055179,0.50060349 0 0 1 0.4778,-0.102396 28.440443,28.44338 0 0 0 -1.968079,-2.650923 z"
       id="path332"
       style="fill:url(#linear-gradient-42);stroke-width:0.940217" />
    <path
       class="cls-71"
       d="m 33.024868,20.15116 a 11.467186,11.468371 0 0 0 -2.275235,-2.457508 0.60293738,0.60299966 0 0 0 -0.113762,0.227548 5.3126747,5.3132234 0 0 0 0.546057,0.546112 l 0.716699,0.603 a 16.165548,16.167217 0 0 1 1.137618,1.137735 z"
       id="path334"
       style="fill:url(#linear-gradient-43);stroke-width:0.940217" />
    <path
       class="cls-38"
       d="m 20.749973,14.667277 a 0.56880885,0.5688676 0 0 1 -0.238899,0"
       id="path336" />
  </g>
</svg>
