<?xml version="1.0" encoding="UTF-8" standalone="no"?>
<!-- Created with Inkscape (http://www.inkscape.org/) -->

<svg
   xmlns:dc="http://purl.org/dc/elements/1.1/"
   xmlns:cc="http://creativecommons.org/ns#"
   xmlns:rdf="http://www.w3.org/1999/02/22-rdf-syntax-ns#"
   xmlns:svg="http://www.w3.org/2000/svg"
   xmlns="http://www.w3.org/2000/svg"
   xmlns:xlink="http://www.w3.org/1999/xlink"
   xmlns:sodipodi="http://sodipodi.sourceforge.net/DTD/sodipodi-0.dtd"
   xmlns:inkscape="http://www.inkscape.org/namespaces/inkscape"
   width="48px"
   height="48px"
   id="svg39291"
   version="1.1"
   inkscape:version="0.48.5 r10040"
   sodipodi:docname="popsteeralign.svg">
  <defs
     id="defs39293">
    <linearGradient
       id="linearGradient39893">
      <stop
         style="stop-color:#fcaf3e;stop-opacity:1"
         offset="0"
         id="stop39895" />
      <stop
         style="stop-color:#fce94f;stop-opacity:1"
         offset="1"
         id="stop39897" />
    </linearGradient>
    <linearGradient
       inkscape:collect="always"
       xlink:href="#linearGradient39893"
       id="linearGradient39899"
       x1="16.785715"
       y1="8.2812614"
       x2="2.1428583"
       y2="13.924118"
       gradientUnits="userSpaceOnUse"
       gradientTransform="translate(-0.21428571,-0.85714286)" />
    <linearGradient
       inkscape:collect="always"
       xlink:href="#linearGradient39893"
       id="linearGradient39907"
       x1="13.330122"
       y1="26.635086"
       x2="1.6400757"
       y2="43.135086"
       gradientUnits="userSpaceOnUse"
       gradientTransform="translate(0.5,-0.28571429)" />
    <linearGradient
       inkscape:collect="always"
       xlink:href="#linearGradient39893"
       id="linearGradient39915"
       x1="24.928574"
       y1="26.142859"
       x2="43"
       y2="45.785717"
       gradientUnits="userSpaceOnUse"
       gradientTransform="translate(-0.42857143,-2.3571429)" />
    <linearGradient
       inkscape:collect="always"
       xlink:href="#linearGradient39893"
       id="linearGradient39923"
       x1="33.857143"
       y1="19.285715"
       x2="47.357143"
       y2="30.714287"
       gradientUnits="userSpaceOnUse" />
    <linearGradient
       inkscape:collect="always"
       xlink:href="#linearGradient39893"
       id="linearGradient39931"
       x1="34.42857"
       y1="7.3456559"
       x2="46.857143"
       y2="8.5599422"
       gradientUnits="userSpaceOnUse"
       gradientTransform="translate(-0.92857143,-1.7142857)" />
  </defs>
  <sodipodi:namedview
     id="base"
     pagecolor="#ffffff"
     bordercolor="#666666"
     borderopacity="1.0"
     inkscape:pageopacity="0.0"
     inkscape:pageshadow="2"
     inkscape:zoom="14"
     inkscape:cx="12.785714"
     inkscape:cy="21.75"
     inkscape:current-layer="layer1"
     showgrid="true"
     inkscape:grid-bbox="true"
     inkscape:document-units="px"
     inkscape:window-width="2035"
     inkscape:window-height="1466"
     inkscape:window-x="526"
     inkscape:window-y="0"
     inkscape:window-maximized="0" />
  <metadata
     id="metadata39296">
    <rdf:RDF>
      <cc:Work
         rdf:about="">
        <dc:format>image/svg+xml</dc:format>
        <dc:type
           rdf:resource="http://purl.org/dc/dcmitype/StillImage" />
        <dc:title />
      </cc:Work>
    </rdf:RDF>
  </metadata>
  <g
     id="layer1"
     inkscape:label="Layer 1"
     inkscape:groupmode="layer">
    <path
       style="fill:#000000;stroke:none"
       d="m 15.357143,19.642857 5.214286,8.5 -0.785715,2.642858 -3.428572,-1 c -1.714285,7 -4.92839,14.384523 -13.4285706,18.285714 L 0,43.500001 0.5,40.714286 c 4.2027398,-2.567653 8.5018329,-7.55322 9.714286,-12.214285 l -3.4285717,-0.928572 0.3571428,-3.5 z"
       id="path44906"
       inkscape:connector-curvature="0"
       sodipodi:nodetypes="ccccccccccc" />
    <path
       style="fill:#000000;stroke:none"
       d="m 22.214286,16.714286 8.714286,5.428571 -0.5,2.714286 -2.714286,0.5 c 2.182187,9.222574 9.663619,14.003047 16.071428,14.928571 L 43.571429,45 42.928572,48.071428 C 29.628338,45.694426 24.142857,35.714285 21.642857,26.642857 L 18.571429,27.5 18.142858,24.714285 z"
       id="path44904"
       inkscape:connector-curvature="0"
       sodipodi:nodetypes="ccccccccccc" />
    <path
       style="fill:#000000;stroke:none"
       d="M 29.857143,13.285715 39.928571,15.785714 39.5,19 37.571428,19.857143 c 2.832803,3.722812 6.248129,6.74282 11.000001,8.5 l -0.214286,3.285714 -1.571429,3.285714 C 41.236205,33.247235 34.593243,27.985596 31.714285,22.642857 l -3.642856,1.5 -0.142857,-2.499999 z"
       id="path44902"
       inkscape:connector-curvature="0"
       sodipodi:nodetypes="ccccccccccc" />
    <path
       style="fill:#000000;stroke:none"
       d="m 29.142858,0.07142859 11,1.85714281 -0.357143,3.2857143 -2.214286,1.0000001 c 1.65965,2.4834335 4.635425,2.1190155 5.857143,-1.2857144 L 48,7.4285714 47.642858,11 C 42.428572,16.642857 35.785715,15.681914 31.571429,9.5000003 L 27.785715,11.5 27.571429,8.1428572 z"
       id="path44900"
       inkscape:connector-curvature="0"
       sodipodi:nodetypes="ccccccccccc" />
    <path
       style="fill:#000000;stroke:none"
       d="M 17.571428,0.07142853 23,9.0714285 l -0.714286,2.2857145 -3.5,-0.571429 C 16.357143,18.142857 9.3464176,22.049977 0.35714286,17.571428 L 0,13.928571 3.1428572,10.214286 c 3.1541326,2.543132 7.1055728,2.566179 8.9285708,-0.7142859 l -3.1428566,-0.7857144 0.6428572,-3 z"
       id="path44898"
       inkscape:connector-curvature="0"
       sodipodi:nodetypes="ccccccccccc" />
    <path
       sodipodi:nodetypes="cc"
       inkscape:connector-curvature="0"
       id="path39841"
       d="M 1.9285716,12.714286 C 7.2962166,17.43978 14.984219,14.62211 16.500001,6.0000001"
       style="fill:none;stroke:url(#linearGradient39899);stroke-width:4;stroke-linecap:butt;stroke-linejoin:miter;stroke-miterlimit:4;stroke-opacity:1;stroke-dasharray:none" />
    <path
       sodipodi:nodetypes="cc"
       inkscape:connector-curvature="0"
       id="path39843"
       d="M 2.4015503,42.980764 C 11.520298,37.15624 12.422898,31.062223 14.140076,24.432265"
       style="fill:none;stroke:url(#linearGradient39907);stroke-width:4;stroke-linecap:butt;stroke-linejoin:miter;stroke-miterlimit:4;stroke-opacity:1;stroke-dasharray:none" />
    <path
       sodipodi:nodetypes="cc"
       inkscape:connector-curvature="0"
       id="path39845"
       d="M 42.714284,42.785714 C 34.007578,41.202162 26.999663,36.043399 23.57143,20.928572"
       style="fill:none;stroke:url(#linearGradient39915);stroke-width:4;stroke-linecap:butt;stroke-linejoin:miter;stroke-miterlimit:4;stroke-opacity:1;stroke-dasharray:none" />
    <path
       sodipodi:nodetypes="cc"
       inkscape:connector-curvature="0"
       id="path39847"
       d="M 47.428575,30.571429 C 41.727125,28.904172 36.465685,23.486621 33.142858,17.857143"
       style="fill:none;stroke:url(#linearGradient39923);stroke-width:4;stroke-linecap:butt;stroke-linejoin:miter;stroke-miterlimit:4;stroke-opacity:1;stroke-dasharray:none" />
    <path
       sodipodi:nodetypes="cc"
       inkscape:connector-curvature="0"
       id="path39849"
       d="M 45.500004,6.5714284 C 42.854364,11.983692 37.480244,11.847856 33.071429,5.0000003"
       style="fill:none;stroke:url(#linearGradient39931);stroke-width:4;stroke-linecap:butt;stroke-linejoin:miter;stroke-miterlimit:4;stroke-opacity:1;stroke-dasharray:none" />
    <path
       inkscape:connector-curvature="0"
       id="path39851"
       d="M 17.423934,0.93042664 10.142858,6.0723562 22.357144,8.7838587 z"
       style="fill:#fcaf3e;stroke:none"
       sodipodi:nodetypes="cccc" />
    <path
       sodipodi:nodetypes="cccc"
       style="fill:#fcaf3e;stroke:none"
       d="M 15.261556,20.32561 7.5220565,24.637953 20.000009,27.958988 z"
       id="path39853"
       inkscape:connector-curvature="0" />
    <path
       inkscape:connector-curvature="0"
       id="path39855"
       d="m 22.461529,17.737328 7.538434,4.471068 -11.002762,2.331402 z"
       style="fill:#fcaf3e;stroke:none"
       sodipodi:nodetypes="cccc" />
    <path
       sodipodi:nodetypes="cccc"
       style="fill:#fcaf3e;stroke:none"
       d="m 30.365895,14.091907 8.951232,2.181158 -10.57514,5.230248 z"
       id="path39857"
       inkscape:connector-curvature="0" />
    <path
       inkscape:connector-curvature="0"
       id="path39859"
       d="M 29.508754,0.57592039 39.38856,2.405685 28.180557,8.5192993 z"
       style="fill:#fcaf3e;stroke:none"
       sodipodi:nodetypes="cccc" />
  </g>
</svg>
