<?xml version="1.0" encoding="UTF-8" standalone="no"?>
<!-- Created with Inkscape (http://www.inkscape.org/) -->

<svg
   xmlns:dc="http://purl.org/dc/elements/1.1/"
   xmlns:cc="http://creativecommons.org/ns#"
   xmlns:rdf="http://www.w3.org/1999/02/22-rdf-syntax-ns#"
   xmlns:svg="http://www.w3.org/2000/svg"
   xmlns="http://www.w3.org/2000/svg"
   xmlns:xlink="http://www.w3.org/1999/xlink"
   xmlns:sodipodi="http://sodipodi.sourceforge.net/DTD/sodipodi-0.dtd"
   xmlns:inkscape="http://www.inkscape.org/namespaces/inkscape"
   width="48px"
   height="48px"
   id="svg39291"
   version="1.1"
   inkscape:version="0.48.5 r10040"
   sodipodi:docname="popsteerwander.svg">
  <defs
     id="defs39293">
    <linearGradient
       id="linearGradient43782">
      <stop
         style="stop-color:#ffab02;stop-opacity:1;"
         offset="0"
         id="stop43784" />
      <stop
         style="stop-color:#ffab02;stop-opacity:0;"
         offset="1"
         id="stop43786" />
    </linearGradient>
    <linearGradient
       inkscape:collect="always"
       id="linearGradient39925">
      <stop
         style="stop-color:#ffffff;stop-opacity:1;"
         offset="0"
         id="stop39927" />
      <stop
         style="stop-color:#ffffff;stop-opacity:0;"
         offset="1"
         id="stop39929" />
    </linearGradient>
    <linearGradient
       inkscape:collect="always"
       id="linearGradient39917">
      <stop
         style="stop-color:#ffffff;stop-opacity:1;"
         offset="0"
         id="stop39919" />
      <stop
         style="stop-color:#ffffff;stop-opacity:0;"
         offset="1"
         id="stop39921" />
    </linearGradient>
    <linearGradient
       inkscape:collect="always"
       id="linearGradient39909">
      <stop
         style="stop-color:#ffffff;stop-opacity:1;"
         offset="0"
         id="stop39911" />
      <stop
         style="stop-color:#ffffff;stop-opacity:0;"
         offset="1"
         id="stop39913" />
    </linearGradient>
    <linearGradient
       inkscape:collect="always"
       id="linearGradient39901">
      <stop
         style="stop-color:#ffffff;stop-opacity:1;"
         offset="0"
         id="stop39903" />
      <stop
         style="stop-color:#ffffff;stop-opacity:0;"
         offset="1"
         id="stop39905" />
    </linearGradient>
    <linearGradient
       inkscape:collect="always"
       id="linearGradient39893">
      <stop
         style="stop-color:#ffffff;stop-opacity:1;"
         offset="0"
         id="stop39895" />
      <stop
         style="stop-color:#ffffff;stop-opacity:0;"
         offset="1"
         id="stop39897" />
    </linearGradient>
    <linearGradient
       inkscape:collect="always"
       xlink:href="#linearGradient39893"
       id="linearGradient39899"
       x1="16.785715"
       y1="8.2812614"
       x2="2.1428583"
       y2="13.924118"
       gradientUnits="userSpaceOnUse"
       gradientTransform="translate(-61.785714,1.4285714)" />
    <linearGradient
       inkscape:collect="always"
       xlink:href="#linearGradient39901"
       id="linearGradient39907"
       x1="13.330122"
       y1="26.635086"
       x2="1.6400757"
       y2="43.135086"
       gradientUnits="userSpaceOnUse"
       gradientTransform="translate(-61.785714,1.4285714)" />
    <linearGradient
       inkscape:collect="always"
       xlink:href="#linearGradient39909"
       id="linearGradient39915"
       x1="24.928574"
       y1="26.142859"
       x2="43"
       y2="45.785717"
       gradientUnits="userSpaceOnUse"
       gradientTransform="translate(-61.785714,1.4285714)" />
    <linearGradient
       inkscape:collect="always"
       xlink:href="#linearGradient39917"
       id="linearGradient39923"
       x1="33.857143"
       y1="19.285715"
       x2="47.357143"
       y2="30.714287"
       gradientUnits="userSpaceOnUse"
       gradientTransform="translate(-61.785714,1.4285714)" />
    <linearGradient
       inkscape:collect="always"
       xlink:href="#linearGradient39925"
       id="linearGradient39931"
       x1="34.42857"
       y1="7.3456559"
       x2="46.857143"
       y2="8.5599422"
       gradientUnits="userSpaceOnUse"
       gradientTransform="translate(-61.785714,1.4285714)" />
    <linearGradient
       inkscape:collect="always"
       xlink:href="#linearGradient43782"
       id="linearGradient43788"
       x1="36.696632"
       y1="36.126442"
       x2="7.4303765"
       y2="33.769299"
       gradientUnits="userSpaceOnUse"
       gradientTransform="matrix(0.98422805,0,0,0.98429922,-0.09481411,-0.21989061)" />
  </defs>
  <sodipodi:namedview
     id="base"
     pagecolor="#ffffff"
     bordercolor="#666666"
     borderopacity="1.0"
     inkscape:pageopacity="0.0"
     inkscape:pageshadow="2"
     inkscape:zoom="7"
     inkscape:cx="12.785714"
     inkscape:cy="21.75"
     inkscape:current-layer="layer1"
     showgrid="true"
     inkscape:grid-bbox="true"
     inkscape:document-units="px"
     inkscape:window-width="2035"
     inkscape:window-height="1466"
     inkscape:window-x="526"
     inkscape:window-y="0"
     inkscape:window-maximized="0" />
  <metadata
     id="metadata39296">
    <rdf:RDF>
      <cc:Work
         rdf:about="">
        <dc:format>image/svg+xml</dc:format>
        <dc:type
           rdf:resource="http://purl.org/dc/dcmitype/StillImage" />
        <dc:title />
      </cc:Work>
    </rdf:RDF>
  </metadata>
  <g
     id="layer1"
     inkscape:label="Layer 1"
     inkscape:groupmode="layer">
    <path
       style="fill:none;stroke:#000000;stroke-width:7;stroke-linecap:butt;stroke-linejoin:miter;stroke-miterlimit:4;stroke-opacity:1;stroke-dasharray:none"
       d="m 42.216273,21.823277 c -2.069755,-0.222541 -6.049111,-0.738028 -5.469969,-3.484489 0.507012,-2.40439 3.22346,-3.944816 3.012368,-6.678753 C 39.515544,8.5111834 37.119001,6.0369513 34.262751,4.9816096 30.50245,3.5922334 26.246828,2.8611968 22.434504,4.0897495 20.003539,4.8731478 20.880399,8.1931989 19.873053,10.096157 18.744503,12.228082 16.23649,11.209046 14.979112,9.6970134 13.665847,8.1177764 11.661662,6.7190021 9.4282166,7.3082341 5.9148431,8.2351403 2.6801308,12.111465 4.1925971,15.727028 c 1.143761,2.73417 4.4971701,3.401431 7.2261679,3.141827 4.539054,-0.431793 9.076093,-2.650595 13.610609,-1.466631 2.754076,0.719086 5.800505,4.340108 5.536063,6.772986 -0.239632,2.204589 -2.692022,5.934999 -5.907289,5.807255 -4.72599,-0.187766 -9.350188,-3.058418 -14.08739,-1.592114 -3.1320349,0.96946 -4.2023189,4.75418 -3.9339535,7.684659 0.40858,4.461582 4.5123785,8.168607 9.0773275,8.353776 5.879254,0.238482 11.508836,-2.108376 16.408453,-5.108363 1.85683,-1.136919 3.587166,-2.502373 5.044441,-4.127337"
       id="path43766"
       inkscape:connector-curvature="0"
       sodipodi:nodetypes="cssssssssssssssssc" />
    <path
       sodipodi:nodetypes="cccc"
       style="fill:#000000;stroke:none"
       d="M 46.013094,27.258719 42.900589,45.341162 28.247826,28.010172 z"
       id="path43770"
       inkscape:connector-curvature="0" />
    <path
       sodipodi:nodetypes="cssssssssssssssssc"
       inkscape:connector-curvature="0"
       id="path43774"
       d="m 42.216273,21.210219 c -2.069755,-0.22254 -6.049111,-0.738028 -5.469969,-3.484489 0.507012,-2.40439 3.22346,-3.944816 3.012368,-6.678752 C 39.515544,7.8981253 37.119001,5.4238932 34.262751,4.3685515 30.50245,2.9791753 26.246828,2.2481387 22.434504,3.4766914 20.003539,4.2600897 20.880399,7.5801408 19.873053,9.4830988 18.744503,11.615025 16.23649,10.595988 14.979112,9.0839553 13.665847,7.5047182 11.661662,6.105944 9.4282166,6.695176 5.9148431,7.6220822 2.6801308,11.498408 4.1925971,15.11397 c 1.143761,2.734171 4.4971701,3.401432 7.2261679,3.141827 4.539054,-0.431792 9.076093,-2.650594 13.610609,-1.466631 2.754076,0.719087 5.800505,4.340109 5.536063,6.772987 -0.239632,2.204589 -2.692022,5.934999 -5.907289,5.807255 -4.72599,-0.187768 -9.350188,-3.058419 -14.08739,-1.592114 -3.1320349,0.969459 -4.2023189,4.75418 -3.9339535,7.684659 0.40858,4.461581 4.5123785,8.168606 9.0773275,8.353775 5.879254,0.238482 11.508836,-2.108375 16.408453,-5.108363 1.85683,-1.136919 3.587166,-2.502373 5.044441,-4.127337"
       style="fill:none;stroke:#fce94f;stroke-width:4;stroke-linecap:butt;stroke-linejoin:miter;stroke-miterlimit:4;stroke-opacity:1;stroke-dasharray:none" />
    <path
       style="fill:none;stroke:url(#linearGradient43788);stroke-width:4;stroke-linecap:butt;stroke-linejoin:miter;stroke-miterlimit:4;stroke-opacity:1;stroke-dasharray:none"
       d="m 6.6368045,35.461953 c 0.40858,4.461581 4.5123785,8.168606 9.0773275,8.353775 5.879254,0.238482 11.508836,-2.108375 16.408453,-5.108363 1.85683,-1.136919 3.587166,-2.502373 5.044441,-4.127337"
       id="path43776"
       inkscape:connector-curvature="0" />
    <path
       inkscape:connector-curvature="0"
       id="path43772"
       d="M 44.468882,28.000537 42.182178,41.986265 31.037968,28.77545 z"
       style="fill:#fcaf3e;stroke:none"
       sodipodi:nodetypes="cccc" />
  </g>
</svg>
