<?xml version="1.0" encoding="UTF-8" standalone="no"?>
<!-- Created with Inkscape (http://www.inkscape.org/) -->
<svg
   xmlns:a="http://ns.adobe.com/AdobeSVGViewerExtensions/3.0/"
   xmlns:i="http://ns.adobe.com/AdobeIllustrator/10.0/"
   xmlns:dc="http://purl.org/dc/elements/1.1/"
   xmlns:cc="http://web.resource.org/cc/"
   xmlns:rdf="http://www.w3.org/1999/02/22-rdf-syntax-ns#"
   xmlns:svg="http://www.w3.org/2000/svg"
   xmlns="http://www.w3.org/2000/svg"
   xmlns:sodipodi="http://sodipodi.sourceforge.net/DTD/sodipodi-0.dtd"
   xmlns:inkscape="http://www.inkscape.org/namespaces/inkscape"
   width="48px"
   height="48px"
   id="svg17591"
   sodipodi:version="0.32"
   inkscape:version="0.45.1"
   sodipodi:docbase="C:\dev\src\houdini\support\icons\Incoming"
   sodipodi:docname="autorig_leg.svg"
   inkscape:output_extension="org.inkscape.output.svg.inkscape">
  <defs
     id="defs17593">
    <linearGradient
       y2="283.06021"
       x2="16.530399"
       y1="283.7749"
       x1="20.3794"
       gradientUnits="userSpaceOnUse"
       id="XMLID_83_"
       gradientTransform="translate(-0.4627263,-251.58294)">
						<stop
   id="stop15862"
   style="stop-color:#F4B167"
   offset="0" />

						<stop
   id="stop15864"
   style="stop-color:#F3D196"
   offset="0.2921" />

						<stop
   id="stop15866"
   style="stop-color:#F3D196"
   offset="0.3764" />

						<stop
   id="stop15868"
   style="stop-color:#EE8424"
   offset="1" />

						<a:midPointStop
   style="stop-color:#F4B167"
   offset="0" />

						<a:midPointStop
   style="stop-color:#F4B167"
   offset="0.5" />

						<a:midPointStop
   style="stop-color:#F3D196"
   offset="0.2921" />

						<a:midPointStop
   style="stop-color:#F3D196"
   offset="0.5" />

						<a:midPointStop
   style="stop-color:#F3D196"
   offset="0.3764" />

						<a:midPointStop
   style="stop-color:#F3D196"
   offset="0.5" />

						<a:midPointStop
   style="stop-color:#EE8424"
   offset="1" />

					</linearGradient>
    <radialGradient
       gradientUnits="userSpaceOnUse"
       fy="274.20071"
       fx="20.971201"
       r="1.6964"
       cy="274.20071"
       cx="20.971201"
       id="XMLID_84_"
       gradientTransform="translate(-0.4627263,-251.58294)">
						<stop
   id="stop15873"
   style="stop-color:#F3D196"
   offset="0" />

						<stop
   id="stop15875"
   style="stop-color:#F3D196"
   offset="0.1292" />

						<stop
   id="stop15877"
   style="stop-color:#EE8424"
   offset="1" />

						<a:midPointStop
   style="stop-color:#F3D196"
   offset="0" />

						<a:midPointStop
   style="stop-color:#F3D196"
   offset="0.5" />

						<a:midPointStop
   style="stop-color:#F3D196"
   offset="0.1292" />

						<a:midPointStop
   style="stop-color:#F3D196"
   offset="0.5" />

						<a:midPointStop
   style="stop-color:#EE8424"
   offset="1" />

					</radialGradient>
    <linearGradient
       y2="263.72531"
       x2="18.2875"
       y1="264.4097"
       x1="24.1919"
       gradientUnits="userSpaceOnUse"
       id="XMLID_85_"
       gradientTransform="translate(-0.4627263,-251.58294)">
						<stop
   id="stop15882"
   style="stop-color:#F4B167"
   offset="0" />

						<stop
   id="stop15884"
   style="stop-color:#F3D196"
   offset="0.2921" />

						<stop
   id="stop15886"
   style="stop-color:#F3D196"
   offset="0.4213" />

						<stop
   id="stop15888"
   style="stop-color:#EE8424"
   offset="1" />

						<a:midPointStop
   style="stop-color:#F4B167"
   offset="0" />

						<a:midPointStop
   style="stop-color:#F4B167"
   offset="0.5" />

						<a:midPointStop
   style="stop-color:#F3D196"
   offset="0.2921" />

						<a:midPointStop
   style="stop-color:#F3D196"
   offset="0.5" />

						<a:midPointStop
   style="stop-color:#F3D196"
   offset="0.4213" />

						<a:midPointStop
   style="stop-color:#F3D196"
   offset="0.5" />

						<a:midPointStop
   style="stop-color:#EE8424"
   offset="1" />

					</linearGradient>
    <radialGradient
       gradientUnits="userSpaceOnUse"
       fy="254.9565"
       fx="22.834"
       r="2.5943"
       cy="254.9565"
       cx="22.834"
       id="XMLID_86_"
       gradientTransform="translate(-0.4627263,-251.58294)">
						<stop
   id="stop15893"
   style="stop-color:#F3D196"
   offset="0" />

						<stop
   id="stop15895"
   style="stop-color:#F3D196"
   offset="0.1292" />

						<stop
   id="stop15897"
   style="stop-color:#EE8424"
   offset="1" />

						<a:midPointStop
   style="stop-color:#F3D196"
   offset="0" />

						<a:midPointStop
   style="stop-color:#F3D196"
   offset="0.5" />

						<a:midPointStop
   style="stop-color:#F3D196"
   offset="0.1292" />

						<a:midPointStop
   style="stop-color:#F3D196"
   offset="0.5" />

						<a:midPointStop
   style="stop-color:#EE8424"
   offset="1" />

					</radialGradient>
  </defs>
  <sodipodi:namedview
     id="base"
     pagecolor="#ffffff"
     bordercolor="#666666"
     borderopacity="1.0"
     inkscape:pageopacity="0.0"
     inkscape:pageshadow="2"
     inkscape:zoom="7"
     inkscape:cx="24"
     inkscape:cy="24"
     inkscape:current-layer="layer1"
     showgrid="true"
     inkscape:grid-bbox="true"
     inkscape:document-units="px"
     inkscape:window-width="744"
     inkscape:window-height="573"
     inkscape:window-x="154"
     inkscape:window-y="168" />
  <metadata
     id="metadata17596">
    <rdf:RDF>
      <cc:Work
         rdf:about="">
        <dc:format>image/svg+xml</dc:format>
        <dc:type
           rdf:resource="http://purl.org/dc/dcmitype/StillImage" />
      </cc:Work>
    </rdf:RDF>
  </metadata>
  <g
     id="layer1"
     inkscape:label="Layer 1"
     inkscape:groupmode="layer">
    <g
       transform="translate(-0.4627263,-251.58294)"
       id="g15819">
						<path
   style="fill:none;stroke:#66330d;stroke-width:1.20000005"
   id="path15821"
   d="M 29.017,288.463 C 30.697,290.568 32.765,291.846 34.416,293.754 C 34.876,294.285 32.227,295.725 31.002,295.057 C 29.693,294.344 26.419,291.719 26.334,291.176 C 26.247,290.637 26.371,288.905 26.615,288.742 C 27.375,288.245 28.792,288.182 29.017,288.463 z "
   i:knockout="Off" />

						<path
   style="fill:none;stroke:#66330d;stroke-width:1.20000005"
   id="path15823"
   d="M 18.693,291.831 C 19.397,293.505 22.165,297.253 22.436,297.931 C 22.675,298.538 19.818,299.384 18.563,298.769 C 17.803,298.398 16.177,294.445 16.076,293.906 C 16.003,293.519 16.246,292.099 16.441,291.986 C 17.224,291.528 18.553,291.497 18.693,291.831 z "
   i:knockout="Off" />

						<path
   style="fill:none;stroke:#66330d;stroke-width:1.20000005"
   id="path15825"
   d="M 18.576,292.077 C 18.576,292.489 18.116,292.823 17.548,292.823 C 16.98,292.823 16.517,292.489 16.517,292.077 C 16.517,291.661 16.98,291.325 17.548,291.325 C 18.116,291.325 18.576,291.661 18.576,292.077 z "
   i:knockout="Off" />

						<circle
   style="fill:none;stroke:#66330d;stroke-width:1.20000005"
   sodipodi:ry="1.029"
   sodipodi:rx="1.029"
   sodipodi:cy="288.59"
   sodipodi:cx="27.857"
   id="circle15827"
   r="1.029"
   cy="288.59"
   cx="27.857"
   i:knockout="Off" />
 
						<path
   style="fill:none;stroke:#66330d;stroke-width:1.20000005"
   id="path15829"
   d="M 26.861,273.85 C 27.337,273.504 29.225,273.438 30.21,274.204 C 30.817,274.673 29.087,287.979 29.011,288.245 C 28.838,288.839 27.329,289.079 26.694,288.304 C 26.449,288.01 26.079,274.417 26.861,273.85 z "
   i:knockout="Off" />

						<path
   style="fill:none;stroke:#66330d;stroke-width:1.20000005"
   id="path15831"
   d="M 27.625,271.5 C 28.007,271.223 29.739,271.293 30.073,271.676 C 30.721,272.42 30.724,273.606 30.106,274.248 C 29.668,274.707 27.538,274.574 27.064,273.928 C 26.75,273.5 26.661,272.206 27.625,271.5 z "
   i:knockout="Off" />

						<path
   style="fill:none;stroke:#66330d;stroke-width:1.20000005"
   id="path15833"
   d="M 31.137,255.455 C 30.095,254.76 26.465,254.75 25.915,255.697 C 25.241,256.857 26.713,270.667 27.156,271.553 C 27.517,272.276 30.197,272.584 30.653,271.666 C 30.906,271.167 31.848,255.927 31.137,255.455 z "
   i:knockout="Off" />

						<path
   style="fill:none;stroke:#66330d;stroke-width:1.20000005"
   id="path15835"
   d="M 18.421,274.624 C 18.705,274.325 21.788,274.983 21.765,275.44 C 21.622,278.401 19.076,289.876 18.791,291.735 C 18.661,292.577 16.816,292.389 16.449,291.551 C 16.042,290.618 17.11,276.006 18.421,274.624 z "
   i:knockout="Off" />

						<path
   style="fill:none;stroke:#66330d;stroke-width:1.20000005"
   id="path15837"
   d="M 21.942,272.831 C 22.451,273.394 22.288,275.097 21.607,275.444 C 20.926,275.794 19.405,275.436 18.848,274.954 C 18.063,274.276 18.829,272.546 19.452,272.337 C 19.751,272.237 21.706,272.567 21.942,272.831 z "
   i:knockout="Off" />

						<path
   style="fill:none;stroke:#66330d;stroke-width:1.20000005"
   id="path15839"
   d="M 19.356,255.357 C 20.395,254.656 24.292,255.253 24.842,256.201 C 25.516,257.361 22.66,271.973 22.335,272.495 C 21.663,273.581 19.181,272.835 18.936,272.362 C 18.466,271.461 18.439,255.978 19.356,255.357 z "
   i:knockout="Off" />

						<path
   style="fill:none;stroke:#66330d;stroke-width:1.20000005"
   id="path15841"
   d="M 24.72,253.621 C 25.32,254.223 24.958,256.105 24.519,256.26 C 23.014,256.789 20.009,256.313 19.508,255.487 C 19.022,254.68 19.293,252.93 19.744,252.731 C 20.956,252.191 24.276,253.175 24.72,253.621 z "
   i:knockout="Off" />

						<path
   style="fill:none;stroke:#66330d;stroke-width:1.20000005"
   id="path15843"
   d="M 30.6,252.826 C 31.137,253.017 31.201,255.308 30.86,255.656 C 30.033,256.506 26.703,256.41 26.07,255.685 C 25.45,254.974 25.414,253.203 25.822,252.929 C 26.921,252.189 30.005,252.617 30.6,252.826 z "
   i:knockout="Off" />

						<path
   style="fill:none;stroke:#66330d;stroke-width:1.20000005"
   id="path15845"
   d="M 19.056,251.779 C 19.064,252.15 19.105,252.299 19.205,252.588 C 19.507,253.461 22.628,254.311 25.58,254.285 C 27.88,254.265 31.018,253.422 31.136,253.017 C 31.216,252.742 31.241,252.419 31.214,251.779"
   i:knockout="Off" />

					</g>
    <path
       style="fill:#ffffff;stroke:#66330d;stroke-width:0.25"
       id="path15847"
       d="M 28.554274,36.880065 C 30.234274,38.985065 32.302274,40.263065 33.953274,42.171065 C 34.413274,42.702065 31.764274,44.142065 30.539274,43.474065 C 29.230274,42.761065 25.956274,40.136065 25.871274,39.593065 C 25.784274,39.054065 25.908274,37.322065 26.152274,37.159065 C 26.912274,36.662065 28.329274,36.599065 28.554274,36.880065 z "
       i:knockout="Off" />
    <path
       style="fill:#ffffff;stroke:#66330d;stroke-width:0.25"
       id="path15849"
       d="M 18.230274,40.248065 C 18.934274,41.922065 21.702274,45.670065 21.973274,46.348065 C 22.212274,46.955065 19.355274,47.801065 18.100274,47.186065 C 17.340274,46.815065 15.714274,42.862065 15.613274,42.323065 C 15.540274,41.936065 15.783274,40.516065 15.978274,40.403065 C 16.761274,39.945065 18.090274,39.914065 18.230274,40.248065 z "
       i:knockout="Off" />
    <path
       style="fill:#ef7916;stroke:#66330d;stroke-width:0.25"
       id="path15851"
       d="M 18.113274,40.494065 C 18.113274,40.906065 17.653274,41.240065 17.085274,41.240065 C 16.517274,41.240065 16.054274,40.906065 16.054274,40.494065 C 16.054274,40.078065 16.517274,39.742065 17.085274,39.742065 C 17.653274,39.742065 18.113274,40.078065 18.113274,40.494065 z "
       i:knockout="Off" />
    <circle
       transform="translate(-0.4627263,-251.58294)"
       style="fill:#ffffff;stroke:#66330d;stroke-width:0.25"
       sodipodi:ry="1.029"
       sodipodi:rx="1.029"
       sodipodi:cy="288.59"
       sodipodi:cx="27.857"
       id="circle15853"
       r="1.029"
       cy="288.59"
       cx="27.857"
       i:knockout="Off" />
    <path
       style="fill:#ffffff;stroke:#66330d;stroke-width:0.25"
       id="path15855"
       d="M 26.398274,22.267065 C 26.874274,21.921065 28.762274,21.855065 29.747274,22.621065 C 30.354274,23.090065 28.624274,36.396065 28.548274,36.662065 C 28.375274,37.256065 26.866274,37.496065 26.231274,36.721065 C 25.986274,36.427065 25.616274,22.834065 26.398274,22.267065 z "
       i:knockout="Off" />
    <path
       style="fill:#ffffff;stroke:#66330d;stroke-width:0.25"
       id="path15857"
       d="M 27.162274,19.917065 C 27.544274,19.640065 29.276274,19.710065 29.610274,20.093065 C 30.258274,20.837065 30.261274,22.023065 29.643274,22.665065 C 29.205274,23.124065 27.075274,22.991065 26.601274,22.345065 C 26.287274,21.917065 26.198274,20.623065 27.162274,19.917065 z "
       i:knockout="Off" />
    <path
       style="fill:#ffffff;stroke:#66330d;stroke-width:0.25"
       id="path15859"
       d="M 30.674274,3.8720648 C 29.632274,3.1770648 26.002274,3.1670648 25.452274,4.1140648 C 24.778274,5.2740648 26.250274,19.084065 26.693274,19.970065 C 27.054274,20.693065 29.734274,21.001065 30.190274,20.083065 C 30.443274,19.584065 31.385274,4.3440648 30.674274,3.8720648 z "
       i:knockout="Off" />
    <path
       style="fill:url(#XMLID_83_);stroke:#66330d;stroke-width:0.25"
       id="path15870"
       d="M 17.958274,23.041065 C 18.242274,22.742065 21.325274,23.400065 21.302274,23.857065 C 21.159274,26.818065 18.613274,38.293065 18.328274,40.152065 C 18.198274,40.994065 16.353274,40.806065 15.986274,39.968065 C 15.579274,39.035065 16.647274,24.423065 17.958274,23.041065 z "
       i:knockout="Off" />
    <path
       style="fill:url(#XMLID_84_);stroke:#66330d;stroke-width:0.25"
       id="path15879"
       d="M 21.479274,21.248065 C 21.988274,21.811065 21.825274,23.514065 21.144274,23.861065 C 20.463274,24.211065 18.942274,23.853065 18.385274,23.371065 C 17.600274,22.693065 18.366274,20.963065 18.989274,20.754065 C 19.288274,20.654065 21.243274,20.984065 21.479274,21.248065 z "
       i:knockout="Off" />
    <path
       style="fill:url(#XMLID_85_);stroke:#66330d;stroke-width:0.25"
       id="path15890"
       d="M 18.893274,3.7740648 C 19.932274,3.0730648 23.829274,3.6700648 24.379274,4.6180648 C 25.053274,5.7780648 22.197274,20.390065 21.872274,20.912065 C 21.200274,21.998065 18.718274,21.252065 18.473274,20.779065 C 18.003274,19.878065 17.976274,4.3950648 18.893274,3.7740648 z "
       i:knockout="Off" />
    <path
       style="fill:url(#XMLID_86_);stroke:#66330d;stroke-width:0.25"
       id="path15899"
       d="M 24.257274,2.0380648 C 24.857274,2.6400648 24.495274,4.5220648 24.056274,4.6770648 C 22.551274,5.2060648 19.546274,4.7300648 19.045274,3.9040648 C 18.559274,3.0970648 18.830274,1.3470648 19.281274,1.1480648 C 20.493274,0.60806478 23.813274,1.5920648 24.257274,2.0380648 z "
       i:knockout="Off" />
    <path
       style="fill:#ffffff;stroke:#66330d;stroke-width:0.25"
       id="path15901"
       d="M 30.137274,1.2430648 C 30.674274,1.4340648 30.738274,3.7250648 30.397274,4.0730648 C 29.570274,4.9230648 26.240274,4.8270648 25.607274,4.1020648 C 24.987274,3.3910648 24.951274,1.6200648 25.359274,1.3460648 C 26.458274,0.60606478 29.542274,1.0340648 30.137274,1.2430648 z "
       i:knockout="Off" />
    <path
       style="fill:#ffffff;stroke:#66330d;stroke-width:0.25"
       id="path15903"
       d="M 18.593274,0.19606478 C 18.612274,0.49306478 18.659274,0.76606478 18.742274,1.0050648 C 19.044274,1.8780648 22.165274,2.7280648 25.117274,2.7020648 C 27.417274,2.6820648 30.555274,1.8390648 30.673274,1.4340648 C 30.745274,1.1860648 30.767274,0.74606478 30.751274,0.19606478"
       i:knockout="Off" />
  </g>
</svg>
