<?xml version="1.0" encoding="UTF-8" standalone="no"?>
<!-- Created with Inkscape (http://www.inkscape.org/) -->
<svg
   xmlns:i="http://ns.adobe.com/AdobeIllustrator/10.0/"
   xmlns:dc="http://purl.org/dc/elements/1.1/"
   xmlns:cc="http://web.resource.org/cc/"
   xmlns:rdf="http://www.w3.org/1999/02/22-rdf-syntax-ns#"
   xmlns:svg="http://www.w3.org/2000/svg"
   xmlns="http://www.w3.org/2000/svg"
   xmlns:sodipodi="http://sodipodi.sourceforge.net/DTD/sodipodi-0.dtd"
   xmlns:inkscape="http://www.inkscape.org/namespaces/inkscape"
   width="48px"
   height="48px"
   id="svg17644"
   sodipodi:version="0.32"
   inkscape:version="0.45.1"
   sodipodi:docbase="C:\dev\src\houdini\support\icons\OBJ"
   sodipodi:docname="autorig_spine_5.svg"
   inkscape:output_extension="org.inkscape.output.svg.inkscape">
  <defs
     id="defs17646" />
  <sodipodi:namedview
     id="base"
     pagecolor="#ffffff"
     bordercolor="#666666"
     borderopacity="1.0"
     inkscape:pageopacity="0.0"
     inkscape:pageshadow="2"
     inkscape:zoom="14"
     inkscape:cx="24"
     inkscape:cy="24"
     inkscape:current-layer="layer1"
     showgrid="true"
     inkscape:grid-bbox="false"
     inkscape:document-units="px"
     inkscape:window-width="1282"
     inkscape:window-height="1040"
     inkscape:window-x="323"
     inkscape:window-y="33" />
  <metadata
     id="metadata17649">
    <rdf:RDF>
      <cc:Work
         rdf:about="">
        <dc:format>image/svg+xml</dc:format>
        <dc:type
           rdf:resource="http://purl.org/dc/dcmitype/StillImage" />
      </cc:Work>
    </rdf:RDF>
  </metadata>
  <g
     id="layer1"
     inkscape:label="Layer 1"
     inkscape:groupmode="layer">
    <path
       style="font-size:24.44213676px;font-style:normal;font-weight:normal;fill:#000000;fill-opacity:1;stroke:#eeeeec;stroke-width:2;stroke-linecap:butt;stroke-linejoin:miter;stroke-miterlimit:4;stroke-dasharray:none;stroke-opacity:1;font-family:Arial Black"
       d="M 34.612229,29.317013 L 46.153023,29.317013 L 46.153023,33.19577 L 38.335836,33.19577 L 37.918123,35.821391 C 38.459153,35.566796 38.994222,35.375842 39.523332,35.248528 C 40.052426,35.121237 40.57556,35.057586 41.092737,35.057574 C 42.843139,35.057586 44.263359,35.586687 45.353402,36.64488 C 46.443418,37.703094 46.988432,39.035794 46.988447,40.642984 C 46.988432,41.772801 46.707968,42.858852 46.147056,43.90114 C 45.586114,44.943433 44.790472,45.739075 43.760128,46.288067 C 42.72976,46.837061 41.410984,47.111557 39.803796,47.111557 C 38.650107,47.111557 37.661523,47.002156 36.838039,46.783355 C 36.014544,46.564553 35.31438,46.23834 34.737542,45.804714 C 34.160699,45.371091 33.69326,44.879782 33.335223,44.330787 C 32.977182,43.781797 32.678817,43.097545 32.440125,42.278029 L 37.357195,41.740971 C 37.476536,42.528661 37.75501,43.127381 38.19262,43.537133 C 38.630216,43.946892 39.151362,44.15177 39.756057,44.151767 C 40.432345,44.15177 40.991283,43.895175 41.432874,43.381983 C 41.874445,42.868798 42.095236,42.102993 42.095246,41.084565 C 42.095236,40.042281 41.872456,39.278465 41.426907,38.793115 C 40.981337,38.307782 40.388584,38.065111 39.648646,38.065102 C 39.179209,38.065111 38.725693,38.180479 38.288097,38.411207 C 37.961877,38.5783 37.603838,38.880644 37.21398,39.318239 L 33.072661,38.721507 L 34.612229,29.317013 z "
       id="path3441" />
    <path
       i:knockout="Off"
       d="M 31.011498,16.558161 C 31.493934,16.615321 33.08233,17.180901 33.4525,18.391785 C 33.822672,19.601166 32.769809,22.295195 31.864105,22.696816 C 30.9584,23.099944 31.011498,16.558161 31.011498,16.558161 z "
       id="path15917"
       style="fill:none;stroke:#66330d;stroke-width:1.19999993" />
    <path
       i:knockout="Off"
       d="M 16.945017,45.327561 C 17.310636,46.371477 21.079094,47.386815 24.641227,47.358236 C 27.419024,47.335672 31.207204,46.324848 31.34981,45.83899 C 31.806456,44.283643 30.586712,36.404625 29.870645,36.004506 C 28.647869,35.321597 19.989821,35.61191 19.319267,36.157935 C 18.642644,36.702457 16.031729,42.711751 16.945017,45.327561 z "
       id="path15927"
       style="fill:none;stroke:#66330d;stroke-width:1.19999993" />
    <path
       i:knockout="Off"
       d="M 20.520805,32.582444 C 21.268731,31.95519 27.079194,30.932332 28.96039,32.334249 C 29.409449,32.668183 29.93133,35.753303 29.561158,36.066179 C 28.11537,37.280071 22.403515,37.80955 19.704609,36.285792 C 18.950614,35.860102 20.112707,32.925401 20.520805,32.582444 z "
       id="path15929"
       style="fill:none;stroke:#66330d;stroke-width:1.19999993" />
    <path
       i:knockout="Off"
       d="M 16.503544,15.810572 C 17.029975,15.332235 25.323918,13.724243 31.129832,16.15353 C 31.870173,16.461892 32.405707,22.371908 32.302544,22.838211 C 31.918719,24.604147 29.762932,31.585155 29.212228,32.250014 C 28.737376,32.821611 23.419968,33.248806 20.335718,32.615536 C 20.265933,32.597485 20.226488,33.145015 20.062642,32.973537 C 19.873005,32.773476 18.980955,31.621257 18.451491,30.842079 C 17.614055,29.61465 15.124506,24.936576 14.46457,20.945923 C 14.101986,18.751291 15.311108,16.899615 16.503544,15.810572 z "
       id="path15931"
       style="fill:none;stroke:#66330d;stroke-width:1.19999993" />
    <path
       i:knockout="Off"
       d="M 16.640083,16.490473 C 18.339225,17.086136 19.1979,20.812048 17.928094,22.224497 C 17.111897,23.125514 15.544741,23.230809 14.928802,22.836707 C 14.255212,22.40801 12.481732,19.834317 12.501453,19.301829 C 12.55607,17.942029 13.715128,17.092153 14.452435,16.725129 C 15.477988,16.216707 16.241087,16.355094 16.640083,16.490473 z "
       id="path15933"
       style="fill:none;stroke:#66330d;stroke-width:1.19999993" />
    <path
       i:knockout="Off"
       d="M 22.600738,15.123151 C 22.684178,15.433017 23.925159,15.918875 25.207103,15.918875 C 26.489045,15.918875 27.104985,15.529286 27.297657,15.269059 C 27.481224,15.028386 27.519151,12.298256 27.255178,12.165887 C 26.857699,11.97034 23.218194,11.904155 22.714519,12.186945 C 22.423238,12.353912 22.530951,14.862924 22.600738,15.123151 z "
       id="path15945"
       style="fill:none;stroke:#66330d;stroke-width:1.19999993" />
    <path
       i:knockout="Off"
       d="M 27.071609,0.84524919 C 28.490091,1.2679315 30.037526,3.1015558 29.958637,6.4123077 C 29.875197,9.7200508 28.550775,11.767272 27.777057,12.296753 C 27.109536,12.752526 22.691763,12.87587 22.125887,12.042542 C 20.407023,9.5019411 19.692472,4.7982969 21.109437,2.6743606 C 22.329178,0.84524919 25.465008,0.36240068 27.071609,0.84524919 z "
       id="path15947"
       style="fill:none;stroke:#66330d;stroke-width:1.19999993" />
    <path
       style="fill:#ffffff;stroke:#66330d;stroke-width:0.25"
       id="path15959"
       d="M 31.0115,16.558139 C 31.493934,16.615298 33.08233,17.180878 33.4525,18.391763 C 33.822672,19.601143 32.769809,22.295171 31.864105,22.696793 C 30.9584,23.09992 31.0115,16.558139 31.0115,16.558139 z "
       i:knockout="Off" />
    <path
       style="fill:#ffffff;stroke:#66330d;stroke-width:0.25"
       id="path15969"
       d="M 16.945017,45.327538 C 17.310636,46.371455 21.079094,47.386791 24.641227,47.358213 C 27.419024,47.33565 31.207204,46.324824 31.34981,45.838967 C 31.806456,44.28362 30.586713,36.404601 29.870645,36.004483 C 28.647869,35.321575 19.989822,35.611886 19.319267,36.157912 C 18.642644,36.702433 16.031729,42.711727 16.945017,45.327538 z "
       i:knockout="Off" />
    <path
       style="fill:#ffffff;stroke:#66330d;stroke-width:0.25"
       id="path15971"
       d="M 20.520805,32.582419 C 21.268731,31.955167 27.079195,30.932308 28.96039,32.334226 C 29.409449,32.66816 29.93133,35.753281 29.561158,36.066157 C 28.11537,37.280047 22.403515,37.809528 19.704609,36.28577 C 18.950614,35.86008 20.112707,32.925378 20.520805,32.582419 z "
       i:knockout="Off" />
    <path
       style="fill:#ffffff;stroke:#66330d;stroke-width:0.25"
       id="path15973"
       d="M 16.503544,15.810549 C 17.029975,15.332213 25.323918,13.724219 31.129832,16.153508 C 31.870173,16.46187 32.405707,22.371885 32.302544,22.838189 C 31.918719,24.604124 29.762932,31.585133 29.212228,32.249991 C 28.737376,32.821589 23.419968,33.248782 20.33572,32.615512 C 20.265933,32.597463 20.226488,33.144991 20.062643,32.973512 C 19.873005,32.773454 18.980957,31.621235 18.451491,30.842056 C 17.614055,29.614626 15.124506,24.936554 14.464572,20.945901 C 14.101986,18.751267 15.31111,16.899593 16.503544,15.810549 z "
       i:knockout="Off" />
    <path
       style="fill:#ffffff;stroke:#66330d;stroke-width:0.25"
       id="path15975"
       d="M 16.640083,16.490449 C 18.339225,17.086114 19.1979,20.812026 17.928094,22.224474 C 17.111898,23.125492 15.544741,23.230787 14.928802,22.836685 C 14.255214,22.407986 12.481732,19.834294 12.501455,19.301805 C 12.55607,17.942006 13.715128,17.092131 14.452435,16.725105 C 15.477988,16.216685 16.241087,16.355072 16.640083,16.490449 z "
       i:knockout="Off" />
    <path
       style="fill:#ffffff;stroke:#66330d;stroke-width:0.25"
       id="path15987"
       d="M 22.600738,15.123128 C 22.684178,15.432994 23.925159,15.918853 25.207103,15.918853 C 26.489045,15.918853 27.104987,15.529264 27.297657,15.269037 C 27.481224,15.028364 27.519151,12.298234 27.255178,12.165865 C 26.8577,11.970318 23.218194,11.904133 22.71452,12.186923 C 22.423238,12.353889 22.530953,14.862902 22.600738,15.123128 z "
       i:knockout="Off" />
    <path
       style="fill:#ffffff;stroke:#66330d;stroke-width:0.25"
       id="path15989"
       d="M 27.071609,0.84522705 C 28.490091,1.2679078 30.037526,3.1015321 29.958637,6.4122841 C 29.875197,9.7200286 28.550775,11.76725 27.777058,12.296729 C 27.109536,12.752503 22.691763,12.875848 22.125887,12.04252 C 20.407023,9.501919 19.692472,4.7982734 21.109437,2.6743385 C 22.329178,0.84522705 25.465008,0.36237705 27.071609,0.84522705 z "
       i:knockout="Off" />
    <path
       style="fill:#ed2728;fill-opacity:1;stroke:none;stroke-width:1.20000005;stroke-linecap:round;stroke-opacity:1"
       d="M 24.541996,9.3060338 C 24.068165,9.3854842 23.721886,9.7932 23.72356,10.269676 C 23.623445,13.816492 22.713232,15.335723 21.830927,17.319479 C 20.948622,19.303234 20.241388,21.688145 20.961339,26.042975 C 21.571688,29.747149 22.587398,32.14288 23.160886,33.904265 C 23.734374,35.66565 23.90135,36.615743 23.007429,38.31673 C 22.567224,39.15209 22.018676,40.092106 21.728622,41.258374 C 21.43857,42.424644 21.506167,43.85444 22.291297,45.265097 C 22.437143,45.614683 22.916834,45.92032 23.298005,45.937184 C 23.679179,45.954046 24.249999,45.679084 24.426664,45.343767 C 24.603332,45.00845 24.211018,44.60203 23.979321,44.301455 C 23.416003,43.289329 23.895748,43.379491 24.095318,42.577043 C 24.29489,41.774595 24.984634,40.700945 25.454507,39.809288 C 26.580758,37.666218 26.854462,35.216363 26.229097,33.295649 C 25.603734,31.374935 23.201271,29.226817 22.626518,25.738667 C 21.954686,21.674909 22.569711,19.636051 23.393801,17.783186 C 24.217891,15.93032 25.498064,12.938604 26.075641,10.320395 C 26.094495,10.018031 25.970362,9.724186 25.739804,9.5254019 C 25.509246,9.3266188 24.841377,9.2455369 24.541996,9.3060338 L 24.541996,9.3060338 z "
       id="path15991"
       sodipodi:nodetypes="ccssssscsscssssscscc" />
    <path
       sodipodi:type="arc"
       style="opacity:1;color:#000000;fill:#204a87;fill-opacity:1;fill-rule:nonzero;stroke:#eeeeec;stroke-width:0.69642859;stroke-linecap:round;stroke-linejoin:miter;marker:none;marker-start:none;marker-mid:none;marker-end:none;stroke-miterlimit:4;stroke-dasharray:none;stroke-dashoffset:0;stroke-opacity:1;visibility:visible;display:inline;overflow:visible;enable-background:accumulate"
       id="path2352"
       sodipodi:cx="25"
       sodipodi:cy="10.142858"
       sodipodi:rx="2.7857144"
       sodipodi:ry="2.7857144"
       d="M 27.785714 10.142858 A 2.7857144 2.7857144 0 1 1  22.214286,10.142858 A 2.7857144 2.7857144 0 1 1  27.785714 10.142858 z"
       transform="matrix(0.7179487,0,0,0.7179487,7.0512818,2.8608059)" />
    <path
       sodipodi:type="arc"
       style="opacity:1;color:#000000;fill:#204a87;fill-opacity:1;fill-rule:nonzero;stroke:#eeeeec;stroke-width:0.69642859;stroke-linecap:round;stroke-linejoin:miter;marker:none;marker-start:none;marker-mid:none;marker-end:none;stroke-miterlimit:4;stroke-dasharray:none;stroke-dashoffset:0;stroke-opacity:1;visibility:visible;display:inline;overflow:visible;enable-background:accumulate"
       id="path3323"
       sodipodi:cx="25"
       sodipodi:cy="10.142858"
       sodipodi:rx="2.7857144"
       sodipodi:ry="2.7857144"
       d="M 27.785714 10.142858 A 2.7857144 2.7857144 0 1 1  22.214286,10.142858 A 2.7857144 2.7857144 0 1 1  27.785714 10.142858 z"
       transform="matrix(0.7179487,0,0,0.7179487,4.2655675,20.64652)" />
    <path
       sodipodi:type="arc"
       style="opacity:1;color:#000000;fill:#204a87;fill-opacity:1;fill-rule:nonzero;stroke:#eeeeec;stroke-width:0.62903225;stroke-linecap:round;stroke-linejoin:miter;marker:none;marker-start:none;marker-mid:none;marker-end:none;stroke-miterlimit:4;stroke-dasharray:none;stroke-dashoffset:0;stroke-opacity:1;visibility:visible;display:inline;overflow:visible;enable-background:accumulate"
       id="path3325"
       sodipodi:cx="25"
       sodipodi:cy="10.142858"
       sodipodi:rx="2.7857144"
       sodipodi:ry="2.7857144"
       d="M 27.785714 10.142858 A 2.7857144 2.7857144 0 1 1  22.214286,10.142858 A 2.7857144 2.7857144 0 1 1  27.785714 10.142858 z"
       transform="matrix(0.7948718,0,0,0.7948718,3.4853478,37.080585)" />
    <path
       style="font-size:24.44213676px;font-style:normal;font-weight:normal;fill:#555753;fill-opacity:1;stroke:none;stroke-width:1px;stroke-linecap:butt;stroke-linejoin:miter;stroke-opacity:1;font-family:Arial Black"
       d="M 34.820022,29.133468 L 46.360816,29.133468 L 46.360816,33.012225 L 38.543629,33.012225 L 38.125916,35.637846 C 38.666946,35.383251 39.202015,35.192297 39.731125,35.064983 C 40.260219,34.937692 40.783353,34.874041 41.30053,34.874029 C 43.050932,34.874041 44.471152,35.403142 45.561195,36.461335 C 46.651211,37.519549 47.196225,38.852249 47.19624,40.459439 C 47.196225,41.589256 46.915761,42.675307 46.354849,43.717595 C 45.793907,44.759888 44.998265,45.55553 43.967921,46.104522 C 42.937553,46.653516 41.618777,46.928012 40.011589,46.928012 C 38.8579,46.928012 37.869316,46.818611 37.045832,46.59981 C 36.222337,46.381008 35.522173,46.054795 34.945335,45.621169 C 34.368492,45.187546 33.901053,44.696237 33.543016,44.147242 C 33.184975,43.598252 32.88661,42.914 32.647918,42.094484 L 37.564988,41.557426 C 37.684329,42.345116 37.962803,42.943836 38.400413,43.353588 C 38.838009,43.763347 39.359155,43.968225 39.96385,43.968222 C 40.640138,43.968225 41.199076,43.71163 41.640667,43.198438 C 42.082238,42.685253 42.303029,41.919448 42.303039,40.90102 C 42.303029,39.858736 42.080249,39.09492 41.6347,38.60957 C 41.18913,38.124237 40.596377,37.881566 39.856439,37.881557 C 39.387002,37.881566 38.933486,37.996934 38.49589,38.227662 C 38.16967,38.394755 37.811631,38.697099 37.421773,39.134694 L 33.280454,38.537962 L 34.820022,29.133468 z "
       id="text3327" />
    <path
       sodipodi:type="arc"
       style="opacity:1;color:#000000;fill:#204a87;fill-opacity:1;fill-rule:nonzero;stroke:#eeeeec;stroke-width:0.67241374;stroke-linecap:round;stroke-linejoin:miter;marker:none;marker-start:none;marker-mid:none;marker-end:none;stroke-miterlimit:4;stroke-dasharray:none;stroke-dashoffset:0;stroke-opacity:1;visibility:visible;display:inline;overflow:visible;enable-background:accumulate"
       id="path3349"
       sodipodi:cx="25"
       sodipodi:cy="10.142858"
       sodipodi:rx="2.7857144"
       sodipodi:ry="2.7857144"
       d="M 27.785714 10.142858 A 2.7857144 2.7857144 0 1 1  22.214286,10.142858 A 2.7857144 2.7857144 0 1 1  27.785714 10.142858 z"
       transform="matrix(0.7435898,0,0,0.7435898,3.767399,11.743589)" />
    <path
       sodipodi:type="arc"
       style="opacity:1;color:#000000;fill:#204a87;fill-opacity:1;fill-rule:nonzero;stroke:#eeeeec;stroke-width:0.62903225;stroke-linecap:round;stroke-linejoin:miter;marker:none;marker-start:none;marker-mid:none;marker-end:none;stroke-miterlimit:4;stroke-dasharray:none;stroke-dashoffset:0;stroke-opacity:1;visibility:visible;display:inline;overflow:visible;enable-background:accumulate"
       id="path3351"
       sodipodi:cx="25"
       sodipodi:cy="10.142858"
       sodipodi:rx="2.7857144"
       sodipodi:ry="2.7857144"
       d="M 27.785714 10.142858 A 2.7857144 2.7857144 0 1 1  22.214286,10.142858 A 2.7857144 2.7857144 0 1 1  27.785714 10.142858 z"
       transform="matrix(0.7948718,0,0,0.7948718,4.9139192,27.723442)" />
  </g>
</svg>
