<?xml version="1.0" encoding="UTF-8" standalone="no"?>
<!-- Created with Inkscape (http://www.inkscape.org/) -->
<svg
   xmlns:a="http://ns.adobe.com/AdobeSVGViewerExtensions/3.0/"
   xmlns:i="http://ns.adobe.com/AdobeIllustrator/10.0/"
   xmlns:dc="http://purl.org/dc/elements/1.1/"
   xmlns:cc="http://web.resource.org/cc/"
   xmlns:rdf="http://www.w3.org/1999/02/22-rdf-syntax-ns#"
   xmlns:svg="http://www.w3.org/2000/svg"
   xmlns="http://www.w3.org/2000/svg"
   xmlns:sodipodi="http://sodipodi.sourceforge.net/DTD/sodipodi-0.dtd"
   xmlns:inkscape="http://www.inkscape.org/namespaces/inkscape"
   width="48px"
   height="48px"
   id="svg17529"
   sodipodi:version="0.32"
   inkscape:version="0.45.1"
   sodipodi:docbase="C:\dev\src\houdini\support\icons\Incoming"
   sodipodi:docname="autorig_arm.svg"
   inkscape:output_extension="org.inkscape.output.svg.inkscape">
  <defs
     id="defs17531">
    <radialGradient
       gradientUnits="userSpaceOnUse"
       fy="182.5645"
       fx="35.8228"
       r="5.0497999"
       cy="182.5645"
       cx="35.8228"
       id="XMLID_77_"
       gradientTransform="matrix(1.0244626,0,0,1.0244587,-1.5296054,-172.42153)">
						<stop
   id="stop15750"
   style="stop-color:#F3D196"
   offset="0" />

						<stop
   id="stop15752"
   style="stop-color:#F3D196"
   offset="0.1292" />

						<stop
   id="stop15754"
   style="stop-color:#EE8424"
   offset="1" />

						<a:midPointStop
   style="stop-color:#F3D196"
   offset="0" />

						<a:midPointStop
   style="stop-color:#F3D196"
   offset="0.5" />

						<a:midPointStop
   style="stop-color:#F3D196"
   offset="0.1292" />

						<a:midPointStop
   style="stop-color:#F3D196"
   offset="0.5" />

						<a:midPointStop
   style="stop-color:#EE8424"
   offset="1" />

					</radialGradient>
    <linearGradient
       y2="191.7085"
       x2="31.050301"
       y1="187.7085"
       x1="27.550301"
       gradientUnits="userSpaceOnUse"
       id="XMLID_78_"
       gradientTransform="matrix(1.0244626,0,0,1.0244587,-1.5296054,-172.42153)">
						<stop
   id="stop15759"
   style="stop-color:#F4B167"
   offset="0" />

						<stop
   id="stop15761"
   style="stop-color:#F3D196"
   offset="0.2921" />

						<stop
   id="stop15763"
   style="stop-color:#F3D196"
   offset="0.4213" />

						<stop
   id="stop15765"
   style="stop-color:#EE8424"
   offset="1" />

						<a:midPointStop
   style="stop-color:#F4B167"
   offset="0" />

						<a:midPointStop
   style="stop-color:#F4B167"
   offset="0.5" />

						<a:midPointStop
   style="stop-color:#F3D196"
   offset="0.2921" />

						<a:midPointStop
   style="stop-color:#F3D196"
   offset="0.5" />

						<a:midPointStop
   style="stop-color:#F3D196"
   offset="0.4213" />

						<a:midPointStop
   style="stop-color:#F3D196"
   offset="0.5" />

						<a:midPointStop
   style="stop-color:#EE8424"
   offset="1" />

					</linearGradient>
    <radialGradient
       gradientUnits="userSpaceOnUse"
       fy="193.92039"
       fx="23.0938"
       r="2.1422999"
       cy="193.92039"
       cx="23.0938"
       id="XMLID_79_"
       gradientTransform="matrix(1.0244626,0,0,1.0244587,-1.5296054,-172.42153)">
						<stop
   id="stop15770"
   style="stop-color:#F3D196"
   offset="0" />

						<stop
   id="stop15772"
   style="stop-color:#F3D196"
   offset="0.1292" />

						<stop
   id="stop15774"
   style="stop-color:#EE8424"
   offset="1" />

						<a:midPointStop
   style="stop-color:#F3D196"
   offset="0" />

						<a:midPointStop
   style="stop-color:#F3D196"
   offset="0.5" />

						<a:midPointStop
   style="stop-color:#F3D196"
   offset="0.1292" />

						<a:midPointStop
   style="stop-color:#F3D196"
   offset="0.5" />

						<a:midPointStop
   style="stop-color:#EE8424"
   offset="1" />

					</radialGradient>
    <linearGradient
       y2="201.0587"
       x2="18.248699"
       y1="197.89211"
       x1="14.748"
       gradientUnits="userSpaceOnUse"
       id="XMLID_80_"
       gradientTransform="matrix(1.0244626,0,0,1.0244587,-1.5296054,-172.42153)">
						<stop
   id="stop15779"
   style="stop-color:#F4B167"
   offset="0" />

						<stop
   id="stop15781"
   style="stop-color:#F3D196"
   offset="0.2921" />

						<stop
   id="stop15783"
   style="stop-color:#F3D196"
   offset="0.4213" />

						<stop
   id="stop15785"
   style="stop-color:#EE8424"
   offset="1" />

						<a:midPointStop
   style="stop-color:#F4B167"
   offset="0" />

						<a:midPointStop
   style="stop-color:#F4B167"
   offset="0.5" />

						<a:midPointStop
   style="stop-color:#F3D196"
   offset="0.2921" />

						<a:midPointStop
   style="stop-color:#F3D196"
   offset="0.5" />

						<a:midPointStop
   style="stop-color:#F3D196"
   offset="0.4213" />

						<a:midPointStop
   style="stop-color:#F3D196"
   offset="0.5" />

						<a:midPointStop
   style="stop-color:#EE8424"
   offset="1" />

					</linearGradient>
    <radialGradient
       gradientUnits="userSpaceOnUse"
       fy="203.72411"
       fx="10.9185"
       r="2.0211"
       cy="203.72411"
       cx="10.9185"
       id="XMLID_81_"
       gradientTransform="matrix(1.0244626,0,0,1.0244587,-1.5296054,-172.42153)">
						<stop
   id="stop15790"
   style="stop-color:#F3D196"
   offset="0" />

						<stop
   id="stop15792"
   style="stop-color:#F3D196"
   offset="0.1292" />

						<stop
   id="stop15794"
   style="stop-color:#EE8424"
   offset="1" />

						<a:midPointStop
   style="stop-color:#F3D196"
   offset="0" />

						<a:midPointStop
   style="stop-color:#F3D196"
   offset="0.5" />

						<a:midPointStop
   style="stop-color:#F3D196"
   offset="0.1292" />

						<a:midPointStop
   style="stop-color:#F3D196"
   offset="0.5" />

						<a:midPointStop
   style="stop-color:#EE8424"
   offset="1" />

					</radialGradient>
    <linearGradient
       y2="211.0047"
       x2="9.6716003"
       y1="207.5024"
       x1="5.2895999"
       gradientUnits="userSpaceOnUse"
       id="XMLID_82_"
       gradientTransform="matrix(1.0244626,0,0,1.0244587,-1.5296054,-172.42153)">
						<stop
   id="stop15799"
   style="stop-color:#F0A14D"
   offset="0" />

						<stop
   id="stop15801"
   style="stop-color:#F1A754"
   offset="0.0301" />

						<stop
   id="stop15803"
   style="stop-color:#F1B970"
   offset="0.1483" />

						<stop
   id="stop15805"
   style="stop-color:#F2C685"
   offset="0.2672" />

						<stop
   id="stop15807"
   style="stop-color:#F3CE92"
   offset="0.3862" />

						<stop
   id="stop15809"
   style="stop-color:#F3D196"
   offset="0.5056" />

						<stop
   id="stop15811"
   style="stop-color:#F0943B"
   offset="1" />

						<a:midPointStop
   style="stop-color:#F0A14D"
   offset="0" />

						<a:midPointStop
   style="stop-color:#F0A14D"
   offset="0.2921" />

						<a:midPointStop
   style="stop-color:#F3D196"
   offset="0.5056" />

						<a:midPointStop
   style="stop-color:#F3D196"
   offset="0.5" />

						<a:midPointStop
   style="stop-color:#F0943B"
   offset="1" />

					</linearGradient>
  </defs>
  <sodipodi:namedview
     id="base"
     pagecolor="#ffffff"
     bordercolor="#666666"
     borderopacity="1.0"
     inkscape:pageopacity="0.0"
     inkscape:pageshadow="2"
     inkscape:zoom="7"
     inkscape:cx="24"
     inkscape:cy="24"
     inkscape:current-layer="layer1"
     showgrid="true"
     inkscape:grid-bbox="true"
     inkscape:document-units="px"
     inkscape:window-width="744"
     inkscape:window-height="573"
     inkscape:window-x="132"
     inkscape:window-y="144" />
  <metadata
     id="metadata17534">
    <rdf:RDF>
      <cc:Work
         rdf:about="">
        <dc:format>image/svg+xml</dc:format>
        <dc:type
           rdf:resource="http://purl.org/dc/dcmitype/StillImage" />
      </cc:Work>
    </rdf:RDF>
  </metadata>
  <g
     id="layer1"
     inkscape:label="Layer 1"
     inkscape:groupmode="layer">
    <g
       transform="matrix(1.0244626,0,0,1.0244587,-1.5296054,-172.42153)"
       id="g15717">
						<path
   style="fill:#ffffff;stroke:#66330d;stroke-width:1.17134809"
   id="path15719"
   d="M 40.446,203.917 C 39.666,204.548 36.66,211.525 37.71,214.562"
   i:knockout="Off" />

						<path
   style="fill:#ffffff;stroke:#66330d;stroke-width:1.17134809"
   id="path15721"
   d="M 47.158,205.125 C 44.902,205.241 42.454,204.956 40.888,204.064 C 40.021,203.568 41.359,200.161 41.827,199.763 C 42.326,199.342 44.78,198.766 47.177,198.671"
   i:knockout="Off" />

						<path
   style="fill:#ffffff;stroke:#66330d;stroke-width:1.17134809"
   id="path15723"
   d="M 47.242,200.144 C 45.342,200.216 43.216,200.135 41.615,199.804 C 41.535,199.785 41.487,200.417 41.301,200.22 C 41.082,199.989 40.056,198.65 39.447,197.747 C 38.481,196.317 35.617,190.89 34.857,186.253 C 34.439,183.706 35.833,181.554 37.204,180.291 C 37.617,179.911 42.189,178.924 47.176,179.228"
   i:knockout="Off" />

						<path
   style="fill:#ffffff;stroke:#66330d;stroke-width:1.17134809"
   id="path15725"
   d="M 37.361,181.081 C 39.317,181.772 40.306,186.099 38.843,187.736 C 37.905,188.784 36.1,188.904 35.392,188.445 C 34.617,187.95 32.574,184.961 32.598,184.346 C 32.661,182.766 33.996,181.777 34.844,181.352 C 36.022,180.763 36.901,180.922 37.361,181.081 z "
   i:knockout="Off" />

						<path
   style="fill:#ffffff;stroke:#66330d;stroke-width:1.17134809"
   id="path15727"
   d="M 33.313,183.646 C 34.632,183.679 36.581,186.697 35.73,188.037 C 34.989,189.209 26.271,195.45 24.761,195.698 C 24.582,195.73 22.027,193.096 22.523,192.549 C 25.089,189.694 32.186,183.616 33.313,183.646 z "
   i:knockout="Off" />

						<path
   style="fill:#ffffff;stroke:#66330d;stroke-width:1.17134809"
   id="path15729"
   d="M 22.523,192.549 C 23.389,192.615 24.891,194.226 24.761,195.698 C 24.722,196.13 23.632,196.989 22.95,196.955 C 22.574,196.941 20.545,194.891 20.564,194.33 C 20.583,193.613 21.815,192.493 22.523,192.549 z "
   i:knockout="Off" />

						<path
   style="fill:#ffffff;stroke:#66330d;stroke-width:1.17134809"
   id="path15731"
   d="M 20.151,194.353 C 21.049,194.107 22.882,195.415 23.119,196.85 C 23.237,197.562 13.936,204.649 13.181,204.745 C 11.672,204.93 10.202,203.287 10.506,202.881 C 12.064,200.79 18.509,194.797 20.151,194.353 z "
   i:knockout="Off" />

						<path
   style="fill:#ffffff;stroke:#66330d;stroke-width:1.17134809"
   id="path15733"
   d="M 10.618,203.049 C 11.136,203.006 12.386,203.484 12.934,204.636 C 13.021,204.817 12.326,205.701 12.031,205.658 C 11.78,205.623 9.638,204.668 9.558,204.368 C 9.476,204.066 10.071,203.093 10.618,203.049 z "
   i:knockout="Off" />

						<path
   style="fill:#ffffff;stroke:#66330d;stroke-width:1.17134809"
   id="path15735"
   d="M 9.558,204.368 C 9.984,204.252 11.66,204.759 12.031,205.623 C 12.485,206.691 10.624,209.8 9.85,210.783 C 8.696,212.232 5.992,213.881 5.045,214.047 C 4.405,214.156 2.778,213.371 2.879,212.543 C 2.978,211.717 3.835,209.359 5.552,207.508 C 7.269,205.658 9.194,204.467 9.558,204.368 z "
   i:knockout="Off" />

						<path
   style="fill:#ffffff;stroke:#66330d;stroke-width:1.17134809"
   id="path15737"
   d="M 44.356,176.086 C 44.02,176.276 44.143,179.188 44.223,179.492 C 44.32,179.852 45.749,180.417 47.225,180.417"
   i:knockout="Off" />

						<path
   style="fill:#ffffff;stroke:#66330d;stroke-width:1.17134809"
   id="path15739"
   d="M 47.277,176.626 C 45.704,176.642 44.031,176.444 43.676,175.916 C 42.439,174.072 41.654,171.247 41.637,168.786"
   i:knockout="Off" />

					</g>
    <polygon
       transform="matrix(1.0244626,0,0,1.0244587,-1.5296054,-172.42153)"
       style="fill:#ffffff"
       id="polygon15741"
       points="47.708,214.562 37.71,214.562 38.035,209.544 40.271,204.306 40.646,203.821 41.469,200.311 39.477,179.9 44.233,179.273 44.376,176.325 41.64,168.9 47.708,168.9 47.708,214.562 "
       i:knockout="Off" />
    <path
       style="fill:#ffffff;stroke:#66330d;stroke-width:0.25"
       id="path15743"
       d="M 39.905809,36.483015 C 39.106729,37.129449 36.027194,44.277097 37.10288,47.388378"
       i:knockout="Off" />
    <path
       style="fill:#ffffff;stroke:#66330d;stroke-width:0.25"
       id="path15745"
       d="M 46.800443,37.719537 C 44.484133,37.841447 41.968053,37.549477 40.358622,36.633611 C 39.470413,36.125479 40.841144,32.635148 41.320592,32.227414"
       i:knockout="Off" />
    <path
       style="fill:#ffffff;stroke:#66330d;stroke-width:0.25"
       id="path15747"
       d="M 46.904938,32.616708 C 44.948214,32.692518 42.753815,32.610561 41.103406,32.269417 C 41.021449,32.249952 40.972275,32.89741 40.781725,32.695591 C 40.557368,32.458941 39.506269,31.087191 38.882371,30.162105 C 37.89274,28.697129 34.958679,23.137392 34.180088,18.386977 C 33.751863,15.77768 35.179963,13.573045 36.584502,12.279154 C 36.91233,11.976939 39.806436,11.300796 43.472988,11.157372 L 43.737299,11.149176"
       i:knockout="Off" />
    <path
       style="fill:url(#XMLID_77_);stroke:#66330d;stroke-width:0.25"
       id="path15756"
       d="M 36.745342,13.088476 C 38.749191,13.796377 39.762385,18.22921 38.263596,19.906249 C 37.30265,20.979882 35.453495,21.102817 34.728175,20.63259 C 33.934217,20.125483 31.84124,17.063376 31.865827,16.433334 C 31.930368,14.814689 33.298026,13.8015 34.16677,13.366105 C 35.373587,12.762698 36.274089,12.925587 36.745342,13.088476 z "
       i:knockout="Off" />
    <path
       style="fill:url(#XMLID_78_);stroke:#66330d;stroke-width:0.25"
       id="path15767"
       d="M 32.598318,15.716213 C 33.949584,15.75002 35.946261,18.841836 35.074444,20.214611 C 34.315317,21.415277 25.384052,27.808923 23.837113,28.062989 C 23.653735,28.095772 21.036233,25.397348 21.544366,24.836969 C 24.173137,21.912139 31.443748,15.685479 32.598318,15.716213 z "
       i:knockout="Off" />
    <path
       style="fill:url(#XMLID_79_);stroke:#66330d;stroke-width:0.25"
       id="path15776"
       d="M 21.544366,24.836969 C 22.431551,24.904583 23.970294,26.554986 23.837113,28.062989 C 23.797159,28.505555 22.680495,29.385565 21.981812,29.350734 C 21.596614,29.336391 19.517979,27.236251 19.537444,26.66153 C 19.556909,25.926993 20.819047,24.779599 21.544366,24.836969 z "
       i:knockout="Off" />
    <path
       style="fill:url(#XMLID_80_);stroke:#66330d;stroke-width:0.25"
       id="path15787"
       d="M 19.114341,26.685092 C 20.034308,26.433075 21.912148,27.773067 22.154946,29.243166 C 22.275832,29.97258 12.747306,37.232919 11.973837,37.331267 C 10.427922,37.520792 8.9219621,35.837606 9.2333991,35.421676 C 10.829512,33.279533 17.432173,27.139952 19.114341,26.685092 z "
       i:knockout="Off" />
    <path
       style="fill:url(#XMLID_81_);stroke:#66330d;stroke-width:0.25"
       id="path15796"
       d="M 9.3481389,35.593785 C 9.8788105,35.549733 11.159389,36.039425 11.720794,37.219601 C 11.809923,37.405028 11.097921,38.31065 10.795705,38.266598 C 10.538564,38.230742 8.3441652,37.252384 8.2622081,36.945046 C 8.1782022,36.63566 8.7877575,35.638861 9.3481389,35.593785 z "
       i:knockout="Off" />
    <path
       style="fill:url(#XMLID_82_);stroke:#66330d;stroke-width:0.25"
       id="path15813"
       d="M 8.2622081,36.945046 C 8.6986292,36.826209 10.415629,37.345609 10.795705,38.230742 C 11.260811,39.324864 9.3542857,42.509906 8.5613512,43.516949 C 7.3791214,45.001389 4.6089745,46.690722 3.6388084,46.860782 C 2.9831524,46.972448 1.3163517,46.168248 1.4198224,45.319996 C 1.5212442,44.473793 2.3992087,42.058119 4.158211,40.161846 C 5.9172133,38.266598 7.8893038,37.046468 8.2622081,36.945046 z "
       i:knockout="Off" />
    <path
       style="fill:#ffffff;stroke:#66330d;stroke-width:0.25"
       id="path15815"
       d="M 43.911458,7.9713048 C 43.567239,8.165952 43.693248,11.149176 43.775205,11.460611 C 43.874577,11.829417 45.338535,12.408236 46.850641,12.408236"
       i:knockout="Off" />
    <path
       style="fill:#ffffff;stroke:#66330d;stroke-width:0.25"
       id="path15817"
       d="M 41.129018,0.65871894 C 41.179216,3.1399579 41.976248,5.9490234 43.215848,7.7971469 C 43.567239,8.3206453 45.180767,8.5275859 46.745122,8.525537"
       i:knockout="Off" />
  </g>
</svg>
