<?xml version="1.0" encoding="UTF-8" standalone="no"?>
<!-- Created with Inkscape (http://www.inkscape.org/) -->
<svg
   xmlns:i="http://ns.adobe.com/AdobeIllustrator/10.0/"
   xmlns:dc="http://purl.org/dc/elements/1.1/"
   xmlns:cc="http://web.resource.org/cc/"
   xmlns:rdf="http://www.w3.org/1999/02/22-rdf-syntax-ns#"
   xmlns:svg="http://www.w3.org/2000/svg"
   xmlns="http://www.w3.org/2000/svg"
   xmlns:sodipodi="http://sodipodi.sourceforge.net/DTD/sodipodi-0.dtd"
   xmlns:inkscape="http://www.inkscape.org/namespaces/inkscape"
   width="48px"
   height="48px"
   id="svg17644"
   sodipodi:version="0.32"
   inkscape:version="0.45.1"
   sodipodi:docbase="C:\dev\src\houdini\support\icons\OBJ"
   sodipodi:docname="autorig_spine.svg"
   inkscape:output_extension="org.inkscape.output.svg.inkscape">
  <defs
     id="defs17646" />
  <sodipodi:namedview
     id="base"
     pagecolor="#ffffff"
     bordercolor="#666666"
     borderopacity="1.0"
     inkscape:pageopacity="0.0"
     inkscape:pageshadow="2"
     inkscape:zoom="14"
     inkscape:cx="24"
     inkscape:cy="24"
     inkscape:current-layer="layer1"
     showgrid="true"
     inkscape:grid-bbox="false"
     inkscape:document-units="px"
     inkscape:window-width="1282"
     inkscape:window-height="1040"
     inkscape:window-x="323"
     inkscape:window-y="33" />
  <metadata
     id="metadata17649">
    <rdf:RDF>
      <cc:Work
         rdf:about="">
        <dc:format>image/svg+xml</dc:format>
        <dc:type
           rdf:resource="http://purl.org/dc/dcmitype/StillImage" />
      </cc:Work>
    </rdf:RDF>
  </metadata>
  <g
     id="layer1"
     inkscape:label="Layer 1"
     inkscape:groupmode="layer">
    <path
       i:knockout="Off"
       d="M 31.011498,16.558161 C 31.493934,16.615321 33.08233,17.180901 33.4525,18.391785 C 33.822672,19.601166 32.769809,22.295195 31.864105,22.696816 C 30.9584,23.099944 31.011498,16.558161 31.011498,16.558161 z "
       id="path15917"
       style="fill:none;stroke:#66330d;stroke-width:1.19999993" />
    <path
       i:knockout="Off"
       d="M 16.945017,45.327561 C 17.310636,46.371477 21.079094,47.386815 24.641227,47.358236 C 27.419024,47.335672 31.207204,46.324848 31.34981,45.83899 C 31.806456,44.283643 30.586712,36.404625 29.870645,36.004506 C 28.647869,35.321597 19.989821,35.61191 19.319267,36.157935 C 18.642644,36.702457 16.031729,42.711751 16.945017,45.327561 z "
       id="path15927"
       style="fill:none;stroke:#66330d;stroke-width:1.19999993" />
    <path
       i:knockout="Off"
       d="M 20.520805,32.582444 C 21.268731,31.95519 27.079194,30.932332 28.96039,32.334249 C 29.409449,32.668183 29.93133,35.753303 29.561158,36.066179 C 28.11537,37.280071 22.403515,37.80955 19.704609,36.285792 C 18.950614,35.860102 20.112707,32.925401 20.520805,32.582444 z "
       id="path15929"
       style="fill:none;stroke:#66330d;stroke-width:1.19999993" />
    <path
       i:knockout="Off"
       d="M 16.503544,15.810572 C 17.029975,15.332235 25.323918,13.724243 31.129832,16.15353 C 31.870173,16.461892 32.405707,22.371908 32.302544,22.838211 C 31.918719,24.604147 29.762932,31.585155 29.212228,32.250014 C 28.737376,32.821611 23.419968,33.248806 20.335718,32.615536 C 20.265933,32.597485 20.226488,33.145015 20.062642,32.973537 C 19.873005,32.773476 18.980955,31.621257 18.451491,30.842079 C 17.614055,29.61465 15.124506,24.936576 14.46457,20.945923 C 14.101986,18.751291 15.311108,16.899615 16.503544,15.810572 z "
       id="path15931"
       style="fill:none;stroke:#66330d;stroke-width:1.19999993" />
    <path
       i:knockout="Off"
       d="M 16.640083,16.490473 C 18.339225,17.086136 19.1979,20.812048 17.928094,22.224497 C 17.111897,23.125514 15.544741,23.230809 14.928802,22.836707 C 14.255212,22.40801 12.481732,19.834317 12.501453,19.301829 C 12.55607,17.942029 13.715128,17.092153 14.452435,16.725129 C 15.477988,16.216707 16.241087,16.355094 16.640083,16.490473 z "
       id="path15933"
       style="fill:none;stroke:#66330d;stroke-width:1.19999993" />
    <path
       i:knockout="Off"
       d="M 22.600738,15.123151 C 22.684178,15.433017 23.925159,15.918875 25.207103,15.918875 C 26.489045,15.918875 27.104985,15.529286 27.297657,15.269059 C 27.481224,15.028386 27.519151,12.298256 27.255178,12.165887 C 26.857699,11.97034 23.218194,11.904155 22.714519,12.186945 C 22.423238,12.353912 22.530951,14.862924 22.600738,15.123151 z "
       id="path15945"
       style="fill:none;stroke:#66330d;stroke-width:1.19999993" />
    <path
       i:knockout="Off"
       d="M 27.071609,0.84524919 C 28.490091,1.2679315 30.037526,3.1015558 29.958637,6.4123077 C 29.875197,9.7200508 28.550775,11.767272 27.777057,12.296753 C 27.109536,12.752526 22.691763,12.87587 22.125887,12.042542 C 20.407023,9.5019411 19.692472,4.7982969 21.109437,2.6743606 C 22.329178,0.84524919 25.465008,0.36240068 27.071609,0.84524919 z "
       id="path15947"
       style="fill:none;stroke:#66330d;stroke-width:1.19999993" />
    <path
       style="fill:#ffffff;stroke:#66330d;stroke-width:0.25"
       id="path15959"
       d="M 31.0115,16.558139 C 31.493934,16.615298 33.08233,17.180878 33.4525,18.391763 C 33.822672,19.601143 32.769809,22.295171 31.864105,22.696793 C 30.9584,23.09992 31.0115,16.558139 31.0115,16.558139 z "
       i:knockout="Off" />
    <path
       style="fill:#ffffff;stroke:#66330d;stroke-width:0.25"
       id="path15969"
       d="M 16.945017,45.327538 C 17.310636,46.371455 21.079094,47.386791 24.641227,47.358213 C 27.419024,47.33565 31.207204,46.324824 31.34981,45.838967 C 31.806456,44.28362 30.586713,36.404601 29.870645,36.004483 C 28.647869,35.321575 19.989822,35.611886 19.319267,36.157912 C 18.642644,36.702433 16.031729,42.711727 16.945017,45.327538 z "
       i:knockout="Off" />
    <path
       style="fill:#ffffff;stroke:#66330d;stroke-width:0.25"
       id="path15971"
       d="M 20.520805,32.582419 C 21.268731,31.955167 27.079195,30.932308 28.96039,32.334226 C 29.409449,32.66816 29.93133,35.753281 29.561158,36.066157 C 28.11537,37.280047 22.403515,37.809528 19.704609,36.28577 C 18.950614,35.86008 20.112707,32.925378 20.520805,32.582419 z "
       i:knockout="Off" />
    <path
       style="fill:#ffffff;stroke:#66330d;stroke-width:0.25"
       id="path15973"
       d="M 16.503544,15.810549 C 17.029975,15.332213 25.323918,13.724219 31.129832,16.153508 C 31.870173,16.46187 32.405707,22.371885 32.302544,22.838189 C 31.918719,24.604124 29.762932,31.585133 29.212228,32.249991 C 28.737376,32.821589 23.419968,33.248782 20.33572,32.615512 C 20.265933,32.597463 20.226488,33.144991 20.062643,32.973512 C 19.873005,32.773454 18.980957,31.621235 18.451491,30.842056 C 17.614055,29.614626 15.124506,24.936554 14.464572,20.945901 C 14.101986,18.751267 15.31111,16.899593 16.503544,15.810549 z "
       i:knockout="Off" />
    <path
       style="fill:#ffffff;stroke:#66330d;stroke-width:0.25"
       id="path15975"
       d="M 16.640083,16.490449 C 18.339225,17.086114 19.1979,20.812026 17.928094,22.224474 C 17.111898,23.125492 15.544741,23.230787 14.928802,22.836685 C 14.255214,22.407986 12.481732,19.834294 12.501455,19.301805 C 12.55607,17.942006 13.715128,17.092131 14.452435,16.725105 C 15.477988,16.216685 16.241087,16.355072 16.640083,16.490449 z "
       i:knockout="Off" />
    <path
       style="fill:#ffffff;stroke:#66330d;stroke-width:0.25"
       id="path15987"
       d="M 22.600738,15.123128 C 22.684178,15.432994 23.925159,15.918853 25.207103,15.918853 C 26.489045,15.918853 27.104987,15.529264 27.297657,15.269037 C 27.481224,15.028364 27.519151,12.298234 27.255178,12.165865 C 26.8577,11.970318 23.218194,11.904133 22.71452,12.186923 C 22.423238,12.353889 22.530953,14.862902 22.600738,15.123128 z "
       i:knockout="Off" />
    <path
       style="fill:#ffffff;stroke:#66330d;stroke-width:0.25"
       id="path15989"
       d="M 27.071609,0.84522705 C 28.490091,1.2679078 30.037526,3.1015321 29.958637,6.4122841 C 29.875197,9.7200286 28.550775,11.76725 27.777058,12.296729 C 27.109536,12.752503 22.691763,12.875848 22.125887,12.04252 C 20.407023,9.501919 19.692472,4.7982734 21.109437,2.6743385 C 22.329178,0.84522705 25.465008,0.36237705 27.071609,0.84522705 z "
       i:knockout="Off" />
    <path
       style="fill:#ed2728;fill-opacity:1;stroke:none;stroke-width:1.20000005;stroke-linecap:round;stroke-opacity:1"
       d="M 24.541996,9.3060338 C 24.068165,9.3854842 23.721886,9.7932 23.72356,10.269676 C 23.623445,13.816492 22.713232,15.335723 21.830927,17.319479 C 20.948622,19.303234 20.241388,21.688145 20.961339,26.042975 C 21.571688,29.747149 22.587398,32.14288 23.160886,33.904265 C 23.734374,35.66565 23.90135,36.615743 23.007429,38.31673 C 22.567224,39.15209 22.018676,40.092106 21.728622,41.258374 C 21.43857,42.424644 21.506167,43.85444 22.291297,45.265097 C 22.437143,45.614683 22.916834,45.92032 23.298005,45.937184 C 23.679179,45.954046 24.249999,45.679084 24.426664,45.343767 C 24.603332,45.00845 24.211018,44.60203 23.979321,44.301455 C 23.416003,43.289329 23.895748,43.379491 24.095318,42.577043 C 24.29489,41.774595 24.984634,40.700945 25.454507,39.809288 C 26.580758,37.666218 26.854462,35.216363 26.229097,33.295649 C 25.603734,31.374935 23.201271,29.226817 22.626518,25.738667 C 21.954686,21.674909 22.569711,19.636051 23.393801,17.783186 C 24.217891,15.93032 25.498064,12.938604 26.075641,10.320395 C 26.094495,10.018031 25.970362,9.724186 25.739804,9.5254019 C 25.509246,9.3266188 24.841377,9.2455369 24.541996,9.3060338 L 24.541996,9.3060338 z "
       id="path15991"
       sodipodi:nodetypes="ccssssscsscssssscscc" />
  </g>
</svg>
