<?xml version="1.0" encoding="UTF-8" standalone="no"?>
<!-- Created with Inkscape (http://www.inkscape.org/) -->
<svg
   xmlns:dc="http://purl.org/dc/elements/1.1/"
   xmlns:cc="http://web.resource.org/cc/"
   xmlns:rdf="http://www.w3.org/1999/02/22-rdf-syntax-ns#"
   xmlns:svg="http://www.w3.org/2000/svg"
   xmlns="http://www.w3.org/2000/svg"
   xmlns:xlink="http://www.w3.org/1999/xlink"
   xmlns:sodipodi="http://sodipodi.sourceforge.net/DTD/sodipodi-0.dtd"
   xmlns:inkscape="http://www.inkscape.org/namespaces/inkscape"
   width="48px"
   height="48px"
   id="svg4502"
   sodipodi:version="0.32"
   inkscape:version="0.45.1"
   sodipodi:docbase="C:\dev\src\houdini\support\icons\OBJ"
   sodipodi:docname="autorig_quadruped_toes.svg"
   inkscape:output_extension="org.inkscape.output.svg.inkscape">
  <defs
     id="defs4504">
    <linearGradient
       id="linearGradient4661">
      <stop
         id="stop4663"
         offset="0"
         style="stop-color:#f77b00;stop-opacity:1;" />
      <stop
         id="stop4665"
         offset="1"
         style="stop-color:#ffb163;stop-opacity:1;" />
    </linearGradient>
    <linearGradient
       id="linearGradient4634">
      <stop
         style="stop-color:#ffcf9f;stop-opacity:1;"
         offset="0"
         id="stop4636" />
      <stop
         style="stop-color:#f57900;stop-opacity:1;"
         offset="1"
         id="stop4638" />
    </linearGradient>
    <radialGradient
       inkscape:collect="always"
       xlink:href="#linearGradient4634"
       id="radialGradient4640"
       cx="33.890652"
       cy="17.021702"
       fx="33.890652"
       fy="17.021702"
       r="4.9228498"
       gradientTransform="matrix(1.0219297,0,0,1.4089168,-7.9554147e-2,-6.9337052)"
       gradientUnits="userSpaceOnUse" />
    <radialGradient
       inkscape:collect="always"
       xlink:href="#linearGradient4634"
       id="radialGradient4642"
       cx="22.265133"
       cy="13.366758"
       fx="22.265133"
       fy="13.366758"
       r="5.9611219"
       gradientTransform="matrix(1.0219297,0,0,1.1833364,-7.9554147e-2,-2.1634704)"
       gradientUnits="userSpaceOnUse" />
    <radialGradient
       inkscape:collect="always"
       xlink:href="#linearGradient4634"
       id="radialGradient4644"
       cx="11.910232"
       cy="19.008274"
       fx="11.910232"
       fy="19.008274"
       r="5.8330442"
       gradientTransform="matrix(1.0219297,0,0,1.1411439,-7.9554147e-2,-2.2724305)"
       gradientUnits="userSpaceOnUse" />
    <radialGradient
       inkscape:collect="always"
       xlink:href="#linearGradient4634"
       id="radialGradient4646"
       cx="10.823412"
       cy="32.59235"
       fx="10.823412"
       fy="32.59235"
       r="6.1366541"
       gradientTransform="matrix(1.0219297,0,0,1.0206763,-7.9554147e-2,3.3545369e-2)"
       gradientUnits="userSpaceOnUse" />
    <radialGradient
       inkscape:collect="always"
       xlink:href="#linearGradient4661"
       id="radialGradient4656"
       cx="33.456692"
       cy="33.935047"
       fx="33.456692"
       fy="33.935047"
       r="12.036778"
       gradientTransform="matrix(1.2960805,2.7138978e-2,-3.0183465e-2,1.4412826,-6.2931145,-14.455867)"
       gradientUnits="userSpaceOnUse" />
  </defs>
  <sodipodi:namedview
     id="base"
     pagecolor="#ffffff"
     bordercolor="#666666"
     borderopacity="1.0"
     inkscape:pageopacity="0.0"
     inkscape:pageshadow="2"
     inkscape:zoom="4.9497475"
     inkscape:cx="25.818275"
     inkscape:cy="2.9655727"
     inkscape:current-layer="layer1"
     showgrid="true"
     inkscape:grid-bbox="false"
     inkscape:document-units="px"
     inkscape:window-width="1251"
     inkscape:window-height="1085"
     inkscape:window-x="326"
     inkscape:window-y="12" />
  <metadata
     id="metadata4507">
    <rdf:RDF>
      <cc:Work
         rdf:about="">
        <dc:format>image/svg+xml</dc:format>
        <dc:type
           rdf:resource="http://purl.org/dc/dcmitype/StillImage" />
      </cc:Work>
    </rdf:RDF>
  </metadata>
  <g
     id="layer1"
     inkscape:label="Layer 1"
     inkscape:groupmode="layer">
    <path
       style="fill:#f57900;fill-opacity:1;fill-rule:evenodd;stroke:#7c3700;stroke-width:1.00000012;stroke-linecap:butt;stroke-linejoin:miter;stroke-miterlimit:4;stroke-dasharray:none;stroke-opacity:1"
       d="M 7.4971491,5.150744 C 6.1714338,5.805834 5.7556522,9.5376523 6.225225,11.008747 C 6.6947981,12.479841 8.0497253,11.690212 9.3754405,11.035122 C 10.701155,10.380032 11.997659,9.8594811 11.528086,8.3883868 C 11.058513,6.9172921 8.8228644,4.4956541 7.4971491,5.150744 z "
       id="path4616"
       sodipodi:nodetypes="cssss" />
    <path
       style="fill:#f57900;fill-opacity:1;fill-rule:evenodd;stroke:#7c3700;stroke-width:1.00000012;stroke-linecap:butt;stroke-linejoin:miter;stroke-miterlimit:4;stroke-dasharray:none;stroke-opacity:1"
       d="M 16.188537,0.4843444 C 15.28335,1.1356658 15.536801,3.1258147 16.333364,4.247535 C 17.12993,5.3692555 18.614434,5.188333 19.519622,4.5370115 C 20.424805,3.88569 20.750673,2.7639695 19.954109,1.6422492 C 19.157547,0.52052888 17.093722,-0.16697711 16.188537,0.4843444 z "
       id="path4618"
       sodipodi:nodetypes="cssss" />
    <path
       style="fill:#f57900;fill-opacity:1;fill-rule:evenodd;stroke:#7c3700;stroke-width:1.00000012;stroke-linecap:butt;stroke-linejoin:miter;stroke-miterlimit:4;stroke-dasharray:none;stroke-opacity:1"
       d="M 33.431918,5.7819628 C 32.490509,6.2124672 32.237052,8.5084898 32.707758,9.656501 C 33.178461,10.80451 34.373329,10.80451 35.314738,10.374008 C 36.256147,9.9435029 37.088931,9.656501 36.618228,8.5084893 C 36.147524,7.360478 34.373329,5.3514584 33.431918,5.7819628 z "
       id="path4620"
       sodipodi:nodetypes="cssss" />
    <path
       style="fill:#f57900;fill-opacity:1;fill-rule:evenodd;stroke:#7c3700;stroke-width:0.99999994;stroke-linecap:butt;stroke-linejoin:miter;stroke-miterlimit:4;stroke-dasharray:none;stroke-opacity:1"
       d="M 4.5119624,22.832153 C 3.6425044,23.735602 3.2017332,26.686806 4.1980612,27.454786 C 5.1943875,28.222767 7.0465809,26.941062 7.9160384,26.037614 C 8.785497,25.134164 8.6722208,24.608968 7.6758926,23.84099 C 6.6795659,23.073008 5.3814202,21.928705 4.5119624,22.832153 z "
       id="path4622"
       sodipodi:nodetypes="cssss"
       inkscape:transform-center-y="1.222647" />
    <path
       style="fill:url(#radialGradient4644);fill-opacity:1;fill-rule:evenodd;stroke:#7c3700;stroke-width:1.00000012;stroke-linecap:butt;stroke-linejoin:miter;stroke-miterlimit:4;stroke-dasharray:none;stroke-opacity:1"
       d="M 11.331753,13.536328 C 8.9838734,14.710061 8.4769453,19.698425 9.9443702,22.712786 C 11.411795,25.727146 15.600627,26.127282 17.948508,24.953549 C 20.296388,23.779815 20.589873,21.352322 19.122449,18.337962 C 17.655022,15.323601 13.679635,12.362594 11.331753,13.536328 z "
       id="path4624"
       sodipodi:nodetypes="cssss" />
    <path
       style="fill:url(#radialGradient4642);fill-opacity:1;fill-rule:evenodd;stroke:#7c3700;stroke-width:1.00000012;stroke-linecap:butt;stroke-linejoin:miter;stroke-miterlimit:4;stroke-dasharray:none;stroke-opacity:1"
       d="M 20.296388,7.6676601 C 18.455437,9.4549355 20.426359,16.19357 22.750991,18.871477 C 23.978292,20.285291 26.77974,20.872158 28.620692,19.084882 C 30.461643,17.297607 31.662262,14.736734 29.79463,11.722375 C 27.926997,8.7080148 22.13734,5.8803845 20.296388,7.6676601 z "
       id="path4626"
       sodipodi:nodetypes="cssss" />
    <path
       style="fill:url(#radialGradient4640);fill-opacity:1;fill-rule:evenodd;stroke:#7c3700;stroke-width:1.00000012;stroke-linecap:butt;stroke-linejoin:miter;stroke-miterlimit:4;stroke-dasharray:none;stroke-opacity:1"
       d="M 34.917278,11.93578 C 32.782842,12.495971 31.528861,16.337279 32.355955,19.511695 C 33.183048,22.68611 36.091218,25.19363 38.225655,24.63344 C 40.360092,24.07325 41.720793,20.445347 40.893699,17.270932 C 40.066607,14.096517 37.051715,11.37559 34.917278,11.93578 z "
       id="path4628"
       sodipodi:nodetypes="cssss" />
    <path
       style="fill:url(#radialGradient4646);fill-opacity:1;fill-rule:evenodd;stroke:#7c3700;stroke-width:1.00000012;stroke-linecap:butt;stroke-linejoin:miter;stroke-miterlimit:4;stroke-dasharray:none;stroke-opacity:1"
       d="M 8.8771521,28.47475 C 6.3647787,30.483494 9.2526983,35.006791 11.545198,37.437801 C 13.306107,39.305106 15.520586,39.598539 17.308177,38.078022 C 19.095768,36.557504 20.45647,34.290063 18.375395,31.67584 C 16.294321,29.061614 12.015896,25.965195 8.8771521,28.47475 z "
       id="path4630"
       sodipodi:nodetypes="cssss" />
    <path
       style="fill:url(#radialGradient4656);fill-opacity:1;fill-rule:evenodd;stroke:#7c3700;stroke-width:1.00000012;stroke-linecap:butt;stroke-linejoin:miter;stroke-miterlimit:4;stroke-dasharray:none;stroke-opacity:1"
       d="M 25.040054,24.034835 C 20.559951,26.392905 21.375789,30.825099 21.345999,35.590199 C 21.309298,41.460739 20.22183,46.990579 23.72926,47.383817 C 30.104481,48.098584 30.42316,42.842673 34.692257,41.070062 C 40.557234,38.634812 44.359684,38.030924 44.70195,34.518052 C 45.148809,29.931645 41.395176,28.710587 36.241377,27.013021 C 30.936926,25.265833 29.439674,21.719123 25.040054,24.034835 z "
       id="path4632"
       sodipodi:nodetypes="cssssss" />
  </g>
</svg>
