<?xml version="1.0" encoding="UTF-8" standalone="no"?>
<!-- Created with Inkscape (http://www.inkscape.org/) -->
<svg
   xmlns:a="http://ns.adobe.com/AdobeSVGViewerExtensions/3.0/"
   xmlns:i="http://ns.adobe.com/AdobeIllustrator/10.0/"
   xmlns:dc="http://purl.org/dc/elements/1.1/"
   xmlns:cc="http://web.resource.org/cc/"
   xmlns:rdf="http://www.w3.org/1999/02/22-rdf-syntax-ns#"
   xmlns:svg="http://www.w3.org/2000/svg"
   xmlns="http://www.w3.org/2000/svg"
   xmlns:sodipodi="http://sodipodi.sourceforge.net/DTD/sodipodi-0.dtd"
   xmlns:inkscape="http://www.inkscape.org/namespaces/inkscape"
   width="48px"
   height="48px"
   id="svg17434"
   sodipodi:version="0.32"
   inkscape:version="0.45.1"
   sodipodi:docbase="C:\dev\src\houdini\support\icons\Incoming"
   sodipodi:docname="autorig_head.svg"
   inkscape:output_extension="org.inkscape.output.svg.inkscape">
  <defs
     id="defs17436">
    <radialGradient
       gradientUnits="userSpaceOnUse"
       fy="41.144501"
       fx="26.794399"
       r="9.8260002"
       cy="41.144501"
       cx="26.794399"
       id="XMLID_72_"
       gradientTransform="matrix(1.0122037,0,0,1.0121819,0.9069325,0.1100684)">
						<stop
   id="stop15629"
   style="stop-color:#F3D196"
   offset="0" />

						<stop
   id="stop15631"
   style="stop-color:#F3D196"
   offset="0.1292" />

						<stop
   id="stop15633"
   style="stop-color:#EE8424"
   offset="1" />

						<a:midPointStop
   style="stop-color:#F3D196"
   offset="0" />

						<a:midPointStop
   style="stop-color:#F3D196"
   offset="0.5" />

						<a:midPointStop
   style="stop-color:#F3D196"
   offset="0.1292" />

						<a:midPointStop
   style="stop-color:#F3D196"
   offset="0.5" />

						<a:midPointStop
   style="stop-color:#EE8424"
   offset="1" />

					</radialGradient>
    <radialGradient
       gradientUnits="userSpaceOnUse"
       fy="14.1279"
       fx="33.068401"
       r="21.011801"
       cy="14.1279"
       cx="33.068401"
       id="XMLID_73_"
       gradientTransform="matrix(1.0122037,0,0,1.0121819,0.9069325,0.1100684)">
						<stop
   id="stop15638"
   style="stop-color:#F3D196"
   offset="0" />

						<stop
   id="stop15640"
   style="stop-color:#F3D196"
   offset="0.1966" />

						<stop
   id="stop15642"
   style="stop-color:#EE8424"
   offset="1" />

						<a:midPointStop
   style="stop-color:#F3D196"
   offset="0" />

						<a:midPointStop
   style="stop-color:#F3D196"
   offset="0.5" />

						<a:midPointStop
   style="stop-color:#F3D196"
   offset="0.1966" />

						<a:midPointStop
   style="stop-color:#F3D196"
   offset="0.5" />

						<a:midPointStop
   style="stop-color:#EE8424"
   offset="1" />

					</radialGradient>
  </defs>
  <sodipodi:namedview
     id="base"
     pagecolor="#ffffff"
     bordercolor="#666666"
     borderopacity="1.0"
     inkscape:pageopacity="0.0"
     inkscape:pageshadow="2"
     inkscape:zoom="7"
     inkscape:cx="24"
     inkscape:cy="21.733149"
     inkscape:current-layer="layer1"
     showgrid="true"
     inkscape:grid-bbox="true"
     inkscape:document-units="px"
     inkscape:window-width="744"
     inkscape:window-height="573"
     inkscape:window-x="408"
     inkscape:window-y="50" />
  <metadata
     id="metadata17439">
    <rdf:RDF>
      <cc:Work
         rdf:about="">
        <dc:format>image/svg+xml</dc:format>
        <dc:type
           rdf:resource="http://purl.org/dc/dcmitype/StillImage" />
      </cc:Work>
    </rdf:RDF>
  </metadata>
  <g
     id="layer1"
     inkscape:label="Layer 1"
     inkscape:groupmode="layer">
    <g
       transform="matrix(1.0122036,0,0,1.0121819,0.9069324,0.1100685)"
       id="g15616">
						<path
   style="fill:none;stroke:#66330d;stroke-width:1.18554497"
   id="path15618"
   d="M 2.542,45.532 C 8.537,43.747 27.463,39.824 42.542,46.177"
   i:knockout="Off" />

						<path
   style="fill:none;stroke:#66330d;stroke-width:1.18554497"
   id="path15620"
   d="M 17.231,43.868 C 17.477,44.797 21.161,46.253 24.965,46.253 C 28.773,46.253 30.599,45.089 31.175,44.315 C 31.717,43.586 31.829,35.417 31.044,35.033 C 29.87,34.444 19.065,34.246 17.568,35.085 C 16.708,35.573 17.024,43.087 17.231,43.868 z "
   i:knockout="Off" />

						<path
   style="fill:none;stroke:#66330d;stroke-width:1.18554497"
   id="path15622"
   d="M 30.503,1.121 C 34.703,2.392 39.305,7.886 39.066,17.796 C 38.828,27.698 34.89,33.823 32.592,35.411 C 30.616,36.781 17.496,37.143 15.822,34.647 C 10.716,27.043 8.6,12.959 12.802,6.611 C 16.427,1.121 25.726,-0.314 30.503,1.121 z "
   i:knockout="Off" />

					</g>
    <path
       style="fill:#ffffff"
       id="path15624"
       d="M 43.968101,48.1462 L 43.968101,46.849595 C 28.706094,40.419203 9.5491275,44.389992 3.4799542,46.196737 L 3.4799542,48.1462 L 43.968101,48.1462 z "
       i:knockout="Off" />
    <path
       style="fill:#ffffff;stroke:#66330d;stroke-width:0.24999999"
       id="path15626"
       d="M 43.968101,46.849591 C 28.706094,40.419199 9.5491274,44.389989 3.4799542,46.196734"
       i:knockout="Off" />
    <path
       style="fill:url(#XMLID_72_);stroke:#66330d;stroke-width:0.24999999"
       id="path15635"
       d="M 18.348214,44.512463 C 18.597216,45.45278 22.326175,46.926516 26.176598,46.926516 C 30.031069,46.926516 31.879353,45.748337 32.462382,44.964908 C 33.010997,44.227027 33.124363,35.958514 32.329783,35.569836 C 31.141457,34.973661 20.204596,34.773249 18.689326,35.62247 C 17.818832,36.116414 18.138688,43.721949 18.348214,44.512463 z "
       i:knockout="Off" />
    <path
       style="fill:url(#XMLID_73_);stroke:#66330d;stroke-width:0.24999999"
       id="path15644"
       d="M 31.782181,1.2447243 C 36.033437,2.5312075 40.691597,8.0921347 40.449681,18.122857 C 40.208776,28.145482 36.222718,34.345096 33.896674,35.95244 C 31.896561,37.33913 18.616448,37.70554 16.922018,35.179134 C 11.753707,27.482503 9.6118841,13.226934 13.865164,6.8016029 C 17.534402,1.2447243 26.946884,-0.20775663 31.782181,1.2447243 z "
       i:knockout="Off" />
    <path
       style="fill:none;stroke:#66330d;stroke-width:0.99999994"
       id="path15646"
       d="M 33.227608,10.867538 C 35.613372,16.912287 35.513164,23.475275 35.513164,26.685916"
       i:knockout="Off" />
    <path
       style="fill:none;stroke:#66330d;stroke-width:0.99999994"
       id="path15648"
       d="M 24.934623,14.78873 C 29.615053,13.558929 34.52829,12.857487 38.512324,14.847436"
       i:knockout="Off" />
  </g>
</svg>
