<?xml version="1.0" encoding="UTF-8" standalone="no"?>
<!-- Created with Inkscape (http://www.inkscape.org/) -->
<svg
   xmlns:i="http://ns.adobe.com/AdobeIllustrator/10.0/"
   xmlns:a="http://ns.adobe.com/AdobeSVGViewerExtensions/3.0/"
   xmlns:dc="http://purl.org/dc/elements/1.1/"
   xmlns:cc="http://web.resource.org/cc/"
   xmlns:rdf="http://www.w3.org/1999/02/22-rdf-syntax-ns#"
   xmlns:svg="http://www.w3.org/2000/svg"
   xmlns="http://www.w3.org/2000/svg"
   xmlns:xlink="http://www.w3.org/1999/xlink"
   xmlns:sodipodi="http://sodipodi.sourceforge.net/DTD/sodipodi-0.dtd"
   xmlns:inkscape="http://www.inkscape.org/namespaces/inkscape"
   width="48px"
   height="48px"
   id="svg9369"
   sodipodi:version="0.32"
   inkscape:version="0.45.1"
   sodipodi:docbase="c:\dev\src\houdini\support\icons\OBJ"
   sodipodi:docname="stickyblend.svg"
   inkscape:output_extension="org.inkscape.output.svg.inkscape">
  <defs
     id="defs9371">
    <radialGradient
       gradientUnits="userSpaceOnUse"
       gradientTransform="matrix(-1.0176,-3.67e-2,-3.68e-2,1.0194,636.227,7.9455)"
       fy="311.92331"
       fx="303.43259"
       r="15.6631"
       cy="311.92331"
       cx="303.43259"
       id="XMLID_163_">
      <stop
         id="stop5346"
         style="stop-color:#FFFFFF"
         offset="0" />
      <stop
         id="stop5348"
         style="stop-color:#8794A0"
         offset="1" />
      <a:midPointStop
         style="stop-color:#FFFFFF"
         offset="0" />
      <a:midPointStop
         style="stop-color:#FFFFFF"
         offset="0.5" />
      <a:midPointStop
         style="stop-color:#8794A0"
         offset="1" />
    </radialGradient>
    <radialGradient
       gradientUnits="userSpaceOnUse"
       gradientTransform="matrix(-0.485885,-7.097755e-3,-6.694816e-3,0.458069,464.1049,175.4463)"
       fy="314.53195"
       fx="305.90253"
       r="28.8188"
       cy="314.53195"
       cx="305.90253"
       id="XMLID_164_">
      <stop
         id="stop5355"
         style="stop-color:#FFFFFF"
         offset="0.6461" />
      <stop
         id="stop5357"
         style="stop-color:#76828C"
         offset="0.927" />
      <a:midPointStop
         style="stop-color:#FFFFFF"
         offset="0.6461" />
      <a:midPointStop
         style="stop-color:#FFFFFF"
         offset="0.5" />
      <a:midPointStop
         style="stop-color:#76828C"
         offset="0.927" />
    </radialGradient>
    <radialGradient
       gradientUnits="userSpaceOnUse"
       fy="314.834"
       fx="320.5088"
       r="8.8406"
       cy="314.834"
       cx="320.5088"
       id="XMLID_165_"
       gradientTransform="matrix(0.7258772,8.6733358e-2,-8.6910553e-2,0.7273601,-176.99106,-233.17556)">
      <stop
         id="stop5366"
         style="stop-color:#F17912"
         offset="0" />
      <stop
         id="stop5368"
         style="stop-color:#CE5B0B"
         offset="0.5169" />
      <stop
         id="stop5370"
         style="stop-color:#B34F0A"
         offset="1" />
      <a:midPointStop
         style="stop-color:#F17912"
         offset="0" />
      <a:midPointStop
         style="stop-color:#F17912"
         offset="0.5" />
      <a:midPointStop
         style="stop-color:#CE5B0B"
         offset="0.5169" />
      <a:midPointStop
         style="stop-color:#CE5B0B"
         offset="0.5" />
      <a:midPointStop
         style="stop-color:#B34F0A"
         offset="1" />
    </radialGradient>
    <radialGradient
       gradientUnits="userSpaceOnUse"
       gradientTransform="matrix(0.9993,3.61e-2,-3.61e-2,0.9993,115.3272,-221.9336)"
       fy="518.71088"
       fx="222.80659"
       r="17.4084"
       cy="518.71088"
       cx="222.80659"
       id="XMLID_166_">
      <stop
         id="stop5385"
         style="stop-color:#FFFFFF"
         offset="0" />
      <stop
         id="stop5387"
         style="stop-color:#FAE6C8"
         offset="0.1461" />
      <stop
         id="stop5389"
         style="stop-color:#F17912"
         offset="0.6573" />
      <stop
         id="stop5391"
         style="stop-color:#FF710E"
         offset="0.9045" />
      <stop
         id="stop5393"
         style="stop-color:#CE5B0B"
         offset="1" />
      <a:midPointStop
         style="stop-color:#FFFFFF"
         offset="0" />
      <a:midPointStop
         style="stop-color:#FFFFFF"
         offset="0.5" />
      <a:midPointStop
         style="stop-color:#FAE6C8"
         offset="0.1461" />
      <a:midPointStop
         style="stop-color:#FAE6C8"
         offset="0.5" />
      <a:midPointStop
         style="stop-color:#F17912"
         offset="0.6573" />
      <a:midPointStop
         style="stop-color:#F17912"
         offset="0.5" />
      <a:midPointStop
         style="stop-color:#FF710E"
         offset="0.9045" />
      <a:midPointStop
         style="stop-color:#FF710E"
         offset="0.5" />
      <a:midPointStop
         style="stop-color:#CE5B0B"
         offset="1" />
    </radialGradient>
    <radialGradient
       gradientUnits="userSpaceOnUse"
       fy="304.57321"
       fx="318.47949"
       r="29.062901"
       cy="304.57321"
       cx="318.47949"
       id="XMLID_167_">
      <stop
         id="stop5400"
         style="stop-color:#FAAF3D"
         offset="0.0056" />
      <stop
         id="stop5402"
         style="stop-color:#FAE6C8"
         offset="0.3708" />
      <stop
         id="stop5404"
         style="stop-color:#F17912"
         offset="0.6573" />
      <stop
         id="stop5406"
         style="stop-color:#CE5B0B"
         offset="1" />
      <a:midPointStop
         style="stop-color:#FAAF3D"
         offset="0.0056" />
      <a:midPointStop
         style="stop-color:#FAAF3D"
         offset="0.5" />
      <a:midPointStop
         style="stop-color:#FAE6C8"
         offset="0.3708" />
      <a:midPointStop
         style="stop-color:#FAE6C8"
         offset="0.5" />
      <a:midPointStop
         style="stop-color:#F17912"
         offset="0.6573" />
      <a:midPointStop
         style="stop-color:#F17912"
         offset="0.5" />
      <a:midPointStop
         style="stop-color:#CE5B0B"
         offset="1" />
    </radialGradient>
    <linearGradient
       gradientTransform="matrix(0.7889,0.6145,-0.6145,0.7889,1908.824,780.9586)"
       y2="601.23163"
       x2="-1529.6608"
       y1="584.92188"
       x1="-1542.9126"
       gradientUnits="userSpaceOnUse"
       id="XMLID_171_">
      <stop
         id="stop5446"
         style="stop-color:#FAFAFA"
         offset="0" />
      <stop
         id="stop5448"
         style="stop-color:#828B99"
         offset="0.5787" />
      <stop
         id="stop5450"
         style="stop-color:#858E9C"
         offset="0.7528" />
      <stop
         id="stop5452"
         style="stop-color:#8E99A7"
         offset="0.9054" />
      <stop
         id="stop5454"
         style="stop-color:#98A4B2"
         offset="1" />
      <a:midPointStop
         style="stop-color:#FAFAFA"
         offset="0" />
      <a:midPointStop
         style="stop-color:#FAFAFA"
         offset="0.5" />
      <a:midPointStop
         style="stop-color:#828B99"
         offset="0.5787" />
      <a:midPointStop
         style="stop-color:#828B99"
         offset="0.7333" />
      <a:midPointStop
         style="stop-color:#98A4B2"
         offset="1" />
    </linearGradient>
    <linearGradient
       gradientTransform="matrix(0.7889,0.6145,-0.6145,0.7889,1908.824,780.9586)"
       y2="586.30719"
       x2="-1542.6278"
       y1="587.60059"
       x1="-1540.1489"
       gradientUnits="userSpaceOnUse"
       id="XMLID_170_">
      <stop
         id="stop5435"
         style="stop-color:#EFEEEC"
         offset="0" />
      <stop
         id="stop5437"
         style="stop-color:#98A7B2"
         offset="1" />
      <a:midPointStop
         style="stop-color:#EFEEEC"
         offset="0" />
      <a:midPointStop
         style="stop-color:#EFEEEC"
         offset="0.5" />
      <a:midPointStop
         style="stop-color:#98A7B2"
         offset="1" />
    </linearGradient>
    <linearGradient
       gradientTransform="matrix(0.7889,0.6145,-0.6145,0.7889,1908.824,780.9586)"
       y2="583.03967"
       x2="-1549.6228"
       y1="587.31842"
       x1="-1540.7485"
       gradientUnits="userSpaceOnUse"
       id="XMLID_169_">
      <stop
         id="stop5428"
         style="stop-color:#878787"
         offset="0" />
      <stop
         id="stop5430"
         style="stop-color:#BABDB4"
         offset="1" />
      <a:midPointStop
         style="stop-color:#878787"
         offset="0" />
      <a:midPointStop
         style="stop-color:#878787"
         offset="0.5" />
      <a:midPointStop
         style="stop-color:#BABDB4"
         offset="1" />
    </linearGradient>
    <linearGradient
       gradientTransform="matrix(0.7889,0.6145,-0.6145,0.7889,1908.824,780.9586)"
       y2="588.16089"
       x2="-1528.3639"
       y1="588.58691"
       x1="-1544.4731"
       gradientUnits="userSpaceOnUse"
       id="XMLID_168_">
      <stop
         id="stop5413"
         style="stop-color:#FFFFFF"
         offset="0" />
      <stop
         id="stop5415"
         style="stop-color:#ECEEF0"
         offset="0.1049" />
      <stop
         id="stop5417"
         style="stop-color:#BBC2C8"
         offset="0.3174" />
      <stop
         id="stop5419"
         style="stop-color:#828F99"
         offset="0.5393" />
      <stop
         id="stop5421"
         style="stop-color:#86939E"
         offset="0.7999" />
      <stop
         id="stop5423"
         style="stop-color:#8D9BA6"
         offset="1" />
      <a:midPointStop
         style="stop-color:#FFFFFF"
         offset="0" />
      <a:midPointStop
         style="stop-color:#FFFFFF"
         offset="0.549" />
      <a:midPointStop
         style="stop-color:#828F99"
         offset="0.5393" />
      <a:midPointStop
         style="stop-color:#828F99"
         offset="0.6829" />
      <a:midPointStop
         style="stop-color:#8D9BA6"
         offset="1" />
    </linearGradient>
    <linearGradient
       id="linearGradient9467"
       gradientUnits="userSpaceOnUse"
       x1="-1544.4731"
       y1="588.58691"
       x2="-1528.3639"
       y2="588.16089"
       gradientTransform="matrix(0.7889,0.6145,-0.6145,0.7889,1908.824,780.9586)">
      <stop
         offset="0"
         style="stop-color:#FFFFFF"
         id="stop9469" />
      <stop
         offset="0.1049"
         style="stop-color:#ECEEF0"
         id="stop9471" />
      <stop
         offset="0.3174"
         style="stop-color:#BBC2C8"
         id="stop9473" />
      <stop
         offset="0.5393"
         style="stop-color:#828F99"
         id="stop9475" />
      <stop
         offset="0.7999"
         style="stop-color:#86939E"
         id="stop9477" />
      <stop
         offset="1"
         style="stop-color:#8D9BA6"
         id="stop9479" />
      <a:midPointStop
         offset="0"
         style="stop-color:#FFFFFF" />
      <a:midPointStop
         offset="0.549"
         style="stop-color:#FFFFFF" />
      <a:midPointStop
         offset="0.5393"
         style="stop-color:#828F99" />
      <a:midPointStop
         offset="0.6829"
         style="stop-color:#828F99" />
      <a:midPointStop
         offset="1"
         style="stop-color:#8D9BA6" />
    </linearGradient>
    <linearGradient
       id="linearGradient9482"
       gradientUnits="userSpaceOnUse"
       x1="-1540.7485"
       y1="587.31842"
       x2="-1549.6228"
       y2="583.03967"
       gradientTransform="matrix(0.7889,0.6145,-0.6145,0.7889,1908.824,780.9586)">
      <stop
         offset="0"
         style="stop-color:#878787"
         id="stop9484" />
      <stop
         offset="1"
         style="stop-color:#BABDB4"
         id="stop9486" />
      <a:midPointStop
         offset="0"
         style="stop-color:#878787" />
      <a:midPointStop
         offset="0.5"
         style="stop-color:#878787" />
      <a:midPointStop
         offset="1"
         style="stop-color:#BABDB4" />
    </linearGradient>
    <linearGradient
       id="linearGradient9489"
       gradientUnits="userSpaceOnUse"
       x1="-1540.1489"
       y1="587.60059"
       x2="-1542.6278"
       y2="586.30719"
       gradientTransform="matrix(0.7889,0.6145,-0.6145,0.7889,1908.824,780.9586)">
      <stop
         offset="0"
         style="stop-color:#EFEEEC"
         id="stop9491" />
      <stop
         offset="1"
         style="stop-color:#98A7B2"
         id="stop9493" />
      <a:midPointStop
         offset="0"
         style="stop-color:#EFEEEC" />
      <a:midPointStop
         offset="0.5"
         style="stop-color:#EFEEEC" />
      <a:midPointStop
         offset="1"
         style="stop-color:#98A7B2" />
    </linearGradient>
    <linearGradient
       inkscape:collect="always"
       xlink:href="#XMLID_170_"
       id="linearGradient9547"
       gradientUnits="userSpaceOnUse"
       gradientTransform="matrix(0.5579842,0.4041164,-0.4033795,0.5588321,1136.5454,303.71169)"
       x1="-1540.1489"
       y1="587.60059"
       x2="-1542.6278"
       y2="586.30719" />
    <linearGradient
       inkscape:collect="always"
       xlink:href="#XMLID_169_"
       id="linearGradient9550"
       gradientUnits="userSpaceOnUse"
       gradientTransform="matrix(0.5579842,0.4041164,-0.4033795,0.5588321,1136.5454,303.71169)"
       x1="-1540.7485"
       y1="587.31842"
       x2="-1549.6228"
       y2="583.03967" />
    <linearGradient
       inkscape:collect="always"
       xlink:href="#XMLID_168_"
       id="linearGradient9553"
       gradientUnits="userSpaceOnUse"
       gradientTransform="matrix(0.5579842,0.4041164,-0.4033795,0.5588321,1136.5454,303.71169)"
       x1="-1544.4731"
       y1="588.58691"
       x2="-1528.3639"
       y2="588.16089" />
    <radialGradient
       inkscape:collect="always"
       xlink:href="#XMLID_165_"
       id="radialGradient2457"
       gradientUnits="userSpaceOnUse"
       gradientTransform="matrix(-0.10311,0.6077394,0.6086835,0.1030544,-140.62794,-196.10954)"
       cx="320.5088"
       cy="314.834"
       fx="320.5088"
       fy="314.834"
       r="8.8406" />
    <radialGradient
       inkscape:collect="always"
       xlink:href="#XMLID_166_"
       id="radialGradient2459"
       gradientUnits="userSpaceOnUse"
       gradientTransform="matrix(0.9993,3.61e-2,-3.61e-2,0.9993,115.3272,-221.9336)"
       cx="222.80659"
       cy="518.71088"
       fx="222.80659"
       fy="518.71088"
       r="17.4084" />
    <radialGradient
       inkscape:collect="always"
       xlink:href="#XMLID_167_"
       id="radialGradient2461"
       gradientUnits="userSpaceOnUse"
       cx="318.47949"
       cy="304.57321"
       fx="318.47949"
       fy="304.57321"
       r="29.062901" />
    <linearGradient
       inkscape:collect="always"
       xlink:href="#XMLID_168_"
       id="linearGradient2463"
       gradientUnits="userSpaceOnUse"
       gradientTransform="matrix(0.2926927,0.5427724,0.5435514,-0.2921564,137.90982,1044.4394)"
       x1="-1544.4731"
       y1="588.58691"
       x2="-1528.3639"
       y2="588.16089" />
    <linearGradient
       inkscape:collect="always"
       xlink:href="#XMLID_169_"
       id="linearGradient2465"
       gradientUnits="userSpaceOnUse"
       gradientTransform="matrix(0.2926927,0.5427724,0.5435514,-0.2921564,137.90982,1044.4394)"
       x1="-1540.7485"
       y1="587.31842"
       x2="-1549.6228"
       y2="583.03967" />
    <linearGradient
       inkscape:collect="always"
       xlink:href="#XMLID_170_"
       id="linearGradient2467"
       gradientUnits="userSpaceOnUse"
       gradientTransform="matrix(0.2926927,0.5427724,0.5435514,-0.2921564,137.90982,1044.4394)"
       x1="-1540.1489"
       y1="587.60059"
       x2="-1542.6278"
       y2="586.30719" />
    <radialGradient
       inkscape:collect="always"
       xlink:href="#XMLID_167_"
       id="radialGradient3450"
       gradientUnits="userSpaceOnUse"
       cx="318.47949"
       cy="304.57321"
       fx="318.47949"
       fy="304.57321"
       r="29.062901" />
    <radialGradient
       inkscape:collect="always"
       xlink:href="#XMLID_166_"
       id="radialGradient3452"
       gradientUnits="userSpaceOnUse"
       gradientTransform="matrix(0.9993,3.61e-2,-3.61e-2,0.9993,115.3272,-221.9336)"
       cx="222.80659"
       cy="518.71088"
       fx="222.80659"
       fy="518.71088"
       r="17.4084" />
    <radialGradient
       inkscape:collect="always"
       xlink:href="#XMLID_165_"
       id="radialGradient3454"
       gradientUnits="userSpaceOnUse"
       gradientTransform="matrix(0.6880887,-2.4595691e-2,2.4656089e-2,0.6892104,-196.15049,-187.58432)"
       cx="320.5088"
       cy="314.834"
       fx="320.5088"
       fy="314.834"
       r="8.8406" />
  </defs>
  <sodipodi:namedview
     id="base"
     pagecolor="#ffffff"
     bordercolor="#666666"
     borderopacity="1.0"
     inkscape:pageopacity="0.0"
     inkscape:pageshadow="2"
     inkscape:zoom="9.8994949"
     inkscape:cx="22.857143"
     inkscape:cy="15.652974"
     inkscape:current-layer="layer1"
     showgrid="true"
     inkscape:grid-bbox="false"
     inkscape:document-units="px"
     inkscape:window-width="1284"
     inkscape:window-height="1096"
     inkscape:window-x="292"
     inkscape:window-y="9" />
  <metadata
     id="metadata9374">
    <rdf:RDF>
      <cc:Work
         rdf:about="">
        <dc:format>image/svg+xml</dc:format>
        <dc:type
           rdf:resource="http://purl.org/dc/dcmitype/StillImage" />
      </cc:Work>
    </rdf:RDF>
  </metadata>
  <g
     id="layer1"
     inkscape:label="Layer 1"
     inkscape:groupmode="layer">
    <g
       transform="matrix(1.0084048,0,0,1.0079894,-295.65487,-293.38244)"
       id="g5343"
       style="stroke:#2e3436;stroke-width:1.48780441;stroke-miterlimit:4;stroke-dasharray:none">
      <radialGradient
         gradientUnits="userSpaceOnUse"
         gradientTransform="matrix(-1.0176,-3.67e-2,-3.68e-2,1.0194,636.227,7.9455)"
         fy="311.92331"
         fx="303.43259"
         r="15.6631"
         cy="311.92331"
         cx="303.43259"
         id="radialGradient9418">
        <stop
           id="stop9420"
           style="stop-color:#FFFFFF"
           offset="0" />
        <stop
           id="stop9422"
           style="stop-color:#8794A0"
           offset="1" />
        <a:midPointStop
           style="stop-color:#FFFFFF"
           offset="0" />
        <a:midPointStop
           style="stop-color:#FFFFFF"
           offset="0.5" />
        <a:midPointStop
           style="stop-color:#8794A0"
           offset="1" />
      </radialGradient>
      <circle
         sodipodi:ry="14.23"
         sodipodi:rx="14.23"
         sodipodi:cy="320.383"
         sodipodi:cx="319.96301"
         style="fill:url(#XMLID_163_);stroke:#2e3436;stroke-width:1.48780441;stroke-miterlimit:4;stroke-dasharray:none"
         id="circle5350"
         r="14.23"
         cy="320.383"
         cx="319.96301"
         i:knockout="Off" />
    </g>
    <g
       transform="matrix(0.923307,0,0,0.9229266,-268.39301,-266.16325)"
       id="g9512"
       style="fill:none;stroke:#eeeeec;stroke-width:1.08328664;stroke-miterlimit:4;stroke-dasharray:none;stroke-opacity:0.75294118">
      <radialGradient
         gradientUnits="userSpaceOnUse"
         gradientTransform="matrix(-1.0176,-3.67e-2,-3.68e-2,1.0194,636.227,7.9455)"
         fy="311.92331"
         fx="303.43259"
         r="15.6631"
         cy="311.92331"
         cx="303.43259"
         id="radialGradient9514">
        <stop
           id="stop9516"
           style="stop-color:#FFFFFF"
           offset="0" />
        <stop
           id="stop9518"
           style="stop-color:#8794A0"
           offset="1" />
        <a:midPointStop
           style="stop-color:#FFFFFF"
           offset="0" />
        <a:midPointStop
           style="stop-color:#FFFFFF"
           offset="0.5" />
        <a:midPointStop
           style="stop-color:#8794A0"
           offset="1" />
      </radialGradient>
      <circle
         sodipodi:ry="14.23"
         sodipodi:rx="14.23"
         sodipodi:cy="320.383"
         sodipodi:cx="319.96301"
         style="fill:none;stroke:#eeeeec;stroke-width:1.08328664;stroke-miterlimit:4;stroke-dasharray:none;stroke-opacity:0.75294118"
         id="circle9520"
         r="14.23"
         cy="320.383"
         cx="319.96301"
         i:knockout="Off" />
    </g>
    <path
       style="fill:url(#radialGradient3454)"
       id="path5372"
       d="M 31.032746,19.867405 C 30.990117,18.675761 31.740728,15.988626 32.123538,15.865908 C 32.67731,15.688082 33.245059,15.901039 34.224621,16.224182 C 35.153973,16.530488 41.415177,20.975156 41.012333,21.885984 C 40.60949,22.796812 39.363918,24.455461 37.749007,23.955592 C 36.133406,23.455746 31.050918,20.375355 31.032746,19.867405 z "
       i:knockout="Off" />
    <path
       style="fill:none;stroke:#662d06;stroke-width:1.39999962"
       id="path5378"
       d="M 35.910664,17.770332 C 34.623247,16.737736 33.173497,11.206025 32.611378,11.439356 C 31.224499,12.01754 32.017527,14.117436 31.163866,16.735795 C 30.800704,17.812208 28.343794,17.136789 29.626787,18.777513 C 30.929238,20.384416 28.415163,20.499125 30.406909,21.24845 C 36.700671,23.618225 31.359649,23.383352 33.671716,24.246824 C 36.248438,25.209179 35.505207,24.019805 37.226228,24.269519 C 37.844685,24.359205 40.421422,26.073072 40.140131,24.738826 C 39.960781,23.885383 40.606853,23.283303 41.806441,22.438536 C 42.48386,21.961621 44.203764,22.31489 44.530755,21.286696 C 44.678615,20.816979 37.198748,18.802212 35.910664,17.770332 z M 32.916554,20.451398 C 32.552622,20.620368 31.582191,19.782089 31.454102,19.321546 C 31.150426,18.228254 32.891771,15.983939 33.529191,16.622952 C 34.165922,17.261992 35.052754,18.324778 34.716719,18.753604 C 34.592269,18.914703 33.648471,20.111244 32.916554,20.451398 z M 36.891164,20.623318 C 36.7677,20.831308 36.203258,22.617429 35.942647,22.650898 C 35.495468,22.707598 34.234851,21.7886 34.465478,21.533304 C 34.808765,21.153214 35.427122,19.545279 35.910896,19.317509 C 36.586442,19.000072 37.181702,20.136079 36.891164,20.623318 z M 38.415849,23.51206 C 36.857884,23.082615 37.257053,21.009803 37.873369,20.866316 C 38.316808,20.762824 39.341777,21.238235 39.426672,21.569894 C 39.640275,22.39865 38.544575,23.547484 38.415849,23.51206 z "
       i:knockout="Off" />
    <g
       transform="matrix(0.6880887,-2.4595691e-2,2.4656089e-2,0.6892104,-196.15049,-187.58432)"
       id="g5380"
       i:knockout="Off">
      <g
         id="g5382">
        <radialGradient
           gradientUnits="userSpaceOnUse"
           gradientTransform="matrix(0.9993,3.61e-2,-3.61e-2,0.9993,115.3272,-221.9336)"
           fy="518.71088"
           fx="222.80659"
           r="17.4084"
           cy="518.71088"
           cx="222.80659"
           id="radialGradient9441">
          <stop
             id="stop9443"
             style="stop-color:#FFFFFF"
             offset="0" />
          <stop
             id="stop9445"
             style="stop-color:#FAE6C8"
             offset="0.1461" />
          <stop
             id="stop9447"
             style="stop-color:#F17912"
             offset="0.6573" />
          <stop
             id="stop9449"
             style="stop-color:#FF710E"
             offset="0.9045" />
          <stop
             id="stop9451"
             style="stop-color:#CE5B0B"
             offset="1" />
          <a:midPointStop
             style="stop-color:#FFFFFF"
             offset="0" />
          <a:midPointStop
             style="stop-color:#FFFFFF"
             offset="0.5" />
          <a:midPointStop
             style="stop-color:#FAE6C8"
             offset="0.1461" />
          <a:midPointStop
             style="stop-color:#FAE6C8"
             offset="0.5" />
          <a:midPointStop
             style="stop-color:#F17912"
             offset="0.6573" />
          <a:midPointStop
             style="stop-color:#F17912"
             offset="0.5" />
          <a:midPointStop
             style="stop-color:#FF710E"
             offset="0.9045" />
          <a:midPointStop
             style="stop-color:#FF710E"
             offset="0.5" />
          <a:midPointStop
             style="stop-color:#CE5B0B"
             offset="1" />
        </radialGradient>
        <path
           style="fill:url(#radialGradient3452)"
           id="path5395"
           d="M 326.161,309.596 C 324.346,308.033 322.529,299.942 321.701,300.251 C 319.658,301.017 320.7,304.101 319.325,307.851 C 318.742,309.392 315.211,308.286 316.988,310.73 C 318.795,313.126 315.14,313.162 317.992,314.351 C 327.004,318.111 319.264,317.494 322.575,318.865 C 326.265,320.393 325.248,318.631 327.733,319.082 C 328.626,319.244 332.277,321.861 331.938,319.913 C 331.722,318.667 332.691,317.828 334.476,316.666 C 335.484,316.01 337.962,316.611 338.49,315.138 C 338.729,314.465 327.977,311.158 326.161,309.596 z M 321.676,313.326 C 321.139,313.552 319.774,312.287 319.612,311.613 C 319.228,310.013 321.872,306.851 322.764,307.81 C 323.655,308.769 324.887,310.355 324.377,310.959 C 324.188,311.186 322.756,312.871 321.676,313.326 z M 327.436,313.781 C 327.246,314.076 326.334,316.635 325.954,316.67 C 325.302,316.729 323.52,315.332 323.868,314.974 C 324.386,314.441 325.367,312.143 326.081,311.838 C 327.078,311.413 327.883,313.09 327.436,313.781 z M 329.499,318.046 C 327.26,317.343 327.947,314.36 328.849,314.184 C 329.498,314.057 330.961,314.799 331.067,315.284 C 331.334,316.496 329.684,318.104 329.499,318.046 z "
           i:knockout="Off" />
      </g>
    </g>
    <g
       transform="matrix(0.6880887,-2.4595691e-2,2.4656089e-2,0.6892104,-196.15049,-187.58432)"
       id="g5397">
      <radialGradient
         gradientUnits="userSpaceOnUse"
         fy="304.57321"
         fx="318.47949"
         r="29.062901"
         cy="304.57321"
         cx="318.47949"
         id="radialGradient9455">
        <stop
           id="stop9457"
           style="stop-color:#FAAF3D"
           offset="0.0056" />
        <stop
           id="stop9459"
           style="stop-color:#FAE6C8"
           offset="0.3708" />
        <stop
           id="stop9461"
           style="stop-color:#F17912"
           offset="0.6573" />
        <stop
           id="stop9463"
           style="stop-color:#CE5B0B"
           offset="1" />
        <a:midPointStop
           style="stop-color:#FAAF3D"
           offset="0.0056" />
        <a:midPointStop
           style="stop-color:#FAAF3D"
           offset="0.5" />
        <a:midPointStop
           style="stop-color:#FAE6C8"
           offset="0.3708" />
        <a:midPointStop
           style="stop-color:#FAE6C8"
           offset="0.5" />
        <a:midPointStop
           style="stop-color:#F17912"
           offset="0.6573" />
        <a:midPointStop
           style="stop-color:#F17912"
           offset="0.5" />
        <a:midPointStop
           style="stop-color:#CE5B0B"
           offset="1" />
      </radialGradient>
      <path
         style="fill:url(#radialGradient3450)"
         id="path5408"
         d="M 321.418,300.429 C 320.533,300.959 320.359,302.005 320.18,303.665 L 320.18,303.665 C 320.052,304.839 319.894,306.301 319.326,307.851 C 319.104,308.437 318.51,308.629 317.694,308.837 C 317.015,309.013 316.69,309.123 316.549,309.401 L 316.494,309.507 L 316.493,309.645 C 316.493,309.916 316.654,310.271 316.987,310.729 C 317.34,311.196 317.515,311.619 317.515,311.992 C 317.515,312.417 317.29,312.726 317.111,312.975 C 317.174,312.905 316.869,313.495 316.869,313.495 C 316.869,313.9 317.202,314.033 317.624,314.201 L 317.992,314.35 C 321.021,315.614 322.468,316.499 322.542,317.136 C 322.538,317.248 322.455,317.369 322.096,317.625 C 321.93,317.744 321.679,317.923 321.746,318.259 C 321.812,318.594 322.111,318.698 322.4,318.799 L 322.575,318.863 C 324.596,319.7 325.192,319.565 325.872,319.264 C 326.264,319.09 326.708,318.893 327.733,319.079 C 327.994,319.126 328.505,319.392 329.048,319.673 C 331.431,320.902 331.693,320.638 331.85,320.481 L 332.032,320.297 L 332.011,319.986 C 332.004,319.947 331.952,319.93 331.938,319.893 C 331.934,319.861 331.909,319.576 331.909,319.576 C 331.909,318.429 333.073,317.578 334.477,316.663 C 334.862,316.412 335.456,316.346 336.084,316.275 C 336.988,316.174 337.77,316.051 338.217,315.548 L 338.613,315.105 L 338.11,314.792 C 337.447,314.378 335.489,313.615 333.37,312.803 C 330.431,311.677 327.099,310.402 326.162,309.594 C 325.188,308.756 324.194,305.982 323.393,303.753 C 322.893,302.357 322.416,301.066 322.092,300.578 L 321.827,300.182 L 321.418,300.429 z M 321.568,301.77 C 321.862,302.457 322.224,303.459 322.451,304.089 C 323.378,306.674 324.336,309.344 325.509,310.354 C 326.578,311.275 329.703,312.472 333.012,313.739 C 334.063,314.141 335.598,314.732 336.633,315.185 C 336.42,315.222 336.201,315.259 335.979,315.284 C 335.256,315.365 334.515,315.447 333.931,315.828 C 332.391,316.83 331.033,317.873 330.942,319.428 C 330.476,319.24 329.868,318.973 329.508,318.787 C 328.75,318.394 328.302,318.169 327.912,318.098 C 326.584,317.858 325.937,318.144 325.467,318.353 C 325.094,318.518 324.723,318.634 323.168,318.017 C 323.379,317.794 323.545,317.528 323.545,317.196 L 323.535,317.018 C 323.423,316.063 322.543,315.167 318.376,313.428 C 318.375,313.428 318.18,313.349 318.078,313.308 C 318.286,312.995 318.516,312.587 318.516,311.994 C 318.516,311.398 318.272,310.773 317.791,310.137 L 317.791,310.137 C 317.791,310.136 317.723,310.015 317.654,309.896 C 317.787,309.855 317.924,309.813 317.924,309.813 C 318.695,309.616 319.837,309.326 320.262,308.202 C 320.875,306.533 321.04,305.004 321.174,303.775 L 321.174,303.775 C 321.279,302.794 321.389,302.174 321.568,301.77 z "
         i:knockout="Off" />
    </g>
    <path
       i:knockout="Off"
       d="M 45.525629,20.362297 C 44.202226,22.194868 40.968726,21.901225 36.691011,18.803109 C 32.921176,16.073981 31.522276,12.888144 32.757665,11.176032 C 32.81445,11.107063 32.883376,11.050083 32.955202,11.016462 L 47.054762,4.5210959 C 47.22422,4.4432687 47.344474,4.5307523 47.324247,4.7164197 L 45.611048,20.130822 C 45.602725,20.20634 45.571182,20.287517 45.525629,20.362297 z "
       id="path5425"
       style="fill:url(#linearGradient9553)" />
    <path
       i:knockout="Off"
       a:adobe-blending-mode="softLight"
       d="M 47.296656,4.5614459 L 33.293297,15.344363 C 32.733606,14.701881 32.031125,11.4739 32.881011,11.003242 L 47.211055,4.4989467 L 47.296656,4.5614459 z "
       id="path5432"
       style="fill:url(#linearGradient9550)" />
    <path
       sodipodi:nodetypes="ccccc"
       i:knockout="Off"
       a:adobe-blending-mode="darken"
       d="M 47.37016,4.5746904 L 33.568709,15.19098 C 32.185003,13.296453 32.272519,11.442497 32.955202,11.016462 L 47.283847,4.511527 L 47.37016,4.5746904 z "
       id="path5439"
       style="fill:url(#linearGradient9547)" />
    <path
       i:knockout="Off"
       d="M 45.682539,19.760448 C 45.644316,20.097889 45.533937,20.402024 45.346808,20.659907 C 44.16594,22.297609 40.403704,21.494944 36.887747,18.948586 C 33.371076,16.401566 31.431125,13.074966 32.612041,11.438642 C 32.832587,11.132639 33.144341,10.911018 33.528428,10.766171 L 47.322795,4.5218656 L 45.682539,19.760448 z "
       id="path5441"
       style="fill:none;stroke:#192333;stroke-width:1.5;stroke-miterlimit:4;stroke-dasharray:none" />
    <path
       style="fill:url(#radialGradient2457)"
       id="path2413"
       d="M 16.62473,29.934717 C 15.572317,29.756535 13.099119,30.106172 12.944998,30.431439 C 12.721781,30.901933 12.843688,31.430857 13.014725,32.338216 C 13.176752,33.199035 16.381251,39.27895 17.237098,39.028727 C 18.092943,38.778503 19.711945,37.868487 19.459137,36.376479 C 19.206434,34.883863 17.073331,30.010668 16.62473,29.934717 z "
       i:knockout="Off" />
    <path
       style="fill:none;stroke:#662d06;stroke-width:1.39999962"
       id="path2415"
       d="M 14.187586,34.01658 C 13.423357,32.75246 8.6858489,30.814384 8.9593081,30.343019 C 9.6362115,29.180347 11.405952,30.131431 13.830293,29.682245 C 14.828386,29.486739 14.519264,27.226834 15.823661,28.558652 C 17.095747,29.903754 17.494526,27.686176 17.924181,29.541983 C 19.283604,35.406414 19.706117,30.638925 20.199228,32.792439 C 20.748819,35.192464 19.781182,34.392811 19.79947,35.94952 C 19.805998,36.508927 21.022469,38.997478 19.871707,38.590704 C 19.135559,38.331027 18.52496,38.833464 17.633618,39.798529 C 17.130387,40.343528 17.240699,41.911442 16.289668,42.080529 C 15.85538,42.156422 14.951101,35.281207 14.187586,34.01658 z M 16.920424,31.675262 C 17.113356,31.372196 16.484118,30.412268 16.090568,30.244355 C 15.156268,29.846096 12.958987,31.127101 13.450741,31.768034 C 13.942599,32.40836 14.780939,33.320538 15.20117,33.072836 C 15.358829,32.981367 16.532114,32.284731 16.920424,31.675262 z M 16.603462,35.222732 C 16.802613,35.13766 18.454272,34.847119 18.514757,34.619784 C 18.617897,34.229619 17.951307,33.002661 17.697518,33.177261 C 17.319677,33.437142 15.819771,33.796516 15.560503,34.199008 C 15.199011,34.761128 16.136771,35.42318 16.603462,35.222732 z M 18.986781,36.916025 C 18.78974,35.482848 16.9032,35.592954 16.703067,36.122998 C 16.558845,36.504334 16.859638,37.469923 17.143918,37.584324 C 17.854115,37.871493 19.003009,37.034433 18.986781,36.916025 z "
       i:knockout="Off" />
    <g
       transform="matrix(-0.10311,0.6077394,0.6086835,0.1030544,-140.62794,-196.10954)"
       id="g2417"
       i:knockout="Off">
      <g
         id="g2419">
        <radialGradient
           gradientUnits="userSpaceOnUse"
           gradientTransform="matrix(0.9993,3.61e-2,-3.61e-2,0.9993,115.3272,-221.9336)"
           fy="518.71088"
           fx="222.80659"
           r="17.4084"
           cy="518.71088"
           cx="222.80659"
           id="radialGradient2421">
          <stop
             id="stop2423"
             style="stop-color:#FFFFFF"
             offset="0" />
          <stop
             id="stop2425"
             style="stop-color:#FAE6C8"
             offset="0.1461" />
          <stop
             id="stop2427"
             style="stop-color:#F17912"
             offset="0.6573" />
          <stop
             id="stop2429"
             style="stop-color:#FF710E"
             offset="0.9045" />
          <stop
             id="stop2431"
             style="stop-color:#CE5B0B"
             offset="1" />
          <a:midPointStop
             style="stop-color:#FFFFFF"
             offset="0" />
          <a:midPointStop
             style="stop-color:#FFFFFF"
             offset="0.5" />
          <a:midPointStop
             style="stop-color:#FAE6C8"
             offset="0.1461" />
          <a:midPointStop
             style="stop-color:#FAE6C8"
             offset="0.5" />
          <a:midPointStop
             style="stop-color:#F17912"
             offset="0.6573" />
          <a:midPointStop
             style="stop-color:#F17912"
             offset="0.5" />
          <a:midPointStop
             style="stop-color:#FF710E"
             offset="0.9045" />
          <a:midPointStop
             style="stop-color:#FF710E"
             offset="0.5" />
          <a:midPointStop
             style="stop-color:#CE5B0B"
             offset="1" />
        </radialGradient>
        <path
           style="fill:url(#radialGradient2459)"
           id="path2433"
           d="M 326.161,309.596 C 324.346,308.033 322.529,299.942 321.701,300.251 C 319.658,301.017 320.7,304.101 319.325,307.851 C 318.742,309.392 315.211,308.286 316.988,310.73 C 318.795,313.126 315.14,313.162 317.992,314.351 C 327.004,318.111 319.264,317.494 322.575,318.865 C 326.265,320.393 325.248,318.631 327.733,319.082 C 328.626,319.244 332.277,321.861 331.938,319.913 C 331.722,318.667 332.691,317.828 334.476,316.666 C 335.484,316.01 337.962,316.611 338.49,315.138 C 338.729,314.465 327.977,311.158 326.161,309.596 z M 321.676,313.326 C 321.139,313.552 319.774,312.287 319.612,311.613 C 319.228,310.013 321.872,306.851 322.764,307.81 C 323.655,308.769 324.887,310.355 324.377,310.959 C 324.188,311.186 322.756,312.871 321.676,313.326 z M 327.436,313.781 C 327.246,314.076 326.334,316.635 325.954,316.67 C 325.302,316.729 323.52,315.332 323.868,314.974 C 324.386,314.441 325.367,312.143 326.081,311.838 C 327.078,311.413 327.883,313.09 327.436,313.781 z M 329.499,318.046 C 327.26,317.343 327.947,314.36 328.849,314.184 C 329.498,314.057 330.961,314.799 331.067,315.284 C 331.334,316.496 329.684,318.104 329.499,318.046 z "
           i:knockout="Off" />
      </g>
    </g>
    <g
       transform="matrix(-0.10311,0.6077394,0.6086835,0.1030544,-140.62794,-196.10954)"
       id="g2435">
      <radialGradient
         gradientUnits="userSpaceOnUse"
         fy="304.57321"
         fx="318.47949"
         r="29.062901"
         cy="304.57321"
         cx="318.47949"
         id="radialGradient2437">
        <stop
           id="stop2439"
           style="stop-color:#FAAF3D"
           offset="0.0056" />
        <stop
           id="stop2441"
           style="stop-color:#FAE6C8"
           offset="0.3708" />
        <stop
           id="stop2443"
           style="stop-color:#F17912"
           offset="0.6573" />
        <stop
           id="stop2445"
           style="stop-color:#CE5B0B"
           offset="1" />
        <a:midPointStop
           style="stop-color:#FAAF3D"
           offset="0.0056" />
        <a:midPointStop
           style="stop-color:#FAAF3D"
           offset="0.5" />
        <a:midPointStop
           style="stop-color:#FAE6C8"
           offset="0.3708" />
        <a:midPointStop
           style="stop-color:#FAE6C8"
           offset="0.5" />
        <a:midPointStop
           style="stop-color:#F17912"
           offset="0.6573" />
        <a:midPointStop
           style="stop-color:#F17912"
           offset="0.5" />
        <a:midPointStop
           style="stop-color:#CE5B0B"
           offset="1" />
      </radialGradient>
      <path
         style="fill:url(#radialGradient2461)"
         id="path2447"
         d="M 321.418,300.429 C 320.533,300.959 320.359,302.005 320.18,303.665 L 320.18,303.665 C 320.052,304.839 319.894,306.301 319.326,307.851 C 319.104,308.437 318.51,308.629 317.694,308.837 C 317.015,309.013 316.69,309.123 316.549,309.401 L 316.494,309.507 L 316.493,309.645 C 316.493,309.916 316.654,310.271 316.987,310.729 C 317.34,311.196 317.515,311.619 317.515,311.992 C 317.515,312.417 317.29,312.726 317.111,312.975 C 317.174,312.905 316.869,313.495 316.869,313.495 C 316.869,313.9 317.202,314.033 317.624,314.201 L 317.992,314.35 C 321.021,315.614 322.468,316.499 322.542,317.136 C 322.538,317.248 322.455,317.369 322.096,317.625 C 321.93,317.744 321.679,317.923 321.746,318.259 C 321.812,318.594 322.111,318.698 322.4,318.799 L 322.575,318.863 C 324.596,319.7 325.192,319.565 325.872,319.264 C 326.264,319.09 326.708,318.893 327.733,319.079 C 327.994,319.126 328.505,319.392 329.048,319.673 C 331.431,320.902 331.693,320.638 331.85,320.481 L 332.032,320.297 L 332.011,319.986 C 332.004,319.947 331.952,319.93 331.938,319.893 C 331.934,319.861 331.909,319.576 331.909,319.576 C 331.909,318.429 333.073,317.578 334.477,316.663 C 334.862,316.412 335.456,316.346 336.084,316.275 C 336.988,316.174 337.77,316.051 338.217,315.548 L 338.613,315.105 L 338.11,314.792 C 337.447,314.378 335.489,313.615 333.37,312.803 C 330.431,311.677 327.099,310.402 326.162,309.594 C 325.188,308.756 324.194,305.982 323.393,303.753 C 322.893,302.357 322.416,301.066 322.092,300.578 L 321.827,300.182 L 321.418,300.429 z M 321.568,301.77 C 321.862,302.457 322.224,303.459 322.451,304.089 C 323.378,306.674 324.336,309.344 325.509,310.354 C 326.578,311.275 329.703,312.472 333.012,313.739 C 334.063,314.141 335.598,314.732 336.633,315.185 C 336.42,315.222 336.201,315.259 335.979,315.284 C 335.256,315.365 334.515,315.447 333.931,315.828 C 332.391,316.83 331.033,317.873 330.942,319.428 C 330.476,319.24 329.868,318.973 329.508,318.787 C 328.75,318.394 328.302,318.169 327.912,318.098 C 326.584,317.858 325.937,318.144 325.467,318.353 C 325.094,318.518 324.723,318.634 323.168,318.017 C 323.379,317.794 323.545,317.528 323.545,317.196 L 323.535,317.018 C 323.423,316.063 322.543,315.167 318.376,313.428 C 318.375,313.428 318.18,313.349 318.078,313.308 C 318.286,312.995 318.516,312.587 318.516,311.994 C 318.516,311.398 318.272,310.773 317.791,310.137 L 317.791,310.137 C 317.791,310.136 317.723,310.015 317.654,309.896 C 317.787,309.855 317.924,309.813 317.924,309.813 C 318.695,309.616 319.837,309.326 320.262,308.202 C 320.875,306.533 321.04,305.004 321.174,303.775 L 321.174,303.775 C 321.279,302.794 321.389,302.174 321.568,301.77 z "
         i:knockout="Off" />
    </g>
    <path
       i:knockout="Off"
       d="M 15.351841,42.854541 C 17.134375,41.895939 17.255773,38.991824 15.011875,34.830725 C 13.035415,31.163798 10.373597,29.547142 8.7083547,30.441824 C 8.6404458,30.484095 8.5817404,30.538551 8.5434189,30.598333 L 1.1139335,42.345811 C 1.0248525,42.487028 1.0882789,42.604049 1.2554265,42.607966 L 15.136343,42.903082 C 15.204339,42.904591 15.280102,42.886159 15.351841,42.854541 z "
       id="path2449"
       style="fill:url(#linearGradient2463)" />
    <path
       i:knockout="Off"
       a:adobe-blending-mode="softLight"
       d="M 1.121164,42.565228 L 12.344003,31.408101 C 11.839991,30.83574 9.0585047,29.832148 8.5404528,30.530936 L 1.0758162,42.481902 L 1.121164,42.565228 z "
       id="path2451"
       style="fill:url(#linearGradient2465)" />
    <path
       sodipodi:nodetypes="ccccc"
       i:knockout="Off"
       a:adobe-blending-mode="darken"
       d="M 1.1242346,42.632018 L 12.175358,31.634448 C 10.657637,30.183361 9.0021235,30.04267 8.5434189,30.598333 L 1.0783809,42.547982 L 1.1242346,42.632018 z "
       id="path2453"
       style="fill:url(#linearGradient2467)" />
    <path
       i:knockout="Off"
       d="M 14.799233,42.922906 C 15.103189,42.928729 15.386114,42.866595 15.63706,42.730903 C 17.229833,41.87584 16.961994,38.442551 15.117731,35.022452 C 13.272962,31.601642 10.550151,29.488257 8.9585956,30.343524 C 8.6609995,30.503203 8.4275076,30.753764 8.2535999,31.077557 L 1.0829543,42.583766 L 14.799233,42.922906 z "
       id="path2455"
       style="fill:none;stroke:#192333;stroke-width:1.5;stroke-miterlimit:4;stroke-dasharray:none" />
    <path
       style="fill:none;fill-rule:evenodd;stroke:#eeeeec;stroke-width:3.49999976;stroke-linecap:butt;stroke-linejoin:miter;stroke-miterlimit:4;stroke-dasharray:none;stroke-dashoffset:0.4;stroke-opacity:0.53947371"
       d="M 17.088252,35.177483 C 20.274581,34.841016 24.593635,31.955257 26.751377,27.979915"
       id="path3446"
       sodipodi:nodetypes="cc" />
    <path
       style="fill:none;fill-rule:evenodd;stroke:#a40000;stroke-width:2;stroke-linecap:butt;stroke-linejoin:miter;stroke-miterlimit:4;stroke-dasharray:2, 2;stroke-dashoffset:0;stroke-opacity:1"
       d="M 17.656049,34.726937 C 20.842378,34.390472 25.161431,31.504711 27.319172,27.52937"
       id="path2469"
       sodipodi:nodetypes="cc" />
    <path
       style="fill:none;fill-rule:evenodd;stroke:#eeeeec;stroke-width:3.5;stroke-linecap:butt;stroke-linejoin:miter;stroke-miterlimit:4;stroke-dasharray:none;stroke-dashoffset:0.4;stroke-opacity:0.53947371"
       d="M 35.349731,21.405179 C 34.434447,24.47571 30.805336,28.192077 26.501624,29.58393"
       id="path3448"
       sodipodi:nodetypes="cc" />
    <path
       style="fill:none;fill-rule:evenodd;stroke:#a40000;stroke-width:2;stroke-linecap:butt;stroke-linejoin:miter;stroke-miterlimit:4;stroke-dasharray:2, 2;stroke-dashoffset:0;stroke-opacity:1"
       d="M 35.135664,21.690484 C 34.22038,24.761015 30.591269,28.477382 26.287557,29.869234"
       id="path3440"
       sodipodi:nodetypes="cc" />
    <path
       style="fill:#ef2929;fill-opacity:1;fill-rule:evenodd;stroke:#ffffff;stroke-width:1;stroke-linecap:butt;stroke-linejoin:miter;stroke-miterlimit:4;stroke-dasharray:none;stroke-opacity:1"
       d="M 28.485604,24.046553 L 26.891854,26.452803 L 25.173104,24.640303 L 22.985604,26.702803 L 25.173104,29.046553 L 22.610604,32.921553 L 25.110604,34.577803 L 27.298104,31.265303 L 29.548104,33.671553 L 31.735604,31.609053 L 28.985604,28.702803 L 30.985604,25.702803 L 28.485604,24.046553 z "
       id="path3469" />
  </g>
</svg>
