<?xml version="1.0" encoding="UTF-8" standalone="no"?>
<!-- Created with Inkscape (http://www.inkscape.org/) -->

<svg
   xmlns:i="http://ns.adobe.com/AdobeIllustrator/10.0/"
   xmlns:a="http://ns.adobe.com/AdobeSVGViewerExtensions/3.0/"
   xmlns:dc="http://purl.org/dc/elements/1.1/"
   xmlns:cc="http://creativecommons.org/ns#"
   xmlns:rdf="http://www.w3.org/1999/02/22-rdf-syntax-ns#"
   xmlns:svg="http://www.w3.org/2000/svg"
   xmlns="http://www.w3.org/2000/svg"
   xmlns:xlink="http://www.w3.org/1999/xlink"
   xmlns:sodipodi="http://sodipodi.sourceforge.net/DTD/sodipodi-0.dtd"
   xmlns:inkscape="http://www.inkscape.org/namespaces/inkscape"
   width="48px"
   height="48px"
   id="svg51390"
   sodipodi:version="0.32"
   inkscape:version="0.48.5 r10040"
   sodipodi:docname="muscle.svg"
   version="1.1">
  <metadata
     id="metadata49779">
    <rdf:RDF>
      <cc:Work
         rdf:about="">
        <dc:format>image/svg+xml</dc:format>
        <dc:type
           rdf:resource="http://purl.org/dc/dcmitype/StillImage" />
        <dc:title></dc:title>
      </cc:Work>
    </rdf:RDF>
  </metadata>
  <defs
     id="defs51392">
    <linearGradient
       inkscape:collect="always"
       id="linearGradient51420">
      <stop
         style="stop-color:#2e3436;stop-opacity:1;"
         offset="0"
         id="stop51422" />
      <stop
         style="stop-color:#2e3436;stop-opacity:0;"
         offset="1"
         id="stop51424" />
    </linearGradient>
    <radialGradient
       gradientUnits="userSpaceOnUse"
       gradientTransform="matrix(1,-0.2454,0,1.1543,-820.3079,-1631.989)"
       fy="1627.7544"
       fx="839.2642"
       r="20.8162"
       cy="1627.7544"
       cx="839.2642"
       id="XMLID_685_">
      <stop
         id="stop20407"
         style="stop-color:#B5BABE"
         offset="0" />
      <stop
         id="stop20409"
         style="stop-color:#FFFFFF"
         offset="1" />
      <a:midPointStop
         style="stop-color:#B5BABE"
         offset="0" />
      <a:midPointStop
         style="stop-color:#B5BABE"
         offset="0.5" />
      <a:midPointStop
         style="stop-color:#FFFFFF"
         offset="1" />
    </radialGradient>
    <linearGradient
       gradientTransform="matrix(0.9659,0.2588,-0.2588,0.9659,-552.9464,-1838.033)"
       y2="1652.9285"
       x2="1041.3757"
       y1="1646.0581"
       x1="1038.1348"
       gradientUnits="userSpaceOnUse"
       id="XMLID_718_">
      <stop
         id="stop20732"
         style="stop-color:#a8ed28;stop-opacity:1;"
         offset="0" />
      <stop
         id="stop20734"
         style="stop-color:#87cb09;stop-opacity:1;"
         offset="1" />
      <a:midPointStop
         style="stop-color:#ED2829"
         offset="0" />
      <a:midPointStop
         style="stop-color:#ED2829"
         offset="0.5" />
      <a:midPointStop
         style="stop-color:#CB1009"
         offset="1" />
    </linearGradient>
    <linearGradient
       inkscape:collect="always"
       xlink:href="#linearGradient51420"
       id="linearGradient51426"
       x1="2.4521585"
       y1="44.982819"
       x2="40.321445"
       y2="35.268536"
       gradientUnits="userSpaceOnUse" />
    <linearGradient
       inkscape:collect="always"
       xlink:href="#XMLID_718_"
       id="linearGradient50310"
       gradientUnits="userSpaceOnUse"
       gradientTransform="matrix(0.9659,0.2588,-0.2588,0.9659,-552.9464,-1838.033)"
       x1="1038.1348"
       y1="1646.0581"
       x2="1041.3757"
       y2="1652.9285" />
  </defs>
  <sodipodi:namedview
     id="base"
     pagecolor="#ffffff"
     bordercolor="#666666"
     borderopacity="1.0"
     inkscape:pageopacity="0.0"
     inkscape:pageshadow="2"
     inkscape:zoom="19.79899"
     inkscape:cx="15.969287"
     inkscape:cy="20.765409"
     inkscape:current-layer="layer1"
     showgrid="true"
     inkscape:grid-bbox="true"
     inkscape:document-units="px"
     inkscape:window-width="2560"
     inkscape:window-height="1537"
     inkscape:window-x="-8"
     inkscape:window-y="-8"
     inkscape:window-maximized="1" />
  <g
     id="layer1"
     inkscape:label="Layer 1"
     inkscape:groupmode="layer">
    <path
       style="fill:url(#linearGradient51426);fill-opacity:1.0"
       id="path20411"
       d="M 45.750016,34.137968 C 45.750016,35.745968 35.865016,39.476968 23.673016,42.468968 C 11.480016,45.459968 1.5950156,46.579968 1.5950156,44.970968 C 1.5950156,43.361968 11.480016,39.631968 23.673016,36.639968 C 35.865016,33.648968 45.750016,32.527968 45.750016,34.137968 z "
       a:adobe-blending-mode="multiply"
       i:knockout="Off" />
    <g
       id="g50295"
       transform="matrix(1.2851124,0.30666049,0.30160335,1.3066605,-14.099229,-14.177424)">
      <path
         i:knockout="Off"
         d="m 44.700016,3.0839683 c -0.789,0.725 -1.487,1.311 -1.947,1.565 -1.372,0.763 -2.999,1.577 -3.864,1.525 -0.863,-0.051 -4.5,-0.06 -6.964,1.067 -5.441,2.492 -17.49,13.9319997 -22.6260004,21.6099997 -5.136,7.678 -4.222,10.015 -5.848,12.051 -0.924,1.153 -1.567,2.191 -2.52,3.386 -0.726,0.91 2.161,1.8 3.308,0.886 3.463,-2.764 4.674,-2.999 6.8900004,-4.527 10.728,-7.27 21.184,-17.569 23.489,-19.728 2.637,-2.465 3.98,-4.087 6.991,-9.507 1.638,-2.9479997 3.644,-5.6389997 5.399,-7.7119997 1.469,-1.736 -0.74,-2.06 -2.308,-0.616 z"
         id="path20729"
         style="fill:#ffffff"
         inkscape:connector-curvature="0" />
      <path
         i:knockout="Off"
         d="m 10.090016,41.319968 c 0.328,-0.201 0.669,-0.419 1.038,-0.673 10.728,-7.27 21.184,-17.569 23.489,-19.728 0.969,-0.905 1.763,-1.697 2.529,-2.605 0.109,-0.166 0.09,-0.73 0.589,-1.619 0.499,-0.889 0.335,-1.725 1.362,-3.584 1.611,-2.723 1.137,-2.917 1.443,-3.3889997 0.859,-1.083 1.445,-2.555 1.861,-3.084 0.416,-0.529 -0.787,-1.027 -1.592,-1 -0.757,0.338 -1.453,0.564 -1.923,0.536 -0.863,-0.051 -4.5,-0.06 -6.964,1.067 -5.441,2.492 -17.49,13.9319997 -22.6260004,21.6099997 -0.514,0.768 -1.019,1.646 -1.419,2.313 -0.252,0.528 0.053,1.11 -0.085,1.583 -0.138,0.472 -1.223,2.61 -1.667,3.667 -0.443,1.055 -0.473,2.805 0.083,3.415 0.558,0.611 1.11,1.556 3.027,1.085 1.9220004,-0.472 1.2730004,0.044 0.8550004,0.406 z"
         id="path20736"
         style="fill:url(#linearGradient50310)"
         inkscape:connector-curvature="0" />
      <path
         i:knockout="Off"
         d="m 34.911016,20.505968 c 0.154,-0.163 0.32,-0.319 0.48,-0.479 0.49,-0.492 0.842,-1.026 1.234,-1.58 0.141,-0.202 0.026,-0.313 0.107,-0.553 0.074,-0.211 0.227,-0.371 0.344,-0.557 0.252,-0.405 0.152,-0.973 0.292,-1.402 0.071,-0.214 0.253,-0.436 0.36,-0.638 0.107,-0.205 0.143,-0.421 0.242,-0.632 0.216,-0.453 0.477,-0.876 0.611,-1.363 0.083,-0.3 -0.057,-0.273 -0.123,-0.539 -0.061,-0.241 0.111,-0.514 0.256,-0.678 0.351,-0.393 0.883,-0.846 1.082,-1.318 0.123,-0.293 0.133,-0.625 0.271,-0.8999997 0.128,-0.258 0.375,-0.48 0.531,-0.723 0.346,-0.527 0.664,-1.074 0.966,-1.633 0.12,-0.225 0.269,-0.469 0.359,-0.707 0.071,-0.189 0.167,-0.527 0.034,-0.684 -0.222,-0.266 -0.951,-0.25 -1.258,-0.229 -0.408,0.028 -0.795,0.292 -1.334,0.448 -0.326,0.057 -4.803,-0.617 -9.011,1.9 -0.421,0.269 4.786,-2.133 6.917,-1.537 0.192,0.038 -1.41,0.565 -4.154,2.498 -2.747,1.9319997 -7.959,5.0079997 -8.619,6.8889997 -0.662,1.881 -0.356,5.543 -1.221,6.917 -0.864,1.371 -1.779,2.794 -3.711,4.827 -1.933,2.035 -6.357,3.712 -8.287,4.628 -1.9320004,0.915 -4.5770004,3.153 -4.7790004,3.766 -0.205,0.607 -0.602,2.156 0.334,3.374 0.938,1.217 1.714,1.041 3.2150004,0.708 1.5,-0.338 1.219,0.017 1.182,0.121 -0.033,0.106 7.824,-5.809 9.714,-7.416 1.89,-1.606 13.731,-12.261 13.966,-12.508 z"
         id="path20738"
         style="fill:#89cb09;fill-opacity:1"
         inkscape:connector-curvature="0" />
      <path
         i:knockout="Off"
         d="m 39.851016,9.5519683 c 0.357,-0.518 0.448,-1.588 -0.48,-1.439 -0.927,0.152 -4.371,1.26 -6.827,3.1739997 -2.455,1.918 -2.723,2.846 -3.234,5.928 -0.178,0.959 -5.178,5.721 -6.346,7.128 -1.259,1.497 -2.395,2.875 -3.503,3.922 -1.108,1.047 -2.995,2.454 -7.755,5.478 -1.9450004,1.229 -3.6900004,3.75 -3.2030004,4.221 1.5080004,1.466 4.1020004,1.051 5.7480004,10e-4 1.646,-1.045 20.09,-17.034 21.199,-18.501 1.107,-1.469 1.676,-5.45 2.364,-6.619 0.749,-1.287 1.768,-2.9039997 2.037,-3.2929997 z"
         id="path20740"
         style="fill:#74b309;fill-opacity:1"
         inkscape:connector-curvature="0" />
      <path
         i:knockout="Off"
         d="m 38.607016,10.670968 c 0.411,-0.58 -1.005,-1.7709997 -2.923,-0.8549997 -1.92,0.9159997 -4.104,1.5639997 -5.729,6.6729997 -0.799,2.628 -3.869,5.226 -5.491,8.209 -1.005,1.828 1.003,3.661 8.12,-3.102 3.188,-2.954 3.482,-4.075 3.778,-5.55 0.296,-1.476 1.242,-3.959 2.245,-5.375 z"
         id="path20742"
         style="fill:#57a40a;fill-opacity:1"
         inkscape:connector-curvature="0" />
      <path
         i:knockout="Off"
         d="m 47.228016,3.4429683 c -1.806,2.103 -3.913,4.897 -5.619,7.9699997 -3.011,5.42 -4.354,7.042 -6.991,9.507 -2.306,2.158 -12.762,12.458 -23.489,19.728 -2.3540004,1.623 -3.5750004,1.789 -7.5630004,5.072"
         id="path20744"
         style="fill:none;stroke:#414951;stroke-width:0.6350975"
         inkscape:connector-curvature="0" />
      <path
         i:knockout="Off"
         d="m 44.901016,2.8979683 c -0.871,0.811 -1.648,1.475 -2.148,1.751 -1.372,0.763 -2.999,1.577 -3.864,1.525 -0.863,-0.051 -4.5,-0.06 -6.964,1.067 -5.441,2.492 -17.49,13.9319997 -22.6260004,21.6099997 -5.136,7.678 -4.222,10.015 -5.848,12.051 -1.003,1.252 -1.678,2.371 -2.773,3.698"
         id="path20746"
         style="fill:none;stroke:#5b6772;stroke-width:0.6350975"
         inkscape:connector-curvature="0" />
      <path
         style="fill:none;stroke:#4e7f07;stroke-width:0.31754875;stroke-opacity:1"
         id="path20750"
         d="m 38.7741,12.432 c -2.807,1.894 -4.965,3.657 -12.604,11.169 -7.643,7.51 -11.888,11.363 -18.417,16.588"
         i:knockout="Off"
         inkscape:connector-curvature="0" />
      <path
         style="fill:none;stroke:#b1fa46;stroke-width:0.31754875;stroke-opacity:1"
         id="path20752"
         d="m 8.0361,40.545 c 6.437,-5.15 10.575,-8.878 18.453,-16.62 7.761,-7.631 9.869,-9.314 12.539,-11.116"
         i:knockout="Off"
         inkscape:connector-curvature="0" />
      <path
         style="fill:none;stroke:#4e7f07;stroke-width:0.31754875;stroke-opacity:1"
         id="path20754"
         d="m 40.0161,8.97 c -1.503,0.457 -5.226,1.959 -8.36,4.571 -3.136,2.612 -6.009,5.226 -10.255,9.472 -4.245,4.244 -9.535,9.796 -15.152,14.891"
         i:knockout="Off"
         inkscape:connector-curvature="0" />
      <path
         style="fill:none;stroke:#b1fa46;stroke-width:0.31754875;stroke-opacity:1"
         id="path20756"
         d="m 6.5541,38.242 c 4.284,-3.886 8.36,-8.02 11.956,-11.665 l 3.212,-3.242 c 3.997,-3.995 6.863,-6.644 10.224,-9.443 2.968,-2.473 6.552,-3.983 8.203,-4.485"
         i:knockout="Off"
         inkscape:connector-curvature="0" />
      <path
         style="fill:none;stroke:#4e7f07;stroke-width:0.31754875;stroke-opacity:1"
         id="path20758"
         d="m 38.3831,7.206 c -2.286,0.589 -4.181,0.522 -8.295,3.071 -4.115,2.547 -13.912,12.736 -16.59,15.413 -2.679,2.678 -5.355,6.531 -5.355,6.531"
         i:knockout="Off"
         inkscape:connector-curvature="0" />
      <path
         style="fill:none;stroke:#b1fa46;stroke-width:0.31754875;stroke-opacity:1"
         id="path20760"
         d="m 8.5161,32.481 c 0.026,-0.039 2.687,-3.853 5.303,-6.469 l 1.451,-1.468 c 3.748,-3.8 11.545,-11.709 15.058,-13.881 3.183,-1.973 4.989,-2.342 6.736,-2.699 l 1.433,-0.318"
         i:knockout="Off"
         inkscape:connector-curvature="0" />
    </g>
    <path
       style="fill:none;stroke:#386c05;stroke-width:1px;stroke-linecap:butt;stroke-linejoin:miter;stroke-opacity:1"
       d="m 12.98046,17.796439 c -1.490477,8.664208 0.715264,15.27496 4.04061,21.263711"
       id="path50312"
       inkscape:connector-curvature="0"
       sodipodi:nodetypes="cc" />
    <path
       style="fill:none;stroke:#234403;stroke-width:1px;stroke-linecap:butt;stroke-linejoin:miter;stroke-opacity:1;color:#000000;stroke-miterlimit:4;stroke-dasharray:none;stroke-dashoffset:0;marker:none;visibility:visible;display:inline;overflow:visible;enable-background:accumulate"
       d="m 10.556094,22.392633 4.141626,-1.06066"
       id="path50314"
       inkscape:connector-curvature="0" />
    <path
       style="color:#000000;fill:none;stroke:#234403;stroke-width:1px;stroke-linecap:butt;stroke-linejoin:miter;stroke-miterlimit:4;stroke-opacity:1;stroke-dasharray:none;stroke-dashoffset:0;marker:none;visibility:visible;display:inline;overflow:visible;enable-background:accumulate"
       d="m 10.85914,29.009132 4.141626,-1.06066"
       id="path50335"
       inkscape:connector-curvature="0" />
    <path
       style="color:#000000;fill:none;stroke:#234403;stroke-width:1px;stroke-linecap:butt;stroke-linejoin:miter;stroke-miterlimit:4;stroke-opacity:1;stroke-dasharray:none;stroke-dashoffset:0;marker:none;visibility:visible;display:inline;overflow:visible;enable-background:accumulate"
       d="m 12.995002,36.191991 3.607466,-2.294396"
       id="path50339"
       inkscape:connector-curvature="0" />
    <path
       style="fill:none;stroke:#336204;stroke-width:1px;stroke-linecap:butt;stroke-linejoin:miter;stroke-opacity:1;color:#000000;stroke-miterlimit:4;stroke-dasharray:none;stroke-dashoffset:0;marker:none;visibility:visible;display:inline;overflow:visible;enable-background:accumulate"
       d="m 21.061681,9.866741 c 4.561184,7.429768 3.131936,17.1337 -6.919545,23.081986"
       id="path50343"
       inkscape:connector-curvature="0"
       sodipodi:nodetypes="cc" />
    <path
       style="fill:none;stroke:#336204;stroke-width:1px;stroke-linecap:butt;stroke-linejoin:miter;stroke-opacity:1;color:#000000;stroke-miterlimit:4;stroke-dasharray:none;stroke-dashoffset:0;marker:none;visibility:visible;display:inline;overflow:visible;enable-background:accumulate"
       d="m 23.233509,20.170297 c 4.041185,1.522743 7.859168,5.216212 12.929952,4.040611"
       id="path50345"
       inkscape:connector-curvature="0"
       sodipodi:nodetypes="cc" />
    <path
       style="fill:none;stroke:#336204;stroke-width:1px;stroke-linecap:butt;stroke-linejoin:miter;stroke-opacity:1;color:#000000;stroke-miterlimit:4;stroke-dasharray:none;stroke-dashoffset:0;marker:none;visibility:visible;display:inline;overflow:visible;enable-background:accumulate"
       d="M 32.77945,4.9675016 C 33.823321,11.247283 35.782801,17.527065 30.355084,23.806847"
       id="path50347"
       inkscape:connector-curvature="0"
       sodipodi:nodetypes="cc" />
    <path
       inkscape:connector-curvature="0"
       id="path50366"
       d="m 17.438533,27.680266 2.700608,3.31433"
       style="color:#000000;fill:none;stroke:#234403;stroke-width:1px;stroke-linecap:butt;stroke-linejoin:miter;stroke-miterlimit:4;stroke-opacity:1;stroke-dasharray:none;stroke-dashoffset:0;marker:none;visibility:visible;display:inline;overflow:visible;enable-background:accumulate" />
    <path
       style="color:#000000;fill:none;stroke:#234403;stroke-width:1px;stroke-linecap:butt;stroke-linejoin:miter;stroke-miterlimit:4;stroke-opacity:1;stroke-dasharray:none;stroke-dashoffset:0;marker:none;visibility:visible;display:inline;overflow:visible;enable-background:accumulate"
       d="m 20.483998,23.673534 3.57973,2.337436"
       id="path50368"
       inkscape:connector-curvature="0" />
    <path
       inkscape:connector-curvature="0"
       id="path50370"
       d="m 21.400042,16.830551 4.273025,-0.139038"
       style="color:#000000;fill:none;stroke:#234403;stroke-width:1px;stroke-linecap:butt;stroke-linejoin:miter;stroke-miterlimit:4;stroke-opacity:1;stroke-dasharray:none;stroke-dashoffset:0;marker:none;visibility:visible;display:inline;overflow:visible;enable-background:accumulate" />
    <path
       style="color:#000000;fill:none;stroke:#234403;stroke-width:1px;stroke-linecap:butt;stroke-linejoin:miter;stroke-miterlimit:4;stroke-opacity:1;stroke-dasharray:none;stroke-dashoffset:0;marker:none;visibility:visible;display:inline;overflow:visible;enable-background:accumulate"
       d="M 20.382854,12.839296 24.366903,11.28835"
       id="path50372"
       inkscape:connector-curvature="0" />
    <path
       inkscape:connector-curvature="0"
       id="path50374"
       d="m 27.208843,24.209081 1.544765,-3.98645"
       style="color:#000000;fill:none;stroke:#234403;stroke-width:1px;stroke-linecap:butt;stroke-linejoin:miter;stroke-miterlimit:4;stroke-opacity:1;stroke-dasharray:none;stroke-dashoffset:0;marker:none;visibility:visible;display:inline;overflow:visible;enable-background:accumulate" />
    <path
       style="color:#000000;fill:none;stroke:#234403;stroke-width:1px;stroke-linecap:butt;stroke-linejoin:miter;stroke-miterlimit:4;stroke-opacity:1;stroke-dasharray:none;stroke-dashoffset:0;marker:none;visibility:visible;display:inline;overflow:visible;enable-background:accumulate"
       d="m 31.685944,17.451397 3.298181,2.861911"
       id="path50376"
       inkscape:connector-curvature="0"
       sodipodi:nodetypes="cc" />
    <path
       inkscape:connector-curvature="0"
       id="path50378"
       d="m 32.718491,13.37866 2.344255,0.299767"
       style="color:#000000;fill:none;stroke:#234403;stroke-width:1px;stroke-linecap:butt;stroke-linejoin:miter;stroke-miterlimit:4;stroke-opacity:1;stroke-dasharray:none;stroke-dashoffset:0;marker:none;visibility:visible;display:inline;overflow:visible;enable-background:accumulate" />
    <path
       style="color:#000000;fill:none;stroke:#234403;stroke-width:1px;stroke-linecap:butt;stroke-linejoin:miter;stroke-miterlimit:4;stroke-opacity:1;stroke-dasharray:none;stroke-dashoffset:0;marker:none;visibility:visible;display:inline;overflow:visible;enable-background:accumulate"
       d="m 31.299041,8.2268824 4.274017,-0.104294"
       id="path50380"
       inkscape:connector-curvature="0" />
    <path
       style="color:#000000;fill:none;stroke:#234403;stroke-width:1px;stroke-linecap:butt;stroke-linejoin:miter;stroke-miterlimit:4;stroke-opacity:1;stroke-dasharray:none;stroke-dashoffset:0;marker:none;visibility:visible;display:inline;overflow:visible;enable-background:accumulate"
       d="m 32.411129,26.279894 1.544765,-3.98645"
       id="path50382"
       inkscape:connector-curvature="0" />
    <path
       sodipodi:nodetypes="cc"
       inkscape:connector-curvature="0"
       id="path50384"
       d="m 34.984125,17.451397 -3.298181,2.861911"
       style="color:#000000;fill:none;stroke:#234403;stroke-width:1px;stroke-linecap:butt;stroke-linejoin:miter;stroke-miterlimit:4;stroke-opacity:1;stroke-dasharray:none;stroke-dashoffset:0;marker:none;visibility:visible;display:inline;overflow:visible;enable-background:accumulate" />
  </g>
</svg>
