<?xml version="1.0" encoding="UTF-8" standalone="no"?>
<!-- Generator: Adobe Illustrator 15.0.0, SVG Export Plug-In . SVG Version: 6.00 Build 0)  -->

<svg
   xmlns:dc="http://purl.org/dc/elements/1.1/"
   xmlns:cc="http://creativecommons.org/ns#"
   xmlns:rdf="http://www.w3.org/1999/02/22-rdf-syntax-ns#"
   xmlns:svg="http://www.w3.org/2000/svg"
   xmlns="http://www.w3.org/2000/svg"
   xmlns:xlink="http://www.w3.org/1999/xlink"
   xmlns:sodipodi="http://sodipodi.sourceforge.net/DTD/sodipodi-0.dtd"
   xmlns:inkscape="http://www.inkscape.org/namespaces/inkscape"
   version="1.1"
   id="Layer_1"
   x="0px"
   y="0px"
   width="48"
   height="48"
   viewBox="0 0 48 48"
   enable-background="new 0 0 612 792"
   xml:space="preserve"
   inkscape:version="0.47 r22583"
   sodipodi:docname="Caustic_Light.svg"><metadata
   id="metadata91"><rdf:RDF><cc:Work
       rdf:about=""><dc:format>image/svg+xml</dc:format><dc:type
         rdf:resource="http://purl.org/dc/dcmitype/StillImage" /><dc:title></dc:title></cc:Work></rdf:RDF></metadata><defs
   id="defs89"><linearGradient
     id="linearGradient4498"><stop
       style="stop-color:#204a87;stop-opacity:1;"
       offset="0"
       id="stop4500" /><stop
       style="stop-color:#6394da;stop-opacity:0.4954955;"
       offset="1"
       id="stop4502" /></linearGradient><linearGradient
     id="linearGradient4482"><stop
       style="stop-color:#89a9d3;stop-opacity:1;"
       offset="0"
       id="stop4484" /><stop
       style="stop-color:#89a9d3;stop-opacity:0;"
       offset="1"
       id="stop4486" /></linearGradient><radialGradient
     inkscape:collect="always"
     xlink:href="#linearGradient4482"
     id="radialGradient4488"
     cx="14.088102"
     cy="26.682762"
     fx="14.088102"
     fy="26.682762"
     r="14.527737"
     gradientTransform="matrix(1.6512223,0.90663225,-0.34574956,0.62970336,1.8613007,-3.6202277)"
     gradientUnits="userSpaceOnUse" /><radialGradient
     inkscape:collect="always"
     xlink:href="#linearGradient4482"
     id="radialGradient4492"
     gradientUnits="userSpaceOnUse"
     gradientTransform="matrix(2.0791012,1.1429067,-0.43534316,0.79380827,-1.1982656,-11.242401)"
     cx="14.088102"
     cy="26.682762"
     fx="14.088102"
     fy="26.682762"
     r="14.527737" /><radialGradient
     inkscape:collect="always"
     xlink:href="#linearGradient4482"
     id="radialGradient4494"
     gradientUnits="userSpaceOnUse"
     gradientTransform="matrix(2.3754094,1.3056493,-0.49738716,0.90684146,-0.40609617,-16.041544)"
     cx="14.088102"
     cy="26.682762"
     fx="14.088102"
     fy="26.682762"
     r="14.527737" /><radialGradient
     inkscape:collect="always"
     xlink:href="#linearGradient4482"
     id="radialGradient4496"
     gradientUnits="userSpaceOnUse"
     gradientTransform="matrix(1.8865502,1.0357309,-0.39502489,0.71936909,3.0895117,-7.334022)"
     cx="14.088102"
     cy="26.682762"
     fx="14.088102"
     fy="26.682762"
     r="14.527737" /><linearGradient
     inkscape:collect="always"
     xlink:href="#linearGradient4498"
     id="linearGradient4504"
     x1="20.439535"
     y1="18.075069"
     x2="3.240804"
     y2="18.075069"
     gradientUnits="userSpaceOnUse" /><inkscape:perspective
     id="perspective4522"
     inkscape:persp3d-origin="0.5 : 0.33333333 : 1"
     inkscape:vp_z="1 : 0.5 : 1"
     inkscape:vp_y="0 : 1000 : 0"
     inkscape:vp_x="0 : 0.5 : 1"
     sodipodi:type="inkscape:persp3d" /><linearGradient
     id="linearGradient4498-6"><stop
       style="stop-color:#204a87;stop-opacity:1;"
       offset="0"
       id="stop4500-0" /><stop
       style="stop-color:#6394da;stop-opacity:0.4954955;"
       offset="1"
       id="stop4502-3" /></linearGradient><linearGradient
     gradientTransform="translate(-4.7167012,-4.6582182)"
     y2="18.075069"
     x2="3.240804"
     y1="18.075069"
     x1="20.439535"
     gradientUnits="userSpaceOnUse"
     id="linearGradient4531"
     xlink:href="#linearGradient4498-6"
     inkscape:collect="always" /></defs><sodipodi:namedview
   pagecolor="#ffffff"
   bordercolor="#666666"
   borderopacity="1"
   objecttolerance="10"
   gridtolerance="10"
   guidetolerance="10"
   inkscape:pageopacity="0"
   inkscape:pageshadow="2"
   inkscape:window-width="2560"
   inkscape:window-height="1538"
   id="namedview87"
   showgrid="false"
   inkscape:zoom="14.501203"
   inkscape:cx="18.157945"
   inkscape:cy="17.590369"
   inkscape:window-x="-8"
   inkscape:window-y="-8"
   inkscape:window-maximized="1"
   inkscape:current-layer="Layer_1"
   inkscape:snap-global="false" />







































<path
   id="path4490"
   d="m 7.074598,24.588633 24.914756,22.262003 c 3.599842,3.437853 12.03741,-0.701324 14.68273,-6.413544 2.423114,-5.232391 1.400707,-10.392165 -2.841165,-13.47324 L 20.026282,21.021428 7.074598,24.588633 z"
   stroke-miterlimit="10"
   style="fill:url(#radialGradient4494);fill-opacity:1;stroke:none"
   sodipodi:nodetypes="ccsccc" /><path
   style="opacity:0.9;fill:#ffffff"
   d="m 18.403301,21.718872 c 0.6718,0.571197 6.007357,7.381005 7.787399,8.537107 -1.953705,-0.812242 -9.95704,-2.689194 -15.836435,-3.630526 2.561524,-1.000737 8.793957,-1.1641 8.049036,-4.906581"
   id="path3915" /><path
   style="fill:#4d5c70"
   d="m 23.746855,25.117493 c 1.412151,1.481684 -0.106254,4.698665 -4.031944,4.55815 3.28131,-0.389556 4.77001,-2.797721 4.031944,-4.55815 z"
   id="path3917" /><path
   style="fill:#505e72"
   d="m 24.802541,25.620146 c 1.500125,1.258918 -0.982565,5.60801 -4.295866,5.120208 3.665196,-1.135539 4.652331,-3.16443 4.295866,-5.120208 z"
   id="path3919" /><path
   style="fill:#546073"
   d="m 25.181857,25.387098 c 2.640358,2.097435 -1.840596,6.733268 -4.827136,5.606868 2.815163,0.04341 6.619746,-2.946233 4.827136,-5.606868 z"
   id="path3921" /><path
   style="fill:#576375"
   d="m 26.007897,25.620146 c 1.98341,2.258512 -1.109384,6.728698 -4.855699,5.951871 3.347576,-0.383845 5.974224,-2.975936 4.855699,-5.951871 z"
   id="path3923" /><path
   style="fill:#5a6576"
   d="m 26.416918,26.039405 c 1.425862,1.746719 0.847748,5.371534 -4.518656,5.865048 4.549504,-1.545658 5.366404,-3.069611 4.518656,-5.865048 z"
   id="path3925" /><path
   style="fill:#606a79"
   d="m 27.150414,26.266741 c 1.885154,1.833542 -0.289057,6.165498 -4.27073,6.534491 3.601215,-1.404002 5.572058,-3.652232 4.27073,-6.534491 z"
   id="path3927" /><path
   style="fill:#646c7b"
   d="m 28.072426,26.788815 c 1.236204,2.09515 0.423874,5.081366 -4.258163,6.436245 4.164477,-2.353331 4.550647,-3.346071 4.258163,-6.436245 z"
   id="path3929" /><path
   style="fill:#6a717e"
   d="m 28.84591,26.99673 c 1.419007,2.666347 0.488998,5.066516 -4.582637,6.780106 3.96682,-2.437868 5.295568,-3.250109 4.582637,-6.780106 z"
   id="path3931" /><path
   style="fill:#646c7b"
   d="m 29.844471,27.26862 c 1.786897,2.264224 -0.756347,5.844486 -4.85113,7.30218 3.596645,-2.508696 5.622329,-4.001805 4.85113,-7.30218 z"
   id="path3933" /><path
   style="fill:#5d6778"
   d="m 30.845316,27.26862 c 1.273907,2.657208 -0.15881,6.492223 -5.229303,8.388596 3.797728,-3.150721 5.549208,-4.514739 5.229303,-8.388596 z"
   id="path3935" /><path
   style="fill:#576375"
   d="m 31.694206,27.023006 c 1.975413,2.483563 0.361036,7.15938 -5.151611,9.575542 4.450106,-3.445459 5.976509,-5.612579 5.151611,-9.575542 z"
   id="path3937" /><path
   style="fill:#505e72"
   d="m 33.160056,27.397711 c 1.508123,2.485848 -0.426159,7.924784 -5.581198,10.394639 4.443251,-4.018941 5.520645,-5.934735 5.581198,-10.394639 z"
   id="path3939" /><path
   style="fill:#4d5c70"
   d="m 34.130053,27.652464 c 1.550397,2.572671 -0.606676,8.337189 -5.288713,11.14405 3.624066,-4.096624 5.253295,-6.542488 5.288713,-11.14405 z"
   id="path3941" /><path
   style="fill:url(#radialGradient4496);fill-opacity:1;stroke:#6e92cb;stroke-width:0.30000001;stroke-linecap:round;stroke-linejoin:round;stroke-miterlimit:10"
   stroke-miterlimit="10"
   d="M 8.0920804,25.45907 29.506284,42.181427 C 36.785263,45.521786 45.379279,31.972998 38.22255,26.780819 L 17.06427,21.566935 c -1.029408,-0.338149 7.088178,3.142724 5.268148,6.356278 C 20.515815,31.137908 7.2991734,24.658252 8.0920804,25.45907 z"
   id="path3973" /><g
   id="g3943"
   transform="matrix(1.1425174,0,0,1.1423936,-332.11876,-429.97669)">
	<path
   style="fill:#accaeb"
   d="m 311,398.241 c 1.237,1.296 -0.094,4.112 -3.53,3.991 2.873,-0.343 4.176,-2.451 3.53,-3.991 z"
   id="path3945" />
	<path
   style="fill:#b1ceec"
   d="m 311.924,398.68 c 1.313,1.102 -0.858,4.908 -3.759,4.482 3.206,-0.994 4.072,-2.769 3.759,-4.482 z"
   id="path3947" />
	<path
   style="fill:#b6d1ee"
   d="m 312.256,398.477 c 2.312,1.836 -1.61,5.894 -4.224,4.91 2.463,0.037 5.793,-2.582 4.224,-4.91 z"
   id="path3949" />
	<path
   style="fill:#bbd5ef"
   d="m 312.979,398.68 c 1.737,1.977 -0.97,5.892 -4.25,5.21 2.929,-0.335 5.228,-2.605 4.25,-5.21 z"
   id="path3951" />
	<path
   style="fill:#c1d8f1"
   d="m 313.336,399.047 c 1.249,1.531 0.743,4.704 -3.956,5.136 3.983,-1.355 4.699,-2.689 3.956,-5.136 z"
   id="path3953" />
	<path
   style="fill:#cbe0f4"
   d="m 313.979,399.246 c 1.651,1.605 -0.252,5.399 -3.738,5.722 3.153,-1.229 4.875,-3.198 3.738,-5.722 z"
   id="path3955" />
	<path
   style="fill:#d0e3f5"
   d="m 314.786,399.705 c 1.082,1.832 0.371,4.446 -3.728,5.632 3.646,-2.06 3.984,-2.927 3.728,-5.632 z"
   id="path3957" />
	<path
   style="fill:#dbebf9"
   d="m 315.464,399.885 c 1.242,2.334 0.428,4.435 -4.011,5.937 3.47,-2.135 4.634,-2.847 4.011,-5.937 z"
   id="path3959" />
	<path
   style="fill:#d0e3f5"
   d="m 316.335,400.123 c 1.566,1.984 -0.662,5.118 -4.244,6.392 3.148,-2.196 4.922,-3.503 4.244,-6.392 z"
   id="path3961" />
	<path
   style="fill:#c6dcf2"
   d="m 317.214,400.123 c 1.115,2.326 -0.141,5.683 -4.578,7.345 3.324,-2.76 4.857,-3.954 4.578,-7.345 z"
   id="path3963" />
	<path
   style="fill:#bbd5ef"
   d="m 317.954,399.91 c 1.73,2.172 0.318,6.267 -4.508,8.38 3.897,-3.014 5.231,-4.913 4.508,-8.38 z"
   id="path3965" />
	<path
   style="fill:#b1ceec"
   d="m 319.239,400.238 c 1.318,2.174 -0.373,6.935 -4.885,9.099 3.889,-3.52 4.831,-5.195 4.885,-9.099 z"
   id="path3967" />
	<path
   style="fill:#accaeb"
   d="m 320.087,400.459 c 1.359,2.252 -0.531,7.298 -4.627,9.755 3.172,-3.584 4.598,-5.725 4.627,-9.755 z"
   id="path3969" />
</g><path
   style="fill:#d8e0f2"
   d="m 21.462963,4.7646091 c 0,-2.3076354 -3.654914,-4.1777337 -8.165573,-4.1777337 -4.5072313,0 -8.1632871,1.8712407 -8.1632871,4.1777337 0,0.1119546 0.015995,0.2227668 0.031991,0.333579 -0.00914,-0.02856 -0.02285,-0.055977 -0.030848,-0.086822 L 7.1575013,23.110308 c 0.2833443,1.806124 2.7637497,3.156433 6.1673097,3.156433 3.408129,0 5.971938,-1.388008 6.167309,-3.156433 L 21.460678,5.0113662 c -0.0091,0.037699 -0.02399,0.071971 -0.03199,0.1085274 0.01828,-0.1176666 0.03428,-0.2353331 0.03428,-0.3552845 z"
   id="path3971" /><path
   style="fill:#ffffff;stroke:#5e7bb1;stroke-width:0.30000001;stroke-miterlimit:10"
   stroke-miterlimit="10"
   d="m 16.888322,20.61989 c -1.385873,-0.784824 4.702602,1.67018 2.187921,4.51017 -3.669766,4.144604 -10.7099584,0.530071 -11.7610744,-0.66373"
   id="path3985" /><path
   style="fill:#ffffff"
   d="m 18.638659,21.435559 c -1.592669,-0.05141 2.070242,0.581478 1.077394,5.148767 -9.613142,2.34305 -12.9035919,-2.673201 -12.0421338,-1.334315 1.5401135,2.394457 13.0406948,2.581809 20.8863618,5.901605 -7.709708,-4.278264 -9.391493,-9.698922 -9.921622,-9.716057 z"
   id="path3987" /><g
   id="g3989"
   transform="matrix(1.1425174,0,0,1.1423936,-332.11876,-429.97669)">
	<path
   style="opacity:0.6;fill:#c5d5ed"
   d="m 306.626,395.866 c -0.552,-0.313 1.322,4.046 2.95,4.524 -1.769,-1.139 -10.192,-1.035 -9.641,-0.721 0.554,0.313 7.394,-0.297 12.775,2.494 -5.201,-2.71 -5.529,-5.984 -6.084,-6.297 z"
   id="path3991" />
</g><path
   style="fill:#ecf0f9;stroke:#6e92cb;stroke-width:0.2;stroke-miterlimit:10"
   stroke-miterlimit="10"
   d="m 19.433851,23.872285 c 0,1.731869 -2.746612,3.139297 -6.136461,3.139297 -3.3898494,0 -6.1364612,-1.407428 -6.1364612,-3.139297 0,-1.737581 2.7466118,-3.142725 6.1364612,-3.142725 3.389849,0 6.136461,1.406287 6.136461,3.142725 z"
   id="path3993" /><ellipse
   d="m 307.70001,396.63199 c 0,1.51823 -2.40468,2.749 -5.371,2.749 -2.96632,0 -5.371,-1.23077 -5.371,-2.749 0,-1.51823 2.40468,-2.749 5.371,-2.749 2.96632,0 5.371,1.23077 5.371,2.749 z"
   style="fill:#e7ecf7;stroke:#6e92cb;stroke-width:0.26259229;stroke-miterlimit:10"
   sodipodi:ry="2.7490001"
   sodipodi:rx="5.3709998"
   sodipodi:cy="396.63199"
   sodipodi:cx="302.32901"
   stroke-miterlimit="10"
   cx="302.32901"
   cy="396.63199"
   rx="5.3709998"
   ry="2.7490001"
   id="ellipse3995"
   transform="matrix(1.1425174,0,0,1.1423936,-332.11876,-429.97669)" /><ellipse
   d="m 308.04601,385.60901 c 0,1.61654 -2.55959,2.927 -5.717,2.927 -3.15741,0 -5.717,-1.31046 -5.717,-2.927 0,-1.61654 2.55959,-2.927 5.717,-2.927 3.15741,0 5.717,1.31046 5.717,2.927 z"
   style="opacity:0.6;fill:#cfdbf0;stroke:#ffffff;stroke-width:0.26259229;stroke-miterlimit:10"
   sodipodi:ry="2.927"
   sodipodi:rx="5.717"
   sodipodi:cy="385.60901"
   sodipodi:cx="302.32901"
   stroke-miterlimit="10"
   cx="302.32901"
   cy="385.60901"
   rx="5.717"
   ry="2.927"
   id="ellipse3997"
   transform="matrix(1.1425174,0,0,1.1423936,-332.11876,-429.97669)" /><path
   style="fill:none;stroke:#ffffff;stroke-width:0.2;stroke-miterlimit:10"
   stroke-miterlimit="10"
   d="m 6.9621307,10.665072 c 0,-1.6164865 2.8003102,-2.926812 6.2552833,-2.926812 3.454972,0 6.255283,1.3103255 6.255283,2.926812"
   id="path3999" /><ellipse
   d="m 307.38699,385.54501 c 0,1.31886 -2.235,2.388 -4.992,2.388 -2.75701,0 -4.992,-1.06914 -4.992,-2.388 0,-1.31885 2.23499,-2.388 4.992,-2.388 2.757,0 4.992,1.06915 4.992,2.388 z"
   style="opacity:0.6;fill:#9eb5d4"
   sodipodi:ry="2.388"
   sodipodi:rx="4.9920001"
   sodipodi:cy="385.54501"
   sodipodi:cx="302.39499"
   cx="302.39499"
   cy="385.54501"
   rx="4.9920001"
   ry="2.388"
   id="ellipse4001"
   transform="matrix(1.1425174,0,0,1.1423936,-332.11876,-429.97669)" /><path
   style="opacity:0.6;fill:#cfdbf0;stroke:#6e92cb;stroke-width:0.30000001;stroke-linecap:round;stroke-linejoin:round;stroke-miterlimit:10"
   stroke-miterlimit="10"
   d="M 8.3879925,22.897823 6.7701878,10.526843 c 0.3084797,4.216575 12.4534402,4.708946 13.0555462,0 l -1.573246,12.37098 c -0.157667,1.158387 -2.208486,2.07116 -4.932248,2.07116 -2.723761,-0.0011 -4.7060291,-0.889925 -4.9322475,-2.07116 z"
   id="path4003" /><ellipse
   d="m 306.62599,396.439 c 0,0.99521 -1.92339,1.802 -4.296,1.802 -2.37262,0 -4.296,-0.80679 -4.296,-1.802 0,-0.99522 1.92338,-1.802 4.296,-1.802 2.37261,0 4.296,0.80678 4.296,1.802 z"
   style="opacity:0.6;fill:#93b4de;stroke:#6e92cb;stroke-width:0.26259229;stroke-miterlimit:10"
   sodipodi:ry="1.802"
   sodipodi:rx="4.296"
   sodipodi:cy="396.439"
   sodipodi:cx="302.32999"
   stroke-miterlimit="10"
   cx="302.32999"
   cy="396.439"
   rx="4.296"
   ry="1.802"
   id="ellipse4005"
   transform="matrix(1.1425174,0,0,1.1423936,-332.11876,-429.97669)" /><ellipse
   d="m 308.76301,380.53 c 0,1.7535 -2.89,3.175 -6.455,3.175 -3.56499,0 -6.455,-1.4215 -6.455,-3.175 0,-1.75351 2.89001,-3.175 6.455,-3.175 3.565,0 6.455,1.42149 6.455,3.175 z"
   style="fill:none;stroke:#a0b5de;stroke-width:0.17506152;stroke-miterlimit:10"
   sodipodi:ry="3.175"
   sodipodi:rx="6.4549999"
   sodipodi:cy="380.53"
   sodipodi:cx="302.30801"
   stroke-miterlimit="10"
   cx="302.30801"
   cy="380.53"
   rx="6.4549999"
   ry="3.175"
   id="ellipse4007"
   transform="matrix(1.1425174,0,0,1.1423936,-332.11876,-429.97669)" /><path
   style="fill:#afbbd1"
   d="m 20.592364,4.7394765 c 0,-2.001474 -3.303018,-3.6259577 -7.377235,-3.6259577 -4.0719324,0 -7.3726653,1.6244837 -7.3726653,3.6259577 0,1.2749112 1.3413155,2.3955993 3.366999,3.0421941 1.1116693,-0.4478183 2.5078253,-0.7151384 4.0319443,-0.7151384 1.510408,0 2.900852,0.2661777 4.007951,0.708284 2.013116,-0.6488795 3.343006,-1.7649981 3.343006,-3.0353397 z"
   id="path4009" /><path
   style="fill:#b9c6dc"
   d="m 11.988065,1.1580722 c -0.377031,0.029702 -0.744921,0.073113 -1.101387,0.1290905 -2.9671175,0.4695237 -5.1150503,1.8381112 -5.1150503,3.4523138 0,1.2749112 1.342458,2.3955993 3.3669989,3.0421941 0.788337,-0.3175854 1.7240584,-0.5449218 2.7431844,-0.650022 0.220506,-0.022848 0.445582,-0.041126 0.674085,-0.051408 C 12.349101,6.2188762 11.824685,2.228495 11.988065,1.1580722 z"
   id="path4011" /><path
   style="opacity:0.2;fill:#acc2e5;stroke:#6e92cb;stroke-width:0.30000001;stroke-miterlimit:10"
   stroke-miterlimit="10"
   d="M 7.0763825,23.125159 5.0541267,5.0262176 c 1.5001253,5.4812044 15.2434673,5.0139654 16.3242893,0 L 19.411001,23.125159 c -0.196513,1.769568 -2.760322,3.157576 -6.168452,3.157576 -3.4035595,0 -5.8828222,-1.351451 -6.1661665,-3.157576 z"
   id="path4013" /><ellipse
   d="m 309.404,380.53101 c 0,2.02025 -3.19938,3.658 -7.146,3.658 -3.94663,0 -7.146,-1.63775 -7.146,-3.658 0,-2.02026 3.19937,-3.658 7.146,-3.658 3.94662,0 7.146,1.63774 7.146,3.658 z"
   style="opacity:0.2;fill:#e7ecf7;stroke:#6e92cb;stroke-width:0.26259229;stroke-miterlimit:10"
   sodipodi:ry="3.658"
   sodipodi:rx="7.1459999"
   sodipodi:cy="380.53101"
   sodipodi:cx="302.258"
   stroke-miterlimit="10"
   cx="302.258"
   cy="380.53101"
   rx="7.1459999"
   ry="3.658"
   id="ellipse4015"
   transform="matrix(1.1425174,0,0,1.1423936,-332.11876,-429.97669)" /><path
   style="opacity:0.33999999;fill:#e7ecf7"
   d="M 7.0946629,23.126301 5.0735495,5.0273597 c 0.655805,2.3978841 3.6549133,3.6579442 6.9133735,3.8955621 0.09369,6.2568892 0.142814,11.0743632 4.432968,16.9074252 -0.911729,0.287883 -1.984554,0.452387 -3.157919,0.452387 -3.4035594,0 -5.8839648,-1.350309 -6.1673091,-3.156433 z"
   id="path4017" /><path
   style="opacity:0.8;fill:#e7ecf7"
   d="M 7.1186557,22.637357 5.5202738,6.9534352 C 6.3908721,8.7230029 8.413128,9.3318986 10.992932,9.5512382 10.225161,14.20535 9.8321347,14.721712 12.001775,25.547033 9.3065766,25.545891 7.3437317,24.300682 7.1186557,22.637357 z"
   id="path4019" /><path
   style="opacity:0.75;fill:#f8fafd"
   d="M 7.4145677,22.44315 5.8161858,8.4945242 c 0.388456,0.8830702 1.1070994,1.3960049 2.12851,1.5856418 -0.1473847,5.277859 0.1222494,7.070274 0.9517171,14.41815 C 7.8772873,23.869999 7.5550974,23.485013 7.4145677,22.44315 z"
   id="path4021" /><path
   style="fill:none;stroke:#ffffff;stroke-width:0.2;stroke-linecap:round;stroke-linejoin:round;stroke-miterlimit:10"
   stroke-miterlimit="10"
   d="m 10.947231,7.9381789 c 0.847748,-0.1519383 1.368736,-0.1987765 2.325023,-0.1987765 0.946005,0 1.482988,0.065116 2.350159,0.2124852"
   id="path4023" /><path
   style="opacity:0.9;fill:#ffffff"
   d="m 19.318457,23.090887 c -0.287914,-0.342718 -1.973127,1.12183 -2.347873,-6.591611 0.01143,6.686429 -1.693211,8.299489 -3.534949,9.609815 3.961108,-0.203346 5.887392,-1.638193 5.882822,-3.018204"
   id="path4025" /><circle
   d="m 298.565,387.241 c 0,0.13586 -0.11014,0.246 -0.246,0.246 -0.13586,0 -0.246,-0.11014 -0.246,-0.246 0,-0.13586 0.11014,-0.246 0.246,-0.246 0.13586,0 0.246,0.11014 0.246,0.246 z"
   style="fill:#ffffff"
   sodipodi:ry="0.24600001"
   sodipodi:rx="0.24600001"
   sodipodi:cy="387.241"
   sodipodi:cx="298.319"
   cx="298.319"
   cy="387.241"
   r="0.24600001"
   id="circle4027"
   transform="matrix(1.1425174,0,0,1.1423936,-332.11876,-429.97669)" /><circle
   d="m 298.821,387.34 c 0,0.14193 -0.11507,0.257 -0.257,0.257 -0.14194,0 -0.257,-0.11507 -0.257,-0.257 0,-0.14194 0.11506,-0.257 0.257,-0.257 0.14193,0 0.257,0.11506 0.257,0.257 z"
   style="fill:#ffffff"
   sodipodi:ry="0.257"
   sodipodi:rx="0.257"
   sodipodi:cy="387.34"
   sodipodi:cx="298.564"
   cx="298.564"
   cy="387.34"
   r="0.257"
   id="circle4029"
   transform="matrix(1.1425174,0,0,1.1423936,-332.11876,-429.97669)" /><circle
   d="m 299.04001,387.487 c 0,0.11432 -0.0927,0.207 -0.207,0.207 -0.11433,0 -0.207,-0.0927 -0.207,-0.207 0,-0.11432 0.0927,-0.207 0.207,-0.207 0.11432,0 0.207,0.0927 0.207,0.207 z"
   style="fill:#ffffff"
   sodipodi:ry="0.207"
   sodipodi:rx="0.207"
   sodipodi:cy="387.487"
   sodipodi:cx="298.83301"
   cx="298.83301"
   cy="387.487"
   r="0.207"
   id="circle4031"
   transform="matrix(1.1425174,0,0,1.1423936,-332.11876,-429.97669)" /><circle
   d="m 299.50501,387.73001 c 0,0.0944 -0.0766,0.171 -0.171,0.171 -0.0944,0 -0.171,-0.0766 -0.171,-0.171 0,-0.0944 0.0766,-0.171 0.171,-0.171 0.0944,0 0.171,0.0766 0.171,0.171 z"
   style="fill:#ffffff"
   sodipodi:ry="0.171"
   sodipodi:rx="0.171"
   sodipodi:cy="387.73001"
   sodipodi:cx="299.33401"
   cx="299.33401"
   cy="387.73001"
   r="0.171"
   id="circle4033"
   transform="matrix(1.1425174,0,0,1.1423936,-332.11876,-429.97669)" /><circle
   d="m 307.115,386.26801 c 0,0.0779 -0.0631,0.141 -0.141,0.141 -0.0779,0 -0.141,-0.0631 -0.141,-0.141 0,-0.0779 0.0631,-0.141 0.141,-0.141 0.0779,0 0.141,0.0631 0.141,0.141 z"
   style="fill:#ffffff"
   sodipodi:ry="0.141"
   sodipodi:rx="0.141"
   sodipodi:cy="386.26801"
   sodipodi:cx="306.974"
   cx="306.974"
   cy="386.26801"
   r="0.141"
   id="circle4035"
   transform="matrix(1.1425174,0,0,1.1423936,-332.11876,-429.97669)" /><circle
   d="m 307.37001,385.74399 c 0,0.0944 -0.0766,0.171 -0.171,0.171 -0.0944,0 -0.171,-0.0766 -0.171,-0.171 0,-0.0944 0.0765,-0.171 0.171,-0.171 0.0944,0 0.171,0.0766 0.171,0.171 z"
   style="fill:#ffffff"
   sodipodi:ry="0.171"
   sodipodi:rx="0.171"
   sodipodi:cy="385.74399"
   sodipodi:cx="307.19901"
   cx="307.19901"
   cy="385.74399"
   r="0.171"
   id="circle4037"
   transform="matrix(1.1425174,0,0,1.1423936,-332.11876,-429.97669)" /><circle
   d="m 307.397,385.45599 c 0,0.12151 -0.0985,0.22 -0.22,0.22 -0.1215,0 -0.22,-0.0985 -0.22,-0.22 0,-0.1215 0.0985,-0.22 0.22,-0.22 0.1215,0 0.22,0.0985 0.22,0.22 z"
   style="fill:#ffffff"
   sodipodi:ry="0.22"
   sodipodi:rx="0.22"
   sodipodi:cy="385.45599"
   sodipodi:cx="307.177"
   cx="307.177"
   cy="385.45599"
   r="0.22"
   id="circle4039"
   transform="matrix(1.1425174,0,0,1.1423936,-332.11876,-429.97669)" /><circle
   d="m 300.272,388.01999 c 0,0.0668 -0.0542,0.121 -0.121,0.121 -0.0668,0 -0.121,-0.0542 -0.121,-0.121 0,-0.0668 0.0542,-0.121 0.121,-0.121 0.0668,0 0.121,0.0542 0.121,0.121 z"
   style="fill:#ffffff"
   sodipodi:ry="0.121"
   sodipodi:rx="0.121"
   sodipodi:cy="388.01999"
   sodipodi:cx="300.151"
   cx="300.151"
   cy="388.01999"
   r="0.121"
   id="circle4041"
   transform="matrix(1.1425174,0,0,1.1423936,-332.11876,-429.97669)" /><path
   style="opacity:0.62999998;fill:#ffffff"
   d="M 10.125762,6.5101865 C 9.492807,6.7558011 9.166047,6.7055358 8.8998404,6.9522928 8.6324913,7.1979075 7.8795723,5.4283398 7.8795723,5.4283398 c 0,0 -0.1188218,-1.9672022 1.4292894,-2.2619397 0.4364416,1.6724646 0.8169003,3.3437864 0.8169003,3.3437864 z"
   id="path4043" /><path
   style="opacity:0.8;fill:#ffffff"
   d="M 9.4699566,6.5101865 C 8.8381445,6.7558011 8.5845056,7.0802409 8.5011018,6.9762831 8.1434939,6.5216105 7.3300215,4.4481657 7.3300215,4.4481657 c 0,0 0.3393276,-0.9161997 1.3230352,-1.2806232 0.2456412,2.924528 0.8168999,3.342644 0.8168999,3.342644 z"
   id="path4045" /><g
   id="g4047"
   transform="matrix(1.1425174,0,0,1.1423936,-332.11876,-429.97669)">
	<path
   style="fill:none;stroke:#6e92cb;stroke-width:0.26259229;stroke-linecap:round;stroke-linejoin:round;stroke-miterlimit:10"
   stroke-miterlimit="10"
   d="m 305.801,398.723 c -0.923,0.414 -2.122,0.662 -3.471,0.662 -2.979,0 -5.15,-1.182 -5.398,-2.762 l -1.79456,-15.34262"
   id="path4049"
   sodipodi:nodetypes="cscc" />
	<path
   style="fill:none;stroke:#6e92cb;stroke-width:0.26259229;stroke-linecap:round;stroke-linejoin:round;stroke-miterlimit:10"
   stroke-miterlimit="10"
   d="m 296.46,378.461 c 1.294,-0.94 3.43,-1.554 5.846,-1.554 0.952,0 1.861,0.095 2.692,0.268"
   id="path4051" />
	<path
   style="fill:none;stroke:#ffffff;stroke-width:0.17506152;stroke-linecap:round;stroke-linejoin:round;stroke-miterlimit:10"
   stroke-miterlimit="10"
   d="m 296.46,378.607 c 1.294,-0.94 3.43,-1.554 5.846,-1.554 0.952,0 1.861,0.095 2.692,0.269"
   id="path4053" />
	<path
   style="fill:none;stroke:#4b74ab;stroke-width:0.26259229;stroke-linecap:round;stroke-linejoin:round;stroke-miterlimit:10"
   stroke-miterlimit="10"
   d="m 303.578,384.165 c -0.413,0.038 -0.839,0.058 -1.272,0.058 -3.945,0 -7.145,-1.638 -7.145,-3.658 0,-0.38 0.113,-0.747 0.323,-1.09"
   id="path4055" />
</g><path
   style="fill:none;stroke:url(#linearGradient4504);stroke-width:0.75000000000000000;stroke-linejoin:bevel;stroke-miterlimit:10;stroke-dasharray:none"
   stroke-miterlimit="10"
   d="M 21.415988,5.0332182 19.448573,23.13216 c -0.196513,1.769568 -2.760322,3.157576 -6.16845,3.157576 -3.4035589,0 -5.8828217,-1.351452 -6.166166,-3.157576 L 5.0917012,5.0332182"
   id="path4013-2"
   sodipodi:nodetypes="ccscc" /><ellipse
   d="m 309.404,380.53101 c 0,2.02025 -3.19938,3.658 -7.146,3.658 -3.94663,0 -7.146,-1.63775 -7.146,-3.658 0,-2.02026 3.19937,-3.658 7.146,-3.658 3.94662,0 7.146,1.63774 7.146,3.658 z"
   style="fill:none;stroke:#3465a4;stroke-width:0.65648070999999997;stroke-linejoin:bevel;stroke-miterlimit:10;stroke-dasharray:none;color:#000000;stroke-linecap:butt;stroke-opacity:1;stroke-dashoffset:0;marker:none;visibility:visible;display:inline;overflow:visible;enable-background:accumulate"
   sodipodi:ry="3.658"
   sodipodi:rx="7.1459999"
   sodipodi:cy="380.53101"
   sodipodi:cx="302.258"
   stroke-miterlimit="10"
   cx="302.258"
   cy="380.53101"
   rx="7.1459999"
   ry="3.658"
   id="ellipse4015-6"
   transform="matrix(1.1425174,0,0,1.1423936,-332.0812,-429.96969)" /></svg>