<?xml version="1.0" encoding="UTF-8" standalone="no"?>
<!-- Created with Inkscape (http://www.inkscape.org/) -->

<svg
   xmlns:dc="http://purl.org/dc/elements/1.1/"
   xmlns:cc="http://creativecommons.org/ns#"
   xmlns:rdf="http://www.w3.org/1999/02/22-rdf-syntax-ns#"
   xmlns:svg="http://www.w3.org/2000/svg"
   xmlns="http://www.w3.org/2000/svg"
   xmlns:xlink="http://www.w3.org/1999/xlink"
   xmlns:sodipodi="http://sodipodi.sourceforge.net/DTD/sodipodi-0.dtd"
   xmlns:inkscape="http://www.inkscape.org/namespaces/inkscape"
   width="48px"
   height="48px"
   id="svg36740"
   version="1.1"
   inkscape:version="0.48.4 r9939"
   sodipodi:docname="simplemale.svg">
  <defs
     id="defs36742">
    <linearGradient
       id="linearGradient3909">
      <stop
         style="stop-color:#9ca593;stop-opacity:1;"
         offset="0"
         id="stop3911" />
      <stop
         style="stop-color:#d3d7cf;stop-opacity:0;"
         offset="1"
         id="stop3913" />
    </linearGradient>
    <linearGradient
       id="linearGradient3899">
      <stop
         style="stop-color:#2e3436;stop-opacity:0.10810811;"
         offset="0"
         id="stop3901" />
      <stop
         style="stop-color:#2e3436;stop-opacity:0;"
         offset="1"
         id="stop3903" />
    </linearGradient>
    <linearGradient
       id="linearGradient3889">
      <stop
         style="stop-color:#000000;stop-opacity:0.18018018;"
         offset="0"
         id="stop3891" />
      <stop
         style="stop-color:#000000;stop-opacity:0;"
         offset="1"
         id="stop3893" />
    </linearGradient>
    <linearGradient
       id="linearGradient3871">
      <stop
         style="stop-color:#37436f;stop-opacity:1;"
         offset="0"
         id="stop3873" />
      <stop
         style="stop-color:#1e253d;stop-opacity:1;"
         offset="1"
         id="stop3875" />
    </linearGradient>
    <linearGradient
       id="linearGradient37525">
      <stop
         style="stop-color:#000000;stop-opacity:0.46846846;"
         offset="0"
         id="stop37527" />
      <stop
         style="stop-color:#2e3436;stop-opacity:0;"
         offset="1"
         id="stop37529" />
    </linearGradient>
    <radialGradient
       inkscape:collect="always"
       xlink:href="#linearGradient37525"
       id="radialGradient37531"
       cx="22.035715"
       cy="45.035713"
       fx="22.035715"
       fy="45.035713"
       r="10.678572"
       gradientTransform="matrix(1,0,0,0.28428094,0,32.232918)"
       gradientUnits="userSpaceOnUse" />
    <radialGradient
       inkscape:collect="always"
       xlink:href="#linearGradient3871"
       id="radialGradient3877"
       cx="23.384455"
       cy="31.661333"
       fx="23.384455"
       fy="31.661333"
       r="2.9568346"
       gradientTransform="matrix(0.56407003,-0.0021297,0.01197243,3.1700671,10.038517,-69.407355)"
       gradientUnits="userSpaceOnUse" />
    <radialGradient
       inkscape:collect="always"
       xlink:href="#linearGradient3871"
       id="radialGradient3885"
       cx="20.437136"
       cy="31.797846"
       fx="20.437136"
       fy="31.797846"
       r="2.1505485"
       gradientTransform="matrix(1.0463914,0,0,4.896978,-0.59956837,-124.04604)"
       gradientUnits="userSpaceOnUse" />
    <linearGradient
       inkscape:collect="always"
       xlink:href="#linearGradient3889"
       id="linearGradient3895"
       x1="21.000002"
       y1="15.732143"
       x2="20.892857"
       y2="16.767859"
       gradientUnits="userSpaceOnUse"
       gradientTransform="matrix(1.0463914,0,0,1.0462359,-0.59956837,-0.56190939)" />
    <radialGradient
       inkscape:collect="always"
       xlink:href="#linearGradient3899"
       id="radialGradient3905"
       cx="20.628748"
       cy="18.252932"
       fx="20.628748"
       fy="18.252932"
       r="2.6071405"
       gradientTransform="matrix(0.61636717,0,0,1.3472092,8.547653,-6.282814)"
       gradientUnits="userSpaceOnUse" />
    <linearGradient
       inkscape:collect="always"
       xlink:href="#linearGradient3909"
       id="linearGradient3915"
       x1="18.714287"
       y1="13.107143"
       x2="16.642855"
       y2="12.142858"
       gradientUnits="userSpaceOnUse"
       gradientTransform="matrix(1.0463914,0,0,1.0462359,-0.59956837,-0.56190939)" />
  </defs>
  <sodipodi:namedview
     id="base"
     pagecolor="#ffffff"
     bordercolor="#666666"
     borderopacity="1.0"
     inkscape:pageopacity="0.0"
     inkscape:pageshadow="2"
     inkscape:zoom="14"
     inkscape:cx="54.044392"
     inkscape:cy="15.543752"
     inkscape:current-layer="layer1"
     showgrid="true"
     inkscape:grid-bbox="true"
     inkscape:document-units="px"
     inkscape:window-width="2560"
     inkscape:window-height="1496"
     inkscape:window-x="-8"
     inkscape:window-y="-8"
     inkscape:window-maximized="1" />
  <metadata
     id="metadata36745">
    <rdf:RDF>
      <cc:Work
         rdf:about="">
        <dc:format>image/svg+xml</dc:format>
        <dc:type
           rdf:resource="http://purl.org/dc/dcmitype/StillImage" />
        <dc:title />
      </cc:Work>
    </rdf:RDF>
  </metadata>
  <g
     id="layer1"
     inkscape:label="Layer 1"
     inkscape:groupmode="layer">
    <path
       style="fill:url(#radialGradient3885);fill-opacity:1;stroke:#204a87;stroke-width:0.5;stroke-linecap:butt;stroke-linejoin:miter;stroke-miterlimit:4;stroke-opacity:1;stroke-dasharray:none"
       d="m 18.955208,22.522588 c -0.609565,4.040413 -1.336595,6.65683 -0.73991,10.330786 l 0,1.136123 c 0.813332,2.61341 1.378824,5.924901 1.37412,9.115398 0.854326,0.30029 1.718601,0.51105 2.642537,0.184951 0.375164,-3.27626 -0.116602,-6.552519 -0.713485,-9.828779 0.103153,-3.436059 0.528508,-6.711048 0.792762,-10.066571 z"
       id="path3850"
       inkscape:connector-curvature="0"
       sodipodi:nodetypes="cccccccc" />
    <path
       style="color:#000000;fill:url(#radialGradient3877);fill-opacity:1;stroke:#204a87;stroke-width:0.5;stroke-linecap:butt;stroke-linejoin:miter;stroke-miterlimit:4;stroke-opacity:1;stroke-dasharray:none;stroke-dashoffset:0;marker:none;visibility:visible;display:inline;overflow:visible;enable-background:accumulate"
       d="m 20.329329,23.447339 c 0.05481,1.127392 -0.390937,2.41494 1.321268,3.012044 0.02842,2.389231 -0.146037,4.823537 0.475657,7.080948 l 0,1.294651 c 0.349034,3.768909 1.346984,5.934954 1.744075,9.538143 l 2.404709,0.02642 c 0.02623,-3.103987 0.465807,-7.218696 -0.766337,-10.674265 0.09297,-1.823079 0.852451,-9.273928 0.237828,-11.440486 z"
       id="path3852"
       inkscape:connector-curvature="0"
       sodipodi:nodetypes="ccccccccc" />
    <path
       sodipodi:type="arc"
       style="color:#000000;fill:url(#radialGradient37531);fill-opacity:1;fill-rule:nonzero;stroke:none;stroke-width:0.5;marker:none;visibility:visible;display:inline;overflow:visible;enable-background:accumulate"
       id="path37523"
       sodipodi:cx="22.035715"
       sodipodi:cy="45.035713"
       sodipodi:rx="10.678572"
       sodipodi:ry="3.0357144"
       d="m 32.714287,45.035713 a 10.678572,3.0357144 0 1 1 -21.357144,0 10.678572,3.0357144 0 1 1 21.357144,0 z"
       transform="translate(0.64285729,0.21428557)" />
    <path
       style="color:#000000;fill:#e9b96e;stroke:#c17d11;stroke-width:0.5;stroke-linecap:butt;stroke-linejoin:miter;stroke-miterlimit:4;stroke-opacity:1;stroke-dasharray:none;stroke-dashoffset:0;marker:none;visibility:visible;display:inline;overflow:visible;enable-background:accumulate"
       d="m 27.274049,13.820744 3.299562,3.170953 c 0.776903,1.702861 2.243708,2.814466 3.395664,4.195904 l -1.025106,2.113966 0.352379,0.28827 0.448484,-0.25624 0.224243,-0.576536 0.480518,0.03203 1.217313,1.056983 0.672727,0.992924 0.384415,0.256239 0.160172,-0.256239 -0.736796,-1.105028 0.560607,0.528492 0.304327,0.480447 0.624674,0.576537 0.272294,-0.192179 -0.656708,-0.81676 0.81688,0.704654 0.224242,-0.208191 -0.640691,-0.656613 0.448485,0.272255 0.128138,-0.224209 -0.720779,-0.720672 -0.768828,-0.944877 -1.329436,-1.13706 -0.448483,-0.560521 c -0.93055,-1.780445 -1.521736,-4.002002 -2.995231,-5.076725 l -3.152356,-3.290722 -1.268505,0.294429 z"
       id="path37322"
       inkscape:connector-curvature="0"
       sodipodi:nodetypes="ccccccccccccccccccccccccccccccc" />
    <path
       style="color:#000000;fill:#e9b96e;stroke:#c17d11;stroke-width:0.5;stroke-linecap:butt;stroke-linejoin:miter;stroke-miterlimit:4;stroke-opacity:1;stroke-dasharray:none;stroke-dashoffset:0;marker:none;visibility:visible;display:inline;overflow:visible;enable-background:accumulate"
       d="m 17.602087,11.78837 -1.676235,2.151607 c -2.025047,0.965842 -3.082179,2.254274 -4.439766,3.44257 l -0.724859,0.520916 -1.44972,1.019183 -0.3850813,0.113252 -0.4756881,0.61151 -0.4983419,0.385025 -0.7248597,0.611508 -0.3397773,0.249134 0.3397773,0.203836 0.2265189,-0.158539 0.3624299,-0.06795 0.3850812,-0.135898 0.5436448,-0.702103 0.5209933,-0.11324 -0.2718229,0.181188 -0.271823,0.09059 0.1359121,0.226485 0.7928151,-0.181188 0.4983406,-0.543564 0.679556,-0.362376 0.588948,-0.543563 0.317125,-0.520917 c 1.411966,-0.869506 2.77863,-1.043091 4.303855,-2.128957 l 3.443082,-3.238734 z"
       id="path37330"
       inkscape:connector-curvature="0"
       sodipodi:nodetypes="ccccccccccccccccccccccccccc" />
    <path
       style="color:#000000;fill:#ffffff;fill-opacity:1;stroke:#d3d7cf;stroke-width:0.5775528;marker:none;visibility:visible;display:inline;overflow:visible;enable-background:accumulate"
       d="m 21.831784,46.829558 -0.037,0.628964 c 1.011425,0.357825 2.022847,0.319947 3.03427,-0.258986 0.438115,-0.314239 0.906674,-0.598037 1.44313,-0.813953 l -0.037,-0.758454 z"
       id="path37413"
       inkscape:connector-curvature="0"
       sodipodi:nodetypes="cccccc" />
    <path
       style="color:#000000;fill:#ffffff;fill-opacity:1;stroke:#d3d7cf;stroke-width:0.5775528;stroke-linecap:butt;stroke-linejoin:miter;stroke-miterlimit:4;stroke-opacity:1;stroke-dasharray:none;stroke-dashoffset:0;marker:none;visibility:visible;display:inline;overflow:visible;enable-background:accumulate"
       d="m 17.289411,45.483731 -0.03925,0.706358 c 2.312641,0.628143 2.965693,-0.307734 5.036819,-0.981052 l -0.03923,-0.640955 z"
       id="path37381"
       inkscape:connector-curvature="0"
       sodipodi:nodetypes="ccccc" />
    <path
       style="color:#000000;fill:#555753;stroke:#2e3436;stroke-width:0.5775528;stroke-linecap:butt;stroke-linejoin:miter;stroke-miterlimit:4;stroke-opacity:1;stroke-dasharray:none;stroke-dashoffset:0;marker:none;visibility:visible;display:inline;overflow:visible;enable-background:accumulate"
       d="m 21.813283,46.267747 c -0.0096,-0.253415 1.1101,-0.776954 1.1101,-0.776954 0.336619,-0.457872 0.70576,-0.818193 1.091596,-1.128433 0.307177,-0.370417 0.720824,-0.217082 0.906584,0.01851 0.431122,0.192978 0.778499,0.571422 1.184105,-0.074 0.206589,0.274845 0.212575,0.606996 0.07401,0.980441 0,0 -1.337139,1.072232 -2.146192,1.239427 -0.729665,0.15079 -2.201862,0.224923 -2.220204,-0.258986 z"
       id="path37405"
       inkscape:connector-curvature="0"
       sodipodi:nodetypes="scccccss" />
    <path
       style="color:#000000;fill:#555753;stroke:#2e3436;stroke-width:0.5775528;stroke-linecap:butt;stroke-linejoin:miter;stroke-miterlimit:4;stroke-opacity:1;stroke-dasharray:none;stroke-dashoffset:0;marker:none;visibility:visible;display:inline;overflow:visible;enable-background:accumulate"
       d="m 17.382212,45.043376 c -0.004,-0.20966 0.913211,-0.665919 1.386763,-0.863324 l 1.255931,-1.046458 c 0.323008,-0.289447 0.67567,0.0072 0.732628,0.183126 0.371242,0.0641 0.638192,0.458455 1.255931,0.104646 0.267005,0.250885 0.215372,0.680107 0.261656,0.95489 -1.439069,0.25642 -2.313143,0.98171 -3.192167,1.138022 -0.495327,0.08807 -1.692379,-0.02874 -1.700742,-0.470904 z"
       id="path37362"
       inkscape:connector-curvature="0"
       sodipodi:nodetypes="scccccss" />
    <path
       style="fill:#eeeeec;stroke:#888a85;stroke-width:0.5;stroke-linecap:butt;stroke-linejoin:miter;stroke-miterlimit:4;stroke-opacity:1;stroke-dasharray:none"
       d="m 21.720684,8.9269798 c -0.860036,-0.015476 -1.585921,-0.099325 -2.445957,0.1693618 -1.168556,0.7663755 -1.816259,2.0535094 -2.580105,3.2245214 0.249291,0.896846 0.665919,1.644977 1.555652,1.972649 0,0 0.193976,1.111754 0.542014,1.956496 0.25614,0.621692 0.35865,1.568667 0.379724,1.934037 0.04629,0.802603 -0.352598,4.379419 -0.352598,4.379419 1.235187,2.230297 6.065532,1.078896 7.247059,-0.227614 -0.365016,-1.121774 -0.783105,-2.574113 -0.796797,-3.603877 -0.0072,-0.540535 1.166828,-2.847477 1.55565,-4.172912 l 1.479767,1.062195 c -0.707992,-0.764496 1.187489,-1.719733 2.23862,-1.934712 -1.493765,-1.196852 -2.30681,-2.601023 -3.49073,-3.7556209 C 26.247951,9.5268664 25.511487,9.3284769 24.776421,9.1342768 23.784076,9.7704501 22.7668,10.207211 21.70306,10.272343 20.870736,9.7390571 20.984258,9.3889732 21.720686,8.9269798 z"
       id="path3848"
       inkscape:connector-curvature="0"
       sodipodi:nodetypes="ccccssccsccccccc" />
    <path
       style="color:#000000;fill:#e9b96e;stroke:#c17d11;stroke-width:0.5;stroke-linecap:butt;stroke-linejoin:miter;stroke-miterlimit:4;stroke-opacity:1;stroke-dasharray:none;stroke-dashoffset:0;marker:none;visibility:visible;display:inline;overflow:visible;enable-background:accumulate"
       d="m 23.658031,6.654753 c -0.164828,1.1993299 0.125105,2.1063129 1.102117,2.5716034 -1.074311,0.4731407 -2.342971,0.9706186 -2.908362,0.8878146 -0.717749,-0.105116 -0.81896,-1.1618181 -0.520443,-1.1021152 0.357141,-0.00655 0.297607,-0.3160618 0.214301,-0.6429007 z"
       id="path37298"
       inkscape:connector-curvature="0"
       sodipodi:nodetypes="ccsccc" />
    <path
       style="color:#000000;fill:#e9b96e;stroke:#c17d11;stroke-width:0.5;stroke-linecap:butt;stroke-linejoin:miter;stroke-miterlimit:4;stroke-opacity:1;stroke-dasharray:none;stroke-dashoffset:0;marker:none;visibility:visible;display:inline;overflow:visible;enable-background:accumulate"
       d="m 19.800627,2.2462901 c -0.613394,1.0106419 -0.358752,1.7319386 -0.275529,2.5103746 -0.532593,1.1300387 -0.01152,2.0674251 0.313052,2.9083606 0,0 0.147775,0.6653754 0.51282,0.7814399 0.112578,0.035794 0.593797,0.2510577 0.911285,0.076464 C 21.959136,8.1396991 23.236674,7.5597963 23.811104,6.99151 24.499175,6.0103951 24.703723,4.7964681 25.005063,3.654549 L 21.851786,0.83803124 20.474142,1.3278604 z"
       id="path37269"
       inkscape:connector-curvature="0"
       sodipodi:nodetypes="cccssccccc" />
    <path
       style="fill:#462b01;fill-opacity:1;stroke:#000000;stroke-width:0.5;stroke-linecap:butt;stroke-linejoin:miter;stroke-miterlimit:4;stroke-opacity:1;stroke-dasharray:none"
       d="m 19.647556,2.2156758 0.489829,-0.5204435 c 0.783758,0.3828202 1.844054,-0.1200996 2.387917,0.2755295 0.364494,0.2651484 0.95443,0.3708908 1.101133,0.5511698 0.09128,0.1121722 -0.413804,0.6733722 -0.120135,1.0801933 0.26375,0.3653724 0.637985,1.0049591 0.43239,1.6239407 l 0.716091,-0.2100093 -0.12456,1.3552195 0.43536,0.080851 0.772487,-1.5990739 C 26.381255,3.5216349 25.280248,1.2552694 24.211467,0.61872102 23.350407,0.1507704 21.337809,0.41226824 20.184204,0.76825254 19.70991,0.91461204 19.113722,0.80984774 19.222901,1.0973654 z"
       id="path36759"
       inkscape:connector-curvature="0"
       sodipodi:nodetypes="ccsssccccscssc" />
    <path
       style="color:#000000;fill:#e9b96e;stroke:none;stroke-width:0.5;marker:none;visibility:visible;display:inline;overflow:visible;enable-background:accumulate"
       d="m 24.331547,4.9403507 c 0.468728,-0.5332319 1.07473,-0.763711 1.285802,-0.2755289 0.103896,0.2402787 -0.341544,1.4122154 -0.581672,1.5307163 -0.356253,0.1758074 -0.649683,0.010149 -0.857201,-0.3367576 z"
       id="path37288"
       inkscape:connector-curvature="0"
       sodipodi:nodetypes="csscc" />
    <path
       style="fill:url(#linearGradient3895);fill-opacity:1;stroke:none"
       d="m 18.721303,15.692112 c 0.722867,0.218583 1.458426,0.256913 2.279638,0.07473 0.882144,0.464683 2.144931,0.519252 3.32603,0.485753 l -0.597938,0.896772 -2.578608,-0.26156 c -0.814483,-0.06456 -1.85899,-0.131813 -1.980669,0.261558 z"
       id="path3887"
       inkscape:connector-curvature="0"
       sodipodi:nodetypes="ccccccc" />
    <path
       style="fill:url(#radialGradient3905);fill-opacity:1;stroke:none"
       d="m 18.833416,15.841574 0.149485,6.8379 5.269328,0.186827 0.03737,-6.613704 z"
       id="path3897"
       inkscape:connector-curvature="0" />
    <path
       style="fill:url(#linearGradient3915);fill-opacity:1;stroke:none"
       d="M 18.459705,14.346952 C 18.352247,13.395137 18.321148,12.237233 19.207127,10.797223 19.000606,10.215995 19.006304,9.7161501 18.683931,9.9751811 l -0.934278,1.0462359 -0.896907,1.382526 0.672681,1.158332 z"
       id="path3907"
       inkscape:connector-curvature="0"
       sodipodi:nodetypes="ccccccc" />
  </g>
</svg>
