<?xml version="1.0" encoding="UTF-8" standalone="no"?>
<!-- Generator: Adobe Illustrator 15.0.0, SVG Export Plug-In . SVG Version: 6.00 Build 0)  -->

<svg
   xmlns:dc="http://purl.org/dc/elements/1.1/"
   xmlns:cc="http://creativecommons.org/ns#"
   xmlns:rdf="http://www.w3.org/1999/02/22-rdf-syntax-ns#"
   xmlns:svg="http://www.w3.org/2000/svg"
   xmlns="http://www.w3.org/2000/svg"
   xmlns:xlink="http://www.w3.org/1999/xlink"
   xmlns:sodipodi="http://sodipodi.sourceforge.net/DTD/sodipodi-0.dtd"
   xmlns:inkscape="http://www.inkscape.org/namespaces/inkscape"
   version="1.1"
   id="Layer_1"
   x="0px"
   y="0px"
   width="48"
   height="48"
   viewBox="0 0 48 48"
   enable-background="new 0 0 612 792"
   xml:space="preserve"
   inkscape:version="0.47 r22583"
   sodipodi:docname="Portal_Light.svg"><metadata
   id="metadata91"><rdf:RDF><cc:Work
       rdf:about=""><dc:format>image/svg+xml</dc:format><dc:type
         rdf:resource="http://purl.org/dc/dcmitype/StillImage" /><dc:title></dc:title></cc:Work></rdf:RDF></metadata><defs
   id="defs89"><linearGradient
     id="linearGradient5059"><stop
       style="stop-color:#888a85;stop-opacity:1;"
       offset="0"
       id="stop5061" /><stop
       style="stop-color:#d8d9d7;stop-opacity:1;"
       offset="1"
       id="stop5063" /></linearGradient><linearGradient
     id="linearGradient5051"><stop
       style="stop-color:#000000;stop-opacity:0.68468469;"
       offset="0"
       id="stop5053" /><stop
       style="stop-color:#000000;stop-opacity:0;"
       offset="1"
       id="stop5055" /></linearGradient><linearGradient
     id="linearGradient5037"><stop
       style="stop-color:#d3d7cf;stop-opacity:1;"
       offset="0"
       id="stop5039" /><stop
       id="stop5045"
       offset="0.35663816"
       style="stop-color:#ffffff;stop-opacity:1;" /><stop
       style="stop-color:#d3d7cf;stop-opacity:1;"
       offset="0.67080939"
       id="stop5047" /><stop
       style="stop-color:#737373;stop-opacity:1;"
       offset="1"
       id="stop5041" /></linearGradient><linearGradient
     id="linearGradient5029"><stop
       style="stop-color:#e6e8e3;stop-opacity:1;"
       offset="0"
       id="stop5031" /><stop
       style="stop-color:#c8cdc3;stop-opacity:1;"
       offset="1"
       id="stop5033" /></linearGradient><linearGradient
     id="linearGradient4997"><stop
       style="stop-color:#728186;stop-opacity:1;"
       offset="0"
       id="stop4999" /><stop
       style="stop-color:#2e3436;stop-opacity:1;"
       offset="1"
       id="stop5001" /></linearGradient><linearGradient
     id="linearGradient4987"><stop
       style="stop-color:#babdb6;stop-opacity:1;"
       offset="0"
       id="stop4989" /><stop
       id="stop4995"
       offset="0.5"
       style="stop-color:#ffffff;stop-opacity:1;" /><stop
       style="stop-color:#babdb6;stop-opacity:1;"
       offset="1"
       id="stop4991" /></linearGradient><linearGradient
     id="linearGradient4979"><stop
       style="stop-color:#838383;stop-opacity:1;"
       offset="0"
       id="stop4981" /><stop
       style="stop-color:#ededed;stop-opacity:1;"
       offset="1"
       id="stop4983" /></linearGradient><linearGradient
     id="linearGradient4967"><stop
       style="stop-color:#a1a1a1;stop-opacity:1;"
       offset="0"
       id="stop4969" /><stop
       id="stop4975"
       offset="0.15463284"
       style="stop-color:#ffffff;stop-opacity:1;" /><stop
       style="stop-color:#ffffff;stop-opacity:1;"
       offset="0.30044433"
       id="stop4977" /><stop
       style="stop-color:#808080;stop-opacity:1;"
       offset="1"
       id="stop4971" /></linearGradient><linearGradient
     inkscape:collect="always"
     xlink:href="#linearGradient4967"
     id="linearGradient4973"
     x1="18.00997"
     y1="21.363453"
     x2="40.020882"
     y2="42.258274"
     gradientUnits="userSpaceOnUse" /><radialGradient
     inkscape:collect="always"
     xlink:href="#linearGradient4979"
     id="radialGradient4985"
     cx="13.563392"
     cy="10.576934"
     fx="13.563392"
     fy="10.576934"
     r="2.804943"
     gradientTransform="matrix(1.1229255,-6.2858614e-8,9.5873141e-8,1.7127071,-1.6974833,-7.8229184)"
     gradientUnits="userSpaceOnUse" /><linearGradient
     inkscape:collect="always"
     xlink:href="#linearGradient4987"
     id="linearGradient4993"
     x1="22.800293"
     y1="19.77215"
     x2="26.0268"
     y2="19.013592"
     gradientUnits="userSpaceOnUse" /><linearGradient
     inkscape:collect="always"
     xlink:href="#linearGradient4997"
     id="linearGradient5003"
     x1="20.346331"
     y1="3.5246263"
     x2="24.510386"
     y2="10.006847"
     gradientUnits="userSpaceOnUse" /><linearGradient
     inkscape:collect="always"
     xlink:href="#linearGradient4997"
     id="linearGradient5011"
     x1="12.797047"
     y1="9.3268328"
     x2="15.579581"
     y2="13.602341"
     gradientUnits="userSpaceOnUse" /><linearGradient
     inkscape:collect="always"
     xlink:href="#linearGradient4997"
     id="linearGradient5019"
     x1="12.217346"
     y1="23.846006"
     x2="34.917858"
     y2="46.120022"
     gradientUnits="userSpaceOnUse" /><linearGradient
     inkscape:collect="always"
     xlink:href="#linearGradient4997"
     id="linearGradient5027"
     x1="7.922709"
     y1="31.126968"
     x2="30.670038"
     y2="47.60836"
     gradientUnits="userSpaceOnUse" /><radialGradient
     inkscape:collect="always"
     xlink:href="#linearGradient5029"
     id="radialGradient5035"
     cx="19.399815"
     cy="36.850632"
     fx="19.399815"
     fy="36.850632"
     r="12.235663"
     gradientTransform="matrix(0.91740692,0.60867987,-0.3546071,0.53446652,14.669786,5.3469264)"
     gradientUnits="userSpaceOnUse" /><linearGradient
     inkscape:collect="always"
     xlink:href="#linearGradient5037"
     id="linearGradient5043"
     x1="18.898174"
     y1="5.1107016"
     x2="22.303673"
     y2="10.972284"
     gradientUnits="userSpaceOnUse" /><linearGradient
     inkscape:collect="always"
     xlink:href="#linearGradient5051"
     id="linearGradient5057"
     x1="22.756733"
     y1="11.106509"
     x2="24.066969"
     y2="15.933695"
     gradientUnits="userSpaceOnUse" /><linearGradient
     inkscape:collect="always"
     xlink:href="#linearGradient5059"
     id="linearGradient5065"
     x1="30.295071"
     y1="29.799974"
     x2="36.885353"
     y2="34.696121"
     gradientUnits="userSpaceOnUse" /></defs><sodipodi:namedview
   pagecolor="#ffffff"
   bordercolor="#666666"
   borderopacity="1"
   objecttolerance="10"
   gridtolerance="10"
   guidetolerance="10"
   inkscape:pageopacity="0"
   inkscape:pageshadow="2"
   inkscape:window-width="2560"
   inkscape:window-height="1538"
   id="namedview87"
   showgrid="false"
   inkscape:zoom="14.501203"
   inkscape:cx="18.157945"
   inkscape:cy="17.590369"
   inkscape:window-x="-8"
   inkscape:window-y="-8"
   inkscape:window-maximized="1"
   inkscape:current-layer="Layer_1"
   inkscape:snap-global="false" />







































<path
   style="fill:url(#radialGradient5035);stroke:url(#linearGradient5027);stroke-width:1;stroke-linecap:round;stroke-linejoin:bevel;stroke-miterlimit:10;stroke-dasharray:none;fill-opacity:1"
   stroke-miterlimit="10"
   d="m 7.664151,31.27398 23.380188,16.578306 c 0.06389,-0.836545 0.04223,-1.480458 0.08555,-2.771529 C 31.32047,39.351561 26.616495,31.831315 19.92654,27.898581 14.361685,24.628156 7.7269573,25.721183 7.7269573,28.047925 c 0.00108,1.137398 -0.041149,2.191466 -0.062806,3.226055 z"
   id="path4896" /><path
   style="fill:url(#linearGradient4973);stroke:url(#linearGradient5019);stroke-width:1;stroke-linecap:round;stroke-linejoin:bevel;stroke-miterlimit:10;stroke-dasharray:none;fill-opacity:1"
   stroke-miterlimit="10"
   d="m 9.1314362,26.441932 c 9.7999488,-3.438167 21.8685048,8.738809 21.9984488,18.104216 0.01624,1.160124 -0.02274,2.338646 -0.02815,3.306138 6.132277,-3.240124 8.261195,-4.511715 11.248825,-6.164243 0.06172,-1.072466 0.08338,-2.194713 0.05306,-3.269343 C 42.077674,26.405137 27.750257,16.783248 20.50046,20.078564 c -1.604809,0.802996 -4.513391,1.916586 -4.695313,3.101601 -1.057961,0.218605 -1.67303,0.3831 -2.256695,0.726159 -1.787814,1.051904 -3.388292,2.005327 -4.4170158,2.535608 z"
   id="path4898" /><path
   style="fill:url(#linearGradient5065);stroke:#2e3436;stroke-width:1;stroke-linecap:round;stroke-linejoin:bevel;stroke-miterlimit:10;stroke-dasharray:none;fill-opacity:1"
   stroke-miterlimit="10"
   d="m 15.761833,23.214795 c 2.354153,-0.357128 5.687219,0.167742 8.691093,1.995587 6.449557,3.913255 10.979191,11.27117 10.788607,16.98738 1.442379,-0.801914 2.385556,-1.343017 2.862018,-1.58002 C 38.294135,34.90045 33.76775,27.405095 27.31711,23.49184 22.145335,20.352362 16.177654,21.164016 15.761833,23.214795 z"
   id="path4902" /><path
   style="fill:#d3d7cf;stroke:#2e3436;stroke-width:0.75;stroke-linecap:round;stroke-linejoin:bevel;stroke-miterlimit:10;stroke-dasharray:none"
   stroke-miterlimit="10"
   d="m 38.111131,40.617742 -2.865267,1.582184 c 0,0 0.123447,-2.34081 -0.571754,-4.104805 0.323777,0.228345 3.437021,2.522621 3.437021,2.522621 z"
   id="path4904" /><path
   style="fill:url(#radialGradient4985);stroke:url(#linearGradient5011);stroke-width:1;stroke-linecap:round;stroke-linejoin:bevel;stroke-miterlimit:10;stroke-dasharray:none;fill-opacity:1"
   stroke-miterlimit="10"
   d="m 16.630292,10.467497 c 0.637809,1.760748 0.26422,3.511756 -0.837056,3.910008 -1.104525,0.397169 -2.512252,-0.70668 -3.148978,-2.467428 -0.641058,-1.760749 -0.26422,-3.5117573 0.837056,-3.9089268 1.09911,-0.400416 2.512252,0.7034336 3.148978,2.4663468 z"
   id="path4906" /><path
   style="fill:url(#linearGradient5043);stroke:url(#linearGradient5003);stroke-width:1;stroke-linecap:round;stroke-linejoin:bevel;stroke-miterlimit:10;stroke-dasharray:none;fill-opacity:1"
   stroke-miterlimit="10"
   d="m 29.327994,7.015261 c -0.281545,0.1396045 -0.63456,0.7694481 -1.201982,1.0767945 -2.48843,1.3408526 -6.857799,4.0550245 -9.613696,5.5701115 -1.229055,0.452362 -1.890687,0.514048 -2.780804,0.741311 C 18.596779,12.97172 15.97624,6.9405889 13.329713,8.068247 13.885224,7.6494335 14.4429,7.0769467 15.17167,6.6884349 18.222107,5.056469 22.526505,2.7805908 25.117806,1.3077091 25.625671,1.0187603 26.378264,0.8899778 26.658726,0.81855224 29.120084,-0.44329938 31.742788,5.5445437 29.327994,7.015261 z"
   id="path4910" /><path
   style="fill:url(#linearGradient4993);stroke:#2e3436;stroke-width:1;stroke-linecap:round;stroke-linejoin:bevel;stroke-miterlimit:10;stroke-dasharray:none;fill-opacity:1"
   stroke-miterlimit="10"
   d="m 28.285193,28.071733 c 0,0 -1.10669,-1.041081 -2.55665,-2.052943 -1.156502,-0.808408 -2.554484,-1.552965 -2.554484,-1.552965 0,0 -2.212298,-11.55038 -2.356319,-12.11962 0.801322,-0.445868 1.623218,-0.815983 2.132166,-1.636294 0.390915,-0.632008 0.08013,-0.7716129 1.060127,-1.1958375 0.618317,-0.3170862 0.77425,0.1017274 0.745013,0.5941305 0.165678,0.834381 3.530147,17.963529 3.530147,17.963529 z"
   id="path4912" /><path
   style="fill:url(#linearGradient5057);stroke:none;stroke-width:1px;stroke-linecap:butt;stroke-linejoin:miter;stroke-opacity:1;fill-opacity:1"
   d="m 21.929215,17.243931 -0.965437,-4.620306 1.655035,-1.379196 0.758558,-1.5171157 1.310236,-0.4827185 1.379196,6.8270202 -4.137588,1.172316 z"
   id="path5049" /></svg>