<svg xmlns="http://www.w3.org/2000/svg" xmlns:xlink="http://www.w3.org/1999/xlink" viewBox="0 0 48 48"><defs><style>.cls-1,.cls-20,.cls-5{fill:none;}.cls-2{fill:url(#radial-gradient);}.cls-3{fill:#f57900;}.cls-4{fill:url(#linear-gradient);}.cls-5{stroke:#f57900;}.cls-12,.cls-13,.cls-20,.cls-5,.cls-7,.cls-9{stroke-miterlimit:10;}.cls-5,.cls-7,.cls-9{stroke-width:0.35px;}.cls-6{fill:#fcaf3d;}.cls-12,.cls-13,.cls-20,.cls-7,.cls-9{stroke:#fcaf3e;}.cls-7{fill:url(#linear-gradient-2);}.cls-8{fill:url(#linear-gradient-3);}.cls-9{fill:url(#linear-gradient-4);}.cls-10{fill:url(#linear-gradient-5);}.cls-11{fill:url(#linear-gradient-6);}.cls-12{fill:#fce94f;}.cls-12,.cls-13,.cls-20{stroke-width:0.5px;}.cls-13{fill:url(#linear-gradient-7);}.cls-14{fill:url(#radial-gradient-2);}.cls-15{fill:url(#linear-gradient-8);}.cls-16{clip-path:url(#clip-path);}.cls-17{fill:url(#linear-gradient-9);}.cls-18{fill:url(#radial-gradient-3);}.cls-19{fill:url(#linear-gradient-10);}.cls-21{fill:url(#radial-gradient-4);}.cls-22{fill:url(#radial-gradient-5);}.cls-23{fill:url(#radial-gradient-6);}.cls-24{clip-path:url(#clip-path-2);}.cls-25{fill:url(#radial-gradient-7);}.cls-26{fill:url(#radial-gradient-8);}.cls-27{clip-path:url(#clip-path-3);}.cls-28{fill:url(#linear-gradient-11);}.cls-29{fill:url(#radial-gradient-9);}.cls-30{clip-path:url(#clip-path-4);}.cls-31{fill:url(#radial-gradient-10);}.cls-32{fill:url(#linear-gradient-12);}.cls-33{fill:url(#radial-gradient-11);}.cls-34{fill:url(#linear-gradient-13);}.cls-35{fill:url(#linear-gradient-14);}.cls-36{fill:#fcaf3e;}</style><radialGradient id="radial-gradient" cx="8.96" cy="-31.04" r="19.3" gradientTransform="translate(13.29 52.44) scale(1.2 0.4)" gradientUnits="userSpaceOnUse"><stop offset="0.03" stop-color="#2c2c2c" stop-opacity="0.5"/><stop offset="0.68" stop-color="#2c2c2c" stop-opacity="0.1"/><stop offset="0.93" stop-color="#2c2c2c" stop-opacity="0"/></radialGradient><linearGradient id="linear-gradient" x1="13.98" y1="11.2" x2="24.46" y2="11.2" gradientUnits="userSpaceOnUse"><stop offset="0.36" stop-color="#fcaf3e"/><stop offset="1" stop-color="#f57900"/></linearGradient><linearGradient id="linear-gradient-2" x1="36.59" y1="13.6" x2="39.17" y2="9.45" gradientTransform="matrix(0.96, 0.29, -0.29, 0.96, 3.82, -9.24)" gradientUnits="userSpaceOnUse"><stop offset="0" stop-color="#fdf4a4"/><stop offset="1" stop-color="#fce94f"/></linearGradient><linearGradient id="linear-gradient-3" x1="9.05" y1="18.57" x2="12.74" y2="20.7" gradientTransform="translate(-3.74 1.2) rotate(-8.21)" xlink:href="#linear-gradient"/><linearGradient id="linear-gradient-4" x1="8.11" y1="18.21" x2="11.58" y2="20.21" gradientTransform="translate(1.37 -0.58) rotate(4.01)" xlink:href="#linear-gradient-2"/><linearGradient id="linear-gradient-5" x1="35.78" y1="34.96" x2="39.49" y2="37.1" gradientTransform="translate(69.77 68.57) rotate(-173.13)" xlink:href="#linear-gradient"/><linearGradient id="linear-gradient-6" x1="17.47" y1="34.92" x2="15.14" y2="37.89" gradientTransform="translate(-6.47 3.94) rotate(-11.52)" xlink:href="#linear-gradient"/><linearGradient id="linear-gradient-7" x1="28.07" y1="32.54" x2="31.57" y2="37.94" gradientTransform="translate(7.82 -5.54) rotate(13.22)" xlink:href="#linear-gradient-2"/><radialGradient id="radial-gradient-2" cx="28.06" cy="22.04" r="15.16" gradientUnits="userSpaceOnUse"><stop offset="0" stop-color="#fce94f"/><stop offset="0.73" stop-color="#fcaf3e"/><stop offset="1" stop-color="#f57900"/></radialGradient><linearGradient id="linear-gradient-8" x1="35.69" y1="14.36" x2="35.42" y2="23.92" gradientTransform="matrix(1, 0, 0, 1, 0, 0)" xlink:href="#linear-gradient-2"/><clipPath id="clip-path"><path class="cls-1" d="M18.49,28.67a2.1,2.1,0,0,1-1.85.93,1.74,1.74,0,0,1-1.72-1.19s-2.49.15-3.14-1.45.7-3.89.7-3.89A2.08,2.08,0,0,1,11.33,21a1.88,1.88,0,0,1,1.2-1.3c-1.29-.27-2-2.34-.66-4.23a4.4,4.4,0,0,1,3.82-1.63,3.2,3.2,0,0,1-1-2.66A4.68,4.68,0,0,1,18.65,7c3.06-.69,4.91,2.09,4.91,2.09s2.84-2.28,5.79-1.3a3.77,3.77,0,0,1,2.54,4.6s1.74.22,1.66,2.67A4.83,4.83,0,0,1,38,17.19c1.61,2.51-.22,5.14-.87,5.8s-5,2.62-8.9,2.54-5.12-1.22-5.12-1.22Z"/></clipPath><linearGradient id="linear-gradient-9" x1="21.21" y1="7.68" x2="21.06" y2="13.02" gradientTransform="matrix(1, 0, 0, 1, 0, 0)" xlink:href="#linear-gradient-2"/><radialGradient id="radial-gradient-3" cx="19.74" cy="6.89" r="15.25" xlink:href="#radial-gradient-2"/><linearGradient id="linear-gradient-10" x1="28.56" y1="6.6" x2="28.3" y2="15.78" gradientTransform="matrix(1, 0, 0, 1, 0, 0)" xlink:href="#linear-gradient-2"/><radialGradient id="radial-gradient-4" cx="25.04" cy="22.57" r="12.39" xlink:href="#radial-gradient-2"/><radialGradient id="radial-gradient-5" cx="22.31" cy="20.32" r="12.03" xlink:href="#radial-gradient-2"/><radialGradient id="radial-gradient-6" cx="27.07" cy="18.51" r="12.17" xlink:href="#radial-gradient-2"/><clipPath id="clip-path-2"><path class="cls-1" d="M33.53,20.79s1.5-.06,2,2.07c0,0,1.5.33,1.87,1.18a3.07,3.07,0,0,1-1.26,3.17,3.51,3.51,0,0,1-.42,2.61,3.27,3.27,0,0,1-4.82.93C28.84,29.39,33.18,20.91,33.53,20.79Z"/></clipPath><radialGradient id="radial-gradient-7" cx="29.66" cy="18.21" r="12.28" xlink:href="#radial-gradient-2"/><radialGradient id="radial-gradient-8" cx="23.9" cy="21.26" r="20.86" gradientUnits="userSpaceOnUse"><stop offset="0" stop-color="#fce94f"/><stop offset="0.36" stop-color="#fcaf3e"/><stop offset="1" stop-color="#f57900"/></radialGradient><clipPath id="clip-path-3"><path class="cls-1" d="M19.37,29.29c-1.09-1.13-.26-3-.26-3a2,2,0,0,1-2.06-2.46A2.72,2.72,0,0,1,18.18,22a4.65,4.65,0,0,1,.72-4.21,2.74,2.74,0,0,1,2.78-1.17,2.42,2.42,0,0,1,1.21-2.84c1.36-.85,2.58.64,2.58.64s2-1.59,3.91-.9,2.44,3.11,1.81,4.65A3.74,3.74,0,0,1,34,19a2.84,2.84,0,0,1-.81,4,3.13,3.13,0,0,1,.08,2.9A2.77,2.77,0,0,1,29.86,27a7,7,0,0,1-2.34,3.32c-1.64,1.12-4.13-.81-4.13-.81S21,31,19.37,29.29Z"/></clipPath><linearGradient id="linear-gradient-11" x1="23.77" y1="12.02" x2="25.27" y2="28.15" gradientTransform="matrix(1, 0, 0, 1, 0, 0)" xlink:href="#linear-gradient-2"/><radialGradient id="radial-gradient-9" cx="25.75" cy="16.02" r="21.2" xlink:href="#radial-gradient-2"/><clipPath id="clip-path-4"><path class="cls-1" d="M22.72,27a2.49,2.49,0,0,0-.7,2.16A1.24,1.24,0,0,0,24,30s1.23,2.49,3.57,1.32a3.55,3.55,0,0,0,2.84,1.75,3.51,3.51,0,0,0,1.86-.77,1.93,1.93,0,0,0,1.23,1.41c1.06.38,2.22-1.32,1.46-2.18a1.61,1.61,0,0,0-1.53-.67,4.84,4.84,0,0,0,.18-3.06,3.15,3.15,0,0,0-2.2-2.2s1.08-3.33-1.43-4.43a2.21,2.21,0,0,0-2.71.9A2.11,2.11,0,0,0,27.14,24a3.65,3.65,0,0,0-2.61,2.83S23.54,27.65,22.72,27Z"/></clipPath><radialGradient id="radial-gradient-10" cx="27.69" cy="19.77" r="12.86" xlink:href="#radial-gradient-2"/><linearGradient id="linear-gradient-12" x1="27.24" y1="19.37" x2="27.71" y2="24.39" gradientTransform="translate(-2.62 4.05) rotate(-7.06)" xlink:href="#linear-gradient-2"/><radialGradient id="radial-gradient-11" cx="12.83" cy="21.69" r="9.11" xlink:href="#radial-gradient-8"/><linearGradient id="linear-gradient-13" x1="4.06" y1="29.1" x2="11.89" y2="29.1" gradientTransform="translate(-2.77 0.97) rotate(-5.98)" xlink:href="#linear-gradient-2"/><linearGradient id="linear-gradient-14" x1="24.78" y1="33.34" x2="21.7" y2="37.57" xlink:href="#linear-gradient"/></defs><title>8-AerialExplosion</title><g id="shadow"><ellipse class="cls-2" cx="24" cy="40.08" rx="22.17" ry="7.42"/></g><g id="ART"><path class="cls-3" d="M32.63,12.54s1-1.24,2.19-3a13.79,13.79,0,0,0-2,5.63"/><path class="cls-4" d="M24.46,14.69S20.18,12.93,14,2.91A75.14,75.14,0,0,1,22,19.49"/><path class="cls-5" d="M24.46,14.69S20.18,12.93,14,2.91A75.14,75.14,0,0,1,22,19.49"/><path class="cls-6" d="M32.64,14.41a29.49,29.49,0,0,0,4.92-2.82c2.77-1.93,3.32-2.4,3.32-2.4s-3,3-4.17,4.4a20.81,20.81,0,0,0-2,2.93"/><path class="cls-7" d="M32.64,14.41a29.49,29.49,0,0,0,4.92-2.82c2.77-1.93,3.32-2.4,3.32-2.4s-3,3-4.17,4.4a20.81,20.81,0,0,0-2,2.93"/><polyline class="cls-8" points="14.48 19.35 3.79 18.24 15.6 20.85"/><polyline class="cls-9" points="14.48 19.35 3.79 18.24 15.6 20.85"/><polyline class="cls-10" points="32.8 26.65 42.11 31.05 32.41 23.98"/><polyline class="cls-5" points="32.41 23.98 42.11 31.05 32.8 26.65"/><path class="cls-11" d="M18.73,29.14c-.61,2.67-7.41,13.55-7.41,13.55s7.2-9.85,9.66-11.12-.16-3.73-.16-3.73"/><path class="cls-5" d="M18.73,29.14c-.61,2.67-7.41,13.55-7.41,13.55s7.2-9.85,9.66-11.12-.16-3.73-.16-3.73"/><path class="cls-12" d="M24.92,31.76a3.07,3.07,0,0,1,1.59.91,82.32,82.32,0,0,1,5.3,8.23S29.13,34.84,29,33.16s.7-2.13.7-2.13l-2.59-.64"/><path class="cls-13" d="M24.92,31.76a3.07,3.07,0,0,1,1.59.91,82.32,82.32,0,0,1,5.3,8.23S29.13,34.84,29,33.16s.7-2.13.7-2.13l-2.59-.64"/><path class="cls-14" d="M18.49,28.67a2.1,2.1,0,0,1-1.85.93,1.74,1.74,0,0,1-1.72-1.19s-2.49.15-3.14-1.45.7-3.89.7-3.89A2.08,2.08,0,0,1,11.33,21a1.88,1.88,0,0,1,1.2-1.3c-1.29-.27-2-2.34-.66-4.23a4.4,4.4,0,0,1,3.82-1.63,3.2,3.2,0,0,1-1-2.66A4.68,4.68,0,0,1,18.65,7c3.06-.69,4.91,2.09,4.91,2.09s2.84-2.28,5.79-1.3a3.77,3.77,0,0,1,2.54,4.6s1.74.22,1.66,2.67A4.83,4.83,0,0,1,38,17.19c1.61,2.51-.22,5.14-.87,5.8s-5,2.62-8.9,2.54-5.12-1.22-5.12-1.22Z"/><path class="cls-15" d="M37,16.21a4.81,4.81,0,0,0-4.46-.68,3.72,3.72,0,0,1,1.14,1.6,3,3,0,0,1,3.69,2.27A4.71,4.71,0,0,1,35.93,23l.81.16a22.27,22.27,0,0,0,1.38-1.78A3.88,3.88,0,0,0,37,16.21Z"/><g class="cls-16"><path class="cls-17" d="M20.65,9.23s1.86-.39,2.49,1.09a4,4,0,0,1,.29,2.35,5.32,5.32,0,0,0,0-3.73c-.05-.09-.11-.17-.17-.26a3.67,3.67,0,0,0-3.06-.23,3.47,3.47,0,0,0-1.8,2.76A3.05,3.05,0,0,1,20.65,9.23Z"/><path class="cls-18" d="M17.64,24.91A1.58,1.58,0,0,1,16.4,26a2.27,2.27,0,0,1-2.55-2.69,3.52,3.52,0,0,1,1.72-1.77,2.3,2.3,0,0,1-1.49-1.67,3.58,3.58,0,0,1,.83-2.4,2.52,2.52,0,0,0-1.17,1.12,2,2,0,0,1,0-2.65,2.65,2.65,0,0,1,2.48-.83,2.78,2.78,0,0,0,.43,1.64s-.59-2,2.39-4.35L17.64,13a.72.72,0,0,1-.35.11c-.29,0-.47-.31-.56-.59A3.84,3.84,0,0,1,18.07,8.2,4.47,4.47,0,0,1,23,8.57a4.94,4.94,0,0,0-3-2.31,4.68,4.68,0,0,0-2.17,0A5.44,5.44,0,0,0,16,7.3c-4.27,3.35-7.33,8.52-7.27,14a10.68,10.68,0,0,0,1,4.66,10.91,10.91,0,0,0,1.93,2.65,8.75,8.75,0,0,0,2.71,2.05A4.9,4.9,0,0,0,17.7,31a4,4,0,0,0,2.13-1.52"/><path class="cls-19" d="M33.29,13.27a14.32,14.32,0,0,0-.9-1.51c-.26-.52-.23-1.11-.47-1.66a4.56,4.56,0,0,0-2.23-2.21,5.36,5.36,0,0,0-5.54,1,3.47,3.47,0,0,0-.8.86A4.23,4.23,0,0,1,23.61,11c.7-.93,2.35-1.66,4.57-1.17a4.33,4.33,0,0,1,2.43,1.61,2,2,0,0,1,.32,2.13,1.87,1.87,0,0,1,1.1,0,1.93,1.93,0,0,1,.6.32,2.31,2.31,0,0,1,.7,1.3c0-.1.1-.34.12-.46a3.08,3.08,0,0,0,0-.43A2.75,2.75,0,0,0,33.29,13.27Z"/></g><path class="cls-20" d="M18.49,28.67a2.1,2.1,0,0,1-1.85.93,1.74,1.74,0,0,1-1.72-1.19s-2.49.15-3.14-1.45.7-3.89.7-3.89A2.08,2.08,0,0,1,11.33,21a1.88,1.88,0,0,1,1.2-1.3c-1.29-.27-2-2.34-.66-4.23a4.4,4.4,0,0,1,3.82-1.63,3.2,3.2,0,0,1-1-2.66A4.68,4.68,0,0,1,18.65,7c3.06-.69,4.91,2.09,4.91,2.09s2.84-2.28,5.79-1.3a3.77,3.77,0,0,1,2.54,4.6s1.74.22,1.66,2.67A4.83,4.83,0,0,1,38,17.19c1.61,2.51-.22,5.14-.87,5.8s-5,2.62-8.9,2.54-5.12-1.22-5.12-1.22Z"/><path class="cls-21" d="M18.37,23.58c-.78-.63-2.38-.36-3,1.42a2,2,0,0,0,1.49,2.89,3.55,3.55,0,0,0,0,3c.74,1.51,3.08,1.3,3.78.58a2.74,2.74,0,0,0,1.68,2.25c1.62.72,3.79-.48,4.39-2.51A3,3,0,0,0,25.6,28Z"/><path class="cls-22" d="M26.58,31.42c-.69,1.88-2.75,3-4.31,2.28a2.75,2.75,0,0,1-1.68-2.26c-.7.72-3,.94-3.78-.57a3.54,3.54,0,0,1,0-3A2,2,0,0,1,15.33,25a2.28,2.28,0,0,1,2.36-1.7l0,1.09A1.42,1.42,0,0,0,17,26.11a1.38,1.38,0,0,0,1.33,1.06,3.72,3.72,0,0,0-.15,2.71c.56,1.08,2.1-.34,2.1-.34l1.34.42.74-.12a3.45,3.45,0,0,0,.38,2.24c.61.75,2.75.59,3.71-.52Z"/><path class="cls-20" d="M18.37,23.58c-.78-.63-2.38-.36-3,1.42a2,2,0,0,0,1.49,2.89,3.55,3.55,0,0,0,0,3c.74,1.51,3.08,1.3,3.78.58a2.74,2.74,0,0,0,1.68,2.25c1.62.72,3.79-.48,4.39-2.51A3,3,0,0,0,25.6,28Z"/><path class="cls-23" d="M33.53,20.79s1.5-.06,2,2.07c0,0,1.5.33,1.87,1.18a3.07,3.07,0,0,1-1.26,3.17,3.51,3.51,0,0,1-.42,2.61,3.27,3.27,0,0,1-4.82.93C28.84,29.39,33.18,20.91,33.53,20.79Z"/><g class="cls-24"><path class="cls-25" d="M34,21.63a2.15,2.15,0,0,1,.31,2.18,1.39,1.39,0,0,1,1.38.29A1.36,1.36,0,0,1,36,25.45a1.14,1.14,0,0,1-.53.7.87.87,0,0,1-.87,0,2.19,2.19,0,0,1-.44,2,3.25,3.25,0,0,1-1.8,1.05.36.36,0,0,0-.27.15.31.31,0,0,0,0,.19,9.89,9.89,0,0,0,.42,2.22,2.19,2.19,0,0,0,.9,1.37,2.08,2.08,0,0,0,.86.19,4.34,4.34,0,0,0,2.65-.55,5,5,0,0,0,1.2-1.15,8.3,8.3,0,0,0,2.27-5.7A8.13,8.13,0,0,0,40,24.12a5.44,5.44,0,0,0-.94-1.86,5.82,5.82,0,0,0-1.86-1.39,6.16,6.16,0,0,0-1.79-.67,3.69,3.69,0,0,0-3.67,1.66"/></g><path class="cls-20" d="M33.53,20.79s1.5-.06,2,2.07c0,0,1.5.33,1.87,1.18a3.07,3.07,0,0,1-1.26,3.17,3.51,3.51,0,0,1-.42,2.61,3.27,3.27,0,0,1-4.82.93C28.84,29.39,33.18,20.91,33.53,20.79Z"/><path class="cls-26" d="M19.37,29.29c-1.09-1.13-.26-3-.26-3a2,2,0,0,1-2.06-2.46A2.72,2.72,0,0,1,18.18,22a4.65,4.65,0,0,1,.72-4.21,2.74,2.74,0,0,1,2.78-1.17,2.42,2.42,0,0,1,1.21-2.84c1.36-.85,2.58.64,2.58.64s2-1.59,3.91-.9,2.44,3.11,1.81,4.65A3.74,3.74,0,0,1,34,19a2.84,2.84,0,0,1-.81,4,3.13,3.13,0,0,1,.08,2.9A2.77,2.77,0,0,1,29.86,27a7,7,0,0,1-2.34,3.32c-1.64,1.12-4.13-.81-4.13-.81S21,31,19.37,29.29Z"/><g class="cls-27"><path class="cls-28" d="M31.76,17.47A3.63,3.63,0,0,0,32,14a1.63,1.63,0,0,0-.3-.44,2,2,0,0,0-.61-.38,10.34,10.34,0,0,0-2.33-.91,7.58,7.58,0,0,0-2.47,0A13.91,13.91,0,0,0,15.51,20a8,8,0,0,0-.68,2,9.61,9.61,0,0,0-.06,2.57,11.26,11.26,0,0,0,.73,3.59A4.81,4.81,0,0,0,18,30.77a7.43,7.43,0,0,0,2.62.38,3,3,0,0,0,1.53-.23,1.08,1.08,0,0,0,.59-1.3c-1.92.79-3.31-1.73-2.47-3.28a4.1,4.1,0,0,1,1-1.14,1,1,0,0,1-1.08-.69,1.84,1.84,0,0,1,.13-1.36,3.25,3.25,0,0,1,2.33-1.83,2.83,2.83,0,0,1-.58-3.67,1.91,1.91,0,0,1,1-.82A1.55,1.55,0,0,1,25,17.92a3.3,3.3,0,0,1,1.17-2.52,3.22,3.22,0,0,1,3.06-.59,2.5,2.5,0,0,1,1.33,2.61c-.1.48-.62.77-.92,1.16a2.16,2.16,0,0,1,1.36,1,4.26,4.26,0,0,1,.6,1.59A3.06,3.06,0,0,0,31.64,19a2.59,2.59,0,0,1,3.1,1.48c-.13-2.25-2-4-2.62-6.19"/></g><path class="cls-29" d="M22.72,27a2.49,2.49,0,0,0-.7,2.16A1.24,1.24,0,0,0,24,30s1.23,2.49,3.57,1.32a3.55,3.55,0,0,0,2.84,1.75,3.51,3.51,0,0,0,1.86-.77,1.93,1.93,0,0,0,1.23,1.41c1.06.38,2.22-1.32,1.46-2.18a1.61,1.61,0,0,0-1.53-.67,4.84,4.84,0,0,0,.18-3.06,3.15,3.15,0,0,0-2.2-2.2s1.08-3.33-1.43-4.43a2.21,2.21,0,0,0-2.71.9A2.11,2.11,0,0,0,27.14,24a3.65,3.65,0,0,0-2.61,2.83S23.54,27.65,22.72,27Z"/><g class="cls-30"><path class="cls-31" d="M20.76,27.41c.21-.23.33-.5.53-.72a2.09,2.09,0,0,1,1-.47.84.84,0,0,1,.27,0,.86.86,0,0,1,.48.27,1.52,1.52,0,0,0,1.08.53,1.77,1.77,0,0,0-.66.7c-.39.84.3,1.22,1,1.12.21,0,1-.16,1.13-.37a1.34,1.34,0,0,0,.49,1.83,2.58,2.58,0,0,0,2.36-.07s.23,1,1.84,1a2.57,2.57,0,0,0,2.55-2.81,2.36,2.36,0,0,0-3.49-1.73s1.39-2.06,3.87,0-.3,6-2.22,6.53-6.68,0-6.68,0l-2.81-3Z"/><path class="cls-3" d="M34.18,30.88a1.65,1.65,0,0,0-.93.92.89.89,0,0,0,1,1.09c.51-.06.86-.19.9-.73s2.11-.2.48,1.12S33,34.4,33,34.4l-.86-.83-.29-1.22,1.55-1.49"/></g><path class="cls-20" d="M22.72,27a2.49,2.49,0,0,0-.7,2.16A1.24,1.24,0,0,0,24,30s1.23,2.49,3.57,1.32a3.55,3.55,0,0,0,2.84,1.75,3.51,3.51,0,0,0,1.86-.77,1.93,1.93,0,0,0,1.23,1.41c1.06.38,2.22-1.32,1.46-2.18a1.61,1.61,0,0,0-1.53-.67,4.84,4.84,0,0,0,.18-3.06,3.15,3.15,0,0,0-2.2-2.2"/><path class="cls-32" d="M31.51,24.89s.43-2.6-1.28-4a3,3,0,0,0-4-.26s-1.72-.53-2.65.39.3,2.7,2.15,2.56c0,0-2.08-.69-1.15-2,.39-.53,1.77-.25,2,1,0,0,.3-1.42,2.38-1.38S31.52,24.47,31.51,24.89Z"/><polygon class="cls-3" points="12.62 3.13 13.13 3.01 13.3 3.56 13.19 3.95 12.62 3.13"/><polygon class="cls-3" points="13.97 4.37 14.23 4.41 14.27 4.85 14 4.68 13.97 4.37"/><polygon class="cls-33" points="5.44 20.38 5.99 20.96 6.57 20.42 5.95 20.18 5.44 20.38"/><polygon class="cls-3" points="37.19 8.86 37.79 8.55 37.74 9.32 37.08 9.84 37.19 8.86"/><polygon class="cls-3" points="36.63 10.36 36.63 10.94 35.93 11.16 36.63 10.36"/><polygon class="cls-3" points="34.51 12.36 34.76 12.49 34.58 12.74 34.4 12.61 34.51 12.36"/><path class="cls-34" d="M10.49,25.46a5.6,5.6,0,0,0-.36,2.7,2,2,0,0,0,2,1.38A13.26,13.26,0,0,0,9.47,32.4a5.36,5.36,0,0,0,.44-2C9.82,29.62,4.57,32,4.57,32s3.63-2.69,4.17-3.86a1.08,1.08,0,0,0-.69-1.66,18.11,18.11,0,0,0-2.54-.62A10.21,10.21,0,0,0,10.49,25.46Z"/><path class="cls-35" d="M26,33.65a4.58,4.58,0,0,1-2.42,1.73,1.79,1.79,0,0,1-1.88-.83,17.1,17.1,0,0,1-1.3,2.8,17.82,17.82,0,0,1,1.77-1.41c.71-.32,1,.85,1,.85a2.45,2.45,0,0,1,1.16-1.11,1.69,1.69,0,0,1,1-.11s.16-.69.22-.84S26,33.65,26,33.65Z"/><path class="cls-36" d="M41,20.59a5.7,5.7,0,0,0-.47-3.85,4.23,4.23,0,0,0-2.81-1.68,23.49,23.49,0,0,1,2.77.34,4.9,4.9,0,0,1,1.8.6s-.79-.15-.76.38,2.36,1.92,2.36,1.92-1.63-.4-1.68.15A5.79,5.79,0,0,0,43,20.39s-1-.61-1.18-.34,1.33,2,1.33,2A19.91,19.91,0,0,0,41,20.59Z"/></g></svg>