<?xml version="1.0" encoding="UTF-8" standalone="no"?>
<!-- Created with Inkscape (http://www.inkscape.org/) -->
<svg
   xmlns:dc="http://purl.org/dc/elements/1.1/"
   xmlns:cc="http://creativecommons.org/ns#"
   xmlns:rdf="http://www.w3.org/1999/02/22-rdf-syntax-ns#"
   xmlns:svg="http://www.w3.org/2000/svg"
   xmlns="http://www.w3.org/2000/svg"
   xmlns:xlink="http://www.w3.org/1999/xlink"
   xmlns:sodipodi="http://sodipodi.sourceforge.net/DTD/sodipodi-0.dtd"
   xmlns:inkscape="http://www.inkscape.org/namespaces/inkscape"
   width="48px"
   height="48px"
   id="svg2409"
   sodipodi:version="0.32"
   inkscape:version="0.46"
   sodipodi:docname="atmosphere.svg"
   inkscape:output_extension="org.inkscape.output.svg.inkscape">
  <defs
     id="defs2411">
    <linearGradient
       id="linearGradient3294">
      <stop
         style="stop-color:#ffffff;stop-opacity:1;"
         offset="0"
         id="stop3296" />
      <stop
         style="stop-color:#b1f1ff;stop-opacity:1;"
         offset="1"
         id="stop3298" />
    </linearGradient>
    <linearGradient
       id="linearGradient3288">
      <stop
         id="stop3290"
         offset="0"
         style="stop-color:#0ba647;stop-opacity:1;" />
      <stop
         id="stop3292"
         offset="1"
         style="stop-color:#86c5b9;stop-opacity:1;" />
    </linearGradient>
    <linearGradient
       id="linearGradient3282">
      <stop
         id="stop3284"
         offset="0"
         style="stop-color:#6ab163;stop-opacity:1;" />
      <stop
         id="stop3286"
         offset="1"
         style="stop-color:#add6b6;stop-opacity:1;" />
    </linearGradient>
    <linearGradient
       id="linearGradient3276">
      <stop
         id="stop3278"
         offset="0"
         style="stop-color:#84cdb8;stop-opacity:1;" />
      <stop
         id="stop3280"
         offset="1"
         style="stop-color:#cce5de;stop-opacity:1;" />
    </linearGradient>
    <linearGradient
       inkscape:collect="always"
       xlink:href="#linearGradient3294"
       id="linearGradient3526"
       x1="296.64957"
       y1="240.62967"
       x2="297.04971"
       y2="17.879673"
       gradientUnits="userSpaceOnUse"
       gradientTransform="matrix(6.0606061e-2,0,0,6.0606061e-2,5.4799964,0.1406442)" />
    <linearGradient
       inkscape:collect="always"
       xlink:href="#linearGradient3276"
       id="linearGradient3518"
       x1="285.50543"
       y1="454.44037"
       x2="286.33548"
       y2="242.29752"
       gradientUnits="userSpaceOnUse"
       gradientTransform="matrix(6.0606061e-2,0,0,6.0606061e-2,5.4799964,0.1406442)" />
    <linearGradient
       inkscape:collect="always"
       xlink:href="#linearGradient3282"
       id="linearGradient3510"
       x1="496.62262"
       y1="535.10321"
       x2="498.88571"
       y2="368.04071"
       gradientUnits="userSpaceOnUse"
       gradientTransform="matrix(6.0606061e-2,0,0,6.0606061e-2,5.4799964,0.1406442)" />
    <linearGradient
       inkscape:collect="always"
       xlink:href="#linearGradient3288"
       id="linearGradient3502"
       x1="527.75879"
       y1="777.29871"
       x2="523.74969"
       y2="508.11133"
       gradientUnits="userSpaceOnUse"
       gradientTransform="matrix(6.0606061e-2,0,0,6.0606061e-2,5.4799964,0.1406442)" />
  </defs>
  <sodipodi:namedview
     id="base"
     pagecolor="#ffffff"
     bordercolor="#666666"
     borderopacity="1.0"
     inkscape:pageopacity="0.0"
     inkscape:pageshadow="2"
     inkscape:zoom="7"
     inkscape:cx="1.7142857"
     inkscape:cy="24"
     inkscape:current-layer="layer1"
     showgrid="true"
     inkscape:grid-bbox="true"
     inkscape:document-units="px"
     inkscape:window-width="2560"
     inkscape:window-height="1538"
     inkscape:window-x="-8"
     inkscape:window-y="-8" />
  <metadata
     id="metadata2414">
    <rdf:RDF>
      <cc:Work
         rdf:about="">
        <dc:format>image/svg+xml</dc:format>
        <dc:type
           rdf:resource="http://purl.org/dc/dcmitype/StillImage" />
      </cc:Work>
    </rdf:RDF>
  </metadata>
  <g
     id="layer1"
     inkscape:label="Layer 1"
     inkscape:groupmode="layer">
    <path
       style="fill:url(#linearGradient3526);fill-opacity:1.0"
       d="M 0.31590043,0.76083659 L 47.536581,0.76083659 L 47.536581,25.473398 L 0.31590043,25.473398 L 0.31590043,0.76083659 z"
       id="rect3395" />
    <path
       style="fill:url(#SVGID_1_)"
       d="M 1.3337574,1.3364378 L 46.625868,1.3364378 L 46.625868,24.656142 L 1.3337574,24.656142 L 1.3337574,1.3364378 z"
       id="rect3410" />
    <path
       style="fill:url(#linearGradient3518);fill-opacity:1.0"
       d="M 47.262233,20.02088 C 44.382772,19.441883 42.843307,18.779461 39.799926,17.868757 C 36.754569,16.958052 36.183812,17.107022 34.77963,16.709768 C 32.148024,15.964918 31.710575,15.243901 29.842282,14.061078 C 27.620475,12.653806 26.386138,12.571375 25.069842,13.564511 C 23.753544,14.557645 20.214453,15.63321 17.663819,14.391792 C 15.113185,13.150374 9.5171954,9.0954042 5.5673164,12.405522 C 1.6174384,15.71564 1.1237034,15.63321 0.71192843,16.212208 L 0.72180343,31.72994 L 24.000412,39.302593 L 47.18521,39.220162 L 47.262233,20.02088 z"
       id="path3412" />
    <path
       style="fill:url(#SVGID_2_)"
       d="M 1.3337574,1.4166747 L 46.646054,1.4166747 L 46.646054,33.718207 L 1.3337574,33.718207 L 1.3337574,1.4166747 z"
       id="rect3433" />
    <path
       style="fill:url(#linearGradient3510);fill-opacity:1.0"
       d="M 47.252359,24.013282 C 44.043083,22.378583 41.609958,21.266271 38.894416,21.757872 C 36.178875,22.249474 34.450802,22.984395 34.039029,23.393566 C 33.627253,23.802737 30.007189,28.134792 28.03225,27.889487 C 26.057311,27.645176 21.36683,27.56374 19.967586,27.808051 C 18.568341,28.053354 16.429482,28.299652 15.112198,29.935345 C 13.795901,31.570045 10.585637,32.470818 10.256809,32.388388 C 9.9279824,32.305958 2.3570524,33.042864 1.9452784,32.960434 C 1.5335034,32.878004 14.206688,41.872826 20.048558,41.791389 C 25.890429,41.709951 31.898193,47.106647 35.02551,47.106647 C 38.152827,47.106647 47.286921,47.251645 47.286921,47.251645 L 47.252359,24.013282 z"
       id="path3435" />
    <path
       style="fill:url(#linearGradient3502);fill-opacity:1.0"
       d="M 47.262233,34.054868 C 47.262233,34.054868 41.691918,31.108237 39.223243,30.945363 C 36.754569,30.781496 35.767099,32.663487 35.026498,32.909784 C 34.285896,33.156082 32.558812,33.071665 31.488394,32.909784 C 30.417976,32.745917 29.102667,33.155089 28.03225,33.563267 C 26.961833,33.973431 21.942525,39.454543 16.347522,39.536973 C 10.752519,39.619403 26.962821,42.2383 29.102667,43.628688 C 31.242514,45.02007 34.45179,47.146372 35.43926,47.146372 C 36.426729,47.146372 47.293832,47.249658 47.293832,47.249658 L 47.262233,34.054868 z"
       id="path3437" />
    <path
       style="fill:url(#SVGID_3_)"
       d="M 1.3337574,1.356733 L 46.666237,1.356733 L 46.666237,46.767566 L 1.3337574,46.767566 L 1.3337574,1.356733 z"
       id="rect3452" />
    <path
       style="fill:#49943e"
       d="M 0.73266543,31.028786 C 6.8480644,31.113203 9.4352354,34.210791 15.195145,35.001327 C 24.247279,36.242744 24.508959,41.766561 30.912699,43.442972 C 37.275953,45.108459 35.736489,47.233767 38.544852,47.233767 C 41.356178,47.233767 0.74352743,47.208939 0.74352743,47.208939 L 0.73266543,31.028786 z"
       id="path3454" />
    <path
       style="fill:none;stroke:#007786;stroke-width:1;stroke-miterlimit:10"
       d="M 0.48510543,0.66462979 L 47.514894,0.66462979 L 47.514894,47.621084 L 0.48510543,47.621084 L 0.48510543,0.66462979 z"
       id="rect3391" />
  </g>
</svg>
