<?xml version="1.0" encoding="UTF-8" standalone="no"?>
<!-- Generator: Adobe Illustrator 15.0.0, SVG Export Plug-In . SVG Version: 6.00 Build 0)  -->
<svg
   xmlns:dc="http://purl.org/dc/elements/1.1/"
   xmlns:cc="http://creativecommons.org/ns#"
   xmlns:rdf="http://www.w3.org/1999/02/22-rdf-syntax-ns#"
   xmlns:svg="http://www.w3.org/2000/svg"
   xmlns="http://www.w3.org/2000/svg"
   xmlns:xlink="http://www.w3.org/1999/xlink"
   xmlns:sodipodi="http://sodipodi.sourceforge.net/DTD/sodipodi-0.dtd"
   xmlns:inkscape="http://www.inkscape.org/namespaces/inkscape"
   version="1.0"
   id="Layer_1"
   x="0px"
   y="0px"
   width="48"
   height="48"
   viewBox="0 0 612 792"
   enable-background="new 0 0 612 792"
   xml:space="preserve"
   sodipodi:version="0.32"
   inkscape:version="0.46"
   sodipodi:docname="Target_Shape2.svg"
   inkscape:output_extension="org.inkscape.output.svg.inkscape"><metadata
   id="metadata33887"><rdf:RDF><cc:Work
       rdf:about=""><dc:format>image/svg+xml</dc:format><dc:type
         rdf:resource="http://purl.org/dc/dcmitype/StillImage" /></cc:Work></rdf:RDF></metadata><defs
   id="defs33885"><inkscape:perspective
   sodipodi:type="inkscape:persp3d"
   inkscape:vp_x="0 : 396 : 1"
   inkscape:vp_y="0 : 1000 : 0"
   inkscape:vp_z="612 : 396 : 1"
   inkscape:persp3d-origin="306 : 264 : 1"
   id="perspective33889" />
	
	
<linearGradient
   inkscape:collect="always"
   xlink:href="#SVGID_1_"
   id="linearGradient33931"
   gradientUnits="userSpaceOnUse"
   gradientTransform="matrix(-1,0,0,1,620.2617,0)"
   x1="359.04391"
   y1="526.4375"
   x2="335.90509"
   y2="557.28931" /><radialGradient
   inkscape:collect="always"
   xlink:href="#SVGID_2_"
   id="radialGradient33933"
   gradientUnits="userSpaceOnUse"
   gradientTransform="matrix(-1.3739,0,0,1.0783,737.6057,-32.8058)"
   cx="343.84671"
   cy="523.31451"
   r="13.4264" /><radialGradient
   inkscape:collect="always"
   xlink:href="#SVGID_3_"
   id="radialGradient33935"
   gradientUnits="userSpaceOnUse"
   gradientTransform="matrix(-1.3739,0,0,1.0783,737.6057,-32.8058)"
   cx="349.7959"
   cy="529.23932"
   r="12.5492" /><radialGradient
   inkscape:collect="always"
   xlink:href="#SVGID_4_"
   id="radialGradient33937"
   gradientUnits="userSpaceOnUse"
   gradientTransform="matrix(-0.7136,-0.9214,-0.8218,0.3921,941.4597,631.374)"
   cx="335.39059"
   cy="517.51562"
   r="10.9911" />
		
			
		
			
		
			
		
			
		
			
		
			
		
			
		
			
		
			
		
			
		
			
		
		
		
		
		
		
			<linearGradient
   id="SVGID_1_"
   gradientUnits="userSpaceOnUse"
   x1="359.04391"
   y1="526.4375"
   x2="335.90509"
   y2="557.28931"
   gradientTransform="matrix(-1,0,0,1,620.2617,0)">
			<stop
   offset="0"
   style="stop-color:#FFFFFF;stop-opacity:0"
   id="stop33845" />
			<stop
   offset="1"
   style="stop-color:#00718D"
   id="stop33847" />
		</linearGradient>
		
		
			<radialGradient
   id="SVGID_2_"
   cx="343.84671"
   cy="523.31451"
   r="13.4264"
   gradientTransform="matrix(-1.3739,0,0,1.0783,737.6057,-32.8058)"
   gradientUnits="userSpaceOnUse">
			<stop
   offset="0"
   style="stop-color:#93C5D8"
   id="stop33852" />
			<stop
   offset="1"
   style="stop-color:#FFFFFF;stop-opacity:0"
   id="stop33854" />
		</radialGradient>
		
		
			<radialGradient
   id="SVGID_3_"
   cx="349.7959"
   cy="529.23932"
   r="12.5492"
   gradientTransform="matrix(-1.3739,0,0,1.0783,737.6057,-32.8058)"
   gradientUnits="userSpaceOnUse">
			<stop
   offset="0"
   style="stop-color:#DCF2FD"
   id="stop33859" />
			<stop
   offset="1"
   style="stop-color:#92B5D0;stop-opacity:0"
   id="stop33861" />
		</radialGradient>
		
		
			<radialGradient
   id="SVGID_4_"
   cx="335.39059"
   cy="517.51562"
   r="10.9911"
   gradientTransform="matrix(-0.7136,-0.9214,-0.8218,0.3921,941.4597,631.374)"
   gradientUnits="userSpaceOnUse">
			<stop
   offset="0"
   style="stop-color:#1A5C79"
   id="stop33866" />
			<stop
   offset="1"
   style="stop-color:#6D7DAA;stop-opacity:0"
   id="stop33868" />
		</radialGradient>
		
		
		
		
		
		
		
	<radialGradient
   inkscape:collect="always"
   xlink:href="#SVGID_4_"
   id="radialGradient33958"
   gradientUnits="userSpaceOnUse"
   gradientTransform="matrix(-12.046375,-15.554274,-13.872913,6.6190914,11604.836,2113.1924)"
   cx="335.39059"
   cy="517.51562"
   r="10.9911" /><radialGradient
   inkscape:collect="always"
   xlink:href="#SVGID_3_"
   id="radialGradient33961"
   gradientUnits="userSpaceOnUse"
   gradientTransform="matrix(-23.192986,0,0,18.202923,8163.5495,-9098.9138)"
   cx="349.7959"
   cy="529.23932"
   r="12.5492" /><radialGradient
   inkscape:collect="always"
   xlink:href="#SVGID_2_"
   id="radialGradient33964"
   gradientUnits="userSpaceOnUse"
   gradientTransform="matrix(-23.192986,0,0,18.202923,8163.5495,-9098.9138)"
   cx="343.84671"
   cy="523.31451"
   r="13.4264" /><linearGradient
   inkscape:collect="always"
   xlink:href="#SVGID_1_"
   id="linearGradient33967"
   gradientUnits="userSpaceOnUse"
   gradientTransform="matrix(-16.881131,0,0,16.881131,6182.6501,-8545.1147)"
   x1="359.04391"
   y1="526.4375"
   x2="335.90509"
   y2="557.28931" /></defs><sodipodi:namedview
   inkscape:window-height="1538"
   inkscape:window-width="2560"
   inkscape:pageshadow="2"
   inkscape:pageopacity="0.0"
   guidetolerance="10.0"
   gridtolerance="10.0"
   objecttolerance="10.0"
   borderopacity="1.0"
   bordercolor="#666666"
   pagecolor="#ffffff"
   id="base"
   showgrid="false"
   inkscape:zoom="18.666667"
   inkscape:cx="16.20872"
   inkscape:cy="20.737693"
   inkscape:window-x="0"
   inkscape:window-y="24"
   inkscape:current-layer="Layer_1" />
<path
   stroke-miterlimit="10"
   d="M 33.078704,105.1312 C 35.020033,100.65771 42.059466,105.58699 49.233946,110.51628 C 91.504298,139.58559 133.40327,179.45883 162.979,209.94614 L 204.20272,254.74867 L 271.11953,236.55081 L 286.46448,168.40169 C 286.46448,168.40169 175.96059,69.22504 101.26159,29.166116 C 76.733308,16.015715 49.791023,12.420033 24.081061,14.817155 C 8.3984903,16.268932 -30.934545,22.042278 -45.317268,52.158216 C -48.18706,56.361617 -62.839882,79.505648 -71.634951,127.27925 C -68.224963,168.04718 -35.813192,210.50322 -5.19082,242.12158 L -5.3765124,242.7293 C 6.1532996,254.68114 20.215282,267.03813 31.373709,276.37339 C 42.819116,286.13069 50.533793,291.87028 50.533793,291.87028 L 120.92811,273.38544 L 135.88479,208.07234 L 86.001049,164.02947 C 63.751719,143.21503 41.350458,120.42551 33.078704,105.1312 z"
   id="path33814"
   style="fill:none;stroke:#3e3e41;stroke-width:24.75000000000000000;stroke-linecap:round;stroke-linejoin:round;stroke-miterlimit:10;stroke-dasharray:none;stroke-opacity:1" /><polygon
   stroke-miterlimit="10"
   points="261.179,522.357 257.009,523.452 257.919,519.415 262.065,518.487 261.179,522.357 "
   id="polygon33816"
   style="fill:#9d9fa2;stroke:#6d6e71;stroke-width:0.1;stroke-linecap:round;stroke-linejoin:round;stroke-miterlimit:10"
   transform="matrix(16.881131,0,0,16.881131,-4288.0689,-8545.1147)" /><polygon
   stroke-miterlimit="10"
   points="270.076,520.174 266.112,521.253 266.838,517.065 270.985,516.138 270.076,520.174 "
   id="polygon33818"
   style="fill:#9d9fa2;stroke:#6d6e71;stroke-width:0.1;stroke-linecap:round;stroke-linejoin:round;stroke-miterlimit:10"
   transform="matrix(16.881131,0,0,16.881131,-4288.0689,-8545.1147)" /><path
   stroke-miterlimit="10"
   d="M 286.46448,167.87837 C 286.46448,167.87837 175.96059,68.701724 101.26159,28.642801 C 76.733308,15.4924 49.791023,11.896718 24.081061,14.276958 C 3.8068228,16.167644 -56.087429,25.047119 -50.432251,84.654393 C -42.970791,163.48927 65.608643,225.00411 65.608643,225.00411 L 135.88479,207.53214 C 135.88479,207.53214 29.634953,119.64897 29.263569,94.3104 C 28.875302,68.094004 59.379506,60.328683 103.06788,89.043486 C 129.53748,106.46481 217.85956,184.60757 217.85956,184.60757 L 286.46448,167.87837 z"
   id="path33820"
   style="fill:#ef3e23;stroke:#6d6e71;stroke-width:1.68811309;stroke-linecap:round;stroke-linejoin:round;stroke-miterlimit:10" /><path
   stroke-miterlimit="10"
   d="M 204.20272,254.22535 L 217.87644,184.62445 C 217.87644,184.62445 115.39109,86.832058 74.032328,73.512847 C 46.229105,64.515203 20.519143,77.091646 33.061822,104.60789 C 35.003153,100.11751 42.042584,105.04679 49.217065,109.99297 C 127.19101,163.59056 204.21961,254.22535 204.20272,254.22535 z"
   id="path33822"
   style="fill:#bc3019;stroke:#6d6e71;stroke-width:1.68811309;stroke-linecap:round;stroke-linejoin:round;stroke-miterlimit:10" /><path
   stroke-miterlimit="10"
   d="M 65.608643,225.00411 L 50.533793,291.34696 C 50.533793,291.34696 -65.05131,205.72586 -71.61807,126.73905 C -61.827015,73.631015 -44.709547,50.757082 -44.709547,50.757082 C -44.709547,50.757082 -90.963846,108.94634 65.608643,225.00411 z"
   id="path33824"
   style="fill:#bc3019;stroke:#6d6e71;stroke-width:1.68811309;stroke-linecap:round;stroke-linejoin:round;stroke-miterlimit:10" /><polygon
   stroke-miterlimit="10"
   points="262.065,518.487 257.902,519.522 254.805,516.891 259.093,515.862 262.065,518.487 "
   id="polygon33826"
   style="fill:#ffffff;stroke:#6d6e71;stroke-width:0.1;stroke-linecap:round;stroke-linejoin:round;stroke-miterlimit:10"
   transform="matrix(16.881131,0,0,16.881131,-4288.0689,-8545.1147)" /><polygon
   stroke-miterlimit="10"
   points="266.922,517.13 270.985,516.138 267.704,513.383 263.842,514.339 266.922,517.13 "
   id="polygon33828"
   style="fill:#ffffff;stroke:#6d6e71;stroke-width:0.1;stroke-linecap:round;stroke-linejoin:round;stroke-miterlimit:10"
   transform="matrix(16.881131,0,0,16.881131,-4288.0689,-8545.1147)" /><polygon
   stroke-miterlimit="10"
   points="266.922,517.13 263.842,514.339 262.849,517.706 266.112,521.253 266.922,517.13 "
   id="polygon33830"
   style="fill:#dadbdc;stroke:#6d6e71;stroke-width:0.1;stroke-linecap:round;stroke-linejoin:round;stroke-miterlimit:10"
   transform="matrix(16.881131,0,0,16.881131,-4288.0689,-8545.1147)" /><path
   stroke-miterlimit="10"
   d="M 65.608643,225.00411 L 50.533793,291.34696 C 50.533793,291.34696 17.514301,265.97461 -5.3765124,242.20598 L 13.3109,180.58986 L 65.608643,225.00411 z"
   id="path33832"
   style="fill:#dadbdc;stroke:#6d6e71;stroke-width:1.68811309;stroke-linecap:round;stroke-linejoin:round;stroke-miterlimit:10" /><path
   d="M 685.77075,781.03481 L 685.9058,775.76789 C 686.15901,767.2598 691.88172,584.33586 690.85197,566.50939 C 689.80534,549.30752 596.92536,375.4994 525.70387,320.63573 C 483.77114,288.34212 421.95243,266.24471 380.64431,261.73745 C 335.55481,256.75753 279.03678,259.104 276.876,281.25205 C 275.59303,294.41933 305.16877,300.78351 328.3972,345.4341 C 358.24305,402.76242 257.44581,452.69681 172.75318,472.22828 C 141.06729,479.53781 118.83485,484.56839 -0.95365613,493.853 C -40.320453,496.90849 -65.473339,495.18662 -65.777199,495.16974 L -73.745093,494.62954 L -73.745093,693.43861 L 22.207255,781.01793 L 685.77075,781.01793 L 685.77075,781.03481 z"
   id="path33834"
   style="fill:none;stroke:#005b6e;stroke-width:20.25735855;stroke-linecap:round;stroke-linejoin:round" /><path
   d="M 678.66379,775.68348 L 25.532838,775.68348 L -66.452444,692.39199 L -66.452444,502.24293 C -66.452444,502.24293 35.442062,503.15451 133.92658,487.52258 C 216.99862,474.33842 357.41587,424.57284 342.12157,359.15846 C 339.18425,346.61578 334.60946,328.73866 310.85771,303.94028 C 301.13418,293.77784 281.56895,284.29065 289.28362,278.61859 C 308.69693,264.37091 348.36759,266.56546 362.69967,268.42238 C 428.11405,276.86295 472.42702,290.58731 518.85013,326.45971 C 581.83363,375.12801 644.41198,475.75643 683.59308,566.77949 C 684.62284,584.60596 678.66379,775.68348 678.66379,775.68348 z"
   id="path33836"
   style="fill:none;stroke:#bfdde6;stroke-width:16.88113213;stroke-linecap:round;stroke-linejoin:round" /><path
   d="M 680.60513,774.70438 L 680.60513,566.50939 C 680.57136,566.50939 598.20832,356.99768 469.52346,296.73204 C 410.11877,268.89505 311.12781,262.36206 294.11163,277.38626 C 278.15897,291.49889 302.16393,269.28332 369.21578,358.61826 C 445.85612,460.81664 309.9799,554.89517 239.60246,566.52627 C 165.64622,578.79886 27.440406,568.12998 27.440406,568.12998 L 26.714518,775.78477 L 680.60513,774.70438 z"
   id="path33838"
   style="fill:#0091b7" /><polygon
   points="255.598,552.116 250.046,547.108 250.046,536.027 255.641,539.815 255.598,552.116 "
   id="polygon33840"
   style="fill:#00677d"
   transform="matrix(16.881131,0,0,16.881131,-4288.0689,-8545.1147)" /><path
   d="M 369.23266,358.60138 C 445.873,460.79975 309.99677,554.87829 239.61934,566.50939 C 165.66311,578.78198 27.457287,568.1131 27.457287,568.1131 L -66.99264,504.16738 C 47.275735,510.4978 495.2503,457.86243 289.82382,282.85575 C 324.34574,300.78351 363.12169,350.49844 369.23266,358.60138 z"
   id="path33842"
   style="fill:#6db7cb" /><path
   d="M 680.38567,774.99136 L 680.38567,566.81326 C 680.36879,566.81326 598.03951,357.30154 469.304,297.01902 C 409.93307,269.18204 313.30547,262.36206 296.27242,277.38626 C 280.30286,291.49889 301.99511,269.55342 368.99633,358.90524 C 445.70419,461.06985 309.77732,555.16527 239.43365,566.81326 C 165.46053,579.05208 27.254714,568.40008 27.254714,568.40008 L 26.545706,776.05487 L 680.38567,774.99136 z"
   id="path33849"
   style="fill:url(#linearGradient33967)" /><path
   d="M 680.94274,774.72126 L 680.94274,566.52627 C 680.94274,566.52627 598.56283,357.03144 469.89485,296.73204 C 410.49015,268.91194 311.87059,262.36206 294.83752,277.38626 C 278.88486,291.49889 302.56908,269.28332 369.60405,358.63514 C 446.26126,460.83352 310.36816,554.91205 239.97385,566.54316 C 166.00073,578.79886 27.79491,568.12998 27.79491,568.12998 L 27.085902,775.80166 L 680.94274,774.72126 z"
   id="path33856"
   style="fill:url(#radialGradient33964)" /><path
   d="M 351.72693,338.14145 C 358.17552,343.77975 364.53971,350.49844 370.61691,358.61826 C 447.3079,460.81664 311.41479,554.89517 241.03735,566.52627 C 167.04736,578.78198 28.858421,568.1131 28.858421,568.1131 L -65.557744,504.18426 C -28.875047,505.85549 517.19577,477.22509 289.30051,283.37907 C 307.61654,293.38957 323.78866,301.30683 351.72693,338.14145 z"
   id="path33863"
   style="fill:url(#radialGradient33961)" /><path
   d="M 680.62201,775.12641 L 680.62201,566.91454 C 680.60513,566.91454 598.24208,357.4197 469.52346,297.13719 C 410.15252,269.3002 311.12781,262.34518 294.11163,277.36938 C 278.17585,291.48201 302.1977,269.67159 369.23266,359.00654 C 445.90676,461.18802 310.03053,555.28344 239.63622,566.91454 C 165.64622,579.18712 27.440406,568.53512 27.440406,568.53512 L 26.748279,776.17304 L 680.62201,775.12641 z"
   id="path33870"
   style="fill:url(#radialGradient33958)" /><path
   d="M 351.42307,378.18349 C 398.57207,466.97824 269.65088,549.49321 108.94251,549.6789 C 280.85994,541.8967 377.06551,443.64852 351.42307,378.18349 z"
   id="path33872"
   style="fill:#7cbdd0" /><path
   d="M 362.95289,437.1324 C 359.94804,532.22382 208.30484,572.06328 60.307968,553.57845 C 230.33472,561.86708 352.35154,504.2349 362.95289,437.1324 z"
   id="path33874"
   style="fill:#88c2d4" /><path
   d="M 395.44906,367.34581 C 503.48829,423.98201 398.55519,562.30599 276.57213,631.34982 C 406.57373,550.96187 467.09258,413.54946 395.44906,367.34581 z"
   id="path33876"
   style="fill:#488ca5" /><path
   d="M 461.23483,414.08966 C 529.92415,500.68986 325.54429,639.57093 248.17808,658.02201 C 359.79611,618.19942 502.25598,479.35212 461.23483,414.08966 z"
   id="path33878"
   style="fill:#458aa4" /><path
   d="M 400.88479,346.37944 C 530.80196,348.70904 499.48747,502.63119 443.64469,612.27414 C 498.42396,489.68337 492.93759,355.20828 400.88479,346.37944 z"
   id="path33880"
   style="fill:#30829f" /><path
   d="M 488.34593,358.14559 C 605.48409,402.32352 490.60799,598.56666 437.90511,646.71165 C 504.92319,566.12113 567.55218,395.99309 488.34593,358.14559 z"
   id="path33882"
   style="fill:#107f9f" />

</svg>