<?xml version="1.0" encoding="UTF-8" standalone="no"?>
<svg
   xmlns:dc="http://purl.org/dc/elements/1.1/"
   xmlns:cc="http://creativecommons.org/ns#"
   xmlns:rdf="http://www.w3.org/1999/02/22-rdf-syntax-ns#"
   xmlns:svg="http://www.w3.org/2000/svg"
   xmlns="http://www.w3.org/2000/svg"
   xmlns:xlink="http://www.w3.org/1999/xlink"
   xmlns:sodipodi="http://sodipodi.sourceforge.net/DTD/sodipodi-0.dtd"
   xmlns:inkscape="http://www.inkscape.org/namespaces/inkscape"
   viewBox="0 0 48 48"
   version="1.1"
   id="svg4221"
   sodipodi:docname="campfire.svg"
   inkscape:version="1.0.1 (3bc2e813f5, 2020-09-07)">
  <metadata
     id="metadata4225">
    <rdf:RDF>
      <cc:Work
         rdf:about="">
        <dc:format>image/svg+xml</dc:format>
        <dc:type
           rdf:resource="http://purl.org/dc/dcmitype/StillImage" />
      </cc:Work>
    </rdf:RDF>
  </metadata>
  <sodipodi:namedview
     pagecolor="#ffffff"
     bordercolor="#666666"
     borderopacity="1"
     objecttolerance="10"
     gridtolerance="10"
     guidetolerance="10"
     inkscape:pageopacity="0"
     inkscape:pageshadow="2"
     inkscape:window-width="2560"
     inkscape:window-height="1377"
     id="namedview4223"
     showgrid="false"
     inkscape:zoom="15.3125"
     inkscape:cx="24.217193"
     inkscape:cy="25.054416"
     inkscape:window-x="-8"
     inkscape:window-y="-8"
     inkscape:window-maximized="1"
     inkscape:current-layer="svg4221" />
  <defs
     id="defs4135">
    <style
       id="style4075">.cls-1,.cls-17,.cls-7{fill:none;}.cls-2{fill:url(#linear-gradient);}.cls-3{fill:url(#radial-gradient);}.cls-4{fill:url(#linear-gradient-2);}.cls-5{clip-path:url(#clip-path);}.cls-6{fill:#4f2f04;}.cls-17,.cls-7{stroke:#8f5902;stroke-width:0.35px;}.cls-7{stroke-linecap:round;stroke-linejoin:round;}.cls-8{fill:url(#linear-gradient-3);}.cls-9{clip-path:url(#clip-path-2);}.cls-10{fill:url(#linear-gradient-4);}.cls-11{clip-path:url(#clip-path-3);}.cls-12{fill:#8f5902;}.cls-13{clip-path:url(#clip-path-4);}.cls-14{fill:url(#linear-gradient-6);}.cls-15{fill:url(#linear-gradient-7);}.cls-16{clip-path:url(#clip-path-5);}.cls-17{stroke-miterlimit:10;}.cls-18{fill:url(#linear-gradient-8);}.cls-19{clip-path:url(#clip-path-6);}.cls-20{fill:url(#linear-gradient-9);}.cls-21{fill:url(#radial-gradient-2);}.cls-22{clip-path:url(#clip-path-7);}.cls-23{fill:url(#linear-gradient-10);}.cls-24{fill:url(#linear-gradient-11);}.cls-25{fill:#fcaf3e;}.cls-26{fill:url(#linear-gradient-12);}</style>
    <linearGradient
       id="linear-gradient"
       x1="13.31"
       y1="35.14"
       x2="23.54"
       y2="24.99"
       gradientUnits="userSpaceOnUse">
      <stop
         offset="0"
         stop-color="#8f5902"
         id="stop4077" />
      <stop
         offset="1"
         stop-color="#edd400"
         id="stop4079" />
    </linearGradient>
    <radialGradient
       id="radial-gradient"
       cx="20.07"
       cy="-34.15"
       r="19.87"
       gradientTransform="matrix(1.2,0,0,0.49,0,51.59)"
       gradientUnits="userSpaceOnUse">
      <stop
         offset="0.03"
         stop-color="#2c2c2c"
         stop-opacity="0.5"
         id="stop4082" />
      <stop
         offset="0.68"
         stop-color="#2c2c2c"
         stop-opacity="0.1"
         id="stop4084" />
      <stop
         offset="0.93"
         stop-color="#2c2c2c"
         stop-opacity="0"
         id="stop4086" />
    </radialGradient>
    <linearGradient
       id="linear-gradient-2"
       x1="35.71"
       y1="24.09"
       x2="29.68"
       y2="30.06"
       xlink:href="#linear-gradient"
       gradientTransform="matrix(1.0448619,0,0,1.0448619,-1.0766858,-1.0730969)" />
    <clipPath
       id="clip-path">
      <path
         class="cls-1"
         d="M30.69,25.14s4.25-1.37,5.17-1.74a1.83,1.83,0,0,1,2.08.42,1.52,1.52,0,0,1-.09,2.06c-.79.67-6.29,2.05-6.29,2.05"
         id="path4090" />
    </clipPath>
    <linearGradient
       id="linear-gradient-3"
       x1="38.13"
       y1="31.97"
       x2="27.03"
       y2="24.93"
       xlink:href="#linear-gradient"
       gradientTransform="matrix(1.0448619,0,0,1.0448619,-1.0766858,-1.0730969)" />
    <clipPath
       id="clip-path-2">
      <path
         class="cls-1"
         d="M31.68,27.56,42.4,30.27a3,3,0,0,1,.25,2.41c-.39,1.39-1.28,2.15-1.8,2.07S28,30,28,30"
         id="path4094" />
    </clipPath>
    <linearGradient
       id="linear-gradient-4"
       x1="12.44"
       y1="29.49"
       x2="23.35"
       y2="24.25"
       xlink:href="#linear-gradient"
       gradientTransform="matrix(1.0448619,0,0,1.0448619,-1.0766858,-1.0730969)" />
    <clipPath
       id="clip-path-3">
      <path
         class="cls-1"
         d="M8.06,31.42a1.06,1.06,0,0,1-.63-.13,2,2,0,0,1-.9-1.7c-.1-1.13.32-2,1.36-2.09l12.3-.61L20.71,29l-1,1.24Z"
         id="path4098" />
    </clipPath>
    <clipPath
       id="clip-path-4">
      <path
         class="cls-2"
         d="M21.77,28.78,8,33.64c-.12,0-1.15.14-.44,2.52s2,3.06,2.74,2.7l15.6-9.33Z"
         id="path4101" />
    </clipPath>
    <linearGradient
       id="linear-gradient-6"
       x1="8.05"
       y1="36.25"
       x2="9.74"
       y2="36.25"
       gradientTransform="translate(14.44 -0.66) rotate(22.33)"
       gradientUnits="userSpaceOnUse">
      <stop
         offset="0"
         stop-color="#8f5902"
         id="stop4104" />
      <stop
         offset="1"
         stop-color="#c17d11"
         id="stop4106" />
    </linearGradient>
    <linearGradient
       id="linear-gradient-7"
       x1="31.2"
       y1="34.15"
       x2="29.88"
       y2="23.62"
       gradientTransform="matrix(1.0413335,0.08579617,-0.08579617,1.0413335,1.974311,-3.5598683)"
       xlink:href="#linear-gradient" />
    <clipPath
       id="clip-path-5">
      <path
         class="cls-1"
         d="M24.83,29.43s4.9,7.41,6.56,10.4a3.25,3.25,0,0,0,4.2,1.56c2.31-.88,2.16-2.64,1.74-3.5s-8-8.2-8-8.2"
         id="path4110" />
    </clipPath>
    <linearGradient
       id="linear-gradient-8"
       x1="21.78"
       y1="38.57"
       x2="21.29"
       y2="20.99"
       xlink:href="#linear-gradient"
       gradientTransform="matrix(1.0448619,0,0,1.0448619,-1.0766858,-1.0730969)" />
    <clipPath
       id="clip-path-6">
      <path
         class="cls-1"
         d="M23.1,29.71s-5.68,9.19-6,10c-.73,1.67,0,3.51,2.3,4.3s3.67-.71,4.23-2.16c.26-.69,3-11.33,3-11.33Z"
         id="path4114" />
    </clipPath>
    <linearGradient
       id="linear-gradient-9"
       x1="14.36"
       y1="24.47"
       x2="20.15"
       y2="27.44"
       xlink:href="#linear-gradient"
       gradientTransform="matrix(1.0448619,0,0,1.0448619,-1.0766858,-1.0730969)" />
    <radialGradient
       id="radial-gradient-2"
       cx="25.18"
       cy="32.33"
       r="14.27"
       gradientUnits="userSpaceOnUse"
       gradientTransform="matrix(1.0448619,0,0,1.0448619,-1.0766858,-1.0730969)">
      <stop
         offset="0"
         stop-color="#fce94f"
         id="stop4118" />
      <stop
         offset="0.36"
         stop-color="#fcaf3e"
         id="stop4120" />
      <stop
         offset="1"
         stop-color="#f57900"
         id="stop4122" />
    </radialGradient>
    <clipPath
       id="clip-path-7">
      <path
         class="cls-1"
         d="M31.06,28.9A10.85,10.85,0,0,1,27.31,31c-2.26.66-4.87.76-6.64,2.53a8.11,8.11,0,0,1,1.9-2.77c-3.05,1.55-6.38-1.24-7.27-4.16A8.13,8.13,0,0,1,17,19.16a4.3,4.3,0,0,0,.54,2.9,2.39,2.39,0,0,0,2.58,1.08,6.4,6.4,0,0,1-1.55-5.82,11.54,11.54,0,0,1,3.07-5.4,7.21,7.21,0,0,0-.42,3.35c.05.46.35,1.06.8.92a.83.83,0,0,0,.39-.35,7.64,7.64,0,0,0,.85-6.33,19.59,19.59,0,0,1-1-2.34,6.91,6.91,0,0,1,.45-3.55,4.7,4.7,0,0,0,2,3.45A11.39,11.39,0,0,1,27.69,10a6.25,6.25,0,0,1,.63,1.93A14.26,14.26,0,0,1,28,18.48a3.78,3.78,0,0,0,1.84-2.81C30.71,17.48,32,19.9,31,21.89c-.15.31-.33.72-.08,1a.67.67,0,0,0,.75,0,2.49,2.49,0,0,0,1.25-2A6.11,6.11,0,0,1,33,26.64,8.09,8.09,0,0,1,31.06,28.9Z"
         id="path4125" />
    </clipPath>
    <linearGradient
       id="linear-gradient-10"
       x1="23.87"
       y1="30.07"
       x2="23.48"
       y2="20"
       gradientUnits="userSpaceOnUse">
      <stop
         offset="0"
         stop-color="#fdf4a4"
         id="stop4128" />
      <stop
         offset="1"
         stop-color="#fce94f"
         id="stop4130" />
    </linearGradient>
    <linearGradient
       id="linear-gradient-11"
       x1="20.57"
       y1="39.12"
       x2="21.1"
       y2="43.24"
       gradientTransform="matrix(0.17762652,1.0344133,-1.0344133,0.17762652,4.7523055,2.6920752)"
       xlink:href="#linear-gradient-6" />
    <linearGradient
       id="linear-gradient-12"
       x1="32.72"
       y1="35.43"
       x2="36.04"
       y2="35.43"
       gradientTransform="matrix(-0.50368564,0.91544371,-0.91544371,-0.50368564,56.396884,39.372276)"
       xlink:href="#linear-gradient-6" />
    <linearGradient
       inkscape:collect="always"
       xlink:href="#linear-gradient"
       id="linearGradient4788"
       gradientUnits="userSpaceOnUse"
       x1="13.31"
       y1="35.14"
       x2="23.54"
       y2="24.99"
       gradientTransform="matrix(1.0448619,0,0,1.0448619,-1.0766858,-1.0730969)" />
    <linearGradient
       inkscape:collect="always"
       xlink:href="#linear-gradient-6"
       id="linearGradient4790"
       gradientUnits="userSpaceOnUse"
       gradientTransform="matrix(0.96650866,0.3969854,-0.3969854,0.96650866,-0.58330131,-1.3961177)"
       x1="8.05"
       y1="36.25"
       x2="9.74"
       y2="36.25" />
  </defs>
  <title
     id="title4137">7-Campfire</title>
  <g
     id="shadow"
     transform="matrix(1.0448619,0,0,1.3532952,-1.2463815,-11.706341)"
     style="stroke-width:0.840958">
    <ellipse
       class="cls-3"
       cx="24"
       cy="34.799999"
       rx="22.84"
       ry="9.4200001"
       id="ellipse4139"
       style="fill:url(#radial-gradient);stroke-width:0.840958" />
  </g>
  <g
     id="g4870"
     transform="matrix(1.0913381,0,0,1.0913381,-2.3592126,-2.8134546)"
     style="stroke-width:0.916307">
    <path
       class="cls-4"
       d="m 30.990126,25.194731 c 0,0 4.440663,-1.431461 5.401936,-1.818059 a 1.9120973,1.9120973 0 0 1 2.173313,0.438842 1.5881901,1.5881901 0 0 1 -0.09404,2.152415 c -0.825441,0.700058 -6.572181,2.141967 -6.572181,2.141967"
       id="path4142"
       style="fill:url(#linear-gradient-2);stroke-width:0.916307" />
    <g
       class="cls-5"
       clip-path="url(#clip-path)"
       id="g4146"
       transform="matrix(1.0448619,0,0,1.0448619,-1.0766858,-1.0730969)"
       style="stroke-width:0.876963">
      <path
         class="cls-6"
         d="m 31.92,27.27 5,-1.94 a 2.09,2.09 0 0 0 1,-0.8 c 0,0 -1.5,0.35 -2.15,0.54 a 9.18,9.18 0 0 1 -1,0.26 c 0,0 2.87,-1.61 3.58,-1.87 0.71,-0.26 -0.15,-0.34 -0.15,-0.34 l -2.7,1 a 9.7,9.7 0 0 1 1.87,-1.44 7.57,7.57 0 0 1 2.6,-0.47 l 0.16,2.24 -1.61,2.26 -7.65,1.24"
         id="path4144"
         style="stroke-width:0.876963" />
    </g>
    <path
       class="cls-7"
       d="m 30.990126,25.194731 c 0,0 4.440663,-1.431461 5.401936,-1.818059 a 1.9120973,1.9120973 0 0 1 2.173313,0.438842 1.5881901,1.5881901 0 0 1 -0.09404,2.152415 c -0.825441,0.700058 -6.572181,2.141967 -6.572181,2.141967"
       id="path4148" />
    <path
       class="cls-8"
       d="m 32.024539,27.723297 11.20092,2.831576 a 3.1345857,3.1345857 0 0 1 0.261215,2.518117 c -0.407496,1.452358 -1.337423,2.246453 -1.880751,2.162864 C 41.062595,35.152265 28.179447,30.27276 28.179447,30.27276"
       id="path4150"
       style="fill:url(#linear-gradient-3);stroke-width:0.916307" />
    <g
       class="cls-9"
       clip-path="url(#clip-path-2)"
       id="g4154"
       transform="matrix(1.0448619,0,0,1.0448619,-1.0766858,-1.0730969)"
       style="stroke-width:0.876963">
      <path
         class="cls-6"
         d="m 28.92,28.78 8.74,2.37 a 9.46,9.46 0 0 0 3,0.28 45.55,45.55 0 0 1 -4.36,-1.72 l 7,1.72 c 0,0 0.38,2.1 -0.36,3 a 7.3,7.3 0 0 1 -1.61,1.39 L 28.14,30.4"
         id="path4152"
         style="stroke-width:0.876963" />
    </g>
    <path
       class="cls-7"
       d="m 32.024539,27.723297 11.20092,2.831576 a 3.1345857,3.1345857 0 0 1 0.261215,2.518117 c -0.407496,1.452358 -1.337423,2.246453 -1.880751,2.162864 C 41.062595,35.152265 28.179447,30.27276 28.179447,30.27276"
       id="path4156" />
    <path
       class="cls-10"
       d="M 7.3449011,31.756464 A 1.1075536,1.1075536 0 0 1 6.6866381,31.620632 2.0897238,2.0897238 0 0 1 5.7462624,29.844367 C 5.6417762,28.663673 6.0806182,27.754643 7.1672746,27.660605 l 12.8518014,-0.637365 0.543328,2.204658 -1.044862,1.295629 z"
       id="path4158"
       style="fill:url(#linear-gradient-4);stroke-width:0.916307" />
    <g
       class="cls-11"
       clip-path="url(#clip-path-3)"
       id="g4166"
       transform="matrix(1.0448619,0,0,1.0448619,-1.0766858,-1.0730969)"
       style="stroke-width:0.876963">
      <path
         class="cls-6"
         d="m 6.26,30.05 c 1.1,0 3.05,0 3.05,0 0,0 -1.12,0.28 -1.38,0.39 0,0 5.34,-0.32 7.07,-0.39 1.73,-0.07 4.28,0 4.28,0 l -0.53,0.66 -13.6,1.6 z"
         id="path4160"
         style="stroke-width:0.876963" />
      <path
         class="cls-6"
         d="m 7.66,27.23 h 3 l -2.25,0.6 c 0,0 2.69,-0.07 4,0 l -6.11,0.71 0.75,-1"
         id="path4162"
         style="stroke-width:0.876963" />
      <path
         class="cls-6"
         d="M 6.26,28.78 11,28.4 c 0,0 -5.12,0.88 -5.35,1"
         id="path4164"
         style="stroke-width:0.876963" />
    </g>
    <path
       class="cls-12"
       d="m 19.736963,27.39939 0.428394,1.765816 -0.794095,1.044862 -12.0890526,1.180694 v 0 A 0.66871162,0.66871162 0 0 1 6.8747133,31.317622 1.7344708,1.7344708 0 0 1 6.1119641,29.823469 c -0.062692,-0.7523 0.07314,-1.671779 1.0448619,-1.786713 l 12.538343,-0.626918 m 0.282112,-0.37615 -12.8518009,0.637366 c -1.0448619,0.125383 -1.5254984,1.044862 -1.4210122,2.183761 a 2.0897238,2.0897238 0 0 0 0.9403757,1.776266 1.1180022,1.1180022 0 0 0 0.5433282,0.14628 h 0.1149348 l 12.2144354,-1.21204 1.044862,-1.295628 -0.543328,-2.225556 z"
       id="path4168"
       style="stroke-width:0.916307" />
    <path
       class="cls-2"
       d="M 21.669958,28.998029 7.2822094,34.076057 c -0.1253834,0 -1.2015912,0.146281 -0.4597392,2.633052 0.7418519,2.486772 2.0897238,3.197278 2.8629216,2.821128 L 25.985237,29.781675 Z"
       id="path4170"
       style="fill:url(#linearGradient4788);stroke-width:0.916307" />
    <g
       class="cls-13"
       clip-path="url(#clip-path-4)"
       id="g4174"
       transform="matrix(1.0448619,0,0,1.0448619,-1.0766858,-1.0730969)"
       style="stroke-width:0.876963">
      <path
         class="cls-6"
         d="m 8.4,33.68 c 0.34,-0.12 3,-0.72 4.11,-0.93 0,0 -1.6,0.78 -2.1,1.11 0,0 3.15,-0.9 4.1,-1.22 0,0 -3.32,1.73 -4,2.3 -0.47,0.38 -1.13,0.87 -1.13,0.87 l 0.22,0.42 a 32.61,32.61 0 0 1 3.07,-1.29 l -1.21,1.31 c 0,0 4.5,-2.39 6.18,-3.11 0,0 -1.82,1.41 -2.36,1.91 4.15,-2.19 7.13,-5.15 8.67,-6 L 21.22,33.33 10.28,39.75 8.55,38.56 7.06,36.25 A 5.56,5.56 0 0 1 7.24,33.79 C 7.65,33.2 8.4,33.68 8.4,33.68 Z"
         id="path4172"
         style="stroke-width:0.876963" />
    </g>
    <ellipse
       class="cls-14"
       cx="-6.3718371"
       cy="37.169735"
       rx="0.61646849"
       ry="1.7762653"
       transform="rotate(-22.33)"
       id="ellipse4176"
       style="fill:url(#linearGradient4790);stroke-width:0.916307" />
    <path
       class="cls-12"
       d="m 21.701304,29.374179 3.301763,0.595571 -15.4221614,9.226131 a 0.49108509,0.49108509 0 0 1 -0.2507669,0.05224 c -0.6373657,0 -1.5777414,-0.825441 -2.0897238,-2.643501 -0.3657016,-1.222485 -0.2403182,-1.744916 -0.135832,-1.94344 a 0.40749614,0.40749614 0 0 1 0.2821127,-0.208972 h 0.052243 v 0 L 21.701304,29.374179 m 0,-0.37615 -14.4190946,5.078028 c -0.1253834,0 -1.2015912,0.146281 -0.4597392,2.633052 0.5955712,2.006135 1.671779,2.904716 2.465874,2.904716 a 0.96127295,0.96127295 0 0 0 0.3970476,-0.08359 l 16.2998452,-9.74856 -4.357074,-0.783646 z"
       id="path4178"
       style="stroke-width:0.916307" />
    <path
       class="cls-15"
       d="m 24.867235,29.677189 c 0,0 5.119823,7.742426 6.854294,10.866564 a 3.3958012,3.3958012 0 0 0 4.38842,1.629984 c 2.413631,-0.919478 2.256902,-2.758435 1.81806,-3.657017 -0.438842,-0.898581 -8.358895,-8.567867 -8.358895,-8.567867"
       id="path4180"
       style="fill:url(#linear-gradient-7);stroke-width:0.916307" />
    <g
       class="cls-16"
       clip-path="url(#clip-path-5)"
       id="g4186"
       transform="matrix(1.0448619,0,0,1.0448619,-1.0766858,-1.0730969)"
       style="stroke-width:0.876963">
      <path
         class="cls-6"
         d="m 31.42,37.68 a 10.76,10.76 0 0 1 -1.9,-3.35 18.58,18.58 0 0 0 -0.92,-1.93 24.75,24.75 0 0 0 1.84,2.24 2.92,2.92 0 0 0 1.15,0.92 c 0,0 -0.74,-1.69 -1.12,-2.34 a 53.17,53.17 0 0 0 4.26,4 5.06,5.06 0 0 0 1.7,0.69 c 0,0 -5.26,-5.28 -5.66,-5.78 l -0.59,-0.77 c 0,0 5.68,5.27 7,6.46 1.32,1.19 0.08,4.08 -1.71,4.43 a 3.36,3.36 0 0 1 -3,-1.34 5.75,5.75 0 0 0 -1.05,-3.23 z"
         id="path4182"
         style="stroke-width:0.876963" />
      <polyline
         class="cls-6"
         points="30.75 36.22 26.36 30.3 26.06 31.44 31.61 41.84 33.38 41.82 32.4 37.95"
         id="polyline4184"
         style="stroke-width:0.876963" />
    </g>
    <path
       class="cls-17"
       d="m 24.867235,29.677189 c 0,0 5.119823,7.742426 6.854294,10.866564 a 3.3958012,3.3958012 0 0 0 4.38842,1.629984 c 2.413631,-0.919478 2.256902,-2.758435 1.81806,-3.657017 -0.438842,-0.898581 -8.358895,-8.567867 -8.358895,-8.567867"
       id="path4188" />
    <path
       class="cls-18"
       d="m 23.059624,29.96975 c 0,0 -5.934816,9.602281 -6.269171,10.448619 -0.762749,1.74492 0,3.667465 2.403182,4.492906 2.403182,0.825441 3.834643,-0.741852 4.419766,-2.256901 0.271664,-0.720955 3.134586,-11.838286 3.134586,-11.838286 z"
       id="path4190"
       style="fill:url(#linear-gradient-8);stroke-width:0.916307" />
    <g
       class="cls-19"
       clip-path="url(#clip-path-6)"
       id="g4194"
       transform="matrix(1.0448619,0,0,1.0448619,-1.0766858,-1.0730969)"
       style="stroke-width:0.876963">
      <path
         class="cls-6"
         d="m 15.12,41 6.06,-8.22 -2.45,5.4 c 0,0 1.68,-2.49 2.27,-3.66 0,0 -0.8,3 -0.91,3.53 0,0 1.25,-2 1.62,-2.53 0,0 -0.72,3.11 -0.8,3.42 A 1.45,1.45 0 0 1 22,39.4 14.09,14.09 0 0 1 23,37.9 v 1.5 l 3,-10 1.36,1.76 -4,14.2 -4.88,1.47 -4.28,-3"
         id="path4192"
         style="stroke-width:0.876963" />
    </g>
    <path
       class="cls-12"
       d="m 23.237251,30.387695 3.030099,0.67916 c -0.856787,3.322661 -2.821127,10.877013 -3.030099,11.493481 a 3.1345857,3.1345857 0 0 1 -2.789782,2.246453 3.6883625,3.6883625 0 0 1 -1.159796,-0.208972 3.5316332,3.5316332 0 0 1 -2.236005,-1.81806 2.6539492,2.6539492 0 0 1 0,-2.183761 c 0.208973,-0.45974 2.444977,-4.179448 6.13334,-10.135161 v 0 M 23.007381,30.04289 c 0,0 -5.934816,9.602281 -6.269171,10.448619 -0.76275,1.74492 0,3.667466 2.403182,4.492907 a 4.08541,4.08541 0 0 0 1.28518,0.229869 3.4584929,3.4584929 0 0 0 3.134586,-2.486771 c 0.271664,-0.720955 3.134586,-11.838285 3.134586,-11.838285 l -3.657017,-0.825441 z"
       id="path4196"
       style="stroke-width:0.916307" />
    <path
       class="cls-20"
       d="m 14.178298,22.310912 c 0,0 -1.504601,-0.626917 -2.277799,0.386599 a 2.3718365,2.3718365 0 0 0 -0.167178,2.089724 1.1493481,1.1493481 0 0 0 0.511982,0.616469 l 6.384107,3.824194 2.758435,-1.222488 z"
       id="path4198"
       style="fill:url(#linear-gradient-9);stroke-width:0.916307" />
    <polyline
       class="cls-6"
       points="12.45 23.93 14.24 25.2 16.04 27.11 12.45 24.87"
       id="polyline4200"
       transform="matrix(1.0448619,0,0,1.0448619,-1.0766858,-1.0730969)"
       style="stroke-width:0.876963" />
    <path
       class="cls-6"
       d="m 13.4051,24.546917 a 10.051571,10.051571 0 0 1 -1.149348,-0.710506 0.54332819,0.54332819 0 0 1 0.125383,-0.522431 l 1.462807,0.156729 -1.044862,-0.574674 a 0.877684,0.877684 0 0 1 0.637366,-0.438842 l 1.044862,0.250767 -0.929927,-0.585123 a 1.6508818,1.6508818 0 0 0 -1.107554,0.428394 2.5181172,2.5181172 0 0 0 -0.647814,1.755368 z"
       id="path4202"
       style="stroke-width:0.916307" />
    <path
       class="cls-12"
       d="m 13.175231,22.47809 a 2.9151647,2.9151647 0 0 1 0.814992,0.146281 l 6.697565,5.276553 -2.037481,0.909029 -6.216928,-3.677913 a 0.75230057,0.75230057 0 0 1 -0.344805,-0.417945 2.0061348,2.0061348 0 0 1 0.104486,-1.755368 1.1493481,1.1493481 0 0 1 0.982171,-0.438842 m 0,-0.365702 a 1.5150498,1.5150498 0 0 0 -1.274732,0.585123 2.3718365,2.3718365 0 0 0 -0.167178,2.089724 1.1493481,1.1493481 0 0 0 0.511982,0.616468 l 6.384107,3.7824 2.758435,-1.222488 -7.209547,-5.684049 a 2.8211271,2.8211271 0 0 0 -1.044862,-0.198524 z"
       id="path4204"
       style="stroke-width:0.916307" />
    <path
       class="cls-21"
       d="m 31.376725,29.123412 a 11.336752,11.336752 0 0 1 -3.918232,2.19421 c -2.361388,0.689609 -5.088478,0.794095 -6.937883,2.643501 a 8.47383,8.47383 0 0 1 1.985237,-2.894268 c -3.186829,1.619536 -6.666219,-1.295629 -7.596146,-4.346625 a 8.4947272,8.4947272 0 0 1 1.776265,-7.773773 4.4929062,4.4929062 0 0 0 0.564226,3.0301 2.4972199,2.4972199 0 0 0 2.695744,1.12845 6.6871162,6.6871162 0 0 1 -1.619536,-6.081096 12.057706,12.057706 0 0 1 3.207726,-5.642254 7.5334543,7.5334543 0 0 0 -0.438842,3.500287 c 0.05224,0.480637 0.365701,1.107554 0.835889,0.961273 a 0.86723538,0.86723538 0 0 0 0.407496,-0.365701 7.9827449,7.9827449 0 0 0 0.888133,-6.6139762 20.468845,20.468845 0 0 1 -1.044862,-2.4449769 7.2199957,7.2199957 0 0 1 0.470188,-3.7092597 4.9108509,4.9108509 0 0 0 2.089724,3.6047735 11.900977,11.900977 0 0 1 3.113688,3.0614454 6.5303869,6.5303869 0 0 1 0.658263,2.0165839 14.899731,14.899731 0 0 1 -0.334356,6.843845 3.949578,3.949578 0 0 0 1.922546,-2.936062 c 0.90903,1.8912 2.256902,4.419766 1.21204,6.499041 -0.156729,0.323907 -0.344804,0.752301 -0.08359,1.044862 a 0.70005747,0.70005747 0 0 0 0.783647,0 2.6017061,2.6017061 0 0 0 1.306077,-2.089724 6.3841062,6.3841062 0 0 1 0.08359,6.007956 8.4529328,8.4529328 0 0 1 -2.027032,2.361388 z"
       id="path4206"
       style="fill:url(#radial-gradient-2);stroke-width:0.916307" />
    <g
       class="cls-22"
       clip-path="url(#clip-path-7)"
       id="g4210"
       transform="matrix(1.0448619,0,0,1.0448619,-1.0766858,-1.0730969)"
       style="stroke-width:0.876963">
      <path
         class="cls-23"
         d="m 16.3,33.57 c 2.08,0.19 5.07,-1.84 6.32,-3.52 C 20.46,30.1 19.5,28.62 19,27 a 5.83,5.83 0 0 0 3.22,0.95 5.93,5.93 0 0 1 -0.35,-5.29 13.45,13.45 0 0 1 3.54,-5.3 c -1.5,2.57 0,6.17 1,7.82 0,-1.67 1.49,-2.93 2.82,-3.95 a 7.27,7.27 0 0 0 0,4.16 c 0.4,2.14 -0.83,4.08 -3.33,5.46 1.38,-0.64 4.9,-1.68 5.47,-3.09 a 7.42,7.42 0 0 1 -1.69,5.84 l -7,5 -4.79,-0.75"
         id="path4208"
         style="fill:url(#linear-gradient-10);stroke-width:0.876963" />
    </g>
    <ellipse
       class="cls-24"
       cx="-34.179249"
       cy="31.613852"
       rx="1.8494055"
       ry="2.3718364"
       transform="rotate(-72.58)"
       id="ellipse4212"
       style="fill:url(#linear-gradient-11);stroke-width:0.916307" />
    <path
       class="cls-25"
       d="m 23.247699,6.3036281 a 10.991947,10.991947 0 0 0 0.867236,0.8149923 c 0.229869,0.1985238 0.470187,0.3865989 0.720954,0.5851227 a 7.9513991,7.9513991 0 0 1 2.089724,2.0897238 5.7780863,5.7780863 0 0 1 0.553777,1.7135731 13.969804,13.969804 0 0 1 -0.271664,6.405004 1.0448619,1.0448619 0 0 0 1.044862,1.326974 1.0448619,1.0448619 0 0 0 0.532879,-0.135832 5.0884775,5.0884775 0 0 0 1.400115,-1.232937 4.4615603,4.4615603 0 0 1 0.219421,3.427147 1.8494056,1.8494056 0 0 0 0.135832,2.215108 1.4837039,1.4837039 0 0 0 1.044862,0.407496 2.0270321,2.0270321 0 0 0 0.98217,-0.282113 3.291315,3.291315 0 0 0 0.543329,-0.365702 5.2243095,5.2243095 0 0 1 -0.60602,2.946511 7.4916598,7.4916598 0 0 1 -1.765817,2.089724 10.041123,10.041123 0 0 1 -3.604774,1.96434 c -0.564225,0.167178 -1.159796,0.292561 -1.786713,0.438842 -0.626917,0.146281 -1.21204,0.261216 -1.828509,0.438842 a 1.0448619,1.0448619 0 0 0 -1.044862,-1.170245 0.97172157,0.97172157 0 0 0 -0.470187,0.114935 3.1345857,3.1345857 0 0 1 -1.431461,0.344804 c -2.089724,0 -4.08541,-2.089724 -4.680982,-4.064513 a 7.0841637,7.0841637 0 0 1 0.15673,-4.357074 4.5869437,4.5869437 0 0 0 0.282112,0.491085 3.7092597,3.7092597 0 0 0 3.009203,1.682228 3.1345857,3.1345857 0 0 0 0.877684,-0.125384 1.0448619,1.0448619 0 0 0 0.417944,-1.755368 5.6631515,5.6631515 0 0 1 -1.326974,-5.119823 8.693251,8.693251 0 0 1 0.731403,-2.089724 1.9016487,1.9016487 0 0 0 1.713574,1.734471 1.3060774,1.3060774 0 0 0 0.44929,-0.07314 1.8598542,1.8598542 0 0 0 0.961273,-0.773198 9.1007471,9.1007471 0 0 0 1.044862,-7.5648002 C 24.062692,8.0485475 23.905962,7.7141917 23.749233,7.3798359 A 7.021472,7.021472 0 0 1 23.268596,6.2200392 m -0.585122,-3.594325 z m 0,0 a 7.2199957,7.2199957 0 0 0 -0.470188,3.7092598 20.468845,20.468845 0 0 0 1.044862,2.4449768 7.9827449,7.9827449 0 0 1 -0.888133,6.6139762 0.86723538,0.86723538 0 0 1 -0.407496,0.365701 h -0.135832 c -0.386599,0 -0.658263,-0.543328 -0.700057,-0.98217 a 7.5334543,7.5334543 0 0 1 0.438842,-3.500287 12.057706,12.057706 0 0 0 -3.207726,5.642254 6.6871162,6.6871162 0 0 0 1.619535,6.081096 1.755368,1.755368 0 0 1 -0.564225,0.08359 2.6435006,2.6435006 0 0 1 -2.089724,-1.21204 4.4929062,4.4929062 0 0 1 -0.564225,-3.030099 8.4947272,8.4947272 0 0 0 -1.849406,7.878259 c 0.741852,2.444976 3.134586,4.806364 5.684049,4.806364 a 4.2839338,4.2839338 0 0 0 1.912097,-0.459739 8.47383,8.47383 0 0 0 -1.985237,2.894268 c 1.849405,-1.849406 4.576495,-1.953892 6.937883,-2.643501 a 11.336752,11.336752 0 0 0 3.918232,-2.19421 8.4529328,8.4529328 0 0 0 2.027032,-2.361388 6.3841062,6.3841062 0 0 0 -0.06269,-6.101993 2.6017061,2.6017061 0 0 1 -1.306077,2.089723 0.95082433,0.95082433 0 0 1 -0.47019,0.14628 0.42839338,0.42839338 0 0 1 -0.313459,-0.114935 c -0.261215,-0.250767 -0.07314,-0.67916 0.08359,-1.044862 1.044862,-2.089723 -0.30301,-4.607841 -1.170245,-6.499041 A 3.949578,3.949578 0 0 1 28.179448,18.235951 14.899731,14.899731 0 0 0 28.47201,11.350311 6.5303869,6.5303869 0 0 0 27.85554,9.3755221 11.900977,11.900977 0 0 0 24.783646,6.3558712 4.9108509,4.9108509 0 0 1 22.693922,2.7510977 Z m -1.149348,8.6723538 z m -4.84816,7.648389 z"
       id="path4214"
       style="stroke-width:0.916307" />
    <ellipse
       class="cls-26"
       cx="6.6405611"
       cy="52.997272"
       rx="2.0897238"
       ry="1.6090873"
       transform="rotate(-34.43)"
       id="ellipse4216"
       style="fill:url(#linear-gradient-12);stroke-width:0.916307" />
    <path
       class="cls-25"
       d="m 18.02339,13.659456 a 2.5912575,2.5912575 0 0 0 -1.535947,1.044862 c -0.553777,0.856787 0,1.504601 0.05224,1.818059 a 1.7135735,1.7135735 0 0 1 -0.07314,1.21204 1.7344708,1.7344708 0 0 0 0.658262,-1.504601 2.9987537,2.9987537 0 0 1 0.898582,-2.57036 z"
       id="path4218"
       style="stroke-width:0.916307" />
  </g>
</svg>
