<?xml version="1.0" encoding="UTF-8" standalone="no"?>
<!-- Created with Inkscape (http://www.inkscape.org/) -->
<svg
   xmlns:i="http://ns.adobe.com/AdobeIllustrator/10.0/"
   xmlns:a="http://ns.adobe.com/AdobeSVGViewerExtensions/3.0/"
   xmlns:dc="http://purl.org/dc/elements/1.1/"
   xmlns:cc="http://web.resource.org/cc/"
   xmlns:rdf="http://www.w3.org/1999/02/22-rdf-syntax-ns#"
   xmlns:svg="http://www.w3.org/2000/svg"
   xmlns="http://www.w3.org/2000/svg"
   xmlns:sodipodi="http://sodipodi.sourceforge.net/DTD/sodipodi-0.dtd"
   xmlns:inkscape="http://www.inkscape.org/namespaces/inkscape"
   width="48px"
   height="48px"
   id="svg52422"
   sodipodi:version="0.32"
   inkscape:version="0.45.1"
   sodipodi:docbase="C:\dev\src\houdini\support\icons\SHELF"
   sodipodi:docname="candle.svg"
   inkscape:output_extension="org.inkscape.output.svg.inkscape">
  <defs
     id="defs52424">
    <radialGradient
       gradientUnits="userSpaceOnUse"
       fy="8.8135004"
       fx="26.396999"
       r="17.803801"
       cy="8.8135004"
       cx="26.396999"
       id="XMLID_1685_"
       gradientTransform="matrix(1.0186438,0,0,1.0187441,-3.7061256,8.6363132)">
						<stop
   id="stop21729"
   style="stop-color:#FFFDE6"
   offset="0.0056" />

						<stop
   id="stop21731"
   style="stop-color:#FAF8E3"
   offset="0.0914" />

						<stop
   id="stop21733"
   style="stop-color:#EAEAD9"
   offset="0.2003" />

						<stop
   id="stop21735"
   style="stop-color:#D0D3C9"
   offset="0.3215" />

						<stop
   id="stop21737"
   style="stop-color:#ACB3B3"
   offset="0.4507" />

						<stop
   id="stop21739"
   style="stop-color:#818C99"
   offset="0.5787" />

						<stop
   id="stop21741"
   style="stop-color:#98A5B3"
   offset="0.809" />

						<stop
   id="stop21743"
   style="stop-color:#E6EBF2"
   offset="1" />

						<a:midPointStop
   style="stop-color:#FFFDE6"
   offset="0.0056" />

						<a:midPointStop
   style="stop-color:#FFFDE6"
   offset="0.657" />

						<a:midPointStop
   style="stop-color:#818C99"
   offset="0.5787" />

						<a:midPointStop
   style="stop-color:#818C99"
   offset="0.5" />

						<a:midPointStop
   style="stop-color:#98A5B3"
   offset="0.809" />

						<a:midPointStop
   style="stop-color:#98A5B3"
   offset="0.5" />

						<a:midPointStop
   style="stop-color:#E6EBF2"
   offset="1" />

					</radialGradient>
    <linearGradient
       y2="13.6659"
       x2="37.844501"
       y1="20.788601"
       x1="42.9888"
       gradientUnits="userSpaceOnUse"
       id="XMLID_1686_"
       gradientTransform="matrix(1.0186438,0,0,1.0187441,-3.7061256,8.6363132)">
						<stop
   id="stop21748"
   style="stop-color:#7C838C"
   offset="0.0056" />

						<stop
   id="stop21750"
   style="stop-color:#E6EBF2"
   offset="1" />

						<a:midPointStop
   style="stop-color:#7C838C"
   offset="0.0056" />

						<a:midPointStop
   style="stop-color:#7C838C"
   offset="0.5" />

						<a:midPointStop
   style="stop-color:#E6EBF2"
   offset="1" />

					</linearGradient>
    <radialGradient
       gradientUnits="userSpaceOnUse"
       fy="31.0767"
       fx="26.862301"
       r="23.088301"
       cy="31.0767"
       cx="26.862301"
       id="XMLID_1687_"
       gradientTransform="matrix(1.0186438,0,0,1.0187441,-3.7061256,8.6363132)">
						<stop
   id="stop21757"
   style="stop-color:#CBCCB2"
   offset="0" />

						<stop
   id="stop21759"
   style="stop-color:#EBE18D"
   offset="0.419" />

						<stop
   id="stop21761"
   style="stop-color:#9FA9B3"
   offset="1" />

						<a:midPointStop
   style="stop-color:#CBCCB2"
   offset="0" />

						<a:midPointStop
   style="stop-color:#CBCCB2"
   offset="0.5" />

						<a:midPointStop
   style="stop-color:#EBE18D"
   offset="0.419" />

						<a:midPointStop
   style="stop-color:#EBE18D"
   offset="0.5" />

						<a:midPointStop
   style="stop-color:#9FA9B3"
   offset="1" />

					</radialGradient>
    <radialGradient
       gradientUnits="userSpaceOnUse"
       fy="35.6357"
       fx="29.623501"
       r="23.465"
       cy="35.6357"
       cx="29.623501"
       id="XMLID_1688_"
       gradientTransform="matrix(1.0186438,0,0,1.0187441,-3.7061256,8.6363132)">
						<stop
   id="stop21766"
   style="stop-color:#FFF8BF"
   offset="0.0056" />

						<stop
   id="stop21768"
   style="stop-color:#FCF7C4"
   offset="0.1366" />

						<stop
   id="stop21770"
   style="stop-color:#F5F3D4"
   offset="0.3025" />

						<stop
   id="stop21772"
   style="stop-color:#E8ECEE"
   offset="0.4867" />

						<stop
   id="stop21774"
   style="stop-color:#E6EBF2"
   offset="0.5112" />

						<stop
   id="stop21776"
   style="stop-color:#EBE18D"
   offset="0.7528" />

						<stop
   id="stop21778"
   style="stop-color:#C5C6AD"
   offset="0.8933" />

						<a:midPointStop
   style="stop-color:#FFF8BF"
   offset="0.0056" />

						<a:midPointStop
   style="stop-color:#FFF8BF"
   offset="0.657" />

						<a:midPointStop
   style="stop-color:#E6EBF2"
   offset="0.5112" />

						<a:midPointStop
   style="stop-color:#E6EBF2"
   offset="0.5" />

						<a:midPointStop
   style="stop-color:#EBE18D"
   offset="0.7528" />

						<a:midPointStop
   style="stop-color:#EBE18D"
   offset="0.5" />

						<a:midPointStop
   style="stop-color:#C5C6AD"
   offset="0.8933" />

					</radialGradient>
    <linearGradient
       y2="30.186899"
       x2="46.387501"
       y1="33.515598"
       x1="10.6875"
       gradientUnits="userSpaceOnUse"
       id="XMLID_1689_"
       gradientTransform="matrix(1.0186438,0,0,1.0187441,-3.7061256,8.6363132)">
						<stop
   id="stop21783"
   style="stop-color:#8893A0"
   offset="0" />

						<stop
   id="stop21785"
   style="stop-color:#DBE7F2"
   offset="0.2135" />

						<stop
   id="stop21787"
   style="stop-color:#D6E2ED"
   offset="0.2963" />

						<stop
   id="stop21789"
   style="stop-color:#C6D2DD"
   offset="0.4013" />

						<stop
   id="stop21791"
   style="stop-color:#ACB8C4"
   offset="0.5182" />

						<stop
   id="stop21793"
   style="stop-color:#8994A1"
   offset="0.643" />

						<stop
   id="stop21795"
   style="stop-color:#8893A0"
   offset="0.6461" />

						<stop
   id="stop21797"
   style="stop-color:#8893A0"
   offset="0.8034" />

						<stop
   id="stop21799"
   style="stop-color:#ACB4BF"
   offset="1" />

						<a:midPointStop
   style="stop-color:#8893A0"
   offset="0" />

						<a:midPointStop
   style="stop-color:#8893A0"
   offset="0.5" />

						<a:midPointStop
   style="stop-color:#DBE7F2"
   offset="0.2135" />

						<a:midPointStop
   style="stop-color:#DBE7F2"
   offset="0.657" />

						<a:midPointStop
   style="stop-color:#8893A0"
   offset="0.6461" />

						<a:midPointStop
   style="stop-color:#8893A0"
   offset="0.5" />

						<a:midPointStop
   style="stop-color:#8893A0"
   offset="0.8034" />

						<a:midPointStop
   style="stop-color:#8893A0"
   offset="0.5" />

						<a:midPointStop
   style="stop-color:#ACB4BF"
   offset="1" />

					</linearGradient>
    <linearGradient
       y2="24.568399"
       x2="49.483398"
       y1="24.568399"
       x1="4.9833999"
       gradientUnits="userSpaceOnUse"
       id="XMLID_1690_"
       gradientTransform="matrix(1.0186438,0,0,1.0187441,-3.7061256,8.6363132)">
						<stop
   id="stop21804"
   style="stop-color:#6C7580"
   offset="0" />

						<stop
   id="stop21806"
   style="stop-color:#ADB6BF"
   offset="0.2135" />

						<stop
   id="stop21808"
   style="stop-color:#A8B1BA"
   offset="0.34" />

						<stop
   id="stop21810"
   style="stop-color:#98A1AB"
   offset="0.5003" />

						<stop
   id="stop21812"
   style="stop-color:#7E8893"
   offset="0.6782" />

						<stop
   id="stop21814"
   style="stop-color:#77818C"
   offset="0.7191" />

						<stop
   id="stop21816"
   style="stop-color:#77818C"
   offset="0.8034" />

						<stop
   id="stop21818"
   style="stop-color:#ACB4BF"
   offset="1" />

						<a:midPointStop
   style="stop-color:#6C7580"
   offset="0" />

						<a:midPointStop
   style="stop-color:#6C7580"
   offset="0.5" />

						<a:midPointStop
   style="stop-color:#ADB6BF"
   offset="0.2135" />

						<a:midPointStop
   style="stop-color:#ADB6BF"
   offset="0.657" />

						<a:midPointStop
   style="stop-color:#77818C"
   offset="0.7191" />

						<a:midPointStop
   style="stop-color:#77818C"
   offset="0.5" />

						<a:midPointStop
   style="stop-color:#77818C"
   offset="0.8034" />

						<a:midPointStop
   style="stop-color:#77818C"
   offset="0.5" />

						<a:midPointStop
   style="stop-color:#ACB4BF"
   offset="1" />

					</linearGradient>
    <linearGradient
       y2="10.4075"
       x2="47.485802"
       y1="26.398899"
       x1="7.3755002"
       gradientUnits="userSpaceOnUse"
       id="XMLID_1691_">
							<stop
   id="stop21831"
   style="stop-color:#6C7580"
   offset="0" />

							<stop
   id="stop21833"
   style="stop-color:#FFFFFF"
   offset="0.2135" />

							<stop
   id="stop21835"
   style="stop-color:#FAFAFA"
   offset="0.2858" />

							<stop
   id="stop21837"
   style="stop-color:#EAEBED"
   offset="0.3775" />

							<stop
   id="stop21839"
   style="stop-color:#D0D3D7"
   offset="0.4797" />

							<stop
   id="stop21841"
   style="stop-color:#ACB2B8"
   offset="0.5894" />

							<stop
   id="stop21843"
   style="stop-color:#7E8792"
   offset="0.7041" />

							<stop
   id="stop21845"
   style="stop-color:#77818C"
   offset="0.7191" />

							<stop
   id="stop21847"
   style="stop-color:#77818C"
   offset="0.8034" />

							<stop
   id="stop21849"
   style="stop-color:#C4CCD9"
   offset="1" />

							<a:midPointStop
   style="stop-color:#6C7580"
   offset="0" />

							<a:midPointStop
   style="stop-color:#6C7580"
   offset="0.5" />

							<a:midPointStop
   style="stop-color:#FFFFFF"
   offset="0.2135" />

							<a:midPointStop
   style="stop-color:#FFFFFF"
   offset="0.657" />

							<a:midPointStop
   style="stop-color:#77818C"
   offset="0.7191" />

							<a:midPointStop
   style="stop-color:#77818C"
   offset="0.5" />

							<a:midPointStop
   style="stop-color:#77818C"
   offset="0.8034" />

							<a:midPointStop
   style="stop-color:#77818C"
   offset="0.5" />

							<a:midPointStop
   style="stop-color:#C4CCD9"
   offset="1" />

						</linearGradient>
    <radialGradient
       gradientUnits="userSpaceOnUse"
       gradientTransform="matrix(1,0,0,1.1953,0,-1342.6584)"
       fy="1132.4912"
       fx="26.0273"
       r="9.2089996"
       cy="1132.4912"
       cx="26.0273"
       id="XMLID_1692_">
						<stop
   id="stop21854"
   style="stop-color:#F6E94E"
   offset="0.0899" />

						<stop
   id="stop21856"
   style="stop-color:#FFFFFF"
   offset="1" />

						<a:midPointStop
   style="stop-color:#F6E94E"
   offset="0.0899" />

						<a:midPointStop
   style="stop-color:#F6E94E"
   offset="0.5" />

						<a:midPointStop
   style="stop-color:#FFFFFF"
   offset="1" />

					</radialGradient>
    <radialGradient
       gradientUnits="userSpaceOnUse"
       fy="20.4688"
       fx="25.813499"
       r="14.6504"
       cy="20.4688"
       cx="25.813499"
       id="XMLID_1693_"
       gradientTransform="matrix(1.2927815,0,0,1.2904079,-10.841109,2.2172662)">
						<stop
   id="stop21863"
   style="stop-color:#CCAC7B"
   offset="0.1011" />

						<stop
   id="stop21865"
   style="stop-color:#BFB560"
   offset="0.3427" />

						<stop
   id="stop21867"
   style="stop-color:#FFF499"
   offset="0.6011" />

						<stop
   id="stop21869"
   style="stop-color:#FFF5A4"
   offset="0.6341" />

						<stop
   id="stop21871"
   style="stop-color:#FFF8C3"
   offset="0.6927" />

						<stop
   id="stop21873"
   style="stop-color:#FFFEF3"
   offset="0.7696" />

						<stop
   id="stop21875"
   style="stop-color:#FFFFFF"
   offset="0.7865" />

						<a:midPointStop
   style="stop-color:#CCAC7B"
   offset="0.1011" />

						<a:midPointStop
   style="stop-color:#CCAC7B"
   offset="0.5" />

						<a:midPointStop
   style="stop-color:#BFB560"
   offset="0.3427" />

						<a:midPointStop
   style="stop-color:#BFB560"
   offset="0.5" />

						<a:midPointStop
   style="stop-color:#FFF499"
   offset="0.6011" />

						<a:midPointStop
   style="stop-color:#FFF499"
   offset="0.58" />

						<a:midPointStop
   style="stop-color:#FFFFFF"
   offset="0.7865" />

					</radialGradient>
    <radialGradient
       gradientUnits="userSpaceOnUse"
       fy="15.6392"
       fx="25.8906"
       r="5.9120998"
       cy="15.6392"
       cx="25.8906"
       id="XMLID_1694_"
       gradientTransform="matrix(1.2927815,0,0,1.2904079,-10.841109,2.2172662)">
						<stop
   id="stop21880"
   style="stop-color:#99815C"
   offset="0" />

						<stop
   id="stop21882"
   style="stop-color:#6C3700"
   offset="0.4157" />

						<stop
   id="stop21884"
   style="stop-color:#6C3700"
   offset="0.5618" />

						<stop
   id="stop21886"
   style="stop-color:#BFB560"
   offset="0.7191" />

						<stop
   id="stop21888"
   style="stop-color:#FFF499"
   offset="0.8596" />

						<stop
   id="stop21890"
   style="stop-color:#FFF5A4"
   offset="0.8845" />

						<stop
   id="stop21892"
   style="stop-color:#FFF8C3"
   offset="0.9289" />

						<stop
   id="stop21894"
   style="stop-color:#FFFEF3"
   offset="0.9872" />

						<stop
   id="stop21896"
   style="stop-color:#FFFFFF"
   offset="1" />

						<a:midPointStop
   style="stop-color:#99815C"
   offset="0" />

						<a:midPointStop
   style="stop-color:#99815C"
   offset="0.5" />

						<a:midPointStop
   style="stop-color:#6C3700"
   offset="0.4157" />

						<a:midPointStop
   style="stop-color:#6C3700"
   offset="0.5" />

						<a:midPointStop
   style="stop-color:#6C3700"
   offset="0.5618" />

						<a:midPointStop
   style="stop-color:#6C3700"
   offset="0.5" />

						<a:midPointStop
   style="stop-color:#BFB560"
   offset="0.7191" />

						<a:midPointStop
   style="stop-color:#BFB560"
   offset="0.5" />

						<a:midPointStop
   style="stop-color:#FFF499"
   offset="0.8596" />

						<a:midPointStop
   style="stop-color:#FFF499"
   offset="0.58" />

						<a:midPointStop
   style="stop-color:#FFFFFF"
   offset="1" />

					</radialGradient>
  </defs>
  <sodipodi:namedview
     id="base"
     pagecolor="#ffffff"
     bordercolor="#666666"
     borderopacity="1.0"
     inkscape:pageopacity="0.0"
     inkscape:pageshadow="2"
     inkscape:zoom="7"
     inkscape:cx="24"
     inkscape:cy="24"
     inkscape:current-layer="layer1"
     showgrid="true"
     inkscape:grid-bbox="true"
     inkscape:document-units="px"
     inkscape:window-width="744"
     inkscape:window-height="573"
     inkscape:window-x="400"
     inkscape:window-y="206" />
  <metadata
     id="metadata52427">
    <rdf:RDF>
      <cc:Work
         rdf:about="">
        <dc:format>image/svg+xml</dc:format>
        <dc:type
           rdf:resource="http://purl.org/dc/dcmitype/StillImage" />
      </cc:Work>
    </rdf:RDF>
  </metadata>
  <g
     id="layer1"
     inkscape:label="Layer 1"
     inkscape:groupmode="layer">
    <path
       style="fill:none;stroke:#6c7580;stroke-width:1.5"
       id="path21724"
       d="M 47.196524,25.987563 L 47.202635,25.310098 C 47.303481,19.470657 36.651523,15.237775 24.241385,16.069071 C 11.152831,16.941116 0.74942233,22.686832 0.75349691,28.526273 C 0.75349691,28.900153 0.79729859,29.772197 0.87879009,30.138945 L 1.7212085,32.27627 L 1.7232458,32.286458 C 2.2101576,34.30459 3.7768317,36.167873 6.1197125,37.674595 L 6.1237871,37.675614 L 6.9600936,40.428261 C 8.2965543,44.681517 15.974072,47.925199 25.043058,47.124466 C 34.583676,46.281964 42.636055,41.684372 43.328733,37.023618 L 43.326696,37.036862 L 43.953162,33.341877 L 43.952143,33.344933 C 45.504556,31.742449 46.454951,30.015677 46.614878,28.286869 L 47.196524,25.987563 z "
       i:knockout="Off" />
    <path
       style="fill:none;stroke:#6c7580;stroke-width:1.5"
       id="path21726"
       d="M 46.702481,25.809283 C 46.804346,19.969842 36.650504,15.73696 24.240367,16.568255 C 11.152831,17.4403 1.2495765,23.186017 1.2526324,29.025458"
       i:knockout="Off" />
    <path
       style="fill:url(#XMLID_1685_)"
       id="path21745"
       d="M 20.168847,20.210265 C 21.477805,19.97901 22.844825,19.803786 24.264814,19.707005 C 25.186687,19.645881 26.09328,19.620412 26.9795,19.628562 C 35.971069,19.630599 41.052064,25.151173 40.977703,29.410542 C 40.978722,29.698847 42.535209,28.110625 42.474091,28.397911 C 43.166768,27.706184 43.597655,26.204555 43.595617,25.329454 C 43.684239,20.423182 34.898437,16.86369 24.159894,17.556436 C 12.836649,18.282801 4.2718926,23.104517 4.2769858,28.009769 C 4.2790231,29.431936 5.0338382,30.782791 6.3580751,31.961478 C 5.8752379,31.218813 5.6154838,30.429287 5.6154838,29.614291 C 5.6103905,25.609608 11.637706,21.66605 20.168847,20.210265 z "
       i:knockout="Off" />
    <path
       style="fill:url(#XMLID_1686_)"
       id="path21752"
       d="M 26.978481,19.628562 C 35.368032,19.70293 41.832345,22.791762 41.759003,26.910545 C 41.76104,28.250193 41.056138,29.601048 39.819505,30.858178 C 39.807281,30.89689 39.795057,30.935602 39.781815,30.973296 C 41.104015,30.021789 42.129789,28.996932 42.781721,27.938457 C 42.843858,27.651171 42.876455,27.362867 42.874418,27.074562 C 42.948779,22.816212 35.97005,19.630599 26.978481,19.628562 z "
       a:adobe-blending-mode="multiply"
       i:knockout="Off" />
    <path
       style="fill:#babdb6"
       id="path21754"
       d="M 6.3580751,29.414617 C 6.3540005,25.496528 12.074704,21.6416 20.168847,20.210265 C 11.638724,21.66605 5.6114092,25.609608 5.6165024,29.613273 C 5.6165024,30.428268 5.8762566,31.217794 6.3590937,31.960459 C 7.0864054,32.609399 7.9868865,33.205364 9.0299778,33.734092 C 7.342085,32.498356 6.3590937,31.004877 6.3580751,29.414617 z "
       i:knockout="Off" />
    <path
       style="fill:url(#XMLID_1687_)"
       id="path21763"
       d="M 9.0747981,32.027696 C 9.0717422,28.050519 15.807015,24.142617 24.709962,23.548689 C 33.151463,22.985324 40.057868,25.862257 39.9886,29.838415 C 39.9886,30.178675 39.919332,30.519955 39.819505,30.859197 C 41.056138,29.602066 41.76104,28.251212 41.759003,26.911563 C 41.832345,22.792781 35.36905,19.703949 26.978481,19.629581 C 26.152361,19.629581 25.31198,19.655049 24.456319,19.708024 C 22.971137,19.804805 21.540961,19.976972 20.167829,20.211283 C 12.074704,21.642619 6.3529819,25.497546 6.3570565,29.415636 C 6.3580751,31.005896 7.3410664,32.498356 9.0279405,33.735111 C 9.2520421,33.847173 9.4832743,33.958216 9.7206183,34.065184 C 9.3070489,33.4193 9.0747981,32.734704 9.0747981,32.027696 z "
       i:knockout="Off" />
    <path
       style="fill:url(#XMLID_1688_)"
       id="path21780"
       d="M 24.709962,23.548689 C 15.808033,24.142617 9.0717422,28.050519 9.0747981,32.027696 C 9.0747981,32.734704 9.3080675,33.4193 9.7216369,34.065184 C 13.315412,35.689062 18.37196,36.561107 23.916438,36.11286 C 30.19434,35.603488 35.870223,33.673986 39.495576,31.177045 C 39.606608,31.071095 39.713566,30.966165 39.819505,30.858178 C 39.919332,30.518936 39.9886,30.177657 39.9886,29.837396 C 40.057868,25.862257 33.151463,22.985324 24.709962,23.548689 z "
       i:knockout="Off" />
    <path
       style="fill:url(#XMLID_1689_)"
       id="path21801"
       d="M 43.95418,33.341876 L 43.327714,37.036861 L 43.329751,37.023617 C 42.637074,41.684371 34.584694,46.281963 25.044077,47.124464 C 15.975091,47.925197 8.2975729,44.681516 6.9611122,40.42826 L 6.123787,37.675613 C 10.231977,40.317217 16.724813,41.870801 23.956165,41.272798 C 32.499531,40.567828 40.094539,37.331278 43.95418,33.344932"
       i:knockout="Off" />
    <path
       style="fill:url(#XMLID_1690_)"
       id="path21820"
       d="M 46.696369,25.987562 L 46.615896,28.290943 L 46.615896,28.286868 C 46.050549,34.31987 35.933379,40.283598 23.956165,41.272798 C 12.595231,42.213099 3.0586878,37.841668 1.7232458,32.286457 L 1.7212085,32.27627 L 1.3809815,30.151169 L 1.3697764,30.106345 C 2.5503846,35.445582 12.32529,39.633639 23.94496,38.65972 C 36.252214,37.624676 46.563945,31.733279 46.699425,25.929494 L 46.696369,25.987562 z "
       i:knockout="Off" />
    <path
       style="fill:none;stroke:#efeeec;stroke-width:0.5"
       id="path21822"
       d="M 43.594599,25.329454 C 43.603767,30.234707 34.636645,35.241835 23.916438,36.112861 C 13.195212,36.980831 4.2841163,32.912986 4.2769858,28.00977 C 4.2718926,23.104517 12.836649,18.282802 24.157857,17.556437 C 34.8964,16.863691 43.682202,20.422164 43.594599,25.329454 z "
       i:knockout="Off" />
    <g
       transform="matrix(1.0186438,0,0,1.0187441,-3.7061256,8.6363132)"
       id="g21824"
       i:knockout="Off">
						<path
   style="fill:none;stroke:#e6edf2;stroke-width:0.9816491"
   id="path21826"
   d="M 27.436,7.786 C 14.587,8.642 4.865,14.282 4.868,20.014 C 4.871,25.746 14.979,30.491 27.145,29.471 C 39.31,28.45 49.491,22.592 49.486,16.858 C 49.586,11.125 39.618,6.971 27.436,7.786 z "
   i:knockout="Off" />

					</g>
    <g
       transform="matrix(1.0186438,0,0,1.0187441,-3.7061256,8.6363132)"
       id="g21828">
						<linearGradient
   y2="10.4075"
   x2="47.485802"
   y1="26.398899"
   x1="7.3755002"
   gradientUnits="userSpaceOnUse"
   id="linearGradient52518">
							<stop
   id="stop52520"
   style="stop-color:#6C7580"
   offset="0" />

							<stop
   id="stop52522"
   style="stop-color:#FFFFFF"
   offset="0.2135" />

							<stop
   id="stop52524"
   style="stop-color:#FAFAFA"
   offset="0.2858" />

							<stop
   id="stop52526"
   style="stop-color:#EAEBED"
   offset="0.3775" />

							<stop
   id="stop52528"
   style="stop-color:#D0D3D7"
   offset="0.4797" />

							<stop
   id="stop52530"
   style="stop-color:#ACB2B8"
   offset="0.5894" />

							<stop
   id="stop52532"
   style="stop-color:#7E8792"
   offset="0.7041" />

							<stop
   id="stop52534"
   style="stop-color:#77818C"
   offset="0.7191" />

							<stop
   id="stop52536"
   style="stop-color:#77818C"
   offset="0.8034" />

							<stop
   id="stop52538"
   style="stop-color:#C4CCD9"
   offset="1" />

							<a:midPointStop
   style="stop-color:#6C7580"
   offset="0" />

							<a:midPointStop
   style="stop-color:#6C7580"
   offset="0.5" />

							<a:midPointStop
   style="stop-color:#FFFFFF"
   offset="0.2135" />

							<a:midPointStop
   style="stop-color:#FFFFFF"
   offset="0.657" />

							<a:midPointStop
   style="stop-color:#77818C"
   offset="0.7191" />

							<a:midPointStop
   style="stop-color:#77818C"
   offset="0.5" />

							<a:midPointStop
   style="stop-color:#77818C"
   offset="0.8034" />

							<a:midPointStop
   style="stop-color:#77818C"
   offset="0.5" />

							<a:midPointStop
   style="stop-color:#C4CCD9"
   offset="1" />

						</linearGradient>

						<path
   style="fill:url(#XMLID_1691_)"
   id="path21851"
   d="M 27.436,7.786 C 14.587,8.642 4.865,14.282 4.868,20.014 C 4.871,25.746 14.979,30.491 27.145,29.471 C 39.31,28.45 49.491,22.592 49.486,16.858 C 49.586,11.125 39.618,6.971 27.436,7.786 z M 27.116,26.971 C 16.592,27.823 7.844,23.83 7.837,19.017 C 7.832,14.202 16.24,9.469 27.354,8.756 C 37.896,8.076 46.521,11.569 46.434,16.386 C 46.443,21.201 37.641,26.116 27.116,26.971 z "
   i:knockout="Off" />

					</g>
    <ellipse
       transform="matrix(1.2927815,0,0,1.2904079,-10.841109,2.2172662)"
       sodipodi:ry="11.008"
       sodipodi:rx="9.2089996"
       sodipodi:cy="11.008"
       sodipodi:cx="26.027"
       style="opacity:0.8;fill:url(#XMLID_1692_)"
       id="ellipse21858"
       ry="11.008"
       rx="9.2089996"
       cy="11.008"
       cx="26.027"
       a:adobe-blending-mode="darken"
       i:knockout="Off" />
    <path
       style="opacity:0.5;fill:none;stroke:#ffffff;stroke-width:1"
       id="path21860"
       d="M 19.470739,18.735779 C 19.470739,23.773531 20.371808,29.657791 22.912124,29.657791 C 24.056236,29.657791 24.945669,28.504167 25.554569,26.230468 C 26.070389,24.302598 26.354802,21.640487 26.354802,18.735779 C 26.354802,12.845066 24.316084,9.0848176 22.912124,9.0848176 C 21.509456,9.0835266 19.470739,12.843776 19.470739,18.735779 z "
       i:knockout="Off" />
    <path
       style="fill:url(#XMLID_1693_)"
       id="path21877"
       d="M 22.912124,29.012587 C 24.564299,29.012587 25.708411,24.573583 25.708411,18.735778 C 25.708411,12.900554 23.673572,9.7300206 22.912124,9.7300206 C 22.149383,9.7300206 20.11713,12.900554 20.11713,18.735778 C 20.11713,24.572294 21.258657,29.012587 22.912124,29.012587 z "
       i:knockout="Off" />
    <path
       style="fill:url(#XMLID_1694_)"
       id="path21898"
       d="M 22.806116,22.50635 C 23.037523,22.545063 23.241783,23.710301 23.164217,24.191623 C 22.923759,25.716885 23.633496,28.492552 23.474484,30.028138 C 23.429237,30.44623 22.685887,30.482361 22.639347,30.028138 C 22.639347,30.028138 22.52946,29.265507 22.52946,28.630626 C 22.52946,27.995746 22.210143,25.463965 22.276075,24.191623 C 22.308395,23.558033 22.573415,22.466347 22.806116,22.50635 z "
       i:knockout="Off" />
  </g>
</svg>
