<?xml version="1.0" encoding="UTF-8" standalone="no"?>
<!-- Generator: Adobe Illustrator 15.0.0, SVG Export Plug-In . SVG Version: 6.00 Build 0)  -->
<svg
   xmlns:i="http://ns.adobe.com/AdobeIllustrator/10.0/"
   xmlns:dc="http://purl.org/dc/elements/1.1/"
   xmlns:cc="http://creativecommons.org/ns#"
   xmlns:rdf="http://www.w3.org/1999/02/22-rdf-syntax-ns#"
   xmlns:svg="http://www.w3.org/2000/svg"
   xmlns="http://www.w3.org/2000/svg"
   xmlns:xlink="http://www.w3.org/1999/xlink"
   xmlns:sodipodi="http://sodipodi.sourceforge.net/DTD/sodipodi-0.dtd"
   xmlns:inkscape="http://www.inkscape.org/namespaces/inkscape"
   version="1.0"
   id="Layer_1"
   x="0px"
   y="0px"
   width="48"
   height="48"
   viewBox="0 0 612 792"
   enable-background="new 0 0 612 792"
   xml:space="preserve"
   sodipodi:version="0.32"
   inkscape:version="0.46"
   sodipodi:docname="Clouds.svg"
   inkscape:output_extension="org.inkscape.output.svg.inkscape"><metadata
   id="metadata7966"><rdf:RDF><cc:Work
       rdf:about=""><dc:format>image/svg+xml</dc:format><dc:type
         rdf:resource="http://purl.org/dc/dcmitype/StillImage" /></cc:Work></rdf:RDF></metadata><defs
   id="defs7964"><inkscape:perspective
   sodipodi:type="inkscape:persp3d"
   inkscape:vp_x="0 : 396 : 1"
   inkscape:vp_y="0 : 1000 : 0"
   inkscape:vp_z="612 : 396 : 1"
   inkscape:persp3d-origin="306 : 264 : 1"
   id="perspective7968" />
	
	
<linearGradient
   inkscape:collect="always"
   xlink:href="#SVGID_1_"
   id="linearGradient7999"
   gradientUnits="userSpaceOnUse"
   x1="242.2944"
   y1="305.30029"
   x2="275.03879"
   y2="335.08359" /><radialGradient
   inkscape:collect="always"
   xlink:href="#SVGID_2_"
   id="radialGradient8001"
   gradientUnits="userSpaceOnUse"
   gradientTransform="matrix(1,0,0,1.0258,0,-11.0907)"
   cx="254.30569"
   cy="323.27539"
   r="42.030102" /><radialGradient
   inkscape:collect="always"
   xlink:href="#SVGID_3_"
   id="radialGradient8003"
   gradientUnits="userSpaceOnUse"
   gradientTransform="matrix(1,0,0,1.0258,0,-11.0907)"
   cx="260.76459"
   cy="324.56689"
   r="38.936199" /><linearGradient
   inkscape:collect="always"
   xlink:href="#SVGID_4_"
   id="linearGradient8005"
   gradientUnits="userSpaceOnUse"
   x1="244.0146"
   y1="320.42191"
   x2="278.47409"
   y2="320.42191" /><radialGradient
   inkscape:collect="always"
   xlink:href="#SVGID_5_"
   id="radialGradient8007"
   gradientUnits="userSpaceOnUse"
   gradientTransform="matrix(1,0,0,0.2052,0,262.6756)"
   cx="263.12891"
   cy="333.6011"
   r="28.9751" /><radialGradient
   inkscape:collect="always"
   xlink:href="#SVGID_6_"
   id="radialGradient8009"
   gradientUnits="userSpaceOnUse"
   gradientTransform="matrix(1,0,0,1.0258,0,-11.0907)"
   cx="258.09521"
   cy="329.4761"
   r="24.587799" /></defs><sodipodi:namedview
   inkscape:window-height="1538"
   inkscape:window-width="2560"
   inkscape:pageshadow="2"
   inkscape:pageopacity="0.0"
   guidetolerance="10.0"
   gridtolerance="10.0"
   objecttolerance="10.0"
   borderopacity="1.0"
   bordercolor="#666666"
   pagecolor="#ffffff"
   id="base"
   showgrid="false"
   inkscape:zoom="18.666667"
   inkscape:cx="23.788373"
   inkscape:cy="21.26393"
   inkscape:window-x="0"
   inkscape:window-y="24"
   inkscape:current-layer="Layer_1" />
<g
   id="g7913"
   i:extraneous="self"
   transform="matrix(16.892347,0,0,16.892347,-4053.9188,-4902.1434)">
		<path
   style="fill:none;stroke:#007ea6;stroke-miterlimit:10"
   id="path7915"
   d="M 271.184,333.297 C 270.261,333.297 269.187,333.28 267.928,333.241 C 267.77,333.236 267.581,333.186 267.206,333.088 C 266.552,332.915 265.46,332.626 263.758,332.371 C 262.241,332.283 260.898,332.236 259.818,332.236 C 257.464,332.236 256.754,332.455 256.234,332.616 C 255.879,332.725 255.545,332.828 254.943,332.828 C 254.578,332.828 254.13,332.791 253.538,332.711 C 251.262,332.399 249.784,332.375 247.946,332.375 L 243.077,332.377 C 243.077,332.377 243.146,331.642 243.154,331.579 L 235.31,331.579 L 235.365,330.891 C 235.368,330.851 235.445,329.887 235.752,328.743 C 236.445,326.175 237.621,324.874 239.247,324.874 C 239.617,324.874 240.01,324.947 240.41,325.087 C 240.759,325.211 241.051,325.274 241.279,325.274 C 241.419,325.274 241.527,325.25 241.596,325.205 C 241.567,325.184 241.502,324.876 241.46,324.672 C 241.33,324.037 241.148,323.168 241.773,322.491 C 241.897,322.28 242.011,322.199 242.158,322.097 C 242.73,321.7 243.292,321.177 243.144,320.319 C 243.095,320.041 243.024,319.753 242.949,319.456 C 242.865,319.117 242.78,318.77 242.718,318.418 C 242.562,317.521 241.973,316.439 241.405,315.392 C 240.346,313.444 239.253,311.429 240.488,309.906 C 240.739,309.596 240.993,309.131 241.262,308.637 C 241.948,307.377 242.799,305.809 244.319,305.778 C 244.321,305.778 244.324,305.778 244.327,305.778 C 244.759,305.778 245.233,305.819 245.657,305.964 C 245.62,305.748 245.579,305.526 245.544,305.329 C 245.181,303.367 244.944,301.8 245.452,300.952 C 245.913,300.182 248.128,298.903 249.671,298.903 C 250.127,298.903 250.523,299.005 250.848,299.207 C 250.917,299.104 251.001,298.958 251.069,298.841 C 251.496,298.101 252.209,296.863 253.529,296.863 C 254.097,296.863 254.705,297.104 255.333,297.581 C 256.191,298.231 256.648,298.37 256.879,298.37 C 257.221,298.37 257.439,297.932 257.818,297.007 C 258.375,295.653 259.214,293.605 261.97,293.605 C 262.137,293.605 262.313,293.613 262.494,293.628 C 262.501,293.628 262.511,293.628 262.516,293.628 C 263.497,293.628 265.318,293.773 266.102,294.701 C 266.225,294.845 268.509,298.104 269.116,299.671 C 269.119,299.671 269.122,299.671 269.126,299.671 C 269.362,299.647 269.655,299.617 269.977,299.617 C 270.832,299.617 271.522,299.824 272.084,300.252 C 273.755,301.524 273.951,303.11 274.107,304.384 C 274.152,304.732 274.192,305.072 274.264,305.4 C 274.677,307.314 275.479,308.517 276.406,309.908 C 277.163,311.043 278.02,312.331 278.722,314.156 C 279.909,317.244 279.444,318.084 278.536,319.102 C 277.985,319.72 277.361,320.421 277.485,322.921 C 277.535,323.341 278.57,325.359 279.256,326.695 C 281.078,330.244 281.272,330.756 280.983,331.247 L 280.801,331.555 L 280.398,331.582 L 279.024,331.582 C 279.023,331.754 278.988,331.896 278.918,332.021 L 278.779,332.268 L 278.458,332.367 C 278.126,332.439 277.857,332.524 277.58,332.612 C 276.557,332.932 275.401,333.297 271.184,333.297 z"
   stroke-miterlimit="10" />
		<path
   style="fill:none;stroke:#e5f4f8;stroke-width:0.80000001"
   id="path7917"
   d="M 243.909,330.942 C 243.794,331.409 243.763,331.742 243.763,331.742 C 244.54,331.742 245.318,331.742 246.091,331.742 C 249.077,331.742 250.725,331.683 253.618,332.08 C 257.385,332.59 254.071,331.158 263.847,331.742 C 266.407,332.123 267.664,332.596 267.947,332.604 C 276.484,332.868 276.527,332.133 278.325,331.742 C 278.45,331.715 278.409,331.388 278.263,330.942 C 279.217,330.942 279.97,330.942 280.396,330.942 C 281.028,330.942 276.909,324.003 276.86,322.951 C 276.569,317.059 280.271,319.931 278.141,314.386 C 276.634,310.47 274.453,309.227 273.653,305.536 C 273.318,304.008 273.594,302.196 271.711,300.761 C 270.44,299.798 268.637,300.558 268.637,300.254 C 268.637,299.526 265.959,295.505 265.63,295.116 C 264.954,294.317 263.024,294.261 262.44,294.261 C 256.908,293.784 259.596,301.614 254.96,298.092 C 252.514,296.235 251.756,299.282 251.18,299.791 C 251,299.948 250.836,299.978 250.606,299.806 C 249.345,298.873 246.369,300.64 245.983,301.285 C 245.162,302.656 247.204,308.209 245.997,306.892 C 245.644,306.513 244.951,306.403 244.331,306.413 C 242.667,306.448 241.915,309.142 240.969,310.311 C 239.415,312.225 242.871,315.667 243.331,318.302 C 243.45,318.966 243.654,319.611 243.759,320.207 C 244.046,321.866 242.427,322.617 242.36,322.741 C 242.321,322.81 242.277,322.872 242.229,322.926 C 241.462,323.759 242.638,325.275 241.941,325.736 C 241.611,325.958 241.07,325.996 240.209,325.691 C 237.854,324.858 236.844,327.099 236.355,328.912 C 236.06,330.011 235.988,330.942 235.988,330.942 C 236.986,330.942 237.984,330.942 238.982,330.942 C 241.104,330.942 242.51,330.942 243.909,330.942 z" />
		<linearGradient
   y2="335.08359"
   x2="275.03879"
   y1="305.30029"
   x1="242.2944"
   gradientUnits="userSpaceOnUse"
   id="SVGID_1_">
			<stop
   id="stop7920"
   style="stop-color:#FFFFFF"
   offset="0" />
			<stop
   id="stop7922"
   style="stop-color:#91D9F8"
   offset="1" />
		</linearGradient>
		<path
   style="fill:url(#linearGradient7999)"
   id="path7924"
   d="M 236.05,330.916 C 237.044,330.916 238.037,330.916 239.029,330.916 C 242.843,330.916 244.022,330.916 247.835,330.916 C 252.681,330.916 257.527,330.916 262.372,330.916 C 262.372,330.916 263.784,330.916 264.146,330.916 C 265.125,330.916 277.842,330.916 280.238,330.916 C 280.867,330.916 276.768,323.992 276.72,322.942 C 276.43,317.062 280.113,319.929 277.993,314.395 C 276.493,310.487 274.324,309.247 273.528,305.565 C 273.195,304.04 273.469,302.233 271.594,300.801 C 270.331,299.838 268.536,300.597 268.536,300.295 C 268.536,299.568 265.871,295.557 265.544,295.168 C 264.871,294.37 262.95,294.314 262.37,294.314 C 256.866,293.837 259.541,301.649 254.927,298.136 C 252.493,296.282 251.739,299.324 251.165,299.831 C 250.987,299.988 250.825,300.017 250.595,299.847 C 249.341,298.915 246.378,300.679 245.995,301.322 C 245.177,302.691 247.208,308.229 246.008,306.917 C 245.657,306.537 244.968,306.428 244.352,306.44 C 242.695,306.474 241.949,309.162 241.005,310.329 C 239.46,312.239 242.899,315.673 243.357,318.302 C 243.474,318.966 243.678,319.609 243.783,320.203 C 244.068,321.86 242.457,322.607 242.389,322.731 C 242.35,322.802 242.306,322.863 242.259,322.916 C 241.495,323.748 242.665,325.26 241.972,325.721 C 241.644,325.942 241.107,325.978 240.249,325.674 C 237.905,324.844 236.899,327.081 236.413,328.888 C 236.123,329.986 236.05,330.916 236.05,330.916 z" />
		
			<radialGradient
   gradientUnits="userSpaceOnUse"
   gradientTransform="matrix(1,0,0,1.0258,0,-11.0907)"
   r="42.030102"
   cy="323.27539"
   cx="254.30569"
   id="SVGID_2_">
			<stop
   id="stop7927"
   style="stop-color:#1CA2D0"
   offset="0.1043" />
			<stop
   id="stop7929"
   style="stop-color:#FFFFFF;stop-opacity:0"
   offset="0.5092" />
		</radialGradient>
		<path
   style="fill:url(#radialGradient8001)"
   id="path7931"
   d="M 236.05,330.916 C 237.044,330.916 238.037,330.916 239.029,330.916 C 242.843,330.916 244.022,330.916 247.835,330.916 C 252.681,330.916 257.527,330.916 262.372,330.916 C 262.372,330.916 263.784,330.916 264.146,330.916 C 265.125,330.916 277.842,330.916 280.238,330.916 C 280.867,330.916 276.768,323.992 276.72,322.942 C 276.43,317.062 280.113,319.929 277.993,314.395 C 276.493,310.487 274.324,309.247 273.528,305.564 C 273.195,304.041 273.469,302.233 271.594,300.799 C 270.331,299.839 268.536,300.597 268.536,300.295 C 268.536,299.568 265.871,295.555 265.544,295.168 C 264.871,294.371 262.95,294.314 262.37,294.314 C 256.866,293.837 259.541,301.65 254.927,298.136 C 252.493,296.282 251.739,299.324 251.165,299.831 C 250.987,299.988 250.825,300.017 250.595,299.847 C 249.341,298.915 246.378,300.679 245.995,301.321 C 245.177,302.689 247.208,308.229 246.008,306.916 C 245.657,306.537 244.968,306.43 244.352,306.439 C 242.695,306.474 241.949,309.162 241.005,310.329 C 239.46,312.239 242.899,315.673 243.357,318.302 C 243.474,318.966 243.678,319.609 243.783,320.203 C 244.068,321.86 242.457,322.607 242.389,322.731 C 242.35,322.802 242.306,322.863 242.259,322.916 C 241.495,323.748 242.665,325.26 241.972,325.721 C 241.644,325.942 241.107,325.978 240.249,325.674 C 237.905,324.844 236.899,327.081 236.413,328.888 C 236.123,329.986 236.05,330.916 236.05,330.916 z" />
		
			<radialGradient
   gradientUnits="userSpaceOnUse"
   gradientTransform="matrix(1,0,0,1.0258,0,-11.0907)"
   r="38.936199"
   cy="324.56689"
   cx="260.76459"
   id="SVGID_3_">
			<stop
   id="stop7934"
   style="stop-color:#FFFFFF;stop-opacity:0"
   offset="0.4233" />
			<stop
   id="stop7936"
   style="stop-color:#1CA2D0"
   offset="0.8344" />
		</radialGradient>
		<path
   style="fill:url(#radialGradient8003)"
   id="path7938"
   d="M 236.008,330.827 C 237.001,330.827 237.995,330.827 238.987,330.827 C 242.801,330.827 243.98,330.827 247.793,330.827 C 252.639,330.827 257.485,330.827 262.33,330.827 C 262.33,330.827 263.741,330.827 264.104,330.827 C 265.083,330.827 277.8,330.827 280.196,330.827 C 280.825,330.827 276.726,323.904 276.677,322.854 C 276.388,316.974 280.071,319.841 277.951,314.307 C 276.451,310.398 274.281,309.158 273.486,305.477 C 273.153,303.953 273.427,302.145 271.552,300.712 C 270.288,299.751 268.494,300.508 268.494,300.207 C 268.494,299.479 265.829,295.467 265.502,295.08 C 264.829,294.283 262.908,294.226 262.328,294.226 C 256.824,293.748 259.498,301.562 254.884,298.048 C 252.451,296.194 251.696,299.235 251.123,299.741 C 250.944,299.899 250.782,299.928 250.552,299.759 C 249.299,298.827 246.336,300.591 245.952,301.233 C 245.135,302.601 247.167,308.14 245.966,306.828 C 245.615,306.449 244.925,306.342 244.31,306.351 C 242.653,306.386 241.906,309.074 240.963,310.24 C 239.417,312.15 242.857,315.584 243.315,318.214 C 243.431,318.878 243.636,319.521 243.74,320.114 C 244.025,321.772 242.415,322.519 242.347,322.643 C 242.308,322.714 242.264,322.775 242.216,322.828 C 241.454,323.658 242.623,325.17 241.93,325.632 C 241.602,325.854 241.064,325.889 240.206,325.586 C 237.862,324.757 236.858,326.992 236.371,328.8 C 236.081,329.897 236.008,330.827 236.008,330.827 z" />
		<g
   id="g7940">
			<linearGradient
   y2="320.42191"
   x2="278.47409"
   y1="320.42191"
   x1="244.0146"
   gradientUnits="userSpaceOnUse"
   id="SVGID_4_">
				<stop
   id="stop7943"
   style="stop-color:#FFFFFF"
   offset="0" />
				<stop
   id="stop7945"
   style="stop-color:#91D9F8"
   offset="1" />
			</linearGradient>
			<path
   style="fill:url(#linearGradient8005)"
   id="path7947"
   d="M 244.015,331.525 C 244.788,331.525 245.562,331.525 246.333,331.525 C 249.302,331.525 250.941,331.467 253.821,331.862 C 257.569,332.372 254.271,330.943 263.999,331.525 C 266.545,331.906 267.798,332.378 268.078,332.387 C 276.572,332.648 276.615,331.914 278.403,331.525 C 278.883,331.422 276.775,327.11 276.422,326.581 C 273.885,322.78 277.249,322.682 275.599,319.16 C 274.436,316.675 272.853,318.038 272.232,315.695 C 271.973,314.727 272.189,313.579 270.729,312.668 C 269.748,312.054 268.565,311.583 268.565,311.392 C 268.565,310.929 267.256,308.992 266.968,308.791 C 265.197,307.556 264.372,309.663 263.926,309.663 C 259.381,309.332 262.843,314.104 259.589,311.517 C 257.872,310.152 257.403,312.158 256.981,312.595 C 256.884,312.69 256.793,312.704 256.688,312.587 C 256.121,311.922 254.582,312.395 253.775,314.905 C 253.21,316.674 256.474,319.461 255.266,318.27 C 254.915,317.928 254.236,317.768 253.462,317.768 C 252.175,317.77 250.624,318.216 249.89,318.959 C 248.687,320.174 249.347,321.83 249.702,323.504 C 249.794,323.925 249.952,324.334 250.031,324.713 C 250.255,325.765 249.002,326.244 248.949,326.321 C 248.919,326.364 248.885,326.404 248.848,326.437 C 248.253,326.967 249.162,327.927 248.625,328.221 C 248.369,328.363 247.949,328.383 247.282,328.19 C 245.459,327.665 244.676,329.083 244.299,330.236 C 244.071,330.933 244.015,331.525 244.015,331.525 z" />
			
				<radialGradient
   gradientUnits="userSpaceOnUse"
   gradientTransform="matrix(1,0,0,0.2052,0,262.6756)"
   r="28.9751"
   cy="333.6011"
   cx="263.12891"
   id="SVGID_5_">
				<stop
   id="stop7950"
   style="stop-color:#5AB0D1"
   offset="0" />
				<stop
   id="stop7952"
   style="stop-color:#FFFFFF;stop-opacity:0"
   offset="1" />
			</radialGradient>
			<path
   style="fill:url(#radialGradient8007)"
   id="path7954"
   d="M 243.999,331.526 C 244.771,331.526 245.546,331.526 246.316,331.526 C 249.286,331.526 250.924,331.468 253.805,331.863 C 257.552,332.373 254.254,330.944 263.982,331.526 C 266.529,331.907 267.781,332.379 268.061,332.388 C 276.555,332.649 276.599,331.915 278.387,331.526 C 278.867,331.423 276.758,327.112 276.405,326.582 C 273.868,322.781 277.233,322.683 275.582,319.161 C 274.42,316.676 272.836,318.039 272.216,315.696 C 271.956,314.728 272.172,313.579 270.712,312.669 C 269.732,312.055 268.548,311.584 268.548,311.394 C 268.548,310.929 267.239,308.993 266.952,308.792 C 265.18,307.557 264.356,309.665 263.909,309.665 C 259.365,309.333 262.826,314.105 259.573,311.519 C 257.855,310.154 257.387,312.159 256.964,312.595 C 256.867,312.691 256.776,312.705 256.671,312.588 C 256.104,311.923 254.565,312.396 253.758,314.906 C 253.193,316.675 256.458,319.462 255.249,318.272 C 254.899,317.929 254.22,317.769 253.446,317.769 C 252.159,317.772 250.607,318.217 249.874,318.96 C 248.671,320.176 249.331,321.831 249.686,323.505 C 249.778,323.926 249.936,324.335 250.014,324.714 C 250.239,325.766 248.985,326.245 248.932,326.322 C 248.903,326.366 248.868,326.405 248.832,326.438 C 248.236,326.968 249.146,327.929 248.608,328.222 C 248.353,328.364 247.933,328.384 247.265,328.191 C 245.442,327.666 244.66,329.084 244.282,330.237 C 244.056,330.934 243.999,331.526 243.999,331.526 z" />
		</g>
		
			<radialGradient
   gradientUnits="userSpaceOnUse"
   gradientTransform="matrix(1,0,0,1.0258,0,-11.0907)"
   r="24.587799"
   cy="329.4761"
   cx="258.09521"
   id="SVGID_6_">
			<stop
   id="stop7957"
   style="stop-color:#FFFFFF;stop-opacity:0"
   offset="0.4233" />
			<stop
   id="stop7959"
   style="stop-color:#278FBA"
   offset="0.9877" />
		</radialGradient>
		<path
   style="fill:url(#radialGradient8009)"
   id="path7961"
   d="M 243.842,331.348 C 244.615,331.348 245.39,331.348 246.16,331.348 C 249.129,331.348 250.768,331.289 253.649,331.684 C 257.395,332.195 254.098,330.766 263.826,331.348 C 266.373,331.729 267.625,332.202 267.905,332.209 C 276.399,332.471 276.443,331.738 278.231,331.348 C 278.711,331.244 276.602,326.934 276.249,326.404 C 273.712,322.602 277.077,322.505 275.426,318.983 C 274.264,316.498 272.68,317.861 272.06,315.518 C 271.8,314.549 272.016,313.401 270.556,312.49 C 269.575,311.876 268.392,311.405 268.392,311.216 C 268.392,310.751 267.083,308.815 266.796,308.613 C 265.024,307.378 264.2,309.486 263.753,309.486 C 259.208,309.155 262.67,313.926 259.416,311.34 C 257.698,309.975 257.23,311.979 256.808,312.416 C 256.711,312.512 256.62,312.525 256.515,312.408 C 255.947,311.744 254.409,312.216 253.602,314.726 C 253.037,316.496 256.302,319.283 255.093,318.093 C 254.743,317.75 254.064,317.591 253.29,317.591 C 252.002,317.593 250.451,318.037 249.718,318.781 C 248.515,319.996 249.175,321.653 249.53,323.327 C 249.622,323.747 249.78,324.155 249.858,324.534 C 250.083,325.586 248.829,326.065 248.776,326.143 C 248.747,326.187 248.712,326.226 248.675,326.258 C 248.08,326.788 248.99,327.749 248.452,328.044 C 248.197,328.184 247.777,328.205 247.109,328.013 C 245.286,327.487 244.503,328.905 244.125,330.059 C 243.898,330.755 243.842,331.348 243.842,331.348 z" />
	</g>

</svg>