<?xml version="1.0" encoding="UTF-8" standalone="no"?>
<!-- Created with Inkscape (http://www.inkscape.org/) -->
<svg
   xmlns:i="http://ns.adobe.com/AdobeIllustrator/10.0/"
   xmlns:a="http://ns.adobe.com/AdobeSVGViewerExtensions/3.0/"
   xmlns:dc="http://purl.org/dc/elements/1.1/"
   xmlns:cc="http://web.resource.org/cc/"
   xmlns:rdf="http://www.w3.org/1999/02/22-rdf-syntax-ns#"
   xmlns:svg="http://www.w3.org/2000/svg"
   xmlns="http://www.w3.org/2000/svg"
   xmlns:xlink="http://www.w3.org/1999/xlink"
   xmlns:sodipodi="http://sodipodi.sourceforge.net/DTD/sodipodi-0.dtd"
   xmlns:inkscape="http://www.inkscape.org/namespaces/inkscape"
   width="48"
   height="48"
   id="svg15621"
   sodipodi:version="0.32"
   inkscape:version="0.44.1"
   version="1.0"
   sodipodi:docbase="e:\dev_clean\src\houdini\support\icons\shelf"
   sodipodi:docname="merge.svg">
  <defs
     id="defs15623">
    <linearGradient
       inkscape:collect="always"
       id="linearGradient8410">
      <stop
         style="stop-color:#2e3436;stop-opacity:1;"
         offset="0"
         id="stop8412" />
      <stop
         style="stop-color:#2e3436;stop-opacity:0;"
         offset="1"
         id="stop8414" />
    </linearGradient>
    <linearGradient
       id="linearGradient8392">
      <stop
         style="stop-color:#655300;stop-opacity:1;"
         offset="0"
         id="stop8394" />
      <stop
         style="stop-color:#c4a000;stop-opacity:1"
         offset="1"
         id="stop8396" />
    </linearGradient>
    <linearGradient
       id="linearGradient3214">
      <stop
         style="stop-color:#555753;stop-opacity:1;"
         offset="0"
         id="stop3216" />
      <stop
         style="stop-color:#444643;stop-opacity:1;"
         offset="1"
         id="stop3218" />
    </linearGradient>
    <linearGradient
       id="linearGradient3164">
      <stop
         style="stop-color:#c6c6bf;stop-opacity:1;"
         offset="0"
         id="stop3166" />
      <stop
         style="stop-color:#eeeeec;stop-opacity:1;"
         offset="1"
         id="stop3168" />
    </linearGradient>
    <linearGradient
       id="linearGradient3222">
      <stop
         style="stop-color:#555753;stop-opacity:1;"
         offset="0"
         id="stop3224" />
      <stop
         style="stop-color:#373836;stop-opacity:1;"
         offset="1"
         id="stop3226" />
    </linearGradient>
    <linearGradient
       id="linearGradient3172">
      <stop
         style="stop-color:#eeeeec;stop-opacity:1;"
         offset="0"
         id="stop3174" />
      <stop
         style="stop-color:#c6c6bf;stop-opacity:1;"
         offset="1"
         id="stop3176" />
    </linearGradient>
    <linearGradient
       y2="75.352203"
       x2="122.1056"
       y1="48.775398"
       x1="100.5117"
       gradientUnits="userSpaceOnUse"
       id="XMLID_553_">
      <stop
         id="stop8011"
         style="stop-color:#FAFAFA"
         offset="0" />
      <stop
         id="stop8013"
         style="stop-color:#828B99"
         offset="0.5787" />
      <stop
         id="stop8015"
         style="stop-color:#868F9D"
         offset="0.7804" />
      <stop
         id="stop8017"
         style="stop-color:#939EAD"
         offset="0.9571" />
      <stop
         id="stop8019"
         style="stop-color:#98A4B2"
         offset="1" />
      <a:midPointStop
         style="stop-color:#FAFAFA"
         offset="0" />
      <a:midPointStop
         style="stop-color:#FAFAFA"
         offset="0.5" />
      <a:midPointStop
         style="stop-color:#828B99"
         offset="0.5787" />
      <a:midPointStop
         style="stop-color:#828B99"
         offset="0.7333" />
      <a:midPointStop
         style="stop-color:#98A4B2"
         offset="1" />
    </linearGradient>
    <linearGradient
       inkscape:collect="always"
       xlink:href="#XMLID_553_"
       id="linearGradient18307"
       gradientUnits="userSpaceOnUse"
       x1="100.5117"
       y1="48.775398"
       x2="122.1056"
       y2="75.352203" />
    <linearGradient
       y2="51.033"
       x2="100.9762"
       y1="53.1401"
       x1="105.0146"
       gradientUnits="userSpaceOnUse"
       id="XMLID_552_"
       gradientTransform="translate(-65.04989,-40.61659)">
      <stop
         id="stop8000"
         style="stop-color:#EFEEEC"
         offset="0" />
      <stop
         id="stop8002"
         style="stop-color:#98A7B2"
         offset="1" />
      <a:midPointStop
         style="stop-color:#EFEEEC"
         offset="0" />
      <a:midPointStop
         style="stop-color:#EFEEEC"
         offset="0.5" />
      <a:midPointStop
         style="stop-color:#98A7B2"
         offset="1" />
    </linearGradient>
    <linearGradient
       inkscape:collect="always"
       xlink:href="#XMLID_552_"
       id="linearGradient18305"
       gradientUnits="userSpaceOnUse"
       gradientTransform="translate(-65.04989,-40.61659)"
       x1="105.0146"
       y1="53.1401"
       x2="100.9762"
       y2="51.033" />
    <linearGradient
       y2="54.0539"
       x2="124.2161"
       y1="54.748"
       x1="97.9668"
       gradientUnits="userSpaceOnUse"
       id="XMLID_550_"
       gradientTransform="translate(-65.04989,-40.61659)">
      <stop
         id="stop7978"
         style="stop-color:#FFFFFF"
         offset="0" />
      <stop
         id="stop7980"
         style="stop-color:#ECEEF0"
         offset="0.1049" />
      <stop
         id="stop7982"
         style="stop-color:#BBC2C8"
         offset="0.3174" />
      <stop
         id="stop7984"
         style="stop-color:#828F99"
         offset="0.5393" />
      <stop
         id="stop7986"
         style="stop-color:#8895A0"
         offset="0.8583" />
      <stop
         id="stop7988"
         style="stop-color:#8D9BA6"
         offset="1" />
      <a:midPointStop
         style="stop-color:#FFFFFF"
         offset="0" />
      <a:midPointStop
         style="stop-color:#FFFFFF"
         offset="0.549" />
      <a:midPointStop
         style="stop-color:#828F99"
         offset="0.5393" />
      <a:midPointStop
         style="stop-color:#828F99"
         offset="0.6829" />
      <a:midPointStop
         style="stop-color:#8D9BA6"
         offset="1" />
    </linearGradient>
    <linearGradient
       inkscape:collect="always"
       xlink:href="#XMLID_550_"
       id="linearGradient18303"
       gradientUnits="userSpaceOnUse"
       gradientTransform="translate(-65.04989,-40.61659)"
       x1="97.9668"
       y1="54.748"
       x2="124.2161"
       y2="54.0539" />
    <radialGradient
       id="XMLID_530_"
       cx="33.161098"
       cy="46.3652"
       r="28.434601"
       fx="33.161098"
       fy="46.3652"
       gradientTransform="matrix(-1,0,0,1,55.3594,0)"
       gradientUnits="userSpaceOnUse">
      <stop
         offset="0"
         style="stop-color:#FFFFFF"
         id="stop7730" />
      <stop
         offset="0.0903"
         style="stop-color:#F9FAFA"
         id="stop7732" />
      <stop
         offset="0.2113"
         style="stop-color:#E8EBED"
         id="stop7734" />
      <stop
         offset="0.3497"
         style="stop-color:#CCD2D7"
         id="stop7736" />
      <stop
         offset="0.5"
         style="stop-color:#A5B0B8"
         id="stop7738" />
      <stop
         offset="0.5787"
         style="stop-color:#8E9CA6"
         id="stop7740" />
      <stop
         offset="1"
         style="stop-color:#505359"
         id="stop7742" />
      <a:midPointStop
         offset="0"
         style="stop-color:#FFFFFF" />
      <a:midPointStop
         offset="0.6446"
         style="stop-color:#FFFFFF" />
      <a:midPointStop
         offset="0.5787"
         style="stop-color:#8E9CA6" />
      <a:midPointStop
         offset="0.5"
         style="stop-color:#8E9CA6" />
      <a:midPointStop
         offset="1"
         style="stop-color:#505359" />
    </radialGradient>
    <radialGradient
       id="XMLID_531_"
       cx="38.920898"
       cy="39.9268"
       r="34.589199"
       fx="38.920898"
       fy="39.9268"
       gradientTransform="matrix(-1,0,0,1,55.3594,0)"
       gradientUnits="userSpaceOnUse">
      <stop
         offset="0"
         style="stop-color:#FFFFFF"
         id="stop7749" />
      <stop
         offset="1"
         style="stop-color:#8D9BA6"
         id="stop7751" />
      <a:midPointStop
         offset="0"
         style="stop-color:#FFFFFF" />
      <a:midPointStop
         offset="0.5"
         style="stop-color:#FFFFFF" />
      <a:midPointStop
         offset="1"
         style="stop-color:#8D9BA6" />
    </radialGradient>
    <radialGradient
       inkscape:collect="always"
       xlink:href="#XMLID_530_"
       id="radialGradient2604"
       gradientUnits="userSpaceOnUse"
       gradientTransform="matrix(-1,0,0,1,55.3594,0)"
       cx="33.161098"
       cy="46.3652"
       fx="33.161098"
       fy="46.3652"
       r="28.434601" />
    <radialGradient
       inkscape:collect="always"
       xlink:href="#XMLID_531_"
       id="radialGradient2606"
       gradientUnits="userSpaceOnUse"
       gradientTransform="matrix(-1,0,0,1,55.3594,0)"
       cx="38.920898"
       cy="39.9268"
       fx="38.920898"
       fy="39.9268"
       r="34.589199" />
    <linearGradient
       inkscape:collect="always"
       xlink:href="#linearGradient8392"
       id="linearGradient8398"
       x1="22.837828"
       y1="36.111744"
       x2="22.59576"
       y2="25.063036"
       gradientUnits="userSpaceOnUse"
       gradientTransform="matrix(0.98834,0,0,0.966592,7.076143e-3,0.849841)" />
    <linearGradient
       inkscape:collect="always"
       xlink:href="#linearGradient8392"
       id="linearGradient8406"
       x1="40.861511"
       y1="35.311722"
       x2="34.781162"
       y2="27.971729"
       gradientUnits="userSpaceOnUse" />
    <linearGradient
       inkscape:collect="always"
       xlink:href="#linearGradient8410"
       id="linearGradient8416"
       x1="36.516464"
       y1="34.833889"
       x2="38.305584"
       y2="38.045135"
       gradientUnits="userSpaceOnUse"
       gradientTransform="translate(-0.137625,-0.412875)" />
  </defs>
  <sodipodi:namedview
     id="base"
     pagecolor="#ffffff"
     bordercolor="#666666"
     borderopacity="1.0"
     inkscape:pageopacity="0.0"
     inkscape:pageshadow="2"
     inkscape:zoom="14.532258"
     inkscape:cx="29.5"
     inkscape:cy="19.5"
     inkscape:document-units="px"
     inkscape:current-layer="layer1"
     inkscape:window-width="1348"
     inkscape:window-height="1068"
     inkscape:window-x="294"
     inkscape:window-y="9"
     fill="#2e3436"
     stroke="#f57900" />
  <metadata
     id="metadata15626">
    <rdf:RDF>
      <cc:Work
         rdf:about="">
        <dc:format>image/svg+xml</dc:format>
        <dc:type
           rdf:resource="http://purl.org/dc/dcmitype/StillImage" />
      </cc:Work>
    </rdf:RDF>
  </metadata>
  <g
     inkscape:label="Layer 1"
     inkscape:groupmode="layer"
     id="layer1">
    <path
       id="path2680"
       style="color:black;fill:#fce94f;fill-opacity:1;fill-rule:evenodd;stroke:#c4a000;stroke-width:1.50000012;stroke-linecap:butt;stroke-linejoin:round;marker:none;stroke-miterlimit:4;stroke-dasharray:none;stroke-dashoffset:0;stroke-opacity:1;visibility:visible;display:inline;overflow:visible"
       d="M 0.60793245,26.466118 C 0.54110181,23.342174 3.6244343,20.745278 7.8228802,19.026287 C 12.021328,17.307297 17.5718,16.22954 23.703479,16.100465 C 29.835156,15.971389 35.474573,16.813593 39.742759,18.354356 C 44.010944,19.89512 47.200593,22.314092 47.267426,25.438036 M 44.082956,25.495776 C 44.051922,24.00732 42.356262,22.311057 38.685793,20.951518 C 35.015322,19.591978 29.663346,18.718064 23.764219,18.845481 C 17.865092,18.972899 12.605816,20.076007 8.9953154,21.592815 C 5.3848158,23.109618 3.6707007,24.648191 3.7924122,26.366025"
       sodipodi:nodetypes="csssccsssc" />
    <g
       id="g2596"
       transform="matrix(0.656772,0,0,0.656772,2.200141,11.0413)">
      <circle
         sodipodi:ry="19.018"
         sodipodi:rx="19.018"
         sodipodi:cy="54.053001"
         sodipodi:cx="27.679001"
         style="fill:url(#radialGradient2604);stroke:#192333;stroke-width:1.52259815"
         id="circle7744"
         r="19.018"
         cy="54.053001"
         cx="27.679001"
         i:knockout="Off"
         transform="translate(-3.525837,-32.71026)" />
      <g
         id="g7746"
         transform="translate(-3.525837,-32.71026)">
        <radialGradient
           gradientUnits="userSpaceOnUse"
           gradientTransform="matrix(-1,0,0,1,55.3594,0)"
           fy="39.9268"
           fx="38.920898"
           r="34.589199"
           cy="39.9268"
           cx="38.920898"
           id="radialGradient18224">
          <stop
             id="stop18226"
             style="stop-color:#FFFFFF"
             offset="0" />
          <stop
             id="stop18228"
             style="stop-color:#8D9BA6"
             offset="1" />
          <a:midPointStop
             style="stop-color:#FFFFFF"
             offset="0" />
          <a:midPointStop
             style="stop-color:#FFFFFF"
             offset="0.5" />
          <a:midPointStop
             style="stop-color:#8D9BA6"
             offset="1" />
        </radialGradient>
        <path
           style="fill:url(#radialGradient2606)"
           id="path7753"
           d="M 27.68,35.535 C 17.469,35.535 9.161,43.843 9.161,54.054 C 9.161,64.264 17.469,72.571 27.68,72.571 C 37.891,72.571 46.198,64.264 46.198,54.054 C 46.197,43.842 37.891,35.535 27.68,35.535 z M 27.68,71.57 C 18.02,71.57 10.161,63.713 10.161,54.053 C 10.161,44.393 18.02,36.535 27.68,36.535 C 37.339,36.535 45.198,44.394 45.198,54.054 C 45.198,63.714 37.339,71.57 27.68,71.57 z "
           i:knockout="Off" />
      </g>
    </g>
    <g
       id="g18290"
       transform="matrix(0.733361,0,0,0.733361,-0.17503,17.47977)">
      <path
         i:knockout="Off"
         d="M 65.074109,25.50641 C 65.074109,30.85141 58.466109,34.77241 45.973109,34.77241 C 34.966109,34.77241 27.872109,30.61441 27.872109,25.62341 C 27.886109,25.41141 27.939109,25.20641 28.031109,25.04441 L 46.081109,-6.9435905 C 46.298109,-7.3285905 46.649109,-7.3285905 46.866109,-6.9435905 L 64.916109,24.94741 C 65.006109,25.10341 65.058109,25.30141 65.074109,25.50641 z "
         id="path7990"
         style="fill:url(#linearGradient18303)" />
      <path
         i:knockout="Off"
         a:adobe-blending-mode="darken"
         d="M 46.760109,-7.2805905 L 34.301109,32.71941 C 29.024109,31.01041 27.311109,26.80541 28.032109,25.04341 L 46.508109,-7.2805905 L 46.760109,-7.2805905 z "
         id="path8004"
         style="fill:url(#linearGradient18305)" />
      <path
         i:knockout="Off"
         d="M 64.543109,24.13841 C 64.936109,24.83641 65.145109,25.57141 65.145109,26.32641 C 65.145109,31.09841 56.821109,34.77741 46.552109,34.77741 C 36.283109,34.77741 27.958109,31.09841 27.958109,26.32641 C 27.958109,25.43641 28.248109,24.57841 28.786109,23.76941 L 46.596109,-7.3145905 L 64.543109,24.13841 z "
         id="path8006"
         style="fill:none;stroke:#192333;stroke-width:1.36358321" />
      <g
         id="g8008"
         transform="translate(-65.04989,-40.61659)">
        <linearGradient
           id="linearGradient18277"
           gradientUnits="userSpaceOnUse"
           x1="100.5117"
           y1="48.775398"
           x2="122.1056"
           y2="75.352203">
          <stop
             offset="0"
             style="stop-color:#FAFAFA"
             id="stop18279" />
          <stop
             offset="0.5787"
             style="stop-color:#828B99"
             id="stop18281" />
          <stop
             offset="0.7804"
             style="stop-color:#868F9D"
             id="stop18283" />
          <stop
             offset="0.9571"
             style="stop-color:#939EAD"
             id="stop18285" />
          <stop
             offset="1"
             style="stop-color:#98A4B2"
             id="stop18287" />
          <a:midPointStop
             offset="0"
             style="stop-color:#FAFAFA" />
          <a:midPointStop
             offset="0.5"
             style="stop-color:#FAFAFA" />
          <a:midPointStop
             offset="0.5787"
             style="stop-color:#828B99" />
          <a:midPointStop
             offset="0.7333"
             style="stop-color:#828B99" />
          <a:midPointStop
             offset="1"
             style="stop-color:#98A4B2" />
        </linearGradient>
        <path
           i:knockout="Off"
           d="M 111.21,35.068 L 94.252,64.663 C 93.759,65.406 93.508,66.174 93.508,66.943 C 93.508,71.328 101.624,74.894 111.602,74.894 C 121.579,74.894 129.695,71.328 129.695,66.943 C 129.695,66.289 129.514,65.634 129.158,65 C 129.156,64.997 111.645,34.311 111.645,34.311 L 111.21,35.068 z M 94.508,66.943 C 94.508,66.374 94.702,65.793 95.085,65.216 L 95.138,65.131 C 95.138,65.131 110.818,37.765 111.643,36.323 C 112.466,37.766 128.288,65.492 128.288,65.492 C 128.559,65.971 128.695,66.462 128.695,66.942 C 128.695,70.645 120.709,73.893 111.602,73.893 C 102.495,73.893 94.508,70.646 94.508,66.943 z "
           id="path8021"
           style="fill:url(#linearGradient18307)" />
      </g>
    </g>
    <path
       style="fill:#fce94f;fill-opacity:1;fill-rule:evenodd;stroke:#655300;stroke-width:1;stroke-linecap:butt;stroke-linejoin:miter;stroke-miterlimit:4;stroke-dasharray:none;stroke-opacity:1"
       d="M 35.014548,31.010033 C 35.120765,30.056032 35.881425,28.523419 36.991413,28.187051 C 37.96631,27.93352 38.505521,27.790391 39.177834,28.232466 C 39.850148,28.674541 40.655565,29.701822 41.063926,30.763481 C 41.516225,32.506124 41.212465,34.59899 39.856102,35.670694 C 39.456672,35.986296 39.002941,36.162226 38.540825,36.285205 C 39.335266,37.662616 43.577406,43.472033 48.06495,45.698056 L 47.218771,47.887298 C 41.041423,44.357519 36.456317,37.19166 35.658941,35.243444 C 34.863402,33.299721 34.901124,32.028792 35.014548,31.010033 z M 36.906068,31.527598 C 36.784272,32.104834 37.048015,32.947451 37.402602,34.025867 C 37.852647,34.041472 38.328781,33.8098 38.767863,33.632916 C 39.112848,33.360332 39.43783,32.281539 39.164086,31.499283 C 38.962526,30.923291 38.358634,30.485237 38.2401,30.437224 C 38.014068,30.345672 37.102583,30.596243 36.906068,31.527598"
       id="path3108"
       sodipodi:nodetypes="ccsssccczzcsssss" />
    <path
       id="path2676"
       style="color:black;fill:#fce94f;fill-opacity:1;fill-rule:evenodd;stroke:url(#linearGradient8398);stroke-width:1.50000036;stroke-linecap:butt;stroke-linejoin:round;marker:none;stroke-miterlimit:4;stroke-dasharray:none;stroke-dashoffset:0;stroke-opacity:1;visibility:visible;display:inline;overflow:visible"
       d="M 47.267426,25.438043 C 47.334257,28.457623 44.250924,30.923418 40.052478,32.584981 C 35.85403,34.246544 30.254944,35.25497 24.123266,35.379733 C 17.991588,35.504496 12.400782,34.723754 8.1325967,33.234464 C 3.8644152,31.745174 0.67476311,29.407016 0.60793245,26.387437 M 3.7924122,26.33503 C 3.8234434,27.773761 5.5191064,29.41335 9.1895765,30.727471 C 12.860046,32.041592 18.159752,32.849543 24.058879,32.726382 C 29.958001,32.603221 35.269558,31.573731 38.880054,30.107601 C 42.490553,28.641468 44.113988,26.932584 44.082956,25.493854" />
    <path
       style="fill:#fce94f;fill-opacity:1;fill-rule:evenodd;stroke:url(#linearGradient8406);stroke-width:1;stroke-linecap:butt;stroke-linejoin:bevel;stroke-miterlimit:4;stroke-dasharray:none;stroke-opacity:1"
       d="M 36.098333,30.580684 C 36.549628,29.395773 37.748358,29.758725 38.153476,29.848279 C 38.645083,29.956952 39.170368,30.535843 39.380623,31.136237 C 39.666173,31.951635 39.417477,32.824618 39.098163,33.180962 C 38.776798,33.539596 38.050906,34.258818 37.383034,34.148651 C 37.697201,34.78807 38.115256,35.68299 38.479143,36.238108 C 39.136337,36.12444 40.114849,35.254075 40.621885,34.545459 C 41.519303,33.291256 41.637083,32.212494 41.16669,30.395286 C 40.740388,29.288824 39.970974,28.068271 39.19028,27.761745 C 37.639217,27.152748 33.786448,27.375944 34.353193,31.199384 L 36.098333,30.580684 z "
       id="path3082"
       sodipodi:nodetypes="csssccssscc" />
    <path
       style="fill:url(#linearGradient8416);fill-opacity:1;fill-rule:evenodd;stroke:none;stroke-width:1px;stroke-linecap:butt;stroke-linejoin:miter;stroke-opacity:1"
       d="M 34.956715,34.788014 L 37.846837,34.054015 L 39.72771,37.081762 L 36.929338,38.18276 L 34.956715,34.788014 z "
       id="path8408" />
  </g>
</svg>
