<svg xmlns="http://www.w3.org/2000/svg" xmlns:xlink="http://www.w3.org/1999/xlink" viewBox="0 0 48 48"><defs><style>.cls-1{fill:url(#radial-gradient);}.cls-2{fill:#eeeeec;}.cls-3{fill:url(#linear-gradient);}.cls-31,.cls-4{fill:none;stroke:#555753;stroke-linecap:round;stroke-linejoin:round;}.cls-4{stroke-width:0.35px;}.cls-5{fill:url(#linear-gradient-2);}.cls-6{fill:url(#linear-gradient-3);}.cls-7{fill:url(#linear-gradient-5);}.cls-8{fill:url(#linear-gradient-6);}.cls-9{fill:url(#linear-gradient-7);}.cls-10{fill:url(#linear-gradient-8);}.cls-11{fill:url(#linear-gradient-9);}.cls-12{fill:url(#linear-gradient-10);}.cls-13{fill:url(#linear-gradient-11);}.cls-14{fill:url(#linear-gradient-12);}.cls-15{fill:url(#linear-gradient-13);}.cls-16{fill:#888a85;}.cls-17{fill:#d3d7cf;}.cls-18{fill:url(#linear-gradient-14);}.cls-19{fill:#555753;}.cls-20{fill:url(#linear-gradient-15);}.cls-21{fill:url(#linear-gradient-16);}.cls-22{fill:url(#linear-gradient-17);}.cls-23{fill:url(#linear-gradient-18);}.cls-24{fill:url(#linear-gradient-19);}.cls-25{fill:url(#linear-gradient-21);}.cls-26{fill:url(#linear-gradient-22);}.cls-27{fill:url(#linear-gradient-23);}.cls-28{fill:url(#linear-gradient-24);}.cls-29{fill:url(#linear-gradient-25);}.cls-30{fill:url(#linear-gradient-26);}.cls-31{stroke-width:0.39px;}.cls-32{fill:url(#linear-gradient-27);}</style><radialGradient id="radial-gradient" cx="16.91" cy="41.25" r="19.3" gradientTransform="translate(5.55 31.03) scale(1.11 0.25)" gradientUnits="userSpaceOnUse"><stop offset="0.03" stop-color="#2c2c2c" stop-opacity="0.5"/><stop offset="0.68" stop-color="#2c2c2c" stop-opacity="0.1"/><stop offset="0.93" stop-color="#2c2c2c" stop-opacity="0"/></radialGradient><linearGradient id="linear-gradient" x1="32.97" y1="0.23" x2="32.97" y2="6.14" gradientTransform="translate(-15.97 4.47) rotate(4.39)" gradientUnits="userSpaceOnUse"><stop offset="0" stop-color="#eeeeec"/><stop offset="1" stop-color="#555753"/></linearGradient><linearGradient id="linear-gradient-2" x1="17.03" y1="31.64" x2="22.56" y2="15.45" gradientTransform="matrix(1, 0, 0, 1, 0, 0)" xlink:href="#linear-gradient"/><linearGradient id="linear-gradient-3" x1="14.85" y1="-5.24" x2="14.85" y2="41.27" gradientTransform="matrix(1, 0, 0, 1, 0, 0)" xlink:href="#linear-gradient"/><linearGradient id="linear-gradient-5" x1="32.09" y1="9.05" x2="31.24" y2="-9.76" xlink:href="#linear-gradient"/><linearGradient id="linear-gradient-6" x1="41.75" y1="-9.78" x2="41.75" y2="30.96" xlink:href="#linear-gradient"/><linearGradient id="linear-gradient-7" x1="34.68" y1="25.59" x2="32.39" y2="19.08" xlink:href="#linear-gradient"/><linearGradient id="linear-gradient-8" x1="30.36" y1="28.3" x2="22.61" y2="-0.75" gradientTransform="translate(-15.97 4.47) rotate(4.39)" gradientUnits="userSpaceOnUse"><stop offset="0" stop-color="#eeeeec"/><stop offset="1" stop-color="#888a85"/></linearGradient><linearGradient id="linear-gradient-9" x1="36.8" y1="24.22" x2="31.43" y2="8.93" xlink:href="#linear-gradient"/><linearGradient id="linear-gradient-10" x1="33.65" y1="19" x2="33.25" y2="16.56" xlink:href="#linear-gradient"/><linearGradient id="linear-gradient-11" x1="33.79" y1="18.63" x2="33.46" y2="16.22" xlink:href="#linear-gradient"/><linearGradient id="linear-gradient-12" x1="31.43" y1="25.95" x2="29.26" y2="16.01" xlink:href="#linear-gradient"/><linearGradient id="linear-gradient-13" x1="31.06" y1="26.03" x2="28.89" y2="16.09" xlink:href="#linear-gradient"/><linearGradient id="linear-gradient-14" x1="-23.87" y1="48.25" x2="-23.87" y2="50.25" gradientTransform="translate(33.1 -15.68) rotate(-11.62)" xlink:href="#linear-gradient"/><linearGradient id="linear-gradient-15" x1="-15.59" y1="21.97" x2="-15.59" y2="27.87" gradientTransform="translate(36.44 -10.52) rotate(-11.02)" xlink:href="#linear-gradient"/><linearGradient id="linear-gradient-16" x1="-8.09" y1="54.88" x2="-1.85" y2="38.35" gradientTransform="translate(36.44 -10.52) rotate(-11.02)" xlink:href="#linear-gradient-8"/><linearGradient id="linear-gradient-17" x1="-14.55" y1="47.79" x2="-6.4" y2="32.14" gradientTransform="translate(36.44 -10.52) rotate(-11.02)" xlink:href="#linear-gradient"/><linearGradient id="linear-gradient-18" x1="-12.97" y1="56.59" x2="-5.37" y2="32.63" gradientTransform="translate(36.44 -10.52) rotate(-11.02)" xlink:href="#linear-gradient-8"/><linearGradient id="linear-gradient-19" x1="-16.63" y1="8.75" x2="-16.63" y2="56.86" gradientTransform="translate(36.44 -10.52) rotate(-11.02)" xlink:href="#linear-gradient"/><linearGradient id="linear-gradient-21" x1="-14.39" y1="52.31" x2="-22.55" y2="21.71" gradientTransform="translate(36.44 -10.52) rotate(-11.02)" xlink:href="#linear-gradient-8"/><linearGradient id="linear-gradient-22" x1="24.47" y1="30.61" x2="22.16" y2="31.37" gradientTransform="matrix(1, 0, 0, 1, 0, 0)" xlink:href="#linear-gradient"/><linearGradient id="linear-gradient-23" x1="19.93" y1="33.45" x2="22.22" y2="28.88" gradientTransform="matrix(1, 0, 0, 1, 0, 0)" xlink:href="#linear-gradient"/><linearGradient id="linear-gradient-24" x1="19.37" y1="33.17" x2="21.66" y2="28.6" gradientTransform="matrix(1, 0, 0, 1, 0, 0)" xlink:href="#linear-gradient"/><linearGradient id="linear-gradient-25" x1="-18.73" y1="57.5" x2="-10.78" y2="40.05" gradientTransform="translate(36.44 -10.52) rotate(-11.02)" xlink:href="#linear-gradient-8"/><linearGradient id="linear-gradient-26" x1="-18.83" y1="30.43" x2="13.11" y2="22.04" gradientTransform="translate(36.44 -10.52) rotate(-11.02)" xlink:href="#linear-gradient"/><linearGradient id="linear-gradient-27" x1="20.38" y1="21.62" x2="15.27" y2="23.31" gradientTransform="matrix(1, 0, 0, 1, 0, 0)" xlink:href="#linear-gradient"/></defs><title>2-Concrete Fracture</title><g id="shadow"><ellipse class="cls-1" cx="24.33" cy="41.25" rx="20.6" ry="4.61"/></g><g id="ART"><polygon class="cls-2" points="15.39 35.83 16.23 34.13 17.93 33.83 18.71 35.44 17.74 36.81 15.42 37.06 15.39 35.83"/><polyline class="cls-3" points="15.81 9.23 15.64 11.49 17.62 9.56"/><polyline class="cls-4" points="15.81 9.23 15.64 11.49 17.62 9.56"/><path class="cls-5" d="M24.34,14l-1,13.41-4.55-2.55a1.44,1.44,0,0,0-.59-.18l1-13.55Z"/><path class="cls-6" d="M19.21,11.12l-1,13.55a1.56,1.56,0,0,0-.61.09l-6.37,2.37a.28.28,0,0,0,0,.51l2.19,1.22L10.5,29l1.16-15Z"/><path class="cls-6" d="M19.21,11.12l-1,13.55a1.56,1.56,0,0,0-.61.09l-6.37,2.37a.28.28,0,0,0,0,.51l2.19,1.22L10.5,29l1.16-15Z"/><path class="cls-4" d="M23.31,27.4l-4.55-2.55a1.44,1.44,0,0,0-.59-.18,1.56,1.56,0,0,0-.61.09l-6.37,2.37"/><path class="cls-7" d="M24.34,14l1.37-1,.42-.77L18.74,8.13l-2.93,1.1.56.31c.23.16.18.28-.05.37l-6.4,2.38a1.68,1.68,0,0,1-1.4-.11L8.26,12,5.35,13.13l-1,13.41,9.25,5.18,3-1.54.33-4.25.16-.12.46-.65-.24-.92.58-1,.43-5.62L18,17.5l-5.85-3.27a.28.28,0,0,1,0-.5l6.37-2.38a1.44,1.44,0,0,1,1.2.1Z"/><polygon class="cls-8" points="24.34 13.99 23.29 27.75 25.11 25.57 26.13 12.27 25.71 13.04 24.34 13.99"/><line class="cls-4" x1="25.11" y1="25.57" x2="26.13" y2="12.27"/><polyline class="cls-9" points="17.04 23.6 16.53 30.18 13.57 31.72 14.08 25.13"/><polygon class="cls-10" points="13.9 27.42 14.55 26.84 15.72 25.21 15.33 18.72 5.35 13.13 4.32 26.54 13.57 31.72 13.9 27.42"/><polygon class="cls-11" points="17.82 23.25 18.25 17.63 15.33 18.72 15.14 21.14 15.27 23.3 14.56 24.52 15 25.56 14.55 26.84 15.63 26.81 17.12 25.49 17.48 25.16 17.24 24.24 17.82 23.25"/><polygon class="cls-12" points="14.56 24.52 17.24 24.24 17.48 25.16 15 25.56 14.56 24.52"/><polygon class="cls-13" points="17.82 23.25 15.27 23.3 14.56 24.52 17.24 24.24 17.82 23.25"/><polygon class="cls-14" points="13.26 25.39 11.76 24.93 11.32 23.5 10.5 22.54 10.2 21.54 10.33 22.7 11.17 23.65 11.61 25.3 13.13 25.77 13.85 28.09 13.9 27.42 14.23 27.13 13.26 25.39"/><polyline class="cls-15" points="11.48 24.51 11.86 23.43 11.91 22.35 12.06 23.55 11.57 24.9"/><path class="cls-4" d="M24.34,14l1.37-1,.42-.77L18.74,8.13l-2.93,1.1.56.31c.23.16.18.28-.05.37l-6.4,2.38a1.68,1.68,0,0,1-1.4-.11L8.26,12,5.35,13.13l-1,13.41,9.25,5.18,3-1.54.33-4.25.16-.12.46-.65-.24-.92.58-1,.43-5.62L18,17.5l-5.85-3.27a.28.28,0,0,1,0-.5l6.37-2.38a1.44,1.44,0,0,1,1.2.1Z"/><polyline class="cls-4" points="5.35 13.13 15.33 18.72 18.25 17.63"/><polygon class="cls-16" points="15.63 33.57 15.46 32.52 16.08 31.66 16.78 32.04 16.95 32.95 15.63 33.57"/><polygon class="cls-16" points="13.9 39.17 15.29 39.26 15.55 40.34 14.83 41.08 14.04 40.91 13.56 39.93 13.9 39.17"/><polygon class="cls-17" points="19.32 37.13 19.07 37.35 19.13 37.97 18.7 38.28 19.36 39 19.78 38.87 20.27 37.71 19.32 37.13"/><polygon class="cls-17" points="15.46 32.52 16.27 32.57 16.78 32.04 16.08 31.66 15.46 32.52"/><polygon class="cls-17" points="13.56 39.93 14.71 40.2 15.29 39.26 13.9 39.17 13.56 39.93"/><polyline class="cls-16" points="16.12 36.14 15.42 37.06 17.74 36.81 18.71 35.44 17.93 33.83 17.85 34.8"/><polygon class="cls-17" points="16.87 34.61 17.85 34.8 17.62 36.06 16.12 36.14 16.31 35.02 16.87 34.61"/><polygon class="cls-16" points="19.36 39 19.39 38.41 19.66 38.28 19.8 37.79 20.27 37.71 20.21 38.34 19.78 38.87 19.36 39"/><polygon class="cls-18" points="19.8 37.79 19.07 37.35 19.32 37.13 20.27 37.71 19.8 37.79"/><polygon class="cls-19" points="16.8 39.76 16.52 39.47 16.8 39.3 17.28 39.78 16.8 39.76"/><polygon class="cls-2" points="19.66 38.28 19.13 37.97 18.7 38.28 19.36 39 19.39 38.41 19.66 38.28"/><polyline class="cls-20" points="24.83 16.23 25.26 18.46 26.66 16.07"/><polyline class="cls-4" points="24.83 16.23 25.26 18.46 26.66 16.07"/><polygon class="cls-21" points="39.72 19.89 42.29 33.09 44.82 31.26 42.25 18.06 39.72 19.89"/><polygon class="cls-22" points="28.61 17.16 31.17 30.35 42.29 33.09 39.72 19.89 28.61 17.16"/><polygon class="cls-23" points="32.16 24.35 34.7 37.45 41.26 32.83 38.69 19.63 32.16 24.35"/><polyline class="cls-24" points="22.07 21.88 24.96 36.7 31.97 34.43 28.61 17.16"/><polyline class="cls-24" points="22.07 21.88 24.96 36.7 31.97 34.43 28.61 17.16"/><polyline class="cls-4" points="31.17 30.35 33.43 30.91 34.7 37.45 41.26 32.83 41.26 32.83 42.29 33.09 42.29 33.09 44.82 31.26 42.25 18.06 39.72 19.89 39.72 19.89 38.69 19.63 38.69 19.63 38.68 19.63 28.61 17.16"/><polygon class="cls-25" points="25.86 25.25 25.86 25.26 18.75 23.51 19.21 25.83 19.82 27.63 19.8 28.9 21.03 29.94 21.32 31.42 21.94 32.21 21.82 34.02 22.4 36.97 28.65 38.51 28.65 38.51 33.23 39.64 30.66 26.44 25.86 25.25"/><polyline class="cls-26" points="21.94 32.21 21.78 31.15 22.53 30.45 22.07 31.33 22.07 32.21"/><polyline class="cls-27" points="21.4 29.17 22.91 28.42 23.66 27.3 22.96 28.73 21.4 29.64"/><path class="cls-28" d="M21.09,30.22,21.43,29l.13-1.33s.24,1.52.22,1.6l-.6,1.43"/><polygon class="cls-29" points="30.66 26.44 33.23 39.64 35.76 37.81 33.19 24.61 30.66 26.44"/><path class="cls-30" d="M27.36,14.4l-2.53,1.83.49.12c.43.12.27.35,0,.55l-5.41,3.92.22,1.12-.64.95-.71.62,11.91,2.93,2.53-1.83-.55-.14c-.27-.07-.31-.21,0-.46l5.5-4a1.44,1.44,0,0,1,1.22-.24l.37.09,2.53-1.83Zm1.55,9.16L22.52,22a.21.21,0,0,1-.07-.38l5.73-4.15a1.14,1.14,0,0,1,.93-.18l6.39,1.57a.21.21,0,0,1,.07.38l-5.73,4.15A1.14,1.14,0,0,1,28.91,23.56Z"/><polygon class="cls-4" points="30.66 26.44 25.86 25.25 25.86 25.26 18.75 23.51 19.21 25.83 19.82 27.63 19.8 28.9 21.03 29.94 21.32 31.42 21.94 32.21 21.82 34.02 22.4 36.97 28.65 38.51 28.65 38.51 33.23 39.64 35.76 37.81 33.19 24.61 30.66 26.44"/><path class="cls-4" d="M27.36,14.4l-2.53,1.83.49.12c.43.12.27.35,0,.55l-5.41,3.92.22,1.12-.64.95-.71.62,11.91,2.93,2.53-1.83-.55-.14c-.27-.07-.31-.21,0-.46l5.5-4a1.44,1.44,0,0,1,1.22-.24l.37.09,2.53-1.83Z"/><path class="cls-4" d="M28.91,23.56,22.52,22a.21.21,0,0,1-.07-.38l5.73-4.15a1.14,1.14,0,0,1,.93-.18l6.39,1.57a.21.21,0,0,1,.07.38l-5.73,4.15A1.14,1.14,0,0,1,28.91,23.56Z"/><polygon class="cls-31" points="15.39 35.83 16.23 34.13 17.93 33.83 18.71 35.44 17.74 36.81 15.42 37.06 15.39 35.83"/><polygon class="cls-31" points="15.63 33.57 15.46 32.52 16.08 31.66 16.78 32.04 16.95 32.95 15.63 33.57"/><polygon class="cls-31" points="13.9 39.17 15.29 39.26 15.55 40.34 14.83 41.08 14.04 40.91 13.56 39.93 13.9 39.17"/><polygon class="cls-31" points="19.32 37.13 19.07 37.35 19.13 37.97 18.7 38.28 19.36 39 19.78 38.87 20.21 38.34 20.27 37.71 19.32 37.13"/><polygon class="cls-19" points="18.71 31.98 19.11 32.31 19.45 31.92 19.03 31.81 18.71 31.98"/><polygon class="cls-19" points="16.35 38.2 16.56 37.91 16.85 38.13 16.59 38.27 16.35 38.2"/><polygon class="cls-19" points="17.52 33.41 18.18 33.05 17.82 32.4 17.46 32.9 17.52 33.41"/><path class="cls-32" d="M14.56,24.52a6.56,6.56,0,0,0-.23-1l-.2-1.35.43,1.18.23.78,2.28.12Z"/><polyline class="cls-19" points="17.35 25.04 15.63 26.81 16.86 25.98 17.48 25.16"/></g></svg>