<?xml version="1.0" encoding="UTF-8" standalone="no"?>
<!-- Created with Inkscape (http://www.inkscape.org/) -->
<svg
   xmlns:i="http://ns.adobe.com/AdobeIllustrator/10.0/"
   xmlns:a="http://ns.adobe.com/AdobeSVGViewerExtensions/3.0/"
   xmlns:dc="http://purl.org/dc/elements/1.1/"
   xmlns:cc="http://web.resource.org/cc/"
   xmlns:rdf="http://www.w3.org/1999/02/22-rdf-syntax-ns#"
   xmlns:svg="http://www.w3.org/2000/svg"
   xmlns="http://www.w3.org/2000/svg"
   xmlns:sodipodi="http://sodipodi.sourceforge.net/DTD/sodipodi-0.dtd"
   xmlns:inkscape="http://www.inkscape.org/namespaces/inkscape"
   width="48px"
   height="48px"
   id="svg56768"
   sodipodi:version="0.32"
   inkscape:version="0.45.1"
   sodipodi:docbase="C:\dev\src\houdini\support\icons\SHELF"
   sodipodi:docname="convert_to_smoke.svg"
   inkscape:output_extension="org.inkscape.output.svg.inkscape">
  <defs
     id="defs56770">
    <radialGradient
       gradientUnits="userSpaceOnUse"
       fy="358.04199"
       fx="315.20309"
       r="21.8867"
       cy="358.04199"
       cx="315.20309"
       id="XMLID_1701_">
						<stop
   id="stop22033"
   style="stop-color:#8893A0"
   offset="0" />

						<stop
   id="stop22035"
   style="stop-color:#ADB8C4"
   offset="0.4916" />

						<stop
   id="stop22037"
   style="stop-color:#C9D0D8"
   offset="0.6808" />

						<stop
   id="stop22039"
   style="stop-color:#FFFFFF"
   offset="0.9944" />

						<a:midPointStop
   style="stop-color:#8893A0"
   offset="0" />

						<a:midPointStop
   style="stop-color:#8893A0"
   offset="0.5" />

						<a:midPointStop
   style="stop-color:#ADB8C4"
   offset="0.4916" />

						<a:midPointStop
   style="stop-color:#ADB8C4"
   offset="0.5333" />

						<a:midPointStop
   style="stop-color:#FFFFFF"
   offset="0.9944" />

					</radialGradient>
    <radialGradient
       gradientUnits="userSpaceOnUse"
       fy="370.9209"
       fx="318.13281"
       r="26.489599"
       cy="370.9209"
       cx="318.13281"
       id="XMLID_1707_"
       gradientTransform="matrix(1.0412698,0,0,1.0412698,-304.28281,-348.7469)">
						<stop
   id="stop22127"
   style="stop-color:#6C7580"
   offset="0" />

						<stop
   id="stop22129"
   style="stop-color:#929CA6"
   offset="1" />

						<a:midPointStop
   style="stop-color:#6C7580"
   offset="0" />

						<a:midPointStop
   style="stop-color:#6C7580"
   offset="0.5" />

						<a:midPointStop
   style="stop-color:#929CA6"
   offset="1" />

					</radialGradient>
    <radialGradient
       gradientUnits="userSpaceOnUse"
       fy="363.80859"
       fx="314.76459"
       r="8.4047003"
       cy="363.80859"
       cx="314.76459"
       id="XMLID_1708_"
       gradientTransform="matrix(1.0412698,0,0,1.0412698,-304.28281,-348.7469)">
						<stop
   id="stop22134"
   style="stop-color:#6C7580"
   offset="0" />

						<stop
   id="stop22136"
   style="stop-color:#929CA6"
   offset="1" />

						<a:midPointStop
   style="stop-color:#6C7580"
   offset="0" />

						<a:midPointStop
   style="stop-color:#6C7580"
   offset="0.5" />

						<a:midPointStop
   style="stop-color:#929CA6"
   offset="1" />

					</radialGradient>
    <radialGradient
       gradientUnits="userSpaceOnUse"
       fy="354.41989"
       fx="318.76761"
       r="15.1647"
       cy="354.41989"
       cx="318.76761"
       id="XMLID_1709_"
       gradientTransform="matrix(1.0412698,0,0,1.0412698,-304.28281,-348.7469)">
						<stop
   id="stop22141"
   style="stop-color:#76808C"
   offset="0" />

						<stop
   id="stop22143"
   style="stop-color:#B0B8BF"
   offset="1" />

						<a:midPointStop
   style="stop-color:#76808C"
   offset="0" />

						<a:midPointStop
   style="stop-color:#76808C"
   offset="0.5" />

						<a:midPointStop
   style="stop-color:#B0B8BF"
   offset="1" />

					</radialGradient>
    <radialGradient
       gradientUnits="userSpaceOnUse"
       fy="361.9863"
       fx="304.332"
       r="17.8512"
       cy="361.9863"
       cx="304.332"
       id="XMLID_1710_"
       gradientTransform="matrix(1.0412698,0,0,1.0412698,-304.28281,-348.7469)">
						<stop
   id="stop22148"
   style="stop-color:#76808C"
   offset="0" />

						<stop
   id="stop22150"
   style="stop-color:#B0B8BF"
   offset="1" />

						<a:midPointStop
   style="stop-color:#76808C"
   offset="0" />

						<a:midPointStop
   style="stop-color:#76808C"
   offset="0.5" />

						<a:midPointStop
   style="stop-color:#B0B8BF"
   offset="1" />

					</radialGradient>
    <radialGradient
       gradientUnits="userSpaceOnUse"
       fy="351.7402"
       fx="307.72949"
       r="7.8966999"
       cy="351.7402"
       cx="307.72949"
       id="XMLID_1711_"
       gradientTransform="matrix(1.0412698,0,0,1.0412698,-304.28281,-348.7469)">
						<stop
   id="stop22155"
   style="stop-color:#76808C"
   offset="0" />

						<stop
   id="stop22157"
   style="stop-color:#B0B8BF"
   offset="1" />

						<a:midPointStop
   style="stop-color:#76808C"
   offset="0" />

						<a:midPointStop
   style="stop-color:#76808C"
   offset="0.5" />

						<a:midPointStop
   style="stop-color:#B0B8BF"
   offset="1" />

					</radialGradient>
    <radialGradient
       gradientUnits="userSpaceOnUse"
       fy="372.90039"
       fx="318.57419"
       r="15.2212"
       cy="372.90039"
       cx="318.57419"
       id="XMLID_1712_"
       gradientTransform="matrix(1.0412698,0,0,1.0412698,-304.28281,-348.7469)">
						<stop
   id="stop22162"
   style="stop-color:#6C7580"
   offset="0" />

						<stop
   id="stop22164"
   style="stop-color:#929CA6"
   offset="0.4916" />

						<stop
   id="stop22166"
   style="stop-color:#AEB5BD"
   offset="0.6378" />

						<stop
   id="stop22168"
   style="stop-color:#F5F6F7"
   offset="0.952" />

						<stop
   id="stop22170"
   style="stop-color:#FFFFFF"
   offset="0.9944" />

						<a:midPointStop
   style="stop-color:#6C7580"
   offset="0" />

						<a:midPointStop
   style="stop-color:#6C7580"
   offset="0.5" />

						<a:midPointStop
   style="stop-color:#929CA6"
   offset="0.4916" />

						<a:midPointStop
   style="stop-color:#929CA6"
   offset="0.5333" />

						<a:midPointStop
   style="stop-color:#FFFFFF"
   offset="0.9944" />

					</radialGradient>
    <radialGradient
       gradientUnits="userSpaceOnUse"
       fy="374.56451"
       fx="335.62009"
       r="14.8692"
       cy="374.56451"
       cx="335.62009"
       id="XMLID_1713_"
       gradientTransform="matrix(1.0412698,0,0,1.0412698,-304.28281,-348.7469)">
						<stop
   id="stop22175"
   style="stop-color:#6C7580"
   offset="0" />

						<stop
   id="stop22177"
   style="stop-color:#929CA6"
   offset="0.4916" />

						<stop
   id="stop22179"
   style="stop-color:#AEB5BD"
   offset="0.6378" />

						<stop
   id="stop22181"
   style="stop-color:#F5F6F7"
   offset="0.952" />

						<stop
   id="stop22183"
   style="stop-color:#FFFFFF"
   offset="0.9944" />

						<a:midPointStop
   style="stop-color:#6C7580"
   offset="0" />

						<a:midPointStop
   style="stop-color:#6C7580"
   offset="0.5" />

						<a:midPointStop
   style="stop-color:#929CA6"
   offset="0.4916" />

						<a:midPointStop
   style="stop-color:#929CA6"
   offset="0.5333" />

						<a:midPointStop
   style="stop-color:#FFFFFF"
   offset="0.9944" />

					</radialGradient>
    <radialGradient
       gradientUnits="userSpaceOnUse"
       fy="368.3418"
       fx="332.8916"
       r="14.863"
       cy="368.3418"
       cx="332.8916"
       id="XMLID_1714_"
       gradientTransform="matrix(1.0412698,0,0,1.0412698,-304.28281,-348.7469)">
						<stop
   id="stop22188"
   style="stop-color:#6C7580"
   offset="0" />

						<stop
   id="stop22190"
   style="stop-color:#929CA6"
   offset="0.4916" />

						<stop
   id="stop22192"
   style="stop-color:#AEB5BD"
   offset="0.6378" />

						<stop
   id="stop22194"
   style="stop-color:#F5F6F7"
   offset="0.952" />

						<stop
   id="stop22196"
   style="stop-color:#FFFFFF"
   offset="0.9944" />

						<a:midPointStop
   style="stop-color:#6C7580"
   offset="0" />

						<a:midPointStop
   style="stop-color:#6C7580"
   offset="0.5" />

						<a:midPointStop
   style="stop-color:#929CA6"
   offset="0.4916" />

						<a:midPointStop
   style="stop-color:#929CA6"
   offset="0.5333" />

						<a:midPointStop
   style="stop-color:#FFFFFF"
   offset="0.9944" />

					</radialGradient>
    <radialGradient
       gradientUnits="userSpaceOnUse"
       fy="363.80859"
       fx="314.76459"
       r="8.4047003"
       cy="363.80859"
       cx="314.76459"
       id="XMLID_1715_"
       gradientTransform="matrix(1.0412698,0,0,1.0412698,-304.28281,-348.7469)">
						<stop
   id="stop22201"
   style="stop-color:#6C7580"
   offset="0" />

						<stop
   id="stop22203"
   style="stop-color:#929CA6"
   offset="1" />

						<a:midPointStop
   style="stop-color:#6C7580"
   offset="0" />

						<a:midPointStop
   style="stop-color:#6C7580"
   offset="0.5" />

						<a:midPointStop
   style="stop-color:#929CA6"
   offset="1" />

					</radialGradient>
    <radialGradient
       gradientUnits="userSpaceOnUse"
       fy="361.22171"
       fx="318.375"
       r="18.3748"
       cy="361.22171"
       cx="318.375"
       id="XMLID_1716_"
       gradientTransform="matrix(1.0412698,0,0,1.0412698,-304.28281,-348.7469)">
						<stop
   id="stop22208"
   style="stop-color:#8893A0"
   offset="0" />

						<stop
   id="stop22210"
   style="stop-color:#ADB8C4"
   offset="0.4916" />

						<stop
   id="stop22212"
   style="stop-color:#C9D0D8"
   offset="0.6808" />

						<stop
   id="stop22214"
   style="stop-color:#FFFFFF"
   offset="0.9944" />

						<a:midPointStop
   style="stop-color:#8893A0"
   offset="0" />

						<a:midPointStop
   style="stop-color:#8893A0"
   offset="0.5" />

						<a:midPointStop
   style="stop-color:#ADB8C4"
   offset="0.4916" />

						<a:midPointStop
   style="stop-color:#ADB8C4"
   offset="0.5333" />

						<a:midPointStop
   style="stop-color:#FFFFFF"
   offset="0.9944" />

					</radialGradient>
    <radialGradient
       gradientUnits="userSpaceOnUse"
       fy="355.31839"
       fx="315.6904"
       r="16.054701"
       cy="355.31839"
       cx="315.6904"
       id="XMLID_1717_"
       gradientTransform="matrix(1.0412698,0,0,1.0412698,-304.28281,-348.7469)">
						<stop
   id="stop22219"
   style="stop-color:#8893A0"
   offset="0" />

						<stop
   id="stop22221"
   style="stop-color:#ADB8C4"
   offset="0.4916" />

						<stop
   id="stop22223"
   style="stop-color:#C9D0D8"
   offset="0.6808" />

						<stop
   id="stop22225"
   style="stop-color:#FFFFFF"
   offset="0.9944" />

						<a:midPointStop
   style="stop-color:#8893A0"
   offset="0" />

						<a:midPointStop
   style="stop-color:#8893A0"
   offset="0.5" />

						<a:midPointStop
   style="stop-color:#ADB8C4"
   offset="0.4916" />

						<a:midPointStop
   style="stop-color:#ADB8C4"
   offset="0.5333" />

						<a:midPointStop
   style="stop-color:#FFFFFF"
   offset="0.9944" />

					</radialGradient>
    <radialGradient
       gradientUnits="userSpaceOnUse"
       fy="358.00101"
       fx="311.5762"
       r="12.2047"
       cy="358.00101"
       cx="311.5762"
       id="XMLID_1718_"
       gradientTransform="matrix(1.0412698,0,0,1.0412698,-304.28281,-348.7469)">
						<stop
   id="stop22230"
   style="stop-color:#8893A0"
   offset="0" />

						<stop
   id="stop22232"
   style="stop-color:#ADB8C4"
   offset="0.4916" />

						<stop
   id="stop22234"
   style="stop-color:#C9D0D8"
   offset="0.6808" />

						<stop
   id="stop22236"
   style="stop-color:#FFFFFF"
   offset="0.9944" />

						<a:midPointStop
   style="stop-color:#8893A0"
   offset="0" />

						<a:midPointStop
   style="stop-color:#8893A0"
   offset="0.5" />

						<a:midPointStop
   style="stop-color:#ADB8C4"
   offset="0.4916" />

						<a:midPointStop
   style="stop-color:#ADB8C4"
   offset="0.5333" />

						<a:midPointStop
   style="stop-color:#FFFFFF"
   offset="0.9944" />

					</radialGradient>
    <radialGradient
       gradientUnits="userSpaceOnUse"
       fy="364.44241"
       fx="307.99799"
       r="13.4413"
       cy="364.44241"
       cx="307.99799"
       id="XMLID_1719_"
       gradientTransform="matrix(1.0412698,0,0,1.0412698,-304.28281,-348.7469)">
						<stop
   id="stop22241"
   style="stop-color:#8893A0"
   offset="0" />

						<stop
   id="stop22243"
   style="stop-color:#ADB8C4"
   offset="0.4916" />

						<stop
   id="stop22245"
   style="stop-color:#C9D0D8"
   offset="0.6808" />

						<stop
   id="stop22247"
   style="stop-color:#FFFFFF"
   offset="0.9944" />

						<a:midPointStop
   style="stop-color:#8893A0"
   offset="0" />

						<a:midPointStop
   style="stop-color:#8893A0"
   offset="0.5" />

						<a:midPointStop
   style="stop-color:#ADB8C4"
   offset="0.4916" />

						<a:midPointStop
   style="stop-color:#ADB8C4"
   offset="0.5333" />

						<a:midPointStop
   style="stop-color:#FFFFFF"
   offset="0.9944" />

					</radialGradient>
    <radialGradient
       gradientUnits="userSpaceOnUse"
       fy="381.38181"
       fx="320.1279"
       r="31.952999"
       cy="381.38181"
       cx="320.1279"
       id="XMLID_1720_"
       gradientTransform="matrix(1.0412698,0,0,1.0412698,-304.28281,-348.7469)">
						<stop
   id="stop22252"
   style="stop-color:#8893A0"
   offset="0" />

						<stop
   id="stop22254"
   style="stop-color:#ADB8C4"
   offset="0.4916" />

						<stop
   id="stop22256"
   style="stop-color:#C9D0D8"
   offset="0.6808" />

						<stop
   id="stop22258"
   style="stop-color:#FFFFFF"
   offset="0.9944" />

						<a:midPointStop
   style="stop-color:#8893A0"
   offset="0" />

						<a:midPointStop
   style="stop-color:#8893A0"
   offset="0.5" />

						<a:midPointStop
   style="stop-color:#ADB8C4"
   offset="0.4916" />

						<a:midPointStop
   style="stop-color:#ADB8C4"
   offset="0.5333" />

						<a:midPointStop
   style="stop-color:#FFFFFF"
   offset="0.9944" />

					</radialGradient>
    <radialGradient
       gradientUnits="userSpaceOnUse"
       fy="338.61911"
       fx="302.668"
       r="35.987801"
       cy="338.61911"
       cx="302.668"
       id="XMLID_1728_">
							<stop
   id="stop22314"
   style="stop-color:#FFFFFF"
   offset="0" />

							<stop
   id="stop22316"
   style="stop-color:#929CA6"
   offset="1" />

							<a:midPointStop
   style="stop-color:#FFFFFF"
   offset="0" />

							<a:midPointStop
   style="stop-color:#FFFFFF"
   offset="0.5" />

							<a:midPointStop
   style="stop-color:#929CA6"
   offset="1" />

						</radialGradient>
    <radialGradient
       gradientUnits="userSpaceOnUse"
       fy="338.61621"
       fx="302.66699"
       r="35.9925"
       cy="338.61621"
       cx="302.66699"
       id="XMLID_1727_">
							<stop
   id="stop22307"
   style="stop-color:#FFFFFF"
   offset="0" />

							<stop
   id="stop22309"
   style="stop-color:#929CA6"
   offset="1" />

							<a:midPointStop
   style="stop-color:#FFFFFF"
   offset="0" />

							<a:midPointStop
   style="stop-color:#FFFFFF"
   offset="0.5" />

							<a:midPointStop
   style="stop-color:#929CA6"
   offset="1" />

						</radialGradient>
    <radialGradient
       gradientUnits="userSpaceOnUse"
       fy="338.61429"
       fx="302.66891"
       r="35.990799"
       cy="338.61429"
       cx="302.66891"
       id="XMLID_1726_">
							<stop
   id="stop22300"
   style="stop-color:#FFFFFF"
   offset="0" />

							<stop
   id="stop22302"
   style="stop-color:#929CA6"
   offset="1" />

							<a:midPointStop
   style="stop-color:#FFFFFF"
   offset="0" />

							<a:midPointStop
   style="stop-color:#FFFFFF"
   offset="0.5" />

							<a:midPointStop
   style="stop-color:#929CA6"
   offset="1" />

						</radialGradient>
    <radialGradient
       gradientUnits="userSpaceOnUse"
       fy="338.61719"
       fx="302.668"
       r="35.9865"
       cy="338.61719"
       cx="302.668"
       id="XMLID_1725_">
							<stop
   id="stop22293"
   style="stop-color:#FFFFFF"
   offset="0" />

							<stop
   id="stop22295"
   style="stop-color:#929CA6"
   offset="1" />

							<a:midPointStop
   style="stop-color:#FFFFFF"
   offset="0" />

							<a:midPointStop
   style="stop-color:#FFFFFF"
   offset="0.5" />

							<a:midPointStop
   style="stop-color:#929CA6"
   offset="1" />

						</radialGradient>
    <radialGradient
       gradientUnits="userSpaceOnUse"
       fy="338.61819"
       fx="302.668"
       r="35.9809"
       cy="338.61819"
       cx="302.668"
       id="XMLID_1724_">
							<stop
   id="stop22286"
   style="stop-color:#FFFFFF"
   offset="0" />

							<stop
   id="stop22288"
   style="stop-color:#929CA6"
   offset="1" />

							<a:midPointStop
   style="stop-color:#FFFFFF"
   offset="0" />

							<a:midPointStop
   style="stop-color:#FFFFFF"
   offset="0.5" />

							<a:midPointStop
   style="stop-color:#929CA6"
   offset="1" />

						</radialGradient>
    <radialGradient
       gradientUnits="userSpaceOnUse"
       fy="338.6152"
       fx="302.668"
       r="35.9935"
       cy="338.6152"
       cx="302.668"
       id="XMLID_1723_">
							<stop
   id="stop22279"
   style="stop-color:#FFFFFF"
   offset="0" />

							<stop
   id="stop22281"
   style="stop-color:#929CA6"
   offset="1" />

							<a:midPointStop
   style="stop-color:#FFFFFF"
   offset="0" />

							<a:midPointStop
   style="stop-color:#FFFFFF"
   offset="0.5" />

							<a:midPointStop
   style="stop-color:#929CA6"
   offset="1" />

						</radialGradient>
    <radialGradient
       gradientUnits="userSpaceOnUse"
       fy="338.6152"
       fx="302.66699"
       r="35.992699"
       cy="338.6152"
       cx="302.66699"
       id="XMLID_1722_">
							<stop
   id="stop22272"
   style="stop-color:#FFFFFF"
   offset="0" />

							<stop
   id="stop22274"
   style="stop-color:#929CA6"
   offset="1" />

							<a:midPointStop
   style="stop-color:#FFFFFF"
   offset="0" />

							<a:midPointStop
   style="stop-color:#FFFFFF"
   offset="0.5" />

							<a:midPointStop
   style="stop-color:#929CA6"
   offset="1" />

						</radialGradient>
    <radialGradient
       gradientUnits="userSpaceOnUse"
       fy="338.61429"
       fx="302.66309"
       r="36.001202"
       cy="338.61429"
       cx="302.66309"
       id="XMLID_1721_">
							<stop
   id="stop22265"
   style="stop-color:#FFFFFF"
   offset="0" />

							<stop
   id="stop22267"
   style="stop-color:#929CA6"
   offset="1" />

							<a:midPointStop
   style="stop-color:#FFFFFF"
   offset="0" />

							<a:midPointStop
   style="stop-color:#FFFFFF"
   offset="0.5" />

							<a:midPointStop
   style="stop-color:#929CA6"
   offset="1" />

						</radialGradient>
  </defs>
  <sodipodi:namedview
     id="base"
     pagecolor="#ffffff"
     bordercolor="#666666"
     borderopacity="1.0"
     inkscape:pageopacity="0.0"
     inkscape:pageshadow="2"
     inkscape:zoom="7"
     inkscape:cx="24"
     inkscape:cy="24"
     inkscape:current-layer="layer1"
     showgrid="true"
     inkscape:grid-bbox="true"
     inkscape:document-units="px"
     inkscape:window-width="744"
     inkscape:window-height="573"
     inkscape:window-x="88"
     inkscape:window-y="96" />
  <metadata
     id="metadata56773">
    <rdf:RDF>
      <cc:Work
         rdf:about="">
        <dc:format>image/svg+xml</dc:format>
        <dc:type
           rdf:resource="http://purl.org/dc/dcmitype/StillImage" />
      </cc:Work>
    </rdf:RDF>
  </metadata>
  <g
     id="layer1"
     inkscape:label="Layer 1"
     inkscape:groupmode="layer">
    <circle
       transform="matrix(1.0412698,0,0,1.0412698,-304.28281,-348.7469)"
       sodipodi:ry="21.886999"
       sodipodi:rx="21.886999"
       sodipodi:cy="358.04199"
       sodipodi:cx="315.203"
       style="fill:url(#XMLID_1701_)"
       id="circle22041"
       r="21.886999"
       cy="358.04199"
       cx="315.203"
       a:adobe-blending-mode="multiply"
       i:knockout="Off" />
    <g
       transform="matrix(1.0412698,0,0,1.0412698,-304.28281,-348.7469)"
       id="g22043">
						<path
   style="fill:none;stroke:#363b40;stroke-width:2.40091467"
   id="path22045"
   d="M 300.129,363.265 C 296.883,364.859 297.307,369.757 300.859,369.562 C 302.611,373.72 307.789,376.669 315.02,376.705 C 322.226,376.74 329.539,373.908 329.447,369.791 L 329.447,369.791 C 331.058,368.955 332.525,367.572 333.181,366.135 C 333.873,364.621 333.703,363.479 333.285,362.574 C 335.464,361.845 334.949,358.222 333.557,358.082"
   i:knockout="Off" />

						<path
   style="fill:none;stroke:#363b40;stroke-width:2.40091467"
   id="path22047"
   d="M 333.558,358.081 C 335.715,355.925 333.941,352.39 331.368,352.991 C 333.395,346.382 323.565,343.106 320.657,348.805"
   i:knockout="Off" />

						<path
   style="fill:none;stroke:#363b40;stroke-width:2.40091467"
   id="path22049"
   d="M 320.656,348.806 C 322.172,345.835 325.568,345.302 328.186,346.41 L 328.184,346.414 C 328.632,344.695 326.913,344.06 326.152,344.596 C 326.148,343.77 326.12,342.147 324.351,341.096 C 322.346,339.908 320.236,341.065 319.59,341.77 C 316.148,336.774 307.532,340.163 309.686,346.249"
   i:knockout="Off" />

						<path
   style="fill:none;stroke:#363b40;stroke-width:2.40091467"
   id="path22051"
   d="M 303.617,348.067 L 303.626,348.073 C 301.73,347.206 298.975,347.698 297.566,349.757 C 296.37,351.507 296.769,353.109 297.257,354.058 L 297.31,354.089 C 296.596,354.357 296.539,355.761 297.765,356.302 L 297.73,356.31 C 298.412,356.152 299.263,356.296 300.173,357.091"
   i:knockout="Off" />

						<path
   style="fill:none;stroke:#363b40;stroke-width:2.40091467"
   id="path22053"
   d="M 303.617,348.067 L 303.626,348.073 C 302.937,347.757 302.133,347.622 301.32,347.677 L 301.31,347.675 C 300.313,343.9 305.021,342.597 306.6,344.466 C 307.024,343.579 308.673,343.345 309.348,344.521 C 309.353,345.099 309.456,345.599 309.686,346.248"
   i:knockout="Off" />

						<path
   style="fill:none;stroke:#363b40;stroke-width:2.40091467"
   id="path22055"
   d="M 300.129,363.265 C 298.912,363.863 298.211,364.925 297.998,366.009 C 296.472,365.654 296.144,363.847 297.079,363.128 C 295.532,362.036 296.078,360.489 296.898,360.114 C 295.69,359.409 295.791,357.696 296.714,356.848 C 297.409,356.209 298.717,355.817 300.173,357.09"
   i:knockout="Off" />

					</g>
    <path
       style="fill:url(#XMLID_1707_)"
       id="path22131"
       d="M 13.13789,29.93275 C 12.214284,29.009144 9.6173566,28.855036 8.1928995,29.554769 C 4.8077312,31.216636 5.2492296,36.327188 8.955109,36.12414 C 10.782537,40.462071 16.183604,43.539023 23.728645,43.575467 C 31.245572,43.611912 38.875998,40.656788 38.780201,36.36155 L 38.780201,36.36155 C 40.461852,35.488966 41.989395,34.046807 42.676633,32.546337 C 43.39615,30.967772 43.219134,29.776559 42.784925,28.833169 C 45.058017,28.073042 44.51968,24.292191 43.069191,24.147455 C 43.290982,23.321728 42.392366,23.10202 42.023757,23.468547 C 41.15742,17.859226 33.813344,18.240331 33.007401,22.169042 C 32.502385,20.782071 28.241509,19.663747 26.683769,23.436267 C 20.188328,20.581106 14.100023,25.704153 13.13789,29.93275 z "
       i:knockout="Off" />
    <path
       style="fill:url(#XMLID_1708_)"
       id="path22138"
       d="M 43.070233,24.146413 C 45.320417,21.895188 43.469039,18.205969 40.783604,18.835937 C 42.898423,11.939607 32.643998,8.5211182 29.609737,14.46781 C 29.045369,13.102706 26.946169,12.509182 26.441153,14.781232 C 24.01916,11.328382 16.936442,13.770159 17.398766,18.434007 L 17.268607,18.476699 C 16.261699,18.710985 15.323515,19.391975 14.964277,20.41242 C 16.004506,20.821639 16.808366,21.555734 17.428963,22.533486 C 18.18076,22.232559 19.131439,22.371048 19.784315,23.111391 L 19.798893,23.121804 C 21.87102,22.415823 24.248239,22.364801 26.68481,23.435226 C 28.24255,19.662706 32.503426,20.781029 33.008442,22.168001 C 33.814385,18.23929 41.158461,17.858185 42.024798,23.467506 C 42.393407,23.100979 43.292023,23.320686 43.070233,24.146413 z "
       i:knockout="Off" />
    <path
       style="fill:url(#XMLID_1709_)"
       id="path22145"
       d="M 37.462995,11.972928 C 37.930525,10.17882 36.137458,9.5165722 35.342969,10.075734 C 35.339845,9.2135627 35.309649,7.5194164 33.464518,6.4250418 C 31.371566,5.1848894 29.171363,6.3906799 28.49662,7.1268577 C 24.906322,1.9142609 15.917039,5.449372 18.164099,11.797994 C 16.839604,11.200306 15.125674,12.320712 15.822284,14.147099 L 15.821242,14.140852 C 16.463706,14.147099 17.129077,14.464686 17.717395,15.082159 C 18.190131,14.610464 18.478563,15.159213 18.478563,15.159213 C 20.48509,12.871544 24.68349,12.279061 26.439071,14.781232 C 26.944087,12.509182 29.043287,13.103747 29.607655,14.46781 C 31.191426,11.36795 34.732785,10.812953 37.464036,11.968763 L 37.462995,11.972928 z "
       i:knockout="Off" />
    <path
       style="fill:url(#XMLID_1710_)"
       id="path22152"
       d="M 14.964277,20.41242 C 15.323515,19.391975 16.261699,18.709944 17.268607,18.476699 L 17.398766,18.434007 C 17.27069,17.134502 17.725725,16.009931 18.502512,15.135264 L 18.480645,15.159213 C 18.480645,15.159213 18.192214,14.610464 17.719477,15.082159 C 16.517852,13.817017 14.998639,13.814934 13.984442,15.145677 C 13.290957,14.466769 12.563109,13.996115 11.83422,13.699353 L 11.843591,13.703518 C 9.8651789,12.798655 6.9912741,13.313042 5.5210011,15.461182 C 4.2725185,17.285486 4.6890265,18.958807 5.1992487,19.950096 L 5.2533947,19.980293 C 4.5088868,20.259353 4.4495344,21.725461 5.729255,22.290871 L 5.6928106,22.299201 C 6.4039979,22.132598 7.2922011,22.28254 8.2418392,23.114515 C 9.0644423,21.467226 11.160518,19.87929 13.437776,20.069842 C 14.001103,20.114617 14.512366,20.234363 14.976772,20.417626 L 14.964277,20.41242 z "
       i:knockout="Off" />
    <path
       style="fill:url(#XMLID_1711_)"
       id="path22159"
       d="M 17.81215,9.9955563 C 17.817357,10.599493 17.924607,11.12221 18.165141,11.796953 C 16.840645,11.199264 15.126715,12.319671 15.823325,14.146058 L 15.822284,14.13981 L 15.821242,14.13981 C 15.148582,14.135645 14.499871,14.466769 13.983401,15.144636 C 13.289915,14.465728 12.562068,13.995074 11.833179,13.698312 L 11.84255,13.702477 C 11.123033,13.373436 10.283769,13.232864 9.4372169,13.290134 L 9.425763,13.288052 C 8.3855344,9.3489277 13.297204,7.9900704 14.945534,9.940369 C 15.388074,9.0157214 17.10721,8.7720642 17.81215,9.9955563 z "
       i:knockout="Off" />
    <path
       style="opacity:0.7;fill:url(#XMLID_1712_)"
       id="path22172"
       d="M 21.284785,35.293207 C 17.874626,34.881906 17.054106,32.42555 17.123871,30.037918 C 17.179058,28.124064 18.215122,26.969296 18.760747,27.035937 C 18.487934,24.375493 24.013953,21.168382 27.835414,25.19289 C 29.199477,24.511899 30.973801,26.421588 31.245572,27.241067 C 31.518385,28.058464 30.427134,27.582604 30.016874,27.785652 C 31.049814,28.241728 32.268099,29.900471 32.268099,31.19581 C 32.268099,32.566121 31.010245,35.104737 28.154042,35.104737 C 25.29888,35.104737 25.108328,32.977423 25.108328,32.438045 C 25.108328,31.456128 25.901776,29.615163 27.962449,29.615163 C 25.933014,29.615163 24.916734,29.836953 23.901496,32.533842 C 22.85502,30.058744 23.61723,26.981791 25.805979,25.997791 C 24.155566,25.997791 22.283363,27.045309 21.680468,28.251099 C 21.015096,27.171302 21.015096,26.441372 21.458677,25.617728 C 18.983579,27.171302 19.713509,29.712001 20.379922,30.630401 C 17.652836,32.440128 21.284785,35.293207 21.284785,35.293207 z "
       a:adobe-blending-mode="lighten"
       i:knockout="Off" />
    <path
       style="opacity:0.7;fill:url(#XMLID_1713_)"
       id="path22185"
       d="M 40.959579,31.86014 C 39.970372,30.985474 38.260607,30.684547 37.235998,32.317258 C 36.589369,31.137499 37.880544,30.379455 37.880544,30.379455 C 36.361331,30.417982 36.05728,32.393271 36.094766,32.545296 C 34.803591,30.874058 36.246791,27.71901 38.640671,27.528458 C 41.03455,27.338947 42.288239,28.974782 42.250753,29.885893 C 41.148049,28.744661 39.818347,29.047671 39.818347,29.047671 C 39.818347,29.047671 43.12542,30.302401 40.959579,31.86014 z "
       a:adobe-blending-mode="lighten"
       i:knockout="Off" />
    <path
       style="opacity:0.7;fill:url(#XMLID_1714_)"
       id="path22198"
       d="M 38.115871,25.387607 C 37.129788,24.51294 35.418982,24.209931 34.39229,25.843683 C 33.747744,24.666007 35.038918,23.90588 35.038918,23.90588 C 33.519706,23.944407 33.216696,25.919696 33.253141,26.071721 C 31.961966,24.400483 33.405166,21.245436 35.799045,21.056966 C 38.192925,20.868496 39.447655,22.501207 39.409128,23.412318 C 38.306423,22.273169 36.976722,22.576179 36.976722,22.576179 C 36.976722,22.576179 40.282753,23.827785 38.115871,25.387607 z "
       a:adobe-blending-mode="lighten"
       i:knockout="Off" />
    <path
       style="fill:url(#XMLID_1715_)"
       id="path22205"
       d="M 17.428963,22.533486 C 18.18076,22.232559 19.131439,22.371048 19.784315,23.111391 L 19.804099,23.119721 C 16.347084,24.295315 13.740785,27.288966 13.138931,29.93275 C 12.215325,29.009144 9.6183979,28.855036 8.1939408,29.554769 C 6.9235916,30.179531 6.1936614,31.285359 5.9697884,32.416179 C 4.3797693,32.046528 4.0382328,30.160788 5.0118201,29.412115 C 3.3978523,28.270883 3.9674265,26.657956 4.8233503,26.266439 C 3.5623729,25.532344 3.6675412,23.744483 4.6317566,22.860445 C 5.3564804,22.195074 6.7215852,21.784813 8.2407979,23.114515 C 9.0634011,21.467226 11.159477,19.87929 13.436734,20.069842 C 15.255833,20.219785 16.53243,21.122566 17.428963,22.533486 z "
       i:knockout="Off" />
    <path
       style="fill:url(#XMLID_1716_)"
       id="path22216"
       d="M 43.093141,24.353626 C 45.345407,22.104483 43.492988,18.415264 40.807553,19.04315 C 42.922372,12.14682 32.667947,8.7304134 29.633687,14.675023 C 29.07036,13.309918 26.97116,12.716394 26.465103,14.990528 C 24.043109,11.537677 16.960391,13.977372 17.422715,18.643302 L 17.292557,18.683912 C 16.285649,18.92028 15.348506,19.601271 14.988226,20.621715 C 16.028455,21.030934 16.832315,21.765029 17.453953,22.742782 C 18.203668,22.441855 19.155388,22.578261 19.808264,23.318604 L 19.822842,23.331099 C 21.894969,22.625118 24.27323,22.574096 26.70876,23.642439 C 28.266499,19.869918 32.527376,20.988242 33.033433,22.377296 C 33.838334,18.446502 41.18241,18.06748 42.048747,23.676801 C 42.417357,23.309232 43.315972,23.532064 43.093141,24.353626 z "
       a:adobe-blending-mode="multiply"
       i:knockout="Off" />
    <path
       style="fill:url(#XMLID_1717_)"
       id="path22227"
       d="M 37.487985,12.182223 C 37.955515,10.388115 36.162449,9.7258674 35.36796,10.282947 C 35.364836,9.4228579 35.334639,7.7287117 33.488468,6.6322545 C 31.396557,5.3941847 29.196353,6.5999751 28.52161,7.3361529 C 24.931312,2.1235561 15.94203,5.6607497 18.18909,12.00729 C 16.863553,11.407518 15.150664,12.527925 15.847274,14.354312 L 15.846233,14.350147 C 16.489737,14.354312 17.155109,14.671899 17.742385,15.291455 C 18.215122,14.819759 18.503553,15.368509 18.503553,15.368509 C 20.511122,13.078756 24.709522,12.488356 26.464061,14.990528 C 26.970118,12.716394 29.069318,13.310959 29.632645,14.675023 C 31.215376,11.577245 34.757776,11.022248 37.489026,12.178058 L 37.487985,12.182223 z "
       a:adobe-blending-mode="multiply"
       i:knockout="Off" />
    <path
       style="fill:url(#XMLID_1718_)"
       id="path22238"
       d="M 14.988226,20.621715 C 15.348506,19.601271 16.285649,18.919239 17.292557,18.683912 L 17.422715,18.643302 C 17.293598,17.343798 17.749674,16.219226 18.527503,15.344559 L 18.505636,15.368509 C 18.505636,15.368509 18.217204,14.819759 17.744468,15.291455 C 16.543884,14.024229 15.022588,14.024229 14.009433,15.354972 C 13.315947,14.676064 12.588099,14.20541 11.85921,13.908648 L 11.868582,13.912813 C 9.8901693,13.00795 7.0152233,13.522337 5.5459916,15.670477 C 4.297509,17.494782 4.7140169,19.16602 5.2242392,20.157309 L 5.2794265,20.189588 C 4.5338773,20.468648 4.4745249,21.934756 5.7542455,22.498083 L 5.7178011,22.506413 C 6.4289884,22.33981 7.3171916,22.491836 8.2668296,23.321728 C 9.0894328,21.676521 11.185509,20.088585 13.462766,20.277055 C 14.026093,20.323912 14.536315,20.443658 15.002804,20.626921 L 14.988226,20.621715 z "
       a:adobe-blending-mode="multiply"
       i:knockout="Off" />
    <path
       style="fill:url(#XMLID_1719_)"
       id="path22249"
       d="M 17.453953,22.743823 C 18.203668,22.442896 19.155388,22.579302 19.808264,23.319645 L 19.82909,23.330058 C 16.371033,24.503569 13.764734,27.49722 13.163922,30.143086 C 12.240315,29.21948 9.6423471,29.06329 8.21789,29.765106 C 6.948582,30.387785 6.2176106,31.495696 5.9937376,32.626515 C 4.4037185,32.254782 4.062182,30.371125 5.0368106,29.622452 C 3.4228428,28.48122 3.9924169,26.868293 4.8472995,26.476775 C 3.5863221,25.740598 3.6914904,23.95482 4.6567471,23.070782 C 5.3804296,22.403328 6.7455344,21.99515 8.2647471,23.322769 C 9.0873503,21.677563 11.183426,20.089626 13.460684,20.278096 C 15.280823,20.42908 16.556379,21.331861 17.453953,22.743823 z "
       a:adobe-blending-mode="multiply"
       i:knockout="Off" />
    <path
       style="fill:url(#XMLID_1720_)"
       id="path22260"
       d="M 42.167452,28.90814 C 43.958436,28.479137 45.418296,25.054401 42.024798,23.467506 C 42.240341,19.814731 35.282576,17.520813 33.021979,22.129474 C 31.803693,21.053842 28.558055,21.16734 27.697966,24.320306 C 23.23196,20.808102 16.449128,24.467125 14.659185,27.045309 C 14.238512,27.549283 13.138931,29.93275 13.138931,29.93275 C 12.215325,29.009144 9.6183979,28.855036 8.1939408,29.554769 C 4.8087725,31.216636 5.2502709,36.327188 8.9561503,36.12414 C 9.6558836,36.012725 10.130703,36.628115 10.846055,36.367798 C 12.970245,46.45562 38.581318,43.534858 37.91803,36.237639 C 39.995363,35.519163 43.814741,32.489067 42.167452,28.90814 z "
       a:adobe-blending-mode="multiply"
       i:knockout="Off" />
    <g
       transform="matrix(1.0412698,0,0,1.0412698,-304.28281,-348.7469)"
       style="opacity:0.7"
       id="g22262"
       a:adobe-blending-mode="lighten">
						
							<radialGradient
   gradientUnits="userSpaceOnUse"
   fy="338.61429"
   fx="302.66309"
   r="36.001202"
   cy="338.61429"
   cx="302.66309"
   id="radialGradient56889">
							<stop
   id="stop56891"
   style="stop-color:#FFFFFF"
   offset="0" />

							<stop
   id="stop56893"
   style="stop-color:#929CA6"
   offset="1" />

							<a:midPointStop
   style="stop-color:#FFFFFF"
   offset="0" />

							<a:midPointStop
   style="stop-color:#FFFFFF"
   offset="0.5" />

							<a:midPointStop
   style="stop-color:#929CA6"
   offset="1" />

						</radialGradient>

						<path
   style="fill:url(#XMLID_1721_)"
   id="path22269"
   d="M 324.418,345.565 C 323.471,344.725 321.828,344.434 320.842,346.003 C 320.223,344.872 321.463,344.142 321.463,344.142 C 320.002,344.179 319.712,346.078 319.747,346.222 C 318.508,344.617 319.893,341.589 322.192,341.406 C 324.491,341.224 325.695,342.793 325.66,343.67 C 324.601,342.574 323.324,342.867 323.324,342.867 C 323.324,342.867 326.498,344.069 324.418,345.565 z "
   a:adobe-blending-mode="normal"
   i:knockout="Off" />

						
							<radialGradient
   gradientUnits="userSpaceOnUse"
   fy="338.6152"
   fx="302.66699"
   r="35.992699"
   cy="338.6152"
   cx="302.66699"
   id="radialGradient56896">
							<stop
   id="stop56898"
   style="stop-color:#FFFFFF"
   offset="0" />

							<stop
   id="stop56900"
   style="stop-color:#929CA6"
   offset="1" />

							<a:midPointStop
   style="stop-color:#FFFFFF"
   offset="0" />

							<a:midPointStop
   style="stop-color:#FFFFFF"
   offset="0.5" />

							<a:midPointStop
   style="stop-color:#929CA6"
   offset="1" />

						</radialGradient>

						<path
   style="fill:url(#XMLID_1722_)"
   id="path22276"
   d="M 316.41,352.581 C 315.461,351.741 313.819,351.45 312.834,353.02 C 312.213,351.887 313.455,351.157 313.455,351.157 C 311.995,351.194 311.703,353.093 311.739,353.237 C 310.498,351.632 311.885,348.604 314.183,348.421 C 316.482,348.239 317.687,349.808 317.65,350.685 C 316.591,349.589 315.316,349.882 315.316,349.882 C 315.316,349.882 318.49,351.085 316.41,352.581 z "
   a:adobe-blending-mode="normal"
   i:knockout="Off" />

						
							<radialGradient
   gradientUnits="userSpaceOnUse"
   fy="338.6152"
   fx="302.668"
   r="35.9935"
   cy="338.6152"
   cx="302.668"
   id="radialGradient56903">
							<stop
   id="stop56905"
   style="stop-color:#FFFFFF"
   offset="0" />

							<stop
   id="stop56907"
   style="stop-color:#929CA6"
   offset="1" />

							<a:midPointStop
   style="stop-color:#FFFFFF"
   offset="0" />

							<a:midPointStop
   style="stop-color:#FFFFFF"
   offset="0.5" />

							<a:midPointStop
   style="stop-color:#929CA6"
   offset="1" />

						</radialGradient>

						<path
   style="fill:url(#XMLID_1723_)"
   id="path22283"
   d="M 322.531,350.423 C 323.553,351.007 325.086,350.058 325.779,349.218 C 326.472,348.38 327.019,347.32 328.479,347.759 C 327.384,347.284 326.253,349.146 326.181,350.239 C 327.056,350.385 327.749,349.436 328.954,349.401 C 329.501,349.401 329.712,349.807 330.194,349.583 C 330.741,349.327 331.252,348.853 329.866,347.831 C 328.478,346.81 326.617,345.569 323.881,346.919 C 321.145,348.269 322.19,350.228 322.531,350.423 z "
   a:adobe-blending-mode="normal"
   i:knockout="Off" />

						
							<radialGradient
   gradientUnits="userSpaceOnUse"
   fy="338.61819"
   fx="302.668"
   r="35.9809"
   cy="338.61819"
   cx="302.668"
   id="radialGradient56910">
							<stop
   id="stop56912"
   style="stop-color:#FFFFFF"
   offset="0" />

							<stop
   id="stop56914"
   style="stop-color:#929CA6"
   offset="1" />

							<a:midPointStop
   style="stop-color:#FFFFFF"
   offset="0" />

							<a:midPointStop
   style="stop-color:#FFFFFF"
   offset="0.5" />

							<a:midPointStop
   style="stop-color:#929CA6"
   offset="1" />

						</radialGradient>

						<path
   style="fill:url(#XMLID_1724_)"
   id="path22290"
   d="M 302.504,346.931 C 303.186,347.32 304.207,346.689 304.67,346.128 C 305.133,345.569 305.498,344.862 306.471,345.155 C 305.741,344.839 304.987,346.079 304.938,346.809 C 305.522,346.907 305.985,346.274 306.788,346.248 C 307.152,346.248 307.294,346.521 307.614,346.371 C 307.98,346.199 308.321,345.883 307.396,345.203 C 306.471,344.521 305.231,343.693 303.405,344.594 C 301.58,345.495 302.277,346.802 302.504,346.931 z "
   a:adobe-blending-mode="normal"
   i:knockout="Off" />

						
							<radialGradient
   gradientUnits="userSpaceOnUse"
   fy="338.61719"
   fx="302.668"
   r="35.9865"
   cy="338.61719"
   cx="302.668"
   id="radialGradient56917">
							<stop
   id="stop56919"
   style="stop-color:#FFFFFF"
   offset="0" />

							<stop
   id="stop56921"
   style="stop-color:#929CA6"
   offset="1" />

							<a:midPointStop
   style="stop-color:#FFFFFF"
   offset="0" />

							<a:midPointStop
   style="stop-color:#FFFFFF"
   offset="0.5" />

							<a:midPointStop
   style="stop-color:#929CA6"
   offset="1" />

						</radialGradient>

						<path
   style="fill:url(#XMLID_1725_)"
   id="path22297"
   d="M 302.752,354.517 C 302.124,354.517 301.186,354.996 300.709,353.701 C 300.232,352.408 301.526,351.658 301.799,351.658 C 300.504,351.861 299.619,353.359 299.823,354.111 C 298.869,353.496 299.209,352.134 299.823,351.726 C 299.279,351.861 299.209,352.134 299.209,352.134 C 298.732,352.679 298.895,349.82 300.451,349.093 C 302.178,348.288 303.639,349.341 304.115,349.749 C 304.932,349.409 306.363,350.02 306.636,350.362 C 306.909,350.704 308.407,352.473 307.181,352.133 C 306.568,351.996 305.887,350.156 304.252,350.975 C 305.138,350.838 305.954,351.315 306.159,351.996 C 306.237,352.258 306.362,352.473 306.022,353.154 C 305.87,353.46 304.251,354.517 302.752,354.517 z "
   a:adobe-blending-mode="normal"
   i:knockout="Off" />

						
							<radialGradient
   gradientUnits="userSpaceOnUse"
   fy="338.61429"
   fx="302.66891"
   r="35.990799"
   cy="338.61429"
   cx="302.66891"
   id="radialGradient56924">
							<stop
   id="stop56926"
   style="stop-color:#FFFFFF"
   offset="0" />

							<stop
   id="stop56928"
   style="stop-color:#929CA6"
   offset="1" />

							<a:midPointStop
   style="stop-color:#FFFFFF"
   offset="0" />

							<a:midPointStop
   style="stop-color:#FFFFFF"
   offset="0.5" />

							<a:midPointStop
   style="stop-color:#929CA6"
   offset="1" />

						</radialGradient>

						<path
   style="fill:url(#XMLID_1726_)"
   id="path22304"
   d="M 314.355,345.622 C 313.728,345.622 312.789,346.101 312.312,344.804 C 311.835,343.511 313.128,342.761 313.402,342.761 C 312.107,342.966 311.222,344.464 311.425,345.214 C 310.472,344.601 310.812,343.239 311.425,342.829 C 310.881,342.966 310.812,343.239 310.812,343.239 C 310.336,343.784 310.812,341.671 311.904,341.057 C 312.994,340.444 315.242,340.444 315.718,340.852 C 316.535,340.512 317.966,341.125 318.238,341.467 C 318.511,341.807 320.009,343.578 318.785,343.237 C 318.17,343.102 317.49,341.262 315.854,342.079 C 316.74,341.942 317.558,342.421 317.762,343.102 C 317.84,343.362 317.966,343.579 317.625,344.26 C 317.474,344.565 315.854,345.622 314.355,345.622 z "
   a:adobe-blending-mode="normal"
   i:knockout="Off" />

						
							<radialGradient
   gradientUnits="userSpaceOnUse"
   fy="338.61621"
   fx="302.66699"
   r="35.9925"
   cy="338.61621"
   cx="302.66699"
   id="radialGradient56931">
							<stop
   id="stop56933"
   style="stop-color:#FFFFFF"
   offset="0" />

							<stop
   id="stop56935"
   style="stop-color:#929CA6"
   offset="1" />

							<a:midPointStop
   style="stop-color:#FFFFFF"
   offset="0" />

							<a:midPointStop
   style="stop-color:#FFFFFF"
   offset="0.5" />

							<a:midPointStop
   style="stop-color:#929CA6"
   offset="1" />

						</radialGradient>

						<path
   style="fill:url(#XMLID_1727_)"
   id="path22311"
   d="M 306.837,359.265 C 305.888,358.425 304.246,358.132 303.26,359.703 C 302.64,358.572 303.881,357.842 303.881,357.842 C 302.421,357.877 302.129,359.776 302.166,359.922 C 300.925,358.317 302.312,355.287 304.61,355.106 C 306.91,354.922 308.113,356.493 308.077,357.368 C 307.018,356.274 305.742,356.565 305.742,356.565 C 305.742,356.565 308.916,357.767 306.837,359.265 z "
   a:adobe-blending-mode="normal"
   i:knockout="Off" />

						
							<radialGradient
   gradientUnits="userSpaceOnUse"
   fy="338.61911"
   fx="302.668"
   r="35.987801"
   cy="338.61911"
   cx="302.668"
   id="radialGradient56938">
							<stop
   id="stop56940"
   style="stop-color:#FFFFFF"
   offset="0" />

							<stop
   id="stop56942"
   style="stop-color:#929CA6"
   offset="1" />

							<a:midPointStop
   style="stop-color:#FFFFFF"
   offset="0" />

							<a:midPointStop
   style="stop-color:#FFFFFF"
   offset="0.5" />

							<a:midPointStop
   style="stop-color:#929CA6"
   offset="1" />

						</radialGradient>

						<path
   style="fill:url(#XMLID_1728_)"
   id="path22318"
   d="M 304.6,363.985 C 303.112,363.038 301.204,362.87 300.621,364.571 C 300.244,365.673 301.275,366.534 302.49,366.628 C 303.707,366.722 306.603,366.907 307.258,367.655 C 306.323,365.505 305.628,364.64 304.6,363.985 z "
   a:adobe-blending-mode="normal"
   i:knockout="Off" />

					</g>
    <g
       transform="matrix(1.0412698,0,0,1.0412698,-304.28281,-348.7469)"
       id="g22320"
       a:adobe-blending-mode="softLight"
       i:knockout="Off">
						<path
   style="fill:#c8d0d9"
   id="path22322"
   d="M 324.896,357.065 C 325.443,354.395 329.126,353.444 331.534,355.016 C 329.327,352.346 324.596,353.145 323.935,356.176 C 324.418,356.409 324.773,356.728 324.896,357.065 z "
   a:adobe-blending-mode="normal"
   i:knockout="Off" />

						<path
   style="fill:#c8d0d9"
   id="path22324"
   d="M 301.063,364.159 C 302.431,363.487 304.925,363.636 305.813,364.522 C 306.736,360.461 312.584,355.542 318.822,358.28 C 319.929,355.6 322.457,355.493 323.893,356.159 C 323.316,354.852 319.325,353.858 317.849,357.43 C 311.611,354.69 305.763,359.61 304.839,363.67 C 303.952,362.783 301.458,362.635 300.09,363.307 C 297.366,364.645 297.232,368.293 299.347,369.332 C 298.354,367.827 298.865,365.237 301.063,364.159 z "
   a:adobe-blending-mode="normal"
   i:knockout="Off" />

						<path
   style="fill:#c8d0d9"
   id="path22326"
   d="M 301.796,370.468 C 301.598,370.478 301.411,370.468 301.233,370.448 C 301.852,371.563 302.737,372.571 303.848,373.444 C 302.948,372.554 302.254,371.552 301.796,370.468 z "
   a:adobe-blending-mode="normal"
   i:knockout="Off" />

						<path
   style="fill:#c8d0d9"
   id="path22328"
   d="M 323.936,356.177 C 323.922,356.169 323.908,356.165 323.894,356.159 C 323.903,356.177 323.916,356.194 323.923,356.214 C 323.926,356.2 323.932,356.188 323.936,356.177 z "
   a:adobe-blending-mode="normal"
   i:knockout="Off" />

					</g>
    <g
       transform="matrix(1.0412698,0,0,1.0412698,-304.28281,-348.7469)"
       id="g22330"
       a:adobe-blending-mode="softLight"
       i:knockout="Off">
						<path
   style="fill:#c8d0d9"
   id="path22332"
   d="M 309.172,353.642 L 309.297,353.601 C 308.852,349.122 315.653,346.777 317.981,350.093 C 318.466,347.911 320.482,348.48 321.024,349.792 C 323.271,345.386 329.641,346.337 331.505,350.038 C 330.358,345.556 323.092,344.05 320.658,348.819 C 320.116,347.508 318.1,346.938 317.615,349.12 C 315.289,345.804 308.487,348.149 308.931,352.628 L 308.806,352.669 C 307.839,352.894 306.938,353.548 306.593,354.528 C 306.837,354.624 307.068,354.741 307.284,354.874 C 307.729,354.241 308.43,353.813 309.172,353.642 z "
   a:adobe-blending-mode="normal"
   i:knockout="Off" />

						<path
   style="fill:#c8d0d9"
   id="path22334"
   d="M 334.488,355.239 C 334.242,353.985 333.256,352.958 331.974,352.954 C 331.931,353.288 331.863,353.632 331.754,353.987 C 332.936,353.71 333.944,354.308 334.488,355.239 z "
   a:adobe-blending-mode="normal"
   i:knockout="Off" />

					</g>
    <g
       transform="matrix(1.0412698,0,0,1.0412698,-304.28281,-348.7469)"
       id="g22336"
       a:adobe-blending-mode="softLight">
						<path
   style="fill:#dbdfe6"
   id="path22338"
   d="M 310.328,347.247 C 308.172,341.151 316.804,337.757 320.252,342.763 C 320.9,342.054 323.014,340.896 325.022,342.087 C 325.362,342.288 325.621,342.515 325.844,342.747 C 325.597,342.163 325.162,341.571 324.362,341.095 C 322.352,339.904 320.239,341.062 319.591,341.769 C 316.143,336.763 307.51,340.158 309.668,346.255 C 308.396,345.681 306.75,346.757 307.419,348.511 L 307.418,348.505 C 307.59,348.507 307.761,348.536 307.933,348.583 C 308.025,347.399 309.299,346.782 310.328,347.247 z "
   a:adobe-blending-mode="normal"
   i:knockout="Off" />

						<path
   style="fill:#c8d0d9"
   id="path22340"
   d="M 328.252,345.63 C 328.123,344.792 327.363,344.382 326.726,344.421 C 326.821,344.874 326.825,345.288 326.827,345.593 C 327.196,345.333 327.789,345.351 328.252,345.63 z "
   a:adobe-blending-mode="normal"
   i:knockout="Off" />

					</g>
    <g
       transform="matrix(1.0412698,0,0,1.0412698,-304.28281,-348.7469)"
       id="g22342"
       a:adobe-blending-mode="softLight"
       i:knockout="Off">
						<path
   style="fill:#dbdfe6"
   id="path22344"
   d="M 298.298,355.28 L 298.244,355.251 C 297.756,354.3 297.355,352.694 298.555,350.942 C 299.965,348.879 302.727,348.385 304.625,349.254 L 304.618,349.248 C 305.317,349.535 306.017,349.986 306.683,350.639 C 307.466,349.61 308.565,349.424 309.567,350.022 C 309.695,349.825 309.835,349.637 309.991,349.459 L 309.97,349.482 C 309.97,349.482 309.693,348.955 309.239,349.408 C 308.085,348.193 306.626,348.191 305.652,349.469 C 304.986,348.817 304.287,348.365 303.587,348.08 L 303.596,348.084 C 301.696,347.215 298.936,347.709 297.524,349.772 C 296.325,351.524 296.725,353.131 297.215,354.083 L 297.267,354.112 C 296.552,354.38 296.495,355.788 297.724,356.331 L 297.689,356.339 C 297.726,356.329 297.766,356.325 297.804,356.319 C 297.742,355.853 297.933,355.419 298.298,355.28 z "
   a:adobe-blending-mode="normal"
   i:knockout="Off" />

					</g>
    <g
       transform="matrix(1.0412698,0,0,1.0412698,-304.28281,-348.7469)"
       id="g22346"
       a:adobe-blending-mode="softLight">
						<path
   style="fill:#ebeef2"
   id="path22348"
   d="M 307.15,345.368 C 307.483,344.673 308.566,344.389 309.346,344.862 C 309.337,344.751 309.329,344.641 309.328,344.524 C 308.651,343.348 307,343.583 306.575,344.471 C 304.992,342.598 300.275,343.903 301.274,347.686 L 301.285,347.688 C 301.432,347.678 301.579,347.682 301.725,347.684 C 301.642,344.61 305.702,343.655 307.15,345.368 z "
   a:adobe-blending-mode="normal"
   i:knockout="Off" />

					</g>
    <g
       transform="matrix(1.0412698,0,0,1.0412698,-304.28281,-348.7469)"
       id="g22350"
       a:adobe-blending-mode="softLight"
       i:knockout="Off">
						<path
   style="fill:#c8d0d9"
   id="path22352"
   d="M 311.023,357.21 C 311.095,357.185 311.168,357.153 311.241,357.128 L 311.222,357.12 C 310.661,356.483 309.872,356.313 309.197,356.491 C 309.42,356.737 309.627,357.003 309.813,357.296 C 310.188,357.146 310.613,357.112 311.023,357.21 z "
   a:adobe-blending-mode="normal"
   i:knockout="Off" />

						<path
   style="fill:#c8d0d9"
   id="path22354"
   d="M 297.887,363.899 C 296.336,362.805 296.883,361.254 297.705,360.879 C 296.494,360.172 296.596,358.457 297.521,357.608 C 298.218,356.967 299.527,356.573 300.987,357.85 C 301.777,356.27 303.79,354.743 305.978,354.926 C 306.888,355.002 307.654,355.278 308.304,355.711 C 307.505,354.852 306.472,354.307 305.126,354.197 C 302.938,354.013 300.926,355.539 300.136,357.121 C 298.677,355.844 297.366,356.238 296.67,356.877 C 295.743,357.727 295.643,359.443 296.854,360.148 C 296.032,360.525 295.485,362.074 297.035,363.169 C 296.177,363.829 296.393,365.392 297.611,365.923 C 297.211,365.241 297.296,364.354 297.887,363.899 z "
   a:adobe-blending-mode="normal"
   i:knockout="Off" />

					</g>
    <g
       transform="matrix(1.0412698,0,0,1.0412698,-304.28281,-348.7469)"
       id="g22356">
						<path
   style="fill:none;stroke:#ffffff;stroke-width:0.48018292"
   id="path22358"
   d="M 328.201,346.423 C 328.65,344.7 326.928,344.064 326.165,344.601 C 326.162,343.773 326.133,342.146 324.361,341.095 C 322.351,339.904 320.238,341.062 319.59,341.769 C 316.142,336.763 307.509,340.158 309.667,346.255 C 308.376,345.673 306.704,346.788 307.447,348.585"
   i:knockout="Off" />

						<path
   style="fill:none;stroke:#ffffff;stroke-width:0.48018292"
   id="path22360"
   d="M 309.329,344.524 C 308.652,343.348 307.001,343.583 306.576,344.471 C 304.993,342.598 300.276,343.903 301.275,347.686"
   i:knockout="Off" />

						<path
   style="fill:none;stroke:#ffffff;stroke-width:0.48018292"
   id="path22362"
   d="M 303.386,348.091 C 301.486,347.222 298.936,347.71 297.524,349.773 C 295.926,352.111 297.17,354.187 297.678,354.796"
   i:knockout="Off" />

						<path
   style="fill:none;stroke:#ffffff;stroke-width:0.48018292"
   id="path22364"
   d="M 297.267,354.112 C 296.538,354.385 296.493,355.844 297.799,356.362"
   i:knockout="Off" />

						<path
   style="fill:none;stroke:#ffffff;stroke-width:0.48018292"
   id="path22366"
   d="M 306.581,354.567 C 307.249,352.561 310.228,351.893 311.443,353.413"
   i:knockout="Off" />

						<path
   style="fill:none;stroke:#ffffff;stroke-width:0.48018292"
   id="path22368"
   d="M 311.15,353.12 C 311.818,352.39 314.19,351.477 315.588,353.667"
   i:knockout="Off" />

						<path
   style="fill:none;stroke:#ffffff;stroke-width:0.48018292"
   id="path22370"
   d="M 308.951,352.798 C 308.312,348.208 315.26,345.761 317.615,349.12 C 318.1,346.938 320.116,347.509 320.658,348.819 C 323.572,343.108 333.421,346.391 331.389,353.014 C 333.968,352.409 335.746,355.952 333.585,358.114 C 334.978,358.253 335.494,361.884 333.312,362.614 C 333.73,363.52 333.9,364.665 333.208,366.18 C 332.235,368.307 329.499,370.313 327.128,370.618"
   i:knockout="Off" />

						<path
   style="fill:none;stroke:#ffffff;stroke-width:0.48018292"
   id="path22372"
   d="M 309.202,356.948 C 308.347,355.466 306.978,354.352 305.127,354.198 C 302.939,354.014 300.927,355.54 300.137,357.122 C 298.678,355.845 297.367,356.239 296.671,356.878 C 295.744,357.728 295.644,359.444 296.855,360.149 C 296.033,360.526 295.486,362.075 297.036,363.17 C 296.1,363.889 296.429,365.699 297.956,366.055"
   i:knockout="Off" />

						<path
   style="fill:none;stroke:#ffffff;stroke-width:0.48018292"
   id="path22374"
   d="M 297.567,349.774 C 298.722,347.768 302.551,346.43 305.652,349.469 C 306.626,348.192 308.085,348.194 309.239,349.408"
   i:knockout="Off" />

						<path
   style="fill:none;stroke:#ffffff;stroke-width:0.48018292"
   id="path22376"
   d="M 304.791,365.396 C 303.926,360.833 311.961,352.953 319.867,358.587"
   i:knockout="Off" />

						<path
   style="fill:none;stroke:#ffffff;stroke-width:0.48018292"
   id="path22378"
   d="M 317.838,357.462 C 319.32,353.796 323.437,354.876 323.923,356.214"
   i:knockout="Off" />

						<path
   style="fill:none;stroke:#ffffff;stroke-width:0.48018292"
   id="path22380"
   d="M 323.923,356.214 C 324.697,352.441 331.75,352.075 332.582,357.462"
   i:knockout="Off" />

						<path
   style="fill:none;stroke:#ffffff;stroke-width:0.48018292"
   id="path22382"
   d="M 308.961,356.565 C 309.683,356.276 310.596,356.409 311.223,357.12"
   i:knockout="Off" />

						<path
   style="fill:none;stroke:#ffffff;stroke-width:0.48018292"
   id="path22384"
   d="M 304.84,363.671 C 303.953,362.784 301.459,362.636 300.091,363.308 C 296.84,364.904 297.264,369.812 300.823,369.617 C 302.578,373.783 307.765,376.738 315.011,376.773 C 322.23,376.808 329.56,373.97 329.467,369.845"
   i:knockout="Off" />

					</g>
    <circle
       transform="matrix(1.0412698,0,0,1.0412698,-304.28281,-348.7469)"
       style="fill:none;stroke:#ed2728;stroke-width:0.96036583;stroke-dasharray:1.72865854, 2.40091463"
       sodipodi:ry="22.5"
       sodipodi:rx="22.5"
       sodipodi:cy="358.04199"
       sodipodi:cx="315.203"
       id="circle22388"
       r="22.5"
       cy="358.04199"
       cx="315.203"
       i:knockout="Off" />
  </g>
</svg>
