<?xml version="1.0" encoding="UTF-8" standalone="no"?>
<!-- Created with Inkscape (http://www.inkscape.org/) -->
<svg
   xmlns:i="http://ns.adobe.com/AdobeIllustrator/10.0/"
   xmlns:a="http://ns.adobe.com/AdobeSVGViewerExtensions/3.0/"
   xmlns:dc="http://purl.org/dc/elements/1.1/"
   xmlns:cc="http://web.resource.org/cc/"
   xmlns:rdf="http://www.w3.org/1999/02/22-rdf-syntax-ns#"
   xmlns:svg="http://www.w3.org/2000/svg"
   xmlns="http://www.w3.org/2000/svg"
   xmlns:sodipodi="http://sodipodi.sourceforge.net/DTD/sodipodi-0.dtd"
   xmlns:inkscape="http://www.inkscape.org/namespaces/inkscape"
   width="48px"
   height="48px"
   id="svg56722"
   sodipodi:version="0.32"
   inkscape:version="0.45.1"
   sodipodi:docbase="C:\dev\src\houdini\support\icons\SHELF"
   sodipodi:docname="convert_to_fire.svg"
   inkscape:output_extension="org.inkscape.output.svg.inkscape">
  <defs
     id="defs56724">
    <radialGradient
       gradientUnits="userSpaceOnUse"
       fy="274.2666"
       fx="314.85159"
       r="21.886999"
       cy="274.2666"
       cx="314.85159"
       id="XMLID_1702_">
						<stop
   id="stop22058"
   style="stop-color:#F17912"
   offset="0" />

						<stop
   id="stop22060"
   style="stop-color:#F6E94F"
   offset="0.3483" />

						<stop
   id="stop22062"
   style="stop-color:#FAAF3E"
   offset="0.6034" />

						<stop
   id="stop22064"
   style="stop-color:#FBBE62"
   offset="0.662" />

						<stop
   id="stop22066"
   style="stop-color:#FDDAA5"
   offset="0.7792" />

						<stop
   id="stop22068"
   style="stop-color:#FEEED6"
   offset="0.8777" />

						<stop
   id="stop22070"
   style="stop-color:#FFFAF4"
   offset="0.9523" />

						<stop
   id="stop22072"
   style="stop-color:#FFFFFF"
   offset="0.9944" />

						<a:midPointStop
   style="stop-color:#F17912"
   offset="0" />

						<a:midPointStop
   style="stop-color:#F17912"
   offset="0.5" />

						<a:midPointStop
   style="stop-color:#F6E94F"
   offset="0.3483" />

						<a:midPointStop
   style="stop-color:#F6E94F"
   offset="0.5" />

						<a:midPointStop
   style="stop-color:#FAAF3E"
   offset="0.6034" />

						<a:midPointStop
   style="stop-color:#FAAF3E"
   offset="0.4194" />

						<a:midPointStop
   style="stop-color:#FFFFFF"
   offset="0.9944" />

					</radialGradient>
    <linearGradient
       y2="254.9117"
       x2="314.8457"
       y1="293.7695"
       x1="314.8457"
       gradientUnits="userSpaceOnUse"
       id="XMLID_1703_"
       gradientTransform="matrix(1.0412698,0,0,1.0412698,-303.9173,-261.51452)">
						<stop
   id="stop22077"
   style="stop-color:#E86712"
   offset="0" />

						<stop
   id="stop22079"
   style="stop-color:#D52E0C"
   offset="0.6221" />

						<stop
   id="stop22081"
   style="stop-color:#CB1009"
   offset="1" />

						<a:midPointStop
   style="stop-color:#E86712"
   offset="0" />

						<a:midPointStop
   style="stop-color:#E86712"
   offset="0.4689" />

						<a:midPointStop
   style="stop-color:#CB1009"
   offset="1" />

					</linearGradient>
    <linearGradient
       y2="247.325"
       x2="314.35349"
       y1="291.228"
       x1="314.35349"
       gradientUnits="userSpaceOnUse"
       id="XMLID_1704_"
       gradientTransform="matrix(1.0412698,0,0,1.0412698,-303.91731,-261.51453)">
						<stop
   id="stop22086"
   style="stop-color:#EBD30F"
   offset="0" />

						<stop
   id="stop22088"
   style="stop-color:#E86712"
   offset="0.3933" />

						<stop
   id="stop22090"
   style="stop-color:#D52E0C"
   offset="0.7707" />

						<stop
   id="stop22092"
   style="stop-color:#CB1009"
   offset="1" />

						<a:midPointStop
   style="stop-color:#EBD30F"
   offset="0" />

						<a:midPointStop
   style="stop-color:#EBD30F"
   offset="0.5" />

						<a:midPointStop
   style="stop-color:#E86712"
   offset="0.3933" />

						<a:midPointStop
   style="stop-color:#E86712"
   offset="0.4689" />

						<a:midPointStop
   style="stop-color:#CB1009"
   offset="1" />

					</linearGradient>
    <linearGradient
       y2="269.37781"
       x2="315.67191"
       y1="293.12549"
       x1="315.67191"
       gradientUnits="userSpaceOnUse"
       id="XMLID_1705_"
       gradientTransform="matrix(1.0412698,0,0,1.0412698,-303.91731,-261.51453)">
						<stop
   id="stop22097"
   style="stop-color:#FFFFFF"
   offset="0.1236" />

						<stop
   id="stop22099"
   style="stop-color:#FBF6B9"
   offset="0.2068" />

						<stop
   id="stop22101"
   style="stop-color:#F8ED6D"
   offset="0.3036" />

						<stop
   id="stop22103"
   style="stop-color:#F6E94F"
   offset="0.3483" />

						<stop
   id="stop22105"
   style="stop-color:#FAAF3E"
   offset="0.6067" />

						<stop
   id="stop22107"
   style="stop-color:#F17912"
   offset="1" />

						<a:midPointStop
   style="stop-color:#FFFFFF"
   offset="0.1236" />

						<a:midPointStop
   style="stop-color:#FFFFFF"
   offset="0.4689" />

						<a:midPointStop
   style="stop-color:#F6E94F"
   offset="0.3483" />

						<a:midPointStop
   style="stop-color:#F6E94F"
   offset="0.5" />

						<a:midPointStop
   style="stop-color:#FAAF3E"
   offset="0.6067" />

						<a:midPointStop
   style="stop-color:#FAAF3E"
   offset="0.5" />

						<a:midPointStop
   style="stop-color:#F17912"
   offset="1" />

					</linearGradient>
    <linearGradient
       gradientTransform="matrix(0.9519289,-0.4220267,0.4220267,0.9519289,-191.52681,-694.99256)"
       y2="704.70111"
       x2="-88.272003"
       y1="728.89447"
       x1="-88.272003"
       gradientUnits="userSpaceOnUse"
       id="XMLID_1706_">
						<stop
   id="stop22112"
   style="stop-color:#FFFFFF"
   offset="0.1236" />

						<stop
   id="stop22114"
   style="stop-color:#FBF6B9"
   offset="0.2068" />

						<stop
   id="stop22116"
   style="stop-color:#F8ED6D"
   offset="0.3036" />

						<stop
   id="stop22118"
   style="stop-color:#F6E94F"
   offset="0.3483" />

						<stop
   id="stop22120"
   style="stop-color:#FAAF3E"
   offset="0.6067" />

						<stop
   id="stop22122"
   style="stop-color:#F17912"
   offset="1" />

						<a:midPointStop
   style="stop-color:#FFFFFF"
   offset="0.1236" />

						<a:midPointStop
   style="stop-color:#FFFFFF"
   offset="0.4689" />

						<a:midPointStop
   style="stop-color:#F6E94F"
   offset="0.3483" />

						<a:midPointStop
   style="stop-color:#F6E94F"
   offset="0.5" />

						<a:midPointStop
   style="stop-color:#FAAF3E"
   offset="0.6067" />

						<a:midPointStop
   style="stop-color:#FAAF3E"
   offset="0.5" />

						<a:midPointStop
   style="stop-color:#F17912"
   offset="1" />

					</linearGradient>
  </defs>
  <sodipodi:namedview
     id="base"
     pagecolor="#ffffff"
     bordercolor="#666666"
     borderopacity="1.0"
     inkscape:pageopacity="0.0"
     inkscape:pageshadow="2"
     inkscape:zoom="7"
     inkscape:cx="24"
     inkscape:cy="24"
     inkscape:current-layer="layer1"
     showgrid="true"
     inkscape:grid-bbox="true"
     inkscape:document-units="px"
     inkscape:window-width="744"
     inkscape:window-height="573"
     inkscape:window-x="66"
     inkscape:window-y="72" />
  <metadata
     id="metadata56727">
    <rdf:RDF>
      <cc:Work
         rdf:about="">
        <dc:format>image/svg+xml</dc:format>
        <dc:type
           rdf:resource="http://purl.org/dc/dcmitype/StillImage" />
      </cc:Work>
    </rdf:RDF>
  </metadata>
  <g
     id="layer1"
     inkscape:label="Layer 1"
     inkscape:groupmode="layer">
    <circle
       transform="matrix(1.0412698,0,0,1.0412698,-303.91731,-261.51453)"
       sodipodi:ry="21.886999"
       sodipodi:rx="21.886999"
       sodipodi:cy="274.267"
       sodipodi:cx="314.85199"
       style="fill:url(#XMLID_1702_)"
       id="circle22074"
       r="21.886999"
       cy="274.267"
       cx="314.85199"
       i:knockout="Off" />
    <path
       style="fill:url(#XMLID_1703_);stroke:#99140d;stroke-width:0.99999994"
       id="path22083"
       d="M 23.92858,44.84268 C 16.147171,44.84268 5.4668666,39.805016 3.3072731,26.584014 C 3.1802381,25.045017 3.0542445,23.166566 3.3270572,21.410985 C 3.1083905,23.071811 8.3168221,28.431226 8.3168221,25.77703 C 8.3168221,23.83402 5.3231714,21.766058 5.3231714,18.852585 C 4.8546,12.794478 8.3990824,11.08263 11.048072,7.7797224 C 10.217139,10.583862 9.1050633,14.367836 12.501685,16.817944 C 12.501685,16.817944 17.175945,20.269754 17.175945,14.11689 C 17.175945,6.1001542 19.268898,3.826021 22.10011,3.4615765 C 18.498358,7.9640271 29.876313,12.408167 31.401773,17.406262 C 31.401773,15.952649 36.169748,11.678237 25.770586,3.3813988 C 29.533735,4.0665543 34.331906,4.4372463 39.436211,10.254821 C 42.359055,13.586884 40.273392,18.317373 41.876947,20.628992 C 42.812008,19.693931 42.376757,16.695074 42.800554,15.382033 C 44.161493,18.140357 44.955982,23.172814 44.590497,26.220611 C 43.061912,38.927226 31.786002,44.84268 23.92858,44.84268 z "
       i:knockout="Off" />
    <path
       style="fill:url(#XMLID_1704_)"
       id="path22094"
       d="M 20.503844,8.2191387 C 18.289063,10.757755 22.291705,21.564053 13.995908,20.269755 L 11.444797,19.369056 L 9.8839335,18.419418 C 9.3174827,18.010199 8.5677684,17.047024 8.2939145,16.320218 C 8.0544224,16.989755 7.7097621,18.190339 8.743743,20.419697 C 9.7017113,22.486618 11.370867,24.159939 11.370867,25.737462 C 11.370867,28.209437 10.08594,28.768599 9.426816,29.111177 C 9.0582065,29.30277 5.9385621,28.196942 4.9670573,27.682555 C 9.7704351,31.971545 11.485406,44.131494 23.929622,44.131494 C 24.609571,44.131494 38.308517,43.471329 40.037025,30.61477 C 40.636797,26.365348 41.940467,24.726389 41.848835,24.030821 C 41.564568,24.613932 39.637178,25.541704 38.91766,26.261221 C 37.240174,24.239075 38.509482,18.405882 38.558422,15.893297 C 38.62194,12.751786 37.110016,9.9278625 36.232225,9.0407006 C 35.603298,8.4076085 34.887946,7.5256529 33.757127,6.8675704 C 35.865698,9.8393545 35.581432,16.197348 31.269533,23.621602 C 30.405279,16.482656 19.423006,13.013145 20.503844,8.2191387 C 20.915146,9.5071895 20.533,7.776599 20.503844,8.2191387 z "
       i:knockout="Off" />
    <path
       style="fill:url(#XMLID_1705_)"
       id="path22109"
       d="M 30.866562,40.187164 C 30.363628,40.80672 30.338638,39.369767 30.696835,37.500688 C 28.348771,39.84771 29.13493,42.22597 26.898282,43.24225 C 22.875857,44.427215 28.260263,38.667951 25.530054,35.106809 C 25.530054,38.122326 22.715501,44.023202 21.774194,43.560878 C 21.278549,43.441132 20.798524,43.343253 20.536124,43.142288 C 19.10646,42.465462 19.059603,39.422872 18.148492,38.149399 C 18.148492,39.188586 17.905876,40.641158 17.587247,40.262135 C 16.287743,38.712726 12.400682,35.148459 12.400682,33.110694 C 12.400682,27.880396 14.26872,25.13665 12.657876,22.159659 C 15.364136,23.190516 19.486524,29.631812 21.715882,29.390237 C 22.761317,27.219189 19.89366,26.098783 19.485482,24.329666 C 19.092924,22.631355 19.105419,21.343304 19.871794,19.332612 C 20.047768,25.461526 30.436517,27.782516 30.436517,30.918821 C 31.081063,30.275316 33.963298,28.747774 33.399971,25.931139 C 33.076136,24.240116 35.854244,19.445069 36.620619,18.680777 C 36.10519,20.81538 35.529368,25.65312 36.749736,29.792167 C 37.650435,32.851418 37.007971,34.784015 35.718879,36.330301 C 34.459984,37.838059 32.073394,38.699189 30.866562,40.187164 z "
       i:knockout="Off" />
    <path
       style="fill:url(#XMLID_1706_)"
       id="path22124"
       d="M 31.433013,28.086567 C 28.477889,24.698275 22.899806,22.984345 21.759616,20.41345 C 21.069254,18.853628 20.873495,17.242783 20.685025,15.048828 C 24.918828,21.00385 28.012441,21.261043 30.020009,24.28385 C 30.871768,25.570859 31.253914,26.931799 31.433013,28.086567 z "
       i:knockout="Off" />
    <circle
       transform="matrix(1.0412698,0,0,1.0412698,-303.91731,-261.51453)"
       style="fill:none;stroke:#ed2728;stroke-width:0.96036583;stroke-dasharray:1.72865854, 2.40091463"
       sodipodi:ry="22.5"
       sodipodi:rx="22.5"
       sodipodi:cy="274.267"
       sodipodi:cx="314.85199"
       id="circle22386"
       r="22.5"
       cy="274.267"
       cx="314.85199"
       i:knockout="Off" />
  </g>
</svg>
