<?xml version="1.0" encoding="UTF-8" standalone="no"?>
<!-- Created with Inkscape (http://www.inkscape.org/) -->

<svg
   xmlns:dc="http://purl.org/dc/elements/1.1/"
   xmlns:cc="http://creativecommons.org/ns#"
   xmlns:rdf="http://www.w3.org/1999/02/22-rdf-syntax-ns#"
   xmlns:svg="http://www.w3.org/2000/svg"
   xmlns="http://www.w3.org/2000/svg"
   xmlns:xlink="http://www.w3.org/1999/xlink"
   xmlns:sodipodi="http://sodipodi.sourceforge.net/DTD/sodipodi-0.dtd"
   xmlns:inkscape="http://www.inkscape.org/namespaces/inkscape"
   width="48px"
   height="48px"
   id="svg11038"
   version="1.1"
   inkscape:version="0.48.5 r10040"
   sodipodi:docname="crown_splash.svg">
  <defs
     id="defs11040">
    <linearGradient
       id="linearGradient12182">
      <stop
         style="stop-color:#ffffff;stop-opacity:1;"
         offset="0"
         id="stop12184" />
      <stop
         style="stop-color:#0c469b;stop-opacity:1;"
         offset="1"
         id="stop12186" />
    </linearGradient>
    <linearGradient
       inkscape:collect="always"
       id="linearGradient12174">
      <stop
         style="stop-color:#002f7c;stop-opacity:1;"
         offset="0"
         id="stop12176" />
      <stop
         style="stop-color:#002f7c;stop-opacity:0;"
         offset="1"
         id="stop12178" />
    </linearGradient>
    <linearGradient
       inkscape:collect="always"
       id="linearGradient12097">
      <stop
         style="stop-color:#003791;stop-opacity:1;"
         offset="0"
         id="stop12099" />
      <stop
         style="stop-color:#003791;stop-opacity:0;"
         offset="1"
         id="stop12101" />
    </linearGradient>
    <linearGradient
       inkscape:collect="always"
       id="linearGradient12089">
      <stop
         style="stop-color:#002f7c;stop-opacity:1;"
         offset="0"
         id="stop12091" />
      <stop
         style="stop-color:#002f7c;stop-opacity:0;"
         offset="1"
         id="stop12093" />
    </linearGradient>
    <linearGradient
       inkscape:collect="always"
       id="linearGradient12081">
      <stop
         style="stop-color:#003791;stop-opacity:1;"
         offset="0"
         id="stop12083" />
      <stop
         style="stop-color:#003791;stop-opacity:0;"
         offset="1"
         id="stop12085" />
    </linearGradient>
    <linearGradient
       inkscape:collect="always"
       id="linearGradient12073">
      <stop
         style="stop-color:#0043b0;stop-opacity:1;"
         offset="0"
         id="stop12075" />
      <stop
         style="stop-color:#0043b0;stop-opacity:0;"
         offset="1"
         id="stop12077" />
    </linearGradient>
    <linearGradient
       inkscape:collect="always"
       id="linearGradient12065">
      <stop
         style="stop-color:#0d65ee;stop-opacity:1;"
         offset="0"
         id="stop12067" />
      <stop
         style="stop-color:#0d65ee;stop-opacity:0;"
         offset="1"
         id="stop12069" />
    </linearGradient>
    <linearGradient
       inkscape:collect="always"
       id="linearGradient12057">
      <stop
         style="stop-color:#0043b0;stop-opacity:1;"
         offset="0"
         id="stop12059" />
      <stop
         style="stop-color:#0043b0;stop-opacity:0;"
         offset="1"
         id="stop12061" />
    </linearGradient>
    <linearGradient
       inkscape:collect="always"
       id="linearGradient12049">
      <stop
         style="stop-color:#0d65ee;stop-opacity:1;"
         offset="0"
         id="stop12051" />
      <stop
         style="stop-color:#0d65ee;stop-opacity:0;"
         offset="1"
         id="stop12053" />
    </linearGradient>
    <linearGradient
       inkscape:collect="always"
       id="linearGradient12041">
      <stop
         style="stop-color:#3884fc;stop-opacity:1;"
         offset="0"
         id="stop12043" />
      <stop
         style="stop-color:#3884fc;stop-opacity:0;"
         offset="1"
         id="stop12045" />
    </linearGradient>
    <radialGradient
       inkscape:collect="always"
       xlink:href="#linearGradient12041"
       id="radialGradient12047"
       cx="17.289257"
       cy="27.577485"
       fx="17.289257"
       fy="27.577485"
       r="29.735004"
       gradientTransform="matrix(1,0,0,0.61759387,0,10.545799)"
       gradientUnits="userSpaceOnUse" />
    <radialGradient
       inkscape:collect="always"
       xlink:href="#linearGradient12049"
       id="radialGradient12055"
       cx="14.635268"
       cy="35.871536"
       fx="14.635268"
       fy="35.871536"
       r="21.231233"
       gradientTransform="matrix(0.85365969,0,0,0.37528732,9.5261586,21.792067)"
       gradientUnits="userSpaceOnUse" />
    <radialGradient
       inkscape:collect="always"
       xlink:href="#linearGradient12057"
       id="radialGradient12063"
       cx="18.989767"
       cy="33.559646"
       fx="18.989767"
       fy="33.559646"
       r="15.890471"
       gradientTransform="matrix(0.90496729,0,0,0.37878942,7.6859353,21.275908)"
       gradientUnits="userSpaceOnUse" />
    <radialGradient
       inkscape:collect="always"
       xlink:href="#linearGradient12065"
       id="radialGradient12071"
       cx="26.885199"
       cy="22.719158"
       fx="26.885199"
       fy="22.719158"
       r="14.938193"
       gradientTransform="matrix(1.3557878,-0.18845581,0.09060049,0.65315464,-9.542543,12.68121)"
       gradientUnits="userSpaceOnUse" />
    <radialGradient
       inkscape:collect="always"
       xlink:href="#linearGradient12073"
       id="radialGradient12079"
       cx="23.618388"
       cy="25.159228"
       fx="23.618388"
       fy="25.159228"
       r="11.131178"
       gradientTransform="matrix(1.0844065,0,0,0.62595917,-0.18803446,9.3537914)"
       gradientUnits="userSpaceOnUse" />
    <radialGradient
       inkscape:collect="always"
       xlink:href="#linearGradient12081"
       id="radialGradient12087"
       cx="23.077506"
       cy="26.003961"
       fx="23.077506"
       fy="26.003961"
       r="9.7329164"
       gradientTransform="matrix(1.0844065,0,0,0.6030727,-0.18803446,10.337149)"
       gradientUnits="userSpaceOnUse" />
    <radialGradient
       inkscape:collect="always"
       xlink:href="#linearGradient12089"
       id="radialGradient12095"
       cx="25.055298"
       cy="28.390715"
       fx="25.055298"
       fy="28.390715"
       r="6.0351255"
       gradientTransform="matrix(1.2088106,0,0,0.56269399,-4.0558115,12.285559)"
       gradientUnits="userSpaceOnUse" />
    <radialGradient
       inkscape:collect="always"
       xlink:href="#linearGradient12097"
       id="radialGradient12103"
       cx="25.489639"
       cy="32.91353"
       fx="25.489639"
       fy="32.91353"
       r="7.4045903"
       gradientTransform="matrix(1.0844065,0,0,0.28275462,1.3119655,24.213554)"
       gradientUnits="userSpaceOnUse" />
    <radialGradient
       inkscape:collect="always"
       xlink:href="#linearGradient12041-2"
       id="radialGradient12047-6"
       cx="17.289257"
       cy="27.577484"
       fx="17.289257"
       fy="27.577484"
       r="29.735004"
       gradientTransform="matrix(0.87103426,0,0,0.55910204,9.2816107,13.153722)"
       gradientUnits="userSpaceOnUse" />
    <linearGradient
       inkscape:collect="always"
       id="linearGradient12041-2">
      <stop
         style="stop-color:#3884fc;stop-opacity:1;"
         offset="0"
         id="stop12043-4" />
      <stop
         style="stop-color:#3884fc;stop-opacity:0;"
         offset="1"
         id="stop12045-5" />
    </linearGradient>
    <radialGradient
       r="29.735004"
       fy="27.577484"
       fx="17.289257"
       cy="27.577484"
       cx="17.289257"
       gradientTransform="matrix(1,0,0,0.61759387,12.445747,1.3324698)"
       gradientUnits="userSpaceOnUse"
       id="radialGradient12150"
       xlink:href="#linearGradient12041-2"
       inkscape:collect="always" />
    <radialGradient
       inkscape:collect="always"
       xlink:href="#linearGradient12174"
       id="radialGradient12180"
       cx="21.045748"
       cy="21.401035"
       fx="21.045748"
       fy="21.401035"
       r="0.66851202"
       gradientTransform="matrix(1.260306,0,0,0.71803343,-9.6053708,8.3807713)"
       gradientUnits="userSpaceOnUse" />
  </defs>
  <sodipodi:namedview
     id="base"
     pagecolor="#ffffff"
     bordercolor="#666666"
     borderopacity="1.0"
     inkscape:pageopacity="0.0"
     inkscape:pageshadow="2"
     inkscape:zoom="14"
     inkscape:cx="22.869424"
     inkscape:cy="24.113022"
     inkscape:current-layer="layer1"
     showgrid="true"
     inkscape:grid-bbox="true"
     inkscape:document-units="px"
     inkscape:window-width="2560"
     inkscape:window-height="1537"
     inkscape:window-x="-8"
     inkscape:window-y="-8"
     inkscape:window-maximized="1" />
  <metadata
     id="metadata11043">
    <rdf:RDF>
      <cc:Work
         rdf:about="">
        <dc:format>image/svg+xml</dc:format>
        <dc:type
           rdf:resource="http://purl.org/dc/dcmitype/StillImage" />
        <dc:title />
      </cc:Work>
    </rdf:RDF>
  </metadata>
  <g
     id="layer1"
     inkscape:label="Layer 1"
     inkscape:groupmode="layer">
    <path
       style="fill:#3465a4;stroke:none"
       d="m 9.6346435,22.540606 c -0.065766,0.460833 -0.2548465,5.064846 1.1179945,6.978291 1.675999,2.335982 4.829703,3.366936 7.628683,4.015808 2.948404,0.683515 6.056771,-0.04725 9.075503,-0.263331 3.081119,-0.220548 6.623029,0.641006 9.207028,-1.053327 2.818173,-1.847882 5.783853,-8.377786 5.063865,-8.75578 C 32.24997,18.486472 9.9674748,20.208466 9.6346435,22.540606 z"
       id="path12170"
       inkscape:connector-curvature="0"
       sodipodi:nodetypes="sssssss" />
    <path
       inkscape:connector-curvature="0"
       id="path12116"
       d="M 12.229544,44.930969 C 11.04432,43.063545 8.4409333,44.056291 6.9317681,42.809214 7.210108,41.575745 8.3687944,40.080934 6.4866434,39.360917 c -2.3444453,-0.635361 -4.527697,1.06178 -6.851494,1.093468 -0.8732642,-2.094587 2.7473026,-2.250633 3.9226379,-3.294529 2.5054864,-1.07398 0.5029884,-3.685599 -1.5453463,-2.939532 -1.21461116,0.12771 -5.182036,0.2717 -2.8513704,-1.50929 1.68710424,-1.459478 3.7948843,-2.234292 5.5659104,-3.563887 2.528689,0.02839 3.320534,-2.844555 4.9969642,-4.243554 1.2528218,-1.416884 3.1432018,-1.914976 4.6654018,-2.542151 0.794887,-2.215975 -0.721136,-4.027394 -1.835864,-5.75283 l 4.622271,3.733166 2.680262,-1.275195 3.039408,-0.797125 -0.579367,-2.701495 c 0.954552,1.758412 2.488768,2.361471 4.108806,1.31969 2.16862,-0.354739 2.406487,-4.644998 2.566471,-4.940203 -0.109855,1.872006 0.515374,4.755901 2.785447,3.862904 1.677522,1.616003 4.143082,-4.187745 3.519746,-0.351812 0.247391,1.003408 2.799562,1.311344 3.464633,0.755321 0.806724,-1.092062 0.920916,-3.047656 2.418451,-3.386307 -1.478581,1.357205 -1.449628,4.550625 0.477511,5.433502 0.974277,0.336907 3.123031,-1.903753 2.753922,0.331927 -1.11514,0.252614 -1.57254,1.935265 -1.406598,2.867225 0.755594,-0.202829 3.455114,-2.086907 1.622274,-0.304942 -0.704325,0.711045 -1.890692,1.868067 -0.245963,0.961499 -0.699657,0.965764 -0.748514,1.907028 0.726645,1.319295 2.166898,-0.356635 3.442056,1.967895 4.441107,3.55674 1.122074,2.623382 1.038655,6.234443 -1.428967,8.01493 -1.678484,1.221772 -2.728264,3.780156 -5.012333,3.391075 -1.618981,1.293877 -3.733922,1.72838 -5.6693,2.244324 -2.327922,0.632217 -4.649224,0.325625 -6.538661,2.075734 -2.141762,0.97917 -4.479931,1.311718 -6.712957,2.00862 -3.104783,0.882887 -6.312651,0.211158 -9.471787,0.414217 -0.810335,-0.05245 -1.722983,0.062 -2.48496,-0.210733 z"
       style="color:#000000;fill:url(#radialGradient12047-6);fill-opacity:1;fill-rule:nonzero;stroke-width:1;stroke-linecap:butt;stroke-linejoin:miter;stroke-miterlimit:4;stroke-opacity:1;stroke-dasharray:none;stroke-dashoffset:0;marker:none;visibility:visible;display:inline;overflow:visible;enable-background:accumulate"
       sodipodi:nodetypes="ccccccccccccccccccccccccccccccccccc" />
    <path
       inkscape:connector-curvature="0"
       id="path11804"
       d="m 33.697447,30.409353 c 0.01148,0.243031 0.254324,0.543249 0.868924,0.770015 1.929054,0.657024 4.27379,-2.549903 5.577575,-1.017457 -0.888384,1.212199 -2.607686,3.285201 -1.377903,4.837106 -0.884046,2.685836 -4.488955,1.583098 -6.093859,3.567958 -2.544566,2.721605 -6.552727,2.929529 -9.839081,4.370932 -0.504547,0.20535 -1.079815,0.39683 -1.624004,0.204751 -1.741046,-1.727821 -4.373544,0.128148 -6.234627,-0.895213 0.180255,-1.945511 -0.06123,-3.123814 -2.44728,-3.033503 C 10.768035,38.33934 9.096486,37.120207 7.6143869,35.873698 8.758115,33.696809 6.7430837,32.503253 4.6232247,32.661783 2.0551748,31.233804 7.0145833,29.900917 8.2225205,29.272443 10.545099,28.431762 12.297674,26.486418 14.88212,27.645375 c 3.177064,-0.01685 4.062476,3.651841 6.925946,4.173189 2.061487,1.510415 4.708257,1.07185 6.944148,0.262076 1.222934,-4.92e-4 3.224478,-0.444998 3.186318,-0.817591"
       style="fill:url(#radialGradient12055);fill-opacity:1" />
    <path
       style="fill:url(#radialGradient12063);fill-opacity:1"
       d="m 27.261175,39.964821 c -1.786809,-1.569092 -5.282831,0.653781 -6.010049,-2.341832 -2.177898,-0.922641 -4.223528,-2.099831 -5.956945,-3.769235 -1.264804,-1.781756 -3.455525,-2.493186 -4.803483,-3.728919 0.383161,-2.55197 3.813646,-2.745361 5.316628,-1.070925 1.635507,1.737219 3.39175,3.191421 5.703149,3.909639 2.445117,1.696294 4.914595,-0.121478 7.428195,-0.301006 2.227702,0.244793 4.179429,-0.713011 6.348845,-0.907193 1.507814,-0.434506 5.563411,-2.657321 3.2834,0.396635 -1.577907,2.106077 -3.874122,3.561867 -5.775738,5.36458 -1.633744,0.989667 -3.5211,2.788772 -5.534002,2.448256 z"
       id="path11875"
       inkscape:connector-curvature="0" />
    <path
       style="fill:url(#radialGradient12103);fill-opacity:1"
       d="m 22.854012,35.529296 c -1.368658,0.09421 -3.155538,-1.475983 -0.740009,-1.371981 2.887304,-1.753959 6.26705,-0.949524 9.379033,-1.190263 1.681216,-0.860068 7.690614,-3.206707 4.638463,0.429535 -2.440142,2.319052 -5.873904,1.631947 -8.892372,1.901322 -1.443329,0.09436 -2.950066,0.485272 -4.385115,0.231387 z"
       id="path11814"
       inkscape:connector-curvature="0" />
    <path
       style="fill:#002f7c"
       d="m 24.915357,34.091746 c 1.025555,-2.133661 6.140613,0.318488 1.965849,-0.04909 -0.654938,0.0277 -1.310365,0.04305 -1.965849,0.04909 z"
       id="path11753-0"
       inkscape:connector-curvature="0" />
    <path
       style="fill:#68a3fd;fill-opacity:1;stroke:none"
       d="m 24.922754,5.7970439 c -0.381188,0.00505 -0.751536,0.2763645 -0.745529,0.7802284 0.01196,1.0077272 0.955781,4.7239877 -0.338878,6.2418267 -1.294657,1.517836 -3.828609,1.708797 -5.01538,1.085533 -1.18677,-0.623263 -0.722056,-1.932434 -1.321619,-2.340686 -0.599564,-0.40825 -1.005975,-0.120862 -1.35551,0.407077 -0.349532,0.527947 0.584103,2.013899 0.304992,2.340683 -0.279113,0.326789 -1.01155,0.591032 -1.796049,0.576691 -0.893868,-0.01633 -1.865046,-0.369216 -2.338253,-0.712382 -0.473203,-0.343165 -0.488299,-1.583992 -1.084407,-2.0693 -0.596106,-0.485308 -1.2471469,-0.253448 -1.4910572,0.474922 -0.2439125,0.72837 0.7364372,1.294885 0.4066522,1.967531 -0.329786,0.672647 -1.555164,1.13852 -2.270477,1.187305 -0.7153119,0.04879 -2.6070078,-2.4759 -3.049893,-3.053067 -0.4428849,-0.577169 -1.1579815,0.322388 -1.0844061,0.746305 0.073577,0.423917 1.2101285,1.028623 1.7621606,1.763992 0.5520305,0.735373 1.212343,1.95064 1.3555079,2.84953 0.143166,0.898893 -0.7348842,0.920873 -0.3727652,2.069301 0.362119,1.148429 1.5939298,2.641449 1.7960489,3.222683 0.202117,0.581232 0.1466218,0.767464 0.1694375,0.915918 0.02281,0.148457 -0.4435742,0.06236 -0.5760906,0.271385 -0.1325153,0.209033 0.2912335,0.601105 0,0.848073 -0.2912325,0.246968 -0.7888572,0.06887 -1.4232827,-0.237461 -0.6344266,-0.306336 -1.4121108,-1.896379 -2.0671502,-1.865761 -0.6550401,0.03061 -0.7732455,0.431603 -0.7794171,0.848073 -0.00617,0.416469 0.8631534,0.619472 0.8810795,1.017688 0.017939,0.398219 -0.6480616,0.467768 -0.6099777,0.848076 0.038087,0.380306 0.4268367,0.67179 0.9149674,0.848073 0.4881308,0.176283 1.1859803,-0.07804 1.8638236,-0.101776 0.6778455,-0.0237 1.1296939,-0.369566 2.2027032,-0.03393 1.073006,0.335643 3.564506,1.615402 3.693757,2.645992 0.129257,1.030588 -1.172768,0.667914 -1.084407,1.289072 0.08836,0.621157 1.035248,0.920875 1.728274,1.15338 0.693027,0.232507 1.673566,-0.19097 2.304364,0.135691 0.630798,0.326665 0.777167,1.217462 1.219958,1.526535 0.442788,0.309072 0.754224,0.373941 1.219957,0.407075 0.465733,0.03313 1.160153,-0.423145 1.491059,-0.271383 0.330904,0.151759 -0.0061,0.37475 0.338877,0.57669 0.344822,0.201938 1.253576,0.333356 1.728272,0.03393 0.474696,-0.299435 -0.176953,-0.869047 0.677754,-1.492612 0.854709,-0.623562 3.359071,-0.180884 4.676505,-0.542768 1.317431,-0.361882 2.487896,-0.96827 3.185443,-1.424764 0.697545,-0.456494 0.69879,-1.027681 1.118293,-1.017689 0.419506,0.01001 0.5855,0.502653 0.711643,0.712382 0.126144,0.209731 -0.79907,-0.086 0.13555,0.440999 0.934623,0.526988 4.717059,-0.813546 5.794799,-1.458687 1.077739,-0.645143 0.681855,-1.1787 1.050518,-1.15338 0.368665,0.0253 -0.376004,0.547202 0.372764,0.542766 0.748767,-0.0044 1.008869,-2.402345 2.134928,-3.188758 1.126056,-0.786413 2.580394,-3.633299 3.592095,-4.308216 0.625606,-0.417351 0.774288,-1.211777 0.813304,-1.356919 0.03902,-0.145144 0.724618,-0.623504 1.389397,-0.881997 0.664777,-0.258492 0.589974,-1.643022 -0.609981,-1.696149 -1.199952,-0.05313 -3.121669,2.035717 -3.21933,1.628304 -0.09767,-0.407415 0.168245,-0.559181 0.169439,-0.91592 0.0012,-0.377894 -0.571714,-0.77602 -0.440541,-1.153381 0.131171,-0.377362 1.801547,-1.148522 1.829936,-1.797919 0.02837,-0.649394 -0.150051,-0.937683 -0.881079,-1.017689 -0.731029,-0.08 -1.68591,1.560691 -2.168815,1.763996 -0.482901,0.203305 -1.038078,-0.616102 -1.423281,-1.01769 -0.420936,-0.438829 -0.993264,-0.347757 -1.152185,-1.322989 -0.158918,-0.975233 0.143297,-3.315578 1.050521,-3.8672182 0.907223,-0.5516371 0.800341,-2.6367972 -0.508316,-1.5943765 -1.308658,1.0424201 -2.259352,5.0634577 -2.880454,5.4615967 -0.621105,0.398138 -1.36098,-0.439495 -1.999375,-0.746304 -0.755008,-0.362854 -1.464871,-0.04716 -1.491058,-0.712381 -0.02618,-0.665233 0.469199,-1.60002 0.779417,-2.7138396 C 34.5182,8.2451347 32.963943,8.4326236 32.920253,8.8501104 32.876573,9.267598 31.840155,12.429588 30.785327,12.717328 29.7305,13.005068 29.833923,12.212058 28.785952,12.004947 27.790953,11.808301 27.068381,12.263086 26.549365,11.665716 26.030347,11.068348 25.725194,7.4346983 25.702171,6.5094263 25.690712,6.0467904 25.303944,5.7919811 24.922754,5.7970439 z"
       id="path11057"
       inkscape:connector-curvature="0"
       sodipodi:nodetypes="sssssssssssssssssszzzzzzzzzzzzzzzzzzzzzzzzzzzzzzzscssscssssssssssssssssss" />
    <path
       inkscape:connector-curvature="0"
       id="path11859"
       d="m 28.282471,31.448695 c -0.03792,-0.385556 -0.91201,-0.09896 -1.746228,0.205469 -4.259988,1.048214 -9.088042,0.518961 -12.691115,-2.107723 -1.547057,-2.62302 -1.466305,-6.524413 0.487339,-8.87424 1.891538,-2.471693 4.042052,-4.792107 6.946135,-6.004829 2.032462,-1.858056 4.103138,-2.323835 6.160246,-0.347137 1.650281,0.929666 5.065331,-3.87001 4.663063,-0.11479 1.631606,2.226447 4.344646,0.731678 5.547674,-0.498062 -0.571232,2.836051 1.733871,4.170257 4.220875,2.955426 -0.727233,1.492847 -1.363664,3.4619 -0.0868,3.875157 -2.289223,3.040169 2.134824,1.738888 3.381858,2.063153 -2.509498,1.148606 -2.735339,3.550194 -1.153277,5.442328 -1.324007,2.920317 -1.515645,-4.076437 -4.152456,-1.866471 -1.601195,2.458914 -4.401251,4.317469 -7.441478,4.34766 -0.875608,-1.161504 -1.929497,-0.822983 -1.901486,-0.205811"
       style="fill:url(#radialGradient12071);fill-opacity:1" />
    <path
       style="fill:url(#radialGradient12079);fill-opacity:1"
       d="m 20.666714,31.988515 c -2.795591,-0.490532 -7.195487,-1.088956 -7.199074,-4.76487 -0.656957,-3.422143 1.597043,-6.495955 4.634777,-7.825948 3.997795,-1.850722 8.906924,-1.582548 12.866148,0.25118 2.55498,1.733675 6.419899,3.320168 6.526055,6.923861 -0.288693,3.030862 -4.143511,4.885771 -6.583913,3.215949 -3.18942,1.577387 -6.594474,2.58304 -10.243993,2.199828 z"
       id="path11643-2"
       inkscape:connector-curvature="0" />
    <path
       style="fill:url(#radialGradient12087);fill-opacity:1"
       d="m 20.494772,31.792926 c -3.757922,0.512684 -1.003165,-6.300382 -5.002287,-5.666621 -3.433289,-1.538858 1.256513,-5.646733 3.978364,-4.387893 3.062586,-0.03356 6.075316,-3.026184 9.072242,-0.710431 2.45471,2.14981 5.695896,4.168976 6.848707,7.221994 -0.897041,4.120678 -4.651374,0.01938 -6.768319,2.414202 -2.565746,0.954755 -5.396916,1.446024 -8.128707,1.128749 z"
       id="path11808"
       inkscape:connector-curvature="0" />
    <path
       style="fill:url(#radialGradient12095);fill-opacity:1"
       d="m 20.361928,31.585333 c -1.968404,-2.803798 -2.516384,-7.841673 2.448791,-6.496449 3.763037,0.295509 7.993406,1.281328 10.715904,3.850844 -0.767679,2.515384 -3.237244,-1.121362 -4.932997,1.14871 -2.487884,1.33253 -5.449865,1.753693 -8.231698,1.496895 z"
       id="path11749-9"
       inkscape:connector-curvature="0" />
    <path
       style="fill:url(#radialGradient12180);fill-opacity:1"
       d="m 16.112883,24.109156 c -0.47771,-2.214931 3.937028,0.725574 0,0 z"
       id="path11639-6"
       inkscape:connector-curvature="0" />
    <path
       style="fill:#b4d1fc;fill-opacity:1;stroke:none"
       d="m 15.941965,14.889352 c 0.04822,-0.465639 -2.006677,0.08917 -2.711153,-0.13707 -0.704478,-0.226226 -1.064879,-0.463669 -1.451426,-0.93207 -0.386549,-0.468403 -0.465489,-1.317409 -0.712021,-1.68498 -0.246531,-0.367572 -0.769193,-0.318745 -0.6105,0.183866 0.158695,0.502612 1.073344,1.047257 0.772866,1.494462 -0.30048,0.447204 -0.746687,-0.148292 -1.038697,-0.04819 -0.2920141,0.100122 -0.06546,0.43119 -0.2458353,0.668287 -0.3255453,0.427904 -1.1769373,1.115681 -1.9616124,1.142407 -0.7846695,0.02672 -2.8802742,-2.346565 -3.158145,-2.726138 -0.2778722,-0.379572 -0.7132381,0.06075 -0.2898957,0.354433 0.423339,0.293683 2.8590352,2.561172 3.2389256,3.60728 0.3798926,1.046106 -0.2945567,1.514021 -0.048127,2.381683 0.246433,0.86766 1.1385593,1.635894 1.4348136,2.102269 0.2962542,0.466377 0.9457292,0.553812 1.1842172,0.831016 0.23849,0.277204 0.516749,0.710268 0.475516,0.959487 -0.04124,0.24922 -0.177933,0.08265 -0.301235,0.411208 -0.123308,0.328552 0.256582,1.417418 -0.136929,1.590005 C 9.9892157,25.259892 9.5907704,23.480767 8.8765299,23.552125 8.1622894,23.623482 8.355433,25.130497 7.6989585,25.361442 7.042484,25.592387 6.3785482,25.087208 5.7819802,24.730923 5.185411,24.374638 4.5435819,23.218014 4.2791044,23.405649 c -0.264477,0.187633 0.6173627,0.946748 0.6378864,1.239706 0.02052,0.292959 -0.3170086,0.389924 -0.3219815,0.695325 -0.0049,0.305402 0.2424238,0.69769 0.5571059,0.788352 0.3146837,0.09066 0.550737,-0.347434 0.7667917,-0.274139 0.2160548,0.07329 0.2315306,0.382345 0.4367897,0.407883 0.2052602,0.02555 0.5074727,-0.21011 1.2611041,0.112974 0.7536336,0.323095 1.7247824,0.690831 2.4263753,1.325926 0.584642,0.529223 1.427205,1.133682 1.537865,0.999557 0.110666,-0.134129 -0.480756,-0.453792 -0.26721,-0.762887 0.213545,-0.309095 1.094641,0.373228 1.180325,0.06422 0.08568,-0.308995 -0.532397,-1.68439 -0.568717,-3.230994 -0.01237,-0.525895 -0.44611,-0.724424 -0.429863,-1.486712 0.02283,-1.071626 -0.233216,-1.698163 -0.537754,-2.069013 -0.30454,-0.370854 -0.584554,-0.661014 -0.918385,-0.864512 C 9.7056043,20.147839 9.4351965,20.072573 9.179716,19.688132 8.9242354,19.30369 9.069162,18.387663 9.2051679,18.067957 9.3411638,17.74825 9.7871685,17.622292 9.949274,17.832585 c 0.162107,0.210295 0.860207,1.800905 1.309801,1.7171 0.449596,-0.0838 0.0074,-1.795009 0.531663,-2.097567 0.524385,-0.302559 0.567626,-0.113785 0.902239,-0.189243 0.323799,-0.07302 0.745271,-0.351318 0.963628,-0.534636 0.316557,-0.223432 0.620438,-0.235901 0.789653,-0.498912 0.177904,-0.276513 -0.148731,-0.626907 0.116592,-0.76289 0.728625,-0.373432 1.330927,-0.111484 1.379126,-0.577119 z"
       id="path11655"
       inkscape:connector-curvature="0"
       sodipodi:nodetypes="zzzzzzzszzzzzzzzzzzzzzzzzzzzszzzsszzzzzzzscssz" />
    <path
       style="fill:#b4d1fc;fill-opacity:1"
       d="m 21.820389,33.057055 c 0.548233,-1.243321 -2.321307,0.120283 -0.383401,0.264331 0.169374,-0.01808 0.258422,-0.168668 0.383401,-0.264331 z"
       id="path11911"
       inkscape:connector-curvature="0" />
    <path
       style="fill:#b4d1fc;fill-opacity:1"
       d="m 19.798243,32.48813 c -2.139653,-1.088423 -4.699702,-1.286025 -6.541091,-2.940977 -1.734034,-0.213939 0.8716,1.419716 1.487957,1.598477 1.541774,0.774401 3.304749,1.512943 5.053134,1.3425 z"
       id="path11909"
       inkscape:connector-curvature="0" />
    <path
       style="fill:#b4d1fc;fill-opacity:1"
       d="m 39.698914,31.513281 c 1.31554,-0.784426 1.075357,-3.582149 0.578394,-3.864765 -1.035655,0.482982 -0.778518,1.738656 -0.56186,2.128949 -0.360877,0.378364 -1.357757,2.408636 -0.01654,1.735816 z"
       id="path11907"
       inkscape:connector-curvature="0" />
    <path
       style="fill:#b4d1fc;fill-opacity:1"
       d="m 33.264999,31.198532 c 1.241848,-0.861971 -2.521841,-0.15196 -0.756428,0.18998 l 0.388699,-0.05308 0.367729,-0.136904 z"
       id="path11905"
       inkscape:connector-curvature="0" />
    <path
       style="fill:#b4d1fc;fill-opacity:1"
       d="m 43.151232,18.595269 c 0.245012,-1.098636 -0.857874,-2.165271 -0.491294,-0.455788 0.02781,0.237606 0.230169,1.219895 0.491294,0.455788 z"
       id="path11895"
       inkscape:connector-curvature="0" />
    <path
       style="fill:#b4d1fc;fill-opacity:1"
       d="m 18.736266,14.151675 c -0.186739,-0.58501 -1.308246,-2.955347 -1.411394,-1.799245 0.378907,0.634021 0.569955,1.628558 1.411394,1.799245 z"
       id="path11889"
       inkscape:connector-curvature="0" />
    <path
       style="fill:#b4d1fc;fill-opacity:1"
       d="M 26.664023,12.213563 C 26.445198,11.26077 25.748741,9.5167798 25.648331,9.1681464 c 0.06948,0.9595636 -0.404757,2.9343226 1.015692,3.0454166 z"
       id="path11883"
       inkscape:connector-curvature="0" />
    <path
       style="fill:#b4d1fc;fill-opacity:1"
       d="m 25.853683,7.3623186 c 0.175334,-1.4638708 -1.254142,-1.1640559 -0.391523,0.072664 0.160828,0.6930446 0.401968,0.4447232 0.391523,-0.072664 z"
       id="path11651-0"
       inkscape:connector-curvature="0" />
    <path
       style="fill:#b4d1fc;fill-opacity:1;stroke:none"
       d="m 47.254749,17.815465 c -0.401358,-0.33858 -0.817173,-0.186859 -1.1425,0.135692 -0.325328,0.322548 -0.357961,1.107681 -0.697119,1.511993 -0.339156,0.404311 -0.814928,0.427334 -1.123133,0.697844 -0.308206,0.27051 -0.453086,0.75576 0,1.066151 0.453084,0.310389 0.722138,-0.01507 0.987584,-0.387692 0.265443,-0.372617 0.183183,-0.588435 0.48411,-1.027379 0.300929,-0.438946 1.197748,-0.776128 1.510424,-1.066151 0.312676,-0.290025 0.381994,-0.591877 -0.01936,-0.930458 z"
       id="path12114"
       inkscape:connector-curvature="0"
       sodipodi:nodetypes="zzzzzzzzz" />
    <path
       sodipodi:nodetypes="sssssssssssssssssszzzzzzzzzzzzzzzzzzzzzzzzzzzzzzzscssscssssssssssssssssss"
       inkscape:connector-curvature="0"
       id="path12172"
       d="m 24.922754,5.797044 c -0.381189,0.00505 -0.751538,0.2763642 -0.74553,0.7802281 0.01197,1.0077273 0.955782,4.7239889 -0.338878,6.2418239 -1.294657,1.517837 -3.828608,1.708798 -5.015379,1.085536 -1.186771,-0.623263 -0.722057,-1.932434 -1.32162,-2.340685 -0.599563,-0.40825 -1.005976,-0.120863 -1.35551,0.407076 -0.349533,0.527947 0.584104,2.013898 0.304991,2.340684 -0.279112,0.326787 -1.011548,0.59103 -1.796049,0.576689 -0.893868,-0.01633 -1.865046,-0.369215 -2.338252,-0.712382 -0.473202,-0.343164 -0.488298,-1.583992 -1.084405,-2.069299 -0.596107,-0.485308 -1.2471483,-0.25345 -1.4910575,0.474923 -0.2439136,0.728369 0.7364355,1.294884 0.4066495,1.96753 -0.3297833,0.672647 -1.5551614,1.138518 -2.2704756,1.187305 -0.715313,0.04878 -2.6070076,-2.4759 -3.0498926,-3.053068 -0.442885,-0.577169 -1.1579816,0.322388 -1.0844061,0.746305 0.073577,0.423917 1.2101284,1.028623 1.7621613,1.763993 0.5520305,0.735372 1.2123407,1.95064 1.3555057,2.849528 0.1431682,0.898893 -0.734882,0.920874 -0.3727641,2.069304 0.362119,1.148428 1.5939309,2.641447 1.796049,3.222679 0.2021181,0.581234 0.1466218,0.767467 0.1694386,0.91592 0.02281,0.148456 -0.4435764,0.06236 -0.5760918,0.271385 -0.1325142,0.209031 0.2912347,0.601106 0,0.848073 -0.2912335,0.246969 -0.788856,0.06887 -1.4232815,-0.23746 -0.6344267,-0.306337 -1.4121119,-1.896382 -2.067151,-1.865761 -0.6550401,0.03061 -0.7732456,0.431603 -0.7794172,0.848072 -0.00617,0.41647 0.8631535,0.619471 0.8810796,1.017689 0.017939,0.398219 -0.6480617,0.467767 -0.6099777,0.848075 0.038087,0.380307 0.4268366,0.67179 0.9149673,0.848073 0.4881308,0.176284 1.1859788,-0.07804 1.8638244,-0.101776 0.6778456,-0.02371 1.1296917,-0.369566 2.2027011,-0.03393 1.0730083,0.335644 3.5645066,1.615401 3.6937586,2.645991 0.129255,1.03059 -1.172769,0.667914 -1.084408,1.289072 0.08836,0.621158 1.035249,0.920876 1.728275,1.153381 0.693026,0.232506 1.673566,-0.190972 2.304362,0.135692 0.630799,0.326664 0.777169,1.217461 1.219959,1.526533 0.442789,0.309072 0.754223,0.373942 1.219957,0.407076 0.465733,0.03314 1.160154,-0.423144 1.491057,-0.271385 0.330906,0.151761 -0.0061,0.374753 0.33888,0.576691 0.344822,0.20194 1.253576,0.333357 1.728272,0.03393 0.474696,-0.299433 -0.176953,-0.869045 0.677753,-1.492608 0.85471,-0.623564 3.359071,-0.180885 4.676505,-0.542769 1.31743,-0.361885 2.487896,-0.968271 3.185444,-1.424765 0.697546,-0.456494 0.698788,-1.027681 1.118292,-1.017689 0.419506,0.01001 0.5855,0.502653 0.711644,0.712382 0.126143,0.209731 -0.799071,-0.086 0.13555,0.440999 0.934623,0.526989 4.717058,-0.813546 5.794798,-1.458687 1.077739,-0.645143 0.681855,-1.178699 1.050518,-1.153379 0.368665,0.0253 -0.376004,0.547201 0.372764,0.542766 0.748768,-0.0044 1.008869,-2.402346 2.134927,-3.188759 1.126056,-0.786413 2.580395,-3.633299 3.592096,-4.308216 0.625605,-0.41735 0.774288,-1.211775 0.813304,-1.356918 0.03902,-0.145144 0.724618,-0.623505 1.389397,-0.881998 0.664775,-0.258493 0.589974,-1.643021 -0.609981,-1.696148 -1.199952,-0.05313 -3.12167,2.035717 -3.21933,1.628303 -0.09767,-0.407415 0.168244,-0.55918 0.169438,-0.91592 0.0012,-0.377894 -0.571714,-0.776018 -0.440541,-1.153381 0.131172,-0.377363 1.801547,-1.148522 1.829937,-1.797919 0.02838,-0.649393 -0.150052,-0.937682 -0.88108,-1.017687 -0.731028,-0.08 -1.68591,1.560689 -2.168814,1.763995 -0.482901,0.203308 -1.038078,-0.616098 -1.423282,-1.017687 -0.420936,-0.438833 -0.993261,-0.347761 -1.152184,-1.322992 -0.158919,-0.975233 0.143296,-3.315579 1.050522,-3.8672183 0.907222,-0.5516371 0.800339,-2.6367971 -0.508317,-1.5943765 -1.308658,1.04242 -2.259352,5.0634588 -2.880455,5.4615968 -0.621105,0.398137 -1.360978,-0.439495 -1.999374,-0.746304 -0.755008,-0.362859 -1.464872,-0.04717 -1.491059,-0.712388 -0.02619,-0.665232 0.469199,-1.600018 0.779417,-2.7138373 0.310215,-1.1138199 -1.244044,-0.926331 -1.287734,-0.5088441 -0.04369,0.4174877 -1.080096,3.5794764 -2.134924,3.8672194 -1.054829,0.287737 -0.951404,-0.505271 -1.999376,-0.712383 -0.995,-0.196647 -1.717569,0.258139 -2.236586,-0.339232 C 26.030345,11.068346 25.725192,7.4346981 25.702171,6.5094261 25.690711,6.0467902 25.303943,5.7919808 24.922754,5.797044 z"
       style="fill:none;stroke:#204a87;stroke-width:0.49999994;stroke-linecap:butt;stroke-linejoin:miter;stroke-miterlimit:4;stroke-opacity:1;stroke-dasharray:none" />
  </g>
</svg>
