<?xml version="1.0" encoding="UTF-8" standalone="no"?>
<!-- Generator: Adobe Illustrator 15.0.0, SVG Export Plug-In . SVG Version: 6.00 Build 0)  -->
<svg
   xmlns:dc="http://purl.org/dc/elements/1.1/"
   xmlns:cc="http://creativecommons.org/ns#"
   xmlns:rdf="http://www.w3.org/1999/02/22-rdf-syntax-ns#"
   xmlns:svg="http://www.w3.org/2000/svg"
   xmlns="http://www.w3.org/2000/svg"
   xmlns:xlink="http://www.w3.org/1999/xlink"
   xmlns:sodipodi="http://sodipodi.sourceforge.net/DTD/sodipodi-0.dtd"
   xmlns:inkscape="http://www.inkscape.org/namespaces/inkscape"
   version="1.0"
   id="Layer_1"
   x="0px"
   y="0px"
   width="48"
   height="48"
   viewBox="0 0 612 792"
   enable-background="new 0 0 612 792"
   xml:space="preserve"
   sodipodi:version="0.32"
   inkscape:version="0.46"
   sodipodi:docname="crowd.svg"
   inkscape:output_extension="org.inkscape.output.svg.inkscape"><metadata
   id="metadata10836"><rdf:RDF><cc:Work
       rdf:about=""><dc:format>image/svg+xml</dc:format><dc:type
         rdf:resource="http://purl.org/dc/dcmitype/StillImage" /></cc:Work></rdf:RDF></metadata><defs
   id="defs10834"><linearGradient
   id="linearGradient3923"><stop
     style="stop-color:#bed3e9;stop-opacity:1;"
     offset="0"
     id="stop3925" /><stop
     style="stop-color:#729fcf;stop-opacity:0;"
     offset="1"
     id="stop3927" /></linearGradient><inkscape:perspective
   sodipodi:type="inkscape:persp3d"
   inkscape:vp_x="0 : 396 : 1"
   inkscape:vp_y="0 : 1000 : 0"
   inkscape:vp_z="612 : 396 : 1"
   inkscape:persp3d-origin="306 : 264 : 1"
   id="perspective10838" />
	
	
<linearGradient
   inkscape:collect="always"
   xlink:href="#SVGID_2_"
   id="linearGradient11044"
   gradientUnits="userSpaceOnUse"
   x1="280.00101"
   y1="378.4238"
   x2="303.9679"
   y2="402.63049" /><linearGradient
   inkscape:collect="always"
   xlink:href="#SVGID_12_"
   id="linearGradient11046"
   gradientUnits="userSpaceOnUse"
   x1="258.90869"
   y1="396.04541"
   x2="273.08279"
   y2="415.79309" /><linearGradient
   inkscape:collect="always"
   xlink:href="#SVGID_13_"
   id="linearGradient11048"
   gradientUnits="userSpaceOnUse"
   x1="265.63571"
   y1="390.08789"
   x2="284.02939"
   y2="405.69431" /><linearGradient
   inkscape:collect="always"
   xlink:href="#SVGID_14_"
   id="linearGradient11050"
   gradientUnits="userSpaceOnUse"
   x1="273.17041"
   y1="389.1528"
   x2="283.52139"
   y2="409.8548" /><linearGradient
   inkscape:collect="always"
   xlink:href="#SVGID_15_"
   id="linearGradient11052"
   gradientUnits="userSpaceOnUse"
   x1="281.3237"
   y1="384.01071"
   x2="297.5665"
   y2="401.1297" /><linearGradient
   inkscape:collect="always"
   xlink:href="#SVGID_16_"
   id="linearGradient11054"
   gradientUnits="userSpaceOnUse"
   x1="262.2554"
   y1="403.0654"
   x2="278.89731"
   y2="420.186" /><linearGradient
   inkscape:collect="always"
   xlink:href="#SVGID_17_"
   id="linearGradient11056"
   gradientUnits="userSpaceOnUse"
   x1="274.52591"
   y1="404.2334"
   x2="287.82489"
   y2="416.4975" /><linearGradient
   inkscape:collect="always"
   xlink:href="#SVGID_18_"
   id="linearGradient11058"
   gradientUnits="userSpaceOnUse"
   x1="289.74951"
   y1="386.70169"
   x2="311.2211"
   y2="408.38809" /><linearGradient
   inkscape:collect="always"
   xlink:href="#SVGID_19_"
   id="linearGradient11060"
   gradientUnits="userSpaceOnUse"
   x1="284.043"
   y1="399.7803"
   x2="298.61499"
   y2="413.8746" /><linearGradient
   inkscape:collect="always"
   xlink:href="#SVGID_20_"
   id="linearGradient11062"
   gradientUnits="userSpaceOnUse"
   x1="291.32471"
   y1="401.07809"
   x2="300.7876"
   y2="418.89401" />
		
		
		
		<linearGradient
   id="SVGID_2_"
   gradientUnits="userSpaceOnUse"
   x1="280.00101"
   y1="378.4238"
   x2="303.9679"
   y2="402.63049">
			<stop
   offset="0"
   style="stop-color:#DAEAB9"
   id="stop10484" />
			<stop
   offset="0.0116"
   style="stop-color:#D9E8BA;stop-opacity:0.9884"
   id="stop10486" />
			<stop
   offset="0.1791"
   style="stop-color:#D7E1C5;stop-opacity:0.8209"
   id="stop10488" />
			<stop
   offset="0.3554"
   style="stop-color:#D6DCCD;stop-opacity:0.6446"
   id="stop10490" />
			<stop
   offset="0.542"
   style="stop-color:#D5D9D2;stop-opacity:0.458"
   id="stop10492" />
			<stop
   offset="0.746"
   style="stop-color:#D5D7D6;stop-opacity:0.254"
   id="stop10494" />
			<stop
   offset="1"
   style="stop-color:#D5D7D8;stop-opacity:0"
   id="stop10496" />
		</linearGradient>
		
		
		
		
		
		
		
		
		
		
		<linearGradient
   id="SVGID_12_"
   gradientUnits="userSpaceOnUse"
   x1="258.90869"
   y1="396.04541"
   x2="273.08279"
   y2="415.79309">
			<stop
   offset="0"
   style="stop-color:#DAEAB9"
   id="stop10681" />
			<stop
   offset="0.0116"
   style="stop-color:#D9E8BA;stop-opacity:0.9884"
   id="stop10683" />
			<stop
   offset="0.1791"
   style="stop-color:#D7E1C5;stop-opacity:0.8209"
   id="stop10685" />
			<stop
   offset="0.3554"
   style="stop-color:#D6DCCD;stop-opacity:0.6446"
   id="stop10687" />
			<stop
   offset="0.542"
   style="stop-color:#D5D9D2;stop-opacity:0.458"
   id="stop10689" />
			<stop
   offset="0.746"
   style="stop-color:#D5D7D6;stop-opacity:0.254"
   id="stop10691" />
			<stop
   offset="1"
   style="stop-color:#D5D7D8;stop-opacity:0"
   id="stop10693" />
		</linearGradient>
		
		<linearGradient
   id="SVGID_13_"
   gradientUnits="userSpaceOnUse"
   x1="265.63571"
   y1="390.08789"
   x2="284.02939"
   y2="405.69431">
			<stop
   offset="0"
   style="stop-color:#DAEAB9"
   id="stop10698" />
			<stop
   offset="0.0116"
   style="stop-color:#D9E8BA;stop-opacity:0.9884"
   id="stop10700" />
			<stop
   offset="0.1791"
   style="stop-color:#D7E1C5;stop-opacity:0.8209"
   id="stop10702" />
			<stop
   offset="0.3554"
   style="stop-color:#D6DCCD;stop-opacity:0.6446"
   id="stop10704" />
			<stop
   offset="0.542"
   style="stop-color:#D5D9D2;stop-opacity:0.458"
   id="stop10706" />
			<stop
   offset="0.746"
   style="stop-color:#D5D7D6;stop-opacity:0.254"
   id="stop10708" />
			<stop
   offset="1"
   style="stop-color:#D5D7D8;stop-opacity:0"
   id="stop10710" />
		</linearGradient>
		
		<linearGradient
   id="SVGID_14_"
   gradientUnits="userSpaceOnUse"
   x1="273.17041"
   y1="389.1528"
   x2="283.52139"
   y2="409.8548">
			<stop
   offset="0"
   style="stop-color:#DAEAB9"
   id="stop10715" />
			<stop
   offset="0.0116"
   style="stop-color:#D9E8BA;stop-opacity:0.9884"
   id="stop10717" />
			<stop
   offset="0.1791"
   style="stop-color:#D7E1C5;stop-opacity:0.8209"
   id="stop10719" />
			<stop
   offset="0.3554"
   style="stop-color:#D6DCCD;stop-opacity:0.6446"
   id="stop10721" />
			<stop
   offset="0.542"
   style="stop-color:#D5D9D2;stop-opacity:0.458"
   id="stop10723" />
			<stop
   offset="0.746"
   style="stop-color:#D5D7D6;stop-opacity:0.254"
   id="stop10725" />
			<stop
   offset="1"
   style="stop-color:#D5D7D8;stop-opacity:0"
   id="stop10727" />
		</linearGradient>
		
		<linearGradient
   id="SVGID_15_"
   gradientUnits="userSpaceOnUse"
   x1="281.3237"
   y1="384.01071"
   x2="297.5665"
   y2="401.1297">
			<stop
   offset="0"
   style="stop-color:#DAEAB9"
   id="stop10732" />
			<stop
   offset="0.0116"
   style="stop-color:#D9E8BA;stop-opacity:0.9884"
   id="stop10734" />
			<stop
   offset="0.1791"
   style="stop-color:#D7E1C5;stop-opacity:0.8209"
   id="stop10736" />
			<stop
   offset="0.3554"
   style="stop-color:#D6DCCD;stop-opacity:0.6446"
   id="stop10738" />
			<stop
   offset="0.542"
   style="stop-color:#D5D9D2;stop-opacity:0.458"
   id="stop10740" />
			<stop
   offset="0.746"
   style="stop-color:#D5D7D6;stop-opacity:0.254"
   id="stop10742" />
			<stop
   offset="1"
   style="stop-color:#D5D7D8;stop-opacity:0"
   id="stop10744" />
		</linearGradient>
		
		<linearGradient
   id="SVGID_16_"
   gradientUnits="userSpaceOnUse"
   x1="262.2554"
   y1="403.0654"
   x2="278.89731"
   y2="420.186">
			<stop
   offset="0"
   style="stop-color:#DAEAB9"
   id="stop10749" />
			<stop
   offset="0.0116"
   style="stop-color:#D9E8BA;stop-opacity:0.9884"
   id="stop10751" />
			<stop
   offset="0.1791"
   style="stop-color:#D7E1C5;stop-opacity:0.8209"
   id="stop10753" />
			<stop
   offset="0.3554"
   style="stop-color:#D6DCCD;stop-opacity:0.6446"
   id="stop10755" />
			<stop
   offset="0.542"
   style="stop-color:#D5D9D2;stop-opacity:0.458"
   id="stop10757" />
			<stop
   offset="0.746"
   style="stop-color:#D5D7D6;stop-opacity:0.254"
   id="stop10759" />
			<stop
   offset="1"
   style="stop-color:#D5D7D8;stop-opacity:0"
   id="stop10761" />
		</linearGradient>
		
		<linearGradient
   id="SVGID_17_"
   gradientUnits="userSpaceOnUse"
   x1="274.52591"
   y1="404.2334"
   x2="287.82489"
   y2="416.4975">
			<stop
   offset="0"
   style="stop-color:#DAEAB9"
   id="stop10766" />
			<stop
   offset="0.0116"
   style="stop-color:#D9E8BA;stop-opacity:0.9884"
   id="stop10768" />
			<stop
   offset="0.1791"
   style="stop-color:#D7E1C5;stop-opacity:0.8209"
   id="stop10770" />
			<stop
   offset="0.3554"
   style="stop-color:#D6DCCD;stop-opacity:0.6446"
   id="stop10772" />
			<stop
   offset="0.542"
   style="stop-color:#D5D9D2;stop-opacity:0.458"
   id="stop10774" />
			<stop
   offset="0.746"
   style="stop-color:#D5D7D6;stop-opacity:0.254"
   id="stop10776" />
			<stop
   offset="1"
   style="stop-color:#D5D7D8;stop-opacity:0"
   id="stop10778" />
		</linearGradient>
		
		<linearGradient
   id="SVGID_18_"
   gradientUnits="userSpaceOnUse"
   x1="289.74951"
   y1="386.70169"
   x2="311.2211"
   y2="408.38809">
			<stop
   offset="0"
   style="stop-color:#DAEAB9"
   id="stop10783" />
			<stop
   offset="0.0116"
   style="stop-color:#D9E8BA;stop-opacity:0.9884"
   id="stop10785" />
			<stop
   offset="0.1791"
   style="stop-color:#D7E1C5;stop-opacity:0.8209"
   id="stop10787" />
			<stop
   offset="0.3554"
   style="stop-color:#D6DCCD;stop-opacity:0.6446"
   id="stop10789" />
			<stop
   offset="0.542"
   style="stop-color:#D5D9D2;stop-opacity:0.458"
   id="stop10791" />
			<stop
   offset="0.746"
   style="stop-color:#D5D7D6;stop-opacity:0.254"
   id="stop10793" />
			<stop
   offset="1"
   style="stop-color:#D5D7D8;stop-opacity:0"
   id="stop10795" />
		</linearGradient>
		
		<linearGradient
   id="SVGID_19_"
   gradientUnits="userSpaceOnUse"
   x1="284.043"
   y1="399.7803"
   x2="298.61499"
   y2="413.8746">
			<stop
   offset="0"
   style="stop-color:#DAEAB9"
   id="stop10800" />
			<stop
   offset="0.0116"
   style="stop-color:#D9E8BA;stop-opacity:0.9884"
   id="stop10802" />
			<stop
   offset="0.1791"
   style="stop-color:#D7E1C5;stop-opacity:0.8209"
   id="stop10804" />
			<stop
   offset="0.3554"
   style="stop-color:#D6DCCD;stop-opacity:0.6446"
   id="stop10806" />
			<stop
   offset="0.542"
   style="stop-color:#D5D9D2;stop-opacity:0.458"
   id="stop10808" />
			<stop
   offset="0.746"
   style="stop-color:#D5D7D6;stop-opacity:0.254"
   id="stop10810" />
			<stop
   offset="1"
   style="stop-color:#D5D7D8;stop-opacity:0"
   id="stop10812" />
		</linearGradient>
		
		<linearGradient
   id="SVGID_20_"
   gradientUnits="userSpaceOnUse"
   x1="291.32471"
   y1="401.07809"
   x2="300.7876"
   y2="418.89401">
			<stop
   offset="0"
   style="stop-color:#DAEAB9"
   id="stop10817" />
			<stop
   offset="0.0116"
   style="stop-color:#D9E8BA;stop-opacity:0.9884"
   id="stop10819" />
			<stop
   offset="0.1791"
   style="stop-color:#D7E1C5;stop-opacity:0.8209"
   id="stop10821" />
			<stop
   offset="0.3554"
   style="stop-color:#D6DCCD;stop-opacity:0.6446"
   id="stop10823" />
			<stop
   offset="0.542"
   style="stop-color:#D5D9D2;stop-opacity:0.458"
   id="stop10825" />
			<stop
   offset="0.746"
   style="stop-color:#D5D7D6;stop-opacity:0.254"
   id="stop10827" />
			<stop
   offset="1"
   style="stop-color:#D5D7D8;stop-opacity:0"
   id="stop10829" />
		</linearGradient>
		
	<linearGradient
   inkscape:collect="always"
   xlink:href="#linearGradient3923"
   id="linearGradient3929"
   x1="381.26703"
   y1="427.3772"
   x2="649.05017"
   y2="758.8504"
   gradientUnits="userSpaceOnUse" /><linearGradient
   inkscape:collect="always"
   xlink:href="#linearGradient3923"
   id="linearGradient3931"
   x1="454.55634"
   y1="502.39438"
   x2="671.16681"
   y2="682.71582"
   gradientUnits="userSpaceOnUse" /><linearGradient
   inkscape:collect="always"
   xlink:href="#linearGradient3923"
   id="linearGradient3933"
   x1="453.66458"
   y1="304.94778"
   x2="663.14685"
   y2="580.73352"
   gradientUnits="userSpaceOnUse" /><linearGradient
   inkscape:collect="always"
   xlink:href="#linearGradient3923"
   id="linearGradient3935"
   x1="273.54669"
   y1="291.81272"
   x2="603.76839"
   y2="291.81272"
   gradientUnits="userSpaceOnUse" /><linearGradient
   inkscape:collect="always"
   xlink:href="#linearGradient3923"
   id="linearGradient3937"
   x1="309.21475"
   y1="199.32936"
   x2="490.35608"
   y2="421.19543"
   gradientUnits="userSpaceOnUse" /><linearGradient
   inkscape:collect="always"
   xlink:href="#linearGradient3923"
   id="linearGradient3939"
   x1="161.94525"
   y1="271.36417"
   x2="401.10556"
   y2="585.15881"
   gradientUnits="userSpaceOnUse" /><linearGradient
   inkscape:collect="always"
   xlink:href="#linearGradient3923"
   id="linearGradient3941"
   x1="171.17397"
   y1="504.30347"
   x2="379.75992"
   y2="744.73206"
   gradientUnits="userSpaceOnUse" /><linearGradient
   inkscape:collect="always"
   xlink:href="#linearGradient3923"
   id="linearGradient3943"
   x1="-8.4652386"
   y1="504.71774"
   x2="231.41127"
   y2="721.28021"
   gradientUnits="userSpaceOnUse" /><linearGradient
   inkscape:collect="always"
   xlink:href="#linearGradient3923"
   id="linearGradient3945"
   x1="-53.210361"
   y1="339.4325"
   x2="160.31598"
   y2="741.62"
   gradientUnits="userSpaceOnUse" /><linearGradient
   inkscape:collect="always"
   xlink:href="#linearGradient3923"
   id="linearGradient3947"
   x1="23.986841"
   y1="249.71999"
   x2="236.08246"
   y2="492.80032"
   gradientUnits="userSpaceOnUse" /></defs><sodipodi:namedview
   inkscape:window-height="1538"
   inkscape:window-width="2560"
   inkscape:pageshadow="2"
   inkscape:pageopacity="0.0"
   guidetolerance="10.0"
   gridtolerance="10.0"
   objecttolerance="10.0"
   borderopacity="1.0"
   bordercolor="#666666"
   pagecolor="#ffffff"
   id="base"
   showgrid="false"
   inkscape:zoom="18.666667"
   inkscape:cx="11.963652"
   inkscape:cy="16.738227"
   inkscape:window-x="-8"
   inkscape:window-y="-8"
   inkscape:current-layer="Layer_1" /><path
   stroke-miterlimit="10"
   d="M 233.89996,781.85289 L -67.660033,782.95977 L -67.660033,774.90968 C -67.660033,772.74621 -67.727117,769.37524 -67.794202,765.06508 C -69.840268,654.15822 -60.80068,602.77176 -37.556024,593.32967 C -34.41984,592.07184 -30.830838,590.31088 -26.889645,588.18096 C -26.721934,583.63601 -23.954714,579.52711 -18.587982,571.57764 C -16.609,568.64271 -14.294597,565.18787 -11.76217,561.21314 C -11.1081,560.15656 -11.074558,559.68697 -11.074558,559.68697 C -11.074558,559.23415 -11.862797,557.55705 -12.416241,556.45016 C -12.600722,556.0812 -12.785204,555.66192 -12.986456,555.27619 C -25.564733,555.24265 -32.558255,553.04564 -36.331738,548.01433 C -43.258176,538.75672 -40.910231,530.06932 -39.484693,524.88707 C -39.316982,524.18269 -39.082188,523.3106 -38.94802,522.70684 C -40.272932,520.644 -41.581072,517.37365 -40.172305,513.3486 L -40.272932,513.24797 C -43.224634,508.98813 -41.732012,503.90651 -40.105221,499.44541 C -38.813851,495.99058 -38.696454,492.98856 -39.7698,491.4624 C -40.373558,490.53999 -41.295965,490.40582 -41.815867,490.40582 C -43.00661,490.40582 -70.997469,490.25488 -70.997469,476.45232 C -70.997469,471.73966 -68.196706,467.61399 -62.662265,459.37941 C -60.683282,456.44448 -58.352108,453.00641 -55.853224,449.01491 C -55.182383,447.95833 -55.14884,447.52228 -55.14884,447.52228 C -55.14884,447.06947 -55.95385,445.39236 -56.473752,444.31902 C -58.452735,440.21011 -61.437979,434.0216 -61.085787,423.89189 C -60.750366,415.27158 -58.637216,409.83777 -56.842715,406.34939 C -62.377157,402.89456 -72.288839,396.53834 -72.288839,382.56806 C -72.288839,366.68589 -57.56387,332.75809 -34.436611,327.15656 C -29.371758,325.94904 -22.378236,323.61787 -14.495849,321.01836 C 1.0005879,315.88642 19.683522,309.68114 35.247043,307.7357 C 33.955674,306.32693 32.546907,304.81754 31.104597,303.25783 C 23.322837,294.98971 13.629178,284.6923 11.516027,272.98611 C 8.2121334,254.85662 24.547122,222.7904 37.259568,208.70273 C 48.764498,195.88966 74.457725,173.93637 116.70396,171.00144 L 126.38085,170.28029 C 131.54633,169.87778 135.18565,169.60945 138.12058,169.60945 C 147.22725,169.60945 151.53741,172.30958 161.01304,178.19622 C 167.21833,182.05356 176.57656,187.90665 192.42519,196.40956 C 205.00347,203.16829 215.25057,213.13029 222.91494,226.02721 C 234.65466,222.55561 248.15534,219.23494 259.15714,219.23494 C 262.89709,219.23494 266.26806,219.62068 269.20299,220.39214 C 275.67661,222.05248 284.96777,224.46751 295.28196,228.84475 C 290.83763,223.19291 287.16477,216.95408 285.92372,210.24567 C 285.40382,207.22688 285.38704,203.80559 285.8734,199.89794 C 276.93444,198.25438 269.00174,194.6486 269.00174,187.16872 C 269.00174,182.52315 271.76896,178.43101 277.23632,170.26352 C 279.24885,167.29504 281.59679,163.80667 284.16276,159.76485 C 284.80006,158.70827 284.85037,158.289 284.85037,158.289 C 284.8336,157.81941 284.06213,156.17585 283.52546,155.06896 C 281.54648,150.97683 278.56123,144.78831 278.9302,134.64184 C 279.26562,126.0383 281.37877,120.62125 283.1565,117.09933 C 277.6556,113.66127 267.6936,107.30505 267.6936,93.318005 C 267.6936,77.435834 282.43534,43.508028 305.5626,37.940044 C 310.69454,36.682217 317.77191,34.317501 325.73816,31.650906 C 344.50495,25.41208 367.7496,17.647091 384.67158,17.647091 C 388.39475,17.647091 391.7825,18.032825 394.75097,18.804292 C 415.4632,24.137482 458.63185,35.239908 480.16586,88.337007 C 486.94135,105.0745 488.08179,124.42828 483.46975,145.92874 C 489.32284,151.5135 494.37092,158.07097 498.51337,165.53409 C 514.9993,160.2009 532.70951,155.18636 546.26051,155.18636 C 550.00045,155.18636 553.3882,155.57209 556.32313,156.34356 C 577.05213,161.67675 620.23755,172.77917 641.77156,225.87627 C 659.64948,269.9841 633.70469,319.54251 622.58549,340.7411 C 620.69037,344.34687 619.2816,346.97992 618.7617,348.42223 C 616.95043,353.9399 622.25007,371.96877 636.43837,384.94955 C 645.25993,392.98288 664.17766,399.57389 686.11418,407.13763 L 691.36351,408.9489 L 691.49768,414.51689 C 692.45363,452.10078 692.48717,770.21379 692.48717,773.43383 L 692.48717,781.43361 L 658.40843,781.55101 L 650.59312,781.73549 L 461.71772,782.50696 L 461.71772,782.57404 L 453.68439,782.97655 L 233.89996,781.85289 z"
   id="path10459"
   style="fill:#082a36;stroke:#393e7c;stroke-width:21.80234528000000100;stroke-miterlimit:10;fill-opacity:1" /><path
   stroke-miterlimit="10"
   d="M 683.4979,414.71814 C 659.71657,406.46679 641.00009,399.90931 631.0381,390.83618 C 615.84354,376.93299 607.89407,355.76795 611.18119,345.85626 C 614.48508,335.94458 654.16535,277.76586 634.32522,228.84475 C 614.48508,179.92363 574.82158,169.35788 554.31061,164.05823 C 540.49127,160.486 515.38503,168.31808 494.50509,175.24452 C 489.89306,165.23221 483.46975,156.10876 474.5811,148.69597 C 479.14282,130.38199 480.41742,110.15613 472.73629,91.305481 C 452.89615,42.384369 413.24942,31.818616 392.75522,26.518969 C 372.24424,21.236093 326.66056,41.059457 307.44096,45.705034 C 288.3052,50.317069 275.71016,80.739728 275.71016,93.301234 C 275.71016,105.84597 286.94675,109.16663 291.59233,113.1246 C 296.22113,117.08256 287.61759,117.77018 286.94675,134.92695 C 286.29268,152.13403 297.19385,154.07947 290.90472,164.02469 C 283.00556,176.5862 277.00153,183.8816 277.00153,187.16872 C 277.00153,190.12042 287.95301,192.48514 295.48321,193.00504 C 293.83965,199.00907 293.06818,204.57706 293.83965,208.80336 C 295.34904,217.23919 302.40965,225.38991 309.10129,232.58469 C 309.18514,235.65379 307.37387,239.51113 307.08877,243.97222 C 292.2464,234.71461 277.38726,230.77342 267.20724,228.14036 C 255.88679,225.2222 236.95229,230.00195 218.99051,235.62025 C 212.53366,222.63946 202.9574,211.18485 188.63494,203.50371 C 134.43095,174.38919 155.57923,176.38495 117.24064,179.00123 C 78.885279,181.66782 55.10395,200.82035 43.179743,214.06946 C 31.289079,227.28504 16.73182,257.02009 19.398414,271.5438 C 22.014696,286.11783 41.217532,300.02102 46.500408,309.24509 C 47.406044,310.83834 47.724694,312.96826 47.808549,315.26589 C 25.721095,313.40431 -14.730644,330.62816 -32.591797,334.95509 C -51.74432,339.5839 -64.289055,370.00656 -64.289055,382.56806 C -64.289055,395.1128 -53.102774,398.41669 -48.423655,402.35788 C -43.81162,406.34939 -52.398391,407.00346 -53.102774,424.21054 C -53.723302,441.38409 -42.8389,443.32953 -49.094496,453.27475 C -57.043967,465.85303 -62.997685,473.11489 -62.997685,476.45232 C -62.997685,479.72267 -49.094496,482.38927 -41.832638,482.38927 C -34.554008,482.38927 -27.929449,489.63436 -32.591797,502.21263 C -36.700701,513.38214 -30.579273,506.84144 -27.929449,510.1621 C -27.308921,510.95034 -35.22485,514.79091 -31.920956,518.74887 C -27.644341,523.8305 -37.857902,532.63529 -29.941973,543.21782 C -27.174752,546.89067 -17.883599,547.52797 -7.6364956,547.1087 C -5.1040692,555.10848 -0.39140805,558.1105 -5.020214,565.45621 C -12.969685,578.05126 -18.923403,585.29634 -18.923403,588.63378 C -18.923403,589.52265 -17.766201,590.41151 -16.038785,591.14944 C -22.562718,595.05709 -29.053108,598.49515 -34.554008,600.70893 C -65.781677,613.42137 -59.67702,753.09056 -59.67702,774.89291 L 233.89996,773.83633 L 453.71793,774.92645 C 453.71793,774.80905 453.68439,774.64134 453.68439,774.4904 L 650.52604,773.70216 C 650.52604,773.66862 650.52604,773.56799 650.52604,773.53445 L 684.43707,773.41705 C 684.47062,773.43383 684.45385,452.67099 683.4979,414.71814 z"
   id="path10461"
   style="fill:none;stroke:#e2e5f0;stroke-width:16.77103615;stroke-miterlimit:10" /><path
   d="M 603.76839,557.74153 C 602.42671,549.12122 604.12058,309.73145 561.13642,292.54114 C 518.16902,275.3676 482.48026,267.40136 467.26893,253.54848 C 452.09114,239.64529 444.1249,218.48025 447.37848,208.56856 C 450.68237,198.65688 490.39619,140.44462 470.55605,91.540275 C 450.68237,42.602392 411.05242,32.019869 390.55821,26.753763 C 370.04723,21.454116 324.46356,41.27748 305.26072,45.923057 C 286.1082,50.568634 273.54669,80.957752 273.54669,93.536029 C 273.54669,106.06399 284.74975,109.38466 289.39532,113.35939 C 294.02413,117.33413 285.43736,117.9882 284.74975,135.17851 C 284.11245,152.36882 294.98008,154.31426 288.72448,164.25949 C 280.82532,176.80422 274.83806,184.11639 274.83806,187.42029 C 274.83806,190.72418 288.72448,193.35723 296.00311,193.35723 C 303.29851,193.35723 309.88953,200.63586 305.26072,213.19737 C 301.13505,224.36688 307.27325,217.8094 309.88953,221.13007 C 310.56037,221.95185 302.62767,225.7421 305.91479,229.70007 C 310.17464,234.79846 299.97785,243.60326 307.89377,254.20255 C 313.81395,262.0514 349.53626,256.16476 360.83994,255.51069 C 372.05976,254.85662 362.80215,269.39711 352.87369,279.32556 C 342.94524,289.25402 286.98029,312.73347 303.63393,307.2158 C 319.93538,301.84907 360.42066,279.86224 405.78631,297.20349 C 422.2387,303.49263 470.30449,334.82092 464.87067,388.35407 C 461.6674,420.35321 423.54684,476.77097 442.83353,501.50825 C 488.93711,560.64292 603.76839,557.74153 603.76839,557.74153 z"
   id="path10498"
   style="fill:url(#linearGradient3935);fill-opacity:1" /><path
   d="M 263.73564,773.29966 C 262.41073,764.66257 264.07106,598.32744 221.10366,581.1539 C 178.16981,563.98036 142.44751,556.03089 127.25295,542.16124 C 112.04162,528.27482 104.10892,507.093 107.39604,497.16455 C 110.71671,487.2361 150.39698,429.07414 130.50653,380.15303 C 110.71671,331.23192 71.019663,320.6494 50.508686,315.36652 C 30.01448,310.10042 -15.569196,329.92378 -34.772032,334.53582 C -53.924555,339.18139 -66.46929,369.62082 -66.46929,382.14879 C -66.46929,394.71029 -55.266238,397.99742 -50.60389,401.98892 C -45.975084,405.94689 -54.578625,406.60096 -55.266238,423.79127 C -55.903537,441.01512 -45.019135,442.96056 -51.274731,452.90579 C -59.224202,465.45052 -65.161149,472.74592 -65.161149,476.01627 C -65.161149,479.32017 -51.274731,481.95322 -44.012873,481.95322 C -36.767785,481.95322 -30.109684,489.26539 -34.788803,501.81013 C -38.897707,512.97964 -32.776278,506.47248 -30.109684,509.77637 C -29.489155,510.59815 -37.405084,514.37163 -34.10119,518.37991 C -29.858118,523.44476 -40.038137,532.26633 -32.122208,542.83208 C -26.202032,550.6977 9.5370452,544.79429 20.773639,544.15699 C 31.993462,543.46938 22.752622,558.04341 12.840939,567.97186 C 2.912486,577.88355 -20.868843,593.88312 -36.767785,600.37351 C -67.961912,613.06918 -61.874026,752.70483 -61.874026,774.52394 L 263.73564,773.29966 z"
   id="path10695"
   style="fill:url(#linearGradient3945);fill-opacity:1" /><path
   d="M 308.56462,550.29519 C 307.877,529.11337 300.86671,471.48809 300.86671,471.48809 C 295.58383,460.2515 242.00037,431.17052 224.81006,426.54172 C 207.61975,421.89614 193.73333,410.65955 199.01621,400.73109 C 204.28231,390.83618 234.72174,399.42295 242.63767,387.53229 C 250.58714,375.64162 261.82374,363.71742 259.81121,354.45981 C 257.83223,345.20219 228.09719,350.50184 228.09719,332.65746 C 228.09719,314.81308 240.67546,232.14864 186.43793,203.08444 C 132.23394,173.96992 153.38222,175.96567 115.0604,178.58195 C 76.721815,181.26532 52.940486,200.41784 41.01628,213.65019 C 29.125615,226.86576 14.568356,256.60081 17.234951,271.15807 C 19.851232,285.68179 39.037297,299.58498 44.320174,308.84259 C 49.60305,318.1002 39.037297,343.22321 37.024773,348.50609 C 35.045791,353.78896 46.299156,359.07184 53.561015,357.09286 C 60.839644,355.11388 57.502208,368.36299 55.556768,370.99605 C 53.561015,373.6291 63.472697,372.97503 65.485221,374.95401 C 67.464203,376.96654 64.780838,378.94552 62.818626,382.23264 C 60.839644,385.53654 68.118274,388.8572 70.751326,388.8572 C 73.40115,388.8572 68.755573,397.46074 74.709291,403.39769 C 80.67978,409.33464 113.08142,407.35565 123.6304,402.05601 C 134.19616,396.7899 132.90479,425.20004 124.31802,431.17052 C 115.71447,437.12424 78.046727,443.07796 66.810133,458.94336 C 55.573539,474.80876 64.17708,537.11316 65.501992,549.03736 L 308.56462,550.29519 z"
   id="path10712"
   style="fill:url(#linearGradient3947);fill-opacity:1" /><path
   d="M 478.89126,711.31391 C 477.58312,702.6936 479.24345,510.06148 436.25928,492.88794 C 393.30866,475.68085 357.60313,467.73138 342.40857,453.86174 C 327.18047,439.97532 319.26454,418.81027 322.55166,408.88182 C 325.85555,398.97014 365.53583,340.79141 345.66215,291.88707 C 325.85555,242.93242 286.17528,232.34989 265.66431,227.10056 C 245.1701,221.80091 199.56965,241.6075 180.38359,246.25308 C 161.23107,250.88189 148.68633,281.28778 148.68633,293.86605 C 148.68633,306.39402 159.90615,309.71468 164.5685,313.68942 C 169.18054,317.64738 160.577,318.33499 159.90615,335.50854 C 159.25208,352.68208 170.17003,354.62752 163.89766,364.58951 C 155.94819,377.16779 149.99447,384.42965 149.99447,387.73354 C 149.99447,391.05421 163.89766,393.67049 171.14275,393.67049 C 178.40461,393.67049 185.04594,400.96589 180.38359,413.51062 C 176.29146,424.6969 182.37934,418.13943 185.04594,421.46009 C 185.68324,422.28188 177.76731,426.07213 181.08797,430.04686 C 185.33104,435.16203 175.15103,443.95005 183.05018,454.53258 C 188.98713,462.39819 224.70944,456.51156 235.94603,455.84072 C 247.16585,455.16988 237.92501,469.72714 228.0301,479.65559 C 218.10165,489.58404 194.95762,507.42842 178.42138,512.05723 C 161.90191,516.70281 153.31514,690.71908 153.31514,712.52142 L 478.89126,711.31391 z"
   id="path10729"
   style="fill:url(#linearGradient3939);fill-opacity:1" /><path
   d="M 582.28469,487.50443 C 581.63062,466.37293 574.60356,408.74765 574.60356,408.74765 C 569.33745,397.47751 515.73722,368.39654 498.53014,363.76773 C 481.37337,359.13892 467.47018,347.90233 472.76983,337.99065 C 478.05271,328.07897 508.47536,336.66574 516.39129,324.79184 C 524.35754,312.90118 535.6109,300.9602 533.58161,291.71936 C 531.61939,282.46175 501.86758,287.7614 501.86758,269.91701 C 501.86758,252.03909 514.41231,169.4082 460.20832,140.34399 C 406.02111,111.22947 427.15261,113.22522 388.81402,115.84151 C 350.50898,118.52487 326.71088,137.6774 314.75313,150.90974 C 302.86246,164.12532 288.3052,193.82682 290.9718,208.40085 C 293.60485,222.94134 312.77415,236.84453 318.09056,246.10214 C 323.35667,255.34298 312.79092,280.48277 310.77839,285.76564 C 308.81618,291.04852 320.06955,296.3314 327.31463,294.35241 C 334.61004,292.37343 331.2726,305.62255 329.29362,308.2556 C 327.31463,310.88865 337.22632,310.21781 339.23884,312.18002 C 341.21782,314.19255 338.568,316.17153 336.58902,319.4922 C 334.61004,322.77932 341.87189,326.09998 344.55526,326.09998 C 347.15477,326.09998 342.54274,334.7203 348.49645,340.65724 C 354.46694,346.59419 386.85181,344.63198 397.38402,339.31556 C 407.98332,334.01591 406.67518,362.47636 398.10518,368.39654 C 389.46809,374.35025 351.78358,380.2872 340.54698,396.1526 C 329.29362,412.03477 337.91393,474.35594 339.23884,486.28015 L 582.28469,487.50443 z"
   id="path10746"
   style="fill:url(#linearGradient3937);fill-opacity:1" /><path
   d="M 308.31305,772.61205 C 306.97137,764.02527 308.79941,709.85483 265.84879,692.64775 C 222.89816,675.4742 187.19263,667.50796 171.9813,653.65509 C 156.76997,639.76867 148.85404,618.57008 152.12439,608.6584 C 155.44506,598.74672 195.12533,540.58476 175.26842,491.64688 C 155.44506,442.709 115.74802,432.14324 95.25381,426.87714 C 74.742833,421.57749 29.159157,441.40086 9.9563211,446.02966 C -9.1794309,450.67524 -21.724166,481.08113 -21.724166,493.64263 C -21.724166,506.20414 -10.521114,509.50803 -5.8587658,513.48277 C -1.2299598,517.42396 -9.8335013,518.11157 -10.521114,535.30189 C -11.158413,552.50897 -0.25723976,554.47118 -6.5128362,564.39963 C -14.479078,576.94437 -20.416025,584.25654 -20.416025,587.54366 C -20.416025,590.83079 -6.5128362,593.48061 0.73225136,593.48061 C 7.9773389,593.48061 14.63544,600.74247 9.9563211,613.30397 C 5.8809594,624.50703 11.968845,617.94955 14.63544,621.25345 C 15.27274,622.07523 7.3568106,625.88225 10.660705,629.85699 C 14.903777,634.95538 4.7237579,643.7434 12.639687,654.3427 C 18.576634,662.20832 54.29894,656.32168 65.535534,655.63407 C 76.755357,654.96323 67.514517,669.53726 57.602834,679.44894 C 47.674381,689.39416 24.530351,707.22178 7.9941099,711.85058 C -8.5085895,716.47939 -17.112131,750.1724 -17.112131,772.02506 L 308.31305,772.61205 z"
   id="path10763"
   style="fill:url(#linearGradient3943);fill-opacity:1" /><path
   d="M 452.24208,773.88664 C 451.52093,752.68805 444.54418,732.31125 444.54418,732.31125 C 439.22776,721.05788 385.6443,692.01045 368.48753,687.36487 C 351.29722,682.71929 337.39403,671.49947 342.69367,661.57102 C 347.97655,651.6761 378.41598,660.27965 386.34868,648.38898 C 394.28138,636.48155 405.5012,624.5238 403.48868,615.28296 C 401.52647,606.05889 371.79142,611.32499 371.79142,593.48061 C 371.79142,575.63623 384.35293,492.97179 330.14894,463.89082 C 275.92818,434.80984 297.07646,436.78882 258.73787,439.4051 C 220.39928,442.0717 196.58441,461.22422 184.69374,474.49011 C 172.80308,487.67214 158.24582,517.42396 160.87887,531.99799 C 163.51193,546.53848 182.68122,560.4249 187.98087,569.68251 C 193.24697,578.94012 182.68122,604.06313 180.70224,609.32924 C 178.74003,614.61212 189.97662,619.9453 197.23848,617.94955 C 204.48357,615.9538 201.19644,629.18615 199.21746,631.83597 C 197.23848,634.45225 207.15016,633.81495 209.16269,635.77716 C 211.14167,637.77292 208.4583,639.7519 206.49609,643.05579 C 204.48357,646.35969 211.79574,649.68035 214.44556,649.68035 C 217.06184,649.68035 212.44981,658.28389 218.38676,664.22084 C 224.34047,670.17456 256.74212,668.19558 267.30787,662.89593 C 277.87362,657.61305 276.58225,686.03996 267.96194,691.99368 C 259.37517,697.94739 221.70742,703.90111 210.47083,719.74974 C 199.20069,735.61514 207.80423,760.6543 209.14592,772.5785 L 452.24208,773.88664 z"
   id="path10780"
   style="fill:url(#linearGradient3941);fill-opacity:1" /><path
   d="M 682.15621,414.61751 C 657.93884,406.21522 638.90371,399.64098 628.85786,390.45045 C 613.6633,376.56403 605.69706,355.38221 608.96741,345.47053 C 612.27131,335.55885 651.95158,277.36335 632.12821,228.44224 C 612.27131,179.52113 572.64135,168.92184 552.14714,163.65573 C 531.63617,158.37285 486.03572,178.19622 466.83288,182.82502 C 447.68036,187.4706 435.10208,217.85972 435.10208,230.42122 C 435.10208,242.98273 446.33868,246.28662 450.95071,250.26136 C 455.59629,254.21932 446.99275,254.89017 446.33868,272.08048 C 445.66784,289.27079 456.55224,291.19946 450.31341,301.16145 C 442.38071,313.73973 436.41022,321.01836 436.41022,324.28871 C 436.41022,327.60938 450.31341,330.22566 457.5585,330.22566 C 464.87067,330.22566 471.46169,337.53783 466.83288,350.08257 C 462.69044,361.25208 468.82864,354.71137 471.46169,358.03204 C 472.11576,358.85382 464.2166,362.64407 467.50372,366.63558 C 471.76357,371.7172 461.56678,380.522 469.44916,391.08775 C 475.36934,398.95336 511.10842,393.04996 522.37855,392.39589 C 533.63192,391.75859 524.34076,406.29908 514.41231,416.22753 C 504.48386,426.15598 448.55245,449.58512 465.17255,444.11776 C 481.49077,438.73426 521.97605,416.74743 567.35847,434.07191 C 583.79409,440.36105 631.87665,471.67258 626.44283,525.23926 C 623.22279,557.22163 585.119,613.6394 604.40569,638.41022 C 624.49739,664.20407 657.73758,678.20788 688.78077,685.78839 C 687.4894,624.37286 684.15197,448.74657 682.15621,414.61751 z"
   id="path10797"
   style="fill:url(#linearGradient3933);fill-opacity:1" /><path
   d="M 649.05019,772.61205 C 648.39612,751.46377 641.4026,667.12223 641.4026,667.12223 C 636.08618,655.90241 582.50272,626.80466 565.32918,622.15908 C 548.17241,617.54705 534.26922,606.31045 539.55209,596.382 C 544.8182,586.47032 575.2744,595.05709 583.17356,583.16642 C 591.1398,571.24222 602.3764,559.33478 600.3471,550.11071 C 598.40166,540.83633 568.64984,546.13598 568.64984,528.29159 C 568.64984,510.43044 581.21135,427.766 526.99059,398.71857 C 472.76983,369.60405 493.93488,371.5998 455.57952,374.21609 C 417.22416,376.88268 393.42606,396.0352 381.50185,409.28432 C 369.61119,422.48313 355.05393,452.23495 357.72052,466.7922 C 360.37035,481.31592 379.53964,495.21911 384.82252,504.47672 C 390.12216,513.73433 379.53964,538.85735 377.56066,544.15699 C 375.54813,549.40633 386.8015,554.72275 394.0969,552.76053 C 401.34199,550.74801 398.02132,563.99713 396.05911,566.64695 C 394.0969,569.24646 403.99181,568.60916 405.98756,570.58815 C 407.94978,572.5839 405.29995,574.54611 403.33774,577.86678 C 401.34199,581.13713 408.65416,584.49133 411.27044,584.49133 C 413.93704,584.49133 409.25792,593.07811 415.21163,598.99828 C 421.18212,604.952 453.58376,602.98979 464.18306,597.70691 C 474.73204,592.40726 473.40713,620.83417 464.82036,626.78789 C 456.21682,632.72483 418.5323,638.67855 407.27893,654.52718 C 396.05911,670.39258 406.15527,761.6941 407.44664,773.61831 L 649.05019,772.61205 z"
   id="path10814"
   style="fill:url(#linearGradient3929);fill-opacity:1" /><path
   d="M 681.48537,684.42994 C 649.03342,672.82438 630.61882,664.52272 618.2418,653.25258 C 603.04724,639.34939 595.08099,618.20112 598.38489,608.27266 C 601.70555,598.36098 641.38582,540.18226 621.54569,491.24438 C 601.70555,442.32326 562.04205,431.72397 541.53108,426.47463 C 521.0201,421.20853 475.41965,441.01512 456.25036,445.64393 C 437.08106,450.27273 424.50279,480.71216 424.50279,493.24013 C 424.50279,505.80163 435.73938,509.10553 440.36819,513.08026 C 444.98022,517.02146 436.39345,517.70907 435.73938,534.88261 C 435.08531,552.10646 445.98648,554.0519 439.69735,563.99713 C 431.79819,576.57541 425.81093,583.83726 425.81093,587.12439 C 425.81093,590.44505 439.69735,593.07811 446.97598,593.07811 C 454.27138,593.07811 460.86239,600.37351 456.25036,612.90147 C 452.14146,624.08775 458.26288,617.54705 460.86239,620.86771 C 461.53324,621.68949 453.60054,625.46298 456.88766,629.45448 C 461.1475,634.53611 450.95071,643.32413 458.86664,653.94019 C 464.78682,661.80581 500.50912,655.91918 511.8128,655.23156 C 523.01585,654.56072 513.77501,669.11798 503.84656,679.04644 C 493.93488,688.97489 470.77408,706.8025 454.25461,711.46485 C 437.75191,716.09365 427.42095,751.49731 427.42095,773.31643 L 681.41829,775.42958 C 681.45183,775.39604 682.15621,697.83 681.48537,684.42994 z"
   id="path10831"
   style="fill:url(#linearGradient3931);fill-opacity:1" />

</svg>