<?xml version="1.0" encoding="UTF-8" standalone="no"?>
<!-- Created with Inkscape (http://www.inkscape.org/) -->
<svg
   xmlns:dc="http://purl.org/dc/elements/1.1/"
   xmlns:cc="http://web.resource.org/cc/"
   xmlns:rdf="http://www.w3.org/1999/02/22-rdf-syntax-ns#"
   xmlns:svg="http://www.w3.org/2000/svg"
   xmlns="http://www.w3.org/2000/svg"
   xmlns:xlink="http://www.w3.org/1999/xlink"
   xmlns:sodipodi="http://inkscape.sourceforge.net/DTD/sodipodi-0.dtd"
   xmlns:inkscape="http://www.inkscape.org/namespaces/inkscape"
   inkscape:export-ydpi="90.000000"
   inkscape:export-xdpi="90.000000"
   inkscape:export-filename="/home/jimmac/Desktop/wi-fi.png"
   width="48"
   height="48"
   id="svg11300"
   sodipodi:version="0.32"
   inkscape:version="0.43"
   sodipodi:docbase="E:\dev_clean\src\houdini\support\icons\shelf\model"
   sodipodi:docname="curve_nurbs.svg"
   version="1.0"
   inkscape:r_cx="true"
   inkscape:r_cy="true">
  <defs
     id="defs3">
    <linearGradient
       inkscape:collect="always"
       id="linearGradient2314">
      <stop
         style="stop-color:#000000;stop-opacity:1;"
         offset="0"
         id="stop2316" />
      <stop
         style="stop-color:#000000;stop-opacity:0;"
         offset="1"
         id="stop2318" />
    </linearGradient>
    <linearGradient
       inkscape:collect="always"
       id="linearGradient2280">
      <stop
         style="stop-color:#000000;stop-opacity:1;"
         offset="0"
         id="stop2282" />
      <stop
         style="stop-color:#000000;stop-opacity:0;"
         offset="1"
         id="stop2284" />
    </linearGradient>
    <linearGradient
       inkscape:collect="always"
       id="linearGradient9952">
      <stop
         style="stop-color:#ffffff;stop-opacity:1;"
         offset="0"
         id="stop9954" />
      <stop
         style="stop-color:#ffffff;stop-opacity:0;"
         offset="1"
         id="stop9956" />
    </linearGradient>
    <linearGradient
       id="linearGradient9920">
      <stop
         id="stop9922"
         offset="0"
         style="stop-color:#5b90c8;stop-opacity:1;" />
      <stop
         style="stop-color:#8fb0d1;stop-opacity:1;"
         offset="0.31578946"
         id="stop9924" />
      <stop
         id="stop9926"
         offset="1"
         style="stop-color:#34679d;stop-opacity:1;" />
    </linearGradient>
    <linearGradient
       id="linearGradient9910">
      <stop
         style="stop-color:#729fcf;stop-opacity:1;"
         offset="0"
         id="stop9912" />
      <stop
         id="stop9918"
         offset="0.31578946"
         style="stop-color:#a5bfda;stop-opacity:1;" />
      <stop
         style="stop-color:#376ca4;stop-opacity:1;"
         offset="1"
         id="stop9914" />
    </linearGradient>
    <linearGradient
       id="linearGradient2994">
      <stop
         style="stop-color:#000000;stop-opacity:1;"
         offset="0"
         id="stop2996" />
      <stop
         style="stop-color:#c9c9c9;stop-opacity:1;"
         offset="1"
         id="stop2998" />
    </linearGradient>
    <linearGradient
       id="linearGradient2974">
      <stop
         style="stop-color:#c1c1c1;stop-opacity:1;"
         offset="0"
         id="stop2976" />
      <stop
         style="stop-color:#acacac;stop-opacity:1;"
         offset="1"
         id="stop2978" />
    </linearGradient>
    <linearGradient
       id="linearGradient2966">
      <stop
         style="stop-color:#ffd1d1;stop-opacity:1;"
         offset="0"
         id="stop2968" />
      <stop
         id="stop3006"
         offset="0.5"
         style="stop-color:#ff1d1d;stop-opacity:1;" />
      <stop
         style="stop-color:#6f0000;stop-opacity:1;"
         offset="1"
         id="stop2970" />
    </linearGradient>
    <linearGradient
       id="linearGradient5068">
      <stop
         style="stop-color:#ffffff;stop-opacity:1;"
         offset="0"
         id="stop5070" />
      <stop
         id="stop5078"
         offset="0.32894737"
         style="stop-color:#ffffff;stop-opacity:0.69;" />
      <stop
         id="stop5076"
         offset="0.65789473"
         style="stop-color:#c2c2c2;stop-opacity:0.34;" />
      <stop
         style="stop-color:#ffffff;stop-opacity:0;"
         offset="1"
         id="stop5072" />
    </linearGradient>
    <linearGradient
       id="linearGradient5058">
      <stop
         style="stop-color:#959791;stop-opacity:1;"
         offset="0"
         id="stop5060" />
      <stop
         id="stop5066"
         offset="0.5"
         style="stop-color:#f8f8f8;stop-opacity:1;" />
      <stop
         style="stop-color:#8c8c8c;stop-opacity:1;"
         offset="1"
         id="stop5062" />
    </linearGradient>
    <linearGradient
       id="linearGradient5036">
      <stop
         style="stop-color:#f5f5f5;stop-opacity:0.09;"
         offset="0"
         id="stop5038" />
      <stop
         id="stop5044"
         offset="0.2631579"
         style="stop-color:#ffffff;stop-opacity:0.89999998;" />
      <stop
         style="stop-color:#c7c7c7;stop-opacity:0.46000001;"
         offset="0.74792242"
         id="stop5088" />
      <stop
         style="stop-color:#ffffff;stop-opacity:0.78039217;"
         offset="1"
         id="stop5040" />
    </linearGradient>
    <linearGradient
       inkscape:collect="always"
       xlink:href="#linearGradient9910"
       id="linearGradient1397"
       gradientUnits="userSpaceOnUse"
       gradientTransform="matrix(-0.493304,-0.716654,0.716654,-0.493304,-9.26781,79.4192)"
       x1="28.244684"
       y1="60.445503"
       x2="28.244684"
       y2="68.224884" />
    <linearGradient
       inkscape:collect="always"
       xlink:href="#linearGradient9920"
       id="linearGradient1399"
       gradientUnits="userSpaceOnUse"
       gradientTransform="matrix(-0.493304,-0.716654,0.716654,-0.493304,-9.26781,79.4192)"
       x1="28.244684"
       y1="60.445503"
       x2="28.244684"
       y2="68.224884" />
    <linearGradient
       inkscape:collect="always"
       xlink:href="#linearGradient9910"
       id="linearGradient1401"
       gradientUnits="userSpaceOnUse"
       gradientTransform="matrix(-0.493304,-0.716654,0.716654,-0.493304,-9.26781,79.4192)"
       x1="28.244684"
       y1="60.445503"
       x2="28.244684"
       y2="68.224884" />
    <linearGradient
       inkscape:collect="always"
       xlink:href="#linearGradient9952"
       id="linearGradient1403"
       gradientUnits="userSpaceOnUse"
       gradientTransform="matrix(-0.493304,-0.716654,0.716654,-0.493304,-9.26781,79.4192)"
       x1="55.876038"
       y1="62.401989"
       x2="38.061356"
       y2="62.827091" />
    <linearGradient
       inkscape:collect="always"
       xlink:href="#linearGradient2280"
       id="linearGradient2286"
       x1="2.875"
       y1="23.625"
       x2="12.875"
       y2="11.125"
       gradientUnits="userSpaceOnUse" />
    <linearGradient
       inkscape:collect="always"
       xlink:href="#linearGradient2314"
       id="linearGradient2320"
       x1="14.430814"
       y1="19.954615"
       x2="8.1980467"
       y2="13.483952"
       gradientUnits="userSpaceOnUse"
       gradientTransform="matrix(1.405033,0.18997,-0.176268,1.218539,-1.265942,-13.65936)" />
  </defs>
  <sodipodi:namedview
     stroke="#ef2929"
     fill="#eeeeec"
     id="base"
     pagecolor="#ffffff"
     bordercolor="#666666"
     borderopacity="0.25490196"
     inkscape:pageopacity="0.0"
     inkscape:pageshadow="2"
     inkscape:zoom="7.9999999"
     inkscape:cx="23.541846"
     inkscape:cy="23.984988"
     inkscape:current-layer="layer1"
     showgrid="false"
     inkscape:grid-bbox="true"
     inkscape:document-units="px"
     inkscape:showpageshadow="false"
     inkscape:window-width="1136"
     inkscape:window-height="1061"
     inkscape:window-x="318"
     inkscape:window-y="14"
     width="48px"
     height="48px"
     objecttolerance="1"
     inkscape:object-nodes="false"
     inkscape:has_abs_tolerance="false" />
  <metadata
     id="metadata4">
    <rdf:RDF>
      <cc:Work
         rdf:about="">
        <dc:format>image/svg+xml</dc:format>
        <dc:type
           rdf:resource="http://purl.org/dc/dcmitype/StillImage" />
        <dc:creator>
          <cc:Agent>
            <dc:title>Jakub Steiner</dc:title>
          </cc:Agent>
        </dc:creator>
        <dc:source>http://jimmac.musichall.cz</dc:source>
        <cc:license
           rdf:resource="http://creativecommons.org/licenses/by-sa/2.0/" />
        <dc:title>Office Applications</dc:title>
        <dc:subject>
          <rdf:Bag>
            <rdf:li>office</rdf:li>
            <rdf:li>applications</rdf:li>
            <rdf:li>category</rdf:li>
          </rdf:Bag>
        </dc:subject>
      </cc:Work>
      <cc:License
         rdf:about="http://creativecommons.org/licenses/by-sa/2.0/">
        <cc:permits
           rdf:resource="http://web.resource.org/cc/Reproduction" />
        <cc:permits
           rdf:resource="http://web.resource.org/cc/Distribution" />
        <cc:requires
           rdf:resource="http://web.resource.org/cc/Notice" />
        <cc:requires
           rdf:resource="http://web.resource.org/cc/Attribution" />
        <cc:permits
           rdf:resource="http://web.resource.org/cc/DerivativeWorks" />
        <cc:requires
           rdf:resource="http://web.resource.org/cc/ShareAlike" />
      </cc:License>
    </rdf:RDF>
  </metadata>
  <g
     id="layer1"
     inkscape:label="Layer 1"
     inkscape:groupmode="layer"
     inkscape:r_cx="true"
     inkscape:r_cy="true">
    <path
       style="fill:url(#linearGradient2320);fill-opacity:1;fill-rule:evenodd;stroke:none;stroke-width:1px;stroke-linecap:butt;stroke-linejoin:miter;stroke-opacity:1"
       d="M 22.679631,43.62139 C 22.679631,43.62139 9.3914008,43.293884 5.2445571,35.90802 C 1.5297922,29.291725 13.574218,25.361504 15.634829,19.533141 C 18.08052,12.615594 0.85724832,-1.1038789 0.85724832,-1.1038789 C 0.85724832,-1.1038789 19.660973,12.220685 18.568881,18.652093 C 17.38531,25.622222 7.2246469,28.740219 8.3277313,33.351788 C 9.6284214,38.78947 23.619876,40.026693 23.619876,40.026693 L 22.679631,43.62139 z "
       id="path2312"
       sodipodi:nodetypes="csscsscc" />
    <path
       style="fill:none;fill-opacity:0.75;fill-rule:evenodd;stroke:#f60000;stroke-width:1px;stroke-linecap:butt;stroke-linejoin:miter;stroke-opacity:0.41975307"
       d="M 23.125,42.875 L 5.125,42.75 L 1.875,32.125 L 24.375,17.125 L 17.875,9.4999996 L 6.5000001,4.7499996"
       id="path2344"
       sodipodi:nodetypes="cccccc" />
    <g
       id="g1387"
       transform="matrix(-0.996817,7.972037e-2,7.972037e-2,0.996817,51.44062,-0.404403)">
      <path
         inkscape:r_cy="true"
         inkscape:r_cx="true"
         sodipodi:nodetypes="cszsc"
         id="path9903"
         d="M 23.876644,29.502754 C 24.759055,28.895352 27.257458,31.087465 29.508623,34.357876 C 31.759788,37.628287 32.227456,41.218243 32.03304,41.352068 C 31.816362,41.501217 28.652226,39.767357 26.40106,36.496946 C 24.149895,33.226535 22.994232,30.110156 23.876644,29.502754 z "
         style="color:#000000;fill:#e7e7e7;fill-opacity:1;fill-rule:evenodd;stroke:#7d7d7d;stroke-width:0.99999958;stroke-linecap:butt;stroke-linejoin:miter;marker:none;marker-start:none;marker-mid:none;marker-end:none;stroke-miterlimit:4;stroke-dashoffset:0;stroke-opacity:1;visibility:visible;display:inline;overflow:visible" />
      <g
         inkscape:r_cy="true"
         inkscape:r_cx="true"
         transform="matrix(0.796014,8.258057e-2,-8.258057e-2,0.796014,1.530712,-0.729968)"
         id="g9975">
        <path
           sodipodi:type="arc"
           style="color:#000000;fill:none;fill-opacity:1;fill-rule:evenodd;stroke:#3465a4;stroke-width:1.25350261;stroke-linecap:butt;stroke-linejoin:miter;marker:none;marker-start:none;marker-mid:none;marker-end:none;stroke-miterlimit:4;stroke-dasharray:none;stroke-dashoffset:0;stroke-opacity:1;visibility:visible;display:inline;overflow:visible"
           id="path9905"
           sodipodi:cx="40.1875"
           sodipodi:cy="62"
           sodipodi:rx="13.0625"
           sodipodi:ry="5.5"
           d="M 32.085889,57.685642 A 13.0625,5.5 0 0 1 52.946432,60.821161"
           inkscape:r_cx="true"
           inkscape:r_cy="true"
           sodipodi:start="4.0433671"
           sodipodi:end="6.067175"
           sodipodi:open="true"
           transform="matrix(-0.56251,-0.817194,0.825069,-0.567931,-15.22056,83.88674)" />
        <path
           sodipodi:type="arc"
           style="color:#000000;fill:#729fcf;fill-opacity:1;fill-rule:evenodd;stroke:#3465a4;stroke-width:1.25350261;stroke-linecap:butt;stroke-linejoin:miter;marker:none;marker-start:none;marker-mid:none;marker-end:none;stroke-miterlimit:4;stroke-dasharray:none;stroke-dashoffset:0;stroke-opacity:1;visibility:visible;display:inline;overflow:visible"
           id="path9907"
           sodipodi:cx="33.5"
           sodipodi:cy="54.9375"
           sodipodi:rx="3"
           sodipodi:ry="1.5625"
           d="M 36.364517,54.473244 A 3,1.5625 0 0 1 30.693831,55.490029 L 33.5,54.9375 z"
           inkscape:r_cx="true"
           inkscape:r_cy="true"
           sodipodi:start="5.9815064"
           sodipodi:end="9.0633414"
           transform="matrix(-0.56251,-0.817194,0.825069,-0.567931,-14.28556,81.45324)" />
      </g>
      <path
         inkscape:r_cy="true"
         inkscape:r_cx="true"
         id="path9898"
         d="M 18.309496,27.045877 C 21.251305,31.200587 24.142325,34.798884 26.528053,37.384546 L 30.395567,34.722368 C 28.634238,31.171969 25.891142,26.577557 22.565009,21.745473 C 16.561094,13.023205 10.607438,6.3782909 8.2525006,5.5900119 C 8.1802296,5.5671084 8.0833128,5.5369591 8.0181135,5.5255274 C 7.9722757,5.5185456 7.9043654,5.5209196 7.8622441,5.5199063 C 7.7960537,5.5202124 7.7111891,5.5338786 7.6548077,5.5497821 C 7.6410248,5.5542514 7.5988177,5.5542796 7.5856625,5.5597406 C 7.5728231,5.5656972 7.5463,5.5882804 7.5340957,5.5952363 C 7.5281538,5.598964 7.5140946,5.6090039 7.5083126,5.6129839 C 7.5025306,5.6169639 7.488133,5.6265121 7.4825295,5.6307315 C 7.4716748,5.6396481 7.4411107,5.6563605 7.4309627,5.6662272 C 7.4211649,5.6765657 7.4060698,5.7159812 7.3969742,5.7272601 C 7.3619901,5.7742473 7.3189255,5.8486404 7.2950089,5.9103589 C 7.2809165,5.9500664 7.2544536,6.0126537 7.2446102,6.0579632 C 7.2320109,6.122947 7.225572,6.2242406 7.2211638,6.2999257 C 7.1167301,8.7810968 11.19814,16.714759 17.202055,25.437027 C 17.575632,25.979746 17.93728,26.520196 18.309496,27.045877 z "
         style="color:#000000;fill:url(#linearGradient1397);fill-opacity:1;fill-rule:evenodd;stroke:#3465a4;stroke-width:0.9999997;stroke-linecap:butt;stroke-linejoin:miter;marker:none;marker-start:none;marker-mid:none;marker-end:none;stroke-miterlimit:4;stroke-dasharray:none;stroke-dashoffset:0;stroke-opacity:1;visibility:visible;display:inline;overflow:visible" />
      <path
         inkscape:r_cy="true"
         inkscape:r_cx="true"
         id="path9893"
         d="M 13.743778,20.854607 C 14.490825,21.902176 15.264732,22.908717 15.999685,23.855883 L 21.414206,20.128834 C 20.528967,18.671321 19.545881,17.138574 18.484475,15.596602 C 13.418672,8.2371884 8.1915815,2.7719285 5.9415208,2.2879093 C 5.9217547,2.284001 5.8740908,2.2754466 5.8547972,2.2723305 C 5.8357406,2.2696111 5.7866513,2.2586727 5.7680735,2.2567517 C 5.7222289,2.2529485 5.654997,2.249885 5.6122042,2.2511306 C 5.5953336,2.2520365 5.5594304,2.259366 5.543059,2.2610891 C 5.4946952,2.2674897 5.4227683,2.2848985 5.3789847,2.298754 C 5.3646479,2.3037905 5.3236556,2.3028367 5.3098395,2.3087125 C 5.2895077,2.3181575 5.2516346,2.3506057 5.2324896,2.3619558 C 5.2262404,2.3659521 5.212821,2.3754945 5.2067058,2.3797039 C 5.2005906,2.3839132 5.1868861,2.3930414 5.1809227,2.3974515 C 5.1634848,2.4112831 5.1196543,2.435075 5.1035721,2.4506952 C 5.093151,2.461503 5.0794067,2.5001343 5.0695837,2.5117282 C 5.0410096,2.5476796 4.9990687,2.6086509 4.975823,2.6515421 C 4.9683686,2.6662195 4.9487039,2.6971398 4.9418346,2.7125751 C 4.9253931,2.752103 4.9042515,2.8159978 4.8914366,2.8601789 C 4.8865983,2.8782182 4.8792899,2.9279775 4.8750265,2.9467491 C 4.871049,2.9658837 4.8620226,3.0134605 4.8586165,3.0333193 C 4.5074188,5.3078973 7.7463172,12.141716 12.812121,19.50113 C 13.127326,19.959048 13.428214,20.412099 13.743778,20.854607 z "
         style="color:#000000;fill:url(#linearGradient1399);fill-opacity:1;fill-rule:evenodd;stroke:#3465a4;stroke-width:0.9999997;stroke-linecap:butt;stroke-linejoin:miter;marker:none;marker-start:none;marker-mid:none;marker-end:none;stroke-miterlimit:4;stroke-dasharray:none;stroke-dashoffset:0;stroke-opacity:1;visibility:visible;display:inline;overflow:visible" />
      <path
         inkscape:r_cy="true"
         inkscape:r_cx="true"
         id="path9888"
         d="M 6.2003444,8.0188112 L 10.016292,5.3921292 C 7.9914232,3.1273553 6.1637351,1.7285397 5.1772693,1.7848891 C 5.1709747,1.7853731 5.1469802,1.7864435 5.1407557,1.7870493 C 5.1346027,1.7877759 5.1103261,1.7883613 5.1042428,1.7892089 C 5.0982308,1.7901786 5.0736694,1.7902766 5.0677287,1.7913684 C 5.0325207,1.7986523 4.9757109,1.8194528 4.9431348,1.8311831 C 4.93778,1.8332626 4.922632,1.8467262 4.9173517,1.8489307 C 4.9121466,1.8512599 4.8859682,1.8486359 4.8808393,1.8510911 C 4.8757854,1.8536722 4.8600332,1.8661321 4.8550555,1.8688392 C 4.850154,1.8716723 4.8340961,1.8836267 4.8292725,1.8865868 C 4.8245243,1.8896735 4.8081584,1.9011205 4.8034887,1.9043349 C 4.798819,1.9075493 4.7822833,1.9187498 4.7777056,1.9220825 C 4.7732177,1.9255319 4.7563182,1.9362636 4.7519218,1.9398306 C 4.747616,1.9435138 4.7303534,1.9537793 4.7261388,1.9575782 C 4.7220135,1.961493 4.7151184,1.986883 4.7110844,1.9909135 C 4.7071399,1.9950587 4.6891555,2.0044016 4.6853013,2.0086611 C 4.6627137,2.0349023 4.6230017,2.080542 4.6036271,2.1108296 C 4.6004871,2.1159885 4.5916266,2.1388962 4.5885744,2.1441658 C 4.5856107,2.1495456 4.5763966,2.1720133 4.5735205,2.1775019 C 4.5707331,2.1830994 4.5611667,2.2051304 4.5584673,2.2108374 C 4.1536425,3.1121735 4.807748,5.3188169 6.2003444,8.0188112 z "
         style="color:#000000;fill:url(#linearGradient1401);fill-opacity:1;fill-rule:evenodd;stroke:#3465a4;stroke-width:0.9999997;stroke-linecap:butt;stroke-linejoin:miter;marker:none;marker-start:none;marker-mid:none;marker-end:none;stroke-miterlimit:4;stroke-dasharray:none;stroke-dashoffset:0;stroke-opacity:1;visibility:visible;display:inline;overflow:visible" />
      <path
         sodipodi:nodetypes="cccszsc"
         id="path9930"
         d="M 15.417724,21.244088 C 15.60655,21.511403 15.795857,21.760461 15.983434,22.02224 L 19.733027,19.438212 C 19.219874,18.65987 18.496328,17.390277 17.956782,16.581053 C 11.744978,7.2644337 5.6568524,2.6091151 5.4030398,2.7829476 C 5.1238436,2.9741649 7.567532,10.260041 13.900362,19.06121 C 14.272182,19.577953 15.059948,20.737597 15.417724,21.244088 z "
         style="opacity:0.35714285;color:#000000;fill:none;fill-opacity:1;fill-rule:evenodd;stroke:url(#linearGradient1403);stroke-width:1;stroke-linecap:round;stroke-linejoin:round;marker:none;marker-start:none;marker-mid:none;marker-end:none;stroke-miterlimit:4;stroke-dasharray:none;stroke-dashoffset:0;stroke-opacity:1;visibility:visible;display:inline;overflow:visible"
         inkscape:r_cx="true"
         inkscape:r_cy="true" />
    </g>
    <path
       sodipodi:type="arc"
       style="opacity:1;fill:#ffffff;fill-opacity:0.65432099;fill-rule:evenodd;stroke:#ff0000;stroke-width:1;stroke-linejoin:round;stroke-miterlimit:4;stroke-dasharray:none;stroke-dashoffset:0;stroke-opacity:1"
       id="path2334"
       sodipodi:cx="21.3125"
       sodipodi:cy="11.8125"
       sodipodi:rx="1.9375"
       sodipodi:ry="1.9375"
       d="M 23.25 11.8125 A 1.9375 1.9375 0 1 1  19.375,11.8125 A 1.9375 1.9375 0 1 1  23.25 11.8125 z"
       transform="translate(-3.25,-1.75)" />
    <path
       sodipodi:type="arc"
       style="opacity:1;fill:#ffffff;fill-opacity:0.65432099;fill-rule:evenodd;stroke:#ff0000;stroke-width:1;stroke-linejoin:round;stroke-miterlimit:4;stroke-dasharray:none;stroke-dashoffset:0;stroke-opacity:1"
       id="path2336"
       sodipodi:cx="21.3125"
       sodipodi:cy="11.8125"
       sodipodi:rx="1.9375"
       sodipodi:ry="1.9375"
       d="M 23.25 11.8125 A 1.9375 1.9375 0 1 1  19.375,11.8125 A 1.9375 1.9375 0 1 1  23.25 11.8125 z"
       transform="translate(2.8125,5.3125)" />
    <path
       sodipodi:type="arc"
       style="opacity:1;fill:#ffffff;fill-opacity:0.65432099;fill-rule:evenodd;stroke:#ff0000;stroke-width:1;stroke-linejoin:round;stroke-miterlimit:4;stroke-dasharray:none;stroke-dashoffset:0;stroke-opacity:1"
       id="path2338"
       sodipodi:cx="21.3125"
       sodipodi:cy="11.8125"
       sodipodi:rx="1.9375"
       sodipodi:ry="1.9375"
       d="M 23.25 11.8125 A 1.9375 1.9375 0 1 1  19.375,11.8125 A 1.9375 1.9375 0 1 1  23.25 11.8125 z"
       transform="translate(-19.0625,20.3125)" />
    <path
       sodipodi:type="arc"
       style="opacity:1;fill:#ffffff;fill-opacity:0.65432099;fill-rule:evenodd;stroke:#ff0000;stroke-width:1;stroke-linejoin:round;stroke-miterlimit:4;stroke-dasharray:none;stroke-dashoffset:0;stroke-opacity:1"
       id="path2340"
       sodipodi:cx="21.3125"
       sodipodi:cy="11.8125"
       sodipodi:rx="1.9375"
       sodipodi:ry="1.9375"
       d="M 23.25 11.8125 A 1.9375 1.9375 0 1 1  19.375,11.8125 A 1.9375 1.9375 0 1 1  23.25 11.8125 z"
       transform="translate(-16.1875,30.6875)" />
    <path
       sodipodi:type="arc"
       style="opacity:1;fill:#ffffff;fill-opacity:0.65432099;fill-rule:evenodd;stroke:#ff0000;stroke-width:1;stroke-linejoin:round;stroke-miterlimit:4;stroke-dasharray:none;stroke-dashoffset:0;stroke-opacity:1"
       id="path2342"
       sodipodi:cx="21.3125"
       sodipodi:cy="11.8125"
       sodipodi:rx="1.9375"
       sodipodi:ry="1.9375"
       d="M 23.25 11.8125 A 1.9375 1.9375 0 1 1  19.375,11.8125 A 1.9375 1.9375 0 1 1  23.25 11.8125 z"
       transform="translate(-8.5625,12.9375)" />
  </g>
</svg>
