<?xml version="1.0" encoding="UTF-8" standalone="no"?>
<!-- Generator: Adobe Illustrator 15.0.0, SVG Export Plug-In . SVG Version: 6.00 Build 0)  -->

<svg
   xmlns:dc="http://purl.org/dc/elements/1.1/"
   xmlns:cc="http://creativecommons.org/ns#"
   xmlns:rdf="http://www.w3.org/1999/02/22-rdf-syntax-ns#"
   xmlns:svg="http://www.w3.org/2000/svg"
   xmlns="http://www.w3.org/2000/svg"
   xmlns:xlink="http://www.w3.org/1999/xlink"
   xmlns:sodipodi="http://sodipodi.sourceforge.net/DTD/sodipodi-0.dtd"
   xmlns:inkscape="http://www.inkscape.org/namespaces/inkscape"
   version="1.1"
   id="Layer_1"
   x="0px"
   y="0px"
   width="48"
   height="48"
   viewBox="0 0 48 48"
   enable-background="new 0 0 612 792"
   xml:space="preserve"
   inkscape:version="0.47 r22583"
   sodipodi:docname="Switcher.svg"><metadata
   id="metadata91"><rdf:RDF><cc:Work
       rdf:about=""><dc:format>image/svg+xml</dc:format><dc:type
         rdf:resource="http://purl.org/dc/dcmitype/StillImage" /><dc:title></dc:title></cc:Work></rdf:RDF></metadata><defs
   id="defs89"><linearGradient
     inkscape:collect="always"
     id="linearGradient5181"><stop
       style="stop-color:#000000;stop-opacity:1;"
       offset="0"
       id="stop5183" /><stop
       style="stop-color:#000000;stop-opacity:0;"
       offset="1"
       id="stop5185" /></linearGradient><linearGradient
     id="linearGradient5171"><stop
       style="stop-color:#000000;stop-opacity:1;"
       offset="0"
       id="stop5173" /><stop
       style="stop-color:#2e3436;stop-opacity:0;"
       offset="1"
       id="stop5175" /></linearGradient><radialGradient
     inkscape:collect="always"
     xlink:href="#linearGradient5171"
     id="radialGradient5177"
     cx="28.132296"
     cy="34.677223"
     fx="28.132296"
     fy="34.677223"
     r="14.998756"
     gradientTransform="matrix(1.3136983,-0.4610038,0.19329653,0.55082705,-15.628179,32.696291)"
     gradientUnits="userSpaceOnUse" /><radialGradient
     inkscape:collect="always"
     xlink:href="#linearGradient5181"
     id="radialGradient5187"
     cx="24.273848"
     cy="37.44915"
     fx="24.273848"
     fy="37.44915"
     r="24.135929"
     gradientTransform="matrix(1,0,0,0.44857141,0,20.650532)"
     gradientUnits="userSpaceOnUse" /></defs><sodipodi:namedview
   pagecolor="#ffffff"
   bordercolor="#666666"
   borderopacity="1"
   objecttolerance="10"
   gridtolerance="10"
   guidetolerance="10"
   inkscape:pageopacity="0"
   inkscape:pageshadow="2"
   inkscape:window-width="2560"
   inkscape:window-height="1538"
   id="namedview87"
   showgrid="false"
   inkscape:zoom="14.501203"
   inkscape:cx="18.157945"
   inkscape:cy="17.590369"
   inkscape:window-x="-8"
   inkscape:window-y="-8"
   inkscape:window-maximized="1"
   inkscape:current-layer="Layer_1"
   inkscape:snap-global="false" />







































<path
   sodipodi:type="arc"
   style="opacity:1;color:#000000;fill:url(#radialGradient5187);fill-opacity:1;fill-rule:nonzero;stroke:none;stroke-width:2;marker:none;visibility:visible;display:inline;overflow:visible;enable-background:accumulate"
   id="path5179"
   sodipodi:cx="24.273848"
   sodipodi:cy="37.44915"
   sodipodi:rx="24.135929"
   sodipodi:ry="10.826688"
   d="m 48.409777,37.44915 a 24.135929,10.826688 0 1 1 -48.27185853,0 24.135929,10.826688 0 1 1 48.27185853,0 z" /><path
   style="fill:none;stroke:#4d3002;stroke-width:1.99999988;stroke-linecap:butt;stroke-linejoin:miter;stroke-miterlimit:4;stroke-opacity:1;stroke-dasharray:none"
   d="M 7.4596423,13.918288 8.8539183,21.77162 10.468344,24.854238 7.3862593,31.680032 18.32032,45.698598 39.894911,37.184704 39.307846,35.05623 36.959592,31.386449 39.894911,25.294611 39.601379,23.679907 7.4596423,13.918288 z"
   id="path5167" /><polygon
   style="fill:#8d622a"
   points="320.613,396.375 318.839,400.614 318.139,401.902 320.309,405.101 320.613,407.113 301.646,414.573 304.52,410.47 304.52,402.31 301.646,394.205 320.613,392.964 "
   id="polygon5072"
   transform="matrix(1.1253974,0,0,1.1255918,-321.06397,-420.88311)" /><polygon
   style="fill:#7b5521"
   points="301.646,394.205 320.613,392.964 308.584,381.56 291.813,385.512 "
   id="polygon5074"
   transform="matrix(1.1253974,0,0,1.1255918,-321.06397,-420.88311)" /><polygon
   style="fill:#b78d5c"
   points="291.813,401.93 301.646,414.573 304.52,410.506 304.52,402.31 301.646,394.205 291.813,385.512 293.159,393.202 294.539,395.932 "
   id="polygon5076"
   transform="matrix(1.1253974,0,0,1.1255918,-321.06397,-420.88311)" /><polygon
   style="fill:#9f723a"
   points="320.613,392.964 308.584,381.56 308.584,394.491 "
   id="polygon5078"
   transform="matrix(1.1253974,0,0,1.1255918,-321.06397,-420.88311)" /><polygon
   style="fill:#bfa07a"
   points="294.761,397.744 294.495,397.316 294.539,395.932 293.319,398.615 294.415,397.438 294.698,397.855 295.08,399.667 "
   id="polygon5080"
   transform="matrix(1.1253974,0,0,1.1255918,-321.06397,-420.88311)" /><polygon
   style="fill:#674410"
   points="320.613,395.722 320.595,394.423 307.249,395.769 301.646,394.205 304.644,398.854 320.097,396.53 "
   id="polygon5082"
   transform="matrix(1.1253974,0,0,1.1255918,-321.06397,-420.88311)" /><polygon
   style="fill:#5d3c09"
   points="317.505,403.3 316.964,402.854 315.053,403.81 312.745,404.427 314.957,404.097 316.933,403.236 "
   id="polygon5084"
   transform="matrix(1.1253974,0,0,1.1255918,-321.06397,-420.88311)" /><polygon
   style="fill:#c7a77f;stroke:#543502;stroke-width:0.88849831;stroke-miterlimit:4;stroke-opacity:1;stroke-dasharray:none"
   points="308.584,381.56 320.613,392.964 327.286,384.454 315.631,377.298 "
   id="polygon5086"
   transform="matrix(1.1253974,0,0,1.1255918,-321.06397,-420.88311)" /><polygon
   style="fill:#c7a77f;stroke:#543502;stroke-width:0.88849831;stroke-miterlimit:4;stroke-opacity:1;stroke-dasharray:none"
   points="308.584,381.56 291.813,385.512 289.442,381.099 303.052,377.871 "
   id="polygon5088"
   transform="matrix(1.1253974,0,0,1.1255918,-321.06397,-420.88311)" /><polygon
   style="fill:#c7a77f;stroke:#543502;stroke-width:0.88849831;stroke-miterlimit:4;stroke-opacity:1;stroke-dasharray:none"
   points="324.225,394.033 308.088,396.144 301.646,394.205 320.613,392.964 "
   id="polygon5090"
   transform="matrix(1.1253974,0,0,1.1255918,-321.06397,-420.88311)" /><polygon
   style="fill:#9f7b4f;stroke:#543502;stroke-width:0.88849831;stroke-miterlimit:4;stroke-opacity:1;stroke-dasharray:none"
   points="285.547,381.099 298.078,387.882 301.633,394.167 291.813,385.558 "
   id="polygon5092"
   transform="matrix(1.1253974,0,0,1.1255918,-321.06397,-420.88311)" /><polygon
   style="fill:#937145"
   points="304.52,402.31 306.072,403.759 309.474,405.437 311.894,404.554 314.064,406.093 315.882,406.335 309.823,407.752 308.071,408.942 306.555,409.234 304.52,410.522 304.52,409.394 "
   id="polygon5094"
   transform="matrix(1.1253974,0,0,1.1255918,-321.06397,-420.88311)" /><polygon
   style="fill:#5c3b08"
   points="304.52,402.31 306.073,403.759 309.474,405.437 311.894,404.554 315.882,406.335 315.882,406.335 312.248,405.853 307.487,407.038 306.898,406.667 305.975,406.461 304.52,406.615 "
   id="polygon5096"
   transform="matrix(1.1253974,0,0,1.1255918,-321.06397,-420.88311)" /><polygon
   style="fill:#c3ae8d"
   points="302.046,406.335 303.051,407.945 303.973,409.072 304.52,410.522 305.241,406.04 304.52,402.31 303.534,402.473 301.483,402.592 300.798,403.478 298.919,402.479 297.567,401.396 296.413,399.756 297.432,401.507 298.166,402.017 298.961,402.686 300.315,405.571 "
   id="polygon5098"
   transform="matrix(1.1253974,0,0,1.1255918,-321.06397,-420.88311)" /><polygon
   style="fill:#92714d"
   points="303.523,406.799 305.241,406.04 304.52,402.31 303.534,402.473 301.483,402.592 300.798,403.478 299.041,402.551 297.567,401.396 296.413,399.756 297.432,401.507 299.041,402.839 299.745,404.356 303.104,405.202 "
   id="polygon5100"
   transform="matrix(1.1253974,0,0,1.1255918,-321.06397,-420.88311)" /><polygon
   style="fill:#5c3b08"
   points="320.309,405.077 318.139,401.902 318.839,400.614 320.613,396.375 317.606,398.685 317.179,401.034 316.916,402.479 "
   id="polygon5102"
   transform="matrix(1.1253974,0,0,1.1255918,-321.06397,-420.88311)" /><polygon
   style="fill:#845c26"
   points="318.839,400.614 317.606,398.685 316.916,402.479 318.139,401.902 "
   id="polygon5104"
   transform="matrix(1.1253974,0,0,1.1255918,-321.06397,-420.88311)" /><polygon
   style="fill:#a3845d"
   points="318.139,401.902 316.916,402.479 320.309,405.101 "
   id="polygon5106"
   transform="matrix(1.1253974,0,0,1.1255918,-321.06397,-420.88311)" /><polygon
   style="fill:#b39d79"
   points="304.773,408.942 303.458,406.687 306.877,406.645 "
   id="polygon5108"
   transform="matrix(1.1253974,0,0,1.1255918,-321.06397,-420.88311)" /><polygon
   style="fill:#775525"
   points="304.52,402.31 306.877,406.645 303.458,406.687 "
   id="polygon5110"
   transform="matrix(1.1253974,0,0,1.1255918,-321.06397,-420.88311)" /></svg>