<?xml version="1.0" encoding="UTF-8" standalone="no"?>
<!-- Created with Inkscape (http://www.inkscape.org/) -->

<svg
   xmlns:dc="http://purl.org/dc/elements/1.1/"
   xmlns:cc="http://creativecommons.org/ns#"
   xmlns:rdf="http://www.w3.org/1999/02/22-rdf-syntax-ns#"
   xmlns:svg="http://www.w3.org/2000/svg"
   xmlns="http://www.w3.org/2000/svg"
   xmlns:xlink="http://www.w3.org/1999/xlink"
   xmlns:sodipodi="http://sodipodi.sourceforge.net/DTD/sodipodi-0.dtd"
   xmlns:inkscape="http://www.inkscape.org/namespaces/inkscape"
   width="48px"
   height="48px"
   id="svg37215"
   version="1.1"
   inkscape:version="0.48.5 r10040"
   sodipodi:docname="drip.svg">
  <defs
     id="defs37217">
    <linearGradient
       id="linearGradient37856">
      <stop
         style="stop-color:#eeeeec;stop-opacity:1;"
         offset="0"
         id="stop37858" />
      <stop
         style="stop-color:#aaaaa0;stop-opacity:1;"
         offset="1"
         id="stop37860" />
    </linearGradient>
    <linearGradient
       id="linearGradient37771">
      <stop
         style="stop-color:#91c6ff;stop-opacity:1;"
         offset="0"
         id="stop37773" />
      <stop
         id="stop37785"
         offset="0.65457094"
         style="stop-color:#589ee9;stop-opacity:1;" />
      <stop
         id="stop37783"
         offset="0.71944636"
         style="stop-color:#ffffff;stop-opacity:1;" />
      <stop
         id="stop37781"
         offset="0.78622353"
         style="stop-color:#0057b3;stop-opacity:1;" />
      <stop
         style="stop-color:#002853;stop-opacity:1;"
         offset="0.82174766"
         id="stop37825" />
      <stop
         id="stop37827"
         offset="0.88391769"
         style="stop-color:#4b8cd2;stop-opacity:1;" />
      <stop
         id="stop37779"
         offset="1"
         style="stop-color:#7eb4ed;stop-opacity:1;" />
    </linearGradient>
    <linearGradient
       id="linearGradient37761">
      <stop
         style="stop-color:#ffffff;stop-opacity:0;"
         offset="0"
         id="stop37763" />
      <stop
         style="stop-color:#ffffff;stop-opacity:0.55855858;"
         offset="1"
         id="stop37765" />
    </linearGradient>
    <linearGradient
       id="linearGradient37751">
      <stop
         style="stop-color:#005bbc;stop-opacity:1;"
         offset="0"
         id="stop37753" />
      <stop
         style="stop-color:#89bbef;stop-opacity:1;"
         offset="1"
         id="stop37755" />
    </linearGradient>
    <linearGradient
       id="linearGradient37735">
      <stop
         style="stop-color:#000000;stop-opacity:1;"
         offset="0"
         id="stop37737" />
      <stop
         id="stop37743"
         offset="0.5"
         style="stop-color:#000000;stop-opacity:1;" />
      <stop
         style="stop-color:#2e3436;stop-opacity:0;"
         offset="1"
         id="stop37739" />
    </linearGradient>
    <radialGradient
       inkscape:collect="always"
       xlink:href="#linearGradient37735"
       id="radialGradient37741"
       cx="23.081985"
       cy="7.5433908"
       fx="23.081985"
       fy="7.5433908"
       r="18.536299"
       gradientTransform="matrix(1,0,0,0.30790191,0,5.2207664)"
       gradientUnits="userSpaceOnUse" />
    <radialGradient
       inkscape:collect="always"
       xlink:href="#linearGradient37771"
       id="radialGradient37777"
       cx="22.743673"
       cy="27.927433"
       fx="22.743673"
       fy="27.927433"
       r="10.646735"
       gradientTransform="matrix(1.6227953,0.03766819,-0.06148669,2.9480218,-12.348634,-51.254451)"
       gradientUnits="userSpaceOnUse" />
    <radialGradient
       inkscape:collect="always"
       xlink:href="#linearGradient37751"
       id="radialGradient37794"
       gradientUnits="userSpaceOnUse"
       cx="23.385031"
       cy="41.080456"
       fx="23.385031"
       fy="41.080456"
       r="5.2022858" />
    <radialGradient
       inkscape:collect="always"
       xlink:href="#linearGradient37761"
       id="radialGradient37796"
       gradientUnits="userSpaceOnUse"
       gradientTransform="matrix(3.2405985,0.04577902,-0.01404692,0.99435077,-51.733918,-0.96997067)"
       cx="23.360258"
       cy="41.451862"
       fx="23.360258"
       fy="41.451862"
       r="5.2022858" />
    <radialGradient
       inkscape:collect="always"
       xlink:href="#linearGradient37751"
       id="radialGradient37810"
       gradientUnits="userSpaceOnUse"
       cx="23.385031"
       cy="41.080456"
       fx="23.385031"
       fy="41.080456"
       r="5.2022858" />
    <radialGradient
       inkscape:collect="always"
       xlink:href="#linearGradient37761"
       id="radialGradient37812"
       gradientUnits="userSpaceOnUse"
       gradientTransform="matrix(3.2405985,0.04577902,-0.01404692,0.99435077,-51.733918,-0.96997067)"
       cx="23.360258"
       cy="41.451862"
       fx="23.360258"
       fy="41.451862"
       r="5.2022858" />
    <radialGradient
       inkscape:collect="always"
       xlink:href="#linearGradient37761"
       id="radialGradient37819"
       gradientUnits="userSpaceOnUse"
       gradientTransform="matrix(-3.751669,0.00296269,-0.00187028,-3.7497436,113.17982,178.02874)"
       cx="23.632458"
       cy="37.85078"
       fx="23.632458"
       fy="37.85078"
       r="5.2022858" />
    <radialGradient
       inkscape:collect="always"
       xlink:href="#linearGradient37751"
       id="radialGradient37823"
       gradientUnits="userSpaceOnUse"
       gradientTransform="matrix(3.7516637,0.00693114,-0.00187028,0.97728843,-64.188476,0.62687686)"
       cx="23.504448"
       cy="40.560764"
       fx="23.504448"
       fy="40.560764"
       r="5.2022858" />
    <linearGradient
       inkscape:collect="always"
       xlink:href="#linearGradient37856"
       id="linearGradient37862"
       x1="9.6213207"
       y1="5.1057425"
       x2="9.6590967"
       y2="9.4999056"
       gradientUnits="userSpaceOnUse" />
  </defs>
  <sodipodi:namedview
     id="base"
     pagecolor="#ffffff"
     bordercolor="#666666"
     borderopacity="1.0"
     inkscape:pageopacity="0.0"
     inkscape:pageshadow="2"
     inkscape:zoom="19.79899"
     inkscape:cx="16.777409"
     inkscape:cy="27.12937"
     inkscape:current-layer="layer1"
     showgrid="true"
     inkscape:grid-bbox="true"
     inkscape:document-units="px"
     inkscape:window-width="2560"
     inkscape:window-height="1537"
     inkscape:window-x="-8"
     inkscape:window-y="-8"
     inkscape:window-maximized="1" />
  <metadata
     id="metadata37220">
    <rdf:RDF>
      <cc:Work
         rdf:about="">
        <dc:format>image/svg+xml</dc:format>
        <dc:type
           rdf:resource="http://purl.org/dc/dcmitype/StillImage" />
        <dc:title></dc:title>
      </cc:Work>
    </rdf:RDF>
  </metadata>
  <g
     id="layer1"
     inkscape:label="Layer 1"
     inkscape:groupmode="layer">
    <path
       sodipodi:type="arc"
       style="color:#000000;fill:url(#radialGradient37741);fill-opacity:1;fill-rule:nonzero;stroke:none;stroke-width:1;marker:none;visibility:visible;display:inline;overflow:visible;enable-background:accumulate"
       id="path37223"
       sodipodi:cx="23.081985"
       sodipodi:cy="7.5433908"
       sodipodi:rx="18.536299"
       sodipodi:ry="5.7073617"
       d="m 41.618284,7.5433908 a 18.536299,5.7073617 0 1 1 -37.0725973,0 18.536299,5.7073617 0 1 1 37.0725973,0 z"
       transform="matrix(1.2888283,0,0,1.5917986,-5.7575944,-6.8511654)" />
    <path
       sodipodi:type="arc"
       style="color:#000000;fill:#000000;fill-opacity:1;fill-rule:nonzero;stroke:none;stroke-width:1;marker:none;visibility:visible;display:inline;overflow:visible;enable-background:accumulate"
       id="path37745"
       sodipodi:cx="23.081985"
       sodipodi:cy="7.5433908"
       sodipodi:rx="18.536299"
       sodipodi:ry="5.7073617"
       d="m 41.618284,7.5433908 a 18.536299,5.7073617 0 1 1 -37.0725973,0 18.536299,5.7073617 0 1 1 37.0725973,0 z"
       transform="matrix(0.76862352,0,0,0.57699443,6.249765,0.8185316)" />
    <path
       style="color:#000000;fill:url(#linearGradient37862);fill-opacity:1;fill-rule:nonzero;stroke:none;stroke-width:1;marker:none;visibility:visible;display:inline;overflow:visible;enable-background:accumulate"
       d="M 24 0.09375 C 14.894184 0.09375 7.5 2.3624736 7.5 5.15625 C 7.5 7.9500264 14.894184 10.21875 24 10.21875 C 33.105816 10.21875 40.46875 7.9500264 40.46875 5.15625 C 40.46875 2.3624736 33.105816 0.09375 24 0.09375 z M 24 1.875 C 31.868641 1.875 38.25 3.3375123 38.25 5.15625 C 38.25 6.9749877 31.868641 8.46875 24 8.46875 C 16.131359 8.46875 9.75 6.9749877 9.75 5.15625 C 9.75 3.3375123 16.131359 1.875 24 1.875 z "
       id="path37225" />
    <path
       style="fill:url(#radialGradient37777);fill-opacity:1;stroke:#3465a4;stroke-width:0.99999994"
       d="m 12.218434,2.9145017 c 2.076255,1.7256791 8.642998,8.8974943 8.449221,11.9647103 -0.193777,3.067216 -4.498741,5.410366 -4.389464,8.707675 0.109277,3.297311 2.486698,7.175049 6.573117,7.158153 4.086419,-0.0169 6.270072,-3.278231 6.270072,-7.256302 0,-3.978072 -3.253514,-5.278423 -3.338006,-8.609526 -0.08449,-3.331104 6.541953,-9.2036246 9.492421,-11.9647103 -1.987058,-3.23382229 -23.150442,-2.25385492 -23.057361,0 z"
       id="path37747"
       inkscape:connector-curvature="0"
       sodipodi:nodetypes="czzzzzcc" />
    <path
       sodipodi:type="arc"
       style="color:#000000;fill:url(#radialGradient37823);fill-opacity:1;fill-rule:nonzero;stroke:none;stroke-width:1;marker:none;visibility:visible;display:inline;overflow:visible;enable-background:accumulate"
       id="path37821"
       sodipodi:cx="23.385031"
       sodipodi:cy="41.080456"
       sodipodi:rx="5.2022858"
       sodipodi:ry="5.2022858"
       d="m 28.587317,41.080456 a 5.2022858,5.2022858 0 1 1 -10.404572,0 5.2022858,5.2022858 0 1 1 10.404572,0 z"
       transform="matrix(1.1405069,0,0,1.1378473,-3.9009067,-22.515125)" />
    <g
       id="g37789"
       transform="matrix(0.93177379,0,0,0.93177379,1.5741782,-1.6602881)">
      <path
         transform="matrix(1.4230217,0,0,1.4197035,-10.204481,-13.069238)"
         d="m 28.587317,41.080456 c 0,2.873143 -2.329143,5.202286 -5.202286,5.202286 -2.873143,0 -5.202286,-2.329143 -5.202286,-5.202286 0,-2.873143 2.329143,-5.202286 5.202286,-5.202286 2.873143,0 5.202286,2.329143 5.202286,5.202286 z"
         sodipodi:ry="5.2022858"
         sodipodi:rx="5.2022858"
         sodipodi:cy="41.080456"
         sodipodi:cx="23.385031"
         id="path37749"
         style="color:#000000;fill:url(#radialGradient37794);fill-opacity:1;fill-rule:nonzero;stroke:#3465a4;stroke-width:0.94566518;marker:none;visibility:visible;display:inline;overflow:visible;enable-background:accumulate"
         sodipodi:type="arc" />
      <path
         sodipodi:type="arc"
         style="color:#000000;fill:url(#radialGradient37796);fill-opacity:1;fill-rule:nonzero;stroke:none;stroke-width:1;marker:none;visibility:visible;display:inline;overflow:visible;enable-background:accumulate"
         id="path37759"
         sodipodi:cx="23.385031"
         sodipodi:cy="41.080456"
         sodipodi:rx="5.2022858"
         sodipodi:ry="5.2022858"
         d="m 28.587317,41.080456 c 0,2.873143 -2.329143,5.202286 -5.202286,5.202286 -2.873143,0 -5.202286,-2.329143 -5.202286,-5.202286 0,-2.873143 2.329143,-5.202286 5.202286,-5.202286 2.873143,0 5.202286,2.329143 5.202286,5.202286 z"
         transform="matrix(1.3347724,0,0,1.3316599,-8.1407661,-9.5668725)" />
      <path
         transform="matrix(1.666443,0,0,1.6625572,-15.548746,-21.683144)"
         d="m 22.728432,38.504566 c 0,0.836838 -0.678391,1.515229 -1.515229,1.515229 -0.836837,0 -1.515228,-0.678391 -1.515228,-1.515229 0,-0.836838 0.678391,-1.515229 1.515228,-1.515229 0.836838,0 1.515229,0.678391 1.515229,1.515229 z"
         sodipodi:ry="1.5152289"
         sodipodi:rx="1.5152289"
         sodipodi:cy="38.504566"
         sodipodi:cx="21.213203"
         id="path37769"
         style="color:#000000;fill:#ffffff;fill-opacity:1;fill-rule:nonzero;stroke:none;stroke-width:1;marker:none;visibility:visible;display:inline;overflow:visible;enable-background:accumulate"
         sodipodi:type="arc" />
    </g>
    <path
       transform="matrix(1.4666667,0,0,1.4666667,-11.111678,-33.42413)"
       d="m 22.728432,38.504566 a 1.5152289,1.5152289 0 1 1 -3.030457,0 1.5152289,1.5152289 0 1 1 3.030457,0 z"
       sodipodi:ry="1.5152289"
       sodipodi:rx="1.5152289"
       sodipodi:cy="38.504566"
       sodipodi:cx="21.213203"
       id="path37787"
       style="color:#000000;fill:#ffffff;fill-opacity:1;fill-rule:nonzero;stroke:none;stroke-width:1;marker:none;visibility:visible;display:inline;overflow:visible;enable-background:accumulate"
       sodipodi:type="arc" />
    <path
       transform="matrix(1.3259343,0,0,1.3228425,-7.9340897,-13.837861)"
       d="m 28.587317,41.080456 a 5.2022858,5.2022858 0 1 1 -10.404572,0 5.2022858,5.2022858 0 1 1 10.404572,0 z"
       sodipodi:ry="5.2022858"
       sodipodi:rx="5.2022858"
       sodipodi:cy="41.080456"
       sodipodi:cx="23.385031"
       id="path37800"
       style="color:#000000;fill:url(#radialGradient37810);fill-opacity:1;fill-rule:nonzero;stroke:#3465a4;stroke-width:0.94566518;marker:none;visibility:visible;display:inline;overflow:visible;enable-background:accumulate"
       sodipodi:type="arc" />
    <path
       sodipodi:type="arc"
       style="color:#000000;fill:url(#radialGradient37812);fill-opacity:1;fill-rule:nonzero;stroke:none;stroke-width:1;marker:none;visibility:visible;display:inline;overflow:visible;enable-background:accumulate"
       id="path37802"
       sodipodi:cx="23.385031"
       sodipodi:cy="41.080456"
       sodipodi:rx="5.2022858"
       sodipodi:ry="5.2022858"
       d="m 28.587317,41.080456 a 5.2022858,5.2022858 0 1 1 -10.404572,0 5.2022858,5.2022858 0 1 1 10.404572,0 z"
       transform="matrix(1.2437059,0,0,1.2408058,-6.0111743,-10.57445)" />
    <path
       transform="matrix(1.5527479,0,0,1.5491272,-12.913736,-21.864073)"
       d="m 22.728432,38.504566 a 1.5152289,1.5152289 0 1 1 -3.030457,0 1.5152289,1.5152289 0 1 1 3.030457,0 z"
       sodipodi:ry="1.5152289"
       sodipodi:rx="1.5152289"
       sodipodi:cy="38.504566"
       sodipodi:cx="21.213203"
       id="path37804"
       style="color:#000000;fill:#ffffff;fill-opacity:1;fill-rule:nonzero;stroke:none;stroke-width:1;marker:none;visibility:visible;display:inline;overflow:visible;enable-background:accumulate"
       sodipodi:type="arc" />
    <path
       transform="matrix(1.1405069,0,0,1.1378473,-3.9009067,-22.515125)"
       d="m 28.587317,41.080456 a 5.2022858,5.2022858 0 1 1 -10.404572,0 5.2022858,5.2022858 0 1 1 10.404572,0 z"
       sodipodi:ry="5.2022858"
       sodipodi:rx="5.2022858"
       sodipodi:cy="41.080456"
       sodipodi:cx="23.385031"
       id="path37817"
       style="color:#000000;fill:url(#radialGradient37819);fill-opacity:1;fill-rule:nonzero;stroke:none;stroke-width:1;marker:none;visibility:visible;display:inline;overflow:visible;enable-background:accumulate"
       sodipodi:type="arc" />
    <path
       style="color:#000000;fill:#eeeeec;fill-opacity:1;fill-rule:nonzero;stroke:none;stroke-width:1;marker:none;visibility:visible;display:inline;overflow:visible;enable-background:accumulate"
       d="m 23.949492,0.09375002 c -9.105816,0 -16.4999994,2.26872358 -16.4999994,5.06249998 l 2.2499997,0 c 0,-1.8187377 6.3813587,-3.28125 14.2499997,-3.28125 7.868642,0 14.250001,1.4625123 14.250001,3.28125 l 2.21875,0 c 0,-2.7937764 -7.362934,-5.06249998 -16.468751,-5.06249998 z"
       id="path37851"
       inkscape:connector-curvature="0" />
  </g>
</svg>
