<?xml version="1.0" encoding="UTF-8" standalone="no"?>
<!-- Generator: Adobe Illustrator 15.0.0, SVG Export Plug-In . SVG Version: 6.00 Build 0)  -->

<svg
   xmlns:dc="http://purl.org/dc/elements/1.1/"
   xmlns:cc="http://creativecommons.org/ns#"
   xmlns:rdf="http://www.w3.org/1999/02/22-rdf-syntax-ns#"
   xmlns:svg="http://www.w3.org/2000/svg"
   xmlns="http://www.w3.org/2000/svg"
   xmlns:xlink="http://www.w3.org/1999/xlink"
   xmlns:sodipodi="http://sodipodi.sourceforge.net/DTD/sodipodi-0.dtd"
   xmlns:inkscape="http://www.inkscape.org/namespaces/inkscape"
   version="1.1"
   id="Layer_1"
   x="0px"
   y="0px"
   width="48"
   height="48"
   viewBox="0 0 48 48"
   enable-background="new 0 0 612 792"
   xml:space="preserve"
   inkscape:version="0.47 r22583"
   sodipodi:docname="Dentable_Object.svg"><metadata
   id="metadata91"><rdf:RDF><cc:Work
       rdf:about=""><dc:format>image/svg+xml</dc:format><dc:type
         rdf:resource="http://purl.org/dc/dcmitype/StillImage" /><dc:title></dc:title></cc:Work></rdf:RDF></metadata><defs
   id="defs89"><linearGradient
   id="linearGradient5534"><stop
     style="stop-color:#ffffff;stop-opacity:1;"
     offset="0"
     id="stop5536" /><stop
     id="stop5542"
     offset="0.36043826"
     style="stop-color:#cccccc;stop-opacity:1;" /><stop
     style="stop-color:#ffffff;stop-opacity:1;"
     offset="0.4736447"
     id="stop5544" /><stop
     style="stop-color:#9f9f9f;stop-opacity:1;"
     offset="1"
     id="stop5538" /></linearGradient><linearGradient
   id="linearGradient5526"><stop
     style="stop-color:#ffffff;stop-opacity:1;"
     offset="0"
     id="stop5528" /><stop
     style="stop-color:#cccccc;stop-opacity:1;"
     offset="1"
     id="stop5530" /></linearGradient><inkscape:perspective
   id="perspective5353"
   inkscape:persp3d-origin="306 : 264 : 1"
   inkscape:vp_z="612 : 396 : 1"
   inkscape:vp_y="0 : 1000 : 0"
   inkscape:vp_x="0 : 396 : 1"
   sodipodi:type="inkscape:persp3d" />
	
	
	
	
<inkscape:perspective
   id="perspective5485"
   inkscape:persp3d-origin="0.5 : 0.33333333 : 1"
   inkscape:vp_z="1 : 0.5 : 1"
   inkscape:vp_y="0 : 1000 : 0"
   inkscape:vp_x="0 : 0.5 : 1"
   sodipodi:type="inkscape:persp3d" /><radialGradient
   inkscape:collect="always"
   xlink:href="#linearGradient5526"
   id="radialGradient5532"
   cx="22.095564"
   cy="28.942162"
   fx="22.095564"
   fy="28.942162"
   r="17.123747"
   gradientTransform="matrix(0.78293457,0.27686261,-0.35629065,1.0076821,14.437577,-4.1873695)"
   gradientUnits="userSpaceOnUse" /><linearGradient
   inkscape:collect="always"
   xlink:href="#linearGradient5534"
   id="linearGradient5540"
   x1="28.963114"
   y1="24.20887"
   x2="35.031574"
   y2="28.484377"
   gradientUnits="userSpaceOnUse"
   gradientTransform="matrix(0.99172503,0,0,0.9917912,0.05239834,0.39123368)" /></defs><sodipodi:namedview
   pagecolor="#ffffff"
   bordercolor="#666666"
   borderopacity="1"
   objecttolerance="10"
   gridtolerance="10"
   guidetolerance="10"
   inkscape:pageopacity="0"
   inkscape:pageshadow="2"
   inkscape:window-width="2560"
   inkscape:window-height="1538"
   id="namedview87"
   showgrid="false"
   inkscape:zoom="14.501203"
   inkscape:cx="18.157945"
   inkscape:cy="17.590369"
   inkscape:window-x="-8"
   inkscape:window-y="-8"
   inkscape:window-maximized="1"
   inkscape:current-layer="Layer_1"
   inkscape:snap-global="false" />







































<path
   style="fill:none;stroke:#884b45;stroke-width:0.60000008;stroke-linecap:round;stroke-linejoin:round;stroke-miterlimit:10"
   stroke-miterlimit="10"
   d="m 21.718074,47.815641 c -6.65213,0 -8.544848,-4.799529 -8.622384,-5.003449 l -0.09241,-0.243216 0.137015,-0.221973 c 0.604353,-0.982422 0.750927,-1.607987 0.362187,-3.161806 C 13.369715,38.656282 13.143481,38.289865 12.902378,37.903269 12.421232,37.12689 11.923092,36.325021 12.19075,34.456827 12.476463,32.450561 12.2789,30.004596 11.605515,27.184779 10.705894,23.423962 9.2104134,21.957231 8.1185423,20.885595 7.2486566,20.032747 6.4987918,19.296727 6.4987918,17.895847 c 0,-1.739685 1.0600072,-2.175136 1.9829994,-2.361 0.1168346,-0.02337 0.2389797,-0.03505 0.3685597,-0.03505 2.0127391,0 5.5103381,3.041792 5.7535661,5.570599 0.300583,3.122508 2.748796,5.280651 3.629303,5.573785 0.770045,-0.0021 3.849164,-2.492698 5.114163,-7.991074 0.328198,-1.417875 0.643651,-2.689181 0.930427,-3.836226 0.778542,-3.119322 1.341472,-5.3719894 1.18109,-7.0288309 -0.280402,-2.9143415 0.380243,-4.3194705 0.984596,-4.9843313 0.431225,-0.4747488 0.990969,-0.737082 1.573016,-0.737082 0.609664,0 1.217203,0.2878231 1.665423,0.7891238 0.577799,0.6446813 0.846519,1.5793098 0.737119,2.563856 -0.134891,1.213955 -0.19968,2.551111 -0.266595,3.9668608 -0.06055,1.2468786 -0.123207,2.5766016 -0.242166,3.9976616 -0.110462,1.323349 -0.515134,2.84743 -0.90706,4.321594 -0.423791,1.593117 -0.899625,3.379532 -0.726498,4.217512 0.931489,-0.784876 3.412628,-5.541923 4.163555,-7.89655 0.860327,-2.694491 1.234197,-4.2568075 1.759952,-10.0164558 0.221986,-2.4342824 1.661173,-3.29668962 2.826332,-3.29668962 0.902811,0 1.721715,0.50236282 2.087089,1.28086592 0.609662,1.2989212 0.303769,2.6180219 -0.201806,4.801654 -0.1094,0.4726246 -0.22942,0.9898565 -0.353689,1.5623165 -0.251726,1.1693477 -0.395114,1.900057 -0.54275,2.648822 -0.187997,0.959056 -0.381305,1.948913 -0.816779,3.916943 -0.413169,1.875629 -1.060007,3.655672 -1.579389,5.087353 -0.128519,0.353673 -0.247477,0.680792 -0.351566,0.978174 0.017,0.0043 0.08709,0.200732 0.165693,0.292071 0.23473,0.274016 0.483269,0.57246 0.400423,1.03765 0.561868,0.10727 1.084436,0.324996 1.703659,0.914449 1.64949,1.574 2.104083,4.219635 1.253315,6.423447 -0.267657,0.687165 -4.508748,9.011731 -8.094504,10.565551 -3.294731,1.427432 -4.219848,3.323241 -5.036627,4.994952 -0.404672,0.830545 -0.788102,1.61542 -1.410511,2.26966 l -0.126393,0.131698 -0.181625,0.02655 c -0.765797,0.113642 -1.5146,0.169932 -2.22304,0.169932 0,0 0,0 0,0 z"
   id="path5273" /><path
   style="fill:url(#radialGradient5532);fill-opacity:1;stroke:#555555;stroke-width:1;stroke-linecap:round;stroke-linejoin:round;stroke-miterlimit:10;stroke-opacity:1;stroke-dasharray:none"
   d="M 21.581295,47.610459 C 18.007733,47.71666 14.183278,45.831162 12.866502,42.363795 14.136631,40.781134 13.489456,38.583714 12.413786,37.094761 11.400769,34.9227 12.62216,32.503397 12.05334,30.226734 11.635925,26.605375 10.588286,22.785373 7.6624136,20.364545 5.7062188,19.064839 5.9199887,15.208877 8.7135725,15.294615 c 2.4799455,0.3479 4.5196445,2.389849 5.5190625,4.605193 0.353674,1.681867 0.643203,3.469193 1.831684,4.813314 1.179527,2.444694 3.567007,1.513014 4.596226,-0.462281 2.555858,-3.435633 2.860821,-7.831625 4.016033,-11.820367 0.567856,-2.065982 0.786105,-4.2005776 0.580494,-6.3328165 -0.298295,-2.1028281 1.519159,-5.44014861 3.924503,-3.7818654 1.818973,1.430643 0.837139,3.87445 0.885021,5.8191246 -0.126517,3.2547893 -0.245703,6.5448893 -1.280041,9.6663303 -0.220302,1.085001 -1.036223,3.332684 -0.454585,3.724659 3.121839,-4.345966 5.01191,-9.553226 5.447569,-14.8886023 0.349833,-1.9906833 -0.100707,-4.7005638 1.983148,-5.85462564 1.84488,-1.05032441 3.8825,0.87221784 3.548599,2.79368394 -0.430983,3.2165344 -1.356437,6.3535267 -1.904887,9.555242 -0.47687,2.627945 -1.345755,5.156532 -2.275492,7.652892 0.825959,1.950816 3.746511,2.495965 3.834028,5.219715 0.633006,3.08937 -1.531121,5.679178 -2.970579,8.184686 -1.683052,2.561461 -3.580562,5.258056 -6.56373,6.384657 -2.283897,1.121691 -3.48676,3.447479 -4.531366,5.640006 -0.489906,1.590405 -2.010909,1.334603 -3.317965,1.396899 z"
   id="path5445" /><path
   style="fill:none;stroke:#ffffff;stroke-width:0.60000008;stroke-linecap:round;stroke-linejoin:round;stroke-miterlimit:10;stroke-opacity:1"
   stroke-miterlimit="10"
   d="m 23.7268,46.916924 c 1.782257,-1.867133 1.528407,-5.17763 6.620265,-7.384628 3.351025,-1.45186 7.527326,-9.539583 7.810915,-10.270292 1.017522,-2.630767 -0.142326,-4.696508 -1.16091,-5.886036 -1.097182,-1.278741 -2.939979,-0.729647 -2.279334,-1.017471 0.863513,-0.375975 -0.265532,-1.239444 -0.08815,-1.748179 0.513009,-1.472041 1.4052,-3.694969 1.913961,-6.004989 0.774293,-3.504857 0.781728,-3.897825 1.358466,-6.5636414 C 38.581771,4.9000614 39.146825,3.4014695 38.4968,2.0143958 37.786234,0.50093483 34.899361,0.48818992 34.592405,3.8528526 34.054966,9.7378261 33.657729,11.322447 32.809086,13.981889 c -0.840146,2.632892 -4.413157,9.676592 -5.093983,8.149323 -0.678702,-1.527267 1.273496,-5.942324 1.528408,-8.997923 0.253849,-3.055598 0.253849,-5.6874269 0.508761,-7.9793911 0.383429,-3.4591876 -4.583097,-4.66889421 -3.904396,2.3758678 0.227297,2.3673719 -0.87732,5.6311373 -2.123201,11.0349893 -1.325539,5.756462 -4.781715,8.716473 -5.800299,8.375546 -1.018585,-0.340926 -3.662229,-2.630767 -3.989365,-6.02623 -0.226235,-2.349316 -3.835357,-5.395355 -5.4890956,-5.066111 -0.848643,0.169933 -1.5560225,0.481121 -1.5560225,1.839519 0,2.785831 3.4731691,2.3918 5.0929201,9.166794 0.933614,3.904198 0.763673,6.281129 0.594794,7.469594 -0.374933,2.615897 0.876258,2.827251 1.302172,4.524451 0.423791,1.699324 0.25385,2.464021 -0.424852,3.56752 0.0011,0.0043 2.150816,5.687427 10.271873,4.501086 z"
   id="path5275" /><path
   style="fill:url(#linearGradient5540);fill-opacity:1;stroke:none"
   d="m 32.605637,20.297755 -2.803956,1.915024 -3.898182,5.12953 -1.436172,5.061135 0.615502,1.29948 1.504562,0.136787 2.325231,-2.188598 0.410335,1.641449 1.709729,0.478755 1.778118,-1.709842 1.094226,-2.667355 3.624625,-3.009323 0.547113,-2.530569 -2.120063,-1.162692 -0.957448,-1.573056 -2.39362,-0.820725 z"
   id="path5506" /><path
   id="path5285"
   d="m 29.143273,30.90312 c -0.453531,0.622377 -0.535315,0.757262 -0.859265,1.264935 -0.556557,0.875152 -1.03133,1.618606 -1.967067,1.618606 -0.365374,0 -0.799786,-0.11258 -1.338287,-0.374913 -0.167816,-0.08284 -0.288899,-0.236843 -0.360061,-0.456694 -0.374933,-1.159788 0.68295,-4.229194 1.545401,-5.750089 0.811468,-1.431681 1.16622,-1.852264 1.873599,-2.690243 0.2188,-0.26021 0.473711,-0.562901 0.788101,-0.95056 2.634087,-3.242523 4.115761,-3.850032 6.106194,-2.495883 0.554433,0.379162 0.782792,0.811428 0.702069,1.63029"
   stroke-miterlimit="10"
   style="fill:none;stroke:#555753;stroke-width:0.75;stroke-linecap:round;stroke-linejoin:round;stroke-miterlimit:4;stroke-dasharray:none" /><path
   id="path5289"
   d="m 37.715735,25.820015 c -0.385553,0.71053 -1.159847,1.470978 -2.3027,2.25904 l -0.08285,0.05629 c -0.426976,0.286761 -1.429629,0.956933 -2.251719,2.84212 -0.674453,1.545324 -1.397765,2.396048 -2.211357,2.598905 -0.125332,0.03081 -0.251726,0.04567 -0.379181,0.04567 -0.434412,0 -0.887942,-0.180554 -1.373336,-0.550157 -0.70738,-0.535287 0.07435,-3.607878 0.758361,-4.889806 0.814656,-1.530455 1.071691,-1.889437 2.151879,-3.221282 1.999994,-2.461897 3.441306,-2.949391 5.149213,-1.749243 0.250663,0.176306 0.466276,0.362169 0.705255,0.524666"
   stroke-miterlimit="10"
   style="fill:none;stroke:#555753;stroke-width:0.75;stroke-linecap:round;stroke-linejoin:round;stroke-miterlimit:4;stroke-dasharray:none" /><path
   style="fill:#000000;fill-opacity:0.2522124"
   d="m 38.041971,25.739289 c 0.06055,-0.360044 -0.165694,0.896394 -0.265534,1.427433 -0.09984,0.53104 -0.298458,1.194837 -0.663832,1.593117 -0.365373,0.39828 -1.062131,1.560193 -1.261812,1.758801 -0.199681,0.198608 -0.465213,0.19967 -0.730747,0.929318 -0.265532,0.729647 -1.36059,1.161913 -1.925643,1.493282 -0.565054,0.331368 -2.124263,0.896393 -2.622403,0.796558 -0.498139,-0.09984 0.863513,0.09983 1.46043,-0.663799 0.596919,-0.763634 1.095058,-1.460357 1.294739,-2.02432 0.199681,-0.563964 0.763672,-1.460357 0.962291,-1.725877 0.198618,-0.265519 1.427505,-1.261749 1.858729,-1.593116 0.431226,-0.331368 1.793941,-1.393447 1.893782,-1.991397 z"
   id="path5293" /><path
   style="fill:#000000;fill-opacity:0.2522124"
   d="m 26.512534,33.891799 c -0.577799,0.07222 0.796599,0.08921 1.30536,0 0.317577,-0.05523 0.796598,-0.06692 1.217202,-0.309065 0.249601,-0.145505 0.265533,-0.398278 0.265533,-0.398278 0,0 -0.442909,-0.441826 -0.3983,-0.86347 0.04461,-0.421645 0.04461,-0.487494 0.04461,-0.686102 0,-0.198609 -0.464151,0.753012 -0.619222,1.040836 -0.155071,0.286761 -0.487519,0.663798 -0.753052,0.840103 -0.265532,0.176306 -0.531066,0.310127 -1.062131,0.375976 z"
   id="path5295" /><path
   style="fill:#000000;fill-opacity:0.23893804"
   d="m 38.483817,1.9869817 c 0.220924,0.3759755 0.56293,0.8273585 0.420604,2.0349411 -0.221985,1.8798776 -0.708441,3.5399053 -0.796599,4.0709441 -0.08815,0.531039 -1.10674,5.2657821 -1.10674,5.2657821 0,0 -0.332448,1.660027 -0.574614,2.477827 -0.326074,1.102437 -1.671794,4.791033 -1.671794,4.791033 0,0 -1.293677,-0.453507 -1.471053,-0.453507 -0.177376,0 1.570893,-2.998246 2.389796,-5.265782 0.870948,-2.411978 1.54965,-6.7707458 1.903339,-9.205028 0.389803,-2.6806845 -0.130641,-4.3736365 0.08179,-4.3088498 0.38343,0.1168286 0.755175,0.4726247 0.825276,0.5926395 z"
   id="path5297" /><path
   style="fill:#000000;fill-opacity:0.30973451"
   d="m 29.24646,3.232799 c 0.319702,0.3472994 0.724373,0.8401034 0.651087,2.0498101 -0.06691,1.105623 -0.248539,3.6015059 -0.265533,4.1378551 -0.01806,0.5363493 -0.176314,4.2260068 -0.375995,5.3103888 -0.199681,1.084382 -0.370684,1.531516 -0.59798,2.345068 -1.084436,3.89464 -0.95167,4.846262 -0.95167,4.846262 0,0 -0.486456,-0.109395 -0.619222,-0.507675 -0.178438,-0.534224 0.72756,-2.735911 1.178966,-5.069296 0.481145,-2.481015 0.55337,-6.7771189 0.701006,-9.2262703 0.198619,-3.3019999 -0.689323,-4.4394853 -0.499201,-4.3959401 0.34413,0.078594 0.686137,0.409962 0.778542,0.5097974 z"
   id="path5299" /><path
   style="fill:#000000;fill-opacity:0.22123892"
   d="m 37.533209,25.618212 c -0.02761,0.334555 -1.254377,1.513462 -1.725964,1.81403 -0.486456,0.309064 -1.682416,1.239445 -2.168872,2.036003 -0.486456,0.796558 -1.292614,2.684932 -1.881034,3.186233 -0.597981,0.508735 -0.863513,0.662737 -1.349969,0.486432 -0.486457,-0.176305 1.194898,-3.274386 1.593196,-3.938185 0.3983,-0.663799 3.851289,-4.315222 4.470512,-4.713501 0.641527,0.13276 1.106741,0.59795 1.062131,1.128988 z"
   id="path5301" /><path
   style="fill:#000000;fill-opacity:0.22123892"
   d="m 35.519408,22.387372 c -0.929365,-0.0223 -1.703659,0.708406 -2.157188,1.062078 -0.454593,0.354734 -1.872539,1.977589 -2.389797,2.75503 -1.71428,2.578725 -1.870413,4.304601 -2.003179,4.525514 -0.599043,0.999415 -1.238446,1.91174 -1.482735,2.146459 -0.619224,0.59795 -0.884756,0.59795 -1.261813,0.487493 -0.497077,-0.146567 3.386075,-6.682593 3.784374,-7.346392 0.3983,-0.663799 3.982993,-4.358767 4.602215,-4.757046 0.48752,0.131697 0.841208,0.640432 0.908123,1.126864 z"
   id="path5303" /><path
   style="color:#000000;fill:none;stroke:#000000;stroke-width:1;stroke-linecap:round;stroke-linejoin:round;stroke-miterlimit:10;stroke-opacity:0.30530976;stroke-dasharray:none;stroke-dashoffset:0;marker:none;visibility:visible;display:inline;overflow:visible;enable-background:accumulate"
   stroke-miterlimit="10"
   d="m 30.761061,27.918675 c 0.531066,0 0.972912,0.08921 1.194898,0.310126"
   id="path5305" /><path
   style="color:#000000;fill:none;stroke:#000000;stroke-width:1;stroke-linecap:round;stroke-linejoin:round;stroke-miterlimit:10;stroke-opacity:0.30530976;stroke-dasharray:none;stroke-dashoffset:0;marker:none;visibility:visible;display:inline;overflow:visible;enable-background:accumulate"
   stroke-miterlimit="10"
   d="m 26.955443,27.255938 c 0.531066,0 0.972913,0.08921 1.194899,0.309065"
   id="path5311" /><path
   style="fill:none;stroke:#000000;stroke-width:1;stroke-linecap:round;stroke-linejoin:round;stroke-miterlimit:10;stroke-opacity:0.30530976;stroke-dasharray:none"
   stroke-miterlimit="10"
   d="m 36.43178,27.581996 c 0.298459,0.06691 0.524693,0.115767 0.967601,0.470501"
   id="path5317" /><path
   style="fill:none;stroke:#000000;stroke-width:1;stroke-linecap:round;stroke-linejoin:round;stroke-miterlimit:10;stroke-opacity:0.30530976;stroke-dasharray:none"
   stroke-miterlimit="10"
   d="m 33.643685,30.419868 c 0.486456,0.08921 1.410511,0.508736 1.764201,0.951622"
   id="path5319" /><path
   style="fill:none;stroke:#000000;stroke-width:1;stroke-linecap:round;stroke-linejoin:round;stroke-miterlimit:10;stroke-opacity:0.30530976;stroke-dasharray:none"
   stroke-miterlimit="10"
   d="m 24.648494,32.228587 c -0.574613,0.531039 -2.20711,2.239922 -2.561862,3.302"
   id="path5321" /><path
   style="fill:none;stroke:#000000;stroke-width:1;stroke-linecap:round;stroke-linejoin:round;stroke-miterlimit:10;stroke-opacity:0.30530976;stroke-dasharray:none"
   stroke-miterlimit="10"
   d="m 27.530056,23.272084 c 0.132767,0.708406 0.266596,0.619192 0.753052,0.929318"
   id="path5323" /><path
   style="fill:none;stroke:#000000;stroke-width:1;stroke-linecap:round;stroke-linejoin:round;stroke-miterlimit:10;stroke-opacity:0.30530976;stroke-dasharray:none"
   stroke-miterlimit="10"
   d="m 25.584231,8.7566662 c 0.928304,0.4864316 1.193836,0.5310389 1.990435,0.3536719"
   id="path5325" /><path
   style="fill:none;stroke:#000000;stroke-width:1;stroke-linecap:round;stroke-linejoin:round;stroke-miterlimit:10;stroke-opacity:0.30530976;stroke-dasharray:none"
   stroke-miterlimit="10"
   d="m 33.992064,6.9861824 c 0.75199,0.3536719 1.90334,0.7519511 2.522563,0.6191914"
   id="path5327" /><path
   style="fill:none;stroke:#000000;stroke-width:1;stroke-linecap:round;stroke-linejoin:round;stroke-miterlimit:10;stroke-opacity:0.30530976;stroke-dasharray:none"
   stroke-miterlimit="10"
   d="m 32.576243,13.934295 c 0.441847,0.265521 1.636745,0.884712 2.345187,0.884712"
   id="path5331" /><path
   style="fill:none;stroke:#000000;stroke-width:1;stroke-linecap:round;stroke-linejoin:round;stroke-miterlimit:10;stroke-opacity:0.30530976;stroke-dasharray:none"
   stroke-miterlimit="10"
   d="m 18.127007,26.66861 c 0.663831,0.332429 2.323943,1.327596 3.186394,1.194837"
   id="path5333" /><g
   id="g5498"
   transform="matrix(0.99172503,0,0,0.9917912,0.05239834,0.39123368)"><path
     id="path5335"
     d="m 39.242607,8.4560884 c -0.05248,-0.7753087 0.0032,-0.1177955 -0.09425,-0.057827 -1.902082,1.1833097 -7.420914,4.1035676 -15.140638,7.0334636 -8.237013,3.125865 -15.9706604,6.812865 -16.4472527,5.223696 0.079254,0.285922 1.2412819,1.219719 2.097006,2.481202 0.9435457,1.3932 5.6719837,-1.954335 13.9089977,-5.080199 7.720795,-2.932038 13.236413,-5.851225 15.141711,-7.033464 0.09639,-0.05997 0.481948,-1.0740811 0.534426,-2.5668716 z"
     stroke-miterlimit="10"
     style="fill:#bf252b;stroke:#281411;stroke-width:0.20166208;stroke-linecap:round;stroke-linejoin:round;stroke-miterlimit:10" /><path
     id="path5337"
     d="m 7.8164338,20.82676 c 0.4498175,1.092286 8.1106372,-2.204918 16.3487212,-5.328641 7.717582,-2.932038 12.857282,-5.729146 14.760438,-6.9113847 0.09746,-0.061039 0.197063,-0.2452288 0.160649,-0.3426779 l 0.02463,0.4272765 c 0.03641,0.097449 -0.03963,0.3244732 -0.138158,0.3855127 C 37.069561,10.240155 31.854892,13.05761 24.134096,15.990718 15.899225,19.115512 8.4215454,22.739331 7.9438821,21.149092 L 7.8164338,20.82676 z"
     stroke-miterlimit="10"
     style="fill:#f36f5e;stroke:#281411;stroke-width:0.04033241;stroke-linecap:round;stroke-linejoin:round;stroke-miterlimit:10" /><path
     id="path5339"
     d="m 30.608255,10.810928 c 1.998474,-0.112441 2.046669,-0.07389 2.477208,-0.122079 0.173502,-0.8470569 0.442321,-2.6246984 0.442321,-2.6246984 -1.32589,0.066394 -0.771116,0.00857 -2.76959,0.1231498 l -0.149939,2.6236276 z"
     stroke-miterlimit="10"
     style="fill:#bf252b;stroke:#281411;stroke-width:0.20166208;stroke-linecap:round;stroke-linejoin:round;stroke-miterlimit:10" /><path
     id="path5341"
     d="m 30.822453,8.2076469 c 1.998475,-0.113512 1.251992,-0.056756 2.577883,-0.122079 l -0.02249,0.300914 c -1.325891,0.066394 -0.557988,-0.013921 -2.556463,0.099591 l 0,-0.2784258 z"
     stroke-miterlimit="10"
     style="fill:#f36f5e;stroke:#281411;stroke-width:0.04033241;stroke-linecap:round;stroke-linejoin:round;stroke-miterlimit:10" /><path
     id="path5343"
     d="m 13.628718,17.715887 c 0.992811,-0.505449 3.460381,-1.612727 7.741143,-3.837992 1.344098,-0.699277 2.130207,-1.164034 3.370418,-1.806555 l 0.44125,-2.6246983 c -1.240211,0.6414503 -2.027392,1.1062073 -3.370418,1.8054843 -4.279692,2.225264 -7.17673,3.446054 -9.819943,4.961333 0,0.0011 0.946759,0.655372 1.63755,1.502428 z"
     stroke-miterlimit="10"
     style="fill:#bf252b;stroke:#281411;stroke-width:0.20166208;stroke-linecap:round;stroke-linejoin:round;stroke-miterlimit:10" /><path
     id="path5345"
     d="m 12.152888,16.133144 c 2.644284,-1.515279 5.143983,-2.526179 9.423675,-4.751443 1.345168,-0.699277 2.257655,-1.227215 3.500008,-1.8697364 l -0.06533,0.4272765 c -1.24021,0.6425209 -1.91815,1.0419549 -3.263318,1.7412319 -4.279692,2.225265 -6.672291,3.19333 -9.316575,4.708608 l -0.27846,-0.255937 z"
     stroke-miterlimit="10"
     style="fill:#f36f5e;stroke:#281411;stroke-width:0.04033241;stroke-linecap:round;stroke-linejoin:round;stroke-miterlimit:10" /></g></svg>