<?xml version="1.0" encoding="UTF-8" standalone="no"?>
<!-- Created with Inkscape (http://www.inkscape.org/) -->

<svg
   xmlns:dc="http://purl.org/dc/elements/1.1/"
   xmlns:cc="http://creativecommons.org/ns#"
   xmlns:rdf="http://www.w3.org/1999/02/22-rdf-syntax-ns#"
   xmlns:svg="http://www.w3.org/2000/svg"
   xmlns="http://www.w3.org/2000/svg"
   xmlns:xlink="http://www.w3.org/1999/xlink"
   xmlns:sodipodi="http://sodipodi.sourceforge.net/DTD/sodipodi-0.dtd"
   xmlns:inkscape="http://www.inkscape.org/namespaces/inkscape"
   width="48px"
   height="48px"
   id="svg22953"
   version="1.1"
   inkscape:version="0.48.4 r9939"
   sodipodi:docname="emit_steam.svg">
  <defs
     id="defs22955">
    <linearGradient
       id="linearGradient4216">
      <stop
         style="stop-color:#a40000;stop-opacity:0;"
         offset="0"
         id="stop4218" />
      <stop
         id="stop4224"
         offset="0.5"
         style="stop-color:#b30000;stop-opacity:0;" />
      <stop
         style="stop-color:#f86105;stop-opacity:0.49803922;"
         offset="0.75"
         id="stop4226" />
      <stop
         style="stop-color:#f8ff0b;stop-opacity:1;"
         offset="1"
         id="stop4220" />
    </linearGradient>
    <linearGradient
       id="linearGradient4198">
      <stop
         style="stop-color:#ffde0b;stop-opacity:1;"
         offset="0"
         id="stop4200" />
      <stop
         id="stop4212"
         offset="0.25"
         style="stop-color:#eaa400;stop-opacity:0.54954952;" />
      <stop
         id="stop4206"
         offset="0.5"
         style="stop-color:#ea0000;stop-opacity:0.2882883;" />
      <stop
         style="stop-color:#a40000;stop-opacity:0;"
         offset="1"
         id="stop4202" />
    </linearGradient>
    <linearGradient
       id="linearGradient3870">
      <stop
         style="stop-color:#ffffff;stop-opacity:1;"
         offset="0"
         id="stop3872" />
      <stop
         style="stop-color:#ffffff;stop-opacity:0.16216215;"
         offset="1"
         id="stop3874" />
    </linearGradient>
    <linearGradient
       id="linearGradient23700">
      <stop
         style="stop-color:#efbf29;stop-opacity:1;"
         offset="0"
         id="stop23702" />
      <stop
         id="stop23708"
         offset="0.5"
         style="stop-color:#ef2929;stop-opacity:1;" />
      <stop
         style="stop-color:#780909;stop-opacity:1;"
         offset="1"
         id="stop23704" />
    </linearGradient>
    <radialGradient
       inkscape:collect="always"
       xlink:href="#linearGradient23700"
       id="radialGradient23706"
       cx="23.884495"
       cy="41.615442"
       fx="23.884495"
       fy="41.615442"
       r="19.165472"
       gradientTransform="matrix(1,0,0,0.26454474,0,30.606296)"
       gradientUnits="userSpaceOnUse" />
    <radialGradient
       inkscape:collect="always"
       xlink:href="#linearGradient3870"
       id="radialGradient3876"
       cx="20.455378"
       cy="21.793373"
       fx="20.455378"
       fy="21.793373"
       r="21.075665"
       gradientTransform="matrix(1,0,0,1.0578195,0,-1.2600825)"
       gradientUnits="userSpaceOnUse" />
    <radialGradient
       inkscape:collect="always"
       xlink:href="#linearGradient4198"
       id="radialGradient4204"
       cx="30.809652"
       cy="38.201519"
       fx="30.809652"
       fy="38.201519"
       r="16.162441"
       gradientTransform="matrix(1,0,0,0.55937496,0,16.832546)"
       gradientUnits="userSpaceOnUse" />
    <radialGradient
       inkscape:collect="always"
       xlink:href="#linearGradient4216"
       id="radialGradient4222"
       cx="-6.4014745"
       cy="19.362213"
       fx="-6.4014745"
       fy="19.362213"
       r="3.6870568"
       gradientUnits="userSpaceOnUse"
       gradientTransform="matrix(2.1922787,0.01573646,-0.01681025,2.3418754,6.4801103,-27.547733)" />
    <radialGradient
       inkscape:collect="always"
       xlink:href="#linearGradient4216"
       id="radialGradient4230"
       gradientUnits="userSpaceOnUse"
       gradientTransform="matrix(2.1922787,0.01573646,-0.01681025,2.3418754,6.4801103,-27.547733)"
       cx="-6.4014745"
       cy="19.362213"
       fx="-6.4014745"
       fy="19.362213"
       r="3.6870568" />
    <radialGradient
       inkscape:collect="always"
       xlink:href="#linearGradient4216"
       id="radialGradient4234"
       gradientUnits="userSpaceOnUse"
       gradientTransform="matrix(2.1922787,0.01573646,-0.01681025,2.3418754,6.4801103,-27.547733)"
       cx="-6.4014745"
       cy="19.362213"
       fx="-6.4014745"
       fy="19.362213"
       r="3.6870568" />
    <radialGradient
       inkscape:collect="always"
       xlink:href="#linearGradient4216"
       id="radialGradient4238"
       gradientUnits="userSpaceOnUse"
       gradientTransform="matrix(2.1922787,0.01573646,-0.01681025,2.3418754,6.4801103,-27.547733)"
       cx="-6.4014745"
       cy="19.362213"
       fx="-6.4014745"
       fy="19.362213"
       r="3.6870568" />
    <radialGradient
       inkscape:collect="always"
       xlink:href="#linearGradient4216"
       id="radialGradient4242"
       gradientUnits="userSpaceOnUse"
       gradientTransform="matrix(2.1922787,0.01573646,-0.01681025,2.3418754,6.4801103,-27.547733)"
       cx="-6.4014745"
       cy="19.362213"
       fx="-6.4014745"
       fy="19.362213"
       r="3.6870568" />
    <radialGradient
       inkscape:collect="always"
       xlink:href="#linearGradient4216"
       id="radialGradient4250"
       gradientUnits="userSpaceOnUse"
       gradientTransform="matrix(2.1922787,0.01573646,-0.01681025,2.3418754,6.4801103,-27.547733)"
       cx="-6.4014745"
       cy="19.362213"
       fx="-6.4014745"
       fy="19.362213"
       r="3.6870568" />
    <radialGradient
       inkscape:collect="always"
       xlink:href="#linearGradient4216"
       id="radialGradient4254"
       gradientUnits="userSpaceOnUse"
       gradientTransform="matrix(2.1922787,0.01573646,-0.01681025,2.3418754,6.4801103,-27.547733)"
       cx="-6.4014745"
       cy="19.362213"
       fx="-6.4014745"
       fy="19.362213"
       r="3.6870568" />
    <radialGradient
       inkscape:collect="always"
       xlink:href="#linearGradient4216"
       id="radialGradient4275"
       gradientUnits="userSpaceOnUse"
       gradientTransform="matrix(2.1922787,0.01573646,-0.01681025,2.3418754,6.4801103,-27.547733)"
       cx="-6.4014745"
       cy="19.362213"
       fx="-6.4014745"
       fy="19.362213"
       r="3.6870568" />
  </defs>
  <sodipodi:namedview
     id="base"
     pagecolor="#ffffff"
     bordercolor="#666666"
     borderopacity="1.0"
     inkscape:pageopacity="0.0"
     inkscape:pageshadow="2"
     inkscape:zoom="19.79899"
     inkscape:cx="13.794741"
     inkscape:cy="23.713309"
     inkscape:current-layer="layer1"
     showgrid="true"
     inkscape:grid-bbox="true"
     inkscape:document-units="px"
     inkscape:window-width="2560"
     inkscape:window-height="1496"
     inkscape:window-x="-8"
     inkscape:window-y="-8"
     inkscape:window-maximized="1" />
  <metadata
     id="metadata22958">
    <rdf:RDF>
      <cc:Work
         rdf:about="">
        <dc:format>image/svg+xml</dc:format>
        <dc:type
           rdf:resource="http://purl.org/dc/dcmitype/StillImage" />
        <dc:title></dc:title>
      </cc:Work>
    </rdf:RDF>
  </metadata>
  <g
     id="layer1"
     inkscape:label="Layer 1"
     inkscape:groupmode="layer">
    <path
       sodipodi:type="arc"
       style="color:#000000;fill:url(#radialGradient4204);fill-opacity:1;fill-rule:nonzero;stroke:none;stroke-width:2;marker:none;visibility:visible;display:inline;overflow:visible;enable-background:accumulate"
       id="path4196"
       sodipodi:cx="30.809652"
       sodipodi:cy="38.201519"
       sodipodi:rx="16.162441"
       sodipodi:ry="9.0408649"
       d="m 46.972094,38.201519 a 16.162441,9.0408649 0 1 1 -32.324883,0 16.162441,9.0408649 0 1 1 32.324883,0 z"
       transform="matrix(0.97696713,0,0,1.0626498,3.3042394,0.52529999)" />
    <path
       sodipodi:nodetypes="scsscscscscssccsscsscsccssccscssccsscsccs"
       inkscape:connector-curvature="0"
       id="path23528"
       d="m 10.995857,0.49912334 c -1.82684,0 -3.3515003,1.17781536 -3.9242553,2.80894086 C 6.4088739,2.8683996 5.6132489,2.564521 4.7583563,2.564521 c -2.3134138,0 -4.17210329,1.8999974 -4.17210329,4.2134114 0,1.2499191 0.57756819,2.3306092 1.44577839,3.0980964 -0.9992767,0.7655552 -1.65231815,1.9898752 -1.65231815,3.3459442 0,1.567026 0.87378815,2.916745 2.14801355,3.6351 -0.00208,0.05408 0,0.110652 0,0.165232 0,1.497292 0.7599816,2.811861 1.9414738,3.552484 -0.3446712,0.608575 -0.5783113,1.316066 -0.5783113,2.065397 0,2.286121 1.8550857,4.128572 4.130795,4.172104 -0.6265199,0.732125 -0.9913906,1.68717 -0.9913906,2.726325 0,2.313413 1.8586898,4.213411 4.1721033,4.213411 0.364093,0 0.737216,-0.07794 1.074006,-0.165232 0.02025,1.009463 0.419392,1.889336 1.032699,2.602401 -0.630618,0.733193 -1.032699,1.642072 -1.032699,2.685017 0,2.313413 1.85869,4.213411 4.172104,4.213411 1.735061,0 3.247052,-1.057667 3.882947,-2.561093 0.682968,0.483479 1.536725,0.743543 2.43717,0.743543 2.313413,0 4.172103,-1.85869 4.172103,-4.172103 0,-0.909848 -0.292125,-1.750268 -0.784851,-2.437169 1.156152,-0.745594 1.900166,-2.033162 1.900166,-3.511176 0,-0.699495 -0.192517,-1.361805 -0.495696,-1.941474 0.785712,-0.625157 1.349277,-1.530221 1.528394,-2.561093 0.086,0.0053 0.160522,0.04131 0.247848,0.04131 2.313413,0 4.213411,-1.899998 4.213411,-4.213411 0,-0.836158 -0.28011,-1.618094 -0.702235,-2.271938 1.92095,-0.117645 3.482176,-1.500549 3.84164,-3.345944 2.152317,-0.17515 3.841639,-1.933339 3.841639,-4.130795 0,-1.349492 -0.661321,-2.538555 -1.652318,-3.3046366 0.0022,-0.056708 0,-0.1079691 0,-0.1652319 0,-2.3134132 -1.899998,-4.1721034 -4.213411,-4.1721034 -1.270469,0 -2.371213,0.552635 -3.139404,1.4457785 -0.172283,-0.089305 -0.351779,-0.1828072 -0.537004,-0.2478477 0.02389,-0.1810134 0.04131,-0.3494679 0.04131,-0.5370035 0,-2.3134138 -1.85869,-4.2134112 -4.172103,-4.2134112 -1.498664,0 -2.812235,0.7994823 -3.552484,1.9827817 -0.741833,-1.1755446 -2.018399,-1.9827817 -3.511176,-1.9827817 -1.767111,0 -3.267603,1.0958471 -3.882948,2.643709 -0.276263,0.00831 -0.524537,0.06461 -0.784851,0.1239238 -0.19502,-2.1322881 -1.947657,-3.80033366 -4.130797,-3.80033366 z"
       style="color:#000000;fill:url(#radialGradient3876);fill-opacity:1;fill-rule:nonzero;stroke:#ffffff;stroke-width:2;stroke-linecap:round;stroke-linejoin:round;stroke-miterlimit:4;stroke-opacity:0.12371134;stroke-dasharray:none;stroke-dashoffset:0;marker:none;visibility:visible;display:inline;overflow:visible;enable-background:accumulate" />
    <path
       style="fill:#7c0000;fill-opacity:1;stroke:none"
       d="m 31.866778,40.654996 c -1.895606,-0.0453 -3.436754,1.694815 -5.292049,2.086288 -1.644371,0.346966 -3.409099,-0.211491 -5.037622,0.20354 -1.484829,0.378412 -4.345524,1.351129 -4.121692,2.035403 0.287152,0.877852 2.768057,2.369171 4.477887,2.747794 1.883682,0.417121 3.820818,-0.682825 5.750013,-0.661505 2.739238,0.03028 5.411607,1.346197 8.141613,1.119471 1.930037,-0.16029 4.931328,-0.786576 6.818601,-1.221241 2.206725,-0.508241 5.182975,-0.568691 5.444704,-1.526553 0.288288,-1.055066 -3.630846,-2.800331 -5.800899,-3.256645 -1.884518,-0.396273 -3.849852,0.8725 -5.750014,0.559736 -1.670467,-0.274956 -2.938083,-2.045841 -4.630542,-2.086288 z"
       id="path23758"
       inkscape:connector-curvature="0"
       sodipodi:nodetypes="ssssssssssss" />
    <path
       sodipodi:nodetypes="ssssssssssss"
       inkscape:connector-curvature="0"
       id="path23760"
       d="m 32.227605,39.999534 c -1.662801,-0.03972 -3.014673,1.486671 -4.642113,1.830066 -1.442421,0.304354 -2.990416,-0.185518 -4.418935,0.178543 -1.302471,0.331936 -3.811835,1.185193 -3.615493,1.785428 0.251887,0.770039 2.428104,2.078204 3.927944,2.410328 1.652338,0.365892 3.351569,-0.598965 5.043834,-0.580264 2.402823,0.02656 4.746987,1.180866 7.141712,0.981984 1.693003,-0.140603 4.325695,-0.689973 5.981185,-1.071255 1.93571,-0.445822 4.546436,-0.498849 4.77602,-1.339072 0.252884,-0.925489 -3.184928,-2.456413 -5.088469,-2.856685 -1.653075,-0.347604 -3.377039,0.765345 -5.043836,0.490993 -1.465309,-0.241188 -2.577246,-1.794584 -4.061849,-1.830066 z"
       style="fill:#ef2929;stroke:none" />
    <path
       style="fill:#f57900;stroke:none"
       d="m 32.226487,39.522533 c -1.44258,-0.03447 -2.615411,1.289775 -4.027312,1.587692 -1.251385,0.264044 -2.594363,-0.160947 -3.83369,0.154895 -1.129971,0.287977 -3.306993,1.028226 -3.136655,1.548966 0.218527,0.668056 2.106524,1.802966 3.407726,2.091104 1.433503,0.317433 2.907686,-0.519639 4.375826,-0.503413 2.084592,0.02303 4.118295,1.02447 6.195862,0.851929 1.46878,-0.121983 3.752798,-0.598593 5.189034,-0.929379 1.679345,-0.386776 3.944305,-0.43278 4.143484,-1.161724 0.21939,-0.802917 -2.763117,-2.131085 -4.414553,-2.478345 -1.43414,-0.301568 -2.929781,0.663983 -4.375827,0.425967 -1.271244,-0.209246 -2.235914,-1.55691 -3.523895,-1.587692 z"
       id="path23762"
       inkscape:connector-curvature="0"
       sodipodi:nodetypes="ssssssssssss" />
    <path
       sodipodi:nodetypes="ssssssssssss"
       inkscape:connector-curvature="0"
       id="path23764"
       d="m 32.510548,39.110401 c -1.266403,-0.03027 -2.295999,1.13226 -3.535469,1.393792 -1.098557,0.231798 -2.277523,-0.141291 -3.365493,0.135979 -0.991971,0.252807 -2.903121,0.902652 -2.753586,1.359796 0.191839,0.586467 1.849261,1.582776 2.991551,1.835724 1.258434,0.278665 2.552579,-0.456177 3.841421,-0.441934 1.830007,0.02022 3.61534,0.899357 5.43918,0.747886 1.289404,-0.107085 3.294481,-0.525488 4.555315,-0.815877 1.474251,-0.33954 3.462598,-0.379925 3.637452,-1.019846 0.192598,-0.70486 -2.425665,-1.870822 -3.875415,-2.175672 -1.258994,-0.264738 -2.571978,0.582893 -3.841422,0.373944 -1.115992,-0.18369 -1.96285,-1.366769 -3.093534,-1.393792 z"
       style="fill:#fcaf3e;stroke:none" />
    <path
       sodipodi:type="arc"
       style="opacity:0.90517243;color:#000000;fill:#d2d2d2;fill-opacity:0.31372549;fill-rule:nonzero;stroke:none;stroke-width:0.5;marker:none;visibility:visible;display:inline;overflow:visible;enable-background:accumulate"
       id="path23530"
       sodipodi:cx="13.304083"
       sodipodi:cy="15.892115"
       sodipodi:rx="3.2474535"
       sodipodi:ry="3.2474535"
       d="m 16.551536,15.892115 a 3.2474535,3.2474535 0 1 1 -6.494907,0 3.2474535,3.2474535 0 1 1 6.494907,0 z"
       transform="matrix(1.3559092,0,0,1.3559092,-12.718201,-11.446425)" />
    <path
       transform="matrix(1.3559092,0,0,1.3559092,-9.167191,-7.1852134)"
       d="m 16.551536,15.892115 a 3.2474535,3.2474535 0 1 1 -6.494907,0 3.2474535,3.2474535 0 1 1 6.494907,0 z"
       sodipodi:ry="3.2474535"
       sodipodi:rx="3.2474535"
       sodipodi:cy="15.892115"
       sodipodi:cx="13.304083"
       id="path23532"
       style="opacity:0.90517243;color:#000000;fill:#d2d2d2;fill-opacity:0.31372549;fill-rule:nonzero;stroke:none;stroke-width:0.5;marker:none;visibility:visible;display:inline;overflow:visible;enable-background:accumulate"
       sodipodi:type="arc" />
    <path
       sodipodi:type="arc"
       style="opacity:0.90517243;color:#000000;fill:#d2d2d2;fill-opacity:0.31372549;fill-rule:nonzero;stroke:none;stroke-width:0.5;marker:none;visibility:visible;display:inline;overflow:visible;enable-background:accumulate"
       id="path23534"
       sodipodi:cx="13.304083"
       sodipodi:cy="15.892115"
       sodipodi:rx="3.2474535"
       sodipodi:ry="3.2474535"
       d="m 16.551536,15.892115 a 3.2474535,3.2474535 0 1 1 -6.494907,0 3.2474535,3.2474535 0 1 1 6.494907,0 z"
       transform="matrix(1.3559092,0,0,1.3559092,-9.877394,-2.2138001)" />
    <path
       transform="matrix(1.3559092,0,0,1.3559092,-8.030869,2.7576127)"
       d="m 16.551536,15.892115 a 3.2474535,3.2474535 0 1 1 -6.494907,0 3.2474535,3.2474535 0 1 1 6.494907,0 z"
       sodipodi:ry="3.2474535"
       sodipodi:rx="3.2474535"
       sodipodi:cy="15.892115"
       sodipodi:cx="13.304083"
       id="path23536"
       style="opacity:0.90517243;color:#000000;fill:#d2d2d2;fill-opacity:0.31372549;fill-rule:nonzero;stroke:none;stroke-width:0.5;marker:none;visibility:visible;display:inline;overflow:visible;enable-background:accumulate"
       sodipodi:type="arc" />
    <path
       sodipodi:type="arc"
       style="opacity:0.90517243;color:#000000;fill:#d2d2d2;fill-opacity:0.31372549;fill-rule:nonzero;stroke:none;stroke-width:0.5;marker:none;visibility:visible;display:inline;overflow:visible;enable-background:accumulate"
       id="path23538"
       sodipodi:cx="13.304083"
       sodipodi:cy="15.892115"
       sodipodi:rx="3.2474535"
       sodipodi:ry="3.2474535"
       d="m 16.551536,15.892115 a 3.2474535,3.2474535 0 1 1 -6.494907,0 3.2474535,3.2474535 0 1 1 6.494907,0 z"
       transform="matrix(1.3559092,0,0,1.3559092,-4.90598,8.2971884)" />
    <path
       transform="matrix(1.3559092,0,0,1.3559092,-1.639052,13.481662)"
       d="m 16.551536,15.892115 a 3.2474535,3.2474535 0 1 1 -6.494907,0 3.2474535,3.2474535 0 1 1 6.494907,0 z"
       sodipodi:ry="3.2474535"
       sodipodi:rx="3.2474535"
       sodipodi:cy="15.892115"
       sodipodi:cx="13.304083"
       id="path23540"
       style="opacity:0.90517243;color:#000000;fill:#fcaf3e;fill-opacity:0.31372549;fill-rule:nonzero;stroke:none;stroke-width:0.5;marker:none;visibility:visible;display:inline;overflow:visible;enable-background:accumulate"
       sodipodi:type="arc" />
    <path
       sodipodi:type="arc"
       style="opacity:0.90517243;color:#000000;fill:#d2d2d2;fill-opacity:0.31372549;fill-rule:nonzero;stroke:none;stroke-width:0.5;marker:none;visibility:visible;display:inline;overflow:visible;enable-background:accumulate"
       id="path23542"
       sodipodi:cx="13.304083"
       sodipodi:cy="15.892115"
       sodipodi:rx="3.2474535"
       sodipodi:ry="3.2474535"
       d="m 16.551536,15.892115 a 3.2474535,3.2474535 0 1 1 -6.494907,0 3.2474535,3.2474535 0 1 1 6.494907,0 z"
       transform="matrix(1.3559092,0,0,1.3559092,-3.627616,4.3910779)" />
    <path
       transform="matrix(1.3559092,0,0,1.3559092,-4.621899,-3.989305)"
       d="m 16.551536,15.892115 a 3.2474535,3.2474535 0 1 1 -6.494907,0 3.2474535,3.2474535 0 1 1 6.494907,0 z"
       sodipodi:ry="3.2474535"
       sodipodi:rx="3.2474535"
       sodipodi:cy="15.892115"
       sodipodi:cx="13.304083"
       id="path23544"
       style="opacity:0.90517243;color:#000000;fill:#d2d2d2;fill-opacity:0.31372549;fill-rule:nonzero;stroke:none;stroke-width:0.5;marker:none;visibility:visible;display:inline;overflow:visible;enable-background:accumulate"
       sodipodi:type="arc" />
    <path
       sodipodi:type="arc"
       style="opacity:0.90517243;color:#000000;fill:#d2d2d2;fill-opacity:0.31372549;fill-rule:nonzero;stroke:none;stroke-width:0.5;marker:none;visibility:visible;display:inline;overflow:visible;enable-background:accumulate"
       id="path23546"
       sodipodi:cx="13.304083"
       sodipodi:cy="15.892115"
       sodipodi:rx="3.2474535"
       sodipodi:ry="3.2474535"
       d="m 16.551536,15.892115 a 3.2474535,3.2474535 0 1 1 -6.494907,0 3.2474535,3.2474535 0 1 1 6.494907,0 z"
       transform="matrix(1.3559092,0,0,1.3559092,-7.107606,-11.943566)" />
    <path
       transform="matrix(1.3559092,0,0,1.3559092,-4.69292,-14.500293)"
       d="m 16.551536,15.892115 a 3.2474535,3.2474535 0 1 1 -6.494907,0 3.2474535,3.2474535 0 1 1 6.494907,0 z"
       sodipodi:ry="3.2474535"
       sodipodi:rx="3.2474535"
       sodipodi:cy="15.892115"
       sodipodi:cx="13.304083"
       id="path23548"
       style="opacity:0.90517243;color:#000000;fill:#d2d2d2;fill-opacity:0.31372549;fill-rule:nonzero;stroke:none;stroke-width:0.5;marker:none;visibility:visible;display:inline;overflow:visible;enable-background:accumulate"
       sodipodi:type="arc" />
    <path
       sodipodi:type="arc"
       style="opacity:0.90517243;color:#000000;fill:#d2d2d2;fill-opacity:0.31372549;fill-rule:nonzero;stroke:none;stroke-width:0.5;marker:none;visibility:visible;display:inline;overflow:visible;enable-background:accumulate"
       id="path23550"
       sodipodi:cx="13.304083"
       sodipodi:cy="15.892115"
       sodipodi:rx="3.2474535"
       sodipodi:ry="3.2474535"
       d="m 16.551536,15.892115 a 3.2474535,3.2474535 0 1 1 -6.494907,0 3.2474535,3.2474535 0 1 1 6.494907,0 z"
       transform="matrix(1.3559092,0,0,1.3559092,-11.652898,-14.642334)" />
    <path
       transform="matrix(1.3559092,0,0,1.3559092,-2.065172,-7.9664357)"
       d="m 16.551536,15.892115 a 3.2474535,3.2474535 0 1 1 -6.494907,0 3.2474535,3.2474535 0 1 1 6.494907,0 z"
       sodipodi:ry="3.2474535"
       sodipodi:rx="3.2474535"
       sodipodi:cy="15.892115"
       sodipodi:cx="13.304083"
       id="path23552"
       style="opacity:0.90517243;color:#000000;fill:#d2d2d2;fill-opacity:0.31372549;fill-rule:nonzero;stroke:none;stroke-width:0.5;marker:none;visibility:visible;display:inline;overflow:visible;enable-background:accumulate"
       sodipodi:type="arc" />
    <path
       sodipodi:type="arc"
       style="opacity:0.90517243;color:#000000;fill:#d2d2d2;fill-opacity:0.31372549;fill-rule:nonzero;stroke:none;stroke-width:0.5;marker:none;visibility:visible;display:inline;overflow:visible;enable-background:accumulate"
       id="path23554"
       sodipodi:cx="13.304083"
       sodipodi:cy="15.892115"
       sodipodi:rx="3.2474535"
       sodipodi:ry="3.2474535"
       d="m 16.551536,15.892115 a 3.2474535,3.2474535 0 1 1 -6.494907,0 3.2474535,3.2474535 0 1 1 6.494907,0 z"
       transform="matrix(1.3559092,0,0,1.3559092,2.977261,-12.937849)" />
    <path
       transform="matrix(1.3559092,0,0,1.3559092,2.48012,-6.9011328)"
       d="m 16.551536,15.892115 a 3.2474535,3.2474535 0 1 1 -6.494907,0 3.2474535,3.2474535 0 1 1 6.494907,0 z"
       sodipodi:ry="3.2474535"
       sodipodi:rx="3.2474535"
       sodipodi:cy="15.892115"
       sodipodi:cx="13.304083"
       id="path23556"
       style="opacity:0.90517243;color:#000000;fill:#d2d2d2;fill-opacity:0.31372549;fill-rule:nonzero;stroke:none;stroke-width:0.5;marker:none;visibility:visible;display:inline;overflow:visible;enable-background:accumulate"
       sodipodi:type="arc" />
    <path
       sodipodi:type="arc"
       style="opacity:0.90517243;color:#000000;fill:#d2d2d2;fill-opacity:0.31372549;fill-rule:nonzero;stroke:none;stroke-width:0.5;marker:none;visibility:visible;display:inline;overflow:visible;enable-background:accumulate"
       id="path23558"
       sodipodi:cx="13.304083"
       sodipodi:cy="15.892115"
       sodipodi:rx="3.2474535"
       sodipodi:ry="3.2474535"
       d="m 16.551536,15.892115 a 3.2474535,3.2474535 0 1 1 -6.494907,0 3.2474535,3.2474535 0 1 1 6.494907,0 z"
       transform="matrix(1.3559092,0,0,1.3559092,2.48012,-0.580336)" />
    <path
       transform="matrix(1.3559092,0,0,1.3559092,5.391947,6.8057642)"
       d="m 16.551536,15.892115 a 3.2474535,3.2474535 0 1 1 -6.494907,0 3.2474535,3.2474535 0 1 1 6.494907,0 z"
       sodipodi:ry="3.2474535"
       sodipodi:rx="3.2474535"
       sodipodi:cy="15.892115"
       sodipodi:cx="13.304083"
       id="path23560"
       style="opacity:0.90517243;color:#000000;fill:#fcaf3e;fill-opacity:0.31372549;fill-rule:nonzero;stroke:none;stroke-width:0.5;marker:none;visibility:visible;display:inline;overflow:visible;enable-background:accumulate"
       sodipodi:type="arc" />
    <path
       sodipodi:type="arc"
       style="opacity:0.90517243;color:#000000;fill:#fcaf3e;fill-opacity:0.31372549;fill-rule:nonzero;stroke:none;stroke-width:0.5;marker:none;visibility:visible;display:inline;overflow:visible;enable-background:accumulate"
       id="path23562"
       sodipodi:cx="13.304083"
       sodipodi:cy="15.892115"
       sodipodi:rx="3.2474535"
       sodipodi:ry="3.2474535"
       d="m 16.551536,15.892115 a 3.2474535,3.2474535 0 1 1 -6.494907,0 3.2474535,3.2474535 0 1 1 6.494907,0 z"
       transform="matrix(1.3559092,0,0,1.3559092,2.125018,8.3682082)" />
    <path
       transform="matrix(1.3559092,0,0,1.3559092,-0.715789,0.9821085)"
       d="m 16.551536,15.892115 a 3.2474535,3.2474535 0 1 1 -6.494907,0 3.2474535,3.2474535 0 1 1 6.494907,0 z"
       sodipodi:ry="3.2474535"
       sodipodi:rx="3.2474535"
       sodipodi:cy="15.892115"
       sodipodi:cx="13.304083"
       id="path23564"
       style="opacity:0.90517243;color:#000000;fill:#fcaf3e;fill-opacity:0.31372549;fill-rule:nonzero;stroke:none;stroke-width:0.5;marker:none;visibility:visible;display:inline;overflow:visible;enable-background:accumulate"
       sodipodi:type="arc" />
    <path
       sodipodi:type="arc"
       style="opacity:0.90517243;color:#000000;fill:#fce94f;fill-opacity:0.31372549;fill-rule:nonzero;stroke:none;stroke-width:0.5;marker:none;visibility:visible;display:inline;overflow:visible;enable-background:accumulate"
       id="path23566"
       sodipodi:cx="13.304083"
       sodipodi:cy="15.892115"
       sodipodi:rx="3.2474535"
       sodipodi:ry="3.2474535"
       d="m 16.551536,15.892115 a 3.2474535,3.2474535 0 1 1 -6.494907,0 3.2474535,3.2474535 0 1 1 6.494907,0 z"
       transform="matrix(1.3559092,0,0,1.3559092,2.62216,14.973086)" />
    <path
       transform="matrix(1.3559092,0,0,1.3559092,-1.141909,16.961651)"
       d="m 16.551536,15.892115 a 3.2474535,3.2474535 0 1 1 -6.494907,0 3.2474535,3.2474535 0 1 1 6.494907,0 z"
       sodipodi:ry="3.2474535"
       sodipodi:rx="3.2474535"
       sodipodi:cy="15.892115"
       sodipodi:cx="13.304083"
       id="path23568"
       style="opacity:0.90517243;color:#000000;fill:#fce94f;fill-opacity:0.31372549;fill-rule:nonzero;stroke:none;stroke-width:0.5;marker:none;visibility:visible;display:inline;overflow:visible;enable-background:accumulate"
       sodipodi:type="arc" />
    <path
       sodipodi:type="arc"
       style="opacity:0.90517243;color:#000000;fill:#fce94f;fill-opacity:0.31372549;fill-rule:nonzero;stroke:none;stroke-width:0.5;marker:none;visibility:visible;display:inline;overflow:visible;enable-background:accumulate"
       id="path23570"
       sodipodi:cx="13.304083"
       sodipodi:cy="15.892115"
       sodipodi:rx="3.2474535"
       sodipodi:ry="3.2474535"
       d="m 16.551536,15.892115 a 3.2474535,3.2474535 0 1 1 -6.494907,0 3.2474535,3.2474535 0 1 1 6.494907,0 z"
       transform="matrix(1.3559092,0,0,1.3559092,5.747049,9.7886125)" />
    <path
       transform="matrix(1.3559092,0,0,1.3559092,8.658876,0.200887)"
       d="m 16.551536,15.892115 a 3.2474535,3.2474535 0 1 1 -6.494907,0 3.2474535,3.2474535 0 1 1 6.494907,0 z"
       sodipodi:ry="3.2474535"
       sodipodi:rx="3.2474535"
       sodipodi:cy="15.892115"
       sodipodi:cx="13.304083"
       id="path23572"
       style="opacity:0.90517243;color:#000000;fill:#fcaf3e;fill-opacity:0.31372549;fill-rule:nonzero;stroke:none;stroke-width:0.5;marker:none;visibility:visible;display:inline;overflow:visible;enable-background:accumulate"
       sodipodi:type="arc" />
    <path
       sodipodi:type="arc"
       style="opacity:0.90517243;color:#000000;fill:#fcaf3e;fill-opacity:0.31372549;fill-rule:nonzero;stroke:none;stroke-width:0.5;marker:none;visibility:visible;display:inline;overflow:visible;enable-background:accumulate"
       id="path23574"
       sodipodi:cx="13.304083"
       sodipodi:cy="15.892115"
       sodipodi:rx="3.2474535"
       sodipodi:ry="3.2474535"
       d="m 16.551536,15.892115 a 3.2474535,3.2474535 0 1 1 -6.494907,0 3.2474535,3.2474535 0 1 1 6.494907,0 z"
       transform="matrix(1.3559092,0,0,1.3559092,10.079281,1.0531293)" />
    <path
       transform="matrix(1.3559092,0,0,1.3559092,12.422947,-3.9893042)"
       d="m 16.551536,15.892115 a 3.2474535,3.2474535 0 1 1 -6.494907,0 3.2474535,3.2474535 0 1 1 6.494907,0 z"
       sodipodi:ry="3.2474535"
       sodipodi:rx="3.2474535"
       sodipodi:cy="15.892115"
       sodipodi:cx="13.304083"
       id="path23576"
       style="opacity:0.90517243;color:#000000;fill:#d2d2d2;fill-opacity:0.31372549;fill-rule:nonzero;stroke:none;stroke-width:0.5;marker:none;visibility:visible;display:inline;overflow:visible;enable-background:accumulate"
       sodipodi:type="arc" />
    <path
       sodipodi:type="arc"
       style="opacity:0.90517243;color:#000000;fill:#d2d2d2;fill-opacity:0.31372549;fill-rule:nonzero;stroke:none;stroke-width:0.5;marker:none;visibility:visible;display:inline;overflow:visible;enable-background:accumulate"
       id="path23578"
       sodipodi:cx="13.304083"
       sodipodi:cy="15.892115"
       sodipodi:rx="3.2474535"
       sodipodi:ry="3.2474535"
       d="m 16.551536,15.892115 a 3.2474535,3.2474535 0 1 1 -6.494907,0 3.2474535,3.2474535 0 1 1 6.494907,0 z"
       transform="matrix(1.3559092,0,0,1.3559092,16.684158,-6.3329706)" />
    <path
       transform="matrix(1.3559092,0,0,1.3559092,16.684158,-8.8186771)"
       d="m 16.551536,15.892115 a 3.2474535,3.2474535 0 1 1 -6.494907,0 3.2474535,3.2474535 0 1 1 6.494907,0 z"
       sodipodi:ry="3.2474535"
       sodipodi:rx="3.2474535"
       sodipodi:cy="15.892115"
       sodipodi:cx="13.304083"
       id="path23580"
       style="opacity:0.90517243;color:#000000;fill:#d2d2d2;fill-opacity:0.31372549;fill-rule:nonzero;stroke:none;stroke-width:0.5;marker:none;visibility:visible;display:inline;overflow:visible;enable-background:accumulate"
       sodipodi:type="arc" />
    <path
       sodipodi:type="arc"
       style="opacity:0.90517243;color:#000000;fill:#d2d2d2;fill-opacity:0.31372549;fill-rule:nonzero;stroke:none;stroke-width:0.5;marker:none;visibility:visible;display:inline;overflow:visible;enable-background:accumulate"
       id="path23582"
       sodipodi:cx="13.304083"
       sodipodi:cy="15.892115"
       sodipodi:rx="3.2474535"
       sodipodi:ry="3.2474535"
       d="m 16.551536,15.892115 a 3.2474535,3.2474535 0 1 1 -6.494907,0 3.2474535,3.2474535 0 1 1 6.494907,0 z"
       transform="matrix(1.3559092,0,0,1.3559092,14.979673,-11.304384)" />
    <path
       transform="matrix(1.3559092,0,0,1.3559092,8.871937,-9.5288791)"
       d="m 16.551536,15.892115 a 3.2474535,3.2474535 0 1 1 -6.494907,0 3.2474535,3.2474535 0 1 1 6.494907,0 z"
       sodipodi:ry="3.2474535"
       sodipodi:rx="3.2474535"
       sodipodi:cy="15.892115"
       sodipodi:cx="13.304083"
       id="path23584"
       style="opacity:0.90517243;color:#000000;fill:#d2d2d2;fill-opacity:0.31372549;fill-rule:nonzero;stroke:none;stroke-width:0.5;marker:none;visibility:visible;display:inline;overflow:visible;enable-background:accumulate"
       sodipodi:type="arc" />
    <path
       sodipodi:type="arc"
       style="opacity:0.90517243;color:#000000;fill:#d2d2d2;fill-opacity:0.31372549;fill-rule:nonzero;stroke:none;stroke-width:0.5;marker:none;visibility:visible;display:inline;overflow:visible;enable-background:accumulate"
       id="path23586"
       sodipodi:cx="13.304083"
       sodipodi:cy="15.892115"
       sodipodi:rx="3.2474535"
       sodipodi:ry="3.2474535"
       d="m 16.551536,15.892115 a 3.2474535,3.2474535 0 1 1 -6.494907,0 3.2474535,3.2474535 0 1 1 6.494907,0 z"
       transform="matrix(1.3559092,0,0,1.3559092,7.167452,-4.9835869)" />
    <path
       transform="matrix(1.3559092,0,0,1.3559092,8.232756,-14.145192)"
       d="m 16.551536,15.892115 a 3.2474535,3.2474535 0 1 1 -6.494907,0 3.2474535,3.2474535 0 1 1 6.494907,0 z"
       sodipodi:ry="3.2474535"
       sodipodi:rx="3.2474535"
       sodipodi:cy="15.892115"
       sodipodi:cx="13.304083"
       id="path23588"
       style="opacity:0.90517243;color:#000000;fill:#d2d2d2;fill-opacity:0.31372549;fill-rule:nonzero;stroke:none;stroke-width:0.5;marker:none;visibility:visible;display:inline;overflow:visible;enable-background:accumulate"
       sodipodi:type="arc" />
    <path
       sodipodi:type="arc"
       style="opacity:0.90517243;color:#000000;fill:#d2d2d2;fill-opacity:0.31372549;fill-rule:nonzero;stroke:none;stroke-width:0.5;marker:none;visibility:visible;display:inline;overflow:visible;enable-background:accumulate"
       id="path23590"
       sodipodi:cx="13.304083"
       sodipodi:cy="15.892115"
       sodipodi:rx="3.2474535"
       sodipodi:ry="3.2474535"
       d="m 16.551536,15.892115 a 3.2474535,3.2474535 0 1 1 -6.494907,0 3.2474535,3.2474535 0 1 1 6.494907,0 z"
       transform="matrix(1.3559092,0,0,1.3559092,0.633595,-14.358252)" />
    <path
       transform="matrix(1.3559092,0,0,1.3559092,-3.343536,-6.5460309)"
       d="m 16.551536,15.892115 a 3.2474535,3.2474535 0 1 1 -6.494907,0 3.2474535,3.2474535 0 1 1 6.494907,0 z"
       sodipodi:ry="3.2474535"
       sodipodi:rx="3.2474535"
       sodipodi:cy="15.892115"
       sodipodi:cx="13.304083"
       id="path23592"
       style="opacity:0.90517243;color:#000000;fill:#d2d2d2;fill-opacity:0.31372549;fill-rule:nonzero;stroke:none;stroke-width:0.5;marker:none;visibility:visible;display:inline;overflow:visible;enable-background:accumulate"
       sodipodi:type="arc" />
    <path
       sodipodi:type="arc"
       style="opacity:0.90517243;color:#000000;fill:#fcaf3e;fill-opacity:0.31372549;fill-rule:nonzero;stroke:none;stroke-width:0.5;marker:none;visibility:visible;display:inline;overflow:visible;enable-background:accumulate"
       id="path23594"
       sodipodi:cx="13.304083"
       sodipodi:cy="15.892115"
       sodipodi:rx="3.2474535"
       sodipodi:ry="3.2474535"
       d="m 16.551536,15.892115 a 3.2474535,3.2474535 0 1 1 -6.494907,0 3.2474535,3.2474535 0 1 1 6.494907,0 z"
       transform="matrix(1.3559092,0,0,1.3559092,1.769918,2.3314925)" />
    <path
       transform="matrix(1.3559092,0,0,1.3559092,-2.775374,-3.6342034)"
       d="m 16.551536,15.892115 a 3.2474535,3.2474535 0 1 1 -6.494907,0 3.2474535,3.2474535 0 1 1 6.494907,0 z"
       sodipodi:ry="3.2474535"
       sodipodi:rx="3.2474535"
       sodipodi:cy="15.892115"
       sodipodi:cx="13.304083"
       id="path23598"
       style="opacity:0.90517243;color:#000000;fill:#d2d2d2;fill-opacity:0.31372549;fill-rule:nonzero;stroke:none;stroke-width:0.5;marker:none;visibility:visible;display:inline;overflow:visible;enable-background:accumulate"
       sodipodi:type="arc" />
    <path
       sodipodi:type="arc"
       style="opacity:0.90517243;color:#000000;fill:#d2d2d2;fill-opacity:0.31372549;fill-rule:nonzero;stroke:none;stroke-width:0.5;marker:none;visibility:visible;display:inline;overflow:visible;enable-background:accumulate"
       id="path23600"
       sodipodi:cx="13.304083"
       sodipodi:cy="15.892115"
       sodipodi:rx="3.2474535"
       sodipodi:ry="3.2474535"
       d="m 16.551536,15.892115 a 3.2474535,3.2474535 0 1 1 -6.494907,0 3.2474535,3.2474535 0 1 1 6.494907,0 z"
       transform="matrix(1.3559092,0,0,1.3559092,4.681746,-4.0603246)" />
    <path
       transform="matrix(1.3559092,0,0,1.3559092,-2.562314,-9.1027581)"
       d="m 16.551536,15.892115 a 3.2474535,3.2474535 0 1 1 -6.494907,0 3.2474535,3.2474535 0 1 1 6.494907,0 z"
       sodipodi:ry="3.2474535"
       sodipodi:rx="3.2474535"
       sodipodi:cy="15.892115"
       sodipodi:cx="13.304083"
       id="path23602"
       style="opacity:0.90517243000000003;color:#000000;fill:#eeeeec;fill-opacity:0.31372549000000000;fill-rule:nonzero;stroke:none;stroke-width:0.50000000000000000;marker:none;visibility:visible;display:inline;overflow:visible;enable-background:accumulate"
       sodipodi:type="arc" />
    <path
       sodipodi:type="arc"
       style="opacity:0.90517243000000003;color:#000000;fill:#eeeeec;fill-opacity:0.31372549000000000;fill-rule:nonzero;stroke:none;stroke-width:0.50000000000000000;marker:none;visibility:visible;display:inline;overflow:visible;enable-background:accumulate"
       id="path23604"
       sodipodi:cx="13.304083"
       sodipodi:cy="15.892115"
       sodipodi:rx="3.2474535"
       sodipodi:ry="3.2474535"
       d="m 16.551536,15.892115 a 3.2474535,3.2474535 0 1 1 -6.494907,0 3.2474535,3.2474535 0 1 1 6.494907,0 z"
       transform="matrix(1.3559092,0,0,1.3559092,-6.681485,-2.2848198)" />
    <path
       transform="matrix(1.3559092,0,0,1.3559092,-0.644769,8.1551488)"
       d="m 16.551536,15.892115 a 3.2474535,3.2474535 0 1 1 -6.494907,0 3.2474535,3.2474535 0 1 1 6.494907,0 z"
       sodipodi:ry="3.2474535"
       sodipodi:rx="3.2474535"
       sodipodi:cy="15.892115"
       sodipodi:cx="13.304083"
       id="path23606"
       style="opacity:0.90517243;color:#000000;fill:#fcaf3e;fill-opacity:0.31372549;fill-rule:nonzero;stroke:none;stroke-width:0.5;marker:none;visibility:visible;display:inline;overflow:visible;enable-background:accumulate"
       sodipodi:type="arc" />
    <path
       sodipodi:type="arc"
       style="opacity:0.90517243;color:#000000;fill:#fcaf3e;fill-opacity:0.31372549;fill-rule:nonzero;stroke:none;stroke-width:0.5;marker:none;visibility:visible;display:inline;overflow:visible;enable-background:accumulate"
       id="path23608"
       sodipodi:cx="13.304083"
       sodipodi:cy="15.892115"
       sodipodi:rx="3.2474535"
       sodipodi:ry="3.2474535"
       d="m 16.551536,15.892115 a 3.2474535,3.2474535 0 1 1 -6.494907,0 3.2474535,3.2474535 0 1 1 6.494907,0 z"
       transform="matrix(1.3559092,0,0,1.3559092,3.190322,3.1837354)" />
    <path
       transform="matrix(1.3559092,0,0,1.3559092,-0.289668,2.4025133)"
       d="m 16.551536,15.892115 a 3.2474535,3.2474535 0 1 1 -6.494907,0 3.2474535,3.2474535 0 1 1 6.494907,0 z"
       sodipodi:ry="3.2474535"
       sodipodi:rx="3.2474535"
       sodipodi:cy="15.892115"
       sodipodi:cx="13.304083"
       id="path23610"
       style="opacity:0.90517243;color:#000000;fill:#fcaf3e;fill-opacity:0.31372549;fill-rule:nonzero;stroke:none;stroke-width:0.5;marker:none;visibility:visible;display:inline;overflow:visible;enable-background:accumulate"
       sodipodi:type="arc" />
    <path
       sodipodi:type="arc"
       style="opacity:0.90517243000000003;color:#000000;fill:#eeeeec;fill-opacity:0.31372549000000000;fill-rule:nonzero;stroke:none;stroke-width:0.50000000000000000;marker:none;visibility:visible;display:inline;overflow:visible;enable-background:accumulate"
       id="path23612"
       sodipodi:cx="13.304083"
       sodipodi:cy="15.892115"
       sodipodi:rx="3.2474535"
       sodipodi:ry="3.2474535"
       d="m 16.551536,15.892115 a 3.2474535,3.2474535 0 1 1 -6.494907,0 3.2474535,3.2474535 0 1 1 6.494907,0 z"
       transform="matrix(1.3559092,0,0,1.3559092,5.533988,-3.9893038)" />
    <path
       transform="matrix(1.3559092,0,0,1.3559092,2.69318,-10.09704)"
       d="m 16.551536,15.892115 a 3.2474535,3.2474535 0 1 1 -6.494907,0 3.2474535,3.2474535 0 1 1 6.494907,0 z"
       sodipodi:ry="3.2474535"
       sodipodi:rx="3.2474535"
       sodipodi:cy="15.892115"
       sodipodi:cx="13.304083"
       id="path23614"
       style="opacity:0.90517243;color:#000000;fill:#d2d2d2;fill-opacity:0.31372549;fill-rule:nonzero;stroke:none;stroke-width:0.5;marker:none;visibility:visible;display:inline;overflow:visible;enable-background:accumulate"
       sodipodi:type="arc" />
    <path
       sodipodi:type="arc"
       style="opacity:0.90517243;color:#000000;fill:#d2d2d2;fill-opacity:0.31372549;fill-rule:nonzero;stroke:none;stroke-width:0.5;marker:none;visibility:visible;display:inline;overflow:visible;enable-background:accumulate"
       id="path23616"
       sodipodi:cx="13.304083"
       sodipodi:cy="15.892115"
       sodipodi:rx="3.2474535"
       sodipodi:ry="3.2474535"
       d="m 16.551536,15.892115 a 3.2474535,3.2474535 0 1 1 -6.494907,0 3.2474535,3.2474535 0 1 1 6.494907,0 z"
       transform="matrix(1.3559092,0,0,1.3559092,9.013977,-9.8129591)" />
    <path
       transform="matrix(1.3559092,0,0,1.3559092,-5.545162,-9.8129591)"
       d="m 16.551536,15.892115 a 3.2474535,3.2474535 0 1 1 -6.494907,0 3.2474535,3.2474535 0 1 1 6.494907,0 z"
       sodipodi:ry="3.2474535"
       sodipodi:rx="3.2474535"
       sodipodi:cy="15.892115"
       sodipodi:cx="13.304083"
       id="path23618"
       style="opacity:0.90517243;color:#000000;fill:#d2d2d2;fill-opacity:0.31372549;fill-rule:nonzero;stroke:none;stroke-width:0.5;marker:none;visibility:visible;display:inline;overflow:visible;enable-background:accumulate"
       sodipodi:type="arc" />
    <path
       sodipodi:type="arc"
       style="opacity:0.90517243;color:#000000;fill:#d2d2d2;fill-opacity:0.31372549;fill-rule:nonzero;stroke:none;stroke-width:0.5;marker:none;visibility:visible;display:inline;overflow:visible;enable-background:accumulate"
       id="path23620"
       sodipodi:cx="13.304083"
       sodipodi:cy="15.892115"
       sodipodi:rx="3.2474535"
       sodipodi:ry="3.2474535"
       d="m 16.551536,15.892115 a 3.2474535,3.2474535 0 1 1 -6.494907,0 3.2474535,3.2474535 0 1 1 6.494907,0 z"
       transform="matrix(1.3559092,0,0,1.3559092,-5.545162,-9.8129591)" />
    <path
       transform="matrix(1.3559092,0,0,1.3559092,5.178886,7.1608659)"
       d="m 16.551536,15.892115 a 3.2474535,3.2474535 0 1 1 -6.494907,0 3.2474535,3.2474535 0 1 1 6.494907,0 z"
       sodipodi:ry="3.2474535"
       sodipodi:rx="3.2474535"
       sodipodi:cy="15.892115"
       sodipodi:cx="13.304083"
       id="path23622"
       style="opacity:0.90517243;color:#000000;fill:#fcaf3e;fill-opacity:0.31372549;fill-rule:nonzero;stroke:none;stroke-width:0.5;marker:none;visibility:visible;display:inline;overflow:visible;enable-background:accumulate"
       sodipodi:type="arc" />
    <path
       sodipodi:type="arc"
       style="opacity:0.90517243;color:#000000;fill:#fce94f;fill-opacity:0.31372549;fill-rule:nonzero;stroke:none;stroke-width:0.5;marker:none;visibility:visible;display:inline;overflow:visible;enable-background:accumulate"
       id="path23624"
       sodipodi:cx="13.304083"
       sodipodi:cy="15.892115"
       sodipodi:rx="3.2474535"
       sodipodi:ry="3.2474535"
       d="m 16.551536,15.892115 a 3.2474535,3.2474535 0 1 1 -6.494907,0 3.2474535,3.2474535 0 1 1 6.494907,0 z"
       transform="matrix(1.3559092,0,0,1.3559092,-0.715789,9.5755531)" />
    <path
       style="opacity:0.90517243;color:#000000;fill:#ffffff;fill-opacity:1;fill-rule:nonzero;stroke:none;stroke-width:0.5;marker:none;visibility:visible;display:inline;overflow:visible;enable-background:accumulate"
       d="m 10.217546,6.559725 c -2.431849,0 -4.406705,1.9748559 -4.406705,4.406705 0,1.519905 0.777847,2.85271 1.949119,3.644006 -0.474778,-0.702764 -0.720326,-1.545641 -0.720326,-2.457586 0,-2.4318486 1.974855,-4.4067044 4.406704,-4.4067044 0.878965,0 1.685524,0.2765904 2.372841,0.7203267 C 13.023883,7.3227452 11.716172,6.559725 10.217546,6.559725 z"
       id="path23626"
       inkscape:connector-curvature="0" />
    <path
       inkscape:connector-curvature="0"
       id="path23631"
       d="m 14.123655,19.272339 c -2.431847,0 -4.406703,1.974856 -4.406703,4.406704 0,1.519906 0.777847,2.85271 1.949119,3.644006 -0.474778,-0.702763 -0.720326,-1.545641 -0.720326,-2.457585 0,-2.431848 1.974854,-4.406704 4.406704,-4.406704 0.878963,0 1.685523,0.27659 2.37284,0.720326 -0.795296,-1.143726 -2.103007,-1.906747 -3.601634,-1.906747 z"
       style="opacity:0.90517243;color:#000000;fill:#ffffff;fill-opacity:1;fill-rule:nonzero;stroke:none;stroke-width:0.5;marker:none;visibility:visible;display:inline;overflow:visible;enable-background:accumulate" />
    <path
       style="opacity:0.90517243;color:#000000;fill:#ffffff;fill-opacity:1;fill-rule:nonzero;stroke:none;stroke-width:0.5;marker:none;visibility:visible;display:inline;overflow:visible;enable-background:accumulate"
       d="M 21.020226,5.1725463 C 19.334219,3.4200445 16.541873,3.3660468 14.78937,5.0520602 c -1.095313,1.0537552 -1.51651,2.5383442 -1.274708,3.9310256 0.177279,-0.8293757 0.614457,-1.5906983 1.271645,-2.222952 1.752502,-1.6860089 4.544848,-1.6320113 6.230856,0.1204861 0.609388,0.6334224 0.969255,1.4064276 1.125998,2.2093834 0.27284,-1.3660757 -0.08393,-2.8374771 -1.122935,-3.9174557 z"
       id="path23633"
       inkscape:connector-curvature="0" />
    <path
       inkscape:connector-curvature="0"
       id="path23635"
       d="m 24.020636,12.308194 c -1.189368,-0.779635 -2.788358,-0.4469 -3.567994,0.742469 -0.487272,0.743355 -0.534131,1.644575 -0.214971,2.407084 -0.0069,-0.495918 0.143227,-0.986874 0.43559,-1.432887 0.779637,-1.189367 2.378625,-1.522103 3.567992,-0.742466 0.429884,0.28179 0.735683,0.675643 0.929577,1.113015 -0.02229,-0.814342 -0.417247,-1.606763 -1.150194,-2.087215 z"
       style="opacity:0.90517243;color:#000000;fill:#ffffff;fill-opacity:1;fill-rule:nonzero;stroke:none;stroke-width:0.5;marker:none;visibility:visible;display:inline;overflow:visible;enable-background:accumulate" />
    <path
       inkscape:connector-curvature="0"
       id="path23637"
       d="m 29.74873,15.093028 c -0.262751,-1.397635 -1.611121,-2.319256 -3.008762,-2.056496 -0.873524,0.164218 -1.555472,0.755267 -1.883698,1.51392 0.352599,-0.348795 0.810488,-0.580987 1.334602,-0.679519 1.397638,-0.262752 2.746006,0.658868 3.008761,2.056498 0.09497,0.505161 0.02316,0.998594 -0.157612,1.441551 0.571397,-0.580647 0.868628,-1.41466 0.706707,-2.275953 z"
       style="opacity:0.90517243;color:#000000;fill:#ffffff;fill-opacity:1;fill-rule:nonzero;stroke:none;stroke-width:0.5;marker:none;visibility:visible;display:inline;overflow:visible;enable-background:accumulate" />
    <path
       style="opacity:0.90517243;color:#000000;fill:#eeeeec;fill-opacity:1;fill-rule:nonzero;stroke:none;stroke-width:0.5;marker:none;visibility:visible;display:inline;overflow:visible;enable-background:accumulate"
       d="m 24.33438,27.526916 c -1.275164,-1.217725 -3.299592,-1.171081 -4.517317,0.10408 -0.761079,0.796977 -1.020597,1.885347 -0.802664,2.886775 0.102941,-0.606243 0.396255,-1.171171 0.852903,-1.649357 1.217727,-1.275164 3.242154,-1.32181 4.517318,-0.104079 0.460894,0.440134 0.745322,0.989044 0.883527,1.56589 0.155689,-0.997962 -0.147946,-2.052885 -0.933767,-2.803309 z"
       id="path23639"
       inkscape:connector-curvature="0" />
    <path
       style="fill:#910000;fill-opacity:0.59278349;stroke:none"
       d="m 26.772616,42.494736 c -0.270486,-0.05728 -0.364177,0.431687 -0.60512,0.567299 -0.245225,0.138022 -0.803158,-0.0543 -0.813128,0.226919 -0.01328,0.374587 0.753798,0.160555 1.058958,0.3782 0.230018,0.164052 0.24759,0.680809 0.529479,0.661848 0.293373,-0.01974 0.236495,-0.558362 0.453839,-0.756398 0.258412,-0.235455 1.006469,-0.109604 0.945499,-0.453839 -0.07952,-0.44899 -0.994081,0.137643 -1.361519,-0.13237 -0.143395,-0.105375 -0.03392,-0.454789 -0.208008,-0.491659 z"
       id="path11048"
       inkscape:connector-curvature="0"
       sodipodi:nodetypes="sssssssss" />
    <path
       sodipodi:nodetypes="sssssssss"
       inkscape:connector-curvature="0"
       id="path11050"
       d="m 41.135519,42.973342 c -0.182595,0.207615 0.19756,0.5291 0.197555,0.805587 -4e-6,0.281398 -0.441272,0.673268 -0.201094,0.819896 0.319916,0.195309 0.509653,-0.578137 0.848999,-0.73731 0.255785,-0.11998 0.714728,0.118178 0.836472,-0.136772 0.126703,-0.265336 -0.370579,-0.47997 -0.436548,-0.766508 -0.07843,-0.340681 0.398161,-0.93084 0.06828,-1.046555 -0.430277,-0.15093 -0.367651,0.933796 -0.78318,1.121555 -0.162164,0.07327 -0.412959,-0.193518 -0.53048,-0.05989 z"
       style="fill:#910000;fill-opacity:0.59278349;stroke:none" />
    <path
       style="fill:#910000;fill-opacity:0.59278349;stroke:none"
       d="m 24.916053,41.727475 c -0.270486,-0.05729 -0.364176,0.431687 -0.605119,0.5673 -0.245224,0.138021 -0.803159,-0.0543 -0.813129,0.226919 -0.01328,0.374586 0.753799,0.160553 1.058959,0.378198 0.230017,0.164053 0.247589,0.68081 0.529478,0.661849 0.293372,-0.01974 0.236495,-0.558363 0.453839,-0.756398 0.258412,-0.235455 1.00647,-0.109604 0.9455,-0.453838 -0.07952,-0.448992 -0.994081,0.137642 -1.361518,-0.132371 -0.143396,-0.105374 -0.03392,-0.454789 -0.20801,-0.491659 z"
       id="path11052"
       inkscape:connector-curvature="0"
       sodipodi:nodetypes="sssssssss" />
    <path
       sodipodi:nodetypes="sssssssss"
       inkscape:connector-curvature="0"
       id="path11054"
       d="m 37.025181,45.023504 c -0.270485,-0.05729 -0.364176,0.431686 -0.605119,0.567299 -0.245224,0.138022 -0.803158,-0.0543 -0.813128,0.226919 -0.01328,0.374587 0.753798,0.160555 1.058958,0.378199 0.230018,0.164053 0.247589,0.680811 0.529479,0.661849 0.293372,-0.01974 0.236495,-0.558363 0.453839,-0.756398 0.258411,-0.235456 1.00647,-0.109604 0.945499,-0.453839 -0.07952,-0.44899 -0.99408,0.137642 -1.361518,-0.13237 -0.143396,-0.105375 -0.03391,-0.454789 -0.20801,-0.491659 z"
       style="fill:#910000;fill-opacity:0.90463921;stroke:none" />
    <path
       style="fill:#910000;fill-opacity:0.59278349;stroke:none"
       d="m 30.112863,42.457532 c -0.270485,-0.05728 -0.364176,0.431687 -0.605118,0.567299 -0.245225,0.138022 -0.803158,-0.0543 -0.813129,0.22692 -0.01328,0.374587 0.753798,0.160555 1.058959,0.378199 0.230017,0.164053 0.247589,0.680809 0.529478,0.661849 0.293372,-0.01974 0.236495,-0.558364 0.45384,-0.7564 0.25841,-0.235454 1.006469,-0.109603 0.945497,-0.453838 -0.07952,-0.448991 -0.994079,0.137643 -1.361517,-0.13237 -0.143396,-0.105375 -0.03391,-0.454789 -0.20801,-0.491659 z"
       id="path11056"
       inkscape:connector-curvature="0"
       sodipodi:nodetypes="sssssssss" />
    <path
       sodipodi:nodetypes="sssssssss"
       inkscape:connector-curvature="0"
       id="path11058"
       d="m 34.53663,43.11881 c -0.270485,-0.05728 -0.364175,0.431686 -0.605119,0.567298 -0.245224,0.138023 -0.803158,-0.0543 -0.813128,0.22692 -0.01328,0.374587 0.753798,0.160555 1.058958,0.3782 0.230018,0.164052 0.24759,0.680809 0.529479,0.661848 0.293372,-0.01974 0.236495,-0.558363 0.453839,-0.756399 0.258411,-0.235455 1.006469,-0.109605 0.945499,-0.453839 -0.07952,-0.448991 -0.994081,0.137643 -1.361518,-0.13237 -0.143396,-0.105375 -0.03392,-0.454789 -0.20801,-0.491658 z"
       style="fill:#910000;fill-opacity:0.90463921;stroke:none" />
    <path
       style="fill:#910000;fill-opacity:0.90463921;stroke:none"
       d="m 27.540075,43.395576 c -0.270485,-0.05728 -0.364175,0.431687 -0.605118,0.567299 -0.245225,0.138022 -0.803158,-0.05431 -0.813129,0.226919 -0.01328,0.374588 0.753798,0.160555 1.058959,0.3782 0.230017,0.164052 0.247589,0.680809 0.529478,0.661849 0.293372,-0.01974 0.236496,-0.558364 0.45384,-0.7564 0.25841,-0.235454 1.006469,-0.109603 0.945498,-0.453838 -0.07952,-0.448991 -0.99408,0.137643 -1.361518,-0.13237 -0.143396,-0.105376 -0.03391,-0.45479 -0.20801,-0.491659 z"
       id="path11060"
       inkscape:connector-curvature="0"
       sodipodi:nodetypes="sssssssss" />
    <path
       sodipodi:nodetypes="sssssssss"
       inkscape:connector-curvature="0"
       id="path11062"
       d="m 24.614264,44.380609 c -0.270486,-0.05728 -0.364176,0.431688 -0.605118,0.5673 -0.245226,0.138022 -0.803159,-0.05431 -0.813129,0.22692 -0.01328,0.374587 0.753798,0.160555 1.058957,0.378198 0.230019,0.164052 0.247591,0.68081 0.52948,0.661849 0.293372,-0.01974 0.236496,-0.558363 0.453839,-0.756399 0.258411,-0.235454 1.006469,-0.109604 0.945499,-0.453838 -0.07952,-0.448991 -0.994081,0.137643 -1.361518,-0.13237 -0.143396,-0.105375 -0.03392,-0.45479 -0.20801,-0.49166 z"
       style="fill:#910000;fill-opacity:0.90463921;stroke:none" />
    <path
       style="fill:#910000;fill-opacity:0.47422683;stroke:none"
       d="m 36.888507,43.172578 c -0.04396,0.272965 0.448999,0.342605 0.596244,0.576619 0.149863,0.238174 -0.01491,0.804855 0.266456,0.801045 0.374788,-0.005 0.123458,-0.760755 0.325902,-1.076205 0.152594,-0.237772 0.667871,-0.280622 0.635134,-0.561245 -0.03408,-0.292055 -0.569273,-0.208876 -0.777711,-0.416264 -0.247823,-0.246574 -0.158747,-0.999897 -0.499584,-0.922146 -0.444559,0.101409 0.186146,0.98615 -0.06556,1.366365 -0.09823,0.148383 -0.452583,0.05615 -0.480887,0.231831 z"
       id="path11064"
       inkscape:connector-curvature="0"
       sodipodi:nodetypes="sssssssss" />
    <path
       sodipodi:nodetypes="sssssssss"
       inkscape:connector-curvature="0"
       id="path11066"
       d="m 43.704358,44.14395 c -0.270486,-0.05728 -0.364177,0.431687 -0.60512,0.567299 -0.245224,0.138022 -0.803158,-0.0543 -0.813128,0.226919 -0.01328,0.374587 0.753798,0.160555 1.058958,0.3782 0.230017,0.164052 0.247589,0.68081 0.529479,0.661848 0.293372,-0.01974 0.236495,-0.558362 0.453838,-0.756398 0.258413,-0.235455 1.006471,-0.109604 0.9455,-0.453839 -0.07952,-0.448991 -0.99408,0.137642 -1.361518,-0.132369 -0.143396,-0.105377 -0.03391,-0.454791 -0.208009,-0.49166 z"
       style="fill:#910000;fill-opacity:0.90463921;stroke:none" />
    <path
       style="fill:#910000;fill-opacity:0.90463921;stroke:none"
       d="m 32.432457,44.8098 c -0.270486,-0.05728 -0.364177,0.431686 -0.605119,0.567299 -0.245225,0.138022 -0.803158,-0.05431 -0.813128,0.226919 -0.01328,0.374588 0.753797,0.160555 1.058957,0.378199 0.230018,0.164053 0.24759,0.68081 0.529478,0.66185 0.293374,-0.01974 0.236496,-0.558364 0.45384,-0.756399 0.258412,-0.235455 1.00647,-0.109604 0.945499,-0.453839 -0.07952,-0.448991 -0.99408,0.137643 -1.361517,-0.132369 -0.143397,-0.105377 -0.03392,-0.454791 -0.20801,-0.49166 z"
       id="path11068"
       inkscape:connector-curvature="0"
       sodipodi:nodetypes="sssssssss" />
    <path
       sodipodi:nodetypes="sssssssss"
       inkscape:connector-curvature="0"
       id="path11070"
       d="m 21.590678,43.287002 c -0.257705,0.10016 -0.06838,0.560625 -0.195754,0.806025 -0.129632,0.249762 -0.70181,0.394303 -0.556178,0.635087 0.193982,0.320723 0.718681,-0.278365 1.093201,-0.263323 0.2823,0.01134 0.579938,0.434138 0.80544,0.263932 0.234687,-0.17714 -0.107817,-0.596721 -0.03437,-0.881435 0.08732,-0.338512 0.782197,-0.642777 0.542703,-0.897447 -0.312377,-0.332172 -0.756478,0.659455 -1.211785,0.634689 -0.177688,-0.0097 -0.277388,-0.361994 -0.443253,-0.297528 z"
       style="fill:#910000;fill-opacity:0.90463921;stroke:none" />
    <path
       style="fill:#910000;fill-opacity:0.59278349;stroke:none"
       d="m 35.411524,42.771504 c -0.270486,-0.05728 -0.364177,0.431687 -0.60512,0.567299 -0.245224,0.138023 -0.803158,-0.0543 -0.813127,0.22692 -0.01328,0.374587 0.753797,0.160555 1.058957,0.3782 0.230018,0.164052 0.247589,0.680809 0.529479,0.661848 0.293372,-0.01974 0.236496,-0.558364 0.45384,-0.756399 0.258411,-0.235455 1.006469,-0.109604 0.945498,-0.453838 -0.07952,-0.448992 -0.99408,0.137642 -1.361518,-0.132371 -0.143396,-0.105375 -0.03391,-0.454789 -0.208009,-0.491659 z"
       id="path11072"
       inkscape:connector-curvature="0"
       sodipodi:nodetypes="sssssssss" />
    <path
       style="fill:#910000;fill-opacity:0.90463921;stroke:none"
       d="m 24.100313,42.515933 c -0.161975,-0.224072 -0.559731,0.07536 -0.829337,0.01408 -0.274397,-0.06239 -0.558707,-0.579532 -0.754926,-0.377829 -0.261362,0.268665 0.450785,0.625124 0.530778,0.991311 0.0603,0.276017 -0.273665,0.670752 -0.05204,0.845981 0.230651,0.182364 0.550174,-0.25497 0.844207,-0.255783 0.349591,-9.62e-4 0.819426,0.594587 1.005385,0.298557 0.242552,-0.386117 -0.829071,-0.565491 -0.920052,-1.012301 -0.03551,-0.174374 0.28024,-0.359791 0.175989,-0.504009 z"
       id="path11074"
       inkscape:connector-curvature="0"
       sodipodi:nodetypes="sssssssss" />
    <path
       sodipodi:nodetypes="sssssssss"
       inkscape:connector-curvature="0"
       id="path11076"
       d="m 25.761965,43.802982 c -0.267952,0.06816 -0.135882,0.548191 -0.292079,0.776329 -0.15897,0.232193 -0.744456,0.306263 -0.629107,0.562933 0.153647,0.341885 0.747139,-0.189135 1.117071,-0.128773 0.278837,0.0455 0.522993,0.501277 0.767475,0.359681 0.254442,-0.147363 -0.03464,-0.605391 0.0728,-0.879095 0.127738,-0.325421 0.854391,-0.543149 0.647556,-0.824991 -0.269778,-0.367609 -0.830885,0.562825 -1.279824,0.483014 -0.175205,-0.03115 -0.231431,-0.392969 -0.403891,-0.349098 z"
       style="fill:#910000;fill-opacity:0.90463921;stroke:none" />
    <path
       style="fill:#910000;fill-opacity:0.59278349;stroke:none"
       d="m 31.938499,43.821425 c -0.253139,0.111197 -0.04411,0.563056 -0.160758,0.813728 -0.118724,0.255127 -0.684124,0.424247 -0.528229,0.658516 0.207653,0.312046 0.705987,-0.309147 1.080807,-0.310294 0.282525,-8.82e-4 0.598147,0.408683 0.816088,0.228898 0.226817,-0.187111 -0.133489,-0.591507 -0.07241,-0.879129 0.07262,-0.341967 0.753705,-0.675959 0.503434,-0.920049 -0.326431,-0.318369 -0.72729,0.691513 -1.18324,0.686435 -0.17794,-0.002 -0.292764,-0.349675 -0.455692,-0.278105 z"
       id="path11078"
       inkscape:connector-curvature="0"
       sodipodi:nodetypes="sssssssss" />
    <path
       sodipodi:nodetypes="sssssssss"
       inkscape:connector-curvature="0"
       id="path11080"
       d="m 39.62562,44.906725 c -0.25314,0.111197 -0.04411,0.563056 -0.160758,0.813728 -0.118725,0.255129 -0.684125,0.424247 -0.528231,0.658517 0.207654,0.312046 0.705988,-0.309148 1.080808,-0.310294 0.282526,-8.82e-4 0.598147,0.408684 0.816087,0.228898 0.226817,-0.187112 -0.133488,-0.591507 -0.07241,-0.879129 0.07262,-0.341967 0.753705,-0.675959 0.503434,-0.920049 -0.326431,-0.318369 -0.727289,0.691513 -1.18324,0.686436 -0.17794,-0.002 -0.292764,-0.349677 -0.455691,-0.278107 z"
       style="fill:#910000;fill-opacity:0.90463921;stroke:none" />
    <path
       style="fill:#910000;fill-opacity:0.90463921;stroke:none"
       d="m 29.852773,44.17845 c -0.253139,0.111197 -0.04411,0.563056 -0.160758,0.813729 -0.118724,0.255127 -0.684124,0.424246 -0.528228,0.658516 0.207651,0.312046 0.705986,-0.309148 1.080806,-0.310295 0.282525,-8.81e-4 0.598147,0.408684 0.816088,0.228899 0.226816,-0.187111 -0.133489,-0.591508 -0.07241,-0.879129 0.07262,-0.341967 0.753706,-0.675959 0.503435,-0.920049 -0.326432,-0.31837 -0.727291,0.691513 -1.183241,0.686435 -0.17794,-0.002 -0.292765,-0.349677 -0.455691,-0.278106 z"
       id="path11082"
       inkscape:connector-curvature="0"
       sodipodi:nodetypes="sssssssss" />
    <path
       sodipodi:nodetypes="sssssssss"
       inkscape:connector-curvature="0"
       id="path11084"
       d="m 33.788355,44.336062 c -0.253138,0.111197 -0.04411,0.563055 -0.160756,0.813727 -0.118725,0.255129 -0.684125,0.424249 -0.528231,0.658518 0.207654,0.312045 0.705988,-0.309148 1.080808,-0.310295 0.282525,-8.82e-4 0.598147,0.408685 0.816087,0.228899 0.226817,-0.187112 -0.133489,-0.591508 -0.07241,-0.879129 0.07262,-0.341968 0.753705,-0.67596 0.503434,-0.92005 -0.326432,-0.318369 -0.72729,0.691514 -1.18324,0.686436 -0.17794,-0.002 -0.292764,-0.349676 -0.455691,-0.278106 z"
       style="fill:#910000;fill-opacity:0.90463921;stroke:none" />
    <path
       style="fill:#910000;fill-opacity:0.59278349;stroke:none"
       d="m 27.107366,43.061463 c -0.01576,0.276035 0.481753,0.294775 0.652211,0.512463 0.173488,0.221557 0.06767,0.802143 0.347166,0.76951 0.372293,-0.04347 0.04482,-0.769402 0.213866,-1.103941 0.127432,-0.252156 0.635587,-0.347608 0.574256,-0.623398 -0.06384,-0.287021 -0.587684,-0.14942 -0.816285,-0.334348 -0.271793,-0.219872 -0.260407,-0.978357 -0.591478,-0.866077 -0.431823,0.146446 0.286253,0.961873 0.07485,1.365886 -0.08248,0.157681 -0.444445,0.102242 -0.454589,0.279905 z"
       id="path11086"
       inkscape:connector-curvature="0"
       sodipodi:nodetypes="sssssssss" />
    <path
       sodipodi:nodetypes="sssssssss"
       inkscape:connector-curvature="0"
       id="path11088"
       d="m 38.043416,43.83853 c -0.270485,-0.05728 -0.364176,0.431687 -0.605118,0.5673 -0.245225,0.138023 -0.803158,-0.0543 -0.813129,0.22692 -0.01328,0.374586 0.753798,0.160555 1.058958,0.378199 0.230018,0.164052 0.24759,0.68081 0.529479,0.661848 0.293373,-0.01974 0.236495,-0.558362 0.45384,-0.756398 0.258411,-0.235455 1.006469,-0.109605 0.945499,-0.453839 -0.07952,-0.448991 -0.994081,0.137643 -1.361519,-0.13237 -0.143396,-0.105376 -0.03392,-0.45479 -0.20801,-0.49166 z"
       style="fill:#910000;fill-opacity:0.90463921;stroke:none" />
    <path
       style="fill:#910000;fill-opacity:0.90463921;stroke:none"
       d="m 22.293989,44.565707 c -0.270486,-0.05728 -0.364176,0.431687 -0.605118,0.5673 -0.245226,0.138022 -0.803159,-0.0543 -0.81313,0.226919 -0.01328,0.374587 0.753798,0.160555 1.058958,0.378199 0.230019,0.164053 0.24759,0.680809 0.52948,0.661849 0.293372,-0.01974 0.236495,-0.558364 0.453839,-0.756399 0.258411,-0.235454 1.006468,-0.109603 0.945498,-0.453838 -0.07952,-0.448992 -0.994081,0.137643 -1.361518,-0.13237 -0.143396,-0.105375 -0.03391,-0.45479 -0.208009,-0.49166 z"
       id="path11090"
       inkscape:connector-curvature="0"
       sodipodi:nodetypes="sssssssss" />
    <path
       style="fill:#fce94f;stroke:none"
       d="m 32.139393,38.743879 c -0.916468,-0.0219 -1.661565,0.819393 -2.558543,1.008657 -0.795004,0.167748 -1.648195,-0.102248 -2.435536,0.09841 -0.717869,0.182951 -2.100926,0.653229 -1.992711,0.984054 0.138829,0.424416 1.33827,1.145422 2.164921,1.328475 0.910702,0.201665 1.847248,-0.330126 2.779954,-0.319818 1.324337,0.01463 2.616345,0.650844 3.936218,0.541229 0.933115,-0.0775 2.384147,-0.380284 3.296585,-0.590433 1.066884,-0.245718 2.505809,-0.274943 2.632347,-0.73804 0.139378,-0.510092 -1.755402,-1.353874 -2.804557,-1.574488 -0.911106,-0.191584 -1.861284,0.421828 -2.779955,0.270615 -0.807617,-0.132932 -1.420471,-0.989101 -2.238723,-1.008657 z"
       id="path23766"
       inkscape:connector-curvature="0"
       sodipodi:nodetypes="ssssssssssss" />
    <path
       sodipodi:type="arc"
       style="opacity:0.54310345;color:#000000;fill:url(#radialGradient4222);fill-opacity:1;fill-rule:nonzero;stroke:none;stroke-width:2;marker:none;visibility:visible;display:inline;overflow:visible;enable-background:accumulate"
       id="path4214"
       sodipodi:cx="-5.8083773"
       sodipodi:cy="20.321819"
       sodipodi:rx="3.6870568"
       sodipodi:ry="3.6870568"
       d="m -2.1213205,20.321819 a 3.6870568,3.6870568 0 1 1 -7.3741135,0 3.6870568,3.6870568 0 1 1 7.3741135,0 z"
       transform="translate(22.930463,12.475384)" />
    <path
       transform="matrix(0.70811381,0.29504742,-0.29504742,0.70811381,32.483771,21.737033)"
       d="m -2.1213205,20.321819 a 3.6870568,3.6870568 0 1 1 -7.3741135,0 3.6870568,3.6870568 0 1 1 7.3741135,0 z"
       sodipodi:ry="3.6870568"
       sodipodi:rx="3.6870568"
       sodipodi:cy="20.321819"
       sodipodi:cx="-5.8083773"
       id="path4228"
       style="opacity:0.54310345;color:#000000;fill:url(#radialGradient4230);fill-opacity:1;fill-rule:nonzero;stroke:none;stroke-width:2;marker:none;visibility:visible;display:inline;overflow:visible;enable-background:accumulate"
       sodipodi:type="arc" />
    <path
       sodipodi:type="arc"
       style="opacity:0.54310345;color:#000000;fill:url(#radialGradient4234);fill-opacity:1;fill-rule:nonzero;stroke:none;stroke-width:2;marker:none;visibility:visible;display:inline;overflow:visible;enable-background:accumulate"
       id="path4232"
       sodipodi:cx="-5.8083773"
       sodipodi:cy="20.321819"
       sodipodi:rx="3.6870568"
       sodipodi:ry="3.6870568"
       d="m -2.1213205,20.321819 a 3.6870568,3.6870568 0 1 1 -7.3741135,0 3.6870568,3.6870568 0 1 1 7.3741135,0 z"
       transform="translate(29.041886,7.8791897)" />
    <path
       transform="matrix(0.85749292,0.51449576,-0.51449576,0.85749292,42.760759,7.9046934)"
       d="m -2.1213205,20.321819 a 3.6870568,3.6870568 0 1 1 -7.3741135,0 3.6870568,3.6870568 0 1 1 7.3741135,0 z"
       sodipodi:ry="3.6870568"
       sodipodi:rx="3.6870568"
       sodipodi:cy="20.321819"
       sodipodi:cx="-5.8083773"
       id="path4236"
       style="opacity:0.54310345;color:#000000;fill:url(#radialGradient4238);fill-opacity:1;fill-rule:nonzero;stroke:none;stroke-width:2;marker:none;visibility:visible;display:inline;overflow:visible;enable-background:accumulate"
       sodipodi:type="arc" />
    <path
       sodipodi:type="arc"
       style="opacity:0.90517243;color:#000000;fill:url(#radialGradient4242);fill-opacity:1;fill-rule:nonzero;stroke:none;stroke-width:2;marker:none;visibility:visible;display:inline;overflow:visible;enable-background:accumulate"
       id="path4240"
       sodipodi:cx="-5.8083773"
       sodipodi:cy="20.321819"
       sodipodi:rx="3.6870568"
       sodipodi:ry="3.6870568"
       d="m -2.1213205,20.321819 a 3.6870568,3.6870568 0 1 1 -7.3741135,0 3.6870568,3.6870568 0 1 1 7.3741135,0 z"
       transform="translate(21.92031,5.2527931)" />
    <path
       transform="translate(24.243661,9.2934033)"
       d="m -2.1213205,20.321819 a 3.6870568,3.6870568 0 1 1 -7.3741135,0 3.6870568,3.6870568 0 1 1 7.3741135,0 z"
       sodipodi:ry="3.6870568"
       sodipodi:rx="3.6870568"
       sodipodi:cy="20.321819"
       sodipodi:cx="-5.8083773"
       id="path4244"
       style="opacity:0.54310345;color:#000000;fill:url(#radialGradient4275);fill-opacity:1;fill-rule:nonzero;stroke:none;stroke-width:2;marker:none;visibility:visible;display:inline;overflow:visible;enable-background:accumulate"
       sodipodi:type="arc" />
    <path
       sodipodi:type="arc"
       style="opacity:0.54310345;color:#000000;fill:url(#radialGradient4250);fill-opacity:1;fill-rule:nonzero;stroke:none;stroke-width:2;marker:none;visibility:visible;display:inline;overflow:visible;enable-background:accumulate"
       id="path4248"
       sodipodi:cx="-5.8083773"
       sodipodi:cy="20.321819"
       sodipodi:rx="3.6870568"
       sodipodi:ry="3.6870568"
       d="m -2.1213205,20.321819 a 3.6870568,3.6870568 0 1 1 -7.3741135,0 3.6870568,3.6870568 0 1 1 7.3741135,0 z"
       transform="matrix(0.93783781,0.34707384,-0.34707384,0.93783781,34.218766,4.1883218)" />
    <path
       transform="matrix(0.5479452,0,0,0.5479452,20.506788,26.965261)"
       d="m -2.1213205,20.321819 a 3.6870568,3.6870568 0 1 1 -7.3741135,0 3.6870568,3.6870568 0 1 1 7.3741135,0 z"
       sodipodi:ry="3.6870568"
       sodipodi:rx="3.6870568"
       sodipodi:cy="20.321819"
       sodipodi:cx="-5.8083773"
       id="path4252"
       style="opacity:0.54310345;color:#000000;fill:url(#radialGradient4254);fill-opacity:1;fill-rule:nonzero;stroke:none;stroke-width:2;marker:none;visibility:visible;display:inline;overflow:visible;enable-background:accumulate"
       sodipodi:type="arc" />
  </g>
</svg>
