<?xml version="1.0" encoding="UTF-8" standalone="no"?>
<!-- Created with Inkscape (http://www.inkscape.org/) -->
<svg
   xmlns:dc="http://purl.org/dc/elements/1.1/"
   xmlns:cc="http://web.resource.org/cc/"
   xmlns:rdf="http://www.w3.org/1999/02/22-rdf-syntax-ns#"
   xmlns:svg="http://www.w3.org/2000/svg"
   xmlns="http://www.w3.org/2000/svg"
   xmlns:sodipodi="http://sodipodi.sourceforge.net/DTD/sodipodi-0.dtd"
   xmlns:inkscape="http://www.inkscape.org/namespaces/inkscape"
   width="48px"
   height="48px"
   id="svg10531"
   sodipodi:version="0.32"
   inkscape:version="0.45.1"
   sodipodi:docbase="C:\dev\src\houdini\support\icons\SHELF"
   sodipodi:docname="exploding_object.svg"
   inkscape:output_extension="org.inkscape.output.svg.inkscape">
  <defs
     id="defs10533">
    <radialGradient
       id="SVGID_62_"
       cx="24.2637"
       cy="109.2334"
       r="20.4831"
       gradientUnits="userSpaceOnUse"
       gradientTransform="translate(-0.629,-81.982)">
	<stop
   offset="0"
   style="stop-color:#F17912"
   id="stop6358" />

	<stop
   offset="0.1034"
   style="stop-color:#F18218"
   id="stop6360" />

	<stop
   offset="0.2703"
   style="stop-color:#F39A29"
   id="stop6362" />

	<stop
   offset="0.4786"
   style="stop-color:#F5C043"
   id="stop6364" />

	<stop
   offset="0.6758"
   style="stop-color:#F7EB61"
   id="stop6366" />

	<stop
   offset="1"
   style="stop-color:#FFFFFF"
   id="stop6368" />

</radialGradient>
    <radialGradient
       id="SVGID_63_"
       cx="23.7471"
       cy="108.937"
       r="19.6245"
       gradientUnits="userSpaceOnUse"
       gradientTransform="translate(-0.629,-81.982)">
	<stop
   offset="0"
   style="stop-color:#F6E94E"
   id="stop6373" />

	<stop
   offset="0.0644"
   style="stop-color:#F7DF47"
   id="stop6375" />

	<stop
   offset="0.5883"
   style="stop-color:#FD9214"
   id="stop6377" />

	<stop
   offset="0.8297"
   style="stop-color:#FF7400"
   id="stop6379" />

	<stop
   offset="0.8644"
   style="stop-color:#FE7D06"
   id="stop6381" />

	<stop
   offset="0.9204"
   style="stop-color:#FC9516"
   id="stop6383" />

	<stop
   offset="0.9904"
   style="stop-color:#F9BB2F"
   id="stop6385" />

	<stop
   offset="1"
   style="stop-color:#F9C133"
   id="stop6387" />

</radialGradient>
    <radialGradient
       id="SVGID_64_"
       cx="471.0337"
       cy="113.042"
       r="13.6338"
       gradientTransform="matrix(-1,0,0,1,484.9228,-81.982)"
       gradientUnits="userSpaceOnUse">
	<stop
   offset="0"
   style="stop-color:#FFFFFF"
   id="stop6394" />

	<stop
   offset="0.0644"
   style="stop-color:#FEEED5"
   id="stop6396" />

	<stop
   offset="0.1716"
   style="stop-color:#FCD395"
   id="stop6398" />

	<stop
   offset="0.2621"
   style="stop-color:#FBBF66"
   id="stop6400" />

	<stop
   offset="0.3312"
   style="stop-color:#FAB349"
   id="stop6402" />

	<stop
   offset="0.3708"
   style="stop-color:#FAAF3E"
   id="stop6404" />

	<stop
   offset="0.691"
   style="stop-color:#F17912"
   id="stop6406" />

	<stop
   offset="1"
   style="stop-color:#A65414"
   id="stop6408" />

</radialGradient>
    <radialGradient
       id="SVGID_65_"
       cx="9.2837"
       cy="110.0039"
       r="22.748"
       gradientUnits="userSpaceOnUse">
		<stop
   offset="0"
   style="stop-color:#FFFFFF"
   id="stop6415" />

		<stop
   offset="0.0644"
   style="stop-color:#FEEED5"
   id="stop6417" />

		<stop
   offset="0.1716"
   style="stop-color:#FCD395"
   id="stop6419" />

		<stop
   offset="0.2621"
   style="stop-color:#FBBF66"
   id="stop6421" />

		<stop
   offset="0.3312"
   style="stop-color:#FAB349"
   id="stop6423" />

		<stop
   offset="0.3708"
   style="stop-color:#FAAF3E"
   id="stop6425" />

		<stop
   offset="0.691"
   style="stop-color:#F17912"
   id="stop6427" />

		<stop
   offset="1"
   style="stop-color:#B15A12"
   id="stop6429" />

	</radialGradient>
    <radialGradient
       id="SVGID_66_"
       cx="25.1426"
       cy="110.6987"
       r="11.4694"
       gradientUnits="userSpaceOnUse"
       gradientTransform="translate(-0.629,-81.982)">
	<stop
   offset="0"
   style="stop-color:#FFFFFF"
   id="stop6434" />

	<stop
   offset="0.3683"
   style="stop-color:#FBF6B9"
   id="stop6436" />

	<stop
   offset="0.8004"
   style="stop-color:#F8ED6C"
   id="stop6438" />

	<stop
   offset="1"
   style="stop-color:#F6E94E"
   id="stop6440" />

</radialGradient>
    <radialGradient
       id="SVGID_67_"
       cx="24.4302"
       cy="110.8379"
       r="7.5953"
       gradientUnits="userSpaceOnUse"
       gradientTransform="translate(-0.629,-81.982)">
	<stop
   offset="0"
   style="stop-color:#FFFFFF"
   id="stop6445" />

	<stop
   offset="0.3683"
   style="stop-color:#FBF6B9"
   id="stop6447" />

	<stop
   offset="0.8004"
   style="stop-color:#F8ED6C"
   id="stop6449" />

	<stop
   offset="1"
   style="stop-color:#F6E94E"
   id="stop6451" />

</radialGradient>
    <radialGradient
       id="SVGID_68_"
       cx="28.3066"
       cy="109.2627"
       r="17.5047"
       gradientUnits="userSpaceOnUse">
	<stop
   offset="0"
   style="stop-color:#FFFFFF"
   id="stop6456" />

	<stop
   offset="0.3683"
   style="stop-color:#FBF6B9"
   id="stop6458" />

	<stop
   offset="0.8004"
   style="stop-color:#F8ED6C"
   id="stop6460" />

	<stop
   offset="1"
   style="stop-color:#F6E94E"
   id="stop6462" />

</radialGradient>
    <radialGradient
       id="SVGID_69_"
       cx="25.4126"
       cy="109.1113"
       r="26.0533"
       gradientUnits="userSpaceOnUse">
	<stop
   offset="0"
   style="stop-color:#FFFFFF"
   id="stop6467" />

	<stop
   offset="0.3683"
   style="stop-color:#FBF6B9"
   id="stop6469" />

	<stop
   offset="0.8004"
   style="stop-color:#F8ED6C"
   id="stop6471" />

	<stop
   offset="1"
   style="stop-color:#F6E94E"
   id="stop6473" />

</radialGradient>
    <radialGradient
       id="SVGID_70_"
       cx="24.6729"
       cy="108.8442"
       r="29.004"
       gradientUnits="userSpaceOnUse">
	<stop
   offset="0"
   style="stop-color:#FFFFFF"
   id="stop6478" />

	<stop
   offset="0.3683"
   style="stop-color:#FBF6B9"
   id="stop6480" />

	<stop
   offset="0.8004"
   style="stop-color:#F8ED6C"
   id="stop6482" />

	<stop
   offset="1"
   style="stop-color:#F6E94E"
   id="stop6484" />

</radialGradient>
    <radialGradient
       id="SVGID_71_"
       cx="25.4102"
       cy="109.1191"
       r="26.0477"
       gradientUnits="userSpaceOnUse">
	<stop
   offset="0"
   style="stop-color:#FFFFFF"
   id="stop6489" />

	<stop
   offset="0.3683"
   style="stop-color:#FBF6B9"
   id="stop6491" />

	<stop
   offset="0.8004"
   style="stop-color:#F8ED6C"
   id="stop6493" />

	<stop
   offset="1"
   style="stop-color:#F6E94E"
   id="stop6495" />

</radialGradient>
    <radialGradient
       id="SVGID_72_"
       cx="25.4097"
       cy="109.1123"
       r="26.072"
       gradientUnits="userSpaceOnUse">
	<stop
   offset="0"
   style="stop-color:#FFFFFF"
   id="stop6500" />

	<stop
   offset="0.3683"
   style="stop-color:#FBF6B9"
   id="stop6502" />

	<stop
   offset="0.8004"
   style="stop-color:#F8ED6C"
   id="stop6504" />

	<stop
   offset="1"
   style="stop-color:#F6E94E"
   id="stop6506" />

</radialGradient>
    <radialGradient
       id="SVGID_73_"
       cx="25.4102"
       cy="109.1133"
       r="26.061"
       gradientUnits="userSpaceOnUse">
	<stop
   offset="0"
   style="stop-color:#FFFFFF"
   id="stop6511" />

	<stop
   offset="0.3683"
   style="stop-color:#FBF6B9"
   id="stop6513" />

	<stop
   offset="0.8004"
   style="stop-color:#F8ED6C"
   id="stop6515" />

	<stop
   offset="1"
   style="stop-color:#F6E94E"
   id="stop6517" />

</radialGradient>
    <radialGradient
       id="SVGID_75_"
       cx="39.8267"
       cy="123.4385"
       r="5.5073"
       gradientUnits="userSpaceOnUse">
		<stop
   offset="0"
   style="stop-color:#FFFFFF"
   id="stop6535" />

		<stop
   offset="0.0644"
   style="stop-color:#FDEED5"
   id="stop6537" />

		<stop
   offset="0.1716"
   style="stop-color:#FBD395"
   id="stop6539" />

		<stop
   offset="0.2621"
   style="stop-color:#F9BF66"
   id="stop6541" />

		<stop
   offset="0.3312"
   style="stop-color:#F7B349"
   id="stop6543" />

		<stop
   offset="0.3708"
   style="stop-color:#F7AF3E"
   id="stop6545" />

		<stop
   offset="0.691"
   style="stop-color:#EF7916"
   id="stop6547" />

		<stop
   offset="1"
   style="stop-color:#A65416"
   id="stop6549" />

	</radialGradient>
    <linearGradient
       id="SVGID_74_"
       gradientUnits="userSpaceOnUse"
       x1="37.8066"
       y1="128.3809"
       x2="40.3971"
       y2="126.362">
		<stop
   offset="0.0056"
   style="stop-color:#F7AF3E"
   id="stop6528" />

		<stop
   offset="1"
   style="stop-color:#994410"
   id="stop6530" />

	</linearGradient>
    <radialGradient
       id="SVGID_77_"
       cx="3043.8804"
       cy="7217.2798"
       r="3.3088"
       gradientTransform="matrix(-0.9885,0.1513,-0.1513,-0.9885,4115.8447,6772.2202)"
       gradientUnits="userSpaceOnUse">
		<stop
   offset="0"
   style="stop-color:#FFFFFF"
   id="stop6567" />

		<stop
   offset="0.0644"
   style="stop-color:#FDEED5"
   id="stop6569" />

		<stop
   offset="0.1716"
   style="stop-color:#FBD395"
   id="stop6571" />

		<stop
   offset="0.2621"
   style="stop-color:#F9BF66"
   id="stop6573" />

		<stop
   offset="0.3312"
   style="stop-color:#F7B349"
   id="stop6575" />

		<stop
   offset="0.3708"
   style="stop-color:#F7AF3E"
   id="stop6577" />

		<stop
   offset="0.691"
   style="stop-color:#EF7916"
   id="stop6579" />

		<stop
   offset="1"
   style="stop-color:#A65416"
   id="stop6581" />

	</radialGradient>
    <linearGradient
       id="SVGID_76_"
       gradientUnits="userSpaceOnUse"
       x1="3042.6665"
       y1="7220.2495"
       x2="3044.2231"
       y2="7219.0361"
       gradientTransform="matrix(-0.9885,0.1513,-0.1513,-0.9885,4115.8447,6772.2202)">
		<stop
   offset="0.0056"
   style="stop-color:#F7AF3E"
   id="stop6560" />

		<stop
   offset="1"
   style="stop-color:#994410"
   id="stop6562" />

	</linearGradient>
    <radialGradient
       id="SVGID_79_"
       cx="5361.9214"
       cy="5016.7896"
       r="3.3079"
       gradientTransform="matrix(-0.7647,-0.6444,0.6444,-0.7647,906.7861,7393.4863)"
       gradientUnits="userSpaceOnUse">
		<stop
   offset="0"
   style="stop-color:#FFFFFF"
   id="stop6599" />

		<stop
   offset="0.0644"
   style="stop-color:#FDEED5"
   id="stop6601" />

		<stop
   offset="0.1716"
   style="stop-color:#FBD395"
   id="stop6603" />

		<stop
   offset="0.2621"
   style="stop-color:#F9BF66"
   id="stop6605" />

		<stop
   offset="0.3312"
   style="stop-color:#F7B349"
   id="stop6607" />

		<stop
   offset="0.3708"
   style="stop-color:#F7AF3E"
   id="stop6609" />

		<stop
   offset="0.691"
   style="stop-color:#EF7916"
   id="stop6611" />

		<stop
   offset="1"
   style="stop-color:#A65416"
   id="stop6613" />

	</radialGradient>
    <linearGradient
       id="SVGID_78_"
       gradientUnits="userSpaceOnUse"
       x1="5360.7056"
       y1="5019.7583"
       x2="5362.2622"
       y2="5018.5449"
       gradientTransform="matrix(-0.7647,-0.6444,0.6444,-0.7647,906.7861,7393.4863)">
		<stop
   offset="0.0056"
   style="stop-color:#F7AF3E"
   id="stop6592" />

		<stop
   offset="1"
   style="stop-color:#994410"
   id="stop6594" />

	</linearGradient>
    <radialGradient
       id="SVGID_80_"
       cx="4238.5542"
       cy="496.3306"
       r="5.5073"
       gradientTransform="matrix(0.4093,-0.9124,0.9124,0.4093,-2150.2136,3757.3237)"
       gradientUnits="userSpaceOnUse">
		<stop
   offset="0"
   style="stop-color:#FFFFFF"
   id="stop6626" />

		<stop
   offset="0.0644"
   style="stop-color:#FDEED5"
   id="stop6628" />

		<stop
   offset="0.1716"
   style="stop-color:#FBD395"
   id="stop6630" />

		<stop
   offset="0.2621"
   style="stop-color:#F9BF66"
   id="stop6632" />

		<stop
   offset="0.3312"
   style="stop-color:#F7B349"
   id="stop6634" />

		<stop
   offset="0.3708"
   style="stop-color:#F7AF3E"
   id="stop6636" />

		<stop
   offset="0.691"
   style="stop-color:#EF7916"
   id="stop6638" />

		<stop
   offset="1"
   style="stop-color:#A65416"
   id="stop6640" />

	</radialGradient>
    <radialGradient
       id="SVGID_81_"
       cx="-2083.6636"
       cy="3695.6938"
       r="5.5073"
       gradientTransform="matrix(0.4241,0.9056,-0.9056,0.4241,4260.0176,439.2379)"
       gradientUnits="userSpaceOnUse">
		<stop
   offset="0"
   style="stop-color:#FFFFFF"
   id="stop6653" />

		<stop
   offset="0.0644"
   style="stop-color:#FDEED5"
   id="stop6655" />

		<stop
   offset="0.1716"
   style="stop-color:#FBD395"
   id="stop6657" />

		<stop
   offset="0.2621"
   style="stop-color:#F9BF66"
   id="stop6659" />

		<stop
   offset="0.3312"
   style="stop-color:#F7B349"
   id="stop6661" />

		<stop
   offset="0.3708"
   style="stop-color:#F7AF3E"
   id="stop6663" />

		<stop
   offset="0.691"
   style="stop-color:#EF7916"
   id="stop6665" />

		<stop
   offset="1"
   style="stop-color:#A65416"
   id="stop6667" />

	</radialGradient>
    <radialGradient
       id="SVGID_82_"
       cx="4074.8882"
       cy="6708.0845"
       r="4.2837"
       gradientTransform="matrix(-0.9878,-0.1559,0.1559,-0.9878,3003.8555,7356.6367)"
       gradientUnits="userSpaceOnUse">
		<stop
   offset="0"
   style="stop-color:#FFFFFF"
   id="stop6680" />

		<stop
   offset="0.0644"
   style="stop-color:#FDEED5"
   id="stop6682" />

		<stop
   offset="0.1716"
   style="stop-color:#FBD395"
   id="stop6684" />

		<stop
   offset="0.2621"
   style="stop-color:#F9BF66"
   id="stop6686" />

		<stop
   offset="0.3312"
   style="stop-color:#F7B349"
   id="stop6688" />

		<stop
   offset="0.3708"
   style="stop-color:#F7AF3E"
   id="stop6690" />

		<stop
   offset="0.691"
   style="stop-color:#EF7916"
   id="stop6692" />

		<stop
   offset="1"
   style="stop-color:#A65416"
   id="stop6694" />

	</radialGradient>
  </defs>
  <sodipodi:namedview
     id="base"
     pagecolor="#ffffff"
     bordercolor="#666666"
     borderopacity="1.0"
     inkscape:pageopacity="0.0"
     inkscape:pageshadow="2"
     inkscape:zoom="7"
     inkscape:cx="24"
     inkscape:cy="24"
     inkscape:current-layer="layer1"
     showgrid="true"
     inkscape:grid-bbox="true"
     inkscape:document-units="px"
     inkscape:window-width="744"
     inkscape:window-height="573"
     inkscape:window-x="502"
     inkscape:window-y="118" />
  <metadata
     id="metadata10536">
    <rdf:RDF>
      <cc:Work
         rdf:about="">
        <dc:format>image/svg+xml</dc:format>
        <dc:type
           rdf:resource="http://purl.org/dc/dcmitype/StillImage" />
      </cc:Work>
    </rdf:RDF>
  </metadata>
  <g
     id="layer1"
     inkscape:label="Layer 1"
     inkscape:groupmode="layer">
    <path
       d="M 42.511,29.719 C 42.511,29.719 45.304,31.17 45.751,31.17 C 46.199,31.17 50,31.955 50,31.955 C 50,31.955 45.64,33.853 45.193,33.967 C 44.746,34.077 44.969,35.645 44.969,35.645 L 41.279,36.651 C 41.279,36.651 41.504,38.215 44.969,40.674 L 41.168,39.893 L 41.615,40.674 L 38.931,39.11 L 40.049,40.563 L 37.818,39.252 L 40.918,41.835 C 40.918,41.835 37.947,40.543 36.979,40.223 C 36.011,39.9 38.27,41.577 38.27,41.577 L 36.397,40.804 L 37.108,41.771 C 37.108,41.771 36.463,41.512 35.689,40.995 C 35.689,40.995 36.418,44.269 37.238,46.354 L 35.754,47.711 C 34.979,47.065 33.688,45.708 33.042,45.516 C 32.396,45.322 30.781,45.516 30.781,45.516 L 31.298,47.775 L 27.424,42.481 L 28.071,44.547 L 26.003,42.352 L 25.775,43.344 L 25.004,42.959 L 24.908,44.597 L 24.331,44.118 L 23.751,45.466 L 21.631,45.562 L 21.631,44.408 L 20.957,45.37 L 20.186,44.119 L 19.609,45.178 L 18.547,44.502 L 18.354,42.961 L 17.584,43.252 L 17.584,41.324 L 17.584,39.879 L 16.62,40.262 L 16.812,37.18 L 15.754,37.371 L 14.113,36.119 L 10.451,36.889 L 9.488,36.504 L 4.863,38.336 L 7.464,35.732 L 5.537,35.637 L 6.404,34.866 L -0.629,34.288 L 1.489,32.36 L -0.051,31.59 L 0.624,30.722 L -0.437,30.047 L 1.586,29.469 L 0.141,28.311 L 2.358,27.733 L 1.78,26.963 L 2.936,26.674 L 0.623,25.998 L 2.936,25.42 L 3.996,24.071 L 5.151,23.781 L 3.13,22.24 L 3.507,21.689 L 2.191,20.55 L 2.788,20.37 L 1.234,18.813 L 2.91,18.754 L 2.729,18.096 L 3.807,18.334 L 3.687,17.496 L 6.513,17.866 C 6.624,17.306 6.065,15.742 6.065,15.742 L 7.184,16.302 L 6.176,13.395 L 6.959,13.954 L 6.624,12.391 L 7.966,12.725 L 7.295,11.608 L 7.295,10.491 L 6.959,8.702 L 7.518,8.702 L 7.518,7.584 L 9.196,8.366 L 8.749,5.684 L 10.649,6.578 L 10.649,5.237 L 11.656,6.019 L 12.55,5.237 L 13.668,6.913 L 14.451,8.366 L 15.68,10.266 L 15.57,6.801 L 16.799,7.583 L 16.911,6.242 L 17.47,6.354 L 17.47,3.892 L 18.029,4.453 L 18.588,3 L 19.035,4.118 L 19.706,3.446 L 20.487,7.919 L 21.383,7.248 L 23.283,12.277 L 23.73,11.497 L 24.065,12.838 L 25.296,11.385 L 25.406,12.838 L 27.196,11.274 L 26.781,12.78 L 31.237,8.583 L 30.332,12.329 L 31.492,11.683 C 31.492,11.683 30.461,12.715 31.105,12.844 C 31.751,12.974 32.137,13.039 32.137,13.039 L 31.815,13.812 L 34.593,12.586 C 34.593,12.586 34.851,12.843 34.785,13.296 C 34.719,13.749 34.656,14.976 34.656,14.976 L 36.205,14.265 L 38.466,12.973 L 37.626,14.716 L 37.949,15.039 L 36.592,16.394 L 38.401,15.877 C 38.401,15.877 39.242,16.136 37.884,18.009 C 36.528,19.88 35.367,21.301 35.367,21.301 L 36.377,21.178 L 35.316,23.298 L 37.243,23.203 L 38.111,24.744 L 39.46,24.166 L 38.593,25.418 L 39.941,25.611 L 38.883,26.382 L 41.966,27.345 L 43.026,28.79 L 41.774,28.694 L 42.511,29.719 z "
       id="path6370"
       style="fill:url(#SVGID_62_)" />
    <path
       d="M 4.071,19.94 L 6.2,20.208 L 5.625,19.631 L 8.599,19.631 L 12.064,21.096 L 9.4,19.142 L 10.376,19.142 L 8.067,16.833 L 7.356,15.147 L 7.448,14.08 L 9.045,15.147 L 8.511,13.635 L 11.354,14.701 L 11.354,13.457 L 13.483,14.701 L 13.483,13.812 L 14.905,15.588 L 16.593,17.007 L 17.926,18.873 L 18.014,14.877 L 17.659,10.703 L 18.901,11.593 L 18.901,9.018 L 19.789,11.147 L 20.412,11.502 L 21.566,14.787 L 22.189,13.899 L 22.454,14.345 L 22.987,12.744 C 22.987,12.744 23.43,14.432 23.43,14.699 C 23.43,14.965 23.962,13.988 23.962,13.988 L 24.23,15.232 L 24.941,14.786 L 24.85,18.251 L 26.627,15.499 L 27.781,14.167 L 27.426,13.898 L 28.225,13.099 L 28.403,13.988 L 29.025,13.988 L 28.492,16.03 L 30.358,14.876 L 31.6,14.699 L 31.332,15.499 L 32.487,14.699 L 32.754,15.408 L 32.576,16.474 L 33.909,15.853 L 34.884,15.853 L 35.152,16.562 L 34.884,17.541 L 35.95,17.453 L 34.972,19.583 L 35.773,19.583 L 35.063,21.093 L 34.972,21.891 L 33.641,23.844 L 35.24,23.576 L 36.393,23.844 L 37.104,23.844 L 37.547,24.999 L 37.371,25.712 L 38.436,25.889 L 37.015,26.511 L 41.011,27.842 L 39.944,27.842 L 41.899,29.442 L 40.656,29.442 L 44.297,31.928 L 42.876,32.283 L 43.675,33.435 L 42.166,33.703 L 44.119,34.592 L 43.32,35.569 L 41.011,35.124 L 41.011,35.835 L 40.479,36.013 L 40.743,37.167 C 40.743,37.167 38.346,36.368 37.28,36.813 L 36.392,36.368 L 38.169,38.499 L 36.927,38.944 L 36.483,39.655 L 34.706,39.565 L 33.82,38.499 L 32.841,38.677 L 30.622,37.167 L 29.557,37.167 L 28.402,36.991 L 28.67,38.677 L 26.627,37.522 L 27.781,41.341 L 26.094,39.919 L 25.203,40.985 L 25.026,42.051 L 24.228,40.898 L 24.14,43.381 L 23.428,43.473 L 22.985,44.891 L 22.364,44.803 L 21.476,43.739 L 19.61,43.649 L 18.724,41.252 L 18.1,42.052 L 18.189,39.299 L 17.569,39.032 L 17.301,36.368 L 15.969,36.278 L 14.549,35.302 L 14.816,34.769 L 15.879,33.882 L 13.127,34.148 L 15.703,32.994 L 8.243,34.682 L 9.576,33.351 L 3.892,33.615 L 8.776,32.374 L 6.291,31.041 L 2.916,30.598 L 3.271,29.266 L 1.938,28.555 L 4.159,27.491 L 3.182,26.958 L 5.401,26.425 L 4.159,25.715 L 7.18,24.649 L 5.491,23.494 L 3.983,21.896 L 3.804,20.832 L 4.071,19.94 z "
       id="path6389"
       style="fill:url(#SVGID_63_)" />
    <path
       d="M 7.236,35.556 C 7.236,40.602 11.328,44.692 16.375,44.692 C 21.422,44.692 25.514,40.602 25.514,35.556 C 25.514,30.508 21.422,26.411 16.375,26.411 C 11.328,26.411 7.236,30.508 7.236,35.556 z "
       id="path6391"
       style="fill:none;stroke:#99440f;stroke-width:2" />
    <path
       d="M 7.236,35.556 C 7.236,40.602 11.328,44.692 16.375,44.692 C 21.422,44.692 25.514,40.602 25.514,35.556 C 25.514,30.508 21.422,26.411 16.375,26.411 C 11.328,26.411 7.236,30.508 7.236,35.556 z "
       id="path6410"
       style="fill:url(#SVGID_64_)" />
    <g
       transform="translate(-0.629,-81.982)"
       id="g6412">
	<radialGradient
   id="radialGradient10681"
   cx="9.2837"
   cy="110.0039"
   r="22.747999"
   gradientUnits="userSpaceOnUse">
		<stop
   offset="0"
   style="stop-color:#FFFFFF"
   id="stop10683" />

		<stop
   offset="0.0644"
   style="stop-color:#FEEED5"
   id="stop10685" />

		<stop
   offset="0.1716"
   style="stop-color:#FCD395"
   id="stop10687" />

		<stop
   offset="0.2621"
   style="stop-color:#FBBF66"
   id="stop10689" />

		<stop
   offset="0.3312"
   style="stop-color:#FAB349"
   id="stop10691" />

		<stop
   offset="0.3708"
   style="stop-color:#FAAF3E"
   id="stop10693" />

		<stop
   offset="0.691"
   style="stop-color:#F17912"
   id="stop10695" />

		<stop
   offset="1"
   style="stop-color:#B15A12"
   id="stop10697" />

	</radialGradient>

	<path
   d="M 7.865,117.538 C 7.865,122.575 11.963,126.674 17.004,126.674 C 22.043,126.674 26.143,122.575 26.143,117.538 C 26.143,112.499 22.043,108.393 17.004,108.393 C 11.963,108.394 7.865,112.499 7.865,117.538 z M 9.028,117.538 C 9.028,113.142 12.605,109.562 17.004,109.562 C 21.403,109.562 24.98,113.141 24.98,117.538 C 24.98,121.933 21.404,125.51 17.004,125.51 C 12.605,125.51 9.028,121.933 9.028,117.538 z "
   id="path6431"
   style="fill:url(#SVGID_65_)" />

</g>
    <path
       d="M 24.849,20.207 L 26.804,16.832 L 28.491,16.654 L 29.024,16.032 L 31.244,16.032 L 31.599,16.832 L 32.665,17.099 L 34.085,16.565 L 33.73,17.719 L 34.262,17.543 L 33.551,20.027 L 34.529,19.052 L 34.44,20.917 L 32.576,24.823 L 32.576,25.354 L 33.641,25 L 34.618,24.38 L 36.484,24.29 L 36.838,25.269 L 35.507,26.776 L 34.706,27.221 L 38.702,28.286 L 40.479,29.884 L 39.056,29.796 L 40.479,32.459 L 39.944,35.657 C 39.944,35.657 38.082,35.477 35.949,35.833 L 33.109,35.479 L 36.303,37.431 L 34.439,37.699 L 32.752,37.964 L 30.621,36.544 L 28.756,36.366 L 27.602,35.122 L 27.868,36.276 L 26.713,36.631 L 25.56,35.832 L 24.849,35.832 L 24.849,37.698 L 25.828,39.029 L 24.849,40.36 L 23.518,40.181 L 23.697,41.87 L 22.986,43.558 C 22.986,43.558 22.275,43.558 22.008,43.558 C 21.743,43.558 21.74,41.069 21.74,41.069 L 21.297,42.581 L 20.143,43.202 L 19.7,41.16 L 19.345,41.248 L 19.257,39.205 L 18.191,38.852 L 18.191,35.477 L 17.748,35.565 L 17.216,33.967 L 18.103,32.989 L 17.038,32.456 L 13.309,32.545 L 10.912,31.48 L 8.069,31.126 L 11.178,30.415 L 4.341,28.907 L 11.531,27.751 C 11.531,27.751 6.825,27.04 7.537,26.952 C 8.246,26.862 10.999,26.329 10.999,26.329 L 9.311,25.266 L 11.532,24.464 L 8.692,21.889 L 12.155,22.069 L 13.131,21.445 L 16.328,20.736 L 13.665,16.917 L 18.103,20.204 L 18.992,19.493 L 20.413,21.356 L 19.525,15.143 L 21.035,15.674 L 20.768,14.697 L 22.455,15.406 L 23.432,18.781 L 23.877,17.715 L 24.849,20.207 z "
       id="path6442"
       style="fill:url(#SVGID_66_)" />
    <path
       d="M 24.024,23.221 L 25.319,20.987 L 26.435,20.87 L 26.789,20.458 L 28.258,20.458 L 28.494,20.987 L 29.2,21.161 L 30.14,20.811 L 29.904,21.577 L 30.258,21.458 L 29.787,23.104 L 30.434,22.458 L 30.373,23.69 L 29.141,26.278 L 29.141,26.632 L 29.846,26.398 L 30.493,25.986 L 31.726,25.927 L 31.962,26.574 L 31.079,27.573 L 30.551,27.866 L 33.197,28.573 L 34.374,29.63 L 33.434,29.572 L 34.374,31.337 L 34.02,33.452 C 34.02,33.452 32.786,33.335 31.374,33.571 L 29.492,33.336 L 31.609,34.629 L 30.373,34.804 L 29.257,34.983 L 27.848,34.04 L 26.61,33.924 L 25.847,33.102 L 26.023,33.866 L 25.259,34.102 L 24.495,33.573 L 24.023,33.573 L 24.023,34.805 L 24.669,35.689 L 24.023,36.573 L 23.141,36.454 L 23.26,37.571 L 22.79,38.688 C 22.79,38.688 22.317,38.688 22.142,38.688 C 21.967,38.688 21.966,37.043 21.966,37.043 L 21.672,38.041 L 20.905,38.451 L 20.612,37.099 L 20.378,37.158 L 20.318,35.806 L 19.612,35.572 L 19.612,33.337 L 19.317,33.395 L 18.963,32.337 L 19.554,31.69 L 18.847,31.338 L 16.377,31.397 L 14.79,30.692 L 12.907,30.456 L 14.966,29.985 L 10.438,28.987 L 15.202,28.221 C 15.202,28.221 12.085,27.75 12.557,27.694 C 13.027,27.633 14.849,27.281 14.849,27.281 L 13.731,26.576 L 15.202,26.046 L 13.32,24.341 L 15.615,24.458 L 16.261,24.047 L 18.378,23.576 L 16.614,21.047 L 19.554,23.224 L 20.142,22.752 L 21.082,23.988 L 20.494,19.872 L 21.492,20.225 L 21.316,19.579 L 22.434,20.05 L 23.08,22.283 L 23.375,21.58 L 24.024,23.221 z "
       id="path6453"
       style="fill:url(#SVGID_67_)" />
    <polygon
       transform="translate(-0.629,-81.982)"
       points="31.428,108.759 31.872,109.736 34.18,109.025 34.891,107.961 33.027,108.049 31.428,108.759 "
       id="polygon6464"
       style="fill:url(#SVGID_68_)" />
    <polygon
       transform="translate(-0.629,-81.982)"
       points="28.054,104.055 29.119,103.431 29.475,104.41 28.497,105.117 27.966,104.674 28.054,104.055 "
       id="polygon6475"
       style="fill:url(#SVGID_69_)" />
    <polyline
       transform="translate(-0.629,-81.982)"
       points="26.012,111.601 26.723,113.199 26.986,112.045 28.054,112.668 27.61,111.601   28.853,111.513 28.231,110.98 30.719,110.623 28.32,109.824 30.362,109.025 28.409,108.848 30.273,107.782 28.143,107.961   30.096,106.45 27.966,106.807 29.475,105.385 27.698,105.92 27.433,105.03 26.544,105.117 26.811,103.431 25.744,103.521   23.97,103.965 23.525,105.385 22.816,105.742 22.461,105.117 20.86,104.41 22.193,106.895 22.105,108.314 21.218,108.67   19.885,107.961 18.463,110.357 19.973,111.867 18.997,111.867 18.997,113.643 20.951,113.998 21.395,112.489 21.57,111.689   22.637,111.513 24.058,112.934 24.503,111.513 25.568,112.845 25.924,111.424 "
       id="polyline6486"
       style="fill:url(#SVGID_70_)" />
    <polygon
       transform="translate(-0.629,-81.982)"
       points="24.236,113.734 25.655,114.266 26.367,114.976 25.832,115.686 26.632,117.284 25.125,116.22 24.77,117.284 23.879,116.396 23.171,115.953 24.236,113.734 "
       id="polygon6497"
       style="fill:url(#SVGID_71_)" />
    <polygon
       transform="translate(-0.629,-81.982)"
       points="22.193,113.021 23.259,113.821 21.75,115.953 22.193,113.021 "
       id="polygon6508"
       style="fill:url(#SVGID_72_)" />
    <polygon
       transform="translate(-0.629,-81.982)"
       points="20.328,106.54 14.468,104.941 19.174,107.516 20.328,106.54 "
       id="polygon6519"
       style="fill:url(#SVGID_73_)" />
    <g
       transform="translate(-0.629,-81.982)"
       id="g6521">
	<path
   d="M 38.553,124.663 C 38.428,124.824 38.446,125.485 38.375,125.556 C 38.678,125.771 39,126.468 39.125,126.665 C 39.25,126.86 39.804,127.755 39.804,127.755 C 39.804,127.755 41.215,127.79 41.358,127.825 C 41.503,127.861 42.253,128.057 42.253,128.057 C 42.253,128.057 42.271,127.057 42.378,126.825 C 42.485,126.593 42.949,125.789 43.002,125.468 C 43.056,125.146 43.216,124.449 43.253,124.396 C 43.288,124.343 43.431,124.092 43.431,124.092 L 41.716,122.503 L 40.698,122.913 L 39.929,123.503 L 39.804,123.484 L 38.553,124.663 z "
   id="path6523"
   style="fill:none;stroke:#994410;stroke-width:1.5" />

	<polygon
   points="38.553,124.663 39.804,123.484 39.929,123.503 40.697,122.913 41.715,122.503 43.43,124.092 42.734,124.878 38.553,124.663 "
   id="polygon6525"
   style="fill:#ffffff" />

	<linearGradient
   id="linearGradient10711"
   gradientUnits="userSpaceOnUse"
   x1="37.806599"
   y1="128.38091"
   x2="40.397099"
   y2="126.362">
		<stop
   offset="0.0056"
   style="stop-color:#F7AF3E"
   id="stop10713" />

		<stop
   offset="1"
   style="stop-color:#994410"
   id="stop10715" />

	</linearGradient>

	<path
   d="M 39.375,124.503 C 39.375,124.503 38.678,124.503 38.553,124.663 C 38.428,124.824 38.446,125.485 38.375,125.556 C 38.678,125.771 39,126.468 39.125,126.665 C 39.25,126.86 39.804,127.755 39.804,127.755 C 39.804,127.755 41.215,127.79 41.358,127.825 C 41.503,127.861 42.253,128.057 42.253,128.057 C 42.253,128.057 42.271,127.057 42.378,126.825 C 42.485,126.593 42.949,125.789 43.002,125.468 C 43.056,125.146 43.216,124.449 43.253,124.396 C 43.288,124.343 43.431,124.092 43.431,124.092 L 42.931,124.486 L 39.375,124.503 z "
   id="path6532"
   style="fill:url(#SVGID_74_)" />

	<radialGradient
   id="radialGradient10718"
   cx="39.826698"
   cy="123.4385"
   r="5.5072999"
   gradientUnits="userSpaceOnUse">
		<stop
   offset="0"
   style="stop-color:#FFFFFF"
   id="stop10720" />

		<stop
   offset="0.0644"
   style="stop-color:#FDEED5"
   id="stop10722" />

		<stop
   offset="0.1716"
   style="stop-color:#FBD395"
   id="stop10724" />

		<stop
   offset="0.2621"
   style="stop-color:#F9BF66"
   id="stop10726" />

		<stop
   offset="0.3312"
   style="stop-color:#F7B349"
   id="stop10728" />

		<stop
   offset="0.3708"
   style="stop-color:#F7AF3E"
   id="stop10730" />

		<stop
   offset="0.691"
   style="stop-color:#EF7916"
   id="stop10732" />

		<stop
   offset="1"
   style="stop-color:#A65416"
   id="stop10734" />

	</radialGradient>

	<path
   d="M 39.375,124.503 C 39.375,124.503 40.822,123.573 41.322,123.021 C 41.322,123.021 42.09,123.716 42.179,123.716 C 42.268,123.716 42.679,123.413 42.679,123.413 C 42.786,123.663 42.929,124.343 42.894,124.431 C 42.858,124.521 42.823,124.897 42.823,125.093 C 42.823,125.288 42.518,126.272 42.394,126.415 C 42.269,126.558 41.787,127.093 41.787,127.2 C 41.643,126.932 41.412,126.057 41.412,126.057 L 40.965,125.913 C 40.965,125.913 40.16,125.932 40.089,125.752 C 40.018,125.574 39.84,125.02 39.768,124.93 C 39.696,124.843 39.375,124.503 39.375,124.503 z "
   id="path6551"
   style="fill:url(#SVGID_75_)" />

</g>
    <g
       transform="translate(-0.629,-81.982)"
       id="g6553">
	<path
   d="M 15.64,97.636 C 15.701,97.53 15.629,97.138 15.664,97.09 C 15.466,96.989 15.21,96.606 15.117,96.498 C 15.025,96.394 14.615,95.913 14.615,95.913 C 14.615,95.913 13.774,96.021 13.685,96.013 C 13.597,96.004 13.133,95.956 13.133,95.956 C 13.133,95.956 13.213,96.552 13.171,96.699 C 13.128,96.846 12.925,97.367 12.923,97.562 C 12.921,97.757 12.89,98.186 12.872,98.221 C 12.855,98.255 12.794,98.418 12.794,98.418 L 13.957,99.206 L 14.524,98.869 L 14.926,98.449 L 15.002,98.449 L 15.64,97.636 z "
   id="path6555"
   style="fill:none;stroke:#994410;stroke-width:1.5" />

	<polygon
   points="15.64,97.636 15.004,98.45 14.928,98.45 14.525,98.87 13.958,99.207 12.795,98.419 13.136,97.889 15.64,97.636 "
   id="polygon6557"
   style="fill:#ffffff" />

	
		<linearGradient
   id="linearGradient10740"
   gradientUnits="userSpaceOnUse"
   x1="3042.6665"
   y1="7220.2495"
   x2="3044.2231"
   y2="7219.0361"
   gradientTransform="matrix(-0.9885,0.1513,-0.1513,-0.9885,4115.8447,6772.2202)">
		<stop
   offset="0.0056"
   style="stop-color:#F7AF3E"
   id="stop10742" />

		<stop
   offset="1"
   style="stop-color:#994410"
   id="stop10744" />

	</linearGradient>

	<path
   d="M 15.166,97.806 C 15.166,97.806 15.58,97.743 15.64,97.636 C 15.701,97.53 15.629,97.138 15.664,97.09 C 15.466,96.989 15.21,96.606 15.117,96.498 C 15.025,96.394 14.615,95.913 14.615,95.913 C 14.615,95.913 13.774,96.021 13.685,96.013 C 13.597,96.004 13.133,95.956 13.133,95.956 C 13.133,95.956 13.213,96.552 13.171,96.699 C 13.128,96.846 12.925,97.367 12.923,97.562 C 12.921,97.757 12.89,98.186 12.872,98.221 C 12.855,98.255 12.794,98.418 12.794,98.418 L 13.056,98.139 L 15.166,97.806 z "
   id="path6564"
   style="fill:url(#SVGID_76_)" />

	
		<radialGradient
   id="radialGradient10747"
   cx="3043.8804"
   cy="7217.2798"
   r="3.3088"
   gradientTransform="matrix(-0.9885,0.1513,-0.1513,-0.9885,4115.8447,6772.2202)"
   gradientUnits="userSpaceOnUse">
		<stop
   offset="0"
   style="stop-color:#FFFFFF"
   id="stop10749" />

		<stop
   offset="0.0644"
   style="stop-color:#FDEED5"
   id="stop10751" />

		<stop
   offset="0.1716"
   style="stop-color:#FBD395"
   id="stop10753" />

		<stop
   offset="0.2621"
   style="stop-color:#F9BF66"
   id="stop10755" />

		<stop
   offset="0.3312"
   style="stop-color:#F7B349"
   id="stop10757" />

		<stop
   offset="0.3708"
   style="stop-color:#F7AF3E"
   id="stop10759" />

		<stop
   offset="0.691"
   style="stop-color:#EF7916"
   id="stop10761" />

		<stop
   offset="1"
   style="stop-color:#A65416"
   id="stop10763" />

	</radialGradient>

	<path
   d="M 15.166,97.806 C 15.166,97.806 14.391,98.491 14.145,98.864 C 14.145,98.864 13.625,98.52 13.572,98.528 C 13.519,98.538 13.302,98.754 13.302,98.754 C 13.216,98.616 13.07,98.226 13.082,98.17 C 13.096,98.113 13.082,97.886 13.064,97.77 C 13.046,97.654 13.137,97.042 13.199,96.946 C 13.26,96.85 13.497,96.488 13.487,96.425 C 13.597,96.571 13.814,97.068 13.814,97.068 L 14.092,97.113 C 14.092,97.113 14.568,97.03 14.627,97.131 C 14.686,97.23 14.842,97.543 14.893,97.59 C 14.943,97.633 15.166,97.806 15.166,97.806 z "
   id="path6583"
   style="fill:url(#SVGID_77_)" />

</g>
    <g
       transform="translate(-0.629,-81.982)"
       id="g6585">
	<path
   d="M 40.404,101.857 C 40.523,101.833 40.771,101.521 40.831,101.516 C 40.776,101.3 40.896,100.855 40.916,100.714 C 40.934,100.577 41.026,99.951 41.026,99.951 C 41.026,99.951 40.39,99.389 40.338,99.317 C 40.287,99.245 40.018,98.864 40.018,98.864 C 40.018,98.864 39.622,99.317 39.484,99.383 C 39.344,99.447 38.819,99.638 38.671,99.765 C 38.523,99.892 38.18,100.151 38.142,100.161 C 38.105,100.172 37.942,100.232 37.942,100.232 L 38.115,101.627 L 38.742,101.832 L 39.323,101.858 L 39.373,101.916 L 40.404,101.857 z "
   id="path6587"
   style="fill:none;stroke:#994410;stroke-width:1.5" />

	<polygon
   points="40.404,101.857 39.372,101.916 39.322,101.858 38.741,101.832 38.114,101.627 37.941,100.232 38.564,100.14 40.404,101.857 "
   id="polygon6589"
   style="fill:#ffffff" />

	
		<linearGradient
   id="linearGradient10769"
   gradientUnits="userSpaceOnUse"
   x1="5360.7056"
   y1="5019.7583"
   x2="5362.2622"
   y2="5018.5449"
   gradientTransform="matrix(-0.7647,-0.6444,0.6444,-0.7647,906.7861,7393.4863)">
		<stop
   offset="0.0056"
   style="stop-color:#F7AF3E"
   id="stop10771" />

		<stop
   offset="1"
   style="stop-color:#994410"
   id="stop10773" />

	</linearGradient>

	<path
   d="M 39.964,101.613 C 39.964,101.613 40.285,101.883 40.404,101.857 C 40.523,101.833 40.771,101.521 40.831,101.516 C 40.776,101.3 40.896,100.855 40.916,100.714 C 40.934,100.577 41.026,99.951 41.026,99.951 C 41.026,99.951 40.39,99.389 40.338,99.317 C 40.287,99.245 40.018,98.864 40.018,98.864 C 40.018,98.864 39.622,99.317 39.484,99.383 C 39.344,99.447 38.819,99.638 38.671,99.765 C 38.523,99.892 38.18,100.151 38.142,100.161 C 38.105,100.172 37.942,100.232 37.942,100.232 L 38.325,100.245 L 39.964,101.613 z "
   id="path6596"
   style="fill:url(#SVGID_78_)" />

	
		<radialGradient
   id="radialGradient10776"
   cx="5361.9214"
   cy="5016.7896"
   r="3.3079"
   gradientTransform="matrix(-0.7647,-0.6444,0.6444,-0.7647,906.7861,7393.4863)"
   gradientUnits="userSpaceOnUse">
		<stop
   offset="0"
   style="stop-color:#FFFFFF"
   id="stop10778" />

		<stop
   offset="0.0644"
   style="stop-color:#FDEED5"
   id="stop10780" />

		<stop
   offset="0.1716"
   style="stop-color:#FBD395"
   id="stop10782" />

		<stop
   offset="0.2621"
   style="stop-color:#F9BF66"
   id="stop10784" />

		<stop
   offset="0.3312"
   style="stop-color:#F7B349"
   id="stop10786" />

		<stop
   offset="0.3708"
   style="stop-color:#F7AF3E"
   id="stop10788" />

		<stop
   offset="0.691"
   style="stop-color:#EF7916"
   id="stop10790" />

		<stop
   offset="1"
   style="stop-color:#A65416"
   id="stop10792" />

	</radialGradient>

	<path
   d="M 39.964,101.613 C 39.964,101.613 38.939,101.48 38.496,101.541 C 38.496,101.541 38.412,100.924 38.371,100.888 C 38.329,100.855 38.023,100.834 38.023,100.834 C 38.071,100.679 38.268,100.311 38.318,100.284 C 38.37,100.257 38.532,100.096 38.608,100.007 C 38.684,99.918 39.204,99.583 39.317,99.566 C 39.429,99.549 39.858,99.489 39.898,99.44 C 39.862,99.62 39.63,100.11 39.63,100.11 L 39.779,100.348 C 39.779,100.348 40.155,100.652 40.118,100.763 C 40.083,100.871 39.949,101.196 39.948,101.265 C 39.947,101.332 39.964,101.613 39.964,101.613 z "
   id="path6615"
   style="fill:url(#SVGID_79_)" />

</g>
    <g
       transform="translate(-0.629,-81.982)"
       id="g6617">
	<path
   d="M 38.074,94.879 C 38.17,95.059 38.78,95.313 38.815,95.406 C 39.135,95.218 39.903,95.209 40.134,95.176 C 40.363,95.142 41.406,95.003 41.406,95.003 C 41.406,95.003 42.015,93.73 42.106,93.613 C 42.198,93.496 42.684,92.892 42.684,92.892 C 42.684,92.892 41.779,92.466 41.61,92.274 C 41.442,92.081 40.899,91.329 40.628,91.149 C 40.356,90.968 39.786,90.537 39.752,90.481 C 39.719,90.427 39.548,90.195 39.548,90.195 L 37.397,91.109 L 37.355,92.205 L 37.578,93.148 L 37.511,93.254 L 38.074,94.879 z "
   id="path6619"
   style="fill:none;stroke:#994410;stroke-width:1.5" />

	<polygon
   points="38.074,94.879 37.511,93.255 37.578,93.148 37.355,92.205 37.397,91.109 39.549,90.195 39.981,91.151 38.074,94.879 "
   id="polygon6621"
   style="fill:#ffffff" />

	<path
   d="M 38.265,94.063 C 38.265,94.063 37.979,94.7 38.075,94.879 C 38.171,95.058 38.781,95.313 38.816,95.406 C 39.136,95.218 39.904,95.209 40.135,95.176 C 40.364,95.142 41.407,95.003 41.407,95.003 C 41.407,95.003 42.016,93.73 42.107,93.613 C 42.199,93.496 42.685,92.892 42.685,92.892 C 42.685,92.892 41.78,92.466 41.611,92.274 C 41.443,92.081 40.9,91.329 40.629,91.149 C 40.357,90.968 39.787,90.537 39.753,90.481 C 39.72,90.427 39.549,90.195 39.549,90.195 L 39.703,90.812 L 38.265,94.063 z "
   id="path6623"
   style="fill:#ffffff" />

	
		<radialGradient
   id="radialGradient10799"
   cx="4238.5542"
   cy="496.3306"
   r="5.5072999"
   gradientTransform="matrix(0.4093,-0.9124,0.9124,0.4093,-2150.2136,3757.3237)"
   gradientUnits="userSpaceOnUse">
		<stop
   offset="0"
   style="stop-color:#FFFFFF"
   id="stop10801" />

		<stop
   offset="0.0644"
   style="stop-color:#FDEED5"
   id="stop10803" />

		<stop
   offset="0.1716"
   style="stop-color:#FBD395"
   id="stop10805" />

		<stop
   offset="0.2621"
   style="stop-color:#F9BF66"
   id="stop10807" />

		<stop
   offset="0.3312"
   style="stop-color:#F7B349"
   id="stop10809" />

		<stop
   offset="0.3708"
   style="stop-color:#F7AF3E"
   id="stop10811" />

		<stop
   offset="0.691"
   style="stop-color:#EF7916"
   id="stop10813" />

		<stop
   offset="1"
   style="stop-color:#A65416"
   id="stop10815" />

	</radialGradient>

	<path
   d="M 38.265,94.063 C 38.265,94.063 38.009,92.362 37.709,91.68 C 37.709,91.68 38.657,91.264 38.694,91.182 C 38.73,91.1 38.623,90.602 38.623,90.602 C 38.894,90.606 39.573,90.754 39.639,90.823 C 39.706,90.892 40.035,91.079 40.214,91.159 C 40.393,91.239 41.164,91.919 41.245,92.091 C 41.324,92.264 41.614,92.923 41.713,92.967 C 41.41,92.988 40.517,92.841 40.517,92.841 L 40.203,93.191 C 40.203,93.191 39.891,93.933 39.698,93.924 C 39.507,93.916 38.927,93.852 38.816,93.881 C 38.706,93.908 38.265,94.063 38.265,94.063 z "
   id="path6642"
   style="fill:url(#SVGID_80_)" />

</g>
    <g
       transform="translate(-0.629,-81.982)"
       id="g6644">
	<path
   d="M 27.866,118.98 C 27.668,118.935 27.077,119.232 26.983,119.198 C 26.917,119.564 26.422,120.151 26.296,120.347 C 26.172,120.544 25.596,121.424 25.596,121.424 C 25.596,121.424 26.163,122.717 26.193,122.862 C 26.221,123.008 26.361,123.771 26.361,123.771 C 26.361,123.771 27.275,123.363 27.531,123.36 C 27.787,123.359 28.711,123.439 29.024,123.35 C 29.339,123.261 30.038,123.112 30.102,123.122 C 30.165,123.132 30.452,123.154 30.452,123.154 L 31.164,120.927 L 30.361,120.18 L 29.501,119.733 L 29.465,119.613 L 27.866,118.98 z "
   id="path6646"
   style="fill:none;stroke:#994410;stroke-width:1.5" />

	<polygon
   points="27.866,118.98 29.465,119.614 29.501,119.734 30.361,120.182 31.164,120.929 30.452,123.155 29.445,122.859 27.866,118.98 "
   id="polygon6648"
   style="fill:#ffffff" />

	<path
   d="M 28.36,119.658 C 28.36,119.658 28.065,119.025 27.866,118.98 C 27.668,118.935 27.077,119.232 26.983,119.198 C 26.917,119.564 26.422,120.151 26.296,120.347 C 26.172,120.544 25.596,121.424 25.596,121.424 C 25.596,121.424 26.163,122.717 26.193,122.862 C 26.221,123.008 26.361,123.771 26.361,123.771 C 26.361,123.771 27.275,123.363 27.531,123.36 C 27.787,123.359 28.711,123.439 29.024,123.35 C 29.339,123.261 30.038,123.112 30.102,123.122 C 30.165,123.132 30.452,123.154 30.452,123.154 L 29.884,122.868 L 28.36,119.658 z "
   id="path6650"
   style="fill:#ffffff" />

	
		<radialGradient
   id="radialGradient10822"
   cx="-2083.6636"
   cy="3695.6938"
   r="5.5072999"
   gradientTransform="matrix(0.4241,0.9056,-0.9056,0.4241,4260.0176,439.2379)"
   gradientUnits="userSpaceOnUse">
		<stop
   offset="0"
   style="stop-color:#FFFFFF"
   id="stop10824" />

		<stop
   offset="0.0644"
   style="stop-color:#FDEED5"
   id="stop10826" />

		<stop
   offset="0.1716"
   style="stop-color:#FBD395"
   id="stop10828" />

		<stop
   offset="0.2621"
   style="stop-color:#F9BF66"
   id="stop10830" />

		<stop
   offset="0.3312"
   style="stop-color:#F7B349"
   id="stop10832" />

		<stop
   offset="0.3708"
   style="stop-color:#F7AF3E"
   id="stop10834" />

		<stop
   offset="0.691"
   style="stop-color:#EF7916"
   id="stop10836" />

		<stop
   offset="1"
   style="stop-color:#A65416"
   id="stop10838" />

	</radialGradient>

	<path
   d="M 28.36,119.658 C 28.36,119.658 29.816,120.574 30.528,120.792 C 30.528,120.792 30.224,121.782 30.262,121.863 C 30.301,121.945 30.748,122.188 30.748,122.188 C 30.567,122.391 30.013,122.808 29.918,122.814 C 29.821,122.819 29.465,122.947 29.288,123.03 C 29.11,123.113 28.092,123.254 27.909,123.203 C 27.726,123.15 27.038,122.94 26.94,122.986 C 27.121,122.743 27.816,122.162 27.816,122.162 L 27.756,121.695 C 27.756,121.695 27.397,120.975 27.529,120.834 C 27.66,120.694 28.087,120.298 28.137,120.194 C 28.189,120.094 28.36,119.658 28.36,119.658 z "
   id="path6669"
   style="fill:url(#SVGID_81_)" />

</g>
    <g
       transform="translate(-0.629,-81.982)"
       id="g6671">
	<path
   d="M 25.599,94.33 C 25.714,94.222 25.781,93.711 25.843,93.666 C 25.636,93.464 25.473,92.889 25.402,92.723 C 25.329,92.557 25.013,91.803 25.013,91.803 C 25.013,91.803 23.932,91.605 23.826,91.561 C 23.719,91.515 23.167,91.273 23.167,91.273 C 23.167,91.273 23.032,92.04 22.922,92.206 C 22.812,92.372 22.357,92.933 22.277,93.173 C 22.197,93.415 21.989,93.931 21.954,93.967 C 21.922,94.003 21.782,94.179 21.782,94.179 L 22.906,95.608 L 23.737,95.416 L 24.4,95.057 L 24.493,95.086 L 25.599,94.33 z "
   id="path6673"
   style="fill:none;stroke:#994410;stroke-width:1.5" />

	<polygon
   points="25.599,94.33 24.493,95.084 24.4,95.055 23.737,95.414 22.906,95.606 21.782,94.178 22.411,93.657 25.599,94.33 "
   id="polygon6675"
   style="fill:#ffffff" />

	<path
   d="M 24.946,94.353 C 24.946,94.353 25.482,94.439 25.598,94.331 C 25.713,94.223 25.78,93.712 25.842,93.667 C 25.635,93.465 25.472,92.89 25.401,92.724 C 25.328,92.558 25.012,91.804 25.012,91.804 C 25.012,91.804 23.931,91.606 23.825,91.562 C 23.718,91.516 23.166,91.274 23.166,91.274 C 23.166,91.274 23.031,92.041 22.921,92.207 C 22.811,92.373 22.356,92.934 22.276,93.174 C 22.196,93.416 21.988,93.932 21.953,93.968 C 21.921,94.004 21.781,94.18 21.781,94.18 L 22.213,93.938 L 24.946,94.353 z "
   id="path6677"
   style="fill:#ffffff" />

	
		<radialGradient
   id="radialGradient10845"
   cx="4074.8882"
   cy="6708.0845"
   r="4.2837"
   gradientTransform="matrix(-0.9878,-0.1559,0.1559,-0.9878,3003.8555,7356.6367)"
   gradientUnits="userSpaceOnUse">
		<stop
   offset="0"
   style="stop-color:#FFFFFF"
   id="stop10847" />

		<stop
   offset="0.0644"
   style="stop-color:#FDEED5"
   id="stop10849" />

		<stop
   offset="0.1716"
   style="stop-color:#FBD395"
   id="stop10851" />

		<stop
   offset="0.2621"
   style="stop-color:#F9BF66"
   id="stop10853" />

		<stop
   offset="0.3312"
   style="stop-color:#F7B349"
   id="stop10855" />

		<stop
   offset="0.3708"
   style="stop-color:#F7AF3E"
   id="stop10857" />

		<stop
   offset="0.691"
   style="stop-color:#EF7916"
   id="stop10859" />

		<stop
   offset="1"
   style="stop-color:#A65416"
   id="stop10861" />

	</radialGradient>

	<path
   d="M 24.946,94.353 C 24.946,94.353 23.722,94.893 23.271,95.256 C 23.271,95.256 22.764,94.629 22.697,94.618 C 22.626,94.607 22.275,94.79 22.275,94.79 C 22.223,94.585 22.196,94.046 22.233,93.982 C 22.272,93.918 22.344,93.631 22.369,93.481 C 22.392,93.332 22.746,92.613 22.858,92.518 C 22.972,92.423 23.407,92.071 23.42,91.988 C 23.498,92.211 23.569,92.912 23.569,92.912 L 23.896,93.076 C 23.896,93.076 24.516,93.159 24.549,93.305 C 24.582,93.451 24.653,93.899 24.696,93.977 C 24.74,94.053 24.946,94.353 24.946,94.353 z "
   id="path6696"
   style="fill:url(#SVGID_82_)" />

</g>
  </g>
</svg>
