<svg xmlns="http://www.w3.org/2000/svg" xmlns:xlink="http://www.w3.org/1999/xlink" viewBox="0 0 48 48"><defs><style>.cls-1{fill:url(#radial-gradient);}.cls-2{fill:url(#linear-gradient);}.cls-3{fill:#204a87;}.cls-4{fill:url(#linear-gradient-2);}.cls-5{fill:url(#linear-gradient-3);}.cls-16,.cls-27,.cls-34,.cls-6,.cls-9{fill:none;}.cls-6{stroke:#d0dfef;}.cls-29,.cls-34,.cls-6,.cls-9{stroke-miterlimit:10;}.cls-16,.cls-29,.cls-34,.cls-6,.cls-9{stroke-width:0.35px;}.cls-7{fill:url(#linear-gradient-4);}.cls-8{fill:url(#linear-gradient-5);}.cls-16,.cls-9{stroke:#3465a4;}.cls-10{fill:url(#linear-gradient-6);}.cls-11{fill:url(#linear-gradient-7);}.cls-12{fill:url(#linear-gradient-8);}.cls-13{fill:url(#linear-gradient-9);}.cls-14{fill:url(#linear-gradient-10);}.cls-15{fill:url(#linear-gradient-11);}.cls-16{stroke-linecap:round;stroke-linejoin:round;}.cls-17{fill:#2e3436;}.cls-18{fill:url(#linear-gradient-12);}.cls-19{fill:url(#linear-gradient-13);}.cls-20{fill:url(#linear-gradient-14);}.cls-21{fill:url(#linear-gradient-15);}.cls-22{fill:url(#linear-gradient-16);}.cls-23{fill:url(#linear-gradient-17);}.cls-24{fill:#729fcf;}.cls-25{fill:url(#linear-gradient-18);}.cls-26{fill:url(#linear-gradient-19);}.cls-28{fill:url(#linear-gradient-20);}.cls-29{fill:#8ae234;stroke:#4e9a06;}.cls-30{fill:url(#linear-gradient-21);}.cls-31{fill:url(#linear-gradient-22);}.cls-32{fill:url(#linear-gradient-23);}.cls-33{fill:url(#linear-gradient-24);}.cls-34{stroke:url(#linear-gradient-25);}</style><radialGradient id="radial-gradient" cx="54.99" cy="40.95" r="20.08" gradientTransform="translate(-41.42 30.8) scale(1.19 0.25)" gradientUnits="userSpaceOnUse"><stop offset="0.03" stop-color="#2c2c2c" stop-opacity="0.5"/><stop offset="0.68" stop-color="#2c2c2c" stop-opacity="0.1"/><stop offset="0.93" stop-color="#2c2c2c" stop-opacity="0"/></radialGradient><linearGradient id="linear-gradient" x1="24" y1="26.76" x2="24" y2="-0.6" gradientUnits="userSpaceOnUse"><stop offset="0" stop-color="#8ae234"/><stop offset="1" stop-color="#4e9a06"/></linearGradient><linearGradient id="linear-gradient-2" x1="24" y1="32.23" x2="24" y2="37.48" gradientUnits="userSpaceOnUse"><stop offset="0" stop-color="#00255d" stop-opacity="0"/><stop offset="1" stop-color="#00255d"/></linearGradient><linearGradient id="linear-gradient-3" x1="24" y1="26.72" x2="24" y2="33.75" gradientUnits="userSpaceOnUse"><stop offset="0" stop-color="#b2cbe5"/><stop offset="1" stop-color="#3465a4"/></linearGradient><linearGradient id="linear-gradient-4" x1="24" y1="34.35" x2="24" y2="26.95" xlink:href="#linear-gradient-3"/><linearGradient id="linear-gradient-5" x1="24.48" y1="32.6" x2="24.34" y2="22.54" xlink:href="#linear-gradient-2"/><linearGradient id="linear-gradient-6" x1="18.01" y1="21.64" x2="20.29" y2="21.64" xlink:href="#linear-gradient-3"/><linearGradient id="linear-gradient-7" x1="29.9" y1="21.64" x2="28.42" y2="21.64" xlink:href="#linear-gradient-3"/><linearGradient id="linear-gradient-8" x1="20.78" y1="21.11" x2="33.04" y2="21.11" xlink:href="#linear-gradient-3"/><linearGradient id="linear-gradient-9" x1="24" y1="8.71" x2="24" y2="14.75" xlink:href="#linear-gradient-3"/><linearGradient id="linear-gradient-10" x1="24" y1="13.81" x2="24" y2="19.36" xlink:href="#linear-gradient-2"/><linearGradient id="linear-gradient-11" x1="24" y1="12.27" x2="24" y2="17.52" xlink:href="#linear-gradient-2"/><linearGradient id="linear-gradient-12" x1="28.55" y1="11.69" x2="28.55" y2="36.65" gradientUnits="userSpaceOnUse"><stop offset="0" stop-color="#2e3436"/><stop offset="1" stop-color="#d3d7cf"/></linearGradient><linearGradient id="linear-gradient-13" x1="32.6" y1="0.12" x2="32.6" y2="48.53" xlink:href="#linear-gradient-12"/><linearGradient id="linear-gradient-14" x1="32.6" y1="38.34" x2="32.6" y2="10.99" xlink:href="#linear-gradient-12"/><linearGradient id="linear-gradient-15" x1="11.45" y1="20.38" x2="46.57" y2="52.56" xlink:href="#linear-gradient-12"/><linearGradient id="linear-gradient-16" x1="18.65" y1="8.29" x2="37.63" y2="27.26" xlink:href="#linear-gradient-12"/><linearGradient id="linear-gradient-17" x1="18.66" y1="38.21" x2="48.68" y2="38.21" xlink:href="#linear-gradient-12"/><linearGradient id="linear-gradient-18" x1="21.75" y1="24.52" x2="21.75" y2="18.82" gradientUnits="userSpaceOnUse"><stop offset="0" stop-color="#b2cbe5" stop-opacity="0"/><stop offset="1" stop-color="#3465a4"/></linearGradient><linearGradient id="linear-gradient-19" x1="26.25" y1="24.52" x2="26.25" y2="18.82" xlink:href="#linear-gradient-18"/><linearGradient id="linear-gradient-20" x1="23.47" y1="33.64" x2="24.69" y2="41.24" gradientUnits="userSpaceOnUse"><stop offset="0" stop-color="#eeeeec"/><stop offset="1" stop-color="#babdb6"/></linearGradient><linearGradient id="linear-gradient-21" x1="23.93" y1="25.16" x2="27.24" y2="25.16" xlink:href="#linear-gradient-20"/><linearGradient id="linear-gradient-22" x1="23.38" y1="23.12" x2="9.91" y2="-5.45" gradientUnits="userSpaceOnUse"><stop offset="0" stop-color="#fff" stop-opacity="0"/><stop offset="1" stop-color="snow"/></linearGradient><linearGradient id="linear-gradient-23" x1="25.22" y1="24.13" x2="9.75" y2="13.57" xlink:href="#linear-gradient-22"/><linearGradient id="linear-gradient-24" x1="23.93" y1="21.63" x2="23.93" y2="23.9" xlink:href="#linear-gradient-18"/><linearGradient id="linear-gradient-25" x1="33.28" y1="23.3" x2="14.73" y2="23.3" xlink:href="#linear-gradient-12"/></defs><title>32-Face ID Capture</title><g id="shadow"><ellipse class="cls-1" cx="23.8" cy="40.95" rx="22.88" ry="4.8"/></g><g id="ART"><path class="cls-2" d="M30.39,6.58H28.63v.34a1,1,0,0,1-1,1H20.4a1,1,0,0,1-1-1V6.58H17.61A1.71,1.71,0,0,0,15.9,8.29v30A1.71,1.71,0,0,0,17.61,40H30.39A1.71,1.71,0,0,0,32.1,38.3v-30A1.71,1.71,0,0,0,30.39,6.58Z"/><path class="cls-3" d="M24,31.1c-1.84,0-5.21-1-8.32-.83l-.35,0v7.32H32.68V30.3l-.36,0C29.21,30.14,25.84,31.1,24,31.1Z"/><path class="cls-4" d="M24,31.1c-1.84,0-5.21-1-8.32-.83l-.35,0v7.32H32.68V30.3l-.36,0C29.21,30.14,25.84,31.1,24,31.1Z"/><path class="cls-5" d="M32.68,30.3l-.36,0c-3.11-.12-6.48.83-8.32.83s-5.21-1-8.32-.83l-.35,0v2.62a8.3,8.3,0,0,1,2.57-.12C20,33,21.69,34,24,34s4.05-1,6.1-1.19a8.38,8.38,0,0,1,2.58.12Z"/><path class="cls-6" d="M32.68,30.3l-.36,0c-3.11-.12-6.48.83-8.32.83s-5.21-1-8.32-.83l-.35,0"/><path class="cls-7" d="M27.53,25.91c0,2,.1,4.84.81,6.22S26.55,34.64,24,34.64,19,33.5,19.66,32.13s.81-4.25.81-6.22"/><path class="cls-8" d="M28.41,32.31l0,.62-7.92-5.35V25.91h7.06c0,2,.1,4.84.81,6.22A1.34,1.34,0,0,1,28.41,32.31Z"/><path class="cls-9" d="M27.53,25.91c0,2,.1,4.84.81,6.22S26.55,34.64,24,34.64,19,33.5,19.66,32.13s.81-4.25.81-6.22"/><ellipse class="cls-10" cx="18.96" cy="21.64" rx="1.35" ry="1.82"/><ellipse class="cls-9" cx="18.96" cy="21.64" rx="1.35" ry="1.82"/><ellipse class="cls-11" cx="29.04" cy="21.64" rx="1.35" ry="1.82"/><ellipse class="cls-9" cx="29.04" cy="21.64" rx="1.35" ry="1.82"/><path class="cls-12" d="M24,13.77h0a4.7,4.7,0,0,1,4.7,4.7v4.35a5.64,5.64,0,0,1-5.64,5.64h0a3.76,3.76,0,0,1-3.76-3.76V18.47A4.7,4.7,0,0,1,24,13.77Z"/><path class="cls-9" d="M24,13.77h0a4.7,4.7,0,0,1,4.7,4.7v4.35a5.64,5.64,0,0,1-5.64,5.64h0a3.76,3.76,0,0,1-3.76-3.76V18.47A4.7,4.7,0,0,1,24,13.77Z"/><path class="cls-13" d="M24,17.32c1,0,1.26-.65,2.51-.65a2.19,2.19,0,0,1,2.19,1.66v3.08a22.5,22.5,0,0,0,.62-5C29.32,13.9,27.37,12,24,12s-5.32,1.86-5.32,4.41a22.5,22.5,0,0,0,.62,5V18.33a2.19,2.19,0,0,1,2.19-1.66C22.74,16.67,23,17.32,24,17.32Z"/><path class="cls-14" d="M24,17.32c1,0,1.26-.65,2.51-.65a2.19,2.19,0,0,1,2.19,1.66v3.08a22.5,22.5,0,0,0,.62-5C29.32,13.9,27.37,12,24,12s-5.32,1.86-5.32,4.41a22.5,22.5,0,0,0,.62,5V18.33a2.19,2.19,0,0,1,2.19-1.66C22.74,16.67,23,17.32,24,17.32Z"/><path class="cls-3" d="M27.81,17.06a2.43,2.43,0,0,0-1.3-.39c-1.25,0-1.48.65-2.51.65s-1.26-.65-2.51-.65a2.43,2.43,0,0,0-1.3.39c0-.17,0-1.71,1.1-2.23a7.32,7.32,0,0,1,5.42,0C27.81,15.35,27.81,16.89,27.81,17.06Z"/><path class="cls-15" d="M27.81,17.06a2.43,2.43,0,0,0-1.3-.39c-1.25,0-1.48.65-2.51.65s-1.26-.65-2.51-.65a2.43,2.43,0,0,0-1.3.39c0-.17,0-1.71,1.1-2.23a7.32,7.32,0,0,1,5.42,0C27.81,15.35,27.81,16.89,27.81,17.06Z"/><path class="cls-16" d="M24,17.32c1,0,1.26-.65,2.51-.65a2.19,2.19,0,0,1,2.19,1.66v3.08a22.5,22.5,0,0,0,.62-5C29.32,13.9,27.37,12,24,12s-5.32,1.86-5.32,4.41a22.5,22.5,0,0,0,.62,5V18.33a2.19,2.19,0,0,1,2.19-1.66C22.74,16.67,23,17.32,24,17.32Z"/><path class="cls-17" d="M30.39,5.58H17.61A2.71,2.71,0,0,0,14.9,8.29v30A2.71,2.71,0,0,0,17.61,41H30.39A2.71,2.71,0,0,0,33.1,38.3v-30A2.71,2.71,0,0,0,30.39,5.58ZM32.1,38.3A1.71,1.71,0,0,1,30.39,40H17.61A1.71,1.71,0,0,1,15.9,38.3v-30a1.71,1.71,0,0,1,1.71-1.71h1.77v.34a1,1,0,0,0,1,1h7.2a1,1,0,0,0,1-1V6.58h1.76A1.71,1.71,0,0,1,32.1,8.29Z"/><path class="cls-18" d="M30.39,5.58H24V8h3.6a1,1,0,0,0,1-1V6.58h1.76A1.71,1.71,0,0,1,32.1,8.29V20.6h1V8.29A2.71,2.71,0,0,0,30.39,5.58Z"/><rect class="cls-19" x="32.1" y="12.59" width="1" height="8.01"/><rect class="cls-20" x="32.1" y="20.6" width="1" height="14.81"/><rect class="cls-21" x="14.9" y="12.59" width="1" height="22.82"/><path class="cls-22" d="M15.9,8.29a1.71,1.71,0,0,1,1.71-1.71h1.77v.34a1,1,0,0,0,1,1H24V5.58H17.61A2.71,2.71,0,0,0,14.9,8.29v4.3h1Z"/><path class="cls-23" d="M33.1,35.41V38.3A2.71,2.71,0,0,1,30.39,41H17.61A2.71,2.71,0,0,1,14.9,38.3V35.41Z"/><circle class="cls-24" cx="26.58" cy="7.18" r="0.32"/><path class="cls-25" d="M20,19.91a2.44,2.44,0,0,1,1.58-.8,2.73,2.73,0,0,1,1.86.94,14.57,14.57,0,0,1-.19,2.8s-.17-1.32-.45-1.56a2.8,2.8,0,0,0-2.05,0A4.15,4.15,0,0,0,20,19.91Z"/><path class="cls-26" d="M28,19.91a2.44,2.44,0,0,0-1.58-.8,2.73,2.73,0,0,0-1.86.94,14.57,14.57,0,0,0,.19,2.8s.17-1.32.45-1.56a2.8,2.8,0,0,1,2.05,0A4.15,4.15,0,0,1,28,19.91Z"/><path class="cls-27" d="M30.39,6.58A1.71,1.71,0,0,1,32.1,8.29v30A1.71,1.71,0,0,1,30.39,40H17.61A1.71,1.71,0,0,1,15.9,38.3v-30a1.71,1.71,0,0,1,1.71-1.71H30.39"/><path class="cls-28" d="M32.1,35.41V38.3A1.71,1.71,0,0,1,30.39,40H17.61A1.71,1.71,0,0,1,15.9,38.3V35.41Z"/><circle class="cls-29" cx="24" cy="37.71" r="1.31"/><path class="cls-30" d="M24,24.37A10.16,10.16,0,0,0,26.83,24a2.33,2.33,0,0,1-.77,1.8,2.86,2.86,0,0,1-.8.35,4.69,4.69,0,0,1-2.52,0,2.86,2.86,0,0,1-.8-.35,2.33,2.33,0,0,1-.77-1.8A10.16,10.16,0,0,0,24,24.37Z"/><path class="cls-16" d="M24,24.37A10.16,10.16,0,0,0,26.83,24a2.33,2.33,0,0,1-.77,1.8,2.86,2.86,0,0,1-.8.35,4.69,4.69,0,0,1-2.52,0,2.86,2.86,0,0,1-.8-.35,2.33,2.33,0,0,1-.77-1.8A10.16,10.16,0,0,0,24,24.37Z"/><path class="cls-31" d="M30.39,6.58,17.61,40A1.71,1.71,0,0,1,15.9,38.3v-30a1.71,1.71,0,0,1,1.71-1.71h1.77v.34a1,1,0,0,0,1,1h7.2a1,1,0,0,0,1-1V6.58Z"/><line class="cls-32" x1="30.39" y1="6.58" x2="17.61" y2="40.01"/><path class="cls-33" d="M23.27,22.85a.73.73,0,0,0,.64.32A1.28,1.28,0,0,0,24.6,23s-.11.67-.67.67S23.27,22.85,23.27,22.85Z"/><path class="cls-34" d="M30.39,5.58H17.61A2.71,2.71,0,0,0,14.9,8.29v30A2.71,2.71,0,0,0,17.61,41H30.39A2.71,2.71,0,0,0,33.1,38.3v-30A2.71,2.71,0,0,0,30.39,5.58Z"/></g></svg>