<?xml version="1.0" encoding="UTF-8" standalone="no"?>
<!-- Generator: Adobe Illustrator 15.0.0, SVG Export Plug-In . SVG Version: 6.00 Build 0)  -->
<svg
   xmlns:dc="http://purl.org/dc/elements/1.1/"
   xmlns:cc="http://creativecommons.org/ns#"
   xmlns:rdf="http://www.w3.org/1999/02/22-rdf-syntax-ns#"
   xmlns:svg="http://www.w3.org/2000/svg"
   xmlns="http://www.w3.org/2000/svg"
   xmlns:sodipodi="http://sodipodi.sourceforge.net/DTD/sodipodi-0.dtd"
   xmlns:inkscape="http://www.inkscape.org/namespaces/inkscape"
   version="1.0"
   id="Layer_1"
   x="0px"
   y="0px"
   width="48"
   height="48"
   viewBox="0 0 612 792"
   enable-background="new 0 0 612 792"
   xml:space="preserve"
   sodipodi:version="0.32"
   inkscape:version="0.46"
   sodipodi:docname="Flame_Thrower.svg"
   inkscape:output_extension="org.inkscape.output.svg.inkscape"><metadata
   id="metadata2473"><rdf:RDF><cc:Work
       rdf:about=""><dc:format>image/svg+xml</dc:format><dc:type
         rdf:resource="http://purl.org/dc/dcmitype/StillImage" /></cc:Work></rdf:RDF></metadata><defs
   id="defs2471"><inkscape:perspective
     id="perspective10849"
     inkscape:persp3d-origin="306 : 264 : 1"
     inkscape:vp_z="612 : 396 : 1"
     inkscape:vp_y="0 : 1000 : 0"
     inkscape:vp_x="0 : 396 : 1"
     sodipodi:type="inkscape:persp3d" /></defs><sodipodi:namedview
   inkscape:window-height="1538"
   inkscape:window-width="2560"
   inkscape:pageshadow="2"
   inkscape:pageopacity="0.0"
   guidetolerance="10.0"
   gridtolerance="10.0"
   objecttolerance="10.0"
   borderopacity="1.0"
   bordercolor="#666666"
   pagecolor="#ffffff"
   id="base"
   showgrid="false"
   inkscape:zoom="18.666667"
   inkscape:cx="33.200391"
   inkscape:cy="20.290602"
   inkscape:window-x="-8"
   inkscape:window-y="-8"
   inkscape:current-layer="Layer_1" />
















<g
   id="g10852"
   transform="matrix(17.030421,0,0,17.030421,-4890.8511,-6407.1182)"><path
     id="path10804"
     d="M 284.939,418.575 C 284.009,417.615 283.715,416.718 283.918,416.132 C 284.362,414.861 287.787,410.405 288.163,409.898 C 288.163,409.898 288.557,409.544 288.729,409.482 C 288.903,409.422 289.149,409.357 289.44,409.357 C 289.633,409.357 289.844,409.379 290.071,409.425 C 290.387,408.957 290.768,408.41 291.175,407.824 C 292.586,405.8 294.717,402.736 294.983,401.708 L 295.118,401.182 C 295.218,400.786 295.329,400.344 295.45,399.885 C 295.514,399.399 295.569,398.861 295.622,398.358 C 295.79,396.717 295.923,395.421 296.702,394.587 L 298.571,392.585 L 298.839,393.461 C 298.907,393.369 298.984,393.278 299.068,393.189 C 299.182,393.07 299.256,392.984 299.303,392.925 C 298.191,391.406 298.474,389.648 298.82,388.842 C 299.088,388.219 299.752,387.467 299.826,387.384 L 300.014,387.174 C 298.703,386.873 296.821,385.882 296.352,384.322 C 296.059,383.346 296.188,381.936 297.12,380.93 C 296.764,380.788 295.378,380.602 294.544,380.113 C 293.77,379.658 291.403,377.885 290.167,376.917 C 291.263,376.957 327.733,376.918 327.733,376.918 L 327.733,390.894 L 326.658,390.662 C 326.179,390.545 325.395,390.377 325.153,390.37 L 325.152,390.37 C 324.965,390.37 324.535,390.441 323.59,390.915 C 323.396,391.013 323.147,391.184 322.883,391.361 C 321.999,391.955 320.672,392.847 318.97,392.954 C 318.955,392.956 317.126,393.099 317.049,393.112 L 319.005,393.621 C 318.641,394.554 317.619,395.56 317.503,395.649 C 316.992,396.043 315.183,397.032 312.323,397.375 C 312.275,397.379 311.992,397.857 311.992,397.857 C 311.664,398.694 310.297,400.805 308.167,401.991 C 307.351,402.445 306.452,402.763 305.662,403.045 C 305.394,403.141 305.003,403.24 304.572,403.346 C 303.934,403.504 302.884,403.766 302.564,404.016 C 301.135,405.954 297.789,410.666 295.742,413.559 C 296.222,414.352 296.254,415.127 296.199,415.339 C 296.144,415.547 295.926,415.917 295.926,415.917 C 295.269,416.804 291.955,421.258 291.28,421.854 C 291.169,421.955 290.971,422.072 290.668,422.072 C 290.507,422.072 290.055,422.072 288.829,421.352 L 287.704,422.759 C 287.704,422.759 283.336,422.828 282.353,422.772 C 282.239,422.765 282.147,422.377 282.147,422.257 C 282.146,422.133 284.939,418.575 284.939,418.575 z M 301.898,388.893 L 301.931,388.998 C 301.947,389.036 302.019,389.091 302.128,389.143 C 302.124,388.883 302.085,388.582 301.991,388.403 C 301.632,387.717 301.106,387.354 300.725,387.279 L 301.898,388.893 z"
     stroke-miterlimit="10"
     style="fill:none;stroke:#883a00;stroke-width:1.29999995;stroke-linecap:round;stroke-miterlimit:10" /><path
     id="path10806"
     d="M 292.331,377.535 C 292.858,378.073 294.176,379.069 294.908,379.544 C 295.64,380.019 298.402,380.404 299.275,381.494 C 299.343,381.581 299.982,382.015 299.767,382.115 C 299.109,382.426 297.666,381.298 297.666,381.298 C 296.853,382.112 296.731,383.326 296.975,384.132 C 297.427,385.638 299.615,386.553 300.661,386.614 C 301.32,386.652 302.092,387.187 302.569,388.099 C 302.867,388.668 302.81,389.752 302.629,389.925 C 301.277,389.888 300.223,388.103 300.223,388.103 C 300.223,388.103 299.522,388.817 299.289,389.36 C 299.056,389.903 298.838,391.228 299.858,392.577 C 300.072,392.861 300.169,392.975 299.54,393.638 C 299.025,394.178 298.909,394.824 298.833,395.251 C 298.82,395.32 298.805,395.412 298.788,395.486 C 298.774,395.463 298.762,395.431 298.75,395.392 L 298.278,393.852 L 297.179,395.029 C 296.337,395.932 296.4,397.786 296.08,400.052 C 295.901,400.726 295.744,401.364 295.614,401.87 C 295.225,403.384 291.801,407.987 290.356,410.167 C 289.534,409.917 288.897,409.951 288.658,410.343 C 288.662,410.336 288.661,410.327 288.665,410.321 C 288.673,410.307 288.684,410.298 288.692,410.288 C 288.692,410.288 284.805,415.412 284.381,416.627 C 284.24,417.034 284.825,417.795 285.683,418.603 C 285.683,418.603 282.702,422.183 282.784,422.319 C 282.847,422.423 283.279,422.348 283.279,422.348 L 287.241,422.328 L 288.51,420.759 C 289.556,421.427 290.458,421.844 290.691,421.637 C 291.351,421.056 295.459,415.442 295.49,415.386 C 295.727,414.988 295.496,414.304 294.951,413.545 C 296.477,411.391 300.513,405.699 302.082,403.571 C 302.66,403.021 304.643,402.717 305.443,402.431 C 306.212,402.158 307.081,401.849 307.849,401.421 C 309.807,400.333 311.097,398.355 311.386,397.618 L 311.705,396.805 C 311.902,396.769 312.086,396.743 312.243,396.725 C 315,396.396 316.651,395.57 316.975,395.283 C 317.34,394.958 317.898,394.49 318.071,394.025 C 317.665,394.054 315.596,394.025 315.728,393.342 C 315.803,392.954 316.561,392.707 316.561,392.707 C 317.756,392.496 318.785,392.319 318.926,392.302 C 320.456,392.205 321.647,391.405 322.517,390.819 C 322.807,390.624 323.08,390.439 323.295,390.331 C 324.126,389.914 324.753,389.704 325.171,389.716 C 325.589,389.728 327.002,390.026 327.002,390.026 L 327.03,377.533 C 327.032,377.535 292.939,377.546 292.331,377.535 z"
     stroke-miterlimit="10"
     style="fill:none;stroke:#f78e1e;stroke-linecap:round;stroke-miterlimit:10" /><polygon
     id="polygon10808"
     points="282.816,422.403 286.256,417.877 289.051,419.986 287.23,422.383 282.816,422.403 "
     stroke-miterlimit="10"
     style="fill:#401b56;stroke:#281e4e;stroke-width:0.30000001;stroke-linecap:round;stroke-linejoin:round;stroke-miterlimit:10" /><path
     id="path10810"
     d="M 291.116,414.372 C 289.197,412.959 288.01,411.19 288.463,410.427 C 288.471,410.413 288.483,410.404 288.49,410.392 L 288.486,410.389 C 288.486,410.389 284.801,415.373 284.372,416.608 C 283.942,417.841 290.011,422.247 290.682,421.655 C 291.352,421.063 295.311,415.721 295.311,415.721 L 295.282,415.698 C 294.664,416.226 292.89,415.68 291.116,414.372 z"
     stroke-miterlimit="10"
     style="fill:#582f80;stroke:#281e4e;stroke-width:0.30000001;stroke-linecap:round;stroke-linejoin:round;stroke-miterlimit:10" /><path
     id="path10812"
     d="M 295.398,415.575 C 294.947,416.342 293.023,415.814 291.105,414.399 C 289.186,412.985 287.998,411.218 288.451,410.453 C 288.904,409.689 290.826,410.214 292.744,411.629 C 294.664,413.044 295.852,414.81 295.398,415.575 z"
     stroke-miterlimit="10"
     style="fill:#ae9fc1;stroke:#281e4e;stroke-width:0.30000001;stroke-linecap:round;stroke-linejoin:round;stroke-miterlimit:10" /><path
     id="path10814"
     d="M 294.309,414.718 C 293.993,415.25 292.654,414.885 291.317,413.898 C 289.981,412.916 289.152,411.682 289.468,411.15 C 289.783,410.615 291.122,410.983 292.459,411.968 C 293.797,412.953 294.625,414.185 294.309,414.718 z"
     stroke-miterlimit="10"
     style="fill:#e7ea81;stroke:#281e4e;stroke-width:0.30000001;stroke-linecap:round;stroke-linejoin:round;stroke-miterlimit:10" /><path
     id="path10816"
     d="M 295.747,401.448 C 296.398,398.491 296.086,395.988 297.117,394.882 L 298.234,393.685 L 298.713,395.25 C 298.726,395.291 298.739,395.323 298.751,395.347 C 298.769,395.271 298.784,395.18 298.797,395.108 C 298.876,394.673 298.993,394.016 299.516,393.467 C 300.155,392.795 300.058,392.678 299.839,392.39 C 298.802,391.02 299.124,389.817 299.36,389.266 C 299.596,388.714 300.268,387.988 300.268,387.988 L 301.258,389.143 C 301.587,389.514 302.164,389.671 302.654,389.693 C 302.839,389.518 302.896,388.417 302.593,387.839 C 302.108,386.911 301.322,386.368 300.653,386.329 C 299.59,386.266 297.368,385.337 296.908,383.806 C 296.662,382.987 296.783,381.753 297.611,380.925 C 297.611,380.925 299.076,382.071 299.746,381.756 C 299.963,381.654 299.316,381.213 299.245,381.125 C 298.358,380.018 295.683,379.409 294.897,378.997 C 293.958,378.505 293.503,377.853 293.503,377.853 L 326.575,377.827 L 326.547,389.799 C 326.547,389.799 325.994,389.497 325.569,389.485 C 325.144,389.473 324.506,389.686 323.662,390.11 C 323.445,390.22 323.166,390.407 322.87,390.606 C 321.986,391.201 320.776,392.015 319.222,392.113 C 319.076,392.13 318.032,392.31 316.818,392.525 C 316.818,392.525 315.966,392.818 315.73,393.144 C 315.536,393.412 317.503,393.916 317.917,393.887 C 317.74,394.36 317.525,394.525 317.215,394.835 C 316.804,395.248 315.231,396.274 312.43,396.608 C 312.268,396.627 312.082,396.653 311.88,396.69 L 311.556,397.516 C 311.263,398.263 309.951,400.275 307.96,401.382 C 307.182,401.816 306.296,402.13 305.516,402.407 C 304.666,402.71 302.488,403.031 302.014,403.637 C 300.951,404.996 295.747,401.448 295.747,401.448 z"
     style="fill:#fbb416" /><path
     id="path10818"
     d="M 294.245,414.563 C 294.245,414.563 301.887,403.748 302.682,402.798 C 303.477,401.847 305.801,401.5 307.502,400.553 C 309.205,399.605 310.418,397.83 310.677,397.167 C 310.194,397.382 308.789,398.862 308.452,397.933 C 308.288,397.479 308.326,396.824 309.132,396.466 C 309.938,396.108 311.493,395.759 312.326,395.666 C 314.847,395.387 316.085,394.221 316.334,393.917 C 316.586,393.613 313.59,394.382 315.078,392.912 C 312.471,392.969 315.185,391.852 315.185,391.852 C 315.185,391.852 318.929,391.183 319.164,391.167 C 320.966,391.052 322.268,389.751 323.238,389.263 C 325.082,388.336 326.577,388.733 326.577,388.733 L 326.577,377.852 L 294.366,377.852 C 294.366,377.852 298.722,378.956 299.984,380.533 C 302.116,383.197 301.454,383.245 301.137,383.231 C 300.823,383.216 297.819,382.777 297.934,382.071 C 297.184,383.608 299.228,385.212 300.733,385.304 C 302.034,385.383 302.924,386.431 303.432,387.402 C 303.94,388.372 303.95,390.702 302.611,390.64 C 301.272,390.578 300.489,389.464 300.379,389.129 C 299.639,389.745 300.138,391.237 300.585,391.81 C 301.032,392.382 301.278,392.987 300.201,394.121 C 299.397,394.965 300.108,396.306 298.718,396.341 C 298.394,396.35 297.984,396.1 297.808,395.529 C 296.749,396.664 295.988,400.044 295.526,401.839 C 295.065,403.632 290.41,409.697 289.635,411.147 C 288.988,412.359 293.469,415.945 294.245,414.563 z"
     style="fill:#f5eb23" /><path
     id="path10820"
     d="M 300.616,396.145 C 300.631,396.062 300.75,394.576 300.773,394.49 C 301.72,393.149 301.692,392.469 301.638,391.644 C 302.565,391.585 303.664,391.254 304.164,390.429 C 304.984,389.073 305.742,387.731 305.109,386.524 C 304.618,385.586 303.624,383.835 303.649,383.782 C 304.268,382.495 302.583,379.537 299.567,377.852 L 326.536,377.813 L 326.536,385.267 C 325.732,385.315 323.506,385.858 322.387,386.421 C 322.011,386.611 321.061,387.4 320.69,387.65 C 319.973,388.131 319.428,388.825 318.639,388.875 C 318.519,388.883 318.701,389.301 314.853,389.989 L 314.653,390.025 L 314.466,390.102 C 313.787,390.381 311.729,391.228 312.092,393.065 C 312.137,393.291 312.009,393.997 313.015,394.352 C 313.963,394.686 309.73,395.045 308.697,395.653 C 308.047,396.036 307.554,396.501 305.978,398.709 C 305.931,398.772 305.818,398.339 305.11,398.591 C 303.803,399.055 300.313,397.846 300.616,396.145 z"
     style="fill:#f7e48c" /><path
     id="path10822"
     d="M 304.414,397.997 C 303.501,397.997 302.079,397.514 301.5,396.821 C 301.252,396.526 301.287,396.331 301.299,396.268 C 301.305,396.229 301.332,395.948 301.362,395.616 C 301.388,395.306 301.419,394.946 301.44,394.745 C 302.155,393.695 302.335,392.974 302.35,392.251 C 303.127,392.106 304.184,391.734 304.758,390.788 C 305.563,389.457 306.563,387.803 305.725,386.202 C 305.529,385.828 305.254,385.326 304.995,384.852 C 304.784,384.467 304.536,384.012 304.399,383.75 C 304.789,382.312 303.707,379.538 301.795,377.884 L 326.578,377.746 L 326.578,384.649 C 325.353,384.827 323.101,385.285 322.077,385.8 C 321.802,385.939 321.401,386.241 320.864,386.654 C 320.639,386.827 320.433,386.986 320.302,387.073 C 320.074,387.227 319.86,387.4 319.651,387.571 C 319.264,387.887 318.929,388.161 318.596,388.181 L 318.333,388.198 L 318.096,388.419 C 318.046,388.461 317.58,388.795 314.731,389.304 L 314.458,389.353 L 314.203,389.458 C 312.037,390.35 311.099,391.607 311.413,393.196 C 311.425,393.397 311.449,393.788 311.685,394.174 C 311.543,394.202 311.404,394.229 311.275,394.254 C 309.905,394.519 308.892,394.731 308.345,395.053 C 307.624,395.478 307.09,395.991 305.749,397.836 C 305.675,397.823 305.595,397.816 305.508,397.816 C 305.313,397.816 305.101,397.855 304.878,397.934 C 304.815,397.959 304.67,397.997 304.414,397.997 z"
     style="fill:#f8f29a" /><path
     id="path10824"
     d="M 293.074,414.478 C 292.18,414.36 290.283,412.727 290.07,412.034 C 290.369,411.519 291.562,409.917 292.33,408.815 C 294.468,405.747 296.009,403.333 296.457,402.178 C 296.92,400.984 297.669,399.387 297.816,398.629 C 299.118,398.748 299.898,398.131 300.3,396.855 C 300.763,395.388 300.993,395.16 301.679,394.017 C 302.154,393.228 301.798,392.558 301.95,392.03 C 302.423,392.661 302.704,392.202 303.098,392.006 C 304.95,391.083 306.036,389.68 308.993,389.148 C 309.584,390.449 308.658,393.347 309.603,394.254 C 309.13,394.884 308.273,394.784 308.027,395.042 C 307.07,396.044 306.602,398.011 305.897,398.827 C 305.702,399.054 305.747,400.003 305.583,400.089 C 304.472,400.674 302.583,401.441 301.955,402.192 C 301.177,403.124 293.88,413.339 293.074,414.478 z"
     style="fill:#f9eff3" /><ellipse
     id="ellipse10826"
     ry="0.32499999"
     rx="0.93099999"
     cy="412.802"
     cx="291.991"
     stroke-miterlimit="10"
     transform="matrix(0.8193,0.5733,-0.5733,0.8193,289.4223,-92.824)"
     sodipodi:cx="291.991"
     sodipodi:cy="412.802"
     sodipodi:rx="0.93099999"
     sodipodi:ry="0.32499999"
     style="fill:#e7e861;stroke:#000000;stroke-width:0.1;stroke-linecap:round;stroke-linejoin:round;stroke-miterlimit:10" /><path
     id="path10828"
     d="M 294.359,414.763 C 294.045,415.294 292.704,414.929 291.368,413.943 C 290.031,412.96 289.203,411.726 289.518,411.195 C 289.833,410.66 291.173,411.028 292.509,412.012 C 293.848,412.998 294.676,414.229 294.359,414.763 z"
     stroke-miterlimit="10"
     style="opacity:0.3;fill:#e7ea81;stroke:#281e4e;stroke-width:0.30000001;stroke-linecap:round;stroke-linejoin:round;stroke-miterlimit:10" /><path
     id="path10830"
     d="M 292.889,413.762 C 292.071,413.575 291.389,413.092 291.162,412.41 C 291.56,411.802 292.578,410.264 293.171,409.413 C 295.805,405.633 297.141,403.434 297.88,402.303 C 298.986,400.61 301.66,397.711 303.065,397.313 C 303.131,398.739 301.071,402.548 300.408,403.339 C 299.611,404.295 294.955,410.839 292.889,413.762 z"
     style="fill:#bc8ca5" /><path
     id="path10832"
     d="M 292.473,413.381 C 291.727,413.211 291.106,412.767 290.899,412.148 C 291.262,411.592 292.36,410.008 292.9,409.233 C 295.303,405.783 296.522,403.776 297.197,402.744 C 298.208,401.2 300.647,398.556 301.928,398.191 C 301.987,399.492 300.108,402.967 299.503,403.69 C 298.777,404.56 294.359,410.71 292.473,413.381 z"
     style="fill:#8fc5eb" /><path
     id="path10834"
     d="M 291.954,413.175 C 291.649,413.106 291.394,412.922 291.31,412.669 C 291.458,412.442 291.908,411.793 292.128,411.477 C 293.112,410.065 293.61,409.244 293.887,408.821 C 294.3,408.189 295.299,407.107 295.824,406.958 C 295.847,407.49 295.08,408.912 294.832,409.209 C 294.535,409.563 292.727,412.08 291.954,413.175 z"
     style="fill:#d4effc" /><path
     id="path10836"
     d="M 288.041,411.542 C 288.166,412.042 289.084,413.167 289.084,413.167 L 285.791,417.959 C 285.791,417.959 284.583,417.084 284.708,416.709 C 284.833,416.334 288.041,411.542 288.041,411.542 z"
     style="fill:#80679c" /><path
     id="path10838"
     d="M 288,411.667 C 288.208,412.125 288.459,412.376 288.459,412.376 L 285.084,417.272 C 285.084,417.272 284.646,417.043 284.771,416.668 C 284.896,416.293 288,411.667 288,411.667 z"
     style="fill:#f6f5c2" /><path
     id="path10840"
     d="M 285.688,419.016 C 285.844,419.25 286.376,419.688 286.376,419.688 L 284.501,422.251 C 284.501,422.251 283.86,422.267 283.476,422.233 C 283.547,422.034 285.688,419.016 285.688,419.016 z"
     style="fill:#80679c" /><path
     id="path10842"
     d="M 285.688,419.047 C 285.844,419.297 286.047,419.422 286.047,419.422 L 283.969,422.25 C 283.969,422.25 283.75,422.281 283.485,422.219 C 283.557,422.021 285.688,419.047 285.688,419.047 z"
     style="fill:#f6f5c2" /></g></svg>