<?xml version="1.0" encoding="UTF-8" standalone="no"?>
<!-- Created with Inkscape (http://www.inkscape.org/) -->

<svg
   xmlns:dc="http://purl.org/dc/elements/1.1/"
   xmlns:cc="http://creativecommons.org/ns#"
   xmlns:rdf="http://www.w3.org/1999/02/22-rdf-syntax-ns#"
   xmlns:svg="http://www.w3.org/2000/svg"
   xmlns="http://www.w3.org/2000/svg"
   xmlns:xlink="http://www.w3.org/1999/xlink"
   xmlns:sodipodi="http://sodipodi.sourceforge.net/DTD/sodipodi-0.dtd"
   xmlns:inkscape="http://www.inkscape.org/namespaces/inkscape"
   width="48px"
   height="48px"
   id="svg3839"
   version="1.1"
   inkscape:version="0.48.4 r9939"
   sodipodi:docname="wave_tank.svg">
  <defs
     id="defs3841"><linearGradient
   id="linearGradient4610">
  <stop
     style="stop-color:#75d6ff;stop-opacity:1;"
     offset="0"
     id="stop4612" />
  <stop
     style="stop-color:#ffffff;stop-opacity:1;"
     offset="1"
     id="stop4614" />
</linearGradient>
<linearGradient
   inkscape:collect="always"
   id="linearGradient4014">
  <stop
     style="stop-color:#488ca5;stop-opacity:1;"
     offset="0"
     id="stop4016" />
  <stop
     style="stop-color:#488ca5;stop-opacity:0;"
     offset="1"
     id="stop4018" />
</linearGradient>
<linearGradient
   inkscape:collect="always"
   id="linearGradient4004">
  <stop
     style="stop-color:#30829f;stop-opacity:1;"
     offset="0"
     id="stop4006" />
  <stop
     style="stop-color:#30829f;stop-opacity:0;"
     offset="1"
     id="stop4008" />
</linearGradient>
<linearGradient
   inkscape:collect="always"
   id="linearGradient3990">
  <stop
     style="stop-color:#107f9f;stop-opacity:1;"
     offset="0"
     id="stop3992" />
  <stop
     style="stop-color:#107f9f;stop-opacity:0;"
     offset="1"
     id="stop3994" />
</linearGradient>

		
	<radialGradient
   gradientUnits="userSpaceOnUse"
   gradientTransform="matrix(1.01,0,0,0.5391,-2.9279,150.4578)"
   r="7.1188002"
   cy="339.91211"
   cx="377.52249"
   id="SVGID_6_">
			<stop
   id="stop36753"
   style="stop-color:#DCF2FD;stop-opacity:0.72"
   offset="0" />

			<stop
   id="stop36755"
   style="stop-color:#92B5D0;stop-opacity:0"
   offset="1" />

		</radialGradient>

		
		
		
		
		
		
		
		
		
		
			<radialGradient
   gradientUnits="userSpaceOnUse"
   gradientTransform="matrix(0.9963,-0.1773,8.3e-2,0.5318,-25.7023,220.0981)"
   r="13.306"
   cy="337.99509"
   cx="384.68951"
   id="SVGID_5_">
			<stop
   id="stop36730"
   style="stop-color:#DCF2FD;stop-opacity:0.72"
   offset="0" />

			<stop
   id="stop36732"
   style="stop-color:#92B5D0;stop-opacity:0"
   offset="1" />

		</radialGradient>

		
		
		
		
			<radialGradient
   gradientUnits="userSpaceOnUse"
   gradientTransform="matrix(0.5246,-0.9214,0.6041,0.3921,-26.7994,550.6833)"
   r="14.9206"
   cy="343.0264"
   cx="377.77151"
   id="SVGID_4_">
			<stop
   id="stop36719"
   style="stop-color:#1A5C79"
   offset="0" />

			<stop
   id="stop36721"
   style="stop-color:#6D7DAA;stop-opacity:0"
   offset="1" />

		</radialGradient>

		
		
			<radialGradient
   gradientUnits="userSpaceOnUse"
   gradientTransform="matrix(1.01,0,0,1.0783,-2.9279,-32.8058)"
   r="16.9909"
   cy="358.95511"
   cx="397.39749"
   id="SVGID_3_">
			<stop
   id="stop36712"
   style="stop-color:#DCF2FD"
   offset="0" />

			<stop
   id="stop36714"
   style="stop-color:#92B5D0;stop-opacity:0"
   offset="1" />

		</radialGradient>

		
		
			<radialGradient
   gradientUnits="userSpaceOnUse"
   gradientTransform="matrix(1.01,0,0,1.0783,-2.9279,-32.8058)"
   r="18.222"
   cy="350.87109"
   cx="389.293"
   id="SVGID_2_">
			<stop
   id="stop36705"
   style="stop-color:#93C5D8"
   offset="0" />

			<stop
   id="stop36707"
   style="stop-color:#FFFFFF;stop-opacity:0"
   offset="1" />

		</radialGradient>

		
		
			<linearGradient
   y2="376.82001"
   x2="369.25562"
   y1="338.83789"
   x1="397.74219"
   gradientUnits="userSpaceOnUse"
   id="SVGID_1_">
			<stop
   id="stop36698"
   style="stop-color:#FFFFFF;stop-opacity:0"
   offset="0" />

			<stop
   id="stop36700"
   style="stop-color:#00718D"
   offset="1" />

		</linearGradient>

		
		
		
		
		
		<radialGradient
   r="7.1188002"
   cy="339.91211"
   cx="377.52249"
   gradientTransform="matrix(1.01,0,0,0.5391,-2.9279,150.4578)"
   gradientUnits="userSpaceOnUse"
   id="radialGradient36817"
   xlink:href="#SVGID_6_"
   inkscape:collect="always" />
<radialGradient
   r="13.306"
   cy="337.99509"
   cx="384.68951"
   gradientTransform="matrix(0.9963,-0.1773,8.3e-2,0.5318,-25.7023,220.0981)"
   gradientUnits="userSpaceOnUse"
   id="radialGradient36815"
   xlink:href="#SVGID_5_"
   inkscape:collect="always" />
<radialGradient
   r="14.9206"
   cy="343.0264"
   cx="377.77151"
   gradientTransform="matrix(0.5246,-0.9214,0.6041,0.3921,-26.7994,550.6833)"
   gradientUnits="userSpaceOnUse"
   id="radialGradient36813"
   xlink:href="#SVGID_4_"
   inkscape:collect="always" />
<radialGradient
   r="16.9909"
   cy="358.95511"
   cx="397.39749"
   gradientTransform="matrix(1.01,0,0,1.0783,-2.9279,-32.8058)"
   gradientUnits="userSpaceOnUse"
   id="radialGradient36811"
   xlink:href="#SVGID_3_"
   inkscape:collect="always" />
<radialGradient
   r="18.222"
   cy="350.87109"
   cx="389.293"
   gradientTransform="matrix(1.01,0,0,1.0783,-2.9279,-32.8058)"
   gradientUnits="userSpaceOnUse"
   id="radialGradient36809"
   xlink:href="#SVGID_2_"
   inkscape:collect="always" />
<linearGradient
   y2="376.82001"
   x2="369.25562"
   y1="338.83789"
   x1="397.74219"
   gradientUnits="userSpaceOnUse"
   id="linearGradient36807"
   xlink:href="#SVGID_1_"
   inkscape:collect="always" />

	
	
<inkscape:perspective
   id="perspective36764"
   inkscape:persp3d-origin="306 : 264 : 1"
   inkscape:vp_z="612 : 396 : 1"
   inkscape:vp_y="0 : 1000 : 0"
   inkscape:vp_x="0 : 396 : 1"
   sodipodi:type="inkscape:persp3d" />
<linearGradient
   inkscape:collect="always"
   xlink:href="#linearGradient4014"
   id="linearGradient4020"
   x1="19.428572"
   y1="14.142858"
   x2="22.928572"
   y2="31.285715"
   gradientUnits="userSpaceOnUse"
   gradientTransform="matrix(1.1019737,0,0,1.1019737,-3.5683741,-1.0888158)" />
<linearGradient
   inkscape:collect="always"
   xlink:href="#SVGID_1_"
   id="linearGradient4588"
   gradientUnits="userSpaceOnUse"
   gradientTransform="matrix(0.99782846,0,0,0.99782846,-359.11735,-325.73888)"
   x1="397.74219"
   y1="338.83789"
   x2="369.25562"
   y2="376.82001" />
<radialGradient
   inkscape:collect="always"
   xlink:href="#SVGID_2_"
   id="radialGradient4590"
   gradientUnits="userSpaceOnUse"
   gradientTransform="matrix(1.0078067,0,0,1.0759584,-362.03889,-358.47345)"
   cx="389.293"
   cy="350.87109"
   r="18.222" />
<radialGradient
   inkscape:collect="always"
   xlink:href="#SVGID_3_"
   id="radialGradient4592"
   gradientUnits="userSpaceOnUse"
   gradientTransform="matrix(1.0078067,0,0,1.0759584,-362.03889,-358.47345)"
   cx="397.39749"
   cy="358.95511"
   r="16.9909" />
<radialGradient
   inkscape:collect="always"
   xlink:href="#SVGID_4_"
   id="radialGradient4594"
   gradientUnits="userSpaceOnUse"
   gradientTransform="matrix(0.52346079,-0.91939912,0.60278815,0.39124853,-385.85855,223.74856)"
   cx="377.77151"
   cy="343.0264"
   r="14.9206" />
<radialGradient
   inkscape:collect="always"
   xlink:href="#SVGID_5_"
   id="radialGradient4596"
   gradientUnits="userSpaceOnUse"
   gradientTransform="matrix(0.99413645,-0.17691498,0.08281975,0.53064516,-384.76383,-106.11874)"
   cx="384.68951"
   cy="337.99509"
   r="13.306" />
<linearGradient
   inkscape:collect="always"
   xlink:href="#linearGradient4014"
   id="linearGradient4598"
   gradientUnits="userSpaceOnUse"
   gradientTransform="matrix(1.1019737,0,0,1.1019737,-3.5683741,-1.0888158)"
   x1="19.428572"
   y1="14.142858"
   x2="22.928572"
   y2="31.285715" />
<linearGradient
   inkscape:collect="always"
   xlink:href="#linearGradient4004"
   id="linearGradient4600"
   gradientUnits="userSpaceOnUse"
   gradientTransform="matrix(1.1019737,0,0,1.1019737,-3.5683741,-1.0888158)"
   x1="15.714286"
   y1="19.285715"
   x2="23.071428"
   y2="32.07143" />
<linearGradient
   inkscape:collect="always"
   xlink:href="#linearGradient4004"
   id="linearGradient4602"
   gradientUnits="userSpaceOnUse"
   gradientTransform="matrix(1.1019737,0,0,1.1019737,-3.5683741,-1.0888158)"
   x1="18.785715"
   y1="12.357142"
   x2="15.142858"
   y2="29.785715" />
<linearGradient
   inkscape:collect="always"
   xlink:href="#linearGradient3990"
   id="linearGradient4604"
   gradientUnits="userSpaceOnUse"
   gradientTransform="matrix(1.1019737,0,0,1.1019737,-3.5683741,-1.0888158)"
   x1="14.071428"
   y1="13.642858"
   x2="14.642858"
   y2="33.714287" />
<radialGradient
   inkscape:collect="always"
   xlink:href="#SVGID_6_"
   id="radialGradient4606"
   gradientUnits="userSpaceOnUse"
   gradientTransform="matrix(1.0078067,0,0,0.5379293,-362.03889,-175.60782)"
   cx="377.52249"
   cy="339.91211"
   r="7.1188002" />
<linearGradient
   inkscape:collect="always"
   xlink:href="#linearGradient4610"
   id="linearGradient4616"
   x1="23.214285"
   y1="32.785713"
   x2="23"
   y2="0.21428569"
   gradientUnits="userSpaceOnUse"
   gradientTransform="matrix(1,0,0,0.94529541,0,0.00781494)" />
</defs>
  <sodipodi:namedview
     id="base"
     pagecolor="#ffffff"
     bordercolor="#666666"
     borderopacity="1.0"
     inkscape:pageopacity="0.0"
     inkscape:pageshadow="2"
     inkscape:zoom="14"
     inkscape:cx="12.642857"
     inkscape:cy="17.071429"
     inkscape:current-layer="layer1"
     showgrid="true"
     inkscape:grid-bbox="true"
     inkscape:document-units="px"
     inkscape:window-width="2560"
     inkscape:window-height="1496"
     inkscape:window-x="-8"
     inkscape:window-y="-8"
     inkscape:window-maximized="1" />
  <metadata
     id="metadata3844">
    <rdf:RDF>
      <cc:Work
         rdf:about="">
        <dc:format>image/svg+xml</dc:format>
        <dc:type
           rdf:resource="http://purl.org/dc/dcmitype/StillImage" />
        <dc:title></dc:title>
      </cc:Work>
    </rdf:RDF>
  </metadata>
  <g
     id="layer1"
     inkscape:label="Layer 1"
     inkscape:groupmode="layer">
    <rect
       style="color:#000000;fill:url(#linearGradient4616);fill-opacity:1;fill-rule:nonzero;stroke:none;stroke-width:0.5;marker:none;visibility:visible;display:inline;overflow:visible;enable-background:accumulate"
       id="rect4608"
       width="47.714287"
       height="30.857141"
       x="0.14285715"
       y="0.14285712" />
    <path
       sodipodi:type="arc"
       style="color:#000000;fill:#ffffff;fill-opacity:0.62886598;fill-rule:nonzero;stroke:none;stroke-width:0.5;marker:none;visibility:visible;display:inline;overflow:visible;enable-background:accumulate"
       id="path4618"
       sodipodi:cx="6.0357141"
       sodipodi:cy="25.75"
       sodipodi:rx="8.8214283"
       sodipodi:ry="8.8214283"
       d="m 14.857142,25.75 a 8.8214283,8.8214283 0 1 1 -17.6428561,0 8.8214283,8.8214283 0 1 1 17.6428561,0 z" />
    <path
       d="m 14.857142,25.75 a 8.8214283,8.8214283 0 1 1 -17.6428561,0 8.8214283,8.8214283 0 1 1 17.6428561,0 z"
       sodipodi:ry="8.8214283"
       sodipodi:rx="8.8214283"
       sodipodi:cy="25.75"
       sodipodi:cx="6.0357141"
       id="path4620"
       style="color:#000000;fill:#ffffff;fill-opacity:0.62886598;fill-rule:nonzero;stroke:none;stroke-width:0.5;marker:none;visibility:visible;display:inline;overflow:visible;enable-background:accumulate"
       sodipodi:type="arc"
       transform="translate(7.2857143,-4.7142857)" />
    <path
       transform="translate(15.285714,0.50000002)"
       sodipodi:type="arc"
       style="color:#000000;fill:#ffffff;fill-opacity:0.62886598;fill-rule:nonzero;stroke:none;stroke-width:0.5;marker:none;visibility:visible;display:inline;overflow:visible;enable-background:accumulate"
       id="path4622"
       sodipodi:cx="6.0357141"
       sodipodi:cy="25.75"
       sodipodi:rx="8.8214283"
       sodipodi:ry="8.8214283"
       d="m 14.857142,25.75 a 8.8214283,8.8214283 0 1 1 -17.6428561,0 8.8214283,8.8214283 0 1 1 17.6428561,0 z" />
    <path
       d="m 14.857142,25.75 a 8.8214283,8.8214283 0 1 1 -17.6428561,0 8.8214283,8.8214283 0 1 1 17.6428561,0 z"
       sodipodi:ry="8.8214283"
       sodipodi:rx="8.8214283"
       sodipodi:cy="25.75"
       sodipodi:cx="6.0357141"
       id="path4624"
       style="color:#000000;fill:#ffffff;fill-opacity:0.62886598;fill-rule:nonzero;stroke:none;stroke-width:0.5;marker:none;visibility:visible;display:inline;overflow:visible;enable-background:accumulate"
       sodipodi:type="arc"
       transform="translate(22.285714,-3.2142857)" />
    <path
       transform="translate(26.5,1.9285714)"
       sodipodi:type="arc"
       style="color:#000000;fill:#ffffff;fill-opacity:0.62886598;fill-rule:nonzero;stroke:none;stroke-width:0.5;marker:none;visibility:visible;display:inline;overflow:visible;enable-background:accumulate"
       id="path4626"
       sodipodi:cx="6.0357141"
       sodipodi:cy="25.75"
       sodipodi:rx="8.8214283"
       sodipodi:ry="8.8214283"
       d="m 14.857142,25.75 a 8.8214283,8.8214283 0 1 1 -17.6428561,0 8.8214283,8.8214283 0 1 1 17.6428561,0 z" />
    <path
       d="m 14.857142,25.75 a 8.8214283,8.8214283 0 1 1 -17.6428561,0 8.8214283,8.8214283 0 1 1 17.6428561,0 z"
       sodipodi:ry="8.8214283"
       sodipodi:rx="8.8214283"
       sodipodi:cy="25.75"
       sodipodi:cx="6.0357141"
       id="path4628"
       style="color:#000000;fill:#ffffff;fill-opacity:0.62886598;fill-rule:nonzero;stroke:none;stroke-width:0.5;marker:none;visibility:visible;display:inline;overflow:visible;enable-background:accumulate"
       sodipodi:type="arc"
       transform="translate(33,-0.78571432)" />
    <path
       transform="translate(38.928571,2.5714285)"
       sodipodi:type="arc"
       style="color:#000000;fill:#ffffff;fill-opacity:0.62886598;fill-rule:nonzero;stroke:none;stroke-width:0.5;marker:none;visibility:visible;display:inline;overflow:visible;enable-background:accumulate"
       id="path4630"
       sodipodi:cx="6.0357141"
       sodipodi:cy="25.75"
       sodipodi:rx="8.8214283"
       sodipodi:ry="8.8214283"
       d="m 14.857142,25.75 a 8.8214283,8.8214283 0 1 1 -17.6428561,0 8.8214283,8.8214283 0 1 1 17.6428561,0 z" />
    <path
       d="m 14.857142,25.75 a 8.8214283,8.8214283 0 1 1 -17.6428561,0 8.8214283,8.8214283 0 1 1 17.6428561,0 z"
       sodipodi:ry="8.8214283"
       sodipodi:rx="8.8214283"
       sodipodi:cy="25.75"
       sodipodi:cx="6.0357141"
       id="path4632"
       style="color:#000000;fill:#ffffff;fill-opacity:0.62886598;fill-rule:nonzero;stroke:none;stroke-width:0.5;marker:none;visibility:visible;display:inline;overflow:visible;enable-background:accumulate"
       sodipodi:type="arc"
       transform="matrix(0.61133602,0,0,0.61133602,31.488722,4.7223831)" />
    <path
       transform="matrix(0.61133602,0,0,0.61133602,1.488722,2.579526)"
       sodipodi:type="arc"
       style="color:#000000;fill:#ffffff;fill-opacity:0.62886598;fill-rule:nonzero;stroke:none;stroke-width:0.5;marker:none;visibility:visible;display:inline;overflow:visible;enable-background:accumulate"
       id="path4634"
       sodipodi:cx="6.0357141"
       sodipodi:cy="25.75"
       sodipodi:rx="8.8214283"
       sodipodi:ry="8.8214283"
       d="m 14.857142,25.75 a 8.8214283,8.8214283 0 1 1 -17.6428561,0 8.8214283,8.8214283 0 1 1 17.6428561,0 z" />
    <path
       d="m 14.857142,25.75 a 8.8214283,8.8214283 0 1 1 -17.6428561,0 8.8214283,8.8214283 0 1 1 17.6428561,0 z"
       sodipodi:ry="8.8214283"
       sodipodi:rx="8.8214283"
       sodipodi:cy="25.75"
       sodipodi:cx="6.0357141"
       id="path4636"
       style="color:#000000;fill:#ffffff;fill-opacity:0.62886598;fill-rule:nonzero;stroke:none;stroke-width:0.5;marker:none;visibility:visible;display:inline;overflow:visible;enable-background:accumulate"
       sodipodi:type="arc"
       transform="matrix(0.61133602,0,0,0.61133602,1.488722,2.579526)" />
    <path
       transform="matrix(0.61133602,0,0,0.61133602,44.203008,4.3652403)"
       sodipodi:type="arc"
       style="color:#000000;fill:#ffffff;fill-opacity:0.62886598;fill-rule:nonzero;stroke:none;stroke-width:0.5;marker:none;visibility:visible;display:inline;overflow:visible;enable-background:accumulate"
       id="path4638"
       sodipodi:cx="6.0357141"
       sodipodi:cy="25.75"
       sodipodi:rx="8.8214283"
       sodipodi:ry="8.8214283"
       d="m 14.857142,25.75 a 8.8214283,8.8214283 0 1 1 -17.6428561,0 8.8214283,8.8214283 0 1 1 17.6428561,0 z" />
    <path
       d="m 14.857142,25.75 a 8.8214283,8.8214283 0 1 1 -17.6428561,0 8.8214283,8.8214283 0 1 1 17.6428561,0 z"
       sodipodi:ry="8.8214283"
       sodipodi:rx="8.8214283"
       sodipodi:cy="25.75"
       sodipodi:cx="6.0357141"
       id="path4640"
       style="color:#000000;fill:#ffffff;fill-opacity:0.62886598;fill-rule:nonzero;stroke:none;stroke-width:0.5;marker:none;visibility:visible;display:inline;overflow:visible;enable-background:accumulate"
       sodipodi:type="arc"
       transform="matrix(0.61133602,0,0,0.61133602,37.631579,3.8652403)" />
    <path
       transform="matrix(0.3279352,0,0,0.3279352,0.77067641,5.5199539)"
       sodipodi:type="arc"
       style="color:#000000;fill:#ffffff;fill-opacity:0.62886598;fill-rule:nonzero;stroke:none;stroke-width:0.5;marker:none;visibility:visible;display:inline;overflow:visible;enable-background:accumulate"
       id="path4642"
       sodipodi:cx="6.0357141"
       sodipodi:cy="25.75"
       sodipodi:rx="8.8214283"
       sodipodi:ry="8.8214283"
       d="m 14.857142,25.75 a 8.8214283,8.8214283 0 1 1 -17.6428561,0 8.8214283,8.8214283 0 1 1 17.6428561,0 z" />
    <path
       d="m 14.857142,25.75 a 8.8214283,8.8214283 0 1 1 -17.6428561,0 8.8214283,8.8214283 0 1 1 17.6428561,0 z"
       sodipodi:ry="8.8214283"
       sodipodi:rx="8.8214283"
       sodipodi:cy="25.75"
       sodipodi:cx="6.0357141"
       id="path4644"
       style="color:#000000;fill:#ffffff;fill-opacity:0.62886598;fill-rule:nonzero;stroke:none;stroke-width:0.5;marker:none;visibility:visible;display:inline;overflow:visible;enable-background:accumulate"
       sodipodi:type="arc"
       transform="matrix(0.3279352,0,0,0.3279352,6.4135336,5.662811)" />
    <path
       transform="matrix(0.3279352,0,0,0.3279352,42.842105,7.2342396)"
       sodipodi:type="arc"
       style="color:#000000;fill:#ffffff;fill-opacity:0.62886598;fill-rule:nonzero;stroke:none;stroke-width:0.5;marker:none;visibility:visible;display:inline;overflow:visible;enable-background:accumulate"
       id="path4646"
       sodipodi:cx="6.0357141"
       sodipodi:cy="25.75"
       sodipodi:rx="8.8214283"
       sodipodi:ry="8.8214283"
       d="m 14.857142,25.75 a 8.8214283,8.8214283 0 1 1 -17.6428561,0 8.8214283,8.8214283 0 1 1 17.6428561,0 z" />
    <g
       id="g4565"
       transform="matrix(1.0353543,0,0,0.9270454,0.0014276,3.5056246)">
      <path
         style="fill:none;stroke:#005b6e;stroke-width:1.19739413;stroke-linecap:round;stroke-linejoin:round"
         id="path36687"
         d="m 0.86621274,47.441957 -0.00899,-0.423079 C 0.84226474,46.332373 0.504001,31.601431 0.5658663,30.166553 0.62673384,28.781569 6.9679334,13.960822 10.216862,10.218966 c 2.390797,-2.7540066 6.267361,-4.2407708 8.71204,-4.5999889 0.336269,-0.048894 0.72642,-0.015965 0.825206,-0.058872 0.0908,-0.0459 0.232493,-0.1267242 0.420084,-0.2334918 1.296181,-0.7344017 4.553091,-2.6821628 7.988614,-2.6821628 l 0.145684,0.002 c 3.715913,0.05987 5.048013,1.3061573 6.872044,2.291014 l 0.38117,0.2055527 c 1.353057,0.7224277 4.110056,3.5412926 3.930446,4.4503147 L 39.350459,9.857753 c 0,0 -0.315314,0.1377004 -0.317309,0.1377004 -0.471974,0 -1.055702,-0.3372663 -1.971709,-0.8860724 -0.337266,-0.2025589 -0.793274,-0.4759636 -1.109585,-0.6306275 0.04291,0.1516702 0.121734,0.3701947 0.262428,0.6795213 0.06486,0.1426901 0.145684,0.3213009 0.01696,0.5238604 l -0.127723,0.1975696 -0.466984,0 -0.178612,-0.2604328 c -0.133701,-0.1756183 -0.811226,-0.62065 -1.322114,-0.8840765 0.260432,0.6166574 0.717438,1.5635975 0.982861,2.0625115 0.0449,0.05887 0.07784,0.11475 0.100779,0.170628 l 0.08381,0.210543 -0.118742,0.213534 -0.115749,0.131714 c 0,0 -0.241474,0.05987 -0.243469,0.05987 -0.235488,0 -0.346247,-0.16065 -0.423081,-0.300346 -0.170628,-0.187593 -0.559782,-0.47796 -0.932968,-0.723426 0.179608,0.346247 0.268415,0.621647 0.122733,0.871104 l -0.12473,0.213536 -0.332276,0.03991 c -0.323296,0 -0.803251,-0.281388 -2.078476,-1.127546 -0.09679,-0.06287 -0.201562,-0.133709 -0.307331,-0.203558 0.01003,0.140695 -0.01496,0.274404 -0.09878,0.394143 l -0.128719,0.182602 -0.307332,0.03791 c -0.0928,0 -0.18859,-0.02095 -0.296353,-0.06386 -0.521865,-0.208546 -0.692495,-0.362211 -0.911018,-0.175618 0,0 0.955918,0.623643 0.498913,1.122557 -0.457004,0.498914 -1.288196,0.374186 -1.288196,0.374186 0,0 -0.344251,0.630628 -1.331103,2.203205 -2.452662,3.908493 -0.862124,7.826967 4.188884,8.980456 1.898866,0.434056 3.586195,0.935962 10.477198,1.18542 2.336913,0.08482 3.785762,-0.172625 3.804719,-0.173622 l 0.471974,-0.0449 0,16.485123 -5.67964,6.581676 -39.28350666,0 0,-9.98e-4 z"
         inkscape:connector-curvature="0" />
      <path
         style="fill:none;stroke:#bfdde6;stroke-width:0.99782842;stroke-linecap:round;stroke-linejoin:round"
         id="path36689"
         d="m 1.2872963,47.010896 38.6658517,0 5.446147,-6.310268 0,-15.710807 c 0,0 -6.006928,0.508891 -11.859191,-0.550803 -4.295651,-0.778305 -8.793862,-1.777132 -8.32588,-7.483712 0.08482,-1.029759 0.981863,-2.717087 1.839996,-4.022247 0.554791,-0.843164 0.997827,-1.289194 1.330105,-1.496743 0.343253,0.12473 0.453013,0.130716 0.540823,0.03094 l -0.343254,-0.59271 0.40512,-0.623642 c 0,0 0.46798,0.003 1.091623,0.25245 0.623643,0.249457 -0.187592,-0.9998238 0.06286,-0.9998238 0.250455,0 2.557435,1.7491938 2.993486,1.7491938 0.43605,0 -0.748373,-1.4368736 -0.498916,-1.5625999 0.249459,-0.1247289 2.058521,1.1245529 2.183249,1.4368729 0.124728,0.312321 -1.310148,-2.4985627 -1.310148,-2.9366092 0,-0.4380466 2.05852,0.8122326 2.307977,1.187416 0.249461,0.3741823 -0.498911,-0.8750988 -0.312317,-1.374013 0.187591,-0.4999124 2.868757,1.623467 3.492398,1.5616013 C 39.620866,9.5035271 37.230069,6.5230134 35.359141,5.5241872 33.488213,4.5243632 32.169084,3.1403752 28.302499,3.0785098 24.435914,3.0166448 20.694057,5.5730808 19.945686,5.9472666 19.197315,6.32245 14.768952,6.3134696 10.652909,10.562223 7.3361281,13.98677 1.0587895,28.749641 0.99592634,30.186514 0.93406134,31.623387 1.2872923,47.0109 1.2872923,47.0109 z"
         inkscape:connector-curvature="0" />
      <path
         style="fill:#0091b7"
         id="path36691"
         d="m 1.172546,46.932066 0,-16.767508 c 9.981e-4,0 4.8773852,-16.87228 12.494808,-21.7277133 3.515348,-2.2421207 7.588485,-2.9655464 11.985914,-0.3073316 0.629631,0.3811703 1.857956,1.5925346 2.865764,2.8028999 0.943945,1.136527 -4.94424,-4.7067564 -8.913601,2.488585 -4.538124,8.229091 3.506368,15.806599 7.672302,16.74356 4.380467,0.986852 12.561663,0.128721 12.561663,0.128721 l 0.04191,16.723603 -38.7087581,-0.08481 z"
         inkscape:connector-curvature="0" />
      <polygon
         transform="matrix(0.99782846,0,0,0.99782846,-359.11735,-325.73888)"
         style="fill:#00677d"
         id="polygon36693"
         points="405.429,351.646 399.826,356.808 399.868,373.567 399.868,373.567 405.429,366.744 " />
      <path
         style="fill:#6db7cb"
         id="path36695"
         d="m 26.944459,12.009069 c -0.08481,0.449024 -2.141341,-2.2650694 -2.918649,-2.1972174 0.492926,1.1435134 0.809238,3.2179964 0.650584,3.4075844 -0.158655,0.189588 -2.709105,-1.715268 -2.709105,-1.445852 0,0.269413 0.347245,1.748194 -0.03094,1.882901 -0.226508,0.08182 -0.73141,-0.939955 -1.210367,-1.8839 -0.384163,0.454012 -0.760345,0.995833 -1.12056,1.64941 -4.538125,8.22909 3.506368,15.8066 7.672302,16.743561 4.380467,0.986852 12.561662,0.128721 12.561662,0.128721 L 45.43022,25.144483 C 43.258948,25.27919 12.929954,26.802875 30.439848,8.7142411 29.810217,7.6375839 26.786797,9.6551933 26.786797,9.6551933 c 0,0 0.240477,1.9048537 0.157658,2.3538757 z"
         inkscape:connector-curvature="0" />
      <path
         style="fill:url(#linearGradient4588)"
         id="path36702"
         d="m 1.1835221,46.955018 0,-16.766512 c 0.002,0 4.8763874,-16.87228 12.4958059,-21.7277138 3.515349,-2.2421203 7.587487,-2.965546 11.984916,-0.307331 0.62963,0.3811704 1.857957,1.5915358 2.865763,2.8028998 0.944943,1.135529 -4.944239,-4.7077543 -8.912602,2.488584 -4.539123,8.229091 3.506368,15.805602 7.671303,16.744558 4.380468,0.985855 12.562661,0.12872 12.562661,0.12872 l 0.0409,16.722608 -38.7087585,-0.08581 z"
         inkscape:connector-curvature="0" />
      <path
         style="fill:url(#radialGradient4590)"
         id="path36709"
         d="m 1.1515915,46.933065 0,-16.766512 c 9.976e-4,0 4.8773854,-16.873278 12.4948075,-21.7287109 3.515349,-2.2421202 7.587487,-2.9655459 11.985915,-0.3073315 0.629629,0.3811709 1.856958,1.5925345 2.865763,2.8029004 0.943945,1.136526 -4.945238,-4.7067565 -8.913601,2.488584 -4.539122,8.22909 3.506369,15.8066 7.672303,16.744558 4.379467,0.985855 12.561661,0.127724 12.561661,0.127724 l 0.04191,16.723604 -38.7087577,-0.08482 z"
         inkscape:connector-curvature="0" />
      <path
         style="fill:url(#radialGradient4592)"
         id="path36716"
         d="m 26.860641,12.010068 c -0.08481,0.449023 -2.14134,-2.265071 -2.918649,-2.1972179 0.492928,1.1435109 0.80924,3.2179959 0.650585,3.4075839 -0.157657,0.190585 -2.708106,-1.714269 -2.708106,-1.445854 0,0.268417 0.346245,1.748196 -0.03194,1.882902 -0.226506,0.08083 -0.731408,-0.939954 -1.210365,-1.883898 -0.384165,0.45401 -0.760346,0.995831 -1.119564,1.648411 -4.539121,8.22909 3.505371,15.8066 7.671305,16.744558 4.380467,0.985855 12.56266,0.127724 12.56266,0.127724 l 5.58984,-5.149794 C 43.175131,25.27919 12.847136,26.802875 30.35603,8.7142411 29.7264,7.6375839 26.703978,9.6561907 26.703978,9.6561907 c 0,0 0.239479,1.9048553 0.15666,2.3538773 z"
         inkscape:connector-curvature="0" />
      <path
         style="fill:url(#radialGradient4594)"
         id="path36723"
         d="m 1.1705503,46.96699 0,-16.767508 c 0,0 4.8773854,-16.873279 12.4948087,-21.7277136 3.515348,-2.2411226 7.588484,-2.9655461 11.985914,-0.3073309 0.629629,0.3821679 1.857955,1.5925339 2.865763,2.8028995 0.943946,1.135529 -4.944241,-4.7067564 -8.913601,2.488584 -4.538124,8.229092 3.506369,15.8066 7.672301,16.74456 4.380468,0.985854 12.561663,0.128719 12.561663,0.128719 l 0.04191,16.722606 -38.7087568,-0.08481 z"
         inkscape:connector-curvature="0" />
      <path
         style="fill:#9ddcf9"
         id="path36725"
         d="m 20.993409,7.4360226 c 0,0 8.429656,-6.99777075 15.998184,-0.2025592 5.542936,4.9761706 -1.549629,0.3412573 -1.479779,0.706462 0.06286,0.3352709 0.409108,0.570758 0.471971,1.3450731 0.0439,0.540823 -0.88208,-0.9758765 -2.36186,-1.2442917 -0.633621,-0.1137527 1.260258,1.7481948 1.323123,2.7570002 0.06286,1.008804 -0.944945,-0.9080242 -2.141342,-1.1435124 -0.528849,-0.103774 0.126725,0.8072444 0.378178,1.4797794 0.25245,0.671539 -1.764161,-1.2103655 -2.330928,-1.4797794 C 30.285187,9.3847817 29.528834,9.4187073 30.158464,10.292806 30.789091,11.166904 29.340244,10.158099 28.268576,9.7879039 27.865453,9.6512014 20.993409,7.4360226 20.993409,7.4360226 z"
         inkscape:connector-curvature="0" />
      <path
         style="fill:#0091b7"
         id="path36727"
         d="m 20.047468,6.4272179 c 0,0 8.429655,-6.9967727 15.998183,-0.2015613 5.542938,4.9761704 -2.020602,-0.2634266 -1.95275,0.1007812 0.06286,0.3362682 0.409109,0.5717558 0.47297,1.345073 0.04291,0.5398248 -0.88208,-0.9748785 -2.361859,-1.2442922 -0.633621,-0.1147504 1.260257,1.7481957 1.32312,2.7569998 0.06286,1.0088046 -0.944943,-0.908024 -2.141339,-1.143511 -0.52885,-0.103774 0.125726,0.8072425 0.378177,1.4787818 C 32.015423,10.192025 29.999809,8.309122 29.433042,8.0407068 28.866275,7.7722909 28.11092,7.8052191 28.74055,8.6793167 29.371177,9.5534144 27.92233,8.5456079 26.850662,8.1754137 26.448537,8.0367149 20.047468,6.4272179 20.047468,6.4272179 z"
         inkscape:connector-curvature="0" />
      <path
         style="fill:url(#radialGradient4596)"
         id="path36734"
         d="m 20.04647,6.4272179 c 0,0 8.429654,-6.9967727 15.998184,-0.2015613 5.542935,4.9761704 -2.020603,-0.2634266 -1.952751,0.1007812 0.06286,0.3362682 0.409109,0.5717558 0.472971,1.345073 0.0439,0.5398248 -0.882081,-0.9748785 -2.36186,-1.2442922 -0.633622,-0.1147504 1.260256,1.7481957 1.323119,2.7569998 0.06286,1.0088046 -0.944942,-0.908024 -2.141339,-1.143511 -0.528848,-0.103774 0.125726,0.8072425 0.378178,1.4787818 C 32.014424,10.192025 29.998811,8.309122 29.432045,8.0407068 28.865277,7.7722909 28.109922,7.8052191 28.739551,8.6793167 29.369181,9.5534144 27.921332,8.5456079 26.849664,8.1754137 26.44754,8.0367149 20.04647,6.4272179 20.04647,6.4272179 z"
         inkscape:connector-curvature="0" />
      <path
         style="fill:#7cbdd0"
         id="path36736"
         d="m 22.620868,13.574663 c -3.162119,6.87404 4.10307,14.215064 13.59142,15.116103 -10.11798,-1.573576 -15.38352,-9.997244 -13.59142,-15.116103 z"
         inkscape:connector-curvature="0" />
      <path
         style="fill:#88c2d4"
         id="path36738"
         d="M 21.689893,18.247494 C 21.463386,25.903831 30.251261,29.942043 39.070069,29.274495 28.992001,29.00109 22.032148,23.697632 21.689893,18.247494 z"
         inkscape:connector-curvature="0" />
      <path
         style="fill:url(#linearGradient4598);fill-opacity:1"
         id="path36740"
         d="m 18.053806,14.125463 c -6.397077,4.562073 -0.185595,15.70183 7.036686,21.261729 C 17.394241,28.913281 13.812039,17.846366 18.053806,14.125463 z"
         inkscape:connector-curvature="0" />
      <path
         style="fill:url(#linearGradient4600);fill-opacity:1"
         id="path36742"
         d="M 14.159283,17.890271 C 10.092135,24.864094 22.191801,36.04975 26.771833,37.535517 20.163216,34.328496 11.731566,23.14683 14.159283,17.890271 z"
         inkscape:connector-curvature="0" />
      <path
         style="fill:url(#linearGradient4602);fill-opacity:1"
         id="path36744"
         d="m 17.732506,12.438136 c -7.691261,0.186594 -5.838295,12.583615 -2.532488,21.4124 -3.242941,-9.872514 -2.917651,-20.701945 2.532488,-21.4124 z"
         inkscape:connector-curvature="0" />
      <path
         style="fill:url(#linearGradient4604);fill-opacity:1"
         id="path36746"
         d="M 12.552779,13.384077 C 5.6168737,16.943331 12.41907,32.748933 15.538281,36.624499 11.572911,30.133625 7.8639835,16.432443 12.552779,13.384077 z"
         inkscape:connector-curvature="0" />
      <path
         style="fill:#9ddcf9"
         id="path36748"
         d="m 13.668351,8.4378421 c 2.183248,-0.2704115 4.459295,3.7498399 4.741682,3.3916189 0.284381,-0.358221 0.157657,-2.4097561 0.157657,-2.4097561 0,0 0.315313,-0.1017769 1.323118,0.9080241 0.50091,0.501909 1.66837,3.462466 2.046547,3.328756 0.378177,-0.134707 0.03094,-1.613488 0.03094,-1.882901 0,-0.269416 2.551448,1.63544 2.709104,1.445852 0.157657,-0.189588 -0.157656,-2.265071 -0.650584,-3.4075844 0.77631,-0.066854 2.833834,2.6462414 2.918648,2.1972174 0.08282,-0.449022 -0.09479,-1.614485 -0.09479,-1.614485 0,0 2.115397,1.335094 1.983684,1.008804 C 28.700636,11.076101 27.423416,9.2031772 25.653268,8.1305106 21.258831,5.4683048 17.184698,6.1957219 13.668351,8.4378421 z"
         inkscape:connector-curvature="0" />
      <path
         style="fill:#0091b7"
         id="path36750"
         d="m 14.93659,7.8680823 c 1.712274,-0.2105414 2.274052,0.7134468 2.778954,0.7793038 0.504901,0.065857 -0.09979,-0.7383925 -0.09979,-0.7383925 0,0 0.56078,-0.3691966 1.35106,0.4210829 0.394142,0.3941429 1.11657,1.9577395 1.713272,2.1443335 0.5967,0.18859 -0.561777,-1.7930977 -0.561777,-2.0026416 0,-0.2125377 2.923636,2.5494516 3.426541,2.7061106 0.502905,0.156659 -0.773317,-2.2670658 -1.161471,-3.1651117 0.609672,-0.051888 2.374832,2.0046367 2.773962,2.0744857 0.401127,0.07085 -0.560779,-1.6154846 -0.560779,-1.6154846 0,0 2.135353,1.308153 2.53648,1.2492811 0.399135,-0.058872 -1.416913,-1.412925 -2.799903,-2.0944418 -3.595176,-1.7741388 -6.638552,-1.5157013 -9.396551,0.2414746 z"
         inkscape:connector-curvature="0" />
      <path
         style="fill:url(#radialGradient4606)"
         id="path36757"
         d="m 14.93659,7.8680823 c 1.712274,-0.2105414 2.274052,0.7134468 2.778954,0.7793038 0.504901,0.065857 -0.09979,-0.7383925 -0.09979,-0.7383925 0,0 0.56078,-0.3691966 1.35106,0.4210829 0.394142,0.3941429 1.11657,1.9577395 1.713272,2.1443335 0.5967,0.18859 -0.561777,-1.7930977 -0.561777,-2.0026416 0,-0.2125377 2.923636,2.5494516 3.426541,2.7061106 0.502905,0.156659 -0.773317,-2.2670658 -1.161471,-3.1651117 0.609672,-0.051888 2.374832,2.0046367 2.773962,2.0744857 0.401127,0.07085 -0.560779,-1.6154846 -0.560779,-1.6154846 0,0 2.135353,1.308153 2.53648,1.2492811 0.399135,-0.058872 -1.416913,-1.412925 -2.799903,-2.0944418 -3.595176,-1.7741388 -6.638552,-1.5157013 -9.396551,0.2414746 z"
         inkscape:connector-curvature="0" />
    </g>
    <path
       d="m 14.857142,25.75 a 8.8214283,8.8214283 0 1 1 -17.6428561,0 8.8214283,8.8214283 0 1 1 17.6428561,0 z"
       sodipodi:ry="8.8214283"
       sodipodi:rx="8.8214283"
       sodipodi:cy="25.75"
       sodipodi:cx="6.0357141"
       id="path4648"
       style="color:#000000;fill:#ffffff;fill-opacity:0.62886598;fill-rule:nonzero;stroke:none;stroke-width:0.5;marker:none;visibility:visible;display:inline;overflow:visible;enable-background:accumulate"
       sodipodi:type="arc"
       transform="matrix(0.3279352,0,0,0.3279352,42.842105,7.2342396)" />
    <path
       style="color:#000000;fill:#ffffff;fill-opacity:0.62886598;fill-rule:nonzero;stroke:none;stroke-width:0.5;marker:none;visibility:visible;display:inline;overflow:visible;enable-background:accumulate"
       d="m 33.063518,1.8705357 c -1.104673,0 -2.079917,0.555913 -2.721084,1.4375 -0.226429,-0.141943 -0.48621,-0.25 -0.765304,-0.25 -0.580757,0 -1.0652,0.386143 -1.332197,0.90625 -0.07631,-0.00548 -0.149194,-0.03125 -0.226757,-0.03125 -0.587907,0 -1.129292,0.186279 -1.615643,0.46875 -0.623822,-1.058052 -1.689584,-1.75 -2.919496,-1.75 -0.429143,0 -0.838922,0.062877 -1.218818,0.21875 -0.275736,-0.274665 -0.647875,-0.4375 -1.048751,-0.4375 -0.444403,0 -0.850416,0.201686 -1.133785,0.53125 -0.491699,-0.29062 -1.047055,-0.46875 -1.643988,-0.46875 -1.135902,0 -2.138659,0.606507 -2.777772,1.53125 -0.20165,-0.105366 -0.413948,-0.15625 -0.651926,-0.15625 -0.696257,0 -1.275807,0.491955 -1.47392,1.1875 -0.134103,-0.041563 -0.279017,-0.0625 -0.42517,-0.0625 -0.443624,0 -0.822156,0.202698 -1.10544,0.53125 -0.129817,-0.064505 -0.273534,-0.09375 -0.425169,-0.09375 -0.5725,0 -1.048751,0.493817 -1.048751,1.125 0,0.084967 0.04074,0.170321 0.05669,0.25 -0.03994,-0.00515 -0.07219,-0.03125 -0.113378,-0.03125 -0.5725001,0 -1.0487508,0.525067 -1.0487508,1.15625 0,0.620847 0.4608669,1.10862 1.0204058,1.125 0.252198,0.54967 0.766222,0.925526 1.360542,0.9375 0.258771,0.5503923 0.787761,0.9375003 1.388886,0.9375003 0.01936,0 0.0375,7.73e-4 0.05669,0 0.614245,1.110194 1.710355,1.84375 2.976185,1.84375 0.429143,0 0.838922,-0.06288 1.218819,-0.21875 0.229774,0.630331 0.791665,1.09375 1.445575,1.09375 0.399319,0 0.773393,-0.164735 1.048751,-0.4375 0.151447,0.424217 0.525167,0.71875 0.963717,0.71875 0.572501,0 1.020406,-0.525067 1.020406,-1.15625 0,-0.112381 -0.02927,-0.209909 -0.05669,-0.3125 0.08451,-0.02685 0.173352,-0.02896 0.255102,-0.0625 0.611162,1.12499 1.700236,1.875 2.976184,1.875 1.12711,0 2.137933,-0.587468 2.777773,-1.5 0.455116,0.238886 0.964638,0.375 1.502265,0.375 0.937058,0 1.78126,-0.401143 2.409292,-1.0625 0.626452,0.651481 1.451809,1.0625 2.380948,1.0625 1.17959,0 2.229071,-0.670159 2.862806,-1.65625 0.290061,0.08587 0.592379,0.15625 0.907028,0.15625 1.157746,0 2.169324,-0.63847 2.806117,-1.59375 0.138661,0.04469 0.273407,0.09375 0.425169,0.09375 0.5496,0 1.055664,-0.3067103 1.332197,-0.7812503 0.26006,0.215752 0.584843,0.34375 0.935372,0.34375 0.53672,0 1.024425,-0.293997 1.303853,-0.75 0.169976,0.134403 0.341761,0.25 0.566892,0.25 0.572501,0 1.048751,-0.525067 1.048751,-1.15625 0,-0.631183 -0.47625,-1.125 -1.048751,-1.125 -0.195733,0 -0.354026,0.083553 -0.510203,0.1875 -0.270352,-0.505834 -0.789472,-0.84375 -1.360542,-0.84375 -0.06862,0 -0.132132,0.021746 -0.198412,0.03125 -0.266057,-0.523871 -0.777239,-0.875 -1.360541,-0.875 -0.369098,0 -0.697059,0.138135 -0.963717,0.375 -0.611615,-1.12287 -1.701684,-1.875 -2.976185,-1.875 -0.574156,0 -1.10925,0.167258 -1.587299,0.4375 -0.495177,-1.466949 -1.784931,-2.5 -3.287975,-2.5 z"
       id="path4672"
       inkscape:connector-curvature="0" />
    <path
       inkscape:connector-curvature="0"
       id="path4723"
       d="m 24.574877,30.205358 c 1.104673,0 2.079917,-0.555913 2.721084,-1.4375 0.226429,0.141943 0.48621,0.25 0.765304,0.25 0.580757,0 1.0652,-0.386143 1.332197,-0.90625 0.07631,0.0055 0.149194,0.03125 0.226757,0.03125 0.587907,0 1.129292,-0.186279 1.615643,-0.46875 0.623822,1.058052 1.689584,1.75 2.919496,1.75 0.429143,0 0.838922,-0.06288 1.218818,-0.21875 0.275736,0.274665 0.647875,0.4375 1.048751,0.4375 0.444403,0 0.850416,-0.201686 1.133785,-0.53125 0.491699,0.29062 1.047055,0.46875 1.643988,0.46875 1.135902,0 2.138659,-0.606507 2.777772,-1.53125 0.20165,0.105366 0.413948,0.15625 0.651926,0.15625 0.696257,0 1.275807,-0.491955 1.47392,-1.1875 0.134103,0.04156 0.279017,0.0625 0.42517,0.0625 0.443624,0 0.822156,-0.202698 1.10544,-0.53125 0.129817,0.0645 0.273534,0.09375 0.425169,0.09375 0.5725,0 1.048751,-0.493817 1.048751,-1.125 0,-0.08497 -0.04074,-0.170321 -0.05669,-0.25 0.03994,0.0052 0.07219,0.03125 0.113378,0.03125 0.5725,0 1.048751,-0.525067 1.048751,-1.15625 0,-0.620847 -0.460867,-1.10862 -1.020406,-1.125 -0.252198,-0.54967 -0.766222,-0.925526 -1.360542,-0.9375 -0.258771,-0.550393 -0.787761,-0.937501 -1.388886,-0.937501 -0.01936,0 -0.0375,-7.73e-4 -0.05669,0 -0.614245,-1.110194 -1.710355,-1.84375 -2.976185,-1.84375 -0.429143,0 -0.838922,0.06288 -1.218819,0.21875 -0.229774,-0.630331 -0.791665,-1.09375 -1.445575,-1.09375 -0.399319,0 -0.773393,0.164735 -1.048751,0.4375 -0.151447,-0.424217 -0.525167,-0.71875 -0.963717,-0.71875 -0.572501,0 -1.020406,0.525067 -1.020406,1.15625 0,0.112381 0.02927,0.209909 0.05669,0.3125 -0.08451,0.02685 -0.173352,0.02896 -0.255102,0.0625 -0.611162,-1.12499 -1.700236,-1.875 -2.976184,-1.875 -1.12711,0 -2.137933,0.587468 -2.777773,1.5 -0.455116,-0.238886 -0.964638,-0.375 -1.502265,-0.375 -0.937058,0 -1.78126,0.401143 -2.409292,1.0625 -0.626452,-0.651481 -1.451809,-1.0625 -2.380948,-1.0625 -1.17959,0 -2.229071,0.670159 -2.862806,1.65625 -0.290061,-0.08587 -0.592379,-0.15625 -0.907028,-0.15625 -1.157746,0 -2.169324,0.63847 -2.806117,1.59375 -0.138661,-0.04469 -0.273407,-0.09375 -0.425169,-0.09375 -0.5496,0 -1.055664,0.306711 -1.332197,0.781251 -0.26006,-0.215752 -0.584843,-0.34375 -0.935372,-0.34375 -0.53672,0 -1.024425,0.293997 -1.303853,0.75 -0.169976,-0.134403 -0.341761,-0.25 -0.566892,-0.25 -0.572501,0 -1.048751,0.525067 -1.048751,1.15625 0,0.631183 0.47625,1.125 1.048751,1.125 0.195733,0 0.354026,-0.08355 0.510203,-0.1875 0.270352,0.505834 0.789472,0.84375 1.360542,0.84375 0.06862,0 0.132132,-0.02175 0.198412,-0.03125 0.266057,0.523871 0.777239,0.875 1.360541,0.875 0.369098,0 0.697059,-0.138135 0.963717,-0.375 0.611615,1.12287 1.701684,1.875 2.976185,1.875 0.574156,0 1.10925,-0.167258 1.587299,-0.4375 0.495177,1.466949 1.784931,2.5 3.287975,2.5 z"
       style="color:#000000;fill:#ffffff;fill-opacity:0.62886598;fill-rule:nonzero;stroke:none;stroke-width:0.5;marker:none;visibility:visible;display:inline;overflow:visible;enable-background:accumulate" />
  </g>
</svg>
