<?xml version="1.0" encoding="UTF-8" standalone="no"?>
<svg
   xmlns:dc="http://purl.org/dc/elements/1.1/"
   xmlns:cc="http://creativecommons.org/ns#"
   xmlns:rdf="http://www.w3.org/1999/02/22-rdf-syntax-ns#"
   xmlns:svg="http://www.w3.org/2000/svg"
   xmlns="http://www.w3.org/2000/svg"
   xmlns:xlink="http://www.w3.org/1999/xlink"
   xmlns:sodipodi="http://sodipodi.sourceforge.net/DTD/sodipodi-0.dtd"
   xmlns:inkscape="http://www.inkscape.org/namespaces/inkscape"
   viewBox="0 0 48 48"
   version="1.1"
   id="svg2002"
   sodipodi:docname="foot_placement.svg"
   inkscape:version="1.0.1 (3bc2e813f5, 2020-09-07)">
  <metadata
     id="metadata2006">
    <rdf:RDF>
      <cc:Work
         rdf:about="">
        <dc:format>image/svg+xml</dc:format>
        <dc:type
           rdf:resource="http://purl.org/dc/dcmitype/StillImage" />
        <dc:title>10-Foot Placement</dc:title>
      </cc:Work>
    </rdf:RDF>
  </metadata>
  <sodipodi:namedview
     pagecolor="#ffffff"
     bordercolor="#666666"
     borderopacity="1"
     objecttolerance="10"
     gridtolerance="10"
     guidetolerance="10"
     inkscape:pageopacity="0"
     inkscape:pageshadow="2"
     inkscape:window-width="2560"
     inkscape:window-height="1377"
     id="namedview2004"
     showgrid="false"
     inkscape:zoom="15.3125"
     inkscape:cx="24"
     inkscape:cy="24"
     inkscape:window-x="-8"
     inkscape:window-y="-8"
     inkscape:window-maximized="1"
     inkscape:current-layer="svg2002" />
  <defs
     id="defs1672">
    <style
       id="style1566">.cls-1,.cls-43,.cls-44,.cls-45,.cls-49,.cls-5,.cls-6,.cls-8,.cls-97{fill:none;}.cls-2{fill:url(#radial-gradient);}.cls-3{fill:url(#linear-gradient);}.cls-4{fill:url(#linear-gradient-2);}.cls-43,.cls-44,.cls-45,.cls-49,.cls-5,.cls-6{stroke-linecap:round;stroke-linejoin:round;}.cls-43,.cls-44,.cls-45,.cls-49,.cls-5,.cls-6,.cls-68,.cls-8{stroke-width:0.35px;}.cls-5{stroke:url(#linear-gradient-3);}.cls-6{stroke:url(#linear-gradient-4);}.cls-7{fill:#fbc8c8;}.cls-8{stroke:#ef2929;}.cls-68,.cls-8,.cls-97{stroke-miterlimit:10;}.cls-9{fill:#ef2929;}.cls-10{opacity:0.8;}.cls-11{fill:#ce5c00;}.cls-12{fill:#d06003;}.cls-13{fill:#d26406;}.cls-14{fill:#d56809;}.cls-15{fill:#d76c0c;}.cls-16{fill:#d9700f;}.cls-17{fill:#db7412;}.cls-18{fill:#dd7815;}.cls-19{fill:#e07c18;}.cls-20{fill:#e2801b;}.cls-21{fill:#e4841e;}.cls-22{fill:#e68720;}.cls-23{fill:#e88b23;}.cls-24{fill:#ea8f26;}.cls-25{fill:#ed9329;}.cls-26{fill:#ef972c;}.cls-27{fill:#f19b2f;}.cls-28{fill:#f39f32;}.cls-29{fill:#f5a335;}.cls-30{fill:#f8a738;}.cls-31{fill:#faab3b;}.cls-32{fill:#fcaf3e;}.cls-33{fill:url(#linear-gradient-5);}.cls-34{fill:url(#linear-gradient-6);}.cls-35{fill:url(#linear-gradient-7);}.cls-36{fill:url(#linear-gradient-8);}.cls-37{fill:#204a87;}.cls-38{fill:url(#linear-gradient-9);}.cls-39{fill:url(#linear-gradient-10);}.cls-40{fill:url(#linear-gradient-11);}.cls-41{fill:url(#linear-gradient-12);}.cls-42{fill:url(#linear-gradient-13);}.cls-43{stroke:#d0dfef;}.cls-44{stroke:url(#linear-gradient-14);}.cls-45{stroke:url(#linear-gradient-15);}.cls-46{fill:#00306b;}.cls-47{fill:url(#linear-gradient-16);}.cls-48{fill:url(#linear-gradient-17);}.cls-49{stroke:#729fcf;}.cls-50{fill:url(#linear-gradient-18);}.cls-51{fill:url(#linear-gradient-19);}.cls-52{fill:url(#linear-gradient-20);}.cls-53{fill:url(#linear-gradient-21);}.cls-54{fill:url(#linear-gradient-22);}.cls-55{fill:url(#linear-gradient-23);}.cls-56{fill:url(#linear-gradient-24);}.cls-57{fill:url(#linear-gradient-25);}.cls-58{fill:url(#linear-gradient-26);}.cls-59{fill:url(#linear-gradient-27);}.cls-60{fill:url(#linear-gradient-28);}.cls-61{fill:url(#linear-gradient-29);}.cls-62{fill:url(#linear-gradient-30);}.cls-63{fill:url(#linear-gradient-31);}.cls-64{fill:url(#linear-gradient-32);}.cls-65{fill:url(#linear-gradient-33);}.cls-66{fill:#616260;}.cls-67{fill:url(#linear-gradient-34);}.cls-68{fill:#f57900;stroke:#ce5c00;}.cls-69{fill:#cf5f02;}.cls-70{fill:#d16104;}.cls-71{fill:#d46708;}.cls-72{fill:#d5690a;}.cls-73{fill:#d86f0e;}.cls-74{fill:#da7110;}.cls-75{fill:#dd7714;}.cls-76{fill:#de7916;}.cls-77{fill:#e17f1a;}.cls-78{fill:#e3811c;}.cls-79{fill:#e78a22;}.cls-80{fill:#e98c24;}.cls-81{fill:#ec9228;}.cls-82{fill:#ed942a;}.cls-83{fill:#f09a2e;}.cls-84{fill:#f29c30;}.cls-85{fill:#f5a234;}.cls-86{fill:#f6a436;}.cls-87{fill:#f9aa3a;}.cls-88{fill:#fbac3c;}.cls-89{fill:url(#linear-gradient-35);}.cls-90{fill:url(#linear-gradient-36);}.cls-91{fill:url(#linear-gradient-37);}.cls-92{fill:url(#linear-gradient-38);}.cls-93{fill:url(#linear-gradient-39);}.cls-94{fill:url(#New_Gradient_Swatch_2);}.cls-95{fill:url(#linear-gradient-40);}.cls-96{clip-path:url(#clip-path);}.cls-97{stroke:#204a87;stroke-width:0.27px;}.cls-98{fill:url(#linear-gradient-41);}.cls-99{fill:url(#linear-gradient-42);}.cls-100{fill:url(#New_Gradient_Swatch_2-2);}.cls-101{fill:url(#linear-gradient-43);}.cls-102{fill:url(#linear-gradient-44);}</style>
    <radialGradient
       id="radial-gradient"
       cx="-67.75"
       cy="129.91"
       r="16.35"
       gradientTransform="matrix(1.19,0,0,0.46,104.27,-19.55)"
       gradientUnits="userSpaceOnUse">
      <stop
         offset="0.03"
         stop-color="#2c2c2c"
         stop-opacity="0.5"
         id="stop1568" />
      <stop
         offset="0.68"
         stop-color="#2c2c2c"
         stop-opacity="0.1"
         id="stop1570" />
      <stop
         offset="0.93"
         stop-color="#2c2c2c"
         stop-opacity="0"
         id="stop1572" />
    </radialGradient>
    <linearGradient
       id="linear-gradient"
       x1="16.26"
       y1="18.97"
       x2="24.17"
       y2="17.08"
       gradientUnits="userSpaceOnUse">
      <stop
         offset="0"
         stop-color="#c8daec"
         id="stop1575" />
      <stop
         offset="1"
         stop-color="#3465a4"
         id="stop1577" />
    </linearGradient>
    <linearGradient
       id="linear-gradient-2"
       x1="23.5"
       y1="17.14"
       x2="19.65"
       y2="20.08"
       xlink:href="#linear-gradient" />
    <linearGradient
       id="linear-gradient-3"
       x1="21.54"
       y1="6.59"
       x2="26.78"
       y2="6.59"
       gradientTransform="translate(0.91 -2.25) rotate(5.8)"
       gradientUnits="userSpaceOnUse">
      <stop
         offset="0"
         stop-color="#729fcf"
         id="stop1581" />
      <stop
         offset="1"
         stop-color="#729fcf"
         stop-opacity="0"
         id="stop1583" />
    </linearGradient>
    <linearGradient
       id="linear-gradient-4"
       x1="18.63"
       y1="8.73"
       x2="24.48"
       y2="8.73"
       xlink:href="#linear-gradient-3" />
    <linearGradient
       id="linear-gradient-5"
       x1="26.62"
       y1="29.63"
       x2="22.28"
       y2="25.29"
       gradientUnits="userSpaceOnUse">
      <stop
         offset="0"
         stop-color="#b2cbe5"
         stop-opacity="0"
         id="stop1587" />
      <stop
         offset="1"
         stop-color="#3465a4"
         id="stop1589" />
    </linearGradient>
    <linearGradient
       id="linear-gradient-6"
       x1="26.33"
       y1="22.38"
       x2="15.5"
       y2="22.71"
       gradientUnits="userSpaceOnUse">
      <stop
         offset="0"
         stop-color="#b2cbe5"
         stop-opacity="0"
         id="stop1592" />
      <stop
         offset="1"
         stop-color="#5a84b8"
         id="stop1594" />
    </linearGradient>
    <linearGradient
       id="linear-gradient-7"
       x1="26.75"
       y1="20.17"
       x2="23.47"
       y2="20.88"
       xlink:href="#linear-gradient-5" />
    <linearGradient
       id="linear-gradient-8"
       x1="23.5"
       y1="17.14"
       x2="19.65"
       y2="20.08"
       gradientUnits="userSpaceOnUse">
      <stop
         offset="0"
         stop-color="#b2cbe5"
         stop-opacity="0.1"
         id="stop1598" />
      <stop
         offset="1"
         stop-color="#3465a4"
         id="stop1600" />
    </linearGradient>
    <linearGradient
       id="linear-gradient-9"
       x1="25.05"
       y1="26.03"
       x2="19.97"
       y2="24.63"
       xlink:href="#linear-gradient-8" />
    <linearGradient
       id="linear-gradient-10"
       x1="22.42"
       y1="31.65"
       x2="10.57"
       y2="30.98"
       gradientUnits="userSpaceOnUse">
      <stop
         offset="0"
         stop-color="#b2cbe5"
         stop-opacity="0.1"
         id="stop1604" />
      <stop
         offset="1"
         stop-color="#5a84b8"
         id="stop1606" />
    </linearGradient>
    <linearGradient
       id="linear-gradient-11"
       x1="15.6"
       y1="34.96"
       x2="14.2"
       y2="34.25"
       xlink:href="#linear-gradient-8" />
    <linearGradient
       id="linear-gradient-12"
       x1="20.63"
       y1="20.53"
       x2="11.2"
       y2="19.13"
       xlink:href="#linear-gradient-10" />
    <linearGradient
       id="linear-gradient-13"
       x1="15.14"
       y1="37.24"
       x2="13.03"
       y2="36.43"
       xlink:href="#linear-gradient-8" />
    <linearGradient
       id="linear-gradient-14"
       x1="12.22"
       y1="31.14"
       x2="19.37"
       y2="31.14"
       gradientUnits="userSpaceOnUse">
      <stop
         offset="0"
         stop-color="#729fcf"
         stop-opacity="0"
         id="stop1612" />
      <stop
         offset="1"
         stop-color="#729fcf"
         id="stop1614" />
      <stop
         offset="1"
         stop-color="#00255d"
         id="stop1616" />
    </linearGradient>
    <linearGradient
       id="linear-gradient-15"
       x1="13.33"
       y1="33.28"
       x2="24.68"
       y2="33.28"
       xlink:href="#linear-gradient-14" />
    <linearGradient
       id="linear-gradient-16"
       x1="28.7"
       y1="29.3"
       x2="29.18"
       y2="28.35"
       gradientUnits="userSpaceOnUse">
      <stop
         offset="0"
         stop-color="#00255d"
         stop-opacity="0"
         id="stop1620" />
      <stop
         offset="1"
         stop-color="#00255d"
         id="stop1622" />
    </linearGradient>
    <linearGradient
       id="linear-gradient-17"
       x1="28.07"
       y1="36.3"
       x2="30.64"
       y2="38.2"
       xlink:href="#linear-gradient-16" />
    <linearGradient
       id="linear-gradient-18"
       x1="34.95"
       y1="36.52"
       x2="37.68"
       y2="37.44"
       xlink:href="#linear-gradient-16" />
    <linearGradient
       id="linear-gradient-19"
       x1="35.25"
       y1="34.87"
       x2="36.04"
       y2="34.29"
       xlink:href="#linear-gradient-16" />
    <linearGradient
       id="linear-gradient-20"
       x1="28.5"
       y1="34.3"
       x2="29.47"
       y2="34.05"
       xlink:href="#linear-gradient-16" />
    <linearGradient
       id="linear-gradient-21"
       x1="30.46"
       y1="25.61"
       x2="26.42"
       y2="22.17"
       gradientUnits="userSpaceOnUse">
      <stop
         offset="0"
         stop-color="#00255d"
         stop-opacity="0"
         id="stop1629" />
      <stop
         offset="0.41"
         stop-color="#002553"
         stop-opacity="0.41"
         id="stop1631" />
      <stop
         offset="1"
         stop-color="#002545"
         id="stop1633" />
    </linearGradient>
    <linearGradient
       id="linear-gradient-22"
       x1="31.2"
       y1="22.72"
       x2="33.13"
       y2="30.76"
       xlink:href="#linear-gradient" />
    <linearGradient
       id="linear-gradient-23"
       x1="30.07"
       y1="29.69"
       x2="41.22"
       y2="30.5"
       xlink:href="#linear-gradient-16" />
    <linearGradient
       id="linear-gradient-24"
       x1="26.6"
       y1="23.83"
       x2="28.53"
       y2="31.87"
       xlink:href="#linear-gradient" />
    <linearGradient
       id="linear-gradient-25"
       x1="26.24"
       y1="29.25"
       x2="32.27"
       y2="29.69"
       xlink:href="#linear-gradient-16" />
    <linearGradient
       id="linear-gradient-26"
       x1="26.03"
       y1="19.7"
       x2="25.59"
       y2="18.1"
       gradientUnits="userSpaceOnUse">
      <stop
         offset="0"
         stop-color="#b2cbe5"
         id="stop1640" />
      <stop
         offset="1"
         stop-color="#3465a4"
         id="stop1642" />
    </linearGradient>
    <linearGradient
       id="linear-gradient-27"
       x1="24.94"
       y1="18.05"
       x2="26.3"
       y2="15.85"
       xlink:href="#linear-gradient-16" />
    <linearGradient
       id="linear-gradient-28"
       x1="22.78"
       y1="15.88"
       x2="24.63"
       y2="17.56"
       xlink:href="#linear-gradient-26" />
    <linearGradient
       id="linear-gradient-29"
       x1="23.4"
       y1="17.35"
       x2="25.07"
       y2="18.29"
       xlink:href="#linear-gradient-16" />
    <linearGradient
       id="linear-gradient-30"
       x1="23.94"
       y1="19.18"
       x2="26.66"
       y2="19.18"
       xlink:href="#linear-gradient-26" />
    <linearGradient
       id="linear-gradient-31"
       x1="31.53"
       y1="22.77"
       x2="25.36"
       y2="16"
       xlink:href="#linear-gradient-21" />
    <linearGradient
       id="linear-gradient-32"
       x1="27.84"
       y1="8.25"
       x2="31.36"
       y2="12.77"
       xlink:href="#linear-gradient" />
    <linearGradient
       id="linear-gradient-33"
       x1="30.52"
       y1="12.8"
       x2="28.99"
       y2="10.6"
       xlink:href="#linear-gradient-16" />
    <linearGradient
       id="linear-gradient-34"
       x1="31.02"
       y1="14.73"
       x2="35.48"
       y2="24.31"
       xlink:href="#linear-gradient-26" />
    <linearGradient
       id="linear-gradient-35"
       x1="33.5"
       y1="16.83"
       x2="29.78"
       y2="11.76"
       xlink:href="#linear-gradient-21" />
    <linearGradient
       id="linear-gradient-36"
       x1="30.1"
       y1="11.52"
       x2="34.07"
       y2="19.82"
       xlink:href="#linear-gradient" />
    <linearGradient
       id="linear-gradient-37"
       x1="32.59"
       y1="15.78"
       x2="36.12"
       y2="17.05"
       xlink:href="#linear-gradient-16" />
    <linearGradient
       id="linear-gradient-38"
       x1="29.72"
       y1="17.62"
       x2="33.65"
       y2="17.62"
       xlink:href="#linear-gradient-16" />
    <linearGradient
       id="linear-gradient-39"
       x1="32.29"
       y1="14.74"
       x2="31.47"
       y2="14.88"
       xlink:href="#linear-gradient-16" />
    <linearGradient
       id="New_Gradient_Swatch_2"
       x1="30.65"
       y1="6.39"
       x2="30.77"
       y2="8.43"
       gradientUnits="userSpaceOnUse">
      <stop
         offset="0"
         stop-color="#729fcf"
         id="stop1658" />
      <stop
         offset="1"
         stop-color="#3465a4"
         id="stop1660" />
    </linearGradient>
    <linearGradient
       id="linear-gradient-40"
       x1="30.47"
       y1="7.79"
       x2="31.12"
       y2="9.18"
       xlink:href="#linear-gradient-21" />
    <clipPath
       id="clip-path">
      <path
         class="cls-1"
         d="M31.63,10a.36.36,0,0,0-.52-.31c-.19.08-.41.19-.55,0s-.07-.28,0-.63a3,3,0,0,0,0-.66.4.4,0,0,0-.18-.28,2.07,2.07,0,0,0-.61-.2,2.83,2.83,0,0,0-1,.06c0-.24-.1-.93.06-1a6.53,6.53,0,0,1,2.89-.15c.9.3,1.05,1.9,1.14,2.2s-.42,1-.6,1.19a9.6,9.6,0,0,1-.89.52C31.47,10.37,31.63,10.14,31.63,10Z"
         id="path1664" />
    </clipPath>
    <linearGradient
       id="linear-gradient-41"
       x1="29.73"
       y1="8.64"
       x2="34.26"
       y2="13"
       gradientTransform="rotate(51.45,31.213698,10.061312)"
       xlink:href="#linear-gradient-26" />
    <linearGradient
       id="linear-gradient-42"
       x1="15.58"
       y1="16.13"
       x2="23.49"
       y2="14.23"
       xlink:href="#linear-gradient" />
    <linearGradient
       id="New_Gradient_Swatch_2-2"
       x1="17.28"
       y1="13.3"
       x2="17.39"
       y2="15.31"
       gradientTransform="rotate(-27.7,13.067792,14.881727)"
       xlink:href="#New_Gradient_Swatch_2" />
    <linearGradient
       id="linear-gradient-43"
       x1="20.72"
       y1="14.73"
       x2="17.94"
       y2="13.49"
       gradientTransform="matrix(1,-0.05,0.05,1,-0.81,0.87)"
       xlink:href="#linear-gradient-26" />
    <linearGradient
       id="linear-gradient-44"
       x1="15.36"
       y1="15.23"
       x2="23.27"
       y2="13.33"
       xlink:href="#linear-gradient" />
    <linearGradient
       inkscape:collect="always"
       xlink:href="#linear-gradient"
       id="linearGradient2569"
       gradientUnits="userSpaceOnUse"
       x1="16.26"
       y1="18.97"
       x2="24.17"
       y2="17.08" />
    <linearGradient
       inkscape:collect="always"
       xlink:href="#linear-gradient-3"
       id="linearGradient2571"
       gradientUnits="userSpaceOnUse"
       gradientTransform="rotate(5.8,22.662827,7.8568324)"
       x1="21.54"
       y1="6.59"
       x2="26.78"
       y2="6.59" />
    <linearGradient
       inkscape:collect="always"
       xlink:href="#linear-gradient-5"
       id="linearGradient2573"
       gradientUnits="userSpaceOnUse"
       x1="26.62"
       y1="29.63"
       x2="22.28"
       y2="25.29" />
    <linearGradient
       inkscape:collect="always"
       xlink:href="#linear-gradient-8"
       id="linearGradient2575"
       gradientUnits="userSpaceOnUse"
       x1="23.5"
       y1="17.14"
       x2="19.65"
       y2="20.08" />
    <linearGradient
       inkscape:collect="always"
       xlink:href="#linear-gradient-10"
       id="linearGradient2577"
       gradientUnits="userSpaceOnUse"
       x1="22.42"
       y1="31.65"
       x2="10.57"
       y2="30.98" />
    <linearGradient
       inkscape:collect="always"
       xlink:href="#linear-gradient-14"
       id="linearGradient2579"
       gradientUnits="userSpaceOnUse"
       x1="12.22"
       y1="31.14"
       x2="19.37"
       y2="31.14" />
    <linearGradient
       inkscape:collect="always"
       xlink:href="#linear-gradient-16"
       id="linearGradient2581"
       gradientUnits="userSpaceOnUse"
       x1="28.7"
       y1="29.3"
       x2="29.18"
       y2="28.35" />
    <linearGradient
       inkscape:collect="always"
       xlink:href="#linear-gradient-21"
       id="linearGradient2583"
       gradientUnits="userSpaceOnUse"
       x1="30.46"
       y1="25.61"
       x2="26.42"
       y2="22.17" />
    <linearGradient
       inkscape:collect="always"
       xlink:href="#linear-gradient-26"
       id="linearGradient2585"
       gradientUnits="userSpaceOnUse"
       x1="26.03"
       y1="19.7"
       x2="25.59"
       y2="18.1" />
    <linearGradient
       inkscape:collect="always"
       xlink:href="#New_Gradient_Swatch_2"
       id="linearGradient2587"
       gradientUnits="userSpaceOnUse"
       x1="30.65"
       y1="6.39"
       x2="30.77"
       y2="8.43" />
  </defs>
  <title
     id="title1674">10-Foot Placement</title>
  <g
     id="shadow"
     transform="matrix(1.2927033,0,0,0.92268774,-6.7758174,4.7276451)"
     style="stroke-width:0.915638;opacity:1">
    <ellipse
       class="cls-2"
       cx="23.93"
       cy="39.610001"
       rx="18.629999"
       ry="7.1799998"
       id="ellipse1676"
       style="fill:url(#radial-gradient);stroke-width:0.915638" />
  </g>
  <g
     id="ART"
     transform="matrix(1.2401371,0,0,1.2401566,-5.6777237,-7.5715319)"
     style="stroke-width:0.806356">
    <path
       class="cls-3"
       d="m 18.16,18.53 c -0.09,-0.93 0.48,-1.42 1,-2 0.52,-0.58 0.73,-0.34 0.73,-0.34 l -0.53,1.88 v 1.68 c 0,0 -0.25,0.47 -0.33,0.42 -0.08,-0.05 -0.75,-0.3 -0.87,-1.64 z"
       id="path1679"
       style="fill:url(#linearGradient2569);stroke-width:0.806356" />
    <path
       class="cls-4"
       d="m 22,16.6 c 0.17,0.14 0.28,0.23 0.36,0.31 a 1.45,1.45 0 0 0 -1.05,-0.31 1.63,1.63 0 0 0 -1.41,1.53 1.82,1.82 0 0 0 0.9,1.56 0.82,0.82 0 0 1 0.33,0.53 8.63,8.63 0 0 0 0.46,1.78 2,2 0 0 0 0.41,0.55 c 0,0 -0.31,0.34 -0.68,0.81 A 5.14,5.14 0 0 1 20.68,22.79 L 20.53,22.61 C 20.44,22.51 20.27,22.15 19.96,21.7 A 7.66,7.66 0 0 0 18.64,20.43 3,3 0 0 1 18.03,19.64 L 17.8,19.23 a 3.06,3.06 0 0 1 -0.41,-1.3 1.51,1.51 0 0 1 0.36,-1 0.62,0.62 0 0 1 0.28,0.24 7.65,7.65 0 0 1 0.42,0.72 4.76,4.76 0 0 0 0,0.9 6.7,6.7 0 0 0 0.38,1 16.07,16.07 0 0 1 0.38,-2.34 4.56,4.56 0 0 1 0.62,-1.54 c 0.18,-0.22 0.76,0 0.76,0 A 8.49,8.49 0 0 1 22,16.6 Z"
       id="path1681"
       style="fill:url(#linear-gradient-2);stroke-width:0.806356" />
    <path
       class="cls-5"
       d="m 21.8,7 a 30.21,30.21 0 0 1 5,-0.49"
       id="path1683"
       style="stroke:url(#linearGradient2571)" />
    <path
       class="cls-6"
       d="M 18.65,9.25 A 16.31,16.31 0 0 1 24.31,8"
       id="path1685"
       style="stroke:url(#linear-gradient-4)" />
    <path
       class="cls-7"
       d="m 16.85,38.06 c -0.45,1.16 -3.19,2.19 -6.08,2.19 -2.89,0 -4.38,-1 -3.43,-2.19 0.95,-1.19 3.46,-1.82 5.86,-1.82 2.4,0 4.06,0.76 3.65,1.82 z"
       id="path1687"
       style="stroke-width:0.806356" />
    <path
       class="cls-7"
       d="m 16.85,38.06 c -0.45,1.16 -3.19,2.19 -6.08,2.19 -2.89,0 -4.38,-1 -3.43,-2.19 0.95,-1.19 3.46,-1.82 5.86,-1.82 2.4,0 4.06,0.76 3.65,1.82 z"
       id="path1689"
       style="stroke-width:0.806356" />
    <path
       class="cls-8"
       d="m 16.85,38.06 c -0.45,1.16 -3.19,2.19 -6.08,2.19 -2.89,0 -4.38,-1 -3.43,-2.19 0.95,-1.19 3.46,-1.82 5.86,-1.82 2.4,0 4.06,0.76 3.65,1.82 z"
       id="path1691" />
    <path
       class="cls-9"
       d="m 14.81,38.06 c -0.31,0.65 -1.86,1.2 -3.44,1.2 -1.58,0 -2.46,-0.55 -2,-1.2 0.46,-0.65 1.96,-1.06 3.38,-1.06 1.42,0 2.36,0.45 2.06,1.06 z"
       id="path1693"
       style="stroke-width:0.806356" />
    <g
       class="cls-10"
       id="g1739"
       style="stroke-width:0.806356">
      <circle
         class="cls-11"
         cx="10.78"
         cy="23.530001"
         r="2.1900001"
         id="circle1695"
         style="stroke-width:0.806356" />
      <circle
         class="cls-12"
         cx="10.74"
         cy="23.52"
         r="2.1099999"
         id="circle1697"
         style="stroke-width:0.806356" />
      <circle
         class="cls-13"
         cx="10.71"
         cy="23.5"
         r="2.04"
         id="circle1699"
         style="stroke-width:0.806356" />
      <circle
         class="cls-14"
         cx="10.68"
         cy="23.49"
         r="1.97"
         id="circle1701"
         style="stroke-width:0.806356" />
      <circle
         class="cls-15"
         cx="10.64"
         cy="23.48"
         r="1.9"
         id="circle1703"
         style="stroke-width:0.806356" />
      <circle
         class="cls-16"
         cx="10.61"
         cy="23.459999"
         r="1.8200001"
         id="circle1705"
         style="stroke-width:0.806356" />
      <circle
         class="cls-17"
         cx="10.58"
         cy="23.450001"
         r="1.75"
         id="circle1707"
         style="stroke-width:0.806356" />
      <circle
         class="cls-18"
         cx="10.54"
         cy="23.440001"
         r="1.6799999"
         id="circle1709"
         style="stroke-width:0.806356" />
      <circle
         class="cls-19"
         cx="10.51"
         cy="23.42"
         r="1.61"
         id="circle1711"
         style="stroke-width:0.806356" />
      <circle
         class="cls-20"
         cx="10.48"
         cy="23.41"
         r="1.54"
         id="circle1713"
         style="stroke-width:0.806356" />
      <circle
         class="cls-21"
         cx="10.44"
         cy="23.4"
         r="1.46"
         id="circle1715"
         style="stroke-width:0.806356" />
      <circle
         class="cls-22"
         cx="10.41"
         cy="23.379999"
         r="1.39"
         id="circle1717"
         style="stroke-width:0.806356" />
      <circle
         class="cls-23"
         cx="10.37"
         cy="23.370001"
         r="1.3200001"
         id="circle1719"
         style="stroke-width:0.806356" />
      <circle
         class="cls-24"
         cx="10.34"
         cy="23.360001"
         r="1.25"
         id="circle1721"
         style="stroke-width:0.806356" />
      <circle
         class="cls-25"
         cx="10.31"
         cy="23.34"
         r="1.17"
         id="circle1723"
         style="stroke-width:0.806356" />
      <circle
         class="cls-26"
         cx="10.27"
         cy="23.33"
         r="1.1"
         id="circle1725"
         style="stroke-width:0.806356" />
      <circle
         class="cls-27"
         cx="10.24"
         cy="23.32"
         r="1.03"
         id="circle1727"
         style="stroke-width:0.806356" />
      <circle
         class="cls-28"
         cx="10.21"
         cy="23.299999"
         r="0.95999998"
         id="circle1729"
         style="stroke-width:0.806356" />
      <circle
         class="cls-29"
         cx="10.17"
         cy="23.290001"
         r="0.88999999"
         id="circle1731"
         style="stroke-width:0.806356" />
      <circle
         class="cls-30"
         cx="10.14"
         cy="23.280001"
         r="0.81"
         id="circle1733"
         style="stroke-width:0.806356" />
      <circle
         class="cls-31"
         cx="10.11"
         cy="23.26"
         r="0.74000001"
         id="circle1735"
         style="stroke-width:0.806356" />
      <circle
         class="cls-32"
         cx="10.07"
         cy="23.25"
         r="0.67000002"
         id="circle1737"
         style="stroke-width:0.806356" />
    </g>
    <path
       class="cls-33"
       d="m 27.1,25.47 a 8.79,8.79 0 0 1 -0.72,3.09 c 0,0 -0.33,-0.43 -0.88,-1.09 A 6.61,6.61 0 0 0 23.65,26.22 2.09,2.09 0 0 0 22.84,26.84 5.29,5.29 0 0 0 22,28.23 c 0,0 0,-0.28 -0.42,-0.42 A 1.79,1.79 0 0 0 21.23,27.72 12.62,12.62 0 0 0 19.8,27.53 c -0.16,0 -0.38,-0.07 -0.51,-0.1 l 0.39,-0.47 A 29.69,29.69 0 0 1 22.3,25 4.85,4.85 0 0 0 23.13,24.19 h 0.22 a 4.34,4.34 0 0 0 2.34,-0.54 c 0,0 1.31,0.82 1.41,1.82 z"
       id="path1741"
       style="fill:url(#linearGradient2573);stroke-width:0.806356" />
    <path
       class="cls-34"
       d="m 17.42,27.12 a 0.79,0.79 0 0 1 -0.31,0.2 c -0.18,0.06 -0.44,-0.06 -0.44,-0.17 0,-0.11 0.23,-0.16 0.33,-0.25 0.1,-0.09 0.66,-0.38 0.84,-0.48 a 5.67,5.67 0 0 1 0.54,-0.21 2.63,2.63 0 0 0 0.56,-0.27 12.92,12.92 0 0 0 2,-2.07 c 0.12,-0.18 0.25,-0.34 0.37,-0.5 0.37,-0.47 0.68,-0.81 0.68,-0.81 a 2,2 0 0 1 -0.41,-0.55 8.63,8.63 0 0 1 -0.48,-1.79 0.82,0.82 0 0 0 -0.33,-0.53 1.82,1.82 0 0 1 -0.9,-1.56 1.63,1.63 0 0 1 1.41,-1.53 1.45,1.45 0 0 1 1.05,0.31 c 0,0 0,0 0,0 v 0 0 0 a 2.71,2.71 0 0 1 0.4,0.51 1.55,1.55 0 0 1 0.22,0.51 c 0.12,0.54 0,1.15 0.16,1.68 0.16,0.53 0.68,2.49 0.69,2.61 a 1.51,1.51 0 0 1 0,0.74 11,11 0 0 1 -0.82,1.15 4.85,4.85 0 0 1 -0.83,0.81 29.69,29.69 0 0 0 -2.49,2.08 l -0.39,0.47 c -0.34,0.42 -0.76,0.95 -0.84,1 A 0.88,0.88 0 0 1 17.87,28.59 8.55,8.55 0 0 1 16.93,28.38 0.84,0.84 0 0 1 16.74,28.29 0.54,0.54 0 0 1 16.48,28 c 0,-0.09 0.18,-0.13 0.34,-0.27 a 6.79,6.79 0 0 0 0.6,-0.61 z"
       id="path1743"
       style="fill:url(#linear-gradient-6);stroke-width:0.806356" />
    <path
       class="cls-35"
       d="M 26.44,22.12 A 1.24,1.24 0 0 1 26,23.45 2.21,2.21 0 0 1 25.49,23.79 3.82,3.82 0 0 1 23.34,24.23 H 23.12 A 11,11 0 0 0 24,23.06 1.51,1.51 0 0 0 24,22.32 c 0,-0.12 -0.57,-2.09 -0.69,-2.61 -0.12,-0.52 0,-1.14 -0.16,-1.68 a 1.55,1.55 0 0 0 -0.22,-0.51 v 0 c 0.19,0.29 0.8,0.85 1.05,1.26 v 0.06 a 19.41,19.41 0 0 0 1.57,1.84 8.59,8.59 0 0 1 0.64,0.85 1.79,1.79 0 0 1 0.25,0.59 z"
       id="path1745"
       style="fill:url(#linear-gradient-7);stroke-width:0.806356" />
    <path
       class="cls-36"
       d="m 22,16.6 c 0.17,0.14 0.28,0.23 0.36,0.31 a 1.45,1.45 0 0 0 -1.05,-0.31 1.63,1.63 0 0 0 -1.41,1.53 1.82,1.82 0 0 0 0.9,1.56 0.82,0.82 0 0 1 0.33,0.53 8.63,8.63 0 0 0 0.46,1.78 2,2 0 0 0 0.41,0.55 c 0,0 -0.31,0.34 -0.68,0.81 A 5.14,5.14 0 0 1 20.68,22.79 L 20.53,22.61 C 20.44,22.51 20.27,22.15 19.96,21.7 A 7.66,7.66 0 0 0 18.64,20.43 3,3 0 0 1 18.03,19.64 L 17.8,19.23 a 3.06,3.06 0 0 1 -0.41,-1.3 1.51,1.51 0 0 1 0.36,-1 0.62,0.62 0 0 1 0.28,0.24 7.65,7.65 0 0 1 0.42,0.72 4.76,4.76 0 0 0 0,0.9 6.7,6.7 0 0 0 0.38,1 16.07,16.07 0 0 1 0.38,-2.34 4.56,4.56 0 0 1 0.62,-1.54 c 0.18,-0.22 0.76,0 0.76,0 A 8.49,8.49 0 0 1 22,16.6 Z"
       id="path1747"
       style="fill:url(#linearGradient2575);stroke-width:0.806356" />
    <path
       class="cls-37"
       d="m 21.56,27.81 c 0.39,0.14 0.42,0.42 0.42,0.42 -0.08,0.19 -0.42,0.21 -0.77,0.18 a 1.29,1.29 0 0 1 -0.58,-0.19 5.8,5.8 0 0 0 0.58,-0.5 1.79,1.79 0 0 1 0.35,0.09 z"
       id="path1749"
       style="stroke-width:0.806356" />
    <path
       class="cls-38"
       d="m 21.32,23.37 c -0.12,0.16 -0.25,0.32 -0.37,0.5 a 12.92,12.92 0 0 1 -2,2.07 2.63,2.63 0 0 1 -0.56,0.27 1.63,1.63 0 0 1 0.2,-0.59 l 1.3,-1.69 c 0.27,-0.36 0.8,-1.13 0.8,-1.13 a 5.14,5.14 0 0 0 0.63,0.57 z"
       id="path1751"
       style="fill:url(#linear-gradient-9);stroke-width:0.806356" />
    <path
       class="cls-39"
       d="m 21.21,27.72 a 5.8,5.8 0 0 1 -0.58,0.5 21.42,21.42 0 0 1 -2,1.24 1.8,1.8 0 0 0 -0.72,1 8.24,8.24 0 0 1 -1.63,2.44 17.23,17.23 0 0 0 -2,2.28 0.53,0.53 0 0 1 -0.41,0 c -0.17,-0.11 -0.12,-0.17 -0.2,-0.27 a 1.87,1.87 0 0 0 -0.33,-0.33 22.36,22.36 0 0 0 1.39,-2.66 12.58,12.58 0 0 1 1.35,-2.13 2.22,2.22 0 0 0 0.27,-0.77 2.35,2.35 0 0 1 0.41,-0.73 0.84,0.84 0 0 0 0.19,0.09 8.55,8.55 0 0 0 0.94,0.21 0.88,0.88 0 0 0 0.56,-0.12 c 0.08,-0.08 0.5,-0.61 0.84,-1 0.13,0 0.35,0.08 0.51,0.1 a 12.62,12.62 0 0 1 1.41,0.15 z"
       id="path1753"
       style="fill:url(#linearGradient2577);stroke-width:0.806356" />
    <path
       class="cls-40"
       d="m 14.1,33.19 a 2.83,2.83 0 0 0 0.77,0.49 1.94,1.94 0 0 1 0.47,0.18 l -1.08,1.31 A 1.4,1.4 0 0 1 13.71,35 1.66,1.66 0 0 1 13.32,34.57"
       id="path1755"
       style="fill:url(#linear-gradient-11);stroke-width:0.806356" />
    <path
       class="cls-41"
       d="m 17.8,19.24 0.23,0.41 a 7,7 0 0 1 -1.31,1.73 5.18,5.18 0 0 1 -1.83,0.39 c -0.74,0 -2.29,0.09 -2.48,0.15 a 1.21,1.21 0 0 1 -0.77,0 2.72,2.72 0 0 0 -0.79,-0.2 c -0.27,0 -0.87,0.35 -1.08,0.35 -0.21,0 -0.84,0 -0.68,-0.21 0.16,-0.21 0.54,-0.6 0.65,-0.7 a 3.29,3.29 0 0 1 0.75,-0.36 1.91,1.91 0 0 1 0.88,0 2.14,2.14 0 0 0 0.74,0.24 10.54,10.54 0 0 0 2.21,-0.62 4.19,4.19 0 0 1 1.45,-0.42 c 0,-0.1 0.06,-0.35 0.15,-0.59 a 4.56,4.56 0 0 1 0.42,-0.67 3.8,3.8 0 0 1 0,-0.86 1.44,1.44 0 0 1 0.73,-1 h 0.41 0.27 a 1.51,1.51 0 0 0 -0.36,1 3.06,3.06 0 0 0 0.41,1.36 z"
       id="path1757"
       style="fill:url(#linear-gradient-12);stroke-width:0.806356" />
    <path
       class="cls-42"
       d="m 14.26,35.17 c 0,0 0.06,0.49 0.06,0.67 a 4.77,4.77 0 0 1 -0.09,0.81 1.14,1.14 0 0 1 -0.64,0.38 c -0.2,0 -0.36,0.23 -0.57,0.44 A 1.29,1.29 0 0 1 11.94,37.95 1.27,1.27 0 0 1 11,37.41 0.7,0.7 0 0 1 11.11,36.85 c 0.16,-0.21 0.87,-0.47 1,-0.64 0.13,-0.17 0.85,-1.22 1,-1.41 a 0.4,0.4 0 0 1 0.25,-0.23 1.87,1.87 0 0 1 0.33,0.33 c 0.08,0.1 0,0.16 0.2,0.27 a 0.53,0.53 0 0 0 0.37,0 z"
       id="path1759"
       style="fill:url(#linear-gradient-13);stroke-width:0.806356" />
    <path
       class="cls-43"
       d="m 14.26,35.17 c 0,0 0.06,0.49 0.06,0.67 a 4.77,4.77 0 0 1 -0.09,0.81 1.14,1.14 0 0 1 -0.64,0.38 c -0.2,0 -0.36,0.23 -0.57,0.44 A 1.29,1.29 0 0 1 11.94,37.95 1.27,1.27 0 0 1 11,37.41 0.7,0.7 0 0 1 11.11,36.85 c 0.16,-0.21 0.87,-0.47 1,-0.64 0.13,-0.17 0.85,-1.22 1,-1.41 a 0.4,0.4 0 0 1 0.25,-0.23 1.87,1.87 0 0 1 0.33,0.33 c 0.08,0.1 0,0.16 0.2,0.27 a 0.53,0.53 0 0 0 0.37,0 z"
       id="path1761" />
    <path
       class="cls-43"
       d="M 26,23.45 A 1.24,1.24 0 0 0 26.43,22.12 1.79,1.79 0 0 0 26.16,21.53 8.59,8.59 0 0 0 25.52,20.68 19.41,19.41 0 0 1 24,18.84 v -0.06 c -0.25,-0.41 -0.86,-1 -1.05,-1.26"
       id="path1763" />
    <path
       class="cls-43"
       d="m 17.07,16.93 a 1.44,1.44 0 0 0 -0.73,1 3.8,3.8 0 0 0 0,0.86 4.56,4.56 0 0 0 -0.42,0.67 c -0.09,0.24 -0.11,0.49 -0.15,0.59 a 4.19,4.19 0 0 0 -1.45,0.31 10.54,10.54 0 0 1 -2.21,0.62 2.14,2.14 0 0 1 -0.74,-0.24 1.91,1.91 0 0 0 -0.88,0 3.29,3.29 0 0 0 -0.75,0.36 c -0.11,0.1 -0.48,0.5 -0.65,0.7 -0.17,0.2 0.47,0.21 0.68,0.21 0.21,0 0.81,-0.33 1.08,-0.35 a 2.72,2.72 0 0 1 0.79,0.2 1.21,1.21 0 0 0 0.77,0 c 0.19,-0.06 1.74,-0.12 2.48,-0.15 A 5.18,5.18 0 0 0 16.72,21.32 7,7 0 0 0 18,19.65"
       id="path1765" />
    <path
       class="cls-43"
       d="m 20.68,22.8 -0.15,-0.18 c -0.09,-0.1 -0.26,-0.46 -0.57,-0.91 A 7.66,7.66 0 0 0 18.64,20.44 3,3 0 0 1 18.03,19.65 L 17.8,19.24 a 3.06,3.06 0 0 1 -0.41,-1.3 1.51,1.51 0 0 1 0.36,-1"
       id="path1767" />
    <path
       class="cls-43"
       d="m 19.27,27.43 c 0.13,0 0.35,0.08 0.51,0.1 a 12.62,12.62 0 0 1 1.43,0.19 1.79,1.79 0 0 1 0.35,0.09 c 0.39,0.14 0.42,0.42 0.42,0.42 a 5.29,5.29 0 0 1 0.86,-1.39 2.09,2.09 0 0 1 0.81,-0.62 6.61,6.61 0 0 1 1.85,1.25 c 0.55,0.66 0.88,1.09 0.88,1.09 a 8.79,8.79 0 0 0 0.72,-3.09"
       id="path1769" />
    <path
       class="cls-43"
       d="m 20.68,22.8 c 0,0 -0.53,0.77 -0.8,1.13 l -1.3,1.69 a 1.63,1.63 0 0 0 -0.2,0.59"
       id="path1771" />
    <path
       class="cls-43"
       d="m 17.45,27.09 v 0 a 6.79,6.79 0 0 1 -0.6,0.6 c -0.16,0.14 -0.36,0.18 -0.34,0.27 a 0.54,0.54 0 0 0 0.26,0.29 0.84,0.84 0 0 0 0.19,0.09 8.55,8.55 0 0 0 0.94,0.21 0.88,0.88 0 0 0 0.56,-0.12 c 0.08,-0.08 0.5,-0.61 0.84,-1 l 0.39,-0.47 A 29.69,29.69 0 0 1 22.3,25 4.85,4.85 0 0 0 23.13,24.19 11,11 0 0 0 24,23.06 1.51,1.51 0 0 0 24,22.32 c 0,-0.12 -0.57,-2.09 -0.69,-2.61 -0.12,-0.52 0,-1.14 -0.16,-1.68 a 1.55,1.55 0 0 0 -0.22,-0.51 2.71,2.71 0 0 0 -0.4,-0.51"
       id="path1773" />
    <path
       class="cls-43"
       d="m 22.46,17 v 0 0 0 c 0,0 0,0 0,0 a 1.45,1.45 0 0 0 -1.05,-0.31 1.63,1.63 0 0 0 -1.41,1.53 1.82,1.82 0 0 0 0.9,1.56 0.82,0.82 0 0 1 0.33,0.53 8.63,8.63 0 0 0 0.36,1.69 2,2 0 0 0 0.41,0.55 c 0,0 -0.31,0.34 -0.68,0.81 -0.12,0.16 -0.25,0.32 -0.37,0.5 a 12.92,12.92 0 0 1 -2,2.07 2.63,2.63 0 0 1 -0.56,0.27 5.67,5.67 0 0 0 -0.54,0.21 c -0.18,0.1 -0.73,0.39 -0.84,0.48 -0.11,0.09 -0.33,0.15 -0.33,0.25 0,0.1 0.26,0.23 0.44,0.17 a 0.79,0.79 0 0 0 0.31,-0.2"
       id="path1775" />
    <path
       class="cls-43"
       d="m 19.85,15.91 c 0.18,-0.22 0.76,0 0.76,0 A 8.49,8.49 0 0 1 22,16.6 c 0.17,0.14 0.28,0.23 0.36,0.31 v 0"
       id="path1777" />
    <path
       class="cls-43"
       d="m 21.21,27.72 a 5.8,5.8 0 0 1 -0.58,0.5 21.42,21.42 0 0 1 -2,1.24 1.8,1.8 0 0 0 -0.72,1 8.24,8.24 0 0 1 -1.63,2.44 17.23,17.23 0 0 0 -2,2.28 0.53,0.53 0 0 1 -0.41,0 c -0.17,-0.11 -0.12,-0.17 -0.2,-0.27 a 1.87,1.87 0 0 0 -0.33,-0.33 22.36,22.36 0 0 0 1.39,-2.66 12.58,12.58 0 0 1 1.35,-2.13 2.22,2.22 0 0 0 0.27,-0.77 2.35,2.35 0 0 1 0.41,-0.73"
       id="path1779" />
    <path
       class="cls-43"
       d="m 20.63,28.22 a 1.29,1.29 0 0 0 0.58,0.19 c 0.35,0 0.69,0 0.77,-0.18"
       id="path1781" />
    <path
       class="cls-44"
       d="m 12.4,30.34 a 29,29 0 0 0 6.79,1.6"
       id="path1783"
       style="stroke:url(#linearGradient2579)" />
    <path
       class="cls-45"
       d="m 13.5,32.87 c 0,0 3.66,1.22 11,0.67"
       id="path1785"
       style="stroke:url(#linear-gradient-15)" />
    <path
       class="cls-37"
       d="m 29.36,27.75 a 2.8,2.8 0 0 1 0.26,0.81 c 0,0.35 -0.31,0.68 -1,0.64 a 4.38,4.38 0 0 1 0.15,-0.64 12.62,12.62 0 0 0 0.31,-1.32 c 0.15,0.23 0.23,0.42 0.28,0.51 z"
       id="path1787"
       style="stroke-width:0.806356" />
    <path
       class="cls-46"
       d="m 29.36,27.75 a 2.8,2.8 0 0 1 0.26,0.81 c 0,0.35 -0.31,0.68 -1,0.64 a 4.38,4.38 0 0 1 0.15,-0.64 12.62,12.62 0 0 0 0.31,-1.32 c 0.15,0.23 0.23,0.42 0.28,0.51 z"
       id="path1789"
       style="stroke-width:0.806356" />
    <path
       class="cls-47"
       d="m 29.36,27.75 a 2.8,2.8 0 0 1 0.26,0.81 c 0,0.35 -0.31,0.68 -1,0.64 a 4.38,4.38 0 0 1 0.15,-0.64 12.62,12.62 0 0 0 0.31,-1.32 c 0.15,0.23 0.23,0.42 0.28,0.51 z"
       id="path1791"
       style="fill:url(#linearGradient2581);stroke-width:0.806356" />
    <path
       class="cls-7"
       d="m 36.05,37.15 a 6.06,6.06 0 0 0 -3.68,0.91 8.62,8.62 0 0 0 -4.15,-0.91 c -2.52,0 -4.77,0.81 -5.07,1.94 -0.33,1.29 2,2.48 5.15,2.48 a 7.07,7.07 0 0 0 4.64,-1.31 10.49,10.49 0 0 0 5.33,1.31 c 3.21,0 4.87,-1.19 3.86,-2.48 C 41.24,38 38.56,37.15 36.05,37.15 Z"
       id="path1793"
       style="stroke-width:0.806356" />
    <path
       class="cls-9"
       d="m 31.17,39.09 c 0.13,0.71 -1.16,1.34 -2.89,1.34 -1.73,0 -3,-0.63 -2.94,-1.34 0.06,-0.71 1.39,-1.16 2.89,-1.16 1.5,0 2.82,0.5 2.94,1.16 z"
       id="path1795"
       style="stroke-width:0.806356" />
    <path
       class="cls-9"
       d="m 39.94,39.09 c 0.48,0.71 -0.51,1.34 -2.24,1.34 -1.73,0 -3.35,-0.63 -3.59,-1.34 -0.24,-0.71 0.82,-1.16 2.33,-1.16 1.51,0 3.06,0.5 3.5,1.16 z"
       id="path1797"
       style="stroke-width:0.806356" />
    <path
       class="cls-8"
       d="m 36.05,37.15 a 6.06,6.06 0 0 0 -3.68,0.91 8.62,8.62 0 0 0 -4.15,-0.91 c -2.52,0 -4.77,0.81 -5.07,1.94 -0.33,1.29 2,2.48 5.15,2.48 a 7.07,7.07 0 0 0 4.64,-1.31 10.49,10.49 0 0 0 5.33,1.31 c 3.21,0 4.87,-1.19 3.86,-2.48 C 41.24,38 38.56,37.15 36.05,37.15 Z"
       id="path1799" />
    <path
       class="cls-37"
       d="m 28.44,35.3 a 0.73,0.73 0 0 0 -0.13,0.48 6.14,6.14 0 0 1 0,1 2.16,2.16 0 0 1 -0.16,0.7 2.27,2.27 0 0 0 -0.29,0.72 3.54,3.54 0 0 0 0,0.5 1.74,1.74 0 0 0 1,0.3 1.75,1.75 0 0 0 1.14,-0.12 c 0.12,-0.1 0.13,-0.4 0.2,-0.64 0.07,-0.24 0.42,-0.34 0.41,-0.53 a 3.37,3.37 0 0 0 -0.14,-1 7.51,7.51 0 0 1 -0.29,-1.24 0.68,0.68 0 0 0 -0.47,-0.56"
       id="path1801"
       style="stroke-width:0.806356" />
    <path
       class="cls-48"
       d="m 28.44,35.3 a 0.73,0.73 0 0 0 -0.13,0.48 6.14,6.14 0 0 1 0,1 2.16,2.16 0 0 1 -0.16,0.7 2.27,2.27 0 0 0 -0.29,0.72 3.54,3.54 0 0 0 0,0.5 1.74,1.74 0 0 0 1,0.3 1.75,1.75 0 0 0 1.14,-0.12 c 0.12,-0.1 0.13,-0.4 0.2,-0.64 0.07,-0.24 0.42,-0.34 0.41,-0.53 a 3.37,3.37 0 0 0 -0.14,-1 7.51,7.51 0 0 1 -0.29,-1.24 0.68,0.68 0 0 0 -0.47,-0.56"
       id="path1803"
       style="fill:url(#linear-gradient-17);stroke-width:0.806356" />
    <path
       class="cls-49"
       d="m 28.44,35.3 a 0.73,0.73 0 0 0 -0.13,0.48 6.14,6.14 0 0 1 0,1 2.16,2.16 0 0 1 -0.16,0.7 2.27,2.27 0 0 0 -0.29,0.72 3.54,3.54 0 0 0 0,0.5 1.74,1.74 0 0 0 1,0.3 1.75,1.75 0 0 0 1.14,-0.12 c 0.12,-0.1 0.13,-0.4 0.2,-0.64 0.07,-0.24 0.42,-0.34 0.41,-0.53 a 3.37,3.37 0 0 0 -0.14,-1 7.51,7.51 0 0 1 -0.29,-1.24 0.68,0.68 0 0 0 -0.47,-0.56"
       id="path1805" />
    <path
       class="cls-37"
       d="m 35.14,35.38 a 2.21,2.21 0 0 0 0,0.55 7.13,7.13 0 0 1 0.36,1.07 1.52,1.52 0 0 1 -0.19,1 0.71,0.71 0 0 0 -0.19,0.53 1.24,1.24 0 0 0 0.19,0.45 4.59,4.59 0 0 0 1.18,0.21 c 0.79,0.06 1,-0.29 1.07,-0.4 0.07,-0.11 0,-0.42 0,-0.64 0,-0.22 0.2,-0.4 0.2,-0.69 a 2.22,2.22 0 0 0 -0.24,-1.19 5.6,5.6 0 0 1 -0.53,-1.1 c -0.05,-0.15 -0.37,-0.34 -0.37,-0.34"
       id="path1807"
       style="stroke-width:0.806356" />
    <path
       class="cls-50"
       d="m 35.14,35.38 a 2.21,2.21 0 0 0 0,0.55 7.13,7.13 0 0 1 0.36,1.07 1.52,1.52 0 0 1 -0.19,1 0.71,0.71 0 0 0 -0.19,0.53 1.24,1.24 0 0 0 0.19,0.45 4.59,4.59 0 0 0 1.18,0.21 c 0.79,0.06 1,-0.29 1.07,-0.4 0.07,-0.11 0,-0.42 0,-0.64 0,-0.22 0.2,-0.4 0.2,-0.69 a 2.22,2.22 0 0 0 -0.24,-1.19 5.6,5.6 0 0 1 -0.53,-1.1 c -0.05,-0.15 -0.37,-0.34 -0.37,-0.34"
       id="path1809"
       style="fill:url(#linear-gradient-18);stroke-width:0.806356" />
    <path
       class="cls-49"
       d="m 35.14,35.38 a 2.21,2.21 0 0 0 0,0.55 7.13,7.13 0 0 1 0.36,1.07 1.52,1.52 0 0 1 -0.19,1 0.71,0.71 0 0 0 -0.19,0.53 1.24,1.24 0 0 0 0.19,0.45 4.59,4.59 0 0 0 1.18,0.21 c 0.79,0.06 1,-0.29 1.07,-0.4 0.07,-0.11 0,-0.42 0,-0.64 0,-0.22 0.2,-0.4 0.2,-0.69 a 2.22,2.22 0 0 0 -0.24,-1.19 5.6,5.6 0 0 1 -0.53,-1.1 c -0.05,-0.15 -0.37,-0.34 -0.37,-0.34"
       id="path1811" />
    <path
       class="cls-37"
       d="m 36.6,35 c 0,0 0.16,0.5 -0.53,0.8 A 0.79,0.79 0 0 1 35.21,35.56 L 35.14,35.43 A 13.35,13.35 0 0 0 34,33.69 a 1.11,1.11 0 0 0 1.7,-1.14 15.42,15.42 0 0 0 0.88,2.28 v 0 A 0.39,0.39 0 0 0 36.6,35 Z"
       id="path1813"
       style="stroke-width:0.806356" />
    <path
       class="cls-51"
       d="m 35.23,33.8 a 7.81,7.81 0 0 1 0.61,1 4,4 0 0 1 0.26,0.9 1,1 0 0 0 0.49,-0.37 c 0.13,-0.25 -0.37,-1.16 -0.37,-1.16 L 35.7,33"
       id="path1815"
       style="fill:url(#linear-gradient-19);stroke-width:0.806356" />
    <path
       class="cls-37"
       d="m 28.26,35 c -0.12,-0.26 -0.43,-1.06 -0.75,-1.88 a 0.89,0.89 0 0 0 0.85,0.17 1.23,1.23 0 0 0 0.75,-1 c 0.22,1.06 0.52,2.25 0.61,2.67 0.09,0.42 -0.28,0.63 -0.61,0.71 -0.33,0.08 -0.47,-0.06 -0.67,-0.36 A 2.81,2.81 0 0 1 28.26,35 Z"
       id="path1817"
       style="stroke-width:0.806356" />
    <path
       class="cls-52"
       d="m 28.58,33.26 c 0,0 0.45,1.26 0.53,1.57 0.08,0.31 0.14,0.8 0.14,0.8 0,0 0.39,-0.22 0.43,-0.45 a 25.13,25.13 0 0 0 -0.6,-2.56"
       id="path1819"
       style="fill:url(#linear-gradient-20);stroke-width:0.806356" />
    <path
       class="cls-37"
       d="m 29.36,27.75 c -0.19,-0.33 -0.77,-2.08 -1.77,-2.08 a 1.6,1.6 0 0 0 -1.59,1.2 1.65,1.65 0 0 0 0,0.95 c -0.06,-0.05 -0.33,-0.35 -0.26,-1.3 0.07,-0.95 0,-1.79 0,-2.34 a 4,4 0 0 1 0.62,-1.67 c 0.21,-0.32 0.1,-0.47 0.1,-0.47 a 5.22,5.22 0 0 0 0.64,0.08 c 0.46,0 1.23,0.08 2.42,0.08 A 8.78,8.78 0 0 0 33,21.71 c 0,0 0.34,0.31 0.31,0.58 a 3.1,3.1 0 0 0 0.16,1.27 18.67,18.67 0 0 1 0.24,1.89 4.2,4.2 0 0 1 0,1.73 1,1 0 0 0 -0.16,-0.3 v 0 a 1.3,1.3 0 0 0 -1,-0.53 1.69,1.69 0 0 0 -1.81,0.84 c 0,0.07 -0.05,0.13 -0.07,0.19 v 0 a 2.09,2.09 0 0 0 -0.12,0.78 c 0,0 -0.15,-0.74 -0.24,-1.34 A 2.24,2.24 0 0 0 30,25.94 a 6.14,6.14 0 0 1 -0.1,1.3 c -0.11,0.43 -0.23,1.32 -0.23,1.32 a 2.8,2.8 0 0 0 -0.31,-0.81 z"
       id="path1821"
       style="stroke-width:0.806356" />
    <path
       class="cls-53"
       d="m 29.36,27.75 c -0.19,-0.33 -0.77,-2.08 -1.77,-2.08 a 1.6,1.6 0 0 0 -1.59,1.2 1.65,1.65 0 0 0 0,0.95 c -0.06,-0.05 -0.33,-0.35 -0.26,-1.3 0.07,-0.95 0,-1.79 0,-2.34 a 4,4 0 0 1 0.62,-1.67 c 0.21,-0.32 0.1,-0.47 0.1,-0.47 a 5.22,5.22 0 0 0 0.64,0.08 c 0.46,0 1.23,0.08 2.42,0.08 A 8.78,8.78 0 0 0 33,21.71 c 0,0 0.34,0.31 0.31,0.58 a 3.1,3.1 0 0 0 0.16,1.27 18.67,18.67 0 0 1 0.24,1.89 4.2,4.2 0 0 1 0,1.73 1,1 0 0 0 -0.16,-0.3 v 0 a 1.3,1.3 0 0 0 -1,-0.53 1.69,1.69 0 0 0 -1.81,0.84 c 0,0.07 -0.05,0.13 -0.07,0.19 v 0 a 2.09,2.09 0 0 0 -0.12,0.78 c 0,0 -0.15,-0.74 -0.24,-1.34 A 2.24,2.24 0 0 0 30,25.94 a 6.14,6.14 0 0 1 -0.1,1.3 c -0.11,0.43 -0.23,1.32 -0.23,1.32 a 2.8,2.8 0 0 0 -0.31,-0.81 z"
       id="path1823"
       style="fill:url(#linearGradient2583);stroke-width:0.806356" />
    <path
       class="cls-54"
       d="m 30.74,29.13 c 0,-0.65 -0.11,-1.64 -0.12,-1.75 v 0 c 0,-0.06 0,-0.12 0.07,-0.19 a 1.69,1.69 0 0 1 1.81,-0.84 1.3,1.3 0 0 1 1,0.53 v 0 c 0,0.11 -0.09,0.8 -0.16,1.31 a 3.59,3.59 0 0 0 0,1 2.92,2.92 0 0 0 0.73,0.94 4,4 0 0 1 1.41,1.87 l 0.18,0.52 A 1.11,1.11 0 0 1 34,33.69 v 0 L 33.61,33.2 c -0.85,-1 -1.56,-2 -1.69,-2.13 a 3.21,3.21 0 0 1 -0.78,-0.61 2,2 0 0 1 -0.4,-1.33 z"
       id="path1825"
       style="fill:url(#linear-gradient-22);stroke-width:0.806356" />
    <path
       class="cls-55"
       d="m 31.76,26.44 a 0.9,0.9 0 0 1 1.05,0.83 6.2,6.2 0 0 1 -0.26,1.67 c 0,0.16 0.28,0.65 0.09,1 -0.19,0.35 -0.31,0.6 0.17,0.91 A 5.37,5.37 0 0 1 35,32.76 c 0.48,1 0.32,0.87 0.32,0.87 a 1.93,1.93 0 0 0 0.22,-0.73 2.33,2.33 0 0 0 -0.28,-1.37 3.15,3.15 0 0 0 -1,-1.28 c -0.39,-0.21 -1,-0.72 -1,-1.18 0,-0.46 0.21,-2.25 0.21,-2.25 a 1.64,1.64 0 0 0 -0.84,-0.51"
       id="path1827"
       style="fill:url(#linear-gradient-23);stroke-width:0.806356" />
    <path
       class="cls-49"
       d="m 26,27.83 v 0 c -0.06,-0.05 -0.33,-0.35 -0.26,-1.3 0.07,-0.95 0,-1.79 0,-2.34 a 4,4 0 0 1 0.62,-1.67 c 0.21,-0.32 0.1,-0.47 0.1,-0.47"
       id="path1829" />
    <path
       class="cls-56"
       d="m 29.11,32.26 v 0 a 1.23,1.23 0 0 1 -0.75,1 0.89,0.89 0 0 1 -0.85,-0.17 v 0 c -0.36,-0.91 -0.72,-1.84 -0.8,-2.05 a 4,4 0 0 1 -0.34,-1.27 c 0,-0.37 -0.43,-2.75 -0.39,-2.87 a 1.6,1.6 0 0 1 1.62,-1.2 c 0.73,0 1.24,0.94 1.53,1.57 a 12.62,12.62 0 0 1 -0.31,1.32 4.38,4.38 0 0 0 -0.15,0.64 7.52,7.52 0 0 0 -0.12,1.54 3.84,3.84 0 0 1 0.56,1.49 z"
       id="path1831"
       style="fill:url(#linear-gradient-24);stroke-width:0.806356" />
    <path
       class="cls-57"
       d="m 27.28,25.82 c 0.26,0 0.73,0.24 0.85,1.16 a 10.1,10.1 0 0 1 -0.4,2.45 c 0,0.35 0.13,1 0.12,1.33 -0.01,0.33 0.36,0.76 0.53,1.39 a 3.47,3.47 0 0 1 0.14,1 c 0,0 0.61,-0.51 0.59,-0.82 a 11.25,11.25 0 0 0 -0.57,-1.54 12.44,12.44 0 0 1 0.29,-2.44 l 0.23,-0.94 a 2.17,2.17 0 0 0 -0.6,-1.29 1.73,1.73 0 0 0 -0.87,-0.4"
       id="path1833"
       style="fill:url(#linear-gradient-25);stroke-width:0.806356" />
    <path
       class="cls-49"
       d="m 30.62,27.38 a 2.09,2.09 0 0 0 -0.12,0.78 c 0,0 -0.15,-0.74 -0.24,-1.34 a 2.24,2.24 0 0 0 -0.31,-0.88 6.14,6.14 0 0 1 -0.1,1.3 c -0.11,0.43 -0.23,1.32 -0.23,1.32 a 2.8,2.8 0 0 0 -0.26,-0.81 c -0.19,-0.33 -0.77,-2.08 -1.77,-2.08 a 1.6,1.6 0 0 0 -1.59,1.2 1.65,1.65 0 0 0 0,0.95"
       id="path1835" />
    <path
       class="cls-49"
       d="m 33.51,26.87 a 1.3,1.3 0 0 0 -1,-0.53 1.69,1.69 0 0 0 -1.81,0.84 c 0,0.07 -0.05,0.13 -0.07,0.19"
       id="path1837" />
    <path
       class="cls-49"
       d="m 33,21.71 c 0,0 0.34,0.31 0.31,0.58 a 3.1,3.1 0 0 0 0.16,1.27 18.67,18.67 0 0 1 0.24,1.89 4.2,4.2 0 0 1 0,1.73 1,1 0 0 0 -0.16,-0.3"
       id="path1839" />
    <path
       class="cls-49"
       d="m 29.72,24 a 5.33,5.33 0 0 0 0,1.24 3.7,3.7 0 0 0 0.23,0.7"
       id="path1841" />
    <path
       class="cls-49"
       d="m 27.5,33.06 c -0.36,-0.91 -0.72,-1.84 -0.8,-2.05 a 4,4 0 0 1 -0.34,-1.27 c 0,-0.37 -0.43,-2.75 -0.39,-2.87"
       id="path1843" />
    <path
       class="cls-49"
       d="m 29.11,32.28 c 0.22,1.06 0.52,2.25 0.61,2.67 0.09,0.42 -0.28,0.63 -0.61,0.71 -0.33,0.08 -0.47,-0.06 -0.67,-0.36 a 2.81,2.81 0 0 1 -0.18,-0.35 c -0.12,-0.26 -0.43,-1.06 -0.75,-1.88"
       id="path1845" />
    <path
       class="cls-49"
       d="m 29.12,27.24 a 12.62,12.62 0 0 1 -0.31,1.32 4.38,4.38 0 0 0 -0.15,0.64 7.52,7.52 0 0 0 -0.12,1.54 3.84,3.84 0 0 1 0.57,1.52"
       id="path1847" />
    <path
       class="cls-49"
       d="m 27.5,33.06 v 0 a 0.89,0.89 0 0 0 0.85,0.17 1.23,1.23 0 0 0 0.75,-1 v 0"
       id="path1849" />
    <path
       class="cls-49"
       d="m 34,33.68 -0.39,-0.49 c -0.85,-1 -1.56,-2 -1.69,-2.13 a 3.21,3.21 0 0 1 -0.78,-0.61 2,2 0 0 1 -0.35,-1.32 c 0,-0.65 -0.11,-1.64 -0.12,-1.75 v 0"
       id="path1851" />
    <path
       class="cls-49"
       d="m 33.51,26.87 v 0 c 0,0.11 -0.09,0.8 -0.16,1.31 a 3.59,3.59 0 0 0 0,1 2.92,2.92 0 0 0 0.73,0.94 4,4 0 0 1 1.4,1.88 l 0.18,0.52 a 15.42,15.42 0 0 0 0.88,2.28 v 0 a 0.39,0.39 0 0 0 0.06,0.11 c 0,0 0.16,0.5 -0.53,0.8 A 0.79,0.79 0 0 1 35.21,35.47 L 35.14,35.34 A 13.35,13.35 0 0 0 34,33.69"
       id="path1853" />
    <path
       class="cls-49"
       d="m 34,33.68 v 0 a 1.11,1.11 0 0 0 1.7,-1.14 v 0"
       id="path1855" />
    <path
       class="cls-49"
       d="m 29.62,28.56 c 0,0.35 -0.31,0.68 -1,0.64"
       id="path1857" />
    <path
       class="cls-49"
       d="m 26,27.83 0.15,0.22"
       id="path1859" />
    <path
       class="cls-58"
       d="m 26.1,16.74 c -0.27,0.4 -0.86,1.28 -1.53,2.1 v -0.06 c 0.12,-0.2 0.24,-0.39 0.32,-0.55 a 15.85,15.85 0 0 0 0.61,-1.62 2.34,2.34 0 0 0 0.42,-0.4 2.12,2.12 0 0 0 0.44,0.06 0.33,0.33 0 0 1 0,0.14 c -0.1,0.1 -0.18,0.21 -0.26,0.33 z"
       id="path1861"
       style="fill:url(#linearGradient2585);stroke-width:0.806356" />
    <path
       class="cls-59"
       d="m 26.1,16.74 c -0.27,0.4 -0.86,1.28 -1.53,2.1 v -0.06 c 0.12,-0.2 0.24,-0.39 0.32,-0.55 a 15.85,15.85 0 0 0 0.61,-1.62 2.34,2.34 0 0 0 0.42,-0.4 2.12,2.12 0 0 0 0.44,0.06 0.33,0.33 0 0 1 0,0.14 c -0.1,0.1 -0.18,0.21 -0.26,0.33 z"
       id="path1863"
       style="fill:url(#linear-gradient-27);stroke-width:0.806356" />
    <path
       class="cls-60"
       d="m 25.88,16.21 a 2.34,2.34 0 0 1 -0.42,0.4 15.85,15.85 0 0 1 -0.61,1.62 c -0.08,0.16 -0.2,0.35 -0.32,0.55 a 7.05,7.05 0 0 1 -0.59,0.79 1.21,1.21 0 0 1 -0.26,0.23 0.9,0.9 0 0 1 -0.82,-0.09 3.17,3.17 0 0 1 -0.12,-1 2.37,2.37 0 0 1 0.33,-1.29 c 0.28,-0.37 1,-1.26 1,-1.26 a 2.71,2.71 0 0 0 -0.24,-0.85 3.51,3.51 0 0 1 -0.24,-1.49 0.67,0.67 0 0 1 0.48,-0.48 h 0.06 a 1.9,1.9 0 0 0 -0.07,0.54 2.39,2.39 0 0 0 1.2,2.12 2.6,2.6 0 0 0 0.62,0.21 z"
       id="path1865"
       style="fill:url(#linear-gradient-28);stroke-width:0.806356" />
    <path
       class="cls-61"
       d="m 25.88,16.21 a 2.34,2.34 0 0 1 -0.42,0.4 15.85,15.85 0 0 1 -0.61,1.62 c -0.08,0.16 -0.2,0.35 -0.32,0.55 a 7.05,7.05 0 0 1 -0.59,0.79 1.21,1.21 0 0 1 -0.26,0.23 0.87,0.87 0 0 1 -0.71,0 c 0.37,0 1,-1.44 1.38,-2.16 a 4.84,4.84 0 0 0 0.47,-1.09 c 0,-0.17 -0.27,-0.81 -0.29,-1.1 a 0.06,0.06 0 0 1 0,-0.06 2.33,2.33 0 0 0 1.3,0.85 z"
       id="path1867"
       style="fill:url(#linear-gradient-29);stroke-width:0.806356" />
    <path
       class="cls-62"
       d="m 24.57,18.84 c -0.2,0.25 -0.42,0.5 -0.63,0.73 a 7.05,7.05 0 0 0 0.59,-0.79 z"
       id="path1869"
       style="fill:url(#linear-gradient-30);stroke-width:0.806356" />
    <path
       class="cls-49"
       d="M 24.16,13.37 H 24.1 a 0.67,0.67 0 0 0 -0.48,0.48 3.51,3.51 0 0 0 0.24,1.49 2.71,2.71 0 0 1 0.24,0.85 c 0,0 -0.75,0.89 -1,1.26 a 2.37,2.37 0 0 0 -0.33,1.29 3.17,3.17 0 0 0 0.12,1 0.9,0.9 0 0 0 0.82,0.09 1.21,1.21 0 0 0 0.26,-0.23 7.05,7.05 0 0 0 0.59,-0.79 c 0.12,-0.2 0.24,-0.39 0.32,-0.55 a 15.85,15.85 0 0 0 0.61,-1.62 2.34,2.34 0 0 0 0.42,-0.4 A 0.44,0.44 0 0 0 26,16 1.08,1.08 0 0 0 25.95,15.57 8.38,8.38 0 0 0 25.45,14.19 1.84,1.84 0 0 0 24.16,13.37 Z"
       id="path1871" />
    <path
       class="cls-37"
       d="M 28.8,14.86 H 28.63 A 2.58,2.58 0 0 1 27.21,14.4 l -0.91,0.85 c 0,0.14 0,0.3 0,0.48 0,0.18 0,0.35 0,0.55 a 0.33,0.33 0 0 1 0,0.14 c 0,0.76 0,1.66 0,2.45 0,0.79 -0.11,1.36 -0.16,1.82 -0.05,0.46 -0.07,0.59 -0.07,0.68 a 0.87,0.87 0 0 0 0.34,0.68 5.22,5.22 0 0 0 0.64,0.08 c 0.46,0 1.23,0.08 2.42,0.08 A 8.78,8.78 0 0 0 33,21.71 l 0.12,-0.06 c 0.22,-0.15 0,-0.39 -0.18,-0.61 -0.18,-0.22 0,-0.82 0.07,-1.22"
       id="path1873"
       style="stroke-width:0.806356" />
    <path
       class="cls-63"
       d="M 28.8,14.86 H 28.63 A 2.58,2.58 0 0 1 27.21,14.4 l -0.91,0.85 c 0,0.14 0,0.3 0,0.48 0,0.18 0,0.35 0,0.55 a 0.33,0.33 0 0 1 0,0.14 c 0,0.76 0,1.66 0,2.45 0,0.79 -0.11,1.36 -0.16,1.82 -0.05,0.46 -0.07,0.59 -0.07,0.68 a 0.87,0.87 0 0 0 0.34,0.68 5.22,5.22 0 0 0 0.64,0.08 c 0.46,0 1.23,0.08 2.42,0.08 A 8.78,8.78 0 0 0 33,21.71 l 0.12,-0.06 c 0.22,-0.15 0,-0.39 -0.18,-0.61 -0.18,-0.22 0,-0.82 0.07,-1.22"
       id="path1875"
       style="fill:url(#linear-gradient-31);stroke-width:0.806356" />
    <path
       class="cls-49"
       d="M 28.8,14.86 H 28.63 A 2.58,2.58 0 0 1 27.21,14.4 l -0.91,0.85 c 0,0.14 0,0.3 0,0.48 0,0.18 0,0.35 0,0.55 a 0.33,0.33 0 0 1 0,0.14 c 0,0.76 0,1.66 0,2.45 0,0.79 -0.11,1.36 -0.16,1.82 -0.05,0.46 -0.07,0.59 -0.07,0.68 a 0.87,0.87 0 0 0 0.34,0.68 5.22,5.22 0 0 0 0.64,0.08 c 0.46,0 1.23,0.08 2.42,0.08 A 8.78,8.78 0 0 0 33,21.71 l 0.12,-0.06 c 0.22,-0.15 0,-0.39 -0.18,-0.61 -0.18,-0.22 0,-0.82 0.07,-1.22"
       id="path1877" />
    <path
       class="cls-64"
       d="m 31.19,11.33 a 2.14,2.14 0 0 0 0.25,1 4.69,4.69 0 0 1 -0.38,1.07 3.26,3.26 0 0 1 -1.13,1.13 c -0.21,-0.32 -0.81,-1.71 -0.91,-1.8 l -0.3,-0.29 a 3.64,3.64 0 0 0 0.07,-0.83 0.88,0.88 0 0 1 -0.42,-0.16 C 28.12,11.31 28.21,10.4 28.42,9.5 a 4.62,4.62 0 0 1 0.66,-1.53 2,2 0 0 1 1.5,0.3 3.17,3.17 0 0 1 0,0.83 c -0.08,0.35 -0.16,0.5 0,0.63 0.16,0.13 0.36,0 0.55,0 a 0.36,0.36 0 0 1 0.52,0.31 0.75,0.75 0 0 1 -0.14,0.51 c 0,0 -0.14,0 -0.18,0 -0.04,0 -0.1,0.39 -0.14,0.78 z"
       id="path1879"
       style="fill:url(#linear-gradient-32);stroke-width:0.806356" />
    <path
       class="cls-65"
       d="m 29.86,12.69 c 0.29,0.4 0.8,0.43 1,0.19 0.2,-0.24 0.11,-0.31 0,-0.68 v 0 c -0.41,-0.58 -0.24,-1.24 -0.57,-1 a 4.47,4.47 0 0 1 -1.47,0.42 c 0,0 0,0.14 0,0.32 a 4.12,4.12 0 0 1 1.04,0.75 z"
       id="path1881"
       style="fill:url(#linear-gradient-33);stroke-width:0.806356" />
    <path
       class="cls-66"
       d="m 33,19.81 v 0 a 0.64,0.64 0 0 1 -0.2,0.05 0.71,0.71 0 0 0 0.2,-0.05 z"
       id="path1883"
       style="stroke-width:0.806356" />
    <path
       class="cls-67"
       d="M 31.86,16.55 Z"
       id="path1885"
       style="fill:url(#linear-gradient-34);stroke-width:0.806356" />
    <path
       class="cls-66"
       d="M 31.86,16.55 A 16.89,16.89 0 0 1 29.94,14.5 v 0 a 3.26,3.26 0 0 0 1.13,-1.13 4.69,4.69 0 0 0 0.38,-1.07 c 0.19,0.27 0.9,0.43 0.9,0.43 v 0 c 0,0.13 -0.26,1 -0.56,2.31 a 2.58,2.58 0 0 0 0.08,1.47 z"
       id="path1887"
       style="stroke-width:0.806356" />
    <path
       class="cls-68"
       d="m 28.71,14.55 a 1,1 0 0 1 -0.08,0.21 2.36,2.36 0 0 1 -2.17,1.43 h -0.14 a 2.12,2.12 0 0 1 -0.44,-0.06 2.6,2.6 0 0 1 -0.62,-0.25 2.39,2.39 0 0 1 -1.17,-2 1.9,1.9 0 0 1 0.07,-0.54 2.35,2.35 0 0 1 3.58,-1.46 0.29,0.29 0 0 0 -0.15,0.27 7.6,7.6 0 0 0 0.14,1.71 c 0.12,0.27 0.3,0.27 0.49,0.34 a 1.94,1.94 0 0 1 0.37,0.17 c 0,0 0.04,0.03 0.12,0.18 z"
       id="path1889" />
    <path
       class="cls-11"
       d="m 28.82,13.82 a 2.34,2.34 0 0 0 -2.33,-2.34 2.29,2.29 0 0 0 -1.65,0.69 2.33,2.33 0 1 0 4,1.65 z"
       id="path1891"
       style="stroke-width:0.806356" />
    <path
       class="cls-69"
       d="m 24.84,12.18 a 2.3,2.3 0 0 0 -0.67,1.62 2.29,2.29 0 0 0 2.28,2.27 2.28,2.28 0 0 0 1.61,-0.67 2.31,2.31 0 0 0 0.67,-1.6 2.26,2.26 0 0 0 -0.66,-1.63 2.31,2.31 0 0 0 -1.62,-0.66 2.28,2.28 0 0 0 -1.61,0.67 z"
       id="path1893"
       style="stroke-width:0.806356" />
    <path
       class="cls-70"
       d="M 24.85,12.2 A 2.14,2.14 0 0 0 24.2,13.77 2.2,2.2 0 0 0 26.42,16 2.2,2.2 0 0 0 28,15.34 a 2.32,2.32 0 0 0 0.66,-1.57 2.19,2.19 0 0 0 -0.65,-1.6 2.26,2.26 0 0 0 -1.57,-0.64 2.22,2.22 0 0 0 -1.59,0.67 z"
       id="path1895"
       style="stroke-width:0.806356" />
    <path
       class="cls-13"
       d="m 24.85,12.21 a 2.19,2.19 0 0 0 -0.63,1.54 2.14,2.14 0 0 0 0.64,1.54 2.21,2.21 0 0 0 1.53,0.62 2.17,2.17 0 0 0 1.51,-0.64 2.2,2.2 0 0 0 0.64,-1.52 2.09,2.09 0 0 0 -0.62,-1.57 2.17,2.17 0 0 0 -3.07,0 z"
       id="path1897"
       style="stroke-width:0.806356" />
    <path
       class="cls-71"
       d="m 24.85,12.22 a 2.17,2.17 0 0 0 -0.61,1.51 2.08,2.08 0 0 0 0.63,1.5 2.09,2.09 0 0 0 2.95,0 2.2,2.2 0 0 0 0.63,-1.48 2,2 0 0 0 -0.61,-1.55 2.11,2.11 0 0 0 -3,0 z"
       id="path1899"
       style="stroke-width:0.806356" />
    <path
       class="cls-72"
       d="m 24.86,12.24 a 2.11,2.11 0 0 0 -0.6,1.47 2,2 0 0 0 2.06,2 2,2 0 0 0 1.43,-0.6 2.16,2.16 0 0 0 0.6,-1.43 1.93,1.93 0 0 0 -0.58,-1.52 2,2 0 0 0 -1.46,-0.58 2.08,2.08 0 0 0 -1.45,0.66 z"
       id="path1901"
       style="stroke-width:0.806356" />
    <path
       class="cls-15"
       d="m 24.86,12.25 a 2.06,2.06 0 0 0 -0.58,1.44 2,2 0 0 0 2,2 2,2 0 0 0 1.39,-0.59 2.12,2.12 0 0 0 0.59,-1.38 1.88,1.88 0 0 0 -0.57,-1.5 2,2 0 0 0 -1.41,-0.55 2,2 0 0 0 -1.42,0.58 z"
       id="path1903"
       style="stroke-width:0.806356" />
    <path
       class="cls-73"
       d="m 24.86,12.27 a 2,2 0 0 0 -0.56,1.4 1.89,1.89 0 0 0 0.59,1.38 1.92,1.92 0 0 0 1.36,0.53 2,2 0 0 0 1.34,-0.58 2.1,2.1 0 0 0 0.57,-1.34 1.82,1.82 0 0 0 -0.54,-1.48 2,2 0 0 0 -2.76,0.08 z"
       id="path1905"
       style="stroke-width:0.806356" />
    <path
       class="cls-74"
       d="m 24.87,12.28 a 2,2 0 0 0 -0.55,1.37 1.84,1.84 0 0 0 0.58,1.35 1.86,1.86 0 0 0 2.61,-0.05 2.06,2.06 0 0 0 0.56,-1.3 1.76,1.76 0 0 0 -0.53,-1.44 1.84,1.84 0 0 0 -1.34,-0.51 1.89,1.89 0 0 0 -1.33,0.58 z"
       id="path1907"
       style="stroke-width:0.806356" />
    <path
       class="cls-17"
       d="m 24.87,12.3 a 1.9,1.9 0 0 0 -0.53,1.33 1.78,1.78 0 0 0 0.57,1.3 1.8,1.8 0 0 0 2.52,0 A 2,2 0 0 0 28,13.62 1.67,1.67 0 0 0 27.5,12.2 1.87,1.87 0 0 0 26.2,11.71 1.92,1.92 0 0 0 24.87,12.3 Z"
       id="path1909"
       style="stroke-width:0.806356" />
    <path
       class="cls-75"
       d="m 24.87,12.31 a 1.93,1.93 0 0 0 -0.51,1.29 1.71,1.71 0 0 0 0.56,1.27 1.73,1.73 0 0 0 2.43,-0.06 2,2 0 0 0 0.53,-1.21 1.6,1.6 0 0 0 -0.49,-1.39 1.76,1.76 0 0 0 -1.26,-0.47 1.83,1.83 0 0 0 -1.26,0.57 z"
       id="path1911"
       style="stroke-width:0.806356" />
    <path
       class="cls-76"
       d="m 24.88,12.33 a 1.8,1.8 0 0 0 -0.5,1.25 1.68,1.68 0 0 0 2.89,1.16 1.9,1.9 0 0 0 0.51,-1.16 1.54,1.54 0 0 0 -0.46,-1.37 1.71,1.71 0 0 0 -1.22,-0.45 1.78,1.78 0 0 0 -1.22,0.57 z"
       id="path1913"
       style="stroke-width:0.806356" />
    <path
       class="cls-19"
       d="m 24.88,12.34 a 1.82,1.82 0 0 0 -0.48,1.22 1.63,1.63 0 0 0 0.53,1.19 1.65,1.65 0 0 0 1.15,0.42 1.63,1.63 0 0 0 1.11,-0.49 1.87,1.87 0 0 0 0.5,-1.12 1.49,1.49 0 0 0 -0.45,-1.35 1.68,1.68 0 0 0 -1.18,-0.42 1.72,1.72 0 0 0 -1.18,0.55 z"
       id="path1915"
       style="stroke-width:0.806356" />
    <path
       class="cls-77"
       d="M 24.89,12.36 A 1.73,1.73 0 0 0 24.42,13.54 1.57,1.57 0 0 0 26,15.09 1.57,1.57 0 0 0 27.07,14.61 1.86,1.86 0 0 0 27.56,13.54 1.45,1.45 0 0 0 27.13,12.22 1.59,1.59 0 0 0 26,11.81 1.7,1.7 0 0 0 24.89,12.36 Z"
       id="path1917"
       style="stroke-width:0.806356" />
    <path
       class="cls-78"
       d="M 24.89,12.37 A 1.69,1.69 0 0 0 24.44,13.52 1.51,1.51 0 0 0 26,15 a 1.52,1.52 0 0 0 1,-0.46 1.82,1.82 0 0 0 0.47,-1 1.34,1.34 0 0 0 -0.41,-1.29 1.57,1.57 0 0 0 -1.1,-0.38 1.62,1.62 0 0 0 -1.07,0.5 z"
       id="path1919"
       style="stroke-width:0.806356" />
    <path
       class="cls-21"
       d="m 24.89,12.39 a 1.69,1.69 0 0 0 -0.43,1.11 1.45,1.45 0 0 0 0.5,1.07 1.43,1.43 0 0 0 1,0.36 1.45,1.45 0 0 0 1,-0.45 1.82,1.82 0 0 0 0.46,-1 1.3,1.3 0 0 0 -0.42,-1.25 1.5,1.5 0 0 0 -1,-0.36 1.54,1.54 0 0 0 -1.11,0.52 z"
       id="path1921"
       style="stroke-width:0.806356" />
    <path
       class="cls-22"
       d="m 24.9,12.4 a 1.55,1.55 0 0 0 -0.41,1.08 1.29,1.29 0 0 0 0.48,1 1.34,1.34 0 0 0 1,0.35 1.41,1.41 0 0 0 0.93,-0.44 1.65,1.65 0 0 0 0.44,-0.94 1.23,1.23 0 0 0 -0.37,-1.24 1.41,1.41 0 0 0 -1,-0.34 1.52,1.52 0 0 0 -1.07,0.53 z"
       id="path1923"
       style="stroke-width:0.806356" />
    <path
       class="cls-79"
       d="m 24.9,12.42 a 1.52,1.52 0 0 0 -0.39,1 1.26,1.26 0 0 0 0.46,1 1.36,1.36 0 0 0 0.94,0.33 1.38,1.38 0 0 0 0.89,-0.42 1.79,1.79 0 0 0 0.42,-0.9 1.21,1.21 0 0 0 -0.35,-1.22 1.42,1.42 0 0 0 -1,-0.31 1.44,1.44 0 0 0 -0.97,0.52 z"
       id="path1925"
       style="stroke-width:0.806356" />
    <path
       class="cls-80"
       d="m 24.9,12.43 a 1.51,1.51 0 0 0 -0.37,1 1.19,1.19 0 0 0 0.45,1 1.22,1.22 0 0 0 0.89,0.3 1.31,1.31 0 0 0 0.85,-0.4 1.64,1.64 0 0 0 0.4,-0.85 1.11,1.11 0 0 0 -0.33,-1.19 1.29,1.29 0 0 0 -0.94,-0.3 1.45,1.45 0 0 0 -0.95,0.44 z"
       id="path1927"
       style="stroke-width:0.806356" />
    <path
       class="cls-24"
       d="m 24.91,12.45 a 1.38,1.38 0 0 0 -0.36,1 1.13,1.13 0 0 0 0.44,0.91 1.17,1.17 0 0 0 0.85,0.28 1.26,1.26 0 0 0 0.8,-0.38 1.7,1.7 0 0 0 0.39,-0.81 1.09,1.09 0 0 0 -0.31,-1.17 1.3,1.3 0 0 0 -0.91,-0.27 1.35,1.35 0 0 0 -0.9,0.44 z"
       id="path1929"
       style="stroke-width:0.806356" />
    <path
       class="cls-81"
       d="m 24.91,12.46 a 1.4,1.4 0 0 0 -0.34,0.93 1.06,1.06 0 0 0 0.43,0.87 1.08,1.08 0 0 0 0.8,0.26 1.15,1.15 0 0 0 0.76,-0.37 1.63,1.63 0 0 0 0.37,-0.77 1,1 0 0 0 -0.29,-1.13 1.21,1.21 0 0 0 -0.86,-0.26 1.35,1.35 0 0 0 -0.87,0.47 z"
       id="path1931"
       style="stroke-width:0.806356" />
    <path
       class="cls-82"
       d="m 24.92,12.47 a 1.33,1.33 0 0 0 -0.33,0.9 1.11,1.11 0 0 0 1.18,1.07 1.2,1.2 0 0 0 0.71,-0.35 1.62,1.62 0 0 0 0.36,-0.73 1,1 0 0 0 -0.27,-1.11 1.15,1.15 0 0 0 -0.83,-0.23 1.24,1.24 0 0 0 -0.82,0.45 z"
       id="path1933"
       style="stroke-width:0.806356" />
    <path
       class="cls-26"
       d="m 24.92,12.49 a 1.31,1.31 0 0 0 -0.31,0.86 1,1 0 0 0 0.4,0.79 1.08,1.08 0 0 0 0.72,0.22 1.14,1.14 0 0 0 0.67,-0.36 1.7,1.7 0 0 0 0.35,-0.68 0.93,0.93 0 0 0 -0.26,-1.08 1.11,1.11 0 0 0 -0.78,-0.22 1.26,1.26 0 0 0 -0.79,0.47 z"
       id="path1935"
       style="stroke-width:0.806356" />
    <path
       class="cls-83"
       d="m 24.92,12.5 a 1.29,1.29 0 0 0 -0.29,0.83 0.94,0.94 0 0 0 0.39,0.75 1,1 0 0 0 0.68,0.2 1,1 0 0 0 0.62,-0.33 1.47,1.47 0 0 0 0.33,-0.63 0.88,0.88 0 0 0 -0.23,-1.06 1,1 0 0 0 -0.75,-0.19 1.21,1.21 0 0 0 -0.75,0.43 z"
       id="path1937"
       style="stroke-width:0.806356" />
    <path
       class="cls-84"
       d="M 24.93,12.52 A 1.18,1.18 0 0 0 24.65,13.31 0.9,0.9 0 0 0 25,14 a 0.94,0.94 0 0 0 0.64,0.18 1,1 0 0 0 0.57,-0.31 1.7,1.7 0 0 0 0.32,-0.59 0.84,0.84 0 0 0 -0.22,-1 1,1 0 0 0 -0.71,-0.16 1.11,1.11 0 0 0 -0.67,0.4 z"
       id="path1939"
       style="stroke-width:0.806356" />
    <path
       class="cls-28"
       d="m 24.93,12.53 a 1.2,1.2 0 0 0 -0.26,0.75 0.87,0.87 0 0 0 1,0.83 0.9,0.9 0 0 0 0.53,-0.29 1.44,1.44 0 0 0 0.3,-0.54 c 0.18,-0.49 0.08,-0.83 -0.19,-1 a 0.91,0.91 0 0 0 -0.67,-0.15 1.07,1.07 0 0 0 -0.71,0.4 z"
       id="path1941"
       style="stroke-width:0.806356" />
    <path
       class="cls-85"
       d="m 24.93,12.55 a 1.17,1.17 0 0 0 -0.24,0.71 0.78,0.78 0 0 0 0.36,0.64 0.74,0.74 0 0 0 0.55,0.13 0.86,0.86 0 0 0 0.48,-0.27 1.53,1.53 0 0 0 0.29,-0.51 c 0.19,-0.47 0.09,-0.8 -0.18,-1 a 0.84,0.84 0 0 0 -0.63,-0.12 1.07,1.07 0 0 0 -0.63,0.42 z"
       id="path1943"
       style="stroke-width:0.806356" />
    <path
       class="cls-86"
       d="m 24.94,12.56 a 1.18,1.18 0 0 0 -0.23,0.68 0.71,0.71 0 0 0 0.34,0.6 0.69,0.69 0 0 0 0.51,0.11 0.8,0.8 0 0 0 0.44,-0.26 1.43,1.43 0 0 0 0.27,-0.46 c 0.21,-0.47 0.11,-0.79 -0.15,-1 a 0.8,0.8 0 0 0 -0.59,-0.11 1,1 0 0 0 -0.59,0.44 z"
       id="path1945"
       style="stroke-width:0.806356" />
    <path
       class="cls-30"
       d="m 24.94,12.58 a 1.11,1.11 0 0 0 -0.21,0.64 0.66,0.66 0 0 0 0.33,0.56 0.68,0.68 0 0 0 0.47,0.09 0.82,0.82 0 0 0 0.4,-0.25 1.73,1.73 0 0 0 0.25,-0.41 c 0.22,-0.46 0.12,-0.78 -0.14,-0.93 a 0.73,0.73 0 0 0 -0.55,-0.08 0.91,0.91 0 0 0 -0.55,0.38 z"
       id="path1947"
       style="stroke-width:0.806356" />
    <path
       class="cls-87"
       d="m 25,12.59 a 1,1 0 0 0 -0.19,0.61 0.57,0.57 0 0 0 0.31,0.52 0.59,0.59 0 0 0 0.42,0.07 0.77,0.77 0 0 0 0.36,-0.23 1.62,1.62 0 0 0 0.23,-0.37 c 0.24,-0.45 0.14,-0.76 -0.11,-0.91 A 0.74,0.74 0 0 0 25.51,12.22 0.9,0.9 0 0 0 25,12.59 Z"
       id="path1949"
       style="stroke-width:0.806356" />
    <path
       class="cls-88"
       d="m 25,12.61 a 1,1 0 0 0 -0.17,0.57 0.56,0.56 0 0 0 0.68,0.53 0.74,0.74 0 0 0 0.31,-0.22 3.62,3.62 0 0 0 0.22,-0.32 c 0.26,-0.44 0.15,-0.75 -0.1,-0.88 a 0.62,0.62 0 0 0 -0.47,0 0.88,0.88 0 0 0 -0.47,0.32 z"
       id="path1951"
       style="stroke-width:0.806356" />
    <path
       class="cls-32"
       d="m 25.89,13.15 c 0.29,-0.43 0.17,-0.74 -0.07,-0.86 a 0.6,0.6 0 0 0 -0.44,0 0.93,0.93 0 0 0 -0.43,0.35 0.92,0.92 0 0 0 -0.15,0.54 0.48,0.48 0 0 0 0.29,0.44 c 0.38,0.16 0.62,-0.2 0.8,-0.47 z"
       id="path1953"
       style="stroke-width:0.806356" />
    <path
       class="cls-37"
       d="m 31.86,16.55 v 0 0 a 2.58,2.58 0 0 1 -0.08,-1.47 c 0.3,-1.32 0.52,-2.18 0.56,-2.31 v 0 c 0,0 -0.71,-0.16 -0.9,-0.43 a 4.69,4.69 0 0 1 -0.38,1.07 3.26,3.26 0 0 1 -1.13,1.13"
       id="path1955"
       style="stroke-width:0.806356" />
    <path
       class="cls-89"
       d="m 31.86,16.55 v 0 0 a 2.58,2.58 0 0 1 -0.08,-1.47 c 0.3,-1.32 0.52,-2.18 0.56,-2.31 v 0 c 0,0 -0.71,-0.16 -0.9,-0.43 a 4.69,4.69 0 0 1 -0.38,1.07 3.26,3.26 0 0 1 -1.13,1.13"
       id="path1957"
       style="fill:url(#linear-gradient-35);stroke-width:0.806356" />
    <path
       class="cls-49"
       d="m 28.72,12.4 a 3.64,3.64 0 0 0 0.07,-0.83"
       id="path1959" />
    <path
       class="cls-49"
       d="M 29.13,11.56 H 28.79 A 0.88,0.88 0 0 1 28.37,11.4 c -0.25,-0.14 -0.16,-1.05 0.05,-1.95 a 5.34,5.34 0 0 1 1,-1.85"
       id="path1961" />
    <path
       class="cls-49"
       d="m 31.44,12.29 a 2.14,2.14 0 0 1 -0.25,-1 c 0,-0.39 0.16,-1.07 0.16,-1.07"
       id="path1963" />
    <path
       class="cls-90"
       d="m 34.49,16.17 a 6.5,6.5 0 0 1 -0.8,2.88 1.63,1.63 0 0 1 -0.72,0.77 v 0 a 0.71,0.71 0 0 1 -0.2,0.06 1.63,1.63 0 0 1 -1.1,-0.55 4.93,4.93 0 0 1 -1.34,-1.92 c -0.32,-0.9 -0.71,-1.83 -0.71,-1.83 L 29.25,15.44 A 1,1 0 0 1 28.8,14.87 1.71,1.71 0 0 1 28.71,14.65 C 28.63,14.5 28.59,14.41 28.59,14.41 A 1.94,1.94 0 0 0 28.22,14.24 C 28.03,14.17 27.85,14.17 27.73,13.9 a 7.6,7.6 0 0 1 -0.14,-1.71 0.29,0.29 0 0 1 0.15,-0.27 0.35,0.35 0 0 1 0.3,0 2.46,2.46 0 0 1 0.68,0.51 l 0.3,0.29 c 0.1,0.09 0.7,1.48 0.91,1.8 v 0 a 16.89,16.89 0 0 0 1.92,2.05 v 0 0 A 2.58,2.58 0 0 1 31.77,15.1 c 0.3,-1.32 0.52,-2.18 0.56,-2.31 v 0 l 1,0.11 a 1.44,1.44 0 0 1 1.41,1.1 5,5 0 0 1 -0.25,2.17 z"
       id="path1965"
       style="fill:url(#linear-gradient-36);stroke-width:0.806356" />
    <path
       class="cls-91"
       d="m 32.89,12.87 c 0.46,0.11 1.08,0.29 1.16,1.08 0.08,0.79 -0.37,1 -0.44,1.24 a 4.85,4.85 0 0 1 0,1.39 c -0.19,0.62 -0.47,0.7 -0.47,0.7 0,0 0.61,1.3 0.31,1.93 -0.3,0.63 0.35,-0.33 0.47,-0.71 a 12.77,12.77 0 0 0 0.55,-2.06 c 0.08,-0.64 0.28,-1.16 0.3,-1.75 0.02,-0.59 0.05,-1.43 -0.58,-1.7"
       id="path1967"
       style="fill:url(#linear-gradient-37);stroke-width:0.806356" />
    <path
       class="cls-92"
       d="m 29.72,15.44 a 7.81,7.81 0 0 1 1.21,1.84 6.22,6.22 0 0 0 2,2 c 0.39,0.09 0.74,-0.44 0.74,-0.44 0,0 -0.24,0.89 -0.76,1 A 1.49,1.49 0 0 1 31.69,19.37 4.61,4.61 0 0 1 30.43,17.7 c -0.22,-0.61 -0.66,-1.71 -0.66,-1.71"
       id="path1969"
       style="fill:url(#linear-gradient-38);stroke-width:0.806356" />
    <path
       class="cls-93"
       d="m 32.2,13.38 a 5,5 0 0 0 0.19,1.9 c 0.09,0.16 -0.36,0.21 -0.52,0.76 -0.16,0.55 -0.36,-0.4 -0.14,-1.1"
       id="path1971"
       style="fill:url(#linear-gradient-39);stroke-width:0.806356" />
    <path
       class="cls-49"
       d="m 32.45,15.36 a 0.89,0.89 0 0 0 -0.43,0.45 2.51,2.51 0 0 0 -0.16,0.71 v 0 a 16.89,16.89 0 0 1 -1.92,-2.05 v 0 c -0.21,-0.32 -0.81,-1.71 -0.91,-1.8 l -0.3,-0.29 a 2.46,2.46 0 0 0 -0.68,-0.51 0.35,0.35 0 0 0 -0.3,0 0.29,0.29 0 0 0 -0.15,0.27 7.6,7.6 0 0 0 0.14,1.71 c 0.12,0.27 0.3,0.27 0.49,0.34 a 1.94,1.94 0 0 1 0.37,0.17 c 0,0 0,0.09 0.12,0.24 a 1.71,1.71 0 0 0 0.09,0.22 1,1 0 0 0 0.45,0.57 l 0.37,0.14 c 0,0 0.39,0.93 0.71,1.83 a 4.93,4.93 0 0 0 1.34,1.92 1.63,1.63 0 0 0 1.1,0.55 0.64,0.64 0 0 0 0.2,-0.05 1.63,1.63 0 0 0 0.72,-0.77 6.5,6.5 0 0 0 0.8,-2.88 5,5 0 0 0 0.24,-2.13 1.44,1.44 0 0 0 -1.36,-1.21 l -1,-0.11"
       id="path1973" />
    <path
       class="cls-49"
       d="m 31.86,16.55 v 0 0 a 2.58,2.58 0 0 1 -0.08,-1.47 c 0.3,-1.32 0.52,-2.18 0.56,-2.31 v 0 c 0,0 -0.71,-0.16 -0.9,-0.43 a 4.69,4.69 0 0 1 -0.38,1.07 3.26,3.26 0 0 1 -1.13,1.13"
       id="path1975" />
    <path
       class="cls-94"
       d="M 31.63,10 A 0.36,0.36 0 0 0 31.11,9.69 c -0.19,0.08 -0.41,0.19 -0.55,0 -0.14,-0.19 -0.07,-0.28 0,-0.63 a 2.8,2.8 0 0 0 0,-0.7 0.3,0.3 0 0 0 -0.17,-0.24 2.07,2.07 0 0 0 -0.61,-0.2 1.83,1.83 0 0 0 -0.73,0 0.78,0.78 0 0 1 0.36,-0.56 2.07,2.07 0 0 1 1.6,0 2.43,2.43 0 0 1 1.39,1.55 1,1 0 0 1 -0.19,0.89 6.83,6.83 0 0 1 -0.77,0.72 1,1 0 0 0 0.19,-0.52 z"
       id="path1977"
       style="fill:url(#linearGradient2587);stroke-width:0.806356" />
    <path
       class="cls-95"
       d="M 31.63,10 A 0.36,0.36 0 0 0 31.11,9.69 c -0.19,0.08 -0.41,0.19 -0.55,0 -0.14,-0.19 -0.07,-0.28 0,-0.63 a 3.35,3.35 0 0 0 0,-0.69 0.34,0.34 0 0 0 -0.18,-0.25 2.07,2.07 0 0 0 -0.61,-0.2 1.83,1.83 0 0 0 -0.73,0 0.78,0.78 0 0 1 0.36,-0.56 2.07,2.07 0 0 1 1.6,0 2.43,2.43 0 0 1 1.39,1.55 1,1 0 0 1 -0.19,0.89 6.83,6.83 0 0 1 -0.77,0.72 1,1 0 0 0 0.2,-0.52 z"
       id="path1979"
       style="fill:url(#linear-gradient-40);stroke-width:0.806356" />
    <g
       class="cls-96"
       clip-path="url(#clip-path)"
       id="g1983"
       style="stroke-width:0.806356">
      <path
         class="cls-97"
         d="m 29.05,8 a 1,1 0 0 1 0.39,-0.66 2.07,2.07 0 0 1 1.6,0 2.43,2.43 0 0 1 1.39,1.55 1,1 0 0 1 -0.19,0.89 7.42,7.42 0 0 1 -0.81,0.6 l -0.12,0.08"
         id="path1981" />
    </g>
    <ellipse
       class="cls-98"
       cx="31.209999"
       cy="10.06"
       rx="0.58999997"
       ry="0.41999999"
       transform="rotate(-51.45,31.209951,10.063097)"
       id="ellipse1985"
       style="fill:url(#linear-gradient-41);stroke-width:0.806356" />
    <path
       class="cls-99"
       d="m 17.67,17.06 0.08,-0.11 a 0.62,0.62 0 0 1 0.28,0.24 7.65,7.65 0 0 1 0.42,0.72 V 18 l 0.1,0.13 a 1.79,1.79 0 0 0 0.31,-0.53 3.8,3.8 0 0 1 0.7,-1.1 3.2,3.2 0 0 1 0.2,-0.44 5.51,5.51 0 0 1 -0.82,-0.85 c -0.21,-0.33 -0.37,-0.55 -0.37,-0.55 0,0 0.08,0.08 0.1,0 0.02,-0.08 -0.37,-0.18 -0.45,-0.35 a 0.37,0.37 0 0 0 -0.61,0 c -0.13,0.15 -0.23,0.4 -0.42,0.34 C 17,14.59 16.99,14.44 16.9,14.1 a 3.85,3.85 0 0 0 -0.24,-0.61 0.39,0.39 0 0 0 -0.45,-0.21 2.76,2.76 0 0 0 -0.36,0.11 2.13,2.13 0 0 0 -0.47,0.19 4.65,4.65 0 0 0 0.12,1.65 c 0.24,0.89 0.58,1.68 0.86,1.69 a 0.91,0.91 0 0 0 0.45,-0.06 v 0 a 0.87,0.87 0 0 1 0.81,0.15 z"
       id="path1987"
       style="fill:url(#linear-gradient-42);stroke-width:0.806356" />
    <path
       class="cls-43"
       d="m 15.53,13.12 a 5.49,5.49 0 0 0 0,2.1 c 0.08,0.3 0.18,0.6 0.29,0.9 a 2.65,2.65 0 0 0 0.33,0.62 0.34,0.34 0 0 0 0.36,0.16 0.8,0.8 0 0 0 0.36,-0.14 c 0.22,-0.08 0.27,-0.13 0.78,0.25 a 5,5 0 0 1 0.93,1"
       id="path1989" />
    <path
       class="cls-100"
       d="m 18.22,14.33 a 0.37,0.37 0 0 0 -0.61,0 c -0.13,0.15 -0.23,0.4 -0.42,0.34 C 17,14.61 16.99,14.46 16.9,14.12 a 3.85,3.85 0 0 0 -0.24,-0.61 0.39,0.39 0 0 0 -0.45,-0.21 2.76,2.76 0 0 0 -0.36,0.11 1.94,1.94 0 0 0 -0.59,0.29 1,1 0 0 1 0.17,-0.76 2.56,2.56 0 0 1 1.57,-0.78 2.44,2.44 0 0 1 1.95,0.72 1,1 0 0 1 0.24,0.88 8,8 0 0 1 -0.48,1 C 18.74,14.61 18.3,14.5 18.22,14.33 Z"
       id="path1991"
       style="fill:url(#New_Gradient_Swatch_2-2);stroke-width:0.806356" />
    <path
       class="cls-101"
       d="M 18.23,14.62 C 18.08,14.33 17.74,14.14 17.61,14.3 17.48,14.46 17.38,14.7 17.19,14.64 17,14.58 16.99,14.43 16.9,14.09 a 3.85,3.85 0 0 0 -0.24,-0.61 0.39,0.39 0 0 0 -0.45,-0.21 2.76,2.76 0 0 0 -0.36,0.11 1.94,1.94 0 0 0 -0.59,0.29 1,1 0 0 1 0.17,-0.76 2.56,2.56 0 0 1 1.57,-0.75 2.44,2.44 0 0 1 1.95,0.72 1.41,1.41 0 0 1 0.33,1 10.23,10.23 0 0 1 -0.28,1.37 1.93,1.93 0 0 1 -0.77,-0.63 z"
       id="path1993"
       style="fill:url(#linear-gradient-43);stroke-width:0.806356" />
    <path
       class="cls-102"
       d="m 18.3,14.45 c 0,0.32 -0.19,0.74 -0.42,0.76 -0.23,0.02 -0.41,-0.23 -0.41,-0.55 A 0.58,0.58 0 0 1 17.9,14 c 0.23,0 0.4,0.12 0.4,0.45 z"
       id="path1995"
       style="fill:url(#linear-gradient-44);stroke-width:0.806356" />
    <path
       class="cls-43"
       d="m 15.4,13.67 a 1,1 0 0 1 0,-0.76 2.56,2.56 0 0 1 1.6,-0.75 2.44,2.44 0 0 1 1.95,0.72 1.63,1.63 0 0 1 0.46,0.9 5.12,5.12 0 0 1 -0.26,1.05 c -0.05,0.13 -0.22,0.31 0.64,1.2"
       id="path1997" />
    <path
       class="cls-49"
       d="m 33.39,18.23 a 2,2 0 0 0 -0.31,-0.88 2,2 0 0 0 -0.82,-0.58 2.32,2.32 0 0 1 -0.4,-0.22"
       id="path1999" />
  </g>
</svg>
