<?xml version="1.0" encoding="UTF-8" standalone="no"?>
<!-- Created with Inkscape (http://www.inkscape.org/) -->
<svg
   xmlns:i="http://ns.adobe.com/AdobeIllustrator/10.0/"
   xmlns:dc="http://purl.org/dc/elements/1.1/"
   xmlns:cc="http://web.resource.org/cc/"
   xmlns:rdf="http://www.w3.org/1999/02/22-rdf-syntax-ns#"
   xmlns:svg="http://www.w3.org/2000/svg"
   xmlns="http://www.w3.org/2000/svg"
   xmlns:sodipodi="http://sodipodi.sourceforge.net/DTD/sodipodi-0.dtd"
   xmlns:inkscape="http://www.inkscape.org/namespaces/inkscape"
   width="48px"
   height="48px"
   id="svg55504"
   sodipodi:version="0.32"
   inkscape:version="0.45.1"
   sodipodi:docbase="C:\dev\src\houdini\support\icons\SHELF"
   sodipodi:docname="footprints.svg"
   inkscape:output_extension="org.inkscape.output.svg.inkscape">
  <defs
     id="defs55506" />
  <sodipodi:namedview
     id="base"
     pagecolor="#ffffff"
     bordercolor="#666666"
     borderopacity="1.0"
     inkscape:pageopacity="0.0"
     inkscape:pageshadow="2"
     inkscape:zoom="4.9497475"
     inkscape:cx="24"
     inkscape:cy="24"
     inkscape:current-layer="layer1"
     showgrid="true"
     inkscape:grid-bbox="true"
     inkscape:document-units="px"
     inkscape:window-width="744"
     inkscape:window-height="573"
     inkscape:window-x="242"
     inkscape:window-y="264" />
  <metadata
     id="metadata55509">
    <rdf:RDF>
      <cc:Work
         rdf:about="">
        <dc:format>image/svg+xml</dc:format>
        <dc:type
           rdf:resource="http://purl.org/dc/dcmitype/StillImage" />
      </cc:Work>
    </rdf:RDF>
  </metadata>
  <g
     id="layer1"
     inkscape:label="Layer 1"
     inkscape:groupmode="layer">
    <g
       id="g55586"
       transform="matrix(0.9463139,0,0,0.9461024,1.5,-5.5770242e-2)"
       style="stroke:#eeeeec;stroke-width:3.17054987;stroke-miterlimit:4;stroke-dasharray:none">
      <path
         i:knockout="Off"
         d="M 25.388404,17.951782 C 27.272154,16.227044 30.490535,14.452482 34.172168,16.412557 C 35.819521,17.288177 36.287014,19.0797 37.510338,20.304084 C 38.733662,21.528468 39.474653,21.863451 40.933313,22.945786 C 41.90328,23.664515 42.594447,24.352503 43.536852,25.389254 C 44.477137,26.424945 45.489506,27.346148 45.961239,28.288553 C 46.432971,29.229898 46.659827,30.646155 46.55594,32.082554 C 46.442512,33.658882 44.948869,34.427435 44.66689,35.463126 C 44.38385,36.498818 44.366889,38.123909 42.860526,39.159601 C 41.353102,40.195292 40.250626,40.980806 38.921295,41.275506 C 35.913868,41.944412 35.377471,41.079393 32.142129,41.77268 C 30.71209,42.079041 28.847422,39.418258 29.411381,37.535569 C 29.97534,35.650759 31.752022,33.445808 32.520575,30.848629 C 32.936123,29.437672 34.022698,27.706573 32.59902,26.806571 C 30.750253,25.634131 28.752016,24.824235 27.056959,24.634482 C 25.361902,24.444729 23.084866,23.557448 23.58204,21.136241 C 23.955186,19.333057 24.74812,18.539063 25.388404,17.951782 z "
         id="path55588"
         style="stroke:#eeeeec;stroke-width:3.17054987;stroke-miterlimit:4;stroke-dasharray:none" />
      <path
         i:knockout="Off"
         d="M 31.800785,43.004485 C 32.412447,42.20413 32.74107,42.108723 33.542485,41.922151 C 34.3439,41.735578 35.238602,41.640171 35.661571,42.158547 C 36.08454,42.674802 35.767578,42.616498 37.038605,43.558903 C 38.310693,44.501308 38.062636,45.359967 37.309984,46.537708 C 36.557332,47.713329 35.427295,48.232764 33.919871,47.902022 C 32.413507,47.571279 31.517746,46.725341 31.377816,45.68965 C 31.234706,44.652898 31.800785,43.004485 31.800785,43.004485 z "
         id="path55590"
         style="stroke:#eeeeec;stroke-width:3.17054987;stroke-miterlimit:4;stroke-dasharray:none" />
      <path
         i:knockout="Off"
         d="M 37.84002,42.606958 C 38.103979,42.235932 39.809636,41.91791 40.548507,42.015437 C 41.222713,42.105543 41.90116,42.374802 42.419535,42.703424 C 42.937911,43.032047 43.196569,43.334168 43.102222,43.94689 C 43.008936,44.557492 42.467239,45.160673 41.784552,45.311204 C 40.674655,45.55714 39.713169,45.781876 39.007161,45.311204 C 38.299032,44.840531 37.591963,42.951481 37.84002,42.606958 z "
         id="path55592"
         style="stroke:#eeeeec;stroke-width:3.17054987;stroke-miterlimit:4;stroke-dasharray:none" />
      <path
         i:knockout="Off"
         d="M 41.383844,40.440169 C 41.918121,40.395646 42.912469,39.141579 43.478548,39.379036 C 43.807171,39.849708 45.173605,40.083984 45.313534,40.60342 C 45.455584,41.119675 45.238269,42.141586 44.560883,42.486109 C 43.288795,43.133814 42.583847,42.531692 41.688085,42.06314 C 41.219533,41.592468 41.242854,40.865258 41.383844,40.440169 z "
         id="path55594"
         style="stroke:#eeeeec;stroke-width:3.17054987;stroke-miterlimit:4;stroke-dasharray:none" />
      <path
         i:knockout="Off"
         d="M 43.890916,39.142639 C 43.890916,38.750412 43.963001,38.329564 44.190917,37.782566 C 44.556642,36.902705 44.749575,36.648288 45.361238,36.602705 C 45.9729,36.553941 46.759474,36.724613 47.094457,37.193165 C 47.341454,37.537689 47.387037,38.183273 47.203644,38.770554 C 46.882442,39.795644 46.293042,40.039461 45.585973,39.990698 C 44.879964,39.945115 43.890916,39.570909 43.890916,39.142639 z "
         id="path55596"
         style="stroke:#eeeeec;stroke-width:3.17054987;stroke-miterlimit:4;stroke-dasharray:none" />
      <path
         i:knockout="Off"
         d="M 45.032615,34.952171 C 45.176785,34.447577 45.738623,34.20058 46.209296,34.152876 C 46.678908,34.104113 47.667956,34.20058 47.810006,34.717895 C 47.952056,35.234151 47.952056,36.271962 47.57467,36.414012 C 47.197284,36.553941 46.585622,36.648288 46.068306,36.460655 C 45.549931,36.271962 44.749575,35.941219 45.032615,34.952171 z "
         id="path55598"
         style="stroke:#eeeeec;stroke-width:3.17054987;stroke-miterlimit:4;stroke-dasharray:none" />
      <path
         i:knockout="Off"
         d="M 13.963999,3.5390314 C 11.880956,2.9029876 9.4565691,2.748217 7.2208754,4.5980442 C 6.2212266,5.424901 6.1194596,6.5231365 5.4547939,7.5291457 C 4.7922484,8.5340949 4.2505511,8.7779117 3.4056731,9.7192564 C 2.8470146,10.343639 2.3837628,11.22668 1.9226311,12.084279 C 1.6650334,12.566612 1.0989545,15.203013 1.4296972,16.192061 C 1.776341,17.236233 2.9159194,17.497011 3.2540826,18.164857 C 3.5911858,18.829523 4.742425,19.534471 5.9127454,20.029525 C 7.085186,20.526699 8.2025029,20.67829 9.150208,20.694191 C 11.292615,20.729173 11.579895,19.256732 13.881313,19.276874 C 14.898983,19.286414 16.122307,17.572276 15.474603,16.368034 C 14.827958,15.162731 12.309225,15.116087 11.425124,13.454953 C 10.944911,12.550711 9.3420812,10.778269 10.188019,9.9662534 C 11.286255,8.9093607 12.132193,7.6118314 13.25905,7.2471663 C 14.389088,6.8814412 16.545276,5.8330291 15.698278,4.6690691 C 15.338913,4.1771952 14.542799,3.7150035 13.963999,3.5390314 z "
         id="path55600"
         style="stroke:#eeeeec;stroke-width:3.17054987;stroke-miterlimit:4;stroke-dasharray:none" />
      <path
         i:knockout="Off"
         d="M 14.613823,20.802318 C 14.014882,20.436593 13.778486,20.459915 13.210287,20.53942 C 12.646328,20.617866 11.396502,21.034474 11.033957,21.324934 C 10.798621,21.512567 10.400034,22.080766 10.469999,22.642605 C 10.563285,23.396317 11.145265,23.904092 11.929719,24.479711 C 12.713113,25.052151 13.578132,25.105154 14.470714,24.511513 C 15.366475,23.919993 15.7322,23.142959 15.563649,22.436951 C 15.395097,21.729882 14.613823,20.802318 14.613823,20.802318 z "
         id="path55602"
         style="stroke:#eeeeec;stroke-width:3.17054987;stroke-miterlimit:4;stroke-dasharray:none" />
      <path
         i:knockout="Off"
         d="M 9.0092183,21.937656 C 8.7463203,21.762744 7.4106284,21.639776 6.9569172,21.889953 C 6.5424287,22.117869 6.1703431,22.461332 5.9159256,22.806916 C 5.6646884,23.15144 5.571402,23.410098 5.7876568,23.784303 C 6.0007315,24.158509 6.5042661,24.410807 6.9844791,24.337661 C 7.7668129,24.217873 8.669995,24.349322 9.0092183,23.868049 C 9.3495017,23.383596 9.2562153,22.098788 9.0092183,21.937656 z "
         id="path55604"
         style="stroke:#eeeeec;stroke-width:3.17054987;stroke-miterlimit:4;stroke-dasharray:none" />
      <path
         i:knockout="Off"
         d="M 6.1290003,20.610445 C 5.7706957,20.716453 4.8123898,20.153554 4.5049686,20.449314 C 4.4095621,20.838361 3.5837653,21.332355 3.6208678,21.706561 C 3.6611506,22.077586 4.0576179,22.685008 4.5844741,22.739072 C 5.572462,22.838718 5.8788231,22.271579 6.3410149,21.741543 C 6.5275877,21.315394 6.328294,20.850022 6.1290003,20.610445 z "
         id="path55606"
         style="stroke:#eeeeec;stroke-width:3.17054987;stroke-miterlimit:4;stroke-dasharray:none" />
      <path
         i:knockout="Off"
         d="M 4.0099146,20.207618 C 3.9102677,19.95214 3.7586773,19.698783 3.4713976,19.398782 C 3.0134461,18.919629 2.8258132,18.805141 2.4166251,18.92811 C 2.0074369,19.051078 1.2007214,19.336238 1.0989545,19.724224 C 1.0279295,20.010444 1.0682123,20.565922 1.3353507,20.900905 C 1.8017828,21.485005 2.6784631,21.391719 3.1247537,21.182885 C 3.5689243,20.97617 4.116982,20.484297 4.0099146,20.207618 z "
         id="path55608"
         style="stroke:#eeeeec;stroke-width:3.17054987;stroke-miterlimit:4;stroke-dasharray:none" />
      <path
         i:knockout="Off"
         d="M 1.863267,17.572276 C 1.6406517,17.281816 1.2166225,17.261675 0.89860062,17.349661 C 0.58163883,17.437647 -0.037443733,17.747188 0.0017789631,18.119274 C 0.04100166,18.490299 0.30177959,19.163446 0.58163883,19.158145 C 0.86149807,19.156025 1.2823471,19.061679 1.571747,18.810441 C 1.8590267,18.557084 2.2947167,18.142596 1.863267,17.572276 z "
         id="path55610"
         style="stroke:#eeeeec;stroke-width:3.17054987;stroke-miterlimit:4;stroke-dasharray:none" />
    </g>
    <g
       id="g55638"
       transform="matrix(0.9463139,0,0,0.9461024,1.5000001,-1.2915409e-2)"
       style="stroke:none;stroke-width:3.17054987;stroke-miterlimit:4;stroke-dasharray:none">
      <path
         i:knockout="Off"
         d="M 25.388404,17.951782 C 27.272154,16.227044 30.490535,14.452482 34.172168,16.412557 C 35.819521,17.288177 36.287014,19.0797 37.510338,20.304084 C 38.733662,21.528468 39.474653,21.863451 40.933313,22.945786 C 41.90328,23.664515 42.594447,24.352503 43.536852,25.389254 C 44.477137,26.424945 45.489506,27.346148 45.961239,28.288553 C 46.432971,29.229898 46.659827,30.646155 46.55594,32.082554 C 46.442512,33.658882 44.948869,34.427435 44.66689,35.463126 C 44.38385,36.498818 44.366889,38.123909 42.860526,39.159601 C 41.353102,40.195292 40.250626,40.980806 38.921295,41.275506 C 35.913868,41.944412 35.377471,41.079393 32.142129,41.77268 C 30.71209,42.079041 28.847422,39.418258 29.411381,37.535569 C 29.97534,35.650759 31.752022,33.445808 32.520575,30.848629 C 32.936123,29.437672 34.022698,27.706573 32.59902,26.806571 C 30.750253,25.634131 28.752016,24.824235 27.056959,24.634482 C 25.361902,24.444729 23.084866,23.557448 23.58204,21.136241 C 23.955186,19.333057 24.74812,18.539063 25.388404,17.951782 z "
         id="path55640"
         style="stroke:none;stroke-width:3.17054987;stroke-miterlimit:4;stroke-dasharray:none" />
      <path
         i:knockout="Off"
         d="M 31.800785,43.004485 C 32.412447,42.20413 32.74107,42.108723 33.542485,41.922151 C 34.3439,41.735578 35.238602,41.640171 35.661571,42.158547 C 36.08454,42.674802 35.767578,42.616498 37.038605,43.558903 C 38.310693,44.501308 38.062636,45.359967 37.309984,46.537708 C 36.557332,47.713329 35.427295,48.232764 33.919871,47.902022 C 32.413507,47.571279 31.517746,46.725341 31.377816,45.68965 C 31.234706,44.652898 31.800785,43.004485 31.800785,43.004485 z "
         id="path55642"
         style="stroke:none;stroke-width:3.17054987;stroke-miterlimit:4;stroke-dasharray:none" />
      <path
         i:knockout="Off"
         d="M 37.84002,42.606958 C 38.103979,42.235932 39.809636,41.91791 40.548507,42.015437 C 41.222713,42.105543 41.90116,42.374802 42.419535,42.703424 C 42.937911,43.032047 43.196569,43.334168 43.102222,43.94689 C 43.008936,44.557492 42.467239,45.160673 41.784552,45.311204 C 40.674655,45.55714 39.713169,45.781876 39.007161,45.311204 C 38.299032,44.840531 37.591963,42.951481 37.84002,42.606958 z "
         id="path55644"
         style="stroke:none;stroke-width:3.17054987;stroke-miterlimit:4;stroke-dasharray:none" />
      <path
         i:knockout="Off"
         d="M 41.383844,40.440169 C 41.918121,40.395646 42.912469,39.141579 43.478548,39.379036 C 43.807171,39.849708 45.173605,40.083984 45.313534,40.60342 C 45.455584,41.119675 45.238269,42.141586 44.560883,42.486109 C 43.288795,43.133814 42.583847,42.531692 41.688085,42.06314 C 41.219533,41.592468 41.242854,40.865258 41.383844,40.440169 z "
         id="path55646"
         style="stroke:none;stroke-width:3.17054987;stroke-miterlimit:4;stroke-dasharray:none" />
      <path
         i:knockout="Off"
         d="M 43.890916,39.142639 C 43.890916,38.750412 43.963001,38.329564 44.190917,37.782566 C 44.556642,36.902705 44.749575,36.648288 45.361238,36.602705 C 45.9729,36.553941 46.759474,36.724613 47.094457,37.193165 C 47.341454,37.537689 47.387037,38.183273 47.203644,38.770554 C 46.882442,39.795644 46.293042,40.039461 45.585973,39.990698 C 44.879964,39.945115 43.890916,39.570909 43.890916,39.142639 z "
         id="path55648"
         style="stroke:none;stroke-width:3.17054987;stroke-miterlimit:4;stroke-dasharray:none" />
      <path
         i:knockout="Off"
         d="M 45.032615,34.952171 C 45.176785,34.447577 45.738623,34.20058 46.209296,34.152876 C 46.678908,34.104113 47.667956,34.20058 47.810006,34.717895 C 47.952056,35.234151 47.952056,36.271962 47.57467,36.414012 C 47.197284,36.553941 46.585622,36.648288 46.068306,36.460655 C 45.549931,36.271962 44.749575,35.941219 45.032615,34.952171 z "
         id="path55650"
         style="stroke:none;stroke-width:3.17054987;stroke-miterlimit:4;stroke-dasharray:none" />
      <path
         i:knockout="Off"
         d="M 13.963999,3.5390314 C 11.880956,2.9029876 9.4565691,2.748217 7.2208754,4.5980442 C 6.2212266,5.424901 6.1194596,6.5231365 5.4547939,7.5291457 C 4.7922484,8.5340949 4.2505511,8.7779117 3.4056731,9.7192564 C 2.8470146,10.343639 2.3837628,11.22668 1.9226311,12.084279 C 1.6650334,12.566612 1.0989545,15.203013 1.4296972,16.192061 C 1.776341,17.236233 2.9159194,17.497011 3.2540826,18.164857 C 3.5911858,18.829523 4.742425,19.534471 5.9127454,20.029525 C 7.085186,20.526699 8.2025029,20.67829 9.150208,20.694191 C 11.292615,20.729173 11.579895,19.256732 13.881313,19.276874 C 14.898983,19.286414 16.122307,17.572276 15.474603,16.368034 C 14.827958,15.162731 12.309225,15.116087 11.425124,13.454953 C 10.944911,12.550711 9.3420812,10.778269 10.188019,9.9662534 C 11.286255,8.9093607 12.132193,7.6118314 13.25905,7.2471663 C 14.389088,6.8814412 16.545276,5.8330291 15.698278,4.6690691 C 15.338913,4.1771952 14.542799,3.7150035 13.963999,3.5390314 z "
         id="path55652"
         style="stroke:none;stroke-width:3.17054987;stroke-miterlimit:4;stroke-dasharray:none" />
      <path
         i:knockout="Off"
         d="M 14.613823,20.802318 C 14.014882,20.436593 13.778486,20.459915 13.210287,20.53942 C 12.646328,20.617866 11.396502,21.034474 11.033957,21.324934 C 10.798621,21.512567 10.400034,22.080766 10.469999,22.642605 C 10.563285,23.396317 11.145265,23.904092 11.929719,24.479711 C 12.713113,25.052151 13.578132,25.105154 14.470714,24.511513 C 15.366475,23.919993 15.7322,23.142959 15.563649,22.436951 C 15.395097,21.729882 14.613823,20.802318 14.613823,20.802318 z "
         id="path55654"
         style="stroke:none;stroke-width:3.17054987;stroke-miterlimit:4;stroke-dasharray:none" />
      <path
         i:knockout="Off"
         d="M 9.0092183,21.937656 C 8.7463203,21.762744 7.4106284,21.639776 6.9569172,21.889953 C 6.5424287,22.117869 6.1703431,22.461332 5.9159256,22.806916 C 5.6646884,23.15144 5.571402,23.410098 5.7876568,23.784303 C 6.0007315,24.158509 6.5042661,24.410807 6.9844791,24.337661 C 7.7668129,24.217873 8.669995,24.349322 9.0092183,23.868049 C 9.3495017,23.383596 9.2562153,22.098788 9.0092183,21.937656 z "
         id="path55656"
         style="stroke:none;stroke-width:3.17054987;stroke-miterlimit:4;stroke-dasharray:none" />
      <path
         i:knockout="Off"
         d="M 6.1290003,20.610445 C 5.7706957,20.716453 4.8123898,20.153554 4.5049686,20.449314 C 4.4095621,20.838361 3.5837653,21.332355 3.6208678,21.706561 C 3.6611506,22.077586 4.0576179,22.685008 4.5844741,22.739072 C 5.572462,22.838718 5.8788231,22.271579 6.3410149,21.741543 C 6.5275877,21.315394 6.328294,20.850022 6.1290003,20.610445 z "
         id="path55658"
         style="stroke:none;stroke-width:3.17054987;stroke-miterlimit:4;stroke-dasharray:none" />
      <path
         i:knockout="Off"
         d="M 4.0099146,20.207618 C 3.9102677,19.95214 3.7586773,19.698783 3.4713976,19.398782 C 3.0134461,18.919629 2.8258132,18.805141 2.4166251,18.92811 C 2.0074369,19.051078 1.2007214,19.336238 1.0989545,19.724224 C 1.0279295,20.010444 1.0682123,20.565922 1.3353507,20.900905 C 1.8017828,21.485005 2.6784631,21.391719 3.1247537,21.182885 C 3.5689243,20.97617 4.116982,20.484297 4.0099146,20.207618 z "
         id="path55660"
         style="stroke:none;stroke-width:3.17054987;stroke-miterlimit:4;stroke-dasharray:none" />
      <path
         i:knockout="Off"
         d="M 1.863267,17.572276 C 1.6406517,17.281816 1.2166225,17.261675 0.89860062,17.349661 C 0.58163883,17.437647 -0.037443733,17.747188 0.0017789631,18.119274 C 0.04100166,18.490299 0.30177959,19.163446 0.58163883,19.158145 C 0.86149807,19.156025 1.2823471,19.061679 1.571747,18.810441 C 1.8590267,18.557084 2.2947167,18.142596 1.863267,17.572276 z "
         id="path55662"
         style="stroke:none;stroke-width:3.17054987;stroke-miterlimit:4;stroke-dasharray:none" />
    </g>
  </g>
</svg>
