<?xml version="1.0" encoding="UTF-8" standalone="no"?>
<!-- Generator: Adobe Illustrator 11.0, SVG Export Plug-In . SVG Version: 6.0.0 Build 78)  -->
<svg
   xmlns:ns="&amp;ns_ai;"
   xmlns:i="http://ns.adobe.com/AdobeIllustrator/10.0/"
   xmlns:a="http://ns.adobe.com/AdobeSVGViewerExtensions/3.0/"
   xmlns:dc="http://purl.org/dc/elements/1.1/"
   xmlns:cc="http://creativecommons.org/ns#"
   xmlns:rdf="http://www.w3.org/1999/02/22-rdf-syntax-ns#"
   xmlns:svg="http://www.w3.org/2000/svg"
   xmlns="http://www.w3.org/2000/svg"
   xmlns:xlink="http://www.w3.org/1999/xlink"
   xmlns:sodipodi="http://sodipodi.sourceforge.net/DTD/sodipodi-0.dtd"
   xmlns:inkscape="http://www.inkscape.org/namespaces/inkscape"
   ns:viewOrigin="0.3799 47.5942"
   ns:rulerOrigin="0 0"
   ns:pageBounds="0 48 48 0"
   width="48"
   height="48"
   viewBox="0 0 48.396 47.596"
   overflow="visible"
   enable-background="new 0 0 48.396 47.596"
   xml:space="preserve"
   id="svg16498"
   sodipodi:version="0.32"
   inkscape:version="0.46"
   sodipodi:docname="freezetransforms.svg"
   sodipodi:docbase="/home/joe/dev/src/houdini/support/icons/pop"
   version="1.0"
   inkscape:output_extension="org.inkscape.output.svg.inkscape"><metadata
   id="metadata136"><rdf:RDF><cc:Work
       rdf:about=""><dc:format>image/svg+xml</dc:format><dc:type
         rdf:resource="http://purl.org/dc/dcmitype/StillImage" /></cc:Work></rdf:RDF></metadata><defs
   id="defs16621"><linearGradient
     id="linearGradient3643"><stop
       style="stop-color:#ffffff;stop-opacity:1;"
       offset="0"
       id="stop3645" /><stop
       style="stop-color:#c7e5ff;stop-opacity:1;"
       offset="1"
       id="stop3647" /></linearGradient><linearGradient
     id="linearGradient24764"><stop
       style="stop-color:#000000;stop-opacity:0.5390625;"
       offset="0"
       id="stop24766" /><stop
       style="stop-color:#000000;stop-opacity:0;"
       offset="1"
       id="stop24768" /></linearGradient><radialGradient
     id="XMLID_515_"
     cx="-62.017101"
     cy="217.6792"
     r="17.1761"
     fx="-62.017101"
     fy="217.6792"
     gradientTransform="matrix(-1,0,0,1,55.3594,-2.108036e-14)"
     gradientUnits="userSpaceOnUse"><stop
       offset="0"
       style="stop-color:#FFFFFF"
       id="stop7525" /><stop
       offset="1"
       style="stop-color:#8fffff;stop-opacity:1;"
       id="stop7527" /><a:midPointStop
       offset="0"
       style="stop-color:#FFFFFF" /><a:midPointStop
       offset="0.5"
       style="stop-color:#FFFFFF" /><a:midPointStop
       offset="1"
       style="stop-color:#A42522" /></radialGradient><radialGradient
     gradientUnits="userSpaceOnUse"
     gradientTransform="matrix(-1,0,0,1,55.3594,-2.108036e-14)"
     fy="220.8765"
     fx="-64.877"
     r="14.1194"
     cy="220.8765"
     cx="-64.877"
     id="XMLID_514_"><stop
       id="stop7514"
       style="stop-color:#ffffff;stop-opacity:1;"
       offset="0" /><stop
       offset="0.5"
       style="stop-color:#7fcfff;stop-opacity:1;"
       id="stop24852" /><stop
       id="stop7518"
       style="stop-color:#006bab;stop-opacity:1;"
       offset="1" /><a:midPointStop
       style="stop-color:#FFFFFF"
       offset="0" /><a:midPointStop
       style="stop-color:#FFFFFF"
       offset="0.5" /><a:midPointStop
       style="stop-color:#A40E0A"
       offset="0.8258" /><a:midPointStop
       style="stop-color:#A40E0A"
       offset="0.5" /><a:midPointStop
       style="stop-color:#660D0B"
       offset="1" /></radialGradient><radialGradient
     inkscape:collect="always"
     xlink:href="#linearGradient24764"
     id="radialGradient24770"
     cx="11.739073"
     cy="34.108601"
     fx="11.739073"
     fy="34.108601"
     r="8.3631306"
     gradientTransform="matrix(1,0,0,0.3577982,0,21.904606)"
     gradientUnits="userSpaceOnUse" /><linearGradient
     inkscape:collect="always"
     xlink:href="#XMLID_515_"
     id="linearGradient25208"
     gradientUnits="userSpaceOnUse"
     x1="115.85897"
     y1="217.69576"
     x2="130.05702"
     y2="232.27542" /><radialGradient
     inkscape:collect="always"
     xlink:href="#XMLID_514_"
     id="radialGradient25210"
     gradientUnits="userSpaceOnUse"
     gradientTransform="matrix(-1,0,0,1,55.3594,0)"
     cx="-64.877"
     cy="220.8765"
     fx="-64.877"
     fy="220.8765"
     r="14.1194" /><radialGradient
     inkscape:collect="always"
     xlink:href="#linearGradient3643"
     id="radialGradient3649"
     cx="13.367368"
     cy="24.941418"
     fx="13.367368"
     fy="24.941418"
     r="13.560465"
     gradientTransform="matrix(0.9250276,-5.6661768e-3,8.354491e-3,1.3639064,2.8682587,-5.8282435)"
     gradientUnits="userSpaceOnUse" /></defs><sodipodi:namedview
   inkscape:window-height="1115"
   inkscape:window-width="1920"
   inkscape:pageshadow="2"
   inkscape:pageopacity="0.0"
   borderopacity="1.0"
   bordercolor="#666666"
   pagecolor="#ffffff"
   id="base"
   stroke="#c4a000"
   fill="#fce94f"
   inkscape:zoom="14.783538"
   inkscape:cx="12.109388"
   inkscape:cy="19.435048"
   inkscape:window-x="-4"
   inkscape:window-y="-4"
   inkscape:current-layer="svg16498"
   showgrid="false" />
		<line
   style="fill:none;stroke:#babdb6;stroke-width:1.00825;stroke-miterlimit:4;stroke-dasharray:none"
   id="line16570"
   y2="19.906511"
   x2="1.9593655"
   y1="27.270914"
   x1="24.93465"
   ns:knockout="Off" /><line
   style="fill:none;stroke:#babdb6;stroke-width:1.00825;stroke-miterlimit:4;stroke-dasharray:none"
   id="line16616"
   y2="28.247055"
   x2="4.9557481"
   y1="19.214092"
   x1="23.862175"
   ns:knockout="Off" />
	<path
   sodipodi:type="arc"
   style="opacity:1;fill:url(#radialGradient24770);fill-opacity:1;fill-rule:evenodd;stroke:none;stroke-width:1;stroke-linecap:butt;stroke-linejoin:miter;marker:none;marker-start:none;marker-mid:none;marker-end:none;stroke-miterlimit:4;stroke-dasharray:none;stroke-dashoffset:0.5;stroke-opacity:1;visibility:visible;display:inline;overflow:visible;enable-background:accumulate"
   id="path24762"
   sodipodi:cx="11.739073"
   sodipodi:cy="34.108601"
   sodipodi:rx="8.3631306"
   sodipodi:ry="2.9923127"
   d="M 20.102203,34.108601 A 8.3631306,2.9923127 0 1 1 3.3759422,34.108601 A 8.3631306,2.9923127 0 1 1 20.102203,34.108601 z"
   transform="matrix(1.4747266,0,0,1.4723088,-2.0912289,-6.7155556)" /><circle
   sodipodi:ry="9.4429998"
   sodipodi:rx="9.4429998"
   sodipodi:cy="224.694"
   sodipodi:cx="122.958"
   style="fill:url(#radialGradient25210);stroke:#204a87;stroke-width:0.80184317"
   id="circle7520"
   r="9.4429998"
   cy="224.694"
   cx="122.958"
   i:knockout="Off"
   transform="matrix(1.5101367,0,0,1.5076608,-170.26078,-324.08312)" /><circle
   transform="matrix(1.379682,0,0,1.37742,-154.22035,-294.81882)"
   i:knockout="Off"
   cx="122.958"
   cy="224.694"
   r="9.4429998"
   id="circle24807"
   style="fill:none;stroke:url(#linearGradient25208);stroke-width:0.73138416;stroke-miterlimit:4;stroke-dasharray:none"
   sodipodi:cx="122.958"
   sodipodi:cy="224.694"
   sodipodi:rx="9.4429998"
   sodipodi:ry="9.4429998" /><path
   style="fill:url(#radialGradient3649);fill-opacity:1;fill-rule:evenodd;stroke:#60adff;stroke-width:1px;stroke-linecap:butt;stroke-linejoin:round;stroke-opacity:1"
   d="M 0.71311177,17.865843 C 2.606531,24.25447 5.6021069,26.653795 6.9244089,32.633104 C 8.0892419,31.493684 7.3998528,29.81545 9.7256638,28.21838 C 12.663778,31.067727 13.467846,36.644755 14.903432,40.517773 C 15.99971,36.878795 16.612586,32.118147 17.836422,29.930666 C 18.470628,28.797088 20.94054,29.181598 21.863995,27.828853 C 23.70033,29.610634 24.551469,31.755009 25.728837,35.277114 C 26.435702,28.499689 27.514364,23.329311 30.170522,17.616287 C 28.041801,17.234283 21.839043,22.777047 20.112288,23.424956 C 18.229505,24.131409 18.441597,18.00318 17.642391,18.20959 C 16.438239,18.520586 13.46216,22.305434 12.625904,22.292063 C 10.93354,22.265003 11.101293,15.440077 9.051374,15.557604 C 6.60555,15.697831 7.609887,21.1358 6.901818,21.066316 C 4.419341,20.822709 3.688292,20.189365 0.71311177,17.865843 z"
   id="path25212"
   sodipodi:nodetypes="ccccscccsssssc" /><path
   style="fill:#cce9ff;fill-opacity:1;fill-rule:evenodd;stroke:none;stroke-width:1px;stroke-linecap:butt;stroke-linejoin:miter;stroke-opacity:1"
   d="M 6.9991187,31.296632 C 6.9092557,31.02713 8.8372401,23.719144 9.9265465,23.57579 C 11.092578,24.350711 11.083922,25.748185 10.07682,27.613133 C 7.8805177,28.16562 8.0783608,29.969049 6.9991187,31.296632 z"
   id="path3651"
   sodipodi:nodetypes="cccc" /><path
   style="opacity:1;fill:#cce9ff;fill-opacity:1;fill-rule:evenodd;stroke:none;stroke-width:1px;stroke-linecap:butt;stroke-linejoin:miter;marker:none;marker-start:none;marker-mid:none;marker-end:none;stroke-miterlimit:4;stroke-dasharray:none;stroke-dashoffset:0;stroke-opacity:1;visibility:visible;display:inline;overflow:visible;enable-background:accumulate"
   d="M 14.826518,38.329365 L 15.743736,28.585622 C 17.896951,24.661431 21.463343,26.047927 21.90245,27.272152 C 14.386469,29.797916 16.68052,34.717613 14.826518,38.329365 z"
   id="path3653"
   sodipodi:nodetypes="cccc" /><rect
   style="opacity:1;fill:#ffffff;fill-opacity:0.50196078;fill-rule:evenodd;stroke:none;stroke-width:0.75;stroke-linecap:butt;stroke-linejoin:miter;marker:none;marker-start:none;marker-mid:none;marker-end:none;stroke-miterlimit:4;stroke-dasharray:none;stroke-dashoffset:0.5;stroke-opacity:1;visibility:visible;display:inline;overflow:visible;enable-background:accumulate"
   id="rect24843"
   width="34.06633"
   height="14.804527"
   x="14.33923"
   y="33.023441"
   ry="5.2532191" /><g
   id="g24845"
   transform="matrix(0.9726806,0,0,0.9726806,0.2220509,34.302823)"><g
     id="g24862"
     transform="translate(-0.4732857,-0.1577619)"><path
       id="path24792"
       style="font-size:12.56987667px;font-style:normal;font-weight:normal;fill:#000000;fill-opacity:1;stroke:none;stroke-width:1px;stroke-linecap:butt;stroke-linejoin:miter;stroke-opacity:1;font-family:Bitstream Vera Sans"
       d="M 21.961692,1.8391136 C 21.271256,1.8391226 20.752326,2.1788061 20.4049,2.858165 C 20.057469,3.5375401 19.883754,4.5588035 19.883756,5.9219583 C 19.883754,7.2806973 20.057469,8.2997477 20.4049,8.9791128 C 20.752326,9.6584817 21.271256,9.9981652 21.961692,9.9981644 C 22.656544,9.9981652 23.177688,9.6584817 23.525122,8.9791128 C 23.872545,8.2997477 24.04626,7.2806973 24.046265,5.9219583 C 24.04626,4.5588035 23.872545,3.5375401 23.525122,2.858165 C 23.177688,2.1788061 22.656544,1.8391226 21.961692,1.8391136 L 21.961692,1.8391136 z M 21.961692,0.77691004 C 23.072574,0.77692013 23.92123,1.2161851 24.507661,2.0947063 C 25.094078,2.973245 25.387291,4.2489944 25.387298,5.9219583 C 25.387291,7.5905064 25.094078,8.8640428 24.507661,9.7425716 C 23.92123,10.621103 23.072574,11.060368 21.961692,11.060368 C 20.8508,11.060368 20.002145,10.621103 19.415723,9.7425716 C 18.829296,8.8640428 18.536085,7.5905064 18.536085,5.9219583 C 18.536085,4.2489944 18.829296,2.973245 19.415723,2.0947063 C 20.002145,1.2161851 20.8508,0.77692013 21.961692,0.77691004 L 21.961692,0.77691004 z" /><path
       style="font-size:12.56987667px;font-style:normal;font-weight:normal;fill:#000000;fill-opacity:1;stroke:none;stroke-width:1px;stroke-linecap:butt;stroke-linejoin:miter;stroke-opacity:1;font-family:Bitstream Vera Sans"
       d="M 26.638604,8.5677877 L 28.565862,8.5677877 L 28.565862,10.138822 L 27.067899,13.06168 L 25.889622,13.06168 L 26.638604,10.138822 L 26.638604,8.5677877 z"
       id="path24788" /><path
       id="path24786"
       style="font-size:12.56987667px;font-style:normal;font-weight:normal;fill:#000000;fill-opacity:1;stroke:none;stroke-width:1px;stroke-linecap:butt;stroke-linejoin:miter;stroke-opacity:1;font-family:Bitstream Vera Sans"
       d="M 32.765983,1.8391136 C 32.075547,1.8391226 31.556617,2.1788061 31.209191,2.858165 C 30.861759,3.5375401 30.688045,4.5588035 30.688048,5.9219583 C 30.688045,7.2806973 30.861759,8.2997477 31.209191,8.9791128 C 31.556617,9.6584817 32.075547,9.9981652 32.765983,9.9981644 C 33.460836,9.9981652 33.98198,9.6584817 34.329414,8.9791128 C 34.676837,8.2997477 34.850551,7.2806973 34.850557,5.9219583 C 34.850551,4.5588035 34.676837,3.5375401 34.329414,2.858165 C 33.98198,2.1788061 33.460836,1.8391226 32.765983,1.8391136 L 32.765983,1.8391136 z M 32.765983,0.77691004 C 33.876866,0.77692013 34.725521,1.2161851 35.311952,2.0947063 C 35.89837,2.973245 36.191581,4.2489944 36.191589,5.9219583 C 36.191581,7.5905064 35.89837,8.8640428 35.311952,9.7425716 C 34.725521,10.621103 33.876866,11.060368 32.765983,11.060368 C 31.655092,11.060368 30.806436,10.621103 30.220014,9.7425716 C 29.633588,8.8640428 29.340376,7.5905064 29.340377,5.9219583 C 29.340376,4.2489944 29.633588,2.973245 30.220014,2.0947063 C 30.806436,1.2161851 31.655092,0.77692013 32.765983,0.77691004 L 32.765983,0.77691004 z" /><path
       id="path24780"
       style="font-size:12.56987667px;font-style:normal;font-weight:normal;fill:#000000;fill-opacity:1;stroke:none;stroke-width:1px;stroke-linecap:butt;stroke-linejoin:miter;stroke-opacity:1;font-family:Bitstream Vera Sans"
       d="M 43.570274,1.8391136 C 42.879839,1.8391226 42.360909,2.1788061 42.013483,2.858165 C 41.666051,3.5375401 41.492337,4.5588035 41.49234,5.9219583 C 41.492337,7.2806973 41.666051,8.2997477 42.013483,8.9791128 C 42.360909,9.6584817 42.879839,9.9981652 43.570274,9.9981644 C 44.265128,9.9981652 44.78627,9.6584817 45.133706,8.9791128 C 45.481129,8.2997477 45.654843,7.2806973 45.654849,5.9219583 C 45.654843,4.5588035 45.481129,3.5375401 45.133706,2.858165 C 44.78627,2.1788061 44.265128,1.8391226 43.570274,1.8391136 L 43.570274,1.8391136 z M 43.570274,0.77691004 C 44.681157,0.77692013 45.529813,1.2161851 46.116244,2.0947063 C 46.702661,2.973245 46.995873,4.2489944 46.995881,5.9219583 C 46.995873,7.5905064 46.702661,8.8640428 46.116244,9.7425716 C 45.529813,10.621103 44.681157,11.060368 43.570274,11.060368 C 42.459384,11.060368 41.610728,10.621103 41.024305,9.7425716 C 40.43788,8.8640428 40.144668,7.5905064 40.144669,5.9219583 C 40.144668,4.2489944 40.43788,2.973245 41.024305,2.0947063 C 41.610728,1.2161851 42.459384,0.77692013 43.570274,0.77691004 L 43.570274,0.77691004 z" /><path
       id="path24839"
       d="M 37.226788,8.5677877 L 39.154046,8.5677877 L 39.154046,10.138822 L 37.656083,13.06168 L 36.477806,13.06168 L 37.226788,10.138822 L 37.226788,8.5677877 z"
       style="font-size:12.56987667px;font-style:normal;font-weight:normal;fill:#000000;fill-opacity:1;stroke:none;stroke-width:1px;stroke-linecap:butt;stroke-linejoin:miter;stroke-opacity:1;font-family:Bitstream Vera Sans" /></g></g></svg>