<?xml version="1.0" encoding="UTF-8" standalone="no"?>
<!-- Created with Inkscape (http://www.inkscape.org/) -->
<svg
   xmlns:i="http://ns.adobe.com/AdobeIllustrator/10.0/"
   xmlns:a="http://ns.adobe.com/AdobeSVGViewerExtensions/3.0/"
   xmlns:dc="http://purl.org/dc/elements/1.1/"
   xmlns:cc="http://web.resource.org/cc/"
   xmlns:rdf="http://www.w3.org/1999/02/22-rdf-syntax-ns#"
   xmlns:svg="http://www.w3.org/2000/svg"
   xmlns="http://www.w3.org/2000/svg"
   xmlns:sodipodi="http://sodipodi.sourceforge.net/DTD/sodipodi-0.dtd"
   xmlns:inkscape="http://www.inkscape.org/namespaces/inkscape"
   width="48px"
   height="48px"
   id="svg55358"
   sodipodi:version="0.32"
   inkscape:version="0.45.1"
   sodipodi:docbase="C:\dev\src\houdini\support\icons\SHELF"
   sodipodi:docname="grass.svg"
   inkscape:output_extension="org.inkscape.output.svg.inkscape">
  <defs
     id="defs55360">
    <radialGradient
       gradientUnits="userSpaceOnUse"
       fy="365.7627"
       fx="17.471201"
       r="11.7494"
       cy="365.7627"
       cx="17.471201"
       id="XMLID_1610_"
       gradientTransform="matrix(1.0255313,0,0,1.0255274,-5.1523841,-342.5959)">
						<stop
   id="stop20538"
   style="stop-color:#8AC92E"
   offset="0" />

						<stop
   id="stop20540"
   style="stop-color:#64AD27"
   offset="0.5776" />

						<stop
   id="stop20542"
   style="stop-color:#4C9C23"
   offset="1" />

						<a:midPointStop
   style="stop-color:#8AC92E"
   offset="0" />

						<a:midPointStop
   style="stop-color:#8AC92E"
   offset="0.4607" />

						<a:midPointStop
   style="stop-color:#4C9C23"
   offset="1" />

					</radialGradient>
    <radialGradient
       gradientUnits="userSpaceOnUse"
       fy="355.95511"
       fx="23.737301"
       r="15.2626"
       cy="355.95511"
       cx="23.737301"
       id="XMLID_1611_"
       gradientTransform="matrix(1.0255313,0,0,1.0255274,-5.1523841,-342.5959)">
						<stop
   id="stop20547"
   style="stop-color:#8AC92E"
   offset="0" />

						<stop
   id="stop20549"
   style="stop-color:#64AD27"
   offset="0.5776" />

						<stop
   id="stop20551"
   style="stop-color:#4C9C23"
   offset="1" />

						<a:midPointStop
   style="stop-color:#8AC92E"
   offset="0" />

						<a:midPointStop
   style="stop-color:#8AC92E"
   offset="0.4607" />

						<a:midPointStop
   style="stop-color:#4C9C23"
   offset="1" />

					</radialGradient>
    <radialGradient
       gradientUnits="userSpaceOnUse"
       fy="373.95999"
       fx="20.1733"
       r="3.5585001"
       cy="373.95999"
       cx="20.1733"
       id="XMLID_1612_"
       gradientTransform="matrix(1.0255313,0,0,1.0255274,-5.1523841,-342.5959)">
						<stop
   id="stop20556"
   style="stop-color:#8AC92E"
   offset="0" />

						<stop
   id="stop20558"
   style="stop-color:#64AD27"
   offset="0.5776" />

						<stop
   id="stop20560"
   style="stop-color:#4C9C23"
   offset="1" />

						<a:midPointStop
   style="stop-color:#8AC92E"
   offset="0" />

						<a:midPointStop
   style="stop-color:#8AC92E"
   offset="0.4607" />

						<a:midPointStop
   style="stop-color:#4C9C23"
   offset="1" />

					</radialGradient>
    <radialGradient
       gradientUnits="userSpaceOnUse"
       fy="374.63181"
       fx="33.495098"
       r="3.8643999"
       cy="374.63181"
       cx="33.495098"
       id="XMLID_1613_"
       gradientTransform="matrix(1.0255313,0,0,1.0255274,-5.1523841,-342.5959)">
						<stop
   id="stop20565"
   style="stop-color:#8AC92E"
   offset="0" />

						<stop
   id="stop20567"
   style="stop-color:#64AD27"
   offset="0.5776" />

						<stop
   id="stop20569"
   style="stop-color:#4C9C23"
   offset="1" />

						<a:midPointStop
   style="stop-color:#8AC92E"
   offset="0" />

						<a:midPointStop
   style="stop-color:#8AC92E"
   offset="0.4607" />

						<a:midPointStop
   style="stop-color:#4C9C23"
   offset="1" />

					</radialGradient>
    <radialGradient
       gradientUnits="userSpaceOnUse"
       fy="366.25879"
       fx="39.171398"
       r="9.7723999"
       cy="366.25879"
       cx="39.171398"
       id="XMLID_1614_"
       gradientTransform="matrix(1.0255313,0,0,1.0255274,-5.1523841,-342.5959)">
						<stop
   id="stop20574"
   style="stop-color:#8AC92E"
   offset="0" />

						<stop
   id="stop20576"
   style="stop-color:#64AD27"
   offset="0.5776" />

						<stop
   id="stop20578"
   style="stop-color:#4C9C23"
   offset="1" />

						<a:midPointStop
   style="stop-color:#8AC92E"
   offset="0" />

						<a:midPointStop
   style="stop-color:#8AC92E"
   offset="0.4607" />

						<a:midPointStop
   style="stop-color:#4C9C23"
   offset="1" />

					</radialGradient>
    <radialGradient
       gradientUnits="userSpaceOnUse"
       fy="366.14359"
       fx="26.559601"
       r="9.6121998"
       cy="366.14359"
       cx="26.559601"
       id="XMLID_1615_"
       gradientTransform="matrix(1.0255313,0,0,1.0255274,-5.1523841,-342.5959)">
						<stop
   id="stop20583"
   style="stop-color:#8AC92E"
   offset="0" />

						<stop
   id="stop20585"
   style="stop-color:#64AD27"
   offset="0.5776" />

						<stop
   id="stop20587"
   style="stop-color:#4C9C23"
   offset="1" />

						<a:midPointStop
   style="stop-color:#8AC92E"
   offset="0" />

						<a:midPointStop
   style="stop-color:#8AC92E"
   offset="0.4607" />

						<a:midPointStop
   style="stop-color:#4C9C23"
   offset="1" />

					</radialGradient>
  </defs>
  <sodipodi:namedview
     id="base"
     pagecolor="#ffffff"
     bordercolor="#666666"
     borderopacity="1.0"
     inkscape:pageopacity="0.0"
     inkscape:pageshadow="2"
     inkscape:zoom="7"
     inkscape:cx="24"
     inkscape:cy="24"
     inkscape:current-layer="layer1"
     showgrid="true"
     inkscape:grid-bbox="true"
     inkscape:document-units="px"
     inkscape:window-width="744"
     inkscape:window-height="573"
     inkscape:window-x="270"
     inkscape:window-y="141" />
  <metadata
     id="metadata55363">
    <rdf:RDF>
      <cc:Work
         rdf:about="">
        <dc:format>image/svg+xml</dc:format>
        <dc:type
           rdf:resource="http://purl.org/dc/dcmitype/StillImage" />
      </cc:Work>
    </rdf:RDF>
  </metadata>
  <g
     id="layer1"
     inkscape:label="Layer 1"
     inkscape:groupmode="layer">
    <g
       transform="matrix(1.0255313,0,0,1.0255274,-5.152384,-342.5959)"
       id="g20523">
						<path
   style="fill:none;stroke:#306316;stroke-width:1.26763797"
   id="path20525"
   d="M 25.993,375.827 L 29.27,377.462 C 25.585,370.592 16.126,356.652 5.671,354.063 C 16.926,358.919 21.751,367.464 24.658,375.852 L 25.993,375.827 z "
   i:knockout="Off" />

						<path
   style="fill:none;stroke:#306316;stroke-width:1.26763797"
   id="path20527"
   d="M 24.659,375.852 C 20.542,350.224 22.268,339.203 26.483,334.546 C 18.817,342.411 20.807,364.717 22.799,374.972 C 24.156,375.93 25.229,379.288 24.659,375.852 z "
   i:knockout="Off" />

						<path
   style="fill:none;stroke:#306316;stroke-width:1.26763797"
   id="path20529"
   d="M 22.8,377.063 C 20.808,374.275 18.818,371.884 16.528,370.491 C 19.94,372.335 22.85,375.891 23.82,377.429 C 23.092,376.862 22.8,377.063 22.8,377.063 z "
   i:knockout="Off" />

						<path
   style="fill:none;stroke:#306316;stroke-width:1.26763797"
   id="path20531"
   d="M 32.061,377.513 C 32.659,374.228 33.745,372.741 37.129,370.549 C 37.129,370.549 31.951,372.54 29.861,378.714 L 32.061,377.513 z "
   i:knockout="Off" />

						<path
   style="fill:none;stroke:#306316;stroke-width:1.26763797"
   id="path20533"
   d="M 29.57,375.569 C 33.852,357.945 43.808,355.057 49.384,358.742 C 41.449,353.721 32.857,359.829 28.957,369.728 C 29.855,371.799 29.57,375.569 29.57,375.569 z "
   i:knockout="Off" />

						<path
   style="fill:none;stroke:#306316;stroke-width:1.26763797"
   id="path20535"
   d="M 28.93,374.036 C 27.742,362.345 25.642,353.488 24.18,352.759 C 24.729,352.759 25.094,367.369 25.642,374.219 C 25.606,376.758 27.863,377.579 28.068,379.528 C 29.092,377.271 28.93,374.036 28.93,374.036 z "
   i:knockout="Off" />

					</g>
    <path
       style="fill:url(#XMLID_1610_);stroke:#306316;stroke-width:0.25"
       id="path20544"
       d="M 21.504251,42.824979 L 24.864917,44.501716 C 21.085834,37.456343 11.385334,23.160491 0.66340391,20.505401 C 12.205759,25.485362 17.153947,34.248493 20.135167,42.850617 L 21.504251,42.824979 z "
       i:knockout="Off" />
    <path
       style="fill:url(#XMLID_1611_);stroke:#306316;stroke-width:0.25"
       id="path20553"
       d="M 20.136192,42.850617 C 15.91408,16.568401 17.684147,5.2660636 22.006761,0.49018252 C 14.145038,8.5559555 16.185846,31.43137 18.228704,41.948153 C 19.62035,42.930608 20.720745,46.374329 20.136192,42.850617 z "
       i:knockout="Off" />
    <path
       style="fill:url(#XMLID_1612_);stroke:#306316;stroke-width:0.25"
       id="path20562"
       d="M 18.22973,44.092531 C 16.186871,41.23336 14.146064,38.781324 11.797597,37.352765 C 15.29671,39.243837 18.281006,42.890613 19.275771,44.467874 C 18.529185,43.8864 18.22973,44.092531 18.22973,44.092531 z "
       i:knockout="Off" />
    <path
       style="fill:url(#XMLID_1613_);stroke:#306316;stroke-width:0.25"
       id="path20571"
       d="M 27.727175,44.554018 C 28.340443,41.185161 29.45417,39.660201 32.924568,37.412245 C 32.924568,37.412245 27.614366,39.45407 25.471006,45.785677 L 27.727175,44.554018 z "
       i:knockout="Off" />
    <path
       style="fill:url(#XMLID_1614_);stroke:#306316;stroke-width:0.25"
       id="path20580"
       d="M 25.172576,42.560393 C 29.563901,24.486498 39.774091,21.524775 45.492454,25.303843 C 37.354863,20.15467 28.543498,26.418592 24.543926,36.570287 C 25.464853,38.694155 25.172576,42.560393 25.172576,42.560393 z "
       i:knockout="Off" />
    <path
       style="fill:url(#XMLID_1615_);stroke:#306316;stroke-width:0.25"
       id="path20589"
       d="M 24.516236,40.988259 C 23.297905,28.998819 21.14429,19.915722 19.644963,19.168113 C 20.207979,19.168113 20.582298,34.151068 21.14429,41.175931 C 21.10737,43.779745 23.421995,44.621703 23.632228,46.620456 C 24.682373,44.305841 24.516236,40.988259 24.516236,40.988259 z "
       i:knockout="Off" />
  </g>
</svg>
