<?xml version="1.0" encoding="UTF-8" standalone="no"?>
<!-- Generator: Adobe Illustrator 15.0.0, SVG Export Plug-In . SVG Version: 6.00 Build 0)  -->

<svg
   xmlns:dc="http://purl.org/dc/elements/1.1/"
   xmlns:cc="http://creativecommons.org/ns#"
   xmlns:rdf="http://www.w3.org/1999/02/22-rdf-syntax-ns#"
   xmlns:svg="http://www.w3.org/2000/svg"
   xmlns="http://www.w3.org/2000/svg"
   xmlns:xlink="http://www.w3.org/1999/xlink"
   xmlns:sodipodi="http://sodipodi.sourceforge.net/DTD/sodipodi-0.dtd"
   xmlns:inkscape="http://www.inkscape.org/namespaces/inkscape"
   version="1.0"
   id="Layer_1"
   x="0px"
   y="0px"
   width="48"
   height="48"
   viewBox="0 0 612 792"
   enable-background="new 0 0 612 792"
   xml:space="preserve"
   sodipodi:version="0.32"
   inkscape:version="0.48.5 r10040"
   sodipodi:docname="hair.svg"
   inkscape:output_extension="org.inkscape.output.svg.inkscape"><metadata
     id="metadata8869"><rdf:RDF><cc:Work
         rdf:about=""><dc:format>image/svg+xml</dc:format><dc:type
           rdf:resource="http://purl.org/dc/dcmitype/StillImage" /></cc:Work></rdf:RDF></metadata><defs
     id="defs8867"><inkscape:perspective
       sodipodi:type="inkscape:persp3d"
       inkscape:vp_x="0 : 396 : 1"
       inkscape:vp_y="0 : 1000 : 0"
       inkscape:vp_z="612 : 396 : 1"
       inkscape:persp3d-origin="306 : 264 : 1"
       id="perspective8871" /><radialGradient
       inkscape:collect="always"
       xlink:href="#SVGID_1_"
       id="radialGradient8908"
       gradientUnits="userSpaceOnUse"
       gradientTransform="matrix(1.0347,0,0,1,-10.2481,0)"
       cx="366.55179"
       cy="353.40479"
       r="30.908899" /><radialGradient
       inkscape:collect="always"
       xlink:href="#SVGID_2_"
       id="radialGradient8910"
       gradientUnits="userSpaceOnUse"
       gradientTransform="matrix(0.8006,-0.6335,0.4589,0.5416,-84.0283,392.3109)"
       cx="367.28909"
       cy="348.20209"
       r="23.927" /><radialGradient
       inkscape:collect="always"
       xlink:href="#SVGID_3_"
       id="radialGradient8912"
       gradientUnits="userSpaceOnUse"
       gradientTransform="matrix(1.0347,0,0,1,-10.2481,0)"
       cx="360.20209"
       cy="367.89841"
       r="23.198" /><radialGradient
       inkscape:collect="always"
       xlink:href="#SVGID_4_"
       id="radialGradient8914"
       gradientUnits="userSpaceOnUse"
       gradientTransform="matrix(0.227,0.9756,-0.5047,0.1097,464.976,-51.6958)"
       cx="370.75491"
       cy="348.22461"
       r="15.4936" /><radialGradient
       id="SVGID_1_"
       cx="366.55179"
       cy="353.40479"
       r="30.908899"
       gradientTransform="matrix(1.0347,0,0,1,-10.2481,0)"
       gradientUnits="userSpaceOnUse"><stop
         offset="0.3988"
         style="stop-color:#FDD6BF;stop-opacity:0"
         id="stop8811" /><stop
         offset="0.5399"
         style="stop-color:#FDCDA2"
         id="stop8813" /><stop
         offset="0.8589"
         style="stop-color:#FDCDA2;stop-opacity:0"
         id="stop8815" /></radialGradient><radialGradient
       id="SVGID_2_"
       cx="367.28909"
       cy="348.20209"
       r="23.927"
       gradientTransform="matrix(0.8006,-0.6335,0.4589,0.5416,-84.0283,392.3109)"
       gradientUnits="userSpaceOnUse"><stop
         offset="0"
         style="stop-color:#FABA9A"
         id="stop8820" /><stop
         offset="0.4724"
         style="stop-color:#FDCDA2;stop-opacity:0"
         id="stop8822" /><stop
         offset="0.8037"
         style="stop-color:#FFFFFF;stop-opacity:0"
         id="stop8824" /></radialGradient><radialGradient
       id="SVGID_3_"
       cx="360.20209"
       cy="367.89841"
       r="23.198"
       gradientTransform="matrix(1.0347,0,0,1,-10.2481,0)"
       gradientUnits="userSpaceOnUse"><stop
         offset="0"
         style="stop-color:#8A421E"
         id="stop8831" /><stop
         offset="0.6503"
         style="stop-color:#B84826;stop-opacity:0"
         id="stop8833" /><stop
         offset="1"
         style="stop-color:#FFFFFF;stop-opacity:0"
         id="stop8835" /></radialGradient><radialGradient
       id="SVGID_4_"
       cx="370.75491"
       cy="348.22461"
       r="15.4936"
       gradientTransform="matrix(0.227,0.9756,-0.5047,0.1097,464.976,-51.6958)"
       gradientUnits="userSpaceOnUse"><stop
         offset="0.0552"
         style="stop-color:#8A421E"
         id="stop8840" /><stop
         offset="0.4172"
         style="stop-color:#B84826;stop-opacity:0"
         id="stop8842" /><stop
         offset="1"
         style="stop-color:#FFFFFF;stop-opacity:0"
         id="stop8844" /></radialGradient><radialGradient
       inkscape:collect="always"
       xlink:href="#SVGID_4_"
       id="radialGradient8942"
       gradientUnits="userSpaceOnUse"
       gradientTransform="matrix(3.9292678,16.884919,-8.7361298,1.8986016,2048.0337,-6788.9188)"
       cx="370.75491"
       cy="348.22461"
       r="15.4936" /><radialGradient
       inkscape:collect="always"
       xlink:href="#SVGID_3_"
       id="radialGradient8945"
       gradientUnits="userSpaceOnUse"
       gradientTransform="matrix(17.910191,0,0,17.307216,-6177.8814,-5894.2083)"
       cx="360.20209"
       cy="367.89841"
       r="23.198" /><radialGradient
       inkscape:collect="always"
       xlink:href="#SVGID_2_"
       id="radialGradient8949"
       gradientUnits="userSpaceOnUse"
       gradientTransform="matrix(13.858026,-10.964121,7.9433524,9.3735881,-7454.9835,895.60101)"
       cx="367.28909"
       cy="348.20209"
       r="23.927" /><radialGradient
       inkscape:collect="always"
       xlink:href="#SVGID_1_"
       id="radialGradient8952"
       gradientUnits="userSpaceOnUse"
       gradientTransform="matrix(17.910191,0,0,17.307216,-6177.8814,-5894.2083)"
       cx="366.55179"
       cy="353.40479"
       r="30.908899" /></defs><sodipodi:namedview
     inkscape:window-height="1475"
     inkscape:window-width="2560"
     inkscape:pageshadow="2"
     inkscape:pageopacity="0.0"
     guidetolerance="10.0"
     gridtolerance="10.0"
     objecttolerance="10.0"
     borderopacity="1.0"
     bordercolor="#666666"
     pagecolor="#ffffff"
     id="base"
     showgrid="false"
     inkscape:zoom="18.666667"
     inkscape:cx="24.854213"
     inkscape:cy="19.582896"
     inkscape:window-x="0"
     inkscape:window-y="0"
     inkscape:current-layer="Layer_1"
     inkscape:window-maximized="1" /><path
     stroke-miterlimit="10"
     d="M 552.69642,269.30651 C 556.52184,206.53324 547.91897,99.384267 505.33749,62.692973 466.32176,29.030439 411.20814,0.75044847 356.12916,11.636687 345.82998,13.696247 336.102,17.521141 327.13566,22.107552 278.42658,16.828853 262.65758,11.013628 235.93164,10.425182 209.27494,9.8194288 182.49706,6.0983785 165.82796,23.734431 150.33591,40.08975 130.42993,47.843383 115.75143,52.170187 89.042796,60.027663 65.674903,93.897884 57.29708,148.72714 c -8.308584,54.82926 -1.661717,87.08991 11.753185,104.84713 13.345664,17.72258 19.594411,51.1082 37.302075,107.65087 14.40155,45.98526 65.29163,86.17262 43.20465,114.91991 -14.08998,18.25911 -8.42976,23.31282 11.40699,21.73786 7.09692,-0.60574 3.56576,10.7824 9.0702,18.57065 3.40999,4.77679 21.63694,-2.83839 30.01477,-9.29397 9.32985,-7.11328 -9.0529,63.50018 -12.44557,74.40371 -3.40999,11.02471 -14.08998,44.34108 -14.93815,63.3271 41.47369,-25.30314 85.56112,-30.85875 124.71531,-17.58412 81.21642,27.51847 111.94087,173.93752 120.11097,158.44756 25.08155,-47.36985 -55.23477,-203.93092 -52.86336,-256.94293 0.5539,-12.09774 0.41543,-25.14739 0.41543,-25.14739 0,0 36.45392,2.33648 60.46225,2.69993 18.6424,0.32883 35.22495,10.86893 44.0355,10.86893 2.87339,0 2.42333,-0.77882 1.62711,-9.27667 -0.43275,-4.69026 21.01379,11.37084 24.80458,6.16138 1.48863,-1.93842 -2.68299,-11.83815 -3.18496,-14.71114 -0.88278,-5.12293 13.74378,7.33826 20.80608,6.19598 -5.60829,-20.12828 -0.41543,-58.34262 0,-72.75953 0.10386,-4.34411 13.25911,-50.95245 13.6053,-54.95042 7.25271,-16.19954 22.50243,-59.53682 25.49698,-108.58547 z"
     id="path8806"
     style="fill:none;stroke:#e3dad2;stroke-width:13.56404972;stroke-miterlimit:10"
     inkscape:connector-curvature="0" /><path
     d="m 174.53466,642.45008 c 13.17257,-8.08246 26.62208,-14.10537 40.10622,-18.18987 28.90696,-8.80938 57.90045,-8.53246 84.59177,0.53651 32.69774,11.11124 45.93955,33.35102 67.19567,68.81349 31.58994,52.64856 45.00483,94.25511 49.93805,85.01306 23.12557,-59.03491 -59.49291,-188.85635 -52.51717,-266.32344 0.20772,-2.47494 0.43275,-5.31332 0.65777,-8.23824 0.86547,-11.19776 2.7349,-23.58973 2.7349,-23.58973 0,0 33.45936,8.96513 59.0948,12.42657 14.78236,1.95572 28.30112,2.16341 34.2383,-2.1807 13.51875,-9.93435 27.3664,-32.8664 28.49152,-74.73256 1.12512,-41.84884 16.68639,-65.33474 15.83823,-89.56484 -0.67506,-18.34565 -8.8798,-44.80838 -14.8689,-60.90409 -8.39513,-22.60323 -9.60679,-45.5872 -13.83033,-69.45387 -5.95449,-32.93563 -18.677,-67.87889 -42.91038,-92.19553 -7.75467,-7.736318 -17.08452,-14.313067 -27.62604,-19.159088 -9.81451,1.401884 -23.40251,11.232376 -38.94648,26.428118 -13.60531,13.34386 -28.66462,30.73762 -45.12599,53.13316 -5.53906,7.63248 -9.98761,11.9939 -14.45348,13.60347 -4.1716,1.4538 -8.42975,0.70959 -13.81302,-2.31918 1.31553,6.24792 0.46735,12.63427 -0.84817,16.71878 -5.71215,17.37645 -30.84562,19.81676 -36.2462,54.63889 -1.71365,10.95546 -5.31403,21.92824 -9.55486,32.10487 -8.34321,19.98984 -19.12706,37.1759 -23.0044,46.24488 3.15034,23.88395 9.90106,64.72899 9.13944,103.02986 -0.3635,17.11684 -2.21562,33.69714 -6.54301,48.06214 -4.01581,13.27464 -10.19533,24.7147 -19.26553,32.77986 -11.40699,51.80049 -13.7784,46.2795 -17.223,57.32151 -3.40998,10.97277 -14.45347,56.95804 -15.24971,75.99597 z"
     id="path8808"
     style="fill:#ffddb4"
     inkscape:connector-curvature="0" /><path
     d="m 174.32695,642.45008 c 13.18987,-8.08246 26.63939,-14.10537 40.12353,-18.18987 28.90695,-8.80938 57.88314,-8.53246 84.59177,0.53651 32.69774,11.11124 45.93954,33.35102 67.17836,68.81349 31.60725,52.64856 45.03945,94.25511 49.95536,85.01306 23.10825,-59.03491 -59.51023,-188.85635 -52.51717,-266.32344 0.20771,-2.47494 0.41542,-5.31332 0.65776,-8.23824 0.84818,-11.19776 2.7176,-23.58973 2.7176,-23.58973 0,0 33.45936,8.96513 59.09481,12.42657 14.79965,1.95572 28.31841,2.16341 34.25559,-2.1807 13.50145,-9.93435 27.34909,-32.8664 28.49152,-74.73256 1.1078,-41.84884 16.73834,-65.33474 15.83825,-89.56484 -0.64046,-18.34565 -8.84519,-44.80838 -14.85161,-60.90409 -8.41244,-22.60323 -9.62411,-45.5872 -13.86494,-69.45387 -5.91987,-32.93563 -18.64239,-67.87889 -42.91038,-92.19553 -7.72006,-7.736318 -17.08453,-14.313067 -27.64335,-19.159088 -9.77989,1.401884 -23.40251,11.249688 -38.92917,26.445428 -13.60531,13.34386 -28.68193,30.72031 -45.10869,53.11585 -5.55636,7.63248 -9.97031,11.9939 -14.47078,13.60347 -4.15429,1.4538 -8.42976,0.70959 -13.79571,-2.31918 1.31552,6.24792 0.46735,12.63427 -0.84817,16.71878 -5.71215,17.37645 -30.86294,19.81676 -36.26351,54.63889 -1.67903,10.95546 -5.29672,21.92824 -9.55487,32.10487 -8.32589,19.98984 -19.12706,37.1759 -22.98709,46.24488 3.15034,23.88395 9.90106,64.72899 9.12214,103.02986 -0.3462,17.11684 -2.18101,33.69714 -6.5257,48.06214 -4.03313,13.27464 -10.19533,24.7147 -19.26553,32.77986 -11.407,51.80049 -13.79572,46.2795 -17.20569,57.32151 -3.46192,10.97277 -14.4881,56.95804 -15.28433,75.99597 z"
     id="path8817"
     style="fill:url(#radialGradient8952)"
     inkscape:connector-curvature="0" /><path
     d="m 174.72506,643.21161 c 13.18988,-8.03055 26.6394,-14.08809 40.12353,-18.17258 28.88965,-8.80937 57.88315,-8.51515 84.55716,0.51921 32.73235,11.12854 45.95685,33.36832 67.19567,68.84811 31.62454,52.64855 45.05676,94.23778 49.95536,84.97843 23.12556,-59.01761 -59.49293,-188.85634 -52.51717,-266.30613 0.22502,-2.45762 0.43274,-5.31332 0.64046,-8.23824 0.86547,-11.19777 2.7522,-23.58973 2.7522,-23.58973 0,0 33.45937,8.98244 59.09481,12.42658 14.78236,1.9211 28.30111,2.1634 34.23829,-2.19801 13.51876,-9.91704 27.34909,-32.8491 28.49152,-74.71526 1.10781,-41.84885 16.70372,-65.31743 15.83824,-89.56484 -0.65777,-18.32834 -8.86248,-44.80838 -14.8516,-60.90409 -8.41244,-22.60323 -9.6068,-45.58721 -13.86494,-69.45386 -5.93717,-32.93563 -18.6597,-67.8789 -42.91037,-92.19553 -7.73738,-7.753633 -17.08453,-14.33038 -27.64336,-19.159093 -9.7799,1.384577 -23.38519,11.232388 -38.92918,26.445433 -13.6053,13.34385 -28.68192,30.72029 -45.12599,53.09853 -5.55637,7.63248 -9.98761,12.01121 -14.45348,13.62078 -4.15429,1.45381 -8.44706,0.70959 -13.81302,-2.33647 1.31552,6.26521 0.48467,12.61696 -0.84816,16.73608 -5.71216,17.37644 -30.84562,19.81676 -36.2462,54.63887 -1.71364,10.95547 -5.29672,21.91094 -9.55488,32.10489 -8.3432,19.98984 -19.12705,37.1759 -23.00438,46.24488 3.16764,23.86665 9.91836,64.71167 9.13944,103.02986 -0.3462,17.11683 -2.19832,33.71445 -6.52569,48.06213 -4.05044,13.27464 -10.21264,24.71471 -19.28285,32.76256 -11.40699,51.8005 -13.77841,46.2968 -17.223,57.33881 -3.39267,10.95547 -14.41886,56.99265 -15.23241,75.97868 z"
     id="path8826"
     style="fill:url(#radialGradient8949)"
     inkscape:connector-curvature="0" /><path
     d="m 150.3186,477.06233 c -14.07267,18.25911 -10.76654,20.33598 12.34171,20.90711 8.30859,0.2077 3.54845,9.84781 9.01827,17.7053 3.40998,4.7941 14.41886,-2.83839 22.81399,-9.29398 9.15675,-7.06135 14.34962,30.14916 22.8313,24.38586 22.45049,-14.98804 37.61365,-49.20441 36.03847,-85.93032 -1.93866,-45.39683 -28.37035,-110.5585 -28.37035,-121.80819 5.81601,-13.74192 26.69133,-44.393 31.72841,-76.79212 6.62955,-42.92189 43.36042,-36.67397 36.50584,-69.8346 11.02619,6.29982 17.29224,3.84218 28.2665,-11.28432 35.58843,-49.08326 65.72435,-77.224791 84.17633,-79.907409 22.13892,10.228565 37.09437,27.051179 48.9341,49.273649 16.25366,30.35685 21.67155,62.58289 25.86047,96.07235 4.05044,32.64141 22.53704,61.92522 24.07758,95.22431 1.05589,22.23976 -11.37238,42.92189 -14.33231,78.57476 -0.76161,8.53244 -1.54055,33.87022 -6.81996,50.36399 -1.17705,3.82489 -6.88919,19.74753 -12.60134,26.11658 -1.2463,1.40189 -5.71216,7.84018 -10.50691,10.15935 -1.02126,0.46728 -7.80659,5.50368 -32.14382,2.31915 -1.69634,-0.20767 -28.88965,-3.96335 -61.03348,-13.25732 -0.39812,9.27667 -2.92531,18.88217 -3.23689,24.38587 11.407,3.18453 36.15966,1.64418 61.2585,2.21533 4.55241,0.0692 25.84316,9.08628 42.0622,10.54009 4.05043,0.36344 -0.62314,-8.8613 2.82145,-8.11709 6.88921,1.4365 23.62755,8.44593 23.59293,6.9402 0,-3.85951 -4.60434,-19.28025 -1.57517,-16.99568 5.4352,4.04988 20.51181,9.76125 20.00983,7.7017 -19.81943,-83.57654 41.33521,-181.50077 41.33521,-236.57233 0,-62.89442 -4.74281,-169.92225 -47.32431,-206.596235 C 467.04874,29.913107 411.88321,1.6158093 356.83884,12.484741 346.57426,14.526992 336.8463,18.369194 327.87996,22.990221 298.5749,19.788386 281.16148,16.430786 266.15411,14.111619 256.21842,12.605891 247.32132,11.532843 236.69326,11.273235 210.00193,10.684791 183.24136,6.9810454 166.58958,24.582485 151.08022,40.955111 131.22617,48.708744 116.49574,53.018239 89.769793,60.875717 66.4019,94.728627 58.058696,149.5925 c -8.308583,54.86388 -1.627097,87.07261 11.701257,104.81251 3.929268,5.22677 7.218082,11.71698 10.40304,19.76484 16.686401,42.62767 21.931197,88.0591 46.770407,127.51956 18.52122,29.47419 38.85993,55.21001 23.3852,75.37292 z"
     id="path8828"
     style="fill:#cd4f2e"
     inkscape:connector-curvature="0" /><path
     d="m 150.24936,477.02772 c -14.07267,18.25911 -10.78385,20.33598 12.3244,20.90712 8.3259,0.19037 3.54846,9.84781 9.03558,17.70527 3.40999,4.79411 14.40155,-2.83838 22.81399,-9.29397 9.15675,-7.06133 14.3323,30.14917 22.81398,24.36857 22.4678,-14.97075 37.63096,-49.18711 36.0558,-85.91304 -1.93867,-45.39681 -28.38767,-110.55848 -28.38767,-121.80816 5.83333,-13.74194 26.70865,-44.39302 31.72841,-76.79213 6.62956,-42.92189 43.36043,-36.69129 36.52315,-69.83461 11.02618,6.29983 17.29224,3.8422 28.26649,-11.28431 35.58844,-49.08325 65.72437,-77.224795 84.17635,-79.907413 22.1216,10.228565 37.09436,27.051183 48.91679,49.256333 16.27098,30.35686 21.68886,62.60019 25.87777,96.08966 4.05044,32.64142 22.53703,61.92521 24.07759,95.207 1.05588,22.23977 -11.38969,42.92189 -14.34962,78.57476 -0.74431,8.53245 -1.54055,33.85291 -6.80265,50.34669 -1.17705,3.8422 -6.90651,19.76484 -12.61867,26.13389 -1.22897,1.36728 -5.67753,7.84017 -10.48958,10.15934 -1.00396,0.44999 -7.7893,5.5037 -32.12653,2.31917 -1.69634,-0.20769 -28.88963,-3.99797 -61.05078,-13.27464 -0.39811,9.25937 -2.908,18.88218 -3.21957,24.38587 11.40698,3.18453 36.14233,1.6615 61.25849,2.23263 4.53511,0.0692 25.84315,9.06899 42.06221,10.52279 4.03313,0.36345 -0.62314,-8.86129 2.80415,-8.13439 6.90651,1.45381 23.64484,8.46322 23.61022,6.95749 0,-3.84219 -4.60433,-19.28023 -1.57517,-16.99568 5.41789,4.04989 20.51182,9.77858 20.02715,7.70172 -19.83674,-83.57655 41.3179,-181.48347 41.3179,-236.55503 0,-62.89442 -4.76013,-169.92224 -47.34162,-206.613544 C 466.94488,29.843878 411.83128,1.5465804 356.7696,12.432819 c -10.26456,2.042251 -19.97522,5.884454 -28.94158,10.50548 -29.30506,-3.201834 -46.71847,-6.559435 -61.72584,-8.878602 -9.93568,-1.505728 -18.8501,-2.578775 -29.47817,-2.85569 -26.67402,-0.571139 -53.43458,-4.2921902 -70.12098,13.326556 -15.50935,16.372626 -35.3461,24.126258 -50.05922,28.435755 -26.725946,7.857476 -50.111148,41.693081 -58.437041,96.574262 -8.325893,54.88119 -1.661718,87.08992 11.701255,104.8298 3.929268,5.22678 7.200774,11.71699 10.38573,19.76485 16.703716,42.62767 21.948506,88.04181 46.770406,127.51956 18.52122,29.47419 38.84263,55.21003 23.3852,75.37293 z"
     id="path8837"
     style="fill:url(#radialGradient8945)"
     inkscape:connector-curvature="0" /><path
     d="m 483.23316,245.18026 c 5.59099,22.51668 31.24375,99.44726 40.07162,55.33117 5.91986,-29.87226 -4.43125,-93.70127 -9.74528,-106.57784 -3.23689,-8.13439 -6.85458,-18.15526 -7.92778,-24.2128 -3.32343,-18.32834 -10.22994,-41.52 -19.2136,-53.9812 -10.97426,-15.31688 -35.46726,-27.708852 -56.41182,-31.620283 -6.42183,-1.176891 -17.62112,-0.43268 -23.81794,1.003819 16.27098,8.238234 29.23584,19.661004 39.41385,34.493284 23.86987,34.56251 33.51128,77.84786 36.33275,118.55443 0.0346,0.225 -0.64046,-0.83076 -0.64046,-0.62306 0.0865,0.79613 1.86944,7.04403 1.93866,7.63248 z"
     id="path8846"
     style="fill:url(#radialGradient8942)"
     inkscape:connector-curvature="0" /><path
     d="m 111.30287,137.89282 c 3.7908,-3.23644 6.81996,-6.61134 9.83183,-9.48435 7.02767,-6.68058 11.11272,-14.58999 24.51032,-12.28812 -6.8892,4.36141 -2.80415,24.88778 -0.1731,27.63962 1.48863,-12.87656 16.96336,-22.53399 20.85801,-23.57242 3.89465,-1.02113 22.38125,-5.84984 15.56129,1.24611 -2.23293,2.3884 -0.57122,9.53628 2.66567,15.87072 0.3635,0.72691 0.76162,1.45381 1.22898,2.1634 0.43273,0.7269 0.91741,1.48842 1.43669,2.1461 1.00395,-10.22857 6.30067,-18.29373 9.74528,-22.88014 7.49503,-10.03818 30.1013,-18.72642 4.34469,-16.33801 -7.37387,0.70959 -23.45444,11.61314 -26.88173,3.89412 -2.12907,-4.77679 0.67508,-10.470867 12.16862,-16.909149 -2.30218,0.03461 -4.46587,0.173072 -6.59494,0.415372 -1.95598,0.207687 -3.89465,0.50191 -5.71215,0.882668 -25.60083,5.001785 -38.30604,22.170539 -37.78675,14.330379 0.65776,-8.982441 3.16765,-24.472407 31.31298,-37.418204 -17.34418,-2.872998 -50.69968,22.37823 -50.69968,16.787999 0,-12.824647 45.69721,-31.724126 58.83516,-31.499133 10.1434,0.173072 -24.16413,-2.665311 -50.3881,4.949864 -7.73737,2.232631 -14.73043,5.399852 -19.71557,9.76127 -13.293739,11.716985 -21.602324,26.947338 -27.574119,43.216124 -1.748264,4.70756 -0.986644,15.99186 0.155786,33.38562 0.882788,12.98041 8.966347,-15.62842 16.132501,-21.75518 11.355072,-9.62281 35.415342,-18.36296 25.929712,-11.0247 -10.00493,7.9267 -8.79325,10.73048 -9.19138,26.48004 z"
     id="path8848"
     style="opacity:0.62999998;fill:#eabaa2"
     inkscape:connector-curvature="0" /><path
     d="m 128.23161,104.28222 c -4.5351,3.09798 -6.05834,15.62841 -4.29276,17.56681 0.95202,-9.1209 15.38818,-13.94961 17.91537,-14.67651 2.56182,-0.7269 14.74774,-4.11912 10.26457,0.86535 -1.47131,1.69612 -0.38081,6.74981 1.74827,11.23239 0.25964,0.51922 0.50197,1.03844 0.81354,1.54034 0.27695,0.51922 0.57122,1.03843 0.96934,1.48842 0.62314,-7.25172 4.11967,-12.9458 6.36991,-16.18223 4.93322,-7.11328 19.61172,-14.399615 3.06379,-10.418962 -7.68543,1.851881 -20.1137,8.134392 -28.82039,9.588202 -4.22354,-2.61338 -1.59249,-8.549762 -2.7003,-11.318917 -1.38476,-3.392215 0.43275,-7.40749 8.01432,-11.94198 -1.52323,0 -2.95992,0.103844 -4.32738,0.311531 -1.31553,0.138458 -2.56181,0.346144 -3.75617,0.623059 -16.8422,3.530672 -25.53159,14.555361 -25.15078,8.999752 0.39812,-6.351747 1.17705,-6.178676 1.17705,-10.124721 0,-9.068981 30.06669,-22.464766 38.70416,-22.309001 6.69878,0.103843 -15.89017,-1.869179 -33.13048,3.496058 -5.08901,1.592264 -9.69335,3.824894 -12.94755,6.922886 -8.741321,8.290157 -14.19383,19.08986 -18.140408,30.581853 -1.125121,3.3576 -0.657763,11.31892 0.08655,23.62434 0.571216,9.17283 5.919866,-11.05931 10.610753,-15.38612 7.495037,-6.80173 21.636937,-12.980391 15.422817,-7.78823 -3.04648,2.61338 -4.79475,4.63833 -4.79475,8.68822 9.00097,-4.36143 18.17503,-6.2479 22.90053,-5.38254 z"
     id="path8850"
     style="opacity:0.62999998;fill:#eabaa2"
     inkscape:connector-curvature="0" /><path
     d="m 316.80184,91.976783 c 12.53212,-15.507266 42.4084,-33.991372 62.05475,-38.04126 7.4431,-1.523036 14.79966,-1.436499 23.66215,0.05192 19.42131,3.305677 26.32782,0.882667 35.05183,4.499875 7.13154,2.942227 4.63897,-1.851871 -7.78929,-11.042004 -2.8907,-2.146095 -6.3526,-4.53449 -10.38573,-7.113265 C 401.39362,28.64968 389.19039,17.39999 365.54554,19.251862 c -19.16167,1.453806 -45.42025,19.764841 -59.38907,31.308754 -9.36447,7.736325 -24.76996,23.589734 -31.07064,33.783685 -5.0717,8.169006 -7.77199,14.451523 -2.23293,9.484354 10.45497,-9.363204 35.19031,-28.903051 42.68535,-30.114555 7.56428,-1.211506 27.86837,-7.857476 13.70916,1.090354 -11.0608,7.02673 -12.44557,27.172329 -12.44557,27.172329 z"
     id="path8852"
     style="opacity:0.62999998;fill:#eabaa2"
     inkscape:connector-curvature="0" /><path
     d="m 322.54861,73.146531 c 8.10089,-10.020877 27.38372,-21.980163 40.07162,-24.576245 4.81204,-0.986511 9.55487,-0.93459 15.30163,0.03461 12.53212,2.146095 16.99798,0.588445 22.6582,2.907612 4.63897,1.903794 2.99456,-1.194198 -5.03708,-7.130572 -1.86943,-1.36727 -4.11966,-2.92492 -6.69878,-4.586413 -11.66665,-7.545946 -19.50786,-14.814977 -34.82683,-13.620778 -12.37632,0.951896 -29.32237,12.755417 -38.35795,20.214827 -6.05834,5.019093 -16.01133,15.247657 -20.07908,21.841706 -3.27151,5.261394 -5.00246,9.328591 -1.454,6.126755 6.80266,-6.074833 22.74474,-18.674486 27.59142,-19.470617 4.88128,-0.778825 18.01924,-5.071014 8.8798,0.709595 -7.14884,4.534491 -8.04895,17.549516 -8.04895,17.549516 z"
     id="path8854"
     style="opacity:0.62999998;fill:#eabaa2"
     inkscape:connector-curvature="0" /><path
     stroke-miterlimit="10"
     d="m 240.0167,111.49933 c 19.38669,18.13795 22.96977,28.66074 33.07854,37.52204 11.23391,9.88242 17.3615,19.57446 23.43713,23.19167"
     id="path8856"
     style="fill:none;stroke:#e1d8ce;stroke-width:5.08651829;stroke-linecap:round;stroke-linejoin:round;stroke-miterlimit:10"
     inkscape:connector-curvature="0" /><g
     id="g8858"
     transform="matrix(17.30955,0,0,17.307216,-6000.4915,-5894.2083)"><path
       stroke-miterlimit="10"
       d="m 365.436,341.965 c -1.068,0.555 -1.623,1.131 -2.222,1.563"
       id="path8860"
       style="fill:none;stroke:#601400;stroke-width:0.29387602;stroke-linecap:round;stroke-linejoin:round;stroke-miterlimit:10"
       inkscape:connector-curvature="0" /><path
       stroke-miterlimit="10"
       d="m 360.398,347.168 c 1.12,1.049 1.327,1.656 1.91,2.169 0.651,0.57 1.004,1.129 1.356,1.339 0.159,0.944 -0.155,1.465 -1.147,2.162 -1.068,0.751 -0.827,2.427 -1.597,3.868 -0.771,1.44 -1.136,2.615 -2.22,3.628 -0.97,0.906 -1.99,1.401 -2.627,1.401 0.509,-1.234 0.689,-1.655 0.689,-1.655 0,0 -1.068,0.875 -1.41,0.944 0.289,-0.559 0.434,-0.839 0.434,-0.839 0,0 -0.652,0.348 -1.012,0.141 0.904,-0.979 0.4,-3.054 0.812,-4.359"
       id="path8862"
       style="fill:none;stroke:#601400;stroke-width:0.29387602;stroke-linecap:round;stroke-linejoin:round;stroke-miterlimit:10"
       inkscape:connector-curvature="0" /><path
       stroke-miterlimit="10"
       d="m 375.377,348.657 c -0.587,-1.958 -2.142,-2.99 -4.032,-3.483 -0.408,-0.107 -1.193,-0.015 -1.728,0.246 0,0 -1.179,0.419 -2.932,2.532 -1.752,2.112 -1.787,2.331 -1.908,2.431 -0.122,0.101 -0.365,0.419 -0.799,0.318 -0.434,-0.1 -0.434,-0.117 -0.607,-0.268"
       id="path8864"
       style="fill:none;stroke:#601400;stroke-width:0.29387602;stroke-linecap:round;stroke-linejoin:round;stroke-miterlimit:10"
       inkscape:connector-curvature="0" /></g></svg>