<?xml version="1.0" encoding="UTF-8" standalone="no"?>
<!-- Generator: Adobe Illustrator 15.0.0, SVG Export Plug-In . SVG Version: 6.00 Build 0)  -->

<svg
   xmlns:dc="http://purl.org/dc/elements/1.1/"
   xmlns:cc="http://creativecommons.org/ns#"
   xmlns:rdf="http://www.w3.org/1999/02/22-rdf-syntax-ns#"
   xmlns:svg="http://www.w3.org/2000/svg"
   xmlns="http://www.w3.org/2000/svg"
   xmlns:xlink="http://www.w3.org/1999/xlink"
   xmlns:sodipodi="http://sodipodi.sourceforge.net/DTD/sodipodi-0.dtd"
   xmlns:inkscape="http://www.inkscape.org/namespaces/inkscape"
   version="1.0"
   id="Layer_1"
   x="0px"
   y="0px"
   width="48"
   height="48"
   viewBox="0 0 612 792"
   enable-background="new 0 0 612 792"
   xml:space="preserve"
   sodipodi:version="0.32"
   inkscape:version="0.48.5 r10040"
   sodipodi:docname="hairstyle.svg"
   inkscape:output_extension="org.inkscape.output.svg.inkscape"><metadata
     id="metadata9213"><rdf:RDF><cc:Work
         rdf:about=""><dc:format>image/svg+xml</dc:format><dc:type
           rdf:resource="http://purl.org/dc/dcmitype/StillImage" /></cc:Work></rdf:RDF></metadata><defs
     id="defs9211"><inkscape:perspective
       sodipodi:type="inkscape:persp3d"
       inkscape:vp_x="0 : 396 : 1"
       inkscape:vp_y="0 : 1000 : 0"
       inkscape:vp_z="612 : 396 : 1"
       inkscape:persp3d-origin="306 : 264 : 1"
       id="perspective9215" /><linearGradient
       inkscape:collect="always"
       xlink:href="#SVGID_1_"
       id="linearGradient9271"
       gradientUnits="userSpaceOnUse"
       x1="340.35349"
       y1="475.4209"
       x2="335.0961"
       y2="457.89621" /><radialGradient
       inkscape:collect="always"
       xlink:href="#SVGID_2_"
       id="radialGradient9273"
       gradientUnits="userSpaceOnUse"
       gradientTransform="matrix(1.0172,0,0,1,-5.6046,0)"
       cx="339.36719"
       cy="453.95801"
       r="95.967102" /><radialGradient
       inkscape:collect="always"
       xlink:href="#SVGID_3_"
       id="radialGradient9275"
       gradientUnits="userSpaceOnUse"
       gradientTransform="matrix(1.0172,0,0,1,-5.6046,0)"
       cx="351.67191"
       cy="481.78809"
       r="33.500301" /><radialGradient
       inkscape:collect="always"
       xlink:href="#SVGID_4_"
       id="radialGradient9277"
       gradientUnits="userSpaceOnUse"
       gradientTransform="matrix(1.0172,0,0,1,-5.6046,0)"
       cx="359.0264"
       cy="475.63089"
       r="18.771299" /><radialGradient
       inkscape:collect="always"
       xlink:href="#SVGID_5_"
       id="radialGradient9279"
       gradientUnits="userSpaceOnUse"
       gradientTransform="matrix(0.4811,0.8811,-0.3137,0.1655,327.0887,72.2611)"
       cx="352.28909"
       cy="458.5654"
       r="26.957899" /><radialGradient
       inkscape:collect="always"
       xlink:href="#SVGID_6_"
       id="radialGradient9281"
       gradientUnits="userSpaceOnUse"
       gradientTransform="matrix(-0.5144,0.8627,-0.1755,-0.1011,585.9231,209.3559)"
       cx="334.40329"
       cy="452.11621"
       r="21.009701" /><radialGradient
       inkscape:collect="always"
       xlink:href="#SVGID_7_"
       id="radialGradient9283"
       gradientUnits="userSpaceOnUse"
       gradientTransform="matrix(1.007,-0.1414,0.1007,0.693,-51.0734,196.5697)"
       cx="335.6543"
       cy="485.6152"
       r="26.516899" /><radialGradient
       inkscape:collect="always"
       xlink:href="#SVGID_8_"
       id="radialGradient9285"
       gradientUnits="userSpaceOnUse"
       gradientTransform="matrix(0.9863,-0.2447,0.1742,0.6787,-78.438,239.2968)"
       cx="347.9873"
       cy="479.82419"
       r="13.7942" /><linearGradient
       id="SVGID_1_"
       gradientUnits="userSpaceOnUse"
       x1="340.35349"
       y1="475.4209"
       x2="335.0961"
       y2="457.89621"><stop
         offset="0"
         style="stop-color:#D8B08D;stop-opacity:0.75"
         id="stop9123" /><stop
         offset="0.2025"
         style="stop-color:#E9CFB5;stop-opacity:0.3852"
         id="stop9125" /><stop
         offset="0.7485"
         style="stop-color:#FFFFFF;stop-opacity:0"
         id="stop9127" /></linearGradient><radialGradient
       id="SVGID_2_"
       cx="339.36719"
       cy="453.95801"
       r="95.967102"
       gradientTransform="matrix(1.0172,0,0,1,-5.6046,0)"
       gradientUnits="userSpaceOnUse"><stop
         offset="0"
         style="stop-color:#CDA183;stop-opacity:0.75"
         id="stop9132" /><stop
         offset="0.1411"
         style="stop-color:#E9CFB5;stop-opacity:0.3852"
         id="stop9134" /><stop
         offset="0.6074"
         style="stop-color:#FFFFFF;stop-opacity:0"
         id="stop9136" /></radialGradient><radialGradient
       id="SVGID_3_"
       cx="351.67191"
       cy="481.78809"
       r="33.500301"
       gradientTransform="matrix(1.0172,0,0,1,-5.6046,0)"
       gradientUnits="userSpaceOnUse"><stop
         offset="0"
         style="stop-color:#161002;stop-opacity:0.89"
         id="stop9143" /><stop
         offset="0.3313"
         style="stop-color:#3F2E01;stop-opacity:0.3852"
         id="stop9145" /><stop
         offset="0.7485"
         style="stop-color:#4C2F04;stop-opacity:0"
         id="stop9147" /></radialGradient><radialGradient
       id="SVGID_4_"
       cx="359.0264"
       cy="475.63089"
       r="18.771299"
       gradientTransform="matrix(1.0172,0,0,1,-5.6046,0)"
       gradientUnits="userSpaceOnUse"><stop
         offset="0.0368"
         style="stop-color:#443A22"
         id="stop9156" /><stop
         offset="0.4294"
         style="stop-color:#1F1000;stop-opacity:0.3852"
         id="stop9158" /><stop
         offset="1"
         style="stop-color:#4E3107;stop-opacity:0"
         id="stop9160" /></radialGradient><radialGradient
       id="SVGID_5_"
       cx="352.28909"
       cy="458.5654"
       r="26.957899"
       gradientTransform="matrix(0.4811,0.8811,-0.3137,0.1655,327.0887,72.2611)"
       gradientUnits="userSpaceOnUse"><stop
         offset="0.0368"
         style="stop-color:#8A756F"
         id="stop9165" /><stop
         offset="0.4294"
         style="stop-color:#633812;stop-opacity:0.3852"
         id="stop9167" /><stop
         offset="1"
         style="stop-color:#6F4C39;stop-opacity:0"
         id="stop9169" /></radialGradient><radialGradient
       id="SVGID_6_"
       cx="334.40329"
       cy="452.11621"
       r="21.009701"
       gradientTransform="matrix(-0.5144,0.8627,-0.1755,-0.1011,585.9231,209.3559)"
       gradientUnits="userSpaceOnUse"><stop
         offset="0"
         style="stop-color:#ECE7E8;stop-opacity:0.52"
         id="stop9174" /><stop
         offset="0.2025"
         style="stop-color:#DED8CD;stop-opacity:0.3852"
         id="stop9176" /><stop
         offset="0.7485"
         style="stop-color:#603E14;stop-opacity:0"
         id="stop9178" /></radialGradient><radialGradient
       id="SVGID_7_"
       cx="335.6543"
       cy="485.6152"
       r="26.516899"
       gradientTransform="matrix(1.007,-0.1414,0.1007,0.693,-51.0734,196.5697)"
       gradientUnits="userSpaceOnUse"><stop
         offset="0"
         style="stop-color:#CD925D"
         id="stop9197" /><stop
         offset="0.7485"
         style="stop-color:#FFFFFF;stop-opacity:0"
         id="stop9199" /></radialGradient><radialGradient
       id="SVGID_8_"
       cx="347.9873"
       cy="479.82419"
       r="13.7942"
       gradientTransform="matrix(0.9863,-0.2447,0.1742,0.6787,-78.438,239.2968)"
       gradientUnits="userSpaceOnUse"><stop
         offset="0"
         style="stop-color:#CD925D"
         id="stop9204" /><stop
         offset="0.7485"
         style="stop-color:#FFFFFF;stop-opacity:0"
         id="stop9206" /></radialGradient><radialGradient
       inkscape:collect="always"
       xlink:href="#SVGID_8_"
       id="radialGradient9318"
       gradientUnits="userSpaceOnUse"
       gradientTransform="matrix(17.278662,-4.286662,3.0517518,11.889487,-7083.4343,-3623.9221)"
       cx="347.9873"
       cy="479.82419"
       r="13.7942" /><radialGradient
       inkscape:collect="always"
       xlink:href="#SVGID_7_"
       id="radialGradient9321"
       gradientUnits="userSpaceOnUse"
       gradientTransform="matrix(17.641298,-2.4770495,1.7641298,12.139995,-6604.043,-4372.4168)"
       cx="335.6543"
       cy="485.6152"
       r="26.516899" /><radialGradient
       inkscape:collect="always"
       xlink:href="#SVGID_6_"
       id="radialGradient9331"
       gradientUnits="userSpaceOnUse"
       gradientTransform="matrix(-9.0116025,15.112804,-3.0745261,-1.7710728,4555.2869,-4148.4276)"
       cx="334.40329"
       cy="452.11621"
       r="21.009701" /><radialGradient
       inkscape:collect="always"
       xlink:href="#SVGID_5_"
       id="radialGradient9334"
       gradientUnits="userSpaceOnUse"
       gradientTransform="matrix(8.4282309,15.435136,-5.4956059,2.899234,20.853099,-6550.0586)"
       cx="352.28909"
       cy="458.5654"
       r="26.957899" /><radialGradient
       inkscape:collect="always"
       xlink:href="#SVGID_4_"
       id="radialGradient9337"
       gradientUnits="userSpaceOnUse"
       gradientTransform="matrix(17.819989,0,0,17.518029,-5807.4902,-7815.9307)"
       cx="359.0264"
       cy="475.63089"
       r="18.771299" /><radialGradient
       inkscape:collect="always"
       xlink:href="#SVGID_3_"
       id="radialGradient9342"
       gradientUnits="userSpaceOnUse"
       gradientTransform="matrix(17.819989,0,0,17.518029,-5807.4902,-7815.9307)"
       cx="351.67191"
       cy="481.78809"
       r="33.500301" /><radialGradient
       inkscape:collect="always"
       xlink:href="#SVGID_2_"
       id="radialGradient9346"
       gradientUnits="userSpaceOnUse"
       gradientTransform="matrix(17.819989,0,0,17.518029,-5807.4902,-7815.9307)"
       cx="339.36719"
       cy="453.95801"
       r="95.967102" /><linearGradient
       inkscape:collect="always"
       xlink:href="#SVGID_1_"
       id="linearGradient9349"
       gradientUnits="userSpaceOnUse"
       x1="340.35349"
       y1="475.4209"
       x2="335.0961"
       y2="457.89621"
       gradientTransform="matrix(17.518666,0,0,17.518029,-5709.3051,-7815.9307)" /></defs><sodipodi:namedview
     inkscape:window-height="1475"
     inkscape:window-width="2560"
     inkscape:pageshadow="2"
     inkscape:pageopacity="0.0"
     guidetolerance="10.0"
     gridtolerance="10.0"
     objecttolerance="10.0"
     borderopacity="1.0"
     bordercolor="#666666"
     pagecolor="#ffffff"
     id="base"
     showgrid="false"
     inkscape:zoom="18.666667"
     inkscape:cx="20.454058"
     inkscape:cy="20.698778"
     inkscape:window-x="0"
     inkscape:window-y="0"
     inkscape:current-layer="Layer_1"
     inkscape:window-maximized="1" /><path
     d="m 424.17311,731.69441 c -9.53015,-14.102 -36.77168,-34.56306 -51.10195,-44.11039 -26.40064,-17.62314 -44.5675,-15.80126 -73.666,-9.33711 -35.61544,7.86559 -66.02785,32.44339 -92.74382,67.63711 -39.7849,52.23877 -57.6189,45.91477 -61.59564,35.40394 -16.69529,-65.62254 63.31246,-169.87233 64.43367,-250.96329 0.035,-2.55764 0.14014,-5.57074 0.24525,-8.72399 0.54308,-12.06993 0.1752,-25.45369 0.1752,-25.45369 0,0 -36.17606,5.50066 -63.45262,6.1313 -15.74928,0.24526 -29.93941,-1.12115 -35.5629,-6.42912 -12.911249,-12.24509 -24.491092,-38.29441 -20.426761,-83.03546 4.134408,-44.75856 -9.162263,-71.6137 -5.203044,-97.33017 3.048248,-19.48005 14.925905,-46.65052 23.264785,-63.11747 11.66744,-23.01869 15.83688,-47.36876 23.33487,-72.2969 10.37105,-34.37038 28.09995,-70.03708 56.58529,-93.055782 9.07467,-7.322538 19.69099,-13.191078 31.3409,-17.097599 10.09075,2.645223 25.48966,6.376563 39.81993,24.455171 12.5784,15.85382 16.83544,19.49757 25.47214,36.01707 2.96065,5.62329 6.55199,10.72103 11.03676,12.96334 4.13441,2.06712 8.7243,1.78684 14.71569,-0.80583 -2.1548,6.49919 2.43509,20.72383 3.34606,25.19093 3.74899,19.18225 33.81103,36.47254 39.20678,86.32885 1.71682,15.64361 5.02786,30.58648 8.25129,41.97321 6.20161,22.2654 23.72027,41.97319 30.79782,52.15117 3.52125,25.12086 17.01062,68.16265 12.96381,109.08477 -1.78691,18.20124 -21.02241,34.59812 -18.30701,50.43442 2.50518,14.61004 6.60454,27.92373 13.73464,38.01412 0.22773,58.40512 3.3811,71.10568 5.57093,83.28072 2.22488,12.12247 19.28806,82.38729 17.76393,102.69068 z"
     id="path9118"
     inkscape:connector-curvature="0" /><path
     d="m 424.17311,731.69441 c -9.53015,-14.102 -36.77168,-34.56306 -51.10195,-44.11039 -26.40064,-17.62314 -44.5675,-15.80126 -73.666,-9.33711 -35.61544,7.86559 -66.02785,32.44339 -92.74382,67.63711 -39.7849,52.23877 -57.6189,45.91477 -61.59564,35.40394 -16.69529,-65.62254 63.31246,-169.87233 64.43367,-250.96329 0.035,-2.55764 0.14014,-5.57074 0.24525,-8.72399 0.54308,-12.06993 0.1752,-25.45369 0.1752,-25.45369 0,0 -36.17606,5.50066 -63.45262,6.1313 -15.74928,0.24526 -29.93941,-1.12115 -35.5629,-6.42912 -12.911249,-12.24509 -24.491092,-38.29441 -20.426761,-83.03546 4.134408,-44.75856 -9.162263,-71.6137 -5.203044,-97.33017 3.048248,-19.48005 14.925905,-46.65052 23.264785,-63.11747 11.66744,-23.01869 15.83688,-47.36876 23.33487,-72.2969 10.37105,-34.37038 28.09995,-70.03708 56.58529,-93.055782 9.07467,-7.322538 19.69099,-13.191078 31.3409,-17.097599 10.09075,2.645223 25.48966,6.376563 39.81993,24.455171 12.5784,15.85382 16.83544,19.49757 25.47214,36.01707 2.96065,5.62329 6.55199,10.72103 11.03676,12.96334 4.13441,2.06712 8.7243,1.78684 14.71569,-0.80583 -2.1548,6.49919 2.43509,20.72383 3.34606,25.19093 3.74899,19.18225 33.81103,36.47254 39.20678,86.32885 1.71682,15.64361 5.02786,30.58648 8.25129,41.97321 6.20161,22.2654 23.72027,41.97319 30.79782,52.15117 3.52125,25.12086 17.01062,68.16265 12.96381,109.08477 -1.78691,18.20124 -21.02241,34.59812 -18.30701,50.43442 2.50518,14.61004 6.60454,27.92373 13.73464,38.01412 0.22773,58.40512 3.3811,71.10568 5.57093,83.28072 2.22488,12.12247 19.28806,82.38729 17.76393,102.69068 z"
     id="path9120"
     style="fill:#e9cdab"
     inkscape:connector-curvature="0" /><path
     d="m 424.47092,732.16741 c -9.54766,-14.10202 -36.78919,-34.56307 -51.11946,-44.1104 -26.40063,-17.62314 -44.5675,-15.80126 -73.64849,-9.33712 -35.63296,7.86561 -66.04537,32.4434 -92.76133,67.63713 -39.78489,52.23876 -57.6189,45.91475 -61.57812,35.40393 -16.7128,-65.62254 63.31247,-169.87234 64.41614,-250.96331 0.035,-2.55762 0.14016,-5.57073 0.24527,-8.72396 0.54307,-12.06993 0.19269,-25.4537 0.19269,-25.4537 0,0 -36.19357,5.50066 -63.47013,6.1313 -15.74928,0.24525 -29.92188,-1.12115 -35.54537,-6.42911 -12.928775,-12.24511 -24.508614,-38.29442 -20.426764,-83.03546 4.134408,-44.77609 -9.179781,-71.63123 -5.220563,-97.33019 3.048248,-19.48004 14.925907,-46.66803 23.264797,-63.11745 11.66743,-23.01871 15.83686,-47.36876 23.33485,-72.27939 10.37106,-34.38791 28.11746,-70.0371 56.58531,-93.073306 9.07466,-7.322537 19.69097,-13.173559 31.34088,-17.08008 10.09076,2.627705 25.5072,6.359045 39.81993,24.455171 12.59594,15.853815 16.83544,19.497565 25.47216,36.017065 2.96064,5.64081 6.55197,10.72105 11.03675,12.96335 4.13441,2.04961 8.7243,1.78684 14.71568,-0.80583 -2.15479,6.49918 2.4351,20.72382 3.34607,25.19093 3.7665,19.18224 33.81102,36.45502 39.22429,86.32884 1.69932,15.6436 5.02786,30.58649 8.23377,41.97322 6.20162,22.2654 23.72028,41.97319 30.79782,52.13365 3.53877,25.15589 17.01063,68.18017 12.96382,109.1023 -1.78691,18.20123 -21.0224,34.59809 -18.30701,50.4344 2.50517,14.61004 6.60453,27.92373 13.75215,38.01413 0.21024,58.40511 3.36359,71.10569 5.55342,83.28071 2.20736,12.10497 19.28806,82.3873 17.78144,102.67318 z"
     id="path9129"
     style="fill:url(#linearGradient9349)"
     inkscape:connector-curvature="0" /><path
     d="m 425.06656,730.18787 c -9.53016,-14.10201 -36.77167,-34.56307 -51.10194,-44.1104 -26.40065,-17.62314 -44.5675,-15.80126 -73.666,-9.33711 -35.63298,7.8656 -66.02786,32.44339 -92.76135,67.63712 -39.78489,52.23876 -57.60138,45.91475 -61.57812,35.40393 -16.69528,-65.62253 63.31247,-169.87233 64.43366,-250.9633 0.035,-2.55763 0.12263,-5.57073 0.24527,-8.72398 0.54307,-12.06992 0.17519,-25.45369 0.17519,-25.45369 0,0 -36.19357,5.50066 -63.47014,6.13131 -15.73176,0.24525 -29.92189,-1.12116 -35.54538,-6.42912 -12.911248,-12.24511 -24.49109,-38.29442 -20.426761,-83.03547 4.134408,-44.77608 -9.162261,-71.63122 -5.220561,-97.33017 3.048248,-19.48005 14.943422,-46.66803 23.282302,-63.11747 11.66744,-23.01868 15.83688,-47.36875 23.33487,-72.27939 10.37105,-34.38788 27.31161,-70.40496 55.77943,-93.423655 9.07468,-7.322535 19.53333,-13.611508 31.16571,-17.518029 10.10828,2.627703 26.48822,7.164873 40.81849,25.243484 12.57841,15.85382 16.83545,19.49757 25.47215,36.01707 2.96066,5.6408 6.53447,10.72103 11.03676,12.96334 4.13441,2.04961 8.7243,1.78684 14.71568,-0.80583 -2.15479,6.49918 2.4351,20.72383 3.34607,25.19093 3.74899,19.18225 33.81102,36.45502 39.20678,86.32885 1.71683,15.6436 5.02785,30.58648 8.23377,41.9732 6.21913,22.26541 23.7378,41.9732 30.81533,52.13366 3.52126,25.15589 17.01064,68.18017 12.96383,109.10229 -1.78692,18.20123 -21.02241,34.59811 -18.30702,50.43442 2.50517,14.61004 6.60454,27.92373 13.73463,38.01412 0.21023,58.40511 3.3636,71.10569 5.57094,83.28071 2.18984,12.10496 19.27053,82.36979 17.74641,102.67318 z"
     id="path9138"
     style="fill:url(#radialGradient9346)"
     inkscape:connector-curvature="0" /><path
     d="m 525.7113,659.73035 c 1.19128,21.86251 -2.24237,25.38363 -26.83859,28.53687 -8.95204,1.12116 -14.48793,15.11807 -26.38312,23.71942 -5.09792,3.73134 -40.10023,-12.01737 -48.14129,-19.88296 -115.20276,-113.28911 -205.84435,4.69482 -214.02557,-2.50509 -21.54794,-18.63917 96.45779,-148.50035 116.48163,-219.65857 13.20908,-47.00088 -19.30557,-44.16297 -9.26738,-131.75312 2.36502,-37.87398 -12.87621,-82.70262 -7.48046,-108.83952 3.71395,-17.92093 -3.67893,-25.61136 -7.72574,-35.31635 -4.55485,-10.9838 -6.35928,-24.73545 -0.40292,-51.32782 -9.61776,1.52407 -13.61201,-6.0262 -26.31305,-20.93405 -27.5043,-32.12807 -25.99771,-43.795077 -55.90207,-53.90298 -24.4911,8.233474 -42.29006,24.350068 -57.51378,46.58044 -20.86474,30.37626 -30.60511,64.04593 -39.24181,99.18709 -8.39144,34.33534 -31.410978,63.27513 -37.262207,98.609 -2.575245,15.53849 1.103676,31.05946 3.433659,50.94243 1.243825,10.12542 2.10224,21.45958 1.646754,34.493 -0.297817,9.10936 -2.662837,36.22729 0.735779,54.39349 0.753304,4.23935 4.730042,21.82746 9.915575,29.36021 1.12119,1.61166 4.94026,9.00427 9.70534,12.06992 0.98104,0.64817 7.44544,6.81452 33.33802,6.32401 1.82194,-0.035 30.79781,-0.75327 65.64244,-6.77948 2.11977,23.73693 -2.57524,85.8734 -15.27627,104.56513 -7.18266,19.49756 -38.90897,23.00117 -44.86531,24.15736 -9.4776,1.87444 -22.38886,4.48462 -32.93509,4.23936 -4.29208,-0.0701 -46.68725,-1.71676 -45.933947,-3.83644 C 102.44279,535.54504 34.628027,305.72599 41.582938,247.05811 49.57145,180.05165 75.48156,83.422191 123.50022,47.843071 175.12773,9.5836923 246.88419,-10.351825 303.20672,7.9194796 c 10.47616,3.3809794 18.07926,8.2860294 24.26334,13.9268344 23.33487,-0.89342 35.91327,-2.224789 51.90782,-1.261298 2.1548,0.140144 5.44831,0.455469 11.14187,1.751803 14.19013,3.363461 39.17174,2.189753 56.77801,22.475633 16.43251,18.814364 37.70017,29.07993 49.52527,34.6857 7.83084,3.328425 15.0135,10.300602 21.33773,19.88296 15.13613,23.298988 36.80673,45.879728 37.98047,87.975548 1.76939,59.42116 18.30701,88.81641 14.50547,106.66729 -1.13872,5.27293 -1.01609,12.12248 0.28029,21.21434 7.6031,53.55261 -37.27972,144.55878 -50.06835,176.9321 -13.59449,34.37038 -1.69932,136.72823 4.85266,167.55996 z"
     id="path9140"
     style="fill:#432511"
     inkscape:connector-curvature="0" /><path
     d="m 526.02665,660.5537 c 1.19126,21.86249 -2.22488,25.38363 -26.83861,28.53687 -8.93452,1.12115 -14.48793,15.11805 -26.3831,23.71942 -5.09794,3.73134 -40.08272,-12.01737 -48.12378,-19.88297 -115.22028,-113.2891 -205.86188,4.69484 -214.04308,-2.50508 -21.54796,-18.63918 96.45778,-148.50034 116.48161,-219.65858 13.20909,-47.00088 -19.28805,-44.16296 -9.26737,-131.7531 2.38254,-37.87399 -12.87622,-82.70263 -7.48047,-108.83953 3.73147,-17.92095 -3.67892,-25.61135 -7.72573,-35.31635 -4.55486,-10.9838 -6.34177,-24.73547 -0.40293,-51.32783 -9.61775,1.52408 -13.61201,-6.0262 -26.31304,-20.93405 -27.5043,-32.128063 -25.99771,-43.795069 -55.90208,-53.902973 -24.49108,8.233474 -42.27253,24.350068 -57.51378,46.580433 -20.86473,30.37628 -30.58758,64.04593 -39.22429,99.18709 -8.39144,34.33535 -31.428488,63.27514 -37.279722,98.60901 -2.557724,15.53848 1.103676,31.05946 3.451179,50.94242 1.226307,10.12543 2.084715,21.45958 1.629234,34.49299 -0.280298,9.10939 -2.645318,36.22729 0.735785,54.3935 0.753303,4.23936 4.730041,21.82747 9.915574,29.36023 1.12119,1.61164 4.95777,9.00425 9.70534,12.06991 0.98104,0.64817 7.44543,6.81451 33.33802,6.324 1.82194,-0.035 30.79781,-0.75327 65.64244,-6.77947 2.11976,23.73693 -2.57524,85.87338 -15.25875,104.56513 -7.18265,19.49755 -38.92649,23.00118 -44.88283,24.15735 -9.4776,1.87443 -22.37133,4.48463 -32.9351,4.23937 -4.27455,-0.0701 -46.669725,-1.71677 -45.933942,-3.83644 C 102.75813,536.36838 34.943364,306.54934 41.915793,247.88146 49.886787,180.87499 75.796895,84.245538 123.83308,48.666418 175.46059,10.40704 247.21706,-9.528478 303.52205,8.7428276 c 10.49368,3.3809794 18.07927,8.2860284 24.26335,13.9268344 23.33486,-0.89342 35.93079,-2.22479 51.90782,-1.261299 2.15479,0.140145 5.46582,0.455469 11.14186,1.751804 14.19013,3.36346 39.17174,2.189753 56.77801,22.475633 16.43251,18.814363 37.71769,29.07993 49.52527,34.685699 7.83085,3.328426 15.0135,10.300602 21.35526,19.882961 15.11861,23.29898 36.7892,45.87973 37.96295,87.97555 1.78689,59.42116 18.30701,88.81641 14.50546,106.66729 -1.13872,5.27293 -1.01608,12.12248 0.29781,21.21433 7.58559,53.55262 -37.27972,144.55879 -50.08587,176.93211 -13.57696,34.37037 -1.69931,136.72823 4.85268,167.55996 z"
     id="path9149"
     style="fill:url(#radialGradient9342)"
     inkscape:connector-curvature="0" /><path
     stroke-miterlimit="10"
     d="m 311.84342,17.869723 c 18.16686,12.490355 26.96123,24.262472 36.85928,33.459438"
     id="path9151"
     style="fill:none;stroke:#601300;stroke-width:5.0535984;stroke-linecap:round;stroke-linejoin:round;stroke-miterlimit:10"
     inkscape:connector-curvature="0" /><path
     d="m 643.71705,551.85432 c -1.75186,68.95097 -5.02785,62.67951 -12.80614,47.14102 -1.01609,-2.01457 -2.89058,-3.15324 -5.88627,-2.43501 -6.77973,1.43648 -0.94602,16.7998 -4.23952,21.10923 -8.39145,10.70353 -2.22488,-15.60856 -13.52441,-15.90637 -3.15337,-0.0701 -5.0629,2.25983 -6.30672,5.85102 -3.95923,12.0524 -1.83946,39.3455 -8.98708,37.26085 -18.14935,-5.20285 -50.94429,-118.17663 -71.59879,-195.32603 -5.09794,-19.12969 -10.4061,-39.01266 -18.4822,-57.17886 -19.83114,-44.68849 -43.27111,-103.95199 -47.05514,-115.4263 -10.38857,-12.19255 -65.55485,-85.54054 -84.98306,-82.40481 -3.87163,3.5912 -5.51837,3.22332 -5.51837,0.28029 0.035,-6.76196 8.70677,-27.13543 19.84864,-45.91477 7.7783,-13.24362 16.83544,-25.73398 24.94659,-32.02295 12.68352,-5.65833 22.94944,-11.5619 31.7263,-16.58957 7.90092,-4.572212 14.54049,-8.4437 20.74211,-10.91373 4.34463,-1.68174 8.37392,-2.75034 12.40322,-2.802894 29.41384,-0.367879 70.14474,-0.07007 93.53215,52.921974 13.2266,30.25364 22.86186,57.68687 26.62838,75.09979 2.48764,11.57942 -4.55486,21.52967 -2.66284,32.72368 2.18984,12.9108 6.27169,25.43618 9.84549,39.74842 4.15192,16.25673 3.76652,34.35286 5.83372,48.92785 2.04969,13.41881 3.32856,23.1238 5.20304,28.67702 13.01638,36.71779 28.94085,48.3848 31.11317,93.79154 1.99713,42.20093 3.06575,69.91445 0.22773,93.38861 z"
     id="path9153"
     style="fill:#432511"
     inkscape:connector-curvature="0" /><path
     d="m 643.6645,552.11709 c -1.76939,68.95097 -5.02786,62.67951 -12.80615,47.14102 -1.01608,-2.01458 -2.89058,-3.15324 -5.88626,-2.435 -6.77974,1.43648 -0.94603,16.79978 -4.23952,21.10921 -8.39145,10.70353 -2.22489,-15.60855 -13.52442,-15.90636 -3.15336,-0.0701 -5.06289,2.25983 -6.30671,5.85102 -3.95923,12.0524 -1.83947,39.34549 -8.98709,37.26085 -18.14934,-5.20286 -50.94429,-118.17663 -71.59879,-195.32604 -5.09793,-19.12969 -10.40609,-38.99514 -18.4822,-57.16133 -19.84865,-44.72353 -43.27111,-103.95199 -47.05513,-115.44382 -10.38858,-12.17502 -65.55486,-85.54054 -84.98306,-82.40482 -3.87163,3.57369 -5.51838,3.24084 -5.51838,0.29782 0.035,-6.77948 8.70677,-27.15295 19.84865,-45.93228 7.77829,-13.24364 16.83543,-25.75151 24.94658,-32.00544 12.68351,-5.67584 22.94945,-11.56191 31.72631,-16.6071 7.90092,-4.572202 14.54049,-8.443679 20.74209,-10.896207 4.34464,-1.699252 8.35641,-2.767852 12.38571,-2.820406 29.43135,-0.367878 70.16227,-0.05255 93.54969,52.939483 13.22659,30.25364 22.86185,57.68687 26.62837,75.06476 2.48765,11.59693 -4.55486,21.52967 -2.66284,32.7412 2.17232,12.92831 6.27168,25.43618 9.84549,39.76593 4.15192,16.2217 3.76652,34.31782 5.83372,48.91034 2.04968,13.41881 3.32855,23.14131 5.20303,28.65949 13.01637,36.75283 28.94085,48.40233 31.11316,93.79154 1.99714,42.21846 3.06577,69.93198 0.22775,93.40614 z"
     id="path9162"
     style="fill:url(#radialGradient9337)"
     inkscape:connector-curvature="0" /><path
     d="m 643.87472,552.81781 c -1.75187,68.95097 -5.02786,62.67952 -12.80614,47.14102 -1.01609,-2.01457 -2.89059,-3.15323 -5.88627,-2.435 -6.77974,1.43648 -0.94602,16.79979 -4.23952,21.10922 -8.39144,10.70351 -2.20735,-15.60855 -13.52442,-15.90637 -3.15335,-0.0701 -5.06289,2.25983 -6.30671,5.85102 -3.95923,12.0524 -1.83947,39.3455 -8.98709,37.26085 C 573.97523,640.63571 541.18029,527.66192 520.54331,450.51251 515.44537,431.38283 510.11969,411.51737 502.04359,393.35118 482.21246,348.64517 458.79,289.39918 454.98845,277.92489 444.6174,265.73233 389.4336,192.38434 370.00539,195.50254 c -3.87163,3.5912 -5.51838,3.24084 -5.51838,0.29782 0.035,-6.76197 8.70678,-27.15295 19.84865,-45.93228 7.79581,-13.24362 16.85296,-25.73399 24.9641,-32.00545 12.66601,-5.65831 22.93194,-11.56189 31.7088,-16.60709 7.90091,-4.554681 14.54049,-8.443681 20.7421,-10.896209 4.34462,-1.699252 8.37392,-2.750331 12.40322,-2.820403 29.41383,-0.367879 70.14474,-0.05255 93.53216,52.939482 13.2266,30.25364 22.86186,57.68688 26.62837,75.08228 2.50517,11.59694 -4.53734,21.52967 -2.64532,32.7412 2.17231,12.91079 6.25416,25.41866 9.82798,39.74841 4.15192,16.23921 3.76651,34.33533 5.83371,48.91035 2.04968,13.4188 3.59133,28.16899 5.46582,33.70468 12.10541,34.17768 28.2401,34.14265 30.8679,88.74634 1.99713,42.21846 3.04824,69.93198 0.21022,93.40614 z"
     id="path9171"
     style="fill:url(#radialGradient9334)"
     inkscape:connector-curvature="0" /><path
     d="m 118.22711,231.57217 c -8.70678,23.33402 -45.320795,102.20019 -48.947159,54.13071 -2.452613,-32.53098 18.342045,-101.69215 25.682362,-115.00587 4.607409,-8.4612 9.705337,-18.83187 11.579847,-25.13836 5.81619,-19.09466 15.97702,-42.97173 26.96123,-55.181807 13.4193,-14.995428 40.62577,-25.225958 63.06719,-26.872652 6.88484,-0.490505 16.29237,4.589724 22.58157,6.884585 -18.09678,6.814513 -33.11028,17.412922 -45.63613,31.970404 -29.36128,33.94994 -44.91786,78.90121 -53.06404,121.90797 -0.0701,0.28029 0.80586,-0.77079 0.77082,-0.56058 -0.19271,0.7708 -2.82051,7.25247 -2.99569,7.8656 z"
     id="path9180"
     style="fill:url(#radialGradient9331)"
     inkscape:connector-curvature="0" /><path
     stroke-miterlimit="10"
     d="m 369.02436,85.629466 c -22.6166,16.992494 -27.66198,27.766084 -39.39949,36.017074 -12.98133,9.16193 -20.61947,18.74429 -27.45175,21.89754"
     id="path9182"
     style="fill:none;stroke:#e0d7cd;stroke-width:5.0535984;stroke-linecap:round;stroke-linejoin:round;stroke-miterlimit:10"
     inkscape:connector-curvature="0" /><path
     stroke-miterlimit="10"
     d="m 373.54417,84.893709 c -22.58156,17.010011 -27.67949,27.748561 -39.38196,35.999561 -12.99885,9.16192 -23.05457,19.8304 -29.88685,22.96613 -7.62062,19.30487 -7.4104,40.0287 1.10368,56.19784 10.00315,18.97204 -0.35038,42.13086 7.76077,71.17576 5.95634,21.16179 7.07753,26.64493 15.97701,40.51922"
     id="path9184"
     style="fill:none;stroke:#601300;stroke-width:5.0535984;stroke-linecap:round;stroke-linejoin:round;stroke-miterlimit:10"
     inkscape:connector-curvature="0" /><path
     stroke-miterlimit="10"
     d="m 116.98328,120.56041 c 14.45291,-35.403931 42.85066,-50.994978 80.74355,-55.847473 7.65565,-0.963491 29.83428,4.940085 38.96151,10.878698 0,0 9.46008,9.267038 39.38196,50.031495 4.76508,6.53422 15.92447,21.8625 25.94515,17.13263"
     id="path9186"
     style="fill:none;stroke:#601300;stroke-width:5.0535984;stroke-linecap:round;stroke-linejoin:round;stroke-miterlimit:10"
     inkscape:connector-curvature="0" /><g
     id="g9188"
     transform="matrix(17.518666,0,0,17.518029,-5709.3051,-7815.9307)"><path
       d="m 363.652,470.45 c -0.166,-1.244 -1.701,-4.219 -2.597,-4.893 -0.182,-0.137 -0.429,0.11 -0.781,0.188 -0.117,0.032 1.917,4.224 1.909,4.575 -0.004,0.078 -0.997,0.431 -0.997,0.431 0,0 -0.341,-0.988 -0.79,-1.466 -0.427,-0.449 -0.815,-0.26 -0.812,0.331 0,0.598 0.555,1.518 0.481,1.553 -0.109,0.048 -1.708,0.629 -1.839,0.691 -0.032,0.011 -0.372,-1.217 -0.713,-1.501 -0.568,-0.479 -0.862,-0.238 -0.96,0.282 -0.065,0.354 0.554,1.644 0.499,1.669 -0.467,0.188 -1.223,0.474 -1.589,0.605 -0.104,0.036 -1.604,-3.861 -1.802,-4.009 -0.727,-0.526 -0.814,-0.442 -0.867,0.349 -0.03,0.391 1.637,4.045 1.541,4.079 -0.302,0.12 -1.157,0.467 -1.547,0.604 -0.063,0.018 -1.454,-3.602 -1.813,-3.955 -0.684,-0.676 -0.729,-0.562 -0.898,0.331 -0.058,0.316 1.535,4.1 1.448,4.132 -0.075,0.034 -2.56,1.066 -2.836,1.16 -0.868,0.304 -2.01,0.801 -3.138,1.37 -2.504,1.253 -4.086,3.192 -3.611,4.094 0.477,0.9 2.925,0.92 5.427,-0.338 1.215,-0.605 2.366,-1.328 3.206,-1.755 1.001,-0.512 12.339,-4.155 13.206,-6.5 0.175,-0.466 -0.062,-1.574 -0.127,-2.027 z"
       id="path9190"
       style="fill:#d8e142"
       inkscape:connector-curvature="0" /><path
       d="m 362.051,467.607 c 0,0 1.896,2.998 1.272,4.466 -0.272,0.641 -0.789,1.066 -0.956,1.219 -0.794,0.73 -7.16,3.922 -13.162,5.829 0,0 7.343,-3.239 8.388,-3.681 1.047,-0.444 4.275,-2.125 4.458,-2.35 0.18,-0.222 1.408,-0.933 1,-2.348 -0.41,-1.417 -1,-3.135 -1,-3.135 z"
       id="path9192"
       style="fill:#aec230"
       inkscape:connector-curvature="0" /></g><path
     d="m -19.749916,749.19493 c 18.2018945,14.20713 58.477311,26.78508 108.370476,16.29178 7.638141,-1.64671 14.78575,-3.69631 21.21511,-6.16635 44.02441,-17.23775 113.55599,-121.55763 160.03302,-148.50035 17.43107,0.0701 26.33055,-1.29633 32.47961,-2.18975 26.61086,-3.80142 17.01063,12.8232 37.48995,16.43192 10.10827,1.78682 9.53016,-0.52555 12.99885,-4.7474 4.04681,-5.09774 -6.16658,-22.58074 3.78403,-21.61725 5.11546,0.45548 11.61488,5.60578 17.7464,11.77212 3.90667,3.83645 4.65997,6.0262 11.38714,7.42764 9.68783,-0.57808 12.68351,-5.90357 9.40753,-16.18665 -7.14762,-21.88002 -7.1301,-30.83173 -4.44974,-33.93243 18.27197,-20.9866 44.65508,27.29309 52.69614,24.50773 5.25562,-1.76933 4.78261,-3.76637 6.69214,-7.93568 8.917,-18.97201 -53.09908,-58.21241 -33.77599,-59.66641 7.5155,-0.54305 26.69844,4.11674 34.87966,11.31666 17.04567,14.99543 31.86647,44.12791 41.57181,25.19092 0.43797,-0.89343 0.82337,-2.1372 0.78834,-2.99558 -0.0876,-2.1372 -8.79438,-17.34286 -18.97273,-36.41999 -4.16944,-7.79552 -23.73779,-17.15015 -31.91901,-22.65081 -9.2849,-5.46563 -17.16829,-11.31665 -27.46926,-14.59251 -8.16371,-2.57516 -22.33631,-8.86413 -35.58041,-3.52113 -17.0632,6.84955 -35.07238,16.57205 -60.94745,23.96467 -18.23693,5.23788 -52.73119,17.02753 -86.62982,45.82717 -26.34807,9.95023 -65.695,29.69305 -105.32222,45.40672 -37.997987,14.97792 -42.184949,16.58958 -66.693565,25.41867 -5.51838,1.97954 -10.160827,3.62622 -13.892304,4.81746 -8.443997,2.73281 -15.433946,3.94156 -21.915852,10.5984 -20.6545094,21.14426 -45.005457,79.00631 -48.421597,101.04401 -0.735785,4.65978 0.560597,8.02325 4.449742,11.10642 z"
     id="path9194"
     style="fill:#e8d3ba"
     inkscape:connector-curvature="0" /><path
     d="m -21.239004,749.91317 c 18.219415,14.20713 58.477313,26.78507 108.370478,16.29178 7.655656,-1.64671 14.785756,-3.69631 21.215096,-6.16635 44.04194,-17.23774 113.55601,-121.55763 160.03303,-148.50035 17.4486,0.0701 26.34807,-1.29633 32.47961,-2.18975 26.62838,-3.80142 17.01062,12.8232 37.48995,16.43192 10.10828,1.78682 9.54768,-0.52556 12.99886,-4.7474 4.04681,-5.09775 -6.16658,-22.58074 3.78402,-21.61725 5.11546,0.45547 11.63239,5.60577 17.76393,11.77212 3.88915,3.83645 4.64245,6.02619 11.38713,7.42764 9.67031,-0.57809 12.666,-5.90357 9.39,-16.18666 -7.14761,-21.88001 -7.13008,-30.83172 -4.43221,-33.93242 18.27197,-20.9866 44.65508,27.29309 52.69615,24.50772 5.25561,-1.76932 4.7826,-3.76637 6.67462,-7.93566 8.917,-18.97203 -53.08157,-58.21241 -33.776,-59.66642 7.53302,-0.54305 26.69845,4.11674 34.89719,11.31666 17.02815,14.99543 31.84894,44.1279 41.5718,25.19092 0.42043,-0.89343 0.80586,-2.1372 0.77082,-2.99559 -0.0876,-2.1372 -8.77686,-17.34284 -18.9552,-36.41998 -4.16945,-7.79552 -23.75531,-17.15015 -31.93653,-22.65081 -9.26738,-5.46562 -17.16829,-11.31665 -27.45175,-14.59252 -8.1637,-2.57515 -22.33631,-8.86412 -35.58041,-3.52113 -17.06319,6.84956 -35.08989,16.57206 -60.94745,23.96467 -18.25445,5.23789 -52.74871,17.02753 -86.62981,45.82717 -26.3656,9.95024 -65.695,29.69306 -105.32222,45.40673 -37.997997,14.97793 -42.184958,16.58957 -66.711091,25.41867 -5.500863,1.97953 -10.143309,3.62623 -13.892304,4.81746 -8.443998,2.73281 -15.433946,3.94156 -21.898334,10.59839 -20.6545089,21.14428 -45.022976,79.00633 -48.421597,101.04401 -0.770822,4.65979 0.525559,8.02326 4.432222,11.10643 z"
     id="path9201"
     style="fill:url(#radialGradient9321)"
     inkscape:connector-curvature="0" /><path
     d="m -19.767434,749.17742 c 18.2369319,14.20712 58.477311,26.78506 108.370475,16.29176 7.65566,-1.64669 14.785759,-3.69631 21.215109,-6.16634 44.04193,-17.23775 113.57351,-121.55762 160.05054,-148.50034 17.43107,0.0701 26.33055,-1.29635 32.47961,-2.18976 26.61086,-3.80142 17.01063,12.82321 37.48995,16.43191 10.10827,1.78684 9.53016,-0.50802 12.99885,-4.72987 4.04681,-5.09774 -6.16658,-22.58074 3.76651,-21.61725 5.13298,0.43796 11.6324,5.60578 17.76392,11.77212 3.90667,3.83645 4.65997,6.0262 11.38714,7.42764 9.68783,-0.57808 12.68351,-5.92108 9.40753,-16.18665 -7.14762,-21.89754 -7.1301,-30.83173 -4.44974,-33.94994 18.27197,-20.96909 44.65508,27.3106 52.69614,24.52524 5.27313,-1.78685 4.78261,-3.76637 6.69214,-7.93568 8.917,-18.98953 -53.09908,-58.22992 -33.77599,-59.66641 7.5155,-0.54305 26.69844,4.09922 34.87966,11.31666 17.04567,14.97792 31.84894,44.11039 41.57181,25.19092 0.43797,-0.89343 0.82337,-2.15471 0.78834,-3.0131 -0.0876,-2.11968 -8.79438,-17.34285 -18.97273,-36.40247 -4.16944,-7.79552 -23.73779,-17.16767 -31.91901,-22.65081 -9.2849,-5.48315 -17.16829,-11.31665 -27.46926,-14.61004 -8.16371,-2.55763 -22.33631,-8.86412 -35.58041,-3.52112 -17.0632,6.84955 -35.07238,16.58957 -60.94745,23.98219 -18.23693,5.23788 -52.73119,17.00999 -86.61229,45.80964 -26.38312,9.95024 -65.695,29.69307 -105.32223,45.40674 -38.015507,14.97791 -42.184951,16.58957 -66.728604,25.41866 -5.500861,1.97954 -10.125789,3.62623 -13.892303,4.81746 -8.443997,2.73281 -15.433946,3.94155 -21.898334,10.5984 -20.636991,21.14426 -45.022976,79.00632 -48.421597,101.04401 -0.770821,4.65979 0.52556,8.02325 4.432224,11.10643 z"
     id="path9208"
     style="fill:url(#radialGradient9318)"
     inkscape:connector-curvature="0" /></svg>