<?xml version="1.0" encoding="UTF-8" standalone="no"?>
<!-- Generator: Adobe Illustrator 15.0.0, SVG Export Plug-In . SVG Version: 6.00 Build 0)  -->
<svg
   xmlns:dc="http://purl.org/dc/elements/1.1/"
   xmlns:cc="http://creativecommons.org/ns#"
   xmlns:rdf="http://www.w3.org/1999/02/22-rdf-syntax-ns#"
   xmlns:svg="http://www.w3.org/2000/svg"
   xmlns="http://www.w3.org/2000/svg"
   xmlns:xlink="http://www.w3.org/1999/xlink"
   xmlns:sodipodi="http://sodipodi.sourceforge.net/DTD/sodipodi-0.dtd"
   xmlns:inkscape="http://www.inkscape.org/namespaces/inkscape"
   version="1.0"
   id="Layer_1"
   x="0px"
   y="0px"
   width="48"
   height="48"
   viewBox="0 0 612 792"
   enable-background="new 0 0 612 792"
   xml:space="preserve"
   sodipodi:version="0.32"
   inkscape:version="0.46"
   sodipodi:docname="Head Phones.svg"
   inkscape:output_extension="org.inkscape.output.svg.inkscape"><metadata
   id="metadata10665"><rdf:RDF><cc:Work
       rdf:about=""><dc:format>image/svg+xml</dc:format><dc:type
         rdf:resource="http://purl.org/dc/dcmitype/StillImage" /></cc:Work></rdf:RDF></metadata><defs
   id="defs10663"><inkscape:perspective
   sodipodi:type="inkscape:persp3d"
   inkscape:vp_x="0 : 396 : 1"
   inkscape:vp_y="0 : 1000 : 0"
   inkscape:vp_z="612 : 396 : 1"
   inkscape:persp3d-origin="306 : 264 : 1"
   id="perspective10667" />
	
	
<radialGradient
   inkscape:collect="always"
   xlink:href="#SVGID_1_"
   id="radialGradient10726"
   gradientUnits="userSpaceOnUse"
   cx="298.74271"
   cy="415.88379"
   r="25.6985" /><radialGradient
   inkscape:collect="always"
   xlink:href="#SVGID_2_"
   id="radialGradient10728"
   gradientUnits="userSpaceOnUse"
   cx="297.26559"
   cy="396.56879"
   r="64.231201" /><radialGradient
   inkscape:collect="always"
   xlink:href="#SVGID_3_"
   id="radialGradient10730"
   gradientUnits="userSpaceOnUse"
   cx="318.18649"
   cy="391.0303"
   r="48.489399" /><radialGradient
   inkscape:collect="always"
   xlink:href="#SVGID_4_"
   id="radialGradient10732"
   gradientUnits="userSpaceOnUse"
   cx="315.08011"
   cy="388.27249"
   r="24.4074" />
		
		
		
		
		
		
		<radialGradient
   id="SVGID_1_"
   cx="298.74271"
   cy="415.88379"
   r="25.6985"
   gradientUnits="userSpaceOnUse">
			<stop
   offset="0"
   style="stop-color:#524F4F;stop-opacity:0.95"
   id="stop10569" />
			<stop
   offset="0.0456"
   style="stop-color:#4F4C4C;stop-opacity:0.8827"
   id="stop10571" />
			<stop
   offset="0.0972"
   style="stop-color:#454242;stop-opacity:0.8064"
   id="stop10573" />
			<stop
   offset="0.1516"
   style="stop-color:#322F30;stop-opacity:0.7261"
   id="stop10575" />
			<stop
   offset="0.2023"
   style="stop-color:#000000;stop-opacity:0.6512"
   id="stop10577" />
			<stop
   offset="0.4256"
   style="stop-color:#000000;stop-opacity:0"
   id="stop10579" />
		</radialGradient>
		
		
			
		
		<radialGradient
   id="SVGID_2_"
   cx="297.26559"
   cy="396.56879"
   r="64.231201"
   gradientUnits="userSpaceOnUse">
			<stop
   offset="0"
   style="stop-color:#D0CECE;stop-opacity:0.95"
   id="stop10588" />
			<stop
   offset="0.0404"
   style="stop-color:#CBCACA;stop-opacity:0.8904"
   id="stop10590" />
			<stop
   offset="0.0861"
   style="stop-color:#BFBEBE;stop-opacity:0.8228"
   id="stop10592" />
			<stop
   offset="0.1345"
   style="stop-color:#ABAAAA;stop-opacity:0.7514"
   id="stop10594" />
			<stop
   offset="0.1843"
   style="stop-color:#918F90;stop-opacity:0.6778"
   id="stop10596" />
			<stop
   offset="0.2023"
   style="stop-color:#868585;stop-opacity:0.6512"
   id="stop10598" />
			<stop
   offset="0.2194"
   style="stop-color:#7D7B7C;stop-opacity:0.6014"
   id="stop10600" />
			<stop
   offset="0.3171"
   style="stop-color:#4B494A;stop-opacity:0.3163"
   id="stop10602" />
			<stop
   offset="0.3885"
   style="stop-color:#232021;stop-opacity:0.108"
   id="stop10604" />
			<stop
   offset="0.4256"
   style="stop-color:#000000;stop-opacity:0"
   id="stop10606" />
		</radialGradient>
		
		<radialGradient
   id="SVGID_3_"
   cx="318.18649"
   cy="391.0303"
   r="48.489399"
   gradientUnits="userSpaceOnUse">
			<stop
   offset="0"
   style="stop-color:#D0CECE;stop-opacity:0.95"
   id="stop10611" />
			<stop
   offset="0.0404"
   style="stop-color:#CBCACA;stop-opacity:0.8904"
   id="stop10613" />
			<stop
   offset="0.0861"
   style="stop-color:#BFBEBE;stop-opacity:0.8228"
   id="stop10615" />
			<stop
   offset="0.1345"
   style="stop-color:#ABAAAA;stop-opacity:0.7514"
   id="stop10617" />
			<stop
   offset="0.1843"
   style="stop-color:#918F90;stop-opacity:0.6778"
   id="stop10619" />
			<stop
   offset="0.2023"
   style="stop-color:#868585;stop-opacity:0.6512"
   id="stop10621" />
			<stop
   offset="0.2194"
   style="stop-color:#7D7B7C;stop-opacity:0.6014"
   id="stop10623" />
			<stop
   offset="0.3171"
   style="stop-color:#4B494A;stop-opacity:0.3163"
   id="stop10625" />
			<stop
   offset="0.3885"
   style="stop-color:#232021;stop-opacity:0.108"
   id="stop10627" />
			<stop
   offset="0.4256"
   style="stop-color:#000000;stop-opacity:0"
   id="stop10629" />
		</radialGradient>
		
		
		
		
		
		
		
		<radialGradient
   id="SVGID_4_"
   cx="315.08011"
   cy="388.27249"
   r="24.4074"
   gradientUnits="userSpaceOnUse">
			<stop
   offset="0"
   style="stop-color:#524F4F;stop-opacity:0.95"
   id="stop10646" />
			<stop
   offset="0.0456"
   style="stop-color:#4F4C4C;stop-opacity:0.8827"
   id="stop10648" />
			<stop
   offset="0.0972"
   style="stop-color:#454242;stop-opacity:0.8064"
   id="stop10650" />
			<stop
   offset="0.1516"
   style="stop-color:#322F30;stop-opacity:0.7261"
   id="stop10652" />
			<stop
   offset="0.2023"
   style="stop-color:#000000;stop-opacity:0.6512"
   id="stop10654" />
			<stop
   offset="0.4256"
   style="stop-color:#000000;stop-opacity:0"
   id="stop10656" />
		</radialGradient>
		
		
	<radialGradient
   inkscape:collect="always"
   xlink:href="#SVGID_4_"
   id="radialGradient10772"
   gradientUnits="userSpaceOnUse"
   cx="315.08011"
   cy="388.27249"
   r="24.4074"
   gradientTransform="matrix(16.989686,0,0,16.989686,-4874.7332,-6334.7549)" /><radialGradient
   inkscape:collect="always"
   xlink:href="#SVGID_3_"
   id="radialGradient10781"
   gradientUnits="userSpaceOnUse"
   cx="318.18649"
   cy="391.0303"
   r="48.489399"
   gradientTransform="matrix(16.989686,0,0,16.989686,-4874.7332,-6334.7549)" /><radialGradient
   inkscape:collect="always"
   xlink:href="#SVGID_2_"
   id="radialGradient10784"
   gradientUnits="userSpaceOnUse"
   cx="297.26559"
   cy="396.56879"
   r="64.231201"
   gradientTransform="matrix(16.989686,0,0,16.989686,-4874.7332,-6334.7549)" /><radialGradient
   inkscape:collect="always"
   xlink:href="#SVGID_1_"
   id="radialGradient10789"
   gradientUnits="userSpaceOnUse"
   cx="298.74271"
   cy="415.88379"
   r="25.6985"
   gradientTransform="matrix(16.989686,0,0,16.989686,-4874.7332,-6334.7549)" /></defs><sodipodi:namedview
   inkscape:window-height="1538"
   inkscape:window-width="2560"
   inkscape:pageshadow="2"
   inkscape:pageopacity="0.0"
   guidetolerance="10.0"
   gridtolerance="10.0"
   objecttolerance="10.0"
   borderopacity="1.0"
   bordercolor="#666666"
   pagecolor="#ffffff"
   id="base"
   showgrid="false"
   inkscape:zoom="18.666667"
   inkscape:cx="17.310407"
   inkscape:cy="23.02036"
   inkscape:window-x="0"
   inkscape:window-y="24"
   inkscape:current-layer="Layer_1" />
<path
   stroke-miterlimit="10"
   d="M 158.91979,785.45242 C 88.480559,785.45242 19.298559,724.47644 -9.3630399,637.20042 C -27.592973,581.69512 -26.692519,523.53942 -6.9165259,477.14059 C -8.7684009,422.73962 -7.9019269,348.39276 6.2165021,297.74651 L 18.245199,254.32087 C 32.346638,203.36881 38.1741,182.28461 48.282963,154.14968 C 52.870178,141.47539 61.908691,122.22607 74.464068,95.569249 L 76.689717,90.812141 C 90.5533,61.182129 101.49466,37.787332 163.42206,20.08408 C 187.85323,13.101319 209.87186,9.7203721 230.75218,9.7203721 C 267.297,9.7203721 293.98779,20.389894 315.29286,30.804572 C 328.69772,37.362591 340.31866,43.393929 350.3086,48.796648 C 353.82547,50.597556 357.52922,52.585348 361.28393,54.67508 L 367.63808,58.44679 C 377.8149,64.274252 385.10347,68.878457 388.87519,71.511858 C 394.36286,75.334538 399.95247,79.632928 405.62702,84.271112 C 500.3615,156.66417 593.9237,288.28325 607.03974,322.50048 C 632.77911,344.75697 652.75898,375.8311 666.48665,414.94136 C 694.63856,495.03074 670.71708,586.91095 612.05169,624.13535 C 602.41854,630.25164 597.45756,632.34138 584.46045,637.54021 L 582.16684,638.47465 C 574.67439,641.61775 567.92949,644.30211 562.23794,645.44042 L 561.77922,645.64429 C 559.80842,646.51077 557.76965,647.36025 555.67992,648.03985 C 545.07835,651.5567 533.95011,653.34062 522.63498,653.34062 L 522.63498,653.34062 C 458.82172,653.34062 396.12978,598.20909 370.15255,519.22405 C 345.2117,443.22919 361.28393,363.46261 409.16087,324.30139 C 412.50783,320.27483 416.09266,316.96184 419.28672,314.34543 C 419.3207,312.35764 419.3377,309.91112 419.3207,307.29471 C 419.09984,277.0021 413.15344,210.50448 392.17118,175.57368 C 383.81226,161.64214 339.36724,134.2038 324.79009,125.19926 L 318.99661,121.61444 C 297.55563,108.1756 276.65832,101.63457 255.11539,101.63457 C 242.67894,101.63457 230.19152,103.72431 215.81825,108.24356 C 173.70082,121.47852 158.86883,142.34185 141.59032,184.13648 C 130.76789,210.24963 117.05721,264.9734 117.04022,278.22536 C 117.0742,286.2275 121.5255,309.91112 150.1871,378.26063 C 198.18296,381.47168 276.77725,405.78392 317.68841,522.12929 C 348.77953,610.67952 322.41154,712.19289 257.64686,753.23997 C 246.8584,760.08682 241.37073,762.39741 227.15037,768.05499 L 224.10922,769.29523 C 217.51722,772.03057 209.46411,775.37753 202.75319,776.70274 L 202.32844,776.90661 C 200.01785,777.92599 197.72423,778.8944 195.27772,779.7099 C 183.58881,783.51559 171.35624,785.45242 158.91979,785.45242 z M 55.282713,350.39754 C 49.913973,363.46261 47.229602,387.80884 45.768489,411.27159 C 57.933104,402.28404 72.119491,395.94689 86.135982,389.94953 C 69.672976,361.71267 60.600485,351.58682 56.438012,347.98501 C 56.098218,348.64761 55.690466,349.42913 55.282713,350.39754 z M 481.82575,241.83346 C 478.58073,250.77003 480.07582,265.77192 481.31607,278.17439 C 481.5879,280.80779 481.82575,283.40722 482.06361,285.95566 C 486.41297,285.25909 490.86426,284.78338 495.0947,284.56252 C 497.86402,284.4266 500.65033,284.35864 503.41964,284.35864 C 509.43399,284.35864 515.46533,284.68144 521.39473,285.34404 C 509.31506,270.30817 494.46608,253.06363 481.82575,241.83346 z"
   id="path10556"
   style="fill:none;stroke:#303030;stroke-width:16.98968506;stroke-linecap:round;stroke-linejoin:round;stroke-miterlimit:10" /><path
   stroke-miterlimit="10"
   d="M 655.42636,418.84899 C 641.12104,378.00578 620.52955,348.73255 596.57409,328.97355 C 596.64205,329.00753 596.91389,329.19441 596.94786,329.2284 C 595.079,313.58089 501.70369,172.43059 398.18553,93.3436 C 392.76583,88.892306 387.41407,84.797792 382.18125,81.12802 C 378.56244,78.613547 371.52872,74.213218 361.6747,68.555653 C 359.60196,67.332396 357.5632,66.075159 355.52444,64.91986 C 351.92262,62.898087 348.30381,60.978253 344.75297,59.143367 C 334.84799,53.808606 323.34597,47.828236 310.12799,41.355166 C 275.38409,24.331501 234.94863,11.861072 166.6501,31.365231 C 107.78084,48.20201 100.06752,68.67458 85.813178,98.984175 C 73.325759,125.52207 63.811535,145.70581 59.326258,158.12528 C 46.906798,192.6653 40.977398,216.65474 17.497653,300.90659 C 3.4132041,351.39994 2.9884611,426.85113 4.8913071,479.41722 C -13.984234,521.82347 -16.566666,577.75351 1.7821941,633.56463 C 34.079586,731.96889 119.07898,792.4012 191.62494,768.56467 C 194.29232,767.66422 196.80679,766.49193 199.37224,765.3876 C 205.96423,764.4022 216.59977,759.66207 222.85198,757.13061 C 236.6476,751.65993 241.45569,749.63816 251.39465,743.318 C 309.41443,706.53533 336.9717,612.32752 306.62812,526.01992 C 272.97156,430.21508 208.54667,391.22376 142.2699,389.57576 C 123.27543,344.80793 105.45325,297.66156 105.33433,278.17439 C 105.35132,262.22107 119.99643,205.66242 130.78488,179.63422 C 147.51972,139.21575 163.524,112.37206 212.31838,97.047359 C 242.84884,87.465172 280.27711,83.472597 325.21483,111.69246 C 339.9449,120.91787 391.27073,151.26144 402.22908,169.52536 C 423.95889,205.73037 430.78874,271.82024 431.04359,307.20977 C 431.07756,312.05182 430.97562,316.31623 430.77175,319.81611 C 430.77175,319.81611 430.77175,319.81611 430.78874,319.81611 C 430.77175,319.91805 430.77175,320.05397 430.77175,320.1559 L 430.77175,320.1559 C 430.77175,320.18989 430.77175,320.22386 430.77175,320.25784 C 426.01463,323.77471 421.47839,327.64836 417.55378,332.5244 C 417.65572,332.43945 417.77465,332.37149 417.89357,332.28654 C 373.65243,367.20034 357.00254,441.53022 381.29778,515.55428 C 410.40111,604.01957 486.82073,658.38657 552.04412,636.92859 C 554.43967,636.14706 556.64833,635.11069 558.89097,634.15927 C 564.7694,633.25882 574.47051,628.97741 580.14507,626.66681 C 592.54753,621.72282 596.8969,619.90492 605.81648,614.28134 C 657.95783,581.15145 682.71179,496.4069 655.42636,418.84899 z M 478.9375,224.67388 C 478.32588,224.21515 477.74823,223.90934 477.15359,223.51858 C 477.74823,223.89235 478.32588,224.23214 478.9375,224.67388 z M 474.69009,230.58628 C 477.23854,227.23931 479.24333,225.47239 479.85495,225.30249 C 506.86856,244.14405 547.37197,299.78527 549.90342,303.33612 C 532.30211,297.62758 514.00422,295.35096 495.67235,296.25142 C 488.09495,296.62519 478.92052,298.01834 470.8844,300.37991 C 470.90139,300.37991 470.93536,300.36292 470.96935,300.34593 C 471.44506,279.61852 462.25364,246.77745 474.69009,230.58628 z M 242.10129,732.7674 C 242.08431,732.81838 242.05033,732.85235 242.01634,732.88633 C 242.05033,732.85235 242.08431,732.81838 242.10129,732.7674 z M 102.9048,395.74301 C 100.1015,396.7624 97.417133,397.84973 94.817711,398.95407 C 75.500439,407.19407 55.554548,415.58697 42.081728,430.07917 C 42.098718,430.06218 42.115707,430.04519 42.132697,430.04519 C 38.870677,432.61064 35.761564,435.39694 32.78837,438.35314 C 33.960658,403.94903 36.526101,365.17857 44.545232,345.72538 C 46.651953,340.86633 49.115457,337.2985 52.003704,335.42963 C 61.908691,329.02452 82.44922,358.96034 102.9048,395.74301 z M 58.221929,419.39266 C 57.6103,419.74944 56.998672,420.12321 56.387043,420.46301 C 56.981682,420.12321 57.593311,419.73245 58.221929,419.39266 z M 105.31734,277.98751 C 105.31734,277.91955 105.31734,277.83459 105.31734,277.76664 C 105.31734,277.88557 105.31734,278.03847 105.31734,278.14042 C 105.31734,278.10643 105.31734,278.03847 105.31734,277.98751 z M 432.13092,322.90823 C 431.5193,323.23104 430.92466,323.6218 430.31303,323.96159 C 430.90767,323.60481 431.5193,323.24803 432.13092,322.90823 z"
   id="path10558"
   style="fill:none;stroke:#9f9f9f;stroke-width:16.98968505999999900;stroke-linecap:round;stroke-linejoin:round;stroke-miterlimit:10;stroke-opacity:1" /><path
   d="M 264.44273,547.18907 C 296.7741,645.64429 264.17089,744.72814 191.62494,768.54768 C 119.07898,792.35023 34.079586,731.9519 1.7821941,633.54764 C -30.549177,535.12639 2.0540291,436.05954 74.599985,412.22301 C 147.12895,388.42046 232.12835,448.83578 264.44273,547.18907 z"
   id="path10560"
   style="fill:#3d3d3e" /><path
   d="M 306.64511,526.01992 C 270.72891,423.77599 199.79698,386.24578 128.933,389.74565 C 117.65185,390.28933 105.26637,394.48578 94.851691,398.95407 C 75.534418,407.19407 55.588528,415.56997 42.115707,430.07917 C 51.833807,422.36585 62.605268,416.21558 74.616975,412.24 C 147.14594,388.42046 232.12835,448.83578 264.45972,547.22305 C 295.6188,642.07646 266.3116,737.37161 199.21933,765.43857 C 205.77735,764.48714 216.5658,759.66207 222.88596,757.13061 C 236.68159,751.64294 241.48966,749.62117 251.42863,743.318 C 309.41443,706.51834 336.95471,612.31054 306.64511,526.01992 z"
   id="path10562"
   style="fill:#949494" /><path
   d="M 196.2971,572.97941 C 219.06328,642.29733 196.11022,712.05698 145.05621,728.79182 C 93.985217,745.59462 34.147544,703.00147 11.398356,633.7855 C -11.350833,564.48457 11.585242,494.79288 62.673226,478.00707 C 113.72723,461.22126 173.54792,503.76344 196.2971,572.97941 z"
   id="path10564"
   style="fill:#858585" /><path
   d="M 227.15037,555.44606 C 199.98387,470.63355 129.37473,445.21698 90.706208,459.72616 C 74.396109,465.80848 55.4696,475.59454 38.904656,491.1401 C 48.894592,483.74959 61.993639,477.37845 73.444687,475.25474 C 110.92393,468.4079 171.03344,499.78785 194.30931,568.13735 C 218.26477,638.52562 201.86972,701.54036 148.72598,727.70448 C 153.70396,727.14382 174.70322,719.22663 179.10354,716.66118 C 220.98312,692.23002 252.82179,635.62038 227.15037,555.44606 z"
   id="path10566"
   style="fill:#c7c7c7" /><path
   d="M 227.15037,555.44606 C 199.98387,470.63355 129.37473,445.21698 90.706208,459.72616 C 74.396109,465.80848 55.4696,475.59454 38.904656,491.1401 C 48.894592,483.74959 61.993639,477.37845 73.444687,475.25474 C 110.92393,468.4079 171.03344,499.78785 194.30931,568.13735 C 218.26477,638.52562 201.86972,701.54036 148.72598,727.70448 C 153.70396,727.14382 174.70322,719.22663 179.10354,716.66118 C 220.98312,692.23002 252.82179,635.62038 227.15037,555.44606 z"
   id="path10581"
   style="fill:url(#radialGradient10789)" /><ellipse
   transform="matrix(16.140201,-5.3075778,5.3075778,16.140201,-6733.5696,-4315.1026)"
   cx="316.31699"
   cy="400.91699"
   rx="7.3179998"
   ry="9.9250002"
   id="ellipse10583"
   sodipodi:cx="316.31699"
   sodipodi:cy="400.91699"
   sodipodi:rx="7.3179998"
   sodipodi:ry="9.9250002"
   style="fill:#3d3d3e" /><path
   d="M 655.46034,418.84899 C 623.16295,326.88382 559.40065,293.12531 495.68934,296.25142 C 485.51252,296.74412 472.56638,299.0717 463.22205,303.06428 C 445.87558,310.48878 429.41257,317.6924 417.55378,332.49041 C 426.33744,325.57562 436.00458,320.01998 446.77603,316.48613 C 512.01643,295.04515 588.43603,349.41215 617.50538,437.89443 C 645.57234,523.18265 619.20435,608.87862 558.87397,634.15927 C 564.75241,633.27581 574.47051,628.96043 580.14507,626.66681 C 592.53054,621.72282 596.8969,619.90492 605.81648,614.28134 C 657.97482,581.15145 682.72879,496.4069 655.46034,418.84899 z"
   id="path10585"
   style="fill:#949494" /><path
   d="M 306.64511,526.01992 C 270.72891,423.77599 199.79698,386.24578 128.933,389.74565 C 117.65185,390.28933 105.26637,394.48578 94.851691,398.95407 C 75.534418,407.19407 55.588528,415.55298 42.115707,430.07917 C 51.833807,422.36585 62.605268,416.21558 74.616975,412.24 C 147.14594,388.42046 232.12835,448.83578 264.45972,547.22305 C 295.6188,642.07646 266.3116,737.37161 199.21933,765.43857 C 205.77735,764.48714 216.5658,759.66207 222.88596,757.13061 C 236.68159,751.64294 241.48966,749.62117 251.42863,743.318 C 309.41443,706.51834 336.95471,612.31054 306.64511,526.01992 z"
   id="path10608"
   style="fill:url(#radialGradient10784)" /><path
   d="M 655.46034,418.84899 C 623.16295,326.88382 559.40065,293.12531 495.68934,296.25142 C 485.51252,296.74412 472.56638,299.0717 463.22205,303.06428 C 445.87558,310.48878 429.41257,317.6924 417.55378,332.49041 C 426.33744,325.57562 436.00458,320.01998 446.77603,316.48613 C 512.01643,295.04515 588.43603,349.41215 617.50538,437.89443 C 645.57234,523.18265 619.20435,608.87862 558.87397,634.15927 C 564.75241,633.27581 574.47051,628.96043 580.14507,626.66681 C 592.53054,621.72282 596.8969,619.90492 605.81648,614.28134 C 657.97482,581.15145 682.72879,496.4069 655.46034,418.84899 z"
   id="path10631"
   style="fill:url(#radialGradient10781)" /><path
   d="M 565.33006,456.09038 C 585.81962,518.39155 565.04123,580.87962 519.22005,596.17034 C 478.34287,609.81305 424.79138,572.14691 403.74117,508.53754 C 382.589,444.48642 399.23889,385.73609 445.17901,370.64925 C 491.08513,355.56241 544.90846,393.84017 565.33006,456.09038 z"
   id="path10633"
   style="fill:#656668" /><path
   d="M 411.45447,529.55377 C 379.9556,470.10687 392.03527,399.17493 432.36878,375.88208 C 446.13043,367.98187 459.77314,365.02567 474.69009,367.52315 C 464.30939,366.67366 453.96267,371.31185 444.6863,376.44273 C 415.31114,392.71885 409.21184,459.28444 438.04333,515.62223 C 466.99376,572.028 510.64026,600.36679 548.39134,578.68794 C 544.95942,581.71211 536.85534,587.8284 532.86277,590.20695 C 489.42014,615.79342 443.32713,589.71425 411.45447,529.55377 z"
   id="path10635"
   style="fill:#222223" /><path
   d="M 550.24322,303.77784 C 550.24322,303.77784 483.28687,210.38555 462.25364,219.40706 C 442.91938,227.68105 454.81215,286.21051 454.31946,306.90395 C 451.34626,308.29711 442.29076,311.35525 430.77175,320.13891 C 432.45373,291.27344 427.05101,210.70835 402.21209,169.25352 C 391.25374,150.97261 339.91091,120.62904 325.18086,111.42063 C 280.24314,83.183772 242.83186,87.193338 212.30139,96.775525 C 163.49002,112.10022 147.48574,138.94392 130.7509,179.36238 C 119.97944,205.44155 105.30035,262.11913 105.31734,277.98751 C 105.31734,319.42535 187.20762,488.79552 187.20762,488.79552 L 158.98776,509.69284 C 158.98776,509.69284 75.500439,320.22386 52.020694,335.41264 C 28.557938,350.61841 33.366019,476.08723 29.883134,499.78785 C 18.72091,512.30925 8.4421511,539.50973 8.4421511,539.50973 C 8.4421511,539.50973 -5.9990829,385.14145 17.497653,300.87261 C 40.977398,216.62076 46.889809,192.64831 59.326258,158.10829 C 63.794546,145.68883 73.325759,125.48809 85.813178,98.967187 C 100.06752,68.67458 107.78084,48.18502 166.6501,31.365231 C 234.96562,11.861072 275.38409,24.314512 310.12799,41.338177 C 349.01739,60.400604 373.95824,75.402496 382.18125,81.12802 C 464.75112,138.62112 568.52412,301.70511 574.77633,314.26048 C 567.21591,309.52036 550.24322,303.77784 550.24322,303.77784 z"
   id="path10637"
   style="fill:#3d3d3e" /><path
   d="M 30.07002,347.6622 C 16.750107,370.34343 13.012376,478.126 13.691963,529.02709 C 17.718518,520.07353 23.851796,508.16376 30.409814,500.82422 C 33.892699,477.10662 28.829773,349.8199 52.275539,334.63112 C 52.292529,334.63112 52.326508,334.63112 52.360487,334.59714 C 38.768739,334.76704 33.552906,341.74979 30.07002,347.6622 z"
   id="path10639"
   style="fill:#949494" /><path
   d="M 173.63286,61.233098 C 122.93564,85.273503 109.85358,122.20908 93.135732,162.64453 C 82.347282,188.72369 78.847407,248.13663 78.847407,264.02198 C 78.847407,300.37991 153.58503,461.03437 171.98486,500.07667 L 187.20762,488.79552 C 187.20762,488.79552 105.31734,319.42535 105.31734,277.97051 C 105.31734,262.10215 107.23717,202.53631 115.08641,177.27265 C 128.06653,135.512 145.396,95.212473 197.67327,72.735115 C 250.12042,50.172813 283.74302,45.211825 343.68262,75.878207 C 464.955,155.32197 549.69954,269.79848 574.79331,314.24349 C 584.29054,319.79912 595.21492,328.36192 596.98184,329.2114 C 594.87512,311.4402 474.60514,131.58738 355.54143,64.90287 C 300.47785,34.049602 251.63251,24.229563 173.63286,61.233098 z"
   id="path10641"
   style="fill:#949494" /><path
   d="M 343.68262,75.504434 C 283.76,44.855041 250.13741,49.81603 197.69026,72.378332 C 145.413,94.855687 128.06653,135.15521 115.1034,176.93285 C 107.27115,202.17953 105.33433,261.76236 105.33433,277.63072 L 105.33433,277.63072 C 105.33433,261.72837 119.99643,205.08476 130.78488,179.0056 C 147.51972,138.58714 163.524,111.74344 212.31838,96.418738 C 242.84884,86.836554 280.27711,82.826988 325.21483,111.04685 C 339.9449,120.27226 391.27073,150.61583 402.22908,168.89674 C 427.08499,210.33458 432.45373,290.89967 430.78874,319.78213 C 441.67913,312.64646 451.36325,308.16119 454.33645,306.88696 C 454.82914,286.17653 442.95336,227.29029 462.27063,219.0333 C 483.28687,210.01178 550.26021,303.76086 550.26021,303.76086 C 550.26021,303.76086 566.97806,309.55434 574.8103,314.2265 C 549.32578,269.39072 464.4623,154.6254 343.68262,75.504434 z"
   id="path10643"
   style="fill:#474747" /><path
   d="M 343.68262,76.116063 C 283.76,45.46667 250.13741,50.444648 197.69026,72.989961 C 145.413,95.467319 128.06653,135.76685 115.1034,177.5275 C 107.27115,202.77417 105.33433,262.35699 105.33433,278.22536 L 105.33433,278.22536 C 105.33433,262.34 119.99643,205.67941 130.78488,179.60024 C 147.51972,139.18177 163.524,112.35506 212.31838,97.013372 C 242.84884,87.431194 280.27711,83.421628 325.21483,111.65848 C 339.9449,120.88389 391.27073,151.21047 402.22908,169.49138 C 427.08499,210.92922 432.45373,291.5113 430.78874,320.37677 C 442.32474,311.55913 451.36325,308.1442 454.33645,306.86997 C 454.82914,286.15954 442.95336,227.9189 462.27063,219.62793 C 483.28687,210.60641 550.26021,303.74387 550.26021,303.74387 C 550.26021,303.74387 566.97806,309.53735 574.8103,314.20951 C 549.32578,269.39072 464.4623,155.23703 343.68262,76.116063 z"
   id="path10658"
   style="fill:url(#radialGradient10772)" /><path
   d="M 460.58864,219.61095 C 444.38049,230.31445 453.55492,275.86379 454.31946,306.90395 C 463.20506,303.06428 467.38452,301.82403 470.96935,300.34593 C 471.44506,279.6355 462.23665,246.77745 474.69009,230.60327 C 477.3065,227.20534 479.34526,225.37045 479.9399,225.26851 C 470.98634,218.71049 464.24143,217.2154 460.58864,219.61095 z"
   id="path10660"
   style="fill:#949494" /></svg>