<?xml version="1.0" encoding="UTF-8" standalone="no"?>
<!-- Created with Inkscape (http://www.inkscape.org/) -->
<svg
   xmlns:ns="http://ns.adobe.com/AdobeIllustrator/10.0/"
   xmlns:dc="http://purl.org/dc/elements/1.1/"
   xmlns:cc="http://web.resource.org/cc/"
   xmlns:rdf="http://www.w3.org/1999/02/22-rdf-syntax-ns#"
   xmlns:svg="http://www.w3.org/2000/svg"
   xmlns="http://www.w3.org/2000/svg"
   xmlns:xlink="http://www.w3.org/1999/xlink"
   xmlns:sodipodi="http://sodipodi.sourceforge.net/DTD/sodipodi-0.dtd"
   xmlns:inkscape="http://www.inkscape.org/namespaces/inkscape"
   width="48"
   height="48"
   id="svg15621"
   sodipodi:version="0.32"
   inkscape:version="0.45.1"
   version="1.0"
   sodipodi:docbase="C:\dev\src\houdini\support\icons\SHELF"
   sodipodi:docname="hide.svg"
   inkscape:output_extension="org.inkscape.output.svg.inkscape">
  <metadata
     id="metadata3413">
    <rdf:RDF>
      <cc:Work
         rdf:about="">
        <dc:format>image/svg+xml</dc:format>
        <dc:type
           rdf:resource="http://purl.org/dc/dcmitype/StillImage" />
      </cc:Work>
    </rdf:RDF>
  </metadata>
  <defs
     id="defs15623">
    <linearGradient
       inkscape:collect="always"
       id="linearGradient4452">
      <stop
         style="stop-color:#2e3436;stop-opacity:1;"
         offset="0"
         id="stop4454" />
      <stop
         style="stop-color:#2e3436;stop-opacity:0;"
         offset="1"
         id="stop4456" />
    </linearGradient>
    <linearGradient
       inkscape:collect="always"
       xlink:href="#linearGradient4452"
       id="linearGradient4458"
       x1="15.78888"
       y1="34.588154"
       x2="15.667277"
       y2="29.901819"
       gradientUnits="userSpaceOnUse" />
    <linearGradient
       inkscape:collect="always"
       xlink:href="#linearGradient4452"
       id="linearGradient4481"
       x1="22.617783"
       y1="25.316465"
       x2="18.08325"
       y2="28.19105"
       gradientUnits="userSpaceOnUse" />
  </defs>
  <sodipodi:namedview
     id="base"
     pagecolor="#ffffff"
     bordercolor="#666666"
     borderopacity="1.0"
     inkscape:pageopacity="0.0"
     inkscape:pageshadow="2"
     inkscape:zoom="12.175676"
     inkscape:cx="30.5"
     inkscape:cy="22"
     inkscape:document-units="px"
     inkscape:current-layer="layer1"
     inkscape:window-width="1182"
     inkscape:window-height="1039"
     inkscape:window-x="344"
     inkscape:window-y="27"
     fill="#fce94f"
     stroke="#c4a000" />
  <g
     inkscape:label="Layer 1"
     inkscape:groupmode="layer"
     id="layer1">
    <circle
       sodipodi:ry="9.4429998"
       sodipodi:rx="9.4429998"
       sodipodi:cy="224.694"
       sodipodi:cx="122.958"
       style="fill:#eeeeec;stroke:#2e3436;stroke-width:1.27329683;stroke-miterlimit:4;stroke-dasharray:2.54659374, 1.27329687;stroke-dashoffset:0.63664847"
       id="circle7520"
       r="9.4429998"
       cy="224.694"
       cx="122.958"
       ns:knockout="Off"
       transform="matrix(1.5693653,0,0,1.5720871,-160.56917,-332.56611)" />
    <path
       style="fill:#babdb6;stroke:none;stroke-width:1.27329683;stroke-miterlimit:4;stroke-dasharray:2.54659374, 1.27329687;stroke-dashoffset:0.63664847"
       d="M 32.48817,6.8801328 C 24.777868,6.8801328 18.526846,13.147237 18.526845,20.870911 C 18.526845,24.732748 20.092793,28.234965 22.620989,30.767546 C 21.150813,28.551915 20.294102,25.879067 20.294102,23.021073 C 20.294101,15.297399 26.574579,9.0302946 34.28488,9.0302946 C 38.125235,9.0302947 41.596753,10.608968 44.122607,13.124438 C 41.619574,9.352892 37.345026,6.8801327 32.48817,6.8801328 z "
       id="circle4433" />
    <path
       style="fill:#eeeeec;stroke:#2e3436;stroke-width:2;stroke-opacity:1;stroke-miterlimit:4;stroke-dasharray:4,2;stroke-dashoffset:1.00000006"
       id="path7643"
       d="M 31.519506,35.973135 C 31.850643,36.562667 32.026412,37.183641 32.026412,37.820337 C 32.026412,41.84488 25.019196,46.014312 16.373561,46.014312 C 7.7294969,46.014312 0.7207109,41.843309 0.7207109,37.820337 C 0.7207109,37.06888 0.9639621,36.34572 1.4175092,35.665006 L 16.412795,9.4520251 L 31.519506,35.973135 z "
       ns:knockout="Off"
       sodipodi:nodetypes="csssccc" />
    <path
       style="fill:#babdb6;stroke:none;stroke-width:2;stroke-miterlimit:4;stroke-dasharray:4, 2;stroke-dashoffset:1.00000006;stroke-opacity:1"
       d="M 16.40026,11.240323 L 2.4092551,35.768497 C 1.9862164,36.405319 1.7680008,37.082711 1.7680007,37.785713 C 1.7680007,38.892232 2.3391851,40.003025 3.3419887,41.030799 C 3.2247383,40.668665 3.1379533,40.283053 3.1379533,39.919869 C 3.1379533,39.216865 3.356169,38.539474 3.7792077,37.902653 L 17.711917,13.520654 L 16.40026,11.240323 z "
       id="path4428" />
    <path
       style="fill:none;stroke:url(#linearGradient4458);stroke-width:2;stroke-miterlimit:4;stroke-dasharray:4, 2;stroke-dashoffset:0;stroke-opacity:1"
       d="M 32.407567,38.68514 C 32.407567,34.660597 25.400351,30.491165 16.754716,30.491165 C 8.110652,30.491165 1.101866,34.662168 1.101866,38.68514"
       id="path4446" />
    <path
       style="fill:none;stroke:url(#linearGradient4481);stroke-width:2;stroke-miterlimit:4;stroke-dasharray:4,2;stroke-dashoffset:1.00000008"
       d="M 32.277479,35.495607 C 24.097099,35.495607 17.457962,28.844956 17.457962,20.650389 C 17.457962,18.254968 18.025272,15.991493 19.032553,13.987491"
       id="path4473" />
  </g>
</svg>
