<?xml version="1.0" encoding="UTF-8" standalone="no"?>
<!-- Created with Inkscape (http://www.inkscape.org/) -->
<svg
   xmlns:dc="http://purl.org/dc/elements/1.1/"
   xmlns:cc="http://creativecommons.org/ns#"
   xmlns:rdf="http://www.w3.org/1999/02/22-rdf-syntax-ns#"
   xmlns:svg="http://www.w3.org/2000/svg"
   xmlns="http://www.w3.org/2000/svg"
   xmlns:xlink="http://www.w3.org/1999/xlink"
   xmlns:sodipodi="http://sodipodi.sourceforge.net/DTD/sodipodi-0.dtd"
   xmlns:inkscape="http://www.inkscape.org/namespaces/inkscape"
   width="48px"
   height="48px"
   id="svg2418"
   sodipodi:version="0.32"
   inkscape:version="0.46"
   sodipodi:docname="makebreakable.svg"
   inkscape:output_extension="org.inkscape.output.svg.inkscape">
  <defs
     id="defs2420">
    <linearGradient
       id="linearGradient5327">
      <stop
         style="stop-color:#ffffff;stop-opacity:1;"
         offset="0"
         id="stop5329" />
      <stop
         style="stop-color:#ceebeb;stop-opacity:1;"
         offset="1"
         id="stop5331" />
    </linearGradient>
    <radialGradient
       gradientUnits="userSpaceOnUse"
       gradientTransform="matrix(0.931,-0.365,0.365,0.931,-122.3231,137.2727)"
       r="0"
       cy="373.6748"
       cx="279.6626"
       id="SVGID_4_">
      <stop
         id="stop49004"
         style="stop-color:#FFF200;stop-opacity:0"
         offset="0.5744" />
      <stop
         id="stop49006"
         style="stop-color:#FFF200;stop-opacity:0.6512"
         offset="0.7977" />
      <stop
         id="stop49008"
         style="stop-color:#FFF200;stop-opacity:0.95"
         offset="1" />
    </radialGradient>
    <radialGradient
       gradientUnits="userSpaceOnUse"
       gradientTransform="matrix(0.931,-0.365,0.365,0.931,-122.3231,137.2727)"
       r="0"
       cy="392.65091"
       cx="333.0889"
       id="SVGID_1_">
      <stop
         id="stop48971"
         style="stop-color:#FFF200;stop-opacity:0"
         offset="0.5744" />
      <stop
         id="stop48973"
         style="stop-color:#FFF200;stop-opacity:0.6512"
         offset="0.7977" />
      <stop
         id="stop48975"
         style="stop-color:#FFF200;stop-opacity:0.95"
         offset="1" />
    </radialGradient>
    <inkscape:perspective
       sodipodi:type="inkscape:persp3d"
       inkscape:vp_x="0 : 24 : 1"
       inkscape:vp_y="0 : 1000 : 0"
       inkscape:vp_z="48 : 24 : 1"
       inkscape:persp3d-origin="24 : 16 : 1"
       id="perspective2426" />
    <radialGradient
       inkscape:collect="always"
       xlink:href="#linearGradient5327"
       id="radialGradient5333"
       cx="15.334794"
       cy="9.3392344"
       fx="15.334794"
       fy="9.3392344"
       r="12.62418"
       gradientTransform="matrix(0.9996079,2.8000462e-2,-1.1316152e-2,0.4039832,0.110537,1.5406731)"
       gradientUnits="userSpaceOnUse" />
  </defs>
  <sodipodi:namedview
     id="base"
     pagecolor="#ffffff"
     bordercolor="#666666"
     borderopacity="1.0"
     inkscape:pageopacity="0.0"
     inkscape:pageshadow="2"
     inkscape:zoom="14"
     inkscape:cx="1.7142859"
     inkscape:cy="24"
     inkscape:current-layer="svg2418"
     showgrid="true"
     inkscape:grid-bbox="true"
     inkscape:document-units="px"
     inkscape:window-width="2560"
     inkscape:window-height="1538"
     inkscape:window-x="0"
     inkscape:window-y="24" />
  <metadata
     id="metadata2423">
    <rdf:RDF>
      <cc:Work
         rdf:about="">
        <dc:format>image/svg+xml</dc:format>
        <dc:type
           rdf:resource="http://purl.org/dc/dcmitype/StillImage" />
      </cc:Work>
    </rdf:RDF>
  </metadata>
  <path
     id="path51175"
     d="M 32.128214,4.7439664 C 32.240562,4.7699722 32.357072,4.7772549 32.47046,4.8095033 C 32.47046,4.8095033 22.338332,-0.17229964 12.890695,1.093696 C 11.275172,1.3131906 9.7418286,1.6242279 7.7112416,2.680092 C 3.9798306,4.6118539 0.78519357,7.40703 0.91002557,14.636835 C 0.98076257,18.769786 3.0519196,22.812235 4.8068376,25.540835 C 11.014067,35.205886 21.885819,41.613884 21.885819,41.613884 C 21.885819,41.613884 22.811649,42.204752 23.395236,42.666628 L 21.312636,38.795822 L 21.596626,36.687215 L 23.932009,34.118815 C 23.932009,34.118815 30.047696,35.604305 31.179497,35.301591 C 32.309219,35.003035 34.399101,32.894429 34.399101,32.894429 L 34.399101,30.994915 L 39.232145,29.759088 L 40.585523,27.465315 C 40.672905,27.030486 40.745723,26.585256 40.815421,26.138984 C 42.374771,15.632363 38.501884,6.2128124 32.128214,4.7439664 z"
     style="opacity:0.68000034;fill:#f4f9ed" />
  <path
     id="path51177"
     d="M 20.183954,38.121734 C 16.693883,35.679205 10.405515,30.740052 6.2902476,24.332054 C 4.6924086,21.846873 2.7752106,18.128985 2.7138356,14.489118 C 2.6108496,8.5617179 4.8494876,6.2003299 8.4924766,4.3122585 C 10.376387,3.335455 11.750571,3.0878728 13.107069,2.9068677 C 14.053705,2.7768356 15.057555,2.7133791 16.089492,2.7133791 C 23.970499,2.7133791 31.628889,6.4198247 31.704828,6.4583142 L 31.739156,6.5259312 C 37.041359,8.0863203 40.399317,16.385511 39.013691,25.7208 C 38.96584,26.017273 38.916948,26.317909 38.861814,26.618544 L 37.983834,28.114438 L 32.578646,29.768449 L 32.620256,32.132959 C 31.972174,32.908993 31.480133,33.687107 31.180537,33.823381 C 30.001923,33.789053 26.834334,33.501941 24.892169,33.073354 L 24.289859,32.941241 L 20.552206,35.387931 L 20.183954,38.121734 z"
     style="opacity:0.38999999;fill:#ceebeb" />
  <path
     id="path51179"
     d="M 27.957814,4.9520175 C 24.97539,3.9107187 20.566769,2.7144192 16.088452,2.7144192 C 15.056515,2.7144192 14.052665,2.7778757 13.106028,2.9079079 C 11.74953,3.088913 10.375347,3.335455 8.4914366,4.3132987 C 4.8484476,6.2013705 2.6108496,8.5627585 2.7127946,14.490158 C 2.7752106,18.130026 4.6913686,21.847913 6.2892066,24.333094 C 10.404475,30.741092 13.165323,32.665573 18.327091,36.771477 C 13.921592,28.541983 17.020525,7.9386033 27.957814,4.9520175 z"
     style="fill:url(#radialGradient5333);fill-opacity:1" />
  <path
     id="path51187"
     d="M 16.402611,31.256021 C 12.816836,29.73204 10.016458,24.703427 6.5159836,21.619057 C 4.9181456,20.217827 3.0019866,18.114423 2.9395716,16.05887 C 2.9229276,15.531457 2.3528656,10.675526 3.3411116,11.184214 C 5.7513926,12.430444 7.8464756,16.297089 17.371092,17.210436 C 16.011473,21.211275 15.497585,27.256223 16.402611,31.256021 z"
     style="fill:#a0ceda" />
  <path
     id="path51189"
     d="M 18.328131,36.770436 C 14.741316,34.078245 9.6690106,29.68939 6.1695776,24.238431 C 4.5717386,21.75533 2.6545406,18.033282 2.5931656,14.394453 C 2.5765206,13.462382 2.8293036,8.8561124 3.8175506,9.7580179 C 6.2278316,11.960247 8.7182136,14.545292 18.241789,16.161855 C 15.747248,21.414125 15.826307,30.665154 18.328131,36.770436 z"
     style="opacity:0.38999999;fill:#b0d4dc" />
  <path
     id="path51191"
     d="M 5.1376396,11.117636 C 5.1261966,11.16861 5.1199556,11.217503 5.1074726,11.268474 C 4.9119036,12.148534 4.3262376,12.758126 3.7665776,12.649939 C 3.1725896,12.535511 2.8230626,11.661692 2.9874236,10.699453 C 3.1486636,9.7403331 3.7613766,9.0506397 4.3543246,9.16715 C 4.9503936,9.2826179 5.3020006,10.152275 5.1376396,11.117636 z"
     style="fill:#bad9e1" />
  <path
     id="path51193"
     d="M 11.356312,33.253318 C 11.460338,33.142011 11.289735,32.929798 11.152421,32.582352 C 10.675982,31.390214 10.613567,29.800698 10.613567,29.800698 L 7.3211446,26.328312 L 7.5812096,23.727663 L 6.0208206,20.216787 L 7.5604046,15.669812"
     stroke-miterlimit="10"
     style="fill:none;stroke:#627ca1;stroke-width:0.93623352;stroke-miterlimit:10" />
  <polyline
     transform="matrix(1.0402595,0,0,1.0402595,-267.0473,-331.755)"
     id="polyline51195"
     points="266.965,347.257 267.084,345.519   269.25,345.769 266.173,340.853 267.334,338.185 "
     stroke-miterlimit="10"
     style="fill:none;stroke:#627ca1;stroke-width:0.89999998;stroke-miterlimit:10" />
  <polyline
     transform="matrix(1.0402595,0,0,1.0402595,-267.0473,-331.755)"
     id="polyline51197"
     points="289.82,348.751 287.476,347.394   287.39,345.384 285.644,343.503 279.084,341.935 277.667,342.519 275.584,340.851 "
     stroke-miterlimit="10"
     style="fill:none;stroke:#406292;stroke-width:0.89999998;stroke-miterlimit:10" />
  <polyline
     transform="matrix(1.0402595,0,0,1.0402595,-267.0473,-331.755)"
     id="polyline51199"
     points="283.917,342.874 284.917,339.351   281.917,336.601 "
     stroke-miterlimit="10"
     style="fill:none;stroke:#406292;stroke-width:0.89999998;stroke-miterlimit:10" />
  <polyline
     transform="matrix(1.0402595,0,0,1.0402595,-267.0473,-331.755)"
     id="polyline51201"
     points="295.834,344.037 293.946,343.013   293.946,341.615 292.089,340.72 290.062,337.912 288,340.185 "
     stroke-miterlimit="10"
     style="fill:none;stroke:#406292;stroke-width:0.89999998;stroke-miterlimit:10" />
  <polyline
     transform="matrix(1.0402595,0,0,1.0402595,-267.0473,-331.755)"
     id="polyline51203"
     points="292.469,340.673 292.834,338.351   294.732,337.341 "
     stroke-miterlimit="10"
     style="fill:none;stroke:#406292;stroke-width:0.89999998;stroke-miterlimit:10" />
  <polyline
     transform="matrix(1.0402595,0,0,1.0402595,-267.0473,-331.755)"
     id="polyline51205"
     points="279.637,352.136 277.744,350.583   274.25,350.601 "
     stroke-miterlimit="10"
     style="fill:none;stroke:#406292;stroke-width:0.89999998;stroke-miterlimit:10" />
  <polyline
     transform="matrix(1.0402595,0,0,1.0402595,-267.0473,-331.755)"
     id="polyline51207"
     points="278.265,350.906 279.778,350.349   279.049,349.107 282.185,347.826 278.662,345.978 "
     stroke-miterlimit="10"
     style="fill:none;stroke:#406292;stroke-width:0.89999998;stroke-miterlimit:10" />
  <path
     id="path51209"
     d="M 32.4767,4.6649072 C 25.909542,2.2213366 19.438088,-0.062032289 12.890695,1.0926558 C 11.285574,1.3745653 9.7418286,1.6231877 7.7112416,2.6790518 C 3.9798306,4.6108137 0.78519357,7.40599 0.91002557,14.635795 C 0.98076257,18.768746 3.0519196,22.811194 4.8068376,25.539795 C 11.014067,35.204845 21.849409,41.687742 21.849409,41.687742 C 21.825484,41.665897 22.838697,42.359751 23.395236,42.664548 L 21.314716,38.682434 L 21.598707,36.573827 L 24.186873,34.075125 C 24.186873,34.075125 30.174607,35.771788 31.306408,35.469072 C 32.436131,35.170517 34.612354,32.851779 34.612354,32.851779 L 34.441751,30.950185 L 39.231105,29.758048 L 40.584483,27.464275 C 40.671865,27.029446 40.744683,26.584215 40.814381,26.137944 C 42.374771,15.632363 38.927351,7.0627039 32.4767,4.6649072 z"
     stroke-miterlimit="10"
     style="fill:none;stroke:#586f9b;stroke-width:1;stroke-miterlimit:10;stroke-dasharray:none" />
  <path
     id="path51211"
     d="M 40.584483,27.465315 L 39.231105,29.759088 L 34.398061,30.951225 L 34.568663,32.682217 C 34.568663,32.682217 32.477741,35.088337 31.34698,35.386891 C 30.215177,35.689606 24.227443,34.204116 24.227443,34.204116 L 21.663203,36.46564 L 21.381293,38.574246 L 23.394195,42.666628 C 18.306286,39.690445 14.87655,31.268503 16.264256,21.942578 C 17.870417,11.200858 25.070053,3.5050168 31.700667,4.6326588 C 38.33024,5.7655004 42.41222,15.394144 40.81334,26.137944 C 40.744683,26.585256 40.671865,27.030486 40.584483,27.465315 z"
     stroke-miterlimit="10"
     style="fill:none;stroke:#586f9b;stroke-width:1;stroke-miterlimit:10;stroke-dasharray:none" />
  <path
     id="path51213"
     d="M 27.487617,36.497888 L 36.622135,38.682434 L 27.487617,36.497888 L 24.849519,37.86479 L 24.766297,40.400942 L 28.386401,40.155442 C 29.860448,41.543146 30.034172,41.803212 31.247114,43.796349 L 34.281551,41.1957 L 42.13447,39.564574 L 43.825933,37.768045 C 42.003397,38.070761 38.08578,38.855117 36.708477,38.682434"
     stroke-miterlimit="10"
     style="fill:#e0f2ef;stroke:#586f9b;stroke-width:1;stroke-linecap:round;stroke-miterlimit:10;stroke-dasharray:none" />
  <path
     id="path51215"
     d="M 42.61091,44.721139 L 39.77204,42.778975 L 35.066948,44.721139 L 31.600803,47.334271 C 36.48066,47.745174 42.108464,47.397728 47.833012,46.312737 L 44.90156,43.805712 L 42.61195,44.797079"
     stroke-miterlimit="10"
     style="fill:#e0f2ef;stroke:#586f9b;stroke-width:1;stroke-linecap:round;stroke-miterlimit:10;stroke-dasharray:none" />
  <path
     d=""
     id="path51217"
     stroke-miterlimit="10"
     style="fill:#e0f2ef;stroke:#586f9b;stroke-width:0.03030303;stroke-linecap:round;stroke-miterlimit:10" />
  <path
     id="path51219"
     d="M 39.011611,33.121206 L 38.28135,34.007507 L 41.13166,35.34216 L 43.430634,34.715923 L 42.419501,32.552183 C 41.780782,32.530338 41.13166,32.517855 40.475256,32.515774 L 39.011611,33.121206 z"
     stroke-miterlimit="10"
     style="fill:#e0f2ef;stroke:#586f9b;stroke-width:1;stroke-linecap:round;stroke-miterlimit:10;stroke-dasharray:none" />
  <path
     id="path51221"
     d="M 5.1532436,20.477891 C 5.2759946,20.927283 4.0765756,18.153952 3.6802366,15.451358 C 2.2987716,6.0110022 11.222118,0.80034173 24.13902,4.7013163 C 24.05268,5.4815106 21.452031,5.4815106 22.144843,6.7818349 C 17.290992,3.0535442 6.2808846,5.5678524 4.9805606,13.283457 C 4.7465026,14.673244 4.3730496,17.617178 5.1532436,20.477891 z"
     style="fill:#fbfcf5" />
</svg>
