<?xml version="1.0" encoding="UTF-8" standalone="no"?>
<svg
   xmlns:dc="http://purl.org/dc/elements/1.1/"
   xmlns:cc="http://creativecommons.org/ns#"
   xmlns:rdf="http://www.w3.org/1999/02/22-rdf-syntax-ns#"
   xmlns:svg="http://www.w3.org/2000/svg"
   xmlns="http://www.w3.org/2000/svg"
   xmlns:xlink="http://www.w3.org/1999/xlink"
   xmlns:sodipodi="http://sodipodi.sourceforge.net/DTD/sodipodi-0.dtd"
   xmlns:inkscape="http://www.inkscape.org/namespaces/inkscape"
   viewBox="0 0 48 48"
   version="1.1"
   id="svg100"
   sodipodi:docname="motion_capture.svg"
   inkscape:version="1.0.1 (3bc2e813f5, 2020-09-07)">
  <metadata
     id="metadata104">
    <rdf:RDF>
      <cc:Work
         rdf:about="">
        <dc:format>image/svg+xml</dc:format>
        <dc:type
           rdf:resource="http://purl.org/dc/dcmitype/StillImage" />
        <dc:title>4-Motion Capture</dc:title>
      </cc:Work>
    </rdf:RDF>
  </metadata>
  <sodipodi:namedview
     pagecolor="#ffffff"
     bordercolor="#666666"
     borderopacity="1"
     objecttolerance="10"
     gridtolerance="10"
     guidetolerance="10"
     inkscape:pageopacity="0"
     inkscape:pageshadow="2"
     inkscape:window-width="2560"
     inkscape:window-height="1377"
     id="namedview102"
     showgrid="false"
     inkscape:zoom="15.3125"
     inkscape:cx="23.934112"
     inkscape:cy="23.779036"
     inkscape:window-x="-8"
     inkscape:window-y="-8"
     inkscape:window-maximized="1"
     inkscape:current-layer="svg100" />
  <defs
     id="defs26">
    <style
       id="style2">.cls-1{fill:url(#radial-gradient);}.cls-2{fill:#fff;stroke:#729fcf;}.cls-2,.cls-3,.cls-4,.cls-5{stroke-miterlimit:10;}.cls-12,.cls-2,.cls-4,.cls-5{stroke-width:0.35px;}.cls-3{fill:#2e3436;stroke-width:0.7px;}.cls-12,.cls-3,.cls-4,.cls-5{stroke:#231f20;}.cls-4{fill:#34393b;}.cls-12,.cls-5{fill:none;}.cls-6{fill:url(#linear-gradient);}.cls-7{fill:url(#linear-gradient-3);}.cls-8{fill:url(#linear-gradient-4);}.cls-9{fill:url(#linear-gradient-5);}.cls-10{fill:url(#linear-gradient-6);}.cls-11{fill:url(#linear-gradient-7);}.cls-12{stroke-linecap:round;stroke-linejoin:round;}.cls-13{fill:url(#linear-gradient-8);}</style>
    <radialGradient
       id="radial-gradient"
       cx="24.39"
       cy="130.26"
       r="18.79"
       gradientTransform="translate(-5 -3.4) scale(1.19 0.35)"
       gradientUnits="userSpaceOnUse">
      <stop
         offset="0.03"
         stop-color="#2c2c2c"
         stop-opacity="0.5"
         id="stop4" />
      <stop
         offset="0.68"
         stop-color="#2c2c2c"
         stop-opacity="0.1"
         id="stop6" />
      <stop
         offset="0.93"
         stop-color="#2c2c2c"
         stop-opacity="0"
         id="stop8" />
    </radialGradient>
    <linearGradient
       id="linear-gradient"
       x1="18.16"
       y1="31.01"
       x2="23.19"
       y2="30.73"
       gradientUnits="userSpaceOnUse">
      <stop
         offset="0"
         stop-color="#231f20"
         id="stop11" />
      <stop
         offset="1"
         stop-color="#2e3436"
         id="stop13" />
    </linearGradient>
    <linearGradient
       id="linear-gradient-3"
       x1="27.38"
       y1="14.72"
       x2="29.49"
       y2="8.78"
       xlink:href="#linear-gradient"
       gradientTransform="matrix(1.1111012,0,0,1.1101876,-5.762281,-3.5218711)" />
    <linearGradient
       id="linear-gradient-4"
       x1="30.15"
       y1="31.75"
       x2="33.03"
       y2="27.8"
       xlink:href="#linear-gradient"
       gradientTransform="matrix(1.1111012,0,0,1.1101876,-5.762281,-3.5218711)" />
    <linearGradient
       id="linear-gradient-5"
       x1="20.57"
       y1="14.05"
       x2="21.43"
       y2="14.08"
       xlink:href="#linear-gradient"
       gradientTransform="matrix(1.1111012,0,0,1.1101876,-5.762281,-3.5218711)" />
    <linearGradient
       id="linear-gradient-6"
       x1="22.97"
       y1="14.14"
       x2="21.72"
       y2="13.81"
       xlink:href="#linear-gradient"
       gradientTransform="matrix(1.1111012,0,0,1.1101876,-5.762281,-3.5218711)" />
    <linearGradient
       id="linear-gradient-7"
       x1="15.24"
       y1="14.94"
       x2="21.4"
       y2="19.59"
       xlink:href="#linear-gradient"
       gradientTransform="matrix(1.1111012,0,0,1.1101876,-5.762281,-3.5218711)" />
    <linearGradient
       id="linear-gradient-8"
       x1="23.15"
       y1="10.72"
       x2="24.18"
       y2="16.46"
       gradientUnits="userSpaceOnUse"
       gradientTransform="matrix(1.1111012,0,0,1.1101876,-5.762281,-3.5218711)">
      <stop
         offset="0"
         stop-color="#b2cbe5"
         id="stop21" />
      <stop
         offset="1"
         stop-color="#3465a4"
         id="stop23" />
    </linearGradient>
    <linearGradient
       inkscape:collect="always"
       xlink:href="#linear-gradient"
       id="linearGradient929"
       gradientUnits="userSpaceOnUse"
       x1="18.16"
       y1="31.01"
       x2="23.19"
       y2="30.73"
       gradientTransform="matrix(1.1111012,0,0,1.1101876,-5.762281,-3.5218711)" />
    <linearGradient
       inkscape:collect="always"
       xlink:href="#linear-gradient"
       id="linearGradient931"
       gradientUnits="userSpaceOnUse"
       x1="18.16"
       y1="31.01"
       x2="23.19"
       y2="30.73"
       gradientTransform="matrix(1.1111012,0,0,1.1101876,-5.762281,-3.5218711)" />
  </defs>
  <title
     id="title28">4-Motion Capture</title>
  <g
     id="shadow">
    <ellipse
       class="cls-1"
       cx="23.93"
       cy="41.71"
       rx="21.41"
       ry="6.28"
       id="ellipse30" />
  </g>
  <ellipse
     class="cls-2"
     cx="21.515253"
     cy="11.754311"
     id="circle33"
     rx="0.7666598"
     ry="0.76602942" />
  <ellipse
     class="cls-2"
     cx="24.515226"
     cy="10.111233"
     id="circle35"
     rx="1.2891088"
     ry="1.2881356" />
  <ellipse
     class="cls-2"
     cx="10.967693"
     cy="3.6133642"
     id="circle37"
     rx="1.1587536"
     ry="1.1578662" />
  <path
     class="cls-3"
     d="m 36.148456,34.923925 c -0.288886,-0.222037 -0.566661,0.111019 -1.2111,0.188732 A 5.1555096,5.1512705 0 0 1 32.859597,34.624175 3.4444137,3.4415816 0 0 1 31.748496,32.625837 C 31.492942,31.51565 30.748504,27.407955 30.492951,26.297768 a 2.8999741,2.8975896 0 0 0 -1.488875,-2.30919 45.34404,45.306756 0 0 0 -5.766616,-1.47655 1.1111012,1.1101876 0 0 1 -0.66666,-1.110187 12.133225,12.123249 0 0 0 0.33333,-2.764368 20.31093,20.294229 0 0 0 -0.33333,-2.930895 10.833237,10.824329 0 0 1 1.822206,-1.465447 8.7888105,8.7815839 0 0 0 2.866641,-2.686654 c 0.166665,-0.5884 0.344441,-4.3075284 0.422218,-5.5509385 a 4.8999563,4.8959273 0 0 1 0.322219,-1.7540964 c 0,0 0.122222,0 0.255554,-0.3774638 0.133332,-0.3774638 0,-0.2442413 0.199998,-0.7438257 0.199998,-0.4995844 0.944436,-0.7327238 0.944436,-0.7327238 a 1.0222131,1.0213726 0 0 0 0.522218,0 c 0.255553,-0.066611 0.233331,-0.2886488 0,-0.4551769 a 2.1110923,2.1093564 0 0 0 -1.611097,0 5.2221756,5.2178817 0 0 0 -1.599986,1.6652814 22.444244,22.42579 0 0 0 -0.666661,2.775469 c -0.266664,1.1101876 -1.222211,4.2409167 -1.222211,4.2409167 a 9.1999179,9.1923533 0 0 1 -3.544413,1.487651 5.4443959,5.4399192 0 0 0 -1.177767,0.466279 7.8777075,7.8712301 0 0 0 0.11111,-0.788233 c 0.122221,0 0.444441,0.144324 0.599995,0 a 2.822197,2.8198765 0 0 0 0.499995,-1.110188 6.9332715,6.9275706 0 0 0 0.177776,-2.1093561 2.3666456,2.3646996 0 0 0 -0.588883,-1.2323083 1.9444271,1.9428283 0 0 0 -1.744429,-0.7882332 2.2222024,2.2203752 0 0 0 -1.877761,1.8762171 9.6999135,9.6919377 0 0 0 0.155554,2.5867375 3.7777441,3.7746378 0 0 1 -0.377774,1.887319 6.6666072,6.6611256 0 0 1 -1.711096,-0.677215 7.433267,7.427155 0 0 1 -1.655541,-1.865115 c 0,0 0,-1.8651153 -0.122221,-3.4859892 a 14.666536,14.654476 0 0 1 0.166665,-2.9086915 4.4444048,4.4407504 0 0 0 0.266664,-0.4551769 c 0.11111,-0.2331394 0,-0.5106863 0.133332,-1.1101876 a 3.5888569,3.5859059 0 0 1 0.666661,-1.1101876 c 0,0 0.311109,0 0.522218,0 0.211109,0 0.44444,-0.31085252 0.355552,-0.49958441 C 15.593084,0.5969249 15.415308,0.57472114 15.137533,0.53031364 a 2.9999732,2.9975065 0 0 0 -1.255545,0.088815 C 13.248661,0.88557367 12.570889,2.1289838 12.337558,2.6729757 a 7.5332661,7.5270719 0 0 0 -0.32222,2.0094396 c -0.06667,0.6439088 -0.699994,3.9522678 -0.799993,5.2733911 a 3.2333045,3.2306459 0 0 0 0.255554,2.0649486 15.722082,15.709155 0 0 0 1.933316,3.053016 14.866534,14.85431 0 0 1 2.033315,2.398005 15.288753,15.276181 0 0 1 1.022213,5.872893 7.4554891,7.4493588 0 0 0 0.199998,3.619211 23.333125,23.31394 0 0 1 0.611106,4.440751 29.344183,29.320055 0 0 1 -0.311108,3.796841 c -0.133333,1.798504 0,3.96337 0,4.984743 a 12.566555,12.556222 0 0 1 -0.499996,2.409107 c -0.1,0.588399 0,0.566195 0.633328,1.254512 0.633327,0.688316 0.33333,0.988067 0.944436,1.365531 a 2.4777557,2.4757183 0 0 0 1.877761,0.399667 c 0.633327,-0.144324 0.699993,-0.166528 0.699993,-0.543992 0,-0.377464 -0.255553,-0.399667 -0.511106,-0.71052 a 5.9443914,5.9395037 0 0 1 -1.111101,-2.54233 38.032994,38.001722 0 0 1 0.799993,-4.918131 c 0.188887,-1.742994 0,-2.620042 0.188887,-2.997506 a 5.6555051,5.6508549 0 0 0 0.422218,-1.232308 c 0,-0.444075 0.144443,-2.453515 0.333331,-3.819046 a 6.2443887,6.2392543 0 0 1 0.733326,-2.220375 33.133038,33.105794 0 0 0 3.7333,0 c 1.744429,-0.144324 2.166648,0.399668 2.166648,0.399668 a 5.7666152,5.7618736 0 0 0 0.677772,2.753265 c 0.766659,1.532059 1.666651,3.585906 2.111092,4.607278 a 14.855423,14.843208 0 0 1 0.744438,2.298089 0.85554792,0.85484445 0 0 0 1.111101,0.71052 9.1443629,9.1368439 0 0 1 2.122203,-0.954762 4.7777352,4.7738067 0 0 0 2.011093,-0.821538 0.43332947,0.43297316 0 0 0 0,-0.699419 z"
     id="path39" />
  <path
     class="cls-4"
     d="m 13.948654,2.6174663 a 7.6554873,7.6491926 0 0 0 0.76666,-0.3219544 0.1888872,0.18873189 0 0 1 0.288886,0.099917 c 0,0.1221206 -0.05556,0.2220375 -0.255553,0.3885657 A 2.5888658,2.5867371 0 0 0 14.026431,3.5056164 C 13.7931,3.9052839 13.948654,2.6174663 13.948654,2.6174663 Z"
     id="path41" />
  <path
     class="cls-5"
     d="m 13.948654,2.6174663 a 7.6554873,7.6491926 0 0 0 0.76666,-0.3219544 0.1888872,0.18873189 0 0 1 0.288886,0.099917 c 0,0.1221206 -0.05556,0.2220375 -0.255553,0.3885657 A 2.5888658,2.5867371 0 0 0 14.026431,3.5056164 C 13.7931,3.9052839 13.948654,2.6174663 13.948654,2.6174663 Z"
     id="path43" />
  <path
     class="cls-4"
     d="m 36.126234,34.935027 c -0.277775,-0.210935 -0.566661,0.122121 -1.199989,0.188732 a 4.8999563,4.8959273 0 0 1 -2.077759,-0.47738 3.3333036,3.3305628 0 0 1 -1.111101,-2.00944 C 31.481831,31.582261 30.737393,27.430159 30.48184,26.319972 30.226287,25.209784 29.859623,24.377143 28.992965,23.99968 a 49.655113,49.614284 0 0 0 -5.766616,-1.47655 1.0444351,1.0435763 0 0 1 -0.66666,-1.110188 12.822108,12.811565 0 0 0 0.33333,-2.764367 20.31093,20.294229 0 0 0 -0.33333,-2.930895 10.255464,10.247032 0 0 1 1.822206,-1.47655 8.6888114,8.681667 0 0 0 2.866641,-2.697755 c 0.155554,-0.5884 0.344441,-4.2964264 0.411107,-5.5509384 a 5.1110655,5.106863 0 0 1 0.33333,-1.7429945 c 0,0 0.111111,0 0.255554,-0.3774638 0.144443,-0.3774638 0,-0.2331394 0.199998,-0.7327238 0.199998,-0.4995844 0.944436,-0.7327238 0.944436,-0.7327238 a 1.0222131,1.0213726 0 0 0 0.522218,0 c 0.255553,-0.066611 0.22222,-0.2886488 0,-0.4551769 a 2.0666482,2.0649489 0 0 0 -1.611097,0 5.1110655,5.106863 0 0 0 -1.599986,1.6652814 20.577594,20.560674 0 0 0 -0.666661,2.775469 c -0.266664,1.1101876 -1.222211,4.2409168 -1.222211,4.2409168 a 9.3776941,9.3699833 0 0 1 -3.544413,1.487651 5.6777271,5.6730586 0 0 0 -1.177767,0.455177 c 0,-0.266445 0.08889,-0.566196 0.1,-0.777131 0.133332,0 0.455552,0.144324 0.599995,0 A 2.733309,2.7310615 0 0 0 21.293033,10.68853 7.0332706,7.0274875 0 0 0 21.48192,8.5680719 2.2222024,2.2203752 0 0 0 20.904148,7.3579674 1.9444271,1.9428283 0 0 0 19.159719,6.5586323 a 2.2222024,2.2203752 0 0 0 -1.86665,1.8873189 9.288806,9.2811683 0 0 0 0.155554,2.5867368 3.8999652,3.8967585 0 0 1 -0.388885,1.887319 6.7777173,6.7721444 0 0 1 -1.711096,-0.677214 7.1554917,7.1496081 0 0 1 -1.655541,-1.865115 c 0,0 -0.05556,-1.8651155 -0.122221,-3.4970913 a 14.444316,14.432439 0 0 1 0.166665,-2.8975896 4.5555149,4.5517692 0 0 0 0.255553,-0.4551769 c 0.122221,-0.2331394 0,-0.5217882 0.144443,-1.1101876 A 3.5888569,3.5859059 0 0 1 14.804202,1.307445 c 0,0 0.299998,0 0.511107,0 0.211109,0 0.455551,-0.2997507 0.355552,-0.48848258 -0.1,-0.1887319 -0.255553,-0.22203752 -0.544439,-0.26644503 a 3.1555274,3.1529328 0 0 0 -1.244434,0.0999169 C 13.248661,0.9188793 12.570889,2.1622894 12.326447,2.7062813 a 7.433267,7.427155 0 0 0 -0.388886,1.976134 c -0.06667,0.6328069 -0.711105,3.9522678 -0.799993,5.2733911 a 3.1555274,3.1529328 0 0 0 0.32222,2.0649486 14.677647,14.665578 0 0 0 1.933316,3.041914 14.833201,14.821004 0 0 1 2.033315,2.409107 15.288753,15.276181 0 0 1 1.033324,5.895097 7.411045,7.4049513 0 0 0 0.199998,3.608109 23.588678,23.569283 0 0 1 0.611106,4.440751 29.510848,29.486583 0 0 1 -0.311108,3.807943 c -0.144444,1.787402 0,3.96337 0,4.973641 a 12.699887,12.689444 0 0 1 -0.422219,2.442412 c -0.1,0.5884 0,0.566196 0.633328,1.24341 0.633327,0.677215 0.33333,0.999169 0.944436,1.376633 a 2.4666447,2.4646165 0 0 0 1.86665,0.399668 c 0.644439,-0.144325 0.711105,-0.166529 0.711105,-0.543992 0,-0.377464 -0.255554,-0.399668 -0.522218,-0.71052 a 6.2110557,6.2059487 0 0 1 -1.055546,-2.553432 38.155215,38.123842 0 0 1 0.677772,-4.929233 c 0.188887,-1.742994 0,-2.620043 0.177776,-2.997506 a 5.8443923,5.8395868 0 0 0 0.433329,-1.232309 c 0,-0.444075 0.133332,-2.453514 0.32222,-3.819045 a 6.2554998,6.2503562 0 0 1 0.733326,-2.220375 30.433062,30.408038 0 0 0 3.7333,0 c 1.75554,-0.133223 2.222203,0.410769 2.222203,0.410769 a 5.555506,5.550938 0 0 0 0.622217,2.71996 c 0.766659,1.543161 1.666651,3.597008 2.111092,4.607278 a 13.677656,13.666409 0 0 1 0.777771,2.298089 0.86665894,0.86594633 0 0 0 1.111101,0.71052 8.6777004,8.6705652 0 0 1 2.133314,-0.921456 4.4444048,4.4407504 0 0 0 1.999982,-0.832641 0.42221846,0.42187129 0 0 0 -0.04444,-0.71052 z"
     id="path45" />
  <path
     class="cls-6"
     d="m 17.359735,42.595322 c -0.08889,0.588399 0.577773,1.343327 0.788882,1.765198 0.211109,0.421871 -0.06667,0.854845 0.599994,1.199003 A 2.6777539,2.6755521 0 0 1 18.07084,45.237568 c -0.611106,-0.377463 -0.299998,-0.688316 -0.944436,-1.36553 -0.644439,-0.677215 -0.733327,-0.666113 -0.633328,-1.254512 a 12.566555,12.556222 0 0 0 0.422218,-2.431311 c 0,-1.021373 -0.1,-3.186239 0,-4.984743 A 29.344183,29.320055 0 0 0 17.226403,31.404631 23.333125,23.31394 0 0 0 16.615297,26.96388 7.4554891,7.4493588 0 0 1 16.459743,23.366873 15.188753,15.176264 0 0 0 15.426419,17.471776 4.0777414,4.0743885 0 0 0 14.804202,16.60583 c 0.255553,-0.521788 0.54444,-0.810437 0.822215,-0.543992 a 5.2443977,5.2400855 0 0 1 1.166656,2.886488 c 0.166666,0.732724 0.444441,2.608941 0.566662,3.508193 a 18.744277,18.728865 0 0 0 0.322219,3.508193 c 0.366664,1.276715 0.355553,3.630313 0.644439,5.184576 a 2.799975,2.7976728 0 0 0 0.933325,1.89842 c 0.255553,0.388566 -0.944436,0.277547 -1.244433,1.110188 a 25.455328,25.434398 0 0 0 -0.277776,4.729399 c -0.06667,1.365531 -0.288886,3.108525 -0.377774,3.708027 z"
     id="path47"
     style="fill:url(#linearGradient929);stroke-width:1" />
  <path
     class="cls-6"
     d="m 17.359735,42.595322 c -0.08889,0.588399 0.577773,1.343327 0.788882,1.765198 0.211109,0.421871 -0.06667,0.854845 0.599994,1.199003 A 2.6777539,2.6755521 0 0 1 18.07084,45.237568 c -0.611106,-0.377463 -0.299998,-0.688316 -0.944436,-1.36553 -0.644439,-0.677215 -0.733327,-0.666113 -0.633328,-1.254512 a 12.566555,12.556222 0 0 0 0.422218,-2.431311 c 0,-1.021373 -0.1,-3.186239 0,-4.984743 A 29.344183,29.320055 0 0 0 17.226403,31.404631 23.333125,23.31394 0 0 0 16.615297,26.96388 7.4554891,7.4493588 0 0 1 16.459743,23.366873 15.188753,15.176264 0 0 0 15.426419,17.471776 4.0777414,4.0743885 0 0 0 14.804202,16.60583 c 0.255553,-0.521788 0.54444,-0.810437 0.822215,-0.543992 a 5.2443977,5.2400855 0 0 1 1.166656,2.886488 c 0.166666,0.732724 0.444441,2.608941 0.566662,3.508193 a 18.744277,18.728865 0 0 0 0.322219,3.508193 c 0.366664,1.276715 0.355553,3.630313 0.644439,5.184576 a 2.799975,2.7976728 0 0 0 0.933325,1.89842 c 0.255553,0.388566 -0.944436,0.277547 -1.244433,1.110188 a 25.455328,25.434398 0 0 0 -0.277776,4.729399 c -0.06667,1.365531 -0.288886,3.108525 -0.377774,3.708027 z"
     id="path49"
     style="fill:url(#linearGradient931);stroke-width:1" />
  <path
     class="cls-7"
     d="m 22.370801,15.739884 a 4.622181,4.6183804 0 0 1 -0.266664,-1.720791 c 0,-0.244241 0.211109,0 1.111101,-0.410769 a 17.777619,17.763002 0 0 0 3.17775,-2.398006 16.077634,16.064415 0 0 0 0.755549,-3.7968412 7.4888221,7.4826644 0 0 1 0.644438,-2.6533484 c 0.199998,-0.3996675 0,2.2980883 0,2.2980883 l -0.511106,4.5073613 a 11.1999,11.190691 0 0 1 -0.866659,1.232309 c -0.244443,0.233139 -2.722198,2.098254 -2.722198,2.098254"
     id="path51"
     style="fill:url(#linear-gradient-3);stroke-width:1" />
  <path
     class="cls-8"
     d="m 36.126234,35.678853 a 4.4999599,4.4962598 0 0 1 -1.999982,0.821539 9.1443629,9.1368439 0 0 0 -2.133314,0.921456 0.85554792,0.85484445 0 0 1 -1.111101,-0.71052 13.599879,13.588696 0 0 0 -0.777771,-2.286987 C 29.659625,33.402968 28.759633,31.360223 27.992973,29.817063 A 5.6221721,5.6175493 0 0 1 27.29298,27.008288 c 0,0 -0.422219,-0.543992 -2.222203,-0.399668 a 30.433062,30.408038 0 0 1 -3.7333,0 5.555506,5.550938 0 0 0 -0.422218,0.932558 c 0.411107,-1.609772 0.611105,-2.986405 0.666661,-3.01971 a 6.444387,6.4390881 0 0 0 2.077759,0.766029 c 1.333321,0.210936 3.822188,0.06661 4.311072,0.5884 0.488885,0.521788 0.32222,1.931726 0.455552,2.775469 a 11.111012,11.101876 0 0 0 1.53332,3.19734 20.888703,20.871527 0 0 1 1.266655,2.719959 c 0.1,0.23314 0.1,0.932558 0.44444,1.110188 0.344442,0.17763 0.422219,0.721622 1.044436,0.543992 a 8.0221507,8.0155545 0 0 1 1.86665,-0.444075 2.0777592,2.0760508 0 0 0 1.566652,-0.788233 0.41110744,0.41076941 0 0 1 -0.02222,0.688316 z"
     id="path53"
     style="fill:url(#linear-gradient-4);stroke-width:1" />
  <path
     class="cls-5"
     d="m 36.126234,34.935027 c -0.277775,-0.210935 -0.566661,0.122121 -1.199989,0.188732 a 4.8999563,4.8959273 0 0 1 -2.077759,-0.47738 3.3333036,3.3305628 0 0 1 -1.111101,-2.00944 C 31.481831,31.582261 30.737393,27.430159 30.48184,26.319972 30.226287,25.209784 29.859623,24.377143 28.992965,23.99968 a 49.655113,49.614284 0 0 0 -5.766616,-1.47655 1.0444351,1.0435763 0 0 1 -0.66666,-1.110188 12.822108,12.811565 0 0 0 0.33333,-2.764367 20.31093,20.294229 0 0 0 -0.33333,-2.930895 10.255464,10.247032 0 0 1 1.822206,-1.47655 8.6888114,8.681667 0 0 0 2.866641,-2.697755 c 0.155554,-0.5884 0.344441,-4.2964264 0.411107,-5.5509384 a 5.1110655,5.106863 0 0 1 0.33333,-1.7429945 c 0,0 0.111111,0 0.255554,-0.3774638 0.144443,-0.3774638 0,-0.2331394 0.199998,-0.7327238 0.199998,-0.4995844 0.944436,-0.7327238 0.944436,-0.7327238 a 1.0222131,1.0213726 0 0 0 0.522218,0 c 0.255553,-0.066611 0.22222,-0.2886488 0,-0.4551769 a 2.0666482,2.0649489 0 0 0 -1.611097,0 5.1110655,5.106863 0 0 0 -1.599986,1.6652814 20.577594,20.560674 0 0 0 -0.666661,2.775469 c -0.266664,1.1101876 -1.222211,4.2409168 -1.222211,4.2409168 a 9.3776941,9.3699833 0 0 1 -3.544413,1.487651 5.6777271,5.6730586 0 0 0 -1.177767,0.455177 c 0,-0.266445 0.08889,-0.566196 0.1,-0.777131 0.133332,0 0.455552,0.144324 0.599995,0 A 2.733309,2.7310615 0 0 0 21.293033,10.68853 7.0332706,7.0274875 0 0 0 21.48192,8.5680719 2.2222024,2.2203752 0 0 0 20.904148,7.3579674 1.9444271,1.9428283 0 0 0 19.159719,6.5586323 a 2.2222024,2.2203752 0 0 0 -1.86665,1.8873189 9.288806,9.2811683 0 0 0 0.155554,2.5867368 3.8999652,3.8967585 0 0 1 -0.388885,1.887319 6.7777173,6.7721444 0 0 1 -1.711096,-0.677214 7.1554917,7.1496081 0 0 1 -1.655541,-1.865115 c 0,0 -0.05556,-1.8651155 -0.122221,-3.4970913 a 14.444316,14.432439 0 0 1 0.166665,-2.8975896 4.5555149,4.5517692 0 0 0 0.255553,-0.4551769 c 0.122221,-0.2331394 0,-0.5217882 0.144443,-1.1101876 A 3.5888569,3.5859059 0 0 1 14.804202,1.307445 c 0,0 0.299998,0 0.511107,0 0.211109,0 0.455551,-0.2997507 0.355552,-0.48848258 -0.1,-0.1887319 -0.255553,-0.22203752 -0.544439,-0.26644503 a 3.1555274,3.1529328 0 0 0 -1.244434,0.0999169 C 13.248661,0.9188793 12.570889,2.1622894 12.326447,2.7062813 a 7.433267,7.427155 0 0 0 -0.388886,1.976134 c -0.06667,0.6328069 -0.711105,3.9522678 -0.799993,5.2733911 a 3.1555274,3.1529328 0 0 0 0.32222,2.0649486 14.677647,14.665578 0 0 0 1.933316,3.041914 14.833201,14.821004 0 0 1 2.033315,2.409107 15.288753,15.276181 0 0 1 1.033324,5.895097 7.411045,7.4049513 0 0 0 0.199998,3.608109 23.588678,23.569283 0 0 1 0.611106,4.440751 29.510848,29.486583 0 0 1 -0.311108,3.807943 c -0.144444,1.787402 0,3.96337 0,4.973641 a 12.699887,12.689444 0 0 1 -0.422219,2.442412 c -0.1,0.5884 0,0.566196 0.633328,1.24341 0.633327,0.677215 0.33333,0.999169 0.944436,1.376633 a 2.4666447,2.4646165 0 0 0 1.86665,0.399668 c 0.644439,-0.144325 0.711105,-0.166529 0.711105,-0.543992 0,-0.377464 -0.255554,-0.399668 -0.522218,-0.71052 a 6.2110557,6.2059487 0 0 1 -1.055546,-2.553432 38.155215,38.123842 0 0 1 0.677772,-4.929233 c 0.188887,-1.742994 0,-2.620043 0.177776,-2.997506 a 5.8443923,5.8395868 0 0 0 0.433329,-1.232309 c 0,-0.444075 0.133332,-2.453514 0.32222,-3.819045 a 6.2554998,6.2503562 0 0 1 0.733326,-2.220375 30.433062,30.408038 0 0 0 3.7333,0 c 1.75554,-0.133223 2.222203,0.410769 2.222203,0.410769 a 5.555506,5.550938 0 0 0 0.622217,2.71996 c 0.766659,1.543161 1.666651,3.597008 2.111092,4.607278 a 13.677656,13.666409 0 0 1 0.777771,2.298089 0.86665894,0.86594633 0 0 0 1.111101,0.71052 8.6777004,8.6705652 0 0 1 2.133314,-0.921456 4.4444048,4.4407504 0 0 0 1.999982,-0.832641 0.42221846,0.42187129 0 0 0 -0.04444,-0.71052 z"
     id="path55" />
  <path
     class="cls-9"
     d="m 17.570844,10.910568 a 21.655362,21.637556 0 0 1 0.177776,2.420209 c 0,0 -0.533328,0.06661 -0.711104,-0.210936 -0.177777,-0.277547 0.299997,-1.332225 0.299997,-1.332225"
     id="path57"
     style="fill:url(#linear-gradient-5);stroke-width:1" />
  <path
     class="cls-10"
     d="m 19.981934,11.698801 a 4.4444048,4.4407504 0 0 1 -1.366655,-0.466279 c -0.166665,-0.133222 -0.05556,0.255343 0.188888,0.599501 a 8.1221498,8.1154714 0 0 0 1.022213,1.010271 c 0.188887,0 0.155554,-1.110187 0.155554,-1.110187"
     id="path59"
     style="fill:url(#linear-gradient-6);stroke-width:1" />
  <path
     class="cls-11"
     d="m 11.382011,11.843125 c -0.111111,-0.388565 0.288886,-0.932557 0.599994,-0.47738 a 27.088647,27.066374 0 0 0 2.733309,3.830147 5.0666215,5.0624555 0 0 1 1.64443,2.031643 c 0.199998,0.610603 0.622217,2.564533 0.622217,2.564533 0,0 -1.011103,-1.509855 -1.333322,-2.009439 C 15.32642,17.283045 14.537538,16.4282 14.481983,16.350487 a 15.022088,15.009736 0 0 1 -1.855539,-2.342496 23.16646,23.147411 0 0 1 -1.266656,-1.987236"
     id="path61"
     style="fill:url(#linear-gradient-7);stroke-width:1" />
  <path
     class="cls-4"
     d="m 27.692976,3.3279864 a 1.7888729,1.787402 0 0 0 0.622217,-0.099917 1.3110994,1.3100214 0 0 1 0.899992,0 0.24444226,0.24424127 0 0 1 0.06667,0.4107694 c -0.11111,0.1110188 -0.388886,0.088815 -0.577773,0.17763 -0.188887,0.088815 -0.488884,0.455177 -0.855548,0.4773807"
     id="path63" />
  <path
     class="cls-12"
     d="m 27.692976,3.3279864 a 1.7888729,1.787402 0 0 0 0.622217,-0.099917 1.3110994,1.3100214 0 0 1 0.899992,0 0.24444226,0.24424127 0 0 1 0.06667,0.4107694 c -0.11111,0.1110188 -0.388886,0.088815 -0.577773,0.17763 -0.188887,0.088815 -0.488884,0.455177 -0.855548,0.4773807"
     id="path65" />
  <path
     class="cls-13"
     d="m 20.137488,7.7021255 a 1.2777664,1.2767157 0 0 1 1.022213,0.3108526 1.2444333,1.2434101 0 0 1 0.322219,0.8104369 6.455498,6.45019 0 0 1 -0.122221,2.087153 c -0.1,0.455177 -0.366663,1.043576 -0.755549,0.999169 a 2.0999813,2.0982546 0 0 1 -1.65554,-1.354429 2.4666447,2.4646165 0 0 1 0.05556,-2.1093568 1.4999866,1.4987533 0 0 1 1.133323,-0.7438257 z"
     id="path67"
     style="fill:url(#linear-gradient-8);stroke-width:1" />
  <path
     class="cls-12"
     d="m 20.137488,7.7021255 a 1.2777664,1.2767157 0 0 1 1.022213,0.3108526 1.2444333,1.2434101 0 0 1 0.322219,0.8104369 6.455498,6.45019 0 0 1 -0.122221,2.087153 c -0.1,0.455177 -0.366663,1.043576 -0.755549,0.999169 a 2.0999813,2.0982546 0 0 1 -1.65554,-1.354429 2.4666447,2.4646165 0 0 1 0.05556,-2.1093568 1.4999866,1.4987533 0 0 1 1.133323,-0.7438257 z"
     id="path69" />
  <ellipse
     class="cls-2"
     cx="10.759793"
     cy="11.898635"
     id="circle71"
     rx="1.289023"
     ry="1.2880501" />
  <ellipse
     class="cls-2"
     cx="16.915295"
     cy="8.8012114"
     id="circle73"
     rx="1.2894517"
     ry="1.2884784" />
  <ellipse
     class="cls-2"
     cx="21.296242"
     cy="5.9003506"
     id="circle75"
     rx="1.1587538"
     ry="1.1578661" />
  <ellipse
     class="cls-2"
     cx="20.515263"
     cy="15.040464"
     id="circle77"
     rx="1.2894517"
     ry="1.2884784" />
  <ellipse
     class="cls-2"
     cx="21.07081"
     cy="20.147327"
     id="circle79"
     rx="1.1587536"
     ry="1.1578662" />
  <ellipse
     class="cls-2"
     cx="24.057186"
     cy="21.875307"
     id="circle81"
     rx="1.2894517"
     ry="1.2884784" />
  <ellipse
     class="cls-2"
     cx="16.915295"
     cy="24.288328"
     id="circle83"
     rx="1.2241027"
     ry="1.2231723" />
  <ellipse
     class="cls-2"
     cx="18.748611"
     cy="33.93586"
     id="circle85"
     rx="1.3548007"
     ry="1.3537844" />
  <ellipse
     class="cls-2"
     cx="18.915276"
     cy="41.684971"
     id="circle87"
     rx="1.2241027"
     ry="1.2231723" />
  <ellipse
     class="cls-2"
     cx="20.704149"
     cy="44.00526"
     id="circle89"
     rx="1.2241027"
     ry="1.2231723" />
  <ellipse
     class="cls-2"
     cx="35.892906"
     cy="34.091286"
     id="circle91"
     rx="1.157042"
     ry="1.1561555" />
  <ellipse
     class="cls-2"
     cx="33.070705"
     cy="33.81374"
     id="circle93"
     rx="1.2857399"
     ry="1.2847691" />
  <ellipse
     class="cls-2"
     cx="30.715176"
     cy="24.532568"
     id="circle95"
     rx="1.3548007"
     ry="1.3537844" />
  <ellipse
     class="cls-2"
     cx="25.759661"
     cy="4.4936833"
     id="circle97"
     rx="1.2894517"
     ry="1.2884784" />
</svg>
