<?xml version="1.0" encoding="UTF-8" standalone="no"?>
<!-- Generator: Adobe Illustrator 15.0.0, SVG Export Plug-In . SVG Version: 6.00 Build 0)  -->
<svg
   xmlns:dc="http://purl.org/dc/elements/1.1/"
   xmlns:cc="http://creativecommons.org/ns#"
   xmlns:rdf="http://www.w3.org/1999/02/22-rdf-syntax-ns#"
   xmlns:svg="http://www.w3.org/2000/svg"
   xmlns="http://www.w3.org/2000/svg"
   xmlns:xlink="http://www.w3.org/1999/xlink"
   xmlns:sodipodi="http://sodipodi.sourceforge.net/DTD/sodipodi-0.dtd"
   xmlns:inkscape="http://www.inkscape.org/namespaces/inkscape"
   version="1.0"
   id="Layer_1"
   x="0px"
   y="0px"
   width="48"
   height="48"
   viewBox="0 0 612 792"
   enable-background="new 0 0 612 792"
   xml:space="preserve"
   sodipodi:version="0.32"
   inkscape:version="0.46"
   sodipodi:docname="Ocean.svg"
   inkscape:output_extension="org.inkscape.output.svg.inkscape"><metadata
     id="metadata2473"><rdf:RDF><cc:Work
         rdf:about=""><dc:format>image/svg+xml</dc:format><dc:type
           rdf:resource="http://purl.org/dc/dcmitype/StillImage" /></cc:Work></rdf:RDF></metadata><defs
     id="defs2471"><linearGradient
       id="linearGradient52042"><stop
         style="stop-color:#a3dfff;stop-opacity:1;"
         offset="0"
         id="stop52044" /><stop
         style="stop-color:#10acff;stop-opacity:1;"
         offset="1"
         id="stop52046" /></linearGradient><radialGradient
       gradientUnits="userSpaceOnUse"
       gradientTransform="matrix(0.931,-0.365,0.365,0.931,-122.3231,137.2727)"
       r="0"
       cy="392.65091"
       cx="333.0889"
       id="SVGID_1_">
			<stop
   id="stop48971"
   style="stop-color:#FFF200;stop-opacity:0"
   offset="0.5744" />
			<stop
   id="stop48973"
   style="stop-color:#FFF200;stop-opacity:0.6512"
   offset="0.7977" />
			<stop
   id="stop48975"
   style="stop-color:#FFF200;stop-opacity:0.95"
   offset="1" />
		</radialGradient><radialGradient
       gradientUnits="userSpaceOnUse"
       gradientTransform="matrix(0.931,-0.365,0.365,0.931,-122.3231,137.2727)"
       r="0"
       cy="373.6748"
       cx="279.6626"
       id="SVGID_4_">
			<stop
   id="stop49004"
   style="stop-color:#FFF200;stop-opacity:0"
   offset="0.5744" />
			<stop
   id="stop49006"
   style="stop-color:#FFF200;stop-opacity:0.6512"
   offset="0.7977" />
			<stop
   id="stop49008"
   style="stop-color:#FFF200;stop-opacity:0.95"
   offset="1" />
		</radialGradient><radialGradient
       inkscape:collect="always"
       xlink:href="#linearGradient52042"
       id="radialGradient52048"
       cx="195.66577"
       cy="293.69397"
       fx="195.66577"
       fy="293.69397"
       r="395.01836"
       gradientTransform="matrix(1.1902036,1.4195518e-2,-1.3047664e-2,1.0939634,-39.488524,-34.240439)"
       gradientUnits="userSpaceOnUse" /></defs><sodipodi:namedview
     inkscape:window-height="1538"
     inkscape:window-width="2560"
     inkscape:pageshadow="2"
     inkscape:pageopacity="0.0"
     guidetolerance="10.0"
     gridtolerance="10.0"
     objecttolerance="10.0"
     borderopacity="1.0"
     bordercolor="#666666"
     pagecolor="#ffffff"
     id="base"
     showgrid="false"
     inkscape:zoom="18.666667"
     inkscape:cx="12.14682"
     inkscape:cy="21.201316"
     inkscape:window-x="-8"
     inkscape:window-y="-8"
     inkscape:current-layer="Layer_1" /><path
     style="fill:url(#radialGradient52048);stroke:#007ead;stroke-width:25.61838150000000200;fill-opacity:1"
     d="M 305.3562,778.11672 C 94.602313,778.11672 -76.852977,606.66144 -76.852977,395.89048 C -76.852977,185.13659 94.602313,13.681303 305.3562,13.681303 C 516.09301,13.681303 687.56536,185.13659 687.56536,395.89048 C 687.56536,606.66144 516.09301,778.11672 305.3562,778.11672 L 305.3562,778.11672 z"
     id="path51868" /><circle
     style="fill:none;stroke:#eaf5fb;stroke-width:1.20000005"
     sodipodi:ry="21.568001"
     sodipodi:rx="21.568001"
     sodipodi:cy="420.16599"
     sodipodi:cx="222.327"
     cx="222.327"
     cy="420.16599"
     r="21.568001"
     id="circle51870"
     transform="matrix(17.078921,0,0,17.078921,-3491.7493,-6780.0917)" /><g
     id="g51886"
     transform="matrix(17.078921,0,0,17.078921,-3491.7493,-6780.0917)">
	<polygon
   style="fill:#ddecc9"
   points="219.16,399.51 219.864,400.47 219.99,401.387 220.085,402.712 220.824,403.75 221.77,404.557 222.367,405.652 223.216,406.521 224.286,407.146 225.034,407.965 226.109,408.207 227.173,408.268 228.246,408.074 229.151,407.48 229.982,406.949 230.872,407.123 231.667,407.816 232.256,409.033 232.81,410.199 233.289,411.125 234.295,411.494 235.181,412.078 235.467,411.35 234.257,410.889 233.607,409.813 233.333,408.825 233.005,407.852 232.623,406.909 231.63,405.992 230.456,405.312 229.24,405.647 227.912,405.633 227.718,404.443 228.323,403.527 229.356,403.218 230.455,403.326 231.531,403.077 232.618,403.148 233.867,403.291 235.087,403.821 233.994,403.129 233.157,402.225 232.095,401.648 230.938,401.27 229.934,400.577 228.762,400.273 227.601,399.986 226.45,399.664 225.296,399.277 224.082,399.311 222.881,399.217 221.683,399.311 220.493,399.494 219.16,399.51 "
   id="polygon51888" />
	<polygon
   style="fill:none;stroke:#44602d;stroke-width:0.40000001"
   points="219.16,399.51 219.864,400.47 219.99,401.387 220.085,402.712 220.824,403.75 221.77,404.557 222.367,405.652 223.216,406.521 224.286,407.146 225.034,407.965 226.109,408.207 227.173,408.268 228.246,408.074 229.151,407.48 229.982,406.949 230.872,407.123 231.667,407.816 232.256,409.033 232.81,410.199 233.289,411.125 234.295,411.494 235.181,412.078 235.467,411.35 234.257,410.889 233.607,409.813 233.333,408.825 233.005,407.852 232.623,406.909 231.63,405.992 230.456,405.312 229.24,405.647 227.912,405.633 227.718,404.443 228.323,403.527 229.356,403.218 230.455,403.326 231.531,403.077 232.618,403.148 233.867,403.291 235.087,403.821 233.994,403.129 233.157,402.225 232.095,401.648 230.938,401.27 229.934,400.577 228.762,400.273 227.601,399.986 226.45,399.664 225.296,399.277 224.082,399.311 222.881,399.217 221.683,399.311 220.493,399.494 219.16,399.51 "
   id="polygon51890" />
</g><g
     id="g51892"
     transform="matrix(17.078921,0,0,17.078921,-3491.7493,-6780.0917)">
	<polygon
   style="fill:#ddecc9"
   points="236.003,411.719 237.317,411.444 238.61,411.609 239.843,412.064 241.079,412.034 242.062,412.728 242.526,414.064 242.864,415.465 242.966,416.733 242.927,418 242.633,419.235 242.46,420.486 242.237,421.732 241.972,422.856 241.686,423.98 241.409,425.092 240.895,426.164 240.892,427.341 240.506,426.861 240.619,425.772 240.539,424.708 240.748,423.651 241.135,422.512 241.188,421.292 240.733,420.149 240.004,419.204 239.196,418.319 238.423,417.515 237.341,417.782 236.216,417.835 235.116,418.019 234.383,417.162 233.657,416.219 233.099,415.171 233.367,414.068 234.198,413.25 235.136,412.523 236.003,411.719 "
   id="polygon51894" />
	<polygon
   style="fill:none;stroke:#44602d;stroke-width:0.40000001"
   points="236.003,411.719 237.317,411.444 238.61,411.609 239.843,412.064 241.079,412.034 242.062,412.728 242.526,414.064 242.864,415.465 242.966,416.733 242.927,418 242.633,419.235 242.46,420.486 242.237,421.732 241.972,422.856 241.686,423.98 241.409,425.092 240.895,426.164 240.892,427.341 240.506,426.861 240.619,425.772 240.539,424.708 240.748,423.651 241.135,422.512 241.188,421.292 240.733,420.149 240.004,419.204 239.196,418.319 238.423,417.515 237.341,417.782 236.216,417.835 235.116,418.019 234.383,417.162 233.657,416.219 233.099,415.171 233.367,414.068 234.198,413.25 235.136,412.523 236.003,411.719 "
   id="polygon51896" />
</g><g
     id="g51898"
     transform="matrix(17.078921,0,0,17.078921,-3491.7493,-6780.0917)">
	<polygon
   style="fill:#ddecc9"
   points="203.225,428.581 203.566,427.22 204.489,427.212 205.479,427.352 206.335,427.841 207.2,428.675 208.027,429.554 208.822,430.466 209.335,431.56 208.189,431.985 206.932,431.99 205.449,432.341 204.783,431.45 204.101,430.576 203.524,429.626 203.225,428.581 "
   id="polygon51900" />
	<polygon
   style="fill:none;stroke:#44602d;stroke-width:0.40000001"
   points="203.225,428.581 203.566,427.22 204.489,427.212 205.479,427.352 206.335,427.841 207.2,428.675 208.027,429.554 208.822,430.466 209.335,431.56 208.189,431.985 206.932,431.99 205.449,432.341 204.783,431.45 204.101,430.576 203.524,429.626 203.225,428.581 "
   id="polygon51902" />
</g><g
     id="g51904"
     transform="matrix(17.078921,0,0,17.078921,-3491.7493,-6780.0917)">
	<polygon
   style="fill:#ddecc9"
   points="216.473,400.148 215.952,401.414 214.758,401.666 213.737,402.264 212.705,402.759 211.696,403.269 210.658,403.718 209.605,404.109 208.414,404.843 207.401,405.785 208.064,404.908 208.924,404.041 209.876,403.271 210.869,402.555 211.933,401.947 213.082,401.511 214.141,400.9 215.284,400.454 216.473,400.148 "
   id="polygon51906" />
	<polygon
   style="fill:none;stroke:#44602d;stroke-width:0.40000001"
   points="216.473,400.148 215.952,401.414 214.758,401.666 213.737,402.264 212.705,402.759 211.696,403.269 210.658,403.718 209.605,404.109 208.414,404.843 207.401,405.785 208.064,404.908 208.924,404.041 209.876,403.271 210.869,402.555 211.933,401.947 213.082,401.511 214.141,400.9 215.284,400.454 216.473,400.148 "
   id="polygon51908" />
</g></svg>