<?xml version="1.0" encoding="UTF-8" standalone="no"?>
<!-- Created with Inkscape (http://www.inkscape.org/) -->

<svg
   xmlns:dc="http://purl.org/dc/elements/1.1/"
   xmlns:cc="http://creativecommons.org/ns#"
   xmlns:rdf="http://www.w3.org/1999/02/22-rdf-syntax-ns#"
   xmlns:svg="http://www.w3.org/2000/svg"
   xmlns="http://www.w3.org/2000/svg"
   xmlns:xlink="http://www.w3.org/1999/xlink"
   xmlns:sodipodi="http://sodipodi.sourceforge.net/DTD/sodipodi-0.dtd"
   xmlns:inkscape="http://www.inkscape.org/namespaces/inkscape"
   width="48px"
   height="48px"
   id="svg5162"
   version="1.1"
   inkscape:version="0.48.5 r10040"
   sodipodi:docname="organic_tissue.svg">
  <defs
     id="defs5164">
    <linearGradient
       inkscape:collect="always"
       id="linearGradient7231">
      <stop
         style="stop-color:#432a01;stop-opacity:1;"
         offset="0"
         id="stop7233" />
      <stop
         style="stop-color:#432a01;stop-opacity:0;"
         offset="1"
         id="stop7235" />
    </linearGradient>
    <linearGradient
       id="linearGradient6496">
      <stop
         style="stop-color:#654200;stop-opacity:1;"
         offset="0"
         id="stop6498" />
      <stop
         style="stop-color:#000000;stop-opacity:1;"
         offset="1"
         id="stop6500" />
    </linearGradient>
    <linearGradient
       id="linearGradient6488">
      <stop
         style="stop-color:#453000;stop-opacity:1;"
         offset="0"
         id="stop6490" />
      <stop
         style="stop-color:#000000;stop-opacity:0;"
         offset="1"
         id="stop6492" />
    </linearGradient>
    <linearGradient
       id="linearGradient6470">
      <stop
         style="stop-color:#3c2501;stop-opacity:1;"
         offset="0"
         id="stop6472" />
      <stop
         style="stop-color:#000000;stop-opacity:1;"
         offset="1"
         id="stop6474" />
    </linearGradient>
    <linearGradient
       id="linearGradient6443">
      <stop
         style="stop-color:#392301;stop-opacity:1;"
         offset="0"
         id="stop6445" />
      <stop
         style="stop-color:#905903;stop-opacity:1;"
         offset="1"
         id="stop6447" />
    </linearGradient>
    <linearGradient
       inkscape:collect="always"
       xlink:href="#linearGradient6443"
       id="linearGradient6449"
       x1="0.15244545"
       y1="10.268401"
       x2="10.698336"
       y2="10.268401"
       gradientUnits="userSpaceOnUse"
       gradientTransform="matrix(0.98317514,0,0,0.98315262,0.4041923,0.38083942)" />
    <linearGradient
       inkscape:collect="always"
       xlink:href="#linearGradient6470"
       id="linearGradient6476"
       x1="7.0890589"
       y1="7.9450502"
       x2="7.6003017"
       y2="15.62221"
       gradientUnits="userSpaceOnUse"
       gradientTransform="matrix(0.98317514,0,0,0.98315262,0.4041923,0.38083942)" />
    <radialGradient
       inkscape:collect="always"
       xlink:href="#linearGradient6488"
       id="radialGradient6494"
       cx="10.101525"
       cy="6.9372993"
       fx="10.101525"
       fy="6.9372993"
       r="1.7172593"
       gradientTransform="matrix(1,0,0,1.1470589,0,-1.0201914)"
       gradientUnits="userSpaceOnUse" />
    <linearGradient
       inkscape:collect="always"
       xlink:href="#linearGradient6496"
       id="linearGradient6502"
       x1="30.52482"
       y1="14.206674"
       x2="23.47957"
       y2="54.635246"
       gradientUnits="userSpaceOnUse" />
    <linearGradient
       inkscape:collect="always"
       xlink:href="#linearGradient7231"
       id="linearGradient7237"
       x1="17.018473"
       y1="32.273109"
       x2="21.086784"
       y2="22.630253"
       gradientUnits="userSpaceOnUse" />
  </defs>
  <sodipodi:namedview
     id="base"
     pagecolor="#ffffff"
     bordercolor="#666666"
     borderopacity="1.0"
     inkscape:pageopacity="0.0"
     inkscape:pageshadow="2"
     inkscape:zoom="14"
     inkscape:cx="17.10558"
     inkscape:cy="27.106992"
     inkscape:current-layer="layer1"
     showgrid="true"
     inkscape:grid-bbox="true"
     inkscape:document-units="px"
     inkscape:window-width="2560"
     inkscape:window-height="1537"
     inkscape:window-x="-8"
     inkscape:window-y="-8"
     inkscape:window-maximized="1" />
  <metadata
     id="metadata5167">
    <rdf:RDF>
      <cc:Work
         rdf:about="">
        <dc:format>image/svg+xml</dc:format>
        <dc:type
           rdf:resource="http://purl.org/dc/dcmitype/StillImage" />
        <dc:title></dc:title>
      </cc:Work>
    </rdf:RDF>
  </metadata>
  <g
     id="layer1"
     inkscape:label="Layer 1"
     inkscape:groupmode="layer">
    <path
       sodipodi:nodetypes="csssscscsscssccssssssssssssssscssssssccsscssscscssssssscsssscsccsssscccccssc"
       inkscape:connector-curvature="0"
       id="path6224"
       d="m 6.4435039,43.507637 c -0.801443,-0.214655 -1.2030611,-0.390623 -1.3317975,-0.583523 -0.1578488,-0.236519 0.29071,-1.185308 0.8179694,-1.730167 0.5313948,-0.549133 0.5209878,-0.558075 -0.866914,-0.744585 -0.8458798,-0.11367 -1.764281,-0.596323 -1.764281,-0.927191 0,-0.307133 0.888319,-1.272474 1.4275953,-1.551373 0.2538528,-0.131279 0.8850176,-0.356138 1.4025888,-0.499672 1.6858021,-0.467506 3.6180097,-2.082507 3.8572093,-3.223977 0.045492,-0.217125 0.2231358,-0.774516 0.3947478,-1.238647 0.518583,-1.402525 1.164935,-3.729115 1.319234,-4.748689 l 0.14544,-0.961002 -0.591264,-0.712439 C 10.928835,26.194532 10.472842,25.64594 10.240709,25.36728 9.5758007,24.569098 9.3852259,23.980528 9.4006441,22.77283 L 9.4148018,21.666335 8.7801204,21.315228 C 8.0074261,20.887775 7.2545122,19.931886 6.9097156,18.940589 6.768493,18.534562 6.5095181,17.908132 6.3342256,17.548527 6.0578966,16.981655 5.9340928,16.881679 5.4033122,16.796794 4.6982147,16.684033 3.8841546,16.037043 3.6077886,15.369769 3.4308893,14.942653 3.3785619,14.919505 2.7765296,15.002031 2.2289225,15.077098 2.0606373,15.02832 1.6368633,14.6717 0.91497798,14.06421 0.70551566,13.547876 0.5994525,12.114434 0.51337384,10.950974 0.54784839,10.709669 0.98795327,9.3959476 1.6387809,7.453196 2.3832132,6.3476378 3.3019329,5.9594495 3.7811157,5.7569798 4.0706636,5.5169951 4.2067566,5.2095056 4.316829,4.9608013 4.6288808,4.6117857 4.9001942,4.4339171 5.1715091,4.2560469 5.5436498,3.8814282 5.7271746,3.6014288 5.9544206,3.2547267 6.4598271,2.8917197 7.3116368,2.4633936 8.4328577,1.8995962 8.7069352,1.826718 9.9576295,1.7598151 l 1.3952095,-0.074636 0.903387,0.6257318 c 0.496862,0.3441518 1.221751,0.7225599 1.610865,0.8409061 0.607541,0.1847782 2.841059,1.1812084 4.60793,2.0557168 1.082771,0.5359147 1.808629,2.0683721 1.643256,3.4693031 -0.08499,0.719894 -0.06405,0.7760395 0.457866,1.2274539 0.300807,0.2601772 1.105309,1.0099562 1.787784,1.6661752 0.682473,0.656219 1.383731,1.221501 1.558348,1.256183 0.174618,0.03468 0.517855,0.105866 0.762745,0.15819 0.556186,0.118826 1.264368,0.860274 1.396544,1.462137 0.05852,0.266451 0.506305,0.870039 1.07828,1.453449 0.80393,0.82 1.068264,0.998993 1.483714,1.004678 0.78987,0.01078 1.332988,0.324021 1.701075,0.980982 0.255444,0.455916 0.573644,0.719995 1.295748,1.075367 0.526436,0.259075 1.165646,0.724005 1.420465,1.033178 0.260544,0.316115 0.662732,0.605937 0.918977,0.662223 0.253681,0.05571 0.974879,0.571742 1.626958,1.164086 0.64421,0.585197 1.33824,1.105901 1.542289,1.157122 0.204051,0.05122 0.574818,0.38939 0.823925,0.751492 0.723383,1.051506 1.398732,1.655777 2.222009,1.988137 0.635184,0.256428 0.833024,0.435855 1.150618,1.043542 0.210946,0.403628 0.598343,0.862844 0.860883,1.02048 0.916658,0.550386 1.553518,1.890355 1.368138,2.878607 -0.08931,0.476104 -0.04023,0.611389 0.378618,1.043569 0.28265,0.29165 0.596208,0.869043 0.759871,1.399235 l 0.278647,0.902682 0.729245,0.08608 c 0.950696,0.112239 1.512872,0.712067 1.753408,1.870841 0.191554,0.922804 0.08153,1.399101 -0.429495,1.859456 -0.45888,0.413369 -2.914902,0.55742 -3.279914,0.192372 -0.425061,-0.425104 -0.683678,-0.296253 -0.867033,0.431979 -0.09439,0.374917 -0.171628,0.931809 -0.171628,1.237538 0,0.30573 -0.07494,0.695915 -0.166535,0.867079 -7.025746,2.99465 -15.442694,1.063474 -17.353993,-3.890311 -0.06345,-0.20074 -1.13356,-0.477585 -1.859155,-0.957997 -0.690106,-0.456917 -1.686568,-1.181022 -2.214358,-1.609125 -0.527792,-0.428103 -1.050794,-0.778369 -1.162229,-0.778369 -0.410978,0 -1.48342,1.603655 -1.48342,2.218203 0,0.129708 -0.236246,0.497342 -0.524994,0.816984 -1.646288,3.194332 -5.795267,7.822477 -9.2936114,7.350648 -0.8859764,-0.01607 -1.887015,-0.103171 -2.2245288,-0.193562 z M 45.948064,35.772175 c 0,-0.211396 -0.460505,-0.61563 -0.70133,-0.61563 -0.310057,0 -0.271771,0.254251 0.09326,0.619322 0.294265,0.294296 0.608069,0.292391 0.608064,-0.0037 z"
       style="fill:#d3bc90;fill-opacity:1" />
    <path
       inkscape:connector-curvature="0"
       id="path6222"
       d="m 7.9009535,43.456911 c -1.4107196,-0.099 -2.6080677,-0.470763 -2.6080677,-0.809787 0,-0.332747 0.3725131,-0.853516 1.0383618,-1.451615 L 7.0385212,40.560201 5.62943,40.360745 C 4.4337209,40.191492 4.1591709,40.097433 3.8163921,39.739613 L 3.4124424,39.317938 3.9307706,38.843826 c 0.6952861,-0.635976 1.6453899,-1.078944 2.3141828,-1.078944 0.4165822,0 0.8183342,-0.193576 1.6717784,-0.805516 1.328899,-0.952852 2.2122582,-2.050571 2.3516402,-2.922306 0.05463,-0.341567 0.29368,-1.075206 0.53126,-1.630309 0.369748,-0.863914 0.651285,-1.839677 1.220873,-4.231343 0.07503,-0.315027 0.216945,-0.475768 0.449687,-0.509324 0.341967,-0.04931 0.487232,-0.33455 0.170372,-0.33455 -0.252328,0 -1.364463,-0.918078 -1.364463,-1.126377 0,-0.119319 0.23394,-0.161393 0.693951,-0.124799 0.938277,0.07464 1.311683,-0.0396 2.050607,-0.627325 0.345529,-0.274824 0.835876,-0.660284 1.089659,-0.856573 0.253784,-0.196289 0.461423,-0.489726 0.461423,-0.652083 0,-0.162357 0.08819,-0.295195 0.195987,-0.295195 0.107795,0 0.343096,-0.103049 0.522893,-0.228996 0.402737,-0.282116 0.31426,-0.764134 -0.202401,-1.102699 -0.329425,-0.215871 -0.398597,-0.214627 -0.746603,0.01339 -0.210945,0.138235 -0.383538,0.379887 -0.383538,0.537011 0,0.157124 -0.171497,0.39806 -0.381104,0.535414 -0.209607,0.137358 -0.424932,0.438733 -0.4785,0.66973 -0.150118,0.647324 -0.496895,1.110439 -0.831507,1.110439 -0.314848,0 -0.418404,-0.371035 -0.149872,-0.537011 0.08439,-0.05215 0.153413,-0.264298 0.153413,-0.471433 0,-0.207132 0.08368,-0.510617 0.185963,-0.674407 0.253121,-0.405359 0.03688,-0.575589 -0.320399,-0.252223 -0.195914,0.177318 -0.417125,0.230252 -0.683157,0.163475 -0.343863,-0.08632 -0.422459,-0.02926 -0.623876,0.452843 -0.252152,0.603544 -0.483367,0.70566 -0.620363,0.273982 -0.05518,-0.173871 -0.331243,-0.331547 -0.738732,-0.421937 -0.425123,-0.09429 -0.6679354,-0.237383 -0.700562,-0.412826 -0.071457,-0.384205 0.491954,-0.347398 1.054998,0.06893 0.416221,0.307758 0.477697,0.316077 0.699136,0.09462 0.199118,-0.199139 0.209528,-0.304962 0.05788,-0.588354 -0.172194,-0.321777 -0.159036,-0.339047 0.191285,-0.251114 0.282944,0.07101 0.467674,-0.0043 0.745242,-0.303576 l 0.369047,-0.398005 -0.620625,0.102388 c -0.544552,0.08984 -0.694995,0.04354 -1.227327,-0.377736 -0.333685,-0.26407 -0.873519,-0.756648 -1.199631,-1.094619 -0.5455659,-0.565401 -0.5850335,-0.663894 -0.4940465,-1.23295 0.061311,-0.38344 0.031717,-0.699401 -0.077877,-0.831459 -0.2478939,-0.298719 -0.4460167,-0.264973 -0.4460167,0.07598 0,0.159932 -0.1370057,0.324801 -0.3068315,0.369215 -0.5811304,0.151981 -0.3796112,0.787311 0.4986011,1.571934 0.753763,0.673433 0.775907,0.712901 0.3451859,0.615232 C 8.3630806,20.898712 7.7135442,20.120871 7.0157788,18.319028 6.5988335,17.24235 5.9529738,16.59131 5.3018076,16.59131 c -0.5569691,0 -1.167263,-0.490722 -1.5545787,-1.250002 C 3.4854469,14.82812 3.3850966,14.751244 3.0994932,14.845102 2.2879632,15.111792 1.5652069,14.717286 1.0802574,13.742925 0.62232882,12.822858 0.64403093,10.517171 1.1213191,9.3800261 2.0852821,7.0833842 2.8825604,6.0045312 3.6158254,6.0045312 c 0.188459,0 0.4300611,-0.209159 0.6267878,-0.542618 C 4.4186798,5.1634727 4.7619111,4.8162841 5.0053524,4.6903835 5.2487937,4.5644768 5.6206558,4.1878956 5.8317141,3.8535239 6.1115892,3.4101291 6.4954667,3.1057057 7.249975,2.7288167 8.1584939,2.2749952 8.4836293,2.1995974 9.9194941,2.1097604 c 1.6120689,-0.100864 1.6391839,-0.096969 1.9334599,0.2771764 0.164153,0.2087081 0.774627,0.5643592 1.356609,0.7903326 0.581981,0.2259749 1.568035,0.6483289 2.191233,0.9385653 0.623197,0.2902366 1.52068,0.6710845 1.994405,0.8463304 1.174284,0.434406 1.630355,0.783634 2.125751,1.6277616 0.375912,0.6405282 0.419286,0.8568154 0.398451,1.9868498 -0.02091,1.1346352 0.0097,1.2857973 0.291268,1.4364885 0.173057,0.09263 0.615353,0.445621 0.982884,0.784432 0.779476,0.718572 0.833432,1.076681 0.302419,2.007218 -0.235864,0.413327 -0.401536,1.015388 -0.466376,1.694841 -0.114612,1.200939 -0.509196,2.098825 -1.033248,2.351135 -0.377046,0.181534 -0.412163,0.195086 -1.914633,0.738895 -0.518032,0.187498 -1.208403,0.537322 -1.534157,0.777387 -0.325752,0.240064 -0.615796,0.451288 -0.644542,0.469386 -0.02875,0.0181 -0.135621,0.400634 -0.23749,0.85008 -0.151396,0.667932 -0.23992,0.810815 -0.484691,0.782343 -0.410577,-0.04776 -0.989835,0.268393 -0.989835,0.540235 0,0.168652 0.118166,0.199762 0.48221,0.126953 0.265215,-0.05306 0.568057,-0.0252 0.672981,0.06189 0.220313,0.182863 1.657552,-0.298998 2.245577,-0.752871 0.196854,-0.15195 0.864359,-0.540537 1.483344,-0.863538 0.886014,-0.462343 1.407793,-0.893164 2.452748,-2.025177 0.730025,-0.790847 1.483669,-1.477149 1.674761,-1.525115 0.465997,-0.116964 1.267234,-1.152969 1.267234,-1.638533 0,-0.214428 -0.06917,-0.571792 -0.153688,-0.794144 -0.138515,-0.364374 -0.121139,-0.399432 0.176101,-0.355209 0.514547,0.07655 0.690272,0.482683 0.471114,1.088819 -0.102685,0.283993 -0.186695,0.761051 -0.186695,1.060132 0,0.299081 -0.125201,0.708444 -0.278226,0.909696 -0.153027,0.201252 -0.506502,0.745656 -0.785507,1.209787 -0.279004,0.46413 -0.883726,1.24103 -1.343825,1.726442 -0.870287,0.918169 -0.972675,1.297441 -0.406667,1.506396 0.245159,0.09051 0.541427,-0.0043 1.144405,-0.366264 1.018879,-0.611603 2.290576,-2.406939 2.707266,-3.82202 0.343189,-1.165472 0.693921,-1.339032 1.038621,-0.513963 0.126109,0.30185 0.324268,0.548818 0.440357,0.548818 0.116089,0 0.36826,0.127308 0.560383,0.28289 0.333154,0.269799 0.337492,0.299778 0.09372,0.647866 -0.316984,0.452602 -0.32566,0.814712 -0.02548,1.063857 0.165351,0.13725 0.230124,0.500268 0.230124,1.289771 0,0.990301 -0.05191,1.17936 -0.52596,1.91522 -0.289275,0.44905 -0.491748,0.905604 -0.449939,1.014569 0.04181,0.108961 -0.05676,0.291585 -0.219041,0.405825 -0.388254,0.273316 -0.95288,1.395694 -0.95288,1.894159 0,0.216978 -0.09793,0.432086 -0.217609,0.478019 -0.374396,0.143685 -0.600268,1.525779 -0.499668,3.057446 l 0.09271,1.411549 -0.608213,0.815273 c -0.334517,0.448399 -0.608214,0.871848 -0.608214,0.940995 0,0.24779 0.424497,0.118241 1.012539,-0.308995 0.861012,-0.625567 1.046082,-0.90406 1.020652,-1.535876 -0.0235,-0.583782 0.1852,-2.306789 0.43964,-3.629662 0.188925,-0.982249 0.982926,-2.723321 1.637371,-3.590401 0.702765,-0.9311 1.070214,-1.692232 1.319803,-2.733821 0.116905,-0.487884 0.288917,-1.080668 0.382243,-1.317297 l 0.169682,-0.430235 0.499244,0.376791 c 0.274585,0.207235 0.751374,0.480799 1.059532,0.607918 0.308159,0.127123 0.722381,0.451639 0.920496,0.721152 0.198113,0.269514 0.699684,0.66262 1.114602,0.873574 0.414917,0.210952 1.105288,0.710836 1.534156,1.110851 0.42887,0.400016 1.073171,0.889022 1.43178,1.08668 0.624295,0.344099 0.836848,0.609735 0.487889,0.609735 -0.232048,0 -1.523445,0.907388 -1.523445,1.070433 0,0.220722 0.46357,0.617314 0.721567,0.617314 0.131664,0 0.462324,-0.236387 0.734779,-0.525303 l 0.495375,-0.525306 0.519942,0.314466 c 0.965931,0.584203 0.901764,0.778245 -0.43475,1.314671 -1.045042,0.419442 -2.197808,1.218063 -2.105491,1.458659 0.04002,0.104265 -0.08352,0.332307 -0.274526,0.506743 -0.190997,0.174437 -0.796008,0.767605 -1.344469,1.318153 -0.548462,0.550548 -1.273352,1.17499 -1.610867,1.387649 -1.060959,0.668482 -1.368913,1.097955 -1.836463,2.561117 -0.244305,0.764533 -0.397466,1.436789 -0.340361,1.493899 0.155651,0.155668 0.663961,-0.362608 0.952916,-0.971599 0.281506,-0.593291 0.397108,-0.746774 1.569094,-2.083269 0.442988,-0.50517 0.805433,-0.969328 0.805433,-1.031467 0,-0.182217 2.103409,-1.694023 3.327923,-2.391914 1.131407,-0.644829 2.68496,-1.138751 3.581746,-1.138751 0.686751,0 0.498613,0.360924 -0.248572,0.476861 -0.656678,0.101896 -1.312976,0.448275 -2.928477,1.545594 -0.581614,0.395056 -1.435015,0.907156 -1.896449,1.137998 -1.045064,0.522817 -2.38899,1.502398 -2.598606,1.894111 -0.199516,0.372838 -0.204035,0.775837 -0.0087,0.775837 0.08215,0 0.927853,-0.521817 1.879343,-1.159593 0.95149,-0.637773 2.368313,-1.466303 3.148493,-1.841177 1.255023,-0.603035 1.540185,-0.681588 2.474269,-0.681588 1.073187,0 2.167142,0.320524 2.167142,0.634964 0,0.116025 -0.159387,0.130185 -0.4986,0.04428 -0.274231,-0.06945 -0.833091,-0.129185 -1.241912,-0.13274 -0.6243,-0.0054 -0.801204,0.06085 -1.104907,0.413957 -0.198877,0.231232 -0.507518,0.420423 -0.68587,0.420423 -0.455838,0 -0.917767,0.275426 -0.917767,0.547224 0,0.126261 -0.120815,0.275835 -0.268479,0.332388 -0.51051,0.195518 -1.343443,0.832888 -2.146774,1.642737 -0.792534,0.798961 -0.986326,1.160009 -0.622637,1.160009 0.20803,0 2.033846,-1.188533 2.961181,-1.92761 0.92342,-0.735955 1.518403,-0.987691 2.331973,-0.986645 0.76126,9.21e-4 1.565175,0.317339 1.779447,0.700259 0.06751,0.120657 0.218234,0.219385 0.334923,0.219385 0.219873,0 0.47963,0.571482 0.328473,0.722657 -0.04718,0.04719 -0.277862,0.01185 -0.512609,-0.07868 -0.592288,-0.228264 -1.424015,-0.381687 -1.424015,-0.262679 0,0.05435 0.202372,0.269114 0.449714,0.47726 1.178984,0.992154 2.010912,3.436315 1.512939,4.444944 -0.12377,0.250689 -0.233907,0.958523 -0.248536,1.597301 -0.02278,0.994455 -0.07646,1.197307 -0.403426,1.524307 -0.355133,0.355171 -0.612704,0.402015 -4.410841,0.802192 -2.218526,0.233748 -4.599484,0.508895 -5.291019,0.61144 -1.504047,0.223026 -3.222463,-0.0048 -3.656789,-0.484738 -0.404702,-0.447238 -0.471737,-1.579472 -0.137421,-2.320947 0.282344,-0.626189 0.282294,-0.626854 -0.06704,-0.909752 -0.19227,-0.155707 -0.569025,-0.316592 -0.837236,-0.35752 -0.26821,-0.04093 -0.729283,-0.112378 -1.024609,-0.158777 -0.753542,-0.11838 -1.525796,-0.628267 -1.7,-1.122427 C 24.836457,36.495666 24.51264,36.14 24.198033,35.935547 23.883426,35.731094 22.809852,34.9524 21.812314,34.20512 l -1.813706,-1.358697 -0.487531,0.407398 c -0.484849,0.405159 -1.331317,1.877064 -1.331317,2.315002 0,0.126154 -0.22437,0.492108 -0.498601,0.813218 -0.274231,0.321111 -0.636676,0.945524 -0.805433,1.387583 -0.217578,0.569951 -0.463022,0.903627 -0.843787,1.147113 -0.725919,0.464204 -1.777877,1.505481 -2.580001,2.553814 -0.537622,0.702642 -0.884191,0.972943 -1.840988,1.435838 -1.331816,0.644332 -1.6661578,0.693944 -3.7100459,0.550519 z M 42.190471,36.687414 c 0.208711,-0.657658 -0.367641,-1.946573 -1.145469,-2.561652 -0.283401,-0.224104 -1.371018,-0.251866 -1.693816,-0.04324 -0.170597,0.110268 -0.07739,0.149348 0.360342,0.151088 0.753099,0.0029 1.353083,0.607416 1.720428,1.733148 0.143732,0.440451 0.290721,0.852605 0.326656,0.915895 0.120969,0.213062 0.332655,0.117364 0.431859,-0.195243 z M 27.650346,32.956719 c 0.795864,-0.852163 3.399484,-5.232937 3.217972,-5.41447 -0.07107,-0.07108 -0.875493,0.933608 -0.875493,1.093454 0,0.133526 -0.737813,1.096212 -1.346075,1.75635 -0.276258,0.299818 -0.68408,0.855822 -0.906272,1.235566 -0.222189,0.379743 -0.601753,0.918969 -0.843476,1.19828 -0.775977,0.896643 -0.07549,1.018282 0.753344,0.130817 z m 1.205802,-5.521414 c 0.456415,-0.744605 0.829845,-1.393346 0.829845,-1.441646 0,-0.245528 -1.566795,1.766251 -1.986717,2.550964 -0.16106,0.30097 -0.151458,0.341514 0.07023,0.296572 0.141238,-0.02863 0.630226,-0.661284 1.086646,-1.40589 z m 5.606778,-0.797472 c 1.06178,-0.699577 1.259712,-1.043602 0.914253,-1.589071 -0.167196,-0.263996 -0.47505,-0.09128 -0.47505,0.266531 0,0.36111 -0.298786,0.635358 -0.692204,0.635358 -0.3125,0 -0.832511,0.556594 -1.03927,1.112378 -0.158519,0.426119 0.158505,0.321808 1.292271,-0.425196 z M 17.984477,23.015998 c 0.109072,-0.109084 0.332709,-0.128216 0.605993,-0.05185 0.626232,0.174988 3.283053,0.08097 3.717414,-0.131541 1.054588,-0.515972 0.58974,-1.331465 -0.758967,-1.331465 -0.459053,0 -0.828112,0.089 -0.973971,0.234873 -0.186615,0.186634 -0.480322,0.217753 -1.430054,0.151519 -0.657365,-0.04584 -1.271167,-0.0307 -1.364008,0.03363 -0.229813,0.159266 -0.521569,0.734023 -0.521569,1.027489 0,0.277789 0.471003,0.321536 0.725162,0.06736 z m 8.294126,-0.598704 c 1.123148,-1.527399 1.381046,-2.534812 0.620254,-2.422879 -0.21564,0.03173 -0.384311,0.212105 -0.476349,0.509414 -0.07837,0.253162 -0.30815,0.886336 -0.510619,1.407054 -0.202468,0.520717 -0.368123,0.986764 -0.368123,1.035663 0,0.257407 0.332452,0.01796 0.734837,-0.529252 z M 12.890822,20.574303 c 0.05426,-0.08782 0.226733,-0.119027 0.38325,-0.06934 0.320025,0.101587 0.511101,-0.169494 0.682702,-0.968546 0.09683,-0.450937 1.604163,-3.046342 2.733555,-4.706814 0.228564,-0.336042 0.411511,-0.784829 0.406548,-0.997305 -0.0087,-0.369015 -0.01721,-0.372574 -0.191769,-0.07946 -0.100515,0.168775 -0.738355,0.859218 -1.417432,1.534317 -0.679076,0.675098 -1.367667,1.434585 -1.530206,1.687747 -0.483873,0.753664 -1.454044,3.026495 -1.454044,3.406405 0,0.365193 0.214841,0.472224 0.387396,0.19299 z m 2.715787,-6.821464 c 0.678985,-0.8229 0.827501,-1.421356 0.752011,-3.030273 -0.03081,-0.656529 -0.326632,-0.496139 -0.326632,0.177093 0,0.699604 -0.638529,2.686958 -0.987062,3.072124 -0.132143,0.146039 -0.240264,0.315292 -0.240264,0.376131 0,0.187491 0.402959,-0.111517 0.801947,-0.595075 z M 44.046965,37.68882 c -0.159629,-0.120858 -0.355971,-0.241648 -0.436317,-0.268435 -0.08637,-0.02879 -0.05562,-0.360336 0.07521,-0.811049 0.199254,-0.686396 0.269471,-0.767139 0.704794,-0.810428 0.356705,-0.03546 0.483495,0.01478 0.483495,0.191789 0,0.131925 0.09509,0.23987 0.21134,0.23987 0.116229,0 0.293597,0.09912 0.394138,0.220284 0.100546,0.121151 0.379376,0.263465 0.619633,0.31624 0.439442,0.09653 0.716901,0.456943 0.469496,0.609865 -0.07314,0.04521 -0.41628,0.09329 -0.762536,0.106867 -0.346255,0.01355 -0.706075,0.116887 -0.799597,0.22958 -0.218422,0.263208 -0.592184,0.253632 -0.959659,-0.02458 z m 2.057564,-1.987241 c -0.07853,-0.206554 -0.318445,-0.49067 -0.533159,-0.631371 -0.437224,-0.286512 -0.509572,-0.64471 -0.157506,-0.779826 0.711139,-0.272915 1.91416,1.002926 1.460809,1.549236 -0.288399,0.347536 -0.607276,0.29038 -0.770144,-0.138036 z"
       style="fill:#b28f59"
       sodipodi:nodetypes="csscsscssscsssssssssssscscsscscscscccsscscccssccsssssssssssscssssssssscsssssscscscscsscsscsssssssssscccsscsscscsssssssscsssssssssscsscsssssssssssssssssssscssssssscssscssssssssssscssscssssssscccsccsccsssssssssscsssssssscsssscsssccssscscsscssscscscssscscsscssccssssss" />
    <path
       inkscape:connector-curvature="0"
       id="path6220"
       d="M 6.433414,43.223046 C 6.1747285,43.132418 5.8113634,42.954704 5.6259348,42.828123 L 5.2887919,42.597976 5.5970885,42.096572 c 0.1695625,-0.275773 0.6192249,-0.720589 0.9992486,-0.988483 0.3800237,-0.267894 0.6909536,-0.542832 0.6909536,-0.610974 0,-0.06814 -0.2588902,-0.124291 -0.5753099,-0.124784 -0.9990193,-0.0016 -2.409665,-0.292795 -2.5866257,-0.534053 -0.093682,-0.127724 -0.2490158,-0.232215 -0.3451859,-0.232215 -0.2780422,0 -0.2025321,-0.459624 0.09362,-0.569864 0.1476712,-0.05497 0.5244521,-0.303667 0.8373119,-0.55267 0.4515139,-0.359357 0.6651038,-0.433475 1.0356224,-0.359364 0.6478034,0.129571 1.0540724,-0.05884 2.3412931,-1.085839 1.5965439,-1.273785 1.8073416,-1.46821 1.8073416,-1.666943 0,-0.09749 0.1035627,-0.263215 0.2301239,-0.368269 0.126571,-0.10505 0.231762,-0.406945 0.233766,-0.670869 0.002,-0.263927 0.180403,-0.894132 0.396445,-1.400456 0.216041,-0.506324 0.525716,-1.369377 0.688162,-1.917896 0.162446,-0.548518 0.398611,-1.308003 0.524807,-1.687747 0.126202,-0.379742 0.22911,-0.850443 0.228692,-1.046002 -6.13e-4,-0.280666 0.06116,-0.335907 0.293161,-0.262264 0.161656,0.05132 0.338323,0.02144 0.392593,-0.06637 0.191637,-0.310106 0.368995,-0.150734 0.74405,0.668573 0.309472,0.67605 0.466271,0.847386 0.853273,0.932394 0.26077,0.05728 0.513512,0.167879 0.56165,0.245775 0.149842,0.242485 0.511348,0.155677 0.682337,-0.163855 0.136544,-0.255152 0.0616,-0.434377 -0.454849,-1.0878 -0.340076,-0.430274 -0.63013,-0.896944 -0.644563,-1.037044 -0.01446,-0.140099 -0.03426,-0.358375 -0.04407,-0.485058 -0.0312,-0.40311 -0.24386,-0.613543 -0.620067,-0.613543 -0.200987,0 -0.399482,-0.0551 -0.4411,-0.122443 -0.07155,-0.115795 1.83703,-1.855203 2.853931,-2.600964 0.258905,-0.189871 0.672176,-0.345221 0.918381,-0.345221 0.246206,0 0.585812,-0.07396 0.754679,-0.164336 0.228579,-0.122352 0.392608,-0.110823 0.641932,0.0451 0.234432,0.146609 0.542001,0.176305 1.025267,0.09899 0.379706,-0.06074 1.076011,-0.115563 1.547347,-0.121813 0.811547,-0.01077 0.886174,0.02117 1.407869,0.602355 0.450331,0.501692 0.652357,0.613726 1.106696,0.613726 1.059016,0 1.966742,-0.772328 3.23794,-2.75496 0.968674,-1.510797 1.067074,-1.123307 0.115135,0.453405 -0.407771,0.675403 -0.894111,1.486816 -1.080754,1.803137 -0.6656,1.128065 -1.159039,3.043913 -1.193258,4.632989 -0.03437,1.595926 -0.09555,1.780484 -0.915449,2.761955 -0.620923,0.743274 -0.675817,1.019254 -0.230824,1.160504 0.554731,0.176082 2.732981,-1.491479 2.76519,-2.116895 0.0052,-0.102541 0.0313,-0.66976 0.05781,-1.260471 0.124831,-2.781152 0.754622,-4.88121 1.900666,-6.33787 0.642141,-0.816184 1.069742,-1.724725 1.323268,-2.811614 0.323853,-1.388374 0.453026,-1.460356 1.436354,-0.800415 0.448581,0.301057 0.877612,0.710492 0.953404,0.90986 0.07579,0.199367 0.364624,0.457326 0.641849,0.573242 0.277226,0.115918 0.598723,0.387904 0.714441,0.604419 0.18792,0.351615 0.166555,0.508399 -0.200027,1.467831 -0.22573,0.590792 -0.566815,1.242941 -0.757969,1.449219 -0.191151,0.206277 -0.44089,0.609354 -0.554973,0.895725 -0.11409,0.286372 -0.495561,0.865897 -0.847724,1.287834 -0.352164,0.421937 -0.834999,1.077857 -1.072966,1.4576 -0.237966,0.379742 -0.790032,1.13923 -1.226813,1.687747 -0.436782,0.548518 -1.023653,1.342527 -1.304158,1.764463 -0.280505,0.421937 -0.809221,1.09216 -1.174926,1.489386 -0.365707,0.397225 -0.66492,0.797752 -0.66492,0.890061 0,0.09231 -0.239406,0.267873 -0.532014,0.390146 -0.459755,0.192117 -0.514723,0.2692 -0.404715,0.567539 0.137329,0.372443 0.79792,0.542005 2.197224,0.564002 0.629947,0.0099 0.804766,-0.06306 1.351468,-0.563996 0.728252,-0.667296 1.68368,-2.042746 1.68368,-2.423855 0,-0.217645 -0.08468,-0.193121 -0.498603,0.144408 -0.766159,0.624761 -1.649195,1.218798 -1.711189,1.151155 -0.03065,-0.03345 0.609343,-1.146837 1.422215,-2.474205 0.812871,-1.327366 1.677299,-2.752119 1.92095,-3.166121 0.243653,-0.413999 0.657876,-0.994592 0.920495,-1.290204 1.612436,-1.815003 2.241772,-2.72537 2.241772,-3.24284 0,-0.36362 0.517352,-1.310136 0.718387,-1.314319 0.24961,-0.0052 0.388451,0.502037 0.268382,0.980483 -0.112719,0.449159 -0.07859,0.465569 0.458919,0.220637 0.298088,-0.135835 0.439761,-0.13154 0.620882,0.0188 0.129064,0.107128 0.234667,0.252968 0.234667,0.324091 0,0.07113 -0.497462,0.454081 -1.105472,0.85102 -1.558664,1.017576 -2.382693,1.826006 -2.894222,2.839442 -0.243374,0.482171 -0.508623,0.917546 -0.589442,0.967499 -0.114675,0.07089 -0.933832,1.689421 -0.933832,1.845116 0,0.01943 0.543322,-0.500083 1.207384,-1.15447 0.664061,-0.654386 1.578802,-1.428325 2.032759,-1.719866 2.369745,-1.521905 3.321442,-2.080882 3.593249,-2.110491 1.087794,-0.118503 0.87628,0.208953 -0.585753,0.906824 -1.353849,0.646233 -3.399837,2.120337 -3.975444,2.864251 -0.191889,0.247996 -0.401929,0.473917 -0.466756,0.502045 -0.06482,0.02814 -0.11786,0.182162 -0.11786,0.342298 0,0.183451 -0.143438,0.327159 -0.387764,0.388487 -0.628697,0.15781 -1.444398,1.306236 -1.841075,2.592048 -0.422002,1.367903 -0.802903,2.028089 -1.443345,2.501636 -0.487285,0.360303 -0.610907,0.646301 -0.278271,0.643771 0.10547,-7.66e-4 0.613739,-0.269209 1.129483,-0.596462 0.705967,-0.447954 1.056921,-0.803379 1.420068,-1.438162 0.69051,-1.207011 0.852094,-1.306554 1.190593,-0.733462 0.152057,0.257439 0.336593,0.468071 0.410079,0.468071 0.233604,0 1.487806,-0.965405 1.487806,-1.145218 0,-0.398951 2.591926,-2.086046 3.924438,-2.554435 1.390412,-0.488743 1.482976,-0.270424 0.187234,0.441612 -0.649646,0.356992 -1.23646,0.737958 -1.304035,0.846591 -0.06758,0.108637 -0.779722,0.765269 -1.582554,1.459186 -1.56394,1.351772 -1.825575,1.671168 -1.999038,2.440353 -0.10921,0.484296 -0.09996,0.494659 0.523156,0.58544 0.453702,0.0661 1.00568,-0.01992 1.938373,-0.302078 2.273098,-0.68766 3.189459,-0.892228 3.569467,-0.796842 0.672153,0.168716 1.167853,0.707417 1.507046,1.637778 0.431338,1.183113 0.625388,1.344248 1.066964,0.885979 l 0.340158,-0.353019 -0.115229,0.613726 c -0.06338,0.33755 -0.101808,1.114484 -0.08542,1.726523 0.02793,1.042369 0.0017,1.140994 -0.415711,1.558372 -0.347499,0.347536 -0.628493,0.46376 -1.277063,0.528221 -0.457345,0.04545 -2.039685,0.194723 -3.516311,0.331708 -1.476626,0.136988 -3.029962,0.31872 -3.451855,0.403858 -2.461147,0.496656 -4.309891,0.421155 -4.980184,-0.203381 -0.437373,-0.407517 -0.413361,-1.409307 0.056,-2.336518 l 0.368661,-0.728274 -0.713845,-0.309292 c -0.392619,-0.17011 -1.10836,-0.366328 -1.590539,-0.436041 -0.482179,-0.06971 -0.965439,-0.177132 -1.073911,-0.238713 -0.439,-0.249228 -0.861285,-0.723502 -0.795907,-0.893897 0.03825,-0.09965 -0.315792,-0.513876 -0.786732,-0.920498 -0.470938,-0.406622 -1.034206,-1.008245 -1.251705,-1.336943 -0.496609,-0.750506 -1.281117,-1.253875 -1.764915,-1.132439 -0.26611,0.06681 -0.466801,-0.02295 -0.778176,-0.34799 l -0.419588,-0.437999 0.383603,-0.519999 c 0.21098,-0.285999 0.383603,-0.717506 0.383603,-0.958902 0,-0.241398 0.143285,-0.753464 0.318406,-1.137921 0.26977,-0.592244 0.290461,-0.766489 0.135451,-1.140737 -0.143008,-0.345269 -0.25545,-0.423518 -0.51501,-0.358364 -0.211601,0.05312 -0.545717,-0.06166 -0.921017,-0.316367 -0.446809,-0.303244 -0.741865,-0.388549 -1.222493,-0.35344 l -0.633537,0.04629 0.725761,0.335281 c 1.292952,0.597309 1.934547,1.57704 1.18795,1.814026 -0.226779,0.07199 -0.299371,0.20961 -0.268478,0.508993 0.04066,0.393987 0.01478,0.40916 -0.648029,0.380925 l -0.690372,-0.0294 0.421893,0.342034 c 0.617902,0.500935 0.541686,0.700182 -0.230124,0.601616 l -0.652015,-0.08327 0.371926,0.404731 c 0.369346,0.40192 0.340417,0.46606 -0.185739,0.411809 -0.222052,-0.02289 -0.255064,0.04742 -0.173967,0.370571 0.09833,0.39184 0.08902,0.397058 -0.531375,0.297843 -0.772771,-0.123582 -0.816528,0.03 -0.09451,0.331701 0.570351,0.238333 0.715305,0.660735 0.268477,0.782363 -0.147656,0.04019 -0.39306,0.241582 -0.545326,0.447532 -0.296309,0.400776 -0.326111,0.359698 0.433743,0.597917 0.470252,0.147425 0.40651,0.577636 -0.295041,1.991246 -0.544431,1.097022 -0.812119,1.474153 -1.131307,1.593843 -0.409283,0.153473 -0.686418,0.411258 -2.706244,2.517295 -0.546299,0.569616 -1.092208,1.035665 -1.21313,1.035665 -0.120923,0 -0.309994,0.108606 -0.420154,0.24136 -0.511057,0.61585 -1.271869,0.818269 -2.9997811,0.798113 C 7.655273,43.396549 6.6920779,43.313689 6.433394,43.223062 z M 22.866819,30.328379 c 0.122261,-0.292647 0.222294,-0.700092 0.222294,-0.905435 0,-0.263298 0.156628,-0.465773 0.531355,-0.686891 0.665524,-0.392707 1.003538,-1.171645 1.000456,-2.305487 -0.0023,-0.831623 -0.185639,-1.417072 -0.382267,-1.220425 -0.05196,0.05196 -0.13048,0.498751 -0.174479,0.992861 -0.117106,1.314961 -0.211874,1.454086 -0.450026,0.660709 -0.115228,-0.383884 -0.378953,-0.857167 -0.586043,-1.051738 -0.414306,-0.38926 -0.784182,-0.319078 -0.566193,0.107436 0.18978,0.371312 0.627197,1.927339 0.627197,2.23113 0,0.436561 -0.249037,0.280736 -0.51198,-0.320348 -0.377916,-0.863907 -0.917966,-1.816927 -1.21664,-2.146993 -0.326125,-0.360401 -0.345292,-1.009862 -0.03735,-1.265458 0.125632,-0.104281 0.190601,-0.250826 0.144362,-0.32565 -0.116275,-0.188151 -0.679628,-0.171683 -0.679628,0.01987 0,0.08575 -0.241629,0.271151 -0.536955,0.411995 -0.295326,0.140852 -0.536956,0.316993 -0.536956,0.391438 0,0.07446 -0.143946,0.08965 -0.319883,0.03381 -0.217265,-0.06897 -0.430738,0.0027 -0.665449,0.223137 l -0.345564,0.324675 -0.406981,-0.320162 c -0.22384,-0.176085 -0.476685,-0.277075 -0.561878,-0.224417 -0.584511,0.361284 0.491273,0.75485 1.723026,0.630354 1.049783,-0.106098 1.113635,-0.08175 1.596682,0.609054 0.753217,1.077168 1.408835,2.660548 1.51599,3.661258 0.05933,0.554052 0.172385,1.007365 0.25124,1.007365 0.07886,0 0.243405,-0.239438 0.365671,-0.532088 z m 6.222802,-2.79994 c 0.58114,-0.862157 1.056618,-1.633607 1.056618,-1.714334 0,-0.08073 0.163642,-0.341942 0.363648,-0.580482 0.200006,-0.238539 0.522061,-0.813452 0.715679,-1.277584 0.193618,-0.46413 0.473599,-0.981962 0.622182,-1.150737 0.373233,-0.423951 0.505675,-1.059977 0.300544,-1.443308 -0.429186,-0.802025 -1.208515,-0.02975 -1.61134,1.596741 -0.291289,1.176136 -0.559273,1.683427 -1.621061,3.068632 -1.003679,1.309393 -1.679774,2.424732 -1.855375,3.060772 -0.396809,1.437272 0.445298,0.789974 2.029105,-1.5597 z M 17.441497,27.380153 c -0.11075,-0.04431 -0.24307,-0.03886 -0.294048,0.01216 -0.05098,0.05098 0.03963,0.08724 0.201359,0.08058 0.178721,-0.0074 0.215073,-0.04371 0.09268,-0.09269 z m 1.658807,-3.577548 c 0,-0.194 -0.3135,-0.194 -0.613663,0 -0.179323,0.115902 -0.13699,0.149257 0.19177,0.151088 0.232041,0.0013 0.421893,-0.0667 0.421893,-0.151088 z m 26.732698,11.423713 c -0.565482,-0.591284 -0.627841,-0.836935 -0.212459,-0.836935 0.451044,0 1.11794,0.604279 1.064597,0.964635 -0.0711,0.480303 -0.304052,0.445392 -0.852138,-0.1277 z m -11.31,-0.06263 c -0.100962,-0.163386 1.928322,-1.746396 2.526947,-1.971224 0.210947,-0.07922 0.986805,-0.193681 1.724131,-0.254346 1.217627,-0.10017 1.390009,-0.07974 1.879343,0.222706 0.628527,0.38849 0.719795,0.676081 0.145225,0.457606 -0.216439,-0.0823 -0.628865,-0.149626 -0.916501,-0.149626 -0.569203,0 -2.383786,0.674015 -3.741299,1.389682 -0.869803,0.45855 -1.454876,0.568926 -1.617846,0.305202 z m 4.364759,-3.204982 c 0.461985,-0.375024 0.97653,-0.487693 1.51644,-0.332057 0.45266,0.130494 0.296718,0.226637 -0.592768,0.365496 -0.295326,0.0461 -0.709549,0.126907 -0.920495,0.179575 l -0.383539,0.09575 z M 34.518589,30.01195 c 1.42049,-1.193475 3.693527,-2.481444 4.105814,-2.326473 0.121108,0.04552 0.07875,0.120596 -0.116998,0.207386 -0.538964,0.238953 -1.917696,1.167898 -1.917696,1.292084 0,0.12075 -2.168069,1.215879 -2.404313,1.214461 -0.06987,-4.6e-4 0.08006,-0.174775 0.333193,-0.387458 z m -22.581917,-3.366005 -0.430447,-0.37873 0.805431,-0.0048 c 0.859904,-0.0052 0.972161,0.103557 0.524876,0.508381 -0.362203,0.327823 -0.389772,0.324 -0.89986,-0.124798 z m 11.624811,-3.352878 c -0.23834,-0.238364 -0.203792,-0.411044 0.08223,-0.411044 0.223266,0 0.221302,-0.04172 -0.01985,-0.421936 -0.147194,-0.232067 -0.448216,-0.616001 -0.668933,-0.85319 l -0.401305,-0.43125 0.382811,-0.298005 c 0.210547,-0.163904 0.520884,-0.336834 0.689642,-0.384291 0.389101,-0.109422 1.866825,-2.553472 2.293988,-3.794093 0.405149,-1.176686 0.643598,-1.270749 0.783097,-0.308912 0.140976,0.972009 0.185722,1.026783 0.611099,0.748035 0.198733,-0.130231 0.395477,-0.181528 0.437208,-0.113993 0.151057,0.244433 -0.639554,2.078706 -1.186925,2.753772 -0.308286,0.380206 -0.560521,0.791957 -0.560521,0.915003 0,0.326256 -1.033524,2.452171 -1.262534,2.596975 -0.296438,0.187441 -0.993775,0.189177 -1.180004,0.0029 z m -10.89888,-0.526118 c 0.0032,-0.147686 0.227539,-0.520268 0.498601,-0.827976 0.488757,-0.554837 0.499834,-0.558473 1.336627,-0.438756 0.740214,0.105896 0.984969,0.06499 1.993977,-0.333306 0.632604,-0.249711 1.271621,-0.563926 1.420037,-0.698255 0.383159,-0.34679 0.52953,-0.109884 0.177532,0.287352 l -0.293107,0.330769 0.757113,-0.100634 c 0.885914,-0.117764 1.41204,-0.423033 1.657449,-0.961701 0.136713,-0.300081 0.132449,-0.413404 -0.01905,-0.507048 -0.294173,-0.181826 1.946358,-2.473775 3.076413,-3.147017 0.514298,-0.306394 0.969995,-0.522171 1.012661,-0.479498 0.156007,0.156024 -1.217622,2.051166 -2.208626,3.047154 -0.930413,0.935092 -1.011387,1.067517 -0.936173,1.53104 0.08224,0.506928 0.08143,0.507667 -0.86443,0.778578 -0.520718,0.149148 -1.06211,0.2269 -1.203094,0.172794 -0.140992,-0.0541 -0.640253,-0.01867 -1.109486,0.07876 -0.7525,0.156236 -0.85315,0.221101 -0.85315,0.549832 0,0.204986 -0.06904,0.372702 -0.153412,0.372702 -0.08439,0 -0.153412,-0.172611 -0.153412,-0.383579 0,-0.479963 -0.313599,-0.497388 -1.380742,-0.07672 -0.428141,0.168775 -0.915327,0.306865 -1.082637,0.306865 -0.167311,0 -0.577606,0.172609 -0.911768,0.383578 -0.722526,0.456157 -0.768786,0.463151 -0.761319,0.115062 z m -1.230426,-1.18589 c -0.226236,-0.272623 -0.03239,-0.937319 0.515543,-1.767667 0.428586,-0.649504 0.629877,-1.274523 0.858162,-2.664651 0.165541,-1.008038 0.09424,-1.624667 -0.101362,-0.876607 -0.05147,0.196816 -0.259999,0.67711 -0.463413,1.067321 -0.203414,0.39021 -0.505703,1.121569 -0.671753,1.625243 -0.329839,1.000488 -0.676566,1.615852 -0.910451,1.615852 -0.08243,0 -0.149888,-0.111624 -0.149888,-0.248043 0,-0.170955 -0.09361,-0.223563 -0.301191,-0.169272 -0.4736053,0.123859 -0.7131048,-0.279544 -0.5004617,-0.842958 0.2284112,-0.605198 0.026546,-0.996104 -0.6632185,-1.284338 -0.6685046,-0.27935 -0.6531896,-0.284067 -0.5655842,0.174256 0.05165,0.270193 -0.03449,0.507782 -0.2781405,0.767159 -0.1941258,0.206658 -0.4030263,0.375742 -0.4642217,0.375742 -0.061193,0 -0.239015,-0.359454 -0.3951525,-0.798791 -0.3347081,-0.941793 -1.2361214,-1.962978 -1.7327476,-1.962978 -0.6302075,0 -1.3088379,-0.450332 -1.7303451,-1.148236 C 3.4691146,14.766157 3.4511201,14.756083 2.8049988,14.84244 2.2147571,14.921325 2.0972342,14.880336 1.6506269,14.439765 0.67414539,13.476487 0.50524455,11.471657 1.2243626,9.3800399 1.9529474,7.2608834 2.9245902,6.0045451 3.8349468,6.0045451 c 0.1346817,0 0.3612889,-0.2028561 0.5035704,-0.4507923 C 4.4886354,5.2921593 4.9079417,4.9574058 5.3375749,4.7561552 5.9539942,4.4674116 6.0641081,4.3542249 5.9953083,4.080076 5.8918692,3.6679054 6.3078249,3.2679068 7.4175261,2.7124134 8.1833187,2.3290735 8.2704332,2.3165152 8.7215607,2.5244199 c 0.2658824,0.1225359 0.8142601,0.2699145 1.2186194,0.327513 0.4989949,0.07108 0.9056299,0.2543824 1.2656799,0.5705421 0.609557,0.535253 0.687142,0.8097142 0.185297,0.6554893 -0.28467,-0.087488 -0.264498,-0.044483 0.115058,0.2452595 0.253136,0.1932376 0.717868,0.5943182 1.03274,0.8912888 0.711936,0.6714631 0.92758,0.5300335 0.331042,-0.2171136 -0.696468,-0.8723043 -1.013098,-1.4283581 -0.932766,-1.6380898 0.04442,-0.1159481 0.510673,0.2670393 1.165676,0.9574884 2.768265,2.9180763 3.256342,6.4693384 1.377428,10.0222224 -0.259752,0.491174 -0.430745,0.934579 -0.379985,0.985345 0.05076,0.05076 0.597136,-0.420148 1.214171,-1.046476 1.476432,-1.498664 1.636088,-1.966905 1.264894,-3.70972 C 16.025949,7.9695567 15.070843,5.8280386 13.89398,4.5469453 13.583893,4.2093952 13.230459,3.801088 13.108572,3.6395934 12.901158,3.3647842 12.90843,3.3574099 13.222061,3.5245226 c 0.184305,0.098201 0.48432,0.178552 0.6667,0.178552 0.18238,0 0.514845,0.1012796 0.738812,0.225076 0.723591,0.3999479 2.535839,1.1779929 3.254407,1.397203 1.080628,0.3296617 1.795643,1.3396846 1.940231,2.7407556 0.07341,0.7113777 0.01932,0.9591708 -0.395134,1.8099987 -0.527073,1.0820261 -0.598293,1.4985461 -0.256228,1.4985461 0.128372,0 0.302439,-0.26195 0.407824,-0.613727 0.101114,-0.337549 0.272051,-0.613726 0.379846,-0.613726 0.317941,0 1.596433,1.249366 1.596433,1.560065 0,0.307779 -0.618137,1.350112 -0.80251,1.353236 -0.06168,0.0011 -0.155457,-0.170712 -0.208401,-0.38168 -0.05294,-0.210969 -0.16052,-0.38358 -0.239056,-0.38358 -0.07854,0 -0.489617,0.362483 -0.913516,0.805517 -0.423899,0.443033 -1.146123,1.185258 -1.604942,1.649389 -0.513003,0.518939 -0.834187,0.976801 -0.834132,1.189095 1.11e-4,0.450091 0.295204,0.440617 1.194862,-0.03835 0.396262,-0.210968 0.825817,-0.383579 0.954563,-0.383579 0.128741,0 0.491741,-0.1751 0.806654,-0.389111 0.634382,-0.431118 0.702515,-0.315429 0.322094,0.546904 -0.210465,0.47708 -0.437135,0.65544 -1.419095,1.116648 -0.642743,0.301884 -1.425625,0.582772 -1.739738,0.624197 -0.65697,0.08665 -1.254343,0.479823 -1.48622,0.978203 -0.104332,0.22426 -0.296157,0.345221 -0.547444,0.345221 -0.212756,0 -0.386828,-0.0566 -0.386828,-0.125768 0,-0.193717 1.975187,-3.438805 2.310896,-3.796631 0.163444,-0.174215 0.297171,-0.461453 0.297171,-0.638307 0,-0.41 1.155811,-1.883427 1.477431,-1.883427 0.158529,0 0.210606,-0.08434 0.149842,-0.242695 -0.05122,-0.13348 -0.09313,-0.302761 -0.09313,-0.376173 0,-0.155885 -0.667995,0.117211 -1.247286,0.50994 -0.221926,0.150457 -0.628956,0.696591 -0.904516,1.213647 -0.275559,0.517055 -1.00285,1.465418 -1.616202,2.10747 -1.370963,1.435122 -2.754969,4.006747 -2.922197,5.429745 -0.104424,0.888587 -0.306858,1.082808 -0.671096,0.643882 z m 1.33042,-12.0092299 c -0.03858,-0.147671 -0.07017,-0.026844 -0.07017,0.2685062 0,0.2953567 0.03157,0.4161827 0.07017,0.2685047 0.03858,-0.1476708 0.03858,-0.3893321 0,-0.5370109 z M 10.509022,2.4944054 c 0,-0.074051 0.105608,-0.2222931 0.234665,-0.32942 0.181449,-0.1505955 0.322582,-0.154716 0.622315,-0.018131 0.213207,0.097154 0.34516,0.2453919 0.293234,0.32942 C 11.5429,2.66454 10.509022,2.6808402 10.509022,2.4944054 z"
       style="fill:#9a7647"
       sodipodi:nodetypes="cscssscsscssssccssccccscccscsscsscsccssssssssccssscsssscsssssssccssscsssscsssssscsssssscsssscssssssscsscsssscsccssssscssscsscscssssssscsccccsscsccsscssssssccccssscssssssssccscscscssssssssssssssssscccccsssssscsccsscsscsccccssccscscccscccssscssssscssssccssssccssscsccccsssssscccscssssssscsssssssssssssssscssscssssssssscsssscsscssssssssssscssssscssssscccccccsscss" />
    <path
       inkscape:connector-curvature="0"
       id="path6218"
       d="M 8.5913238,43.303596 C 7.9308571,43.237657 7.6831835,43.15297 7.7145677,43.003764 7.7682648,42.748463 7.4701044,42.36783 7.2164224,42.36783 c -0.1026851,0 -0.2647309,0.171249 -0.3600885,0.380554 -0.1782905,0.391349 -0.3204704,0.396675 -1.0648473,0.0399 -0.1898518,-0.091 -0.3451859,-0.217524 -0.3451859,-0.281178 0,-0.323924 0.9462994,-1.159915 2.0177169,-1.782516 0.6622088,-0.384807 1.2040152,-0.759376 1.2040152,-0.832375 0,-0.170447 -0.2039079,-0.170524 -0.391211,-1.52e-4 -0.080153,0.07291 -0.4774067,0.212936 -0.8827723,0.311164 -0.6693193,0.162185 -1.6586626,0.08388 -2.8160187,-0.222876 -0.2581699,-0.06843 0.01636,-1.160247 0.3537846,-1.407001 0.1580597,-0.115595 0.4632289,-0.160696 0.7381714,-0.109115 0.3408196,0.06395 0.6568176,-0.02117 1.1580718,-0.311892 1.1728266,-0.680254 1.2922271,-0.762938 1.5011538,-1.039549 0.1115345,-0.147672 0.2950577,-0.268505 0.4078142,-0.268505 0.1127504,0 0.2447465,-0.103573 0.2933174,-0.230148 0.048569,-0.126584 0.1940266,-0.230147 0.3232453,-0.230147 0.1292178,0 0.2349376,-0.103558 0.2349376,-0.230147 0,-0.131801 0.1382216,-0.230148 0.3234627,-0.230148 0.2728674,0 0.3075874,-0.06327 0.2219684,-0.404426 l -0.1015,-0.404428 0.813587,0.08891 c 0.689675,0.07538 0.73655,0.06591 0.307772,-0.06213 -0.2782,-0.08308 -0.544964,-0.253063 -0.59281,-0.377759 -0.111689,-0.291073 0.177036,-1.444992 0.631159,-2.522532 0.195606,-0.464131 0.438629,-1.154573 0.540051,-1.534317 0.101424,-0.379743 0.2791,-0.897575 0.39484,-1.150737 0.115737,-0.253162 0.230511,-0.657119 0.255045,-0.89768 l 0.04462,-0.437388 0.410789,0.324713 c 0.22593,0.17859 0.492808,0.582548 0.593058,0.897681 0.100252,0.315133 0.456626,0.858072 0.791948,1.206529 0.559696,0.581621 0.645013,0.620222 1.040681,0.47086 0.261002,-0.09853 0.399962,-0.243605 0.352305,-0.367811 -0.04328,-0.112808 0.0095,-0.418021 0.117259,-0.678248 0.184849,-0.446309 0.230975,-0.467539 0.813411,-0.374394 l 0.617452,0.09874 -0.412401,-0.324427 c -0.490804,-0.386106 -0.525474,-0.691133 -0.104193,-0.916623 0.230372,-0.123306 0.284292,-0.260294 0.213492,-0.542409 -0.0521,-0.207591 -0.0543,-0.377441 -0.0049,-0.377441 0.04941,0 0.556034,0.175494 1.125828,0.389987 1.057902,0.398235 1.732498,0.884095 1.732498,1.24779 0,0.223337 -0.190351,0.268753 -0.370651,0.08843 -0.06323,-0.06323 -0.437178,-0.191447 -0.831002,-0.284918 -0.393824,-0.09348 -0.815499,-0.197082 -0.937056,-0.230248 -0.121554,-0.03317 -0.247395,0.06032 -0.279639,0.207753 -0.03988,0.182326 0.07987,0.318574 0.374427,0.426005 0.741799,0.270553 1.419275,0.667038 1.500215,0.877984 0.06104,0.159075 -0.09035,0.179926 -0.709725,0.09776 -0.839333,-0.111345 -0.863699,-0.06049 -0.295746,0.6174 0.232336,0.277308 0.225107,0.287122 -0.138391,0.187862 -0.210947,-0.05759 -0.711466,-0.147102 -1.112265,-0.198892 -0.929413,-0.120088 -0.962233,0.129525 -0.07671,0.583414 0.358609,0.183811 0.56572,0.36358 0.460246,0.399482 -0.105471,0.03592 -0.19177,0.198433 -0.19177,0.361173 0,0.261436 -0.07592,0.284297 -0.652017,0.196327 -0.358608,-0.05476 -0.768293,-0.159145 -0.910409,-0.231961 -0.332173,-0.170201 -0.431979,-0.167045 -0.431979,0.01369 0,0.08033 0.327927,0.367698 0.728725,0.638588 0.4008,0.270892 0.758641,0.517016 0.795205,0.546941 0.190008,0.155505 -0.354466,0.398002 -0.893625,0.398002 l -0.616547,0 0.234345,0.453219 c 0.279123,0.539822 0.19693,0.829423 -0.299619,1.05569 -0.30696,0.139883 -0.473617,0.09988 -1.019313,-0.244641 -0.358794,-0.226521 -0.686914,-0.544018 -0.72915,-0.705552 -0.113304,-0.433325 -0.252111,-0.363506 -0.636238,0.320029 -0.189694,0.337549 -0.444038,0.613726 -0.565205,0.613726 -0.12117,0 -0.220308,0.10956 -0.220308,0.243474 0,0.13391 -0.207113,0.32166 -0.460248,0.417217 -0.292384,0.110377 -0.465778,0.287384 -0.475409,0.485326 -0.0084,0.17137 -0.02935,0.605021 -0.04669,0.963667 -0.02177,0.44999 0.03049,0.652085 0.168577,0.652085 0.110056,0 0.200109,-0.105728 0.200109,-0.234963 0,-0.428688 0.418637,-0.404873 1.263276,0.07187 1.623063,0.916095 2.699134,2.159837 1.212354,1.401259 -0.849698,-0.43353 -0.895405,-0.403637 -0.343702,0.224783 0.261876,0.298291 0.47614,0.576796 0.47614,0.618896 0,0.164408 -0.921998,0.966593 -1.219498,1.061027 -0.173062,0.05494 -0.314659,0.165286 -0.314659,0.245228 0,0.242546 -0.977688,0.757086 -1.265166,0.665835 -0.162783,-0.05167 -0.27034,-0.0055 -0.272405,0.116749 -0.0058,0.348919 -0.517274,0.871302 -0.9170823,0.936803 -0.2109471,0.03456 -0.7977611,0.02149 -1.3040341,-0.02906 z m 1.2231731,-3.704255 c -0.1386218,-0.224305 0.2143861,-0.607006 0.5598931,-0.607006 0.158426,0 0.288016,-0.0863 0.287973,-0.191791 -4.7e-5,-0.125152 -0.285844,-0.204133 -0.822567,-0.227316 -0.6748367,-0.02915 -0.8745058,0.02338 -1.112193,0.292591 -0.2864529,0.32445 -0.2858311,0.327155 0.055483,0.241682 0.3479336,-0.08712 0.4763019,0.09253 0.191771,0.268413 -0.3213707,0.198638 -0.1320807,0.383578 0.3925927,0.383578 0.3402149,0 0.5087085,-0.06037 0.4470477,-0.160151 z m 4.6779361,-7.34791 c 0.232247,-0.433998 0.200438,-0.526654 -0.253099,-0.737278 -0.530541,-0.246382 -0.578299,-0.177862 -0.33843,0.485558 0.224471,0.620827 0.362563,0.679593 0.591529,0.25172 z m 14.344745,9.191637 c -0.422447,-0.350638 -0.177136,-1.733598 0.425892,-2.401016 0.165909,-0.183626 0.258624,-0.403493 0.206032,-0.488596 -0.154685,-0.250311 -2.444771,-1.07775 -2.943606,-1.063568 -0.745689,0.02121 -1.412277,-0.456191 -0.996132,-0.71341 0.07646,-0.04725 0.105409,-0.214461 0.06433,-0.371565 -0.06931,-0.265088 0.03383,-0.284398 1.433498,-0.268353 1.319852,0.01508 1.600434,-0.02983 2.246888,-0.360111 1.004081,-0.51298 1.897346,-1.303759 2.246985,-1.98918 0.159681,-0.313031 0.397209,-0.65786 0.527841,-0.766286 0.201145,-0.166952 0.265359,-0.136019 0.419377,0.202055 0.336237,0.738033 1.035667,0.4446 2.481008,-1.040866 0.689809,-0.708958 1.447176,-1.309605 2.020359,-1.602292 1.01625,-0.518933 1.277012,-0.517884 0.615554,0.0025 -0.237648,0.186953 -1.016167,0.849226 -1.730043,1.471717 -0.713876,0.622492 -1.457755,1.204621 -1.653064,1.293619 -0.195308,0.089 -0.545688,0.463354 -0.778622,0.831904 -0.337321,0.533712 -0.51194,0.67009 -0.857986,0.67009 -0.482104,0 -0.716221,0.360681 -0.47863,0.737381 0.117136,0.185714 0.441568,0.231491 1.537683,0.216963 1.139821,-0.01508 1.691358,-0.116087 3.072184,-0.562532 0.925631,-0.299268 1.995058,-0.586903 2.376506,-0.639193 0.626264,-0.08586 0.744074,-0.04899 1.214475,0.379951 l 0.520935,0.475017 -0.767079,-0.09843 c -1.158194,-0.14861 -1.211744,-0.143932 -1.26484,0.110669 -0.03234,0.155057 0.361067,0.484125 1.144742,0.957532 1.279834,0.773136 2.090674,1.253 2.153298,1.274352 0.02134,0.0073 0.08193,0.519585 0.134652,1.138468 0.109456,1.284944 -0.07922,1.590564 -0.882725,1.429845 -0.276951,-0.0554 -0.441343,-0.02398 -0.441343,0.08434 0,0.09493 0.103563,0.17261 0.230124,0.17261 0.126571,0 0.230124,0.06592 0.230124,0.146486 0,0.179725 -0.590334,0.274218 -2.345153,0.375384 -2.075433,0.119658 -4.377966,0.387554 -5.479051,0.637497 -1.742909,0.432036 -3.118592,0.311703 -4.684212,-0.242934 z m 4.30834,-0.44313 c 0.08015,-0.07724 0.318338,-0.164364 0.529285,-0.193604 l 0.383538,-0.05316 -0.441705,-0.297321 -0.441705,-0.297319 -0.287019,0.354489 c -0.15786,0.194969 -0.28702,0.415887 -0.28702,0.490923 0,0.178272 0.358198,0.175636 0.544626,-0.004 z M 13.117089,38.098212 c -1.414851,-0.788917 -1.664114,-1.196599 -0.896654,-1.466528 0.359852,-0.126569 0.543299,-0.04098 1.572511,0.733714 0.750908,0.565208 1.165133,0.983029 1.165133,1.175249 0,0.45668 -0.401592,0.360167 -1.84099,-0.442435 z m 2.608068,0.505145 c 0,-0.04516 0.11115,-0.251762 0.246991,-0.45911 0.329707,-0.503245 0.180984,-0.875914 -0.301246,-0.754871 -0.659906,0.165643 -3.167476,-1.245877 -3.167476,-1.782983 0,-0.418227 0.302793,-0.368584 0.936069,0.153473 0.68117,0.561535 2.093478,1.239393 2.671528,1.28224 0.350554,0.02599 0.454834,-0.04289 0.530551,-0.350435 0.103639,-0.420982 0.617741,-0.630085 0.617741,-0.251257 0,0.127784 -0.05879,0.268685 -0.130665,0.313102 -0.07186,0.04442 -0.252886,0.410975 -0.402272,0.81457 -0.149394,0.403597 -0.379934,0.820117 -0.512325,0.9256 -0.249518,0.198807 -0.488901,0.252506 -0.488896,0.109671 z m 30.376322,-3.436472 c 0,-0.0787 -0.138068,-0.18692 -0.306832,-0.240488 -0.345344,-0.109621 -0.417113,-0.383578 -0.100484,-0.383578 0.207177,0 0.714149,0.471489 0.714149,0.664166 0,0.05664 -0.06904,0.102988 -0.153412,0.102988 -0.08439,0 -0.153411,-0.06439 -0.153421,-0.143088 z M 35.055543,34.870293 c 0,-0.167044 1.115984,-1.111779 1.610866,-1.363677 0.323593,-0.164709 2.53136,-0.428317 2.53136,-0.302245 0,0.04047 -0.431481,0.230312 -0.958848,0.42187 -0.527367,0.191558 -1.304033,0.53748 -1.725927,0.768713 -0.932982,0.511353 -1.457451,0.682405 -1.457451,0.475339 z M 29.225745,34.24738 c 0,-0.292233 0.992468,-2.006035 1.1617,-2.006035 0.104641,0 -0.127417,0.988935 -0.324117,1.381246 -0.105871,0.211169 -0.337649,0.515307 -0.515046,0.675865 -0.318634,0.288391 -0.322537,0.287771 -0.322537,-0.05108 z m -8.750022,-1.628872 c -0.162685,-0.196043 -0.140961,-0.311428 0.126816,-0.673656 0.177718,-0.240401 0.356276,-0.703563 0.39679,-1.029248 0.04053,-0.325684 0.186099,-0.858403 0.323515,-1.183822 0.228624,-0.5414 0.229332,-0.652199 0.0084,-1.304166 -0.132835,-0.391877 -0.490421,-1.074984 -0.79463,-1.518018 -0.446626,-0.650443 -0.63637,-0.805516 -0.985615,-0.805516 -0.575313,0 -0.743921,0.304197 -0.32339,0.583448 0.591398,0.392714 0.400531,0.57136 -0.548914,0.513766 -0.485293,-0.02944 -0.951386,-0.109561 -1.035766,-0.178061 -0.08439,-0.0685 -0.423441,-0.175011 -0.753472,-0.236701 -0.640864,-0.119795 -0.624185,-0.156591 -0.293822,0.648308 0.04065,0.09902 -0.06984,0.256952 -0.245508,0.350976 -0.274813,0.147085 -0.344157,0.116609 -0.496771,-0.218381 -0.23759,-0.521508 -0.422349,-0.490726 -0.538423,0.0897 l -0.09579,0.479039 -0.201762,-0.363965 c -0.110965,-0.200182 -0.204209,-0.590528 -0.207197,-0.867435 -0.003,-0.289698 -0.09811,-0.539033 -0.223698,-0.587232 -0.49357,-0.18942 -0.347538,-0.535835 0.620293,-1.471452 0.550032,-0.531725 1.150589,-1.045122 1.33457,-1.14088 0.503563,-0.262093 1.945372,-0.428015 1.945372,-0.223871 0,0.09231 -0.06904,0.167828 -0.153412,0.167828 -0.08439,0 -0.153413,0.103574 -0.153413,0.230149 0,0.151995 0.152028,0.230147 0.447701,0.230147 0.593929,0 0.933042,-0.140945 0.933042,-0.387804 0,-0.235527 0.652221,-0.403025 1.626711,-0.417757 0.606206,-0.0092 0.768005,0.06551 1.334213,0.615826 0.863556,0.839314 1.473447,0.89551 2.496395,0.230022 0.410204,-0.266863 0.764621,-0.466406 0.787591,-0.443434 0.03678,0.03679 -0.291128,0.932064 -0.765806,2.090894 l -0.157121,0.383578 -0.105148,-0.473687 c -0.240827,-1.0849 -0.605844,-1.077214 -0.83854,0.01766 l -0.15936,0.74981 -0.298094,-0.453751 c -0.163953,-0.249564 -0.289896,-0.626364 -0.27987,-0.837332 0.01001,-0.210969 -0.01691,-0.297273 -0.05987,-0.191788 -0.146332,0.359354 -0.674646,0.202292 -0.941808,-0.279993 -0.575088,-1.038171 -1.047594,-1.273505 -1.549369,-0.771678 -0.577963,0.578022 -1.144168,0.759261 -2.401855,0.768816 -1.820112,0.01385 -1.969743,0.02759 -2.178271,0.200113 -0.346912,0.28704 -0.20132,0.427961 0.44214,0.427961 0.366074,0 0.843602,0.129617 1.130209,0.306763 0.433333,0.267842 0.598869,0.287309 1.304728,0.153428 1.149,-0.217924 1.1408,-0.220441 1.625415,0.498754 0.970071,1.439642 1.432768,2.594003 1.437699,3.586857 0.0032,0.653069 -0.0656,0.998485 -0.225453,1.131164 -0.290771,0.241343 -0.295967,0.460295 -0.01092,0.460295 0.450004,0 1.299248,-0.998448 1.403423,-1.649991 0.07777,-0.486412 0.223997,-0.715647 0.649737,-1.018597 0.302159,-0.215012 0.560986,-0.375718 0.575176,-0.35713 0.01416,0.01859 0.07148,0.391949 0.127293,0.829686 0.09931,0.778786 0.08703,0.812167 -0.571763,1.554015 -0.370292,0.416975 -0.762524,0.959813 -0.871622,1.206307 -0.109103,0.246496 -0.373994,0.531069 -0.588657,0.632384 -0.565589,0.266944 -1.78322,0.235417 -2.022022,-0.05234 z m 8.050451,-0.185373 c 0.259046,-0.693235 3.006784,-5.075264 3.665462,-5.845598 0.407748,-0.476869 0.917804,-1.074167 1.133457,-1.327328 0.61067,-0.716883 1.116788,-1.576161 1.116788,-1.896059 0,-0.160121 0.103562,-0.377079 0.230124,-0.482131 0.194284,-0.161259 0.230124,-0.130293 0.230124,0.198812 0,0.547467 0.14978,0.875208 0.399952,0.875208 0.378596,0 0.222505,0.218693 -0.518972,0.727107 -1.265047,0.867416 -1.949943,1.624208 -2.842411,3.140799 -0.477775,0.811892 -0.953972,1.671896 -1.058214,1.911121 -0.330181,0.757723 -0.92712,1.641054 -1.564093,2.314491 -0.647141,0.684184 -0.961407,0.836346 -0.792217,0.383578 z m -2.08724,-0.914694 c 0.04157,-0.356117 0.199342,-0.673995 0.421118,-0.848463 0.420584,-0.330863 2.223759,-2.865708 3.516311,-4.94311 0.506271,-0.813687 1.06073,-1.665821 1.232131,-1.893634 0.408432,-0.542856 0.771996,-1.332304 0.985682,-2.14031 0.19444,-0.735243 0.414047,-0.839646 0.558169,-0.26536 0.147671,0.588437 -0.171783,1.610047 -0.855314,2.735279 -0.33915,0.558307 -0.616634,1.056517 -0.616634,1.107128 0,0.05061 -0.258889,0.407328 -0.575309,0.792702 -0.31642,0.385372 -0.851458,1.098094 -1.188973,1.583825 -1.090895,1.569954 -3.306306,4.441416 -3.426673,4.441416 -0.06435,0 -0.08708,-0.256264 -0.05051,-0.569473 z m 5.855127,-2.300244 c 0,-0.304459 2.839327,-2.627111 3.006785,-2.459638 0.04081,0.04082 -0.407148,0.431116 -0.995485,0.867312 -0.588338,0.436198 -1.091934,0.841854 -1.119105,0.901458 -0.106886,0.234476 -0.892195,0.842577 -0.892195,0.690868 z m -5.591076,-1.004431 c 0.05273,-0.443033 0.157196,-1.219781 0.232144,-1.726106 0.18341,-1.239077 1.569907,-4.065936 1.99423,-4.065936 0.07863,0 0.142978,0.103573 0.142978,0.230147 0,0.429946 0.46409,0.2325 0.721268,-0.306862 0.140838,-0.295356 0.305553,-0.537011 0.366049,-0.537011 0.176452,0 0.382715,-0.80582 0.325105,-1.2701 -0.03703,-0.298442 -0.130203,-0.413443 -0.310762,-0.38358 -0.202813,0.03354 -0.252598,-0.06793 -0.233162,-0.47524 0.01355,-0.284839 0.125017,-0.618203 0.247616,-0.740812 0.194922,-0.194945 0.278472,-0.173571 0.665656,0.170284 0.243516,0.216265 0.520489,0.458045 0.615496,0.537292 0.277878,0.231781 0.06305,0.881786 -0.474287,1.435132 -0.358855,0.36954 -0.52918,0.718854 -0.608521,1.247997 -0.06059,0.404149 -0.247335,1.0564 -0.414966,1.449448 -0.324275,0.760333 -1.546751,2.648932 -1.909553,2.95006 -0.119492,0.09919 -0.217265,0.235977 -0.217265,0.303982 0,0.151426 -1.084368,1.986821 -1.173834,1.986821 -0.03523,0 -0.02091,-0.362483 0.03181,-0.805516 z m 2.34564,-4.633331 c 0.03391,-0.174914 -0.02137,-0.24869 -0.153411,-0.20472 -0.113535,0.0378 -0.230275,0.191801 -0.259426,0.342203 -0.03391,0.174915 0.02137,0.248691 0.153412,0.20472 0.113535,-0.0378 0.230274,-0.191801 0.259425,-0.342203 z m -9.110843,4.201186 c -0.179899,-0.291114 0.08248,-0.362948 0.349669,-0.09574 0.239166,0.239192 0.239586,0.259374 0.0054,0.259374 -0.139669,0 -0.299451,-0.07364 -0.355056,-0.163636 z m 2.316244,-0.944522 c -0.131358,-0.18755 -0.238821,-0.478521 -0.238821,-0.646603 0,-0.265963 0.02738,-0.276462 0.211077,-0.08093 0.207995,0.221389 0.47557,1.068541 0.337499,1.068541 -0.03901,0 -0.178401,-0.153458 -0.309755,-0.341005 z M 12.117424,26.676548 c -0.283885,-0.158887 -0.283665,-0.165263 0.0092,-0.269651 0.326842,-0.116471 0.683566,-0.03429 0.683566,0.15748 0,0.215185 -0.394619,0.279076 -0.692832,0.112177 z m 9.397901,-1.205324 c -0.268508,-0.150288 -0.379113,-0.748026 -0.138406,-0.748026 0.129541,0 0.535699,0.76747 0.450985,0.852193 -0.02494,0.02496 -0.165615,-0.02191 -0.312579,-0.104167 z m 15.918164,0.01913 c 0.05215,-0.08439 0.19837,-0.153428 0.324938,-0.153428 0.126571,0 0.187459,0.06905 0.135313,0.153428 -0.05215,0.08439 -0.19837,0.153428 -0.324938,0.153428 -0.126572,0 -0.187458,-0.06905 -0.135313,-0.153428 z M 23.989546,22.613514 c -0.400534,-0.439765 -0.900433,-1.187844 -0.900433,-1.347467 0,-0.05086 0.141346,-0.0476 0.31412,0.0073 0.392496,0.124583 1.21311,-0.474039 1.844191,-1.34531 0.576803,-0.796336 0.605961,-1.144625 0.06623,-0.790935 -0.511566,0.335228 -0.491085,0.09511 0.07789,-0.913176 0.25379,-0.449738 0.571237,-1.187479 0.705436,-1.639427 0.186359,-0.6276 0.276315,-0.763977 0.380785,-0.57728 0.0803,0.1435 0.0793,0.55215 -0.0025,0.989547 -0.07655,0.409807 -0.109503,0.774791 -0.07322,0.811079 0.03629,0.03628 0.311798,-0.05125 0.612253,-0.194555 L 27.56062,17.352694 27.454287,17.7008 c -0.255744,0.837194 -0.579508,1.458194 -1.137368,2.181547 -0.328685,0.426193 -0.714322,1.120118 -0.856975,1.542054 -0.263898,0.780566 -0.764892,1.611031 -0.971885,1.611031 -0.06283,0 -0.287199,-0.189872 -0.498565,-0.421937 z m -4.623862,-1.380888 c -0.03277,-0.0633 0.314505,-0.470294 0.771697,-0.90445 0.6065,-0.575943 0.807388,-0.700399 0.742973,-0.460295 -0.04856,0.180994 -0.08923,0.476934 -0.09038,0.657643 -0.0016,0.239529 -0.169226,0.39544 -0.618864,0.575369 -0.70818,0.283387 -0.725466,0.286214 -0.805423,0.131733 z M 9.9367321,19.659956 C 9.975194,19.533372 10.051869,19.285308 10.107117,19.108697 10.242476,18.676003 9.7058669,18.011392 9.0929073,17.852542 8.8309328,17.784646 8.5418697,17.593931 8.4505429,17.428719 8.1252275,16.840221 7.6636223,16.698921 7.8354765,17.24044 c 0.059746,0.18824 0.2489402,0.532073 0.4204467,0.764074 0.3025513,0.409264 0.3034855,0.431042 0.031365,0.731766 C 7.8822311,19.183912 7.7726434,19.130635 7.4257523,18.31743 7.0303612,17.390529 6.301701,16.63198 5.6915595,16.512104 4.728403,16.322872 4.371605,16.086967 3.9074157,15.332485 3.547478,14.747455 3.3768151,14.59445 3.1763992,14.677116 2.6132555,14.909399 2.4378877,14.900813 1.9821723,14.618657 1.3322711,14.216263 1.027065,13.487305 0.90733664,12.05151 0.81604057,10.956699 0.84680609,10.729109 1.2082781,9.8254881 1.4297265,9.2718986 1.6109119,8.726878 1.6109119,8.6143316 c 0,-0.2635992 0.7147595,-1.5089799 1.12698,-1.9636218 C 2.9130027,6.4575784 3.3616155,6.2226669 3.7348089,6.1286864 4.164062,6.0205881 4.4398278,5.8565231 4.4854343,5.6821069 4.5868264,5.2943664 6.0633294,4.5342823 6.2206442,4.7888478 6.370424,5.0312291 6.2531489,5.3427359 5.9713992,5.4508633 5.5252105,5.6221011 5.7771966,5.8253789 6.5585705,5.9245374 7.001558,5.980749 7.4848177,6.060926 7.6324797,6.1027062 c 0.1872231,0.052963 0.2684784,-0.011082 0.2684784,-0.2116588 0,-0.1581884 0.4243205,-0.6979343 0.9429335,-1.199434 C 9.5301096,4.0280387 9.7176394,3.7662081 9.5327032,3.729886 9.3929419,3.7024421 9.0435716,3.8252396 8.7563386,4.0027757 8.4691037,4.180315 8.1763977,4.3154247 8.1058802,4.3030202 7.664264,4.2253367 7.5755474,4.3445941 7.6221281,4.9533363 7.6790881,5.6977113 7.4854302,5.8315341 6.9653335,5.4071854 L 6.5969235,5.1065946 7.1338789,4.5453122 7.6708342,3.9840283 6.960247,4.0884015 C 6.1825576,4.2026258 5.8932559,4.0121342 6.2293522,3.6071224 6.3370391,3.4773522 6.8318323,3.1658623 7.3288895,2.9149232 7.9909383,2.580687 8.2852219,2.5023215 8.4292871,2.6218976 c 0.108164,0.089781 0.6030911,0.2337986 1.0998432,0.3200509 1.0603277,0.1841086 1.5935587,0.3863536 1.5935587,0.6044093 0,0.086195 -0.138068,0.1567215 -0.306832,0.1567215 -0.168757,0 -0.306831,0.036633 -0.306831,0.081408 0,0.1117616 0.966073,0.9517965 1.87964,1.6344111 0.415945,0.3107942 0.847912,0.6904275 0.959926,0.8436336 0.112012,0.1532121 0.237645,0.244139 0.279179,0.2020787 0.151196,-0.1531043 -0.31752,-1.1957491 -0.816949,-1.8172835 -0.800593,-0.9963348 -0.444413,-0.9031269 0.516841,0.1352496 1.078936,1.1654992 1.272924,1.5404458 1.740779,3.3646312 0.313746,1.2233101 0.358402,1.6629402 0.272565,2.6834681 -0.05645,0.671264 -0.200233,1.359808 -0.319498,1.530098 -0.119261,0.170289 -0.216842,0.434069 -0.216842,0.586173 0,0.312157 -0.990198,2.347082 -1.20743,2.481354 -0.07764,0.04799 -0.18546,-0.0282 -0.239602,-0.169308 -0.08031,-0.209297 -0.163843,-0.159676 -0.453502,0.269387 -0.195285,0.28927 -0.442823,0.794251 -0.550083,1.122182 -0.107257,0.327931 -0.360109,0.839534 -0.561882,1.136895 -0.201775,0.297361 -0.410201,0.811717 -0.463172,1.143014 -0.107425,0.671921 -0.467229,0.926825 -0.705976,0.500163 -0.144686,-0.258575 -0.174591,-0.25258 -0.455537,0.09136 -0.165375,0.202461 -0.2692107,0.264543 -0.2307509,0.137958 z m 0.5842829,-2.197419 c -0.118276,-0.118287 -0.16541,-0.03279 -0.16541,0.299982 0,0.605681 0.215269,0.822457 0.280472,0.282436 0.02769,-0.229346 -0.02409,-0.491432 -0.115062,-0.582418 z m 3.586724,-3.643582 c -0.131511,-0.212816 -0.223571,-0.173134 -0.223571,0.09637 0,0.131556 0.07017,0.195835 0.155917,0.142823 0.08575,-0.05301 0.116199,-0.160646 0.06765,-0.239191 z m -0.587321,-0.107882 c 0.44069,-0.357675 0.842951,-2.194902 0.719628,-3.286716 -0.08597,-0.7610614 -0.411088,-1.6580406 -0.600981,-1.6580406 -0.07714,0 0.0093,1.1176685 0.172309,2.2247586 0.03724,0.253161 0.0028,0.563283 -0.07677,0.689159 -0.277146,0.43898 -0.490353,-0.09324 -0.608428,-1.518831 -0.06376,-0.7698073 -0.159256,-1.4429851 -0.212215,-1.495949 -0.200164,-0.200184 -0.56395,0.3119532 -0.56395,0.7939297 0,0.7217363 0.575244,2.4814203 0.845027,2.5849573 0.312447,0.119904 0.288708,0.803319 -0.0396,1.139772 -0.147656,0.151334 -0.363228,0.392982 -0.479032,0.53701 -0.186971,0.232536 -0.169787,0.261484 0.153412,0.258455 0.200182,-0.0019 0.510949,-0.122705 0.690598,-0.268505 z m 7.114044,5.342923 c 0,-0.09817 0.362445,-0.526437 0.805433,-0.951696 0.656362,-0.630091 0.81581,-0.721666 0.861501,-0.494782 0.04423,0.219628 0.216509,0.101233 0.815923,-0.560677 0.858976,-0.948555 0.939647,-0.806778 0.125216,0.220063 -0.304295,0.383658 -0.710216,0.712798 -0.936824,0.759625 -0.259783,0.05369 -0.467847,0.246769 -0.593921,0.551168 -0.106732,0.257693 -0.283587,0.468535 -0.393016,0.468535 -0.109427,0 -0.308168,0.04191 -0.441635,0.09313 -0.13559,0.05204 -0.242672,0.01431 -0.242677,-0.08537 z m -7.767956,-1.61303 c 0.136314,-1.159973 0.347405,-1.54467 1.012048,-1.844412 0.315031,-0.142069 0.876652,-0.560987 1.248047,-0.930919 0.650998,-0.648429 0.908765,-0.810564 0.902349,-0.567572 -0.0017,0.0633 -0.483087,0.632906 -1.069812,1.265811 -0.586727,0.632905 -1.27978,1.547742 -1.540118,2.032969 -0.260337,0.485227 -0.513314,0.88223 -0.562172,0.88223 -0.04886,0 -0.04451,-0.377147 0.0097,-0.838107 z m 2.244987,0.719829 c 0,-0.223649 1.233593,-2.339963 1.724227,-2.958032 0.231105,-0.291133 0.420957,-0.45148 0.421893,-0.356329 9.21e-4,0.09515 -0.101854,0.258955 -0.228422,0.364009 -0.126571,0.105051 -0.232318,0.303378 -0.235002,0.440723 -0.0027,0.137342 -0.104748,0.38171 -0.22682,0.543031 -0.128079,0.169276 -0.183868,0.445032 -0.131911,0.652085 0.04952,0.197325 0.02877,0.358771 -0.04613,0.358771 -0.07489,0 -0.393042,0.249528 -0.707002,0.554509 -0.313959,0.304979 -0.570836,0.485535 -0.570832,0.401233 z m 1.870066,-1.273127 c 0.05011,-0.150318 2.030229,-1.063499 2.30609,-1.063499 0.30896,0 0.05406,0.321297 -0.597187,0.752699 -0.704167,0.46647 -1.82897,0.671038 -1.708903,0.3108 z m 0.431171,-2.672803 c 0,-0.464864 0.59907,-1.08457 1.150333,-1.189963 0.349996,-0.0669 0.333201,-0.02134 -0.247932,0.672838 -0.790714,0.944519 -0.902401,1.008522 -0.902401,0.517125 z m 1.994405,-1.868276 c 0,-0.06208 0.119445,-0.515301 0.265447,-1.00715 0.987865,-1.5388527 0.654878,-0.166979 0.645527,0.430656 -0.40929,0.437604 -0.910974,0.755087 -0.910974,0.576494 z m -2.301236,-0.369246 c 0,-0.09046 0.180981,-0.47332 0.402178,-0.850805 0.432185,-0.737542 0.366131,-1.125963 -0.09479,-0.5574 -0.153924,0.189871 -0.34974,0.345219 -0.435143,0.345219 -0.163617,0 -0.396893,-0.635215 -0.563464,-1.5343145 C 16.292388,8.7199624 15.191626,5.9469142 14.796695,5.3040096 14.637768,5.0452958 14.367434,4.7066345 14.195954,4.5514305 13.82101,4.2120764 13.785445,3.8145729 14.136206,3.8836123 c 0.270118,0.053164 0.383117,0.2225255 0.676832,1.0144189 0.212041,0.5716903 0.785429,1.011699 0.651646,0.5000651 C 15.422363,5.2362508 15.25655,4.9850931 15.096206,4.8399663 14.935861,4.694835 14.804669,4.5177589 14.804669,4.4464508 c 0,-0.2659772 0.572059,-0.1074825 1.755351,0.486354 0.670119,0.3362956 1.365715,0.6114465 1.54577,0.6114465 0.354859,0 1.112924,0.6998875 0.942584,0.8702449 -0.05736,0.057366 0.02233,0.2475067 0.177086,0.4225417 0.389417,0.4404488 0.698986,1.5035773 0.566555,1.9456731 -0.06049,0.201951 -0.223616,0.5397935 -0.362494,0.7507628 -0.138883,0.2109676 -0.356058,0.6540102 -0.482626,0.9845382 -0.285432,0.745394 -1.84099,1.978466 -1.840996,1.459331 z M 10.815853,2.3221871 c 0,-0.084395 0.138067,-0.1534276 0.306831,-0.1534276 0.168757,0 0.306831,0.069049 0.306831,0.1534276 0,0.084395 -0.138067,0.1534278 -0.306831,0.1534278 -0.168758,0 -0.306831,-0.069049 -0.306831,-0.1534278 z"
       style="fill:#926737"
       sodipodi:nodetypes="ccsssssscsccsssscssscccscsscccscssccscsssssscccssscscsscscssssscscsssssccsssssssssscccccscssccscsssscsccccccssssssssssccscscscsccsssssccsscccsssscsssccsssscsccsccsssscsssssssscsssscscsssccsccscccccssssssscsssscsscscsssccssssccssscsscsssssscssssssscsssssssssscssssscscscsscccssscscssccccccccscsssssccscccscccsccccscssssccccccssscccsssscsssccssssssssssssccsccsscsssscccssscsssssccsssccsssscsccsssscccscscssscsssccscccsssscssscccscsssccsscscccssscsssscscsccscsssssssscssssssccscssssssss" />
    <path
       inkscape:connector-curvature="0"
       style="fill:#5b442e"
       d="M 8.4762618,43.182654 C 8.0754641,43.077896 8.1478515,42.77547 8.7447402,42.060966 9.3056772,41.3895 9.4571157,40.886793 9.0515717,41.042431 8.7100518,41.173494 8.7721645,40.784678 9.128279,40.562257 c 0.2559146,-0.159837 0.3068313,-0.153228 0.3068313,0.03981 0,0.293114 0.2144973,0.29744 0.4537343,0.009 0.1014539,-0.122259 0.4168344,-0.298991 0.7008294,-0.392729 0.350393,-0.115655 0.489103,-0.241462 0.431562,-0.391426 -0.14801,-0.385754 0.370212,-0.245049 0.939895,0.25519 0.614399,0.539508 0.680768,0.751268 0.235464,0.751268 -0.197886,0 -0.306833,0.102279 -0.306833,0.288076 0,0.524212 -0.368554,0.674948 -1.002534,0.410027 -0.313001,-0.130801 -0.593458,-0.237808 -0.623232,-0.237808 -0.02978,0 -0.20194,0.324478 -0.3825861,0.721062 -0.2578328,0.566037 -0.291361,0.780456 -0.1559513,0.997305 0.1551647,0.248484 0.1145507,0.274453 -0.4041105,0.258446 -0.317135,-0.0099 -0.6974233,-0.04937 -0.8450868,-0.08796 z"
       id="path6302" />
    <path
       inkscape:connector-curvature="0"
       style="fill:#5b442e"
       d="M 5.77,42.69277 5.4033275,42.410808 5.731647,42.082454 c 0.4287022,-0.428746 0.6904488,-0.414813 0.9391813,0.04999 0.1641883,0.306818 0.165538,0.42285 0.00708,0.613726 C 6.4249484,43.051 6.220131,43.038953 5.7699392,42.692759 z"
       id="path6300" />
    <path
       inkscape:connector-curvature="0"
       style="fill:#5b442e"
       d="m 29.695927,41.758417 c -0.811213,-0.299957 -1.076673,-0.512877 -1.081496,-0.867454 -0.0037,-0.270563 0.72994,-1.859015 0.909974,-1.970293 0.330193,-0.204092 0.138375,-0.415769 -0.720554,-0.795159 -1.074609,-0.474659 -2.354382,-1.286584 -2.262442,-1.435361 0.037,-0.05987 0.441599,-0.147501 0.899111,-0.194722 1.556708,-0.160685 3.569872,-1.496874 4.271096,-2.834841 0.315587,-0.602154 0.539134,-0.632553 0.741287,-0.100803 0.125908,0.331186 0.08671,0.474562 -0.233921,0.855644 -0.427917,0.508606 -0.469114,0.75522 -0.208787,1.249852 0.220763,0.419461 0.427661,0.55994 0.82908,0.562935 0.173299,0.0012 0.551889,0.246689 0.841313,0.545326 0.714513,0.737269 1.14179,0.678208 1.153173,-0.159399 l 0.0084,-0.613726 1.218985,-0.411195 c 1.237083,-0.417301 2.153553,-0.550281 1.992127,-0.289059 -0.04881,0.079 0.554738,0.560517 1.341226,1.070061 0.786488,0.509544 1.593794,1.100835 1.794014,1.31398 0.336717,0.358457 0.341881,0.387463 0.06881,0.386528 -0.162375,-5.55e-4 -0.502334,-0.13819 -0.75547,-0.305852 -0.253138,-0.167662 -0.610565,-0.305297 -0.794287,-0.305852 -0.18372,-6.15e-4 -0.797608,-0.242666 -1.364196,-0.538022 -0.771679,-0.402267 -1.220363,-0.53701 -1.788214,-0.53701 -0.958814,0 -0.918798,0.248422 0.120445,0.747739 1.052769,0.505816 2.438066,1.192401 3.475268,1.722423 0.481987,0.246303 1.10332,0.466231 1.380743,0.48873 0.323673,0.02624 0.504399,0.121951 0.504399,0.267114 0,0.171866 -0.165839,0.216379 -0.69037,0.185302 -0.853963,-0.05059 -1.38661,-0.25492 -2.401137,-0.921091 -0.533236,-0.350139 -0.929849,-0.50265 -1.219415,-0.468904 l -0.429145,0.05001 0.489219,0.555589 c 0.26907,0.305574 0.973142,0.809909 1.564602,1.120745 0.591458,0.310836 1.07538,0.595913 1.07538,0.633507 0,0.03758 -0.233826,0.06834 -0.519617,0.06834 -0.5432,0 -1.307595,-0.464132 -2.629577,-1.596651 -0.46834,-0.401221 -0.750539,-0.548418 -0.853668,-0.445279 -0.265705,0.265733 0.171055,0.941128 0.999764,1.546013 0.682519,0.498183 0.736017,0.574602 0.43365,0.619456 -0.426695,0.0633 -1.168519,-0.448255 -1.524826,-1.051501 -0.341098,-0.577488 -0.508199,-0.575065 -0.508199,0.0074 0,0.509095 -0.088,0.559487 -0.448166,0.256617 -0.408693,-0.343682 -1.417129,-0.539034 -2.541438,-0.492315 -0.944717,0.03925 -1.10669,0.09114 -1.365046,0.43721 -0.256343,0.343377 -0.268702,0.451678 -0.09845,0.862737 0.17006,0.410604 0.270224,0.470066 0.79182,0.470066 0.328424,0 0.732548,-0.08458 0.898053,-0.187948 0.234329,-0.146347 0.34173,-0.147132 0.485329,-0.0035 0.271519,0.27155 -0.631506,0.605368 -1.943842,0.718576 -0.857631,0.07399 -1.237284,0.03095 -1.904951,-0.215929 z"
       id="path6298" />
    <path
       inkscape:connector-curvature="0"
       style="fill:#5b442e"
       d="m 5.8298411,40.192082 c -0.9615359,-0.234125 -1.0791389,-0.28599 -0.9126528,-0.402485 0.083955,-0.05875 0.2734726,-0.296692 0.4211316,-0.528757 0.3283903,-0.516108 0.6391109,-0.537115 0.9489742,-0.06415 0.2096039,0.319929 0.3235993,0.350386 1.0774475,0.287863 0.5067131,-0.04202 0.8430433,-0.0087 0.8430433,0.08363 0,0.150195 -1.3923865,0.820524 -1.639306,0.789193 -0.068734,-0.0087 -0.401124,-0.0831 -0.7386378,-0.165279 z"
       id="path6294" />
    <path
       inkscape:connector-curvature="0"
       style="fill:#5b442e"
       d="m 11.928118,39.434978 c -0.538424,-0.344853 -0.645395,-0.596075 -0.253807,-0.596075 0.29435,0 1.135947,0.576111 1.135947,0.777605 0,0.231943 -0.348568,0.160215 -0.88214,-0.18153 z"
       id="path6292" />
    <path
       inkscape:connector-curvature="0"
       style="fill:#5b442e"
       d="M 7.0844232,39.045166 C 7.0272476,38.987985 6.9804609,38.8211 6.9804609,38.674324 c 0,-0.26579 1.1052224,-0.75601 1.7044552,-0.75601 0.1479791,0 0.4165331,-0.207133 0.5967815,-0.460295 0.3813668,-0.535636 0.6160575,-0.574635 0.9875454,-0.164103 0.257187,0.284218 0.255045,0.292799 -0.05292,0.212254 -0.1951,-0.05103 -0.320955,-0.01108 -0.320955,0.101756 0,0.102126 0.1409,0.222541 0.313105,0.267577 0.566836,0.14824 0.212762,0.426199 -0.5561046,0.436548 -0.474445,0.0063 -0.9533755,0.128601 -1.2911586,0.329466 -0.6555263,0.389826 -1.1380658,0.542381 -1.2767766,0.403654 z"
       id="path6290" />
    <path
       inkscape:connector-curvature="0"
       style="fill:#5b442e"
       d="m 13.223324,37.774322 c -0.827121,-0.385974 -1.036146,-0.623167 -0.549159,-0.623167 0.228091,0 0.565581,0.187964 0.826465,0.460296 0.505185,0.527355 0.504556,0.527723 -0.277306,0.162871 z"
       id="path6288" />
    <path
       inkscape:connector-curvature="0"
       style="fill:#5b442e"
       d="m 25.697182,37.227871 c -0.155708,-0.187637 -0.147333,-0.230146 0.04537,-0.230146 0.349288,0 0.721702,0.166819 0.721702,0.323279 0,0.223789 -0.560562,0.155729 -0.767079,-0.09313 z"
       id="path6286" />
    <path
       inkscape:connector-curvature="0"
       style="fill:#5b442e"
       d="m 12.127755,33.96745 c -0.186412,-1.249349 -0.02449,-2.838524 0.318212,-3.122966 0.115983,-0.09626 0.210875,-0.304663 0.210875,-0.463104 0,-0.355666 0.204315,-0.368686 0.538643,-0.03432 0.175932,0.175951 0.226667,0.399407 0.165472,0.728799 -0.05344,0.287599 0.0032,0.650711 0.14373,0.920229 0.275017,0.527754 0.18621,0.900811 -0.306761,1.288622 -0.198702,0.156316 -0.467246,0.537858 -0.596766,0.847876 -0.129526,0.310016 -0.264555,0.563666 -0.300075,0.563666 -0.03552,0 -0.11352,-0.327959 -0.173328,-0.728799 z"
       id="path6284" />
    <path
       inkscape:connector-curvature="0"
       style="fill:#5b442e"
       d="m 20.842201,32.167642 c 0.0545,-0.142037 0.0991,-0.287133 0.0991,-0.322426 0,-0.0353 0.108625,-0.06417 0.241371,-0.06417 0.341226,0 0.20842,0.520047 -0.150457,0.589168 -0.217579,0.04191 -0.264586,-0.0082 -0.190008,-0.202576 z"
       id="path6280" />
    <path
       inkscape:connector-curvature="0"
       style="fill:#5b442e"
       d="m 22.015205,31.844081 c 0,-0.04972 0.310666,-0.392367 0.69037,-0.761434 0.442007,-0.429627 0.69037,-0.584777 0.69037,-0.431268 0,0.27219 -0.954883,1.283104 -1.211984,1.283104 -0.09282,0 -0.168756,-0.04068 -0.168756,-0.0904 z"
       id="path6278" />
    <path
       inkscape:connector-curvature="0"
       style="fill:#5b442e"
       d="m 29.284833,31.388066 c 0.142963,-0.372576 1.892707,-3.16296 2.255074,-3.596236 0.322592,-0.38572 -0.564191,1.380894 -1.441483,2.871661 -0.447789,0.760923 -1.024666,1.274682 -0.813591,0.724575 z"
       id="path6276" />
    <path
       inkscape:connector-curvature="0"
       style="fill:#5b442e"
       d="m 21.248126,30.545979 c 0,-0.252147 0.473497,-1.104294 0.563557,-1.014225 0.120538,0.12055 -0.258213,1.175274 -0.42204,1.175274 -0.07783,0 -0.141514,-0.07247 -0.141514,-0.161049 z"
       id="path6274" />
    <path
       inkscape:connector-curvature="0"
       style="fill:#5b442e"
       d="m 29.072329,28.166919 c 0,-0.294131 2.576559,-4.057447 2.777935,-4.057447 0.281958,0 -0.3059,1.031613 -1.464488,2.569979 -1.10583,1.468317 -1.313447,1.70344 -1.313447,1.487468 z"
       id="path6272" />
    <path
       inkscape:connector-curvature="0"
       style="fill:#5b442e"
       d="m 27.082624,27.484966 c 0,-0.126584 0.06692,-0.333714 0.148717,-0.460295 0.132189,-0.204574 0.148718,-0.204574 0.148718,0 0,0.126583 -0.06691,0.333714 -0.148718,0.460295 -0.132188,0.204575 -0.148717,0.204575 -0.148717,0 z"
       id="path6270" />
    <path
       inkscape:connector-curvature="0"
       style="fill:#5b442e"
       d="m 15.065715,26.602734 c -0.05205,-0.210293 -0.0285,-1.169126 0.03397,-1.382942 0.0065,-0.02223 0.261869,0.06407 0.567497,0.191789 0.305631,0.127707 0.730555,0.232206 0.944273,0.232206 0.378864,0 0.381638,0.0077 0.110903,0.306864 -0.152719,0.168774 -0.437143,0.306863 -0.632042,0.306863 -0.197352,0 -0.427125,0.135974 -0.518576,0.306863 -0.202493,0.378401 -0.417825,0.394722 -0.506027,0.03835 z"
       id="path6268" />
    <path
       inkscape:connector-curvature="0"
       style="fill:#5b442e"
       d="m 33.748762,25.032877 c 0.328061,-0.336 0.63076,-0.57662 0.672665,-0.534711 0.100746,0.100756 -0.915904,1.145621 -1.114687,1.145621 -0.08496,0 0.113951,-0.27491 0.442022,-0.61091 z"
       id="path6266" />
    <path
       inkscape:connector-curvature="0"
       style="fill:#5b442e"
       d="m 15.571741,24.799626 c 0,-0.04237 0.256013,-0.318554 0.568919,-0.613726 0.56917,-0.536911 1.157766,-0.692342 1.363163,-0.359967 0.14901,0.241141 -0.36491,0.59045 -0.868708,0.59045 -0.226677,0 -0.498084,0.103574 -0.603127,0.230149 -0.183537,0.221171 -0.460247,0.313216 -0.460247,0.153088 z"
       id="path6260" />
    <path
       inkscape:connector-curvature="0"
       style="fill:#5b442e"
       d="m 23.891354,22.242135 c -0.228577,-0.228601 -0.248156,-0.58752 -0.03204,-0.58752 0.0861,0 0.690089,-0.535093 1.342219,-1.189094 0.65213,-0.654002 1.065695,-1.016485 0.91903,-0.805517 -0.228465,0.328637 -1.061324,1.712157 -1.477824,2.454907 -0.170149,0.303434 -0.516538,0.362086 -0.751375,0.127229 z"
       id="path6256" />
    <path
       inkscape:connector-curvature="0"
       style="fill:#5b442e"
       d="m 12.97355,17.588629 c -0.01982,-0.74507 0.313414,-1.442745 0.84651,-1.772251 0.29727,-0.183743 0.566304,-0.308267 0.597847,-0.276719 0.03155,0.03155 -0.196455,0.443648 -0.50667,0.915778 -0.310213,0.472129 -0.646261,0.989286 -0.746771,1.149237 -0.177483,0.282438 -0.182984,0.281975 -0.190916,-0.01603 z"
       id="path6250" />
    <path
       inkscape:connector-curvature="0"
       style="fill:#5b442e"
       d="m 14.099222,13.155166 c -0.04928,-0.128447 -0.01062,-0.472671 0.08574,-0.764937 0.273923,-0.830093 0.23238,-2.82669 -0.07474,-3.5916304 -0.170803,-0.4254293 -0.23225,-0.8553238 -0.173768,-1.2157434 0.04976,-0.3066706 0.02148,-0.8654533 -0.06283,-1.2417374 -0.08433,-0.3762857 -0.117922,-0.7195493 -0.07466,-0.7628101 0.156332,-0.1563475 0.849311,1.5907007 0.850773,2.1448566 7.66e-4,0.3123349 0.105056,0.9655015 0.231622,1.4514783 0.324071,1.2443194 0.29565,2.3857134 -0.07671,3.0805234 -0.168757,0.314896 -0.306831,0.655792 -0.306831,0.757547 0,0.293056 -0.299724,0.40017 -0.398609,0.142453 z"
       id="path6246" />
    <path
       inkscape:connector-curvature="0"
       style="fill:#5b442e"
       d="M 16.724213,9.8019707 C 16.688338,9.6964891 16.514291,9.195916 16.337442,8.6895924 c -0.6806,-1.948573 -0.72697,-2.1590804 -0.650628,-2.953675 0.06514,-0.6780047 0.126032,-0.8053998 0.384932,-0.8053998 0.169153,0 0.540401,0.2469172 0.824994,0.5487039 0.438942,0.4654624 0.602584,0.5413666 1.078696,0.5003438 0.51426,-0.044314 0.562755,-0.01416 0.579166,0.3608414 0.0099,0.2250606 0.136668,0.5404354 0.281807,0.7008326 0.370524,0.4094661 0.328187,1.0194781 -0.105779,1.5240363 L 18.360964,8.9950824 18.20225,8.612189 C 17.561271,7.0658496 17.397477,6.7358015 17.312985,6.8203022 c -0.11452,0.1145321 0.21384,1.3876692 0.512518,1.9871115 0.197866,0.3971125 0.183865,0.4490945 -0.21565,0.8006667 -0.473423,0.4166116 -0.786587,0.4851706 -0.885647,0.1938903 z"
       id="path6240" />
    <path
       inkscape:connector-curvature="0"
       style="fill:#5b442e"
       d="m 18.415003,9.571823 c -0.0752,-0.1932962 0.05627,-0.4081795 0.469395,-0.7671584 0.631155,-0.5484392 0.829568,-0.6139354 0.829568,-0.273844 0,0.2428244 -0.874348,1.3095085 -1.073387,1.3095085 -0.06661,0 -0.16812,-0.1208274 -0.225576,-0.2685061 z"
       id="path6238" />
    <path
       style="color:#000000;fill:none;stroke:#432a01;stroke-width:1;stroke-linecap:butt;stroke-linejoin:miter;stroke-miterlimit:4;stroke-opacity:1;stroke-dasharray:none;stroke-dashoffset:0;marker:none;visibility:visible;display:inline;overflow:visible;enable-background:accumulate"
       d="m 11.851197,27.749012 c -0.471206,1.415553 -1.075614,2.716623 -0.858822,4.055008 -0.338332,0.750802 -1.1609478,0.671319 -0.855067,2.526597 -0.3919784,0.269541 -0.8245263,0.468076 -0.8162018,1.438217 -0.4145784,0.266046 -0.8291563,-0.109438 -1.2437346,0.894027 -0.6638279,0.05241 -1.3264785,0.10953 -1.7878683,0.971768 -2.4066161,0.05266 -2.7160593,0.992655 -2.4486044,2.17676 0.4364666,0.465564 0.9639783,0.657962 1.7101359,0.194354 0.2442926,0.340781 0.5667685,0.473051 0.9225398,0.516523"
       id="path6190"
       inkscape:connector-curvature="0"
       sodipodi:nodetypes="ccccccccc" />
    <path
       style="fill:none;stroke:url(#linearGradient6502);stroke-width:1;stroke-linecap:butt;stroke-linejoin:miter;stroke-miterlimit:4;stroke-opacity:1;stroke-dasharray:none"
       d="M 14.573479,31.071132 C 13.838178,30.493359 13.14919,29.517268 12.544525,27.815915 12.065518,27.873528 11.958022,27.559584 11.994869,27.101285 11.048957,26.926667 10.628959,26.357572 10.51079,25.562083 9.867318,25.100556 9.2906209,24.553453 9.301542,23.25328 8.9539758,22.648593 8.7878772,22.043907 9.4664382,21.43922 7.2626359,21.449996 7.4679981,18.55232 6.2206926,16.711671 L 4.0248208,5.772343 C 4.2648315,4.9218061 4.703856,4.2371304 5.5638643,3.9033114 5.8964562,3.0817792 6.6215135,2.8273753 7.3777378,2.63896 7.8164129,1.7023424 8.81142,1.8785012 9.6313363,1.7044448 10.945769,1.2721299 11.97298,1.8451894 12.874321,2.8588458 c 1.253655,-0.08541 2.058564,0.3527774 2.693325,0.9894884 2.648891,1.864751 5.103697,1.0934014 4.452233,5.9369211 1.259009,0.1186414 1.868977,0.8142717 2.198635,1.7590897 0.394703,0.147655 0.892793,-0.16998 1.099315,0.824572 0.296268,0.08987 0.713912,-0.245117 0.824489,0.494743 1.547871,-0.02694 2.090109,0.824523 2.033735,2.19886 0.622299,0.442366 1.279937,0.743355 1.703942,1.978974 1.829938,-0.513107 2.344595,0.47712 2.748291,1.594173 1.335613,0.05138 2.235458,0.68385 2.638361,1.978975 1.248489,-0.164366 1.931425,0.350002 2.143667,1.429259 0.840472,-0.04022 0.903637,0.47485 1.044352,0.934516 0.767164,-0.08407 1.500622,-0.06028 1.758907,1.484231 l 1.209248,0.824572 c 1.004199,0.193485 1.753566,0.751056 2.033736,1.978974 1.622765,0.834104 2.572328,1.913036 1.923805,3.573148 2.201326,2.304278 2.119604,3.947606 0.384761,5.11235 -0.110242,1.013678 -0.446817,1.851303 -1.484078,2.143896 0.219029,1.190572 0.675602,2.516898 -0.494693,2.913489 l -8.519705,0.439771 c -0.483329,0.508949 -0.862483,1.148129 -2.143668,0.659658 -1.112926,0.233499 -1.45963,-0.299306 -1.758906,-0.879543 -0.741442,0.283422 -0.788877,-0.127234 -0.934419,-0.439772 0.03364,-1.19596 0.511439,-2.003253 1.374145,-2.473712 -1.823476,0.212637 -3.374948,-0.753524 -4.891959,-1.869038 -1.879444,-0.791372 -3.823692,-1.443866 -5.001891,-3.738061"
       id="path6145"
       inkscape:connector-curvature="0"
       sodipodi:nodetypes="ccccccccccccccccccccccccccccccccccccc" />
    <path
       style="color:#000000;fill:none;stroke:url(#linearGradient7237);stroke-width:1;stroke-linecap:butt;stroke-linejoin:miter;stroke-miterlimit:4;stroke-opacity:1;stroke-dasharray:none;stroke-dashoffset:0;marker:none;visibility:visible;display:inline;overflow:visible;enable-background:accumulate"
       d="m 15.462049,25.895669 c -0.458884,0.570348 -0.226868,2.107698 0.466399,2.993047 -0.439211,0.578391 -0.9523,1.127224 -0.893933,1.904666 -0.58935,0.661821 -1.376967,1.182005 -1.282602,2.332243 -0.880573,0.64157 -1.699423,1.314004 -1.360336,2.565468 -1.018601,0.559593 -1.314667,1.480489 -1.515802,2.448855 -0.772411,0.344782 -1.7176714,0.487889 -1.9044687,1.515959 -2.8318828,0.289798 -3.0715427,1.616594 -3.3814045,2.915304 0.3247751,0.926079 1.2507483,0.993215 2.2931364,0.894026 1.0105343,0.731986 2.0210702,0.497868 3.0316048,-0.427578 1.050721,-0.09486 1.422614,-1.047404 2.604069,-1.243863 0.604528,-0.558101 1.291205,-1.001184 1.399201,-2.254502 0.528411,0.299263 0.745921,-0.230625 0.971669,-0.738543 0.902092,-0.511765 1.337818,-1.29005 1.515802,-2.215632 0.496529,-0.407906 1.162921,-0.694469 0.971669,-1.593699 0.647778,-0.310965 0.9328,-0.88107 0.855067,-1.710312 0.971288,-0.194734 1.389925,-0.942175 1.749002,-1.749182 0,0 -0.113997,-0.93333 0.03887,-1.360476 0.171146,-0.478264 0.8314,-0.969345 0.583001,-1.710312 -0.237257,-0.707733 -0.640337,-1.893243 -1.243734,-2.487726 -0.401334,-0.395403 -1.080291,0.08183 -1.632404,0 -0.4103,-0.06082 -0.809532,-0.41867 -1.204868,-0.54419 -0.61852,-0.196382 -1.740411,0.06932 -2.05993,0.466447 z"
       id="path6174"
       inkscape:connector-curvature="0"
       sodipodi:nodetypes="sccccccccccccccccssssss" />
    <path
       sodipodi:type="arc"
       style="color:#000000;fill:url(#radialGradient6494);stroke:none;stroke-width:10.50000000000000000;marker:none;visibility:visible;display:inline;overflow:visible;enable-background:accumulate;fill-opacity:1"
       id="path6478"
       sodipodi:cx="10.101525"
       sodipodi:cy="6.9372993"
       sodipodi:rx="1.7172593"
       sodipodi:ry="1.9697975"
       d="m 11.818785,6.9372993 a 1.7172593,1.9697975 0 1 1 -3.434519,0 1.7172593,1.9697975 0 1 1 3.434519,0 z"
       transform="matrix(1.136807,-0.61839338,0.73515297,1.3514489,-5.5727981,4.3641943)" />
    <path
       sodipodi:type="arc"
       style="color:#000000;fill:#000000;fill-opacity:1;fill-rule:nonzero;stroke:none;stroke-width:1;marker:none;visibility:visible;display:inline;overflow:visible;enable-background:accumulate"
       id="path6441"
       sodipodi:cx="9.6071424"
       sodipodi:cy="5.9642859"
       sodipodi:rx="0.60714287"
       sodipodi:ry="0.60714287"
       d="m 10.214285,5.9642859 a 0.60714287,0.60714287 0 1 1 -1.2142854,0 0.60714287,0.60714287 0 1 1 1.2142854,0 z"
       transform="matrix(1.2145105,0,0,1.2144826,-1.186238,-0.15617677)" />
    <path
       style="color:#000000;fill:#443112;fill-opacity:1;stroke:#000000;stroke-width:0.5;stroke-linecap:butt;stroke-linejoin:miter;stroke-miterlimit:4;stroke-opacity:1;stroke-dasharray:none;stroke-dashoffset:0;marker:none;visibility:visible;display:inline;overflow:visible;enable-background:accumulate"
       d="m 1.8198301,13.49591 1.4769354,0.971767 c 1.2024639,2.51257 2.6897909,2.081254 4.1976056,1.438219 L 6.7170373,10.580605 1.8586971,10.736088 z"
       id="path6182"
       inkscape:connector-curvature="0"
       sodipodi:nodetypes="cccccc" />
    <path
       style="color:#000000;fill:url(#linearGradient6449);fill-opacity:1;stroke:url(#linearGradient6476);stroke-width:1;stroke-linecap:butt;stroke-linejoin:miter;stroke-miterlimit:4;stroke-opacity:1;stroke-dasharray:none;stroke-dashoffset:0;marker:none;visibility:visible;display:inline;overflow:visible;enable-background:accumulate"
       d="M 3.9574999,5.8383778 C 2.0458063,6.4495011 1.5924041,7.6075413 1.3145638,8.8314225 0.64240643,10.399209 0.47103399,11.966994 0.73156174,13.53478 1.5866296,14.687269 2.4416975,15.276248 3.2967655,14.467677 2.4278477,13.607794 2.2774893,12.71009 3.3745022,11.746727 c 0.594017,1.495656 2.8500316,2.142338 3.6146038,3.265141 0,0 2.4517657,0.494405 3.264805,-0.233227 0.746083,-0.66771 0.630044,-1.956575 0.544134,-2.954175 C 10.689004,10.558318 10.1336,9.336133 9.4765757,8.2483589 8.9358422,7.3531143 8.1338792,6.5079399 7.1834397,6.0715977 6.1470356,5.5957919 3.9574999,5.8383778 3.9574999,5.8383778 z"
       id="path6147"
       inkscape:connector-curvature="0"
       sodipodi:nodetypes="ccccccssssc" />
    <path
       style="color:#000000;fill:#000000;stroke:#000000;stroke-width:0.09999999;stroke-linecap:butt;stroke-linejoin:miter;stroke-miterlimit:4;stroke-opacity:1;stroke-dasharray:none;stroke-dashoffset:0;marker:none;visibility:visible;display:inline;overflow:visible;enable-background:accumulate"
       d="M 1.7032306,7.898526 C 1.9172592,7.1915627 2.7139897,6.5156683 3.452232,6.5380499 4.3147196,6.5642009 5.086967,7.3891116 5.2012349,8.0540085 5.2829118,8.5292386 4.5042282,8.9821612 4.1518334,8.9869066 3.8140242,8.9915242 3.6076984,8.1317505 3.6076984,8.1317505 L 3.102432,9.6865785 2.7526321,8.2094909 c 0,0 -0.428713,0.7091967 -0.7384685,0.6219316 C 1.6986889,8.742549 1.6082532,8.2122477 1.7032306,7.898526 z"
       id="path6166"
       inkscape:connector-curvature="0"
       sodipodi:nodetypes="sssscccss" />
    <path
       style="color:#000000;fill:none;stroke:#000000;stroke-width:0.5;stroke-linecap:butt;stroke-linejoin:miter;stroke-miterlimit:4;stroke-opacity:1;stroke-dasharray:none;stroke-dashoffset:0;marker:none;visibility:visible;display:inline;overflow:visible;enable-background:accumulate"
       d="m 44.61196,35.212532 1.369423,0.66714 -0.807609,-0.842703 0.316021,-0.983152 c 0,0 1.010939,0.145025 1.33431,0.491576 0.59888,0.641809 1.083792,1.721532 0.737381,2.528107 -0.342914,0.798433 -1.455796,1.081551 -2.317484,1.193828 -0.594195,0.07742 -2.071691,-0.561801 -2.071691,-0.561801 l 0.561815,-1.825855 z"
       id="path6451"
       inkscape:connector-curvature="0"
       sodipodi:nodetypes="ccccsssccc" />
    <path
       transform="matrix(0.46581304,0,0,0.46580233,5.7035594,4.0061206)"
       d="m 10.214285,5.9642859 a 0.60714287,0.60714287 0 1 1 -1.2142854,0 0.60714287,0.60714287 0 1 1 1.2142854,0 z"
       sodipodi:ry="0.60714287"
       sodipodi:rx="0.60714287"
       sodipodi:cy="5.9642859"
       sodipodi:cx="9.6071424"
       id="path7239"
       style="color:#000000;fill:#ffffff;fill-opacity:1;fill-rule:nonzero;stroke:none;stroke-width:1;marker:none;visibility:visible;display:inline;overflow:visible;enable-background:accumulate"
       sodipodi:type="arc" />
  </g>
  <g
     inkscape:groupmode="layer"
     id="layer2"
     inkscape:label="folds" />
</svg>
