<?xml version="1.0" encoding="UTF-8" standalone="no"?>
<!-- Created with Inkscape (http://www.inkscape.org/) -->

<svg
   xmlns:dc="http://purl.org/dc/elements/1.1/"
   xmlns:cc="http://creativecommons.org/ns#"
   xmlns:rdf="http://www.w3.org/1999/02/22-rdf-syntax-ns#"
   xmlns:svg="http://www.w3.org/2000/svg"
   xmlns="http://www.w3.org/2000/svg"
   xmlns:xlink="http://www.w3.org/1999/xlink"
   xmlns:sodipodi="http://sodipodi.sourceforge.net/DTD/sodipodi-0.dtd"
   xmlns:inkscape="http://www.inkscape.org/namespaces/inkscape"
   width="48px"
   height="48px"
   id="svg16084"
   version="1.1"
   inkscape:version="0.48.5 r10040"
   sodipodi:docname="New document 16">
  <defs
     id="defs16086">
    <linearGradient
       id="linearGradient16823">
      <stop
         style="stop-color:#ff3030;stop-opacity:1;"
         offset="0"
         id="stop16825" />
      <stop
         id="stop16831"
         offset="0.5"
         style="stop-color:#fffb59;stop-opacity:1;" />
      <stop
         style="stop-color:#8ce191;stop-opacity:1;"
         offset="0.75"
         id="stop16833" />
      <stop
         style="stop-color:#c3c6bf;stop-opacity:1;"
         offset="1"
         id="stop16827" />
    </linearGradient>
    <linearGradient
       inkscape:collect="always"
       xlink:href="#linearGradient6951"
       id="linearGradient4924"
       gradientUnits="userSpaceOnUse"
       gradientTransform="translate(-3.90695,-1.802856)"
       x1="28.058632"
       y1="18.867767"
       x2="33.436985"
       y2="23.742767" />
    <linearGradient
       id="linearGradient6951">
      <stop
         style="stop-color:#6e3d09;stop-opacity:1;"
         offset="0"
         id="stop6953" />
      <stop
         id="stop6959"
         offset="0.24242425"
         style="stop-color:#ea8113;stop-opacity:1;" />
      <stop
         style="stop-color:#5c3307;stop-opacity:1;"
         offset="0.62121212"
         id="stop6961" />
      <stop
         style="stop-color:#e07c12;stop-opacity:1;"
         offset="1"
         id="stop6955" />
    </linearGradient>
    <linearGradient
       inkscape:collect="always"
       xlink:href="#linearGradient6939"
       id="linearGradient4926"
       gradientUnits="userSpaceOnUse"
       gradientTransform="translate(-3.90695,-1.802856)"
       x1="19.394735"
       y1="30.001331"
       x2="23.109331"
       y2="33.438831" />
    <linearGradient
       id="linearGradient6939">
      <stop
         style="stop-color:#bdbdbd;stop-opacity:1;"
         offset="0"
         id="stop6941" />
      <stop
         id="stop6947"
         offset="0.33333334"
         style="stop-color:#e2e2e2;stop-opacity:1;" />
      <stop
         style="stop-color:#a3a3a3;stop-opacity:1;"
         offset="0.66666669"
         id="stop6949" />
      <stop
         style="stop-color:#dddddd;stop-opacity:1;"
         offset="1"
         id="stop6943" />
    </linearGradient>
    <radialGradient
       inkscape:collect="always"
       xlink:href="#linearGradient6963"
       id="radialGradient4928"
       gradientUnits="userSpaceOnUse"
       gradientTransform="matrix(0.994655,0,0,0.969322,-4.583017,0.165919)"
       cx="15.415101"
       cy="35.356506"
       fx="15.415101"
       fy="35.356506"
       r="7.5791559" />
    <linearGradient
       id="linearGradient6963">
      <stop
         style="stop-color:#696969;stop-opacity:1;"
         offset="0"
         id="stop6965" />
      <stop
         style="stop-color:#000000;stop-opacity:1;"
         offset="1"
         id="stop6967" />
    </linearGradient>
    <linearGradient
       inkscape:collect="always"
       xlink:href="#linearGradient2446"
       id="linearGradient4930"
       gradientUnits="userSpaceOnUse"
       gradientTransform="matrix(0.852298,0,0,0.852298,-1.675107,3.753977)"
       x1="13.236155"
       y1="37.752247"
       x2="7.7521091"
       y2="42.282146" />
    <linearGradient
       inkscape:collect="always"
       id="linearGradient2446">
      <stop
         style="stop-color:#ffffff;stop-opacity:1;"
         offset="0"
         id="stop2448" />
      <stop
         style="stop-color:#ffffff;stop-opacity:0;"
         offset="1"
         id="stop2450" />
    </linearGradient>
    <radialGradient
       inkscape:collect="always"
       xlink:href="#linearGradient16823"
       id="radialGradient16829"
       cx="-32.674866"
       cy="18.567417"
       fx="-32.674866"
       fy="18.567417"
       r="21.444722"
       gradientTransform="matrix(-0.83043231,-0.29844405,0.24515616,-0.68215666,-9.3077328,28.552751)"
       gradientUnits="userSpaceOnUse" />
    <radialGradient
       inkscape:collect="always"
       xlink:href="#linearGradient16823"
       id="radialGradient16841"
       cx="21.974386"
       cy="25.7395"
       fx="21.974386"
       fy="25.7395"
       r="21.444721"
       gradientTransform="matrix(0.70584995,0.21430236,-0.18652291,0.6143525,11.264773,5.2172124)"
       gradientUnits="userSpaceOnUse" />
  </defs>
  <sodipodi:namedview
     id="base"
     pagecolor="#ffffff"
     bordercolor="#666666"
     borderopacity="1.0"
     inkscape:pageopacity="0.0"
     inkscape:pageshadow="2"
     inkscape:zoom="9.8994949"
     inkscape:cx="6.244322"
     inkscape:cy="26.220233"
     inkscape:current-layer="layer1"
     showgrid="true"
     inkscape:grid-bbox="true"
     inkscape:document-units="px"
     inkscape:window-width="2560"
     inkscape:window-height="1537"
     inkscape:window-x="-8"
     inkscape:window-y="-8"
     inkscape:window-maximized="1" />
  <metadata
     id="metadata16089">
    <rdf:RDF>
      <cc:Work
         rdf:about="">
        <dc:format>image/svg+xml</dc:format>
        <dc:type
           rdf:resource="http://purl.org/dc/dcmitype/StillImage" />
        <dc:title></dc:title>
      </cc:Work>
    </rdf:RDF>
  </metadata>
  <g
     id="layer1"
     inkscape:label="Layer 1"
     inkscape:groupmode="layer">
    <path
       style="fill:url(#radialGradient16841);fill-opacity:1;stroke:none"
       d="M 35.497365,47.354961 C 34.685722,45.337145 33.17235,41.740603 30.498023,43.809272 24.099419,46.938783 16.213705,45.352037 10.673796,41.168783 7.184113,38.677264 4.2367357,35.519687 1.3096371,32.42125 -0.45146616,29.81719 1.2103093,26.775244 1.9986335,24.1362 4.2164659,18.132348 7.38742,12.379066 11.777939,7.6880517 c 1.70515,-1.6352655 3.652944,-3.3011119 5.991263,-3.8479735 2.820994,-0.045966 5.642254,0.7294119 8.297851,1.5490299 2.170264,1.3516394 2.619333,4.6393399 1.366119,6.7403229 -1.50109,2.14446 -4.291509,1.130917 -6.438773,0.974758 -1.145569,-1.120501 -1.726101,-4.1378688 -3.648119,-1.697933 -1.950778,1.792689 -2.768419,4.535814 -2.525813,7.129878 -0.06908,2.456335 -0.573231,5.021822 -2.10396,7.009237 2.595667,0.669633 4.274015,-1.980325 6.800476,-1.958939 3.270967,-0.417717 6.464965,1.208778 8.669629,3.529379 1.958975,1.4808 3.479835,-1.778369 5.536795,-1.911013 2.636404,-1.112998 5.974154,-0.817546 7.927266,1.438789 2.209487,1.492814 1.657752,4.240675 1.732491,6.507763 0.0407,3.922677 0.315496,8.169281 -1.639696,11.720295 -1.314687,1.951404 -3.771716,2.913735 -6.073925,2.75165 l -0.172178,-0.268334 0,0 z"
       id="path16801"
       inkscape:connector-curvature="0" />
    <path
       style="fill:#000000;fill-opacity:0.0927835"
       d="M 35.587992,47.384813 C 34.638516,45.545767 33.563276,41.718581 30.797242,43.618539 24.815778,46.661304 17.388151,45.578154 11.911987,41.942101 8.5926345,39.783805 5.790042,36.934899 3.0082536,34.144437 1.5445669,32.592737 -0.06462786,30.782377 0.83376769,28.509128 1.9029855,23.490151 4.2237146,18.823665 6.7663837,14.399124 8.4978773,11.502557 10.558615,8.7649039 13.128351,6.557674 c -2.830797,4.167225 -3.8074149,9.226839 -6.1154598,13.662577 -1.4889088,3.021146 -3.3476671,6.672788 -1.6333109,9.995132 1.5465952,3.010219 4.439983,4.960406 6.5987047,7.487273 3.606954,3.661063 8.830578,6.221094 14.051487,5.187211 2.987198,-0.419817 6.308532,-2.46855 6.389347,-5.796152 -0.257024,-2.22928 -1.007399,-4.442304 -1.968929,-6.457051 -1.586405,-1.626218 -0.995572,-3.724682 1.163361,-4.31742 2.764628,-1.698819 6.705828,-2.52572 9.373615,-0.191548 0.751819,0.618062 2.478369,2.464394 1.942758,2.845787 -3.445531,-0.657076 -7.430317,1.002135 -8.964503,4.228955 -0.656278,2.691473 1.561538,4.833694 3.173709,6.667894 1.300994,1.784036 3.985395,4.547991 2.923264,6.585823 -1.290265,0.843873 -2.948325,1.330808 -4.474402,0.928658 z"
       id="path16809"
       inkscape:connector-curvature="0" />
    <path
       style="fill:#ffffff;fill-opacity:0.47938144"
       d="m 23.011154,38.707696 c -3.770886,-1.248936 -7.164444,-3.893098 -8.899073,-7.515233 -0.844119,-1.704775 -1.378865,-3.576525 -1.455689,-5.482186 0.781744,-0.161497 1.68583,0.173811 2.388966,-0.19173 1.765867,-1.222719 3.878245,-2.123874 6.067101,-1.928185 1.006286,0.06628 2.001687,0.312185 2.918757,0.732784 -1.223031,-0.07744 -2.548619,-0.05054 -3.581696,0.70095 -1.390834,0.939276 -2.246486,2.475021 -2.809245,4.018107 -0.593454,1.989673 0.18838,4.119708 1.415754,5.702796 1.203774,1.628034 2.788957,2.921553 4.430219,4.084605 -0.06264,0.07044 -0.354758,-0.112107 -0.475094,-0.121908 z"
       id="path16799"
       inkscape:connector-curvature="0" />
    <path
       inkscape:connector-curvature="0"
       id="path16821"
       d="M 35.497365,47.354961 C 34.685722,45.337145 33.17235,41.740603 30.498023,43.809272 24.099419,46.938783 16.213705,45.352037 10.673796,41.168783 7.184113,38.677264 4.2367357,35.519687 1.3096371,32.42125 -0.45146616,29.81719 1.2103093,26.775244 1.9986335,24.1362 4.2164659,18.132348 7.38742,12.379066 11.777939,7.6880517 c 1.70515,-1.6352655 3.652944,-3.3011119 5.991263,-3.8479735 2.820994,-0.045966 5.642254,0.7294119 8.297851,1.5490299 2.170264,1.3516394 2.619333,4.6393399 1.366119,6.7403229 -1.50109,2.14446 -4.291509,1.130917 -6.438773,0.974758 -1.145569,-1.120501 -1.726101,-4.1378688 -3.648119,-1.697933 -1.950778,1.792689 -2.768419,4.535814 -2.525813,7.129878 -0.06908,2.456335 -0.573231,5.021822 -2.10396,7.009237 2.595667,0.669633 4.274015,-1.980325 6.800476,-1.958939 3.270967,-0.417717 6.464965,1.208778 8.669629,3.529379 1.958975,1.4808 3.479835,-1.778369 5.536795,-1.911013 2.636404,-1.112998 5.974154,-0.817546 7.927266,1.438789 2.209487,1.492814 1.657752,4.240675 1.732491,6.507763 0.0407,3.922677 0.315496,8.169281 -1.639696,11.720295 -1.314687,1.951404 -3.771716,2.913735 -6.073925,2.75165 l -0.172178,-0.268334 0,0 z"
       style="fill:none;fill-opacity:1;stroke:#555753" />
    <g
       id="g69591"
       transform="matrix(0.6649513,0.02370382,-0.02370382,0.6649513,19.929214,-1.0052656)">
      <path
         inkscape:connector-curvature="0"
         sodipodi:nodetypes="ccssc"
         inkscape:r_cy="true"
         inkscape:r_cx="true"
         id="path6937"
         d="m 19.651682,22.586735 4.065864,3.800698 c 7.187499,-7.062499 17.78306,-23.9772875 17.78306,-23.9772875 0.42949,-1.2244462 -1.087245,-1.99589286 -1.846352,-1.170495 0,0 -13.690073,14.0970855 -20.002572,21.3470845 z"
         style="color:#000000;fill:url(#linearGradient4924);fill-opacity:1;fill-rule:nonzero;stroke:#673907;stroke-width:1.27197766;stroke-linecap:round;stroke-linejoin:miter;stroke-miterlimit:4;stroke-opacity:1;stroke-dasharray:none;stroke-dashoffset:0;marker:none;visibility:visible;display:inline;overflow:visible" />
      <path
         inkscape:connector-curvature="0"
         sodipodi:nodetypes="ccccccccc"
         inkscape:r_cy="true"
         inkscape:r_cx="true"
         id="path6935"
         d="m 12.050285,32.813894 2.24632,1.93382 8.492766,-7.367031 0.275061,-0.705828 1.094405,-0.01782 c -0.4375,-1.5625 -2.941514,-4.383455 -4.816514,-4.383455 l 0.08202,1.090075 -0.669991,0.380027 -6.704066,9.070207 z"
         style="color:#000000;fill:url(#linearGradient4926);fill-opacity:1;fill-rule:nonzero;stroke:#888a85;stroke-width:1.27197766;stroke-linecap:round;stroke-linejoin:miter;stroke-miterlimit:4;stroke-opacity:1;stroke-dasharray:none;stroke-dashoffset:0;marker:none;visibility:visible;display:inline;overflow:visible" />
      <path
         inkscape:connector-curvature="0"
         sodipodi:nodetypes="cssc"
         inkscape:r_cy="true"
         inkscape:r_cx="true"
         id="path6933"
         d="m 1.757709,40.723915 c 6.6053126,0 11.618187,0.786601 12.567225,-4.019073 C 15.089727,32.832133 9.7646096,30.976482 7.1258026,34.433791 4.583799,37.76427 1.757709,40.723915 1.757709,40.723915 z"
         style="color:#000000;fill:url(#radialGradient4928);fill-opacity:1;fill-rule:nonzero;stroke:none;stroke-width:0.2;marker:none;visibility:visible;display:inline;overflow:visible" />
      <path
         transform="matrix(0.852298,0,0,0.852298,3.733554,2.575604)"
         inkscape:r_cy="true"
         inkscape:r_cx="true"
         d="m 8.8749989,37.75 c 0,0.690356 -0.559644,1.25 -1.2499999,1.25 -0.6903558,0 -1.2499998,-0.559644 -1.2499998,-1.25 0,-0.690356 0.559644,-1.25 1.2499998,-1.25 0.6903559,0 1.2499999,0.559644 1.2499999,1.25 z"
         sodipodi:ry="1.2499999"
         sodipodi:rx="1.2499999"
         sodipodi:cy="37.75"
         sodipodi:cx="7.624999"
         id="path6971"
         style="opacity:0.52777782;color:#000000;fill:#ffffff;fill-opacity:1;fill-rule:nonzero;stroke:none;stroke-width:1;marker:none;visibility:visible;display:inline;overflow:visible"
         sodipodi:type="arc" />
      <path
         sodipodi:type="arc"
         style="color:#000000;fill:#ffffff;fill-opacity:1;fill-rule:nonzero;stroke:none;stroke-width:1;marker:none;visibility:visible;display:inline;overflow:visible"
         id="path6983"
         sodipodi:cx="7.624999"
         sodipodi:cy="37.75"
         sodipodi:rx="1.2499999"
         sodipodi:ry="1.2499999"
         d="m 8.8749989,37.75 c 0,0.690356 -0.559644,1.25 -1.2499999,1.25 -0.6903558,0 -1.2499998,-0.559644 -1.2499998,-1.25 0,-0.690356 0.559644,-1.25 1.2499998,-1.25 0.6903559,0 1.2499999,0.559644 1.2499999,1.25 z"
         inkscape:r_cx="true"
         inkscape:r_cy="true"
         transform="matrix(0.787867,0,0,0.787867,14.26538,-4.723366)" />
      <path
         inkscape:connector-curvature="0"
         inkscape:r_cy="true"
         inkscape:r_cx="true"
         id="path6985"
         d="m 18.941438,26.398154 -5.303301,6.14299"
         style="color:#000000;fill:none;stroke:#ffffff;stroke-width:1.27197766;stroke-linecap:round;stroke-linejoin:round;stroke-miterlimit:4;stroke-opacity:1;stroke-dasharray:none;stroke-dashoffset:0;marker:none;visibility:visible;display:inline;overflow:visible" />
      <path
         inkscape:connector-curvature="0"
         sodipodi:nodetypes="cssc"
         inkscape:r_cy="true"
         inkscape:r_cx="true"
         id="path1571"
         d="m 3.0708872,40.068976 c 0,0 3.3411114,-1.641821 4.7648284,-4.086829 0.503707,-0.865037 1.644373,-0.126836 0.941666,0.734499 -1.517828,1.860458 -5.7064944,3.35233 -5.7064944,3.35233 z"
         style="opacity:0.42777776;color:#000000;fill:url(#linearGradient4930);fill-opacity:1;fill-rule:nonzero;stroke:none;stroke-width:1;marker:none;visibility:visible;display:inline;overflow:visible" />
      <path
         transform="matrix(0.237867,0,0,0.237867,38.43389,-7.101028)"
         inkscape:r_cy="true"
         inkscape:r_cx="true"
         d="m 8.8749989,37.75 c 0,0.690356 -0.559644,1.25 -1.2499999,1.25 -0.6903558,0 -1.2499998,-0.559644 -1.2499998,-1.25 0,-0.690356 0.559644,-1.25 1.2499998,-1.25 0.6903559,0 1.2499999,0.559644 1.2499999,1.25 z"
         sodipodi:ry="1.2499999"
         sodipodi:rx="1.2499999"
         sodipodi:cy="37.75"
         sodipodi:cx="7.624999"
         id="path2454"
         style="opacity:0.53333285;color:#000000;fill:#ffffff;fill-opacity:1;fill-rule:nonzero;stroke:none;stroke-width:1;marker:none;visibility:visible;display:inline;overflow:visible"
         sodipodi:type="arc" />
    </g>
  </g>
</svg>
