<?xml version="1.0" encoding="UTF-8" standalone="no"?>
<!-- Created with Inkscape (http://www.inkscape.org/) -->
<svg
   xmlns:i="http://ns.adobe.com/AdobeIllustrator/10.0/"
   xmlns:dc="http://purl.org/dc/elements/1.1/"
   xmlns:cc="http://creativecommons.org/ns#"
   xmlns:rdf="http://www.w3.org/1999/02/22-rdf-syntax-ns#"
   xmlns:svg="http://www.w3.org/2000/svg"
   xmlns="http://www.w3.org/2000/svg"
   xmlns:xlink="http://www.w3.org/1999/xlink"
   xmlns:sodipodi="http://sodipodi.sourceforge.net/DTD/sodipodi-0.dtd"
   xmlns:inkscape="http://www.inkscape.org/namespaces/inkscape"
   width="48px"
   height="48px"
   id="svg5542"
   sodipodi:version="0.32"
   inkscape:version="0.46"
   sodipodi:docbase="C:\dev\src\houdini\support\icons\DOP"
   sodipodi:docname="painttearable.svg"
   inkscape:output_extension="org.inkscape.output.svg.inkscape">
  <defs
     id="defs5544">
    <linearGradient
       id="linearGradient5719">
      <stop
         style="stop-color:#a7a7a7;stop-opacity:1;"
         offset="0"
         id="stop5721" />
      <stop
         id="stop5727"
         offset="0.3763853"
         style="stop-color:#ffffff;stop-opacity:1;" />
      <stop
         style="stop-color:#696969;stop-opacity:1;"
         offset="1"
         id="stop5723" />
    </linearGradient>
    <inkscape:perspective
       sodipodi:type="inkscape:persp3d"
       inkscape:vp_x="0 : 24 : 1"
       inkscape:vp_y="0 : 1000 : 0"
       inkscape:vp_z="48 : 24 : 1"
       inkscape:persp3d-origin="24 : 16 : 1"
       id="perspective4281" />
    <clipPath
       id="XMLID_54_">
      <rect
         id="use33307"
         x="-14.341493"
         y="-40.481159"
         transform="matrix(-0.5107998,0.8596997,-0.8596997,-0.5107998,0,0)"
         width="16.272005"
         height="16.346006" />
    </clipPath>
    <clipPath
       id="XMLID_53_">
      <polygon
         id="use33297"
         points="27.986,5.473 26.322,12.36 24.384,11.285 24.952,17.267 31.222,15.082 29.361,14.047 36.39,5.745 27.986,5.473 " />
    </clipPath>
    <clipPath
       id="XMLID_46_">
      <rect
         id="use33259"
         x="27.325001"
         y="17.687"
         width="15.678"
         height="7.5500002" />
    </clipPath>
    <clipPath
       id="XMLID_45_">
      <polygon
         id="use33249"
         points="40.794,18.675 32.645,19.538 31.977,17.558 27.626,21.137 34.348,24.584 33.645,22.5 43.076,23.139 40.794,18.675 " />
    </clipPath>
    <linearGradient
       id="linearGradient5467">
      <stop
         style="stop-color:#ffffff;stop-opacity:1;"
         offset="0"
         id="stop5469" />
      <stop
         style="stop-color:#bbd3dc;stop-opacity:1;"
         offset="1"
         id="stop5471" />
    </linearGradient>
    <radialGradient
       inkscape:collect="always"
       xlink:href="#linearGradient5467"
       id="radialGradient5473"
       cx="20.490639"
       cy="22.246885"
       fx="20.490639"
       fy="22.246885"
       r="23.8605"
       gradientTransform="matrix(1.1556666,-0.3200799,0.2137306,0.771686,46.139602,17.704781)"
       gradientUnits="userSpaceOnUse" />
    <radialGradient
       inkscape:collect="always"
       xlink:href="#linearGradient5467"
       id="radialGradient5709"
       gradientUnits="userSpaceOnUse"
       gradientTransform="matrix(1.1416817,-0.3161579,0.2111442,0.7622302,-7.3813007,11.658757)"
       cx="20.490639"
       cy="22.246885"
       fx="20.490639"
       fy="22.246885"
       r="23.8605" />
    <linearGradient
       inkscape:collect="always"
       xlink:href="#linearGradient5719"
       id="linearGradient5725"
       x1="36.507423"
       y1="35.844181"
       x2="33.99865"
       y2="39.103439"
       gradientUnits="userSpaceOnUse"
       gradientTransform="matrix(0.9115972,0,0,0.9073551,3.2649893,4.4412215)" />
    <linearGradient
       inkscape:collect="always"
       xlink:href="#linearGradient5719"
       id="linearGradient5735"
       gradientUnits="userSpaceOnUse"
       gradientTransform="matrix(0.9704702,0,0,0.966461,1.311484,-4.749354)"
       x1="36.507423"
       y1="35.844181"
       x2="33.99865"
       y2="39.103439" />
  </defs>
  <sodipodi:namedview
     id="base"
     pagecolor="#ffffff"
     bordercolor="#666666"
     borderopacity="1.0"
     inkscape:pageopacity="0.0"
     inkscape:pageshadow="2"
     inkscape:zoom="23.625"
     inkscape:cx="26.772487"
     inkscape:cy="16.42328"
     inkscape:current-layer="layer1"
     showgrid="true"
     inkscape:grid-bbox="true"
     inkscape:document-units="px"
     inkscape:window-width="1920"
     inkscape:window-height="1115"
     inkscape:window-x="-4"
     inkscape:window-y="-4" />
  <metadata
     id="metadata5547">
    <rdf:RDF>
      <cc:Work
         rdf:about="">
        <dc:format>image/svg+xml</dc:format>
        <dc:type
           rdf:resource="http://purl.org/dc/dcmitype/StillImage" />
      </cc:Work>
    </rdf:RDF>
  </metadata>
  <g
     id="layer1"
     inkscape:label="Layer 1"
     inkscape:groupmode="layer">
    <path
       style="fill:url(#radialGradient5709);fill-opacity:1;stroke:#575d66;stroke-width:1;stroke-miterlimit:4;stroke-dasharray:none"
       id="path33215"
       d="M 2.2817314,39.860445 C 5.2009726,39.410033 9.1970236,40.375061 13.015252,37.385152 C 16.83447,34.391292 21.692359,33.844867 22.938413,33.256011 C 23.304923,32.459847 23.780291,31.834388 23.41436,29.886261 C 24.11326,31.206056 25.219286,31.660683 26.044181,31.928639 C 27.822446,30.994196 36.547992,30.056072 39.436608,28.508273 C 42.328188,26.961461 45.319546,23.967602 47.280525,23.864876 C 46.249159,22.627229 43.256813,21.695785 38.404254,19.943522 C 33.55367,18.189284 31.284467,15.918454 30.871525,14.989973 C 30.458583,14.062479 29.83917,11.998088 30.458583,9.2126427 C 29.528971,10.141125 21.892512,9.3153683 15.803104,12.513692 C 9.7136947,15.713991 3.2103564,15.919443 0.6309524,15.919443 C 1.1594783,17.731957 4.317791,22.469191 4.5884753,23.421378 C 4.8611354,24.374553 5.3116173,25.308962 5.4795601,26.424128 C 5.6050233,27.267664 5.7591354,29.334029 5.8134699,30.089655 C 5.9270783,31.638442 3.1797315,38.312646 2.2817314,39.860445 z"
       i:knockout="Off"
       clip-path="none"
       sodipodi:nodetypes="cccccsccscccsssc" />
    <path
       style="fill:#ffffff;fill-rule:evenodd;stroke:none;stroke-width:1px;stroke-linecap:butt;stroke-linejoin:miter;stroke-opacity:1;fill-opacity:0.85000002"
       d="M 13.650794,14.031746 C 17.082201,20.774981 18.44837,27.369836 19.365079,33.777778 L 22.590397,32.974406 C 22.974315,31.90699 23.280863,31.093542 23.237963,29.581682 C 24.003502,30.619743 24.798111,31.216571 26.070175,31.405533 C 27.25683,31.001746 28.692487,30.638632 30.285714,30.412698 C 24.653075,25.328285 21.154457,18.821191 18.031746,12.063492 C 16.122503,12.719577 14.902179,13.375661 13.650794,14.031746 z"
       id="path4842"
       sodipodi:nodetypes="cccccccc" />
    <path
       style="fill:none;fill-rule:evenodd;stroke:#000000;stroke-width:1.3;stroke-linecap:butt;stroke-linejoin:miter;stroke-opacity:1;stroke-miterlimit:4;stroke-dasharray:2.6,2.6;stroke-dashoffset:0"
       d="M 15.661376,13.121693 C 19.57939,18.672028 19.803376,24.478511 23.280423,29.883598"
       id="path4844"
       sodipodi:nodetypes="cc" />
    <g
       id="Layer_1"
       i:layer="yes"
       i:dimmedPercent="50"
       i:rgbTrio="#4F008000FFFF"
       transform="matrix(-0.3322837,-1.2436034,1.2436034,-0.3322837,10.338583,35.378926)"
       style="fill:#000000;fill-opacity:0.77777782">
			<g
   i:knockout="Off"
   id="g4851"
   style="fill:#000000;fill-opacity:0.77777782">
				<path
   i:knockout="Off"
   d="M 4.533,5.314 L 12.294,4.505 C 12.86,4.689 13.387,5.056 13.875,5.607 L 5.775,6.21 C 5.591,6.227 5.468,6.234 5.406,6.234 C 5.351,6.234 5.306,6.232 5.271,6.228 L 5.13,6.216 C 5.076,6.207 5.023,6.203 4.972,6.203 C 4.683,6.203 4.48,6.349 4.363,6.641 L 4.305,6.782 C 3.942,7.698 3.147,8.156 1.921,8.156 C 1.358,8.156 0.898,8.042 0.538,7.812 C 0.179,7.584 0,7.293 0,6.941 C 0,6.644 0.104,6.428 0.313,6.295 C 0.522,6.162 0.908,6.066 1.47,6.007 L 3.649,5.772 C 3.989,5.737 4.21,5.692 4.314,5.637 C 4.418,5.582 4.49,5.475 4.533,5.314 z M 2.9,6.293 L 1.323,6.462 C 0.732,6.523 0.438,6.687 0.438,6.95 C 0.438,7.164 0.581,7.345 0.866,7.494 C 1.151,7.643 1.497,7.718 1.903,7.718 C 2.419,7.718 2.872,7.612 3.26,7.398 C 3.649,7.185 3.843,6.937 3.843,6.653 C 3.843,6.404 3.647,6.28 3.257,6.28 C 3.125,6.281 3.005,6.285 2.9,6.293 z M 6.107,4.857 L 5.141,4.939 L 4.858,4.518 C 4.869,4.452 4.875,4.397 4.875,4.354 C 4.875,4.19 4.725,3.933 4.425,3.582 L 3.565,2.564 C 3.105,2.022 2.875,1.536 2.875,1.107 C 2.875,0.799 2.984,0.538 3.202,0.323 C 3.42,0.107 3.687,0 4.002,0 C 4.411,0 4.781,0.182 5.112,0.544 C 5.443,0.906 5.609,1.313 5.609,1.761 C 5.609,2.026 5.512,2.326 5.317,2.662 L 5.249,2.78 C 5.145,2.96 5.094,3.108 5.094,3.225 C 5.094,3.385 5.209,3.608 5.44,3.892 C 5.495,3.958 5.547,4.029 5.598,4.103 L 6.107,4.857 z M 3.674,1.97 L 3.872,2.217 C 4.129,2.542 4.358,2.704 4.56,2.704 C 4.707,2.704 4.844,2.613 4.968,2.432 C 5.093,2.25 5.155,2.05 5.155,1.83 C 5.155,1.471 5.04,1.146 4.811,0.857 C 4.582,0.568 4.328,0.422 4.047,0.422 C 3.845,0.422 3.672,0.49 3.528,0.627 C 3.384,0.764 3.313,0.928 3.313,1.12 C 3.313,1.362 3.433,1.646 3.674,1.97 z M 6.063,5.953 C 6.24,5.953 6.328,5.855 6.328,5.66 C 6.328,5.48 6.224,5.39 6.015,5.39 C 5.838,5.39 5.75,5.486 5.75,5.677 C 5.75,5.861 5.854,5.953 6.063,5.953 z M 6.089,6.49 L 7.143,6.403 L 9.086,9.281 L 7.793,9.281 L 6.089,6.49 z"
   id="path4853"
   style="fill:#000000;fill-opacity:0.77777782" />

			</g>

		</g>
    <path
       style="fill:url(#linearGradient5735);fill-opacity:1;fill-rule:evenodd;stroke:#000000;stroke-width:1px;stroke-linecap:butt;stroke-linejoin:miter;stroke-opacity:1"
       d="M 25.313434,24.903376 L 27.150883,28.027764 L 42.63025,40.456794 C 45.615749,42.848688 49.063671,38.341537 46.45245,36.355488 L 30.656112,24.899234 L 26.756253,23.391251 C 25.819001,23.581533 25.380352,24.045913 25.313434,24.903376 z"
       id="path5717"
       sodipodi:nodetypes="ccccccc" />
    <path
       style="fill:#000000;fill-opacity:1;fill-rule:evenodd;stroke:none;stroke-width:1px;stroke-linecap:butt;stroke-linejoin:miter;stroke-opacity:1"
       d="M 26.91189,23.391731 L 24.086091,21.111319 L 23.404001,23.53729 L 25.060503,25.089908 L 26.91189,23.391731 z"
       id="path5731"
       sodipodi:nodetypes="ccccc" />
    <path
       style="fill:#ffffff;fill-rule:evenodd;stroke:none;stroke-width:1px;stroke-linecap:butt;stroke-linejoin:miter;stroke-opacity:1;fill-opacity:0.39444444"
       d="M 27.851852,28.063492 L 25.73545,24.804233 L 26.624339,23.830688 L 30.47619,25.439153 C 29.155004,25.528902 27.757861,26.812535 27.851852,28.063492 z"
       id="path5737"
       sodipodi:nodetypes="ccccc" />
  </g>
</svg>
