<?xml version="1.0" encoding="UTF-8" standalone="no"?>
<!-- Created with Inkscape (http://www.inkscape.org/) -->

<svg
   xmlns:i="http://ns.adobe.com/AdobeIllustrator/10.0/"
   xmlns:a="http://ns.adobe.com/AdobeSVGViewerExtensions/3.0/"
   xmlns:dc="http://purl.org/dc/elements/1.1/"
   xmlns:cc="http://creativecommons.org/ns#"
   xmlns:rdf="http://www.w3.org/1999/02/22-rdf-syntax-ns#"
   xmlns:svg="http://www.w3.org/2000/svg"
   xmlns="http://www.w3.org/2000/svg"
   xmlns:xlink="http://www.w3.org/1999/xlink"
   xmlns:sodipodi="http://sodipodi.sourceforge.net/DTD/sodipodi-0.dtd"
   xmlns:inkscape="http://www.inkscape.org/namespaces/inkscape"
   width="48px"
   height="48px"
   id="svg51390"
   sodipodi:version="0.32"
   inkscape:version="0.48.5 r10040"
   sodipodi:docname="muscle.svg"
   version="1.1">
  <metadata
     id="metadata3860">
    <rdf:RDF>
      <cc:Work
         rdf:about="">
        <dc:format>image/svg+xml</dc:format>
        <dc:type
           rdf:resource="http://purl.org/dc/dcmitype/StillImage" />
        <dc:title></dc:title>
      </cc:Work>
    </rdf:RDF>
  </metadata>
  <defs
     id="defs51392">
    <linearGradient
       inkscape:collect="always"
       id="linearGradient4518">
      <stop
         style="stop-color:#ffffff;stop-opacity:1;"
         offset="0"
         id="stop4520" />
      <stop
         style="stop-color:#ffffff;stop-opacity:0;"
         offset="1"
         id="stop4522" />
    </linearGradient>
    <linearGradient
       id="linearGradient51420">
      <stop
         style="stop-color:#000000;stop-opacity:1;"
         offset="0"
         id="stop51422" />
      <stop
         style="stop-color:#2e3436;stop-opacity:0;"
         offset="1"
         id="stop51424" />
    </linearGradient>
    <radialGradient
       gradientUnits="userSpaceOnUse"
       gradientTransform="matrix(1,-0.2454,0,1.1543,-820.3079,-1631.989)"
       fy="1627.7544"
       fx="839.2642"
       r="20.8162"
       cy="1627.7544"
       cx="839.2642"
       id="XMLID_685_">
      <stop
         id="stop20407"
         style="stop-color:#B5BABE"
         offset="0" />
      <stop
         id="stop20409"
         style="stop-color:#FFFFFF"
         offset="1" />
      <a:midPointStop
         style="stop-color:#B5BABE"
         offset="0" />
      <a:midPointStop
         style="stop-color:#B5BABE"
         offset="0.5" />
      <a:midPointStop
         style="stop-color:#FFFFFF"
         offset="1" />
    </radialGradient>
    <linearGradient
       gradientTransform="matrix(0.75677494,0.20273127,-0.20276774,0.75663886,-427.84725,-1435.0586)"
       y2="1652.9285"
       x2="1041.3757"
       y1="1646.0581"
       x1="1038.1348"
       gradientUnits="userSpaceOnUse"
       id="XMLID_718_">
      <stop
         id="stop20732"
         style="stop-color:#ED2829"
         offset="0" />
      <stop
         id="stop20734"
         style="stop-color:#CB1009"
         offset="1" />
      <a:midPointStop
         style="stop-color:#ED2829"
         offset="0" />
      <a:midPointStop
         style="stop-color:#ED2829"
         offset="0.5" />
      <a:midPointStop
         style="stop-color:#CB1009"
         offset="1" />
    </linearGradient>
    <linearGradient
       id="linearGradient36986">
      <stop
         style="stop-color:#ffffff;stop-opacity:1;"
         offset="0"
         id="stop36988" />
      <stop
         style="stop-color:#edd400;stop-opacity:1;"
         offset="1"
         id="stop36990" />
    </linearGradient>
    <radialGradient
       inkscape:collect="always"
       xlink:href="#linearGradient4518"
       id="radialGradient4524"
       cx="23.954636"
       cy="22.106689"
       fx="23.954636"
       fy="22.106689"
       r="18.571429"
       gradientTransform="matrix(1.3461539,-1.1269231,0.597467,0.71369778,-22.597501,33.717538)"
       gradientUnits="userSpaceOnUse" />
  </defs>
  <sodipodi:namedview
     id="base"
     pagecolor="#ffffff"
     bordercolor="#666666"
     borderopacity="1.0"
     inkscape:pageopacity="0.0"
     inkscape:pageshadow="2"
     inkscape:zoom="14"
     inkscape:cx="15.906524"
     inkscape:cy="19.928571"
     inkscape:current-layer="layer1"
     showgrid="true"
     inkscape:grid-bbox="true"
     inkscape:document-units="px"
     inkscape:window-width="2560"
     inkscape:window-height="1537"
     inkscape:window-x="-8"
     inkscape:window-y="-8"
     inkscape:window-maximized="1" />
  <g
     id="layer1"
     inkscape:label="Layer 1"
     inkscape:groupmode="layer">
    <g
       transform="translate(-57.571429,8.0714283)"
       id="g4506">
      <path
         style="fill:none;stroke:#c1e54c;stroke-width:1.5;stroke-linecap:round;stroke-linejoin:miter;stroke-miterlimit:4;stroke-opacity:1;stroke-dasharray:none"
         d="m 64.737008,24.571429 0,14.5"
         id="path4508"
         inkscape:connector-curvature="0" />
      <path
         style="fill:none;stroke:#729fcf;stroke-width:1.5;stroke-linecap:round;stroke-linejoin:miter;stroke-miterlimit:4;stroke-opacity:1;stroke-dasharray:none"
         d="M 58.5,35.422367 70.974015,28.22049"
         id="path4510"
         inkscape:connector-curvature="0" />
      <path
         style="fill:none;stroke:#ef2929;stroke-width:1.5;stroke-linecap:round;stroke-linejoin:miter;stroke-miterlimit:4;stroke-opacity:1;stroke-dasharray:none"
         d="m 59.02025,28.520857 11.433516,6.601144"
         id="path4512"
         inkscape:connector-curvature="0" />
    </g>
    <g
       id="g4501"
       transform="translate(-23.571429,-23.714286)">
      <path
         inkscape:connector-curvature="0"
         id="path4495"
         d="m 64.737008,24.571429 0,14.5"
         style="fill:none;stroke:#c1e54c;stroke-width:1.5;stroke-linecap:round;stroke-linejoin:miter;stroke-miterlimit:4;stroke-opacity:1;stroke-dasharray:none" />
      <path
         inkscape:connector-curvature="0"
         id="path4497"
         d="M 58.5,35.422367 70.974015,28.22049"
         style="fill:none;stroke:#729fcf;stroke-width:1.5;stroke-linecap:round;stroke-linejoin:miter;stroke-miterlimit:4;stroke-opacity:1;stroke-dasharray:none" />
      <path
         inkscape:connector-curvature="0"
         id="path4499"
         d="m 59.02025,28.520857 11.433516,6.601144"
         style="fill:none;stroke:#ef2929;stroke-width:1.5;stroke-linecap:round;stroke-linejoin:miter;stroke-miterlimit:4;stroke-opacity:1;stroke-dasharray:none" />
    </g>
    <path
       style="fill:#ffffff"
       id="path20729"
       d="M 40.403941,7.1825387 C 39.785766,7.7504683 39.238888,8.2095121 38.878482,8.4084832 37.803531,9.0061801 36.52879,9.643828 35.851069,9.6030936 35.174916,9.5631428 32.325355,9.5560927 30.394831,10.438929 26.131851,12.39104 16.691555,21.352577 12.66754,27.367147 c -4.0240144,6.014569 -3.3079028,7.845261 -4.5818608,9.440164 -0.7239465,0.903205 -1.227732,1.716323 -1.9743998,2.652428 -0.5688152,0.712849 1.6931262,1.410032 2.5917916,0.694048 2.713233,-2.165182 3.662042,-2.34927 5.39826,-3.54623 8.405302,-5.694963 16.597495,-13.762697 18.403444,-15.453951 2.066068,-1.93096 3.118298,-3.201557 5.477393,-7.44732 1.28336,-2.309319 2.855044,-4.4173162 4.230073,-6.041203 1.15095,-1.3598976 -0.579784,-1.6137034 -1.8083,-0.4825443 z"
       i:knockout="Off"
       inkscape:connector-curvature="0" />
    <path
       style="fill:url(#XMLID_718_)"
       id="path20736"
       d="m 13.287282,37.134753 c 0.256986,-0.157455 0.524157,-0.328226 0.813265,-0.527196 8.405303,-5.694963 16.597495,-13.762697 18.403445,-15.453951 0.759203,-0.708933 1.381295,-1.329348 1.981451,-2.040631 0.08541,-0.130035 0.07052,-0.571845 0.461476,-1.268244 0.390962,-0.6964 0.262471,-1.351281 1.067116,-2.807531 1.262206,-2.133065 0.890831,-2.285035 1.130579,-2.654777 0.673019,-0.848368 1.132147,-2.001461 1.458079,-2.4158543 C 38.928626,9.5521759 37.986085,9.162067 37.355374,9.1832176 36.76227,9.4479902 36.21696,9.6250275 35.848719,9.6030936 35.172565,9.5631428 32.323005,9.5560927 30.39248,10.438929 26.129501,12.39104 16.689205,21.352577 12.665189,27.367147 c -0.402715,0.601613 -0.798378,1.289396 -1.111775,1.811891 -0.197439,0.413609 0.04153,0.86952 -0.06659,1.240045 -0.108122,0.369741 -0.95821,2.044547 -1.306082,2.872549 -0.3470861,0.826435 -0.3705903,2.197299 0.06503,2.675144 0.437188,0.478627 0.869676,1.218894 2.37163,0.849936 1.505872,-0.369742 0.997385,0.03447 0.669886,0.318041 z"
       i:knockout="Off"
       inkscape:connector-curvature="0" />
    <path
       style="fill:#cb1009"
       id="path20738"
       d="m 32.734338,20.830082 c 0.120657,-0.127687 0.250718,-0.249889 0.376077,-0.375225 0.38391,-0.385409 0.6597,-0.803719 0.966828,-1.237696 0.110473,-0.158237 0.02037,-0.245189 0.08384,-0.433193 0.05797,-0.165286 0.177852,-0.290622 0.269521,-0.436325 0.19744,-0.317258 0.11909,-0.762202 0.22878,-1.09826 0.05563,-0.167636 0.198223,-0.341541 0.282057,-0.499777 0.08384,-0.160587 0.112039,-0.329792 0.189605,-0.495078 0.169234,-0.354859 0.373725,-0.686216 0.478713,-1.067708 0.06502,-0.235005 -0.04466,-0.213854 -0.09637,-0.422226 -0.0478,-0.188788 0.08697,-0.402643 0.200573,-0.531113 0.275007,-0.307856 0.691824,-0.662715 0.847739,-1.032456 0.09637,-0.229522 0.104204,-0.489595 0.212327,-0.705016 0.100286,-0.202105 0.293809,-0.376009 0.416033,-0.566363 0.271089,-0.412825 0.520239,-0.841319 0.756854,-1.279212 0.09402,-0.176254 0.210758,-0.367391 0.281272,-0.553829 0.05564,-0.1480535 0.130843,-0.4128262 0.02663,-0.5358123 -0.173935,-0.2083713 -0.7451,-0.1958377 -0.985632,-0.1793873 -0.319665,0.021934 -0.622876,0.2287385 -1.045179,0.3509412 -0.255418,0.044651 -3.763112,-0.4833276 -7.060047,1.4883674 -0.32985,0.210722 3.749793,-1.6708881 5.419415,-1.204011 0.15043,0.02977 -1.104724,0.442593 -3.254626,1.956811 -2.152252,1.513433 -6.235813,3.923021 -6.752917,5.396506 -0.518671,1.473483 -0.278923,4.342116 -0.956644,5.418439 -0.676938,1.073975 -1.393832,2.188683 -2.907539,3.781236 -1.51449,1.59412 -4.980658,2.907799 -6.492799,3.62535 -1.513706,0.716766 -3.586042,2.469906 -3.744307,2.9501 -0.160617,0.475494 -0.471663,1.688905 0.261686,2.643027 0.734914,0.953338 1.342904,0.815468 2.518927,0.554612 1.175238,-0.264773 0.955076,0.01331 0.926087,0.09478 -0.02586,0.08303 6.130042,-4.550487 7.610841,-5.809331 1.480803,-1.258062 10.758132,-9.604669 10.942253,-9.798156 z"
       i:knockout="Off"
       inkscape:connector-curvature="0" />
    <path
       style="fill:#b3090a"
       id="path20740"
       d="m 36.604788,12.249253 c 0.279707,-0.405775 0.351005,-1.24396 -0.376075,-1.127241 -0.726298,0.119069 -3.424644,0.987022 -5.348901,2.486356 -1.923473,1.502467 -2.133449,2.229417 -2.533814,4.643705 -0.139461,0.751234 -4.05692,4.481553 -4.972039,5.583728 -0.986416,1.172676 -1.876464,2.252133 -2.744572,3.072303 -0.86811,0.820167 -2.34656,1.922343 -6.075982,4.291196 -1.523892,0.962739 -2.891085,2.937568 -2.509524,3.306526 1.181506,1.148392 3.213884,0.823301 4.503511,7.84e-4 1.289628,-0.818603 15.740356,-13.343604 16.609249,-14.49278 0.867325,-1.150743 1.313132,-4.269265 1.852174,-5.185001 0.586835,-1.008173 1.385214,-2.274852 1.595973,-2.579576 z"
       i:knockout="Off"
       inkscape:connector-curvature="0" />
    <path
       style="fill:#a40e0a"
       id="path20742"
       d="m 35.630124,13.125823 c 0.322016,-0.454343 -0.787409,-1.387314 -2.290147,-0.669765 -1.504304,0.717549 -3.215451,1.225161 -4.488626,5.227302 -0.626009,2.058648 -3.03133,4.093793 -4.302154,6.430529 -0.787409,1.431966 0.785843,2.867849 6.361954,-2.429955 2.497773,-2.314019 2.72812,-3.192156 2.960034,-4.347599 0.231913,-1.156227 0.973097,-3.101286 1.758939,-4.210512 z"
       i:knockout="Off"
       inkscape:connector-curvature="0" />
    <path
       style="fill:none;stroke:#414951;stroke-width:0.79999995"
       id="path20744"
       d="m 42.384607,7.4637617 c -1.414985,1.6473873 -3.065803,3.8360703 -4.402441,6.2433073 -2.359094,4.245763 -3.411324,5.51636 -5.477392,7.447319 -1.806733,1.690472 -9.998925,9.75899 -18.403444,15.453952 -1.844339,1.271378 -2.800983,1.401415 -5.9255495,3.973156"
       i:knockout="Off"
       inkscape:connector-curvature="0" />
    <path
       style="fill:none;stroke:#5b6772;stroke-width:0.79999995"
       id="path20746"
       d="M 40.561421,7.0368353 C 39.878999,7.672133 39.270227,8.1922782 38.87848,8.4084831 37.80353,9.0061801 36.528789,9.6438278 35.851068,9.6030935 35.174915,9.5631426 32.325354,9.5560925 30.39483,10.438929 26.13185,12.391039 16.691555,21.352576 12.66754,27.367146 8.6435252,33.381717 9.3596369,35.212408 8.085679,36.80731 7.2998365,37.788066 6.7709794,38.664636 5.9130556,39.704143"
       i:knockout="Off"
       inkscape:connector-curvature="0" />
    <g
       transform="matrix(0.78349201,0,0,0.78335114,-637.32285,-1292.4292)"
       id="g20748">
      <path
         style="fill:none;stroke:#7f0c07;stroke-width:0.51058078"
         id="path20750"
         d="m 859.082,1668.389 c -2.807,1.894 -4.965,3.657 -12.604,11.169 -7.643,7.51 -11.888,11.363 -18.417,16.588"
         i:knockout="Off"
         inkscape:connector-curvature="0" />
      <path
         style="fill:none;stroke:#f8170f;stroke-width:0.51058078"
         id="path20752"
         d="m 828.344,1696.502 c 6.437,-5.15 10.575,-8.878 18.453,-16.62 7.761,-7.631 9.869,-9.314 12.539,-11.116"
         i:knockout="Off"
         inkscape:connector-curvature="0" />
      <path
         style="fill:none;stroke:#7f0c07;stroke-width:0.51058078"
         id="path20754"
         d="m 860.324,1664.927 c -1.503,0.457 -5.226,1.959 -8.36,4.571 -3.136,2.612 -6.009,5.226 -10.255,9.472 -4.245,4.244 -9.535,9.796 -15.152,14.891"
         i:knockout="Off"
         inkscape:connector-curvature="0" />
      <path
         style="fill:none;stroke:#f8170f;stroke-width:0.51058078"
         id="path20756"
         d="m 826.862,1694.199 c 4.284,-3.886 8.36,-8.02 11.956,-11.665 l 3.212,-3.242 c 3.997,-3.995 6.863,-6.644 10.224,-9.443 2.968,-2.473 6.552,-3.983 8.203,-4.485"
         i:knockout="Off"
         inkscape:connector-curvature="0" />
      <path
         style="fill:none;stroke:#7f0c07;stroke-width:0.51058078"
         id="path20758"
         d="m 858.691,1663.163 c -2.286,0.589 -4.181,0.522 -8.295,3.071 -4.115,2.547 -13.912,12.736 -16.59,15.413 -2.679,2.678 -5.355,6.531 -5.355,6.531"
         i:knockout="Off"
         inkscape:connector-curvature="0" />
      <path
         style="fill:none;stroke:#f8170f;stroke-width:0.51058078"
         id="path20760"
         d="m 828.824,1688.438 c 0.026,-0.039 2.687,-3.853 5.303,-6.469 l 1.451,-1.468 c 3.748,-3.8 11.545,-11.709 15.058,-13.881 3.183,-1.973 4.989,-2.342 6.736,-2.699 l 1.433,-0.318"
         i:knockout="Off"
         inkscape:connector-curvature="0" />
    </g>
    <path
       sodipodi:nodetypes="cc"
       inkscape:connector-curvature="0"
       id="path4516"
       d="M 7.5,40.071428 C 16.389486,28.157531 24.220127,19.838661 38,10.571429"
       style="fill:none;stroke:url(#radialGradient4524);stroke-width:3;stroke-linecap:round;stroke-linejoin:miter;stroke-miterlimit:4;stroke-opacity:1;stroke-dasharray:none" />
    <path
       style="fill:none;stroke:#ef2929;stroke-width:1;stroke-linecap:butt;stroke-linejoin:miter;stroke-opacity:1;stroke-miterlimit:4;stroke-dasharray:2,1;stroke-dashoffset:0"
       d="M 6.7142857,39.642857 C 16.532343,28.300388 27.07727,17.338661 40.857143,8.0714286"
       id="path4514"
       inkscape:connector-curvature="0"
       sodipodi:nodetypes="cc" />
  </g>
</svg>
