<?xml version="1.0" encoding="UTF-8" standalone="no"?>
<!-- Created with Inkscape (http://www.inkscape.org/) -->
<svg
   xmlns:dc="http://purl.org/dc/elements/1.1/"
   xmlns:cc="http://web.resource.org/cc/"
   xmlns:rdf="http://www.w3.org/1999/02/22-rdf-syntax-ns#"
   xmlns:svg="http://www.w3.org/2000/svg"
   xmlns="http://www.w3.org/2000/svg"
   xmlns:sodipodi="http://sodipodi.sourceforge.net/DTD/sodipodi-0.dtd"
   xmlns:inkscape="http://www.inkscape.org/namespaces/inkscape"
   width="48px"
   height="48px"
   id="svg2178"
   sodipodi:version="0.32"
   inkscape:version="0.45.1"
   sodipodi:docbase="c:\dev\src\houdini\support\icons\shelf"
   sodipodi:docname="poselibrary.svg"
   inkscape:output_extension="org.inkscape.output.svg.inkscape">
  <defs
     id="defs2180" />
  <sodipodi:namedview
     id="base"
     pagecolor="#ffffff"
     bordercolor="#666666"
     borderopacity="1.0"
     inkscape:pageopacity="0.0"
     inkscape:pageshadow="2"
     inkscape:zoom="14"
     inkscape:cx="24"
     inkscape:cy="24"
     inkscape:current-layer="layer1"
     showgrid="true"
     inkscape:grid-bbox="true"
     inkscape:document-units="px"
     inkscape:window-width="1377"
     inkscape:window-height="1096"
     inkscape:window-x="291"
     inkscape:window-y="5" />
  <metadata
     id="metadata2183">
    <rdf:RDF>
      <cc:Work
         rdf:about="">
        <dc:format>image/svg+xml</dc:format>
        <dc:type
           rdf:resource="http://purl.org/dc/dcmitype/StillImage" />
      </cc:Work>
    </rdf:RDF>
  </metadata>
  <g
     id="layer1"
     inkscape:label="Layer 1"
     inkscape:groupmode="layer">
    <path
       style="opacity:1;color:#000000;fill:#000000;fill-opacity:1;fill-rule:evenodd;stroke:#eeeeec;stroke-width:2;stroke-linecap:butt;stroke-linejoin:miter;marker:none;marker-start:none;marker-mid:none;marker-end:none;stroke-miterlimit:4;stroke-dasharray:none;stroke-dashoffset:0;stroke-opacity:0.50196078;visibility:visible;display:inline;overflow:visible;enable-background:accumulate"
       d="M 11.96875,0.96875 C 9.609264,0.96875 7.6875,2.890474 7.6875,5.25 C 7.6875,7.609526 9.609263,9.5 11.96875,9.5 C 14.328236,9.5 16.25,7.609526 16.25,5.25 C 16.25,2.890474 14.328236,0.96875 11.96875,0.96875 z M 6.8125,9.71875 C 4.826404,9.742117 2.992115,11.646466 2.96875,13.5625 L 2.96875,22.46875 L 6.875,22.46875 L 6.875,13.625 L 8.4375,13.625 L 8.84375,22.46875 L 14.75,22.46875 L 15.25,13.625 L 16.6875,13.625 L 16.6875,22.46875 L 20.625,22.46875 L 20.625,13.6875 C 20.633042,11.799055 18.613067,9.771708 16.6875,9.71875 L 6.8125,9.71875 z "
       id="path3275" />
    <path
       style="opacity:1;color:#000000;fill:#cc0000;fill-opacity:1;fill-rule:evenodd;stroke:#eeeeec;stroke-width:2;stroke-linecap:butt;stroke-linejoin:miter;marker:none;marker-start:none;marker-mid:none;marker-end:none;stroke-miterlimit:4;stroke-dasharray:none;stroke-dashoffset:0;stroke-opacity:0.50196078;visibility:visible;display:inline;overflow:visible;enable-background:accumulate"
       d="M 35,0.875 C 32.640514,0.875 30.71875,2.796724 30.71875,5.15625 C 30.71875,7.515776 32.640516,9.4375 35,9.4375 C 37.359486,9.4375 39.28125,7.515776 39.28125,5.15625 C 39.28125,2.796724 37.359488,0.875 35,0.875 z M 43.5625,1.78125 L 38.09375,9.625 L 31.5,9.5625 L 31.5,9.625 L 30.375,9.625 C 28.388904,9.648367 26.523366,11.552717 26.5,13.46875 L 26.5,22.375 L 30.4375,22.375 L 30.4375,13.5625 L 31.78125,13.5625 L 32.40625,22.375 L 38.28125,22.375 L 38.84375,14.625 L 45.78125,5 L 43.5625,1.78125 z "
       id="path3277" />
    <path
       style="opacity:1;color:#000000;fill:#000000;fill-opacity:1;fill-rule:evenodd;stroke:#eeeeec;stroke-width:2;stroke-linecap:butt;stroke-linejoin:miter;marker:none;marker-start:none;marker-mid:none;marker-end:none;stroke-miterlimit:4;stroke-dasharray:none;stroke-dashoffset:0;stroke-opacity:0.50196078;visibility:visible;display:inline;overflow:visible;enable-background:accumulate"
       d="M 11.96875,25.40625 C 9.609264,25.40625 7.6875,27.327975 7.6875,29.6875 C 7.6875,32.047026 9.609264,33.96875 11.96875,33.96875 C 14.328236,33.96875 16.250001,32.047027 16.25,29.6875 C 16.25,27.327974 14.328236,25.406249 11.96875,25.40625 z M 20.75,34.25 L 18.125,37.125 L 14.9375,34.59375 L 14.9375,34.375 L 8.84375,34.71875 L 8.84375,34.65625 L 6.125,34.65625 L 1,40.125 L 3.9375,46.03125 L 7.53125,44.0625 L 5.40625,40.75 L 8.34375,38.625 L 8.84375,46.90625 L 14.75,46.90625 L 14.875,39.53125 L 18.65625,41.5625 L 23.5625,37.1875 L 20.75,34.25 z "
       id="path3279" />
    <path
       style="opacity:1;color:#000000;fill:#000000;fill-opacity:1;fill-rule:evenodd;stroke:#eeeeec;stroke-width:2;stroke-linecap:butt;stroke-linejoin:miter;marker:none;marker-start:none;marker-mid:none;marker-end:none;stroke-miterlimit:4;stroke-dasharray:none;stroke-dashoffset:0;stroke-opacity:0.50196078;visibility:visible;display:inline;overflow:visible;enable-background:accumulate"
       d="M 35.53125,25.5 C 33.171764,25.5 31.25,27.421724 31.25,29.78125 C 31.25,32.140776 33.171764,34.031252 35.53125,34.03125 C 37.890736,34.03125 39.812499,32.140776 39.8125,29.78125 C 39.8125,27.421724 37.890737,25.5 35.53125,25.5 z M 27.5,27.3125 L 24.5625,33.1875 L 31.625,39.34375 L 32.40625,47 L 38.28125,47 L 39.03125,39.8125 L 46.15625,35.875 L 45.40625,29.34375 L 41.375,29.9375 L 42.21875,33.78125 L 38.71875,34.8125 L 31.875,34.6875 L 28.96875,32.5625 L 31.0625,29.25 L 27.5,27.3125 z "
       id="path3281" />
    <path
       style="opacity:1;color:#000000;fill:#000000;fill-opacity:1;fill-rule:evenodd;stroke:none;stroke-width:2;stroke-linecap:butt;stroke-linejoin:miter;marker:none;marker-start:none;marker-mid:none;marker-end:none;stroke-miterlimit:4;stroke-dasharray:none;stroke-dashoffset:0;stroke-opacity:1;visibility:visible;display:inline;overflow:visible;enable-background:accumulate"
       d="M 11.96875 0.96875 C 9.6092639 0.96875 7.6875002 2.8904739 7.6875 5.25 C 7.6875 7.6095259 9.6092637 9.4999999 11.96875 9.5 C 14.328236 9.5 16.25 7.6095256 16.25 5.25 C 16.25 2.8904741 14.328236 0.96875 11.96875 0.96875 z M 6.8125 9.71875 C 4.8264042 9.7421172 2.9921157 11.646466 2.96875 13.5625 L 2.96875 22.46875 L 6.875 22.46875 L 6.875 13.625 L 8.4375 13.625 L 8.84375 22.46875 L 14.75 22.46875 L 15.25 13.625 L 16.6875 13.625 L 16.6875 22.46875 L 20.625 22.46875 L 20.625 13.6875 C 20.633042 11.799055 18.613067 9.7717076 16.6875 9.71875 L 6.8125 9.71875 z "
       id="path2186" />
    <path
       style="opacity:1;color:#000000;fill:#cc0000;fill-opacity:1;fill-rule:evenodd;stroke:none;stroke-width:2;stroke-linecap:butt;stroke-linejoin:miter;marker:none;marker-start:none;marker-mid:none;marker-end:none;stroke-miterlimit:4;stroke-dasharray:none;stroke-dashoffset:0;stroke-opacity:1;visibility:visible;display:inline;overflow:visible;enable-background:accumulate"
       d="M 35 0.875 C 32.640514 0.875 30.71875 2.7967242 30.71875 5.15625 C 30.71875 7.5157759 32.640516 9.4375002 35 9.4375 C 37.359486 9.4375 39.28125 7.515776 39.28125 5.15625 C 39.28125 2.7967241 37.359488 0.87499997 35 0.875 z M 43.5625 1.78125 L 38.09375 9.625 L 31.5 9.5625 L 31.5 9.625 L 30.375 9.625 C 28.388904 9.6483675 26.523366 11.552717 26.5 13.46875 L 26.5 22.375 L 30.4375 22.375 L 30.4375 13.5625 L 31.78125 13.5625 L 32.40625 22.375 L 38.28125 22.375 L 38.84375 14.625 L 45.78125 5 L 43.5625 1.78125 z "
       id="path3192" />
    <path
       style="opacity:1;color:#000000;fill:#000000;fill-opacity:1;fill-rule:evenodd;stroke:none;stroke-width:2;stroke-linecap:butt;stroke-linejoin:miter;marker:none;marker-start:none;marker-mid:none;marker-end:none;stroke-miterlimit:4;stroke-dasharray:none;stroke-dashoffset:0;stroke-opacity:1;visibility:visible;display:inline;overflow:visible;enable-background:accumulate"
       d="M 11.96875 25.40625 C 9.6092639 25.40625 7.6874999 27.327975 7.6875 29.6875 C 7.6875 32.047026 9.6092638 33.96875 11.96875 33.96875 C 14.328236 33.96875 16.250001 32.047027 16.25 29.6875 C 16.25 27.327974 14.328236 25.406249 11.96875 25.40625 z M 20.75 34.25 L 18.125 37.125 L 14.9375 34.59375 L 14.9375 34.375 L 8.84375 34.71875 L 8.84375 34.65625 L 6.125 34.65625 L 1 40.125 L 3.9375 46.03125 L 7.53125 44.0625 L 5.40625 40.75 L 8.34375 38.625 L 8.84375 46.90625 L 14.75 46.90625 L 14.875 39.53125 L 18.65625 41.5625 L 23.5625 37.1875 L 20.75 34.25 z "
       id="path3200" />
    <path
       style="opacity:1;color:#000000;fill:#000000;fill-opacity:1;fill-rule:evenodd;stroke:none;stroke-width:2;stroke-linecap:butt;stroke-linejoin:miter;marker:none;marker-start:none;marker-mid:none;marker-end:none;stroke-miterlimit:4;stroke-dasharray:none;stroke-dashoffset:0;stroke-opacity:1;visibility:visible;display:inline;overflow:visible;enable-background:accumulate"
       d="M 35.53125 25.5 C 33.171764 25.5 31.25 27.421724 31.25 29.78125 C 31.25 32.140776 33.171764 34.031252 35.53125 34.03125 C 37.890736 34.03125 39.812499 32.140776 39.8125 29.78125 C 39.8125 27.421724 37.890737 25.5 35.53125 25.5 z M 27.5 27.3125 L 24.5625 33.1875 L 31.625 39.34375 L 32.40625 47 L 38.28125 47 L 39.03125 39.8125 L 46.15625 35.875 L 45.40625 29.34375 L 41.375 29.9375 L 42.21875 33.78125 L 38.71875 34.8125 L 31.875 34.6875 L 28.96875 32.5625 L 31.0625 29.25 L 27.5 27.3125 z "
       id="path3210" />
  </g>
</svg>
