<?xml version="1.0" encoding="UTF-8" standalone="no"?>
<!-- Created with Inkscape (http://www.inkscape.org/) -->
<svg
   xmlns:i="http://ns.adobe.com/AdobeIllustrator/10.0/"
   xmlns:a="http://ns.adobe.com/AdobeSVGViewerExtensions/3.0/"
   xmlns:dc="http://purl.org/dc/elements/1.1/"
   xmlns:cc="http://web.resource.org/cc/"
   xmlns:rdf="http://www.w3.org/1999/02/22-rdf-syntax-ns#"
   xmlns:svg="http://www.w3.org/2000/svg"
   xmlns="http://www.w3.org/2000/svg"
   xmlns:xlink="http://www.w3.org/1999/xlink"
   xmlns:sodipodi="http://sodipodi.sourceforge.net/DTD/sodipodi-0.dtd"
   xmlns:inkscape="http://www.inkscape.org/namespaces/inkscape"
   width="48px"
   height="48px"
   id="svg9144"
   sodipodi:version="0.32"
   inkscape:version="0.44"
   sodipodi:docbase="e:\dev_clean\src\houdini\support\icons\shelf"
   sodipodi:docname="rain.svg">
  <defs
     id="defs9146">
    <linearGradient
       inkscape:collect="always"
       xlink:href="#linearGradient5358"
       id="linearGradient12237"
       gradientUnits="userSpaceOnUse"
       gradientTransform="matrix(-5.358613e-2,0.102849,-9.281434e-2,-5.937964e-2,198.9051,-255.6893)"
       x1="6.8942904"
       y1="-359.82382"
       x2="27.400387"
       y2="-381.30222" />
    <radialGradient
       inkscape:collect="always"
       xlink:href="#linearGradient5346"
       id="radialGradient12235"
       gradientUnits="userSpaceOnUse"
       gradientTransform="matrix(7.065158e-2,4.154803e-2,-6.201499e-2,0.109408,207.4757,-189.8182)"
       cx="21.920311"
       cy="-382.96454"
       fx="21.920311"
       fy="-382.96454"
       r="21.743534" />
    <linearGradient
       inkscape:collect="always"
       xlink:href="#linearGradient5358"
       id="linearGradient12201"
       gradientUnits="userSpaceOnUse"
       gradientTransform="matrix(-5.358613e-2,0.102849,-9.281434e-2,-5.937964e-2,198.9051,-255.6893)"
       x1="6.8942904"
       y1="-359.82382"
       x2="27.400387"
       y2="-381.30222" />
    <radialGradient
       inkscape:collect="always"
       xlink:href="#linearGradient5346"
       id="radialGradient12199"
       gradientUnits="userSpaceOnUse"
       gradientTransform="matrix(7.065158e-2,4.154803e-2,-6.201499e-2,0.109408,207.4757,-189.8182)"
       cx="21.920311"
       cy="-382.96454"
       fx="21.920311"
       fy="-382.96454"
       r="21.743534" />
    <linearGradient
       inkscape:collect="always"
       xlink:href="#linearGradient5358"
       id="linearGradient12249"
       gradientUnits="userSpaceOnUse"
       gradientTransform="matrix(-5.358613e-2,0.102849,-9.281434e-2,-5.937964e-2,198.9051,-255.6893)"
       x1="6.8942904"
       y1="-359.82382"
       x2="27.400387"
       y2="-381.30222" />
    <radialGradient
       inkscape:collect="always"
       xlink:href="#linearGradient5346"
       id="radialGradient12247"
       gradientUnits="userSpaceOnUse"
       gradientTransform="matrix(7.065158e-2,4.154803e-2,-6.201499e-2,0.109408,207.4757,-189.8182)"
       cx="21.920311"
       cy="-382.96454"
       fx="21.920311"
       fy="-382.96454"
       r="21.743534" />
    <linearGradient
       inkscape:collect="always"
       xlink:href="#linearGradient5358"
       id="linearGradient12253"
       gradientUnits="userSpaceOnUse"
       gradientTransform="matrix(-5.358613e-2,0.102849,-9.281434e-2,-5.937964e-2,198.9051,-255.6893)"
       x1="6.8942904"
       y1="-359.82382"
       x2="27.400387"
       y2="-381.30222" />
    <radialGradient
       inkscape:collect="always"
       xlink:href="#linearGradient5346"
       id="radialGradient12251"
       gradientUnits="userSpaceOnUse"
       gradientTransform="matrix(7.065158e-2,4.154803e-2,-6.201499e-2,0.109408,207.4757,-189.8182)"
       cx="21.920311"
       cy="-382.96454"
       fx="21.920311"
       fy="-382.96454"
       r="21.743534" />
    <linearGradient
       inkscape:collect="always"
       xlink:href="#linearGradient5358"
       id="linearGradient12213"
       gradientUnits="userSpaceOnUse"
       gradientTransform="matrix(-5.358613e-2,0.102849,-9.281434e-2,-5.937964e-2,198.9051,-255.6893)"
       x1="6.8942904"
       y1="-359.82382"
       x2="27.400387"
       y2="-381.30222" />
    <radialGradient
       inkscape:collect="always"
       xlink:href="#linearGradient5346"
       id="radialGradient12211"
       gradientUnits="userSpaceOnUse"
       gradientTransform="matrix(7.065158e-2,4.154803e-2,-6.201499e-2,0.109408,207.4757,-189.8182)"
       cx="21.920311"
       cy="-382.96454"
       fx="21.920311"
       fy="-382.96454"
       r="21.743534" />
    <linearGradient
       inkscape:collect="always"
       id="linearGradient5358">
      <stop
         style="stop-color:#ffffff;stop-opacity:1;"
         offset="0"
         id="stop5360" />
      <stop
         style="stop-color:#ffffff;stop-opacity:0;"
         offset="1"
         id="stop5362" />
    </linearGradient>
    <linearGradient
       inkscape:collect="always"
       xlink:href="#linearGradient5358"
       id="linearGradient12225"
       gradientUnits="userSpaceOnUse"
       gradientTransform="matrix(-5.358613e-2,0.102849,-9.281434e-2,-5.937964e-2,198.9051,-255.6893)"
       x1="6.8942904"
       y1="-359.82382"
       x2="27.400387"
       y2="-381.30222" />
    <linearGradient
       inkscape:collect="always"
       id="linearGradient5346">
      <stop
         style="stop-color:#ffffff;stop-opacity:1;"
         offset="0"
         id="stop5348" />
      <stop
         style="stop-color:#ffffff;stop-opacity:0;"
         offset="1"
         id="stop5350" />
    </linearGradient>
    <radialGradient
       inkscape:collect="always"
       xlink:href="#linearGradient5346"
       id="radialGradient12223"
       gradientUnits="userSpaceOnUse"
       gradientTransform="matrix(7.065158e-2,4.154803e-2,-6.201499e-2,0.109408,207.4757,-189.8182)"
       cx="21.920311"
       cy="-382.96454"
       fx="21.920311"
       fy="-382.96454"
       r="21.743534" />
    <linearGradient
       y2="16.0449"
       x2="31.1274"
       y1="16.0449"
       x1="1.7051"
       gradientUnits="userSpaceOnUse"
       id="XMLID_194_"
       gradientTransform="translate(-0.275496,-0.861072)">
      <stop
         id="stop6609"
         style="stop-color:#FFFFFF"
         offset="0" />
      <stop
         id="stop6611"
         style="stop-color:#B4D8E9"
         offset="1" />
      <a:midPointStop
         style="stop-color:#FFFFFF"
         offset="0" />
      <a:midPointStop
         style="stop-color:#FFFFFF"
         offset="0.5" />
      <a:midPointStop
         style="stop-color:#B4D8E9"
         offset="1" />
    </linearGradient>
    <linearGradient
       y2="20.0864"
       x2="46.8462"
       y1="20.0864"
       x1="17.4238"
       gradientUnits="userSpaceOnUse"
       id="XMLID_195_"
       gradientTransform="translate(-0.275496,-0.861072)">
      <stop
         id="stop6624"
         style="stop-color:#FFFFFF"
         offset="0" />
      <stop
         id="stop6626"
         style="stop-color:#B4D8E9"
         offset="1" />
      <a:midPointStop
         style="stop-color:#FFFFFF"
         offset="0" />
      <a:midPointStop
         style="stop-color:#FFFFFF"
         offset="0.5" />
      <a:midPointStop
         style="stop-color:#B4D8E9"
         offset="1" />
    </linearGradient>
    <linearGradient
       y2="14.0913"
       x2="167.273"
       y1="25.1914"
       x1="154.1406"
       gradientUnits="userSpaceOnUse"
       id="XMLID_170_"
       gradientTransform="matrix(1.041141,0,0,1.041514,-151.1994,-0.890468)">
      <stop
         id="stop6375"
         style="stop-color:#FFFFFF"
         offset="0" />
      <stop
         id="stop6377"
         style="stop-color:#B4D8E9"
         offset="1" />
      <a:midPointStop
         style="stop-color:#FFFFFF"
         offset="0" />
      <a:midPointStop
         style="stop-color:#FFFFFF"
         offset="0.5" />
      <a:midPointStop
         style="stop-color:#B4D8E9"
         offset="1" />
    </linearGradient>
    <linearGradient
       y2="17.3183"
       x2="183.5948"
       y1="28.418"
       x1="171.7134"
       gradientUnits="userSpaceOnUse"
       id="XMLID_171_"
       gradientTransform="matrix(1.041141,0,0,1.041514,-151.1994,-0.890468)">
      <stop
         id="stop6390"
         style="stop-color:#FFFFFF"
         offset="0" />
      <stop
         id="stop6392"
         style="stop-color:#B4D8E9"
         offset="1" />
      <a:midPointStop
         style="stop-color:#FFFFFF"
         offset="0" />
      <a:midPointStop
         style="stop-color:#FFFFFF"
         offset="0.5" />
      <a:midPointStop
         style="stop-color:#B4D8E9"
         offset="1" />
    </linearGradient>
    <linearGradient
       gradientTransform="matrix(0.9824,0.1869,-0.1869,0.9824,12.6552,93.3953)"
       y2="-90.701401"
       x2="156.37511"
       y1="-96.790497"
       x1="155.91161"
       gradientUnits="userSpaceOnUse"
       id="XMLID_173_">
      <stop
         id="stop6414"
         style="stop-color:#FFFFFF"
         offset="0" />
      <stop
         id="stop6416"
         style="stop-color:#B4D8E9"
         offset="1" />
      <a:midPointStop
         style="stop-color:#FFFFFF"
         offset="0" />
      <a:midPointStop
         style="stop-color:#FFFFFF"
         offset="0.5" />
      <a:midPointStop
         style="stop-color:#B4D8E9"
         offset="1" />
    </linearGradient>
    <linearGradient
       gradientTransform="matrix(0.9824,0.1869,-0.1869,0.9824,12.6552,93.3953)"
       y2="-93.0093"
       x2="156.1465"
       y1="-97.0308"
       x1="155.7231"
       gradientUnits="userSpaceOnUse"
       id="XMLID_172_">
      <stop
         id="stop6407"
         style="stop-color:#FFFFFF"
         offset="0" />
      <stop
         id="stop6409"
         style="stop-color:#B4D8E9"
         offset="1" />
      <a:midPointStop
         style="stop-color:#FFFFFF"
         offset="0" />
      <a:midPointStop
         style="stop-color:#FFFFFF"
         offset="0.5" />
      <a:midPointStop
         style="stop-color:#B4D8E9"
         offset="1" />
    </linearGradient>
    <linearGradient
       gradientTransform="matrix(0.9824,0.1869,-0.1869,0.9824,12.6552,93.3953)"
       y2="-82.329002"
       x2="149.8244"
       y1="-88.419403"
       x1="149.36079"
       gradientUnits="userSpaceOnUse"
       id="XMLID_175_">
      <stop
         id="stop6430"
         style="stop-color:#FFFFFF"
         offset="0" />
      <stop
         id="stop6432"
         style="stop-color:#B4D8E9"
         offset="1" />
      <a:midPointStop
         style="stop-color:#FFFFFF"
         offset="0" />
      <a:midPointStop
         style="stop-color:#FFFFFF"
         offset="0.5" />
      <a:midPointStop
         style="stop-color:#B4D8E9"
         offset="1" />
    </linearGradient>
    <linearGradient
       gradientTransform="matrix(0.9824,0.1869,-0.1869,0.9824,12.6552,93.3953)"
       y2="-84.637802"
       x2="149.59579"
       y1="-88.659203"
       x1="149.17239"
       gradientUnits="userSpaceOnUse"
       id="XMLID_174_">
      <stop
         id="stop6423"
         style="stop-color:#FFFFFF"
         offset="0" />
      <stop
         id="stop6425"
         style="stop-color:#B4D8E9"
         offset="1" />
      <a:midPointStop
         style="stop-color:#FFFFFF"
         offset="0" />
      <a:midPointStop
         style="stop-color:#FFFFFF"
         offset="0.5" />
      <a:midPointStop
         style="stop-color:#B4D8E9"
         offset="1" />
    </linearGradient>
    <linearGradient
       gradientTransform="matrix(0.9824,0.1869,-0.1869,0.9824,12.6552,93.3953)"
       y2="-87.710403"
       x2="140.6579"
       y1="-93.800797"
       x1="140.19431"
       gradientUnits="userSpaceOnUse"
       id="XMLID_177_">
      <stop
         id="stop6446"
         style="stop-color:#FFFFFF"
         offset="0" />
      <stop
         id="stop6448"
         style="stop-color:#B4D8E9"
         offset="1" />
      <a:midPointStop
         style="stop-color:#FFFFFF"
         offset="0" />
      <a:midPointStop
         style="stop-color:#FFFFFF"
         offset="0.5" />
      <a:midPointStop
         style="stop-color:#B4D8E9"
         offset="1" />
    </linearGradient>
    <linearGradient
       gradientTransform="matrix(0.9824,0.1869,-0.1869,0.9824,12.6552,93.3953)"
       y2="-90.019096"
       x2="140.4288"
       y1="-94.040497"
       x1="140.0054"
       gradientUnits="userSpaceOnUse"
       id="XMLID_176_">
      <stop
         id="stop6439"
         style="stop-color:#FFFFFF"
         offset="0" />
      <stop
         id="stop6441"
         style="stop-color:#B4D8E9"
         offset="1" />
      <a:midPointStop
         style="stop-color:#FFFFFF"
         offset="0" />
      <a:midPointStop
         style="stop-color:#FFFFFF"
         offset="0.5" />
      <a:midPointStop
         style="stop-color:#B4D8E9"
         offset="1" />
    </linearGradient>
    <linearGradient
       gradientTransform="matrix(0.9824,0.1869,-0.1869,0.9824,12.6552,93.3953)"
       y2="-88.650101"
       x2="124.1925"
       y1="-94.739304"
       x1="123.729"
       gradientUnits="userSpaceOnUse"
       id="XMLID_179_">
      <stop
         id="stop6462"
         style="stop-color:#FFFFFF"
         offset="0" />
      <stop
         id="stop6464"
         style="stop-color:#B4D8E9"
         offset="1" />
      <a:midPointStop
         style="stop-color:#FFFFFF"
         offset="0" />
      <a:midPointStop
         style="stop-color:#FFFFFF"
         offset="0.5" />
      <a:midPointStop
         style="stop-color:#B4D8E9"
         offset="1" />
    </linearGradient>
    <linearGradient
       gradientTransform="matrix(0.9824,0.1869,-0.1869,0.9824,12.6552,93.3953)"
       y2="-90.958603"
       x2="123.9639"
       y1="-94.980003"
       x1="123.5405"
       gradientUnits="userSpaceOnUse"
       id="XMLID_178_">
      <stop
         id="stop6455"
         style="stop-color:#FFFFFF"
         offset="0" />
      <stop
         id="stop6457"
         style="stop-color:#B4D8E9"
         offset="1" />
      <a:midPointStop
         style="stop-color:#FFFFFF"
         offset="0" />
      <a:midPointStop
         style="stop-color:#FFFFFF"
         offset="0.5" />
      <a:midPointStop
         style="stop-color:#B4D8E9"
         offset="1" />
    </linearGradient>
    <linearGradient
       gradientTransform="matrix(0.9824,0.1869,-0.1869,0.9824,12.6552,93.3953)"
       y2="-78.966103"
       x2="132.1422"
       y1="-85.055199"
       x1="131.6787"
       gradientUnits="userSpaceOnUse"
       id="XMLID_181_">
      <stop
         id="stop6478"
         style="stop-color:#FFFFFF"
         offset="0" />
      <stop
         id="stop6480"
         style="stop-color:#B4D8E9"
         offset="1" />
      <a:midPointStop
         style="stop-color:#FFFFFF"
         offset="0" />
      <a:midPointStop
         style="stop-color:#FFFFFF"
         offset="0.5" />
      <a:midPointStop
         style="stop-color:#B4D8E9"
         offset="1" />
    </linearGradient>
    <linearGradient
       gradientTransform="matrix(0.9824,0.1869,-0.1869,0.9824,12.6552,93.3953)"
       y2="-81.273499"
       x2="131.91409"
       y1="-85.294899"
       x1="131.49071"
       gradientUnits="userSpaceOnUse"
       id="XMLID_180_">
      <stop
         id="stop6471"
         style="stop-color:#FFFFFF"
         offset="0" />
      <stop
         id="stop6473"
         style="stop-color:#B4D8E9"
         offset="1" />
      <a:midPointStop
         style="stop-color:#FFFFFF"
         offset="0" />
      <a:midPointStop
         style="stop-color:#FFFFFF"
         offset="0.5" />
      <a:midPointStop
         style="stop-color:#B4D8E9"
         offset="1" />
    </linearGradient>
    <radialGradient
       inkscape:collect="always"
       xlink:href="#linearGradient5346"
       id="radialGradient117671"
       gradientUnits="userSpaceOnUse"
       gradientTransform="matrix(7.065158e-2,4.154803e-2,-6.201499e-2,0.109408,207.4757,-189.8182)"
       cx="21.920311"
       cy="-382.96454"
       fx="21.920311"
       fy="-382.96454"
       r="21.743534" />
    <linearGradient
       inkscape:collect="always"
       xlink:href="#linearGradient5358"
       id="linearGradient117673"
       gradientUnits="userSpaceOnUse"
       gradientTransform="matrix(-5.358613e-2,0.102849,-9.281434e-2,-5.937964e-2,198.9051,-255.6893)"
       x1="6.8942904"
       y1="-359.82382"
       x2="27.400387"
       y2="-381.30222" />
  </defs>
  <sodipodi:namedview
     id="base"
     pagecolor="#ffffff"
     bordercolor="#666666"
     borderopacity="1.0"
     inkscape:pageopacity="0.0"
     inkscape:pageshadow="2"
     inkscape:zoom="7"
     inkscape:cx="24"
     inkscape:cy="23.502713"
     inkscape:current-layer="layer1"
     showgrid="true"
     inkscape:grid-bbox="true"
     inkscape:document-units="px"
     inkscape:window-width="853"
     inkscape:window-height="573"
     inkscape:window-x="362"
     inkscape:window-y="230" />
  <metadata
     id="metadata9149">
    <rdf:RDF>
      <cc:Work
         rdf:about="">
        <dc:format>image/svg+xml</dc:format>
        <dc:type
           rdf:resource="http://purl.org/dc/dcmitype/StillImage" />
      </cc:Work>
    </rdf:RDF>
  </metadata>
  <g
     id="layer1"
     inkscape:label="Layer 1"
     inkscape:groupmode="layer">
    <g
       id="g12215"
       transform="translate(-207.3587,262.8629)">
      <path
         sodipodi:nodetypes="cccc"
         id="path12217"
         d="M 231.62587,-228.77086 C 230.58662,-229.36665 230.23015,-230.68774 230.83016,-231.71967 C 232.16166,-233.80243 233.93524,-233.26584 234.84231,-235.46138 C 236.10323,-234.12777 235.63545,-227.21367 231.62587,-228.77086 z "
         style="fill:#729fcf;fill-opacity:1;stroke:#204a87;stroke-width:1.07456863;stroke-linecap:butt;stroke-linejoin:miter;stroke-miterlimit:2;stroke-dasharray:none;stroke-dashoffset:0;stroke-opacity:1" />
      <path
         sodipodi:nodetypes="csscc"
         id="path12219"
         d="M 234.31017,-229.9035 C 233.82059,-229.03976 232.73502,-228.74348 231.88703,-229.24216 C 231.03903,-229.74084 230.74816,-230.84657 231.23774,-231.71031 C 231.72733,-232.57405 233.84374,-232.16235 234.58388,-234 C 235.43187,-233.50133 234.79976,-230.76724 234.31017,-229.9035 z "
         style="opacity:0.46111109;fill:url(#radialGradient12223);fill-opacity:1;stroke:none;stroke-width:1.07457018;stroke-linecap:butt;stroke-linejoin:miter;stroke-miterlimit:0;stroke-dashoffset:0;stroke-opacity:1" />
      <path
         sodipodi:nodetypes="ccc"
         id="path12221"
         d="M 233.02237,-229 C 228.40776,-230.07384 233.25985,-233.71939 234,-232.92154 C 230.4176,-231.55118 233.02237,-229 233.02237,-229 z "
         style="opacity:1;fill:url(#linearGradient12225);fill-opacity:1;stroke:none;stroke-width:1.07457018;stroke-linecap:butt;stroke-linejoin:miter;stroke-miterlimit:0;stroke-dashoffset:0;stroke-opacity:1" />
    </g>
    <g
       id="g12191"
       transform="translate(-224.6428,258.5772)">
      <path
         sodipodi:nodetypes="cccc"
         id="path12193"
         d="M 231.62587,-228.77086 C 230.58662,-229.36665 230.23015,-230.68774 230.83016,-231.71967 C 232.16166,-233.80243 233.93524,-233.26584 234.84231,-235.46138 C 236.10323,-234.12777 235.63545,-227.21367 231.62587,-228.77086 z "
         style="fill:#729fcf;fill-opacity:1;stroke:#204a87;stroke-width:1.07456863;stroke-linecap:butt;stroke-linejoin:miter;stroke-miterlimit:2;stroke-dasharray:none;stroke-dashoffset:0;stroke-opacity:1" />
      <path
         sodipodi:nodetypes="csscc"
         id="path12195"
         d="M 234.31017,-229.9035 C 233.82059,-229.03976 232.73502,-228.74348 231.88703,-229.24216 C 231.03903,-229.74084 230.74816,-230.84657 231.23774,-231.71031 C 231.72733,-232.57405 233.84374,-232.16235 234.58388,-234 C 235.43187,-233.50133 234.79976,-230.76724 234.31017,-229.9035 z "
         style="opacity:0.46111109;fill:url(#radialGradient12199);fill-opacity:1;stroke:none;stroke-width:1.07457018;stroke-linecap:butt;stroke-linejoin:miter;stroke-miterlimit:0;stroke-dashoffset:0;stroke-opacity:1" />
      <path
         sodipodi:nodetypes="ccc"
         id="path12197"
         d="M 233.02237,-229 C 228.40776,-230.07384 233.25985,-233.71939 234,-232.92154 C 230.4176,-231.55118 233.02237,-229 233.02237,-229 z "
         style="opacity:1;fill:url(#linearGradient12201);fill-opacity:1;stroke:none;stroke-width:1.07457018;stroke-linecap:butt;stroke-linejoin:miter;stroke-miterlimit:0;stroke-dashoffset:0;stroke-opacity:1" />
    </g>
    <path
       style="fill:url(#XMLID_194_);stroke:#285080"
       id="path6613"
       d="M 25.7485,15.671928 C 25.9715,14.937928 26.0295,14.275928 26.0085,13.788928 C 25.9085,11.491928 23.1095,9.2719283 20.7435,10.154928 C 19.5025,8.3429283 17.3485,7.0819283 14.9595,7.0819283 C 11.1425,7.0819283 8.0665003,9.8439283 8.0665003,13.597928 L 8.0665003,13.597928 C 7.9235003,13.586928 7.7795003,13.581928 7.6325003,13.581928 C 4.2085003,13.581928 1.4295003,16.331928 1.4295003,19.726928 C 1.4295003,23.121928 4.2085003,23.251928 7.6325003,23.251928 L 25.5935,23.284928 C 28.4975,23.284928 30.8515,23.163928 30.8515,20.552928 C 30.8515,17.943928 28.8535,15.471928 25.7485,15.671928 z "
       i:knockout="Off" />
    <g
       transform="translate(-0.275496,-0.861072)"
       id="g6615"
       i:knockout="Off">
      <g
         id="g6617">
        <path
           style="fill:white"
           id="path6619"
           d="M 22.516,22.775 C 24.811,22.775 26.673,22.679 26.673,20.614 C 26.673,18.551 24.812,16.878 22.516,16.878 L 22.391,16.887 C 22.68,16.453 22.842,15.957 22.842,15.43 C 22.842,13.754 21.184,12.295 19.147,13.256 L 19.147,13.256 C 18.32,11.322 16.376,9.965 14.108,9.965 C 11.089,9.965 8.643,12.369 8.643,15.338 L 8.659,15.116 C 8.546,15.107 8.432,15.103 8.315,15.103 C 5.608,15.103 3.411,17.277 3.411,19.96 C 3.411,22.643 5.608,22.747 8.315,22.747 L 22.516,22.775 z "
           i:knockout="Off" />
      </g>
    </g>
    <path
       style="fill:#c3dbe5"
       id="path6621"
       d="M 8.8595003,14.243928 C 9.6885003,14.312928 11.8285,15.693928 11.8285,16.177928 C 12.1035,15.072928 14.8655,12.311928 18.1095,12.587928 C 17.4885,11.827928 13.2775,11.276928 11.7585,13.899928 C 11.2755,13.208928 9.2735003,13.484928 8.8595003,14.243928"
       i:knockout="Off" />
    <path
       style="fill:url(#XMLID_195_);stroke:#285080"
       id="path6628"
       d="M 41.4675,19.713928 C 41.6905,18.979928 41.7485,18.317928 41.7275,17.830928 C 41.6255,15.532928 38.8295,13.313928 36.4615,14.196928 C 35.2195,12.385928 33.0665,11.123928 30.6785,11.123928 C 26.8605,11.123928 23.7855,13.884928 23.7855,17.638928 L 23.7855,17.638928 C 23.6425,17.628928 23.4985,17.624928 23.3515,17.624928 C 19.9265,17.624928 17.1485,20.373928 17.1485,23.768928 C 17.1485,27.162928 19.9265,27.292928 23.3515,27.292928 L 41.3125,27.325928 C 44.2165,27.325928 46.5705,27.205928 46.5705,24.595928 C 46.5705,21.984928 44.5705,19.513928 41.4675,19.713928 z "
       i:knockout="Off" />
    <g
       transform="translate(-0.275496,-0.861072)"
       id="g6630"
       i:knockout="Off">
      <g
         id="g6632">
        <path
           style="fill:white"
           id="path6634"
           d="M 38.233,26.816 C 40.53,26.816 42.391,26.72 42.391,24.656 C 42.391,22.593 40.53,20.92 38.233,20.92 L 38.11,20.928 C 38.397,20.494 38.561,20 38.561,19.471 C 38.561,17.795 36.903,16.336 34.864,17.297 L 34.864,17.297 C 34.038,15.363 32.094,14.008 29.827,14.008 C 26.807,14.008 24.362,16.411 24.362,19.379 L 24.378,19.158 C 24.265,19.149 24.15,19.146 24.034,19.146 C 21.327,19.146 19.13,21.32 19.13,24.003 C 19.13,26.685 21.327,26.789 24.034,26.789 L 38.233,26.816 z "
           i:knockout="Off" />
      </g>
    </g>
    <path
       style="fill:#c3dbe5"
       id="path6636"
       d="M 24.5785,18.285928 C 25.4065,18.354928 27.5475,19.735928 27.5475,20.218928 C 27.8225,19.114928 30.5845,16.353928 33.8265,16.629928 C 33.2055,15.870928 28.9965,15.317928 27.4765,17.941928 C 26.9945,17.250928 24.9925,17.527928 24.5785,18.285928"
       i:knockout="Off" />
    <g
       id="g12227"
       transform="translate(-209.3571,272.8551)">
      <path
         sodipodi:nodetypes="cccc"
         id="path12229"
         d="M 231.62587,-228.77086 C 230.58662,-229.36665 230.23015,-230.68774 230.83016,-231.71967 C 232.16166,-233.80243 233.93524,-233.26584 234.84231,-235.46138 C 236.10323,-234.12777 235.63545,-227.21367 231.62587,-228.77086 z "
         style="fill:#729fcf;fill-opacity:1;stroke:#204a87;stroke-width:1.07456863;stroke-linecap:butt;stroke-linejoin:miter;stroke-miterlimit:2;stroke-dasharray:none;stroke-dashoffset:0;stroke-opacity:1" />
      <path
         sodipodi:nodetypes="csscc"
         id="path12231"
         d="M 234.31017,-229.9035 C 233.82059,-229.03976 232.73502,-228.74348 231.88703,-229.24216 C 231.03903,-229.74084 230.74816,-230.84657 231.23774,-231.71031 C 231.72733,-232.57405 233.84374,-232.16235 234.58388,-234 C 235.43187,-233.50133 234.79976,-230.76724 234.31017,-229.9035 z "
         style="opacity:0.46111109;fill:url(#radialGradient12235);fill-opacity:1;stroke:none;stroke-width:1.07457018;stroke-linecap:butt;stroke-linejoin:miter;stroke-miterlimit:0;stroke-dashoffset:0;stroke-opacity:1" />
      <path
         sodipodi:nodetypes="ccc"
         id="path12233"
         d="M 233.02237,-229 C 228.40776,-230.07384 233.25985,-233.71939 234,-232.92154 C 230.4176,-231.55118 233.02237,-229 233.02237,-229 z "
         style="opacity:1;fill:url(#linearGradient12237);fill-opacity:1;stroke:none;stroke-width:1.07457018;stroke-linecap:butt;stroke-linejoin:miter;stroke-miterlimit:0;stroke-dashoffset:0;stroke-opacity:1" />
    </g>
    <g
       id="g12239"
       transform="translate(-200.3587,269.8551)">
      <path
         sodipodi:nodetypes="cccc"
         id="path12241"
         d="M 231.62587,-228.77086 C 230.58662,-229.36665 230.23015,-230.68774 230.83016,-231.71967 C 232.16166,-233.80243 233.93524,-233.26584 234.84231,-235.46138 C 236.10323,-234.12777 235.63545,-227.21367 231.62587,-228.77086 z "
         style="fill:#729fcf;fill-opacity:1;stroke:#204a87;stroke-width:1.07456863;stroke-linecap:butt;stroke-linejoin:miter;stroke-miterlimit:2;stroke-dasharray:none;stroke-dashoffset:0;stroke-opacity:1" />
      <path
         sodipodi:nodetypes="csscc"
         id="path12243"
         d="M 234.31017,-229.9035 C 233.82059,-229.03976 232.73502,-228.74348 231.88703,-229.24216 C 231.03903,-229.74084 230.74816,-230.84657 231.23774,-231.71031 C 231.72733,-232.57405 233.84374,-232.16235 234.58388,-234 C 235.43187,-233.50133 234.79976,-230.76724 234.31017,-229.9035 z "
         style="opacity:0.46111109;fill:url(#radialGradient12247);fill-opacity:1;stroke:none;stroke-width:1.07457018;stroke-linecap:butt;stroke-linejoin:miter;stroke-miterlimit:0;stroke-dashoffset:0;stroke-opacity:1" />
      <path
         sodipodi:nodetypes="ccc"
         id="path12245"
         d="M 233.02237,-229 C 228.40776,-230.07384 233.25985,-233.71939 234,-232.92154 C 230.4176,-231.55118 233.02237,-229 233.02237,-229 z "
         style="opacity:1;fill:url(#linearGradient12249);fill-opacity:1;stroke:none;stroke-width:1.07457018;stroke-linecap:butt;stroke-linejoin:miter;stroke-miterlimit:0;stroke-dashoffset:0;stroke-opacity:1" />
    </g>
    <g
       id="g12186"
       transform="translate(-226.6429,268.5707)">
      <path
         sodipodi:nodetypes="cccc"
         id="path6059"
         d="M 231.62587,-228.77086 C 230.58662,-229.36665 230.23015,-230.68774 230.83016,-231.71967 C 232.16166,-233.80243 233.93524,-233.26584 234.84231,-235.46138 C 236.10323,-234.12777 235.63545,-227.21367 231.62587,-228.77086 z "
         style="fill:#729fcf;fill-opacity:1;stroke:#204a87;stroke-width:1.07456863;stroke-linecap:butt;stroke-linejoin:miter;stroke-miterlimit:2;stroke-dasharray:none;stroke-dashoffset:0;stroke-opacity:1" />
      <path
         sodipodi:nodetypes="csscc"
         id="path6061"
         d="M 234.31017,-229.9035 C 233.82059,-229.03976 232.73502,-228.74348 231.88703,-229.24216 C 231.03903,-229.74084 230.74816,-230.84657 231.23774,-231.71031 C 231.72733,-232.57405 233.84374,-232.16235 234.58388,-234 C 235.43187,-233.50133 234.79976,-230.76724 234.31017,-229.9035 z "
         style="opacity:0.46111109;fill:url(#radialGradient12251);fill-opacity:1;stroke:none;stroke-width:1.07457018;stroke-linecap:butt;stroke-linejoin:miter;stroke-miterlimit:0;stroke-dashoffset:0;stroke-opacity:1" />
      <path
         sodipodi:nodetypes="ccc"
         id="path6063"
         d="M 233.02237,-229 C 228.40776,-230.07384 233.25985,-233.71939 234,-232.92154 C 230.4176,-231.55118 233.02237,-229 233.02237,-229 z "
         style="opacity:1;fill:url(#linearGradient12253);fill-opacity:1;stroke:none;stroke-width:1.07457018;stroke-linecap:butt;stroke-linejoin:miter;stroke-miterlimit:0;stroke-dashoffset:0;stroke-opacity:1" />
    </g>
    <g
       id="g12203"
       transform="translate(-216.6444,263.5694)">
      <path
         sodipodi:nodetypes="cccc"
         id="path12205"
         d="M 231.62587,-228.77086 C 230.58662,-229.36665 230.23015,-230.68774 230.83016,-231.71967 C 232.16166,-233.80243 233.93524,-233.26584 234.84231,-235.46138 C 236.10323,-234.12777 235.63545,-227.21367 231.62587,-228.77086 z "
         style="fill:#729fcf;fill-opacity:1;stroke:#204a87;stroke-width:1.07456863;stroke-linecap:butt;stroke-linejoin:miter;stroke-miterlimit:2;stroke-dasharray:none;stroke-dashoffset:0;stroke-opacity:1" />
      <path
         sodipodi:nodetypes="csscc"
         id="path12207"
         d="M 234.31017,-229.9035 C 233.82059,-229.03976 232.73502,-228.74348 231.88703,-229.24216 C 231.03903,-229.74084 230.74816,-230.84657 231.23774,-231.71031 C 231.72733,-232.57405 233.84374,-232.16235 234.58388,-234 C 235.43187,-233.50133 234.79976,-230.76724 234.31017,-229.9035 z "
         style="opacity:0.46111109;fill:url(#radialGradient12211);fill-opacity:1;stroke:none;stroke-width:1.07457018;stroke-linecap:butt;stroke-linejoin:miter;stroke-miterlimit:0;stroke-dashoffset:0;stroke-opacity:1" />
      <path
         sodipodi:nodetypes="ccc"
         id="path12209"
         d="M 233.02237,-229 C 228.40776,-230.07384 233.25985,-233.71939 234,-232.92154 C 230.4176,-231.55118 233.02237,-229 233.02237,-229 z "
         style="opacity:1;fill:url(#linearGradient12213);fill-opacity:1;stroke:none;stroke-width:1.07457018;stroke-linecap:butt;stroke-linejoin:miter;stroke-miterlimit:0;stroke-dashoffset:0;stroke-opacity:1" />
    </g>
    <g
       id="g117663"
       transform="translate(-193.0007,263.9987)">
      <path
         sodipodi:nodetypes="cccc"
         id="path117665"
         d="M 231.62587,-228.77086 C 230.58662,-229.36665 230.23015,-230.68774 230.83016,-231.71967 C 232.16166,-233.80243 233.93524,-233.26584 234.84231,-235.46138 C 236.10323,-234.12777 235.63545,-227.21367 231.62587,-228.77086 z "
         style="fill:#729fcf;fill-opacity:1;stroke:#204a87;stroke-width:1.07456863;stroke-linecap:butt;stroke-linejoin:miter;stroke-miterlimit:2;stroke-dasharray:none;stroke-dashoffset:0;stroke-opacity:1" />
      <path
         sodipodi:nodetypes="csscc"
         id="path117667"
         d="M 234.31017,-229.9035 C 233.82059,-229.03976 232.73502,-228.74348 231.88703,-229.24216 C 231.03903,-229.74084 230.74816,-230.84657 231.23774,-231.71031 C 231.72733,-232.57405 233.84374,-232.16235 234.58388,-234 C 235.43187,-233.50133 234.79976,-230.76724 234.31017,-229.9035 z "
         style="opacity:0.46111109;fill:url(#radialGradient117671);fill-opacity:1;stroke:none;stroke-width:1.07457018;stroke-linecap:butt;stroke-linejoin:miter;stroke-miterlimit:0;stroke-dashoffset:0;stroke-opacity:1" />
      <path
         sodipodi:nodetypes="ccc"
         id="path117669"
         d="M 233.02237,-229 C 228.40776,-230.07384 233.25985,-233.71939 234,-232.92154 C 230.4176,-231.55118 233.02237,-229 233.02237,-229 z "
         style="opacity:1;fill:url(#linearGradient117673);fill-opacity:1;stroke:none;stroke-width:1.07457018;stroke-linecap:butt;stroke-linejoin:miter;stroke-miterlimit:0;stroke-dashoffset:0;stroke-opacity:1" />
    </g>
  </g>
</svg>
