<?xml version="1.0" encoding="UTF-8" standalone="no"?>
<!-- Created with Inkscape (http://www.inkscape.org/) -->

<svg
   xmlns:dc="http://purl.org/dc/elements/1.1/"
   xmlns:cc="http://creativecommons.org/ns#"
   xmlns:rdf="http://www.w3.org/1999/02/22-rdf-syntax-ns#"
   xmlns:svg="http://www.w3.org/2000/svg"
   xmlns="http://www.w3.org/2000/svg"
   xmlns:xlink="http://www.w3.org/1999/xlink"
   xmlns:sodipodi="http://sodipodi.sourceforge.net/DTD/sodipodi-0.dtd"
   xmlns:inkscape="http://www.inkscape.org/namespaces/inkscape"
   width="48px"
   height="48px"
   id="svg7667"
   version="1.1"
   inkscape:version="0.48.5 r10040"
   sodipodi:docname="rbdconvexobjects.svg">
  <defs
     id="defs7669">
    <linearGradient
       id="linearGradient3931">
      <stop
         style="stop-color:#fdd497;stop-opacity:1;"
         offset="0"
         id="stop3933" />
      <stop
         style="stop-color:#fcaf3e;stop-opacity:1;"
         offset="1"
         id="stop3935" />
    </linearGradient>
    <linearGradient
       id="linearGradient3915">
      <stop
         style="stop-color:#f9b2b2;stop-opacity:1;"
         offset="0"
         id="stop3917" />
      <stop
         style="stop-color:#ef2929;stop-opacity:1;"
         offset="1"
         id="stop3919" />
    </linearGradient>
    <linearGradient
       id="linearGradient3907">
      <stop
         style="stop-color:#ffffff;stop-opacity:1;"
         offset="0"
         id="stop3909" />
      <stop
         style="stop-color:#fce94f;stop-opacity:1;"
         offset="1"
         id="stop3911" />
    </linearGradient>
    <linearGradient
       id="linearGradient3899">
      <stop
         style="stop-color:#d8c1d5;stop-opacity:1;"
         offset="0"
         id="stop3901" />
      <stop
         style="stop-color:#ad7fa8;stop-opacity:1;"
         offset="1"
         id="stop3903" />
    </linearGradient>
    <linearGradient
       id="linearGradient3889">
      <stop
         style="stop-color:#ffffff;stop-opacity:1;"
         offset="0"
         id="stop3891" />
      <stop
         style="stop-color:#a8a89e;stop-opacity:1;"
         offset="1"
         id="stop3893" />
    </linearGradient>
    <linearGradient
       id="linearGradient3881">
      <stop
         style="stop-color:#c5d7eb;stop-opacity:1;"
         offset="0"
         id="stop3883" />
      <stop
         style="stop-color:#729fcf;stop-opacity:1;"
         offset="1"
         id="stop3885" />
    </linearGradient>
    <radialGradient
       inkscape:collect="always"
       xlink:href="#linearGradient3881"
       id="radialGradient3887"
       cx="39.674717"
       cy="3.8096964"
       fx="39.674717"
       fy="3.8096964"
       r="5.7865276"
       gradientTransform="matrix(1,0,0,0.76142708,0,1.2728705)"
       gradientUnits="userSpaceOnUse" />
    <radialGradient
       inkscape:collect="always"
       xlink:href="#linearGradient3889"
       id="radialGradient3897"
       cx="35.481609"
       cy="15.370639"
       fx="35.481609"
       fy="15.370639"
       r="4.6163716"
       gradientTransform="matrix(0.52984657,0.09679393,-0.41178286,2.2540849,23.011166,-22.683022)"
       gradientUnits="userSpaceOnUse" />
    <radialGradient
       inkscape:collect="always"
       xlink:href="#linearGradient3899"
       id="radialGradient3905"
       cx="33.155052"
       cy="31.053383"
       fx="33.155052"
       fy="31.053383"
       r="4.9354572"
       gradientTransform="matrix(0.99654558,0.08304765,-0.11256989,1.3508033,3.6102076,-14.590544)"
       gradientUnits="userSpaceOnUse" />
    <radialGradient
       inkscape:collect="always"
       xlink:href="#linearGradient3907"
       id="radialGradient3913"
       cx="16.69277"
       cy="28.91543"
       fx="16.69277"
       fy="28.91543"
       r="7.394291"
       gradientTransform="matrix(1,0,0,0.96020528,0,1.2616228)"
       gradientUnits="userSpaceOnUse" />
    <radialGradient
       inkscape:collect="always"
       xlink:href="#linearGradient3915"
       id="radialGradient3921"
       cx="24.251377"
       cy="24.150507"
       fx="24.251377"
       fy="24.150507"
       r="14.249813"
       gradientTransform="matrix(1,0,0,0.67571208,0,9.6981691)"
       gradientUnits="userSpaceOnUse" />
    <radialGradient
       inkscape:collect="always"
       xlink:href="#linearGradient3881"
       id="radialGradient3929"
       cx="16.830412"
       cy="36.445259"
       fx="16.830412"
       fy="36.445259"
       r="3.238785"
       gradientTransform="matrix(1,0,0,1.4283435,0,-16.035196)"
       gradientUnits="userSpaceOnUse" />
    <radialGradient
       inkscape:collect="always"
       xlink:href="#linearGradient3931"
       id="radialGradient3937"
       cx="33.335033"
       cy="41.777607"
       fx="33.335033"
       fy="41.777607"
       r="3.227412"
       gradientTransform="matrix(1,0,0,1.4285991,0,-18.178599)"
       gradientUnits="userSpaceOnUse" />
    <radialGradient
       inkscape:collect="always"
       xlink:href="#linearGradient3899"
       id="radialGradient3945"
       cx="9.2428961"
       cy="33.998466"
       fx="9.2428961"
       fy="33.998466"
       r="4.6416254"
       gradientTransform="matrix(1,0,0,0.75613608,0,8.5842082)"
       gradientUnits="userSpaceOnUse" />
  </defs>
  <sodipodi:namedview
     id="base"
     pagecolor="#ffffff"
     bordercolor="#666666"
     borderopacity="1.0"
     inkscape:pageopacity="0.0"
     inkscape:pageshadow="2"
     inkscape:zoom="19.79899"
     inkscape:cx="16.171318"
     inkscape:cy="25.513127"
     inkscape:current-layer="layer2"
     showgrid="true"
     inkscape:grid-bbox="true"
     inkscape:document-units="px"
     inkscape:window-width="2880"
     inkscape:window-height="1557"
     inkscape:window-x="-8"
     inkscape:window-y="-8"
     inkscape:window-maximized="1" />
  <metadata
     id="metadata7672">
    <rdf:RDF>
      <cc:Work
         rdf:about="">
        <dc:format>image/svg+xml</dc:format>
        <dc:type
           rdf:resource="http://purl.org/dc/dcmitype/StillImage" />
        <dc:title></dc:title>
      </cc:Work>
    </rdf:RDF>
  </metadata>
  <g
     id="layer1"
     inkscape:label="Layer 1"
     inkscape:groupmode="layer">
    <path
       style="fill:#c9f2a1;fill-opacity:1;stroke:#376c05;stroke-width:1px;stroke-linecap:butt;stroke-linejoin:miter;stroke-opacity:1"
       d="M 47.331744,7.0474099 C 47.676296,3.2582096 43.637734,0.39411352 40.253014,0.62376263 36.868292,0.85341175 35.107659,3.697464 34.488905,6.3950082 c -0.618753,2.6975442 -1.05191,14.7740858 -2.78093,15.9085628 -1.729019,1.134477 -4.313153,-2.566862 -8.747288,-2.559422 -4.434134,0.0075 -7.502366,1.630198 -9.349537,4.454196 -1.847171,2.823999 -2.290992,8.142793 -4.1506104,8.242545 -1.8596179,0.09975 -4.151238,-2.795681 -5.0511681,-4.619258 -0.89993,-1.823578 -2.0146133,-8.560774 -2.9882461,-11.640599 -1.49334227,6.019004 -0.95185118,18.373214 3.893302,20.977223 4.8451526,2.604009 6.8970756,2.110063 8.7472866,1.405173 0.282778,1.703978 -1.09211,7.562753 -0.707874,8.531406 0.384236,0.968653 7.339973,0.691389 8.089978,-0.100369 0.750004,-0.791759 -0.954329,-5.500549 -0.455061,-7.72845 2.319513,0.783184 8.084959,0.433345 9.960783,-0.20074 0.207267,2.377 -0.09388,6.707224 0.05057,7.628081 0.144443,0.920858 6.394267,0.86307 6.927042,-0.100369 0.532775,-0.963441 -0.635852,-5.288209 -0.404499,-8.431037 0.231353,-3.142828 2.339755,-3.289053 2.477556,-7.628082 0.137802,-4.339029 -1.490862,-5.905325 -1.466309,-8.330667 0.02455,-2.425342 1.397242,-11.002517 2.831494,-12.044338 1.434249,-1.0418209 5.621805,0.677746 5.966354,-3.1114541 z"
       id="path7675"
       inkscape:connector-curvature="0"
       sodipodi:nodetypes="zzzzzzzzczczzcczzzzzzz" />
    <path
       sodipodi:type="inkscape:offset"
       inkscape:radius="-1.0354831"
       inkscape:original="M 40.21875 0.625 C 36.837692 0.85612666 35.055584 3.7226001 34.4375 6.4375 C 33.819416 9.1523999 33.414648 21.295724 31.6875 22.4375 C 29.960352 23.579276 27.366835 19.867512 22.9375 19.875 C 18.508165 19.8825 15.438922 21.501582 13.59375 24.34375 C 11.748578 27.185918 11.295105 32.555856 9.4375 32.65625 C 7.5798949 32.756644 5.305206 29.83531 4.40625 28 C 3.507294 26.16469 2.378829 19.38089 1.40625 16.28125 C -0.08547599 22.33898 0.47259101 34.785487 5.3125 37.40625 C 10.152409 40.027013 12.214292 39.521925 14.0625 38.8125 C 14.344972 40.527441 12.95993 46.431365 13.34375 47.40625 C 13.72757 48.381135 20.657057 48.078103 21.40625 47.28125 C 22.155443 46.484397 20.470022 41.742235 20.96875 39.5 C 23.285753 40.288223 29.032456 39.950665 30.90625 39.3125 C 31.113292 41.704793 30.82446 46.073218 30.96875 47 C 31.113037 47.926783 37.342802 47.844638 37.875 46.875 C 38.407199 45.905361 37.237647 41.569299 37.46875 38.40625 C 37.699853 35.243201 39.831098 35.085696 39.96875 30.71875 C 40.106402 26.351804 38.475473 24.784696 38.5 22.34375 C 38.52453 19.902804 39.879802 11.267274 41.3125 10.21875 C 42.745197 9.170226 46.937074 10.907329 47.28125 7.09375 C 47.625429 3.2801704 43.599807 0.39387335 40.21875 0.625 z "
       style="fill:#c9f2a1;fill-opacity:1;stroke:#ffffff;stroke-width:1.00266874;stroke-linecap:butt;stroke-linejoin:miter;stroke-miterlimit:10;stroke-opacity:1;stroke-dasharray:none"
       id="path8217"
       d="m 40.28125,1.65625 c -1.412289,0.096543 -2.41968,0.7080655 -3.21875,1.625 -0.79907,0.9169345 -1.346264,2.1506695 -1.625,3.375 -0.245725,1.079332 -0.539685,4.95114 -0.9375,8.5 -0.198907,1.77443 -0.413864,3.498326 -0.71875,4.90625 -0.152443,0.703962 -0.319094,1.310137 -0.53125,1.84375 -0.212156,0.533613 -0.439679,1.035835 -1,1.40625 -0.74654,0.493519 -1.66532,0.4269 -2.375,0.1875 -0.70968,-0.2394 -1.360877,-0.611922 -2.0625,-1 -1.403246,-0.776156 -2.949916,-1.597004 -4.875,-1.59375 -4.177808,0.0071 -6.811347,1.447058 -8.46875,4 -0.781499,1.203764 -1.378992,3.186998 -1.96875,4.9375 -0.294879,0.875251 -0.590105,1.713632 -1,2.40625 -0.409895,0.692618 -1.04115,1.385679 -2,1.4375 C 8.008012,33.768134 6.8183148,32.824462 5.8125,31.78125 4.8066852,30.738038 3.974525,29.501341 3.46875,28.46875 2.872868,27.252196 2.4551718,25.163801 1.9375,22.84375 1.8777494,22.575966 1.8099783,22.395124 1.75,22.125 1.6888338,24.042151 1.743634,26.072136 2,28 c 0.5399583,4.060467 1.9814615,7.508511 3.8125,8.5 2.3413191,1.267801 3.9369389,1.716081 5.09375,1.8125 1.156811,0.09642 1.900661,-0.130741 2.78125,-0.46875 a 1.0355867,1.0355867 0 0 1 1.40625,0.8125 c 0.108157,0.656641 0.02495,1.34563 -0.0625,2.1875 -0.08745,0.84187 -0.212243,1.781256 -0.34375,2.6875 -0.131507,0.906244 -0.244853,1.78964 -0.3125,2.46875 -0.03133,0.31454 -0.05963,0.581717 -0.0625,0.78125 0.131229,0.03519 0.272419,0.06313 0.5,0.09375 0.625224,0.08411 1.509752,0.119346 2.40625,0.09375 0.896498,-0.0256 1.803463,-0.104123 2.5,-0.21875 0.348268,-0.05731 0.654681,-0.127845 0.84375,-0.1875 0.006,-0.110505 0.01509,-0.238416 0,-0.4375 -0.03881,-0.51193 -0.179842,-1.248681 -0.3125,-2.03125 -0.265316,-1.565139 -0.617881,-3.29904 -0.28125,-4.8125 a 1.0355867,1.0355867 0 0 1 1.34375,-0.75 c 0.868719,0.29553 2.852802,0.438512 4.75,0.375 1.897198,-0.06351 3.816162,-0.329603 4.5,-0.5625 a 1.0355867,1.0355867 0 0 1 1.375,0.875 c 0.111756,1.291296 0.09089,2.987844 0.0625,4.5 -0.01419,0.756078 -0.02778,1.468055 -0.03125,2.03125 -0.0022,0.354179 0.02236,0.486637 0.03125,0.6875 0.08073,0.02131 0.108097,0.04309 0.21875,0.0625 0.509729,0.08942 1.2599,0.137164 2.03125,0.125 0.77135,-0.01216 1.584981,-0.106787 2.15625,-0.21875 0.258751,-0.05071 0.435594,-0.107767 0.5625,-0.15625 -0.02632,-0.0013 0.02322,-0.15293 0,-0.59375 -0.0281,-0.533624 -0.120363,-1.263021 -0.21875,-2.0625 -0.196773,-1.598959 -0.439808,-3.50757 -0.3125,-5.25 0.132317,-1.810996 0.885271,-2.908312 1.4375,-3.84375 0.552229,-0.935438 0.998964,-1.796837 1.0625,-3.8125 0.06465,-2.050859 -0.282231,-3.362848 -0.65625,-4.5625 -0.374019,-1.199652 -0.827103,-2.327965 -0.8125,-3.78125 0.01407,-1.399816 0.374661,-4.133294 0.90625,-6.78125 0.265795,-1.323978 0.555755,-2.627031 0.90625,-3.6875 0.350495,-1.060469 0.564217,-1.8837559 1.40625,-2.5 0.662336,-0.4847327 1.375538,-0.5454521 2.03125,-0.59375 0.655712,-0.048298 1.304985,-0.051407 1.84375,-0.125 C 45.101265,8.5826571 45.507924,8.4534715 45.75,8.25 45.992076,8.0465285 46.181502,7.7589801 46.25,7 46.387502,5.4764476 45.654967,4.1258109 44.46875,3.125 43.282533,2.1241891 41.651282,1.5625956 40.28125,1.65625 z"
       transform="matrix(1.0010835,0,0,0.99360723,-7.4382351e-4,0.00390511)" />
  </g>
  <g
     inkscape:groupmode="layer"
     id="layer2"
     inkscape:label="Convex"
     style="display:inline;opacity:1">
    <path
       style="fill:url(#radialGradient3921);fill-opacity:1;stroke:#a40000;stroke-width:1;stroke-linecap:butt;stroke-linejoin:miter;stroke-miterlimit:10;stroke-opacity:1"
       d="m 32.334706,23.168151 c -0.747349,0.490363 -1.667124,0.42417 -2.377573,0.1863 -0.710449,-0.237868 -1.362352,-0.608009 -2.064735,-0.993606 -1.404766,-0.771194 -2.953112,-1.586795 -4.880282,-1.583561 -4.182334,0.0071 -6.818727,1.437807 -8.477926,3.974427 -0.782345,1.19607 -1.380486,3.166626 -1.970883,4.905937 -0.295198,0.869656 -0.590744,1.702677 -1.001083,2.390868 0.968037,1.194403 2.750711,3.506743 2.18987,5.55799 0,0 1.317418,0.195562 1.407774,0.807306 l 4.880282,0.621004 c 0.128685,-0.560159 0.797295,-0.930549 1.345205,-0.745205 0.869661,0.293641 2.855893,0.435709 4.755147,0.372603 1.899254,-0.0631 3.820297,-0.327496 4.504876,-0.558904 0.590374,-0.206642 1.31505,0.251071 1.376489,0.869406 l 4.504876,-0.869406 c 0.132461,-1.799419 0.88623,-2.88972 1.439058,-3.819178 0.552827,-0.929458 0.93077,-1.788752 1.063651,-3.788128 0.128065,-1.926896 -0.113164,-3.411126 -0.909499,-5.341455 -2.065443,-0.297331 -3.853243,-0.0878 -5.785247,-1.986398 z"
       id="path8350"
       inkscape:connector-curvature="0"
       sodipodi:nodetypes="cssssscccccscccsscc" />
    <path
       style="fill:url(#radialGradient3913);stroke:#c4a000;stroke-width:1px;stroke-linecap:butt;stroke-linejoin:miter;stroke-opacity:1;fill-opacity:1"
       d="m 14.091627,37.646713 c -0.457261,-1.973333 -1.129952,-4.019078 -2.626396,-5.606346 0,0 3.972037,-7.342338 7.525636,-6.919546 3.553599,0.422793 6.262946,9.343912 6.262946,9.343912 l -4.192133,3.83858 z"
       id="path8361"
       inkscape:connector-curvature="0"
       sodipodi:nodetypes="cczccc" />
    <path
       style="fill:url(#radialGradient3929);stroke:#204a87;stroke-width:1px;stroke-linecap:butt;stroke-linejoin:miter;stroke-opacity:1;fill-opacity:1"
       d="m 14.849242,40.727679 c 0.109363,-2.357023 0.306453,-4.714045 1.212183,-7.071068 1.378253,-0.410264 2.744383,-0.675068 3.990102,0.505076 0.445165,2.528354 0.265998,4.806975 0.05051,7.071068 -1.750932,0.553586 -3.501863,0.4227 -5.252795,-0.505076 z"
       id="path8353"
       inkscape:connector-curvature="0"
       sodipodi:nodetypes="ccccc" />
    <path
       style="fill:url(#radialGradient3897);stroke:#888a85;stroke-width:1px;stroke-linecap:butt;stroke-linejoin:miter;stroke-opacity:1;fill-opacity:1"
       d="m 32.476404,23.100517 c 1.315986,-2.249404 2.433451,-14.4538435 3.030457,-17.374624 1.237648,0.03211 3.779425,1.774491 5.202286,3.3335034 -1.554939,3.3999476 -3.647288,11.9880386 -2.727412,15.8088866 -2.066527,0.31529 -3.842828,-0.06294 -5.505331,-1.767766 z"
       id="path8365"
       inkscape:connector-curvature="0"
       sodipodi:nodetypes="ccccc" />
    <path
       style="fill:url(#radialGradient3905);stroke:#5c3566;stroke-width:1px;stroke-linecap:butt;stroke-linejoin:miter;stroke-opacity:1;fill-opacity:1"
       d="m 31.92082,39.970064 c -1.143792,-3.740364 -2.110689,-8.74751 -1.262691,-12.222846 1.36231,-1.768902 5.266073,-2.620943 7.828683,-2.474874 0,0 0.832336,3.040876 0.707107,5.353809 -0.125229,2.312934 -2.525382,7.525637 -2.525382,7.525637 -1.470634,1.221754 -3.009254,2.069583 -4.747717,1.818274 z"
       id="path8357"
       inkscape:connector-curvature="0"
       sodipodi:nodetypes="ccczcc" />
    <path
       style="fill:#8ae234;stroke:#4e9a06;stroke-width:1px;stroke-linecap:butt;stroke-linejoin:miter;stroke-opacity:1"
       d="m 14.192642,46.43504 0.6566,-6.010407 c 0.656331,0.552133 3.05434,1.192091 5.252793,0.404061 l 0.606092,5.555839 c -2.242032,0.676621 -4.960712,0.649166 -6.515485,0.05051 z"
       id="path8359"
       inkscape:connector-curvature="0"
       sodipodi:nodetypes="ccccc" />
    <path
       style="fill:url(#radialGradient3937);stroke:#ce5c00;stroke-width:1px;stroke-linecap:butt;stroke-linejoin:miter;stroke-opacity:1;fill-opacity:1"
       d="m 31.769297,46.131995 0.151523,-6.262946 c 1.717586,0.395667 3.499203,-0.562879 4.646702,-1.565736 l 0.656599,7.677159 c -1.670088,0.475048 -3.652439,0.867147 -5.454824,0.151523 z"
       id="path8363"
       inkscape:connector-curvature="0"
       sodipodi:nodetypes="ccccc" />
    <path
       style="fill:url(#radialGradient3945);stroke:#5c3566;stroke-width:1px;stroke-linecap:butt;stroke-linejoin:miter;stroke-opacity:1;fill-opacity:1"
       d="m 6.7175144,32.292128 c 2.1061387,1.305497 3.7851156,0.689073 4.7982246,-0.101015 1.981659,1.232993 2.175733,3.591709 2.424366,5.757869 -2.729392,0.598961 -5.3635778,0.226559 -8.2832508,-1.717259 z"
       id="path3875"
       inkscape:connector-curvature="0"
       sodipodi:nodetypes="ccccc" />
    <path
       style="fill:#fcaf3e;stroke:#ce5c00;stroke-width:1px;stroke-linecap:butt;stroke-linejoin:miter;stroke-opacity:1"
       d="M 5.2527932,35.87817 C 3.8941284,34.831825 2.489195,31.99034 2.1718279,29.05964 l 1.4647212,-0.909137 c 0.6365404,1.720482 1.7572663,2.855763 3.1314729,4.141625 z"
       id="path3877"
       inkscape:connector-curvature="0"
       sodipodi:nodetypes="ccccc" />
    <path
       style="fill:#ef2929;stroke:#a40000;stroke-width:1;stroke-linecap:butt;stroke-linejoin:miter;stroke-opacity:1;stroke-miterlimit:8;stroke-dasharray:none"
       d="M 2.0203051,28.756594 C 1.2610095,26.318478 1.6426638,23.690204 1.6162441,21.129942 l 1.9192898,6.869038 z"
       id="path3879"
       inkscape:connector-curvature="0"
       sodipodi:nodetypes="cccc" />
    <path
       style="fill:url(#radialGradient3887);stroke:#204a87;stroke-width:1px;stroke-linecap:butt;stroke-linejoin:miter;stroke-opacity:1;fill-opacity:1"
       d="M 36.011938,6.5837459 C 35.531499,3.9101175 38.11637,1.5285444 40.759655,1.431968 43.40294,1.335392 46.727342,3.9091238 46.517524,6.5837459 46.307706,9.258368 43.186824,9.095295 41.113208,9.2101425 39.039592,9.32499 36.492378,9.2573745 36.011938,6.5837459 z"
       id="path3873"
       inkscape:connector-curvature="0"
       sodipodi:nodetypes="zzzzz" />
  </g>
</svg>
