<?xml version="1.0" encoding="UTF-8" standalone="no"?>
<!-- Created with Inkscape (http://www.inkscape.org/) -->
<svg
   xmlns:a="http://ns.adobe.com/AdobeSVGViewerExtensions/3.0/"
   xmlns:i="http://ns.adobe.com/AdobeIllustrator/10.0/"
   xmlns:dc="http://purl.org/dc/elements/1.1/"
   xmlns:cc="http://web.resource.org/cc/"
   xmlns:rdf="http://www.w3.org/1999/02/22-rdf-syntax-ns#"
   xmlns:svg="http://www.w3.org/2000/svg"
   xmlns="http://www.w3.org/2000/svg"
   xmlns:sodipodi="http://sodipodi.sourceforge.net/DTD/sodipodi-0.dtd"
   xmlns:inkscape="http://www.inkscape.org/namespaces/inkscape"
   width="48px"
   height="48px"
   id="svg9687"
   sodipodi:version="0.32"
   inkscape:version="0.45.1"
   sodipodi:docbase="C:\dev\src\houdini\support\icons\Incoming"
   sodipodi:docname="remove_object.svg"
   inkscape:output_extension="org.inkscape.output.svg.inkscape">
  <defs
     id="defs9689">
    <radialGradient
       gradientUnits="userSpaceOnUse"
       fy="337.08151"
       fx="19.4946"
       r="30.7005"
       cy="337.08151"
       cx="19.4946"
       id="XMLID_134_">
						<stop
   id="stop6399"
   style="stop-color:#FFFFFF"
   offset="0" />

						<stop
   id="stop6401"
   style="stop-color:#8794A0"
   offset="1" />

						<a:midPointStop
   style="stop-color:#FFFFFF"
   offset="0" />

						<a:midPointStop
   style="stop-color:#FFFFFF"
   offset="0.5" />

						<a:midPointStop
   style="stop-color:#8794A0"
   offset="1" />

					</radialGradient>
    <radialGradient
       gradientUnits="userSpaceOnUse"
       fy="315.74271"
       fx="31.7285"
       r="9.9143"
       cy="315.74271"
       cx="31.7285"
       id="XMLID_135_">
						<stop
   id="stop6406"
   style="stop-color:#FFFFFF"
   offset="0" />

						<stop
   id="stop6408"
   style="stop-color:#8794A0"
   offset="1" />

						<a:midPointStop
   style="stop-color:#FFFFFF"
   offset="0" />

						<a:midPointStop
   style="stop-color:#FFFFFF"
   offset="0.5" />

						<a:midPointStop
   style="stop-color:#8794A0"
   offset="1" />

					</radialGradient>
    <radialGradient
       gradientUnits="userSpaceOnUse"
       fy="313.9292"
       fx="5.9878001"
       r="23.0877"
       cy="313.9292"
       cx="5.9878001"
       id="XMLID_136_">
						<stop
   id="stop6415"
   style="stop-color:#FFFFFF"
   offset="0" />

						<stop
   id="stop6417"
   style="stop-color:#8794A0"
   offset="1" />

						<a:midPointStop
   style="stop-color:#FFFFFF"
   offset="0" />

						<a:midPointStop
   style="stop-color:#FFFFFF"
   offset="0.5" />

						<a:midPointStop
   style="stop-color:#8794A0"
   offset="1" />

					</radialGradient>
    <radialGradient
       gradientUnits="userSpaceOnUse"
       fy="292.8335"
       fx="19.084499"
       r="42.124001"
       cy="292.8335"
       cx="19.084499"
       id="XMLID_137_">
						<stop
   id="stop6426"
   style="stop-color:#FFFFFF"
   offset="0" />

						<stop
   id="stop6428"
   style="stop-color:#8794A0"
   offset="1" />

						<a:midPointStop
   style="stop-color:#FFFFFF"
   offset="0" />

						<a:midPointStop
   style="stop-color:#FFFFFF"
   offset="0.5" />

						<a:midPointStop
   style="stop-color:#8794A0"
   offset="1" />

					</radialGradient>
    <radialGradient
       gradientUnits="userSpaceOnUse"
       fy="335.19089"
       fx="24.9741"
       r="36.271801"
       cy="335.19089"
       cx="24.9741"
       id="XMLID_138_">
						<stop
   id="stop6433"
   style="stop-color:#FFFFFF"
   offset="0" />

						<stop
   id="stop6435"
   style="stop-color:#8794A0"
   offset="1" />

						<a:midPointStop
   style="stop-color:#FFFFFF"
   offset="0" />

						<a:midPointStop
   style="stop-color:#FFFFFF"
   offset="0.5" />

						<a:midPointStop
   style="stop-color:#8794A0"
   offset="1" />

					</radialGradient>
    <radialGradient
       gradientUnits="userSpaceOnUse"
       fy="327.79541"
       fx="40.4258"
       r="43.2486"
       cy="327.79541"
       cx="40.4258"
       id="XMLID_139_">
						<stop
   id="stop6440"
   style="stop-color:#FFFFFF"
   offset="0" />

						<stop
   id="stop6442"
   style="stop-color:#8794A0"
   offset="1" />

						<a:midPointStop
   style="stop-color:#FFFFFF"
   offset="0" />

						<a:midPointStop
   style="stop-color:#FFFFFF"
   offset="0.5" />

						<a:midPointStop
   style="stop-color:#8794A0"
   offset="1" />

					</radialGradient>
    <linearGradient
       y2="321.46829"
       x2="36.726601"
       y1="298.98779"
       x1="14.2461"
       gradientUnits="userSpaceOnUse"
       id="XMLID_142_">
									<stop
   id="stop6485"
   style="stop-color:#CB1009"
   offset="0.5449" />

									<stop
   id="stop6487"
   style="stop-color:#DC6247"
   offset="1" />

									<a:midPointStop
   style="stop-color:#CB1009"
   offset="0.5449" />

									<a:midPointStop
   style="stop-color:#CB1009"
   offset="0.5" />

									<a:midPointStop
   style="stop-color:#DC6247"
   offset="1" />

								</linearGradient>
    <linearGradient
       y2="321.92191"
       x2="37.180698"
       y1="296.96631"
       x1="12.2251"
       gradientUnits="userSpaceOnUse"
       id="XMLID_141_">
									<stop
   id="stop6478"
   style="stop-color:#E9A389"
   offset="0" />

									<stop
   id="stop6480"
   style="stop-color:#CB1009"
   offset="1" />

									<a:midPointStop
   style="stop-color:#E9A389"
   offset="0" />

									<a:midPointStop
   style="stop-color:#E9A389"
   offset="0.5" />

									<a:midPointStop
   style="stop-color:#CB1009"
   offset="1" />

								</linearGradient>
    <linearGradient
       y2="310.63062"
       x2="25.8894"
       y1="308.37259"
       x1="23.6313"
       gradientUnits="userSpaceOnUse"
       id="XMLID_140_">
									<stop
   id="stop6465"
   style="stop-color:#E3876B"
   offset="0" />

									<stop
   id="stop6467"
   style="stop-color:#CB1009"
   offset="0.5449" />

									<a:midPointStop
   style="stop-color:#E3876B"
   offset="0" />

									<a:midPointStop
   style="stop-color:#E3876B"
   offset="0.5" />

									<a:midPointStop
   style="stop-color:#CB1009"
   offset="0.5449" />

								</linearGradient>
  </defs>
  <sodipodi:namedview
     id="base"
     pagecolor="#ffffff"
     bordercolor="#666666"
     borderopacity="1.0"
     inkscape:pageopacity="0.0"
     inkscape:pageshadow="2"
     inkscape:zoom="7"
     inkscape:cx="24"
     inkscape:cy="24"
     inkscape:current-layer="layer1"
     showgrid="true"
     inkscape:grid-bbox="true"
     inkscape:document-units="px"
     inkscape:window-width="744"
     inkscape:window-height="573"
     inkscape:window-x="220"
     inkscape:window-y="240" />
  <metadata
     id="metadata9692">
    <rdf:RDF>
      <cc:Work
         rdf:about="">
        <dc:format>image/svg+xml</dc:format>
        <dc:type
           rdf:resource="http://purl.org/dc/dcmitype/StillImage" />
      </cc:Work>
    </rdf:RDF>
  </metadata>
  <g
     id="layer1"
     inkscape:label="Layer 1"
     inkscape:groupmode="layer">
    <polygon
       transform="matrix(1.1354694,0,0,1.1353318,-1.8867729,-330.31102)"
       style="fill:url(#XMLID_134_)"
       id="polygon6403"
       points="19.71,318.299 19.763,332.641 4.027,332.627 3.627,318.343 19.71,318.299 "
       i:knockout="Off" />
    <polygon
       transform="matrix(1.1354694,0,0,1.1353318,-1.8867729,-330.31102)"
       style="fill:url(#XMLID_135_)"
       id="polygon6410"
       points="19.71,318.299 21.217,314.823 21.277,327.526 19.763,332.641 19.71,318.299 "
       i:knockout="Off" />
    <line
       style="fill:none;stroke:#ffffff;stroke-width:0.5"
       id="line6412"
       y2="31.113878"
       x2="20.098186"
       y1="47.346855"
       x1="20.098186"
       i:knockout="Off" />
    <polygon
       transform="matrix(1.1354694,0,0,1.1353318,-1.8867729,-330.31102)"
       style="fill:url(#XMLID_136_)"
       id="polygon6419"
       points="20.266,318.299 18.937,314.493 5.9,314.554 3.627,318.343 20.266,318.299 "
       i:knockout="Off" />
    <line
       style="fill:none;stroke:#ffffff;stroke-width:0.5"
       id="line6421"
       y2="31.113878"
       x2="21.124649"
       y1="31.113878"
       x1="2.231576"
       i:knockout="Off" />
    <polygon
       transform="matrix(1.1354694,0,0,1.1353318,-1.8867729,-330.31102)"
       style="fill:none;stroke:#192333;stroke-width:0.88074642"
       id="polygon6423"
       points="21.217,317.347 21.277,327.526 19.763,332.641 4.027,332.627 3.627,318.343 5.9,314.554 18.937,314.493 21.217,317.347 "
       i:knockout="Off" />
    <polygon
       transform="matrix(1.1354694,0,0,1.1353318,-1.8867729,-330.31102)"
       style="fill:url(#XMLID_137_)"
       id="polygon6430"
       points="21.663,303.615 20.702,296.887 13.761,307.401 13.829,315.157 21.663,303.615 "
       i:knockout="Off" />
    <polygon
       transform="matrix(1.1354694,0,0,1.1353318,-1.8867729,-330.31102)"
       style="fill:url(#XMLID_138_)"
       id="polygon6437"
       points="34.897,310.913 27.219,322.581 13.829,315.157 21.663,303.615 34.897,310.913 "
       i:knockout="Off" />
    <polygon
       transform="matrix(1.1354694,0,0,1.1353318,-1.8867729,-330.31102)"
       style="fill:url(#XMLID_139_)"
       id="polygon6444"
       points="20.702,296.887 31.658,302.456 34.897,310.913 21.663,303.615 20.702,296.887 "
       i:knockout="Off" />
    <line
       style="fill:none;stroke:#ffffff;stroke-width:1"
       id="line6446"
       y2="14.392713"
       x2="22.710899"
       y1="6.7542052"
       x1="21.619715"
       i:knockout="Off" />
    <polyline
       transform="matrix(1.1354694,0,0,1.1353318,-1.8867729,-330.31102)"
       style="fill:none;stroke:#ffffff;stroke-width:0.88074642"
       id="polyline6448"
       points="13.829,315.157 21.663,303.615 34.897,310.913 "
       i:knockout="Off" />
    <polygon
       transform="matrix(1.1354694,0,0,1.1353318,-1.8867729,-330.31102)"
       style="fill:none;stroke:#192333;stroke-width:0.88074642"
       id="polygon6450"
       points="34.897,310.913 31.658,302.456 20.702,296.887 13.761,307.401 13.829,315.157 27.219,322.581 34.897,310.913 "
       i:knockout="Off" />
    <g
       transform="matrix(1.1354694,0,0,1.1353318,-1.8867729,-330.31102)"
       id="g6452">
						<path
   style="fill:none;stroke:#991109;stroke-width:1.32111955"
   id="path6454"
   d="M 7.147,309.5 C 7.147,319.212 15.048,327.113 24.759,327.113 C 34.469,327.113 42.371,319.212 42.371,309.5 C 42.371,299.789 34.47,291.889 24.759,291.889 C 15.048,291.889 7.147,299.79 7.147,309.5 z "
   i:knockout="Off" />

						<path
   style="fill:none;stroke:#9a1309;stroke-width:1.32111955"
   id="path6456"
   d="M 10.189,309.5 C 10.189,301.466 16.725,294.93 24.76,294.93 C 32.795,294.93 39.33,301.466 39.33,309.5 C 39.33,317.535 32.794,324.071 24.76,324.071 C 16.725,324.072 10.189,317.536 10.189,309.5 z "
   i:knockout="Off" />

						<g
   id="g6458">
							
								<rect
   style="fill:#cb1009"
   id="rect6460"
   height="32.183998"
   width="3.0409999"
   transform="matrix(-0.707,-0.7072,0.7072,-0.707,-176.6094,545.8372)"
   i:knockout="Off"
   y="293.41"
   x="23.24" />
 
							<g
   id="g6462"
   i:knockout="Off">
								<linearGradient
   y2="310.63062"
   x2="25.8894"
   y1="308.37259"
   x1="23.6313"
   gradientUnits="userSpaceOnUse"
   id="linearGradient9740">
									<stop
   id="stop9742"
   style="stop-color:#E3876B"
   offset="0" />

									<stop
   id="stop9744"
   style="stop-color:#CB1009"
   offset="0.5449" />

									<a:midPointStop
   style="stop-color:#E3876B"
   offset="0" />

									<a:midPointStop
   style="stop-color:#E3876B"
   offset="0.5" />

									<a:midPointStop
   style="stop-color:#CB1009"
   offset="0.5449" />

								</linearGradient>

								<path
   style="fill:url(#XMLID_140_)"
   id="path6469"
   d="M 33.79,298.215 L 13.327,318.677 L 15.585,320.935 L 36.317,300.204 L 34.059,297.946 L 33.79,298.215 z M 35.063,298.015 C 35.375,298.327 35.934,298.886 36.246,299.198 C 35.727,299.718 14.975,320.469 14.456,320.989 C 14.144,320.676 13.585,320.118 13.273,319.805 C 13.792,319.287 34.545,298.534 35.063,298.015 z "
   i:knockout="Off" />

							</g>

						</g>

						<g
   id="g6471">
							<path
   style="fill:#cb1009"
   id="path6473"
   d="M 7.147,309.5 C 7.147,319.212 15.048,327.113 24.759,327.113 C 34.469,327.113 42.371,319.212 42.371,309.5 C 42.371,299.789 34.47,291.889 24.759,291.889 C 15.048,291.889 7.147,299.79 7.147,309.5 z M 10.189,309.5 C 10.189,301.466 16.726,294.93 24.76,294.93 C 32.795,294.93 39.33,301.466 39.33,309.5 C 39.33,317.535 32.794,324.071 24.76,324.071 C 16.726,324.072 10.189,317.536 10.189,309.5 z "
   i:knockout="Off" />

							<g
   id="g6475">
								<linearGradient
   y2="321.92191"
   x2="37.180698"
   y1="296.96631"
   x1="12.2251"
   gradientUnits="userSpaceOnUse"
   id="linearGradient9750">
									<stop
   id="stop9752"
   style="stop-color:#E9A389"
   offset="0" />

									<stop
   id="stop9754"
   style="stop-color:#CB1009"
   offset="1" />

									<a:midPointStop
   style="stop-color:#E9A389"
   offset="0" />

									<a:midPointStop
   style="stop-color:#E9A389"
   offset="0.5" />

									<a:midPointStop
   style="stop-color:#CB1009"
   offset="1" />

								</linearGradient>

								<path
   style="fill:url(#XMLID_141_)"
   id="path6482"
   d="M 7.147,309.5 C 7.147,319.212 15.048,327.113 24.759,327.113 C 34.469,327.113 42.371,319.212 42.371,309.5 C 42.371,299.789 34.47,291.889 24.759,291.889 C 15.048,291.889 7.147,299.79 7.147,309.5 z M 7.756,309.5 C 7.756,300.125 15.384,292.498 24.759,292.498 C 34.134,292.498 41.761,300.125 41.761,309.5 C 41.761,318.876 34.134,326.504 24.759,326.504 C 15.384,326.504 7.756,318.876 7.756,309.5 z "
   i:knockout="Off" />

								<linearGradient
   y2="321.46829"
   x2="36.726601"
   y1="298.98779"
   x1="14.2461"
   gradientUnits="userSpaceOnUse"
   id="linearGradient9757">
									<stop
   id="stop9759"
   style="stop-color:#CB1009"
   offset="0.5449" />

									<stop
   id="stop9761"
   style="stop-color:#DC6247"
   offset="1" />

									<a:midPointStop
   style="stop-color:#CB1009"
   offset="0.5449" />

									<a:midPointStop
   style="stop-color:#CB1009"
   offset="0.5" />

									<a:midPointStop
   style="stop-color:#DC6247"
   offset="1" />

								</linearGradient>

								<path
   style="fill:url(#XMLID_142_)"
   id="path6489"
   d="M 9.58,309.5 C 9.58,317.87 16.391,324.68 24.76,324.68 C 33.13,324.68 39.939,317.87 39.939,309.5 C 39.939,301.131 33.13,294.321 24.76,294.321 C 16.39,294.322 9.58,301.131 9.58,309.5 z M 10.189,309.5 C 10.189,301.466 16.725,294.93 24.76,294.93 C 32.795,294.93 39.33,301.466 39.33,309.5 C 39.33,317.535 32.794,324.071 24.76,324.071 C 16.725,324.072 10.189,317.536 10.189,309.5 z "
   i:knockout="Off" />

							</g>

						</g>

						
							<line
   style="fill:none;stroke:#9a1309;stroke-width:0.66055977"
   id="line6491"
   y2="300.53601"
   x2="36.257"
   y1="321.008"
   x1="15.783"
   i:knockout="Off" />

						
							<line
   style="fill:none;stroke:#9a1309;stroke-width:0.66055977"
   id="line6493"
   y2="297.93301"
   x2="33.598999"
   y1="318.35101"
   x1="13.181"
   i:knockout="Off" />

					</g>
  </g>
</svg>
