<?xml version="1.0" encoding="UTF-8" standalone="no"?>
<svg
   xmlns:dc="http://purl.org/dc/elements/1.1/"
   xmlns:cc="http://creativecommons.org/ns#"
   xmlns:rdf="http://www.w3.org/1999/02/22-rdf-syntax-ns#"
   xmlns:svg="http://www.w3.org/2000/svg"
   xmlns="http://www.w3.org/2000/svg"
   xmlns:xlink="http://www.w3.org/1999/xlink"
   xmlns:sodipodi="http://sodipodi.sourceforge.net/DTD/sodipodi-0.dtd"
   xmlns:inkscape="http://www.inkscape.org/namespaces/inkscape"
   viewBox="0 0 48 48"
   version="1.1"
   id="svg9379"
   sodipodi:docname="rig_controller.svg"
   inkscape:version="1.0.1 (3bc2e813f5, 2020-09-07)">
  <metadata
     id="metadata9383">
    <rdf:RDF>
      <cc:Work
         rdf:about="">
        <dc:format>image/svg+xml</dc:format>
        <dc:type
           rdf:resource="http://purl.org/dc/dcmitype/StillImage" />
        <dc:title>11-Rig Controller</dc:title>
      </cc:Work>
    </rdf:RDF>
  </metadata>
  <sodipodi:namedview
     pagecolor="#ffffff"
     bordercolor="#666666"
     borderopacity="1"
     objecttolerance="10"
     gridtolerance="10"
     guidetolerance="10"
     inkscape:pageopacity="0"
     inkscape:pageshadow="2"
     inkscape:window-width="2560"
     inkscape:window-height="1377"
     id="namedview9381"
     showgrid="false"
     inkscape:zoom="15.3125"
     inkscape:cx="24"
     inkscape:cy="24"
     inkscape:window-x="-8"
     inkscape:window-y="-8"
     inkscape:window-maximized="1"
     inkscape:current-layer="svg9379" />
  <defs
     id="defs9213">
    <style
       id="style9169">.cls-1{fill:url(#radial-gradient);}.cls-10,.cls-18,.cls-19,.cls-2,.cls-22,.cls-29,.cls-3,.cls-4,.cls-7{fill:none;stroke-linecap:round;stroke-linejoin:round;}.cls-10,.cls-18,.cls-2,.cls-3{stroke:#73d216;}.cls-2{stroke-width:0.4px;}.cls-19,.cls-3{stroke-width:0.5px;}.cls-4,.cls-7{stroke:#d0dfef;}.cls-4{stroke-width:0.7px;}.cls-5{fill:url(#linear-gradient);}.cls-6{fill:url(#linear-gradient-2);}.cls-10,.cls-22,.cls-7{stroke-width:0.35px;}.cls-8{fill:url(#linear-gradient-3);}.cls-9{fill:url(#linear-gradient-4);}.cls-11{fill:url(#linear-gradient-5);}.cls-12{fill:url(#linear-gradient-6);}.cls-13{fill:url(#linear-gradient-7);}.cls-14{fill:url(#linear-gradient-8);}.cls-15{fill:url(#linear-gradient-9);}.cls-16{fill:url(#linear-gradient-10);}.cls-17{fill:url(#linear-gradient-11);}.cls-18{stroke-width:0.3px;}.cls-19,.cls-22,.cls-29{stroke:#8f5902;}.cls-20{fill:#8f5902;}.cls-21{fill:#f4dcb6;}.cls-23{fill:#204a87;}.cls-24{fill:#c17d11;}.cls-25{fill:url(#linear-gradient-12);}.cls-26{fill:url(#linear-gradient-13);}.cls-27{fill:url(#linear-gradient-14);}.cls-28{fill:url(#linear-gradient-15);}.cls-29{stroke-width:0.34px;}.cls-30{fill:url(#linear-gradient-16);}.cls-31{fill:url(#linear-gradient-17);}.cls-32{fill:url(#linear-gradient-18);}.cls-33{fill:url(#linear-gradient-19);}</style>
    <radialGradient
       id="radial-gradient"
       cx="70.47"
       cy="102.21"
       r="18.79"
       gradientTransform="translate(-59.63 6.1) scale(1.19 0.35)"
       gradientUnits="userSpaceOnUse">
      <stop
         offset="0.03"
         stop-color="#2c2c2c"
         stop-opacity="0.5"
         id="stop9171" />
      <stop
         offset="0.68"
         stop-color="#2c2c2c"
         stop-opacity="0.1"
         id="stop9173" />
      <stop
         offset="0.93"
         stop-color="#2c2c2c"
         stop-opacity="0"
         id="stop9175" />
    </radialGradient>
    <linearGradient
       id="linear-gradient"
       x1="22.69"
       y1="15.78"
       x2="25.88"
       y2="9.77"
       gradientUnits="userSpaceOnUse">
      <stop
         offset="0"
         stop-color="#b2cbe5"
         id="stop9178" />
      <stop
         offset="1"
         stop-color="#3465a4"
         id="stop9180" />
    </linearGradient>
    <linearGradient
       id="linear-gradient-2"
       x1="25.52"
       y1="9.26"
       x2="24.65"
       y2="13.92"
       gradientUnits="userSpaceOnUse">
      <stop
         offset="0"
         stop-color="#00255d"
         id="stop9183" />
      <stop
         offset="1"
         stop-color="#00255d"
         stop-opacity="0"
         id="stop9185" />
    </linearGradient>
    <linearGradient
       id="linear-gradient-3"
       x1="29.27"
       y1="18.07"
       x2="29.23"
       y2="10.56"
       xlink:href="#linear-gradient" />
    <linearGradient
       id="linear-gradient-4"
       x1="29.82"
       y1="7.52"
       x2="28.4"
       y2="16.24"
       xlink:href="#linear-gradient-2" />
    <linearGradient
       id="linear-gradient-5"
       x1="31.6"
       y1="12.43"
       x2="32.4"
       y2="8.57"
       xlink:href="#linear-gradient" />
    <linearGradient
       id="linear-gradient-6"
       x1="32.58"
       y1="5.69"
       x2="31.81"
       y2="13.24"
       xlink:href="#linear-gradient-2" />
    <linearGradient
       id="linear-gradient-7"
       x1="20.77"
       y1="-6.2"
       x2="25.23"
       y2="8.07"
       xlink:href="#linear-gradient" />
    <linearGradient
       id="linear-gradient-8"
       x1="25.02"
       y1="7.56"
       x2="22.43"
       y2="-0.12"
       gradientUnits="userSpaceOnUse">
      <stop
         offset="0"
         stop-color="#00255d"
         stop-opacity="0"
         id="stop9193" />
      <stop
         offset="1"
         stop-color="#00255d"
         id="stop9195" />
    </linearGradient>
    <linearGradient
       id="linear-gradient-9"
       x1="27.23"
       y1="2.72"
       x2="27.51"
       y2="6.08"
       xlink:href="#linear-gradient-2" />
    <linearGradient
       id="linear-gradient-10"
       x1="14.63"
       y1="8.9"
       x2="18.8"
       y2="8.76"
       xlink:href="#linear-gradient-2" />
    <linearGradient
       id="linear-gradient-11"
       x1="30.18"
       y1="18.13"
       x2="22.02"
       y2="2.01"
       xlink:href="#linear-gradient" />
    <linearGradient
       id="linear-gradient-12"
       x1="29.78"
       y1="27.09"
       x2="27.24"
       y2="28.17"
       gradientUnits="userSpaceOnUse">
      <stop
         offset="0"
         stop-color="#e9b96e"
         id="stop9201" />
      <stop
         offset="1"
         stop-color="#c17d11"
         id="stop9203" />
    </linearGradient>
    <linearGradient
       id="linear-gradient-13"
       x1="25.19"
       y1="35.92"
       x2="27.17"
       y2="35.92"
       xlink:href="#linear-gradient-12" />
    <linearGradient
       id="linear-gradient-14"
       x1="23.16"
       y1="26.97"
       x2="24.83"
       y2="33.24"
       xlink:href="#linear-gradient-12" />
    <linearGradient
       id="linear-gradient-15"
       x1="21.57"
       y1="36.32"
       x2="23.7"
       y2="36.32"
       xlink:href="#linear-gradient-12" />
    <linearGradient
       id="linear-gradient-16"
       x1="20.89"
       y1="29.57"
       x2="21.74"
       y2="30.56"
       xlink:href="#linear-gradient-12" />
    <linearGradient
       id="linear-gradient-17"
       x1="24.57"
       y1="25"
       x2="25.96"
       y2="26.7"
       xlink:href="#linear-gradient-12" />
    <linearGradient
       id="linear-gradient-18"
       x1="17.72"
       y1="30.37"
       x2="19.69"
       y2="30.37"
       xlink:href="#linear-gradient-12" />
    <linearGradient
       id="linear-gradient-19"
       x1="29.5"
       y1="25.2"
       x2="30.71"
       y2="25.2"
       xlink:href="#linear-gradient-12" />
    <linearGradient
       inkscape:collect="always"
       xlink:href="#linear-gradient"
       id="linearGradient9946"
       gradientUnits="userSpaceOnUse"
       x1="22.69"
       y1="15.78"
       x2="25.88"
       y2="9.77" />
    <linearGradient
       inkscape:collect="always"
       xlink:href="#linear-gradient-2"
       id="linearGradient9948"
       gradientUnits="userSpaceOnUse"
       x1="25.52"
       y1="9.26"
       x2="24.65"
       y2="13.92" />
    <linearGradient
       inkscape:collect="always"
       xlink:href="#linear-gradient-12"
       id="linearGradient9950"
       gradientUnits="userSpaceOnUse"
       x1="29.78"
       y1="27.09"
       x2="27.24"
       y2="28.17" />
  </defs>
  <title
     id="title9215">11-Rig Controller</title>
  <g
     id="shadow">
    <ellipse
       class="cls-1"
       cx="23.93"
       cy="41.5"
       rx="21.41"
       ry="6.28"
       id="ellipse9217" />
  </g>
  <g
     id="ART"
     transform="matrix(1.0746065,0,0,1.0739091,-0.5029637,-2.8302286)"
     style="stroke-width:0.930875">
    <path
       class="cls-2"
       d="M 35.13,8.15 A 10.36,10.36 0 0 1 34.51,9.59"
       id="path9220" />
    <path
       class="cls-3"
       d="m 32.83,3 c 0.21,-0.13 0.51,0.21 0.53,1.57"
       id="path9222" />
    <path
       class="cls-3"
       d="m 15.32,13.6 a 1.54,1.54 0 0 0 0.26,1.9"
       id="path9224" />
    <path
       class="cls-3"
       d="m 18.23,15.82 a 1.74,1.74 0 0 1 -1.85,0.24"
       id="path9226" />
    <path
       class="cls-3"
       d="m 16.73,15.2 a 54.82,54.82 0 0 1 1,6.72 33.91,33.91 0 0 1 0,6.63"
       id="path9228" />
    <path
       class="cls-4"
       d="M 38,10.3 A 20.12,20.12 0 0 1 35,8.65 7.64,7.64 0 0 0 33.3,7.52 c -0.42,-0.16 -1.69,-0.67 -2.81,-1 1.52,-0.4 2.85,-0.74 3.48,-0.86 a 11,11 0 0 0 3.1,-1.1 1.26,1.26 0 0 0 0.54,-1.07 c 0,-0.32 -0.48,-0.59 -1.26,-0.37 a 41.27,41.27 0 0 1 -4.68,0.56 c -1.45,0.11 -2.81,0.4 -5.14,0.51 A 19.29,19.29 0 0 1 21.2,3.76 9.61,9.61 0 0 0 19.68,3.08 4.77,4.77 0 0 0 16.87,3.44 c 0,0 -2.09,1.14 -1.87,2.62 A 8.15,8.15 0 0 0 16.31,9.3 4.43,4.43 0 0 1 16,13.69 c -0.48,0.78 -1.39,0.94 -1.84,1.26 -0.45,0.32 -0.48,0.75 -0.06,1.23 0.42,0.48 1.58,0.27 2.17,0.08 a 5.24,5.24 0 0 0 2.25,-1.63 22.42,22.42 0 0 0 2,-3.91 A 3.73,3.73 0 0 1 21,9.94 8.49,8.49 0 0 1 23.67,8.87 c 1.39,-0.19 1.42,0 1.42,0 a 3.48,3.48 0 0 0 0.62,1.26 6.08,6.08 0 0 1 1,2.32 5.24,5.24 0 0 0 0.61,2.07 0.92,0.92 0 0 0 1.08,0.26 c 0.18,-0.05 0.26,-0.45 0.16,-0.8 A 11.1,11.1 0 0 1 28.29,12.21 8,8 0 0 0 27.54,10 c 0.22,0.15 0.45,0.31 0.67,0.43 a 8.83,8.83 0 0 1 2,1.4 c 0.27,0.32 0.91,1.28 1.39,1.82 a 2.2,2.2 0 0 0 1.66,0.93 c 0.62,-0.05 0.81,-0.29 0.78,-0.51 a 11.31,11.31 0 0 0 -1.5,-1.82 14.68,14.68 0 0 1 -1.44,-2 A 10.41,10.41 0 0 0 29.74,9 C 29.6,8.88 29.33,8.67 29.01,8.44 A 13.61,13.61 0 0 0 30.76,9 6.82,6.82 0 0 1 33.33,9.86 c 0.64,0.45 2.38,1.65 3.48,1.71 1.1,0.06 1.41,-0.28 1.52,-0.53 A 0.53,0.53 0 0 0 38,10.3 Z"
       id="path9230" />
    <path
       class="cls-5"
       d="m 20.4,10.32 a 10.35,10.35 0 0 1 3.29,-1.45 c 1.39,-0.19 1.42,0 1.42,0 a 3.48,3.48 0 0 0 0.62,1.26 6.08,6.08 0 0 1 1,2.32 5.24,5.24 0 0 0 0.61,2.07 0.92,0.92 0 0 0 1.08,0.26 c 0.18,-0.05 0.26,-0.45 0.16,-0.8 A 11.1,11.1 0 0 1 28.31,12.21 8.71,8.71 0 0 0 27.43,9.72 7,7 0 0 0 25.77,7.34 c -0.66,-0.4 -4.11,0.14 -5.37,2.98 z"
       id="path9232"
       style="fill:url(#linearGradient9946);stroke-width:0.930875" />
    <path
       class="cls-6"
       d="m 25.11,8.82 c 0.12,0.07 0.79,0.89 1.17,1.23 a 3.26,3.26 0 0 1 1,1.92 c 0.17,1 0.24,1.64 0.53,1.85 0.29,0.21 0.58,0.17 0.58,-0.09 a 14.52,14.52 0 0 0 -0.34,-2.6 c -0.19,-0.5 -0.43,-1 -0.43,-1 A 6.71,6.71 0 0 0 26.1,8.27 6,6 0 0 0 24.1,7.84 l -2.26,1.34 h 0.48 a 12.59,12.59 0 0 1 2,-0.46 c 0.68,-0.02 0.79,0.1 0.79,0.1 z"
       id="path9234"
       style="fill:url(#linearGradient9948);stroke-width:0.930875" />
    <path
       class="cls-7"
       d="m 20.4,10.32 a 10.35,10.35 0 0 1 3.29,-1.45 c 1.39,-0.19 1.42,0 1.42,0 a 3.48,3.48 0 0 0 0.62,1.26 6.08,6.08 0 0 1 1,2.32 5.24,5.24 0 0 0 0.61,2.07 0.92,0.92 0 0 0 1.08,0.26 c 0.18,-0.05 0.26,-0.45 0.16,-0.8 A 11.1,11.1 0 0 1 28.31,12.21 8.71,8.71 0 0 0 27.43,9.72 7,7 0 0 0 25.77,7.34 c -0.66,-0.4 -4.11,0.14 -5.37,2.98 z"
       id="path9236" />
    <path
       class="cls-8"
       d="m 24.41,8 a 11.51,11.51 0 0 1 1.59,0.79 17.51,17.51 0 0 0 2.22,1.63 8.83,8.83 0 0 1 2,1.4 c 0.27,0.32 0.91,1.28 1.39,1.82 a 2.2,2.2 0 0 0 1.66,0.93 c 0.62,-0.05 0.81,-0.29 0.78,-0.51 a 11.31,11.31 0 0 0 -1.5,-1.82 14.68,14.68 0 0 1 -1.44,-2 A 10.41,10.41 0 0 0 29.74,9 8.5,8.5 0 0 0 26.66,7.26 4.36,4.36 0 0 0 24.41,8 Z"
       id="path9238"
       style="fill:url(#linear-gradient-3);stroke-width:0.930875" />
    <path
       class="cls-9"
       d="m 34.05,14.06 c 0,0.22 -0.16,0.46 -0.77,0.51 h -0.11 l -0.05,-0.2 c 0.26,0 0.11,-0.38 -0.17,-0.65 -0.28,-0.27 -2,-2.3 -2.39,-2.79 A 27.4,27.4 0 0 0 27.56,8.82 4.83,4.83 0 0 0 24.62,8 h -0.08 -0.09 a 4.31,4.31 0 0 1 2.22,-0.68 8.52,8.52 0 0 1 3.07,1.68 11,11 0 0 1 1.36,1.2 16.37,16.37 0 0 0 1.45,2 10.36,10.36 0 0 1 1.5,1.86 z"
       id="path9240"
       style="fill:url(#linear-gradient-4);stroke-width:0.930875" />
    <path
       class="cls-7"
       d="m 24.41,8 a 11.51,11.51 0 0 1 1.59,0.79 17.51,17.51 0 0 0 2.22,1.63 8.83,8.83 0 0 1 2,1.4 c 0.27,0.32 0.91,1.28 1.39,1.82 a 2.2,2.2 0 0 0 1.66,0.93 c 0.62,-0.05 0.81,-0.29 0.78,-0.51 a 11.31,11.31 0 0 0 -1.5,-1.82 14.68,14.68 0 0 1 -1.44,-2 A 10.41,10.41 0 0 0 29.74,9 8.5,8.5 0 0 0 26.66,7.26 4.36,4.36 0 0 0 24.41,8 Z"
       id="path9242" />
    <path
       class="cls-10"
       d="m 25.34,41.46 a 139.37,139.37 0 0 1 1.94,-17.25 c 1.53,-7.82 3.53,-10.77 3.53,-10.77 a 9.27,9.27 0 0 1 1.89,-1.78"
       id="path9244" />
    <path
       class="cls-11"
       d="M 26.15,7.59 A 3.73,3.73 0 0 1 28,8 a 13,13 0 0 0 2.81,1 6.82,6.82 0 0 1 2.57,0.86 c 0.64,0.45 2.38,1.65 3.48,1.71 1.1,0.06 1.41,-0.28 1.52,-0.53 A 0.53,0.53 0 0 0 38,10.3 20.12,20.12 0 0 1 35,8.65 7.64,7.64 0 0 0 33.3,7.52 33.68,33.68 0 0 0 30,6.39 C 28.83,6.08 26.88,6.14 26.15,7.59 Z"
       id="path9246"
       style="fill:url(#linear-gradient-5);stroke-width:0.930875" />
    <path
       class="cls-12"
       d="m 38.21,10.41 c 0,0.38 -0.09,0.49 -0.38,0.52 -0.29,0.03 -0.53,0 -1.95,-0.74 C 34.46,9.45 33.55,8.3 32.7,8.19 A 16,16 0 0 1 31,7.88 4.79,4.79 0 0 0 29.78,7.64 8.71,8.71 0 0 0 28.57,7.9 a 1.41,1.41 0 0 1 -0.35,0 2.77,2.77 0 0 1 -1,-0.35 2.41,2.41 0 0 0 -0.92,-0.16 7,7 0 0 1 1.36,-1 1.1,1.1 0 0 1 1,-0.2 c 0.45,0.08 0.91,0 1.36,0.15 a 33.68,33.68 0 0 1 3.28,1.18 6.71,6.71 0 0 1 1.7,1.14 20.82,20.82 0 0 0 3,1.64 0.5,0.5 0 0 1 0.21,0.11 z"
       id="path9248"
       style="fill:url(#linear-gradient-6);stroke-width:0.930875" />
    <path
       class="cls-7"
       d="M 26.15,7.59 A 3.73,3.73 0 0 1 28,8 a 13,13 0 0 0 2.81,1 6.82,6.82 0 0 1 2.57,0.86 c 0.64,0.45 2.38,1.65 3.48,1.71 1.1,0.06 1.41,-0.28 1.52,-0.53 A 0.53,0.53 0 0 0 38,10.3 20.12,20.12 0 0 1 35,8.65 7.64,7.64 0 0 0 33.3,7.52 33.68,33.68 0 0 0 30,6.39 C 28.83,6.08 26.88,6.14 26.15,7.59 Z"
       id="path9250" />
    <path
       class="cls-13"
       d="m 16.87,3.44 c 0,0 -2.09,1.14 -1.87,2.62 a 8.15,8.15 0 0 0 1.31,3.24 4.14,4.14 0 0 1 0.48,2.09 9.06,9.06 0 0 1 -0.81,2.3 c -0.48,0.78 -1.39,0.94 -1.84,1.26 -0.45,0.32 -0.48,0.75 -0.06,1.23 0.42,0.48 1.58,0.27 2.17,0.08 a 5.24,5.24 0 0 0 2.25,-1.63 22.42,22.42 0 0 0 2,-3.91 c 0.59,-1.21 1.82,-2.2 4.49,-2.81 2.67,-0.61 7.58,-2 9,-2.25 a 11,11 0 0 0 3.1,-1.1 1.26,1.26 0 0 0 0.54,-1.07 c 0,-0.32 -0.48,-0.59 -1.26,-0.37 a 41.27,41.27 0 0 1 -4.68,0.56 c -1.45,0.11 -2.81,0.4 -5.14,0.51 A 19.29,19.29 0 0 1 21.22,3.76 9.61,9.61 0 0 0 19.7,3.08 4.77,4.77 0 0 0 16.87,3.44 Z"
       id="path9252"
       style="fill:url(#linear-gradient-7);stroke-width:0.930875" />
    <path
       class="cls-14"
       d="m 16.87,3.44 c 0,0 -2.09,1.14 -1.87,2.62 a 8.15,8.15 0 0 0 1.31,3.24 4.14,4.14 0 0 1 0.48,2.09 9.06,9.06 0 0 1 -0.81,2.3 c -0.48,0.78 -1.39,0.94 -1.84,1.26 -0.45,0.32 -0.48,0.75 -0.06,1.23 0.42,0.48 1.58,0.27 2.17,0.08 a 5.24,5.24 0 0 0 2.25,-1.63 22.42,22.42 0 0 0 2,-3.91 c 0.59,-1.21 1.82,-2.2 4.49,-2.81 2.67,-0.61 7.58,-2 9,-2.25 a 11,11 0 0 0 3.1,-1.1 1.26,1.26 0 0 0 0.54,-1.07 c 0,-0.32 -0.48,-0.59 -1.26,-0.37 a 41.27,41.27 0 0 1 -4.68,0.56 c -1.45,0.11 -2.81,0.4 -5.14,0.51 A 19.29,19.29 0 0 1 21.22,3.76 9.61,9.61 0 0 0 19.7,3.08 4.77,4.77 0 0 0 16.87,3.44 Z"
       id="path9254"
       style="fill:url(#linear-gradient-8);stroke-width:0.930875" />
    <path
       class="cls-15"
       d="m 37.54,3.33 c -0.13,-0.08 -0.37,0 -0.52,0.07 A 5.21,5.21 0 0 1 35.35,4 c -1,0.18 -3.66,0.46 -4.86,0.68 a 51.51,51.51 0 0 1 -6.77,1 C 22.21,5.62 19.86,5.12 19.15,4.53 A 6.29,6.29 0 0 0 17,3.37 4.93,4.93 0 0 1 19.66,3.08 9.22,9.22 0 0 1 21.18,3.76 19.29,19.29 0 0 0 26.51,4.19 C 28.84,4.08 30.2,3.78 31.65,3.68 A 36.66,36.66 0 0 0 36.33,3.11 C 37,2.94 37.4,3.08 37.54,3.33 Z"
       id="path9256"
       style="fill:url(#linear-gradient-9);stroke-width:0.930875" />
    <path
       class="cls-16"
       d="m 17.86,9.89 a 8.15,8.15 0 0 0 -0.81,2.22 4.52,4.52 0 0 1 -1.64,2.37 l -0.16,-0.1 a 1.92,1.92 0 0 0 0.73,-0.69 9.31,9.31 0 0 0 0.8,-2.3 A 3.94,3.94 0 0 0 16.3,9.3 8.45,8.45 0 0 1 15,6.06 C 14.82,4.58 16.91,3.44 16.92,3.43 A 4.12,4.12 0 0 1 17.5,3.2 4.77,4.77 0 0 0 16.98,3.47 2.93,2.93 0 0 0 15.9,5 3.21,3.21 0 0 0 16.54,7.62 c 0.59,0.63 1.74,1.46 1.32,2.27 z"
       id="path9258"
       style="fill:url(#linear-gradient-10);stroke-width:0.930875" />
    <path
       class="cls-17"
       d="M 37.61,3.5 A 1.23,1.23 0 0 1 37.07,4.56 10.71,10.71 0 0 1 34,5.66 c -1.4,0.26 -6.29,1.64 -9,2.25 -2.71,0.61 -3.92,1.6 -4.5,2.81 a 23.13,23.13 0 0 1 -2,3.91 5.13,5.13 0 0 1 -2.25,1.63 4,4 0 0 1 -1.59,0.19 l -0.07,-0.12 c -0.47,-0.21 -0.47,-0.54 0,-0.71 a 5,5 0 0 0 2.41,-1 7.77,7.77 0 0 0 2.09,-3 C 19.56,10.48 19.85,8.04 22.16,7.37 24.47,6.7 29,5.85 30.85,5.43 32.07,5.17 33.33,4.95 34.56,4.67 35.03,4.56 37.78,4.14 37.39,3.27 a 0.17,0.17 0 0 1 0,-0.1 0.43,0.43 0 0 1 0.22,0.33 z"
       id="path9260"
       style="fill:url(#linear-gradient-11);stroke-width:0.930875" />
    <path
       class="cls-7"
       d="m 16.87,3.44 c 0,0 -2.09,1.14 -1.87,2.62 A 8.15,8.15 0 0 0 16.31,9.3 4.43,4.43 0 0 1 16,13.69 c -0.48,0.78 -1.39,0.94 -1.84,1.26 -0.45,0.32 -0.48,0.75 -0.06,1.23 0.42,0.48 1.58,0.27 2.17,0.08 a 5.24,5.24 0 0 0 2.25,-1.63 22.42,22.42 0 0 0 2,-3.91 c 0.59,-1.21 1.82,-2.2 4.49,-2.81 2.67,-0.61 7.58,-2 9,-2.25 a 11,11 0 0 0 3.1,-1.1 1.26,1.26 0 0 0 0.54,-1.07 C 37.65,3.17 37.17,2.9 36.39,3.12 A 41.27,41.27 0 0 1 31.71,3.68 C 30.26,3.79 28.9,4.08 26.57,4.19 A 19.29,19.29 0 0 1 21.24,3.76 9.61,9.61 0 0 0 19.72,3.08 4.77,4.77 0 0 0 16.87,3.44 Z"
       id="path9262" />
    <path
       class="cls-18"
       d="M 29.75,23.42 A 12.73,12.73 0 0 1 27.88,18.94 C 27,15.67 26.17,12.14 26.17,12.14 a 17,17 0 0 1 2.38,-0.73"
       id="path9264" />
    <path
       class="cls-2"
       d="m 25.73,25.34 c 1.9,-12.86 8,-14.8 8,-14.8 a 11.31,11.31 0 0 1 0.63,-1.48 3.24,3.24 0 0 1 0.8,-0.91"
       id="path9266" />
    <path
       class="cls-3"
       d="m 19.23,41.66 c 0,0 0.14,-12.37 2.48,-18.91 2.34,-6.54 11.1,-16.38 11.1,-16.38 A 5.74,5.74 0 0 1 32.39,4.73 c 0,-0.79 0,-1.47 0.44,-1.74"
       id="path9268" />
    <path
       class="cls-3"
       d="M 18.23,15.82 A 1.67,1.67 0 0 0 17.56,13.21 2.09,2.09 0 0 0 15.32,13.6"
       id="path9270" />
    <path
       class="cls-19"
       d="m 26.53,38.8 a 0.73,0.73 0 0 0 -0.8,0.45 24.52,24.52 0 0 0 -0.82,2.51 0.55,0.55 0 0 0 0.05,0.38 0.75,0.75 0 0 0 -0.27,0.4 3.92,3.92 0 0 1 -0.25,0.79 2.3,2.3 0 0 0 -0.16,0.83 c 0.39,0.26 1.44,0 1.44,0 0,0 -0.08,-1.06 -0.06,-1.17 a 2.9,2.9 0 0 0 -0.17,-0.73 0.88,0.88 0 0 0 0.27,-0.3 c 0.13,-0.24 1,-2.12 1.11,-2.33 0.11,-0.21 0.04,-0.74 -0.34,-0.83 z"
       id="path9272" />
    <path
       class="cls-19"
       d="m 21.39,39.12 a 0.69,0.69 0 0 0 -0.9,0.25 c -0.13,0.2 -1.17,2.08 -1.28,2.33 a 1.27,1.27 0 0 0 -0.1,0.37 l -0.05,0.08 0.05,0.05 a 0.26,0.26 0 0 0 0.08,0.21 c 0,0 0,0 0,0 h -0.07 a 0.22,0.22 0 0 0 -0.21,0 0.73,0.73 0 0 0 -0.12,0.77 9.73,9.73 0 0 0 0.85,1.34 l 1.11,-0.39 c 0,0 -0.92,-1 -1.13,-1.26 a 0.45,0.45 0 0 1 -0.1,-0.14 c 0,-0.07 0,-0.15 -0.07,-0.21 v 0 a 0.23,0.23 0 0 0 0.21,-0.07 c 0.09,-0.14 1.71,-2.08 1.91,-2.45 a 0.65,0.65 0 0 0 -0.18,-0.88 z"
       id="path9274" />
    <path
       class="cls-19"
       d="m 23.67,33.75 a 0.71,0.71 0 0 0 -0.7,-0.69 1.14,1.14 0 0 0 -1.07,0.84 c -0.13,0.45 -0.78,4.43 -0.82,4.65 a 0.61,0.61 0 0 0 0.28,0.55 0.52,0.52 0 0 0 0.21,0 h 0.1 l 0.15,-0.06 a 0.18,0.18 0 0 0 0.07,0 0.6,0.6 0 0 0 0.13,-0.14 v 0 a 5.74,5.74 0 0 0 0.26,-0.62 c 0.35,-0.9 0.9,-2.53 1.18,-3.49 0.09,-0.3 0.16,-0.53 0.18,-0.65 v 0 a 1.13,1.13 0 0 0 0,-0.31 c 0,0 0.04,-0.07 0.03,-0.08 z"
       id="path9276" />
    <path
       class="cls-19"
       d="m 30.2,22.76 a 7.33,7.33 0 0 1 2.08,1 6.1,6.1 0 0 0 0.61,-1.35 6.17,6.17 0 0 0 -2.69,0.35 z"
       id="path9278" />
    <path
       class="cls-19"
       d="m 15.58,29.41 c 0,0 1,0.55 1.27,0.73 A 5,5 0 0 1 18,27.87 5.32,5.32 0 0 0 15.58,29.41 Z"
       id="path9280" />
    <path
       class="cls-19"
       d="m 30,23 c -0.19,0.07 -0.22,0.39 -0.26,0.7 -0.04,0.31 -0.23,2.65 -0.27,2.92 a 0.85,0.85 0 0 0 0.07,0.36 l -0.38,0.07 c -0.34,0.07 -2.89,0.79 -3.18,0.86 a 0.77,0.77 0 0 0 -0.31,0.16 L 25.47,28 a 8.89,8.89 0 0 0 -1.06,0 2.15,2.15 0 0 1 0.37,-0.95 1.76,1.76 0 0 0 0.57,-0.25 3.13,3.13 0 0 0 0.65,-0.6 l 0.15,-0.19 a 2.44,2.44 0 0 0 0.26,-0.4 v 0 a 1.05,1.05 0 0 0 0,-0.19 0.29,0.29 0 0 0 0,-0.1 v -0.05 a 0.8,0.8 0 0 0 -0.17,-0.58 0.56,0.56 0 0 0 -0.18,-0.16 v 0 a 1.17,1.17 0 0 0 -0.74,-0.1 1.4,1.4 0 0 0 -0.85,0.55 2.3,2.3 0 0 0 -0.47,1.1 v 0.05 a 0.8,0.8 0 0 0 0.07,0.74 v 0 a 2.06,2.06 0 0 0 -0.39,0.87 v 0.2 H 22.8 a 1.18,1.18 0 0 0 -0.28,0 1,1 0 0 0 -1.11,0.35 c -0.23,0.3 -1.17,1.59 -1.71,2.35 -0.47,-0.88 -1.3,-2.29 -1.36,-2.42 -0.06,-0.13 -0.33,-0.12 -0.47,0 -0.14,0.12 0,0.05 0,0.08 l -0.1,0.06 c 0,0 1,3.31 1.18,3.73 a 0.51,0.51 0 0 0 0.55,0.23 h 0.09 a 0.56,0.56 0 0 0 0.21,-0.06 0.71,0.71 0 0 0 0.23,-0.28 1.84,1.84 0 0 0 0.53,-0.47 c 0.15,-0.16 0.87,-1 1.43,-1.73 0.06,1.05 0.15,2.31 0.19,2.52 v 0 a 0.52,0.52 0 0 0 0.19,0.28 1.38,1.38 0 0 0 0.45,0.27 L 23,33 h 0.07 a 5.93,5.93 0 0 0 0.71,0 2.17,2.17 0 0 1 0.11,0.42 v 0.13 0.08 a 1.14,1.14 0 0 1 -0.1,0.49 v 0 a 3.46,3.46 0 0 0 0.5,0 h 0.11 a 1.08,1.08 0 0 0 0.13,-0.24 43.5,43.5 0 0 0 1.61,4.5 0.68,0.68 0 0 0 0.71,0.34 H 27 c 0,0 0.05,0 0.07,-0.07 a 0.65,0.65 0 0 0 0.05,-0.27 v 0 c 0,0 0,0 0,-0.09 a 37.9,37.9 0 0 0 -0.95,-4.26 1.46,1.46 0 0 0 0,-0.17 C 26.03,33.44 25.78,33.05 25.33,33 h -0.16 a 0.7,0.7 0 0 0 -0.49,0.27 v 0 c 0,0 0,-0.08 0,-0.12 0,-0.04 0,-0.11 0,-0.16 h 0.16 L 25,33 a 1.46,1.46 0 0 0 0.46,-0.15 0.5,0.5 0 0 0 0.24,-0.29 c 0.08,-0.25 0.26,-2.29 0.33,-3.31 a 1,1 0 0 0 0.54,0 c 0.5,-0.15 3.25,-1.51 3.44,-1.58 a 0.22,0.22 0 0 0 0.12,-0.27 0.83,0.83 0 0 0 0.57,-0.79 c 0,-0.46 -0.24,-3.19 -0.25,-3.37 C 30.44,23.06 30.22,23 30,23 Z"
       id="path9282" />
    <path
       class="cls-20"
       d="m 24.32,26.63 a 1.89,1.89 0 0 0 -0.63,1.12 L 23.52,29.2 24.57,29 a 2.06,2.06 0 0 1 0.32,-2.16"
       id="path9284"
       style="stroke-width:0.930875" />
    <path
       class="cls-21"
       d="m 19,42.44 a 0.73,0.73 0 0 0 -0.12,0.77 9.73,9.73 0 0 0 0.85,1.34 l 1.11,-0.39 c 0,0 -0.92,-1 -1.13,-1.26 a 0.45,0.45 0 0 1 -0.1,-0.14 c 0,-0.07 0,-0.15 -0.07,-0.21 -0.07,-0.06 -0.27,-0.1 -0.33,-0.13 A 0.22,0.22 0 0 0 19,42.44 Z"
       id="path9286"
       style="stroke-width:0.930875" />
    <path
       class="cls-22"
       d="m 19,42.44 a 0.73,0.73 0 0 0 -0.12,0.77 9.73,9.73 0 0 0 0.85,1.34 l 1.11,-0.39 c 0,0 -0.92,-1 -1.13,-1.26 a 0.45,0.45 0 0 1 -0.1,-0.14 c 0,-0.07 0,-0.15 -0.07,-0.21 -0.07,-0.06 -0.27,-0.1 -0.33,-0.13 A 0.22,0.22 0 0 0 19,42.44 Z"
       id="path9288" />
    <path
       class="cls-21"
       d="m 25.22,42 c -0.2,0 -0.5,0.32 -0.53,0.53 a 3.92,3.92 0 0 1 -0.25,0.79 2.3,2.3 0 0 0 -0.16,0.83 c 0.39,0.26 1.44,0 1.44,0 0,0 -0.08,-1.06 -0.06,-1.17 C 25.68,42.87 25.63,42 25.22,42 Z"
       id="path9290"
       style="stroke-width:0.930875" />
    <path
       class="cls-22"
       d="m 25.22,42 c -0.2,0 -0.5,0.32 -0.53,0.53 a 3.92,3.92 0 0 1 -0.25,0.79 2.3,2.3 0 0 0 -0.16,0.83 c 0.39,0.26 1.44,0 1.44,0 0,0 -0.08,-1.06 -0.06,-1.17 C 25.68,42.87 25.63,42 25.22,42 Z"
       id="path9292" />
    <path
       class="cls-23"
       d="m 26.53,38.8 a 0.73,0.73 0 0 0 -0.8,0.45 24.52,24.52 0 0 0 -0.82,2.51 c -0.08,0.4 0.16,0.58 0.35,0.59 a 0.66,0.66 0 0 0 0.5,-0.39 c 0.13,-0.24 1,-2.12 1.11,-2.33 0.11,-0.21 0.04,-0.74 -0.34,-0.83 z"
       id="path9294"
       style="stroke-width:0.930875" />
    <path
       class="cls-24"
       d="m 26.53,38.8 a 0.73,0.73 0 0 0 -0.8,0.45 24.52,24.52 0 0 0 -0.82,2.51 c -0.08,0.4 0.16,0.58 0.35,0.59 a 0.66,0.66 0 0 0 0.5,-0.39 c 0.13,-0.24 1,-2.12 1.11,-2.33 0.11,-0.21 0.04,-0.74 -0.34,-0.83 z"
       id="path9296"
       style="stroke-width:0.930875" />
    <path
       class="cls-21"
       d="m 26.45,39 -1.14,2.64 a 2.17,2.17 0 0 1 -0.28,0.44 c 0,0 0.55,-2 0.66,-2.33 a 5.63,5.63 0 0 1 0.54,-0.85"
       id="path9298"
       style="stroke-width:0.930875" />
    <path
       class="cls-22"
       d="m 26.53,38.8 a 0.73,0.73 0 0 0 -0.8,0.45 24.52,24.52 0 0 0 -0.82,2.51 c -0.08,0.4 0.16,0.58 0.35,0.59 a 0.66,0.66 0 0 0 0.5,-0.39 c 0.13,-0.24 1,-2.12 1.11,-2.33 0.11,-0.21 0.04,-0.74 -0.34,-0.83 z"
       id="path9300" />
    <path
       class="cls-23"
       d="m 25.46,28.83 a 1,1 0 0 0 1.12,0.38 c 0.5,-0.15 3.25,-1.51 3.44,-1.58 0.19,-0.07 0.15,-0.36 0,-0.54 -0.15,-0.18 -0.49,-0.08 -0.83,0 -0.34,0.08 -2.89,0.79 -3.18,0.86 -0.29,0.07 -0.78,0.45 -0.55,0.88 z"
       id="path9302"
       style="stroke-width:0.930875" />
    <path
       class="cls-25"
       d="m 25.46,28.83 a 1,1 0 0 0 1.12,0.38 c 0.5,-0.15 3.25,-1.51 3.44,-1.58 0.19,-0.07 0.15,-0.36 0,-0.54 -0.15,-0.18 -0.49,-0.08 -0.83,0 -0.34,0.08 -2.89,0.79 -3.18,0.86 -0.29,0.07 -0.78,0.45 -0.55,0.88 z"
       id="path9304"
       style="fill:url(#linearGradient9950);stroke-width:0.930875" />
    <path
       class="cls-21"
       d="m 26.05,28.66 3.63,-1.36 -0.23,-0.15 c 0,0 -3.61,0.94 -3.74,1 -0.13,0.06 0,0.42 0,0.42 z"
       id="path9306"
       style="stroke-width:0.930875" />
    <path
       class="cls-22"
       d="m 25.46,28.83 a 1,1 0 0 0 1.12,0.38 c 0.5,-0.15 3.25,-1.51 3.44,-1.58 0.19,-0.07 0.15,-0.36 0,-0.54 -0.15,-0.18 -0.49,-0.08 -0.83,0 -0.34,0.08 -2.89,0.79 -3.18,0.86 -0.29,0.07 -0.78,0.45 -0.55,0.88 z"
       id="path9308" />
    <path
       class="cls-21"
       d="m 25.34,33.05 a 0.7,0.7 0 0 0 -0.76,0.89 43.5,43.5 0 0 0 1.61,4.5 0.87,0.87 0 0 0 0.86,0.33 c 0.1,0 0.15,-0.27 0.1,-0.48 -0.05,-0.21 -0.82,-3.95 -1,-4.37 a 1.1,1.1 0 0 0 -0.81,-0.87 z"
       id="path9310"
       style="stroke-width:0.930875" />
    <path
       class="cls-26"
       d="m 27.05,38.77 a 0.27,0.27 0 0 1 -0.14,0 0.15,0.15 0 0 1 0,-0.08 c -0.13,-0.39 -1.06,-3.64 -1.2,-4.32 a 5.36,5.36 0 0 0 -0.46,-1.25 v -0.08 h 0.16 c 0.45,0.05 0.7,0.44 0.84,0.86 0.14,0.42 0.91,4.16 0.95,4.37 0.04,0.21 -0.05,0.48 -0.15,0.5 z"
       id="path9312"
       style="fill:url(#linear-gradient-13);stroke-width:0.930875" />
    <path
       class="cls-22"
       d="m 25.34,33.05 a 0.7,0.7 0 0 0 -0.76,0.89 43.5,43.5 0 0 0 1.61,4.5 0.69,0.69 0 0 0 0.72,0.34 c 0.1,0 0.25,-0.1 0.27,-0.44 a 40.72,40.72 0 0 0 -1,-4.42 1.1,1.1 0 0 0 -0.84,-0.87 z"
       id="path9314" />
    <path
       class="cls-23"
       d="m 25.47,28 a 26.37,26.37 0 0 0 -2.68,0 c -0.69,0 -0.88,0.3 -0.9,0.5 0,0.44 0.18,3.57 0.24,3.92 0.06,0.35 0.6,0.56 0.87,0.61 a 7.52,7.52 0 0 0 0.78,0.06 1.8,1.8 0 0 1 0.14,0.54 1.28,1.28 0 0 1 -0.09,0.58 2.37,2.37 0 0 0 0.61,0 1.59,1.59 0 0 0 0.26,-0.82 2.48,2.48 0 0 0 0,-0.29 h 0.16 c 0.48,-0.08 0.77,-0.15 0.87,-0.46 0.1,-0.31 0.35,-3.3 0.35,-3.81 A 0.62,0.62 0 0 0 25.47,28 Z"
       id="path9316"
       style="stroke-width:0.930875" />
    <path
       class="cls-27"
       d="m 25.47,28 a 26.37,26.37 0 0 0 -2.68,0 c -0.69,0 -0.88,0.3 -0.9,0.5 0,0.44 0.18,3.57 0.24,3.92 0.06,0.35 0.6,0.56 0.87,0.61 a 7.52,7.52 0 0 0 0.78,0.06 1.8,1.8 0 0 1 0.14,0.54 1.28,1.28 0 0 1 -0.09,0.58 2.37,2.37 0 0 0 0.61,0 1.59,1.59 0 0 0 0.26,-0.82 2.48,2.48 0 0 0 0,-0.29 h 0.16 c 0.48,-0.08 0.77,-0.15 0.87,-0.46 0.1,-0.31 0.35,-3.3 0.35,-3.81 A 0.62,0.62 0 0 0 25.47,28 Z"
       id="path9318"
       style="fill:url(#linear-gradient-14);stroke-width:0.930875" />
    <path
       class="cls-24"
       d="m 26.06,28.81 c 0,0.71 -0.26,3.42 -0.36,3.72 -0.1,0.3 -0.38,0.39 -0.87,0.47 h -0.16 a 1.27,1.27 0 0 1 0,0.28 1.65,1.65 0 0 1 -0.26,0.83 2.88,2.88 0 0 1 -0.62,0 1.16,1.16 0 0 0 0.1,-0.58 2.87,2.87 0 0 0 -0.14,-0.54 c -0.27,0 -0.51,0 -0.67,0 a 0.51,0.51 0 0 1 0.09,-0.31 c 0.12,-0.2 0.37,-0.33 0.55,-0.51 0.46,-0.49 0.23,-1.23 0.58,-1.78 0.35,-0.55 1.51,-0.95 1.58,-1.66 z"
       id="path9320"
       style="stroke-width:0.930875" />
    <path
       class="cls-21"
       d="m 26.06,28.72 0.12,0.41 a 0.94,0.94 0 0 0 -0.73,-0.26 4.8,4.8 0 0 0 -2.14,0.11 0.94,0.94 0 0 0 -0.45,0.87 c 0,0.27 -0.06,1.9 0,2.45 0,0.38 0.11,0.59 0.52,0.69 v 0 L 23,33 c -0.27,-0.05 -0.81,-0.27 -0.87,-0.61 -0.06,-0.34 -0.27,-3.49 -0.24,-3.92 0,-0.2 0.21,-0.48 0.9,-0.5 a 23.66,23.66 0 0 1 2.68,0.07 0.62,0.62 0 0 1 0.59,0.68 z"
       id="path9322"
       style="stroke-width:0.930875" />
    <path
       class="cls-22"
       d="m 25.47,28 a 26.37,26.37 0 0 0 -2.68,0 c -0.69,0 -0.88,0.3 -0.9,0.5 0,0.44 0.18,3.57 0.24,3.92 0.06,0.35 0.6,0.56 0.87,0.61 a 7.52,7.52 0 0 0 0.78,0.06 1.8,1.8 0 0 1 0.14,0.54 1.28,1.28 0 0 1 -0.09,0.58 2.37,2.37 0 0 0 0.61,0 1.59,1.59 0 0 0 0.26,-0.82 2.48,2.48 0 0 0 0,-0.29 h 0.16 c 0.48,-0.08 0.77,-0.15 0.87,-0.46 0.1,-0.31 0.35,-3.3 0.35,-3.81 A 0.62,0.62 0 0 0 25.47,28 Z"
       id="path9324" />
    <path
       class="cls-23"
       d="m 21.39,39.12 a 0.65,0.65 0 0 1 0.22,0.9 c -0.2,0.37 -1.82,2.31 -1.91,2.45 -0.09,0.14 -0.36,0.07 -0.51,-0.06 -0.15,-0.13 -0.09,-0.46 0,-0.71 0.09,-0.25 1.15,-2.13 1.28,-2.33 a 0.69,0.69 0 0 1 0.92,-0.25 z"
       id="path9326"
       style="stroke-width:0.930875" />
    <path
       class="cls-24"
       d="m 21.39,39.12 a 0.65,0.65 0 0 1 0.22,0.9 c -0.2,0.37 -1.82,2.31 -1.91,2.45 -0.09,0.14 -0.36,0.07 -0.51,-0.06 -0.15,-0.13 -0.09,-0.46 0,-0.71 0.09,-0.25 1.15,-2.13 1.28,-2.33 a 0.69,0.69 0 0 1 0.92,-0.25 z"
       id="path9328"
       style="stroke-width:0.930875" />
    <path
       class="cls-21"
       d="m 19.23,42.34 2.13,-3.08 a 4.08,4.08 0 0 0 -0.64,0 c -0.1,0 -1.66,2.91 -1.66,2.91"
       id="path9330"
       style="stroke-width:0.930875" />
    <path
       class="cls-22"
       d="m 21.39,39.12 a 0.65,0.65 0 0 1 0.22,0.9 c -0.2,0.37 -1.82,2.31 -1.91,2.45 -0.09,0.14 -0.36,0.07 -0.51,-0.06 -0.15,-0.13 -0.09,-0.46 0,-0.71 0.09,-0.25 1.15,-2.13 1.28,-2.33 a 0.69,0.69 0 0 1 0.92,-0.25 z"
       id="path9332" />
    <path
       class="cls-21"
       d="m 23,33.06 c 0.46,0 0.82,0.38 0.7,1 a 44.08,44.08 0 0 1 -1.62,4.76 0.54,0.54 0 0 1 -0.69,0.25 0.61,0.61 0 0 1 -0.28,-0.55 c 0,-0.22 0.69,-4.2 0.82,-4.65 A 1.14,1.14 0 0 1 23,33.06 Z"
       id="path9334"
       style="stroke-width:0.930875" />
    <path
       class="cls-28"
       d="m 23.69,33.77 a 1.22,1.22 0 0 1 0,0.32 40.9,40.9 0 0 1 -1.69,4.77 0.54,0.54 0 0 1 -0.47,0.28 v 0 c 0,0 0.89,-3.14 1.09,-4.14 0.2,-1 0.48,-1.73 0.9,-1.4 a 1.18,1.18 0 0 1 0.17,0.17 z"
       id="path9336"
       style="fill:url(#linear-gradient-15);stroke-width:0.930875" />
    <path
       class="cls-22"
       d="m 23,33.06 c 0.46,0 0.82,0.38 0.7,1 a 44.08,44.08 0 0 1 -1.62,4.76 0.54,0.54 0 0 1 -0.69,0.25 0.61,0.61 0 0 1 -0.28,-0.55 c 0,-0.22 0.69,-4.2 0.82,-4.65 A 1.14,1.14 0 0 1 23,33.06 Z"
       id="path9338" />
    <path
       class="cls-21"
       d="m 30.2,22.76 a 6.17,6.17 0 0 1 2.69,-0.33 6.1,6.1 0 0 1 -0.61,1.35 7.33,7.33 0 0 0 -2.08,-1"
       id="path9340"
       style="stroke-width:0.930875" />
    <path
       class="cls-29"
       d="m 30.2,22.76 a 6.17,6.17 0 0 1 2.69,-0.33 6.1,6.1 0 0 1 -0.61,1.35 7.33,7.33 0 0 0 -2.08,-1"
       id="path9342" />
    <path
       class="cls-29"
       d="m 30.2,22.76 a 6.17,6.17 0 0 1 2.69,-0.33 6.1,6.1 0 0 1 -0.61,1.35 7.33,7.33 0 0 0 -2.08,-1"
       id="path9344" />
    <path
       class="cls-21"
       d="m 22.54,28 a 1,1 0 0 0 -1.14,0.34 c -0.32,0.41 -1.95,2.87 -2.06,3 -0.11,0.13 0.25,0.62 0.48,0.68 0.23,0.06 0.45,-0.22 0.69,-0.48 0.24,-0.26 1.89,-2.3 2.09,-2.53 C 22.8,28.78 23,28.23 22.54,28 Z"
       id="path9346"
       style="stroke-width:0.930875" />
    <path
       class="cls-30"
       d="m 19.91,31.37 c 0,0 1.51,-1.91 1.83,-2.33 0.32,-0.42 0.67,-0.79 0.59,-0.94 -0.08,-0.15 0.2,0 0.28,0.16 a 0.94,0.94 0 0 1 -0.11,0.87 c -0.21,0.29 -2.41,2.85 -2.41,2.85"
       id="path9348"
       style="fill:url(#linear-gradient-16);stroke-width:0.930875" />
    <path
       class="cls-22"
       d="m 22.54,28 a 1,1 0 0 0 -1.14,0.34 c -0.32,0.41 -2,2.71 -2.09,2.89 -0.09,0.18 0.28,0.77 0.51,0.83 0.23,0.06 0.45,-0.22 0.69,-0.48 0.24,-0.26 1.89,-2.3 2.09,-2.53 C 22.8,28.82 23,28.23 22.54,28 Z"
       id="path9350" />
    <path
       class="cls-21"
       d="M 24.55,25 A 2.3,2.3 0 0 0 24,26.08 c 0,0.43 0,0.78 0.19,0.88 a 1.61,1.61 0 0 0 1.34,-0.35 2.45,2.45 0 0 0 0.89,-1 0.81,0.81 0 0 0 -0.26,-1.08 1.25,1.25 0 0 0 -1.61,0.47 z"
       id="path9352"
       style="stroke-width:0.930875" />
    <path
       class="cls-31"
       d="m 26.42,25.61 a 2.64,2.64 0 0 1 -0.9,1 1.71,1.71 0 0 1 -1.34,0.36 c -0.19,-0.09 -0.23,-0.33 -0.2,-0.64 a 1,1 0 0 0 0.68,0 3.34,3.34 0 0 0 1.13,-1.12 0.69,0.69 0 0 0 0,-0.75 1,1 0 0 1 0.35,0.11 0.82,0.82 0 0 1 0.28,1.04 z"
       id="path9354"
       style="fill:url(#linear-gradient-17);stroke-width:0.930875" />
    <path
       class="cls-22"
       d="m 24.55,25 c -0.25,0.31 -1,1.72 -0.37,2 a 1.09,1.09 0 0 0 1.17,-0.19 3.38,3.38 0 0 0 1.06,-1.16 0.81,0.81 0 0 0 -0.26,-1.08 1.25,1.25 0 0 0 -1.6,0.43 z"
       id="path9356" />
    <path
       class="cls-23"
       d="m 19.75,32.34 a 0.86,0.86 0 0 0 0.25,-1 c -0.17,-0.44 -1.59,-2.85 -1.67,-3 -0.08,-0.15 -0.33,-0.12 -0.47,0 -0.14,0.12 0,0.45 0.05,0.75 0.05,0.3 0.92,2.56 1,2.82 0.08,0.26 0.48,0.65 0.84,0.43 z"
       id="path9358"
       style="stroke-width:0.930875" />
    <path
       class="cls-21"
       d="m 19.75,32.34 a 0.86,0.86 0 0 0 0.25,-1 c -0.17,-0.44 -1.59,-2.85 -1.67,-3 -0.08,-0.15 -0.33,-0.12 -0.47,0 -0.14,0.12 0,0.45 0.05,0.75 0.05,0.3 0.92,2.56 1,2.82 0.08,0.26 0.48,0.65 0.84,0.43 z"
       id="path9360"
       style="stroke-width:0.930875" />
    <path
       class="cls-32"
       d="m 18,28.32 1.74,4 c 0,0 -0.58,0.24 -0.79,-0.17 -0.21,-0.41 -1.18,-3.73 -1.18,-3.73"
       id="path9362"
       style="fill:url(#linear-gradient-18);stroke-width:0.930875" />
    <path
       class="cls-22"
       d="m 19.75,32.34 a 0.86,0.86 0 0 0 0.25,-1 c -0.17,-0.44 -1.59,-2.85 -1.67,-3 -0.08,-0.15 -0.33,-0.12 -0.47,0 -0.14,0.12 0,0.45 0.05,0.75 0.05,0.3 0.82,2.56 0.91,2.82 0.09,0.26 0.57,0.65 0.93,0.43 z"
       id="path9364" />
    <path
       class="cls-21"
       d="m 18,27.87 a 5.32,5.32 0 0 0 -2.45,1.54 c 0,0 1,0.55 1.27,0.73 A 5,5 0 0 1 18,27.87"
       id="path9366"
       style="stroke-width:0.930875" />
    <path
       class="cls-22"
       d="m 18,27.87 a 5.32,5.32 0 0 0 -2.45,1.54 c 0,0 1,0.55 1.27,0.73 A 5,5 0 0 1 18,27.87"
       id="path9368" />
    <path
       class="cls-23"
       d="m 30.06,27.39 a 0.84,0.84 0 0 0 0.65,-0.82 c 0,-0.46 -0.24,-3.19 -0.25,-3.37 C 30.45,23.02 30.22,23 30,23 c -0.22,0 -0.22,0.39 -0.26,0.7 -0.04,0.31 -0.23,2.65 -0.27,2.92 -0.04,0.27 0.18,0.82 0.59,0.77 z"
       id="path9370"
       style="stroke-width:0.930875" />
    <path
       class="cls-33"
       d="m 30.06,27.39 a 0.84,0.84 0 0 0 0.65,-0.82 c 0,-0.46 -0.24,-3.19 -0.25,-3.37 C 30.45,23.02 30.22,23 30,23 c -0.22,0 -0.22,0.39 -0.26,0.7 -0.04,0.31 -0.23,2.65 -0.27,2.92 -0.04,0.27 0.18,0.82 0.59,0.77 z"
       id="path9372"
       style="fill:url(#linear-gradient-19);stroke-width:0.930875" />
    <path
       class="cls-21"
       d="m 30.07,23.08 0.12,4.24 c 0,0 -0.33,0 -0.39,-0.06 A 3.18,3.18 0 0 1 29.57,26.65 L 30,23.13"
       id="path9374"
       style="stroke-width:0.930875" />
    <path
       class="cls-22"
       d="m 30.06,27.39 a 0.84,0.84 0 0 0 0.65,-0.82 c 0,-0.46 -0.24,-3.19 -0.25,-3.37 C 30.45,23.02 30.22,23 30,23 c -0.22,0 -0.22,0.39 -0.26,0.7 -0.04,0.31 -0.23,2.65 -0.27,2.92 -0.04,0.27 0.18,0.82 0.59,0.77 z"
       id="path9376" />
  </g>
</svg>
