<?xml version="1.0" encoding="UTF-8" standalone="no"?>
<!-- Created with Inkscape (http://www.inkscape.org/) -->

<svg
   xmlns:i="http://ns.adobe.com/AdobeIllustrator/10.0/"
   xmlns:a="http://ns.adobe.com/AdobeSVGViewerExtensions/3.0/"
   xmlns:dc="http://purl.org/dc/elements/1.1/"
   xmlns:cc="http://creativecommons.org/ns#"
   xmlns:rdf="http://www.w3.org/1999/02/22-rdf-syntax-ns#"
   xmlns:svg="http://www.w3.org/2000/svg"
   xmlns="http://www.w3.org/2000/svg"
   xmlns:xlink="http://www.w3.org/1999/xlink"
   xmlns:sodipodi="http://sodipodi.sourceforge.net/DTD/sodipodi-0.dtd"
   xmlns:inkscape="http://www.inkscape.org/namespaces/inkscape"
   width="48px"
   height="48px"
   id="svg35709"
   sodipodi:version="0.32"
   inkscape:version="0.48.5 r10040"
   sodipodi:docname="smoke_heavy.svg"
   inkscape:output_extension="org.inkscape.output.svg.inkscape"
   version="1.1">
  <defs
     id="defs35711">
    <linearGradient
       id="linearGradient10737">
      <stop
         style="stop-color:#8ae234;stop-opacity:0.6936937;"
         offset="0"
         id="stop10739" />
      <stop
         style="stop-color:#8ae234;stop-opacity:0.26126125;"
         offset="1"
         id="stop10741" />
    </linearGradient>
    <radialGradient
       gradientUnits="userSpaceOnUse"
       fy="200.9644"
       fx="29.1641"
       r="13.8519"
       cy="200.9644"
       cx="29.1641"
       id="XMLID_268_"
       gradientTransform="translate(-0.1623255,-166.619)">
      <stop
         id="stop30152"
         style="stop-color:#45484C"
         offset="0" />
      <stop
         id="stop30154"
         style="stop-color:#232426"
         offset="1" />
      <a:midPointStop
         style="stop-color:#45484C"
         offset="0" />
      <a:midPointStop
         style="stop-color:#45484C"
         offset="0.5" />
      <a:midPointStop
         style="stop-color:#232426"
         offset="1" />
    </radialGradient>
    <radialGradient
       gradientUnits="userSpaceOnUse"
       fy="186.1523"
       fx="40.9595"
       r="10.1417"
       cy="186.1523"
       cx="40.9595"
       id="XMLID_269_"
       gradientTransform="translate(-0.1623255,-166.619)">
      <stop
         id="stop30161"
         style="stop-color:#7A7F87"
         offset="0.0056" />
      <stop
         id="stop30163"
         style="stop-color:#72767E"
         offset="0.2574" />
      <stop
         id="stop30165"
         style="stop-color:#5B5F64"
         offset="0.6745" />
      <stop
         id="stop30167"
         style="stop-color:#45484C"
         offset="1" />
      <a:midPointStop
         style="stop-color:#7A7F87"
         offset="0.0056" />
      <a:midPointStop
         style="stop-color:#7A7F87"
         offset="0.5955" />
      <a:midPointStop
         style="stop-color:#45484C"
         offset="1" />
    </radialGradient>
    <radialGradient
       gradientUnits="userSpaceOnUse"
       fy="194.7109"
       fx="44.1963"
       r="7.9375"
       cy="194.7109"
       cx="44.1963"
       id="XMLID_270_"
       gradientTransform="translate(-0.1623255,-166.619)">
      <stop
         id="stop30172"
         style="stop-color:#DCE0E6"
         offset="0" />
      <stop
         id="stop30174"
         style="stop-color:#B9C1CC"
         offset="0.3631" />
      <stop
         id="stop30176"
         style="stop-color:#7A7F87"
         offset="1" />
      <a:midPointStop
         style="stop-color:#DCE0E6"
         offset="0" />
      <a:midPointStop
         style="stop-color:#DCE0E6"
         offset="0.5" />
      <a:midPointStop
         style="stop-color:#B9C1CC"
         offset="0.3631" />
      <a:midPointStop
         style="stop-color:#B9C1CC"
         offset="0.5" />
      <a:midPointStop
         style="stop-color:#7A7F87"
         offset="1" />
    </radialGradient>
    <radialGradient
       gradientUnits="userSpaceOnUse"
       fy="195.8628"
       fx="40.3003"
       r="5.8445"
       cy="195.8628"
       cx="40.3003"
       id="XMLID_271_"
       gradientTransform="translate(-0.1623255,-166.619)">
      <stop
         id="stop30181"
         style="stop-color:#7A7F87"
         offset="0.0056" />
      <stop
         id="stop30183"
         style="stop-color:#72767E"
         offset="0.2574" />
      <stop
         id="stop30185"
         style="stop-color:#5B5F64"
         offset="0.6745" />
      <stop
         id="stop30187"
         style="stop-color:#45484C"
         offset="1" />
      <a:midPointStop
         style="stop-color:#7A7F87"
         offset="0.0056" />
      <a:midPointStop
         style="stop-color:#7A7F87"
         offset="0.5955" />
      <a:midPointStop
         style="stop-color:#45484C"
         offset="1" />
    </radialGradient>
    <radialGradient
       gradientUnits="userSpaceOnUse"
       fy="191.2871"
       fx="27.1338"
       r="5.3901"
       cy="191.2871"
       cx="27.1338"
       id="XMLID_272_"
       gradientTransform="translate(-0.1623255,-166.619)">
      <stop
         id="stop30194"
         style="stop-color:#7A7F87"
         offset="0.0056" />
      <stop
         id="stop30196"
         style="stop-color:#45484C"
         offset="1" />
      <a:midPointStop
         style="stop-color:#7A7F87"
         offset="0.0056" />
      <a:midPointStop
         style="stop-color:#7A7F87"
         offset="0.5112" />
      <a:midPointStop
         style="stop-color:#45484C"
         offset="1" />
    </radialGradient>
    <radialGradient
       gradientUnits="userSpaceOnUse"
       fy="177.9697"
       fx="25.8008"
       r="12.2702"
       cy="177.9697"
       cx="25.8008"
       id="XMLID_273_"
       gradientTransform="translate(-0.1623255,-166.619)">
      <stop
         id="stop30201"
         style="stop-color:#959CA6"
         offset="0" />
      <stop
         id="stop30203"
         style="stop-color:#A1A8B3"
         offset="0.4302" />
      <stop
         id="stop30205"
         style="stop-color:#AAB1BC"
         offset="0.591" />
      <stop
         id="stop30207"
         style="stop-color:#C1C9D6"
         offset="0.8576" />
      <stop
         id="stop30209"
         style="stop-color:#D0D9E6"
         offset="1" />
      <a:midPointStop
         style="stop-color:#959CA6"
         offset="0" />
      <a:midPointStop
         style="stop-color:#959CA6"
         offset="0.5" />
      <a:midPointStop
         style="stop-color:#A1A8B3"
         offset="0.4302" />
      <a:midPointStop
         style="stop-color:#A1A8B3"
         offset="0.5955" />
      <a:midPointStop
         style="stop-color:#D0D9E6"
         offset="1" />
    </radialGradient>
    <radialGradient
       gradientUnits="userSpaceOnUse"
       fy="188.7847"
       fx="14.9561"
       r="12.4928"
       cy="188.7847"
       cx="14.9561"
       id="XMLID_274_"
       gradientTransform="translate(-0.1623255,-166.619)">
      <stop
         id="stop30214"
         style="stop-color:#45484C"
         offset="0" />
      <stop
         id="stop30216"
         style="stop-color:#232426"
         offset="1" />
      <a:midPointStop
         style="stop-color:#45484C"
         offset="0" />
      <a:midPointStop
         style="stop-color:#45484C"
         offset="0.5" />
      <a:midPointStop
         style="stop-color:#232426"
         offset="1" />
    </radialGradient>
    <radialGradient
       gradientUnits="userSpaceOnUse"
       fy="185.8237"
       fx="25.7627"
       r="6.3913"
       cy="185.8237"
       cx="25.7627"
       id="XMLID_275_"
       gradientTransform="translate(-0.1623255,-166.619)">
      <stop
         id="stop30221"
         style="stop-color:#232426"
         offset="0.0056" />
      <stop
         id="stop30223"
         style="stop-color:#252729"
         offset="0.3955" />
      <stop
         id="stop30225"
         style="stop-color:#2D2F32"
         offset="0.6586" />
      <stop
         id="stop30227"
         style="stop-color:#3B3D41"
         offset="0.8837" />
      <stop
         id="stop30229"
         style="stop-color:#45484C"
         offset="1" />
      <a:midPointStop
         style="stop-color:#232426"
         offset="0.0056" />
      <a:midPointStop
         style="stop-color:#232426"
         offset="0.7809" />
      <a:midPointStop
         style="stop-color:#45484C"
         offset="1" />
    </radialGradient>
    <radialGradient
       gradientUnits="userSpaceOnUse"
       fy="180.5361"
       fx="16.2095"
       r="8.4102"
       cy="180.5361"
       cx="16.2095"
       id="XMLID_276_"
       gradientTransform="translate(-0.1623255,-166.619)">
      <stop
         id="stop30234"
         style="stop-color:#7A7F87"
         offset="0.0056" />
      <stop
         id="stop30236"
         style="stop-color:#72767E"
         offset="0.2574" />
      <stop
         id="stop30238"
         style="stop-color:#5B5F64"
         offset="0.6745" />
      <stop
         id="stop30240"
         style="stop-color:#45484C"
         offset="1" />
      <a:midPointStop
         style="stop-color:#7A7F87"
         offset="0.0056" />
      <a:midPointStop
         style="stop-color:#7A7F87"
         offset="0.5955" />
      <a:midPointStop
         style="stop-color:#45484C"
         offset="1" />
    </radialGradient>
    <radialGradient
       gradientUnits="userSpaceOnUse"
       fy="201.1968"
       fx="25.73"
       r="14.3308"
       cy="201.1968"
       cx="25.73"
       id="XMLID_277_"
       gradientTransform="translate(-0.1623255,-166.619)">
      <stop
         id="stop30245"
         style="stop-color:#45484C"
         offset="0" />
      <stop
         id="stop30247"
         style="stop-color:#232426"
         offset="1" />
      <a:midPointStop
         style="stop-color:#45484C"
         offset="0" />
      <a:midPointStop
         style="stop-color:#45484C"
         offset="0.5" />
      <a:midPointStop
         style="stop-color:#232426"
         offset="1" />
    </radialGradient>
    <linearGradient
       y2="194.6357"
       x2="24.9979"
       y1="164.793"
       x1="20.3896"
       gradientUnits="userSpaceOnUse"
       id="XMLID_278_"
       gradientTransform="translate(-0.1623255,-166.619)">
      <stop
         id="stop30256"
         style="stop-color:#B9C1CC"
         offset="0" />
      <stop
         id="stop30258"
         style="stop-color:#7A7F87"
         offset="1" />
      <a:midPointStop
         style="stop-color:#B9C1CC"
         offset="0" />
      <a:midPointStop
         style="stop-color:#B9C1CC"
         offset="0.5" />
      <a:midPointStop
         style="stop-color:#7A7F87"
         offset="1" />
    </linearGradient>
    <linearGradient
       y2="184.0847"
       x2="14.1563"
       y1="175.5098"
       x1="21.8389"
       gradientUnits="userSpaceOnUse"
       id="XMLID_279_"
       gradientTransform="translate(-0.1623255,-166.619)">
      <stop
         id="stop30263"
         style="stop-color:#B9C1CC"
         offset="0" />
      <stop
         id="stop30265"
         style="stop-color:#7A7F87"
         offset="1" />
      <a:midPointStop
         style="stop-color:#B9C1CC"
         offset="0" />
      <a:midPointStop
         style="stop-color:#B9C1CC"
         offset="0.5" />
      <a:midPointStop
         style="stop-color:#7A7F87"
         offset="1" />
    </linearGradient>
    <radialGradient
       gradientUnits="userSpaceOnUse"
       fy="176.4644"
       fx="30.2148"
       r="20.8572"
       cy="176.4644"
       cx="30.2148"
       id="XMLID_280_"
       gradientTransform="translate(-0.1623255,-166.619)">
      <stop
         id="stop30270"
         style="stop-color:#C5CDD9"
         offset="0" />
      <stop
         id="stop30272"
         style="stop-color:#B9C1CC"
         offset="0.3911" />
      <stop
         id="stop30274"
         style="stop-color:#7A7F87"
         offset="1" />
      <a:midPointStop
         style="stop-color:#C5CDD9"
         offset="0" />
      <a:midPointStop
         style="stop-color:#C5CDD9"
         offset="0.5" />
      <a:midPointStop
         style="stop-color:#B9C1CC"
         offset="0.3911" />
      <a:midPointStop
         style="stop-color:#B9C1CC"
         offset="0.5" />
      <a:midPointStop
         style="stop-color:#7A7F87"
         offset="1" />
    </radialGradient>
    <radialGradient
       gradientUnits="userSpaceOnUse"
       fy="190.7173"
       fx="25.8052"
       r="11.5714"
       cy="190.7173"
       cx="25.8052"
       id="XMLID_281_"
       gradientTransform="translate(-0.1623255,-166.619)">
      <stop
         id="stop30285"
         style="stop-color:#7A7F87"
         offset="0.0056" />
      <stop
         id="stop30287"
         style="stop-color:#72767E"
         offset="0.2574" />
      <stop
         id="stop30289"
         style="stop-color:#5B5F64"
         offset="0.6745" />
      <stop
         id="stop30291"
         style="stop-color:#45484C"
         offset="1" />
      <a:midPointStop
         style="stop-color:#7A7F87"
         offset="0.0056" />
      <a:midPointStop
         style="stop-color:#7A7F87"
         offset="0.5955" />
      <a:midPointStop
         style="stop-color:#45484C"
         offset="1" />
    </radialGradient>
    <radialGradient
       gradientUnits="userSpaceOnUse"
       fy="197.499"
       fx="37.9976"
       r="5.5526"
       cy="197.499"
       cx="37.9976"
       id="XMLID_282_"
       gradientTransform="translate(-0.1623255,-166.619)">
      <stop
         id="stop30306"
         style="stop-color:#7A7F87"
         offset="0.0056" />
      <stop
         id="stop30308"
         style="stop-color:#7D828A"
         offset="0.2992" />
      <stop
         id="stop30310"
         style="stop-color:#858B93"
         offset="0.5175" />
      <stop
         id="stop30312"
         style="stop-color:#949AA4"
         offset="0.7115" />
      <stop
         id="stop30314"
         style="stop-color:#A9B0BA"
         offset="0.8903" />
      <stop
         id="stop30316"
         style="stop-color:#B9C1CC"
         offset="1" />
      <a:midPointStop
         style="stop-color:#7A7F87"
         offset="0.0056" />
      <a:midPointStop
         style="stop-color:#7A7F87"
         offset="0.764" />
      <a:midPointStop
         style="stop-color:#B9C1CC"
         offset="1" />
    </radialGradient>
    <radialGradient
       gradientUnits="userSpaceOnUse"
       gradientTransform="matrix(1.1534,0,0,1.1596,416.12437,-253.4363)"
       fy="253.5918"
       fx="-339.1948"
       r="5.5524"
       cy="253.5918"
       cx="-339.1948"
       id="XMLID_283_">
      <stop
         id="stop30321"
         style="stop-color:#7A7F87"
         offset="0.0056" />
      <stop
         id="stop30323"
         style="stop-color:#72767E"
         offset="0.2574" />
      <stop
         id="stop30325"
         style="stop-color:#5B5F64"
         offset="0.6745" />
      <stop
         id="stop30327"
         style="stop-color:#45484C"
         offset="1" />
      <a:midPointStop
         style="stop-color:#7A7F87"
         offset="0.0056" />
      <a:midPointStop
         style="stop-color:#7A7F87"
         offset="0.5955" />
      <a:midPointStop
         style="stop-color:#45484C"
         offset="1" />
    </radialGradient>
    <radialGradient
       gradientUnits="userSpaceOnUse"
       gradientTransform="matrix(0.1415,-0.8539,1.3738,0.2277,-3092.436,-2066.1322)"
       fy="2452.2397"
       fx="-1814.3457"
       r="26.88"
       cy="2452.2397"
       cx="-1814.3457"
       id="XMLID_284_">
      <stop
         id="stop30332"
         style="stop-color:#45484C"
         offset="0" />
      <stop
         id="stop30334"
         style="stop-color:#232426"
         offset="1" />
      <a:midPointStop
         style="stop-color:#45484C"
         offset="0" />
      <a:midPointStop
         style="stop-color:#45484C"
         offset="0.5" />
      <a:midPointStop
         style="stop-color:#232426"
         offset="1" />
    </radialGradient>
    <radialGradient
       gradientUnits="userSpaceOnUse"
       gradientTransform="matrix(0.1415,-0.8539,1.3738,0.2277,-3092.436,-2066.1322)"
       fy="2452.8911"
       fx="-1820.1694"
       r="12.4355"
       cy="2452.8911"
       cx="-1820.1694"
       id="XMLID_285_">
      <stop
         id="stop30339"
         style="stop-color:#7A7F87"
         offset="0.0056" />
      <stop
         id="stop30341"
         style="stop-color:#72767E"
         offset="0.2574" />
      <stop
         id="stop30343"
         style="stop-color:#5B5F64"
         offset="0.6745" />
      <stop
         id="stop30345"
         style="stop-color:#45484C"
         offset="1" />
      <a:midPointStop
         style="stop-color:#7A7F87"
         offset="0.0056" />
      <a:midPointStop
         style="stop-color:#7A7F87"
         offset="0.5955" />
      <a:midPointStop
         style="stop-color:#45484C"
         offset="1" />
    </radialGradient>
    <radialGradient
       gradientUnits="userSpaceOnUse"
       fy="198.0513"
       fx="13.4727"
       r="11.141"
       cy="198.0513"
       cx="13.4727"
       id="XMLID_286_"
       gradientTransform="translate(-0.1623255,-166.619)">
      <stop
         id="stop30352"
         style="stop-color:#7A7F87"
         offset="0.0056" />
      <stop
         id="stop30354"
         style="stop-color:#72767E"
         offset="0.2574" />
      <stop
         id="stop30356"
         style="stop-color:#5B5F64"
         offset="0.6745" />
      <stop
         id="stop30358"
         style="stop-color:#45484C"
         offset="1" />
      <a:midPointStop
         style="stop-color:#7A7F87"
         offset="0.0056" />
      <a:midPointStop
         style="stop-color:#7A7F87"
         offset="0.5955" />
      <a:midPointStop
         style="stop-color:#45484C"
         offset="1" />
    </radialGradient>
    <radialGradient
       gradientUnits="userSpaceOnUse"
       fy="176.9365"
       fx="16.9849"
       r="16.3535"
       cy="176.9365"
       cx="16.9849"
       id="XMLID_287_"
       gradientTransform="translate(-0.1623255,-166.619)">
      <stop
         id="stop30363"
         style="stop-color:#C5CDD9"
         offset="0" />
      <stop
         id="stop30365"
         style="stop-color:#B9C1CC"
         offset="0.3911" />
      <stop
         id="stop30367"
         style="stop-color:#7A7F87"
         offset="1" />
      <a:midPointStop
         style="stop-color:#C5CDD9"
         offset="0" />
      <a:midPointStop
         style="stop-color:#C5CDD9"
         offset="0.5" />
      <a:midPointStop
         style="stop-color:#B9C1CC"
         offset="0.3911" />
      <a:midPointStop
         style="stop-color:#B9C1CC"
         offset="0.5" />
      <a:midPointStop
         style="stop-color:#7A7F87"
         offset="1" />
    </radialGradient>
    <radialGradient
       gradientUnits="userSpaceOnUse"
       fy="189.229"
       fx="9.9941"
       r="2.4207"
       cy="189.229"
       cx="9.9941"
       id="XMLID_288_"
       gradientTransform="translate(-0.1623255,-166.619)">
      <stop
         id="stop30372"
         style="stop-color:#C5CDD9"
         offset="0" />
      <stop
         id="stop30374"
         style="stop-color:#B9C1CC"
         offset="0.3911" />
      <stop
         id="stop30376"
         style="stop-color:#7A7F87"
         offset="1" />
      <a:midPointStop
         style="stop-color:#C5CDD9"
         offset="0" />
      <a:midPointStop
         style="stop-color:#C5CDD9"
         offset="0.5" />
      <a:midPointStop
         style="stop-color:#B9C1CC"
         offset="0.3911" />
      <a:midPointStop
         style="stop-color:#B9C1CC"
         offset="0.5" />
      <a:midPointStop
         style="stop-color:#7A7F87"
         offset="1" />
    </radialGradient>
    <radialGradient
       gradientUnits="userSpaceOnUse"
       fy="173.9292"
       fx="32.5415"
       r="4.7129"
       cy="173.9292"
       cx="32.5415"
       id="XMLID_289_"
       gradientTransform="translate(-0.1623255,-166.619)">
      <stop
         id="stop30381"
         style="stop-color:#B9C1CC"
         offset="0" />
      <stop
         id="stop30383"
         style="stop-color:#7A7F87"
         offset="1" />
      <a:midPointStop
         style="stop-color:#B9C1CC"
         offset="0" />
      <a:midPointStop
         style="stop-color:#B9C1CC"
         offset="0.5" />
      <a:midPointStop
         style="stop-color:#7A7F87"
         offset="1" />
    </radialGradient>
    <radialGradient
       gradientUnits="userSpaceOnUse"
       fy="171.939"
       fx="26.7661"
       r="2.1501"
       cy="171.939"
       cx="26.7661"
       id="XMLID_290_"
       gradientTransform="translate(-0.1623255,-166.619)">
      <stop
         id="stop30388"
         style="stop-color:#686C73"
         offset="0" />
      <stop
         id="stop30390"
         style="stop-color:#6B6F76"
         offset="0.4775" />
      <stop
         id="stop30392"
         style="stop-color:#73787F"
         offset="0.8321" />
      <stop
         id="stop30394"
         style="stop-color:#7A7F87"
         offset="1" />
      <a:midPointStop
         style="stop-color:#686C73"
         offset="0" />
      <a:midPointStop
         style="stop-color:#686C73"
         offset="0.764" />
      <a:midPointStop
         style="stop-color:#7A7F87"
         offset="1" />
    </radialGradient>
    <radialGradient
       inkscape:collect="always"
       xlink:href="#linearGradient10737"
       id="radialGradient10743"
       cx="20.876612"
       cy="210.06844"
       fx="20.876612"
       fy="210.06844"
       r="22.629362"
       gradientTransform="matrix(1.4797592,0.00663853,-0.00853228,1.9018804,-8.2233848,-189.36814)"
       gradientUnits="userSpaceOnUse" />
  </defs>
  <sodipodi:namedview
     id="base"
     pagecolor="#ffffff"
     bordercolor="#666666"
     borderopacity="1.0"
     inkscape:pageopacity="0.0"
     inkscape:pageshadow="2"
     inkscape:zoom="7"
     inkscape:cx="1.2857143"
     inkscape:cy="22.785714"
     inkscape:current-layer="layer1"
     showgrid="true"
     inkscape:grid-bbox="true"
     inkscape:document-units="px"
     inkscape:window-width="2560"
     inkscape:window-height="1377"
     inkscape:window-x="-8"
     inkscape:window-y="-8"
     inkscape:window-maximized="1" />
  <metadata
     id="metadata35714">
    <rdf:RDF>
      <cc:Work
         rdf:about="">
        <dc:format>image/svg+xml</dc:format>
        <dc:type
           rdf:resource="http://purl.org/dc/dcmitype/StillImage" />
        <dc:title></dc:title>
      </cc:Work>
    </rdf:RDF>
  </metadata>
  <g
     id="layer1"
     inkscape:label="Layer 1"
     inkscape:groupmode="layer">
    <g
       transform="translate(-0.1623255,-166.619)"
       id="g30147"
       a:adobe-blending-mode="multiply"
       i:knockout="Off"
       style="stroke:#4e9a06">
      <path
         style="fill:none;stroke:#4e9a06;stroke-width:2"
         id="path30149"
         d="M 35.797,202.836 C 38.082,204.434 41.099,202.401 41.207,200.778 C 46.035,200.668 46.036,197.046 46.036,195.949 C 46.036,193.535 44.938,192.549 43.403,191.56 L 43.439,191.559 L 43.413,191.567 C 44.442,191.261 45.434,190.553 45.257,188.944 C 47.915,187.881 47.029,184.868 45.257,184.69 C 47.029,184.513 46.497,181.323 44.725,181.677 C 45.033,180.143 42.283,177.944 40.273,178.878 L 40.352,178.844 L 40.352,178.845 C 40.234,178.491 39.466,177.486 38.404,177.722 C 38.758,177.013 38.64,176.306 37.578,175.479 C 38.759,175.714 39.586,174.18 38.287,173.473 C 39.586,171.467 37.578,169.812 36.397,170.402 C 35.571,168.395 31.439,167.923 30.141,169.34 C 29.197,168.16 27.189,167.451 25.891,168.041 C 24.275,168.776 23.884,170.167 23.766,171.819 C 23.057,171.7 20.333,172.67 20.097,175.505 L 20.12,175.522 C 18.898,174.571 17.209,173.879 15.658,173.879 C 13.177,173.879 10.695,176.005 10.873,178.31 C 8.214,178.31 7.328,183.449 10.695,184.513 C 9.987,184.513 8.569,185.399 8.746,186.463 C 6.619,186.109 4.492,188.058 4.492,190.539 C 3.429,190.185 -0.47,193.552 3.251,195.856 C 2.01,196.742 2.543,199.223 6.619,199.933 C 5.178,202.777 8.027,203.283 8.027,203.283 L 8.027,203.283 C 10.329,211.348 17.825,213.619 21.681,213.619 C 26.004,213.619 33.422,211.378 35.445,202.977 L 35.445,202.977 L 35.797,202.836 L 35.797,202.836 z "
         a:adobe-blending-mode="normal"
         i:knockout="Off" />
    </g>
    <path
       style="fill:url(#XMLID_268_)"
       id="path30156"
       d="M 29.442674,30.599997 C 28.679674,30.489997 26.827674,31.796997 28.680674,33.323997 C 28.957674,33.599997 29.988674,33.431997 29.988674,33.431997 L 30.380674,33.528997 L 30.405674,33.521997 C 29.395674,33.789997 28.498674,34.384997 27.943674,34.969997 C 25.684674,33.579997 23.612674,34.819997 22.577674,36.419997 L 22.251674,35.938997 C 21.379674,32.124997 25.086674,32.235997 25.956674,32.887997 C 25.303674,30.816997 27.481674,30.163997 27.481674,30.163997 L 27.658674,29.971997 C 25.620674,29.554997 24.825674,28.038997 25.533674,26.798997 C 24.373674,26.530997 22.797674,24.182997 23.066674,22.609997 L 23.024674,22.581997 L 23.071674,22.581997 C 23.154674,22.141997 23.384674,21.762997 23.810674,21.512997 L 24.011674,21.841997 C 24.011674,24.253997 26.234674,26.696997 28.428674,26.367997 C 27.659674,27.793997 28.537674,29.221997 30.513674,29.221997 L 29.442674,30.599997 z "
       i:knockout="Off" />
    <path
       style="fill:#232426"
       id="path30158"
       d="M 32.497674,29.646997 L 32.546674,29.652997 C 32.951674,29.409997 33.500674,28.862997 33.500674,28.246997 L 33.481674,28.249997 C 32.045674,28.496997 30.128674,28.606997 29.416674,27.464997 C 29.416674,27.464997 29.416674,28.006997 30.160674,28.854997 L 30.158674,28.851997 C 31.154674,28.554997 32.591674,28.882997 32.546674,29.653997 L 32.546674,29.653997 L 32.497674,29.646997 z "
       i:knockout="Off" />
    <path
       style="fill:url(#XMLID_269_)"
       id="path30169"
       d="M 35.120674,27.903997 C 35.120674,27.903997 37.620674,27.103997 38.317674,24.770997 C 39.014674,26.652997 41.195674,25.161997 41.195674,25.161997 C 41.195674,25.161997 45.448674,25.515997 45.094674,22.324997 C 45.002674,23.576997 44.584674,23.732997 44.584674,23.732997 C 43.678674,24.143997 43.760674,21.345997 43.760674,19.947997 C 42.362674,20.440997 40.798674,18.630997 40.715674,17.971997 C 40.715674,20.440997 38.987674,20.687997 38.164674,20.687997 C 37.342674,20.687997 35.531674,20.111997 36.024674,18.300997 C 36.517674,16.489997 34.214674,17.148997 34.955674,18.382997 C 35.695674,19.617997 36.107674,20.604997 35.695674,21.839997 C 35.232674,23.229997 32.321674,23.978997 30.593674,21.510997 C 30.292674,22.458997 30.511674,22.745997 30.511674,22.745997 C 30.771674,23.525997 31.568674,24.225997 32.359674,24.555997 C 31.112674,24.800997 30.731674,25.817997 30.731674,25.817997 C 30.402674,26.476997 28.865674,26.257997 28.865674,26.257997 L 28.427674,26.365997 C 27.658674,27.791997 28.536674,29.219997 30.512674,29.219997 C 29.415674,28.163997 29.415674,27.462997 29.415674,27.462997 C 30.512674,29.220997 34.462674,28.014997 35.120674,27.903997 z "
       i:knockout="Off" />
    <path
       style="fill:url(#XMLID_270_)"
       id="path30178"
       d="M 35.633674,36.217997 C 37.325674,36.255997 40.611674,33.471997 40.412674,31.492997 C 40.192674,29.298997 38.656674,29.516997 38.656674,29.516997 C 41.179674,27.870997 42.744674,25.631997 41.194674,25.161997 C 41.194674,25.161997 42.257674,25.250997 43.276674,24.939997 L 43.240674,24.940997 C 44.775674,25.928997 45.873674,26.915997 45.873674,29.329997 C 45.873674,30.426997 45.872674,34.048997 41.044674,34.158997 C 40.935674,35.804997 37.835674,37.870997 35.539674,36.147997 L 35.633674,36.217997 z "
       i:knockout="Off" />
    <path
       style="fill:url(#XMLID_271_)"
       id="path30189"
       d="M 35.120674,27.903997 C 34.304674,28.882997 33.427674,30.046997 33.845674,31.434997 L 33.693674,31.470997 C 33.693674,30.571997 33.203674,29.670997 32.498674,29.645997 L 32.547674,29.651997 L 32.547674,29.651997 C 32.624674,28.311997 28.235674,28.311997 29.443674,30.598997 C 29.008674,31.034997 28.464674,32.339997 29.989674,33.430997 L 30.381674,33.527997 C 32.048674,33.076997 34.027674,33.510997 35.282674,36.358997 L 35.147674,36.100997 C 36.573674,36.869997 40.633674,33.685997 40.414674,31.492997 C 40.194674,29.298997 38.658674,29.516997 38.658674,29.516997 C 41.181674,27.870997 42.746674,25.631997 41.196674,25.161997 C 41.196674,25.161997 39.015674,26.652997 38.318674,24.770997 C 37.620674,27.104997 35.120674,27.903997 35.120674,27.903997 z "
       i:knockout="Off" />
    <path
       id="path30191"
       d="M 33.692674,31.471997 C 33.692674,30.572997 33.202674,29.671997 32.497674,29.646997 L 32.546674,29.652997 C 32.951674,29.409997 33.500674,28.862997 33.500674,28.246997 C 34.266674,28.114997 34.892674,27.943997 35.120674,27.904997 C 34.298674,28.891997 33.414674,30.064997 33.855674,31.468997 L 33.692674,31.471997 z "
       i:knockout="Off" />
    <path
       style="fill:url(#XMLID_272_)"
       id="path30198"
       d="M 24.010674,21.840997 C 24.010674,24.252997 26.233674,26.695997 28.427674,26.366997 L 28.865674,26.258997 C 28.865674,26.258997 30.402674,26.477997 30.731674,25.818997 C 30.731674,25.818997 31.112674,24.801997 32.359674,24.556997 C 31.568674,24.227997 30.771674,23.527997 30.511674,22.746997 L 30.593674,21.511997 C 29.688674,23.733997 28.535674,23.733997 26.808674,23.568997 C 25.080674,23.403997 24.257674,22.580997 24.010674,21.840997"
       i:knockout="Off" />
    <path
       style="fill:url(#XMLID_273_)"
       id="path30211"
       d="M 30.667674,11.124997 C 31.618674,10.115997 33.066674,9.4639967 34.282674,9.5649967 C 36.409674,9.7409967 38.536674,11.160997 39.245674,12.931997 C 39.529674,12.597997 39.849674,12.366997 40.189674,12.224997 L 40.189674,12.225997 C 40.071674,11.871997 39.303674,10.866997 38.241674,11.102997 C 38.595674,10.393997 38.477674,9.6869967 37.415674,8.8599967 C 38.596674,9.0949967 39.423674,7.5609967 38.124674,6.8539967 C 39.423674,4.8479967 37.415674,3.1929967 36.234674,3.7829967 C 35.408674,1.7759967 31.276674,1.3039967 29.978674,2.7209967 C 29.034674,1.5409967 27.026674,0.83199671 25.728674,1.4219967 C 24.112674,2.1569967 23.721674,3.5479967 23.603674,5.1999967 C 22.894674,5.0809967 20.170674,6.0509967 19.934674,8.8859967 C 20.679674,9.4589967 21.253674,10.130997 21.522674,10.802997 C 23.073674,10.581997 24.416674,11.745997 25.075674,13.038997 L 25.081674,13.115997 C 27.385674,11.799997 26.974674,9.4949967 27.385674,8.2619967 C 27.714674,9.1659967 29.278674,9.0019967 29.607674,8.5909967 C 29.360674,9.9079967 29.350674,10.959997 30.667674,11.124997 z "
       i:knockout="Off" />
    <path
       style="fill:url(#XMLID_274_)"
       id="path30218"
       d="M 23.023674,22.580997 C 19.978674,23.650997 18.661674,23.567997 17.345674,22.580997 C 17.016674,26.036997 12.655674,29.246997 8.7866745,29.246997 C 11.831675,27.353997 13.231674,30.397997 13.231674,30.397997 C 14.218674,27.270997 20.966674,26.859997 22.365674,32.372997 C 23.188674,30.726997 25.986674,30.315997 25.986674,30.315997 C 22.694674,28.257997 24.670674,27.188997 24.670674,27.188997 C 21.131674,26.283997 22.365674,23.567997 22.365674,23.567997 L 23.066674,22.608997 C 22.797674,24.181997 24.373674,26.530997 25.533674,26.797997 C 24.825674,28.037997 25.620674,29.553997 27.658674,29.970997 L 27.481674,30.162997 C 27.481674,30.162997 25.302674,30.814997 25.956674,32.886997 C 25.086674,32.234997 21.379674,32.122997 22.251674,35.937997 L 22.577674,36.418997 C 22.232674,36.952997 22.002674,37.526997 21.918674,38.058997 C 19.910674,36.667997 15.894674,36.126997 15.275674,41.456997 C 15.165674,38.801997 13.351674,36.819997 11.422674,36.221997 L 11.413675,36.218997 C 12.804674,36.218997 13.809674,33.964997 12.032674,33.114997 C 11.568675,31.337997 9.4066745,30.718997 8.4786745,32.263997 L 8.1286745,32.701997 C 5.3306745,32.042997 3.4386745,30.396997 4.0136745,29.245997 C 3.1086745,29.245997 2.9886745,27.717997 3.4376745,27.105997 C 4.3416745,25.871997 5.0006745,26.775997 5.0006745,26.775997 C 6.1526745,28.256997 8.7036745,27.763997 8.2096745,26.282997 C 10.925675,27.269997 12.324674,23.566997 12.324674,23.566997 C 12.665674,23.226997 12.817674,22.908997 12.817674,22.908997 C 14.463674,22.167997 14.628674,20.686997 14.628674,18.876997 C 14.628674,17.869997 13.558674,16.983997 13.558674,16.983997 C 14.710674,18.546997 17.015674,18.546997 17.920674,16.653997 C 18.496674,18.629997 19.236674,19.040997 20.389674,19.123997 C 19.731674,20.935997 21.624674,22.580997 23.023674,22.580997 L 23.070674,22.580997"
       i:knockout="Off" />
    <path
       style="fill:url(#XMLID_275_)"
       id="path30231"
       d="M 28.866674,14.269997 C 28.041674,15.212997 27.887674,17.426997 28.965674,19.311997 C 28.787674,18.071997 25.952674,17.363997 24.888674,18.957997 C 24.888674,18.957997 24.711674,17.185997 23.470674,17.539997 C 23.470674,17.539997 24.888674,16.829997 25.420674,15.236997 C 25.555674,14.830997 25.530674,14.322997 25.377674,13.796997 L 25.410674,13.775997 C 26.397674,14.022997 27.714674,12.046997 27.714674,12.046997 C 27.879674,13.198997 28.866674,14.269997 28.866674,14.269997 L 28.866674,14.269997 z "
       i:knockout="Off" />
    <path
       style="fill:url(#XMLID_276_)"
       id="path30242"
       d="M 23.070674,22.580997 C 23.153674,22.140997 23.383674,21.761997 23.809674,21.511997 C 23.924674,20.706997 22.890674,18.292997 21.510674,18.176997 C 22.085674,18.176997 22.486674,16.246997 21.681674,15.327997 C 20.876674,14.407997 19.299674,14.458997 18.407674,15.534997 C 18.407674,15.534997 18.865674,11.858997 15.648674,11.970997 C 13.395674,12.047997 13.642674,14.598997 13.642674,14.598997 C 11.667675,13.693997 9.1166745,15.503997 11.996674,18.219997 C 9.8576745,18.383997 8.6236745,20.194997 8.6236745,21.181997 C 11.256675,20.935997 12.327674,22.415997 12.327674,23.568997 C 12.668674,23.228997 12.820674,22.910997 12.820674,22.910997 C 14.466674,22.169997 14.631674,20.688997 14.631674,18.878997 C 14.631674,17.871997 13.561674,16.985997 13.561674,16.985997 C 14.713674,18.548997 17.018674,18.548997 17.923674,16.655997 C 18.499674,18.631997 19.239674,19.042997 20.392674,19.125997 C 19.733674,20.936997 21.625674,22.581997 23.025674,22.581997 L 23.070674,22.581997 L 23.070674,22.580997 z "
       i:knockout="Off" />
    <path
       style="fill:url(#XMLID_277_)"
       id="path30249"
       d="M 35.281674,36.359997 L 35.281674,36.359997 C 33.390674,44.213997 25.598674,46.071997 21.517674,46.071997 C 17.876674,46.071997 10.018674,44.215997 7.8636745,36.665997 L 7.8636745,36.665997 C 7.8636745,36.665997 8.7646745,36.301997 9.1746745,36.205997 C 11.645675,35.355997 15.121674,37.750997 15.276674,41.458997 C 15.894674,36.128997 19.910674,36.669997 21.919674,38.060997 C 22.252674,35.939997 24.932674,33.117997 27.944674,34.970997 C 29.410674,33.423997 33.272674,31.802997 35.281674,36.359997 z "
       i:knockout="Off" />
    <path
       id="path30251"
       d="M 22.365674,23.568997 C 22.365674,23.568997 21.131674,26.284997 24.670674,27.189997 C 24.670674,27.189997 22.694674,28.258997 25.986674,30.316997 C 25.986674,30.316997 23.188674,30.727997 22.365674,32.373997 C 20.967674,26.860997 14.219674,27.271997 13.231674,30.398997 C 13.231674,30.398997 11.832675,27.354997 8.7866745,29.247997 C 12.654674,29.247997 17.016674,26.037997 17.345674,22.581997 C 18.661674,23.568997 19.978674,23.651997 23.023674,22.581997 L 22.365674,23.568997 z "
       i:knockout="Off" />
    <path
       style="fill:#7a7f87"
       id="path30253"
       d="M 28.837674,14.239997 C 29.069674,13.970997 29.354674,13.817997 29.674674,13.817997 C 29.522674,12.832997 29.954674,11.879997 30.664674,11.126997 L 30.663674,11.128997 C 29.437674,10.926997 29.365674,9.8759967 29.605674,8.5919967 C 29.276674,9.0029967 27.712674,9.1669967 27.383674,8.2629967 C 26.972674,9.4959967 27.383674,11.800997 25.079674,13.116997 L 25.102674,13.097997 C 25.214674,13.324997 25.306674,13.557997 25.373674,13.785997 L 25.409674,13.774997 C 26.396674,14.021997 27.713674,12.045997 27.713674,12.045997 C 27.878674,13.196997 28.865674,14.267997 28.865674,14.267997 L 28.837674,14.239997 z "
       i:knockout="Off" />
    <path
       style="fill:url(#XMLID_278_)"
       id="path30260"
       d="M 8.1296745,32.702997 C 5.3316745,32.043997 3.4396745,30.397997 4.0146745,29.246997 C 3.1096745,29.246997 2.9896745,27.718997 3.4386745,27.106997 C 4.3426745,25.872997 5.0016745,26.776997 5.0016745,26.776997 C 6.1536745,28.257997 8.7046745,27.764997 8.2106745,26.283997 C 10.926675,27.270997 12.325674,24.720997 12.325674,23.567997 C 12.325674,22.414997 11.255675,20.934997 8.6216745,21.180997 C 8.6216745,20.193997 9.8556745,18.382997 11.994675,18.218997 C 9.1156745,15.502997 11.666674,13.692997 13.640674,14.597997 C 13.640674,14.597997 13.393674,12.046997 15.646674,11.969997 C 18.863674,11.858997 18.405674,15.533997 18.405674,15.533997 C 19.298674,14.457997 20.874674,14.406997 21.679674,15.326997 C 22.484674,16.245997 22.083674,18.175997 21.508674,18.175997 C 22.887674,18.291997 23.922674,20.705997 23.807674,21.510997 C 24.005674,21.487997 24.008674,21.839997 24.008674,21.839997 C 24.255674,22.579997 25.078674,23.402997 26.807674,23.567997 C 28.534674,23.732997 29.687674,23.732997 30.592674,21.510997 C 32.320674,23.978997 35.231674,23.229997 35.694674,21.839997 C 36.106674,20.604997 35.694674,19.617997 34.954674,18.382997 C 34.214674,17.148997 36.517674,16.489997 36.023674,18.300997 C 35.529674,20.111997 37.340674,20.687997 38.163674,20.687997 C 38.986674,20.687997 40.714674,20.440997 40.714674,17.971997 C 40.797674,18.629997 42.360674,20.440997 43.759674,19.947997 C 43.759674,21.345997 43.677674,24.143997 44.583674,23.732997 C 44.764674,23.668997 44.880674,23.740997 44.880674,23.740997 C 45.068674,23.369997 45.157674,22.905997 45.093674,22.324997 C 47.751674,21.261997 46.865674,18.248997 45.093674,18.070997 C 46.865674,17.893997 46.333674,14.703997 44.561674,15.057997 C 44.915674,13.286997 41.194674,10.626997 39.244674,12.931997 C 38.535674,11.160997 36.408674,9.7409967 34.281674,9.5649967 C 32.155674,9.3869967 29.319674,11.512997 29.674674,13.817997 C 28.256674,13.817997 27.547674,16.829997 28.965674,19.310997 C 28.787674,18.070997 25.952674,17.362997 24.888674,18.956997 C 24.888674,18.956997 24.711674,17.184997 23.470674,17.538997 C 23.470674,17.538997 24.888674,16.828997 25.420674,15.235997 C 25.952674,13.640997 24.003674,10.449997 21.521674,10.801997 C 20.812674,9.0299967 17.976674,7.2589967 15.495674,7.2589967 C 13.014674,7.2589967 10.532675,9.3849967 10.710675,11.689997 C 8.0516745,11.689997 7.1656745,16.828997 10.532675,17.892997 C 9.8246745,17.892997 8.4066745,18.778997 8.5836745,19.842997 C 6.4566745,19.488997 4.3296745,21.437997 4.3296745,23.918997 C 3.2666745,23.564997 -0.6323255,26.931997 3.0886745,29.235997 C 1.8476745,30.121997 2.3806745,32.602997 6.4566745,33.312997 C 6.6236745,32.082997 8.1296745,32.702997 8.1296745,32.702997 z "
       i:knockout="Off" />
    <path
       style="fill:url(#XMLID_279_)"
       id="path30267"
       d="M 8.6226745,21.181997 C 8.6226745,20.194997 9.8566745,18.383997 11.995675,18.219997 C 9.1166745,15.503997 11.667675,13.693997 13.641674,14.598997 C 13.641674,14.598997 13.394674,12.047997 15.647674,11.970997 C 18.864674,11.859997 18.406674,15.534997 18.406674,15.534997 C 19.299674,14.458997 20.875674,14.407997 21.680674,15.327997 C 22.485674,16.246997 22.084674,18.176997 21.509674,18.176997 L 23.469674,17.539997 C 23.469674,17.539997 24.887674,16.829997 25.419674,15.236997 C 25.951674,13.641997 24.002674,10.450997 21.520674,10.802997 C 20.811674,9.0309967 17.975674,7.2599967 15.494674,7.2599967 C 13.013674,7.2599967 10.531674,9.3859967 10.709675,11.690997 C 8.0506745,11.690997 7.1646745,16.829997 10.531674,17.893997 C 9.8236745,17.893997 8.4056745,18.779997 8.5826745,19.843997 L 8.6226745,21.181997 z "
       i:knockout="Off" />
    <path
       style="fill:url(#XMLID_280_)"
       id="path30276"
       d="M 31.611674,12.042997 C 31.357674,12.313997 30.961674,12.833997 30.961674,13.422997 C 30.961674,13.486997 30.966674,13.552997 30.976674,13.616997 L 31.152674,14.761997 C 31.152674,14.761997 30.115674,15.024997 29.846674,15.090997 C 29.689674,15.227997 29.510674,15.742997 29.510674,16.443997 C 29.510674,17.081997 29.659674,17.871997 30.109674,18.659997 L 27.662674,19.499997 L 27.714674,19.644997 C 27.640674,19.552997 27.238674,19.332997 26.721674,19.354997 C 26.479674,19.365997 26.156674,19.431997 25.984674,19.688997 C 25.984674,19.688997 25.521674,20.382997 25.063674,21.069997 C 25.073674,21.168997 25.133674,21.279997 25.133674,21.373997 C 25.222674,21.581997 25.348674,21.877997 25.348674,21.877997 L 25.260674,21.425997 C 25.366674,21.746997 25.868674,22.157997 26.933674,22.260997 C 28.438674,22.403997 28.794674,22.437997 29.374674,21.016997 L 30.286674,18.778997 L 31.672674,20.758997 C 32.416674,21.821997 33.311674,21.841997 33.660674,21.801997 C 34.136674,21.743997 34.412674,21.511997 34.447674,21.424997 C 34.665674,20.769997 34.519674,20.218997 33.826674,19.065997 C 33.301674,18.189997 33.395674,17.181997 34.067674,16.498997 C 34.709674,15.843997 35.721674,15.682997 36.474674,16.113997 C 37.107674,16.476997 37.654674,17.333997 37.294674,18.650997 C 37.218674,18.929997 37.277674,19.009997 37.297674,19.035997 C 37.441674,19.223997 37.888674,19.374997 38.163674,19.374997 C 38.945674,19.374997 39.397674,19.145997 39.397674,17.975997 L 42.020674,17.812997 L 41.993674,17.689997 C 42.149674,18.077997 42.992674,18.825997 43.320674,18.708997 C 43.320674,18.708997 44.762674,18.200997 44.964674,18.128997 C 44.966674,17.447997 44.968674,16.764997 44.968674,16.764997 C 44.929674,16.773997 44.864674,16.820997 44.848674,16.855997 C 44.908674,16.735997 44.843674,16.406997 44.744674,16.322997 L 43.008674,16.592997 L 43.269674,14.817997 C 43.269674,14.575997 42.730674,13.827997 41.832674,13.491997 C 40.820674,13.113997 40.391674,13.621997 40.249674,13.788997 L 38.837674,15.453997 L 38.024674,13.420997 C 37.507674,12.131997 35.816674,11.012997 34.174674,10.877997 C 33.379674,10.810997 32.301674,11.300997 31.611674,12.042997 z M 45.077674,20.794997 C 45.302674,20.606997 45.456674,20.394997 45.456674,20.136997 C 45.456674,20.093997 45.453674,20.051997 45.446674,20.007997 C 45.409674,19.745997 45.253674,19.547997 45.079674,19.457997 C 45.078674,19.647997 45.077674,20.726997 45.077674,20.794997 z "
       i:knockout="Off" />
    <path
       style="fill:none;stroke:#000000;stroke-width:0.25"
       id="path30278"
       d="M 13.560674,16.984997 C 14.712674,18.547997 17.017674,18.547997 17.922674,16.654997 C 18.498674,18.630997 19.238674,19.041997 20.391674,19.124997 C 19.732674,20.935997 21.624674,22.580997 23.024674,22.580997 C 19.979674,23.650997 18.662674,23.567997 17.346674,22.580997 C 17.017674,26.036997 12.656674,29.246997 8.7876745,29.246997 C 11.832675,27.353997 13.232674,30.397997 13.232674,30.397997 C 14.219674,27.270997 20.967674,26.859997 22.366674,32.372997 C 23.189674,30.726997 25.987674,30.315997 25.987674,30.315997 C 22.695674,28.257997 24.671674,27.188997 24.671674,27.188997 C 21.132674,26.283997 22.366674,23.567997 22.366674,23.567997"
       i:knockout="Off" />
    <path
       id="path30280"
       d="M 20.143674,19.288997 C 18.827674,20.029997 17.181674,19.453997 16.687674,18.548997 C 16.357674,20.441997 17.674674,21.181997 18.744674,21.181997 C 20.672674,21.181997 20.143674,19.288997 20.143674,19.288997 z "
       i:knockout="Off" />
    <path
       style="fill:none;stroke:#222626;stroke-width:0.5"
       id="path30282"
       d="M 14.629674,18.877997 C 14.629674,20.688997 14.464674,22.168997 12.818674,22.909997"
       i:knockout="Off" />
    <path
       style="fill:url(#XMLID_281_)"
       id="path30293"
       d="M 15.706674,31.360997 C 16.163674,28.733997 19.591674,29.762997 19.934674,31.018997 C 21.191674,30.675997 23.133674,32.846997 20.162674,33.646997 C 19.477674,34.674997 17.762674,35.018997 17.077674,34.446997 C 17.168674,35.179997 16.269674,35.489997 15.623674,35.297997 C 15.172674,35.161997 15.020674,34.332997 15.020674,34.332997 C 13.307674,33.647997 13.650674,30.903997 15.706674,31.360997 z "
       i:knockout="Off" />
    <circle
       transform="translate(-0.1623255,-166.619)"
       style="fill:#3a3b40"
       sodipodi:ry="0.85500002"
       sodipodi:rx="0.85500002"
       sodipodi:cy="193.69701"
       sodipodi:cx="22.677"
       id="circle30295"
       r="0.85500002"
       cy="193.69701"
       cx="22.677"
       i:knockout="Off" />
    <path
       style="fill:#45484c"
       id="path30297"
       d="M 36.436674,22.308997 C 38.082674,23.624997 40.387674,22.746997 40.715674,22.416997 C 39.069674,24.940997 36.986674,26.146997 35.230674,23.404997 C 36.217674,23.513997 36.436674,22.308997 36.436674,22.308997 z "
       i:knockout="Off" />
    <path
       style="fill:#45484c"
       id="path30299"
       d="M 27.989674,24.172997 C 27.879674,24.941997 28.756674,25.488997 29.524674,25.050997 C 30.293674,24.612997 30.073674,23.953997 29.744674,23.953997 C 29.415674,23.953997 27.989674,24.172997 27.989674,24.172997 z "
       i:knockout="Off" />
    <path
       style="fill:none;stroke:#000000;stroke-width:0.25"
       id="path30301"
       d="M 24.010674,21.840997 C 24.010674,24.252997 26.233674,26.695997 28.427674,26.366997 C 27.658674,27.792997 28.536674,29.220997 30.512674,29.220997"
       i:knockout="Off" />
    <path
       style="fill:none;stroke:#000000;stroke-width:0.25"
       id="path30303"
       d="M 29.416674,27.463997 C 30.513674,29.220997 34.462674,28.014997 35.120674,27.903997 C 34.023674,29.219997 32.816674,30.865997 34.792674,32.950997"
       i:knockout="Off" />
    <path
       style="fill:url(#XMLID_282_)"
       id="path30318"
       d="M 40.607674,27.245997 L 40.607674,27.245997 C 42.362674,26.476997 43.897674,27.574997 44.007674,28.671997 C 44.117674,29.768997 43.240674,30.864997 42.471674,31.084997 C 43.020674,31.634997 43.391674,31.920997 42.801674,32.511997 C 42.471674,32.841997 41.197674,33.032997 40.278674,32.950997 C 37.505674,32.535997 40.716674,31.413997 40.716674,31.413997 C 38.961674,31.742997 36.876674,31.413997 36.876674,29.879997 C 36.876674,28.343997 37.425674,28.012997 38.852674,27.684997 C 37.854674,25.869997 40.817674,25.479997 40.607674,27.245997 z "
       i:knockout="Off" />
    <path
       style="fill:url(#XMLID_283_)"
       id="path30329"
       d="M 28.093674,36.414997 L 28.093674,36.414997 C 30.117674,35.521997 31.889674,36.796997 32.016674,38.068997 C 32.143674,39.339997 31.131674,40.610997 30.245674,40.865997 C 30.878674,41.502997 31.306674,41.835997 30.624674,42.519997 C 30.245674,42.902997 28.776674,43.124997 27.715674,43.030997 C 24.517674,42.547997 28.220674,41.247997 28.220674,41.247997 C 26.196674,41.629997 23.791674,41.247997 23.791674,39.467997 C 23.791674,37.688997 24.423674,37.304997 26.069674,36.922997 C 24.920674,34.818997 28.337674,34.365997 28.093674,36.414997 z "
       i:knockout="Off" />
    <path
       style="fill:url(#XMLID_284_)"
       id="path30336"
       d="M 17.185674,41.040997 L 17.185674,41.040997 C 16.376674,39.366997 18.102674,38.305997 19.624674,38.461997 C 21.146674,38.617997 22.530674,39.616997 22.723674,40.321997 C 23.555674,39.978997 24.001674,39.726997 24.730674,40.365997 C 25.134674,40.721997 25.216674,41.853997 24.974674,42.621997 C 24.011674,44.893997 22.925674,41.895997 22.925674,41.895997 C 23.128674,43.468997 22.383674,45.174997 20.273674,44.824997 C 18.164674,44.475997 17.786674,43.931997 17.538674,42.639997 C 14.904674,43.077997 14.786674,40.459997 17.185674,41.040997 z "
       i:knockout="Off" />
    <path
       style="fill:url(#XMLID_285_)"
       id="path30347"
       d="M 21.284674,40.199997 L 21.284674,40.199997 C 20.475674,38.524997 22.202674,37.464997 23.723674,37.620997 C 25.245674,37.776997 26.629674,38.775997 26.823674,39.480997 C 27.654674,39.137997 28.100674,38.885997 28.831674,39.524997 C 29.234674,39.880997 29.316674,41.012997 29.075674,41.780997 C 28.113674,44.052997 27.027674,41.054997 27.027674,41.054997 C 27.230674,42.627997 26.484674,44.333997 24.375674,43.983997 C 22.265674,43.634997 21.888674,43.090997 21.640674,41.798997 C 19.004674,42.236997 18.886674,39.618997 21.284674,40.199997 z "
       i:knockout="Off" />
    <path
       style="fill:none;stroke:#000000;stroke-width:0.25"
       id="path30349"
       d="M 35.281674,36.359997 C 33.272674,31.802997 29.410674,33.423997 27.943674,34.969997 C 24.931674,33.115997 22.251674,35.938997 21.918674,38.059997 C 19.910674,36.668997 15.894674,36.127997 15.275674,41.457997 C 15.120674,37.749997 11.645675,35.354997 9.1736745,36.204997"
       i:knockout="Off" />
    <path
       style="fill:url(#XMLID_286_)"
       id="path30360"
       d="M 7.8636745,36.664997 C 7.8636745,36.664997 5.0146745,36.158997 6.4556745,33.314997 C 6.6226745,32.082997 8.1286745,32.702997 8.1286745,32.702997 L 8.4786745,32.264997 C 9.4066745,30.719997 11.568675,31.337997 12.032674,33.115997 C 13.809674,33.965997 12.804674,36.219997 11.413675,36.219997 C 10.651675,35.984997 9.8716745,35.965997 9.1736745,36.204997 C 8.7646745,36.300997 7.8636745,36.664997 7.8636745,36.664997 z "
       i:knockout="Off" />
    <path
       style="fill:url(#XMLID_287_)"
       id="path30369"
       d="M 12.751674,9.8229967 C 12.236674,10.378997 11.978675,11.005997 12.022674,11.589997 L 12.131674,13.008997 L 10.710675,13.008997 C 10.178675,13.008997 9.7956745,13.688997 9.6916745,14.359997 C 9.6806745,14.432997 9.6626745,14.578997 9.6626745,14.760997 C 9.6626745,14.762997 9.6636745,14.765997 9.6636745,14.767997 C 9.7306745,14.629997 9.7996745,14.469997 9.8526745,14.391997 C 10.427675,13.537997 11.433675,13.075997 12.507674,13.057997 C 12.893674,11.765997 13.885674,10.712997 15.603674,10.655997 C 17.191674,10.599997 18.134674,11.256997 18.646674,11.816997 C 19.113674,12.327997 19.383674,12.929997 19.541674,13.506997 C 19.746674,13.466997 19.935674,13.366997 20.146674,13.362997 C 21.129674,13.349997 22.049674,13.749997 22.670674,14.460997 C 23.057674,14.901997 23.239674,15.454997 23.342674,16.020997 C 23.636674,15.763997 23.986674,15.373997 24.170674,14.820997 C 24.185674,14.774997 24.193674,14.713997 24.193674,14.640997 C 24.193674,14.267997 23.974674,13.589997 23.465674,12.979997 C 23.213674,12.679997 22.538674,11.988997 21.705674,12.108997 L 20.681674,12.254997 L 20.297674,11.293997 C 19.808674,10.070997 17.495674,8.5779967 15.493674,8.5779967 C 14.513674,8.5769967 13.462674,9.0549967 12.751674,9.8229967 z "
       i:knockout="Off" />
    <path
       style="fill:url(#XMLID_288_)"
       id="path30378"
       d="M 6.6716745,21.678997 C 6.0286745,22.223997 5.6456745,23.062997 5.6456745,23.920997 L 5.6456745,25.399997 C 5.6456745,25.399997 5.4016745,25.367997 5.2796745,25.350997 C 5.3806745,25.399997 5.7736745,25.631997 6.0506745,26.016997 C 6.0506745,26.013997 6.0416745,25.968997 6.0416745,25.968997 C 6.2726745,26.266997 6.6216745,26.356997 6.8646745,26.356997 C 6.7196745,25.843997 6.2636745,24.227997 6.2636745,24.227997 L 8.6596745,25.045997 C 9.2646745,25.265997 9.7606745,25.231997 10.176675,24.939997 C 10.760675,24.531997 11.008675,23.792997 11.008675,23.567997 C 11.008675,23.484997 10.984675,23.191997 10.685674,22.918997 C 10.294674,22.564997 9.6046745,22.411997 8.7446745,22.492997 L 7.3056745,22.626997 C 7.3056745,22.626997 7.3056745,21.767997 7.3056745,21.427997 C 7.0926745,21.521997 6.8646745,21.516997 6.6716745,21.678997 z "
       i:knockout="Off" />
    <path
       style="fill:url(#XMLID_289_)"
       id="path30385"
       d="M 28.783674,3.9839967 C 30.668674,2.8659967 33.554674,3.7339967 31.908674,5.3799967 C 30.262674,7.0259967 31.250674,8.5079967 33.389674,8.3439967 C 35.529674,8.1789967 37.668674,9.6599967 37.832674,11.140997 C 35.363674,9.3299967 32.711674,9.4689967 30.663674,11.127997 C 28.945674,11.305997 29.604674,8.5929967 29.604674,8.5929967 C 27.792674,9.6599967 27.138674,8.5129967 26.971674,7.4409967 C 26.804674,6.3689967 26.975674,5.0549967 28.783674,3.9839967 z "
       i:knockout="Off" />
    <path
       style="fill:url(#XMLID_290_)"
       id="path30396"
       d="M 24.422674,5.1349967 C 24.751674,3.9009967 26.809674,2.1729967 28.783674,3.9839967 C 27.878674,4.4779967 28.207674,5.5469967 28.701674,5.7119967 C 27.384674,5.5479967 26.972674,7.1109967 26.972674,7.4409967 C 26.809674,5.9579967 24.422674,5.1349967 24.422674,5.1349967 z "
       i:knockout="Off" />
    <g
       transform="translate(-0.1623255,-166.619)"
       id="g30398"
       a:adobe-blending-mode="multiply"
       i:knockout="Off">
      <path
         style="fill:#424b4f"
         id="path30400"
         d="M 21.68,212.69 C 18.039,212.69 10.181,210.834 8.026,203.284 L 8.026,203.284 C 10.328,211.349 17.824,213.62 21.68,213.62 C 26.003,213.62 33.421,211.379 35.444,202.978 L 35.444,202.978 C 33.553,210.833 25.761,212.69 21.68,212.69 z "
         a:adobe-blending-mode="normal"
         i:knockout="Off" />
    </g>
    <path
       style="fill:none;stroke:#000000;stroke-width:0.25"
       id="path30402"
       d="M 22.251674,35.938997 C 21.379674,32.124997 25.086674,32.235997 25.956674,32.887997 C 25.303674,30.816997 27.481674,30.163997 27.481674,30.163997"
       i:knockout="Off" />
    <path
       id="path30404"
       d="M 29.988674,33.431997 C 28.463674,32.340997 29.007674,31.035997 29.442674,30.599997 C 28.679674,30.489997 26.827674,31.796997 28.680674,33.323997 C 28.958674,33.599997 29.988674,33.431997 29.988674,33.431997 z "
       i:knockout="Off" />
    <path
       style="fill:none;stroke:#000000;stroke-width:0.25"
       id="path30406"
       d="M 33.474674,28.528997 C 33.351674,29.020997 32.951674,29.408997 32.545674,29.651997 L 32.496674,29.645997 C 33.201674,29.670997 33.691674,30.571997 33.691674,31.470997"
       i:knockout="Off" />
    <g
       i:knockout="Off"
       a:adobe-blending-mode="multiply"
       id="g10225"
       transform="translate(-0.1623255,-166.619)"
       style="fill:url(#radialGradient10743);stroke:none;fill-opacity:1">
      <path
         i:knockout="Off"
         a:adobe-blending-mode="normal"
         d="M 35.797,202.836 C 38.082,204.434 41.099,202.401 41.207,200.778 C 46.035,200.668 46.036,197.046 46.036,195.949 C 46.036,193.535 44.938,192.549 43.403,191.56 L 43.439,191.559 L 43.413,191.567 C 44.442,191.261 45.434,190.553 45.257,188.944 C 47.915,187.881 47.029,184.868 45.257,184.69 C 47.029,184.513 46.497,181.323 44.725,181.677 C 45.033,180.143 42.283,177.944 40.273,178.878 L 40.352,178.844 L 40.352,178.845 C 40.234,178.491 39.466,177.486 38.404,177.722 C 38.758,177.013 38.64,176.306 37.578,175.479 C 38.759,175.714 39.586,174.18 38.287,173.473 C 39.586,171.467 37.578,169.812 36.397,170.402 C 35.571,168.395 31.439,167.923 30.141,169.34 C 29.197,168.16 27.189,167.451 25.891,168.041 C 24.275,168.776 23.884,170.167 23.766,171.819 C 23.057,171.7 20.333,172.67 20.097,175.505 L 20.12,175.522 C 18.898,174.571 17.209,173.879 15.658,173.879 C 13.177,173.879 10.695,176.005 10.873,178.31 C 8.214,178.31 7.328,183.449 10.695,184.513 C 9.987,184.513 8.569,185.399 8.746,186.463 C 6.619,186.109 4.492,188.058 4.492,190.539 C 3.429,190.185 -0.47,193.552 3.251,195.856 C 2.01,196.742 2.543,199.223 6.619,199.933 C 5.178,202.777 8.027,203.283 8.027,203.283 L 8.027,203.283 C 10.329,211.348 17.825,213.619 21.681,213.619 C 26.004,213.619 33.422,211.378 35.445,202.977 L 35.445,202.977 L 35.797,202.836 L 35.797,202.836 z "
         id="path10227"
         style="fill:url(#radialGradient10743);stroke:none;stroke-width:2;fill-opacity:1" />
    </g>
  </g>
</svg>
