<?xml version="1.0" encoding="UTF-8" standalone="no"?>
<!-- Created with Inkscape (http://www.inkscape.org/) -->

<svg
   xmlns:dc="http://purl.org/dc/elements/1.1/"
   xmlns:cc="http://creativecommons.org/ns#"
   xmlns:rdf="http://www.w3.org/1999/02/22-rdf-syntax-ns#"
   xmlns:svg="http://www.w3.org/2000/svg"
   xmlns="http://www.w3.org/2000/svg"
   xmlns:xlink="http://www.w3.org/1999/xlink"
   xmlns:sodipodi="http://sodipodi.sourceforge.net/DTD/sodipodi-0.dtd"
   xmlns:inkscape="http://www.inkscape.org/namespaces/inkscape"
   width="48px"
   height="48px"
   id="svg100154"
   version="1.1"
   inkscape:version="0.48.4 r9939"
   sodipodi:docname="squid.svg">
  <defs
     id="defs100156">
    <linearGradient
       inkscape:collect="always"
       id="linearGradient3919">
      <stop
         style="stop-color:#fcdddd;stop-opacity:1;"
         offset="0"
         id="stop3921" />
      <stop
         style="stop-color:#fcdddd;stop-opacity:0;"
         offset="1"
         id="stop3923" />
    </linearGradient>
    <linearGradient
       id="linearGradient3826">
      <stop
         style="stop-color:#5f6b4d;stop-opacity:1;"
         offset="0"
         id="stop3828" />
      <stop
         style="stop-color:#39402e;stop-opacity:1;"
         offset="1"
         id="stop3830" />
    </linearGradient>
    <linearGradient
       id="linearGradient3818">
      <stop
         style="stop-color:#ebeee7;stop-opacity:1;"
         offset="0"
         id="stop3820" />
      <stop
         style="stop-color:#d9ded1;stop-opacity:0;"
         offset="1"
         id="stop3822" />
    </linearGradient>
    <linearGradient
       id="linearGradient3810">
      <stop
         style="stop-color:#abb699;stop-opacity:1;"
         offset="0"
         id="stop3812" />
      <stop
         style="stop-color:#cad0bf;stop-opacity:1;"
         offset="1"
         id="stop3814" />
    </linearGradient>
    <linearGradient
       id="linearGradient3784">
      <stop
         style="stop-color:#e3e6e1;stop-opacity:1;"
         offset="0"
         id="stop3786" />
      <stop
         style="stop-color:#c6cbc0;stop-opacity:1;"
         offset="1"
         id="stop3788" />
    </linearGradient>
    <linearGradient
       id="linearGradient3776">
      <stop
         style="stop-color:#007298;stop-opacity:1;"
         offset="0"
         id="stop3778" />
      <stop
         style="stop-color:#2e3436;stop-opacity:0;"
         offset="1"
         id="stop3780" />
    </linearGradient>
    <radialGradient
       inkscape:collect="always"
       xlink:href="#linearGradient3776"
       id="radialGradient3782"
       cx="22.753687"
       cy="34.110401"
       fx="22.753687"
       fy="34.110401"
       r="20.329321"
       gradientTransform="matrix(1,0,0,0.45465838,0,18.601821)"
       gradientUnits="userSpaceOnUse" />
    <radialGradient
       inkscape:collect="always"
       xlink:href="#linearGradient3810"
       id="radialGradient3816"
       cx="20.353733"
       cy="22.292709"
       fx="20.353733"
       fy="22.292709"
       r="23.321429"
       gradientTransform="matrix(0.53679469,-0.17146722,0.31416235,0.98351558,4.3140769,5.2629935)"
       gradientUnits="userSpaceOnUse" />
    <radialGradient
       inkscape:collect="always"
       xlink:href="#linearGradient3818"
       id="radialGradient3824"
       cx="12.854079"
       cy="15.212661"
       fx="12.854079"
       fy="15.212661"
       r="8.643011"
       gradientTransform="matrix(0.86199324,-0.18398148,0.41294444,1.9347346,-2.2875643,-11.497139)"
       gradientUnits="userSpaceOnUse" />
    <linearGradient
       inkscape:collect="always"
       xlink:href="#linearGradient3826"
       id="linearGradient3832"
       x1="5.87114"
       y1="0.22826269"
       x2="17.310183"
       y2="27.401365"
       gradientUnits="userSpaceOnUse"
       gradientTransform="matrix(0.99278011,0.11994855,-0.11994855,0.99278011,4.7054072,-0.83212692)" />
    <radialGradient
       inkscape:collect="always"
       xlink:href="#linearGradient3810"
       id="radialGradient3816-7"
       cx="20.353733"
       cy="22.292709"
       fx="20.353733"
       fy="22.292709"
       r="23.321428"
       gradientTransform="matrix(0.53679469,-0.17146722,0.31416235,0.98351558,4.3140769,5.2629935)"
       gradientUnits="userSpaceOnUse" />
    <linearGradient
       id="linearGradient3810-4">
      <stop
         style="stop-color:#bcc5ae;stop-opacity:1;"
         offset="0"
         id="stop3812-0" />
      <stop
         style="stop-color:#e0e4da;stop-opacity:1;"
         offset="1"
         id="stop3814-9" />
    </linearGradient>
    <linearGradient
       inkscape:collect="always"
       xlink:href="#linearGradient3826-8"
       id="linearGradient3832-4"
       x1="5.87114"
       y1="0.22826269"
       x2="17.310183"
       y2="27.401365"
       gradientUnits="userSpaceOnUse"
       gradientTransform="matrix(0.99278011,0.11994855,-0.11994855,0.99278011,4.7054072,-0.83212692)" />
    <linearGradient
       id="linearGradient3826-8">
      <stop
         style="stop-color:#5f6b4d;stop-opacity:1;"
         offset="0"
         id="stop3828-8" />
      <stop
         style="stop-color:#39402e;stop-opacity:1;"
         offset="1"
         id="stop3830-2" />
    </linearGradient>
    <radialGradient
       r="23.321428"
       fy="22.292709"
       fx="20.353733"
       cy="22.292709"
       cx="20.353733"
       gradientTransform="matrix(0.51235185,-0.23461699,0.4298654,0.93873139,0.12831013,6.1225195)"
       gradientUnits="userSpaceOnUse"
       id="radialGradient3853"
       xlink:href="#linearGradient3810-4"
       inkscape:collect="always" />
    <linearGradient
       gradientTransform="translate(-0.21428578,0.02446573)"
       y2="27.401365"
       x2="17.310183"
       y1="0.22826269"
       x1="5.87114"
       gradientUnits="userSpaceOnUse"
       id="linearGradient3855"
       xlink:href="#linearGradient3826-8"
       inkscape:collect="always" />
    <radialGradient
       inkscape:collect="always"
       xlink:href="#linearGradient3810"
       id="radialGradient3913"
       gradientUnits="userSpaceOnUse"
       gradientTransform="matrix(0.53679469,-0.17146722,0.31416235,0.98351558,4.3140769,5.2629935)"
       cx="20.353733"
       cy="22.292709"
       fx="20.353733"
       fy="22.292709"
       r="23.321428" />
    <linearGradient
       inkscape:collect="always"
       xlink:href="#linearGradient3826-8"
       id="linearGradient3915"
       gradientUnits="userSpaceOnUse"
       x1="5.87114"
       y1="0.22826269"
       x2="17.310183"
       y2="27.401365"
       gradientTransform="matrix(0.99278011,0.11994855,-0.11994855,0.99278011,4.7054072,-0.83212692)" />
    <radialGradient
       inkscape:collect="always"
       xlink:href="#linearGradient3919"
       id="radialGradient3925"
       cx="20.329321"
       cy="18.225754"
       fx="20.329321"
       fy="18.225754"
       r="16.187695"
       gradientUnits="userSpaceOnUse" />
  </defs>
  <sodipodi:namedview
     id="base"
     pagecolor="#ffffff"
     bordercolor="#666666"
     borderopacity="1.0"
     inkscape:pageopacity="0.0"
     inkscape:pageshadow="2"
     inkscape:zoom="19.79899"
     inkscape:cx="24.808122"
     inkscape:cy="23.391806"
     inkscape:current-layer="layer1"
     showgrid="true"
     inkscape:grid-bbox="true"
     inkscape:document-units="px"
     inkscape:window-width="2560"
     inkscape:window-height="1538"
     inkscape:window-x="-8"
     inkscape:window-y="-8"
     inkscape:window-maximized="1" />
  <metadata
     id="metadata100159">
    <rdf:RDF>
      <cc:Work
         rdf:about="">
        <dc:format>image/svg+xml</dc:format>
        <dc:type
           rdf:resource="http://purl.org/dc/dcmitype/StillImage" />
        <dc:title></dc:title>
      </cc:Work>
    </rdf:RDF>
  </metadata>
  <g
     id="layer1"
     inkscape:label="Layer 1"
     inkscape:groupmode="layer">
    <path
       sodipodi:type="arc"
       style="color:#000000;fill:url(#radialGradient3925);stroke:none;stroke-width:1px;stroke-linecap:butt;stroke-linejoin:round;stroke-miterlimit:4;stroke-opacity:1;stroke-dasharray:none;stroke-dashoffset:0;marker:none;visibility:visible;display:inline;overflow:visible;enable-background:accumulate;fill-opacity:1"
       id="path3917"
       sodipodi:cx="20.329321"
       sodipodi:cy="18.225754"
       sodipodi:rx="16.187695"
       sodipodi:ry="16.187695"
       d="m 36.517015,18.225754 a 16.187695,16.187695 0 1 1 -32.3753886,0 16.187695,16.187695 0 1 1 32.3753886,0 z"
       transform="translate(-0.05050763,-1.5152288)" />
    <path
       sodipodi:type="arc"
       style="color:#000000;fill:url(#radialGradient3782);fill-opacity:1;fill-rule:nonzero;stroke:none;stroke-width:1px;marker:none;visibility:visible;display:inline;overflow:visible;enable-background:accumulate"
       id="path3006"
       sodipodi:cx="22.753687"
       sodipodi:cy="34.110401"
       sodipodi:rx="20.329321"
       sodipodi:ry="9.2428961"
       d="m 43.083008,34.110401 a 20.329321,9.2428961 0 1 1 -40.658642,0 20.329321,9.2428961 0 1 1 40.658642,0 z"
       transform="matrix(0.99278011,0.11994855,-0.11994855,0.99278011,4.4304591,-0.66184662)" />
    <path
       style="color:#000000;fill:url(#radialGradient3816-7);fill-opacity:1.0;fill-rule:nonzero;stroke:url(#linearGradient3832-4);stroke-width:1px;stroke-linecap:butt;stroke-linejoin:miter;stroke-miterlimit:4;stroke-opacity:1;stroke-dasharray:none;stroke-dashoffset:0;marker:none;visibility:visible;display:inline;overflow:visible;enable-background:accumulate"
       d="m 17.66161,28.783227 c 0,0 -3.776063,-4.51306 -6.079034,-3.583471 -3.7130111,1.498749 -8.5155412,-1.944603 -8.5155412,-1.944603 0,0 3.4492425,5.42727 8.1002222,4.539921 2.307926,-0.440322 5.954515,3.771927 5.954515,3.771927 z"
       id="path2987"
       inkscape:connector-curvature="0"
       sodipodi:nodetypes="cscscc" />
    <path
       style="color:#000000;fill:url(#radialGradient3913);fill-opacity:1.0;fill-rule:nonzero;stroke:url(#linearGradient3915);stroke-width:1px;stroke-linecap:butt;stroke-linejoin:miter;stroke-miterlimit:4;stroke-opacity:1;stroke-dasharray:none;stroke-dashoffset:0;marker:none;visibility:visible;display:inline;overflow:visible;enable-background:accumulate"
       d="m 39.02125,21.229002 c 5.256115,2.095177 7.086702,6.378033 1.103081,7.543922 -4.468017,0.87058 -12.083018,-2.128146 -11.623697,-5.325551 l -0.958865,7.042977 c 0,0 6.464612,1.462515 9.751704,1.466001 5.372797,0.0057 9.816648,-1.845488 9.890784,-5.640049 0.06263,-3.205551 -8.163007,-5.0873 -8.163007,-5.0873 z"
       id="path100706"
       inkscape:connector-curvature="0"
       sodipodi:nodetypes="csccssc" />
    <path
       id="path100692"
       style="fill:url(#radialGradient3816);fill-opacity:1;stroke:url(#linearGradient3832);stroke-width:1px;stroke-linecap:butt;stroke-linejoin:round;stroke-opacity:1"
       d="M 26.389904,17.190609 C 25.210479,15.323256 30.488856,14.471412 29.777247,11.852304 29.301011,10.099494 25.781915,9.7637918 24.819064,9.5373726 18.159933,7.9714486 14.502648,-0.53757592 10.724484,0.57632698 8.5952001,1.2040963 13.554208,9.3382931 9.3715769,11.69143 c -1.0260965,0.57728 -3.5254842,3.001036 -2.437596,3.959566 1.1974601,1.055073 3.3327791,1.192749 4.7288211,1.990657 3.107374,1.776022 4.191802,5.419272 4.710462,9.412815 0.451875,3.479333 -2.98184,7.023751 -6.083367,5.092793 -6.0831762,-3.787282 -9.1078313,2.137245 -9.1078313,2.137245 0,0 4.411299,-1.126235 6.5535127,-0.647159 1.6019069,0.358244 2.5870776,2.469783 4.2276136,2.525329 1.727197,0.05848 4.620578,-2.351579 4.620578,-2.351579 0.08567,0.178957 -0.482555,4.843428 -5.056934,5.945636 -2.7670181,0.66672 -6.0850506,-0.307611 -7.7136118,2.026634 -0.8459729,1.212547 -1.3135073,4.819556 -1.3135073,4.819556 0,0 1.5872073,-2.157325 2.8157287,-2.841475 2.558245,-1.424656 5.5096484,-0.57214 8.3843024,-1.129481 3.767666,-0.73048 6.386602,-7.937632 6.386602,-7.937632 0,0 -0.07791,6.092183 -2.413111,8.993296 -1.689399,2.098809 -7.205578,3.662142 -7.205578,3.662142 0,0 8.391801,-1.153548 10.99586,-4.067573 2.349595,-2.629273 2.719658,-8.262633 2.719658,-8.262633 0,0 1.012143,4.141625 3.33892,5.756974 4.414083,3.064447 6.36279,0.7289 9.273449,1.06012 3.644536,0.414731 2.777373,5.791974 2.777373,5.791974 0,0 4.829292,-3.052188 2.907052,-6.196038 -2.477757,-4.052404 -10.783892,-1.369766 -12.932761,-3.720989 -1.632549,-1.78628 -1.26361,-4.068719 -1.26361,-4.068719 0,0 1.948357,3.051739 6.356026,3.604769 2.64803,0.332246 5.427937,-2.168438 7.915623,-1.202069 2.260065,0.877948 4.051517,2.791845 4.051517,2.791845 -0.763822,-2.610467 -2.308911,-5.118945 -4.789636,-5.61505 -2.361304,-0.472223 -4.785333,1.310455 -7.163655,0.933181 -2.469631,-0.391757 -4.63652,-4.257533 -4.633864,-7.053176 0.0034,-3.538933 -1.987723,-7.312069 -3.629709,-9.91178 z"
       inkscape:connector-curvature="0"
       sodipodi:nodetypes="ssssssssscsscsscsscscscsscsscsscssss" />
    <path
       sodipodi:nodetypes="cccsscsc"
       inkscape:connector-curvature="0"
       id="path3794"
       d="m 12.403014,1.6929109 c 0,0 -1.403121,0.6116227 -0.358027,3.8479257 0.960081,4.0792632 -0.128807,5.4491224 -4.3013951,9.3253524 0,0 4.6813521,1.154678 6.4292741,2.586925 0.760235,0.622935 3.074608,8.76699 4.143653,12.036711 0.962584,2.944104 4.498231,2.379302 4.845657,1.53511 C 22.437748,26.318867 22.631657,20.689364 21.212757,15.714076 19.651842,10.240829 16.341567,5.4768325 12.403014,1.6929109 z"
       style="fill:url(#radialGradient3824);fill-opacity:1;stroke:none" />
    <path
       style="fill:#ffffff;fill-opacity:1;stroke:none"
       d="m 12.926693,2.8955837 c 0,0 -0.78752,0.4215888 -0.248149,2.5440736 0.351536,1.3833282 0.835805,3.5820255 0.448733,4.6847627 -0.626814,1.785743 -4.0811448,4.51881 -4.0811448,4.51881 0,0 2.8527478,-1.464539 4.0913238,-1.774652 1.436805,-0.359746 2.814568,-0.395587 3.185809,-1.418286 C 16.911067,9.8310078 14.814103,7.1506623 13.70469,5.3361495 12.885809,3.9968222 12.926693,2.8955837 12.926693,2.8955837 z"
       id="path3792"
       inkscape:connector-curvature="0"
       sodipodi:nodetypes="csscsssc" />
    <path
       style="fill:none;stroke:#f6f9f3;stroke-width:1px;stroke-linecap:butt;stroke-linejoin:miter;stroke-opacity:1"
       d="m 29.086951,27.663434 c 0.02383,-3.989079 -2.419767,-8.779335 -3.799145,-10.964066 -0.990798,-1.569275 3.801837,-3.15723 3.465848,-4.56413 C 28.499336,11.070328 24.77727,10.457925 23.968369,10.267676 18.373943,8.9519047 12.753311,0.62493618 11.314141,1.4689317 c -0.789637,0.4630797 2.63276,8.6153193 -0.88124,10.5930253 -0.8620647,0.485177 -2.8655716,2.273244 -2.6376076,3.154697 0.143168,0.553579 3.2313336,0.800021 4.4041516,1.470532 2.61051,1.492457 5.448399,5.448381 4.948049,12.761434"
       id="path3883"
       inkscape:connector-curvature="0"
       sodipodi:nodetypes="csssssssc" />
    <g
       id="g3901"
       transform="matrix(1.4110983,0.17049012,-0.17049012,1.4110983,-2.4462379,-11.491591)">
      <path
         transform="matrix(0.70041094,-0.3093271,0.40752465,0.92276015,-1.2950917,11.743989)"
         d="m 19.357144,18.392857 c 0,1.913272 -1.375126,3.464285 -3.071429,3.464285 -1.696303,0 -3.071428,-1.551013 -3.071428,-3.464285 0,-1.913273 1.375125,-3.464286 3.071428,-3.464286 1.696303,0 3.071429,1.551013 3.071429,3.464286 z"
         sodipodi:ry="3.4642856"
         sodipodi:rx="3.0714285"
         sodipodi:cy="18.392857"
         sodipodi:cx="16.285715"
         id="path100170"
         style="color:#000000;fill:#2e3436;stroke:#eeeeec;stroke-width:0.80054027;stroke-linecap:butt;stroke-linejoin:miter;stroke-miterlimit:4;stroke-opacity:1;stroke-dasharray:none;stroke-dashoffset:0;marker:none;visibility:visible;display:inline;overflow:visible;enable-background:accumulate"
         sodipodi:type="arc" />
      <g
         id="g3800">
        <path
           sodipodi:type="arc"
           style="color:#000000;fill:#ffffff;fill-opacity:1;fill-rule:nonzero;stroke:none;stroke-width:1px;marker:none;visibility:visible;display:inline;overflow:visible;enable-background:accumulate"
           id="path3796"
           sodipodi:cx="16.894802"
           sodipodi:cy="22.518902"
           sodipodi:rx="0.681853"
           sodipodi:ry="0.681853"
           d="m 17.576655,22.518902 c 0,0.376577 -0.305276,0.681853 -0.681853,0.681853 -0.376577,0 -0.681853,-0.305276 -0.681853,-0.681853 0,-0.376577 0.305276,-0.681853 0.681853,-0.681853 0.376577,0 0.681853,0.305276 0.681853,0.681853 z"
           transform="translate(-0.45456865,0.15152288)" />
        <path
           sodipodi:type="arc"
           style="color:#000000;fill:#ffffff;fill-opacity:1;fill-rule:nonzero;stroke:none;stroke-width:1px;marker:none;visibility:visible;display:inline;overflow:visible;enable-background:accumulate"
           id="path3798"
           sodipodi:cx="18.687822"
           sodipodi:cy="23.604816"
           sodipodi:rx="0.35355338"
           sodipodi:ry="0.35355338"
           d="m 19.041376,23.604816 c 0,0.195263 -0.158292,0.353554 -0.353554,0.353554 -0.195262,0 -0.353553,-0.158291 -0.353553,-0.353554 0,-0.195262 0.158291,-0.353553 0.353553,-0.353553 0.195262,0 0.353554,0.158291 0.353554,0.353553 z"
           transform="translate(-1.4647212,-2.0455589)" />
      </g>
    </g>
    <g
       id="g3907"
       transform="matrix(1.5194047,0.29032904,-0.29032904,1.5194047,-2.3491412,-17.310845)">
      <path
         sodipodi:type="arc"
         style="color:#000000;fill:#2e3436;stroke:#eeeeec;stroke-width:0.85100847;stroke-linecap:butt;stroke-linejoin:miter;stroke-miterlimit:4;stroke-opacity:1;stroke-dasharray:none;stroke-dashoffset:0;marker:none;visibility:visible;display:inline;overflow:visible;enable-background:accumulate"
         id="path100172"
         sodipodi:cx="16.285715"
         sodipodi:cy="18.392857"
         sodipodi:rx="3.0714285"
         sodipodi:ry="3.4642856"
         d="m 19.357144,18.392857 c 0,1.913272 -1.375126,3.464285 -3.071429,3.464285 -1.696303,0 -3.071428,-1.551013 -3.071428,-3.464285 0,-1.913273 1.375125,-3.464286 3.071428,-3.464286 1.696303,0 3.071429,1.551013 3.071429,3.464286 z"
         transform="matrix(0.64729294,-0.13788703,0.18166001,0.85277956,9.7956975,9.3819655)" />
      <g
         transform="translate(6.4144687,-0.63134534)"
         id="g3804">
        <path
           transform="translate(-0.45456865,0.15152288)"
           d="m 17.576655,22.518902 c 0,0.376577 -0.305276,0.681853 -0.681853,0.681853 -0.376577,0 -0.681853,-0.305276 -0.681853,-0.681853 0,-0.376577 0.305276,-0.681853 0.681853,-0.681853 0.376577,0 0.681853,0.305276 0.681853,0.681853 z"
           sodipodi:ry="0.681853"
           sodipodi:rx="0.681853"
           sodipodi:cy="22.518902"
           sodipodi:cx="16.894802"
           id="path3806"
           style="color:#000000;fill:#ffffff;fill-opacity:1;fill-rule:nonzero;stroke:none;stroke-width:1px;marker:none;visibility:visible;display:inline;overflow:visible;enable-background:accumulate"
           sodipodi:type="arc" />
        <path
           transform="translate(-1.4647212,-2.0455589)"
           d="m 19.041376,23.604816 c 0,0.195263 -0.158292,0.353554 -0.353554,0.353554 -0.195262,0 -0.353553,-0.158291 -0.353553,-0.353554 0,-0.195262 0.158291,-0.353553 0.353553,-0.353553 0.195262,0 0.353554,0.158291 0.353554,0.353553 z"
           sodipodi:ry="0.35355338"
           sodipodi:rx="0.35355338"
           sodipodi:cy="23.604816"
           sodipodi:cx="18.687822"
           id="path3808"
           style="color:#000000;fill:#ffffff;fill-opacity:1;fill-rule:nonzero;stroke:none;stroke-width:1px;marker:none;visibility:visible;display:inline;overflow:visible;enable-background:accumulate"
           sodipodi:type="arc" />
      </g>
    </g>
    <path
       style="fill:none;stroke:#eeeeec;stroke-width:0.75;stroke-linecap:round;stroke-linejoin:miter;stroke-opacity:1;stroke-miterlimit:4;stroke-dasharray:none"
       d="m 16.212948,28.049487 c 0,0 -1.921755,-1.801261 -3.434518,-2.070813 -1.170374,-0.208543 -2.703518,0.592772 -3.8890876,0.505077 -1.3284281,-0.09826 -3.788072,-1.565737 -3.788072,-1.565737"
       id="path3927"
       inkscape:connector-curvature="0"
       sodipodi:nodetypes="cssc" />
    <path
       style="fill:none;stroke:#eeeeec;stroke-width:0.75;stroke-linecap:round;stroke-linejoin:miter;stroke-opacity:1;stroke-miterlimit:4;stroke-dasharray:none"
       d="m 17.172593,29.514209 c 0,0 -1.589299,4.147655 -4.949747,4.091117 -2.025622,-0.03408 -3.9416202,-2.023195 -5.8083774,-1.868782 -2.0937569,0.173191 -3.9901025,1.767767 -3.9901025,1.767767"
       id="path3929"
       inkscape:connector-curvature="0"
       sodipodi:nodetypes="cssc" />
    <path
       style="fill:none;stroke:#eeeeec;stroke-width:0.75;stroke-linecap:round;stroke-linejoin:miter;stroke-opacity:1;stroke-miterlimit:4;stroke-dasharray:none"
       d="m 17.324116,34.312433 c -0.353553,1.667817 -2.244339,5.395432 -4.394163,5.909392 -2.781245,0.664914 -6.4505135,0.554769 -7.8286826,1.565737 -0.989358,0.725752 -1.8182746,2.878935 -1.8182746,2.878935"
       id="path3931"
       inkscape:connector-curvature="0"
       sodipodi:nodetypes="cssc" />
    <path
       style="fill:none;stroke:#eeeeec;stroke-width:0.75;stroke-linecap:round;stroke-linejoin:miter;stroke-opacity:1;stroke-miterlimit:4;stroke-dasharray:none"
       d="m 20.354574,34.463956 c 0.515332,1.848785 -0.190887,6.314292 -0.555584,7.374113 -0.577741,1.67893 -2.248302,3.054999 -3.83858,3.737565"
       id="path3933"
       inkscape:connector-curvature="0"
       sodipodi:nodetypes="csc" />
    <path
       style="fill:none;stroke:#eeeeec;stroke-width:0.75;stroke-linecap:round;stroke-linejoin:miter;stroke-opacity:1;stroke-miterlimit:4;stroke-dasharray:none"
       d="m 27.425641,33.554818 c -0.505651,2.427128 0.76211,4.433684 2.474875,5.404316 2.159117,1.223582 5.386896,0.448473 7.980205,0.959646 1.935483,0.381507 4.106629,1.314802 4.343656,3.485026"
       id="path3935"
       inkscape:connector-curvature="0"
       sodipodi:nodetypes="cssc" />
    <path
       style="fill:none;stroke:#eeeeec;stroke-width:0.75;stroke-linecap:round;stroke-linejoin:miter;stroke-opacity:1;stroke-miterlimit:4;stroke-dasharray:none"
       d="m 30.910668,32.03959 c 0,0 2.078132,2.566995 3.535533,2.929443 2.218629,0.551762 5.163691,-1.341384 7.374114,-0.757615 1.736313,0.458557 3.63655,2.828427 3.63655,2.828427"
       id="path3937"
       inkscape:connector-curvature="0"
       sodipodi:nodetypes="cssc" />
    <path
       style="fill:none;stroke:#eeeeec;stroke-width:0.75;stroke-linecap:round;stroke-linejoin:miter;stroke-opacity:1;stroke-miterlimit:4;stroke-dasharray:none"
       d="m 30.506607,27.392888 c 2.493888,2.276409 9.636719,3.211529 12.626907,1.26269 3.121523,-2.034435 1.201819,-4.979382 0.05051,-5.505331"
       id="path3939"
       inkscape:connector-curvature="0"
       sodipodi:nodetypes="csc" />
  </g>
</svg>
