<?xml version="1.0" encoding="UTF-8" standalone="no"?>
<!-- Created with Inkscape (http://www.inkscape.org/) -->
<svg
   xmlns:dc="http://purl.org/dc/elements/1.1/"
   xmlns:cc="http://web.resource.org/cc/"
   xmlns:rdf="http://www.w3.org/1999/02/22-rdf-syntax-ns#"
   xmlns:svg="http://www.w3.org/2000/svg"
   xmlns="http://www.w3.org/2000/svg"
   xmlns:sodipodi="http://sodipodi.sourceforge.net/DTD/sodipodi-0.dtd"
   xmlns:inkscape="http://www.inkscape.org/namespaces/inkscape"
   width="48px"
   height="48px"
   id="svg13552"
   sodipodi:version="0.32"
   inkscape:version="0.45.1"
   sodipodi:docbase="C:\dev\src\houdini\support\icons\SHELF"
   sodipodi:docname="tree_leaf.svg"
   inkscape:output_extension="org.inkscape.output.svg.inkscape">
  <defs
     id="defs13554">
    <linearGradient
       id="SVGID_96_"
       gradientUnits="userSpaceOnUse"
       x1="313.9233"
       y1="107.4658"
       x2="321.0601"
       y2="116.9453"
       gradientTransform="matrix(1.0307397,0,0,1.0307397,-297.86969,-88.664181)">
	<stop
   offset="0"
   style="stop-color:#4C9C23"
   id="stop6892" />

	<stop
   offset="0.0824"
   style="stop-color:#4C9C23"
   id="stop6894" />

	<stop
   offset="0.153"
   style="stop-color:#58A628"
   id="stop6896" />

	<stop
   offset="0.4032"
   style="stop-color:#7DC438"
   id="stop6898" />

	<stop
   offset="0.6357"
   style="stop-color:#98D944"
   id="stop6900" />

	<stop
   offset="0.8418"
   style="stop-color:#A8E64B"
   id="stop6902" />

	<stop
   offset="1"
   style="stop-color:#AEEB4D"
   id="stop6904" />

</linearGradient>
    <linearGradient
       id="SVGID_97_"
       gradientUnits="userSpaceOnUse"
       x1="306.0405"
       y1="95.5723"
       x2="315.0011"
       y2="108.8973"
       gradientTransform="matrix(1.0307397,0,0,1.0307397,-297.86969,-88.664181)">
	<stop
   offset="0"
   style="stop-color:#74D43F"
   id="stop6909" />

	<stop
   offset="0.3162"
   style="stop-color:#57B425"
   id="stop6911" />

	<stop
   offset="0.6209"
   style="stop-color:#389109"
   id="stop6913" />

	<stop
   offset="0.7811"
   style="stop-color:#458C1F"
   id="stop6915" />

	<stop
   offset="0.7857"
   style="stop-color:#458C20"
   id="stop6917" />

	<stop
   offset="0.8807"
   style="stop-color:#57A22F"
   id="stop6919" />

	<stop
   offset="1"
   style="stop-color:#71C446"
   id="stop6921" />

</linearGradient>
    <linearGradient
       id="SVGID_98_"
       gradientUnits="userSpaceOnUse"
       x1="290.2866"
       y1="124.7627"
       x2="333.373"
       y2="95.9278"
       gradientTransform="matrix(1.0307397,0,0,1.0307397,-297.86969,-88.664181)">
	<stop
   offset="0"
   style="stop-color:#4C9C23"
   id="stop6926" />

	<stop
   offset="0.0276"
   style="stop-color:#61B237"
   id="stop6928" />

	<stop
   offset="0.0769"
   style="stop-color:#8EE361"
   id="stop6930" />

	<stop
   offset="0.6209"
   style="stop-color:#4C9C23"
   id="stop6932" />

	<stop
   offset="1"
   style="stop-color:#4C9C23"
   id="stop6934" />

</linearGradient>
    <linearGradient
       id="SVGID_99_"
       gradientUnits="userSpaceOnUse"
       x1="296.7876"
       y1="101.9326"
       x2="310.5947"
       y2="122.4648"
       gradientTransform="matrix(1.0307397,0,0,1.0307397,-297.86969,-88.664181)">
	<stop
   offset="0"
   style="stop-color:#8EE361"
   id="stop6939" />

	<stop
   offset="0.489"
   style="stop-color:#4C9C23"
   id="stop6941" />

	<stop
   offset="0.5549"
   style="stop-color:#4C9C23"
   id="stop6943" />

	<stop
   offset="0.7149"
   style="stop-color:#61B237"
   id="stop6945" />

	<stop
   offset="1"
   style="stop-color:#8EE361"
   id="stop6947" />

</linearGradient>
    <linearGradient
       id="SVGID_100_"
       gradientUnits="userSpaceOnUse"
       x1="305.0903"
       y1="96.3501"
       x2="318.8962"
       y2="116.8805"
       gradientTransform="matrix(1.0307397,0,0,1.0307397,-297.86969,-88.664181)">
	<stop
   offset="0"
   style="stop-color:#8EE361"
   id="stop6952" />

	<stop
   offset="0.489"
   style="stop-color:#4C9C23"
   id="stop6954" />

	<stop
   offset="0.5549"
   style="stop-color:#4C9C23"
   id="stop6956" />

	<stop
   offset="0.7149"
   style="stop-color:#61B237"
   id="stop6958" />

	<stop
   offset="1"
   style="stop-color:#8EE361"
   id="stop6960" />

</linearGradient>
    <linearGradient
       id="SVGID_101_"
       gradientUnits="userSpaceOnUse"
       x1="312.3872"
       y1="91.4434"
       x2="326.1943"
       y2="111.9756"
       gradientTransform="matrix(1.0307397,0,0,1.0307397,-297.86969,-88.664181)">
	<stop
   offset="0"
   style="stop-color:#8EE361"
   id="stop6965" />

	<stop
   offset="0.489"
   style="stop-color:#4C9C23"
   id="stop6967" />

	<stop
   offset="0.5549"
   style="stop-color:#4C9C23"
   id="stop6969" />

	<stop
   offset="0.7149"
   style="stop-color:#61B237"
   id="stop6971" />

	<stop
   offset="1"
   style="stop-color:#8EE361"
   id="stop6973" />

</linearGradient>
    <linearGradient
       id="SVGID_102_"
       gradientUnits="userSpaceOnUse"
       x1="299.4136"
       y1="114.4102"
       x2="320.6368"
       y2="122.8991"
       gradientTransform="matrix(1.0307397,0,0,1.0307397,-297.86969,-88.664181)">
	<stop
   offset="0"
   style="stop-color:#8EE361"
   id="stop6978" />

	<stop
   offset="0.1415"
   style="stop-color:#86DA5A"
   id="stop6980" />

	<stop
   offset="0.3672"
   style="stop-color:#71C345"
   id="stop6982" />

	<stop
   offset="0.6477"
   style="stop-color:#4E9E25"
   id="stop6984" />

	<stop
   offset="0.6593"
   style="stop-color:#4C9C23"
   id="stop6986" />

</linearGradient>
    <linearGradient
       id="SVGID_103_"
       gradientUnits="userSpaceOnUse"
       x1="306.2329"
       y1="106.6719"
       x2="321.5716"
       y2="113.7135"
       gradientTransform="matrix(1.0307397,0,0,1.0307397,-297.86969,-88.664181)">
	<stop
   offset="0"
   style="stop-color:#83D857"
   id="stop6991" />

	<stop
   offset="0.7637"
   style="stop-color:#5DAE33"
   id="stop6993" />

</linearGradient>
    <linearGradient
       id="SVGID_104_"
       gradientUnits="userSpaceOnUse"
       x1="314.2388"
       y1="90.2041"
       x2="328.0413"
       y2="110.7295"
       gradientTransform="matrix(1.0307397,0,0,1.0307397,-297.86969,-88.664181)">
	<stop
   offset="0"
   style="stop-color:#8EE361"
   id="stop6998" />

	<stop
   offset="0.489"
   style="stop-color:#4C9C23"
   id="stop7000" />

	<stop
   offset="0.5549"
   style="stop-color:#4C9C23"
   id="stop7002" />

</linearGradient>
  </defs>
  <sodipodi:namedview
     id="base"
     pagecolor="#ffffff"
     bordercolor="#666666"
     borderopacity="1.0"
     inkscape:pageopacity="0.0"
     inkscape:pageshadow="2"
     inkscape:zoom="7"
     inkscape:cx="24"
     inkscape:cy="24"
     inkscape:current-layer="layer1"
     showgrid="true"
     inkscape:grid-bbox="true"
     inkscape:document-units="px"
     inkscape:window-width="744"
     inkscape:window-height="573"
     inkscape:window-x="88"
     inkscape:window-y="96" />
  <metadata
     id="metadata13557">
    <rdf:RDF>
      <cc:Work
         rdf:about="">
        <dc:format>image/svg+xml</dc:format>
        <dc:type
           rdf:resource="http://purl.org/dc/dcmitype/StillImage" />
      </cc:Work>
    </rdf:RDF>
  </metadata>
  <g
     id="layer1"
     inkscape:label="Layer 1"
     inkscape:groupmode="layer">
    <g
       transform="matrix(1.0307397,0,0,1.0307397,-297.86969,-88.664181)"
       id="g6885">
	<path
   d="M 294.084,119.923 C 295.633,117.899 289.635,106.804 300.348,99.402 C 309.362,93.173 319.066,96.092 323.153,96.237 C 327.241,96.382 327.979,96.565 333.654,95.36 C 335.594,94.948 333.572,97.254 332.373,98.419 C 329.322,101.38 327.604,106.297 323.426,111.938 C 319.246,117.578 314.63,121.632 307.224,122.46 C 299.817,123.29 298.564,120.522 294.704,121.175"
   id="path6887"
   style="fill:none;stroke:#326617;stroke-width:1.94035411" />

	<path
   d="M 290.043,126.03 C 291.295,123.194 291.675,121.088 295.861,118.807 C 300.047,116.526 315.105,107.126 318.619,105.161 C 322.131,103.194 331.465,97.528 332.449,96.825 C 333.432,96.12 333.906,94.944 334.339,95.424 C 334.592,95.706 334.467,96.048 332.774,97.165 C 331.081,98.283 314.108,108.329 311.462,110.22 C 308.816,112.11 299.661,117.283 297.146,119.275 C 294.629,121.268 293.516,121.87 292.537,123.639 C 291.558,125.408 291.067,126.293 290.959,126.59 C 290.851,126.886 289.724,126.755 290.043,126.03 z "
   id="path6889"
   style="fill:none;stroke:#326617;stroke-width:1.94035411" />

</g>
    <path
       d="M 7.7734936,34.149488 L 44.751281,11.408278 L 46.609705,9.590053 C 47.533248,9.7776476 45.802636,11.727807 44.720359,12.779162 C 41.575572,15.831182 39.804761,20.899329 35.498331,26.713732 C 31.189839,32.527104 26.431944,36.705723 18.798286,37.559175 C 11.163597,38.414689 9.8720796,35.561602 5.8934243,36.234675 L 7.7734936,34.149488 z "
       id="path6906"
       style="fill:url(#SVGID_96_)" />
    <path
       d="M 45.201715,11.21553 L 8.8032025,33.183685 L 5.2543657,34.945219 C 6.8509815,32.859002 0.66860457,21.422945 11.710919,13.79341 C 21.002007,7.3729323 31.004306,10.381661 35.216939,10.531118 C 39.430603,10.680576 40.191289,10.869201 46.040737,9.6271596 C 46.291206,9.5735612 46.47674,9.5642845 46.609705,9.5910837 L 45.201715,11.21553 z "
       id="path6923"
       style="fill:url(#SVGID_97_)" />
    <path
       d="M 1.0891463,41.239947 C 2.3796326,38.316769 2.7713137,36.146031 7.0859902,33.794914 C 11.400667,31.443797 26.921546,21.754843 30.543565,19.72944 C 34.163523,17.701975 43.784447,11.861803 44.798695,11.137193 C 45.811912,10.410522 46.300483,9.1983719 46.746793,9.693127 C 47.007571,9.9837956 46.878728,10.336309 45.133686,11.487645 C 43.388643,12.640012 25.893898,22.994823 23.166561,24.943952 C 20.439223,26.89205 11.002801,32.224067 8.4104907,34.2773 C 5.8161188,36.331564 4.6689055,36.95207 3.6598113,38.775448 C 2.6507171,40.598827 2.1446239,41.511032 2.033304,41.817161 C 1.9219841,42.12226 0.7603404,41.987233 1.0891463,41.239947 z "
       id="path6936"
       style="fill:url(#SVGID_98_)" />
    <path
       d="M 12.494282,30.632604 C 13.629126,25.348002 11.208949,23.006161 12.542726,15.487946 C 11.80987,21.354916 13.527083,25.223282 13.166324,30.226493 L 12.494282,30.632604 z "
       id="path6949"
       style="fill:url(#SVGID_99_)" />
    <path
       d="M 21.726617,25.02435 C 22.978966,21.587863 21.045298,16.546515 21.447287,11.10421 C 21.481301,15.787891 23.371678,21.640431 22.256418,24.700697 L 21.726617,25.02435 z "
       id="path6962"
       style="fill:url(#SVGID_100_)" />
    <path
       d="M 30.360093,19.81396 C 31.438247,15.57762 29.885953,15.309628 31.413509,11.492799 C 30.416784,15.155017 31.502153,16.680512 30.80125,19.583075 L 30.360093,19.81396 z "
       id="path6975"
       style="fill:url(#SVGID_101_)" />
    <path
       d="M 12.873594,31.319077 C 15.618454,33.53826 18.948774,34.955527 26.827748,33.835113 C 16.283281,34.516432 14.537208,31.956074 13.482761,30.943888 L 12.873594,31.319077 z "
       id="path6988"
       style="fill:url(#SVGID_102_)" />
    <path
       d="M 21.916273,25.780913 C 24.660103,28.000095 29.153097,28.207274 34.951008,26.329266 C 28.328505,27.910421 24.25296,27.317746 22.369799,25.487152 L 21.916273,25.780913 z "
       id="path6995"
       style="fill:url(#SVGID_103_)" />
    <path
       d="M 30.545626,20.321084 C 33.30904,21.502312 36.021947,18.580165 40.831378,17.034055 C 36.746557,18.019442 32.649366,21.050848 31.000183,20.027323 L 30.545626,20.321084 z "
       id="path7004"
       style="fill:url(#SVGID_104_)" />
  </g>
</svg>
