<?xml version="1.0" encoding="UTF-8" standalone="no"?>
<!-- Created with Inkscape (http://www.inkscape.org/) -->
<svg
   xmlns:dc="http://purl.org/dc/elements/1.1/"
   xmlns:cc="http://web.resource.org/cc/"
   xmlns:rdf="http://www.w3.org/1999/02/22-rdf-syntax-ns#"
   xmlns:svg="http://www.w3.org/2000/svg"
   xmlns="http://www.w3.org/2000/svg"
   xmlns:xlink="http://www.w3.org/1999/xlink"
   xmlns:sodipodi="http://sodipodi.sourceforge.net/DTD/sodipodi-0.dtd"
   xmlns:inkscape="http://www.inkscape.org/namespaces/inkscape"
   width="48px"
   height="48px"
   id="svg13729"
   sodipodi:version="0.32"
   inkscape:version="0.45.1"
   sodipodi:docbase="C:\dev\src\houdini\support\icons\SHELF"
   sodipodi:docname="tree_seed.svg"
   inkscape:output_extension="org.inkscape.output.svg.inkscape">
  <defs
     id="defs13731">
    <linearGradient
       gradientTransform="matrix(1.0576938,0.5536953,-0.5540414,1.0570329,2006.9001,524.05121)"
       y2="407.97061"
       x2="-1647.3318"
       y1="390.86569"
       x1="-1688.0278"
       gradientUnits="userSpaceOnUse"
       id="SVGID_83_">
		<stop
   id="stop6711"
   style="stop-color:#C96F1B"
   offset="0" />

		<stop
   id="stop6713"
   style="stop-color:#BF8E43"
   offset="0.478" />

		<stop
   id="stop6715"
   style="stop-color:#C79B59"
   offset="0.7247" />

		<stop
   id="stop6717"
   style="stop-color:#CCA366"
   offset="0.8462" />

		<stop
   id="stop6719"
   style="stop-color:#C49650"
   offset="0.9492" />

		<stop
   id="stop6721"
   style="stop-color:#BF8E43"
   offset="1" />

	</linearGradient>
    <linearGradient
       gradientTransform="matrix(1.0576938,0.5536953,-0.5540414,1.0570329,2006.9001,524.05121)"
       y2="415.09979"
       x2="-1650.3278"
       y1="397.99371"
       x1="-1691.0269"
       gradientUnits="userSpaceOnUse"
       id="SVGID_84_">
		<stop
   id="stop6726"
   style="stop-color:#C96F1B"
   offset="0" />

		<stop
   id="stop6728"
   style="stop-color:#BF8E43"
   offset="0.478" />

		<stop
   id="stop6730"
   style="stop-color:#C79B59"
   offset="0.7247" />

		<stop
   id="stop6732"
   style="stop-color:#CCA366"
   offset="0.8462" />

		<stop
   id="stop6734"
   style="stop-color:#C49650"
   offset="0.9492" />

		<stop
   id="stop6736"
   style="stop-color:#BF8E43"
   offset="1" />

	</linearGradient>
    <linearGradient
       gradientTransform="matrix(1.0576938,0.5536953,-0.5540414,1.0570329,2006.9001,524.05121)"
       y2="401.7532"
       x2="-1644.7196"
       y1="384.64789"
       x1="-1685.4165"
       gradientUnits="userSpaceOnUse"
       id="SVGID_85_">
		<stop
   id="stop6741"
   style="stop-color:#C96F1B"
   offset="0" />

		<stop
   id="stop6743"
   style="stop-color:#BF8E43"
   offset="0.478" />

		<stop
   id="stop6745"
   style="stop-color:#C79B59"
   offset="0.7247" />

		<stop
   id="stop6747"
   style="stop-color:#CCA366"
   offset="0.8462" />

		<stop
   id="stop6749"
   style="stop-color:#C49650"
   offset="0.9492" />

		<stop
   id="stop6751"
   style="stop-color:#BF8E43"
   offset="1" />

	</linearGradient>
    <linearGradient
       gradientTransform="matrix(1.0576938,0.5536953,-0.5540414,1.0570329,2006.9001,524.05121)"
       y2="404.79459"
       x2="-1646.021"
       y1="387.7085"
       x1="-1686.6724"
       gradientUnits="userSpaceOnUse"
       id="SVGID_86_">
		<stop
   id="stop6756"
   style="stop-color:#C96F1B"
   offset="0" />

		<stop
   id="stop6758"
   style="stop-color:#BF8E43"
   offset="0.478" />

		<stop
   id="stop6760"
   style="stop-color:#C79B59"
   offset="0.7247" />

		<stop
   id="stop6762"
   style="stop-color:#CCA366"
   offset="0.8462" />

		<stop
   id="stop6764"
   style="stop-color:#C49650"
   offset="0.9492" />

		<stop
   id="stop6766"
   style="stop-color:#BF8E43"
   offset="1" />

	</linearGradient>
    <linearGradient
       gradientTransform="matrix(1.0576938,0.5536953,-0.5540414,1.0570329,2006.9001,524.05121)"
       y2="405.90329"
       x2="-1646.462"
       y1="388.79739"
       x1="-1687.1606"
       gradientUnits="userSpaceOnUse"
       id="SVGID_87_">
		<stop
   id="stop6771"
   style="stop-color:#e48a36;stop-opacity:1;"
   offset="0" />

		
		
		
		
		<stop
   id="stop6781"
   style="stop-color:#987033;stop-opacity:1;"
   offset="1" />

	</linearGradient>
    <linearGradient
       gradientTransform="matrix(1.0576938,0.5536953,-0.5540414,1.0570329,2006.9001,524.05121)"
       y2="411.47189"
       x2="-1648.8018"
       y1="394.36569"
       x1="-1689.501"
       gradientUnits="userSpaceOnUse"
       id="SVGID_88_">
		<stop
   id="stop6786"
   style="stop-color:#C96F1B"
   offset="0" />

		<stop
   id="stop6788"
   style="stop-color:#BF8E43"
   offset="0.478" />

		<stop
   id="stop6790"
   style="stop-color:#C79B59"
   offset="0.7247" />

		<stop
   id="stop6792"
   style="stop-color:#CCA366"
   offset="0.8462" />

		<stop
   id="stop6794"
   style="stop-color:#C49650"
   offset="0.9492" />

		<stop
   id="stop6796"
   style="stop-color:#BF8E43"
   offset="1" />

	</linearGradient>
    <linearGradient
       gradientTransform="matrix(1.0576938,0.5536953,-0.5540414,1.0570329,2006.9001,524.05121)"
       y2="409.76971"
       x2="-1648.0769"
       y1="392.6597"
       x1="-1688.7852"
       gradientUnits="userSpaceOnUse"
       id="SVGID_89_">
		<stop
   id="stop6801"
   style="stop-color:#C96F1B"
   offset="0" />

		<stop
   id="stop6803"
   style="stop-color:#BF8E43"
   offset="0.478" />

		<stop
   id="stop6805"
   style="stop-color:#C79B59"
   offset="0.7247" />

		<stop
   id="stop6807"
   style="stop-color:#CCA366"
   offset="0.8462" />

		<stop
   id="stop6809"
   style="stop-color:#C49650"
   offset="0.9492" />

		<stop
   id="stop6811"
   style="stop-color:#BF8E43"
   offset="1" />

	</linearGradient>
    <linearGradient
       gradientTransform="matrix(1.0576938,0.5536953,-0.5540414,1.0570329,2006.9001,524.05121)"
       y2="414.1153"
       x2="-1649.9149"
       y1="397.01031"
       x1="-1690.6113"
       gradientUnits="userSpaceOnUse"
       id="SVGID_90_">
		<stop
   id="stop6816"
   style="stop-color:#C96F1B"
   offset="0" />

		<stop
   id="stop6818"
   style="stop-color:#BF8E43"
   offset="0.478" />

		<stop
   id="stop6820"
   style="stop-color:#C79B59"
   offset="0.7247" />

		<stop
   id="stop6822"
   style="stop-color:#CCA366"
   offset="0.8462" />

		<stop
   id="stop6824"
   style="stop-color:#C49650"
   offset="0.9492" />

		<stop
   id="stop6826"
   style="stop-color:#BF8E43"
   offset="1" />

	</linearGradient>
    <linearGradient
       gradientTransform="matrix(1.0576938,0.5536953,-0.5540414,1.0570329,2006.9001,524.05121)"
       y2="395.95471"
       x2="-1686.9241"
       y1="391.1929"
       x1="-1689.0635"
       gradientUnits="userSpaceOnUse"
       id="SVGID_91_">
		<stop
   id="stop6831"
   style="stop-color:#CCA366"
   offset="0" />

		<stop
   id="stop6833"
   style="stop-color:#C49650"
   offset="0.6701" />

		<stop
   id="stop6835"
   style="stop-color:#BF8E43"
   offset="1" />

	</linearGradient>
    <radialGradient
       gradientUnits="userSpaceOnUse"
       gradientTransform="matrix(1.0576938,0.5536953,-0.5540414,1.0570329,2006.92,524.43713)"
       r="25.556"
       cy="391.93991"
       cx="-1671.9751"
       id="SVGID_92_">
		<stop
   id="stop6840"
   style="stop-color:#ffffff;stop-opacity:0.5625;"
   offset="0" />

		
		
		
		<stop
   id="stop6848"
   style="stop-color:#994c0b;stop-opacity:0;"
   offset="1" />

	</radialGradient>
    <radialGradient
       gradientUnits="userSpaceOnUse"
       gradientTransform="matrix(1.0576938,0.5536953,-0.5540414,1.0570329,2006.9297,524.95121)"
       r="25.556"
       cy="391.93991"
       cx="-1671.9751"
       id="SVGID_93_">
		<stop
   id="stop6853"
   style="stop-color:#ffffff;stop-opacity:0.6171875;"
   offset="0" />

		
		<stop
   id="stop6857"
   style="stop-color:#994c0b;stop-opacity:0.28125;"
   offset="0.70880002" />

	</radialGradient>
    <linearGradient
       gradientTransform="matrix(1.0576938,0.5536953,-0.5540414,1.0570329,2006.9231,524.40875)"
       y2="408.1485"
       x2="-1648.0039"
       y1="390.91159"
       x1="-1687.3862"
       gradientUnits="userSpaceOnUse"
       id="SVGID_94_">
		<stop
   id="stop6862"
   style="stop-color:#B3590D"
   offset="0" />

		<stop
   id="stop6864"
   style="stop-color:#C9650F"
   offset="0.4712" />

		<stop
   id="stop6866"
   style="stop-color:#CC660F"
   offset="0.522" />

		<stop
   id="stop6868"
   style="stop-color:#B65B0D"
   offset="0.7521" />

		<stop
   id="stop6870"
   style="stop-color:#994C0B"
   offset="1" />

	</linearGradient>
    <linearGradient
       gradientTransform="matrix(1.0576938,0.5536953,-0.5540414,1.0570329,2006.9001,524.05121)"
       y2="409.68359"
       x2="-1646.2856"
       y1="408.89789"
       x1="-1647.5303"
       gradientUnits="userSpaceOnUse"
       id="SVGID_95_">
		<stop
   id="stop6875"
   style="stop-color:#994C0B"
   offset="0" />

		<stop
   id="stop6877"
   style="stop-color:#753A08"
   offset="0.3865" />

		<stop
   id="stop6879"
   style="stop-color:#572C06"
   offset="0.7784" />

		<stop
   id="stop6881"
   style="stop-color:#4C2605"
   offset="1" />

	</linearGradient>
    <linearGradient
       inkscape:collect="always"
       xlink:href="#SVGID_83_"
       id="linearGradient13855"
       gradientUnits="userSpaceOnUse"
       gradientTransform="matrix(1.0576938,0.5536953,-0.5540414,1.0570329,2006.9001,524.05121)"
       x1="-1688.0278"
       y1="390.86569"
       x2="-1647.3318"
       y2="407.97061" />
    <linearGradient
       inkscape:collect="always"
       xlink:href="#SVGID_84_"
       id="linearGradient13857"
       gradientUnits="userSpaceOnUse"
       gradientTransform="matrix(1.0576938,0.5536953,-0.5540414,1.0570329,2006.9001,524.05121)"
       x1="-1691.0269"
       y1="397.99371"
       x2="-1650.3278"
       y2="415.09979" />
    <linearGradient
       inkscape:collect="always"
       xlink:href="#SVGID_88_"
       id="linearGradient13859"
       gradientUnits="userSpaceOnUse"
       gradientTransform="matrix(1.0576938,0.5536953,-0.5540414,1.0570329,2006.9001,524.05121)"
       x1="-1689.501"
       y1="394.36569"
       x2="-1648.8018"
       y2="411.47189" />
    <linearGradient
       inkscape:collect="always"
       xlink:href="#SVGID_89_"
       id="linearGradient13861"
       gradientUnits="userSpaceOnUse"
       gradientTransform="matrix(1.0576938,0.5536953,-0.5540414,1.0570329,2006.9001,524.05121)"
       x1="-1688.7852"
       y1="392.6597"
       x2="-1648.0769"
       y2="409.76971" />
    <linearGradient
       inkscape:collect="always"
       xlink:href="#SVGID_90_"
       id="linearGradient13863"
       gradientUnits="userSpaceOnUse"
       gradientTransform="matrix(1.0576938,0.5536953,-0.5540414,1.0570329,2006.9001,524.05121)"
       x1="-1690.6113"
       y1="397.01031"
       x2="-1649.9149"
       y2="414.1153" />
    <linearGradient
       inkscape:collect="always"
       xlink:href="#SVGID_90_"
       id="linearGradient13866"
       gradientUnits="userSpaceOnUse"
       gradientTransform="matrix(1.0576938,0.5536953,-0.5540414,1.0570329,2006.9001,524.05121)"
       x1="-1690.6113"
       y1="397.01031"
       x2="-1649.9149"
       y2="414.1153" />
    <linearGradient
       inkscape:collect="always"
       xlink:href="#SVGID_89_"
       id="linearGradient13869"
       gradientUnits="userSpaceOnUse"
       gradientTransform="matrix(1.0576938,0.5536953,-0.5540414,1.0570329,2006.9001,524.05121)"
       x1="-1688.7852"
       y1="392.6597"
       x2="-1648.0769"
       y2="409.76971" />
    <linearGradient
       inkscape:collect="always"
       xlink:href="#SVGID_88_"
       id="linearGradient13872"
       gradientUnits="userSpaceOnUse"
       gradientTransform="matrix(1.0576938,0.5536953,-0.5540414,1.0570329,2006.9001,524.05121)"
       x1="-1689.501"
       y1="394.36569"
       x2="-1648.8018"
       y2="411.47189" />
    <linearGradient
       inkscape:collect="always"
       xlink:href="#SVGID_84_"
       id="linearGradient13875"
       gradientUnits="userSpaceOnUse"
       gradientTransform="matrix(1.0576938,0.5536953,-0.5540414,1.0570329,2006.9001,524.05121)"
       x1="-1691.0269"
       y1="397.99371"
       x2="-1650.3278"
       y2="415.09979" />
    <linearGradient
       inkscape:collect="always"
       xlink:href="#SVGID_83_"
       id="linearGradient13878"
       gradientUnits="userSpaceOnUse"
       gradientTransform="matrix(1.0576938,0.5536953,-0.5540414,1.0570329,2006.9001,524.05121)"
       x1="-1688.0278"
       y1="390.86569"
       x2="-1647.3318"
       y2="407.97061" />
    <linearGradient
       inkscape:collect="always"
       xlink:href="#SVGID_85_"
       id="linearGradient13880"
       gradientUnits="userSpaceOnUse"
       gradientTransform="matrix(1.0576938,0.5536953,-0.5540414,1.0570329,2006.9001,524.05121)"
       x1="-1685.4165"
       y1="384.64789"
       x2="-1644.7196"
       y2="401.7532" />
    <linearGradient
       inkscape:collect="always"
       xlink:href="#SVGID_87_"
       id="linearGradient13882"
       gradientUnits="userSpaceOnUse"
       gradientTransform="matrix(1.0576938,0.5536953,-0.5540414,1.0570329,2006.9001,524.05121)"
       x1="-1687.1606"
       y1="388.79739"
       x2="-1646.462"
       y2="405.90329" />
    <linearGradient
       inkscape:collect="always"
       xlink:href="#SVGID_86_"
       id="linearGradient13884"
       gradientUnits="userSpaceOnUse"
       gradientTransform="matrix(1.0576938,0.5536953,-0.5540414,1.0570329,2006.9001,524.05121)"
       x1="-1686.6724"
       y1="387.7085"
       x2="-1646.021"
       y2="404.79459" />
    <linearGradient
       inkscape:collect="always"
       xlink:href="#SVGID_86_"
       id="linearGradient13887"
       gradientUnits="userSpaceOnUse"
       gradientTransform="matrix(1.0576938,0.5536953,-0.5540414,1.0570329,2006.9001,524.05121)"
       x1="-1686.6724"
       y1="387.7085"
       x2="-1646.021"
       y2="404.79459" />
    <linearGradient
       inkscape:collect="always"
       xlink:href="#SVGID_87_"
       id="linearGradient13890"
       gradientUnits="userSpaceOnUse"
       gradientTransform="matrix(1.0576938,0.5536953,-0.5540414,1.0570329,2006.9001,524.05121)"
       x1="-1687.1606"
       y1="388.79739"
       x2="-1646.462"
       y2="405.90329" />
    <linearGradient
       inkscape:collect="always"
       xlink:href="#SVGID_85_"
       id="linearGradient13893"
       gradientUnits="userSpaceOnUse"
       gradientTransform="matrix(1.0576938,0.5536953,-0.5540414,1.0570329,2006.9001,524.05121)"
       x1="-1685.4165"
       y1="384.64789"
       x2="-1644.7196"
       y2="401.7532" />
    <radialGradient
       inkscape:collect="always"
       xlink:href="#SVGID_87_"
       id="radialGradient13907"
       cx="26.568243"
       cy="16.731737"
       fx="26.568243"
       fy="16.731737"
       r="20.519175"
       gradientTransform="matrix(1.2241275,-1.1718223,1.8796338,1.9635324,-45.981855,12.641825)"
       gradientUnits="userSpaceOnUse" />
  </defs>
  <sodipodi:namedview
     id="base"
     pagecolor="#ffffff"
     bordercolor="#666666"
     borderopacity="1.0"
     inkscape:pageopacity="0.0"
     inkscape:pageshadow="2"
     inkscape:zoom="2.4748737"
     inkscape:cx="45.428571"
     inkscape:cy="24.297654"
     inkscape:current-layer="layer1"
     showgrid="true"
     inkscape:grid-bbox="true"
     inkscape:document-units="px"
     inkscape:window-width="744"
     inkscape:window-height="573"
     inkscape:window-x="600"
     inkscape:window-y="228" />
  <metadata
     id="metadata13734">
    <rdf:RDF>
      <cc:Work
         rdf:about="">
        <dc:format>image/svg+xml</dc:format>
        <dc:type
           rdf:resource="http://purl.org/dc/dcmitype/StillImage" />
      </cc:Work>
    </rdf:RDF>
  </metadata>
  <g
     id="layer1"
     inkscape:label="Layer 1"
     inkscape:groupmode="layer">
    <path
       style="fill:#8f5810"
       id="path6708"
       d="M 3.1428571,2.9707336 C 4.6939341,6.3298986 -0.44288887,16.851302 11.663632,33.341634 C 20.450682,45.316488 31.08971,48.445345 36.037873,47.068265 C 38.447476,46.398819 39.998553,45.725793 41.691723,43.793827 C 46.141965,38.712717 48.669779,30.953825 37.857613,19.218826 C 22.238182,2.2619076 10.504205,0.91824259 8.0671391,1.4600046 C 6.3715811,1.8358966 5.4760401,1.5972346 4.9602091,1.5888816 C 4.5231841,1.5805286 3.2216651,2.3514066 3.1428571,2.9707336 z " />
    <path
       id="path6837"
       style="fill:url(#radialGradient13907);fill-opacity:1.0"
       d="M 3.3223602,4.0253935 C 3.3987797,4.2700219 3.882372,5.4704893 3.8656551,5.0015201 C 3.8047583,3.2557094 3.5766939,3.150697 3.6244561,2.8464044 C 3.6758004,2.5397235 4.080585,2.518244 4.4793993,2.2676489 C 4.7850774,2.0791061 4.709852,1.7783923 4.5558189,1.3273216 C 4.5140269,1.3249349 4.4698469,1.3213551 4.4316372,1.3189684 C 3.9934191,1.3094219 2.6918993,2.0814927 2.6142857,2.6996269 C 3.207731,3.9824332 2.8256334,6.3141586 2.8005582,9.6267837 C 2.8327977,8.711517 3.2172834,3.6960403 3.3223602,4.0253935 z M 6.9893025,2.6053555 C 7.4669245,3.7425794 10.17743,4.9693008 11.31417,5.6232328 C 12.868828,6.3356393 13.98527,6.7198836 14.917827,7.4585417 C 15.846802,8.2019742 17.728632,9.6434912 19.559118,10.699569 C 21.387216,11.760419 23.429049,14.348707 24.828482,15.742492 C 26.230302,17.131503 27.983174,19.012158 28.212433,18.5766 C 28.440498,18.138656 27.857799,17.121957 27.523464,16.694752 C 27.191516,16.267547 27.862575,16.82363 28.137208,17.167303 C 28.413034,17.514555 28.928866,17.987106 28.93603,18.547961 C 28.945583,19.112396 28.776027,19.530054 28.761699,20.334344 C 28.746176,21.137441 28.637517,21.462021 28.729459,22.00259 C 28.840506,22.65533 28.982598,23.177999 29.597537,23.602817 C 30.211281,24.028828 31.338468,25.666048 32.546853,26.682747 C 33.760012,27.697059 34.415548,28.703019 34.838244,28.958386 C 35.260938,29.21614 35.680052,29.016859 36.63052,30.5252 C 37.582182,32.034735 38.37981,32.904657 38.890866,33.793672 C 39.397145,34.686268 40.056263,35.554998 40.127906,36.08244 C 40.203132,36.606303 40.531497,38.17073 40.467018,40.020358 C 40.406121,41.866406 41.509428,38.960701 41.653909,37.890301 C 41.800777,36.818711 41.289721,34.600349 41.416291,34.353335 C 41.544056,34.109899 41.952422,35.19223 41.95481,35.922536 C 41.952422,36.652841 42.339296,37.446391 42.131531,38.105098 C 41.928541,38.761417 40.90046,41.916525 41.378081,41.537053 C 41.853315,41.163548 43.072445,38.704138 43.083192,38.150443 C 43.095132,37.597941 42.215114,34.422546 41.856897,33.712528 C 41.497488,33.004897 39.251471,29.179147 36.603057,26.191103 C 33.954643,23.203059 32.783275,21.717389 32.89671,21.499014 C 33.011339,21.279445 36.129017,24.969156 37.346953,26.302081 C 38.5625,27.635007 39.781631,28.967933 39.639538,28.439297 C 39.496251,27.913048 37.772036,25.094453 35.163026,22.022876 C 32.555211,18.954879 29.091257,15.331993 27.396893,14.373767 C 25.703724,13.417927 23.657114,11.406007 20.953774,9.7819143 C 18.252822,8.155434 15.142309,5.5206094 13.863476,5.2342153 C 12.58345,4.9442401 14.048555,4.8786093 14.293336,5.0074867 C 14.540505,5.136364 17.935203,7.3666581 18.970449,8.0468441 C 20.008082,8.7282222 21.713193,9.7246363 22.723363,10.463293 C 23.731146,11.199565 25.943729,13.021748 27.027931,13.414346 C 28.108551,13.808139 29.531864,15.35228 32.133709,17.829589 C 34.737942,20.30451 37.503373,23.736467 38.930269,25.666048 C 40.354777,27.599208 41.308826,31.300852 42.00496,32.362895 C 42.702289,33.422554 42.403775,34.658821 43.058116,34.339014 C 43.713653,34.020402 43.107073,32.520412 42.69393,30.97985 C 42.280787,29.441675 42.215114,27.909468 41.45092,26.638594 C 40.686724,25.370107 38.974449,22.452467 37.677706,21.144601 C 36.374992,19.839121 32.161173,15.64822 30.764128,14.392859 C 29.367084,13.139885 25.738351,10.022963 24.251754,9.0730896 C 22.763961,8.1208281 18.865372,6.253301 17.716691,5.6518722 C 16.569205,5.0516379 14.135721,3.8452039 12.861664,3.4191927 C 11.584026,2.9967614 10.087876,2.5313704 8.7553096,2.3499874 C 7.4191623,2.1733775 9.776227,2.1912771 10.079517,2.2103701 C 10.385195,2.2318496 12.664645,2.7974782 13.623472,3.2986685 C 14.578715,3.7986637 16.597862,4.9955524 18.625367,5.8487681 C 20.652872,6.6984052 22.60754,7.618445 23.813535,8.3177252 C 25.012366,9.0170041 29.635746,12.691201 30.608901,13.688807 C 31.585638,14.686414 34.876454,18.046771 36.317677,19.219794 C 37.758902,20.390429 39.69924,22.870126 40.981656,25.142185 C 42.26407,27.413051 42.910054,30.502527 43.209762,30.590832 C 43.510663,30.681523 43.819924,29.830694 43.547679,28.81877 C 43.277823,27.806843 42.619899,26.138598 42.164964,25.346241 L 42.217502,25.37488 C 41.037776,23.376088 39.441325,21.237678 37.329042,18.946526 C 24.156229,4.6459129 13.746459,1.4514256 9.347561,1.1256524 L 9.347561,1.1256524 C 7.694989,1.1447453 6.5080985,1.468132 6.9893025,2.6053555 z M 9.566074,8.7664081 C 10.141608,9.1184353 11.687908,11.293837 12.101052,11.864237 C 12.511807,12.435834 13.677204,14.565889 15.41933,15.984733 C 17.160262,17.403578 19.599715,20.100455 20.80213,21.391616 C 22.003349,22.675616 24.127572,25.106386 24.467877,25.231684 C 24.803407,25.362947 25.350284,25.189918 25.44342,24.630255 C 25.532974,24.068206 25.574766,22.922631 25.327597,22.240058 C 25.079233,21.549133 23.401586,18.846288 21.286915,16.977566 C 19.171051,15.112425 17.72505,14.100499 16.25875,12.926284 C 14.791257,11.753259 17.994907,13.483559 18.452229,13.772339 C 18.910746,14.06112 21.017059,16.229362 21.912601,16.749644 C 22.806947,17.268734 24.970574,19.917879 25.261924,20.426229 C 25.552079,20.934578 25.707306,21.120735 26.069105,21.205459 C 26.526428,21.31763 27.431521,21.414288 27.46376,20.871333 C 27.492419,20.327184 27.685855,19.668477 27.19271,19.157742 C 26.70076,18.644619 24.779526,17.083771 24.410563,16.434611 C 24.041599,15.783065 21.986632,12.932249 21.309602,12.579029 C 20.633767,12.225811 18.689846,10.805772 16.805627,9.5647316 C 14.920215,8.3224972 11.747611,7.0194052 10.872369,6.5599801 C 9.997127,6.1029441 8.9666579,6.4239442 8.2323137,5.8893418 C 7.500358,5.348773 6.170181,3.4370923 5.45136,3.0623934 C 4.7361211,2.6876938 4.9056769,3.2330365 5.2746399,3.9824332 C 5.6424087,4.7330256 6.1033138,5.886954 6.651385,6.5790743 C 7.2030384,7.27358 8.9893449,8.4119966 9.566074,8.7664081 z M 26.295975,22.033615 C 26.067911,22.370128 26.18851,22.33433 26.323438,22.65533 C 26.458367,22.978717 26.063135,23.635037 26.263735,23.638616 C 26.466725,23.644583 26.675685,23.24363 27.090022,23.41308 C 27.512718,23.580144 27.98198,23.069408 27.965264,22.908311 C 27.947353,22.747214 27.841082,22.084928 27.585555,21.796146 C 27.332415,21.510947 26.547921,21.661304 26.295975,22.033615 z M 31.81012,39.371199 C 32.269831,39.873582 34.31883,42.226786 34.956455,42.82344 C 35.596468,43.418901 36.705745,43.93441 37.185755,43.892644 C 37.668154,43.848493 38.071743,43.140862 38.260405,42.781674 C 38.449065,42.418909 38.400109,42.26378 38.103984,41.323451 C 37.812634,40.38193 34.478833,37.16119 33.615531,36.117045 C 32.748648,35.077673 31.632206,34.328275 30.93249,33.533531 C 30.230385,32.742367 29.355144,32.411822 29.244097,32.058603 C 29.133049,31.706575 30.459645,32.433302 31.740865,33.433293 C 33.02328,34.429706 35.414972,37.126585 36.699775,38.619413 C 37.984578,40.113437 38.269957,40.823455 38.515932,40.917727 C 38.760714,41.010804 38.792953,39.947566 38.66519,39.191008 C 38.537425,38.436838 38.826387,38.322279 37.457999,36.232796 C 36.094389,34.140926 34.921828,32.998929 34.36898,32.546666 C 33.819715,32.093208 32.435805,30.353364 34.138527,31.803234 C 35.838861,33.251912 36.777388,34.465506 38.065773,36.452365 C 39.355353,38.436838 39.299233,39.359265 39.335054,40.231574 C 39.369682,41.101496 39.751779,43.692169 40.013277,40.816294 C 40.277163,37.935647 39.756555,36.482197 39.38401,35.565738 C 39.010271,34.649276 38.163687,33.449999 36.427531,31.06577 C 34.691374,28.682732 35.299148,30.149307 34.309277,29.040725 C 33.313436,27.930948 31.408919,26.113539 30.862041,25.594449 C 30.31397,25.076553 29.553357,23.829545 29.134243,24.0694 C 28.712743,24.308063 28.053624,24.254364 27.640481,24.1052 C 27.226144,23.953649 26.981363,23.169646 26.213585,24.507344 C 25.447002,25.845044 26.436874,29.84024 26.592101,30.728063 C 26.778373,31.80204 27.783768,35.143305 28.415422,36.257855 C 29.045883,37.377179 28.309152,37.421333 30.171877,40.970231 C 30.171877,40.970231 30.448898,41.155195 30.612483,41.471421 C 30.776069,41.786455 30.24352,42.360436 30.317552,42.658764 C 30.391584,42.959477 31.263243,44.299563 32.046544,44.8103 C 32.827455,45.321035 34.310472,44.621757 34.373756,44.127727 C 34.434653,43.63489 32.05132,40.355678 31.545041,39.694584 C 31.035179,39.034685 31.352797,38.868815 31.81012,39.371199 z M 31.558175,45.554924 C 29.482908,44.46782 27.838694,42.822247 27.221368,42.49886 C 26.604041,42.175473 23.184269,41.599106 22.020065,41.636098 C 21.784836,41.639677 22.629033,42.455901 23.412333,43.076421 C 26.551503,45.57879 28.202881,46.088332 29.445892,46.309096 C 30.690097,46.531051 33.638219,46.643221 31.558175,45.554924 z M 19.791959,31.250733 C 20.550183,32.510865 22.51321,36.020387 23.094715,37.237561 C 23.675025,38.453543 24.330561,39.81153 24.62191,40.417729 C 24.912066,41.02751 28.467961,42.280485 28.584978,42.342536 C 28.704384,42.405783 29.763511,41.799581 29.565297,41.435622 C 29.333651,41.008419 28.510947,38.80557 28.26139,38.11703 C 28.01422,37.432072 27.909143,36.565729 27.326444,35.449987 C 26.746134,34.334241 25.716858,30.298471 25.172369,28.240014 C 24.630268,26.180364 23.755027,25.522851 22.593212,24.353408 C 21.430202,23.188738 19.002688,20.851047 18.097595,19.87134 C 17.188919,18.889246 15.84322,17.882095 15.565004,17.735317 C 15.28679,17.58854 14.197812,17.730543 13.724966,17.280667 C 13.25212,16.828403 13.200776,16.246068 13.715414,16.713846 C 14.230052,17.186395 14.89514,16.977566 15.016933,16.842723 C 15.142309,16.701912 14.764988,16.354659 14.27662,15.741299 C 13.256897,14.499064 13.218687,15.340345 12.655093,14.3857 C 12.087917,13.42986 11.035955,12.828431 10.45445,12.77712 C 9.872945,12.725807 8.5582906,13.1017 8.9654638,13.974009 C 9.370248,14.84393 10.436539,17.840329 11.115956,19.253207 C 11.790597,20.676824 11.795373,19.410723 12.68375,20.229333 C 13.573322,21.049136 13.789445,22.380869 14.730361,23.581338 C 15.673663,24.784192 17.058767,26.880836 17.21877,26.963174 C 17.378773,27.046706 18.029534,26.677974 17.876694,26.192297 C 17.726244,25.70662 15.788293,22.920245 15.537541,22.432181 C 15.285596,21.946504 15.100517,21.039589 15.746501,21.936958 C 16.393679,22.830746 18.052221,25.37488 18.439094,26.284182 C 18.82358,27.195869 18.257598,27.404698 18.11073,27.685126 C 17.966248,27.961973 19.031345,29.989404 19.791959,31.250733 z M 9.914737,10.692409 C 9.540999,10.188832 8.7063534,9.2091268 8.2227612,8.9549521 C 7.7403631,8.7019706 7.0024372,8.0790634 7.1552762,8.7807278 C 7.3105033,9.4752347 7.5911062,11.016989 8.4245565,11.997889 C 8.6896367,12.303376 9.007256,11.427486 9.640105,11.446581 C 10.266984,11.46806 10.292059,11.194791 9.914737,10.692409 z M 21.888718,36.324681 C 20.77586,34.22207 17.070708,28.325933 14.583491,25.041947 C 11.330887,20.746036 11.900451,22.433375 10.89625,21.213812 C 9.89205,19.993058 9.098004,18.250825 7.5612549,14.662547 C 6.0245063,11.079041 5.8812197,8.0945764 5.4167324,7.5373012 C 4.951051,6.972865 3.7044578,9.2306064 3.9862547,11.46806 C 4.2716338,13.698354 6.1952561,19.321225 7.0275123,21.716196 C 7.8597685,24.112359 9.274724,26.117119 9.32368,27.472717 C 9.372636,28.823543 10.752964,30.179141 11.783433,31.348584 C 12.813902,32.521605 11.459844,28.039539 11.813284,28.39395 C 12.724348,29.313991 13.104058,31.723283 14.524983,33.479833 C 17.064738,36.619428 21.716775,40.152815 22.769931,40.07167 C 23.824282,39.991718 22.818887,38.078844 21.888718,36.324681 z " />
    <path
       style="fill:none;stroke:#4c2505;stroke-width:1.79999983"
       id="path6706"
       d="M 2.4407866,3.1048809 C 3.9918636,6.4640449 -1.1449602,16.985447 10.961562,33.475779 C 19.748611,45.450631 30.38764,48.579488 35.335803,47.202408 C 37.745406,46.532962 39.296483,45.859936 40.989653,43.927969 C 45.439895,38.846861 47.967709,31.087969 37.155543,19.352971 C 21.536112,2.3960549 9.8021346,1.0523899 7.3650686,1.5941519 C 5.6695106,1.9700439 4.7739696,1.7313819 4.2581376,1.7230289 C 3.8211136,1.7146759 2.5195936,2.4855529 2.4407866,3.1048809 z " />
    <path
       style="fill:url(#SVGID_92_)"
       id="path6850"
       d="M 2.6341897,3.0867401 C 4.1852667,6.4459051 -0.95155732,16.967308 11.154965,33.45764 C 19.942015,45.432494 30.581043,48.561351 35.529206,47.184271 C 37.938809,46.514825 39.489886,45.841799 41.183056,43.909833 C 45.633298,38.828723 48.161112,31.069831 37.348946,19.334832 C 21.729515,2.3779151 9.9955377,1.0342491 7.5584717,1.5760111 C 5.8629137,1.9519031 4.9673727,1.7132421 4.4515407,1.7048891 C 4.0145167,1.6965351 2.7129967,2.4674131 2.6341897,3.0867401 z " />
    <path
       style="fill:url(#SVGID_93_)"
       id="path6859"
       d="M 2.6439196,3.6008176 C 4.1949971,6.9599826 -0.94182639,17.481387 11.164695,33.971719 C 19.951744,45.946573 30.590773,49.07543 35.538937,47.69835 C 37.94854,47.028904 39.499616,46.355878 41.192786,44.423912 C 45.643028,39.342802 48.170842,31.58391 37.358677,19.848911 C 21.739244,2.8919926 10.005268,1.5483267 7.5682011,2.0900886 C 5.8726441,2.4659816 4.9771021,2.2273196 4.4612711,2.2189666 C 4.0242476,2.2106136 2.7227276,2.9814906 2.6439196,3.6008176 z " />
    <path
       style="fill:url(#SVGID_94_)"
       id="path6872"
       d="M 38.099552,44.776432 C 40.0984,43.612956 41.183796,43.879064 42.862637,41.658316 C 45.349851,37.757391 46.278831,32.57843 42.240534,25.734805 L 42.187996,25.706166 C 42.642931,26.498522 43.302051,28.167962 43.570711,29.178694 C 43.842951,30.191812 43.533691,31.042641 43.232794,30.950756 C 42.933086,30.862453 42.287102,27.772976 41.004688,25.50211 C 39.722272,23.23005 37.781934,20.751548 36.340709,19.579717 C 34.899486,18.407889 31.60867,15.046339 30.631933,14.048732 C 29.658778,13.051125 25.034204,9.3769274 23.836567,8.6776497 C 22.630572,7.9783708 20.677098,7.0583297 18.648399,6.2086938 C 16.620894,5.3554781 14.600553,4.1585894 13.646504,3.658593 C 12.687677,3.1574027 10.408227,2.5905809 10.102549,2.5702946 C 9.7992594,2.5512016 7.4410004,2.533302 8.7783424,2.7099119 C 10.110908,2.8912948 11.607058,3.3578792 12.884696,3.7791172 C 14.158753,4.2051273 16.592237,5.4115636 17.739723,6.0117979 C 18.888404,6.6132255 22.786993,8.4807537 24.274786,9.4330129 C 25.761383,10.382887 29.390116,13.49981 30.78716,14.752784 C 32.184205,16.008145 36.398024,20.199045 37.700738,21.504525 C 38.997481,22.813585 40.71095,25.73003 41.473952,26.998519 C 42.238146,28.268199 42.303819,29.8016 42.716962,31.339776 C 43.130105,32.880336 43.736681,34.381519 43.081148,34.698939 C 42.426807,35.018746 42.725321,33.781285 42.027992,32.722819 C 41.331858,31.659583 40.377809,27.959133 38.953301,26.025973 C 37.526405,24.09639 34.75978,20.664436 32.156741,18.189514 C 29.553702,15.712205 28.131583,14.168063 27.050963,13.774271 C 25.966761,13.381672 23.752984,11.560683 22.746395,10.823219 C 21.736225,10.084559 20.032309,9.0881479 18.993481,8.4067686 C 17.958235,7.7265826 14.563537,5.4974818 14.316368,5.36741 C 14.071587,5.2397271 12.605288,5.3041646 13.886508,5.5941399 C 15.164147,5.8793406 18.275854,8.5141664 20.976806,10.141839 C 23.680146,11.764739 25.726756,13.777852 27.419925,14.73369 C 29.114289,15.691918 32.578243,19.314803 35.186058,22.3828 C 37.795068,25.454377 39.519283,28.272971 39.66257,28.799222 C 39.804663,29.327858 38.585532,27.994931 37.369985,26.662006 C 36.152049,25.32908 33.034371,21.63937 32.919742,21.858937 C 32.805113,22.077313 33.976481,23.562983 36.626089,26.551028 C 39.275697,29.539073 41.521714,33.36482 41.879929,34.072452 C 42.23934,34.782471 43.118164,37.957866 43.106224,38.510369 C 43.095477,39.064063 41.877541,41.523472 41.401113,41.896977 C 40.923492,42.27645 41.951573,39.121343 42.154563,38.465022 C 42.362328,37.806315 41.975454,37.012765 41.977842,36.28246 C 41.975454,35.552156 41.567088,34.468632 41.439323,34.713259 C 41.313948,34.960274 41.823809,37.177442 41.676941,38.250226 C 41.53246,39.320625 40.429153,42.22633 40.49005,40.380284 C 40.554529,38.530654 40.224969,36.967421 40.150938,36.442363 C 40.078101,35.914921 39.420177,35.046192 38.913898,34.153598 C 38.402842,33.264582 37.605214,32.393466 36.653552,30.885126 C 35.703084,29.376784 35.28397,29.576065 34.861276,29.318311 C 34.43858,29.062943 33.783044,28.055791 32.569885,27.042671 C 31.3615,26.024779 30.234313,24.388753 29.620569,23.962741 C 29.00563,23.539117 28.863538,23.015255 28.752491,22.362515 C 28.660549,21.821945 28.770402,21.496172 28.784731,20.694268 C 28.799059,19.889979 28.967421,19.472319 28.959062,18.907886 C 28.951898,18.345837 28.436066,17.87448 28.16024,17.527227 C 27.886801,17.183555 27.214548,16.626279 27.546496,17.054677 C 27.880831,17.481882 28.464724,18.49858 28.235465,18.936524 C 28.006206,19.372082 26.253334,17.491427 24.851514,16.102417 C 23.452081,14.708631 21.410248,12.120345 19.58215,11.059492 C 17.752858,10.003416 15.871028,8.5618976 14.940859,7.8184674 C 14.009496,7.0798092 12.89186,6.6955626 11.337202,5.9831585 C 10.200462,5.3292241 7.4899574,4.1025039 7.0123354,2.96528 C 6.5323254,1.8280565 7.7192154,1.5046698 9.3729814,1.4891568 L 9.3729814,1.4891568 C 8.5538604,1.4271048 7.9460864,1.4652907 7.5627944,1.5512088 C 5.9914184,1.8984618 5.1090114,1.7254319 4.5800454,1.6884393 C 4.7340784,2.1395102 4.8081104,2.4402239 4.5036254,2.6287667 C 4.1048114,2.8793618 3.7000274,2.9020346 3.6486824,3.2075223 C 3.6009204,3.5118148 3.8289854,3.6168272 3.8898814,5.3626379 C 3.9065984,5.8316071 3.4230064,4.6311396 3.3465864,4.3865114 C 3.2415104,4.0571582 2.8570244,9.0726349 2.8247844,9.9879015 C 2.7841874,15.337506 3.6809224,23.24437 11.158093,33.431646 C 18.611384,43.59267 27.386492,47.368298 32.903025,47.444671 C 35.069041,47.414838 36.156825,45.905301 38.099552,44.776432 z M 27.610975,22.154879 C 27.867696,22.442466 27.973967,23.105945 27.990684,23.267042 C 28.0074,23.428139 27.536944,23.938876 27.115442,23.771813 C 26.699911,23.602362 26.492146,24.003314 26.289156,23.997348 C 26.088555,23.993768 26.483787,23.337448 26.348858,23.01406 C 26.21393,22.691868 26.092137,22.728861 26.321395,22.392347 C 26.570953,22.018842 27.355447,21.868485 27.610975,22.154879 z M 18.462126,26.64172 C 18.075253,25.732418 16.416711,23.188284 15.769533,22.294496 C 15.123549,21.397127 15.308628,22.304042 15.560573,22.789719 C 15.811325,23.277783 17.749276,26.064158 17.899726,26.549835 C 18.052566,27.035512 17.401805,27.405438 17.241802,27.320712 C 17.081799,27.238374 15.696695,25.14173 14.753393,23.938876 C 13.812477,22.738407 13.596354,21.406674 12.706782,20.586871 C 11.818405,19.767067 11.813629,21.034362 11.138988,19.610745 C 10.460765,18.197867 9.3932804,15.202661 8.9884964,14.331547 C 8.5813234,13.46043 9.8959774,13.083345 10.477482,13.134658 C 11.057793,13.185969 12.110949,13.787398 12.678125,14.743238 C 13.242913,15.697883 13.279929,14.856602 14.299652,16.098837 C 14.78802,16.712197 15.166535,17.05945 15.039965,17.200261 C 14.918172,17.333911 14.253084,17.54274 13.738446,17.071384 C 13.222614,16.602413 13.273958,17.185941 13.747998,17.638205 C 14.220844,18.088081 15.309822,17.946078 15.588036,18.092855 C 15.866252,18.239633 17.211951,19.246784 18.120627,20.228878 C 19.02572,21.208585 21.453234,23.546276 22.616244,24.710946 C 23.779253,25.879194 24.6533,26.537902 25.195401,28.597552 C 25.73989,30.656009 26.767972,34.691779 27.349476,35.807525 C 27.932175,36.92446 28.037252,37.78961 28.284422,38.474568 C 28.533979,39.163108 29.355489,41.365957 29.588329,41.79316 C 29.786543,42.157119 28.726222,42.763321 28.60801,42.700074 C 28.489799,42.636829 24.935098,41.383855 24.644942,40.775267 C 24.353593,40.169068 23.698057,38.811081 23.117747,37.595099 C 22.537436,36.377925 20.573215,32.868403 19.814991,31.608271 C 19.054377,30.346942 17.98928,28.319511 18.133762,28.042664 C 18.28063,27.762236 18.847806,27.552214 18.462126,26.64172 z M 9.6631374,11.804119 C 9.0314824,11.785024 8.7126694,12.660914 8.4475894,12.355427 C 7.6141384,11.374527 7.3323414,9.8327726 7.1783084,9.1382657 C 7.0242754,8.4366013 7.7622014,9.0607018 8.2457934,9.31249 C 8.7293864,9.5666647 9.5640314,10.54637 9.9377694,11.049947 C 10.315091,11.552329 10.290016,11.825598 9.6631374,11.804119 z M 5.4755864,3.4211234 C 6.1956014,3.7958223 7.5245844,5.707503 8.2565404,6.2480719 C 8.9908844,6.7814821 10.021353,6.4616753 10.896595,6.9187126 C 11.770643,7.3781364 14.944441,8.6812297 16.829853,9.9234641 C 18.714072,11.164505 20.657993,12.584542 21.333828,12.937761 C 22.009664,13.292175 24.065825,16.142989 24.434789,16.793342 C 24.803752,17.442502 26.724986,19.004544 27.216937,19.516473 C 27.708887,20.027208 27.516645,20.684722 27.487986,21.230064 C 27.455747,21.77302 26.550654,21.676361 26.093331,21.56419 C 25.731532,21.479466 25.576305,21.292116 25.28615,20.78496 C 24.9948,20.276611 22.831173,17.627466 21.936827,17.108376 C 21.041285,16.5869 18.933778,14.419851 18.476455,14.13107 C 18.019133,13.84229 14.816677,12.111992 16.282976,13.285015 C 17.749276,14.458037 19.194083,15.471156 21.311141,17.336297 C 23.425812,19.205018 25.103459,21.907864 25.351823,22.598789 C 25.598992,23.281363 25.5572,24.426938 25.467646,24.988987 C 25.37451,25.548649 24.827633,25.721679 24.492103,25.590415 C 24.151798,25.46631 22.027575,23.034347 20.826356,21.750347 C 19.623941,20.459187 17.184488,17.762309 15.443556,16.343465 C 13.70143,14.92462 12.534839,12.793372 12.125278,12.22297 C 11.712134,11.652567 10.165834,9.4771666 9.5903004,9.1251404 C 9.0147654,8.7707278 7.2272654,7.6323101 6.6779994,6.9389976 C 6.1299284,6.2468797 5.6678294,5.0929489 5.3012544,4.342359 C 4.9299034,3.5905744 4.7615414,3.0452317 5.4755864,3.4211234 z M 14.54682,33.837371 C 13.12709,32.080821 12.746186,29.671529 11.835122,28.751488 C 11.481682,28.395884 12.83574,32.879143 11.805271,31.706122 C 10.775996,30.536679 9.3944744,29.181081 9.3455184,27.830255 C 9.2965624,26.474657 7.8816074,24.469897 7.0493504,22.073734 C 6.2170944,19.678763 4.2934724,14.055892 4.0080934,11.825598 C 3.7274904,9.5881443 4.9740834,7.3304029 5.4385704,7.8948391 C 5.9030584,8.4521143 6.0463444,11.436579 7.5830934,15.020085 C 9.1198424,18.608363 9.9138884,20.350596 10.918088,21.57135 C 11.922289,22.790913 11.352725,21.103574 14.605329,25.399485 C 17.092546,28.683471 20.798892,34.579608 21.910556,36.682219 C 22.840725,38.437577 23.84612,40.349256 22.790575,40.430401 C 21.739807,40.510353 17.086576,36.976966 14.54682,33.837371 z M 29.46773,46.667826 C 28.224719,46.447064 26.573341,45.937521 23.434171,43.435153 C 22.650871,42.813439 21.806674,41.998409 22.041903,41.994829 C 23.207301,41.957837 26.627073,42.533011 27.243206,42.857593 C 27.860532,43.180978 29.504745,44.825358 31.580013,45.913657 C 33.661251,47.000759 30.713129,46.888589 29.46773,46.667826 z M 31.569267,40.049736 C 32.075546,40.710829 34.458879,43.990042 34.397982,44.482878 C 34.334698,44.976908 32.851681,45.676186 32.07077,45.16545 C 31.287469,44.654715 30.414616,43.314628 30.341778,43.013916 C 30.267746,42.715588 30.800295,42.141606 30.636709,41.826572 C 30.473124,41.510345 30.196103,41.325383 30.196103,41.325383 C 28.333378,37.77529 29.071303,37.731137 28.439648,36.613006 C 27.807994,35.498456 26.802599,32.158386 26.616327,31.083214 C 26.459906,30.195392 25.471228,26.200196 26.237811,24.862496 C 27.006783,23.524797 27.251564,24.308801 27.664707,24.460351 C 28.077851,24.609515 28.736969,24.663214 29.158469,24.424552 C 29.578777,24.184697 30.338196,25.432898 30.886267,25.9496 C 31.433145,26.46869 33.337662,28.286099 34.333504,29.395876 C 35.323375,30.505653 34.7156,29.037883 36.451757,31.42092 C 38.186719,33.805151 39.034497,35.00562 39.408236,35.920888 C 39.781975,36.838541 40.301389,38.290799 40.037503,41.171446 C 39.774811,44.047322 39.393908,41.455453 39.35928,40.586725 C 39.324653,39.714417 39.380773,38.791988 38.089999,36.807517 C 36.801614,34.82185 35.863087,33.607062 34.162753,32.158386 C 32.460031,30.708515 33.843941,32.448358 34.393206,32.901817 C 34.946054,33.35408 36.118615,34.496077 37.482225,36.587947 C 38.850613,38.678624 38.560457,38.793182 38.689416,39.54616 C 38.817179,40.302717 38.78494,41.365957 38.540158,41.272877 C 38.294183,41.178605 38.008804,40.468587 36.724001,38.974564 C 35.439198,37.481735 33.047506,34.784859 31.765091,33.788445 C 30.483871,32.788452 29.157275,32.061726 29.268323,32.413753 C 29.37937,32.766972 30.254612,33.097519 30.956717,33.888683 C 31.656432,34.683426 32.772874,35.432824 33.639757,36.472196 C 34.503059,37.516342 37.83686,40.737082 38.12821,41.678603 C 38.424335,42.61893 38.473291,42.77406 38.284631,43.136826 C 38.09597,43.496012 37.69238,44.203644 37.209981,44.247797 C 36.729971,44.288368 35.620694,43.774053 34.980681,43.178592 C 34.343056,42.581937 32.294058,40.228732 31.834346,39.726349 C 31.375829,39.226353 31.058211,39.392223 31.569267,40.049736 z " />
    <path
       style="fill:url(#SVGID_95_)"
       id="path6883"
       d="M 41.164346,43.523913 C 41.768538,42.83418 42.33452,42.093137 42.839605,41.300778 C 41.160764,43.521526 40.075368,43.256611 38.07652,44.418894 C 36.133793,45.547763 35.046009,47.0573 32.879993,47.084746 C 33.863895,47.099067 34.759436,47.009567 35.509302,46.798351 C 37.918905,46.128905 39.471176,45.455879 41.164346,43.523913 z " />
  </g>
</svg>
