<?xml version="1.0" encoding="UTF-8" standalone="no"?>
<!-- Created with Inkscape (http://www.inkscape.org/) -->
<svg
   xmlns:dc="http://purl.org/dc/elements/1.1/"
   xmlns:cc="http://web.resource.org/cc/"
   xmlns:rdf="http://www.w3.org/1999/02/22-rdf-syntax-ns#"
   xmlns:svg="http://www.w3.org/2000/svg"
   xmlns="http://www.w3.org/2000/svg"
   xmlns:sodipodi="http://sodipodi.sourceforge.net/DTD/sodipodi-0.dtd"
   xmlns:inkscape="http://www.inkscape.org/namespaces/inkscape"
   width="48px"
   height="48px"
   id="svg13017"
   sodipodi:version="0.32"
   inkscape:version="0.45.1"
   sodipodi:docbase="C:\dev\src\houdini\support\icons\SHELF"
   sodipodi:docname="tree_branch.svg"
   inkscape:output_extension="org.inkscape.output.svg.inkscape">
  <defs
     id="defs13019">
    <linearGradient
       id="SVGID_113_"
       gradientUnits="userSpaceOnUse"
       x1="433.0474"
       y1="176.7847"
       x2="434.8009"
       y2="179.3924"
       gradientTransform="matrix(0.9997,-2.34e-2,2.34e-2,0.9997,-109.8835,16.3628)">
		<stop
   offset="0"
   style="stop-color:#8EE361"
   id="stop7123" />

		<stop
   offset="0.489"
   style="stop-color:#4C9C23"
   id="stop7125" />

		<stop
   offset="0.5549"
   style="stop-color:#4C9C23"
   id="stop7127" />

	</linearGradient>
    <linearGradient
       id="SVGID_112_"
       gradientUnits="userSpaceOnUse"
       x1="432.0366"
       y1="178.877"
       x2="433.9787"
       y2="179.7685"
       gradientTransform="matrix(0.9997,-2.34e-2,2.34e-2,0.9997,-109.8835,16.3628)">
		<stop
   offset="0"
   style="stop-color:#83D857"
   id="stop7116" />

		<stop
   offset="0.7637"
   style="stop-color:#5DAE33"
   id="stop7118" />

	</linearGradient>
    <linearGradient
       id="SVGID_111_"
       gradientUnits="userSpaceOnUse"
       x1="431.1714"
       y1="179.8569"
       x2="433.8597"
       y2="180.9322"
       gradientTransform="matrix(0.9997,-2.34e-2,2.34e-2,0.9997,-109.8835,16.3628)">
		<stop
   offset="0"
   style="stop-color:#8EE361"
   id="stop7103" />

		<stop
   offset="0.1415"
   style="stop-color:#86DA5A"
   id="stop7105" />

		<stop
   offset="0.3672"
   style="stop-color:#71C345"
   id="stop7107" />

		<stop
   offset="0.6477"
   style="stop-color:#4E9E25"
   id="stop7109" />

		<stop
   offset="0.6593"
   style="stop-color:#4C9C23"
   id="stop7111" />

	</linearGradient>
    <linearGradient
       id="SVGID_110_"
       gradientUnits="userSpaceOnUse"
       x1="432.8149"
       y1="176.9453"
       x2="434.5643"
       y2="179.5467"
       gradientTransform="matrix(0.9997,-2.34e-2,2.34e-2,0.9997,-109.8835,16.3628)">
		<stop
   offset="0"
   style="stop-color:#8EE361"
   id="stop7090" />

		<stop
   offset="0.489"
   style="stop-color:#4C9C23"
   id="stop7092" />

		<stop
   offset="0.5549"
   style="stop-color:#4C9C23"
   id="stop7094" />

		<stop
   offset="0.7149"
   style="stop-color:#61B237"
   id="stop7096" />

		<stop
   offset="1"
   style="stop-color:#8EE361"
   id="stop7098" />

	</linearGradient>
    <linearGradient
       id="SVGID_109_"
       gradientUnits="userSpaceOnUse"
       x1="431.8911"
       y1="177.5688"
       x2="433.6391"
       y2="180.1682"
       gradientTransform="matrix(0.9997,-2.34e-2,2.34e-2,0.9997,-109.8835,16.3628)">
		<stop
   offset="0"
   style="stop-color:#8EE361"
   id="stop7077" />

		<stop
   offset="0.489"
   style="stop-color:#4C9C23"
   id="stop7079" />

		<stop
   offset="0.5549"
   style="stop-color:#4C9C23"
   id="stop7081" />

		<stop
   offset="0.7149"
   style="stop-color:#61B237"
   id="stop7083" />

		<stop
   offset="1"
   style="stop-color:#8EE361"
   id="stop7085" />

	</linearGradient>
    <linearGradient
       id="SVGID_108_"
       gradientUnits="userSpaceOnUse"
       x1="430.8394"
       y1="178.2749"
       x2="432.5884"
       y2="180.8759"
       gradientTransform="matrix(0.9997,-2.34e-2,2.34e-2,0.9997,-109.8835,16.3628)">
		<stop
   offset="0"
   style="stop-color:#8EE361"
   id="stop7064" />

		<stop
   offset="0.489"
   style="stop-color:#4C9C23"
   id="stop7066" />

		<stop
   offset="0.5549"
   style="stop-color:#4C9C23"
   id="stop7068" />

		<stop
   offset="0.7149"
   style="stop-color:#61B237"
   id="stop7070" />

		<stop
   offset="1"
   style="stop-color:#8EE361"
   id="stop7072" />

	</linearGradient>
    <linearGradient
       id="SVGID_107_"
       gradientUnits="userSpaceOnUse"
       x1="430.0161"
       y1="181.167"
       x2="435.4725"
       y2="177.5154"
       gradientTransform="matrix(0.9997,-2.34e-2,2.34e-2,0.9997,-109.8835,16.3628)">
		<stop
   offset="0"
   style="stop-color:#4C9C23"
   id="stop7051" />

		<stop
   offset="0.0276"
   style="stop-color:#61B237"
   id="stop7053" />

		<stop
   offset="0.0769"
   style="stop-color:#8EE361"
   id="stop7055" />

		<stop
   offset="0.6209"
   style="stop-color:#4C9C23"
   id="stop7057" />

		<stop
   offset="1"
   style="stop-color:#4C9C23"
   id="stop7059" />

	</linearGradient>
    <linearGradient
       id="SVGID_106_"
       gradientUnits="userSpaceOnUse"
       x1="432.0103"
       y1="177.4697"
       x2="433.1459"
       y2="179.1586"
       gradientTransform="matrix(0.9997,-2.34e-2,2.34e-2,0.9997,-109.8835,16.3628)">
		<stop
   offset="0"
   style="stop-color:#74D43F"
   id="stop7034" />

		<stop
   offset="0.3162"
   style="stop-color:#57B425"
   id="stop7036" />

		<stop
   offset="0.6209"
   style="stop-color:#389109"
   id="stop7038" />

		<stop
   offset="0.7811"
   style="stop-color:#458C1F"
   id="stop7040" />

		<stop
   offset="0.7857"
   style="stop-color:#458C20"
   id="stop7042" />

		<stop
   offset="0.8807"
   style="stop-color:#57A22F"
   id="stop7044" />

		<stop
   offset="1"
   style="stop-color:#71C446"
   id="stop7046" />

	</linearGradient>
    <linearGradient
       id="SVGID_105_"
       gradientUnits="userSpaceOnUse"
       x1="433.0083"
       y1="178.9761"
       x2="433.9128"
       y2="180.1775"
       gradientTransform="matrix(0.9997,-2.34e-2,2.34e-2,0.9997,-109.8835,16.3628)">
		<stop
   offset="0"
   style="stop-color:#4C9C23"
   id="stop7017" />

		<stop
   offset="0.0824"
   style="stop-color:#4C9C23"
   id="stop7019" />

		<stop
   offset="0.153"
   style="stop-color:#58A628"
   id="stop7021" />

		<stop
   offset="0.4032"
   style="stop-color:#7DC438"
   id="stop7023" />

		<stop
   offset="0.6357"
   style="stop-color:#98D944"
   id="stop7025" />

		<stop
   offset="0.8418"
   style="stop-color:#A8E64B"
   id="stop7027" />

		<stop
   offset="1"
   style="stop-color:#AEEB4D"
   id="stop7029" />

	</linearGradient>
    <linearGradient
       id="SVGID_114_"
       gradientUnits="userSpaceOnUse"
       x1="320.8823"
       y1="187.7451"
       x2="291.1737"
       y2="209.091"
       gradientTransform="matrix(1.0303124,0,0,1.0303124,-298.1572,-177.55718)">
	<stop
   offset="0"
   style="stop-color:#664B33"
   id="stop7132" />

	<stop
   offset="0.481"
   style="stop-color:#57402C"
   id="stop7134" />

	<stop
   offset="1"
   style="stop-color:#4C3826"
   id="stop7136" />

</linearGradient>
    <radialGradient
       id="SVGID_115_"
       cx="311.6753"
       cy="192.9028"
       r="26.4923"
       gradientUnits="userSpaceOnUse"
       gradientTransform="matrix(1.0303124,0,0,1.0303124,-298.1572,-177.55718)">
	<stop
   offset="0"
   style="stop-color:#80644C"
   id="stop7141" />

	<stop
   offset="0.1519"
   style="stop-color:#8A6C52"
   id="stop7143" />

	<stop
   offset="0.6938"
   style="stop-color:#A88464"
   id="stop7145" />

	<stop
   offset="1"
   style="stop-color:#B38D6B"
   id="stop7147" />

</radialGradient>
    <linearGradient
       id="SVGID_124_"
       gradientUnits="userSpaceOnUse"
       x1="-4938.0083"
       y1="4803.4614"
       x2="-4936.6333"
       y2="4805.5063"
       gradientTransform="matrix(8.53e-2,0.9964,-0.9964,8.53e-2,5529.9956,4708.1406)">
		<stop
   offset="0"
   style="stop-color:#8EE361"
   id="stop7268" />

		<stop
   offset="0.489"
   style="stop-color:#4C9C23"
   id="stop7270" />

		<stop
   offset="0.5549"
   style="stop-color:#4C9C23"
   id="stop7272" />

	</linearGradient>
    <linearGradient
       id="SVGID_123_"
       gradientUnits="userSpaceOnUse"
       x1="-4938.8022"
       y1="4805.103"
       x2="-4937.2773"
       y2="4805.8027"
       gradientTransform="matrix(8.53e-2,0.9964,-0.9964,8.53e-2,5529.9956,4708.1406)">
		<stop
   offset="0"
   style="stop-color:#83D857"
   id="stop7261" />

		<stop
   offset="0.7637"
   style="stop-color:#5DAE33"
   id="stop7263" />

	</linearGradient>
    <linearGradient
       id="SVGID_122_"
       gradientUnits="userSpaceOnUse"
       x1="-4939.48"
       y1="4805.8696"
       x2="-4937.3701"
       y2="4806.7134"
       gradientTransform="matrix(8.53e-2,0.9964,-0.9964,8.53e-2,5529.9956,4708.1406)">
		<stop
   offset="0"
   style="stop-color:#8EE361"
   id="stop7248" />

		<stop
   offset="0.1415"
   style="stop-color:#86DA5A"
   id="stop7250" />

		<stop
   offset="0.3672"
   style="stop-color:#71C345"
   id="stop7252" />

		<stop
   offset="0.6477"
   style="stop-color:#4E9E25"
   id="stop7254" />

		<stop
   offset="0.6593"
   style="stop-color:#4C9C23"
   id="stop7256" />

	</linearGradient>
    <linearGradient
       id="SVGID_121_"
       gradientUnits="userSpaceOnUse"
       x1="-4938.1909"
       y1="4803.5874"
       x2="-4936.8188"
       y2="4805.6274"
       gradientTransform="matrix(8.53e-2,0.9964,-0.9964,8.53e-2,5529.9956,4708.1406)">
		<stop
   offset="0"
   style="stop-color:#8EE361"
   id="stop7235" />

		<stop
   offset="0.489"
   style="stop-color:#4C9C23"
   id="stop7237" />

		<stop
   offset="0.5549"
   style="stop-color:#4C9C23"
   id="stop7239" />

		<stop
   offset="0.7149"
   style="stop-color:#61B237"
   id="stop7241" />

		<stop
   offset="1"
   style="stop-color:#8EE361"
   id="stop7243" />

	</linearGradient>
    <linearGradient
       id="SVGID_120_"
       gradientUnits="userSpaceOnUse"
       x1="-4938.9146"
       y1="4804.0757"
       x2="-4937.5444"
       y2="4806.1133"
       gradientTransform="matrix(8.53e-2,0.9964,-0.9964,8.53e-2,5529.9956,4708.1406)">
		<stop
   offset="0"
   style="stop-color:#8EE361"
   id="stop7222" />

		<stop
   offset="0.489"
   style="stop-color:#4C9C23"
   id="stop7224" />

		<stop
   offset="0.5549"
   style="stop-color:#4C9C23"
   id="stop7226" />

		<stop
   offset="0.7149"
   style="stop-color:#61B237"
   id="stop7228" />

		<stop
   offset="1"
   style="stop-color:#8EE361"
   id="stop7230" />

	</linearGradient>
    <linearGradient
       id="SVGID_119_"
       gradientUnits="userSpaceOnUse"
       x1="-4939.7397"
       y1="4804.6304"
       x2="-4938.3677"
       y2="4806.6709"
       gradientTransform="matrix(8.53e-2,0.9964,-0.9964,8.53e-2,5529.9956,4708.1406)">
		<stop
   offset="0"
   style="stop-color:#8EE361"
   id="stop7209" />

		<stop
   offset="0.489"
   style="stop-color:#4C9C23"
   id="stop7211" />

		<stop
   offset="0.5549"
   style="stop-color:#4C9C23"
   id="stop7213" />

		<stop
   offset="0.7149"
   style="stop-color:#61B237"
   id="stop7215" />

		<stop
   offset="1"
   style="stop-color:#8EE361"
   id="stop7217" />

	</linearGradient>
    <linearGradient
       id="SVGID_118_"
       gradientUnits="userSpaceOnUse"
       x1="-4940.3853"
       y1="4806.8979"
       x2="-4936.1055"
       y2="4804.0337"
       gradientTransform="matrix(8.53e-2,0.9964,-0.9964,8.53e-2,5529.9956,4708.1406)">
		<stop
   offset="0"
   style="stop-color:#4C9C23"
   id="stop7196" />

		<stop
   offset="0.0276"
   style="stop-color:#61B237"
   id="stop7198" />

		<stop
   offset="0.0769"
   style="stop-color:#8EE361"
   id="stop7200" />

		<stop
   offset="0.6209"
   style="stop-color:#4C9C23"
   id="stop7202" />

		<stop
   offset="1"
   style="stop-color:#4C9C23"
   id="stop7204" />

	</linearGradient>
    <linearGradient
       id="SVGID_117_"
       gradientUnits="userSpaceOnUse"
       x1="-4938.8213"
       y1="4803.9995"
       x2="-4937.9312"
       y2="4805.3228"
       gradientTransform="matrix(8.53e-2,0.9964,-0.9964,8.53e-2,5529.9956,4708.1406)">
		<stop
   offset="0"
   style="stop-color:#74D43F"
   id="stop7179" />

		<stop
   offset="0.3162"
   style="stop-color:#57B425"
   id="stop7181" />

		<stop
   offset="0.6209"
   style="stop-color:#389109"
   id="stop7183" />

		<stop
   offset="0.7811"
   style="stop-color:#458C1F"
   id="stop7185" />

		<stop
   offset="0.7857"
   style="stop-color:#458C20"
   id="stop7187" />

		<stop
   offset="0.8807"
   style="stop-color:#57A22F"
   id="stop7189" />

		<stop
   offset="1"
   style="stop-color:#71C446"
   id="stop7191" />

	</linearGradient>
    <linearGradient
       id="SVGID_116_"
       gradientUnits="userSpaceOnUse"
       x1="-4938.0386"
       y1="4805.1792"
       x2="-4937.3291"
       y2="4806.1216"
       gradientTransform="matrix(8.53e-2,0.9964,-0.9964,8.53e-2,5529.9956,4708.1406)">
		<stop
   offset="0"
   style="stop-color:#4C9C23"
   id="stop7162" />

		<stop
   offset="0.0824"
   style="stop-color:#4C9C23"
   id="stop7164" />

		<stop
   offset="0.153"
   style="stop-color:#58A628"
   id="stop7166" />

		<stop
   offset="0.4032"
   style="stop-color:#7DC438"
   id="stop7168" />

		<stop
   offset="0.6357"
   style="stop-color:#98D944"
   id="stop7170" />

		<stop
   offset="0.8418"
   style="stop-color:#A8E64B"
   id="stop7172" />

		<stop
   offset="1"
   style="stop-color:#AEEB4D"
   id="stop7174" />

	</linearGradient>
    <linearGradient
       id="SVGID_133_"
       gradientUnits="userSpaceOnUse"
       x1="4761.103"
       y1="2937.4351"
       x2="4761.7769"
       y2="2938.437"
       gradientTransform="matrix(-0.4481,-0.894,-0.894,0.4481,5066.8096,3122.3411)">
		<stop
   offset="0"
   style="stop-color:#8EE361"
   id="stop7391" />

		<stop
   offset="0.489"
   style="stop-color:#4C9C23"
   id="stop7393" />

		<stop
   offset="0.5549"
   style="stop-color:#4C9C23"
   id="stop7395" />

	</linearGradient>
    <linearGradient
       id="SVGID_132_"
       gradientUnits="userSpaceOnUse"
       x1="4760.7173"
       y1="2938.2388"
       x2="4761.4614"
       y2="2938.5803"
       gradientTransform="matrix(-0.4481,-0.894,-0.894,0.4481,5066.8096,3122.3411)">
		<stop
   offset="0"
   style="stop-color:#83D857"
   id="stop7384" />

		<stop
   offset="0.7637"
   style="stop-color:#5DAE33"
   id="stop7386" />

	</linearGradient>
    <linearGradient
       id="SVGID_131_"
       gradientUnits="userSpaceOnUse"
       x1="4760.3872"
       y1="2938.6147"
       x2="4761.416"
       y2="2939.0264"
       gradientTransform="matrix(-0.4481,-0.894,-0.894,0.4481,5066.8096,3122.3411)">
		<stop
   offset="0"
   style="stop-color:#8EE361"
   id="stop7371" />

		<stop
   offset="0.1415"
   style="stop-color:#86DA5A"
   id="stop7373" />

		<stop
   offset="0.3672"
   style="stop-color:#71C345"
   id="stop7375" />

		<stop
   offset="0.6477"
   style="stop-color:#4E9E25"
   id="stop7377" />

		<stop
   offset="0.6593"
   style="stop-color:#4C9C23"
   id="stop7379" />

	</linearGradient>
    <linearGradient
       id="SVGID_130_"
       gradientUnits="userSpaceOnUse"
       x1="4761.0142"
       y1="2937.4966"
       x2="4761.686"
       y2="2938.4956"
       gradientTransform="matrix(-0.4481,-0.894,-0.894,0.4481,5066.8096,3122.3411)">
		<stop
   offset="0"
   style="stop-color:#8EE361"
   id="stop7358" />

		<stop
   offset="0.489"
   style="stop-color:#4C9C23"
   id="stop7360" />

		<stop
   offset="0.5549"
   style="stop-color:#4C9C23"
   id="stop7362" />

		<stop
   offset="0.7149"
   style="stop-color:#61B237"
   id="stop7364" />

		<stop
   offset="1"
   style="stop-color:#8EE361"
   id="stop7366" />

	</linearGradient>
    <linearGradient
       id="SVGID_129_"
       gradientUnits="userSpaceOnUse"
       x1="4760.6626"
       y1="2937.7368"
       x2="4761.3306"
       y2="2938.73"
       gradientTransform="matrix(-0.4481,-0.894,-0.894,0.4481,5066.8096,3122.3411)">
		<stop
   offset="0"
   style="stop-color:#8EE361"
   id="stop7345" />

		<stop
   offset="0.489"
   style="stop-color:#4C9C23"
   id="stop7347" />

		<stop
   offset="0.5549"
   style="stop-color:#4C9C23"
   id="stop7349" />

		<stop
   offset="0.7149"
   style="stop-color:#61B237"
   id="stop7351" />

		<stop
   offset="1"
   style="stop-color:#8EE361"
   id="stop7353" />

	</linearGradient>
    <linearGradient
       id="SVGID_128_"
       gradientUnits="userSpaceOnUse"
       x1="4760.2583"
       y1="2938.0073"
       x2="4760.9277"
       y2="2939.0029"
       gradientTransform="matrix(-0.4481,-0.894,-0.894,0.4481,5066.8096,3122.3411)">
		<stop
   offset="0"
   style="stop-color:#8EE361"
   id="stop7332" />

		<stop
   offset="0.489"
   style="stop-color:#4C9C23"
   id="stop7334" />

		<stop
   offset="0.5549"
   style="stop-color:#4C9C23"
   id="stop7336" />

		<stop
   offset="0.7149"
   style="stop-color:#61B237"
   id="stop7338" />

		<stop
   offset="1"
   style="stop-color:#8EE361"
   id="stop7340" />

	</linearGradient>
    <linearGradient
       id="SVGID_127_"
       gradientUnits="userSpaceOnUse"
       x1="4759.9468"
       y1="2939.1147"
       x2="4762.0337"
       y2="2937.718"
       gradientTransform="matrix(-0.4481,-0.894,-0.894,0.4481,5066.8096,3122.3411)">
		<stop
   offset="0"
   style="stop-color:#4C9C23"
   id="stop7319" />

		<stop
   offset="0.0276"
   style="stop-color:#61B237"
   id="stop7321" />

		<stop
   offset="0.0769"
   style="stop-color:#8EE361"
   id="stop7323" />

		<stop
   offset="0.6209"
   style="stop-color:#4C9C23"
   id="stop7325" />

		<stop
   offset="1"
   style="stop-color:#4C9C23"
   id="stop7327" />

	</linearGradient>
    <linearGradient
       id="SVGID_126_"
       gradientUnits="userSpaceOnUse"
       x1="4760.7075"
       y1="2937.6997"
       x2="4761.1416"
       y2="2938.3455"
       gradientTransform="matrix(-0.4481,-0.894,-0.894,0.4481,5066.8096,3122.3411)">
		<stop
   offset="0"
   style="stop-color:#74D43F"
   id="stop7302" />

		<stop
   offset="0.3162"
   style="stop-color:#57B425"
   id="stop7304" />

		<stop
   offset="0.6209"
   style="stop-color:#389109"
   id="stop7306" />

		<stop
   offset="0.7811"
   style="stop-color:#458C1F"
   id="stop7308" />

		<stop
   offset="0.7857"
   style="stop-color:#458C20"
   id="stop7310" />

		<stop
   offset="0.8807"
   style="stop-color:#57A22F"
   id="stop7312" />

		<stop
   offset="1"
   style="stop-color:#71C446"
   id="stop7314" />

	</linearGradient>
    <linearGradient
       id="SVGID_125_"
       gradientUnits="userSpaceOnUse"
       x1="4761.0913"
       y1="2938.2769"
       x2="4761.438"
       y2="2938.7371"
       gradientTransform="matrix(-0.4481,-0.894,-0.894,0.4481,5066.8096,3122.3411)">
		<stop
   offset="0"
   style="stop-color:#4C9C23"
   id="stop7285" />

		<stop
   offset="0.0824"
   style="stop-color:#4C9C23"
   id="stop7287" />

		<stop
   offset="0.153"
   style="stop-color:#58A628"
   id="stop7289" />

		<stop
   offset="0.4032"
   style="stop-color:#7DC438"
   id="stop7291" />

		<stop
   offset="0.6357"
   style="stop-color:#98D944"
   id="stop7293" />

		<stop
   offset="0.8418"
   style="stop-color:#A8E64B"
   id="stop7295" />

		<stop
   offset="1"
   style="stop-color:#AEEB4D"
   id="stop7297" />

	</linearGradient>
  </defs>
  <sodipodi:namedview
     id="base"
     pagecolor="#ffffff"
     bordercolor="#666666"
     borderopacity="1.0"
     inkscape:pageopacity="0.0"
     inkscape:pageshadow="2"
     inkscape:zoom="7"
     inkscape:cx="24"
     inkscape:cy="24"
     inkscape:current-layer="layer1"
     showgrid="true"
     inkscape:grid-bbox="true"
     inkscape:document-units="px"
     inkscape:window-width="744"
     inkscape:window-height="573"
     inkscape:window-x="304"
     inkscape:window-y="111" />
  <metadata
     id="metadata13022">
    <rdf:RDF>
      <cc:Work
         rdf:about="">
        <dc:format>image/svg+xml</dc:format>
        <dc:type
           rdf:resource="http://purl.org/dc/dcmitype/StillImage" />
      </cc:Work>
    </rdf:RDF>
  </metadata>
  <g
     id="layer1"
     inkscape:label="Layer 1"
     inkscape:groupmode="layer">
    <g
       transform="matrix(1.0303124,0,0,1.0303124,-298.1572,-177.55718)"
       id="g7008">
	<g
   id="g7010">
		<path
   d="M 324.708,186.79 C 324.897,186.528 324.106,185.143 325.44,184.172 C 326.563,183.359 327.8,183.697 328.319,183.705 C 328.836,183.712 328.93,183.73 329.645,183.562 C 329.889,183.503 329.639,183.8 329.491,183.953 C 329.114,184.338 328.911,184.965 328.399,185.691 C 327.885,186.418 327.315,186.945 326.379,187.07 C 325.443,187.197 325.276,186.851 324.789,186.945"
   id="path7012"
   style="fill:none;stroke:#326617;stroke-width:0.77646351" />

		<path
   d="M 324.216,187.574 C 324.364,187.212 324.406,186.943 324.931,186.642 C 325.453,186.341 327.332,185.107 327.771,184.849 C 328.209,184.588 329.375,183.843 329.498,183.751 C 329.621,183.659 329.678,183.508 329.733,183.566 C 329.765,183.602 329.751,183.646 329.541,183.792 C 329.329,183.939 327.21,185.262 326.881,185.508 C 326.551,185.755 325.408,186.439 325.096,186.698 C 324.783,186.956 324.643,187.036 324.525,187.262 C 324.406,187.489 324.346,187.602 324.335,187.642 C 324.32,187.68 324.177,187.667 324.216,187.574 z "
   id="path7014"
   style="fill:none;stroke:#326617;stroke-width:0.67940557" />

	</g>

	
		<linearGradient
   id="linearGradient13197"
   gradientUnits="userSpaceOnUse"
   x1="433.0083"
   y1="178.9761"
   x2="433.91281"
   y2="180.17751"
   gradientTransform="matrix(0.9997,-2.34e-2,2.34e-2,0.9997,-109.8835,16.3628)">
		<stop
   offset="0"
   style="stop-color:#4C9C23"
   id="stop13199" />

		<stop
   offset="0.0824"
   style="stop-color:#4C9C23"
   id="stop13201" />

		<stop
   offset="0.153"
   style="stop-color:#58A628"
   id="stop13203" />

		<stop
   offset="0.4032"
   style="stop-color:#7DC438"
   id="stop13205" />

		<stop
   offset="0.6357"
   style="stop-color:#98D944"
   id="stop13207" />

		<stop
   offset="0.8418"
   style="stop-color:#A8E64B"
   id="stop13209" />

		<stop
   offset="1"
   style="stop-color:#AEEB4D"
   id="stop13211" />

	</linearGradient>

	<path
   d="M 325.015,186.684 L 329.492,183.785 L 329.716,183.556 C 329.83,183.577 329.623,183.822 329.492,183.953 C 329.115,184.338 328.912,184.965 328.4,185.691 C 327.886,186.418 327.316,186.945 326.38,187.07 C 325.444,187.197 325.277,186.851 324.79,186.945 L 325.015,186.684 z "
   id="path7031"
   style="fill:url(#SVGID_105_)" />

	
		<linearGradient
   id="linearGradient13214"
   gradientUnits="userSpaceOnUse"
   x1="432.01031"
   y1="177.4697"
   x2="433.1459"
   y2="179.1586"
   gradientTransform="matrix(0.9997,-2.34e-2,2.34e-2,0.9997,-109.8835,16.3628)">
		<stop
   offset="0"
   style="stop-color:#74D43F"
   id="stop13216" />

		<stop
   offset="0.3162"
   style="stop-color:#57B425"
   id="stop13218" />

		<stop
   offset="0.6209"
   style="stop-color:#389109"
   id="stop13220" />

		<stop
   offset="0.7811"
   style="stop-color:#458C1F"
   id="stop13222" />

		<stop
   offset="0.7857"
   style="stop-color:#458C20"
   id="stop13224" />

		<stop
   offset="0.8807"
   style="stop-color:#57A22F"
   id="stop13226" />

		<stop
   offset="1"
   style="stop-color:#71C446"
   id="stop13228" />

	</linearGradient>

	<path
   d="M 329.548,183.76 L 325.14,186.563 L 324.708,186.791 C 324.897,186.529 324.106,185.144 325.44,184.173 C 326.563,183.36 327.8,183.698 328.319,183.706 C 328.836,183.713 328.93,183.731 329.645,183.563 C 329.675,183.555 329.698,183.553 329.714,183.556 L 329.548,183.76 z "
   id="path7048"
   style="fill:url(#SVGID_106_)" />

	
		<linearGradient
   id="linearGradient13231"
   gradientUnits="userSpaceOnUse"
   x1="430.01611"
   y1="181.16701"
   x2="435.4725"
   y2="177.5154"
   gradientTransform="matrix(0.9997,-2.34e-2,2.34e-2,0.9997,-109.8835,16.3628)">
		<stop
   offset="0"
   style="stop-color:#4C9C23"
   id="stop13233" />

		<stop
   offset="0.0276"
   style="stop-color:#61B237"
   id="stop13235" />

		<stop
   offset="0.0769"
   style="stop-color:#8EE361"
   id="stop13237" />

		<stop
   offset="0.6209"
   style="stop-color:#4C9C23"
   id="stop13239" />

		<stop
   offset="1"
   style="stop-color:#4C9C23"
   id="stop13241" />

	</linearGradient>

	<path
   d="M 324.216,187.574 C 324.364,187.212 324.406,186.943 324.931,186.642 C 325.453,186.341 327.332,185.107 327.771,184.849 C 328.209,184.588 329.375,183.843 329.498,183.751 C 329.621,183.659 329.678,183.508 329.733,183.566 C 329.765,183.602 329.751,183.646 329.541,183.792 C 329.329,183.939 327.21,185.262 326.881,185.508 C 326.551,185.755 325.408,186.439 325.096,186.698 C 324.783,186.956 324.643,187.036 324.525,187.262 C 324.406,187.489 324.346,187.602 324.335,187.642 C 324.32,187.68 324.177,187.667 324.216,187.574 z "
   id="path7061"
   style="fill:url(#SVGID_107_)" />

	
		<linearGradient
   id="linearGradient13244"
   gradientUnits="userSpaceOnUse"
   x1="430.83939"
   y1="178.2749"
   x2="432.58841"
   y2="180.8759"
   gradientTransform="matrix(0.9997,-2.34e-2,2.34e-2,0.9997,-109.8835,16.3628)">
		<stop
   offset="0"
   style="stop-color:#8EE361"
   id="stop13246" />

		<stop
   offset="0.489"
   style="stop-color:#4C9C23"
   id="stop13248" />

		<stop
   offset="0.5549"
   style="stop-color:#4C9C23"
   id="stop13250" />

		<stop
   offset="0.7149"
   style="stop-color:#61B237"
   id="stop13252" />

		<stop
   offset="1"
   style="stop-color:#8EE361"
   id="stop13254" />

	</linearGradient>

	<path
   d="M 325.586,186.238 C 325.71,185.586 325.406,185.305 325.548,184.378 C 325.475,185.103 325.696,185.571 325.667,186.188 L 325.586,186.238 z "
   id="path7074"
   style="fill:url(#SVGID_108_)" />

	
		<linearGradient
   id="linearGradient13257"
   gradientUnits="userSpaceOnUse"
   x1="431.89111"
   y1="177.5688"
   x2="433.6391"
   y2="180.1682"
   gradientTransform="matrix(0.9997,-2.34e-2,2.34e-2,0.9997,-109.8835,16.3628)">
		<stop
   offset="0"
   style="stop-color:#8EE361"
   id="stop13259" />

		<stop
   offset="0.489"
   style="stop-color:#4C9C23"
   id="stop13261" />

		<stop
   offset="0.5549"
   style="stop-color:#4C9C23"
   id="stop13263" />

		<stop
   offset="0.7149"
   style="stop-color:#61B237"
   id="stop13265" />

		<stop
   offset="1"
   style="stop-color:#8EE361"
   id="stop13267" />

	</linearGradient>

	<path
   d="M 326.705,185.523 C 326.848,185.098 326.596,184.484 326.63,183.814 C 326.648,184.388 326.897,185.102 326.768,185.482 L 326.705,185.523 z "
   id="path7087"
   style="fill:url(#SVGID_109_)" />

	
		<linearGradient
   id="linearGradient13270"
   gradientUnits="userSpaceOnUse"
   x1="432.81491"
   y1="176.9453"
   x2="434.5643"
   y2="179.54671"
   gradientTransform="matrix(0.9997,-2.34e-2,2.34e-2,0.9997,-109.8835,16.3628)">
		<stop
   offset="0"
   style="stop-color:#8EE361"
   id="stop13272" />

		<stop
   offset="0.489"
   style="stop-color:#4C9C23"
   id="stop13274" />

		<stop
   offset="0.5549"
   style="stop-color:#4C9C23"
   id="stop13276" />

		<stop
   offset="0.7149"
   style="stop-color:#61B237"
   id="stop13278" />

		<stop
   offset="1"
   style="stop-color:#8EE361"
   id="stop13280" />

	</linearGradient>

	<path
   d="M 327.75,184.858 C 327.871,184.335 327.68,184.305 327.855,183.832 C 327.742,184.285 327.88,184.471 327.802,184.828 L 327.75,184.858 z "
   id="path7100"
   style="fill:url(#SVGID_110_)" />

	
		<linearGradient
   id="linearGradient13283"
   gradientUnits="userSpaceOnUse"
   x1="431.17139"
   y1="179.8569"
   x2="433.85971"
   y2="180.93221"
   gradientTransform="matrix(0.9997,-2.34e-2,2.34e-2,0.9997,-109.8835,16.3628)">
		<stop
   offset="0"
   style="stop-color:#8EE361"
   id="stop13285" />

		<stop
   offset="0.1415"
   style="stop-color:#86DA5A"
   id="stop13287" />

		<stop
   offset="0.3672"
   style="stop-color:#71C345"
   id="stop13289" />

		<stop
   offset="0.6477"
   style="stop-color:#4E9E25"
   id="stop13291" />

		<stop
   offset="0.6593"
   style="stop-color:#4C9C23"
   id="stop13293" />

	</linearGradient>

	<path
   d="M 325.634,186.322 C 325.978,186.588 326.392,186.75 327.356,186.592 C 326.063,186.705 325.84,186.396 325.708,186.274 L 325.634,186.322 z "
   id="path7113"
   style="fill:url(#SVGID_111_)" />

	
		<linearGradient
   id="linearGradient13296"
   gradientUnits="userSpaceOnUse"
   x1="432.03659"
   y1="178.877"
   x2="433.9787"
   y2="179.76849"
   gradientTransform="matrix(0.9997,-2.34e-2,2.34e-2,0.9997,-109.8835,16.3628)">
		<stop
   offset="0"
   style="stop-color:#83D857"
   id="stop13298" />

		<stop
   offset="0.7637"
   style="stop-color:#5DAE33"
   id="stop13300" />

	</linearGradient>

	<path
   d="M 326.73,185.617 C 327.073,185.88 327.625,185.892 328.333,185.646 C 327.523,185.858 327.021,185.798 326.784,185.578 L 326.73,185.617 z "
   id="path7120"
   style="fill:url(#SVGID_112_)" />

	
		<linearGradient
   id="linearGradient13303"
   gradientUnits="userSpaceOnUse"
   x1="433.04739"
   y1="176.7847"
   x2="434.8009"
   y2="179.3924"
   gradientTransform="matrix(0.9997,-2.34e-2,2.34e-2,0.9997,-109.8835,16.3628)">
		<stop
   offset="0"
   style="stop-color:#8EE361"
   id="stop13305" />

		<stop
   offset="0.489"
   style="stop-color:#4C9C23"
   id="stop13307" />

		<stop
   offset="0.5549"
   style="stop-color:#4C9C23"
   id="stop13309" />

	</linearGradient>

	<path
   d="M 327.775,184.92 C 328.116,185.059 328.441,184.691 329.029,184.487 C 328.529,184.619 328.033,185.004 327.828,184.883 L 327.775,184.92 z "
   id="path7129"
   style="fill:url(#SVGID_113_)" />

</g>
    <path
       d="M -0.36497646,40.8062 C 0.097633814,40.387893 0.74570033,39.976798 0.93630812,39.88304 C 1.126916,39.787221 1.5751019,39.930434 1.6925575,39.814009 C 1.8100131,39.694493 2.4014124,39.175215 2.5909899,39.175215 C 2.7805674,39.175215 3.1823892,39.245277 3.3956639,39.102063 C 3.6068779,38.96091 4.837071,38.607513 5.2399231,38.487997 C 5.641745,38.371572 6.5638746,38.346844 6.7060577,38.252055 C 6.8472105,38.158297 8.1000704,36.999196 8.5503169,36.764284 C 9.0005635,36.527312 10.584154,35.507303 10.749004,35.463 C 10.914884,35.414575 11.221917,35.439303 11.434162,35.227058 C 11.646406,35.014814 12.45005,33.924743 12.45005,33.806257 C 12.45005,33.689832 13.223814,33.082978 13.34127,32.967583 C 13.460786,32.847037 13.866729,32.266971 14.196429,32.006302 C 14.52716,31.746663 15.382319,30.797745 15.595594,30.797745 C 15.806808,30.797745 16.399237,30.001314 16.517723,29.932283 C 16.635179,29.860161 16.896878,29.52737 17.510944,29.457309 C 17.817978,29.388278 18.478408,28.511482 18.478408,28.415663 C 18.478408,28.321904 19.284112,27.162803 19.520054,27.091711 C 19.758056,27.02165 22.122623,26.288068 22.404928,26.241704 C 22.688264,26.19534 23.255967,26.218006 23.470271,26.265401 C 23.682516,26.311765 24.438765,26.311765 24.628343,26.241704 C 24.81895,26.170612 25.338228,26.193279 25.550472,26.241704 C 25.763747,26.288068 26.614785,26.595101 26.827029,26.595101 C 27.040304,26.595101 27.679098,26.335462 27.891342,26.145885 C 28.104617,25.957337 29.876754,24.465445 30.185848,24.254231 C 30.492881,24.041987 32.526718,22.66961 32.92854,22.553185 C 33.331392,22.434699 35.103529,22.196697 35.293107,22.173 C 35.482684,22.150333 39.242294,23.188888 39.408174,23.188888 C 39.574055,23.188888 41.038129,22.99931 41.155584,22.929249 C 41.276131,22.860218 40.164424,22.196697 39.903755,22.220394 C 39.643086,22.242031 39.477205,22.33785 39.288658,22.290455 C 39.100111,22.242031 37.658704,21.701117 37.562885,21.701117 C 37.468096,21.701117 36.711847,21.74542 36.593361,21.74542 C 36.473845,21.74542 35.576442,21.322992 35.576442,21.228203 C 35.576442,21.133415 36.308995,20.823291 36.42645,20.823291 C 36.546997,20.823291 36.900394,20.941777 37.18476,20.658441 C 37.468096,20.377165 38.319134,20.281346 38.319134,20.281346 C 38.319134,20.281346 39.903755,19.809463 40.446729,19.784736 C 40.990734,19.762069 42.599052,19.950616 42.811296,19.975343 C 43.025601,19.99801 45.225318,20.75632 45.365441,20.75632 C 45.505563,20.75632 46.428723,21.038626 46.428723,21.038626 C 45.884718,20.659471 44.915194,20.257649 44.655555,20.022738 C 44.394886,19.785766 44.017792,19.478733 43.804517,19.454005 C 43.592273,19.430308 42.69281,19.312853 42.69281,19.312853 C 42.69281,19.312853 41.748014,19.218064 41.748014,19.076911 C 41.748014,18.933698 43.28524,17.940476 43.61597,17.728232 C 43.947731,17.513927 44.348522,17.254288 44.752405,17.232652 C 45.154227,17.209985 47.137578,17.232652 47.280792,17.209985 C 47.422975,17.185257 47.564127,16.974043 47.564127,16.974043 C 47.564127,16.974043 47.351883,16.99568 47.161275,16.99568 C 46.972728,16.99568 44.585494,16.99568 44.490705,16.900891 C 44.394886,16.808163 44.420644,16.310522 44.513372,16.144642 C 44.608161,15.979792 45.103741,15.009238 45.222227,14.939176 C 45.340713,14.868085 45.129499,14.65584 45.104772,14.536324 C 45.082105,14.418869 44.987316,14.133472 45.222227,13.945955 C 45.460229,13.755347 46.12169,13.282434 46.12169,13.282434 C 46.12169,13.282434 46.075326,12.974371 46.003204,13.000128 C 45.933143,13.021765 45.200591,13.66365 45.081074,13.66365 C 44.963619,13.66365 45.011013,13.446254 44.8678,13.446254 C 44.725617,13.446254 44.680283,13.732681 44.680283,13.732681 C 44.680283,13.732681 44.797739,14.301413 44.70192,14.631113 C 44.607131,14.961843 44.347492,15.24724 44.277431,15.411059 C 44.206339,15.57694 44.040459,16.687617 43.803487,16.8298 C 43.567546,16.974043 41.840742,18.133145 41.675892,18.133145 C 41.510012,18.133145 40.847521,18.461815 40.847521,18.461815 C 40.847521,18.461815 40.493093,18.913091 40.327213,18.959455 C 40.162363,19.003759 38.979564,19.195397 38.743623,19.219094 C 38.507681,19.244852 36.521239,19.905282 36.521239,19.905282 C 36.521239,19.905282 35.598079,20.448257 35.410562,20.542015 C 35.219954,20.637834 34.18243,20.897473 34.18243,20.897473 C 34.18243,20.897473 33.803275,21.346689 33.733214,21.300325 C 33.660061,21.251901 33.943397,20.637834 33.943397,20.637834 C 33.943397,20.637834 35.149893,18.816242 35.33844,18.67715 C 35.526987,18.530845 36.898333,17.020407 36.993122,16.974043 C 37.08688,16.925619 37.395974,16.809193 37.608219,16.617555 C 37.820463,16.427978 38.199618,16.003489 38.199618,16.003489 C 38.199618,16.003489 39.286597,15.198815 39.451447,15.080329 C 39.617328,14.962874 40.302485,14.110805 40.233455,14.088138 C 40.162363,14.064441 39.333992,14.65584 39.333992,14.65584 C 39.333992,14.65584 38.247012,15.388393 38.01004,15.553243 C 37.774099,15.720153 37.277488,15.813912 37.207427,15.837609 C 37.135305,15.861306 36.827242,16.214703 36.827242,16.214703 L 36.710816,16.617555 C 36.710816,16.617555 35.953537,17.233682 35.858748,17.233682 C 35.763959,17.233682 36.049356,15.128754 35.928809,14.987601 C 35.812384,14.844388 35.787656,15.033965 35.787656,15.033965 C 35.787656,15.033965 35.598079,16.214703 35.576442,16.310522 C 35.552745,16.406341 35.243652,17.303743 35.219954,17.445926 C 35.196257,17.58811 35.075711,18.107387 34.936618,18.202176 C 34.794435,18.297995 33.968125,19.030547 33.92073,19.149033 C 33.873336,19.265458 32.810054,21.064384 32.690537,21.110748 C 32.573082,21.157112 31.368647,22.080272 31.058522,22.244091 C 30.750459,22.412032 30.135363,23.025068 29.875724,23.050826 C 29.617115,23.072463 29.381174,23.285737 29.381174,23.285737 L 29.358507,23.546406 C 29.358507,23.546406 28.482741,24.469566 28.342619,24.540658 C 28.199406,24.608658 27.957282,24.836357 27.957282,24.836357 C 27.847039,24.94351 27.077395,24.997086 26.804362,25.027996 C 26.529269,25.053753 25.816293,24.752902 25.570048,24.752902 C 25.323804,24.752902 24.55519,24.862115 24.307915,24.997086 C 24.05961,25.137209 22.93657,25.081572 22.77172,25.081572 C 22.60687,25.081572 21.939227,25.077451 21.501344,25.077451 C 21.061401,25.077451 19.987816,25.533879 19.632358,25.562728 C 19.27587,25.588486 17.705674,26.860921 17.491369,26.608495 C 16.953545,25.971762 17.371852,25.089814 17.371852,24.870358 C 17.371852,24.648841 18.138405,23.378465 18.281618,22.844764 C 18.474287,22.113242 18.905987,21.71142 18.988412,21.602207 C 19.128535,21.499176 19.711692,18.750302 19.680782,18.470057 C 19.648843,18.192903 20.302061,15.998338 20.354607,15.805669 C 20.411274,15.615061 22.204018,13.485406 22.473959,13.340131 C 22.745962,13.195888 24.712828,11.873997 24.887981,11.789511 C 25.062104,11.703995 27.764614,10.520166 27.869706,10.487196 C 27.973767,10.455257 28.658925,8.9097877 28.813472,8.485299 C 28.963897,8.0608102 29.946815,6.3638854 29.999361,6.2618844 C 30.051907,6.1598835 29.714995,6.0939435 29.591358,6.1609138 C 29.469781,6.2268538 28.554863,7.3282578 28.492014,7.4920775 C 28.429165,7.6558975 27.723401,9.4960359 27.52249,9.6763405 C 27.319519,9.8576755 26.20369,10.417135 26.047083,10.46556 C 25.890475,10.516045 25.700898,10.376953 25.720474,10.1678 C 25.74211,9.9607068 26.053265,8.5059052 26.160417,8.0391737 C 26.271691,7.5724418 26.457147,6.6204332 26.40151,6.7234644 C 26.348964,6.8264957 25.666898,8.0278402 25.664837,8.1988721 C 25.663807,8.3729949 25.121862,10.287316 25.001316,10.5655 C 24.885921,10.844715 21.990743,12.564306 21.990743,12.564306 C 21.990743,12.564306 21.074795,12.822915 20.92643,13.112432 C 20.778065,13.40195 20.041392,14.222079 19.947633,14.353959 C 19.851814,14.48996 19.316052,14.214867 19.224354,14.140684 C 19.130596,14.066502 18.886412,13.627589 18.764835,13.460678 C 18.642227,13.293767 17.790159,12.464366 17.56349,12.296425 C 17.336822,12.127454 15.934566,12.267576 16.171538,12.466427 C 16.448692,12.687944 18.840047,14.987601 18.694773,15.515121 C 18.643258,17.072953 17.822099,20.038193 17.583066,20.375105 C 17.344034,20.713047 16.807241,21.737178 16.531117,22.146212 C 16.419844,22.33888 15.697595,24.290292 15.668746,24.48296 C 15.641958,24.676659 14.784738,25.894488 14.729101,26.03255 C 14.673464,26.170612 13.567939,27.58317 13.403089,27.664565 C 13.236178,27.74802 12.35114,28.466148 12.323321,28.634089 C 12.295503,28.796878 11.743256,29.185306 11.605194,29.241973 C 11.465071,29.29658 10.441971,30.208406 10.331727,30.567985 C 10.221484,30.927564 9.4487494,31.951695 9.4487494,31.951695 C 9.4487494,31.951695 9.0603216,32.03515 8.810986,32.062969 C 8.5616504,32.088727 7.5395805,32.837764 7.2902448,32.946977 C 7.0398789,33.05619 6.3495696,32.642004 6.1270221,32.642004 C 5.9075656,32.642004 5.1605891,32.669823 4.8267679,32.781097 C 4.4939769,32.89031 3.9128807,33.471406 3.2503898,33.58268 C 2.5868687,33.691893 2.670324,33.305526 2.0892278,33.195282 C 1.2958872,32.881037 0.071876004,34.282262 0.071876004,34.282262 C 0.071876004,34.282262 -0.36600678,35.33112 -0.36600678,35.682456 C -0.36600678,36.032763 -0.36600678,37.520534 -0.36600678,37.520534 C -0.36600678,37.520534 -0.89146611,38.744545 -0.97904267,39.09279 C -1.0676495,39.443097 -0.70910081,41.119415 -0.36497646,40.8062 z "
       id="path7138"
       style="fill:url(#SVGID_114_)" />
    <path
       d="M 25.317622,11.010595 C 25.41241,10.968352 25.502048,10.9292 25.6092,10.881806 C 25.570048,10.860169 25.520593,10.865321 25.483502,10.837503 C 25.47732,10.831321 25.479381,10.821018 25.473199,10.816896 C 25.451562,10.8612 25.406229,10.921988 25.317622,11.010595 z M 17.237912,12.727096 C 18.045677,13.510133 19.230536,14.779478 19.230536,15.509969 C 19.230536,15.562515 19.224354,15.61094 19.21199,15.656274 L 19.231566,15.532636 C 19.17902,17.088408 18.360952,20.205103 18.017858,20.686259 L 16.974152,22.446033 C 16.889666,22.620155 16.249842,24.35108 16.194205,24.58187 C 16.171538,24.755993 16.052022,24.970298 15.491532,25.825457 L 15.212317,26.258189 C 15.150499,26.415826 13.979033,27.97778 13.63903,28.145721 C 13.500969,28.226085 12.900296,28.725787 12.795205,28.873122 L 12.849811,28.722696 C 12.759144,29.254337 11.816408,29.732402 11.807135,29.734463 C 11.6598,29.837494 10.935491,30.523682 10.836581,30.742108 C 10.718095,31.129506 10.125665,31.942422 9.8752987,32.274183 L 9.7465097,32.441093 L 8.8666228,32.59358 C 8.9212294,32.583277 8.1155251,33.066493 8.1155251,33.066493 L 7.5066105,33.436375 C 7.1449708,33.591952 6.7421186,33.430193 6.3516302,33.273586 C 6.3516302,33.273586 6.0806581,33.173646 6.0785974,33.173646 C 6.0775671,33.179827 4.9957391,33.289041 4.9957391,33.289041 C 4.9926482,33.289041 4.6619179,33.489951 4.6619179,33.489951 C 4.3280966,33.713529 3.8685773,34.020562 3.3379664,34.109169 C 2.7712946,34.202928 2.4900193,34.032926 2.2489262,33.849531 L 1.9851662,33.719711 C 1.6791634,33.608437 1.0187331,34.04735 0.5283044,34.584143 C 0.33975723,35.050875 0.17387693,35.549546 0.16872537,35.681426 L 0.16872537,37.619444 L -0.45873489,39.221579 C -0.45976521,39.234974 -0.46079552,39.248368 -0.46079552,39.265883 C -0.46079552,39.447218 -0.37837052,39.808858 -0.28667272,40.098375 C 0.13369475,39.801645 0.69727564,39.402914 0.69727564,39.402914 C 0.69521502,39.402914 1.3577059,39.318429 1.3577059,39.318429 C 1.3577059,39.318429 1.3937669,39.320489 1.4298278,39.32255 C 1.6595875,39.105154 2.1984409,38.636362 2.5909899,38.636362 L 2.7785068,38.644605 L 3.1226311,38.642544 C 3.2957236,38.524058 3.7902736,38.355087 4.9947088,38.000659 C 5.0905278,37.972841 5.9899906,37.830658 5.9899906,37.830658 C 5.9899906,37.830658 6.4495099,37.766778 6.476298,37.764718 C 6.4824799,37.741021 6.7307852,37.526716 6.7307852,37.526716 L 8.3020116,36.28725 L 9.3343847,35.669062 L 10.606821,34.943722 C 10.610942,34.943722 10.83349,34.90251 10.83349,34.90251 L 11.057067,34.845843 C 11.221917,34.678932 11.863802,33.803166 11.946227,33.628013 L 11.913257,33.805227 C 11.913257,33.4848 12.12035,33.296253 12.775629,32.745036 C 12.775629,32.745036 12.965206,32.584307 12.966236,32.582246 L 13.103268,32.413275 L 13.865699,31.583874 C 13.86776,31.581813 14.325218,31.153203 14.325218,31.153203 C 15.004194,30.490712 15.271045,30.259922 15.596624,30.259922 L 15.415289,30.302165 L 15.863475,29.839555 L 16.245721,29.469672 C 16.437359,29.302762 16.797968,28.99882 17.450156,28.923607 C 17.492399,28.869 17.898342,28.383723 17.984888,28.219903 L 17.943676,28.415663 C 17.943676,28.056084 18.932776,26.710496 19.366537,26.578616 C 19.367567,26.578616 19.652964,26.488979 19.652964,26.488979 L 22.318382,25.710062 C 22.320443,25.710062 23.588757,25.742002 23.588757,25.742002 C 23.72785,25.769821 24.309976,25.76776 24.459371,25.731699 C 24.798344,25.60394 25.456714,25.666789 25.671019,25.717275 L 26.116114,25.848124 L 26.848666,26.057278 C 26.96097,26.038732 27.430792,25.837821 27.535884,25.743032 C 27.535884,25.743032 27.828493,25.501939 27.946979,25.40406 C 27.742977,25.458666 27.465823,25.499879 27.018667,25.544182 L 26.86309,25.558606 C 26.858969,25.558606 25.952294,25.391696 25.952294,25.391696 L 25.557684,25.286604 C 25.347501,25.286604 24.710768,25.393756 24.566524,25.465878 C 24.315128,25.606001 23.8927,25.646183 22.887115,25.618365 C 22.77275,25.616304 22.403898,25.615274 22.403898,25.615274 L 21.501344,25.611152 L 20.567881,25.859458 L 19.67357,26.094369 C 19.729207,26.086126 19.027564,26.49413 19.027564,26.49413 C 18.145617,27.05359 17.507854,27.456442 17.081304,26.952619 C 16.482693,26.245825 16.700089,25.383453 16.80312,24.968237 L 16.83506,24.833267 C 16.832999,24.867267 17.271912,23.771014 17.271912,23.771014 L 17.76028,22.704641 C 17.955009,21.962816 18.35271,21.510509 18.522711,21.31578 C 18.522711,21.31578 18.534045,21.305477 18.537136,21.301356 C 18.673137,20.974747 19.135747,18.835818 19.141929,18.493754 C 19.139868,18.473148 19.137808,18.453572 19.137808,18.423693 C 19.137808,18.260904 19.213021,17.796233 19.808541,15.753123 C 19.919815,15.371908 21.242736,13.79553 21.891833,13.164978 C 21.654861,13.249464 21.430253,13.344253 21.366374,13.404011 C 21.401404,13.353526 20.583336,14.419899 20.583336,14.419899 L 20.248485,14.822751 L 19.953815,14.91754 C 19.526236,14.980389 18.955442,14.613598 18.884351,14.55487 L 18.483559,14.017047 L 18.327982,13.772863 C 18.218769,13.633771 17.42955,12.863097 17.239972,12.724005 L 17.237912,12.724005 L 17.237912,12.727096 z M 41.107159,18.933698 C 40.979401,19.042911 40.87843,19.128427 40.71461,19.27061 C 40.867097,19.282974 41.052553,19.296368 41.289525,19.315944 C 41.255524,19.242791 41.213282,19.17376 41.213282,19.076911 C 41.213282,19.005819 41.217403,18.945031 41.243161,18.876 C 41.191645,18.896606 41.116432,18.930607 41.107159,18.933698 z M 34.471948,21.369356 C 34.203036,21.67742 33.846548,22.019483 33.435453,21.74336 C 33.26133,21.631056 33.203633,21.472387 33.198481,21.298265 C 33.085147,21.436326 32.967691,21.577479 32.889388,21.608389 C 32.939873,21.586752 32.379383,21.982392 32.379383,21.982392 L 31.31404,22.717005 C 31.316101,22.714944 30.924582,23.008583 30.924582,23.008583 C 30.503184,23.345495 30.230151,23.553619 29.92827,23.583498 C 29.92827,23.583498 29.903542,23.596892 29.892209,23.603074 C 29.891178,23.619558 29.875724,23.780287 29.875724,23.780287 C 29.875724,23.780287 29.73251,23.930713 29.724268,23.941016 C 29.743844,23.924531 29.879845,23.810166 29.879845,23.810166 C 30.120938,23.645316 32.252655,22.190515 32.779144,22.034938 L 35.223045,21.638268 C 35.231288,21.638268 35.241591,21.638268 35.250864,21.638268 C 35.131347,21.515661 35.038619,21.38069 35.038619,21.228203 C 35.038619,21.21584 35.052013,21.209658 35.054074,21.198324 C 34.821223,21.268386 34.617222,21.329174 34.471948,21.369356 z "
       id="path7149"
       style="fill:url(#SVGID_115_)" />
    <g
       transform="matrix(1.0303124,0,0,1.0303124,-298.1572,-177.55718)"
       id="g7153">
	<g
   id="g7155">
		<path
   d="M 319.499,195.904 C 319.713,196.039 320.76,195.353 321.584,196.35 C 322.275,197.19 322.07,198.175 322.09,198.579 C 322.11,198.985 322.1,199.059 322.266,199.612 C 322.323,199.8 322.079,199.619 321.953,199.51 C 321.634,199.233 321.133,199.104 320.54,198.739 C 319.946,198.372 319.505,197.95 319.361,197.225 C 319.215,196.498 319.478,196.351 319.382,195.974"
   id="path7157"
   style="fill:none;stroke:#326617;stroke-width:0.77646351" />

		<path
   d="M 318.86,195.557 C 319.152,195.655 319.364,195.675 319.625,196.071 C 319.887,196.466 320.943,197.877 321.168,198.208 C 321.393,198.538 322.033,199.415 322.111,199.507 C 322.188,199.599 322.308,199.636 322.266,199.682 C 322.238,199.708 322.203,199.701 322.08,199.542 C 321.954,199.383 320.815,197.789 320.606,197.543 C 320.396,197.298 319.806,196.436 319.586,196.203 C 319.369,195.97 319.299,195.865 319.116,195.783 C 318.933,195.701 318.843,195.659 318.81,195.651 C 318.783,195.643 318.787,195.53 318.86,195.557 z "
   id="path7159"
   style="fill:none;stroke:#326617;stroke-width:0.67940557" />

	</g>

	
		<linearGradient
   id="linearGradient13318"
   gradientUnits="userSpaceOnUse"
   x1="-4938.0386"
   y1="4805.1792"
   x2="-4937.3291"
   y2="4806.1216"
   gradientTransform="matrix(8.53e-2,0.9964,-0.9964,8.53e-2,5529.9956,4708.1406)">
		<stop
   offset="0"
   style="stop-color:#4C9C23"
   id="stop13320" />

		<stop
   offset="0.0824"
   style="stop-color:#4C9C23"
   id="stop13322" />

		<stop
   offset="0.153"
   style="stop-color:#58A628"
   id="stop13324" />

		<stop
   offset="0.4032"
   style="stop-color:#7DC438"
   id="stop13326" />

		<stop
   offset="0.6357"
   style="stop-color:#98D944"
   id="stop13328" />

		<stop
   offset="0.8418"
   style="stop-color:#A8E64B"
   id="stop13330" />

		<stop
   offset="1"
   style="stop-color:#AEEB4D"
   id="stop13332" />

	</linearGradient>

	<path
   d="M 319.596,196.139 L 322.085,199.503 L 322.273,199.666 C 322.262,199.757 322.06,199.607 321.951,199.512 C 321.632,199.235 321.131,199.106 320.538,198.741 C 319.944,198.374 319.503,197.952 319.359,197.227 C 319.213,196.5 319.476,196.353 319.38,195.976 L 319.596,196.139 z "
   id="path7176"
   style="fill:url(#SVGID_116_)" />

	
		<linearGradient
   id="linearGradient13335"
   gradientUnits="userSpaceOnUse"
   x1="-4938.8213"
   y1="4803.9995"
   x2="-4937.9312"
   y2="4805.3228"
   gradientTransform="matrix(8.53e-2,0.9964,-0.9964,8.53e-2,5529.9956,4708.1406)">
		<stop
   offset="0"
   style="stop-color:#74D43F"
   id="stop13337" />

		<stop
   offset="0.3162"
   style="stop-color:#57B425"
   id="stop13339" />

		<stop
   offset="0.6209"
   style="stop-color:#389109"
   id="stop13341" />

		<stop
   offset="0.7811"
   style="stop-color:#458C1F"
   id="stop13343" />

		<stop
   offset="0.7857"
   style="stop-color:#458C20"
   id="stop13345" />

		<stop
   offset="0.8807"
   style="stop-color:#57A22F"
   id="stop13347" />

		<stop
   offset="1"
   style="stop-color:#71C446"
   id="stop13349" />

	</linearGradient>

	<path
   d="M 322.106,199.545 L 319.699,196.231 L 319.499,195.905 C 319.713,196.04 320.76,195.354 321.584,196.351 C 322.275,197.191 322.07,198.176 322.09,198.58 C 322.11,198.986 322.1,199.06 322.266,199.613 C 322.274,199.634 322.277,199.654 322.275,199.666 L 322.106,199.545 z "
   id="path7193"
   style="fill:url(#SVGID_117_)" />

	
		<linearGradient
   id="linearGradient13352"
   gradientUnits="userSpaceOnUse"
   x1="-4940.3853"
   y1="4806.8979"
   x2="-4936.1055"
   y2="4804.0337"
   gradientTransform="matrix(8.53e-2,0.9964,-0.9964,8.53e-2,5529.9956,4708.1406)">
		<stop
   offset="0"
   style="stop-color:#4C9C23"
   id="stop13354" />

		<stop
   offset="0.0276"
   style="stop-color:#61B237"
   id="stop13356" />

		<stop
   offset="0.0769"
   style="stop-color:#8EE361"
   id="stop13358" />

		<stop
   offset="0.6209"
   style="stop-color:#4C9C23"
   id="stop13360" />

		<stop
   offset="1"
   style="stop-color:#4C9C23"
   id="stop13362" />

	</linearGradient>

	<path
   d="M 318.86,195.557 C 319.152,195.655 319.364,195.675 319.625,196.071 C 319.887,196.466 320.943,197.877 321.168,198.208 C 321.393,198.538 322.033,199.415 322.111,199.507 C 322.188,199.599 322.308,199.636 322.266,199.682 C 322.238,199.708 322.203,199.701 322.08,199.542 C 321.954,199.383 320.815,197.789 320.606,197.543 C 320.396,197.298 319.806,196.436 319.586,196.203 C 319.369,195.97 319.299,195.865 319.116,195.783 C 318.933,195.701 318.843,195.659 318.81,195.651 C 318.783,195.643 318.787,195.53 318.86,195.557 z "
   id="path7206"
   style="fill:url(#SVGID_118_)" />

	
		<linearGradient
   id="linearGradient13365"
   gradientUnits="userSpaceOnUse"
   x1="-4939.7397"
   y1="4804.6304"
   x2="-4938.3677"
   y2="4806.6709"
   gradientTransform="matrix(8.53e-2,0.9964,-0.9964,8.53e-2,5529.9956,4708.1406)">
		<stop
   offset="0"
   style="stop-color:#8EE361"
   id="stop13367" />

		<stop
   offset="0.489"
   style="stop-color:#4C9C23"
   id="stop13369" />

		<stop
   offset="0.5549"
   style="stop-color:#4C9C23"
   id="stop13371" />

		<stop
   offset="0.7149"
   style="stop-color:#61B237"
   id="stop13373" />

		<stop
   offset="1"
   style="stop-color:#8EE361"
   id="stop13375" />

	</linearGradient>

	<path
   d="M 319.974,196.563 C 320.49,196.629 320.695,196.377 321.427,196.443 C 320.857,196.422 320.5,196.618 320.017,196.625 L 319.974,196.563 z "
   id="path7219"
   style="fill:url(#SVGID_119_)" />

	
		<linearGradient
   id="linearGradient13378"
   gradientUnits="userSpaceOnUse"
   x1="-4938.9146"
   y1="4804.0757"
   x2="-4937.5444"
   y2="4806.1133"
   gradientTransform="matrix(8.53e-2,0.9964,-0.9964,8.53e-2,5529.9956,4708.1406)">
		<stop
   offset="0"
   style="stop-color:#8EE361"
   id="stop13380" />

		<stop
   offset="0.489"
   style="stop-color:#4C9C23"
   id="stop13382" />

		<stop
   offset="0.5549"
   style="stop-color:#4C9C23"
   id="stop13384" />

		<stop
   offset="0.7149"
   style="stop-color:#61B237"
   id="stop13386" />

		<stop
   offset="1"
   style="stop-color:#8EE361"
   id="stop13388" />

	</linearGradient>

	<path
   d="M 320.587,197.404 C 320.926,197.496 321.396,197.269 321.921,197.263 C 321.473,197.304 320.925,197.534 320.622,197.451 L 320.587,197.404 z "
   id="path7232"
   style="fill:url(#SVGID_120_)" />

	
		<linearGradient
   id="linearGradient13391"
   gradientUnits="userSpaceOnUse"
   x1="-4938.1909"
   y1="4803.5874"
   x2="-4936.8188"
   y2="4805.6274"
   gradientTransform="matrix(8.53e-2,0.9964,-0.9964,8.53e-2,5529.9956,4708.1406)">
		<stop
   offset="0"
   style="stop-color:#8EE361"
   id="stop13393" />

		<stop
   offset="0.489"
   style="stop-color:#4C9C23"
   id="stop13395" />

		<stop
   offset="0.5549"
   style="stop-color:#4C9C23"
   id="stop13397" />

		<stop
   offset="0.7149"
   style="stop-color:#61B237"
   id="stop13399" />

		<stop
   offset="1"
   style="stop-color:#8EE361"
   id="stop13401" />

	</linearGradient>

	<path
   d="M 321.159,198.19 C 321.574,198.259 321.589,198.108 321.968,198.222 C 321.609,198.157 321.469,198.275 321.186,198.23 L 321.159,198.19 z "
   id="path7245"
   style="fill:url(#SVGID_121_)" />

	
		<linearGradient
   id="linearGradient13404"
   gradientUnits="userSpaceOnUse"
   x1="-4939.48"
   y1="4805.8696"
   x2="-4937.3701"
   y2="4806.7134"
   gradientTransform="matrix(8.53e-2,0.9964,-0.9964,8.53e-2,5529.9956,4708.1406)">
		<stop
   offset="0"
   style="stop-color:#8EE361"
   id="stop13406" />

		<stop
   offset="0.1415"
   style="stop-color:#86DA5A"
   id="stop13408" />

		<stop
   offset="0.3672"
   style="stop-color:#71C345"
   id="stop13410" />

		<stop
   offset="0.6477"
   style="stop-color:#4E9E25"
   id="stop13412" />

		<stop
   offset="0.6593"
   style="stop-color:#4C9C23"
   id="stop13414" />

	</linearGradient>

	<path
   d="M 319.91,196.605 C 319.72,196.887 319.612,197.218 319.782,197.966 C 319.631,196.96 319.863,196.77 319.952,196.659 L 319.91,196.605 z "
   id="path7258"
   style="fill:url(#SVGID_122_)" />

	
		<linearGradient
   id="linearGradient13417"
   gradientUnits="userSpaceOnUse"
   x1="-4938.8022"
   y1="4805.103"
   x2="-4937.2773"
   y2="4805.8027"
   gradientTransform="matrix(8.53e-2,0.9964,-0.9964,8.53e-2,5529.9956,4708.1406)">
		<stop
   offset="0"
   style="stop-color:#83D857"
   id="stop13419" />

		<stop
   offset="0.7637"
   style="stop-color:#5DAE33"
   id="stop13421" />

	</linearGradient>

	<path
   d="M 320.515,197.429 C 320.326,197.71 320.343,198.143 320.569,198.686 C 320.365,198.063 320.386,197.666 320.548,197.471 L 320.515,197.429 z "
   id="path7265"
   style="fill:url(#SVGID_123_)" />

	
		<linearGradient
   id="linearGradient13424"
   gradientUnits="userSpaceOnUse"
   x1="-4938.0083"
   y1="4803.4614"
   x2="-4936.6333"
   y2="4805.5063"
   gradientTransform="matrix(8.53e-2,0.9964,-0.9964,8.53e-2,5529.9956,4708.1406)">
		<stop
   offset="0"
   style="stop-color:#8EE361"
   id="stop13426" />

		<stop
   offset="0.489"
   style="stop-color:#4C9C23"
   id="stop13428" />

		<stop
   offset="0.5549"
   style="stop-color:#4C9C23"
   id="stop13430" />

	</linearGradient>

	<path
   d="M 321.112,198.213 C 321.02,198.487 321.324,198.725 321.511,199.174 C 321.384,198.789 321.058,198.42 321.143,198.253 L 321.112,198.213 z "
   id="path7274"
   style="fill:url(#SVGID_124_)" />

</g>
    <g
       transform="matrix(1.0303124,0,0,1.0303124,-298.1572,-177.55718)"
       id="g7276">
	<g
   id="g7278">
		<path
   d="M 306.435,183.697 C 306.49,183.587 307.099,183.605 307.189,182.98 C 307.262,182.455 306.925,182.097 306.831,181.923 C 306.735,181.749 306.713,181.72 306.641,181.448 C 306.618,181.356 306.561,181.493 306.537,181.571 C 306.474,181.766 306.299,181.949 306.145,182.252 C 305.992,182.556 305.916,182.844 306.041,183.183 C 306.166,183.521 306.312,183.516 306.368,183.697"
   id="path7280"
   style="fill:none;stroke:#326617;stroke-width:0.77646351" />

		<path
   d="M 306.257,184.005 C 306.355,183.89 306.437,183.828 306.445,183.596 C 306.454,183.366 306.533,182.51 306.543,182.315 C 306.552,182.12 306.594,181.592 306.604,181.534 C 306.614,181.476 306.653,181.43 306.624,181.423 C 306.606,181.419 306.595,181.431 306.583,181.528 C 306.571,181.625 306.505,182.579 306.48,182.734 C 306.455,182.889 306.43,183.399 306.398,183.551 C 306.367,183.703 306.364,183.766 306.309,183.846 C 306.254,183.926 306.227,183.967 306.215,183.979 C 306.205,183.988 306.234,184.034 306.257,184.005 z "
   id="path7282"
   style="fill:none;stroke:#326617;stroke-width:0.67940557" />

	</g>

	
		<linearGradient
   id="linearGradient13437"
   gradientUnits="userSpaceOnUse"
   x1="4761.0913"
   y1="2938.2769"
   x2="4761.438"
   y2="2938.7371"
   gradientTransform="matrix(-0.4481,-0.894,-0.894,0.4481,5066.8096,3122.3411)">
		<stop
   offset="0"
   style="stop-color:#4C9C23"
   id="stop13439" />

		<stop
   offset="0.0824"
   style="stop-color:#4C9C23"
   id="stop13441" />

		<stop
   offset="0.153"
   style="stop-color:#58A628"
   id="stop13443" />

		<stop
   offset="0.4032"
   style="stop-color:#7DC438"
   id="stop13445" />

		<stop
   offset="0.6357"
   style="stop-color:#98D944"
   id="stop13447" />

		<stop
   offset="0.8418"
   style="stop-color:#A8E64B"
   id="stop13449" />

		<stop
   offset="1"
   style="stop-color:#AEEB4D"
   id="stop13451" />

	</linearGradient>

	<path
   d="M 306.417,183.576 L 306.594,181.541 L 306.631,181.426 C 306.604,181.391 306.557,181.504 306.537,181.572 C 306.474,181.767 306.299,181.95 306.145,182.253 C 305.992,182.557 305.916,182.845 306.041,183.184 C 306.166,183.522 306.312,183.517 306.368,183.698 L 306.417,183.576 z "
   id="path7299"
   style="fill:url(#SVGID_125_)" />

	
		<linearGradient
   id="linearGradient13454"
   gradientUnits="userSpaceOnUse"
   x1="4760.7075"
   y1="2937.6997"
   x2="4761.1416"
   y2="2938.3455"
   gradientTransform="matrix(-0.4481,-0.894,-0.894,0.4481,5066.8096,3122.3411)">
		<stop
   offset="0"
   style="stop-color:#74D43F"
   id="stop13456" />

		<stop
   offset="0.3162"
   style="stop-color:#57B425"
   id="stop13458" />

		<stop
   offset="0.6209"
   style="stop-color:#389109"
   id="stop13460" />

		<stop
   offset="0.7811"
   style="stop-color:#458C1F"
   id="stop13462" />

		<stop
   offset="0.7857"
   style="stop-color:#458C20"
   id="stop13464" />

		<stop
   offset="0.8807"
   style="stop-color:#57A22F"
   id="stop13466" />

		<stop
   offset="1"
   style="stop-color:#71C446"
   id="stop13468" />

	</linearGradient>

	<path
   d="M 306.591,181.519 L 306.435,183.511 L 306.435,183.698 C 306.49,183.588 307.099,183.606 307.189,182.981 C 307.262,182.456 306.925,182.098 306.831,181.924 C 306.735,181.75 306.713,181.721 306.641,181.449 C 306.638,181.438 306.635,181.429 306.631,181.426 L 306.591,181.519 z "
   id="path7316"
   style="fill:url(#SVGID_126_)" />

	
		<linearGradient
   id="linearGradient13471"
   gradientUnits="userSpaceOnUse"
   x1="4759.9468"
   y1="2939.1147"
   x2="4762.0337"
   y2="2937.718"
   gradientTransform="matrix(-0.4481,-0.894,-0.894,0.4481,5066.8096,3122.3411)">
		<stop
   offset="0"
   style="stop-color:#4C9C23"
   id="stop13473" />

		<stop
   offset="0.0276"
   style="stop-color:#61B237"
   id="stop13475" />

		<stop
   offset="0.0769"
   style="stop-color:#8EE361"
   id="stop13477" />

		<stop
   offset="0.6209"
   style="stop-color:#4C9C23"
   id="stop13479" />

		<stop
   offset="1"
   style="stop-color:#4C9C23"
   id="stop13481" />

	</linearGradient>

	<path
   d="M 306.257,184.005 C 306.355,183.89 306.437,183.828 306.445,183.596 C 306.454,183.366 306.533,182.51 306.543,182.315 C 306.552,182.12 306.594,181.592 306.604,181.534 C 306.614,181.476 306.653,181.43 306.624,181.423 C 306.606,181.419 306.595,181.431 306.583,181.528 C 306.571,181.625 306.505,182.579 306.48,182.734 C 306.455,182.889 306.43,183.399 306.398,183.551 C 306.367,183.703 306.364,183.766 306.309,183.846 C 306.254,183.926 306.227,183.967 306.215,183.979 C 306.205,183.988 306.234,184.034 306.257,184.005 z "
   id="path7329"
   style="fill:url(#SVGID_127_)" />

	
		<linearGradient
   id="linearGradient13484"
   gradientUnits="userSpaceOnUse"
   x1="4760.2583"
   y1="2938.0073"
   x2="4760.9277"
   y2="2939.0029"
   gradientTransform="matrix(-0.4481,-0.894,-0.894,0.4481,5066.8096,3122.3411)">
		<stop
   offset="0"
   style="stop-color:#8EE361"
   id="stop13486" />

		<stop
   offset="0.489"
   style="stop-color:#4C9C23"
   id="stop13488" />

		<stop
   offset="0.5549"
   style="stop-color:#4C9C23"
   id="stop13490" />

		<stop
   offset="0.7149"
   style="stop-color:#61B237"
   id="stop13492" />

		<stop
   offset="1"
   style="stop-color:#8EE361"
   id="stop13494" />

	</linearGradient>

	<path
   d="M 306.464,183.303 C 306.661,183.143 306.812,183.196 307.1,182.982 C 306.868,183.136 306.669,183.145 306.467,183.266 L 306.464,183.303 z "
   id="path7342"
   style="fill:url(#SVGID_128_)" />

	
		<linearGradient
   id="linearGradient13497"
   gradientUnits="userSpaceOnUse"
   x1="4760.6626"
   y1="2937.7368"
   x2="4761.3306"
   y2="2938.73"
   gradientTransform="matrix(-0.4481,-0.894,-0.894,0.4481,5066.8096,3122.3411)">
		<stop
   offset="0"
   style="stop-color:#8EE361"
   id="stop13499" />

		<stop
   offset="0.489"
   style="stop-color:#4C9C23"
   id="stop13501" />

		<stop
   offset="0.5549"
   style="stop-color:#4C9C23"
   id="stop13503" />

		<stop
   offset="0.7149"
   style="stop-color:#61B237"
   id="stop13505" />

		<stop
   offset="1"
   style="stop-color:#8EE361"
   id="stop13507" />

	</linearGradient>

	<path
   d="M 306.505,182.796 C 306.622,182.672 306.876,182.647 307.097,182.514 C 306.9,182.612 306.613,182.656 306.509,182.768 L 306.505,182.796 z "
   id="path7355"
   style="fill:url(#SVGID_129_)" />

	
		<linearGradient
   id="linearGradient13510"
   gradientUnits="userSpaceOnUse"
   x1="4761.0142"
   y1="2937.4966"
   x2="4761.686"
   y2="2938.4956"
   gradientTransform="matrix(-0.4481,-0.894,-0.894,0.4481,5066.8096,3122.3411)">
		<stop
   offset="0"
   style="stop-color:#8EE361"
   id="stop13512" />

		<stop
   offset="0.489"
   style="stop-color:#4C9C23"
   id="stop13514" />

		<stop
   offset="0.5549"
   style="stop-color:#4C9C23"
   id="stop13516" />

		<stop
   offset="0.7149"
   style="stop-color:#61B237"
   id="stop13518" />

		<stop
   offset="1"
   style="stop-color:#8EE361"
   id="stop13520" />

	</linearGradient>

	<path
   d="M 306.542,182.323 C 306.697,182.189 306.742,182.248 306.87,182.103 C 306.737,182.222 306.649,182.208 306.542,182.3 L 306.542,182.323 z "
   id="path7368"
   style="fill:url(#SVGID_130_)" />

	
		<linearGradient
   id="linearGradient13523"
   gradientUnits="userSpaceOnUse"
   x1="4760.3872"
   y1="2938.6147"
   x2="4761.416"
   y2="2939.0264"
   gradientTransform="matrix(-0.4481,-0.894,-0.894,0.4481,5066.8096,3122.3411)">
		<stop
   offset="0"
   style="stop-color:#8EE361"
   id="stop13525" />

		<stop
   offset="0.1415"
   style="stop-color:#86DA5A"
   id="stop13527" />

		<stop
   offset="0.3672"
   style="stop-color:#71C345"
   id="stop13529" />

		<stop
   offset="0.6477"
   style="stop-color:#4E9E25"
   id="stop13531" />

		<stop
   offset="0.6593"
   style="stop-color:#4C9C23"
   id="stop13533" />

	</linearGradient>

	<path
   d="M 306.427,183.301 C 306.277,183.233 306.147,183.122 306.027,182.768 C 306.221,183.225 306.366,183.245 306.431,183.268 L 306.427,183.301 z "
   id="path7381"
   style="fill:url(#SVGID_131_)" />

	
		<linearGradient
   id="linearGradient13536"
   gradientUnits="userSpaceOnUse"
   x1="4760.7173"
   y1="2938.2388"
   x2="4761.4614"
   y2="2938.5803"
   gradientTransform="matrix(-0.4481,-0.894,-0.894,0.4481,5066.8096,3122.3411)">
		<stop
   offset="0"
   style="stop-color:#83D857"
   id="stop13538" />

		<stop
   offset="0.7637"
   style="stop-color:#5DAE33"
   id="stop13540" />

	</linearGradient>

	<path
   d="M 306.469,182.805 C 306.32,182.736 306.215,182.551 306.171,182.268 C 306.245,182.579 306.355,182.739 306.472,182.78 L 306.469,182.805 z "
   id="path7388"
   style="fill:url(#SVGID_132_)" />

	
		<linearGradient
   id="linearGradient13543"
   gradientUnits="userSpaceOnUse"
   x1="4761.103"
   y1="2937.4351"
   x2="4761.7769"
   y2="2938.437"
   gradientTransform="matrix(-0.4481,-0.894,-0.894,0.4481,5066.8096,3122.3411)">
		<stop
   offset="0"
   style="stop-color:#8EE361"
   id="stop13545" />

		<stop
   offset="0.489"
   style="stop-color:#4C9C23"
   id="stop13547" />

		<stop
   offset="0.5549"
   style="stop-color:#4C9C23"
   id="stop13549" />

	</linearGradient>

	<path
   d="M 306.517,182.326 C 306.41,182.235 306.475,182.058 306.438,181.824 C 306.484,182.017 306.443,182.254 306.52,182.302 L 306.517,182.326 z "
   id="path7397"
   style="fill:url(#SVGID_133_)" />

</g>
  </g>
</svg>
