<?xml version="1.0" encoding="UTF-8" standalone="no"?>
<svg
   xmlns:dc="http://purl.org/dc/elements/1.1/"
   xmlns:cc="http://creativecommons.org/ns#"
   xmlns:rdf="http://www.w3.org/1999/02/22-rdf-syntax-ns#"
   xmlns:svg="http://www.w3.org/2000/svg"
   xmlns="http://www.w3.org/2000/svg"
   xmlns:xlink="http://www.w3.org/1999/xlink"
   xmlns:sodipodi="http://sodipodi.sourceforge.net/DTD/sodipodi-0.dtd"
   xmlns:inkscape="http://www.inkscape.org/namespaces/inkscape"
   viewBox="0 0 48 48"
   version="1.1"
   id="svg219"
   sodipodi:docname="tree_palm.svg"
   inkscape:version="1.0.1 (3bc2e813f5, 2020-09-07)">
  <metadata
     id="metadata223">
    <rdf:RDF>
      <cc:Work
         rdf:about="">
        <dc:format>image/svg+xml</dc:format>
        <dc:type
           rdf:resource="http://purl.org/dc/dcmitype/StillImage" />
      </cc:Work>
    </rdf:RDF>
  </metadata>
  <sodipodi:namedview
     pagecolor="#ffffff"
     bordercolor="#666666"
     borderopacity="1"
     objecttolerance="10"
     gridtolerance="10"
     guidetolerance="10"
     inkscape:pageopacity="0"
     inkscape:pageshadow="2"
     inkscape:window-width="2560"
     inkscape:window-height="1377"
     id="namedview221"
     showgrid="false"
     inkscape:zoom="15.3125"
     inkscape:cx="24"
     inkscape:cy="24"
     inkscape:window-x="-8"
     inkscape:window-y="-8"
     inkscape:window-maximized="1"
     inkscape:current-layer="svg219" />
  <defs
     id="defs81">
    <style
       id="style2">.cls-1,.cls-10,.cls-15,.cls-31,.cls-8{fill:none;}.cls-2{fill:url(#linear-gradient);}.cls-3{fill:#cf9e4f;}.cls-4{isolation:isolate;}.cls-5{fill:#d0d0d0;}.cls-6{fill:#4e9a06;}.cls-10,.cls-6,.cls-8{stroke:#4e9a06;stroke-width:0.35px;}.cls-6,.cls-8{stroke-linecap:square;stroke-linejoin:bevel;}.cls-7{fill:url(#linear-gradient-2);}.cls-9{fill:url(#linear-gradient-3);}.cls-10,.cls-15,.cls-31{stroke-miterlimit:10;}.cls-11{fill:url(#linear-gradient-4);}.cls-12{fill:url(#linear-gradient-5);}.cls-13,.cls-14,.cls-17,.cls-18,.cls-19{opacity:0.36;}.cls-13{fill:url(#linear-gradient-6);}.cls-14{fill:url(#linear-gradient-7);}.cls-15,.cls-31{stroke-width:0.7px;}.cls-15{stroke:url(#linear-gradient-8);}.cls-16{fill:url(#linear-gradient-9);}.cls-17{fill:url(#linear-gradient-10);}.cls-18{fill:url(#linear-gradient-11);}.cls-20{fill:url(#linear-gradient-12);}.cls-21{mix-blend-mode:multiply;fill:url(#radial-gradient);}.cls-22{clip-path:url(#clip-path);}.cls-23{fill:url(#linear-gradient-13);}.cls-24{fill:url(#linear-gradient-14);}.cls-25{fill:url(#linear-gradient-15);}.cls-26{fill:url(#linear-gradient-16);}.cls-27{clip-path:url(#clip-path-2);}.cls-28{fill:url(#linear-gradient-18);}.cls-29{opacity:0.9;}.cls-30{fill:#f4dcb6;}.cls-31{stroke:#c17d11;}.cls-32{clip-path:url(#clip-path-3);}.cls-33{fill:url(#linear-gradient-19);}.cls-34{fill:url(#linear-gradient-20);}.cls-35{fill:url(#linear-gradient-21);}.cls-36{fill:url(#linear-gradient-22);}.cls-37{fill:url(#linear-gradient-23);}.cls-38{fill:url(#linear-gradient-24);}.cls-39{fill:url(#linear-gradient-25);}.cls-40{fill:url(#linear-gradient-26);}.cls-41{fill:url(#linear-gradient-27);}.cls-42{fill:url(#linear-gradient-28);}</style>
    <linearGradient
       id="linear-gradient"
       x1="22.62"
       y1="32.01"
       x2="14.88"
       y2="16.31"
       gradientUnits="userSpaceOnUse">
      <stop
         offset="0"
         stop-color="#e9b96e"
         id="stop4" />
      <stop
         offset="1"
         stop-color="#8f5902"
         id="stop6" />
    </linearGradient>
    <linearGradient
       id="linear-gradient-2"
       x1="33.01"
       y1="14.15"
       x2="31.48"
       y2="19.45"
       gradientTransform="matrix(0.93, 0.37, -0.37, 0.93, 8.47, -8.96)"
       gradientUnits="userSpaceOnUse">
      <stop
         offset="0"
         stop-color="#8ae234"
         id="stop9" />
      <stop
         offset="0.35"
         stop-color="#73d216"
         id="stop11" />
      <stop
         offset="1"
         stop-color="#4e9a06"
         id="stop13" />
    </linearGradient>
    <linearGradient
       id="linear-gradient-3"
       x1="30.11"
       y1="13.51"
       x2="29.33"
       y2="18.78"
       gradientTransform="matrix(1.12, 0.34, -0.62, 0.8, 6.84, -6.47)"
       gradientUnits="userSpaceOnUse">
      <stop
         offset="0"
         stop-color="#8ae234"
         id="stop16" />
      <stop
         offset="0.35"
         stop-color="#73d216"
         id="stop18" />
      <stop
         offset="1"
         stop-color="#4e9a06"
         id="stop20" />
    </linearGradient>
    <linearGradient
       id="linear-gradient-4"
       x1="6.72"
       y1="10.44"
       x2="16.65"
       y2="10.44"
       gradientTransform="matrix(0.92,0.4,-0.4,0.92,5.58,-3.8)"
       xlink:href="#linear-gradient-2" />
    <linearGradient
       id="linear-gradient-5"
       x1="17.93"
       y1="24.45"
       x2="27.28"
       y2="47.39"
       gradientUnits="userSpaceOnUse">
      <stop
         offset="0"
         stop-color="#fff"
         id="stop24" />
      <stop
         offset="1"
         stop-color="#e9b96e"
         id="stop26" />
    </linearGradient>
    <linearGradient
       id="linear-gradient-6"
       x1="22.17"
       y1="33.84"
       x2="14.61"
       y2="38.03"
       gradientTransform="translate(1.67 -0.62) rotate(2.46)"
       gradientUnits="userSpaceOnUse">
      <stop
         offset="0"
         stop-color="#c17d11"
         id="stop29" />
      <stop
         offset="1"
         stop-color="#e9b96e"
         id="stop31" />
    </linearGradient>
    <linearGradient
       id="linear-gradient-7"
       x1="25.24"
       y1="35.84"
       x2="29.08"
       y2="35.84"
       xlink:href="#linear-gradient-6" />
    <linearGradient
       id="linear-gradient-8"
       x1="23.49"
       y1="43.91"
       x2="23.49"
       y2="31.03"
       xlink:href="#linear-gradient-6" />
    <linearGradient
       id="linear-gradient-9"
       x1="18.77"
       y1="24.96"
       x2="28.2"
       y2="48.11"
       xlink:href="#linear-gradient-5" />
    <linearGradient
       id="linear-gradient-10"
       x1="31.37"
       y1="43.41"
       x2="25.72"
       y2="39.73"
       xlink:href="#linear-gradient-6" />
    <linearGradient
       id="linear-gradient-11"
       x1="26.06"
       y1="37.24"
       x2="39.01"
       y2="37.24"
       gradientTransform="rotate(8.25,30.076453,37.275439)"
       xlink:href="#linear-gradient-6" />
    <linearGradient
       id="linear-gradient-12"
       x1="25.31"
       y1="41.96"
       x2="21.38"
       y2="39.22"
       xlink:href="#linear-gradient-6" />
    <radialGradient
       id="radial-gradient"
       cx="24.38"
       cy="35.63"
       r="9.77"
       gradientTransform="matrix(1.1,0,0,0.28,-2.32,25.85)"
       gradientUnits="userSpaceOnUse">
      <stop
         offset="0.02"
         stop-color="#72461e"
         stop-opacity="0.8"
         id="stop40" />
      <stop
         offset="0.62"
         stop-color="#72461e"
         stop-opacity="0.4"
         id="stop42" />
      <stop
         offset="1"
         stop-color="#72461e"
         stop-opacity="0"
         id="stop44" />
    </radialGradient>
    <clipPath
       id="clip-path">
      <path
         class="cls-1"
         d="M18.21,37.74c1.18-.47,4-1.88,6.59-.57a8.22,8.22,0,0,0,5.74.86s6-8.57,7.15-14,2.4-13.69-1.16-15.38-17-5.16-24.76-5.16-6.47,12.25-6,14.83,7.92,15.32,7.92,15.32Z"
         id="path47" />
    </clipPath>
    <linearGradient
       id="linear-gradient-13"
       x1="13.52"
       y1="6.45"
       x2="14.72"
       y2="11.91"
       gradientTransform="rotate(11.31,15.059584,12.02112)"
       xlink:href="#linear-gradient-2" />
    <linearGradient
       id="linear-gradient-14"
       x1="20.21"
       y1="6.96"
       x2="17.92"
       y2="13.38"
       xlink:href="#linear-gradient-3" />
    <linearGradient
       id="linear-gradient-15"
       x1="26.43"
       y1="13.18"
       x2="28.46"
       y2="19.25"
       gradientTransform="matrix(0.87,0.5,-0.5,0.87,12.35,-11.59)"
       xlink:href="#linear-gradient-3" />
    <linearGradient
       id="linear-gradient-16"
       x1="26.65"
       y1="15.34"
       x2="24.98"
       y2="17.5"
       gradientTransform="matrix(0.84,0.55,-0.55,0.84,13.89,-11.62)"
       xlink:href="#linear-gradient-2" />
    <clipPath
       id="clip-path-2">
      <path
         class="cls-2"
         d="M16.87,13.92a38.5,38.5,0,0,1,5.68,10.8,36.29,36.29,0,0,1,1.85,13.7H21.92s-.44-9.24-1.56-13.25-3.39-9-4.8-10.3"
         id="path54" />
    </clipPath>
    <linearGradient
       id="linear-gradient-18"
       x1="26.13"
       y1="26.22"
       x2="21.2"
       y2="26.22"
       gradientTransform="matrix(1, 0, 0.01, 0.99, -0.37, 0.27)"
       gradientUnits="userSpaceOnUse">
      <stop
         offset="0"
         stop-color="#c17d11"
         stop-opacity="0"
         id="stop57" />
      <stop
         offset="1"
         stop-color="#8f5902"
         id="stop59" />
    </linearGradient>
    <clipPath
       id="clip-path-3">
      <path
         class="cls-3"
         d="M23.53,37.87s.28-7.44,1.61-11.61a36.65,36.65,0,0,1,3.36-7.42l.33.13A35.82,35.82,0,0,0,26,29.28a46,46,0,0,0-.24,9.7Z"
         id="path62" />
    </clipPath>
    <linearGradient
       id="linear-gradient-19"
       x1="15.91"
       y1="28.94"
       x2="24.19"
       y2="28.52"
       xlink:href="#linear-gradient-18" />
    <linearGradient
       id="linear-gradient-20"
       x1="30.96"
       y1="17.63"
       x2="33.99"
       y2="23.91"
       gradientTransform="translate(0.07,0.38)"
       xlink:href="#linear-gradient-2" />
    <linearGradient
       id="linear-gradient-21"
       x1="26.62"
       y1="18.52"
       x2="26.38"
       y2="23.05"
       gradientTransform="rotate(19.87,27.101233,17.995858)"
       xlink:href="#linear-gradient-2" />
    <linearGradient
       id="linear-gradient-22"
       x1="13.88"
       y1="13.39"
       x2="13.43"
       y2="11.13"
       gradientUnits="userSpaceOnUse">
      <stop
         offset="0"
         stop-color="#73d216"
         id="stop68" />
      <stop
         offset="0.53"
         stop-color="#4e9a06"
         id="stop70" />
      <stop
         offset="1"
         stop-color="#3b7305"
         id="stop72" />
    </linearGradient>
    <linearGradient
       id="linear-gradient-23"
       x1="10.34"
       y1="12.38"
       x2="9.5"
       y2="19"
       gradientTransform="matrix(1.05,0.03,0.14,1.01,-2.62,-1.07)"
       xlink:href="#linear-gradient-2" />
    <linearGradient
       id="linear-gradient-24"
       x1="22.41"
       y1="11.91"
       x2="17.04"
       y2="17.71"
       gradientTransform="rotate(-13.65,16.561994,13.508129)"
       xlink:href="#linear-gradient-2" />
    <linearGradient
       id="linear-gradient-25"
       x1="13.44"
       y1="14.06"
       x2="12.82"
       y2="20.54"
       xlink:href="#linear-gradient-2" />
    <linearGradient
       id="linear-gradient-26"
       x1="18.26"
       y1="13.96"
       x2="20.2"
       y2="18.68"
       xlink:href="#linear-gradient-2" />
    <linearGradient
       id="linear-gradient-27"
       x1="15.7"
       y1="15.8"
       x2="18.04"
       y2="23.02"
       xlink:href="#linear-gradient-2" />
    <linearGradient
       id="linear-gradient-28"
       x1="29.98"
       y1="19.39"
       x2="31.2"
       y2="25.26"
       gradientTransform="rotate(5.62,22.913495,17.459982)"
       xlink:href="#linear-gradient-2" />
    <linearGradient
       inkscape:collect="always"
       xlink:href="#linear-gradient-2"
       id="linearGradient1048"
       gradientUnits="userSpaceOnUse"
       gradientTransform="matrix(0.93,0.37,-0.37,0.93,8.47,-8.96)"
       x1="33.01"
       y1="14.15"
       x2="31.48"
       y2="19.45" />
    <linearGradient
       inkscape:collect="always"
       xlink:href="#linear-gradient-3"
       id="linearGradient1050"
       gradientUnits="userSpaceOnUse"
       gradientTransform="matrix(1.12,0.34,-0.62,0.8,6.84,-6.47)"
       x1="30.11"
       y1="13.51"
       x2="29.33"
       y2="18.78" />
    <linearGradient
       inkscape:collect="always"
       xlink:href="#linear-gradient-5"
       id="linearGradient1052"
       gradientUnits="userSpaceOnUse"
       x1="17.93"
       y1="24.45"
       x2="27.28"
       y2="47.39" />
    <linearGradient
       inkscape:collect="always"
       xlink:href="#linear-gradient-6"
       id="linearGradient1054"
       gradientUnits="userSpaceOnUse"
       gradientTransform="rotate(2.46,15.273181,38.57994)"
       x1="22.17"
       y1="33.84"
       x2="14.61"
       y2="38.03" />
    <linearGradient
       inkscape:collect="always"
       xlink:href="#linear-gradient"
       id="linearGradient1056"
       gradientUnits="userSpaceOnUse"
       x1="22.62"
       y1="32.01"
       x2="14.88"
       y2="16.31" />
    <linearGradient
       inkscape:collect="always"
       xlink:href="#linear-gradient-18"
       id="linearGradient1058"
       gradientUnits="userSpaceOnUse"
       gradientTransform="matrix(1,0,0.01,0.99,-0.37,0.27)"
       x1="26.13"
       y1="26.22"
       x2="21.2"
       y2="26.22" />
  </defs>
  <title
     id="title83">12-PalmTree</title>
  <g
     id="ART"
     style="isolation:isolate;stroke-width:0.837573"
     transform="matrix(1.1940998,0,0,1.1937514,-3.0227982,-4.3369853)">
    <path
       class="cls-6"
       d="m 36.89,17.43 a 3.58,3.58 0 0 1 0.17,1.5 2.56,2.56 0 0 0 -0.75,-1.53 6,6 0 0 0 -1.45,-0.95 4.67,4.67 0 0 1 1.75,0.71 1.2,1.2 0 0 1 0.28,0.27 z"
       id="path88" />
    <path
       class="cls-7"
       d="m 28.33,18.68 c 0,0 2.25,-2.38 4,-2.82 1.75,-0.44 2.56,0 2.75,0.21 0.19,0.21 0.28,0.27 1,0.61 0.72,0.34 0.88,0.75 0.88,0.75 A 1.55,1.55 0 0 0 35.71,17 a 23.2,23.2 0 0 0 -4.69,0.91 6.57,6.57 0 0 0 -1.75,1 z"
       id="path90"
       style="fill:url(#linearGradient1048);stroke-width:0.837573" />
    <path
       class="cls-8"
       d="m 28.33,18.68 c 0,0 2.25,-2.38 4,-2.82 1.75,-0.44 2.56,0 2.75,0.21 0.19,0.21 0.28,0.27 1,0.61 0.72,0.34 0.88,0.75 0.88,0.75 A 1.55,1.55 0 0 0 35.71,17 a 23.2,23.2 0 0 0 -4.69,0.91 6.57,6.57 0 0 0 -1.75,1 z"
       id="path92" />
    <path
       class="cls-9"
       d="m 34.58,11.94 a 9.48,9.48 0 0 0 -2.06,0.82 c 0,0.39 -0.09,1 -0.09,1 L 32,13.1 a 9.65,9.65 0 0 0 -1.56,1.22 8.55,8.55 0 0 0 -2.14,4.08 l 0.73,0.15 a 27.11,27.11 0 0 0 4.5,-3.6 5.68,5.68 0 0 0 1.05,-3.01 z"
       id="path94"
       style="fill:url(#linearGradient1050);stroke-width:0.837573" />
    <path
       class="cls-10"
       d="m 34.58,11.94 a 9.48,9.48 0 0 0 -2.06,0.82 c 0,0.39 -0.09,1 -0.09,1 L 32,13.1 a 9.65,9.65 0 0 0 -1.56,1.22 8.55,8.55 0 0 0 -2.14,4.08 l 0.73,0.15 a 27.11,27.11 0 0 0 4.5,-3.6 5.68,5.68 0 0 0 1.05,-3.01 z"
       id="path96" />
    <path
       class="cls-11"
       d="m 7.63,8.23 c 0,0 4.21,0.21 6.16,1.49 A 6.85,6.85 0 0 1 16.36,13 l -0.33,0.75 c 0,0 -3.23,-2.26 -4.26,-3.06 A 46.76,46.76 0 0 0 7.63,8.23 Z"
       id="path98"
       style="fill:url(#linear-gradient-4);stroke-width:0.837573" />
    <path
       class="cls-10"
       d="m 7.63,8.23 c 0,0 4.21,0.21 6.16,1.49 A 6.85,6.85 0 0 1 16.36,13 l -0.33,0.75 c 0,0 -3.23,-2.26 -4.26,-3.06 A 46.76,46.76 0 0 0 7.63,8.23 Z"
       id="path100" />
    <path
       class="cls-12"
       d="m 19.37,32.14 c -2.79,0.9 -5.93,2 -9.47,3.45 -2.5,1 -3.76,1.49 -3.73,3.12 0.03,1.63 2.28,1.38 4.6,1.82 a 45,45 0 0 1 7.64,2.31 c 2.12,0.89 6.52,0.7 8.87,0.7 2.35,0 5.29,-0.48 7.14,-2.08 a 14.53,14.53 0 0 1 5.21,-2.75 c 1.5,-0.52 1.86,-2 -0.65,-3.14 a 68.91,68.91 0 0 0 -7.42,-2.8 c -0.53,-0.17 -3,-0.8 -5,-1.18 a 15.45,15.45 0 0 0 -7.19,0.55 z"
       id="path102"
       style="fill:url(#linearGradient1052);stroke-width:0.837573" />
    <path
       class="cls-13"
       d="m 23.28,36.58 c 0,0 -0.1,-2.07 -3.63,-0.92 -3.53,1.15 -8.33,3.06 -10.72,2.34 0,0 1.39,0.83 5.25,0.5 3.86,-0.33 6,-2.04 9.1,-1.92 z"
       id="path104"
       style="fill:url(#linearGradient1054);stroke-width:0.837573" />
    <path
       class="cls-14"
       d="m 24.36,35.05 a 2.73,2.73 0 0 0 2,0.69 c 1.35,0 3.6,-1 5.76,0.52 a 6.54,6.54 0 0 0 -3.6,0 4.22,4.22 0 0 1 -4.37,-0.56"
       id="path106"
       style="fill:url(#linear-gradient-7);stroke-width:0.837573" />
    <path
       class="cls-15"
       d="m 19.37,32.14 c -2.79,0.9 -5.93,2 -9.47,3.45 -2.5,1 -3.76,1.49 -3.73,3.12 0.03,1.63 2.28,1.38 4.6,1.82 a 45,45 0 0 1 7.64,2.31 c 2.12,0.89 6.52,0.7 8.87,0.7 2.35,0 5.29,-0.48 7.14,-2.08 a 14.53,14.53 0 0 1 5.21,-2.75 c 1.5,-0.52 1.86,-2 -0.65,-3.14 a 68.91,68.91 0 0 0 -7.42,-2.8 c -0.53,-0.17 -3,-0.8 -5,-1.18 a 15.45,15.45 0 0 0 -7.19,0.55 z"
       id="path108"
       style="stroke:url(#linear-gradient-8)" />
    <path
       class="cls-16"
       d="m 18.21,37.74 c 1.18,-0.47 4,-1.88 6.59,-0.57 a 8.22,8.22 0 0 0 5.74,0.86 c 1.18,-0.27 2.13,-0.32 0.7,1.09 0,0.26 -0.75,0.52 -0.94,0.65 a 13.87,13.87 0 0 0 -1.08,0.93 5.17,5.17 0 0 1 -1.24,0.88 5.75,5.75 0 0 1 -3.68,-0.11 c -1.52,-0.4 -3,-0.42 -4.56,-0.78 -0.71,-0.17 -2.54,-0.45 -2.89,-1.17 -0.35,-0.72 1.36,-1.78 1.36,-1.78 z"
       id="path110"
       style="fill:url(#linear-gradient-9);stroke-width:0.837573" />
    <path
       class="cls-17"
       d="m 19.29,41.28 a 11.22,11.22 0 0 0 6.57,0.24 c 3.17,-0.85 5.75,-2.21 8.51,-1.89 a 9.94,9.94 0 0 0 -6.59,-0.11 c -3.9,1.16 -4.13,2.1 -8.49,1.76 z"
       id="path112"
       style="fill:url(#linear-gradient-10);stroke-width:0.837573" />
    <path
       class="cls-18"
       d="m 26,37.67 a 26.72,26.72 0 0 0 4.49,0.39 c 2.44,0 3.81,-0.43 5.58,-0.39 a 10.1,10.1 0 0 1 2.95,0.47 8.76,8.76 0 0 0 -4.37,-1.22 C 31.86,36.81 28.58,38.11 26,37.67 Z"
       id="path114"
       style="fill:url(#linear-gradient-11);stroke-width:0.837573" />
    <g
       class="cls-19"
       id="g118"
       style="stroke-width:0.837573">
      <path
         class="cls-20"
         d="m 25.87,38.88 c 0,0 -2.65,-1.08 -4.63,-0.07 a 10,10 0 0 1 -3.93,1 c 0,0 0.89,0.69 2.91,0.17 2.02,-0.52 3.93,-1.21 5.65,-1.1 z"
         id="path116"
         style="fill:url(#linear-gradient-12);stroke-width:0.837573" />
    </g>
    <ellipse
       class="cls-21"
       cx="24.379999"
       cy="35.84"
       rx="11.41"
       ry="3.04"
       id="ellipse120"
       style="fill:url(#radial-gradient);stroke-width:0.837573" />
    <g
       class="cls-22"
       clip-path="url(#clip-path)"
       id="g210"
       style="stroke-width:0.837573">
      <path
         class="cls-23"
         d="M 12.78,4.07 A 8,8 0 0 1 16,7.79 8.39,8.39 0 0 1 15.79,14.17 c 0,0 -1,-2.78 -1.76,-4.71 A 29.14,29.14 0 0 1 12.76,4.07 Z"
         id="path122"
         style="fill:url(#linear-gradient-13);stroke-width:0.837573" />
      <path
         class="cls-10"
         d="M 12.78,4.07 A 8,8 0 0 1 16,7.79 8.39,8.39 0 0 1 15.79,14.17 c 0,0 -1,-2.78 -1.76,-4.71 A 29.14,29.14 0 0 1 12.76,4.07 Z"
         id="path124" />
      <path
         class="cls-24"
         d="m 16,13.64 c 0,0 -0.84,-3.79 0.36,-5.5 A 4.75,4.75 0 0 1 21.7,6.64 2.88,2.88 0 0 1 23.36,8 3.26,3.26 0 0 0 20.25,7.92 9,9 0 0 0 17,12.72 c -0.32,1.53 -1.44,1.46 -1.44,1.46"
         id="path126"
         style="fill:url(#linear-gradient-14);stroke-width:0.837573" />
      <path
         class="cls-10"
         d="m 16,13.64 c 0,0 -0.84,-3.79 0.36,-5.5 A 4.75,4.75 0 0 1 21.7,6.64 2.88,2.88 0 0 1 23.36,8 3.26,3.26 0 0 0 20.25,7.92 9,9 0 0 0 17,12.72 c -0.32,1.53 -1.44,1.46 -1.44,1.46"
         id="path128" />
      <path
         class="cls-25"
         d="m 28.89,18.34 a 24.74,24.74 0 0 0 -1,-6.4 1.72,1.72 0 0 0 -1.39,-1.18 3,3 0 0 1 2.3,0.78 2.67,2.67 0 0 1 1.59,1.66 4,4 0 0 1 -0.09,3.57 9.07,9.07 0 0 1 -1.41,1.57"
         id="path130"
         style="fill:url(#linear-gradient-15);stroke-width:0.837573" />
      <path
         class="cls-10"
         d="m 28.89,18.34 a 25.21,25.21 0 0 0 -1,-6.4 2.21,2.21 0 0 0 -1.39,-1.18 3,3 0 0 1 2.3,0.78 2.67,2.67 0 0 1 1.59,1.66 4,4 0 0 1 -0.09,3.57 9.07,9.07 0 0 1 -1.41,1.57"
         id="path132" />
      <path
         class="cls-26"
         d="m 28.9,19.09 a 6.16,6.16 0 0 0 -2.41,-3.23 10.26,10.26 0 0 0 -4.23,-2 6.73,6.73 0 0 1 4.65,0.89 c 2.65,1.44 2.26,3.82 2,4.34 z"
         id="path134"
         style="fill:url(#linear-gradient-16);stroke-width:0.837573" />
      <path
         class="cls-10"
         d="m 28.9,19.09 a 6.16,6.16 0 0 0 -2.41,-3.23 10.26,10.26 0 0 0 -4.23,-2 6.73,6.73 0 0 1 4.65,0.89 c 2.65,1.44 2.26,3.82 2,4.34 z"
         id="path136" />
      <path
         class="cls-2"
         d="m 16.87,13.92 a 38.5,38.5 0 0 1 5.68,10.8 36.29,36.29 0 0 1 1.85,13.7 h -2.48 c 0,0 -0.44,-9.24 -1.56,-13.25 -1.12,-4.01 -3.39,-9 -4.8,-10.3"
         id="path138"
         style="fill:url(#linearGradient1056);stroke-width:0.837573" />
      <g
         class="cls-27"
         clip-path="url(#clip-path-2)"
         id="g156"
         style="stroke-width:0.837573">
        <path
           class="cls-28"
           d="m 16.6,14.47 a 49.59,49.59 0 0 1 4.88,11.2 44.89,44.89 0 0 1 1.84,12.55 H 20.77 L 17.86,22.7 15.38,14.38 Z"
           id="path140"
           style="fill:url(#linearGradient1058);stroke-width:0.837573" />
        <g
           class="cls-29"
           id="g154"
           style="stroke-width:0.837573">
          <path
             class="cls-30"
             d="m 23.73,32.77 a 4.07,4.07 0 0 0 -0.85,0.07 4.86,4.86 0 0 0 -1,0.31 1.6,1.6 0 0 0 1.1,0.07 1.15,1.15 0 0 0 0.75,-0.45 z"
             id="path142"
             style="stroke-width:0.837573" />
          <path
             class="cls-30"
             d="m 22.73,26.4 a 4.16,4.16 0 0 0 -0.86,0 4.94,4.94 0 0 0 -1,0.21 1.56,1.56 0 0 0 1.08,0.18 1.14,1.14 0 0 0 0.78,-0.39 z"
             id="path144"
             style="stroke-width:0.837573" />
          <path
             class="cls-30"
             d="m 21.17,22.23 a 2.59,2.59 0 0 0 -0.61,0.1 3.91,3.91 0 0 0 -0.68,0.28 1.12,1.12 0 0 0 0.78,0 0.84,0.84 0 0 0 0.51,-0.38 z"
             id="path146"
             style="stroke-width:0.837573" />
          <path
             class="cls-30"
             d="m 19.79,19.14 a 2.48,2.48 0 0 0 -0.93,0.6 4.55,4.55 0 0 1 1.42,-0.4"
             id="path148"
             style="stroke-width:0.837573" />
          <path
             class="cls-30"
             d="m 21.4,30.65 c 0,0 1,-0.22 1.67,-0.3 a 9.66,9.66 0 0 0 -1.63,0.61"
             id="path150"
             style="stroke-width:0.837573" />
          <path
             class="cls-30"
             d="m 22,35.66 c 0,0 0.82,0.11 1.5,0.15 0,0 -1,0.17 -1.5,0.2"
             id="path152"
             style="stroke-width:0.837573" />
        </g>
      </g>
      <path
         class="cls-31"
         d="m 16.87,13.92 a 38.5,38.5 0 0 1 5.68,10.8 36.29,36.29 0 0 1 1.85,13.7 h -2.48 c 0,0 -0.44,-9.24 -1.56,-13.25 -1.12,-4.01 -3.39,-9 -4.8,-10.3 z"
         id="path158" />
      <path
         class="cls-3"
         d="m 23.53,37.87 c 0,0 0.28,-7.44 1.61,-11.61 a 36.65,36.65 0 0 1 3.36,-7.42 l 0.33,0.13 A 35.82,35.82 0 0 0 26,29.28 a 46,46 0 0 0 -0.24,9.7 z"
         id="path160"
         style="stroke-width:0.837573" />
      <g
         class="cls-32"
         clip-path="url(#clip-path-3)"
         id="g164"
         style="stroke-width:0.837573">
        <path
           class="cls-33"
           d="m 28.54,18.46 c 0,0 -1.47,3.69 -2.62,7.32 -1.15,3.63 -1.42,9.4 -1.37,11.88 L 25,39.31 21.35,38.42 26.69,17.57"
           id="path162"
           style="fill:url(#linear-gradient-19);stroke-width:0.837573" />
      </g>
      <g
         class="cls-29"
         id="g174"
         style="stroke-width:0.837573">
        <path
           class="cls-30"
           d="m 26.41,23.33 a 1.26,1.26 0 0 1 0.43,0 0.57,0.57 0 0 1 0.36,0.19 c 0,0 -0.2,0.18 -0.79,-0.19 z"
           id="path166"
           style="stroke-width:0.837573" />
        <path
           class="cls-30"
           d="m 25.47,25.84 a 1.57,1.57 0 0 1 0.54,0 0.72,0.72 0 0 1 0.45,0.24 c 0,0 -0.3,0.22 -0.99,-0.24 z"
           id="path168"
           style="stroke-width:0.837573" />
        <path
           class="cls-30"
           d="m 24.46,29.53 a 1.88,1.88 0 0 1 0.65,-0.07 0.88,0.88 0 0 1 0.59,0.22 c 0,0 -0.33,0.32 -1.24,-0.15 z"
           id="path170"
           style="stroke-width:0.837573" />
        <path
           class="cls-30"
           d="m 23.89,32.66 a 2.11,2.11 0 0 1 0.8,-0.09 1.09,1.09 0 0 1 0.71,0.27 c 0,0 -0.4,0.39 -1.51,-0.18 z"
           id="path172"
           style="stroke-width:0.837573" />
      </g>
      <path
         class="cls-31"
         d="m 23.53,37.87 c 0,0 0.28,-7.44 1.61,-11.61 a 36.65,36.65 0 0 1 3.36,-7.42 l 0.33,0.13 A 35.82,35.82 0 0 0 26,29.28 a 46,46 0 0 0 -0.24,9.7 z"
         id="path176" />
      <path
         class="cls-34"
         d="m 35,20.31 a 3.7,3.7 0 0 0 -2.93,-2.45 5.54,5.54 0 0 0 -3.52,0.65 v 0 a 2.76,2.76 0 0 1 1.45,0.09 16.69,16.69 0 0 1 3.43,2.56 4,4 0 0 0 0.09,-1.26 7.34,7.34 0 0 1 0.4,1.71 8,8 0 0 1 1.19,1.78 A 10.78,10.78 0 0 0 35,20.31 Z"
         id="path178"
         style="fill:url(#linear-gradient-20);stroke-width:0.837573" />
      <path
         class="cls-10"
         d="m 35,20.31 a 3.7,3.7 0 0 0 -2.93,-2.45 5.54,5.54 0 0 0 -3.52,0.65 v 0 a 2.76,2.76 0 0 1 1.45,0.09 16.69,16.69 0 0 1 3.43,2.56 4,4 0 0 0 0.09,-1.26 7.34,7.34 0 0 1 0.4,1.71 8,8 0 0 1 1.19,1.78 A 10.78,10.78 0 0 0 35,20.31 Z"
         id="path180" />
      <path
         class="cls-35"
         d="m 28.68,18.49 a 2.91,2.91 0 0 0 -2.08,-0.83 3.62,3.62 0 0 0 -3.27,1.95 3.72,3.72 0 0 0 -0.21,2.54 5.45,5.45 0 0 1 1.27,-1.61 l 0.06,-0.7 0.3,0.41 a 6,6 0 0 1 1,-0.62 7.2,7.2 0 0 1 3.12,-0.87 z"
         id="path182"
         style="fill:url(#linear-gradient-21);stroke-width:0.837573" />
      <path
         class="cls-10"
         d="m 28.68,18.49 a 2.91,2.91 0 0 0 -2.08,-0.83 3.62,3.62 0 0 0 -3.27,1.95 3.72,3.72 0 0 0 -0.21,2.54 5.45,5.45 0 0 1 1.27,-1.61 l 0.06,-0.7 0.3,0.41 a 6,6 0 0 1 1,-0.62 7.2,7.2 0 0 1 3.12,-0.87 z"
         id="path184" />
      <path
         class="cls-36"
         d="m 14.1,12.1 a 5.28,5.28 0 0 1 1.29,1.56 3.64,3.64 0 0 1 0.5,1.27 c 0,0 -1.26,-2.25 -3.16,-2.58 -1.25,-0.17 -0.83,-0.53 -0.42,-0.55 h 1.21 z"
         id="path186"
         style="fill:url(#linear-gradient-22);stroke-width:0.837573" />
      <path
         class="cls-10"
         d="m 14.1,12.1 a 5.28,5.28 0 0 1 1.29,1.56 3.64,3.64 0 0 1 0.5,1.27 c 0,0 -1.18,-2.24 -3.16,-2.58 -1.25,-0.17 -0.83,-0.53 -0.42,-0.55 h 1.21 z"
         id="path188" />
      <path
         class="cls-37"
         d="M 13.44,11.61 C 13.18,11.48 12.57,11.25 12.06,11.07 A 2.54,2.54 0 0 0 10.41,11 7.15,7.15 0 0 0 8.33,12.18 8.75,8.75 0 0 0 5.81,15.8 23.28,23.28 0 0 0 10.1,14.16 l 0.63,-0.34 0.06,-1.09 0.55,0.72 a 4.25,4.25 0 0 0 1.26,-1.25 1,1 0 0 1 1.08,-0.36 1.48,1.48 0 0 1 0.52,0.33 2.36,2.36 0 0 0 -0.76,-0.56 z"
         id="path190"
         style="fill:url(#linear-gradient-23);stroke-width:0.837573" />
      <path
         class="cls-10"
         d="M 13.44,11.61 C 13.18,11.48 12.57,11.25 12.06,11.07 A 2.54,2.54 0 0 0 10.41,11 7.15,7.15 0 0 0 8.33,12.18 8.75,8.75 0 0 0 5.81,15.8 23.28,23.28 0 0 0 10.1,14.16 l 0.63,-0.34 0.06,-1.09 0.55,0.72 a 4.25,4.25 0 0 0 1.26,-1.25 1,1 0 0 1 1,-0.38 3.27,3.27 0 0 1 0.57,0.35 2.36,2.36 0 0 0 -0.73,-0.56 z"
         id="path192" />
      <path
         class="cls-38"
         d="M 20,10.06 A 7.82,7.82 0 0 0 16.16,14 c 1.43,0 4.38,-1.45 6,-2.32 a 3,3 0 0 0 -0.63,-0.82 6.36,6.36 0 0 1 1.2,0.53 2.53,2.53 0 0 1 0.82,-0.2 5.9,5.9 0 0 1 1.7,0.19 c 0,0 -2.61,-2.38 -5.25,-1.32 z"
         id="path194"
         style="fill:url(#linear-gradient-24);stroke-width:0.837573" />
      <path
         class="cls-10"
         d="M 20,10.06 A 7.82,7.82 0 0 0 16.16,14 c 1.43,0 4.38,-1.45 6,-2.32 a 3,3 0 0 0 -0.63,-0.82 6.36,6.36 0 0 1 1.2,0.53 2.53,2.53 0 0 1 0.82,-0.2 5.9,5.9 0 0 1 1.7,0.19 c 0,0 -2.61,-2.38 -5.25,-1.32 z"
         id="path196" />
      <path
         class="cls-39"
         d="m 16,13.67 a 11.32,11.32 0 0 0 -1.87,-0.24 c -0.88,0 -1.78,0.32 -2.74,2.16 -0.96,1.84 -1.77,4.86 -1.49,6.28 a 24.54,24.54 0 0 1 2.83,-5 15.5,15.5 0 0 1 3.64,-3 z"
         id="path198"
         style="fill:url(#linear-gradient-25);stroke-width:0.837573" />
      <path
         class="cls-10"
         d="m 16,13.67 a 11.32,11.32 0 0 0 -1.87,-0.24 c -0.88,0 -1.78,0.32 -2.74,2.16 -0.96,1.84 -1.77,4.86 -1.49,6.28 a 24.54,24.54 0 0 1 2.83,-5 15.5,15.5 0 0 1 3.64,-3 z"
         id="path200" />
      <path
         class="cls-40"
         d="m 16.49,13.15 a 6,6 0 0 1 2.51,-0.76 3.94,3.94 0 0 1 2.28,2.32 c 0.72,1.51 0.47,4.78 0.47,4.78 a 12.66,12.66 0 0 0 -1.58,-3.27 c -0.83,-1 -2.89,-2.54 -3.25,-2.46 a 3.67,3.67 0 0 0 -1,0.78 c 0,0 0.16,-1.11 0.57,-1.39 z"
         id="path202"
         style="fill:url(#linear-gradient-26);stroke-width:0.837573" />
      <path
         class="cls-10"
         d="m 16.49,13.15 a 6,6 0 0 1 2.51,-0.76 3.94,3.94 0 0 1 2.28,2.32 c 0.72,1.51 0.47,4.78 0.47,4.78 a 12.66,12.66 0 0 0 -1.58,-3.27 c -0.83,-1 -2.89,-2.54 -3.25,-2.46 a 3.67,3.67 0 0 0 -1,0.78 c 0,0 0.16,-1.11 0.57,-1.39 z"
         id="path204" />
      <path
         class="cls-41"
         d="m 16.88,18.3 1.24,0.3 a 13.44,13.44 0 0 0 -1.94,-4.7 8,8 0 0 0 -1.09,3.65 c -0.1,2.13 1,4.62 2.44,5.52 a 8.27,8.27 0 0 0 0.67,-3.6 z"
         id="path206"
         style="fill:url(#linear-gradient-27);stroke-width:0.837573" />
      <path
         class="cls-10"
         d="m 16.88,18.3 1.24,0.3 a 13.44,13.44 0 0 0 -1.94,-4.7 8,8 0 0 0 -1.09,3.65 c -0.1,2.13 1,4.62 2.44,5.52 a 8.27,8.27 0 0 0 0.67,-3.6 z"
         id="path208" />
    </g>
    <path
       class="cls-42"
       d="m 29,18.34 a 3.29,3.29 0 0 1 2.08,2.72 8.11,8.11 0 0 1 -1.8,5.42 c 0,0 -0.19,-2.27 -0.41,-3.88 A 21.57,21.57 0 0 1 29,18.34 Z"
       id="path212"
       style="fill:url(#linear-gradient-28);stroke-width:0.837573" />
    <path
       class="cls-10"
       d="m 29,18.34 a 3.29,3.29 0 0 1 2.08,2.72 8.11,8.11 0 0 1 -1.8,5.42 c 0,0 -0.19,-2.27 -0.41,-3.88 A 21.57,21.57 0 0 1 29,18.34 Z"
       id="path214" />
  </g>
</svg>
