<?xml version="1.0" encoding="UTF-8" standalone="no"?>
<!-- Generator: Adobe Illustrator 15.0.0, SVG Export Plug-In . SVG Version: 6.00 Build 0)  -->

<svg
   xmlns:dc="http://purl.org/dc/elements/1.1/"
   xmlns:cc="http://creativecommons.org/ns#"
   xmlns:rdf="http://www.w3.org/1999/02/22-rdf-syntax-ns#"
   xmlns:svg="http://www.w3.org/2000/svg"
   xmlns="http://www.w3.org/2000/svg"
   xmlns:xlink="http://www.w3.org/1999/xlink"
   xmlns:sodipodi="http://sodipodi.sourceforge.net/DTD/sodipodi-0.dtd"
   xmlns:inkscape="http://www.inkscape.org/namespaces/inkscape"
   version="1.0"
   id="Layer_1"
   x="0px"
   y="0px"
   width="48"
   height="48"
   viewBox="0 0 612 792"
   enable-background="new 0 0 612 792"
   xml:space="preserve"
   sodipodi:version="0.32"
   inkscape:version="0.48.4 r9939"
   sodipodi:docname="volcano.svg"
   inkscape:output_extension="org.inkscape.output.svg.inkscape"><metadata
   id="metadata35742"><rdf:RDF><cc:Work
       rdf:about=""><dc:format>image/svg+xml</dc:format><dc:type
         rdf:resource="http://purl.org/dc/dcmitype/StillImage" /></cc:Work></rdf:RDF></metadata><defs
   id="defs35740"><linearGradient
   inkscape:collect="always"
   id="linearGradient12213"><stop
     style="stop-color:#ef9529;stop-opacity:1;"
     offset="0"
     id="stop12215" /><stop
     style="stop-color:#ef9529;stop-opacity:0;"
     offset="1"
     id="stop12217" /></linearGradient><linearGradient
   id="linearGradient36467"><stop
     style="stop-color:#d3d7cf;stop-opacity:0.21621622;"
     offset="0"
     id="stop36469" /><stop
     id="stop36475"
     offset="0.5"
     style="stop-color:#656e5c;stop-opacity:1;" /><stop
     style="stop-color:#d3d7cf;stop-opacity:0.27027026;"
     offset="1"
     id="stop36471" /></linearGradient><linearGradient
   id="linearGradient36421"><stop
     style="stop-color:#fffc83;stop-opacity:1;"
     offset="0"
     id="stop36423" /><stop
     id="stop36429"
     offset="0.5"
     style="stop-color:#ff5e5e;stop-opacity:0.62352943;" /><stop
     style="stop-color:#ff7575;stop-opacity:0;"
     offset="1"
     id="stop36425" /></linearGradient><inkscape:perspective
   sodipodi:type="inkscape:persp3d"
   inkscape:vp_x="0 : 396 : 1"
   inkscape:vp_y="0 : 1000 : 0"
   inkscape:vp_z="612 : 396 : 1"
   inkscape:persp3d-origin="306 : 264 : 1"
   id="perspective35744" />
	
	
<radialGradient
   inkscape:collect="always"
   xlink:href="#SVGID_1_"
   id="radialGradient35816"
   gradientUnits="userSpaceOnUse"
   gradientTransform="matrix(-0.9435,0.3541,-0.2086,-0.5764,852.8458,480.7826)"
   cx="396.1084"
   cy="394.41751"
   r="11.0258" /><radialGradient
   inkscape:collect="always"
   xlink:href="#SVGID_2_"
   id="radialGradient35818"
   gradientUnits="userSpaceOnUse"
   gradientTransform="matrix(1.0055,0,0,1.0239,-1.4443,-10.1534)"
   cx="394.30569"
   cy="393.27341"
   r="5.4274001" /><linearGradient
   inkscape:collect="always"
   xlink:href="#SVGID_3_"
   id="linearGradient35820"
   gradientUnits="userSpaceOnUse"
   x1="379.3652"
   y1="420.56839"
   x2="413.30429"
   y2="397.56519" /><radialGradient
   inkscape:collect="always"
   xlink:href="#SVGID_4_"
   id="radialGradient35822"
   gradientUnits="userSpaceOnUse"
   gradientTransform="matrix(0.7251,-0.7094,0.4876,0.5168,-91.4921,473.0544)"
   cx="389.19339"
   cy="408.4707"
   r="17.6798" /><radialGradient
   inkscape:collect="always"
   xlink:href="#SVGID_5_"
   id="radialGradient35824"
   gradientUnits="userSpaceOnUse"
   gradientTransform="matrix(1.0055,0,0,0.512,-1.4443,197.0864)"
   cx="394.81741"
   cy="404.80469"
   r="32.124699" /><linearGradient
   inkscape:collect="always"
   xlink:href="#SVGID_6_"
   id="linearGradient35826"
   gradientUnits="userSpaceOnUse"
   x1="382.68549"
   y1="404.26169"
   x2="398.20511"
   y2="404.26169" />
		
			
		
			
		
		
		
		
		
		
			<radialGradient
   id="SVGID_2_"
   cx="394.30569"
   cy="393.27341"
   r="5.4274001"
   gradientTransform="matrix(1.0055,0,0,1.0239,-1.4443,-10.1534)"
   gradientUnits="userSpaceOnUse">
			<stop
   offset="0.0982"
   style="stop-color:#EF3C24;stop-opacity:0.66"
   id="stop35637" />
			<stop
   offset="0.3497"
   style="stop-color:#EF4723;stop-opacity:0.45"
   id="stop35639" />
			<stop
   offset="0.4345"
   style="stop-color:#EF4823;stop-opacity:0.3913"
   id="stop35641" />
			<stop
   offset="1"
   style="stop-color:#F04D23;stop-opacity:0"
   id="stop35643" />
		</radialGradient>
		
		
		<linearGradient
   id="SVGID_3_"
   gradientUnits="userSpaceOnUse"
   x1="379.3652"
   y1="420.56839"
   x2="413.30429"
   y2="397.56519">
			<stop
   offset="0"
   style="stop-color:#A9ABAE"
   id="stop35670" />
			<stop
   offset="1"
   style="stop-color:#463B27"
   id="stop35672" />
		</linearGradient>
		
		
			<radialGradient
   id="SVGID_4_"
   cx="389.19339"
   cy="408.4707"
   r="17.6798"
   gradientTransform="matrix(0.7251,-0.7094,0.4876,0.5168,-91.4921,473.0544)"
   gradientUnits="userSpaceOnUse">
			<stop
   offset="0"
   style="stop-color:#B83826"
   id="stop35677" />
			<stop
   offset="0.0835"
   style="stop-color:#B83C26;stop-opacity:0.892"
   id="stop35679" />
			<stop
   offset="0.1781"
   style="stop-color:#B84726;stop-opacity:0.7697"
   id="stop35681" />
			<stop
   offset="0.2777"
   style="stop-color:#B85827;stop-opacity:0.641"
   id="stop35683" />
			<stop
   offset="0.3558"
   style="stop-color:#B86728;stop-opacity:0.54"
   id="stop35685" />
			<stop
   offset="0.4132"
   style="stop-color:#A9652D;stop-opacity:0.4919"
   id="stop35687" />
			<stop
   offset="0.6295"
   style="stop-color:#71533B;stop-opacity:0.3106"
   id="stop35689" />
			<stop
   offset="0.8059"
   style="stop-color:#483C33;stop-opacity:0.1627"
   id="stop35691" />
			<stop
   offset="0.9338"
   style="stop-color:#221E1D;stop-opacity:0.0555"
   id="stop35693" />
			<stop
   offset="1"
   style="stop-color:#000000;stop-opacity:0"
   id="stop35695" />
		</radialGradient>
		
		
			<radialGradient
   id="SVGID_5_"
   cx="394.81741"
   cy="404.80469"
   r="32.124699"
   gradientTransform="matrix(1.0055,0,0,0.512,-1.4443,197.0864)"
   gradientUnits="userSpaceOnUse">
			<stop
   offset="0.5744"
   style="stop-color:#000000;stop-opacity:0"
   id="stop35700" />
			<stop
   offset="0.6088"
   style="stop-color:#22201F;stop-opacity:0.1004"
   id="stop35702" />
			<stop
   offset="0.6751"
   style="stop-color:#4A4540;stop-opacity:0.2939"
   id="stop35704" />
			<stop
   offset="0.7659"
   style="stop-color:#786E5D;stop-opacity:0.5588"
   id="stop35706" />
			<stop
   offset="0.7975"
   style="stop-color:#8A7D66;stop-opacity:0.6512"
   id="stop35708" />
			<stop
   offset="0.8207"
   style="stop-color:#978A73;stop-opacity:0.6854"
   id="stop35710" />
			<stop
   offset="0.8692"
   style="stop-color:#AFA18B;stop-opacity:0.7569"
   id="stop35712" />
			<stop
   offset="0.9162"
   style="stop-color:#C0B29D;stop-opacity:0.8263"
   id="stop35714" />
			<stop
   offset="0.9607"
   style="stop-color:#CABCA8;stop-opacity:0.892"
   id="stop35716" />
			<stop
   offset="1"
   style="stop-color:#CEC0AB;stop-opacity:0.95"
   id="stop35718" />
		</radialGradient>
		
		
		
		
		<linearGradient
   id="SVGID_6_"
   gradientUnits="userSpaceOnUse"
   x1="382.68549"
   y1="404.26169"
   x2="398.20511"
   y2="404.26169">
			<stop
   offset="0.2945"
   style="stop-color:#EF3F25"
   id="stop35729" />
			<stop
   offset="0.546"
   style="stop-color:#FDBA12"
   id="stop35731" />
			<stop
   offset="0.7239"
   style="stop-color:#E64525"
   id="stop35733" />
		</linearGradient>
		
		
	<linearGradient
   inkscape:collect="always"
   xlink:href="#SVGID_6_"
   id="linearGradient35864"
   gradientUnits="userSpaceOnUse"
   x1="382.68549"
   y1="404.26169"
   x2="398.20511"
   y2="404.26169"
   gradientTransform="matrix(16.88467,0,0,16.88467,-6362.3047,-6256.1796)" /><radialGradient
   inkscape:collect="always"
   xlink:href="#SVGID_5_"
   id="radialGradient35870"
   gradientUnits="userSpaceOnUse"
   gradientTransform="matrix(16.977535,0,0,8.644951,-6386.6912,-2928.4408)"
   cx="394.81741"
   cy="404.80469"
   r="32.124699" /><radialGradient
   inkscape:collect="always"
   xlink:href="#SVGID_4_"
   id="radialGradient35873"
   gradientUnits="userSpaceOnUse"
   gradientTransform="matrix(12.243075,-11.977986,8.2329649,8.7259974,-8171.1187,1500.1877)"
   cx="389.19339"
   cy="408.4707"
   r="17.6798" /><linearGradient
   inkscape:collect="always"
   xlink:href="#SVGID_3_"
   id="linearGradient35876"
   gradientUnits="userSpaceOnUse"
   x1="379.3652"
   y1="420.56839"
   x2="413.30429"
   y2="397.56519"
   gradientTransform="matrix(16.88467,0,0,16.88467,-6362.3047,-6256.1796)" /><radialGradient
   inkscape:collect="always"
   xlink:href="#SVGID_2_"
   id="radialGradient35890"
   gradientUnits="userSpaceOnUse"
   gradientTransform="matrix(16.977535,0,0,17.288214,-6386.6912,-6427.6164)"
   cx="394.30569"
   cy="393.27341"
   r="5.4274001" /><radialGradient
   inkscape:collect="always"
   xlink:href="#SVGID_1_"
   id="radialGradient35906"
   gradientUnits="userSpaceOnUse"
   gradientTransform="matrix(-0.9435,0.3541,-0.2086,-0.5764,852.8458,480.7826)"
   cx="396.1084"
   cy="394.41751"
   r="11.0258" /><radialGradient
   inkscape:collect="always"
   xlink:href="#linearGradient36421"
   id="radialGradient36427"
   cx="332.52155"
   cy="375.72876"
   fx="332.52155"
   fy="375.72876"
   r="370.39386"
   gradientUnits="userSpaceOnUse" />
			
			
			
			
			
			
			
			
			
			
		<linearGradient
   inkscape:collect="always"
   xlink:href="#linearGradient36467"
   id="linearGradient36473"
   x1="140.13677"
   y1="202.90744"
   x2="458.02793"
   y2="202.90744"
   gradientUnits="userSpaceOnUse" /><linearGradient
   inkscape:collect="always"
   xlink:href="#linearGradient12213"
   id="linearGradient12219"
   x1="241.47479"
   y1="720.9231"
   x2="265.87558"
   y2="354.65445"
   gradientUnits="userSpaceOnUse" /></defs><sodipodi:namedview
   inkscape:window-height="1496"
   inkscape:window-width="2560"
   inkscape:pageshadow="2"
   inkscape:pageopacity="0.0"
   guidetolerance="10.0"
   gridtolerance="10.0"
   objecttolerance="10.0"
   borderopacity="1.0"
   bordercolor="#666666"
   pagecolor="#ffffff"
   id="base"
   showgrid="false"
   inkscape:zoom="26.398653"
   inkscape:cx="19.963106"
   inkscape:cy="23.371168"
   inkscape:window-x="-8"
   inkscape:window-y="-8"
   inkscape:current-layer="Layer_1"
   inkscape:window-maximized="1" />
<path
   sodipodi:type="arc"
   style="opacity:1;fill:url(#radialGradient36427);fill-opacity:1;fill-rule:nonzero;stroke:none;stroke-width:2;stroke-linecap:square;stroke-linejoin:round;marker:none;marker-start:none;marker-mid:none;marker-end:none;stroke-miterlimit:4;stroke-dasharray:none;stroke-dashoffset:0;stroke-opacity:0.52659577;visibility:visible;display:inline;overflow:visible;enable-background:accumulate"
   id="path36419"
   sodipodi:cx="332.52155"
   sodipodi:cy="375.72876"
   sodipodi:rx="369.39386"
   sodipodi:ry="369.39386"
   d="M 701.91541,375.72876 A 369.39386,369.39386 0 1 1 -36.872314,375.72876 A 369.39386,369.39386 0 1 1 701.91541,375.72876 z"
   transform="matrix(1.007593,0,0,1.007593,-24.713473,-49.41779)" /><path
   stroke-miterlimit="10"
   d="M 323.7881,786.04472 C 312.39095,786.04472 299.57548,783.63021 284.73386,780.86112 C 264.23587,777.01142 241.00257,772.68895 212.83893,772.68895 C 193.40468,772.68895 174.52762,774.76576 155.14402,779.02069 C 151.27742,779.88182 146.81987,780.27017 141.50121,780.27017 C 132.45102,780.27017 122.15137,779.05446 112.17253,777.88942 C 103.00416,776.82568 93.481203,775.71131 85.967524,775.71131 C 79.26431,775.71131 65.435766,780.27017 59.323515,780.27017 C 43.485695,780.27017 24.220288,773.00976 16.267608,769.17694 C -4.2303812,759.33317 -22.668441,758.48894 -38.911493,757.77978 C -53.753118,757.08751 -66.585467,756.49655 -76.564306,748.84779 C -76.564306,748.84779 -82.034939,746.21378 -82.034939,741.67181 C -82.034939,737.14671 -78.438505,733.28013 -78.438505,733.28013 C -39.367379,684.71982 0.19340218,647.38781 38.470949,611.28839 C 104.28739,549.20346 161.12119,495.57774 197.72716,402.35749 L 203.89006,385.11824 C 206.79422,381.26853 209.95166,377.48636 212.36616,375.59528 C 214.74691,373.7042 217.41468,372.01573 220.58899,370.49611 C 224.01658,368.84141 235.0085,367.59195 241.12076,367.59195 C 254.40899,367.59195 261.87201,372.23523 265.89056,374.71728 C 266.19449,374.90301 266.3971,375.0212 266.51529,375.12252 C 277.00067,374.1432 287.26656,362.71227 294.83089,354.28683 C 301.60164,346.7225 306.53197,341.25186 313.64042,341.25186 L 315.44708,341.38694 C 316.49392,341.03237 317.76027,338.43212 318.58762,336.69301 C 321.20474,331.1886 325.62852,316.61713 336.45161,314.60786 C 346.59929,312.71677 353.97789,307.97218 357.47302,305.3044 C 359.93817,303.39644 363.02807,302.38336 366.32059,302.38336 C 377.22808,302.38336 388.92916,314.03377 390.24615,315.35078 C 390.88778,315.97552 396.18957,322.64496 399.36388,327.23759 L 410.94677,353.17244 C 424.91038,449.60079 494.77914,516.85243 568.68335,588.07197 C 613.25887,630.95903 659.33715,675.33194 693.35974,727.31984 C 696.56783,732.21639 696.80422,738.29488 694.01825,743.61354 C 685.711,759.41759 650.42203,767.70797 619.8439,767.70797 L 619.8439,767.70797 C 608.04151,767.70797 596.27289,766.59358 584.82509,764.39857 C 583.30547,764.06088 566.06622,766.94815 557.74208,770.46016 C 547.42555,774.81641 518.7385,779.6792 517.3033,779.59478 C 513.72375,779.34151 510.24551,779.24019 506.8348,779.24019 C 494.93111,779.24019 483.58462,780.54031 472.59269,781.7729 C 461.83716,782.9886 450.72705,784.23806 439.39743,784.23806 C 431.63049,784.23806 424.47139,783.66398 417.49801,782.48205 C 409.68041,781.16505 401.25497,780.54031 391.68136,780.54031 C 375.4383,780.54031 359.34721,782.44828 346.44732,784.00168 C 337.00879,785.16671 329.52889,786.04472 323.7881,786.04472 z"
   id="path35609"
   style="fill:none;stroke:#56513f;stroke-width:11.81926918;stroke-linecap:round;stroke-linejoin:round;stroke-miterlimit:10" /><path
   stroke-miterlimit="10"
   d="M 684.49529,733.38143 C 595.69881,597.76377 423.6778,515.24838 400.37696,354.7596 C 400.30942,354.81025 400.27565,354.81025 400.20812,354.87779 C 398.84046,348.259 385.87303,326.24139 382.73248,323.05019 C 379.42309,319.67325 368.31297,310.62307 363.8723,314.01689 C 359.41475,317.41071 350.53341,323.05019 338.3258,325.31274 C 326.11818,327.57528 329.44446,354.4219 313.92745,352.15936 C 307.24112,351.16316 289.51222,386.04689 265.0801,386.04689 C 259.60947,386.04689 256.65464,372.91062 224.57378,380.762 C 221.70338,381.82572 208.90481,399.40266 208.145,406.42669 C 207.97615,406.39292 207.8073,406.46046 207.63846,406.39292 C 148.45768,557.07171 35.245976,609.07649 -70.181901,740.20284 C -53.719348,752.74815 -19.916239,739.83138 20.843354,759.40071 C 28.154416,762.92961 56.351814,774.10726 70.771321,767.3365 C 87.183222,759.60333 131.52236,773.14483 152.89835,768.4509 C 235.02539,750.38429 289.56287,775.20476 323.80498,775.20476 C 340.75719,775.20476 382.34413,765.5805 419.2709,771.84471 C 452.53371,777.50107 481.20387,766.32342 518.04622,768.80547 C 545.78774,770.69656 563.53352,749.23614 586.81748,753.74435 C 642.14855,764.48299 692.29602,745.26824 684.49529,733.38143 z"
   id="path35611"
   style="fill:none;stroke:#e2e0db;stroke-width:15.19620228;stroke-linecap:round;stroke-linejoin:round;stroke-miterlimit:10" /><g
   id="g35613"
   transform="matrix(16.88467,0,0,16.88467,-6362.3047,-6256.1796)">
			<path
   d="M 390.957,394.598 C 391.156,394.911 391.311,395.3 391.549,395.569 C 392.133,396.231 393.342,395.792 393.992,395.451 C 394.894,394.977 395.498,394.287 396.32,394.255 C 396.411,394.26 396.501,394.264 396.591,394.269 C 397.18,394.348 397.528,394.206 397.809,393.965 C 398.138,393.684 398.372,393.27 398.79,392.925 C 399.656,392.21 399.798,392.621 400.066,392.367 C 400.897,391.569 400.078,390.477 399.508,389.757 C 399.488,389.732 399.471,389.713 399.457,389.699 C 399.372,389.612 399.201,389.464 399.015,389.339 C 398.768,389.173 398.489,389.049 398.34,389.163 C 398.076,389.363 397.55,389.699 396.827,389.833 C 396.106,389.965 396.295,391.577 395.389,391.423 C 395.084,391.361 394.577,392.142 394.406,392.324 C 393.951,392.806 392.989,393.749 392.257,393.344 C 391.913,393.153 391.339,392.735 390.202,393.071 C 390.177,393.078 390.151,393.087 390.127,393.099 C 389.66,393.301 389.187,394.055 389.079,394.521 C 388.972,394.995 389.994,394.549 390.585,394.502 C 390.762,394.487 390.899,394.508 390.957,394.598 z"
   id="path35615"
   style="fill:#502d08" />
			
				<radialGradient
   id="SVGID_1_"
   cx="396.1084"
   cy="394.41751"
   r="11.0258"
   gradientTransform="matrix(-0.9435,0.3541,-0.2086,-0.5764,852.8458,480.7826)"
   gradientUnits="userSpaceOnUse">
				<stop
   offset="0.0982"
   style="stop-color:#E24C20"
   id="stop35618" />
				<stop
   offset="0.3497"
   style="stop-color:#EF4723;stop-opacity:0.45"
   id="stop35620" />
				<stop
   offset="0.4345"
   style="stop-color:#EF4823;stop-opacity:0.3913"
   id="stop35622" />
				<stop
   offset="1"
   style="stop-color:#F04D23;stop-opacity:0"
   id="stop35624" />
			</radialGradient>
			<path
   d="M 390.958,394.598 C 391.156,394.911 391.311,395.3 391.549,395.569 C 392.134,396.231 393.342,395.792 393.993,395.451 C 394.895,394.977 395.498,394.287 396.321,394.255 C 396.412,394.26 396.502,394.264 396.592,394.269 C 397.18,394.348 397.529,394.206 397.81,393.965 C 398.138,393.684 398.373,393.27 398.791,392.925 C 399.656,392.21 399.799,392.621 400.066,392.367 C 400.898,391.569 400.079,390.477 399.508,389.757 C 399.488,389.732 399.472,389.713 399.458,389.699 C 399.372,389.612 399.202,389.464 399.015,389.339 C 398.768,389.173 398.49,389.049 398.34,389.163 C 398.076,389.363 397.55,389.699 396.827,389.833 C 396.107,389.965 396.296,391.577 395.389,391.423 C 395.084,391.361 394.578,392.142 394.407,392.324 C 393.952,392.806 392.989,393.749 392.257,393.344 C 391.913,393.153 391.339,392.735 390.202,393.071 C 390.178,393.078 390.152,393.087 390.128,393.099 C 389.661,393.301 389.187,394.055 389.08,394.521 C 388.973,394.995 389.994,394.549 390.585,394.502 C 390.762,394.487 390.9,394.508 390.958,394.598 z"
   id="path35626"
   style="fill:url(#radialGradient35906)" />
		</g><path
   d="M 277.79571,429.42168 C 277.79571,429.42168 277.79571,325.22788 267.8465,296.77554 C 257.86694,268.35355 291.74889,386.13651 291.74889,406.4596 C 291.74889,426.75236 292.38586,448.47079 292.38586,448.47079 L 277.79571,429.42168 z"
   id="path35634"
   style="fill:#e75425" /><path
   sodipodi:nodetypes="ccscc"
   style="fill:#e75425"
   id="path35649"
   d="M 369.2195,401.24248 C 369.2195,401.24248 362.51592,331.35529 386.35764,232.37879 C 368.98831,269.33049 347.40197,336.60932 347.40197,356.87175 C 347.40197,377.19485 355.84266,403.18379 355.84266,403.18379 L 369.2195,401.24248 z" /><path
   style="fill:#c44d27"
   id="path35651"
   d="M 331.84928,401.24248 C 336.39922,249.85059 368.18818,152.51205 395.0632,70.643343 C 415.75029,7.6720666 323.20438,257.73716 323.20438,300.264 C 323.20438,342.79083 319.35208,400.15051 319.35208,400.15051 L 331.84928,401.24248 z" /><path
   style="fill:#ffda00"
   id="path35653"
   d="M 334.88256,398.02719 C 334.88256,398.02719 326.84434,260.16379 316.8951,231.7418 C 306.91556,203.28946 338.09787,312.60952 340.82784,341.39552 C 342.73881,361.59728 341.5255,412.89036 341.5255,412.89036 L 334.88256,398.02719 z" /><path
   style="fill:#c44d27"
   id="path35655"
   d="M 215.9567,404.91869 C 215.9567,404.91869 215.9567,320.25294 192.323,273.09662 C 233.06757,317.82001 230.87156,380.04347 236.52505,395.28736 C 242.77537,412.14053 227.63491,420.14586 227.63491,420.14586 L 215.9567,404.91869 z"
   sodipodi:nodetypes="ccscc" /><path
   style="fill:#ffda00"
   id="path35657"
   d="M 259.59611,426.47953 C 259.59611,426.47953 258.65579,318.73678 233.90408,202.80413 C 248.16057,243.99631 261.5071,290.58778 270.81931,342.48751 C 275.36926,367.90654 271.97197,444.89164 271.97197,444.89164 L 259.59611,426.47953 z" /><path
   sodipodi:nodetypes="ccscc"
   style="fill:#c44d27"
   id="path35659"
   d="M 274.12561,393.41658 C 274.12561,393.41658 274.12561,180.60038 264.14605,122.5734 C 289.79333,206.99302 288.04844,304.99595 288.04844,346.4308 C 288.04844,387.86564 288.71578,432.12147 288.71578,432.12147 L 274.12561,393.41658 z" /><path
   style="fill:#e75425"
   id="path35661"
   d="M 254.25751,423.32489 C 254.25751,423.32489 254.25751,319.10078 244.27795,290.67877 C 234.32873,262.25678 268.21068,380.00939 268.21068,400.33249 C 268.21068,420.65559 268.84768,442.34367 268.84768,442.34367 L 254.25751,423.32489 z" /><path
   style="fill:#ffda00"
   id="path35663"
   d="M 296.11703,475.61895 C 296.11703,475.61895 287.89678,368.8772 279.03956,325.65271 C 292.32539,356.59234 302.97227,414.95299 302.97227,435.27609 C 302.97227,455.53852 303.63959,477.25694 303.63959,477.25694 L 296.11703,475.61895 z" /><path
   sodipodi:nodetypes="ccscc"
   style="fill:#ffda00"
   id="path35665"
   d="M 307.24923,417.28863 C 307.24923,417.28863 283.85177,128.61706 273.84187,50.35797 C 293.89419,153.29745 314.65047,247.69693 314.65047,303.63097 C 314.65047,359.56498 315.28747,419.29061 315.28747,419.29061 L 307.24923,417.28863 z" /><path
   style="fill:#e75425"
   id="path35667"
   d="M 329.17998,399.30117 C 329.17998,399.30117 323.47737,287.43314 313.49782,259.01115 C 303.51826,230.55882 337.4002,348.34177 337.4002,368.63453 C 337.4002,388.9273 338.0372,410.61538 338.0372,410.61538 L 329.17998,399.30117 z" /><path
   d="M -71.194981,739.44303 C -64.576191,744.50843 -55.188315,745.43709 -43.656085,746.04494 C -26.501261,746.85541 -4.601844,746.92294 19.813388,758.62401 C 27.141335,762.18669 55.338734,773.34745 69.775126,766.55981 C 86.17014,758.8604 130.52617,772.38502 151.88527,767.6742 C 154.95829,767.03259 157.98064,766.42474 160.98611,765.85066 C 238.04774,751.46491 289.83303,774.47872 322.77502,774.47872 C 325.67918,774.47872 329.30939,774.19168 333.49678,773.76956 C 353.80905,771.64209 387.6628,765.88442 418.24094,771.08491 C 451.55439,776.74127 480.19079,765.59738 517.01626,768.07943 C 544.79154,769.97051 562.52044,748.5101 585.85506,753.00142 C 626.71596,760.92033 664.70646,752.54553 678.63631,742.81997 C 683.6173,739.37549 685.54215,735.76218 683.51599,732.6554 C 666.91835,707.29462 647.43345,683.8587 626.54711,661.33455 C 587.61106,619.46057 543.82911,580.96352 505.01126,540.44031 C 458.02122,491.39035 418.27471,439.35179 403.23047,374.41335 C 401.67708,367.7608 400.41074,360.99005 399.38076,354.01667 C 395.63237,356.68445 392.99836,366.41002 389.75651,367.67637 C 384.8093,369.53368 379.91274,366.37625 370.84567,374.12632 C 367.21546,377.24998 365.03735,382.43357 362.52153,384.6117 C 355.26112,391.02787 348.03448,401.04047 336.18145,397.91682 C 327.94173,395.78934 320.91771,399.77413 312.91437,403.53941 C 304.64088,407.35535 297.29606,407.76058 287.43541,414.86903 C 282.35312,418.56677 277.23706,422.36582 270.31435,424.62836 C 255.20257,429.59245 248.90459,425.26997 244.36261,413.78841 C 238.06462,397.98435 227.56236,402.64452 219.23822,403.11729 C 214.47675,403.38745 212.73763,405.04214 206.64226,405.64999 C 204.09268,412.15059 201.44179,418.46546 198.65581,424.66213 C 171.77542,484.68713 135.79419,528.60415 95.338521,569.65079 C 61.856217,603.58898 25.300906,635.53477 -11.693406,673.06939 C -31.532892,693.22969 -51.524341,714.92649 -71.194981,739.44303 z"
   id="path35674"
   style="fill:url(#linearGradient35876)" /><path
   d="M -71.194981,739.44303 C -64.576191,744.50843 -55.188315,745.43709 -43.656085,746.04494 C -26.501261,746.85541 -4.601844,746.92294 19.813388,758.62401 C 27.141335,762.18669 55.338734,773.34745 69.775126,766.55981 C 86.17014,758.8604 130.52617,772.38502 151.88527,767.6742 C 154.95829,767.03259 157.98064,766.42474 160.98611,765.85066 C 238.04774,751.46491 289.83303,774.47872 322.77502,774.47872 C 325.67918,774.47872 329.30939,774.19168 333.49678,773.76956 C 353.80905,771.64209 387.6628,765.88442 418.24094,771.08491 C 451.55439,776.74127 480.19079,765.59738 517.01626,768.07943 C 544.79154,769.97051 562.52044,748.5101 585.85506,753.00142 C 626.71596,760.92033 664.70646,752.54553 678.63631,742.81997 C 683.6173,739.37549 685.54215,735.76218 683.51599,732.6554 C 666.91835,707.29462 647.43345,683.8587 626.54711,661.33455 C 587.61106,619.46057 543.82911,580.96352 505.01126,540.44031 C 458.02122,491.39035 418.27471,439.35179 403.23047,374.41335 C 401.67708,367.7608 400.41074,360.99005 399.38076,354.01667 C 395.63237,356.68445 392.99836,366.41002 389.75651,367.69326 C 384.8093,369.55057 379.91274,366.37625 370.84567,374.1432 C 367.21546,377.24998 365.03735,382.45046 362.52153,384.6117 C 355.26112,391.02787 348.03448,401.04047 336.18145,397.91682 C 327.94173,395.78934 320.91771,399.77413 312.91437,403.53941 C 304.64088,407.35535 297.29606,407.76058 287.43541,414.86903 C 282.35312,418.56677 277.23706,422.36582 270.31435,424.62836 C 255.20257,429.59245 248.90459,425.26997 244.36261,413.78841 C 238.06462,397.98435 227.56236,402.64452 219.23822,403.11729 C 214.47675,403.38745 212.73763,405.04214 206.64226,405.64999 C 204.09268,412.15059 201.44179,418.46546 198.65581,424.66213 C 171.77542,484.68713 135.79419,528.60415 95.338521,569.65079 C 61.856217,603.58898 25.300906,635.53477 -11.693406,673.06939 C -31.532892,693.22969 -51.524341,714.92649 -71.194981,739.44303 z"
   id="path35720"
   style="fill:url(#radialGradient35870)" /><path
   d="M 382.63117,412.38698 C 382.63117,412.38698 448.07615,566.10501 515.80056,612.45343 C 583.50809,658.80185 609.02083,705.13338 609.02083,705.13338 C 609.02083,705.13338 569.2912,703.07346 530.20319,711.90413 C 500.28355,718.67488 444.74987,586.43416 420.35152,571.76137 C 395.91941,557.03794 400.36008,523.1673 392.59313,490.39415 C 385.45091,460.15371 385.94057,439.53753 382.63117,412.38698 z"
   id="path35722"
   style="fill:#6a6658" /><path
   d="M 369.30917,537.87384 C 403.78767,571.77825 374.72915,560.95518 418.15652,593.23867 C 446.99553,614.69909 465.85571,714.16668 528.04195,730.00449 C 515.80056,731.11889 502.49544,727.74195 490.27094,730.00449 C 468.35463,734.05682 431.78244,663.79971 420.36841,646.37473 C 407.46852,626.70409 380.58813,623.496 369.32605,589.87863 C 362.13318,568.48575 370.35602,552.5635 369.30917,537.87384 z"
   id="path35724"
   style="fill:#827e70" /><path
   d="M 217.24583,436.1437 C 217.24583,436.1437 151.78397,589.86174 84.076442,636.19328 C 16.368916,682.52481 -9.1438204,728.85634 -9.1438204,728.85634 C -9.1438204,728.85634 6.9979237,725.53006 31.919696,729.98761 C 50.779873,733.36455 132.60299,610.74808 155.12713,593.22179 C 173.98731,578.53212 189.52121,541.21701 197.28815,508.44387 C 204.43037,478.25408 213.91955,463.2436 217.24583,436.1437 z"
   id="path35726"
   style="fill:#989386" /><path
   style="fill:none;stroke:url(#linearGradient12219);stroke-width:33;stroke-miterlimit:4;stroke-opacity:0.52659577000000002;stroke-dasharray:none"
   id="path36417"
   d="m 100.18412,723.04742 c 1.7729,2.46516 23.62166,-30.02095 26.10371,-33.88753 9.43852,-14.67278 26.05304,-22.59169 46.04449,-32.73937 18.37052,-9.35411 29.49753,-27.55579 37.75413,-45.89254 4.91343,-10.94127 9.99571,-23.06446 12.19072,-26.42451 5.55506,-8.71248 13.23759,-8.88133 22.20334,0.54031 10.9075,11.48158 28.07921,18.64068 33.27969,19.80571 7.78383,1.67159 20.54865,12.98432 29.4131,22.00074 8.88133,9.05018 23.89179,26.28942 29.95339,33.93818 7.24352,9.05019 25.54651,21.44354 23.31773,15.46636 -2.22877,-6.04472 -17.01975,-34.698 -27.35317,-49.74224 -10.38406,-15.06112 -34.79929,-24.888 -48.8811,-37.68658 -22.82808,-20.75126 -31.91203,-58.89373 -29.21049,-88.64452 1.8742,-20.9201 5.80833,-49.01619 8.52676,-56.76625 3.68087,-10.55293 22.84497,-28.70395 22.84497,-28.70395 -4.05233,-0.70915 -11.04258,-0.94554 -18.30299,-0.2195 -12.15696,1.23258 -25.02308,5.2849 -25.91797,14.63901 -0.9793,9.60738 3.98478,17.44187 1.7729,27.67398 -0.35459,1.60404 -4.57575,12.14008 -10.73866,26.79597 -14.30132,33.9213 -38.80097,89.59006 -48.64473,104.88756 -14.04805,21.84877 -21.62926,28.26494 -32.01333,40.30371 -10.35031,12.03877 -37.72036,42.97149 -43.64688,54.99337 -5.90963,12.005 -13.676588,32.92511 -8.69561,39.66209 z"
   inkscape:connector-curvature="0" /><path
   d="M 100.80915,724.29748 C 102.58204,726.76264 124.4308,694.27653 126.91285,690.40995 C 136.35137,675.73717 152.96589,667.81826 172.95734,657.67058 C 191.32786,648.31647 202.45487,630.11479 210.71147,611.77804 C 215.6249,600.83677 220.70718,588.71358 222.90219,585.35353 C 228.45725,576.64105 236.13978,576.4722 245.10553,585.89384 C 256.01303,597.37542 273.18474,604.53452 278.38522,605.69955 C 286.16905,607.37114 298.93387,618.68387 307.79832,627.70029 C 316.67966,636.75047 331.69012,653.98971 337.75172,661.63847 C 344.99524,670.68866 363.29823,683.08201 361.06945,677.10483 C 358.84068,671.06011 344.0497,642.40683 333.71628,627.36259 C 323.33222,612.30147 298.91698,602.47459 284.83517,589.67601 C 262.00709,568.92475 252.92314,530.78228 255.62468,501.03149 C 257.49888,480.11139 261.43301,452.0153 264.15144,444.26524 C 267.83231,433.71231 286.99641,415.56129 286.99641,415.56129 C 282.94408,414.85214 275.95383,414.61575 268.69342,415.34179 C 256.53646,416.57437 243.67034,420.62669 242.77545,429.9808 C 241.79615,439.58818 246.76023,447.42267 244.54835,457.65478 C 244.19376,459.25882 239.9726,469.79486 233.80969,484.45075 C 219.50837,518.37205 195.00872,574.04081 185.16496,589.33831 C 171.11691,611.18708 163.5357,617.60325 153.15163,629.64202 C 142.80132,641.68079 115.43127,672.61351 109.50475,684.63539 C 103.59512,696.64039 95.828169,717.5605 100.80915,724.29748 z"
   id="path35735"
   style="fill:url(#linearGradient35864)" /><path
   d="M 255.69222,453.50114 C 254.00375,467.07642 242.92741,477.241 246.23682,463.69948 C 249.57997,450.12422 251.23467,444.48473 249.57997,437.68022 C 247.89151,430.92634 240.25963,427.87022 244.85227,422.14632 C 249.85013,415.94964 279.43207,415.15606 288.04325,415.15606 C 278.7398,420.45785 257.34693,439.94276 255.69222,453.50114 z"
   id="path35737"
   style="fill:#fec00f" />

</svg>