<?xml version="1.0" encoding="UTF-8" standalone="no"?>
<!-- Created with Inkscape (http://www.inkscape.org/) -->

<svg
   xmlns:i="http://ns.adobe.com/AdobeIllustrator/10.0/"
   xmlns:a="http://ns.adobe.com/AdobeSVGViewerExtensions/3.0/"
   xmlns:dc="http://purl.org/dc/elements/1.1/"
   xmlns:cc="http://creativecommons.org/ns#"
   xmlns:rdf="http://www.w3.org/1999/02/22-rdf-syntax-ns#"
   xmlns:svg="http://www.w3.org/2000/svg"
   xmlns="http://www.w3.org/2000/svg"
   xmlns:xlink="http://www.w3.org/1999/xlink"
   xmlns:sodipodi="http://sodipodi.sourceforge.net/DTD/sodipodi-0.dtd"
   xmlns:inkscape="http://www.inkscape.org/namespaces/inkscape"
   width="48px"
   height="48px"
   id="svg2985"
   version="1.1"
   inkscape:version="0.48.4 r9939"
   sodipodi:docname="volumelight.svg">
  <defs
     id="defs2987">
    <linearGradient
       inkscape:collect="always"
       id="linearGradient33883">
      <stop
         style="stop-color:#ffffff;stop-opacity:1;"
         offset="0"
         id="stop33885" />
      <stop
         style="stop-color:#ffffff;stop-opacity:0;"
         offset="1"
         id="stop33887" />
    </linearGradient>
    <linearGradient
       id="linearGradient33873">
      <stop
         id="stop33875"
         offset="0"
         style="stop-color:#c64000;stop-opacity:1;" />
      <stop
         id="stop33877"
         offset="1"
         style="stop-color:#ffffff;stop-opacity:0;" />
    </linearGradient>
    <linearGradient
       id="linearGradient33847">
      <stop
         id="stop33849"
         offset="0"
         style="stop-color:#ffd315;stop-opacity:1;" />
      <stop
         id="stop33851"
         offset="1"
         style="stop-color:#ffffff;stop-opacity:0;" />
    </linearGradient>
    <linearGradient
       inkscape:collect="always"
       id="linearGradient33835">
      <stop
         style="stop-color:#ffffff;stop-opacity:1;"
         offset="0"
         id="stop33837" />
      <stop
         style="stop-color:#ffffff;stop-opacity:0;"
         offset="1"
         id="stop33839" />
    </linearGradient>
    <linearGradient
       id="linearGradient3763">
      <stop
         style="stop-color:#fffc91;stop-opacity:1;"
         offset="0"
         id="stop3765" />
      <stop
         id="stop33895"
         offset="0.5"
         style="stop-color:#efca29;stop-opacity:0.50196081;" />
      <stop
         style="stop-color:#bc0e0e;stop-opacity:0;"
         offset="1"
         id="stop3767" />
    </linearGradient>
    <radialGradient
       inkscape:collect="always"
       xlink:href="#linearGradient3763"
       id="radialGradient3769"
       cx="24.357143"
       cy="39.642857"
       fx="24.357143"
       fy="39.642857"
       r="24.071428"
       gradientTransform="matrix(1,0,0,0.32937685,0,26.585417)"
       gradientUnits="userSpaceOnUse" />
    <linearGradient
       y2="158.0493"
       x2="23.7749"
       y1="202.2998"
       x1="23.7749"
       gradientUnits="userSpaceOnUse"
       id="XMLID_124_"
       gradientTransform="translate(0.226003,-156.5646)">
      <stop
         id="stop5741"
         style="stop-color:#E96712"
         offset="0" />
      <stop
         id="stop5743"
         style="stop-color:#D4290C"
         offset="0.6477" />
      <stop
         id="stop5745"
         style="stop-color:#CB1009"
         offset="1" />
      <a:midPointStop
         style="stop-color:#E96712"
         offset="0" />
      <a:midPointStop
         style="stop-color:#E96712"
         offset="0.4689" />
      <a:midPointStop
         style="stop-color:#CB1009"
         offset="1" />
    </linearGradient>
    <linearGradient
       y2="156.12869"
       x2="23.8755"
       y1="199.29491"
       x1="23.8755"
       gradientUnits="userSpaceOnUse"
       id="XMLID_125_"
       gradientTransform="matrix(0.66135559,0,0,0.6638479,9.4197911,-103.86864)">
      <stop
         id="stop5750"
         style="stop-color:#EBD30F"
         offset="0" />
      <stop
         id="stop5752"
         style="stop-color:#E96712"
         offset="0.3933" />
      <stop
         id="stop5754"
         style="stop-color:#D4290C"
         offset="0.7863" />
      <stop
         id="stop5756"
         style="stop-color:#CB1009"
         offset="1" />
      <a:midPointStop
         style="stop-color:#EBD30F"
         offset="0" />
      <a:midPointStop
         style="stop-color:#EBD30F"
         offset="0.5" />
      <a:midPointStop
         style="stop-color:#E96712"
         offset="0.3933" />
      <a:midPointStop
         style="stop-color:#E96712"
         offset="0.4689" />
      <a:midPointStop
         style="stop-color:#CB1009"
         offset="1" />
    </linearGradient>
    <linearGradient
       y2="176.17909"
       x2="24.223101"
       y1="201.5645"
       x1="24.223101"
       gradientUnits="userSpaceOnUse"
       id="XMLID_126_"
       gradientTransform="matrix(0.66135559,0,0,0.6638479,9.4197911,-103.86864)">
      <stop
         id="stop5761"
         style="stop-color:#FFFFFF"
         offset="0.1236" />
      <stop
         id="stop5763"
         style="stop-color:#FBF6B8"
         offset="0.2053" />
      <stop
         id="stop5765"
         style="stop-color:#F8ED6C"
         offset="0.3031" />
      <stop
         id="stop5767"
         style="stop-color:#F6E94F"
         offset="0.3483" />
      <stop
         id="stop5769"
         style="stop-color:#FAAF3E"
         offset="0.6067" />
      <stop
         id="stop5771"
         style="stop-color:#F17912"
         offset="1" />
      <a:midPointStop
         style="stop-color:#FFFFFF"
         offset="0.1236" />
      <a:midPointStop
         style="stop-color:#FFFFFF"
         offset="0.4689" />
      <a:midPointStop
         style="stop-color:#F6E94F"
         offset="0.3483" />
      <a:midPointStop
         style="stop-color:#F6E94F"
         offset="0.5" />
      <a:midPointStop
         style="stop-color:#FAAF3E"
         offset="0.6067" />
      <a:midPointStop
         style="stop-color:#FAAF3E"
         offset="0.5" />
      <a:midPointStop
         style="stop-color:#F17912"
         offset="1" />
    </linearGradient>
    <linearGradient
       y2="169.4416"
       x2="25.1968"
       y1="190.4238"
       x1="25.1968"
       gradientUnits="userSpaceOnUse"
       id="XMLID_127_"
       gradientTransform="matrix(0.66135559,0,0,0.6638479,9.4197911,-103.86864)">
      <stop
         id="stop5776"
         style="stop-color:#FFFFFF"
         offset="0.1236" />
      <stop
         id="stop5778"
         style="stop-color:#FBF6B8"
         offset="0.2053" />
      <stop
         id="stop5780"
         style="stop-color:#F8ED6C"
         offset="0.3031" />
      <stop
         id="stop5782"
         style="stop-color:#F6E94F"
         offset="0.3483" />
      <stop
         id="stop5784"
         style="stop-color:#FAAF3E"
         offset="0.6067" />
      <stop
         id="stop5786"
         style="stop-color:#F17912"
         offset="1" />
      <a:midPointStop
         style="stop-color:#FFFFFF"
         offset="0.1236" />
      <a:midPointStop
         style="stop-color:#FFFFFF"
         offset="0.4689" />
      <a:midPointStop
         style="stop-color:#F6E94F"
         offset="0.3483" />
      <a:midPointStop
         style="stop-color:#F6E94F"
         offset="0.5" />
      <a:midPointStop
         style="stop-color:#FAAF3E"
         offset="0.6067" />
      <a:midPointStop
         style="stop-color:#FAAF3E"
         offset="0.5" />
      <a:midPointStop
         style="stop-color:#F17912"
         offset="1" />
    </linearGradient>
    <linearGradient
       y2="158.0493"
       x2="23.7749"
       y1="202.2998"
       x1="23.7749"
       gradientTransform="matrix(0.66135559,0,0,0.6638479,9.4197911,-103.86864)"
       gradientUnits="userSpaceOnUse"
       id="linearGradient33756"
       xlink:href="#XMLID_124_"
       inkscape:collect="always" />
    <linearGradient
       inkscape:collect="always"
       xlink:href="#XMLID_124_"
       id="linearGradient33825"
       gradientUnits="userSpaceOnUse"
       gradientTransform="matrix(0.66135559,0,0,0.6638479,9.4197911,-103.86864)"
       x1="23.7749"
       y1="202.2998"
       x2="23.7749"
       y2="158.0493" />
    <linearGradient
       inkscape:collect="always"
       xlink:href="#XMLID_125_"
       id="linearGradient33827"
       gradientUnits="userSpaceOnUse"
       gradientTransform="matrix(0.66135559,0,0,0.6638479,9.4197911,-103.86864)"
       x1="23.8755"
       y1="199.29491"
       x2="23.8755"
       y2="156.12869" />
    <linearGradient
       inkscape:collect="always"
       xlink:href="#XMLID_126_"
       id="linearGradient33829"
       gradientUnits="userSpaceOnUse"
       gradientTransform="matrix(0.66135559,0,0,0.6638479,9.4197911,-103.86864)"
       x1="24.223101"
       y1="201.5645"
       x2="24.223101"
       y2="176.17909" />
    <linearGradient
       inkscape:collect="always"
       xlink:href="#XMLID_127_"
       id="linearGradient33831"
       gradientUnits="userSpaceOnUse"
       gradientTransform="matrix(0.66135559,0,0,0.6638479,9.4197911,-103.86864)"
       x1="25.1968"
       y1="190.4238"
       x2="25.1968"
       y2="169.4416" />
    <linearGradient
       inkscape:collect="always"
       xlink:href="#linearGradient33835"
       id="linearGradient33841"
       x1="18.142857"
       y1="39.571426"
       x2="2.2857158"
       y2="45.857147"
       gradientUnits="userSpaceOnUse" />
    <linearGradient
       inkscape:collect="always"
       xlink:href="#linearGradient33847"
       id="linearGradient33845"
       gradientUnits="userSpaceOnUse"
       x1="18.142857"
       y1="39.571426"
       x2="2.2857158"
       y2="45.857147"
       gradientTransform="matrix(-1,0,0,1,50.714286,-2.2857143)" />
    <linearGradient
       inkscape:collect="always"
       xlink:href="#linearGradient33835"
       id="linearGradient33855"
       gradientUnits="userSpaceOnUse"
       x1="18.142857"
       y1="39.571426"
       x2="2.2857158"
       y2="45.857147"
       gradientTransform="matrix(0.11558236,-0.9932979,0.9932979,0.11558236,-14.879471,51.84628)" />
    <linearGradient
       inkscape:collect="always"
       xlink:href="#linearGradient33873"
       id="linearGradient33871"
       gradientUnits="userSpaceOnUse"
       gradientTransform="matrix(0.11558236,-0.9932979,0.9932979,0.11558236,-14.879471,51.84628)"
       x1="18.142857"
       y1="39.571426"
       x2="7.4766641"
       y2="45.972221" />
    <radialGradient
       inkscape:collect="always"
       xlink:href="#linearGradient33883"
       id="radialGradient33889"
       cx="25.714285"
       cy="22.571428"
       fx="25.714285"
       fy="22.571428"
       r="21.857143"
       gradientUnits="userSpaceOnUse" />
    <linearGradient
       inkscape:collect="always"
       xlink:href="#linearGradient33873"
       id="linearGradient33893"
       gradientUnits="userSpaceOnUse"
       gradientTransform="matrix(0.60980964,0.79254792,-0.79254792,0.60980964,40.754977,-2.0609243)"
       x1="18.142857"
       y1="39.571426"
       x2="7.4766641"
       y2="45.972221" />
  </defs>
  <sodipodi:namedview
     id="base"
     pagecolor="#ffffff"
     bordercolor="#666666"
     borderopacity="1.0"
     inkscape:pageopacity="0.0"
     inkscape:pageshadow="2"
     inkscape:zoom="7"
     inkscape:cx="1.2857143"
     inkscape:cy="22.785714"
     inkscape:current-layer="layer1"
     showgrid="true"
     inkscape:grid-bbox="true"
     inkscape:document-units="px"
     inkscape:window-width="2560"
     inkscape:window-height="1496"
     inkscape:window-x="-8"
     inkscape:window-y="-8"
     inkscape:window-maximized="1" />
  <metadata
     id="metadata2990">
    <rdf:RDF>
      <cc:Work
         rdf:about="">
        <dc:format>image/svg+xml</dc:format>
        <dc:type
           rdf:resource="http://purl.org/dc/dcmitype/StillImage" />
        <dc:title></dc:title>
      </cc:Work>
    </rdf:RDF>
  </metadata>
  <g
     id="layer1"
     inkscape:label="Layer 1"
     inkscape:groupmode="layer">
    <path
       sodipodi:type="arc"
       style="color:#000000;fill:url(#radialGradient33889);fill-opacity:1;fill-rule:nonzero;stroke:none;stroke-width:3.00000023999999990;marker:none;visibility:visible;display:inline;overflow:visible;enable-background:accumulate"
       id="path33881"
       sodipodi:cx="25.714285"
       sodipodi:cy="22.571428"
       sodipodi:rx="21.857143"
       sodipodi:ry="21.857143"
       d="m 47.571428,22.571428 a 21.857143,21.857143 0 1 1 -43.7142865,0 21.857143,21.857143 0 1 1 43.7142865,0 z"
       transform="translate(-1.5714286,-0.71428571)" />
    <path
       sodipodi:type="arc"
       style="color:#000000;fill:url(#radialGradient3769);fill-opacity:1;fill-rule:nonzero;stroke:none;stroke-width:3.00000023999999990;stroke-linecap:butt;stroke-linejoin:miter;stroke-miterlimit:4;stroke-opacity:1;stroke-dasharray:6.00000047999999970, 3.00000023999999990;stroke-dashoffset:0;marker:none;visibility:visible;display:inline;overflow:visible;enable-background:accumulate"
       id="path2993"
       sodipodi:cx="24.357143"
       sodipodi:cy="39.642857"
       sodipodi:rx="24.071428"
       sodipodi:ry="7.9285712"
       d="m 48.428572,39.642857 a 24.071428,7.9285712 0 1 1 -48.1428569,0 24.071428,7.9285712 0 1 1 48.1428569,0 z" />
    <g
       id="g33819"
       transform="translate(-0.28571428,3.5714286)">
      <path
         i:knockout="Off"
         d="m 25.142858,30.765045 c -3.945648,0 -11.159715,-2.426364 -11.159715,-10.296945 0,-0.780685 0.07209,-1.688829 0.222216,-2.659375 -0.120367,0.918766 2.336569,3.882184 2.336569,2.414415 0,-1.074106 -1.64876,-3.829075 -1.64876,-5.43957 0,-3.090875 1.694394,-3.685019 3.153344,-5.7900799 -0.457658,1.5507489 -1.070734,3.7573779 0.800902,5.1122919 0,0 2.288952,0 2.575319,-4.4232178 0.286367,-4.4232188 -2.689734,-4.4803098 -2.689734,-9.01903785 1.030392,2.98731555 8.331758,4.19352715 10.792,9.82295765 0,-0.8039198 -0.109785,-3.8762082 -1.798226,-5.5716757 2.07335,0.7501481 4.12223,2.3301065 5.95683,5.9208597 1.114384,2.181404 0.461626,5.262322 1.344536,6.540893 0.515196,-0.517137 0.398797,-2.05129 0.632256,-2.77754 0.405411,1.525523 0.642176,4.17162 0.642176,5.86908 6.62e-4,7.869917 -6.831803,10.296944 -11.159713,10.296944 z"
         id="path5747"
         style="fill:url(#linearGradient33825);stroke:#99140d;stroke-width:1"
         inkscape:connector-curvature="0" />
      <path
         i:knockout="Off"
         d="m 23.425979,9.1050166 c 0,0.2263721 -0.0073,0.4613743 -0.02315,0.7063341 -0.401443,6.2142803 -4.385449,6.2859743 -4.554756,6.2859743 l -0.640853,0 -0.519826,-0.375737 c -0.311498,-0.226373 -0.544295,-0.476643 -0.775109,-0.727578 0.08664,0.566926 0.48279,1.56469 0.767834,2.268369 0.47287,1.167044 0.845874,2.088466 0.845874,2.960762 0,1.366862 -0.844551,1.955695 -1.208297,2.144892 -0.201713,0.105552 -0.594558,0.249607 -1.096527,0.233675 1.220862,4.994127 6.661835,7.335519 8.921025,7.335519 0.374328,0 7.921056,0.0697 8.872746,-7.039444 0.330017,-2.349357 0.123012,-3.25551 0.07143,-3.639878 -0.156742,0.321967 -0.292319,0.835121 -0.689133,1.232766 -0.923252,-1.118584 -0.822726,-4.346876 -0.921929,-5.732991 -0.07804,-1.09734 -0.158726,-2.23252 -0.557523,-3.013869 -0.224861,-0.43814 -0.449722,-0.837776 -0.673922,-1.202228 0,2.123649 -1.12695,3.14863 -1.986712,5.051882 -0.474853,-3.947904 -4.337169,-7.8274297 -6.229307,-9.0157177 0.228167,0.7123091 0.398136,1.5149012 0.398136,2.5272693 z"
         id="path5758"
         style="fill:url(#linearGradient33827)"
         inkscape:connector-curvature="0" />
      <path
         i:knockout="Off"
         d="m 30.026968,27.477007 c -0.349857,0.433492 -0.367052,-0.571573 -0.117721,-1.880017 -1.638178,1.643023 -1.088591,3.305962 -2.64939,4.01827 -2.804809,0.829147 0.949706,-3.201074 -0.953013,-5.693159 0,2.110372 -1.962242,6.238843 -2.620291,5.916212 -0.344567,-0.08431 -0.679212,-0.152021 -0.863069,-0.293421 -0.996002,-0.473987 -1.02907,-2.602947 -1.663971,-3.494495 0,0.727577 -0.169968,1.743929 -0.391522,1.479053 -0.906058,-1.084063 -1.553525,-2.407776 -1.553525,-3.833721 0,-3.660458 2.24398,-5.799376 1.122321,-7.88253 0.953013,0.449425 3.309423,3.321894 3.309423,4.109218 0.729475,-1.519548 -0.152773,-2.303552 -0.437817,-3.541628 -0.27314,-1.188288 0.07143,-2.089794 0.605801,-3.497151 0.122351,4.288457 3.870915,5.912893 3.870915,8.108238 0.449059,-0.450089 1.683149,-1.519548 1.290304,-3.490512 -0.224861,-1.182977 -0.533714,-2.336745 0,-2.871142 0,1.407357 2.126258,2.794799 2.579948,5.573667 0.15145,0.928723 0.122351,2.821353 0.05622,3.604694 -0.115076,1.367527 -0.744025,2.626846 -1.584608,3.668423 z"
         id="path5773"
         style="fill:url(#linearGradient33829)"
         inkscape:connector-curvature="0" />
      <path
         i:knockout="Off"
         d="m 27.562096,18.345115 c -0.73212,-2.375248 -3.157972,-4.492259 -3.157972,-6.046327 0,-0.943327 0.261896,-1.801682 0.655403,-2.9527946 0.804208,3.9591886 2.303501,4.7823596 2.639469,6.7606266 0.142192,0.840431 0.02976,1.613814 -0.1369,2.238495 z"
         id="path5788"
         style="fill:url(#linearGradient33831)"
         inkscape:connector-curvature="0" />
    </g>
  </g>
</svg>
