<?xml version="1.0" encoding="UTF-8" standalone="no"?>
<!-- Created with Inkscape (http://www.inkscape.org/) -->
<svg
   xmlns:i="http://ns.adobe.com/AdobeIllustrator/10.0/"
   xmlns:a="http://ns.adobe.com/AdobeSVGViewerExtensions/3.0/"
   xmlns:dc="http://purl.org/dc/elements/1.1/"
   xmlns:cc="http://creativecommons.org/ns#"
   xmlns:rdf="http://www.w3.org/1999/02/22-rdf-syntax-ns#"
   xmlns:svg="http://www.w3.org/2000/svg"
   xmlns="http://www.w3.org/2000/svg"
   xmlns:sodipodi="http://sodipodi.sourceforge.net/DTD/sodipodi-0.dtd"
   xmlns:inkscape="http://www.inkscape.org/namespaces/inkscape"
   width="48px"
   height="48px"
   id="svg5711"
   sodipodi:version="0.32"
   inkscape:version="0.46"
   sodipodi:docbase="C:\dev\src\houdini\support\icons\DOP"
   sodipodi:docname="vortex_from_curve.svg"
   inkscape:output_extension="org.inkscape.output.svg.inkscape">
  <defs
     id="defs5713">
    <inkscape:perspective
       sodipodi:type="inkscape:persp3d"
       inkscape:vp_x="0 : 24 : 1"
       inkscape:vp_y="0 : 1000 : 0"
       inkscape:vp_z="48 : 24 : 1"
       inkscape:persp3d-origin="24 : 16 : 1"
       id="perspective3308" />
    <linearGradient
       y2="111.7559"
       x2="374.30521"
       y1="111.7559"
       x1="346.78271"
       gradientUnits="userSpaceOnUse"
       id="XMLID_84_"
       gradientTransform="matrix(0.9471388,0,0,0.9486277,-317.95301,-75.142112)">
      <stop
         id="stop11981"
         style="stop-color:#A2BBD5"
         offset="0" />
      <stop
         id="stop11983"
         style="stop-color:#FFFFFF"
         offset="0.4494" />
      <stop
         id="stop11985"
         style="stop-color:#FFFFFF"
         offset="0.6517" />
      <stop
         id="stop11987"
         style="stop-color:#A2BBD5"
         offset="1" />
      <a:midPointStop
         style="stop-color:#A2BBD5"
         offset="0" />
      <a:midPointStop
         style="stop-color:#A2BBD5"
         offset="0.5" />
      <a:midPointStop
         style="stop-color:#FFFFFF"
         offset="0.4494" />
      <a:midPointStop
         style="stop-color:#FFFFFF"
         offset="0.5" />
      <a:midPointStop
         style="stop-color:#FFFFFF"
         offset="0.6517" />
      <a:midPointStop
         style="stop-color:#FFFFFF"
         offset="0.5" />
      <a:midPointStop
         style="stop-color:#A2BBD5"
         offset="1" />
    </linearGradient>
    <radialGradient
       gradientUnits="userSpaceOnUse"
       fy="94.525398"
       fx="361.7056"
       r="7.1034002"
       cy="94.525398"
       cx="361.7056"
       id="XMLID_83_"
       gradientTransform="matrix(0.9471388,0,0,0.9486277,-317.95301,-75.142112)">
      <stop
         id="stop11964"
         style="stop-color:#C1DEEA"
         offset="0.5562" />
      <stop
         id="stop11966"
         style="stop-color:#BEDCE9"
         offset="0.6992" />
      <stop
         id="stop11968"
         style="stop-color:#B6D5E5"
         offset="0.7866" />
      <stop
         id="stop11970"
         style="stop-color:#A8CADE"
         offset="0.859" />
      <stop
         id="stop11972"
         style="stop-color:#93B9D3"
         offset="0.9232" />
      <stop
         id="stop11974"
         style="stop-color:#7AA5C7"
         offset="0.9815" />
      <stop
         id="stop11976"
         style="stop-color:#709EC3"
         offset="1" />
      <a:midPointStop
         style="stop-color:#C1DEEA"
         offset="0.5562" />
      <a:midPointStop
         style="stop-color:#C1DEEA"
         offset="0.7975" />
      <a:midPointStop
         style="stop-color:#709EC3"
         offset="1" />
    </radialGradient>
    <radialGradient
       gradientUnits="userSpaceOnUse"
       fy="86.0298"
       fx="374.7005"
       r="15.7714"
       cy="94.791"
       cx="361.5864"
       id="XMLID_82_"
       gradientTransform="matrix(0.9471388,0,0,0.9486277,-317.95301,-75.142112)">
      <stop
         id="stop11951"
         style="stop-color:#C1DEEA"
         offset="0" />
      <stop
         id="stop11953"
         style="stop-color:#FFFFFF"
         offset="0.4775" />
      <stop
         id="stop11955"
         style="stop-color:#FFFFFF"
         offset="0.6292" />
      <stop
         id="stop11957"
         style="stop-color:#A2BBD5"
         offset="1" />
      <a:midPointStop
         style="stop-color:#C1DEEA"
         offset="0" />
      <a:midPointStop
         style="stop-color:#C1DEEA"
         offset="0.5" />
      <a:midPointStop
         style="stop-color:#FFFFFF"
         offset="0.4775" />
      <a:midPointStop
         style="stop-color:#FFFFFF"
         offset="0.5" />
      <a:midPointStop
         style="stop-color:#FFFFFF"
         offset="0.6292" />
      <a:midPointStop
         style="stop-color:#FFFFFF"
         offset="0.5" />
      <a:midPointStop
         style="stop-color:#A2BBD5"
         offset="1" />
    </radialGradient>
    <linearGradient
       y2="119.3423"
       x2="358.72311"
       y1="119.3423"
       x1="352.21729"
       gradientUnits="userSpaceOnUse"
       id="XMLID_81_">
      <stop
         id="stop11936"
         style="stop-color:#567C99"
         offset="0" />
      <stop
         id="stop11938"
         style="stop-color:#C1DEEA"
         offset="0.5225" />
      <stop
         id="stop11940"
         style="stop-color:#A2BBD5"
         offset="1" />
      <a:midPointStop
         style="stop-color:#567C99"
         offset="0" />
      <a:midPointStop
         style="stop-color:#567C99"
         offset="0.5" />
      <a:midPointStop
         style="stop-color:#C1DEEA"
         offset="0.5225" />
      <a:midPointStop
         style="stop-color:#C1DEEA"
         offset="0.5" />
      <a:midPointStop
         style="stop-color:#A2BBD5"
         offset="1" />
    </linearGradient>
    <linearGradient
       y2="110.1895"
       x2="369.07669"
       y1="110.1895"
       x1="351.6528"
       gradientUnits="userSpaceOnUse"
       id="XMLID_80_">
      <stop
         id="stop11927"
         style="stop-color:#567C99"
         offset="0" />
      <stop
         id="stop11929"
         style="stop-color:#C1DEEA"
         offset="0.5225" />
      <stop
         id="stop11931"
         style="stop-color:#A2BBD5"
         offset="1" />
      <a:midPointStop
         style="stop-color:#567C99"
         offset="0" />
      <a:midPointStop
         style="stop-color:#567C99"
         offset="0.5" />
      <a:midPointStop
         style="stop-color:#C1DEEA"
         offset="0.5225" />
      <a:midPointStop
         style="stop-color:#C1DEEA"
         offset="0.5" />
      <a:midPointStop
         style="stop-color:#A2BBD5"
         offset="1" />
    </linearGradient>
  </defs>
  <sodipodi:namedview
     id="base"
     pagecolor="#ffffff"
     bordercolor="#666666"
     borderopacity="1.0"
     inkscape:pageopacity="0.0"
     inkscape:pageshadow="2"
     inkscape:zoom="9.899495"
     inkscape:cx="8.7466967"
     inkscape:cy="24"
     inkscape:current-layer="layer1"
     showgrid="true"
     inkscape:grid-bbox="true"
     inkscape:document-units="px"
     inkscape:window-width="1920"
     inkscape:window-height="1115"
     inkscape:window-x="-4"
     inkscape:window-y="-4" />
  <metadata
     id="metadata5716">
    <rdf:RDF>
      <cc:Work
         rdf:about="">
        <dc:format>image/svg+xml</dc:format>
        <dc:type
           rdf:resource="http://purl.org/dc/dcmitype/StillImage" />
      </cc:Work>
    </rdf:RDF>
  </metadata>
  <g
     id="layer1"
     inkscape:label="Layer 1"
     inkscape:groupmode="layer">
    <path
       style="fill:url(#XMLID_84_)"
       id="path11989"
       d="M 21.953324,22.424247 C 10.401072,21.006998 10.49768,13.966282 10.49768,13.966282 C 11.508277,21.63404 19.300389,24.12229 20.387704,29.906074 C 21.259072,34.54012 15.567714,40.095284 15.567714,47.779168 C 17.982918,42.38622 24.280444,38.309018 28.445959,34.136005 C 36.304371,26.266189 35.134654,21.138857 36.564834,16.476352 C 36.565781,16.476352 31.115944,23.54837 21.953324,22.424247 z"
       a:adobe-blending-mode="darken"
       i:knockout="Off" />
    <path
       style="fill:#c1deea"
       id="path11922"
       d="M 30.024841,19.34595 C 28.066157,19.805086 25.916152,19.996709 23.31815,19.996709 C 16.592518,19.996709 13.131673,16.426074 13.131673,13.912211 C 13.131673,11.045458 17.192057,8.3788658 22.452466,8.3788658 C 28.776512,8.3788658 33.103988,13.006271 27.979021,15.376892 C 28.283999,14.894989 28.451644,14.366604 28.451644,13.811656 C 28.451644,11.589022 25.760821,9.7875781 22.4411,9.7875781 C 19.121379,9.7875781 16.429611,11.589022 16.429611,13.811656 C 16.429611,14.817202 17.400428,17.752256 22.850264,18.137398 C 27.842632,18.488391 32.171057,16.778964 34.967958,13.107775 C 34.568265,15.420529 28.510365,21.105654 19.189573,18.588945 C 23.247116,19.743426 26.826353,19.73963 29.66777,19.036697 L 30.024841,19.34595 z"
       i:knockout="Off" />
    <g
       transform="matrix(0.9471388,0,0,0.9486277,-317.95301,-75.142112)"
       id="g11924"
       i:knockout="Off">
      <linearGradient
         y2="110.1895"
         x2="369.07669"
         y1="110.1895"
         x1="351.6528"
         gradientUnits="userSpaceOnUse"
         id="linearGradient13522">
        <stop
           id="stop13524"
           style="stop-color:#567C99"
           offset="0" />
        <stop
           id="stop13526"
           style="stop-color:#C1DEEA"
           offset="0.5225" />
        <stop
           id="stop13528"
           style="stop-color:#A2BBD5"
           offset="1" />
        <a:midPointStop
           style="stop-color:#567C99"
           offset="0" />
        <a:midPointStop
           style="stop-color:#567C99"
           offset="0.5" />
        <a:midPointStop
           style="stop-color:#C1DEEA"
           offset="0.5225" />
        <a:midPointStop
           style="stop-color:#C1DEEA"
           offset="0.5" />
        <a:midPointStop
           style="stop-color:#A2BBD5"
           offset="1" />
      </linearGradient>
      <path
         style="fill:url(#XMLID_80_)"
         id="path11933"
         d="M 355.445,106.924 C 356.95,108.64 365.453,109.31 363.103,117.634 L 369.045,111.408 C 369.85,105.816 354.787,106.093 351.652,102.744 L 355.445,106.924 z"
         i:knockout="Off" />
      <linearGradient
         y2="119.3423"
         x2="358.72311"
         y1="119.3423"
         x1="352.21729"
         gradientUnits="userSpaceOnUse"
         id="linearGradient13531">
        <stop
           id="stop13533"
           style="stop-color:#567C99"
           offset="0" />
        <stop
           id="stop13535"
           style="stop-color:#C1DEEA"
           offset="0.5225" />
        <stop
           id="stop13537"
           style="stop-color:#A2BBD5"
           offset="1" />
        <a:midPointStop
           style="stop-color:#567C99"
           offset="0" />
        <a:midPointStop
           style="stop-color:#567C99"
           offset="0.5" />
        <a:midPointStop
           style="stop-color:#C1DEEA"
           offset="0.5225" />
        <a:midPointStop
           style="stop-color:#C1DEEA"
           offset="0.5" />
        <a:midPointStop
           style="stop-color:#A2BBD5"
           offset="1" />
      </linearGradient>
      <path
         style="fill:url(#XMLID_81_)"
         id="path11942"
         d="M 355.641,117.579 C 355.313,120.123 356.239,122.039 352.217,127.948 L 357.325,122.768 C 360.527,115.463 357.224,112.925 357.224,110.737 L 355.641,117.579 z"
         i:knockout="Off" />
    </g>
    <path
       style="fill:none;stroke:#3065a0;stroke-width:1"
       id="path11944"
       d="M 21.953325,22.424248 C 10.401071,21.006998 10.49768,13.966282 10.49768,13.966282 C 11.508277,21.634041 19.300389,24.122291 20.387704,29.906074 C 21.259072,34.540121 15.567715,40.095286 15.567715,47.77917 C 17.982919,42.386221 24.280444,38.309019 28.445961,34.136006 C 36.304372,26.26619 35.134655,21.138857 36.564834,16.476352 C 36.565783,16.476352 31.115945,23.548372 21.953325,22.424248 z"
       i:knockout="Off" />
    <path
       style="opacity:0.8;fill:none;stroke:#ffffff;stroke-width:1"
       id="path11991"
       d="M 16.037495,21.878787 C 16.255337,22.108355 16.471286,22.342666 16.689127,22.570337 C 18.787987,24.75218 20.769401,26.8126 21.318742,29.730579 L 21.328213,29.775164 L 21.318742,29.730579 L 21.425769,30.909723 C 21.425769,33.065954 20.403805,35.340763 19.321226,37.747431 C 18.512369,39.547927 17.676045,41.518227 17.122917,43.632717 C 19.010565,41.279173 21.389777,39.154246 23.764254,37.100467 C 25.212429,35.847331 26.580098,34.664391 27.776334,33.465327 C 33.548198,27.685337 34.263288,23.476275 34.894082,19.76145 C 34.915866,19.632436 34.941438,19.511012 34.962276,19.383896"
       i:knockout="Off" />
    <path
       style="fill:none;stroke:#3065a0;stroke-width:2"
       id="path11946"
       d="M 16.429611,13.810708 C 16.429611,14.816253 17.400428,17.751308 22.850265,18.13645 C 27.842634,18.487443 32.171057,16.778015 34.967959,13.106826 C 34.568266,15.419581 28.510367,21.104707 19.189574,18.587997 C 29.442351,21.504079 36.632081,17.029402 36.632081,12.552828 C 36.632081,8.3285888 29.041711,2.6946891 16.458973,5.4115589 C 26.646397,3.9022913 28.642019,6.618213 27.577435,6.4180525 C 26.511904,6.2169432 14.728551,4.205853 10.867065,9.7875782 C 12.731034,8.3295374 13.396873,8.631201 13.396873,8.631201 C 6.2061941,14.364706 13.463172,22.462193 23.049164,22.462193 C 26.710803,22.462193 29.973696,22.110252 30.971981,21.657757 C 30.971981,21.657757 28.04248,22.008748 28.04248,21.404473 C 34.967012,20.148489 36.563888,16.476352 36.563888,16.476352 C 32.503503,19.091718 28.974465,19.996709 23.316257,19.996709 C 16.590624,19.996709 13.129779,16.426074 13.129779,13.912211 C 13.129779,11.045459 17.190163,8.378866 22.450573,8.378866 C 28.774619,8.378866 33.102095,13.006272 27.977127,15.376892 C 28.282106,14.894989 28.44975,14.366604 28.44975,13.811656 C 28.44975,11.589022 25.758928,9.7875782 22.439206,9.7875782 C 19.119486,9.7875782 16.429611,11.588074 16.429611,13.810708 z"
       i:knockout="Off" />
    <path
       style="fill:none;stroke:#709ec3;stroke-width:2"
       id="path11948"
       d="M 23.318152,19.996709 C 16.592519,19.996709 13.131673,16.426074 13.131673,13.912211 C 13.131673,11.045459 17.192057,8.378866 22.452467,8.378866 C 28.776513,8.378866 33.103989,13.006272 27.979022,15.376892 C 28.284001,14.894989 28.451644,14.366604 28.451644,13.811656 C 28.451644,11.589022 25.760823,9.7875782 22.441101,9.7875782 C 19.12138,9.7875782 16.429611,11.589022 16.429611,13.811656 C 16.429611,14.817202 17.400428,17.752256 22.850265,18.1374 C 27.842634,18.488392 32.171057,16.778964 34.967959,13.107775 C 34.568266,15.420529 28.510367,21.105655 19.189574,18.588946"
       i:knockout="Off" />
    <path
       style="fill:url(#XMLID_82_)"
       id="path11959"
       d="M 16.429611,13.810708 C 16.429611,14.816253 17.400428,17.751306 22.850264,18.13645 C 27.842632,18.487442 32.171057,16.778015 34.967958,13.106825 C 34.568265,15.41958 28.510365,21.104706 19.189573,18.587997 C 29.442349,21.504078 36.63208,17.029401 36.63208,12.552827 C 36.63208,8.3285886 29.04171,2.6946891 16.458971,5.4115588 C 26.646397,3.9022913 28.642018,6.6182129 27.577433,6.4180524 C 26.511903,6.2169432 14.728549,4.205853 10.867064,9.7875781 C 12.731034,8.3295372 13.396872,8.6312009 13.396872,8.6312009 C 6.206194,14.364706 13.463172,22.462192 23.049163,22.462192 C 26.710802,22.462192 29.973696,22.110251 30.971979,21.657756 C 30.971979,21.657756 28.042479,22.008749 28.042479,21.404472 C 34.967011,20.14849 36.563887,16.476352 36.563887,16.476352 C 32.503503,19.091719 28.974463,19.996709 23.316256,19.996709 C 16.590624,19.996709 13.129779,16.426074 13.129779,13.912211 C 13.129779,11.045458 17.190163,8.3788658 22.450572,8.3788658 C 28.774617,8.3788658 33.102094,13.006271 27.977127,15.376892 C 28.282105,14.894989 28.449749,14.366604 28.449749,13.811656 C 28.449749,11.589022 25.758927,9.7875781 22.439206,9.7875781 C 19.119485,9.7875781 16.429611,11.588073 16.429611,13.810708 z"
       i:knockout="Off" />
    <path
       style="opacity:0.8;fill:none;stroke:#ffffff;stroke-width:1"
       id="path11961"
       d="M 28.198758,5.9721975 C 28.27074,6.0888791 28.307678,6.2112519 28.307678,6.3298301 C 28.307678,6.4417682 28.274529,6.5489631 28.210123,6.6438259 C 28.142877,6.7434319 27.935453,6.967308 27.489351,6.8828801 C 27.055561,6.8012981 18.242435,5.1971689 13.34478,8.1530927 C 13.438547,8.1673221 13.547468,8.177757 13.590089,8.1976781 L 14.301391,8.5154684 L 13.691432,9.0021145 C 11.895657,10.432645 10.964619,12.104127 10.964619,13.830629 C 10.964619,14.388422 11.062175,14.951907 11.258232,15.513495 C 12.546342,19.205554 17.616377,21.987879 23.049164,21.98693 C 24.865777,21.98693 26.445604,21.896811 27.738448,21.770643 C 27.672149,21.6274 27.313182,20.846679 27.313182,20.846679 L 27.959132,20.936799 C 31.283589,20.333472 33.32562,19.155276 34.541747,18.134554 C 31.293061,19.77473 27.999858,20.470075 23.316257,20.470075 C 16.043178,20.470075 12.656211,16.556037 12.656211,13.911262 C 12.656211,10.654624 17.140912,7.9036035 22.450573,7.9036035 C 26.523269,7.9036035 30.126186,9.7818865 30.651848,12.180966 C 30.83654,13.022398 30.760768,14.61135 28.176026,15.80662 L 26.717433,16.481095 L 27.577435,15.121711 C 27.841686,14.704316 27.97618,14.262255 27.97618,13.809759 C 27.97618,11.852741 25.492783,10.259995 22.439206,10.259995 C 19.385631,10.259995 16.901287,11.852741 16.901287,13.809759 C 16.901287,13.843909 16.96948,17.24474 22.88152,17.662136 C 27.789594,18.007437 31.946586,16.287575 34.589103,12.818443 L 35.433004,13.187459 C 35.211373,14.468107 33.741414,16.171843 31.774207,17.430671 C 31.202135,17.796842 30.397067,18.19906 29.480236,18.571871 C 31.094162,18.181036 32.55086,17.564428 33.73289,16.670821 C 35.293775,15.489778 36.155671,14.026995 36.156618,12.552828 C 36.156618,11.190599 35.253995,9.6803833 33.67985,8.4063762 C 32.177688,7.1930814 30.241737,6.3516485 28.061422,5.8194689 C 28.11541,5.8725918 28.169397,5.9257147 28.198758,5.9721975 z"
       i:knockout="Off" />
    <path
       style="fill:url(#XMLID_83_)"
       id="path11978"
       d="M 27.979021,15.375944 C 27.979021,13.701616 26.18514,12.025391 23.344671,12.512036 C 20.572396,12.987299 20.334663,16.079825 24.215091,16.63572 C 28.095519,17.191616 35.141284,14.018456 31.103631,9.657616 C 26.914436,5.1326616 18.910167,6.8012979 17.405164,8.1502466 C 23.02738,6.088879 30.865899,8.1502466 30.865899,11.719933 C 30.866848,14.892143 27.979021,15.375944 27.979021,15.375944 z"
       i:knockout="Off" />
    <path
       style="fill:none;stroke:#c1deea;stroke-width:0.5"
       id="path11993"
       d="M 10.995876,15.897689 C 12.532135,19.396228 17.384327,22.224087 23.051059,22.224087 C 26.712697,22.224087 29.97559,21.872147 30.973875,21.419651 C 30.973875,21.419651 28.044374,21.770643 28.044374,21.166367 C 34.968906,19.910384 36.565783,16.238246 36.565783,16.238246"
       i:knockout="Off" />
    <path
       style="fill:none;fill-rule:evenodd;stroke:#ffffff;stroke-width:4;stroke-linecap:round;stroke-linejoin:miter;stroke-miterlimit:4;stroke-dasharray:none;stroke-opacity:0.42441861"
       d="M 23.999608,14.642188 L 27.171225,22.971587 L 24.35618,32.278702 L 17.88158,41.961863"
       id="path4092"
       sodipodi:nodetypes="cccc" />
    <path
       style="fill:none;fill-rule:evenodd;stroke:#ff0505;stroke-width:2;stroke-linecap:round;stroke-linejoin:miter;stroke-miterlimit:4;stroke-dasharray:none;stroke-opacity:0.49444443"
       d="M 24.026185,15.095046 L 27.197802,23.424445 L 24.382757,32.73156 L 17.908157,42.414721"
       id="path4090"
       sodipodi:nodetypes="cccc" />
    <path
       style="fill:none;fill-rule:evenodd;stroke:#eeeeec;stroke-width:4;stroke-linecap:round;stroke-linejoin:miter;stroke-miterlimit:4;stroke-dasharray:none;stroke-opacity:1"
       d="M 20.207109,2.0838865 L 21.239291,9.5107768 L 23.613311,14.361758"
       id="path4082"
       sodipodi:nodetypes="ccc" />
    <path
       style="fill:none;fill-rule:evenodd;stroke:#ff0505;stroke-width:2;stroke-linecap:round;stroke-linejoin:miter;stroke-miterlimit:4;stroke-dasharray:none;stroke-opacity:1"
       d="M 20.254026,1.9898748 L 21.286208,9.3227545 L 23.650845,14.342956"
       id="path3310"
       sodipodi:nodetypes="ccc" />
  </g>
</svg>
