<?xml version="1.0" encoding="UTF-8" standalone="no"?>
<!-- Generator: Adobe Illustrator 15.0.0, SVG Export Plug-In . SVG Version: 6.00 Build 0)  -->

<svg
   xmlns:dc="http://purl.org/dc/elements/1.1/"
   xmlns:cc="http://creativecommons.org/ns#"
   xmlns:rdf="http://www.w3.org/1999/02/22-rdf-syntax-ns#"
   xmlns:svg="http://www.w3.org/2000/svg"
   xmlns="http://www.w3.org/2000/svg"
   xmlns:xlink="http://www.w3.org/1999/xlink"
   xmlns:sodipodi="http://sodipodi.sourceforge.net/DTD/sodipodi-0.dtd"
   xmlns:inkscape="http://www.inkscape.org/namespaces/inkscape"
   version="1.0"
   id="Layer_1"
   x="0px"
   y="0px"
   width="48"
   height="48"
   viewBox="0 0 612 792"
   enable-background="new 0 0 612 792"
   xml:space="preserve"
   sodipodi:version="0.32"
   inkscape:version="0.48.4 r9939"
   sodipodi:docname="wet_sand.svg"
   inkscape:output_extension="org.inkscape.output.svg.inkscape"><metadata
     id="metadata228"><rdf:RDF><cc:Work
         rdf:about=""><dc:format>image/svg+xml</dc:format><dc:type
           rdf:resource="http://purl.org/dc/dcmitype/StillImage" /><dc:title /></cc:Work></rdf:RDF></metadata><defs
     id="defs226"><linearGradient
       id="linearGradient47929"><stop
         style="stop-color:#e64c60;stop-opacity:1"
         offset="0"
         id="stop47931" /><stop
         style="stop-color:#9f0015;stop-opacity:1;"
         offset="1"
         id="stop47933" /></linearGradient><linearGradient
       inkscape:collect="always"
       id="linearGradient47917"><stop
         style="stop-color:#a40000;stop-opacity:1;"
         offset="0"
         id="stop47919" /><stop
         style="stop-color:#a40000;stop-opacity:0;"
         offset="1"
         id="stop47921" /></linearGradient><linearGradient
       inkscape:collect="always"
       id="linearGradient47907"><stop
         style="stop-color:#000000;stop-opacity:1;"
         offset="0"
         id="stop47909" /><stop
         style="stop-color:#000000;stop-opacity:0;"
         offset="1"
         id="stop47911" /></linearGradient><linearGradient
       id="linearGradient47897"><stop
         style="stop-color:#ff9ba8;stop-opacity:1;"
         offset="0"
         id="stop47899" /><stop
         style="stop-color:#ff1433;stop-opacity:1;"
         offset="1"
         id="stop47901" /></linearGradient><linearGradient
       id="linearGradient47877"><stop
         style="stop-color:#452b01;stop-opacity:1;"
         offset="0"
         id="stop47879" /><stop
         id="stop47881"
         offset="0.54442143"
         style="stop-color:#6a4201;stop-opacity:1;" /><stop
         style="stop-color:#9f6302;stop-opacity:1;"
         offset="1"
         id="stop47883" /></linearGradient><linearGradient
       id="linearGradient47849"><stop
         id="stop47851"
         offset="0"
         style="stop-color:#452b01;stop-opacity:1;" /><stop
         style="stop-color:#6a4201;stop-opacity:1;"
         offset="0.36389133"
         id="stop47853" /><stop
         id="stop47855"
         offset="1"
         style="stop-color:#9f6302;stop-opacity:1;" /></linearGradient><linearGradient
       id="linearGradient47831"><stop
         style="stop-color:#081323;stop-opacity:1;"
         offset="0"
         id="stop47833" /><stop
         style="stop-color:#204a87;stop-opacity:0;"
         offset="1"
         id="stop47835" /></linearGradient><linearGradient
       id="linearGradient47819"><stop
         style="stop-color:#452b01;stop-opacity:1;"
         offset="0"
         id="stop47821" /><stop
         id="stop47827"
         offset="0.57535011"
         style="stop-color:#6a4201;stop-opacity:1;" /><stop
         style="stop-color:#9f6302;stop-opacity:1;"
         offset="1"
         id="stop47823" /></linearGradient><linearGradient
       id="linearGradient47705"><stop
         style="stop-color:#fef5ae;stop-opacity:1;"
         offset="0"
         id="stop47707" /><stop
         style="stop-color:#fce94f;stop-opacity:1;"
         offset="1"
         id="stop47709" /></linearGradient><linearGradient
       inkscape:collect="always"
       id="linearGradient47677"><stop
         style="stop-color:#3e5eab;stop-opacity:1;"
         offset="0"
         id="stop47679" /><stop
         style="stop-color:#3e5eab;stop-opacity:0;"
         offset="1"
         id="stop47681" /></linearGradient><radialGradient
       gradientUnits="userSpaceOnUse"
       gradientTransform="matrix(1.047,0,0,1,-15.8939,0)"
       r="45.114498"
       cy="388.21039"
       cx="417.5947"
       id="radialGradient47671"><stop
         id="stop47673"
         style="stop-color:#097fc8;stop-opacity:1;"
         offset="0" /><stop
         id="stop47675"
         style="stop-color:#00b9f2;stop-opacity:1;"
         offset="0.47477144" /></radialGradient><inkscape:perspective
       sodipodi:type="inkscape:persp3d"
       inkscape:vp_x="0 : 24 : 1"
       inkscape:vp_y="0 : 1000 : 0"
       inkscape:vp_z="48 : 24 : 1"
       inkscape:persp3d-origin="24 : 16 : 1"
       id="perspective76" /><radialGradient
       gradientUnits="userSpaceOnUse"
       gradientTransform="matrix(1.047,0,0,1,-15.8939,0)"
       r="38.565701"
       cy="364.6011"
       cx="400.72461"
       id="SVGID_3_"><stop
         id="stop3308"
         style="stop-color:#00B9F2"
         offset="0.0245" /><stop
         id="stop3310"
         style="stop-color:#00B4ED"
         offset="0.0391" /><stop
         id="stop3312"
         style="stop-color:#0092D0"
         offset="0.1783" /><stop
         id="stop3314"
         style="stop-color:#0078BB"
         offset="0.3193" /><stop
         id="stop3316"
         style="stop-color:#0065AB"
         offset="0.4592" /><stop
         id="stop3318"
         style="stop-color:#0057A0"
         offset="0.5979" /><stop
         id="stop3320"
         style="stop-color:#004C99"
         offset="0.735" /><stop
         id="stop3322"
         style="stop-color:#084694"
         offset="0.8699" /><stop
         id="stop3324"
         style="stop-color:#0B4393"
         offset="1" /></radialGradient><radialGradient
       gradientUnits="userSpaceOnUse"
       gradientTransform="matrix(1.047,0,0,1,-15.8939,0)"
       r="19.733999"
       cy="378.0166"
       cx="398.8486"
       id="SVGID_6_"><stop
         id="stop3355"
         style="stop-color:#FFFFFF"
         offset="0" /><stop
         id="stop3357"
         style="stop-color:#FFFDEC"
         offset="0.0655" /><stop
         id="stop3359"
         style="stop-color:#FEF9CA"
         offset="0.2239" /><stop
         id="stop3361"
         style="stop-color:#FEF6AC"
         offset="0.3834" /><stop
         id="stop3363"
         style="stop-color:#FEF495"
         offset="0.5415" /><stop
         id="stop3365"
         style="stop-color:#FEF385"
         offset="0.6978" /><stop
         id="stop3367"
         style="stop-color:#FEF27A"
         offset="0.8516" /><stop
         id="stop3369"
         style="stop-color:#FEF276"
         offset="1" /></radialGradient><radialGradient
       gradientUnits="userSpaceOnUse"
       gradientTransform="matrix(1.047,0,0,1,-15.8939,0)"
       r="13.2843"
       cy="371.18851"
       cx="412.64841"
       id="SVGID_7_"><stop
         id="stop3374"
         style="stop-color:#FFFFFF"
         offset="0" /><stop
         id="stop3376"
         style="stop-color:#FAF8E8"
         offset="0.0655" /><stop
         id="stop3378"
         style="stop-color:#F2EEC1"
         offset="0.2239" /><stop
         id="stop3380"
         style="stop-color:#EDE6A2"
         offset="0.3834" /><stop
         id="stop3382"
         style="stop-color:#E9E18A"
         offset="0.5415" /><stop
         id="stop3384"
         style="stop-color:#E6DD7A"
         offset="0.6978" /><stop
         id="stop3386"
         style="stop-color:#E4DB70"
         offset="0.8516" /><stop
         id="stop3388"
         style="stop-color:#E3DA6C"
         offset="1" /></radialGradient><radialGradient
       id="SVGID_1_"
       cx="417.5947"
       cy="388.21039"
       r="45.114498"
       gradientTransform="matrix(1.047,0,0,1,-15.8939,0)"
       gradientUnits="userSpaceOnUse"><stop
         offset="0"
         style="stop-color:#097fc8;stop-opacity:1;"
         id="stop3282" /><stop
         offset="0.87120003"
         style="stop-color:#00b9f2;stop-opacity:1;"
         id="stop3284" /></radialGradient><radialGradient
       id="SVGID_2_"
       cx="404.0986"
       cy="373.6011"
       r="19.907"
       gradientTransform="matrix(0.0592,-0.9984,0.7317,0.0396,109.9125,762.2745)"
       gradientUnits="userSpaceOnUse"><stop
         offset="0"
         style="stop-color:#14BDEB"
         id="stop3289" /><stop
         offset="0.908"
         style="stop-color:#00B9F2;stop-opacity:0"
         id="stop3291" /></radialGradient><radialGradient
       id="SVGID_4_"
       cx="415.74509"
       cy="367.70511"
       r="49.737999"
       gradientTransform="matrix(1.0297,-0.1809,0.0189,0.0983,-15.6747,406.7699)"
       gradientUnits="userSpaceOnUse"><stop
         offset="0"
         style="stop-color:#006AA7"
         id="stop3337" /><stop
         offset="0.908"
         style="stop-color:#00B9F2;stop-opacity:0"
         id="stop3339" /></radialGradient><radialGradient
       id="SVGID_5_"
       cx="411.53711"
       cy="363.60889"
       r="14.3445"
       gradientTransform="matrix(1.047,0,0,0.4,-15.8939,218.1653)"
       gradientUnits="userSpaceOnUse"><stop
         offset="0"
         style="stop-color:#F6F6F6"
         id="stop3344" /><stop
         offset="0.908"
         style="stop-color:#00B9F2;stop-opacity:0"
         id="stop3346" /></radialGradient><radialGradient
       inkscape:collect="always"
       xlink:href="#radialGradient47671"
       id="radialGradient47730"
       gradientUnits="userSpaceOnUse"
       gradientTransform="matrix(-4.59748,17.158029,-16.387802,-4.3910984,8292.6695,-5066.0079)"
       cx="417.5947"
       cy="388.21039"
       r="45.114498" /><linearGradient
       inkscape:collect="always"
       xlink:href="#linearGradient47677"
       id="linearGradient47732"
       gradientUnits="userSpaceOnUse"
       x1="302.95734"
       y1="632.99469"
       x2="391.71866"
       y2="263.51257" /><linearGradient
       inkscape:collect="always"
       xlink:href="#linearGradient47677"
       id="linearGradient47734"
       gradientUnits="userSpaceOnUse"
       x1="341.00732"
       y1="662.92273"
       x2="111.46607"
       y2="35.333458" /><linearGradient
       inkscape:collect="always"
       xlink:href="#linearGradient47705"
       id="linearGradient47736"
       gradientUnits="userSpaceOnUse"
       x1="274.86755"
       y1="80.984222"
       x2="350.29413"
       y2="240.9753" /><radialGradient
       inkscape:collect="always"
       xlink:href="#SVGID_3_"
       id="radialGradient47738"
       gradientUnits="userSpaceOnUse"
       gradientTransform="matrix(-4.5974799,17.158028,-16.387802,-4.3910984,8292.6695,-5066.0078)"
       cx="400.72461"
       cy="364.6011"
       r="38.565701" /><radialGradient
       inkscape:collect="always"
       xlink:href="#SVGID_4_"
       id="radialGradient47740"
       gradientUnits="userSpaceOnUse"
       gradientTransform="matrix(-1.5569606,17.668869,-1.6939127,-0.12191551,1625.6424,-6848.5823)"
       cx="415.74509"
       cy="367.70511"
       r="49.737999" /><radialGradient
       inkscape:collect="always"
       xlink:href="#SVGID_5_"
       id="radialGradient47742"
       gradientUnits="userSpaceOnUse"
       gradientTransform="matrix(-4.59748,17.158029,-6.5551208,-1.7564394,4717.4197,-6023.9932)"
       cx="411.53711"
       cy="363.60889"
       r="14.3445" /><linearGradient
       inkscape:collect="always"
       xlink:href="#linearGradient47831"
       id="linearGradient47837"
       x1="24"
       y1="31.392859"
       x2="5.6785712"
       y2="25.5"
       gradientUnits="userSpaceOnUse"
       gradientTransform="matrix(16.5,2.8859315,0,16.5,-70.553572,-76.898423)" /><radialGradient
       inkscape:collect="always"
       xlink:href="#linearGradient47819"
       id="radialGradient47843"
       gradientUnits="userSpaceOnUse"
       gradientTransform="matrix(1.3171417,0.82956546,-0.31140338,0.49443037,31.784809,-75.587225)"
       cx="376.24509"
       cy="485.24777"
       fx="376.24509"
       fy="485.24777"
       r="254.15568" /><radialGradient
       inkscape:collect="always"
       xlink:href="#linearGradient47849"
       id="radialGradient47859"
       gradientUnits="userSpaceOnUse"
       gradientTransform="matrix(0.61594866,0.3827549,-0.19046131,0.30539685,326.55823,144.8761)"
       cx="376.24509"
       cy="485.24777"
       fx="376.24509"
       fy="485.24777"
       r="254.15568" /><radialGradient
       inkscape:collect="always"
       xlink:href="#linearGradient47897"
       id="radialGradient47903"
       cx="238.84833"
       cy="557.27185"
       fx="238.84833"
       fy="557.27185"
       r="301.2705"
       gradientTransform="matrix(1,0,0,0.53748883,0,280.33382)"
       gradientUnits="userSpaceOnUse" /><radialGradient
       inkscape:collect="always"
       xlink:href="#linearGradient47907"
       id="radialGradient47913"
       cx="236.3482"
       cy="638.6142"
       fx="236.3482"
       fy="638.6142"
       r="295.083"
       gradientTransform="matrix(1,0,0,0.52779058,0,301.55964)"
       gradientUnits="userSpaceOnUse" /><linearGradient
       inkscape:collect="always"
       xlink:href="#linearGradient47917"
       id="linearGradient47923"
       x1="10.871767"
       y1="39.401077"
       x2="10.833886"
       y2="37.734325"
       gradientUnits="userSpaceOnUse" /><linearGradient
       inkscape:collect="always"
       xlink:href="#linearGradient47917"
       id="linearGradient47927"
       gradientUnits="userSpaceOnUse"
       x1="10.528449"
       y1="39.426266"
       x2="10.521136"
       y2="38.561512"
       gradientTransform="matrix(-16.205291,-3.1046012,-3.1046012,16.205291,682.57265,75.82136)" /><linearGradient
       inkscape:collect="always"
       xlink:href="#linearGradient47929"
       id="linearGradient47935"
       x1="140.08815"
       y1="454.2298"
       x2="139.47342"
       y2="759.24536"
       gradientUnits="userSpaceOnUse" /><linearGradient
       inkscape:collect="always"
       xlink:href="#linearGradient47917-9"
       id="linearGradient47927-6"
       gradientUnits="userSpaceOnUse"
       x1="39.882225"
       y1="5.6549902"
       x2="39.940186"
       y2="5.58428"
       gradientTransform="matrix(-16.205291,-3.1046012,-3.1046012,16.205291,682.57265,75.82136)" /><linearGradient
       inkscape:collect="always"
       id="linearGradient47917-9"><stop
         style="stop-color:#a40000;stop-opacity:1;"
         offset="0"
         id="stop47919-0" /><stop
         style="stop-color:#a40000;stop-opacity:0;"
         offset="1"
         id="stop47921-7" /></linearGradient><linearGradient
       y2="38.561512"
       x2="10.521136"
       y1="39.426266"
       x1="10.528449"
       gradientTransform="matrix(-0.98213884,-0.18815765,-0.18815765,0.98213884,24.600353,-33.978113)"
       gradientUnits="userSpaceOnUse"
       id="linearGradient47990"
       xlink:href="#linearGradient47917-9"
       inkscape:collect="always" /><radialGradient
       inkscape:collect="always"
       xlink:href="#linearGradient47907"
       id="radialGradient48038"
       gradientUnits="userSpaceOnUse"
       gradientTransform="matrix(1,0,0,0.52779058,0,301.55964)"
       cx="236.3482"
       cy="638.6142"
       fx="236.3482"
       fy="638.6142"
       r="295.083" /><radialGradient
       inkscape:collect="always"
       xlink:href="#linearGradient47897"
       id="radialGradient48040"
       gradientUnits="userSpaceOnUse"
       gradientTransform="matrix(1,0,0,0.53748883,0,280.33382)"
       cx="238.84833"
       cy="557.27185"
       fx="238.84833"
       fy="557.27185"
       r="301.2705" /><linearGradient
       inkscape:collect="always"
       xlink:href="#linearGradient47929"
       id="linearGradient48042"
       gradientUnits="userSpaceOnUse"
       x1="140.08815"
       y1="454.2298"
       x2="139.47342"
       y2="759.24536" /><linearGradient
       inkscape:collect="always"
       xlink:href="#linearGradient47917"
       id="linearGradient48044"
       gradientUnits="userSpaceOnUse"
       x1="10.871767"
       y1="39.401077"
       x2="10.833886"
       y2="37.734325" /><linearGradient
       inkscape:collect="always"
       xlink:href="#linearGradient47917"
       id="linearGradient48046"
       gradientUnits="userSpaceOnUse"
       gradientTransform="matrix(-16.205291,-3.1046012,-3.1046012,16.205291,682.57265,75.82136)"
       x1="10.528449"
       y1="39.426266"
       x2="10.521136"
       y2="38.561512" /><linearGradient
       inkscape:collect="always"
       xlink:href="#linearGradient47917-9"
       id="linearGradient48048"
       gradientUnits="userSpaceOnUse"
       gradientTransform="matrix(-16.205291,-3.1046012,-3.1046012,16.205291,682.57265,75.82136)"
       x1="39.882225"
       y1="5.6549902"
       x2="39.940186"
       y2="5.58428" /></defs><sodipodi:namedview
     inkscape:window-height="1496"
     inkscape:window-width="2560"
     inkscape:pageshadow="2"
     inkscape:pageopacity="0.0"
     guidetolerance="10.0"
     gridtolerance="10.0"
     objecttolerance="10.0"
     borderopacity="1.0"
     bordercolor="#666666"
     pagecolor="#ffffff"
     id="base"
     showgrid="false"
     inkscape:zoom="37.333335"
     inkscape:cx="33.073769"
     inkscape:cy="22.516696"
     inkscape:window-x="-8"
     inkscape:window-y="-8"
     inkscape:current-layer="Layer_1"
     inkscape:window-maximized="1" /><path
     style="fill:url(#linearGradient47837);fill-opacity:1;stroke:none"
     d="M 222.9107,567.7712 -35.19643,390.69644 95.62499,326.95277 l 334.125,123.85081 z"
     id="path47829"
     inkscape:connector-curvature="0"
     sodipodi:nodetypes="ccccc" /><g
     id="g47713"
     transform="matrix(0.70656421,0,0,0.70634319,-42.13536,-17.219546)"><path
       style="fill:none"
       d="M 493.50528,113.49823 69.571644,91.012065 C 34.088643,87.089894 -23.46664,158.59419 -51.991215,265.04935 -80.515789,371.50451 -65.144405,461.75904 -33.733334,476.55149 L 348.55824,682.89716 C 297.71652,543.44285 369.55516,231.28699 493.50528,113.49823 z"
       id="path3273"
       inkscape:connector-curvature="0" /><path
       inkscape:connector-curvature="0"
       id="path3286"
       d="M 74.848131,90.001972 C 52.222121,87.522487 20.41897,116.34276 -6.702721,165.58018 c -19.865564,35.98849 -33.72458,75.51851 -42.533168,115.73435 -13.944789,63.71077 -11.762652,119.67601 -0.140206,153.65087 5.682632,16.68073 13.667668,28.11188 23.087271,32.55037 17.8880822,9.14907 35.7673823,18.33091 53.630295,27.50836 33.172311,17.00324 64.996955,37.79058 98.135309,54.85498 35.61551,18.30778 70.64002,38.2312 106.22274,56.5302 69.2651,35.56186 135.93663,79.492 205.2149,115.0047 8.0884,-30.18633 20.66865,-74.18663 28.74388,-104.3238 16.25145,-60.65126 32.49852,-121.28612 48.74119,-181.9046 12.00965,-44.82064 24.0237,-89.65767 36.02457,-134.44553 16.50175,-61.58536 33.01667,-123.21989 49.52281,-184.82163 -77.78704,-3.82308 -155.53253,-7.67015 -233.26601,-11.49645 -39.98465,-2.00191 -79.93769,-3.9251 -119.82401,-5.900667 -37.29963,-1.862092 -74.55009,-3.71101 -111.79295,-5.522761 -20.07046,-1.00433 -40.14092,-2.008659 -60.215769,-2.9966 z"
       style="fill:url(#radialGradient47730);stroke:#204a87;stroke-width:11.67804718;stroke-miterlimit:4;stroke-dasharray:none" /><path
       sodipodi:nodetypes="cccc"
       style="fill:url(#linearGradient47732);fill-opacity:1"
       d="M 411.1651,236.90227 334.38634,658.55402 282.40626,627.98634 C 295.10453,449.56352 352.32113,321.0654 411.1651,236.90227 z"
       id="path3299"
       inkscape:connector-curvature="0" /><path
       style="fill:#eaf6f8"
       d="M 564.49099,65.616018 C 553.75865,56.768404 465.53367,13.632115 375.7074,30.944949 c 54.66298,1.104753 76.49915,3.319909 103.72612,9.473668 28.49322,6.475486 85.05747,25.197401 85.05747,25.197401 z"
       id="path3305"
       inkscape:connector-curvature="0" /><path
       sodipodi:nodetypes="ccccc"
       style="opacity:0.62000002;fill:#eff8f9"
       d="m 456.54724,131.20658 c -21.3625,22.95859 -39.86834,34.14164 -60.70423,79.12657 L 16.746287,143.35634 c 11.152374,-16.12179 15.090742,-22.23278 28.820978,-30.86641 z"
       id="path3330"
       inkscape:connector-curvature="0" /><path
       style="fill:url(#linearGradient47734);fill-opacity:1"
       d="m 414.65357,109.84655 c -20.87957,-1.58998 -22.79694,-2.10374 -77.95821,-4.16754 -101.49694,-3.76512 -191.62646,-29.829773 -203.03619,103.6059 -17.2149,200.85555 146.83336,395.62004 203.62922,467.36066 0.012,0.0208 -18.32933,-67.80942 -15.33352,-50.67182 -44.12019,-88.63106 -148.28668,-211.37254 -139.94594,-395.75933 5.68131,-124.64273 61.96911,-124.22673 173.80661,-119.39461 8.86714,0.33848 56.32442,-0.0484 58.83803,-0.97326 z"
       id="path3332"
       inkscape:connector-curvature="0" /><path
       id="path3392"
       d="M 597.20485,87.760101 C 564.39802,67.622941 513.0353,38.403675 418.46219,33.314632 295.92424,26.792146 216.22182,118.48038 204.75853,251.91927 c -17.16894,200.81518 94.36602,361.6083 130.08811,426.91182 0.0164,0.004 -1.87519,12.63572 1.9352,21.22696 9.91701,22.57528 40.2489,25.92517 42.27224,-4.56896 1.6667,-14.67635 -11.48261,-26.63061 -17.3344,-26.16112 C 317.57871,580.7089 235.50446,453.52402 243.88236,269.12963 249.5309,144.47812 301.90957,62.664044 444.28456,68.898804 c 58.60538,2.582662 85.93751,17.652182 99.32093,23.029828 11.22913,-3.560246 27.84947,-8.099809 53.59936,-4.168531 z"
       stroke-miterlimit="10"
       style="fill:url(#linearGradient47736);fill-opacity:1;stroke:#9e8a31;stroke-width:11.67804718;stroke-linecap:round;stroke-linejoin:round;stroke-miterlimit:10;stroke-dasharray:none"
       inkscape:connector-curvature="0" /><path
       style="fill:#5eb4e4;stroke:#204a87;stroke-width:11.67804718;stroke-miterlimit:4;stroke-dasharray:none"
       d="M 360.92024,375.67107 C 404.51946,212.95659 488.31411,47.786451 615.35235,81.826245 703.05987,105.3274 696.08684,291.0994 652.49201,453.7975 608.90597,616.46283 522.05879,780.83261 434.35127,757.33145 305.19901,722.7252 317.3342,538.3364 360.92024,375.67107 z"
       id="path3295"
       inkscape:connector-curvature="0" /><path
       style="fill:none"
       d="M 616.77792,84.175437 C 703.6005,107.43948 696.45811,292.27031 653.07845,454.1654 609.70318,616.04411 523.48203,779.65073 436.65945,756.38669"
       id="path3297"
       inkscape:connector-curvature="0" /><path
       style="opacity:0.91000001;fill:#f4fbfe"
       d="M 596.35994,555.19132 C 520.34619,774.50721 314.74541,852.22102 429.73233,377.00151 404.8639,482.13539 367.06843,679.03963 440.88713,717.66588 479.45557,737.80119 541.5514,674.7852 596.35994,555.19132 z"
       id="path3301"
       inkscape:connector-curvature="0" /><path
       style="opacity:0.91000001;fill:#fbfdff"
       d="M 660.59335,399.1123 C 727.0357,174.35121 635.15295,-73.354062 483.74689,230.47943 531.88777,138.32611 639.43054,18.775676 667.16815,185.39404 c 7.27436,43.64703 13.28496,88.53623 -6.5748,213.71826 z"
       id="path3303"
       inkscape:connector-curvature="0" /><path
       style="fill:url(#radialGradient47738)"
       d="m 550.81638,145.55843 c -29.05101,27.66075 -59.80258,79.1047 -86.28486,145.62117 -12.50835,31.40833 -24.06441,66.1456 -34.02781,103.32952 -31.01872,115.76343 -36.84181,218.2546 -20.24106,274.81632 1.79486,6.08397 3.85695,11.69505 6.17662,16.67257 19.62969,42.37333 58.15049,31.09074 87.10458,4.0539 44.41582,-41.477 93.18208,-130.19579 123.38845,-242.92748 9.67798,-36.11871 16.4771,-71.12942 20.6867,-103.88318 8.89949,-69.59427 6.05191,-129.30338 -6.01078,-168.91143 -11.46819,-37.76257 -38.98027,-66.844 -77.09445,-40.10118 -4.52282,3.17921 -9.08462,6.96274 -13.69739,11.32979 z"
       id="path3326"
       inkscape:connector-curvature="0" /><path
       style="fill:none;stroke:#204a87;stroke-width:11.67804718;stroke-linecap:round;stroke-linejoin:round;stroke-miterlimit:10;stroke-dasharray:none"
       stroke-miterlimit="10"
       d="M 445.69765,714.26517 C 394.01052,700.41564 386.43533,561.13771 431.1455,394.2771 475.85127,227.43289 552.23936,109.89758 603.92648,123.74711 655.63,137.60102 672.22631,280.05142 627.52053,446.89564 582.81037,613.75624 497.40116,728.11908 445.69765,714.26517 z"
       id="path3328"
       inkscape:connector-curvature="0" /><path
       inkscape:connector-curvature="0"
       id="path3341"
       d="m 505.94595,106.66188 c -63.90925,51.4294 -116.23101,148.69782 -145.50372,270.26867 -4.28674,17.76822 -7.99905,35.88357 -11.02746,54.19974 -17.11494,103.66342 -30.52364,167.79887 2.14755,247.37272 6.89117,17.74226 15.97988,34.75602 27.9975,47.19744 13.38735,13.95012 30.23704,24.15584 50.984,29.71497 -64.62708,-27.24065 -72.24423,-151.5474 -48.08382,-286.0279 4.94985,-27.58468 11.29039,-55.63982 18.70256,-83.30243 43.59043,-162.68171 128.69459,-309.796061 211.90491,-305.43317 -20.32088,-5.444962 -39.9437,-5.170097 -58.70921,0.164692 -16.8337,4.745859 -32.98588,13.503368 -48.41231,25.845268 z"
       style="fill:url(#radialGradient47740)" /><path
       inkscape:connector-curvature="0"
       id="path3348"
       d="m 506.17638,108.62058 c -63.9584,51.41622 -116.2354,148.71421 -145.50371,270.26867 -4.29113,17.78461 -8.00344,35.89996 -11.06463,54.20734 -17.10616,103.63065 -30.48208,167.77488 2.16394,247.37712 6.87478,17.73787 15.96349,34.75162 27.98111,47.19304 13.39614,13.91735 30.23704,24.15585 50.984,29.71498 C 366.11001,730.14107 358.49286,605.83432 382.66206,471.32105 387.6119,443.73637 393.93605,415.67684 401.33944,388.047 444.93427,225.34891 530.05921,78.222559 613.26513,82.601838 c -20.32088,-5.444962 -39.9437,-5.170097 -58.70482,0.148304 -16.8217,4.766637 -32.98266,13.556922 -48.38393,25.870438 z"
       style="fill:url(#radialGradient47742)" /></g><path
     sodipodi:nodetypes="cccccccccccccccccccccccccc"
     style="fill:url(#radialGradient47859);fill-opacity:1;stroke:#5e3a01;stroke-width:8.25000000000000000;stroke-linecap:butt;stroke-linejoin:miter;stroke-miterlimit:4;stroke-opacity:1;stroke-dasharray:none"
     d="m 357.06011,297.78212 c 11.39646,7.3422 54.91894,18.5435 70.32276,20.65479 6.4408,11.93229 18.05008,-2.12519 26.0617,9.68103 12.24082,8.08226 12.68153,25.97126 18.8465,33.84334 11.40128,3.90746 16.46499,20.31278 8.85771,30.32924 1.49631,12.54773 22.38868,5.23082 21.79266,18.39564 13.52593,-12.22451 27.00156,20.46475 33.60492,4.51775 7.99319,0.9817 13.16966,-11.14118 20.19167,0.69927 11.36135,9.71248 11.21955,24.78118 19.8111,36.48671 1.33904,6.7069 9.79806,11.40751 14.72223,10.83769 6.25947,-11.63491 25.88282,-2.62291 25.40689,8.71974 13.59913,3.56836 15.03306,16.72496 21.17394,25.70684 4.91625,9.90235 20.37612,14.11715 26.82016,25.22916 -22.88875,20.12827 -37.69766,7.13726 -61.12747,11.57962 -14.47183,3.76595 -29.24639,-1.69082 -43.82418,-2.77965 -8.96386,-1.20171 -17.92773,-2.40341 -26.89159,-3.60511 -10.7007,12.18774 -28.85079,-1.81187 -39.78823,8.67566 -12.92435,4.64798 -23.6104,-6.97797 -35.5102,-7.47266 -15.36096,3.61028 -30.96515,2.02749 -46.54478,1.6667 -10.96784,-2.35282 -7.38127,-19.76161 -22.20197,-12.92508 -11.84308,1.93193 -6.6856,-13.89016 -19.66557,-10.05469 -13.22352,0.43362 -3.42729,-10.74049 -10.5571,-16.64975 3.35254,-8.08519 19.52186,-0.24986 23.50118,-10.10323 6.31301,-7.15985 12.90347,-1.78366 15.5922,-10.31939 4.11468,-12.80531 -6.53849,-31.48784 -11.3802,-46.19295 C 375.26379,380.0036 351.1343,354.27774 357.06011,297.78212 z"
     id="path47857"
     inkscape:connector-curvature="0" /><path
     style="color:#000000;fill:none;stroke:#d9a654;stroke-width:8.25000000000000000;stroke-linecap:butt;stroke-linejoin:miter;stroke-miterlimit:4;stroke-opacity:1;stroke-dasharray:none;stroke-dashoffset:0;marker:none;visibility:visible;display:inline;overflow:visible;enable-background:accumulate"
     d="m 353.37274,305.11244 c 11.39646,7.3422 54.91894,18.5435 70.32276,20.65479 6.4408,11.93229 18.05008,-2.12519 26.0617,9.68103 12.24082,8.08226 12.68153,25.97126 18.8465,33.84334 11.40128,3.90746 16.46499,20.31278 8.85771,30.32924 1.49631,12.54773 22.38868,5.23082 21.79266,18.39564 13.52593,-12.22451 27.00156,20.46475 33.60492,4.51775 7.99319,0.9817 13.16966,-11.14118 20.19167,0.69927 11.36135,9.71248 11.21955,24.78118 19.8111,36.48671 1.33904,6.7069 9.79806,11.40751 14.72223,10.83769 6.25947,-11.63491 25.88282,-2.62291 25.40689,8.71974 13.59913,3.56836 15.03306,16.72496 21.17394,25.70684 3.39401,6.83625 17.43846,11.27429 21.94694,19.33002"
     id="path3220"
     inkscape:connector-curvature="0"
     sodipodi:nodetypes="ccccccccccccc" /><path
     style="fill:url(#radialGradient47843);fill-opacity:1;stroke:#533401;stroke-width:8.25;stroke-linecap:butt;stroke-linejoin:miter;stroke-miterlimit:4;stroke-opacity:1;stroke-dasharray:none"
     d="m 270.78053,237.97117 c 18.47049,11.92795 18.09812,42.31019 43.06342,45.74014 10.43875,19.38488 29.25416,-3.45253 42.23876,15.72755 19.83895,13.13022 20.55322,42.19221 30.54493,54.98099 18.47829,6.34795 26.68515,32.9996 14.35587,49.27208 2.42511,20.38471 36.28582,8.49785 35.31983,29.88508 21.92177,-19.85962 43.762,33.24649 54.46421,7.33941 12.95473,1.59484 21.34435,-18.09967 32.72507,1.13601 18.41359,15.77864 18.18377,40.25886 32.10827,59.27535 2.17022,10.89585 15.87993,18.53234 23.86064,17.60663 10.14485,-18.90177 41.94884,-4.26111 41.17749,14.16585 22.0404,5.79706 24.3644,27.17094 34.31706,41.76266 7.96787,16.0871 33.02401,22.93435 43.468,40.98663 -17.76247,-2.93408 -35.52493,-5.86815 -53.2874,-8.80223 8.45743,30.95376 -34.25141,12.82871 -45.78319,27.61417 -23.45481,6.11807 -47.40025,-2.74686 -71.02679,-4.51575 -14.52792,-1.95226 -29.05585,-3.90451 -43.58378,-5.85677 -17.34284,19.79988 -46.75908,-2.94351 -64.48563,14.09426 -20.94676,7.55098 -38.26588,-11.33623 -57.55214,-12.13989 -24.89583,5.86517 -50.18587,3.29381 -75.43612,2.70768 -17.7758,-3.82234 -11.96297,-32.10419 -35.98321,-20.99774 -19.19433,3.13855 -10.83549,-22.56559 -31.8724,-16.33459 -21.43165,0.70444 -5.55468,-17.44872 -17.11012,-27.04874 5.43354,-13.13499 31.6395,-0.40592 38.08887,-16.41345 10.23163,-11.6317 20.91292,-2.89769 25.27061,-16.76461 6.66875,-20.80317 -10.59707,-51.1543 -18.44413,-75.04384 -17.8452,-72.61713 -8.32826,-150.96545 23.56188,-218.37688 z"
     id="path47809"
     inkscape:connector-curvature="0" /><path
     style="fill:none;stroke:#d9a654;stroke-width:8.25;stroke-linecap:butt;stroke-linejoin:miter;stroke-miterlimit:4;stroke-opacity:1;stroke-dasharray:none;color:#000000;stroke-dashoffset:0;marker:none;visibility:visible;display:inline;overflow:visible;enable-background:accumulate"
     d="m 267.03034,246.72162 c 18.47049,11.92795 18.09812,42.31019 43.06342,45.74014 10.43875,19.38488 29.25416,-3.45253 42.23876,15.72755 19.83895,13.13022 20.55322,42.19221 30.54493,54.98099 18.47829,6.34795 26.68515,32.9996 14.35587,49.27208 2.42511,20.38471 36.28582,8.49785 35.31983,29.88508 21.92177,-19.85962 43.762,33.24649 54.46421,7.33941 12.95473,1.59484 21.34435,-18.09967 32.72507,1.13601 18.41359,15.77864 18.18377,40.25886 32.10827,59.27535 2.17022,10.89585 15.87993,18.53234 23.86064,17.60663 10.14485,-18.90177 41.94884,-4.26111 41.17749,14.16585 22.0404,5.79706 13.11383,10.92011 23.06649,25.51183 7.96787,16.0871 33.02401,22.93435 43.468,40.98663"
     id="path47873"
     inkscape:connector-curvature="0"
     sodipodi:nodetypes="ccccccccccccc" /><g
     id="g48027"
     transform="translate(-25.001275,10.00051)"><path
       style="fill:url(#radialGradient48038);fill-opacity:1;stroke:none"
       d="M 137.56705,612.41655 40.845426,506.062 c -3.025706,-19.59105 8.141692,-25.12503 27.417162,-22.62865 43.846732,29.99086 79.102852,72.48275 134.039372,87.49741 29.0954,7.95202 60.92669,14.53944 90.6289,7.5428 l 140.89369,-33.18862 c 31.01528,-3.80856 23.28555,10.29059 25.89396,19.61146 -32.0648,39.43572 -80.01661,50.5489 -121.09241,73.92024 29.0333,20.88395 75.75456,25.72532 97.43557,40.90835 25.50485,17.86086 58.72582,22.17868 89.91496,25.4689 17.78033,4.89079 -11.40727,37.0238 -37.31782,36.96013 -30.7317,-4.0731 -65.63513,-19.2723 -85.43555,-18.73151 -40.43334,1.10445 -83.33927,-7.65987 -120.95462,-21.24575 -40.136,63.37894 -101.67529,72.58465 -159.17176,92.02308 -24.696883,2.21877 -50.457397,-19.53344 -27.417172,-42.24005 34.045312,-14.24912 76.566912,-37.25601 91.390512,-60.34307 -34.94032,0.78287 -67.31346,-18.63302 -98.477718,-12.31048 -47.212738,9.57845 -91.392862,5.64115 -134.568041,-2.77522 -11.648008,-11.56575 -20.608952,-23.1315 -2.284775,-34.69725 74.889438,7.81507 117.030622,-34.29938 185.827364,-29.41722 z"
       id="path47905"
       inkscape:connector-curvature="0"
       sodipodi:nodetypes="cccsscccsccsccccsccc" /><path
       sodipodi:nodetypes="cccsscccsccsccccsccc"
       inkscape:connector-curvature="0"
       id="path47885"
       d="M 137.56705,579.91489 40.845426,473.56034 c -3.025706,-19.59105 8.141692,-25.12503 27.417162,-22.62865 43.846732,29.99086 79.102852,72.48275 134.039372,87.49741 29.0954,7.95202 60.92669,14.53944 90.6289,7.5428 l 140.89369,-33.18862 c 31.01528,-3.80856 23.28555,10.29059 25.89396,19.61146 -32.0648,39.43572 -80.01661,50.5489 -121.09241,73.92024 29.0333,20.88395 75.75456,25.72532 97.43557,40.90835 25.50485,17.86086 58.72582,22.17868 89.91496,25.4689 17.78033,4.89079 -11.40727,37.0238 -37.31782,36.96013 -30.7317,-4.0731 -65.63513,-19.2723 -85.43555,-18.73151 -40.43334,1.10445 -83.33927,-7.65987 -120.95462,-21.24575 -40.136,63.37894 -101.67529,72.58465 -159.17176,92.02308 -24.696883,2.21877 -50.457397,-19.53344 -27.417172,-42.24005 34.045312,-14.24912 76.566912,-37.25601 91.390512,-60.34307 -34.94032,0.78287 -67.31346,-18.63302 -98.477718,-12.31048 -47.212738,9.57845 -91.392862,5.64115 -134.568041,-2.77522 -11.648008,-11.56575 -20.608952,-23.1315 -2.284775,-34.69725 74.889438,7.81507 117.030622,-34.29938 185.827364,-29.41722 z"
       style="fill:url(#radialGradient48040);fill-opacity:1;stroke:url(#linearGradient48042);stroke-width:12.375;stroke-linecap:butt;stroke-linejoin:miter;stroke-miterlimit:4;stroke-opacity:1;stroke-dasharray:none" /><path
       sodipodi:nodetypes="cccccc"
       transform="matrix(16.5,0,0,16.5,-90,0)"
       inkscape:connector-curvature="0"
       id="path47915"
       d="m 2.3107239,37.923729 c 4.5583134,1.252971 9.1923881,-0.662138 13.6749401,-0.265165 -0.133779,0.777751 0.679367,1.593476 1.477348,1.931916 -2.13338,0.07339 -3.944146,-0.494846 -5.794048,-0.816901 -2.8668752,0.434913 -5.6958697,0.564431 -8.9794329,0.09717 z"
       style="fill:url(#linearGradient48044);fill-opacity:1;stroke:none" /><path
       style="fill:url(#linearGradient48046);fill-opacity:1;stroke:none"
       d="m 306.6055,636.46023 c -0.24667,13.01902 -15.95644,23.71358 -29.93868,26.72069 43.30718,13.3213 91.79989,25.18781 134.97669,22.31378 33.73086,10.13055 84.43308,32.03853 105.41628,6.26321 -63.58867,-5.63329 -193.96792,-37.42272 -210.45429,-55.29768 z"
       id="path47925"
       inkscape:connector-curvature="0"
       sodipodi:nodetypes="ccccc" /><path
       sodipodi:nodetypes="csc"
       transform="matrix(16.5,0,0,16.5,-90,0)"
       inkscape:connector-curvature="0"
       id="path47937"
       d="m 9.3565377,27.771696 c 3.0403323,2.601474 7.4925313,5.900141 10.9096473,6.060915 4.074376,0.191697 7.505907,-1.362914 12.046069,-2.462247"
       style="fill:none;stroke:#ffffff;stroke-width:0.5;stroke-linecap:round;stroke-linejoin:miter;stroke-miterlimit:4;stroke-opacity:1;stroke-dasharray:none" /><path
       sodipodi:nodetypes="ccc"
       transform="matrix(16.5,0,0,16.5,-90,0)"
       inkscape:connector-curvature="0"
       id="path47939"
       d="m 25.26644,36.976711 c 1.695896,1.294404 4.302557,1.788972 5.83363,2.538007 1.466842,0.853348 3.57628,1.772882 6.136677,1.666753"
       style="color:#000000;fill:none;stroke:#ffffff;stroke-width:0.5;stroke-linecap:round;stroke-linejoin:miter;stroke-miterlimit:4;stroke-opacity:1;stroke-dasharray:none;stroke-dashoffset:0;marker:none;visibility:visible;display:inline;overflow:visible;enable-background:accumulate" /><path
       sodipodi:nodetypes="cc"
       transform="matrix(16.5,0,0,16.5,-90,0)"
       inkscape:connector-curvature="0"
       id="path47965"
       d="M 14.621958,35.650886 C 9.72274,35.349835 7.2791087,38.007125 2.6895311,37.431279"
       style="color:#000000;fill:none;stroke:#ffffff;stroke-width:0.5;stroke-linecap:round;stroke-linejoin:miter;stroke-miterlimit:4;stroke-opacity:1;stroke-dasharray:none;stroke-dashoffset:0;marker:none;visibility:visible;display:inline;overflow:visible;enable-background:accumulate" /><path
       sodipodi:nodetypes="ccccc"
       transform="matrix(16.5,0,0,16.5,-90,0)"
       inkscape:connector-curvature="0"
       id="path47973"
       d="m 11.099051,44.81802 c 3.154343,0.192737 7.615817,-1.778154 9.811106,-4.772971 0.478484,0.196431 1.015146,0.21207 1.477348,0.227284 -1.473517,3.003045 -6.324864,4.882181 -9.621703,5.568466 -1.134358,-0.123886 -1.560685,-0.423317 -1.666751,-1.022779 z"
       style="color:#000000;fill:url(#linearGradient48048);fill-opacity:1;fill-rule:nonzero;stroke:none;marker:none;visibility:visible;display:inline;overflow:visible;enable-background:accumulate" /><path
       sodipodi:nodetypes="cc"
       transform="matrix(16.5,0,0,16.5,-90,0)"
       inkscape:connector-curvature="0"
       id="path48008"
       d="m 11.402096,44.022524 c 1.587211,-0.582965 4.835165,-1.804717 6.174558,-4.432044"
       style="color:#000000;fill:none;stroke:#ffffff;stroke-width:0.5;stroke-linecap:round;stroke-linejoin:miter;stroke-miterlimit:4;stroke-opacity:1;stroke-dasharray:none;stroke-dashoffset:0;marker:none;visibility:visible;display:inline;overflow:visible;enable-background:accumulate" /></g></svg>