<?xml version="1.0" encoding="UTF-8" standalone="no"?>
<!-- Created with Inkscape (http://www.inkscape.org/) -->
<svg
   xmlns:a="http://ns.adobe.com/AdobeSVGViewerExtensions/3.0/"
   xmlns:i="http://ns.adobe.com/AdobeIllustrator/10.0/"
   xmlns:dc="http://purl.org/dc/elements/1.1/"
   xmlns:cc="http://web.resource.org/cc/"
   xmlns:rdf="http://www.w3.org/1999/02/22-rdf-syntax-ns#"
   xmlns:svg="http://www.w3.org/2000/svg"
   xmlns="http://www.w3.org/2000/svg"
   xmlns:xlink="http://www.w3.org/1999/xlink"
   xmlns:sodipodi="http://sodipodi.sourceforge.net/DTD/sodipodi-0.dtd"
   xmlns:inkscape="http://www.inkscape.org/namespaces/inkscape"
   width="48px"
   height="48px"
   id="svg31403"
   sodipodi:version="0.32"
   inkscape:version="0.44"
   sodipodi:docbase="e:\dev_clean\src\houdini\support\icons\dop"
   sodipodi:docname="wireglueconstraint.svg">
  <defs
     id="defs31405">
    <radialGradient
       gradientUnits="userSpaceOnUse"
       fy="1499.855"
       fx="264.8848"
       r="8.5592"
       cy="1499.855"
       cx="264.8848"
       id="XMLID_878_"
       gradientTransform="translate(9.073071,-1121.746)">
				<stop
   id="stop18192"
   style="stop-color:#FCDFA8"
   offset="0.0056" />

				
				<stop
   id="stop18196"
   style="stop-color:#F3841A"
   offset="1" />

				<a:midPointStop
   style="stop-color:#FCDFA8"
   offset="0.0056" />

				<a:midPointStop
   style="stop-color:#FCDFA8"
   offset="0.5" />

				<a:midPointStop
   style="stop-color:#FAAF3E"
   offset="0.3876" />

				<a:midPointStop
   style="stop-color:#FAAF3E"
   offset="0.5" />

				<a:midPointStop
   style="stop-color:#F3841A"
   offset="1" />

			</radialGradient>
    <radialGradient
       inkscape:collect="always"
       xlink:href="#XMLID_878_"
       id="radialGradient30825"
       gradientUnits="userSpaceOnUse"
       gradientTransform="translate(9.073071,-1121.746)"
       cx="264.8848"
       cy="1499.855"
       fx="264.8848"
       fy="1499.855"
       r="8.5592" />
    <linearGradient
       y2="1509.7975"
       x2="274.9265"
       y1="1494.3853"
       x1="260.8828"
       gradientUnits="userSpaceOnUse"
       id="XMLID_877_"
       gradientTransform="translate(9.073071,-1121.746)">
				<stop
   id="stop18181"
   style="stop-color:#F17912"
   offset="0.0056" />

				<stop
   id="stop18183"
   style="stop-color:#FAAF3E"
   offset="0.2921" />

				<stop
   id="stop18185"
   style="stop-color:#F17912"
   offset="0.5899" />

				<stop
   id="stop18187"
   style="stop-color:#73340F"
   offset="1" />

				<a:midPointStop
   style="stop-color:#F17912"
   offset="0.0056" />

				<a:midPointStop
   style="stop-color:#F17912"
   offset="0.5" />

				<a:midPointStop
   style="stop-color:#FAAF3E"
   offset="0.2921" />

				<a:midPointStop
   style="stop-color:#FAAF3E"
   offset="0.5" />

				<a:midPointStop
   style="stop-color:#F17912"
   offset="0.5899" />

				<a:midPointStop
   style="stop-color:#F17912"
   offset="0.5" />

				<a:midPointStop
   style="stop-color:#73340F"
   offset="1" />

			</linearGradient>
    <linearGradient
       inkscape:collect="always"
       xlink:href="#XMLID_877_"
       id="linearGradient30823"
       gradientUnits="userSpaceOnUse"
       gradientTransform="translate(9.073071,-1121.746)"
       x1="260.8828"
       y1="1494.3853"
       x2="274.9265"
       y2="1509.7975" />
    <linearGradient
       y2="1503.7035"
       x2="266.0486"
       y1="1505.2087"
       x1="264.23267"
       gradientUnits="userSpaceOnUse"
       id="XMLID_876_"
       gradientTransform="translate(9.073071,-1121.746)">
				<stop
   id="stop18162"
   style="stop-color:#a82900;stop-opacity:0;"
   offset="0.0056" />

				
				
				
				
				
				
				<stop
   id="stop18176"
   style="stop-color:#8a3e0e;stop-opacity:1;"
   offset="1" />

				<a:midPointStop
   style="stop-color:#FFFFFF"
   offset="0.0056" />

				<a:midPointStop
   style="stop-color:#FFFFFF"
   offset="0.3446" />

				<a:midPointStop
   style="stop-color:#BF5614"
   offset="1" />

			</linearGradient>
    <linearGradient
       inkscape:collect="always"
       xlink:href="#XMLID_876_"
       id="linearGradient30821"
       gradientUnits="userSpaceOnUse"
       gradientTransform="translate(9.073071,-1121.746)"
       x1="264.23267"
       y1="1505.2087"
       x2="266.0486"
       y2="1503.7035" />
    <linearGradient
       y2="1513.642"
       x2="263.7776"
       y1="1504.6606"
       x1="255.8857"
       gradientUnits="userSpaceOnUse"
       id="XMLID_874_"
       gradientTransform="translate(9.073071,-1121.746)">
				<stop
   id="stop18126"
   style="stop-color:#F17912"
   offset="0.0056" />

				<stop
   id="stop18128"
   style="stop-color:#F27D15"
   offset="0.0223" />

				<stop
   id="stop18130"
   style="stop-color:#F78E21"
   offset="0.098" />

				<stop
   id="stop18132"
   style="stop-color:#F99326"
   offset="0.1573" />

				<stop
   id="stop18134"
   style="stop-color:#C56417"
   offset="0.6742" />

				<stop
   id="stop18136"
   style="stop-color:#994511"
   offset="1" />

				<a:midPointStop
   style="stop-color:#F17912"
   offset="0.0056" />

				<a:midPointStop
   style="stop-color:#F17912"
   offset="0.3446" />

				<a:midPointStop
   style="stop-color:#F99326"
   offset="0.1573" />

				<a:midPointStop
   style="stop-color:#F99326"
   offset="0.5" />

				<a:midPointStop
   style="stop-color:#C56417"
   offset="0.6742" />

				<a:midPointStop
   style="stop-color:#C56417"
   offset="0.5" />

				<a:midPointStop
   style="stop-color:#994511"
   offset="1" />

			</linearGradient>
    <linearGradient
       inkscape:collect="always"
       xlink:href="#XMLID_874_"
       id="linearGradient30819"
       gradientUnits="userSpaceOnUse"
       gradientTransform="translate(9.073071,-1121.746)"
       x1="255.8857"
       y1="1504.6606"
       x2="263.7776"
       y2="1513.642" />
    <linearGradient
       y2="1518.8663"
       x2="260.6341"
       y1="1507.1665"
       x1="250.5942"
       gradientUnits="userSpaceOnUse"
       id="XMLID_873_"
       gradientTransform="translate(9.073071,-1121.746)">
				<stop
   id="stop18115"
   style="stop-color:#F17912"
   offset="0.0056" />

				<stop
   id="stop18117"
   style="stop-color:#FAAF3E"
   offset="0.3146" />

				<stop
   id="stop18119"
   style="stop-color:#F17912"
   offset="0.5899" />

				<stop
   id="stop18121"
   style="stop-color:#6E290A"
   offset="1" />

				<a:midPointStop
   style="stop-color:#F17912"
   offset="0.0056" />

				<a:midPointStop
   style="stop-color:#F17912"
   offset="0.5" />

				<a:midPointStop
   style="stop-color:#FAAF3E"
   offset="0.3146" />

				<a:midPointStop
   style="stop-color:#FAAF3E"
   offset="0.5" />

				<a:midPointStop
   style="stop-color:#F17912"
   offset="0.5899" />

				<a:midPointStop
   style="stop-color:#F17912"
   offset="0.5" />

				<a:midPointStop
   style="stop-color:#6E290A"
   offset="1" />

			</linearGradient>
    <linearGradient
       inkscape:collect="always"
       xlink:href="#XMLID_873_"
       id="linearGradient30817"
       gradientUnits="userSpaceOnUse"
       gradientTransform="translate(9.073071,-1121.746)"
       x1="250.5942"
       y1="1507.1665"
       x2="260.6341"
       y2="1518.8663" />
    <radialGradient
       gradientUnits="userSpaceOnUse"
       fy="1513.6431"
       fx="247.0171"
       r="14.582"
       cy="1513.6431"
       cx="247.0171"
       id="XMLID_872_"
       gradientTransform="translate(9.073071,-1121.746)">
				<stop
   id="stop18104"
   style="stop-color:#FAAF3E"
   offset="0.0056" />

				<stop
   id="stop18106"
   style="stop-color:#FAAF3E"
   offset="0.3371" />

				<stop
   id="stop18108"
   style="stop-color:#F17912"
   offset="0.6517" />

				<stop
   id="stop18110"
   style="stop-color:#73340F"
   offset="1" />

				<a:midPointStop
   style="stop-color:#FAAF3E"
   offset="0.0056" />

				<a:midPointStop
   style="stop-color:#FAAF3E"
   offset="0.5" />

				<a:midPointStop
   style="stop-color:#FAAF3E"
   offset="0.3371" />

				<a:midPointStop
   style="stop-color:#FAAF3E"
   offset="0.5" />

				<a:midPointStop
   style="stop-color:#F17912"
   offset="0.6517" />

				<a:midPointStop
   style="stop-color:#F17912"
   offset="0.5" />

				<a:midPointStop
   style="stop-color:#73340F"
   offset="1" />

			</radialGradient>
    <radialGradient
       inkscape:collect="always"
       xlink:href="#XMLID_872_"
       id="radialGradient30815"
       gradientUnits="userSpaceOnUse"
       gradientTransform="translate(9.073071,-1121.746)"
       cx="247.0171"
       cy="1513.6431"
       fx="247.0171"
       fy="1513.6431"
       r="14.582" />
    <linearGradient
       y2="1525.255"
       x2="261.4632"
       y1="1505.2856"
       x1="244.2827"
       gradientUnits="userSpaceOnUse"
       id="XMLID_871_"
       gradientTransform="translate(9.073071,-1121.746)">
				<stop
   id="stop18091"
   style="stop-color:#F17912"
   offset="0.0056" />

				<stop
   id="stop18093"
   style="stop-color:#FAAF3E"
   offset="0.2921" />

				<stop
   id="stop18095"
   style="stop-color:#FAAF3E"
   offset="0.5449" />

				<stop
   id="stop18097"
   style="stop-color:#F17912"
   offset="0.6517" />

				<stop
   id="stop18099"
   style="stop-color:#73340F"
   offset="1" />

				<a:midPointStop
   style="stop-color:#F17912"
   offset="0.0056" />

				<a:midPointStop
   style="stop-color:#F17912"
   offset="0.5" />

				<a:midPointStop
   style="stop-color:#FAAF3E"
   offset="0.2921" />

				<a:midPointStop
   style="stop-color:#FAAF3E"
   offset="0.5" />

				<a:midPointStop
   style="stop-color:#FAAF3E"
   offset="0.5449" />

				<a:midPointStop
   style="stop-color:#FAAF3E"
   offset="0.5" />

				<a:midPointStop
   style="stop-color:#F17912"
   offset="0.6517" />

				<a:midPointStop
   style="stop-color:#F17912"
   offset="0.5" />

				<a:midPointStop
   style="stop-color:#73340F"
   offset="1" />

			</linearGradient>
    <linearGradient
       inkscape:collect="always"
       xlink:href="#XMLID_871_"
       id="linearGradient30813"
       gradientUnits="userSpaceOnUse"
       gradientTransform="translate(9.073071,-1121.746)"
       x1="244.2827"
       y1="1505.2856"
       x2="261.4632"
       y2="1525.255" />
    <linearGradient
       y2="1526.3899"
       x2="260.0297"
       y1="1506.5864"
       x1="242.98"
       gradientUnits="userSpaceOnUse"
       id="XMLID_870_"
       gradientTransform="translate(9.073071,-1121.746)">
				<stop
   id="stop18082"
   style="stop-color:#73340F"
   offset="0.0056" />

				<stop
   id="stop18084"
   style="stop-color:#F17912"
   offset="0.4607" />

				<stop
   id="stop18086"
   style="stop-color:#73340F"
   offset="1" />

				<a:midPointStop
   style="stop-color:#73340F"
   offset="0.0056" />

				<a:midPointStop
   style="stop-color:#73340F"
   offset="0.5" />

				<a:midPointStop
   style="stop-color:#F17912"
   offset="0.4607" />

				<a:midPointStop
   style="stop-color:#F17912"
   offset="0.5" />

				<a:midPointStop
   style="stop-color:#73340F"
   offset="1" />

			</linearGradient>
    <linearGradient
       inkscape:collect="always"
       xlink:href="#XMLID_870_"
       id="linearGradient30811"
       gradientUnits="userSpaceOnUse"
       gradientTransform="translate(9.073071,-1121.746)"
       x1="242.98"
       y1="1506.5864"
       x2="260.0297"
       y2="1526.3899" />
    <linearGradient
       y2="1528.2897"
       x2="240.8098"
       y1="1525.7026"
       x1="238.4858"
       gradientUnits="userSpaceOnUse"
       id="XMLID_869_">
				<stop
   id="stop18057"
   style="stop-color:#3E444C"
   offset="0.0056" />

				<stop
   id="stop18059"
   style="stop-color:#ADBECA"
   offset="0.2978" />

				<stop
   id="stop18061"
   style="stop-color:#ADBECA"
   offset="0.4775" />

				<stop
   id="stop18063"
   style="stop-color:#828F99"
   offset="0.7022" />

				<stop
   id="stop18065"
   style="stop-color:#292E33"
   offset="1" />

				<a:midPointStop
   style="stop-color:#3E444C"
   offset="0.0056" />

				<a:midPointStop
   style="stop-color:#3E444C"
   offset="0.5" />

				<a:midPointStop
   style="stop-color:#ADBECA"
   offset="0.2978" />

				<a:midPointStop
   style="stop-color:#ADBECA"
   offset="0.5" />

				<a:midPointStop
   style="stop-color:#ADBECA"
   offset="0.4775" />

				<a:midPointStop
   style="stop-color:#ADBECA"
   offset="0.5" />

				<a:midPointStop
   style="stop-color:#828F99"
   offset="0.7022" />

				<a:midPointStop
   style="stop-color:#828F99"
   offset="0.5" />

				<a:midPointStop
   style="stop-color:#292E33"
   offset="1" />

			</linearGradient>
    <linearGradient
       inkscape:collect="always"
       xlink:href="#XMLID_869_"
       id="linearGradient30809"
       gradientUnits="userSpaceOnUse"
       x1="238.4858"
       y1="1525.7026"
       x2="240.8098"
       y2="1528.2897" />
    <linearGradient
       gradientTransform="matrix(-1,0,0,1,1812.6,0)"
       y2="1597.5581"
       x2="1409.4609"
       y1="1597.5581"
       x1="1373.5156"
       gradientUnits="userSpaceOnUse"
       id="XMLID_912_">
					<stop
   id="stop18666"
   style="stop-color:#E8EDED"
   offset="0.0056" />

					<stop
   id="stop18668"
   style="stop-color:#A1ACB3"
   offset="0.3539" />

					<stop
   id="stop18670"
   style="stop-color:#575D66"
   offset="1" />

					<a:midPointStop
   style="stop-color:#E8EDED"
   offset="0.0056" />

					<a:midPointStop
   style="stop-color:#E8EDED"
   offset="0.5" />

					<a:midPointStop
   style="stop-color:#A1ACB3"
   offset="0.3539" />

					<a:midPointStop
   style="stop-color:#A1ACB3"
   offset="0.5" />

					<a:midPointStop
   style="stop-color:#575D66"
   offset="1" />

				</linearGradient>
    <linearGradient
       gradientTransform="matrix(-1,0,0,1,1812.6,0)"
       y2="1608.2056"
       x2="1380.0703"
       y1="1608.2056"
       x1="1366.5303"
       gradientUnits="userSpaceOnUse"
       id="XMLID_913_">
					<stop
   id="stop18677"
   style="stop-color:#A1ACB3"
   offset="0" />

					<stop
   id="stop18679"
   style="stop-color:#D0D6D8"
   offset="0.3258" />

					<stop
   id="stop18681"
   style="stop-color:#575D66"
   offset="1" />

					<a:midPointStop
   style="stop-color:#A1ACB3"
   offset="0" />

					<a:midPointStop
   style="stop-color:#A1ACB3"
   offset="0.5" />

					<a:midPointStop
   style="stop-color:#D0D6D8"
   offset="0.3258" />

					<a:midPointStop
   style="stop-color:#D0D6D8"
   offset="0.5" />

					<a:midPointStop
   style="stop-color:#575D66"
   offset="1" />

				</linearGradient>
    <linearGradient
       gradientTransform="matrix(-1,0,0,1,1812.6,0)"
       y2="1596.6069"
       x2="1409.4609"
       y1="1596.6069"
       x1="1382.9512"
       gradientUnits="userSpaceOnUse"
       id="XMLID_914_">
					<stop
   id="stop18688"
   style="stop-color:#A1ACB3"
   offset="0" />

					<stop
   id="stop18690"
   style="stop-color:#E8EDED"
   offset="0.4888" />

					<stop
   id="stop18692"
   style="stop-color:#575D66"
   offset="1" />

					<a:midPointStop
   style="stop-color:#A1ACB3"
   offset="0" />

					<a:midPointStop
   style="stop-color:#A1ACB3"
   offset="0.5" />

					<a:midPointStop
   style="stop-color:#E8EDED"
   offset="0.4888" />

					<a:midPointStop
   style="stop-color:#E8EDED"
   offset="0.5" />

					<a:midPointStop
   style="stop-color:#575D66"
   offset="1" />

				</linearGradient>
    <linearGradient
       gradientTransform="matrix(-1,0,0,1,1812.6,0)"
       y2="1593.2808"
       x2="1386.8467"
       y1="1593.2808"
       x1="1373.5693"
       gradientUnits="userSpaceOnUse"
       id="XMLID_915_">
					<stop
   id="stop18701"
   style="stop-color:#FFFFFF"
   offset="0" />

					<stop
   id="stop18703"
   style="stop-color:#D0D6D8"
   offset="0.2079" />

					<stop
   id="stop18705"
   style="stop-color:#737B87"
   offset="0.3933" />

					<stop
   id="stop18707"
   style="stop-color:#D0D6D8"
   offset="1" />

					<a:midPointStop
   style="stop-color:#FFFFFF"
   offset="0" />

					<a:midPointStop
   style="stop-color:#FFFFFF"
   offset="0.5" />

					<a:midPointStop
   style="stop-color:#D0D6D8"
   offset="0.2079" />

					<a:midPointStop
   style="stop-color:#D0D6D8"
   offset="0.5" />

					<a:midPointStop
   style="stop-color:#737B87"
   offset="0.3933" />

					<a:midPointStop
   style="stop-color:#737B87"
   offset="0.5" />

					<a:midPointStop
   style="stop-color:#D0D6D8"
   offset="1" />

				</linearGradient>
    <linearGradient
       inkscape:collect="always"
       xlink:href="#XMLID_912_"
       id="linearGradient31492"
       gradientUnits="userSpaceOnUse"
       gradientTransform="matrix(-1,0,0,1,1812.6,0)"
       x1="1373.5156"
       y1="1597.5581"
       x2="1409.4609"
       y2="1597.5581" />
    <linearGradient
       inkscape:collect="always"
       xlink:href="#XMLID_913_"
       id="linearGradient31494"
       gradientUnits="userSpaceOnUse"
       gradientTransform="matrix(-1,0,0,1,1812.6,0)"
       x1="1366.5303"
       y1="1608.2056"
       x2="1380.0703"
       y2="1608.2056" />
    <linearGradient
       inkscape:collect="always"
       xlink:href="#XMLID_914_"
       id="linearGradient31496"
       gradientUnits="userSpaceOnUse"
       gradientTransform="matrix(-1,0,0,1,1812.6,0)"
       x1="1382.9512"
       y1="1596.6069"
       x2="1409.4609"
       y2="1596.6069" />
    <linearGradient
       inkscape:collect="always"
       xlink:href="#XMLID_915_"
       id="linearGradient31498"
       gradientUnits="userSpaceOnUse"
       gradientTransform="matrix(-1,0,0,1,1812.6,0)"
       x1="1373.5693"
       y1="1593.2808"
       x2="1386.8467"
       y2="1593.2808" />
  </defs>
  <sodipodi:namedview
     id="base"
     pagecolor="#ffffff"
     bordercolor="#666666"
     borderopacity="1.0"
     inkscape:pageopacity="0.0"
     inkscape:pageshadow="2"
     inkscape:zoom="7"
     inkscape:cx="24"
     inkscape:cy="24"
     inkscape:current-layer="layer1"
     showgrid="true"
     inkscape:grid-bbox="true"
     inkscape:document-units="px"
     inkscape:window-width="853"
     inkscape:window-height="573"
     inkscape:window-x="363"
     inkscape:window-y="71" />
  
  <g
     id="layer1"
     inkscape:label="Layer 1"
     inkscape:groupmode="layer">
    <g
       id="g31459"
       transform="matrix(1.073865,0,0,1.073865,2.551148e-6,8.329883)">
      <g
         id="g18653"
         transform="translate(-402.3878,-1577.269)">
				<path
   i:knockout="Off"
   d="M 421.794,1582.173 C 420.596,1583.544 420.286,1585.39 420.286,1586.935 C 420.286,1587.906 420.407,1588.757 420.511,1589.297 C 421.361,1593.799 424.434,1598.73 429.613,1603.951 C 429.515,1603.962 429.42,1604.003 429.322,1604.011 C 422.238,1604.544 415.771,1596.717 413.321,1593.327 C 410.515,1589.447 407.334,1587.791 403.31,1588.114 C 402.757,1588.159 402.347,1588.64 402.391,1589.192 C 402.435,1589.743 402.917,1590.154 403.469,1590.11 C 406.817,1589.841 409.279,1591.155 411.697,1594.5 C 414.988,1599.05 421.672,1606.596 429.474,1606.009 C 430.115,1605.959 430.751,1605.818 431.378,1605.622 C 433.763,1607.771 436.351,1609.647 438.85,1610.979 C 441.355,1612.313 444.884,1613.868 446.609,1611.979 C 446.981,1611.57 446.952,1610.937 446.545,1610.564 C 446.136,1610.192 445.503,1610.22 445.13,1610.627 C 445.04,1610.727 444.129,1611.521 439.793,1609.211 C 437.701,1608.097 435.463,1606.521 433.389,1604.736 C 434.715,1603.966 435.938,1602.884 436.957,1601.52 C 438.66,1599.24 439.601,1596.466 439.601,1593.906 C 439.601,1593.218 439.534,1592.547 439.395,1591.905 C 438.223,1586.469 431.616,1580.844 426.057,1580.549 C 424.28,1580.456 422.806,1581.017 421.794,1582.173 z M 431.8,1603.279 C 431.595,1603.082 431.374,1602.896 431.175,1602.697 C 426.188,1597.705 423.261,1593.072 422.478,1588.926 C 422.351,1588.254 422.29,1587.596 422.29,1586.979 C 422.29,1585.504 422.643,1584.249 423.304,1583.493 C 423.912,1582.797 424.778,1582.489 425.95,1582.552 C 430.65,1582.802 436.446,1587.738 437.437,1592.331 C 437.547,1592.843 437.601,1593.382 437.601,1593.932 C 437.601,1596.056 436.799,1598.388 435.352,1600.326 C 434.346,1601.671 433.11,1602.65 431.8,1603.279 z "
   id="path18655"
   style="fill:#737b87" />

			</g>
      <path
         i:knockout="Off"
         d="M 28.465226,27.016651 C 28.334226,26.889651 28.206226,26.762651 28.080226,26.634651 C 24.318226,22.870651 20.126226,17.738651 19.107226,12.342651 C 18.427226,8.751651 19.287226,4.551651 23.615226,4.780651 C 28.755226,5.054651 34.943226,10.327651 36.027226,15.348651"
         id="path18657"
         style="fill:none;stroke:#41464c;stroke-width:0.46560767;stroke-linecap:round" />
      <path
         i:knockout="Off"
         d="M 43.480226,34.535651 C 42.110226,36.036651 38.235226,34.020651 36.932226,33.326651 C 34.382226,31.968651 31.828226,30.090651 29.611226,28.091651"
         id="path18659"
         style="fill:none;stroke:#4c5259;stroke-width:0.37248614;stroke-linecap:round" />
      <path
         i:knockout="Off"
         d="M 43.480226,34.034651 C 42.110226,35.535651 38.235226,33.520651 36.932226,32.826651 C 33.771226,31.141651 30.601226,28.658651 28.079226,26.134651 C 24.317226,22.370651 20.125226,17.236651 19.106226,11.841651 C 18.426226,8.251651 19.286226,4.050651 23.614226,4.280651 C 28.754226,4.553651 34.942226,9.827651 36.026226,14.846651 C 37.197226,20.273651 32.754226,27.306651 27.008226,27.739651 C 20.147226,28.257651 13.806226,21.743651 10.119226,16.643651 C 7.7802255,13.409651 5.0692255,11.515651 0.99922554,11.842651"
         id="path18661"
         style="fill:none;stroke:#cfdade;stroke-width:0.46560767;stroke-linecap:round" />
      <g
         id="g18663"
         transform="translate(-402.3878,-1577.269)">
				
					<linearGradient
   id="linearGradient29539"
   gradientUnits="userSpaceOnUse"
   x1="1373.5156"
   y1="1597.5581"
   x2="1409.4609"
   y2="1597.5581"
   gradientTransform="matrix(-1,0,0,1,1812.6,0)">
					<stop
   offset="0.0056"
   style="stop-color:#E8EDED"
   id="stop29541" />

					<stop
   offset="0.3539"
   style="stop-color:#A1ACB3"
   id="stop29543" />

					<stop
   offset="1"
   style="stop-color:#575D66"
   id="stop29545" />

					<a:midPointStop
   offset="0.0056"
   style="stop-color:#E8EDED" />

					<a:midPointStop
   offset="0.5"
   style="stop-color:#E8EDED" />

					<a:midPointStop
   offset="0.3539"
   style="stop-color:#A1ACB3" />

					<a:midPointStop
   offset="0.5"
   style="stop-color:#A1ACB3" />

					<a:midPointStop
   offset="1"
   style="stop-color:#575D66" />

				</linearGradient>

				<path
   i:knockout="Off"
   d="M 412.712,1594.268 C 415.237,1597.761 421.917,1605.824 429.379,1605.261 C 431.801,1605.077 434.198,1603.624 435.953,1601.274 C 437.902,1598.664 439.013,1595.368 438.431,1592.671 C 438.402,1592.536 438.488,1592.402 438.622,1592.374 C 438.757,1592.345 438.89,1592.43 438.919,1592.565 C 439.53,1595.397 438.39,1598.849 436.355,1601.573 C 434.513,1604.04 431.984,1605.565 429.417,1605.76 C 421.703,1606.341 414.881,1598.121 412.307,1594.561 C 409.748,1591.024 407.004,1589.574 403.411,1589.863 C 403.272,1589.874 403.152,1589.771 403.141,1589.634 C 403.129,1589.496 403.232,1589.375 403.37,1589.365 C 407.157,1589.06 410.04,1590.574 412.712,1594.268 z "
   id="path18672"
   style="fill:url(#linearGradient31492)" />

			</g>
      <g
         id="g18674"
         transform="translate(-402.3878,-1577.269)">
				
					<linearGradient
   id="linearGradient29549"
   gradientUnits="userSpaceOnUse"
   x1="1366.5303"
   y1="1608.2056"
   x2="1380.0703"
   y2="1608.2056"
   gradientTransform="matrix(-1,0,0,1,1812.6,0)">
					<stop
   offset="0"
   style="stop-color:#A1ACB3"
   id="stop29551" />

					<stop
   offset="0.3258"
   style="stop-color:#D0D6D8"
   id="stop29553" />

					<stop
   offset="1"
   style="stop-color:#575D66"
   id="stop29555" />

					<a:midPointStop
   offset="0"
   style="stop-color:#A1ACB3" />

					<a:midPointStop
   offset="0.5"
   style="stop-color:#A1ACB3" />

					<a:midPointStop
   offset="0.3258"
   style="stop-color:#D0D6D8" />

					<a:midPointStop
   offset="0.5"
   style="stop-color:#D0D6D8" />

					<a:midPointStop
   offset="1"
   style="stop-color:#575D66" />

				</linearGradient>

				<path
   i:knockout="Off"
   d="M 432.948,1604.925 C 435.036,1606.704 437.327,1608.304 439.415,1609.417 C 443.557,1611.622 445.13,1611.315 445.721,1610.668 C 445.795,1610.585 445.921,1610.58 446.003,1610.655 C 446.085,1610.729 446.092,1610.856 446.017,1610.937 C 444.884,1612.165 442.734,1611.638 439.226,1609.77 C 437.115,1608.643 434.712,1606.928 432.603,1605.131 C 432.519,1605.059 432.503,1604.928 432.576,1604.842 C 432.647,1604.759 432.864,1604.854 432.948,1604.925 z "
   id="path18683"
   style="fill:url(#linearGradient31494)" />

			</g>
      <g
         id="g18685"
         transform="translate(-402.3878,-1577.269)">
				
					<linearGradient
   id="linearGradient29559"
   gradientUnits="userSpaceOnUse"
   x1="1382.9512"
   y1="1596.6069"
   x2="1409.4609"
   y2="1596.6069"
   gradientTransform="matrix(-1,0,0,1,1812.6,0)">
					<stop
   offset="0"
   style="stop-color:#A1ACB3"
   id="stop29561" />

					<stop
   offset="0.4888"
   style="stop-color:#E8EDED"
   id="stop29563" />

					<stop
   offset="1"
   style="stop-color:#575D66"
   id="stop29565" />

					<a:midPointStop
   offset="0"
   style="stop-color:#A1ACB3" />

					<a:midPointStop
   offset="0.5"
   style="stop-color:#A1ACB3" />

					<a:midPointStop
   offset="0.4888"
   style="stop-color:#E8EDED" />

					<a:midPointStop
   offset="0.5"
   style="stop-color:#E8EDED" />

					<a:midPointStop
   offset="1"
   style="stop-color:#575D66" />

				</linearGradient>

				<path
   i:knockout="Off"
   d="M 412.712,1593.367 C 415.237,1596.859 421.917,1604.923 429.379,1604.359 C 429.517,1604.349 429.637,1604.453 429.648,1604.591 C 429.658,1604.729 429.554,1604.748 429.416,1604.759 C 421.703,1605.339 414.881,1597.12 412.307,1593.56 C 409.748,1590.023 407.004,1588.573 403.411,1588.861 C 403.272,1588.873 403.152,1588.87 403.141,1588.732 C 403.129,1588.593 403.232,1588.474 403.37,1588.462 C 407.157,1588.16 410.04,1589.671 412.712,1593.367 z "
   id="path18694"
   style="fill:url(#linearGradient31496)" />

			</g>
      <path
         i:knockout="Off"
         d="M 30.187226,27.573651 C 30.187226,27.573651 29.421226,27.920651 29.208226,28.005651 L 29.525226,28.286651 L 30.471226,27.855651 L 30.187226,27.573651 z "
         id="path18696"
         style="fill:#4c5259" />
      <g
         id="g18698"
         transform="translate(-402.3878,-1577.269)">
				
					<linearGradient
   id="linearGradient29570"
   gradientUnits="userSpaceOnUse"
   x1="1373.5693"
   y1="1593.2808"
   x2="1386.8467"
   y2="1593.2808"
   gradientTransform="matrix(-1,0,0,1,1812.6,0)">
					<stop
   offset="0"
   style="stop-color:#FFFFFF"
   id="stop29572" />

					<stop
   offset="0.2079"
   style="stop-color:#D0D6D8"
   id="stop29574" />

					<stop
   offset="0.3933"
   style="stop-color:#737B87"
   id="stop29576" />

					<stop
   offset="1"
   style="stop-color:#D0D6D8"
   id="stop29578" />

					<a:midPointStop
   offset="0"
   style="stop-color:#FFFFFF" />

					<a:midPointStop
   offset="0.5"
   style="stop-color:#FFFFFF" />

					<a:midPointStop
   offset="0.2079"
   style="stop-color:#D0D6D8" />

					<a:midPointStop
   offset="0.5"
   style="stop-color:#D0D6D8" />

					<a:midPointStop
   offset="0.3933"
   style="stop-color:#737B87" />

					<a:midPointStop
   offset="0.5"
   style="stop-color:#737B87" />

					<a:midPointStop
   offset="1"
   style="stop-color:#D0D6D8" />

				</linearGradient>

				<path
   i:knockout="Off"
   d="M 426.017,1581.3 C 431.287,1581.58 437.749,1586.912 438.861,1592.065 C 439.472,1594.899 438.39,1598.346 436.355,1601.073 C 434.513,1603.54 431.984,1605.066 429.417,1605.26 C 429.279,1605.271 429.159,1605.168 429.148,1605.03 C 429.138,1604.891 429.242,1604.771 429.379,1604.76 C 431.801,1604.578 434.198,1603.125 435.953,1600.774 C 437.902,1598.164 438.752,1594.868 438.171,1592.171 C 437.119,1587.3 430.972,1582.066 425.989,1581.801 C 425.85,1581.793 425.745,1581.675 425.753,1581.537 C 425.761,1581.398 425.878,1581.292 426.017,1581.3 z "
   id="path18709"
   style="fill:url(#linearGradient31498)" />

			</g>
    </g>
    <g
       id="g30773"
       transform="matrix(0.450127,0,0,0.450127,-108.1482,-164.1431)">
      <polyline
         i:knockout="Off"
         points="246.203,1523.445 237.089,1530.839 234.291,1531.882      235.66,1529.078 243.88,1520.858 "
         id="polyline30775"
         style="fill:none;stroke:#3e444c;stroke-width:2.22159553"
         transform="translate(9.073071,-1121.746)" />
      <polyline
         i:knockout="Off"
         points="246.203,1523.445 237.087,1530.839 234.291,1531.882      235.658,1529.078 243.88,1520.858 "
         id="polyline30777"
         style="fill:url(#linearGradient30809)"
         transform="translate(9.073071,-1121.746)" />
      <path
         i:knockout="Off"
         d="M 267.37907,389.34248 C 271.20107,393.81948 272.85707,401.65648 269.10107,404.63948 C 265.34607,407.61948 258.48707,405.60648 253.78007,400.13948 C 249.07507,394.67248 248.30307,387.82448 252.05807,384.84248 C 255.81307,381.86048 263.08207,384.30748 267.37907,389.34248 z "
         id="path30779"
         style="fill:none;stroke:#99440f;stroke-width:2.22159553" />
      <path
         i:knockout="Off"
         d="M 268.74407,388.12448 C 272.59507,392.64048 274.28707,400.52248 270.53307,403.50648 C 266.77707,406.48748 259.88807,404.43548 255.14607,398.92348 C 250.40407,393.41048 249.60307,386.52548 253.35707,383.54348 C 257.11307,380.55948 264.41407,383.04748 268.74407,388.12448 z "
         id="path30781"
         style="fill:none;stroke:#99440f;stroke-width:2.22159553" />
      <ellipse
         i:knockout="Off"
         transform="matrix(0.7831,-0.6219,0.6219,0.7831,-877.9386,-635.4864)"
         cx="253.55499"
         cy="1514.673"
         rx="7.7509999"
         ry="11.967"
         id="ellipse30783"
         sodipodi:cx="253.55499"
         sodipodi:cy="1514.673"
         sodipodi:rx="7.7509999"
         sodipodi:ry="11.967"
         style="fill:none;stroke:#99440f;stroke-width:2.22159553" />
      <path
         i:knockout="Off"
         d="M 269.80607,395.58648 C 268.18707,396.89148 264.88307,395.64948 262.42507,392.81548 C 259.96807,389.98048 259.28707,386.62548 260.90507,385.32048 L 261.08707,385.17748 C 261.62807,384.85248 269.23007,379.12748 269.53307,378.89448 C 269.89307,378.61548 270.63707,377.69348 270.99507,377.11548 L 279.45207,386.62348 C 278.83207,386.89648 277.75107,387.55748 277.42507,387.87648 C 277.15207,388.14448 270.42507,394.87548 270.02807,395.36548 L 269.80607,395.58648 z "
         id="path30785"
         style="fill:none;stroke:#99440f;stroke-width:2.22159553" />
      <path
         i:knockout="Off"
         d="M 285.06907,387.07748 L 286.35707,385.99348 C 284.20307,387.61848 279.48207,385.52848 275.71307,381.25348 C 271.99407,377.03248 270.56707,372.23448 272.41707,370.33948 L 271.14207,371.64348 C 269.28707,373.53448 270.68907,378.30448 274.37907,382.48848 C 278.17707,386.79348 282.96507,388.84748 285.06907,387.07748 z "
         id="path30787"
         style="fill:none;stroke:#99440f;stroke-width:2.22159553" />
      <ellipse
         i:knockout="Off"
         transform="matrix(0.765,-0.644,0.644,0.765,-893.2129,-595.2002)"
         cx="270.45099"
         cy="1499.792"
         rx="4.9809999"
         ry="10.488"
         id="ellipse30789"
         sodipodi:cx="270.45099"
         sodipodi:cy="1499.792"
         sodipodi:rx="4.9809999"
         sodipodi:ry="10.488"
         style="fill:none;stroke:#99440f;stroke-width:2.22159553" />
      <path
         i:knockout="Off"
         d="M 267.37707,389.34248 C 271.19907,393.81948 272.85607,401.65648 269.10107,404.63948 C 265.34607,407.61948 258.48607,405.60648 253.78007,400.13948 C 249.07507,394.67248 248.30307,387.82448 252.05707,384.84248 C 255.81207,381.86148 263.08007,384.30748 267.37707,389.34248 z "
         id="path30791"
         style="fill:url(#linearGradient30811)" />
      <path
         i:knockout="Off"
         d="M 268.74407,388.12448 C 272.59507,392.64048 274.28707,400.52248 270.53207,403.50648 C 266.77707,406.48748 259.88807,404.43548 255.14607,398.92348 C 250.40407,393.41048 249.60307,386.52548 253.35707,383.54348 C 257.11307,380.55948 264.41407,383.04748 268.74407,388.12448 z "
         id="path30793"
         style="fill:url(#linearGradient30813)" />
      <path
         i:knockout="Off"
         d="M 268.69707,388.10648 C 273.00207,393.11848 273.77607,399.34048 270.42507,402.00348 C 267.07207,404.66448 260.86407,402.75848 256.55907,397.74648 C 252.25307,392.73248 251.47907,386.51048 254.83007,383.84848 C 258.18207,381.18648 264.39007,383.09248 268.69707,388.10648 z "
         id="path30795"
         style="fill:url(#radialGradient30815)" />
      <path
         i:knockout="Off"
         d="M 268.54807,388.20348 C 271.31907,391.43348 271.83807,395.42548 269.70607,397.11848 C 267.57407,398.81148 263.60007,397.56548 260.82707,394.33748 C 258.05607,391.10748 257.53707,387.11448 259.67007,385.42148 C 261.80307,383.72848 265.77707,384.97348 268.54807,388.20348 z "
         id="path30797"
         style="fill:url(#linearGradient30817)" />
      <path
         i:knockout="Off"
         d="M 269.80507,395.58648 C 268.18707,396.89148 264.88307,395.64948 262.42507,392.81548 C 259.96807,389.98048 259.28607,386.62548 260.90407,385.32048 L 261.08707,385.17748 C 261.62607,384.85248 269.23007,379.12748 269.53307,378.89448 C 269.89307,378.61548 270.63707,377.69348 270.99307,377.11548 L 279.45207,386.62348 C 278.83107,386.89648 277.75107,387.55748 277.42507,387.87648 C 277.15207,388.14448 270.42407,394.87548 270.02807,395.36548 L 269.80507,395.58648 z "
         id="path30799"
         style="fill:url(#linearGradient30819)" />
      <path
         i:knockout="Off"
         a:adobe-blending-mode="multiply"
         d="M 269.80507,395.58648 C 268.18707,396.89148 264.88307,395.64948 262.42507,392.81548 C 259.96807,389.98048 259.28607,386.62548 260.90407,385.32048 L 261.08707,385.17748 C 261.62607,384.85248 269.23007,379.12748 269.53307,378.89448 C 269.89307,378.61548 270.63707,377.69348 270.99307,377.11548 L 279.45207,386.62348 C 278.83107,386.89648 277.75107,387.55748 277.42507,387.87648 C 277.15207,388.14448 270.42407,394.87548 270.02807,395.36548 L 269.80507,395.58648 z "
         id="path30801"
         style="fill:none" />
      <path
         i:knockout="Off"
         a:adobe-blending-mode="multiply"
         d="M 279.26107,386.71348 C 277.33107,386.52248 275.12607,385.37148 273.37007,383.45948 C 271.60007,381.53448 270.70007,379.28748 270.77607,377.44148 L 270.99507,377.11648 L 279.45207,386.62348 L 279.26107,386.71348 z "
         id="path30803"
         style="fill:url(#linearGradient30821)" />
      <path
         i:knockout="Off"
         d="M 285.06907,387.07748 L 286.35607,385.99348 C 284.20207,387.61848 279.48207,385.52848 275.71307,381.25348 C 271.99307,377.03248 270.56707,372.23448 272.41507,370.33948 L 271.14207,371.64348 C 269.28707,373.53448 270.68707,378.30448 274.37807,382.48848 C 278.17707,386.79348 282.96507,388.84748 285.06907,387.07748 z "
         id="path30805"
         style="fill:url(#linearGradient30823)" />
      <path
         i:knockout="Off"
         d="M 283.33507,374.83748 C 287.16407,379.18248 288.56307,384.14148 286.45907,385.91248 C 284.35407,387.68348 279.54307,385.59748 275.71407,381.25248 C 271.88507,376.90648 270.48507,371.94848 272.59007,370.17748 C 274.69507,368.40648 279.50607,370.49348 283.33507,374.83748 z "
         id="path30807"
         style="fill:url(#radialGradient30825)" />
    </g>
  </g>
</svg>
