<?xml version="1.0" encoding="UTF-8" standalone="no"?>
<svg
   xmlns:dc="http://purl.org/dc/elements/1.1/"
   xmlns:cc="http://creativecommons.org/ns#"
   xmlns:rdf="http://www.w3.org/1999/02/22-rdf-syntax-ns#"
   xmlns:svg="http://www.w3.org/2000/svg"
   xmlns="http://www.w3.org/2000/svg"
   xmlns:xlink="http://www.w3.org/1999/xlink"
   xmlns:sodipodi="http://sodipodi.sourceforge.net/DTD/sodipodi-0.dtd"
   xmlns:inkscape="http://www.inkscape.org/namespaces/inkscape"
   sodipodi:docname="begincontextoptionsblock.svg"
   inkscape:version="1.0beta1 (fe3e306, 2019-09-17)"
   version="1.1"
   id="svg4512"
   height="48px"
   width="48px">
  <defs
     id="defs4514">
    <linearGradient
       id="linearGradient7510">
      <stop
         id="stop7512"
         offset="0"
         style="stop-color:#454545;stop-opacity:1" />
      <stop
         id="stop7514"
         offset="1"
         style="stop-color:#939393;stop-opacity:1" />
    </linearGradient>
    <linearGradient
       id="linearGradient7500">
      <stop
         id="stop7502"
         offset="0"
         style="stop-color:#cdcdcd;stop-opacity:1" />
      <stop
         id="stop7504"
         offset="1"
         style="stop-color:#7e7e7e;stop-opacity:1" />
    </linearGradient>
    <linearGradient
       id="linearGradient6816">
      <stop
         id="stop6818"
         offset="0"
         style="stop-color:#184177;stop-opacity:1;" />
      <stop
         id="stop6820"
         offset="1"
         style="stop-color:#3465a4;stop-opacity:1;" />
    </linearGradient>
    <linearGradient
       id="linearGradient6804">
      <stop
         id="stop6806"
         offset="0"
         style="stop-color:#ffffff;stop-opacity:0.21621622;" />
      <stop
         id="stop6808"
         offset="1"
         style="stop-color:#ffffff;stop-opacity:0;" />
    </linearGradient>
    <linearGradient
       id="linearGradient6790">
      <stop
         id="stop6792"
         offset="0"
         style="stop-color:#4099f9;stop-opacity:1;" />
      <stop
         id="stop6794"
         offset="1"
         style="stop-color:#0659b2;stop-opacity:1;" />
    </linearGradient>
    <linearGradient
       id="linearGradient6782"
       inkscape:collect="always">
      <stop
         id="stop6784"
         offset="0"
         style="stop-color:#545454;stop-opacity:1" />
      <stop
         id="stop6786"
         offset="1"
         style="stop-color:#a0a0a0;stop-opacity:1" />
    </linearGradient>
    <linearGradient
       id="linearGradient6774">
      <stop
         id="stop6776"
         offset="0"
         style="stop-color:#959595;stop-opacity:1" />
      <stop
         id="stop6778"
         offset="1"
         style="stop-color:#545454;stop-opacity:1" />
    </linearGradient>
    <linearGradient
       id="linearGradient6758">
      <stop
         id="stop6760"
         offset="0"
         style="stop-color:#c3c3c3;stop-opacity:1" />
      <stop
         style="stop-color:#8c8c8c;stop-opacity:1"
         offset="0.20401907"
         id="stop6772" />
      <stop
         style="stop-color:#d1d1d1;stop-opacity:1"
         offset="0.25"
         id="stop6768" />
      <stop
         id="stop6770"
         offset="0.375"
         style="stop-color:#d3d3d3;stop-opacity:1" />
      <stop
         style="stop-color:#a3a3a3;stop-opacity:1"
         offset="0.43732971"
         id="stop6766" />
      <stop
         id="stop6762"
         offset="1"
         style="stop-color:#4c4c4c;stop-opacity:1" />
    </linearGradient>
    <linearGradient
       gradientTransform="matrix(1.0047386,0,0,1.0035303,-0.35293342,5.4607881)"
       gradientUnits="userSpaceOnUse"
       y2="8.928571"
       x2="37.392857"
       y1="8.928571"
       x1="11.178571"
       id="linearGradient6764"
       xlink:href="#linearGradient6758"
       inkscape:collect="always" />
    <linearGradient
       gradientTransform="matrix(1.0486703,0,0,0.68852514,-1.1325571,13.085009)"
       gradientUnits="userSpaceOnUse"
       y2="33.07143"
       x2="37.107141"
       y1="33.07143"
       x1="11.178572"
       id="linearGradient6780"
       xlink:href="#linearGradient6774"
       inkscape:collect="always" />
    <linearGradient
       gradientTransform="matrix(0.81301411,0,0,0.56387835,4.5568583,18.029602)"
       gradientUnits="userSpaceOnUse"
       y2="39.928574"
       x2="36.857143"
       y1="39.928574"
       x1="12.015385"
       id="linearGradient6788"
       xlink:href="#linearGradient6782"
       inkscape:collect="always" />
    <linearGradient
       gradientTransform="matrix(1.0112489,0,0,0.98118876,-58.41669,-1.9797764)"
       y2="35.445797"
       x2="46.501049"
       y1="10.69706"
       x1="1.8856783"
       gradientUnits="userSpaceOnUse"
       id="linearGradient6800"
       xlink:href="#linearGradient6790"
       inkscape:collect="always" />
    <linearGradient
       gradientTransform="matrix(0.71815374,-0.26338785,0,0.71821461,-3.4234834,16.130915)"
       gradientUnits="userSpaceOnUse"
       y2="34.345406"
       x2="16.651567"
       y1="10.666835"
       x1="17.323351"
       id="linearGradient6810"
       xlink:href="#linearGradient6804"
       inkscape:collect="always" />
    <linearGradient
       gradientTransform="matrix(1.0055149,0,0,1.0055306,-0.26548941,4.5484233)"
       gradientUnits="userSpaceOnUse"
       y2="28.089287"
       x2="24.535715"
       y1="16.910715"
       x1="0.71428567"
       id="linearGradient7506"
       xlink:href="#linearGradient7500"
       inkscape:collect="always" />
    <linearGradient
       gradientTransform="matrix(1.0055149,0,0,1.0055306,-0.26548941,4.5484233)"
       gradientUnits="userSpaceOnUse"
       y2="34.833458"
       x2="47.824596"
       y1="8.9048872"
       x1="24.734154"
       id="linearGradient7516"
       xlink:href="#linearGradient7510"
       inkscape:collect="always" />
    <radialGradient
       inkscape:collect="always"
       xlink:href="#linearGradient18570"
       id="radialGradient18576"
       cx="24.5625"
       cy="24.125"
       fx="24.5625"
       fy="24.125"
       r="16.4375"
       gradientTransform="matrix(0.83490531,0.00151416,-0.00213101,1.0645115,-8.8254268,-1.9747727)"
       gradientUnits="userSpaceOnUse" />
    <linearGradient
       id="linearGradient18570">
      <stop
         style="stop-color:#ffffff;stop-opacity:1;"
         offset="0"
         id="stop18572" />
      <stop
         id="stop18578"
         offset="0.5"
         style="stop-color:#ffffff;stop-opacity:1;" />
      <stop
         style="stop-color:#dcdcd8;stop-opacity:1;"
         offset="1"
         id="stop18574" />
    </linearGradient>
    <linearGradient
       inkscape:collect="always"
       xlink:href="#linearGradient9910-4"
       id="linearGradient1397"
       gradientUnits="userSpaceOnUse"
       gradientTransform="matrix(-0.493304,-0.716654,0.716654,-0.493304,-9.26781,79.4192)"
       x1="28.244684"
       y1="60.445503"
       x2="28.244684"
       y2="68.224884" />
    <linearGradient
       id="linearGradient9910-4">
      <stop
         style="stop-color:#729fcf;stop-opacity:1;"
         offset="0"
         id="stop9912-0" />
      <stop
         id="stop9918-9"
         offset="0.31578946"
         style="stop-color:#a5bfda;stop-opacity:1;" />
      <stop
         style="stop-color:#376ca4;stop-opacity:1;"
         offset="1"
         id="stop9914-4" />
    </linearGradient>
    <linearGradient
       inkscape:collect="always"
       xlink:href="#linearGradient9920-8"
       id="linearGradient1399"
       gradientUnits="userSpaceOnUse"
       gradientTransform="matrix(-0.493304,-0.716654,0.716654,-0.493304,-9.26781,79.4192)"
       x1="28.244684"
       y1="60.445503"
       x2="28.244684"
       y2="68.224884" />
    <linearGradient
       id="linearGradient9920-8">
      <stop
         id="stop9922-8"
         offset="0"
         style="stop-color:#5b90c8;stop-opacity:1;" />
      <stop
         style="stop-color:#8fb0d1;stop-opacity:1;"
         offset="0.31578946"
         id="stop9924-2" />
      <stop
         id="stop9926-4"
         offset="1"
         style="stop-color:#34679d;stop-opacity:1;" />
    </linearGradient>
    <linearGradient
       y2="62.827091"
       x2="38.061356"
       y1="62.401989"
       x1="55.876038"
       gradientTransform="matrix(-0.493304,-0.716654,0.716654,-0.493304,-9.26781,79.4192)"
       gradientUnits="userSpaceOnUse"
       id="linearGradient18932"
       xlink:href="#linearGradient9952"
       inkscape:collect="always" />
    <linearGradient
       inkscape:collect="always"
       id="linearGradient9952">
      <stop
         style="stop-color:#ffffff;stop-opacity:1;"
         offset="0"
         id="stop9954" />
      <stop
         style="stop-color:#ffffff;stop-opacity:0;"
         offset="1"
         id="stop9956" />
    </linearGradient>
    <linearGradient
       y2="68.224884"
       x2="28.244684"
       y1="60.445503"
       x1="28.244684"
       gradientTransform="matrix(-0.493304,-0.716654,0.716654,-0.493304,-9.26781,79.4192)"
       gradientUnits="userSpaceOnUse"
       id="linearGradient5070"
       xlink:href="#linearGradient9910-4"
       inkscape:collect="always" />
  </defs>
  <sodipodi:namedview
     inkscape:snap-global="false"
     inkscape:document-rotation="0"
     inkscape:window-maximized="1"
     inkscape:window-y="-8"
     inkscape:window-x="-8"
     inkscape:window-height="1557"
     inkscape:window-width="2880"
     inkscape:document-units="px"
     inkscape:grid-bbox="true"
     showgrid="true"
     inkscape:current-layer="layer1"
     inkscape:cy="19.330402"
     inkscape:cx="23.792022"
     inkscape:zoom="14"
     inkscape:pageshadow="2"
     inkscape:pageopacity="0.0"
     borderopacity="1.0"
     bordercolor="#666666"
     pagecolor="#ffffff"
     id="base" />
  <metadata
     id="metadata4517">
    <rdf:RDF>
      <cc:Work
         rdf:about="">
        <dc:format>image/svg+xml</dc:format>
        <dc:type
           rdf:resource="http://purl.org/dc/dcmitype/StillImage" />
        <dc:title></dc:title>
      </cc:Work>
    </rdf:RDF>
  </metadata>
  <g
     inkscape:groupmode="layer"
     inkscape:label="Layer 1"
     id="layer1">
    <path
       sodipodi:nodetypes="sscccs"
       inkscape:connector-curvature="0"
       id="path6751"
       d="m 11.129794,11.983735 c 0,-1.385587 5.719351,-3.4373976 12.774534,-3.4373976 7.055178,0 12.774531,2.0518106 12.774531,3.4373976 l 0.28707,7.383117 H 11.129794 Z"
       style="color:#000000;display:inline;overflow:visible;visibility:visible;fill:url(#linearGradient6764);fill-opacity:1;fill-rule:nonzero;stroke:#545454;stroke-width:0.5;stroke-linecap:butt;stroke-linejoin:miter;stroke-miterlimit:4;stroke-dashoffset:0;stroke-opacity:1;marker:none;enable-background:accumulate" />
    <path
       sodipodi:nodetypes="ccccc"
       inkscape:connector-curvature="0"
       d="M 24.518162,47.481623 0.22133576,40.079616 24.518162,33.10855 47.930587,40.295086 Z"
       style="fill:#6c6c6c;stroke:#a0a0a0;stroke-width:1;stroke-linecap:butt;stroke-linejoin:bevel;stroke-miterlimit:4;stroke-dasharray:none;stroke-opacity:1;fill-opacity:1"
       id="path7493" />
    <path
       sodipodi:nodetypes="ccccc"
       inkscape:connector-curvature="0"
       id="path7496"
       d="M 24.441448,47.211648 0.45273553,39.88564 0.38091305,32.415985 24.369627,27.96292 Z"
       style="fill:#545454;stroke:none;fill-opacity:1" />
    <rect
       style="color:#000000;display:inline;overflow:visible;visibility:visible;fill:url(#linearGradient6780);fill-opacity:1;fill-rule:nonzero;stroke:#a0a0a0;stroke-width:0.5;stroke-miterlimit:4;stroke-dasharray:none;marker:none;enable-background:accumulate;stroke-opacity:1"
       id="rect6749"
       width="26.666187"
       height="9.5663843"
       x="10.852246"
       y="31.072329" />
    <ellipse
       ry="2.6218979"
       rx="13.333094"
       cy="40.544456"
       cx="24.185339"
       id="path6745"
       style="color:#000000;display:inline;overflow:visible;visibility:visible;fill:#a0a0a0;fill-opacity:1;fill-rule:nonzero;stroke:#c0c0c0;stroke-width:0.5;stroke-linecap:butt;stroke-linejoin:miter;stroke-miterlimit:4;stroke-dasharray:none;stroke-dashoffset:0;stroke-opacity:1;marker:none;enable-background:accumulate" />
    <ellipse
       ry="1.4096959"
       rx="10.336894"
       cy="40.544456"
       cx="24.185341"
       style="color:#000000;display:inline;overflow:visible;visibility:visible;fill:url(#linearGradient6788);fill-opacity:1;fill-rule:nonzero;stroke:#545454;stroke-width:0.5;stroke-linecap:butt;stroke-linejoin:miter;stroke-miterlimit:4;stroke-dasharray:none;stroke-dashoffset:0;stroke-opacity:1;marker:none;enable-background:accumulate"
       id="path6747" />
    <path
       sodipodi:nodetypes="ccccccc"
       inkscape:connector-curvature="0"
       id="path6977"
       d="M 0.29315847,21.427548 24.467377,13.352421 47.930587,21.783057 V 40.371085 L 24.518162,33.10855 0.29315847,40.066364 Z"
       style="fill:url(#linearGradient7516);fill-opacity:1;stroke:#545454;stroke-width:0.5;stroke-linecap:butt;stroke-linejoin:miter;stroke-miterlimit:4;stroke-dasharray:none;stroke-opacity:1" />
    <path
       inkscape:connector-curvature="0"
       id="path7498"
       d="M 0.52455804,39.706081 V 21.642443 L 24.47736,13.598199 l 0.07182,19.248727 z"
       style="fill:url(#linearGradient7506);fill-opacity:1;stroke:none" />
    <path
       sodipodi:nodetypes="cccccc"
       inkscape:connector-curvature="0"
       id="path6802"
       d="M 0.69191374,39.809598 0.44808974,35.974582 7.5314526,19.213851 17.614415,15.973139 9.3031186,37.325901 Z"
       style="fill:url(#linearGradient6810);fill-opacity:1;stroke:none" />
    <rect
       style="color:#000000;display:inline;overflow:visible;visibility:visible;fill:url(#radialGradient18576);fill-opacity:1;fill-rule:nonzero;stroke:#b1b8aa;stroke-width:0.50811;stroke-linecap:butt;stroke-linejoin:miter;stroke-miterlimit:4;stroke-dasharray:none;stroke-dashoffset:3.4;stroke-opacity:1;marker:none;enable-background:accumulate"
       id="rect18568"
       width="21.502655"
       height="14.777354"
       x="1.2009541"
       y="22.924017"
       ry="0"
       transform="matrix(0.95937205,-0.28214405,0.03369359,0.99943221,0,0)" />
    <rect
       style="color:#000000;display:inline;overflow:visible;visibility:visible;fill:none;stroke:#91bad2;stroke-width:0.50811;stroke-opacity:1;marker:none;enable-background:accumulate"
       id="rect18599"
       width="17.995676"
       height="9.0029745"
       x="2.8771281"
       y="25.727619"
       ry="0"
       transform="matrix(0.95937205,-0.28214405,0.03369359,0.99943221,0,0)" />
    <path
       style="color:#000000;display:inline;overflow:visible;visibility:visible;fill:none;stroke:#91bad2;stroke-width:0.5;stroke-linecap:butt;stroke-linejoin:miter;stroke-miterlimit:4;stroke-dasharray:none;stroke-dashoffset:0;stroke-opacity:1;marker:none;enable-background:accumulate"
       d="M 3.6403738,28.006201 20.901777,22.929752"
       id="path18626"
       inkscape:connector-curvature="0" />
    <path
       inkscape:connector-curvature="0"
       id="path18628"
       d="M 3.7392644,30.93952 21.000668,25.863071"
       style="color:#000000;display:inline;overflow:visible;visibility:visible;fill:none;stroke:#91bad2;stroke-width:0.5;stroke-linecap:butt;stroke-linejoin:miter;stroke-miterlimit:4;stroke-dasharray:none;stroke-dashoffset:0;stroke-opacity:1;marker:none;enable-background:accumulate" />
    <path
       sodipodi:nodetypes="cc"
       style="color:#000000;display:inline;overflow:visible;visibility:visible;fill:none;stroke:#91bad2;stroke-width:0.5;stroke-linecap:butt;stroke-linejoin:miter;stroke-miterlimit:4;stroke-dasharray:none;stroke-dashoffset:0;stroke-opacity:1;marker:none;enable-background:accumulate"
       d="m 12.008549,22.313287 0.383524,9.081407"
       id="path18630"
       inkscape:connector-curvature="0" />
    <g
       style="stroke-width:1.11098"
       id="g1387"
       transform="matrix(-0.72514921,0.05799375,0.05799375,0.72514921,32.166033,-1.1057785)">
      <path
         inkscape:r_cy="true"
         inkscape:r_cx="true"
         sodipodi:nodetypes="cszsc"
         id="path9903"
         d="m 23.876644,29.502754 c 0.882411,-0.607402 3.380814,1.584711 5.631979,4.855122 2.251165,3.270411 2.718833,6.860367 2.524417,6.994192 -0.216678,0.149149 -3.380814,-1.584711 -5.63198,-4.855122 -2.251165,-3.270411 -3.406828,-6.38679 -2.524416,-6.994192 z"
         style="color:#000000;display:inline;overflow:visible;visibility:visible;fill:#e7e7e7;fill-opacity:1;fill-rule:evenodd;stroke:#7d7d7d;stroke-width:1.37464;stroke-linecap:butt;stroke-linejoin:miter;stroke-miterlimit:4;stroke-dashoffset:0;stroke-opacity:1;marker:none"
         inkscape:connector-curvature="0" />
      <g
         style="stroke-width:1.11098"
         inkscape:r_cy="true"
         inkscape:r_cx="true"
         transform="matrix(0.796014,0.08258057,-0.08258057,0.796014,1.530712,-0.729968)"
         id="g9975">
        <path
           sodipodi:arc-type="arc"
           sodipodi:type="arc"
           style="color:#000000;display:inline;overflow:visible;visibility:visible;fill:none;stroke:#3465a4;stroke-width:1.72312;stroke-linecap:butt;stroke-linejoin:miter;stroke-miterlimit:4;stroke-dasharray:none;stroke-dashoffset:0;stroke-opacity:1;marker:none"
           id="path9905"
           sodipodi:cx="40.1875"
           sodipodi:cy="62"
           sodipodi:rx="13.0625"
           sodipodi:ry="5.5"
           d="m 32.085889,57.685642 a 13.0625,5.5 0 0 1 12.49326,-0.865485 13.0625,5.5 0 0 1 8.367283,4.001004"
           inkscape:r_cx="true"
           inkscape:r_cy="true"
           sodipodi:start="4.0433671"
           sodipodi:end="6.067175"
           sodipodi:open="true"
           transform="matrix(-0.56251,-0.817194,0.825069,-0.567931,-15.22056,83.88674)" />
        <path
           sodipodi:arc-type="slice"
           sodipodi:type="arc"
           style="color:#000000;display:inline;overflow:visible;visibility:visible;fill:#729fcf;fill-opacity:1;fill-rule:evenodd;stroke:#3465a4;stroke-width:1.72312;stroke-linecap:butt;stroke-linejoin:miter;stroke-miterlimit:4;stroke-dasharray:none;stroke-dashoffset:0;stroke-opacity:1;marker:none"
           id="path9907"
           sodipodi:cx="33.5"
           sodipodi:cy="54.9375"
           sodipodi:rx="3"
           sodipodi:ry="1.5625"
           d="m 36.364517,54.473244 a 3,1.5625 0 0 1 -1.887968,1.941657 3,1.5625 0 0 1 -3.782718,-0.924872 L 33.5,54.9375 Z"
           inkscape:r_cx="true"
           inkscape:r_cy="true"
           sodipodi:start="5.9815064"
           sodipodi:end="2.7801561"
           transform="matrix(-0.56251,-0.817194,0.825069,-0.567931,-14.28556,81.45324)" />
      </g>
      <path
         inkscape:r_cy="true"
         inkscape:r_cx="true"
         id="path9898"
         d="m 18.309496,27.045877 c 2.941809,4.15471 5.832829,7.753007 8.218557,10.338669 l 3.867514,-2.662178 C 28.634238,31.171969 25.891142,26.577557 22.565009,21.745473 16.561094,13.023205 10.607438,6.3782909 8.2525006,5.5900119 8.1802296,5.5671084 8.0833128,5.5369591 8.0181135,5.5255274 c -0.045838,-0.00698 -0.1137481,-0.00461 -0.1558694,-0.00562 -0.06619,3.061e-4 -0.151055,0.013972 -0.2074364,0.029876 -0.013783,0.00447 -0.05599,0.0045 -0.069145,0.00996 -0.012839,0.00596 -0.039363,0.02854 -0.051567,0.035496 -0.00594,0.00373 -0.020001,0.013768 -0.025783,0.017748 -0.00578,0.00398 -0.02018,0.013528 -0.025783,0.017748 -0.010855,0.00892 -0.041419,0.025629 -0.051567,0.035496 -0.0098,0.010339 -0.024893,0.049754 -0.033989,0.061033 C 7.3619897,5.7742514 7.3189247,5.8486447 7.2950084,5.9103632 7.2809164,5.9500702 7.2544534,6.012658 7.2446094,6.0579675 7.2320109,6.122947 7.225572,6.2242406 7.2211638,6.2999257 7.1167301,8.7810968 11.19814,16.714759 17.202055,25.437027 c 0.373577,0.542719 0.735225,1.083169 1.107441,1.60885 z"
         style="color:#000000;display:inline;overflow:visible;visibility:visible;fill:url(#linearGradient5070);fill-opacity:1;fill-rule:evenodd;stroke:#3465a4;stroke-width:1.37464;stroke-linecap:butt;stroke-linejoin:miter;stroke-miterlimit:4;stroke-dasharray:none;stroke-dashoffset:0;stroke-opacity:1;marker:none"
         inkscape:connector-curvature="0" />
      <path
         inkscape:r_cy="true"
         inkscape:r_cx="true"
         id="path9893"
         d="m 13.743778,20.854607 c 0.747047,1.047569 1.520954,2.05411 2.255907,3.001276 l 5.414521,-3.727049 C 20.528967,18.671321 19.545881,17.138574 18.484475,15.596602 13.418672,8.2371884 8.1915815,2.7719285 5.9415208,2.2879093 c -0.019766,-0.00391 -0.06743,-0.012463 -0.086724,-0.015579 -0.019057,-0.00272 -0.068146,-0.013658 -0.086724,-0.015579 -0.045845,-0.0038 -0.1130765,-0.00687 -0.1558693,-0.00562 -0.016871,9.059e-4 -0.052774,0.00824 -0.069145,0.00996 -0.048364,0.0064 -0.1202907,0.023809 -0.1640743,0.037665 -0.014337,0.00504 -0.055329,0.00408 -0.069145,0.00996 -0.020332,0.00944 -0.058205,0.041893 -0.07735,0.053243 -0.00625,0.004 -0.019669,0.013539 -0.025784,0.017748 -0.00612,0.00421 -0.01982,0.013338 -0.025783,0.017748 -0.017438,0.013832 -0.061268,0.037624 -0.077351,0.053244 -0.010421,0.010808 -0.024165,0.049439 -0.033988,0.061033 -0.028574,0.035951 -0.070515,0.096923 -0.093761,0.1398139 -0.00745,0.014677 -0.027119,0.045598 -0.033988,0.061033 -0.016441,0.039528 -0.037583,0.1034227 -0.050398,0.1476038 -0.00484,0.018039 -0.012147,0.067799 -0.01641,0.08657 -0.00398,0.019135 -0.013004,0.066711 -0.01641,0.08657 -0.3511977,2.274578 2.8877007,9.108397 7.9535048,16.467811 0.315205,0.457918 0.616093,0.910969 0.931657,1.353477 z"
         style="color:#000000;display:inline;overflow:visible;visibility:visible;fill:url(#linearGradient1399);fill-opacity:1;fill-rule:evenodd;stroke:#3465a4;stroke-width:1.37464;stroke-linecap:butt;stroke-linejoin:miter;stroke-miterlimit:4;stroke-dasharray:none;stroke-dashoffset:0;stroke-opacity:1;marker:none"
         inkscape:connector-curvature="0" />
      <path
         inkscape:r_cy="true"
         inkscape:r_cx="true"
         id="path9888"
         d="M 6.2003444,8.0188112 10.016292,5.3921292 C 7.9914232,3.1273553 6.1637351,1.7285397 5.1772693,1.7848891 c -0.00629,4.84e-4 -0.030289,0.00155 -0.036514,0.00216 -0.00615,7.266e-4 -0.03043,0.00131 -0.036513,0.00216 -0.00601,9.697e-4 -0.030573,0.00107 -0.036514,0.00216 -0.035208,0.00728 -0.092018,0.028084 -0.1245939,0.039815 -0.00535,0.00208 -0.020503,0.015543 -0.025783,0.017748 -0.00521,0.00233 -0.031384,-2.948e-4 -0.036512,0.00216 -0.00505,0.00258 -0.020806,0.015041 -0.025784,0.017748 -0.0049,0.00283 -0.020959,0.014787 -0.025783,0.017748 -0.00475,0.00309 -0.021114,0.014534 -0.025784,0.017748 -0.00467,0.00321 -0.021205,0.014415 -0.025783,0.017748 -0.00449,0.00345 -0.021387,0.014181 -0.025784,0.017748 -0.00431,0.00368 -0.021568,0.013949 -0.025783,0.017748 -0.00413,0.00391 -0.01102,0.029305 -0.015054,0.033335 -0.00394,0.00415 -0.021929,0.013488 -0.025783,0.017748 -0.022588,0.026241 -0.0623,0.071881 -0.081674,0.1021685 -0.00314,0.00516 -0.012001,0.028067 -0.015053,0.033336 -0.00296,0.00538 -0.012178,0.027848 -0.015054,0.033336 -0.00279,0.0056 -0.012354,0.027628 -0.015053,0.033335 -0.4048248,0.9013361 0.2492807,3.1079795 1.6418771,5.8079738 z"
         style="color:#000000;display:inline;overflow:visible;visibility:visible;fill:url(#linearGradient1397);fill-opacity:1;fill-rule:evenodd;stroke:#3465a4;stroke-width:1.37464;stroke-linecap:butt;stroke-linejoin:miter;stroke-miterlimit:4;stroke-dasharray:none;stroke-dashoffset:0;stroke-opacity:1;marker:none"
         inkscape:connector-curvature="0" />
      <path
         sodipodi:nodetypes="cccszsc"
         id="path9930"
         d="m 15.417724,21.244088 c 0.188826,0.267315 0.378133,0.516373 0.56571,0.778152 l 3.749593,-2.584028 C 19.219874,18.65987 18.496328,17.390277 17.956782,16.581053 11.744978,7.2644337 5.6568524,2.6091151 5.4030398,2.7829476 5.1238436,2.9741649 7.567532,10.260041 13.900362,19.06121 c 0.37182,0.516743 1.159586,1.676387 1.517362,2.182878 z"
         style="color:#000000;display:inline;overflow:visible;visibility:visible;opacity:0.357143;fill:none;stroke:url(#linearGradient18932);stroke-width:1.37464;stroke-linecap:round;stroke-linejoin:round;stroke-miterlimit:4;stroke-dasharray:none;stroke-dashoffset:0;stroke-opacity:1;marker:none"
         inkscape:r_cx="true"
         inkscape:r_cy="true"
         inkscape:connector-curvature="0" />
    </g>
  </g>
</svg>
