<?xml version="1.0" encoding="UTF-8" standalone="no"?>
<!-- Created with Inkscape (http://www.inkscape.org/) -->

<svg
   xmlns:dc="http://purl.org/dc/elements/1.1/"
   xmlns:cc="http://creativecommons.org/ns#"
   xmlns:rdf="http://www.w3.org/1999/02/22-rdf-syntax-ns#"
   xmlns:svg="http://www.w3.org/2000/svg"
   xmlns="http://www.w3.org/2000/svg"
   xmlns:xlink="http://www.w3.org/1999/xlink"
   xmlns:sodipodi="http://sodipodi.sourceforge.net/DTD/sodipodi-0.dtd"
   xmlns:inkscape="http://www.inkscape.org/namespaces/inkscape"
   width="48"
   height="48"
   id="svg4752"
   version="1.1"
   inkscape:version="0.48.5 r10040"
   viewBox="0 0 48 48"
   sodipodi:docname="configureproperties.svg">
  <defs
     id="defs4754">
    <linearGradient
       inkscape:collect="always"
       id="linearGradient5354">
      <stop
         style="stop-color:#000000;stop-opacity:0.66666669"
         offset="0"
         id="stop5356" />
      <stop
         style="stop-color:#000000;stop-opacity:0.12077295"
         offset="1"
         id="stop5358" />
    </linearGradient>
    <linearGradient
       inkscape:collect="always"
       id="linearGradient5344">
      <stop
         style="stop-color:#729fcf;stop-opacity:1;"
         offset="0"
         id="stop5346" />
      <stop
         style="stop-color:#edf2f9;stop-opacity:1"
         offset="1"
         id="stop5348" />
    </linearGradient>
    <linearGradient
       inkscape:collect="always"
       id="linearGradient5330">
      <stop
         style="stop-color:#ffffff;stop-opacity:1"
         offset="0"
         id="stop5332" />
      <stop
         style="stop-color:#fdf9ca;stop-opacity:1"
         offset="1"
         id="stop5334" />
    </linearGradient>
    <linearGradient
       inkscape:collect="always"
       id="linearGradient5322">
      <stop
         style="stop-color:#c4a000;stop-opacity:1;"
         offset="0"
         id="stop5324" />
      <stop
         style="stop-color:#655300;stop-opacity:1"
         offset="1"
         id="stop5326" />
    </linearGradient>
    <linearGradient
       inkscape:collect="always"
       xlink:href="#linearGradient5322"
       id="linearGradient5328"
       x1="5.1286011"
       y1="5.8859763"
       x2="37.665062"
       y2="39.625072"
       gradientUnits="userSpaceOnUse"
       gradientTransform="matrix(0.80203031,0.37000116,-0.36968005,0.80276734,6.9366873,-2.0848557)" />
    <linearGradient
       inkscape:collect="always"
       xlink:href="#linearGradient5330"
       id="linearGradient5336"
       x1="3.3103266"
       y1="15.684456"
       x2="46.705929"
       y2="29.826593"
       gradientUnits="userSpaceOnUse"
       gradientTransform="matrix(0.80203031,0.37000116,-0.36968005,0.80276734,6.9366873,-2.0848557)" />
    <linearGradient
       inkscape:collect="always"
       xlink:href="#linearGradient5344"
       id="linearGradient5350"
       x1="27.050581"
       y1="45.013103"
       x2="44.067127"
       y2="27.032389"
       gradientUnits="userSpaceOnUse"
       gradientTransform="matrix(0.80203031,0.37000116,-0.36968005,0.80276734,6.9366873,-2.0848557)" />
    <linearGradient
       inkscape:collect="always"
       xlink:href="#linearGradient5354"
       id="linearGradient5360"
       x1="3.8872447"
       y1="12.782351"
       x2="27.646227"
       y2="46.67297"
       gradientUnits="userSpaceOnUse"
       gradientTransform="matrix(0.82721243,0.38161844,-0.38127766,0.82795178,6.1480593,-2.1209803)" />
    <linearGradient
       inkscape:collect="always"
       xlink:href="#linearGradient31615"
       id="linearGradient31621"
       x1="7.59835"
       y1="7.6808586"
       x2="12.40363"
       y2="12.335973"
       gradientUnits="userSpaceOnUse"
       gradientTransform="matrix(1.1245264,-0.29235211,0.29238268,1.1244088,47.126399,26.973958)" />
    <linearGradient
       id="linearGradient31615">
      <stop
         style="stop-color:#eeeeec;stop-opacity:1;"
         offset="0"
         id="stop31617" />
      <stop
         style="stop-color:#d2d2cc;stop-opacity:1;"
         offset="1"
         id="stop31619" />
    </linearGradient>
  </defs>
  <sodipodi:namedview
     id="base"
     pagecolor="#ffffff"
     bordercolor="#666666"
     borderopacity="1.0"
     inkscape:pageopacity="0.0"
     inkscape:pageshadow="2"
     inkscape:zoom="19.79899"
     inkscape:cx="6.5496153"
     inkscape:cy="24"
     inkscape:current-layer="layer1"
     showgrid="true"
     inkscape:grid-bbox="true"
     inkscape:document-units="px"
     inkscape:snap-global="false"
     inkscape:window-width="2880"
     inkscape:window-height="1557"
     inkscape:window-x="-8"
     inkscape:window-y="-8"
     inkscape:window-maximized="1" />
  <metadata
     id="metadata4757">
    <rdf:RDF>
      <cc:Work
         rdf:about="">
        <dc:format>image/svg+xml</dc:format>
        <dc:type
           rdf:resource="http://purl.org/dc/dcmitype/StillImage" />
        <dc:title></dc:title>
      </cc:Work>
    </rdf:RDF>
  </metadata>
  <g
     id="layer1"
     inkscape:label="Layer 1"
     inkscape:groupmode="layer">
    <path
       sodipodi:nodetypes="cccccccccccc"
       inkscape:connector-curvature="0"
       id="path5352"
       d="m 21.569589,8.9990054 c 0,0 -12.1121517,-3.894602 -12.3852927,-4.0108116 -0.730895,-0.2826163 -2.164469,0.061513 -2.547316,0.7420605 L -0.07302809,15.564291 C 1.5975263,26.618478 5.1830373,37.22191 9.6295053,47.609002 L 31.272122,41.043716 C 27.075126,30.976151 23.925842,20.240443 21.569589,8.9990054 z M 11.008821,7.8532448 C 11.329442,8.9126347 10.731487,10.031639 9.6731343,10.352833 8.6147013,10.673767 7.4967253,10.07529 7.1758443,9.0159783 6.8552233,7.9565881 7.4531773,6.8375835 8.5115313,6.5163897 9.5699643,6.1954568 10.687939,6.793934 11.008821,7.8532448 z"
       style="color:#000000;fill:url(#linearGradient5360);fill-opacity:1;fill-rule:nonzero;stroke:none;visibility:visible;display:inline;overflow:visible;enable-background:accumulate" />
    <path
       style="color:#000000;fill:url(#linearGradient5336);fill-opacity:1;fill-rule:nonzero;stroke:url(#linearGradient5328);stroke-width:0.99999994;stroke-linecap:butt;stroke-linejoin:miter;stroke-miterlimit:4;stroke-opacity:1;stroke-dasharray:none;stroke-dashoffset:0;visibility:visible;display:inline;overflow:visible;enable-background:accumulate"
       d="m 22.572798,8.0512621 c 0,0 -12.321273,-3.1700732 -12.6008087,-3.2698942 C 9.2256613,4.542556 7.8149533,4.9710261 7.4730283,5.6730648 L 1.3564279,15.887437 C 3.6778683,26.823237 7.8842473,37.195605 12.93728,47.300995 L 34.15365,39.46482 C 29.368553,29.663613 25.58981,19.133354 22.572798,8.0512621 z M 11.962774,7.5332805 C 12.345491,8.5718131 11.81477,9.7242846 10.777269,10.107627 9.7396733,10.490713 8.5882593,9.9595309 8.2052873,8.9210923 7.8225683,7.8825595 8.3532893,6.7300879 9.3907913,6.346746 10.428386,5.9636599 11.5798,6.4948422 11.962774,7.5332805 z"
       id="path5305"
       inkscape:connector-curvature="0"
       sodipodi:nodetypes="cccccccccccc" />
    <path
       sodipodi:nodetypes="czzzc"
       inkscape:connector-curvature="0"
       id="path5318"
       d="M 6.5576893,6.9504419 C 5.8914533,6.4384145 5.7387603,4.2387144 6.7611563,2.6690954 7.7835523,1.0994765 9.9016603,0.54538047 11.592424,1.4567299 13.283189,2.3680793 13.851388,4.7540604 12.844103,6.3110602 11.83682,7.8680603 9.4730153,8.3913682 8.2530423,8.1749969"
       style="fill:none;stroke:#000000;stroke-width:1.99999988;stroke-linecap:butt;stroke-linejoin:miter;stroke-miterlimit:4;stroke-opacity:0.46859903;stroke-dasharray:none" />
    <path
       style="fill:none;stroke:#ffffff;stroke-width:0.99999994px;stroke-linecap:butt;stroke-linejoin:miter;stroke-opacity:1"
       d="M 6.5576893,6.9504419 C 5.8914533,6.4384145 5.7387603,4.2387144 6.7611563,2.6690954 7.7835523,1.0994765 9.9016603,0.54538047 11.592424,1.4567299 13.283189,2.3680793 13.851388,4.7540604 12.844103,6.3110602 11.83682,7.8680603 9.4730153,8.3913682 8.2530423,8.1749969"
       id="path5316"
       inkscape:connector-curvature="0"
       sodipodi:nodetypes="czzzc" />
    <path
       style="fill:url(#linearGradient5350);fill-opacity:1;fill-rule:evenodd;stroke:#50709d;stroke-width:0.99999994;stroke-linecap:butt;stroke-linejoin:miter;stroke-miterlimit:4;stroke-opacity:1;stroke-dasharray:none"
       d="M 31.261468,33.146544 9.8172483,40.742868 c 0.9974057,2.199286 2.0340387,4.387041 3.1199517,6.558723 l 21.216654,-7.83628 c -1.01156,-2.071955 -1.96846,-4.183325 -2.892386,-6.318767 z"
       id="path5338"
       inkscape:connector-curvature="0" />
    <g
       id="g3454">
      <path
         transform="matrix(1.1610577,0,0,1.1682692,-32.536141,-4.620063)"
         d="m 68.892405,34.059895 a 10.505587,10.505587 0 1 1 -21.011174,0 10.505587,10.505587 0 1 1 21.011174,0 z"
         sodipodi:ry="10.505587"
         sodipodi:rx="10.505587"
         sodipodi:cy="34.059895"
         sodipodi:cx="58.386818"
         id="path12848"
         style="color:#000000;fill:#000000;fill-opacity:1;fill-rule:nonzero;stroke:#ffffff;stroke-width:0.85862124;stroke-linecap:butt;stroke-linejoin:miter;stroke-miterlimit:4;stroke-opacity:1;stroke-dasharray:none;stroke-dashoffset:0;marker:none;visibility:visible;display:inline;overflow:visible;enable-background:accumulate"
         sodipodi:type="arc" />
      <g
         transform="matrix(1.1610577,0,0,1.1682692,-32.4775,-4.325031)"
         id="g12842">
        <path
           inkscape:connector-curvature="0"
           d="m 60.644083,33.585798 c 0.302378,1.16285 -0.395271,2.35062 -1.55824,2.652969 -1.162971,0.30234 -2.350869,-0.395229 -2.653248,-1.558069 -0.302378,-1.16285 0.395269,-2.35062 1.558239,-2.65298 1.16297,-0.30235 2.35087,0.39523 2.653249,1.55808 z m -4.004929,-6.7562 c -0.67444,0.17534 -1.076228,0.8594 -0.90087,1.53377 l 0.514362,1.97807 c -0.04439,0.23464 -0.0699,0.44734 -0.185652,0.5356 -0.09237,0.0704 -0.253897,0.0725 -0.428374,0.0708 l -1.917415,-1.12597 c -0.606999,-0.35645 -1.393528,-0.15197 -1.750016,0.45496 -0.356487,0.60694 -0.151985,1.39339 0.455013,1.74984 l 1.869481,1.09782 c 0.10405,0.1674 0.173668,0.32087 0.156741,0.44658 -0.017,0.12623 -0.117672,0.25887 -0.263261,0.39334 l -2.054366,0.53409 c -0.674441,0.17534 -1.076228,0.8594 -0.90087,1.53378 0.175358,0.674359 0.85949,1.076109 1.533932,0.900769 l 1.978278,-0.5143 c 0.234662,0.0444 0.447381,0.0699 0.535659,0.18563 0.07044,0.0924 0.0725,0.25387 0.07076,0.42832 l -1.12609,1.91721 c -0.356488,0.60695 -0.151986,1.39339 0.455013,1.74984 0.607,0.35645 1.393527,0.15197 1.750016,-0.45496 l 1.097936,-1.86929 c 0.167418,-0.1041 0.320895,-0.17366 0.446635,-0.15673 0.126242,0.017 0.258888,0.11767 0.393376,0.26324 l 0.534145,2.05415 c 0.175358,0.67437 0.859492,1.07612 1.533932,0.90078 0.674441,-0.17535 1.07623,-0.8594 0.900871,-1.53378 l -0.514362,-1.97807 c 0.0444,-0.23463 0.0699,-0.44733 0.185652,-0.5356 0.09237,-0.0704 0.253899,-0.0725 0.428366,-0.0707 l 1.917417,1.12597 c 0.606999,0.35645 1.393527,0.15197 1.750015,-0.45497 0.356486,-0.60694 0.151986,-1.39338 -0.455013,-1.74983 l -1.86947,-1.097779 c -0.104038,-0.1674 -0.173668,-0.32086 -0.15674,-0.44659 0.017,-0.12623 0.117673,-0.25886 0.263262,-0.39333 l 2.054363,-0.5341 c 0.674441,-0.17533 1.07623,-0.8594 0.900873,-1.53376 -0.175363,-0.67438 -0.859494,-1.07612 -1.533934,-0.90078 l -1.978277,0.51431 c -0.234665,-0.0444 -0.447385,-0.0699 -0.535661,-0.18563 -0.07045,-0.0924 -0.0725,-0.25388 -0.07076,-0.42833 l 1.126086,-1.91722 c 0.356487,-0.60693 0.151985,-1.39337 -0.455013,-1.74983 -0.607,-0.35645 -1.393529,-0.15197 -1.750017,0.45497 l -1.097935,1.86929 c -0.167422,0.10398 -0.320893,0.17365 -0.446634,0.15672 -0.12624,-0.017 -0.258889,-0.11766 -0.393375,-0.26324 l -0.534146,-2.0542 c -0.175358,-0.67436 -0.859491,-1.07611 -1.533932,-0.90077 z"
           style="color:#000000;fill:none;stroke:#000000;stroke-width:0.85862124;stroke-miterlimit:4;stroke-opacity:1;stroke-dasharray:none;marker:none;visibility:visible;display:inline;overflow:visible;enable-background:accumulate"
           id="path31611" />
        <path
           id="path3643"
           style="color:#000000;fill:url(#linearGradient31621);fill-opacity:1;fill-rule:evenodd;stroke:#888a85;stroke-width:0.42931062;stroke-miterlimit:4;stroke-dasharray:none;marker:none;visibility:visible;display:inline;overflow:visible;enable-background:accumulate"
           d="m 60.478593,33.088038 c 0.302378,1.16285 -0.39527,2.35062 -1.55824,2.65297 -1.16297,0.302339 -2.350869,-0.39523 -2.653248,-1.55807 -0.302378,-1.16285 0.395269,-2.35064 1.55824,-2.65298 1.162969,-0.30235 2.350869,0.39523 2.653248,1.55808 z m -4.004929,-6.7562 c -0.67444,0.17534 -1.076229,0.8594 -0.900871,1.53378 l 0.514363,1.97807 c -0.04439,0.23463 -0.0699,0.44732 -0.185652,0.53559 -0.09238,0.0704 -0.253896,0.0725 -0.428373,0.0708 l -1.917416,-1.12601 c -0.606999,-0.35645 -1.393528,-0.15197 -1.750015,0.45496 -0.356487,0.60695 -0.151986,1.39339 0.455013,1.74984 l 1.86948,1.09782 c 0.104045,0.16741 0.173672,0.32086 0.156744,0.44658 -0.017,0.12623 -0.117674,0.25886 -0.263262,0.39334 l -2.054366,0.53409 c -0.674442,0.17534 -1.076229,0.8594 -0.900871,1.53378 0.175358,0.674359 0.85949,1.076109 1.533932,0.900769 l 1.978278,-0.514309 c 0.234661,0.0444 0.447381,0.0699 0.535659,0.185629 0.07044,0.0924 0.07251,0.25387 0.07076,0.42833 l -1.126089,1.91721 c -0.356488,0.60695 -0.151987,1.39339 0.455013,1.74984 0.606999,0.35645 1.393527,0.15197 1.750015,-0.45497 l 1.097936,-1.86928 c 0.167418,-0.1041 0.320895,-0.17365 0.446635,-0.15673 0.126241,0.017 0.258888,0.11767 0.393375,0.26324 l 0.534146,2.05415 c 0.175357,0.67437 0.859492,1.07612 1.533932,0.90078 0.674441,-0.17535 1.07623,-0.85941 0.900871,-1.53378 l -0.514362,-1.97807 c 0.04439,-0.23463 0.0699,-0.44733 0.185651,-0.53561 0.09238,-0.0704 0.253901,-0.0725 0.428366,-0.0708 l 1.917417,1.12598 c 0.606999,0.35645 1.393528,0.15197 1.750016,-0.45497 0.356486,-0.60694 0.151984,-1.39338 -0.455014,-1.749829 l -1.869474,-1.09778 c -0.104038,-0.1674 -0.173668,-0.32086 -0.156741,-0.44659 0.017,-0.12623 0.117673,-0.25886 0.263261,-0.39334 l 2.054366,-0.53409 c 0.674441,-0.17533 1.07623,-0.8594 0.900871,-1.53376 -0.175357,-0.67438 -0.859492,-1.07612 -1.533933,-0.90079 l -1.978277,0.51432 c -0.234664,-0.0444 -0.447385,-0.0699 -0.535661,-0.18563 -0.07044,-0.0924 -0.07251,-0.25388 -0.07076,-0.42833 l 1.12609,-1.91722 c 0.356487,-0.60693 0.151985,-1.39338 -0.455013,-1.74983 -0.607001,-0.35645 -1.393529,-0.15197 -1.750016,0.45497 l -1.097937,1.86928 c -0.167421,0.10409 -0.320892,0.17366 -0.446634,0.15672 -0.126241,-0.017 -0.258889,-0.11765 -0.393375,-0.26323 l -0.534145,-2.0542 c -0.175362,-0.67431 -0.859496,-1.07606 -1.533937,-0.90072 z"
           inkscape:connector-curvature="0" />
      </g>
    </g>
  </g>
</svg>
