<?xml version="1.0" encoding="UTF-8" standalone="no"?>
<!-- Created with Inkscape (http://www.inkscape.org/) -->

<svg
   xmlns:dc="http://purl.org/dc/elements/1.1/"
   xmlns:cc="http://creativecommons.org/ns#"
   xmlns:rdf="http://www.w3.org/1999/02/22-rdf-syntax-ns#"
   xmlns:svg="http://www.w3.org/2000/svg"
   xmlns="http://www.w3.org/2000/svg"
   xmlns:xlink="http://www.w3.org/1999/xlink"
   xmlns:sodipodi="http://sodipodi.sourceforge.net/DTD/sodipodi-0.dtd"
   xmlns:inkscape="http://www.inkscape.org/namespaces/inkscape"
   width="48px"
   height="48px"
   id="svg14531"
   version="1.1"
   inkscape:version="0.48.5 r10040"
   sodipodi:docname="prim.svg">
  <defs
     id="defs14533">
    <linearGradient
       id="linearGradient15335">
      <stop
         style="stop-color:#7f817c;stop-opacity:1;"
         offset="0"
         id="stop15337" />
      <stop
         style="stop-color:#656763;stop-opacity:1;"
         offset="1"
         id="stop15339" />
    </linearGradient>
    <linearGradient
       inkscape:collect="always"
       id="linearGradient15319">
      <stop
         style="stop-color:#000000;stop-opacity:1;"
         offset="0"
         id="stop15321" />
      <stop
         style="stop-color:#000000;stop-opacity:0;"
         offset="1"
         id="stop15323" />
    </linearGradient>
    <linearGradient
       id="linearGradient15255">
      <stop
         style="stop-color:#88927d;stop-opacity:1;"
         offset="0"
         id="stop15257" />
      <stop
         id="stop15263"
         offset="0.5"
         style="stop-color:#c2c9be;stop-opacity:1;" />
      <stop
         style="stop-color:#aab2a2;stop-opacity:1;"
         offset="1"
         id="stop15259" />
    </linearGradient>
    <linearGradient
       id="linearGradient15228">
      <stop
         style="stop-color:#d8dbd4;stop-opacity:1;"
         offset="0"
         id="stop15230" />
      <stop
         style="stop-color:#bac1b4;stop-opacity:1;"
         offset="1"
         id="stop15232" />
    </linearGradient>
    <linearGradient
       id="linearGradient15220">
      <stop
         style="stop-color:#757872;stop-opacity:1;"
         offset="0"
         id="stop15222" />
      <stop
         style="stop-color:#555753;stop-opacity:1;"
         offset="1"
         id="stop15224" />
    </linearGradient>
    <linearGradient
       id="linearGradient15174">
      <stop
         style="stop-color:#868b7f;stop-opacity:1;"
         offset="0"
         id="stop15176" />
      <stop
         style="stop-color:#c4c7c0;stop-opacity:1;"
         offset="1"
         id="stop15178" />
    </linearGradient>
    <linearGradient
       id="linearGradient15166">
      <stop
         style="stop-color:#71766b;stop-opacity:1;"
         offset="0"
         id="stop15168" />
      <stop
         style="stop-color:#babdb6;stop-opacity:1;"
         offset="1"
         id="stop15170" />
    </linearGradient>
    <linearGradient
       inkscape:collect="always"
       xlink:href="#linearGradient15166"
       id="linearGradient15172"
       x1="28.321428"
       y1="19.5"
       x2="27.035715"
       y2="22.714285"
       gradientUnits="userSpaceOnUse"
       gradientTransform="matrix(1.3971158,0,0,1.3975442,-8.9142112,-7.5238146)" />
    <linearGradient
       inkscape:collect="always"
       xlink:href="#linearGradient15174"
       id="linearGradient15180"
       x1="22.464285"
       y1="24.964285"
       x2="24.785715"
       y2="24.428572"
       gradientUnits="userSpaceOnUse"
       gradientTransform="matrix(1.3971158,0,0,1.3975442,-8.9142112,-7.5238146)" />
    <linearGradient
       inkscape:collect="always"
       xlink:href="#linearGradient15220"
       id="linearGradient15226"
       x1="15.493339"
       y1="10.544048"
       x2="35.471954"
       y2="33.045197"
       gradientUnits="userSpaceOnUse"
       gradientTransform="matrix(1.3971158,0,0,1.3975442,-8.9142112,-7.5238146)" />
    <radialGradient
       inkscape:collect="always"
       xlink:href="#linearGradient15228"
       id="radialGradient15234"
       cx="25.34375"
       cy="22.640625"
       fx="25.34375"
       fy="22.640625"
       r="15.40625"
       gradientTransform="matrix(1.3971158,0,0,1.3337618,-8.9142112,-6.0797403)"
       gradientUnits="userSpaceOnUse" />
    <linearGradient
       inkscape:collect="always"
       xlink:href="#linearGradient15255"
       id="linearGradient15261"
       x1="11.910632"
       y1="31.491646"
       x2="29.80349"
       y2="6.8487883"
       gradientUnits="userSpaceOnUse"
       gradientTransform="matrix(1.3971158,0,0,1.3975442,-8.9142112,-7.5238146)" />
    <radialGradient
       inkscape:collect="always"
       xlink:href="#linearGradient15319"
       id="radialGradient15325"
       cx="23.991123"
       cy="41.737053"
       fx="23.991123"
       fy="41.737053"
       r="23.486046"
       gradientTransform="matrix(1,0,0,0.28387099,0,29.889115)"
       gradientUnits="userSpaceOnUse" />
    <linearGradient
       inkscape:collect="always"
       xlink:href="#linearGradient15335"
       id="linearGradient15341"
       x1="7.7416878"
       y1="0.2141275"
       x2="5.1887984"
       y2="36.024036"
       gradientUnits="userSpaceOnUse" />
    <linearGradient
       inkscape:collect="always"
       xlink:href="#linearGradient31615"
       id="linearGradient31621"
       x1="7.59835"
       y1="7.6808586"
       x2="12.40363"
       y2="12.335973"
       gradientUnits="userSpaceOnUse"
       gradientTransform="matrix(1.1245264,-0.29235211,0.29238268,1.1244088,47.126399,26.973958)" />
    <linearGradient
       id="linearGradient31615">
      <stop
         style="stop-color:#eeeeec;stop-opacity:1;"
         offset="0"
         id="stop31617" />
      <stop
         style="stop-color:#d2d2cc;stop-opacity:1;"
         offset="1"
         id="stop31619" />
    </linearGradient>
  </defs>
  <sodipodi:namedview
     id="base"
     pagecolor="#ffffff"
     bordercolor="#666666"
     borderopacity="1.0"
     inkscape:pageopacity="0.0"
     inkscape:pageshadow="2"
     inkscape:zoom="19.79899"
     inkscape:cx="7.9385743"
     inkscape:cy="24.376704"
     inkscape:current-layer="layer1"
     showgrid="true"
     inkscape:grid-bbox="true"
     inkscape:document-units="px"
     inkscape:window-width="2880"
     inkscape:window-height="1557"
     inkscape:window-x="-8"
     inkscape:window-y="-8"
     inkscape:window-maximized="1" />
  <metadata
     id="metadata14536">
    <rdf:RDF>
      <cc:Work
         rdf:about="">
        <dc:format>image/svg+xml</dc:format>
        <dc:type
           rdf:resource="http://purl.org/dc/dcmitype/StillImage" />
        <dc:title></dc:title>
      </cc:Work>
    </rdf:RDF>
  </metadata>
  <g
     id="layer1"
     inkscape:label="Layer 1"
     inkscape:groupmode="layer">
    <path
       sodipodi:type="arc"
       style="color:#000000;fill:url(#radialGradient15325);fill-opacity:1;fill-rule:nonzero;stroke:none;stroke-width:0.5;marker:none;visibility:visible;display:inline;overflow:visible;enable-background:accumulate"
       id="path15309"
       sodipodi:cx="23.991123"
       sodipodi:cy="41.737053"
       sodipodi:rx="23.486046"
       sodipodi:ry="6.667007"
       d="m 47.477169,41.737053 a 23.486046,6.667007 0 1 1 -46.97209164,0 23.486046,6.667007 0 1 1 46.97209164,0 z"
       transform="matrix(1,-0.04086022,0,1,0,0.12165276)" />
    <path
       id="path15111"
       d="M 18.753556,0.45983306 16.668937,1.0976771 16.86043,2.4433438 14.743738,1.6867419 11.331378,2.7308424 6.7470923,6.2683762 5.6423872,9.5646668 2.9486837,11.509168 1.9445067,13.867524 0.89666993,17.055672 0.59105085,21.59769 1.9008468,28.017659 2.8177041,28.367045 c 0,0 -0.2147535,0.221426 -0.5675783,0.786119 -0.3528248,0.564693 1.2661362,2.314682 1.2661362,2.314682 l 2.1829934,1.746931 0.9168573,2.139989 4.7160093,3.664552 3.972305,1.05216 L 34.903028,32.803196 39.361015,8.5830598 38.313178,6.1373564 35.911885,4.1283866 34.995028,4.7834855 34.20915,3.516961 32.263356,1.8119891 29.188265,1.0275854 23.556142,0.63452608 z m -0.567578,15.06727494 2.663252,0.393059 2.619592,-0.262039 4.540627,0.567752 0,1.74693 -0.654898,4.236306 0.130979,3.100801 -4.715266,0.08735 -3.23083,-0.655099 c 0,0 -2.041862,0.598213 -2.182993,0.174693 -0.14113,-0.42352 0.611238,-4.804058 0.611238,-4.804058 l -1.397116,-1.135505 1.528095,-1.266524 z"
       style="fill:url(#linearGradient15261);fill-opacity:1;stroke:url(#linearGradient15341);stroke-width:0.75000000000000000;stroke-linecap:butt;stroke-linejoin:miter;stroke-miterlimit:4;stroke-opacity:1;stroke-dasharray:none"
       inkscape:connector-curvature="0"
       sodipodi:nodetypes="cccccccccccccsccccccccccccccccccccccccscccc" />
    <path
       style="color:#000000;fill:#d3d7cf;fill-opacity:1;fill-rule:nonzero;stroke:#888a85;stroke-width:0.50000000000000000;stroke-linecap:butt;stroke-linejoin:miter;stroke-miterlimit:4;stroke-opacity:1;stroke-dasharray:none;stroke-dashoffset:0;marker:none;visibility:visible;display:inline;overflow:visible;enable-background:accumulate"
       d="M 35.843391,3.8062758 40.733297,7.4498736 38.637623,9.2966291 33.897409,5.3535569 z"
       id="path15113"
       inkscape:connector-curvature="0" />
    <path
       style="color:#000000;fill:url(#linearGradient15172);fill-opacity:1;fill-rule:nonzero;stroke:#555753;stroke-width:0.5;stroke-linecap:butt;stroke-linejoin:miter;stroke-miterlimit:4;stroke-opacity:1;stroke-dasharray:none;stroke-dashoffset:0;marker:none;visibility:visible;display:inline;overflow:visible;enable-background:accumulate"
       d="m 32.450396,28.862247 -4.939802,-3.543773 -0.299382,-2.994737 0.64866,-3.344123 5.837949,0.748684 z"
       id="path15150"
       inkscape:connector-curvature="0"
       sodipodi:nodetypes="cccccc" />
    <path
       style="color:#000000;fill:url(#linearGradient15180);fill-opacity:1;fill-rule:nonzero;stroke:#555753;stroke-width:0.5;stroke-linecap:butt;stroke-linejoin:miter;stroke-miterlimit:4;stroke-opacity:1;stroke-dasharray:none;stroke-dashoffset:0;marker:none;visibility:visible;display:inline;overflow:visible;enable-background:accumulate"
       d="m 32.250809,28.862247 -4.889906,-3.593685 -6.6363,0.149738 -2.345159,5.540263 z"
       id="path15158"
       inkscape:connector-curvature="0" />
    <path
       style="fill:url(#radialGradient15234);fill-opacity:1;stroke:url(#linearGradient15226);stroke-width:0.75;stroke-linecap:butt;stroke-linejoin:miter;stroke-miterlimit:4;stroke-opacity:1;stroke-dasharray:none"
       d="m 23.481412,3.9185785 -7.422178,2.2710093 -4.584286,3.5375338 -1.5280959,2.0963164 -2.2703132,3.144475 -1.004177,2.358355 -1.0478368,3.188148 -0.3056191,4.542019 1.3097961,6.419968 0.9168572,0.349387 c 0,0 -0.2147534,0.221425 -0.5675783,0.786118 -0.3528248,0.564693 1.2661362,2.314683 1.2661362,2.314683 l 2.1829938,1.74693 0.916857,2.13999 1.702735,0.567752 1.135157,0.917138 5.850422,3.231821 6.330681,0.786119 4.060368,-1.659584 4.496966,-0.960812 4.147688,-1.790603 2.619592,-2.664069 -1.266136,-2.314682 1.528095,1.135504 2.095674,-1.179178 0.742218,-2.358355 1.615415,-2.052643 0.611238,-1.834277 -0.04366,-2.882435 -1.004177,-1.834277 1.702735,-2.838762 -0.785878,-2.139989 0.04366,-2.402029 L 45.704285,13.614041 44.08887,12.041804 43.041033,9.5961018 40.63974,7.587132 39.722883,8.2422309 38.937005,6.9757064 33.91612,4.4863308 28.283997,4.0932715 23.481412,3.9185785 z m -0.567579,15.0672735 2.663252,0.393059 2.619593,-0.262039 4.540626,0.567752 0,1.746931 -0.654898,4.236305 0.130979,3.100802 -4.715265,0.08735 -3.230831,-0.655099 c 0,0 -2.041862,0.598213 -2.182993,0.174693 -0.14113,-0.42352 0.611238,-4.804058 0.611238,-4.804058 l -1.397116,-1.135505 1.528096,-1.266524 0.08732,-2.183663 z"
       id="path14550"
       inkscape:connector-curvature="0" />
    <path
       sodipodi:type="inkscape:offset"
       inkscape:radius="-0.69064403"
       inkscape:original="M 23.46875 3.90625 L 16.0625 6.1875 L 11.46875 9.71875 L 9.9375 11.8125 L 7.6875 14.96875 L 6.6875 17.3125 L 5.625 20.5 L 5.3125 25.0625 L 6.625 31.46875 L 7.53125 31.8125 C 7.53125 31.8125 7.3215749 32.060307 6.96875 32.625 C 6.6159252 33.189693 8.25 34.9375 8.25 34.9375 L 10.4375 36.6875 L 11.34375 38.8125 L 13.03125 39.375 L 14.1875 40.3125 L 20.03125 43.53125 L 26.375 44.3125 L 30.4375 42.65625 L 34.90625 41.6875 L 39.0625 39.90625 L 41.6875 37.25 L 40.40625 34.9375 L 41.9375 36.0625 L 44.03125 34.875 L 44.78125 32.53125 L 46.40625 30.46875 L 47 28.625 L 46.96875 25.75 L 45.96875 23.90625 L 47.65625 21.09375 L 46.875 18.9375 L 46.9375 16.53125 L 45.71875 13.625 L 44.09375 12.03125 L 43.03125 9.59375 L 40.625 7.59375 L 39.71875 8.25 L 38.9375 6.96875 L 33.90625 4.5 L 28.28125 4.09375 L 23.46875 3.90625 z M 22.90625 19 L 25.5625 19.375 L 28.1875 19.125 L 32.75 19.6875 L 32.75 21.4375 L 32.09375 25.65625 L 32.21875 28.78125 L 27.5 28.84375 L 24.28125 28.1875 C 24.28125 28.1875 22.234881 28.79852 22.09375 28.375 C 21.95262 27.95148 22.6875 23.5625 22.6875 23.5625 L 21.3125 22.4375 L 22.8125 21.15625 L 22.90625 19 z "
       style="fill:none;fill-opacity:1;stroke:#d3d7cf;stroke-width:0.50000000000000000;stroke-linecap:butt;stroke-linejoin:miter;stroke-miterlimit:4;stroke-opacity:1;stroke-dasharray:none"
       id="path15331"
       d="M 23.5625,4.59375 16.375,6.8125 11.96875,10.21875 10.5,12.21875 8.3125,15.25 8.28125,15.34375 8.25,15.375 l -0.90625,2.15625 -0.03125,0.0625 -1,2.96875 0,0.09375 L 6,24.9375 6,25 l 1.21875,5.9375 0.5625,0.21875 A 0.69071309,0.69071309 0 0 1 8.0625,32.25 c 0,0 -0.164217,0.212582 -0.5,0.75 0.1235711,-0.197774 0.025081,-0.192527 0.09375,-0.03125 0.068669,0.161277 0.2093378,0.394275 0.375,0.625 0.3055856,0.425603 0.6035087,0.75519 0.65625,0.8125 l 0.03125,0.03125 c 0.00114,0.0012 0.03125,0.03125 0.03125,0.03125 l 2.125,1.6875 a 0.69071309,0.69071309 0 0 1 0.1875,0.25 L 11.84375,38.25 13.25,38.71875 a 0.69071309,0.69071309 0 0 1 0.21875,0.125 l 1.0625,0.875 0.0625,0.03125 0.03125,0.03125 5.59375,3.0625 6.09375,0.75 3.875,-1.5625 a 0.69071309,0.69071309 0 0 1 0.09375,-0.0625 L 34.75,41 l 3.875,-1.65625 2.1875,-2.21875 -1,-1.84375 a 0.69071309,0.69071309 0 0 1 1,-0.90625 L 42,35.25 43.4375,34.40625 44.125,32.3125 A 0.69071309,0.69071309 0 0 1 44.25,32.09375 L 45.78125,30.15625 46.3125,28.5 46.28125,25.9375 45.375,24.25 a 0.69071309,0.69071309 0 0 1 0,-0.6875 l 1.5,-2.53125 -0.65625,-1.84375 A 0.69071309,0.69071309 0 0 1 46.1875,18.90625 l 0.0625,-2.25 -1.125,-2.625 -1.5,-1.5 A 0.69071309,0.69071309 0 0 1 43.46875,12.3125 l -1,-2.28125 -1.875,-1.5625 L 40.125,8.8125 a 0.69071309,0.69071309 0 0 1 -1,-0.1875 L 38.4375,7.5 33.6875,5.1875 28.25,4.78125 l -0.03125,0 -4.65625,-0.1875 z M 22.75,18.3125 a 0.69071309,0.69071309 0 0 1 0.25,0 l 2.59375,0.375 0.0625,0 2.46875,-0.25 a 0.69071309,0.69071309 0 0 1 0.15625,0 L 32.84375,19 a 0.69071309,0.69071309 0 0 1 0.59375,0.6875 l 0,1.75 a 0.69071309,0.69071309 0 0 1 0,0.09375 l -0.65625,4.1875 0,0.03125 0.125,3 a 0.69071309,0.69071309 0 0 1 -0.6875,0.71875 L 27.5,29.53125 a 0.69071309,0.69071309 0 0 1 -0.125,0 l -3.125,-0.625 c -0.156006,0.04485 -0.415245,0.132039 -0.875,0.21875 -0.287843,0.05429 -0.577273,0.09695 -0.875,0.09375 -0.148864,-0.0016 -0.315454,7.97e-4 -0.5,-0.0625 -0.184546,-0.0633 -0.457857,-0.248476 -0.5625,-0.5625 -0.102611,-0.307926 -0.07011,-0.377159 -0.0625,-0.5625 0.0076,-0.185341 0.03711,-0.412387 0.0625,-0.65625 0.05079,-0.487727 0.135002,-1.076251 0.21875,-1.65625 0.137654,-0.953327 0.23243,-1.579332 0.28125,-1.875 l -1.0625,-0.875 a 0.69071309,0.69071309 0 0 1 0,-1.0625 l 1.25,-1.09375 0.09375,-1.84375 A 0.69071309,0.69071309 0 0 1 22.75,18.3125 z" />
    <path
       style="fill:#71726e;fill-opacity:1;stroke:none"
       d="m 20.824396,22.373649 -1.621652,0.998246 -2.220416,-0.673816 -1.970931,1.622149 1.970931,-1.222851 2.295261,0.923378 2.519799,-1.547281 z"
       id="path15082"
       inkscape:connector-curvature="0"
       sodipodi:nodetypes="cccccccc" />
    <path
       style="color:#000000;fill:#777974;fill-opacity:1;fill-rule:nonzero;stroke:none;stroke-width:1px;marker:none;visibility:visible;display:inline;overflow:visible;enable-background:accumulate"
       d="m 39.59923,8.5594581 0,1.9764269 -1.093758,1.729373 -2.716753,1.588198 3.140142,-1.235265 1.164323,-2.1176 0.07057,-2.5411196 z"
       id="path15084"
       inkscape:connector-curvature="0" />
    <path
       style="color:#000000;fill:#555753;fill-opacity:1;fill-rule:nonzero;stroke:none;stroke-width:1px;marker:none;visibility:visible;display:inline;overflow:visible;enable-background:accumulate"
       d="m 40.146885,35.106463 -0.858952,-0.973814 -2.18096,-0.299484 -0.241364,-0.859972 -1.104131,-0.397807 -1.499264,0.421286 1.531348,-0.764806 0.884794,0.170879 -0.449239,-1.697362 1.312977,2.643979 2.225545,-0.08778 0.882373,1.468627 z"
       id="path15103"
       inkscape:connector-curvature="0"
       sodipodi:nodetypes="ccccccccccccc" />
    <path
       style="color:#000000;fill:#d3d7cf;fill-opacity:1;fill-rule:nonzero;stroke:#888a85;stroke-width:0.5;stroke-linecap:butt;stroke-linejoin:miter;stroke-miterlimit:4;stroke-opacity:1;stroke-dasharray:none;stroke-dashoffset:0;marker:none;visibility:visible;display:inline;overflow:visible;enable-background:accumulate"
       d="M 11.479075,9.5829649 12.396419,7.0418452 15.924671,6.194806 14.301675,9.1594447 z"
       id="path15132"
       inkscape:connector-curvature="0" />
    <path
       style="color:#000000;fill:#d3d7cf;fill-opacity:1;fill-rule:nonzero;stroke:#888a85;stroke-width:0.5;stroke-linecap:butt;stroke-linejoin:miter;stroke-miterlimit:4;stroke-opacity:1;stroke-dasharray:none;stroke-dashoffset:0;marker:none;visibility:visible;display:inline;overflow:visible;enable-background:accumulate"
       d="m 5.5516152,20.453307 -0.141131,-2.894051 1.9052552,-1.694079 0.9173448,2.823465 z"
       id="path15140"
       inkscape:connector-curvature="0" />
    <path
       sodipodi:nodetypes="cccccccc"
       inkscape:connector-curvature="0"
       id="path15148"
       d="m 7.9794112,31.802411 1.216941,-0.998246 1.6662748,0.673816 1.479051,-1.622149 -1.479051,1.222851 -1.7224403,-0.923378 -1.8909403,1.547281 z"
       style="fill:#888a85;stroke:none" />
    <path
       style="fill:#555753;fill-opacity:0.23195879;stroke:none"
       d="m 23.263431,33.229489 -1.340735,-1.023507 0.599802,-1.447026 2.25808,1.129386 z"
       id="path15182"
       inkscape:connector-curvature="0" />
    <path
       inkscape:connector-curvature="0"
       id="path15184"
       d="m 28.838065,14.347562 -1.340735,1.023507 0.599803,1.447026 2.25808,-1.129386 z"
       style="fill:#eeeeec;fill-opacity:0.37113402;stroke:none" />
    <path
       style="fill:#eeeeec;fill-opacity:0.37113402;stroke:none"
       d="m 40.446009,26.841398 1.340735,-1.023507 -0.599803,-1.447026 -2.25808,1.129387 z"
       id="path15186"
       inkscape:connector-curvature="0" />
    <path
       inkscape:connector-curvature="0"
       id="path15188"
       d="m 33.918745,34.605928 1.340736,1.023507 -0.599803,1.447026 -2.25808,-1.129386 z"
       style="fill:#eeeeec;fill-opacity:0.37113402;stroke:none" />
    <path
       style="fill:#555753;fill-opacity:0.23195879;stroke:none"
       d="m 18.288598,27.441385 -1.340736,1.023506 0.599803,1.447026 2.25808,-1.129386 z"
       id="path15190"
       inkscape:connector-curvature="0" />
    <path
       inkscape:connector-curvature="0"
       id="path15192"
       d="m 13.278481,22.641492 1.340736,1.023507 -0.599803,1.447026 -2.25808,-1.129386 z"
       style="fill:#eeeeec;fill-opacity:0.37113402;stroke:none" />
    <path
       style="fill:#eeeeec;fill-opacity:0.37113402;stroke:none"
       d="m 34.095158,9.3359099 -1.340735,1.0235071 0.599802,1.447025 2.25808,-1.129386 z"
       id="path15194"
       inkscape:connector-curvature="0" />
    <path
       inkscape:connector-curvature="0"
       id="path15196"
       d="m 27.462049,6.159511 1.340735,1.0235072 -0.599803,1.4470256 -2.25808,-1.1293862 z"
       style="fill:#555753;fill-opacity:0.23195879;stroke:none" />
    <path
       style="fill:#555753;fill-opacity:0.23195879;stroke:none"
       d="m 15.395431,10.853523 -1.340735,1.023507 0.599802,1.447025 2.25808,-1.129386 z"
       id="path15198"
       inkscape:connector-curvature="0" />
    <path
       inkscape:connector-curvature="0"
       id="path15200"
       d="m 41.963155,15.582828 -1.340735,1.023507 0.599803,1.447025 2.25808,-1.129386 z"
       style="fill:#eeeeec;fill-opacity:0.37113402;stroke:none" />
    <path
       style="color:#000000;fill:#eeeeec;fill-opacity:0.37113402;fill-rule:nonzero;stroke:none;marker:none;visibility:visible;display:inline;overflow:visible;enable-background:accumulate"
       d="m 22.451933,36.652941 1.340735,1.023507 -0.599803,1.447025 -2.25808,-1.129386 z"
       id="path15202"
       inkscape:connector-curvature="0" />
    <path
       inkscape:connector-curvature="0"
       id="path15204"
       d="m 27.426765,31.711876 -1.340736,1.023507 0.599803,1.447025 2.25808,-1.129386 z"
       style="fill:#eeeeec;fill-opacity:0.37113402;stroke:none" />
    <path
       style="color:#000000;fill:#555753;fill-opacity:0.23195879;fill-rule:nonzero;stroke:none;marker:none;visibility:visible;display:inline;overflow:visible;enable-background:accumulate"
       d="m 42.351263,28.076663 -1.340736,1.023507 0.599803,1.447026 2.25808,-1.129386 z"
       id="path15206"
       inkscape:connector-curvature="0" />
    <path
       inkscape:connector-curvature="0"
       id="path15208"
       d="m 35.788718,18.123948 -1.340735,1.023506 0.599802,1.447026 2.25808,-1.129386 z"
       style="fill:#555753;fill-opacity:0.23195879;stroke:none" />
    <path
       style="fill:#eeeeec;fill-opacity:0.37113402;stroke:none"
       d="M 9.4326883,21.12388 8.0919531,20.100373 8.6917559,18.653347 10.949836,19.782733 z"
       id="path15210"
       inkscape:connector-curvature="0" />
    <path
       inkscape:connector-curvature="0"
       id="path15212"
       d="m 13.666589,34.041235 -1.340735,1.023507 0.599803,1.447026 2.25808,-1.129386 z"
       style="fill:#eeeeec;fill-opacity:0.37113402;stroke:none" />
    <path
       style="fill:#eeeeec;fill-opacity:0.37113402;stroke:none"
       d="m 18.60614,15.794588 -1.340735,1.023507 0.599802,1.447026 2.25808,-1.129387 z"
       id="path15214"
       inkscape:connector-curvature="0" />
    <path
       inkscape:connector-curvature="0"
       id="path15216"
       d="m 19.770462,35.523556 -1.340735,-1.023507 0.599803,-1.447026 2.25808,1.129387 z"
       style="fill:#eeeeec;stroke:none" />
    <path
       style="fill:#eeeeec;fill-opacity:0.37113402;stroke:none"
       d="m 35.224198,25.50025 -1.340735,1.023507 0.599802,1.447026 2.25808,-1.129386 z"
       id="path15218"
       inkscape:connector-curvature="0" />
    <path
       inkscape:connector-curvature="0"
       id="path15253"
       d="m 25.237187,40.679576 -1.543424,0.680164 -0.977096,-1.224158 2.079092,-1.432579 z"
       style="fill:#555753;fill-opacity:0.23195879;stroke:none" />
    <path
       inkscape:connector-curvature="0"
       id="path15276"
       d="M 7.8396005,8.9069434 6.9322562,9.5996027 7.3381742,10.57888 8.8663325,9.8145659 z"
       style="fill:#555753;fill-opacity:0.23195879;stroke:none" />
    <path
       inkscape:connector-curvature="0"
       id="path15278"
       d="M 14.086463,2.7973995 12.745728,3.8209064 13.34553,5.267932 15.603611,4.1385458 z"
       style="fill:#eeeeec;fill-opacity:0.37113402;stroke:none" />
    <path
       style="fill:#555753;fill-opacity:0.23195879;stroke:none"
       d="M 20.960756,2.0022767 20.053413,2.6949362 20.45933,3.6742125 21.987488,2.909899 z"
       id="path15280"
       inkscape:connector-curvature="0" />
    <path
       style="fill:#eeeeec;fill-opacity:0.37113402;stroke:none"
       d="M 3.355756,23.844317 4.0410542,24.367468 3.7344733,25.107094 2.5802872,24.529825 z"
       id="path15282"
       inkscape:connector-curvature="0" />
    <path
       inkscape:connector-curvature="0"
       id="path15284"
       d="m 2.8721863,17.289786 0.9193828,0.701849 -0.4113029,0.992269 -1.548434,-0.774455 z"
       style="fill:#eeeeec;fill-opacity:0.37113402;stroke:none" />
    <path
       inkscape:connector-curvature="0"
       id="path15286"
       d="m 4.6882788,12.320424 -1.0130167,0.77333 0.4531918,1.093327 1.7061331,-0.85333 z"
       style="fill:#555753;fill-opacity:0.23195879;stroke:none" />
    <path
       inkscape:connector-curvature="0"
       id="path15288"
       d="m 42.94983,20.971162 0.482267,1.616637 1.56524,-0.04884 -0.256491,-2.512318 z"
       style="color:#000000;fill:#555753;fill-opacity:0.23195879;fill-rule:nonzero;stroke:none;marker:none;visibility:visible;display:inline;overflow:visible;enable-background:accumulate" />
    <path
       style="fill:#555753;fill-opacity:0.23195879;stroke:none"
       d="M 28.834216,1.8171415 29.795734,2.5511571 29.365581,3.5889022 27.746183,2.7789546 z"
       id="path15290"
       inkscape:connector-curvature="0" />
    <path
       sodipodi:type="arc"
       style="color:#000000;fill:#000000;fill-opacity:1;fill-rule:nonzero;stroke:#ffffff;stroke-width:0.95412844;stroke-linecap:butt;stroke-linejoin:miter;stroke-miterlimit:4;stroke-opacity:1;stroke-dasharray:none;stroke-dashoffset:0;marker:none;visibility:visible;display:inline;overflow:visible;enable-background:accumulate"
       id="path12848"
       sodipodi:cx="58.386818"
       sodipodi:cy="34.059895"
       sodipodi:rx="10.505587"
       sodipodi:ry="10.505587"
       d="m 68.892405,34.059895 a 10.505587,10.505587 0 1 1 -21.011174,0 10.505587,10.505587 0 1 1 21.011174,0 z"
       transform="matrix(1.0480769,0,0,1.0480769,-24.702115,0.81212613)" />
    <g
       id="g12842"
       transform="matrix(1.0480769,0,0,1.0480769,-24.64918,1.0768057)">
      <path
         id="path31611"
         style="color:#000000;fill:none;stroke:#000000;stroke-width:0.95412844;stroke-miterlimit:4;stroke-opacity:1;stroke-dasharray:none;marker:none;visibility:visible;display:inline;overflow:visible;enable-background:accumulate"
         d="m 60.644083,33.585798 c 0.302378,1.16285 -0.395271,2.35062 -1.55824,2.652969 -1.162971,0.30234 -2.350869,-0.395229 -2.653248,-1.558069 -0.302378,-1.16285 0.395269,-2.35062 1.558239,-2.65298 1.16297,-0.30235 2.35087,0.39523 2.653249,1.55808 z m -4.004929,-6.7562 c -0.67444,0.17534 -1.076228,0.8594 -0.90087,1.53377 l 0.514362,1.97807 c -0.04439,0.23464 -0.0699,0.44734 -0.185652,0.5356 -0.09237,0.0704 -0.253897,0.0725 -0.428374,0.0708 l -1.917415,-1.12597 c -0.606999,-0.35645 -1.393528,-0.15197 -1.750016,0.45496 -0.356487,0.60694 -0.151985,1.39339 0.455013,1.74984 l 1.869481,1.09782 c 0.10405,0.1674 0.173668,0.32087 0.156741,0.44658 -0.017,0.12623 -0.117672,0.25887 -0.263261,0.39334 l -2.054366,0.53409 c -0.674441,0.17534 -1.076228,0.8594 -0.90087,1.53378 0.175358,0.674359 0.85949,1.076109 1.533932,0.900769 l 1.978278,-0.5143 c 0.234662,0.0444 0.447381,0.0699 0.535659,0.18563 0.07044,0.0924 0.0725,0.25387 0.07076,0.42832 l -1.12609,1.91721 c -0.356488,0.60695 -0.151986,1.39339 0.455013,1.74984 0.607,0.35645 1.393527,0.15197 1.750016,-0.45496 l 1.097936,-1.86929 c 0.167418,-0.1041 0.320895,-0.17366 0.446635,-0.15673 0.126242,0.017 0.258888,0.11767 0.393376,0.26324 l 0.534145,2.05415 c 0.175358,0.67437 0.859492,1.07612 1.533932,0.90078 0.674441,-0.17535 1.07623,-0.8594 0.900871,-1.53378 l -0.514362,-1.97807 c 0.0444,-0.23463 0.0699,-0.44733 0.185652,-0.5356 0.09237,-0.0704 0.253899,-0.0725 0.428366,-0.0707 l 1.917417,1.12597 c 0.606999,0.35645 1.393527,0.15197 1.750015,-0.45497 0.356486,-0.60694 0.151986,-1.39338 -0.455013,-1.74983 l -1.86947,-1.097779 c -0.104038,-0.1674 -0.173668,-0.32086 -0.15674,-0.44659 0.017,-0.12623 0.117673,-0.25886 0.263262,-0.39333 l 2.054363,-0.5341 c 0.674441,-0.17533 1.07623,-0.8594 0.900873,-1.53376 -0.175363,-0.67438 -0.859494,-1.07612 -1.533934,-0.90078 l -1.978277,0.51431 c -0.234665,-0.0444 -0.447385,-0.0699 -0.535661,-0.18563 -0.07045,-0.0924 -0.0725,-0.25388 -0.07076,-0.42833 l 1.126086,-1.91722 c 0.356487,-0.60693 0.151985,-1.39337 -0.455013,-1.74983 -0.607,-0.35645 -1.393529,-0.15197 -1.750017,0.45497 l -1.097935,1.86929 c -0.167422,0.10398 -0.320893,0.17365 -0.446634,0.15672 -0.12624,-0.017 -0.258889,-0.11766 -0.393375,-0.26324 l -0.534146,-2.0542 c -0.175358,-0.67436 -0.859491,-1.07611 -1.533932,-0.90077 z"
         inkscape:connector-curvature="0" />
      <path
         inkscape:connector-curvature="0"
         d="m 60.478593,33.088038 c 0.302378,1.16285 -0.39527,2.35062 -1.55824,2.65297 -1.16297,0.302339 -2.350869,-0.39523 -2.653248,-1.55807 -0.302378,-1.16285 0.395269,-2.35064 1.55824,-2.65298 1.162969,-0.30235 2.350869,0.39523 2.653248,1.55808 z m -4.004929,-6.7562 c -0.67444,0.17534 -1.076229,0.8594 -0.900871,1.53378 l 0.514363,1.97807 c -0.04439,0.23463 -0.0699,0.44732 -0.185652,0.53559 -0.09238,0.0704 -0.253896,0.0725 -0.428373,0.0708 l -1.917416,-1.12601 c -0.606999,-0.35645 -1.393528,-0.15197 -1.750015,0.45496 -0.356487,0.60695 -0.151986,1.39339 0.455013,1.74984 l 1.86948,1.09782 c 0.104045,0.16741 0.173672,0.32086 0.156744,0.44658 -0.017,0.12623 -0.117674,0.25886 -0.263262,0.39334 l -2.054366,0.53409 c -0.674442,0.17534 -1.076229,0.8594 -0.900871,1.53378 0.175358,0.674359 0.85949,1.076109 1.533932,0.900769 l 1.978278,-0.514309 c 0.234661,0.0444 0.447381,0.0699 0.535659,0.185629 0.07044,0.0924 0.07251,0.25387 0.07076,0.42833 l -1.126089,1.91721 c -0.356488,0.60695 -0.151987,1.39339 0.455013,1.74984 0.606999,0.35645 1.393527,0.15197 1.750015,-0.45497 l 1.097936,-1.86928 c 0.167418,-0.1041 0.320895,-0.17365 0.446635,-0.15673 0.126241,0.017 0.258888,0.11767 0.393375,0.26324 l 0.534146,2.05415 c 0.175357,0.67437 0.859492,1.07612 1.533932,0.90078 0.674441,-0.17535 1.07623,-0.85941 0.900871,-1.53378 l -0.514362,-1.97807 c 0.04439,-0.23463 0.0699,-0.44733 0.185651,-0.53561 0.09238,-0.0704 0.253901,-0.0725 0.428366,-0.0708 l 1.917417,1.12598 c 0.606999,0.35645 1.393528,0.15197 1.750016,-0.45497 0.356486,-0.60694 0.151984,-1.39338 -0.455014,-1.749829 l -1.869474,-1.09778 c -0.104038,-0.1674 -0.173668,-0.32086 -0.156741,-0.44659 0.017,-0.12623 0.117673,-0.25886 0.263261,-0.39334 l 2.054366,-0.53409 c 0.674441,-0.17533 1.07623,-0.8594 0.900871,-1.53376 -0.175357,-0.67438 -0.859492,-1.07612 -1.533933,-0.90079 l -1.978277,0.51432 c -0.234664,-0.0444 -0.447385,-0.0699 -0.535661,-0.18563 -0.07044,-0.0924 -0.07251,-0.25388 -0.07076,-0.42833 l 1.12609,-1.91722 c 0.356487,-0.60693 0.151985,-1.39338 -0.455013,-1.74983 -0.607001,-0.35645 -1.393529,-0.15197 -1.750016,0.45497 l -1.097937,1.86928 c -0.167421,0.10409 -0.320892,0.17366 -0.446634,0.15672 -0.126241,-0.017 -0.258889,-0.11765 -0.393375,-0.26323 l -0.534145,-2.0542 c -0.175362,-0.67431 -0.859496,-1.07606 -1.533937,-0.90072 z"
         style="color:#000000;fill:url(#linearGradient31621);fill-opacity:1;fill-rule:evenodd;stroke:#888a85;stroke-width:0.47706422;stroke-miterlimit:4;stroke-dasharray:none;marker:none;visibility:visible;display:inline;overflow:visible;enable-background:accumulate"
         id="path3643" />
    </g>
  </g>
</svg>
