<?xml version="1.0" encoding="UTF-8" standalone="no"?>
<svg
   xmlns:i="http://ns.adobe.com/AdobeIllustrator/10.0/"
   xmlns:a="http://ns.adobe.com/AdobeSVGViewerExtensions/3.0/"
   xmlns:dc="http://purl.org/dc/elements/1.1/"
   xmlns:cc="http://creativecommons.org/ns#"
   xmlns:rdf="http://www.w3.org/1999/02/22-rdf-syntax-ns#"
   xmlns:svg="http://www.w3.org/2000/svg"
   xmlns="http://www.w3.org/2000/svg"
   xmlns:xlink="http://www.w3.org/1999/xlink"
   xmlns:sodipodi="http://sodipodi.sourceforge.net/DTD/sodipodi-0.dtd"
   xmlns:inkscape="http://www.inkscape.org/namespaces/inkscape"
   version="1.1"
   inkscape:output_extension="org.inkscape.output.svg.inkscape"
   sodipodi:docname="drop.svg"
   inkscape:version="1.0beta1 (fe3e306, 2019-09-17)"
   sodipodi:version="0.32"
   id="svg13189"
   height="48px"
   width="48px">
  <defs
     id="defs13191">
    <linearGradient
       id="linearGradient10066"
       inkscape:collect="always">
      <stop
         id="stop10062"
         offset="0"
         style="stop-color:#ffffff;stop-opacity:1;" />
      <stop
         id="stop10064"
         offset="1"
         style="stop-color:#ffffff;stop-opacity:0;" />
    </linearGradient>
    <linearGradient
       id="linearGradient10032"
       inkscape:collect="always">
      <stop
         id="stop10028"
         offset="0"
         style="stop-color:#b9b9b9;stop-opacity:1" />
      <stop
         id="stop10030"
         offset="1"
         style="stop-color:#babdb6;stop-opacity:0;" />
    </linearGradient>
    <linearGradient
       id="linearGradient10018"
       inkscape:collect="always">
      <stop
         id="stop10014"
         offset="0"
         style="stop-color:#2e3436;stop-opacity:1;" />
      <stop
         id="stop10016"
         offset="1"
         style="stop-color:#2e3436;stop-opacity:0;" />
    </linearGradient>
    <linearGradient
       gradientTransform="translate(-1.2229317,-166.333)"
       id="XMLID_50_"
       gradientUnits="userSpaceOnUse"
       x1="24.903299"
       y1="193.2476"
       x2="24.903299"
       y2="176.9976">
      <stop
         offset="0"
         style="stop-color:#A0C6DE"
         id="stop11493" />
      <stop
         offset="1"
         style="stop-color:#FFFFFF"
         id="stop11495" />
      <a:midPointStop
         offset="0"
         style="stop-color:#A0C6DE" />
      <a:midPointStop
         offset="0.5"
         style="stop-color:#A0C6DE" />
      <a:midPointStop
         offset="1"
         style="stop-color:#FFFFFF" />
    </linearGradient>
    <linearGradient
       id="XMLID_51_"
       gradientUnits="userSpaceOnUse"
       x1="24.976601"
       y1="176.7476"
       x2="24.976601"
       y2="198.7476">
      <stop
         offset="0"
         style="stop-color:#FFFFFF"
         id="stop11502" />
      <stop
         offset="1"
         style="stop-color:#B7D0DC"
         id="stop11504" />
      <a:midPointStop
         offset="0"
         style="stop-color:#FFFFFF" />
      <a:midPointStop
         offset="0.5"
         style="stop-color:#FFFFFF" />
      <a:midPointStop
         offset="1"
         style="stop-color:#B7D0DC" />
    </linearGradient>
    <radialGradient
       id="XMLID_54_"
       cx="670.00537"
       cy="276.13571"
       r="16.009701"
       fx="670.00537"
       fy="276.13571"
       gradientTransform="matrix(-0.70861649,0,0,0.70861649,496.23048,-159.2688)"
       gradientUnits="userSpaceOnUse">
      <stop
         offset="0.0056"
         style="stop-color:#F5F7FB"
         id="stop11549" />
      <stop
         offset="0.62360001"
         style="stop-color:#797979;stop-opacity:1;"
         id="stop11551" />
      <stop
         offset="0.85960001"
         style="stop-color:#565656;stop-opacity:1;"
         id="stop11553" />
      <stop
         offset="1"
         style="stop-color:#6c6c6c;stop-opacity:1;"
         id="stop11555" />
      <a:midPointStop
         offset="0.0056"
         style="stop-color:#F5F7FB" />
      <a:midPointStop
         offset="0.5"
         style="stop-color:#F5F7FB" />
      <a:midPointStop
         offset="0.6236"
         style="stop-color:#3A80B8" />
      <a:midPointStop
         offset="0.5"
         style="stop-color:#3A80B8" />
      <a:midPointStop
         offset="0.8596"
         style="stop-color:#244A87" />
      <a:midPointStop
         offset="0.5"
         style="stop-color:#244A87" />
      <a:midPointStop
         offset="1"
         style="stop-color:#326BA5" />
    </radialGradient>
    <radialGradient
       id="XMLID_55_"
       cx="19.1152"
       cy="168.05029"
       r="20.010799"
       fx="19.1152"
       fy="168.05029"
       gradientUnits="userSpaceOnUse">
      <stop
         offset="0"
         style="stop-color:#FEF3DC"
         id="stop11566" />
      <stop
         offset="0.1243"
         style="stop-color:#FDF0D4"
         id="stop11568" />
      <stop
         offset="0.3045"
         style="stop-color:#FDE7BE"
         id="stop11570" />
      <stop
         offset="0.5187"
         style="stop-color:#FCD99C"
         id="stop11572" />
      <stop
         offset="0.759"
         style="stop-color:#FBC56F"
         id="stop11574" />
      <stop
         offset="1"
         style="stop-color:#FAAF3E"
         id="stop11576" />
      <a:midPointStop
         offset="0"
         style="stop-color:#FEF3DC" />
      <a:midPointStop
         offset="0.6271"
         style="stop-color:#FEF3DC" />
      <a:midPointStop
         offset="1"
         style="stop-color:#FAAF3E" />
    </radialGradient>
    <linearGradient
       gradientTransform="translate(0.14285714)"
       gradientUnits="userSpaceOnUse"
       y2="22.357143"
       x2="14.928572"
       y1="39"
       x1="14.928572"
       id="linearGradient10020"
       xlink:href="#linearGradient10018"
       inkscape:collect="always" />
    <linearGradient
       gradientTransform="matrix(1,0,0,1.2639485,16.285714,-10.293992)"
       y2="22.357143"
       x2="14.928572"
       y1="39"
       x1="14.928572"
       gradientUnits="userSpaceOnUse"
       id="linearGradient10024"
       xlink:href="#linearGradient10018"
       inkscape:collect="always" />
    <linearGradient
       gradientTransform="matrix(1,0,0,1.478903,0,-18.779839)"
       gradientUnits="userSpaceOnUse"
       y2="22.5"
       x2="23.357143"
       y1="37.083961"
       x1="23.321428"
       id="linearGradient10034"
       xlink:href="#linearGradient10032"
       inkscape:collect="always" />
    <linearGradient
       gradientTransform="translate(0,1.4285714)"
       gradientUnits="userSpaceOnUse"
       y2="24.428572"
       x2="21.75"
       y1="40.57143"
       x1="21.857143"
       id="linearGradient10068"
       xlink:href="#linearGradient10066"
       inkscape:collect="always" />
  </defs>
  <sodipodi:namedview
     inkscape:snap-global="false"
     inkscape:document-rotation="0"
     inkscape:window-maximized="1"
     inkscape:window-y="-8"
     inkscape:window-x="-8"
     inkscape:window-height="1557"
     inkscape:window-width="2880"
     inkscape:document-units="px"
     inkscape:grid-bbox="true"
     showgrid="true"
     inkscape:current-layer="layer1"
     inkscape:cy="34.476191"
     inkscape:cx="22.392857"
     inkscape:zoom="28"
     inkscape:pageshadow="2"
     inkscape:pageopacity="0.0"
     borderopacity="1.0"
     bordercolor="#666666"
     pagecolor="#ffffff"
     id="base" />
  <metadata
     id="metadata13194">
    <rdf:RDF>
      <cc:Work
         rdf:about="">
        <dc:format>image/svg+xml</dc:format>
        <dc:type
           rdf:resource="http://purl.org/dc/dcmitype/StillImage" />
        <dc:title />
      </cc:Work>
    </rdf:RDF>
  </metadata>
  <g
     inkscape:groupmode="layer"
     inkscape:label="Layer 1"
     id="layer1">
    <rect
       y="14.178572"
       x="15.714286"
       height="25.035713"
       width="15.642858"
       id="rect10026"
       style="color:#000000;overflow:visible;fill:url(#linearGradient10034);fill-opacity:1;stroke:none;stroke-width:0.500001;stroke-linecap:round" />
    <path
       inkscape:connector-curvature="0"
       style="fill:none;stroke:#2e3436;stroke-width:0.799998;stroke-opacity:0.112903"
       d="m 16.919497,18.153571 c 0,-3.688473 2.990098,-6.678572 6.678571,-6.678572 3.688473,0 6.678572,2.990099 6.678572,6.678572"
       id="path10098" />
    <circle
       style="fill:none;stroke:#2e3436;stroke-width:0.799998;stroke-opacity:0.26209676"
       id="circle10087"
       r="8.1428576"
       cy="34.207142"
       cx="23.598068"
       i:knockout="Off" />
    <path
       inkscape:connector-curvature="0"
       id="path10096"
       d="m 16.27664,26.725 c 0,-4.043514 3.277914,-7.32143 7.321428,-7.32143 4.043514,0 7.321429,3.277916 7.321429,7.32143"
       style="fill:none;stroke:#2e3436;stroke-width:0.799998;stroke-opacity:0.14112903" />
    <g
       i:knockout="Off"
       id="g11559"
       transform="translate(-1.2229317,-166.333)">
      <path
         i:knockout="Off"
         d="M 18.316,184.236 C 18.026,185.414 17.031,186.638 16.325,186.52 C 14.557,186.225 15.186,185.194 15.245,184.458 C 15.366,182.941 15.721,182.155 16.196,180.862 C 16.764,179.319 17.637,177.652 17.688,177.192 C 17.504,177.478 16.275,180.236 16.137,180.469 C 15.318,181.851 15.321,184.942 14.039,184.773 C 12.117,184.52 13.28,182.851 13.381,180.981 C 13.432,180.061 13.7,179.282 14.048,178.623 L 14.121,178.489 C 13.47,179.529 13.381,180.981 12.601,181.913 C 11.795,182.874 11.4,180.643 11.643,179.484 C 12.036,177.619 12.402,175.93 13.87,174.053 C 15.234,172.308 17.969,170.617 18.634,170.132 C 19.299,169.645 19.85,169.151 20.118,168.724 C 21.897,165.898 28.579,166.535 29.779,170.214 C 29.998,170.881 30.23,171.337 30.58,171.768 C 31.245,172.587 31.949,173.101 33.01,174.095 C 33.608,174.658 34.18,174.997 35.031,175.478 C 35.426,175.701 36.77,176.293 36.77,177.166 C 36.77,178.189 35.564,178.674 34.238,178.367 C 32.91,178.061 31.593,177.345 29.66,177.198 C 28.226,177.088 27.181,176.859 25.406,178.865 C 24.734,179.624 22.879,181.949 22.088,183.714 C 21.047,186.033 21.052,187.909 19.901,188.422 C 18.918,188.86 17.93,188.034 18.048,186.313 C 18.102,185.527 18.194,184.833 18.324,184.186 L 18.316,184.236 z "
         id="path11561"
         style="fill:#ffffff" />
    </g>
    <g
       i:knockout="Off"
       id="g11563"
       style="opacity:0.5"
       transform="translate(-1.2229317,-166.333)">
      <radialGradient
         id="radialGradient13228"
         cx="19.1152"
         cy="168.05029"
         r="20.010799"
         fx="19.1152"
         fy="168.05029"
         gradientUnits="userSpaceOnUse">
        <stop
           offset="0"
           style="stop-color:#FEF3DC"
           id="stop13230" />
        <stop
           offset="0.1243"
           style="stop-color:#FDF0D4"
           id="stop13232" />
        <stop
           offset="0.3045"
           style="stop-color:#FDE7BE"
           id="stop13234" />
        <stop
           offset="0.5187"
           style="stop-color:#FCD99C"
           id="stop13236" />
        <stop
           offset="0.759"
           style="stop-color:#FBC56F"
           id="stop13238" />
        <stop
           offset="1"
           style="stop-color:#FAAF3E"
           id="stop13240" />
        <a:midPointStop
           offset="0"
           style="stop-color:#FEF3DC" />
        <a:midPointStop
           offset="0.6271"
           style="stop-color:#FEF3DC" />
        <a:midPointStop
           offset="1"
           style="stop-color:#FAAF3E" />
      </radialGradient>
      <path
         i:knockout="Off"
         d="M 18.316,184.236 C 18.026,185.414 17.031,186.638 16.325,186.52 C 14.557,186.225 15.186,185.194 15.245,184.458 C 15.366,182.941 15.721,182.155 16.196,180.862 C 16.764,179.319 17.637,177.652 17.688,177.192 C 17.504,177.478 16.275,180.236 16.137,180.469 C 15.318,181.851 15.321,184.942 14.039,184.773 C 12.117,184.52 13.28,182.851 13.381,180.981 C 13.432,180.061 13.7,179.282 14.048,178.623 L 14.121,178.489 C 13.47,179.529 13.381,180.981 12.601,181.913 C 11.795,182.874 11.4,180.643 11.643,179.484 C 12.036,177.619 12.402,175.93 13.87,174.053 C 15.234,172.308 17.969,170.617 18.634,170.132 C 19.299,169.645 19.85,169.151 20.118,168.724 C 21.897,165.898 28.579,166.535 29.779,170.214 C 29.998,170.881 30.23,171.337 30.58,171.768 C 31.245,172.587 31.949,173.101 33.01,174.095 C 33.608,174.658 34.18,174.997 35.031,175.478 C 35.426,175.701 36.77,176.293 36.77,177.166 C 36.77,178.189 35.564,178.674 34.238,178.367 C 32.91,178.061 31.593,177.345 29.66,177.198 C 28.226,177.088 27.181,176.859 25.406,178.865 C 24.734,179.624 22.879,181.949 22.088,183.714 C 21.047,186.033 21.052,187.909 19.901,188.422 C 18.918,188.86 17.93,188.034 18.048,186.313 C 18.102,185.527 18.194,184.833 18.324,184.186 L 18.316,184.236 z "
         id="path11578"
         style="fill:url(#XMLID_55_)" />
    </g>
    <g
       i:knockout="Off"
       id="g11580"
       transform="translate(-1.2229317,-166.333)">
      <path
         i:knockout="Off"
         d="M 17.688,177.193 C 17.637,177.653 16.764,179.32 16.196,180.863 C 15.72,182.156 15.366,182.942 15.245,184.459 C 15.186,185.194 14.557,186.226 16.325,186.521 C 17.031,186.639 18.026,185.415 18.316,184.237"
         id="path11582"
         style="fill:none;stroke:#7f4612;stroke-width:0.69999999" />
      <path
         i:knockout="Off"
         d="M 14.122,178.49 C 13.471,179.53 13.382,180.982 12.602,181.914 C 11.796,182.875 11.401,180.644 11.644,179.485 C 12.037,177.62 12.403,175.931 13.871,174.054 C 15.235,172.309 17.97,170.618 18.635,170.133 C 19.3,169.646 19.851,169.152 20.119,168.725 C 21.898,165.899 28.58,166.536 29.78,170.215 C 29.999,170.882 30.231,171.338 30.581,171.769 C 31.246,172.588 31.95,173.102 33.011,174.096 C 33.609,174.659 34.181,174.998 35.032,175.479 C 35.427,175.702 36.771,176.294 36.771,177.167 C 36.771,178.19 35.565,178.675 34.239,178.368 C 32.911,178.062 31.594,177.346 29.661,177.199 C 28.227,177.089 27.182,176.86 25.407,178.866 C 24.735,179.625 22.88,181.95 22.089,183.715 C 21.048,186.034 21.053,187.91 19.902,188.423 C 18.919,188.861 17.931,188.035 18.049,186.314 C 18.18,184.409 18.535,183.044 19.112,181.587 C 19.385,180.894 20.553,178.638 20.553,178.638"
         id="path11584"
         style="fill:none;stroke:#7f4612;stroke-width:0.69999999" />
      <path
         i:knockout="Off"
         d="M 15.971,175.882 C 15.767,176.65 13.535,178.151 13.382,180.982 C 13.281,182.852 12.118,184.521 14.04,184.774 C 15.321,184.943 15.318,181.852 16.138,180.47 C 16.276,180.237 17.505,177.479 17.689,177.193"
         id="path11586"
         style="fill:none;stroke:#7f4612;stroke-width:0.69999999" />
    </g>
    <rect
       y="22.357143"
       x="15.071429"
       height="16.642857"
       width="0.85714287"
       id="rect10012"
       style="color:#000000;overflow:visible;fill:url(#linearGradient10020);fill-opacity:1;stroke-width:0.5;stroke-linecap:round" />
    <rect
       style="color:#000000;overflow:visible;fill:url(#linearGradient10024);fill-opacity:1;stroke-width:0.5;stroke-linecap:round"
       id="rect10022"
       width="0.85714287"
       height="21.035713"
       x="31.214287"
       y="17.964287" />
    <circle
       i:knockout="Off"
       cx="23.598068"
       cy="39.599998"
       r="8.1428576"
       id="circle11557"
       style="fill:url(#XMLID_54_);stroke:#2e3436;stroke-width:0.799998" />
    <path
       sodipodi:nodetypes="ccccc"
       inkscape:connector-curvature="0"
       d="m 20.571428,25.749999 h 2.357143 v 10.964286 c -0.632812,0.764511 -1.346348,1.125401 -2.357143,0 z"
       style="color:#000000;overflow:visible;fill:url(#linearGradient10068);fill-opacity:1;stroke:none;stroke-width:0.5;stroke-linecap:round"
       id="rect10036" />
  </g>
</svg>
