<svg xmlns="http://www.w3.org/2000/svg" xmlns:xlink="http://www.w3.org/1999/xlink" viewBox="0 0 48 48"><defs><style>.cls-1{fill:url(#radial-gradient);}.cls-2{fill:url(#linear-gradient);}.cls-3{fill:#8fdaf7;opacity:0.3;}.cls-4{fill:url(#linear-gradient-2);}.cls-5{fill:url(#linear-gradient-3);}.cls-13,.cls-21,.cls-22,.cls-23,.cls-24,.cls-26,.cls-31,.cls-40,.cls-6,.cls-7{fill:none;}.cls-7{stroke:#3465a4;}.cls-25,.cls-26,.cls-28,.cls-31,.cls-35,.cls-37,.cls-38,.cls-39,.cls-40,.cls-7{stroke-linecap:round;stroke-linejoin:round;}.cls-13,.cls-21,.cls-22,.cls-23,.cls-24,.cls-7{stroke-width:0.7px;}.cls-8{fill:#204a87;}.cls-9{fill:url(#linear-gradient-4);}.cls-10{fill:url(#New_Gradient_Swatch_4);}.cls-11{fill:#73d216;}.cls-12{fill:url(#New_Gradient_Swatch_4-2);}.cls-13,.cls-39,.cls-40{stroke:#888a85;}.cls-13{stroke-linejoin:bevel;}.cls-14{fill:#888a85;}.cls-15{fill:#555753;}.cls-16{fill:url(#linear-gradient-5);}.cls-17{fill:url(#linear-gradient-6);}.cls-18{fill:#babdb6;}.cls-19{fill:url(#linear-gradient-7);}.cls-20{fill:url(#New_Gradient_Swatch_4-3);}.cls-21,.cls-22,.cls-23,.cls-24{stroke:#73d216;stroke-miterlimit:10;}.cls-22{stroke-dasharray:1.37 1.03;}.cls-23{stroke-dasharray:1.77 0.88;}.cls-24{stroke-dasharray:2.08 1.56;}.cls-25,.cls-29{fill:#755076;}.cls-25,.cls-28,.cls-31{stroke:#5c3566;}.cls-25,.cls-26,.cls-28,.cls-31,.cls-35,.cls-37,.cls-38,.cls-39,.cls-40{stroke-width:0.35px;}.cls-26{stroke:#caadc7;}.cls-27,.cls-28{fill:#ad7fa8;}.cls-30{fill:url(#linear-gradient-8);}.cls-32{fill:url(#linear-gradient-9);}.cls-33{fill:url(#linear-gradient-10);}.cls-34{fill:#729fcf;}.cls-35,.cls-36,.cls-39{fill:#2e3436;}.cls-35{stroke:#2e3436;}.cls-37{fill:#eeeeec;stroke:#555753;}.cls-38{fill:#3465a4;stroke:#204a87;}</style><radialGradient id="radial-gradient" cx="11.42" cy="37.87" r="20.34" gradientTransform="translate(11.31 20.35) scale(1.11 0.46)" gradientUnits="userSpaceOnUse"><stop offset="0.03" stop-color="#2c2c2c" stop-opacity="0.5"/><stop offset="0.68" stop-color="#2c2c2c" stop-opacity="0.1"/><stop offset="0.93" stop-color="#2c2c2c" stop-opacity="0"/></radialGradient><linearGradient id="linear-gradient" x1="11.93" y1="24.69" x2="16.46" y2="49.78" gradientUnits="userSpaceOnUse"><stop offset="0" stop-color="#b2cbe5"/><stop offset="1" stop-color="#3465a4"/></linearGradient><linearGradient id="linear-gradient-2" x1="26" y1="24.76" x2="41.31" y2="7.69" xlink:href="#linear-gradient"/><linearGradient id="linear-gradient-3" x1="13.84" y1="31.1" x2="27.71" y2="-8.97" xlink:href="#linear-gradient"/><linearGradient id="linear-gradient-4" x1="42.78" y1="33.42" x2="20.4" y2="33.42" gradientUnits="userSpaceOnUse"><stop offset="0" stop-color="#00255d" stop-opacity="0"/><stop offset="1" stop-color="#00255d"/></linearGradient><linearGradient id="New_Gradient_Swatch_4" x1="25.22" y1="25.81" x2="41.36" y2="25.81" gradientUnits="userSpaceOnUse"><stop offset="0" stop-color="#c2ef96"/><stop offset="1" stop-color="#8ae234"/></linearGradient><linearGradient id="New_Gradient_Swatch_4-2" x1="18.62" y1="30.89" x2="27.85" y2="30.89" xlink:href="#New_Gradient_Swatch_4"/><linearGradient id="linear-gradient-5" x1="6.47" y1="14.26" x2="21.18" y2="14.26" gradientUnits="userSpaceOnUse"><stop offset="0" stop-color="#eeeeec"/><stop offset="1" stop-color="#d3d7cf"/><stop offset="1"/></linearGradient><linearGradient id="linear-gradient-6" x1="13.38" y1="16.3" x2="19.71" y2="26.43" xlink:href="#linear-gradient-5"/><linearGradient id="linear-gradient-7" x1="6.47" y1="16.94" x2="11.41" y2="16.94" xlink:href="#linear-gradient-5"/><linearGradient id="New_Gradient_Swatch_4-3" x1="6.47" y1="25.83" x2="21.18" y2="25.83" xlink:href="#New_Gradient_Swatch_4"/><linearGradient id="linear-gradient-8" x1="26.48" y1="10.22" x2="31.6" y2="4.09" gradientUnits="userSpaceOnUse"><stop offset="0" stop-color="#caadc7"/><stop offset="1" stop-color="#ad7fa8"/><stop offset="1" stop-color="#3465a4"/></linearGradient><linearGradient id="linear-gradient-9" x1="30.03" y1="10.37" x2="40.6" y2="10.37" xlink:href="#linear-gradient-8"/><linearGradient id="linear-gradient-10" x1="35.63" y1="17.86" x2="40.75" y2="11.73" xlink:href="#linear-gradient-8"/></defs><title>2-Layout</title><g id="shadow"><ellipse class="cls-1" cx="24" cy="37.85" rx="21.72" ry="9.07"/></g><g id="ART"><polygon class="cls-2" points="24 39.85 3.02 29.73 3.02 26.99 24 37.11 24 39.85"/><polygon class="cls-3" points="24 16.88 3.02 26.99 24 37.11 44.98 26.99 24 16.88"/><polygon class="cls-4" points="24 16.88 3.02 26.99 24 37.11 44.98 26.99 24 16.88"/><polygon class="cls-5" points="24 16.88 3.02 26.99 24 37.11 24 16.88"/><polygon class="cls-6" points="24 16.88 3.02 26.99 24 37.11 44.98 26.99 24 16.88"/><polygon class="cls-7" points="24 39.85 3.02 29.73 3.02 26.99 24 37.11 24 39.85"/><polygon class="cls-8" points="24 39.85 44.98 29.73 44.98 26.99 24 37.11 24 39.85"/><polygon class="cls-9" points="24 39.85 44.98 29.73 44.98 26.99 24 37.11 24 39.85"/><polygon class="cls-7" points="24 39.85 44.98 29.73 44.98 26.99 24 37.11 24 39.85"/><polygon class="cls-7" points="24 16.88 3.02 26.99 24 37.11 44.98 26.99 24 16.88"/><polygon class="cls-10" points="25.22 24.3 36.42 29.7 41.36 27.32 30.16 21.92 25.22 24.3"/><path class="cls-11" d="M30.16,22.31l10.39,5-4.13,2L26,24.3l4.14-2m0-.39L25.22,24.3l11.2,5.4,4.94-2.38-11.2-5.4Z"/><ellipse class="cls-12" cx="23.23" cy="30.89" rx="4.61" ry="2.54"/><path class="cls-11" d="M23.23,28.7c2.32,0,4.27,1,4.27,2.19s-1.95,2.19-4.27,2.19S19,32.07,19,30.89s2-2.19,4.26-2.19m0-.35c-2.54,0-4.61,1.14-4.61,2.54s2.07,2.54,4.61,2.54,4.62-1.14,4.62-2.54-2.07-2.54-4.62-2.54Z"/><polygon class="cls-13" points="15.67 11.44 16.25 16.67 16.83 11.44 16.25 11.37 15.67 11.44"/><polyline class="cls-14" points="16.25 11.37 16.25 16.67 15.67 11.44 16.25 11.37"/><polyline class="cls-15" points="16.25 11.37 16.25 16.67 16.83 11.44 16.25 11.37"/><polygon class="cls-13" points="20.55 14.06 21.18 19.05 21.18 19.05 21.18 13.75 20.55 14.06"/><polygon class="cls-15" points="20.55 14.06 21.18 19.05 21.18 19.05 21.18 13.75 20.55 14.06"/><polygon class="cls-13" points="6.47 21.38 6.49 21.38 7.12 16.39 6.47 16.08 6.47 21.38"/><polygon class="cls-13" points="10.78 18.15 11.41 23.76 12.05 18.15 11.41 18.46 10.78 18.15"/><polygon class="cls-14" points="7.12 16.39 6.49 21.38 6.47 21.38 6.47 21.38 6.47 16.08 7.12 16.39"/><polygon class="cls-14" points="21.18 13.09 21.18 13.75 11.41 18.46 6.47 16.08 16.25 11.37 16.25 10.71 21.18 13.09"/><polygon class="cls-16" points="21.18 13.09 11.41 17.8 6.47 15.42 16.25 10.71 21.18 13.09"/><polyline class="cls-14" points="11.41 18.46 11.41 23.76 10.78 18.15 11.41 18.46"/><polyline class="cls-15" points="11.41 18.46 11.41 23.76 12.05 18.15 11.41 18.46"/><polygon class="cls-17" points="11.41 17.8 6.47 15.42 16.25 10.71 11.41 17.8"/><path class="cls-18" d="M16.25,11.49l3.32,1.6L11.41,17,8.09,15.42l8.16-3.93m0-.78L6.47,15.42l4.94,2.38,9.77-4.71-4.93-2.38Z"/><polygon class="cls-19" points="11.41 18.46 6.47 16.08 6.47 15.42 11.41 17.8 11.41 18.46"/><path class="cls-14" d="M16.25,10.71l4.93,2.38v.66l-9.77,4.71L6.48,16.08v-.66l9.78-4.71m-.15-.31L6.32,15.11l-.2.31v.66l.19.32,4.94,2.38h.31l9.77-4.71.19-.32v-.66l-.19-.31L16.4,10.4Z"/><polygon class="cls-20" points="21.18 24.66 11.41 29.37 6.47 26.99 16.25 22.28 21.18 24.66"/><path class="cls-11" d="M16.25,22.67l4.13,2-9,4.33L7.28,27l9-4.32m0-.39L6.47,27l4.94,2.38,9.77-4.71-4.93-2.38Z"/><line class="cls-21" x1="21.18" y1="19.24" x2="21.18" y2="20.24"/><line class="cls-22" x1="21.18" y1="21.26" x2="21.18" y2="23.15"/><line class="cls-21" x1="21.18" y1="23.66" x2="21.18" y2="24.66"/><line class="cls-21" x1="16.25" y1="16.86" x2="16.25" y2="17.86"/><line class="cls-22" x1="16.25" y1="18.88" x2="16.25" y2="20.77"/><line class="cls-21" x1="16.25" y1="21.28" x2="16.25" y2="22.28"/><line class="cls-21" x1="6.47" y1="21.57" x2="6.47" y2="22.57"/><line class="cls-22" x1="6.47" y1="23.59" x2="6.47" y2="25.48"/><line class="cls-21" x1="6.47" y1="25.99" x2="6.47" y2="26.99"/><line class="cls-21" x1="11.41" y1="23.95" x2="11.41" y2="24.95"/><line class="cls-22" x1="11.41" y1="25.97" x2="11.41" y2="27.86"/><line class="cls-21" x1="11.41" y1="28.37" x2="11.41" y2="29.37"/><line class="cls-21" x1="36.42" y1="18.85" x2="36.42" y2="19.85"/><line class="cls-23" x1="36.42" y1="20.74" x2="36.42" y2="28.26"/><line class="cls-21" x1="36.42" y1="28.7" x2="36.42" y2="29.7"/><line class="cls-21" x1="25.22" y1="13.49" x2="25.22" y2="14.49"/><line class="cls-24" x1="25.22" y1="16.05" x2="25.22" y2="22.56"/><line class="cls-21" x1="25.22" y1="23.34" x2="25.22" y2="24.34"/><line class="cls-21" x1="30.16" y1="11.07" x2="30.16" y2="12.07"/><line class="cls-23" x1="30.16" y1="12.96" x2="30.16" y2="20.48"/><line class="cls-21" x1="30.16" y1="20.92" x2="30.16" y2="21.92"/><line class="cls-21" x1="41.36" y1="16.47" x2="41.36" y2="17.47"/><line class="cls-23" x1="41.36" y1="18.36" x2="41.36" y2="25.88"/><line class="cls-21" x1="41.36" y1="26.32" x2="41.36" y2="27.32"/><polygon class="cls-25" points="25.93 10.47 25.93 13.84 30.88 11.46 30.86 8.09 25.93 10.47"/><line class="cls-26" x1="30.82" y1="14.91" x2="30.82" y2="14"/><polyline class="cls-25" points="40.65 13.97 41.29 11.26 40.6 11.08 39.81 14.37"/><polygon class="cls-25" points="35.7 17.9 25.93 13.19 25.93 11.64 35.7 16.35 35.7 17.9"/><polygon class="cls-27" points="30.86 9.26 25.93 11.64 25.93 11.64 25.93 12.53 35.7 17.24 35.7 16.35 40.65 13.97 30.86 9.26"/><line class="cls-26" x1="30.82" y1="14" x2="35.76" y2="11.62"/><line class="cls-26" x1="25.93" y1="11.64" x2="35.7" y2="16.35"/><line class="cls-26" x1="30.82" y1="14.75" x2="30.82" y2="14.15"/><line class="cls-28" x1="25.93" y1="13.84" x2="25.93" y2="10.4"/><polygon class="cls-29" points="30.88 7.82 29.56 7.19 24.63 9.57 25.93 10.2 25.93 11.64 30.88 9.26 30.86 7.82 30.88 7.82"/><polygon class="cls-30" points="24.63 9.57 25.93 10.2 30.88 7.82 29.56 7.19 24.63 9.57"/><polygon class="cls-31" points="30.88 7.82 29.56 7.19 24.63 9.57 25.93 10.2 25.93 11.64 30.88 9.26 30.86 7.82 30.88 7.82"/><polygon class="cls-28" points="24.63 9.57 24.63 10.45 25.22 10.73 25.22 13.49 25.93 13.84 25.93 11.07 25.93 10.2 24.63 9.57"/><polygon class="cls-25" points="36.42 15.53 36.42 18.89 41.36 16.51 41.35 13.15 36.42 15.53"/><polyline class="cls-28" points="30.86 9.26 31.51 6.55 30.82 6.37 30.03 9.66"/><polygon class="cls-32" points="30.03 9.67 39.81 14.37 40.6 11.08 30.82 6.37 30.03 9.67"/><polygon class="cls-31" points="30.03 9.67 39.81 14.37 40.6 11.08 30.82 6.37 30.03 9.67"/><polygon class="cls-28" points="37.01 15.54 35.7 14.91 35.7 15.78 35.7 18.55 36.42 18.89 36.42 16.13 37.01 16.41 37.01 15.54"/><polygon class="cls-28" points="41.29 11.26 31.51 6.55 30.82 6.37 40.6 11.08 41.29 11.26"/><polyline class="cls-31" points="35.7 16.35 35.7 17.24 25.93 12.53 25.93 11.64"/><polygon class="cls-33" points="35.7 14.91 37.01 15.54 41.95 13.16 40.63 12.53 35.7 14.91"/><polygon class="cls-29" points="41.95 13.16 41.95 14.03 37.01 16.41 37.01 15.54 41.95 13.16"/><polygon class="cls-31" points="40.63 12.53 35.7 14.91 37.01 15.54 37.01 16.41 41.95 14.03 41.95 13.16 40.63 12.53"/><path class="cls-34" d="M25,26.67,24,26.22V25l2.16,1a1.47,1.47,0,0,1-.24.35,3.23,3.23,0,0,1-.61.33A2.17,2.17,0,0,1,25,26.67Z"/><path class="cls-35" d="M25,26.67,24,26.22V25l2.16,1a1.47,1.47,0,0,1-.24.35,3.23,3.23,0,0,1-.61.33A2.17,2.17,0,0,1,25,26.67Z"/><path class="cls-36" d="M22.85,27.77a.59.59,0,0,0-.47.54v1.24a.24.24,0,0,0,.14.21,1.87,1.87,0,0,0,.83.23,1.82,1.82,0,0,0,.82-.23.24.24,0,0,0,.14-.21V28.31a.59.59,0,0,0-.47-.54"/><path class="cls-36" d="M22.84,27.77s-.48.1-.48.54v1.24a.24.24,0,0,0,.14.21,2,2,0,0,0,.85.23,1.92,1.92,0,0,0,.84-.23.24.24,0,0,0,.14-.21V28.31c0-.44-.48-.54-.48-.54"/><path class="cls-37" d="M22.83,28.11V24h1v4.13a.21.21,0,0,1-.12.17,1,1,0,0,1-.39.09,1.07,1.07,0,0,1-.4-.09A.21.21,0,0,1,22.83,28.11Z"/><path class="cls-38" d="M23,26.56a10.38,10.38,0,0,0,4.38-2.11.29.29,0,0,0-.06-.48l-3.55-1.71a1.14,1.14,0,0,0-1.2.15,10.55,10.55,0,0,1-3.74,1.83.32.32,0,0,0-.05.59l3.45,1.66A1.22,1.22,0,0,0,23,26.56Z"/><path class="cls-39" d="M23,26.56a10.38,10.38,0,0,0,4.38-2.11.29.29,0,0,0-.06-.48l-3.55-1.71a1.14,1.14,0,0,0-1.2.15,10.55,10.55,0,0,1-3.74,1.83.32.32,0,0,0-.05.59l3.45,1.66A1.22,1.22,0,0,0,23,26.56Z"/><path class="cls-15" d="M27.3,24a25.25,25.25,0,0,1-8.13.19,10.32,10.32,0,0,0,3.38-1.73,1.14,1.14,0,0,1,1.21-.16Z"/><path class="cls-40" d="M23,26.56a10.38,10.38,0,0,0,4.38-2.11.29.29,0,0,0-.06-.48l-3.55-1.71a1.14,1.14,0,0,0-1.2.15,10.55,10.55,0,0,1-3.74,1.83.32.32,0,0,0-.05.59l3.45,1.66A1.22,1.22,0,0,0,23,26.56Z"/><path class="cls-39" d="M27.16,17.9a.22.22,0,0,1-.08.2,9.19,9.19,0,0,1-3.7,1.78,1,1,0,0,1-.64-.06V22.6a1,1,0,0,0,.64.06,9.19,9.19,0,0,0,3.7-1.78.22.22,0,0,0,.08-.2Z"/><path class="cls-15" d="M27.16,17.93v.95a.23.23,0,0,1-.08.17,9.47,9.47,0,0,1-3.7,1.78,1,1,0,0,1-.64-.06v-.95a1,1,0,0,0,.64.06,9.19,9.19,0,0,0,3.7-1.78A.21.21,0,0,0,27.16,17.93Z"/><path class="cls-40" d="M27.16,17.9a.22.22,0,0,1-.08.2,9.19,9.19,0,0,1-3.7,1.78,1,1,0,0,1-.64-.06V22.6a1,1,0,0,0,.64.06,9.19,9.19,0,0,0,3.7-1.78.22.22,0,0,0,.08-.2Z"/><circle class="cls-36" cx="19.92" cy="31.79" r="0.52"/><circle class="cls-36" cx="26.78" cy="31.79" r="0.52"/><path class="cls-37" d="M19.85,30.38a13.86,13.86,0,0,1,3-1.66h0c.11,0,.16.08.16.23v.89l-3.14,1.27a.1.1,0,0,1-.14-.1v-.32A.38.38,0,0,1,19.85,30.38Z"/><path class="cls-37" d="M26.85,30.38a14.45,14.45,0,0,0-3-1.66h0c-.11,0-.16.08-.16.23v.89l3.15,1.27A.1.1,0,0,0,27,31v-.32A.4.4,0,0,0,26.85,30.38Z"/><path class="cls-37" d="M25.44,20.86V26c0,.62-.38.71-.49.68a2.45,2.45,0,0,0,.65,0,.72.72,0,0,0,.66-.69V20.46Z"/></g></svg>