<?xml version="1.0" encoding="UTF-8" standalone="no"?>
<svg
   xmlns:dc="http://purl.org/dc/elements/1.1/"
   xmlns:cc="http://creativecommons.org/ns#"
   xmlns:rdf="http://www.w3.org/1999/02/22-rdf-syntax-ns#"
   xmlns:svg="http://www.w3.org/2000/svg"
   xmlns="http://www.w3.org/2000/svg"
   xmlns:xlink="http://www.w3.org/1999/xlink"
   xmlns:sodipodi="http://sodipodi.sourceforge.net/DTD/sodipodi-0.dtd"
   xmlns:inkscape="http://www.inkscape.org/namespaces/inkscape"
   width="48px"
   height="48px"
   viewBox="0 0 48 48"
   version="1.1"
   id="svg28725"
   inkscape:version="0.48.5 r10040"
   sodipodi:docname="inline.svg">
  <path
     sodipodi:nodetypes="ccccc"
     inkscape:connector-curvature="0"
     id="path29483"
     d="M 26.015089,10.541319 C 25.192869,9.9278838 24.08128,10.685481 24.0184,11.694108 l 3.334254,5.739571 c 0.845391,0.591089 2.184678,-0.279835 1.996689,-1.152789 z"
     style="color:#000000;fill:#eeeeec;fill-opacity:1;fill-rule:nonzero;stroke:#2e3436;stroke-width:1;stroke-linecap:round;stroke-linejoin:miter;stroke-miterlimit:4;stroke-opacity:1;stroke-dashoffset:0;marker:none;visibility:visible;display:inline;overflow:visible;enable-background:accumulate" />
  <metadata
     id="metadata28744">
    <rdf:RDF>
      <cc:Work
         rdf:about="">
        <dc:format>image/svg+xml</dc:format>
        <dc:type
           rdf:resource="http://purl.org/dc/dcmitype/StillImage" />
        <dc:title>Artboard</dc:title>
      </cc:Work>
    </rdf:RDF>
  </metadata>
  <sodipodi:namedview
     pagecolor="#ffffff"
     bordercolor="#666666"
     borderopacity="1"
     objecttolerance="10"
     gridtolerance="10"
     guidetolerance="10"
     inkscape:pageopacity="0"
     inkscape:pageshadow="2"
     inkscape:window-width="2880"
     inkscape:window-height="1557"
     id="namedview28742"
     showgrid="false"
     inkscape:zoom="9.8333335"
     inkscape:cx="8.7293734"
     inkscape:cy="21.774363"
     inkscape:window-x="-8"
     inkscape:window-y="-8"
     inkscape:window-maximized="1"
     inkscape:current-layer="svg28725" />
  <!-- Generator: Sketch 49.3 (51167) - http://www.bohemiancoding.com/sketch -->
  <title
     id="title28727">Artboard</title>
  <desc
     id="desc28729">Created with Sketch.</desc>
  <defs
     id="defs28731">
    <linearGradient
       id="linearGradient8370">
      <stop
         style="stop-color:#f5f4ed;stop-opacity:1;"
         offset="0"
         id="stop8372" />
      <stop
         style="stop-color:#e3ddc8;stop-opacity:1;"
         offset="1"
         id="stop8374" />
    </linearGradient>
    <linearGradient
       id="linearGradient29419">
      <stop
         id="stop29421"
         offset="0"
         style="stop-color:#fffc87;stop-opacity:1;" />
      <stop
         style="stop-color:#ffffff;stop-opacity:1;"
         offset="0.34166911"
         id="stop29423" />
      <stop
         id="stop29425"
         offset="1"
         style="stop-color:#bea60c;stop-opacity:1;" />
    </linearGradient>
    <linearGradient
       id="linearGradient29403">
      <stop
         id="stop29405"
         offset="0"
         style="stop-color:#ffffff;stop-opacity:1;" />
      <stop
         id="stop29407"
         offset="1"
         style="stop-color:#ede5b1;stop-opacity:1;" />
    </linearGradient>
    <linearGradient
       id="linearGradient29395">
      <stop
         style="stop-color:#c4a000;stop-opacity:1;"
         offset="0"
         id="stop29397" />
      <stop
         style="stop-color:#7c6500;stop-opacity:1;"
         offset="1"
         id="stop29399" />
    </linearGradient>
    <linearGradient
       id="linearGradient29313">
      <stop
         style="stop-color:#ffffff;stop-opacity:1;"
         offset="0"
         id="stop29315" />
      <stop
         style="stop-color:#cfcfcf;stop-opacity:1;"
         offset="1"
         id="stop29317" />
    </linearGradient>
    <linearGradient
       id="linearGradient29301">
      <stop
         style="stop-color:#777777;stop-opacity:1;"
         offset="0"
         id="stop29303" />
      <stop
         style="stop-color:#373737;stop-opacity:1;"
         offset="1"
         id="stop29305" />
    </linearGradient>
    <linearGradient
       id="linearGradient29291">
      <stop
         style="stop-color:#c3c3c3;stop-opacity:1;"
         offset="0"
         id="stop29293" />
      <stop
         id="stop29299"
         offset="0.34166911"
         style="stop-color:#ffffff;stop-opacity:1;" />
      <stop
         style="stop-color:#7a7a7a;stop-opacity:1;"
         offset="1"
         id="stop29295" />
    </linearGradient>
    <linearGradient
       inkscape:collect="always"
       xlink:href="#linearGradient29291"
       id="linearGradient29297"
       x1="20.550848"
       y1="3.1853373"
       x2="26.788818"
       y2="9.794261"
       gradientUnits="userSpaceOnUse" />
    <linearGradient
       inkscape:collect="always"
       xlink:href="#linearGradient29301"
       id="linearGradient29307"
       x1="19.432203"
       y1="3.4106729"
       x2="27.347458"
       y2="10.177979"
       gradientUnits="userSpaceOnUse" />
    <linearGradient
       inkscape:collect="always"
       xlink:href="#linearGradient29301"
       id="linearGradient29309"
       x1="18.618645"
       y1="4.3281202"
       x2="26.1278"
       y2="11.247658"
       gradientUnits="userSpaceOnUse" />
    <radialGradient
       inkscape:collect="always"
       xlink:href="#linearGradient29313"
       id="radialGradient29319"
       cx="24.305084"
       cy="8.1691542"
       fx="24.305084"
       fy="8.1691542"
       r="5.5338984"
       gradientUnits="userSpaceOnUse"
       gradientTransform="matrix(1.2021438,0.14318666,0.05500878,1.3415656,-5.3624991,-6.2704662)" />
    <linearGradient
       inkscape:collect="always"
       xlink:href="#linearGradient29291"
       id="linearGradient29325"
       gradientUnits="userSpaceOnUse"
       x1="20.550848"
       y1="3.1853373"
       x2="26.788818"
       y2="9.794261" />
    <linearGradient
       inkscape:collect="always"
       xlink:href="#linearGradient29301"
       id="linearGradient29327"
       gradientUnits="userSpaceOnUse"
       x1="18.618645"
       y1="4.3281202"
       x2="26.1278"
       y2="11.247658" />
    <radialGradient
       inkscape:collect="always"
       xlink:href="#linearGradient29313"
       id="radialGradient29329"
       gradientUnits="userSpaceOnUse"
       gradientTransform="matrix(1.2021438,0.14318666,0.05500878,1.3415656,-5.3624991,-6.2704662)"
       cx="24.305084"
       cy="8.1691542"
       fx="24.305084"
       fy="8.1691542"
       r="5.5338984" />
    <linearGradient
       inkscape:collect="always"
       xlink:href="#linearGradient29301"
       id="linearGradient29331"
       gradientUnits="userSpaceOnUse"
       x1="19.432203"
       y1="3.4106729"
       x2="27.347458"
       y2="10.177979" />
    <linearGradient
       inkscape:collect="always"
       xlink:href="#linearGradient29291"
       id="linearGradient29339"
       gradientUnits="userSpaceOnUse"
       x1="20.550848"
       y1="3.1853373"
       x2="26.788818"
       y2="9.794261" />
    <linearGradient
       inkscape:collect="always"
       xlink:href="#linearGradient29301"
       id="linearGradient29341"
       gradientUnits="userSpaceOnUse"
       x1="18.618645"
       y1="4.3281202"
       x2="26.1278"
       y2="11.247658" />
    <radialGradient
       inkscape:collect="always"
       xlink:href="#linearGradient29313"
       id="radialGradient29343"
       gradientUnits="userSpaceOnUse"
       gradientTransform="matrix(1.2021438,0.14318666,0.05500878,1.3415656,-5.3624991,-6.2704662)"
       cx="24.305084"
       cy="8.1691542"
       fx="24.305084"
       fy="8.1691542"
       r="5.5338984" />
    <linearGradient
       inkscape:collect="always"
       xlink:href="#linearGradient29301"
       id="linearGradient29345"
       gradientUnits="userSpaceOnUse"
       x1="19.432203"
       y1="3.4106729"
       x2="27.347458"
       y2="10.177979" />
    <linearGradient
       inkscape:collect="always"
       xlink:href="#linearGradient29291"
       id="linearGradient29353"
       gradientUnits="userSpaceOnUse"
       x1="20.550848"
       y1="3.1853373"
       x2="26.788818"
       y2="9.794261" />
    <linearGradient
       inkscape:collect="always"
       xlink:href="#linearGradient29301"
       id="linearGradient29355"
       gradientUnits="userSpaceOnUse"
       x1="18.618645"
       y1="4.3281202"
       x2="26.1278"
       y2="11.247658" />
    <radialGradient
       inkscape:collect="always"
       xlink:href="#linearGradient29313"
       id="radialGradient29357"
       gradientUnits="userSpaceOnUse"
       gradientTransform="matrix(1.2021438,0.14318666,0.05500878,1.3415656,-5.3624991,-6.2704662)"
       cx="24.305084"
       cy="8.1691542"
       fx="24.305084"
       fy="8.1691542"
       r="5.5338984" />
    <linearGradient
       inkscape:collect="always"
       xlink:href="#linearGradient29301"
       id="linearGradient29359"
       gradientUnits="userSpaceOnUse"
       x1="19.432203"
       y1="3.4106729"
       x2="27.347458"
       y2="10.177979" />
    <linearGradient
       inkscape:collect="always"
       xlink:href="#linearGradient29291"
       id="linearGradient29367"
       gradientUnits="userSpaceOnUse"
       x1="20.550848"
       y1="3.1853373"
       x2="26.788818"
       y2="9.794261" />
    <linearGradient
       inkscape:collect="always"
       xlink:href="#linearGradient29301"
       id="linearGradient29369"
       gradientUnits="userSpaceOnUse"
       x1="18.618645"
       y1="4.3281202"
       x2="26.1278"
       y2="11.247658" />
    <radialGradient
       inkscape:collect="always"
       xlink:href="#linearGradient29313"
       id="radialGradient29371"
       gradientUnits="userSpaceOnUse"
       gradientTransform="matrix(1.2021438,0.14318666,0.05500878,1.3415656,-5.3624991,-6.2704662)"
       cx="24.305084"
       cy="8.1691542"
       fx="24.305084"
       fy="8.1691542"
       r="5.5338984" />
    <linearGradient
       inkscape:collect="always"
       xlink:href="#linearGradient29301"
       id="linearGradient29373"
       gradientUnits="userSpaceOnUse"
       x1="19.432203"
       y1="3.4106729"
       x2="27.347458"
       y2="10.177979" />
    <linearGradient
       inkscape:collect="always"
       xlink:href="#linearGradient29291"
       id="linearGradient29381"
       gradientUnits="userSpaceOnUse"
       x1="20.550848"
       y1="3.1853373"
       x2="26.788818"
       y2="9.794261" />
    <linearGradient
       inkscape:collect="always"
       xlink:href="#linearGradient29301"
       id="linearGradient29383"
       gradientUnits="userSpaceOnUse"
       x1="18.618645"
       y1="4.3281202"
       x2="26.1278"
       y2="11.247658" />
    <radialGradient
       inkscape:collect="always"
       xlink:href="#linearGradient29313"
       id="radialGradient29385"
       gradientUnits="userSpaceOnUse"
       gradientTransform="matrix(1.2021438,0.14318666,0.05500878,1.3415656,-5.3624991,-6.2704662)"
       cx="24.305084"
       cy="8.1691542"
       fx="24.305084"
       fy="8.1691542"
       r="5.5338984" />
    <linearGradient
       inkscape:collect="always"
       xlink:href="#linearGradient29301"
       id="linearGradient29387"
       gradientUnits="userSpaceOnUse"
       x1="19.432203"
       y1="3.4106729"
       x2="27.347458"
       y2="10.177979" />
    <linearGradient
       inkscape:collect="always"
       xlink:href="#linearGradient29419"
       id="linearGradient29391"
       gradientUnits="userSpaceOnUse"
       x1="20.550848"
       y1="3.1853373"
       x2="26.788818"
       y2="9.794261"
       gradientTransform="matrix(1,0.27565084,0,1,12.661017,9.7412985)" />
    <linearGradient
       inkscape:collect="always"
       xlink:href="#linearGradient29395"
       id="linearGradient29401"
       x1="19.177965"
       y1="3.2773638"
       x2="28.669492"
       y2="6.9661016"
       gradientUnits="userSpaceOnUse" />
    <radialGradient
       inkscape:collect="always"
       xlink:href="#linearGradient29403"
       id="radialGradient29409"
       gradientUnits="userSpaceOnUse"
       gradientTransform="matrix(1.2021438,0.14318666,0.05500878,1.3415656,-5.3624991,-6.2704662)"
       cx="24.305084"
       cy="8.1691542"
       fx="24.305084"
       fy="8.1691542"
       r="5.5338984" />
    <linearGradient
       inkscape:collect="always"
       xlink:href="#linearGradient29395"
       id="linearGradient29417"
       x1="31.940678"
       y1="18.408895"
       x2="38.99221"
       y2="28.069912"
       gradientUnits="userSpaceOnUse" />
    <radialGradient
       inkscape:collect="always"
       xlink:href="#linearGradient8370"
       id="radialGradient8405"
       cx="30.96875"
       cy="30.203125"
       fx="30.96875"
       fy="30.203125"
       r="16.90625"
       gradientTransform="matrix(1,0,0,1.0341959,0,-1.0328241)"
       gradientUnits="userSpaceOnUse" />
  </defs>
  <g
     transform="translate(-16.660518,15.421672)"
     id="g29333">
    <path
       transform="matrix(1,0.27565084,0,1,3.4576271,-7.9027695)"
       style="color:#000000;fill:url(#linearGradient29339);fill-opacity:1;fill-rule:nonzero;stroke:url(#linearGradient29341);stroke-width:1;stroke-linecap:round;stroke-linejoin:miter;stroke-miterlimit:4;stroke-opacity:1;stroke-dashoffset:0;marker:none;visibility:visible;display:inline;overflow:visible;enable-background:accumulate"
       d="M 27.572331,9.4660266 25.062686,12.272572 17.186441,6.0489007 19.336004,3.663979 c 2.404375,-2.3380436 5.541625,-1.947897 7.352787,-0.2149792 1.706405,1.6326867 2.201415,4.5010245 0.88354,6.0170268 z"
       id="path29335"
       inkscape:connector-curvature="0"
       sodipodi:nodetypes="ccccsc" />
    <path
       sodipodi:type="arc"
       style="color:#000000;fill:url(#radialGradient29343);fill-opacity:1;fill-rule:nonzero;stroke:url(#linearGradient29345);stroke-width:1;stroke-linecap:round;stroke-linejoin:miter;stroke-miterlimit:4;stroke-opacity:1;stroke-dasharray:none;stroke-dashoffset:0;marker:none;visibility:visible;display:inline;overflow:visible;enable-background:accumulate"
       id="path29337"
       sodipodi:cx="23.135593"
       sodipodi:cy="6.9661016"
       sodipodi:rx="5.0338984"
       sodipodi:ry="5.0338984"
       d="M 28.169492,6.9661016 C 28.169492,9.7462469 25.915739,12 23.135593,12 20.355448,12 18.101695,9.7462469 18.101695,6.9661016 c 0,-2.7801452 2.253753,-5.0338983 5.033898,-5.0338983 2.780146,0 5.033899,2.2537531 5.033899,5.0338983 z"
       transform="matrix(1,0.27565084,0,1,1.2711864,-6.1231085)" />
  </g>
  <path
     sodipodi:nodetypes="ccccc"
     inkscape:connector-curvature="0"
     id="path29479"
     d="m 20.280867,8.2991381 1.63029,1.63029 -8.852061,9.1062979 c -0.96957,0.352144 -2.03781,-0.835736 -1.63029,-1.63029 z"
     style="color:#000000;fill:#eeeeec;fill-opacity:1;fill-rule:nonzero;stroke:#555753;stroke-width:1;stroke-linecap:round;stroke-linejoin:miter;stroke-miterlimit:4;stroke-opacity:1;stroke-dashoffset:0;marker:none;visibility:visible;display:inline;overflow:visible;enable-background:accumulate" />
  <g
     id="g29321"
     transform="translate(-1.9147553,0.21828271)">
    <path
       sodipodi:nodetypes="ccccsc"
       inkscape:connector-curvature="0"
       id="path29288"
       d="M 27.572331,9.4660266 25.062686,12.272572 17.186441,6.0489007 19.336004,3.663979 c 2.404375,-2.3380436 5.541625,-1.947897 7.352787,-0.2149792 1.706405,1.6326867 2.201415,4.5010245 0.88354,6.0170268 z"
       style="color:#000000;fill:url(#linearGradient29325);fill-opacity:1;fill-rule:nonzero;stroke:url(#linearGradient29327);stroke-width:1;stroke-linecap:round;stroke-linejoin:miter;stroke-miterlimit:4;stroke-opacity:1;stroke-dashoffset:0;marker:none;visibility:visible;display:inline;overflow:visible;enable-background:accumulate"
       transform="matrix(1,0.27565084,0,1,3.4576271,-7.9027695)" />
    <path
       transform="matrix(1,0.27565084,0,1,1.2711864,-6.1231085)"
       d="M 28.169492,6.9661016 C 28.169492,9.7462469 25.915739,12 23.135593,12 20.355448,12 18.101695,9.7462469 18.101695,6.9661016 c 0,-2.7801452 2.253753,-5.0338983 5.033898,-5.0338983 2.780146,0 5.033899,2.2537531 5.033899,5.0338983 z"
       sodipodi:ry="5.0338984"
       sodipodi:rx="5.0338984"
       sodipodi:cy="6.9661016"
       sodipodi:cx="23.135593"
       id="path29286"
       style="color:#000000;fill:url(#radialGradient29329);fill-opacity:1;fill-rule:nonzero;stroke:url(#linearGradient29331);stroke-width:1;stroke-linecap:round;stroke-linejoin:miter;stroke-miterlimit:4;stroke-opacity:1;stroke-dasharray:none;stroke-dashoffset:0;marker:none;visibility:visible;display:inline;overflow:visible;enable-background:accumulate"
       sodipodi:type="arc" />
  </g>
  <path
     sodipodi:type="arc"
     style="color:#000000;fill:#ffffff;fill-opacity:1;fill-rule:nonzero;stroke:none;stroke-width:1;marker:none;visibility:visible;display:inline;overflow:visible;enable-background:accumulate"
     id="path29485"
     sodipodi:cx="28.627119"
     sodipodi:cy="16.29661"
     sodipodi:rx="1.1186441"
     sodipodi:ry="0.48305085"
     d="m 29.745763,16.29661 a 1.1186441,0.48305085 0 1 1 -2.237288,0 1.1186441,0.48305085 0 1 1 2.237288,0 z"
     transform="matrix(0.61029028,-0.37311617,0.37311617,0.61029028,4.8215005,17.057614)" />
  <path
     style="fill:url(#radialGradient8405);stroke:#756c41;stroke-width:1px;stroke-linecap:butt;stroke-linejoin:miter;stroke-opacity:1;fill-opacity:1"
     d="M 29.125 13.21875 C 25.216388 23.50258 20.551947 29.829927 14.5625 36.53125 L 15.5 37.09375 C 15.881307 36.539399 16.431992 36.08867 17.0625 35.90625 C 18.201973 35.576575 19.132305 36.237691 19.125 37.375 C 19.121664 37.894444 18.914008 38.420737 18.59375 38.875 L 19.75 39.5625 C 20.131361 38.995345 20.702796 38.529192 21.34375 38.34375 C 22.483223 38.014075 23.413555 38.675191 23.40625 39.8125 C 23.402826 40.345613 23.179113 40.8817 22.84375 41.34375 L 24.15625 42.09375 C 24.537188 41.553416 25.099709 41.116602 25.71875 40.9375 C 26.858223 40.607825 27.788555 41.268941 27.78125 42.40625 C 27.777914 42.925694 27.570258 43.451987 27.25 43.90625 L 28.53125 44.65625 C 28.911833 44.062141 29.462133 43.566782 30.125 43.375 C 31.264473 43.045325 32.194805 43.706441 32.1875 44.84375 C 32.183933 45.399136 31.954244 45.963496 31.59375 46.4375 L 32.875 47.1875 C 38.966133 40.039411 44.032804 31.258065 47.375 20.71875 L 46.59375 20.40625 C 46.451149 20.807129 46.232275 21.179062 45.9375 21.46875 C 45.091457 22.300192 43.971391 22.160483 43.4375 21.15625 C 43.108376 20.537177 43.088943 19.750897 43.3125 19.03125 L 42.15625 18.5625 C 42.014728 18.983369 41.776215 19.385342 41.46875 19.6875 C 40.622707 20.518942 39.533891 20.379233 39 19.375 C 38.670876 18.755927 38.620193 17.938397 38.84375 17.21875 L 37.71875 16.75 C 37.577626 17.176263 37.342134 17.569481 37.03125 17.875 C 36.185207 18.706442 35.065141 18.566733 34.53125 17.5625 C 34.19334 16.926902 34.162858 16.109094 34.40625 15.375 L 33.25 14.90625 C 33.110801 15.352972 32.886349 15.775491 32.5625 16.09375 C 31.716457 16.925192 30.596391 16.785483 30.0625 15.78125 C 29.722633 15.14197 29.720849 14.299726 29.96875 13.5625 L 29.125 13.21875 z "
     id="path7568" />
  <path
     style="font-size:7.03890276000000000px;font-style:normal;font-variant:normal;font-weight:normal;font-stretch:normal;text-align:start;line-height:125%;letter-spacing:0px;word-spacing:0px;writing-mode:lr-tb;text-anchor:start;fill:#4c462a;fill-opacity:1;stroke:none;font-family:Sans;-inkscape-font-specification:Sans"
     inkscape:connector-curvature="0"
     id="path8385"
     d="m 28.476736,25.290876 0.279131,-0.498807 c -0.479044,0.235781 -0.945585,0.226632 -1.399626,-0.02745 -0.200377,-0.11213 -0.365957,-0.255174 -0.496743,-0.429131 -0.130788,-0.173958 -0.205776,-0.342584 -0.224964,-0.505877 -0.01919,-0.163294 0.0013,-0.338683 0.06141,-0.52617 0.03978,-0.126096 0.128247,-0.31172 0.265427,-0.556861 l 1.177357,-2.103943 0.575547,0.322073 -1.053896,1.883317 c -0.168196,0.300564 -0.269795,0.509631 -0.304791,0.627206 -0.04846,0.171625 -0.03822,0.333409 0.03071,0.485348 0.06893,0.151939 0.189726,0.27622 0.362392,0.372843 0.172662,0.09662 0.359419,0.143047 0.560273,0.139277 0.200849,-0.0038 0.375361,-0.06427 0.523537,-0.181491 0.14817,-0.117224 0.303373,-0.320788 0.465606,-0.610693 l 1.01811,-1.819367 0.575546,0.322073 -1.900233,3.395726 z" />
  <path
     style="font-size:7.03890276000000000px;font-style:normal;font-variant:normal;font-weight:normal;font-stretch:normal;text-align:start;line-height:125%;letter-spacing:0px;word-spacing:0px;writing-mode:lr-tb;text-anchor:start;fill:#4c462a;fill-opacity:1;stroke:none;font-family:Sans;-inkscape-font-specification:Sans"
     inkscape:connector-curvature="0"
     id="path8387"
     d="m 30.233407,24.942893 0.619252,0.228965 c -0.09566,0.245981 -0.104482,0.470578 -0.02645,0.673794 0.07802,0.203215 0.248133,0.378184 0.510327,0.524906 0.264324,0.147915 0.490556,0.203834 0.678697,0.167758 0.188136,-0.03608 0.322763,-0.126592 0.403881,-0.271544 0.07276,-0.130031 0.07353,-0.26396 0.0023,-0.40179 -0.05025,-0.0953 -0.209976,-0.270055 -0.47919,-0.524278 -0.362427,-0.342769 -0.603404,-0.598683 -0.722935,-0.767744 -0.119533,-0.169058 -0.182929,-0.345893 -0.190188,-0.530504 -0.0073,-0.184608 0.03563,-0.360048 0.128673,-0.526319 0.08469,-0.151345 0.197759,-0.272119 0.339212,-0.362316 0.141447,-0.09019 0.295711,-0.144526 0.462801,-0.162995 0.126502,-0.01598 0.279856,-0.0036 0.46005,0.03701 0.180188,0.04065 0.358747,0.110485 0.535678,0.209489 0.266453,0.149111 0.478931,0.318397 0.637433,0.507861 0.158493,0.189467 0.249025,0.376587 0.271593,0.561361 0.02256,0.184777 -0.0095,0.397084 -0.0961,0.636922 L 33.162746,24.70529 c 0.07223,-0.189109 0.0745,-0.366986 0.0068,-0.533634 -0.0677,-0.166644 -0.213463,-0.312592 -0.437284,-0.437845 -0.264328,-0.147913 -0.477432,-0.209782 -0.639315,-0.185609 -0.161888,0.02418 -0.275634,0.09489 -0.341239,0.212126 -0.04175,0.07461 -0.05588,0.154876 -0.04238,0.240804 0.0123,0.08806 0.05721,0.180376 0.134741,0.276941 0.04562,0.05352 0.187654,0.197386 0.426092,0.431582 0.346306,0.336553 0.580547,0.584498 0.702722,0.743838 0.122169,0.15934 0.192106,0.330738 0.209814,0.514194 0.0177,0.183454 -0.02832,0.373239 -0.13806,0.569352 -0.107361,0.191848 -0.264413,0.341193 -0.471154,0.448035 -0.206747,0.10684 -0.441582,0.147577 -0.704503,0.122211 -0.262925,-0.02537 -0.527615,-0.112605 -0.79407,-0.261712 -0.441253,-0.246923 -0.726229,-0.526759 -0.854926,-0.839506 -0.128698,-0.312748 -0.124225,-0.66714 0.01342,-1.063176 z" />
  <path
     style="font-size:7.03890276000000000px;font-style:normal;font-variant:normal;font-weight:normal;font-stretch:normal;text-align:start;line-height:125%;letter-spacing:0px;word-spacing:0px;writing-mode:lr-tb;text-anchor:start;fill:#4c462a;fill-opacity:1;stroke:none;font-family:Sans;-inkscape-font-specification:Sans"
     inkscape:connector-curvature="0"
     id="path8389"
     d="m 35.373705,29.15039 0.239766,-0.428462 c -0.403772,0.21632 -0.814559,0.207581 -1.232362,-0.02622 -0.27072,-0.151494 -0.477841,-0.365369 -0.621361,-0.641625 -0.143521,-0.276255 -0.20278,-0.583036 -0.177777,-0.920341 0.025,-0.337305 0.134722,-0.679687 0.32916,-1.027148 0.189664,-0.338931 0.418224,-0.61481 0.685679,-0.82764 0.267452,-0.212825 0.55531,-0.329559 0.863575,-0.350203 0.30826,-0.02064 0.602015,0.04718 0.881265,0.203438 0.204634,0.114517 0.362735,0.259673 0.474302,0.435467 0.111559,0.1758 0.178667,0.361009 0.201322,0.555629 l 0.941171,-1.681876 0.572349,0.320285 -2.623109,4.687509 z m -0.87104,-2.712776 c -0.243346,0.434859 -0.333592,0.811231 -0.270752,1.129112 0.06284,0.317883 0.218965,0.546607 0.46837,0.686173 0.251533,0.140757 0.522787,0.15749 0.813762,0.0502 0.29097,-0.107294 0.55455,-0.371974 0.790741,-0.794041 0.26004,-0.4647 0.361367,-0.855866 0.303987,-1.173496 -0.05739,-0.317628 -0.217181,-0.549803 -0.479371,-0.696527 -0.255802,-0.143142 -0.52795,-0.158276 -0.816446,-0.0454 -0.288502,0.112878 -0.558599,0.394206 -0.810291,0.843983 z" />
  <path
     style="font-size:7.03890276000000000px;font-style:normal;font-variant:normal;font-weight:normal;font-stretch:normal;text-align:start;line-height:125%;letter-spacing:0px;word-spacing:0px;writing-mode:lr-tb;text-anchor:start;fill:#4c462a;fill-opacity:1;stroke:none;font-family:Sans;-inkscape-font-specification:Sans"
     inkscape:connector-curvature="0"
     id="path8391"
     d="m 39.477586,28.87726 c 0.166521,0.08759 0.325034,0.118209 0.475539,0.09186 0.150502,-0.02634 0.28396,-0.103517 0.400377,-0.231518 0.116411,-0.127996 0.275292,-0.369389 0.476632,-0.724186 0.201347,-0.354786 0.338981,-0.585675 0.412829,-0.692712 0.119382,-0.16832 0.235606,-0.292225 0.34867,-0.371718 0.113062,-0.07948 0.22615,-0.130266 0.339277,-0.152342 0.113122,-0.02207 0.238908,-0.01676 0.37737,0.01593 0.09293,0.02402 0.231055,0.08732 0.414381,0.189898 l 0.179059,0.1002 -0.28092,0.502005 -0.09912,-0.05547 c -0.221696,-0.124055 -0.391146,-0.166394 -0.508351,-0.127018 -0.117216,0.03938 -0.253352,0.197631 -0.408422,0.474742 -0.312533,0.558496 -0.521673,0.904726 -0.627433,1.038683 -0.166004,0.20662 -0.329968,0.345798 -0.491879,0.417542 -0.161913,0.07175 -0.368833,0.100116 -0.620754,0.0851 0.179609,0.229273 0.265809,0.474152 0.258603,0.734639 -0.0072,0.260489 -0.139049,0.619885 -0.395513,1.078191 -0.23261,0.415672 -0.366701,0.665339 -0.402325,0.748974 -0.06406,0.154495 -0.07756,0.279904 -0.04049,0.376227 0.03707,0.09632 0.15686,0.201144 0.359369,0.314468 l 0.09912,0.05547 -0.28092,0.502005 -0.179059,-0.100201 c -0.208901,-0.116901 -0.350706,-0.218648 -0.425412,-0.305238 -0.108991,-0.125374 -0.177534,-0.267999 -0.205631,-0.427878 -0.0281,-0.159882 -0.0084,-0.331478 0.05924,-0.514788 0.06759,-0.183313 0.207677,-0.467413 0.420262,-0.852304 0.212583,-0.38489 0.342975,-0.66042 0.391178,-0.826591 0.0482,-0.166169 0.04446,-0.320814 -0.0112,-0.463935 -0.05567,-0.143119 -0.164384,-0.262736 -0.326134,-0.358851 z" />
  <path
     style="font-size:7.03890276000000000px;font-style:normal;font-variant:normal;font-weight:normal;font-stretch:normal;text-align:start;line-height:125%;letter-spacing:0px;word-spacing:0px;writing-mode:lr-tb;text-anchor:start;fill:#4c462a;fill-opacity:1;stroke:none;font-family:Sans;-inkscape-font-specification:Sans"
     inkscape:connector-curvature="0"
     id="path8393"
     d="m 24.335701,31.152765 -0.291655,0.52119 c -0.166535,-0.08757 -0.325336,-0.117676 -0.476435,-0.09026 -0.1511,0.02741 -0.284561,0.104585 -0.400376,0.231517 -0.115818,0.126935 -0.2744,0.367795 -0.475738,0.722589 -0.201349,0.354789 -0.338982,0.585678 -0.412829,0.692711 -0.120576,0.170455 -0.237099,0.294894 -0.349565,0.373318 -0.112467,0.07842 -0.22526,0.128669 -0.338381,0.150743 -0.113122,0.02207 -0.238912,0.01676 -0.377371,-0.01593 -0.09412,-0.02188 -0.232845,-0.08412 -0.416172,-0.186697 l -0.179059,-0.100201 0.28092,-0.502004 0.09912,0.05547 c 0.221691,0.124057 0.391141,0.166399 0.508351,0.127018 0.117202,-0.03938 0.253945,-0.198694 0.410211,-0.47794 0.298215,-0.532914 0.496877,-0.865413 0.595982,-0.997499 0.166513,-0.217528 0.340593,-0.36854 0.522239,-0.453038 0.181644,-0.0845 0.388327,-0.113695 0.62005,-0.0876 -0.179535,-0.254419 -0.265418,-0.506119 -0.257649,-0.7551 0.0078,-0.248978 0.139881,-0.60262 0.396349,-1.060927 0.232606,-0.415671 0.366272,-0.666975 0.400914,-0.753963 0.065,-0.151167 0.07867,-0.27438 0.041,-0.369642 -0.03767,-0.09526 -0.157756,-0.199547 -0.360263,-0.312869 l -0.09912,-0.05547 0.28092,-0.502006 0.179059,0.100201 c 0.2089,0.116905 0.350701,0.218656 0.425415,0.305239 0.110181,0.12324 0.179021,0.265336 0.206525,0.426278 0.02749,0.160949 0.0075,0.333079 -0.06013,0.516387 -0.06759,0.183315 -0.207677,0.467418 -0.420261,0.852304 -0.212577,0.384899 -0.342677,0.659893 -0.390282,0.824994 -0.04761,0.165106 -0.04357,0.319217 0.0121,0.462336 0.05567,0.143117 0.164379,0.262738 0.326134,0.358851 z" />
</svg>
