<?xml version="1.0" encoding="UTF-8" standalone="no"?>
<svg
   xmlns:i="http://ns.adobe.com/AdobeIllustrator/10.0/"
   xmlns:a="http://ns.adobe.com/AdobeSVGViewerExtensions/3.0/"
   xmlns:dc="http://purl.org/dc/elements/1.1/"
   xmlns:cc="http://creativecommons.org/ns#"
   xmlns:rdf="http://www.w3.org/1999/02/22-rdf-syntax-ns#"
   xmlns:svg="http://www.w3.org/2000/svg"
   xmlns="http://www.w3.org/2000/svg"
   xmlns:sodipodi="http://sodipodi.sourceforge.net/DTD/sodipodi-0.dtd"
   xmlns:inkscape="http://www.inkscape.org/namespaces/inkscape"
   width="48px"
   height="48px"
   viewBox="0 0 48 48"
   version="1.1"
   id="svg28725"
   inkscape:version="0.92.4 (5da689c313, 2019-01-14)"
   sodipodi:docname="layerreplace.svg">
  <metadata
     id="metadata28744">
    <rdf:RDF>
      <cc:Work
         rdf:about="">
        <dc:format>image/svg+xml</dc:format>
        <dc:type
           rdf:resource="http://purl.org/dc/dcmitype/StillImage" />
        <dc:title>Artboard</dc:title>
      </cc:Work>
    </rdf:RDF>
  </metadata>
  <sodipodi:namedview
     pagecolor="#ffffff"
     bordercolor="#666666"
     borderopacity="1"
     objecttolerance="10"
     gridtolerance="10"
     guidetolerance="10"
     inkscape:pageopacity="0"
     inkscape:pageshadow="2"
     inkscape:window-width="2880"
     inkscape:window-height="1557"
     id="namedview28742"
     showgrid="false"
     inkscape:zoom="9.8333335"
     inkscape:cx="15.915254"
     inkscape:cy="10.367331"
     inkscape:window-x="-8"
     inkscape:window-y="-8"
     inkscape:window-maximized="1"
     inkscape:current-layer="svg28725"
     inkscape:snap-global="false" />
  <!-- Generator: Sketch 49.3 (51167) - http://www.bohemiancoding.com/sketch -->
  <title
     id="title28727">Artboard</title>
  <desc
     id="desc28729">Created with Sketch.</desc>
  <defs
     id="defs28731">
    <linearGradient
       y2="362.53271"
       x2="275.6748"
       y1="380.28271"
       x1="245.9248"
       gradientUnits="userSpaceOnUse"
       id="XMLID_104_">
      <stop
         id="stop4730"
         style="stop-color:#FFFFFF"
         offset="0" />
      <stop
         id="stop4732"
         style="stop-color:#DBE2E6"
         offset="0.5281" />
      <stop
         id="stop4734"
         style="stop-color:#B3BDCA"
         offset="1" />
      <a:midPointStop
         style="stop-color:#FFFFFF"
         offset="0" />
      <a:midPointStop
         style="stop-color:#FFFFFF"
         offset="0.5" />
      <a:midPointStop
         style="stop-color:#DBE2E6"
         offset="0.5281" />
      <a:midPointStop
         style="stop-color:#DBE2E6"
         offset="0.5" />
      <a:midPointStop
         style="stop-color:#B3BDCA"
         offset="1" />
    </linearGradient>
    <linearGradient
       y2="373.31009"
       x2="280.7959"
       y1="373.31009"
       x1="237.08791"
       gradientUnits="userSpaceOnUse"
       id="XMLID_103_">
      <stop
         id="stop4719"
         style="stop-color:#FFFFFF"
         offset="0.0056" />
      <stop
         id="stop4721"
         style="stop-color:#C3CBD4"
         offset="0.4213" />
      <stop
         id="stop4723"
         style="stop-color:#A1A8B2"
         offset="1" />
      <a:midPointStop
         style="stop-color:#FFFFFF"
         offset="0.0056" />
      <a:midPointStop
         style="stop-color:#FFFFFF"
         offset="0.5" />
      <a:midPointStop
         style="stop-color:#C3CBD4"
         offset="0.4213" />
      <a:midPointStop
         style="stop-color:#C3CBD4"
         offset="0.5" />
      <a:midPointStop
         style="stop-color:#A1A8B2"
         offset="1" />
    </linearGradient>
    <linearGradient
       y2="372.91461"
       x2="275.67581"
       y1="390.66461"
       x1="245.9258"
       gradientUnits="userSpaceOnUse"
       id="XMLID_102_">
      <stop
         id="stop4708"
         style="stop-color:#FFFFFF"
         offset="0" />
      <stop
         id="stop4710"
         style="stop-color:#DBE2E6"
         offset="0.5281" />
      <stop
         id="stop4712"
         style="stop-color:#B3BDCA"
         offset="1" />
      <a:midPointStop
         style="stop-color:#FFFFFF"
         offset="0" />
      <a:midPointStop
         style="stop-color:#FFFFFF"
         offset="0.5" />
      <a:midPointStop
         style="stop-color:#DBE2E6"
         offset="0.5281" />
      <a:midPointStop
         style="stop-color:#DBE2E6"
         offset="0.5" />
      <a:midPointStop
         style="stop-color:#B3BDCA"
         offset="1" />
    </linearGradient>
    <linearGradient
       y2="383.69089"
       x2="280.7959"
       y1="383.69089"
       x1="237.08791"
       gradientUnits="userSpaceOnUse"
       id="XMLID_101_">
      <stop
         id="stop4697"
         style="stop-color:#FFFFFF"
         offset="0.0056" />
      <stop
         id="stop4699"
         style="stop-color:#C3CBD4"
         offset="0.4213" />
      <stop
         id="stop4701"
         style="stop-color:#A1A8B2"
         offset="1" />
      <a:midPointStop
         style="stop-color:#FFFFFF"
         offset="0.0056" />
      <a:midPointStop
         style="stop-color:#FFFFFF"
         offset="0.5" />
      <a:midPointStop
         style="stop-color:#C3CBD4"
         offset="0.4213" />
      <a:midPointStop
         style="stop-color:#C3CBD4"
         offset="0.5" />
      <a:midPointStop
         style="stop-color:#A1A8B2"
         offset="1" />
    </linearGradient>
  </defs>
  <g
     id="g3261"
     transform="translate(0,5.9583461)">
    <polygon
       i:knockout="Off"
       points="258.941,395.491 237.088,382.874 258.941,371.891 280.796,382.874 "
       id="polygon4703"
       style="fill:url(#XMLID_101_);stroke:#737b87;stroke-width:0.75311118"
       transform="matrix(1.0621,0,0,1.06242,-250.20877,-378.64208)" />
    <g
       i:knockout="Off"
       id="g4705"
       transform="matrix(1.0621,0,0,1.06242,-250.20877,-378.64208)">
      <linearGradient
         id="linearGradient8024"
         gradientUnits="userSpaceOnUse"
         x1="245.9258"
         y1="390.66461"
         x2="275.67581"
         y2="372.91461">
        <stop
           offset="0"
           style="stop-color:#FFFFFF"
           id="stop8026" />
        <stop
           offset="0.5281"
           style="stop-color:#DBE2E6"
           id="stop8028" />
        <stop
           offset="1"
           style="stop-color:#B3BDCA"
           id="stop8030" />
        <a:midPointStop
           offset="0"
           style="stop-color:#FFFFFF" />
        <a:midPointStop
           offset="0.5"
           style="stop-color:#FFFFFF" />
        <a:midPointStop
           offset="0.5281"
           style="stop-color:#DBE2E6" />
        <a:midPointStop
           offset="0.5"
           style="stop-color:#DBE2E6" />
        <a:midPointStop
           offset="1"
           style="stop-color:#B3BDCA" />
      </linearGradient>
      <path
         inkscape:connector-curvature="0"
         i:knockout="Off"
         d="m 237.93,382.898 21.012,12.131 21.012,-12.131 -21.012,-10.56 z m 21.011,-9.664 c 0.341,0.172 18.1,9.096 19.328,9.713 -1.147,0.662 -18.947,10.938 -19.328,11.158 -0.385,-0.223 -18.212,-10.515 -19.326,-11.158 1.228,-0.617 18.986,-9.541 19.326,-9.713 z"
         id="path4714"
         style="fill:url(#XMLID_102_)" />
    </g>
    <polygon
       i:knockout="Off"
       points="258.941,395.491 237.088,382.874 258.941,371.891 280.796,382.874 "
       id="polygon4716"
       style="fill:none;stroke:#31343a;stroke-width:0.75311118;stroke-opacity:1"
       transform="matrix(1.0621,0,0,1.06242,-250.20877,-378.64208)" />
    <path
       inkscape:connector-curvature="0"
       style="color:#000000;display:inline;overflow:visible;visibility:visible;fill:#000000;fill-opacity:0.59278349;fill-rule:nonzero;stroke:none;stroke-width:2;marker:none;enable-background:accumulate"
       d="m 26.236903,21.992761 c -1.686556,0.179075 -2.990393,1.155478 -3.03125,2.375 -0.0086,0.25632 0.06036,0.513443 0.15625,0.75 l -6.9375,1.15625 c -0.655971,-0.51722 -1.622851,-0.839332 -2.6875,-0.875 -2.034539,-0.06816 -3.703307,1.012511 -3.750001,2.40625 -0.04669,1.393739 1.559212,2.556838 3.593751,2.625 2.034539,0.06816 3.703306,-1.012511 3.75,-2.40625 0.0025,-0.07592 0.0071,-0.144212 0,-0.21875 l 7.5,-1.25 c 0.04051,0.0196 0.08335,0.04397 0.125,0.0625 l -0.09375,5.78125 c -1.715899,0.161948 -3.052406,1.14096 -3.09375,2.375 -0.04669,1.393739 1.559211,2.588088 3.59375,2.65625 2.034539,0.06816 3.734556,-1.012511 3.78125,-2.40625 0.03872,-1.155859 -1.087319,-2.149216 -2.625,-2.5 l 0.09375,-5.53125 c 0.06584,0.0046 0.1207,0.02901 0.1875,0.03125 2.034539,0.06816 3.734556,-1.012511 3.78125,-2.40625 0.04669,-1.393739 -1.559211,-2.556838 -3.59375,-2.625 -0.254317,-0.0085 -0.509063,-0.02558 -0.75,0 z"
       id="path101141" />
  </g>
  <path
     style="color:#000000;font-style:normal;font-variant:normal;font-weight:normal;font-stretch:normal;font-size:medium;line-height:normal;font-family:sans-serif;font-variant-ligatures:normal;font-variant-position:normal;font-variant-caps:normal;font-variant-numeric:normal;font-variant-alternates:normal;font-feature-settings:normal;text-indent:0;text-align:start;text-decoration:none;text-decoration-line:none;text-decoration-style:solid;text-decoration-color:#000000;letter-spacing:normal;word-spacing:normal;text-transform:none;writing-mode:lr-tb;direction:ltr;text-orientation:mixed;dominant-baseline:auto;baseline-shift:baseline;text-anchor:start;white-space:normal;shape-padding:0;clip-rule:nonzero;display:inline;overflow:visible;visibility:visible;opacity:1;isolation:auto;mix-blend-mode:normal;color-interpolation:sRGB;color-interpolation-filters:linearRGB;solid-color:#000000;solid-opacity:1;vector-effect:none;fill:#ff0606;fill-opacity:0.50724637;fill-rule:evenodd;stroke:none;stroke-width:5;stroke-linecap:butt;stroke-linejoin:miter;stroke-miterlimit:4;stroke-dasharray:none;stroke-dashoffset:0;stroke-opacity:1;color-rendering:auto;image-rendering:auto;shape-rendering:auto;text-rendering:auto;enable-background:accumulate"
     d="M 4.7070312 22.238281 L 2.6152344 26.779297 L 18.460938 34.072266 L 1.8222656 41.550781 L 3.8730469 46.111328 L 24.486328 36.84375 L 43.498047 45.59375 L 45.587891 41.050781 L 30.537109 34.125 L 46.177734 27.09375 L 44.126953 22.533203 L 24.509766 31.351562 L 4.7070312 22.238281 z "
     id="path3263" />
  <path
     style="fill:#fce94f;fill-rule:evenodd;stroke:#c4a000;stroke-width:1px;stroke-linecap:butt;stroke-linejoin:miter;stroke-opacity:1"
     d="m 20.015118,19.055626 v 8.421583 h -5.362994 l 10.725989,7.940348 10.969761,-8.120811 h -4.794191 v -8.000503 z"
     id="path3272"
     inkscape:connector-curvature="0" />
  <g
     id="g3250"
     transform="translate(0,17.38983)">
    <polygon
       i:knockout="Off"
       points="258.941,385.11 237.088,372.493 258.941,361.51 280.796,372.493 "
       id="polygon4725"
       style="fill:url(#XMLID_103_)"
       transform="matrix(1.0621,0,0,1.06242,-250.20877,-400.81157)" />
    <g
       i:knockout="Off"
       id="g4727"
       transform="matrix(1.0621,0,0,1.06242,-250.20877,-400.81157)">
      <linearGradient
         id="linearGradient8036"
         gradientUnits="userSpaceOnUse"
         x1="245.9248"
         y1="380.28271"
         x2="275.6748"
         y2="362.53271">
        <stop
           offset="0"
           style="stop-color:#FFFFFF"
           id="stop8038" />
        <stop
           offset="0.5281"
           style="stop-color:#DBE2E6"
           id="stop8040" />
        <stop
           offset="1"
           style="stop-color:#B3BDCA"
           id="stop8042" />
        <a:midPointStop
           offset="0"
           style="stop-color:#FFFFFF" />
        <a:midPointStop
           offset="0.5"
           style="stop-color:#FFFFFF" />
        <a:midPointStop
           offset="0.5281"
           style="stop-color:#DBE2E6" />
        <a:midPointStop
           offset="0.5"
           style="stop-color:#DBE2E6" />
        <a:midPointStop
           offset="1"
           style="stop-color:#B3BDCA" />
      </linearGradient>
      <path
         inkscape:connector-curvature="0"
         i:knockout="Off"
         d="m 237.93,372.517 21.012,12.131 21.012,-12.131 -21.012,-10.56 z m 21.011,-9.664 c 0.341,0.172 18.1,9.096 19.328,9.713 -1.147,0.662 -18.947,10.938 -19.328,11.158 -0.385,-0.223 -18.212,-10.515 -19.326,-11.158 1.228,-0.617 18.986,-9.541 19.326,-9.713 z"
         id="path4736"
         style="fill:url(#XMLID_104_)" />
    </g>
    <polygon
       i:knockout="Off"
       points="258.941,385.11 237.088,372.493 258.941,361.51 280.796,372.493 "
       id="polygon4738"
       style="fill:none;stroke:#31343a;stroke-width:0.75311118;stroke-opacity:1"
       transform="matrix(1.0621,0,0,1.06242,-250.20877,-400.81157)" />
    <path
       inkscape:connector-curvature="0"
       id="path100622"
       d="m 27.398578,-11.742977 c -1.686556,0.179075 -2.990393,1.155478 -3.03125,2.3749999 -0.0086,0.25632 0.06036,0.513443 0.15625,0.75 l -6.9375,1.15625 c -0.655971,-0.51722 -1.622851,-0.839332 -2.6875,-0.875 -2.034539,-0.06816 -3.703306,1.012511 -3.75,2.40625 -0.04669,1.393739 1.559211,2.556838 3.59375,2.625 2.034539,0.06816 3.703306,-1.012511 3.75,-2.40625 0.0025,-0.07592 0.0071,-0.144212 0,-0.21875 l 7.5,-1.25 c 0.04051,0.0196 0.08335,0.04397 0.125,0.0625 l -0.09375,5.78125 c -1.715899,0.161948 -3.052406,1.14095996 -3.09375,2.375 -0.04669,1.393739 1.559211,2.588088 3.59375,2.65625 2.034539,0.06816 3.734556,-1.012511 3.78125,-2.40625 0.03872,-1.15585904 -1.087319,-2.14921604 -2.625,-2.5 l 0.09375,-5.53125 c 0.06584,0.0046 0.1207,0.02901 0.1875,0.03125 2.034539,0.06816 3.734556,-1.012511 3.78125,-2.40625 0.04669,-1.3937389 -1.559211,-2.5568379 -3.59375,-2.6249999 -0.254317,-0.0085 -0.509063,-0.02558 -0.75,0 z"
       style="color:#000000;display:inline;overflow:visible;visibility:visible;fill:#000000;fill-opacity:0.59278349;fill-rule:nonzero;stroke:none;stroke-width:2;marker:none;enable-background:accumulate" />
  </g>
</svg>
