<?xml version="1.0" encoding="UTF-8" standalone="no"?>
<!-- Created with Inkscape (http://www.inkscape.org/) -->

<svg
   xmlns:ns="http://ns.adobe.com/AdobeIllustrator/10.0/"
   xmlns:a="http://ns.adobe.com/AdobeSVGViewerExtensions/3.0/"
   xmlns:dc="http://purl.org/dc/elements/1.1/"
   xmlns:cc="http://creativecommons.org/ns#"
   xmlns:rdf="http://www.w3.org/1999/02/22-rdf-syntax-ns#"
   xmlns:svg="http://www.w3.org/2000/svg"
   xmlns="http://www.w3.org/2000/svg"
   xmlns:xlink="http://www.w3.org/1999/xlink"
   xmlns:sodipodi="http://sodipodi.sourceforge.net/DTD/sodipodi-0.dtd"
   xmlns:inkscape="http://www.inkscape.org/namespaces/inkscape"
   width="48px"
   height="48px"
   id="svg27586"
   sodipodi:version="0.32"
   inkscape:version="0.92.4 (5da689c313, 2019-01-14)"
   sodipodi:docname="materiallinker.svg"
   version="1.1">
  <defs
     id="defs27588">
    <linearGradient
       id="linearGradient14083"
       inkscape:collect="always">
      <stop
         id="stop14079"
         offset="0"
         style="stop-color:#5b5b5b;stop-opacity:1" />
      <stop
         id="stop14081"
         offset="1"
         style="stop-color:#6d6b6a;stop-opacity:0;" />
    </linearGradient>
    <linearGradient
       inkscape:collect="always"
       id="linearGradient14071">
      <stop
         style="stop-color:#6d6b6a;stop-opacity:1;"
         offset="0"
         id="stop14067" />
      <stop
         style="stop-color:#6d6b6a;stop-opacity:0;"
         offset="1"
         id="stop14069" />
    </linearGradient>
    <radialGradient
       gradientTransform="translate(-827.574,-395.9514)"
       id="radialGradient14009"
       cx="828.90228"
       cy="402.77731"
       r="27.216801"
       fx="828.90228"
       fy="402.77731"
       gradientUnits="userSpaceOnUse">
      <stop
         offset="0"
         style="stop-color:#b7b0a9;stop-opacity:1"
         id="stop14005" />
      <stop
         offset="1"
         style="stop-color:#5a5a5a;stop-opacity:1"
         id="stop14007" />
      <a:midPointStop
         offset="0"
         style="stop-color:#EFEEEC" />
      <a:midPointStop
         offset="0.5"
         style="stop-color:#EFEEEC" />
      <a:midPointStop
         offset="1"
         style="stop-color:#000000" />
    </radialGradient>
    <linearGradient
       id="linearGradient42478">
      <stop
         style="stop-color:#ffa91d;stop-opacity:1;"
         offset="0"
         id="stop42480" />
      <stop
         style="stop-color:#f57900;stop-opacity:1;"
         offset="1"
         id="stop42482" />
    </linearGradient>
    <linearGradient
       inkscape:collect="always"
       id="linearGradient42470">
      <stop
         style="stop-color:#ff7100;stop-opacity:1"
         offset="0"
         id="stop42472" />
      <stop
         style="stop-color:#ca5000;stop-opacity:1"
         offset="1"
         id="stop42474" />
    </linearGradient>
    <linearGradient
       id="linearGradient42462">
      <stop
         style="stop-color:#fccb3e;stop-opacity:1"
         offset="0"
         id="stop42464" />
      <stop
         style="stop-color:#ff7307;stop-opacity:1;"
         offset="1"
         id="stop42466" />
    </linearGradient>
    <linearGradient
       inkscape:collect="always"
       xlink:href="#linearGradient42462"
       id="linearGradient42468"
       x1="828.85669"
       y1="401.40479"
       x2="866.5694"
       y2="405.7532"
       gradientUnits="userSpaceOnUse" />
    <linearGradient
       inkscape:collect="always"
       xlink:href="#linearGradient42470"
       id="linearGradient42476"
       x1="865.06635"
       y1="429.48993"
       x2="841.8703"
       y2="413.92255"
       gradientUnits="userSpaceOnUse" />
    <linearGradient
       inkscape:collect="always"
       xlink:href="#linearGradient42478"
       id="linearGradient42484"
       x1="842.04602"
       y1="438.10309"
       x2="828.73981"
       y2="403.05478"
       gradientUnits="userSpaceOnUse" />
    <linearGradient
       inkscape:collect="always"
       xlink:href="#radialGradient14009"
       id="linearGradient14003"
       x1="-46.690475"
       y1="18.333332"
       x2="-29.309525"
       y2="18.523808"
       gradientUnits="userSpaceOnUse"
       gradientTransform="matrix(0.5414039,0.94034008,-0.93903954,0.54365644,47.12788,65.599769)" />
    <linearGradient
       inkscape:collect="always"
       xlink:href="#radialGradient14009"
       id="linearGradient14048"
       gradientUnits="userSpaceOnUse"
       gradientTransform="matrix(0.5414039,0.94034008,-0.93903954,0.54365644,60.519983,65.867678)"
       x1="-46.690475"
       y1="18.333332"
       x2="-29.309525"
       y2="18.523808" />
    <linearGradient
       inkscape:collect="always"
       xlink:href="#linearGradient14071"
       id="linearGradient14073"
       x1="-34.228889"
       y1="13.469619"
       x2="-36.123024"
       y2="11.311653"
       gradientUnits="userSpaceOnUse"
       gradientTransform="matrix(1.0468316,0.28049769,-0.28117086,1.049344,59.468658,35.648734)" />
    <linearGradient
       inkscape:collect="always"
       xlink:href="#linearGradient14083"
       id="linearGradient14077"
       gradientUnits="userSpaceOnUse"
       x1="-34.228889"
       y1="13.469619"
       x2="-35.646832"
       y2="10.644986"
       gradientTransform="matrix(0.28117086,-1.049344,-1.0468316,-0.28049769,45.870634,11.564945)" />
    <linearGradient
       inkscape:collect="always"
       xlink:href="#linearGradient14071"
       id="linearGradient14089"
       gradientUnits="userSpaceOnUse"
       x1="-34.228889"
       y1="13.469619"
       x2="-36.123024"
       y2="11.597367"
       gradientTransform="matrix(-1.0468316,-0.28049769,0.28117086,-1.049344,-11.487774,36.202482)" />
    <linearGradient
       inkscape:collect="always"
       xlink:href="#linearGradient14083"
       id="linearGradient14091"
       gradientUnits="userSpaceOnUse"
       gradientTransform="matrix(-0.28117086,1.049344,1.0468316,0.28049769,2.1102497,60.286271)"
       x1="-34.228889"
       y1="13.469619"
       x2="-35.980167"
       y2="11.597367" />
  </defs>
  <sodipodi:namedview
     id="base"
     pagecolor="#ffffff"
     bordercolor="#666666"
     borderopacity="1.0"
     inkscape:pageopacity="0.0"
     inkscape:pageshadow="2"
     inkscape:zoom="14.849242"
     inkscape:cx="21.209861"
     inkscape:cy="5.9044218"
     inkscape:current-layer="layer1"
     showgrid="true"
     inkscape:grid-bbox="true"
     inkscape:document-units="px"
     inkscape:window-width="2880"
     inkscape:window-height="1557"
     inkscape:window-x="-8"
     inkscape:window-y="-8"
     inkscape:snap-global="false"
     inkscape:window-maximized="1" />
  <metadata
     id="metadata27591">
    <rdf:RDF>
      <cc:Work
         rdf:about="">
        <dc:format>image/svg+xml</dc:format>
        <dc:type
           rdf:resource="http://purl.org/dc/dcmitype/StillImage" />
        <dc:title></dc:title>
      </cc:Work>
    </rdf:RDF>
  </metadata>
  <g
     id="layer1"
     inkscape:label="Layer 1"
     inkscape:groupmode="layer">
    <g
       id="g14157"
       transform="matrix(0.81363773,0,0,0.81396095,4.5175364,0.14793891)"
       style="stroke-width:1.22880411">
      <polygon
         style="fill:url(#linearGradient42484);fill-opacity:1;stroke-width:1.50995958"
         id="polygon11038"
         points="842.046,439.093 830.052,424.667 828.074,401.63 841.15,413.243 "
         ns:knockout="Off"
         transform="matrix(1.095087,0,0,1.095087,-904.2655,-433.6081)" />
      <polygon
         style="fill:url(#linearGradient42468);fill-opacity:1;stroke-width:1.50995958"
         id="polygon11045"
         points="867.7,405.798 841.15,413.243 828.074,401.63 851.639,396.524 "
         ns:knockout="Off"
         transform="matrix(1.095087,0,0,1.095087,-904.2655,-433.6081)" />
      <polygon
         style="fill:url(#linearGradient42476);fill-opacity:1;stroke-width:1.50995958"
         id="polygon11058"
         points="865.418,429.954 842.046,439.093 841.15,413.243 867.7,405.798 "
         ns:knockout="Off"
         transform="matrix(1.095087,0,0,1.095087,-904.2655,-433.6081)" />
      <polygon
         style="fill:none;stroke:#192333;stroke-width:1.12210608"
         id="polygon11130"
         points="842.046,439.093 830.052,424.667 828.074,401.63 851.639,396.524 867.7,405.798 865.418,429.954 "
         ns:knockout="Off"
         transform="matrix(1.095087,0,0,1.095087,-904.2655,-433.6081)" />
      <path
         sodipodi:nodetypes="cc"
         id="path27580"
         d="M 3.5842391,7.0418421 17.109064,19.324397"
         style="fill:none;fill-opacity:0.75;fill-rule:evenodd;stroke:#ffffff;stroke-width:1.22880375px;stroke-linecap:round;stroke-linejoin:miter;stroke-opacity:0.61111109"
         inkscape:connector-curvature="0" />
      <path
         sodipodi:nodetypes="cc"
         id="path27582"
         d="M 17.168757,19.145306 44.91682,11.272789"
         style="fill:none;fill-opacity:0.75;fill-rule:evenodd;stroke:#ffffff;stroke-width:1.22880375px;stroke-linecap:round;stroke-linejoin:miter;stroke-opacity:0.61111109"
         inkscape:connector-curvature="0" />
      <path
         sodipodi:nodetypes="cc"
         id="path27584"
         d="m 17.228462,19.025909 0.850954,27.135903"
         style="fill:none;fill-opacity:0.75;fill-rule:evenodd;stroke:#ffffff;stroke-width:1.22880375px;stroke-linecap:round;stroke-linejoin:miter;stroke-opacity:0.61111109"
         inkscape:connector-curvature="0" />
      <path
         sodipodi:nodetypes="cscsscc"
         id="path42486"
         d="m 6,9 c -1,5 1,9 1,13 0,4 -0.7460317,6.984127 -0.7460317,7.984127 1.2063492,-1.47619 3.2857142,-4.333333 3.2063492,-6.555556 C 9.3368487,19.971441 8,16 8,15 8,14 8.9365079,11.873016 8.9365079,11.873016 Z"
         style="fill:#000000;fill-opacity:1;fill-rule:evenodd;stroke:none;stroke-width:1.22880411px;stroke-linecap:butt;stroke-linejoin:miter;stroke-opacity:1"
         inkscape:connector-curvature="0" />
      <path
         sodipodi:nodetypes="cccc"
         id="path42488"
         d="M 15.72,44.873016 C 15.413158,31.211759 13.954722,36.133757 15.148572,23 c -2.187561,9.416347 -3.184343,10.368226 -2.36508,18.111111 z"
         style="fill:#000000;fill-opacity:1;fill-rule:evenodd;stroke:none;stroke-width:1.22880411px;stroke-linecap:butt;stroke-linejoin:miter;stroke-opacity:1"
         inkscape:connector-curvature="0" />
      <path
         sodipodi:nodetypes="ccc"
         id="path42492"
         d="M 6.4285714,33.857143 C 8.047619,29.968254 9.7936508,28.460318 12.904762,23.873016 11.952381,27.984127 9.2698413,30.666667 10,37.52381"
         style="fill:#000000;fill-opacity:1;fill-rule:evenodd;stroke:none;stroke-width:1.22880411px;stroke-linecap:butt;stroke-linejoin:miter;stroke-opacity:1"
         inkscape:connector-curvature="0" />
      <path
         sodipodi:nodetypes="ccc"
         id="path42494"
         d="m 12.603175,15.460318 c -2,1.476191 2.539682,6.603174 -1.777779,9.031746 C 11.142857,19.619048 8.8730157,17.253968 10.428571,13"
         style="fill:#000000;fill-opacity:1;fill-rule:evenodd;stroke:none;stroke-width:1.22880411px;stroke-linecap:butt;stroke-linejoin:miter;stroke-opacity:1"
         inkscape:connector-curvature="0" />
      <path
         sodipodi:nodetypes="cccc"
         id="path42496"
         d="M 9.484839,4.548674 C 15.747992,7.8272746 15.502387,12.136917 21.32067,17.301587 12.308452,12.848906 15.443843,9.5398633 5.8174904,5.7196667 6.656576,5.3799414 8.6433689,5.1494722 9.484839,4.548674 Z"
         style="fill:#000000;fill-opacity:1;fill-rule:evenodd;stroke:none;stroke-width:1.22880411px;stroke-linecap:butt;stroke-linejoin:miter;stroke-opacity:1"
         inkscape:connector-curvature="0" />
      <path
         sodipodi:nodetypes="cccc"
         id="path42498"
         d="M 24.523127,16.943389 C 18.259974,13.664788 18.315103,9.16467 12.49682,4 c 9.012218,4.452681 6.067303,8.142676 15.693656,11.962872 -0.839086,0.339726 -2.952863,0.760671 -3.667349,0.980517 z"
         style="fill:#000000;fill-opacity:1;fill-rule:evenodd;stroke:none;stroke-width:1.22880411px;stroke-linecap:butt;stroke-linejoin:miter;stroke-opacity:1"
         inkscape:connector-curvature="0" />
      <path
         sodipodi:nodetypes="cccc"
         id="path42500"
         d="M 29.073926,15.365079 C 23.128234,10.181716 25.469076,9.3006459 19.52381,4.0089921 c 9.456662,6.8653789 5.622858,7.9522009 13.217465,10.1850939 -0.839086,0.339726 -2.762387,0.951148 -3.667349,1.170993 z"
         style="fill:#000000;fill-opacity:1;fill-rule:evenodd;stroke:none;stroke-width:1.22880411px;stroke-linecap:butt;stroke-linejoin:miter;stroke-opacity:1"
         inkscape:connector-curvature="0" />
      <path
         sodipodi:nodetypes="cccc"
         id="path42502"
         d="M 35.189794,13.689421 C 33.498069,8.6965342 26.251611,7.1170509 24.49682,1 c 3.805869,4.8971253 9.559367,7.3807715 14.296831,11.708904 -0.839086,0.339726 -2.762387,0.379719 -3.603857,0.980517 z"
         style="fill:#000000;fill-opacity:1;fill-rule:evenodd;stroke:none;stroke-width:1.22880411px;stroke-linecap:butt;stroke-linejoin:miter;stroke-opacity:1"
         inkscape:connector-curvature="0" />
      <path
         sodipodi:nodetypes="cccc"
         id="path42504"
         d="m 23.598299,2 c 4.548867,6.0722513 1.954056,4.6041152 8.089799,10.213229 C 22.231436,5.3478515 26.763652,6.7372203 19.994442,2.980517 20.833528,2.640791 22.693337,2.219845 23.598299,2 Z"
         style="fill:#000000;fill-opacity:1;fill-rule:evenodd;stroke:none;stroke-width:1.22880411px;stroke-linecap:butt;stroke-linejoin:miter;stroke-opacity:1"
         inkscape:connector-curvature="0" />
      <path
         sodipodi:nodetypes="cccc"
         id="path42506"
         d="m 16.910201,3 c 1.8822,1.8817751 3.795326,4.1596708 4.978688,7.16561 C 19.416354,7.3002325 17.345395,5.0705536 13.306344,3.980517 14.14543,3.640791 15.751271,3.0293688 16.910201,3 Z"
         style="fill:#000000;fill-opacity:1;fill-rule:evenodd;stroke:none;stroke-width:1.22880411px;stroke-linecap:butt;stroke-linejoin:miter;stroke-opacity:1"
         inkscape:connector-curvature="0" />
      <path
         sodipodi:nodetypes="cccc"
         id="path42508"
         d="M 4.9365079,8.1904762 C 4.3214286,7.7936508 3.202381,6.9285714 2.6825397,6.1904762 2.734127,8.9444444 3.3730158,16.674603 3.4285714,18.761905 5.5793651,16.595238 2.7579365,11.063492 4.9365079,8.1904762 Z"
         style="fill:#000000;fill-opacity:1;fill-rule:evenodd;stroke:none;stroke-width:1.22880411px;stroke-linecap:butt;stroke-linejoin:miter;stroke-opacity:1"
         inkscape:connector-curvature="0" />
      <path
         sodipodi:nodetypes="ccc"
         id="path42510"
         d="m 16.520175,18.904762 c -1.555555,1.476191 -1.015873,2.603174 -3.04762,6.111111 0.825398,-3.15873 -0.174603,-4.571429 0.555556,-8.507937"
         style="fill:#000000;fill-opacity:1;fill-rule:evenodd;stroke:none;stroke-width:1.22880411px;stroke-linecap:butt;stroke-linejoin:miter;stroke-opacity:1"
         inkscape:connector-curvature="0" />
      <path
         sodipodi:nodetypes="ccccc"
         id="path42512"
         d="M 24.444444,16.809524 C 28.793651,22.222222 22.857143,35.047619 25,44 c 1.444444,-0.507936 3.301587,-0.825397 4.52381,-2 -7.031747,-11.460317 1.347442,-17.560847 -1.446209,-26.084657 -1.333334,0.492064 -2.490299,0.592594 -3.633157,0.894181 z"
         style="fill:#000000;fill-opacity:1;fill-rule:evenodd;stroke:none;stroke-width:1.22880411px;stroke-linecap:butt;stroke-linejoin:miter;stroke-opacity:1"
         inkscape:connector-curvature="0" />
      <path
         sodipodi:nodetypes="cccc"
         id="path42514"
         d="m 22.617635,45.028265 c -2.246459,-9.221492 2.874071,-16.493574 0.467673,-26.901281 0.278659,14.501973 -6.968972,16.620556 -4.002903,28.267946 1.260009,-0.253218 2.565733,-0.914419 3.53523,-1.366665 z"
         style="fill:#000000;fill-opacity:1;fill-rule:evenodd;stroke:none;stroke-width:1.22880411px;stroke-linecap:butt;stroke-linejoin:miter;stroke-opacity:1"
         inkscape:connector-curvature="0" />
      <path
         sodipodi:nodetypes="ccc"
         id="path42516"
         d="M 19.561852,19.009383 C 20.089931,23.82842 17.193878,21.48934 17.603085,32.726206 19.479531,24.293032 20.164243,28.578238 22.18388,18"
         style="fill:#000000;fill-opacity:1;fill-rule:evenodd;stroke:none;stroke-width:1.22880411px;stroke-linecap:butt;stroke-linejoin:miter;stroke-opacity:1"
         inkscape:connector-curvature="0" />
      <path
         sodipodi:nodetypes="ccccc"
         id="path42518"
         d="m 26.047619,1.2539683 c 7.513937,6.0463089 14.025612,6.3698582 15.031745,10.6190467 1.142857,0.09524 4.428573,-0.936507 4.428573,-0.936507 L 28.507937,1 Z"
         style="fill:#000000;fill-opacity:1;fill-rule:evenodd;stroke:none;stroke-width:1.22880411px;stroke-linecap:butt;stroke-linejoin:miter;stroke-opacity:1"
         inkscape:connector-curvature="0" />
      <path
         sodipodi:nodetypes="ccccc"
         id="path42520"
         d="m 28.920634,15.063493 c 5.492064,8.460317 1e-6,16.84127 1.507937,26.936508 0.492063,-0.31746 2.15873,-0.571429 3.571429,-1.301588 -7.158731,-2.31746 1.784832,-15.606702 -1.262787,-26.54321 -1.333334,0.492064 -2.673721,0.606703 -3.816579,0.90829 z"
         style="fill:#000000;fill-opacity:1;fill-rule:evenodd;stroke:none;stroke-width:1.22880411px;stroke-linecap:butt;stroke-linejoin:miter;stroke-opacity:1"
         inkscape:connector-curvature="0" />
      <path
         sodipodi:nodetypes="ccccc"
         id="path42522"
         d="m 35.047618,13.412699 c 1.174604,4.841269 0.761905,18.809523 0.428572,27.380952 1.444444,-0.507936 2.031746,-1.269841 3.634921,-1.746032 -5.952382,-3.650793 0.380952,-23.444444 -0.253969,-26.380953 -1.333334,0.492064 -2.666666,0.444446 -3.809524,0.746033 z"
         style="fill:#000000;fill-opacity:1;fill-rule:evenodd;stroke:none;stroke-width:1.22880411px;stroke-linecap:butt;stroke-linejoin:miter;stroke-opacity:1"
         inkscape:connector-curvature="0" />
      <path
         sodipodi:nodetypes="ccccc"
         id="path42524"
         d="m 41.158729,11.888889 c 5.492064,2.873016 0.253969,13.603175 1.634921,25.031746 1.444444,-0.507936 0.571429,-0.190476 0.968255,-0.222222 0.333332,-3.015873 2.158729,-24.84127 2.158729,-26.000001 -1.333334,0.492064 -3.619047,0.88889 -4.761905,1.190477 z"
         style="fill:#000000;fill-opacity:1;fill-rule:evenodd;stroke:none;stroke-width:1.22880411px;stroke-linecap:butt;stroke-linejoin:miter;stroke-opacity:1"
         inkscape:connector-curvature="0" />
      <path
         sodipodi:nodetypes="cccc"
         id="path42526"
         d="M 41.593713,37.884196 C 43.279961,31.018859 39.505301,25.430624 40.498952,15.809524 36.223095,27.35417 42.366104,31.827941 38.22553,39.287531 39.035475,38.88322 40.586448,38.11754 41.593713,37.884196 Z"
         style="fill:#000000;fill-opacity:1;fill-rule:evenodd;stroke:none;stroke-width:1.22880411px;stroke-linecap:butt;stroke-linejoin:miter;stroke-opacity:1"
         inkscape:connector-curvature="0" />
    </g>
    <g
       id="g17453">
      <path
         inkscape:connector-curvature="0"
         id="rect13991"
         d="M 29.354094,28.723557 C 26.897461,24.456741 21.490986,23.00808 17.230071,25.474935 l -8.8548492,5.12651 C 4.1143072,33.0683 2.6621702,38.487749 5.1188034,42.754565 7.5754366,47.02138 12.98297,48.471879 17.243878,46.005043 l 8.854851,-5.12651 c 4.260914,-2.466854 5.711993,-7.888142 3.255341,-12.154963 z m -3.259128,1.88687 c 1.544091,2.681861 0.279028,6.293494 -2.835849,8.09685 l -6.472403,3.747195 C 13.671839,44.257827 9.9220217,43.549555 8.3779313,40.867694 6.8338417,38.185834 8.0970706,34.575263 11.211946,32.771907 l 6.472403,-3.747194 c 3.114877,-1.803356 6.866528,-1.096147 8.410617,1.585714 z"
         style="color:#000000;clip-rule:nonzero;display:inline;overflow:visible;visibility:visible;opacity:1;isolation:auto;mix-blend-mode:normal;color-interpolation:sRGB;color-interpolation-filters:linearRGB;solid-color:#000000;solid-opacity:1;fill:#d3d7cf;fill-opacity:1;fill-rule:nonzero;stroke:url(#linearGradient14003);stroke-width:0.99999994;stroke-linecap:butt;stroke-linejoin:bevel;stroke-miterlimit:4;stroke-dasharray:none;stroke-dashoffset:0;stroke-opacity:1;marker:none;color-rendering:auto;image-rendering:auto;shape-rendering:auto;text-rendering:auto;enable-background:accumulate" />
      <path
         d="m 20.732422,25.585938 c -0.981668,0.12388 -1.955172,0.440122 -2.875,0.972656 l -8.8554689,5.126953 c -3.6790903,2.130009 -4.9180974,6.759103 -2.796875,10.443359 2.1212162,3.684245 6.7335789,4.92264 10.4121099,2.792969 l 8.855468,-5.126953 c 3.678451,-2.129638 4.916139,-6.763044 2.794922,-10.447266 -1.59083,-2.763041 -4.590395,-4.13333 -7.535156,-3.761718 z m 1.292969,1.226562 c 2.119269,0.204761 4.068081,1.283836 5.15625,3.173828 1.934436,3.359834 0.320273,7.711673 -3.294922,9.804688 l -6.470703,3.748046 a 1.253251,1.253251 0 0 1 -0.002,0 C 13.798525,45.632276 9.2270436,44.851394 7.2929688,41.492188 5.3587617,38.132749 6.9705465,33.780629 10.585938,31.6875 l 6.470703,-3.746094 c 0.903929,-0.523329 1.859567,-0.869735 2.818359,-1.041015 0.718947,-0.128435 1.443968,-0.156145 2.150391,-0.08789 z"
         id="path14173"
         style="color:#000000;clip-rule:nonzero;display:inline;overflow:visible;visibility:visible;opacity:1;isolation:auto;mix-blend-mode:normal;color-interpolation:sRGB;color-interpolation-filters:linearRGB;solid-color:#000000;solid-opacity:1;fill:#ffffff;fill-opacity:1;fill-rule:nonzero;stroke:none;stroke-width:0.99999994;stroke-linecap:butt;stroke-linejoin:bevel;stroke-miterlimit:4;stroke-dasharray:none;stroke-dashoffset:0;stroke-opacity:1;marker:none;color-rendering:auto;image-rendering:auto;shape-rendering:auto;text-rendering:auto;enable-background:accumulate"
         inkscape:original="M 20.576172 24.341797 C 19.431739 24.486217 18.295697 24.857896 17.230469 25.474609 L 8.375 30.601562 C 4.1140854 33.068418 2.6625074 38.48709 5.1191406 42.753906 C 7.5757738 47.020721 12.983233 48.472695 17.244141 46.005859 L 26.099609 40.878906 C 30.360523 38.412052 31.810168 32.989477 29.353516 28.722656 C 27.511041 25.522544 24.009471 23.908535 20.576172 24.341797 z M 20.095703 28.134766 C 22.537323 27.69859 24.937636 28.599932 26.095703 30.611328 C 27.639794 33.293189 26.374643 36.903675 23.259766 38.707031 L 16.787109 42.455078 C 13.672234 44.258433 9.9229966 43.549048 8.3789062 40.867188 C 6.8348166 38.185327 8.0980152 34.57484 11.212891 32.771484 L 17.683594 29.025391 C 18.462313 28.574552 19.28183 28.280158 20.095703 28.134766 z "
         inkscape:radius="-1.2531257"
         sodipodi:type="inkscape:offset" />
      <path
         style="fill:url(#linearGradient14089);fill-opacity:1;fill-rule:evenodd;stroke:none;stroke-width:0.99999994px;stroke-linecap:butt;stroke-linejoin:miter;stroke-opacity:1"
         d="m 30.778847,30.598316 c 0.540843,1.987285 0.545008,3.965846 -0.117523,5.933568 L 25.791766,35.53005 c 0.36454,-0.944386 0.631303,-2.181864 0.510662,-2.892773 l 0.221974,-0.546443 3.46208,-2.064074 z"
         id="path14085"
         inkscape:connector-curvature="0"
         sodipodi:nodetypes="ccccccc" />
      <path
         sodipodi:nodetypes="ccccccc"
         inkscape:connector-curvature="0"
         id="path14087"
         d="M 28.083552,26.382971 C 26.637693,24.919644 24.93103,23.926743 22.900378,23.518238 l -1.569571,4.729764 c 0.997871,0.155619 2.199977,0.542696 2.753619,1.00292 l 0.582913,0.08045 3.513643,-1.974517 z"
         style="fill:url(#linearGradient14091);fill-opacity:1;fill-rule:evenodd;stroke:none;stroke-width:0.99999994px;stroke-linecap:butt;stroke-linejoin:miter;stroke-opacity:1" />
      <path
         id="path14044"
         d="m 37.360639,24.841761 c -2.191312,-0.587161 -4.608328,-0.33281 -6.738786,0.900617 l -8.855079,5.126643 c -3.686696,2.134411 -5.264691,6.478681 -4.033386,10.374775 l 3.424796,-1.953348 c -0.292497,-2.315834 1.005086,-4.838076 3.445593,-6.251006 l 6.473463,-3.746077 c 3.114876,-1.803356 6.86461,-1.096536 8.4087,1.585324 1.54409,2.681861 0.279099,6.293682 -2.835777,8.097038 l -6.471418,3.746624 c -2.206607,1.277514 -4.7289,1.288129 -6.562901,0.236033 l -3.545663,2.052759 c 2.775801,2.664896 7.058121,3.293613 10.565996,1.262743 l 8.855078,-5.126643 c 4.260916,-2.466854 5.711686,-7.889311 3.254985,-12.156145 -1.228316,-2.133408 -3.194338,-3.56219 -5.38565,-4.14935 z"
         style="color:#000000;clip-rule:nonzero;display:inline;overflow:visible;visibility:visible;opacity:1;isolation:auto;mix-blend-mode:normal;color-interpolation:sRGB;color-interpolation-filters:linearRGB;solid-color:#000000;solid-opacity:1;fill:#d3d7cf;fill-opacity:1;fill-rule:nonzero;stroke:url(#linearGradient14048);stroke-width:0.99999994;stroke-linecap:butt;stroke-linejoin:bevel;stroke-miterlimit:4;stroke-dasharray:none;stroke-dashoffset:0;stroke-opacity:1;marker:none;color-rendering:auto;image-rendering:auto;shape-rendering:auto;text-rendering:auto;enable-background:accumulate"
         inkscape:connector-curvature="0" />
      <path
         sodipodi:nodetypes="cccccccscccccccsc"
         inkscape:connector-curvature="0"
         id="path14166"
         d="m 34.146484,26.021484 c -0.959756,0.12107 -2.047682,0.162984 -2.947187,0.683751 l -8.853515,5.126953 c -2.539466,1.470223 -4.068016,5.033074 -3.478126,8.188198 l 0.951172,-0.541015 c -0.329701,-2.983036 1.522069,-5.89352 4.071797,-7.369684 l 6.474609,-3.746094 c 3.683037,-2.132293 8.366415,-1.64693 10.353516,1.804376 1.987511,3.452019 0.09225,7.773816 -3.591171,9.906328 l -6.470703,3.746094 c -2.315826,1.340747 -5.286052,1.643927 -7.750623,-1.54e-4 l -1.003437,0.736249 c 2.825698,1.679635 5.786958,2.105782 8.122027,0.753904 l 8.855469,-5.126954 c 3.599483,-2.083918 4.709136,-6.877026 2.63336,-10.482264 -1.03784,-1.802579 -2.681836,-2.991443 -4.521484,-3.484375 -0.919624,-0.246413 -1.886278,-0.31634 -2.845704,-0.195313 z"
         style="color:#000000;clip-rule:nonzero;display:inline;overflow:visible;visibility:visible;opacity:1;isolation:auto;mix-blend-mode:normal;color-interpolation:sRGB;color-interpolation-filters:linearRGB;solid-color:#000000;solid-opacity:1;fill:#ffffff;fill-opacity:1;fill-rule:nonzero;stroke:none;stroke-width:0.99999994;stroke-linecap:butt;stroke-linejoin:bevel;stroke-miterlimit:4;stroke-dasharray:none;stroke-dashoffset:0;stroke-opacity:1;marker:none;color-rendering:auto;image-rendering:auto;shape-rendering:auto;text-rendering:auto;enable-background:accumulate" />
      <path
         sodipodi:nodetypes="ccccccc"
         inkscape:connector-curvature="0"
         id="path14065"
         d="m 17.202037,41.252901 c -0.540843,-1.987285 -0.545009,-3.965846 0.117523,-5.933568 l 4.869558,1.001834 c -0.36454,0.944385 -0.631304,2.181864 -0.510662,2.892773 l -0.221974,0.546443 -3.462081,2.064074 z"
         style="fill:url(#linearGradient14073);fill-opacity:1;fill-rule:evenodd;stroke:none;stroke-width:0.99999994px;stroke-linecap:butt;stroke-linejoin:miter;stroke-opacity:1" />
      <path
         style="fill:url(#linearGradient14077);fill-opacity:1;fill-rule:evenodd;stroke:none;stroke-width:0.99999994px;stroke-linecap:butt;stroke-linejoin:miter;stroke-opacity:1"
         d="m 19.897332,45.468246 c 1.445858,1.463327 3.152521,2.456227 5.183173,2.864733 l 1.569572,-4.729765 c -0.997871,-0.155619 -2.199978,-0.542695 -2.75362,-1.002919 l -0.582912,-0.08046 -3.513643,1.974518 z"
         id="path14075"
         inkscape:connector-curvature="0"
         sodipodi:nodetypes="ccccccc" />
    </g>
  </g>
</svg>
