<?xml version="1.0" encoding="UTF-8" standalone="no"?>
<svg
   xmlns:dc="http://purl.org/dc/elements/1.1/"
   xmlns:cc="http://creativecommons.org/ns#"
   xmlns:rdf="http://www.w3.org/1999/02/22-rdf-syntax-ns#"
   xmlns:svg="http://www.w3.org/2000/svg"
   xmlns="http://www.w3.org/2000/svg"
   xmlns:sodipodi="http://sodipodi.sourceforge.net/DTD/sodipodi-0.dtd"
   xmlns:inkscape="http://www.inkscape.org/namespaces/inkscape"
   width="48"
   height="48"
   viewBox="0 0 48 48"
   version="1.1"
   id="svg3004"
   inkscape:version="0.48.5 r10040"
   sodipodi:docname="hqueue_logo.svg">
  <metadata
     id="metadata3021">
    <rdf:RDF>
      <cc:Work
         rdf:about="">
        <dc:format>image/svg+xml</dc:format>
        <dc:type
           rdf:resource="http://purl.org/dc/dcmitype/StillImage" />
        <dc:title>Slice</dc:title>
      </cc:Work>
    </rdf:RDF>
  </metadata>
  <defs
     id="defs3019" />
  <sodipodi:namedview
     pagecolor="#ffffff"
     bordercolor="#666666"
     borderopacity="1"
     objecttolerance="10"
     gridtolerance="10"
     guidetolerance="10"
     inkscape:pageopacity="0"
     inkscape:pageshadow="2"
     inkscape:window-width="2880"
     inkscape:window-height="1557"
     id="namedview3017"
     showgrid="false"
     inkscape:zoom="10.997638"
     inkscape:cx="3.4165149"
     inkscape:cy="-9.3258776"
     inkscape:window-x="-8"
     inkscape:window-y="-8"
     inkscape:window-maximized="1"
     inkscape:current-layer="svg3004" />
  <!-- Generator: Sketch 53.2 (72643) - https://sketchapp.com -->
  <title
     id="title3006">Slice</title>
  <desc
     id="desc3008">Created with Sketch.</desc>
  <path
     style="fill:#f26722;stroke:none"
     d="m 1.7790672,0.08031658 c -0.99360003,0 -1.7878622,0.79426218 -1.7878622,1.78786222 l 0,26.2815752 0.85420084,-0.854201 6.67468566,6.674686 7.4692905,-7.469291 -6.6945502,-6.674686 4.8868232,-4.886823 6.317113,6.317113 c -1.025979,-1.996095 -1.609076,-4.255496 -1.609076,-6.654821 0,-7.7057915 5.969218,-14.01207424 13.528158,-14.52141442 l -29.6387828,0 z m 31.4862408,0 C 39.741876,0.45913169 45.0796,5.0839693 46.535219,11.224658 l 1.529615,0 0,-9.3564792 c 0,-0.99360004 -0.794262,-1.78786222 -1.787862,-1.78786222 l -13.011664,0 z M 32.411107,6.8741933 c -4.228775,0 -7.648077,3.4606667 -7.648077,7.7275377 0,4.266871 3.419302,7.727538 7.648077,7.727538 2.992261,0 5.573989,-1.746486 6.833607,-4.271004 l -7.548752,0 0,-6.833607 7.588482,0 C 38.039979,8.6568792 35.434815,6.8741933 32.411107,6.8741933 z M 46.515353,18.058265 c -1.548325,6.369186 -7.273497,11.104611 -14.104246,11.104611 -2.391796,0 -4.645365,-0.581487 -6.634956,-1.609076 l 6.317114,6.317113 -4.866959,4.886824 -7.369965,-7.369966 -7.469291,7.469291 7.369965,7.350101 -1.946783,1.946783 28.46674,0 c 0.9936,0 1.787862,-0.794262 1.787862,-1.787862 l 0,-28.307819 -1.549481,0 z m -46.524148,18.136869 0,10.17095 c 0,0.9936 0.79426217,1.787862 1.7878622,1.787862 l 10.1709498,0 -11.958812,-11.958812 z"
     id="Rectangle"
     inkscape:connector-curvature="0" />
</svg>
