<?xml version="1.0" encoding="UTF-8" standalone="no"?>
<!-- Created with Inkscape (http://www.inkscape.org/) -->
<svg
   xmlns:dc="http://purl.org/dc/elements/1.1/"
   xmlns:cc="http://creativecommons.org/ns#"
   xmlns:rdf="http://www.w3.org/1999/02/22-rdf-syntax-ns#"
   xmlns:svg="http://www.w3.org/2000/svg"
   xmlns="http://www.w3.org/2000/svg"
   xmlns:sodipodi="http://sodipodi.sourceforge.net/DTD/sodipodi-0.dtd"
   xmlns:inkscape="http://www.inkscape.org/namespaces/inkscape"
   width="48px"
   height="48px"
   id="svg3367"
   sodipodi:version="0.32"
   inkscape:version="0.46"
   sodipodi:docname="prepost.svg"
   inkscape:output_extension="org.inkscape.output.svg.inkscape">
  <defs
     id="defs3369">
    <inkscape:perspective
       sodipodi:type="inkscape:persp3d"
       inkscape:vp_x="0 : 24 : 1"
       inkscape:vp_y="0 : 1000 : 0"
       inkscape:vp_z="48 : 24 : 1"
       inkscape:persp3d-origin="24 : 16 : 1"
       id="perspective3375" />
    <inkscape:perspective
       id="perspective3384"
       inkscape:persp3d-origin="372.04724 : 350.78739 : 1"
       inkscape:vp_z="744.09448 : 526.18109 : 1"
       inkscape:vp_y="0 : 1000 : 0"
       inkscape:vp_x="0 : 526.18109 : 1"
       sodipodi:type="inkscape:persp3d" />
  </defs>
  <sodipodi:namedview
     id="base"
     pagecolor="#ffffff"
     bordercolor="#666666"
     borderopacity="1.0"
     inkscape:pageopacity="0.0"
     inkscape:pageshadow="2"
     inkscape:zoom="7"
     inkscape:cx="26.272501"
     inkscape:cy="21.428571"
     inkscape:current-layer="layer1"
     showgrid="true"
     inkscape:grid-bbox="true"
     inkscape:document-units="px"
     inkscape:window-width="2560"
     inkscape:window-height="1538"
     inkscape:window-x="-8"
     inkscape:window-y="-8" />
  <metadata
     id="metadata3372">
    <rdf:RDF>
      <cc:Work
         rdf:about="">
        <dc:format>image/svg+xml</dc:format>
        <dc:type
           rdf:resource="http://purl.org/dc/dcmitype/StillImage" />
      </cc:Work>
    </rdf:RDF>
  </metadata>
  <g
     id="layer1"
     inkscape:label="Layer 1"
     inkscape:groupmode="layer">
    <path
       sodipodi:nodetypes="cscccccsc"
       id="path3924"
       d="M 22.714286,18.654789 C 22.714286,18.654789 26.579849,6.6676376 33,6.572431 C 37.852236,6.498357 40.714286,10.411257 40.714286,10.411257 L 45.142857,8.595962 L 42.714286,20.857142 L 31.142857,14.982352 L 34.714286,13.053947 C 34.714286,13.053947 34.172414,11.587689 31.857144,11.750585 C 28.407486,11.993292 22.714286,18.654789 22.714286,18.654789 z"
       style="fill:#204a87;fill-rule:evenodd;stroke:#eeeeec;stroke-width:0.99999994px;stroke-linecap:butt;stroke-linejoin:miter;stroke-opacity:1" />
    <path
       style="fill:#204a87;fill-rule:evenodd;stroke:#eeeeec;stroke-width:0.99999994px;stroke-linecap:butt;stroke-linejoin:miter;stroke-opacity:1"
       d="M 2.8571428,18.654789 C 2.8571428,18.654789 6.7227064,6.6676376 13.142857,6.572431 C 17.995093,6.498357 20.857143,10.411257 20.857143,10.411257 L 25.285714,8.595962 L 22.857143,20.857142 L 11.285714,14.982352 L 14.857143,13.053947 C 14.857143,13.053947 14.315271,11.587689 12.000001,11.750585 C 8.5503428,11.993292 2.8571428,18.654789 2.8571428,18.654789 z"
       id="path3920"
       sodipodi:nodetypes="cscccccsc" />
    <rect
       style="opacity:1;fill:#fce94f;fill-opacity:1;fill-rule:nonzero;stroke:#7d6600;stroke-width:1px;stroke-linecap:butt;stroke-linejoin:miter;marker:none;marker-start:none;marker-mid:none;marker-end:none;stroke-miterlimit:4;stroke-dasharray:none;stroke-dashoffset:0;stroke-opacity:1;visibility:visible;display:inline;overflow:visible;enable-background:accumulate"
       id="rect3405"
       width="14"
       height="18.102564"
       x="0.71428567"
       y="19.948717" />
    <rect
       y="19.948717"
       x="17"
       height="18.102564"
       width="14"
       id="rect3916"
       style="opacity:1;fill:#ffbebe;fill-opacity:1;fill-rule:nonzero;stroke:#a40000;stroke-width:1px;stroke-linecap:butt;stroke-linejoin:miter;marker:none;marker-start:none;marker-mid:none;marker-end:none;stroke-miterlimit:4;stroke-dasharray:none;stroke-dashoffset:0;stroke-opacity:1;visibility:visible;display:inline;overflow:visible;enable-background:accumulate" />
    <rect
       style="opacity:1;fill:#c3defa;fill-opacity:1;fill-rule:nonzero;stroke:#204a87;stroke-width:1px;stroke-linecap:butt;stroke-linejoin:miter;marker:none;marker-start:none;marker-mid:none;marker-end:none;stroke-miterlimit:4;stroke-dasharray:none;stroke-dashoffset:0;stroke-opacity:1;visibility:visible;display:inline;overflow:visible;enable-background:accumulate"
       id="rect3918"
       width="14"
       height="18.102564"
       x="33.57143"
       y="19.948717" />
    <path
       style="font-size:16px;font-style:normal;font-variant:normal;font-weight:900;font-stretch:normal;text-align:start;line-height:100%;letter-spacing:0;word-spacing:0;writing-mode:lr-tb;text-anchor:start;fill:#000000;fill-opacity:1;stroke:none;stroke-width:1px;stroke-linecap:butt;stroke-linejoin:miter;stroke-opacity:1;font-family:Arial Black;-inkscape-font-specification:Arial Black Heavy"
       d="M 10.157827,23.047456 L 10.157827,34.451067 L 7.0067298,34.451067 L 7.0067298,26.978681 C 6.4968388,27.366202 6.0035249,27.679782 5.5267842,27.919422 C 5.0500376,28.159074 4.4521965,28.388522 3.7332586,28.607768 L 3.7332586,26.053237 C 4.7938201,25.711622 5.6172862,25.301164 6.2036582,24.821861 C 6.7900233,24.342578 7.2489211,23.75111 7.5803515,23.047456 L 10.157827,23.047456 z"
       id="path3403" />
    <path
       style="font-size:16px;font-style:normal;font-variant:normal;font-weight:900;font-stretch:normal;text-align:start;line-height:100%;letter-spacing:0;word-spacing:0;writing-mode:lr-tb;text-anchor:start;fill:#000000;fill-opacity:1;stroke:none;stroke-width:1px;stroke-linecap:butt;stroke-linejoin:miter;stroke-opacity:1;font-family:Arial Black;-inkscape-font-specification:Arial Black Heavy"
       d="M 28.623809,34.451067 L 19.277591,34.451067 C 19.384667,33.528173 19.709719,32.660092 20.252749,31.846821 C 20.795776,31.033556 21.814273,30.073696 23.308243,28.967238 C 24.220934,28.289095 24.804753,27.77411 25.059703,27.422282 C 25.314639,27.070468 25.442112,26.736492 25.442118,26.420356 C 25.442112,26.07874 25.315914,25.78683 25.063527,25.544625 C 24.811127,25.302438 24.493723,25.18134 24.111314,25.181332 C 23.713598,25.18134 23.388545,25.306262 23.136156,25.556098 C 22.883759,25.80595 22.714222,26.247002 22.627544,26.879253 L 19.50704,26.626859 C 19.629411,25.749864 19.853762,25.065342 20.18009,24.573292 C 20.506416,24.081261 20.966587,23.703946 21.560607,23.441344 C 22.154622,23.178763 22.976813,23.047468 24.027183,23.047456 C 25.123432,23.047468 25.976217,23.17239 26.585538,23.422223 C 27.194844,23.672078 27.674137,24.055768 28.023418,24.573292 C 28.37268,25.090835 28.547316,25.670831 28.547326,26.313279 C 28.547316,26.996534 28.347186,27.649188 27.946935,28.271243 C 27.546665,28.89331 26.818803,29.576557 25.763346,30.320987 C 25.13618,30.754394 24.716799,31.057775 24.505201,31.231133 C 24.293594,31.404498 24.045024,31.631397 23.759492,31.911832 L 28.623809,31.911832 L 28.623809,34.451067 z"
       id="path3401" />
    <path
       style="font-size:16px;font-style:normal;font-variant:normal;font-weight:900;font-stretch:normal;text-align:start;line-height:100%;letter-spacing:0;word-spacing:0;writing-mode:lr-tb;text-anchor:start;fill:#000000;fill-opacity:1;stroke:none;stroke-width:1px;stroke-linecap:butt;stroke-linejoin:miter;stroke-opacity:1;font-family:Arial Black;-inkscape-font-specification:Arial Black Heavy"
       d="M 39.222421,26.481542 L 36.277827,25.953809 C 36.522571,25.015627 36.992942,24.296688 37.688937,23.796989 C 38.38493,23.297312 39.370284,23.047468 40.645004,23.047456 C 42.108372,23.047468 43.166385,23.320257 43.819047,23.865825 C 44.471693,24.411413 44.79802,25.09721 44.798029,25.923216 C 44.79802,26.407616 44.665449,26.846118 44.400317,27.238723 C 44.135168,27.631342 43.734907,27.975515 43.199535,28.271243 C 43.632931,28.378325 43.964356,28.503247 44.193814,28.646009 C 44.566022,28.875464 44.855382,29.177571 45.061895,29.552332 C 45.26839,29.927103 45.371642,30.374528 45.371652,30.894608 C 45.371642,31.547266 45.20083,32.173151 44.859215,32.772265 C 44.517583,33.371383 44.025543,33.83283 43.383095,34.156607 C 42.74063,34.480384 41.896769,34.642274 40.851508,34.642274 C 39.831731,34.642274 39.027386,34.52245 38.43847,34.282804 C 37.84955,34.043157 37.365157,33.692611 36.985294,33.231163 C 36.605428,32.769717 36.313518,32.189722 36.109564,31.491176 L 39.222421,31.078168 C 39.34479,31.705331 39.534722,32.140009 39.792219,32.382202 C 40.049707,32.6244 40.377309,32.745498 40.775025,32.745496 C 41.193127,32.745498 41.541123,32.592532 41.819017,32.286598 C 42.096899,31.980669 42.235843,31.57276 42.23585,31.062871 C 42.235843,30.542791 42.101998,30.139981 41.834314,29.85444 C 41.566618,29.568908 41.203324,29.42614 40.744432,29.426136 C 40.499681,29.42614 40.163157,29.487327 39.734857,29.609695 L 39.895471,27.384041 C 40.068828,27.409541 40.203948,27.422289 40.300831,27.422282 C 40.708735,27.422289 41.049084,27.292268 41.321878,27.032219 C 41.594662,26.772184 41.731056,26.463704 41.731062,26.106775 C 41.731056,25.76516 41.629079,25.492371 41.425131,25.288408 C 41.221171,25.084462 40.940733,24.982485 40.583818,24.982476 C 40.216695,24.982485 39.918412,25.093385 39.688967,25.315176 C 39.459514,25.536986 39.303999,25.925774 39.222421,26.481542 L 39.222421,26.481542 z"
       id="text3394" />
  </g>
</svg>
