<?xml version="1.0" encoding="UTF-8" standalone="no"?>
<!-- Generator: Adobe Illustrator 15.0.0, SVG Export Plug-In . SVG Version: 6.00 Build 0)  -->
<svg
   xmlns:dc="http://purl.org/dc/elements/1.1/"
   xmlns:cc="http://creativecommons.org/ns#"
   xmlns:rdf="http://www.w3.org/1999/02/22-rdf-syntax-ns#"
   xmlns:svg="http://www.w3.org/2000/svg"
   xmlns="http://www.w3.org/2000/svg"
   xmlns:xlink="http://www.w3.org/1999/xlink"
   xmlns:sodipodi="http://sodipodi.sourceforge.net/DTD/sodipodi-0.dtd"
   xmlns:inkscape="http://www.inkscape.org/namespaces/inkscape"
   version="1.0"
   id="Layer_1"
   x="0px"
   y="0px"
   width="48"
   height="48"
   viewBox="0 0 612 792"
   enable-background="new 0 0 612 792"
   xml:space="preserve"
   sodipodi:version="0.32"
   inkscape:version="0.46"
   sodipodi:docname="Sprite.svg"
   inkscape:output_extension="org.inkscape.output.svg.inkscape"><metadata
   id="metadata32881"><rdf:RDF><cc:Work
       rdf:about=""><dc:format>image/svg+xml</dc:format><dc:type
         rdf:resource="http://purl.org/dc/dcmitype/StillImage" /></cc:Work></rdf:RDF></metadata><defs
   id="defs32879"><inkscape:perspective
   sodipodi:type="inkscape:persp3d"
   inkscape:vp_x="0 : 396 : 1"
   inkscape:vp_y="0 : 1000 : 0"
   inkscape:vp_z="612 : 396 : 1"
   inkscape:persp3d-origin="306 : 264 : 1"
   id="perspective32883" />
	
	
<radialGradient
   inkscape:collect="always"
   xlink:href="#SVGID_1_"
   id="radialGradient32988"
   gradientUnits="userSpaceOnUse"
   cx="303.80029"
   cy="364.16699"
   r="12.3247" />
		
		
		
		
		
		
		
		
		
		
		
		
		
		
			
		
		
		
		
		
		
		
		
		
		
		
		
		
		
		
		
		
		
		
		
		
		
		
		
		<radialGradient
   id="SVGID_1_"
   cx="303.80029"
   cy="364.16699"
   r="12.3247"
   gradientUnits="userSpaceOnUse">
			<stop
   offset="0"
   style="stop-color:#CCA84E;stop-opacity:0.95"
   id="stop32782" />
			<stop
   offset="0.0541"
   style="stop-color:#CEAB52;stop-opacity:0.8701"
   id="stop32784" />
			<stop
   offset="0.1154"
   style="stop-color:#D5B360;stop-opacity:0.7795"
   id="stop32786" />
			<stop
   offset="0.18"
   style="stop-color:#DFC275;stop-opacity:0.6842"
   id="stop32788" />
			<stop
   offset="0.2023"
   style="stop-color:#E4C87E;stop-opacity:0.6512"
   id="stop32790" />
			<stop
   offset="0.2041"
   style="stop-color:#E4C87E;stop-opacity:0.6459"
   id="stop32792" />
			<stop
   offset="0.3497"
   style="stop-color:#F5D468;stop-opacity:0.2212"
   id="stop32794" />
			<stop
   offset="0.4256"
   style="stop-color:#FFDB5D;stop-opacity:0"
   id="stop32796" />
		</radialGradient>
		
		
		
		
		
		
		
		
		
		
		
		
		
		
		
		
		
		
		
		
		
		
		
		
		
			
		
	<radialGradient
   inkscape:collect="always"
   xlink:href="#SVGID_1_"
   id="radialGradient33039"
   gradientUnits="userSpaceOnUse"
   cx="303.80029"
   cy="364.16699"
   r="12.3247"
   gradientTransform="matrix(16.962553,0,0,16.962553,-4902.4949,-5799.5089)" /></defs><sodipodi:namedview
   inkscape:window-height="1538"
   inkscape:window-width="2560"
   inkscape:pageshadow="2"
   inkscape:pageopacity="0.0"
   guidetolerance="10.0"
   gridtolerance="10.0"
   objecttolerance="10.0"
   borderopacity="1.0"
   bordercolor="#666666"
   pagecolor="#ffffff"
   id="base"
   showgrid="false"
   inkscape:zoom="18.666667"
   inkscape:cx="19.923419"
   inkscape:cy="20.634099"
   inkscape:window-x="0"
   inkscape:window-y="24"
   inkscape:current-layer="Layer_1" />
<g
   id="g32677"
   transform="matrix(16.962553,0,0,16.962553,-4902.4949,-5799.5089)">
			<path
   d="M 327.436,359.795 L 327.86,361.943 L 329.616,362.653 L 329.808,362.735 L 327.897,363.797 L 327.759,365.687 L 327.738,365.895 L 326.14,364.405 L 324.3,364.864 L 324.1,364.909 L 325.017,362.927 L 324.017,361.318 L 323.912,361.138 L 326.079,361.404 L 327.299,359.953 L 327.436,359.795 M 327.436,359.495 C 327.351,359.495 327.268,359.531 327.21,359.597 L 327.073,359.753 L 325.954,361.085 L 323.948,360.839 C 323.936,360.838 323.924,360.837 323.912,360.837 C 323.811,360.837 323.717,360.887 323.661,360.972 C 323.598,361.067 323.596,361.19 323.653,361.288 L 323.758,361.468 L 324.677,362.947 L 323.827,364.782 C 323.779,364.886 323.794,365.008 323.866,365.096 C 323.924,365.167 324.01,365.207 324.099,365.207 C 324.12,365.207 324.143,365.205 324.164,365.2 L 324.364,365.155 L 326.052,364.734 L 327.531,366.113 C 327.588,366.166 327.662,366.194 327.736,366.194 C 327.771,366.194 327.807,366.188 327.841,366.175 C 327.948,366.134 328.023,366.037 328.034,365.924 L 328.055,365.716 L 328.181,363.981 L 329.951,362.998 C 330.052,362.942 330.111,362.834 330.105,362.72 C 330.099,362.606 330.028,362.505 329.923,362.46 L 329.73,362.378 L 328.12,361.727 L 327.727,359.738 C 327.706,359.626 327.622,359.536 327.511,359.507 C 327.487,359.498 327.461,359.495 327.436,359.495 L 327.436,359.495 z"
   id="path32679"
   style="fill:#005b76" />
		</g><g
   id="g32681"
   transform="matrix(16.962553,0,0,16.962553,-4902.4949,-5799.5089)">
			<path
   d="M 321.4,353.886 L 321.606,354.944 L 322.345,355.215 L 322.537,355.296 L 321.594,355.818 L 321.565,356.605 L 321.545,356.812 L 320.757,356.078 L 320,356.295 L 319.798,356.338 L 320.25,355.362 L 319.813,354.709 L 319.708,354.531 L 320.775,354.66 L 321.26,354.042 L 321.4,353.886 M 321.4,353.586 C 321.315,353.586 321.233,353.622 321.175,353.687 L 321.036,353.843 L 320.643,354.343 L 319.744,354.234 C 319.731,354.233 319.72,354.232 319.708,354.232 C 319.607,354.232 319.513,354.282 319.457,354.368 C 319.394,354.464 319.392,354.587 319.45,354.685 L 319.555,354.863 L 319.907,355.389 L 319.525,356.212 C 319.477,356.315 319.492,356.436 319.563,356.525 C 319.621,356.597 319.708,356.638 319.797,356.638 C 319.818,356.638 319.839,356.636 319.86,356.632 L 320.062,356.589 L 320.676,356.414 L 321.34,357.033 C 321.396,357.085 321.47,357.113 321.544,357.113 C 321.58,357.113 321.616,357.107 321.65,357.093 C 321.757,357.052 321.832,356.955 321.842,356.841 L 321.862,356.634 L 321.885,355.999 L 322.681,355.559 C 322.782,355.503 322.841,355.395 322.835,355.28 C 322.828,355.165 322.758,355.064 322.651,355.02 L 322.459,354.939 L 321.865,354.721 L 321.692,353.829 C 321.67,353.717 321.587,353.627 321.476,353.597 C 321.453,353.589 321.427,353.586 321.4,353.586 L 321.4,353.586 z"
   id="path32683"
   style="fill:#005b76" />
		</g><g
   id="g32685"
   transform="matrix(16.962553,0,0,16.962553,-4902.4949,-5799.5089)">
			<path
   d="M 321.212,363.527 L 321.54,365.187 L 322.84,365.701 L 323.032,365.785 L 321.553,366.603 L 321.465,368 L 321.445,368.207 L 320.21,367.055 L 318.852,367.404 L 318.651,367.454 L 319.362,365.918 L 318.615,364.736 L 318.51,364.558 L 320.184,364.762 L 321.076,363.682 L 321.212,363.527 M 321.212,363.228 C 321.127,363.228 321.045,363.264 320.986,363.33 L 320.849,363.485 L 320.056,364.445 L 318.545,364.261 C 318.533,364.26 318.521,364.259 318.509,364.259 C 318.408,364.259 318.314,364.309 318.258,364.395 C 318.195,364.491 318.193,364.614 318.251,364.712 L 318.356,364.89 L 319.02,365.941 L 318.377,367.329 C 318.329,367.433 318.345,367.557 318.418,367.646 C 318.476,367.716 318.562,367.755 318.649,367.755 C 318.673,367.755 318.697,367.753 318.721,367.746 L 318.922,367.696 L 320.123,367.388 L 321.238,368.428 C 321.295,368.481 321.369,368.509 321.443,368.509 C 321.479,368.509 321.515,368.503 321.549,368.489 C 321.656,368.448 321.731,368.351 321.741,368.237 L 321.761,368.03 L 321.839,366.787 L 323.174,366.048 C 323.274,365.992 323.333,365.885 323.328,365.771 C 323.322,365.657 323.253,365.556 323.148,365.51 L 322.956,365.426 L 321.799,364.968 L 321.502,363.468 C 321.481,363.356 321.397,363.266 321.286,363.237 C 321.265,363.23 321.238,363.228 321.212,363.228 L 321.212,363.228 z"
   id="path32687"
   style="fill:#005b76" />
		</g><g
   id="g32689"
   transform="matrix(16.962553,0,0,16.962553,-4902.4949,-5799.5089)">
			<path
   d="M 324.205,369.819 L 324.701,370.779 L 325.486,370.829 L 325.692,370.854 L 324.935,371.619 L 325.128,372.384 L 325.168,372.588 L 324.205,372.106 L 323.539,372.529 L 323.358,372.627 L 323.516,371.564 L 322.912,371.059 L 322.76,370.92 L 323.822,370.743 L 324.115,370.01 L 324.205,369.819 M 324.205,369.52 C 324.203,369.52 324.201,369.52 324.199,369.52 C 324.085,369.522 323.982,369.589 323.933,369.692 L 323.844,369.881 L 323.607,370.474 L 322.712,370.623 C 322.598,370.642 322.506,370.724 322.473,370.834 C 322.441,370.944 322.474,371.063 322.559,371.141 L 322.711,371.28 L 323.195,371.685 L 323.061,372.582 C 323.044,372.694 323.092,372.807 323.186,372.872 C 323.237,372.908 323.297,372.926 323.358,372.926 C 323.407,372.926 323.456,372.914 323.501,372.89 L 323.682,372.792 L 324.223,372.45 L 325.034,372.856 C 325.077,372.877 325.123,372.888 325.169,372.888 C 325.233,372.888 325.297,372.867 325.351,372.827 C 325.442,372.758 325.486,372.643 325.463,372.531 L 325.423,372.327 L 325.268,371.711 L 325.906,371.066 C 325.987,370.985 326.014,370.865 325.976,370.757 C 325.939,370.649 325.843,370.571 325.73,370.557 L 325.524,370.532 L 324.89,370.491 L 324.472,369.682 C 324.42,369.582 324.317,369.52 324.205,369.52 L 324.205,369.52 z"
   id="path32691"
   style="fill:#005b76" />
		</g><g
   id="g32693"
   transform="matrix(16.962553,0,0,16.962553,-4902.4949,-5799.5089)">
			<path
   d="M 316.856,383.053 L 317.858,384.753 L 319.514,384.82 L 319.736,384.835 L 318.429,386.31 L 318.873,387.906 L 318.927,388.123 L 317.123,387.338 L 315.744,388.256 L 315.556,388.373 L 315.744,386.414 L 314.446,385.384 L 314.274,385.24 L 316.198,384.816 L 316.771,383.26 L 316.856,383.053 M 316.856,382.753 C 316.849,382.753 316.841,382.753 316.834,382.753 C 316.721,382.761 316.621,382.834 316.578,382.94 L 316.494,383.147 L 315.974,384.558 L 314.21,384.947 C 314.098,384.971 314.01,385.058 313.983,385.169 C 313.956,385.28 313.994,385.397 314.082,385.471 L 314.254,385.615 L 315.43,386.549 L 315.258,388.346 C 315.247,388.459 315.302,388.57 315.399,388.63 C 315.448,388.66 315.503,388.674 315.557,388.674 C 315.613,388.674 315.667,388.659 315.716,388.629 L 315.904,388.512 L 317.154,387.68 L 318.807,388.4 C 318.846,388.417 318.886,388.425 318.927,388.425 C 318.996,388.425 319.066,388.401 319.12,388.354 C 319.208,388.28 319.245,388.164 319.218,388.053 L 319.164,387.836 L 318.762,386.389 L 319.96,385.037 C 320.036,384.951 320.057,384.829 320.013,384.724 C 319.97,384.619 319.869,384.546 319.755,384.539 L 319.533,384.524 L 318.033,384.463 L 317.114,382.903 C 317.061,382.809 316.962,382.753 316.856,382.753 L 316.856,382.753 z"
   id="path32695"
   style="fill:#005b76" />
		</g><g
   id="g32697"
   transform="matrix(16.962553,0,0,16.962553,-4902.4949,-5799.5089)">
			<path
   d="M 307.712,384.697 L 307.932,385.829 L 308.724,386.118 L 308.928,386.207 L 307.92,386.767 L 307.887,387.609 L 307.866,387.832 L 307.021,387.047 L 306.21,387.275 L 305.994,387.326 L 306.478,386.278 L 306.01,385.579 L 305.897,385.391 L 307.041,385.528 L 307.564,384.866 L 307.712,384.697 M 307.712,384.397 C 307.627,384.397 307.545,384.433 307.487,384.499 L 307.341,384.665 L 306.911,385.207 L 305.934,385.09 C 305.922,385.089 305.91,385.088 305.898,385.088 C 305.797,385.088 305.702,385.139 305.646,385.225 C 305.584,385.321 305.582,385.444 305.641,385.542 L 305.754,385.73 L 306.136,386.302 L 305.722,387.197 C 305.674,387.301 305.689,387.424 305.762,387.512 C 305.82,387.583 305.906,387.622 305.994,387.622 C 306.017,387.622 306.04,387.62 306.063,387.614 L 306.279,387.563 L 306.94,387.378 L 307.662,388.048 C 307.719,388.101 307.792,388.128 307.866,388.128 C 307.902,388.128 307.938,388.122 307.973,388.108 C 308.079,388.067 308.154,387.969 308.164,387.855 L 308.185,387.632 L 308.212,386.944 L 309.072,386.466 C 309.172,386.411 309.231,386.303 309.226,386.189 C 309.22,386.075 309.151,385.974 309.046,385.929 L 308.842,385.84 L 308.192,385.602 L 308.005,384.637 C 307.983,384.525 307.9,384.435 307.789,384.405 C 307.765,384.401 307.738,384.397 307.712,384.397 L 307.712,384.397 z"
   id="path32699"
   style="fill:#005b76" />
		</g><g
   id="g32701"
   transform="matrix(16.962553,0,0,16.962553,-4902.4949,-5799.5089)">
			<path
   d="M 308.99,375.904 L 309.672,377.135 L 310.785,377.198 L 310.994,377.219 L 310.032,378.247 L 310.313,379.324 L 310.358,379.529 L 309.087,378.933 L 308.147,379.537 L 307.969,379.642 L 308.139,378.245 L 307.278,377.54 L 307.122,377.402 L 308.502,377.135 L 308.907,376.095 L 308.99,375.904 M 308.99,375.604 C 308.985,375.604 308.981,375.604 308.976,375.604 C 308.862,375.609 308.761,375.679 308.715,375.783 L 308.631,375.974 L 308.28,376.871 L 307.063,377.106 C 306.95,377.127 306.86,377.211 306.83,377.322 C 306.8,377.432 306.835,377.55 306.921,377.626 L 307.077,377.764 L 307.819,378.371 L 307.669,379.605 C 307.655,379.718 307.707,379.83 307.803,379.893 C 307.853,379.925 307.91,379.941 307.967,379.941 C 308.02,379.941 308.072,379.927 308.12,379.899 L 308.298,379.794 L 309.108,379.274 L 310.23,379.799 C 310.27,379.818 310.314,379.827 310.357,379.827 C 310.423,379.827 310.49,379.805 310.545,379.762 C 310.634,379.691 310.675,379.575 310.65,379.464 L 310.605,379.259 L 310.363,378.33 L 311.212,377.423 C 311.29,377.34 311.315,377.219 311.274,377.112 C 311.234,377.005 311.136,376.93 311.023,376.919 L 310.814,376.898 L 309.854,376.844 L 309.252,375.757 C 309.199,375.663 309.099,375.604 308.99,375.604 L 308.99,375.604 z"
   id="path32703"
   style="fill:#005b76" />
		</g><g
   id="g32705"
   transform="matrix(16.962553,0,0,16.962553,-4902.4949,-5799.5089)">
			<path
   d="M 314.383,379.561 L 314.645,380.89 L 315.617,381.258 L 315.821,381.348 L 314.641,382.004 L 314.586,383.043 L 314.565,383.265 L 313.578,382.344 L 312.571,382.615 L 312.356,382.665 L 312.922,381.437 L 312.355,380.568 L 312.241,380.377 L 313.584,380.541 L 314.236,379.73 L 314.383,379.561 M 314.383,379.261 C 314.297,379.261 314.214,379.298 314.155,379.365 L 314.009,379.535 L 313.455,380.223 L 312.277,380.079 C 312.265,380.078 312.253,380.077 312.241,380.077 C 312.14,380.077 312.046,380.127 311.99,380.213 C 311.927,380.309 311.925,380.432 311.983,380.53 L 312.097,380.721 L 312.58,381.461 L 312.083,382.538 C 312.035,382.642 312.051,382.764 312.123,382.853 C 312.181,382.924 312.267,382.963 312.355,382.963 C 312.377,382.963 312.4,382.961 312.422,382.955 L 312.637,382.906 L 313.493,382.675 L 314.358,383.482 C 314.415,383.535 314.489,383.563 314.563,383.563 C 314.599,383.563 314.635,383.557 314.669,383.543 C 314.776,383.502 314.851,383.404 314.861,383.291 L 314.882,383.069 L 314.929,382.184 L 315.963,381.608 C 316.063,381.553 316.122,381.445 316.117,381.332 C 316.111,381.218 316.043,381.118 315.938,381.072 L 315.734,380.982 L 314.903,380.667 L 314.674,379.501 C 314.653,379.389 314.568,379.298 314.457,379.269 C 314.435,379.264 314.408,379.261 314.383,379.261 L 314.383,379.261 z"
   id="path32707"
   style="fill:#005b76" />
		</g><g
   id="g32709"
   transform="matrix(16.962553,0,0,16.962553,-4902.4949,-5799.5089)">
			<path
   d="M 321.857,380.28 L 322.066,381.339 L 322.804,381.609 L 322.995,381.691 L 322.054,382.214 L 322.022,382.999 L 322.001,383.205 L 321.213,382.472 L 320.457,382.689 L 320.255,382.734 L 320.708,381.756 L 320.271,381.103 L 320.164,380.923 L 321.233,381.055 L 321.719,380.435 L 321.857,380.28 M 321.857,379.98 C 321.772,379.98 321.69,380.016 321.632,380.081 L 321.495,380.235 L 321.102,380.736 L 320.201,380.625 C 320.188,380.624 320.176,380.623 320.164,380.623 C 320.063,380.623 319.969,380.673 319.913,380.759 C 319.85,380.855 319.848,380.978 319.906,381.076 L 320.013,381.256 L 320.365,381.782 L 319.982,382.607 C 319.934,382.711 319.949,382.832 320.021,382.921 C 320.079,382.993 320.165,383.033 320.254,383.033 C 320.275,383.033 320.297,383.031 320.319,383.026 L 320.521,382.981 L 321.131,382.806 L 321.795,383.424 C 321.852,383.476 321.925,383.504 321.999,383.504 C 322.034,383.504 322.07,383.498 322.105,383.485 C 322.211,383.444 322.286,383.347 322.297,383.234 L 322.318,383.028 L 322.344,382.394 L 323.138,381.952 C 323.239,381.896 323.298,381.789 323.292,381.674 C 323.286,381.56 323.216,381.459 323.11,381.414 L 322.919,381.332 L 322.324,381.115 L 322.147,380.222 C 322.126,380.11 322.042,380.02 321.931,379.991 C 321.91,379.984 321.884,379.98 321.857,379.98 L 321.857,379.98 z"
   id="path32711"
   style="fill:#005b76" />
		</g><g
   id="g32713"
   transform="matrix(16.962553,0,0,16.962553,-4902.4949,-5799.5089)">
			<path
   d="M 321.804,375.963 L 321.977,376.828 L 322.536,377.021 L 322.725,377.104 L 321.956,377.532 L 321.943,378.125 L 321.922,378.334 L 321.276,377.731 L 320.71,377.902 L 320.51,377.95 L 320.88,377.149 L 320.542,376.663 L 320.435,376.486 L 321.31,376.59 L 321.666,376.119 L 321.804,375.963 M 321.804,375.663 C 321.718,375.663 321.635,375.7 321.577,375.766 L 321.44,375.923 L 321.175,376.272 L 320.47,376.188 C 320.458,376.187 320.447,376.186 320.435,376.186 C 320.333,376.186 320.239,376.237 320.183,376.324 C 320.12,376.42 320.119,376.544 320.178,376.642 L 320.285,376.819 L 320.535,377.179 L 320.237,377.824 C 320.189,377.928 320.205,378.051 320.277,378.14 C 320.335,378.211 320.421,378.25 320.509,378.25 C 320.532,378.25 320.556,378.248 320.578,378.242 L 320.778,378.194 L 321.196,378.068 L 321.716,378.553 C 321.773,378.606 321.847,378.634 321.921,378.634 C 321.957,378.634 321.992,378.628 322.027,378.615 C 322.133,378.574 322.208,378.477 322.219,378.364 L 322.24,378.155 L 322.25,377.712 L 322.868,377.368 C 322.968,377.312 323.027,377.205 323.022,377.092 C 323.016,376.978 322.947,376.877 322.842,376.831 L 322.653,376.748 L 322.235,376.602 L 322.095,375.905 C 322.073,375.793 321.989,375.703 321.878,375.674 C 321.855,375.666 321.829,375.663 321.804,375.663 L 321.804,375.663 z"
   id="path32715"
   style="fill:#005b76" />
		</g><g
   id="g32717"
   transform="matrix(16.962553,0,0,16.962553,-4902.4949,-5799.5089)">
			<path
   d="M 317.21,377.336 L 317.38,378.203 L 317.938,378.396 L 318.129,378.476 L 317.357,378.909 L 317.346,379.498 L 317.326,379.704 L 316.681,379.102 L 316.113,379.275 L 315.913,379.321 L 316.282,378.522 L 315.945,378.038 L 315.84,377.86 L 316.714,377.965 L 317.072,377.491 L 317.21,377.336 M 317.21,377.036 C 317.125,377.036 317.043,377.072 316.985,377.138 L 316.847,377.294 L 316.578,377.648 L 315.875,377.563 C 315.862,377.562 315.851,377.561 315.839,377.561 C 315.738,377.561 315.644,377.611 315.588,377.697 C 315.525,377.793 315.523,377.916 315.581,378.014 L 315.686,378.192 L 315.936,378.553 L 315.639,379.196 C 315.591,379.3 315.607,379.422 315.678,379.511 C 315.737,379.582 315.823,379.622 315.911,379.622 C 315.933,379.622 315.956,379.62 315.978,379.615 L 316.178,379.569 L 316.601,379.441 L 317.119,379.924 C 317.176,379.977 317.25,380.005 317.324,380.005 C 317.36,380.005 317.396,379.999 317.43,379.985 C 317.536,379.944 317.612,379.847 317.622,379.733 L 317.642,379.527 L 317.651,379.088 L 318.273,378.739 C 318.374,378.683 318.432,378.575 318.426,378.46 C 318.419,378.345 318.348,378.245 318.242,378.2 L 318.051,378.12 L 317.639,377.977 L 317.501,377.279 C 317.48,377.167 317.396,377.077 317.285,377.047 C 317.263,377.04 317.236,377.036 317.21,377.036 L 317.21,377.036 z"
   id="path32719"
   style="fill:#005b76" />
		</g><g
   id="g32721"
   transform="matrix(16.962553,0,0,16.962553,-4902.4949,-5799.5089)">
			<path
   d="M 317.338,374.375 L 317.507,375.239 L 318.069,375.431 L 318.26,375.516 L 317.487,375.944 L 317.475,376.533 L 317.455,376.741 L 316.81,376.142 L 316.244,376.312 L 316.041,376.358 L 316.412,375.559 L 316.076,375.075 L 315.971,374.894 L 316.844,375.001 L 317.2,374.531 L 317.338,374.375 M 317.338,374.075 C 317.253,374.075 317.17,374.111 317.112,374.177 L 316.974,374.334 L 316.708,374.683 L 316.007,374.597 C 315.994,374.596 315.982,374.595 315.97,374.595 C 315.869,374.595 315.776,374.645 315.719,374.73 C 315.656,374.825 315.654,374.948 315.711,375.046 L 315.816,375.227 L 316.066,375.589 L 315.767,376.232 C 315.719,376.336 315.734,376.458 315.806,376.547 C 315.864,376.618 315.95,376.658 316.039,376.658 C 316.06,376.658 316.083,376.656 316.105,376.651 L 316.308,376.605 L 316.73,376.479 L 317.249,376.961 C 317.306,377.014 317.379,377.041 317.453,377.041 C 317.489,377.041 317.525,377.035 317.559,377.021 C 317.666,376.98 317.741,376.882 317.751,376.769 L 317.771,376.561 L 317.78,376.123 L 318.403,375.779 C 318.503,375.724 318.562,375.617 318.557,375.503 C 318.552,375.389 318.483,375.288 318.379,375.242 L 318.188,375.157 L 317.766,375.012 L 317.63,374.317 C 317.608,374.205 317.524,374.115 317.413,374.085 C 317.39,374.078 317.364,374.075 317.338,374.075 L 317.338,374.075 z"
   id="path32723"
   style="fill:#005b76" />
		</g><g
   id="g32725"
   transform="matrix(16.962553,0,0,16.962553,-4902.4949,-5799.5089)">
			<path
   d="M 319.761,371.717 L 319.931,372.58 L 320.491,372.775 L 320.679,372.856 L 319.91,373.284 L 319.897,373.879 L 319.876,374.086 L 319.232,373.483 L 318.668,373.656 L 318.464,373.702 L 318.835,372.901 L 318.496,372.415 L 318.392,372.236 L 319.267,372.342 L 319.621,371.869 L 319.761,371.717 M 319.761,371.417 C 319.678,371.417 319.597,371.452 319.539,371.515 L 319.399,371.668 L 319.13,372.024 L 318.427,371.939 C 318.415,371.938 318.403,371.937 318.391,371.937 C 318.29,371.937 318.197,371.987 318.14,372.072 C 318.077,372.167 318.075,372.29 318.132,372.388 L 318.236,372.567 L 318.489,372.932 L 318.19,373.577 C 318.142,373.681 318.157,373.803 318.229,373.891 C 318.287,373.962 318.373,374.002 318.462,374.002 C 318.483,374.002 318.506,374 318.527,373.995 L 318.731,373.949 L 319.152,373.821 L 319.669,374.305 C 319.726,374.358 319.799,374.386 319.874,374.386 C 319.909,374.386 319.945,374.38 319.979,374.367 C 320.086,374.327 320.161,374.229 320.172,374.116 L 320.193,373.909 L 320.203,373.463 L 320.821,373.119 C 320.922,373.063 320.981,372.956 320.975,372.842 C 320.969,372.728 320.899,372.627 320.794,372.582 L 320.606,372.501 L 320.188,372.355 L 320.051,371.66 C 320.03,371.549 319.947,371.46 319.838,371.429 C 319.814,371.42 319.788,371.417 319.761,371.417 L 319.761,371.417 z"
   id="path32727"
   style="fill:#005b76" />
		</g><path
   stroke-miterlimit="10"
   d="M -26.42244,788.32272 L -23.640581,785.48998 C -23.572731,785.42213 -15.702106,777.48366 -9.4259613,765.71165 C -3.6586932,754.83865 -4.9817724,748.25718 -14.362064,740.38655 C -19.332092,736.16288 -21.554187,730.97233 -20.485546,725.98534 C -19.349055,720.94746 -14.955754,716.89341 -8.7304966,715.21412 C 6.7054267,711.0074 11.84508,701.08432 10.216676,678.50715 C 9.9791994,674.82628 9.6229862,671.41681 9.2498098,668.09214 C 7.6044419,652.09647 6.179588,638.25502 16.408007,607.58672 C 26.806052,576.4774 44.006081,557.78466 49.535873,552.32272 C 47.720881,551.16927 44.497995,548.86236 39.154791,544.5878 C 33.065235,544.96098 28.960297,546.13139 26.551614,548.67577 L 25.703486,549.55783 L 17.663236,545.99569 C 5.5689354,540.68641 -1.1143102,537.75189 -18.212564,522.41775 C -28.644534,513.03745 -29.085561,502.368 -29.458736,492.88594 C -29.899763,482.65752 -30.239014,473.80307 -41.315561,466.45828 L -42.418127,465.71193 L -41.994063,464.4567 C -38.839028,454.97463 -37.091885,448.13872 -35.667031,442.69374 C -32.393258,429.85309 -30.866628,424.01797 -17.618874,409.36233 C -5.1683605,395.62266 13.524374,393.63804 23.634055,393.63804 C 31.91178,393.63804 40.443945,394.96112 47.602143,397.31892 C 49.400173,397.91261 51.452642,398.21793 53.708662,398.21793 C 64.649508,398.21793 79.678331,391.60254 91.72174,386.27629 C 95.606164,384.56308 99.21919,382.96859 102.44208,381.71336 C 81.035335,379.49127 18.121225,371.89205 -1.2839357,357.6435 C -24.743146,340.44348 -43.23233,267.96249 -43.23233,263.1112 C -44.131345,262.43269 -52.13767,260.68555 -57.972789,259.39639 C -72.306146,256.27528 -87.114455,253.06936 -85.927076,246.0299 C -84.773622,239.05829 -76.85211,229.18609 -62.874966,229.18609 C -54.766866,229.18609 -45.708863,232.40897 -35.972357,238.73601 C -27.796406,244.04528 -18.941954,266.52067 -10.358902,288.28362 C -4.7951843,302.43039 0.51409457,315.77992 4.093194,319.98664 C 12.57447,329.8758 58.763503,339.22216 73.029009,339.22216 C 76.28582,339.22216 83.902006,337.96694 92.926082,336.40638 C 59.509855,307.57004 15.017078,253.42558 18.104262,244.87645 L 18.528326,243.73996 L 20.987896,242.99361 L 23.430504,242.70524 C 25.143722,240.72062 23.803681,232.64644 22.514526,224.79279 C 19.461266,206.10005 15.254553,180.50356 34.931115,171.54733 C 38.883391,169.7493 41.088522,167.56113 41.682211,164.84712 C 43.124028,158.18084 34.659714,148.44434 27.196191,139.87824 C 19.376454,130.85417 11.997744,122.33896 13.388672,115.53698 C 13.999325,112.7212 16.034831,110.46517 19.444304,108.87069 C 22.056537,107.63243 23.73583,105.78352 24.566996,103.18824 C 28.230907,91.908144 15.797355,69.449723 3.8048304,47.737656 C -4.2863077,33.098972 -11.936419,19.274491 -14.921829,8.5371952 L -16.431496,3.1091782 L -12.123007,6.7730897 C -7.9841443,10.267376 -4.1336447,13.371523 -0.36795741,16.424783 C 16.611558,30.147488 32.692058,43.123841 66.58324,86.327464 C 79.576555,102.86596 95.707941,133.6021 115.91035,180.24912 C 123.06854,177.29764 131.54982,175.63531 133.90761,175.17732 C 135.51906,173.3284 138.11433,170.73313 140.1668,170.73313 L 140.99796,170.73313 L 141.35418,171.00453 C 147.17233,160.23331 163.89741,152.37964 179.74043,151.07353 C 181.6572,150.9039 183.42131,150.81909 185.04971,150.81909 C 199.06078,150.81909 202.33455,156.87472 206.13416,163.88026 C 210.20518,171.36075 225.26792,177.22978 230.74683,178.943 L 231.51015,179.19744 C 232.68056,178.84122 233.85098,178.55286 235.08924,178.17969 C 236.54802,177.73866 238.09162,177.53512 239.63521,177.53512 C 250.79657,177.53512 263.41671,188.96787 272.03369,206.82944 C 284.24673,205.76081 292.13431,198.90793 299.10592,192.88622 C 304.72052,188.05189 309.53789,183.87911 315.57656,183.37023 C 321.88663,182.82743 324.58367,172.25976 326.97539,162.89643 C 329.35015,153.55006 331.40262,145.47588 337.18685,145.47588 C 341.7837,145.47588 367.77034,122.0506 383.30803,108.05649 C 401.94988,91.246604 405.25758,88.532596 406.98776,88.532596 L 408.0564,88.532596 L 408.68401,89.550349 C 409.31162,90.737728 408.51439,92.009919 407.25915,93.774025 C 403.18815,99.52433 400.20273,106.92 396.42009,116.28333 C 389.34671,133.89047 379.64413,157.99425 354.67525,193.22547 C 339.81605,214.22511 303.94025,247.33601 276.46091,271.4398 C 276.66446,276.40983 276.03685,282.82168 275.3753,289.42012 C 274.86643,291.59132 263.23012,337.49199 249.60919,344.29397 C 247.04785,345.58313 243.90977,346.2277 240.31371,346.2277 C 234.22415,346.2277 227.08292,344.3279 220.06042,340.85057 C 216.61703,345.36261 215.19217,348.87386 215.78586,351.38432 C 216.63399,354.87861 221.48528,357.01588 227.1338,359.50938 C 231.61192,361.46008 236.68372,363.68217 240.60208,367.09164 C 252.76422,377.74412 305.3651,439.04679 307.92645,442.03221 C 307.85859,441.28585 347.33046,436.72293 377.43898,436.72293 C 395.94513,436.72293 407.12345,438.40222 411.56765,441.84561 C 421.84696,449.8689 421.11757,468.40897 418.48837,476.07604 C 418.13215,477.12772 417.04655,480.16402 414.77356,480.16402 C 413.87455,480.16402 412.65325,479.70603 411.87297,477.34824 C 409.07415,469.01962 393.12935,461.67484 392.97669,461.60699 L 303.82151,473.93877 C 302.63413,473.66737 285.50195,462.2346 256.81827,442.38842 C 241.89122,432.05822 231.71369,418.14893 224.2841,408.03925 C 218.22847,399.76152 213.42806,393.23094 209.61149,393.23094 C 208.37322,393.23094 207.10103,393.97729 205.72706,395.48696 C 193.2087,409.58284 160.7763,435.82391 138.70802,435.82391 C 132.24529,435.82391 121.76242,437.67283 110.68588,439.62352 C 103.91782,440.79393 96.895322,442.01524 90.381699,442.91426 C 114.85866,451.73479 141.86305,457.73953 170.95383,460.99634 L 172.20905,461.13204 L 172.48046,462.33638 C 172.81971,463.84605 172.7349,466.54309 169.24061,473.88787 C 175.78816,476.29656 180.60553,478.02675 182.35266,478.48473 C 192.92033,481.55496 196.85565,502.35104 196.85565,514.7337 C 196.85565,526.89586 129.85356,621.80135 122.22041,632.57256 L 122.22041,632.57256 C 122.28826,632.57256 113.24722,658.66097 113.24722,674.01208 C 113.24722,693.43421 84.885834,706.12219 81.645986,707.49617 C 80.611271,707.93719 79.797069,708.14074 79.084641,708.14074 L 78.168663,708.14074 L 76.743809,707.02121 C 75.403767,705.15533 76.472407,702.05118 78.406139,696.38569 C 80.713046,689.63459 83.868082,680.35608 83.240467,671.50163 C 82.73159,664.3095 79.47478,658.83059 76.35367,653.47043 C 71.722893,645.68462 67.380479,638.27198 74.233351,627.95874 C 79.644405,619.81672 83.868082,619.27392 88.363157,618.64631 C 93.248374,618.01869 98.77817,617.2893 108.92177,606.46719 C 119.35374,595.35672 123.13639,577.39338 126.74941,560.04068 C 128.97151,549.42213 131.10879,539.2446 134.637,530.44103 C 131.04094,533.5791 125.579,534.07102 120.49024,534.07102 C 118.72613,534.07102 110.8555,533.83354 110.8555,533.83354 C 108.15846,533.83354 104.49455,534.0371 103.66338,535.64854 C 102.76436,537.31087 101.71269,538.83749 100.45745,540.22843 C 103.61249,548.86236 104.07048,555.83397 102.18764,559.95587 C 99.728064,565.36693 91.195904,581.90541 80.373795,602.76936 C 58.322476,645.39625 24.957134,709.75218 22.904665,719.91275 C 21.445885,727.34235 21.445885,735.87452 21.445885,744.93251 C 21.445885,753.9057 21.445885,763.20118 19.851406,771.78424 C 17.103472,786.86394 -8.7983468,788.49235 -19.840969,788.49235 L -26.42244,788.32272 z M 137.5376,232.51075 C 149.07213,261.39797 159.52107,289.04694 167.57828,310.38583 L 169.97,316.71286 C 174.12583,310.09746 178.5361,303.29548 183.09902,296.40868 L 182.50533,295.66233 C 179.01104,292.185 148.73289,260.87213 157.63822,235.05513 C 159.45322,229.84762 160.60668,225.19989 161.5905,220.97621 C 159.77551,221.17976 157.19719,221.33242 153.94039,221.33242 C 153.66898,221.33242 153.44848,221.33242 153.22796,221.26457 C 153.17707,221.73952 153.05833,222.19751 152.85479,222.6555 C 152.60035,223.21526 152.1254,223.91073 151.2603,224.43658 C 150.70054,226.59081 147.42677,227.99871 143.08435,229.61015 C 141.13366,230.33954 139.26778,231.40818 137.5376,232.51075 z"
   id="path32729"
   style="fill:none;stroke:#005b76;stroke-width:16.5;stroke-linecap:round;stroke-linejoin:round;stroke-miterlimit:10;stroke-dasharray:none" /><g
   id="g32731"
   transform="matrix(16.962553,0,0,16.962553,-4902.4949,-5799.5089)">
			<path
   d="M 312.192,368.877 C 312.233,368.899 313.215,369.44 313.407,369.918 L 316.071,373.587 L 315.442,373.965 L 312.058,369.026 L 312.192,368.877 M 312.192,368.577 C 312.109,368.577 312.028,368.611 311.969,368.676 L 311.835,368.824 C 311.742,368.927 311.731,369.08 311.811,369.194 L 315.195,374.133 C 315.253,374.217 315.346,374.263 315.442,374.263 C 315.495,374.263 315.548,374.249 315.596,374.221 L 316.225,373.843 C 316.297,373.8 316.348,373.728 316.365,373.646 C 316.382,373.563 316.363,373.478 316.314,373.41 L 313.668,369.768 C 313.421,369.228 312.518,368.713 312.336,368.613 C 312.291,368.589 312.241,368.577 312.192,368.577 L 312.192,368.577 z"
   id="path32733"
   style="fill:#005b76" />
		</g><polygon
   points="327.351,360.011 327.731,361.955 329.549,362.738 327.817,363.698 327.632,365.67 326.185,364.322 324.254,364.754 325.085,362.96 324.08,361.256 326.042,361.495 327.351,360.011 "
   id="polygon32735"
   style="fill:#eef2bf"
   transform="matrix(16.962553,0,0,16.962553,-4902.4949,-5799.5089)" /><polygon
   points="321.314,354.085 321.481,354.939 322.279,355.283 321.52,355.705 321.438,356.57 320.802,355.979 319.953,356.17 320.319,355.381 319.878,354.633 320.738,354.736 321.314,354.085 "
   id="polygon32737"
   style="fill:#eef2bf"
   transform="matrix(16.962553,0,0,16.962553,-4902.4949,-5799.5089)" /><polygon
   points="321.127,363.758 321.415,365.216 322.774,365.804 321.478,366.522 321.338,368.001 320.254,366.99 318.806,367.313 319.428,365.969 318.678,364.693 320.146,364.872 321.127,363.758 "
   id="polygon32739"
   style="fill:#eef2bf"
   transform="matrix(16.962553,0,0,16.962553,-4902.4949,-5799.5089)" /><polygon
   points="324.2,370.063 324.604,370.836 325.465,370.942 324.855,371.561 325.021,372.415 324.244,372.027 323.484,372.448 323.612,371.587 322.979,370.994 323.834,370.854 324.2,370.063 "
   id="polygon32741"
   style="fill:#eef2bf"
   transform="matrix(16.962553,0,0,16.962553,-4902.4949,-5799.5089)" /><polygon
   points="316.863,383.297 317.751,384.805 319.491,384.925 318.334,386.231 318.755,387.928 317.154,387.23 315.672,388.156 315.84,386.417 314.503,385.294 316.208,384.918 316.863,383.297 "
   id="polygon32743"
   style="fill:#eef2bf"
   transform="matrix(16.962553,0,0,16.962553,-4902.4949,-5799.5089)" /><polygon
   points="307.635,384.926 307.813,385.842 308.67,386.209 307.855,386.662 307.767,387.59 307.086,386.955 306.178,387.158 306.569,386.314 306.096,385.515 307.018,385.625 307.635,384.926 "
   id="polygon32745"
   style="fill:#eef2bf"
   transform="matrix(16.962553,0,0,16.962553,-4902.4949,-5799.5089)" /><polygon
   points="308.969,376.121 309.551,377.171 310.743,377.285 309.925,378.162 310.182,379.332 309.098,378.823 308.063,379.434 308.209,378.242 307.313,377.448 308.488,377.221 308.969,376.121 "
   id="polygon32747"
   style="fill:#eef2bf"
   transform="matrix(16.962553,0,0,16.962553,-4902.4949,-5799.5089)" /><polygon
   points="314.29,379.81 314.51,380.92 315.545,381.367 314.558,381.915 314.45,383.041 313.625,382.27 312.521,382.518 312.995,381.493 312.422,380.521 313.543,380.656 314.29,379.81 "
   id="polygon32749"
   style="fill:#eef2bf"
   transform="matrix(16.962553,0,0,16.962553,-4902.4949,-5799.5089)" /><polygon
   points="321.76,380.488 321.93,381.345 322.726,381.688 321.967,382.109 321.883,382.976 321.247,382.383 320.398,382.573 320.764,381.783 320.324,381.035 321.186,381.142 321.76,380.488 "
   id="polygon32751"
   style="fill:#eef2bf"
   transform="matrix(16.962553,0,0,16.962553,-4902.4949,-5799.5089)" /><polygon
   points="321.719,376.18 321.85,376.841 322.468,377.106 321.879,377.436 321.814,378.107 321.323,377.646 320.663,377.795 320.946,377.183 320.605,376.604 321.272,376.686 321.719,376.18 "
   id="polygon32753"
   style="fill:#eef2bf"
   transform="matrix(16.962553,0,0,16.962553,-4902.4949,-5799.5089)" /><polygon
   points="317.14,377.553 317.269,378.214 317.887,378.481 317.297,378.809 317.233,379.48 316.74,379.022 316.082,379.168 316.364,378.556 316.022,377.978 316.692,378.058 317.14,377.553 "
   id="polygon32755"
   style="fill:#eef2bf"
   transform="matrix(16.962553,0,0,16.962553,-4902.4949,-5799.5089)" /><polygon
   points="317.276,374.575 317.406,375.235 318.026,375.503 317.437,375.83 317.372,376.5 316.879,376.042 316.221,376.188 316.504,375.578 316.161,374.998 316.831,375.081 317.276,374.575 "
   id="polygon32757"
   style="fill:#eef2bf"
   transform="matrix(16.962553,0,0,16.962553,-4902.4949,-5799.5089)" /><polygon
   points="319.69,371.948 319.82,372.608 320.438,372.877 319.849,373.202 319.785,373.877 319.293,373.416 318.635,373.564 318.918,372.952 318.576,372.372 319.243,372.452 319.69,371.948 "
   id="polygon32759"
   style="fill:#eef2bf"
   transform="matrix(16.962553,0,0,16.962553,-4902.4949,-5799.5089)" /><path
   d="M 138.28395,372.43484 C 138.28395,372.43484 145.81533,372.367 166.17038,357.08374 C 218.99178,317.30655 323.87124,230.64487 351.72376,191.32566 C 390.31357,136.85891 392.48477,108.42968 404.29071,91.874219 C 416.09664,75.318767 345.31191,146.34097 335.64326,146.34097 C 325.99157,146.34097 328.12885,183.03098 314.18563,184.2014 C 300.22544,185.40574 291.67632,210.27284 263.75596,207.89808 C 235.88649,205.52333 147.9526,347.60167 138.28395,372.43484 z"
   id="path32761"
   style="fill:#6dcde3" /><path
   d="M 179.50295,348.7212 C 169.22365,326.9752 104.88469,138.9453 63.716568,86.497089 C 22.548451,34.065838 8.4016821,26.822828 -14.752203,7.2141161 C -6.169151,37.899374 43.140991,98.014664 18.697951,109.51528 C -5.7450873,121.01588 64.988759,158.11298 34.133875,172.19191 C 3.2450664,186.27083 35.423029,246.38612 20.004068,243.82478 C 4.53422,241.28039 89.465726,344.8707 122.89892,353.80997 C 156.3321,362.78316 179.50295,348.7212 179.50295,348.7212 z"
   id="path32763"
   style="fill:#b1e0e6" /><path
   d="M 78.066888,440.77697 C 78.066888,440.77697 171.00471,476.61885 180.28323,479.29893 C 189.56175,481.97901 193.53099,501.87609 193.53099,513.81773 C 193.53099,525.75936 119.20108,630.62187 119.20108,630.62187 C 119.20108,630.62187 109.92256,657.20219 109.92256,673.11307 C 109.92256,689.0409 88.651521,701.03343 79.373005,704.9857 C 70.077525,708.93797 84.682284,689.05786 83.342242,670.46691 C 82.019163,651.85899 63.428204,643.95443 74.046762,628.00964 C 84.665321,612.04787 88.651521,628.00964 108.56556,606.77252 C 128.4796,585.48452 124.47644,541.70417 140.42123,519.11004 C 146.57864,510.3913 87.31148,508.50845 87.31148,508.50845 C 87.31148,508.50845 59.40808,460.72494 60.782046,451.37857 C 62.13905,442.08309 78.066888,440.77697 78.066888,440.77697 z"
   id="path32765"
   style="fill:#eac47d" /><path
   d="M 108.1415,379.71178 C 108.1415,379.71178 63.869231,404.13786 45.549673,398.01437 C 27.230116,391.92482 -2.1659887,392.28103 -17.432286,409.07397 C -52.79921,448.00302 -26.642953,485.54116 18.053375,524.72465 C 46.312988,549.50694 50.892877,551.05053 50.892877,551.05053 C 50.892877,551.05053 28.790671,570.52355 16.56067,607.17962 C 4.3306692,643.83569 8.9614462,656.0657 10.454151,677.43852 C 11.997744,698.79437 7.9776183,711.10918 -9.7482498,715.94351 C -20.84176,718.96285 -24.726184,729.71711 -14.718278,738.11357 C -5.1683605,746.10293 -2.9801911,753.51557 -9.3920362,765.57595 C -15.871731,777.78898 -23.895019,785.76138 -23.895019,785.76138 C -23.895019,785.76138 13.50741,787.35586 16.577632,770.56294 C 19.647855,753.78696 16.594595,733.92382 19.647855,718.65752 C 22.701115,703.39123 91.399458,575.1204 99.032607,558.36139 C 106.66576,541.55151 68.483045,469.74901 60.883821,453.00697 C 53.250673,436.21405 115.80857,433.12686 137.19834,433.12686 C 158.57117,433.12686 190.63039,407.20808 202.84343,393.45145 C 215.07343,379.71178 224.2332,417.87752 256.29243,440.03062 C 284.94218,459.82592 302.07437,471.32653 302.07437,471.32653 L 392.14553,459.13046 C 392.14553,459.13046 408.92149,466.72968 412.00868,475.8725 C 415.06193,485.04923 422.69508,453.02394 408.93845,442.30361 C 395.21574,431.60024 305.12763,442.30361 305.12763,442.30361 C 305.12763,442.30361 250.16895,378.16819 237.95592,367.49875 C 225.72592,356.81234 201.31679,358.322 218.10973,337.69554 C 214.71722,336.3555 200.79096,323.20951 197.50023,321.71681 C 186.03354,337.69554 175.7712,341.13893 172.31083,335.43952 C 163.13409,320.19018 85.292935,340.03637 71.57023,340.03637 C 57.813599,340.03637 10.471114,330.85963 1.3113348,320.17322 C -7.8484439,309.48681 -25.184173,247.794 -38.364077,239.24488 C -68.913635,219.39869 -84.16297,236.17465 -85.706562,245.33444 C -87.21623,254.51118 -42.943967,257.56444 -42.943967,262.14433 C -42.943967,266.72421 -24.641372,338.47581 -1.7079996,355.25178 C 21.123596,372.07864 108.1415,379.71178 108.1415,379.71178 z"
   id="path32767"
   style="fill:#ffdd9f" /><path
   d="M 237.92198,367.49875 C 237.92198,367.49875 181.43668,350.70582 172.29387,335.42256 C 163.11713,320.17322 180.62249,379.76267 111.43223,379.76267 C 101.119,379.21986 63.869231,404.15482 45.549673,398.03134 C 27.247079,391.92482 -2.1659887,392.29799 -17.449249,409.07397 C -36.515158,430.02272 -31.205879,431.95644 -41.858363,463.99871 C -18.958916,479.28197 -39.008654,501.85913 -18.568777,520.16172 C 1.328297,537.98936 6.9768272,538.87141 23.786718,546.4876 C 37.136247,532.37476 86.768678,559.83713 100.49139,533.88443 C 104.1044,527.0994 127.69932,536.64932 133.6871,525.89506 C 139.42044,515.56487 171.08953,470.17308 169.18972,461.75965 C 120.72771,456.41645 89.652309,444.2543 81.476361,441.04837 C 99.761997,439.31819 125.0362,433.09294 137.1305,433.09294 C 158.50331,433.09294 190.59647,407.20808 202.77557,393.43449 C 215.02254,379.72875 237.92198,367.49875 237.92198,367.49875 z"
   id="path32769"
   style="fill:#ca5ca3" /><path
   d="M 411.95778,475.8725 L 456.21308,536.97162 L 448.61386,541.55151 L 392.09463,459.14742 C 392.09463,459.13046 408.8706,468.25631 411.95778,475.8725 z"
   id="path32771"
   style="fill:#a24883" /><path
   d="M 226.48923,368.6522 C 222.14681,370.84036 202.21582,384.58004 193.92112,393.99425 C 185.60948,403.39151 167.51044,421.47359 145.44215,426.88465 C 123.37386,432.2957 76.709884,437.02825 76.709884,437.02825 C 76.709884,437.02825 124.08629,427.61404 141.1167,418.57299 C 158.11318,409.53195 179.43511,403.74772 189.95189,388.92244 C 195.92271,380.45814 201.87656,363.22418 188.49311,353.45375 C 210.91761,363.95357 226.48923,368.6522 226.48923,368.6522 z"
   id="path32773"
   style="fill:#a9218e" /><path
   d="M 73.96195,444.62747 C 82.171826,447.18882 155.39917,466.89931 161.91278,465.81371 C 168.42641,464.7281 140.20072,507.6264 132.6015,514.6489 C 125.00227,521.70532 128.78492,523.85956 115.77465,523.33372 C 102.7474,522.79092 93.502811,524.40236 87.023116,532.00159 C 80.492533,539.63474 52.283807,537.44657 38.713765,536.36096 C 25.12676,535.29232 20.852196,539.90614 21.361073,537.98936 C 35.456954,479.94351 -1.9963632,475.58413 3.431654,464.18529 C 8.8596713,452.80342 65.311048,441.91347 73.96195,444.62747 z"
   id="path32775"
   style="fill:#a9218e" /><path
   d="M 86.446389,450.39475 C 93.146597,452.53202 156.6544,466.45828 161.96368,465.59319 C 167.27296,464.69418 147.29107,492.07173 141.1167,497.839 C 134.90841,503.60628 36.186344,454.2622 46.296026,452.26062 C 60.357982,449.44484 79.373005,448.20658 86.446389,450.39475 z"
   id="path32777"
   style="fill:#9a258f" /><path
   d="M 85.377748,394.70668 C 85.377748,394.70668 58.254626,405.56272 47.941394,402.8487 C 37.628161,400.1347 9.4024732,393.07828 -12.309595,412.60218 C -34.021664,432.12607 -34.581428,461.99713 -34.581428,461.99713 C -34.581428,461.99713 -17.313549,487.06778 -22.622828,475.56717 C -25.879638,468.51075 -29.15341,464.16833 -23.182592,449.51269 C -17.194811,434.87401 -11.783756,419.67556 6.1456627,416.41875 C 24.075081,413.16193 39.799368,416.96155 56.609258,409.34536 C 73.436111,401.7631 85.377748,394.70668 85.377748,394.70668 z"
   id="path32779"
   style="fill:#d178b1" /><path
   d="M 209.49275,388.90548 C 209.49275,388.90548 234.80088,370.12794 238.07466,369.72084 C 241.33147,369.36462 303.92328,443.89808 303.92328,443.89808 C 303.92328,443.89808 277.15637,437.40142 257.61551,419.30238 C 238.07466,401.2203 214.19138,387.81988 209.49275,388.90548 z"
   id="path32798"
   style="fill:url(#radialGradient33039)" /><path
   d="M 137.14746,259.49817 C 132.51668,264.43428 115.99516,275.96881 110.43144,275.52778 C 110.07523,278.58104 111.55097,282.00747 111.55097,282.00747 C 111.55097,282.00747 136.87606,282.70294 141.35418,270.94789 C 140.28553,267.69108 136.77428,259.49817 136.77428,259.49817"
   id="path32800"
   style="fill:#ca5ca3" /><path
   d="M 129.7009,246.74233 C 121.54191,236.02199 107.22551,202.74147 108.07364,190.98642 C 108.92177,179.19744 99.21919,193.10673 99.21919,193.10673 C 99.21919,193.10673 108.76911,242.89183 128.37782,254.32459 C 133.8228,252.57745 129.7009,246.74233 129.7009,246.74233"
   id="path32802"
   style="fill:#ca5ca3" /><path
   d="M 149.34354,217.12571 C 144.76365,208.71229 137.89381,183.53985 139.42044,175.14339 C 140.96404,166.72997 133.33089,175.88974 133.33089,175.88974 C 133.33089,175.88974 135.62083,212.52886 147.83387,222.45195 C 151.65045,221.7056 149.34354,217.12571 149.34354,217.12571"
   id="path32804"
   style="fill:#ca5ca3" /><path
   d="M 264.62105,218.68626 C 277.00371,239.31273 274.71377,262.22914 272.06761,288.31755 C 272.06761,288.31755 260.34648,335.32078 247.26836,341.8344 C 234.22415,348.36499 205.50655,336.59298 193.78542,314.42292 C 183.31953,294.71243 141.81217,227.59161 197.66985,204.8109 C 232.91803,190.44361 253.17132,199.58644 264.62105,218.68626 z"
   id="path32806"
   style="fill:#ffdd9f" /><path
   d="M 100.13517,196.51621 C 106.98804,223.99555 117.30127,240.77151 122.64447,243.06145 C 127.95375,245.3514 135.62083,252.61137 137.1305,262.53447 C 133.6871,269.06505 125.69774,271.71121 117.28431,275.52778 C 108.24327,279.5988 98.964752,267.47057 97.45509,258.32775 C 95.911495,249.18494 87.498067,220.92533 87.498067,220.92533 C 87.498067,220.92533 91.72174,201.11306 100.13517,196.51621 z"
   id="path32808"
   style="fill:#7c4918" /><path
   d="M 140.18376,272.08439 C 132.56757,280.49781 118.04763,282.77079 114.24801,282.00747 C 110.39751,281.2272 121.8642,311.77676 136.38415,315.59334 C 150.88712,319.40991 149.0891,327.38231 152.3968,342.30935 C 153.94039,349.16222 162.35381,365.2088 166.91674,366.73543 C 165.40707,327.06002 156.21337,280.48085 140.18376,272.08439 z"
   id="path32810"
   style="fill:#7c4918" /><path
   d="M 228.74525,179.72328 C 228.74525,179.72328 208.27145,173.36232 203.69156,164.9489 C 199.0947,156.5694 196.66906,150.41199 178.3495,151.92165 C 160.02995,153.43133 139.42044,164.44003 139.42044,178.19665 C 139.42044,191.95329 145.54392,218.65234 152.3968,218.65234 C 159.30056,218.65234 163.0832,217.87206 163.0832,217.87206 C 163.0832,217.87206 184.47298,196.51621 198.97597,192.68268 C 213.46199,188.8661 221.09514,185.79588 228.74525,179.72328 z"
   id="path32812"
   style="fill:#864f1c" /><path
   d="M 133.33089,175.9067 C 132.56757,186.59311 137.91077,208.72925 142.4737,215.61605 C 147.07055,222.46891 153.19403,222.46891 140.96404,227.0488 C 128.73404,231.64566 121.10089,246.91195 114.24801,221.72256 C 107.36121,196.55014 102.78133,187.39036 111.19475,182.7935 C 119.55729,178.19665 133.33089,175.9067 133.33089,175.9067 z"
   id="path32814"
   style="fill:#704112" /><path
   d="M 274.54415,249.2019 C 266.13071,224.02947 269.69285,215.17502 252.89992,209.81485 C 236.80246,204.70912 225.40362,223.58845 225.40362,223.58845 C 225.40362,223.58845 199.85802,208.27126 189.93493,224.30087 C 180.01184,240.33049 194.41304,253.78179 194.41304,253.78179 L 201.26591,267.53842 C 201.26591,267.53842 187.50929,257.63228 181.40276,252.28908 C 175.29624,246.94588 173.78657,241.56875 170.69939,237.03975 C 171.08953,241.84015 175.29624,281.29505 185.2363,283.585 C 195.14242,285.87494 194.37911,292.74477 195.14242,296.56135 C 195.90575,300.37792 191.32586,302.66787 182.16607,293.52506 C 173.0063,284.34831 150.10685,256.85201 157.74,234.71588 C 165.39011,212.57975 161.52265,200.29885 182.91243,190.44361 C 201.24895,182.03019 205.8458,187.37339 234.07149,178.9939 C 256.10584,172.42939 284.46723,222.48587 274.54415,249.2019 z"
   id="path32816"
   style="fill:#734313" /><path
   d="M 198.26354,324.14246 C 206.21898,332.84425 213.83517,337.18667 215.27698,337.89909 C 216.71879,338.62848 204.77716,349.1283 218.17758,359.5942 C 205.15034,351.99497 194.31127,337.1697 198.26354,324.14246 z"
   id="path32818"
   style="fill:#c19b4f" /><g
   id="g32820"
   transform="matrix(16.962553,0,0,16.962553,-4902.4949,-5799.5089)">
			<path
   d="M 327.359,360.008 L 327.741,361.953 L 329.557,362.736 L 327.826,363.696 L 327.64,365.668 L 326.193,364.32 L 324.262,364.752 L 325.093,362.957 L 324.089,361.254 L 326.05,361.492 L 327.359,360.008 M 327.359,359.808 C 327.302,359.808 327.248,359.832 327.209,359.876 L 325.971,361.281 L 324.115,361.055 C 324.106,361.054 324.098,361.054 324.091,361.054 C 324.024,361.054 323.961,361.088 323.924,361.145 C 323.882,361.208 323.88,361.291 323.919,361.356 L 324.869,362.969 L 324.082,364.669 C 324.05,364.738 324.061,364.819 324.108,364.878 C 324.146,364.926 324.204,364.953 324.263,364.953 C 324.278,364.953 324.292,364.951 324.307,364.948 L 326.134,364.539 L 327.504,365.815 C 327.542,365.85 327.591,365.869 327.641,365.869 C 327.664,365.869 327.689,365.865 327.712,365.856 C 327.783,365.829 327.833,365.764 327.84,365.688 L 328.016,363.822 L 329.655,362.913 C 329.722,362.876 329.761,362.805 329.759,362.728 C 329.755,362.652 329.708,362.584 329.638,362.554 L 327.918,361.812 L 327.557,359.97 C 327.542,359.895 327.487,359.835 327.413,359.816 C 327.395,359.81 327.377,359.808 327.359,359.808 L 327.359,359.808 z"
   id="path32822"
   style="fill:#c5e8f3" />
		</g><g
   id="g32824"
   transform="matrix(16.962553,0,0,16.962553,-4902.4949,-5799.5089)">
			<path
   d="M 321.323,354.1 L 321.491,354.954 L 322.288,355.298 L 321.528,355.722 L 321.447,356.587 L 320.811,355.995 L 319.961,356.184 L 320.327,355.395 L 319.886,354.647 L 320.746,354.751 L 321.323,354.1 M 321.323,353.899 C 321.266,353.899 321.212,353.923 321.174,353.967 L 320.667,354.539 L 319.911,354.447 C 319.902,354.446 319.894,354.446 319.887,354.446 C 319.82,354.446 319.757,354.48 319.72,354.537 C 319.678,354.6 319.676,354.683 319.715,354.748 L 320.103,355.406 L 319.781,356.1 C 319.749,356.169 319.76,356.25 319.806,356.309 C 319.845,356.357 319.903,356.384 319.962,356.384 C 319.977,356.384 319.991,356.382 320.006,356.379 L 320.752,356.212 L 321.311,356.732 C 321.349,356.767 321.398,356.786 321.448,356.786 C 321.472,356.786 321.496,356.782 321.519,356.773 C 321.59,356.746 321.64,356.681 321.647,356.605 L 321.718,355.845 L 322.386,355.472 C 322.452,355.435 322.492,355.363 322.489,355.287 C 322.486,355.211 322.438,355.144 322.368,355.114 L 321.668,354.812 L 321.521,354.062 C 321.506,353.987 321.451,353.928 321.377,353.908 C 321.358,353.902 321.341,353.899 321.323,353.899 L 321.323,353.899 z"
   id="path32826"
   style="fill:#c5e8f3" />
		</g><g
   id="g32828"
   transform="matrix(16.962553,0,0,16.962553,-4902.4949,-5799.5089)">
			<path
   d="M 321.136,363.741 L 321.424,365.197 L 322.783,365.786 L 321.486,366.505 L 321.346,367.983 L 320.262,366.973 L 318.814,367.295 L 319.436,365.951 L 318.686,364.675 L 320.155,364.855 L 321.136,363.741 M 321.136,363.541 C 321.079,363.541 321.025,363.565 320.986,363.609 L 320.076,364.643 L 318.712,364.476 C 318.704,364.475 318.695,364.475 318.688,364.475 C 318.622,364.475 318.558,364.509 318.521,364.565 C 318.479,364.629 318.477,364.711 318.515,364.776 L 319.212,365.962 L 318.634,367.211 C 318.602,367.28 318.613,367.361 318.659,367.42 C 318.698,367.468 318.756,367.495 318.815,367.495 C 318.83,367.495 318.844,367.493 318.858,367.49 L 320.204,367.191 L 321.211,368.129 C 321.249,368.164 321.298,368.183 321.348,368.183 C 321.372,368.183 321.396,368.179 321.419,368.17 C 321.49,368.143 321.54,368.078 321.547,368.002 L 321.677,366.629 L 322.881,365.961 C 322.948,365.924 322.987,365.853 322.985,365.776 C 322.981,365.7 322.934,365.632 322.864,365.602 L 321.601,365.055 L 321.333,363.701 C 321.318,363.627 321.263,363.567 321.188,363.547 C 321.171,363.543 321.153,363.541 321.136,363.541 L 321.136,363.541 z"
   id="path32830"
   style="fill:#c5e8f3" />
		</g><g
   id="g32832"
   transform="matrix(16.962553,0,0,16.962553,-4902.4949,-5799.5089)">
			<path
   d="M 324.188,370.048 L 324.591,370.821 L 325.453,370.927 L 324.843,371.545 L 325.009,372.398 L 324.232,372.011 L 323.471,372.433 L 323.6,371.571 L 322.964,370.979 L 323.821,370.837 L 324.188,370.048 M 324.188,369.848 C 324.186,369.848 324.185,369.848 324.183,369.848 C 324.107,369.85 324.038,369.895 324.006,369.964 L 323.685,370.658 L 322.932,370.783 C 322.857,370.795 322.794,370.849 322.773,370.923 C 322.751,370.996 322.772,371.075 322.828,371.127 L 323.387,371.647 L 323.274,372.405 C 323.263,372.481 323.295,372.556 323.358,372.599 C 323.392,372.622 323.432,372.635 323.472,372.635 C 323.505,372.635 323.538,372.627 323.569,372.61 L 324.238,372.239 L 324.922,372.579 C 324.95,372.593 324.981,372.6 325.011,372.6 C 325.054,372.6 325.097,372.586 325.132,372.559 C 325.193,372.513 325.222,372.436 325.207,372.362 L 325.061,371.613 L 325.597,371.07 C 325.651,371.016 325.668,370.936 325.643,370.864 C 325.619,370.792 325.555,370.74 325.479,370.731 L 324.721,370.637 L 324.367,369.957 C 324.331,369.889 324.263,369.848 324.188,369.848 L 324.188,369.848 z"
   id="path32834"
   style="fill:#c5e8f3" />
		</g><g
   id="g32836"
   transform="matrix(16.962553,0,0,16.962553,-4902.4949,-5799.5089)">
			<path
   d="M 316.855,383.298 L 317.743,384.806 L 319.483,384.926 L 318.324,386.233 L 318.748,387.929 L 317.147,387.231 L 315.664,388.157 L 315.833,386.419 L 314.496,385.296 L 316.201,384.92 L 316.855,383.298 M 316.855,383.098 C 316.85,383.098 316.845,383.098 316.84,383.099 C 316.764,383.104 316.697,383.153 316.669,383.224 L 316.054,384.747 L 314.452,385.101 C 314.378,385.118 314.319,385.175 314.301,385.248 C 314.282,385.322 314.309,385.4 314.366,385.449 L 315.623,386.504 L 315.464,388.137 C 315.457,388.213 315.493,388.286 315.558,388.326 C 315.59,388.346 315.627,388.356 315.663,388.356 C 315.7,388.356 315.736,388.346 315.768,388.326 L 317.163,387.456 L 318.667,388.112 C 318.692,388.123 318.72,388.129 318.747,388.129 C 318.794,388.129 318.84,388.112 318.876,388.082 C 318.935,388.033 318.96,387.955 318.941,387.881 L 318.543,386.287 L 319.632,385.059 C 319.683,385.002 319.696,384.921 319.668,384.851 C 319.639,384.78 319.572,384.732 319.496,384.727 L 317.861,384.614 L 317.026,383.197 C 316.992,383.135 316.926,383.098 316.855,383.098 L 316.855,383.098 z"
   id="path32838"
   style="fill:#c5e8f3" />
		</g><g
   id="g32840"
   transform="matrix(16.962553,0,0,16.962553,-4902.4949,-5799.5089)">
			<path
   d="M 307.628,384.924 L 307.806,385.84 L 308.662,386.207 L 307.849,386.66 L 307.759,387.588 L 307.078,386.953 L 306.17,387.155 L 306.561,386.311 L 306.088,385.511 L 307.011,385.621 L 307.628,384.924 M 307.628,384.724 C 307.571,384.724 307.517,384.748 307.479,384.792 L 306.931,385.412 L 306.113,385.314 C 306.105,385.313 306.097,385.313 306.089,385.313 C 306.022,385.313 305.959,385.347 305.922,385.404 C 305.88,385.468 305.879,385.55 305.917,385.615 L 306.336,386.324 L 305.989,387.073 C 305.957,387.142 305.967,387.223 306.015,387.282 C 306.054,387.33 306.111,387.357 306.171,387.357 C 306.186,387.357 306.2,387.355 306.214,387.352 L 307.019,387.173 L 307.623,387.736 C 307.661,387.771 307.71,387.79 307.76,387.79 C 307.783,387.79 307.808,387.786 307.831,387.777 C 307.901,387.75 307.951,387.685 307.959,387.61 L 308.038,386.786 L 308.761,386.384 C 308.827,386.347 308.867,386.275 308.864,386.199 C 308.859,386.123 308.812,386.055 308.743,386.026 L 307.983,385.7 L 307.826,384.888 C 307.811,384.813 307.756,384.753 307.682,384.733 C 307.663,384.726 307.646,384.724 307.628,384.724 L 307.628,384.724 z"
   id="path32842"
   style="fill:#c5e8f3" />
		</g><g
   id="g32844"
   transform="matrix(16.962553,0,0,16.962553,-4902.4949,-5799.5089)">
			<path
   d="M 308.981,376.131 L 309.563,377.182 L 310.755,377.296 L 309.937,378.173 L 310.194,379.342 L 309.11,378.834 L 308.075,379.444 L 308.222,378.254 L 307.325,377.459 L 308.501,377.23 L 308.981,376.131 M 308.981,375.931 C 308.978,375.931 308.975,375.931 308.971,375.931 C 308.896,375.934 308.828,375.981 308.797,376.051 L 308.359,377.054 L 307.287,377.262 C 307.212,377.277 307.152,377.332 307.132,377.406 C 307.112,377.48 307.136,377.558 307.193,377.609 L 308.012,378.334 L 307.877,379.42 C 307.867,379.496 307.901,379.57 307.966,379.611 C 307.999,379.633 308.037,379.644 308.075,379.644 C 308.11,379.644 308.145,379.635 308.177,379.616 L 309.121,379.059 L 310.109,379.522 C 310.136,379.535 310.166,379.541 310.194,379.541 C 310.239,379.541 310.283,379.526 310.319,379.497 C 310.379,379.449 310.406,379.372 310.389,379.298 L 310.155,378.232 L 310.902,377.432 C 310.954,377.376 310.969,377.296 310.943,377.225 C 310.916,377.154 310.85,377.104 310.775,377.097 L 309.687,376.993 L 309.156,376.035 C 309.121,375.97 309.054,375.931 308.981,375.931 L 308.981,375.931 z"
   id="path32846"
   style="fill:#c5e8f3" />
		</g><g
   id="g32848"
   transform="matrix(16.962553,0,0,16.962553,-4902.4949,-5799.5089)">
			<path
   d="M 314.3,379.791 L 314.52,380.901 L 315.555,381.347 L 314.568,381.894 L 314.46,383.022 L 313.635,382.251 L 312.531,382.498 L 313.006,381.475 L 312.433,380.501 L 313.554,380.637 L 314.3,379.791 M 314.3,379.591 C 314.243,379.591 314.189,379.615 314.151,379.659 L 313.473,380.426 L 312.456,380.302 C 312.447,380.301 312.439,380.301 312.432,380.301 C 312.365,380.301 312.302,380.335 312.265,380.392 C 312.223,380.455 312.221,380.538 312.26,380.603 L 312.78,381.486 L 312.349,382.414 C 312.317,382.483 312.328,382.564 312.375,382.623 C 312.413,382.671 312.471,382.698 312.53,382.698 C 312.545,382.698 312.559,382.696 312.574,382.693 L 313.574,382.469 L 314.322,383.168 C 314.36,383.203 314.409,383.222 314.459,383.222 C 314.482,383.222 314.507,383.218 314.529,383.209 C 314.6,383.182 314.65,383.117 314.658,383.041 L 314.757,382.018 L 315.652,381.522 C 315.719,381.485 315.758,381.414 315.756,381.337 C 315.752,381.261 315.705,381.193 315.635,381.163 L 314.697,380.758 L 314.498,379.751 C 314.483,379.677 314.428,379.617 314.353,379.597 C 314.335,379.593 314.317,379.591 314.3,379.591 L 314.3,379.591 z"
   id="path32850"
   style="fill:#c5e8f3" />
		</g><g
   id="g32852"
   transform="matrix(16.962553,0,0,16.962553,-4902.4949,-5799.5089)">
			<path
   d="M 321.781,380.492 L 321.949,381.348 L 322.747,381.692 L 321.986,382.113 L 321.904,382.979 L 321.266,382.386 L 320.418,382.576 L 320.783,381.786 L 320.343,381.04 L 321.204,381.144 L 321.781,380.492 M 321.781,380.292 C 321.724,380.292 321.67,380.316 321.631,380.36 L 321.125,380.934 L 320.368,380.842 C 320.359,380.841 320.351,380.841 320.344,380.841 C 320.277,380.841 320.214,380.875 320.177,380.932 C 320.135,380.995 320.133,381.078 320.172,381.143 L 320.559,381.799 L 320.238,382.494 C 320.206,382.563 320.217,382.644 320.264,382.703 C 320.302,382.751 320.36,382.778 320.419,382.778 C 320.434,382.778 320.448,382.776 320.463,382.773 L 321.208,382.606 L 321.769,383.127 C 321.806,383.162 321.855,383.181 321.905,383.181 C 321.929,383.181 321.953,383.177 321.976,383.168 C 322.047,383.141 322.097,383.076 322.104,383 L 322.176,382.239 L 322.844,381.869 C 322.911,381.832 322.95,381.761 322.948,381.684 C 322.944,381.608 322.897,381.54 322.827,381.51 L 322.126,381.208 L 321.979,380.455 C 321.964,380.38 321.909,380.32 321.835,380.301 C 321.816,380.294 321.799,380.292 321.781,380.292 L 321.781,380.292 z"
   id="path32854"
   style="fill:#c5e8f3" />
		</g><g
   id="g32856"
   transform="matrix(16.962553,0,0,16.962553,-4902.4949,-5799.5089)">
			<path
   d="M 321.728,376.178 L 321.86,376.839 L 322.477,377.105 L 321.888,377.434 L 321.824,378.106 L 321.333,377.645 L 320.673,377.793 L 320.957,377.181 L 320.615,376.602 L 321.282,376.684 L 321.728,376.178 M 321.728,375.978 C 321.671,375.978 321.617,376.002 321.578,376.046 L 321.202,376.473 L 320.639,376.404 C 320.631,376.403 320.622,376.402 320.615,376.402 C 320.548,376.402 320.485,376.436 320.448,376.493 C 320.406,376.556 320.404,376.639 320.443,376.704 L 320.731,377.193 L 320.491,377.71 C 320.459,377.779 320.47,377.86 320.517,377.919 C 320.555,377.967 320.613,377.994 320.672,377.994 C 320.687,377.994 320.701,377.992 320.716,377.989 L 321.273,377.864 L 321.687,378.253 C 321.725,378.288 321.774,378.307 321.824,378.307 C 321.847,378.307 321.872,378.303 321.894,378.294 C 321.965,378.267 322.015,378.202 322.023,378.126 L 322.078,377.559 L 322.575,377.281 C 322.641,377.243 322.681,377.172 322.678,377.096 C 322.673,377.02 322.627,376.952 322.557,376.923 L 322.036,376.699 L 321.925,376.141 C 321.91,376.066 321.854,376.007 321.78,375.987 C 321.763,375.98 321.745,375.978 321.728,375.978 L 321.728,375.978 z"
   id="path32858"
   style="fill:#c5e8f3" />
		</g><g
   id="g32860"
   transform="matrix(16.962553,0,0,16.962553,-4902.4949,-5799.5089)">
			<path
   d="M 317.133,377.551 L 317.262,378.212 L 317.88,378.48 L 317.29,378.807 L 317.227,379.479 L 316.734,379.021 L 316.076,379.167 L 316.358,378.555 L 316.017,377.977 L 316.686,378.057 L 317.133,377.551 M 317.133,377.351 C 317.076,377.351 317.022,377.375 316.984,377.418 L 316.606,377.845 L 316.041,377.777 C 316.033,377.776 316.025,377.776 316.018,377.776 C 315.951,377.776 315.888,377.81 315.851,377.867 C 315.809,377.93 315.807,378.013 315.846,378.078 L 316.133,378.566 L 315.895,379.084 C 315.863,379.153 315.874,379.234 315.921,379.293 C 315.959,379.341 316.017,379.368 316.076,379.368 C 316.091,379.368 316.104,379.366 316.119,379.363 L 316.675,379.24 L 317.092,379.627 C 317.129,379.662 317.178,379.681 317.228,379.681 C 317.252,379.681 317.276,379.677 317.299,379.668 C 317.37,379.641 317.42,379.576 317.427,379.5 L 317.481,378.934 L 317.978,378.658 C 318.045,378.621 318.084,378.55 318.082,378.473 C 318.078,378.397 318.031,378.329 317.961,378.299 L 317.44,378.073 L 317.332,377.515 C 317.317,377.44 317.262,377.38 317.188,377.36 C 317.168,377.353 317.15,377.351 317.133,377.351 L 317.133,377.351 z"
   id="path32862"
   style="fill:#c5e8f3" />
		</g><g
   id="g32864"
   transform="matrix(16.962553,0,0,16.962553,-4902.4949,-5799.5089)">
			<path
   d="M 317.259,374.589 L 317.39,375.249 L 318.011,375.517 L 317.421,375.846 L 317.357,376.514 L 316.863,376.056 L 316.206,376.204 L 316.489,375.594 L 316.146,375.012 L 316.816,375.095 L 317.259,374.589 M 317.259,374.389 C 317.202,374.389 317.147,374.413 317.109,374.457 L 316.735,374.883 L 316.171,374.813 C 316.163,374.812 316.154,374.811 316.147,374.811 C 316.081,374.811 316.017,374.845 315.98,374.901 C 315.938,374.965 315.936,375.047 315.975,375.112 L 316.264,375.604 L 316.025,376.119 C 315.993,376.188 316.004,376.269 316.051,376.328 C 316.089,376.376 316.147,376.403 316.206,376.403 C 316.221,376.403 316.235,376.401 316.25,376.398 L 316.805,376.273 L 317.222,376.659 C 317.259,376.694 317.308,376.713 317.358,376.713 C 317.382,376.713 317.406,376.709 317.429,376.7 C 317.5,376.673 317.549,376.608 317.557,376.532 L 317.612,375.969 L 318.11,375.691 C 318.176,375.654 318.216,375.582 318.213,375.506 C 318.21,375.43 318.162,375.363 318.092,375.333 L 317.568,375.107 L 317.458,374.55 C 317.443,374.475 317.387,374.416 317.313,374.396 C 317.293,374.391 317.276,374.389 317.259,374.389 L 317.259,374.389 z"
   id="path32866"
   style="fill:#c5e8f3" />
		</g><g
   id="g32868"
   transform="matrix(16.962553,0,0,16.962553,-4902.4949,-5799.5089)">
			<path
   d="M 319.684,371.93 L 319.814,372.59 L 320.431,372.859 L 319.842,373.185 L 319.779,373.86 L 319.287,373.399 L 318.629,373.546 L 318.911,372.935 L 318.57,372.354 L 319.237,372.435 L 319.684,371.93 M 319.684,371.729 C 319.627,371.729 319.573,371.753 319.535,371.796 L 319.157,372.222 L 318.594,372.154 C 318.585,372.153 318.577,372.153 318.57,372.153 C 318.504,372.153 318.44,372.187 318.403,372.243 C 318.361,372.307 318.359,372.389 318.397,372.454 L 318.685,372.945 L 318.447,373.461 C 318.415,373.53 318.426,373.611 318.473,373.67 C 318.511,373.718 318.569,373.745 318.628,373.745 C 318.643,373.745 318.657,373.743 318.672,373.74 L 319.227,373.615 L 319.642,374.004 C 319.68,374.039 319.729,374.058 319.779,374.058 C 319.802,374.058 319.827,374.054 319.85,374.045 C 319.921,374.018 319.971,373.953 319.978,373.877 L 320.032,373.308 L 320.528,373.033 C 320.594,372.996 320.634,372.925 320.632,372.848 C 320.628,372.772 320.581,372.705 320.512,372.674 L 319.991,372.447 L 319.882,371.89 C 319.867,371.815 319.812,371.756 319.738,371.736 C 319.719,371.732 319.701,371.729 319.684,371.729 L 319.684,371.729 z"
   id="path32870"
   style="fill:#c5e8f3" />
		</g><path
   stroke-miterlimit="10"
   d="M 140.65871,175.92367 C 142.2023,167.5272 134.58612,176.67003 134.58612,176.67003 M 134.56915,176.67003 C 134.56915,176.67003 123.11943,178.60375 114.73993,182.43729 C 97.539895,142.57529 79.74618,106.13973 64.920909,87.294329 C 23.786718,34.846116 9.6229862,27.586143 -13.530899,7.9774309 C -4.9478473,38.679652 44.362295,98.794941 19.919256,110.31251 C -4.5237834,121.83009 66.227026,158.91023 35.355179,172.98915 C 4.4663694,187.03414 36.644333,247.16639 21.208409,244.58809 C 9.1141096,242.60346 58.509065,305.5515 96.57303,337.3054 C 85.581299,339.2052 76.591146,340.79968 72.723683,340.79968 C 58.984016,340.79968 11.624567,331.62295 2.4817514,320.9535 C -6.6780277,310.26709 -24.03072,248.59125 -37.210624,240.02516 C -67.726256,220.16201 -83.009517,236.98886 -84.536147,246.14864 C -86.045813,255.30842 -41.77355,258.32775 -41.77355,262.9246 C -41.77355,267.5045 -23.470955,339.2561 -0.55454612,356.03206 C 22.344901,372.84195 109.3628,380.45814 109.3628,380.45814 C 109.3628,380.45814 108.70125,380.81435 107.59869,381.40803 C 93.316218,385.73349 62.86844,404.10394 46.838828,398.81162 C 46.804902,398.79466 46.770977,398.79466 46.770977,398.7777 C 28.45142,392.68814 -0.94468465,393.04435 -16.244908,409.82032 C -16.397571,410.0069 -16.499346,410.17653 -16.635046,410.32919 C -35.141192,430.76907 -30.052426,432.95724 -40.654022,464.77898 C -17.754575,480.04528 -37.770388,502.63941 -17.347474,520.94201 C 2.549601,538.76965 8.2150944,539.63474 25.008022,547.25092 C 28.213944,543.85841 33.557148,542.89155 39.952031,542.99332 C 49.858162,550.96572 52.114182,551.79688 52.114182,551.79688 C 52.114182,551.79688 29.97805,571.28686 17.765011,607.94293 C 5.5350101,644.56508 10.148825,656.82902 11.675455,678.20183 C 13.202085,699.57465 9.164997,711.88946 -8.560871,716.68986 C -19.654381,719.74313 -23.521843,730.48042 -13.530899,738.87688 C -3.9809817,746.8832 -1.7758502,754.27888 -8.2046575,766.33926 C -14.66739,778.5523 -22.690678,786.55862 -22.690678,786.55862 C -22.690678,786.55862 14.711752,788.11918 17.765011,771.30929 C 20.835234,754.55029 17.798936,734.68713 20.835234,719.4378 C 23.888494,704.15454 92.569867,575.91763 100.20302,559.12471 C 102.05194,555.08762 101.20381,547.77676 98.795131,538.95623 C 99.897696,537.71797 100.89848,536.29311 101.74661,534.71559 C 105.34268,527.89665 128.95454,537.44657 134.95929,526.70927 C 136.06186,524.63984 138.36876,521.04377 141.04885,516.83707 C 142.16837,517.73608 142.49066,518.75384 141.71039,519.87336 C 125.76559,542.45052 129.75179,586.26479 109.83775,607.51887 C 89.923718,628.75599 85.954475,612.82816 75.318954,628.75599 C 64.683434,644.68382 83.291354,652.63926 84.614433,671.23022 C 85.954475,689.82118 71.332754,709.73522 80.628233,705.78294 C 89.906746,701.81371 111.19475,689.82118 111.19475,673.87638 C 111.19475,657.96551 120.47328,631.41911 120.47328,631.41911 C 120.47328,631.41911 194.80318,526.53965 194.80318,514.58104 C 194.80318,502.65637 190.83394,482.72537 181.55542,480.06224 C 179.62169,479.53641 174.00709,477.48394 166.50964,474.70208 C 169.2915,469.08748 170.91991,464.66025 170.44495,462.55689 C 121.98294,457.19673 90.907544,445.05154 82.714627,441.84561 C 101.01722,440.11544 126.29143,433.94107 138.36876,433.94107 C 159.75855,433.94107 191.83473,407.98836 204.03081,394.23173 C 204.04777,394.1978 204.08169,394.1978 204.09865,394.16388 C 216.27777,380.64472 225.45452,418.65781 257.46285,440.79393 C 286.14653,460.58924 303.24478,472.07288 303.24478,472.07288 L 393.34987,459.87681 C 393.34987,459.87681 410.10887,467.47603 413.17909,476.65277 C 416.24932,485.79559 423.88245,453.77029 410.14279,443.08388 C 396.38616,432.36355 306.29804,443.08388 306.29804,443.08388 C 306.29804,443.08388 251.37329,378.98239 239.14329,368.29598 L 239.14329,368.29598 L 239.12633,368.29598 C 239.12633,368.27902 239.12633,368.27902 239.12633,368.27902 C 226.9133,357.59261 202.53811,359.11925 219.26318,338.54367 C 230.1701,344.26005 241.55197,346.092 248.50662,342.61467 C 261.58475,336.10106 273.32283,289.09782 273.32283,289.09782 C 274.00134,282.53332 274.62895,276.18932 275.01909,269.99799 C 309.14775,240.07605 339.74819,210.7478 352.96202,192.08899 C 391.5688,137.63919 393.75697,109.20995 405.5629,92.654496 C 417.31795,76.082082 346.55018,147.12126 336.88153,147.12126 C 327.24679,147.12126 329.38408,183.79429 315.44086,184.98167 C 302.51539,186.08424 294.00019,207.21959 270.69364,208.49177 C 262.26325,190.46057 247.76027,176.0424 235.30976,179.72328 C 232.7993,180.4866 230.64505,181.02939 228.45688,181.5722 C 228.94879,181.19902 229.4916,180.87673 229.98351,180.4866 C 229.98351,180.4866 209.50971,174.12564 204.92982,165.74613 C 200.34993,157.34967 197.90732,151.19226 179.58777,152.70194 C 161.26821,154.24553 140.65871,165.23726 140.65871,178.95996 M 142.18534,227.82909 C 148.07134,225.64091 149.6319,224.48746 149.25872,223.13046 C 152.6682,222.18055 150.5818,217.88903 150.5818,217.88903 C 150.4461,217.61762 150.27647,217.22749 150.15773,216.92217 C 151.24334,218.39791 152.43072,219.43262 153.63506,219.43262 C 158.75775,219.43262 162.15026,219.00856 163.57512,218.78804 C 162.42167,223.67325 161.14947,229.10127 158.97826,235.4283 C 151.36208,257.5814 174.24456,285.0777 183.42131,294.23747 C 183.77752,294.61065 184.11677,294.84813 184.47298,295.18738 C 184.62565,295.52663 184.79527,295.83196 184.9649,296.15424 C 179.43511,304.39805 174.17672,312.574 169.27454,320.44463 C 160.74237,297.90139 148.64807,265.60469 135.11195,231.64566 C 137.30012,230.2208 139.624,228.79595 142.18534,227.82909 z"
   id="path32872"
   style="fill:none;stroke:#c5e8f3;stroke-width:3.39251065;stroke-linecap:round;stroke-linejoin:round;stroke-miterlimit:10" /><g
   id="g32874"
   transform="matrix(16.962553,0,0,16.962553,-4902.4949,-5799.5089)">
			<path
   d="M 312.125,368.958 C 312.125,368.958 313.114,369.495 313.296,369.945 L 315.905,373.547 L 315.456,373.817 L 312.125,368.958 M 312.125,368.758 C 312.07,368.758 312.016,368.781 311.977,368.824 C 311.914,368.892 311.909,368.995 311.96,369.071 L 315.291,373.929 C 315.33,373.985 315.393,374.016 315.456,374.016 C 315.491,374.016 315.526,374.007 315.559,373.987 L 316.008,373.717 C 316.057,373.688 316.09,373.64 316.102,373.586 C 316.113,373.531 316.101,373.474 316.068,373.429 L 313.459,369.827 C 313.279,369.367 312.329,368.84 312.222,368.781 C 312.19,368.766 312.157,368.758 312.125,368.758 L 312.125,368.758 z"
   id="path32876"
   style="fill:#c5e8f3" />
		</g>

</svg>