<?xml version="1.0" encoding="UTF-8" standalone="no"?>
<!-- Generator: Adobe Illustrator 15.0.0, SVG Export Plug-In . SVG Version: 6.00 Build 0)  -->
<svg
   xmlns:dc="http://purl.org/dc/elements/1.1/"
   xmlns:cc="http://creativecommons.org/ns#"
   xmlns:rdf="http://www.w3.org/1999/02/22-rdf-syntax-ns#"
   xmlns:svg="http://www.w3.org/2000/svg"
   xmlns="http://www.w3.org/2000/svg"
   xmlns:xlink="http://www.w3.org/1999/xlink"
   xmlns:sodipodi="http://sodipodi.sourceforge.net/DTD/sodipodi-0.dtd"
   xmlns:inkscape="http://www.inkscape.org/namespaces/inkscape"
   version="1.0"
   id="Layer_1"
   x="0px"
   y="0px"
   width="48"
   height="48"
   viewBox="0 0 612 792"
   enable-background="new 0 0 612 792"
   xml:space="preserve"
   sodipodi:version="0.32"
   inkscape:version="0.46"
   sodipodi:docname="Wren.svg"
   inkscape:output_extension="org.inkscape.output.svg.inkscape"><metadata
   id="metadata37193"><rdf:RDF><cc:Work
       rdf:about=""><dc:format>image/svg+xml</dc:format><dc:type
         rdf:resource="http://purl.org/dc/dcmitype/StillImage" /></cc:Work></rdf:RDF></metadata><defs
   id="defs37191"><inkscape:perspective
   sodipodi:type="inkscape:persp3d"
   inkscape:vp_x="0 : 396 : 1"
   inkscape:vp_y="0 : 1000 : 0"
   inkscape:vp_z="612 : 396 : 1"
   inkscape:persp3d-origin="306 : 264 : 1"
   id="perspective37195" />
	
	
<radialGradient
   inkscape:collect="always"
   xlink:href="#SVGID_1_"
   id="radialGradient37246"
   gradientUnits="userSpaceOnUse"
   cx="294.43411"
   cy="383.27151"
   r="31.275999" /><radialGradient
   inkscape:collect="always"
   xlink:href="#SVGID_2_"
   id="radialGradient37248"
   gradientUnits="userSpaceOnUse"
   cx="297.3848"
   cy="402.33109"
   r="19.671" /><radialGradient
   inkscape:collect="always"
   xlink:href="#SVGID_3_"
   id="radialGradient37250"
   gradientUnits="userSpaceOnUse"
   cx="282.5679"
   cy="392.49411"
   r="9.4266005" />
		
		
		
		
		
		<radialGradient
   id="SVGID_1_"
   cx="294.43411"
   cy="383.27151"
   r="31.275999"
   gradientUnits="userSpaceOnUse">
			<stop
   offset="0"
   style="stop-color:#704E23"
   id="stop37114" />
			<stop
   offset="1"
   style="stop-color:#AD8046;stop-opacity:0"
   id="stop37116" />
		</radialGradient>
		
		
		<radialGradient
   id="SVGID_2_"
   cx="297.3848"
   cy="402.33109"
   r="19.671"
   gradientUnits="userSpaceOnUse">
			<stop
   offset="0"
   style="stop-color:#8C6A40"
   id="stop37123" />
			<stop
   offset="1"
   style="stop-color:#AD8046;stop-opacity:0"
   id="stop37125" />
		</radialGradient>
		
		
		<radialGradient
   id="SVGID_3_"
   cx="282.5679"
   cy="392.49411"
   r="9.4266005"
   gradientUnits="userSpaceOnUse">
			<stop
   offset="0"
   style="stop-color:#AA8150"
   id="stop37132" />
			<stop
   offset="1"
   style="stop-color:#AD8046;stop-opacity:0"
   id="stop37134" />
		</radialGradient>
		
		
		
		
		
		
		
		
		
		
		
		
		
		
		
		
		
		
		
		
		
		
		
		
		
	<radialGradient
   inkscape:collect="always"
   xlink:href="#SVGID_3_"
   id="radialGradient37288"
   gradientUnits="userSpaceOnUse"
   cx="282.5679"
   cy="392.49411"
   r="9.4266005"
   gradientTransform="matrix(17.301751,0,0,17.301751,-4514.5009,-6454.2409)" /><radialGradient
   inkscape:collect="always"
   xlink:href="#SVGID_2_"
   id="radialGradient37292"
   gradientUnits="userSpaceOnUse"
   cx="297.3848"
   cy="402.33109"
   r="19.671"
   gradientTransform="matrix(17.301751,0,0,17.301751,-4514.5009,-6454.2409)" /><radialGradient
   inkscape:collect="always"
   xlink:href="#SVGID_1_"
   id="radialGradient37296"
   gradientUnits="userSpaceOnUse"
   cx="294.43411"
   cy="383.27151"
   r="31.275999"
   gradientTransform="matrix(17.301751,0,0,17.301751,-4514.5009,-6454.2409)" />
			
		</defs><sodipodi:namedview
   inkscape:window-height="1538"
   inkscape:window-width="2560"
   inkscape:pageshadow="2"
   inkscape:pageopacity="0.0"
   guidetolerance="10.0"
   gridtolerance="10.0"
   objecttolerance="10.0"
   borderopacity="1.0"
   bordercolor="#666666"
   pagecolor="#ffffff"
   id="base"
   showgrid="false"
   inkscape:zoom="26.398653"
   inkscape:cx="17.983465"
   inkscape:cy="23.839286"
   inkscape:window-x="0"
   inkscape:window-y="24"
   inkscape:current-layer="Layer_1" />
<path
   style="opacity:1;fill:none;fill-opacity:1;fill-rule:nonzero;stroke-width:12.37500000000000000;stroke-linecap:butt;stroke-linejoin:miter;marker:none;marker-start:none;marker-mid:none;marker-end:none;stroke-miterlimit:4;stroke-dasharray:none;stroke-dashoffset:0;stroke-opacity:1;visibility:visible;display:inline;overflow:visible;enable-background:accumulate;stroke:#331f00"
   id="path37105"
   d="M -10.007664,16.178141 C -8.0910856,16.178141 -5.2675544,17.13643 -1.2632739,19.361031 C 0.39662019,20.285095 2.2447497,21.756754 4.2811146,23.621996 C 32.721774,49.461584 95.198818,165.51727 105.65444,192.53761 C 107.70792,197.82531 111.67797,202.77077 116.74322,207.35687 C 139.46836,227.56651 184.02882,240.2125 184.02882,240.2125 C 195.18604,234.61678 330.90378,204.8927 330.90378,204.8927 C 379.26316,166.74936 447.13059,137.94934 467.5798,135.14292 C 475.77659,134.03062 486.11243,131.60067 499.18623,131.60067 C 518.72849,131.60067 544.39696,137.02527 578.12532,160.40069 C 580.43548,162.00925 582.60874,164.04561 584.59377,166.42422 C 598.62587,182.71514 604.49539,215.70768 598.26651,235.60929 C 598.30073,236.08844 598.14672,236.56758 598.1125,237.02961 C 612.52106,246.97187 631.8922,262.23605 636.92322,266.18899 C 645.59916,272.98258 643.10076,280.44354 643.10076,280.44354 C 643.10076,280.44354 608.97881,272.53766 605.94993,272.53766 L 605.93282,272.53766 C 605.88148,272.53766 605.81304,272.53766 605.72747,272.53766 C 604.68362,272.53766 601.84298,271.81894 597.92426,270.67242 C 595.40875,269.9537 592.60233,269.16653 589.72746,268.2938 C 587.60554,282.65103 597.39378,299.62644 594.00554,330.24037 C 592.1403,347.09599 596.94886,356.73022 589.23121,392.25538 C 589.16276,392.95698 589.11142,393.45324 589.04297,394.17196 C 588.35848,401.23934 585.82586,409.59015 581.65045,418.79657 C 568.76488,451.70354 538.28786,486.18485 511.3702,506.77096 C 497.81725,517.1239 477.50494,533.79129 452.24717,548.30253 C 451.25465,548.93569 450.3477,549.55173 449.33807,550.16777 C 433.2525,560.12714 417.62896,566.1849 402.72414,569.76137 C 390.69419,573.06405 379.26316,574.26191 368.75621,574.26191 C 366.13802,574.26191 363.55406,574.19346 361.05567,574.05656 C 386.27921,616.83733 424.2172,679.10903 431.81507,679.10903 C 431.96908,679.10903 432.10598,679.09192 432.22576,679.04058 C 435.76801,677.72293 444.83754,676.52507 455.87498,676.52507 C 475.87927,676.52507 502.31778,680.49513 513.90282,694.98925 C 502.0611,683.26732 452.04182,682.13791 441.29529,682.13791 C 438.69422,682.13791 438.40331,682.20636 441.55197,682.20636 C 457.65466,682.20636 521.36379,700.14006 527.71245,718.10798 C 500.76056,696.4438 455.75519,691.5839 440.74769,691.5839 C 435.90491,691.5839 434.17657,692.09727 437.20545,692.6962 C 449.62898,695.17749 488.81617,713.62456 492.39264,732.97858 C 482.27927,713.60745 432.20865,700.12295 426.08244,700.12295 C 419.85356,700.12295 376.47386,698.87375 369.03,698.87375 C 361.58615,698.87375 352.58507,709.87696 352.58507,709.87696 C 352.58507,709.87696 350.46315,692.6962 367.79792,692.6962 C 385.1498,692.6962 414.89099,687.10048 414.89099,687.10048 L 343.4471,572.61913 C 335.95191,571.69506 328.86741,570.41164 322.3134,569.07688 C 322.02249,569.04265 321.68024,568.9742 321.37222,568.93998 C 314.49307,568.20415 305.492,565.65442 297.34654,563.58383 C 291.64814,562.42019 286.66845,561.65013 282.52728,561.65013 C 280.97005,561.65013 279.51551,561.75281 278.19786,562.00949 C 272.63636,563.08757 278.02674,570.78811 270.83957,576.53784 C 267.28021,579.3956 265.00427,580.13143 263.00213,580.13143 C 261.77004,580.13143 260.64063,579.84052 259.37432,579.61806 C 258.48448,579.60095 257.59464,579.58384 256.7048,579.56672 C 267.6909,598.76673 338.09095,721.27376 348.78614,721.27376 C 348.94015,721.27376 349.07705,721.25665 349.19683,721.20531 C 352.72197,719.90478 361.74016,718.70692 372.72626,718.70692 C 392.73055,718.70692 419.23752,722.67697 430.83967,737.1711 C 418.96372,725.41494 368.60219,724.28553 358.11235,724.28553 C 355.61395,724.28553 355.37438,724.35398 358.48882,724.35398 C 374.5915,724.35398 438.2493,742.28768 444.6493,760.28983 C 417.62896,738.5572 372.57225,733.74864 357.61609,733.74864 C 352.80753,733.74864 351.13053,734.22778 354.14229,734.82671 C 366.54872,737.32511 405.71879,755.78929 409.29527,775.14331 C 399.23323,755.77218 349.17972,742.27057 342.98507,742.27057 C 336.80752,742.27057 293.42782,741.0727 285.96685,741.0727 C 278.52299,741.0727 269.52192,752.0417 269.52192,752.0417 C 269.52192,752.0417 267.38288,734.82671 284.73476,734.82671 C 302.08665,734.82671 331.82784,729.28232 331.82784,729.28232 L 241.88554,585.17956 C 238.95933,586.95924 236.23848,588.41379 233.39783,588.41379 C 230.72831,588.41379 227.93901,587.11325 224.79034,583.51967 C 224.77323,583.50255 224.75612,583.46833 224.739,583.45122 C 224.63633,583.33143 224.53366,583.28009 224.43098,583.16031 C 223.84916,582.47582 223.45558,581.53464 222.95932,580.76458 C 217.89408,574.05656 213.13686,564.18276 212.29835,560.26404 C 210.96359,558.31323 209.42349,556.53355 207.54113,555.13034 C 207.31867,554.95922 207.16466,554.82232 206.92509,554.6512 C 206.54862,554.36029 206.22348,554.08649 205.84701,553.8127 C 203.55396,552.1528 200.50797,549.84264 197.0684,547.07045 C 190.59995,541.88542 184.45663,536.52926 178.68978,530.96776 C 176.12293,528.58915 173.52186,526.12498 170.69833,523.30145 C 166.36891,518.98915 161.52613,513.88968 155.39992,507.14743 C 139.04056,489.07683 129.6459,477.66292 115.4769,465.22227 C 115.40846,465.13671 115.30578,465.05114 115.23733,464.9827 C 110.7368,461.33777 106.51005,457.59018 102.52289,453.77413 C 94.959245,446.53563 88.25122,438.97198 82.279024,431.30567 C 60.785962,426.82224 43.776326,421.96235 34.278994,416.87999 C 34.946374,415.69924 35.545305,414.6725 36.195573,413.59443 C 40.559212,405.31207 48.328201,392.16982 54.557081,385.03398 C 54.060824,383.95591 53.547455,382.86072 53.06831,381.78264 C 52.332481,380.25965 51.613764,378.82221 50.860822,377.23077 C 40.422313,354.98477 34.39878,327.21149 24.439416,304.19543 C 17.115347,290.28312 19.51107,277.84247 24.610539,273.30771 C 25.483267,272.34942 26.219096,271.64782 26.664016,271.30557 C 30.257601,266.92482 16.447967,255.83604 9.4832568,234.06918 C 2.039402,210.83067 -1.656857,194.09483 5.7698855,189.45739 C 13.21374,184.80284 29.008403,192.2467 27.143161,174.56968 C 25.43193,158.14186 5.9581209,124.73864 10.047963,124.73864 C 10.355985,124.73864 10.783792,124.92687 11.365611,125.30334 C 16.567753,128.77714 25.397705,138.39426 29.94958,138.39426 C 32.704661,138.39426 33.902523,134.86912 31.797709,124.36216 C 26.236208,96.486212 -3.2140772,51.018804 -4.1552543,46.364256 C -4.856859,42.411312 -20.086815,16.178141 -10.007664,16.178141 M -10.007664,5.9107549 L -10.007664,5.9107549 C -14.816223,5.9107549 -18.991627,8.1182429 -21.438687,11.9514 C -26.555268,19.942849 -22.379864,30.518257 -15.894299,44.6188 C -15.021571,46.518267 -14.268629,48.092599 -13.943496,49.016664 C -13.549912,51.155703 -12.026917,53.945009 -6.294293,64.212395 C 1.1495618,77.542885 14.137805,100.83274 19.80198,118.66377 C 18.860803,117.91082 17.970963,117.24344 17.149572,116.71296 C 14.83941,115.17285 12.54636,114.41991 10.150637,114.41991 L 10.150637,114.41991 C 6.676838,114.41991 3.0148036,116.38783 1.1324495,119.29692 C -2.7349325,125.21778 -0.32209683,130.67661 6.129244,145.29052 C 10.407322,155.02742 16.293956,168.35791 17.046898,175.57931 C 17.098235,176.10979 17.132459,176.55471 17.132459,176.91407 C 16.191282,177.03385 15.044758,177.11942 14.154917,177.18787 C 10.082188,177.47877 4.9998316,177.83813 0.4137325,180.713 C -13.97772,189.67985 -8.3819948,211.58361 -0.20231066,237.1494 C 3.7677453,249.55582 9.7741661,258.89915 13.72711,265.0938 C 14.326041,266.01787 14.993421,267.04461 15.575239,268.00289 C 8.7645398,276.4906 6.6597257,292.25104 15.438341,308.93554 C 19.57952,318.56977 23.36134,330.34304 27.023375,341.73984 C 31.352789,355.20723 35.836214,369.15376 41.6544,381.56018 L 42.646914,383.63077 C 36.965627,391.34843 31.06188,401.44469 27.194498,408.80298 C 26.783802,409.47036 26.116422,410.56555 25.414817,411.83186 C 24.062945,414.2447 23.737811,417.08534 24.507865,419.73775 C 25.277919,422.37304 27.091824,424.61476 29.521772,425.91529 C 38.984879,430.98054 54.420183,435.77198 76.614849,440.54632 C 82.569933,447.93883 88.9186,454.85221 95.506839,461.14954 C 99.579569,465.06826 103.85765,468.85008 108.2384,472.40944 C 108.42663,472.6319 108.40952,472.56345 108.78599,472.88858 C 119.51541,482.31747 127.40419,491.1303 138.33895,503.36561 C 141.28227,506.65117 144.41382,510.15919 147.87051,513.97524 C 153.87693,520.61482 158.85661,525.85118 163.52827,530.52284 C 166.43736,533.44905 169.124,535.99878 171.79352,538.48007 C 177.44058,543.92178 183.87481,549.55173 190.71973,555.0619 C 194.31332,557.93676 197.49621,560.36671 199.89193,562.09505 L 200.90156,562.86511 C 201.7914,563.5496 202.44166,564.14853 203.02348,564.83302 C 205.05985,571.13035 210.03953,580.54212 214.8652,586.9079 C 215.01921,587.36994 215.66948,588.5678 216.71333,589.78277 C 216.91868,590.02234 217.15825,590.27903 217.43205,590.53571 C 217.5005,590.60416 217.56895,590.67261 217.62028,590.72395 C 222.03526,595.80631 227.54542,598.64695 233.48339,598.64695 C 235.05773,598.64695 236.5465,598.4416 237.96682,598.09935 L 315.04066,721.5989 C 305.50911,723.01922 293.39359,724.5251 284.80321,724.5251 C 274.60428,724.5251 268.64919,728.8374 265.4663,732.4481 C 258.10801,740.7818 259.25453,752.02458 259.40854,753.27378 C 259.9048,757.34651 262.79678,760.73475 266.73261,761.86416 C 267.67379,762.13796 268.63208,762.25774 269.59037,762.25774 C 272.61925,762.25774 275.54545,760.92298 277.51337,758.51015 C 280.23423,755.2417 284.63209,751.64811 286.34332,751.27164 C 289.90268,751.28875 303.52408,751.631 316.52944,751.93902 C 328.5765,752.22993 340.07597,752.48662 343.05352,752.48662 C 351.60967,753.17111 393.43216,766.70695 400.25997,779.83209 C 402.05676,783.30589 405.61612,785.37648 409.36372,785.37648 C 410.47602,785.37648 411.60543,785.18824 412.70062,784.81177 C 417.50918,783.15188 420.38404,778.24064 419.45998,773.22674 C 418.05677,765.62887 413.21399,758.54437 406.72842,752.24704 C 418.12522,755.90908 429.38512,761.077 438.28352,768.22994 C 440.14876,769.73582 442.44181,770.48877 444.71775,770.48877 C 446.80545,770.48877 448.87604,769.87272 450.67283,768.60641 C 454.42043,765.954 455.94342,761.11122 454.40332,756.79892 C 452.36695,751.08341 447.26748,745.7957 440.40545,741.03848 C 441.77443,737.68447 441.32951,733.71441 438.91668,730.70264 C 428.17015,717.28659 409.27816,711.75932 392.69633,709.62028 C 394.93804,709.67162 397.21398,709.74007 399.4728,709.7914 C 411.55409,710.09942 423.13913,710.37322 426.15089,710.37322 C 434.70705,711.07483 476.52953,724.62777 483.35735,737.71869 C 485.15414,741.19249 488.7135,743.24597 492.46109,743.24597 C 493.57339,743.24597 494.70281,743.05773 495.79799,742.68126 C 500.60655,741.02137 503.48142,736.09302 502.55736,731.09623 C 501.15415,723.49836 496.32848,716.41387 489.84291,710.13365 C 501.2226,713.79568 512.46538,718.94649 521.34667,726.08232 C 523.21192,727.5882 525.50496,728.34115 527.7809,728.34115 C 529.85149,728.34115 531.93919,727.7251 533.71887,726.45879 C 537.46647,723.80638 538.98947,718.98071 537.46647,714.66841 C 535.44722,708.9529 530.33064,703.64808 523.4686,698.89086 C 524.83758,695.53685 524.39266,691.56679 521.99694,688.57214 C 506.47608,669.13255 473.94557,666.22346 455.94342,666.22346 C 448.99583,666.22346 440.35411,666.71972 433.86854,668.00314 C 429.17977,662.9379 415.54126,645.29511 379.0407,584.15282 C 388.11023,583.50255 396.9744,581.99667 405.51345,579.63517 C 422.71132,575.52822 438.93379,568.70041 454.7969,558.87794 L 456.95305,557.50896 L 457.86,556.91002 C 479.52419,544.5036 497.81725,530.30038 511.18196,519.93032 L 517.66753,514.91642 C 542.32637,496.05865 576.39697,460.55061 591.28468,422.54417 C 595.76811,412.7217 598.5403,403.32704 599.32747,395.14736 L 599.46437,393.77837 C 604.68362,369.82114 604.30715,356.61044 603.99913,346.0008 C 603.84512,340.85 603.72533,336.4008 604.29004,331.36978 C 606.42908,312.11843 603.79378,298.05211 601.68897,286.74087 C 601.38095,285.09809 601.09004,283.55798 600.83335,282.08633 C 603.29753,282.66814 604.63229,282.80504 605.81304,282.80504 C 605.8986,282.80504 606.00127,282.80504 606.08683,282.80504 C 608.49967,283.14729 625.76599,286.94622 640.85905,290.43713 C 641.6291,290.62537 642.41627,290.71093 643.18632,290.71093 C 647.51574,290.71093 651.48579,287.95585 652.92323,283.69488 C 654.70291,278.37295 654.68579,267.01038 643.32322,258.11198 L 642.45049,257.42749 C 637.1799,253.28631 622.54887,241.82106 609.66331,232.5633 C 614.30074,208.99965 606.92534,176.5376 592.43121,159.7162 C 589.89859,156.70443 587.05794,154.05202 584.04618,151.96432 C 554.27076,131.34399 526.54882,121.33329 499.23757,121.33329 C 488.59371,121.33329 479.6782,122.80494 472.50814,123.98569 C 470.30065,124.34505 468.21295,124.70441 466.24504,124.9611 C 444.95732,127.87019 376.28562,156.70443 326.47169,195.36114 C 294.6599,202.34296 206.34327,221.95367 183.78925,229.39752 C 173.62453,226.19752 141.02558,215.14297 123.62236,199.69055 C 119.42985,195.90873 116.60632,192.22959 115.27156,188.82424 C 104.4908,160.98251 41.449052,43.489388 11.228712,16.041242 C 8.4051813,13.457284 6.0265702,11.660491 3.7677453,10.39418 C -1.7595309,7.3310766 -6.1231699,5.9107549 -10.007664,5.9107549 L -10.007664,5.9107549 z M 273.1155,587.40416 C 274.46738,586.59988 275.85347,585.62448 277.29091,584.49507 C 282.33904,580.45656 284.15294,575.66512 284.88877,571.96886 C 288.34546,572.24265 292.38397,573.01271 295.31017,573.61164 L 299.33156,574.65549 C 306.50162,576.50362 313.92836,578.43731 320.31126,579.1218 C 326.57436,580.38811 332.10164,581.36352 337.32089,582.13357 L 398.05248,679.46839 C 388.52092,680.88871 376.40541,682.41171 367.81503,682.41171 C 357.61609,682.41171 351.67812,686.72401 348.47812,690.33471 C 345.62036,693.56893 344.02892,697.26519 343.19041,700.63632 C 328.9872,681.0085 302.82247,638.86088 273.1155,587.40416 L 273.1155,587.40416 z" /><path
   d="M 239.36265,585.51286 L 331.47717,733.0622 C 331.47717,733.0622 301.40673,738.66796 283.86275,738.66796 C 266.30147,738.66796 268.48149,756.07352 268.48149,756.07352 C 268.48149,756.07352 277.56492,744.9658 285.10847,744.9658 C 292.63474,744.9658 336.51198,746.19423 342.75791,746.19423 C 349.02115,746.19423 399.61147,759.8453 409.78489,779.43089 C 406.18613,759.8453 366.58242,741.17671 354.03865,738.66796 C 341.46027,736.19382 409.45616,735.38063 445.53031,764.39567 C 439.07676,746.19423 374.71425,728.06199 358.43329,728.06199 C 342.11775,728.06199 416.68829,726.29721 431.5851,741.0037 C 413.38366,718.3038 359.07346,721.15859 349.03845,724.87847 C 338.98613,728.66755 253.93072,578.86899 253.93072,578.86899 L 239.36265,585.51286 z"
   id="path37107"
   style="fill:#947a88" /><path
   d="M 323.32804,542.84675 L 415.44257,690.43068 C 415.44257,690.43068 385.35482,696.08835 367.81085,696.08835 C 350.28417,696.08835 352.42959,713.45931 352.42959,713.45931 C 352.42959,713.45931 361.53031,702.33429 369.07388,702.33429 C 376.60013,702.33429 420.46007,703.59732 426.75791,703.59732 C 432.95194,703.59732 483.57686,717.2311 493.80219,736.81667 C 490.18613,717.2311 450.54782,698.5798 438.00405,696.08835 C 425.47758,693.5623 493.43886,692.80102 529.49571,721.76415 C 523.07676,703.59732 458.66234,685.46508 442.38139,685.46508 C 426.08314,685.46508 500.63639,683.6657 515.55049,698.38949 C 497.38366,675.65499 443.03886,678.52708 432.96923,682.26426 C 422.98612,686.05334 337.89612,536.27208 337.89612,536.27208 L 323.32804,542.84675 z"
   id="path37109"
   style="fill:#684547" /><path
   d="M 330.52557,202.91924 C 330.52557,202.91924 193.25348,232.98969 182.00734,238.63006 C 182.00734,238.63006 113.71734,219.2175 102.38469,190.08134 C 91.121245,160.9452 20.02835,29.45189 -5.3533178,15.350963 C -30.752289,1.2500361 -9.1424011,37.929748 -8.1908052,42.601221 C -7.2392093,47.307298 22.5025,93.260748 28.142872,121.4626 C 33.783243,149.66445 15.910534,128.03726 7.4672788,122.41419 C -0.99327691,116.75652 21.550905,154.38784 23.454097,172.22594 C 25.339988,190.09864 9.3704716,182.57239 1.8269081,187.27846 C -5.682051,191.96724 -1.9275715,208.90565 5.5813884,232.38412 C 13.124951,255.87991 28.800338,267.17795 22.225672,270.93243 C 15.616404,274.68691 11.861923,290.67372 23.159967,307.59484 C 34.440709,324.49865 41.2749,408.16992 112.14288,465.52522 C 138.45884,486.80637 164.7921,528.17486 205.52043,556.72275 C 214.74226,563.159 216.161,577.65787 222.90868,585.37445 C 232.77068,596.6725 239.03391,585.65128 249.67449,582.06982 C 259.57109,578.79978 260.05554,585.8416 269.45039,578.33263 C 276.71713,572.50195 271.26707,564.71616 276.89014,563.62615 C 301.77006,558.97198 370.35421,600.87681 449.92495,551.70524 C 542.19519,494.62677 587.7161,429.08773 591.19375,393.94787 C 595.84792,347.14664 593.7371,338.30544 593.7371,338.30544 C 593.7371,338.30544 595.48459,298.61523 589.04834,266.48587 C 586.22815,252.31575 601.26337,243.52645 600.48479,233.64716 C 607.61311,210.79154 599.04875,170.8072 580.46666,157.952 C 523.57851,118.5386 489.39024,129.61172 468.71466,132.41461 C 448.02176,135.21749 379.40301,164.35364 330.52557,202.91924 z"
   id="path37111"
   style="fill:#967041" /><path
   d="M 330.87161,203.26528 C 330.87161,203.26528 193.63412,233.33573 182.38798,238.9761 C 182.38798,238.9761 114.06337,219.56352 102.76532,190.42738 C 91.484581,161.29124 20.391687,29.797926 -5.0072834,15.696998 C -30.388952,1.5960711 -8.7617629,38.275783 -7.8274684,42.947256 C -6.8758725,47.653332 22.88314,93.606783 28.52351,121.80864 C 34.163881,150.01049 16.27387,128.3833 7.847918,122.76023 C -0.62994008,117.10256 21.931543,154.71656 23.834736,172.55467 C 25.686023,190.42738 9.7165071,182.90111 2.1902449,187.60719 C -5.3360165,192.29597 -1.581536,209.21708 5.9620265,232.71286 C 13.488288,256.20864 29.146373,267.50669 22.589009,271.26116 C 15.997042,275.03294 12.22526,291.00246 23.506002,307.92357 C 34.804046,324.82738 41.620936,408.49865 112.50621,465.85395 C 138.83948,487.15241 165.17274,528.5036 205.88376,557.03418 C 215.10559,563.48773 216.52434,577.98661 223.27202,585.68589 C 233.13402,596.98393 239.39725,585.99731 250.05513,582.41585 C 259.93443,579.12852 260.40157,586.17033 269.81373,578.64407 C 277.09776,572.83068 271.61311,565.06219 277.27079,563.95488 C 302.1507,559.31801 370.71754,601.20555 450.3056,552.01667 C 542.54123,494.9728 588.09673,429.41647 591.53979,394.27661 C 596.21126,347.47538 594.10045,338.63418 594.10045,338.63418 C 594.10045,338.63418 595.83062,298.94396 589.41167,266.83191 C 586.57418,252.64447 601.64401,243.87249 600.83083,233.99319 C 607.97645,211.15488 599.41208,171.15323 580.83,158.29803 C 523.95915,118.88464 489.77089,129.95776 469.06069,132.76065 C 448.36779,135.58083 379.76636,164.71698 330.87161,203.26528 z"
   id="path37118"
   style="fill:url(#radialGradient37296)" /><path
   d="M 592.24916,266.45128 C 594.75792,251.814 546.88397,247.17713 546.88397,247.17713 C 546.88397,247.17713 538.3196,250.74129 535.48212,277.88773 C 529.09777,338.98022 446.25699,264.32316 426.23886,302.87146 C 406.27264,341.43706 433.36718,434.98763 370.54452,443.5347 C 307.72186,452.11637 92.072841,370.71163 69.217229,345.01852 C 46.378917,319.30812 23.523304,269.6694 23.523304,269.6694 C 23.523304,269.6694 9.5953948,277.88773 20.305178,302.16209 C 30.651626,325.64057 36.707239,354.29226 47.434324,377.13058 C 64.78798,414.19092 79.546374,437.09844 112.10827,465.49061 C 126.79746,478.31121 136.29611,489.92069 153.09612,508.48547 C 169.56739,526.70422 176.98984,532.98475 189.13566,543.81564 C 202.3369,555.59814 209.84586,558.45293 210.57253,562.06899 C 211.73175,567.84777 221.97438,587.71019 228.77398,589.52687 C 237.71898,591.8799 243.01331,583.41935 249.63988,582.01791 C 256.26646,580.63377 263.49858,584.00761 269.41578,578.28074 C 276.97665,570.94479 269.46769,568.24572 276.85554,563.57425 C 282.70353,559.87167 306.38963,569.38763 320.8885,570.94479 C 337.6885,572.72687 370.23309,582.57157 407.67408,570.61605 C 454.78674,555.58083 491.8644,524.23006 512.97253,508.10483 C 543.31981,484.88588 578.30395,444.24406 587.95832,407.80658 C 600.96924,358.70421 594.39458,348.89412 596.54,329.61996 C 600.00034,298.3211 589.77501,281.10585 592.24916,266.45128 z"
   id="path37120"
   style="fill:#e0d3c7" /><path
   d="M 592.23185,266.43398 C 594.74061,251.79669 546.86666,247.15982 546.86666,247.15982 C 546.86666,247.15982 538.3196,250.72398 535.46481,277.87043 C 529.08047,338.94561 446.23969,264.30586 426.22156,302.81956 C 406.25534,341.38515 433.34988,434.97032 370.52722,443.50009 C 307.68726,452.08176 92.05554,370.67702 69.217229,345.00122 C 46.361616,319.29083 23.4887,269.6521 23.4887,269.6521 C 23.4887,269.6521 9.5607912,277.87043 20.270575,302.16209 C 30.634323,325.60596 36.689936,354.27496 47.417023,377.11327 C 64.770679,414.17363 79.529071,437.08114 112.10827,465.49061 C 126.78016,478.31121 136.27882,489.92069 153.06151,508.46817 C 169.55008,526.68691 176.97253,532.96744 189.11836,543.79834 C 202.3196,555.58083 209.82856,558.43562 210.55523,562.05169 C 211.71444,567.84777 221.95708,587.71019 228.75667,589.52687 C 237.68438,591.8799 243.01331,583.40205 249.62259,582.00061 C 256.26646,580.63377 263.46399,583.99031 269.41578,578.28074 C 276.95935,570.92749 269.45039,568.22842 276.85554,563.57425 C 282.66893,559.85436 306.38963,569.38763 320.8712,570.92749 C 337.67119,572.72687 370.21579,582.55427 407.65678,570.61605 C 454.76944,555.56353 491.8471,524.23006 512.95524,508.08753 C 543.3025,484.88588 578.28665,444.24406 587.94102,407.78927 C 600.95194,358.68691 594.37727,348.91142 596.52269,329.60266 C 599.98304,298.30379 589.75771,281.08856 592.23185,266.43398 z"
   id="path37127"
   style="fill:url(#radialGradient37292)" /><path
   d="M 441.79313,318.82367 C 438.64421,395.28011 420.47737,435.38557 386.63515,454.22717 C 363.62382,466.96127 83.300853,445.43789 30.651626,417.21874 C 50.410225,381.49062 60.73937,387.77115 58.870781,364.58681 C 54.579947,340.36435 99.028148,316.83397 161.67778,301.79875 C 182.52639,296.78124 444.95936,242.38453 441.79313,318.82367 z"
   id="path37129"
   style="fill:#886429" /><path
   d="M 442.84854,318.82367 C 439.69962,395.29741 421.53278,435.38557 387.69056,454.22717 C 364.67923,466.96127 84.35626,445.43789 31.724334,417.21874 C 51.465632,381.49062 61.794777,387.77115 59.908887,364.58681 C 55.635354,340.36435 100.08356,316.81667 162.73319,301.79875 C 183.5991,296.78124 446.01476,242.38453 442.84854,318.82367 z"
   id="path37136"
   style="fill:url(#radialGradient37288)" /><path
   d="M 406.68788,437.91163 C 402.8988,444.50359 399.16161,446.38949 386.94658,454.05416 C 364.64463,467.99938 83.612285,445.23026 30.963057,417.01111 C 36.118978,406.68197 50.704355,381.62903 57.27902,380.08917 C 68.334839,377.52851 96.727008,385.2624 113.3886,389.98578 C 144.39334,398.44633 221.52454,410.88629 249.65718,414.39855 C 264.72702,416.28444 357.75853,440.71451 406.68788,437.91163 z"
   id="path37138"
   style="fill:#4f370c" /><path
   d="M 574.09962,224.96167 C 574.09962,224.96167 585.46687,226.10359 589.93072,228.56044 C 602.90704,235.70607 633.37542,259.7728 639.89818,264.89412 C 648.68747,271.78022 646.16141,279.30647 646.16141,279.30647 C 646.16141,279.30647 612.94206,270.6729 608.58202,271.31307 C 604.22197,271.93593 542.42012,249.70318 542.42012,249.70318 L 555.91548,234.35653 L 574.09962,224.96167 z"
   id="path37140"
   style="fill:#8a8762" /><path
   d="M 570.968,207.88485 C 568.52846,189.82182 530.68952,157.36373 509.42567,152.96909 C 488.10992,148.57444 448.00446,142.32852 442.32949,142.32852 C 436.72372,142.32852 394.12681,159.09391 411.65349,161.61996 C 429.21476,164.12872 453.86975,171.72419 468.29942,173.57548 C 482.72907,175.47866 505.01374,181.55159 522.5577,200.96415 C 540.10168,220.39401 557.1439,221.70895 560.84648,221.70895 C 564.65287,221.70895 572.8712,222.08959 570.968,207.88485 z"
   id="path37142"
   style="fill:#342f27" /><path
   d="M 566.46955,213.87126 C 563.9435,195.82553 525.72393,163.74808 504.46008,159.35343 C 483.14432,154.95879 443.03886,148.71286 437.36388,148.71286 C 431.75811,148.71286 407.32804,158.73058 424.85472,161.23933 C 442.3987,163.74808 455.53072,169.38845 469.96038,171.25704 C 484.39004,173.16023 501.93402,175.65169 519.46069,195.06425 C 537.00467,214.49411 552.69736,218.2659 556.41723,218.2659 C 560.22362,218.2659 567.07511,218.2659 566.46955,213.87126 z"
   id="path37144"
   style="fill:#fef3e0" /><path
   d="M 512.34967,197.5557 C 512.34967,208.49041 503.56038,217.3143 492.59107,217.3143 C 481.72557,217.3143 473.57645,208.45581 472.88438,197.5557 C 471.81167,180.92872 473.36883,178.85251 492.59107,177.8317 C 503.52578,177.26074 512.34967,186.6729 512.34967,197.5557 z"
   id="path37146"
   style="fill:#342f27" /><g
   id="g37148"
   transform="matrix(17.301751,0,0,17.301751,-4514.5009,-6454.2409)">
			<g
   id="g37150">
				<path
   d="M 289.459,383.3 C 290.063,383.3 290.54,383.831 290.54,384.442 C 290.54,385.073 290.032,385.583 289.402,385.583 C 288.77,385.583 288.301,385.071 288.261,384.442 C 288.2,383.48 288.289,383.361 289.402,383.301 C 289.421,383.3 289.44,383.3 289.459,383.3 M 289.459,383.1 L 289.391,383.102 C 288.763,383.136 288.428,383.191 288.23,383.414 C 288.027,383.642 288.032,383.989 288.062,384.455 C 288.11,385.212 288.687,385.784 289.402,385.784 C 290.14,385.784 290.74,385.182 290.74,384.443 C 290.74,383.702 290.166,383.1 289.459,383.1 L 289.459,383.1 z"
   id="path37152"
   style="fill:#fff1bf" />
			</g>
		</g><circle
   cx="289.285"
   cy="383.86099"
   r="0.289"
   id="circle37154"
   sodipodi:cx="289.285"
   sodipodi:cy="383.86099"
   sodipodi:rx="0.289"
   sodipodi:ry="0.289"
   style="fill:#d9caaf"
   transform="matrix(17.301751,0,0,17.301751,-4514.5009,-6454.2409)" /><path
   d="M 646.16141,279.30647 C 646.16141,279.30647 599.72351,254.66879 591.15915,251.46796 C 582.59478,248.26714 551.53814,238.61276 551.53814,238.61276 L 542.42012,249.72048 C 542.42012,249.72048 571.34865,259.49597 576.15853,261.64138 C 580.98572,263.7868 605.62341,271.34767 608.58202,271.31307 C 611.52331,271.27847 646.16141,279.30647 646.16141,279.30647 z"
   id="path37156"
   style="fill:#43381a" /><polygon
   points="281.76,398.541 280.785,399.244 281.272,399.299 282.138,398.595 281.76,398.541 "
   id="polygon37158"
   style="fill:#c6b08f"
   transform="matrix(17.301751,0,0,17.301751,-4514.5009,-6454.2409)" /><polygon
   points="279.559,398.314 278.449,399.114 279.004,399.177 279.989,398.375 279.559,398.314 "
   id="polygon37160"
   style="fill:#c6b08f"
   transform="matrix(17.301751,0,0,17.301751,-4514.5009,-6454.2409)" /><polygon
   points="277.389,397.833 276.031,398.812 276.709,398.889 277.916,397.907 277.389,397.833 "
   id="polygon37162"
   style="fill:#c6b08f"
   transform="matrix(17.301751,0,0,17.301751,-4514.5009,-6454.2409)" /><polygon
   points="275.146,397.49 273.612,398.598 274.379,398.684 275.744,397.575 275.146,397.49 "
   id="polygon37164"
   style="fill:#c6b08f"
   transform="matrix(17.301751,0,0,17.301751,-4514.5009,-6454.2409)" /><polygon
   points="272.689,397.083 270.948,398.34 271.818,398.438 273.366,397.18 272.689,397.083 "
   id="polygon37166"
   style="fill:#c6b08f"
   transform="matrix(17.301751,0,0,17.301751,-4514.5009,-6454.2409)" /><polygon
   points="270.344,396.562 268.16,398.138 269.252,398.26 271.193,396.683 270.344,396.562 "
   id="polygon37168"
   style="fill:#c6b08f"
   transform="matrix(17.301751,0,0,17.301751,-4514.5009,-6454.2409)" /><polygon
   points="267.984,396.173 265.742,397.791 266.863,397.918 268.857,396.296 267.984,396.173 "
   id="polygon37170"
   style="fill:#c6b08f"
   transform="matrix(17.301751,0,0,17.301751,-4514.5009,-6454.2409)" /><polygon
   points="265.689,395.431 263.342,397.126 264.516,397.257 266.604,395.561 265.689,395.431 "
   id="polygon37172"
   style="fill:#c6b08f"
   transform="matrix(17.301751,0,0,17.301751,-4514.5009,-6454.2409)" /><path
   d="M 116.98737,323.82388 C 102.4366,330.9176 89.321863,365.31348 105.27407,382.33841 C 104.58201,361.43789 108.82094,338.73799 116.98737,323.82388 z"
   id="path37174"
   style="fill:#4f370c" /><path
   d="M 143.14761,313.33902 C 127.33381,323.06261 116.17418,363.80823 136.31341,381.45601 C 133.1645,357.6488 135.48294,331.28094 143.14761,313.33902 z"
   id="path37176"
   style="fill:#4f370c" /><path
   d="M 171.22835,309.99978 C 158.47696,318.51225 143.58015,366.38619 175.48459,388.72275 C 163.8059,357.87373 166.98942,330.20823 171.22835,309.99978 z"
   id="path37178"
   style="fill:#4f370c" /><path
   d="M 202.80405,302.56003 C 188.32249,312.2144 171.40137,366.5592 207.61393,391.92357 C 194.34349,356.88753 197.97686,325.50215 202.80405,302.56003 z"
   id="path37180"
   style="fill:#4f370c" /><path
   d="M 245.71239,301.48732 C 224.43124,317.43954 211.66255,375.95406 239.32805,402.54685 C 231.88829,367.4416 235.07181,328.08011 245.71239,301.48732 z"
   id="path37182"
   style="fill:#4f370c" /><path
   d="M 294.03618,292.99216 C 269.84834,311.12439 255.34946,377.64963 286.76945,407.87579 C 278.32619,367.96065 281.94225,323.21832 294.03618,292.99216 z"
   id="path37184"
   style="fill:#4f370c" /><path
   d="M 349.95544,291.91945 C 310.59396,311.05519 314.85018,390.85086 343.57109,416.37095 C 329.74699,357.87373 330.8024,322.76847 349.95544,291.91945 z"
   id="path37186"
   style="fill:#4f370c" /><circle
   cx="294.23001"
   cy="386.75601"
   r="0.16500001"
   id="circle37188"
   sodipodi:cx="294.23001"
   sodipodi:cy="386.75601"
   sodipodi:rx="0.16500001"
   sodipodi:ry="0.16500001"
   style="fill:#342f27"
   transform="matrix(17.301751,0,0,17.301751,-4514.5009,-6454.2409)" />

</svg>