<?xml version="1.0" encoding="UTF-8" standalone="no"?>
<!-- Created with Inkscape (http://www.inkscape.org/) -->

<svg
   xmlns:dc="http://purl.org/dc/elements/1.1/"
   xmlns:cc="http://creativecommons.org/ns#"
   xmlns:rdf="http://www.w3.org/1999/02/22-rdf-syntax-ns#"
   xmlns:svg="http://www.w3.org/2000/svg"
   xmlns="http://www.w3.org/2000/svg"
   xmlns:xlink="http://www.w3.org/1999/xlink"
   xmlns:sodipodi="http://sodipodi.sourceforge.net/DTD/sodipodi-0.dtd"
   xmlns:inkscape="http://www.inkscape.org/namespaces/inkscape"
   width="48px"
   height="48px"
   id="svg1306"
   sodipodi:version="0.32"
   inkscape:version="0.48.2 r9819"
   sodipodi:docname="question.svg"
   version="1.1">
  <defs
     id="defs1308">
    <linearGradient
       id="linearGradient2536">
      <stop
         style="stop-color:#a40000;stop-opacity:1;"
         offset="0"
         id="stop2538" />
      <stop
         style="stop-color:#ff1717;stop-opacity:1;"
         offset="1"
         id="stop2540" />
    </linearGradient>
    <linearGradient
       id="linearGradient2479">
      <stop
         style="stop-color:#ffe69b;stop-opacity:1;"
         offset="0"
         id="stop2481" />
      <stop
         style="stop-color:#ffffff;stop-opacity:1;"
         offset="1"
         id="stop2483" />
    </linearGradient>
    <linearGradient
       id="linearGradient4126"
       inkscape:collect="always">
      <stop
         id="stop4128"
         offset="0"
         style="stop-color:#000000;stop-opacity:1;" />
      <stop
         id="stop4130"
         offset="1"
         style="stop-color:#000000;stop-opacity:0;" />
    </linearGradient>
    <radialGradient
       inkscape:collect="always"
       xlink:href="#linearGradient4126"
       id="radialGradient2169"
       gradientUnits="userSpaceOnUse"
       gradientTransform="matrix(1.000000,0.000000,0.000000,0.500000,1.899196e-14,20.00000)"
       cx="23.857143"
       cy="40.000000"
       fx="23.857143"
       fy="40.000000"
       r="17.142857" />
    <linearGradient
       inkscape:collect="always"
       xlink:href="#linearGradient2479"
       id="linearGradient2485"
       x1="43.93581"
       y1="53.835983"
       x2="20.064686"
       y2="-8.5626707"
       gradientUnits="userSpaceOnUse" />
  </defs>
  <sodipodi:namedview
     id="base"
     pagecolor="#ffffff"
     bordercolor="#666666"
     borderopacity="0.21568627"
     inkscape:pageopacity="0.0"
     inkscape:pageshadow="2"
     inkscape:zoom="22.627417"
     inkscape:cx="16.683059"
     inkscape:cy="24.309886"
     inkscape:current-layer="text4925"
     showgrid="false"
     inkscape:grid-bbox="true"
     inkscape:document-units="px"
     inkscape:window-width="2560"
     inkscape:window-height="1538"
     inkscape:window-x="-8"
     inkscape:window-y="-8"
     inkscape:showpageshadow="false"
     fill="#ef2929"
     inkscape:window-maximized="1" />
  <metadata
     id="metadata1311">
    <rdf:RDF>
      <cc:Work
         rdf:about="">
        <dc:format>image/svg+xml</dc:format>
        <dc:type
           rdf:resource="http://purl.org/dc/dcmitype/StillImage" />
        <dc:creator>
          <cc:Agent>
            <dc:title>Rodney Dawes</dc:title>
          </cc:Agent>
        </dc:creator>
        <dc:contributor>
          <cc:Agent>
            <dc:title>Jakub Steiner</dc:title>
          </cc:Agent>
        </dc:contributor>
        <cc:license
           rdf:resource="http://creativecommons.org/licenses/by-sa/2.0/" />
        <dc:title></dc:title>
      </cc:Work>
      <cc:License
         rdf:about="http://creativecommons.org/licenses/by-sa/2.0/">
        <cc:permits
           rdf:resource="http://web.resource.org/cc/Reproduction" />
        <cc:permits
           rdf:resource="http://web.resource.org/cc/Distribution" />
        <cc:requires
           rdf:resource="http://web.resource.org/cc/Notice" />
        <cc:requires
           rdf:resource="http://web.resource.org/cc/Attribution" />
        <cc:permits
           rdf:resource="http://web.resource.org/cc/DerivativeWorks" />
        <cc:requires
           rdf:resource="http://web.resource.org/cc/ShareAlike" />
      </cc:License>
    </rdf:RDF>
  </metadata>
  <g
     inkscape:groupmode="layer"
     id="layer2"
     inkscape:label="Shadow">
    <path
       transform="matrix(1.070555,0.000000,0.000000,0.525000,-0.892755,22.50000)"
       d="M 41 40 A 17.142857 8.5714283 0 1 1  6.7142868,40 A 17.142857 8.5714283 0 1 1  41 40 z"
       sodipodi:ry="8.5714283"
       sodipodi:rx="17.142857"
       sodipodi:cy="40"
       sodipodi:cx="23.857143"
       id="path6548"
       style="opacity:0.62025314;color:#000000;fill:url(#radialGradient2169);fill-opacity:1;fill-rule:nonzero;stroke:none;stroke-width:1;stroke-linecap:butt;stroke-linejoin:miter;marker:none;marker-start:none;marker-mid:none;marker-end:none;stroke-miterlimit:10;stroke-dasharray:none;stroke-dashoffset:0;stroke-opacity:1;visibility:visible;display:block;overflow:visible"
       sodipodi:type="arc" />
  </g>
  <g
     id="layer1"
     inkscape:label="Layer 1"
     inkscape:groupmode="layer">
    <path
       sodipodi:type="arc"
       style="fill:#8cc20b;fill-opacity:1;fill-rule:nonzero;stroke:#316103;stroke-width:1.08963323000000000;stroke-linecap:butt;stroke-linejoin:miter;stroke-miterlimit:4;stroke-dasharray:none;stroke-opacity:1"
       id="path1314"
       sodipodi:cx="23.5"
       sodipodi:cy="23.928572"
       sodipodi:rx="23.357143"
       sodipodi:ry="23.357143"
       d="M 46.857143 23.928572 A 23.357143 23.357143 0 1 1  0.1428566,23.928572 A 23.357143 23.357143 0 1 1  46.857143 23.928572 z"
       transform="matrix(0.917740,0.000000,0.000000,0.917740,2.433106,0.951548)" />
    <path
       sodipodi:type="arc"
       style="fill:#cc0000;fill-opacity:0;stroke:url(#linearGradient2485);stroke-width:1.171594;stroke-linecap:butt;stroke-linejoin:miter;stroke-miterlimit:4;stroke-dasharray:none;stroke-opacity:1;opacity:0.34659091"
       id="path3560"
       sodipodi:cx="25.910412"
       sodipodi:cy="26.635273"
       sodipodi:rx="23.991123"
       sodipodi:ry="23.991123"
       d="M 49.901535 26.635273 A 23.991123 23.991123 0 1 1  1.9192886,26.635273 A 23.991123 23.991123 0 1 1  49.901535 26.635273 z"
       transform="matrix(0.853538,0.000000,0.000000,0.853538,1.884492,0.177554)" />
    <g
       style="font-size:41.38425064px;font-style:normal;font-variant:normal;font-weight:bold;font-stretch:normal;text-align:start;line-height:100%;letter-spacing:0px;word-spacing:0px;writing-mode:lr-tb;text-anchor:start;fill:#2e3436;fill-opacity:1;stroke:#407f05;stroke-width:2;stroke-miterlimit:4;stroke-opacity:1;font-family:Myriad Pro;-inkscape-font-specification:Myriad Pro Bold"
       id="text4929">
      <path
         d="m 25.874832,27.677376 0,-0.744907 c -0.02329,-0.924226 0.137072,-1.807078 0.481086,-2.648558 0.34399,-0.841456 0.887151,-1.682924 1.629484,-2.524407 0.836281,-0.853524 1.626019,-1.836387 2.369217,-2.948591 0.743166,-1.112168 1.13976,-2.446792 1.189782,-4.003874 0.0086,-1.771716 -0.639739,-3.277048 -1.945034,-4.515998 -1.305326,-1.2388976 -3.319331,-1.8855175 -6.042023,-1.9398616 -1.477752,0.01641 -2.805479,0.1905663 -3.983184,0.5224704 -1.177716,0.3319598 -2.15368,0.7233801 -2.927897,1.1742622 l 1.407046,4.510825 c 0.55609,-0.377604 1.20271,-0.677636 1.939862,-0.900096 0.737142,-0.222414 1.456183,-0.336219 2.157126,-0.341415 1.031135,0.03106 1.793285,0.269016 2.28645,0.713868 0.493146,0.444897 0.738,1.034615 0.734562,1.769155 -0.01725,0.677677 -0.251761,1.370854 -0.703523,2.079531 -0.451782,0.708715 -1.017359,1.463967 -1.696733,2.265759 -0.924243,1.096684 -1.579485,2.183005 -1.965727,3.258968 -0.386254,1.075989 -0.544892,2.141619 -0.475912,3.196892 l 0.04138,1.075977 z m -2.89686,9.518255 c 1.150974,-0.02242 2.056242,-0.381075 2.715805,-1.075977 0.659542,-0.694901 0.995784,-1.591547 1.008729,-2.689942 -0.03364,-1.134599 -0.380225,-2.041592 -1.039767,-2.72098 -0.659563,-0.679375 -1.554484,-1.027688 -2.684767,-1.044938 -1.094951,0.01725 -1.977803,0.365563 -2.648558,1.044939 -0.670767,0.679388 -1.015631,1.58638 -1.034593,2.720979 0.01638,1.098396 0.356068,1.995042 1.019075,2.689942 0.662995,0.694901 1.55102,1.05356 2.664076,1.075977 z"
         style=""
         id="path4937" />
    </g>
    <g
       style="font-size:41.38425064px;font-style:normal;font-variant:normal;font-weight:bold;font-stretch:normal;text-align:start;line-height:100%;letter-spacing:0px;word-spacing:0px;writing-mode:lr-tb;text-anchor:start;fill:#eeeeec;fill-opacity:1;stroke:none;font-family:Myriad Pro;-inkscape-font-specification:Myriad Pro Bold"
       id="text4925">
      <path
         d="m 25.96322,27.356754 0,-0.744907 c -0.02329,-0.924225 0.137073,-1.807077 0.481086,-2.648558 0.343991,-0.841455 0.887151,-1.682923 1.629484,-2.524406 0.836281,-0.853525 1.62602,-1.836387 2.369217,-2.948592 0.743166,-1.112168 1.13976,-2.446791 1.189783,-4.003873 0.0086,-1.771717 -0.63974,-3.277048 -1.945035,-4.5159986 C 28.38243,8.7315219 26.368424,8.084902 23.645732,8.0305579 c -1.477752,0.01641 -2.805478,0.1905663 -3.983184,0.5224704 -1.177715,0.3319598 -2.15368,0.7233801 -2.927897,1.1742621 l 1.407047,4.5108256 c 0.55609,-0.377605 1.20271,-0.677637 1.939862,-0.900097 0.737141,-0.222414 1.456183,-0.336219 2.157126,-0.341415 1.031135,0.03106 1.793284,0.269017 2.28645,0.713869 0.493145,0.444897 0.737999,1.034614 0.734561,1.769154 -0.01725,0.677678 -0.251761,1.370854 -0.703523,2.079531 -0.451782,0.708715 -1.017359,1.463967 -1.696732,2.26576 -0.924244,1.096683 -1.579486,2.183005 -1.965728,3.258967 -0.386254,1.07599 -0.544891,2.141619 -0.475912,3.196892 l 0.04138,1.075977 z m -2.89686,9.518255 c 1.150975,-0.02242 2.056242,-0.381074 2.715806,-1.075976 0.659541,-0.694901 0.995784,-1.591548 1.008729,-2.689942 -0.03364,-1.1346 -0.380226,-2.041592 -1.039767,-2.72098 -0.659563,-0.679376 -1.554485,-1.027688 -2.684768,-1.044938 -1.094951,0.01725 -1.977803,0.365562 -2.648558,1.044938 -0.670766,0.679389 -1.01563,1.586381 -1.034593,2.72098 0.01638,1.098395 0.356068,1.995042 1.019075,2.689942 0.662996,0.694901 1.55102,1.053559 2.664076,1.075976 z"
         style=""
         id="path4934" />
    </g>
  </g>
  <g
     inkscape:groupmode="layer"
     id="layer3"
     inkscape:label="Error Box" />
  <g
     inkscape:groupmode="layer"
     id="layer4"
     inkscape:label="Glossy Shine"
     sodipodi:insensitive="true">
    <path
       style="fill:#fffeff;fill-opacity:0.21390375;fill-rule:nonzero;stroke:none"
       d="m 43.370686,21.715486 c 0,10.830616 -10.354329,-6.266308 -18.674738,0.386388 -8.126322,6.497511 -20.5969643,12.190548 -20.5969643,1.359932 0,-11.084053 8.6953963,-21.3670028 19.5260163,-21.3670028 10.830619,0 19.745686,8.7900648 19.745686,19.6206828 z"
       id="path3068"
       sodipodi:nodetypes="czssc"
       inkscape:connector-curvature="0" />
  </g>
</svg>
