<?xml version="1.0" encoding="UTF-8" standalone="no"?>
<!-- Created with Inkscape (http://www.inkscape.org/) -->
<svg
   xmlns:dc="http://purl.org/dc/elements/1.1/"
   xmlns:cc="http://web.resource.org/cc/"
   xmlns:rdf="http://www.w3.org/1999/02/22-rdf-syntax-ns#"
   xmlns:svg="http://www.w3.org/2000/svg"
   xmlns="http://www.w3.org/2000/svg"
   xmlns:xlink="http://www.w3.org/1999/xlink"
   xmlns:sodipodi="http://sodipodi.sourceforge.net/DTD/sodipodi-0.dtd"
   xmlns:inkscape="http://www.inkscape.org/namespaces/inkscape"
   width="48px"
   height="48px"
   id="svg1377"
   sodipodi:version="0.32"
   inkscape:version="0.44"
   sodipodi:docbase="e:\dev_clean\src\houdini\support\icons\dialog"
   sodipodi:docname="warning.svg"
   inkscape:export-filename="e:\dev_clean\src\houdini\support\icons\dialog\warning.png"
   inkscape:export-xdpi="90"
   inkscape:export-ydpi="90">
  <defs
     id="defs1379">
    <linearGradient
       y2="56.0523"
       x2="47.3197"
       y1="11.1133"
       x1="4.1914"
       gradientUnits="userSpaceOnUse"
       id="aigrd1">
      <stop
         id="stop6490"
         style="stop-color:#D4D4D4"
         offset="0" />
      <stop
         id="stop6492"
         style="stop-color:#E2E2E2"
         offset="0.3982" />
      <stop
         id="stop6494"
         style="stop-color:#FFFFFF"
         offset="1" />
    </linearGradient>
    <linearGradient
       id="linearGradient4126"
       inkscape:collect="always">
      <stop
         id="stop4128"
         offset="0"
         style="stop-color:#000000;stop-opacity:1;" />
      <stop
         id="stop4130"
         offset="1"
         style="stop-color:#000000;stop-opacity:0;" />
    </linearGradient>
    <radialGradient
       r="17.142857"
       fy="40.000000"
       fx="23.857143"
       cy="40.000000"
       cx="23.857143"
       gradientTransform="matrix(1.000000,0.000000,0.000000,0.500000,2.042141e-14,20.00000)"
       gradientUnits="userSpaceOnUse"
       id="radialGradient7449"
       xlink:href="#linearGradient4126"
       inkscape:collect="always" />
    <linearGradient
       inkscape:collect="always"
       xlink:href="#linearGradient6525"
       id="linearGradient5250"
       x1="8.5469341"
       y1="30.281681"
       x2="30.85088"
       y2="48.301884"
       gradientUnits="userSpaceOnUse"
       gradientTransform="matrix(0.899009,0.000000,0.000000,0.934235,1.875108,1.193645)" />
    <linearGradient
       y2="56.052299"
       x2="47.319698"
       y1="11.113300"
       x1="4.1914001"
       gradientUnits="userSpaceOnUse"
       id="linearGradient6525">
      <stop
         id="stop6529"
         style="stop-color:#ffffff;stop-opacity:1;"
         offset="0" />
      <stop
         id="stop6531"
         style="stop-color:#ffffff;stop-opacity:0.34020618;"
         offset="1" />
    </linearGradient>
    <radialGradient
       inkscape:collect="always"
       xlink:href="#linearGradient4126"
       id="radialGradient11723"
       gradientUnits="userSpaceOnUse"
       gradientTransform="matrix(1,0,0,0.5,0,20)"
       cx="23.857143"
       cy="40.000000"
       fx="23.857143"
       fy="40.000000"
       r="17.142857" />
    <linearGradient
       inkscape:collect="always"
       xlink:href="#linearGradient6525"
       id="linearGradient11725"
       gradientUnits="userSpaceOnUse"
       gradientTransform="matrix(0.899009,0,0,0.934235,1.875108,1.193645)"
       x1="8.5469341"
       y1="30.281681"
       x2="30.85088"
       y2="48.301884" />
  </defs>
  <sodipodi:namedview
     id="base"
     pagecolor="#ffffff"
     bordercolor="#666666"
     borderopacity="1.0"
     inkscape:pageopacity="0.0"
     inkscape:pageshadow="2"
     inkscape:zoom="11.390625"
     inkscape:cx="17.363458"
     inkscape:cy="24.050999"
     inkscape:current-layer="g7435"
     showgrid="true"
     inkscape:grid-bbox="true"
     inkscape:document-units="px"
     inkscape:window-width="934"
     inkscape:window-height="981"
     inkscape:window-x="410"
     inkscape:window-y="44" />
  <metadata
     id="metadata1382">
    <rdf:RDF>
      <cc:Work
         rdf:about="">
        <dc:format>image/svg+xml</dc:format>
        <dc:type
           rdf:resource="http://purl.org/dc/dcmitype/StillImage" />
        <dc:title>Dialog Warning</dc:title>
        <dc:date>2005-10-14</dc:date>
        <dc:creator>
          <cc:Agent>
            <dc:title>Andreas Nilsson</dc:title>
          </cc:Agent>
        </dc:creator>
        <dc:contributor>
          <cc:Agent>
            <dc:title>Jakub Steiner</dc:title>
          </cc:Agent>
        </dc:contributor>
        <dc:subject>
          <rdf:Bag>
            <rdf:li>dialog</rdf:li>
            <rdf:li>warning</rdf:li>
          </rdf:Bag>
        </dc:subject>
        <cc:license
           rdf:resource="http://creativecommons.org/licenses/by-sa/2.0/" />
      </cc:Work>
      <cc:License
         rdf:about="http://creativecommons.org/licenses/by-sa/2.0/">
        <cc:permits
           rdf:resource="http://web.resource.org/cc/Reproduction" />
        <cc:permits
           rdf:resource="http://web.resource.org/cc/Distribution" />
        <cc:requires
           rdf:resource="http://web.resource.org/cc/Notice" />
        <cc:requires
           rdf:resource="http://web.resource.org/cc/Attribution" />
        <cc:permits
           rdf:resource="http://web.resource.org/cc/DerivativeWorks" />
        <cc:requires
           rdf:resource="http://web.resource.org/cc/ShareAlike" />
      </cc:License>
    </rdf:RDF>
  </metadata>
  <g
     id="layer1"
     inkscape:label="Layer 1"
     inkscape:groupmode="layer">
    <g
       transform="matrix(1.566667,0.000000,0.000000,1.566667,-8.925566,-23.94764)"
       id="g7435">
      <g
         id="g11713"
         transform="matrix(1.11581,0,0,1.11581,-2.433305,-3.376191)">
        <path
           sodipodi:type="arc"
           style="opacity:0.62025314;color:black;fill:url(#radialGradient11723);fill-opacity:1;fill-rule:nonzero;stroke:none;stroke-width:1;stroke-linecap:butt;stroke-linejoin:miter;marker:none;marker-start:none;marker-mid:none;marker-end:none;stroke-miterlimit:10;stroke-dasharray:none;stroke-dashoffset:0;stroke-opacity:1;visibility:visible;display:block;overflow:visible"
           id="path6548"
           sodipodi:cx="23.857143"
           sodipodi:cy="40"
           sodipodi:rx="17.142857"
           sodipodi:ry="8.5714283"
           d="M 41 40 A 17.142857 8.5714283 0 1 1  6.7142868,40 A 17.142857 8.5714283 0 1 1  41 40 z"
           transform="matrix(0.683333,0,0,0.683333,4.748287,11.10609)" />
        <g
           transform="matrix(0.625,0,0,0.625,6.011173,14.00913)"
           id="Layer_x0020_2"
           style="fill-rule:nonzero;stroke:black;stroke-width:0.8962099;stroke-miterlimit:4">
          <path
             style="fill:none;stroke:none"
             d="M 48,48 L 0,48 L 0,0 L 48,0 L 48,48 z "
             id="path6480" />
        </g>
        <path
           id="path6485"
           d="M 33.282781,38.644744 L 22.407791,18.394765 C 22.095292,17.832266 21.532792,17.519767 20.907793,17.519767 C 20.282793,17.519767 19.720294,17.894765 19.407795,18.457265 L 8.7828048,38.707245 C 8.5328048,39.207244 8.5328048,39.894744 8.8453048,40.394743 C 9.1578038,40.894743 9.6578038,41.144742 10.282804,41.144742 L 31.782782,41.144742 C 32.407781,41.144742 32.97028,40.832243 33.220281,40.332243 C 33.53278,39.832243 33.53278,39.207244 33.282781,38.644744 z "
           style="fill:#c00;fill-rule:nonzero;stroke:#9f0000;stroke-width:0.57204878;stroke-miterlimit:4;stroke-dasharray:none;stroke-opacity:1" />
        <path
           style="fill:#eeeeec;fill-rule:nonzero;stroke:none;stroke-miterlimit:4"
           d="M 11.845317,38.3319 C 11.657817,38.649027 11.845317,38.902729 12.157817,38.902729 L 29.782817,38.902729 C 30.095317,38.902729 30.282817,38.649027 30.095317,38.3319 L 21.157817,21.460744 C 20.970317,21.143617 20.720317,21.143617 20.595317,21.460744 L 11.845317,38.3319 z "
           id="path6496" />
        <g
           id="g6498"
           transform="matrix(0.554873,0,0,0.554873,7.583837,16.5318)"
           style="fill-rule:nonzero;stroke:black;stroke-width:0.8962099;stroke-miterlimit:4">
          <path
             id="path6500"
             d="M 23.9,36.5 C 22.6,36.5 21.6,35.5 21.6,34.2 C 21.6,32.8 22.5,31.9 23.9,31.9 C 25.3,31.9 26.1,32.8 26.2,34.2 C 26.2,35.5 25.3,36.5 23.9,36.5 L 23.9,36.5 z M 22.5,30.6 L 21.9,19.1 L 25.9,19.1 L 25.3,30.6 L 22.4,30.6 L 22.5,30.6 z "
             style="stroke:none" />
        </g>
        <path
           sodipodi:nodetypes="ccsccscccc"
           id="path1325"
           d="M 32.323106,38.183905 L 22.150271,19.265666 C 21.71698,18.45069 21.561698,18.189213 20.908406,18.189213 C 20.346525,18.189213 20.054127,18.57002 19.651305,19.339291 L 9.7489285,38.242296 C 9.1737649,39.303588 9.1128238,39.580228 9.3937644,40.047345 C 9.6747034,40.514462 10.032797,40.48902 11.356441,40.519491 L 30.974593,40.519491 C 32.206825,40.534726 32.483988,40.440837 32.70874,39.97372 C 32.989681,39.506602 32.867799,39.136 32.323106,38.183905 z "
           style="opacity:0.5;fill:none;fill-opacity:1;fill-rule:nonzero;stroke:url(#linearGradient11725);stroke-width:0.5720489;stroke-miterlimit:4;stroke-dasharray:none;stroke-opacity:1" />
      </g>
    </g>
  </g>
</svg>
