<?xml version="1.0" encoding="UTF-8"?>
<svg width="12px" height="12px" viewBox="0 0 12 12" version="1.1" xmlns="http://www.w3.org/2000/svg" xmlns:xlink="http://www.w3.org/1999/xlink">
    <!-- Generator: Sketch 41.2 (35397) - http://www.bohemiancoding.com/sketch -->
    <title>checkbox_light_off</title>
    <desc>Created with Sketch.</desc>
    <defs>
        <rect id="path-1" x="0" y="1" width="10" height="10" rx="2"></rect>
        <mask id="mask-2" maskContentUnits="userSpaceOnUse" maskUnits="objectBoundingBox" x="0" y="0" width="10" height="10" fill="white">
            <use xlink:href="#path-1"></use>
        </mask>
    </defs>
    <g id="Page-1" stroke="none" stroke-width="1" fill="none" fill-rule="evenodd">
        <g id="checkbox_light_off">
            <path d="M10,6.69602273 L10,8.95454545 C10,9.51799524 9.79995465,9.99976126 9.39985795,10.399858 C8.99976126,10.7999547 8.51799524,11 7.95454545,11 L2.04545455,11 C1.48200476,11 1.00023874,10.7999547 0.600142045,10.399858 C0.200045348,9.99976126 0,9.51799524 0,8.95454545 L0,3.04545455 C0,2.48200476 0.200045348,2.00023874 0.600142045,1.60014205 C1.00023874,1.20004535 1.48200476,1 2.04545455,1 L7.95454545,1 C8.2528424,1 8.52982827,1.05918501 8.78551136,1.17755682 C8.85653445,1.21070092 8.89914766,1.26515114 8.91335227,1.34090909 C8.92755689,1.42140192 8.90625028,1.49005653 8.84943182,1.546875 L8.50142045,1.89488636 C8.45407173,1.94223509 8.39962152,1.96590909 8.33806818,1.96590909 C8.32386357,1.96590909 8.30255696,1.96117429 8.27414773,1.95170455 C8.16524567,1.92329531 8.05871264,1.90909091 7.95454545,1.90909091 L2.04545455,1.90909091 C1.73295298,1.90909091 1.46543672,2.02035874 1.24289773,2.24289773 C1.02035874,2.46543672 0.909090909,2.73295298 0.909090909,3.04545455 L0.909090909,8.95454545 C0.909090909,9.26704702 1.02035874,9.53456328 1.24289773,9.75710227 C1.46543672,9.97964126 1.73295298,10.0909091 2.04545455,10.0909091 L7.95454545,10.0909091 C8.26704702,10.0909091 8.53456328,9.97964126 8.75710227,9.75710227 C8.97964126,9.53456328 9.09090909,9.26704702 9.09090909,8.95454545 L9.09090909,7.15056818 C9.09090909,7.08901484 9.1122157,7.03693203 9.15482955,6.99431818 L9.609375,6.53977273 C9.65672372,6.49242401 9.71117393,6.46875 9.77272727,6.46875 C9.80113651,6.46875 9.82954531,6.4758522 9.85795455,6.49005682 C9.95265199,6.5279358 10,6.59659041 10,6.69602273 Z" id="Path" fill="#E4E4E4"></path>
            <use id="Rectangle" stroke="#D3D3D3" mask="url(#mask-2)" stroke-width="2" xlink:href="#path-1"></use>
        </g>
    </g>
</svg>