<?xml version="1.0" encoding="UTF-8" standalone="no"?>
<svg
   xmlns:dc="http://purl.org/dc/elements/1.1/"
   xmlns:cc="http://creativecommons.org/ns#"
   xmlns:rdf="http://www.w3.org/1999/02/22-rdf-syntax-ns#"
   xmlns:svg="http://www.w3.org/2000/svg"
   xmlns="http://www.w3.org/2000/svg"
   xmlns:xlink="http://www.w3.org/1999/xlink"
   xmlns:sodipodi="http://sodipodi.sourceforge.net/DTD/sodipodi-0.dtd"
   xmlns:inkscape="http://www.inkscape.org/namespaces/inkscape"
   viewBox="0 0 48 48"
   version="1.1"
   id="svg6453"
   sodipodi:docname="control_panel.svg"
   inkscape:version="1.0.1 (3bc2e813f5, 2020-09-07)">
  <metadata
     id="metadata6457">
    <rdf:RDF>
      <cc:Work
         rdf:about="">
        <dc:format>image/svg+xml</dc:format>
        <dc:type
           rdf:resource="http://purl.org/dc/dcmitype/StillImage" />
        <dc:title>16-Control Panel</dc:title>
      </cc:Work>
    </rdf:RDF>
  </metadata>
  <sodipodi:namedview
     pagecolor="#ffffff"
     bordercolor="#666666"
     borderopacity="1"
     objecttolerance="10"
     gridtolerance="10"
     guidetolerance="10"
     inkscape:pageopacity="0"
     inkscape:pageshadow="2"
     inkscape:window-width="2560"
     inkscape:window-height="1377"
     id="namedview6455"
     showgrid="false"
     inkscape:zoom="21.655145"
     inkscape:cx="21.191837"
     inkscape:cy="34.02449"
     inkscape:window-x="-8"
     inkscape:window-y="-8"
     inkscape:window-maximized="1"
     inkscape:current-layer="svg6453"
     inkscape:snap-global="false" />
  <defs
     id="defs6279">
    <linearGradient
       inkscape:collect="always"
       id="linearGradient10089">
      <stop
         style="stop-color:#dfd2ba;stop-opacity:1"
         offset="0"
         id="stop10085" />
      <stop
         style="stop-color:#c4ad7f;stop-opacity:1"
         offset="1"
         id="stop10087" />
    </linearGradient>
    <linearGradient
       inkscape:collect="always"
       id="linearGradient10065">
      <stop
         style="stop-color:#000000;stop-opacity:1;"
         offset="0"
         id="stop10061" />
      <stop
         style="stop-color:#000000;stop-opacity:0;"
         offset="1"
         id="stop10063" />
    </linearGradient>
    <linearGradient
       inkscape:collect="always"
       id="linearGradient10055">
      <stop
         style="stop-color:#a40000;stop-opacity:1;"
         offset="0"
         id="stop10051" />
      <stop
         style="stop-color:#650000;stop-opacity:1"
         offset="1"
         id="stop10053" />
    </linearGradient>
    <linearGradient
       inkscape:collect="always"
       id="linearGradient10047">
      <stop
         style="stop-color:#eabf00;stop-opacity:1"
         offset="0"
         id="stop10043" />
      <stop
         style="stop-color:#9a7e00;stop-opacity:1"
         offset="1"
         id="stop10045" />
    </linearGradient>
    <linearGradient
       inkscape:collect="always"
       id="linearGradient10039">
      <stop
         style="stop-color:#4e9a06;stop-opacity:1;"
         offset="0"
         id="stop10035" />
      <stop
         style="stop-color:#356904;stop-opacity:0.98790324"
         offset="1"
         id="stop10037" />
    </linearGradient>
    <style
       id="style6257">.cls-1{fill:url(#radial-gradient);}.cls-2{fill:#ccae87;}.cls-3{fill:url(#linear-gradient);}.cls-4{fill:#fff4cf;}.cls-5{fill:#d6c6a7;}.cls-6{fill:url(#linear-gradient-2);}.cls-7{fill:url(#linear-gradient-3);}.cls-10,.cls-31,.cls-8{fill:none;}.cls-8{stroke:#729fcf;}.cls-10,.cls-13,.cls-19,.cls-20,.cls-21,.cls-23,.cls-25,.cls-26,.cls-27,.cls-28,.cls-29,.cls-30,.cls-31,.cls-8{stroke-linecap:round;stroke-linejoin:round;stroke-width:0.35px;}.cls-9{fill:url(#linear-gradient-4);}.cls-10{stroke:#997e3a;}.cls-11{fill:#888a85;}.cls-12{fill:url(#linear-gradient-5);}.cls-13{fill:#d3d7cf;}.cls-13,.cls-20{stroke:#babdb6;}.cls-14{fill:#eeeeec;}.cls-15{fill:#2e3436;}.cls-16{fill:#babdb6;}.cls-17{fill:#fff;}.cls-18,.cls-19{fill:#fce94f;}.cls-19,.cls-21,.cls-27,.cls-29{stroke:#c4a000;}.cls-20{fill:#f4f4f4;}.cls-21{fill:#c4a000;}.cls-22{fill:#ff4d4d;}.cls-23{fill:#a40000;}.cls-23,.cls-28{stroke:#a40000;}.cls-24{fill:#8ae234;}.cls-25{fill:#4e9a06;}.cls-25,.cls-26{stroke:#4e9a06;}.cls-26{fill:#e3ffbb;}.cls-27,.cls-32{fill:#fff9de;}.cls-28{fill:#ffa6a6;}.cls-29{fill:#fcf4c5;}.cls-30{fill:#fcaf3e;}.cls-30,.cls-31{stroke:#f57900;}</style>
    <radialGradient
       id="radial-gradient"
       cx="-7.04"
       cy="96.15"
       r="20.35"
       gradientTransform="matrix(1.19,-0.01,0.01,0.74,30.7,-42.59)"
       gradientUnits="userSpaceOnUse">
      <stop
         offset="0.42"
         stop-color="#2c2c2c"
         stop-opacity="0.5"
         id="stop6259" />
      <stop
         offset="0.82"
         stop-color="#2c2c2c"
         stop-opacity="0.1"
         id="stop6261" />
      <stop
         offset="0.95"
         stop-color="#2c2c2c"
         stop-opacity="0"
         id="stop6263" />
    </radialGradient>
    <linearGradient
       id="linear-gradient"
       x1="7.68"
       y1="38.13"
       x2="11.78"
       y2="31.44"
       gradientUnits="userSpaceOnUse">
      <stop
         offset="0"
         stop-color="#ccae87"
         stop-opacity="0"
         id="stop6266" />
      <stop
         offset="1"
         stop-color="#99723a"
         id="stop6268" />
    </linearGradient>
    <linearGradient
       id="linear-gradient-2"
       x1="6.5059557"
       y1="35.985954"
       x2="50.995377"
       y2="30.246019"
       xlink:href="#linear-gradient" />
    <linearGradient
       id="linear-gradient-3"
       x1="7.5"
       y1="13.83"
       x2="35.19"
       y2="13.83"
       gradientUnits="userSpaceOnUse">
      <stop
         offset="0"
         stop-color="#fff"
         stop-opacity="0"
         id="stop6272" />
      <stop
         offset="1"
         stop-color="snow"
         id="stop6274" />
    </linearGradient>
    <linearGradient
       id="linear-gradient-4"
       x1="26.53"
       y1="26.47"
       x2="25.45"
       y2="1.75"
       xlink:href="#linear-gradient-3" />
    <linearGradient
       id="linear-gradient-5"
       x1="26.47"
       y1="21.85"
       x2="24.66"
       y2="2.84"
       xlink:href="#linear-gradient-3"
       gradientTransform="matrix(1.1825801,0,0,1.182835,-6.3471337,-3.814347)" />
    <linearGradient
       inkscape:collect="always"
       xlink:href="#linear-gradient"
       id="linearGradient7020"
       gradientUnits="userSpaceOnUse"
       x1="7.68"
       y1="38.13"
       x2="11.78"
       y2="31.44"
       gradientTransform="matrix(1.1825801,0,0,1.182835,-6.3471337,-3.814347)" />
    <linearGradient
       inkscape:collect="always"
       xlink:href="#linear-gradient-3"
       id="linearGradient7022"
       gradientUnits="userSpaceOnUse"
       x1="7.5"
       y1="13.83"
       x2="35.19"
       y2="13.83" />
    <linearGradient
       inkscape:collect="always"
       xlink:href="#linearGradient10039"
       id="linearGradient10041"
       x1="15.838069"
       y1="30.937346"
       x2="17.549362"
       y2="31.280708"
       gradientUnits="userSpaceOnUse" />
    <linearGradient
       inkscape:collect="always"
       xlink:href="#linearGradient10047"
       id="linearGradient10049"
       x1="20.553436"
       y1="28.985607"
       x2="22.128244"
       y2="29.312138"
       gradientUnits="userSpaceOnUse" />
    <linearGradient
       inkscape:collect="always"
       xlink:href="#linearGradient10055"
       id="linearGradient10057"
       x1="36.271137"
       y1="22.58647"
       x2="37.580685"
       y2="22.717081"
       gradientUnits="userSpaceOnUse" />
    <radialGradient
       inkscape:collect="always"
       xlink:href="#linearGradient10065"
       id="radialGradient10067"
       cx="35.871128"
       cy="18.770897"
       fx="35.871128"
       fy="18.770897"
       r="1.6326531"
       gradientTransform="matrix(1.1075166,-0.0265046,0.00892705,0.45210437,-0.55185445,-2.8833265)"
       gradientUnits="userSpaceOnUse" />
    <radialGradient
       inkscape:collect="always"
       xlink:href="#linearGradient10065"
       id="radialGradient10071"
       gradientUnits="userSpaceOnUse"
       gradientTransform="matrix(1.1075166,-0.0265046,0.00892705,0.45210437,-2.9727759,-5.5342288)"
       cx="35.871128"
       cy="18.770897"
       fx="35.871128"
       fy="18.770897"
       r="1.6326531" />
    <radialGradient
       inkscape:collect="always"
       xlink:href="#linearGradient10065"
       id="radialGradient10075"
       gradientUnits="userSpaceOnUse"
       gradientTransform="matrix(1.4140207,-0.04379781,0.0113976,0.7470846,-9.4256406,-6.0699549)"
       cx="35.871128"
       cy="18.770897"
       fx="35.871128"
       fy="18.770897"
       r="1.6326531" />
    <radialGradient
       inkscape:collect="always"
       xlink:href="#linearGradient10065"
       id="radialGradient10079"
       gradientUnits="userSpaceOnUse"
       gradientTransform="matrix(1.4140207,-0.04379781,0.0113976,0.7470846,-24.762197,6.6881162)"
       cx="35.871128"
       cy="18.770897"
       fx="35.871128"
       fy="18.770897"
       r="1.6326531" />
    <radialGradient
       inkscape:collect="always"
       xlink:href="#linearGradient10065"
       id="radialGradient10083"
       gradientUnits="userSpaceOnUse"
       gradientTransform="matrix(1.4140207,-0.04379781,0.0113976,0.7470846,-29.59243,10.53308)"
       cx="35.871128"
       cy="18.770897"
       fx="35.871128"
       fy="18.770897"
       r="1.6326531" />
    <linearGradient
       inkscape:collect="always"
       xlink:href="#linearGradient10089"
       id="linearGradient10091"
       x1="2.8138945"
       y1="18.328671"
       x2="13.899185"
       y2="40.725197"
       gradientUnits="userSpaceOnUse" />
  </defs>
  <title
     id="title6281">16-Control Panel</title>
  <g
     id="shadow"
     transform="matrix(0.99858042,0,0,0.98242254,1.3071599,5.0107861)"
     style="stroke-width:1.00962">
    <ellipse
       class="cls-1"
       cx="23.73"
       cy="28.709999"
       rx="23.200001"
       ry="14.55"
       transform="rotate(-9.64,23.73629,28.694946)"
       id="ellipse6283"
       style="fill:url(#radial-gradient);stroke-width:1.00962" />
  </g>
  <path
     class="cls-2"
     d="M 14.00507,41.133383 13.555689,43.66465 1.8008432,31.8363 0.12157945,25.922125 a 1.3954445,1.3957453 0 0 1 0,-0.295709 L 13.993244,41.133383 Z"
     id="path6286"
     style="stroke-width:1" />
  <path
     class="cls-3"
     d="M 14.00507,41.133383 13.555689,43.66465 1.8008432,31.8363 0.12157945,25.922125 a 1.3954445,1.3957453 0 0 1 0,-0.295709 L 13.993244,41.133383 Z"
     id="path6288"
     style="fill:url(#linearGradient7020);stroke-width:1" />
  <polygon
     class="cls-4"
     points="35.19,9.49 42.98,25.64 42.27,29.74 16.83,40.12 17.55,36.02 9.75,19.87 7.5,18.18 32.94,7.8 "
     id="polygon6290"
     style="stroke-width:0.845518"
     transform="matrix(1.1825801,0,0,1.182835,-6.3471337,-3.814347)" />
  <polyline
     class="cls-5"
     points="42.98 25.64 42.27 29.74 16.83 40.12 17.55 36.02"
     id="polyline6292"
     style="stroke-width:0.845518"
     transform="matrix(1.1825801,0,0,1.182835,-6.3471337,-3.814347)" />
  <polyline
     class="cls-6"
     points="42.98 25.64 42.27 29.74 16.83 40.12 17.55 36.02"
     id="polyline6294"
     style="fill:url(#linear-gradient-2);stroke-width:0.845518"
     transform="matrix(1.1825801,0,0,1.182835,-6.3471337,-3.814347)" />
  <polygon
     class="cls-7"
     points="32.94,7.8 7.5,18.18 9.75,19.87 35.17,9.49 35.19,9.49 "
     id="polygon6296"
     style="fill:url(#linearGradient7022);stroke-width:0.845518"
     transform="matrix(1.1825801,0,0,1.182835,-6.3471337,-3.814347)" />
  <line
     class="cls-8"
     x1="14.407146"
     y1="38.79137"
     x2="44.48016"
     y2="26.513542"
     id="line6298" />
  <path
     class="cls-5"
     d="m 14.407147,38.767713 -0.402077,2.36567 v 0 L 0.07427624,25.638244 a 1.4782251,1.4785437 0 0 1 0,-0.603245 l 2.36516016,-7.345406 2.6608053,1.998991 z"
     id="path6300"
     style="stroke-width:1;fill-opacity:1;fill:url(#linearGradient10091)" />
  <polyline
     class="cls-8"
     points="35.19 9.49 9.75 19.87 7.5 18.18"
     id="polyline6302"
     transform="matrix(1.1825801,0,0,1.182835,-6.3471337,-3.814347)" />
  <polygon
     class="cls-9"
     points="35.17,9.49 42.98,25.64 17.56,36.02 9.75,19.87 "
     id="polygon6304"
     style="fill:url(#linear-gradient-4);stroke-width:0.845518"
     transform="matrix(1.1825801,0,0,1.182835,-6.3471337,-3.814347)" />
  <polygon
     class="cls-10"
     points="35.17,9.49 42.98,25.64 17.56,36.02 9.75,19.87 "
     id="polygon6306"
     transform="matrix(1.1825801,0,0,1.182835,-6.3471337,-3.814347)" />
  <path
     class="cls-10"
     d="M 14.407147,38.767713 14.00507,41.133383 13.555689,43.66465 1.8008432,31.8363 0.12157945,25.922125 a 1.3954445,1.3957453 0 0 1 0,-0.295709 1.4782251,1.4785437 0 0 1 0,-0.603246 l 2.36516015,-7.345405 2.6608053,1.998991 z"
     id="path6308" />
  <polygon
     class="cls-10"
     points="35.19,9.49 42.98,25.64 42.27,29.74 16.83,40.12 17.55,36.02 9.75,19.87 7.5,18.18 32.94,7.8 "
     id="polygon6310"
     transform="matrix(1.1825801,0,0,1.182835,-6.3471337,-3.814347)" />
  <path
     class="cls-11"
     d="M 41.086154,25.508133 15.802592,35.834282 A 0.74502546,0.74518605 0 0 1 14.856527,35.467603 L 8.7544142,22.846754 a 0.73319966,0.7333577 0 0 1 0.3902514,-1.00541 L 34.428228,11.562508 a 0.73319966,0.7333577 0 0 1 0.946064,0.366679 l 6.102114,12.620849 a 0.75685126,0.7570144 0 0 1 -0.390252,0.958097 z"
     id="path6312"
     style="stroke-width:1" />
  <path
     class="cls-12"
     d="M 41.086154,25.508133 15.802592,35.834282 A 0.74502546,0.74518605 0 0 1 14.856527,35.467603 L 8.7544142,22.846754 a 0.73319966,0.7333577 0 0 1 0.3902514,-1.00541 L 34.428228,11.562508 a 0.73319966,0.7333577 0 0 1 0.946064,0.366679 l 6.102114,12.620849 a 0.75685126,0.7570144 0 0 1 -0.390252,0.958097 z"
     id="path6314"
     style="fill:url(#linear-gradient-5);stroke-width:1" />
  <polyline
     class="cls-13"
     points="31.49 24.62 33.62 23.75 33.48 24.56 31.34 25.43 31.34 25.43 31.49 24.62"
     id="polyline6316"
     transform="matrix(1.1825801,0,0,1.182835,-6.3471337,-3.814347)" />
  <polyline
     class="cls-13"
     points="29.35 25.49 31.49 24.62 31.34 25.43 29.21 26.3 29.21 26.3 29.35 25.49"
     id="polyline6318"
     transform="matrix(1.1825801,0,0,1.182835,-6.3471337,-3.814347)" />
  <polyline
     class="cls-13"
     points="27.21 26.36 29.35 25.49 29.21 26.3 27.07 27.17 27.07 27.17 27.21 26.36"
     id="polyline6320"
     transform="matrix(1.1825801,0,0,1.182835,-6.3471337,-3.814347)" />
  <ellipse
     class="cls-14"
     cx="-11.950251"
     cy="34.695797"
     rx="1.1473476"
     ry="1.2298858"
     transform="matrix(0.09964582,-0.99502297,0.99501871,0.09968835,0,0)"
     id="ellipse6322"
     style="stroke-width:1" />
  <ellipse
     style="color:#000000;overflow:visible;fill:url(#radialGradient10071);fill-opacity:1;stroke-width:3.00432;stroke-linecap:round;stroke-linejoin:round;stop-color:#000000"
     id="ellipse10069"
     cx="37.434074"
     cy="2.1479368"
     rx="1.465637"
     ry="0.62927687"
     transform="matrix(0.93117466,0.36457338,-0.29295378,0.9561266,0,0)" />
  <ellipse
     class="cls-15"
     cx="-11.907632"
     cy="34.732101"
     rx="0.57958794"
     ry="0.62676871"
     transform="matrix(0.09964582,-0.99502297,0.99501871,0.09968835,0,0)"
     id="ellipse6324"
     style="stroke-width:1" />
  <path
     class="cls-16"
     d="m 33.659551,15.406722 a 0.27199342,0.27205205 0 0 1 -0.165561,0.153768 0.29564503,0.29570875 0 0 1 -0.390252,-0.14194 0.31929663,0.31936545 0 0 1 0,-0.14194 c 0,0 0.224691,-1.443059 0.236516,-1.490372 a 0.47303204,0.473134 0 0 1 0.520336,-0.272052 c 0.331122,0.0828 0.402077,0.532276 0.402077,0.532276 z"
     id="path6326"
     style="stroke-width:1" />
  <ellipse
     class="cls-17"
     cx="-10.444749"
     cy="34.989586"
     rx="0.44947633"
     ry="0.48485887"
     transform="matrix(0.09964582,-0.99502297,0.99501871,0.09968835,0,0)"
     id="ellipse6328"
     style="stroke-width:1" />
  <ellipse
     class="cls-18"
     cx="-27.0788"
     cy="24.174202"
     rx="1.786077"
     ry="1.9276096"
     transform="matrix(0.09964582,-0.99502297,0.99501871,0.09968835,0,0)"
     id="ellipse6330"
     style="stroke-width:1" />
  <line
     class="cls-19"
     x1="18.558002"
     y1="25.283394"
     x2="18.723566"
     y2="24.325298"
     id="line6332" />
  <polygon
     class="cls-20"
     points="33.04,22.53 33.62,23.75 31.49,24.62 30.9,23.4 "
     id="polygon6334"
     transform="matrix(1.1825801,0,0,1.182835,-6.3471337,-3.814347)" />
  <polygon
     class="cls-20"
     points="30.9,23.4 31.49,24.62 29.35,25.49 28.76,24.28 "
     id="polygon6336"
     transform="matrix(1.1825801,0,0,1.182835,-6.3471337,-3.814347)" />
  <polygon
     class="cls-13"
     points="27.21,26.36 26.63,25.15 26.48,25.96 27.07,27.17 "
     id="polygon6338"
     transform="matrix(1.1825801,0,0,1.182835,-6.3471337,-3.814347)" />
  <polygon
     class="cls-20"
     points="28.76,24.28 29.35,25.49 27.21,26.36 26.63,25.15 "
     id="polygon6340"
     transform="matrix(1.1825801,0,0,1.182835,-6.3471337,-3.814347)" />
  <ellipse
     class="cls-8"
     cx="-26.879684"
     cy="24.194416"
     rx="0.76884109"
     ry="0.82780778"
     transform="matrix(0.09964582,-0.99502297,0.99501871,0.09968835,0,0)"
     id="ellipse6342" />
  <ellipse
     style="color:#000000;overflow:visible;fill:url(#radialGradient10079);fill-opacity:1;stroke-width:3.06401;stroke-linecap:round;stroke-linejoin:round;stop-color:#000000"
     id="ellipse10077"
     cx="26.827208"
     cy="19.382591"
     rx="1.8712505"
     ry="1.0398551"
     transform="matrix(0.91728724,0.39822621,-0.12072923,0.99268548,0,0)" />
  <path
     class="cls-21"
     d="M 22.377737,28.335108 20.745776,28.0394 20.580215,29.009324 v 0 a 0.70954806,0.709701 0 0 0 0.05913,0.461306 0.83963187,0.83981285 0 0 0 1.087974,0.390335 0.76867706,0.76884275 0 0 0 0.484858,-0.579589 z"
     id="path6344"
     style="fill-opacity:1;fill:url(#linearGradient10049)" />
  <ellipse
     class="cls-22"
     cx="-19.144764"
     cy="39.137409"
     rx="1.786077"
     ry="1.9276096"
     transform="matrix(0.09964582,-0.99502297,0.99501871,0.09968835,0,0)"
     id="ellipse6346"
     style="stroke-width:1" />
  <ellipse
     class="cls-8"
     cx="-18.957474"
     cy="39.157623"
     rx="0.76884109"
     ry="0.82780778"
     transform="matrix(0.09964582,-0.99502297,0.99501871,0.09968835,0,0)"
     id="ellipse6348" />
  <ellipse
     style="color:#000000;overflow:visible;fill:url(#radialGradient10075);fill-opacity:1;stroke-width:3.06401;stroke-linecap:round;stroke-linejoin:round;stop-color:#000000"
     id="ellipse10073"
     cx="42.163765"
     cy="6.6245208"
     rx="1.8712505"
     ry="1.0398551"
     transform="matrix(0.91728724,0.39822621,-0.12072923,0.99268548,0,0)" />
  <path
     class="cls-23"
     d="m 38.058749,21.935971 -1.63196,-0.295709 -0.165562,0.958097 v 0 a 0.66224486,0.6623876 0 0 0 0,0.473134 0.83963187,0.83981285 0 0 0 1.087974,0.390335 0.73319966,0.7333577 0 0 0 0.473032,-0.579589 z"
     id="path6350"
     style="fill-opacity:1;fill:url(#linearGradient10057)" />
  <ellipse
     class="cls-24"
     cx="-29.485573"
     cy="19.65192"
     rx="1.786077"
     ry="1.9276096"
     transform="matrix(0.09964582,-0.99502297,0.99501871,0.09968835,0,0)"
     id="ellipse6352"
     style="stroke-width:1" />
  <ellipse
     class="cls-8"
     cx="-29.274687"
     cy="19.65913"
     rx="0.76884109"
     ry="0.82780778"
     transform="matrix(0.09964582,-0.99502297,0.99501871,0.09968835,0,0)"
     id="ellipse6354" />
  <ellipse
     style="color:#000000;overflow:visible;fill:url(#radialGradient10083);fill-opacity:1;stroke-width:3.06401;stroke-linecap:round;stroke-linejoin:round;stop-color:#000000"
     id="ellipse10081"
     cx="21.996975"
     cy="23.227556"
     rx="1.8712505"
     ry="1.0398551"
     transform="matrix(0.91728724,0.39822621,-0.12072923,0.99268548,0,0)" />
  <path
     class="cls-25"
     d="m 17.635591,30.274958 -1.631961,-0.295709 -0.165561,0.958096 v 0 a 0.69772226,0.69787265 0 0 0 0,0.461306 0.87510927,0.8752979 0 0 0 1.099799,0.402164 0.78050287,0.7806711 0 0 0 0.473033,-0.579589 z"
     id="path6356"
     style="fill-opacity:1;fill:url(#linearGradient10041)" />
  <ellipse
     class="cls-26"
     cx="-28.290928"
     cy="19.736553"
     rx="0.76884109"
     ry="0.82780778"
     transform="matrix(0.09964582,-0.99502297,0.99501871,0.09968835,0,0)"
     id="ellipse6358" />
  <ellipse
     class="cls-27"
     cx="-25.895926"
     cy="24.260014"
     rx="0.76884109"
     ry="0.82780778"
     transform="matrix(0.09964582,-0.99502297,0.99501871,0.09968835,0,0)"
     id="ellipse6360" />
  <ellipse
     class="cls-28"
     cx="-17.961885"
     cy="39.223221"
     rx="0.76884109"
     ry="0.82780778"
     transform="matrix(0.09964582,-0.99502297,0.99501871,0.09968835,0,0)"
     id="ellipse6362" />
  <polygon
     class="cls-8"
     points="16.79,26.34 18.93,25.47 21.06,24.6 20.48,23.38 19.89,22.17 19.3,20.95 17.16,21.83 15.03,22.7 15.62,23.91 16.2,25.13 "
     id="polygon6364"
     transform="matrix(1.1825801,0,0,1.182835,-6.3471337,-3.814347)" />
  <polygon
     class="cls-19"
     points="16.2,25.13 16.79,26.34 18.93,25.47 21.06,24.6 21.2,23.79 19.07,24.66 16.93,25.53 16.34,24.32 15.76,23.1 15.17,21.89 15.03,22.7 15.62,23.91 "
     id="polygon6366"
     transform="matrix(1.1825801,0,0,1.182835,-6.3471337,-3.814347)" />
  <line
     class="cls-29"
     x1="11.592607"
     y1="22.077911"
     x2="11.427045"
     y2="23.036009"
     id="line6368" />
  <line
     class="cls-19"
     x1="16.039108"
     y1="26.31246"
     x2="16.204668"
     y2="25.354364"
     id="line6370" />
  <line
     class="cls-19"
     x1="12.810665"
     y1="25.910295"
     x2="12.976225"
     y2="24.9522"
     id="line6372" />
  <line
     class="cls-19"
     x1="12.124767"
     y1="24.467237"
     x2="12.290329"
     y2="23.509142"
     id="line6374" />
  <polygon
     class="cls-27"
     points="17.31,21.02 17.89,22.23 15.76,23.1 15.17,21.89 "
     id="polygon6376"
     transform="matrix(1.1825801,0,0,1.182835,-6.3471337,-3.814347)" />
  <polygon
     class="cls-19"
     points="17.89,22.23 18.48,23.45 16.34,24.32 15.76,23.1 "
     id="polygon6378"
     transform="matrix(1.1825801,0,0,1.182835,-6.3471337,-3.814347)" />
  <polygon
     class="cls-27"
     points="20.03,21.36 20.62,22.57 18.48,23.45 17.89,22.23 "
     id="polygon6380"
     transform="matrix(1.1825801,0,0,1.182835,-6.3471337,-3.814347)" />
  <polygon
     class="cls-27"
     points="18.48,23.45 19.07,24.66 16.93,25.53 16.34,24.32 "
     id="polygon6382"
     transform="matrix(1.1825801,0,0,1.182835,-6.3471337,-3.814347)" />
  <polygon
     class="cls-19"
     points="20.62,22.57 21.2,23.79 19.07,24.66 18.48,23.45 "
     id="polygon6384"
     transform="matrix(1.1825801,0,0,1.182835,-6.3471337,-3.814347)" />
  <polygon
     class="cls-19"
     points="19.44,20.14 20.03,21.36 17.89,22.23 17.31,21.02 "
     id="polygon6386"
     transform="matrix(1.1825801,0,0,1.182835,-6.3471337,-3.814347)" />
  <line
     class="cls-29"
     x1="13.508388"
     y1="27.341528"
     x2="13.673947"
     y2="26.38343"
     id="line6388" />
  <polygon
     class="cls-8"
     points="22.19,21.82 23.02,23.52 23.84,25.23 26.01,24.34 28.18,23.46 30.35,22.57 32.52,21.69 31.69,19.98 30.87,18.28 30.04,16.57 27.87,17.46 25.71,18.34 23.54,19.23 21.37,20.11 "
     id="polygon6390"
     transform="matrix(1.1825801,0,0,1.182835,-6.3471337,-3.814347)" />
  <polygon
     class="cls-30"
     points="23.26,24.02 23.84,25.23 25.98,24.36 32.52,21.69 32.66,20.88 26.12,23.55 23.99,24.42 23.4,23.2 22.81,21.99 21.51,19.3 21.37,20.11 22.67,22.8 "
     id="polygon6392"
     transform="matrix(1.1825801,0,0,1.182835,-6.3471337,-3.814347)" />
  <polygon
     class="cls-31"
     points="23.26,24.02 23.84,25.23 25.98,24.36 32.52,21.69 32.66,20.88 26.12,23.55 23.99,24.42 23.4,23.2 22.81,21.99 21.51,19.3 21.37,20.11 22.67,22.8 "
     id="polygon6394"
     transform="matrix(1.1825801,0,0,1.182835,-6.3471337,-3.814347)" />
  <line
     class="cls-30"
     x1="29.544172"
     y1="22.882238"
     x2="29.709734"
     y2="21.924143"
     id="line6396" />
  <line
     class="cls-30"
     x1="26.977974"
     y1="23.934961"
     x2="27.143534"
     y2="22.976866"
     id="line6398" />
  <line
     class="cls-30"
     x1="24.411776"
     y1="24.975857"
     x2="24.577335"
     y2="24.017761"
     id="line6400" />
  <line
     class="cls-30"
     x1="21.845575"
     y1="26.02858"
     x2="22.022963"
     y2="25.070484"
     id="line6402" />
  <line
     class="cls-30"
     x1="20.87586"
     y1="24.005932"
     x2="21.041422"
     y2="23.047834"
     id="line6404" />
  <line
     class="cls-30"
     x1="19.89432"
     y1="21.995111"
     x2="20.071707"
     y2="21.037016"
     id="line6406" />
  <polygon
     class="cls-32"
     points="23.68,18.41 24.5,20.12 22.34,21.01 21.51,19.3 "
     id="polygon6408"
     style="stroke-width:0.845518"
     transform="matrix(1.1825801,0,0,1.182835,-6.3471337,-3.814347)" />
  <polygon
     class="cls-31"
     points="23.68,18.41 24.5,20.12 22.34,21.01 21.51,19.3 "
     id="polygon6410"
     transform="matrix(1.1825801,0,0,1.182835,-6.3471337,-3.814347)" />
  <polygon
     class="cls-30"
     points="25.85,17.53 26.67,19.24 24.5,20.12 23.68,18.41 "
     id="polygon6412"
     transform="matrix(1.1825801,0,0,1.182835,-6.3471337,-3.814347)" />
  <polygon
     class="cls-32"
     points="28.02,16.64 28.84,18.35 26.67,19.24 25.85,17.53 "
     id="polygon6414"
     style="stroke-width:0.845518"
     transform="matrix(1.1825801,0,0,1.182835,-6.3471337,-3.814347)" />
  <polygon
     class="cls-31"
     points="28.02,16.64 28.84,18.35 26.67,19.24 25.85,17.53 "
     id="polygon6416"
     transform="matrix(1.1825801,0,0,1.182835,-6.3471337,-3.814347)" />
  <polygon
     class="cls-30"
     points="30.18,15.76 31.01,17.47 28.84,18.35 28.02,16.64 "
     id="polygon6418"
     transform="matrix(1.1825801,0,0,1.182835,-6.3471337,-3.814347)" />
  <polygon
     class="cls-30"
     points="24.5,20.12 25.33,21.83 23.16,22.71 22.34,21.01 "
     id="polygon6420"
     transform="matrix(1.1825801,0,0,1.182835,-6.3471337,-3.814347)" />
  <polygon
     class="cls-32"
     points="26.67,19.24 27.5,20.94 25.33,21.83 24.5,20.12 "
     id="polygon6422"
     style="stroke-width:0.845518"
     transform="matrix(1.1825801,0,0,1.182835,-6.3471337,-3.814347)" />
  <polygon
     class="cls-31"
     points="26.67,19.24 27.5,20.94 25.33,21.83 24.5,20.12 "
     id="polygon6424"
     transform="matrix(1.1825801,0,0,1.182835,-6.3471337,-3.814347)" />
  <polygon
     class="cls-30"
     points="28.84,18.35 29.66,20.06 27.5,20.94 26.67,19.24 "
     id="polygon6426"
     transform="matrix(1.1825801,0,0,1.182835,-6.3471337,-3.814347)" />
  <polygon
     class="cls-32"
     points="31.01,17.47 31.83,19.17 29.66,20.06 28.84,18.35 "
     id="polygon6428"
     style="stroke-width:0.845518"
     transform="matrix(1.1825801,0,0,1.182835,-6.3471337,-3.814347)" />
  <polygon
     class="cls-31"
     points="31.01,17.47 31.83,19.17 29.66,20.06 28.84,18.35 "
     id="polygon6430"
     transform="matrix(1.1825801,0,0,1.182835,-6.3471337,-3.814347)" />
  <polygon
     class="cls-27"
     points="25.33,21.83 26.15,23.53 23.99,24.42 23.16,22.71 "
     id="polygon6432"
     transform="matrix(1.1825801,0,0,1.182835,-6.3471337,-3.814347)" />
  <polygon
     class="cls-31"
     points="25.33,21.83 26.15,23.53 23.99,24.42 23.16,22.71 "
     id="polygon6434"
     transform="matrix(1.1825801,0,0,1.182835,-6.3471337,-3.814347)" />
  <polygon
     class="cls-30"
     points="27.5,20.94 28.32,22.65 26.15,23.53 25.33,21.83 "
     id="polygon6436"
     transform="matrix(1.1825801,0,0,1.182835,-6.3471337,-3.814347)" />
  <polygon
     class="cls-32"
     points="29.66,20.06 30.49,21.76 28.32,22.65 27.5,20.94 "
     id="polygon6438"
     style="stroke-width:0.845518"
     transform="matrix(1.1825801,0,0,1.182835,-6.3471337,-3.814347)" />
  <polygon
     class="cls-31"
     points="29.66,20.06 30.49,21.76 28.32,22.65 27.5,20.94 "
     id="polygon6440"
     transform="matrix(1.1825801,0,0,1.182835,-6.3471337,-3.814347)" />
  <polygon
     class="cls-30"
     points="31.83,19.17 32.66,20.88 30.49,21.76 29.66,20.06 "
     id="polygon6442"
     transform="matrix(1.1825801,0,0,1.182835,-6.3471337,-3.814347)" />
  <ellipse
     class="cls-14"
     cx="-15.143662"
     cy="36.660835"
     rx="1.1473476"
     ry="1.2298858"
     transform="matrix(0.09964582,-0.99502297,0.99501871,0.09968835,0,0)"
     id="ellipse6444"
     style="stroke-width:1" />
  <ellipse
     style="color:#000000;overflow:visible;fill:url(#radialGradient10067);fill-opacity:1;stroke-width:3.00432;stroke-linecap:round;stroke-linejoin:round;stop-color:#000000"
     id="path10059"
     cx="39.854996"
     cy="4.7988391"
     rx="1.465637"
     ry="0.62927687"
     transform="matrix(0.93117466,0.36457338,-0.29295378,0.9561266,0,0)" />
  <ellipse
     class="cls-15"
     cx="-15.112869"
     cy="36.69714"
     rx="0.57958794"
     ry="0.62676871"
     transform="matrix(0.09964582,-0.99502297,0.99501871,0.09968835,0,0)"
     id="ellipse6446"
     style="stroke-width:1" />
  <path
     class="cls-16"
     d="m 35.291512,18.801458 a 0.26016762,0.2602237 0 0 1 -0.153736,0.14194 0.30747083,0.3075371 0 0 1 -0.402077,-0.14194 0.20103862,0.20108195 0 0 1 0,-0.14194 c 0,0 0.212864,-1.443059 0.22469,-1.490372 a 0.47303204,0.473134 0 0 1 0.532161,-0.272052 c 0.319297,0.0828 0.402077,0.532276 0.402077,0.532276 z"
     id="path6448"
     style="stroke-width:1" />
  <ellipse
     class="cls-17"
     cx="-13.649987"
     cy="36.954624"
     rx="0.44947633"
     ry="0.48485887"
     transform="matrix(0.09964582,-0.99502297,0.99501871,0.09968835,0,0)"
     id="ellipse6450"
     style="stroke-width:1" />
</svg>
