<?xml version="1.0" encoding="UTF-8" standalone="no"?>
<svg
   xmlns:dc="http://purl.org/dc/elements/1.1/"
   xmlns:cc="http://creativecommons.org/ns#"
   xmlns:rdf="http://www.w3.org/1999/02/22-rdf-syntax-ns#"
   xmlns:svg="http://www.w3.org/2000/svg"
   xmlns="http://www.w3.org/2000/svg"
   xmlns:xlink="http://www.w3.org/1999/xlink"
   xmlns:sodipodi="http://sodipodi.sourceforge.net/DTD/sodipodi-0.dtd"
   xmlns:inkscape="http://www.inkscape.org/namespaces/inkscape"
   viewBox="0 0 48 48"
   version="1.1"
   id="svg383"
   sodipodi:docname="15-Daikaiju.svg"
   inkscape:version="1.0.1 (3bc2e813f5, 2020-09-07)">
  <metadata
     id="metadata387">
    <rdf:RDF>
      <cc:Work
         rdf:about="">
        <dc:format>image/svg+xml</dc:format>
        <dc:type
           rdf:resource="http://purl.org/dc/dcmitype/StillImage" />
      </cc:Work>
    </rdf:RDF>
  </metadata>
  <sodipodi:namedview
     pagecolor="#ffffff"
     bordercolor="#666666"
     borderopacity="1"
     objecttolerance="10"
     gridtolerance="10"
     guidetolerance="10"
     inkscape:pageopacity="0"
     inkscape:pageshadow="2"
     inkscape:window-width="2560"
     inkscape:window-height="1377"
     id="namedview385"
     showgrid="false"
     inkscape:zoom="15.3125"
     inkscape:cx="24"
     inkscape:cy="24"
     inkscape:window-x="-8"
     inkscape:window-y="-8"
     inkscape:window-maximized="1"
     inkscape:current-layer="svg383" />
  <defs
     id="defs136">
    <style
       id="style2">.cls-1,.cls-18,.cls-31,.cls-4,.cls-72,.cls-9{fill:none;}.cls-2{fill:#d0d0d0;}.cls-3{fill:url(#radial-gradient);}.cls-31,.cls-4,.cls-72,.cls-9{stroke:#275147;}.cls-18,.cls-31,.cls-4{stroke-miterlimit:10;}.cls-4,.cls-9{stroke-width:1.4px;}.cls-5{fill:url(#linear-gradient);}.cls-6{fill:url(#linear-gradient-2);}.cls-7{fill:url(#linear-gradient-3);}.cls-8{fill:url(#linear-gradient-4);}.cls-72,.cls-9{stroke-linecap:round;stroke-linejoin:round;}.cls-10{fill:url(#linear-gradient-5);}.cls-11{fill:url(#linear-gradient-6);}.cls-12{fill:url(#linear-gradient-7);}.cls-13{fill:url(#linear-gradient-8);}.cls-14{fill:url(#linear-gradient-9);}.cls-15{fill:url(#linear-gradient-10);}.cls-16{fill:url(#linear-gradient-11);}.cls-17{fill:url(#linear-gradient-12);}.cls-18{stroke:#c4a000;}.cls-18,.cls-31,.cls-72{stroke-width:0.35px;}.cls-19{fill:url(#linear-gradient-13);}.cls-20{fill:url(#linear-gradient-14);}.cls-21{fill:url(#linear-gradient-15);}.cls-22{fill:url(#linear-gradient-16);}.cls-23{fill:url(#linear-gradient-17);}.cls-24{fill:url(#linear-gradient-18);}.cls-25{fill:url(#linear-gradient-19);}.cls-26{fill:url(#linear-gradient-20);}.cls-27{fill:url(#linear-gradient-21);}.cls-28{fill:url(#linear-gradient-22);}.cls-29{fill:url(#linear-gradient-23);}.cls-30{fill:url(#linear-gradient-24);}.cls-32{fill:#edd400;}.cls-33{fill:url(#linear-gradient-25);}.cls-34{fill:url(#linear-gradient-26);}.cls-35{fill:url(#linear-gradient-27);}.cls-36{fill:url(#linear-gradient-28);}.cls-37{fill:#c4a000;}.cls-38{fill:url(#linear-gradient-29);}.cls-39{fill:url(#linear-gradient-30);}.cls-40{fill:url(#linear-gradient-31);}.cls-41{fill:url(#linear-gradient-32);}.cls-42{fill:url(#linear-gradient-33);}.cls-43{fill:url(#linear-gradient-34);}.cls-44{fill:url(#linear-gradient-36);}.cls-45{fill:url(#linear-gradient-37);}.cls-46{clip-path:url(#clip-path);}.cls-47{fill:#231f20;}.cls-48{fill:url(#linear-gradient-38);}.cls-49{fill:url(#linear-gradient-39);}.cls-50{fill:#ef2929;}.cls-51{fill:#f13b3d;}.cls-52{fill:#f34d51;}.cls-53{fill:#f45f65;}.cls-54{fill:#f67179;}.cls-55{fill:#f8828c;}.cls-56{fill:#fa94a0;}.cls-57{fill:#fba6b4;}.cls-58{fill:#fdb8c8;}.cls-59{fill:#ffcadc;}.cls-60{fill:url(#linear-gradient-40);}.cls-61{fill:url(#linear-gradient-41);}.cls-62{fill:url(#linear-gradient-42);}.cls-63{fill:url(#linear-gradient-43);}.cls-64{fill:url(#linear-gradient-44);}.cls-65{fill:url(#linear-gradient-45);}.cls-66{fill:url(#linear-gradient-46);}.cls-67{fill:url(#linear-gradient-47);}.cls-68{fill:url(#linear-gradient-48);}.cls-69{fill:url(#linear-gradient-49);}.cls-70{fill:url(#linear-gradient-50);}.cls-71{fill:url(#linear-gradient-51);}.cls-73{fill:url(#linear-gradient-52);}.cls-74{fill:url(#linear-gradient-53);}.cls-75{fill:url(#linear-gradient-54);}.cls-76{fill:url(#linear-gradient-55);}.cls-77{fill:url(#linear-gradient-56);}.cls-78{fill:url(#linear-gradient-57);}.cls-79{fill:url(#linear-gradient-58);}.cls-80{fill:url(#linear-gradient-59);}.cls-81{fill:url(#linear-gradient-60);}.cls-82{fill:url(#linear-gradient-61);}.cls-83{fill:url(#linear-gradient-62);}.cls-84{fill:url(#linear-gradient-63);}</style>
    <radialGradient
       id="radial-gradient"
       cx="9.12"
       cy="40.77"
       r="20.08"
       gradientTransform="matrix(1.19,0,0,0.41,13.22,23.07)"
       gradientUnits="userSpaceOnUse">
      <stop
         offset="0.03"
         stop-color="#2c2c2c"
         stop-opacity="0.5"
         id="stop4" />
      <stop
         offset="0.68"
         stop-color="#2c2c2c"
         stop-opacity="0.1"
         id="stop6" />
      <stop
         offset="0.93"
         stop-color="#2c2c2c"
         stop-opacity="0"
         id="stop8" />
    </radialGradient>
    <linearGradient
       id="linear-gradient"
       x1="21.36"
       y1="12.49"
       x2="26.79"
       y2="12.43"
       gradientUnits="userSpaceOnUse">
      <stop
         offset="0"
         stop-color="#67a599"
         id="stop11" />
      <stop
         offset="0.33"
         stop-color="#477f64"
         id="stop13" />
      <stop
         offset="1"
         stop-color="#275147"
         id="stop15" />
    </linearGradient>
    <linearGradient
       id="linear-gradient-2"
       x1="20.02"
       y1="9.49"
       x2="25.08"
       y2="9.49"
       gradientUnits="userSpaceOnUse">
      <stop
         offset="0"
         stop-color="#abd2ce"
         id="stop18" />
      <stop
         offset="1"
         stop-color="#90c4be"
         stop-opacity="0"
         id="stop20" />
    </linearGradient>
    <linearGradient
       id="linear-gradient-3"
       x1="25.15"
       y1="11.27"
       x2="25.09"
       y2="0.68"
       gradientUnits="userSpaceOnUse">
      <stop
         offset="0"
         stop-color="#c4a000"
         id="stop23" />
      <stop
         offset="0.2"
         stop-color="#edd400"
         id="stop25" />
      <stop
         offset="0.92"
         stop-color="#fffade"
         id="stop27" />
    </linearGradient>
    <linearGradient
       id="linear-gradient-4"
       x1="18.2"
       y1="37.93"
       x2="19.79"
       y2="40.49"
       gradientTransform="rotate(3.83,22.250828,38.629448)"
       xlink:href="#linear-gradient" />
    <linearGradient
       id="linear-gradient-5"
       x1="18.81"
       y1="34.67"
       x2="21.36"
       y2="33.01"
       xlink:href="#linear-gradient" />
    <linearGradient
       id="linear-gradient-6"
       x1="19.58"
       y1="35.45"
       x2="21.89"
       y2="33.96"
       gradientUnits="userSpaceOnUse">
      <stop
         offset="0"
         stop-color="#275147"
         id="stop32" />
      <stop
         offset="1"
         stop-color="#011e27"
         id="stop34" />
    </linearGradient>
    <linearGradient
       id="linear-gradient-7"
       x1="21.83"
       y1="25.9"
       x2="23.73"
       y2="30.75"
       xlink:href="#linear-gradient" />
    <linearGradient
       id="linear-gradient-8"
       x1="20.17"
       y1="27.02"
       x2="21.31"
       y2="28.55"
       gradientUnits="userSpaceOnUse">
      <stop
         offset="0"
         stop-color="#90c4be"
         id="stop38" />
      <stop
         offset="1"
         stop-color="#90c4be"
         stop-opacity="0"
         id="stop40" />
    </linearGradient>
    <linearGradient
       id="linear-gradient-9"
       x1="20.17"
       y1="27.02"
       x2="21.31"
       y2="28.55"
       xlink:href="#linear-gradient-2" />
    <linearGradient
       id="linear-gradient-10"
       x1="23.25"
       y1="31.56"
       x2="24.98"
       y2="28.39"
       xlink:href="#linear-gradient-6" />
    <linearGradient
       id="linear-gradient-11"
       x1="20.04"
       y1="31.24"
       x2="16.87"
       y2="29.49"
       gradientUnits="userSpaceOnUse">
      <stop
         offset="0"
         stop-color="#c4a000"
         id="stop45" />
      <stop
         offset="1"
         stop-color="#fce94f"
         id="stop47" />
    </linearGradient>
    <linearGradient
       id="linear-gradient-12"
       x1="19.39"
       y1="30.9"
       x2="17.37"
       y2="29.75"
       gradientUnits="userSpaceOnUse">
      <stop
         offset="0.2"
         stop-color="#edd400"
         id="stop50" />
      <stop
         offset="0.92"
         stop-color="#fffade"
         id="stop52" />
    </linearGradient>
    <linearGradient
       id="linear-gradient-13"
       x1="28.78"
       y1="39.44"
       x2="32.19"
       y2="42.29"
       gradientTransform="rotate(-3.7,29.839728,40.478908)"
       xlink:href="#linear-gradient" />
    <linearGradient
       id="linear-gradient-14"
       x1="18.82"
       y1="17.41"
       x2="20.85"
       y2="19.84"
       gradientTransform="rotate(4.06,21.61347,16.041563)"
       xlink:href="#linear-gradient" />
    <linearGradient
       id="linear-gradient-15"
       x1="18.88"
       y1="18.57"
       x2="21.39"
       y2="15.74"
       xlink:href="#linear-gradient-2" />
    <linearGradient
       id="linear-gradient-16"
       x1="19.46"
       y1="19.38"
       x2="22.35"
       y2="15.36"
       xlink:href="#linear-gradient-6" />
    <linearGradient
       id="linear-gradient-17"
       x1="17.31"
       y1="14.12"
       x2="13.7"
       y2="13.86"
       gradientTransform="rotate(4.06,21.61347,16.041563)"
       xlink:href="#linear-gradient" />
    <linearGradient
       id="linear-gradient-18"
       x1="17.1"
       y1="12.91"
       x2="14.98"
       y2="8.78"
       xlink:href="#linear-gradient-6" />
    <linearGradient
       id="linear-gradient-19"
       x1="14.26"
       y1="17.44"
       x2="17.12"
       y2="13.37"
       xlink:href="#linear-gradient-2" />
    <linearGradient
       id="linear-gradient-20"
       x1="17.02"
       y1="6.94"
       x2="21.98"
       y2="16.78"
       gradientTransform="matrix(0.95,-0.32,0.32,0.95,-7.38,10.42)"
       xlink:href="#linear-gradient-3" />
    <linearGradient
       id="linear-gradient-21"
       x1="23.21"
       y1="7.85"
       x2="12.33"
       y2="6.7"
       gradientTransform="matrix(0.95,-0.32,0.32,0.95,-7.38,10.42)"
       xlink:href="#linear-gradient-3" />
    <linearGradient
       id="linear-gradient-22"
       x1="21.46"
       y1="21.34"
       x2="26.9"
       y2="21.28"
       xlink:href="#linear-gradient" />
    <linearGradient
       id="linear-gradient-23"
       x1="29.48"
       y1="22.82"
       x2="28.19"
       y2="17.15"
       xlink:href="#linear-gradient-6" />
    <linearGradient
       id="linear-gradient-24"
       x1="24.01"
       y1="17.1"
       x2="23.54"
       y2="14.07"
       xlink:href="#linear-gradient-6" />
    <linearGradient
       id="linear-gradient-25"
       x1="29.35"
       y1="26.09"
       x2="21.84"
       y2="19.2"
       xlink:href="#linear-gradient-11" />
    <linearGradient
       id="linear-gradient-26"
       x1="28.49"
       y1="26.9"
       x2="27.22"
       y2="25.03"
       gradientUnits="userSpaceOnUse">
      <stop
         offset="0"
         stop-color="#937703"
         id="stop68" />
      <stop
         offset="1"
         stop-color="#edd400"
         id="stop70" />
    </linearGradient>
    <linearGradient
       id="linear-gradient-27"
       x1="29.61"
       y1="24.15"
       x2="24.08"
       y2="22.03"
       gradientUnits="userSpaceOnUse">
      <stop
         offset="0"
         stop-color="#c4a000"
         id="stop73" />
      <stop
         offset="0.2"
         stop-color="#edd400"
         id="stop75" />
      <stop
         offset="0.92"
         stop-color="#fff097"
         id="stop77" />
    </linearGradient>
    <linearGradient
       id="linear-gradient-28"
       x1="29.12"
       y1="23.84"
       x2="20.01"
       y2="20.79"
       gradientUnits="userSpaceOnUse">
      <stop
         offset="0"
         stop-color="#fce94f"
         stop-opacity="0"
         id="stop80" />
      <stop
         offset="1"
         stop-color="snow"
         id="stop82" />
    </linearGradient>
    <linearGradient
       id="linear-gradient-29"
       x1="28.74"
       y1="27.16"
       x2="32.35"
       y2="29.8"
       xlink:href="#linear-gradient" />
    <linearGradient
       id="linear-gradient-30"
       x1="30.16"
       y1="27.93"
       x2="34.04"
       y2="28.94"
       xlink:href="#linear-gradient-6" />
    <linearGradient
       id="linear-gradient-31"
       x1="31.73"
       y1="23.91"
       x2="31.97"
       y2="23.91"
       xlink:href="#linear-gradient-8" />
    <linearGradient
       id="linear-gradient-32"
       x1="29.27"
       y1="26.7"
       x2="30.69"
       y2="27.74"
       xlink:href="#linear-gradient-2" />
    <linearGradient
       id="linear-gradient-33"
       x1="31.81"
       y1="23.89"
       x2="31.85"
       y2="23.91"
       xlink:href="#linear-gradient-8" />
    <linearGradient
       id="linear-gradient-34"
       x1="29.49"
       y1="36.56"
       x2="32.51"
       y2="34.19"
       xlink:href="#linear-gradient" />
    <linearGradient
       id="linear-gradient-36"
       x1="30.33"
       y1="36.17"
       x2="32.68"
       y2="33.79"
       xlink:href="#linear-gradient-6" />
    <linearGradient
       id="linear-gradient-37"
       x1="19.84"
       y1="14.74"
       x2="22.65"
       y2="14.74"
       xlink:href="#linear-gradient-8" />
    <clipPath
       id="clip-path">
      <path
         class="cls-1"
         d="M27.58,13.6c-.2-2.21-1.72-3.66-2-4.61-.35-1.36-.66-1.21-1.35-1.32a20.6,20.6,0,0,0-2.66.25s-.14.42-.43,1.13A2.89,2.89,0,0,0,21,10c-.44-.2-.74-.22-.86-.06s.1.51.1.51l.15.14a.2.2,0,0,0,0,.11c.08,0,.1.13.16.2s.16.15.23.24a1.45,1.45,0,0,1,.31.62,2.65,2.65,0,0,1-.45,2c0,.06-.38.45-.38.45s-.35,0-.41.18.2.31.38.37a10.91,10.91,0,0,0,2.39.47,3,3,0,0,0,.79-.09.59.59,0,0,0,.24-.17c.21-.21.29-.48.48-.7a4.23,4.23,0,0,0,.63-.83A1.78,1.78,0,0,0,25,12.23a3,3,0,0,1,.26,1.71c-.07.43-.23.84-.32,1.26a.94.94,0,0,0,0,.68.8.8,0,0,0,.71.36c.15,0,.13-.23.27-.26s.58.32.73.41c.32.22.64.45,1,.66.11.07.44.35.58.29s0,0,0,0S27.65,14.42,27.58,13.6Z"
         id="path93" />
    </clipPath>
    <linearGradient
       id="linear-gradient-38"
       x1="22.62"
       y1="15.26"
       x2="22.45"
       y2="13.1"
       gradientUnits="userSpaceOnUse">
      <stop
         offset="0"
         stop-color="#ef2929"
         id="stop96" />
      <stop
         offset="0.61"
         stop-color="#a40000"
         id="stop98" />
      <stop
         offset="1"
         id="stop100" />
    </linearGradient>
    <linearGradient
       id="linear-gradient-39"
       x1="22.02"
       y1="15.51"
       x2="21.79"
       y2="14.23"
       xlink:href="#linear-gradient-27" />
    <linearGradient
       id="linear-gradient-40"
       x1="22.6"
       y1="15.3"
       x2="20.45"
       y2="9.73"
       gradientTransform="rotate(-4.89,21.17106,9.7023614)"
       xlink:href="#linear-gradient-27" />
    <linearGradient
       id="linear-gradient-41"
       x1="29.64"
       y1="31.72"
       x2="26.34"
       y2="31.17"
       xlink:href="#linear-gradient-11" />
    <linearGradient
       id="linear-gradient-42"
       x1="29.54"
       y1="32.02"
       x2="26.92"
       y2="30.96"
       xlink:href="#linear-gradient-12" />
    <linearGradient
       id="linear-gradient-43"
       x1="24.15"
       y1="11.05"
       x2="27.26"
       y2="15.09"
       gradientTransform="matrix(1,0,-0.02,1.01,0.37,-0.23)"
       xlink:href="#linear-gradient-6" />
    <linearGradient
       id="linear-gradient-44"
       x1="31.35"
       y1="16.15"
       x2="30.33"
       y2="19.17"
       xlink:href="#linear-gradient" />
    <linearGradient
       id="linear-gradient-45"
       x1="29.35"
       y1="14.61"
       x2="29.25"
       y2="17.15"
       xlink:href="#linear-gradient-2" />
    <linearGradient
       id="linear-gradient-46"
       x1="30.18"
       y1="13.02"
       x2="35.74"
       y2="13.02"
       xlink:href="#linear-gradient" />
    <linearGradient
       id="linear-gradient-47"
       x1="30.18"
       y1="12.11"
       x2="32.67"
       y2="12.11"
       xlink:href="#linear-gradient-8" />
    <linearGradient
       id="linear-gradient-48"
       x1="30.18"
       y1="12.11"
       x2="32.67"
       y2="12.11"
       xlink:href="#linear-gradient-2" />
    <linearGradient
       id="linear-gradient-49"
       x1="32.67"
       y1="13.31"
       x2="32.39"
       y2="9.15"
       xlink:href="#linear-gradient-6" />
    <linearGradient
       id="linear-gradient-50"
       x1="39.84"
       y1="20.8"
       x2="34.99"
       y2="20.94"
       gradientTransform="matrix(0.72,-0.81,0.7,0.61,-6.25,31.58)"
       xlink:href="#linear-gradient-3" />
    <linearGradient
       id="linear-gradient-51"
       x1="34.72"
       y1="6.19"
       x2="37.04"
       y2="12.62"
       xlink:href="#linear-gradient-3" />
    <linearGradient
       id="linear-gradient-52"
       x1="28.07"
       y1="22.44"
       x2="20.81"
       y2="29.3"
       gradientUnits="userSpaceOnUse">
      <stop
         offset="0"
         stop-color="#937703"
         id="stop116" />
      <stop
         offset="1"
         stop-color="#edd400"
         stop-opacity="0.1"
         id="stop118" />
    </linearGradient>
    <linearGradient
       id="linear-gradient-53"
       x1="29.63"
       y1="23.67"
       x2="23.32"
       y2="29.54"
       xlink:href="#linear-gradient-52" />
    <linearGradient
       id="linear-gradient-54"
       x1="29.03"
       y1="32.63"
       x2="28.62"
       y2="35.63"
       xlink:href="#linear-gradient-26" />
    <linearGradient
       id="linear-gradient-55"
       x1="19.21"
       y1="31.57"
       x2="19.58"
       y2="35.17"
       xlink:href="#linear-gradient-26" />
    <linearGradient
       id="linear-gradient-56"
       x1="29.41"
       y1="25.46"
       x2="26.35"
       y2="24.66"
       gradientUnits="userSpaceOnUse">
      <stop
         offset="0"
         stop-color="#c4a000"
         id="stop124" />
      <stop
         offset="1"
         stop-color="#c4a000"
         stop-opacity="0.1"
         id="stop126" />
    </linearGradient>
    <linearGradient
       id="linear-gradient-57"
       x1="28.25"
       y1="22.68"
       x2="26.46"
       y2="23.48"
       xlink:href="#linear-gradient-56" />
    <linearGradient
       id="linear-gradient-58"
       x1="14.65"
       y1="38.61"
       x2="21.25"
       y2="36.76"
       xlink:href="#linear-gradient-2" />
    <linearGradient
       id="linear-gradient-59"
       x1="14.94"
       y1="39.64"
       x2="21.54"
       y2="37.78"
       xlink:href="#linear-gradient-2" />
    <linearGradient
       id="linear-gradient-60"
       x1="15.27"
       y1="40.84"
       x2="21.88"
       y2="38.98"
       xlink:href="#linear-gradient-2" />
    <linearGradient
       id="linear-gradient-61"
       x1="27.15"
       y1="41.61"
       x2="30.2"
       y2="37.97"
       gradientTransform="rotate(-3.7,29.839728,40.478908)"
       xlink:href="#linear-gradient-2" />
    <linearGradient
       id="linear-gradient-62"
       x1="28.05"
       y1="42.27"
       x2="31.04"
       y2="38.71"
       gradientTransform="rotate(-3.7,29.839728,40.478908)"
       xlink:href="#linear-gradient-2" />
    <linearGradient
       id="linear-gradient-63"
       x1="29.37"
       y1="43.2"
       x2="32.29"
       y2="39.72"
       gradientTransform="rotate(-3.7,29.839728,40.478908)"
       xlink:href="#linear-gradient-2" />
    <linearGradient
       inkscape:collect="always"
       xlink:href="#linear-gradient"
       id="linearGradient1212"
       gradientUnits="userSpaceOnUse"
       x1="21.36"
       y1="12.49"
       x2="26.79"
       y2="12.43" />
    <linearGradient
       inkscape:collect="always"
       xlink:href="#linear-gradient-2"
       id="linearGradient1214"
       gradientUnits="userSpaceOnUse"
       x1="20.02"
       y1="9.49"
       x2="25.08"
       y2="9.49" />
    <linearGradient
       inkscape:collect="always"
       xlink:href="#linear-gradient-3"
       id="linearGradient1216"
       gradientUnits="userSpaceOnUse"
       x1="25.15"
       y1="11.27"
       x2="25.09"
       y2="0.68" />
    <linearGradient
       inkscape:collect="always"
       xlink:href="#linear-gradient-6"
       id="linearGradient1218"
       gradientUnits="userSpaceOnUse"
       x1="19.58"
       y1="35.45"
       x2="21.89"
       y2="33.96" />
    <linearGradient
       inkscape:collect="always"
       xlink:href="#linear-gradient-8"
       id="linearGradient1220"
       gradientUnits="userSpaceOnUse"
       x1="20.17"
       y1="27.02"
       x2="21.31"
       y2="28.55" />
    <linearGradient
       inkscape:collect="always"
       xlink:href="#linear-gradient-11"
       id="linearGradient1222"
       gradientUnits="userSpaceOnUse"
       x1="20.04"
       y1="31.24"
       x2="16.87"
       y2="29.49" />
    <linearGradient
       inkscape:collect="always"
       xlink:href="#linear-gradient-12"
       id="linearGradient1224"
       gradientUnits="userSpaceOnUse"
       x1="19.39"
       y1="30.9"
       x2="17.37"
       y2="29.75" />
    <linearGradient
       inkscape:collect="always"
       xlink:href="#linear-gradient-26"
       id="linearGradient1226"
       gradientUnits="userSpaceOnUse"
       x1="28.49"
       y1="26.9"
       x2="27.22"
       y2="25.03" />
    <linearGradient
       inkscape:collect="always"
       xlink:href="#linear-gradient-27"
       id="linearGradient1228"
       gradientUnits="userSpaceOnUse"
       x1="29.61"
       y1="24.15"
       x2="24.08"
       y2="22.03" />
    <linearGradient
       inkscape:collect="always"
       xlink:href="#linear-gradient-6"
       id="linearGradient1230"
       x1="30.16"
       y1="27.93"
       x2="34.04"
       y2="28.94" />
    <linearGradient
       inkscape:collect="always"
       xlink:href="#linear-gradient-52"
       id="linearGradient1232"
       gradientUnits="userSpaceOnUse"
       x1="28.07"
       y1="22.44"
       x2="20.81"
       y2="29.3" />
    <linearGradient
       inkscape:collect="always"
       xlink:href="#linear-gradient-56"
       id="linearGradient1234"
       gradientUnits="userSpaceOnUse"
       x1="29.41"
       y1="25.46"
       x2="26.35"
       y2="24.66" />
  </defs>
  <title
     id="title138">15-Daikaiju</title>
  <g
     id="shadow"
     transform="matrix(1,0,0,0.79026371,0.84897959,10.26984)"
     style="stroke-width:1.1249">
    <ellipse
       class="cls-3"
       cx="24.030001"
       cy="39.779999"
       rx="22.879999"
       ry="7.9400001"
       id="ellipse143"
       style="fill:url(#radial-gradient);stroke-width:1.1249" />
  </g>
  <g
     id="ART"
     transform="matrix(1.1448826,0,0,1.1446197,-2.8496284,-4.0873567)"
     style="stroke-width:0.873552">
    <path
       class="cls-4"
       d="m 20.8,31.56 a 0.48,0.48 0 0 1 0,0.43 4.63,4.63 0 0 0 -2.29,1.23 1,1 0 0 0 -0.3,0.68 2.15,2.15 0 0 1 -0.87,-1 6.49,6.49 0 0 1 -0.46,-2.27 16,16 0 0 1 1.66,-3.82 c 0,0 0.33,2.25 0.51,2.95 0.18,0.7 1.75,1.8 1.75,1.8 z"
       id="path146" />
    <path
       class="cls-4"
       d="m 28.06,27.42 a 29.67,29.67 0 0 0 1.18,3.39 4.33,4.33 0 0 0 1.13,1.36 0.46,0.46 0 0 1 0.11,0.57 c 0,0 -0.85,0.64 -1,0.83 a 9,9 0 0 0 -1.08,2 26.81,26.81 0 0 1 -1.8,-2.11 2.09,2.09 0 0 1 -0.25,-1.94 13.41,13.41 0 0 1 1.71,-4.1 z"
       id="path148" />
    <path
       class="cls-4"
       d="m 28.61,14.83 a 0.35,0.35 0 0 0 0.1,-0.25 c 0,-0.22 -0.28,-0.31 -0.39,-0.49 -0.11,-0.18 0,-0.5 0.1,-0.72 a 1.33,1.33 0 0 0 0.18,-0.54 0.51,0.51 0 0 0 -0.24,-0.49 c -0.09,-0.05 -0.2,-0.06 -0.28,-0.11 a 0.46,0.46 0 0 1 -0.17,-0.31 1.46,1.46 0 0 1 0,-0.36 2.78,2.78 0 0 0 0,-1.46 0.41,0.41 0 0 0 -0.26,-0.24 c -0.15,0 -0.3,0.1 -0.44,0.05 a 0.35,0.35 0 0 1 -0.19,-0.3 c -0.09,-0.37 0.12,-1.88 -0.49,-1.89 -0.17,0 -0.3,0.12 -0.49,0 A 0.67,0.67 0 0 1 25.74,7.42 3.51,3.51 0 0 1 25.42,6.51 2.52,2.52 0 0 0 25.15,5.74 0.42,0.42 0 0 0 24.59,5.57 c -0.26,0.15 -0.46,0.45 -0.76,0.2 -0.3,-0.25 -0.76,-0.73 -1.2,-1.08 -0.11,-0.08 -1,-0.62 -1.05,-0.19 0,0.19 0.32,0.41 0.6,1.46 A 2.92,2.92 0 0 1 22,8 c -0.13,0.37 0.19,0.5 0.26,0.38 A 1.27,1.27 0 0 1 22.71,8 2.57,2.57 0 0 1 24.53,7.76 c 0.62,0.24 1,1.25 1.08,1.68 a 6.66,6.66 0 0 0 1,1.66 6.73,6.73 0 0 1 0.74,2.48 c 0.15,0.83 0.12,1.14 0.5,1.46 a 0.42,0.42 0 0 0 0.53,0 1.23,1.23 0 0 0 0.23,-0.21 z"
       id="path150" />
    <path
       class="cls-4"
       d="M 42.92,16.05 A 24.66,24.66 0 0 0 37.81,10.29 C 34.05,7.29 31.15,7 31.15,7 H 31.09 A 0.85,0.85 0 0 0 30.6,7 c -0.46,0.15 -0.5,0.8 -0.33,1.95 a 40.08,40.08 0 0 0 1.2,4 c 0.41,1.39 0.82,3.32 0.82,3.32 a 1.76,1.76 0 0 0 0.09,0.47 c -1,-0.28 -2.4,-1.38 -3.65,-1.92 a 2.08,2.08 0 0 0 -1.84,0.12 1.11,1.11 0 0 0 -0.31,1.74 3.43,3.43 0 0 0 0.65,0.53 13.62,13.62 0 0 0 4.28,1.79 20.74,20.74 0 0 0 3.44,0.39 0.58,0.58 0 0 0 0.64,-0.43 c 0.26,-0.23 0.27,-1.3 -0.67,-3 a 25.53,25.53 0 0 1 -2.19,-5.43 22.48,22.48 0 0 1 5.2,2.34 25,25 0 0 1 4.62,3.51 c 0.19,0.17 0.51,-0.11 0.37,-0.33 z"
       id="path152" />
    <path
       class="cls-4"
       d="m 27.58,13.6 c -0.2,-2.21 -1.72,-3.66 -2,-4.61 A 1.82,1.82 0 0 0 24.27,7.53 5.06,5.06 0 0 0 22.65,8 c 0,0 -0.83,-0.3 -1.11,0.41 a 8.24,8.24 0 0 0 -0.37,1.65 c -0.44,-0.2 -1,-0.22 -1.09,-0.05 -0.09,0.17 0.13,0.49 0.13,0.49 l 0.15,0.14 c 0,0 0,0.11 0,0.11 0,0 0.1,0.13 0.16,0.2 0.06,0.07 0.16,0.15 0.23,0.24 a 1.45,1.45 0 0 1 0.31,0.62 2.65,2.65 0 0 1 -0.45,2 c 0,0.06 -0.38,0.45 -0.38,0.45 0,0 -0.35,0 -0.41,0.18 -0.06,0.18 0.2,0.31 0.38,0.37 a 10.91,10.91 0 0 0 2.39,0.47 3,3 0 0 0 0.79,-0.09 0.59,0.59 0 0 0 0.24,-0.17 1.85,1.85 0 0 0 0.44,-1 8.85,8.85 0 0 1 0.57,-1.81 4.76,4.76 0 0 0 0,1.13 1.52,1.52 0 0 0 0.15,0.6 c 0,0 0,0.05 0.05,0.06 h 0.07 l 0.32,-0.08 a 3,3 0 0 0 -0.58,1.55 0.62,0.62 0 0 0 0.08,0.33 c 0.12,0.24 0.52,0.28 0.75,0.32 a 0.34,0.34 0 0 0 0.28,-0.05 0.28,0.28 0 0 0 0.07,-0.13 c 0.09,-0.27 2.32,1.58 2.38,1.3 0.01,0.07 -0.55,-2.82 -0.62,-3.64 z"
       id="path154" />
    <path
       class="cls-5"
       d="M 27.46,13.81 C 27.26,10.57 25.83,10.19 25.59,9.24 25.35,8.29 24.77,7.6 24.31,7.53 A 5.06,5.06 0 0 0 22.65,8 c 0,0 -0.83,-0.3 -1.11,0.41 a 8.24,8.24 0 0 0 -0.37,1.65 c -0.44,-0.2 -1,-0.22 -1.09,-0.05 -0.09,0.17 0.13,0.49 0.13,0.49 l 0.16,0.15 a 0.16,0.16 0 0 0 0,0.1 c 0.08,0 0.1,0.13 0.16,0.2 0.06,0.07 0.16,0.15 0.23,0.24 a 1.45,1.45 0 0 1 0.31,0.62 2.65,2.65 0 0 1 -0.45,2 c 0,0.06 -0.38,0.45 -0.38,0.45 0,0 -0.35,0 -0.41,0.18 -0.06,0.18 0.2,0.31 0.38,0.37 a 10.91,10.91 0 0 0 2.39,0.47 3,3 0 0 0 0.79,-0.09 1.54,1.54 0 0 0 0.57,-0.44 c 0.25,-0.26 0.49,-0.53 0.72,-0.8 a 1.6,1.6 0 0 0 0.28,-0.4 c 0.05,-0.09 0.18,-0.33 0.14,-0.44 a 4.06,4.06 0 0 1 -0.15,2 1.28,1.28 0 0 0 0,0.67 c 0.08,0.25 0.6,0.52 0.82,0.29 a 0.28,0.28 0 0 0 0.07,-0.13 c 0.09,-0.27 2.32,1.58 2.38,1.3 a 33.17,33.17 0 0 1 -0.76,-3.43 z"
       id="path156"
       style="fill:url(#linearGradient1212);stroke-width:0.873552" />
    <path
       class="cls-6"
       d="M 22.65,7.88 A 4.15,4.15 0 0 1 24,7.57 a 1.22,1.22 0 0 1 1.09,1.25 1.46,1.46 0 0 0 -1.27,-0.61 2,2 0 0 0 -1,0.38 C 22.7,8.67 22.6,8.78 22.49,8.85 A 4.48,4.48 0 0 0 22,9 0.23,0.23 0 0 0 21.94,9.3 c 0,0.07 0.13,0.12 0.13,0.21 0,0.09 -0.14,0.15 -0.23,0.21 a 0.43,0.43 0 0 0 -0.13,0.56 c 0,0 0.1,0.12 0.08,0.19 -0.02,0.07 -0.14,0.09 -0.23,0.13 a 0.36,0.36 0 0 0 -0.17,0.38 1.2,1.2 0 0 0 0.22,0.4 5.93,5.93 0 0 0 -0.72,-0.1 1.13,1.13 0 0 0 -0.1,-0.13 c -0.07,-0.09 -0.16,-0.16 -0.23,-0.24 -0.07,-0.08 -0.08,-0.15 -0.16,-0.2 -0.08,-0.05 0,-0.11 0,-0.11 l -0.15,-0.12 v 0 C 20.18,10.43 19.98,10.19 20.14,9.99 v 0 c 0,0 0,0 0.06,0 a 0.7,0.7 0 0 1 0.4,0 A 1.72,1.72 0 0 1 21,10 l 0.2,0.07 a 7.55,7.55 0 0 1 0.36,-1.65 c 0.16,-0.43 0.5,-0.45 0.88,-0.49 a 1.81,1.81 0 0 0 0.21,-0.05 z"
       id="path158"
       style="fill:url(#linearGradient1214);stroke-width:0.873552" />
    <path
       class="cls-7"
       d="m 28.61,14.83 a 0.35,0.35 0 0 0 0.1,-0.25 c 0,-0.22 -0.28,-0.31 -0.39,-0.49 -0.11,-0.18 0,-0.5 0.1,-0.72 a 1.33,1.33 0 0 0 0.18,-0.54 0.51,0.51 0 0 0 -0.24,-0.49 c -0.09,-0.05 -0.2,-0.06 -0.28,-0.11 a 0.46,0.46 0 0 1 -0.17,-0.31 1.46,1.46 0 0 1 0,-0.36 2.78,2.78 0 0 0 0,-1.46 0.41,0.41 0 0 0 -0.26,-0.24 c -0.15,0 -0.3,0.1 -0.44,0.05 a 0.35,0.35 0 0 1 -0.19,-0.3 c -0.09,-0.37 0.12,-1.88 -0.49,-1.89 -0.17,0 -0.3,0.12 -0.49,0 A 0.67,0.67 0 0 1 25.74,7.42 3.51,3.51 0 0 1 25.42,6.51 2.52,2.52 0 0 0 25.15,5.74 0.42,0.42 0 0 0 24.59,5.57 c -0.26,0.15 -0.46,0.45 -0.76,0.2 -0.3,-0.25 -0.76,-0.73 -1.2,-1.08 -0.11,-0.08 -1,-0.62 -1.05,-0.19 0,0.19 0.32,0.41 0.6,1.46 A 2.92,2.92 0 0 1 22,8 c -0.13,0.37 0.19,0.5 0.26,0.38 A 1.27,1.27 0 0 1 22.71,8 2.57,2.57 0 0 1 24.53,7.76 c 0.62,0.24 1,1.25 1.08,1.68 a 6.66,6.66 0 0 0 1,1.66 6.73,6.73 0 0 1 0.74,2.48 c 0.15,0.83 0.12,1.14 0.5,1.46 a 0.42,0.42 0 0 0 0.53,0 1.23,1.23 0 0 0 0.23,-0.21 z"
       id="path160"
       style="fill:url(#linearGradient1216);stroke-width:0.873552" />
    <path
       class="cls-4"
       d="m 22,37.09 a 9.61,9.61 0 0 1 -3.63,0.64 12.29,12.29 0 0 1 -2,-0.33 c -0.22,-0.07 -0.7,0 -0.27,0.31 a 6.17,6.17 0 0 0 1.48,0.57 c 0.26,0.08 0.16,0.22 -0.37,0.33 a 10.78,10.78 0 0 0 -1.55,0.5 c -0.67,0.24 -0.6,0.57 0.06,0.56 1.26,0 0.49,0 1.21,0 1.1,0 1.39,-0.13 0.78,0.42 -0.61,0.55 -0.87,1 -0.67,1.13 0.2,0.13 0.85,-0.19 1.92,-0.64 1.07,-0.45 2.8,-1 3.34,-1.3 0.54,-0.3 0.75,-0.45 0.57,-0.86 A 5.17,5.17 0 0 0 22,37.09 Z"
       id="path162" />
    <path
       class="cls-8"
       d="m 22,37.09 a 9.61,9.61 0 0 1 -3.63,0.64 12.29,12.29 0 0 1 -2,-0.33 c -0.22,-0.07 -0.7,0 -0.27,0.31 a 6.17,6.17 0 0 0 1.48,0.57 c 0.26,0.08 0.16,0.22 -0.37,0.33 a 10.78,10.78 0 0 0 -1.55,0.5 c -0.67,0.24 -0.6,0.57 0.06,0.56 1.26,0 0.49,0 1.21,0 1.1,0 1.39,-0.13 0.78,0.42 -0.61,0.55 -0.87,1 -0.67,1.13 0.2,0.13 0.85,-0.19 1.92,-0.64 1.07,-0.45 2.8,-1 3.34,-1.3 0.54,-0.3 0.75,-0.45 0.57,-0.86 A 5.17,5.17 0 0 0 22,37.09 Z"
       id="path164"
       style="fill:url(#linear-gradient-4);stroke-width:0.873552" />
    <path
       class="cls-9"
       d="m 26,24.69 a 3.38,3.38 0 0 0 -2.16,0.28 c -2.75,1.38 -5.44,3.45 -5.75,4.16 a 4.73,4.73 0 0 0 -0.51,2.64 c 0.17,1.06 3,3.88 3.37,5.54 0,0 0,0.63 0.55,0.59 a 0.73,0.73 0 0 0 0.78,-0.68 18,18 0 0 0 -1.11,-3.55 13,13 0 0 0 -1.95,-2.57 c 0,0 4.09,-0.19 5.43,-0.43 A 26.48,26.48 0 0 0 28.9,29 Z"
       id="path166" />
    <path
       class="cls-10"
       d="m 17.69,30.24 a 3.83,3.83 0 0 0 -0.1,1.53 c 0.17,1.06 3,3.88 3.37,5.54 0,0 0,0.63 0.55,0.59 a 0.73,0.73 0 0 0 0.78,-0.68 18,18 0 0 0 -1.11,-3.55 13,13 0 0 0 -1.95,-2.57"
       id="path168"
       style="fill:url(#linear-gradient-5);stroke-width:0.873552" />
    <path
       class="cls-11"
       d="m 21.73,36.16 c 0,-0.14 0,-0.29 -0.05,-0.4 -0.05,-0.11 -0.14,-0.07 -0.21,-0.12 -0.07,-0.05 -0.16,-0.38 -0.12,-0.6 0.04,-0.22 0,-0.48 -0.13,-0.59 -0.13,-0.11 -0.2,-0.07 -0.28,-0.14 -0.08,-0.07 0,-0.52 -0.08,-0.77 -0.08,-0.25 -0.8,-0.52 -0.54,-0.87 a 0.36,0.36 0 0 1 0.16,-0.11 l -0.39,-0.49 a 6.53,6.53 0 0 0 -0.56,0.35 4.23,4.23 0 0 0 -1,1 l 0.37,0.5 a 1.77,1.77 0 0 1 0.06,-0.17 0.78,0.78 0 0 1 0.25,-0.29 c 0.22,-0.12 0.71,0 0.72,0.27 a 2.85,2.85 0 0 0 0,0.29 c 0.06,0.29 0.56,0.24 0.7,0.5 0.14,0.26 0,0.38 0,0.56 0,0.18 0.24,0.29 0.4,0.39 0.16,0.1 0.33,0.26 0.3,0.45 a 0.53,0.53 0 0 0 -0.05,0.25 c 0,0.15 0.24,0.16 0.33,0.29 0.09,0.13 0,0.52 0.18,0.6 a 0.11,0.11 0 0 0 0.11,0 0.21,0.21 0 0 0 0.14,-0.19 0.53,0.53 0 0 0 -0.12,-0.35 0.73,0.73 0 0 1 -0.19,-0.36 z"
       id="path170"
       style="fill:url(#linearGradient1218);stroke-width:0.873552" />
    <path
       class="cls-12"
       d="m 19.23,31.1 c 0,0 4.09,-0.19 5.43,-0.43 A 26.48,26.48 0 0 0 28.9,29 L 26,24.69 a 3.38,3.38 0 0 0 -2.16,0.28 c -2.75,1.38 -5.44,3.45 -5.75,4.16 a 8.35,8.35 0 0 0 -0.41,1.11"
       id="path172"
       style="fill:url(#linear-gradient-7);stroke-width:0.873552" />
    <path
       class="cls-13"
       d="m 23.31,26.94 a 0.37,0.37 0 0 1 -0.26,0.16 3.29,3.29 0 0 1 -0.7,0 0.72,0.72 0 0 0 -0.63,0.26 c -0.12,0.2 -0.07,0.47 -0.2,0.67 -0.13,0.2 -0.58,0.23 -0.89,0.3 a 1.53,1.53 0 0 0 -0.9,0.62 4.59,4.59 0 0 0 -0.52,1 L 18,29.3 18.08,29.13 c 0.26,-0.63 2.37,-2.3 4.74,-3.64 a 0.35,0.35 0 0 0 0.08,0.11 0.52,0.52 0 0 1 0.13,0.17 3,3 0 0 1 0.29,0.83 0.5,0.5 0 0 1 -0.01,0.34 z"
       id="path174"
       style="fill:url(#linearGradient1220);stroke-width:0.873552" />
    <path
       class="cls-14"
       d="m 23.31,26.94 a 0.37,0.37 0 0 1 -0.26,0.16 3.29,3.29 0 0 1 -0.7,0 0.72,0.72 0 0 0 -0.63,0.26 c -0.12,0.2 -0.07,0.47 -0.2,0.67 -0.13,0.2 -0.58,0.23 -0.89,0.3 a 1.53,1.53 0 0 0 -0.9,0.62 4.59,4.59 0 0 0 -0.52,1 L 18,29.3 18.08,29.13 c 0.26,-0.63 2.37,-2.3 4.74,-3.64 a 0.35,0.35 0 0 0 0.08,0.11 0.52,0.52 0 0 1 0.13,0.17 3,3 0 0 1 0.29,0.83 0.5,0.5 0 0 1 -0.01,0.34 z"
       id="path176"
       style="fill:url(#linear-gradient-9);stroke-width:0.873552" />
    <path
       class="cls-15"
       d="m 20.7,30.29 c 0,0 0,-0.07 0,-0.1 0,-0.2 0.24,-0.34 0.44,-0.32 a 2.34,2.34 0 0 1 0.58,0.2 0.51,0.51 0 0 0 0.57,-0.11 c 0.14,-0.18 0,-0.47 0.17,-0.66 0.25,-0.36 0.92,0 1.23,-0.27 a 0.64,0.64 0 0 0 0.14,-0.47 1.32,1.32 0 0 1 0.07,-0.49 0.31,0.31 0 0 1 0.42,-0.14 0.61,0.61 0 0 1 0.26,-0.62 c 0.46,-0.28 0.82,0.25 1.15,0.5 l 1.1,0.85 1.42,1.09 -1.19,0.25 c -2.43,0.55 -4.93,0.49 -7.39,0.81 0.19,-0.27 0.57,-0.31 0.89,-0.39 a 0.17,0.17 0 0 0 0.13,-0.08 0.09,0.09 0 0 0 0.01,-0.05 z"
       id="path178"
       style="fill:url(#linear-gradient-10);stroke-width:0.873552" />
    <path
       class="cls-16"
       d="m 20.8,31.56 a 0.48,0.48 0 0 1 0,0.43 4.63,4.63 0 0 0 -2.29,1.23 1,1 0 0 0 -0.3,0.68 2.15,2.15 0 0 1 -0.87,-1 6.49,6.49 0 0 1 -0.46,-2.27 16,16 0 0 1 1.66,-3.82 c 0,0 0.33,2.25 0.51,2.95 0.18,0.7 1.75,1.8 1.75,1.8 z"
       id="path180"
       style="fill:url(#linearGradient1222);stroke-width:0.873552" />
    <path
       class="cls-17"
       d="m 17.82,31.26 a 5.58,5.58 0 0 0 0.54,2.18 1,1 0 0 0 -0.14,0.46 2.16,2.16 0 0 1 -0.87,-1 6.58,6.58 0 0 1 -0.46,-2.28 15.64,15.64 0 0 1 1.66,-3.82 c 0,0 0.33,2.25 0.51,2.95 a 3.54,3.54 0 0 0 1.1,1.25 l 0.07,0.24 c 0,0 -1.35,-0.71 -1.71,-0.93 -0.36,-0.22 -0.68,0.13 -0.7,0.95 z"
       id="path182"
       style="fill:url(#linearGradient1224);stroke-width:0.873552" />
    <path
       class="cls-18"
       d="m 20.8,31.56 a 0.48,0.48 0 0 1 0,0.43 4.63,4.63 0 0 0 -2.29,1.23 1,1 0 0 0 -0.3,0.68 2.15,2.15 0 0 1 -0.87,-1 6.49,6.49 0 0 1 -0.46,-2.27 16,16 0 0 1 1.66,-3.82 c 0,0 0.33,2.25 0.51,2.95 0.18,0.7 1.75,1.8 1.75,1.8 z"
       id="path184" />
    <path
       class="cls-4"
       d="m 30.84,37.48 c 0.19,0.91 -0.77,1.6 -2.06,2.23 -1.29,0.63 -2.62,0.76 -2.57,1 0.05,0.24 1,0.2 1.6,0.1 0.6,-0.1 1.16,-0.36 0.66,0.35 a 15.93,15.93 0 0 1 -1.26,1.58 c -0.34,0.38 -0.34,0.52 0.52,0 0.86,-0.52 1.94,-1.33 2.33,-1.5 0.39,-0.17 0.07,0.86 -0.46,2.43 -0.28,0.82 0.56,0.22 1.19,-0.49 0.63,-0.71 1.34,-2.55 2,-3.41 0.66,-0.86 0.67,-1.75 -0.59,-2.19 -1.26,-0.44 -1.36,-0.1 -1.36,-0.1 z"
       id="path186" />
    <path
       class="cls-19"
       d="m 30.84,37.48 c 0.19,0.91 -0.77,1.6 -2.06,2.23 -1.29,0.63 -2.62,0.76 -2.57,1 0.05,0.24 1,0.2 1.6,0.1 0.6,-0.1 1.19,-0.33 0.64,0.35 -0.55,0.68 -1,1.07 -1.36,1.44 -0.36,0.37 0.14,0.52 0.71,0.23 a 8.91,8.91 0 0 0 1,-0.58 c 0.57,-0.38 1,-0.88 1.25,-1 0.25,-0.12 0.07,0.86 -0.46,2.43 -0.28,0.82 0.56,0.22 1.19,-0.49 0.63,-0.71 1.34,-2.55 2,-3.41 0.66,-0.86 0.67,-1.75 -0.59,-2.19 -1.26,-0.44 -1.35,-0.11 -1.35,-0.11 z"
       id="path188"
       style="fill:url(#linear-gradient-13);stroke-width:0.873552" />
    <path
       class="cls-4"
       d="m 21.7,16.12 c -0.38,0.25 -2,0.93 -3.13,1.38 -1.13,0.45 -1.88,0.73 -1.88,0.73 v 0 a 1.65,1.65 0 0 0 0.08,-0.51 c 0,0 0.38,-4.37 0.45,-6 a 28.71,28.71 0 0 1 0.45,-3.4 C 17.74,7.85 17.05,7.99 17.05,7.99 a 25.11,25.11 0 0 0 -7.49,2.86 14.07,14.07 0 0 0 -4.29,4.51 c -0.11,0.18 0.16,0.34 0.33,0.19 a 18.59,18.59 0 0 1 5.26,-3.35 c 3.71,-1.51 4.93,-1.31 4.93,-1.31 0.38,0.7 -0.31,4.38 -0.75,5.74 a 4,4 0 0 0 0.17,2.66 h 0.14 v 0 a 0.85,0.85 0 0 0 0.68,0.54 27.61,27.61 0 0 0 5.78,-1.33 c 1.17,-0.48 1.57,-1.06 1.37,-1.9 A 1,1 0 0 0 21.7,16.12 Z"
       id="path190" />
    <path
       class="cls-20"
       d="m 16.61,18.17 a 14.16,14.16 0 0 0 2,-0.67 c 1.09,-0.45 2.75,-1.13 3.13,-1.38 a 1,1 0 0 1 1.48,0.53 c 0.2,0.84 -0.2,1.42 -1.37,1.9 a 29.69,29.69 0 0 1 -5.74,1.31 0.86,0.86 0 0 1 -0.72,-0.5 2.7,2.7 0 0 1 1.22,-1.19 z"
       id="path192"
       style="fill:url(#linear-gradient-14);stroke-width:0.873552" />
    <path
       class="cls-21"
       d="m 22.93,16.19 -0.24,0.17 c -0.1,0.07 -0.21,0.09 -0.31,0.15 a 2.5,2.5 0 0 0 -0.23,0.23 c -0.26,0.27 -0.71,0.23 -1,0.41 a 2,2 0 0 1 -0.56,0.32 4.18,4.18 0 0 1 -0.5,0 c -0.4,0 -0.73,0.4 -1.14,0.4 a 5.51,5.51 0 0 0 -0.7,-0.06 3.86,3.86 0 0 0 -0.68,0.11 c 0.3,-0.1 0.66,-0.23 1,-0.4 1.1,-0.45 2.75,-1.13 3.13,-1.38 a 1.08,1.08 0 0 1 1.23,0.05 z"
       id="path194"
       style="fill:url(#linear-gradient-15);stroke-width:0.873552" />
    <path
       class="cls-22"
       d="m 17.53,19.38 a 1.33,1.33 0 0 0 0.21,-0.09 l 0.59,-0.28 a 6.91,6.91 0 0 1 0.72,-0.36 5.87,5.87 0 0 0 0.75,-0.18 c 0.26,-0.12 0.45,-0.36 0.73,-0.42 A 2.41,2.41 0 0 0 20.9,18 c 0.15,-0.07 0.24,-0.24 0.37,-0.33 0.13,-0.09 0.32,-0.11 0.45,-0.21 A 1.65,1.65 0 0 0 22,17 1.4,1.4 0 0 1 22.6,16.62 5,5 0 0 1 23.24,16.37 L 22.36,18 a 32.46,32.46 0 0 1 -4.83,1.38 z"
       id="path196"
       style="fill:url(#linear-gradient-16);stroke-width:0.873552" />
    <path
       class="cls-23"
       d="m 17.05,8 c 0,0 0.69,-0.14 0.62,0.33 a 28.71,28.71 0 0 0 -0.45,3.4 c -0.07,1.61 -0.45,6 -0.45,6 A 1.74,1.74 0 0 1 16.24,19 c -0.57,0.56 -1,0.35 -1,0.35 A 4,4 0 0 1 15,16.65 c 0.44,-1.36 1.13,-5 0.75,-5.74 A 1.8,1.8 0 0 1 15.82,9.45 C 16.24,8.63 16.68,8.07 17.05,8 Z"
       id="path198"
       style="fill:url(#linear-gradient-17);stroke-width:0.873552" />
    <path
       class="cls-24"
       d="m 17,8.66 c 0,0 -0.15,1.24 -0.2,2.41 -0.05,1.17 -0.51,4.14 -0.51,4.14 0,0 0.13,-4.19 -0.5,-4.43 -0.63,-0.24 0.37,-1.6 0.37,-1.6"
       id="path200"
       style="fill:url(#linear-gradient-18);stroke-width:0.873552" />
    <path
       class="cls-25"
       d="m 15.89,19.22 c 0,0 0,0 0,0 A 0.77,0.77 0 0 1 15.24,19.28 3.92,3.92 0 0 1 15,16.65 c 0.42,-1.28 1.07,-4.59 0.81,-5.58 a 4.32,4.32 0 0 1 0.45,2.5 28.13,28.13 0 0 1 -0.43,4.43 c -0.13,1.06 0.06,1.22 0.06,1.22 z"
       id="path202"
       style="fill:url(#linear-gradient-19);stroke-width:0.873552" />
    <path
       class="cls-26"
       d="m 17.05,8 a 25.11,25.11 0 0 0 -7.49,2.86 14.07,14.07 0 0 0 -4.29,4.51 c -0.11,0.18 0.16,0.34 0.33,0.19 a 18.59,18.59 0 0 1 5.26,-3.35 C 14.57,10.7 15.79,10.9 15.79,10.9 A 5.9,5.9 0 0 0 17.05,8 Z"
       id="path204"
       style="fill:url(#linear-gradient-20);stroke-width:0.873552" />
    <path
       class="cls-27"
       d="m 5.32,15.59 a 15.07,15.07 0 0 1 5.43,-4.28 22.33,22.33 0 0 1 6,-2 2.79,2.79 0 0 0 0.14,-0.37 c 0,-0.09 0.05,-0.18 0.07,-0.26 0.02,-0.08 0.05,-0.21 0.07,-0.32 v 0 c 0,-0.1 0,-0.22 0,-0.32 A 25.12,25.12 0 0 0 9.54,10.9 L 9.15,11.15 8.78,11.42 A 13.51,13.51 0 0 0 7.16,12.88 L 6.85,13.24 A 8.5,8.5 0 0 0 6.16,14.08 L 5.9,14.44 5.64,14.81 c -0.09,0.12 -0.16,0.24 -0.23,0.35 v 0 c 0,0.1 -0.11,0.19 -0.16,0.27"
       id="path206"
       style="fill:url(#linear-gradient-21);stroke-width:0.873552" />
    <path
       class="cls-28"
       d="m 32.39,25 a 5.24,5.24 0 0 0 -0.94,-2.86 c -0.56,-1 -1.14,-2 -1.71,-3 A 11.51,11.51 0 0 0 28.24,16.78 6.08,6.08 0 0 0 26.4,15.44 2.66,2.66 0 0 0 25.06,15.26 8.67,8.67 0 0 0 22,16.55 c -0.75,1 0.4,2.36 0.91,3.2 0.65,1.08 1.3,2.17 1.86,3.31 a 11.48,11.48 0 0 0 2,3 4.4,4.4 0 0 0 2.23,1.28 3.48,3.48 0 0 0 2.24,-0.34 1.84,1.84 0 0 0 0.67,-0.53 1.73,1.73 0 0 0 0.28,-0.58 4.08,4.08 0 0 0 0.2,-0.89 z"
       id="path208"
       style="fill:url(#linear-gradient-22);stroke-width:0.873552" />
    <path
       class="cls-29"
       d="m 28,16.32 a 2.86,2.86 0 0 1 -0.49,-0.6 C 27.38,15.5 27.25,15.24 27,15.18 a 0.59,0.59 0 0 0 -0.55,0.21 1.32,1.32 0 0 0 -0.31,1 3.87,3.87 0 0 0 0.27,1.05 2.83,2.83 0 0 0 0.59,1.16 2,2 0 0 0 1.07,0.57 c 0.17,0 0.36,0 0.43,0.2 l -0.36,0.35 a 0.21,0.21 0 0 0 -0.07,0.11 c 0,0.05 0,0.1 0,0.15 a 0.8,0.8 0 0 0 0.82,0.29 0.29,0.29 0 0 1 0.16,0 c 0.15,0 0.13,0.27 0,0.4 -0.13,0.13 -0.22,0.27 -0.18,0.43 0.04,0.16 0.31,0.23 0.52,0.21 0.21,-0.02 0.46,-0.05 0.56,0.13 0.1,0.18 -0.15,0.51 -0.16,0.78 a 0.4,0.4 0 0 0 0.62,0.32 c 0.11,0 0.06,0.19 0.05,0.3 a 0.36,0.36 0 0 0 0.46,0.32 0.56,0.56 0 0 0 0.35,-0.51 1.4,1.4 0 0 0 -0.16,-0.63 c -0.32,-0.69 -0.81,-1.3 -1.12,-2 a 3.9,3.9 0 0 0 -1,-1.82"
       id="path210"
       style="fill:url(#linear-gradient-23);stroke-width:0.873552" />
    <path
       class="cls-30"
       d="m 23.54,17.05 c 0.09,-0.16 0.17,-0.33 0.25,-0.5 0.08,-0.17 0.21,-0.52 0.41,-0.36 0.2,0.16 0.08,0.17 0.16,0.17 a 0.09,0.09 0 0 0 0.07,0 2.72,2.72 0 0 0 0.93,-1.53 3.77,3.77 0 0 0 -0.25,-1.83 4.63,4.63 0 0 1 0,0.86 1.77,1.77 0 0 1 -0.44,0.76 3.23,3.23 0 0 1 -1.33,1.07 1.92,1.92 0 0 1 -0.53,0.06 0.8,0.8 0 0 1 -0.27,0 c -0.08,0 -0.17,-0.09 -0.24,0 a 1,1 0 0 0 0,1.26 c 0.07,0 0.07,-0.13 0.06,-0.21 -0.01,-0.08 0,-0.18 0.12,-0.17 a 0.54,0.54 0 0 1 0.37,0.24 l 0.2,0.27 a 0.88,0.88 0 0 0 0.21,0.22 c 0.12,0.02 0.23,-0.2 0.28,-0.31 z"
       id="path212"
       style="fill:url(#linear-gradient-24);stroke-width:0.873552" />
    <path
       class="cls-31"
       d="m 22.39,15.59 a 4,4 0 0 0 -0.57,2.82 c 0.18,0.67 0.87,1 1.09,1.34 0.65,1.08 1.3,2.17 1.86,3.31 a 11.48,11.48 0 0 0 2,3 4.4,4.4 0 0 0 2.23,1.28 3.48,3.48 0 0 0 2.24,-0.34 1.84,1.84 0 0 0 0.67,-0.53 1.73,1.73 0 0 0 0.28,-0.58 4.08,4.08 0 0 0 0.2,-1 5.24,5.24 0 0 0 -0.94,-2.86 c -0.56,-1 -1.14,-2 -1.71,-3 a 11.51,11.51 0 0 0 -1.5,-2.36"
       id="path214" />
    <path
       class="cls-32"
       d="m 23.49,18 a 7.21,7.21 0 0 0 -1.26,-0.63 c -0.56,-0.1 -0.73,0.76 -0.71,1.14 a 17.85,17.85 0 0 0 0.67,3 26.64,26.64 0 0 0 0.67,3.68 6.41,6.41 0 0 0 2.67,3.28 5.52,5.52 0 0 0 2.06,0.75 c 0.28,0.05 0.53,0 0.8,0.08 a 6,6 0 0 0 1.08,0.25 c 0,0 0.08,0 0.1,0 a 0.1,0.1 0 0 0 0,-0.07 c 0,-0.54 -0.06,-1.06 -0.09,-1.58 a 5.32,5.32 0 0 1 0.22,-1.4 7,7 0 0 0 -0.86,-4.27 c -0.51,-1 -1.13,-2 -1.64,-3 -0.37,-0.73 -0.77,-2.15 -1.61,-2.55 -0.84,-0.4 -1.83,0.87 -2.1,1.32 z"
       id="path216"
       style="stroke-width:0.873552" />
    <path
       class="cls-33"
       d="m 23.49,18 a 7.21,7.21 0 0 0 -1.26,-0.63 c -0.56,-0.1 -0.73,0.76 -0.71,1.14 a 17.85,17.85 0 0 0 0.67,3 26.64,26.64 0 0 0 0.67,3.68 6.41,6.41 0 0 0 2.67,3.28 5.52,5.52 0 0 0 2.06,0.75 c 0.28,0.05 0.53,0 0.8,0.08 a 6,6 0 0 0 1.08,0.25 c 0,0 0.08,0 0.1,0 a 0.1,0.1 0 0 0 0,-0.07 c 0,-0.54 -0.06,-1.06 -0.09,-1.58 a 5.32,5.32 0 0 1 0.22,-1.4 7,7 0 0 0 -0.86,-4.27 c -0.51,-1 -1.13,-2 -1.64,-3 -0.37,-0.73 -0.77,-2.15 -1.61,-2.55 -0.84,-0.4 -1.83,0.87 -2.1,1.32 z"
       id="path218"
       style="fill:url(#linear-gradient-25);stroke-width:0.873552" />
    <path
       class="cls-34"
       d="m 29.28,25 a 4.05,4.05 0 0 1 0.21,1.94 C 29.35,28 28.66,28 28.66,28 c 0,0 -2.17,-0.28 -1.84,-0.55 A 5,5 0 0 0 29.28,25 Z"
       id="path220"
       style="fill:url(#linearGradient1226);stroke-width:0.873552" />
    <path
       class="cls-35"
       d="m 27.84,29.27 v 0 H 27.67 27.61 A 6.89,6.89 0 0 1 24.88,28 7.7,7.7 0 0 1 23.17,25.93 l -0.11,-0.2 A 4.44,4.44 0 0 1 22.6,24.5 c -0.22,-1 -0.4,-2.79 -0.44,-3.06 a 0.5,0.5 0 0 1 0,-0.12 14.6,14.6 0 0 1 -0.62,-2.77 c 0,-0.38 0.15,-1.23 0.7,-1.14 a 6.69,6.69 0 0 1 1.27,0.63 c 0.28,-0.48 1.35,-1.73 2.13,-1.37 a 2.07,2.07 0 0 1 0.82,0.86 1.72,1.72 0 0 0 -1.56,0.39 3.5,3.5 0 0 0 -1.32,2.16 1.39,1.39 0 0 0 -0.89,-0.72 c -0.59,-0.1 -0.14,1.14 0,1.49 a 1.24,1.24 0 0 0 0.56,0.58 4.1,4.1 0 0 0 -0.25,1.3 3.42,3.42 0 0 0 1.55,2.42 c 0,0 -0.45,0.25 -0.22,1 0.23,0.75 1.88,0.57 1.88,0.57 l 0.07,0.34 c 0,0 -0.67,0 -0.49,0.46 0.18,0.46 1.78,0.46 2.59,0.28 0.81,-0.18 -0.38,1.25 -0.54,1.47 z"
       id="path222"
       style="fill:url(#linearGradient1228);stroke-width:0.873552" />
    <path
       class="cls-36"
       d="m 27.84,29.27 h -0.25 a 5.52,5.52 0 0 1 -2.06,-0.75 6.32,6.32 0 0 1 -2.36,-2.58 l -0.11,-0.2 c -0.07,-0.17 -0.14,-0.33 -0.2,-0.5 a 26.77,26.77 0 0 1 -0.67,-3.69 v -0.1 a 0.5,0.5 0 0 1 0,-0.12 14.6,14.6 0 0 1 -0.62,-2.77 c 0,-0.38 0.15,-1.23 0.7,-1.14 a 6.69,6.69 0 0 1 1.27,0.63 c 0.28,-0.48 1.35,-1.73 2.13,-1.37 a 2.07,2.07 0 0 1 0.82,0.86 1.72,1.72 0 0 0 -1.56,0.39 3.5,3.5 0 0 0 -1.32,2.16 1.39,1.39 0 0 0 -0.89,-0.72 c -0.59,-0.1 -0.14,1.14 0,1.49 a 1.24,1.24 0 0 0 0.56,0.58 4.1,4.1 0 0 0 -0.28,1.29 3.42,3.42 0 0 0 1.55,2.42 c 0,0 -0.45,0.25 -0.22,1 0.23,0.75 1.88,0.57 1.88,0.57 l 0.07,0.34 c 0,0 -0.67,0 -0.49,0.46 0.18,0.46 1.78,0.46 2.59,0.28 0.81,-0.18 -0.38,1.25 -0.54,1.47 z"
       id="path224"
       style="fill:url(#linear-gradient-28);stroke-width:0.873552" />
    <path
       class="cls-37"
       d="m 27.86,28.58 a 2,2 0 0 1 -1.5,-0.4 4.19,4.19 0 0 0 2.71,-1.68 c 1.72,-2 -0.28,1.9 -0.28,1.9"
       id="path226"
       style="stroke-width:0.873552" />
    <path
       class="cls-18"
       d="m 23.49,18 a 7.21,7.21 0 0 0 -1.26,-0.63 c -0.56,-0.1 -0.73,0.76 -0.71,1.14 a 17.85,17.85 0 0 0 0.67,3 26.64,26.64 0 0 0 0.67,3.68 6.41,6.41 0 0 0 2.67,3.28 5.52,5.52 0 0 0 2.06,0.75 c 0.28,0.05 0.53,0 0.8,0.08 a 6,6 0 0 0 1.08,0.25 c 0,0 0.08,0 0.1,0 a 0.1,0.1 0 0 0 0,-0.07 c 0,-0.54 -0.06,-1.06 -0.09,-1.58 a 5.32,5.32 0 0 1 0.22,-1.4 7,7 0 0 0 -0.86,-4.27 c -0.51,-1 -1.13,-2 -1.64,-3 -0.37,-0.73 -0.77,-2.15 -1.61,-2.55 -0.84,-0.4 -1.83,0.87 -2.1,1.32 z"
       id="path228" />
    <path
       class="cls-4"
       d="m 32.08,23.75 c -0.2,-0.12 -1.11,0.7 -1.72,1.45 -0.61,0.75 -3.08,4.8 -3.07,6.3 0.01,1.5 2.2,1 2.8,0.54 2.3,-1.63 3.69,-2.75 3.5,-5.18 -0.13,-1.74 -1.03,-2.99 -1.51,-3.11 z"
       id="path230" />
    <path
       class="cls-38"
       d="m 32.08,23.75 c -0.2,-0.12 -1.11,0.7 -1.72,1.45 -0.61,0.75 -3.08,4.8 -3.07,6.3 0.01,1.5 2.2,1 2.8,0.54 2.3,-1.63 3.69,-2.75 3.5,-5.18 -0.13,-1.74 -1.03,-2.99 -1.51,-3.11 z"
       id="path232"
       style="fill:url(#linear-gradient-29);stroke-width:0.873552" />
    <path
       class="cls-39"
       d="m 31.05,30.62 0.32,-0.21 a 3.28,3.28 0 0 0 1.49,-1.52 4.3,4.3 0 0 0 0,-3.41 c 0,-0.1 -0.6,-1.26 -0.72,-1 -0.12,0.26 0,0.4 0.15,0.58 0.15,0.18 0.21,0.42 0.07,0.58 -0.14,0.16 -0.15,0.11 -0.17,0.19 A 0.22,0.22 0 0 0 32.25,26 c 0.14,0.24 0.33,0.5 0.23,0.76 -0.1,0.26 -0.64,0.45 -0.64,0.8 0,0.35 0.21,0.37 0.23,0.58 0.02,0.21 -0.21,0.43 -0.43,0.54 -0.22,0.11 -0.48,0.23 -0.55,0.46 -0.07,0.23 0,0.2 -0.05,0.29 -0.09,0.36 -0.52,0.47 -0.87,0.57 a 2.54,2.54 0 0 0 -0.94,0.48 1.34,1.34 0 0 0 -0.46,0.92 0.38,0.38 0 0 0 0.06,0.24 c 0.11,0.14 0.33,0.11 0.5,0 a 8.06,8.06 0 0 0 1.72,-1.02 z"
       id="path234"
       style="fill:url(#linearGradient1230);stroke-width:0.873552" />
    <path
       class="cls-40"
       d="m 32,23.75 -0.24,0.33 A 0.5,0.5 0 0 1 32,23.75 Z"
       id="path236"
       style="fill:url(#linear-gradient-31);stroke-width:0.873552" />
    <path
       class="cls-41"
       d="m 31.73,24.19 a 2.71,2.71 0 0 1 0.13,0.3 c 0,0.26 -0.31,0.38 -0.5,0.56 a 0.6,0.6 0 0 0 -0.08,0.75 c 0.07,0.1 0.18,0.18 0.19,0.3 0.01,0.12 -0.13,0.35 -0.31,0.43 -0.18,0.08 -0.36,0.17 -0.43,0.34 -0.07,0.17 0.07,0.51 0,0.75 -0.07,0.24 -0.47,0.37 -0.76,0.49 a 2.69,2.69 0 0 0 -1.24,1.78 l -0.37,1.05 A 1,1 0 0 0 28.3,30.78 0.17,0.17 0 0 1 28.06,30.73 0.56,0.56 0 0 1 27.99,30.47 5.21,5.21 0 0 1 28.13,29 26.23,26.23 0 0 1 30.37,25.2 5.14,5.14 0 0 1 32,23.75 a 0.5,0.5 0 0 0 -0.24,0.33 0.2,0.2 0 0 0 -0.03,0.11 z"
       id="path238"
       style="fill:url(#linear-gradient-32);stroke-width:0.873552" />
    <path
       class="cls-42"
       d="m 32,23.75 -0.24,0.33 A 0.5,0.5 0 0 1 32,23.75 Z"
       id="path240"
       style="fill:url(#linear-gradient-33);stroke-width:0.873552" />
    <path
       class="cls-4"
       d="m 30.14,32.74 a 2.39,2.39 0 0 1 1.63,1.43 14.36,14.36 0 0 1 1,3.39 c 0,0 0.18,0.81 -0.92,0.83 -0.76,0 -0.82,-0.71 -1.21,-1.45 A 6.94,6.94 0 0 0 28.5,34.6 c -0.69,-0.35 0,-2.02 1.64,-1.86 z"
       id="path242" />
    <path
       class="cls-43"
       d="m 30.14,32.74 a 2.39,2.39 0 0 1 1.63,1.43 14.36,14.36 0 0 1 1,3.39 c 0,0 0.18,0.81 -0.92,0.83 -0.76,0 -0.82,-0.71 -1.21,-1.45 A 6.94,6.94 0 0 0 28.5,34.6 c -0.69,-0.35 0,-2.02 1.64,-1.86 z"
       id="path244"
       style="fill:url(#linear-gradient-34);stroke-width:0.873552" />
    <path
       class="cls-39"
       d="m 31.05,30.62 0.32,-0.21 a 3.28,3.28 0 0 0 1.49,-1.52 4.3,4.3 0 0 0 0,-3.41 c 0,-0.1 -0.6,-1.26 -0.72,-1 -0.12,0.26 0,0.4 0.15,0.58 0.15,0.18 0.21,0.42 0.07,0.58 -0.14,0.16 -0.15,0.11 -0.17,0.19 A 0.22,0.22 0 0 0 32.25,26 c 0.14,0.24 0.33,0.5 0.23,0.76 -0.1,0.26 -0.64,0.45 -0.64,0.8 0,0.35 0.21,0.37 0.23,0.58 0.02,0.21 -0.21,0.43 -0.43,0.54 -0.22,0.11 -0.48,0.23 -0.55,0.46 -0.07,0.23 0,0.2 -0.05,0.29 -0.09,0.36 -0.52,0.47 -0.87,0.57 a 2.54,2.54 0 0 0 -0.94,0.48 1.34,1.34 0 0 0 -0.46,0.92 0.38,0.38 0 0 0 0.06,0.24 c 0.11,0.14 0.33,0.11 0.5,0 a 8.06,8.06 0 0 0 1.72,-1.02 z"
       id="path246"
       style="fill:url(#linear-gradient-30);stroke-width:0.873552" />
    <path
       class="cls-44"
       d="m 32.31,37.08 a 0.59,0.59 0 0 1 -0.16,-0.06 c -0.09,-0.09 -0.07,-0.24 0,-0.37 0.07,-0.13 0,-0.31 -0.11,-0.34 -0.11,-0.03 -0.1,0 -0.15,0 a 0.2,0.2 0 0 1 -0.13,-0.16 1.09,1.09 0 0 1 0.11,-0.49 c 0.05,-0.16 0,-0.38 -0.11,-0.45 -0.11,-0.07 -0.15,0 -0.22,0 -0.07,0 -0.18,-0.28 -0.16,-0.46 0.02,-0.18 0.05,-0.38 -0.06,-0.5 -0.11,-0.12 -0.2,-0.11 -0.29,-0.18 a 0.48,0.48 0 0 1 -0.07,-0.55 0.52,0.52 0 0 1 0.21,-0.18 2.05,2.05 0 0 0 -1,-0.54 H 30 a 4.16,4.16 0 0 0 -0.72,0.85 9.06,9.06 0 0 0 -0.53,1.18 5.69,5.69 0 0 1 0.71,0.64 c 0.08,-0.3 0.31,-1 0.56,-1 a 0.38,0.38 0 0 1 0.41,0.33 1.55,1.55 0 0 0 0,0.37 c 0.12,0.28 0.62,0.16 0.71,0.45 0.09,0.29 -0.13,0.41 -0.06,0.6 0.07,0.19 0.57,0.19 0.63,0.47 0.06,0.28 -0.14,0.37 0,0.51 0.14,0.14 0.26,0 0.34,0.14 0.08,0.14 -0.11,0.42 0,0.58 a 0.21,0.21 0 0 0 0.26,0 0.43,0.43 0 0 0 0.22,-0.37 v 0 a 0.44,0.44 0 0 0 -0.22,-0.47 z"
       id="path248"
       style="fill:url(#linear-gradient-36);stroke-width:0.873552" />
    <path
       class="cls-45"
       d="m 22.65,15.31 v 0 a 12.16,12.16 0 0 1 -2.4,-0.46 c -0.19,-0.06 -0.44,-0.18 -0.38,-0.38 0.06,-0.2 0.39,-0.19 0.41,-0.18 l 0.1,-0.12 a 1.44,1.44 0 0 1 0.44,0.08 2.77,2.77 0 0 0 1.58,0.34 0.5,0.5 0 0 0 -0.25,0.13 0.23,0.23 0 0 0 -0.08,0.26 0.38,0.38 0 0 0 0.21,0.16 z"
       id="path250"
       style="fill:url(#linear-gradient-37);stroke-width:0.873552" />
    <g
       class="cls-46"
       clip-path="url(#clip-path)"
       id="g254"
       style="stroke-width:0.873552">
      <path
         class="cls-47"
         d="m 21.24,9.77 c -0.07,0.47 -0.11,0.8 -0.11,0.8 a 0.38,0.38 0 0 0 -0.18,-0.21 0.54,0.54 0 0 1 -0.31,-0.3 0.24,0.24 0 0 1 0.06,-0.21 l 0.6,-1.14 a 0.84,0.84 0 0 1 0.1,0.12 1.66,1.66 0 0 0 0.17,-0.18 6,6 0 0 0 -0.33,1.12 z"
         id="path252"
         style="stroke-width:0.873552" />
    </g>
    <path
       d="m 24.18,12.37 a 2,2 0 0 0 0,-0.89 0.49,0.49 0 0 0 -0.42,-0.36 9.34,9.34 0 0 1 -2.08,0.09 L 21.05,11.1 c 0.07,0.23 0.21,0.43 0.26,0.66 a 2.78,2.78 0 0 1 -0.24,1.84 1.58,1.58 0 0 1 -0.6,0.68 h -0.08 c 0,0 0.68,0.2 1.17,0.3 a 4.08,4.08 0 0 0 1.57,0 2.1,2.1 0 0 0 0.71,-0.62 7,7 0 0 0 0.54,-0.88 1.7,1.7 0 0 0 0.2,-1.55 1.34,1.34 0 0 1 -0.4,0.84 z"
       id="path256"
       style="stroke-width:0.873552" />
    <path
       class="cls-48"
       d="m 23.67,13.25 a 0.75,0.75 0 0 1 0.16,0.15 0.17,0.17 0 0 1 0.05,0.13 c 0,0.07 -0.11,0.09 -0.19,0.1 a 0.73,0.73 0 0 0 -0.38,0.24 c -0.12,0.15 -0.17,0.34 -0.3,0.48 a 1.08,1.08 0 0 1 -0.77,0.24 1.22,1.22 0 0 1 -0.33,0 1.19,1.19 0 0 1 -0.44,-0.17 c -0.12,-0.06 -0.23,-0.08 -0.31,-0.2 -0.08,-0.12 0.08,-0.35 0.15,-0.45 a 1.73,1.73 0 0 1 0.31,-0.35 0.73,0.73 0 0 1 0.43,-0.16 2.51,2.51 0 0 1 0.52,0.14 0.77,0.77 0 0 0 0.37,0 c 0.16,0 0.31,-0.13 0.47,-0.17 a 0.38,0.38 0 0 1 0.26,0.02 z"
       id="path258"
       style="fill:url(#linear-gradient-38);stroke-width:0.873552" />
    <path
       class="cls-49"
       d="m 23,13.68 a 1.41,1.41 0 0 1 0.17,1 3.6,3.6 0 0 1 -1.57,0 c -0.49,-0.09 -1.17,-0.29 -1.17,-0.29 a 1,1 0 0 1 0.13,-0.87 3.89,3.89 0 0 0 0.31,0.59 0.69,0.69 0 0 0 0.71,0 1.15,1.15 0 0 0 0.77,0.26 0.75,0.75 0 0 0 0.65,-0.69 z"
       id="path260"
       style="fill:url(#linear-gradient-39);stroke-width:0.873552" />
    <path
       class="cls-47"
       d="m 20.43,14.32 a 1,1 0 0 0 -0.42,0 0.72,0.72 0 0 1 0.66,-0.22"
       id="path262"
       style="stroke-width:0.873552" />
    <path
       class="cls-37"
       d="m 23,13.68 a 1.41,1.41 0 0 1 0.17,1 3.6,3.6 0 0 1 -1.57,0 c -0.49,-0.09 -1.17,-0.29 -1.17,-0.29 a 1,1 0 0 1 0.13,-0.87 3.89,3.89 0 0 0 0.31,0.59 0.69,0.69 0 0 0 0.71,0 1.15,1.15 0 0 0 0.77,0.26 0.75,0.75 0 0 0 0.65,-0.69 z"
       id="path264"
       style="stroke-width:0.873552" />
    <path
       class="cls-50"
       d="m 21.29,9.06 a 0.18,0.18 0 0 0 -0.1,0 0.44,0.44 0 0 0 -0.46,0.23 0.75,0.75 0 0 0 0,0.85 0.8,0.8 0 0 0 0.35,0.23 0.5,0.5 0 0 1 0,-0.11 2.38,2.38 0 0 1 0.21,-1.2 z"
       id="path266"
       style="stroke-width:0.873552" />
    <path
       class="cls-51"
       d="m 20.75,9.25 a 0.68,0.68 0 0 0 0,0.77 0.63,0.63 0 0 0 0.32,0.21 0.58,0.58 0 0 0 0,-0.1 2.43,2.43 0 0 1 0.17,-1.06 h -0.1 a 0.41,0.41 0 0 0 -0.39,0.18 z"
       id="path268"
       style="stroke-width:0.873552" />
    <path
       class="cls-52"
       d="m 20.76,9.25 a 0.64,0.64 0 0 0 0,0.7 0.53,0.53 0 0 0 0.3,0.18 0.55,0.55 0 0 1 0,-0.09 2.39,2.39 0 0 1 0.14,-0.95 h -0.08 a 0.39,0.39 0 0 0 -0.36,0.16 z"
       id="path270"
       style="stroke-width:0.873552" />
    <path
       class="cls-53"
       d="m 20.78,9.25 a 0.59,0.59 0 0 0 0,0.63 0.48,0.48 0 0 0 0.27,0.15 V 10 A 2.22,2.22 0 0 1 21.17,9.15 H 21.1 a 0.36,0.36 0 0 0 -0.32,0.1 z"
       id="path272"
       style="stroke-width:0.873552" />
    <path
       class="cls-54"
       d="m 20.79,9.25 a 0.53,0.53 0 0 0 0,0.56 0.31,0.31 0 0 0 0.25,0.11 0.15,0.15 0 0 1 0,-0.06 2.75,2.75 0 0 1 0.11,-0.74 0.15,0.15 0 0 0 -0.07,0 0.32,0.32 0 0 0 -0.29,0.13 z"
       id="path274"
       style="stroke-width:0.873552" />
    <path
       class="cls-55"
       d="m 20.81,9.25 a 0.51,0.51 0 0 0 0,0.49 0.27,0.27 0 0 0 0.23,0.08 V 9.77 a 2.77,2.77 0 0 1 0.09,-0.64 h -0.06 a 0.27,0.27 0 0 0 -0.26,0.12 z"
       id="path276"
       style="stroke-width:0.873552" />
    <path
       class="cls-56"
       d="m 20.83,9.25 a 0.41,0.41 0 0 0 0,0.41 0.19,0.19 0 0 0 0.2,0.06 v 0 c 0,-0.2 0.08,-0.43 0.08,-0.53 h -0.05 a 0.22,0.22 0 0 0 -0.23,0.06 z"
       id="path278"
       style="stroke-width:0.873552" />
    <path
       class="cls-57"
       d="m 20.84,9.25 a 0.4,0.4 0 0 0 0,0.34 0.13,0.13 0 0 0 0.18,0 v 0 c 0,-0.15 0.07,-0.34 0,-0.43 v 0 a 0.21,0.21 0 0 0 -0.18,0.09 z"
       id="path280"
       style="stroke-width:0.873552" />
    <path
       class="cls-58"
       d="m 20.86,9.25 a 0.33,0.33 0 0 0 0,0.27 0.08,0.08 0 0 0 0.15,0 v 0 c 0,-0.1 0.06,-0.25 0,-0.32 v 0 a 0.15,0.15 0 0 0 -0.15,0.05 z"
       id="path282"
       style="stroke-width:0.873552" />
    <path
       class="cls-59"
       d="m 21,9.19 c 0,0 -0.11,0 -0.13,0.05 a 0.26,0.26 0 0 0 0,0.21 c 0,0.07 0.11,0 0.13,0 0.02,0 0,-0.2 0,-0.26 z"
       id="path284"
       style="stroke-width:0.873552" />
    <path
       class="cls-47"
       d="m 23,9.33 a 1.2,1.2 0 0 1 0.27,-0.45 0.83,0.83 0 0 1 0.78,0 1.63,1.63 0 0 0 0.91,0.08 1.68,1.68 0 0 1 -0.68,0.94 C 23.76,10.08 23,9.33 23,9.33 Z"
       id="path286"
       style="stroke-width:0.873552" />
    <path
       class="cls-47"
       d="m 20.36,10.63 a 0.88,0.88 0 0 1 -0.34,-0.44 0.64,0.64 0 0 0 0.12,0.59"
       id="path288"
       style="stroke-width:0.873552" />
    <path
       class="cls-60"
       d="m 23.64,12.65 a 2.2,2.2 0 0 1 -1.08,0.76 1.09,1.09 0 0 0 0.3,-0.67 c 0,-0.34 -0.24,-0.78 -0.58,-0.8 -0.34,-0.02 -0.55,0.33 -0.55,0.33 0,0 -0.18,-0.42 -0.4,-0.46 -0.22,-0.04 -0.39,0.29 -0.39,0.29 0,0 -0.19,-0.39 -0.32,-0.44 -0.13,-0.05 -0.29,-0.17 -0.56,0.17 a 1.59,1.59 0 0 0 -0.27,1.07 1.31,1.31 0 0 1 -0.31,-1.42 c 0.37,-0.73 0.84,-0.7 0.84,-0.7 a 3.25,3.25 0 0 0 1.12,0.49 7.42,7.42 0 0 0 2,0 c 0,0 0.56,0.79 0.2,1.38 z"
       id="path290"
       style="fill:url(#linear-gradient-40);stroke-width:0.873552" />
    <path
       class="cls-18"
       d="m 23.64,12.65 a 2.2,2.2 0 0 1 -1.08,0.76 1.09,1.09 0 0 0 0.3,-0.67 c 0,-0.34 -0.24,-0.78 -0.58,-0.8 -0.34,-0.02 -0.55,0.33 -0.55,0.33 0,0 -0.18,-0.42 -0.4,-0.46 -0.22,-0.04 -0.39,0.29 -0.39,0.29 0,0 -0.19,-0.39 -0.32,-0.44 -0.13,-0.05 -0.29,-0.17 -0.56,0.17 a 1.59,1.59 0 0 0 -0.27,1.07 1.31,1.31 0 0 1 -0.31,-1.42 c 0.37,-0.73 0.84,-0.7 0.84,-0.7 a 3.25,3.25 0 0 0 1.12,0.49 7.42,7.42 0 0 0 2,0 c 0,0 0.56,0.79 0.2,1.38 z"
       id="path292" />
    <path
       class="cls-61"
       d="m 28.06,27.42 a 29.67,29.67 0 0 0 1.18,3.39 4.33,4.33 0 0 0 1.13,1.36 0.46,0.46 0 0 1 0.11,0.57 c 0,0 -0.85,0.64 -1,0.83 a 9,9 0 0 0 -1.08,2 26.81,26.81 0 0 1 -1.8,-2.11 2.09,2.09 0 0 1 -0.25,-1.94 13.41,13.41 0 0 1 1.71,-4.1 z"
       id="path294"
       style="fill:url(#linear-gradient-41);stroke-width:0.873552" />
    <path
       class="cls-62"
       d="m 27.68,32.41 a 9.92,9.92 0 0 0 0.83,2.75 q -0.09,0.21 -0.15,0.39 c 0,0 -1.59,-1.73 -1.81,-2.11 a 2.1,2.1 0 0 1 -0.24,-1.93 13.15,13.15 0 0 1 1.75,-4.09 29.67,29.67 0 0 0 1.18,3.39 4.33,4.33 0 0 0 1.13,1.36 0.44,0.44 0 0 1 0.15,0.29 11.36,11.36 0 0 0 -2,-0.87 c -0.61,-0.12 -0.88,0.15 -0.84,0.82 z"
       id="path296"
       style="fill:url(#linear-gradient-42);stroke-width:0.873552" />
    <path
       class="cls-18"
       d="m 28.06,27.42 a 29.67,29.67 0 0 0 1.18,3.39 4.33,4.33 0 0 0 1.13,1.36 0.46,0.46 0 0 1 0.11,0.57 c 0,0 -0.85,0.64 -1,0.83 a 9,9 0 0 0 -1.08,2 26.81,26.81 0 0 1 -1.8,-2.11 2.09,2.09 0 0 1 -0.25,-1.94 13.41,13.41 0 0 1 1.71,-4.1 z"
       id="path298" />
    <path
       class="cls-63"
       d="m 25.69,10.56 c 0.17,0 0.39,0.44 0.46,0.56 a 4.31,4.31 0 0 1 0.4,0.84 18,18 0 0 1 0.55,2.89 l -0.36,0.48 c -0.06,0.09 -0.59,0.71 -0.51,0.82 a 1,1 0 0 1 -0.08,-1 c 0,-0.08 0.1,-0.16 0.08,-0.24 -0.02,-0.08 -0.13,-0.16 -0.2,-0.24 a 0.43,0.43 0 0 1 0,-0.4 3.24,3.24 0 0 1 0.2,-0.36 0.56,0.56 0 0 0 0.07,-0.4 C 26.23,13.3 25.97,13.2 25.89,13 a 0.61,0.61 0 0 1 0,-0.44 3.52,3.52 0 0 0 0.15,-0.42 C 26.04,12.14 26,12 26,12 c 0,0 -0.13,-0.12 -0.22,-0.15 -0.09,-0.03 -0.2,-0.07 -0.2,-0.16 a 0.11,0.11 0 0 1 0,-0.08 c 0.06,-0.13 0.19,-0.21 0.22,-0.34 0.03,-0.13 -0.17,-0.39 -0.2,-0.6 0.03,-0.04 0.04,-0.1 0.09,-0.11 z"
       id="path300"
       style="fill:url(#linear-gradient-43);stroke-width:0.873552" />
    <path
       class="cls-64"
       d="m 32.58,16.81 c -0.83,-0.17 -2.51,-1.4 -3.85,-2 a 2.08,2.08 0 0 0 -1.84,0.12 1.11,1.11 0 0 0 -0.31,1.74 3.43,3.43 0 0 0 0.65,0.53 13.62,13.62 0 0 0 4.28,1.8 20.74,20.74 0 0 0 3.44,0.39 c 0.84,0 0.76,-0.87 0.43,-1.31 a 4.65,4.65 0 0 0 -2.8,-1.27 z"
       id="path302"
       style="fill:url(#linear-gradient-44);stroke-width:0.873552" />
    <path
       class="cls-65"
       d="m 32.21,17.19 v 0 A 0.49,0.49 0 0 1 31.8,17.26 2,2 0 0 1 31.4,17.08 2.24,2.24 0 0 0 30.51,16.87 1.34,1.34 0 0 1 29.91,16.8 C 29.69,16.69 29.56,16.43 29.34,16.32 A 1.15,1.15 0 0 0 28.7,16.27 0.8,0.8 0 0 1 28.09,16.12 c -0.08,-0.06 -0.12,-0.16 -0.19,-0.23 -0.23,-0.22 -0.68,-0.14 -0.95,-0.05 -0.05,0 -0.63,0.26 -0.6,0.33 a 0.32,0.32 0 0 1 0,-0.14 1.23,1.23 0 0 1 0,-0.2 0.3,0.3 0 0 1 0,-0.16 v -0.11 -0.08 a 1,1 0 0 1 0.49,-0.51 2.1,2.1 0 0 1 0.48,-0.2 v 0 a 1.93,1.93 0 0 1 1,0 2.3,2.3 0 0 1 0.34,0.12 1.58,1.58 0 0 1 0.44,0.2 l 0.48,0.26 0.94,0.53 c 0.3,0.18 0.6,0.36 0.91,0.52 0.13,0.07 0.28,0.13 0.41,0.21 a 1.31,1.31 0 0 1 0.31,0.42 v 0.09 a 0.24,0.24 0 0 1 0.06,0.07 z"
       id="path304"
       style="fill:url(#linear-gradient-45);stroke-width:0.873552" />
    <path
       class="cls-31"
       d="m 32.58,16.81 c -0.83,-0.17 -2.51,-1.4 -3.85,-2 a 2.08,2.08 0 0 0 -1.84,0.12 1.11,1.11 0 0 0 -0.31,1.74 3.43,3.43 0 0 0 0.65,0.53 13.62,13.62 0 0 0 4.28,1.8 20.74,20.74 0 0 0 3.44,0.39 c 0.84,0 0.76,-0.87 0.43,-1.31 a 4.65,4.65 0 0 0 -2.8,-1.27 z"
       id="path306" />
    <path
       class="cls-66"
       d="M 32.69,10.29 A 23.22,23.22 0 0 0 34.92,16 c 0.94,1.73 0.93,2.81 0.66,3 a 2.24,2.24 0 0 1 -2.41,-0.82 3.2,3.2 0 0 1 -0.88,-1.86 c 0,0 -0.41,-1.93 -0.82,-3.32 A 40.08,40.08 0 0 1 30.27,9 C 30.1,7.85 30.14,7.2 30.6,7.05 a 0.91,0.91 0 0 1 0.55,0.1"
       id="path308"
       style="fill:url(#linear-gradient-46);stroke-width:0.873552" />
    <path
       class="cls-67"
       d="m 32.57,17.25 a 2.45,2.45 0 0 1 -0.28,-1 c 0,0 -0.41,-1.94 -0.82,-3.33 a 40.08,40.08 0 0 1 -1.2,-4 C 30.1,7.77 30.14,7.12 30.6,6.97 a 1.12,1.12 0 0 1 0.55,0 L 31.28,7.3 31.04,8 a 9.41,9.41 0 0 0 0.7,3.54 c 0.65,1.9 1.16,4.88 0.83,5.71 z"
       id="path310"
       style="fill:url(#linear-gradient-47);stroke-width:0.873552" />
    <path
       class="cls-68"
       d="m 32.57,17.25 a 2.45,2.45 0 0 1 -0.28,-1 c 0,0 -0.41,-1.94 -0.82,-3.33 a 40.08,40.08 0 0 1 -1.2,-4 C 30.1,7.77 30.14,7.12 30.6,6.97 a 1.12,1.12 0 0 1 0.55,0 L 31.28,7.3 31.04,8 a 9.41,9.41 0 0 0 0.7,3.54 c 0.65,1.9 1.16,4.88 0.83,5.71 z"
       id="path312"
       style="fill:url(#linear-gradient-48);stroke-width:0.873552" />
    <path
       class="cls-69"
       d="m 32.73,10.52 c 0,0 -0.47,0.1 -0.22,0.72 A 33.22,33.22 0 0 0 34.4,16 14.77,14.77 0 0 1 32.48,13.42 C 31.73,12.07 30.27,7.62 30.95,7.54"
       id="path314"
       style="fill:url(#linear-gradient-49);stroke-width:0.873552" />
    <path
       class="cls-70"
       d="M 32.56,10.48 A 2.54,2.54 0 0 1 31,8.82 C 30.58,7.49 31,7.08 31.15,7 c 0,0 2.9,0.26 6.66,3.26 a 24.66,24.66 0 0 1 5.11,5.76 c 0.14,0.22 -0.18,0.5 -0.37,0.32 a 25,25 0 0 0 -4.62,-3.51 20.85,20.85 0 0 0 -5.37,-2.35 z"
       id="path316"
       style="fill:url(#linear-gradient-50);stroke-width:0.873552" />
    <path
       class="cls-71"
       d="M 42.85,16.36 A 0.24,0.24 0 0 0 42.92,16.04 24.69,24.69 0 0 0 37.8,10.29 C 34,7.29 31.15,7 31.15,7 30.97,7 30.61,7.42 30.96,8.62 a 14.81,14.81 0 0 1 5.75,2.28 26.74,26.74 0 0 1 6.14,5.43"
       id="path318"
       style="fill:url(#linear-gradient-51);stroke-width:0.873552" />
    <path
       class="cls-72"
       d="m 17,17.31 a 2.73,2.73 0 0 1 -0.68,1.74 1.13,1.13 0 0 1 -1.3,0.34"
       id="path320" />
    <path
       class="cls-31"
       d="m 35.86,18.84 a 2.46,2.46 0 0 1 -2.68,-0.61 3.36,3.36 0 0 1 -1.1,-1.86"
       id="path322" />
    <path
       class="cls-37"
       d="m 23.6,19.07 a 2.93,2.93 0 0 0 -0.18,1.29 c 0.07,0.75 0.26,1.06 0.47,1.15 0.21,0.09 0.51,0 0.27,-0.38 A 2.69,2.69 0 0 1 23.6,19.07 Z"
       id="path324"
       style="stroke-width:0.873552" />
    <path
       class="cls-37"
       d="m 26.7,20.6 a 2.89,2.89 0 0 1 -1.64,0.61 c -0.34,0 -0.07,0.61 0.64,0.44 0.71,-0.17 1,-1.05 1,-1.05 z"
       id="path326"
       style="stroke-width:0.873552" />
    <path
       class="cls-37"
       d="m 23.42,21.51 a 0.91,0.91 0 0 1 -0.73,-0.23 c -0.15,-0.09 -0.22,0.51 0.07,0.57 a 0.68,0.68 0 0 0 0.66,-0.34 z"
       id="path328"
       style="stroke-width:0.873552" />
    <path
       class="cls-37"
       d="m 23.55,25 a 4.77,4.77 0 0 0 2.71,-0.06 6.61,6.61 0 0 0 2.29,-1.45 4,4 0 0 1 -2.38,2 C 24.42,26.04 23.9,25.75 23.7,25.62 23.5,25.49 23.34,24.87 23.55,25 Z"
       id="path330"
       style="stroke-width:0.873552" />
    <path
       class="cls-73"
       d="m 23.55,25 a 4.77,4.77 0 0 0 2.71,-0.06 6.61,6.61 0 0 0 2.29,-1.45 4,4 0 0 1 -2.38,2 C 24.42,26.04 23.9,25.75 23.7,25.62 23.5,25.49 23.34,24.87 23.55,25 Z"
       id="path332"
       style="fill:url(#linearGradient1232);stroke-width:0.873552" />
    <path
       class="cls-37"
       d="m 29.07,24.65 a 5.2,5.2 0 0 1 -3.07,2 c -1.34,0.1 -0.9,0.32 -0.61,0.46 0.29,0.14 2.5,0.28 3.68,-2.46 z"
       id="path334"
       style="stroke-width:0.873552" />
    <path
       class="cls-74"
       d="m 29.07,24.65 a 5.2,5.2 0 0 1 -3.07,2 c -1.34,0.1 -0.9,0.32 -0.61,0.46 0.29,0.14 2.5,0.28 3.68,-2.46 z"
       id="path336"
       style="fill:url(#linear-gradient-53);stroke-width:0.873552" />
    <path
       class="cls-47"
       d="m 24.34,10.36 0.09,-0.1 a 1.16,1.16 0 0 0 0.2,-0.24 0.16,0.16 0 0 0 -0.1,0 0.15,0.15 0 0 1 -0.13,-0.16 c 0,-0.07 0,-0.15 0,-0.22 L 24.05,9.77 A 1.37,1.37 0 0 1 23.7,9.85 l -0.46,0.08 a 1.82,1.82 0 0 0 0.18,-0.51 c 0,-0.18 -0.45,-0.19 -0.38,-0.33 a 1.76,1.76 0 0 1 0.45,-0.54 1.5,1.5 0 0 0 -0.77,0.67 8.37,8.37 0 0 0 -0.58,1.53 0.52,0.52 0 0 1 0.51,-0.17 2.12,2.12 0 0 0 1,0.14 1.21,1.21 0 0 0 0.69,-0.36 z"
       id="path338"
       style="stroke-width:0.873552" />
    <path
       class="cls-50"
       d="m 23.15,9.37 a 1,1 0 0 1 0.35,-0.28 0.59,0.59 0 0 1 0.74,0.5 0.88,0.88 0 0 1 -0.2,0.8 c 0,0 -0.12,0.19 -0.54,0.22 a 1.06,1.06 0 0 1 -0.74,-0.22 c 0,0 0,-0.13 0.09,-0.33 a 3.52,3.52 0 0 1 0.3,-0.69 z"
       id="path340"
       style="stroke-width:0.873552" />
    <path
       class="cls-51"
       d="m 23.19,9.38 a 1,1 0 0 1 0.31,-0.26 0.54,0.54 0 0 1 0.68,0.45 1,1 0 0 1 0,0.33 0.68,0.68 0 0 1 -0.07,0.24 1.15,1.15 0 0 1 -0.12,0.18 0.69,0.69 0 0 1 -0.49,0.2 1,1 0 0 1 -0.68,-0.19 0.93,0.93 0 0 1 0.07,-0.32 2.4,2.4 0 0 1 0.3,-0.63 z"
       id="path342"
       style="stroke-width:0.873552" />
    <path
       class="cls-52"
       d="m 23.22,9.39 a 0.88,0.88 0 0 1 0.29,-0.24 0.48,0.48 0 0 1 0.61,0.4 0.81,0.81 0 0 1 0,0.3 0.69,0.69 0 0 1 -0.07,0.23 0.78,0.78 0 0 1 -0.11,0.17 A 0.55,0.55 0 0 1 23.5,10.43 0.89,0.89 0 0 1 22.89,10.26 0.73,0.73 0 0 1 23,10 2.54,2.54 0 0 1 23.22,9.39 Z"
       id="path344"
       style="stroke-width:0.873552" />
    <path
       class="cls-53"
       d="m 23.26,9.4 a 0.69,0.69 0 0 1 0.26,-0.21 0.42,0.42 0 0 1 0.54,0.33 0.74,0.74 0 0 1 0,0.29 A 0.39,0.39 0 0 1 24,10 0.78,0.78 0 0 1 23.89,10.17 0.53,0.53 0 0 1 23.5,10.34 0.86,0.86 0 0 1 22.96,10.18 c 0,0 0,-0.12 0,-0.27 a 2.08,2.08 0 0 1 0.3,-0.51 z"
       id="path346"
       style="stroke-width:0.873552" />
    <path
       class="cls-54"
       d="M 23.29,9.41 A 0.68,0.68 0 0 1 23.53,9.22 0.36,0.36 0 0 1 24,9.5 0.48,0.48 0 0 1 24.05,9.76 0.38,0.38 0 0 1 24,10 a 0.61,0.61 0 0 1 -0.09,0.16 0.56,0.56 0 0 1 -0.35,0.15 0.75,0.75 0 0 1 -0.47,-0.14 0.42,0.42 0 0 1 0,-0.25 1.78,1.78 0 0 1 0.2,-0.51 z"
       id="path348"
       style="stroke-width:0.873552" />
    <path
       class="cls-55"
       d="m 23.33,9.42 a 0.52,0.52 0 0 1 0.2,-0.17 0.31,0.31 0 0 1 0.4,0.23 0.46,0.46 0 0 1 0.06,0.23 0.48,0.48 0 0 1 0,0.18 0.69,0.69 0 0 1 -0.09,0.15 0.46,0.46 0 0 1 -0.3,0.13 0.59,0.59 0 0 1 -0.4,-0.12 c 0,0 0,-0.11 0,-0.23 a 1,1 0 0 1 0.13,-0.4 z"
       id="path350"
       style="stroke-width:0.873552" />
    <path
       class="cls-56"
       d="m 23.36,9.43 a 0.62,0.62 0 0 1 0.18,-0.15 0.27,0.27 0 0 1 0.33,0.17 0.48,0.48 0 0 1 0.07,0.21 0.47,0.47 0 0 1 0,0.17 0.4,0.4 0 0 1 -0.09,0.13 0.35,0.35 0 0 1 -0.24,0.12 0.51,0.51 0 0 1 -0.34,-0.09 c 0,0 0,-0.11 0,-0.22 a 1.07,1.07 0 0 1 0.09,-0.34 z"
       id="path352"
       style="stroke-width:0.873552" />
    <path
       class="cls-57"
       d="m 23.39,9.43 a 0.51,0.51 0 0 1 0.16,-0.12 0.21,0.21 0 0 1 0.26,0.12 0.36,0.36 0 0 1 0.05,0.34 0.42,0.42 0 0 1 -0.07,0.12 0.26,0.26 0 0 1 -0.2,0.1 0.42,0.42 0 0 1 -0.26,-0.07 0.17,0.17 0 0 1 0,-0.19 1,1 0 0 1 0.06,-0.3 z"
       id="path354"
       style="stroke-width:0.873552" />
    <path
       class="cls-58"
       d="m 23.43,9.44 a 0.42,0.42 0 0 1 0.13,-0.1 0.17,0.17 0 0 1 0.19,0.07 0.22,0.22 0 0 1 0.08,0.15 0.32,0.32 0 0 1 0,0.14 A 0.63,0.63 0 0 1 23.76,9.82 0.21,0.21 0 0 1 23.61,9.9 0.27,0.27 0 0 1 23.42,9.85 0.16,0.16 0 0 1 23.35,9.68 0.59,0.59 0 0 1 23.43,9.44 Z"
       id="path356"
       style="stroke-width:0.873552" />
    <path
       class="cls-59"
       d="m 23.46,9.45 a 0.32,0.32 0 0 1 0.1,-0.08 0.2,0.2 0 0 1 0.13,0 0.22,0.22 0 0 1 0.08,0.26 0.24,0.24 0 0 1 -0.06,0.11 0.17,0.17 0 0 1 -0.1,0.06 0.14,0.14 0 0 1 -0.12,0 0.16,0.16 0 0 1 -0.09,-0.15 0.43,0.43 0 0 1 0.06,-0.2 z"
       id="path358"
       style="stroke-width:0.873552" />
    <path
       class="cls-75"
       d="m 28.41,34.93 a 8.29,8.29 0 0 1 0.25,-2.19 c 0.24,-0.41 1.46,-0.26 1.46,-0.26 a 6,6 0 0 0 -2,-0.64 c -0.4,0.1 0.29,3.09 0.29,3.09 z"
       id="path360"
       style="fill:url(#linear-gradient-54);stroke-width:0.873552" />
    <path
       class="cls-76"
       d="m 18.33,33.19 a 6.76,6.76 0 0 1 -0.21,-1.93 c 0.11,-0.68 1.37,-0.17 2.21,0.21 0,0 -1.13,-0.17 -1.46,0.07 -0.33,0.24 -0.54,1.65 -0.54,1.65 z"
       id="path362"
       style="fill:url(#linear-gradient-55);stroke-width:0.873552" />
    <path
       class="cls-77"
       d="M 26.62,26.28 A 3.64,3.64 0 0 0 29,24.22 c 0.11,-0.42 -0.22,-0.69 -0.56,-0.21 a 7.24,7.24 0 0 1 -1.82,2.27 z"
       id="path364"
       style="fill:url(#linearGradient1234);stroke-width:0.873552" />
    <path
       class="cls-78"
       d="m 26.42,24.65 a 7.71,7.71 0 0 0 1.76,-1.29 c 0.35,-0.37 -0.14,-1.28 -0.56,-1.45 -0.42,-0.17 -0.36,0.55 -0.47,1.18 -0.11,0.63 -0.32,0.56 -0.57,0.82 a 1,1 0 0 0 -0.16,0.74 z"
       id="path366"
       style="fill:url(#linear-gradient-57);stroke-width:0.873552" />
    <path
       class="cls-37"
       d="m 24.1,22 a 8.42,8.42 0 0 0 0.06,1.42 c 0.11,0.89 0.48,1.19 0.75,1.18 0.27,-0.01 0,-0.69 -0.25,-1.3 C 24.41,22.69 24.1,22 24.1,22 Z"
       id="path368"
       style="stroke-width:0.873552" />
    <path
       class="cls-79"
       d="m 17.35,37.75 c -0.21,0 -0.46,-0.11 -0.66,-0.17 H 16.6 a 0.39,0.39 0 0 0 -0.26,0 c -0.1,0 0.06,0.12 0.09,0.14 a 1.45,1.45 0 0 0 0.26,0.11 7.6,7.6 0 0 0 0.8,0.17 4.88,4.88 0 0 0 1.08,0 h 0.19 0.11 0.1 c 0,0 -1.11,-0.15 -1.62,-0.25 z"
       id="path370"
       style="fill:url(#linear-gradient-58);stroke-width:0.873552" />
    <path
       class="cls-80"
       d="m 20.34,38.18 -3.24,0.67 a 8,8 0 0 0 -1,0.24 c -0.11,0 -0.26,0.1 -0.28,0.21 -0.02,0.11 0.21,0.15 0.33,0.14 a 7.32,7.32 0 0 0 0.79,-0.15 c 0.7,-0.16 1.43,-0.38 2.18,-0.62 q 0.38,-0.12 0.75,-0.27 a 4.46,4.46 0 0 1 0.47,-0.22 z"
       id="path372"
       style="fill:url(#linear-gradient-59);stroke-width:0.873552" />
    <path
       class="cls-81"
       d="m 19.92,38.92 a 14.34,14.34 0 0 1 -1.56,1 3.79,3.79 0 0 0 -0.82,0.49 0.58,0.58 0 0 0 -0.18,0.23 c -0.16,0.5 0.92,-0.15 1,-0.23 a 5.82,5.82 0 0 0 1.56,-1.49 z"
       id="path374"
       style="fill:url(#linear-gradient-60);stroke-width:0.873552" />
    <path
       class="cls-82"
       d="m 29.81,39.45 a 14.07,14.07 0 0 1 -2.3,0.88 c -0.24,0.07 -0.29,0.25 0.09,0.25 0.38,0 0.98,-0.16 2.21,-1.13 z"
       id="path376"
       style="fill:url(#linear-gradient-61);stroke-width:0.873552" />
    <path
       class="cls-83"
       d="m 30.71,39.23 a 12.45,12.45 0 0 1 -1.31,1.44 c -0.73,0.66 -1.08,0.87 -1.3,1.13 -0.22,0.26 0,0.63 0.85,0 a 7.2,7.2 0 0 0 1.76,-2.57 z"
       id="path378"
       style="fill:url(#linear-gradient-62);stroke-width:0.873552" />
    <path
       class="cls-84"
       d="m 31.19,40 a 10.9,10.9 0 0 1 -0.7,1.93 c -0.38,0.68 -0.52,0.91 -0.37,1.12 0.15,0.21 0.43,0 0.66,-0.67 A 14.93,14.93 0 0 0 31.19,40 Z"
       id="path380"
       style="fill:url(#linear-gradient-63);stroke-width:0.873552" />
  </g>
</svg>
