<?xml version="1.0" encoding="UTF-8" standalone="no"?>
<!-- Created with Inkscape (http://www.inkscape.org/) -->
<svg
   xmlns:dc="http://purl.org/dc/elements/1.1/"
   xmlns:cc="http://web.resource.org/cc/"
   xmlns:rdf="http://www.w3.org/1999/02/22-rdf-syntax-ns#"
   xmlns:svg="http://www.w3.org/2000/svg"
   xmlns="http://www.w3.org/2000/svg"
   xmlns:xlink="http://www.w3.org/1999/xlink"
   xmlns:sodipodi="http://sodipodi.sourceforge.net/DTD/sodipodi-0.dtd"
   xmlns:inkscape="http://www.inkscape.org/namespaces/inkscape"
   sodipodi:docname="asset.svg"
   sodipodi:docbase="e:\dev_clean\src\houdini\support\icons\misc"
   inkscape:version="0.44.1"
   sodipodi:version="0.32"
   id="svg2963"
   height="48px"
   width="48px">
  <metadata
     id="metadata2051">
    <rdf:RDF>
      <cc:Work
         rdf:about="">
        <dc:format>image/svg+xml</dc:format>
        <dc:type
           rdf:resource="http://purl.org/dc/dcmitype/StillImage" />
      </cc:Work>
    </rdf:RDF>
  </metadata>
  <defs
     id="defs3">
    <linearGradient
       inkscape:collect="always"
       id="linearGradient3372">
      <stop
         style="stop-color:#babdb6;stop-opacity:1;"
         offset="0"
         id="stop3374" />
      <stop
         style="stop-color:#93978d;stop-opacity:1"
         offset="1"
         id="stop3376" />
    </linearGradient>
    <linearGradient
       id="linearGradient3362">
      <stop
         id="stop3364"
         offset="0"
         style="stop-color:white;stop-opacity:1;" />
      <stop
         style="stop-color:white;stop-opacity:0;"
         offset="0.5"
         id="stop3368" />
      <stop
         id="stop3370"
         offset="0.75"
         style="stop-color:white;stop-opacity:0.50196081;" />
      <stop
         id="stop3366"
         offset="1"
         style="stop-color:white;stop-opacity:0;" />
    </linearGradient>
    <linearGradient
       id="linearGradient3303">
      <stop
         style="stop-color:white;stop-opacity:1;"
         offset="0"
         id="stop3305" />
      <stop
         style="stop-color:white;stop-opacity:0;"
         offset="1"
         id="stop3307" />
    </linearGradient>
    <linearGradient
       inkscape:collect="always"
       id="linearGradient3279">
      <stop
         style="stop-color:#e9b96e;stop-opacity:1"
         offset="0"
         id="stop3281" />
      <stop
         style="stop-color:#c17d11;stop-opacity:1"
         offset="1"
         id="stop3283" />
    </linearGradient>
    <linearGradient
       inkscape:collect="always"
       id="linearGradient2884">
      <stop
         style="stop-color:#000000;stop-opacity:1;"
         offset="0"
         id="stop2886" />
      <stop
         style="stop-color:#000000;stop-opacity:0;"
         offset="1"
         id="stop2888" />
    </linearGradient>
    <linearGradient
       id="linearGradient2869">
      <stop
         style="stop-color:#ffffff;stop-opacity:1;"
         offset="0"
         id="stop2871" />
      <stop
         style="stop-color:#cccccc;stop-opacity:1.0000000;"
         offset="1.0000000"
         id="stop2873" />
    </linearGradient>
    <linearGradient
       id="linearGradient4995">
      <stop
         id="stop4997"
         offset="0"
         style="stop-color:#de9523;stop-opacity:1;" />
      <stop
         id="stop4999"
         offset="1.0000000"
         style="stop-color:#a36d18;stop-opacity:1.0000000;" />
    </linearGradient>
    <linearGradient
       id="linearGradient4979">
      <stop
         id="stop4981"
         offset="0.0000000"
         style="stop-color:#fbf0e0;stop-opacity:1.0000000;" />
      <stop
         id="stop4983"
         offset="1.0000000"
         style="stop-color:#f0ce99;stop-opacity:1.0000000;" />
    </linearGradient>
    <linearGradient
       id="linearGradient4946">
      <stop
         id="stop4948"
         offset="0"
         style="stop-color:#000000;stop-opacity:1;" />
      <stop
         style="stop-color:black;stop-opacity:1;"
         offset="0.19642857"
         id="stop2938" />
      <stop
         id="stop4950"
         offset="1"
         style="stop-color:#000000;stop-opacity:0;" />
    </linearGradient>
    <linearGradient
       id="linearGradient4222">
      <stop
         id="stop4224"
         offset="0"
         style="stop-color:#ffffff;stop-opacity:1;" />
      <stop
         id="stop4226"
         offset="1.0000000"
         style="stop-color:#ffffff;stop-opacity:0.68639052;" />
    </linearGradient>
    <linearGradient
       id="linearGradient4210">
      <stop
         id="stop4212"
         offset="0.0000000"
         style="stop-color:#eaba6f;stop-opacity:1.0000000;" />
      <stop
         id="stop4214"
         offset="1.0000000"
         style="stop-color:#b97a1b;stop-opacity:1.0000000;" />
    </linearGradient>
    <linearGradient
       id="linearGradient4192">
      <stop
         id="stop4194"
         offset="0"
         style="stop-color:#e9b96e;stop-opacity:1;" />
      <stop
         id="stop4196"
         offset="1.0000000"
         style="stop-color:#f1d19e;stop-opacity:1.0000000;" />
    </linearGradient>
    <linearGradient
       id="linearGradient4182">
      <stop
         id="stop4184"
         offset="0.0000000"
         style="stop-color:#875a13;stop-opacity:1" />
      <stop
         id="stop4186"
         offset="1.0000000"
         style="stop-color:#d79020;stop-opacity:1.0000000;" />
    </linearGradient>
    <radialGradient
       inkscape:collect="always"
       xlink:href="#linearGradient4946"
       id="radialGradient2252"
       gradientUnits="userSpaceOnUse"
       gradientTransform="matrix(1,0,0,0.333333,0,23.58206)"
       cx="22.930462"
       cy="35.373093"
       fx="22.930462"
       fy="35.373093"
       r="17.576654" />
    <linearGradient
       inkscape:collect="always"
       xlink:href="#linearGradient4222"
       id="linearGradient2285"
       gradientUnits="userSpaceOnUse"
       x1="18.706615"
       y1="19.912336"
       x2="30.014812"
       y2="47.388485"
       gradientTransform="matrix(1.250411,0,0,1.250994,-5.395878,-6.504705)" />
    <linearGradient
       inkscape:collect="always"
       xlink:href="#linearGradient4210"
       id="linearGradient2288"
       gradientUnits="userSpaceOnUse"
       x1="24.990499"
       y1="34.004856"
       x2="24.990499"
       y2="22.585211"
       gradientTransform="matrix(1.250411,0,0,1.250994,-5.395878,-6.504705)" />
    <radialGradient
       inkscape:collect="always"
       xlink:href="#linearGradient2884"
       id="radialGradient2896"
       gradientUnits="userSpaceOnUse"
       gradientTransform="matrix(1.353283,5.468101e-16,-1.144754e-13,0.635968,-8.458890,3.413470)"
       cx="23.943670"
       cy="20.800287"
       fx="23.943670"
       fy="20.800287"
       r="6.4286140" />
    <radialGradient
       inkscape:collect="always"
       xlink:href="#linearGradient2869"
       id="radialGradient2898"
       gradientUnits="userSpaceOnUse"
       gradientTransform="matrix(0.749420,0.000000,0.000000,0.394055,6.226925,10.09253)"
       cx="21.578989"
       cy="9.0255041"
       fx="21.578989"
       fy="9.0255041"
       r="9.5862970" />
    <radialGradient
       inkscape:collect="always"
       xlink:href="#linearGradient2884"
       id="radialGradient2906"
       gradientUnits="userSpaceOnUse"
       gradientTransform="matrix(1.353283,5.468101e-16,-1.144754e-13,0.635968,-8.458890,3.413470)"
       cx="23.943670"
       cy="20.800287"
       fx="23.943670"
       fy="20.800287"
       r="6.4286140" />
    <radialGradient
       inkscape:collect="always"
       xlink:href="#linearGradient2869"
       id="radialGradient2908"
       gradientUnits="userSpaceOnUse"
       gradientTransform="matrix(0.749420,0.000000,0.000000,0.394055,6.226925,10.09253)"
       cx="21.578989"
       cy="9.8105707"
       fx="21.578989"
       fy="9.8105707"
       r="9.5862970" />
    <linearGradient
       inkscape:collect="always"
       xlink:href="#linearGradient3279"
       id="linearGradient3285"
       x1="13.668155"
       y1="8.0114079"
       x2="39.106403"
       y2="13.941134"
       gradientUnits="userSpaceOnUse"
       gradientTransform="matrix(1.226722,0,0,1.447793,-5.38386,-8.772595)" />
    <linearGradient
       inkscape:collect="always"
       xlink:href="#linearGradient3303"
       id="linearGradient3309"
       x1="23.681847"
       y1="14.497044"
       x2="23.681847"
       y2="7.307251"
       gradientUnits="userSpaceOnUse"
       gradientTransform="matrix(1.226722,0,0,1.431583,-5.38386,-8.555566)" />
    <linearGradient
       inkscape:collect="always"
       xlink:href="#linearGradient3303"
       id="linearGradient3313"
       gradientUnits="userSpaceOnUse"
       x1="23.681847"
       y1="14.497044"
       x2="23.681847"
       y2="8.6221123"
       gradientTransform="matrix(1.199462,0,0,-0.553384,-4.513997,20.86528)" />
    <linearGradient
       inkscape:collect="always"
       xlink:href="#linearGradient3362"
       id="linearGradient3356"
       gradientUnits="userSpaceOnUse"
       gradientTransform="matrix(0,1.227071,-1.999223,0,39.54431,-20.69631)"
       x1="22.495901"
       y1="17.228952"
       x2="22.273537"
       y2="-0.25315192" />
    <linearGradient
       inkscape:collect="always"
       xlink:href="#linearGradient3372"
       id="linearGradient3378"
       x1="6.3912281"
       y1="6.7755653"
       x2="41.794855"
       y2="6.7755653"
       gradientUnits="userSpaceOnUse" />
  </defs>
  <sodipodi:namedview
     inkscape:window-y="-1"
     inkscape:window-x="291"
     inkscape:window-height="1093"
     inkscape:window-width="1351"
     stroke="#c17d11"
     fill="#e9b96e"
     inkscape:showpageshadow="false"
     inkscape:document-units="px"
     inkscape:grid-bbox="true"
     showgrid="false"
     inkscape:current-layer="layer1"
     inkscape:cy="25.490623"
     inkscape:cx="24.766151"
     inkscape:zoom="13.491347"
     inkscape:pageshadow="2"
     inkscape:pageopacity="0.0"
     borderopacity="0.16470588"
     bordercolor="#666666"
     pagecolor="#ffffff"
     id="base"
     showguides="true"
     inkscape:guide-bbox="true" />
  <g
     inkscape:groupmode="layer"
     inkscape:label="Layer 1"
     id="layer1">
    <path
       transform="matrix(1.388708,0,0,1.389353,-8.09721,-9.954192)"
       d="M 40.507116 35.373093 A 17.576654 5.8588848 0 1 1  5.3538074,35.373093 A 17.576654 5.8588848 0 1 1  40.507116 35.373093 z"
       sodipodi:ry="5.8588848"
       sodipodi:rx="17.576654"
       sodipodi:cy="35.373093"
       sodipodi:cx="22.930462"
       id="path4944"
       style="opacity:0.56962023;color:black;fill:url(#radialGradient2252);fill-opacity:1;fill-rule:nonzero;stroke:none;stroke-width:1;stroke-linecap:round;stroke-linejoin:round;marker:none;marker-start:none;marker-mid:none;marker-end:none;stroke-miterlimit:4;stroke-dasharray:none;stroke-dashoffset:0;stroke-opacity:1;visibility:visible;display:block;overflow:visible"
       sodipodi:type="arc" />
    <path
       style="color:black;fill:url(#linearGradient2288);fill-opacity:1;fill-rule:nonzero;stroke:#a0670c;stroke-width:1.00000048;stroke-linecap:butt;stroke-linejoin:miter;marker:none;marker-start:none;marker-mid:none;marker-end:none;stroke-miterlimit:4;stroke-dashoffset:0;stroke-opacity:1;visibility:visible;display:block;overflow:visible"
       d="M 4.0566874,12.604768 L 43.981624,12.604768 L 43.921287,38.523406 C 43.921287,40.182877 42.569386,41.518841 40.89012,41.518841 L 6.9663379,41.518841 C 5.2870723,41.518841 3.9351723,40.182877 3.9351723,38.523406 L 4.0566874,12.604768 z "
       id="rect3115"
       sodipodi:nodetypes="ccccccc" />
    <path
       style="opacity:0.48101268;color:black;fill:none;fill-opacity:1;fill-rule:nonzero;stroke:url(#linearGradient2285);stroke-width:1.00000083;stroke-linecap:butt;stroke-linejoin:miter;marker:none;marker-start:none;marker-mid:none;marker-end:none;stroke-miterlimit:4;stroke-dashoffset:0;stroke-opacity:1;visibility:visible;display:block;overflow:visible"
       d="M 5.2920035,13.816063 L 42.710939,13.816063 L 42.498796,38.574063 C 42.498796,39.464417 41.782347,40.1812 40.892407,40.1812 L 6.8377553,40.1812 C 5.9478159,40.1812 5.2313666,39.464417 5.2313666,38.574063 L 5.2920035,13.816063 z "
       id="rect4220"
       sodipodi:nodetypes="ccccccc" />
    <path
       sodipodi:nodetypes="ccccc"
       id="path4162"
       d="M 3.9949881,12.595381 L 10.957215,2.0137321 L 36.870141,1.8567892 L 44.066776,12.380609 L 3.9949881,12.595381 z "
       style="fill:url(#linearGradient3285);fill-opacity:1;fill-rule:evenodd;stroke:#8f5902;stroke-width:1;stroke-linecap:butt;stroke-linejoin:round;stroke-miterlimit:4;stroke-dasharray:none;stroke-opacity:1" />
    <path
       sodipodi:nodetypes="ccccc"
       id="path3287"
       d="M 6.5863923,11.253729 L 11.819619,3.3161783 L 36.156839,3.1984516 L 41.566263,11.092623 L 6.5863923,11.253729 z "
       style="fill:none;fill-opacity:1;fill-rule:evenodd;stroke:white;stroke-width:1;stroke-linecap:butt;stroke-linejoin:miter;stroke-miterlimit:4;stroke-dasharray:none;stroke-opacity:0.50196078" />
    <path
       style="fill:none;fill-opacity:0.75;fill-rule:evenodd;stroke:#8f5902;stroke-width:0.99999988px;stroke-linecap:butt;stroke-linejoin:miter;stroke-opacity:1"
       d="M 23.258011,2.2165133 L 23.258011,12.326612"
       id="path3293" />
    <path
       style="opacity:1;color:black;fill:#d3d7cf;fill-opacity:0.50196078;fill-rule:evenodd;stroke:url(#linearGradient3378);stroke-width:1.00000012px;stroke-linecap:butt;stroke-linejoin:miter;marker:none;marker-start:none;marker-mid:none;marker-end:none;stroke-miterlimit:4;stroke-dasharray:none;stroke-dashoffset:0;stroke-opacity:1;visibility:visible;display:inline;overflow:visible"
       d="M 8.807588,5.2706085 L 39.261089,5.2706085 L 41.294855,8.2805222 L 6.8912282,8.2805222 L 8.807588,5.2706085 z "
       id="path3352"
       sodipodi:nodetypes="ccccc" />
    <path
       style="fill:#d3d7cf;fill-opacity:0.50196078;fill-rule:evenodd;stroke:#babdb6;stroke-width:1.00000012px;stroke-linecap:butt;stroke-linejoin:miter;stroke-opacity:1"
       d="M 21.075774,2.0941289 L 19.530022,12.070562 L 19.530022,21.460146 C 22.22751,21.168986 24.925,17.658553 27.622488,18.232477 L 27.622488,11.483714 L 25.531176,1.9963208 L 21.075774,2.0941289 z "
       id="path3295"
       sodipodi:nodetypes="ccccccc" />
    <path
       style="fill:url(#linearGradient3309);fill-opacity:1;fill-rule:evenodd;stroke:none;stroke-width:1px;stroke-linecap:butt;stroke-linejoin:miter;stroke-opacity:1"
       d="M 21.075778,1.9053648 L 19.711878,12.728701 L 27.622491,12.728701 L 25.531179,1.9053648 L 21.075778,1.9053648 z "
       id="path3297"
       sodipodi:nodetypes="ccccc" />
    <path
       style="fill:url(#linearGradient3313);fill-opacity:1;fill-rule:evenodd;stroke:none;stroke-width:1px;stroke-linecap:butt;stroke-linejoin:miter;stroke-opacity:1"
       d="M 20.112968,15.73013 L 19.757341,12.637749 L 27.758882,12.637749 L 27.403258,16.09394 L 20.112968,15.73013 z "
       id="path3311"
       sodipodi:nodetypes="ccccc" />
    <g
       id="g3342"
       transform="matrix(0.810974,-0.263487,0.263412,0.811205,5.538056,15.62781)">
      <g
         style="fill:black;fill-opacity:0.58385094"
         id="g3336">
        <path
           style="font-size:12px;font-style:normal;font-variant:normal;font-weight:normal;font-stretch:normal;text-align:start;line-height:100%;writing-mode:lr-tb;text-anchor:start;fill:black;fill-opacity:0.58385094;stroke:none;stroke-width:1px;stroke-linecap:butt;stroke-linejoin:miter;stroke-opacity:1;font-family:Tahoma"
           d="M 11.745744,19.696182 L 11.745744,31.693252 L 7.834612,31.693252 L 7.606096,31.693252 C 7.395157,31.693252 7.23256,31.653701 7.118303,31.5746 C 7.004044,31.495498 6.946916,31.382705 6.946916,31.236221 C 6.946916,30.995987 7.064103,30.837784 7.298479,30.761611 C 7.491837,30.697159 7.60463,30.657609 7.636858,30.642959 C 7.669083,30.628312 7.702774,30.59462 7.737932,30.541885 C 7.808243,30.448136 7.843399,30.298722 7.843401,30.093643 L 7.843401,21.295791 C 7.843399,21.090724 7.808243,20.94131 7.737932,20.847549 C 7.702774,20.794825 7.669083,20.761134 7.636858,20.746475 C 7.60463,20.731837 7.491837,20.692286 7.298479,20.627822 C 7.064103,20.551662 6.946916,20.393459 6.946916,20.153213 C 6.946916,20.00674 7.004044,19.893947 7.118303,19.814834 C 7.23256,19.735744 7.395157,19.696194 7.606096,19.696182 L 7.834612,19.696182 L 11.745744,19.696182 z "
           id="path3330" />
        <path
           style="font-size:12px;font-style:normal;font-variant:normal;font-weight:normal;font-stretch:normal;text-align:start;line-height:100%;writing-mode:lr-tb;text-anchor:start;fill:black;fill-opacity:0.58385094;stroke:none;stroke-width:1px;stroke-linecap:butt;stroke-linejoin:miter;stroke-opacity:1;font-family:Tahoma"
           d="M 13.521135,29.17958 L 13.521135,22.24501 C 13.521128,21.817285 13.459604,21.477442 13.336565,21.225479 C 13.260386,21.061427 13.166636,20.94131 13.055315,20.865127 C 12.94398,20.788966 12.768199,20.724513 12.527971,20.671768 L 12.527971,19.696182 C 12.838511,19.696194 13.102183,19.707912 13.318987,19.731338 C 14.063119,19.813381 14.783822,20.129787 15.481096,20.680557 C 16.172492,21.21377 16.685187,21.908106 17.019182,22.763565 C 17.364874,23.63076 17.537725,24.591697 17.537737,25.646377 C 17.537725,26.841694 17.317999,27.903705 16.878557,28.832412 C 16.439094,29.761125 15.809211,30.492081 14.988909,31.025283 C 14.590463,31.283096 14.219858,31.458877 13.877092,31.552627 C 13.534311,31.646377 13.084605,31.693252 12.527971,31.693252 L 12.527971,30.744033 C 12.774058,30.679581 12.945445,30.620987 13.042131,30.568252 C 13.138804,30.515519 13.2223,30.433488 13.292619,30.322158 C 13.380503,30.193254 13.440561,30.048234 13.472795,29.8871 C 13.505015,29.725969 13.521128,29.490129 13.521135,29.17958 L 13.521135,29.17958 z "
           id="path3328" />
      </g>
      <path
         id="path3326"
         d="M 18.360494,29.178705 C 18.747943,29.178709 19.079697,29.316738 19.355759,29.592794 C 19.631814,29.868855 19.769843,30.20061 19.769848,30.58806 C 19.769843,30.980355 19.631814,31.314531 19.355759,31.59059 C 19.079697,31.866648 18.747943,32.004678 18.360494,32.004679 C 17.968197,32.004678 17.634021,31.866648 17.357963,31.59059 C 17.081904,31.314531 16.943874,30.980355 16.943875,30.58806 C 16.943874,30.20061 17.081904,29.868855 17.357963,29.592794 C 17.634021,29.316738 17.968197,29.178709 18.360494,29.178705 L 18.360494,29.178705 z "
         style="font-size:12px;font-style:normal;font-variant:normal;font-weight:normal;font-stretch:normal;text-align:start;line-height:100%;writing-mode:lr-tb;text-anchor:start;fill:black;fill-opacity:0.58385094;stroke:none;stroke-width:1px;stroke-linecap:butt;stroke-linejoin:miter;stroke-opacity:1;font-family:Tahoma" />
      <g
         style="fill:black;fill-opacity:0.58385094"
         transform="translate(-3.187228,0)"
         id="g3332">
        <path
           style="font-size:12px;font-style:normal;font-variant:normal;font-weight:normal;font-stretch:normal;text-align:start;line-height:100%;writing-mode:lr-tb;text-anchor:start;fill:black;fill-opacity:0.58385094;stroke:none;stroke-width:1px;stroke-linecap:butt;stroke-linejoin:miter;stroke-opacity:1;font-family:Tahoma"
           d="M 27.943987,19.696182 L 31.485979,19.696182 L 33.929338,30.02333 C 33.976203,30.204972 34.028937,30.366105 34.087541,30.506729 C 34.140265,30.618058 34.257453,30.708878 34.439104,30.77919 C 34.591437,30.843643 34.696905,30.908097 34.75551,30.972549 C 34.814093,31.037003 34.84339,31.124893 34.843401,31.236221 C 34.84339,31.540908 34.614874,31.693252 34.157854,31.693252 L 29.772112,31.693252 C 29.596325,31.693252 29.4557,31.650772 29.350237,31.565811 C 29.244762,31.48085 29.192028,31.368057 29.192034,31.227432 C 29.192028,31.110245 29.215466,31.022354 29.262346,30.96376 C 29.309215,30.905167 29.414684,30.831925 29.578752,30.744033 C 29.695934,30.685441 29.777965,30.620987 29.824846,30.550674 C 29.871715,30.480363 29.895152,30.392472 29.895159,30.287002 C 29.895152,30.187394 29.886363,30.099504 29.868791,30.02333 L 29.587541,28.748916 L 27.135393,28.748916 L 27.372698,27.703018 L 29.341448,27.703018 L 27.72426,20.55751 L 27.943987,19.696182 z "
           id="path3324" />
        <path
           style="font-size:12px;font-style:normal;font-variant:normal;font-weight:normal;font-stretch:normal;text-align:start;line-height:100%;writing-mode:lr-tb;text-anchor:start;fill:black;fill-opacity:0.58385094;stroke:none;stroke-width:1px;stroke-linecap:butt;stroke-linejoin:miter;stroke-opacity:1;font-family:Tahoma"
           d="M 27.337541,21.928604 L 27.785784,23.74794 L 26.230119,29.425674 C 26.183242,29.589738 26.159805,29.742082 26.159807,29.882705 C 26.159805,30.251847 26.332656,30.515519 26.678362,30.673721 L 26.985979,30.814346 C 27.179335,30.902237 27.276014,31.048721 27.276018,31.253799 C 27.276014,31.546768 27.062147,31.693252 26.634416,31.693252 L 24.401994,31.693252 C 24.185197,31.693252 24.013811,31.647842 23.887834,31.557022 C 23.761858,31.466201 23.698869,31.34169 23.698869,31.183486 C 23.698869,31.013565 23.827776,30.87294 24.085588,30.761611 C 24.325822,30.656144 24.503068,30.560929 24.617327,30.475967 C 24.731583,30.391007 24.841446,30.275285 24.946916,30.128799 C 25.110977,29.888566 25.245743,29.569231 25.351213,29.170791 L 27.337541,21.928604 z "
           id="path3322" />
      </g>
      <path
         id="path3340"
         d="M 33.58071,29.242563 C 33.968159,29.242567 34.299913,29.380596 34.575975,29.656652 C 34.85203,29.932713 34.990059,30.264468 34.990064,30.651918 C 34.990059,31.044213 34.85203,31.378389 34.575975,31.654448 C 34.299913,31.930506 33.968159,32.068536 33.58071,32.068537 C 33.188413,32.068536 32.854237,31.930506 32.578179,31.654448 C 32.30212,31.378389 32.16409,31.044213 32.164091,30.651918 C 32.16409,30.264468 32.30212,29.932713 32.578179,29.656652 C 32.854237,29.380596 33.188413,29.242567 33.58071,29.242563 L 33.58071,29.242563 z "
         style="font-size:12px;font-style:normal;font-variant:normal;font-weight:normal;font-stretch:normal;text-align:start;line-height:100%;writing-mode:lr-tb;text-anchor:start;fill:black;fill-opacity:0.58385094;stroke:none;stroke-width:1px;stroke-linecap:butt;stroke-linejoin:miter;stroke-opacity:1;font-family:Tahoma" />
    </g>
    <path
       style="fill:url(#linearGradient3356);fill-opacity:1;fill-rule:evenodd;stroke:none;stroke-width:1px;stroke-linecap:butt;stroke-linejoin:miter;stroke-opacity:1"
       d="M 38.546437,5.2251297 L 8.4712326,4.8613183 L 6.0946467,8.5903678 L 40.943235,8.4084619 L 38.546437,5.2251297 z "
       id="path3354"
       sodipodi:nodetypes="ccccc" />
  </g>
</svg>