<?xml version="1.0" encoding="UTF-8" standalone="no"?>
<svg
   xmlns:dc="http://purl.org/dc/elements/1.1/"
   xmlns:cc="http://creativecommons.org/ns#"
   xmlns:rdf="http://www.w3.org/1999/02/22-rdf-syntax-ns#"
   xmlns:svg="http://www.w3.org/2000/svg"
   xmlns="http://www.w3.org/2000/svg"
   xmlns:xlink="http://www.w3.org/1999/xlink"
   xmlns:sodipodi="http://sodipodi.sourceforge.net/DTD/sodipodi-0.dtd"
   xmlns:inkscape="http://www.inkscape.org/namespaces/inkscape"
   viewBox="0 0 48 48"
   version="1.1"
   id="svg125"
   sodipodi:docname="2-Donut.svg"
   inkscape:version="1.0.1 (3bc2e813f5, 2020-09-07)">
  <metadata
     id="metadata129">
    <rdf:RDF>
      <cc:Work
         rdf:about="">
        <dc:format>image/svg+xml</dc:format>
        <dc:type
           rdf:resource="http://purl.org/dc/dcmitype/StillImage" />
      </cc:Work>
    </rdf:RDF>
  </metadata>
  <sodipodi:namedview
     pagecolor="#ffffff"
     bordercolor="#666666"
     borderopacity="1"
     objecttolerance="10"
     gridtolerance="10"
     guidetolerance="10"
     inkscape:pageopacity="0"
     inkscape:pageshadow="2"
     inkscape:window-width="2560"
     inkscape:window-height="1377"
     id="namedview127"
     showgrid="false"
     inkscape:zoom="15.3125"
     inkscape:cx="24"
     inkscape:cy="24"
     inkscape:window-x="-8"
     inkscape:window-y="-8"
     inkscape:window-maximized="1"
     inkscape:current-layer="svg125" />
  <defs
     id="defs60">
    <style
       id="style2">.cls-1{fill:#d0d0d0;}.cls-2{fill:url(#radial-gradient);}.cls-3,.cls-6{stroke:#ce5c00;stroke-miterlimit:10;}.cls-10,.cls-3,.cls-6{stroke-width:0.7px;}.cls-3{fill:url(#linear-gradient);}.cls-4{fill:url(#linear-gradient-2);}.cls-5{fill:url(#linear-gradient-3);}.cls-10,.cls-13,.cls-14,.cls-6{fill:none;}.cls-7{fill:#fc97bc;}.cls-8{fill:url(#linear-gradient-4);}.cls-9{fill:url(#radial-gradient-2);}.cls-10{stroke:#d86493;}.cls-10,.cls-13,.cls-14{stroke-linecap:round;stroke-linejoin:round;}.cls-11{opacity:0.85;fill:url(#linear-gradient-5);}.cls-12{fill:url(#linear-gradient-6);}.cls-13{stroke:#729fcf;}.cls-13,.cls-14{stroke-width:0.6px;}.cls-14{stroke:#fce94f;}</style>
    <radialGradient
       id="radial-gradient"
       cx="57.81"
       cy="35.44"
       r="21.62"
       gradientTransform="matrix(1.11,0,0,0.47,-40.25,16.61)"
       gradientUnits="userSpaceOnUse">
      <stop
         offset="0.03"
         stop-color="#2c2c2c"
         stop-opacity="0.5"
         id="stop4" />
      <stop
         offset="0.68"
         stop-color="#2c2c2c"
         stop-opacity="0.1"
         id="stop6" />
      <stop
         offset="0.93"
         stop-color="#2c2c2c"
         stop-opacity="0"
         id="stop8" />
    </radialGradient>
    <linearGradient
       id="linear-gradient"
       x1="14.78"
       y1="32.98"
       x2="37.33"
       y2="21.29"
       gradientUnits="userSpaceOnUse">
      <stop
         offset="0"
         stop-color="#ffce8d"
         id="stop11" />
      <stop
         offset="0.17"
         stop-color="#fcaf3e"
         id="stop13" />
      <stop
         offset="0.8"
         stop-color="#fcaf3e"
         id="stop15" />
      <stop
         offset="1"
         stop-color="#ffce8d"
         id="stop17" />
    </linearGradient>
    <linearGradient
       id="linear-gradient-2"
       x1="14.08"
       y1="27.97"
       x2="36.36"
       y2="27.97"
       gradientUnits="userSpaceOnUse">
      <stop
         offset="0"
         stop-color="#fcaf3e"
         id="stop20" />
      <stop
         offset="0.17"
         stop-color="#f57900"
         id="stop22" />
      <stop
         offset="0.76"
         stop-color="#f57900"
         id="stop24" />
      <stop
         offset="0.8"
         stop-color="#f57900"
         id="stop26" />
      <stop
         offset="1"
         stop-color="#fcaf3e"
         id="stop28" />
    </linearGradient>
    <linearGradient
       id="linear-gradient-3"
       x1="10.03"
       y1="24.39"
       x2="37.92"
       y2="24.39"
       xlink:href="#linear-gradient-2" />
    <linearGradient
       id="linear-gradient-4"
       x1="23.47"
       y1="22.65"
       x2="18.84"
       y2="14.08"
       gradientUnits="userSpaceOnUse">
      <stop
         offset="0"
         stop-color="#ffcadc"
         stop-opacity="0"
         id="stop32" />
      <stop
         offset="1"
         stop-color="#ffcadc"
         id="stop34" />
    </linearGradient>
    <radialGradient
       id="radial-gradient-2"
       cx="23.73"
       cy="23.16"
       r="15.31"
       gradientUnits="userSpaceOnUse">
      <stop
         offset="0.23"
         stop-color="#b2567c"
         id="stop37" />
      <stop
         offset="0.55"
         stop-color="#fc97bc"
         stop-opacity="0"
         id="stop39" />
    </radialGradient>
    <linearGradient
       id="linear-gradient-5"
       x1="12.58"
       y1="23.97"
       x2="27.12"
       y2="11.69"
       gradientUnits="userSpaceOnUse">
      <stop
         offset="0"
         stop-color="#ffcadc"
         stop-opacity="0"
         id="stop42" />
      <stop
         offset="0.2"
         stop-color="#fff"
         id="stop44" />
      <stop
         offset="0.73"
         stop-color="#fff"
         id="stop46" />
      <stop
         offset="1"
         stop-color="#ffcadc"
         stop-opacity="0"
         id="stop48" />
    </linearGradient>
    <linearGradient
       id="linear-gradient-6"
       x1="17.07"
       y1="28.83"
       x2="29.41"
       y2="16.49"
       gradientUnits="userSpaceOnUse">
      <stop
         offset="0"
         stop-color="#ffcadc"
         stop-opacity="0"
         id="stop51" />
      <stop
         offset="0.2"
         stop-color="#ffcadc"
         id="stop53" />
      <stop
         offset="0.73"
         stop-color="#ffcadc"
         id="stop55" />
      <stop
         offset="1"
         stop-color="#ffcadc"
         stop-opacity="0"
         id="stop57" />
    </linearGradient>
    <linearGradient
       inkscape:collect="always"
       xlink:href="#linear-gradient-2"
       id="linearGradient954"
       gradientUnits="userSpaceOnUse"
       x1="14.08"
       y1="27.97"
       x2="36.36"
       y2="27.97" />
  </defs>
  <title
     id="title62">2-Donut</title>
  <g
     id="shadow"
     transform="matrix(1.0325258,0,0,1,-0.68265968,5.1591837)"
     style="stroke-width:0.984123">
    <ellipse
       class="cls-2"
       cx="24"
       cy="33.099998"
       rx="23.09"
       ry="9.71"
       id="ellipse67"
       style="fill:url(#radial-gradient);stroke-width:0.984123" />
  </g>
  <g
     id="ART"
     transform="matrix(1.6394627,0,0,1.6422948,-15.238079,-17.567702)"
     style="stroke-width:0.60943">
    <path
       class="cls-3"
       d="m 10.3,26.18 a 13.7,13.7 0 0 0 0.38,3.74 8.7,8.7 0 0 0 5.15,5.35 c 3,1.23 9.81,1.27 14.36,-1.16 4.21,-2.25 7.17,-6.19 7.91,-9.22 0.74,-3.03 -0.42,-6.38 -1.73,-7.61 -1.31,-1.23 -1.88,-0.7 -5.82,1.83 C 26.61,21.64 20.36,28.26 19.91,28 19.46,27.74 10.3,26.18 10.3,26.18 Z"
       id="path70"
       style="fill:url(#linear-gradient)" />
    <path
       class="cls-4"
       d="m 15.83,33.28 c 2.78,1.57 8.34,1 10.71,0.38 2.37,-0.62 6.32,-2.9 7.91,-5.26 a 9.88,9.88 0 0 0 1.87,-6.06 0.93,0.93 0 0 0 -0.85,-0.71 7.6,7.6 0 0 0 -1.07,0.1 1.36,1.36 0 0 0 -1,0.4 2,2 0 0 0 -0.48,1.16 5.63,5.63 0 0 0 0,0.71 6.56,6.56 0 0 1 -0.46,3.26 c 0,0 -1.01,2.74 -6.46,4.63 -5.45,1.89 -9.86,-0.28 -10.81,-1.28 -0.95,-1 -2.19,1.1 0.64,2.67 z"
       id="path72"
       style="fill:url(#linearGradient954);stroke-width:0.60943" />
    <path
       class="cls-5"
       d="M 36.12,17 C 34.8,15.76 34.24,16.3 30.3,18.82 26.36,21.34 20.11,28 19.65,27.72 19.19,27.44 10,25.92 10,25.92 a 14.42,14.42 0 0 0 0.21,2.95 3.55,3.55 0 0 0 2.27,-0.28 c 0,0 0.69,-0.11 0.9,0.41 a 8,8 0 0 1 0.28,0.76 c 0.33,1 0.84,2.52 2.91,2.62 A 4.06,4.06 0 0 0 19,31.63 c 0.42,-0.25 0.58,-0.34 0.83,-0.33 a 1.72,1.72 0 0 1 0.89,0.35 4.46,4.46 0 0 0 2.37,0.74 h 0.35 c 1.85,-0.15 2.82,-1.7 3.52,-2.84 0.21,-0.31 0.4,-0.62 0.56,-0.81 a 2.14,2.14 0 0 1 2,-0.5 c 1.19,0.19 3.19,0.5 4.49,-0.85 1.3,-1.35 0.88,-2.95 0.73,-3.88 v -0.2 a 0.91,0.91 0 0 1 0.13,-0.45 l 0.2,0.06 a 2.6,2.6 0 0 0 1.19,0.15 1.69,1.69 0 0 0 1.17,-0.74 3.27,3.27 0 0 0 0.49,-1.33 7.36,7.36 0 0 0 -1.8,-4 z"
       id="path74"
       style="fill:url(#linear-gradient-3);stroke-width:0.60943" />
    <path
       class="cls-6"
       d="m 10.3,26.18 a 13.7,13.7 0 0 0 0.38,3.74 8.7,8.7 0 0 0 5.15,5.35 c 3,1.23 9.81,1.27 14.36,-1.16 4.21,-2.25 7.17,-6.19 7.91,-9.22 0.74,-3.03 -0.42,-6.38 -1.73,-7.61 -1.31,-1.23 -1.88,-0.7 -5.82,1.83 C 26.61,21.64 20.36,28.26 19.91,28 19.46,27.74 10.3,26.18 10.3,26.18 Z"
       id="path76" />
    <path
       class="cls-7"
       d="M 36.69,18.23 A 8.22,8.22 0 0 0 31.51,12.82 17.2,17.2 0 0 0 19,13.36 16.61,16.61 0 0 0 11,20 8.2,8.2 0 0 0 10.09,27.23 c 0.34,0.76 1.51,0.6 2.08,0.31 A 2.2,2.2 0 0 1 15,28.71 c 0.57,1.36 0.54,2.46 2,2.53 1.46,0.07 1.83,-1.11 3.22,-1.08 1.39,0.03 1.89,1.21 3.47,1.08 1.58,-0.13 2.31,-2.18 3.13,-3.16 a 3.41,3.41 0 0 1 3.28,-1 c 1.2,0.19 2.53,0.35 3.29,-0.44 0.76,-0.79 0.44,-2.12 0.31,-2.91 -0.13,-0.79 0.45,-2 1.27,-2.05 0.82,-0.05 0.94,0.28 1.45,0.22 0.51,-0.06 0.65,-1.9 0.27,-3.67 z M 26,21.3 a 4.37,4.37 0 0 1 -4.08,2.1 4.8,4.8 0 0 1 -0.55,0 3.93,3.93 0 0 1 -0.8,-0.13 6.79,6.79 0 0 1 2.29,-2 7.83,7.83 0 0 1 3.4,-0.52 z"
       id="path78"
       style="stroke-width:0.60943" />
    <path
       class="cls-8"
       d="M 36.69,18.23 A 8.22,8.22 0 0 0 31.51,12.82 17.2,17.2 0 0 0 19,13.36 16.61,16.61 0 0 0 11,20 8.2,8.2 0 0 0 10.09,27.23 c 0.34,0.76 1.51,0.6 2.08,0.31 A 2.2,2.2 0 0 1 15,28.71 c 0.57,1.36 0.54,2.46 2,2.53 1.46,0.07 1.83,-1.11 3.22,-1.08 1.39,0.03 1.89,1.21 3.47,1.08 1.58,-0.13 2.31,-2.18 3.13,-3.16 a 3.41,3.41 0 0 1 3.28,-1 c 1.2,0.19 2.53,0.35 3.29,-0.44 0.76,-0.79 0.44,-2.12 0.31,-2.91 -0.13,-0.79 0.45,-2 1.27,-2.05 0.82,-0.05 0.94,0.28 1.45,0.22 0.51,-0.06 0.65,-1.9 0.27,-3.67 z M 26,21.3 a 4.37,4.37 0 0 1 -4.08,2.1 4.8,4.8 0 0 1 -0.55,0 3.93,3.93 0 0 1 -0.8,-0.13 6.79,6.79 0 0 1 2.29,-2 7.83,7.83 0 0 1 3.4,-0.52 z"
       id="path80"
       style="fill:url(#linear-gradient-4);stroke-width:0.60943" />
    <path
       class="cls-9"
       d="m 26.33,17.65 c 0,0 -0.27,0.62 -1.38,0.71 -1.11,0.09 -2.15,-1.07 -3.27,-0.18 -1.12,0.89 -0.52,2.13 -1.54,2.79 a 3.1,3.1 0 0 1 -2.49,0.07 4.24,4.24 0 0 0 2.94,2.2 6.79,6.79 0 0 1 2.29,-2 7.79,7.79 0 0 1 3.39,-0.52 v 0 a 3.33,3.33 0 0 0 0.18,-0.57 8.62,8.62 0 0 0 -0.12,-2.5 z"
       id="path82"
       style="fill:url(#radial-gradient-2);stroke-width:0.60943" />
    <path
       class="cls-10"
       d="M 36.69,18.23 A 8.22,8.22 0 0 0 31.51,12.82 17.2,17.2 0 0 0 19,13.36 16.61,16.61 0 0 0 11,20 8.2,8.2 0 0 0 10.09,27.23 c 0.34,0.76 1.51,0.6 2.08,0.31 A 2.2,2.2 0 0 1 15,28.71 c 0.57,1.36 0.54,2.46 2,2.53 1.46,0.07 1.83,-1.11 3.22,-1.08 1.39,0.03 1.89,1.21 3.47,1.08 1.58,-0.13 2.31,-2.18 3.13,-3.16 a 3.41,3.41 0 0 1 3.28,-1 c 1.2,0.19 2.53,0.35 3.29,-0.44 0.76,-0.79 0.44,-2.12 0.31,-2.91 -0.13,-0.79 0.45,-2 1.27,-2.05 0.82,-0.05 0.94,0.28 1.45,0.22 0.51,-0.06 0.65,-1.9 0.27,-3.67 z M 26,21.3 a 4.37,4.37 0 0 1 -4.08,2.1 4.8,4.8 0 0 1 -0.55,0 3.93,3.93 0 0 1 -0.8,-0.13 6.79,6.79 0 0 1 2.29,-2 7.83,7.83 0 0 1 3.4,-0.52 z"
       id="path84" />
    <path
       class="cls-10"
       d="m 17.65,21 a 4.24,4.24 0 0 0 2.94,2.2 6.79,6.79 0 0 1 2.29,-2 7.79,7.79 0 0 1 3.39,-0.52 v 0 a 3.33,3.33 0 0 0 0.18,-0.57 8.62,8.62 0 0 0 -0.13,-2.53"
       id="path86" />
    <path
       class="cls-11"
       d="m 18,15 c -4.64,2.63 -6.31,5.85 -6.63,7.66 -0.16,0.89 0.9,0.95 1.67,0.73 0.77,-0.22 1.19,-0.82 1.7,-1.95 0.51,-1.13 2.14,-4.46 5,-5.81 2.86,-1.35 6.33,-0.72 7.46,-0.51 1.13,0.21 1.83,-0.09 2.15,-0.7 0.32,-0.61 -0.29,-1.07 -1.58,-1.16 A 15.81,15.81 0 0 0 18,15 Z"
       id="path88"
       style="fill:url(#linear-gradient-5);stroke-width:0.60943" />
    <path
       class="cls-12"
       d="m 29,18 c -0.66,0.17 -1,0.72 -1,2.07 0,1.35 -1.63,3.28 -4.34,4.15 a 7.84,7.84 0 0 1 -5.63,-0.37 1.7,1.7 0 0 0 -2.1,0.32 c -0.4,0.6 0.2,1.73 1.77,2.21 a 10.41,10.41 0 0 0 8.1,-1.28 c 3.38,-2 4.3,-3.57 4.63,-4.83 C 30.9,18.56 29.7,17.82 29,18 Z"
       id="path90"
       style="fill:url(#linear-gradient-6);stroke-width:0.60943" />
    <line
       class="cls-13"
       x1="13.44"
       y1="22.370001"
       x2="14.4"
       y2="23.549999"
       id="line92" />
    <line
       class="cls-14"
       x1="16.68"
       y1="19.959999"
       x2="18.110001"
       y2="19.42"
       id="line94" />
    <line
       class="cls-14"
       x1="19.790001"
       y1="16.74"
       x2="21.209999"
       y2="16.190001"
       id="line96" />
    <line
       class="cls-13"
       x1="24.76"
       y1="16.360001"
       x2="25.49"
       y2="17.690001"
       id="line98" />
    <line
       class="cls-13"
       x1="30.940001"
       y1="12.98"
       x2="29.719999"
       y2="13.9"
       id="line100" />
    <line
       class="cls-14"
       x1="33.23"
       y1="16.299999"
       x2="33.720001"
       y2="17.75"
       id="line102" />
    <line
       class="cls-14"
       x1="30.049999"
       y1="17.969999"
       x2="28.73"
       y2="18.73"
       id="line104" />
    <line
       class="cls-13"
       x1="33.09"
       y1="21.870001"
       x2="32.419998"
       y2="20.5"
       id="line106" />
    <line
       class="cls-14"
       x1="29.389999"
       y1="23.49"
       x2="27.879999"
       y2="23.700001"
       id="line108" />
    <line
       class="cls-13"
       x1="22.66"
       y1="27.6"
       x2="23.34"
       y2="26.23"
       id="line110" />
    <line
       class="cls-13"
       x1="18.16"
       y1="28.389999"
       x2="16.629999"
       y2="28.309999"
       id="line112" />
    <line
       class="cls-14"
       x1="19.129999"
       y1="25.65"
       x2="18.040001"
       y2="24.57"
       id="line114" />
    <line
       class="cls-14"
       x1="10.85"
       y1="25.59"
       x2="11.53"
       y2="24.219999"
       id="line116" />
    <line
       class="cls-14"
       x1="12.14"
       y1="18.870001"
       x2="13.66"
       y2="18.9"
       id="line118" />
    <line
       class="cls-13"
       x1="18.719999"
       y1="14.36"
       x2="18.450001"
       y2="15.86"
       id="line120" />
    <line
       class="cls-14"
       x1="25.84"
       y1="12.23"
       x2="24.42"
       y2="12.79"
       id="line122" />
  </g>
</svg>
