<?xml version="1.0" encoding="UTF-8" standalone="no"?>
<svg
   xmlns:dc="http://purl.org/dc/elements/1.1/"
   xmlns:cc="http://creativecommons.org/ns#"
   xmlns:rdf="http://www.w3.org/1999/02/22-rdf-syntax-ns#"
   xmlns:svg="http://www.w3.org/2000/svg"
   xmlns="http://www.w3.org/2000/svg"
   xmlns:xlink="http://www.w3.org/1999/xlink"
   xmlns:sodipodi="http://sodipodi.sourceforge.net/DTD/sodipodi-0.dtd"
   xmlns:inkscape="http://www.inkscape.org/namespaces/inkscape"
   viewBox="0 0 48 48"
   version="1.1"
   id="svg8380"
   sodipodi:docname="knit.svg"
   inkscape:version="1.0.1 (3bc2e813f5, 2020-09-07)">
  <metadata
     id="metadata8384">
    <rdf:RDF>
      <cc:Work
         rdf:about="">
        <dc:format>image/svg+xml</dc:format>
        <dc:type
           rdf:resource="http://purl.org/dc/dcmitype/StillImage" />
        <dc:title>18-Knitting</dc:title>
      </cc:Work>
    </rdf:RDF>
  </metadata>
  <sodipodi:namedview
     pagecolor="#ffffff"
     bordercolor="#666666"
     borderopacity="1"
     objecttolerance="10"
     gridtolerance="10"
     guidetolerance="10"
     inkscape:pageopacity="0"
     inkscape:pageshadow="2"
     inkscape:window-width="2560"
     inkscape:window-height="1377"
     id="namedview8382"
     showgrid="false"
     inkscape:zoom="15.3125"
     inkscape:cx="24"
     inkscape:cy="24"
     inkscape:window-x="-8"
     inkscape:window-y="-8"
     inkscape:window-maximized="1"
     inkscape:current-layer="svg8380" />
  <defs
     id="defs8258">
    <style
       id="style8209">.cls-1,.cls-12,.cls-13,.cls-14,.cls-16,.cls-17,.cls-18,.cls-19,.cls-4,.cls-5,.cls-6,.cls-7,.cls-8{fill:none;}.cls-2{fill:url(#radial-gradient);}.cls-3{fill:#729fcf;}.cls-12,.cls-4{stroke:#3465a4;}.cls-12,.cls-13,.cls-14,.cls-4{stroke-miterlimit:10;}.cls-4{stroke-width:0.4px;}.cls-14,.cls-5{stroke:#204a87;}.cls-16,.cls-17,.cls-18,.cls-19,.cls-5,.cls-6,.cls-7,.cls-8{stroke-linecap:round;stroke-linejoin:round;}.cls-5{stroke-width:1.4px;}.cls-6,.cls-7,.cls-8{stroke-width:0.6px;}.cls-6{stroke:url(#linear-gradient);}.cls-7{stroke:url(#linear-gradient-2);}.cls-8{stroke:url(#linear-gradient-3);}.cls-9{clip-path:url(#clip-path);}.cls-10{fill:#3465a4;}.cls-11{fill:url(#radial-gradient-2);}.cls-12{stroke-width:0.3px;}.cls-13{stroke:#c8daec;stroke-width:0.37px;}.cls-14{stroke-width:0.7px;}.cls-15{fill:#d3d7cf;}.cls-16,.cls-19{stroke:#555753;}.cls-16{stroke-width:0.4px;}.cls-17{stroke:#fff;stroke-width:0.46px;}.cls-18{stroke:#888a85;stroke-width:0.35px;}.cls-19{stroke-width:0.45px;}.cls-20{fill:#85acd6;}.cls-21{fill:url(#linear-gradient-4);}</style>
    <radialGradient
       id="radial-gradient"
       cx="-36.98"
       cy="95.11"
       r="19.76"
       gradientTransform="matrix(1.19,0,0,0.46,67.85,-12.2)"
       gradientUnits="userSpaceOnUse">
      <stop
         offset="0.03"
         stop-color="#2c2c2c"
         stop-opacity="0.5"
         id="stop8211" />
      <stop
         offset="0.68"
         stop-color="#2c2c2c"
         stop-opacity="0.1"
         id="stop8213" />
      <stop
         offset="0.93"
         stop-color="#2c2c2c"
         stop-opacity="0"
         id="stop8215" />
    </radialGradient>
    <linearGradient
       id="linear-gradient"
       x1="11.66"
       y1="33.93"
       x2="26.29"
       y2="33.93"
       gradientUnits="userSpaceOnUse">
      <stop
         offset="0.77"
         stop-color="#729fcf"
         id="stop8218" />
      <stop
         offset="1"
         stop-color="#729fcf"
         stop-opacity="0.1"
         id="stop8220" />
    </linearGradient>
    <linearGradient
       id="linear-gradient-2"
       x1="12.71"
       y1="33.03"
       x2="12.71"
       y2="27.87"
       gradientUnits="userSpaceOnUse">
      <stop
         offset="0.41"
         stop-color="#729fcf"
         id="stop8223" />
      <stop
         offset="0.48"
         stop-color="#729fcf"
         stop-opacity="0.97"
         id="stop8225" />
      <stop
         offset="0.57"
         stop-color="#729fcf"
         stop-opacity="0.89"
         id="stop8227" />
      <stop
         offset="0.67"
         stop-color="#729fcf"
         stop-opacity="0.76"
         id="stop8229" />
      <stop
         offset="0.78"
         stop-color="#729fcf"
         stop-opacity="0.57"
         id="stop8231" />
      <stop
         offset="0.9"
         stop-color="#729fcf"
         stop-opacity="0.34"
         id="stop8233" />
      <stop
         offset="1"
         stop-color="#729fcf"
         stop-opacity="0.1"
         id="stop8235" />
    </linearGradient>
    <linearGradient
       id="linear-gradient-3"
       x1="34.62"
       y1="34.67"
       x2="29.88"
       y2="34.67"
       gradientUnits="userSpaceOnUse">
      <stop
         offset="0"
         stop-color="#729fcf"
         id="stop8238" />
      <stop
         offset="1"
         stop-color="#729fcf"
         stop-opacity="0.1"
         id="stop8240" />
    </linearGradient>
    <clipPath
       id="clip-path">
      <circle
         class="cls-1"
         cx="23.87"
         cy="24.46"
         r="8.16"
         id="circle8243" />
    </clipPath>
    <radialGradient
       id="radial-gradient-2"
       cx="27.95"
       cy="21.48"
       r="15.65"
       gradientUnits="userSpaceOnUse">
      <stop
         offset="0"
         stop-color="#a2c0df"
         id="stop8246" />
      <stop
         offset="0.58"
         stop-color="#729fcf"
         id="stop8248" />
      <stop
         offset="1"
         stop-color="#3465a4"
         id="stop8250" />
    </radialGradient>
    <linearGradient
       id="linear-gradient-4"
       x1="23.85"
       y1="24.46"
       x2="18.6"
       y2="34.81"
       gradientUnits="userSpaceOnUse">
      <stop
         offset="0"
         stop-color="#00255d"
         stop-opacity="0"
         id="stop8253" />
      <stop
         offset="1"
         stop-color="#00255d"
         id="stop8255" />
    </linearGradient>
    <radialGradient
       inkscape:collect="always"
       xlink:href="#radial-gradient-2"
       id="radialGradient8947"
       gradientUnits="userSpaceOnUse"
       cx="27.95"
       cy="21.48"
       r="15.65" />
    <radialGradient
       inkscape:collect="always"
       xlink:href="#radial-gradient-2"
       id="radialGradient8949"
       gradientUnits="userSpaceOnUse"
       cx="27.95"
       cy="21.48"
       r="15.65" />
    <radialGradient
       inkscape:collect="always"
       xlink:href="#radial-gradient-2"
       id="radialGradient8951"
       gradientUnits="userSpaceOnUse"
       cx="27.95"
       cy="21.48"
       r="15.65" />
  </defs>
  <title
     id="title8260">18-Knitting</title>
  <g
     id="shadow"
     transform="matrix(1,0,0,1.2008275,0.84897959,-0.40128334)"
     style="stroke-width:0.912556">
    <ellipse
       class="cls-2"
       cx="24"
       cy="31.59"
       rx="22.530001"
       ry="8.7799997"
       id="ellipse8262"
       style="fill:url(#radial-gradient);stroke-width:0.912556" />
  </g>
  <g
     id="ART"
     transform="matrix(1.3969311,0,0,1.3957878,-8.1581001,-7.7059639)"
     style="stroke-width:0.716148">
    <circle
       class="cls-3"
       cx="23.870001"
       cy="24.459999"
       r="8.1599998"
       id="circle8265"
       style="stroke-width:0.716148" />
    <path
       class="cls-4"
       d="m 18.05,22.76 c 0,0 2.49,-5.05 10.52,-3.26"
       id="path8267" />
    <path
       class="cls-4"
       d="m 17.32,21.91 c 0,0 2.48,-5.05 10.51,-3.26"
       id="path8269" />
    <path
       class="cls-4"
       d="m 16.58,21.07 c 0,0 2.49,-5.07 10.52,-3.26"
       id="path8271" />
    <path
       class="cls-4"
       d="m 22.72,19.88 c 0,0 5.25,2 4.18,10.18"
       id="path8273" />
    <path
       class="cls-4"
       d="m 23.49,19.07 c 0,0 5.25,2 4.19,10.18"
       id="path8275" />
    <path
       class="cls-4"
       d="m 24.27,18.27 c 0,0 5.25,2 4.19,10.18"
       id="path8277" />
    <path
       class="cls-5"
       d="m 18.26,28.62 c -2.07,-0.94 -4.93,-1 -6.22,0.91 -1.48,2.21 0,4.54 3.65,5.33 3.65,0.79 7.72,-0.3 9.36,-0.74 1.64,-0.44 4.65,-1.06 6.19,1 0.66,0.9 2,1.26 2.72,0.46 a 1.35,1.35 0 0 0 -0.85,-2.3"
       id="path8279" />
    <path
       class="cls-6"
       d="m 12,32.73 a 5.88,5.88 0 0 0 3.73,2.13 c 3.61,0.79 7.72,-0.3 9.36,-0.74 0.28,-0.08 0.59,-0.16 0.94,-0.23"
       id="path8281"
       style="stroke:url(#linear-gradient)" />
    <path
       class="cls-7"
       d="M 13.94,28.17 A 3.41,3.41 0 0 0 12,29.53 2.72,2.72 0 0 0 11.92,32.73"
       id="path8283"
       style="stroke:url(#linear-gradient-2)" />
    <path
       class="cls-8"
       d="m 30.18,34.21 a 3.31,3.31 0 0 1 1.06,0.93 c 0.66,0.9 2,1.26 2.72,0.46 a 1.35,1.35 0 0 0 -0.85,-2.3"
       id="path8285"
       style="stroke:url(#linear-gradient-3)" />
    <g
       class="cls-9"
       clip-path="url(#clip-path)"
       id="g8327"
       style="stroke-width:0.716148">
      <path
         class="cls-3"
         d="M 32.3,24 C 24.52,26.69 21.48,21.95 21.48,21.95 l -1.27,1.85 c 0,0 3.05,4.73 10.82,2"
         id="path8287"
         style="stroke-width:0.716148" />
      <path
         class="cls-10"
         d="m 21,28.45 c 0.59,-2.61 3.64,-5.2 4.42,-5.5 0.78,-0.3 2.86,-3.07 4.27,-3.5 0,0 -4.94,0.29 -7.24,3.14 A 7.08,7.08 0 0 0 21,28.53"
         id="path8289"
         style="stroke-width:0.716148" />
      <path
         class="cls-4"
         d="M 32.3,24 C 24.52,26.69 21.48,21.95 21.48,21.95 l -1.27,1.85 c 0,0 3.05,4.73 10.82,2"
         id="path8291" />
      <path
         class="cls-4"
         d="m 20.85,22.83 c 0,0 3,4.74 10.81,2.05"
         id="path8293" />
      <path
         class="cls-11"
         d="m 16.16,28.86 a 7.8849239,7.8849239 0 0 0 8,-13.59 l 4.41,-0.52 a 10.67,10.67 0 0 1 -12.4,17.17"
         id="path8295"
         style="fill:url(#radialGradient8947);stroke-width:0.716148" />
      <path
         class="cls-10"
         d="m 29.68,19.46 a 5.4,5.4 0 0 0 -1.8,1.24 c -0.05,-0.24 -0.15,-0.65 -0.23,-0.93 a 14.39,14.39 0 0 1 2.03,-0.31 z"
         id="path8297"
         style="stroke-width:0.716148" />
      <path
         class="cls-12"
         d="M 16.16,31.16 A 10,10 0 0 0 27,14.47"
         id="path8299" />
      <path
         class="cls-12"
         d="m 16.16,30.39 a 9.28,9.28 0 0 0 9.9,-15.67"
         id="path8301" />
      <path
         class="cls-12"
         d="M 16.16,29.62 A 8.58,8.58 0 0 0 24.74,14.77"
         id="path8303" />
      <path
         class="cls-13"
         d="m 16.16,28.86 a 7.8849239,7.8849239 0 0 0 8,-13.59 l 4.41,-0.52 a 10.67,10.67 0 0 1 -12.4,17.17"
         id="path8305" />
      <path
         class="cls-11"
         d="m 20.62,16.07 a 7.22,7.22 0 1 0 13,5.19 l 3,0.77 A 10.37,10.37 0 1 1 18.11,14.76"
         id="path8307"
         style="fill:url(#radialGradient8949);stroke-width:0.716148" />
      <path
         class="cls-10"
         d="M 22.1,26.11 A 6.79,6.79 0 0 0 21,28.45 v 0.09 a 6.86,6.86 0 0 1 0.13,-3.42 3.83,3.83 0 0 0 0.97,0.99 z"
         id="path8309"
         style="stroke-width:0.716148" />
      <path
         class="cls-12"
         d="M 18.68,15.15 A 9.57,9.57 0 1 0 35.85,21.8"
         id="path8311" />
      <path
         class="cls-12"
         d="m 19.29,15.5 a 8.79,8.79 0 1 0 15.8,6.22"
         id="path8313" />
      <path
         class="cls-12"
         d="m 19.91,15.85 a 8,8 0 1 0 14.43,5.69"
         id="path8315" />
      <path
         class="cls-13"
         d="m 20.62,16.07 a 7.22,7.22 0 1 0 13,5.19 l 3,0.77 A 10.37,10.37 0 1 1 18.11,14.76"
         id="path8317" />
      <path
         class="cls-11"
         d="M 13.13,23.08 A 11.67,11.67 0 0 0 35.57,22.5 L 32.81,21.72 A 8.8,8.8 0 0 1 15.47,19.87"
         id="path8319"
         style="fill:url(#radialGradient8951);stroke-width:0.716148" />
      <path
         class="cls-12"
         d="M 14.58,20.76 A 9.75,9.75 0 0 0 33.72,22"
         id="path8321" />
      <path
         class="cls-12"
         d="m 13.77,21.72 a 10.71,10.71 0 0 0 20.87,0.57"
         id="path8323" />
      <path
         class="cls-13"
         d="M 13.13,23.08 A 11.67,11.67 0 0 0 35.57,22.5 L 32.81,21.72 A 8.8,8.8 0 0 1 15.47,19.87"
         id="path8325" />
    </g>
    <circle
       class="cls-14"
       cx="23.870001"
       cy="24.459999"
       r="8.1599998"
       id="circle8329" />
    <circle
       class="cls-15"
       cx="19.049999"
       cy="7.21"
       r="1.29"
       id="circle8331"
       style="stroke-width:0.716148" />
    <circle
       class="cls-16"
       cx="19.049999"
       cy="7.21"
       r="1.29"
       id="circle8333" />
    <path
       class="cls-17"
       d="m 19.68,7.1 a 0.36,0.36 0 0 0 0,-0.11 0.65,0.65 0 0 0 -0.83,-0.39 0.64,0.64 0 0 0 -0.42,0.52"
       id="path8335" />
    <path
       class="cls-15"
       d="m 20.12,7.92 9.75,26.79 a 13,13 0 0 1 0.42,3.4 12.94,12.94 0 0 1 -1.86,-2.87 L 18.68,8.45 a 1.58,1.58 0 0 1 0.67,-0.39 1.6,1.6 0 0 1 0.77,-0.14 z"
       id="path8337"
       style="stroke-width:0.716148" />
    <path
       class="cls-17"
       d="m 19.59,8.12 9.75,26.79 c 0.26,0.71 0.83,2.87 0.83,2.87"
       id="path8339" />
    <path
       class="cls-18"
       d="m 19,8.34 a 0.71,0.71 0 0 1 0.38,-0.28 0.68,0.68 0 0 1 0.48,0"
       id="path8341" />
    <path
       class="cls-19"
       d="m 20.12,7.92 9.75,26.79 a 13,13 0 0 1 0.42,3.4 12.94,12.94 0 0 1 -1.86,-2.87 L 18.68,8.45"
       id="path8343" />
    <circle
       class="cls-15"
       cx="12.31"
       cy="11.68"
       r="1.29"
       id="circle8345"
       style="stroke-width:0.716148" />
    <circle
       class="cls-16"
       cx="12.31"
       cy="11.68"
       r="1.29"
       id="circle8347" />
    <path
       class="cls-17"
       d="m 12.81,11.26 -0.08,-0.07 a 0.65,0.65 0 0 0 -1,0.74"
       id="path8349" />
    <path
       class="cls-15"
       d="m 13.6,11.76 21.84,18.33 a 13.05,13.05 0 0 1 2.06,2.73 13,13 0 0 1 -3,-1.56 L 12.61,12.94 a 1.71,1.71 0 0 1 0.39,-0.68 1.59,1.59 0 0 1 0.6,-0.5 z"
       id="path8351"
       style="stroke-width:0.716148" />
    <path
       class="cls-17"
       d="m 13.23,12.2 21.84,18.33 c 0.58,0.48 2.16,2.06 2.16,2.06"
       id="path8353" />
    <path
       class="cls-18"
       d="M 12.81,12.7 A 0.72,0.72 0 0 1 13,12.26 0.7,0.7 0 0 1 13.4,12"
       id="path8355" />
    <path
       class="cls-19"
       d="m 13.6,11.76 21.84,18.33 a 13.05,13.05 0 0 1 2.06,2.73 13,13 0 0 1 -3,-1.56 L 12.61,12.94"
       id="path8357" />
    <g
       class="cls-9"
       clip-path="url(#clip-path)"
       id="g8371"
       style="stroke-width:0.716148">
      <path
         class="cls-20"
         d="m 22.28,33.71 a 9.61,9.61 0 0 1 8.37,-14.31 9.09,9.09 0 0 1 1.39,0.11 l -0.62,-2.8 A 10.77,10.77 0 0 0 29,16.43 a 11,11 0 0 0 -11,11 10.85,10.85 0 0 0 1.79,6"
         id="path8359"
         style="stroke-width:0.716148" />
      <path
         class="cls-21"
         d="m 22.28,33.71 a 9.61,9.61 0 0 1 8.37,-14.31 9.09,9.09 0 0 1 1.39,0.11 l -0.62,-2.8 A 10.77,10.77 0 0 0 29,16.43 a 11,11 0 0 0 -11,11 10.85,10.85 0 0 0 1.79,6"
         id="path8361"
         style="fill:url(#linear-gradient-4);stroke-width:0.716148" />
      <path
         class="cls-13"
         d="M 31.42,16.71 A 10.77,10.77 0 0 0 29,16.43 a 11,11 0 0 0 -11,11 10.85,10.85 0 0 0 1.79,6"
         id="path8363" />
      <path
         class="cls-12"
         d="m 31.49,17.61 a 10.37,10.37 0 0 0 -1.94,-0.19 10.51,10.51 0 0 0 -9,16"
         id="path8365" />
      <path
         class="cls-12"
         d="M 31.78,18.56 A 10.39,10.39 0 0 0 30.1,18.41 10.07,10.07 0 0 0 21.43,33.58"
         id="path8367" />
      <path
         class="cls-13"
         d="M 32,19.51 A 9.09,9.09 0 0 0 30.61,19.4 9.61,9.61 0 0 0 22.24,33.71"
         id="path8369" />
    </g>
    <path
       class="cls-14"
       d="m 31,20.56 a 8.15,8.15 0 0 0 -5.05,-4"
       id="path8373" />
    <path
       class="cls-14"
       d="m 17.71,29.81 a 8.11,8.11 0 0 0 6.16,2.82"
       id="path8375" />
    <path
       class="cls-14"
       d="M 32,24.46 A 8.17,8.17 0 0 0 23.83,16.3"
       id="path8377" />
  </g>
</svg>
