<?xml version="1.0" encoding="UTF-8" standalone="no"?>
<!-- Created with Inkscape (http://www.inkscape.org/) -->

<svg
   xmlns:dc="http://purl.org/dc/elements/1.1/"
   xmlns:cc="http://creativecommons.org/ns#"
   xmlns:rdf="http://www.w3.org/1999/02/22-rdf-syntax-ns#"
   xmlns:svg="http://www.w3.org/2000/svg"
   xmlns="http://www.w3.org/2000/svg"
   xmlns:xlink="http://www.w3.org/1999/xlink"
   xmlns:sodipodi="http://sodipodi.sourceforge.net/DTD/sodipodi-0.dtd"
   xmlns:inkscape="http://www.inkscape.org/namespaces/inkscape"
   width="48px"
   height="48px"
   id="svg22131"
   version="1.1"
   inkscape:version="0.48.5 r10040"
   sodipodi:docname="karma.svg">
  <defs
     id="defs22133">
    <linearGradient
       inkscape:collect="always"
       id="linearGradient4234">
      <stop
         style="stop-color:#fcaf3e;stop-opacity:1;"
         offset="0"
         id="stop4236" />
      <stop
         style="stop-color:#fcaf3e;stop-opacity:0;"
         offset="1"
         id="stop4238" />
    </linearGradient>
    <linearGradient
       id="linearGradient23109">
      <stop
         id="stop23111"
         offset="0"
         style="stop-color:#feb2f4;stop-opacity:1;" />
      <stop
         id="stop23113"
         offset="1"
         style="stop-color:#c7f683;stop-opacity:1;" />
    </linearGradient>
    <linearGradient
       inkscape:collect="always"
       id="linearGradient22942">
      <stop
         style="stop-color:#6eb4ff;stop-opacity:1;"
         offset="0"
         id="stop22944" />
      <stop
         style="stop-color:#6eb4ff;stop-opacity:0;"
         offset="1"
         id="stop22946" />
    </linearGradient>
    <linearGradient
       id="linearGradient22890">
      <stop
         style="stop-color:#ff7ab4;stop-opacity:1;"
         offset="0"
         id="stop22892" />
      <stop
         style="stop-color:#f6e7dd;stop-opacity:1"
         offset="1"
         id="stop22894" />
    </linearGradient>
    <linearGradient
       inkscape:collect="always"
       id="linearGradient22882">
      <stop
         style="stop-color:#fce94f;stop-opacity:1;"
         offset="0"
         id="stop22884" />
      <stop
         style="stop-color:#fce94f;stop-opacity:0;"
         offset="1"
         id="stop22886" />
    </linearGradient>
    <linearGradient
       id="linearGradient22840">
      <stop
         style="stop-color:#ffe719;stop-opacity:1;"
         offset="0"
         id="stop22842" />
      <stop
         style="stop-color:#a59400;stop-opacity:1;"
         offset="1"
         id="stop22844" />
    </linearGradient>
    <linearGradient
       id="linearGradient22808">
      <stop
         style="stop-color:#feb2f4;stop-opacity:1;"
         offset="0"
         id="stop22810" />
      <stop
         style="stop-color:#edebd7;stop-opacity:1"
         offset="1"
         id="stop22812" />
    </linearGradient>
    <linearGradient
       inkscape:collect="always"
       xlink:href="#linearGradient22808"
       id="linearGradient22814"
       x1="5.1236429"
       y1="12.488361"
       x2="19.931578"
       y2="28.55979"
       gradientUnits="userSpaceOnUse" />
    <linearGradient
       inkscape:collect="always"
       xlink:href="#linearGradient22808"
       id="linearGradient22822"
       x1="19.976028"
       y1="6.4655938"
       x2="23.176874"
       y2="29.322737"
       gradientUnits="userSpaceOnUse" />
    <linearGradient
       inkscape:collect="always"
       xlink:href="#linearGradient22808"
       id="linearGradient22830"
       x1="13.253411"
       y1="15.092736"
       x2="20.55555"
       y2="27.592735"
       gradientUnits="userSpaceOnUse" />
    <linearGradient
       inkscape:collect="always"
       xlink:href="#linearGradient22808"
       id="linearGradient22838"
       x1="32.02552"
       y1="9.7746029"
       x2="22.845455"
       y2="29.631746"
       gradientUnits="userSpaceOnUse" />
    <radialGradient
       inkscape:collect="always"
       xlink:href="#linearGradient22840"
       id="radialGradient22846"
       cx="23.003448"
       cy="23.792439"
       fx="23.003448"
       fy="23.792439"
       r="4.6458142"
       gradientTransform="matrix(1.3019206,-0.02035092,0.02001923,1.2807026,-6.518357,-7.8830935)"
       gradientUnits="userSpaceOnUse" />
    <linearGradient
       inkscape:collect="always"
       xlink:href="#linearGradient22808"
       id="linearGradient22854"
       x1="42.051273"
       y1="12.95116"
       x2="28.204411"
       y2="26.95116"
       gradientUnits="userSpaceOnUse" />
    <linearGradient
       inkscape:collect="always"
       xlink:href="#linearGradient22808"
       id="linearGradient22862"
       x1="50.324207"
       y1="-6.3714862"
       x2="24.052116"
       y2="31.02137"
       gradientUnits="userSpaceOnUse" />
    <linearGradient
       inkscape:collect="always"
       xlink:href="#linearGradient23109"
       id="linearGradient22870"
       x1="50.195099"
       y1="32.230434"
       x2="27.64003"
       y2="31.730434"
       gradientUnits="userSpaceOnUse" />
    <linearGradient
       inkscape:collect="always"
       xlink:href="#linearGradient22808"
       id="linearGradient22878"
       x1="0.4876861"
       y1="26.748678"
       x2="16.257425"
       y2="31.10582"
       gradientUnits="userSpaceOnUse" />
    <radialGradient
       inkscape:collect="always"
       xlink:href="#linearGradient22882"
       id="radialGradient22888"
       cx="23.410715"
       cy="25.75"
       fx="23.410715"
       fy="25.75"
       r="12.196428"
       gradientTransform="matrix(1,0,0,0.67642754,0,8.3319908)"
       gradientUnits="userSpaceOnUse" />
    <linearGradient
       inkscape:collect="always"
       xlink:href="#linearGradient22890"
       id="linearGradient22896"
       x1="38.314926"
       y1="18.471701"
       x2="32.272079"
       y2="30.328844"
       gradientUnits="userSpaceOnUse" />
    <linearGradient
       inkscape:collect="always"
       xlink:href="#linearGradient22890"
       id="linearGradient22904"
       x1="35.622501"
       y1="18.967598"
       x2="35.925549"
       y2="17.074741"
       gradientUnits="userSpaceOnUse" />
    <radialGradient
       inkscape:collect="always"
       xlink:href="#linearGradient22890"
       id="radialGradient22914"
       cx="32.571266"
       cy="27.979456"
       fx="32.571266"
       fy="27.979456"
       r="8.0385647"
       gradientTransform="matrix(-0.18557719,-0.78745222,1.2251398,-0.28872608,3.6584322,64.257351)"
       gradientUnits="userSpaceOnUse" />
    <radialGradient
       inkscape:collect="always"
       xlink:href="#linearGradient22890"
       id="radialGradient22922"
       cx="14.866647"
       cy="24.175568"
       fx="14.866647"
       fy="24.175568"
       r="6.3964415"
       gradientTransform="matrix(1.0224086,1.0333341,-0.71583008,0.70826153,16.972459,-7.5814159)"
       gradientUnits="userSpaceOnUse" />
    <linearGradient
       inkscape:collect="always"
       xlink:href="#linearGradient22890"
       id="linearGradient22930"
       x1="10.936594"
       y1="11.129031"
       x2="14.35037"
       y2="27.45046"
       gradientUnits="userSpaceOnUse" />
    <linearGradient
       inkscape:collect="always"
       xlink:href="#linearGradient22890"
       id="linearGradient22938"
       x1="5.4551134"
       y1="35.03162"
       x2="8.0462799"
       y2="29.531618"
       gradientUnits="userSpaceOnUse" />
    <radialGradient
       inkscape:collect="always"
       xlink:href="#linearGradient22942"
       id="radialGradient22948"
       cx="23.214285"
       cy="24.928572"
       fx="23.214285"
       fy="24.928572"
       r="21.357143"
       gradientUnits="userSpaceOnUse" />
    <linearGradient
       inkscape:collect="always"
       xlink:href="#linearGradient23109"
       id="linearGradient22878-5"
       x1="13.5234"
       y1="55.820107"
       x2="20.900282"
       y2="33.85582"
       gradientUnits="userSpaceOnUse"
       gradientTransform="matrix(1,0,0,0.57607165,0,13.753783)" />
    <linearGradient
       inkscape:collect="always"
       xlink:href="#linearGradient23109"
       id="linearGradient22878-4"
       x1="-3.8337424"
       y1="35.320107"
       x2="18.507425"
       y2="33.42725"
       gradientUnits="userSpaceOnUse" />
    <linearGradient
       id="linearGradient22808-9">
      <stop
         style="stop-color:#fc18de;stop-opacity:1;"
         offset="0"
         id="stop22810-9" />
      <stop
         style="stop-color:#edebd7;stop-opacity:1"
         offset="1"
         id="stop22812-0" />
    </linearGradient>
    <linearGradient
       inkscape:collect="always"
       xlink:href="#linearGradient4234"
       id="linearGradient4240"
       x1="24.349375"
       y1="27.2638"
       x2="24.331196"
       y2="28.83523"
       gradientUnits="userSpaceOnUse" />
  </defs>
  <sodipodi:namedview
     id="base"
     pagecolor="#ffffff"
     bordercolor="#666666"
     borderopacity="1.0"
     inkscape:pageopacity="0.0"
     inkscape:pageshadow="2"
     inkscape:zoom="19.79899"
     inkscape:cx="17.440337"
     inkscape:cy="23.309154"
     inkscape:current-layer="layer1"
     showgrid="true"
     inkscape:grid-bbox="true"
     inkscape:document-units="px"
     inkscape:window-width="2880"
     inkscape:window-height="1557"
     inkscape:window-x="-8"
     inkscape:window-y="-8"
     inkscape:window-maximized="1" />
  <metadata
     id="metadata22136">
    <rdf:RDF>
      <cc:Work
         rdf:about="">
        <dc:format>image/svg+xml</dc:format>
        <dc:type
           rdf:resource="http://purl.org/dc/dcmitype/StillImage" />
        <dc:title></dc:title>
      </cc:Work>
    </rdf:RDF>
  </metadata>
  <g
     id="layer1"
     inkscape:label="Layer 1"
     inkscape:groupmode="layer">
    <path
       sodipodi:type="arc"
       style="color:#000000;fill:url(#radialGradient22948);fill-opacity:1;fill-rule:nonzero;stroke:none;stroke-width:0.5;marker:none;visibility:visible;display:inline;overflow:visible;enable-background:accumulate"
       id="path22940"
       sodipodi:cx="23.214285"
       sodipodi:cy="24.928572"
       sodipodi:rx="21.357143"
       sodipodi:ry="21.357143"
       d="m 44.571428,24.928572 a 21.357143,21.357143 0 1 1 -42.7142865,0 21.357143,21.357143 0 1 1 42.7142865,0 z"
       transform="matrix(1.0735786,0,0,0.74603918,-0.88051825,13.287319)" />
    <path
       style="color:#000000;fill:url(#linearGradient22878-4);fill-opacity:1;fill-rule:nonzero;stroke:#4e9a06;stroke-width:0.50000000000000000;stroke-linecap:butt;stroke-linejoin:bevel;stroke-miterlimit:4;stroke-opacity:1;stroke-dasharray:none;stroke-dashoffset:0;marker:none;visibility:visible;display:inline;overflow:visible;enable-background:accumulate"
       d="M 6.9285714,32.928571 C 6.8586866,33.452381 6.8931414,33.97619 6.4642857,34.5 7.0123693,34.71051 8.7827749,36.735653 11,36.5 c 2.217225,-0.235653 3.721867,-0.56977 5.5,-1.392857 l 5.607143,-2.75 -9.785714,-0.5 z"
       id="path23091"
       inkscape:connector-curvature="0"
       sodipodi:nodetypes="cczcccc" />
    <path
       style="color:#000000;fill:url(#linearGradient22878-5);fill-opacity:1;fill-rule:nonzero;stroke:#4e9a06;stroke-width:0.50000000000000000;stroke-linecap:butt;stroke-linejoin:bevel;stroke-miterlimit:4;stroke-opacity:1;stroke-dasharray:none;stroke-dashoffset:0;marker:none;visibility:visible;display:inline;overflow:visible;enable-background:accumulate"
       d="m 19.02632,33.181337 c 0,0 -0.739976,0.804066 -1.438199,1.273317 -0.698224,0.469252 -2.474896,0.854639 -3.689858,2.348558 -1.214962,1.493918 0.296376,3.508748 1.558944,4.347721 0.197143,0.131 0.45892,0.373465 0.479744,0.418578 0.197215,-0.05046 1.01116,0.06324 1.313668,0.08281 0.401417,0.02596 1.291583,0.01694 1.949046,-0.08459 3.724985,-0.575259 4.870256,-1.952687 5.460313,-3.070089 0.590056,-1.117401 -0.224366,-2.962647 -0.392857,-3.955543 l -1.841734,-2.098443 z"
       id="path23050"
       inkscape:connector-curvature="0"
       sodipodi:nodetypes="czzscsszccc" />
    <path
       style="color:#000000;fill:url(#linearGradient22838);stroke:#9f6899;stroke-width:0.50000000000000000;stroke-linecap:butt;stroke-linejoin:miter;stroke-miterlimit:4;stroke-opacity:1;stroke-dasharray:none;stroke-dashoffset:0;marker:none;visibility:visible;display:inline;overflow:visible;enable-background:accumulate;fill-opacity:1"
       d="m 25.341431,12.189775 c 2.066451,-2.112106 4.045795,-2.6126986 6.00886,-2.8121338 0.262121,-0.026635 0.564668,-0.031601 0.801947,-0.1320466 0.134973,0.1597169 0.396236,0.3619445 0.514107,0.4427524 0.638304,0.437585 2.508198,2.654434 2.786255,4.689494 l -5.228327,11.078525 -7.163038,1.704387 z"
       id="path22711"
       inkscape:connector-curvature="0"
       sodipodi:nodetypes="cscscccc" />
    <path
       style="color:#000000;fill:url(#linearGradient22854);stroke:#9f6899;stroke-width:0.50000000000000000;stroke-linecap:butt;stroke-linejoin:miter;stroke-miterlimit:4;stroke-opacity:1;stroke-dasharray:none;stroke-dashoffset:0;marker:none;visibility:visible;display:inline;overflow:visible;enable-background:accumulate;fill-opacity:1"
       d="m 33.586986,16.266487 c 1.614207,-2.369516 5.404886,-3.719651 7.503941,-3.811786 0.668386,-0.02934 1.049546,0.267561 1.363485,0.287848 -0.0038,0.236312 -0.123293,0.530539 -0.09294,0.762401 0.421478,3.219045 -2.116495,8.884211 -4.191071,11.444706 l -4.399166,-3.616068 z"
       id="path22703"
       inkscape:connector-curvature="0"
       sodipodi:nodetypes="cscsccc" />
    <path
       style="color:#000000;fill:url(#linearGradient22830);stroke:#9f6899;stroke-width:0.50000000000000000;stroke-linecap:butt;stroke-linejoin:miter;stroke-miterlimit:4;stroke-opacity:1;stroke-dasharray:none;stroke-dashoffset:0;marker:none;visibility:visible;display:inline;overflow:visible;enable-background:accumulate;fill-opacity:1"
       d="m 12.673678,14.76939 c 0.849704,-0.06702 1.841788,0.427166 2.694777,0.575806 L 22.876978,29.026369 21.057426,29.993724 12.07484,15.69068 z"
       id="path22798"
       inkscape:connector-curvature="0"
       sodipodi:nodetypes="cccccc" />
    <path
       style="color:#000000;fill:url(#linearGradient22814);fill-opacity:1;stroke:#9f6899;stroke-width:0.50000000000000000;stroke-linecap:butt;stroke-linejoin:miter;stroke-miterlimit:4;stroke-opacity:1;stroke-dasharray:none;stroke-dashoffset:0;marker:none;visibility:visible;display:inline;overflow:visible;enable-background:accumulate"
       d="M 12.120904,27.045593 C 9.8686786,25.916954 7.6533281,22.978012 6.5831375,21.242138 5.5129481,19.506262 4.2799601,16.330147 4.4039296,13.894094 c 0.019699,-0.387106 0.00601,-0.988566 -0.039215,-1.073121 0.06059,-0.06113 0.5719891,-0.0091 0.5719891,-0.0091 -0.067403,-0.255436 -0.00657,-0.582704 0.2284537,-0.62212 l 0.69492,-0.0747 c 0.6476949,-0.141803 1.4275576,0.11384 2.1610827,0.305009 0.5713435,0.05499 1.6365079,0.596406 2.2801949,1.243744 l 2.763873,2.349291 c 2.370625,2.39446 4.366252,7.132658 6.518134,10.894267 z"
       id="path22766"
       inkscape:connector-curvature="0"
       sodipodi:nodetypes="czsccccccccc" />
    <path
       style="color:#000000;fill:url(#linearGradient22938);stroke:#9f6899;stroke-width:0.50000000000000000;stroke-linecap:butt;stroke-linejoin:bevel;stroke-miterlimit:4;stroke-opacity:1;stroke-dasharray:none;stroke-dashoffset:0;marker:none;visibility:visible;display:inline;overflow:visible;enable-background:accumulate;fill-opacity:1"
       d="m 0.16939926,26.770999 c 0.44243676,0.887495 0.94733644,1.083306 1.31918854,1.701916 0.6597796,0.48649 1.595675,1.65861 2.4449998,2.332365 1.2245144,0.971383 3.5012123,2.323518 5.1362625,2.724525 1.6350519,0.401006 5.6103199,0.609071 8.2978589,-0.374581 z"
       id="path22782"
       inkscape:connector-curvature="0"
       sodipodi:nodetypes="ccszcc" />
    <path
       style="color:#000000;fill:url(#linearGradient22878);stroke:#9f6899;stroke-width:0.50000000000000000;stroke-linecap:butt;stroke-linejoin:bevel;stroke-miterlimit:4;stroke-opacity:1;stroke-dasharray:none;stroke-dashoffset:0;marker:none;visibility:visible;display:inline;overflow:visible;enable-background:accumulate;fill-opacity:1"
       d="m 0.2019718,26.738426 0.33386865,-0.317583 c 0.0819506,-0.286289 0.33509209,-0.771206 0.74102575,-0.952747 0.2199363,-0.06764 0.4381576,-0.140434 0.70031,-0.08143 1.6132342,-0.365451 3.1934831,-0.146631 5.024318,0.472303 1.8308341,0.618935 3.8533708,1.54902 5.7246268,2.589518 l 4.674161,4.674162 C 14.971286,33.81188 11.056316,32.17581 9.3385739,31.396301 7.6208315,30.616793 4.9276729,29.611819 3.2695741,28.744725 2.125812,28.1466 1.3517353,27.390804 0.92551405,27.092861 0.71690587,26.877537 0.44315251,26.761933 0.2019718,26.738426 z"
       id="path22774"
       inkscape:connector-curvature="0"
       sodipodi:nodetypes="cccczcczscc" />
    <path
       style="color:#000000;fill:url(#linearGradient22870);fill-opacity:1;stroke:#4e9a06;stroke-width:0.50000000000000000;stroke-linecap:butt;stroke-linejoin:miter;stroke-miterlimit:4;stroke-opacity:1;stroke-dasharray:none;stroke-dashoffset:0;marker:none;visibility:visible;display:inline;overflow:visible;enable-background:accumulate"
       d="m 36.535116,27.345013 c 0,0 2.257607,-0.449421 4.974972,-0.345485 2.717366,0.103932 5.744447,2.804286 6.379941,5.274391 0,0 -0.863626,0.399796 -1.289807,0.760066 -0.426181,0.360269 -3.516713,3.221492 -7.2782,3.477872 -3.761485,0.256381 -7.324264,-0.921289 -7.324264,-0.921289 l -3.731229,-4.698585 z"
       id="path22687"
       inkscape:connector-curvature="0"
       sodipodi:nodetypes="czczzccc" />
    <path
       sodipodi:type="inkscape:offset"
       inkscape:radius="-0.43964994"
       inkscape:original="M 41.5 27 C 38.782635 26.896064 36.53125 27.34375 36.53125 27.34375 L 28.28125 30.90625 L 32 35.59375 C 32 35.59375 35.551015 36.756381 39.3125 36.5 C 43.073987 36.24362 46.167569 33.391519 46.59375 33.03125 C 47.019931 32.67098 47.875 32.28125 47.875 32.28125 C 47.239506 29.811145 44.217366 27.103932 41.5 27 z "
       style="color:#000000;fill:none;stroke:#c5fb92;stroke-width:0.5;stroke-linecap:butt;stroke-linejoin:miter;stroke-miterlimit:4;stroke-opacity:1;stroke-dasharray:none;stroke-dashoffset:0;marker:none;visibility:visible;display:inline;overflow:visible;enable-background:accumulate"
       id="path4244"
       d="m 41.46875,27.4375 c -2.570841,-0.09833 -4.609083,0.285247 -4.75,0.3125 L 36.625,27.78125 29,31.09375 l 3.28125,4.125 c 0.231365,0.07345 3.474681,1.084034 7,0.84375 1.778552,-0.121225 3.428228,-0.85779 4.6875,-1.625 1.259272,-0.76721 2.094366,-1.539185 2.34375,-1.75 0.375737,-0.317627 0.68781,-0.459845 0.96875,-0.59375 -0.353109,-1.026706 -1.078832,-2.137223 -2.09375,-3 -1.117587,-0.950055 -2.499529,-1.609618 -3.71875,-1.65625 z" />
    <path
       style="color:#000000;fill:url(#linearGradient22822);stroke:#9f6899;stroke-width:0.50000000000000000;stroke-linecap:butt;stroke-linejoin:miter;stroke-miterlimit:4;stroke-opacity:1;stroke-dasharray:none;stroke-dashoffset:0;marker:none;visibility:visible;display:inline;overflow:visible;enable-background:accumulate;fill-opacity:1.0"
       d="m 21.646633,29.158078 c 0,0 -6.292843,-9.702423 -6.265849,-13.559467 C 15.12299,9.5935666 19.139237,6.9115242 19.1592,5.2731104 l 0.651451,0.4234431 0.260581,-0.3257256 c 1.04536,0.3629897 5.565758,3.7673593 5.569909,9.2831791 0.0042,5.51582 -0.703201,14.718357 -0.703201,14.718357 z"
       id="path22150"
       inkscape:connector-curvature="0"
       sodipodi:nodetypes="ccccczcc" />
    <path
       sodipodi:type="inkscape:offset"
       inkscape:radius="-0.49084237"
       inkscape:original="M 19.15625 5.28125 C 19.136287 6.9196638 15.117206 9.5887056 15.375 15.59375 C 15.348006 19.450794 21.65625 29.15625 21.65625 29.15625 L 24.9375 29.375 C 24.9375 29.375 25.66045 20.17207 25.65625 14.65625 C 25.652099 9.1404302 21.10786 5.7379897 20.0625 5.375 L 19.8125 5.6875 L 19.15625 5.28125 z "
       style="color:#000000;fill:none;stroke:#f6e6f4;stroke-width:0.50000000000000000;stroke-linecap:butt;stroke-linejoin:miter;stroke-miterlimit:4;stroke-opacity:1;stroke-dasharray:none;stroke-dashoffset:0;marker:none;visibility:visible;display:inline;overflow:visible;enable-background:accumulate"
       id="path4248"
       d="M 19.46875,6.03125 C 19.336991,6.3523632 19.15897,6.6612492 18.9375,7 c -0.387572,0.5928138 -0.870068,1.2741847 -1.34375,2.0625 -0.947364,1.576631 -1.842825,3.609793 -1.71875,6.5 a 0.49089146,0.49089146 0 0 1 0,0.03125 c -0.0058,0.829034 0.360707,2.136931 0.9375,3.5625 0.576793,1.425569 1.343628,2.993366 2.125,4.4375 1.505439,2.782358 2.89127,4.925806 3,5.09375 l 2.53125,0.15625 c 0.06194,-0.802374 0.69147,-8.973883 0.6875,-14.1875 C 25.154276,12.033058 24.091534,9.8970124 22.875,8.375 22.266733,7.6139938 21.607862,7.0278851 21.0625,6.59375 20.640511,6.2578254 20.374113,6.1428851 20.15625,6.03125 a 0.49089146,0.49089146 0 0 1 -0.59375,0.0625 l -0.09375,-0.0625 z" />
    <path
       style="color:#000000;fill:url(#linearGradient22862);stroke:#9f6899;stroke-width:0.50000000000000000;stroke-linecap:butt;stroke-linejoin:miter;stroke-miterlimit:4;stroke-opacity:1;stroke-dasharray:none;stroke-dashoffset:0;marker:none;visibility:visible;display:inline;overflow:visible;enable-background:accumulate;fill-opacity:1"
       d="m 26.732319,23.546316 c 1.363377,-1.983834 2.392122,-4.110552 3.615555,-5.732772 1.134071,-1.4891 2.677944,-1.748793 4.462441,-1.286615 0.910023,0.463749 1.834614,0.891081 2.4918,1.986926 l -9.038885,12.344999 -3.491557,1.578832 -2.45686,-2.618901 c -0.135871,-0.329633 0.283472,-1.002221 0.590232,-1.419158 z"
       id="path22742"
       inkscape:connector-curvature="0"
       sodipodi:nodetypes="ccccccccc" />
    <path
       style="color:#000000;fill:url(#linearGradient22904);stroke:#9f6899;stroke-width:0.50000000000000000;stroke-linecap:butt;stroke-linejoin:miter;stroke-miterlimit:4;stroke-opacity:1;stroke-dasharray:none;stroke-dashoffset:0;marker:none;visibility:visible;display:inline;overflow:visible;enable-background:accumulate;fill-opacity:1"
       d="m 31.943929,16.559502 c 2.934707,-0.16829 3.871865,1.68963 2.93153,2.622091 0,0 -0.15581,0.12377 -0.13029,0.195434 0.02552,0.07166 0.211722,0.06514 0.211722,0.06514 0,0 -0.131985,0.104448 -0.105854,0.203577 0.02613,0.09913 0.211838,0.136983 0.390869,0.171007 0.179032,0.03403 0.627023,-0.03257 0.627023,-0.03257 l 1.449478,-1.254044 c -1.806531,-2.479119 -3.862061,-2.408791 -5.374478,-1.970646 z"
       id="path22750"
       inkscape:connector-curvature="0"
       sodipodi:nodetypes="cczczzccc" />
    <path
       style="color:#000000;fill:url(#linearGradient22930);stroke:#9f6899;stroke-width:0.50000000000000000;stroke-linecap:butt;stroke-linejoin:miter;stroke-miterlimit:4;stroke-opacity:1;stroke-dasharray:none;stroke-dashoffset:0;marker:none;visibility:visible;display:inline;overflow:visible;enable-background:accumulate;fill-opacity:1"
       d="m 10.531677,10.301128 c 0.500036,0.154452 0.822818,0.551397 1.036453,1.059484 0.213634,0.508088 1.208342,3.427176 1.780176,5.825656 0.571833,2.39848 0.890793,5.151429 1.144922,6.565709 l -2.118969,0.276387 c -0.947908,-1.375405 -1.838177,-2.895297 -2.173416,-6.091498 -0.3352406,-3.196203 0.41528,-5.960878 0.505551,-6.480851 0.09027,-0.519973 -0.174717,-1.154887 -0.174717,-1.154887 z"
       id="path22758"
       inkscape:connector-curvature="0"
       sodipodi:nodetypes="czzcczzc" />
    <path
       sodipodi:type="arc"
       style="color:#000000;fill:url(#radialGradient22888);fill-opacity:1;fill-rule:nonzero;stroke:none;stroke-width:0.5;marker:none;visibility:visible;display:inline;overflow:visible;enable-background:accumulate"
       id="path22880"
       sodipodi:cx="23.410715"
       sodipodi:cy="25.75"
       sodipodi:rx="12.196428"
       sodipodi:ry="8.25"
       d="m 35.607143,25.75 a 12.196428,8.25 0 1 1 -24.392856,0 12.196428,8.25 0 1 1 24.392856,0 z"
       transform="matrix(1,0,0,1.1714198,0.30304576,-6.4343656)" />
    <path
       inkscape:connector-curvature="0"
       id="path3836"
       d="m 17.490708,25.871759 -5.771182,-1.33089 5.962625,2.032333 -5.933463,-0.758235 5.782345,1.257912 -5.826159,0.005 6.360161,0.898191 -5.444111,0.436885 5.927462,0.309211 -4.752993,1.289445 5.561741,-0.717628 -3.674666,2.051865 4.286808,-1.659494 -2.607499,2.887267 3.460898,-2.607356 -1.821078,3.605035 2.640986,-3.106198 -0.917028,4.042061 2.034009,-4.020571 0.380233,4.837971 0.703259,-4.597552 1.037025,4.938435 -0.01535,-4.782156 1.598517,5.173695 -0.532187,-5.309321 2.956753,5.082715 -2.44075,-5.526578 4.852481,3.430897 -3.944106,-4.486901 5.615739,3.323594 -4.521921,-4.127178 5.705041,2.739779 -4.880804,-3.733968 5.485274,1.735263 -4.582065,-2.269265 4.765832,0.579631 -4.154526,-1.158284 4.428435,-0.144138 -4.389783,-0.596795 3.32178,-1.209629 -4.388947,0.374232 -12.579532,-1.252055 -2.746475,-2.063171 2.342937,2.748289 -4.357129,-1.786751 z"
       style="fill:#fce94f;fill-opacity:1;stroke:none" />
    <path
       inkscape:connector-curvature="0"
       id="path3865"
       d="m 18.66168,21.323034 c -0.466972,-1.667366 -2.199761,-2.322078 -3.544794,-3.286995 1.492504,0.569787 3.128113,0.767501 4.173776,2.499074 0.104053,-1.513226 -1.18465,-2.64661 -2.046398,-3.896436 1.873886,1.388752 2.782165,3.034999 3.23172,4.803573 -0.205379,-1.783184 -0.325837,-3.575804 -1.358719,-5.267043 1.416628,1.494887 1.684052,3.303193 2.093941,5.072645 -0.707331,-1.870443 -1.113103,-3.810477 -0.589959,-5.964876 0.134207,1.91725 0.704512,3.616451 1.406243,5.24994 -0.414943,-1.849713 -0.798653,-3.709836 -0.09515,-5.932364 -0.0837,1.991479 0.322326,3.787067 1.19099,5.3976 0.578406,-2.014308 0.324708,-4.132629 0.170422,-6.238523 0.877295,2.185263 1.357852,4.349644 0.439009,6.440373 l -1.719216,2.233207 z"
       style="fill:#fcaf3e;stroke:none"
       sodipodi:nodetypes="ccccccccccccccc" />
    <path
       style="fill:#b09000;fill-opacity:1;stroke:none"
       d="m 19.305483,25.03699 -4.407439,-1.016398 4.553643,1.552088 -4.531372,-0.579062 4.415964,0.960664 -4.449424,0.0038 4.85724,0.685946 -4.157655,0.333648 4.526789,0.236144 -3.62985,0.984746 4.247489,-0.548051 -2.806334,1.567005 3.273825,-1.267352 -1.991341,2.204999 2.64308,-1.991232 -1.390753,2.753157 2.016915,-2.372196 -0.700332,3.086913 1.553368,-3.070501 0.290383,3.694747 0.537077,-3.51114 0.791974,3.771472 -0.01172,-3.652122 1.220784,3.951139 -0.40643,-4.054716 2.258065,3.881658 -1.863995,-4.220635 3.705829,2.620168 -3.012105,-3.426636 4.288727,2.538221 -3.453381,-3.151916 4.356927,2.092363 -3.727459,-2.851623 4.189091,1.325216 -3.499312,-1.733032 3.639655,0.442663 -3.172802,-0.884579 3.381985,-0.110078 -3.352467,-0.455771 2.536836,-0.923791 -3.351829,0.2858 -9.606959,-0.956191 -2.097477,-1.575639 1.789296,2.098862 -3.32753,-1.364538 z"
       id="path3834"
       inkscape:connector-curvature="0" />
    <path
       style="fill:#fcaf3e;stroke:none"
       d="m 29.795185,20.918973 3.544794,-3.286995 -4.173776,2.499074 c 2.326494,-1.074581 1.605132,-2.564779 2.046398,-3.896436 -0.618133,1.929125 -1.973825,3.331421 -3.23172,4.803573 -0.699347,-1.883709 0.399601,-3.567608 1.358719,-5.267043 -1.41457,1.658309 -2.733334,3.320974 -2.093941,5.072645 -0.405701,-1.988292 -0.04654,-3.976584 0.589959,-5.964876 -0.908086,1.691402 -1.885427,3.373569 -1.406243,5.24994 -0.776622,-1.977455 -0.551193,-3.954909 0.09515,-5.932364 -0.883633,1.766758 -1.707309,3.537512 -1.19099,5.3976 -0.555641,-2.008246 -0.230382,-4.142334 -0.170422,-6.238523 -0.417113,2.169356 -1.104885,4.361266 -0.439009,6.440373 l 1.719216,2.233207 z"
       id="path3867"
       inkscape:connector-curvature="0"
       sodipodi:nodetypes="ccccccccccccccc" />
    <path
       style="color:#000000;fill:url(#radialGradient22846);fill-opacity:1;stroke:none;stroke-width:0.12898076;marker:none;visibility:visible;display:inline;overflow:visible;enable-background:accumulate"
       d="m 22.027864,28.987762 c -0.712133,-2.421632 -3.871877,-4.846539 -3.937018,-6.915021 -0.06514,-2.068481 3.271526,-3.421419 5.90553,-3.482748 2.634005,-0.06132 6.206289,1.32668 6.191928,3.465174 -0.01441,2.138497 -3.703067,4.3549 -3.81962,6.781174 -1.016473,1.049891 -3.285212,1.067876 -4.34082,0.151427 z"
       id="path22660"
       inkscape:connector-curvature="0"
       sodipodi:nodetypes="czzzcc" />
    <path
       sodipodi:type="arc"
       style="color:#000000;fill:#fce94f;fill-opacity:1;fill-rule:nonzero;stroke:none;stroke-width:0.05;marker:none;visibility:visible;display:inline;overflow:visible;enable-background:accumulate"
       id="path22806"
       sodipodi:cx="22.892582"
       sodipodi:cy="22.771441"
       sodipodi:rx="3.6744299"
       sodipodi:ry="1.7930207"
       d="m 26.567012,22.771441 a 3.6744299,1.7930207 0 1 1 -7.34886,0 3.6744299,1.7930207 0 1 1 7.34886,0 z"
       transform="matrix(1.4857044,0,0,1.5496056,-9.8553282,-13.265187)" />
    <path
       style="color:#000000;fill:url(#linearGradient22896);stroke:#9f6899;stroke-width:0.50000000000000000;stroke-linecap:butt;stroke-linejoin:miter;stroke-miterlimit:4;stroke-opacity:1;stroke-dasharray:none;stroke-dashoffset:0;marker:none;visibility:visible;display:inline;overflow:visible;enable-background:accumulate;fill-opacity:1"
       d="m 28.243497,30.961079 c 0.874397,-1.562251 1.635951,-3.632292 2.62568,-4.675551 0.764378,-1.538849 1.62262,-2.983835 2.994196,-3.915487 1.683987,-2.212348 3.269466,-5.048582 5.481682,-3.915488 0.439756,-0.447969 0.757782,0.08538 0.529742,0.783098 0.0066,1.653071 -0.780191,3.716182 -1.911679,6.034457 -1.131488,2.318274 -4.540488,5.021036 -6.587232,5.57381 z"
       id="path22695"
       inkscape:connector-curvature="0"
       sodipodi:nodetypes="ccccczcc" />
    <path
       style="color:#000000;fill:url(#radialGradient22922);stroke:#9f6899;stroke-width:0.50000000000000000;stroke-linecap:butt;stroke-linejoin:miter;stroke-miterlimit:4;stroke-opacity:1;stroke-dasharray:none;stroke-dashoffset:0;marker:none;visibility:visible;display:inline;overflow:visible;enable-background:accumulate;fill-opacity:1"
       d="m 12.644688,28.399627 c -0.752143,-1.871299 -1.070496,-3.506368 -0.309438,-4.348437 0.761057,-0.84207 2.200237,-0.844985 2.638377,0.43973 0.483457,0.09547 1.292566,0.253856 1.598444,0.498218 0.106448,0.08504 1.156605,0.232008 2.023737,0.832931 0.392537,0.272028 1.723958,1.537229 1.973689,1.753855 0.175979,0.15265 3.462472,2.327877 3.622163,4.064671 l -3.029247,1.986927 -0.43973,-0.146576 -1.319188,0.04886 -0.488588,-0.09772 -0.74917,-0.195435 -0.846885,-0.06514 c -2.131367,-0.894712 -3.92202,-2.900582 -4.674164,-4.771879 z"
       id="path22790"
       inkscape:connector-curvature="0"
       sodipodi:nodetypes="zzcssscccccccz" />
    <path
       style="color:#000000;fill:url(#radialGradient22914);fill-opacity:1;stroke:#9f6899;stroke-width:0.5;stroke-linecap:butt;stroke-linejoin:miter;stroke-miterlimit:4;stroke-opacity:1;stroke-dasharray:none;stroke-dashoffset:0;marker:none;visibility:visible;display:inline;overflow:visible;enable-background:accumulate"
       d="m 20.5327,32.89695 c 0.145877,-0.915585 1.394556,-1.682834 2.582772,-1.933299 1.464083,-0.144526 2.903762,-0.435467 4.337402,-0.762659 1.379729,-0.09302 4.130666,-0.05657 4.280836,-0.04408 0.150167,0.01251 0.33177,0.222866 0.427394,0.36225 0.644687,-0.371826 1.433497,-0.386311 2.149789,-0.684024 0.456016,-0.02114 1.013362,0.0039 1.368047,0.06514 0.354685,0.06125 0.63916,0.133167 0.228007,0.61888 -0.411153,0.485711 -1.495873,2.33603 -2.31265,2.573232 0,0 -1.18445,1.044256 -2.117217,1.628628 -0.748509,0.688016 -2.704383,1.658754 -3.517837,1.758918 -0.514033,0.100165 -1.100808,-0.0017 -1.784037,-0.186459 -0.894614,-0.241932 -1.560499,-0.809616 -1.733798,-0.888435 -0.1733,-0.07882 -1.596142,-0.492027 -2.270254,-0.942741 -0.674113,-0.450713 -1.101309,-1.117653 -1.638454,-1.565353 z"
       id="path22679"
       inkscape:connector-curvature="0"
       sodipodi:nodetypes="ccczcczzcccszzc" />
    <path
       style="fill:url(#linearGradient4240);stroke:none;fill-opacity:1"
       d="m 22.459113,28.378574 c -0.760886,-2.290531 -1.691484,-4.564091 -3.395454,-6.760313 l 3.161239,3.971121 c 0.678158,-1.464217 -0.226008,-2.928434 -0.394639,-4.392651 0.817323,1.870749 1.685903,3.737836 1.207021,5.701171 0.06224,-1.750612 0.266808,-3.524945 0.897112,-5.370234 -0.277442,1.872161 -0.358466,3.711585 -0.06577,5.488723 1.140518,-1.693822 1.467498,-3.736303 1.980287,-5.699151 -0.192417,1.803825 -0.04489,3.656214 -0.841413,5.373739 1.152232,-1.691611 1.773242,-3.59571 2.469138,-5.469855 l -1.124057,5.422133 c 0.332916,-2.4514 2.407421,-3.393425 4.085763,-4.678789 -1.65958,1.723006 -3.413144,3.28154 -4.33937,6.287916 -1.25171,0.733984 -2.475517,0.939482 -3.639857,0.12619 z"
       id="path3838"
       inkscape:connector-curvature="0"
       sodipodi:nodetypes="cccccccccccccc" />
    <path
       style="fill:none;stroke:#ffffdf;stroke-width:1px;stroke-linecap:round;stroke-linejoin:miter;stroke-opacity:1"
       d="m 27.736623,13.924625 c -0.889783,0.08835 -1.296864,0.549307 -1.473526,1.188119"
       id="path4186"
       inkscape:connector-curvature="0"
       sodipodi:nodetypes="cc" />
    <path
       sodipodi:nodetypes="cc"
       inkscape:connector-curvature="0"
       id="path4188"
       d="m 28.72135,15.419283 c -0.891596,-0.06766 -1.372607,0.315509 -1.657626,0.913886"
       style="fill:none;stroke:#ffffdf;stroke-width:1px;stroke-linecap:round;stroke-linejoin:miter;stroke-opacity:1" />
    <path
       style="fill:none;stroke:#ffffdf;stroke-width:1px;stroke-linecap:round;stroke-linejoin:miter;stroke-opacity:1"
       d="m 30.242253,16.435632 c -0.872762,-0.194441 -1.403615,0.116024 -1.771256,0.667504"
       id="path4190"
       inkscape:connector-curvature="0"
       sodipodi:nodetypes="cc" />
    <path
       sodipodi:nodetypes="cc"
       inkscape:connector-curvature="0"
       id="path4192"
       d="m 31.411393,15.555647 c 0.319289,0.835209 0.08932,1.405566 -0.402836,1.849494"
       style="fill:none;stroke:#ffffdf;stroke-width:1px;stroke-linecap:round;stroke-linejoin:miter;stroke-opacity:1" />
    <path
       style="fill:none;stroke:#ffffdf;stroke-width:1px;stroke-linecap:round;stroke-linejoin:miter;stroke-opacity:1"
       d="m 34.123648,18.214444 c -0.739814,-0.502193 -1.347693,-0.409049 -1.892592,-0.03172"
       id="path4194"
       inkscape:connector-curvature="0"
       sodipodi:nodetypes="cc" />
    <path
       sodipodi:nodetypes="cc"
       inkscape:connector-curvature="0"
       id="path4196"
       d="m 25.821429,13.642858 c -0.811039,0.376479 -1.04359,0.945788 -1,1.607143"
       style="fill:none;stroke:#ffffdf;stroke-width:1px;stroke-linecap:round;stroke-linejoin:miter;stroke-opacity:1" />
    <path
       style="fill:none;stroke:#ffffdf;stroke-width:1px;stroke-linecap:round;stroke-linejoin:miter;stroke-opacity:1"
       d="m 22.74498,13.892858 c 0.811039,0.376479 1.04359,0.945788 1,1.607143"
       id="path4198"
       inkscape:connector-curvature="0"
       sodipodi:nodetypes="cc" />
    <path
       sodipodi:nodetypes="cc"
       inkscape:connector-curvature="0"
       id="path4200"
       d="m 20.99498,13.428572 c 0.811039,0.376479 1.04359,0.945788 1,1.607143"
       style="fill:none;stroke:#ffffdf;stroke-width:1px;stroke-linecap:round;stroke-linejoin:miter;stroke-opacity:1" />
    <path
       style="fill:none;stroke:#ffffdf;stroke-width:1px;stroke-linecap:round;stroke-linejoin:miter;stroke-opacity:1"
       d="m 21.535716,14.285715 c -0.811039,0.376479 -1.04359,0.945788 -1,1.607143"
       id="path4202"
       inkscape:connector-curvature="0"
       sodipodi:nodetypes="cc" />
    <path
       sodipodi:nodetypes="cc"
       inkscape:connector-curvature="0"
       id="path4204"
       d="m 19.102123,16.500002 c 0.811039,0.376479 1.04359,0.945788 1,1.607143"
       style="fill:none;stroke:#ffffdf;stroke-width:1px;stroke-linecap:round;stroke-linejoin:miter;stroke-opacity:1" />
    <path
       style="fill:none;stroke:#ffffdf;stroke-width:1px;stroke-linecap:round;stroke-linejoin:miter;stroke-opacity:1"
       d="m 16.43007,16.855056 c 0.886992,-0.112985 1.386894,0.245192 1.702019,0.828276"
       id="path4206"
       inkscape:connector-curvature="0"
       sodipodi:nodetypes="cc" />
    <path
       sodipodi:nodetypes="cc"
       inkscape:connector-curvature="0"
       id="path4208"
       d="m 14.5855,18.543598 c 0.75432,-0.480127 1.359183,-0.369073 1.892702,0.02418"
       style="fill:none;stroke:#ffffdf;stroke-width:1px;stroke-linecap:round;stroke-linejoin:miter;stroke-opacity:1" />
    <path
       style="fill:none;stroke:#ffffdf;stroke-width:1px;stroke-linecap:round;stroke-linejoin:miter;stroke-opacity:1"
       d="m 18.189326,21.629912 c 0.893816,-0.02478 1.355875,0.381047 1.611835,0.992418"
       id="path4210"
       inkscape:connector-curvature="0"
       sodipodi:nodetypes="cc" />
    <path
       sodipodi:nodetypes="cc"
       inkscape:connector-curvature="0"
       id="path4212"
       d="m 21.209266,21.142858 c 0.811039,0.376479 1.04359,0.945788 1,1.607143"
       style="fill:none;stroke:#ffffdf;stroke-width:1px;stroke-linecap:round;stroke-linejoin:miter;stroke-opacity:1" />
    <path
       style="fill:none;stroke:#ffffdf;stroke-width:1px;stroke-linecap:round;stroke-linejoin:miter;stroke-opacity:1"
       d="m 24.607144,21.535716 c -0.811039,0.376479 -1.04359,0.945788 -1,1.607143"
       id="path4214"
       inkscape:connector-curvature="0"
       sodipodi:nodetypes="cc" />
    <path
       sodipodi:nodetypes="cc"
       inkscape:connector-curvature="0"
       id="path4216"
       d="m 25.639872,19.81903 c 0.648058,0.61607 0.686338,1.229852 0.433545,1.842539"
       style="fill:none;stroke:#ffffdf;stroke-width:1px;stroke-linecap:round;stroke-linejoin:miter;stroke-opacity:1" />
    <path
       style="fill:none;stroke:#ffffdf;stroke-width:1px;stroke-linecap:round;stroke-linejoin:miter;stroke-opacity:1"
       d="m 28.48418,21.379989 c -0.882603,0.14329 -1.260356,0.628569 -1.397117,1.277095"
       id="path4218"
       inkscape:connector-curvature="0"
       sodipodi:nodetypes="cc" />
    <path
       sodipodi:nodetypes="cc"
       inkscape:connector-curvature="0"
       id="path4220"
       d="m 31.572452,21.72816 c -0.884734,-0.129484 -1.39122,0.21932 -1.717149,0.796434"
       style="fill:none;stroke:#ffffdf;stroke-width:1px;stroke-linecap:round;stroke-linejoin:miter;stroke-opacity:1" />
    <path
       style="fill:none;stroke:#ffffdf;stroke-width:1px;stroke-linecap:round;stroke-linejoin:miter;stroke-opacity:1"
       d="m 14.269493,21.405794 c 0.167075,0.878412 0.662379,1.24292 1.314363,1.362115"
       id="path4222"
       inkscape:connector-curvature="0"
       sodipodi:nodetypes="cc" />
    <path
       sodipodi:nodetypes="cc"
       inkscape:connector-curvature="0"
       id="path4224"
       d="m 32.86957,22.762937 c -0.167075,0.878412 -0.662379,1.24292 -1.314363,1.362115"
       style="fill:none;stroke:#ffffdf;stroke-width:1px;stroke-linecap:round;stroke-linejoin:miter;stroke-opacity:1" />
  </g>
</svg>
