<?xml version="1.0" encoding="UTF-8" standalone="no"?>
<!-- Created with Inkscape (http://www.inkscape.org/) -->
<svg
   xmlns:i="http://ns.adobe.com/AdobeIllustrator/10.0/"
   xmlns:dc="http://purl.org/dc/elements/1.1/"
   xmlns:cc="http://web.resource.org/cc/"
   xmlns:rdf="http://www.w3.org/1999/02/22-rdf-syntax-ns#"
   xmlns:svg="http://www.w3.org/2000/svg"
   xmlns="http://www.w3.org/2000/svg"
   xmlns:xlink="http://www.w3.org/1999/xlink"
   xmlns:sodipodi="http://sodipodi.sourceforge.net/DTD/sodipodi-0.dtd"
   xmlns:inkscape="http://www.inkscape.org/namespaces/inkscape"
   width="64px"
   height="64px"
   id="svg3420"
   sodipodi:version="0.32"
   inkscape:version="0.44.1"
   sodipodi:docbase="e:\dev_clean\src\houdini\support\icons\misc"
   sodipodi:docname="python2.svg">
  <metadata
     id="metadata3226">
    <rdf:RDF>
      <cc:Work
         rdf:about="">
        <dc:format>image/svg+xml</dc:format>
        <dc:type
           rdf:resource="http://purl.org/dc/dcmitype/StillImage" />
      </cc:Work>
    </rdf:RDF>
  </metadata>
  <defs
     id="defs3422">
    <linearGradient
       id="linearGradient3374">
      <stop
         style="stop-color:#fce94f;stop-opacity:1"
         offset="0"
         id="stop3376" />
      <stop
         style="stop-color:#dda100;stop-opacity:1;"
         offset="1"
         id="stop3378" />
    </linearGradient>
    <linearGradient
       id="linearGradient3364">
      <stop
         style="stop-color:#729fcf;stop-opacity:1"
         offset="0"
         id="stop3366" />
      <stop
         style="stop-color:#204a87;stop-opacity:1"
         offset="1"
         id="stop3368" />
    </linearGradient>
    <radialGradient
       inkscape:collect="always"
       xlink:href="#linearGradient3364"
       id="radialGradient3372"
       cx="30.589874"
       cy="33.454185"
       fx="30.589874"
       fy="33.454185"
       r="22.801016"
       gradientTransform="matrix(-1.494421,-3.149433e-3,3.02379e-3,-1.434801,79.43176,79.21062)"
       gradientUnits="userSpaceOnUse" />
    <radialGradient
       inkscape:collect="always"
       xlink:href="#linearGradient3374"
       id="radialGradient3380"
       cx="31.091391"
       cy="31.322628"
       fx="31.091391"
       fy="31.322628"
       r="22.980897"
       gradientTransform="matrix(-1.369006,-1.729875e-2,1.795521e-2,-1.420958,73.09326,76.37932)"
       gradientUnits="userSpaceOnUse" />
  </defs>
  <sodipodi:namedview
     id="base"
     pagecolor="#ffffff"
     bordercolor="#666666"
     borderopacity="1.0"
     inkscape:pageopacity="0.0"
     inkscape:pageshadow="2"
     inkscape:zoom="8.25"
     inkscape:cx="34.406228"
     inkscape:cy="32"
     inkscape:current-layer="layer1"
     showgrid="true"
     inkscape:document-units="px"
     inkscape:grid-bbox="false"
     inkscape:window-width="1138"
     inkscape:window-height="969"
     inkscape:window-x="364"
     inkscape:window-y="34" />
  <g
     id="layer1"
     inkscape:label="Layer 1"
     inkscape:groupmode="layer">
    <path
       style="fill:url(#radialGradient3372);stroke:#20425e;stroke-width:1.49999976;stroke-miterlimit:4;stroke-dasharray:none;stroke-opacity:1;fill-opacity:1.0"
       id="path36"
       d="M 15.871922,8.5742833 C 15.871922,4.4732124 16.973256,2.2420595 23.054536,1.1796058 C 27.183208,0.45713726 32.477061,0.36682861 37.414442,1.1796058 C 41.314335,1.8223903 44.597055,4.722889 44.597055,8.5742833 L 44.597055,22.104632 C 44.597055,26.072896 41.410103,29.324006 37.414442,29.324006 L 23.054536,29.324006 C 18.180999,29.324006 14.073608,33.472887 14.073608,38.163621 L 14.073608,44.655213 L 9.1362264,44.655213 C 4.9596696,44.655213 2.5282219,41.648469 1.5066946,37.441152 C 0.12869693,31.788899 0.18722189,29.48288 1.5066946,24.069679 C 2.6505923,19.347072 6.3057446,16.855618 10.482302,16.855618 L 15.871922,16.855618 L 30.237149,16.855618 L 30.237149,13.987486 L 15.871922,13.987486 L 15.871922,8.5742833 L 15.871922,8.5742833 z "
       i:knockout="Off"
       sodipodi:nodetypes="csscccccccccccccccc" />
    <path
       style="opacity:1;color:black;fill:white;fill-opacity:1;fill-rule:nonzero;stroke:#20425e;stroke-width:1.00000036;stroke-linecap:butt;stroke-linejoin:miter;marker:none;marker-start:none;marker-mid:none;marker-end:none;stroke-miterlimit:4;stroke-dasharray:none;stroke-dashoffset:0;stroke-opacity:1;visibility:visible;display:inline;overflow:visible"
       id="path40"
       d="M 22.113664,7.6788017 C 22.113664,6.1504404 23.346992,4.9147442 24.875009,4.9147442 C 26.397571,4.9147442 27.636355,6.1504404 27.636355,7.6788017 C 27.636355,9.2017434 26.397571,10.437441 24.875009,10.437441 C 23.346992,10.437441 22.113664,9.2017434 22.113664,7.6788017 z "
       i:knockout="Off" />
    <g
       id="g44"
       transform="matrix(0.518034,0,0,0.517236,-27.94142,-28.31103)" />
    <path
       style="fill:none;stroke:#eeeeec;stroke-width:0.99999988;stroke-miterlimit:4;stroke-dasharray:none;stroke-opacity:0.50196078"
       id="path3249"
       d="M 22.789184,2.4712023 C 26.619605,1.8009269 32.946983,1.8351374 37.527693,2.5891979 C 41.145862,3.1855469 43.247476,5.4045249 43.247476,8.9776869 L 43.365472,22.120555 C 43.365472,25.802144 40.17275,28.110413 36.465732,28.110413 L 23.143171,28.110413 C 18.621694,28.110413 12.923086,31.841575 12.923086,37.01941 L 12.923086,43.278029 L 8.3423765,43.278029 C 4.4675298,43.278029 3.6276746,40.488497 2.6799418,36.585126 C 1.4014893,31.341202 1.8097731,28.729793 3.0339288,23.707652 C 4.0951919,19.326216 6.7783263,18.194706 10.653173,18.194706 L 31.69485,18.194706 L 31.458859,12.819873 L 17.187396,12.465887 L 17.187396,7.4437436 C 17.076107,4.9508219 18.777089,3.4908524 22.789184,2.4712023 z "
       i:knockout="Off"
       sodipodi:nodetypes="csccccccccccccccc" />
    <path
       style="opacity:1;color:black;fill:none;fill-opacity:1;fill-rule:nonzero;stroke:#eeeeec;stroke-width:1.0000006;stroke-linecap:butt;stroke-linejoin:miter;marker:none;marker-start:none;marker-mid:none;marker-end:none;stroke-miterlimit:4;stroke-dasharray:none;stroke-dashoffset:0;stroke-opacity:0.50196078;visibility:visible;display:inline;overflow:visible"
       id="path3251"
       d="M 21.151304,7.6916001 C 21.151304,5.6137725 22.828029,3.9338274 24.905388,3.9338274 C 26.975329,3.9338274 28.659475,5.6137725 28.659475,7.6916001 C 28.659475,9.7620583 26.975329,11.442005 24.905388,11.442005 C 22.828029,11.442005 21.151304,9.7620583 21.151304,7.6916001 z "
       i:knockout="Off" />
    <path
       style="opacity:1;color:black;fill:url(#radialGradient3380);fill-opacity:1.0;fill-rule:nonzero;stroke:#b58609;stroke-width:1.50000012;stroke-linecap:butt;stroke-linejoin:miter;marker:none;marker-start:none;marker-mid:none;marker-end:none;stroke-miterlimit:4;stroke-dasharray:none;stroke-dashoffset:0;stroke-opacity:1;visibility:visible;display:inline;overflow:visible"
       id="path3257"
       d="M 47.638134,55.199956 C 47.638134,59.334476 46.527816,61.583828 40.396928,62.654947 C 36.234577,63.383309 30.897539,63.474354 25.919882,62.654947 C 21.988175,62.00692 18.678676,59.082764 18.678676,55.199956 L 18.678676,41.559248 C 18.678676,37.558616 21.891626,34.280989 25.919882,34.280989 L 40.396928,34.280989 C 45.310221,34.280989 49.451118,30.098268 49.451118,25.369274 L 49.451118,18.824734 L 54.428776,18.824734 C 58.639403,18.824734 61.090685,21.856002 62.120546,26.097636 C 63.509785,31.795992 63.450782,34.120819 62.120546,39.578173 C 60.967317,44.3393 57.282348,46.851074 53.07172,46.851074 L 47.638134,46.851074 L 33.155723,46.851074 L 33.155723,49.742601 L 47.638134,49.742601 L 47.638134,55.199956 L 47.638134,55.199956 z "
       i:knockout="Off"
       sodipodi:nodetypes="csscccccccccccccccc" />
    <path
       style="opacity:1;color:black;fill:white;fill-opacity:1;fill-rule:nonzero;stroke:#b58609;stroke-width:1.00000024;stroke-linecap:butt;stroke-linejoin:miter;marker:none;marker-start:none;marker-mid:none;marker-end:none;stroke-miterlimit:4;stroke-dasharray:none;stroke-dashoffset:0;stroke-opacity:1;visibility:visible;display:inline;overflow:visible"
       id="path3259"
       d="M 41.345475,56.102742 C 41.345475,57.643568 40.102086,58.889344 38.561605,58.889344 C 37.026623,58.889344 35.777733,57.643568 35.777733,56.102742 C 35.777733,54.567378 37.026623,53.321602 38.561605,53.321602 C 40.102086,53.321602 41.345475,54.567378 41.345475,56.102742 z "
       i:knockout="Off" />
    <path
       style="fill:none;stroke:#eeeeec;stroke-width:1;stroke-miterlimit:4;stroke-dasharray:none;stroke-opacity:0.75294119"
       id="path3261"
       d="M 40.664445,61.352816 C 36.802777,62.028559 30.423784,61.994069 25.805707,61.233858 C 22.158023,60.632645 20.039265,58.395568 20.039265,54.793262 L 19.920307,41.543195 C 19.920307,37.831577 23.139073,35.504481 26.876331,35.504481 L 40.307571,35.504481 C 44.865931,35.504481 50.611025,31.742886 50.611025,26.522818 L 50.611025,20.213152 L 55.229102,20.213152 C 59.135558,20.213152 59.982264,23.025435 60.937728,26.960645 C 62.226609,32.24734 61.814994,34.880049 60.580853,39.943152 C 59.510933,44.360326 56.805911,45.501065 52.899455,45.501065 L 31.686131,45.501065 L 31.924047,50.919737 L 46.311929,51.276611 L 46.311929,56.339716 C 46.424126,58.852971 44.709268,60.32485 40.664445,61.352816 z "
       i:knockout="Off"
       sodipodi:nodetypes="csccccccccccccccc" />
    <path
       style="opacity:1;color:black;fill:none;fill-opacity:1;fill-rule:nonzero;stroke:#eeeeec;stroke-width:1.00000083;stroke-linecap:butt;stroke-linejoin:miter;marker:none;marker-start:none;marker-mid:none;marker-end:none;stroke-miterlimit:4;stroke-dasharray:none;stroke-dashoffset:0;stroke-opacity:0.50196078;visibility:visible;display:inline;overflow:visible"
       id="path3263"
       d="M 42.315686,56.089838 C 42.315686,58.184613 40.625283,59.878262 38.530978,59.878262 C 36.444151,59.878262 34.746267,58.184613 34.746267,56.089838 C 34.746267,54.002493 36.444151,52.308844 38.530978,52.308844 C 40.625283,52.308844 42.315686,54.002493 42.315686,56.089838 z "
       i:knockout="Off" />
  </g>
</svg>
