<?xml version="1.0" encoding="UTF-8" standalone="no"?>
<svg
   xmlns:dc="http://purl.org/dc/elements/1.1/"
   xmlns:cc="http://creativecommons.org/ns#"
   xmlns:rdf="http://www.w3.org/1999/02/22-rdf-syntax-ns#"
   xmlns:svg="http://www.w3.org/2000/svg"
   xmlns="http://www.w3.org/2000/svg"
   xmlns:xlink="http://www.w3.org/1999/xlink"
   xmlns:sodipodi="http://sodipodi.sourceforge.net/DTD/sodipodi-0.dtd"
   xmlns:inkscape="http://www.inkscape.org/namespaces/inkscape"
   viewBox="0 0 48 48"
   version="1.1"
   id="svg344"
   sodipodi:docname="sculpting.svg"
   inkscape:version="1.0.1 (3bc2e813f5, 2020-09-07)">
  <metadata
     id="metadata348">
    <rdf:RDF>
      <cc:Work
         rdf:about="">
        <dc:format>image/svg+xml</dc:format>
        <dc:type
           rdf:resource="http://purl.org/dc/dcmitype/StillImage" />
      </cc:Work>
    </rdf:RDF>
  </metadata>
  <sodipodi:namedview
     pagecolor="#ffffff"
     bordercolor="#666666"
     borderopacity="1"
     objecttolerance="10"
     gridtolerance="10"
     guidetolerance="10"
     inkscape:pageopacity="0"
     inkscape:pageshadow="2"
     inkscape:window-width="2560"
     inkscape:window-height="1377"
     id="namedview346"
     showgrid="false"
     inkscape:zoom="15.3125"
     inkscape:cx="24"
     inkscape:cy="24"
     inkscape:window-x="-8"
     inkscape:window-y="-8"
     inkscape:window-maximized="1"
     inkscape:current-layer="svg344" />
  <defs
     id="defs117">
    <style
       id="style2">.cls-1,.cls-12,.cls-17,.cls-21,.cls-22,.cls-24,.cls-27,.cls-32,.cls-35,.cls-41,.cls-43,.cls-45,.cls-53,.cls-9{fill:none;}.cls-2{isolation:isolate;}.cls-3{fill:#d0d0d0;}.cls-4{fill:url(#radial-gradient);}.cls-5{fill:url(#linear-gradient);}.cls-6{fill:url(#linear-gradient-2);}.cls-7{fill:url(#linear-gradient-3);}.cls-8{fill:url(#linear-gradient-4);}.cls-22,.cls-24,.cls-27,.cls-32,.cls-35,.cls-41,.cls-43,.cls-45,.cls-9{stroke:#8f5902;}.cls-22,.cls-24,.cls-41,.cls-45,.cls-9{stroke-linecap:round;stroke-linejoin:round;}.cls-12,.cls-17,.cls-27,.cls-9{stroke-width:0.35px;}.cls-10{fill:url(#linear-gradient-5);}.cls-11{clip-path:url(#clip-path);}.cls-12,.cls-21{stroke:#c17d11;}.cls-12,.cls-17,.cls-21,.cls-27,.cls-32,.cls-35,.cls-43,.cls-53{stroke-miterlimit:10;}.cls-13{fill:url(#linear-gradient-6);}.cls-14{fill:#f4dcb6;}.cls-15{fill:url(#linear-gradient-7);}.cls-16{clip-path:url(#clip-path-2);}.cls-17{stroke:#e9b96e;}.cls-18,.cls-58{mix-blend-mode:multiply;}.cls-18{fill:url(#linear-gradient-8);}.cls-19{fill:url(#linear-gradient-9);}.cls-20{clip-path:url(#clip-path-3);}.cls-21{stroke-width:0.32px;}.cls-22{stroke-width:0.7px;}.cls-23{fill:url(#linear-gradient-10);}.cls-24{stroke-width:0.29px;}.cls-25{fill:#c17d11;}.cls-26{fill:#8f5902;}.cls-28{fill:url(#linear-gradient-11);}.cls-29{clip-path:url(#clip-path-4);}.cls-30{fill:url(#linear-gradient-12);}.cls-31{fill:url(#linear-gradient-13);}.cls-32,.cls-41{stroke-width:0.37px;}.cls-33{fill:url(#linear-gradient-14);}.cls-34{fill:url(#linear-gradient-15);}.cls-35{stroke-width:0.4px;}.cls-36{fill:url(#linear-gradient-16);}.cls-37{fill:url(#linear-gradient-17);}.cls-38{fill:url(#linear-gradient-18);}.cls-39{fill:url(#linear-gradient-19);}.cls-40{fill:url(#linear-gradient-20);}.cls-42{fill:url(#linear-gradient-21);}.cls-43{stroke-width:0.36px;}.cls-44{fill:url(#linear-gradient-22);}.cls-45{stroke-width:0.35px;}.cls-46{fill:url(#linear-gradient-23);}.cls-47{fill:url(#linear-gradient-24);}.cls-48{fill:url(#linear-gradient-25);}.cls-49{fill:url(#linear-gradient-26);}.cls-50{fill:url(#linear-gradient-28);}.cls-51{fill:url(#linear-gradient-29);}.cls-52{fill:url(#linear-gradient-30);}.cls-53{stroke:#555753;stroke-width:0.5px;}.cls-54{fill:url(#linear-gradient-31);}.cls-55{fill:#f57900;}.cls-56{fill:url(#linear-gradient-32);}.cls-57{fill:url(#linear-gradient-33);}.cls-58{fill:url(#linear-gradient-34);}.cls-59{fill:url(#linear-gradient-35);}.cls-60{fill:#ce5c00;}</style>
    <radialGradient
       id="radial-gradient"
       cx="-5.87"
       cy="35.03"
       r="22.06"
       gradientTransform="matrix(1.06,0,0,0.48,30.48,16.79)"
       gradientUnits="userSpaceOnUse">
      <stop
         offset="0.24"
         stop-color="#2c2c2c"
         stop-opacity="0.5"
         id="stop4" />
      <stop
         offset="0.68"
         stop-color="#2c2c2c"
         stop-opacity="0.1"
         id="stop6" />
      <stop
         offset="0.93"
         stop-color="#2c2c2c"
         stop-opacity="0"
         id="stop8" />
    </radialGradient>
    <linearGradient
       id="linear-gradient"
       x1="25.18"
       y1="15.25"
       x2="20.7"
       y2="29.81"
       gradientUnits="userSpaceOnUse">
      <stop
         offset="0"
         stop-color="#eec98f"
         id="stop11" />
      <stop
         offset="1"
         stop-color="#c17d11"
         id="stop13" />
    </linearGradient>
    <linearGradient
       id="linear-gradient-2"
       x1="15.79"
       y1="27.34"
       x2="20.23"
       y2="23.2"
       gradientUnits="userSpaceOnUse">
      <stop
         offset="0"
         stop-color="#eec98f"
         id="stop16" />
      <stop
         offset="0.74"
         stop-color="#ad752a"
         id="stop18" />
    </linearGradient>
    <linearGradient
       id="linear-gradient-3"
       x1="20.2"
       y1="21.58"
       x2="24.97"
       y2="30.6"
       gradientUnits="userSpaceOnUse">
      <stop
         offset="0"
         stop-color="#f4dcb6"
         id="stop21" />
      <stop
         offset="1"
         stop-color="#f4dcb6"
         stop-opacity="0"
         id="stop23" />
    </linearGradient>
    <linearGradient
       id="linear-gradient-4"
       x1="14.7"
       y1="11.02"
       x2="22.92"
       y2="19.57"
       gradientUnits="userSpaceOnUse">
      <stop
         offset="0"
         stop-color="#eec98f"
         id="stop26" />
      <stop
         offset="1"
         stop-color="#ad752a"
         id="stop28" />
    </linearGradient>
    <linearGradient
       id="linear-gradient-5"
       x1="24.42"
       y1="29.69"
       x2="39.67"
       y2="38.64"
       gradientUnits="userSpaceOnUse">
      <stop
         offset="0"
         stop-color="#f0d19f"
         id="stop31" />
      <stop
         offset="1"
         stop-color="#c17d11"
         id="stop33" />
    </linearGradient>
    <clipPath
       id="clip-path">
      <polygon
         class="cls-1"
         points="30.22 24.34 27.25 26.09 26.39 28.3 24.63 31.75 22.65 33.65 22.65 41.18 33.52 34.35 33.52 22.5 30.22 24.34"
         id="polygon36" />
    </clipPath>
    <linearGradient
       id="linear-gradient-6"
       x1="27.76"
       y1="37.85"
       x2="24.93"
       y2="36.23"
       xlink:href="#linear-gradient-2" />
    <linearGradient
       id="linear-gradient-7"
       x1="18.58"
       y1="8.72"
       x2="24.62"
       y2="11.48"
       xlink:href="#linear-gradient-5" />
    <clipPath
       id="clip-path-2">
      <path
         class="cls-1"
         d="M16.91,13.44l3.89-2.88a24.06,24.06,0,0,1,3.63-1.2A20.84,20.84,0,0,1,28.79,9L24.43,5.91,13.43,11l3.48,2.47Z"
         id="path41" />
    </clipPath>
    <linearGradient
       id="linear-gradient-8"
       x1="16.41"
       y1="11.25"
       x2="19.13"
       y2="13.37"
       gradientTransform="matrix(1,0,0.13,0.94,-1.79,0.84)"
       xlink:href="#linear-gradient-4" />
    <linearGradient
       id="linear-gradient-9"
       x1="9.14"
       y1="28.9"
       x2="22.32"
       y2="24.72"
       gradientUnits="userSpaceOnUse">
      <stop
         offset="0"
         stop-color="#e9b96e"
         id="stop45" />
      <stop
         offset="1"
         stop-color="#c17d11"
         id="stop47" />
    </linearGradient>
    <clipPath
       id="clip-path-3">
      <path
         class="cls-1"
         d="M22.64,33.67l-1-2.83V29l-.94-1.28V26.3l-1.31-3.16L19,21.23l-1-2a6.61,6.61,0,0,1-.34-1.95,23.8,23.8,0,0,0-.76-3.81L13.43,11v21.4l9.22,8.81V33.67Z"
         id="path50" />
    </clipPath>
    <linearGradient
       id="linear-gradient-10"
       x1="30.45"
       y1="19.03"
       x2="28.65"
       y2="18.87"
       xlink:href="#linear-gradient-4" />
    <linearGradient
       id="linear-gradient-11"
       x1="27.34"
       y1="19.87"
       x2="22.77"
       y2="21.71"
       gradientUnits="userSpaceOnUse">
      <stop
         offset="0"
         stop-color="#f7e5c9"
         id="stop54" />
      <stop
         offset="1"
         stop-color="#eec98f"
         id="stop56" />
    </linearGradient>
    <clipPath
       id="clip-path-4">
      <path
         class="cls-1"
         d="M29.73,21.41a1.46,1.46,0,0,0-.2-.33,6.9,6.9,0,0,1-1-1.5,4,4,0,0,1-.21-1.2,3.61,3.61,0,0,1,.14-1.13,5.45,5.45,0,0,1,.35-.87c0-.05.12-.31.17-.32l-8,1.77A2.24,2.24,0,0,1,21,20a5.41,5.41,0,0,0-.8,1.46l.39,1.8.29.68,1.35.9a8.91,8.91,0,0,0,5.91-.74C29.06,23.6,30.23,22.5,29.73,21.41Z"
         id="path59" />
    </clipPath>
    <linearGradient
       id="linear-gradient-12"
       x1="24.57"
       y1="22.09"
       x2="20.9"
       y2="21.8"
       xlink:href="#linear-gradient-4" />
    <linearGradient
       id="linear-gradient-13"
       x1="23.52"
       y1="24.13"
       x2="21.58"
       y2="20.17"
       gradientUnits="userSpaceOnUse">
      <stop
         offset="0"
         stop-color="#8f5902"
         stop-opacity="0"
         id="stop63" />
      <stop
         offset="1"
         stop-color="#8f5902"
         id="stop65" />
    </linearGradient>
    <linearGradient
       id="linear-gradient-14"
       x1="26.81"
       y1="6.02"
       x2="26.6"
       y2="8.2"
       xlink:href="#linear-gradient-11" />
    <linearGradient
       id="linear-gradient-15"
       x1="26.87"
       y1="9.28"
       x2="27.02"
       y2="7.77"
       gradientUnits="userSpaceOnUse">
      <stop
         offset="0"
         stop-color="#eec98f"
         stop-opacity="0.4"
         id="stop69" />
      <stop
         offset="1"
         stop-color="#c17d11"
         id="stop71" />
    </linearGradient>
    <linearGradient
       id="linear-gradient-16"
       x1="25.32"
       y1="10.37"
       x2="24.51"
       y2="18.01"
       xlink:href="#linear-gradient-11" />
    <linearGradient
       id="linear-gradient-17"
       x1="24.77"
       y1="14.74"
       x2="19.33"
       y2="25.55"
       xlink:href="#linear-gradient" />
    <linearGradient
       id="linear-gradient-18"
       x1="21.09"
       y1="16.53"
       x2="18.56"
       y2="13.68"
       xlink:href="#linear-gradient-13" />
    <linearGradient
       id="linear-gradient-19"
       x1="27.88"
       y1="11.9"
       x2="29.72"
       y2="12.62"
       gradientUnits="userSpaceOnUse">
      <stop
         offset="0"
         stop-color="#eec98f"
         id="stop77" />
      <stop
         offset="0.38"
         stop-color="#c17d11"
         id="stop79" />
      <stop
         offset="1"
         stop-color="#8f5902"
         id="stop81" />
    </linearGradient>
    <linearGradient
       id="linear-gradient-20"
       x1="24.59"
       y1="13.68"
       x2="23.65"
       y2="15.21"
       xlink:href="#linear-gradient-19" />
    <linearGradient
       id="linear-gradient-21"
       x1="27.24"
       y1="15.53"
       x2="29.08"
       y2="15.53"
       gradientTransform="rotate(-3.95,24.059181,13.749568)"
       xlink:href="#linear-gradient" />
    <linearGradient
       id="linear-gradient-22"
       x1="19.82"
       y1="8.87"
       x2="18.87"
       y2="11.33"
       xlink:href="#linear-gradient-11" />
    <linearGradient
       id="linear-gradient-23"
       x1="21.4"
       y1="11.89"
       x2="19.62"
       y2="10.74"
       xlink:href="#linear-gradient-15" />
    <linearGradient
       id="linear-gradient-24"
       x1="24.45"
       y1="23.89"
       x2="22.63"
       y2="23.86"
       xlink:href="#linear-gradient-4" />
    <linearGradient
       id="linear-gradient-25"
       x1="27.82"
       y1="8.23"
       x2="27.82"
       y2="43.22"
       gradientTransform="translate(19.65 -9.31) rotate(33.56)"
       gradientUnits="userSpaceOnUse">
      <stop
         offset="0"
         stop-color="#2e3436"
         id="stop89" />
      <stop
         offset="1"
         stop-color="#d3d7cf"
         id="stop91" />
    </linearGradient>
    <linearGradient
       id="linear-gradient-26"
       x1="28.29"
       y1="26.64"
       x2="26.21"
       y2="25.02"
       gradientTransform="translate(2.9 -2.11) rotate(5.17)"
       gradientUnits="userSpaceOnUse">
      <stop
         offset="0"
         stop-color="#fff"
         stop-opacity="0"
         id="stop94" />
      <stop
         offset="0.3"
         stop-color="#fffefe"
         stop-opacity="0.3"
         id="stop96" />
      <stop
         offset="1"
         stop-color="snow"
         id="stop98" />
    </linearGradient>
    <linearGradient
       id="linear-gradient-28"
       x1="26.42"
       y1="28.89"
       x2="30.37"
       y2="30.4"
       gradientTransform="rotate(5.94,26.149639,29.081907)"
       xlink:href="#linear-gradient-25" />
    <linearGradient
       id="linear-gradient-29"
       x1="27.06"
       y1="28.4"
       x2="30.07"
       y2="29.95"
       gradientTransform="rotate(5.17,24.817903,31.062022)"
       xlink:href="#linear-gradient-25" />
    <linearGradient
       id="linear-gradient-30"
       x1="27.89"
       y1="29.54"
       x2="27.89"
       y2="32.78"
       xlink:href="#linear-gradient-25" />
    <linearGradient
       id="linear-gradient-31"
       x1="33.91"
       y1="18.3"
       x2="32.85"
       y2="17.57"
       gradientTransform="rotate(5.94,26.149639,29.081907)"
       gradientUnits="userSpaceOnUse">
      <stop
         offset="0"
         stop-color="#7c817e"
         id="stop104" />
      <stop
         offset="1"
         stop-color="#eeeeec"
         id="stop106" />
    </linearGradient>
    <linearGradient
       id="linear-gradient-32"
       x1="22.89"
       y1="32.13"
       x2="41"
       y2="42.76"
       xlink:href="#linear-gradient-5" />
    <linearGradient
       id="linear-gradient-33"
       x1="25.02"
       y1="35.53"
       x2="25.02"
       y2="32.19"
       xlink:href="#linear-gradient-2" />
    <linearGradient
       id="linear-gradient-34"
       x1="39.23"
       y1="11.22"
       x2="40.79"
       y2="12.33"
       gradientUnits="userSpaceOnUse">
      <stop
         offset="0"
         stop-color="#2c2c2c"
         stop-opacity="0"
         id="stop111" />
      <stop
         offset="1"
         stop-color="#2c2c2c"
         stop-opacity="0.5"
         id="stop113" />
    </linearGradient>
    <linearGradient
       id="linear-gradient-35"
       x1="40.34"
       y1="12"
       x2="36.86"
       y2="9.56"
       xlink:href="#linear-gradient-26" />
    <linearGradient
       inkscape:collect="always"
       xlink:href="#linear-gradient"
       id="linearGradient1173"
       gradientUnits="userSpaceOnUse"
       x1="25.18"
       y1="15.25"
       x2="20.7"
       y2="29.81" />
    <linearGradient
       inkscape:collect="always"
       xlink:href="#linear-gradient-2"
       id="linearGradient1175"
       gradientUnits="userSpaceOnUse"
       x1="15.79"
       y1="27.34"
       x2="20.23"
       y2="23.2" />
    <linearGradient
       inkscape:collect="always"
       xlink:href="#linear-gradient-4"
       id="linearGradient1177"
       gradientUnits="userSpaceOnUse"
       x1="14.7"
       y1="11.02"
       x2="22.92"
       y2="19.57" />
    <linearGradient
       inkscape:collect="always"
       xlink:href="#linear-gradient-5"
       id="linearGradient1179"
       gradientUnits="userSpaceOnUse"
       x1="24.42"
       y1="29.69"
       x2="39.67"
       y2="38.64" />
    <linearGradient
       inkscape:collect="always"
       xlink:href="#linear-gradient-11"
       id="linearGradient1181"
       gradientUnits="userSpaceOnUse"
       x1="27.34"
       y1="19.87"
       x2="22.77"
       y2="21.71" />
    <linearGradient
       inkscape:collect="always"
       xlink:href="#linear-gradient-13"
       id="linearGradient1183"
       gradientUnits="userSpaceOnUse"
       x1="23.52"
       y1="24.13"
       x2="21.58"
       y2="20.17" />
    <linearGradient
       inkscape:collect="always"
       xlink:href="#linear-gradient-15"
       id="linearGradient1185"
       gradientUnits="userSpaceOnUse"
       x1="26.87"
       y1="9.28"
       x2="27.02"
       y2="7.77" />
    <linearGradient
       inkscape:collect="always"
       xlink:href="#linear-gradient-19"
       id="linearGradient1187"
       gradientUnits="userSpaceOnUse"
       x1="27.88"
       y1="11.9"
       x2="29.72"
       y2="12.62" />
    <linearGradient
       inkscape:collect="always"
       xlink:href="#linear-gradient-25"
       id="linearGradient1189"
       gradientUnits="userSpaceOnUse"
       gradientTransform="rotate(33.56,25.262577,27.928071)"
       x1="27.82"
       y1="8.23"
       x2="27.82"
       y2="43.22" />
    <linearGradient
       inkscape:collect="always"
       xlink:href="#linear-gradient-26"
       id="linearGradient1191"
       gradientUnits="userSpaceOnUse"
       gradientTransform="rotate(5.17,24.817903,31.062022)"
       x1="28.29"
       y1="26.64"
       x2="26.21"
       y2="25.02" />
    <linearGradient
       inkscape:collect="always"
       xlink:href="#linear-gradient-26"
       id="linearGradient1193"
       gradientUnits="userSpaceOnUse"
       gradientTransform="rotate(5.17,24.817903,31.062022)"
       x1="28.29"
       y1="26.64"
       x2="26.21"
       y2="25.02" />
  </defs>
  <title
     id="title119">26-Sculpting</title>
  <g
     id="shadow"
     style="isolation:isolate;stroke-width:0.937158"
     transform="matrix(1.0670557,0,0,1.0670557,-1.8173184,1.5603852)">
    <ellipse
       class="cls-4"
       cx="24.26"
       cy="33.43"
       rx="22.48"
       ry="10.11"
       id="ellipse124"
       style="fill:url(#radial-gradient);stroke-width:0.937158" />
  </g>
  <g
     id="ART"
     style="isolation:isolate;stroke-width:0.894966"
     transform="matrix(1.1173609,0,0,1.1173609,-4.0838571,-4.2571345)">
    <path
       class="cls-5"
       d="M 33.52,22.5 A 10.54,10.54 0 0 1 32,21.72 L 31,20.27 30,19.9 28.66,18.3 28.15,13 28.66,8.93 a 30,30 0 0 1 -3,-0.29 C 25.59,8.53 20.17,9.55 20.17,9.55 l -4.56,2.45 -0.38,4.58 1.22,8 4.14,8.87 2.1,0.22 4,-0.91 4,-6.92 z"
       id="path127"
       style="fill:url(#linearGradient1173);stroke-width:0.894966" />
    <path
       class="cls-6"
       d="M 33.52,22.5 A 10.54,10.54 0 0 1 32,21.72 L 31,20.27 30,19.9 28.66,18.3 28.15,13 28.66,8.93 a 30,30 0 0 1 -3,-0.29 C 25.59,8.53 20.17,9.55 20.17,9.55 l -4.56,2.45 -0.38,4.58 1.22,8 4.14,8.87 2.1,0.22 4,-0.91 4,-6.92 z"
       id="path129"
       style="fill:url(#linearGradient1175);stroke-width:0.894966" />
    <path
       class="cls-7"
       d="m 19.51,23.44 0.88,1.17 a 9.94,9.94 0 0 0 0.78,1 c 0.14,0.14 0.15,0.11 0.2,0.3 0.05,0.19 0,0.59 0.07,0.6 h 0.28 a 3.56,3.56 0 0 0 0.15,0.79 l 0.3,-0.34 h 0.05 l 0.31,0.19 a 1.24,1.24 0 0 1 -0.09,0.38 c 0.06,-0.07 0.78,-0.62 0.8,-0.62 a 1.77,1.77 0 0 1 0.34,0.16 c -0.18,0.35 -0.37,0.69 -0.52,1.05 a 6,6 0 0 0 -0.31,0.8 3,3 0 0 0 -0.2,-0.65 0.28,0.28 0 0 0 -0.08,-0.11 c -0.06,0 -0.14,0 -0.22,0 -0.25,0 -0.42,-0.24 -0.52,-0.47 -0.15,1 0.79,1.92 0.66,2.93 0.36,-0.41 0.71,-0.82 1,-1.24 a 6.21,6.21 0 0 1 -0.34,1 4.93,4.93 0 0 0 1.95,-2.79 v 0.68 c 0,-0.29 0.61,-0.55 0.78,-0.73 0.17,-0.18 0.32,-0.61 0.67,-0.72 a 9,9 0 0 1 -0.95,1.62 l -2.9,4.46 -1,-2.06 V 29 l -0.94,-1.11"
       id="path131"
       style="fill:url(#linear-gradient-3);stroke-width:0.894966" />
    <path
       class="cls-8"
       d="m 22.69,24.08 a 4.12,4.12 0 0 1 0,-4 5.67,5.67 0 0 0 0.75,-3.18 22.89,22.89 0 0 0 -0.68,-2.38 l -1,-3.34 -3.36,1.08 -1.59,1.18 c 0,0 0.23,0.44 0.24,0.47 a 2,2 0 0 1 0.1,0.6 c 0.11,0.66 0.28,1.32 0.41,2 a 3.55,3.55 0 0 1 0.1,0.64 c 0,0.27 -0.05,0.52 -0.06,0.79 a 3.75,3.75 0 0 0 0.4,1.6 c 0.23,0.53 0.52,1 0.77,1.54 a 8.78,8.78 0 0 1 0.63,1.71 2.55,2.55 0 0 0 0.82,1.26 l 0.89,0.85 c 0.25,0.24 0.44,0.51 0.69,0.74 a 2.62,2.62 0 0 0 1.72,0.72 8.24,8.24 0 0 0 -0.83,-2.28 z"
       id="path133"
       style="fill:url(#linearGradient1177);stroke-width:0.894966" />
    <path
       class="cls-9"
       d="M 33.52,22.5 A 10.54,10.54 0 0 1 32,21.72 L 31,20.27 30,19.9 28.66,18.3 28.15,13 28.66,8.93 a 30,30 0 0 1 -3,-0.29 C 25.59,8.53 20.17,9.55 20.17,9.55 l -4.56,2.45 -0.38,4.58 1.22,8 4.14,8.87 2.1,0.22 4,-0.91 4,-6.92 z"
       id="path135" />
    <polygon
       class="cls-10"
       points="27.25,26.09 26.39,28.3 24.63,31.75 22.65,33.65 22.65,41.18 33.52,34.35 33.52,22.5 30.22,24.34 "
       id="polygon137"
       style="fill:url(#linearGradient1179);stroke-width:0.894966" />
    <g
       class="cls-11"
       clip-path="url(#clip-path)"
       id="g149"
       style="stroke-width:0.894966">
      <path
         class="cls-12"
         d="m 32.26,37.92 -0.5,-6.52 a 66.18,66.18 0 0 1 0.14,-7.84 l 0.36,-8.36 a 21.73,21.73 0 0 0 -1.12,5.1 c -0.16,1.58 -0.56,3.13 -0.79,4.7 -0.4,2.68 0.33,5.43 0.4,8.16 a 1.4,1.4 0 0 1 -0.07,0.61 0.4,0.4 0 0 1 -0.42,0.29 0.44,0.44 0 0 1 -0.27,-0.22 2.4,2.4 0 0 1 -0.28,-1.11 c -0.13,-1.38 -0.26,-2.75 -0.38,-4.12 a 4.46,4.46 0 0 0 -0.25,-1.5 3.66,3.66 0 0 1 -0.37,-1.23 c -0.09,-1.58 0.1,-3.1 -0.11,-4.67 a 3.35,3.35 0 0 1 0.15,-1.89"
         id="path139" />
      <path
         class="cls-13"
         d="m 24.32,37.4 a 16.85,16.85 0 0 0 0.82,3.6 l 0.28,1.78 2.19,-1 c 0,0 -0.16,-2.81 -0.45,-4.55 a 51.57,51.57 0 0 1 -0.19,-6 18,18 0 0 0 -2.3,2.94 19.57,19.57 0 0 0 -0.35,3.23 z"
         id="path141"
         style="fill:url(#linear-gradient-6);stroke-width:0.894966" />
      <path
         class="cls-12"
         d="m 25.51,24.38 c 0,1.77 0,3.53 0.16,5.29 0.08,0.94 0.21,1.88 0.21,2.82 0,1.69 -0.62,3.24 -0.62,4.9 0,1.39 1.11,1.22 1.11,3.76 0,2.54 0.28,2.71 0.28,2.71"
         id="path143" />
      <path
         class="cls-12"
         d="m 23.61,29.26 c 0.14,3.4 0.85,5.05 0.88,6.32 a 12.83,12.83 0 0 0 0.2,3.83 11.61,11.61 0 0 1 0.69,3.11 c 0.05,0.94 -0.27,1.92 -0.27,2.88"
         id="path145" />
      <path
         class="cls-12"
         d="m 26.41,23.43 c 0.71,1.57 0.14,3.52 0.51,5.24 0.16,0.79 0.53,1.52 0.64,2.33 0.26,1.8 -0.45,3.57 0.2,5.33 0.65,1.76 0.52,6.65 0.52,8"
         id="path147" />
    </g>
    <polygon
       class="cls-1"
       points="27.25,26.09 26.39,28.3 24.63,31.75 22.65,33.65 22.65,41.18 33.52,34.35 33.52,22.5 30.22,24.34 "
       id="polygon151"
       style="stroke-width:0.894966" />
    <polygon
       class="cls-9"
       points="27.25,26.09 26.39,28.3 24.63,31.75 22.65,33.65 22.65,41.18 33.52,34.35 33.52,22.5 30.22,24.34 "
       id="polygon153" />
    <path
       class="cls-14"
       d="M 16.91,13.44 20.8,10.56 A 24.06,24.06 0 0 1 24.43,9.36 19.56,19.56 0 0 1 28.63,9 V 8.91 l -4.23,-3 -10.97,5.09 3.48,2.47 z"
       id="path155"
       style="stroke-width:0.894966" />
    <path
       class="cls-15"
       d="M 16.91,13.44 20.8,10.56 A 24.06,24.06 0 0 1 24.43,9.36 19.56,19.56 0 0 1 28.63,9 V 8.91 l -4.23,-3 -10.97,5.09 3.48,2.47 z"
       id="path157"
       style="fill:url(#linear-gradient-7);stroke-width:0.894966" />
    <g
       class="cls-16"
       clip-path="url(#clip-path-2)"
       id="g169"
       style="stroke-width:0.894966">
      <path
         class="cls-17"
         d="m 20.06,11.16 c -0.39,-1.34 0.19,-1.14 0.27,-2.29 a 2.81,2.81 0 0 0 -0.89,-2"
         id="path159" />
      <path
         class="cls-17"
         d="M 22.56,12 C 22.45,12 21,11 21.44,9.87 21.88,8.74 22.27,8.13 21.19,7.07"
         id="path161" />
      <path
         class="cls-17"
         d="m 15.12,14.6 a 15,15 0 0 1 0.46,-4.6 2.65,2.65 0 0 1 0.22,-0.79 0.78,0.78 0 0 1 0.64,-0.46 0.76,0.76 0 0 1 0.7,0.63 1.79,1.79 0 0 1 -0.15,1 6.21,6.21 0 0 0 -0.52,1.26 9.25,9.25 0 0 0 0.05,1.82 7.43,7.43 0 0 0 0.24,2.45 2.3,2.3 0 0 1 -0.05,2.19"
         id="path163" />
      <path
         class="cls-18"
         d="m 16.91,13.44 a 8.13,8.13 0 0 0 -0.86,-2.28 c -0.41,-0.45 0.43,-0.9 2,0 1.57,0.9 0.6,1.18 0.6,1.18"
         id="path165"
         style="fill:url(#linear-gradient-8);stroke-width:0.894966" />
      <path
         class="cls-17"
         d="m 24.73,11.6 c -0.15,-1.24 -0.38,-1.15 -1.11,-1.74 -0.73,-0.59 -0.71,-2 0.2,-1.65 a 5.54,5.54 0 0 0 2.42,0.86 c 0.8,-0.06 1.91,1.66 1.91,1.66"
         id="path167" />
    </g>
    <path
       class="cls-19"
       d="m 22.64,33.67 -1,-2.83 V 29 L 20.7,27.72 V 26.3 L 19.39,23.14 19,21.23 l -1,-2 A 6.61,6.61 0 0 1 17.66,17.28 23.8,23.8 0 0 0 16.9,13.47 L 13.43,11 v 21.4 l 9.22,8.81 v -7.54 z"
       id="path171"
       style="fill:url(#linear-gradient-9);stroke-width:0.894966" />
    <g
       class="cls-20"
       clip-path="url(#clip-path-3)"
       id="g181"
       style="stroke-width:0.894966">
      <path
         class="cls-12"
         d="m 18.15,16.4 a 22,22 0 0 0 -0.1,3.35 c 0,0.79 0.12,1.57 0.14,2.36 a 14.19,14.19 0 0 1 -0.81,5.22 c -0.23,0.62 -0.11,1.55 -0.11,3.61 0,2.06 0,3.32 -0.24,3.32 -0.24,0 -0.27,-0.46 -0.27,-3.15 0,-2.69 0,-4.61 0.14,-6.24 0.14,-1.63 -0.29,-6.32 -0.29,-6.32 -0.17,-2.63 0,-8.22 0,-8.22"
         id="path173" />
      <path
         class="cls-12"
         d="m 14.66,9.29 a 12.46,12.46 0 0 1 0.44,3.8 v 7.76 c 0,3.06 0.35,6.09 0.45,9.15 a 113.86,113.86 0 0 0 0.66,11.69"
         id="path175" />
      <path
         class="cls-12"
         d="m 17.94,42.21 c 0,-0.27 0,-5.18 0.1,-5.45 a 21.18,21.18 0 0 0 0.37,-5.07 c 0,-2.15 0.3,-3.12 0.58,-2.55 0.28,0.57 0.16,3 0.16,5 0,2 0.55,2.72 0.73,3.86 0.36,2.35 -0.09,4.71 0.45,7.06 a 0.65,0.65 0 0 0 0.23,0.44 c 0.17,0.11 0.39,0 0.49,-0.22 a 1.41,1.41 0 0 0 0.1,-0.65 v -10.7 a 1.22,1.22 0 0 0 -0.06,-0.47 2.86,2.86 0 0 0 -0.28,-0.4 1.88,1.88 0 0 1 -0.2,-0.86 40.73,40.73 0 0 1 1.13,-10"
         id="path177" />
      <path
         class="cls-21"
         d="m 14.59,37.7 v -7.62 c 0,-1.58 -0.79,-3 -0.8,-4.58 0,-0.41 0.05,-0.82 0,-1.24 a 6.39,6.39 0 0 0 -0.22,-1.57 11,11 0 0 0 -1.33,-3.06"
         id="path179" />
    </g>
    <path
       class="cls-9"
       d="m 22.64,33.67 -1,-2.83 V 29 L 20.7,27.72 V 26.3 L 19.39,23.14 19,21.23 l -1,-2 A 6.61,6.61 0 0 1 17.66,17.28 23.8,23.8 0 0 0 16.9,13.47 L 13.43,11 v 21.4 l 9.22,8.81 v -7.54 z"
       id="path183" />
    <path
       class="cls-9"
       d="M 16.91,13.44 20.8,10.56 A 24.06,24.06 0 0 1 24.43,9.36 19.56,19.56 0 0 1 28.63,9 V 8.91 l -4.23,-3 -10.97,5.09 3.48,2.47 z"
       id="path185" />
    <path
       class="cls-22"
       d="m 29.46,21.26 c 0,0 0.06,0.07 0.11,0.06 A 2.36,2.36 0 0 0 31,20.51 4.66,4.66 0 0 0 31.11,19 1.79,1.79 0 0 1 31.16,18.42 c 0,0 -0.2,0 -0.2,0 a 0.73,0.73 0 0 0 0.61,-0.07 c 0.26,-0.19 0.24,-0.38 0.24,-0.38 A 0.3,0.3 0 0 0 32.05,17.88 0.7,0.7 0 0 0 32,17 1.55,1.55 0 0 0 30.37,16.32 l -0.25,0.08 a 3.18,3.18 0 0 0 0.65,-1.32 5.66,5.66 0 0 0 -1.65,-5 C 28.98,9.96 28.84,9.86 28.69,9.75 A 4.09,4.09 0 0 0 28.62,8.88 16.77,16.77 0 0 0 27.79,5.66 C 27.44,4.87 27.12,4.83 26.79,5.04 A 8.27,8.27 0 0 0 25.4,6.6 l -1,-0.69 -5.15,2.38 A 6.91,6.91 0 0 0 17.74,8 0.67,0.67 0 0 0 17,8.7 L 17.11,9.26 13.43,11 v 21.4 l 9.22,8.81 10.87,-6.83 V 22.5 L 32,21.37 31.27,20.64"
       id="path187" />
    <path
       class="cls-14"
       d="m 31.16,18.46 a 1.79,1.79 0 0 0 -0.05,0.58 4.66,4.66 0 0 1 -0.11,1.47 1.74,1.74 0 0 1 -1.14,0.6 2.35,2.35 0 0 1 -0.37,0 c -0.59,0 -1,-0.27 -1.06,-0.86 0,-0.3 0,-2 0,-2.22 A 1.59,1.59 0 0 1 28.88,17.1 3,3 0 0 1 30.37,16.34 1.55,1.55 0 0 1 32,17 a 0.7,0.7 0 0 1 0,0.85 0.3,0.3 0 0 1 -0.24,0.09 c 0,0 0,0.19 -0.24,0.38 a 0.73,0.73 0 0 1 -0.61,0.07 0.45,0.45 0 0 1 -0.38,0.36 0.68,0.68 0 0 1 -0.69,-0.26 0.65,0.65 0 0 0 -0.56,-0.2"
       id="path189"
       style="stroke-width:0.894966" />
    <path
       class="cls-23"
       d="m 29.89,17 a 0.81,0.81 0 0 0 -0.2,0.6 c 0.08,0.3 0.44,0.4 0.74,0.45 a 0.5,0.5 0 0 0 0.21,0 c 0.07,0 0.13,-0.1 0.11,-0.17 a 0.56,0.56 0 0 0 0.86,-0.49 1,1 0 0 1 0.1,0.6 0.62,0.62 0 0 1 -0.37,0.47 l -0.22,0.07 a 1.39,1.39 0 0 0 -0.49,0.34 1.36,1.36 0 0 0 -0.31,0.37 1.18,1.18 0 0 0 -0.09,0.46 3.38,3.38 0 0 0 0.22,1.26 1.11,1.11 0 0 1 -1.07,-0.15 1.71,1.71 0 0 1 -0.42,-0.51 3.91,3.91 0 0 1 -0.61,-1.86 0.57,0.57 0 0 1 0.23,-0.54 l 0.72,-0.68"
       id="path191"
       style="fill:url(#linear-gradient-10);stroke-width:0.894966" />
    <path
       class="cls-24"
       d="m 31.16,18.46 a 1.79,1.79 0 0 0 -0.05,0.58 4.66,4.66 0 0 1 -0.11,1.47 1.74,1.74 0 0 1 -1.14,0.6 2.35,2.35 0 0 1 -0.37,0 c -0.59,0 -1,-0.27 -1.06,-0.86 0,-0.3 0,-2 0,-2.22 A 1.59,1.59 0 0 1 28.88,17.1 3,3 0 0 1 30.37,16.34 1.55,1.55 0 0 1 32,17 a 0.7,0.7 0 0 1 0,0.85 0.3,0.3 0 0 1 -0.24,0.09 c 0,0 0,0.19 -0.24,0.38 a 0.73,0.73 0 0 1 -0.61,0.07 0.45,0.45 0 0 1 -0.38,0.36 0.68,0.68 0 0 1 -0.69,-0.26 0.65,0.65 0 0 0 -0.56,-0.2"
       id="path193" />
    <path
       class="cls-24"
       d="M 31.81,18 A 1.12,1.12 0 0 0 31.44,17"
       id="path195" />
    <path
       class="cls-24"
       d="m 30.49,17.46 a 1,1 0 0 1 0.33,0.35 1.18,1.18 0 0 1 0.14,0.61"
       id="path197" />
    <path
       class="cls-14"
       d="m 14.78,40.08 -0.07,0.54 0.33,0.43 c 0,0 1.73,-0.13 2.21,-0.19 a 13.5,13.5 0 0 1 1.55,0 6.06,6.06 0 0 1 -0.83,-0.25 5.09,5.09 0 0 1 0.73,0.11 l -0.17,-0.25 c 0,0 -0.88,0 -0.93,-0.07 -0.05,-0.07 -0.23,-0.26 -0.23,-0.26 z"
       id="path199"
       style="stroke-width:0.894966" />
    <polygon
       class="cls-14"
       points="18.77,44.15 20.44,43.12 18.26,43.88 17.28,44.03 17.4,44.53 18.22,44.77 "
       id="polygon201"
       style="stroke-width:0.894966" />
    <polygon
       class="cls-25"
       points="13.92,42.29 13.96,42.54 14.19,42.72 15.95,41.98 "
       id="polygon203"
       style="stroke-width:0.894966" />
    <polygon
       class="cls-14"
       points="20.96,44.31 20.43,44.03 19.53,46.58 19.73,46.67 20.38,46.56 "
       id="polygon205"
       style="stroke-width:0.894966" />
    <polygon
       class="cls-26"
       points="18.1,38.02 18.34,38.16 18.37,38.3 17.85,38.26 "
       id="polygon207"
       style="stroke-width:0.894966" />
    <polygon
       class="cls-26"
       points="16.82,38.61 16.93,38.25 18,39 "
       id="polygon209"
       style="stroke-width:0.894966" />
    <path
       class="cls-27"
       d="m 14.78,40.08 -0.07,0.54 0.33,0.43 c 0,0 1.73,-0.13 2.21,-0.19 a 13.5,13.5 0 0 1 1.55,0 6.06,6.06 0 0 1 -0.83,-0.25 5.09,5.09 0 0 1 0.73,0.11 l -0.17,-0.25 c 0,0 -0.88,0 -0.93,-0.07 -0.05,-0.07 -0.23,-0.26 -0.23,-0.26 z"
       id="path211" />
    <polygon
       class="cls-27"
       points="18.77,44.15 20.44,43.12 18.26,43.88 17.28,44.03 17.4,44.53 18.22,44.77 "
       id="polygon213" />
    <polygon
       class="cls-27"
       points="13.92,42.29 13.96,42.54 14.19,42.72 15.95,41.98 "
       id="polygon215" />
    <polygon
       class="cls-27"
       points="20.96,44.31 20.43,44.03 19.53,46.58 19.73,46.67 20.38,46.56 "
       id="polygon217" />
    <polygon
       class="cls-26"
       points="22.87,42.91 23.07,44.49 22.49,44.58 "
       id="polygon219"
       style="stroke-width:0.894966" />
    <path
       class="cls-26"
       d="m 21.56,44.77 -0.42,0.36 0.09,0.22 -0.2,0.33 a 2.23,2.23 0 0 1 0.34,0.15 8.66,8.66 0 0 0 0.19,-1.06 z"
       id="path221"
       style="stroke-width:0.894966" />
    <polygon
       class="cls-26"
       points="28.4,42.12 28.5,42.36 28.39,42.52 26.51,42.4 "
       id="polygon223"
       style="stroke-width:0.894966" />
    <polygon
       class="cls-26"
       points="25.5,43.05 23.8,42.52 24.08,42.36 25.8,42.48 25.86,42.77 "
       id="polygon225"
       style="stroke-width:0.894966" />
    <path
       class="cls-26"
       d="m 28.31,44 1.9,0.37 0.34,0.4 -0.07,0.13 -3.59,-1.08 c 0,0 0.05,-0.14 0.07,-0.13 z"
       id="path227"
       style="stroke-width:0.894966" />
    <polygon
       class="cls-26"
       points="29.05,43.87 27.6,43.59 27.85,43.48 29.94,43.6 29.92,43.86 "
       id="polygon229"
       style="stroke-width:0.894966" />
    <polygon
       class="cls-26"
       points="29.84,41.16 30.27,41.31 30.02,41.44 29.55,41.29 "
       id="polygon231"
       style="stroke-width:0.894966" />
    <polygon
       class="cls-26"
       points="28.59,41.39 28.87,41.58 28.7,41.67 28.45,41.49 "
       id="polygon233"
       style="stroke-width:0.894966" />
    <polygon
       class="cls-26"
       points="18.1,38.02 18.34,38.16 18.37,38.3 17.85,38.26 "
       id="polygon235"
       style="stroke-width:0.894966" />
    <polygon
       class="cls-26"
       points="16.51,38.6 16.69,38.06 18.3,39.2 "
       id="polygon237"
       style="stroke-width:0.894966" />
    <path
       class="cls-28"
       d="M 29.78,21.39 A 5.14,5.14 0 0 0 29.25,20.64 C 29.1,20.41 29.02,20.15 28.86,19.93 a 3,3 0 0 1 -0.47,-2.52 4.79,4.79 0 0 1 0.36,-1 c 0,-0.05 0.14,-0.36 0.2,-0.37 l -8,1.77 A 2.24,2.24 0 0 1 21,20 5.41,5.41 0 0 0 20.2,21.46 l 0.68,1.63 v 0.85 l 1.35,0.9 a 8.91,8.91 0 0 0 5.91,-0.74 3,3 0 0 0 1.63,-1.78 2.45,2.45 0 0 0 0,-0.72 1.29,1.29 0 0 0 0.01,-0.21 z"
       id="path239"
       style="fill:url(#linearGradient1181);stroke-width:0.894966" />
    <g
       class="cls-29"
       clip-path="url(#clip-path-4)"
       id="g245"
       style="stroke-width:0.894966">
      <path
         class="cls-30"
         d="m 24.88,23.59 c -1.14,0 -1.72,-1.58 -1.71,-2.54 0.01,-0.96 0.69,-1 1,-0.87 C 24.48,20.31 25,21 25,21 c 0,0 0.2,-0.81 0.57,-1 a 1.61,1.61 0 0 1 1.39,0.53 l 0.49,0.48 a 4.79,4.79 0 0 1 0,-0.8 c 0.06,-0.51 0,-0.64 0.36,-0.72 0.36,-0.08 0.94,0.56 0.94,0.56 a 6.37,6.37 0 0 1 -0.72,-1.92 c 0,-0.58 -1.74,-0.37 -1.74,-0.37 l -5,0.66 a 2.44,2.44 0 0 1 -0.25,1.44 6,6 0 0 0 -0.89,1.6 c 0.07,0.16 0,2.29 0,2.29 l 0.65,2.14 1.52,0.6 1.6,0.09 0.89,-0.17 z"
         id="path241"
         style="fill:url(#linear-gradient-12);stroke-width:0.894966" />
      <path
         class="cls-31"
         d="m 21.52,20.38 c 0.51,-0.52 0.16,-1.58 0.16,-1.58 l 0.74,0.17 1.49,0.31 c 0,0 -1.05,0 -1.34,0.38 a 8.32,8.32 0 0 1 -1,1.46 2.92,2.92 0 0 0 -0.46,1.68 18.58,18.58 0 0 0 0.18,2 3.23,3.23 0 0 1 -0.74,-1.05 3.42,3.42 0 0 1 -0.13,-1.35 1.13,1.13 0 0 1 0.05,-0.32 c 0,-0.16 0.17,-0.25 0.24,-0.39 a 2.65,2.65 0 0 0 0.18,-0.42 3.53,3.53 0 0 1 0.63,-0.89 z"
         id="path243"
         style="fill:url(#linearGradient1183);stroke-width:0.894966" />
    </g>
    <path
       class="cls-32"
       d="m 29.8,21.38 a 6.43,6.43 0 0 0 -1,-1.33 c -1.34,-1.53 0.14,-4 0.14,-4 l -8,1.77 A 2.24,2.24 0 0 1 21,20 5.41,5.41 0 0 0 20.2,21.46 l 0.42,1.95 0.26,0.53 1.35,0.9 A 8.91,8.91 0 0 0 28.14,24.1 C 30,23 29.87,22 29.8,21.38 Z"
       id="path247" />
    <path
       class="cls-26"
       d="m 21.81,24.52 1.22,0.81 c 0,0 0.79,1.28 0.26,1.11 a 4.41,4.41 0 0 1 -2.55,-2.32 2.92,2.92 0 0 1 -0.14,-0.6"
       id="path249"
       style="stroke-width:0.894966" />
    <path
       class="cls-33"
       d="M 24.2,9.09 A 7,7 0 0 1 25,7.25 8.51,8.51 0 0 1 26.89,5.06 c 0.3,-0.21 0.62,-0.17 1,0.62 a 13.88,13.88 0 0 1 0.9,4.27"
       id="path251"
       style="fill:url(#linear-gradient-14);stroke-width:0.894966" />
    <path
       class="cls-34"
       d="m 25.49,9.72 a 7.18,7.18 0 0 1 0.72,-2.15 c 0.28,-0.51 0.77,-1.11 0.93,-1.11 0.16,0 0.43,0.78 0.65,1.74 0.22,0.96 0.34,2 0.34,2"
       id="path253"
       style="fill:url(#linearGradient1185);stroke-width:0.894966" />
    <path
       class="cls-35"
       d="M 24.2,9.09 A 7,7 0 0 1 25,7.25 8.51,8.51 0 0 1 26.89,5.06 c 0.3,-0.21 0.62,-0.17 1,0.62 a 13.88,13.88 0 0 1 0.9,4.27"
       id="path255" />
    <path
       class="cls-26"
       d="m 26.57,7 c 0.14,-0.24 0.4,-0.59 0.56,-0.57 0.16,0.02 0.33,0.35 0.54,1.13 A 10.47,10.47 0 0 1 28,9.1 9.43,9.43 0 0 0 27.28,7.35 C 26.91,6.88 26.57,7 26.57,7 Z"
       id="path257"
       style="stroke-width:0.894966" />
    <path
       class="cls-26"
       d="m 26.64,6.88 c 0,0 -1.09,1.56 -1,2.45 L 26.7,9.54 A 2.82,2.82 0 0 1 26.64,6.88 Z"
       id="path259"
       style="stroke-width:0.894966" />
    <path
       class="cls-14"
       d="m 19.71,17.32 a 4.57,4.57 0 0 1 -0.38,-5 7.25,7.25 0 0 1 4.37,-3.84 6.44,6.44 0 0 1 5.45,1.62 6.09,6.09 0 0 1 1.79,5.06 6.08,6.08 0 0 1 -2.15,2.53 8.25,8.25 0 0 1 -4.43,1.46 8.61,8.61 0 0 1 -2.4,-0.3 4.15,4.15 0 0 1 -2.25,-1.53 z"
       id="path261"
       style="stroke-width:0.894966" />
    <path
       class="cls-36"
       d="m 19.71,17.32 a 4.57,4.57 0 0 1 -0.38,-5 7.25,7.25 0 0 1 4.37,-3.84 6.44,6.44 0 0 1 5.45,1.62 6.09,6.09 0 0 1 1.79,5.06 6.08,6.08 0 0 1 -2.15,2.53 8.25,8.25 0 0 1 -4.43,1.46 8.61,8.61 0 0 1 -2.4,-0.3 4.15,4.15 0 0 1 -2.25,-1.53 z"
       id="path263"
       style="fill:url(#linear-gradient-16);stroke-width:0.894966" />
    <path
       class="cls-37"
       d="m 30.94,15.16 a 6.08,6.08 0 0 1 -2.15,2.53 8.34,8.34 0 0 1 -4.44,1.46 9,9 0 0 1 -2.39,-0.3 4.15,4.15 0 0 1 -2.25,-1.53 4.29,4.29 0 0 1 -0.85,-3.59 1.1,1.1 0 0 0 1.2,0 4.17,4.17 0 0 0 0.5,2.3 3.44,3.44 0 0 0 3.14,1.61 3.71,3.71 0 0 0 2.49,-1.29 1.34,1.34 0 0 1 1.23,-0.74 1.71,1.71 0 0 0 1.65,-0.36 0.87,0.87 0 0 0 0.14,-0.27 C 29.28,14.69 29.09,14.42 29,14.14 a 2.57,2.57 0 0 1 0.29,-1.63 5.9,5.9 0 0 0 0,-1.19 A 2.51,2.51 0 0 0 29,10 l 0.16,0.12 a 6.12,6.12 0 0 1 1.78,5.04 z"
       id="path265"
       style="fill:url(#linear-gradient-17);stroke-width:0.894966" />
    <path
       class="cls-38"
       d="M 20.42,17.14 A 3.53,3.53 0 0 1 19.3,15.36 3.49,3.49 0 0 1 19.2,13.89 l 0.7,-0.13 a 4.85,4.85 0 0 0 0.52,3.38 z"
       id="path267"
       style="fill:url(#linear-gradient-18);stroke-width:0.894966" />
    <path
       class="cls-39"
       d="m 29.61,12.05 c 0.25,0.78 0.07,1.06 0.07,1.06 a 0.78,0.78 0 0 1 -0.49,0.42 1.14,1.14 0 0 1 -0.8,-0.06 v 0 a 2.67,2.67 0 0 1 -0.46,-1.89 0.82,0.82 0 0 1 0.89,-0.64 0.29,0.29 0 0 1 0.13,0 2.53,2.53 0 0 1 0.66,1.11 z"
       id="path269"
       style="fill:url(#linearGradient1187);stroke-width:0.894966" />
    <path
       class="cls-40"
       d="m 25.47,14.78 a 1.52,1.52 0 0 1 -0.38,0.91 2.14,2.14 0 0 1 -1.17,0.37 1.67,1.67 0 0 1 -0.92,-0.68 3,3 0 0 1 -0.49,-1.22 1.68,1.68 0 0 1 1.34,-0.67 1.85,1.85 0 0 1 1.62,1.29 z"
       id="path271"
       style="fill:url(#linear-gradient-20);stroke-width:0.894966" />
    <path
       class="cls-41"
       d="m 25.59,15.08 -0.12,-0.3 a 1.85,1.85 0 0 0 -1.62,-1.29 1.68,1.68 0 0 0 -1.34,0.67 2,2 0 0 0 -0.33,0.51"
       id="path273" />
    <path
       class="cls-41"
       d="m 22.51,14.16 a 3,3 0 0 0 0.49,1.22 1.67,1.67 0 0 0 0.92,0.68 2.14,2.14 0 0 0 1.17,-0.37 1.52,1.52 0 0 0 0.38,-0.91"
       id="path275" />
    <path
       class="cls-41"
       d="m 28.37,13.46 a 2.67,2.67 0 0 1 -0.46,-1.89 0.82,0.82 0 0 1 0.89,-0.64 0.29,0.29 0 0 1 0.13,0 1.08,1.08 0 0 1 0.55,0.33"
       id="path277" />
    <path
       class="cls-41"
       d="m 28.93,10.94 a 2.53,2.53 0 0 1 0.68,1.11 c 0.25,0.78 0.07,1.06 0.07,1.06 a 0.78,0.78 0 0 1 -0.49,0.42 1.14,1.14 0 0 1 -0.8,-0.06 v 0"
       id="path279" />
    <path
       class="cls-32"
       d="m 19.71,17.32 a 4.57,4.57 0 0 1 -0.38,-5 7.25,7.25 0 0 1 4.37,-3.84 6.44,6.44 0 0 1 5.45,1.62 5.66,5.66 0 0 1 1.65,5 4.42,4.42 0 0 1 -2,2.58 8.25,8.25 0 0 1 -4.43,1.46 8.61,8.61 0 0 1 -2.4,-0.3 4.15,4.15 0 0 1 -2.26,-1.52 z"
       id="path281" />
    <path
       class="cls-42"
       d="m 28.55,14.8 a 3.21,3.21 0 0 1 -0.95,0.5 c -0.31,0.1 -0.33,0.48 0.1,0.52 a 1.67,1.67 0 0 0 0.94,-0.07 1,1 0 0 0 0.5,-0.79 C 29.21,14.63 29,14.41 28.55,14.8 Z"
       id="path283"
       style="fill:url(#linear-gradient-21);stroke-width:0.894966" />
    <path
       class="cls-43"
       d="m 28.55,14.8 a 3.21,3.21 0 0 1 -0.95,0.5 c -0.31,0.1 -0.33,0.48 0.1,0.52 a 1.67,1.67 0 0 0 0.94,-0.07 1,1 0 0 0 0.5,-0.79 C 29.21,14.63 29,14.41 28.55,14.8 Z"
       id="path285" />
    <path
       class="cls-44"
       d="m 19.12,13.82 a 2,2 0 0 1 -1,-1 A 29.44,29.44 0 0 1 17,8.7 0.67,0.67 0 0 1 17.74,8 8,8 0 0 1 19.58,8.39 23.23,23.23 0 0 1 22,9.5 0.42,0.42 0 0 1 22.3,9.94 c 0,0.37 -0.7,0.69 -1.37,1.86 a 6,6 0 0 0 -0.84,1.69 0.71,0.71 0 0 1 -0.97,0.33 z"
       id="path287"
       style="fill:url(#linear-gradient-22);stroke-width:0.894966" />
    <path
       class="cls-45"
       d="m 22.39,10 c 0,0 0,-0.17 -0.37,-0.46 A 9.12,9.12 0 0 0 19.58,8.42 8,8 0 0 0 17.74,8 0.67,0.67 0 0 0 17,8.7 a 29.44,29.44 0 0 0 1.14,4.11 2,2 0 0 0 1,1 A 0.85,0.85 0 0 0 20,13.7"
       id="path289" />
    <path
       class="cls-26"
       d="m 29.79,17 c 0,0 0.43,-0.83 0.05,-0.47 a 0.62,0.62 0 0 1 -0.85,0.09 c -0.16,0.62 -1.78,1.6 -2.49,1.86 a 8.94,8.94 0 0 1 -3,0.47 c 0,0 1.12,0.6 3.21,-0.25 A 12.5,12.5 0 0 0 29.79,17 Z"
       id="path291"
       style="stroke-width:0.894966" />
    <path
       class="cls-46"
       d="m 19,9.28 c -0.34,0 -0.49,0.06 -0.46,0.31 0.03,0.25 0.68,2.66 1.09,2.92 0.41,0.26 0.73,0.2 0.81,0.05 A 8.46,8.46 0 0 1 21.61,10.77 0.48,0.48 0 0 0 21.4,10.13 15.17,15.17 0 0 0 19,9.28 Z"
       id="path293"
       style="fill:url(#linear-gradient-23);stroke-width:0.894966" />
    <path
       class="cls-26"
       d="M 21.4,10.13 A 18.73,18.73 0 0 0 19.09,9.29 c -0.23,0 -0.49,-0.08 -0.55,0.14 a 3.59,3.59 0 0 0 0.23,1 c 0,0 -0.08,-0.61 0.24,-0.67 a 11.84,11.84 0 0 1 2.39,0.37 z"
       id="path295"
       style="stroke-width:0.894966" />
    <path
       class="cls-14"
       d="m 26.43,23.74 a 2.63,2.63 0 0 0 -0.08,0.82 1.42,1.42 0 0 1 -0.15,1 2.4,2.4 0 0 1 -1.59,0.84 3,3 0 0 1 -0.51,0 c -0.83,0 -1.46,-0.38 -1.48,-1.21 0,-0.42 0,-1.76 0,-2 a 2.29,2.29 0 0 1 0.63,-1.3 4.25,4.25 0 0 1 2.08,-1.06 2.18,2.18 0 0 1 2.27,0.95 1,1 0 0 1 0,1.19 0.39,0.39 0 0 1 -0.34,0.12 0.65,0.65 0 0 1 -0.33,0.54 1,1 0 0 1 -0.85,0.09 0.64,0.64 0 0 1 -0.53,0.5 0.91,0.91 0 0 1 -1,-0.35 0.87,0.87 0 0 0 -0.79,-0.28"
       id="path297"
       style="stroke-width:0.894966" />
    <path
       class="cls-47"
       d="m 27.27,23 a 1,1 0 0 1 -0.28,0.61 c 0,0 0,0 0,0 a 1.48,1.48 0 0 1 -0.29,0.22 l -0.3,0.13 a 1.69,1.69 0 0 0 -1,0.79 3.63,3.63 0 0 0 -0.34,1.25 0.42,0.42 0 0 1 -0.1,0.26 h -0.07 -0.28 a 2.3,2.3 0 0 1 -0.52,0 c -0.81,0 -1.46,-0.38 -1.47,-1.2 0,-0.43 0,-1.77 0,-2 a 2.23,2.23 0 0 1 0.63,-1.3 2,2 0 0 1 0.53,-0.42 l 0.2,-0.08 a 0.88,0.88 0 0 0 -0.41,0.62 0.58,0.58 0 0 0 0,0.26 0.68,0.68 0 0 0 0.48,0.37 2.06,2.06 0 0 1 0.6,0.17 2.47,2.47 0 0 1 0.37,0.35 0.66,0.66 0 0 0 0.42,0.24 c 0.16,0 0.34,-0.13 0.32,-0.29 a 0.64,0.64 0 0 0 0.76,-0.22 1.6,1.6 0 0 0 0.27,-0.81 1.06,1.06 0 0 1 0.48,1.05 z"
       id="path299"
       style="fill:url(#linear-gradient-24);stroke-width:0.894966" />
    <path
       class="cls-45"
       d="m 26.43,23.74 a 2.63,2.63 0 0 0 -0.08,0.82 1.42,1.42 0 0 1 -0.15,1 2.4,2.4 0 0 1 -1.59,0.84 3,3 0 0 1 -0.51,0 c -0.83,0 -1.46,-0.38 -1.48,-1.21 0,-0.42 0,-1.76 0,-2 a 2.29,2.29 0 0 1 0.63,-1.3 4.25,4.25 0 0 1 2.08,-1.06 2.18,2.18 0 0 1 2.27,0.95 1,1 0 0 1 0,1.19 0.39,0.39 0 0 1 -0.34,0.12 0.65,0.65 0 0 1 -0.33,0.54 1,1 0 0 1 -0.85,0.09 0.64,0.64 0 0 1 -0.53,0.5 0.91,0.91 0 0 1 -1,-0.35 0.87,0.87 0 0 0 -0.79,-0.28"
       id="path301" />
    <path
       class="cls-45"
       d="M 27.33,23.06 A 1.54,1.54 0 0 0 26.81,21.7"
       id="path303" />
    <path
       class="cls-45"
       d="m 25.5,22.35 a 1.48,1.48 0 0 1 0.45,0.49 1.73,1.73 0 0 1 0.2,0.85"
       id="path305" />
    <path
       class="cls-48"
       d="m 35.46,18.66 -2.6,3.92 c -0.11,0.82 -0.26,1.68 -0.45,2.56 L 25.2,36 a 4,4 0 0 0 -3.1,-2 l 7.21,-10.88 c 0.75,-0.51 1.48,-1 2.19,-1.4 l 2.6,-3.92"
       id="path307"
       style="fill:url(#linearGradient1189);stroke-width:0.894966" />
    <path
       class="cls-49"
       d="m 33.63,18.47 -2.13,3.21 c -0.71,0.42 -1.44,0.89 -2.19,1.4 L 22.1,34 a 4.27,4.27 0 0 1 0.86,0.19 c 1.58,-2.32 6.4,-9.35 6.82,-9.94 0.42,-0.59 1.25,-0.76 1.55,-1 a 6.1,6.1 0 0 0 0.77,-1 l 2,-2.95 z"
       id="path309"
       style="fill:url(#linearGradient1191);stroke-width:0.894966" />
    <path
       class="cls-49"
       d="m 33.63,18.47 -2.13,3.21 c -0.71,0.42 -1.44,0.89 -2.19,1.4 L 22.1,34 a 4.27,4.27 0 0 1 0.86,0.19 c 1.58,-2.32 6.4,-9.35 6.82,-9.94 0.42,-0.59 1.25,-0.76 1.55,-1 a 6.1,6.1 0 0 0 0.77,-1 l 2,-2.95 z"
       id="path311"
       style="fill:url(#linearGradient1193);stroke-width:0.894966" />
    <path
       class="cls-50"
       d="m 31.34,25.33 -6.53,9.79 -1.35,-1.06 c 0,0 6.06,-9.24 6.6,-9.75 a 0.83,0.83 0 0 1 1.28,1.02 z"
       id="path313"
       style="fill:url(#linear-gradient-28);stroke-width:0.894966" />
    <path
       class="cls-51"
       d="m 24.71,31.6 c 0,0 4.88,-7.15 5.07,-7.39 a 1.14,1.14 0 0 1 1.4,-0.25 1.06,1.06 0 0 1 0.16,1.37 c 0,0 0.05,-0.58 -0.4,-0.76 A 0.74,0.74 0 0 0 30,25 c -0.2,0.33 -2.8,3.86 -3,4.2 -0.2,0.34 -2.39,3.45 -2.39,3.45 l -1.11,0.73 z"
       id="path315"
       style="fill:url(#linear-gradient-29);stroke-width:0.894966" />
    <path
       class="cls-52"
       d="M 26.12,34.63 A 4,4 0 0 0 23,32.57 c -0.46,0.7 -0.3,0.72 -0.76,1.42 a 3.92,3.92 0 0 1 3.1,2 c 0.48,-0.64 0.32,-0.67 0.78,-1.36 z"
       id="path317"
       style="fill:url(#linear-gradient-30);stroke-width:0.894966" />
    <path
       class="cls-53"
       d="m 35.46,18.66 -2.6,3.92 c -0.11,0.82 -0.26,1.68 -0.45,2.56 L 25.2,36 a 4,4 0 0 0 -3.1,-2 l 7.21,-10.88 c 0.75,-0.51 1.48,-1 2.19,-1.4 l 2.6,-3.92"
       id="path319" />
    <path
       class="cls-54"
       d="m 32.93,18.89 c -0.25,0.39 0,1 0.52,1.34 a 1,1 0 0 0 1.42,-0.07 l 1.49,-2.23 -2,-1.27 z"
       id="path321"
       style="fill:url(#linear-gradient-31);stroke-width:0.894966" />
    <path
       class="cls-53"
       d="m 33.1,18.86 c -0.23,0.35 0,0.88 0.46,1.2 A 0.94,0.94 0 0 0 34.85,20 l 1.33,-2 -1.75,-1.14 z"
       id="path323" />
    <path
       class="cls-55"
       d="m 34.75,18.15 c 0.6,0.4 1.4,0.68 1.9,0.14 0.5,-0.54 3.13,-3.43 4.89,-5.77 a 30.82,30.82 0 0 0 3.34,-5.17 2.57,2.57 0 0 0 -1,-2.92 2.54,2.54 0 0 0 -3.07,0.24 30.58,30.58 0 0 0 -3.47,5.08 c -1.47,2.53 -3.12,6.07 -3.42,6.75 -0.3,0.68 0.27,1.3 0.88,1.7 z"
       id="path325"
       style="stroke-width:0.894966" />
    <path
       class="cls-56"
       d="m 22.7,35.35 c 0,-1.7 3.69,-4.5 3.69,-4.5 l 0.48,1.09 c 0,0 -2.12,1.46 -2.32,2.34 l -0.18,2"
       id="path327"
       style="fill:url(#linear-gradient-32);stroke-width:0.894966" />
    <path
       class="cls-57"
       d="m 24.39,35.22 c 0,0.43 0.14,1.27 -0.46,1.21 -0.6,-0.06 -0.4,-1.4 -0.3,-1.83 a 9.14,9.14 0 0 1 2.61,-2.91 l 0.28,0.37 a 11.27,11.27 0 0 0 -1.72,1.64 5,5 0 0 0 -0.41,1.52 z"
       id="path329"
       style="fill:url(#linear-gradient-33);stroke-width:0.894966" />
    <path
       class="cls-27"
       d="m 24.44,37.94 0.11,-3.66 c 0.2,-0.88 2.32,-2.34 2.32,-2.34 l -0.48,-1.09 c 0,0 -3.69,2.8 -3.69,4.5 l -0.05,0.84"
       id="path331" />
    <path
       class="cls-58"
       d="m 43.9,4.42 v 0 l -0.31,0.47 c 0.61,0.38 0.93,1 0.7,1.36 -0.23,0.36 -0.93,0.37 -1.55,0 v 0 l -7.92,12 c 0,0 0,0 0,0 0.59,0.37 1.34,0.61 1.83,0.1 0.49,-0.51 3.12,-3.44 4.88,-5.79 A 29.66,29.66 0 0 0 44.88,7.4 2.57,2.57 0 0 0 43.9,4.42 Z"
       id="path333"
       style="fill:url(#linear-gradient-34);stroke-width:0.894966" />
    <path
       class="cls-59"
       d="m 43.58,4.89 0.31,-0.47 a 2.55,2.55 0 0 0 -3.06,0.25 30.72,30.72 0 0 0 -3.46,5.08 c -1.48,2.54 -3.13,6.06 -3.43,6.75 -0.3,0.69 0.23,1.24 0.81,1.65 v 0 l 7.92,-12 v 0 c 0.62,0.38 1.32,0.39 1.55,0 0.23,-0.39 -0.03,-0.88 -0.64,-1.26 z"
       id="path335"
       style="fill:url(#linear-gradient-35);stroke-width:0.894966" />
    <path
       class="cls-60"
       d="m 42.49,4.63 a 2,2 0 0 1 1.08,0.3 2,2 0 0 1 0.76,2.18 31.16,31.16 0 0 1 -3.27,5.05 c -1.78,2.36 -4.4,5.25 -4.85,5.72 A 0.3,0.3 0 0 1 36,18 1.75,1.75 0 0 1 35.17,17.69 c -0.19,-0.13 -0.79,-0.58 -0.63,-0.94 0.26,-0.59 1.91,-4.13 3.39,-6.68 a 30.79,30.79 0 0 1 3.39,-5 1.69,1.69 0 0 1 1.22,-0.45 m 0,-0.6 a 2.27,2.27 0 0 0 -1.66,0.64 30.58,30.58 0 0 0 -3.47,5.08 c -1.47,2.53 -3.12,6.07 -3.42,6.75 -0.3,0.68 0.25,1.27 0.84,1.67 a 2.22,2.22 0 0 0 1.17,0.42 0.9,0.9 0 0 0 0.7,-0.3 c 0.51,-0.54 3.13,-3.43 4.89,-5.77 A 30.82,30.82 0 0 0 44.93,7.34 2.57,2.57 0 0 0 43.93,4.42 2.5,2.5 0 0 0 42.49,4 Z m -7.79,14.13 0.07,0.05 v 0 0 z"
       id="path337"
       style="stroke-width:0.894966" />
    <path
       class="cls-26"
       d="m 19.17,16.06 a 5.44,5.44 0 0 1 -0.09,-1.21 3.42,3.42 0 0 0 0,-1 1.06,1.06 0 0 0 -0.34,-0.49 c -0.2,-0.17 -0.44,-0.31 -0.52,-0.55 0,0 0,-0.08 0,-0.09 0,-0.01 -0.06,0 -0.09,0 l -0.44,0.33 a 0.44,0.44 0 0 0 -0.17,0.19 0.39,0.39 0 0 0 0,0.26 13.93,13.93 0 0 0 2.14,4.95 c 0.21,0.26 0.52,0.43 0.73,0.67 a 1.4,1.4 0 0 1 0.17,1.08 c -0.05,0.33 -0.15,0.65 -0.18,1 a 4.77,4.77 0 0 0 0.35,1.89 c 0.07,-0.38 0.16,-0.76 0.26,-1.13 a 3.11,3.11 0 0 1 0.47,-1.09 c 0.11,-0.14 0.23,-0.27 0.32,-0.41 a 2.19,2.19 0 0 0 0.19,-1.27 0.28,0.28 0 0 0 0,-0.13 c 0,0 -0.07,-0.07 -0.11,-0.1 -1.08,-0.63 -2.45,-1.63 -2.69,-2.9 z"
       id="path339"
       style="stroke-width:0.894966" />
  </g>
</svg>
