<?xml version="1.0" encoding="UTF-8" standalone="no"?>
<svg
   xmlns:dc="http://purl.org/dc/elements/1.1/"
   xmlns:cc="http://creativecommons.org/ns#"
   xmlns:rdf="http://www.w3.org/1999/02/22-rdf-syntax-ns#"
   xmlns:svg="http://www.w3.org/2000/svg"
   xmlns="http://www.w3.org/2000/svg"
   xmlns:xlink="http://www.w3.org/1999/xlink"
   xmlns:sodipodi="http://sodipodi.sourceforge.net/DTD/sodipodi-0.dtd"
   xmlns:inkscape="http://www.inkscape.org/namespaces/inkscape"
   viewBox="0 0 48 48"
   version="1.1"
   id="svg281"
   sodipodi:docname="sculpture.svg"
   inkscape:version="1.0.1 (3bc2e813f5, 2020-09-07)">
  <metadata
     id="metadata285">
    <rdf:RDF>
      <cc:Work
         rdf:about="">
        <dc:format>image/svg+xml</dc:format>
        <dc:type
           rdf:resource="http://purl.org/dc/dcmitype/StillImage" />
      </cc:Work>
    </rdf:RDF>
  </metadata>
  <sodipodi:namedview
     pagecolor="#ffffff"
     bordercolor="#666666"
     borderopacity="1"
     objecttolerance="10"
     gridtolerance="10"
     guidetolerance="10"
     inkscape:pageopacity="0"
     inkscape:pageshadow="2"
     inkscape:window-width="2560"
     inkscape:window-height="1377"
     id="namedview283"
     showgrid="false"
     inkscape:zoom="15.3125"
     inkscape:cx="24"
     inkscape:cy="24"
     inkscape:window-x="-8"
     inkscape:window-y="-8"
     inkscape:window-maximized="1"
     inkscape:current-layer="svg281" />
  <defs
     id="defs82">
    <style
       id="style2">.cls-1{fill:#d0d0d0;}.cls-2{fill:url(#radial-gradient);}.cls-3{fill:#888a85;}.cls-4{fill:#d3d7cf;}.cls-5{fill:url(#linear-gradient);}.cls-6,.cls-8{opacity:0.6;}.cls-6{fill:url(#linear-gradient-2);}.cls-7{fill:url(#linear-gradient-3);}.cls-8{fill:url(#linear-gradient-4);}.cls-21,.cls-41,.cls-42,.cls-9{fill:none;}.cls-10,.cls-21,.cls-41,.cls-9{stroke:#466861;}.cls-10,.cls-21,.cls-42,.cls-9{stroke-miterlimit:10;}.cls-9{stroke-width:0.7px;}.cls-10,.cls-28{fill:#466861;}.cls-10,.cls-21,.cls-41{stroke-width:0.35px;}.cls-11{fill:#88b5ae;}.cls-12{fill:url(#linear-gradient-5);}.cls-13{fill:url(#linear-gradient-6);}.cls-14{fill:url(#linear-gradient-7);}.cls-15{fill:url(#linear-gradient-8);}.cls-16{fill:url(#linear-gradient-9);}.cls-17{fill:url(#linear-gradient-10);}.cls-18{fill:url(#linear-gradient-11);}.cls-19{fill:url(#linear-gradient-12);}.cls-20{fill:url(#linear-gradient-13);}.cls-22{fill:url(#linear-gradient-14);}.cls-23{fill:url(#linear-gradient-15);}.cls-24{fill:url(#linear-gradient-16);}.cls-25{fill:url(#linear-gradient-17);}.cls-26{fill:url(#linear-gradient-18);}.cls-27{fill:url(#linear-gradient-19);}.cls-29{fill:url(#linear-gradient-20);}.cls-30{fill:url(#linear-gradient-21);}.cls-31{fill:url(#linear-gradient-22);}.cls-32{fill:url(#linear-gradient-23);}.cls-33{fill:url(#linear-gradient-24);}.cls-34{fill:url(#linear-gradient-25);}.cls-35{fill:url(#linear-gradient-26);}.cls-36{fill:url(#linear-gradient-27);}.cls-37{fill:url(#linear-gradient-28);}.cls-38{fill:url(#linear-gradient-29);}.cls-39{fill:url(#linear-gradient-30);}.cls-40{fill:url(#linear-gradient-31);}.cls-41{stroke-linecap:round;stroke-linejoin:round;}.cls-42{stroke:#231f20;stroke-width:0.26px;}.cls-43{fill:url(#linear-gradient-32);}.cls-44{fill:url(#linear-gradient-33);}.cls-45{fill:url(#linear-gradient-34);}.cls-46{fill:url(#linear-gradient-35);}.cls-47{fill:url(#linear-gradient-36);}.cls-48{fill:url(#linear-gradient-37);}.cls-49{fill:url(#linear-gradient-38);}.cls-50{fill:url(#linear-gradient-39);}.cls-51{fill:url(#linear-gradient-40);}.cls-52{fill:url(#linear-gradient-41);}.cls-53{fill:url(#linear-gradient-42);}.cls-54{fill:url(#linear-gradient-43);}.cls-55{fill:url(#linear-gradient-44);}.cls-56{fill:url(#linear-gradient-45);}.cls-57{fill:url(#linear-gradient-46);}.cls-58{fill:url(#linear-gradient-47);}</style>
    <radialGradient
       id="radial-gradient"
       cx="8.51"
       cy="40.16"
       r="20.85"
       gradientTransform="matrix(1.13,0.07,-0.17,0.43,21.11,19.41)"
       gradientUnits="userSpaceOnUse">
      <stop
         offset="0.03"
         stop-color="#2c2c2c"
         stop-opacity="0.5"
         id="stop4" />
      <stop
         offset="0.68"
         stop-color="#2c2c2c"
         stop-opacity="0.1"
         id="stop6" />
      <stop
         offset="0.93"
         stop-color="#2c2c2c"
         stop-opacity="0"
         id="stop8" />
    </radialGradient>
    <linearGradient
       id="linear-gradient"
       x1="27.74"
       y1="37.67"
       x2="20.53"
       y2="30.1"
       gradientUnits="userSpaceOnUse">
      <stop
         offset="0"
         stop-color="#fff"
         stop-opacity="0"
         id="stop11" />
      <stop
         offset="1"
         stop-color="snow"
         id="stop13" />
    </linearGradient>
    <linearGradient
       id="linear-gradient-2"
       x1="25.31"
       y1="32.23"
       x2="28.69"
       y2="37.27"
       gradientUnits="userSpaceOnUse">
      <stop
         offset="0"
         stop-color="#2e3436"
         id="stop16" />
      <stop
         offset="1"
         stop-color="#d3d7cf"
         id="stop18" />
    </linearGradient>
    <linearGradient
       id="linear-gradient-3"
       x1="16.51"
       y1="30.56"
       x2="16.85"
       y2="46.9"
       xlink:href="#linear-gradient" />
    <linearGradient
       id="linear-gradient-4"
       x1="19.79"
       y1="30.65"
       x2="30.27"
       y2="43.61"
       xlink:href="#linear-gradient-2" />
    <linearGradient
       id="linear-gradient-5"
       x1="29.42"
       y1="6.92"
       x2="29.14"
       y2="5.68"
       gradientUnits="userSpaceOnUse">
      <stop
         offset="0.01"
         stop-color="#afe2d8"
         stop-opacity="0"
         id="stop23" />
      <stop
         offset="0.99"
         stop-color="#d4efea"
         id="stop25" />
    </linearGradient>
    <linearGradient
       id="linear-gradient-6"
       x1="23.87"
       y1="27.24"
       x2="28.44"
       y2="27.24"
       gradientUnits="userSpaceOnUse">
      <stop
         offset="0.01"
         stop-color="#afe2d8"
         stop-opacity="0"
         id="stop28" />
      <stop
         offset="1"
         stop-color="#afe2d8"
         id="stop30" />
    </linearGradient>
    <linearGradient
       id="linear-gradient-7"
       x1="23.87"
       y1="26.96"
       x2="28.44"
       y2="26.96"
       xlink:href="#linear-gradient-5" />
    <linearGradient
       id="linear-gradient-8"
       x1="25.46"
       y1="26.92"
       x2="23.69"
       y2="23.54"
       gradientUnits="userSpaceOnUse">
      <stop
         offset="0"
         stop-color="#466861"
         stop-opacity="0"
         id="stop34" />
      <stop
         offset="1"
         stop-color="#466861"
         id="stop36" />
    </linearGradient>
    <linearGradient
       id="linear-gradient-9"
       x1="72.67"
       y1="58.05"
       x2="10"
       y2="14.53"
       xlink:href="#linear-gradient-6" />
    <linearGradient
       id="linear-gradient-10"
       x1="21.38"
       y1="22.07"
       x2="20.5"
       y2="20.65"
       xlink:href="#linear-gradient-5" />
    <linearGradient
       id="linear-gradient-11"
       x1="21.5"
       y1="23.09"
       x2="22.65"
       y2="20.26"
       xlink:href="#linear-gradient-8" />
    <linearGradient
       id="linear-gradient-12"
       x1="21.28"
       y1="25.26"
       x2="22.09"
       y2="21.7"
       xlink:href="#linear-gradient-8" />
    <linearGradient
       id="linear-gradient-13"
       x1="21.87"
       y1="26.38"
       x2="16.01"
       y2="27.54"
       xlink:href="#linear-gradient-5" />
    <linearGradient
       id="linear-gradient-14"
       x1="28.88"
       y1="6.4"
       x2="30.57"
       y2="7.6"
       xlink:href="#linear-gradient-8" />
    <linearGradient
       id="linear-gradient-15"
       x1="30.42"
       y1="8.1"
       x2="31.16"
       y2="10.6"
       xlink:href="#linear-gradient-8" />
    <linearGradient
       id="linear-gradient-16"
       x1="28.97"
       y1="7.67"
       x2="28.85"
       y2="6.86"
       gradientUnits="userSpaceOnUse">
      <stop
         offset="0.01"
         stop-color="#afe2d8"
         stop-opacity="0"
         id="stop46" />
      <stop
         offset="0.99"
         stop-color="#c8ebe4"
         id="stop48" />
    </linearGradient>
    <linearGradient
       id="linear-gradient-17"
       x1="29"
       y1="7.91"
       x2="31.28"
       y2="7.92"
       xlink:href="#linear-gradient-16" />
    <linearGradient
       id="linear-gradient-18"
       x1="30.55"
       y1="17.31"
       x2="30.34"
       y2="17.87"
       xlink:href="#linear-gradient-8" />
    <linearGradient
       id="linear-gradient-19"
       x1="24.67"
       y1="16.71"
       x2="24.74"
       y2="17.51"
       xlink:href="#linear-gradient-8" />
    <linearGradient
       id="linear-gradient-20"
       x1="23.74"
       y1="13.71"
       x2="22.5"
       y2="10.05"
       xlink:href="#linear-gradient-5" />
    <linearGradient
       id="linear-gradient-21"
       x1="28.78"
       y1="21.72"
       x2="33.37"
       y2="28.76"
       xlink:href="#linear-gradient-8" />
    <linearGradient
       id="linear-gradient-22"
       x1="24.3"
       y1="15.15"
       x2="21.61"
       y2="12.22"
       xlink:href="#linear-gradient-16" />
    <linearGradient
       id="linear-gradient-23"
       x1="25.13"
       y1="23.44"
       x2="30.32"
       y2="23.44"
       xlink:href="#linear-gradient-16" />
    <linearGradient
       id="linear-gradient-24"
       x1="30.11"
       y1="14.42"
       x2="29.62"
       y2="14.07"
       xlink:href="#linear-gradient-5" />
    <linearGradient
       id="linear-gradient-25"
       x1="27.04"
       y1="19.62"
       x2="27.04"
       y2="17.92"
       xlink:href="#linear-gradient-5" />
    <linearGradient
       id="linear-gradient-26"
       x1="18.27"
       y1="17.71"
       x2="20.3"
       y2="17.71"
       xlink:href="#linear-gradient-16" />
    <linearGradient
       id="linear-gradient-27"
       x1="18.27"
       y1="17.7"
       x2="20.51"
       y2="17.7"
       xlink:href="#linear-gradient-16" />
    <linearGradient
       id="linear-gradient-28"
       x1="26.99"
       y1="8.92"
       x2="29.07"
       y2="8.92"
       xlink:href="#linear-gradient-8" />
    <linearGradient
       id="linear-gradient-29"
       x1="28.04"
       y1="22.76"
       x2="29.84"
       y2="24.01"
       xlink:href="#linear-gradient-8" />
    <linearGradient
       id="linear-gradient-30"
       x1="23.93"
       y1="18.35"
       x2="24.63"
       y2="21.68"
       xlink:href="#linear-gradient-8" />
    <linearGradient
       id="linear-gradient-31"
       x1="23.87"
       y1="15.16"
       x2="26.11"
       y2="10.88"
       xlink:href="#linear-gradient-5" />
    <linearGradient
       id="linear-gradient-32"
       x1="21.87"
       y1="27.72"
       x2="21.17"
       y2="25"
       gradientTransform="matrix(1,0,-0.19,1,4.48,0)"
       xlink:href="#linear-gradient-5" />
    <linearGradient
       id="linear-gradient-33"
       x1="21.81"
       y1="15.12"
       x2="23.91"
       y2="16.31"
       xlink:href="#linear-gradient-8" />
    <linearGradient
       id="linear-gradient-34"
       x1="19.83"
       y1="32.9"
       x2="25.51"
       y2="26.69"
       xlink:href="#linear-gradient-8" />
    <linearGradient
       id="linear-gradient-35"
       x1="23.55"
       y1="27.96"
       x2="21.7"
       y2="34.51"
       xlink:href="#linear-gradient-8" />
    <linearGradient
       id="linear-gradient-36"
       x1="19.37"
       y1="28.84"
       x2="17.55"
       y2="29.08"
       xlink:href="#linear-gradient-8" />
    <linearGradient
       id="linear-gradient-37"
       x1="18.93"
       y1="25.51"
       x2="17.12"
       y2="25.75"
       xlink:href="#linear-gradient-8" />
    <linearGradient
       id="linear-gradient-38"
       x1="23.2"
       y1="13.61"
       x2="22.2"
       y2="11.71"
       xlink:href="#linear-gradient-8" />
    <linearGradient
       id="linear-gradient-39"
       x1="20.56"
       y1="15.3"
       x2="20.27"
       y2="14.44"
       xlink:href="#linear-gradient-8" />
    <linearGradient
       id="linear-gradient-40"
       x1="28.25"
       y1="12.56"
       x2="26.05"
       y2="15.69"
       xlink:href="#linear-gradient-8" />
    <linearGradient
       id="linear-gradient-41"
       x1="20.98"
       y1="30.2"
       x2="20.51"
       y2="28.38"
       xlink:href="#linear-gradient-6" />
    <linearGradient
       id="linear-gradient-42"
       x1="21.83"
       y1="31.58"
       x2="21.54"
       y2="30.49"
       xlink:href="#linear-gradient-6" />
    <linearGradient
       id="linear-gradient-43"
       x1="20.27"
       y1="31.19"
       x2="23.55"
       y2="29.43"
       xlink:href="#linear-gradient-8" />
    <linearGradient
       id="linear-gradient-44"
       x1="16.99"
       y1="26.11"
       x2="18.22"
       y2="23.09"
       xlink:href="#linear-gradient-8" />
    <linearGradient
       id="linear-gradient-45"
       x1="18.91"
       y1="26.89"
       x2="20.14"
       y2="23.87"
       xlink:href="#linear-gradient-8" />
    <linearGradient
       id="linear-gradient-46"
       x1="20.11"
       y1="27.38"
       x2="21.34"
       y2="24.36"
       xlink:href="#linear-gradient-8" />
    <linearGradient
       id="linear-gradient-47"
       x1="18.69"
       y1="26.81"
       x2="19.92"
       y2="23.78"
       xlink:href="#linear-gradient-8" />
    <linearGradient
       inkscape:collect="always"
       xlink:href="#linear-gradient"
       id="linearGradient1111"
       gradientUnits="userSpaceOnUse"
       x1="27.74"
       y1="37.67"
       x2="20.53"
       y2="30.1" />
    <linearGradient
       inkscape:collect="always"
       xlink:href="#linear-gradient-2"
       id="linearGradient1113"
       gradientUnits="userSpaceOnUse"
       x1="25.31"
       y1="32.23"
       x2="28.69"
       y2="37.27" />
    <linearGradient
       inkscape:collect="always"
       xlink:href="#linear-gradient-5"
       id="linearGradient1115"
       gradientUnits="userSpaceOnUse"
       x1="29.42"
       y1="6.92"
       x2="29.14"
       y2="5.68" />
    <linearGradient
       inkscape:collect="always"
       xlink:href="#linear-gradient-6"
       id="linearGradient1117"
       gradientUnits="userSpaceOnUse"
       x1="23.87"
       y1="27.24"
       x2="28.44"
       y2="27.24" />
    <linearGradient
       inkscape:collect="always"
       xlink:href="#linear-gradient-8"
       id="linearGradient1119"
       gradientUnits="userSpaceOnUse"
       x1="25.46"
       y1="26.92"
       x2="23.69"
       y2="23.54" />
    <linearGradient
       inkscape:collect="always"
       xlink:href="#linear-gradient-16"
       id="linearGradient1121"
       gradientUnits="userSpaceOnUse"
       x1="28.97"
       y1="7.67"
       x2="28.85"
       y2="6.86" />
  </defs>
  <title
     id="title84">25-Sculpture</title>
  <g
     id="shadow"
     transform="matrix(0.83179077,0,0,0.79401706,4.4599156,11.605845)"
     style="stroke-width:1.23049">
    <ellipse
       class="cls-2"
       cx="23.799999"
       cy="37.32"
       rx="22.940001"
       ry="8.79"
       transform="rotate(-3.36,23.814245,37.38197)"
       id="ellipse89"
       style="fill:url(#radial-gradient);stroke-width:1.23049" />
  </g>
  <g
     id="ART"
     transform="matrix(1.1875715,0,0,1.1875715,-1.9360226,-5.0377967)"
     style="stroke-width:0.842055">
    <path
       class="cls-3"
       d="M 13.52,31.14 19.75,36 v 6.84 l -6.23,-6.19 v -5.51 m 0,-0.7 a 0.67,0.67 0 0 0 -0.31,0.07 0.69,0.69 0 0 0 -0.39,0.63 v 5.54 a 0.7,0.7 0 0 0 0.2,0.5 l 6.23,6.18 a 0.69,0.69 0 0 0 0.5,0.21 0.58,0.58 0 0 0 0.26,-0.06 0.69,0.69 0 0 0 0.44,-0.64 V 36 A 0.69,0.69 0 0 0 20.18,35.45 L 14,30.59 a 0.7,0.7 0 0 0 -0.43,-0.15 z"
       id="path92"
       style="stroke-width:0.842055" />
    <path
       class="cls-3"
       d="M 24.46,30 32.27,33.82 19.75,36 13.52,31.11 24.46,30 m 0,-0.7 h -0.07 l -11,1.13 a 0.7,0.7 0 0 0 -0.36,1.25 l 6.23,4.89 a 0.71,0.71 0 0 0 0.44,0.15 h 0.12 l 12.53,-2.2 a 0.72,0.72 0 0 0 0.57,-0.6 0.7,0.7 0 0 0 -0.39,-0.72 l -7.81,-3.82 a 0.67,0.67 0 0 0 -0.31,-0.07 z"
       id="path94"
       style="stroke-width:0.842055" />
    <path
       class="cls-3"
       d="m 32.27,33.83 -0.17,5.6 -12.35,3.44 V 36 l 12.52,-2.2 m 0,-0.7 h -0.12 l -12.53,2.2 a 0.7,0.7 0 0 0 -0.57,0.69 v 6.84 a 0.7,0.7 0 0 0 0.27,0.55 0.68,0.68 0 0 0 0.43,0.15 0.57,0.57 0 0 0 0.18,0 L 32.29,40.1 a 0.68,0.68 0 0 0 0.51,-0.66 l 0.17,-5.6 a 0.69,0.69 0 0 0 -0.24,-0.55 0.71,0.71 0 0 0 -0.46,-0.17 z"
       id="path96"
       style="stroke-width:0.842055" />
    <polygon
       class="cls-4"
       points="24.46,30.01 13.52,31.14 19.75,36.03 32.27,33.83 "
       id="polygon98"
       style="stroke-width:0.842055" />
    <polygon
       class="cls-5"
       points="24.28,30.01 13.52,31.14 19.57,36.03 32.09,33.83 "
       id="polygon100"
       style="fill:url(#linearGradient1111);stroke-width:0.842055" />
    <path
       class="cls-6"
       d="m 20.64,34.06 c 1.39,0.55 9.68,-0.15 9.68,-0.15 l 2,-0.08 -3.87,-1.9 z"
       id="path102"
       style="fill:url(#linearGradient1113);stroke-width:0.842055" />
    <polygon
       class="cls-4"
       points="19.75,36.03 13.52,31.14 13.52,36.68 19.75,42.87 "
       id="polygon104"
       style="stroke-width:0.842055" />
    <polygon
       class="cls-7"
       points="19.75,36.03 13.52,31.14 13.52,36.68 19.75,42.87 "
       id="polygon106"
       style="fill:url(#linear-gradient-3);stroke-width:0.842055" />
    <polygon
       class="cls-4"
       points="19.75,36.03 19.75,42.87 32.1,39.43 32.27,33.83 "
       id="polygon108"
       style="stroke-width:0.842055" />
    <polygon
       class="cls-8"
       points="19.75,36.03 19.75,42.87 32.1,39.43 32.27,33.83 "
       id="polygon110"
       style="fill:url(#linear-gradient-4);stroke-width:0.842055" />
    <path
       class="cls-9"
       d="m 31.69,18.29 -0.3,-0.14 a 0.43,0.43 0 0 0 -0.12,0 1.4,1.4 0 0 0 -0.36,-0.52 3,3 0 0 0 -0.92,-0.44 9.42,9.42 0 0 0 1.17,-2.43 c 0.23,-0.69 0.62,-2 0.69,-2.34 a 2.33,2.33 0 0 0 0,-1.06 5.49,5.49 0 0 0 -0.71,-1 A 3.27,3.27 0 0 0 30.71,9.89 0.43,0.43 0 0 0 30.46,9.81 1.35,1.35 0 0 0 30.62,9.62 6,6 0 0 0 31,8.85 l 0.45,0.08 c 0,0 0.1,0 0.12,-0.07 a 18.34,18.34 0 0 0 0.4,-1.8 2,2 0 0 0 -0.19,-1 2.93,2.93 0 0 0 -1.32,-1.31 2.23,2.23 0 0 0 -2.61,0.64 4.74,4.74 0 0 0 -0.85,1.93 1.2,1.2 0 0 0 -0.31,0 2.59,2.59 0 0 0 -0.92,0.18 c -1,0.35 -2,1.75 -4.84,2.46 -3.22,0.78 -3.18,3.37 -2.28,4 a 2.74,2.74 0 0 0 1.07,0.37 v 0.07 c -0.12,0.87 -0.23,1.71 -0.32,2 -0.39,1.34 -1.07,2.39 -1.1,3.51 a 2.23,2.23 0 0 0 0.58,1.64 l -1.12,0.19 c -0.44,0.09 -0.58,0.24 -0.62,0.3 a 0.83,0.83 0 0 0 -0.1,0.57 c 0,0.09 0.16,0.32 0.22,0.59 a 20.67,20.67 0 0 1 0.42,2.66 c 0,0 -0.39,1.63 -0.49,2 a 3.42,3.42 0 0 0 0.05,0.81 15,15 0 0 1 -0.39,1.57 4,4 0 0 0 0.05,1.14 7,7 0 0 0 2.38,1.94 6.51,6.51 0 0 0 3.4,0.55 c 0.5,0 4.42,-0.68 5,-0.86 A 2.57,2.57 0 0 0 28.5,31.76 2.69,2.69 0 0 0 28.33,29.85 L 28.18,29.76 A 1,1 0 0 0 27.83,29.12 0.81,0.81 0 0 1 27.42,28.36 6.64,6.64 0 0 1 28,25.84 18.5,18.5 0 0 1 30,23.2 22,22 0 0 0 32,20.51 1.78,1.78 0 0 0 31.69,18.29 Z"
       id="path112" />
    <path
       class="cls-10"
       d="m 29.59,10.45 c -0.23,0 -0.47,0.26 -0.61,0.41 -0.14,0.15 -0.37,0.08 -0.41,0 -0.04,-0.08 0,-0.17 0.1,-0.25"
       id="path114" />
    <path
       class="cls-11"
       d="M 28.33,7.2 C 28,7.63 27,7.33 27,7.33 a 4.8,4.8 0 0 1 0.83,-1.93 2.22,2.22 0 0 1 2.61,-0.65 3,3 0 0 1 1.33,1.31 4.63,4.63 0 0 0 -1,0.39 C 30.33,6.7 30.05,7.2 29.68,7.28 A 0.43,0.43 0 0 1 29.22,7.06 0.66,0.66 0 0 0 29,6.81 0.5,0.5 0 0 0 28.33,7.2 Z"
       id="path116"
       style="stroke-width:0.842055" />
    <path
       class="cls-12"
       d="M 28.33,7.2 C 28,7.63 27,7.33 27,7.33 a 4.8,4.8 0 0 1 0.83,-1.93 2.22,2.22 0 0 1 2.61,-0.65 3,3 0 0 1 1.33,1.31 4.63,4.63 0 0 0 -1,0.39 C 30.33,6.7 30.05,7.2 29.68,7.28 A 0.43,0.43 0 0 1 29.22,7.06 0.66,0.66 0 0 0 29,6.81 0.5,0.5 0 0 0 28.33,7.2 Z"
       id="path118"
       style="fill:url(#linearGradient1115);stroke-width:0.842055" />
    <path
       class="cls-9"
       d="m 23.6,17 a 4.79,4.79 0 0 1 0.89,-1.16 0.82,0.82 0 0 0 0.16,-0.55 h 0.18 a 0.4,0.4 0 0 0 0.19,0 v 0 a 9.45,9.45 0 0 0 0.59,0.79 15.48,15.48 0 0 0 1.52,1.5 c -0.44,0 -0.85,0 -1.21,0 a 3.86,3.86 0 0 1 -0.6,-0.62 4.49,4.49 0 0 0 -1.8,0.32 A 0.44,0.44 0 0 1 23.6,17 Z m 4.14,6.11 a 8.3,8.3 0 0 1 -1.28,2.06 6.7,6.7 0 0 1 -1.12,1.19 v 0 a 2.06,2.06 0 0 1 -0.2,-1 c 0.19,-0.68 0.54,-1.9 0.82,-2 0.28,-0.1 0.45,-0.28 0.66,-0.9 0,0 -0.53,-0.11 -1.44,-0.34 A 13.63,13.63 0 0 0 28,21 4.64,4.64 0 0 1 28.72,20.61 c -0.35,0.88 -0.64,1.68 -0.98,2.49 z M 29,14.68 a 7.5,7.5 0 0 0 -0.61,0.46 v 0 a 2.42,2.42 0 0 0 -1,-1.9 3.18,3.18 0 0 0 -0.11,-2.7 2.52,2.52 0 0 0 -0.24,-0.42 2.68,2.68 0 0 1 2.06,-0.64 1.26,1.26 0 0 1 0.42,0.18 h 0.05 l 0.16,0.08 -0.27,0.06 a 2.44,2.44 0 0 0 -0.74,0.41 c -0.1,0.1 -0.22,0.14 -0.1,0.27 a 0.16,0.16 0 0 0 0.09,0.05 c 0.1,0 0.23,0 0.39,-0.12 a 1.88,1.88 0 0 1 0.46,-0.21 c 0,0.07 0,0.14 0.06,0.22 a 0.47,0.47 0 0 0 0.14,0.14 c 0.16,0.11 0.22,0.14 0.37,0.26 a 3,3 0 0 0 0.79,0.54 6.33,6.33 0 0 1 -1.92,3.32 z"
       id="path120" />
    <path
       class="cls-11"
       d="m 17.94,21.55 c -1.05,0.2 -1,0.87 -0.81,1.76 a 9.74,9.74 0 0 1 0.35,3.6 c -0.06,0.4 -0.16,0.79 -0.26,1.19 a 7.57,7.57 0 0 0 -0.36,3.27 7.12,7.12 0 0 0 2.39,1.94 6.53,6.53 0 0 0 3.4,0.55 c 0.5,0 4.42,-0.68 5,-0.86 a 2.63,2.63 0 0 0 0.83,-1.25 2.74,2.74 0 0 0 -0.18,-1.91 19.32,19.32 0 0 0 -1.76,-0.91 c -0.49,-0.17 -0.42,-0.88 -0.42,-0.88 0,0 -1.2,-2 -1,-2.72 0.2,-0.72 0.54,-1.91 0.82,-2 0.28,-0.09 0.45,-0.28 0.66,-0.91 0,0 -1.11,-0.21 -3,-0.74 A 9,9 0 0 0 21,21.2 c 0,0 -2.8,0.3 -3.06,0.35 z"
       id="path122"
       style="stroke-width:0.842055" />
    <path
       class="cls-13"
       d="m 28.44,30 c -1,0.68 -1.89,0.22 -2,0.5 a 3.84,3.84 0 0 0 0,0.92 C 26.23,31.2 26,31 25.77,30.8 a 5.39,5.39 0 0 0 -0.54,-0.4 c -0.21,-0.13 -0.39,-0.3 -0.6,-0.41 a 1,1 0 0 1 -0.44,0.25 c 0,0 -0.32,0 -0.34,0 a 6.83,6.83 0 0 0 0.43,-1.57 c 0,-1.18 0,-3.52 0,-3.52 a 5.32,5.32 0 0 1 1.19,-1.9 l 0.81,-0.3 a 0.84,0.84 0 0 1 -0.35,0.29 c -0.28,0.11 -0.63,1.34 -0.82,2 -0.19,0.66 1,2.72 1,2.72 0,0 -0.08,0.71 0.41,0.88 0.49,0.17 1.77,0.9 1.77,0.9 A 0.83,0.83 0 0 1 28.44,30 Z"
       id="path124"
       style="fill:url(#linearGradient1117);stroke-width:0.842055" />
    <path
       class="cls-14"
       d="m 28.44,30 c -1,0.68 -1.89,0.22 -2,0.5 a 3.84,3.84 0 0 0 0,0.92 C 26.23,31.2 26,31 25.77,30.8 a 5.39,5.39 0 0 0 -0.54,-0.4 c -0.21,-0.13 -0.39,-0.3 -0.6,-0.41 a 1,1 0 0 1 -0.44,0.25 c 0,0 -0.32,0 -0.34,0 a 6.83,6.83 0 0 0 0.43,-1.57 c 0,-1.18 0,-3.52 0,-3.52 a 10.25,10.25 0 0 1 0.6,-1.92 l 1.6,-0.83 a 8.82,8.82 0 0 1 -0.55,0.84 c -0.28,0.11 -0.63,1.34 -0.82,2 -0.19,0.66 1,2.72 1,2.72 0,0 -0.08,0.71 0.41,0.88 0.49,0.17 1.77,0.9 1.77,0.9 A 0.83,0.83 0 0 1 28.44,30 Z"
       id="path126"
       style="fill:url(#linear-gradient-7);stroke-width:0.842055" />
    <path
       class="cls-15"
       d="m 28.44,30 c -1,0.68 -1.89,0.22 -2,0.5 a 3.84,3.84 0 0 0 0,0.92 C 26.23,31.2 26,31 25.77,30.8 a 5.39,5.39 0 0 0 -0.54,-0.4 c -0.21,-0.13 -0.39,-0.3 -0.6,-0.41 a 1,1 0 0 1 -0.44,0.25 c 0,0 -0.32,0 -0.34,0 a 6.83,6.83 0 0 0 0.43,-1.57 c 0,-1.18 0,-3.52 0,-3.52 a 10.25,10.25 0 0 1 0.6,-1.92 l 1.6,-0.83 a 8.82,8.82 0 0 1 -0.55,0.84 c -0.28,0.11 -0.63,1.34 -0.82,2 -0.19,0.66 1,2.72 1,2.72 0,0 -0.08,0.71 0.41,0.88 0.49,0.17 1.77,0.9 1.77,0.9 A 0.83,0.83 0 0 1 28.44,30 Z"
       id="path128"
       style="fill:url(#linearGradient1119);stroke-width:0.842055" />
    <path
       class="cls-16"
       d="m 26.16,22.31 -0.64,-0.15 -0.85,-0.22 -0.49,-0.13 a 2.55,2.55 0 0 0 -0.54,-0.15 8.55,8.55 0 0 0 -2.59,-0.47 c 0,0 -2.85,0.31 -3.11,0.36 -0.94,0.18 -1,0.73 -0.88,1.48 h 0.21 a 2.44,2.44 0 0 1 -0.1,-0.33 0.81,0.81 0 0 1 0,-0.51 0.46,0.46 0 0 0 0,0.2 0.25,0.25 0 0 0 0.12,0.16 c 0.13,0.06 0.3,0 0.4,0.08 0.1,0.08 0,0.25 0.21,0.29 a 0.73,0.73 0 0 0 0.25,0 0.23,0.23 0 0 1 0.24,0.05 c 0.06,0.08 0.05,0.23 0.15,0.24 a 0.13,0.13 0 0 0 0.1,0 A 0.81,0.81 0 0 1 19,23 a 0.56,0.56 0 0 1 0.22,0 3.21,3.21 0 0 1 1,0.7 7.9,7.9 0 0 1 0.84,0.69 5.37,5.37 0 0 1 1.64,-0.85 c 0.54,-0.17 1.35,0 1.9,-0.16 0.3,-0.08 0.65,-0.63 0.95,-0.71 0.09,0 0.22,-0.11 0.29,0 0.07,0.11 -0.28,0.55 -0.33,0.64 -0.05,0.09 0,0.17 0,0.35 0.19,-0.18 0.44,-0.3 0.63,-0.47 a 1.72,1.72 0 0 0 0.41,-0.62 c 0.08,-0.24 -0.23,-0.22 -0.39,-0.26 z"
       id="path130"
       style="fill:url(#linear-gradient-9);stroke-width:0.842055" />
    <path
       class="cls-17"
       d="m 26.16,22.31 -0.64,-0.15 -0.85,-0.22 -0.49,-0.13 a 2.55,2.55 0 0 0 -0.54,-0.15 8.55,8.55 0 0 0 -2.59,-0.47 c 0,0 -2.85,0.31 -3.11,0.36 -0.94,0.18 -1,0.73 -0.88,1.48 h 0.21 a 2.44,2.44 0 0 1 -0.1,-0.33 0.81,0.81 0 0 1 0,-0.51 0.46,0.46 0 0 0 0,0.2 0.25,0.25 0 0 0 0.12,0.16 c 0.13,0.06 0.3,0 0.4,0.08 0.1,0.08 0,0.25 0.21,0.29 a 0.73,0.73 0 0 0 0.25,0 0.23,0.23 0 0 1 0.24,0.05 c 0.06,0.08 0.05,0.23 0.15,0.24 a 0.13,0.13 0 0 0 0.1,0 A 0.81,0.81 0 0 1 19,23 a 0.56,0.56 0 0 1 0.22,0 3.21,3.21 0 0 1 1,0.7 7.9,7.9 0 0 1 0.84,0.69 5.37,5.37 0 0 1 1.64,-0.85 c 0.54,-0.17 1.35,0 1.9,-0.16 0.3,-0.08 0.65,-0.63 0.95,-0.71 0.09,0 0.22,-0.11 0.29,0 0.07,0.11 -0.28,0.55 -0.33,0.64 -0.05,0.09 0,0.17 0,0.35 0.19,-0.18 0.44,-0.3 0.63,-0.47 a 1.72,1.72 0 0 0 0.41,-0.62 c 0.08,-0.24 -0.23,-0.22 -0.39,-0.26 z"
       id="path132"
       style="fill:url(#linear-gradient-10);stroke-width:0.842055" />
    <path
       class="cls-18"
       d="m 26.16,22.31 -0.64,-0.15 -0.85,-0.22 -0.49,-0.13 a 2.55,2.55 0 0 0 -0.54,-0.15 8.55,8.55 0 0 0 -2.59,-0.47 c 0,0 -2.85,0.31 -3.11,0.36 -0.94,0.18 -1,0.73 -0.88,1.48 h 0.21 a 2.44,2.44 0 0 1 -0.1,-0.33 0.81,0.81 0 0 1 0,-0.51 0.46,0.46 0 0 0 0,0.2 0.25,0.25 0 0 0 0.12,0.16 c 0.13,0.06 0.3,0 0.4,0.08 0.1,0.08 0,0.25 0.21,0.29 a 0.73,0.73 0 0 0 0.25,0 0.23,0.23 0 0 1 0.24,0.05 c 0.06,0.08 0.05,0.23 0.15,0.24 a 0.13,0.13 0 0 0 0.1,0 A 0.81,0.81 0 0 1 19,23 a 0.56,0.56 0 0 1 0.22,0 3.21,3.21 0 0 1 1,0.7 7.9,7.9 0 0 1 0.84,0.69 5.37,5.37 0 0 1 1.64,-0.85 c 0.54,-0.17 1.35,0 1.9,-0.16 0.3,-0.08 0.65,-0.63 0.95,-0.71 0.09,0 0.22,-0.11 0.29,0 0.07,0.11 -0.28,0.55 -0.33,0.64 -0.05,0.09 0,0.17 0,0.35 0.19,-0.18 0.44,-0.3 0.63,-0.47 a 1.72,1.72 0 0 0 0.41,-0.62 c 0.08,-0.24 -0.23,-0.22 -0.39,-0.26 z"
       id="path134"
       style="fill:url(#linear-gradient-11);stroke-width:0.842055" />
    <path
       class="cls-19"
       d="m 19.19,21.85 a 2.05,2.05 0 0 0 -0.59,0.11 c -0.26,0.1 0.79,1.1 2.48,1.15 a 17.18,17.18 0 0 0 3.83,-0.5 c 0.42,0 0.47,-0.14 0.47,-0.14 l -0.74,-0.29"
       id="path136"
       style="fill:url(#linear-gradient-12);stroke-width:0.842055" />
    <path
       class="cls-20"
       d="m 17.25,23.29 0.29,1.71 0.64,-0.48 v 0.83 a 0.53,0.53 0 0 1 0,0.22 0.7,0.7 0 0 1 -0.14,0.27 2.51,2.51 0 0 0 -0.54,1.84 c 0.17,0 0.9,-0.31 0.92,-0.52 -0.1,0.86 -0.61,1.23 -1,1.81 a 3.5,3.5 0 0 0 -0.56,1.44 1.92,1.92 0 0 0 0.27,1.3 c -0.15,-0.27 0,-0.59 0.18,-0.85 0.37,-0.6 0.75,-1.2 1.17,-1.75 a 7.15,7.15 0 0 0 1.46,-2.28 3.37,3.37 0 0 1 -0.64,0.72 1.63,1.63 0 0 1 0,-0.76 2.23,2.23 0 0 1 0.3,-0.62 0.61,0.61 0 0 0 0.21,-0.38 0.78,0.78 0 0 0 0,-0.22 0.07,0.07 0 0 0 0,-0.06 c -0.06,-0.06 -0.31,0.19 -0.37,0.23 -0.06,0.04 -0.27,0.09 -0.39,0.14 a 4.32,4.32 0 0 0 -0.56,0.3 c -0.06,0 -0.15,0.05 -0.19,0 a 0.12,0.12 0 0 1 0,-0.1 c 0.05,-0.29 0.36,-0.46 0.49,-0.74 0.06,-0.11 0.08,-0.25 0.14,-0.37 a 0.74,0.74 0 0 1 0.16,-0.2 c 0.05,0 0.11,-0.11 0.1,-0.18 -0.01,-0.07 -0.34,0 -0.46,-0.05 -0.12,-0.05 -0.25,-0.13 -0.18,-0.31 a 0.19,0.19 0 0 0 0,-0.18 v 0 l -0.26,0.06 H 18.2 c -0.08,0 -0.19,-0.47 -0.23,-0.56 V 23.48 L 17.88,23.42 A 1.28,1.28 0 0 1 17.3,23 Z"
       id="path138"
       style="fill:url(#linear-gradient-13);stroke-width:0.842055" />
    <path
       class="cls-21"
       d="m 28.33,29.84 a 19.32,19.32 0 0 0 -1.76,-0.91 c -0.49,-0.17 -0.42,-0.88 -0.42,-0.88 0,0 -1.2,-2 -1,-2.72 0.2,-0.72 0.54,-1.91 0.82,-2 0.28,-0.09 0.45,-0.28 0.66,-0.91 0,0 -1.11,-0.21 -3,-0.74 a 9,9 0 0 0 -2.6,-0.48 l -3.32,0.55 c -0.44,0.09 -0.58,0.24 -0.61,0.3 a 0.77,0.77 0 0 0 -0.11,0.57 c 0,0.1 0.16,0.33 0.22,0.58 a 21,21 0 0 1 0.42,2.67 c 0,0 -0.39,1.63 -0.49,2 a 3.46,3.46 0 0 0 0.05,0.81 15,15 0 0 1 -0.39,1.57 4.4,4.4 0 0 0 0,1.14 7.12,7.12 0 0 0 2.39,1.94 6.53,6.53 0 0 0 3.4,0.55 c 0.5,0 4.42,-0.68 5,-0.86 a 2.63,2.63 0 0 0 0.83,-1.25 2.74,2.74 0 0 0 -0.09,-1.93 z"
       id="path140" />
    <path
       class="cls-11"
       d="M 31.19,6.24 A 4.25,4.25 0 0 0 30.76,6.45 C 30.32,6.7 30.04,7.2 29.67,7.28 A 0.43,0.43 0 0 1 29.21,7.06 0.66,0.66 0 0 0 29,6.81 0.5,0.5 0 0 0 28.35,7.2 c -0.19,0.25 -0.62,0.25 -0.94,0.21 0,0 0.43,0 0.45,-0.07 a 2.82,2.82 0 0 1 0.44,-1.16 1.82,1.82 0 0 1 1.94,-0.8 1.71,1.71 0 0 1 0.95,0.86 z"
       id="path142"
       style="stroke-width:0.842055" />
    <path
       class="cls-22"
       d="M 31.19,6.24 A 4.25,4.25 0 0 0 30.76,6.45 C 30.32,6.7 30.04,7.2 29.67,7.28 A 0.43,0.43 0 0 1 29.21,7.06 0.66,0.66 0 0 0 29,6.81 0.5,0.5 0 0 0 28.35,7.2 c -0.19,0.25 -0.62,0.25 -0.94,0.21 0,0 0.43,0 0.45,-0.07 a 2.82,2.82 0 0 1 0.44,-1.16 1.82,1.82 0 0 1 1.94,-0.8 1.71,1.71 0 0 1 0.95,0.86 z"
       id="path144"
       style="fill:url(#linear-gradient-14);stroke-width:0.842055" />
    <path
       class="cls-11"
       d="M 28.33,7.2 A 0.5,0.5 0 0 1 29,6.81 0.66,0.66 0 0 1 29.23,7.06 0.43,0.43 0 0 0 29.69,7.28 C 30.06,7.2 30.34,6.7 30.78,6.45 a 4.63,4.63 0 0 1 1,-0.39 2.11,2.11 0 0 1 0.19,1 c -0.05,0.41 -0.32,1.45 -0.41,1.81 0,0.08 -0.12,0.06 -0.12,0.06 L 31,8.86 a 6.21,6.21 0 0 1 -0.37,0.68 1.54,1.54 0 0 1 -0.17,0.19 h -0.08 a 4.86,4.86 0 0 0 -0.66,0 L 29.56,9.64 H 29.51 A 1.61,1.61 0 0 1 28.82,8.1 0.76,0.76 0 0 1 28.32,7.32 0.58,0.58 0 0 1 28.33,7.2 Z"
       id="path146"
       style="stroke-width:0.842055" />
    <path
       class="cls-23"
       d="M 28.33,7.2 A 0.5,0.5 0 0 1 29,6.81 0.66,0.66 0 0 1 29.23,7.06 0.43,0.43 0 0 0 29.69,7.28 C 30.06,7.2 30.34,6.7 30.78,6.45 a 4.63,4.63 0 0 1 1,-0.39 2.11,2.11 0 0 1 0.19,1 c -0.05,0.41 -0.32,1.45 -0.41,1.81 0,0.08 -0.12,0.06 -0.12,0.06 L 31,8.86 a 6.21,6.21 0 0 1 -0.37,0.68 1.54,1.54 0 0 1 -0.17,0.19 h -0.08 a 4.86,4.86 0 0 0 -0.66,0 L 29.56,9.64 H 29.51 A 1.61,1.61 0 0 1 28.82,8.1 0.76,0.76 0 0 1 28.32,7.32 0.58,0.58 0 0 1 28.33,7.2 Z"
       id="path148"
       style="fill:url(#linear-gradient-15);stroke-width:0.842055" />
    <path
       class="cls-24"
       d="m 28.79,6.84 c 0.2,0 0.5,0.36 0.5,0.36 l 0.22,0.13 c 0,0 0.15,0 0,0.1 A 0.55,0.55 0 0 1 29.04,7.36 0.26,0.26 0 0 0 28.67,7.29 c -0.22,0.12 -0.16,0.52 -0.16,0.52 0,0 -0.46,-0.17 -0.16,-0.76 0.13,-0.2 0.44,-0.21 0.44,-0.21 z"
       id="path150"
       style="fill:url(#linearGradient1121);stroke-width:0.842055" />
    <path
       class="cls-25"
       d="m 31.76,6.06 a 4.68,4.68 0 0 0 -0.57,0.18 2.37,2.37 0 0 1 0.13,0.62 4.84,4.84 0 0 1 -0.09,0.84 l -0.2,0.49 h 0.09 a 0.56,0.56 0 0 1 0.1,0.39 c 0,0.2 -0.18,0.15 -0.33,0.11 A 0.46,0.46 0 0 0 30.47,8.83 C 30.31,9.2 30.1,9.62 29.88,9.71 a 0.17,0.17 0 0 0 -0.06,0.08 4.65,4.65 0 0 1 0.54,0 h 0.08 A 1.54,1.54 0 0 0 30.61,9.6 6.21,6.21 0 0 0 31,8.86 l 0.44,0.07 c 0,0 0.1,0 0.12,-0.06 0.09,-0.36 0.36,-1.4 0.41,-1.81 a 2.11,2.11 0 0 0 -0.21,-1 z"
       id="path152"
       style="fill:url(#linear-gradient-17);stroke-width:0.842055" />
    <path
       class="cls-21"
       d="m 31.76,6.06 a 2.11,2.11 0 0 1 0.19,1 c -0.05,0.41 -0.32,1.45 -0.41,1.81 0,0.08 -0.12,0.06 -0.12,0.06 L 31,8.86 A 6.21,6.21 0 0 1 30.63,9.54 1.54,1.54 0 0 1 30.46,9.73 0.52,0.52 0 0 1 29.89,9.85 1.56,1.56 0 0 1 29.72,9.78 L 29.56,9.69"
       id="path154" />
    <path
       class="cls-11"
       d="m 29.37,17.75 v 0 a 2.4,2.4 0 0 0 0.61,-0.6 v 0 a 2.94,2.94 0 0 1 0.92,0.45 1.36,1.36 0 0 1 0.36,0.51 8.83,8.83 0 0 0 -1.89,-0.36 z"
       id="path156"
       style="stroke-width:0.842055" />
    <path
       class="cls-26"
       d="m 29.37,17.75 v 0 a 2.4,2.4 0 0 0 0.61,-0.6 v 0 a 2.94,2.94 0 0 1 0.92,0.45 1.36,1.36 0 0 1 0.36,0.51 8.83,8.83 0 0 0 -1.89,-0.36 z"
       id="path158"
       style="fill:url(#linear-gradient-18);stroke-width:0.842055" />
    <path
       class="cls-11"
       d="m 26,17.44 a 8.4,8.4 0 0 0 -2.32,0.3 0.68,0.68 0 0 1 -0.08,-0.6 4.62,4.62 0 0 1 1.8,-0.31 3.82,3.82 0 0 0 0.6,0.61 z"
       id="path160"
       style="stroke-width:0.842055" />
    <path
       class="cls-27"
       d="m 26,17.44 a 8.4,8.4 0 0 0 -2.32,0.3 0.68,0.68 0 0 1 -0.08,-0.6 4.62,4.62 0 0 1 1.8,-0.31 3.82,3.82 0 0 0 0.6,0.61 z"
       id="path162"
       style="fill:url(#linear-gradient-19);stroke-width:0.842055" />
    <path
       class="cls-28"
       d="m 25.35,16.83 a 3.49,3.49 0 0 1 -0.7,-1.54 c 0,0 0,0 0,0 v 0 h 0.2 a 0.5,0.5 0 0 0 0.17,0 v 0 a 8,8 0 0 0 0.59,0.79 15.46,15.46 0 0 0 1.52,1.5 c -0.44,0 -0.85,0 -1.21,0 a 3.82,3.82 0 0 1 -0.57,-0.75 z"
       id="path164"
       style="stroke-width:0.842055" />
    <path
       class="cls-11"
       d="m 18.64,13.93 c -0.91,-0.63 -0.94,-3.21 2.28,-4 2.85,-0.7 3.81,-2.11 4.83,-2.46 A 2.14,2.14 0 0 1 27,7.33 c -1.1,0.21 -1.2,2.54 -3.3,3.87 -1.7,1.08 -3.49,1.28 -3.7,2.05 -0.21,0.77 0.63,1.05 0.63,1.05 a 4,4 0 0 1 -0.93,0 2.5,2.5 0 0 1 -1.06,-0.37 z"
       id="path166"
       style="stroke-width:0.842055" />
    <path
       class="cls-29"
       d="M 27,7.33 A 1.09,1.09 0 0 0 26.32,7.81 2.32,2.32 0 0 0 25,8.62 5.53,5.53 0 0 1 22,10.81 c -1.31,0.27 -2.59,0.54 -2.94,1.85 A 1.35,1.35 0 0 0 20,14.32 h -0.31 a 2.5,2.5 0 0 1 -1.06,-0.37 c -0.91,-0.63 -0.94,-3.21 2.28,-4 2.85,-0.7 3.81,-2.11 4.83,-2.46 A 2.14,2.14 0 0 1 27,7.33 Z"
       id="path168"
       style="fill:url(#linear-gradient-20);stroke-width:0.842055" />
    <path
       class="cls-11"
       d="m 31.69,18.29 -0.3,-0.13 -0.12,-0.06 a 8.83,8.83 0 0 0 -1.9,-0.35 v 0 a 2.4,2.4 0 0 0 0.61,-0.6 v 0 a 9.71,9.71 0 0 0 1.18,-2.42 c 0.22,-0.7 0.61,-2 0.68,-2.35 a 2.16,2.16 0 0 0 0,-1 5.07,5.07 0 0 0 -0.71,-1 C 30.84,10.06 30.82,10 30.7,9.92 A 0.37,0.37 0 0 0 30.45,9.83 0.52,0.52 0 0 1 29.88,9.95 1.56,1.56 0 0 1 29.71,9.88 l -0.27,0.05 a 2.09,2.09 0 0 0 -0.73,0.41 c -0.11,0.11 -0.24,0.14 -0.11,0.27 a 0.12,0.12 0 0 0 0.08,0.05 0.46,0.46 0 0 0 0.39,-0.12 2.13,2.13 0 0 1 0.47,-0.21 0.21,0.21 0 0 0 0.06,0.22 0.38,0.38 0 0 0 0.14,0.14 l 0.37,0.26 a 2.81,2.81 0 0 0 0.79,0.54 6.25,6.25 0 0 1 -1.9,3.19 7,7 0 0 0 -0.61,0.47 v 0 a 2.4,2.4 0 0 0 -1,-1.9 3.17,3.17 0 0 0 -0.11,-2.7 1.82,1.82 0 0 0 -0.24,-0.43 2.76,2.76 0 0 1 2.06,-0.64 1.51,1.51 0 0 1 0.42,0.18 1.61,1.61 0 0 1 -0.69,-1.54 0.76,0.76 0 0 1 -0.5,-0.78 0.58,0.58 0 0 1 0,-0.14 C 28,7.63 27,7.33 27,7.33 25.9,7.54 25.8,9.87 23.7,11.2 22,12.28 20.21,12.48 20,13.25 c -0.21,0.77 0.63,1.05 0.63,1.05 a 4,4 0 0 1 -0.93,0 v 0.08 a 19.38,19.38 0 0 1 -0.32,2 c -0.39,1.35 -1.07,2.39 -1.1,3.51 a 2.43,2.43 0 0 0 2,2.48 9.36,9.36 0 0 0 3.42,0 A 16.61,16.61 0 0 0 28,21 4,4 0 0 1 28.73,20.62 c -0.33,0.83 -0.62,1.64 -0.95,2.45 a 8.83,8.83 0 0 1 -1.29,2.06 7.07,7.07 0 0 1 -1.12,1.19 c -0.49,0.46 0.06,1 0.53,1.33 0.47,0.33 0.73,1.5 0.91,1.79 0.18,0.29 0.65,0.3 0.86,0.4 0.21,0.1 0.51,0.07 0.54,-0.12 A 1,1 0 0 0 27.86,29.07 0.81,0.81 0 0 1 27.45,28.31 6.92,6.92 0 0 1 28,25.84 19.07,19.07 0 0 1 30,23.2 22,22 0 0 0 32,20.51 1.78,1.78 0 0 0 31.69,18.29 Z M 26,17.44 a 8.4,8.4 0 0 0 -2.32,0.3 0.68,0.68 0 0 1 -0.08,-0.6 0.78,0.78 0 0 1 0,-0.14 5.12,5.12 0 0 1 0.89,-1.17 0.81,0.81 0 0 0 0.16,-0.54 0.11,0.11 0 0 1 0,-0.06 h 0.18 a 0.58,0.58 0 0 0 0.19,0 v 0 a 8,8 0 0 0 0.59,0.79 15.46,15.46 0 0 0 1.52,1.5 C 26.72,17.45 26.31,17.44 26,17.44 Z"
       id="path170"
       style="stroke-width:0.842055" />
    <path
       class="cls-30"
       d="m 31.69,18.29 -0.3,-0.13 -0.12,-0.06 a 8.83,8.83 0 0 0 -1.9,-0.35 v 0 a 2.4,2.4 0 0 0 0.61,-0.6 v 0 a 9.71,9.71 0 0 0 1.18,-2.42 c 0.22,-0.7 0.61,-2 0.68,-2.35 a 2.16,2.16 0 0 0 0,-1 5.07,5.07 0 0 0 -0.71,-1 C 30.84,10.06 30.82,10 30.7,9.92 A 0.37,0.37 0 0 0 30.45,9.83 0.52,0.52 0 0 1 29.88,9.95 1.56,1.56 0 0 1 29.71,9.88 l -0.27,0.05 a 2.09,2.09 0 0 0 -0.73,0.41 c -0.11,0.11 -0.24,0.14 -0.11,0.27 a 0.12,0.12 0 0 0 0.08,0.05 0.46,0.46 0 0 0 0.39,-0.12 2.13,2.13 0 0 1 0.47,-0.21 0.21,0.21 0 0 0 0.06,0.22 0.38,0.38 0 0 0 0.14,0.14 l 0.37,0.26 a 2.81,2.81 0 0 0 0.79,0.54 6.25,6.25 0 0 1 -1.9,3.19 7,7 0 0 0 -0.61,0.47 v 0 a 2.4,2.4 0 0 0 -1,-1.9 3.17,3.17 0 0 0 -0.11,-2.7 1.82,1.82 0 0 0 -0.24,-0.43 2.76,2.76 0 0 1 2.06,-0.64 1.51,1.51 0 0 1 0.42,0.18 1.61,1.61 0 0 1 -0.69,-1.54 0.76,0.76 0 0 1 -0.5,-0.78 0.58,0.58 0 0 1 0,-0.14 C 28,7.63 27,7.33 27,7.33 25.9,7.54 25.8,9.87 23.7,11.2 22,12.28 20.21,12.48 20,13.25 c -0.21,0.77 0.63,1.05 0.63,1.05 a 4,4 0 0 1 -0.93,0 v 0.08 a 19.38,19.38 0 0 1 -0.32,2 c -0.39,1.35 -1.07,2.39 -1.1,3.51 a 2.43,2.43 0 0 0 2,2.48 9.36,9.36 0 0 0 3.42,0 A 16.61,16.61 0 0 0 28,21 4,4 0 0 1 28.73,20.62 c -0.33,0.83 -0.62,1.64 -0.95,2.45 a 8.83,8.83 0 0 1 -1.29,2.06 7.07,7.07 0 0 1 -1.12,1.19 c -0.49,0.46 0.06,1 0.53,1.33 0.47,0.33 0.73,1.5 0.91,1.79 0.18,0.29 0.65,0.3 0.86,0.4 0.21,0.1 0.51,0.07 0.54,-0.12 A 1,1 0 0 0 27.86,29.07 0.81,0.81 0 0 1 27.45,28.31 6.92,6.92 0 0 1 28,25.84 19.07,19.07 0 0 1 30,23.2 22,22 0 0 0 32,20.51 1.78,1.78 0 0 0 31.69,18.29 Z M 26,17.44 a 8.4,8.4 0 0 0 -2.32,0.3 0.68,0.68 0 0 1 -0.08,-0.6 0.78,0.78 0 0 1 0,-0.14 5.12,5.12 0 0 1 0.89,-1.17 0.81,0.81 0 0 0 0.16,-0.54 0.11,0.11 0 0 1 0,-0.06 h 0.18 a 0.58,0.58 0 0 0 0.19,0 v 0 a 8,8 0 0 0 0.59,0.79 15.46,15.46 0 0 0 1.52,1.5 C 26.72,17.45 26.31,17.44 26,17.44 Z"
       id="path172"
       style="fill:url(#linear-gradient-21);stroke-width:0.842055" />
    <path
       class="cls-31"
       d="m 31.69,18.29 -0.3,-0.13 -0.12,-0.06 a 8.83,8.83 0 0 0 -1.9,-0.35 v 0 a 2.4,2.4 0 0 0 0.61,-0.6 v 0 a 9.71,9.71 0 0 0 1.18,-2.42 c 0.22,-0.7 0.61,-2 0.68,-2.35 a 2.16,2.16 0 0 0 0,-1 5.07,5.07 0 0 0 -0.71,-1 C 30.84,10.06 30.82,10 30.7,9.92 A 0.37,0.37 0 0 0 30.45,9.83 0.52,0.52 0 0 1 29.88,9.95 1.56,1.56 0 0 1 29.71,9.88 l -0.27,0.05 a 2.09,2.09 0 0 0 -0.73,0.41 c -0.11,0.11 -0.24,0.14 -0.11,0.27 a 0.12,0.12 0 0 0 0.08,0.05 0.46,0.46 0 0 0 0.39,-0.12 2.13,2.13 0 0 1 0.47,-0.21 0.21,0.21 0 0 0 0.06,0.22 0.38,0.38 0 0 0 0.14,0.14 l 0.37,0.26 a 2.81,2.81 0 0 0 0.79,0.54 6.25,6.25 0 0 1 -1.9,3.19 7,7 0 0 0 -0.61,0.47 v 0 a 2.4,2.4 0 0 0 -1,-1.9 3.17,3.17 0 0 0 -0.11,-2.7 1.82,1.82 0 0 0 -0.24,-0.43 2.76,2.76 0 0 1 2.06,-0.64 1.51,1.51 0 0 1 0.42,0.18 1.61,1.61 0 0 1 -0.69,-1.54 0.76,0.76 0 0 1 -0.5,-0.78 0.58,0.58 0 0 1 0,-0.14 C 28,7.63 27,7.33 27,7.33 25.9,7.54 25.8,9.87 23.7,11.2 22,12.28 20.21,12.48 20,13.25 c -0.21,0.77 0.63,1.05 0.63,1.05 a 4,4 0 0 1 -0.93,0 v 0.08 a 19.38,19.38 0 0 1 -0.32,2 c -0.39,1.35 -1.07,2.39 -1.1,3.51 a 2.43,2.43 0 0 0 2,2.48 9.36,9.36 0 0 0 3.42,0 A 16.61,16.61 0 0 0 28,21 4,4 0 0 1 28.73,20.62 c -0.33,0.83 -0.62,1.64 -0.95,2.45 a 8.83,8.83 0 0 1 -1.29,2.06 7.07,7.07 0 0 1 -1.12,1.19 c -0.49,0.46 0.06,1 0.53,1.33 0.47,0.33 0.73,1.5 0.91,1.79 0.18,0.29 0.65,0.3 0.86,0.4 0.21,0.1 0.51,0.07 0.54,-0.12 A 1,1 0 0 0 27.86,29.07 0.81,0.81 0 0 1 27.45,28.31 6.92,6.92 0 0 1 28,25.84 19.07,19.07 0 0 1 30,23.2 22,22 0 0 0 32,20.51 1.78,1.78 0 0 0 31.69,18.29 Z M 26,17.44 a 8.4,8.4 0 0 0 -2.32,0.3 0.68,0.68 0 0 1 -0.08,-0.6 0.78,0.78 0 0 1 0,-0.14 5.12,5.12 0 0 1 0.89,-1.17 0.81,0.81 0 0 0 0.16,-0.54 0.11,0.11 0 0 1 0,-0.06 h 0.18 a 0.58,0.58 0 0 0 0.19,0 v 0 a 8,8 0 0 0 0.59,0.79 15.46,15.46 0 0 0 1.52,1.5 C 26.72,17.45 26.31,17.44 26,17.44 Z"
       id="path174"
       style="fill:url(#linear-gradient-22);stroke-width:0.842055" />
    <path
       class="cls-32"
       d="m 26.06,27.73 c 0,0 -0.45,-0.65 -0.21,-1 0.24,-0.35 1.17,-1.38 1.84,-2.34 a 10.8,10.8 0 0 0 1.44,-3 4.62,4.62 0 0 1 0.78,-1.48 2.2,2.2 0 0 0 0.41,-0.75 2.83,2.83 0 0 0 -1.41,1.23 c -0.63,1 -1.33,3.29 -1.89,4 a 24.33,24.33 0 0 1 -1.68,1.94 0.58,0.58 0 0 0 0.07,0.94 1.92,1.92 0 0 0 0.65,0.46 z"
       id="path176"
       style="fill:url(#linear-gradient-23);stroke-width:0.842055" />
    <path
       class="cls-33"
       d="m 30.85,11.77 a 6.53,6.53 0 0 1 -1,2.78 c -0.94,1.46 -1.65,1.68 -1.65,1.68 a 2.37,2.37 0 0 0 0.25,-1.11 c 0.14,-0.13 0.24,-0.19 0.57,-0.44 a 5.83,5.83 0 0 0 1.79,-2.92 z"
       id="path178"
       style="fill:url(#linear-gradient-24);stroke-width:0.842055" />
    <path
       class="cls-34"
       d="m 23.1,17.94 a 1.34,1.34 0 0 1 -1,0.09 c -0.05,-0.07 -0.33,0.09 0.16,0.7 0.49,0.61 1.82,0.36 2.52,0.12 a 11.78,11.78 0 0 1 3.84,-0.47 c 1.31,0.11 2.65,0.29 2.92,0.63 0.27,0.34 0.15,0.42 0.39,0.47 0.24,0.05 0.28,-0.57 0.15,-0.77 a 1.58,1.58 0 0 0 -1.2,-0.77 20.44,20.44 0 0 0 -4.7,-0.5 8,8 0 0 0 -3.08,0.5 z"
       id="path180"
       style="fill:url(#linear-gradient-25);stroke-width:0.842055" />
    <path
       class="cls-35"
       d="m 20.3,14.32 a 11.06,11.06 0 0 1 -0.21,1.8 8.76,8.76 0 0 1 -1.18,2.77 3,3 0 0 0 -0.36,2.2 v 0 a 2.47,2.47 0 0 1 -0.26,-1.2 c 0,-1.12 0.71,-2.16 1.1,-3.51 a 18.23,18.23 0 0 0 0.31,-2 l 0.1,-0.13 h 0.52 z"
       id="path182"
       style="fill:url(#linear-gradient-26);stroke-width:0.842055" />
    <path
       class="cls-36"
       d="M 19.84,14.31 H 19.7 v 0.08 c 0,0 0,0 0,0.06 a 18.23,18.23 0 0 1 -0.31,2 c -0.39,1.35 -1.07,2.39 -1.1,3.51 a 2.47,2.47 0 0 0 0.26,1.2 v 0 a 3,3 0 0 1 0.36,-2.2 8.76,8.76 0 0 0 1.18,-2.77 l 0.42,-1.81 a 5,5 0 0 1 -0.67,-0.07 z"
       id="path184"
       style="fill:url(#linear-gradient-27);stroke-width:0.842055" />
    <path
       class="cls-11"
       d="M 27.08,10.24 A 1.47,1.47 0 0 1 27.2,8.68 2.7,2.7 0 0 0 27.8,8 5.55,5.55 0 0 0 28,7.5 a 0.24,0.24 0 0 1 0.06,-0.11 0.08,0.08 0 0 1 0.11,0 v 0 a 1.47,1.47 0 0 0 0.38,0.53 c 0,0 0.09,0.06 0.12,0.11 a 1.42,1.42 0 0 1 0.06,0.42 1.64,1.64 0 0 0 0.1,0.45 l 0.22,0.48 a 4.16,4.16 0 0 0 -1.73,0.47 z"
       id="path186"
       style="stroke-width:0.842055" />
    <path
       class="cls-37"
       d="m 27,10 a 1,1 0 0 1 0.58,-0.81 c 0.62,-0.35 0.67,-0.33 0.8,-0.61 a 0.74,0.74 0 0 0 -0.09,-0.7 l 0.44,0.29 0.26,0.93 0.09,0.32 a 5.22,5.22 0 0 0 -1.18,0.2"
       id="path188"
       style="fill:url(#linear-gradient-28);stroke-width:0.842055" />
    <path
       class="cls-38"
       d="M 32.23,19.29 A 2.85,2.85 0 0 1 30.6,21 c -0.13,0 -0.27,0.12 -0.3,0.26 -0.03,0.14 0,0.2 0,0.3 a 0.32,0.32 0 0 1 -0.1,0.18 29.06,29.06 0 0 1 -2.75,3.58 c -0.61,0.63 -0.5,2.55 -0.09,3.33 A 9,9 0 0 1 27.87,26 18.57,18.57 0 0 1 30,23.13 a 22.47,22.47 0 0 0 2,-2.5 2.68,2.68 0 0 0 0.28,-0.95 z"
       id="path190"
       style="fill:url(#linear-gradient-29);stroke-width:0.842055" />
    <path
       class="cls-39"
       d="m 30,19.29 c -0.31,0 -0.69,-0.06 -1,0.08 -0.31,0.14 -0.81,0 -1.21,0.11 a 1.88,1.88 0 0 0 -0.39,0.16 7.08,7.08 0 0 1 -2.48,0.54 5,5 0 0 0 -1.89,0.3 c -0.26,0.13 -1.19,1 -1.84,1.05 -0.65,0.05 -1.95,-0.26 -2.09,-1.12 -0.1,-0.62 -0.75,-0.29 -0.42,0.77 0.33,1.06 1.65,1.25 3,1.37 a 17.08,17.08 0 0 0 4.89,-0.9 c 0.68,-0.26 2.14,-0.86 2.14,-0.86 0,0 0.64,-1.41 1.29,-1.5 z"
       id="path192"
       style="fill:url(#linear-gradient-30);stroke-width:0.842055" />
    <path
       class="cls-40"
       d="m 28.17,16.23 c 0,0 -0.26,-1.58 -1.25,-2.06 a 0.75,0.75 0 0 0 -0.59,0.15 3.67,3.67 0 0 0 0.17,-1.61 3.7,3.7 0 0 0 -0.58,-1.48 L 25.8,11.05 a 0.89,0.89 0 0 0 -0.13,-0.14 0.76,0.76 0 0 0 -1,0 c -0.5,0.33 -0.42,0.86 -1.73,1.32 a 4.58,4.58 0 0 0 -2.39,2 0.86,0.86 0 0 1 -0.55,-1 c 0.21,-0.77 2,-1 3.69,-2.05 1.69,-1.05 2.15,-3.08 2.92,-3.69 h 0.05 A 0.37,0.37 0 0 1 26.81,7.41 0.48,0.48 0 0 1 27,7.33 l 0.72,0.19 a 1.29,1.29 0 0 0 -1,0.86 1.75,1.75 0 0 0 0.12,1.4 3.93,3.93 0 0 1 0.8,2.2 3.3,3.3 0 0 1 -0.22,1.16 3.33,3.33 0 0 1 0.78,1.09 c 0.5,1.44 -0.03,2 -0.03,2 z"
       id="path194"
       style="fill:url(#linear-gradient-31);stroke-width:0.842055" />
    <path
       class="cls-21"
       d="m 20.63,14.3 h -0.11 a 0.13,0.13 0 0 1 0,-0.05 z"
       id="path196" />
    <path
       class="cls-21"
       d="M 29.49,9.66 A 1.61,1.61 0 0 1 28.8,8.12 0.76,0.76 0 0 1 28.3,7.34 0.58,0.58 0 0 1 28.3,7.2 0.5,0.5 0 0 1 29,6.81 0.66,0.66 0 0 1 29.23,7.06"
       id="path198" />
    <path
       class="cls-21"
       d="M 28.33,7.2 C 28,7.63 27,7.33 27,7.33 a 4.8,4.8 0 0 1 0.83,-1.93 2.22,2.22 0 0 1 2.61,-0.65 3,3 0 0 1 1.33,1.31 4.63,4.63 0 0 0 -1,0.39 C 30.33,6.7 30.05,7.2 29.68,7.28 A 0.43,0.43 0 0 1 29.22,7.06"
       id="path200" />
    <path
       class="cls-21"
       d="m 27,7.33 a 2.14,2.14 0 0 0 -1.24,0.14 c -1,0.35 -2,1.76 -4.83,2.46 -3.22,0.79 -3.19,3.37 -2.28,4 a 2.5,2.5 0 0 0 1.06,0.37 4,4 0 0 0 0.93,0 c 0,0 -0.85,-0.3 -0.64,-1.05 0.21,-0.75 2,-1 3.69,-2.05 2.1,-1.33 2.2,-3.66 3.31,-3.87 z"
       id="path202" />
    <path
       class="cls-41"
       d="m 31.39,18.16 a 1.22,1.22 0 0 1 0.54,0.34 1.85,1.85 0 0 1 0.25,0.53 2,2 0 0 1 -0.18,1.48 22,22 0 0 1 -2,2.69 19.07,19.07 0 0 0 -2,2.64 6.92,6.92 0 0 0 -0.54,2.51 0.81,0.81 0 0 0 0.41,0.76 1,1 0 0 1 0.35,0.65 c 0,0.19 -0.33,0.22 -0.54,0.12 -0.21,-0.1 -0.68,-0.11 -0.86,-0.4 -0.18,-0.29 -0.44,-1.5 -0.91,-1.79 -0.47,-0.29 -1,-0.87 -0.53,-1.33 a 7.07,7.07 0 0 0 1.12,-1.19 8.83,8.83 0 0 0 1.29,-2.06 c 0.33,-0.81 0.62,-1.62 0.95,-2.45 0.43,-1.13 1.28,-1.19 1.67,-1.72"
       id="path204" />
    <path
       class="cls-42"
       d="m 25.05,15.19 v 0"
       id="path206" />
    <path
       class="cls-42"
       d="m 24.86,14.89 c 0,0.06 0.06,0.11 0.09,0.16"
       id="path208" />
    <path
       class="cls-42"
       d="m 24,13.57 0.06,0.06"
       id="path210" />
    <path
       class="cls-41"
       d="m 26.61,8.92 a 1.56,1.56 0 0 0 0.08,0.65 c 0.06,0.13 0.19,0.33 0.32,0.55 a 1.82,1.82 0 0 1 0.24,0.43 3.17,3.17 0 0 1 0.11,2.7 2.4,2.4 0 0 1 1,1.9 10.73,10.73 0 0 1 -0.2,1.08"
       id="path212" />
    <path
       class="cls-28"
       d="m 30.81,10.6 a 1.66,1.66 0 0 0 -0.65,-0.21 3.22,3.22 0 0 1 -0.37,-0.12 c -0.12,0 -0.06,0 -0.08,0 v 0 c 0.05,-0.08 0.05,-0.06 0,0 l 0.05,-0.13 v 0.09 c 0,0 0,0 0,0.07 a 0.61,0.61 0 0 0 0.14,0.14 3.81,3.81 0 0 1 0.41,0.32 3.1,3.1 0 0 0 0.78,0.58 v 0.15 a 3.27,3.27 0 0 1 -0.9,-0.54 c -0.12,-0.09 -0.27,-0.17 -0.41,-0.26 a 0.71,0.71 0 0 1 -0.24,-0.2 0.41,0.41 0 0 1 -0.09,-0.4 v 0.07 0 -0.12 c 0,0.08 0,0.06 0,0 v 0 a 0.34,0.34 0 0 1 0.29,-0.19 0.53,0.53 0 0 1 0.26,0.08 2.09,2.09 0 0 0 0.29,0.16 1.31,1.31 0 0 1 0.63,0.41 z"
       id="path214"
       style="stroke-width:0.842055" />
    <path
       class="cls-21"
       d="m 30,17.14 a 9.89,9.89 0 0 0 1.18,-2.42 c 0.22,-0.7 0.61,-2 0.68,-2.34 a 2.38,2.38 0 0 0 0,-1.07 5.49,5.49 0 0 0 -0.71,-1 C 30.86,9.99 30.84,9.93 30.72,9.85 A 0.37,0.37 0 0 0 30.47,9.76 h -0.08 a 4.86,4.86 0 0 0 -0.66,0 l -0.27,0.05 a 2.19,2.19 0 0 0 -0.72,0.36 c -0.11,0.11 -0.22,0.23 -0.12,0.32 a 0.12,0.12 0 0 0 0.08,0.05 0.46,0.46 0 0 0 0.39,-0.12 2.13,2.13 0 0 1 0.47,-0.21"
       id="path216" />
    <path
       class="cls-21"
       d="m 29.37,17.74 a 2.4,2.4 0 0 0 0.61,-0.6"
       id="path218" />
    <path
       class="cls-21"
       d="m 27,10.12 a 2.76,2.76 0 0 1 2.06,-0.64 1.51,1.51 0 0 1 0.42,0.18 l 0.1,0.06"
       id="path220" />
    <path
       class="cls-21"
       d="m 28.38,15.15 a 7,7 0 0 1 0.61,-0.47 6.25,6.25 0 0 0 1.9,-3.29"
       id="path222" />
    <path
       class="cls-41"
       d="m 23.35,13.25 a 1.11,1.11 0 0 1 0.62,0.28 h 0.05 a 0.17,0.17 0 0 1 0.06,0.06 0.77,0.77 0 0 1 0.15,0.16 1.1,1.1 0 0 1 0.15,0.24 l 0.24,0.46 c 0.06,0.11 0.14,0.25 0.24,0.4 l 0.09,0.16 a 0.71,0.71 0 0 0 0.1,0.14 8,8 0 0 0 0.59,0.79 15.46,15.46 0 0 0 1.52,1.5"
       id="path224" />
    <path
       class="cls-41"
       d="M 31.39,18.16 31.27,18.1 a 8.83,8.83 0 0 0 -1.9,-0.35 l -1.51,-0.19 c -0.24,0 -0.47,-0.06 -0.69,-0.07 v 0 c -0.44,0 -0.85,0 -1.21,0 a 8.4,8.4 0 0 0 -2.32,0.3 c -0.48,0.1 -0.78,0.41 -1.2,0.42 A 0.55,0.55 0 0 1 21.9,17.85"
       id="path226" />
    <path
       class="cls-21"
       d="m 24.64,15.23 v 0 c 0,0 0,0 0,0 a 3.49,3.49 0 0 0 0.7,1.54 3.82,3.82 0 0 0 0.6,0.61"
       id="path228" />
    <path
       class="cls-21"
       d="m 23.55,17.14 a 4.62,4.62 0 0 1 1.8,-0.31"
       id="path230" />
    <path
       class="cls-21"
       d="m 30,17.14 v 0 a 2.94,2.94 0 0 1 0.92,0.45 1.36,1.36 0 0 1 0.36,0.51"
       id="path232" />
    <path
       class="cls-21"
       d="m 19.69,14.38 a 19.38,19.38 0 0 1 -0.32,2 c -0.39,1.35 -1.07,2.39 -1.1,3.51 a 2.43,2.43 0 0 0 2,2.48 9.36,9.36 0 0 0 3.42,0 A 16.61,16.61 0 0 0 28,21 4,4 0 0 1 28.73,20.62"
       id="path234" />
    <path
       class="cls-28"
       d="m 30.53,7.34 c 0,0 0.35,0.1 0.52,0.13 a 1.1,1.1 0 0 1 0.26,0.09 0.38,0.38 0 0 1 0,0.28 c 0,0.19 -0.13,0.72 -0.13,0.72 A 0.78,0.78 0 0 0 31,8.45 0.93,0.93 0 0 0 30.71,8.45 0.66,0.66 0 0 1 31,8.32 C 31,8.32 31,8 31,8 31,8 30.86,8 30.71,8.06 A 0.31,0.31 0 0 1 30.33,7.9 0.44,0.44 0 0 1 30.53,7.34 Z"
       id="path236"
       style="stroke-width:0.842055" />
    <path
       class="cls-43"
       d="m 22.71,23.49 a 32,32 0 0 1 -1.27,3.18 c -0.18,0.38 -1,0.79 -1.22,1.06 a 5.89,5.89 0 0 0 -0.77,0.93 4.79,4.79 0 0 1 0.42,-1 6.05,6.05 0 0 0 0.77,-1.42 c 0.18,-0.94 0.35,-1.85 0.35,-1.85 a 2.09,2.09 0 0 1 1.72,-0.9 z"
       id="path238"
       style="fill:url(#linear-gradient-32);stroke-width:0.842055" />
    <path
       class="cls-44"
       d="M 24.49,15.83 A 5.12,5.12 0 0 0 23.6,17 a 0.78,0.78 0 0 0 -0.05,0.14 0.62,0.62 0 0 0 0,0.38 c 0,0 0.07,0.23 0.13,0.21 l -0.4,0.13 c -0.41,0.15 -1.21,0.59 -1.41,-0.08 -0.2,-0.67 0.58,-1 0.69,-1.45 a 0.4,0.4 0 0 0 -0.14,-0.44 c 0,-0.05 -0.14,-0.09 -0.12,-0.16 0.02,-0.07 0,-0.06 0.08,-0.08 a 5,5 0 0 0 0.62,-0.39 2.36,2.36 0 0 0 0.74,-0.92 6.5,6.5 0 0 1 0.25,-0.81 h 0.05 l 0.06,0.06 a 0.77,0.77 0 0 1 0.15,0.16 1.1,1.1 0 0 1 0.15,0.24 3.52,3.52 0 0 0 0.24,0.46 c 0.06,0.11 0.14,0.25 0.24,0.4 l 0.09,0.16 a 0.71,0.71 0 0 0 0.1,0.14 c -0.06,0 -0.13,0 -0.19,0 h -0.19 c 0,0 0,0 0,0 a 0.81,0.81 0 0 1 -0.2,0.68 z"
       id="path240"
       style="fill:url(#linear-gradient-33);stroke-width:0.842055" />
    <path
       class="cls-28"
       d="m 25.15,22.92 c -0.35,0.24 -0.59,0.44 -0.66,0.39 a 3.42,3.42 0 0 0 -1.14,0.08 c -0.64,0.1 -0.66,0.17 -0.66,0.17 a 7.9,7.9 0 0 1 1.23,0.14 1.13,1.13 0 0 0 0.88,-0.08 2.44,2.44 0 0 0 0.9,-0.6 c 0.12,-0.23 0.27,-0.48 0,-0.39 a 3,3 0 0 0 -0.55,0.29 z"
       id="path242"
       style="stroke-width:0.842055" />
    <path
       class="cls-28"
       d="m 27.31,30.43 c -0.42,0.06 -0.71,0 -0.8,0.05 -0.09,0.05 -0.07,0.71 -0.07,0.71 0,0 0.21,-0.36 0.37,-0.38 0.16,-0.02 0.69,-0.13 1,-0.15 0.31,-0.02 0.71,-0.48 0.71,-0.48 l -0.09,-0.24 c 0,0 -0.18,0.35 -1.12,0.49 z"
       id="path244"
       style="stroke-width:0.842055" />
    <path
       class="cls-45"
       d="m 24,23.39 -1.86,0.19 0.55,0.47 a 11.77,11.77 0 0 0 -0.55,2 3.38,3.38 0 0 1 -0.5,1.19 1,1 0 0 1 0.4,-0.18 c 0.26,0 0.22,0 0.26,0.22 A 8.13,8.13 0 0 1 22,29.14 l 0.76,-1 a 1.75,1.75 0 0 0 -0.05,0.6 1,1 0 0 1 0,0.39 0.73,0.73 0 0 1 -0.16,0.23 c -0.47,0.62 -0.07,1.1 0.31,1.61 a 1.34,1.34 0 0 1 0.32,1.39 c 0.26,-0.26 0.51,-0.53 0.74,-0.81 l 0.71,-0.17 a 1.86,1.86 0 0 1 0.11,-0.57 1.76,1.76 0 0 0 0.1,-0.3 0.93,0.93 0 0 1 0.55,0.25 1.76,1.76 0 0 1 0.59,0.68 c 0.16,0.32 0.37,0.62 0.51,0.94 a 2.18,2.18 0 0 1 0.19,-0.75 0.42,0.42 0 0 1 0.1,-0.17 0.74,0.74 0 0 1 0.38,-0.2 l 0.31,-0.08 h 0.09 a 0.43,0.43 0 0 0 0.1,-0.09 l 0.54,-0.62 c -0.57,0.4 -1.07,0.05 -1.69,0 a 0.22,0.22 0 0 1 -0.19,-0.07 3.08,3.08 0 0 1 -0.08,0.53 c -0.33,-0.29 -0.88,-0.63 -1.08,-1.05 -0.2,-0.42 0,-0.81 0,-1.28 a 0.12,0.12 0 0 1 0,-0.1 0.11,0.11 0 0 1 0.08,0 0.65,0.65 0 0 1 0.32,0.35 c 0.07,0.14 0.12,0.3 0.19,0.44 a 1.37,1.37 0 0 0 1,0.68 1.18,1.18 0 0 0 -0.23,-0.27 c -0.43,-0.43 -0.31,-1.12 -0.68,-1.6 -0.18,-0.25 -0.46,-0.41 -0.66,-0.65 a 2.88,2.88 0 0 1 -0.5,-1.11 1.61,1.61 0 0 1 -0.09,-1.06 c 0.07,-0.25 0.18,-0.49 0.24,-0.75 l -0.27,0.09 a 3.47,3.47 0 0 1 0.64,-1.43 l -1,0.31"
       id="path246"
       style="fill:url(#linear-gradient-34);stroke-width:0.842055" />
    <path
       class="cls-46"
       d="m 28.24,32.36 a 3.57,3.57 0 0 1 -0.56,0.65 c -0.61,0.18 -4.53,0.8 -5,0.85 a 6.53,6.53 0 0 1 -3.4,-0.55 7,7 0 0 1 -2.39,-1.94 1.54,1.54 0 0 1 -0.06,-0.53 4.69,4.69 0 0 1 0.46,0.42 12.16,12.16 0 0 0 1.67,-1.77 c -0.15,0 -0.39,0 -0.35,-0.25 0.04,-0.25 0.17,-0.18 0.24,-0.26 0.07,-0.08 0.26,-0.34 0.39,-0.51 l 0.66,-0.85 -0.42,1 0.13,0.62 a 1,1 0 0 1 0.07,0.3 1.38,1.38 0 0 1 -0.29,0.51 2.9,2.9 0 0 0 -0.41,0.58 c 0,0.12 -0.06,0.25 -0.1,0.37 a 1.12,1.12 0 0 1 -0.42,0.6 3,3 0 0 0 0.88,-0.23 c 0.12,-0.06 0.21,-0.15 0.32,-0.21 a 0.63,0.63 0 0 1 0.43,0 1.39,1.39 0 0 0 0.78,-0.23 2.55,2.55 0 0 1 -0.61,0.47 l -0.1,0.07 a 0.17,0.17 0 0 0 0,0.12 1,1 0 0 0 0.36,1 5.9,5.9 0 0 0 1.17,0.37 l 0.74,0.23 a 1,1 0 0 0 0.7,0 c 0.27,-0.06 0.43,-0.32 0.68,-0.44 0.62,-0.28 1.39,0.47 2,0.13 0.24,-0.14 0.43,-0.45 0.7,-0.41 a 1.45,1.45 0 0 1 0.22,0.09 c 0.47,0.21 1,-0.1 1.48,-0.23 z"
       id="path248"
       style="fill:url(#linear-gradient-35);stroke-width:0.842055" />
    <polyline
       class="cls-47"
       points="17.16 27.85 17.63 28.27 18.1 27.91 17.72 28.73 16.79 30.46 17.28 28.87"
       id="polyline250"
       style="fill:url(#linear-gradient-36);stroke-width:0.842055" />
    <path
       class="cls-48"
       d="m 17.67,24.88 c 0,0.09 0.15,0.26 0.25,0.18 C 18.02,24.98 18,25 18,25 v 0.41 a 0.24,0.24 0 0 1 0,0.12 0.24,0.24 0 0 1 0,0.08 c -0.13,0.31 -0.28,0.61 -0.43,0.91 l 0.17,-0.73"
       id="path252"
       style="fill:url(#linear-gradient-37);stroke-width:0.842055" />
    <path
       class="cls-49"
       d="m 20.75,14.31 c 0,0 -0.43,-0.45 -0.18,-0.87 a 3.27,3.27 0 0 1 1.53,-1 8.78,8.78 0 0 0 2.24,-1.47 1.84,1.84 0 0 0 0.41,-0.55 8.54,8.54 0 0 1 -1.85,1.37 c -0.49,0.11 -2.49,0.75 -2.81,1.31 a 0.84,0.84 0 0 0 0.66,1.21 z"
       id="path254"
       style="fill:url(#linear-gradient-38);stroke-width:0.842055" />
    <path
       class="cls-50"
       d="m 19.69,14.81 a 2.38,2.38 0 0 0 0.83,-0.08 1,1 0 0 0 0.43,-0.35 h -1.22"
       id="path256"
       style="fill:url(#linear-gradient-39);stroke-width:0.842055" />
    <path
       class="cls-51"
       d="m 28.83,16.94 a 1.38,1.38 0 0 1 -1.27,0 3.43,3.43 0 0 1 -1.3,-1.39 c -0.37,-0.7 0,-1 -0.6,-1.13 -0.6,-0.13 -0.75,-0.65 -1,-1 -0.25,-0.35 -0.65,-0.3 -1.2,-0.31 0.67,0.29 1.06,1 1.51,1.92 A 10.78,10.78 0 0 0 27,17.37 h 0.73 a 1,1 0 0 1 -0.26,0 c 0,0 1.4,0.27 1.4,0.27 a 3.31,3.31 0 0 0 0.33,-0.32 7.53,7.53 0 0 0 1.24,-2 6.76,6.76 0 0 1 -1.61,1.62 z"
       id="path258"
       style="fill:url(#linear-gradient-40);stroke-width:0.842055" />
    <path
       class="cls-28"
       d="m 17,22.6 c 0.2,0 0.86,0.58 0.86,0.58 L 17.28,23"
       id="path260"
       style="stroke-width:0.842055" />
    <path
       class="cls-21"
       d="m 25.05,15.19 c -0.06,0 -0.13,0 -0.19,0 h -0.19 c 0,0 0,0 0,0 a 0.81,0.81 0 0 1 -0.16,0.54 5.12,5.12 0 0 0 -0.91,1.27 0.78,0.78 0 0 0 -0.05,0.14 0.62,0.62 0 0 0 0,0.38 c 0,0 0.07,0.23 0.13,0.21"
       id="path262" />
    <path
       class="cls-52"
       d="m 19.65,29.94 a 4.05,4.05 0 0 1 0.65,-0.88 1.76,1.76 0 0 0 0.61,-0.78 3.77,3.77 0 0 1 1,-1 c 0.13,-0.08 0.25,-0.1 0.21,0 -0.04,0.1 -0.4,0.67 -0.57,1 a 2,2 0 0 0 -0.25,0.94 c 0,0.27 0.09,0.63 0.09,0.63 l -0.34,0.69 c 0,0 0.07,-0.55 0,-0.6 a 4.39,4.39 0 0 1 -0.32,-0.48 l 0.07,-0.43 a 3.71,3.71 0 0 0 -0.69,0.57 l -0.39,0.89 -0.56,0.38 z"
       id="path264"
       style="fill:url(#linear-gradient-41);stroke-width:0.842055" />
    <path
       class="cls-53"
       d="m 21.15,32 a 2.33,2.33 0 0 0 0.52,-0.78 c 0.08,-0.17 0.28,-0.85 0.28,-0.85 l 0.21,-0.49 a 3.65,3.65 0 0 0 0.06,0.91 c 0.09,0.26 -0.18,0.7 -0.18,0.7 z"
       id="path266"
       style="fill:url(#linear-gradient-42);stroke-width:0.842055" />
    <path
       class="cls-54"
       d="m 27.36,29.8 -0.53,-0.21 c -0.37,-0.68 -0.43,-1.41 -1.1,-1.91 a 3,3 0 0 1 -0.34,-0.26 1.64,1.64 0 0 1 -0.27,-1.3 c -0.22,0.24 -0.43,0.52 -0.64,0.77 a 5.21,5.21 0 0 1 -0.4,-0.78 l 0.07,1.42 a 1.61,1.61 0 0 0 0.15,1 2.43,2.43 0 0 1 -0.3,0.86 9.47,9.47 0 0 1 -1,1.72 c 0,0 0.11,0.76 0.11,0.77 a 2.61,2.61 0 0 1 -0.34,0.93 2.55,2.55 0 0 0 0.86,-1.21 l 0.11,-1.09 a 5.8,5.8 0 0 0 0.56,-0.6 c 0.25,-0.35 0.76,-1.28 0.76,-1.28 a 3.31,3.31 0 0 0 -0.36,-0.34 1.45,1.45 0 0 1 -0.24,-0.6 c 0.06,-0.09 0.11,-0.19 0.18,-0.28 0.15,0.28 0.47,0.38 0.72,0.53 a 0.94,0.94 0 0 1 0.55,0.78 6.09,6.09 0 0 0 0.21,0.73 c 0.17,0.48 0.71,0.51 1.13,0.67 A 2.14,2.14 0 0 0 28,30.05 Z"
       id="path268"
       style="fill:url(#linear-gradient-43);stroke-width:0.842055" />
    <path
       class="cls-55"
       d="m 18,23.11 a 0.76,0.76 0 0 1 0,0.21 c 0,0.07 0,0.06 0.08,0.11 A 0.25,0.25 0 0 0 18.26,23.51 0.9,0.9 0 0 0 18.2,23.29 0.33,0.33 0 0 0 18,23.11 Z"
       id="path270"
       style="fill:url(#linear-gradient-44);stroke-width:0.842055" />
    <path
       class="cls-56"
       d="m 19.75,25 c 0.09,-0.07 0,-0.12 0.07,-0.26 l -0.37,0.51 c 0,0 0.2,-0.14 0.3,-0.25 z"
       id="path272"
       style="fill:url(#linear-gradient-45);stroke-width:0.842055" />
    <path
       class="cls-57"
       d="m 20.43,26.73 a 2,2 0 0 0 0.21,-0.53 3.21,3.21 0 0 0 -0.54,1 z"
       id="path274"
       style="fill:url(#linear-gradient-46);stroke-width:0.842055" />
    <path
       class="cls-58"
       d="m 21.08,24.13 c -0.11,0 -0.19,0.14 -0.3,0 v 0 L 20.63,24 c 0,0 -1,-0.87 -1.34,-0.8 v 0 a 0.11,0.11 0 0 0 -0.08,0 0.46,0.46 0 0 0 -0.18,0.1 0.5,0.5 0 0 1 -0.62,0 8,8 0 0 0 0.61,0.8 v -0.26 c 0,-0.28 0.2,-0.37 0.46,-0.46 v 0 a 2,2 0 0 1 0.21,0.2 0.82,0.82 0 0 1 0.27,0.4 c 0,0.2 -0.15,0.33 -0.17,0.49 a 0.36,0.36 0 0 0 0,0.1 0.47,0.47 0 0 1 0,0.35 0.27,0.27 0 0 0 0.24,-0.06 0.57,0.57 0 0 1 0.23,-0.12 c 0.28,-0.06 0.4,0.88 0.33,1 a 4.48,4.48 0 0 0 0.2,-0.88 c 0,0 0.09,0 0.19,-0.34 a 2.81,2.81 0 0 1 0.51,-0.75 4,4 0 0 1 -0.41,0.36 z"
       id="path276"
       style="fill:url(#linear-gradient-47);stroke-width:0.842055" />
    <path
       class="cls-28"
       d="m 28.89,9 a 3.07,3.07 0 0 0 -1.4,0.21 8.32,8.32 0 0 0 1.26,-0.76"
       id="path278"
       style="stroke-width:0.842055" />
  </g>
</svg>
