<?xml version="1.0" encoding="UTF-8" standalone="no"?>
<svg
   xmlns:dc="http://purl.org/dc/elements/1.1/"
   xmlns:cc="http://creativecommons.org/ns#"
   xmlns:rdf="http://www.w3.org/1999/02/22-rdf-syntax-ns#"
   xmlns:svg="http://www.w3.org/2000/svg"
   xmlns="http://www.w3.org/2000/svg"
   xmlns:xlink="http://www.w3.org/1999/xlink"
   xmlns:sodipodi="http://sodipodi.sourceforge.net/DTD/sodipodi-0.dtd"
   xmlns:inkscape="http://www.inkscape.org/namespaces/inkscape"
   viewBox="0 0 48 48"
   version="1.1"
   id="svg287"
   sodipodi:docname="videogame_console.svg"
   inkscape:version="1.0.1 (3bc2e813f5, 2020-09-07)">
  <metadata
     id="metadata291">
    <rdf:RDF>
      <cc:Work
         rdf:about="">
        <dc:format>image/svg+xml</dc:format>
        <dc:type
           rdf:resource="http://purl.org/dc/dcmitype/StillImage" />
      </cc:Work>
    </rdf:RDF>
  </metadata>
  <sodipodi:namedview
     pagecolor="#ffffff"
     bordercolor="#666666"
     borderopacity="1"
     objecttolerance="10"
     gridtolerance="10"
     guidetolerance="10"
     inkscape:pageopacity="0"
     inkscape:pageshadow="2"
     inkscape:window-width="2560"
     inkscape:window-height="1377"
     id="namedview289"
     showgrid="false"
     inkscape:zoom="15.3125"
     inkscape:cx="24"
     inkscape:cy="24"
     inkscape:window-x="-8"
     inkscape:window-y="-8"
     inkscape:window-maximized="1"
     inkscape:current-layer="svg287" />
  <defs
     id="defs53">
    <style
       id="style2">.cls-1,.cls-57,.cls-62,.cls-69,.cls-79,.cls-80,.cls-89,.cls-92,.cls-93,.cls-95,.cls-98{fill:none;}.cls-2{isolation:isolate;}.cls-3{fill:#d0d0d0;}.cls-4,.cls-74{mix-blend-mode:multiply;}.cls-5,.cls-84{fill:#fff;}.cls-6{fill:#f8f8f8;}.cls-7{fill:#f1f1f1;}.cls-8{fill:#eaeae9;}.cls-9{fill:#e3e3e2;}.cls-10{fill:#dcdddb;}.cls-11{fill:#d5d6d4;}.cls-12{fill:#cecfcd;}.cls-13{fill:#c7c8c6;}.cls-14{fill:#c0c1be;}.cls-15{fill:#b9bab7;}.cls-16{fill:#b2b3b0;}.cls-17{fill:#abaca9;}.cls-18{fill:#a4a6a2;}.cls-19{fill:#9d9f9b;}.cls-20{fill:#969893;}.cls-21{fill:#8f918c;}.cls-22,.cls-74,.cls-96{fill:#888a85;}.cls-23{fill:#fafaf9;}.cls-24{fill:#f4f4f4;}.cls-25{fill:#efefee;}.cls-26{fill:#e9e9e9;}.cls-27{fill:#e4e4e3;}.cls-28{fill:#dedede;}.cls-29{fill:#d9d9d8;}.cls-30{fill:#d3d4d3;}.cls-31{fill:#cececd;}.cls-32{fill:#c8c9c8;}.cls-33{fill:#c3c3c2;}.cls-34{fill:#bdbebc;}.cls-35{fill:#b8b9b7;}.cls-36{fill:#b2b3b1;}.cls-37{fill:#adaeac;}.cls-38{fill:#a7a8a6;}.cls-39{fill:#a2a3a1;}.cls-40{fill:#9c9d9b;}.cls-41{fill:#979896;}.cls-42{fill:#919390;}.cls-43{fill:#8c8d8a;}.cls-44{fill:#868885;}.cls-45{fill:#81827f;}.cls-46{fill:#7b7d7a;}.cls-47{fill:#767874;}.cls-48{fill:#70726f;}.cls-49{fill:#6b6d69;}.cls-50{fill:#656764;}.cls-51{fill:#60625e;}.cls-52{fill:#5a5c59;}.cls-53,.cls-97{fill:#555753;}.cls-54,.cls-60{fill:#ad7fa8;}.cls-55{fill:url(#linear-gradient);}.cls-56{fill:url(#linear-gradient-2);}.cls-57,.cls-93{stroke:#888a85;}.cls-57,.cls-60,.cls-84,.cls-89,.cls-95{stroke-miterlimit:10;}.cls-57{stroke-width:1.4px;}.cls-58{fill:url(#linear-gradient-3);}.cls-59{clip-path:url(#clip-path);}.cls-60,.cls-80,.cls-95,.cls-98{stroke:#755076;}.cls-60,.cls-62,.cls-69,.cls-80,.cls-95,.cls-96{stroke-width:0.35px;}.cls-61{fill:url(#linear-gradient-4);}.cls-62,.cls-96{stroke:#555753;}.cls-62,.cls-69,.cls-79,.cls-80,.cls-92,.cls-93,.cls-96,.cls-98{stroke-linecap:round;stroke-linejoin:round;}.cls-63{fill:#eeeeec;opacity:0.81;}.cls-64{fill:#90c4be;}.cls-65{fill:url(#linear-gradient-5);}.cls-66{fill:url(#linear-gradient-6);}.cls-67{fill:url(#linear-gradient-7);}.cls-68{fill:url(#linear-gradient-8);}.cls-69{stroke:#67a599;}.cls-70{fill:url(#linear-gradient-9);}.cls-71{fill:url(#linear-gradient-10);}.cls-72{fill:url(#linear-gradient-11);}.cls-73{fill:url(#linear-gradient-12);}.cls-74{opacity:0.42;}.cls-75{fill:url(#linear-gradient-13);}.cls-76{fill:url(#linear-gradient-14);}.cls-77{fill:url(#linear-gradient-15);}.cls-78{fill:url(#linear-gradient-16);}.cls-79{stroke:#2e3436;}.cls-79,.cls-92,.cls-98{stroke-width:0.7px;}.cls-81{fill:url(#linear-gradient-17);}.cls-82{fill:#fc6868;}.cls-83{fill:url(#linear-gradient-18);}.cls-84,.cls-89{stroke:#231f20;stroke-width:0.3px;}.cls-85{fill:#edd400;}.cls-86{fill:url(#linear-gradient-19);}.cls-87{fill:#f57900;opacity:0.77;}.cls-88{fill:url(#linear-gradient-20);}.cls-90{fill:#c4a000;}.cls-91{fill:url(#linear-gradient-21);}.cls-92{stroke:#c4a000;}.cls-93{stroke-width:0.2px;}.cls-94{fill:url(#linear-gradient-22);}.cls-97{opacity:0.65;}</style>
    <linearGradient
       id="linear-gradient"
       x1="26.92"
       y1="38.22"
       x2="23.48"
       y2="38.22"
       gradientUnits="userSpaceOnUse">
      <stop
         offset="0"
         stop-color="#fff"
         stop-opacity="0"
         id="stop4" />
      <stop
         offset="1"
         stop-color="snow"
         id="stop6" />
    </linearGradient>
    <linearGradient
       id="linear-gradient-2"
       x1="42.72"
       y1="37.7"
       x2="29.09"
       y2="43.77"
       gradientUnits="userSpaceOnUse">
      <stop
         offset="0"
         stop-color="#755076"
         stop-opacity="0"
         id="stop9" />
      <stop
         offset="1"
         stop-color="#5c3566"
         id="stop11" />
    </linearGradient>
    <linearGradient
       id="linear-gradient-3"
       x1="26.49"
       y1="36.46"
       x2="24.1"
       y2="20.19"
       gradientUnits="userSpaceOnUse">
      <stop
         offset="0"
         stop-color="#2e3436"
         id="stop14" />
      <stop
         offset="1"
         stop-color="#d3d7cf"
         id="stop16" />
    </linearGradient>
    <clipPath
       id="clip-path">
      <path
         class="cls-1"
         d="M23.64,26.7,6.52,21.77c-.64-.18-.73-.64-.19-1L21.83,10A2.83,2.83,0,0,1,24,9.61l17.12,4.93c.64.18.73.63.19,1l-15.5,10.8A2.88,2.88,0,0,1,23.64,26.7Z"
         id="path19" />
    </clipPath>
    <linearGradient
       id="linear-gradient-4"
       x1="28.44"
       y1="19.12"
       x2="20.79"
       y2="0.52"
       xlink:href="#linear-gradient-3" />
    <linearGradient
       id="linear-gradient-5"
       x1="13.36"
       y1="20.45"
       x2="13.36"
       y2="18.01"
       xlink:href="#linear-gradient" />
    <linearGradient
       id="linear-gradient-6"
       x1="13.07"
       y1="11.7"
       x2="16.22"
       y2="31.2"
       xlink:href="#linear-gradient-3" />
    <linearGradient
       id="linear-gradient-7"
       x1="18.28"
       y1="31.75"
       x2="10.11"
       y2="17.22"
       xlink:href="#linear-gradient" />
    <linearGradient
       id="linear-gradient-8"
       x1="25.01"
       y1="23.57"
       x2="25.17"
       y2="21.09"
       xlink:href="#linear-gradient" />
    <linearGradient
       id="linear-gradient-9"
       x1="25.76"
       y1="14.14"
       x2="34.61"
       y2="25.26"
       xlink:href="#linear-gradient-3" />
    <linearGradient
       id="linear-gradient-10"
       x1="28.74"
       y1="17.94"
       x2="36.6"
       y2="28.23"
       xlink:href="#linear-gradient-3" />
    <linearGradient
       id="linear-gradient-11"
       x1="14.62"
       y1="11.8"
       x2="15.71"
       y2="31.61"
       xlink:href="#linear-gradient-3" />
    <linearGradient
       id="linear-gradient-12"
       x1="27.24"
       y1="28.31"
       x2="28.5"
       y2="30.18"
       gradientUnits="userSpaceOnUse">
      <stop
         offset="0"
         stop-color="#d3d7cf"
         stop-opacity="0"
         id="stop30" />
      <stop
         offset="1"
         stop-color="#555753"
         id="stop32" />
    </linearGradient>
    <linearGradient
       id="linear-gradient-13"
       x1="13.71"
       y1="31.62"
       x2="7.33"
       y2="22.82"
       xlink:href="#linear-gradient-3" />
    <linearGradient
       id="linear-gradient-14"
       x1="12.56"
       y1="26.38"
       x2="6.31"
       y2="32.17"
       xlink:href="#linear-gradient-3" />
    <linearGradient
       id="linear-gradient-15"
       x1="9.19"
       y1="28.24"
       x2="15.39"
       y2="12.92"
       gradientUnits="userSpaceOnUse">
      <stop
         offset="0"
         stop-color="#2e3436"
         id="stop37" />
      <stop
         offset="1"
         stop-color="#555753"
         id="stop39" />
    </linearGradient>
    <linearGradient
       id="linear-gradient-16"
       x1="12.2"
       y1="21.79"
       x2="8.4"
       y2="29.34"
       gradientUnits="userSpaceOnUse">
      <stop
         offset="0"
         stop-color="#fff"
         stop-opacity="0"
         id="stop42" />
      <stop
         offset="1"
         stop-color="snow"
         id="stop44" />
    </linearGradient>
    <linearGradient
       id="linear-gradient-17"
       x1="45.56"
       y1="48.55"
       x2="37.37"
       y2="39.56"
       xlink:href="#linear-gradient-3" />
    <linearGradient
       id="linear-gradient-18"
       x1="24.59"
       y1="21.4"
       x2="21.42"
       y2="8.36"
       xlink:href="#linear-gradient" />
    <linearGradient
       id="linear-gradient-19"
       x1="32.76"
       y1="12.94"
       x2="34.14"
       y2="12.94"
       xlink:href="#linear-gradient" />
    <linearGradient
       id="linear-gradient-20"
       x1="26.74"
       y1="14.35"
       x2="23.83"
       y2="6.99"
       xlink:href="#linear-gradient" />
    <linearGradient
       id="linear-gradient-21"
       x1="26.85"
       y1="13.55"
       x2="27.05"
       y2="8.52"
       xlink:href="#linear-gradient" />
    <linearGradient
       id="linear-gradient-22"
       x1="37.35"
       y1="40.02"
       x2="28.63"
       y2="29.49"
       xlink:href="#linear-gradient" />
    <linearGradient
       inkscape:collect="always"
       xlink:href="#linear-gradient"
       id="linearGradient1116"
       gradientUnits="userSpaceOnUse"
       x1="26.92"
       y1="38.22"
       x2="23.48"
       y2="38.22" />
    <linearGradient
       inkscape:collect="always"
       xlink:href="#linear-gradient-3"
       id="linearGradient1118"
       gradientUnits="userSpaceOnUse"
       x1="26.49"
       y1="36.46"
       x2="24.1"
       y2="20.19" />
  </defs>
  <title
     id="title55">21-Videogame</title>
  <g
     id="ART"
     style="isolation:isolate;stroke-width:0.925045"
     transform="matrix(1.0810282,0,0,1.0810282,-1.6341245,-4.8771256)">
    <g
       class="cls-4"
       id="g96"
       style="stroke-width:0.925045">
      <path
         class="cls-5"
         d="M 45.4,39.26 27.54,46.57 A 1,1 0 0 1 26.3,46.08 l -3.87,-7.74 a 0.83,0.83 0 0 1 0.41,-1.17 l 18.12,-7 a 1,1 0 0 1 1.24,0.49 l 3.62,7.45 a 0.83,0.83 0 0 1 -0.42,1.15 z"
         id="path60"
         style="stroke-width:0.925045" />
      <path
         class="cls-6"
         d="M 45.29,39.24 27.63,46.45 A 1,1 0 0 1 26.4,46 L 22.6,38.42 A 0.82,0.82 0 0 1 23,37.23 L 40.92,30.3 a 1,1 0 0 1 1.23,0.48 l 3.55,7.31 a 0.81,0.81 0 0 1 -0.41,1.15 z"
         id="path62"
         style="stroke-width:0.925045" />
      <path
         class="cls-7"
         d="M 45.19,39.21 27.71,46.33 A 1,1 0 0 1 26.5,45.85 l -3.73,-7.43 a 0.81,0.81 0 0 1 0.41,-1.13 l 17.7,-6.85 a 1,1 0 0 1 1.21,0.48 l 3.5,7.16 a 0.81,0.81 0 0 1 -0.4,1.13 z"
         id="path64"
         style="stroke-width:0.925045" />
      <path
         class="cls-8"
         d="m 45.08,39.19 -17.28,7 a 1,1 0 0 1 -1.2,-0.47 l -3.66,-7.27 a 0.8,0.8 0 0 1 0.4,-1.12 l 17.5,-6.77 a 1,1 0 0 1 1.19,0.47 l 3.45,7 a 0.8,0.8 0 0 1 -0.4,1.16 z"
         id="path66"
         style="stroke-width:0.925045" />
      <path
         class="cls-9"
         d="M 45,39.16 27.88,46.09 A 1,1 0 0 1 26.7,45.62 l -3.58,-7.11 a 0.78,0.78 0 0 1 0.39,-1.1 L 40.8,30.72 a 1,1 0 0 1 1.18,0.46 l 3.38,6.88 A 0.77,0.77 0 0 1 45,39.16 Z"
         id="path68"
         style="stroke-width:0.925045" />
      <path
         class="cls-10"
         d="M 44.86,39.14 28,46 a 0.94,0.94 0 0 1 -1.17,-0.46 l -3.51,-7 a 0.76,0.76 0 0 1 0.39,-1.08 l 17.08,-6.62 a 0.94,0.94 0 0 1 1.16,0.46 l 3.33,6.74 a 0.77,0.77 0 0 1 -0.42,1.1 z"
         id="path70"
         style="stroke-width:0.925045" />
      <path
         class="cls-11"
         d="m 44.75,39.11 -16.7,6.74 A 0.93,0.93 0 0 1 26.9,45.4 l -3.44,-6.8 a 0.76,0.76 0 0 1 0.39,-1.07 L 40.71,31 a 0.94,0.94 0 0 1 1.16,0.45 l 3.27,6.61 a 0.75,0.75 0 0 1 -0.39,1.05 z"
         id="path72"
         style="stroke-width:0.925045" />
      <path
         class="cls-12"
         d="M 44.64,39.09 28.13,45.73 A 0.92,0.92 0 0 1 27,45.28 l -3.37,-6.64 a 0.74,0.74 0 0 1 0.38,-1 l 16.66,-6.46 a 0.92,0.92 0 0 1 1.14,0.44 L 45,38 a 0.74,0.74 0 0 1 -0.36,1.09 z"
         id="path74"
         style="stroke-width:0.925045" />
      <path
         class="cls-13"
         d="M 44.54,39.06 28.22,45.61 A 0.91,0.91 0 0 1 27.1,45.17 l -3.29,-6.48 a 0.74,0.74 0 0 1 0.37,-1 l 16.45,-6.38 a 0.9,0.9 0 0 1 1.12,0.43 L 44.91,38 a 0.73,0.73 0 0 1 -0.37,1.06 z"
         id="path76"
         style="stroke-width:0.925045" />
      <path
         class="cls-14"
         d="M 44.43,39 28.3,45.49 A 0.89,0.89 0 0 1 27.2,45.06 L 24,38.73 a 0.7,0.7 0 0 1 0.37,-1 l 16.24,-6.31 a 0.91,0.91 0 0 1 1.11,0.43 L 44.8,38 a 0.72,0.72 0 0 1 -0.37,1 z"
         id="path78"
         style="stroke-width:0.925045" />
      <path
         class="cls-15"
         d="M 44.32,39 28.39,45.37 A 0.89,0.89 0 0 1 27.3,44.94 l -3.15,-6.17 a 0.7,0.7 0 0 1 0.36,-1 l 16,-6.23 a 0.88,0.88 0 0 1 1.09,0.42 l 3,6 A 0.7,0.7 0 0 1 44.32,39 Z"
         id="path80"
         style="stroke-width:0.925045" />
      <path
         class="cls-16"
         d="M 44.21,39 28.47,45.25 A 0.88,0.88 0 0 1 27.4,44.83 l -3.08,-6 a 0.7,0.7 0 0 1 0.36,-1 l 15.83,-6.16 a 0.87,0.87 0 0 1 1.07,0.42 l 3,5.91 a 0.69,0.69 0 0 1 -0.37,1 z"
         id="path82"
         style="stroke-width:0.925045" />
      <path
         class="cls-17"
         d="m 44.1,39 -15.54,6.12 a 0.85,0.85 0 0 1 -1.06,-0.4 l -3,-5.86 a 0.68,0.68 0 0 1 0.36,-1 l 15.62,-6.08 a 0.87,0.87 0 0 1 1.06,0.41 L 44.46,38 a 0.68,0.68 0 0 1 -0.36,1 z"
         id="path84"
         style="stroke-width:0.925045" />
      <path
         class="cls-18"
         d="M 44,38.94 28.64,45 a 0.84,0.84 0 0 1 -1,-0.39 l -2.93,-5.7 A 0.66,0.66 0 0 1 25,38 l 15.41,-6 a 0.85,0.85 0 0 1 1,0.4 L 44.34,38 A 0.66,0.66 0 0 1 44,38.94 Z"
         id="path86"
         style="stroke-width:0.925045" />
      <path
         class="cls-19"
         d="m 43.89,38.91 -15.16,6 a 0.83,0.83 0 0 1 -1,-0.39 L 24.84,39 a 0.65,0.65 0 0 1 0.34,-0.93 L 40.39,32.1 a 0.83,0.83 0 0 1 1,0.39 L 44.23,38 a 0.65,0.65 0 0 1 -0.34,0.91 z"
         id="path88"
         style="stroke-width:0.925045" />
      <path
         class="cls-20"
         d="m 43.78,38.89 -15,5.87 a 0.82,0.82 0 0 1 -1,-0.38 L 25,39 a 0.64,0.64 0 0 1 0.34,-0.91 l 15,-5.84 a 0.82,0.82 0 0 1 1,0.38 L 44.12,38 a 0.66,0.66 0 0 1 -0.34,0.89 z"
         id="path90"
         style="stroke-width:0.925045" />
      <path
         class="cls-21"
         d="M 43.67,38.86 28.9,44.64 a 0.81,0.81 0 0 1 -1,-0.37 L 25.18,39 a 0.63,0.63 0 0 1 0.34,-0.9 l 14.79,-5.76 a 0.8,0.8 0 0 1 1,0.37 L 44,38 a 0.62,0.62 0 0 1 -0.33,0.86 z"
         id="path92"
         style="stroke-width:0.925045" />
      <path
         class="cls-22"
         d="M 43.56,38.84 29,44.52 a 0.8,0.8 0 0 1 -1,-0.37 l -2.64,-5.07 a 0.62,0.62 0 0 1 0.32,-0.88 l 14.58,-5.69 a 0.8,0.8 0 0 1 1,0.38 L 43.89,38 a 0.62,0.62 0 0 1 -0.33,0.84 z"
         id="path94"
         style="stroke-width:0.925045" />
    </g>
    <g
       class="cls-4"
       id="g162"
       style="stroke-width:0.925045">
      <path
         class="cls-5"
         d="M 23.6,35.19 2.3,29.06 C 1.51,28.83 1.4,28.27 2.07,27.8 L 21.34,14.36 A 3.63,3.63 0 0 1 24,13.93 l 21.3,6.13 c 0.79,0.23 0.9,0.79 0.23,1.26 L 26.26,34.75 a 3.58,3.58 0 0 1 -2.66,0.44 z"
         id="path98"
         style="stroke-width:0.925045" />
      <path
         class="cls-23"
         d="M 23.61,35.1 2.48,29 C 1.69,28.77 1.59,28.22 2.26,27.75 L 21.37,14.45 A 3.55,3.55 0 0 1 24,14 l 21.12,6.1 c 0.79,0.22 0.89,0.78 0.23,1.25 L 26.24,34.67 a 3.57,3.57 0 0 1 -2.63,0.43 z"
         id="path100"
         style="stroke-width:0.925045" />
      <path
         class="cls-24"
         d="M 23.61,35 2.66,29 C 1.88,28.78 1.78,28.22 2.44,27.77 l 19,-13.22 a 3.52,3.52 0 0 1 2.6,-0.42 l 21,6 c 0.78,0.23 0.88,0.78 0.22,1.24 L 26.21,34.58 A 3.47,3.47 0 0 1 23.61,35 Z"
         id="path102"
         style="stroke-width:0.925045" />
      <path
         class="cls-25"
         d="M 23.61,34.92 2.84,29 C 2.07,28.77 1.97,28.22 2.62,27.77 L 21.41,14.67 A 3.47,3.47 0 0 1 24,14.2 l 20.77,6 c 0.78,0.23 0.87,0.78 0.22,1.23 L 26.19,34.5 a 3.47,3.47 0 0 1 -2.58,0.42 z"
         id="path104"
         style="stroke-width:0.925045" />
      <path
         class="cls-26"
         d="M 23.61,34.83 3,28.91 C 2.23,28.69 2.13,28.14 2.78,27.69 l 18.63,-13 A 3.37,3.37 0 0 1 24,14.29 l 20.59,5.92 c 0.77,0.22 0.87,0.77 0.22,1.22 l -18.63,13 a 3.42,3.42 0 0 1 -2.57,0.4 z"
         id="path106"
         style="stroke-width:0.925045" />
      <path
         class="cls-27"
         d="M 23.61,34.74 3.2,28.87 C 2.44,28.65 2.34,28.11 2.98,27.66 L 21.45,14.79 A 3.37,3.37 0 0 1 24,14.38 l 20.4,5.87 c 0.76,0.22 0.86,0.76 0.22,1.2 L 26.15,34.33 a 3.37,3.37 0 0 1 -2.54,0.41 z"
         id="path108"
         style="stroke-width:0.925045" />
      <path
         class="cls-28"
         d="M 23.61,34.65 3.38,28.83 C 2.62,28.62 2.53,28.08 3.16,27.64 L 21.47,14.88 A 3.31,3.31 0 0 1 24,14.47 l 20.23,5.82 c 0.76,0.21 0.85,0.75 0.22,1.19 L 26.13,34.24 a 3.31,3.31 0 0 1 -2.52,0.41 z"
         id="path110"
         style="stroke-width:0.925045" />
      <path
         class="cls-29"
         d="M 23.61,34.56 3.61,28.8 C 2.86,28.58 2.76,28.05 3.39,27.61 L 21.49,15 a 3.31,3.31 0 0 1 2.5,-0.4 L 44,20.32 c 0.75,0.22 0.85,0.75 0.22,1.19 L 26.11,34.16 a 3.31,3.31 0 0 1 -2.5,0.4 z"
         id="path112"
         style="stroke-width:0.925045" />
      <path
         class="cls-30"
         d="M 23.62,34.47 3.74,28.76 C 3,28.54 2.9,28 3.53,27.58 l 18,-12.53 A 3.29,3.29 0 0 1 24,14.64 l 19.88,5.72 c 0.74,0.21 0.84,0.74 0.21,1.18 l -18,12.53 a 3.24,3.24 0 0 1 -2.47,0.4 z"
         id="path114"
         style="stroke-width:0.925045" />
      <path
         class="cls-31"
         d="M 23.62,34.39 3.92,28.72 C 3.18,28.51 3.09,27.99 3.71,27.56 L 21.53,15.13 a 3.29,3.29 0 0 1 2.45,-0.4 l 19.7,5.67 c 0.74,0.21 0.83,0.73 0.21,1.16 L 26.07,34 a 3.29,3.29 0 0 1 -2.45,0.39 z"
         id="path116"
         style="stroke-width:0.925045" />
      <path
         class="cls-32"
         d="M 23.62,34.3 4.1,28.68 C 3.37,28.47 3.28,27.96 3.89,27.53 L 21.55,15.22 a 3.23,3.23 0 0 1 2.43,-0.4 l 19.52,5.62 c 0.73,0.21 0.82,0.72 0.21,1.15 L 26.05,33.9 a 3.23,3.23 0 0 1 -2.43,0.4 z"
         id="path118"
         style="stroke-width:0.925045" />
      <path
         class="cls-33"
         d="M 23.62,34.21 4.28,28.65 C 3.56,28.44 3.46,27.93 4.07,27.5 L 21.57,15.3 A 3.23,3.23 0 0 1 24,14.91 l 19.34,5.56 c 0.72,0.21 0.82,0.72 0.21,1.15 L 26,33.82 a 3.23,3.23 0 0 1 -2.38,0.39 z"
         id="path120"
         style="stroke-width:0.925045" />
      <path
         class="cls-34"
         d="M 23.62,34.12 4.46,28.61 C 3.74,28.4 3.65,27.89 4.25,27.48 L 21.59,15.39 A 3.17,3.17 0 0 1 24,15 l 19.16,5.51 c 0.72,0.21 0.81,0.71 0.21,1.13 L 26,33.73 a 3.17,3.17 0 0 1 -2.38,0.39 z"
         id="path122"
         style="stroke-width:0.925045" />
      <path
         class="cls-35"
         d="m 23.62,34 -19,-5.46 C 3.91,28.34 3.82,27.83 4.41,27.42 l 17.18,-12 A 3.17,3.17 0 0 1 24,15.09 l 19,5.46 c 0.71,0.2 0.8,0.7 0.21,1.12 L 26,33.65 A 3.22,3.22 0 0 1 23.62,34 Z"
         id="path124"
         style="stroke-width:0.925045" />
      <path
         class="cls-36"
         d="M 23.63,33.94 4.82,28.53 c -0.71,-0.2 -0.8,-0.7 -0.2,-1.11 l 17,-11.86 A 3.09,3.09 0 0 1 24,15.18 l 18.81,5.41 c 0.71,0.2 0.8,0.7 0.2,1.11 L 26,33.56 a 3.14,3.14 0 0 1 -2.37,0.38 z"
         id="path126"
         style="stroke-width:0.925045" />
      <path
         class="cls-37"
         d="M 23.63,33.85 5,28.5 C 4.3,28.3 4.21,27.8 4.8,27.39 L 21.65,15.64 A 3.09,3.09 0 0 1 24,15.27 l 18.6,5.35 c 0.7,0.2 0.79,0.7 0.2,1.11 L 26,33.48 a 3.14,3.14 0 0 1 -2.37,0.37 z"
         id="path128"
         style="stroke-width:0.925045" />
      <path
         class="cls-38"
         d="M 23.63,33.76 5.18,28.46 C 4.49,28.26 4.4,27.77 4.98,27.37 L 21.67,15.73 a 3.08,3.08 0 0 1 2.3,-0.38 l 18.45,5.31 c 0.69,0.2 0.78,0.69 0.2,1.09 L 25.93,33.39 a 3,3 0 0 1 -2.3,0.37 z"
         id="path130"
         style="stroke-width:0.925045" />
      <path
         class="cls-39"
         d="M 23.63,33.68 5.36,28.42 C 4.67,28.22 4.59,27.74 5.16,27.34 L 21.69,15.81 A 3.08,3.08 0 0 1 24,15.44 l 18.24,5.26 c 0.69,0.2 0.77,0.68 0.2,1.08 L 25.91,33.31 a 3.08,3.08 0 0 1 -2.28,0.37 z"
         id="path132"
         style="stroke-width:0.925045" />
      <path
         class="cls-40"
         d="M 23.63,33.59 5.54,28.38 C 4.86,28.19 4.77,27.71 5.34,27.31 L 21.71,15.9 A 3,3 0 0 1 24,15.53 l 18.09,5.21 c 0.68,0.19 0.77,0.67 0.2,1.07 l -16.4,11.41 a 3,3 0 0 1 -2.26,0.37 z"
         id="path134"
         style="stroke-width:0.925045" />
      <path
         class="cls-41"
         d="M 23.63,33.5 5.72,28.34 C 5.05,28.15 4.96,27.68 5.52,27.29 L 21.73,16 A 3,3 0 0 1 24,15.62 l 17.91,5.15 c 0.67,0.2 0.76,0.67 0.2,1.06 L 25.87,33.14 a 3,3 0 0 1 -2.24,0.36 z"
         id="path136"
         style="stroke-width:0.925045" />
      <path
         class="cls-42"
         d="M 23.64,33.41 5.9,28.31 C 5.23,28.12 5.15,27.65 5.7,27.31 L 21.75,16.07 A 3,3 0 0 1 24,15.71 l 17.75,5.1 c 0.66,0.19 0.74,0.66 0.19,1.05 l -16,11.19 a 3,3 0 0 1 -2.3,0.36 z"
         id="path138"
         style="stroke-width:0.925045" />
      <path
         class="cls-43"
         d="M 23.64,33.32 6.07,28.27 C 5.42,28.08 5.33,27.62 5.89,27.27 L 21.78,16.15 A 2.92,2.92 0 0 1 24,15.8 l 17.57,5.05 c 0.65,0.19 0.74,0.65 0.18,1 L 25.82,33 a 2.92,2.92 0 0 1 -2.18,0.32 z"
         id="path140"
         style="stroke-width:0.925045" />
      <path
         class="cls-44"
         d="m 23.64,33.23 -17.39,-5 c -0.64,-0.18 -0.73,-0.64 -0.18,-1 l 15.73,-11 A 2.86,2.86 0 0 1 24,15.89 l 17.39,5 c 0.65,0.18 0.73,0.64 0.18,1 l -15.73,11 a 2.86,2.86 0 0 1 -2.2,0.34 z"
         id="path142"
         style="stroke-width:0.925045" />
      <path
         class="cls-45"
         d="M 23.64,33.14 6.43,28.19 C 5.79,28.01 5.71,27.55 6.25,27.19 L 21.82,16.32 A 2.86,2.86 0 0 1 24,16 l 17.21,4.94 c 0.64,0.19 0.72,0.64 0.18,1 L 25.78,32.79 a 2.82,2.82 0 0 1 -2.14,0.35 z"
         id="path144"
         style="stroke-width:0.925045" />
      <path
         class="cls-46"
         d="m 23.64,33.05 -17,-4.89 C 6.01,27.97 5.93,27.52 6.46,27.16 L 21.84,16.41 A 2.85,2.85 0 0 1 24,16.06 L 41,21 c 0.63,0.19 0.71,0.64 0.18,1 L 25.76,32.71 a 2.8,2.8 0 0 1 -2.12,0.34 z"
         id="path146"
         style="stroke-width:0.925045" />
      <path
         class="cls-47"
         d="M 23.64,33 6.79,28.12 C 6.16,27.94 6.08,27.49 6.61,27.12 L 21.86,16.49 a 2.85,2.85 0 0 1 2.1,-0.34 L 40.81,21 c 0.63,0.18 0.71,0.63 0.18,1 L 25.74,32.62 A 2.81,2.81 0 0 1 23.64,33 Z"
         id="path148"
         style="stroke-width:0.925045" />
      <path
         class="cls-48"
         d="M 23.65,32.88 7,28.08 C 6.38,27.9 6.3,27.46 6.82,27.08 L 21.88,16.58 A 2.73,2.73 0 0 1 24,16.24 L 40.63,21 c 0.62,0.18 0.7,0.62 0.18,1 L 25.72,32.54 a 2.77,2.77 0 0 1 -2.07,0.34 z"
         id="path150"
         style="stroke-width:0.925045" />
      <path
         class="cls-49"
         d="M 23.65,32.79 7.15,28 C 6.54,27.83 6.46,27.39 6.98,27 L 21.9,16.66 A 2.73,2.73 0 0 1 24,16.33 l 16.5,4.74 c 0.61,0.18 0.69,0.62 0.17,1 L 25.7,32.45 a 2.73,2.73 0 0 1 -2.05,0.34 z"
         id="path152"
         style="stroke-width:0.925045" />
      <path
         class="cls-50"
         d="M 23.65,32.7 7.33,28 C 6.72,27.82 6.64,27.39 7.16,27 L 21.92,16.75 a 2.67,2.67 0 0 1 2,-0.33 l 16.32,4.69 c 0.61,0.18 0.69,0.61 0.17,1 L 25.68,32.37 a 2.72,2.72 0 0 1 -2.03,0.33 z"
         id="path154"
         style="stroke-width:0.925045" />
      <path
         class="cls-51"
         d="M 23.65,32.61 7.51,28 C 6.91,27.83 6.83,27.4 7.34,27 l 14.6,-10.17 a 2.67,2.67 0 0 1 2,-0.33 l 16.14,4.64 c 0.6,0.17 0.68,0.6 0.17,1 L 25.66,32.28 a 2.67,2.67 0 0 1 -2.01,0.33 z"
         id="path156"
         style="stroke-width:0.925045" />
      <path
         class="cls-52"
         d="m 23.65,32.52 -16,-4.59 C 7.06,27.76 6.98,27.34 7.48,26.99 L 22,16.92 a 2.66,2.66 0 0 1 2,-0.32 l 16,4.59 c 0.59,0.17 0.67,0.59 0.17,0.94 L 25.64,32.2 a 2.66,2.66 0 0 1 -1.99,0.32 z"
         id="path158"
         style="stroke-width:0.925045" />
      <path
         class="cls-53"
         d="M 23.65,32.43 7.87,27.89 C 7.28,27.72 7.21,27.31 7.7,26.96 L 22,17 a 2.62,2.62 0 0 1 2,-0.32 l 15.78,4.54 c 0.59,0.16 0.66,0.58 0.17,0.93 l -14.28,10 a 2.62,2.62 0 0 1 -2.02,0.28 z"
         id="path160"
         style="stroke-width:0.925045" />
    </g>
    <path
       class="cls-54"
       d="m 44.74,36.41 -1.09,-0.73 -1.83,-3.5 a 0.85,0.85 0 0 0 -1,-0.4 l -11.53,4.47 -4.59,0.66 v 1.57 0 a 0.66,0.66 0 0 0 0.07,0.33 l 2.84,5.44 a 0.86,0.86 0 0 0 1.05,0.4 l 15.64,-6.1 a 0.65,0.65 0 0 0 0.42,-0.61 v 0 z"
       id="path164"
       style="stroke-width:0.925045" />
    <path
       class="cls-55"
       d="m 44.74,36.41 -1.09,-0.73 -1.83,-3.5 a 0.85,0.85 0 0 0 -1,-0.4 l -11.53,4.47 -4.59,0.66 v 1.57 0 a 0.67,0.67 0 0 0 0.08,0.33 l 2.84,5.44 a 0.86,0.86 0 0 0 1.05,0.4 l 15.64,-6.1 a 0.65,0.65 0 0 0 0.42,-0.61 v 0 z"
       id="path166"
       style="fill:url(#linearGradient1116);stroke-width:0.925045" />
    <polyline
       class="cls-56"
       points="28.53 43.15 28.45 44.05 44.12 37.94 44.12 37.07"
       id="polyline168"
       style="fill:url(#linear-gradient-2);stroke-width:0.925045" />
    <path
       class="cls-57"
       d="m 41.27,15.55 -4.73,3.29 -10.77,7.51 a 2.33,2.33 0 0 1 -0.73,0.31 2.79,2.79 0 0 1 -1.4,0 L 11.06,23.08 6.51,21.77 C 6.16,21.66 5.98,21.49 5.98,21.27 v 5.63 c 0,0.2 0.18,0.39 0.53,0.49 l 17.13,4.93 a 2.91,2.91 0 0 0 1.4,0 2.33,2.33 0 0 0 0.73,-0.31 L 41.27,21.2 a 0.68,0.68 0 0 0 0.35,-0.51 V 15 a 0.72,0.72 0 0 1 -0.35,0.55 z"
       id="path170" />
    <path
       class="cls-57"
       d="M 23.64,26.7 6.52,21.77 C 5.88,21.59 5.79,21.13 6.33,20.77 L 21.83,10 A 2.83,2.83 0 0 1 24,9.61 l 17.12,4.93 c 0.64,0.18 0.73,0.63 0.19,1 l -15.5,10.8 a 2.88,2.88 0 0 1 -2.17,0.36 z"
       id="path172" />
    <path
       class="cls-58"
       d="M 23.64,26.7 6.52,21.77 C 5.88,21.59 5.79,21.13 6.33,20.77 L 21.83,10 A 2.83,2.83 0 0 1 24,9.61 l 17.12,4.93 c 0.64,0.18 0.73,0.63 0.19,1 l -15.5,10.8 a 2.88,2.88 0 0 1 -2.17,0.36 z"
       id="path174"
       style="fill:url(#linearGradient1118);stroke-width:0.925045" />
    <g
       class="cls-59"
       clip-path="url(#clip-path)"
       id="g182"
       style="stroke-width:0.925045">
      <ellipse
         class="cls-60"
         cx="30.129999"
         cy="13.32"
         rx="7.3899999"
         ry="18.049999"
         transform="rotate(-85.49,30.134357,13.316031)"
         id="ellipse176" />
      <path
         class="cls-61"
         d="M 32.16,19.44 A 2.29,2.29 0 0 1 31.5,19.35 L 19.55,15.91 a 1.45,1.45 0 0 1 -1.1,-1.16 1.49,1.49 0 0 1 0.69,-1.46 l 1.27,-0.85 a 2.69,2.69 0 0 1 1.51,-0.44 2.34,2.34 0 0 1 0.66,0.09 l 11.94,3.43 a 1.48,1.48 0 0 1 1.11,1.17 1.46,1.46 0 0 1 -0.7,1.45 L 33.67,19 a 2.82,2.82 0 0 1 -1.51,0.44 z"
         id="path178"
         style="fill:url(#linear-gradient-4);stroke-width:0.925045" />
      <path
         class="cls-62"
         d="M 32.16,19.44 A 2.29,2.29 0 0 1 31.5,19.35 L 19.55,15.91 a 1.45,1.45 0 0 1 -1.1,-1.16 1.49,1.49 0 0 1 0.69,-1.46 l 1.27,-0.85 a 2.69,2.69 0 0 1 1.51,-0.44 2.34,2.34 0 0 1 0.66,0.09 l 11.94,3.43 a 1.48,1.48 0 0 1 1.11,1.17 1.46,1.46 0 0 1 -0.7,1.45 L 33.67,19 a 2.82,2.82 0 0 1 -1.51,0.44 z"
         id="path180" />
    </g>
    <polygon
       class="cls-63"
       points="14.5,21.6 20.67,23.37 19.53,24.17 13.36,22.39 "
       id="polygon184"
       style="stroke-width:0.925045" />
    <ellipse
       class="cls-64"
       cx="13.35"
       cy="19.68"
       rx="2.2"
       ry="1.05"
       transform="rotate(-8.91,13.379514,19.701686)"
       id="ellipse186"
       style="stroke-width:0.925045" />
    <path
       class="cls-65"
       d="m 15.54,19.42 a 2.7,2.7 0 0 0 -2.09,-0.16 3.34,3.34 0 0 0 -2,1.18 c -0.46,-0.32 -0.4,-0.82 0.21,-1.24 a 4.15,4.15 0 0 1 3.07,-0.5 c 0.54,0.14 0.81,0.42 0.81,0.72 z"
       id="path188"
       style="fill:url(#linear-gradient-5);stroke-width:0.925045" />
    <ellipse
       class="cls-64"
       cx="25.040001"
       cy="23.040001"
       rx="2.2"
       ry="1.05"
       transform="rotate(-8.91,25.06196,23.065351)"
       id="ellipse190"
       style="stroke-width:0.925045" />
    <path
       class="cls-66"
       d="m 25,26.66 v 5.62 a 2.91,2.91 0 0 1 -1.4,0 L 6.51,27.39 C 6.16,27.29 5.98,27.1 5.98,26.9 v -5.63 c 0,0.22 0.18,0.39 0.53,0.5 l 4.55,1.31 12.58,3.62 A 2.79,2.79 0 0 0 25,26.66 Z"
       id="path192"
       style="fill:url(#linear-gradient-6);stroke-width:0.925045" />
    <path
       class="cls-67"
       d="m 25,26.66 v 5.62 a 2.91,2.91 0 0 1 -1.4,0 L 6.51,27.39 C 6.16,27.29 5.98,27.1 5.98,26.9 v -5.63 c 0,0.22 0.18,0.39 0.53,0.5 l 4.55,1.31 12.58,3.62 A 2.79,2.79 0 0 0 25,26.66 Z"
       id="path194"
       style="fill:url(#linear-gradient-7);stroke-width:0.925045" />
    <path
       class="cls-68"
       d="m 27.22,22.8 a 2.63,2.63 0 0 0 -2.08,-0.17 3.44,3.44 0 0 0 -2,1.18 c -0.45,-0.32 -0.39,-0.82 0.22,-1.25 a 4.06,4.06 0 0 1 3.07,-0.49 c 0.57,0.14 0.8,0.42 0.79,0.73 z"
       id="path196"
       style="fill:url(#linear-gradient-8);stroke-width:0.925045" />
    <ellipse
       class="cls-69"
       cx="13.35"
       cy="19.68"
       rx="2.2"
       ry="1.05"
       transform="rotate(-8.91,13.379514,19.701686)"
       id="ellipse198" />
    <ellipse
       class="cls-69"
       cx="25.040001"
       cy="23.040001"
       rx="2.2"
       ry="1.05"
       transform="rotate(-8.91,25.06196,23.065351)"
       id="ellipse200" />
    <path
       class="cls-70"
       d="m 41.62,15 v 5.63 a 0.68,0.68 0 0 1 -0.35,0.51 L 25.77,32 a 2.33,2.33 0 0 1 -0.73,0.31 v -5.65 a 2.33,2.33 0 0 0 0.73,-0.31 l 10.77,-7.51 4.73,-3.29 A 0.72,0.72 0 0 0 41.62,15 Z"
       id="path202"
       style="fill:url(#linear-gradient-9);stroke-width:0.925045" />
    <polygon
       class="cls-71"
       points="40.44,16.12 40.44,21.74 26.16,31.7 26.16,26.08 36.54,18.84 "
       id="polygon204"
       style="fill:url(#linear-gradient-10);stroke-width:0.925045" />
    <path
       class="cls-72"
       d="m 23.79,26.74 v 5.6 H 23.64 L 7.13,27.57 V 22 l 3.93,1.13 12.58,3.57 a 0.66,0.66 0 0 0 0.15,0.04 z"
       id="path206"
       style="fill:url(#linear-gradient-11);stroke-width:0.925045" />
    <path
       class="cls-73"
       d="m 41.62,19.46 v 1.19 a 0.68,0.68 0 0 1 -0.35,0.51 L 25.77,32 a 2.33,2.33 0 0 1 -0.73,0.31 2.91,2.91 0 0 1 -1.4,0 L 6.51,27.39 C 6.16,27.29 5.98,27.1 5.98,26.9 v -1.19 c 0,0.2 0.18,0.39 0.53,0.49 l 17.13,4.93 a 2.91,2.91 0 0 0 1.4,0 2.33,2.33 0 0 0 0.73,-0.31 L 41.27,20 a 0.68,0.68 0 0 0 0.35,-0.54 z"
       id="path208"
       style="fill:url(#linear-gradient-12);stroke-width:0.925045" />
    <path
       class="cls-74"
       d="m 41.62,19.46 v 1.19 a 0.68,0.68 0 0 1 -0.35,0.51 L 25.77,32 a 2.33,2.33 0 0 1 -0.73,0.31 2.91,2.91 0 0 1 -1.4,0 L 6.51,27.39 C 6.16,27.29 5.98,27.1 5.98,26.9 v -1.19 c 0,0.2 0.18,0.39 0.53,0.49 l 17.13,4.93 a 2.91,2.91 0 0 0 1.4,0 2.33,2.33 0 0 0 0.73,-0.31 L 41.27,20 a 0.68,0.68 0 0 0 0.35,-0.54 z"
       id="path210"
       style="stroke-width:0.925045" />
    <path
       class="cls-75"
       d="m 13.34,26 v 1.41 l -1.44,1 a 2,2 0 0 1 -1.66,0.28 L 7.34,27.85 A 0.5,0.5 0 0 1 7,27.34 v -1.41 l 0.12,-0.08 0.69,0.32 0.73,-0.2 z"
       id="path212"
       style="fill:url(#linear-gradient-13);stroke-width:0.925045" />
    <path
       class="cls-76"
       d="m 13.34,26 v 1.41 l -1.44,1 a 2,2 0 0 1 -0.72,0.3 V 26 Z"
       id="path214"
       style="fill:url(#linear-gradient-14);stroke-width:0.925045" />
    <path
       class="cls-77"
       d="M 13.34,26 8.51,24.56 7.18,25.48 a 0.51,0.51 0 0 0 0.16,0.91 l 2.9,0.84 A 2,2 0 0 0 11.9,27 Z"
       id="path216"
       style="fill:url(#linear-gradient-15);stroke-width:0.925045" />
    <path
       class="cls-78"
       d="M 13.34,26 8.51,24.56 7.18,25.48 a 0.51,0.51 0 0 0 0.16,0.91 l 2.9,0.84 A 2,2 0 0 0 11.9,27 Z"
       id="path218"
       style="fill:url(#linear-gradient-16);stroke-width:0.925045" />
    <path
       class="cls-62"
       d="m 8.51,24.56 -1.33,0.92 a 0.5,0.5 0 0 0 -0.2,0.44 H 7 v 1.41 a 0.5,0.5 0 0 0 0.37,0.46 l 2.9,0.84 a 2,2 0 0 0 1.66,-0.28 l 1.44,-1 V 26 Z"
       id="path220" />
    <polygon
       class="cls-53"
       points="22.42,29.84 17.59,28.45 17.59,27.04 22.42,28.43 "
       id="polygon222"
       style="stroke-width:0.925045" />
    <path
       class="cls-79"
       d="m 34.46,35.37 c -1.3,-2.55 -3.94,-3.07 -6.53,-2.34 -3.1,0.86 -5.93,2.31 -9.19,2.69 a 13.21,13.21 0 0 1 -6.68,-0.79 c -0.64,-0.26 -1.44,-0.69 -1.54,-1.45 -0.38,-2.89 6.61,-2.38 6.87,0.53 0.19,2.1 -2.51,3 -4.1,3.47 A 11,11 0 0 1 7,37.08 5,5 0 0 1 3.88,32.34 c 0.18,-3.12 3,-2.89 4.82,-4.5"
       id="path224" />
    <path
       class="cls-80"
       d="m 44.74,36.41 -1.09,-0.73 -1.83,-3.5 a 0.85,0.85 0 0 0 -1,-0.4 l -11.53,4.47 -4.59,0.66 v 1.58 a 0.67,0.67 0 0 0 0.08,0.33 l 2.84,5.44 a 0.86,0.86 0 0 0 1.05,0.4 l 15.64,-6.1 a 0.65,0.65 0 0 0 0.42,-0.61 v 0 z"
       id="path226" />
    <path
       class="cls-54"
       d="M 44.31,37 28.67,43.09 A 0.86,0.86 0 0 1 27.62,42.7 l -2.84,-5.44 a 0.67,0.67 0 0 1 0.35,-0.95 l 15.64,-6.1 a 0.86,0.86 0 0 1 1,0.4 l 2.84,5.44 A 0.68,0.68 0 0 1 44.31,37 Z"
       id="path228"
       style="stroke-width:0.925045" />
    <polygon
       class="cls-81"
       points="28.39,42.35 25.59,36.98 30.33,35.13 31.82,35.56 35.69,34.05 36.31,32.8 41.05,30.95 43.85,36.33 "
       id="polygon230"
       style="fill:url(#linear-gradient-17);stroke-width:0.925045" />
    <polygon
       class="cls-54"
       points="34.39,37.47 34.1,36.91 35.35,36.42 35.65,36.98 "
       id="polygon232"
       style="stroke-width:0.925045" />
    <polygon
       class="cls-54"
       points="35.01,38.65 34.72,38.09 35.97,37.6 36.26,38.16 "
       id="polygon234"
       style="stroke-width:0.925045" />
    <ellipse
       class="cls-82"
       cx="39.73"
       cy="36.220001"
       rx="0.68000001"
       ry="0.77999997"
       transform="rotate(-88.6,39.73342,36.223459)"
       id="ellipse236"
       style="stroke-width:0.925045" />
    <ellipse
       class="cls-82"
       cx="37.619999"
       cy="35.52"
       rx="0.68000001"
       ry="0.77999997"
       transform="rotate(-88.6,37.618787,35.520281)"
       id="ellipse238"
       style="stroke-width:0.925045" />
    <ellipse
       class="cls-82"
       cx="38.41"
       cy="33.689999"
       rx="0.68000001"
       ry="0.77999997"
       transform="rotate(-88.6,38.406418,33.688121)"
       id="ellipse240"
       style="stroke-width:0.925045" />
    <ellipse
       class="cls-82"
       cx="40.52"
       cy="34.389999"
       rx="0.68000001"
       ry="0.77999997"
       transform="rotate(-88.6,40.521051,34.391299)"
       id="ellipse242"
       style="stroke-width:0.925045" />
    <path
       class="cls-83"
       d="M 41.62,15 6,21.27 A 0.68,0.68 0 0 1 6.35,20.76 L 21.83,10 A 2.83,2.83 0 0 1 24,9.61 l 17.12,4.93 c 0.31,0.1 0.49,0.28 0.5,0.46 z"
       id="path244"
       style="fill:url(#linear-gradient-18);stroke-width:0.925045" />
    <path
       class="cls-84"
       d="m 32.57,11.52 v 6.66 a 1.5,1.5 0 0 1 -0.86,0 h -0.06 v -6.64 h 0.06 a 1.5,1.5 0 0 0 0.86,-0.02 z"
       id="path246" />
    <path
       class="cls-85"
       d="m 34.34,10.35 v 6.56 0 c 0,0.1 -0.06,0.19 -0.2,0.29 L 32.9,18 a 1.11,1.11 0 0 1 -0.33,0.15 1.5,1.5 0 0 1 -0.86,0 H 31.65 L 20,14.86 c -0.19,0 -0.29,-0.16 -0.29,-0.27 v 0 V 8 L 21,7.62 27.62,9.46 Z"
       id="path248"
       style="stroke-width:0.925045" />
    <path
       class="cls-86"
       d="m 34.34,10.35 v 6.56 0 c 0,0.1 -0.06,0.19 -0.2,0.29 L 32.9,18 a 1.11,1.11 0 0 1 -0.33,0.15 1.5,1.5 0 0 1 -0.86,0 H 31.65 L 20,14.86 c -0.19,0 -0.29,-0.16 -0.29,-0.27 v 0 V 8 L 21,7.62 27.62,9.46 Z"
       id="path250"
       style="fill:url(#linear-gradient-19);stroke-width:0.925045" />
    <polygon
       class="cls-87"
       points="30.65,17.84 30.65,12.66 21.09,9.9 21.09,15.1 "
       id="polygon252"
       style="stroke-width:0.925045" />
    <polygon
       class="cls-88"
       points="19.71,14.6 19.71,7.95 21.03,7.62 27.65,9.46 32.18,10.07 31.72,11.57 19.72,14.6 "
       id="polygon254"
       style="fill:url(#linear-gradient-20);stroke-width:0.925045" />
    <path
       class="cls-89"
       d="m 34.34,10.35 v 6.56 0 c 0,0.1 -0.06,0.19 -0.2,0.29 L 32.9,18 a 1.11,1.11 0 0 1 -0.33,0.15 1.5,1.5 0 0 1 -0.86,0 H 31.65 L 20,14.86 c -0.19,0 -0.29,-0.16 -0.29,-0.27 v 0 V 8 L 21,7.62 27.62,9.46 Z"
       id="path256" />
    <path
       class="cls-90"
       d="m 33.51,10.4 v 7.27 L 32.9,18 a 1.11,1.11 0 0 1 -0.33,0.15 v -8.04 z"
       id="path258"
       style="stroke-width:0.925045" />
    <path
       class="cls-85"
       d="M 31.71,11.54 20,8.17 C 19.65,8.07 19.61,7.82 19.92,7.61 L 21.16,6.77 A 1.62,1.62 0 0 1 22.34,6.58 L 34.05,10 c 0.36,0.1 0.39,0.35 0.09,0.56 L 32.9,11.4 a 1.6,1.6 0 0 1 -1.19,0.14 z"
       id="path260"
       style="stroke-width:0.925045" />
    <path
       class="cls-91"
       d="M 31.71,11.54 20,8.17 C 19.65,8.07 19.61,7.82 19.92,7.61 L 21.16,6.77 A 1.62,1.62 0 0 1 22.34,6.58 L 34.05,10 c 0.36,0.1 0.39,0.35 0.09,0.56 L 32.9,11.4 a 1.6,1.6 0 0 1 -1.19,0.14 z"
       id="path262"
       style="fill:url(#linear-gradient-21);stroke-width:0.925045" />
    <polygon
       class="cls-85"
       points="21.09,7.92 22.02,7.26 32.68,10.33 31.71,10.98 "
       id="polygon264"
       style="stroke-width:0.925045" />
    <path
       class="cls-92"
       d="M 34.05,10 22.34,6.58 a 1.62,1.62 0 0 0 -1.18,0.19 l -1.24,0.84 a 0.39,0.39 0 0 0 -0.21,0.34 v 0 6.64 c 0,0.11 0.1,0.22 0.29,0.27 l 11.65,3.34 h 0.06 a 1.5,1.5 0 0 0 0.86,0 1.11,1.11 0 0 0 0.33,-0.2 l 1.24,-0.83 c 0.14,-0.1 0.2,-0.19 0.2,-0.29 v -6.53 0 A 0.38,0.38 0 0 0 34.05,10 Z"
       id="path266" />
    <path
       class="cls-93"
       d="M 5.25,35.88 A 4.82,4.82 0 0 1 3.82,32.27 c 0.12,-2.17 1.51,-2.72 3,-3.39"
       id="path268" />
    <path
       class="cls-93"
       d="m 11,34.35 a 1.44,1.44 0 0 1 -0.6,-0.94 c -0.22,-1.62 1.87,-2.17 3.8,-1.83"
       id="path270" />
    <path
       class="cls-93"
       d="m 25.21,33.81 a 29.76,29.76 0 0 1 -6.57,1.84 h -0.22"
       id="path272" />
    <path
       class="cls-94"
       d="M 41.36,30.31 28.14,43.2 a 0.8,0.8 0 0 1 -0.52,-0.41 l -2.84,-5.44 a 0.67,0.67 0 0 1 0.35,-1 l 15.64,-6.09 a 0.76,0.76 0 0 1 0.59,0.05 z"
       id="path274"
       style="fill:url(#linear-gradient-22);stroke-width:0.925045" />
    <path
       class="cls-95"
       d="M 44.31,37 28.67,43.09 A 0.86,0.86 0 0 1 27.62,42.7 l -2.84,-5.44 a 0.67,0.67 0 0 1 0.35,-0.95 l 15.64,-6.1 a 0.86,0.86 0 0 1 1,0.4 l 2.84,5.44 A 0.68,0.68 0 0 1 44.31,37 Z"
       id="path276" />
    <path
       class="cls-96"
       d="m 29.05,36.88 a 2.75,2.75 0 0 1 0.72,-0.16 l 0.5,1 1.09,-0.43 A 1.79,1.79 0 0 1 32,38.42 l -1.1,0.43 0.5,1 a 2,2 0 0 1 -0.61,0.37 2.65,2.65 0 0 1 -0.73,0.16 l -0.5,-1 -1.1,0.43 a 1.9,1.9 0 0 1 -0.43,-0.54 1.46,1.46 0 0 1 -0.18,-0.63 l 1.1,-0.43 -0.5,-1 a 2.13,2.13 0 0 1 0.6,-0.33 z"
       id="path278" />
    <ellipse
       class="cls-97"
       cx="29.9"
       cy="38.529999"
       rx="0.44999999"
       ry="0.51999998"
       transform="rotate(-88.6,29.904663,38.525527)"
       id="ellipse280"
       style="stroke-width:0.925045" />
    <path
       class="cls-98"
       d="m 44.73,36.4 a 0.73,0.73 0 0 0 -0.07,-0.35 l -2.84,-5.44 a 0.86,0.86 0 0 0 -1,-0.4 l -15.64,6.1 a 0.65,0.65 0 0 0 -0.42,0.6 v 0 1.58 a 0.67,0.67 0 0 0 0.08,0.33 l 2.84,5.44 a 0.86,0.86 0 0 0 1.05,0.4 l 15.64,-6.1 a 0.65,0.65 0 0 0 0.42,-0.61 v 0 -1.54 z"
       id="path282" />
  </g>
</svg>
