<?xml version="1.0" encoding="UTF-8" standalone="no"?>
<!-- Created with Inkscape (http://www.inkscape.org/) -->

<svg
   xmlns:dc="http://purl.org/dc/elements/1.1/"
   xmlns:cc="http://creativecommons.org/ns#"
   xmlns:rdf="http://www.w3.org/1999/02/22-rdf-syntax-ns#"
   xmlns:svg="http://www.w3.org/2000/svg"
   xmlns="http://www.w3.org/2000/svg"
   xmlns:xlink="http://www.w3.org/1999/xlink"
   xmlns:sodipodi="http://sodipodi.sourceforge.net/DTD/sodipodi-0.dtd"
   xmlns:inkscape="http://www.inkscape.org/namespaces/inkscape"
   width="48px"
   height="48px"
   id="svg81265"
   version="1.1"
   inkscape:version="0.48.5 r10040"
   sodipodi:docname="adjust_length.svg">
  <defs
     id="defs81267">
    <linearGradient
       id="linearGradient82210">
      <stop
         style="stop-color:#e9b96e;stop-opacity:0;"
         offset="0"
         id="stop82212" />
      <stop
         id="stop82218"
         offset="0.5"
         style="stop-color:#e9b96e;stop-opacity:1;" />
      <stop
         style="stop-color:#e9b96e;stop-opacity:0;"
         offset="1"
         id="stop82214" />
    </linearGradient>
    <linearGradient
       id="linearGradient82200">
      <stop
         style="stop-color:#905d0d;stop-opacity:1;"
         offset="0"
         id="stop82202" />
      <stop
         style="stop-color:#c17d11;stop-opacity:1;"
         offset="1"
         id="stop82204" />
    </linearGradient>
    <linearGradient
       id="linearGradient81997">
      <stop
         style="stop-color:#b3baac;stop-opacity:1;"
         offset="0"
         id="stop81999" />
      <stop
         id="stop82005"
         offset="0.5"
         style="stop-color:#ffffff;stop-opacity:1;" />
      <stop
         style="stop-color:#a3ac9b;stop-opacity:1;"
         offset="1"
         id="stop82001" />
    </linearGradient>
    <linearGradient
       inkscape:collect="always"
       id="linearGradient81989">
      <stop
         style="stop-color:#d3d7cf;stop-opacity:1;"
         offset="0"
         id="stop81991" />
      <stop
         style="stop-color:#d3d7cf;stop-opacity:0;"
         offset="1"
         id="stop81993" />
    </linearGradient>
    <linearGradient
       id="linearGradient81967">
      <stop
         style="stop-color:#ffffff;stop-opacity:1;"
         offset="0"
         id="stop81969" />
      <stop
         id="stop81981"
         offset="0.23166709"
         style="stop-color:#c6c6c6;stop-opacity:1;" />
      <stop
         id="stop81979"
         offset="0.33329326"
         style="stop-color:#999999;stop-opacity:1;" />
      <stop
         id="stop81977"
         offset="0.50026369"
         style="stop-color:#ffffff;stop-opacity:1;" />
      <stop
         id="stop81975"
         offset="0.6332224"
         style="stop-color:#bbbbbb;stop-opacity:1;" />
      <stop
         style="stop-color:#f0f0f0;stop-opacity:1;"
         offset="0.75954449"
         id="stop81983" />
      <stop
         id="stop81985"
         offset="0.9080686"
         style="stop-color:#c0c0c0;stop-opacity:1;" />
      <stop
         style="stop-color:#ebebeb;stop-opacity:1;"
         offset="1"
         id="stop81971" />
    </linearGradient>
    <linearGradient
       inkscape:collect="always"
       xlink:href="#linearGradient81967"
       id="linearGradient81973"
       x1="7.1130075"
       y1="42.218914"
       x2="40.758015"
       y2="12.621445"
       gradientUnits="userSpaceOnUse"
       gradientTransform="matrix(1.0196598,0,0,1.0195768,-0.48044125,-0.46924433)" />
    <linearGradient
       inkscape:collect="always"
       xlink:href="#linearGradient81989"
       id="linearGradient81995"
       x1="19.748482"
       y1="29.514208"
       x2="13.889598"
       y2="46.939339"
       gradientUnits="userSpaceOnUse" />
    <linearGradient
       inkscape:collect="always"
       xlink:href="#linearGradient81997"
       id="linearGradient82003"
       x1="22.135826"
       y1="2.3415461"
       x2="23.635191"
       y2="2.240531"
       gradientUnits="userSpaceOnUse" />
    <linearGradient
       inkscape:collect="always"
       xlink:href="#linearGradient81997"
       id="linearGradient82043"
       gradientUnits="userSpaceOnUse"
       x1="22.135826"
       y1="2.3415461"
       x2="23.635191"
       y2="2.240531" />
    <linearGradient
       inkscape:collect="always"
       xlink:href="#linearGradient81967"
       id="linearGradient82045"
       gradientUnits="userSpaceOnUse"
       gradientTransform="matrix(1.0196598,0,0,1.0195768,-0.48044125,-0.46924433)"
       x1="7.1130075"
       y1="42.218914"
       x2="40.758015"
       y2="12.621445" />
    <linearGradient
       inkscape:collect="always"
       xlink:href="#linearGradient81989"
       id="linearGradient82047"
       gradientUnits="userSpaceOnUse"
       x1="19.748482"
       y1="29.514208"
       x2="13.889598"
       y2="46.939339" />
    <linearGradient
       inkscape:collect="always"
       xlink:href="#linearGradient81989"
       id="linearGradient82050"
       gradientUnits="userSpaceOnUse"
       x1="19.748482"
       y1="29.514208"
       x2="13.889598"
       y2="46.939339"
       gradientTransform="matrix(0.90672546,0.26536819,-0.26532355,0.90687798,14.240129,-5.9353987)" />
    <linearGradient
       inkscape:collect="always"
       xlink:href="#linearGradient81997"
       id="linearGradient82066"
       gradientUnits="userSpaceOnUse"
       x1="22.135826"
       y1="2.3415461"
       x2="23.635191"
       y2="2.240531"
       gradientTransform="matrix(0.90672546,0.26536819,-0.26532354,0.90687807,14.240128,-5.9353989)" />
    <linearGradient
       inkscape:collect="always"
       xlink:href="#linearGradient81967"
       id="linearGradient82136"
       gradientUnits="userSpaceOnUse"
       gradientTransform="matrix(0.96429091,0.4690689,-0.46901387,0.96424702,14.0281,-8.6424883)"
       x1="7.1130075"
       y1="42.218914"
       x2="40.758015"
       y2="12.621445" />
    <radialGradient
       inkscape:collect="always"
       xlink:href="#linearGradient82200"
       id="radialGradient82206"
       cx="0.92910671"
       cy="52.640343"
       fx="0.92910671"
       fy="52.640343"
       r="15.654826"
       gradientTransform="matrix(1.4023445,0.74540302,-0.47179679,0.88760257,24.088203,0.93728994)"
       gradientUnits="userSpaceOnUse" />
    <linearGradient
       inkscape:collect="always"
       xlink:href="#linearGradient82210"
       id="linearGradient82216"
       x1="5.1517782"
       y1="49.161674"
       x2="8.2832508"
       y2="44.514973"
       gradientUnits="userSpaceOnUse"
       gradientTransform="matrix(1.178627,0.13701139,-0.12177015,1.0738422,2.5178473,-4.4245389)" />
  </defs>
  <sodipodi:namedview
     id="base"
     pagecolor="#ffffff"
     bordercolor="#666666"
     borderopacity="1.0"
     inkscape:pageopacity="0.0"
     inkscape:pageshadow="2"
     inkscape:zoom="9.8994949"
     inkscape:cx="13.444165"
     inkscape:cy="22.120649"
     inkscape:current-layer="layer1"
     showgrid="true"
     inkscape:grid-bbox="true"
     inkscape:document-units="px"
     inkscape:window-width="2560"
     inkscape:window-height="1475"
     inkscape:window-x="0"
     inkscape:window-y="0"
     inkscape:window-maximized="1" />
  <metadata
     id="metadata81270">
    <rdf:RDF>
      <cc:Work
         rdf:about="">
        <dc:format>image/svg+xml</dc:format>
        <dc:type
           rdf:resource="http://purl.org/dc/dcmitype/StillImage" />
        <dc:title></dc:title>
      </cc:Work>
    </rdf:RDF>
  </metadata>
  <g
     id="layer1"
     inkscape:label="Layer 1"
     inkscape:groupmode="layer">
    <g
       id="g82127"
       inkscape:transform-center-x="-3.1256593"
       transform="matrix(0.86006761,-0.25950031,0.25946597,0.86018144,0.42190185,5.8470749)"
       inkscape:transform-center-y="0.080333551">
      <path
         sodipodi:nodetypes="ccccc"
         inkscape:connector-curvature="0"
         id="path81905"
         d="M 40.601502,20.139142 40.350737,18.94707 c 0.218838,-0.523432 1.054538,-0.820996 1.709411,-0.463802 l 0.503666,1.134769 z"
         style="color:#000000;fill:#ffffff;stroke:#000000;stroke-width:0.55653697;stroke-linecap:round;stroke-linejoin:miter;stroke-miterlimit:4;stroke-opacity:1;stroke-dasharray:none;stroke-dashoffset:0;marker:none;visibility:visible;display:inline;overflow:visible;enable-background:accumulate" />
      <path
         inkscape:connector-curvature="0"
         id="path81960"
         d="m 45.610614,20.582064 c -0.213251,-0.121375 -0.44579,-0.216123 -0.677605,-0.292354 -0.927264,-0.30492 -2.184943,-0.435661 -3.119994,-0.250768 -2.02879,0.401171 -3.198713,3.405682 -4.245159,3.747907 -2.790839,0.912705 -9.306045,1.435144 -9.306045,1.435144 L 24.702821,24.571369 1.2131072,35.018024 0.87928647,36.010771 26.312356,27.850883 c 0.0253,-0.02291 0.07554,-0.03812 0.104235,-0.06107 3.468067,-1.083346 10.079679,-2.575468 11.860761,-2.167333 0.719798,0.16494 1.684328,1.092972 3.091618,1.764721 1.299317,0.62024 3.000634,0.422068 3.821167,-0.04161 0.744338,-0.420628 1.540436,-0.672557 2.034229,-1.730621 0.722735,-1.548647 0.238484,-3.267475 -0.660837,-4.233998 l 0.03096,0.08959 c -0.285097,-0.377527 -0.60762,-0.674352 -0.983876,-0.888494 z m -0.54148,1.189832 c 0.533851,0.269042 1.002623,0.662187 1.286854,1.184912 0.389995,0.71723 0.194366,1.92313 -0.301108,2.61094 -0.01306,0.01821 -0.01584,0.04283 -0.02931,0.06027 -0.75184,0.635408 -1.847918,0.999977 -3.031938,0.947197 -1.335478,-0.05954 -2.474609,-0.632328 -3.118466,-1.479684 l 0.166149,0.118077 c -0.309958,-0.58273 -0.447965,-1.293218 -0.30392,-1.750118 0.337247,-1.069711 1.49259,-2.081557 2.673494,-2.202165 0.696782,-0.07117 1.768496,0.06217 2.658249,0.510574 z"
         style="color:#000000;fill:#000000;stroke:#000000;stroke-width:1.11307395;stroke-linecap:round;stroke-linejoin:miter;stroke-miterlimit:4;stroke-opacity:1;stroke-dasharray:none;stroke-dashoffset:0;marker:none;visibility:visible;display:inline;overflow:visible;enable-background:accumulate" />
      <path
         sodipodi:nodetypes="csssccccccccc"
         inkscape:connector-curvature="0"
         id="path81913"
         d="m 40.04203,25.23207 c -0.30996,-0.582728 -0.457781,-1.315959 -0.313737,-1.772859 0.337248,-1.069711 1.511658,-2.068502 2.692563,-2.189109 1.114852,-0.113861 3.185799,0.289234 3.943747,1.683165 0.457492,0.841368 0.104468,2.377522 -0.586865,2.93089 l 1.281941,-1.273502 0.0143,-2.010575 -1.070918,-1.574874 -2.54114,-0.904872 -2.76675,0.611456 -1.818919,2.006005 0.01724,1.574237 z"
         style="color:#000000;fill:#888a85;stroke:none;stroke-width:0.1;marker:none;visibility:visible;display:inline;overflow:visible;enable-background:accumulate" />
      <path
         sodipodi:nodetypes="csssscccccccccc"
         inkscape:connector-curvature="0"
         id="path81921"
         d="m 26.420809,27.790484 c 3.468066,-1.083347 10.088211,-2.584144 11.869296,-2.176008 0.719798,0.16494 1.673087,1.106995 3.080376,1.778746 1.299318,0.620239 3.003409,0.432453 3.823944,-0.03123 0.744338,-0.420625 1.548947,-0.693391 2.042741,-1.751456 0.722742,-1.548642 0.236271,-3.273871 -0.663049,-4.240396 l 0.637724,1.928461 -0.240007,1.544088 -1.0991,1.29653 -1.739503,0.686916 -2.159336,-0.113504 -2.015151,-1.02283 -1.640073,-1.181064 -10.875614,1.608523 z"
         style="color:#000000;fill:#555753;stroke:none;stroke-width:0.1;marker:none;visibility:visible;display:inline;overflow:visible;enable-background:accumulate" />
      <path
         sodipodi:nodetypes="ssscccccssssssssss"
         inkscape:connector-curvature="0"
         id="path81896"
         d="m 44.933008,20.28971 c -0.927264,-0.304919 -2.178545,-0.437877 -3.113596,-0.252978 -2.02879,0.401169 -3.205111,3.40789 -4.251556,3.750117 -2.790841,0.912706 -9.306045,1.435145 -9.306045,1.435145 L 24.70282,24.571368 1.213106,35.018024 0.8792857,36.010771 26.312356,27.850883 c 1.517193,-1.37488 9.250185,-2.83891 11.793925,-2.79604 0.951351,0.01603 3.048993,2.444918 5.987656,2.092862 2.432134,-0.291375 3.818146,-2.679135 3.020215,-4.753656 -0.44411,-1.154627 -1.25388,-1.799419 -2.181144,-2.104339 z m -0.100141,0.435699 c 1.362011,0.528682 2.29293,1.66953 2.220307,2.94316 -0.09683,1.69817 -1.922781,3.001891 -4.059545,2.90664 -2.136765,-0.09525 -3.774128,-1.54384 -3.677297,-3.242013 0.09683,-1.698171 1.892646,-3.016548 4.029411,-2.921296 0.534193,0.0238 1.033122,0.137277 1.487124,0.313507 z"
         style="color:#000000;fill:url(#linearGradient82136);fill-opacity:1;stroke:none;stroke-width:0.1;marker:none;visibility:visible;display:inline;overflow:visible;enable-background:accumulate" />
      <path
         sodipodi:nodetypes="ccsc"
         inkscape:connector-curvature="0"
         id="path81937"
         d="m 28.246684,25.209313 -0.152496,1.714409 c 0,0 0.538851,-0.474621 0.562543,-1.025214 0.01687,-0.391929 -0.41005,-0.689196 -0.41005,-0.689196 z"
         style="color:#000000;fill:#888a85;stroke:none;stroke-width:0.1;marker:none;visibility:visible;display:inline;overflow:visible;enable-background:accumulate" />
      <path
         inkscape:connector-curvature="0"
         id="path81945"
         d="m 26.049892,27.930815 -0.388745,-1.871227 0.789416,1.704154 z"
         style="color:#000000;fill:#babdb6;stroke:none;stroke-width:0.1;marker:none;visibility:visible;display:inline;overflow:visible;enable-background:accumulate" />
    </g>
    <path
       style="color:#000000;fill:url(#linearGradient82066);fill-opacity:1;stroke:#2e3436;stroke-width:0.49999997;stroke-linecap:round;stroke-linejoin:miter;stroke-miterlimit:4;stroke-opacity:1;stroke-dasharray:none;stroke-dashoffset:0;marker:none;visibility:visible;display:inline;overflow:visible;enable-background:accumulate"
       d="M 33.478307,0.56802822 C 33.844581,2.3864975 33.390457,3.2927053 33.137806,4.4229534 l 1.403688,0.3601119 C 34.500779,3.5748064 35.103389,2.3568547 35.936731,1.1354273 35.04768,0.13637175 34.249005,0.18936032 33.478307,0.56802822 z"
       id="path81871"
       inkscape:connector-curvature="0"
       sodipodi:nodetypes="ccccc" />
    <path
       style="color:#000000;fill:#555753;stroke:#2e3436;stroke-width:0.99999994;stroke-linecap:round;stroke-linejoin:miter;stroke-miterlimit:4;stroke-opacity:1;stroke-dasharray:none;stroke-dashoffset:0;marker:none;visibility:visible;display:inline;overflow:visible;enable-background:accumulate"
       d="M 34.954521,4.8408861 C 34.757607,4.9434302 34.488566,4.7520721 34.244198,4.6957367 31.834063,4.1263329 30.412471,6.3137966 30.09741,7.1836354 30.0366,7.3515133 30.00438,7.5191013 29.982586,7.6833005 c -0.645592,1.4267407 1.043852,3.7461115 0.941134,4.8239225 -0.756536,2.084218 -1.541643,3.793562 -2.31652,5.344851 l -4.767225,7.074383 -9.681588,15.83099 0.818826,-0.0113 0.191653,-0.226228 14.543619,-18.297774 -0.03413,-3.742883 1.872647,-4.470953 c 0.504066,-1.208102 1.191724,-2.038313 2.177943,-2.405369 1.399468,-0.52086 2.455517,-1.177794 2.938985,-2.4335868 0.712737,-1.8513129 -0.505413,-4.0649486 -1.713406,-4.3284606 z m -0.795502,0.8964622 c 0.451138,0.080523 0.855256,0.2926827 1.13386,0.520056 0.802227,0.6547109 0.773882,1.8576696 0.773882,1.8576696 l 0.08807,-0.1938086 c -0.08898,0.6347731 -0.381956,1.2669942 -0.8962,1.7766904 -1.175411,1.1650193 -2.987133,1.2554463 -4.078621,0.2179217 -0.440379,-0.4186009 -0.672023,-0.9646953 -0.742856,-1.5349 l 0.329158,0.9119236 c 0,0 -0.248725,-0.7705553 -0.01563,-1.44754 0.371868,-1.0800082 1.227683,-1.7159296 1.956006,-1.9684194 0.505343,-0.1751892 1.001181,-0.2201179 1.452322,-0.1395933 z"
       id="path81953"
       inkscape:connector-curvature="0"
       sodipodi:nodetypes="ccsccccccccccsscssccssccsss" />
    <path
       style="color:#000000;fill:#555753;stroke:none;stroke-width:0.1;marker:none;visibility:visible;display:inline;overflow:visible;enable-background:accumulate"
       d="m 29.929468,7.4395317 0.572505,2.1580799 1.397183,1.4588814 2.431238,-0.434679 1.590161,-1.397921 C 36.175151,8.5441166 36.598967,7.4707532 36.254284,6.6466018 35.789467,5.5352132 34.502293,4.7548649 34.945065,4.8514515 c 1.207999,0.2635126 2.44311,2.4575917 1.730376,4.3089033 -0.483466,1.2557942 -1.543303,1.9133712 -2.942772,2.4342312 -0.986218,0.367054 -1.669938,1.197626 -2.174003,2.405725 l -1.866322,4.473063 0.01625,3.756536 -14.693977,18.514438 13.99318,-22.876916 1.816168,-4.994738 C 31.479806,11.202968 29.12838,9.607502 29.929468,7.4395317 z"
       id="path81879"
       inkscape:connector-curvature="0"
       sodipodi:nodetypes="ccccccsssscccccc" />
    <path
       style="color:#000000;fill:#888a85;stroke:none;stroke-width:0.1;marker:none;visibility:visible;display:inline;overflow:visible;enable-background:accumulate"
       d="m 30.753062,9.3029612 -0.617435,-1.7016943 0.994126,-1.8384405 1.764107,-1.004697 1.776732,0.1650918 1.303014,1.0911452 0.378245,1.479592 -0.284678,0.62648 c 0,0 0.0199,-1.2250312 -0.782329,-1.8797425 C 34.727638,5.7859503 33.707037,5.51604 32.69635,5.8664184 31.968026,6.118908 31.121346,6.7499691 30.749472,7.8299758 c -0.233106,0.6769836 0.0036,1.4729854 0.0036,1.4729854 z"
       id="path81888"
       inkscape:connector-curvature="0"
       sodipodi:nodetypes="ccccccccsssc" />
    <path
       style="color:#000000;fill:#ffffff;stroke:none;stroke-width:0.1;marker:none;visibility:visible;display:inline;overflow:visible;enable-background:accumulate"
       d="M 34.244198,4.6957362 C 31.834063,4.1263323 30.412472,6.313796 30.09741,7.1836348 c -0.315055,0.8698406 -0.01957,1.7822921 -0.01957,1.7822921 l 1.250282,2.3735231 c -0.887002,2.650486 -1.80368,4.676362 -2.720904,6.512626 l -4.76723,7.074383 -9.681589,15.830989 0.818828,-0.0113 14.32511,-19.05184 -0.188438,-3.537092 c 0,0 1.555085,-3.458371 2.604693,-5.793784 0.433098,-0.963657 1.847494,-1.264312 2.989064,-1.85429 0.768229,-0.397031 1.446241,-1.1371841 1.6826,-1.8915929 0.236366,-0.7544066 0.264086,-3.3524022 -2.146049,-3.9218063 z m 0.245262,0.4482063 c 0.34414,0.1180087 0.662273,0.2966242 0.935146,0.5560054 1.091488,1.0375242 1.009439,2.8329881 -0.165972,3.9980087 C 34.083222,10.862975 32.2715,10.953401 31.180011,9.9158784 30.088523,8.8783537 30.133228,7.1033279 31.308639,5.9383092 32.190197,5.0645452 33.457043,4.7899158 34.48946,5.1439425 z"
       id="path81850"
       inkscape:connector-curvature="0" />
    <path
       transform="matrix(0.19158022,0.17954785,-0.19047923,0.1860102,23.30765,17.779168)"
       d="m 27.728687,9.2859039 a 3.7880721,4.0658641 0 1 1 -7.576144,0 3.7880721,4.0658641 0 1 1 7.576144,0 z"
       sodipodi:ry="4.0658641"
       sodipodi:rx="3.7880721"
       sodipodi:cy="9.2859039"
       sodipodi:cx="23.940615"
       id="path81869"
       style="color:#000000;fill:#d3d7cf;stroke:#888a85;stroke-width:1.8920399;stroke-linecap:round;stroke-linejoin:miter;stroke-miterlimit:4;stroke-opacity:1;stroke-dasharray:none;stroke-dashoffset:0;marker:none;visibility:visible;display:inline;overflow:visible;enable-background:accumulate"
       sodipodi:type="arc" />
    <path
       style="color:#000000;fill:#888a85;stroke:none;stroke-width:0.1;marker:none;visibility:visible;display:inline;overflow:visible;enable-background:accumulate"
       d="m 24.306103,23.933482 0.890115,2.933619 -1.767879,-1.395727 z"
       id="path81929"
       inkscape:connector-curvature="0"
       sodipodi:nodetypes="cccc" />
    <path
       style="fill:url(#linearGradient82050);fill-opacity:1;stroke:none"
       d="m 23.606442,25.266696 1.413054,1.457806 -10.846035,14.13046 z"
       id="path81987"
       inkscape:connector-curvature="0"
       sodipodi:nodetypes="cccc" />
    <path
       style="fill:url(#radialGradient82206);stroke:#8f5902;stroke-width:0.50000000000000000;stroke-linecap:butt;stroke-linejoin:miter;stroke-opacity:1;stroke-miterlimit:4;stroke-dasharray:none;fill-opacity:1"
       d="m -1.2121831,33.857864 c 1.34998785,-1.914613 3.2293778,-3.035123 5.6568543,-3.333503 -2.075163,1.393642 -2.9070715,3.253504 -2.8284271,5.454824 1.4603607,-1.904091 3.2358081,-3.170783 5.6568542,-3.131473 -2.5179512,1.921413 -3.3807102,4.315738 -4.0406102,6.768022 1.8188528,-2.289486 3.5795454,-4.59836 6.9700529,-6.363961 -1.4510322,2.197385 -3.364081,4.262765 -3.0304579,6.970052 0.6488394,-0.765374 1.2353488,-1.593078 2.9294419,-1.313198 -1.4531707,1.364959 -1.5770979,3.261615 -1.7172589,5.151778 1.3889877,-3.224005 3.5817779,-4.572472 5.7578699,-5.9599 0,0 -3.399329,4.850692 -3.63655,7.677159 1.035516,-2.198991 7.562883,-6.671087 12.525892,-7.87919 -1.595396,2.038479 -5.099343,5.023346 -4.545687,7.778175 1.59328,-2.065846 4.003296,-3.110772 6.667007,-3.838579 -1.266149,1.539318 -3.193093,2.893043 -3.333503,4.646702 2.061882,-1.579647 4.083504,-3.259941 6.667007,-3.535535 -2.060555,2.567103 -4.559578,5.2219 -4.04061,7.273099 L -2.3233509,49.717259 z"
       id="path82138"
       inkscape:connector-curvature="0"
       sodipodi:nodetypes="ccccccccccccccccccc" />
    <path
       style="color:#000000;fill:#c17d11;fill-opacity:1;fill-rule:nonzero;stroke:#8f5902;stroke-width:0.5;stroke-linecap:butt;stroke-linejoin:miter;stroke-miterlimit:4;stroke-opacity:1;stroke-dasharray:none;stroke-dashoffset:0;marker:none;visibility:visible;display:inline;overflow:visible;enable-background:accumulate"
       d="m 12.434162,31.263254 c 0,0 0.08221,-3.343964 0.483724,-4.945694 0.482224,-1.923687 2.326132,-5.219404 2.326132,-5.219404 0,0 -0.465742,3.905186 -1.021282,5.800937 -0.441916,1.508011 -1.788574,4.364161 -1.788574,4.364161 z"
       id="path82140"
       inkscape:connector-curvature="0"
       sodipodi:nodetypes="cscsc" />
    <path
       sodipodi:nodetypes="cscsc"
       inkscape:connector-curvature="0"
       id="path82159"
       d="m 8.8335025,30.234698 c 0,0 -0.620375,-2.623747 -0.6063725,-3.970656 0.016816,-1.617643 0.9200827,-4.642406 0.9200827,-4.642406 0,0 0.4068091,3.156141 0.3212263,4.770289 -0.068079,1.284003 -0.6349365,3.842773 -0.6349365,3.842773 z"
       style="color:#000000;fill:#c17d11;fill-opacity:1;fill-rule:nonzero;stroke:#8f5902;stroke-width:0.5;stroke-linecap:butt;stroke-linejoin:miter;stroke-miterlimit:4;stroke-opacity:1;stroke-dasharray:none;stroke-dashoffset:0;marker:none;visibility:visible;display:inline;overflow:visible;enable-background:accumulate" />
    <path
       sodipodi:nodetypes="cscsc"
       inkscape:connector-curvature="0"
       id="path82161"
       d="m 37.302978,45.945175 c 0,0 2.512155,-1.194473 3.884662,-1.500413 1.648388,-0.367437 4.947982,-0.248823 4.947982,-0.248823 0,0 -3.10653,1.123157 -4.768507,1.426218 -1.322052,0.241074 -4.064137,0.323018 -4.064137,0.323018 z"
       style="color:#000000;fill:#c17d11;fill-opacity:1;fill-rule:nonzero;stroke:#8f5902;stroke-width:0.5;stroke-linecap:butt;stroke-linejoin:miter;stroke-miterlimit:4;stroke-opacity:1;stroke-dasharray:none;stroke-dashoffset:0;marker:none;visibility:visible;display:inline;overflow:visible;enable-background:accumulate" />
    <path
       style="color:#000000;fill:#c17d11;fill-opacity:1;fill-rule:nonzero;stroke:#8f5902;stroke-width:0.5;stroke-linecap:butt;stroke-linejoin:miter;stroke-miterlimit:4;stroke-opacity:1;stroke-dasharray:none;stroke-dashoffset:0;marker:none;visibility:visible;display:inline;overflow:visible;enable-background:accumulate"
       d="m 4.7095114,28.380525 c 0,0 -1.4567954,-2.268625 -1.8910557,-3.543685 C 2.2969064,23.305488 2.143989,20.152443 2.143989,20.152443 c 0,0 1.4322304,2.841731 1.8877576,4.392631 0.3623567,1.233693 0.6777648,3.835451 0.6777648,3.835451 z"
       id="path82165"
       inkscape:connector-curvature="0"
       sodipodi:nodetypes="cscsc" />
    <path
       style="color:#000000;fill:#c17d11;fill-opacity:1;fill-rule:nonzero;stroke:#8f5902;stroke-width:0.5;stroke-linecap:butt;stroke-linejoin:miter;stroke-miterlimit:4;stroke-opacity:1;stroke-dasharray:none;stroke-dashoffset:0;marker:none;visibility:visible;display:inline;overflow:visible;enable-background:accumulate"
       d="m 27.966214,30.668558 c 0,0 -1.63104,2.253308 -2.688473,3.180243 -1.269982,1.113256 -4.221909,2.592281 -4.221909,2.592281 0,0 2.186752,-2.475908 3.499544,-3.539201 1.044286,-0.845816 3.410838,-2.233323 3.410838,-2.233323 z"
       id="path82173"
       inkscape:connector-curvature="0"
       sodipodi:nodetypes="cscsc" />
    <path
       style="color:#000000;fill:#c17d11;fill-opacity:1;fill-rule:nonzero;stroke:#8f5902;stroke-width:0.5;stroke-linecap:butt;stroke-linejoin:miter;stroke-miterlimit:4;stroke-opacity:1;stroke-dasharray:none;stroke-dashoffset:0;marker:none;visibility:visible;display:inline;overflow:visible;enable-background:accumulate"
       d="m 29.292659,34.617154 c 0,0 -1.753609,2.848458 -2.906526,4.030631 -1.384664,1.419795 -4.63644,3.340135 -4.63644,3.340135 0,0 2.36744,-3.140481 3.801407,-4.499244 1.140677,-1.080853 3.741559,-2.871522 3.741559,-2.871522 z"
       id="path82175"
       inkscape:connector-curvature="0"
       sodipodi:nodetypes="cscsc" />
    <path
       sodipodi:nodetypes="cscsc"
       inkscape:connector-curvature="0"
       id="path82177"
       d="m 32.547068,32.127224 c 0,0 0.620375,2.623747 0.606373,3.970656 -0.01682,1.617643 -0.920083,4.642406 -0.920083,4.642406 0,0 -0.406809,-3.156141 -0.321226,-4.770289 0.06808,-1.284003 0.634936,-3.842773 0.634936,-3.842773 z"
       style="color:#000000;fill:#c17d11;fill-opacity:1;fill-rule:nonzero;stroke:#8f5902;stroke-width:0.5;stroke-linecap:butt;stroke-linejoin:miter;stroke-miterlimit:4;stroke-opacity:1;stroke-dasharray:none;stroke-dashoffset:0;marker:none;visibility:visible;display:inline;overflow:visible;enable-background:accumulate" />
    <path
       sodipodi:nodetypes="cscsc"
       inkscape:connector-curvature="0"
       id="path82179"
       d="m 37.562664,41.174145 c 0,0 -1.63104,2.253308 -2.688473,3.180243 -1.269982,1.113256 -4.221909,2.592281 -4.221909,2.592281 0,0 2.186752,-2.475908 3.499544,-3.539201 1.044286,-0.845816 3.410838,-2.233323 3.410838,-2.233323 z"
       style="color:#000000;fill:#c17d11;fill-opacity:1;fill-rule:nonzero;stroke:#8f5902;stroke-width:0.5;stroke-linecap:butt;stroke-linejoin:miter;stroke-miterlimit:4;stroke-opacity:1;stroke-dasharray:none;stroke-dashoffset:0;marker:none;visibility:visible;display:inline;overflow:visible;enable-background:accumulate" />
    <path
       style="fill:url(#linearGradient82216);fill-opacity:1;stroke:none"
       d="M -4.8314726,34.855534 17.365058,52.932319 12.155916,57.382373 -7.1418834,41.401027 z"
       id="path82208"
       inkscape:connector-curvature="0"
       sodipodi:nodetypes="ccccc" />
  </g>
</svg>
