<?xml version="1.0" encoding="UTF-8" standalone="no"?>
<!-- Created with Inkscape (http://www.inkscape.org/) -->
<svg
   xmlns:dc="http://purl.org/dc/elements/1.1/"
   xmlns:cc="http://creativecommons.org/ns#"
   xmlns:rdf="http://www.w3.org/1999/02/22-rdf-syntax-ns#"
   xmlns:svg="http://www.w3.org/2000/svg"
   xmlns="http://www.w3.org/2000/svg"
   xmlns:xlink="http://www.w3.org/1999/xlink"
   xmlns:sodipodi="http://sodipodi.sourceforge.net/DTD/sodipodi-0.dtd"
   xmlns:inkscape="http://www.inkscape.org/namespaces/inkscape"
   width="48px"
   height="48px"
   id="svg5030"
   sodipodi:version="0.32"
   inkscape:version="0.46"
   sodipodi:docname="brush.svg"
   inkscape:output_extension="org.inkscape.output.svg.inkscape">
  <defs
     id="defs5032">
    <linearGradient
       id="linearGradient5662">
      <stop
         style="stop-color:#d48e1f;stop-opacity:1;"
         offset="0"
         id="stop5664" />
      <stop
         style="stop-color:#ffffff;stop-opacity:1;"
         offset="1"
         id="stop5666" />
    </linearGradient>
    <linearGradient
       id="linearGradient5636">
      <stop
         style="stop-color:#e9b96e;stop-opacity:1;"
         offset="0"
         id="stop5638" />
      <stop
         style="stop-color:#da9221;stop-opacity:1;"
         offset="1"
         id="stop5640" />
    </linearGradient>
    <linearGradient
       id="linearGradient5626">
      <stop
         style="stop-color:#ffffff;stop-opacity:1;"
         offset="0"
         id="stop5628" />
      <stop
         style="stop-color:#fef5ae;stop-opacity:1;"
         offset="1"
         id="stop5630" />
    </linearGradient>
    <linearGradient
       id="linearGradient5604">
      <stop
         style="stop-color:#fef7b9;stop-opacity:1;"
         offset="0"
         id="stop5606" />
      <stop
         style="stop-color:#e0c703;stop-opacity:1;"
         offset="1"
         id="stop5608" />
    </linearGradient>
    <linearGradient
       inkscape:collect="always"
       id="linearGradient5592">
      <stop
         style="stop-color:#8f5902;stop-opacity:1;"
         offset="0"
         id="stop5594" />
      <stop
         style="stop-color:#8f5902;stop-opacity:0;"
         offset="1"
         id="stop5596" />
    </linearGradient>
    <linearGradient
       id="linearGradient5576">
      <stop
         style="stop-color:#d58a12;stop-opacity:1;"
         offset="0"
         id="stop5578" />
      <stop
         style="stop-color:#8f5c0c;stop-opacity:1;"
         offset="1"
         id="stop5580" />
    </linearGradient>
    <inkscape:perspective
       sodipodi:type="inkscape:persp3d"
       inkscape:vp_x="0 : 24 : 1"
       inkscape:vp_y="0 : 1000 : 0"
       inkscape:vp_z="48 : 24 : 1"
       inkscape:persp3d-origin="24 : 16 : 1"
       id="perspective5038" />
    <linearGradient
       inkscape:collect="always"
       xlink:href="#linearGradient5576"
       id="linearGradient5582"
       x1="2.1335604"
       y1="21.109118"
       x2="46.18663"
       y2="42.428574"
       gradientUnits="userSpaceOnUse"
       gradientTransform="matrix(-1.0181233,0,0,0.9382325,49.219984,3.2005932)" />
    <linearGradient
       inkscape:collect="always"
       xlink:href="#linearGradient5592"
       id="linearGradient5598"
       x1="19.857143"
       y1="31.357143"
       x2="16.928572"
       y2="31.857143"
       gradientUnits="userSpaceOnUse"
       gradientTransform="matrix(-1.0181232,0,0,0.9382325,49.219984,2.9325266)" />
    <linearGradient
       inkscape:collect="always"
       xlink:href="#linearGradient5604"
       id="linearGradient5610"
       x1="4.7609412"
       y1="17.975829"
       x2="34.184676"
       y2="17.975829"
       gradientUnits="userSpaceOnUse"
       gradientTransform="matrix(-1.0370534,0,0,0.9556372,50.603368,2.106209)" />
    <radialGradient
       inkscape:collect="always"
       xlink:href="#linearGradient5626"
       id="radialGradient5632"
       cx="21.048193"
       cy="6.4084549"
       fx="21.048193"
       fy="6.4084549"
       r="14.471523"
       gradientTransform="matrix(-1.0648112,0,0,1.0062087,50.754776,0.3596925)"
       gradientUnits="userSpaceOnUse" />
    <linearGradient
       inkscape:collect="always"
       xlink:href="#linearGradient5636"
       id="linearGradient5642"
       x1="24.0539"
       y1="26.775612"
       x2="46.267673"
       y2="42.418468"
       gradientUnits="userSpaceOnUse"
       gradientTransform="matrix(-1.0370534,0,0,0.9556372,50.603368,2.106209)" />
    <linearGradient
       inkscape:collect="always"
       xlink:href="#linearGradient5662"
       id="linearGradient5668"
       x1="41.536842"
       y1="38.264458"
       x2="40.295151"
       y2="39.552738"
       gradientUnits="userSpaceOnUse" />
  </defs>
  <sodipodi:namedview
     id="base"
     pagecolor="#ffffff"
     bordercolor="#666666"
     borderopacity="1.0"
     inkscape:pageopacity="0.0"
     inkscape:pageshadow="2"
     inkscape:zoom="14"
     inkscape:cx="13.214286"
     inkscape:cy="24"
     inkscape:current-layer="layer1"
     showgrid="true"
     inkscape:grid-bbox="true"
     inkscape:document-units="px"
     inkscape:window-width="1920"
     inkscape:window-height="1115"
     inkscape:window-x="-4"
     inkscape:window-y="-4" />
  <metadata
     id="metadata5035">
    <rdf:RDF>
      <cc:Work
         rdf:about="">
        <dc:format>image/svg+xml</dc:format>
        <dc:type
           rdf:resource="http://purl.org/dc/dcmitype/StillImage" />
      </cc:Work>
    </rdf:RDF>
  </metadata>
  <g
     id="layer1"
     inkscape:label="Layer 1"
     inkscape:groupmode="layer">
    <path
       id="path5046"
       style="fill:url(#linearGradient5582);fill-opacity:1;fill-rule:evenodd;stroke:#4f2f00;stroke-width:1px;stroke-linecap:butt;stroke-linejoin:bevel;stroke-opacity:1"
       d="M 3.5491157,40.795103 C 1.0823335,45.193132 4.3550121,48.719632 9.0866698,47.057858 L 17.439993,39.25553 C 18.590877,38.332115 20.554915,38.462831 21.876102,36.976965 L 23.875987,35.033483 L 29.883992,35.645822 C 31.063514,35.741405 32.14012,35.552482 32.92669,34.561761 L 44.158822,22.209806 C 47.039486,19.551809 46.811473,17.120835 46.52923,14.9285 L 23.839626,30.141271"
       sodipodi:nodetypes="cccccccccc" />
    <path
       style="fill:#c17d11;fill-rule:evenodd;stroke:#663f00;stroke-width:1px;stroke-linecap:butt;stroke-linejoin:miter;stroke-opacity:1"
       d="M 14.676516,20.155796 C 14.446854,23.001059 13.803462,25.941635 15.840087,28.264806 L 17.221825,26.79044 L 14.676516,20.155796 z"
       id="path5566"
       sodipodi:nodetypes="cccc" />
    <path
       style="fill:url(#linearGradient5598);fill-opacity:1;fill-rule:evenodd;stroke:none;stroke-width:1px;stroke-linecap:butt;stroke-linejoin:miter;stroke-opacity:1"
       d="M 31.984613,31.4816 L 31.620997,35.368564 L 23.766905,34.698398 L 24.057796,30.275302 L 31.984613,31.4816 z"
       id="path5574"
       sodipodi:nodetypes="ccccc" />
    <path
       style="fill:url(#linearGradient5642);fill-opacity:1;fill-rule:evenodd;stroke:#8f5902;stroke-width:1px;stroke-linecap:butt;stroke-linejoin:miter;stroke-opacity:1"
       d="M 46.547407,14.848023 L 31.840662,31.088914 L 23.91808,30.215351 L 10.307488,43.505977 C 6.303061,47.580351 0.41235122,43.249651 4.5517638,39.387755 L 17.146641,26.845895 L 14.776637,20.169382 L 29.809231,6.6915638 C 35.33924,7.4959192 42.966122,5.3258607 46.547407,14.848023 z"
       id="path5042"
       sodipodi:nodetypes="ccccccccc" />
    <path
       style="fill:#000000;fill-opacity:0.22222224;fill-rule:evenodd;stroke:none;stroke-width:1px;stroke-linecap:butt;stroke-linejoin:miter;stroke-opacity:1"
       d="M 30.825278,29.137087 L 27.343742,29.683166 L 16.30653,23.744563 L 14.158349,19.922015 L 16.084306,18.420301 L 30.825278,29.137087 z"
       id="path5634"
       sodipodi:nodetypes="cccccc" />
    <path
       style="fill:url(#linearGradient5610);fill-opacity:1;fill-rule:evenodd;stroke:#997d00;stroke-width:1px;stroke-linecap:butt;stroke-linejoin:bevel;stroke-opacity:1"
       d="M 44.398154,14.223363 L 30.821042,28.934971 L 16.655513,20.744957 L 15.317997,14.723801 L 44.935954,7.6598044 L 44.398154,14.223363 z"
       id="path5600"
       sodipodi:nodetypes="cccccc" />
    <path
       style="fill:none;fill-rule:evenodd;stroke:#9f8000;stroke-width:1px;stroke-linecap:butt;stroke-linejoin:miter;stroke-opacity:1"
       d="M 19.047314,22.24285 L 18.084335,16.406958"
       id="path5612"
       sodipodi:nodetypes="cc" />
    <path
       style="fill:none;fill-rule:evenodd;stroke:#9f8000;stroke-width:1px;stroke-linecap:butt;stroke-linejoin:miter;stroke-opacity:1"
       d="M 21.306609,23.471527 L 20.858593,17.692625"
       id="path5614"
       sodipodi:nodetypes="cc" />
    <path
       style="fill:none;fill-rule:evenodd;stroke:#9f8000;stroke-width:1px;stroke-linecap:butt;stroke-linejoin:miter;stroke-opacity:1"
       d="M 23.602941,24.631942 L 23.377153,19.412642"
       id="path5616"
       sodipodi:nodetypes="cc" />
    <path
       style="fill:none;fill-rule:evenodd;stroke:#9f8000;stroke-width:1px;stroke-linecap:butt;stroke-linejoin:miter;stroke-opacity:1"
       d="M 25.973349,26.133658 L 25.97691,21.119138"
       id="path5618"
       sodipodi:nodetypes="cc" />
    <path
       style="fill:none;fill-rule:evenodd;stroke:#9f8000;stroke-width:1px;stroke-linecap:butt;stroke-linejoin:miter;stroke-opacity:1"
       d="M 28.491907,27.498855 L 28.717695,22.611839"
       id="path5620"
       sodipodi:nodetypes="cc" />
    <path
       style="fill:none;fill-rule:evenodd;stroke:#9f8000;stroke-width:1px;stroke-linecap:butt;stroke-linejoin:miter;stroke-opacity:1"
       d="M 30.640089,28.659272 L 30.862315,23.358189"
       id="path5622"
       sodipodi:nodetypes="cc" />
    <path
       sodipodi:type="arc"
       style="opacity:1;fill:url(#linearGradient5668);fill-opacity:1;fill-rule:evenodd;stroke:#8f5902;stroke-width:1.00450694999999990;stroke-linecap:butt;stroke-linejoin:bevel;marker:none;marker-start:none;marker-mid:none;marker-end:none;stroke-miterlimit:4;stroke-dasharray:none;stroke-dashoffset:0;stroke-opacity:1;visibility:visible;display:inline;overflow:visible;enable-background:accumulate"
       id="path5660"
       sodipodi:cx="39.964287"
       sodipodi:cy="39.25"
       sodipodi:rx="2.8928571"
       sodipodi:ry="1.8928572"
       d="M 42.857144,39.25 A 2.8928571,1.8928572 0 1 1 37.07143,39.25 A 2.8928571,1.8928572 0 1 1 42.857144,39.25 z"
       transform="matrix(-0.7000676,0.7050383,0.7651046,0.6451072,6.1426461,-13.130986)" />
    <path
       style="fill:none;fill-rule:evenodd;stroke:#c4a000;stroke-width:1px;stroke-linecap:butt;stroke-linejoin:miter;stroke-opacity:1"
       d="M 32.714285,21.071429 L 32.5,26.5"
       id="path5670"
       sodipodi:nodetypes="cc" />
    <path
       style="fill:none;fill-rule:evenodd;stroke:#c4a000;stroke-width:1px;stroke-linecap:butt;stroke-linejoin:miter;stroke-opacity:1"
       d="M 34.5,18.857142 L 34.714285,24.428571"
       id="path5672"
       sodipodi:nodetypes="cc" />
    <path
       style="fill:none;fill-rule:evenodd;stroke:#c4a000;stroke-width:1px;stroke-linecap:butt;stroke-linejoin:miter;stroke-opacity:1"
       d="M 36.785715,16.571428 L 36.785714,22.214286"
       id="path5674"
       sodipodi:nodetypes="cc" />
    <path
       style="fill:none;fill-rule:evenodd;stroke:#c4a000;stroke-width:1px;stroke-linecap:butt;stroke-linejoin:miter;stroke-opacity:1"
       d="M 38.785714,14.142857 L 38.857143,19.714286"
       id="path5676"
       sodipodi:nodetypes="cc" />
    <path
       style="fill:none;fill-rule:evenodd;stroke:#c4a000;stroke-width:1px;stroke-linecap:butt;stroke-linejoin:miter;stroke-opacity:1"
       d="M 40.857143,12.214286 L 40.928571,17.428571"
       id="path5678"
       sodipodi:nodetypes="cc" />
    <path
       style="fill:none;fill-rule:evenodd;stroke:#c4a000;stroke-width:1px;stroke-linecap:butt;stroke-linejoin:miter;stroke-opacity:1"
       d="M 42.714286,9.7857141 L 42.857143,15.214286"
       id="path5680"
       sodipodi:nodetypes="cc" />
    <path
       style="fill:url(#radialGradient5632);fill-opacity:1;fill-rule:evenodd;stroke:#c4a000;stroke-width:1px;stroke-linecap:butt;stroke-linejoin:miter;stroke-opacity:1"
       d="M 44.946642,7.6181886 C 44.948306,8.8635289 43.958605,9.4996869 42.75543,10.004667 C 42.676875,11.222071 41.741128,11.807395 40.660719,12.286043 C 40.44614,13.371569 40.057832,14.323651 38.64102,14.485726 C 38.390419,15.680062 37.77737,16.540318 36.514569,16.801673 C 36.684802,17.985369 35.720151,18.571314 34.48334,19.01391 C 34.281297,20.135035 33.544248,20.763025 32.532889,21.138172 C 32.564462,22.51785 31.457078,22.847708 30.517957,23.332661 C 29.563233,23.01482 28.32309,22.96006 28.123326,21.946343 C 27.1144,21.997931 26.203557,21.733091 25.597741,20.484213 C 24.660465,20.273919 23.69193,20.2365 22.949101,18.950843 C 21.675055,18.917955 20.647793,18.612103 20.381602,17.464447 C 18.829884,17.548035 17.842075,17.025221 17.507135,15.800339 C 16.119983,16.034625 15.576927,15.33527 15.192575,14.460376 C 15.242417,12.981344 16.455829,12.789318 17.472639,12.379832 C 17.567695,11.251721 18.557378,10.783297 19.651347,10.391772 C 19.919318,9.4122913 20.512589,8.6726829 21.791644,8.4387633 C 21.855421,7.1441977 22.960959,7.0499162 23.779447,6.6249034 C 23.669884,5.2153158 24.854269,4.9984063 25.919744,4.6718944 C 25.784031,3.4212849 27.217826,3.1351226 28.21292,2.5793841 C 28.387259,1.4850905 29.25115,0.89926472 30.436441,0.55043506 C 31.763058,0.69513646 33.078006,0.85597085 33.611649,2.0970426 C 35.174382,1.7082787 35.940958,2.2979776 36.289522,3.4014043 C 37.888368,3.10331 38.442957,3.9602525 39.058268,4.7500294 C 40.558662,4.3709481 41.265208,5.2723694 41.973962,6.1702302 C 43.596454,5.8378499 44.322949,6.6616904 44.946642,7.6181886 z"
       id="path5602"
       sodipodi:nodetypes="cccccccccccccccccccccccccc" />
  </g>
</svg>
