<?xml version="1.0" encoding="UTF-8" standalone="no"?>
<!-- Created with Inkscape (http://www.inkscape.org/) -->

<svg
   xmlns:dc="http://purl.org/dc/elements/1.1/"
   xmlns:cc="http://creativecommons.org/ns#"
   xmlns:rdf="http://www.w3.org/1999/02/22-rdf-syntax-ns#"
   xmlns:svg="http://www.w3.org/2000/svg"
   xmlns="http://www.w3.org/2000/svg"
   xmlns:xlink="http://www.w3.org/1999/xlink"
   xmlns:sodipodi="http://sodipodi.sourceforge.net/DTD/sodipodi-0.dtd"
   xmlns:inkscape="http://www.inkscape.org/namespaces/inkscape"
   width="48px"
   height="48px"
   id="svg81265"
   version="1.1"
   inkscape:version="0.48.5 r10040"
   sodipodi:docname="shears.svg">
  <defs
     id="defs81267">
    <linearGradient
       id="linearGradient81997">
      <stop
         style="stop-color:#b3baac;stop-opacity:1;"
         offset="0"
         id="stop81999" />
      <stop
         id="stop82005"
         offset="0.5"
         style="stop-color:#ffffff;stop-opacity:1;" />
      <stop
         style="stop-color:#a3ac9b;stop-opacity:1;"
         offset="1"
         id="stop82001" />
    </linearGradient>
    <linearGradient
       inkscape:collect="always"
       id="linearGradient81989">
      <stop
         style="stop-color:#d3d7cf;stop-opacity:1;"
         offset="0"
         id="stop81991" />
      <stop
         style="stop-color:#d3d7cf;stop-opacity:0;"
         offset="1"
         id="stop81993" />
    </linearGradient>
    <linearGradient
       id="linearGradient81967">
      <stop
         style="stop-color:#ffffff;stop-opacity:1;"
         offset="0"
         id="stop81969" />
      <stop
         id="stop81981"
         offset="0.23166709"
         style="stop-color:#c6c6c6;stop-opacity:1;" />
      <stop
         id="stop81979"
         offset="0.33329326"
         style="stop-color:#999999;stop-opacity:1;" />
      <stop
         id="stop81977"
         offset="0.50026369"
         style="stop-color:#ffffff;stop-opacity:1;" />
      <stop
         id="stop81975"
         offset="0.6332224"
         style="stop-color:#bbbbbb;stop-opacity:1;" />
      <stop
         style="stop-color:#f0f0f0;stop-opacity:1;"
         offset="0.75954449"
         id="stop81983" />
      <stop
         id="stop81985"
         offset="0.9080686"
         style="stop-color:#c0c0c0;stop-opacity:1;" />
      <stop
         style="stop-color:#ebebeb;stop-opacity:1;"
         offset="1"
         id="stop81971" />
    </linearGradient>
    <linearGradient
       inkscape:collect="always"
       xlink:href="#linearGradient81967"
       id="linearGradient81973"
       x1="7.1130075"
       y1="42.218914"
       x2="40.758015"
       y2="12.621445"
       gradientUnits="userSpaceOnUse"
       gradientTransform="matrix(1.0196598,0,0,1.0195768,-0.48044125,-0.46924433)" />
    <linearGradient
       inkscape:collect="always"
       xlink:href="#linearGradient81989"
       id="linearGradient81995"
       x1="19.748482"
       y1="29.514208"
       x2="13.889598"
       y2="46.939339"
       gradientUnits="userSpaceOnUse" />
    <linearGradient
       inkscape:collect="always"
       xlink:href="#linearGradient81997"
       id="linearGradient82003"
       x1="22.135826"
       y1="2.3415461"
       x2="23.635191"
       y2="2.240531"
       gradientUnits="userSpaceOnUse" />
    <linearGradient
       inkscape:collect="always"
       xlink:href="#linearGradient81997"
       id="linearGradient82043"
       gradientUnits="userSpaceOnUse"
       x1="22.135826"
       y1="2.3415461"
       x2="23.635191"
       y2="2.240531" />
    <linearGradient
       inkscape:collect="always"
       xlink:href="#linearGradient81967"
       id="linearGradient82045"
       gradientUnits="userSpaceOnUse"
       gradientTransform="matrix(1.0196598,0,0,1.0195768,-0.48044125,-0.46924433)"
       x1="7.1130075"
       y1="42.218914"
       x2="40.758015"
       y2="12.621445" />
    <linearGradient
       inkscape:collect="always"
       xlink:href="#linearGradient81989"
       id="linearGradient82047"
       gradientUnits="userSpaceOnUse"
       x1="19.748482"
       y1="29.514208"
       x2="13.889598"
       y2="46.939339" />
    <linearGradient
       inkscape:collect="always"
       xlink:href="#linearGradient81989"
       id="linearGradient82050"
       gradientUnits="userSpaceOnUse"
       x1="19.748482"
       y1="29.514208"
       x2="13.889598"
       y2="46.939339"
       gradientTransform="matrix(1.0093193,0.29535488,-0.29534428,1.0093555,8.4148535,-5.7411814)" />
    <linearGradient
       inkscape:collect="always"
       xlink:href="#linearGradient81967"
       id="linearGradient82060"
       gradientUnits="userSpaceOnUse"
       gradientTransform="matrix(0.96429091,0.4690689,-0.46901387,0.96424702,14.0281,-8.6424883)"
       x1="7.1130075"
       y1="42.218914"
       x2="40.758015"
       y2="12.621445" />
    <linearGradient
       inkscape:collect="always"
       xlink:href="#linearGradient81997"
       id="linearGradient82066"
       gradientUnits="userSpaceOnUse"
       x1="22.135826"
       y1="2.3415461"
       x2="23.635191"
       y2="2.240531"
       gradientTransform="matrix(1.0093193,0.29535489,-0.29534427,1.0093556,8.4148533,-5.7411817)" />
  </defs>
  <sodipodi:namedview
     id="base"
     pagecolor="#ffffff"
     bordercolor="#666666"
     borderopacity="1.0"
     inkscape:pageopacity="0.0"
     inkscape:pageshadow="2"
     inkscape:zoom="9.8994949"
     inkscape:cx="13.444165"
     inkscape:cy="22.120649"
     inkscape:current-layer="layer1"
     showgrid="true"
     inkscape:grid-bbox="true"
     inkscape:document-units="px"
     inkscape:window-width="2560"
     inkscape:window-height="1475"
     inkscape:window-x="0"
     inkscape:window-y="0"
     inkscape:window-maximized="1" />
  <metadata
     id="metadata81270">
    <rdf:RDF>
      <cc:Work
         rdf:about="">
        <dc:format>image/svg+xml</dc:format>
        <dc:type
           rdf:resource="http://purl.org/dc/dcmitype/StillImage" />
        <dc:title></dc:title>
      </cc:Work>
    </rdf:RDF>
  </metadata>
  <g
     id="layer1"
     inkscape:label="Layer 1"
     inkscape:groupmode="layer">
    <path
       style="color:#000000;fill:#ffffff;stroke:#000000;stroke-width:0.49999997;stroke-linecap:round;stroke-linejoin:miter;stroke-miterlimit:4;stroke-opacity:1;stroke-dasharray:none;stroke-dashoffset:0;marker:none;visibility:visible;display:inline;overflow:visible;enable-background:accumulate"
       d="M 40.601502,20.139142 40.350737,18.94707 c 0.218838,-0.523432 1.054538,-0.820996 1.709411,-0.463802 l 0.503666,1.134769 z"
       id="path81905"
       inkscape:connector-curvature="0"
       sodipodi:nodetypes="ccccc" />
    <path
       style="color:#000000;fill:#000000;stroke:#000000;stroke-width:0.99999994;stroke-linecap:round;stroke-linejoin:miter;stroke-miterlimit:4;stroke-opacity:1;stroke-dasharray:none;stroke-dashoffset:0;marker:none;visibility:visible;display:inline;overflow:visible;enable-background:accumulate"
       d="m 45.610614,20.582064 c -0.213251,-0.121375 -0.44579,-0.216123 -0.677605,-0.292354 -0.927264,-0.30492 -2.184943,-0.435661 -3.119994,-0.250768 -2.02879,0.401171 -3.198713,3.405682 -4.245159,3.747907 -2.790839,0.912705 -9.306045,1.435144 -9.306045,1.435144 L 24.702821,24.571369 1.2131072,35.018024 0.87928647,36.010771 26.312356,27.850883 c 0.0253,-0.02291 0.07554,-0.03812 0.104235,-0.06107 3.468067,-1.083346 10.079679,-2.575468 11.860761,-2.167333 0.719798,0.16494 1.684328,1.092972 3.091618,1.764721 1.299317,0.62024 3.000634,0.422068 3.821167,-0.04161 0.744338,-0.420628 1.540436,-0.672557 2.034229,-1.730621 0.722735,-1.548647 0.238484,-3.267475 -0.660837,-4.233998 l 0.03096,0.08959 c -0.285097,-0.377527 -0.60762,-0.674352 -0.983876,-0.888494 z m -0.54148,1.189832 c 0.533851,0.269042 1.002623,0.662187 1.286854,1.184912 0.389995,0.71723 0.194366,1.92313 -0.301108,2.61094 -0.01306,0.01821 -0.01584,0.04283 -0.02931,0.06027 -0.75184,0.635408 -1.847918,0.999977 -3.031938,0.947197 -1.335478,-0.05954 -2.474609,-0.632328 -3.118466,-1.479684 l 0.166149,0.118077 c -0.309958,-0.58273 -0.447965,-1.293218 -0.30392,-1.750118 0.337247,-1.069711 1.49259,-2.081557 2.673494,-2.202165 0.696782,-0.07117 1.768496,0.06217 2.658249,0.510574 z"
       id="path81960"
       inkscape:connector-curvature="0" />
    <path
       style="color:#000000;fill:url(#linearGradient82066);fill-opacity:1;stroke:#2e3436;stroke-width:0.49999997;stroke-linecap:round;stroke-linejoin:miter;stroke-miterlimit:4;stroke-opacity:1;stroke-dasharray:none;stroke-dashoffset:0;marker:none;visibility:visible;display:inline;overflow:visible;enable-background:accumulate"
       d="m 29.829786,1.4971349 c 0.407717,2.0239569 -0.09779,3.0325665 -0.379027,4.2905331 L 31.01327,6.1884726 C 30.967949,4.8436801 31.638743,3.4880994 32.566375,2.1286503 31.57673,1.0167011 30.687687,1.0756774 29.829786,1.4971349 z"
       id="path81871"
       inkscape:connector-curvature="0"
       sodipodi:nodetypes="ccccc" />
    <path
       style="color:#000000;fill:#555753;stroke:#2e3436;stroke-width:0.99999994;stroke-linecap:round;stroke-linejoin:miter;stroke-miterlimit:4;stroke-opacity:1;stroke-dasharray:none;stroke-dashoffset:0;marker:none;visibility:visible;display:inline;overflow:visible;enable-background:accumulate"
       d="M 31.47303,6.2528272 C 31.253836,6.3669588 30.954354,6.1539772 30.682336,6.0912759 27.9995,5.4575292 26.417058,7.8921771 26.066349,8.860308 c -0.06769,0.1868481 -0.103559,0.3733736 -0.127816,0.5561274 -0.71864,1.5879626 1.161961,4.1694236 1.047621,5.3690266 -0.842136,2.319736 -1.716076,4.222236 -2.578629,5.948822 L 19.1009,28.608074 8.3238627,46.227972 9.2353373,46.215388 9.4486746,45.963596 25.637871,25.598168 l -0.03799,-4.16583 2.084533,-4.976173 c 0.561099,-1.344617 1.326564,-2.268643 2.424372,-2.677176 1.557814,-0.579717 2.733353,-1.310885 3.271524,-2.708583 0.793381,-2.0605116 -0.562599,-4.5242889 -1.907274,-4.8175778 z m -0.885511,0.9977627 c 0.502184,0.089622 0.952026,0.325756 1.262154,0.5788225 0.892997,0.7286935 0.861445,2.0675869 0.861445,2.0675869 l 0.09803,-0.215709 c -0.09904,0.7065027 -0.425169,1.4101647 -0.997598,1.9774567 -1.308406,1.296667 -3.32512,1.397312 -4.540108,0.242547 -0.490206,-0.465903 -0.74806,-1.073706 -0.826908,-1.708344 l 0.366401,1.014971 c 0,0 -0.276867,-0.857628 -0.0174,-1.6111122 C 27.207479,8.3947593 28.160127,7.6869786 28.970858,7.4059573 29.53338,7.2109717 30.08532,7.160966 30.587507,7.2505899 z"
       id="path81953"
       inkscape:connector-curvature="0"
       sodipodi:nodetypes="ccsccccccccccsscssccssccsss" />
    <path
       style="color:#000000;fill:#888a85;stroke:none;stroke-width:0.1;marker:none;visibility:visible;display:inline;overflow:visible;enable-background:accumulate"
       d="m 40.04203,25.23207 c -0.30996,-0.582728 -0.457781,-1.315959 -0.313737,-1.772859 0.337248,-1.069711 1.511658,-2.068502 2.692563,-2.189109 1.114852,-0.113861 3.185799,0.289234 3.943747,1.683165 0.457492,0.841368 0.104468,2.377522 -0.586865,2.93089 l 1.281941,-1.273502 0.0143,-2.010575 -1.070918,-1.574874 -2.54114,-0.904872 -2.76675,0.611456 -1.818919,2.006005 0.01724,1.574237 z"
       id="path81913"
       inkscape:connector-curvature="0"
       sodipodi:nodetypes="csssccccccccc" />
    <path
       style="color:#000000;fill:#555753;stroke:none;stroke-width:0.1;marker:none;visibility:visible;display:inline;overflow:visible;enable-background:accumulate"
       d="m 26.420809,27.790484 c 3.468066,-1.083347 10.088211,-2.584144 11.869296,-2.176008 0.719798,0.16494 1.673087,1.106995 3.080376,1.778746 1.299318,0.620239 3.003409,0.432453 3.823944,-0.03123 0.744338,-0.420625 1.548947,-0.693391 2.042741,-1.751456 0.722742,-1.548642 0.236271,-3.273871 -0.663049,-4.240396 l 0.637724,1.928461 -0.240007,1.544088 -1.0991,1.29653 -1.739503,0.686916 -2.159336,-0.113504 -2.015151,-1.02283 -1.640073,-1.181064 -10.875614,1.608523 z"
       id="path81921"
       inkscape:connector-curvature="0"
       sodipodi:nodetypes="csssscccccccccc" />
    <path
       style="color:#000000;fill:url(#linearGradient82060);fill-opacity:1;stroke:none;stroke-width:0.1;marker:none;visibility:visible;display:inline;overflow:visible;enable-background:accumulate"
       d="m 44.933008,20.28971 c -0.927264,-0.304919 -2.178545,-0.437877 -3.113596,-0.252978 -2.02879,0.401169 -3.205111,3.40789 -4.251556,3.750117 -2.790841,0.912706 -9.306045,1.435145 -9.306045,1.435145 L 24.70282,24.571368 1.213106,35.018024 0.8792857,36.010771 26.312356,27.850883 c 1.517193,-1.37488 9.250185,-2.83891 11.793925,-2.79604 0.951351,0.01603 3.048993,2.444918 5.987656,2.092862 2.432134,-0.291375 3.818146,-2.679135 3.020215,-4.753656 -0.44411,-1.154627 -1.25388,-1.799419 -2.181144,-2.104339 z m -0.100141,0.435699 c 1.362011,0.528682 2.29293,1.66953 2.220307,2.94316 -0.09683,1.69817 -1.922781,3.001891 -4.059545,2.90664 -2.136765,-0.09525 -3.774128,-1.54384 -3.677297,-3.242013 0.09683,-1.698171 1.892646,-3.016548 4.029411,-2.921296 0.534193,0.0238 1.033122,0.137277 1.487124,0.313507 z"
       id="path81896"
       inkscape:connector-curvature="0"
       sodipodi:nodetypes="ssscccccssssssssss" />
    <path
       style="color:#000000;fill:#555753;stroke:none;stroke-width:0.1;marker:none;visibility:visible;display:inline;overflow:visible;enable-background:accumulate"
       d="m 25.879404,9.1451206 0.637283,2.4019434 1.555271,1.623735 2.706327,-0.483797 1.770084,-1.555887 c 0.283403,-0.756591 0.755173,-1.9512449 0.371489,-2.8685256 -0.517409,-1.2369759 -1.950224,-2.1055038 -1.457353,-1.9980029 1.344681,0.2932896 2.719542,2.7353004 1.926164,4.7958105 -0.53817,1.397699 -1.717925,2.129583 -3.27574,2.7093 -1.097807,0.408531 -1.858888,1.332958 -2.419986,2.677573 L 25.61545,21.42579 25.63354,25.606816 9.2769735,46.213392 24.85345,20.751377 26.875113,15.192232 c 0.730047,-1.858406 -1.887438,-3.63416 -0.995709,-6.0471114 z"
       id="path81879"
       inkscape:connector-curvature="0"
       sodipodi:nodetypes="ccccccsssscccccc" />
    <path
       style="color:#000000;fill:#888a85;stroke:none;stroke-width:0.1;marker:none;visibility:visible;display:inline;overflow:visible;enable-background:accumulate"
       d="M 26.796186,11.219118 26.10889,9.3251319 27.215499,7.278947 29.17921,6.1607189 31.156975,6.3444662 32.607423,7.5589111 33.028465,9.2056975 32.711576,9.90297 c 0,0 0.02215,-1.3634601 -0.870847,-2.092154 -0.620253,-0.506132 -1.756332,-0.8065423 -2.881376,-0.416571 -0.810732,0.281021 -1.753212,0.9833922 -2.167163,2.18544 -0.259481,0.753483 0.004,1.639433 0.004,1.639433 z"
       id="path81888"
       inkscape:connector-curvature="0"
       sodipodi:nodetypes="ccccccccsssc" />
    <path
       style="color:#000000;fill:#ffffff;stroke:none;stroke-width:0.1;marker:none;visibility:visible;display:inline;overflow:visible;enable-background:accumulate"
       d="m 30.682336,6.0912753 c -2.682836,-0.6337467 -4.265277,1.8009011 -4.615987,2.769032 -0.350703,0.9681328 -0.02179,1.9836917 -0.02179,1.9836917 l 1.391748,2.641732 c -0.987364,2.949991 -2.007762,5.204792 -3.028768,7.248555 l -5.30663,7.87379 L 8.3238711,46.227972 9.2353468,46.215392 25.18131,25.010688 24.97155,21.073903 c 0,0 1.73104,-3.849168 2.899408,-6.448483 0.482102,-1.072551 2.056534,-1.40718 3.32727,-2.063826 0.855152,-0.441895 1.609879,-1.265686 1.872982,-2.105343 0.26311,-0.8396548 0.293967,-3.7312247 -2.38887,-4.3649717 z m 0.273013,0.4988538 c 0.383079,0.1313437 0.737207,0.3301428 1.040955,0.6188341 1.214988,1.1547648 1.123655,3.1531168 -0.184751,4.4497848 -1.308407,1.296666 -3.325121,1.39731 -4.540109,0.242547 C 26.056456,10.74653 26.106219,8.7709257 27.414625,7.4742595 28.39593,6.5017598 29.806116,6.1960972 30.955349,6.5901291 z"
       id="path81850"
       inkscape:connector-curvature="0" />
    <path
       transform="matrix(0.21325707,0.19983682,-0.21203151,0.20702941,18.508343,20.653139)"
       d="m 27.728687,9.2859039 a 3.7880721,4.0658641 0 1 1 -7.576144,0 3.7880721,4.0658641 0 1 1 7.576144,0 z"
       sodipodi:ry="4.0658641"
       sodipodi:rx="3.7880721"
       sodipodi:cy="9.2859039"
       sodipodi:cx="23.940615"
       id="path81869"
       style="color:#000000;fill:#d3d7cf;stroke:#888a85;stroke-width:1.69983304;stroke-linecap:round;stroke-linejoin:miter;stroke-miterlimit:4;stroke-opacity:1;stroke-dasharray:none;stroke-dashoffset:0;marker:none;visibility:visible;display:inline;overflow:visible;enable-background:accumulate"
       sodipodi:type="arc" />
    <path
       style="color:#000000;fill:#888a85;stroke:none;stroke-width:0.1;marker:none;visibility:visible;display:inline;overflow:visible;enable-background:accumulate"
       d="m 19.619769,27.502893 0.99083,3.265119 -1.967911,-1.553445 z"
       id="path81929"
       inkscape:connector-curvature="0"
       sodipodi:nodetypes="cccc" />
    <path
       style="color:#000000;fill:#888a85;stroke:none;stroke-width:0.1;marker:none;visibility:visible;display:inline;overflow:visible;enable-background:accumulate"
       d="m 28.246684,25.209313 -0.152496,1.714409 c 0,0 0.538851,-0.474621 0.562543,-1.025214 0.01687,-0.391929 -0.41005,-0.689196 -0.41005,-0.689196 z"
       id="path81937"
       inkscape:connector-curvature="0"
       sodipodi:nodetypes="ccsc" />
    <path
       style="color:#000000;fill:#babdb6;stroke:none;stroke-width:0.1;marker:none;visibility:visible;display:inline;overflow:visible;enable-background:accumulate"
       d="m 26.049892,27.930815 -0.388745,-1.871227 0.789416,1.704154 z"
       id="path81945"
       inkscape:connector-curvature="0" />
    <path
       style="fill:url(#linearGradient82050);fill-opacity:1;stroke:none"
       d="M 18.840943,28.98676 20.413881,30.609299 8.340643,46.336506 z"
       id="path81987"
       inkscape:connector-curvature="0"
       sodipodi:nodetypes="cccc" />
  </g>
</svg>
