<?xml version="1.0" encoding="UTF-8" standalone="no"?>
<!-- Generator: Adobe Illustrator 15.0.0, SVG Export Plug-In . SVG Version: 6.00 Build 0)  -->

<svg
   xmlns:dc="http://purl.org/dc/elements/1.1/"
   xmlns:cc="http://creativecommons.org/ns#"
   xmlns:rdf="http://www.w3.org/1999/02/22-rdf-syntax-ns#"
   xmlns:svg="http://www.w3.org/2000/svg"
   xmlns="http://www.w3.org/2000/svg"
   xmlns:xlink="http://www.w3.org/1999/xlink"
   xmlns:sodipodi="http://sodipodi.sourceforge.net/DTD/sodipodi-0.dtd"
   xmlns:inkscape="http://www.inkscape.org/namespaces/inkscape"
   version="1.0"
   id="Layer_1"
   x="0px"
   y="0px"
   width="48"
   height="48"
   viewBox="0 0 612 792"
   enable-background="new 0 0 612 792"
   xml:space="preserve"
   sodipodi:version="0.32"
   inkscape:version="0.48.5 r10040"
   sodipodi:docname="lift_hair.svg"
   inkscape:output_extension="org.inkscape.output.svg.inkscape"><metadata
     id="metadata9213"><rdf:RDF><cc:Work
         rdf:about=""><dc:format>image/svg+xml</dc:format><dc:type
           rdf:resource="http://purl.org/dc/dcmitype/StillImage" /><dc:title></dc:title></cc:Work></rdf:RDF></metadata><defs
     id="defs9211"><linearGradient
       id="linearGradient93329"><stop
         style="stop-color:#efad29;stop-opacity:1;"
         offset="0"
         id="stop93331" /><stop
         style="stop-color:#ef2929;stop-opacity:1;"
         offset="1"
         id="stop93333" /></linearGradient><linearGradient
       inkscape:collect="always"
       id="linearGradient93317"><stop
         style="stop-color:#533301;stop-opacity:1;"
         offset="0"
         id="stop93319" /><stop
         style="stop-color:#533301;stop-opacity:0;"
         offset="1"
         id="stop93321" /></linearGradient><linearGradient
       id="linearGradient79754"><stop
         style="stop-color:#c17d11;stop-opacity:1;"
         offset="0"
         id="stop79756" /><stop
         style="stop-color:#905e0d;stop-opacity:1;"
         offset="1"
         id="stop79758" /></linearGradient><linearGradient
       id="linearGradient78879"><stop
         style="stop-color:#8f5902;stop-opacity:1"
         offset="0"
         id="stop78881" /><stop
         style="stop-color:#c17d11;stop-opacity:1;"
         offset="1"
         id="stop78883" /></linearGradient><linearGradient
       id="linearGradient78869"><stop
         style="stop-color:#563601;stop-opacity:1;"
         offset="0"
         id="stop78871" /><stop
         style="stop-color:#8f5902;stop-opacity:1;"
         offset="1"
         id="stop78873" /></linearGradient><linearGradient
       inkscape:collect="always"
       xlink:href="#linearGradient78869"
       id="linearGradient78875"
       x1="43.554558"
       y1="145.10719"
       x2="39.007004"
       y2="253.8304"
       gradientUnits="userSpaceOnUse"
       gradientTransform="matrix(1.0979359,0,0,1.0973269,186.15868,144.25409)" /><linearGradient
       inkscape:collect="always"
       xlink:href="#linearGradient78879"
       id="linearGradient78885"
       x1="28.035713"
       y1="12.803573"
       x2="31.482143"
       y2="16.44643"
       gradientUnits="userSpaceOnUse"
       gradientTransform="matrix(20.309023,0,0,22.478323,-211.34301,-73.644637)" /><linearGradient
       inkscape:collect="always"
       xlink:href="#linearGradient79703-0"
       id="linearGradient79709-1"
       x1="-307.59146"
       y1="95.085739"
       x2="-301.379"
       y2="102.32095"
       gradientUnits="userSpaceOnUse"
       gradientTransform="matrix(17.399979,0,0,17.400479,5827.0474,-1355.8889)" /><linearGradient
       id="linearGradient79703-0"><stop
         style="stop-color:#c17d11;stop-opacity:1"
         offset="0"
         id="stop79705-4" /><stop
         style="stop-color:#e9b96e;stop-opacity:1;"
         offset="1"
         id="stop79707-5" /></linearGradient><linearGradient
       inkscape:collect="always"
       xlink:href="#linearGradient79754"
       id="linearGradient79760"
       x1="462.15335"
       y1="320.10092"
       x2="491.65445"
       y2="456.35788"
       gradientUnits="userSpaceOnUse"
       gradientTransform="matrix(1.0545442,0,0,1.0545745,-14.771223,-3.3281181)" /><linearGradient
       inkscape:collect="always"
       xlink:href="#linearGradient93317"
       id="linearGradient93323"
       x1="29.938107"
       y1="6.0511384"
       x2="30.580952"
       y2="7.6773615"
       gradientUnits="userSpaceOnUse"
       gradientTransform="matrix(22.584219,0,0,22.664636,-255.05646,87.578441)" /><linearGradient
       inkscape:collect="always"
       xlink:href="#linearGradient93329"
       id="linearGradient93335"
       x1="70.580353"
       y1="33.147327"
       x2="65.866074"
       y2="415.00446"
       gradientUnits="userSpaceOnUse" /></defs><sodipodi:namedview
     inkscape:window-height="1475"
     inkscape:window-width="2560"
     inkscape:pageshadow="2"
     inkscape:pageopacity="0.0"
     guidetolerance="10.0"
     gridtolerance="10.0"
     objecttolerance="10.0"
     borderopacity="1.0"
     bordercolor="#666666"
     pagecolor="#ffffff"
     id="base"
     showgrid="false"
     inkscape:zoom="18.666667"
     inkscape:cx="8.9971226"
     inkscape:cy="18.59517"
     inkscape:window-x="0"
     inkscape:window-y="0"
     inkscape:current-layer="Layer_1"
     inkscape:window-maximized="1" /><path
     style="fill:url(#linearGradient93335);stroke:#a40000;stroke-width:16.50000000000000000px;stroke-linecap:butt;stroke-linejoin:miter;stroke-opacity:1;fill-opacity:1"
     d="m 69.10714,11.491086 -139.660712,142.312504 65.4107138,0 0,272.24998 141.4285582,0 0,-273.13392 71.59822,0 z"
     id="path93325"
     inkscape:connector-curvature="0"
     sodipodi:nodetypes="cccccccc" /><path
     sodipodi:nodetypes="cccccccc"
     inkscape:connector-curvature="0"
     id="path93327"
     d="m 69.079079,24.527442 -111.346938,118.335378 41.81122506,-0.88392 0,271.03831 132.44896394,0 0,-271.86666 44.07017,-0.88393 z"
     style="fill:none;stroke:#ffffff;stroke-width:8.25;stroke-linecap:butt;stroke-linejoin:miter;stroke-miterlimit:4;stroke-opacity:1;stroke-dasharray:none" /><path
     style="fill:url(#linearGradient78875);fill-opacity:1;stroke:#533301;stroke-width:8.25;stroke-miterlimit:4;stroke-opacity:1;stroke-dasharray:none"
     d="m 323.66403,286.59684 40.98633,399.67152 c 0.42309,9.39004 3.10891,19.11291 3.44007,24.68385 -12.12298,3.22344 -38.42932,1.66426 -65.10348,2.2424 -4.83812,0.0702 -27.4653,9.1973 -44.70229,10.6689 -4.30464,0.36786 0.6623,-8.96959 -2.99851,-8.21628 -7.32159,1.45403 -25.11059,8.54912 -25.07383,7.02499 0,-3.90667 4.8934,-19.51584 1.67407,-17.20336 -5.77634,4.09937 -21.79925,9.88054 -21.26573,7.79582 21.06338,-84.59778 -43.92967,-183.71856 -43.92967,-239.46304 0,-35.82376 2.53545,-90.2664 11.99459,-133.73233 55.68981,-68.67162 98.63187,-49.31776 144.97845,-53.47247 z"
     id="path78850"
     inkscape:connector-curvature="0"
     sodipodi:nodetypes="cccccccccscc" /><path
     d="m 579.70751,945.45308 c -10.25714,-15.17512 -39.57676,-37.19322 -55.00019,-47.4671 -28.41456,-18.9642 -47.96726,-17.0037 -79.28548,-10.04763 -38.33232,8.46415 -71.0647,34.91225 -99.81864,72.78412 -42.81984,56.21403 -62.0143,49.40883 -66.29439,38.09806 -17.96886,-70.6162 68.14216,-182.79915 69.34891,-270.06092 0.0377,-2.75228 0.15083,-5.99467 0.26396,-9.38788 0.5845,-12.98841 0.18855,-27.39064 0.18855,-27.39064 0,0 -38.93567,5.91925 -68.29302,6.59788 -16.95068,0.26393 -32.22328,-1.20648 -38.27574,-6.91836 -13.89617,-13.1769 -26.35936,-41.20852 -21.98499,-89.35423 4.4498,-48.16458 -9.86119,-77.06333 -5.59995,-104.73674 3.28079,-20.96247 16.0645,-50.20053 25.03951,-67.92056 12.55747,-24.77036 17.04496,-50.97341 25.11492,-77.79852 11.1622,-36.98588 30.24352,-75.36672 60.90184,-100.13708 9.7669,-7.87977 21.62944,-13.06761 33.73168,-18.39868 50.94774,-22.44265 201.5759,4.4034 255.64671,78.96587 28.81504,39.73529 54.42879,144.88801 21.8683,235.58215 -22.49741,62.66433 -70.25681,91.55087 -77.74575,102.28765 -11.25957,16.14271 -22.62606,37.23095 -19.70352,54.27235 2.69628,15.72184 7.10834,30.04867 14.78237,40.90691 0.2451,62.8496 3.63901,76.51663 5.99589,89.61817 2.39461,13.04495 20.75942,88.65675 19.11903,110.50518 z"
     id="path9118"
     inkscape:connector-curvature="0"
     sodipodi:nodetypes="cccccccccccccccsssssccc"
     style="fill:#000000;fill-opacity:1;stroke:#000000;stroke-width:16.5;stroke-miterlimit:4;stroke-dasharray:none" /><path
     style="fill:none;stroke:#888a85;stroke-width:8.25;stroke-miterlimit:4;stroke-dasharray:none"
     sodipodi:nodetypes="cccccccccccccccsssssccc"
     inkscape:connector-curvature="0"
     id="path71042"
     d="m 574.62337,934.11479 c -9.90091,-14.65269 -38.20233,-35.91282 -53.09012,-45.83299 -27.42781,-18.31138 -46.30146,-16.41833 -76.53206,-9.70174 -37.0011,8.17276 -68.59672,33.71038 -96.35213,70.27848 -41.33276,54.27886 -59.86064,47.70783 -63.99209,36.78655 -17.34483,-68.18526 65.7757,-176.50623 66.94055,-260.76398 0.0364,-2.65751 0.14561,-5.78828 0.25478,-9.06467 0.56423,-12.54127 0.18202,-26.44771 0.18202,-26.44771 0,0 -37.58351,5.71548 -65.92132,6.37074 -16.36201,0.25485 -31.10424,-1.16492 -36.94652,-6.68019 -13.41356,-12.72328 -25.44394,-39.78989 -21.22148,-86.27817 4.29524,-46.50651 -9.51873,-74.41038 -5.40547,-101.13113 3.16684,-20.2408 15.5066,-48.47233 24.16992,-65.58235 12.12138,-23.91763 16.45302,-49.21861 24.24275,-75.12025 10.77455,-35.71263 29.19322,-72.77217 58.78679,-96.68982 9.42773,-7.60849 20.87831,-12.61773 32.56029,-17.7653 49.17838,-21.67004 194.57551,4.25182 246.76854,76.24745 27.81434,38.36736 52.53859,139.90015 21.10886,227.47208 -21.71612,60.50711 -67.81693,88.39921 -75.04577,98.76637 -10.86856,15.58698 -21.84032,35.94926 -19.01926,52.40399 2.60264,15.18059 6.86148,29.01422 14.26899,39.49865 0.23659,60.68596 3.51264,73.88251 5.78768,86.53302 2.31144,12.59587 20.03849,85.6047 18.45505,106.70097 z" /><path
     style="color:#000000;fill:#8f5902;fill-opacity:1;fill-rule:nonzero;stroke:#533301;stroke-width:8.25;stroke-linecap:butt;stroke-linejoin:miter;stroke-miterlimit:4;stroke-opacity:1;stroke-dasharray:none;stroke-dashoffset:0;marker:none;visibility:visible;display:inline;overflow:visible;enable-background:accumulate"
     d="m 178.68558,339.89331 c 7.35083,-35.44621 18.51086,-62.07662 38.30008,-79.11143 41.44618,-35.73823 100.07424,-65.79585 158.57357,-54.25078 10.90877,2.16929 21.24735,6.25051 30.77645,11.15901 31.14446,-3.40102 49.65085,-6.9675 65.60019,-9.43093 10.5593,-1.59939 20.01484,-2.73919 31.30998,-3.01496 28.36665,-0.62504 56.80688,-4.55918 74.50384,14.13719 16.48281,17.39115 37.58303,25.62712 53.23804,30.2047 28.40343,8.34626 53.23804,44.30509 62.1049,102.58194 8.8301,58.27685 1.72922,92.48923 -12.4357,111.33268 -4.17589,5.55192 -7.67112,12.44588 -11.05599,20.99437 -17.73374,45.27944 -23.30774,93.53707 -49.706,135.45229 -19.68374,31.30772 -41.29904,58.64451 -24.85301,80.06171 14.95596,19.39497 11.44231,21.60104 -13.11636,22.20769 -8.83008,0.22063 -3.77117,10.46043 -9.58431,18.80671 -3.624,5.09234 -15.32388,-3.01496 -24.24594,-9.87213 -9.73149,-7.50063 -15.2503,32.02468 -24.26434,25.90286 -23.85961,-15.92042 -39.97451,-52.26533 -38.30046,-91.27588 2.06034,-48.22087 30.15105,-117.43611 30.15105,-129.38561 -6.18106,-14.59678 -28.36664,-47.1546 -33.71989,-81.56921 -7.04567,-45.59197 -46.08196,-38.95538 -38.79712,-74.17886 -11.71828,6.69172 -18.37767,4.08118 -30.0407,-11.9863 -37.82224,-52.13662 -69.70422,-83.32895 -89.45983,-84.87828 -47.75222,-3.74497 -106.52228,15.26735 -144.97845,56.11322 z"
     id="path8828"
     inkscape:connector-curvature="0"
     sodipodi:nodetypes="ccccccccccccccccccccccsc" /><path
     d="m 636.50651,339.74054 c -4.02873,-3.43776 -7.24802,-7.02261 -10.44893,-10.07434 -7.46878,-7.09617 -11.81023,-15.4976 -26.04875,-13.05254 7.32162,4.63273 2.98016,26.436 0.18396,29.35903 -1.58205,-13.67759 -18.02808,-23.93578 -22.16719,-25.03881 -4.1391,-1.08467 -23.78602,-6.21376 -16.538,1.32363 2.37308,2.53697 0.60707,10.1295 -2.83298,16.85799 -0.38632,0.77214 -0.80944,1.54426 -1.30613,2.29799 -0.45989,0.77212 -0.975,1.58101 -1.52686,2.2796 -1.06697,-10.86486 -6.69615,-19.43175 -10.35695,-24.30346 -7.96547,-10.66264 -31.99065,-19.89135 -4.61739,-17.35437 7.8367,0.75372 24.92658,12.33556 28.56899,4.13637 2.2627,-5.07395 -0.71744,-11.12225 -12.93239,-17.96103 2.44668,0.0368 4.74617,0.18383 7.00887,0.4412 2.07875,0.22061 4.1391,0.53314 6.07069,0.93759 27.20768,5.31293 40.71036,23.54972 40.15847,15.22183 -0.69905,-9.54123 -3.36646,-25.99478 -33.27837,-39.7459 18.43281,-3.05174 53.8819,23.77031 53.8819,17.83232 0,-13.62244 -48.56546,-33.6976 -62.52802,-33.45861 -10.78006,0.18384 25.68083,-2.8311 53.55077,5.25779 8.22301,2.37152 15.65501,5.73576 20.95304,10.3685 14.12815,12.44587 22.95821,28.62366 29.30484,45.9045 1.858,5.00041 1.04858,16.98667 -0.16556,35.46248 -0.9382,13.78788 -9.52913,-16.60065 -17.14507,-23.10853 -12.06778,-10.22143 -37.63824,-19.50528 -27.55723,-11.71053 10.63291,8.4198 9.34517,11.398 9.76829,28.1273 z"
     id="path8848"
     style="fill:#af710f;fill-opacity:1"
     inkscape:connector-curvature="0" /><path
     d="m 618.51521,304.03911 c 4.81976,3.29069 6.43862,16.60061 4.56221,18.6596 -1.01177,-9.6883 -16.35403,-14.81738 -19.03985,-15.58949 -2.72262,-0.77213 -15.6734,-4.37538 -10.90884,0.91916 1.56365,1.80164 0.40471,7.1697 -1.85801,11.93114 -0.27593,0.55152 -0.53346,1.10304 -0.86459,1.63616 -0.29434,0.55152 -0.60708,1.10303 -1.03018,1.58101 -0.66227,-7.70283 -4.37826,-13.75113 -6.76973,-17.18889 -5.24286,-7.55578 -20.84267,-15.29538 -3.25609,-11.06712 8.16781,1.96709 21.37616,8.64044 30.62935,10.18469 4.48862,-2.77596 1.69242,-9.08163 2.86978,-12.02305 1.47167,-3.60324 -0.45992,-7.8683 -8.51735,-12.68488 1.61882,0 3.14569,0.11025 4.59898,0.33092 1.3981,0.14707 2.72261,0.36767 3.99194,0.66182 17.89932,3.75031 27.13411,15.46081 26.72941,9.5596 -0.42313,-6.74687 -1.25094,-6.56303 -1.25094,-10.75455 0,-9.63315 -31.95387,-23.86226 -41.13349,-23.6968 -7.11923,0.11037 16.88756,-1.98545 35.20997,3.71355 5.40843,1.6913 10.30177,4.06283 13.76022,7.35354 9.28997,8.80588 15.08472,20.27739 19.27901,32.48428 1.19574,3.56648 0.69904,12.02305 -0.0919,25.09397 -0.60706,9.74345 -6.29143,-11.7473 -11.27675,-16.34326 -7.96546,-7.22486 -22.99499,-13.78789 -16.39085,-8.27273 3.2377,2.77597 5.09572,4.92689 5.09572,9.2287 -9.56593,-4.63274 -19.31581,-6.63657 -24.33792,-5.71737 z"
     id="path8850"
     style="fill:#e19f38;fill-opacity:1"
     inkscape:connector-curvature="0" /><path
     stroke-miterlimit="10"
     d="m 499.71382,311.70518 c -20.60353,19.26628 -24.4115,30.44368 -35.15477,39.85622 -11.93901,10.49718 -18.45122,20.79214 -24.90822,24.63436"
     id="path8856"
     style="fill:none;stroke:#e9b96e;stroke-width:8.25;stroke-linecap:round;stroke-linejoin:round;stroke-miterlimit:10;stroke-dasharray:none"
     inkscape:connector-curvature="0" /><g
     id="g8858"
     transform="matrix(-18.396005,0,0,18.383862,7131.915,-6067.6048)"
     style="stroke:#5e3a01;stroke-width:0.94118786;stroke-opacity:1"><path
       stroke-miterlimit="10"
       d="m 365.436,341.965 c -1.068,0.555 -1.623,1.131 -2.222,1.563"
       id="path8860"
       style="fill:none;stroke:#5e3a01;stroke-width:0.27659255;stroke-linecap:round;stroke-linejoin:round;stroke-miterlimit:10;stroke-opacity:1"
       inkscape:connector-curvature="0" /><path
       stroke-miterlimit="10"
       d="m 360.398,347.168 c 1.12,1.049 1.327,1.656 1.91,2.169 0.651,0.57 1.004,1.129 1.356,1.339 0.159,0.944 -0.155,1.465 -1.147,2.162 -1.068,0.751 -0.827,2.427 -1.597,3.868 -0.771,1.44 -1.136,2.615 -2.22,3.628 -0.97,0.906 -1.99,1.401 -2.627,1.401 0.509,-1.234 0.689,-1.655 0.689,-1.655 0,0 -1.068,0.875 -1.41,0.944 0.289,-0.559 0.434,-0.839 0.434,-0.839 0,0 -0.652,0.348 -1.012,0.141 0.904,-0.979 0.4,-3.054 0.812,-4.359"
       id="path8862"
       style="fill:none;stroke:#5e3a01;stroke-width:0.27659255;stroke-linecap:round;stroke-linejoin:round;stroke-miterlimit:10;stroke-opacity:1"
       inkscape:connector-curvature="0" /><path
       stroke-miterlimit="10"
       d="m 377.87923,348.40164 c -1.83569,-2.18654 -4.21325,-2.8244 -7.03665,-2.87949 -2.42838,-0.0474 -4.89134,3.21043 -6.06558,4.86085 -0.122,0.101 -0.365,0.419 -0.799,0.318 -0.434,-0.1 -0.434,-0.117 -0.607,-0.268"
       id="path8864"
       style="fill:none;stroke:#5e3a01;stroke-width:0.27659255;stroke-linecap:round;stroke-linejoin:round;stroke-miterlimit:10;stroke-opacity:1"
       inkscape:connector-curvature="0"
       sodipodi:nodetypes="csccc" /></g><path
     style="color:#000000;fill:#8f5902;fill-opacity:1;fill-rule:nonzero;stroke:url(#linearGradient93323);stroke-width:8.25;stroke-linecap:butt;stroke-linejoin:miter;stroke-miterlimit:4;stroke-opacity:1;stroke-dasharray:none;stroke-dashoffset:0;marker:none;visibility:visible;display:inline;overflow:visible;enable-background:accumulate"
     d="M 369.23588,293.98855 C 313.68168,269.93249 163.74516,281.10344 81.475629,307.76514 137.56578,259.5834 198.40384,249.6843 259.06956,234.92503 206.17431,226.48894 152.44366,223.92153 97.015402,233.27969 142.07086,192.73062 236.3923,187.16406 309.95234,217.4954 265.1418,163.78007 190.61894,151.06472 121.21277,131.28884 c 92.43096,-7.67593 175.61965,2.27101 235.92443,55.85214 10.14766,-29.14026 -26.41374,-58.2805 -73.80199,-87.420751 67.49448,12.732741 98.96449,31.734681 142.76451,84.992381 -5.33963,-26.30716 -12.10205,-51.40015 -35.08619,-81.34985 46.48095,15.60425 103.83688,48.43267 160.91257,142.0587 -85.38363,-13.36617 -127.95494,21.47215 -182.69022,48.56709 z"
     id="path92782"
     inkscape:connector-curvature="0"
     sodipodi:nodetypes="cccccccccccc" /></svg>