<?xml version="1.0" encoding="UTF-8" standalone="no"?>
<!-- Created with Inkscape (http://www.inkscape.org/) -->
<svg
   xmlns:dc="http://purl.org/dc/elements/1.1/"
   xmlns:cc="http://creativecommons.org/ns#"
   xmlns:rdf="http://www.w3.org/1999/02/22-rdf-syntax-ns#"
   xmlns:svg="http://www.w3.org/2000/svg"
   xmlns="http://www.w3.org/2000/svg"
   xmlns:xlink="http://www.w3.org/1999/xlink"
   xmlns:sodipodi="http://sodipodi.sourceforge.net/DTD/sodipodi-0.dtd"
   xmlns:inkscape="http://www.inkscape.org/namespaces/inkscape"
   width="48px"
   height="48px"
   id="svg2383"
   sodipodi:version="0.32"
   inkscape:version="0.46"
   sodipodi:docname="paint_guard_length.svg"
   inkscape:output_extension="org.inkscape.output.svg.inkscape">
  <defs
     id="defs2385">
    <linearGradient
       id="linearGradient4879">
      <stop
         id="stop4881"
         offset="0"
         style="stop-color:#df9d00;stop-opacity:1;" />
      <stop
         style="stop-color:#ffe8a3;stop-opacity:1;"
         offset="0.5"
         id="stop4883" />
      <stop
         id="stop4885"
         offset="1"
         style="stop-color:#f7c500;stop-opacity:1;" />
    </linearGradient>
    <linearGradient
       id="linearGradient3359">
      <stop
         style="stop-color:#965e05;stop-opacity:1;"
         offset="0"
         id="stop3361" />
      <stop
         id="stop3367"
         offset="0.5"
         style="stop-color:#e5ac52;stop-opacity:1;" />
      <stop
         style="stop-color:#965e05;stop-opacity:1;"
         offset="1"
         id="stop3363" />
    </linearGradient>
    <linearGradient
       id="linearGradient3165">
      <stop
         style="stop-color:#f3bf6c;stop-opacity:1;"
         offset="0"
         id="stop3167" />
      <stop
         style="stop-color:#c17d11;stop-opacity:1;"
         offset="1"
         id="stop3169" />
    </linearGradient>
    <inkscape:perspective
       sodipodi:type="inkscape:persp3d"
       inkscape:vp_x="0 : 24 : 1"
       inkscape:vp_y="0 : 1000 : 0"
       inkscape:vp_z="48 : 24 : 1"
       inkscape:persp3d-origin="24 : 16 : 1"
       id="perspective2391" />
    <linearGradient
       inkscape:collect="always"
       xlink:href="#linearGradient4879"
       id="linearGradient4851"
       gradientUnits="userSpaceOnUse"
       x1="-12.03225"
       y1="16.257603"
       x2="-9.4470282"
       y2="16.642857"
       gradientTransform="matrix(-0.6787904,6.5917011e-2,9.1950287e-2,0.4860247,6.6274891,22.706953)" />
    <linearGradient
       inkscape:collect="always"
       xlink:href="#linearGradient4879"
       id="linearGradient4855"
       gradientUnits="userSpaceOnUse"
       gradientTransform="matrix(-0.5252182,5.8114431e-2,5.4348354e-2,0.5617964,15.386005,17.266779)"
       x1="-11.936553"
       y1="16.497957"
       x2="-9.4470282"
       y2="16.642857" />
    <linearGradient
       inkscape:collect="always"
       xlink:href="#linearGradient3359"
       id="linearGradient4859"
       gradientUnits="userSpaceOnUse"
       gradientTransform="matrix(-1.1355668,0.1171094,0.1175058,1.132105,6.1700161,11.129743)"
       x1="-11.936553"
       y1="16.497957"
       x2="-9.4470282"
       y2="16.642857" />
    <linearGradient
       inkscape:collect="always"
       xlink:href="#linearGradient4879"
       id="linearGradient4863"
       gradientUnits="userSpaceOnUse"
       gradientTransform="matrix(0.8049613,8.5153793e-2,-8.3295514e-2,0.8231878,38.984392,20.969329)"
       x1="-11.936553"
       y1="16.497957"
       x2="-9.4470282"
       y2="16.642857" />
    <linearGradient
       inkscape:collect="always"
       xlink:href="#linearGradient3359"
       id="linearGradient4867"
       gradientUnits="userSpaceOnUse"
       gradientTransform="matrix(1.1355668,0.1171094,-0.1175058,1.132105,42.329984,10.701172)"
       x1="-11.936553"
       y1="16.497957"
       x2="-9.4470282"
       y2="16.642857" />
    <linearGradient
       inkscape:collect="always"
       xlink:href="#linearGradient4879"
       id="linearGradient4871"
       gradientUnits="userSpaceOnUse"
       gradientTransform="matrix(0.667006,7.181932e-2,-6.9020223e-2,0.6942825,33.938789,13.371153)"
       x1="-11.936553"
       y1="16.497957"
       x2="-9.4470282"
       y2="16.642857" />
    <linearGradient
       inkscape:collect="always"
       xlink:href="#linearGradient4879"
       id="linearGradient4889"
       gradientUnits="userSpaceOnUse"
       gradientTransform="matrix(0.8707132,0.1541635,-0.1523515,0.8790217,41.731627,9.6490767)"
       x1="-11.936553"
       y1="16.497957"
       x2="-9.4470282"
       y2="16.642857" />
    <linearGradient
       inkscape:collect="always"
       xlink:href="#linearGradient4879"
       id="linearGradient4893"
       gradientUnits="userSpaceOnUse"
       gradientTransform="matrix(1.1245314,0.1966107,-0.1967629,1.1210503,48.849409,11.634089)"
       x1="-11.936553"
       y1="16.497957"
       x2="-9.4470282"
       y2="16.642857" />
    <linearGradient
       inkscape:collect="always"
       xlink:href="#linearGradient4879"
       id="linearGradient4897"
       gradientUnits="userSpaceOnUse"
       gradientTransform="matrix(1.1245314,0.1966107,-0.1967629,1.1210503,50.706552,15.348375)"
       x1="-11.936553"
       y1="16.497957"
       x2="-9.4653893"
       y2="16.90094" />
    <linearGradient
       inkscape:collect="always"
       xlink:href="#linearGradient4879"
       id="linearGradient4901"
       gradientUnits="userSpaceOnUse"
       gradientTransform="matrix(1.1245314,0.1966107,-0.1967629,1.1210503,53.992266,7.0626603)"
       x1="-11.936553"
       y1="16.497957"
       x2="-9.4470282"
       y2="16.642857" />
    <linearGradient
       inkscape:collect="always"
       xlink:href="#linearGradient4879"
       id="linearGradient4905"
       gradientUnits="userSpaceOnUse"
       gradientTransform="matrix(1.1245314,0.1966107,-0.1967629,1.1210503,56.84941,13.348374)"
       x1="-11.936553"
       y1="16.497957"
       x2="-9.4470282"
       y2="16.642857" />
    <linearGradient
       inkscape:collect="always"
       xlink:href="#linearGradient4879"
       id="linearGradient4909"
       gradientUnits="userSpaceOnUse"
       gradientTransform="matrix(1.1245314,0.1966107,-0.1967629,1.1210503,59.135124,17.062659)"
       x1="-11.936553"
       y1="16.497957"
       x2="-9.4470282"
       y2="16.642857" />
  </defs>
  <sodipodi:namedview
     id="base"
     pagecolor="#ffffff"
     bordercolor="#666666"
     borderopacity="1.0"
     inkscape:pageopacity="0.0"
     inkscape:pageshadow="2"
     inkscape:zoom="14"
     inkscape:cx="-10.924217"
     inkscape:cy="21.148549"
     inkscape:current-layer="layer2"
     showgrid="true"
     inkscape:grid-bbox="true"
     inkscape:document-units="px"
     inkscape:window-width="1920"
     inkscape:window-height="1115"
     inkscape:window-x="0"
     inkscape:window-y="56" />
  <metadata
     id="metadata2388">
    <rdf:RDF>
      <cc:Work
         rdf:about="">
        <dc:format>image/svg+xml</dc:format>
        <dc:type
           rdf:resource="http://purl.org/dc/dcmitype/StillImage" />
      </cc:Work>
    </rdf:RDF>
  </metadata>
  <g
     id="layer1"
     inkscape:label="Scalp"
     inkscape:groupmode="layer">
    <path
       style="fill:#000000;fill-opacity:0.25098039;fill-rule:evenodd;stroke:none;stroke-width:1;stroke-linecap:butt;stroke-linejoin:round;stroke-miterlimit:4;stroke-dasharray:none;stroke-opacity:1"
       d="M 0.28571523,47.585623 C 16.082379,42.8643 30.312479,43.026938 47.714284,47.585623 L 37.246449,29.236356 C 27.980702,26.90337 18.773717,26.712605 10.025511,29.236356 L 0.28571523,47.585623 z"
       id="path3173"
       sodipodi:nodetypes="ccccc" />
    <path
       style="fill:#d3d7cf;fill-opacity:1;fill-rule:evenodd;stroke:#555753;stroke-width:1;stroke-linecap:butt;stroke-linejoin:round;stroke-miterlimit:4;stroke-dasharray:none;stroke-opacity:1"
       d="M 0.28571524,44.942765 C 16.08238,40.221442 30.31248,40.38408 47.714285,44.942765 L 37.24645,26.593498 C 27.980703,24.260512 18.773718,24.069747 10.025511,26.593498 L 0.28571524,44.942765 z"
       id="path2393"
       sodipodi:nodetypes="ccccc" />
    <path
       style="fill:none;fill-opacity:1;fill-rule:evenodd;stroke:#ffffff;stroke-width:1;stroke-linecap:butt;stroke-linejoin:miter;stroke-miterlimit:4;stroke-dasharray:none;stroke-opacity:0.50196078"
       d="M 2.2770505,43.29215 C 16.540774,39.273186 29.681774,39.610693 45.672446,43.342657 L 36.655576,27.505844 C 27.979068,25.306876 18.489002,25.115704 10.682176,27.455336 L 2.2770505,43.29215 z"
       id="path3177"
       sodipodi:nodetypes="ccccc" />
  </g>
  <g
     inkscape:groupmode="layer"
     id="layer2"
     inkscape:label="Hairs">
    <path
       style="fill:url(#linearGradient4889);fill-opacity:1;fill-rule:evenodd;stroke:#764a00;stroke-width:0.54346055;stroke-linecap:butt;stroke-linejoin:miter;stroke-miterlimit:4;stroke-dasharray:none;stroke-opacity:1"
       d="M 28.253291,28.642343 C 29.424223,19.790072 30.230927,11.62301 34.869178,4.7123669 C 33.41697,11.718836 30.979618,19.752614 30.004019,28.95268 C 29.298175,29.410178 28.685972,29.438071 28.253291,28.642343 z"
       id="path4887"
       sodipodi:nodetypes="cccc" />
    <path
       sodipodi:nodetypes="ccccc"
       id="path3224"
       d="M -10.779211,23.876045 L -11.231544,17.226519 C -11.218413,16.637094 -10.262061,16.447022 -9.9064446,17.176071 L -9.2684571,23.733382 C -9.3951879,24.545452 -10.500544,24.547041 -10.779211,23.876045 z"
       style="fill:#000000;fill-opacity:1;fill-rule:evenodd;stroke:#764a00;stroke-width:0.50000005999999997;stroke-linecap:butt;stroke-linejoin:miter;stroke-miterlimit:4;stroke-dasharray:none;stroke-opacity:1" />
    <use
       x="0"
       y="0"
       xlink:href="#path3224"
       id="use3287"
       transform="matrix(0.997965,6.3764726e-2,-6.3764726e-2,0.997965,37.270019,3.5411445)"
       width="48"
       height="48" />
    <path
       style="fill:url(#linearGradient4871);fill-opacity:1;fill-rule:evenodd;stroke:#764a00;stroke-width:0.54346055;stroke-linecap:butt;stroke-linejoin:miter;stroke-miterlimit:4;stroke-dasharray:none;stroke-opacity:1"
       d="M 24.024822,28.93961 C 24.44495,21.967993 25.339809,15.55124 28.485947,9.9014959 C 27.755815,15.44869 26.334272,21.852207 26.080266,29.084299 C 25.498786,29.837659 24.465556,29.96492 24.024822,28.93961 z"
       id="path4869"
       sodipodi:nodetypes="cccc" />
    <use
       x="0"
       y="0"
       xlink:href="#path3224"
       id="use3291"
       transform="matrix(0.9882963,0.1525463,-0.1525463,0.9882963,49.558447,6.2306083)"
       width="48"
       height="48" />
    <use
       x="0"
       y="0"
       xlink:href="#path3224"
       id="use3295"
       transform="matrix(-0.9941138,0.1083413,0.1083413,0.9941138,4.585083,4.6004291)"
       width="48"
       height="48" />
    <use
       height="48"
       width="48"
       transform="matrix(-0.9880856,0.1539056,0.1539056,0.9880856,-2.6540898,6.2483381)"
       id="use3297"
       xlink:href="#path3224"
       y="0"
       x="0" />
    <use
       x="0"
       y="0"
       xlink:href="#path3224"
       id="use3301"
       transform="matrix(1.03859,0.1131884,-0.1131884,1.03859,44.059466,6.6872708)"
       width="48"
       height="48" />
    <use
       height="48"
       width="48"
       transform="matrix(-1.03859,0.1131884,0.1131884,1.03859,3.1509983,6.6872708)"
       id="use3305"
       xlink:href="#path3224"
       y="0"
       x="0" />
    <use
       x="0"
       y="0"
       xlink:href="#path3224"
       id="use3307"
       transform="matrix(-1.0209349,0.2217494,0.2217494,1.0209349,-5.4382426,9.2356793)"
       width="48"
       height="48" />
    <use
       x="0"
       y="0"
       xlink:href="#path3224"
       id="use3339"
       transform="matrix(1.0869133,4.1077063e-3,-4.1077063e-3,1.0869133,38.400824,6.9618102)"
       width="48"
       height="48" />
    <use
       height="48"
       width="48"
       transform="matrix(1.0805231,0.1177584,-0.1177584,1.0805231,45.803782,8.8140738)"
       id="use3341"
       xlink:href="#path3224"
       y="0"
       x="0" />
    <path
       style="fill:url(#linearGradient4901);fill-opacity:1;fill-rule:evenodd;stroke:#764a00;stroke-width:0.54346055;stroke-linecap:butt;stroke-linejoin:miter;stroke-miterlimit:4;stroke-dasharray:none;stroke-opacity:1"
       d="M 36.584913,31.285507 C 38.097179,19.995862 39.139042,9.5800933 45.129372,0.76668357 C 43.253836,9.7023038 40.105981,19.948091 38.845989,31.681291 C 37.934388,32.264756 37.143723,32.300329 36.584913,31.285507 z"
       id="path4899"
       sodipodi:nodetypes="cccc" />
    <use
       x="0"
       y="0"
       xlink:href="#path3224"
       id="use3343"
       transform="matrix(1.0621552,0.2307025,-0.2307025,1.0621552,55.188574,11.465374)"
       width="48"
       height="48" />
    <path
       style="fill:url(#linearGradient4851);fill-opacity:1;fill-rule:evenodd;stroke:#764a00;stroke-width:0.54346055;stroke-linecap:butt;stroke-linejoin:miter;stroke-miterlimit:4;stroke-dasharray:none;stroke-opacity:1"
       d="M 17.073462,33.285089 C 16.428815,28.398353 15.217343,23.33065 10.501742,20.02042 C 12.661714,23.807182 14.368379,28.48715 14.851476,33.560682 C 15.455923,34.184274 16.643437,34.212773 17.073462,33.285089 z"
       id="use3345"
       sodipodi:nodetypes="cccc" />
    <use
       height="48"
       width="48"
       transform="matrix(-1.0621552,0.2307025,0.2307025,1.0621552,-7.4781101,11.465374)"
       id="use3347"
       xlink:href="#path3224"
       y="0"
       x="0" />
    <use
       height="48"
       width="48"
       transform="matrix(-1.1308428,0.1232424,0.1232424,1.1308428,-0.3600302,10.951952)"
       id="use3355"
       xlink:href="#path3224"
       y="0"
       x="0" />
    <use
       x="0"
       y="0"
       xlink:href="#path3224"
       id="use3357"
       transform="matrix(-1.1116195,0.2414463,0.2414463,1.1116195,-10.080154,13.726722)"
       width="48"
       height="48" />
    <use
       x="0"
       y="0"
       xlink:href="#path3224"
       id="use3443"
       transform="matrix(-1.1971021,0.1988927,0.1988927,1.1971021,-3.7444746,13.266767)"
       width="48"
       height="48" />
    <use
       height="48"
       width="48"
       transform="matrix(-1.1720674,0.3144359,0.3144359,1.1720674,-14.007135,16.763599)"
       id="use3445"
       xlink:href="#path3224"
       y="0"
       x="0" />
    <use
       height="48"
       width="48"
       transform="matrix(-0.997965,6.3764726e-2,6.3764726e-2,0.997965,10.514832,3.5411445)"
       id="use3447"
       xlink:href="#path3224"
       y="0"
       x="0" />
    <path
       style="fill:url(#linearGradient4855);fill-opacity:1;fill-rule:evenodd;stroke:#764a00;stroke-width:0.54346055;stroke-linecap:butt;stroke-linejoin:miter;stroke-miterlimit:4;stroke-dasharray:none;stroke-opacity:1"
       d="M 22.630077,29.864393 C 22.299257,24.223131 22.15707,19.030852 19.679717,14.459218 C 20.254643,18.947872 20.588288,24.200869 20.7883,30.0529 C 21.332784,30.659224 22.339276,30.34726 22.630077,29.864393 z"
       id="path4853"
       sodipodi:nodetypes="cccc" />
    <use
       height="48"
       width="48"
       transform="matrix(-1.0869133,4.1077063e-3,4.1077063e-3,1.0869133,9.3840269,6.9618102)"
       id="use3451"
       xlink:href="#path3224"
       y="0"
       x="0" />
    <use
       x="0"
       y="0"
       xlink:href="#path3224"
       id="use4873"
       transform="matrix(-1.2016456,0.1692921,0.1692921,1.2016456,5.7484423,9.978762)"
       width="48"
       height="48" />
    <use
       height="48"
       width="48"
       transform="matrix(-1.2016456,0.1692921,0.1692921,1.2016456,4.462728,12.478762)"
       id="use3455"
       xlink:href="#path3224"
       y="0"
       x="0" />
    <use
       height="48"
       width="48"
       transform="matrix(1.0812103,0.1112734,-0.1112734,1.0812103,41.33837,12.118234)"
       id="use4877"
       xlink:href="#path3224"
       y="0"
       x="0" />
    <path
       style="fill:url(#linearGradient4897);fill-opacity:1;fill-rule:evenodd;stroke:#764a00;stroke-width:0.54346055000000004;stroke-linecap:butt;stroke-linejoin:miter;stroke-miterlimit:4;stroke-dasharray:none;stroke-opacity:1"
       d="M 33.299199,39.571221 C 34.811465,28.281577 38.567614,15.365808 46.057944,9.6952551 C 41.182408,17.130876 36.820267,28.233806 35.560275,39.967005 C 34.648674,40.55047 33.858009,40.586043 33.299199,39.571221 z"
       id="path4895"
       sodipodi:nodetypes="cccc" />
    <use
       x="0"
       y="0"
       xlink:href="#path3224"
       id="use2845"
       transform="matrix(1.0812103,0.1112734,-0.1112734,1.0812103,42.766941,14.689663)"
       width="48"
       height="48" />
    <use
       x="0"
       y="0"
       xlink:href="#path3224"
       id="use2847"
       transform="matrix(1.0805231,0.1177584,-0.1177584,1.0805231,46.660925,12.099788)"
       width="48"
       height="48" />
    <use
       height="48"
       width="48"
       transform="matrix(1.0621552,0.2307025,-0.2307025,1.0621552,56.688574,14.822517)"
       id="use2849"
       xlink:href="#path3224"
       y="0"
       x="0" />
    <use
       x="0"
       y="0"
       xlink:href="#path3224"
       id="use2851"
       transform="matrix(1.0621552,0.2307025,-0.2307025,1.0621552,58.760003,18.108231)"
       width="48"
       height="48" />
  </g>
</svg>
