<?xml version="1.0" encoding="UTF-8" standalone="no"?>
<!-- Created with Inkscape (http://www.inkscape.org/) -->
<svg
   xmlns:dc="http://purl.org/dc/elements/1.1/"
   xmlns:cc="http://creativecommons.org/ns#"
   xmlns:rdf="http://www.w3.org/1999/02/22-rdf-syntax-ns#"
   xmlns:svg="http://www.w3.org/2000/svg"
   xmlns="http://www.w3.org/2000/svg"
   xmlns:xlink="http://www.w3.org/1999/xlink"
   xmlns:sodipodi="http://sodipodi.sourceforge.net/DTD/sodipodi-0.dtd"
   xmlns:inkscape="http://www.inkscape.org/namespaces/inkscape"
   width="48px"
   height="48px"
   id="svg2383"
   sodipodi:version="0.32"
   inkscape:version="0.46"
   sodipodi:docname="paint_frizz.svg"
   inkscape:output_extension="org.inkscape.output.svg.inkscape">
  <defs
     id="defs2385">
    <inkscape:perspective
       sodipodi:type="inkscape:persp3d"
       inkscape:vp_x="0 : 24 : 1"
       inkscape:vp_y="0 : 1000 : 0"
       inkscape:vp_z="48 : 24 : 1"
       inkscape:persp3d-origin="24 : 16 : 1"
       id="perspective8843" />
    <linearGradient
       id="linearGradient3359">
      <stop
         style="stop-color:#965e05;stop-opacity:1;"
         offset="0"
         id="stop3361" />
      <stop
         id="stop3367"
         offset="0.5"
         style="stop-color:#e5ac52;stop-opacity:1;" />
      <stop
         style="stop-color:#965e05;stop-opacity:1;"
         offset="1"
         id="stop3363" />
    </linearGradient>
    <linearGradient
       inkscape:collect="always"
       xlink:href="#linearGradient3359"
       id="linearGradient4147"
       gradientUnits="userSpaceOnUse"
       gradientTransform="matrix(-1.1720674,0.3144359,0.3144359,1.1720674,-32.578564,10.835028)"
       x1="-12.052973"
       y1="16.642857"
       x2="-9.4470282"
       y2="16.642857" />
  </defs>
  <sodipodi:namedview
     id="base"
     pagecolor="#ffffff"
     bordercolor="#666666"
     borderopacity="1.0"
     inkscape:pageopacity="0.0"
     inkscape:pageshadow="2"
     inkscape:zoom="16"
     inkscape:cx="9.959712"
     inkscape:cy="21.398549"
     inkscape:current-layer="layer2"
     showgrid="true"
     inkscape:grid-bbox="true"
     inkscape:document-units="px"
     inkscape:window-width="1920"
     inkscape:window-height="1115"
     inkscape:window-x="0"
     inkscape:window-y="56" />
  <metadata
     id="metadata2388">
    <rdf:RDF>
      <cc:Work
         rdf:about="">
        <dc:format>image/svg+xml</dc:format>
        <dc:type
           rdf:resource="http://purl.org/dc/dcmitype/StillImage" />
      </cc:Work>
    </rdf:RDF>
  </metadata>
  <g
     id="layer1"
     inkscape:label="Scalp"
     inkscape:groupmode="layer"
     style="display:inline">
    <path
       style="fill:#000000;fill-opacity:0.25098039;fill-rule:evenodd;stroke:none;stroke-width:1;stroke-linecap:round;stroke-linejoin:round;stroke-miterlimit:4;stroke-dasharray:none;stroke-opacity:1"
       d="M 0.28571523,47.782052 C 16.082379,43.060729 30.312479,43.223367 47.714284,47.782052 L 37.246449,29.432785 C 27.980702,27.099799 18.773717,26.909034 10.025511,29.432785 L 0.28571523,47.782052 z"
       id="path3173"
       sodipodi:nodetypes="ccccc" />
    <path
       style="fill:#d3d7cf;fill-opacity:1;fill-rule:evenodd;stroke:#555753;stroke-width:1;stroke-linecap:round;stroke-linejoin:round;stroke-miterlimit:4;stroke-dasharray:none;stroke-opacity:1"
       d="M 0.28571524,45.139194 C 16.08238,40.417871 30.31248,40.580509 47.714285,45.139194 L 37.24645,26.789927 C 27.980703,24.456941 18.773718,24.266176 10.025511,26.789927 L 0.28571524,45.139194 z"
       id="path2393"
       sodipodi:nodetypes="ccccc" />
    <path
       style="fill:none;fill-opacity:1;fill-rule:evenodd;stroke:#ffffff;stroke-width:1;stroke-linecap:round;stroke-linejoin:miter;stroke-miterlimit:4;stroke-dasharray:none;stroke-opacity:0.50196078"
       d="M 2.2770505,43.488579 C 16.540774,39.469615 29.681774,39.807122 45.672446,43.539086 L 36.655576,27.702273 C 27.979068,25.503305 18.489002,25.312133 10.682176,27.651765 L 2.2770505,43.488579 z"
       id="path3177"
       sodipodi:nodetypes="ccccc" />
  </g>
  <g
     inkscape:groupmode="layer"
     id="layer2"
     inkscape:label="Hairs"
     style="display:inline">
    <path
       style="fill:url(#linearGradient4147);fill-opacity:1;fill-rule:evenodd;stroke:#764a00;stroke-width:0.60675621;stroke-linecap:butt;stroke-linejoin:miter;stroke-miterlimit:4;stroke-dasharray:none;stroke-opacity:1"
       d="M -11.854803,34.924379 L -15.632065,18.726111 C -16.560216,18.004102 -17.469374,17.756022 -18.3062,19.312931 L -14.211417,35.5571 C -13.190974,36.091103 -12.350437,36.054609 -11.854803,34.924379 z"
       id="use3445"
       sodipodi:nodetypes="ccccc" />
    <path
       style="fill:#000000;fill-opacity:1;fill-rule:evenodd;stroke:#764a00;stroke-width:0.50000000000000000;stroke-linecap:round;stroke-linejoin:miter;stroke-miterlimit:4;stroke-dasharray:none;stroke-opacity:1"
       d="M 15.28125,12.28125 C 15.024836,12.279336 14.785212,12.408541 14.645911,12.623825 C 14.50661,12.839108 14.486937,13.110635 14.59375,13.34375 L 16.15625,17.21875 L 15.1875,22.625 L 15.15625,22.8125 L 15.21875,22.96875 L 16.5,27.625 C 16.551883,27.904715 16.757542,28.131004 17.031039,28.209308 C 17.304536,28.287612 17.598792,28.204452 17.790848,27.994579 C 17.982903,27.784706 18.039698,27.484245 17.9375,27.21875 L 16.6875,22.6875 L 17.65625,17.25 L 17.71875,17.03125 L 17.625,16.84375 L 15.96875,12.78125 C 15.865265,12.488274 15.591858,12.289432 15.28125,12.28125 z"
       id="path4113" />
    <path
       style="fill:#000000;fill-opacity:1;fill-rule:evenodd;stroke:#764a00;stroke-width:0.50000000000000000;stroke-linecap:round;stroke-linejoin:miter;stroke-miterlimit:4;stroke-dasharray:none;stroke-opacity:1"
       d="M 37.28125,13.09375 C 37.012597,13.145068 36.793175,13.338549 36.708637,13.598666 C 36.624099,13.858784 36.687848,14.144296 36.875,14.34375 L 37.75,15.28125 L 35.03125,17.0625 L 34.34375,17.5 L 34.84375,18.15625 L 36.34375,20.09375 L 35.1875,19.8125 L 33.21875,19.34375 L 34.40625,21 L 36.625,24.09375 L 34.4375,24.46875 L 32.34375,24.8125 L 34.21875,25.84375 L 36.46875,27.125 L 34.5,30.46875 C 34.316681,30.698437 34.28438,31.014021 34.417369,31.276083 C 34.550357,31.538144 34.824133,31.698404 35.117748,31.686061 C 35.411364,31.673718 35.670724,31.491048 35.78125,31.21875 L 38.15625,27.21875 L 38.53125,26.5625 L 37.875,26.1875 L 36.8125,25.59375 L 38.0625,25.375 L 39.25,25.15625 L 38.53125,24.1875 L 36.78125,21.75 L 38.03125,22.0625 L 40.09375,22.5625 L 38.8125,20.875 L 36.5,17.875 L 39.34375,16.03125 L 40.09375,15.53125 L 39.46875,14.90625 L 37.96875,13.3125 C 37.792002,13.126922 37.532739,13.044429 37.28125,13.09375 z"
       id="path4139" />
    <path
       style="fill:#000000;fill-opacity:1;fill-rule:evenodd;stroke:#764a00;stroke-width:0.50000000000000000;stroke-linecap:round;stroke-linejoin:miter;stroke-miterlimit:4;stroke-dasharray:none;stroke-opacity:1"
       d="M 1.3125,23.875 C 1.1159269,23.926009 0.94843846,24.054546 0.84831575,24.231233 C 0.74819305,24.40792 0.72399417,24.617655 0.78125,24.8125 L 4.84375,41.8125 C 4.9473034,42.218084 5.3600409,42.462928 5.765625,42.359375 C 6.1712091,42.255822 6.4160534,41.843084 6.3125,41.4375 L 2.21875,24.4375 C 2.1741699,24.242149 2.0532815,24.072756 1.8830366,23.967087 C 1.7127917,23.861418 1.5073448,23.828258 1.3125,23.875 L 1.3125,23.875 z"
       id="path4141" />
    <path
       style="fill:#000000;fill-opacity:1;fill-rule:evenodd;stroke:#764a00;stroke-width:0.50000000000000000;stroke-linecap:round;stroke-linejoin:miter;stroke-miterlimit:4;stroke-dasharray:none;stroke-opacity:1"
       d="M 5.90625,18.4375 C 5.7108992,18.48208 5.5415062,18.602969 5.4358369,18.773213 C 5.3301677,18.943458 5.2970077,19.148905 5.34375,19.34375 L 8.40625,34.625 C 8.4372008,34.905492 8.6229617,35.144875 8.8869833,35.244505 C 9.1510048,35.344135 9.4486024,35.287148 9.6571401,35.097028 C 9.8656778,34.906909 9.9498614,34.615833 9.875,34.34375 L 6.8125,19.0625 C 6.7826999,18.855662 6.667963,18.670632 6.495933,18.551991 C 6.3239029,18.43335 6.1101777,18.391853 5.90625,18.4375 z"
       id="path4143" />
    <path
       style="fill:#000000;fill-opacity:1;fill-rule:evenodd;stroke:#764a00;stroke-width:0.50000000000000000;stroke-linecap:round;stroke-linejoin:miter;stroke-miterlimit:4;stroke-dasharray:none;stroke-opacity:1"
       d="M 9.21875,13.21875 C 8.8139368,13.297585 8.5487069,13.68845 8.625,14.09375 L 10.75,28.375 C 10.810406,28.789214 11.195161,29.076031 11.609375,29.015625 C 12.023589,28.955219 12.310406,28.570464 12.25,28.15625 L 10.09375,13.875 C 10.070947,13.6691 9.9640047,13.481799 9.798278,13.357504 C 9.6325512,13.233209 9.4227984,13.182989 9.21875,13.21875 z"
       id="path4145" />
    <path
       style="fill:#000000;fill-opacity:1;fill-rule:evenodd;stroke:#764a00;stroke-width:0.50000000000000000;stroke-linecap:round;stroke-linejoin:miter;stroke-miterlimit:4;stroke-dasharray:none;stroke-opacity:1"
       d="M 14.40625,16.875 C 14.076289,16.944637 13.833365,17.225916 13.8125,17.5625 L 13.25,23.25 L 13.25,23.4375 L 13.28125,23.59375 L 15.375,29.59375 L 15.03125,33.5625 C 14.996732,33.976714 15.304536,34.340482 15.71875,34.375 C 16.132964,34.409518 16.496732,34.101714 16.53125,33.6875 L 16.875,29.53125 L 16.90625,29.375 L 16.84375,29.25 L 14.78125,23.21875 L 15.3125,17.6875 C 15.338151,17.447713 15.246946,17.210216 15.067389,17.049234 C 14.887832,16.888252 14.641825,16.82342 14.40625,16.875 L 14.40625,16.875 z"
       id="path4111" />
    <path
       style="fill:#000000;fill-opacity:1;fill-rule:evenodd;stroke:#764a00;stroke-width:0.50000000000000000;stroke-linecap:round;stroke-linejoin:miter;stroke-miterlimit:4;stroke-dasharray:none;stroke-opacity:1"
       d="M 25.03125,11.4375 C 24.812136,11.468126 24.61772,11.593925 24.5,11.78125 L 21.3125,16.71875 L 21.03125,17.15625 L 21.3125,17.5625 L 25.625,23.59375 L 23.5625,26.15625 C 23.353093,26.357336 23.278533,26.661208 23.371083,26.936383 C 23.463632,27.211558 23.706667,27.408614 23.99503,27.442286 C 24.283392,27.475958 24.565291,27.340199 24.71875,27.09375 L 27.15625,24.09375 L 27.5,23.65625 L 27.1875,23.1875 L 22.84375,17.125 L 25.78125,12.59375 C 25.947857,12.344572 25.950118,12.020128 25.786999,11.768653 C 25.62388,11.517178 25.326705,11.386962 25.03125,11.4375 z"
       id="path4121" />
    <path
       style="fill:#000000;fill-opacity:1;fill-rule:evenodd;stroke:#764a00;stroke-width:0.50000000000000000;stroke-linecap:round;stroke-linejoin:miter;stroke-miterlimit:4;stroke-dasharray:none;stroke-opacity:1"
       d="M 23.625,16.15625 C 23.405705,16.209552 23.222064,16.35876 23.125,16.5625 L 20.1875,22.0625 L 19.96875,22.46875 L 20.25,22.84375 L 24.5625,28.96875 L 22.0625,32.25 C 21.869858,32.459335 21.812222,32.759636 21.913677,33.025416 C 22.015132,33.291196 22.258213,33.476705 22.541345,33.504426 C 22.824477,33.532146 23.098923,33.397306 23.25,33.15625 L 26.09375,29.4375 L 26.4375,29 L 26.125,28.5625 L 21.75,22.34375 L 24.4375,17.25 C 24.5779,16.993106 24.556006,16.678002 24.381428,16.442993 C 24.20685,16.207984 23.911495,16.096022 23.625,16.15625 z"
       id="path4119" />
    <path
       style="fill:#000000;fill-opacity:1;fill-rule:evenodd;stroke:#764a00;stroke-width:0.50000000000000000;stroke-linecap:round;stroke-linejoin:miter;stroke-miterlimit:4;stroke-dasharray:none;stroke-opacity:1"
       d="M 31.34375,11.875 C 31.253321,11.900635 31.168515,11.943038 31.09375,12 L 27.59375,14.28125 L 26.71875,14.84375 L 27.53125,15.5 L 31.34375,18.625 L 28.875,19.875 L 28.15625,20.25 L 28.5625,20.9375 C 28.5625,20.9375 29.168949,21.964823 29.84375,23.0625 C 30.18115,23.611338 30.537121,24.194584 30.84375,24.65625 C 30.997064,24.887083 31.154552,25.078904 31.28125,25.25 C 31.106006,25.420166 30.857837,25.656232 30.5625,25.875 C 29.87511,26.384178 29.09375,26.84375 29.09375,26.84375 C 28.739943,27.068116 28.635009,27.536818 28.859375,27.890625 C 29.083741,28.244432 29.552443,28.349366 29.90625,28.125 C 29.90625,28.125 30.709711,27.624751 31.46875,27.0625 C 31.848269,26.781375 32.211864,26.497139 32.5,26.1875 C 32.644068,26.032681 32.773396,25.875103 32.875,25.625 C 32.925802,25.499949 32.962155,25.333845 32.9375,25.125 C 32.912845,24.916155 32.7827,24.697671 32.625,24.5625 C 32.675272,24.60559 32.570568,24.481247 32.46875,24.34375 C 32.366932,24.206253 32.238427,24.030328 32.09375,23.8125 C 31.804397,23.376844 31.457242,22.821698 31.125,22.28125 C 30.670806,21.542428 30.505413,21.222518 30.28125,20.84375 L 33.0625,19.4375 L 34.0625,18.90625 L 33.1875,18.1875 L 29.25,14.96875 L 31.90625,13.25 C 32.22938,13.061683 32.36441,12.6641 32.222801,12.317945 C 32.081192,11.97179 31.706219,11.782845 31.34375,11.875 z"
       id="path4133" />
    <path
       style="fill:#000000;fill-opacity:1;fill-rule:evenodd;stroke:#764a00;stroke-width:0.50000000000000000;stroke-linecap:round;stroke-linejoin:miter;stroke-miterlimit:4;stroke-dasharray:none;stroke-opacity:1"
       d="M 33.5625,17.4375 C 33.352848,17.480345 33.171478,17.610695 33.064028,17.795746 C 32.956579,17.980798 32.933282,18.202932 33,18.40625 L 34.3125,22.875 L 29.96875,27.3125 L 29.3125,28 L 30.125,28.46875 L 33.28125,30.40625 L 31.40625,33.75 C 31.199143,34.112437 31.325063,34.574143 31.6875,34.78125 C 32.049937,34.988357 32.511643,34.862437 32.71875,34.5 L 34.9375,30.5 L 35.28125,29.84375 L 34.6875,29.46875 L 31.71875,27.6875 L 35.6875,23.65625 L 36,23.34375 L 35.875,22.90625 L 34.4375,18 C 34.344335,17.607863 33.957924,17.359456 33.5625,17.4375 z"
       id="path4131" />
    <path
       style="fill:#000000;fill-opacity:1;fill-rule:evenodd;stroke:#764a00;stroke-width:0.50000000000000000;stroke-linecap:round;stroke-linejoin:miter;stroke-miterlimit:4;stroke-dasharray:none;stroke-opacity:1"
       d="M 41.96875,18.59375 C 41.925229,18.610648 41.883381,18.631572 41.84375,18.65625 L 37.71875,20.4375 L 35.96875,21.1875 L 37.75,21.84375 L 41.1875,23.0625 L 38.59375,24.0625 L 37.75,24.375 L 38.21875,25.15625 L 40.1875,28.4375 L 38.125,28.65625 L 36.96875,28.78125 L 37.5625,29.78125 L 39.4375,32.9375 L 37.71875,34.15625 C 37.382201,34.397875 37.30525,34.866576 37.546875,35.203125 C 37.7885,35.539674 38.257201,35.616625 38.59375,35.375 L 40.875,33.71875 L 41.4375,33.34375 L 41.0625,32.75 L 39.4375,30.03125 L 41.5,29.8125 L 42.6875,29.65625 L 42.0625,28.65625 L 39.96875,25.15625 L 43.625,23.75 L 45.53125,23.03125 L 43.625,22.34375 L 40.0625,21.0625 L 42.4375,20.03125 C 42.834455,19.901808 43.051317,19.47508 42.921875,19.078125 C 42.792433,18.68117 42.365705,18.464308 41.96875,18.59375 z"
       id="path4137" />
    <path
       style="fill:#000000;fill-opacity:1;fill-rule:evenodd;stroke:#764a00;stroke-width:0.50000000000000000;stroke-linecap:round;stroke-linejoin:miter;stroke-miterlimit:4;stroke-dasharray:none;stroke-opacity:1"
       d="M 46.5625,23.59375 C 46.157687,23.672585 45.892457,24.06345 45.96875,24.46875 L 45.96875,26.84375 L 43.84375,27.59375 L 43.03125,27.75 L 43.28125,28.5625 L 44.53125,32.5 L 42.84375,32.90625 L 41.5625,33.1875 L 42.4375,34.125 L 43.65625,35.40625 L 40.875,36.8125 L 39.90625,37.3125 L 40.71875,38.03125 C 40.71875,38.03125 41.456098,38.728369 42.25,39.46875 C 42.764974,39.949007 43.049939,40.226137 43.40625,40.5625 C 43.269698,40.623674 43.18488,40.688918 43.03125,40.75 C 42.323956,41.031213 41.5625,41.28125 41.5625,41.28125 C 41.261843,41.3145 41.010582,41.525092 40.925301,41.815311 C 40.84002,42.105531 40.937411,42.418574 41.172285,42.60919 C 41.407159,42.799806 41.733545,42.830685 42,42.6875 C 42,42.6875 42.8189,42.433073 43.59375,42.125 C 43.981175,41.970964 44.342208,41.809983 44.65625,41.625 C 44.813271,41.532508 44.963068,41.473735 45.125,41.28125 C 45.205966,41.185007 45.313395,41.021751 45.34375,40.78125 C 45.374105,40.540749 45.244235,40.244235 45.09375,40.09375 C 44.862148,39.862148 44.076633,39.116762 43.28125,38.375 C 42.883558,38.004119 42.787033,37.923179 42.5,37.65625 L 45.1875,36.28125 L 46.09375,35.84375 L 45.40625,35.125 L 44.4375,34.0625 L 45.65625,33.78125 L 46.46875,33.59375 L 46.21875,32.8125 L 44.96875,28.90625 L 47,28.1875 L 47.75,28.03125 L 47.59375,27.3125 L 47.4375,24.1875 C 47.358665,23.782687 46.9678,23.517457 46.5625,23.59375 z"
       id="path4135"
       sodipodi:nodetypes="ccccccccccccccscscsscsssssscccccccccccccc" />
    <path
       style="fill:#000000;fill-opacity:1;fill-rule:evenodd;stroke:#764a00;stroke-width:0.50000000000000000;stroke-linecap:round;stroke-linejoin:miter;stroke-miterlimit:4;stroke-dasharray:none;stroke-opacity:1"
       d="M 37.1875,22.21875 C 37.001434,22.250198 36.834059,22.350623 36.71875,22.5 L 33.5,26.4375 L 33.03125,27 L 33.5625,27.46875 L 37.21875,30.75 L 32.28125,34.21875 L 31.5,34.78125 L 32.21875,35.40625 L 35.8125,38.46875 L 33.6875,40.1875 C 33.441051,40.340959 33.305292,40.622858 33.338964,40.91122 C 33.372636,41.199583 33.569692,41.442618 33.844867,41.535167 C 34.120042,41.627717 34.423914,41.553157 34.625,41.34375 L 37.46875,39.0625 L 38.1875,38.5 L 37.5,37.90625 L 33.9375,34.90625 L 38.84375,31.46875 L 39.625,30.90625 L 38.9375,30.28125 L 35.09375,26.84375 L 37.875,23.46875 C 38.097273,23.231822 38.141757,22.878735 37.985197,22.594079 C 37.828636,22.309423 37.506622,22.157911 37.1875,22.21875 z"
       id="path4129" />
    <path
       style="fill:#000000;fill-opacity:1;fill-rule:evenodd;stroke:#764a00;stroke-width:0.50000000000000000;stroke-linecap:round;stroke-linejoin:miter;stroke-miterlimit:4;stroke-dasharray:none;stroke-opacity:1"
       d="M 21.75,20.9375 C 21.446275,20.979624 21.198774,21.202375 21.125,21.5 L 18.84375,29.71875 L 18.71875,30.1875 L 19.09375,30.46875 L 23.84375,34.53125 L 22.21875,39.625 C 22.097938,40.021955 22.321795,40.441688 22.71875,40.5625 C 23.115705,40.683312 23.535438,40.459455 23.65625,40.0625 L 25.4375,34.5 L 25.59375,34.03125 L 25.1875,33.6875 L 20.40625,29.65625 L 22.59375,21.90625 C 22.674358,21.656025 22.618084,21.381862 22.445424,21.183623 C 22.272764,20.985384 22.008922,20.892005 21.75,20.9375 z"
       id="path4115" />
    <path
       style="fill:#000000;fill-opacity:1;fill-rule:evenodd;stroke:#764a00;stroke-width:0.50000000000000000;stroke-linecap:round;stroke-linejoin:miter;stroke-miterlimit:4;stroke-dasharray:none;stroke-opacity:1"
       d="M 11.40625,21.65625 C 11.076289,21.725887 10.833365,22.007166 10.8125,22.34375 L 10.25,28.90625 L 10.25,29.09375 L 10.3125,29.28125 L 12.6875,34.75 L 12.53125,39.8125 C 12.513991,40.226714 12.835786,40.576491 13.25,40.59375 C 13.664214,40.611009 14.013991,40.289214 14.03125,39.875 L 14.1875,34.65625 L 14.1875,34.46875 L 14.125,34.34375 L 11.78125,28.875 L 12.3125,22.46875 C 12.338151,22.228963 12.246946,21.991466 12.067389,21.830484 C 11.887832,21.669502 11.641825,21.60467 11.40625,21.65625 z"
       id="path4109" />
  </g>
</svg>
