<?xml version="1.0" encoding="UTF-8" standalone="no"?>
<!-- Created with Inkscape (http://www.inkscape.org/) -->
<svg
   xmlns:dc="http://purl.org/dc/elements/1.1/"
   xmlns:cc="http://creativecommons.org/ns#"
   xmlns:rdf="http://www.w3.org/1999/02/22-rdf-syntax-ns#"
   xmlns:svg="http://www.w3.org/2000/svg"
   xmlns="http://www.w3.org/2000/svg"
   xmlns:xlink="http://www.w3.org/1999/xlink"
   xmlns:sodipodi="http://sodipodi.sourceforge.net/DTD/sodipodi-0.dtd"
   xmlns:inkscape="http://www.inkscape.org/namespaces/inkscape"
   width="48px"
   height="48px"
   id="svg2383"
   sodipodi:version="0.32"
   inkscape:version="0.46"
   sodipodi:docname="paint_clumping.svg"
   inkscape:output_extension="org.inkscape.output.svg.inkscape">
  <defs
     id="defs2385">
    <linearGradient
       id="linearGradient3359">
      <stop
         style="stop-color:#965e05;stop-opacity:1;"
         offset="0"
         id="stop3361" />
      <stop
         id="stop3367"
         offset="0.5"
         style="stop-color:#e5ac52;stop-opacity:1;" />
      <stop
         style="stop-color:#965e05;stop-opacity:1;"
         offset="1"
         id="stop3363" />
    </linearGradient>
    <linearGradient
       id="linearGradient3165">
      <stop
         style="stop-color:#f3bf6c;stop-opacity:1;"
         offset="0"
         id="stop3167" />
      <stop
         style="stop-color:#c17d11;stop-opacity:1;"
         offset="1"
         id="stop3169" />
    </linearGradient>
    <inkscape:perspective
       sodipodi:type="inkscape:persp3d"
       inkscape:vp_x="0 : 24 : 1"
       inkscape:vp_y="0 : 1000 : 0"
       inkscape:vp_z="48 : 24 : 1"
       inkscape:persp3d-origin="24 : 16 : 1"
       id="perspective2391" />
    <linearGradient
       inkscape:collect="always"
       xlink:href="#linearGradient3359"
       id="linearGradient3435"
       gradientUnits="userSpaceOnUse"
       x1="-12.052973"
       y1="16.642857"
       x2="-9.4470282"
       y2="16.642857" />
  </defs>
  <sodipodi:namedview
     id="base"
     pagecolor="#ffffff"
     bordercolor="#666666"
     borderopacity="1.0"
     inkscape:pageopacity="0.0"
     inkscape:pageshadow="2"
     inkscape:zoom="14"
     inkscape:cx="10.647212"
     inkscape:cy="21.148549"
     inkscape:current-layer="layer2"
     showgrid="true"
     inkscape:grid-bbox="true"
     inkscape:document-units="px"
     inkscape:window-width="1920"
     inkscape:window-height="1115"
     inkscape:window-x="-4"
     inkscape:window-y="-4" />
  <metadata
     id="metadata2388">
    <rdf:RDF>
      <cc:Work
         rdf:about="">
        <dc:format>image/svg+xml</dc:format>
        <dc:type
           rdf:resource="http://purl.org/dc/dcmitype/StillImage" />
      </cc:Work>
    </rdf:RDF>
  </metadata>
  <g
     id="layer1"
     inkscape:label="Scalp"
     inkscape:groupmode="layer"
     sodipodi:insensitive="true">
    <path
       style="fill:#000000;fill-opacity:0.25098039;fill-rule:evenodd;stroke:none;stroke-width:1;stroke-linecap:butt;stroke-linejoin:round;stroke-miterlimit:4;stroke-dasharray:none;stroke-opacity:1"
       d="M 0.28571523,44.657052 C 16.082379,39.935729 30.312479,40.098367 47.714284,44.657052 L 37.246449,26.307785 C 27.980702,23.974799 18.773717,23.784034 10.025511,26.307785 L 0.28571523,44.657052 z"
       id="path3173"
       sodipodi:nodetypes="ccccc" />
    <path
       style="fill:#d3d7cf;fill-opacity:1;fill-rule:evenodd;stroke:#555753;stroke-width:1;stroke-linecap:butt;stroke-linejoin:round;stroke-miterlimit:4;stroke-dasharray:none;stroke-opacity:1"
       d="M 0.28571524,42.014194 C 16.08238,37.292871 30.31248,37.455509 47.714285,42.014194 L 37.24645,23.664927 C 27.980703,21.331941 18.773718,21.141176 10.025511,23.664927 L 0.28571524,42.014194 z"
       id="path2393"
       sodipodi:nodetypes="ccccc" />
    <path
       style="fill:none;fill-opacity:1;fill-rule:evenodd;stroke:#ffffff;stroke-width:1;stroke-linecap:butt;stroke-linejoin:miter;stroke-miterlimit:4;stroke-dasharray:none;stroke-opacity:0.50196078"
       d="M 2.2770505,40.363579 C 16.540774,36.344615 29.681774,36.682122 45.672446,40.414086 L 36.655576,24.577273 C 27.979068,22.378305 18.489002,22.187133 10.682176,24.526765 L 2.2770505,40.363579 z"
       id="path3177"
       sodipodi:nodetypes="ccccc" />
  </g>
  <g
     inkscape:groupmode="layer"
     id="layer2"
     inkscape:label="Hairs">
    <path
       style="fill:#000000;fill-opacity:1;fill-rule:evenodd;stroke:#8f5902;stroke-width:0.50000000000000000;stroke-linecap:round;stroke-linejoin:miter;stroke-miterlimit:4;stroke-dasharray:none;stroke-opacity:1"
       d="M 9.1875,10.5 C 9.0096361,10.506886 8.8431441,10.589275 8.7297811,10.726504 C 8.616418,10.863733 8.5669377,11.042784 8.59375,11.21875 L 10.65625,25.9375 C 10.699397,26.282678 11.014197,26.527522 11.359375,26.484375 C 11.704553,26.441228 11.949397,26.126428 11.90625,25.78125 L 9.84375,11.0625 C 9.8107689,10.729599 9.521529,10.481679 9.1875,10.5 L 9.1875,10.5 z"
       id="path6170" />
    <path
       style="fill:#000000;fill-opacity:1;fill-rule:evenodd;stroke:#8f5902;stroke-width:0.50000000000000000;stroke-linecap:round;stroke-linejoin:miter;stroke-miterlimit:4;stroke-dasharray:none;stroke-opacity:1"
       d="M 12.71875,10.59375 C 12.542785,10.629226 12.390564,10.738641 12.300861,10.894126 C 12.211158,11.049612 12.192631,11.236158 12.25,11.40625 L 16.6875,24.5625 C 16.799683,24.890419 17.156456,25.065308 17.484375,24.953125 C 17.812294,24.840942 17.987183,24.484169 17.875,24.15625 L 13.4375,11 C 13.33416,10.703111 13.026403,10.529161 12.71875,10.59375 z"
       id="path6172" />
    <path
       style="fill:#000000;fill-opacity:1;fill-rule:evenodd;stroke:#8f5902;stroke-width:0.50000000000000000;stroke-linecap:round;stroke-linejoin:miter;stroke-miterlimit:4;stroke-dasharray:none;stroke-opacity:1"
       d="M 35.0625,12.15625 C 34.85724,12.208767 34.692557,12.361687 34.625,12.5625 C 32.922738,16.840647 31.21806,21.017483 28.6875,23.875 C 28.507807,24.036821 28.437574,24.287774 28.507164,24.519362 C 28.576755,24.750949 28.773684,24.921621 29.012812,24.957589 C 29.251939,24.993557 29.490362,24.888369 29.625,24.6875 C 32.366192,21.592137 34.076251,17.316275 35.78125,13.03125 C 35.885824,12.812297 35.854235,12.552607 35.700219,12.36511 C 35.546204,12.177613 35.297593,12.09619 35.0625,12.15625 z"
       id="path6202" />
    <path
       style="fill:#000000;fill-opacity:1;fill-rule:evenodd;stroke:#8f5902;stroke-width:0.5;stroke-linecap:round;stroke-linejoin:miter;stroke-miterlimit:4;stroke-dasharray:none;stroke-opacity:1"
       d="M 35.830357,12.308035 C 35.581457,12.385905 35.407063,12.610126 35.392857,12.870535 C 34.691399,18.960754 36.514249,24.605454 37.174107,30.276785 C 37.149302,30.528974 37.279213,30.771185 37.503022,30.890029 C 37.726832,31.008873 38.000248,30.98083 38.195274,30.819029 C 38.390299,30.657228 38.468338,30.393688 38.392857,30.151785 C 37.714077,24.317826 35.949,18.748442 36.611607,12.995535 C 36.63963,12.788266 36.562129,12.580717 36.405114,12.442544 C 36.248099,12.304371 36.032381,12.253887 35.830357,12.308035 L 35.830357,12.308035 z"
       id="path6216" />
    <path
       style="fill:#000000;fill-opacity:1;fill-rule:evenodd;stroke:#8f5902;stroke-width:0.49999997;stroke-linecap:round;stroke-linejoin:miter;stroke-miterlimit:4;stroke-dasharray:none;stroke-opacity:1"
       d="M 40.413105,16.750823 C 40.052191,16.768364 39.736406,17.0549 39.683109,17.413208 C 38.740553,23.182606 39.203494,28.741477 40.782747,34.077433 C 40.840623,34.323668 41.035372,34.503847 41.288189,34.545052 C 41.541005,34.586259 41.81003,34.481671 41.986397,34.273614 C 42.162766,34.065555 42.217276,33.788475 42.127869,33.554497 C 40.596856,28.381528 40.163687,23.068513 41.070515,17.517796 C 41.111471,17.314903 41.062241,17.113126 40.935791,16.965602 C 40.809339,16.818078 40.618345,16.739595 40.413105,16.750823 z"
       id="path6218" />
    <path
       style="fill:#000000;fill-opacity:1;fill-rule:evenodd;stroke:#8f5902;stroke-width:0.50000000000000000;stroke-linecap:round;stroke-linejoin:miter;stroke-miterlimit:4;stroke-dasharray:none;stroke-opacity:1"
       d="M 25.5,11.28125 C 25.328316,11.288982 25.16739,11.367061 25.055061,11.497126 C 24.942731,11.627192 24.888909,11.79777 24.90625,11.96875 C 25.206503,17.817998 26.615808,23.936137 29.28125,28.25 C 29.393129,28.451082 29.606442,28.574432 29.836529,28.571094 C 30.066615,28.567756 30.27626,28.438269 30.382258,28.234026 C 30.488256,28.029783 30.473463,27.783817 30.34375,27.59375 C 27.855519,23.566694 26.448369,17.59702 26.15625,11.90625 C 26.156446,11.734936 26.08632,11.57105 25.962265,11.452902 C 25.838211,11.334755 25.671101,11.272702 25.5,11.28125 L 25.5,11.28125 z"
       id="path12214" />
    <path
       style="fill:#000000;fill-opacity:1;fill-rule:evenodd;stroke:#8f5902;stroke-width:0.50000000000000000;stroke-linecap:round;stroke-linejoin:miter;stroke-miterlimit:4;stroke-dasharray:none;stroke-opacity:1"
       d="M 20.8125,11.375 C 20.561287,11.437884 20.374865,11.649162 20.34375,11.90625 C 19.502098,16.72542 19.622619,22.841488 16.65625,27.53125 C 16.526537,27.721317 16.511744,27.967283 16.617742,28.171526 C 16.72374,28.375769 16.933385,28.505256 17.163471,28.508594 C 17.393558,28.511932 17.606871,28.388582 17.71875,28.1875 C 20.950409,23.078322 20.7883,16.705636 21.59375,12.09375 C 21.633992,11.88152 21.561802,11.663554 21.402832,11.517302 C 21.243863,11.37105 21.020647,11.317243 20.8125,11.375 L 20.8125,11.375 z"
       id="path12216" />
    <path
       style="fill:#000000;fill-opacity:1;fill-rule:evenodd;stroke:#8f5902;stroke-width:0.50000000000000000;stroke-linecap:round;stroke-linejoin:miter;stroke-miterlimit:4;stroke-dasharray:none;stroke-opacity:1"
       d="M 23.96875,11.9375 C 23.80266,11.953288 23.649775,12.034819 23.544127,12.163944 C 23.438478,12.29307 23.388836,12.459073 23.40625,12.625 C 23.889003,16.974787 23.542783,21.196908 25.5625,24.9375 C 25.655548,25.15599 25.864373,25.30288 26.101454,25.316607 C 26.338535,25.330334 26.562917,25.208527 26.68056,25.002235 C 26.798203,24.795944 26.788784,24.540805 26.65625,24.34375 C 24.857562,21.012513 25.155123,16.995029 24.65625,12.5 C 24.640462,12.33391 24.558931,12.181025 24.429806,12.075377 C 24.30068,11.969728 24.134677,11.920086 23.96875,11.9375 L 23.96875,11.9375 z"
       id="path12218" />
    <path
       style="fill:#000000;fill-opacity:1;fill-rule:evenodd;stroke:#8f5902;stroke-width:0.50000000000000000;stroke-linecap:round;stroke-linejoin:miter;stroke-miterlimit:4;stroke-dasharray:none;stroke-opacity:1"
       d="M 22.59375,10.15625 C 22.321877,10.226419 22.130157,10.469265 22.125,10.75 C 21.816205,14.751106 21.979049,20.399528 20.65625,23.9375 C 20.535438,24.265419 20.703331,24.629188 21.03125,24.75 C 21.359169,24.870812 21.722938,24.702919 21.84375,24.375 C 23.325413,20.412129 23.076635,14.709704 23.375,10.84375 C 23.403023,10.636481 23.325522,10.428932 23.168507,10.290759 C 23.011492,10.152586 22.795774,10.102102 22.59375,10.15625 z"
       id="path12220" />
    <path
       style="fill:#000000;fill-opacity:1;fill-rule:evenodd;stroke:#8f5902;stroke-width:0.5;stroke-linecap:round;stroke-linejoin:miter;stroke-miterlimit:4;stroke-dasharray:none;stroke-opacity:1"
       d="M 34.986607,13.508929 C 34.689989,13.553725 34.467021,13.802925 34.455357,14.102679 C 34.174852,18.87484 33.705527,23.77741 35.705357,28.727679 C 35.779059,28.948401 35.969273,29.109909 36.199025,29.146845 C 36.428777,29.183782 36.660027,29.090031 36.799197,28.903532 C 36.938367,28.717033 36.962414,28.468663 36.861607,28.258929 C 34.994733,23.63777 35.423259,18.964445 35.705357,14.165179 C 35.716981,13.976467 35.642563,13.792634 35.502937,13.66515 C 35.363312,13.537666 35.173486,13.480233 34.986607,13.508929 z"
       id="path6214" />
    <path
       style="fill:#000000;fill-opacity:1;fill-rule:evenodd;stroke:#8f5902;stroke-width:0.50000000000000000;stroke-linecap:round;stroke-linejoin:miter;stroke-miterlimit:4;stroke-dasharray:none;stroke-opacity:1"
       d="M 35.21875,13 C 34.961662,13.031115 34.750384,13.217537 34.6875,13.46875 C 33.247199,18.119461 32.832461,22.59676 29.96875,27.03125 C 29.839037,27.221317 29.824244,27.467283 29.930242,27.671526 C 30.03624,27.875769 30.245885,28.005256 30.475971,28.008594 C 30.706058,28.011932 30.919371,27.888582 31.03125,27.6875 C 34.071827,22.979132 34.483805,18.304648 35.875,13.8125 C 35.939081,13.61214 35.898083,13.392985 35.765907,13.229339 C 35.633732,13.065693 35.428107,12.979506 35.21875,13 z"
       id="path6204" />
    <path
       style="fill:#000000;fill-opacity:1;fill-rule:evenodd;stroke:#8f5902;stroke-width:0.49999997;stroke-linecap:round;stroke-linejoin:miter;stroke-miterlimit:4;stroke-dasharray:none;stroke-opacity:1"
       d="M 40.101872,16.367337 C 39.812591,16.420126 39.568296,16.641795 39.487137,16.925135 C 38.403685,20.075265 37.517653,23.348894 36.263294,26.128807 C 35.008938,28.908721 33.422037,31.114675 31.035359,32.299451 C 30.669725,32.482364 30.493948,32.911595 30.642755,33.258166 C 30.79156,33.604738 31.208594,33.737409 31.574227,33.554497 C 34.416094,32.143762 36.219071,29.522898 37.546061,26.582017 C 38.873051,23.641137 39.757355,20.324891 40.818749,17.238896 C 40.906483,17.006688 40.871136,16.75767 40.725264,16.580323 C 40.579392,16.402978 40.343676,16.322443 40.101872,16.367337 z"
       id="path6208" />
    <path
       style="fill:#000000;fill-opacity:1;fill-rule:evenodd;stroke:#8f5902;stroke-width:0.49999997;stroke-linecap:round;stroke-linejoin:miter;stroke-miterlimit:4;stroke-dasharray:none;stroke-opacity:1"
       d="M 40.808129,16.99486 C 40.459237,17.029172 40.16325,17.311247 40.113078,17.657246 C 38.836223,24.56698 37.027896,31.717001 40.184254,38.679268 C 40.264013,38.923015 40.481199,39.086885 40.744792,39.102199 C 41.008386,39.117512 41.27285,38.981624 41.427347,38.751486 C 41.581842,38.521348 41.599682,38.236716 41.473386,38.016882 C 38.522687,31.50826 40.212276,24.733016 41.500486,17.761832 C 41.543628,17.552394 41.490575,17.344137 41.356137,17.19521 C 41.221699,17.046284 41.020282,16.972647 40.808129,16.99486 z"
       id="path6220" />
    <path
       style="fill:#000000;fill-opacity:1;fill-rule:evenodd;stroke:#8f5902;stroke-width:0.50000000000000000;stroke-linecap:round;stroke-linejoin:miter;stroke-miterlimit:4;stroke-dasharray:none;stroke-opacity:1"
       d="M 23,18.78125 C 22.666679,18.780865 22.391697,19.042097 22.375,19.375 C 21.878166,23.851659 21.811983,29.327017 20.03125,32.625 C 19.898716,32.822055 19.889297,33.077194 20.00694,33.283485 C 20.124583,33.489777 20.348965,33.611584 20.586046,33.597857 C 20.823127,33.58413 21.031952,33.43724 21.125,33.21875 C 23.162673,29.444905 23.140208,23.868157 23.625,19.5 C 23.652495,19.318709 23.599,19.134488 23.47868,18.996121 C 23.35836,18.857753 23.183353,18.779195 23,18.78125 z"
       id="path12210" />
    <path
       style="fill:#000000;fill-opacity:1;fill-rule:evenodd;stroke:#8f5902;stroke-width:0.50000000000000000;stroke-linecap:round;stroke-linejoin:miter;stroke-miterlimit:4;stroke-dasharray:none;stroke-opacity:1"
       d="M 23.8125,18.4375 C 23.491666,18.500611 23.273689,18.800329 23.3125,19.125 C 23.610865,22.990954 23.362085,28.693379 24.84375,32.65625 C 24.89559,32.896384 25.083287,33.083886 25.323475,33.135476 C 25.563663,33.187065 25.8118,33.093176 25.957674,32.895508 C 26.103549,32.697841 26.120109,32.433053 26,32.21875 C 24.6772,28.680779 24.871295,23.032356 24.5625,19.03125 C 24.556998,18.84686 24.470328,18.674317 24.325694,18.559815 C 24.181059,18.445312 23.993233,18.400546 23.8125,18.4375 z"
       id="path12212" />
    <path
       style="fill:#000000;fill-opacity:1;fill-rule:evenodd;stroke:#8f5902;stroke-width:0.50000000000000000;stroke-linecap:round;stroke-linejoin:miter;stroke-miterlimit:4;stroke-dasharray:none;stroke-opacity:1"
       d="M 20.96875,19.59375 C 20.709251,19.675377 20.532342,19.915467 20.53125,20.1875 C 20.239131,25.87827 18.800731,31.847942 16.3125,35.875 C 16.182787,36.065067 16.167994,36.311033 16.273992,36.515276 C 16.37999,36.719519 16.589635,36.849006 16.819721,36.852344 C 17.049808,36.855682 17.263121,36.732332 17.375,36.53125 C 20.040442,32.217386 21.480997,26.099248 21.78125,20.25 C 21.801744,20.040643 21.715557,19.835018 21.551911,19.702843 C 21.388265,19.570667 21.16911,19.529669 20.96875,19.59375 L 20.96875,19.59375 z"
       id="path12206" />
    <path
       style="fill:#000000;fill-opacity:1;fill-rule:evenodd;stroke:#8f5902;stroke-width:0.50000000000000000;stroke-linecap:round;stroke-linejoin:miter;stroke-miterlimit:4;stroke-dasharray:none;stroke-opacity:1"
       d="M 24.375,19.5 C 24.196196,19.514217 24.032116,19.604564 23.924495,19.748058 C 23.816873,19.891553 23.776083,20.074367 23.8125,20.25 C 24.841346,25.855327 25.462763,31.814088 29,36.53125 C 29.132688,36.713481 29.353218,36.81015 29.577144,36.784242 C 29.80107,36.758333 29.9937,36.613861 30.081271,36.406146 C 30.168843,36.198431 30.137789,35.959655 30,35.78125 C 26.725899,31.415 26.071391,25.698112 25.03125,20.03125 C 24.983229,19.710858 24.698369,19.480257 24.375,19.5 z"
       id="path12208" />
    <path
       id="path12845"
       d="M 8.2589286,13.785714 C 8.0810647,13.7926 7.9145727,13.874989 7.8012097,14.012218 C 7.6878466,14.149447 7.6383663,14.328498 7.6651786,14.504464 L 9.7276786,29.223214 C 9.7708256,29.568392 10.085626,29.813236 10.430804,29.770089 C 10.775982,29.726942 11.020826,29.412142 10.977679,29.066964 L 8.9151786,14.348214 C 8.8821975,14.015313 8.5929576,13.767393 8.2589286,13.785714 L 8.2589286,13.785714 z"
       style="fill:#000000;fill-opacity:1;fill-rule:evenodd;stroke:#8f5902;stroke-width:0.5;stroke-linecap:round;stroke-linejoin:miter;stroke-miterlimit:4;stroke-dasharray:none;stroke-opacity:1" />
    <path
       id="path12847"
       d="M 11.504464,14.09375 C 11.328499,14.129226 11.176278,14.238641 11.086575,14.394126 C 10.996872,14.549612 10.978345,14.736158 11.035714,14.90625 L 15.473214,28.0625 C 15.585397,28.390419 15.94217,28.565308 16.270089,28.453125 C 16.598008,28.340942 16.772897,27.984169 16.660714,27.65625 L 12.223214,14.5 C 12.119874,14.203111 11.812117,14.029161 11.504464,14.09375 z"
       style="fill:#000000;fill-opacity:1;fill-rule:evenodd;stroke:#8f5902;stroke-width:0.5;stroke-linecap:round;stroke-linejoin:miter;stroke-miterlimit:4;stroke-dasharray:none;stroke-opacity:1" />
    <path
       style="fill:#000000;fill-opacity:1;fill-rule:evenodd;stroke:#8f5902;stroke-width:0.5;stroke-linecap:round;stroke-linejoin:miter;stroke-miterlimit:4;stroke-dasharray:none;stroke-opacity:1"
       d="M 4.875,18.651786 C 4.7075805,18.681818 4.5596299,18.778781 4.46528,18.920306 C 4.37093,19.061831 4.3383298,19.235694 4.375,19.401786 L 7.375,34.901786 C 7.4440356,35.246964 7.779822,35.470822 8.125,35.401786 C 8.470178,35.33275 8.6940356,34.996964 8.625,34.651786 L 5.625,19.151786 C 5.594968,18.984367 5.4980049,18.836416 5.35648,18.742066 C 5.2149551,18.647716 5.0410918,18.615116 4.875,18.651786 L 4.875,18.651786 z"
       id="path6166" />
    <path
       style="fill:#000000;fill-opacity:1;fill-rule:evenodd;stroke:#8f5902;stroke-width:0.5;stroke-linecap:round;stroke-linejoin:miter;stroke-miterlimit:4;stroke-dasharray:none;stroke-opacity:1"
       d="M 7.9330357,19.450893 C 7.7570707,19.486369 7.6048497,19.595784 7.5151467,19.751269 C 7.4254437,19.906755 7.4069167,20.093301 7.4642857,20.263393 L 12.339286,34.544643 C 12.390429,34.775491 12.567454,34.957721 12.796723,35.015532 C 13.025992,35.073343 13.268258,34.996838 13.422745,34.817841 C 13.577232,34.638844 13.617495,34.387996 13.526786,34.169643 L 8.6517857,19.857143 C 8.5484457,19.560254 8.2406887,19.386304 7.9330357,19.450893 L 7.9330357,19.450893 z"
       id="path6176" />
    <path
       style="fill:#000000;fill-opacity:1;fill-rule:evenodd;stroke:#8f5902;stroke-width:0.50000000000000000;stroke-linecap:round;stroke-linejoin:miter;stroke-miterlimit:4;stroke-dasharray:none;stroke-opacity:1"
       d="M 3.25,21.28125 C 3.0721361,21.288136 2.9056441,21.370525 2.7922811,21.507754 C 2.678918,21.644983 2.6294377,21.824034 2.65625,22 L 4.875,38.65625 C 4.9181472,39.001428 5.232947,39.246272 5.578125,39.203125 C 5.923303,39.159978 6.1681472,38.845178 6.125,38.5 L 3.90625,21.84375 C 3.8732689,21.510849 3.584029,21.262929 3.25,21.28125 z"
       id="path6162" />
    <path
       style="fill:#000000;fill-opacity:1;fill-rule:evenodd;stroke:#8f5902;stroke-width:0.50000000000000000;stroke-linecap:round;stroke-linejoin:miter;stroke-miterlimit:4;stroke-dasharray:none;stroke-opacity:1"
       d="M 9.25,20.15625 C 9.0756496,20.185368 8.9217799,20.286947 8.826494,20.435831 C 8.731208,20.584715 8.703416,20.766984 8.75,20.9375 L 12.6875,37.15625 C 12.773794,37.492799 13.116576,37.695669 13.453125,37.609375 C 13.789674,37.523081 13.992544,37.180299 13.90625,36.84375 L 9.96875,20.625 C 9.8911943,20.303003 9.5759351,20.097399 9.25,20.15625 L 9.25,20.15625 z"
       id="path6180" />
    <path
       style="fill:#000000;fill-opacity:1;fill-rule:evenodd;stroke:#8f5902;stroke-width:0.49999997;stroke-linecap:round;stroke-linejoin:miter;stroke-miterlimit:4;stroke-dasharray:none;stroke-opacity:1"
       d="M 40.262895,16.85541 C 39.97498,16.925564 39.743016,17.161265 39.679632,17.448071 C 37.939105,24.154141 37.165918,30.705381 31.261276,36.343487 C 30.963246,36.62267 30.926728,37.067509 31.179709,37.337066 C 31.432692,37.606622 31.879373,37.598818 32.177403,37.319635 C 38.486802,31.295042 39.314885,24.233297 41.02167,17.657246 C 41.084922,17.4281 41.031454,17.193946 40.879117,17.032964 C 40.726781,16.871984 40.495649,16.805386 40.262895,16.85541 z"
       id="path6210" />
  </g>
</svg>
