<?xml version="1.0" encoding="UTF-8" standalone="no"?>
<!-- Created with Inkscape (http://www.inkscape.org/) -->
<svg
   xmlns:dc="http://purl.org/dc/elements/1.1/"
   xmlns:cc="http://creativecommons.org/ns#"
   xmlns:rdf="http://www.w3.org/1999/02/22-rdf-syntax-ns#"
   xmlns:svg="http://www.w3.org/2000/svg"
   xmlns="http://www.w3.org/2000/svg"
   xmlns:xlink="http://www.w3.org/1999/xlink"
   xmlns:sodipodi="http://sodipodi.sourceforge.net/DTD/sodipodi-0.dtd"
   xmlns:inkscape="http://www.inkscape.org/namespaces/inkscape"
   width="48px"
   height="48px"
   id="svg2383"
   sodipodi:version="0.32"
   inkscape:version="0.46"
   sodipodi:docname="paint_length.svg"
   inkscape:output_extension="org.inkscape.output.svg.inkscape">
  <defs
     id="defs2385">
    <linearGradient
       id="linearGradient3359">
      <stop
         style="stop-color:#965e05;stop-opacity:1;"
         offset="0"
         id="stop3361" />
      <stop
         id="stop3367"
         offset="0.5"
         style="stop-color:#e5ac52;stop-opacity:1;" />
      <stop
         style="stop-color:#965e05;stop-opacity:1;"
         offset="1"
         id="stop3363" />
    </linearGradient>
    <linearGradient
       id="linearGradient3165">
      <stop
         style="stop-color:#f3bf6c;stop-opacity:1;"
         offset="0"
         id="stop3167" />
      <stop
         style="stop-color:#c17d11;stop-opacity:1;"
         offset="1"
         id="stop3169" />
    </linearGradient>
    <inkscape:perspective
       sodipodi:type="inkscape:persp3d"
       inkscape:vp_x="0 : 24 : 1"
       inkscape:vp_y="0 : 1000 : 0"
       inkscape:vp_z="48 : 24 : 1"
       inkscape:persp3d-origin="24 : 16 : 1"
       id="perspective2391" />
    <linearGradient
       inkscape:collect="always"
       xlink:href="#linearGradient3359"
       id="linearGradient3769"
       gradientUnits="userSpaceOnUse"
       x1="-12.052973"
       y1="16.642857"
       x2="-9.4470282"
       y2="16.642857"
       gradientTransform="matrix(-1.2016456,0.1692921,0.1692921,1.2016456,4.462728,9.5501906)" />
    <linearGradient
       inkscape:collect="always"
       xlink:href="#linearGradient3359"
       id="linearGradient3773"
       gradientUnits="userSpaceOnUse"
       x1="-12.052973"
       y1="16.642857"
       x2="-9.4470282"
       y2="16.642857"
       gradientTransform="matrix(-1.126415,0.1586933,0.1586933,1.126415,6.5424589,7.8984594)" />
    <linearGradient
       inkscape:collect="always"
       xlink:href="#linearGradient3359"
       id="linearGradient3777"
       gradientUnits="userSpaceOnUse"
       x1="-12.052973"
       y1="16.642857"
       x2="-9.4470282"
       y2="16.642857"
       gradientTransform="matrix(-1.0869133,4.1077063e-3,4.1077063e-3,1.0869133,9.3840269,4.0332388)" />
    <linearGradient
       inkscape:collect="always"
       xlink:href="#linearGradient3359"
       id="linearGradient3781"
       gradientUnits="userSpaceOnUse"
       x1="-12.052973"
       y1="16.642857"
       x2="-9.4470282"
       y2="16.642857"
       gradientTransform="matrix(-1.0330888,0.1555907,0.1555907,1.0330888,7.6133708,3.780743)" />
    <linearGradient
       inkscape:collect="always"
       xlink:href="#linearGradient3359"
       id="linearGradient3785"
       gradientUnits="userSpaceOnUse"
       x1="-12.052973"
       y1="16.642857"
       x2="-9.4470282"
       y2="16.642857"
       gradientTransform="matrix(-0.997965,6.3764726e-2,6.3764726e-2,0.997965,10.514832,0.6125731)" />
    <linearGradient
       inkscape:collect="always"
       xlink:href="#linearGradient3359"
       id="linearGradient3793"
       gradientUnits="userSpaceOnUse"
       x1="-12.052973"
       y1="16.642857"
       x2="-9.4470282"
       y2="16.642857"
       gradientTransform="matrix(-1.1971021,0.1988927,0.1988927,1.1971021,-3.7444746,10.338196)" />
    <linearGradient
       inkscape:collect="always"
       xlink:href="#linearGradient3359"
       id="linearGradient3809"
       gradientUnits="userSpaceOnUse"
       x1="-12.052973"
       y1="16.642857"
       x2="-9.4470282"
       y2="16.642857"
       gradientTransform="matrix(-1.1116195,0.2414463,0.2414463,1.1116195,-10.080154,10.798151)" />
    <linearGradient
       inkscape:collect="always"
       xlink:href="#linearGradient3359"
       id="linearGradient3813"
       gradientUnits="userSpaceOnUse"
       x1="-12.052973"
       y1="16.642857"
       x2="-9.4470282"
       y2="16.642857"
       gradientTransform="matrix(-1.1308428,0.1232424,0.1232424,1.1308428,-0.3600302,8.0233802)" />
    <linearGradient
       inkscape:collect="always"
       xlink:href="#linearGradient3359"
       id="linearGradient3829"
       gradientUnits="userSpaceOnUse"
       x1="-12.052973"
       y1="16.642857"
       x2="-9.4470282"
       y2="16.642857"
       gradientTransform="matrix(-1.0621552,0.2307025,0.2307025,1.0621552,-7.4781101,8.5368029)" />
    <linearGradient
       inkscape:collect="always"
       xlink:href="#linearGradient3359"
       id="linearGradient3833"
       gradientUnits="userSpaceOnUse"
       x1="-12.052973"
       y1="16.642857"
       x2="-9.4470282"
       y2="16.642857"
       gradientTransform="matrix(-1.0805231,0.1177584,0.1177584,1.0805231,1.6209646,5.8855024)" />
    <linearGradient
       inkscape:collect="always"
       xlink:href="#linearGradient3359"
       id="linearGradient3849"
       gradientUnits="userSpaceOnUse"
       x1="-12.052973"
       y1="16.642857"
       x2="-9.4470282"
       y2="16.642857"
       gradientTransform="matrix(-1.0209349,0.2217494,0.2217494,1.0209349,-5.4382426,6.3071079)" />
    <linearGradient
       inkscape:collect="always"
       xlink:href="#linearGradient3359"
       id="linearGradient3853"
       gradientUnits="userSpaceOnUse"
       x1="-12.052973"
       y1="16.642857"
       x2="-9.4470282"
       y2="16.642857"
       gradientTransform="matrix(-1.03859,0.1131884,0.1131884,1.03859,3.1509983,3.7586994)" />
    <linearGradient
       inkscape:collect="always"
       xlink:href="#linearGradient3359"
       id="linearGradient3869"
       gradientUnits="userSpaceOnUse"
       x1="-12.052973"
       y1="16.642857"
       x2="-9.4470282"
       y2="16.642857"
       gradientTransform="matrix(-0.9880856,0.1539056,0.1539056,0.9880856,-2.6540898,3.3197667)" />
    <linearGradient
       inkscape:collect="always"
       xlink:href="#linearGradient3359"
       id="linearGradient3873"
       gradientUnits="userSpaceOnUse"
       x1="-12.052973"
       y1="16.642857"
       x2="-9.4470282"
       y2="16.642857"
       gradientTransform="matrix(-0.9941138,0.1083413,0.1083413,0.9941138,4.585083,1.6718577)" />
    <linearGradient
       inkscape:collect="always"
       xlink:href="#linearGradient3359"
       id="linearGradient3889"
       gradientUnits="userSpaceOnUse"
       gradientTransform="matrix(-1.1720674,0.3144359,0.3144359,1.1720674,-12.319491,10.095368)"
       x1="-12.052973"
       y1="16.642857"
       x2="-9.4470282"
       y2="16.642857" />
    <linearGradient
       inkscape:collect="always"
       xlink:href="#linearGradient3359"
       id="linearGradient3893"
       gradientUnits="userSpaceOnUse"
       gradientTransform="matrix(-1.1720674,0.3144359,0.3144359,1.1720674,-10.676634,6.6667961)"
       x1="-12.052973"
       y1="16.642857"
       x2="-9.4470282"
       y2="16.642857" />
    <linearGradient
       inkscape:collect="always"
       xlink:href="#linearGradient3359"
       id="linearGradient3897"
       gradientUnits="userSpaceOnUse"
       gradientTransform="matrix(-1.1720674,0.3144359,0.3144359,1.1720674,-9.176634,3.8096531)"
       x1="-12.052973"
       y1="16.642857"
       x2="-9.4470282"
       y2="16.642857" />
    <linearGradient
       inkscape:collect="always"
       xlink:href="#linearGradient3359"
       id="linearGradient3901"
       gradientUnits="userSpaceOnUse"
       gradientTransform="matrix(-1.1720674,0.3144359,0.3144359,1.1720674,-7.5337769,1.8810818)"
       x1="-12.052973"
       y1="16.642857"
       x2="-9.4470282"
       y2="16.642857" />
  </defs>
  <sodipodi:namedview
     id="base"
     pagecolor="#ffffff"
     bordercolor="#666666"
     borderopacity="1.0"
     inkscape:pageopacity="0.0"
     inkscape:pageshadow="2"
     inkscape:zoom="14"
     inkscape:cx="-0.13850229"
     inkscape:cy="21.148549"
     inkscape:current-layer="layer2"
     showgrid="true"
     inkscape:grid-bbox="true"
     inkscape:document-units="px"
     inkscape:window-width="1920"
     inkscape:window-height="1115"
     inkscape:window-x="-2"
     inkscape:window-y="-5" />
  <metadata
     id="metadata2388">
    <rdf:RDF>
      <cc:Work
         rdf:about="">
        <dc:format>image/svg+xml</dc:format>
        <dc:type
           rdf:resource="http://purl.org/dc/dcmitype/StillImage" />
      </cc:Work>
    </rdf:RDF>
  </metadata>
  <g
     id="layer1"
     inkscape:label="Scalp"
     inkscape:groupmode="layer">
    <path
       style="fill:#000000;fill-opacity:0.25098039;fill-rule:evenodd;stroke:none;stroke-width:1;stroke-linecap:butt;stroke-linejoin:round;stroke-miterlimit:4;stroke-dasharray:none;stroke-opacity:1"
       d="M 0.28571523,47.728481 C 16.082379,43.007158 30.312479,43.169796 47.714284,47.728481 L 37.246449,29.379214 C 27.980702,27.046228 18.773717,26.855463 10.025511,29.379214 L 0.28571523,47.728481 z"
       id="path3173"
       sodipodi:nodetypes="ccccc" />
    <path
       style="fill:#d3d7cf;fill-opacity:1;fill-rule:evenodd;stroke:#555753;stroke-width:1;stroke-linecap:butt;stroke-linejoin:round;stroke-miterlimit:4;stroke-dasharray:none;stroke-opacity:1"
       d="M 0.28571524,45.085623 C 16.08238,40.3643 30.31248,40.526938 47.714285,45.085623 L 37.24645,26.736356 C 27.980703,24.40337 18.773718,24.212605 10.025511,26.736356 L 0.28571524,45.085623 z"
       id="path2393"
       sodipodi:nodetypes="ccccc" />
    <path
       style="fill:none;fill-opacity:1;fill-rule:evenodd;stroke:#ffffff;stroke-width:1;stroke-linecap:butt;stroke-linejoin:miter;stroke-miterlimit:4;stroke-dasharray:none;stroke-opacity:0.50196078"
       d="M 2.2770505,43.435008 C 16.540774,39.416044 29.681774,39.753551 45.672446,43.485515 L 36.655576,27.648702 C 27.979068,25.449734 18.489002,25.258562 10.682176,27.598194 L 2.2770505,43.435008 z"
       id="path3177"
       sodipodi:nodetypes="ccccc" />
  </g>
  <g
     inkscape:groupmode="layer"
     id="layer2"
     inkscape:label="Hairs">
    <path
       style="fill:#000000;fill-opacity:1;fill-rule:evenodd;stroke:#764a00;stroke-width:0.60675621000000002;stroke-linecap:butt;stroke-linejoin:miter;stroke-miterlimit:4;stroke-dasharray:none;stroke-opacity:1"
       d="M 23.360095,26.272103 L 23.216506,17.982926 C 22.445609,17.094962 21.601638,16.675645 20.479362,18.041199 L 20.925589,26.436851 C 21.823412,27.158221 22.655125,27.285065 23.360095,26.272103 z"
       id="path3955"
       sodipodi:nodetypes="ccccc" />
    <path
       style="fill:#000000;fill-opacity:1;fill-rule:evenodd;stroke:#764a00;stroke-width:0.60675621000000002;stroke-linecap:butt;stroke-linejoin:miter;stroke-miterlimit:4;stroke-dasharray:none;stroke-opacity:1"
       d="M 23.067797,29.610994 L 22.095841,21.377745 C 21.239995,20.57134 20.358317,20.238539 19.378251,21.709496 L 20.661977,30.018415 C 21.62745,30.646368 22.467678,30.689387 23.067797,29.610994 z"
       id="path3951"
       sodipodi:nodetypes="ccccc" />
    <path
       style="fill:#000000;fill-opacity:1;fill-rule:evenodd;stroke:#764a00;stroke-width:0.60675621000000002;stroke-linecap:butt;stroke-linejoin:miter;stroke-miterlimit:4;stroke-dasharray:none;stroke-opacity:1"
       d="M 21.995343,32.143161 L 22.431944,23.864244 C 21.725049,22.924531 20.912478,22.447203 19.697428,23.730907 L 19.555276,32.137208 C 20.400439,32.919615 21.221241,33.104327 21.995343,32.143161 z"
       id="path3947"
       sodipodi:nodetypes="ccccc" />
    <path
       style="fill:#000000;fill-opacity:1;fill-rule:evenodd;stroke:#764a00;stroke-width:0.60675621000000002;stroke-linecap:butt;stroke-linejoin:miter;stroke-miterlimit:4;stroke-dasharray:none;stroke-opacity:1"
       d="M 23.057115,35.881511 L 22.385023,27.618377 C 21.55905,26.781401 20.690049,26.416777 19.657171,27.851143 L 20.638077,36.201228 C 21.58009,36.863854 22.4182,36.937381 23.057115,35.881511 z"
       id="path3943"
       sodipodi:nodetypes="ccccc" />
    <path
       style="fill:#000000;fill-opacity:1;fill-rule:evenodd;stroke:#764a00;stroke-width:0.60675621000000002;stroke-linecap:butt;stroke-linejoin:miter;stroke-miterlimit:4;stroke-dasharray:none;stroke-opacity:1"
       d="M 13.40427,29.470432 L 12.627008,24.843593 C 11.698856,24.121584 10.789698,23.873504 9.9528729,25.430413 L 11.047656,30.103153 C 12.068099,30.637156 12.908636,30.600662 13.40427,29.470432 z"
       id="path3915"
       sodipodi:nodetypes="ccccc" />
    <path
       style="fill:#000000;fill-opacity:1;fill-rule:evenodd;stroke:#764a00;stroke-width:0.60675621000000002;stroke-linecap:butt;stroke-linejoin:miter;stroke-miterlimit:4;stroke-dasharray:none;stroke-opacity:1"
       d="M 11.689984,31.541861 L 11.055579,26.986451 C 10.127428,26.264442 9.2182698,26.016362 8.3814445,27.573271 L 9.3333701,32.174582 C 10.353813,32.708585 11.19435,32.672091 11.689984,31.541861 z"
       id="path3911"
       sodipodi:nodetypes="ccccc" />
    <path
       style="fill:#000000;fill-opacity:1;fill-rule:evenodd;stroke:#764a00;stroke-width:0.60675621000000002;stroke-linecap:butt;stroke-linejoin:miter;stroke-miterlimit:4;stroke-dasharray:none;stroke-opacity:1"
       d="M 10.118556,33.970433 L 9.4127218,29.843594 C 8.4845707,29.121585 7.5754125,28.873505 6.7385872,30.430414 L 7.7619414,34.603154 C 8.7823839,35.137157 9.6229215,35.100663 10.118556,33.970433 z"
       id="path3907"
       sodipodi:nodetypes="ccccc" />
    <path
       style="fill:#000000;fill-opacity:1;fill-rule:evenodd;stroke:#764a00;stroke-width:0.60675621000000002;stroke-linecap:butt;stroke-linejoin:miter;stroke-miterlimit:4;stroke-dasharray:none;stroke-opacity:1"
       d="M 8.4756984,37.327575 L 7.6270076,32.98645 C 6.6988565,32.264441 5.7896983,32.016361 4.952873,33.57327 L 6.1190843,37.960296 C 7.1395268,38.494299 7.9800644,38.457805 8.4756984,37.327575 z"
       id="path3903"
       sodipodi:nodetypes="ccccc" />
    <path
       style="fill:#000000;fill-opacity:1;fill-rule:evenodd;stroke:#764a00;stroke-width:0.60675621000000002;stroke-linecap:butt;stroke-linejoin:miter;stroke-miterlimit:4;stroke-dasharray:none;stroke-opacity:1"
       d="M 18.611521,27.031069 L 17.974436,18.765163 C 17.152016,17.924696 16.284567,17.556395 15.245623,18.986372 L 16.191151,27.340537 C 17.130349,28.007147 17.96814,28.084224 18.611521,27.031069 z"
       id="path3935"
       sodipodi:nodetypes="ccccc" />
    <path
       style="fill:#000000;fill-opacity:1;fill-rule:evenodd;stroke:#764a00;stroke-width:0.60675621000000002;stroke-linecap:butt;stroke-linejoin:miter;stroke-miterlimit:4;stroke-dasharray:none;stroke-opacity:1"
       d="M 17.682949,29.888212 L 17.045864,21.622306 C 16.223444,20.781839 15.355995,20.413538 14.317051,21.843515 L 15.262579,30.19768 C 16.201777,30.86429 17.039568,30.941367 17.682949,29.888212 z"
       id="path3931"
       sodipodi:nodetypes="ccccc" />
    <path
       style="fill:#000000;fill-opacity:1;fill-rule:evenodd;stroke:#764a00;stroke-width:0.60675621000000002;stroke-linecap:butt;stroke-linejoin:miter;stroke-miterlimit:4;stroke-dasharray:none;stroke-opacity:1"
       d="M 16.754378,32.888213 L 16.117293,24.622307 C 15.294873,23.78184 14.427424,23.413539 13.38848,24.843516 L 14.334008,33.197681 C 15.273206,33.864291 16.110997,33.941368 16.754378,32.888213 z"
       id="path3927"
       sodipodi:nodetypes="ccccc" />
    <path
       style="fill:#000000;fill-opacity:1;fill-rule:evenodd;stroke:#764a00;stroke-width:0.60675621000000002;stroke-linecap:butt;stroke-linejoin:miter;stroke-miterlimit:4;stroke-dasharray:none;stroke-opacity:1"
       d="M 15.392683,36.250813 L 14.755598,27.984907 C 13.933178,27.14444 13.065729,26.776139 12.026785,28.206116 L 12.972313,36.560281 C 13.911511,37.226891 14.749302,37.303968 15.392683,36.250813 z"
       id="path3923"
       sodipodi:nodetypes="ccccc" />
    <path
       sodipodi:nodetypes="ccccc"
       id="path3224"
       d="M -10.779211,23.59796 L -11.231544,9.8990567 C -11.075556,9.2690778 -10.190632,9.02036 -9.835016,9.7951247 L -9.6256,23.598359 C -9.7523307,24.241265 -10.500544,24.53455 -10.779211,23.59796 z"
       style="fill:#000000;fill-rule:evenodd;stroke:#764a00;stroke-width:0.50000005999999997;stroke-linecap:butt;stroke-linejoin:miter;stroke-miterlimit:4;stroke-dasharray:none;stroke-opacity:1;fill-opacity:1" />
    <path
       style="fill:#000000;fill-opacity:1;fill-rule:evenodd;stroke:#764a00;stroke-width:0.50000005999999997;stroke-linecap:butt;stroke-linejoin:miter;stroke-miterlimit:4;stroke-dasharray:none;stroke-opacity:1"
       d="M 24.43776,26.51017 L 24.859854,14.667444 C 25.492505,13.933455 26.186746,13.58544 27.115567,14.707428 L 26.444397,26.638783 C 25.706664,27.235863 25.021664,27.34283 24.43776,26.51017 z"
       id="use3287"
       sodipodi:nodetypes="ccccc" />
    <path
       style="fill:#000000;fill-opacity:1;fill-rule:evenodd;stroke:#764a00;stroke-width:0.50000005999999997;stroke-linecap:butt;stroke-linejoin:miter;stroke-miterlimit:4;stroke-dasharray:none;stroke-opacity:1"
       d="M 28.213493,26.972601 L 29.24798,13.305326 C 29.912829,12.600371 30.621943,12.283758 31.499646,13.446172 L 30.212369,27.190846 C 29.448666,27.754328 28.759567,27.830547 28.213493,26.972601 z"
       id="use3289"
       sodipodi:nodetypes="ccccc" />
    <path
       style="fill:#000000;fill-opacity:1;fill-rule:evenodd;stroke:#764a00;stroke-width:0.50000005999999997;stroke-linecap:butt;stroke-linejoin:miter;stroke-miterlimit:4;stroke-dasharray:none;stroke-opacity:1"
       d="M 34.74087,27.963744 L 36.954977,12.284738 C 37.650589,11.61012 38.373111,11.325431 39.198126,12.525812 L 36.72803,28.270872 C 35.939969,28.799752 35.248158,28.845178 34.74087,27.963744 z"
       id="use3291"
       sodipodi:nodetypes="ccccc" />
    <path
       style="fill:#000000;fill-opacity:1;fill-rule:evenodd;stroke:#764a00;stroke-width:0.52236985999999996;stroke-linecap:butt;stroke-linejoin:miter;stroke-miterlimit:4;stroke-dasharray:none;stroke-opacity:1"
       d="M 24.773638,29.464906 L 26.080617,17.45663 C 26.804765,16.749174 27.558519,16.448987 28.42503,17.699909 L 26.850863,29.778173 C 26.029573,30.333725 25.306989,30.383829 24.773638,29.464906 z"
       id="use3299"
       sodipodi:nodetypes="ccccc" />
    <path
       style="fill:#000000;fill-opacity:1;fill-rule:evenodd;stroke:#764a00;stroke-width:0.52236985999999996;stroke-linecap:butt;stroke-linejoin:miter;stroke-miterlimit:4;stroke-dasharray:none;stroke-opacity:1"
       d="M 29.599789,30.053973 L 30.680558,15.77523 C 31.375152,15.038736 32.115992,14.707958 33.032962,15.922377 L 31.688094,30.281981 C 30.890223,30.870674 30.170294,30.950302 29.599789,30.053973 z"
       id="use3301"
       sodipodi:nodetypes="ccccc" />
    <path
       style="fill:#000000;fill-opacity:1;fill-rule:evenodd;stroke:#764a00;stroke-width:0.52236985999999996;stroke-linecap:butt;stroke-linejoin:miter;stroke-miterlimit:4;stroke-dasharray:none;stroke-opacity:1"
       d="M 36.327609,30.95352 L 38.832101,14.438956 C 39.600275,13.779567 40.371784,13.528508 41.156,14.832599 L 38.38037,31.399811 C 37.525031,31.90136 36.80072,31.90486 36.327609,30.95352 z"
       id="use3303"
       sodipodi:nodetypes="ccccc" />
    <path
       style="fill:#000000;fill-opacity:1;fill-rule:evenodd;stroke:#764a00;stroke-width:0.54346061000000001;stroke-linecap:butt;stroke-linejoin:miter;stroke-miterlimit:4;stroke-dasharray:none;stroke-opacity:1"
       d="M 25.966729,32.706979 L 25.602782,20.458458 C 26.241323,19.620854 26.971857,19.198 28.052754,20.35475 L 28.152243,32.715673 C 27.390763,33.411588 26.654539,33.57231 25.966729,32.706979 z"
       id="use3339"
       sodipodi:nodetypes="ccccc" />
    <path
       style="fill:#000000;fill-opacity:1;fill-rule:evenodd;stroke:#764a00;stroke-width:0.54346055000000004;stroke-linecap:butt;stroke-linejoin:miter;stroke-miterlimit:4;stroke-dasharray:none;stroke-opacity:1"
       d="M 30.760295,33.118439 L 31.8847,18.263192 C 32.607338,17.496961 33.37809,17.152829 34.332083,18.416279 L 32.932915,33.355653 C 32.10283,33.968114 31.353834,34.050958 30.760295,33.118439 z"
       id="use3341"
       sodipodi:nodetypes="ccccc" />
    <path
       style="fill:#000000;fill-opacity:1;fill-rule:evenodd;stroke:#764a00;stroke-width:0.54346055000000004;stroke-linecap:butt;stroke-linejoin:miter;stroke-miterlimit:4;stroke-dasharray:none;stroke-opacity:1"
       d="M 37.688324,34.054307 L 40.725391,17.113877 C 41.524579,16.427865 42.327238,16.166669 43.143117,17.523413 L 39.823965,34.518617 C 38.934092,35.040415 38.180537,35.044057 37.688324,34.054307 z"
       id="use3343"
       sodipodi:nodetypes="ccccc" />
    <path
       style="fill:#000000;fill-opacity:1;fill-rule:evenodd;stroke:#764a00;stroke-width:0.56876939999999998;stroke-linecap:butt;stroke-linejoin:miter;stroke-miterlimit:4;stroke-dasharray:none;stroke-opacity:1"
       d="M 24.712023,35.749714 L 26.162146,23.604425 C 26.943247,22.826656 27.760804,22.492006 28.717209,23.844997 L 26.976903,36.069257 C 26.088461,36.682642 25.302249,36.744686 24.712023,35.749714 z"
       id="use3349"
       sodipodi:nodetypes="ccccc" />
    <path
       style="fill:#000000;fill-opacity:1;fill-rule:evenodd;stroke:#764a00;stroke-width:0.56876939999999998;stroke-linecap:butt;stroke-linejoin:miter;stroke-miterlimit:4;stroke-dasharray:none;stroke-opacity:1"
       d="M 31.969294,36.381512 L 33.146062,20.834459 C 33.902354,20.032546 34.708999,19.672387 35.707419,20.994677 L 34.243092,36.629774 C 33.37435,37.270756 32.590474,37.357458 31.969294,36.381512 z"
       id="use3351"
       sodipodi:nodetypes="ccccc" />
    <path
       style="fill:#000000;fill-opacity:1;fill-rule:evenodd;stroke:#764a00;stroke-width:0.56876939999999998;stroke-linecap:butt;stroke-linejoin:miter;stroke-miterlimit:4;stroke-dasharray:none;stroke-opacity:1"
       d="M 39.546814,37.360962 L 42.637255,19.738066 C 43.473662,19.020107 44.313701,18.746747 45.167574,20.166674 L 41.781911,37.846895 C 40.850597,38.392994 40.061949,38.396806 39.546814,37.360962 z"
       id="use3353"
       sodipodi:nodetypes="ccccc" />
    <path
       style="fill:#000000;fill-opacity:1;fill-rule:evenodd;stroke:#764a00;stroke-width:0.60675621000000002;stroke-linecap:butt;stroke-linejoin:miter;stroke-miterlimit:4;stroke-dasharray:none;stroke-opacity:1"
       d="M 26.044871,39.056431 L 27.320443,26.804341 C 28.153712,25.974628 29.025872,25.617627 30.046152,27.060981 L 28.461018,39.397315 C 27.513239,40.051667 26.674517,40.117854 26.044871,39.056431 z"
       id="use3437"
       sodipodi:nodetypes="ccccc" />
    <path
       style="fill:#000000;fill-opacity:1;fill-rule:evenodd;stroke:#764a00;stroke-width:0.60675615000000005;stroke-linecap:butt;stroke-linejoin:miter;stroke-miterlimit:4;stroke-dasharray:none;stroke-opacity:1"
       d="M 32.56241,39.817737 L 34.825907,23.339626 C 35.683331,22.534898 36.565659,22.203826 37.542842,23.676699 L 34.967428,40.229871 C 34.000727,40.85593 33.160415,40.897303 32.56241,39.817737 z"
       id="use3439"
       sodipodi:nodetypes="ccccc" />
    <path
       style="fill:#000000;fill-opacity:1;fill-rule:evenodd;stroke:#764a00;stroke-width:0.60675621000000002;stroke-linecap:butt;stroke-linejoin:miter;stroke-miterlimit:4;stroke-dasharray:none;stroke-opacity:1"
       d="M 41.083327,40.943591 L 45.045578,22.950122 C 45.985063,22.242923 46.898041,22.009293 47.71007,23.579278 L 43.429611,41.613607 C 42.400828,42.131359 41.560974,42.081539 41.083327,40.943591 z"
       id="use3441"
       sodipodi:nodetypes="ccccc" />
    <path
       style="fill:#000000;fill-opacity:1;fill-rule:evenodd;stroke:#764a00;stroke-width:0.60675621000000002;stroke-linecap:butt;stroke-linejoin:miter;stroke-miterlimit:4;stroke-dasharray:none;stroke-opacity:1"
       d="M 6.0023402,40.638665 L 5.0107922,35.583255 C 4.0826411,34.861246 3.4591972,35.256023 3.1938004,36.170075 L 4.5028689,41.271386 C 5.09474,41.948246 6.0781347,41.697466 6.0023402,40.638665 z"
       id="use3445"
       sodipodi:nodetypes="ccccc" />
    <path
       style="fill:#000000;fill-opacity:1;fill-rule:evenodd;stroke:#764a00;stroke-width:0.60675621000000002;stroke-linecap:butt;stroke-linejoin:miter;stroke-miterlimit:4;stroke-dasharray:none;stroke-opacity:1"
       d="M 14.636488,39.484577 L 13.561448,31.264153 C 12.695566,30.468535 11.809787,30.146808 10.848228,31.629928 L 12.235961,39.922111 C 13.209226,40.537917 14.049928,40.570405 14.636488,39.484577 z"
       id="path3919"
       sodipodi:nodetypes="ccccc" />
    <path
       style="fill:#000000;fill-opacity:1;fill-rule:evenodd;stroke:#764a00;stroke-width:0.60675621000000002;stroke-linecap:butt;stroke-linejoin:miter;stroke-miterlimit:4;stroke-dasharray:none;stroke-opacity:1"
       d="M 21.981498,39.100814 L 21.309406,30.83768 C 20.483433,30.000704 19.614432,29.63608 18.581554,31.070446 L 19.56246,39.420531 C 20.504473,40.083157 21.342583,40.156684 21.981498,39.100814 z"
       id="path3939"
       sodipodi:nodetypes="ccccc" />
  </g>
</svg>
