<?xml version="1.0" encoding="UTF-8" standalone="no"?>
<!-- Created with Inkscape (http://www.inkscape.org/) -->
<svg
   xmlns:dc="http://purl.org/dc/elements/1.1/"
   xmlns:cc="http://creativecommons.org/ns#"
   xmlns:rdf="http://www.w3.org/1999/02/22-rdf-syntax-ns#"
   xmlns:svg="http://www.w3.org/2000/svg"
   xmlns="http://www.w3.org/2000/svg"
   xmlns:xlink="http://www.w3.org/1999/xlink"
   xmlns:sodipodi="http://sodipodi.sourceforge.net/DTD/sodipodi-0.dtd"
   xmlns:inkscape="http://www.inkscape.org/namespaces/inkscape"
   width="48px"
   height="48px"
   id="svg2383"
   sodipodi:version="0.32"
   inkscape:version="0.46"
   sodipodi:docname="paint_guard_density.svg"
   inkscape:output_extension="org.inkscape.output.svg.inkscape">
  <defs
     id="defs2385">
    <linearGradient
       id="linearGradient4879">
      <stop
         id="stop4881"
         offset="0"
         style="stop-color:#df9d00;stop-opacity:1;" />
      <stop
         style="stop-color:#ffe8a3;stop-opacity:1;"
         offset="0.5"
         id="stop4883" />
      <stop
         id="stop4885"
         offset="1"
         style="stop-color:#f7c500;stop-opacity:1;" />
    </linearGradient>
    <linearGradient
       id="linearGradient3359">
      <stop
         style="stop-color:#965e05;stop-opacity:1;"
         offset="0"
         id="stop3361" />
      <stop
         id="stop3367"
         offset="0.5"
         style="stop-color:#e5ac52;stop-opacity:1;" />
      <stop
         style="stop-color:#965e05;stop-opacity:1;"
         offset="1"
         id="stop3363" />
    </linearGradient>
    <linearGradient
       id="linearGradient3165">
      <stop
         style="stop-color:#f3bf6c;stop-opacity:1;"
         offset="0"
         id="stop3167" />
      <stop
         style="stop-color:#c17d11;stop-opacity:1;"
         offset="1"
         id="stop3169" />
    </linearGradient>
    <inkscape:perspective
       sodipodi:type="inkscape:persp3d"
       inkscape:vp_x="0 : 24 : 1"
       inkscape:vp_y="0 : 1000 : 0"
       inkscape:vp_z="48 : 24 : 1"
       inkscape:persp3d-origin="24 : 16 : 1"
       id="perspective2391" />
    <linearGradient
       inkscape:collect="always"
       xlink:href="#linearGradient4879"
       id="linearGradient4851"
       gradientUnits="userSpaceOnUse"
       x1="-12.03225"
       y1="16.257603"
       x2="-9.4470282"
       y2="16.642857"
       gradientTransform="matrix(-1.1312955,0.1529608,0.1532475,1.1278229,4.4779029e-2,8.1165076)" />
    <linearGradient
       inkscape:collect="always"
       xlink:href="#linearGradient4879"
       id="linearGradient4855"
       gradientUnits="userSpaceOnUse"
       gradientTransform="matrix(-1.1355668,0.1171094,0.1175058,1.132105,6.9677713,4.1123797)"
       x1="-11.936553"
       y1="16.497957"
       x2="-9.4470282"
       y2="16.642857" />
    <linearGradient
       inkscape:collect="always"
       xlink:href="#linearGradient3359"
       id="linearGradient4859"
       gradientUnits="userSpaceOnUse"
       gradientTransform="matrix(-1.1355668,0.1171094,0.1175058,1.132105,6.1700161,11.129743)"
       x1="-11.936553"
       y1="16.497957"
       x2="-9.4470282"
       y2="16.642857" />
    <linearGradient
       inkscape:collect="always"
       xlink:href="#linearGradient4879"
       id="linearGradient4863"
       gradientUnits="userSpaceOnUse"
       gradientTransform="matrix(1.1355668,0.1171094,-0.1175058,1.132105,43.54427,13.844029)"
       x1="-11.936553"
       y1="16.497957"
       x2="-9.4470282"
       y2="16.642857" />
    <linearGradient
       inkscape:collect="always"
       xlink:href="#linearGradient3359"
       id="linearGradient4867"
       gradientUnits="userSpaceOnUse"
       gradientTransform="matrix(1.1355668,0.1171094,-0.1175058,1.132105,42.329984,10.701172)"
       x1="-11.936553"
       y1="16.497957"
       x2="-9.4470282"
       y2="16.642857" />
    <linearGradient
       inkscape:collect="always"
       xlink:href="#linearGradient4879"
       id="linearGradient4871"
       gradientUnits="userSpaceOnUse"
       gradientTransform="matrix(1.1355668,0.1171094,-0.1175058,1.132105,40.401413,3.2726005)"
       x1="-11.936553"
       y1="16.497957"
       x2="-9.4470282"
       y2="16.642857" />
    <linearGradient
       inkscape:collect="always"
       xlink:href="#linearGradient4879"
       id="linearGradient4889"
       gradientUnits="userSpaceOnUse"
       gradientTransform="matrix(1.1245314,0.1966107,-0.1967629,1.1210503,45.660644,4.245713)"
       x1="-11.936553"
       y1="16.497957"
       x2="-9.4470282"
       y2="16.642857" />
    <linearGradient
       inkscape:collect="always"
       xlink:href="#linearGradient4879"
       id="linearGradient4893"
       gradientUnits="userSpaceOnUse"
       gradientTransform="matrix(1.1245314,0.1966107,-0.1967629,1.1210503,48.849409,11.634089)"
       x1="-11.936553"
       y1="16.497957"
       x2="-9.4470282"
       y2="16.642857" />
    <linearGradient
       inkscape:collect="always"
       xlink:href="#linearGradient4879"
       id="linearGradient4897"
       gradientUnits="userSpaceOnUse"
       gradientTransform="matrix(1.1245314,0.1966107,-0.1967629,1.1210503,50.706552,15.348375)"
       x1="-11.936553"
       y1="16.497957"
       x2="-9.4653893"
       y2="16.90094" />
    <linearGradient
       inkscape:collect="always"
       xlink:href="#linearGradient4879"
       id="linearGradient4901"
       gradientUnits="userSpaceOnUse"
       gradientTransform="matrix(1.1245314,0.1966107,-0.1967629,1.1210503,53.992266,7.0626603)"
       x1="-11.936553"
       y1="16.497957"
       x2="-9.4470282"
       y2="16.642857" />
    <linearGradient
       inkscape:collect="always"
       xlink:href="#linearGradient4879"
       id="linearGradient4905"
       gradientUnits="userSpaceOnUse"
       gradientTransform="matrix(1.1245314,0.1966107,-0.1967629,1.1210503,56.84941,13.348374)"
       x1="-11.936553"
       y1="16.497957"
       x2="-9.4470282"
       y2="16.642857" />
    <linearGradient
       inkscape:collect="always"
       xlink:href="#linearGradient4879"
       id="linearGradient4909"
       gradientUnits="userSpaceOnUse"
       gradientTransform="matrix(1.1245314,0.1966107,-0.1967629,1.1210503,59.135124,17.062659)"
       x1="-11.936553"
       y1="16.497957"
       x2="-9.4470282"
       y2="16.642857" />
  </defs>
  <sodipodi:namedview
     id="base"
     pagecolor="#ffffff"
     bordercolor="#666666"
     borderopacity="1.0"
     inkscape:pageopacity="0.0"
     inkscape:pageshadow="2"
     inkscape:zoom="14"
     inkscape:cx="-0.13850229"
     inkscape:cy="21.148549"
     inkscape:current-layer="layer2"
     showgrid="true"
     inkscape:grid-bbox="true"
     inkscape:document-units="px"
     inkscape:window-width="1920"
     inkscape:window-height="1115"
     inkscape:window-x="0"
     inkscape:window-y="24" />
  <metadata
     id="metadata2388">
    <rdf:RDF>
      <cc:Work
         rdf:about="">
        <dc:format>image/svg+xml</dc:format>
        <dc:type
           rdf:resource="http://purl.org/dc/dcmitype/StillImage" />
      </cc:Work>
    </rdf:RDF>
  </metadata>
  <g
     id="layer1"
     inkscape:label="Scalp"
     inkscape:groupmode="layer">
    <path
       style="fill:#000000;fill-opacity:0.25098039;fill-rule:evenodd;stroke:none;stroke-width:1;stroke-linecap:butt;stroke-linejoin:round;stroke-miterlimit:4;stroke-dasharray:none;stroke-opacity:1"
       d="M 0.28571523,47.585623 C 16.082379,42.8643 30.312479,43.026938 47.714284,47.585623 L 37.246449,29.236356 C 27.980702,26.90337 18.773717,26.712605 10.025511,29.236356 L 0.28571523,47.585623 z"
       id="path3173"
       sodipodi:nodetypes="ccccc" />
    <path
       style="fill:#d3d7cf;fill-opacity:1;fill-rule:evenodd;stroke:#555753;stroke-width:1;stroke-linecap:butt;stroke-linejoin:round;stroke-miterlimit:4;stroke-dasharray:none;stroke-opacity:1"
       d="M 0.28571524,44.942765 C 16.08238,40.221442 30.31248,40.38408 47.714285,44.942765 L 37.24645,26.593498 C 27.980703,24.260512 18.773718,24.069747 10.025511,26.593498 L 0.28571524,44.942765 z"
       id="path2393"
       sodipodi:nodetypes="ccccc" />
    <path
       style="fill:none;fill-opacity:1;fill-rule:evenodd;stroke:#ffffff;stroke-width:1;stroke-linecap:butt;stroke-linejoin:miter;stroke-miterlimit:4;stroke-dasharray:none;stroke-opacity:0.50196078"
       d="M 2.2770505,43.29215 C 16.540774,39.273186 29.681774,39.610693 45.672446,43.342657 L 36.655576,27.505844 C 27.979068,25.306876 18.489002,25.115704 10.682176,27.455336 L 2.2770505,43.29215 z"
       id="path3177"
       sodipodi:nodetypes="ccccc" />
  </g>
  <g
     inkscape:groupmode="layer"
     id="layer2"
     inkscape:label="Hairs">
    <path
       style="fill:url(#linearGradient4889);fill-opacity:1;fill-rule:evenodd;stroke:#764a00;stroke-width:0.54346055;stroke-linecap:butt;stroke-linejoin:miter;stroke-miterlimit:4;stroke-dasharray:none;stroke-opacity:1"
       d="M 28.253291,28.468559 C 29.765557,17.178915 30.80742,6.763146 36.79775,-2.0502635 C 34.922214,6.8853565 31.774359,17.131144 30.514367,28.864343 C 29.602766,29.447808 28.812101,29.483381 28.253291,28.468559 z"
       id="path4887"
       sodipodi:nodetypes="cccc" />
    <path
       sodipodi:nodetypes="ccccc"
       id="path3224"
       d="M -10.85064,23.526531 L -11.302973,9.8276281 C -11.218413,9.1262207 -10.262061,8.9489314 -9.835016,9.8665533 L -9.6256,23.669788 C -9.7523307,24.312694 -10.786259,24.391693 -10.85064,23.526531 z"
       style="fill:#000000;fill-rule:evenodd;stroke:#764a00;stroke-width:0.50000005999999997;stroke-linecap:butt;stroke-linejoin:miter;stroke-miterlimit:4;stroke-dasharray:none;stroke-opacity:1;fill-opacity:1" />
    <use
       x="0"
       y="0"
       xlink:href="#path3224"
       id="use3287"
       transform="matrix(0.997965,6.3764726e-2,-6.3764726e-2,0.997965,37.270019,3.5411445)"
       width="48"
       height="48" />
    <path
       style="fill:url(#linearGradient4871);fill-opacity:1.0;fill-rule:evenodd;stroke:#764a00;stroke-width:0.54346055000000004;stroke-linecap:butt;stroke-linejoin:miter;stroke-miterlimit:4;stroke-dasharray:none;stroke-opacity:1"
       d="M 24.739106,28.658704 C 25.454367,17.290705 25.761789,6.8274745 31.118038,-2.3850621 C 29.875,6.6602565 27.454847,17.101903 27.022404,28.894635 C 26.154053,29.540711 25.367842,29.631753 24.739106,28.658704 z"
       id="path4869"
       sodipodi:nodetypes="cccc" />
    <use
       x="0"
       y="0"
       xlink:href="#path3224"
       id="use3291"
       transform="matrix(0.9882963,0.1525463,-0.1525463,0.9882963,49.558447,6.2306083)"
       width="48"
       height="48" />
    <use
       x="0"
       y="0"
       xlink:href="#path3224"
       id="use3295"
       transform="matrix(-0.9941138,0.1083413,0.1083413,0.9941138,4.585083,4.6004291)"
       width="48"
       height="48" />
    <use
       height="48"
       width="48"
       transform="matrix(-0.9880856,0.1539056,0.1539056,0.9880856,-2.6540898,6.2483381)"
       id="use3297"
       xlink:href="#path3224"
       y="0"
       x="0" />
    <use
       x="0"
       y="0"
       xlink:href="#path3224"
       id="use3301"
       transform="matrix(1.03859,0.1131884,-0.1131884,1.03859,44.059466,6.6872708)"
       width="48"
       height="48" />
    <use
       height="48"
       width="48"
       transform="matrix(-1.03859,0.1131884,0.1131884,1.03859,3.1509983,6.6872708)"
       id="use3305"
       xlink:href="#path3224"
       y="0"
       x="0" />
    <use
       x="0"
       y="0"
       xlink:href="#path3224"
       id="use3307"
       transform="matrix(-1.0209349,0.2217494,0.2217494,1.0209349,-5.4382426,9.2356793)"
       width="48"
       height="48" />
    <use
       x="0"
       y="0"
       xlink:href="#path3224"
       id="use3339"
       transform="matrix(1.0869133,4.1077063e-3,-4.1077063e-3,1.0869133,38.400824,6.9618102)"
       width="48"
       height="48" />
    <use
       height="48"
       width="48"
       transform="matrix(1.0805231,0.1177584,-0.1177584,1.0805231,45.803782,8.8140738)"
       id="use3341"
       xlink:href="#path3224"
       y="0"
       x="0" />
    <path
       style="fill:url(#linearGradient4901);fill-opacity:1;fill-rule:evenodd;stroke:#764a00;stroke-width:0.54346055;stroke-linecap:butt;stroke-linejoin:miter;stroke-miterlimit:4;stroke-dasharray:none;stroke-opacity:1"
       d="M 36.584913,31.285507 C 38.097179,19.995862 39.139042,9.5800933 45.129372,0.76668357 C 43.253836,9.7023038 40.105981,19.948091 38.845989,31.681291 C 37.934388,32.264756 37.143723,32.300329 36.584913,31.285507 z"
       id="path4899"
       sodipodi:nodetypes="cccc" />
    <use
       x="0"
       y="0"
       xlink:href="#path3224"
       id="use3343"
       transform="matrix(1.0621552,0.2307025,-0.2307025,1.0621552,55.188574,11.465374)"
       width="48"
       height="48" />
    <path
       style="fill:url(#linearGradient4905);fill-opacity:1;fill-rule:evenodd;stroke:#764a00;stroke-width:0.54346055;stroke-linecap:butt;stroke-linejoin:miter;stroke-miterlimit:4;stroke-dasharray:none;stroke-opacity:1"
       d="M 39.442057,37.571221 C 40.954323,26.281576 41.996186,15.865808 47.986516,7.0523976 C 46.11098,15.988018 42.963125,26.233805 41.703133,37.967005 C 40.791532,38.55047 40.000867,38.586043 39.442057,37.571221 z"
       id="path4903"
       sodipodi:nodetypes="cccc" />
    <path
       style="fill:url(#linearGradient4851);fill-opacity:1;fill-rule:evenodd;stroke:#764a00;stroke-width:0.54346055000000004;stroke-linecap:butt;stroke-linejoin:miter;stroke-miterlimit:4;stroke-dasharray:none;stroke-opacity:1"
       d="M 16.502034,32.994626 C 15.427642,21.654931 14.360925,9.5637989 6.5017422,1.8823928 C 10.101625,10.669594 13.422192,21.529484 14.227339,33.302643 C 15.115687,33.920936 15.904384,33.98707 16.502034,32.994626 z"
       id="use3345"
       sodipodi:nodetypes="cccc" />
    <use
       height="48"
       width="48"
       transform="matrix(-1.0621552,0.2307025,0.2307025,1.0621552,-7.4781101,11.465374)"
       id="use3347"
       xlink:href="#path3224"
       y="0"
       x="0" />
    <use
       height="48"
       width="48"
       transform="matrix(-1.1308428,0.1232424,0.1232424,1.1308428,-0.3600302,10.951952)"
       id="use3355"
       xlink:href="#path3224"
       y="0"
       x="0" />
    <use
       x="0"
       y="0"
       xlink:href="#path3224"
       id="use3357"
       transform="matrix(-1.1116195,0.2414463,0.2414463,1.1116195,-10.080154,13.726722)"
       width="48"
       height="48" />
    <use
       x="0"
       y="0"
       xlink:href="#path3224"
       id="use3443"
       transform="matrix(-1.1971021,0.1988927,0.1988927,1.1971021,-3.7444746,13.266767)"
       width="48"
       height="48" />
    <use
       height="48"
       width="48"
       transform="matrix(-1.1720674,0.3144359,0.3144359,1.1720674,-14.007135,16.763599)"
       id="use3445"
       xlink:href="#path3224"
       y="0"
       x="0" />
    <use
       height="48"
       width="48"
       transform="matrix(-0.997965,6.3764726e-2,6.3764726e-2,0.997965,10.514832,3.5411445)"
       id="use3447"
       xlink:href="#path3224"
       y="0"
       x="0" />
    <path
       style="fill:url(#linearGradient4855);fill-opacity:1.0;fill-rule:evenodd;stroke:#764a00;stroke-width:0.54346055000000004;stroke-linecap:butt;stroke-linejoin:miter;stroke-miterlimit:4;stroke-dasharray:none;stroke-opacity:1"
       d="M 22.630078,29.498483 C 21.914817,18.130484 21.607395,7.6672536 16.251146,-1.5452832 C 17.494184,7.5000362 19.914337,17.941682 20.34678,29.734414 C 21.215131,30.38049 22.001342,30.471532 22.630078,29.498483 z"
       id="path4853"
       sodipodi:nodetypes="cccc" />
    <use
       height="48"
       width="48"
       transform="matrix(-1.0869133,4.1077063e-3,4.1077063e-3,1.0869133,9.3840269,6.9618102)"
       id="use3451"
       xlink:href="#path3224"
       y="0"
       x="0" />
    <use
       x="0"
       y="0"
       xlink:href="#path3224"
       id="use4873"
       transform="matrix(-1.2016456,0.1692921,0.1692921,1.2016456,5.7484423,9.978762)"
       width="48"
       height="48" />
    <use
       height="48"
       width="48"
       transform="matrix(-1.2016456,0.1692921,0.1692921,1.2016456,4.462728,12.478762)"
       id="use3455"
       xlink:href="#path3224"
       y="0"
       x="0" />
    <use
       height="48"
       width="48"
       transform="matrix(1.0812103,0.1112734,-0.1112734,1.0812103,41.33837,12.118234)"
       id="use4877"
       xlink:href="#path3224"
       y="0"
       x="0" />
    <path
       style="fill:url(#linearGradient4863);fill-opacity:1.0;fill-rule:evenodd;stroke:#764a00;stroke-width:0.54346055000000004;stroke-linecap:butt;stroke-linejoin:miter;stroke-miterlimit:4;stroke-dasharray:none;stroke-opacity:1"
       d="M 27.881963,39.230132 C 28.597224,27.862133 28.904646,17.398903 34.260895,8.1863664 C 33.017857,17.231685 30.597704,27.673331 30.165261,39.466063 C 29.29691,40.112139 28.510699,40.203181 27.881963,39.230132 z"
       id="path4861"
       sodipodi:nodetypes="cccc" />
    <path
       style="fill:url(#linearGradient4893);fill-opacity:1;fill-rule:evenodd;stroke:#764a00;stroke-width:0.54346055;stroke-linecap:butt;stroke-linejoin:miter;stroke-miterlimit:4;stroke-dasharray:none;stroke-opacity:1"
       d="M 31.442056,35.856935 C 32.954322,24.567291 33.996185,14.151522 39.986515,5.3381124 C 38.110979,14.273733 34.963124,24.51952 33.703132,36.252719 C 32.791531,36.836184 32.000866,36.871757 31.442056,35.856935 z"
       id="path4891"
       sodipodi:nodetypes="cccc" />
    <path
       style="fill:url(#linearGradient4897);fill-opacity:1;fill-rule:evenodd;stroke:#764a00;stroke-width:0.54346055000000004;stroke-linecap:butt;stroke-linejoin:miter;stroke-miterlimit:4;stroke-dasharray:none;stroke-opacity:1"
       d="M 33.299199,39.571221 C 34.811465,28.281577 38.567614,15.365808 46.057944,9.6952551 C 41.182408,17.130876 36.820267,28.233806 35.560275,39.967005 C 34.648674,40.55047 33.858009,40.586043 33.299199,39.571221 z"
       id="path4895"
       sodipodi:nodetypes="cccc" />
    <path
       style="fill:url(#linearGradient4909);fill-opacity:1;fill-rule:evenodd;stroke:#764a00;stroke-width:0.54346055;stroke-linecap:butt;stroke-linejoin:miter;stroke-miterlimit:4;stroke-dasharray:none;stroke-opacity:1"
       d="M 41.727771,41.285506 C 43.240037,29.995861 44.2819,19.580093 50.27223,10.766683 C 48.396694,19.702303 45.248839,29.94809 43.988847,41.68129 C 43.077246,42.264755 42.286581,42.300328 41.727771,41.285506 z"
       id="path4907"
       sodipodi:nodetypes="cccc" />
  </g>
</svg>
