<?xml version="1.0" encoding="UTF-8" standalone="no"?>
<!-- Created with Inkscape (http://www.inkscape.org/) -->
<svg
   xmlns:dc="http://purl.org/dc/elements/1.1/"
   xmlns:cc="http://creativecommons.org/ns#"
   xmlns:rdf="http://www.w3.org/1999/02/22-rdf-syntax-ns#"
   xmlns:svg="http://www.w3.org/2000/svg"
   xmlns="http://www.w3.org/2000/svg"
   xmlns:xlink="http://www.w3.org/1999/xlink"
   xmlns:sodipodi="http://sodipodi.sourceforge.net/DTD/sodipodi-0.dtd"
   xmlns:inkscape="http://www.inkscape.org/namespaces/inkscape"
   width="48px"
   height="48px"
   id="svg5655"
   sodipodi:version="0.32"
   inkscape:version="0.46"
   sodipodi:docname="paint_twist_noise.svg"
   inkscape:output_extension="org.inkscape.output.svg.inkscape">
  <defs
     id="defs5657">
    <linearGradient
       inkscape:collect="always"
       xlink:href="#linearGradient4749"
       id="linearGradient5889"
       gradientUnits="userSpaceOnUse"
       x1="15.975926"
       y1="37.22559"
       x2="20.421835"
       y2="47.868446"
       gradientTransform="matrix(0.7870425,0.6168988,-0.6168988,0.7870425,52.571024,-3.7329127)" />
    <linearGradient
       inkscape:collect="always"
       xlink:href="#linearGradient4749"
       id="linearGradient5892"
       gradientUnits="userSpaceOnUse"
       x1="22.825054"
       y1="27.172569"
       x2="13.082986"
       y2="33.029713"
       gradientTransform="translate(22.640524,-1.5359497)" />
    <linearGradient
       inkscape:collect="always"
       xlink:href="#linearGradient4749"
       id="linearGradient5898"
       gradientUnits="userSpaceOnUse"
       x1="6.1355166"
       y1="47.793056"
       x2="6.1355166"
       y2="36.22163"
       gradientTransform="matrix(0.6853034,-0.7282577,0.7282577,0.6853034,-5.9167804,16.1069)" />
    <linearGradient
       id="linearGradient4749">
      <stop
         id="stop4751"
         offset="0"
         style="stop-color:#115971;stop-opacity:1;" />
      <stop
         id="stop4753"
         offset="1"
         style="stop-color:#2e3436;stop-opacity:1;" />
    </linearGradient>
    <linearGradient
       inkscape:collect="always"
       xlink:href="#linearGradient4749"
       id="linearGradient5901"
       gradientUnits="userSpaceOnUse"
       x1="1.857143"
       y1="27.02696"
       x2="11.004405"
       y2="33.241245"
       gradientTransform="translate(22.640524,-1.5359497)" />
    <inkscape:perspective
       sodipodi:type="inkscape:persp3d"
       inkscape:vp_x="0 : 24 : 1"
       inkscape:vp_y="0 : 1000 : 0"
       inkscape:vp_z="48 : 24 : 1"
       inkscape:persp3d-origin="24 : 16 : 1"
       id="perspective5663" />
  </defs>
  <sodipodi:namedview
     id="base"
     pagecolor="#ffffff"
     bordercolor="#666666"
     borderopacity="1.0"
     inkscape:pageopacity="0.0"
     inkscape:pageshadow="2"
     inkscape:zoom="7"
     inkscape:cx="24"
     inkscape:cy="24"
     inkscape:current-layer="layer1"
     showgrid="true"
     inkscape:grid-bbox="true"
     inkscape:document-units="px"
     inkscape:window-width="640"
     inkscape:window-height="666"
     inkscape:window-x="100"
     inkscape:window-y="100" />
  <metadata
     id="metadata5660">
    <rdf:RDF>
      <cc:Work
         rdf:about="">
        <dc:format>image/svg+xml</dc:format>
        <dc:type
           rdf:resource="http://purl.org/dc/dcmitype/StillImage" />
      </cc:Work>
    </rdf:RDF>
  </metadata>
  <g
     id="layer1"
     inkscape:label="Layer 1"
     inkscape:groupmode="layer">
    <path
       style="opacity:0.27000002;fill:#b78f74"
       d="M 0.59832657,3.767068 L 0.59832657,11.529106 C 5.2482726,14.444379 14.643221,28.681964 14.643221,35.95123 L 14.584252,21.885233 C 15.884262,18.398873 5.8793556,5.6976786 0.59832657,3.767068"
       id="path9467" />
    <path
       style="opacity:0.27000002;fill:#9b6643"
       d="M 37.659701,11.188566 L 37.659701,26.554246 C 36.57445,31.342053 20.001703,38.533002 14.643221,35.95211 L 14.48567,21.708363 C 17.509939,21.962669 32.088217,20.560029 37.659701,11.188566 z"
       id="path9471" />
    <path
       style="fill:none;stroke:#5e2700;stroke-width:0.90000004;stroke-linecap:round;stroke-linejoin:round;stroke-miterlimit:10"
       stroke-miterlimit="10"
       d="M 17.968509,22.062982 C 18.058289,22.601511 17.438645,23.113642 18.373388,24.851543 C 19.632913,27.189569 22.871063,23.007169 20.173338,23.547457 C 17.46505,24.088627 19.543135,27.776496 22.60173,26.065874"
       id="path9473" />
    <path
       style="fill:none;stroke:#5e2700;stroke-width:0.90000004;stroke-linecap:round;stroke-linejoin:round;stroke-miterlimit:10"
       stroke-miterlimit="10"
       d="M 17.935062,25.922442 C 18.043323,26.593843 17.303099,27.230047 18.419157,29.387684 C 19.923369,32.290638 23.791722,27.095415 20.568535,27.765056 C 17.334785,28.438218 19.816868,33.019237 23.47046,30.895038"
       id="path9475" />
    <path
       style="fill:none;stroke:#5e2700;stroke-width:0.90000004;stroke-linecap:round;stroke-linejoin:round;stroke-miterlimit:10"
       stroke-miterlimit="10"
       d="M 18.339941,30.473542 C 18.447322,31.115025 17.704458,31.725711 18.824915,33.793593 C 20.331769,36.576873 24.208043,31.596358 20.978695,32.238721 C 17.737904,32.883725 20.224388,37.274673 23.885901,35.238469"
       id="path9477" />
    <path
       style="fill:none;stroke:#5e2700;stroke-width:0.90000004;stroke-linecap:round;stroke-linejoin:round;stroke-miterlimit:10"
       stroke-miterlimit="10"
       d="M 23.98184,20.124453 C 24.06018,20.596987 23.517989,21.046641 24.338308,22.567194 C 25.440283,24.615716 28.277956,20.951606 25.912936,21.424139 C 23.542634,21.898432 25.361068,25.129607 28.04119,23.631052"
       id="path9479" />
    <path
       style="fill:none;stroke:#5e2700;stroke-width:0.90000004;stroke-linecap:round;stroke-linejoin:round;stroke-miterlimit:10"
       stroke-miterlimit="10"
       d="M 24.75551,24.052549 C 24.84705,24.596358 24.216845,25.112008 25.16655,26.862228 C 26.446319,29.219614 29.7364,25.003774 26.994666,25.547583 C 24.24413,26.094032 26.353902,29.809181 29.461786,28.086238"
       id="path9481" />
    <path
       style="fill:none;stroke:#5e2700;stroke-width:0.90000004;stroke-linecap:round;stroke-linejoin:round;stroke-miterlimit:10"
       stroke-miterlimit="10"
       d="M 25.915576,28.507734 C 26.014156,29.072662 25.339063,29.609431 26.356542,31.430928 C 27.727849,33.881587 31.252055,29.498558 28.314923,30.062606 C 25.36899,30.631053 27.629269,34.494912 30.958958,32.703335"
       id="path9483" />
    <path
       style="fill:none;stroke:#5e2700;stroke-width:0.90000004;stroke-linecap:round;stroke-linejoin:round;stroke-miterlimit:10"
       stroke-miterlimit="10"
       d="M 29.577969,17.848024 C 29.658069,18.320556 29.114999,18.769331 29.931798,20.291644 C 31.036413,22.339287 33.874966,18.675176 31.509945,19.147709 C 29.137003,19.622882 30.958078,22.853178 33.6382,21.355503"
       id="path9485" />
    <path
       style="fill:none;stroke:#5e2700;stroke-width:0.90000004;stroke-linecap:round;stroke-linejoin:round;stroke-miterlimit:10"
       stroke-miterlimit="10"
       d="M 30.366602,21.865873 C 30.445812,22.338407 29.902752,22.788061 30.722191,24.308614 C 31.825047,26.357137 34.662719,22.693026 32.297698,23.16556 C 29.926517,23.639852 31.746712,26.871027 34.425953,25.372473"
       id="path9487" />
    <path
       style="fill:none;stroke:#5e2700;stroke-width:0.90000004;stroke-linecap:round;stroke-linejoin:round;stroke-miterlimit:10"
       stroke-miterlimit="10"
       d="M 31.194844,25.922442 C 31.283744,26.465371 30.666741,26.984541 31.597962,28.73652 C 32.850446,31.095667 36.074514,26.874547 33.388231,27.420116 C 30.693146,27.966565 32.761549,31.688753 35.806062,29.962292"
       id="path9489" />
    <path
       style="fill:none;stroke:#5e2700;stroke-width:0.90000004;stroke-linecap:round;stroke-linejoin:round;stroke-miterlimit:10"
       stroke-miterlimit="10"
       d="M 35.094003,14.671405 C 35.142413,15.147458 34.570301,15.560155 35.289401,17.131744 C 36.255829,19.246263 39.326747,15.775742 36.936201,16.093404 C 34.536854,16.412825 36.144927,19.753994 38.917467,18.43407"
       id="path9491" />
    <path
       style="fill:none;stroke:#5e2700;stroke-width:0.90000004;stroke-linecap:round;stroke-linejoin:round;stroke-miterlimit:10"
       stroke-miterlimit="10"
       d="M 35.74797,18.678696 C 35.78582,19.156509 35.204025,19.556886 35.887037,21.144315 C 36.806817,23.281713 39.95519,19.878947 37.557603,20.142933 C 35.152975,20.409557 36.684473,23.785044 39.483418,22.527596"
       id="path9493" />
    <path
       style="fill:none;stroke:#5e2700;stroke-width:0.90000004;stroke-linecap:round;stroke-linejoin:round;stroke-miterlimit:10"
       stroke-miterlimit="10"
       d="M 35.965372,22.401763 C 35.975072,22.925333 35.33693,23.33099 35.958372,25.102329 C 36.797175,27.486992 40.344267,23.944315 37.790888,24.101826 C 35.22783,24.258457 36.635223,28.033441 39.679736,26.811191"
       id="path9495" />
    <path
       style="fill:none;stroke:#6f3e1c;stroke-width:0.90000004;stroke-linecap:round;stroke-linejoin:round;stroke-miterlimit:10"
       stroke-miterlimit="10"
       d="M 0.44077657,8.8505387 C 1.7020616,9.1655612 10.295175,17.159903 11.647118,19.778633 C 11.647118,19.778633 13.219104,23.66977 13.776252,24.584918 C 14.879108,26.397615 15.51019,23.245634 14.013018,22.772222 C 13.392497,22.575993 14.013018,29.313768 15.273424,30.100443 C 16.417647,30.815843 17.82152,28.776999 16.534709,27.973605"
       id="path9523" />
    <path
       style="fill:none;stroke:#6f3e1c;stroke-width:0.90000004;stroke-linecap:round;stroke-linejoin:round;stroke-miterlimit:10"
       stroke-miterlimit="10"
       d="M 0.51999157,11.450789 C 1.7812776,11.765812 8.0947456,17.892901 10.515217,22.879576 C 10.515217,22.879576 11.299451,24.115905 12.348615,26.912385 C 14.108957,31.605158 15.8693,28.819236 13.228786,24.858582 C 12.249155,23.389066 13.727843,34.923448 14.989128,35.711883 C 16.133351,36.426401 17.585634,34.53011 16.298824,33.725836"
       id="path9525" />
    <path
       style="fill:none;stroke:#6f3e1c;stroke-width:0.90000004;stroke-linecap:round;stroke-linejoin:round;stroke-miterlimit:10"
       stroke-miterlimit="10"
       d="M 0.59832657,6.3277228 C 1.8604926,6.6427444 9.7080996,13.420117 11.804668,17.255818 C 11.804668,17.255818 12.588021,19.570965 13.144289,20.486992 C 14.247144,22.298809 14.878227,19.146829 13.381936,18.673417 C 12.761415,18.478068 13.381027,25.214962 14.642341,26.001637 C 15.786564,26.717037 17.189557,24.677313 15.903627,23.873919"
       id="path9527" />
    <path
       style="opacity:0.27000002;fill:#c4835a"
       d="M 0.59832657,3.767068 C 1.7812776,4.5942211 15.864018,16.232437 14.564006,21.787559 C 20.436508,21.630048 25.104937,20.394598 28.593936,18.714774 C 31.786318,17.178382 34.662718,15.876937 37.659701,11.188566 C 27.550053,13.328602 11.239598,4.4763076 8.1651596,0.33878439 L 0.59832657,3.767068 z"
       id="path9541" />
    <g
       transform="matrix(0.8801714,0,0,0.8799497,-223.68429,-330.78719)"
       id="g9543">
      <path
         style="fill:none;stroke:#8f4f26;stroke-width:1.02265692;stroke-linecap:round;stroke-linejoin:round;stroke-miterlimit:10"
         stroke-miterlimit="10"
         d="M 254.817,379.972 C 256.251,380.331 266.207,389.974 267.729,392.392 C 267.729,392.392 269.341,395.706 270.416,395.795 C 271.49,395.884 273.909,395.258 271.401,394.003 C 269.394,393 270.246,397.735 271.177,399.466 C 272.431,401.794 275.655,397.63 272.969,398.167 C 270.274,398.706 272.342,402.376 275.387,400.675"
         id="path9545" />
      <path
         style="fill:none;stroke:#8f4f26;stroke-width:1.02265692;stroke-linecap:round;stroke-linejoin:round;stroke-miterlimit:10"
         stroke-miterlimit="10"
         d="M 257.813,378.75 C 259.246,379.108 269.118,388.292 271.126,390.688 C 271.126,390.688 273.819,394.095 274.894,394.185 C 275.969,394.274 278.387,393.646 275.879,392.393 C 273.872,391.389 275.745,396.422 278.117,397.497 C 280.735,398.683 283.401,395.124 280.714,395.662 C 278.02,396.202 280.088,399.871 283.132,398.169"
         id="path9547" />
      <path
         style="fill:none;stroke:#8f4f26;stroke-width:1.02265692;stroke-linecap:round;stroke-linejoin:round;stroke-miterlimit:10"
         stroke-miterlimit="10"
         d="M 261.313,377.375 C 262.344,378.54 272.43,387.388 275.251,389 C 275.251,389 278.825,391.613 279.774,392.124 C 281.52,393.064 284.207,390.646 281.118,389.975 C 278.924,389.498 282.102,393.064 284.475,394.139 C 287.095,395.325 290.037,393.466 287.341,392.975 C 284.878,392.526 286.893,397.9 289.758,395.482"
         id="path9549" />
      <path
         style="fill:none;stroke:#8f4f26;stroke-width:1.02265692;stroke-linecap:round;stroke-linejoin:round;stroke-miterlimit:10"
         stroke-miterlimit="10"
         d="M 263.638,376.211 C 264.668,377.375 272.063,383.812 280.375,386.875 C 280.375,386.875 285.201,388.254 286.151,388.765 C 287.896,389.705 290.314,387.153 286.687,386.75 C 284.457,386.502 287.992,390.419 290.5,390.688 C 293.359,390.995 297.813,388.685 295.086,388.408 C 291.998,388.095 294.64,393.333 297.504,390.915"
         id="path9551" />
    </g>
    <path
       sodipodi:nodetypes="cccccccc"
       id="use4674"
       d="M 34.573504,32.231398 L 25.180194,33.500359 L 27.343334,30.348857 L 22.640524,27.112232 L 25.524714,22.910231 L 30.227524,26.146854 L 32.390664,22.99535 L 34.573504,32.231398 z"
       style="fill:url(#linearGradient5901);fill-opacity:1;fill-rule:evenodd;stroke:#eeeeec;stroke-width:0.9999997px;stroke-linecap:butt;stroke-linejoin:miter;stroke-opacity:1" />
    <path
       sodipodi:nodetypes="cccccccc"
       id="use4676"
       d="M 24.159914,35.551412 L 33.984184,36.117992 L 31.131904,38.900842 L 35.251664,43.129627 L 31.448624,46.840093 L 27.328864,42.611308 L 24.476584,45.394159 L 24.159914,35.551412 L 24.159914,35.551412 z"
       style="fill:url(#linearGradient5898);fill-opacity:1;fill-rule:evenodd;stroke:#eeeeec;stroke-width:1.00000036px;stroke-linecap:butt;stroke-linejoin:miter;stroke-opacity:1" />
    <path
       sodipodi:nodetypes="cccccccc"
       id="use4682"
       d="M 34.965584,31.891481 L 37.895894,22.653743 L 39.857244,26.029182 L 44.894104,23.094428 L 47.509224,27.595013 L 42.472364,30.529769 L 44.433714,33.905209 L 34.965584,31.891481 z"
       style="fill:url(#linearGradient5892);fill-opacity:1;fill-rule:evenodd;stroke:#eeeeec;stroke-width:1.00000012px;stroke-linecap:butt;stroke-linejoin:miter;stroke-opacity:1" />
    <path
       sodipodi:nodetypes="cccccccc"
       id="use4684"
       d="M 39.077114,47.404711 L 34.393064,38.755943 L 38.322104,39.761013 L 39.836874,34.094922 L 45.075594,35.435015 L 43.560814,41.101103 L 47.489854,42.106173 L 39.077114,47.404711 L 39.077114,47.404711 z"
       style="fill:url(#linearGradient5889);fill-opacity:1;fill-rule:evenodd;stroke:#eeeeec;stroke-width:0.99999899px;stroke-linecap:butt;stroke-linejoin:miter;stroke-opacity:1" />
  </g>
</svg>
