<?xml version="1.0" encoding="UTF-8" standalone="no"?>
<!-- Created with Inkscape (http://www.inkscape.org/) -->
<svg
   xmlns:dc="http://purl.org/dc/elements/1.1/"
   xmlns:cc="http://creativecommons.org/ns#"
   xmlns:rdf="http://www.w3.org/1999/02/22-rdf-syntax-ns#"
   xmlns:svg="http://www.w3.org/2000/svg"
   xmlns="http://www.w3.org/2000/svg"
   xmlns:xlink="http://www.w3.org/1999/xlink"
   xmlns:sodipodi="http://sodipodi.sourceforge.net/DTD/sodipodi-0.dtd"
   xmlns:inkscape="http://www.inkscape.org/namespaces/inkscape"
   width="48px"
   height="48px"
   id="svg2383"
   sodipodi:version="0.32"
   inkscape:version="0.46"
   sodipodi:docname="paint_density.svg"
   inkscape:output_extension="org.inkscape.output.svg.inkscape">
  <defs
     id="defs2385">
    <linearGradient
       id="linearGradient3477">
      <stop
         style="stop-color:#ab6b00;stop-opacity:1;"
         offset="0"
         id="stop3479" />
      <stop
         style="stop-color:#764a00;stop-opacity:1;"
         offset="1"
         id="stop3481" />
    </linearGradient>
    <linearGradient
       id="linearGradient3359">
      <stop
         style="stop-color:#965e05;stop-opacity:1;"
         offset="0"
         id="stop3361" />
      <stop
         id="stop3367"
         offset="0.5"
         style="stop-color:#e5ac52;stop-opacity:1;" />
      <stop
         style="stop-color:#965e05;stop-opacity:1;"
         offset="1"
         id="stop3363" />
    </linearGradient>
    <linearGradient
       id="linearGradient3165">
      <stop
         style="stop-color:#f3bf6c;stop-opacity:1;"
         offset="0"
         id="stop3167" />
      <stop
         style="stop-color:#c17d11;stop-opacity:1;"
         offset="1"
         id="stop3169" />
    </linearGradient>
    <inkscape:perspective
       sodipodi:type="inkscape:persp3d"
       inkscape:vp_x="0 : 24 : 1"
       inkscape:vp_y="0 : 1000 : 0"
       inkscape:vp_z="48 : 24 : 1"
       inkscape:persp3d-origin="24 : 16 : 1"
       id="perspective2391" />
    <linearGradient
       inkscape:collect="always"
       xlink:href="#linearGradient3477"
       id="linearGradient3483"
       x1="-12.052973"
       y1="16.642857"
       x2="-9.0898857"
       y2="16.642857"
       gradientUnits="userSpaceOnUse" />
  </defs>
  <sodipodi:namedview
     id="base"
     pagecolor="#ffffff"
     bordercolor="#666666"
     borderopacity="1.0"
     inkscape:pageopacity="0.0"
     inkscape:pageshadow="2"
     inkscape:zoom="14"
     inkscape:cx="10.647212"
     inkscape:cy="21.148549"
     inkscape:current-layer="layer2"
     showgrid="true"
     inkscape:grid-bbox="true"
     inkscape:document-units="px"
     inkscape:window-width="1920"
     inkscape:window-height="1115"
     inkscape:window-x="0"
     inkscape:window-y="56" />
  <metadata
     id="metadata2388">
    <rdf:RDF>
      <cc:Work
         rdf:about="">
        <dc:format>image/svg+xml</dc:format>
        <dc:type
           rdf:resource="http://purl.org/dc/dcmitype/StillImage" />
      </cc:Work>
    </rdf:RDF>
  </metadata>
  <g
     id="layer1"
     inkscape:label="Scalp"
     inkscape:groupmode="layer">
    <path
       style="fill:#000000;fill-opacity:0.25098039;fill-rule:evenodd;stroke:none;stroke-width:1;stroke-linecap:butt;stroke-linejoin:round;stroke-miterlimit:4;stroke-dasharray:none;stroke-opacity:1"
       d="M 0.28571523,47.585623 C 16.082379,42.8643 30.312479,43.026938 47.714284,47.585623 L 37.246449,29.236356 C 27.980702,26.90337 18.773717,26.712605 10.025511,29.236356 L 0.28571523,47.585623 z"
       id="path3173"
       sodipodi:nodetypes="ccccc" />
    <path
       style="fill:#d3d7cf;fill-opacity:1;fill-rule:evenodd;stroke:#555753;stroke-width:1;stroke-linecap:butt;stroke-linejoin:round;stroke-miterlimit:4;stroke-dasharray:none;stroke-opacity:1"
       d="M 0.28571524,44.942765 C 16.08238,40.221442 30.31248,40.38408 47.714285,44.942765 L 37.24645,26.593498 C 27.980703,24.260512 18.773718,24.069747 10.025511,26.593498 L 0.28571524,44.942765 z"
       id="path2393"
       sodipodi:nodetypes="ccccc" />
    <path
       style="fill:none;fill-opacity:1;fill-rule:evenodd;stroke:#ffffff;stroke-width:1;stroke-linecap:butt;stroke-linejoin:miter;stroke-miterlimit:4;stroke-dasharray:none;stroke-opacity:0.50196078"
       d="M 2.2770505,43.29215 C 16.540774,39.273186 29.681774,39.610693 45.672446,43.342657 L 36.655576,27.505844 C 27.979068,25.306876 18.489002,25.115704 10.682176,27.455336 L 2.2770505,43.29215 z"
       id="path3177"
       sodipodi:nodetypes="ccccc" />
  </g>
  <g
     inkscape:groupmode="layer"
     id="layer2"
     inkscape:label="Hairs">
    <path
       sodipodi:nodetypes="ccccc"
       id="path3224"
       d="M -10.707783,23.526531 L -11.160116,9.8276281 C -11.004127,9.1976493 -10.190632,9.02036 -9.7635874,9.8665533 L -9.5541714,23.669788 C -9.6094736,24.455551 -10.500544,24.463122 -10.707783,23.526531 z"
       style="fill:#000000;fill-rule:evenodd;stroke:url(#linearGradient3483);stroke-width:0.50000005999999997;stroke-linecap:butt;stroke-linejoin:miter;stroke-miterlimit:4;stroke-dasharray:none;stroke-opacity:1;fill-opacity:1" />
    <use
       x="0"
       y="0"
       xlink:href="#path3224"
       id="use3287"
       transform="matrix(0.997965,6.3764726e-2,-6.3764726e-2,0.997965,37.270019,3.5411445)"
       width="48"
       height="48" />
    <use
       height="48"
       width="48"
       transform="matrix(0.9941138,0.1083413,-0.1083413,0.9941138,42.053955,4.6004291)"
       id="use3289"
       xlink:href="#path3224"
       y="0"
       x="0" />
    <use
       x="0"
       y="0"
       xlink:href="#path3224"
       id="use3291"
       transform="matrix(0.9882963,0.1525463,-0.1525463,0.9882963,49.558447,6.2306083)"
       width="48"
       height="48" />
    <use
       x="0"
       y="0"
       xlink:href="#path3224"
       id="use3301"
       transform="matrix(1.03859,0.1131884,-0.1131884,1.03859,43.059466,8.4015565)"
       width="48"
       height="48" />
    <use
       height="48"
       width="48"
       transform="matrix(1.0209349,0.2217494,-0.2217494,1.0209349,52.577278,9.3785364)"
       id="use3303"
       xlink:href="#path3224"
       y="0"
       x="0" />
    <use
       height="48"
       width="48"
       transform="matrix(-1.03859,0.1131884,0.1131884,1.03859,1.365284,6.9015565)"
       id="use3305"
       xlink:href="#path3224"
       y="0"
       x="0" />
    <use
       height="48"
       width="48"
       transform="matrix(1.0805231,0.1177584,-0.1177584,1.0805231,46.446639,10.02836)"
       id="use3341"
       xlink:href="#path3224"
       y="0"
       x="0" />
    <use
       x="0"
       y="0"
       xlink:href="#path3224"
       id="use3343"
       transform="matrix(1.0621552,0.2307025,-0.2307025,1.0621552,55.188574,11.465374)"
       width="48"
       height="48" />
    <use
       height="48"
       width="48"
       transform="matrix(1.126415,0.1586933,-0.1586933,1.126415,39.385249,8.612745)"
       id="use3349"
       xlink:href="#path3224"
       y="0"
       x="0" />
    <use
       height="48"
       width="48"
       transform="matrix(1.1116195,0.2414463,-0.2414463,1.1116195,57.147761,14.369579)"
       id="use3353"
       xlink:href="#path3224"
       y="0"
       x="0" />
    <use
       x="0"
       y="0"
       xlink:href="#path3224"
       id="use3357"
       transform="matrix(-1.1116195,0.2414463,0.2414463,1.1116195,-10.080154,13.726722)"
       width="48"
       height="48" />
    <use
       x="0"
       y="0"
       xlink:href="#path3224"
       id="use3437"
       transform="matrix(1.2016456,0.1692921,-0.1692921,1.2016456,43.679266,12.478762)"
       width="48"
       height="48" />
    <use
       height="48"
       width="48"
       transform="matrix(1.1961181,0.2047274,-0.2047274,1.1961181,50.970265,13.772719)"
       id="use3439"
       xlink:href="#path3224"
       y="0"
       x="0" />
    <use
       x="0"
       y="0"
       xlink:href="#path3224"
       id="use3441"
       transform="matrix(1.1669333,0.3329845,-0.3329845,1.1669333,62.186522,17.043075)"
       width="48"
       height="48" />
    <use
       height="48"
       width="48"
       transform="matrix(-0.997965,6.3764726e-2,6.3764726e-2,0.997965,9.9434034,3.6125731)"
       id="use3447"
       xlink:href="#path3224"
       y="0"
       x="0" />
    <use
       x="0"
       y="0"
       xlink:href="#path3224"
       id="use3453"
       transform="matrix(-1.126415,0.1586933,0.1586933,1.126415,5.2567446,11.755602)"
       width="48"
       height="48" />
    <use
       height="48"
       width="48"
       transform="matrix(1.0209349,0.2217494,-0.2217494,1.0209349,52.438131,16.448606)"
       id="use8720"
       xlink:href="#path3224"
       y="0"
       x="0" />
  </g>
</svg>
