<?xml version="1.0" encoding="UTF-8" standalone="no"?>
<!-- Generator: Adobe Illustrator 15.0.0, SVG Export Plug-In . SVG Version: 6.00 Build 0)  -->

<svg
   xmlns:a="http://ns.adobe.com/AdobeSVGViewerExtensions/3.0/"
   xmlns:dc="http://purl.org/dc/elements/1.1/"
   xmlns:cc="http://creativecommons.org/ns#"
   xmlns:rdf="http://www.w3.org/1999/02/22-rdf-syntax-ns#"
   xmlns:svg="http://www.w3.org/2000/svg"
   xmlns="http://www.w3.org/2000/svg"
   xmlns:xlink="http://www.w3.org/1999/xlink"
   xmlns:sodipodi="http://sodipodi.sourceforge.net/DTD/sodipodi-0.dtd"
   xmlns:inkscape="http://www.inkscape.org/namespaces/inkscape"
   version="1.0"
   id="Layer_1"
   x="0px"
   y="0px"
   width="48"
   height="48"
   viewBox="0 0 612 792"
   enable-background="new 0 0 612 792"
   xml:space="preserve"
   sodipodi:version="0.32"
   inkscape:version="0.48.5 r10040"
   sodipodi:docname="transfer.svg"
   inkscape:output_extension="org.inkscape.output.svg.inkscape"><metadata
     id="metadata9213"><rdf:RDF><cc:Work
         rdf:about=""><dc:format>image/svg+xml</dc:format><dc:type
           rdf:resource="http://purl.org/dc/dcmitype/StillImage" /><dc:title /></cc:Work></rdf:RDF></metadata><defs
     id="defs9211"><linearGradient
       id="linearGradient54923"><stop
         style="stop-color:#d3d7cf;stop-opacity:1;"
         offset="0"
         id="stop54925" /><stop
         style="stop-color:#b8beb1;stop-opacity:1;"
         offset="1"
         id="stop54927" /></linearGradient><linearGradient
       id="linearGradient54894"><stop
         style="stop-color:#e9b96e;stop-opacity:1;"
         offset="0"
         id="stop54896" /><stop
         style="stop-color:#e2a340;stop-opacity:1;"
         offset="1"
         id="stop54898" /></linearGradient><radialGradient
       inkscape:collect="always"
       xlink:href="#linearGradient54894"
       id="radialGradient54900"
       cx="13.042956"
       cy="22.50155"
       fx="13.042956"
       fy="22.50155"
       r="9.4717728"
       gradientTransform="matrix(18.198926,0,0,25.543573,-133.35909,-178.52175)"
       gradientUnits="userSpaceOnUse" /><radialGradient
       inkscape:collect="always"
       xlink:href="#linearGradient54923"
       id="radialGradient54929"
       cx="497.34445"
       cy="374.36754"
       fx="497.34445"
       fy="374.36754"
       r="159.84994"
       gradientTransform="matrix(1.1530737,0,0,1.3211193,-66.086541,-88.988448)"
       gradientUnits="userSpaceOnUse" /><linearGradient
       inkscape:collect="always"
       xlink:href="#XMLID_14_"
       id="linearGradient20076"
       x1="13.270604"
       y1="35.535107"
       x2="34.330776"
       y2="35.85257"
       gradientUnits="userSpaceOnUse" /><linearGradient
       gradientTransform="matrix(0,-1.06403,-1.352201,0,410.4976,-83.41566)"
       y2="297.60828"
       x2="-81.454582"
       y1="297.60828"
       x1="-95.827209"
       gradientUnits="userSpaceOnUse"
       id="XMLID_14_"><stop
         id="stop10062"
         style="stop-color:#e96712;stop-opacity:0;"
         offset="0" /><stop
         offset="0.5"
         style="stop-color:#ef0909;stop-opacity:1;"
         id="stop20078" /><stop
         id="stop10066"
         style="stop-color:#f57900"
         offset="1" /><a:midPointStop
         style="stop-color:#E96712"
         offset="0" /><a:midPointStop
         style="stop-color:#E96712"
         offset="0.4689" /><a:midPointStop
         style="stop-color:#CB1009"
         offset="1" /></linearGradient><linearGradient
       inkscape:collect="always"
       xlink:href="#linearGradient13805"
       id="linearGradient13811"
       x1="8.0699759"
       y1="9.3144464"
       x2="8.0300264"
       y2="15.392443"
       gradientUnits="userSpaceOnUse"
       gradientTransform="matrix(0.01190024,1.804928,-1.770973,0.01186354,40.62826,22.44618)" /><linearGradient
       id="linearGradient13805"><stop
         style="stop-color:#590b08;stop-opacity:1;"
         offset="0"
         id="stop13807" /><stop
         style="stop-color:black;stop-opacity:0;"
         offset="1"
         id="stop13809" /></linearGradient><linearGradient
       gradientTransform="matrix(16.5,0,0,16.5,-121.54473,58.382019)"
       y2="35.85257"
       x2="34.330776"
       y1="35.535107"
       x1="13.270604"
       gradientUnits="userSpaceOnUse"
       id="linearGradient50898"
       xlink:href="#XMLID_14_"
       inkscape:collect="always" /><linearGradient
       y2="15.392443"
       x2="8.0300264"
       y1="9.3144464"
       x1="8.0699759"
       gradientTransform="matrix(0.19635396,29.781312,-29.221054,0.19574841,548.82157,428.74399)"
       gradientUnits="userSpaceOnUse"
       id="linearGradient50900"
       xlink:href="#linearGradient13805"
       inkscape:collect="always" /></defs><sodipodi:namedview
     inkscape:window-height="1537"
     inkscape:window-width="2560"
     inkscape:pageshadow="2"
     inkscape:pageopacity="0.0"
     guidetolerance="10.0"
     gridtolerance="10.0"
     objecttolerance="10.0"
     borderopacity="1.0"
     bordercolor="#666666"
     pagecolor="#ffffff"
     id="base"
     showgrid="false"
     inkscape:zoom="18.666667"
     inkscape:cx="14.400869"
     inkscape:cy="23.226477"
     inkscape:window-x="-8"
     inkscape:window-y="-8"
     inkscape:current-layer="Layer_1"
     inkscape:window-maximized="1" /><path
     style="color:#000000;fill:url(#radialGradient54900);fill-opacity:1;fill-rule:evenodd;stroke:#c17d11;stroke-width:8.25;stroke-linecap:butt;stroke-linejoin:miter;stroke-miterlimit:4;stroke-opacity:1;stroke-dasharray:none;stroke-dashoffset:0;marker:none;visibility:visible;display:inline;overflow:visible;enable-background:accumulate"
     d="M 271.24201,396.22108 C 262.66738,526.46635 161.13161,636.63135 104.03938,633.775 46.947156,630.91866 -54.588616,519.80156 -63.163243,396.22108 -72.244563,265.33793 11.695926,158.66715 104.03938,158.66715 c 92.34348,0 175.82132,106.63955 167.20263,237.55393 z"
     id="path54891"
     inkscape:connector-curvature="0"
     sodipodi:nodetypes="szsss" /><path
     style="fill:#c17d11;stroke:#603c01;stroke-width:8.25;stroke-linecap:butt;stroke-linejoin:miter;stroke-miterlimit:4;stroke-opacity:1;stroke-dasharray:none"
     d="m -58.795966,422.62459 c -13.98931,-43.60707 -21.792265,-97.21656 -20.884275,-134.64924 0.90799,-37.43268 8.888339,-74.98188 33.01063,-86.17551 12.670179,-5.87943 47.15804058,6.73247 47.15804058,6.73247 C -24.437963,189.74822 -49.364357,192.89836 -74.290749,204.49283 -48.560107,153.21991 -2.4806921,130.6559 53.709646,122.3568 32.151685,121.23472 23.618324,114.72668 22.046391,90.714233 35.603548,107.72458 136.03125,80.226148 173.62581,97.446694 c 37.59455,17.220546 51.37454,80.571076 49.1791,96.274206 -2.19543,15.70314 -20.84676,29.07348 -55.24227,44.43423 -34.39552,15.36077 -149.878063,1.58659 -175.1584469,22.21713 -25.2803841,20.63054 -37.0291661,53.17838 -47.1580411,76.07682 -10.128875,22.89842 -4.042118,86.17551 -4.042118,86.17551 z"
     id="path54373"
     inkscape:connector-curvature="0"
     sodipodi:nodetypes="czscccczzzzzc" /><path
     style="fill:#c17d11;stroke:#633d01;stroke-width:8.25;stroke-linecap:butt;stroke-linejoin:miter;stroke-miterlimit:4;stroke-opacity:1;stroke-dasharray:none"
     d="m 187.09955,240.84812 c 28.58989,-12.43596 41.80561,-53.17029 45.13697,-53.85969 10.29532,-2.13059 32.56151,7.18128 45.81067,30.96931 13.24915,23.78804 8.48629,91.95174 4.04211,125.89704 -4.44416,33.94533 -22.90532,76.07682 -22.90532,76.07682 0,0 11.11734,-100.26455 -6.73689,-136.66897 -17.85421,-36.40442 -65.34754,-42.41451 -65.34754,-42.41451 z"
     id="path54375"
     inkscape:connector-curvature="0"
     sodipodi:nodetypes="cszzczc" /><path
     style="fill:#c17d11;stroke:#633d01;stroke-width:8.25;stroke-linecap:butt;stroke-linejoin:miter;stroke-miterlimit:4;stroke-opacity:1;stroke-dasharray:none"
     d="m -54.753848,444.8417 c 0,0 10.40267,50.86461 26.947451,69.34435 13.519945,15.10114 45.144056,22.38032 61.97914,40.39477 11.939671,12.7761 -8.860708,46.5931 25.600071,45.78074 40.520286,-0.95528 13.262138,-21.82242 16.842158,-32.98906 1.779668,-5.55108 54.854968,-7.86342 57.937018,2.69299 2.62336,8.98532 -24.94133,30.56625 12.12636,31.64257 31.666,0.91939 20.98219,-36.7934 34.35801,-51.1667 17.01363,-18.28246 41.57998,-22.92712 55.91596,-41.06803 14.65666,-18.5467 27.62113,-65.30488 27.62113,-65.30488 0,0 -4.55359,77.74333 -15.49478,105.69965 C 238.1375,577.82442 168.7288,683.14299 103.56243,683.17085 38.396068,683.19869 -28.499755,579.5998 -39.259063,552.56109 -50.018369,525.52238 -54.753848,444.8417 -54.753848,444.8417 z"
     id="path54377"
     inkscape:connector-curvature="0"
     sodipodi:nodetypes="cssssssssczzzc" /><path
     style="color:#000000;fill:#c17d11;fill-opacity:1;fill-rule:nonzero;stroke:#633d01;stroke-width:8.25000095;stroke-linecap:butt;stroke-linejoin:miter;stroke-miterlimit:4;stroke-opacity:1;stroke-dasharray:none;stroke-dashoffset:0;marker:none;visibility:visible;display:inline;overflow:visible;enable-background:accumulate"
     d="m 89.567562,472.53686 c -21.846206,-2.22894 -31.51545,30.64037 -52.612203,36.79286 -11.774248,3.43375 -17.082936,-18.72405 -16.258134,-19.79598 0,0 -12.5205953,25.93814 11.024298,31.20234 17.526468,3.9186 53.902373,-10.97127 67.615685,-23.03029 7.139382,-6.27815 1.635372,-24.00528 -9.769646,-25.16893 z"
     id="path54379"
     inkscape:connector-curvature="0"
     sodipodi:nodetypes="sscsss" /><path
     sodipodi:nodetypes="sscsss"
     inkscape:connector-curvature="0"
     id="path54889"
     d="m 128.03834,472.01154 c 21.8462,-2.22895 31.51545,30.64036 52.6122,36.79286 11.77425,3.43376 17.08294,-18.72404 16.25814,-19.79598 0,0 12.52058,25.93814 -11.0243,31.20234 -17.52647,3.91859 -53.90238,-10.97126 -67.61568,-23.03029 -7.13939,-6.27815 -1.63539,-24.00527 9.76964,-25.16893 z"
     style="color:#000000;fill:#c17d11;fill-opacity:1;fill-rule:nonzero;stroke:#633d01;stroke-width:8.25000095;stroke-linecap:butt;stroke-linejoin:miter;stroke-miterlimit:4;stroke-opacity:1;stroke-dasharray:none;stroke-dashoffset:0;marker:none;visibility:visible;display:inline;overflow:visible;enable-background:accumulate" /><path
     sodipodi:nodetypes="szsss"
     inkscape:connector-curvature="0"
     id="path54919"
     d="M 686.29404,405.57206 C 677.12092,519.21894 568.49821,615.34457 507.42109,612.85224 446.34398,610.35991 337.72128,513.4035 328.54817,405.57206 c -9.71518,-114.20348 80.08414,-207.2802 178.87292,-207.2802 98.78882,0 188.09319,93.04948 178.87295,207.2802 z"
     style="color:#000000;fill:url(#radialGradient54929);fill-opacity:1;fill-rule:evenodd;stroke:#888a85;stroke-width:8.25;stroke-linecap:butt;stroke-linejoin:miter;stroke-miterlimit:4;stroke-opacity:1;stroke-dasharray:none;stroke-dashoffset:0;marker:none;visibility:visible;display:inline;overflow:visible;enable-background:accumulate" /><path
     style="color:#000000;fill:#000000;fill-opacity:1;fill-rule:nonzero;stroke:#555753;stroke-width:8.25;stroke-linecap:butt;stroke-linejoin:miter;stroke-miterlimit:4;stroke-opacity:1;stroke-dashoffset:0;marker:none;visibility:visible;display:inline;overflow:visible;enable-background:accumulate"
     d="m 475.3855,440.14255 c -6.3145,15.40544 -103.66922,20.63328 -120.14292,-38.88146 -10.34821,-37.38507 13.47625,-62.43653 42.9658,-57.8808 40.65297,6.28034 85.69702,75.97625 77.17712,96.76226 z"
     id="path54931"
     inkscape:connector-curvature="0"
     sodipodi:nodetypes="ssss" /><path
     sodipodi:nodetypes="ssss"
     inkscape:connector-curvature="0"
     id="path54934"
     d="m 537.27144,433.07112 c 6.3145,15.40544 103.66922,20.63328 120.14292,-38.88146 10.34821,-37.38507 -13.47625,-62.43653 -42.9658,-57.8808 -40.65296,6.28034 -85.69701,75.97625 -77.17712,96.76226 z"
     style="color:#000000;fill:#000000;fill-opacity:1;fill-rule:nonzero;stroke:#555753;stroke-width:8.25;stroke-linecap:butt;stroke-linejoin:miter;stroke-miterlimit:4;stroke-opacity:1;stroke-dashoffset:0;marker:none;visibility:visible;display:inline;overflow:visible;enable-background:accumulate" /><path
     sodipodi:nodetypes="czscccczzzzzc"
     inkscape:connector-curvature="0"
     id="path54940"
     d="m 336.75161,413.59019 c -13.68412,-42.66647 -21.31683,-95.11961 -20.42865,-131.74486 0.88819,-36.62526 8.69442,-73.36452 32.29044,-84.3167 12.39376,-5.75262 46.1292,6.58724 46.1292,6.58724 -24.38257,-18.37891 -48.76515,-15.29673 -73.14773,-3.95234 25.16928,-50.16697 70.24339,-72.24428 125.20782,-80.36436 -21.08763,-1.09787 -29.43482,-7.46554 -30.97245,-30.960031 13.26137,16.643431 111.49806,-10.261857 148.27242,6.587241 36.77435,16.8491 50.2537,78.83315 48.10616,94.19757 -2.14752,15.36442 -20.39194,28.44636 -54.03705,43.47578 -33.64511,15.02944 -146.60819,1.55236 -171.33704,21.73791 -24.72884,20.18554 -36.2213,52.03132 -46.12919,74.43584 -9.90789,22.4045 -3.95393,84.31671 -3.95393,84.31671 z"
     style="fill:#8ae234;stroke:#386f04;stroke-width:8.25;stroke-linecap:butt;stroke-linejoin:miter;stroke-miterlimit:4;stroke-opacity:1;stroke-dasharray:none" /><path
     sodipodi:nodetypes="cszzczc"
     inkscape:connector-curvature="0"
     id="path54942"
     d="m 582.55434,233.87662 c 33.26232,-12.79992 48.63787,-54.72641 52.51367,-55.43598 11.97787,-2.19295 37.88301,7.39145 53.29746,31.87568 15.41444,24.48422 9.8732,94.64285 4.7027,129.58161 -5.17046,34.93879 -26.6487,78.30332 -26.6487,78.30332 0,0 7.63066,-94.35965 -13.14147,-131.82951 -20.7721,-37.46985 -70.72366,-52.49512 -70.72366,-52.49512 z"
     style="fill:#8ae234;stroke:#386f04;stroke-width:8.25;stroke-linecap:butt;stroke-linejoin:miter;stroke-miterlimit:4;stroke-opacity:1;stroke-dasharray:none" /><path
     sodipodi:nodetypes="cssssssssczzzc"
     inkscape:connector-curvature="0"
     id="path54944"
     d="m 351.24935,443.23277 c 0,0 10.17572,49.76746 26.35955,67.84859 13.22497,14.7754 44.15914,21.89758 60.62694,39.52345 11.67918,12.50052 -8.66739,45.58809 25.04156,44.79325 39.63626,-0.93467 12.97279,-21.35171 16.47471,-32.27748 1.74085,-5.43134 53.65821,-7.69381 56.67302,2.6349 2.56612,8.7915 -24.39719,29.90693 11.8618,30.96004 30.97514,0.89956 20.52442,-35.99976 33.60842,-50.06304 16.64245,-17.8881 40.67284,-22.43258 54.69605,-40.18218 14.3369,-18.14666 27.01852,-63.89626 27.01852,-63.89626 0,0 -4.45425,76.0664 -15.15673,103.41971 -10.70247,27.3533 -78.59689,130.40015 -142.34153,130.4274 -63.74463,0.0272 -129.181,-101.33702 -139.70557,-127.7925 -10.52457,-26.45549 -15.15674,-105.39588 -15.15674,-105.39588 z"
     style="fill:#8ae234;stroke:#386f04;stroke-width:8.25;stroke-linecap:butt;stroke-linejoin:miter;stroke-miterlimit:4;stroke-opacity:1;stroke-dasharray:none" /><path
     sodipodi:nodetypes="sscsss"
     inkscape:connector-curvature="0"
     id="path54946"
     d="m 492.42212,480.87013 c -21.36959,-2.18086 -30.82788,29.97946 -51.46437,35.99924 -11.51737,3.35968 -16.71024,-18.32017 -15.90343,-19.36899 0,0 -12.24743,25.37866 10.78378,30.52931 17.14409,3.83408 52.72639,-10.73462 66.14052,-22.53353 6.98363,-6.14273 1.59969,-23.48748 -9.5565,-24.62603 z"
     style="color:#000000;fill:#8ae234;fill-opacity:1;fill-rule:nonzero;stroke:#386f04;stroke-width:8.25000095;stroke-linecap:butt;stroke-linejoin:miter;stroke-miterlimit:4;stroke-opacity:1;stroke-dasharray:none;stroke-dashoffset:0;marker:none;visibility:visible;display:inline;overflow:visible;enable-background:accumulate" /><path
     style="color:#000000;fill:#8ae234;fill-opacity:1;fill-rule:nonzero;stroke:#386f04;stroke-width:8.25000095;stroke-linecap:butt;stroke-linejoin:miter;stroke-miterlimit:4;stroke-opacity:1;stroke-dasharray:none;stroke-dashoffset:0;marker:none;visibility:visible;display:inline;overflow:visible;enable-background:accumulate"
     d="m 530.05358,480.35614 c 21.36959,-2.18087 30.82788,29.97945 51.46437,35.99924 11.51737,3.35969 16.71024,-18.32016 15.90344,-19.36899 0,0 12.24742,25.37866 -10.78379,30.52931 -17.14409,3.83407 -52.72639,-10.73461 -66.14051,-22.53353 -6.98364,-6.14273 -1.59971,-23.48747 9.55649,-24.62603 z"
     id="path54948"
     inkscape:connector-curvature="0"
     sodipodi:nodetypes="sscsss" /><path
     sodipodi:type="arc"
     style="color:#000000;fill:#ffffff;fill-opacity:1;fill-rule:nonzero;stroke:none;stroke-width:0.50000000000000000;stroke-linecap:butt;stroke-linejoin:miter;stroke-miterlimit:4;stroke-opacity:1;stroke-dasharray:none;stroke-dashoffset:0;marker:none;visibility:visible;display:inline;overflow:visible;enable-background:accumulate"
     id="path54958"
     sodipodi:cx="28.553572"
     sodipodi:cy="22.5"
     sodipodi:rx="0.64285713"
     sodipodi:ry="0.64285713"
     d="m 29.196429,22.5 a 0.64285713,0.64285713 0 1 1 -1.285714,0 0.64285713,0.64285713 0 1 1 1.285714,0 z"
     transform="matrix(16.5,0,0,16.5,-90,0)" /><path
     transform="matrix(16.5,0,0,16.5,121.25892,0)"
     d="m 29.196429,22.5 a 0.64285713,0.64285713 0 1 1 -1.285714,0 0.64285713,0.64285713 0 1 1 1.285714,0 z"
     sodipodi:ry="0.64285713"
     sodipodi:rx="0.64285713"
     sodipodi:cy="22.5"
     sodipodi:cx="28.553572"
     id="path54960"
     style="color:#000000;fill:#ffffff;fill-opacity:1;fill-rule:nonzero;stroke:none;stroke-width:0.5;marker:none;visibility:visible;display:inline;overflow:visible;enable-background:accumulate"
     sodipodi:type="arc" /><path
     inkscape:connector-curvature="0"
     style="color:#000000;fill:url(#linearGradient50898);fill-opacity:1;fill-rule:nonzero;stroke:url(#linearGradient50900);stroke-width:16.50001144;stroke-linecap:butt;stroke-linejoin:round;stroke-miterlimit:4;stroke-opacity:1;stroke-dasharray:none;stroke-dashoffset:0;marker:none;visibility:visible;display:inline;overflow:visible"
     d="m 97.289296,643.24729 190.004234,-1.27281 -0.55275,-83.8349 157.25563,117.47695 -161.35723,108.04745 -0.47652,-72.27148 -181.62167,1.21671 -3.251654,-69.36188 z"
     id="path25963" /></svg>