<?xml version="1.0" encoding="UTF-8" standalone="no"?>
<!-- Created with Inkscape (http://www.inkscape.org/) -->

<svg
   xmlns:dc="http://purl.org/dc/elements/1.1/"
   xmlns:cc="http://creativecommons.org/ns#"
   xmlns:rdf="http://www.w3.org/1999/02/22-rdf-syntax-ns#"
   xmlns:svg="http://www.w3.org/2000/svg"
   xmlns="http://www.w3.org/2000/svg"
   xmlns:xlink="http://www.w3.org/1999/xlink"
   xmlns:sodipodi="http://sodipodi.sourceforge.net/DTD/sodipodi-0.dtd"
   xmlns:inkscape="http://www.inkscape.org/namespaces/inkscape"
   width="48px"
   height="48px"
   id="svg5208"
   version="1.1"
   inkscape:version="0.48.4 r9939"
   sodipodi:docname="awaken.svg">
  <defs
     id="defs5210">
    <linearGradient
       id="linearGradient6120">
      <stop
         style="stop-color:#8cb0e4;stop-opacity:1;"
         offset="0"
         id="stop6122" />
      <stop
         style="stop-color:#204a87;stop-opacity:1;"
         offset="1"
         id="stop6124" />
    </linearGradient>
    <linearGradient
       id="linearGradient6112">
      <stop
         style="stop-color:#90b2e5;stop-opacity:1;"
         offset="0"
         id="stop6114" />
      <stop
         style="stop-color:#204a87;stop-opacity:1;"
         offset="1"
         id="stop6116" />
    </linearGradient>
    <linearGradient
       id="linearGradient6090">
      <stop
         style="stop-color:#36689e;stop-opacity:1;"
         offset="0"
         id="stop6092" />
      <stop
         style="stop-color:#729fcf;stop-opacity:1;"
         offset="1"
         id="stop6094" />
    </linearGradient>
    <linearGradient
       id="linearGradient6064">
      <stop
         style="stop-color:#fcaf3e;stop-opacity:1;"
         offset="0"
         id="stop6066" />
      <stop
         style="stop-color:#be7203;stop-opacity:1;"
         offset="1"
         id="stop6068" />
    </linearGradient>
    <linearGradient
       id="linearGradient6056">
      <stop
         style="stop-color:#4fa2c7;stop-opacity:1;"
         offset="0"
         id="stop6058" />
      <stop
         style="stop-color:#2d718f;stop-opacity:1;"
         offset="1"
         id="stop6060" />
    </linearGradient>
    <linearGradient
       id="linearGradient5987">
      <stop
         style="stop-color:#ffffff;stop-opacity:1;"
         offset="0"
         id="stop5989" />
      <stop
         id="stop5995"
         offset="0.5"
         style="stop-color:#ffffff;stop-opacity:1;" />
      <stop
         style="stop-color:#d6d6d1;stop-opacity:1;"
         offset="1"
         id="stop5991" />
    </linearGradient>
    <linearGradient
       inkscape:collect="always"
       id="linearGradient5904">
      <stop
         style="stop-color:#eeeeec;stop-opacity:1;"
         offset="0"
         id="stop5906" />
      <stop
         style="stop-color:#eeeeec;stop-opacity:0;"
         offset="1"
         id="stop5908" />
    </linearGradient>
    <linearGradient
       id="linearGradient5896">
      <stop
         style="stop-color:#b8a0a0;stop-opacity:1;"
         offset="0"
         id="stop5898" />
      <stop
         style="stop-color:#644a4a;stop-opacity:1;"
         offset="1"
         id="stop5900" />
    </linearGradient>
    <linearGradient
       id="linearGradient5884">
      <stop
         style="stop-color:#fde5e5;stop-opacity:1;"
         offset="0"
         id="stop5886" />
      <stop
         style="stop-color:#d59b9b;stop-opacity:1;"
         offset="1"
         id="stop5888" />
    </linearGradient>
    <linearGradient
       inkscape:collect="always"
       id="linearGradient5866">
      <stop
         style="stop-color:#204a87;stop-opacity:1;"
         offset="0"
         id="stop5868" />
      <stop
         style="stop-color:#204a87;stop-opacity:0;"
         offset="1"
         id="stop5870" />
    </linearGradient>
    <linearGradient
       id="linearGradient5856">
      <stop
         style="stop-color:#cfdeef;stop-opacity:1;"
         offset="0"
         id="stop5858" />
      <stop
         style="stop-color:#6b9acd;stop-opacity:1;"
         offset="1"
         id="stop5860" />
    </linearGradient>
    <linearGradient
       inkscape:collect="always"
       id="linearGradient5818">
      <stop
         style="stop-color:#917600;stop-opacity:1;"
         offset="0"
         id="stop5820" />
      <stop
         style="stop-color:#917600;stop-opacity:0;"
         offset="1"
         id="stop5822" />
    </linearGradient>
    <linearGradient
       id="linearGradient52925-5-1">
      <stop
         style="stop-color:#fce94f;stop-opacity:1;"
         offset="0"
         id="stop52927-5-4" />
      <stop
         style="stop-color:#c4a000;stop-opacity:1"
         offset="1"
         id="stop52929-1-2" />
    </linearGradient>
    <linearGradient
       inkscape:collect="always"
       xlink:href="#linearGradient5818"
       id="linearGradient5824"
       x1="23.488764"
       y1="14.302057"
       x2="23.843756"
       y2="28.292669"
       gradientUnits="userSpaceOnUse"
       gradientTransform="matrix(1,0,0,1.1763179,0.05050763,0.59193238)" />
    <radialGradient
       inkscape:collect="always"
       xlink:href="#linearGradient5987"
       id="radialGradient5993"
       cx="10.606602"
       cy="14.462934"
       fx="10.606602"
       fy="14.462934"
       r="13.887059"
       gradientUnits="userSpaceOnUse" />
    <radialGradient
       inkscape:collect="always"
       xlink:href="#linearGradient5884"
       id="radialGradient6013"
       gradientUnits="userSpaceOnUse"
       gradientTransform="matrix(1.2153769,0.01433638,-0.01478433,1.2533513,-0.61187726,-2.5307588)"
       cx="3.5102801"
       cy="9.7505836"
       fx="3.5102801"
       fy="9.7505836"
       r="3.9862955" />
    <linearGradient
       inkscape:collect="always"
       xlink:href="#linearGradient5896"
       id="linearGradient6015"
       gradientUnits="userSpaceOnUse"
       x1="1.645305"
       y1="7.9221978"
       x2="7.4965758"
       y2="13.377022" />
    <linearGradient
       inkscape:collect="always"
       xlink:href="#linearGradient5904"
       id="linearGradient6017"
       gradientUnits="userSpaceOnUse"
       x1="7.3353362"
       y1="13.448522"
       x2="0.97045499"
       y2="6.106153" />
    <linearGradient
       inkscape:collect="always"
       xlink:href="#linearGradient6090"
       id="linearGradient6096"
       x1="9.4094877"
       y1="17.373728"
       x2="34.111343"
       y2="17.821428"
       gradientUnits="userSpaceOnUse" />
    <linearGradient
       inkscape:collect="always"
       xlink:href="#linearGradient5856"
       id="linearGradient6101"
       gradientUnits="userSpaceOnUse"
       gradientTransform="matrix(-0.83176406,-0.4234969,-0.4234969,0.83176406,52.235697,7.812362)"
       x1="20.913652"
       y1="15.926742"
       x2="18.295635"
       y2="21.489237" />
    <linearGradient
       inkscape:collect="always"
       xlink:href="#linearGradient5866"
       id="linearGradient6105"
       gradientUnits="userSpaceOnUse"
       gradientTransform="matrix(-0.83176406,-0.4234969,-0.4234969,0.83176406,52.235697,7.812362)"
       x1="6.4144687"
       y1="12.468595"
       x2="20.758635"
       y2="12.468595" />
    <linearGradient
       inkscape:collect="always"
       xlink:href="#linearGradient6112"
       id="linearGradient6118"
       x1="17.997499"
       y1="10.11164"
       x2="33.077552"
       y2="14.040212"
       gradientUnits="userSpaceOnUse" />
    <linearGradient
       inkscape:collect="always"
       xlink:href="#linearGradient6120"
       id="linearGradient6126"
       x1="28.073977"
       y1="2.6719747"
       x2="42.761864"
       y2="14.314832"
       gradientUnits="userSpaceOnUse" />
    <linearGradient
       inkscape:collect="always"
       xlink:href="#linearGradient6120"
       id="linearGradient6134"
       x1="9.4094877"
       y1="17.373728"
       x2="34.111343"
       y2="17.821428"
       gradientUnits="userSpaceOnUse" />
    <linearGradient
       inkscape:collect="always"
       xlink:href="#linearGradient6064"
       id="linearGradient6139"
       gradientUnits="userSpaceOnUse"
       gradientTransform="translate(0.07142857,-1.7142857)"
       x1="11.745642"
       y1="16.488253"
       x2="11.202329"
       y2="25.916824" />
    <linearGradient
       inkscape:collect="always"
       xlink:href="#linearGradient6056"
       id="linearGradient6142"
       gradientUnits="userSpaceOnUse"
       gradientTransform="translate(0.07142857,-1.7142857)"
       x1="4.3237071"
       y1="9.3840141"
       x2="0.76497406"
       y2="21.955442" />
    <radialGradient
       inkscape:collect="always"
       xlink:href="#linearGradient52925-5-1"
       id="radialGradient6146"
       cx="22.818993"
       cy="18.913042"
       fx="22.818993"
       fy="18.913042"
       r="17.62788"
       gradientTransform="matrix(1.5754309,-0.02582385,0.01665088,1.0158169,-13.643093,3.2715165)"
       gradientUnits="userSpaceOnUse" />
    <radialGradient
       inkscape:collect="always"
       xlink:href="#linearGradient5987"
       id="radialGradient6668"
       gradientUnits="userSpaceOnUse"
       cx="10.606602"
       cy="14.462934"
       fx="10.606602"
       fy="14.462934"
       r="13.887059" />
    <linearGradient
       inkscape:collect="always"
       xlink:href="#linearGradient6056"
       id="linearGradient6670"
       gradientUnits="userSpaceOnUse"
       gradientTransform="translate(0.07142857,-1.7142857)"
       x1="4.3237071"
       y1="9.3840141"
       x2="0.76497406"
       y2="21.955442" />
    <linearGradient
       inkscape:collect="always"
       xlink:href="#linearGradient6064"
       id="linearGradient6672"
       gradientUnits="userSpaceOnUse"
       gradientTransform="translate(0.07142857,-1.7142857)"
       x1="11.745642"
       y1="16.488253"
       x2="11.202329"
       y2="25.916824" />
  </defs>
  <sodipodi:namedview
     id="base"
     pagecolor="#ffffff"
     bordercolor="#666666"
     borderopacity="1.0"
     inkscape:pageopacity="0.0"
     inkscape:pageshadow="2"
     inkscape:zoom="14"
     inkscape:cx="12.346921"
     inkscape:cy="23.478016"
     inkscape:current-layer="layer1"
     showgrid="true"
     inkscape:grid-bbox="true"
     inkscape:document-units="px"
     inkscape:window-width="2560"
     inkscape:window-height="1496"
     inkscape:window-x="-8"
     inkscape:window-y="-8"
     inkscape:window-maximized="1" />
  <metadata
     id="metadata5213">
    <rdf:RDF>
      <cc:Work
         rdf:about="">
        <dc:format>image/svg+xml</dc:format>
        <dc:type
           rdf:resource="http://purl.org/dc/dcmitype/StillImage" />
        <dc:title></dc:title>
      </cc:Work>
    </rdf:RDF>
  </metadata>
  <g
     id="layer1"
     inkscape:label="Layer 1"
     inkscape:groupmode="layer">
    <g
       id="g6660"
       transform="matrix(0.87655517,0,0,0.87655517,-0.13372626,0.2670369)">
      <path
         transform="translate(0.07142857,-3.027484)"
         d="m 27.526657,17.341869 c 0,7.53154 -6.105519,13.63706 -13.637059,13.63706 -7.5315399,0 -13.63705932,-6.10552 -13.63705932,-13.63706 0,-7.5315395 6.10551942,-13.6370589 13.63705932,-13.6370589 7.53154,0 13.637059,6.1055194 13.637059,13.6370589 z"
         sodipodi:ry="13.637059"
         sodipodi:rx="13.637059"
         sodipodi:cy="17.341869"
         sodipodi:cx="13.889598"
         id="path5985"
         style="color:#000000;fill:url(#radialGradient6668);fill-opacity:1;fill-rule:nonzero;stroke:#888a85;stroke-width:0.57041478;stroke-miterlimit:4;stroke-dasharray:none;marker:none;visibility:visible;display:inline;overflow:visible;enable-background:accumulate"
         sodipodi:type="arc" />
      <path
         sodipodi:nodetypes="cccc"
         inkscape:connector-curvature="0"
         id="path6034"
         d="M 9.7417024,1.4509467 C 10.920782,1.869672 11.527283,2.7894025 12.122117,3.7193409 10.184324,3.0964422 6.6498012,2.6350158 4.6728217,4.5874918 6.0910527,3.3958404 7.3890721,2.1394595 9.7417024,1.4509467 z"
         style="fill:#ef2929;stroke:none" />
      <path
         sodipodi:nodetypes="cccc"
         inkscape:connector-curvature="0"
         id="path6036"
         d="M 0.55327388,12.963779 C 1.6058943,7.0893131 6.6193584,4.3081373 11.97926,3.8061883 3.9559016,7.6892229 0.50047785,15.96163 2.5976295,21.533269 1.4630484,19.678438 0.10857704,16.639293 0.55327388,12.963779 z"
         style="fill:url(#linearGradient6670);fill-opacity:1;stroke:none" />
      <path
         sodipodi:nodetypes="cccc"
         inkscape:connector-curvature="0"
         id="path6038"
         d="M 12.122117,3.6073214 C 6.9356891,11.57785 5.9388706,22.630862 9.4896592,26.767347 11.82146,27.741191 14.226216,27.547751 16.630901,27.355449 14.827055,19.69017 13.492362,11.633933 12.122117,3.6073214 z"
         style="fill:url(#linearGradient6672);fill-opacity:1;stroke:none" />
      <path
         sodipodi:nodetypes="cccc"
         inkscape:connector-curvature="0"
         id="path6040"
         d="m 12.178127,3.663331 c 4.928704,4.2630309 12.420097,12.225707 10.921898,20.443553 1.804666,-1.686071 3.856186,-4.68121 4.31275,-8.961558 C 25.013123,6.9191736 16.831671,4.2652129 12.178127,3.663331 z"
         style="fill:#4e9a06;stroke:none" />
      <path
         sodipodi:nodetypes="cccc"
         inkscape:connector-curvature="0"
         id="path6042"
         d="M 12.066108,3.7753506 C 11.904493,3.4829886 14.05458,1.2662032 15.454697,0.91885418 18.045298,1.2054274 20.248048,2.2233683 22.175864,3.467297 18.199618,2.6709156 14.97611,2.6774833 12.066108,3.7753506 z"
         style="fill:#ad7fa8;stroke:none" />
    </g>
    <path
       sodipodi:type="arc"
       style="color:#000000;fill:url(#linearGradient6096);fill-opacity:1;fill-rule:nonzero;stroke:url(#linearGradient6134);stroke-width:1.07982862000000000;stroke-miterlimit:4;stroke-dasharray:none;marker:none;visibility:visible;display:inline;overflow:visible;enable-background:accumulate"
       id="path6086"
       sodipodi:cx="25.071428"
       sodipodi:cy="17.821428"
       sodipodi:rx="8.5"
       sodipodi:ry="3.2978327"
       d="m 33.571428,17.821428 a 8.5,3.2978327 0 1 1 -17,0 8.5,3.2978327 0 1 1 17,0 z"
       transform="matrix(0.82657727,0.41883859,-0.41970279,0.82487529,10.541944,-9.1656238)" />
    <path
       sodipodi:nodetypes="sssssssssss"
       inkscape:connector-curvature="0"
       id="path5291"
       d="m 2.0444066,31.219712 c -0.073578,3.49581 5.6431576,4.020726 8.0998754,6.458013 2.37185,2.353094 3.184578,6.750177 6.328027,7.801281 3.554806,1.188651 7.15081,-2.550562 10.884206,-2.789861 3.918874,-0.251189 8.440952,3.690528 11.694194,1.446594 2.055154,-1.417549 0.530395,-5.241911 1.923719,-7.336303 1.381995,-2.077361 6.188383,-1.998526 5.923033,-4.494779 -0.40321,-3.793162 -6.786765,-3.205604 -10.22609,-4.701433 -4.450899,-1.935784 -8.633032,-5.298843 -13.466042,-5.528061 -5.135937,-0.243584 -10.163674,2.189303 -14.7822712,4.494779 -2.3471837,1.17165 -6.3225384,1.983796 -6.3786512,4.64977 z"
       style="fill:#c4a000;fill-opacity:0.54639175;stroke:none" />
    <path
       style="color:#000000;fill:#c4a000;fill-opacity:0.54639175;fill-rule:nonzero;stroke:none;marker:none;visibility:visible;display:inline;overflow:visible;enable-background:accumulate"
       d="m 4.014143,31.303387 c -0.0672,2.889216 5.1539777,3.323049 7.397734,5.337417 2.166245,1.944785 2.908521,5.578884 5.779479,6.4476 3.246656,0.982396 6.530938,-2.107988 9.940702,-2.305763 3.579165,-0.207603 7.709245,3.050147 10.680477,1.19558 1.877002,-1.171575 0.484418,-4.332333 1.756961,-6.063305 1.262195,-1.716897 5.65194,-1.651742 5.409592,-3.714844 -0.368258,-3.134971 -6.198452,-2.649367 -9.339637,-3.885639 -4.06507,-1.599886 -7.884672,-4.379386 -12.29873,-4.56883 -4.690727,-0.201318 -9.282632,1.809414 -13.5008634,3.714843 -2.1437168,0.968345 -5.7744659,1.639567 -5.8257146,3.842941 z"
       id="path5289"
       inkscape:connector-curvature="0"
       sodipodi:nodetypes="sssssssssss" />
    <path
       style="fill:#c4a000;fill-opacity:0.21134021;stroke:none"
       d="m -0.05434798,31.771014 c -0.0790539,3.898902 6.06314408,4.484344 8.70270038,7.202667 2.5483736,2.624423 3.4215886,7.52852 6.7989856,8.700824 3.819368,1.325711 7.683001,-2.84466 11.694252,-3.111552 4.210532,-0.280152 9.069162,4.116073 12.564524,1.613396 2.208106,-1.581001 0.569868,-5.846339 2.066889,-8.182229 1.484848,-2.316895 6.685348,-2.232938 6.363849,-5.013058 C 47.501602,27.48783 41.299558,28.345169 37.604264,26.67686 32.822112,24.517867 27.874158,21.827683 22.681456,21.572036 17.163281,21.300364 11.76136,24.01378 6.7990281,26.585093 c -2.5218705,1.30675 -6.79308714,2.212542 -6.85337608,5.185921 z"
       id="path5826"
       inkscape:connector-curvature="0"
       sodipodi:nodetypes="sssssssssss" />
    <path
       style="color:#000000;fill:url(#radialGradient6146);fill-opacity:1;fill-rule:nonzero;stroke:url(#linearGradient5824);stroke-width:0.74999994000000003;stroke-linecap:butt;stroke-linejoin:miter;stroke-miterlimit:4;stroke-opacity:1;stroke-dasharray:none;stroke-dashoffset:0;marker:none;visibility:visible;display:inline;overflow:visible;enable-background:accumulate"
       d="m 7.2972696,29.731864 c -0.0064,-1.325619 4.1941614,-3.975478 5.8095194,-5.193394 1.70722,-1.287176 6.056995,-7.763927 10.876749,-7.676869 4.625498,0.08355 8.78354,7.545763 11.390371,9.971741 2.532838,2.357121 6.382636,3.3886 6.429071,5.011218 0.01339,0.468051 -3.037016,1.788943 -3.496482,2.499749 -0.721352,1.115945 -0.05991,4.129699 -1.944233,5.064509 -2.513374,1.246877 -6.070592,-0.425747 -7.686841,-0.70387 -4.156059,-0.715173 -6.004126,2.019392 -8.857201,2.079579 -2.484198,0.05241 -3.571965,-2.675391 -6.559135,-6.17324 C 11.32156,32.342526 7.3067927,31.70433 7.2972696,29.731864 z"
       id="path4840"
       inkscape:connector-curvature="0"
       sodipodi:nodetypes="sssssssssss" />
    <path
       style="fill:#729fcf;stroke:url(#linearGradient6126);stroke-width:1.00000011999999990px;stroke-linecap:butt;stroke-linejoin:miter;stroke-opacity:1"
       d="M 19.93112,10.374438 C 20.055266,7.3640852 29.341544,-0.69126548 34.548562,0.78280615 38.825508,1.9935804 45.665209,13.608823 44.483969,14.51726 43.127085,15.560775 37.746235,9.0466389 36.42412,9.5671284 35.088682,10.092862 32.209346,17.50963 30.821672,17.45355 28.707352,17.368104 20.336806,11.819419 19.93112,10.374438 z"
       id="path5852"
       inkscape:connector-curvature="0"
       sodipodi:nodetypes="cssssc" />
    <path
       sodipodi:type="star"
       style="color:#000000;fill:#eeeeec;fill-opacity:1;fill-rule:nonzero;stroke:none;stroke-width:0.75;marker:none;visibility:visible;display:inline;overflow:visible;enable-background:accumulate"
       id="path5874"
       sodipodi:sides="5"
       sodipodi:cx="34.648232"
       sodipodi:cy="7.0383143"
       sodipodi:r1="4.8331866"
       sodipodi:r2="2.4165933"
       sodipodi:arg1="0.97120004"
       sodipodi:arg2="1.5995186"
       inkscape:flatsided="false"
       inkscape:rounded="0"
       inkscape:randomized="0"
       d="M 37.375643,11.028417 34.578831,9.4539109 31.696235,10.865247 32.329417,7.7187709 30.096386,5.4133861 33.284526,5.0432631 34.787032,2.2071212 36.12423,5.1248483 39.285861,5.677401 36.924154,7.8507785 z"
       inkscape:transform-center-x="-0.57955268"
       inkscape:transform-center-y="0.22650833"
       transform="matrix(-0.34641263,-0.17637775,-0.17637775,0.34641263,46.876423,7.4417624)" />
    <path
       transform="matrix(-0.34641263,-0.17637775,-0.17637775,0.34641263,41.698993,9.0906419)"
       inkscape:transform-center-y="0.22650852"
       inkscape:transform-center-x="-0.57955314"
       d="M 37.375643,11.028417 34.578831,9.4539109 31.696235,10.865247 32.329417,7.7187709 30.096386,5.4133861 33.284526,5.0432631 34.787032,2.2071212 36.12423,5.1248483 39.285861,5.677401 36.924154,7.8507785 z"
       inkscape:randomized="0"
       inkscape:rounded="0"
       inkscape:flatsided="false"
       sodipodi:arg2="1.5995186"
       sodipodi:arg1="0.97120004"
       sodipodi:r2="2.4165933"
       sodipodi:r1="4.8331866"
       sodipodi:cy="7.0383143"
       sodipodi:cx="34.648232"
       sodipodi:sides="5"
       id="path5876"
       style="color:#000000;fill:#eeeeec;fill-opacity:1;fill-rule:nonzero;stroke:none;stroke-width:0.75;marker:none;visibility:visible;display:inline;overflow:visible;enable-background:accumulate"
       sodipodi:type="star" />
    <path
       sodipodi:type="star"
       style="color:#000000;fill:#eeeeec;fill-opacity:1;fill-rule:nonzero;stroke:none;stroke-width:0.75;marker:none;visibility:visible;display:inline;overflow:visible;enable-background:accumulate"
       id="path5878"
       sodipodi:sides="5"
       sodipodi:cx="34.648232"
       sodipodi:cy="7.0383143"
       sodipodi:r1="4.8331866"
       sodipodi:r2="2.4165933"
       sodipodi:arg1="0.97120004"
       sodipodi:arg2="1.5995186"
       inkscape:flatsided="false"
       inkscape:rounded="0"
       inkscape:randomized="0"
       d="M 37.375643,11.028417 34.578831,9.4539109 31.696235,10.865247 32.329417,7.7187709 30.096386,5.4133861 33.284526,5.0432631 34.787032,2.2071212 36.12423,5.1248483 39.285861,5.677401 36.924154,7.8507785 z"
       inkscape:transform-center-x="-0.57955261"
       inkscape:transform-center-y="0.22650874"
       transform="matrix(-0.34641263,-0.17637775,-0.17637775,0.34641263,45.480552,13.819804)" />
    <path
       transform="matrix(-0.34641263,-0.17637775,-0.17637775,0.34641263,50.984215,10.802894)"
       inkscape:transform-center-y="0.2265087"
       inkscape:transform-center-x="-0.57955303"
       d="M 37.375643,11.028417 34.578831,9.4539109 31.696235,10.865247 32.329417,7.7187709 30.096386,5.4133861 33.284526,5.0432631 34.787032,2.2071212 36.12423,5.1248483 39.285861,5.677401 36.924154,7.8507785 z"
       inkscape:randomized="0"
       inkscape:rounded="0"
       inkscape:flatsided="false"
       sodipodi:arg2="1.5995186"
       sodipodi:arg1="0.97120004"
       sodipodi:r2="2.4165933"
       sodipodi:r1="4.8331866"
       sodipodi:cy="7.0383143"
       sodipodi:cx="34.648232"
       sodipodi:sides="5"
       id="path5880"
       style="color:#000000;fill:#eeeeec;fill-opacity:1;fill-rule:nonzero;stroke:none;stroke-width:0.75;marker:none;visibility:visible;display:inline;overflow:visible;enable-background:accumulate"
       sodipodi:type="star" />
    <path
       style="fill:url(#linearGradient6105);fill-opacity:1;stroke:none"
       d="m 42.957126,12.840541 c 0,0 -4.980773,-6.7366024 -8.512732,-6.4503481 -2.508761,0.2033273 -6.861991,7.1393171 -6.861991,7.1393171 l 4.510352,3.089986 4.353523,-7.1997888 5.850072,4.4069238 z"
       id="path5864"
       inkscape:connector-curvature="0"
       sodipodi:nodetypes="csccccc" />
    <path
       sodipodi:type="star"
       style="color:#000000;fill:#eeeeec;fill-opacity:1;fill-rule:nonzero;stroke:none;stroke-width:0.75;marker:none;visibility:visible;display:inline;overflow:visible;enable-background:accumulate"
       id="path5882"
       sodipodi:sides="5"
       sodipodi:cx="34.648232"
       sodipodi:cy="7.0383143"
       sodipodi:r1="4.8331866"
       sodipodi:r2="2.4165933"
       sodipodi:arg1="0.97120004"
       sodipodi:arg2="1.5995186"
       inkscape:flatsided="false"
       inkscape:rounded="0"
       inkscape:randomized="0"
       d="M 37.375643,11.028417 34.578831,9.4539109 31.696235,10.865247 32.329417,7.7187709 30.096386,5.4133861 33.284526,5.0432631 34.787032,2.2071212 36.12423,5.1248483 39.285861,5.677401 36.924154,7.8507785 z"
       inkscape:transform-center-x="-0.57955291"
       inkscape:transform-center-y="0.22650822"
       transform="matrix(-0.34641263,-0.17637775,-0.17637775,0.34641263,38.739653,13.032699)" />
    <path
       style="fill:url(#linearGradient6101);fill-opacity:1;stroke:url(#linearGradient6118);stroke-width:1.00000011999999990px;stroke-linecap:butt;stroke-linejoin:miter;stroke-opacity:1"
       d="m 32.519782,15.884697 c 0.315606,0.723867 -0.731086,4.003805 -1.463739,4.121638 -1.196149,0.192376 -4.324676,-4.102457 -6.819778,-5.42514 -2.389955,-1.266944 -7.040855,-1.973954 -7.162772,-2.646367 -0.130502,-0.719766 2.575957,-3.5914457 3.169393,-3.8351081 0.552525,-0.2268645 3.987961,0.7495455 7.717021,3.1554741 2.668563,1.721711 4.083797,3.537583 4.559875,4.629503 z"
       id="path5850"
       inkscape:connector-curvature="0"
       sodipodi:nodetypes="sssssss" />
    <path
       sodipodi:type="arc"
       style="color:#000000;fill:url(#radialGradient6013);fill-opacity:1;fill-rule:nonzero;stroke:url(#linearGradient6015);stroke-width:0.80353916;stroke-linecap:butt;stroke-linejoin:miter;stroke-miterlimit:4;stroke-opacity:1;stroke-dasharray:none;stroke-dashoffset:0;marker:none;visibility:visible;display:inline;overflow:visible;enable-background:accumulate"
       id="path5854"
       sodipodi:cx="4.3689098"
       sodipodi:cy="10.548594"
       sodipodi:rx="3.6112955"
       sodipodi:ry="3.661803"
       d="m 7.9802053,10.548594 a 3.6112955,3.661803 0 1 1 -7.22259093,0 3.6112955,3.661803 0 1 1 7.22259093,0 z"
       transform="matrix(-0.83176406,-0.4234969,-0.4234969,0.83176406,52.235697,7.812362)" />
    <path
       d="m 7.9802053,10.548594 a 3.6112955,3.661803 0 1 1 -7.22259093,0 3.6112955,3.661803 0 1 1 7.22259093,0 z"
       sodipodi:ry="3.661803"
       sodipodi:rx="3.6112955"
       sodipodi:cy="10.548594"
       sodipodi:cx="4.3689098"
       id="path5892"
       style="color:#000000;fill:none;stroke:url(#linearGradient6017);stroke-width:0.98175204;stroke-linecap:butt;stroke-linejoin:miter;stroke-miterlimit:4;stroke-opacity:1;stroke-dasharray:none;stroke-dashoffset:0;marker:none;visibility:visible;display:inline;overflow:visible;enable-background:accumulate"
       sodipodi:type="arc"
       transform="matrix(-0.68067979,-0.34657158,-0.34667139,0.68087583,50.765223,9.0679414)" />
    <path
       sodipodi:type="arc"
       style="color:#000000;fill:#eeeeec;stroke:#2e3436;stroke-width:0.71188295;stroke-linecap:butt;stroke-linejoin:miter;stroke-miterlimit:4;stroke-opacity:1;stroke-dasharray:none;stroke-dashoffset:0;marker:none;visibility:visible;display:inline;overflow:visible;enable-background:accumulate"
       id="path5912"
       sodipodi:cx="19.67272"
       sodipodi:cy="26.205959"
       sodipodi:rx="4.2173867"
       sodipodi:ry="4.2173867"
       d="m 23.890107,26.205959 a 4.2173867,4.2173867 0 1 1 -8.434774,0 4.2173867,4.2173867 0 1 1 8.434774,0 z"
       transform="matrix(1.3994798,0,0,1.4099905,-9.6466178,-12.87815)" />
    <path
       transform="matrix(1.1853933,0,0,1.1944216,5.7229683,-7.5067323)"
       d="m 23.890107,26.205959 a 4.2173867,4.2173867 0 1 1 -8.434774,0 4.2173867,4.2173867 0 1 1 8.434774,0 z"
       sodipodi:ry="4.2173867"
       sodipodi:rx="4.2173867"
       sodipodi:cy="26.205959"
       sodipodi:cx="19.67272"
       id="path5914"
       style="color:#000000;fill:#eeeeec;stroke:#2e3436;stroke-width:0.84040755;stroke-linecap:butt;stroke-linejoin:miter;stroke-miterlimit:4;stroke-opacity:1;stroke-dasharray:none;stroke-dashoffset:0;marker:none;visibility:visible;display:inline;overflow:visible;enable-background:accumulate"
       sodipodi:type="arc" />
    <path
       sodipodi:type="arc"
       style="color:#000000;fill:#eeeeec;fill-opacity:1;fill-rule:nonzero;stroke:#2e3436;stroke-width:1;stroke-linecap:butt;stroke-linejoin:miter;stroke-miterlimit:4;stroke-opacity:1;stroke-dasharray:none;stroke-dashoffset:0;marker:none;visibility:visible;display:inline;overflow:visible;enable-background:accumulate"
       id="path5916"
       sodipodi:cx="23.763838"
       sodipodi:cy="34.236671"
       sodipodi:rx="3.9648488"
       sodipodi:ry="3.9648488"
       d="m 27.728687,34.236671 a 3.9648488,3.9648488 0 1 1 -7.929698,0 3.9648488,3.9648488 0 1 1 7.929698,0 z"
       transform="translate(0.65659915,-0.30304576)" />
    <path
       sodipodi:type="arc"
       style="color:#000000;fill:#2e3436;fill-opacity:1;fill-rule:nonzero;stroke:none;stroke-width:1;marker:none;visibility:visible;display:inline;overflow:visible;enable-background:accumulate"
       id="path5918"
       sodipodi:cx="24.496199"
       sodipodi:cy="35.044792"
       sodipodi:rx="3.6365492"
       sodipodi:ry="2.3486047"
       d="m 28.132748,35.044792 a 3.6365492,2.3486047 0 1 1 -7.273099,0 3.6365492,2.3486047 0 1 1 7.273099,0 z"
       transform="matrix(1.1041667,0,0,1.1827957,-2.6779563,-6.178753)" />
    <path
       sodipodi:type="arc"
       style="color:#000000;fill:#2e3436;fill-opacity:1;fill-rule:nonzero;stroke:none;stroke-width:1;marker:none;visibility:visible;display:inline;overflow:visible;enable-background:accumulate"
       id="path5920"
       sodipodi:cx="19.369675"
       sodipodi:cy="24.236162"
       sodipodi:rx="1.085914"
       sodipodi:ry="1.6414979"
       d="m 20.455589,24.236162 a 1.085914,1.6414979 0 1 1 -2.171828,0 1.085914,1.6414979 0 1 1 2.171828,0 z"
       transform="matrix(1.3994798,0,0,1.4099905,-9.7678868,-11.182239)" />
    <path
       d="m 20.455589,24.236162 a 1.085914,1.6414979 0 1 1 -2.171828,0 1.085914,1.6414979 0 1 1 2.171828,0 z"
       sodipodi:ry="1.6414979"
       sodipodi:rx="1.085914"
       sodipodi:cy="24.236162"
       sodipodi:cx="19.369675"
       id="path5922"
       style="color:#000000;fill:#2e3436;fill-opacity:1;fill-rule:nonzero;stroke:none;stroke-width:1;marker:none;visibility:visible;display:inline;overflow:visible;enable-background:accumulate"
       sodipodi:type="arc"
       transform="matrix(1.1853933,0,0,1.1944216,5.3637399,-5.4556006)" />
  </g>
</svg>
