<?xml version="1.0" encoding="UTF-8" standalone="no"?>
<!-- Generator: Adobe Illustrator 11.0, SVG Export Plug-In . SVG Version: 6.0.0 Build 78)  -->
<svg
   xmlns:ns="http://ns.adobe.com/AdobeIllustrator/10.0/"
   xmlns:a="http://ns.adobe.com/AdobeSVGViewerExtensions/3.0/"
   xmlns:dc="http://purl.org/dc/elements/1.1/"
   xmlns:cc="http://web.resource.org/cc/"
   xmlns:rdf="http://www.w3.org/1999/02/22-rdf-syntax-ns#"
   xmlns:svg="http://www.w3.org/2000/svg"
   xmlns="http://www.w3.org/2000/svg"
   xmlns:xlink="http://www.w3.org/1999/xlink"
   xmlns:sodipodi="http://sodipodi.sourceforge.net/DTD/sodipodi-0.dtd"
   xmlns:inkscape="http://www.inkscape.org/namespaces/inkscape"
   ns:viewOrigin="2.6035 37.623"
   ns:rulerOrigin="0 0"
   ns:pageBounds="0 48 48 0"
   width="48"
   height="48"
   viewBox="0 0 45.091 28.9"
   overflow="visible"
   enable-background="new 0 0 45.091 28.9"
   xml:space="preserve"
   id="svg11974"
   sodipodi:version="0.32"
   inkscape:version="0.44.1"
   sodipodi:docname="collect.svg"
   sodipodi:docbase="/home/joe/dev/src/houdini/support/icons/pop"
   version="1.0"
   inkscape:output_extension="org.inkscape.output.svg.inkscape"><metadata
   id="metadata477"><rdf:RDF><cc:Work
       rdf:about=""><dc:format>image/svg+xml</dc:format><dc:type
         rdf:resource="http://purl.org/dc/dcmitype/StillImage" /></cc:Work></rdf:RDF></metadata><defs
   id="defs12187"><linearGradient
     inkscape:collect="always"
     id="linearGradient12401"><stop
       style="stop-color:#035884;stop-opacity:1;"
       offset="0"
       id="stop12403" /><stop
       style="stop-color:#035884;stop-opacity:0;"
       offset="1"
       id="stop12405" /></linearGradient><linearGradient
     inkscape:collect="always"
     id="linearGradient12387"><stop
       style="stop-color:#035884;stop-opacity:1;"
       offset="0"
       id="stop12389" /><stop
       style="stop-color:#035884;stop-opacity:0;"
       offset="1"
       id="stop12391" /></linearGradient><linearGradient
     y2="14.3169"
     x2="20.2628"
     y1="14.3169"
     x1="1.4028"
     gradientUnits="userSpaceOnUse"
     id="XMLID_12_">
				<stop
   id="stop11986"
   style="stop-color:#ffffff;stop-opacity:0;"
   offset="0" />
				
				
				<stop
   id="stop11992"
   style="stop-color:#0989cb;stop-opacity:1;"
   offset="1" />
				<a:midPointStop
   style="stop-color:#FFFFFF"
   offset="0" />
				<a:midPointStop
   style="stop-color:#FFFFFF"
   offset="0.5" />
				<a:midPointStop
   style="stop-color:#E96712"
   offset="0.4719" />
				<a:midPointStop
   style="stop-color:#E96712"
   offset="0.4689" />
				<a:midPointStop
   style="stop-color:#CB1009"
   offset="1" />
			</linearGradient><linearGradient
     inkscape:collect="always"
     xlink:href="#linearGradient12387"
     id="linearGradient12393"
     x1="9.4770002"
     y1="14.3005"
     x2="2.8681278"
     y2="14.3005"
     gradientUnits="userSpaceOnUse" /><linearGradient
     inkscape:collect="always"
     xlink:href="#linearGradient12401"
     id="linearGradient12407"
     x1="23.277"
     y1="10.940746"
     x2="9.5360003"
     y2="1.908"
     gradientUnits="userSpaceOnUse" /><linearGradient
     inkscape:collect="always"
     xlink:href="#linearGradient12401"
     id="linearGradient12409"
     gradientUnits="userSpaceOnUse"
     x1="22.901497"
     y1="17.023912"
     x2="9.6111012"
     y2="26.726" /></defs><sodipodi:namedview
   inkscape:window-height="540"
   inkscape:window-width="756"
   inkscape:pageshadow="2"
   inkscape:pageopacity="0.0"
   borderopacity="1.0"
   bordercolor="#666666"
   pagecolor="#ffffff"
   id="base"
   inkscape:zoom="12.508463"
   inkscape:cx="16.25207"
   inkscape:cy="24.937564"
   inkscape:window-x="285"
   inkscape:window-y="195"
   inkscape:current-layer="svg11974" />
		<path
   ns:knockout="Off"
   d="M 22.714,11.15 L 22.714,6.134 C 22.714,5.949 22.863,5.8 23.048,5.8 C 23.138,5.8 23.221,5.837 23.28,5.899 L 23.292,5.913 C 25.028,7.597 30.179,13.403 30.179,13.403 C 30.439,13.664 30.439,14.084 30.179,14.344 L 23.281,21.849 L 23.288,21.844 C 23.226,21.907 23.141,21.947 23.049,21.947 C 22.864,21.947 22.715,21.798 22.715,21.613 L 22.715,16.844"
   id="path11981"
   style="fill:#0989cb;stroke:#035884;stroke-width:0.93939583;fill-opacity:1;stroke-opacity:1;stroke-miterlimit:4;stroke-dasharray:none" /><path
   ns:knockout="Off"
   d="M 29.711698,13.846597 C 28.943698,12.985597 25.280504,9.0475041 23.393504,7.0575041"
   id="path11983"
   style="fill:none;stroke:#73cffe;stroke-opacity:1;stroke-width:1.00045656;stroke-miterlimit:4;stroke-dasharray:none;stroke-linecap:round"
   sodipodi:nodetypes="cc" /><path
   style="fill:url(#XMLID_12_)"
   id="path11994"
   d="M 23.027,11.162 C 18.533,11.162 10.828,3.917 9.786,2.158 L 2.906,9.238 C 3.426,10.114 7.275,12.754 9.227,14.029 C 7.275,15.304 3.144,18.487 2.624,19.363 L 9.431,26.475 C 10.473,24.717 18.533,16.829 23.027,16.829"
   ns:knockout="Off" /><path
   style="fill:none;stroke:url(#linearGradient12407);stroke-width:0.5;stroke-opacity:1"
   id="path11996"
   d="M 23.027,11.162 C 18.533,11.162 10.828,3.917 9.786,2.158"
   ns:knockout="Off" /><path
   style="fill:none;stroke:#73cffe;stroke-opacity:1"
   id="path11998"
   d="M 9.141,2.54 C 10.302,4.499 18.239,11.912 23.028,11.912"
   ns:knockout="Off" /><path
   style="fill:none;stroke:url(#linearGradient12393);stroke-width:0.5;stroke-opacity:1"
   id="path12000"
   d="M 2.906,9.238 C 3.426,10.114 7.275,12.754 9.227,14.029 C 7.275,15.304 3.144,18.487 2.624,19.363"
   ns:knockout="Off" /><path
   style="fill:none;stroke:url(#linearGradient12409);stroke-width:0.5;stroke-opacity:1;opacity:1;color:#000000;fill-opacity:1;fill-rule:nonzero;stroke-linecap:butt;stroke-linejoin:miter;marker:none;marker-start:none;marker-mid:none;marker-end:none;stroke-miterlimit:4;stroke-dasharray:none;stroke-dashoffset:0;visibility:visible;display:inline;overflow:visible"
   id="path12002"
   d="M 9.432,26.476 C 10.474,24.718 18.534,16.83 23.028,16.83"
   ns:knockout="Off" /><g
   id="g12004">
				<circle
   style="fill:none;stroke:#152a4c;stroke-width:1.79999995"
   sodipodi:ry="3.1559999"
   sodipodi:rx="3.1559999"
   sodipodi:cy="14"
   sodipodi:cx="41.035"
   id="circle12006"
   r="3.1559999"
   cy="14"
   cx="41.035"
   ns:knockout="Off" /> 
				
					<radialGradient
   gradientUnits="userSpaceOnUse"
   gradientTransform="matrix(0,-1,1,0,-94.043,101.9785)"
   fy="134.3535"
   fx="89.132797"
   r="4.4333"
   cy="134.3535"
   cx="89.132797"
   id="XMLID_13_">
					<stop
   id="stop12009"
   style="stop-color:#FFFFFF"
   offset="0" />
					<stop
   id="stop12011"
   style="stop-color:#DBE8F2"
   offset="0.0898" />
					<stop
   id="stop12013"
   style="stop-color:#A2C3DE"
   offset="0.2484" />
					<stop
   id="stop12015"
   style="stop-color:#75A6CD"
   offset="0.3951" />
					<stop
   id="stop12017"
   style="stop-color:#5591C2"
   offset="0.5253" />
					<stop
   id="stop12019"
   style="stop-color:#4185BB"
   offset="0.6339" />
					<stop
   id="stop12021"
   style="stop-color:#3A80B8"
   offset="0.7079" />
					<stop
   id="stop12023"
   style="stop-color:#244A87"
   offset="1" />
					<a:midPointStop
   style="stop-color:#FFFFFF"
   offset="0" />
					<a:midPointStop
   style="stop-color:#FFFFFF"
   offset="0.376" />
					<a:midPointStop
   style="stop-color:#3A80B8"
   offset="0.7079" />
					<a:midPointStop
   style="stop-color:#3A80B8"
   offset="0.5" />
					<a:midPointStop
   style="stop-color:#244A87"
   offset="1" />
				</radialGradient>
				<circle
   style="fill:url(#XMLID_13_)"
   sodipodi:ry="3.1559999"
   sodipodi:rx="3.1559999"
   sodipodi:cy="14"
   sodipodi:cx="41.035"
   id="circle12025"
   r="3.1559999"
   cy="14"
   cx="41.035"
   ns:knockout="Off" /> 
				<g
   id="g12027"
   ns:knockout="Off">
					
						<radialGradient
   gradientUnits="userSpaceOnUse"
   gradientTransform="matrix(0,1,1,0,-94.043,58.7817)"
   fy="133.24409"
   fx="-47.417"
   r="7.8165998"
   cy="133.24409"
   cx="-47.417"
   id="XMLID_14_">
						<stop
   id="stop12030"
   style="stop-color:#FFFFFF"
   offset="0" />
						<stop
   id="stop12032"
   style="stop-color:#2E659E"
   offset="0.6854" />
						<stop
   id="stop12034"
   style="stop-color:#1D3E63"
   offset="1" />
						<a:midPointStop
   style="stop-color:#FFFFFF"
   offset="0" />
						<a:midPointStop
   style="stop-color:#FFFFFF"
   offset="0.5" />
						<a:midPointStop
   style="stop-color:#2E659E"
   offset="0.6854" />
						<a:midPointStop
   style="stop-color:#2E659E"
   offset="0.5" />
						<a:midPointStop
   style="stop-color:#1D3E63"
   offset="1" />
					</radialGradient>
					<path
   style="fill:url(#XMLID_14_)"
   id="path12036"
   d="M 37.875,13.999 C 37.875,14.841 38.202,15.636 38.801,16.23 C 39.399,16.828 40.188,17.156 41.035,17.156 C 41.875,17.156 42.67,16.828 43.266,16.23 C 43.865,15.635 44.19,14.845 44.19,13.999 C 44.19,12.26 42.775,10.845 41.035,10.845 C 39.292,10.845 37.875,12.26 37.875,13.999 z M 43.687,13.999 C 43.687,14.71 43.413,15.373 42.913,15.875 C 42.409,16.378 41.743,16.651 41.036,16.651 C 40.324,16.651 39.658,16.378 39.158,15.875 C 38.656,15.373 38.38,14.71 38.38,13.999 C 38.38,12.537 39.572,11.345 41.036,11.345 C 42.496,11.345 43.687,12.537 43.687,13.999 z "
   ns:knockout="Off" />
				</g>
			</g><g
   id="g12038">
				<path
   style="fill:none;stroke:#152a4c;stroke-width:1.79999995"
   id="path12040"
   d="M 33.716,14.901 C 35.458,14.901 36.872,16.312 36.872,18.055 C 36.872,19.798 35.458,21.212 33.716,21.212 C 31.97,21.212 30.556,19.798 30.556,18.055 C 30.556,16.312 31.97,14.901 33.716,14.901 z "
   ns:knockout="Off" />
				
					<radialGradient
   gradientUnits="userSpaceOnUse"
   gradientTransform="matrix(0,-1,1,0,-94.043,101.9785)"
   fy="127.0342"
   fx="85.076202"
   r="4.4341998"
   cy="127.0342"
   cx="85.076202"
   id="XMLID_15_">
					<stop
   id="stop12043"
   style="stop-color:#FFFFFF"
   offset="0" />
					<stop
   id="stop12045"
   style="stop-color:#DBE8F2"
   offset="0.0898" />
					<stop
   id="stop12047"
   style="stop-color:#A2C3DE"
   offset="0.2484" />
					<stop
   id="stop12049"
   style="stop-color:#75A6CD"
   offset="0.3951" />
					<stop
   id="stop12051"
   style="stop-color:#5591C2"
   offset="0.5253" />
					<stop
   id="stop12053"
   style="stop-color:#4185BB"
   offset="0.6339" />
					<stop
   id="stop12055"
   style="stop-color:#3A80B8"
   offset="0.7079" />
					<stop
   id="stop12057"
   style="stop-color:#244A87"
   offset="1" />
					<a:midPointStop
   style="stop-color:#FFFFFF"
   offset="0" />
					<a:midPointStop
   style="stop-color:#FFFFFF"
   offset="0.376" />
					<a:midPointStop
   style="stop-color:#3A80B8"
   offset="0.7079" />
					<a:midPointStop
   style="stop-color:#3A80B8"
   offset="0.5" />
					<a:midPointStop
   style="stop-color:#244A87"
   offset="1" />
				</radialGradient>
				<path
   style="fill:url(#XMLID_15_)"
   id="path12059"
   d="M 33.716,14.901 C 35.458,14.901 36.872,16.312 36.872,18.055 C 36.872,19.798 35.458,21.212 33.716,21.212 C 31.97,21.212 30.556,19.798 30.556,18.055 C 30.556,16.312 31.97,14.901 33.716,14.901 z "
   ns:knockout="Off" />
				<g
   id="g12061"
   ns:knockout="Off">
					
						<radialGradient
   gradientUnits="userSpaceOnUse"
   gradientTransform="matrix(0,1,1,0,-94.043,58.7817)"
   fy="125.9248"
   fx="-43.360401"
   r="7.8172002"
   cy="125.9248"
   cx="-43.360401"
   id="XMLID_16_">
						<stop
   id="stop12064"
   style="stop-color:#FFFFFF"
   offset="0" />
						<stop
   id="stop12066"
   style="stop-color:#2E659E"
   offset="0.6854" />
						<stop
   id="stop12068"
   style="stop-color:#1D3E63"
   offset="1" />
						<a:midPointStop
   style="stop-color:#FFFFFF"
   offset="0" />
						<a:midPointStop
   style="stop-color:#FFFFFF"
   offset="0.5" />
						<a:midPointStop
   style="stop-color:#2E659E"
   offset="0.6854" />
						<a:midPointStop
   style="stop-color:#2E659E"
   offset="0.5" />
						<a:midPointStop
   style="stop-color:#1D3E63"
   offset="1" />
					</radialGradient>
					<path
   style="fill:url(#XMLID_16_)"
   id="path12070"
   d="M 30.556,18.056 C 30.556,18.898 30.883,19.693 31.481,20.286 C 32.08,20.884 32.869,21.213 33.716,21.213 C 34.555,21.213 35.352,20.884 35.947,20.286 C 36.546,19.692 36.872,18.902 36.872,18.056 C 36.872,16.317 35.456,14.902 33.716,14.902 C 31.974,14.901 30.556,16.316 30.556,18.056 z M 36.367,18.056 C 36.367,18.766 36.093,19.429 35.592,19.931 C 35.089,20.434 34.423,20.708 33.716,20.708 C 33.004,20.708 32.338,20.434 31.839,19.931 C 31.336,19.429 31.06,18.766 31.06,18.056 C 31.06,16.594 32.253,15.402 33.716,15.402 C 35.177,15.401 36.367,16.594 36.367,18.056 z "
   ns:knockout="Off" />
				</g>
			</g><g
   id="g12072">
				<path
   style="fill:none;stroke:#152a4c;stroke-width:1.79999995"
   id="path12074"
   d="M 4.061,21.688 C 5.803,21.688 7.217,23.1 7.217,24.843 C 7.217,26.586 5.803,28 4.061,28 C 2.315,28 0.901,26.586 0.901,24.843 C 0.901,23.1 2.314,21.688 4.061,21.688 z "
   ns:knockout="Off" />
				
					<radialGradient
   gradientUnits="userSpaceOnUse"
   gradientTransform="matrix(0,-1,1,0,-94.043,101.9785)"
   fy="97.378899"
   fx="78.289101"
   r="4.4347"
   cy="97.378899"
   cx="78.289101"
   id="XMLID_17_">
					<stop
   id="stop12077"
   style="stop-color:#FFFFFF"
   offset="0" />
					<stop
   id="stop12079"
   style="stop-color:#DBE8F2"
   offset="0.0898" />
					<stop
   id="stop12081"
   style="stop-color:#A2C3DE"
   offset="0.2484" />
					<stop
   id="stop12083"
   style="stop-color:#75A6CD"
   offset="0.3951" />
					<stop
   id="stop12085"
   style="stop-color:#5591C2"
   offset="0.5253" />
					<stop
   id="stop12087"
   style="stop-color:#4185BB"
   offset="0.6339" />
					<stop
   id="stop12089"
   style="stop-color:#3A80B8"
   offset="0.7079" />
					<stop
   id="stop12091"
   style="stop-color:#244A87"
   offset="1" />
					<a:midPointStop
   style="stop-color:#FFFFFF"
   offset="0" />
					<a:midPointStop
   style="stop-color:#FFFFFF"
   offset="0.376" />
					<a:midPointStop
   style="stop-color:#3A80B8"
   offset="0.7079" />
					<a:midPointStop
   style="stop-color:#3A80B8"
   offset="0.5" />
					<a:midPointStop
   style="stop-color:#244A87"
   offset="1" />
				</radialGradient>
				<path
   style="fill:url(#XMLID_17_)"
   id="path12093"
   d="M 4.061,21.688 C 5.803,21.688 7.217,23.1 7.217,24.843 C 7.217,26.586 5.803,28 4.061,28 C 2.315,28 0.901,26.586 0.901,24.843 C 0.901,23.1 2.314,21.688 4.061,21.688 z "
   ns:knockout="Off" />
				<g
   id="g12095"
   ns:knockout="Off">
					
						<radialGradient
   gradientUnits="userSpaceOnUse"
   gradientTransform="matrix(0,1,1,0,-94.043,58.7817)"
   fy="96.269501"
   fx="-36.5742"
   r="7.8179998"
   cy="96.269501"
   cx="-36.5742"
   id="XMLID_18_">
						<stop
   id="stop12098"
   style="stop-color:#FFFFFF"
   offset="0" />
						<stop
   id="stop12100"
   style="stop-color:#2E659E"
   offset="0.6854" />
						<stop
   id="stop12102"
   style="stop-color:#1D3E63"
   offset="1" />
						<a:midPointStop
   style="stop-color:#FFFFFF"
   offset="0" />
						<a:midPointStop
   style="stop-color:#FFFFFF"
   offset="0.5" />
						<a:midPointStop
   style="stop-color:#2E659E"
   offset="0.6854" />
						<a:midPointStop
   style="stop-color:#2E659E"
   offset="0.5" />
						<a:midPointStop
   style="stop-color:#1D3E63"
   offset="1" />
					</radialGradient>
					<path
   style="fill:url(#XMLID_18_)"
   id="path12104"
   d="M 0.9,24.843 C 0.9,25.685 1.227,26.48 1.825,27.073 C 2.424,27.672 3.213,28 4.061,28 C 4.901,28 5.697,27.672 6.292,27.073 C 6.89,26.479 7.217,25.689 7.217,24.843 C 7.217,23.105 5.801,21.688 4.061,21.688 C 2.318,21.688 0.9,23.104 0.9,24.843 z M 6.712,24.843 C 6.712,25.553 6.437,26.216 5.937,26.719 C 5.434,27.221 4.767,27.496 4.061,27.496 C 3.348,27.496 2.684,27.221 2.183,26.719 C 1.68,26.216 1.404,25.553 1.404,24.843 C 1.404,23.381 2.597,22.189 4.061,22.189 C 5.522,22.188 6.712,23.381 6.712,24.843 z "
   ns:knockout="Off" />
				</g>
			</g><g
   id="g12106">
				<circle
   style="fill:none;stroke:#59270b;stroke-width:1.79999995"
   sodipodi:ry="3.072"
   sodipodi:rx="3.072"
   sodipodi:cy="3.977"
   sodipodi:cx="4.2389998"
   id="circle12108"
   r="3.072"
   cy="3.977"
   cx="4.2389998"
   ns:knockout="Off" /> 
				
					<radialGradient
   gradientUnits="userSpaceOnUse"
   gradientTransform="matrix(-1,0,0,1,73.0684,-24.1895)"
   fy="26.653299"
   fx="69.665001"
   r="4.5834999"
   cy="26.653299"
   cx="69.665001"
   id="XMLID_19_">
					<stop
   id="stop12111"
   style="stop-color:#FFFFFF"
   offset="0" />
					<stop
   id="stop12113"
   style="stop-color:#F9D0AE"
   offset="0.2191" />
					<stop
   id="stop12115"
   style="stop-color:#F5AB6D"
   offset="0.4152" />
					<stop
   id="stop12117"
   style="stop-color:#F2903E"
   offset="0.5789" />
					<stop
   id="stop12119"
   style="stop-color:#F07F21"
   offset="0.7038" />
					<stop
   id="stop12121"
   style="stop-color:#EF7916"
   offset="0.7753" />
					<stop
   id="stop12123"
   style="stop-color:#CE5B0E"
   offset="1" />
					<a:midPointStop
   style="stop-color:#FFFFFF"
   offset="0" />
					<a:midPointStop
   style="stop-color:#FFFFFF"
   offset="0.4161" />
					<a:midPointStop
   style="stop-color:#EF7916"
   offset="0.7753" />
					<a:midPointStop
   style="stop-color:#EF7916"
   offset="0.5" />
					<a:midPointStop
   style="stop-color:#CE5B0E"
   offset="1" />
				</radialGradient>
				<circle
   style="fill:url(#XMLID_19_)"
   sodipodi:ry="3.072"
   sodipodi:rx="3.072"
   sodipodi:cy="3.977"
   sodipodi:cx="4.2389998"
   id="circle12125"
   r="3.072"
   cy="3.977"
   cx="4.2389998"
   ns:knockout="Off" /> 
				<g
   id="g12127"
   ns:knockout="Off">
					
						<radialGradient
   gradientUnits="userSpaceOnUse"
   gradientTransform="translate(29.8711,-24.1895)"
   fy="25.7705"
   fx="-27.5313"
   r="7.4524002"
   cy="25.7705"
   cx="-27.5313"
   id="XMLID_20_">
						<stop
   id="stop12130"
   style="stop-color:#FFFFFF"
   offset="0" />
						<stop
   id="stop12132"
   style="stop-color:#F9D0AE"
   offset="0.2191" />
						<stop
   id="stop12134"
   style="stop-color:#F5AB6D"
   offset="0.4152" />
						<stop
   id="stop12136"
   style="stop-color:#F2903E"
   offset="0.5789" />
						<stop
   id="stop12138"
   style="stop-color:#F07F21"
   offset="0.7038" />
						<stop
   id="stop12140"
   style="stop-color:#EF7916"
   offset="0.7753" />
						<stop
   id="stop12142"
   style="stop-color:#CE5B0E"
   offset="1" />
						<a:midPointStop
   style="stop-color:#FFFFFF"
   offset="0" />
						<a:midPointStop
   style="stop-color:#FFFFFF"
   offset="0.4161" />
						<a:midPointStop
   style="stop-color:#EF7916"
   offset="0.7753" />
						<a:midPointStop
   style="stop-color:#EF7916"
   offset="0.5" />
						<a:midPointStop
   style="stop-color:#CE5B0E"
   offset="1" />
					</radialGradient>
					<path
   style="fill:url(#XMLID_20_)"
   id="path12144"
   d="M 1.167,3.977 C 1.167,5.67 2.545,7.047 4.238,7.047 C 5.933,7.047 7.311,5.67 7.311,3.977 C 7.311,2.28 5.933,0.901 4.238,0.901 C 2.545,0.9 1.167,2.279 1.167,3.977 z M 1.558,3.977 C 1.558,2.496 2.76,1.293 4.239,1.293 C 5.719,1.293 6.923,2.495 6.923,3.977 C 6.923,5.454 5.72,6.656 4.239,6.656 C 2.76,6.655 1.558,5.453 1.558,3.977 z "
   ns:knockout="Off" />
				</g>
			</g><g
   id="g12146">
				<circle
   style="fill:none;stroke:#59270b;stroke-width:1.79999995"
   sodipodi:ry="3.072"
   sodipodi:rx="3.072"
   sodipodi:cy="9.7449999"
   sodipodi:cx="33.926998"
   id="circle12148"
   r="3.072"
   cy="9.7449999"
   cx="33.926998"
   ns:knockout="Off" /> 
				
					<radialGradient
   gradientUnits="userSpaceOnUse"
   gradientTransform="matrix(-1,0,0,1,73.0684,-24.1895)"
   fy="32.421902"
   fx="39.977501"
   r="4.5834999"
   cy="32.421902"
   cx="39.977501"
   id="XMLID_21_">
					<stop
   id="stop12151"
   style="stop-color:#FFFFFF"
   offset="0" />
					<stop
   id="stop12153"
   style="stop-color:#F9D0AE"
   offset="0.2191" />
					<stop
   id="stop12155"
   style="stop-color:#F5AB6D"
   offset="0.4152" />
					<stop
   id="stop12157"
   style="stop-color:#F2903E"
   offset="0.5789" />
					<stop
   id="stop12159"
   style="stop-color:#F07F21"
   offset="0.7038" />
					<stop
   id="stop12161"
   style="stop-color:#EF7916"
   offset="0.7753" />
					<stop
   id="stop12163"
   style="stop-color:#CE5B0E"
   offset="1" />
					<a:midPointStop
   style="stop-color:#FFFFFF"
   offset="0" />
					<a:midPointStop
   style="stop-color:#FFFFFF"
   offset="0.4161" />
					<a:midPointStop
   style="stop-color:#EF7916"
   offset="0.7753" />
					<a:midPointStop
   style="stop-color:#EF7916"
   offset="0.5" />
					<a:midPointStop
   style="stop-color:#CE5B0E"
   offset="1" />
				</radialGradient>
				<circle
   style="fill:url(#XMLID_21_)"
   sodipodi:ry="3.072"
   sodipodi:rx="3.072"
   sodipodi:cy="9.7449999"
   sodipodi:cx="33.926998"
   id="circle12165"
   r="3.072"
   cy="9.7449999"
   cx="33.926998"
   ns:knockout="Off" /> 
				<g
   id="g12167"
   ns:knockout="Off">
					
						<radialGradient
   gradientUnits="userSpaceOnUse"
   gradientTransform="translate(29.8711,-24.1895)"
   fy="31.539101"
   fx="2.1563001"
   r="7.4524002"
   cy="31.539101"
   cx="2.1563001"
   id="XMLID_22_">
						<stop
   id="stop12170"
   style="stop-color:#FFFFFF"
   offset="0" />
						<stop
   id="stop12172"
   style="stop-color:#F9D0AE"
   offset="0.2191" />
						<stop
   id="stop12174"
   style="stop-color:#F5AB6D"
   offset="0.4152" />
						<stop
   id="stop12176"
   style="stop-color:#F2903E"
   offset="0.5789" />
						<stop
   id="stop12178"
   style="stop-color:#F07F21"
   offset="0.7038" />
						<stop
   id="stop12180"
   style="stop-color:#EF7916"
   offset="0.7753" />
						<stop
   id="stop12182"
   style="stop-color:#CE5B0E"
   offset="1" />
						<a:midPointStop
   style="stop-color:#FFFFFF"
   offset="0" />
						<a:midPointStop
   style="stop-color:#FFFFFF"
   offset="0.4161" />
						<a:midPointStop
   style="stop-color:#EF7916"
   offset="0.7753" />
						<a:midPointStop
   style="stop-color:#EF7916"
   offset="0.5" />
						<a:midPointStop
   style="stop-color:#CE5B0E"
   offset="1" />
					</radialGradient>
					<path
   style="fill:url(#XMLID_22_)"
   id="path12184"
   d="M 30.854,9.745 C 30.854,11.438 32.232,12.815 33.925,12.815 C 35.62,12.815 36.998,11.438 36.998,9.745 C 36.998,8.048 35.62,6.669 33.925,6.669 C 32.232,6.669 30.854,8.048 30.854,9.745 z M 31.245,9.745 C 31.245,8.264 32.447,7.061 33.926,7.061 C 35.406,7.061 36.61,8.263 36.61,9.745 C 36.61,11.222 35.407,12.424 33.926,12.424 C 32.447,12.424 31.245,11.222 31.245,9.745 z "
   ns:knockout="Off" />
				</g>
			</g>
	</svg>