<?xml version="1.0" encoding="UTF-8" standalone="no"?>
<!-- Generator: Adobe Illustrator 11.0, SVG Export Plug-In . SVG Version: 6.0.0 Build 78)  -->
<svg
   xmlns:ns="http://ns.adobe.com/AdobeIllustrator/10.0/"
   xmlns:a="http://ns.adobe.com/AdobeSVGViewerExtensions/3.0/"
   xmlns:dc="http://purl.org/dc/elements/1.1/"
   xmlns:cc="http://web.resource.org/cc/"
   xmlns:rdf="http://www.w3.org/1999/02/22-rdf-syntax-ns#"
   xmlns:svg="http://www.w3.org/2000/svg"
   xmlns="http://www.w3.org/2000/svg"
   xmlns:sodipodi="http://sodipodi.sourceforge.net/DTD/sodipodi-0.dtd"
   xmlns:inkscape="http://www.inkscape.org/namespaces/inkscape"
   ns:viewOrigin="0 46.0879"
   ns:rulerOrigin="0 0"
   ns:pageBounds="0 48 48 0"
   width="48"
   height="48"
   viewBox="0 0 48 46.088"
   overflow="visible"
   enable-background="new 0 0 48 46.088"
   xml:space="preserve"
   id="svg9986"
   sodipodi:version="0.32"
   inkscape:version="0.44.1"
   sodipodi:docname="force.svg"
   sodipodi:docbase="/home/joe/dev/src/houdini/support/icons/pop"
   version="1.0"
   inkscape:output_extension="org.inkscape.output.svg.inkscape"><metadata
   id="metadata550"><rdf:RDF><cc:Work
       rdf:about=""><dc:format>image/svg+xml</dc:format><dc:type
         rdf:resource="http://purl.org/dc/dcmitype/StillImage" /></cc:Work></rdf:RDF></metadata><defs
   id="defs10079"><linearGradient
     y2="43.376999"
     x2="48"
     y1="43.376999"
     x1="0"
     gradientUnits="userSpaceOnUse"
     id="XMLID_10_">
				<stop
   id="stop10010"
   style="stop-color:#FFFFFF"
   offset="0" />
				<stop
   id="stop10012"
   style="stop-color:#6C7680"
   offset="1" />
				<a:midPointStop
   style="stop-color:#FFFFFF"
   offset="0" />
				<a:midPointStop
   style="stop-color:#FFFFFF"
   offset="0.5" />
				<a:midPointStop
   style="stop-color:#6C7680"
   offset="1" />
			</linearGradient><linearGradient
     gradientTransform="matrix(0,-0.795626,-1,0,305.6797,-60.81405)"
     y2="281.99411"
     x2="-88.685898"
     y1="281.99411"
     x1="-76.435997"
     gradientUnits="userSpaceOnUse"
     id="XMLID_14_">
				<stop
   id="stop10062"
   style="stop-color:#E96712"
   offset="0" />
				<stop
   id="stop10064"
   style="stop-color:#D52E0C"
   offset="0.6221" />
				<stop
   id="stop10066"
   style="stop-color:#CB1009"
   offset="1" />
				<a:midPointStop
   style="stop-color:#E96712"
   offset="0" />
				<a:midPointStop
   style="stop-color:#E96712"
   offset="0.4689" />
				<a:midPointStop
   style="stop-color:#CB1009"
   offset="1" />
			</linearGradient></defs><sodipodi:namedview
   inkscape:window-height="676"
   inkscape:window-width="861"
   inkscape:pageshadow="2"
   inkscape:pageopacity="0.0"
   borderopacity="1.0"
   bordercolor="#666666"
   pagecolor="#ffffff"
   id="base"
   inkscape:zoom="19.431346"
   inkscape:cx="22.364419"
   inkscape:cy="35.461813"
   inkscape:window-x="132"
   inkscape:window-y="174"
   inkscape:current-layer="svg9986" />
		<g
   id="g9991">
				<g
   id="g9993"
   ns:knockout="Off">
					<linearGradient
   y2="27.292"
   x2="23.685499"
   y1="27.292"
   x1="0"
   gradientUnits="userSpaceOnUse"
   id="XMLID_8_">
						<stop
   id="stop9996"
   style="stop-color:#FFFFFF"
   offset="0" />
						<stop
   id="stop9998"
   style="stop-color:#B7D0DC"
   offset="1" />
						<a:midPointStop
   style="stop-color:#FFFFFF"
   offset="0" />
						<a:midPointStop
   style="stop-color:#FFFFFF"
   offset="0.5" />
						<a:midPointStop
   style="stop-color:#B7D0DC"
   offset="1" />
					</linearGradient>
					<path
   style="fill:url(#XMLID_8_)"
   id="path10000"
   d="M 23.246,23.097 L 0,21.152 L 0,29.256 L 23.686,33.432 L 23.655,23.07 L 23.246,23.097 z M 22.363,23.977 C 22.365,24.564 22.388,31.926 22.39,32.52 C 21.661,32.469 1.91,28.547 1.293,28.503 C 1.293,28.009 1.293,22.411 1.293,21.913 C 1.914,21.872 21.645,24.023 22.363,23.977 z "
   ns:knockout="Off" />
				</g>
				<linearGradient
   y2="27.2129"
   x2="22.320299"
   y1="27.2129"
   x1="1.3652"
   gradientUnits="userSpaceOnUse"
   id="XMLID_9_">
					<stop
   id="stop10003"
   style="stop-color:#FFFFFF"
   offset="0" />
					<stop
   id="stop10005"
   style="stop-color:#89ABBF"
   offset="1" />
					<a:midPointStop
   style="stop-color:#FFFFFF"
   offset="0" />
					<a:midPointStop
   style="stop-color:#FFFFFF"
   offset="0.5" />
					<a:midPointStop
   style="stop-color:#89ABBF"
   offset="1" />
				</linearGradient>
				<path
   style="fill:url(#XMLID_9_)"
   id="path10007"
   d="M 22.292,24.005 C 22.295,24.589 22.317,31.901 22.32,32.491 C 21.596,32.439 1.976,28.524 1.365,28.48 C 1.365,27.99 1.365,22.43 1.365,21.935 C 1.98,21.895 21.578,24.053 22.292,24.005 z "
   ns:knockout="Off" />
			</g><rect
   style="fill:url(#XMLID_10_)"
   x="0"
   id="rect10014"
   height="5.4219999"
   width="48"
   ns:knockout="Off"
   y="40.666" /><g
   id="g10016">
				<linearGradient
   y2="43.2019"
   x2="23.9457"
   y1="37.890598"
   x1="22.313999"
   gradientUnits="userSpaceOnUse"
   id="XMLID_11_">
					<stop
   id="stop10019"
   style="stop-color:#828B99"
   offset="0.0056" />
					<stop
   id="stop10021"
   style="stop-color:#3E5780"
   offset="1" />
					<a:midPointStop
   style="stop-color:#828B99"
   offset="0.0056" />
					<a:midPointStop
   style="stop-color:#828B99"
   offset="0.5" />
					<a:midPointStop
   style="stop-color:#3E5780"
   offset="1" />
				</linearGradient>
				<path
   style="fill:url(#XMLID_11_)"
   id="path10023"
   d="M 47.5,40.666 L 0,40.666 L 0,46.088 L 48,46.088 L 48,40.666 L 47.5,40.666 z M 1,45.088 C 1,44.401 1,42.353 1,41.666 C 1.969,41.666 46.031,41.666 47,41.666 C 47,42.353 47,44.401 47,45.088"
   ns:knockout="Off" />
			</g><g
   id="g10025">
				<circle
   style="fill:none;stroke:#152a4c;stroke-width:1.5"
   sodipodi:ry="4.5430002"
   sodipodi:rx="4.5430002"
   sodipodi:cy="28.333"
   sodipodi:cx="23.686001"
   id="circle10027"
   r="4.5430002"
   cy="28.333"
   cx="23.686001"
   ns:knockout="Off" /> 
				
					<radialGradient
   gradientUnits="userSpaceOnUse"
   gradientTransform="matrix(0,-1,1,0,-99.9043,113.0469)"
   fy="122.5479"
   fx="86.375999"
   r="6.3818998"
   cy="122.5479"
   cx="86.375999"
   id="XMLID_12_">
					<stop
   id="stop10030"
   style="stop-color:#FFFFFF"
   offset="0" />
					<stop
   id="stop10032"
   style="stop-color:#DBE8F2"
   offset="0.0898" />
					<stop
   id="stop10034"
   style="stop-color:#A2C3DE"
   offset="0.2484" />
					<stop
   id="stop10036"
   style="stop-color:#75A6CD"
   offset="0.3951" />
					<stop
   id="stop10038"
   style="stop-color:#5591C2"
   offset="0.5253" />
					<stop
   id="stop10040"
   style="stop-color:#4185BB"
   offset="0.6339" />
					<stop
   id="stop10042"
   style="stop-color:#3A80B8"
   offset="0.7079" />
					<stop
   id="stop10044"
   style="stop-color:#244A87"
   offset="1" />
					<a:midPointStop
   style="stop-color:#FFFFFF"
   offset="0" />
					<a:midPointStop
   style="stop-color:#FFFFFF"
   offset="0.376" />
					<a:midPointStop
   style="stop-color:#3A80B8"
   offset="0.7079" />
					<a:midPointStop
   style="stop-color:#3A80B8"
   offset="0.5" />
					<a:midPointStop
   style="stop-color:#244A87"
   offset="1" />
				</radialGradient>
				<circle
   style="fill:url(#XMLID_12_)"
   sodipodi:ry="4.5430002"
   sodipodi:rx="4.5430002"
   sodipodi:cy="28.333"
   sodipodi:cx="23.686001"
   id="circle10046"
   r="4.5430002"
   cy="28.333"
   cx="23.686001"
   ns:knockout="Off" /> 
				<g
   id="g10048"
   ns:knockout="Off">
					
						<radialGradient
   gradientUnits="userSpaceOnUse"
   gradientTransform="matrix(0,1,1,0,-99.9043,64.6431)"
   fy="120.9512"
   fx="-40.105"
   r="11.2521"
   cy="120.9512"
   cx="-40.105"
   id="XMLID_13_">
						<stop
   id="stop10051"
   style="stop-color:#FFFFFF"
   offset="0" />
						<stop
   id="stop10053"
   style="stop-color:#2E659E"
   offset="0.6854" />
						<stop
   id="stop10055"
   style="stop-color:#1D3E63"
   offset="1" />
						<a:midPointStop
   style="stop-color:#FFFFFF"
   offset="0" />
						<a:midPointStop
   style="stop-color:#FFFFFF"
   offset="0.5" />
						<a:midPointStop
   style="stop-color:#2E659E"
   offset="0.6854" />
						<a:midPointStop
   style="stop-color:#2E659E"
   offset="0.5" />
						<a:midPointStop
   style="stop-color:#1D3E63"
   offset="1" />
					</radialGradient>
					<path
   style="fill:url(#XMLID_13_)"
   id="path10057"
   d="M 19.139,28.332 C 19.139,29.544 19.61,30.687 20.471,31.543 C 21.33,32.404 22.467,32.876 23.686,32.876 C 24.895,32.876 26.041,32.404 26.899,31.543 C 27.76,30.688 28.229,29.549 28.229,28.332 C 28.229,25.827 26.192,23.79 23.686,23.79 C 21.178,23.79 19.139,25.827 19.139,28.332 z M 27.502,28.332 C 27.502,29.353 27.107,30.309 26.387,31.031 C 25.662,31.755 24.703,32.15 23.686,32.15 C 22.663,32.15 21.704,31.754 20.985,31.031 C 20.262,30.308 19.864,29.353 19.864,28.332 C 19.864,26.227 21.581,24.512 23.686,24.512 C 25.789,24.512 27.502,26.227 27.502,28.332 z "
   ns:knockout="Off" />
				</g>
			</g><path
   style="fill:#cb1009;stroke:#590b08;stroke-width:1;stroke-miterlimit:4;stroke-dasharray:none;stroke-linejoin:round"
   id="path10059"
   d="M 23.076,22.713 C 23.412,23.051 23.959,23.051 24.297,22.713 L 34.031,13.765 L 34.025,13.773 C 34.107,13.695 34.158,13.584 34.158,13.462 C 34.158,13.224 33.965,13.03 33.726,13.03 L 13.645,13.03 C 13.409,13.028 13.214,13.223 13.214,13.462 C 13.214,13.579 13.263,13.688 13.343,13.765 L 13.359,13.781 C 15.544,16.03 23.076,22.713 23.076,22.713 z "
   ns:knockout="Off" /><rect
   style="fill:url(#XMLID_14_)"
   y="0"
   id="rect10068"
   height="13.623499"
   width="12.035"
   ns:knockout="Off"
   x="17.667999" /><line
   style="fill:none;stroke:#590b08;stroke-width:1;stroke-miterlimit:4;stroke-dasharray:none"
   id="line10070"
   y2="0.02017447"
   x2="29.702999"
   y1="13.575922"
   x1="29.702999"
   ns:knockout="Off" /><line
   style="fill:none;stroke:#590b08;stroke-width:1.00000012;stroke-miterlimit:4;stroke-dasharray:none"
   id="line10072"
   y2="0.018340429"
   x2="17.667999"
   y1="13.526294"
   x1="17.667999"
   ns:knockout="Off" /><path
   style="fill:none;stroke:#f62724;stroke-linecap:round"
   id="path10074"
   d="M 23.684,22.224 C 22.565,21.228 16.995,16.107 14.413,13.661"
   ns:knockout="Off" /><line
   style="fill:none;stroke:#f62724"
   id="line10076"
   y2="0.017507564"
   x2="18.549999"
   y1="13.47666"
   x1="18.549999"
   ns:knockout="Off" />
	</svg>