<?xml version="1.0" encoding="UTF-8" standalone="no"?>
<!-- Generator: Adobe Illustrator 11.0, SVG Export Plug-In . SVG Version: 6.0.0 Build 78)  -->
<svg
   xmlns:ns="http://ns.adobe.com/AdobeIllustrator/10.0/"
   xmlns:a="http://ns.adobe.com/AdobeSVGViewerExtensions/3.0/"
   xmlns:dc="http://purl.org/dc/elements/1.1/"
   xmlns:cc="http://web.resource.org/cc/"
   xmlns:rdf="http://www.w3.org/1999/02/22-rdf-syntax-ns#"
   xmlns:svg="http://www.w3.org/2000/svg"
   xmlns="http://www.w3.org/2000/svg"
   xmlns:xlink="http://www.w3.org/1999/xlink"
   xmlns:sodipodi="http://sodipodi.sourceforge.net/DTD/sodipodi-0.dtd"
   xmlns:inkscape="http://www.inkscape.org/namespaces/inkscape"
   ns:viewOrigin="1.1377 46.5371"
   ns:rulerOrigin="0 0"
   ns:pageBounds="0 48 48 0"
   width="48"
   height="48"
   viewBox="0 0 46.473 46.459"
   overflow="visible"
   enable-background="new 0 0 46.473 46.459"
   xml:space="preserve"
   id="svg11387"
   sodipodi:version="0.32"
   inkscape:version="0.44.1"
   sodipodi:docname="interact.svg"
   sodipodi:docbase="/home/joe/dev/src/houdini/support/icons/pop"
   version="1.0"
   inkscape:output_extension="org.inkscape.output.svg.inkscape"><metadata
   id="metadata754"><rdf:RDF><cc:Work
       rdf:about=""><dc:format>image/svg+xml</dc:format><dc:type
         rdf:resource="http://purl.org/dc/dcmitype/StillImage" /></cc:Work></rdf:RDF></metadata><defs
   id="defs11495"><linearGradient
     gradientTransform="matrix(0.7071,0.7071,0.7071,-0.7071,-248.4341,331.6685)"
     y2="416.19431"
     x2="-26.507601"
     y1="416.19431"
     x1="-19.4116"
     gradientUnits="userSpaceOnUse"
     id="XMLID_8_">
				<stop
   id="stop11412"
   style="stop-color:#FAAF3E"
   offset="0" />
				<stop
   id="stop11414"
   style="stop-color:#E96712"
   offset="1" />
				<a:midPointStop
   style="stop-color:#FAAF3E"
   offset="0" />
				<a:midPointStop
   style="stop-color:#FAAF3E"
   offset="0.5" />
				<a:midPointStop
   style="stop-color:#E96712"
   offset="1" />
			</linearGradient><linearGradient
     inkscape:collect="always"
     xlink:href="#XMLID_8_"
     id="linearGradient11587"
     gradientUnits="userSpaceOnUse"
     gradientTransform="matrix(0.7071,0.7071,0.7071,-0.7071,-248.4341,331.6685)"
     x1="-19.4116"
     y1="416.19431"
     x2="-26.507601"
     y2="416.19431" /><linearGradient
     inkscape:collect="always"
     xlink:href="#XMLID_8_"
     id="linearGradient11589"
     gradientUnits="userSpaceOnUse"
     gradientTransform="matrix(0.7071,0.7071,0.7071,-0.7071,-248.4341,331.6685)"
     x1="-19.4116"
     y1="416.19431"
     x2="-26.507601"
     y2="416.19431" /></defs><sodipodi:namedview
   inkscape:window-height="577"
   inkscape:window-width="786"
   inkscape:pageshadow="2"
   inkscape:pageopacity="0.0"
   borderopacity="1.0"
   bordercolor="#666666"
   pagecolor="#ffffff"
   id="base"
   inkscape:zoom="15.454083"
   inkscape:cx="23.97683"
   inkscape:cy="22.441928"
   inkscape:window-x="334"
   inkscape:window-y="162"
   inkscape:current-layer="svg11387" />
		<g
   id="g11553"
   transform="translate(-0.689142,0.125299)"><path
     ns:knockout="Off"
     d="M 23.077,14.099 C 22.801,14.099 22.577,14.323 22.577,14.599 L 22.255,22.252 L 22.254,22.246 C 22.253,22.311 22.277,22.378 22.327,22.428 C 22.425,22.526 22.583,22.526 22.681,22.428 L 30.907,14.202 C 31.005,14.105 31.005,13.946 30.907,13.848 C 30.859,13.8 30.795,13.776 30.73,13.777 L 30.717,13.777 C 28.899,13.751 23.077,14.099 23.077,14.099 z "
     id="path11409"
     style="fill:#e96712;stroke:#590b08;stroke-width:0.96818751;stroke-linejoin:round;stroke-miterlimit:4;stroke-dasharray:none" /><polygon
     transform="matrix(0.937057,0,0,0.931806,1.989629,1.530426)"
     ns:knockout="Off"
     points="27.582,14.174 34.596,21.188 29.666,26.117 22.652,19.104 27.582,14.174 "
     id="polygon11416"
     style="fill:url(#linearGradient11589)" /><line
     ns:knockout="Off"
     x1="24.03981"
     y1="20.374119"
     x2="29.641956"
     y2="26.083336"
     id="line11418"
     style="fill:none;stroke:#590b08;stroke-width:0.96818757;stroke-miterlimit:4;stroke-dasharray:none" /><line
     ns:knockout="Off"
     x1="28.96981"
     y1="15.502953"
     x2="34.57196"
     y2="21.159134"
     id="line11420"
     style="fill:none;stroke:#590b08;stroke-width:0.96818739;stroke-miterlimit:4;stroke-dasharray:none" /><path
     ns:knockout="Off"
     d="M 23.266741,14.835 C 24.035196,14.785 27.920942,14.601 29.748903,14.545"
     id="path11422"
     style="fill:none;stroke:#faaf3e;stroke-linecap:round" /><line
     ns:knockout="Off"
     x1="28.277512"
     y1="16.122"
     x2="33.879662"
     y2="21.67112"
     id="line11424"
     style="fill:none;stroke:#faaf3e;stroke-width:0.96818781;stroke-miterlimit:4;stroke-dasharray:none" /></g><g
   id="g11426">
				<path
   style="fill:none;stroke:#152a4c;stroke-width:2"
   id="path11428"
   d="M 36.016,26.553 C 41.239,26.553 45.473,30.781 45.473,36.003 C 45.473,41.225 41.239,45.459 36.016,45.459 C 30.787,45.459 26.553,41.226 26.553,36.003 C 26.553,30.78 30.786,26.553 36.016,26.553 z "
   ns:knockout="Off" />
				
					<radialGradient
   gradientUnits="userSpaceOnUse"
   gradientTransform="matrix(0,-1,1,0,-101.4912,112.3584)"
   fy="135.3398"
   fx="79.810501"
   r="13.2823"
   cy="135.3398"
   cx="79.810501"
   id="XMLID_9_">
					<stop
   id="stop11431"
   style="stop-color:#FFFFFF"
   offset="0" />
					<stop
   id="stop11433"
   style="stop-color:#DBE8F2"
   offset="0.0898" />
					<stop
   id="stop11435"
   style="stop-color:#A2C3DE"
   offset="0.2484" />
					<stop
   id="stop11437"
   style="stop-color:#75A6CD"
   offset="0.3951" />
					<stop
   id="stop11439"
   style="stop-color:#5591C2"
   offset="0.5253" />
					<stop
   id="stop11441"
   style="stop-color:#4185BB"
   offset="0.6339" />
					<stop
   id="stop11443"
   style="stop-color:#3A80B8"
   offset="0.7079" />
					<stop
   id="stop11445"
   style="stop-color:#244A87"
   offset="1" />
					<a:midPointStop
   style="stop-color:#FFFFFF"
   offset="0" />
					<a:midPointStop
   style="stop-color:#FFFFFF"
   offset="0.376" />
					<a:midPointStop
   style="stop-color:#3A80B8"
   offset="0.7079" />
					<a:midPointStop
   style="stop-color:#3A80B8"
   offset="0.5" />
					<a:midPointStop
   style="stop-color:#244A87"
   offset="1" />
				</radialGradient>
				<path
   style="fill:url(#XMLID_9_)"
   id="path11447"
   d="M 36.016,26.553 C 41.239,26.553 45.473,30.781 45.473,36.003 C 45.473,41.225 41.239,45.459 36.016,45.459 C 30.787,45.459 26.553,41.226 26.553,36.003 C 26.553,30.78 30.786,26.553 36.016,26.553 z "
   ns:knockout="Off" />
				<g
   id="g11449"
   ns:knockout="Off">
					
						<radialGradient
   gradientUnits="userSpaceOnUse"
   gradientTransform="matrix(0,1,1,0,-101.4912,66.23)"
   fy="132.01559"
   fx="-38.119099"
   r="23.4163"
   cy="132.01559"
   cx="-38.119099"
   id="XMLID_10_">
						<stop
   id="stop11452"
   style="stop-color:#FFFFFF"
   offset="0" />
						<stop
   id="stop11454"
   style="stop-color:#2E659E"
   offset="0.6854" />
						<stop
   id="stop11456"
   style="stop-color:#1D3E63"
   offset="1" />
						<a:midPointStop
   style="stop-color:#FFFFFF"
   offset="0" />
						<a:midPointStop
   style="stop-color:#FFFFFF"
   offset="0.5" />
						<a:midPointStop
   style="stop-color:#2E659E"
   offset="0.6854" />
						<a:midPointStop
   style="stop-color:#2E659E"
   offset="0.5" />
						<a:midPointStop
   style="stop-color:#1D3E63"
   offset="1" />
					</radialGradient>
					<path
   style="fill:url(#XMLID_10_)"
   id="path11458"
   d="M 26.553,36.003 C 26.553,38.524 27.53,40.905 29.322,42.685 C 31.114,44.476 33.481,45.459 36.016,45.459 C 38.531,45.459 40.918,44.476 42.704,42.685 C 44.496,40.906 45.473,38.539 45.473,36.003 C 45.473,30.793 41.233,26.553 36.016,26.553 C 30.8,26.553 26.553,30.793 26.553,36.003 z M 43.961,36.003 C 43.961,38.129 43.138,40.116 41.64,41.62 C 40.129,43.125 38.136,43.948 36.016,43.948 C 33.882,43.948 31.89,43.125 30.392,41.62 C 28.886,40.116 28.058,38.129 28.058,36.003 C 28.058,31.622 31.636,28.051 36.016,28.051 C 40.396,28.051 43.961,31.622 43.961,36.003 z "
   ns:knockout="Off" />
				</g>
			</g><g
   id="g11460">
				<path
   style="fill:none;stroke:#152a4c;stroke-width:2"
   id="path11462"
   d="M 10.463,1 C 15.686,1 19.92,5.228 19.92,10.45 C 19.92,15.672 15.686,19.906 10.463,19.906 C 5.233,19.906 1,15.673 1,10.45 C 1,5.227 5.233,1 10.463,1 z "
   ns:knockout="Off" />
				
					<radialGradient
   gradientUnits="userSpaceOnUse"
   gradientTransform="matrix(0,-1,1,0,-101.4912,112.3584)"
   fy="109.7871"
   fx="105.3633"
   r="13.2823"
   cy="109.7871"
   cx="105.3633"
   id="XMLID_11_">
					<stop
   id="stop11465"
   style="stop-color:#FFFFFF"
   offset="0" />
					<stop
   id="stop11467"
   style="stop-color:#DBE8F2"
   offset="0.0898" />
					<stop
   id="stop11469"
   style="stop-color:#A2C3DE"
   offset="0.2484" />
					<stop
   id="stop11471"
   style="stop-color:#75A6CD"
   offset="0.3951" />
					<stop
   id="stop11473"
   style="stop-color:#5591C2"
   offset="0.5253" />
					<stop
   id="stop11475"
   style="stop-color:#4185BB"
   offset="0.6339" />
					<stop
   id="stop11477"
   style="stop-color:#3A80B8"
   offset="0.7079" />
					<stop
   id="stop11479"
   style="stop-color:#244A87"
   offset="1" />
					<a:midPointStop
   style="stop-color:#FFFFFF"
   offset="0" />
					<a:midPointStop
   style="stop-color:#FFFFFF"
   offset="0.376" />
					<a:midPointStop
   style="stop-color:#3A80B8"
   offset="0.7079" />
					<a:midPointStop
   style="stop-color:#3A80B8"
   offset="0.5" />
					<a:midPointStop
   style="stop-color:#244A87"
   offset="1" />
				</radialGradient>
				<path
   style="fill:url(#XMLID_11_)"
   id="path11481"
   d="M 10.463,1 C 15.686,1 19.92,5.228 19.92,10.45 C 19.92,15.672 15.686,19.906 10.463,19.906 C 5.233,19.906 1,15.673 1,10.45 C 1,5.227 5.233,1 10.463,1 z "
   ns:knockout="Off" />
				<g
   id="g11483"
   ns:knockout="Off">
					
						<radialGradient
   gradientUnits="userSpaceOnUse"
   gradientTransform="matrix(0,1,1,0,-101.4912,66.23)"
   fy="106.4629"
   fx="-63.671902"
   r="23.4163"
   cy="106.4629"
   cx="-63.671902"
   id="XMLID_12_">
						<stop
   id="stop11486"
   style="stop-color:#FFFFFF"
   offset="0" />
						<stop
   id="stop11488"
   style="stop-color:#2E659E"
   offset="0.6854" />
						<stop
   id="stop11490"
   style="stop-color:#1D3E63"
   offset="1" />
						<a:midPointStop
   style="stop-color:#FFFFFF"
   offset="0" />
						<a:midPointStop
   style="stop-color:#FFFFFF"
   offset="0.5" />
						<a:midPointStop
   style="stop-color:#2E659E"
   offset="0.6854" />
						<a:midPointStop
   style="stop-color:#2E659E"
   offset="0.5" />
						<a:midPointStop
   style="stop-color:#1D3E63"
   offset="1" />
					</radialGradient>
					<path
   style="fill:url(#XMLID_12_)"
   id="path11492"
   d="M 1,10.45 C 1,12.971 1.977,15.352 3.769,17.132 C 5.561,18.923 7.928,19.906 10.463,19.906 C 12.978,19.906 15.365,18.923 17.151,17.132 C 18.943,15.353 19.92,12.986 19.92,10.45 C 19.92,5.24 15.68,1 10.463,1 C 5.247,1 1,5.24 1,10.45 z M 18.408,10.45 C 18.408,12.576 17.585,14.563 16.087,16.067 C 14.576,17.572 12.583,18.395 10.463,18.395 C 8.329,18.395 6.337,17.572 4.839,16.067 C 3.333,14.563 2.505,12.576 2.505,10.45 C 2.505,6.069 6.083,2.498 10.463,2.498 C 14.844,2.498 18.408,6.069 18.408,10.45 z "
   ns:knockout="Off" />
				</g>
			</g>
	<path
   style="fill:#e96712;stroke:#590b08;stroke-width:0.96818751;stroke-linejoin:round;stroke-miterlimit:4;stroke-dasharray:none"
   id="path11563"
   d="M 22.627173,33.877582 C 22.903173,33.877582 23.127173,33.653582 23.127173,33.377582 L 23.449173,25.724582 L 23.450173,25.730582 C 23.451173,25.665582 23.427173,25.598582 23.377173,25.548582 C 23.279173,25.450582 23.121173,25.450582 23.023173,25.548582 L 14.797173,33.774582 C 14.699173,33.871582 14.699173,34.030582 14.797173,34.128582 C 14.845173,34.176582 14.909173,34.200582 14.974173,34.199582 L 14.987173,34.199582 C 16.805173,34.225582 22.627173,33.877582 22.627173,33.877582 z "
   ns:knockout="Off" /><polygon
   style="fill:url(#linearGradient11587)"
   id="polygon11565"
   points="27.582,14.174 34.596,21.188 29.666,26.117 22.652,19.104 27.582,14.174 "
   ns:knockout="Off"
   transform="matrix(-0.937057,0,0,-0.931806,43.71454,46.44615)" /><line
   style="fill:none;stroke:#590b08;stroke-width:0.96818757;stroke-miterlimit:4;stroke-dasharray:none"
   id="line11567"
   y2="21.893246"
   x2="16.062216"
   y1="27.602463"
   x1="21.664362"
   ns:knockout="Off" /><line
   style="fill:none;stroke:#590b08;stroke-width:0.96818739;stroke-miterlimit:4;stroke-dasharray:none"
   id="line11569"
   y2="26.817448"
   x2="11.132212"
   y1="32.473625"
   x1="16.734362"
   ns:knockout="Off" /><line
   style="fill:none;stroke:#faaf3e;stroke-width:0.96818781;stroke-miterlimit:4;stroke-dasharray:none"
   id="line11573"
   y2="22.671803"
   x2="15.332872"
   y1="28.220922"
   x1="20.935022"
   ns:knockout="Off" /><path
   style="opacity:1;color:#000000;fill:none;fill-opacity:1;fill-rule:nonzero;stroke:#faaf3e;stroke-width:1;stroke-linecap:round;stroke-linejoin:miter;marker:none;marker-start:none;marker-mid:none;marker-end:none;stroke-miterlimit:4;stroke-dasharray:none;stroke-dashoffset:0;stroke-opacity:1;visibility:visible;display:inline;overflow:visible"
   d="M 22.240503,33.059049 L 22.55375,26.668821"
   id="path11585"
   sodipodi:nodetypes="cc" /></svg>