<?xml version="1.0" encoding="UTF-8" standalone="no"?>
<!-- Generator: Adobe Illustrator 11.0, SVG Export Plug-In . SVG Version: 6.0.0 Build 78)  -->
<svg
   xmlns:a="http://ns.adobe.com/AdobeSVGViewerExtensions/3.0/"
   xmlns:i="http://ns.adobe.com/AdobeIllustrator/10.0/"
   xmlns:dc="http://purl.org/dc/elements/1.1/"
   xmlns:cc="http://web.resource.org/cc/"
   xmlns:rdf="http://www.w3.org/1999/02/22-rdf-syntax-ns#"
   xmlns:svg="http://www.w3.org/2000/svg"
   xmlns="http://www.w3.org/2000/svg"
   xmlns:sodipodi="http://sodipodi.sourceforge.net/DTD/sodipodi-0.dtd"
   xmlns:inkscape="http://www.inkscape.org/namespaces/inkscape"
   i:viewOrigin="-0.125 48.125"
   i:rulerOrigin="0 0"
   i:pageBounds="0 48 48 0"
   width="48.25"
   height="48.25"
   viewBox="0 0 48.25 48.25"
   overflow="visible"
   enable-background="new 0 0 48.25 48.25"
   xml:space="preserve"
   id="svg2"
   sodipodi:version="0.32"
   inkscape:version="0.44.1"
   sodipodi:docname="orbit.svg"
   sodipodi:docbase="/home/joe/dev/src/houdini/support/icons/pop"
   inkscape:output_extension="org.inkscape.output.svg.inkscape"><metadata
   id="metadata124"><rdf:RDF><cc:Work
       rdf:about=""><dc:format>image/svg+xml</dc:format><dc:type
         rdf:resource="http://purl.org/dc/dcmitype/StillImage" /></cc:Work></rdf:RDF></metadata><defs
   id="defs231"><linearGradient
     y2="32.2814"
     x2="24.2554"
     y1="33.8252"
     x1="33.8525"
     gradientUnits="userSpaceOnUse"
     id="XMLID_18_">
				<stop
   id="stop8"
   style="stop-color:#A0C6DE"
   offset="0" />
				<stop
   id="stop10"
   style="stop-color:#FFFFFF"
   offset="1" />
				<a:midPointStop
   style="stop-color:#A0C6DE"
   offset="0" />
				<a:midPointStop
   style="stop-color:#A0C6DE"
   offset="0.5" />
				<a:midPointStop
   style="stop-color:#FFFFFF"
   offset="1" />
			</linearGradient><linearGradient
     y2="15.7593"
     x2="23.2657"
     y1="14.3496"
     x1="14.1372"
     gradientUnits="userSpaceOnUse"
     id="XMLID_20_">
				<stop
   id="stop26"
   style="stop-color:#A0C6DE"
   offset="0" />
				<stop
   id="stop28"
   style="stop-color:#FFFFFF"
   offset="1" />
				<a:midPointStop
   style="stop-color:#A0C6DE"
   offset="0" />
				<a:midPointStop
   style="stop-color:#A0C6DE"
   offset="0.5" />
				<a:midPointStop
   style="stop-color:#FFFFFF"
   offset="1" />
			</linearGradient><linearGradient
     y2="16.5457"
     x2="1.858"
     y1="22.9219"
     x1="5.0796"
     gradientUnits="userSpaceOnUse"
     id="XMLID_22_">
				<stop
   id="stop42"
   style="stop-color:#A0C6DE"
   offset="0" />
				<stop
   id="stop44"
   style="stop-color:#FFFFFF"
   offset="1" />
				<a:midPointStop
   style="stop-color:#A0C6DE"
   offset="0" />
				<a:midPointStop
   style="stop-color:#A0C6DE"
   offset="0.5" />
				<a:midPointStop
   style="stop-color:#FFFFFF"
   offset="1" />
			</linearGradient><linearGradient
     y2="29.8388"
     x2="45.9259"
     y1="24.2686"
     x1="42.0332"
     gradientUnits="userSpaceOnUse"
     id="XMLID_24_">
				<stop
   id="stop58"
   style="stop-color:#A0C6DE"
   offset="0" />
				<stop
   id="stop60"
   style="stop-color:#FFFFFF"
   offset="1" />
				<a:midPointStop
   style="stop-color:#A0C6DE"
   offset="0" />
				<a:midPointStop
   style="stop-color:#A0C6DE"
   offset="0.5" />
				<a:midPointStop
   style="stop-color:#FFFFFF"
   offset="1" />
			</linearGradient></defs><sodipodi:namedview
   inkscape:window-height="540"
   inkscape:window-width="756"
   inkscape:pageshadow="2"
   inkscape:pageopacity="0.0"
   borderopacity="1.0"
   bordercolor="#666666"
   pagecolor="#ffffff"
   id="base"
   inkscape:zoom="7.7305699"
   inkscape:cx="24.125"
   inkscape:cy="24.125"
   inkscape:window-x="367"
   inkscape:window-y="349"
   inkscape:current-layer="svg2" />
		<path
   style="fill:url(#XMLID_18_)"
   id="path12"
   d="M 25.486,31.557 C 26.29,31.627 35.154,32.182 36.173,32.268 C 36.027,33.116 35.81,35.271 35.675,36.05 C 34.763,35.904 25.121,33.855 24.111,33.697 L 25.486,31.557 z "
   i:knockout="Off" /><circle
   style="fill:#162b4d"
   sodipodi:ry="1.3380001"
   sodipodi:rx="1.3380001"
   sodipodi:cy="24.125"
   sodipodi:cx="24.125"
   id="circle14"
   r="1.3380001"
   cy="24.125"
   cx="24.125"
   i:knockout="Off" /><g
   id="g16">
				
					<linearGradient
   gradientTransform="matrix(0.4998,0.8661,-0.8661,0.4998,-31.7193,310.9877)"
   y2="-191.6698"
   x2="-202.6013"
   y1="-193.3037"
   x1="-212.97951"
   gradientUnits="userSpaceOnUse"
   id="XMLID_19_">
					<stop
   id="stop19"
   style="stop-color:#FFFFFF"
   offset="0" />
					<stop
   id="stop21"
   style="stop-color:#B7D0DC"
   offset="1" />
					<a:midPointStop
   style="stop-color:#FFFFFF"
   offset="0" />
					<a:midPointStop
   style="stop-color:#FFFFFF"
   offset="0.5" />
					<a:midPointStop
   style="stop-color:#B7D0DC"
   offset="1" />
				</linearGradient>
				<path
   style="fill:url(#XMLID_19_)"
   id="path23"
   d="M 23.456,34.711 L 36.556,37.274 L 37.427,31.293 L 26.158,30.512 L 23.456,34.711 z M 25.485,31.557 C 26.288,31.625 35.151,32.18 36.169,32.268 C 36.024,33.116 35.808,35.272 35.674,36.049 C 34.759,35.904 25.118,33.856 24.108,33.697 L 25.485,31.557 z "
   i:knockout="Off" />
			</g><path
   style="fill:url(#XMLID_20_)"
   id="path30"
   d="M 22.538,16.637 C 21.735,16.567 12.87,16.012 11.852,15.926 C 11.998,15.078 12.214,12.924 12.349,12.144 C 13.262,12.29 22.903,14.34 23.913,14.496 L 22.538,16.637 z "
   i:knockout="Off" /><g
   id="g32">
				
					<linearGradient
   gradientTransform="matrix(-0.4998,-0.8661,0.8661,-0.4998,-650.5873,-338.7924)"
   y2="402.92899"
   x2="-633.47443"
   y1="401.29489"
   x1="-643.85352"
   gradientUnits="userSpaceOnUse"
   id="XMLID_21_">
					<stop
   id="stop35"
   style="stop-color:#FFFFFF"
   offset="0" />
					<stop
   id="stop37"
   style="stop-color:#B7D0DC"
   offset="1" />
					<a:midPointStop
   style="stop-color:#FFFFFF"
   offset="0" />
					<a:midPointStop
   style="stop-color:#FFFFFF"
   offset="0.5" />
					<a:midPointStop
   style="stop-color:#B7D0DC"
   offset="1" />
				</linearGradient>
				<path
   style="fill:url(#XMLID_21_)"
   id="path39"
   d="M 24.568,13.482 L 11.47,10.92 L 10.599,16.902 L 21.867,17.683 L 24.568,13.482 z M 22.54,16.637 C 21.737,16.57 12.874,16.014 11.856,15.926 C 12.001,15.078 12.217,12.922 12.35,12.145 C 13.266,12.29 22.907,14.338 23.916,14.497 L 22.54,16.637 z "
   i:knockout="Off" />
			</g><path
   style="fill:url(#XMLID_22_)"
   id="path46"
   d="M 1.94,16.84 C 2.446,17.468 7.68,23.619 8.324,24.414 C 7.611,24.895 5.907,26.232 5.252,26.676 C 4.726,25.915 1.896,21.227 1.31,20.39 L 1.94,16.84 z "
   i:knockout="Off" /><g
   id="g48">
				
					<linearGradient
   gradientTransform="matrix(-0.2784,0.9604,-0.9604,-0.2784,-365.3024,448.0322)"
   y2="-236.3093"
   x2="-505.75461"
   y1="-237.94341"
   x1="-516.13379"
   gradientUnits="userSpaceOnUse"
   id="XMLID_23_">
					<stop
   id="stop51"
   style="stop-color:#FFFFFF"
   offset="0" />
					<stop
   id="stop53"
   style="stop-color:#B7D0DC"
   offset="1" />
					<a:midPointStop
   style="stop-color:#FFFFFF"
   offset="0" />
					<a:midPointStop
   style="stop-color:#FFFFFF"
   offset="0.5" />
					<a:midPointStop
   style="stop-color:#B7D0DC"
   offset="1" />
				</linearGradient>
				<path
   style="fill:url(#XMLID_23_)"
   id="path55"
   d="M 0.125,20.619 L 4.979,28.158 L 9.896,24.641 L 2.653,15.974 L 0.125,20.619 z M 1.94,16.84 C 2.447,17.465 7.68,23.616 8.321,24.41 C 7.61,24.894 5.905,26.23 5.251,26.674 C 4.722,25.914 1.894,21.225 1.308,20.387 L 1.94,16.84 z "
   i:knockout="Off" />
			</g><path
   style="fill:url(#XMLID_24_)"
   id="path62"
   d="M 45.578,31.109 C 45.072,30.48 39.837,24.329 39.194,23.535 C 39.907,23.053 41.61,21.717 42.266,21.273 C 42.792,22.033 45.621,26.722 46.208,27.558 L 45.578,31.109 z "
   i:knockout="Off" /><g
   id="g64">
				
					<linearGradient
   gradientTransform="matrix(0.2784,-0.9604,0.9604,0.2784,-294.4447,-469.3564)"
   y2="462.32251"
   x2="-375.36639"
   y1="460.68851"
   x1="-385.74561"
   gradientUnits="userSpaceOnUse"
   id="XMLID_25_">
					<stop
   id="stop67"
   style="stop-color:#FFFFFF"
   offset="0" />
					<stop
   id="stop69"
   style="stop-color:#B7D0DC"
   offset="1" />
					<a:midPointStop
   style="stop-color:#FFFFFF"
   offset="0" />
					<a:midPointStop
   style="stop-color:#FFFFFF"
   offset="0.5" />
					<a:midPointStop
   style="stop-color:#B7D0DC"
   offset="1" />
				</linearGradient>
				<path
   style="fill:url(#XMLID_25_)"
   id="path71"
   d="M 47.394,27.329 L 42.54,19.791 L 37.623,23.307 L 44.865,31.975 L 47.394,27.329 z M 45.578,31.109 C 45.071,30.484 39.838,24.332 39.196,23.538 C 39.907,23.055 41.613,21.718 42.266,21.275 C 42.795,22.035 45.624,26.723 46.21,27.562 L 45.578,31.109 z "
   i:knockout="Off" />
			</g><path
   style="opacity:0.2;fill:none;stroke:#709ec3"
   id="path73"
   d="M 1.682,18.111 L 1.682,18.111 C 0.259,23.42 9.003,30.221 21.589,33.593 C 34.173,36.965 45.148,35.448 46.569,30.139 C 47.991,24.83 39.247,18.031 26.662,14.659 C 14.077,11.286 3.104,12.803 1.682,18.111 z "
   i:knockout="Off" /><g
   style="opacity:0.5"
   id="g75"
   i:knockout="Off">
				<linearGradient
   y2="24.1255"
   x2="46.226601"
   y1="24.1255"
   x1="2.0253999"
   gradientUnits="userSpaceOnUse"
   id="XMLID_26_">
					<stop
   id="stop78"
   style="stop-color:#FFFFFF"
   offset="0" />
					<stop
   id="stop80"
   style="stop-color:#A0C6DE"
   offset="0.1292" />
					<stop
   id="stop82"
   style="stop-color:#FFFFFF"
   offset="0.5225" />
					<stop
   id="stop84"
   style="stop-color:#A0C6DE"
   offset="0.8483" />
					<stop
   id="stop86"
   style="stop-color:#FFFFFF"
   offset="1" />
					<a:midPointStop
   style="stop-color:#FFFFFF"
   offset="0" />
					<a:midPointStop
   style="stop-color:#FFFFFF"
   offset="0.5" />
					<a:midPointStop
   style="stop-color:#A0C6DE"
   offset="0.1292" />
					<a:midPointStop
   style="stop-color:#A0C6DE"
   offset="0.5" />
					<a:midPointStop
   style="stop-color:#FFFFFF"
   offset="0.5225" />
					<a:midPointStop
   style="stop-color:#FFFFFF"
   offset="0.5" />
					<a:midPointStop
   style="stop-color:#A0C6DE"
   offset="0.8483" />
					<a:midPointStop
   style="stop-color:#A0C6DE"
   offset="0.5" />
					<a:midPointStop
   style="stop-color:#FFFFFF"
   offset="1" />
				</linearGradient>
				<path
   style="fill:url(#XMLID_26_)"
   id="path88"
   d="M 2.165,18.24 L 2.165,18.24 C 0.815,23.279 9.403,29.81 21.718,33.109 C 34.032,36.409 44.738,35.047 46.087,30.009 C 47.436,24.971 38.847,18.44 26.532,15.14 C 14.218,11.841 3.515,13.203 2.165,18.24 z M 26.274,16.107 C 37.654,19.156 46.285,25.404 45.12,29.751 C 43.956,34.098 33.356,35.193 21.976,32.145 C 10.597,29.095 1.966,22.846 3.13,18.5 L 3.13,18.5 C 4.296,14.152 14.894,13.057 26.274,16.107 z "
   i:knockout="Off" />
			</g><path
   style="opacity:0.2;fill:none;stroke:#709ec3"
   id="path90"
   d="M 3.613,18.629 C 3.557,18.836 3.53,19.053 3.53,19.277 C 3.53,22.908 10.721,28.61 22.106,31.661 C 34.194,34.9 43.682,33.185 44.637,29.621 C 45.592,26.057 38.232,19.828 26.144,16.59 C 14.057,13.351 4.568,15.064 3.613,18.629 z "
   i:knockout="Off" /><g
   id="g92">
				<circle
   style="fill:none;stroke:#152a4c;stroke-width:1.5"
   sodipodi:ry="2.1040001"
   sodipodi:rx="2.1040001"
   sodipodi:cy="34.278"
   sodipodi:cx="36.985001"
   id="circle94"
   r="2.1040001"
   cy="34.278"
   cx="36.985001"
   i:knockout="Off" /> 
				
					<radialGradient
   gradientUnits="userSpaceOnUse"
   gradientTransform="matrix(0,-1,1,0,-101.8164,115.209)"
   fy="138.31931"
   fx="81.700203"
   r="2.9563"
   cy="138.31931"
   cx="81.700203"
   id="XMLID_27_">
					<stop
   id="stop97"
   style="stop-color:#FFFFFF"
   offset="0" />
					<stop
   id="stop99"
   style="stop-color:#DBE8F2"
   offset="0.0898" />
					<stop
   id="stop101"
   style="stop-color:#A2C3DE"
   offset="0.2484" />
					<stop
   id="stop103"
   style="stop-color:#75A6CD"
   offset="0.3951" />
					<stop
   id="stop105"
   style="stop-color:#5591C2"
   offset="0.5253" />
					<stop
   id="stop107"
   style="stop-color:#4185BB"
   offset="0.6339" />
					<stop
   id="stop109"
   style="stop-color:#3A80B8"
   offset="0.7079" />
					<stop
   id="stop111"
   style="stop-color:#244A87"
   offset="1" />
					<a:midPointStop
   style="stop-color:#FFFFFF"
   offset="0" />
					<a:midPointStop
   style="stop-color:#FFFFFF"
   offset="0.376" />
					<a:midPointStop
   style="stop-color:#3A80B8"
   offset="0.7079" />
					<a:midPointStop
   style="stop-color:#3A80B8"
   offset="0.5" />
					<a:midPointStop
   style="stop-color:#244A87"
   offset="1" />
				</radialGradient>
				<circle
   sodipodi:ry="2.1040001"
   sodipodi:rx="2.1040001"
   sodipodi:cy="34.278"
   sodipodi:cx="36.985001"
   style="fill:url(#XMLID_27_)"
   id="circle113"
   r="2.1040001"
   cy="34.278"
   cx="36.985001"
   i:knockout="Off" /> 
				<g
   id="g115"
   i:knockout="Off">
					
						<radialGradient
   gradientUnits="userSpaceOnUse"
   gradientTransform="matrix(0,1,1,0,-101.8164,66.5552)"
   fy="137.5791"
   fx="-34.034698"
   r="5.2126999"
   cy="137.5791"
   cx="-34.034698"
   id="XMLID_28_">
						<stop
   id="stop118"
   style="stop-color:#FFFFFF"
   offset="0" />
						<stop
   id="stop120"
   style="stop-color:#2E659E"
   offset="0.6854" />
						<stop
   id="stop122"
   style="stop-color:#1D3E63"
   offset="1" />
						<a:midPointStop
   style="stop-color:#FFFFFF"
   offset="0" />
						<a:midPointStop
   style="stop-color:#FFFFFF"
   offset="0.5" />
						<a:midPointStop
   style="stop-color:#2E659E"
   offset="0.6854" />
						<a:midPointStop
   style="stop-color:#2E659E"
   offset="0.5" />
						<a:midPointStop
   style="stop-color:#1D3E63"
   offset="1" />
					</radialGradient>
					<path
   style="fill:url(#XMLID_28_)"
   id="path124"
   d="M 34.878,34.277 C 34.878,34.84 35.097,35.369 35.495,35.765 C 35.893,36.163 36.421,36.382 36.985,36.382 C 37.546,36.382 38.076,36.163 38.473,35.765 C 38.871,35.369 39.089,34.841 39.089,34.277 C 39.089,33.117 38.145,32.173 36.985,32.173 C 35.823,32.174 34.878,33.117 34.878,34.277 z M 38.753,34.277 C 38.753,34.751 38.57,35.193 38.237,35.528 C 37.901,35.863 37.456,36.047 36.985,36.047 C 36.51,36.047 36.067,35.863 35.733,35.528 C 35.399,35.193 35.213,34.751 35.213,34.277 C 35.213,33.302 36.009,32.507 36.984,32.507 C 37.96,32.508 38.753,33.303 38.753,34.277 z "
   i:knockout="Off" />
				</g>
			</g><g
   id="g126">
				<circle
   style="fill:none;stroke:#152a4c;stroke-width:1.5"
   sodipodi:ry="2.1040001"
   sodipodi:rx="2.1040001"
   sodipodi:cy="13.818"
   sodipodi:cx="11.073"
   id="circle128"
   r="2.1040001"
   cy="13.818"
   cx="11.073"
   i:knockout="Off" /> 
				
					<radialGradient
   gradientUnits="userSpaceOnUse"
   gradientTransform="matrix(0,-1,1,0,-101.8164,115.209)"
   fy="112.4072"
   fx="102.1602"
   r="2.9563"
   cy="112.4072"
   cx="102.1602"
   id="XMLID_29_">
					<stop
   id="stop131"
   style="stop-color:#FFFFFF"
   offset="0" />
					<stop
   id="stop133"
   style="stop-color:#DBE8F2"
   offset="0.0898" />
					<stop
   id="stop135"
   style="stop-color:#A2C3DE"
   offset="0.2484" />
					<stop
   id="stop137"
   style="stop-color:#75A6CD"
   offset="0.3951" />
					<stop
   id="stop139"
   style="stop-color:#5591C2"
   offset="0.5253" />
					<stop
   id="stop141"
   style="stop-color:#4185BB"
   offset="0.6339" />
					<stop
   id="stop143"
   style="stop-color:#3A80B8"
   offset="0.7079" />
					<stop
   id="stop145"
   style="stop-color:#244A87"
   offset="1" />
					<a:midPointStop
   style="stop-color:#FFFFFF"
   offset="0" />
					<a:midPointStop
   style="stop-color:#FFFFFF"
   offset="0.376" />
					<a:midPointStop
   style="stop-color:#3A80B8"
   offset="0.7079" />
					<a:midPointStop
   style="stop-color:#3A80B8"
   offset="0.5" />
					<a:midPointStop
   style="stop-color:#244A87"
   offset="1" />
				</radialGradient>
				<circle
   sodipodi:ry="2.1040001"
   sodipodi:rx="2.1040001"
   sodipodi:cy="13.818"
   sodipodi:cx="11.073"
   style="fill:url(#XMLID_29_)"
   id="circle147"
   r="2.1040001"
   cy="13.818"
   cx="11.073"
   i:knockout="Off" /> 
				<g
   id="g149"
   i:knockout="Off">
					
						<radialGradient
   gradientUnits="userSpaceOnUse"
   gradientTransform="matrix(0,1,1,0,-101.8164,66.5552)"
   fy="111.667"
   fx="-54.494598"
   r="5.2126999"
   cy="111.667"
   cx="-54.494598"
   id="XMLID_30_">
						<stop
   id="stop152"
   style="stop-color:#FFFFFF"
   offset="0" />
						<stop
   id="stop154"
   style="stop-color:#2E659E"
   offset="0.6854" />
						<stop
   id="stop156"
   style="stop-color:#1D3E63"
   offset="1" />
						<a:midPointStop
   style="stop-color:#FFFFFF"
   offset="0" />
						<a:midPointStop
   style="stop-color:#FFFFFF"
   offset="0.5" />
						<a:midPointStop
   style="stop-color:#2E659E"
   offset="0.6854" />
						<a:midPointStop
   style="stop-color:#2E659E"
   offset="0.5" />
						<a:midPointStop
   style="stop-color:#1D3E63"
   offset="1" />
					</radialGradient>
					<path
   style="fill:url(#XMLID_30_)"
   id="path158"
   d="M 8.966,13.818 C 8.966,14.379 9.185,14.909 9.583,15.304 C 9.981,15.703 10.509,15.922 11.073,15.922 C 11.634,15.922 12.164,15.703 12.561,15.304 C 12.959,14.908 13.177,14.38 13.177,13.818 C 13.177,12.657 12.233,11.714 11.073,11.714 C 9.911,11.714 8.966,12.658 8.966,13.818 z M 12.841,13.818 C 12.841,14.291 12.658,14.733 12.325,15.068 C 11.989,15.403 11.544,15.587 11.073,15.587 C 10.598,15.587 10.155,15.403 9.821,15.068 C 9.487,14.733 9.301,14.291 9.301,13.818 C 9.301,12.842 10.097,12.048 11.072,12.048 C 12.048,12.048 12.841,12.843 12.841,13.818 z "
   i:knockout="Off" />
				</g>
			</g><g
   id="g160">
				<circle
   style="fill:none;stroke:#152a4c;stroke-width:1.5"
   sodipodi:ry="2.1040001"
   sodipodi:rx="2.1040001"
   sodipodi:cy="26.062"
   sodipodi:cx="7.3210001"
   id="circle162"
   r="2.1040001"
   cy="26.062"
   cx="7.3210001"
   i:knockout="Off" /> 
				
					<radialGradient
   gradientUnits="userSpaceOnUse"
   gradientTransform="matrix(0,-1,1,0,-101.8164,115.209)"
   fy="108.6553"
   fx="89.917"
   r="2.9572001"
   cy="108.6553"
   cx="89.917"
   id="XMLID_31_">
					<stop
   id="stop165"
   style="stop-color:#FFFFFF"
   offset="0" />
					<stop
   id="stop167"
   style="stop-color:#DBE8F2"
   offset="0.0898" />
					<stop
   id="stop169"
   style="stop-color:#A2C3DE"
   offset="0.2484" />
					<stop
   id="stop171"
   style="stop-color:#75A6CD"
   offset="0.3951" />
					<stop
   id="stop173"
   style="stop-color:#5591C2"
   offset="0.5253" />
					<stop
   id="stop175"
   style="stop-color:#4185BB"
   offset="0.6339" />
					<stop
   id="stop177"
   style="stop-color:#3A80B8"
   offset="0.7079" />
					<stop
   id="stop179"
   style="stop-color:#244A87"
   offset="1" />
					<a:midPointStop
   style="stop-color:#FFFFFF"
   offset="0" />
					<a:midPointStop
   style="stop-color:#FFFFFF"
   offset="0.376" />
					<a:midPointStop
   style="stop-color:#3A80B8"
   offset="0.7079" />
					<a:midPointStop
   style="stop-color:#3A80B8"
   offset="0.5" />
					<a:midPointStop
   style="stop-color:#244A87"
   offset="1" />
				</radialGradient>
				<circle
   sodipodi:ry="2.1040001"
   sodipodi:rx="2.1040001"
   sodipodi:cy="26.062"
   sodipodi:cx="7.3210001"
   style="fill:url(#XMLID_31_)"
   id="circle181"
   r="2.1040001"
   cy="26.062"
   cx="7.3210001"
   i:knockout="Off" /> 
				<g
   id="g183"
   i:knockout="Off">
					
						<radialGradient
   gradientUnits="userSpaceOnUse"
   gradientTransform="matrix(0,1,1,0,-101.8164,66.5552)"
   fy="107.915"
   fx="-42.251499"
   r="5.2133999"
   cy="107.915"
   cx="-42.251499"
   id="XMLID_32_">
						<stop
   id="stop186"
   style="stop-color:#FFFFFF"
   offset="0" />
						<stop
   id="stop188"
   style="stop-color:#2E659E"
   offset="0.6854" />
						<stop
   id="stop190"
   style="stop-color:#1D3E63"
   offset="1" />
						<a:midPointStop
   style="stop-color:#FFFFFF"
   offset="0" />
						<a:midPointStop
   style="stop-color:#FFFFFF"
   offset="0.5" />
						<a:midPointStop
   style="stop-color:#2E659E"
   offset="0.6854" />
						<a:midPointStop
   style="stop-color:#2E659E"
   offset="0.5" />
						<a:midPointStop
   style="stop-color:#1D3E63"
   offset="1" />
					</radialGradient>
					<path
   style="fill:url(#XMLID_32_)"
   id="path192"
   d="M 5.215,26.062 C 5.215,26.624 5.433,27.153 5.832,27.549 C 6.23,27.948 6.757,28.166 7.321,28.166 C 7.882,28.166 8.412,27.948 8.809,27.549 C 9.208,27.153 9.426,26.625 9.426,26.062 C 9.426,24.902 8.482,23.958 7.321,23.958 C 6.159,23.957 5.215,24.901 5.215,26.062 z M 9.089,26.062 C 9.089,26.536 8.907,26.977 8.573,27.313 C 8.237,27.648 7.793,27.831 7.321,27.831 C 6.846,27.831 6.403,27.648 6.07,27.313 C 5.735,26.977 5.549,26.536 5.549,26.062 C 5.549,25.086 6.346,24.292 7.32,24.292 C 8.294,24.292 9.089,25.086 9.089,26.062 z "
   i:knockout="Off" />
				</g>
			</g><g
   id="g194">
				<circle
   style="fill:none;stroke:#152a4c;stroke-width:1.5"
   sodipodi:ry="2.1040001"
   sodipodi:rx="2.1040001"
   sodipodi:cy="21.75"
   sodipodi:cx="40.320999"
   id="circle196"
   r="2.1040001"
   cy="21.75"
   cx="40.320999"
   i:knockout="Off" /> 
				
					<radialGradient
   gradientUnits="userSpaceOnUse"
   gradientTransform="matrix(0,-1,1,0,-101.8164,115.209)"
   fy="141.6553"
   fx="94.2285"
   r="2.9572001"
   cy="141.6553"
   cx="94.2285"
   id="XMLID_33_">
					<stop
   id="stop199"
   style="stop-color:#FFFFFF"
   offset="0" />
					<stop
   id="stop201"
   style="stop-color:#DBE8F2"
   offset="0.0898" />
					<stop
   id="stop203"
   style="stop-color:#A2C3DE"
   offset="0.2484" />
					<stop
   id="stop205"
   style="stop-color:#75A6CD"
   offset="0.3951" />
					<stop
   id="stop207"
   style="stop-color:#5591C2"
   offset="0.5253" />
					<stop
   id="stop209"
   style="stop-color:#4185BB"
   offset="0.6339" />
					<stop
   id="stop211"
   style="stop-color:#3A80B8"
   offset="0.7079" />
					<stop
   id="stop213"
   style="stop-color:#244A87"
   offset="1" />
					<a:midPointStop
   style="stop-color:#FFFFFF"
   offset="0" />
					<a:midPointStop
   style="stop-color:#FFFFFF"
   offset="0.376" />
					<a:midPointStop
   style="stop-color:#3A80B8"
   offset="0.7079" />
					<a:midPointStop
   style="stop-color:#3A80B8"
   offset="0.5" />
					<a:midPointStop
   style="stop-color:#244A87"
   offset="1" />
				</radialGradient>
				<circle
   sodipodi:ry="2.1040001"
   sodipodi:rx="2.1040001"
   sodipodi:cy="21.75"
   sodipodi:cx="40.320999"
   style="fill:url(#XMLID_33_)"
   id="circle215"
   r="2.1040001"
   cy="21.75"
   cx="40.320999"
   i:knockout="Off" /> 
				<g
   id="g217"
   i:knockout="Off">
					
						<radialGradient
   gradientUnits="userSpaceOnUse"
   gradientTransform="matrix(0,1,1,0,-101.8164,66.5552)"
   fy="140.91499"
   fx="-46.563"
   r="5.2133999"
   cy="140.91499"
   cx="-46.563"
   id="XMLID_34_">
						<stop
   id="stop220"
   style="stop-color:#FFFFFF"
   offset="0" />
						<stop
   id="stop222"
   style="stop-color:#2E659E"
   offset="0.6854" />
						<stop
   id="stop224"
   style="stop-color:#1D3E63"
   offset="1" />
						<a:midPointStop
   style="stop-color:#FFFFFF"
   offset="0" />
						<a:midPointStop
   style="stop-color:#FFFFFF"
   offset="0.5" />
						<a:midPointStop
   style="stop-color:#2E659E"
   offset="0.6854" />
						<a:midPointStop
   style="stop-color:#2E659E"
   offset="0.5" />
						<a:midPointStop
   style="stop-color:#1D3E63"
   offset="1" />
					</radialGradient>
					<path
   style="fill:url(#XMLID_34_)"
   id="path226"
   d="M 38.215,21.75 C 38.215,22.311 38.433,22.84 38.832,23.236 C 39.23,23.635 39.757,23.854 40.321,23.854 C 40.882,23.854 41.412,23.635 41.809,23.236 C 42.208,22.84 42.426,22.312 42.426,21.75 C 42.426,20.589 41.482,19.646 40.321,19.646 C 39.16,19.646 38.215,20.589 38.215,21.75 z M 42.089,21.75 C 42.089,22.223 41.907,22.665 41.573,23 C 41.237,23.335 40.793,23.518 40.321,23.518 C 39.846,23.518 39.403,23.335 39.07,23 C 38.735,22.665 38.55,22.223 38.55,21.75 C 38.55,20.773 39.346,19.979 40.321,19.979 C 41.296,19.979 42.089,20.773 42.089,21.75 z "
   i:knockout="Off" />
				</g>
			</g>
	</svg>