<?xml version="1.0" encoding="UTF-8" standalone="no"?>
<!-- Created with Inkscape (http://www.inkscape.org/) -->

<svg
   xmlns:dc="http://purl.org/dc/elements/1.1/"
   xmlns:cc="http://creativecommons.org/ns#"
   xmlns:rdf="http://www.w3.org/1999/02/22-rdf-syntax-ns#"
   xmlns:svg="http://www.w3.org/2000/svg"
   xmlns="http://www.w3.org/2000/svg"
   xmlns:xlink="http://www.w3.org/1999/xlink"
   xmlns:sodipodi="http://sodipodi.sourceforge.net/DTD/sodipodi-0.dtd"
   xmlns:inkscape="http://www.inkscape.org/namespaces/inkscape"
   width="48px"
   height="48px"
   id="svg5208"
   version="1.1"
   inkscape:version="0.48.4 r9939"
   sodipodi:docname="sleep.svg">
  <defs
     id="defs5210">
    <linearGradient
       inkscape:collect="always"
       id="linearGradient5904">
      <stop
         style="stop-color:#eeeeec;stop-opacity:1;"
         offset="0"
         id="stop5906" />
      <stop
         style="stop-color:#eeeeec;stop-opacity:0;"
         offset="1"
         id="stop5908" />
    </linearGradient>
    <linearGradient
       id="linearGradient5896">
      <stop
         style="stop-color:#b8a0a0;stop-opacity:1;"
         offset="0"
         id="stop5898" />
      <stop
         style="stop-color:#644a4a;stop-opacity:1;"
         offset="1"
         id="stop5900" />
    </linearGradient>
    <linearGradient
       id="linearGradient5884">
      <stop
         style="stop-color:#fde5e5;stop-opacity:1;"
         offset="0"
         id="stop5886" />
      <stop
         style="stop-color:#d59b9b;stop-opacity:1;"
         offset="1"
         id="stop5888" />
    </linearGradient>
    <linearGradient
       inkscape:collect="always"
       id="linearGradient5866">
      <stop
         style="stop-color:#204a87;stop-opacity:1;"
         offset="0"
         id="stop5868" />
      <stop
         style="stop-color:#204a87;stop-opacity:0;"
         offset="1"
         id="stop5870" />
    </linearGradient>
    <linearGradient
       id="linearGradient5856">
      <stop
         style="stop-color:#cfdeef;stop-opacity:1;"
         offset="0"
         id="stop5858" />
      <stop
         style="stop-color:#6b9acd;stop-opacity:1;"
         offset="1"
         id="stop5860" />
    </linearGradient>
    <linearGradient
       inkscape:collect="always"
       id="linearGradient5818">
      <stop
         style="stop-color:#917600;stop-opacity:1;"
         offset="0"
         id="stop5820" />
      <stop
         style="stop-color:#917600;stop-opacity:0;"
         offset="1"
         id="stop5822" />
    </linearGradient>
    <linearGradient
       id="linearGradient4816">
      <stop
         style="stop-color:#643e01;stop-opacity:1;"
         offset="0"
         id="stop4818" />
      <stop
         id="stop4824"
         offset="0.18055555"
         style="stop-color:#794b01;stop-opacity:1;" />
      <stop
         style="stop-color:#8f5902;stop-opacity:0;"
         offset="1"
         id="stop4820" />
    </linearGradient>
    <linearGradient
       id="linearGradient52925-5-1">
      <stop
         style="stop-color:#fce94f;stop-opacity:1;"
         offset="0"
         id="stop52927-5-4" />
      <stop
         style="stop-color:#c4a000;stop-opacity:1"
         offset="1"
         id="stop52929-1-2" />
    </linearGradient>
    <linearGradient
       id="linearGradient4790-2">
      <stop
         style="stop-color:#c6a100;stop-opacity:1;"
         offset="0"
         id="stop4792-2" />
      <stop
         style="stop-color:#574700;stop-opacity:1;"
         offset="1"
         id="stop4794-1" />
    </linearGradient>
    <radialGradient
       inkscape:collect="always"
       xlink:href="#linearGradient4745-9"
       id="radialGradient4979"
       gradientUnits="userSpaceOnUse"
       gradientTransform="matrix(1.3719251,0.01245156,-0.01327163,1.6122898,-14.236935,-11.009689)"
       cx="19.344898"
       cy="27.081203"
       fx="19.344898"
       fy="27.081203"
       r="11.491903" />
    <linearGradient
       id="linearGradient4745-9">
      <stop
         style="stop-color:#8f5902;stop-opacity:0;"
         offset="0"
         id="stop4747-2" />
      <stop
         style="stop-color:#8f5902;stop-opacity:0.31531531;"
         offset="1"
         id="stop4749-7" />
    </linearGradient>
    <linearGradient
       inkscape:collect="always"
       xlink:href="#linearGradient5818"
       id="linearGradient5824"
       x1="23.488764"
       y1="14.302057"
       x2="23.843756"
       y2="28.292669"
       gradientUnits="userSpaceOnUse"
       gradientTransform="matrix(1,0,0,1.1763179,0.05050763,0.59193238)" />
    <linearGradient
       inkscape:collect="always"
       xlink:href="#linearGradient5856"
       id="linearGradient5862"
       x1="24.579037"
       y1="15.474339"
       x2="28.79318"
       y2="22.797945"
       gradientUnits="userSpaceOnUse" />
    <linearGradient
       inkscape:collect="always"
       xlink:href="#linearGradient5866"
       id="linearGradient5872"
       x1="6.4144687"
       y1="12.468595"
       x2="20.758635"
       y2="12.468595"
       gradientUnits="userSpaceOnUse" />
    <radialGradient
       inkscape:collect="always"
       xlink:href="#linearGradient5884"
       id="radialGradient5890"
       cx="3.5102801"
       cy="9.7505836"
       fx="3.5102801"
       fy="9.7505836"
       r="3.9862955"
       gradientTransform="matrix(1.2153769,0.01433638,-0.01478433,1.2533513,-0.61187726,-2.5307588)"
       gradientUnits="userSpaceOnUse" />
    <linearGradient
       inkscape:collect="always"
       xlink:href="#linearGradient5896"
       id="linearGradient5902"
       x1="1.645305"
       y1="7.9221978"
       x2="7.4965758"
       y2="13.377022"
       gradientUnits="userSpaceOnUse" />
    <linearGradient
       inkscape:collect="always"
       xlink:href="#linearGradient5904"
       id="linearGradient5910"
       x1="7.3353362"
       y1="13.448522"
       x2="0.97045499"
       y2="6.106153"
       gradientUnits="userSpaceOnUse" />
    <radialGradient
       inkscape:collect="always"
       xlink:href="#linearGradient52925-5-1"
       id="radialGradient6656"
       cx="23.687777"
       cy="18.154829"
       fx="23.687777"
       fy="18.154829"
       r="17.62788"
       gradientTransform="matrix(1.3520339,-0.02328632,0.01679536,0.97515972,-8.7410956,4.0946001)"
       gradientUnits="userSpaceOnUse" />
  </defs>
  <sodipodi:namedview
     id="base"
     pagecolor="#ffffff"
     bordercolor="#666666"
     borderopacity="1.0"
     inkscape:pageopacity="0.0"
     inkscape:pageshadow="2"
     inkscape:zoom="19.79899"
     inkscape:cx="25.212183"
     inkscape:cy="35.252048"
     inkscape:current-layer="layer1"
     showgrid="true"
     inkscape:grid-bbox="true"
     inkscape:document-units="px"
     inkscape:window-width="2560"
     inkscape:window-height="1496"
     inkscape:window-x="-8"
     inkscape:window-y="-8"
     inkscape:window-maximized="1" />
  <metadata
     id="metadata5213">
    <rdf:RDF>
      <cc:Work
         rdf:about="">
        <dc:format>image/svg+xml</dc:format>
        <dc:type
           rdf:resource="http://purl.org/dc/dcmitype/StillImage" />
        <dc:title></dc:title>
      </cc:Work>
    </rdf:RDF>
  </metadata>
  <g
     id="layer1"
     inkscape:label="Layer 1"
     inkscape:groupmode="layer">
    <path
       sodipodi:nodetypes="sssssssssss"
       inkscape:connector-curvature="0"
       id="path5291"
       d="m 2.0444066,31.219712 c -0.073578,3.49581 5.6431576,4.020726 8.0998754,6.458013 2.37185,2.353094 3.184578,6.750177 6.328027,7.801281 3.554806,1.188651 7.15081,-2.550562 10.884206,-2.789861 3.918874,-0.251189 8.440952,3.690528 11.694194,1.446594 2.055154,-1.417549 0.530395,-5.241911 1.923719,-7.336303 1.381995,-2.077361 6.188383,-1.998526 5.923033,-4.494779 -0.40321,-3.793162 -6.786765,-3.205604 -10.22609,-4.701433 -4.450899,-1.935784 -8.633032,-5.298843 -13.466042,-5.528061 -5.135937,-0.243584 -10.163674,2.189303 -14.7822712,4.494779 -2.3471837,1.17165 -6.3225384,1.983796 -6.3786512,4.64977 z"
       style="fill:#c4a000;fill-opacity:0.54639175;stroke:none" />
    <path
       style="color:#000000;fill:#c4a000;fill-opacity:0.54639175;fill-rule:nonzero;stroke:none;marker:none;visibility:visible;display:inline;overflow:visible;enable-background:accumulate"
       d="m 4.014143,31.303387 c -0.0672,2.889216 5.1539777,3.323049 7.397734,5.337417 2.166245,1.944785 2.908521,5.578884 5.779479,6.4476 3.246656,0.982396 6.530938,-2.107988 9.940702,-2.305763 3.579165,-0.207603 7.709245,3.050147 10.680477,1.19558 1.877002,-1.171575 0.484418,-4.332333 1.756961,-6.063305 1.262195,-1.716897 5.65194,-1.651742 5.409592,-3.714844 -0.368258,-3.134971 -6.198452,-2.649367 -9.339637,-3.885639 -4.06507,-1.599886 -7.884672,-4.379386 -12.29873,-4.56883 -4.690727,-0.201318 -9.282632,1.809414 -13.5008634,3.714843 -2.1437168,0.968345 -5.7744659,1.639567 -5.8257146,3.842941 z"
       id="path5289"
       inkscape:connector-curvature="0"
       sodipodi:nodetypes="sssssssssss" />
    <path
       style="fill:#c4a000;fill-opacity:0.21134021;stroke:none"
       d="m -0.05434798,31.771014 c -0.0790539,3.898902 6.06314408,4.484344 8.70270038,7.202667 2.5483736,2.624423 3.4215886,7.52852 6.7989856,8.700824 3.819368,1.325711 7.683001,-2.84466 11.694252,-3.111552 4.210532,-0.280152 9.069162,4.116073 12.564524,1.613396 2.208106,-1.581001 0.569868,-5.846339 2.066889,-8.182229 1.484848,-2.316895 6.685348,-2.232938 6.363849,-5.013058 C 47.501602,27.48783 41.299558,28.345169 37.604264,26.67686 32.822112,24.517867 27.874158,21.827683 22.681456,21.572036 17.163281,21.300364 11.76136,24.01378 6.7990281,26.585093 c -2.5218705,1.30675 -6.79308714,2.212542 -6.85337608,5.185921 z"
       id="path5826"
       inkscape:connector-curvature="0"
       sodipodi:nodetypes="sssssssssss" />
    <path
       style="color:#000000;fill:url(#radialGradient6656);fill-opacity:1;fill-rule:nonzero;stroke:url(#linearGradient5824);stroke-width:0.74999994000000003;stroke-linecap:butt;stroke-linejoin:miter;stroke-miterlimit:4;stroke-opacity:1;stroke-dasharray:none;stroke-dashoffset:0;marker:none;visibility:visible;display:inline;overflow:visible;enable-background:accumulate"
       d="m 7.2972696,29.731864 c -0.0064,-1.325619 4.1941614,-3.975478 5.8095194,-5.193394 1.70722,-1.287176 6.056995,-7.763927 10.876749,-7.676869 4.625498,0.08355 8.78354,7.545763 11.390371,9.971741 2.532838,2.357121 6.382636,3.3886 6.429071,5.011218 0.01339,0.468051 -3.037016,1.788943 -3.496482,2.499749 -0.721352,1.115945 -0.05991,4.129699 -1.944233,5.064509 -2.513374,1.246877 -6.070592,-0.425747 -7.686841,-0.70387 -4.156059,-0.715173 -6.004126,2.019392 -8.857201,2.079579 -2.484198,0.05241 -3.571965,-2.675391 -6.559135,-6.17324 C 11.32156,32.342526 7.3067927,31.70433 7.2972696,29.731864 z"
       id="path4840"
       inkscape:connector-curvature="0"
       sodipodi:nodetypes="sssssssssss" />
    <path
       style="fill:none;stroke:#000000;stroke-width:2;stroke-linecap:butt;stroke-linejoin:miter;stroke-miterlimit:4;stroke-opacity:1;stroke-dasharray:none"
       d="m 14.546196,25.630228 c 1.89066,2.119007 3.944339,3.495752 7.00213,0.300534"
       id="path5828"
       inkscape:connector-curvature="0"
       sodipodi:nodetypes="cc" />
    <path
       sodipodi:nodetypes="cc"
       inkscape:connector-curvature="0"
       id="path5830"
       d="m 23.85803,26.158067 c 1.890661,2.119007 3.94434,3.495752 7.002131,0.300534"
       style="fill:none;stroke:#000000;stroke-width:2;stroke-linecap:butt;stroke-linejoin:miter;stroke-miterlimit:4;stroke-opacity:1;stroke-dasharray:none" />
    <path
       style="fill:#000000;fill-opacity:1;stroke:none"
       d="m 24.799245,34.969033 c 0,0 1.615388,-2.327672 2.878935,-2.575889 1.034588,-0.20324 2.97995,1.06066 2.97995,1.06066 0,0 -1.941649,1.411139 -3.080965,1.666752 -0.904856,0.20301 -2.77792,-0.151523 -2.77792,-0.151523 z"
       id="path5848"
       inkscape:connector-curvature="0"
       sodipodi:nodetypes="cscsc" />
    <path
       style="fill:#729fcf;stroke:#204a87;stroke-width:1px;stroke-linecap:butt;stroke-linejoin:miter;stroke-opacity:1"
       d="M 29.59747,18.149993 C 30.942328,15.215496 25.992064,3.0103856 20.304066,1.8865363 15.632054,0.96342797 3.4554383,8.7282306 4.1416254,10.169787 4.929844,11.825693 13.233875,8.2220214 14.243151,9.3616651 c 1.019446,1.1511269 0.16308,9.6320179 1.515229,10.2530479 2.060194,0.946229 12.749327,-0.282328 13.83909,-1.46472 z"
       id="path5852"
       inkscape:connector-curvature="0"
       sodipodi:nodetypes="cssssc" />
    <path
       sodipodi:type="star"
       style="color:#000000;fill:#eeeeec;fill-opacity:1;fill-rule:nonzero;stroke:none;stroke-width:0.75;marker:none;visibility:visible;display:inline;overflow:visible;enable-background:accumulate"
       id="path5874"
       sodipodi:sides="5"
       sodipodi:cx="34.648232"
       sodipodi:cy="7.0383143"
       sodipodi:r1="4.8331866"
       sodipodi:r2="2.4165933"
       sodipodi:arg1="0.97120004"
       sodipodi:arg2="1.5995186"
       inkscape:flatsided="false"
       inkscape:rounded="0"
       inkscape:randomized="0"
       d="M 37.375643,11.028417 34.578831,9.4539109 31.696235,10.865247 32.329417,7.7187709 30.096386,5.4133861 33.284526,5.0432631 34.787032,2.2071212 36.12423,5.1248483 39.285861,5.677401 36.924154,7.8507785 z"
       inkscape:transform-center-x="0.43560092"
       inkscape:transform-center-y="-0.076414924"
       transform="matrix(0.41647944,0,0,0.41647944,5.2969459,2.2514084)" />
    <path
       transform="matrix(0.41647944,0,0,0.41647944,9.4385713,6.3425262)"
       inkscape:transform-center-y="-0.076414924"
       inkscape:transform-center-x="0.43560092"
       d="M 37.375643,11.028417 34.578831,9.4539109 31.696235,10.865247 32.329417,7.7187709 30.096386,5.4133861 33.284526,5.0432631 34.787032,2.2071212 36.12423,5.1248483 39.285861,5.677401 36.924154,7.8507785 z"
       inkscape:randomized="0"
       inkscape:rounded="0"
       inkscape:flatsided="false"
       sodipodi:arg2="1.5995186"
       sodipodi:arg1="0.97120004"
       sodipodi:r2="2.4165933"
       sodipodi:r1="4.8331866"
       sodipodi:cy="7.0383143"
       sodipodi:cx="34.648232"
       sodipodi:sides="5"
       id="path5876"
       style="color:#000000;fill:#eeeeec;fill-opacity:1;fill-rule:nonzero;stroke:none;stroke-width:0.75;marker:none;visibility:visible;display:inline;overflow:visible;enable-background:accumulate"
       sodipodi:type="star" />
    <path
       sodipodi:type="star"
       style="color:#000000;fill:#eeeeec;fill-opacity:1;fill-rule:nonzero;stroke:none;stroke-width:0.75;marker:none;visibility:visible;display:inline;overflow:visible;enable-background:accumulate"
       id="path5878"
       sodipodi:sides="5"
       sodipodi:cx="34.648232"
       sodipodi:cy="7.0383143"
       sodipodi:r1="4.8331866"
       sodipodi:r2="2.4165933"
       sodipodi:arg1="0.97120004"
       sodipodi:arg2="1.5995186"
       inkscape:flatsided="false"
       inkscape:rounded="0"
       inkscape:randomized="0"
       d="M 37.375643,11.028417 34.578831,9.4539109 31.696235,10.865247 32.329417,7.7187709 30.096386,5.4133861 33.284526,5.0432631 34.787032,2.2071212 36.12423,5.1248483 39.285861,5.677401 36.924154,7.8507785 z"
       inkscape:transform-center-x="0.43560092"
       inkscape:transform-center-y="-0.076414924"
       transform="matrix(0.41647944,0,0,0.41647944,3.5291789,9.0194304)" />
    <path
       transform="matrix(0.41647944,0,0,0.41647944,-0.25889315,3.4635914)"
       inkscape:transform-center-y="-0.076414924"
       inkscape:transform-center-x="0.43560092"
       d="M 37.375643,11.028417 34.578831,9.4539109 31.696235,10.865247 32.329417,7.7187709 30.096386,5.4133861 33.284526,5.0432631 34.787032,2.2071212 36.12423,5.1248483 39.285861,5.677401 36.924154,7.8507785 z"
       inkscape:randomized="0"
       inkscape:rounded="0"
       inkscape:flatsided="false"
       sodipodi:arg2="1.5995186"
       sodipodi:arg1="0.97120004"
       sodipodi:r2="2.4165933"
       sodipodi:r1="4.8331866"
       sodipodi:cy="7.0383143"
       sodipodi:cx="34.648232"
       sodipodi:sides="5"
       id="path5880"
       style="color:#000000;fill:#eeeeec;fill-opacity:1;fill-rule:nonzero;stroke:none;stroke-width:0.75;marker:none;visibility:visible;display:inline;overflow:visible;enable-background:accumulate"
       sodipodi:type="star" />
    <path
       style="fill:url(#linearGradient5872);stroke:none;fill-opacity:1"
       d="m 6.4144687,9.3111575 c 0,0 8.0302003,-4.010557 11.2632003,-2.0203051 2.29641,1.4136818 3.080966,10.1520336 3.080966,10.1520336 L 14.950257,18.2005 14.293659,9.2101423 6.5659915,10.573848 z"
       id="path5864"
       inkscape:connector-curvature="0"
       sodipodi:nodetypes="csccccc" />
    <path
       sodipodi:type="star"
       style="color:#000000;fill:#eeeeec;fill-opacity:1;fill-rule:nonzero;stroke:none;stroke-width:0.75;marker:none;visibility:visible;display:inline;overflow:visible;enable-background:accumulate"
       id="path5882"
       sodipodi:sides="5"
       sodipodi:cx="34.648232"
       sodipodi:cy="7.0383143"
       sodipodi:r1="4.8331866"
       sodipodi:r2="2.4165933"
       sodipodi:arg1="0.97120004"
       sodipodi:arg2="1.5995186"
       inkscape:flatsided="false"
       inkscape:rounded="0"
       inkscape:randomized="0"
       d="M 37.375643,11.028417 34.578831,9.4539109 31.696235,10.865247 32.329417,7.7187709 30.096386,5.4133861 33.284526,5.0432631 34.787032,2.2071212 36.12423,5.1248483 39.285861,5.677401 36.924154,7.8507785 z"
       inkscape:transform-center-x="0.43560092"
       inkscape:transform-center-y="-0.076414924"
       transform="matrix(0.41647944,0,0,0.41647944,10.347709,11.544812)" />
    <path
       style="fill:url(#linearGradient5862);fill-opacity:1;stroke:#204a87;stroke-width:1px;stroke-linecap:butt;stroke-linejoin:miter;stroke-opacity:1"
       d="m 14.899751,17.291362 c -0.653211,0.537693 -1.248315,4.178045 -0.606092,4.646702 1.048511,0.765142 6.123283,-1.814535 9.148474,-1.864459 2.897705,-0.04782 7.681862,1.538046 8.125135,0.955322 0.474489,-0.62376 -0.713539,-4.681168 -1.161676,-5.202286 -0.417243,-0.485192 -4.171892,-1.222988 -8.901795,-0.738681 -3.384777,0.346576 -5.618707,1.392316 -6.604046,2.203402 z"
       id="path5850"
       inkscape:connector-curvature="0"
       sodipodi:nodetypes="sssssss" />
    <path
       sodipodi:type="arc"
       style="color:#000000;fill:url(#radialGradient5890);fill-opacity:1;fill-rule:nonzero;stroke:url(#linearGradient5902);stroke-width:0.75000000000000000;stroke-linecap:butt;stroke-linejoin:miter;stroke-miterlimit:4;stroke-opacity:1;stroke-dasharray:none;stroke-dashoffset:0;marker:none;visibility:visible;display:inline;overflow:visible;enable-background:accumulate"
       id="path5854"
       sodipodi:cx="4.3689098"
       sodipodi:cy="10.548594"
       sodipodi:rx="3.6112955"
       sodipodi:ry="3.661803"
       d="m 7.9802053,10.548594 a 3.6112955,3.661803 0 1 1 -7.22259093,0 3.6112955,3.661803 0 1 1 7.22259093,0 z" />
    <path
       d="m 7.9802053,10.548594 a 3.6112955,3.661803 0 1 1 -7.22259093,0 3.6112955,3.661803 0 1 1 7.22259093,0 z"
       sodipodi:ry="3.661803"
       sodipodi:rx="3.6112955"
       sodipodi:cy="10.548594"
       sodipodi:cx="4.3689098"
       id="path5892"
       style="color:#000000;fill:none;stroke:url(#linearGradient5910);stroke-width:0.91633867999999996;stroke-linecap:butt;stroke-linejoin:miter;stroke-miterlimit:4;stroke-opacity:1;stroke-dasharray:none;stroke-dashoffset:0;marker:none;visibility:visible;display:inline;overflow:visible;enable-background:accumulate"
       sodipodi:type="arc"
       transform="matrix(0.81835682,0,0,0.81859251,0.79358271,1.9135942)" />
    <g
       style="font-size:40px;font-style:normal;font-variant:normal;font-weight:900;font-stretch:normal;text-align:start;line-height:125%;letter-spacing:0px;word-spacing:0px;writing-mode:lr-tb;text-anchor:start;fill:#ffffff;fill-opacity:1;stroke:#2e3436;stroke-width:1.37874579;font-family:Source Sans Pro Black;-inkscape-font-specification:'Source Sans Pro Black, Heavy'"
       id="text7213"
       transform="matrix(0.70999417,-0.13887345,0.1381107,0.71391525,15.701517,5.0298247)">
      <path
         d="m 29.059175,18.171997 12.128686,0 0,-3.666072 -6.77185,0 6.721313,-10.2344495 0,-2.647718 -11.421178,0 0,3.6660712 6.064342,0 -6.721313,10.2344493 z"
         id="path7218"
         style="stroke-width:1.37874579"
         inkscape:connector-curvature="0" />
    </g>
    <g
       transform="matrix(0.5737607,-0.00585045,0.004647,0.58093185,19.598147,12.339104)"
       id="g7220"
       style="font-size:40px;font-style:normal;font-variant:normal;font-weight:900;font-stretch:normal;text-align:start;line-height:125%;letter-spacing:0px;word-spacing:0px;writing-mode:lr-tb;text-anchor:start;fill:#ffffff;fill-opacity:1;stroke:#2e3436;stroke-width:1.29901922;stroke-miterlimit:4;stroke-dasharray:none;font-family:Source Sans Pro Black;-inkscape-font-specification:'Source Sans Pro Black, Heavy'">
      <path
         inkscape:connector-curvature="0"
         style="stroke-width:1.29901922;stroke-miterlimit:4;stroke-dasharray:none"
         id="path7222"
         d="m 29.059175,18.171997 12.128686,0 0,-3.666072 -6.77185,0 6.721313,-10.2344495 0,-2.647718 -11.421178,0 0,3.6660712 6.064342,0 -6.721313,10.2344493 z" />
    </g>
    <g
       style="font-size:40px;font-style:normal;font-variant:normal;font-weight:900;font-stretch:normal;text-align:start;line-height:125%;letter-spacing:0px;word-spacing:0px;writing-mode:lr-tb;text-anchor:start;fill:#ffffff;fill-opacity:1;stroke:#2e3436;stroke-width:1.0506171;stroke-miterlimit:4;stroke-dasharray:none;font-family:Source Sans Pro Black;-inkscape-font-specification:'Source Sans Pro Black, Heavy'"
       id="g7224"
       transform="matrix(0.44620506,0.15569312,-0.1583036,0.45235763,22.660296,16.675473)">
      <path
         d="m 29.059175,18.171997 12.128686,0 0,-3.666072 -6.77185,0 6.721313,-10.2344495 0,-2.647718 -11.421178,0 0,3.6660712 6.064342,0 -6.721313,10.2344493 z"
         id="path7226"
         style="stroke-width:1.0506171;stroke-miterlimit:4;stroke-dasharray:none"
         inkscape:connector-curvature="0" />
    </g>
  </g>
</svg>
