<?xml version="1.0" encoding="UTF-8" standalone="no"?>
<!-- Created with Inkscape (http://www.inkscape.org/) -->
<svg
   xmlns:a="http://ns.adobe.com/AdobeSVGViewerExtensions/3.0/"
   xmlns:dc="http://purl.org/dc/elements/1.1/"
   xmlns:cc="http://web.resource.org/cc/"
   xmlns:rdf="http://www.w3.org/1999/02/22-rdf-syntax-ns#"
   xmlns:svg="http://www.w3.org/2000/svg"
   xmlns="http://www.w3.org/2000/svg"
   xmlns:xlink="http://www.w3.org/1999/xlink"
   xmlns:sodipodi="http://sodipodi.sourceforge.net/DTD/sodipodi-0.dtd"
   xmlns:inkscape="http://www.inkscape.org/namespaces/inkscape"
   width="48px"
   height="48px"
   id="svg5111"
   sodipodi:version="0.32"
   inkscape:version="0.44.1"
   sodipodi:docbase="e:\dev_clean\src\houdini\support\icons\sop"
   sodipodi:docname="attribstringedit.svg">
  <defs
     id="defs5113">
    <linearGradient
       inkscape:collect="always"
       id="linearGradient4501">
      <stop
         style="stop-color:#d3d7cf;stop-opacity:1"
         offset="0"
         id="stop4503" />
      <stop
         style="stop-color:white;stop-opacity:1"
         offset="1"
         id="stop4505" />
    </linearGradient>
    <linearGradient
       inkscape:collect="always"
       xlink:href="#linearGradient4501"
       id="linearGradient4507"
       x1="23.200819"
       y1="3.504847"
       x2="22.285788"
       y2="32.37022"
       gradientUnits="userSpaceOnUse"
       gradientTransform="matrix(1.061055,0,0,1.061055,-0.750013,1.575506)" />
    <linearGradient
       inkscape:collect="always"
       id="linearGradient4464">
      <stop
         style="stop-color:#2e3436;stop-opacity:1;"
         offset="0"
         id="stop4466" />
      <stop
         style="stop-color:#2e3436;stop-opacity:0;"
         offset="1"
         id="stop4468" />
    </linearGradient>
    <linearGradient
       inkscape:collect="always"
       xlink:href="#linearGradient4464"
       id="linearGradient4470"
       x1="10.276073"
       y1="35.035416"
       x2="14.831536"
       y2="37.582352"
       gradientUnits="userSpaceOnUse"
       gradientTransform="matrix(1.056204,0.101343,-0.101343,1.056204,2.995394,0.691535)" />
    <linearGradient
       id="linearGradient2911">
      <stop
         style="stop-color:white;stop-opacity:1;"
         offset="0"
         id="stop2913" />
      <stop
         style="stop-color:#8e8e8e;stop-opacity:1;"
         offset="1"
         id="stop2915" />
    </linearGradient>
    <radialGradient
       inkscape:collect="always"
       xlink:href="#linearGradient2911"
       id="radialGradient2917"
       cx="3.2992275"
       cy="3.4160771"
       fx="3.2992275"
       fy="3.4160771"
       r="2.7505228"
       gradientUnits="userSpaceOnUse" />
    <linearGradient
       inkscape:collect="always"
       id="linearGradient6388">
      <stop
         style="stop-color:#eeeeec;stop-opacity:1;"
         offset="0"
         id="stop6390" />
      <stop
         style="stop-color:#eeeeec;stop-opacity:0;"
         offset="1"
         id="stop6392" />
    </linearGradient>
    <linearGradient
       inkscape:collect="always"
       xlink:href="#linearGradient6388"
       id="linearGradient6394"
       x1="14.659931"
       y1="14.525023"
       x2="8.4180403"
       y2="8.0505714"
       gradientUnits="userSpaceOnUse"
       gradientTransform="matrix(1.058644,0,0,1.058661,23.4198,23.72771)" />
    <linearGradient
       id="linearGradient6415">
      <stop
         style="stop-color:#eeeeec;stop-opacity:0.50196081;"
         offset="0"
         id="stop6417" />
      <stop
         style="stop-color:white;stop-opacity:0.75294119;"
         offset="1"
         id="stop6419" />
    </linearGradient>
    <linearGradient
       inkscape:collect="always"
       xlink:href="#linearGradient6415"
       id="linearGradient6421"
       x1="3.9508853"
       y1="4.0488348"
       x2="18.850447"
       y2="19.249723"
       gradientUnits="userSpaceOnUse"
       gradientTransform="translate(24.1508,24.41778)" />
    <linearGradient
       y2="206.7433"
       x2="182.12219"
       y1="247.7437"
       x1="208.95799"
       gradientUnits="userSpaceOnUse"
       id="XMLID_617_">
      <stop
         id="stop8777"
         style="stop-color:#8EA3B2"
         offset="0" />
      <stop
         id="stop8779"
         style="stop-color:#DCE6E9"
         offset="1" />
      <a:midPointStop
         style="stop-color:#8EA3B2"
         offset="0" />
      <a:midPointStop
         style="stop-color:#8EA3B2"
         offset="0.5" />
      <a:midPointStop
         style="stop-color:#DCE6E9"
         offset="1" />
    </linearGradient>
    <linearGradient
       inkscape:collect="always"
       xlink:href="#XMLID_617_"
       id="linearGradient6374"
       gradientUnits="userSpaceOnUse"
       gradientTransform="matrix(0.561812,-3.317449e-2,0,0.553829,-72.72591,-81.45952)"
       x1="208.27771"
       y1="246.34276"
       x2="182.12219"
       y2="206.7433" />
    <linearGradient
       id="linearGradient7804">
      <stop
         style="stop-color:#dfeaa1;stop-opacity:1;"
         offset="0"
         id="stop7806" />
      <stop
         style="stop-color:#9db029;stop-opacity:1;"
         offset="1"
         id="stop7808" />
    </linearGradient>
  </defs>
  <sodipodi:namedview
     id="base"
     pagecolor="#ffffff"
     bordercolor="#666666"
     borderopacity="1.0"
     inkscape:pageopacity="0.0"
     inkscape:pageshadow="2"
     inkscape:zoom="10.5"
     inkscape:cx="24"
     inkscape:cy="24"
     inkscape:current-layer="layer1"
     showgrid="true"
     inkscape:grid-bbox="true"
     inkscape:document-units="px"
     inkscape:window-width="1334"
     inkscape:window-height="1065"
     inkscape:window-x="290"
     inkscape:window-y="-2" />
  <metadata
     id="metadata5116">
    <rdf:RDF>
      <cc:Work
         rdf:about="">
        <dc:format>image/svg+xml</dc:format>
        <dc:type
           rdf:resource="http://purl.org/dc/dcmitype/StillImage" />
      </cc:Work>
    </rdf:RDF>
  </metadata>
  <g
     id="layer1"
     inkscape:label="Layer 1"
     inkscape:groupmode="layer">
    <path
       sodipodi:type="arc"
       style="opacity:1;color:black;fill:url(#radialGradient2917);fill-opacity:1;fill-rule:evenodd;stroke:#2e3436;stroke-width:0.45202699;stroke-linecap:round;stroke-linejoin:miter;marker:none;marker-start:none;marker-mid:none;marker-end:none;stroke-miterlimit:4;stroke-dasharray:none;stroke-dashoffset:0;stroke-opacity:1;visibility:visible;display:inline;overflow:visible"
       id="path2877"
       sodipodi:cx="3.8892739"
       sodipodi:cy="3.911716"
       sodipodi:rx="2.3575907"
       sodipodi:ry="2.3575907"
       d="M 6.2468646 3.911716 A 2.3575907 2.3575907 0 1 1  1.5316832,3.911716 A 2.3575907 2.3575907 0 1 1  6.2468646 3.911716 z"
       transform="matrix(3.318388,0,0,3.318384,-4.332719,26.44603)" />
    <path
       style="fill:url(#linearGradient4470);fill-opacity:1;fill-rule:evenodd;stroke:none;stroke-width:1px;stroke-linecap:butt;stroke-linejoin:miter;stroke-opacity:1"
       d="M 8.6720254,40.295879 C 12.140466,41.490193 13.738054,44.497229 13.738054,44.497229 C 14.863508,43.391769 15.782549,42.213144 15.652045,40.662507 C 14.320935,39.744715 12.12931,38.888018 10.421028,38.75001 L 8.6720254,40.295879 z "
       id="path4462"
       sodipodi:nodetypes="ccccc" />
    <path
       style="opacity:1;color:black;fill:url(#linearGradient4507);fill-opacity:1;fill-rule:evenodd;stroke:#2e3436;stroke-width:2.00000024;stroke-linecap:butt;stroke-linejoin:round;marker:none;marker-start:none;marker-mid:none;marker-end:none;stroke-miterlimit:4;stroke-dasharray:none;stroke-dashoffset:0;stroke-opacity:1;visibility:visible;display:inline;overflow:visible"
       d="M 13.267404,3.7500054 L 13.267404,22.363883 L 21.486292,22.363883 L 8.573369,39.4266 L 35.938777,22.363883 L 44.560968,22.363883 L 44.560968,3.7500054 L 13.267404,3.7500054 z "
       id="rect4410"
       sodipodi:nodetypes="cccccccc" />
    <path
       style="opacity:1;color:black;fill:none;fill-opacity:1;fill-rule:evenodd;stroke:white;stroke-width:1.00000012;stroke-linecap:butt;stroke-linejoin:miter;marker:none;marker-start:none;marker-mid:none;marker-end:none;stroke-miterlimit:6;stroke-dasharray:none;stroke-dashoffset:0;stroke-opacity:1;visibility:visible;display:inline;overflow:visible"
       d="M 14.749988,5.232197 L 14.749988,20.896697 L 25.142233,20.896697 L 15.136172,33.395469 L 35.327921,20.896697 L 43.0259,20.896697 L 43.0259,5.232197 L 14.749988,5.232197 z "
       id="path4425"
       sodipodi:nodetypes="cccccccc" />
    <path
       style="font-size:12px;font-style:normal;font-variant:normal;font-weight:normal;font-stretch:normal;text-align:start;line-height:125%;writing-mode:lr-tb;text-anchor:start;fill:black;fill-opacity:1;stroke:none;stroke-width:1px;stroke-linecap:butt;stroke-linejoin:miter;stroke-opacity:1;font-family:Tahoma"
       d="M 21.41806,17.023866 L 21.41806,15.009787 C 21.127854,15.035779 20.760772,15.071513 20.316812,15.116988 C 19.872846,15.162471 19.514427,15.226359 19.241555,15.308651 C 18.916701,15.408275 18.648158,15.560955 18.435923,15.766691 C 18.223686,15.972433 18.117568,16.259385 18.117569,16.627547 C 18.117568,17.043359 18.234513,17.357382 18.468408,17.569617 C 18.702299,17.781854 19.044475,17.887972 19.494939,17.887971 C 19.880426,17.887972 20.2291,17.804594 20.540961,17.637835 C 20.852813,17.47108 21.14518,17.266423 21.41806,17.023866 L 21.41806,17.023866 z M 21.41806,18.037403 C 21.318433,18.111036 21.185244,18.213906 21.018492,18.346012 C 20.85173,18.478118 20.690388,18.583153 20.534464,18.661118 C 20.317892,18.773732 20.108904,18.860359 19.9075,18.920999 C 19.706089,18.981637 19.423469,19.011957 19.059638,19.011957 C 18.760772,19.011957 18.477069,18.955649 18.208527,18.843034 C 17.939981,18.730419 17.703923,18.572325 17.500351,18.368751 C 17.305439,18.16951 17.149511,17.923705 17.032565,17.631339 C 16.915618,17.338973 16.857145,17.030365 16.857145,16.705512 C 16.857145,16.203077 16.963263,15.775357 17.1755,15.422348 C 17.387735,15.069347 17.723414,14.788893 18.182539,14.580983 C 18.589684,14.394739 19.070464,14.265882 19.624879,14.19441 C 20.179289,14.122947 20.777015,14.069889 21.41806,14.035233 L 21.41806,13.80134 C 21.418054,13.515476 21.374741,13.284832 21.288119,13.109407 C 21.201487,12.933993 21.080209,12.798638 20.924285,12.703343 C 20.768352,12.603728 20.577772,12.537674 20.352547,12.505183 C 20.127313,12.472704 19.895586,12.456461 19.657365,12.456455 C 19.375824,12.456461 19.044475,12.498692 18.66332,12.583147 C 18.282159,12.667615 17.901,12.789975 17.519843,12.950229 L 17.448374,12.950229 L 17.448374,11.709296 C 17.673604,11.644334 17.99629,11.572867 18.416432,11.494895 C 18.836571,11.416938 19.25238,11.377956 19.663861,11.377948 C 20.161964,11.377956 20.582105,11.416938 20.924285,11.494895 C 21.266457,11.572867 21.573983,11.713635 21.846863,11.917201 C 22.11107,12.116451 22.308147,12.374165 22.438092,12.690348 C 22.568027,13.006542 22.632997,13.392032 22.633004,13.84682 L 22.633004,18.810549 L 21.41806,18.810549 L 21.41806,18.037403 z M 29.182009,15.159218 C 29.182002,14.292952 29.049896,13.635671 28.78569,13.187371 C 28.521472,12.739082 28.097,12.514934 27.512272,12.514929 C 27.178754,12.514934 26.841992,12.592899 26.501984,12.748821 C 26.16197,12.904756 25.853361,13.101832 25.576158,13.34005 L 25.576158,17.498149 C 25.883681,17.649747 26.156556,17.756949 26.394783,17.819752 C 26.633005,17.882558 26.895051,17.91396 27.180923,17.913958 C 27.804634,17.91396 28.294076,17.693061 28.649252,17.251262 C 29.004417,16.809466 29.182002,16.112119 29.182009,15.159218 L 29.182009,15.159218 z M 30.442431,15.061764 C 30.442425,16.248557 30.15439,17.203619 29.578328,17.926953 C 29.002251,18.650289 28.281082,19.011957 27.414817,19.011957 C 27.02066,19.011957 26.683898,18.963229 26.404529,18.865774 C 26.125153,18.768318 25.84903,18.637295 25.576158,18.472704 L 25.498193,18.810549 L 24.354716,18.810549 L 24.354716,8.7011726 L 25.576158,8.7011726 L 25.576158,12.31352 C 25.883681,12.03632 26.217195,11.806759 26.5767,11.624835 C 26.936199,11.442926 27.343345,11.351967 27.798141,11.351961 C 28.616761,11.351967 29.262132,11.680068 29.734256,12.33626 C 30.206367,12.992466 30.442425,13.900966 30.442431,15.061764 L 30.442431,15.061764 z "
       id="text5750" />
    <rect
       style="opacity:1;color:black;fill:#f57900;fill-opacity:1;fill-rule:evenodd;stroke:none;stroke-width:1;stroke-linecap:round;stroke-linejoin:miter;marker:none;marker-start:none;marker-mid:none;marker-end:none;stroke-miterlimit:6;stroke-dasharray:none;stroke-dashoffset:1;stroke-opacity:1;visibility:visible;display:inline;overflow:visible"
       id="rect2109"
       width="2"
       height="15"
       x="31.857143"
       y="6" />
  </g>
</svg>
