<svg xmlns="http://www.w3.org/2000/svg" xmlns:xlink="http://www.w3.org/1999/xlink" viewBox="0 0 48 48"><defs><style>.cls-1{fill:url(#linear-gradient);}.cls-2{fill:url(#radial-gradient);}.cls-3{fill:#fce94f;stroke:#fcaf3e;}.cls-18,.cls-19,.cls-3,.cls-4,.cls-6,.cls-7,.cls-8,.cls-9{stroke-miterlimit:10;}.cls-11,.cls-17,.cls-18,.cls-3{stroke-width:0.35px;}.cls-11,.cls-16,.cls-17,.cls-4,.cls-6,.cls-7{fill:none;}.cls-4,.cls-6,.cls-7{stroke:#f57f7f;}.cls-4{stroke-width:1.5px;}.cls-5{fill:#f57f7f;}.cls-6,.cls-7{stroke-width:0.7px;}.cls-7{stroke-dasharray:2.74 1.64;}.cls-8{fill:#555753;}.cls-18,.cls-8,.cls-9{stroke:#2e3436;}.cls-19,.cls-8,.cls-9{stroke-width:0.5px;}.cls-21,.cls-9{fill:#888a85;}.cls-10{fill:url(#linear-gradient-2);}.cls-11,.cls-16{stroke:#555753;}.cls-11,.cls-16,.cls-17{stroke-linecap:round;stroke-linejoin:round;}.cls-12{clip-path:url(#clip-path);}.cls-13{fill:#eeeeec;opacity:0.7;}.cls-14{fill:url(#linear-gradient-4);}.cls-15{fill:url(#linear-gradient-5);}.cls-17,.cls-19{stroke:#888a85;}.cls-18{fill:#babdb6;}.cls-19,.cls-20{fill:#2e3436;}.cls-22{fill:url(#radial-gradient-2);}.cls-23{fill:url(#radial-gradient-3);}.cls-24{fill:url(#radial-gradient-4);}</style><linearGradient id="linear-gradient" x1="-221.86" y1="-32.48" x2="-221.86" y2="-27.32" gradientTransform="translate(223.53 -58.89) rotate(-30)" gradientUnits="userSpaceOnUse"><stop offset="0" stop-color="#eeeeec"/><stop offset="1" stop-color="#888a85"/></linearGradient><radialGradient id="radial-gradient" cx="18.37" cy="38.44" r="15.6" gradientTransform="translate(-3.5 28.91) scale(1.16 0.25)" gradientUnits="userSpaceOnUse"><stop offset="0.03" stop-color="#2c2c2c" stop-opacity="0.5"/><stop offset="0.68" stop-color="#2c2c2c" stop-opacity="0.1"/><stop offset="0.93" stop-color="#2c2c2c" stop-opacity="0"/></radialGradient><linearGradient id="linear-gradient-2" x1="-222.46" y1="-37.14" x2="-222.46" y2="-27.06" xlink:href="#linear-gradient"/><clipPath id="clip-path"><path class="cls-1" d="M25.7,22.68,15.38,30.56s-2.55,2.11-4.73,1.7a4.88,4.88,0,0,1-3.17-2.15,4.88,4.88,0,0,1-.28-3.83C7.93,24.19,11,23,11,23l12-5Z"/></clipPath><linearGradient id="linear-gradient-4" x1="-221.8" y1="-32.16" x2="-221.8" y2="-27.71" gradientTransform="translate(223.53 -58.89) rotate(-30)" gradientUnits="userSpaceOnUse"><stop offset="0" stop-color="#eeeeec"/><stop offset="1" stop-color="#555753"/></linearGradient><linearGradient id="linear-gradient-5" x1="-221.8" y1="-35.3" x2="-221.8" y2="-31.86" gradientTransform="translate(223.53 -58.89) rotate(-30)" gradientUnits="userSpaceOnUse"><stop offset="0" stop-color="#fff"/><stop offset="1" stop-color="#eeeeec"/></linearGradient><radialGradient id="radial-gradient-2" cx="37.61" cy="11" r="4.28" gradientTransform="matrix(1, 0, 0, 1, 0, 0)" xlink:href="#linear-gradient"/><radialGradient id="radial-gradient-3" cx="37.58" cy="11.12" r="0.66" gradientTransform="matrix(1, 0, 0, 1, 0, 0)" xlink:href="#linear-gradient-5"/><radialGradient id="radial-gradient-4" cx="37.69" cy="10.81" r="3.33" gradientTransform="matrix(1, 0, 0, 1, 0, 0)" xlink:href="#linear-gradient-4"/></defs><title>4-Ballistic Path</title><g id="shadow"><ellipse class="cls-2" cx="17.87" cy="38.44" rx="17.45" ry="3.73"/></g><g id="ART"><polyline class="cls-3" points="23.74 18.3 24.88 13.91 25.58 16.1 31.69 11.82 28.49 16.96 32.1 17.25 29.21 19.45 32.82 20.31 26.4 22.11"/><line class="cls-4" x1="26.87" y1="18.93" x2="43.31" y2="9.4"/><polygon class="cls-5" points="46.98 7.28 43.04 12.38 43.04 9.56 40.59 8.16 46.98 7.28"/><line class="cls-6" x1="37.92" y1="18.49" x2="37.92" y2="19.74"/><line class="cls-7" x1="37.92" y1="21.38" x2="37.92" y2="33.7"/><line class="cls-6" x1="37.92" y1="34.52" x2="37.92" y2="35.77"/><polygon class="cls-5" points="37.92 16.02 36.5 19.5 37.92 18.67 39.34 19.5 37.92 16.02"/><polygon class="cls-5" points="37.92 38.24 36.5 34.76 37.92 35.59 39.34 34.76 37.92 38.24"/><rect class="cls-8" x="8.37" y="24.5" width="10.21" height="10.21" rx="3.56" transform="translate(-18.62 34.96) rotate(-75)"/><line class="cls-9" x1="5.54" y1="31.22" x2="3.94" y2="32.15"/><path class="cls-10" d="M26.78,23l-11.3,8.85s-3.1,2.59-5.79,2A6.29,6.29,0,0,1,5.75,31.1a6.28,6.28,0,0,1-.41-4.78c.87-2.6,4.67-4,4.67-4L23.32,17Z"/><path class="cls-11" d="M26.78,23l-11.3,8.85s-3.1,2.59-5.79,2A6.29,6.29,0,0,1,5.75,31.1a6.28,6.28,0,0,1-.41-4.78c.87-2.6,4.67-4,4.67-4L23.32,17Z"/><path class="cls-1" d="M25.7,22.68,15.38,30.56s-2.55,2.11-4.73,1.7a4.88,4.88,0,0,1-3.17-2.15,4.88,4.88,0,0,1-.28-3.83C7.93,24.19,11,23,11,23l12-5Z"/><g class="cls-12"><rect class="cls-13" x="4.2" y="17.89" width="24.29" height="6.59" transform="translate(-8.4 11.01) rotate(-30)"/><rect class="cls-13" x="25.24" y="5.74" width="24.29" height="6.59" transform="translate(0.49 19.9) rotate(-30)"/><path class="cls-14" d="M25.7,22.68,15.38,30.56s-2.55,2.11-4.73,1.7A4.79,4.79,0,0,1,8,30.75a5.23,5.23,0,0,0,4.51-.32c2.3-1.33,12.91-8.29,12.91-8.29"/><path class="cls-15" d="M23,18,11,23s-3.1,1.16-3.83,3.25a4.87,4.87,0,0,0,0,3.08A5.2,5.2,0,0,1,9.7,25.61c2.3-1.33,13.63-7,13.63-7"/></g><rect class="cls-9" x="4.32" y="30.58" width="2.43" height="1.29" transform="translate(29.81 10.81) rotate(60)"/><circle class="cls-9" cx="3.65" cy="32.28" r="0.83"/><line class="cls-16" x1="23.08" y1="16.56" x2="27.01" y2="23.37"/><line class="cls-16" x1="7.09" y1="23.55" x2="12.96" y2="33.72"/><line class="cls-17" x1="7.09" y1="23.55" x2="10.03" y2="28.63"/><line class="cls-16" x1="10.39" y1="21.64" x2="16.26" y2="31.81"/><line class="cls-17" x1="10.39" y1="21.64" x2="13.39" y2="26.84"/><polygon class="cls-18" points="15.58 28.72 14.95 28.72 14.74 32.37 15.79 32.37 15.58 28.72"/><polygon class="cls-18" points="18.85 30.33 18.41 29.89 15.68 32.33 16.42 33.07 18.85 30.33"/><polygon class="cls-18" points="20.03 33.8 20.03 33.17 16.37 32.96 16.37 34 20.03 33.8"/><polygon class="cls-18" points="18.41 37.07 18.85 36.63 16.42 33.89 15.68 34.63 18.41 37.07"/><polygon class="cls-18" points="14.95 38.24 15.58 38.24 15.79 34.59 14.74 34.59 14.95 38.24"/><polygon class="cls-18" points="11.67 36.63 12.12 37.07 14.85 34.63 14.11 33.89 11.67 36.63"/><polygon class="cls-18" points="10.5 33.17 10.5 33.8 14.16 34 14.16 32.96 10.5 33.17"/><polygon class="cls-18" points="12.12 29.89 11.67 30.33 14.11 33.07 14.85 32.33 12.12 29.89"/><path class="cls-19" d="M15.26,28.21a5.27,5.27,0,1,0,5.28,5.27A5.27,5.27,0,0,0,15.26,28.21Zm0,9.3a4,4,0,1,1,4-4A4,4,0,0,1,15.26,37.51Z"/><circle class="cls-20" cx="15.26" cy="33.48" r="1.66"/><circle class="cls-21" cx="15.26" cy="33.48" r="0.75"/><line class="cls-17" x1="23.08" y1="16.56" x2="25.11" y2="20.08"/><line class="cls-17" x1="26.44" y1="22.37" x2="27.01" y2="23.37"/><circle class="cls-22" cx="37.92" cy="12.57" r="2.91"/><circle class="cls-11" cx="37.92" cy="12.57" r="2.91"/><circle class="cls-23" cx="37.57" cy="11.24" r="0.73"/><path class="cls-24" d="M37.92,14.79a2.22,2.22,0,0,1-2.22-2.22,2.26,2.26,0,0,1,.17-.85.11.11,0,0,1,.1-.06.12.12,0,0,1,.1.09,1.89,1.89,0,0,0,3.71,0,.11.11,0,0,1,.09-.08.1.1,0,0,1,.11.06,2.23,2.23,0,0,1-2.06,3.06Z"/><line class="cls-17" x1="30.69" y1="14.65" x2="33.79" y2="12.93"/><line class="cls-17" x1="33.71" y1="17.17" x2="33.92" y2="17.05"/><line class="cls-17" x1="34.98" y1="16.46" x2="35.7" y2="16.06"/></g></svg>