<?xml version="1.0" encoding="UTF-8" standalone="no"?>
<svg
   xmlns:i="http://ns.adobe.com/AdobeIllustrator/10.0/"
   xmlns:a="http://ns.adobe.com/AdobeSVGViewerExtensions/3.0/"
   xmlns:dc="http://purl.org/dc/elements/1.1/"
   xmlns:cc="http://creativecommons.org/ns#"
   xmlns:rdf="http://www.w3.org/1999/02/22-rdf-syntax-ns#"
   xmlns:svg="http://www.w3.org/2000/svg"
   xmlns="http://www.w3.org/2000/svg"
   xmlns:xlink="http://www.w3.org/1999/xlink"
   xmlns:sodipodi="http://sodipodi.sourceforge.net/DTD/sodipodi-0.dtd"
   xmlns:inkscape="http://www.inkscape.org/namespaces/inkscape"
   version="1.1"
   sodipodi:docname="capturelayerpaint.svg"
   inkscape:version="1.0beta1 (fe3e306, 2019-09-17)"
   sodipodi:version="0.32"
   id="svg51428"
   height="48px"
   width="48px">
  <defs
     id="defs51430">
    <linearGradient
       id="linearGradient4329"
       inkscape:collect="always">
      <stop
         id="stop4325"
         offset="0"
         style="stop-color:#feffbb;stop-opacity:1" />
      <stop
         style="stop-color:#edd400;stop-opacity:1"
         offset="0.31248185"
         id="stop4333" />
      <stop
         id="stop4335"
         offset="0.54402012"
         style="stop-color:#729fcf;stop-opacity:1" />
      <stop
         id="stop4327"
         offset="1"
         style="stop-color:#3465a4;stop-opacity:1" />
    </linearGradient>
    <linearGradient
       gradientTransform="translate(-887.07684,-1644.2541)"
       id="XMLID_824_"
       gradientUnits="userSpaceOnUse"
       x1="928.4619"
       y1="1677.3403"
       x2="949.1129"
       y2="1712.6716">
      <stop
         offset="0"
         style="stop-color:#FEF3DC"
         id="stop22180" />
      <stop
         offset="1"
         style="stop-color:#FAAF3E"
         id="stop22182" />
      <a:midPointStop
         offset="0"
         style="stop-color:#FEF3DC" />
      <a:midPointStop
         offset="0.5"
         style="stop-color:#FEF3DC" />
      <a:midPointStop
         offset="1"
         style="stop-color:#FAAF3E" />
    </linearGradient>
    <linearGradient
       y2="23.742767"
       x2="33.436985"
       y1="18.867767"
       x1="28.058632"
       gradientTransform="translate(-3.90695,-1.802856)"
       gradientUnits="userSpaceOnUse"
       id="linearGradient4924"
       xlink:href="#linearGradient6951"
       inkscape:collect="always" />
    <linearGradient
       id="linearGradient6951">
      <stop
         id="stop6953"
         offset="0"
         style="stop-color:#6e3d09;stop-opacity:1;" />
      <stop
         style="stop-color:#ea8113;stop-opacity:1;"
         offset="0.24242425"
         id="stop6959" />
      <stop
         id="stop6961"
         offset="0.62121212"
         style="stop-color:#5c3307;stop-opacity:1;" />
      <stop
         id="stop6955"
         offset="1"
         style="stop-color:#e07c12;stop-opacity:1;" />
    </linearGradient>
    <linearGradient
       y2="33.438831"
       x2="23.109331"
       y1="30.001331"
       x1="19.394735"
       gradientTransform="translate(-3.90695,-1.802856)"
       gradientUnits="userSpaceOnUse"
       id="linearGradient4926"
       xlink:href="#linearGradient6939"
       inkscape:collect="always" />
    <linearGradient
       id="linearGradient6939">
      <stop
         id="stop6941"
         offset="0"
         style="stop-color:#bdbdbd;stop-opacity:1;" />
      <stop
         style="stop-color:#e2e2e2;stop-opacity:1;"
         offset="0.33333334"
         id="stop6947" />
      <stop
         id="stop6949"
         offset="0.66666669"
         style="stop-color:#a3a3a3;stop-opacity:1;" />
      <stop
         id="stop6943"
         offset="1"
         style="stop-color:#dddddd;stop-opacity:1;" />
    </linearGradient>
    <radialGradient
       r="7.5791559"
       fy="35.356506"
       fx="15.415101"
       cy="35.356506"
       cx="15.415101"
       gradientTransform="matrix(0.994655,0,0,0.969322,-4.583017,0.165919)"
       gradientUnits="userSpaceOnUse"
       id="radialGradient4928"
       xlink:href="#linearGradient6963"
       inkscape:collect="always" />
    <linearGradient
       id="linearGradient6963">
      <stop
         id="stop6965"
         offset="0"
         style="stop-color:#696969;stop-opacity:1;" />
      <stop
         id="stop6967"
         offset="1"
         style="stop-color:#000000;stop-opacity:1;" />
    </linearGradient>
    <linearGradient
       y2="42.282146"
       x2="7.7521091"
       y1="37.752247"
       x1="13.236155"
       gradientTransform="matrix(0.852298,0,0,0.852298,-1.675107,3.753977)"
       gradientUnits="userSpaceOnUse"
       id="linearGradient4930"
       xlink:href="#linearGradient2446"
       inkscape:collect="always" />
    <linearGradient
       id="linearGradient2446"
       inkscape:collect="always">
      <stop
         id="stop2448"
         offset="0"
         style="stop-color:#ffffff;stop-opacity:1;" />
      <stop
         id="stop2450"
         offset="1"
         style="stop-color:#ffffff;stop-opacity:0;" />
    </linearGradient>
    <linearGradient
       gradientTransform="translate(0.21428571,-1.1428571)"
       gradientUnits="userSpaceOnUse"
       y2="6.1618199"
       x2="47.185184"
       y1="33.518963"
       x1="16.100529"
       id="linearGradient4331"
       xlink:href="#linearGradient4329"
       inkscape:collect="always" />
  </defs>
  <sodipodi:namedview
     inkscape:window-maximized="1"
     inkscape:snap-global="false"
     inkscape:document-rotation="0"
     inkscape:window-y="-8"
     inkscape:window-x="-8"
     inkscape:window-height="1557"
     inkscape:window-width="2880"
     inkscape:document-units="px"
     inkscape:grid-bbox="true"
     showgrid="true"
     inkscape:current-layer="layer1"
     inkscape:cy="24"
     inkscape:cx="24"
     inkscape:zoom="14"
     inkscape:pageshadow="2"
     inkscape:pageopacity="0.0"
     borderopacity="1.0"
     bordercolor="#666666"
     pagecolor="#ffffff"
     id="base" />
  <metadata
     id="metadata51433">
    <rdf:RDF>
      <cc:Work
         rdf:about="">
        <dc:format>image/svg+xml</dc:format>
        <dc:type
           rdf:resource="http://purl.org/dc/dcmitype/StillImage" />
        <dc:title></dc:title>
      </cc:Work>
    </rdf:RDF>
  </metadata>
  <g
     inkscape:groupmode="layer"
     inkscape:label="Layer 1"
     id="layer1">
    <path
       inkscape:connector-curvature="0"
       i:knockout="Off"
       d="m 45.221614,14.013011 c -0.635,0.187 -1.534,2.61 -3.323,5.189 -2.141,3.086001 -8.362,6.234001 -9.108,6.980001 -0.747,0.748 -2.217,2.069 -4.15,3.254 -1.174,0.718 -6.867,2.655 -8.189,4.209 -0.487,0.572 -1.824,1.475 -2.22,2.17 -0.283,0.494 -0.71,1.828 -1.83,2.949 -1.12,1.119 -2.912,2.016 -3.062,2.389 -0.148,0.373 -2.038,3.496 -2.291,3.898 -0.538,0.854 -1.9020004,0.289 -1.3940004,-0.824 0.5160004,-1.125 2.0050004,-3.484 1.8930004,-3.783 -0.112,-0.299 -0.447,-0.262 -0.746,-0.075 -0.299,0.187 -3.3130004,3.984 -3.8750004,4.527 -0.698,0.673 -2.021,-0.192 -1.323,-1.083 0.457,-0.583 3.871,-4.398 3.668,-4.676 -0.348,-0.473 -5.513,2.9 -6.051,3.16 -0.745,0.361 -1.539,-0.794 -0.696,-1.516 0.661,-0.566 5.663,-3.438 5.402,-3.811 -0.262,-0.373 -5.624,1.707 -6.053,1.79 -0.745,0.144 -1.27000003,-0.849 -0.625,-1.468 0.535,-0.513 5.341,-1.996 6.006,-2.674 0.537,-0.547 1.806,-1.442 1.578,-1.922 -0.294,-0.622 -2.41,-0.414 -3.121,-0.379 -1.648,0.08 -1.271,-1.626 0.57,-1.764 1.056,-0.078 2.132,-0.354 2.857,-0.662 0.794,-0.336 1.7080004,-0.755 2.8390004,-0.755 1.444,0 2.804,0.74 3.089,0.562 2.172,-1.367 5.853,-6.238 8.519,-8.168 1.892,-1.371001 4.346,-1.709001 5.364,-2.920001 1.185,-1.404 4.618,-7.012 5.189,-8.219 4.956,-11.8819997 11.967,-9.82399964 13.618,-9.82399964"
       id="path22774"
       style="fill:url(#linearGradient4331);fill-opacity:1;stroke:#d99357;stroke-width:1.5;stroke-miterlimit:4;stroke-dasharray:none" />
    <polygon
       i:knockout="Off"
       points="945.454,1663.282 950.019,1661.76 949.303,1666.146 935.428,1678.947 "
       id="polygon22186"
       style="fill:#709ec3;stroke:#224b87"
       transform="translate(-904.00541,-1657.0399)" />
    <polygon
       i:knockout="Off"
       points="930.952,1679.574 935.428,1678.947 933.28,1682.796 920.479,1689.957 "
       id="polygon22188"
       style="fill:#709ec3;stroke:#224b87"
       transform="translate(-904.00541,-1657.0399)" />
    <polygon
       i:knockout="Off"
       points="920.479,1689.957 932.214,1681.32 930.952,1679.574 "
       id="polygon22190"
       style="fill:#ffffff"
       transform="translate(-904.00541,-1657.0399)" />
    <polygon
       i:knockout="Off"
       points="935.428,1678.947 930.952,1679.574 932.214,1681.32 "
       id="polygon22192"
       style="fill:#a0c6de"
       transform="translate(-904.00541,-1657.0399)" />
    <polygon
       i:knockout="Off"
       points="933.28,1682.796 935.428,1678.947 932.214,1681.32 "
       id="polygon22194"
       style="fill:#6b8599"
       transform="translate(-904.00541,-1657.0399)" />
    <polygon
       i:knockout="Off"
       points="932.214,1681.32 933.28,1682.796 920.479,1689.957 "
       id="polygon22196"
       style="fill:#a0c6de"
       transform="translate(-904.00541,-1657.0399)" />
    <polygon
       i:knockout="Off"
       points="947.448,1664.766 935.428,1678.947 945.454,1663.282 "
       id="polygon22198"
       style="fill:#ffffff"
       transform="translate(-904.00541,-1657.0399)" />
    <polygon
       i:knockout="Off"
       points="950.019,1661.76 945.454,1663.282 947.448,1664.766 "
       id="polygon22200"
       style="fill:#a0c6de"
       transform="translate(-904.00541,-1657.0399)" />
    <polygon
       i:knockout="Off"
       points="947.448,1664.766 935.428,1678.947 949.303,1666.146 "
       id="polygon22202"
       style="fill:#a0c6de"
       transform="translate(-904.00541,-1657.0399)" />
    <polygon
       i:knockout="Off"
       points="949.303,1666.146 947.448,1664.766 950.019,1661.76 "
       id="polygon22204"
       style="fill:#6b8599"
       transform="translate(-904.00541,-1657.0399)" />
    <g
       transform="matrix(0.67793033,0.05386281,0.05386281,-0.67793033,19.014041,45.902918)"
       id="g69591"
       style="stroke-width:1.15603">
      <path
         style="color:#000000;display:inline;overflow:visible;visibility:visible;opacity:1;fill:url(#linearGradient4924);fill-opacity:1;fill-rule:nonzero;stroke:#673907;stroke-width:1.47045;stroke-linecap:round;stroke-linejoin:miter;stroke-miterlimit:4;stroke-dasharray:none;stroke-dashoffset:0;stroke-opacity:1;marker:none;marker-start:none;marker-mid:none;marker-end:none"
         d="m 19.651682,22.586735 4.065864,3.800698 c 7.187499,-7.062499 17.78306,-23.9772875 17.78306,-23.9772875 0.42949,-1.2244462 -1.087245,-1.99589286 -1.846352,-1.170495 0,0 -13.690073,14.0970855 -20.002572,21.3470845 z"
         id="path6937"
         inkscape:r_cx="true"
         inkscape:r_cy="true"
         sodipodi:nodetypes="ccssc"
         inkscape:connector-curvature="0" />
      <path
         style="color:#000000;display:inline;overflow:visible;visibility:visible;opacity:1;fill:url(#linearGradient4926);fill-opacity:1;fill-rule:nonzero;stroke:#888a85;stroke-width:1.47045;stroke-linecap:round;stroke-linejoin:miter;stroke-miterlimit:4;stroke-dasharray:none;stroke-dashoffset:0;stroke-opacity:1;marker:none;marker-start:none;marker-mid:none;marker-end:none"
         d="m 12.050285,32.813894 2.24632,1.93382 8.492766,-7.367031 0.275061,-0.705828 1.094405,-0.01782 c -0.4375,-1.5625 -2.941514,-4.383455 -4.816514,-4.383455 l 0.08202,1.090075 -0.669991,0.380027 z"
         id="path6935"
         inkscape:r_cx="true"
         inkscape:r_cy="true"
         sodipodi:nodetypes="ccccccccc"
         inkscape:connector-curvature="0" />
      <path
         style="color:#000000;display:inline;overflow:visible;visibility:visible;opacity:1;fill:url(#radialGradient4928);fill-opacity:1;fill-rule:nonzero;stroke:none;stroke-width:0.231207;stroke-linecap:round;stroke-linejoin:miter;stroke-miterlimit:4;stroke-dasharray:none;stroke-dashoffset:0;stroke-opacity:1;marker:none;marker-start:none;marker-mid:none;marker-end:none"
         d="m 1.757709,40.723915 c 6.6053126,0 11.618187,0.786601 12.567225,-4.019073 C 15.089727,32.832133 9.7646096,30.976482 7.1258026,34.433791 4.583799,37.76427 1.757709,40.723915 1.757709,40.723915 Z"
         id="path6933"
         inkscape:r_cx="true"
         inkscape:r_cy="true"
         sodipodi:nodetypes="cssc"
         inkscape:connector-curvature="0" />
      <circle
         style="color:#000000;display:inline;overflow:visible;visibility:visible;opacity:0.527778;fill:#ffffff;fill-opacity:1;fill-rule:nonzero;stroke:none;stroke-width:1.15603;stroke-linecap:round;stroke-linejoin:miter;stroke-miterlimit:4;stroke-dasharray:none;stroke-dashoffset:0;stroke-opacity:1;marker:none;marker-start:none;marker-mid:none;marker-end:none"
         id="path6971"
         inkscape:r_cx="true"
         inkscape:r_cy="true"
         transform="matrix(0.852298,0,0,0.852298,3.733554,2.575604)"
         cx="7.624999"
         cy="37.75"
         r="1.2499999" />
      <circle
         transform="matrix(0.787867,0,0,0.787867,14.26538,-4.723366)"
         inkscape:r_cy="true"
         inkscape:r_cx="true"
         id="path6983"
         style="color:#000000;display:inline;overflow:visible;visibility:visible;opacity:1;fill:#ffffff;fill-opacity:1;fill-rule:nonzero;stroke:none;stroke-width:1.15603;stroke-linecap:round;stroke-linejoin:miter;stroke-miterlimit:4;stroke-dasharray:none;stroke-dashoffset:0;stroke-opacity:1;marker:none;marker-start:none;marker-mid:none;marker-end:none"
         cx="7.624999"
         cy="37.75"
         r="1.2499999" />
      <path
         style="color:#000000;display:inline;overflow:visible;visibility:visible;opacity:1;fill:none;fill-opacity:1;fill-rule:nonzero;stroke:#ffffff;stroke-width:1.47045;stroke-linecap:round;stroke-linejoin:round;stroke-miterlimit:4;stroke-dasharray:none;stroke-dashoffset:0;stroke-opacity:1;marker:none;marker-start:none;marker-mid:none;marker-end:none"
         d="m 18.941438,26.398154 -5.303301,6.14299"
         id="path6985"
         inkscape:r_cx="true"
         inkscape:r_cy="true"
         inkscape:connector-curvature="0" />
      <path
         style="color:#000000;display:inline;overflow:visible;visibility:visible;opacity:0.427778;fill:url(#linearGradient4930);fill-opacity:1;fill-rule:nonzero;stroke:none;stroke-width:1.15603;stroke-linecap:round;stroke-linejoin:miter;stroke-miterlimit:4;stroke-dasharray:none;stroke-dashoffset:0;stroke-opacity:1;marker:none;marker-start:none;marker-mid:none;marker-end:none"
         d="m 3.0708872,40.068976 c 0,0 3.3411114,-1.641821 4.7648284,-4.086829 0.503707,-0.865037 1.644373,-0.126836 0.941666,0.734499 -1.517828,1.860458 -5.7064944,3.35233 -5.7064944,3.35233 z"
         id="path1571"
         inkscape:r_cx="true"
         inkscape:r_cy="true"
         sodipodi:nodetypes="cssc"
         inkscape:connector-curvature="0" />
      <circle
         style="color:#000000;display:inline;overflow:visible;visibility:visible;opacity:0.533333;fill:#ffffff;fill-opacity:1;fill-rule:nonzero;stroke:none;stroke-width:1.15603;stroke-linecap:round;stroke-linejoin:miter;stroke-miterlimit:4;stroke-dasharray:none;stroke-dashoffset:0;stroke-opacity:1;marker:none;marker-start:none;marker-mid:none;marker-end:none"
         id="path2454"
         inkscape:r_cx="true"
         inkscape:r_cy="true"
         transform="matrix(0.237867,0,0,0.237867,38.43389,-7.101028)"
         cx="7.624999"
         cy="37.75"
         r="1.2499999" />
    </g>
  </g>
</svg>
