<svg xmlns="http://www.w3.org/2000/svg" xmlns:xlink="http://www.w3.org/1999/xlink" viewBox="0 0 48 48"><defs><style>.cls-1{fill:#8ae234;}.cls-11,.cls-12,.cls-18,.cls-19,.cls-2,.cls-22,.cls-26,.cls-31,.cls-32,.cls-4,.cls-5,.cls-6{fill:none;}.cls-2,.cls-5{stroke:#4e9a06;}.cls-2{stroke-miterlimit:10;}.cls-11,.cls-19,.cls-2{stroke-width:0.7px;}.cls-3{fill:url(#radial-gradient);}.cls-4{stroke:#fff;stroke-width:2.5px;opacity:0.3;}.cls-11,.cls-12,.cls-18,.cls-19,.cls-22,.cls-26,.cls-31,.cls-32,.cls-4,.cls-5,.cls-6{stroke-linecap:round;stroke-linejoin:round;}.cls-5{stroke-width:3px;}.cls-19,.cls-6{stroke:#8ae234;}.cls-6{stroke-width:1.5px;}.cls-7{fill:url(#linear-gradient);}.cls-8{fill:url(#linear-gradient-2);}.cls-9{fill:url(#linear-gradient-3);}.cls-10{fill:#00255d;}.cls-11,.cls-22{stroke:#3465a4;}.cls-12{stroke:url(#linear-gradient-4);}.cls-13{fill:url(#linear-gradient-5);}.cls-14{fill:#204a87;}.cls-15{fill:url(#linear-gradient-6);}.cls-16{fill:url(#linear-gradient-7);}.cls-17{fill:url(#linear-gradient-8);}.cls-18{stroke:url(#linear-gradient-9);}.cls-20{fill:url(#linear-gradient-10);}.cls-21{fill:url(#linear-gradient-11);}.cls-22{stroke-width:0.35px;}.cls-23{fill:url(#linear-gradient-12);}.cls-24{fill:url(#linear-gradient-13);}.cls-25{fill:url(#linear-gradient-14);}.cls-26{stroke:url(#linear-gradient-15);}.cls-27{fill:url(#linear-gradient-16);}.cls-28{fill:url(#linear-gradient-17);}.cls-29{fill:url(#linear-gradient-18);}.cls-30{fill:#3465a4;}.cls-31{stroke:url(#linear-gradient-19);}.cls-32{stroke:url(#linear-gradient-20);}</style><radialGradient id="radial-gradient" cx="-36.07" cy="39.47" r="20.34" gradientTransform="translate(64.07 26.09) scale(1.11 0.36)" gradientUnits="userSpaceOnUse"><stop offset="0.03" stop-color="#2c2c2c" stop-opacity="0.5"/><stop offset="0.68" stop-color="#2c2c2c" stop-opacity="0.1"/><stop offset="0.93" stop-color="#2c2c2c" stop-opacity="0"/></radialGradient><linearGradient id="linear-gradient" x1="6.7" y1="19.47" x2="10.92" y2="24.81" gradientUnits="userSpaceOnUse"><stop offset="0" stop-color="#b2cbe5"/><stop offset="1" stop-color="#3465a4"/></linearGradient><linearGradient id="linear-gradient-2" x1="8.19" y1="23.77" x2="6.09" y2="20.11" gradientTransform="translate(3.21 -1.38) rotate(5.65)" gradientUnits="userSpaceOnUse"><stop offset="0" stop-color="#fff" stop-opacity="0"/><stop offset="1" stop-color="snow"/></linearGradient><linearGradient id="linear-gradient-3" x1="7.98" y1="20.34" x2="8.88" y2="22.71" gradientUnits="userSpaceOnUse"><stop offset="0" stop-color="#3465a4"/><stop offset="1" stop-color="#204a87"/></linearGradient><linearGradient id="linear-gradient-4" x1="11.44" y1="26.9" x2="8.63" y2="26.9" gradientTransform="matrix(1, 0, 0, 1, 0, 0)" xlink:href="#linear-gradient-2"/><linearGradient id="linear-gradient-5" x1="13.45" y1="32.24" x2="8.84" y2="20.73" gradientTransform="translate(-11.22 8.51) rotate(-24.44)" xlink:href="#linear-gradient"/><linearGradient id="linear-gradient-6" x1="15.58" y1="37.32" x2="14.59" y2="32.7" gradientTransform="translate(0.87 -0.36) rotate(2.06)" gradientUnits="userSpaceOnUse"><stop offset="0" stop-color="#00255d" stop-opacity="0"/><stop offset="1" stop-color="#00255d"/></linearGradient><linearGradient id="linear-gradient-7" x1="21.21" y1="28.27" x2="15.67" y2="31.76" gradientTransform="translate(0.87 -0.36) rotate(2.06)" xlink:href="#linear-gradient"/><linearGradient id="linear-gradient-8" x1="13.75" y1="31.46" x2="11.02" y2="27.68" gradientTransform="translate(-11.22 8.51) rotate(-24.44)" xlink:href="#linear-gradient-2"/><linearGradient id="linear-gradient-9" x1="26.15" y1="34.61" x2="17.44" y2="34.61" gradientTransform="matrix(1, 0, 0, 1, 0, 0)" xlink:href="#linear-gradient-2"/><linearGradient id="linear-gradient-10" x1="25.79" y1="28.09" x2="28.41" y2="32.45" gradientTransform="translate(1.46 -1.16) rotate(2.47)" xlink:href="#linear-gradient-3"/><linearGradient id="linear-gradient-11" x1="29.64" y1="34.39" x2="32.52" y2="38.25" gradientTransform="translate(7 -6.35) rotate(11.75)" xlink:href="#linear-gradient-6"/><linearGradient id="linear-gradient-12" x1="25.76" y1="34.2" x2="30.34" y2="44.06" gradientTransform="translate(2.6 -3.25) rotate(3.54)" xlink:href="#linear-gradient"/><linearGradient id="linear-gradient-13" x1="23.08" y1="33.48" x2="29.4" y2="36.8" gradientTransform="translate(2.6 -3.25) rotate(3.54)" xlink:href="#linear-gradient-2"/><linearGradient id="linear-gradient-14" x1="25.85" y1="34.84" x2="24.22" y2="34.09" gradientTransform="translate(2.6 -3.25) rotate(3.54)" xlink:href="#linear-gradient-2"/><linearGradient id="linear-gradient-15" x1="38.12" y1="30.37" x2="31.55" y2="30.37" gradientTransform="matrix(1, 0, 0, 1, 0, 0)" xlink:href="#linear-gradient-2"/><linearGradient id="linear-gradient-16" x1="36.71" y1="22.12" x2="42.16" y2="23.83" xlink:href="#linear-gradient"/><linearGradient id="linear-gradient-17" x1="39.17" y1="20.36" x2="39.17" y2="29.04" xlink:href="#linear-gradient-3"/><linearGradient id="linear-gradient-18" x1="36.6" y1="22.1" x2="34.89" y2="20.5" gradientTransform="translate(-2.17 12.57) rotate(-16.59)" xlink:href="#linear-gradient-2"/><linearGradient id="linear-gradient-19" x1="7.9" y1="15.67" x2="7.9" y2="8.26" gradientTransform="matrix(1, 0, 0, 1, 0, 0)" xlink:href="#linear-gradient-2"/><linearGradient id="linear-gradient-20" x1="40.1" y1="15.67" x2="40.1" y2="8.26" gradientTransform="matrix(1, 0, 0, 1, 0, 0)" xlink:href="#linear-gradient-2"/></defs><title>9-Chain</title><g id="shadow"><rect class="cls-1" x="4.86" y="5.72" width="6.08" height="6.08"/><rect class="cls-2" x="4.86" y="5.72" width="6.08" height="6.08"/><rect class="cls-1" x="37.04" y="5.72" width="6.08" height="6.08"/><rect class="cls-2" x="37.04" y="5.72" width="6.08" height="6.08"/><ellipse class="cls-3" cx="24" cy="40.17" rx="21.72" ry="7"/></g><g id="ART"><path class="cls-4" d="M40.1,8.65V19.1A16.1,16.1,0,0,1,24,35.2h0A16.1,16.1,0,0,1,7.9,19.1V8.65"/><path class="cls-5" d="M40.1,8.65V19.1A16.1,16.1,0,0,1,24,35.2h0A16.1,16.1,0,0,1,7.9,19.1V8.65"/><path class="cls-6" d="M40.1,8.65V19.1A16.1,16.1,0,0,1,24,35.2h0A16.1,16.1,0,0,1,7.9,19.1V8.65"/><circle class="cls-7" cx="8.53" cy="21.78" r="4.64"/><path class="cls-8" d="M5.32,20.42a3.49,3.49,0,0,1,3.55-2.11l.42.07a.5.5,0,0,1,.22.69A1.92,1.92,0,0,1,8,20.13C7.29,20.2,6.08,19.91,5.32,20.42Z"/><path class="cls-9" d="M11.14,19.81a3.16,3.16,0,0,1,.69,2.3,3.32,3.32,0,0,1-6.6-.65,5,5,0,0,0,2.36.73,2,2,0,0,0,2-1.27c.14-.62.28-.91.55-1.08A.9.9,0,0,1,11.14,19.81Z"/><circle class="cls-10" cx="9.04" cy="24.64" r="2.16"/><circle class="cls-11" cx="8.53" cy="21.78" r="4.64"/><path class="cls-10" d="M11.85,22.06a3.31,3.31,0,0,1-6.33,1A4.28,4.28,0,0,0,8,24.26,2.59,2.59,0,0,0,10.45,23,6.38,6.38,0,0,0,10.86,22c.12-.31.31-.49.59-.48S11.88,21.75,11.85,22.06Z"/><path class="cls-5" d="M40.1,8.65V19.1A16.1,16.1,0,0,1,24,35.2h0A16.09,16.09,0,0,1,9.13,25.28"/><path class="cls-6" d="M40.1,8.65V19.1A16.1,16.1,0,0,1,24,35.2h0A16.09,16.09,0,0,1,9.13,25.28"/><path class="cls-12" d="M10.94,28.52a16,16,0,0,1-1.81-3.24"/><polygon class="cls-13" points="15.06 26.11 15.07 32.17 9.46 34.45 9.45 28.39 15.06 26.11"/><polygon class="cls-14" points="19.84 35.38 15.07 32.17 9.46 34.45 14.23 37.66 19.84 35.38"/><polygon class="cls-15" points="19.84 35.38 15.07 32.17 9.46 34.45 14.23 37.66 19.84 35.38"/><polygon class="cls-16" points="19.84 35.38 15.07 32.17 15.06 26.11 19.83 29.32 19.84 35.38"/><circle class="cls-10" cx="17.68" cy="33.9" r="2.01"/><polygon class="cls-17" points="9.46 34.45 15.06 26.11 9.45 28.39 9.46 34.45"/><polygon class="cls-11" points="19.83 29.32 19.84 35.38 14.23 37.66 9.46 34.45 9.44 28.39 15.06 26.11 19.83 29.32"/><path class="cls-5" d="M31.84,33.17a16.08,16.08,0,0,1-7.84,2h0A15.88,15.88,0,0,1,17.94,34"/><path class="cls-6" d="M31.84,33.17a16.08,16.08,0,0,1-7.84,2h0A15.88,15.88,0,0,1,17.94,34"/><path class="cls-18" d="M25.65,35.12A15,15,0,0,1,24,35.2h0A15.88,15.88,0,0,1,17.94,34"/><path class="cls-5" d="M40.1,17.1v2a16.07,16.07,0,0,1-2.48,8.6"/><path class="cls-6" d="M40.1,8.65V19.1a16.07,16.07,0,0,1-2.48,8.6"/><path class="cls-19" d="M24,35.41a14,14,0,0,0,6.22-1.5"/><polyline class="cls-20" points="24.85 28.07 28 27.1 30.5 30.31 34.25 29.51 32.23 32.94 34.23 36.53 31.07 37.5 29.22 36.95 27.97 38.45 24.82 39.42 26.41 34.01 24.91 28.26"/><polyline class="cls-21" points="24.85 28.07 28 27.1 30.5 30.31 34.25 29.51 32.23 32.94 34.23 36.53 31.07 37.5 29.22 36.95 27.97 38.45 24.82 39.42 26.41 34.01 24.91 28.26"/><polygon class="cls-22" points="24.85 28.07 27.35 31.28 31.09 30.48 29.08 33.91 31.07 37.5 27.33 36.4 24.82 39.42 24.52 35.31 20.97 33.59 24.53 32.15 24.85 28.07"/><path class="cls-10" d="M32.36,31.37a2.08,2.08,0,0,0-2.11,1.13c-.53.91-.51,1.09-.51,1.09a4,4,0,0,0,1.16,1.17,2.05,2.05,0,0,0,1.75.25c.43-.24.08-1.15.08-1.15l-.24-.73"/><polyline class="cls-11" points="24.85 28.07 28 27.1 30.5 30.31 34.25 29.51 32.23 32.94 34.23 36.53 31.07 37.5 29.22 36.95 27.97 38.45 24.82 39.42 26.41 34.01 24.91 28.26"/><polygon class="cls-22" points="24.82 39.42 24.52 35.31 20.97 33.59 24.53 32.15 24.85 28.07 27.35 31.29 24.82 39.42"/><polygon class="cls-23" points="29.08 33.91 31.07 37.49 27.33 36.4 24.82 39.42 24.52 35.31 20.97 33.59 24.53 32.15 24.85 28.07 27.35 31.29 31.09 30.48 29.08 33.91"/><path class="cls-24" d="M27.35,31.29a10.57,10.57,0,0,0-2.74,5.24l-.09-1.22L21,33.59l3.56-1.44.32-4.08Z"/><path class="cls-25" d="M27.35,31.29a10.57,10.57,0,0,0-2.74,5.24l-.09-1.22L21,33.59l3.56-1.44.32-4.08Z"/><polygon class="cls-11" points="29.08 33.91 31.07 37.49 27.33 36.4 24.82 39.42 24.52 35.31 20.97 33.59 24.53 32.15 24.85 28.07 27.35 31.29 31.09 30.48 29.08 33.91"/><path class="cls-5" d="M37.62,27.7a16.3,16.3,0,0,1-5.57,5.35"/><path class="cls-6" d="M37.62,27.7a16.3,16.3,0,0,1-5.57,5.35"/><path class="cls-26" d="M37.62,27.7a16.3,16.3,0,0,1-5.57,5.35"/><path class="cls-27" d="M42.55,27.2h0l-1-9.91-2.94-.38-5,8.45h0a.87.87,0,0,0-.22.41c-.22,1.09,1.65,2.4,4.18,2.92s4.76.06,5-1A.91.91,0,0,0,42.55,27.2Z"/><path class="cls-28" d="M41.74,27.17s-.61,1.22-3.94.54a10.84,10.84,0,0,1-1.21-.33,2.16,2.16,0,0,0,1.54-1.31c.3-.92,1.54-5.72,2-7.66.21-.89.85-.17.85-.17Z"/><path class="cls-10" d="M41.74,27.17s-.38.76-2.17.74a1.47,1.47,0,0,0,.51-1.42c0-.4.27-5.66.52-7.89.08-.71.36-.23.36-.34Z"/><path class="cls-29" d="M38.75,17.86l.82.17-4.06,8.88c-1.08-.62-1.12-1.26-1.12-1.26Z"/><path class="cls-11" d="M42.55,27.2h0l-1-9.91-2.94-.38-5,8.45h0a.87.87,0,0,0-.22.41c-.22,1.09,1.65,2.4,4.18,2.92s4.76.06,5-1A.91.91,0,0,0,42.55,27.2Z"/><path class="cls-30" d="M41.9,17.62a1.89,1.89,0,0,0-3.63-.68,1.62,1.62,0,0,0,1.47,1.88A1.72,1.72,0,0,0,41.9,17.62Z"/><line class="cls-31" x1="7.9" y1="8.76" x2="7.9" y2="15.17"/><line class="cls-5" x1="40.1" y1="8.65" x2="40.1" y2="16.71"/><line class="cls-6" x1="40.1" y1="8.65" x2="40.1" y2="16.71"/><line class="cls-32" x1="40.1" y1="8.76" x2="40.1" y2="15.17"/></g></svg>