<?xml version="1.0" encoding="UTF-8" standalone="no"?>
<!-- Created with Inkscape (http://www.inkscape.org/) -->
<svg
   xmlns:a="http://ns.adobe.com/AdobeSVGViewerExtensions/3.0/"
   xmlns:dc="http://purl.org/dc/elements/1.1/"
   xmlns:cc="http://web.resource.org/cc/"
   xmlns:rdf="http://www.w3.org/1999/02/22-rdf-syntax-ns#"
   xmlns:svg="http://www.w3.org/2000/svg"
   xmlns="http://www.w3.org/2000/svg"
   xmlns:xlink="http://www.w3.org/1999/xlink"
   xmlns:sodipodi="http://sodipodi.sourceforge.net/DTD/sodipodi-0.dtd"
   xmlns:inkscape="http://www.inkscape.org/namespaces/inkscape"
   width="48px"
   height="48px"
   id="svg51451"
   sodipodi:version="0.32"
   inkscape:version="0.44"
   sodipodi:docbase="e:\dev_clean\src\houdini\support\icons\sop"
   sodipodi:docname="cregion.svg">
  <metadata
     id="metadata3997">
    <rdf:RDF>
      <cc:Work
         rdf:about="">
        <dc:format>image/svg+xml</dc:format>
        <dc:type
           rdf:resource="http://purl.org/dc/dcmitype/StillImage" />
      </cc:Work>
    </rdf:RDF>
  </metadata>
  <defs
     id="defs51453">
    <linearGradient
       id="linearGradient4109">
      <stop
         style="stop-color:#a7c2e4;stop-opacity:1;"
         offset="0"
         id="stop4111" />
      <stop
         style="stop-color:#2360af;stop-opacity:1;"
         offset="1"
         id="stop4113" />
    </linearGradient>
    <linearGradient
       inkscape:collect="always"
       id="linearGradient4101">
      <stop
         style="stop-color:#eeeeec;stop-opacity:1;"
         offset="0"
         id="stop4103" />
      <stop
         style="stop-color:#eeeeec;stop-opacity:0;"
         offset="1"
         id="stop4105" />
    </linearGradient>
    <linearGradient
       id="linearGradient4051">
      <stop
         style="stop-color:#8ab0dc;stop-opacity:1;"
         offset="0"
         id="stop4053" />
      <stop
         style="stop-color:#3165a1;stop-opacity:1;"
         offset="1"
         id="stop4055" />
    </linearGradient>
    <linearGradient
       y2="1711.2806"
       x2="1031.4863"
       y1="1677.312"
       x1="1011.6318"
       gradientUnits="userSpaceOnUse"
       id="XMLID_992_"
       gradientTransform="translate(-988.1599,-1655.317)">
      <stop
         id="stop6874"
         style="stop-color:#FEF3DC"
         offset="0" />
      <stop
         id="stop6876"
         style="stop-color:#FAAF3E"
         offset="1" />
      <a:midPointStop
         style="stop-color:#FEF3DC"
         offset="0" />
      <a:midPointStop
         style="stop-color:#FEF3DC"
         offset="0.5" />
      <a:midPointStop
         style="stop-color:#FAAF3E"
         offset="1" />
    </linearGradient>
    <linearGradient
       inkscape:collect="always"
       xlink:href="#linearGradient4051"
       id="linearGradient4057"
       x1="-0.3017199"
       y1="19.811659"
       x2="47.656864"
       y2="25.811659"
       gradientUnits="userSpaceOnUse"
       gradientTransform="matrix(0.984994,0,0,0.984722,0.360118,0.34198)" />
    <linearGradient
       inkscape:collect="always"
       xlink:href="#linearGradient4051"
       id="linearGradient4095"
       gradientUnits="userSpaceOnUse"
       x1="-0.3017199"
       y1="19.811659"
       x2="47.656864"
       y2="25.811659"
       gradientTransform="translate(-2.570428,-10.02594)" />
    <linearGradient
       inkscape:collect="always"
       xlink:href="#linearGradient4101"
       id="linearGradient4107"
       x1="21.987585"
       y1="11.616049"
       x2="41.564056"
       y2="38.205845"
       gradientUnits="userSpaceOnUse"
       gradientTransform="matrix(0.98813,0,0,0.987904,0.213323,0.233595)" />
    <linearGradient
       inkscape:collect="always"
       xlink:href="#linearGradient4109"
       id="linearGradient4115"
       x1="36.648479"
       y1="14.108354"
       x2="33.597569"
       y2="34.774323"
       gradientUnits="userSpaceOnUse" />
    <linearGradient
       inkscape:collect="always"
       xlink:href="#linearGradient4109"
       id="linearGradient4117"
       x1="34.846317"
       y1="13.682847"
       x2="31.470268"
       y2="34.354996"
       gradientUnits="userSpaceOnUse"
       gradientTransform="matrix(1.14335,0,0,1,-5.064181,0)" />
    <linearGradient
       inkscape:collect="always"
       xlink:href="#linearGradient4109"
       id="linearGradient4119"
       x1="19.11305"
       y1="11.726201"
       x2="15.695352"
       y2="33.343845"
       gradientUnits="userSpaceOnUse" />
    <linearGradient
       inkscape:collect="always"
       xlink:href="#linearGradient4109"
       id="linearGradient4121"
       x1="17.766172"
       y1="11.496325"
       x2="14.209021"
       y2="32.853466"
       gradientUnits="userSpaceOnUse"
       gradientTransform="matrix(1.151869,0,0,1,-2.622192,0)" />
  </defs>
  <sodipodi:namedview
     id="base"
     pagecolor="#ffffff"
     bordercolor="#666666"
     borderopacity="1.0"
     inkscape:pageopacity="0.0"
     inkscape:pageshadow="2"
     inkscape:zoom="14"
     inkscape:cx="32.300663"
     inkscape:cy="22.03321"
     inkscape:current-layer="layer1"
     showgrid="true"
     inkscape:grid-bbox="false"
     inkscape:document-units="px"
     inkscape:window-width="1115"
     inkscape:window-height="1063"
     inkscape:window-x="292"
     inkscape:window-y="2" />
  <g
     id="layer1"
     inkscape:label="Layer 1"
     inkscape:groupmode="layer">
    <path
       id="path4091"
       style="color:black;fill:url(#linearGradient4115);fill-opacity:1.0;fill-rule:nonzero;stroke:#204a87;stroke-width:0.9999997;stroke-linecap:butt;stroke-linejoin:miter;marker:none;stroke-miterlimit:4;stroke-dashoffset:0;stroke-opacity:1;visibility:visible;display:inline;overflow:visible"
       d="M 33.005622,34.256465 L 33.374023,31.865167 C 33.513602,31.885617 33.739178,31.825194 34.049277,31.536624 C 34.359377,31.248056 34.710967,30.757388 35.04016,30.106877 C 35.698546,28.805855 36.278076,26.891496 36.577137,24.729807 C 36.876196,22.568117 36.838855,20.563371 36.559458,19.124942 C 36.419761,18.405727 36.215207,17.83357 35.995688,17.467398 C 35.776168,17.101228 35.575944,16.978413 35.409579,16.949233 L 35.779834,14.608353 C 36.496193,14.711772 37.041993,15.228912 37.418484,15.847688 C 37.794977,16.466465 38.050273,17.231592 38.231436,18.150565 C 38.593759,19.988512 38.637873,22.385216 38.274875,24.97049 C 37.911877,27.555764 37.209846,29.844746 36.356043,31.507122 C 35.929141,32.33831 35.469857,33.025984 34.938011,33.513625 C 34.406168,34.001265 33.721979,34.359885 33.005622,34.256465 z "
       sodipodi:nodetypes="ccsssssccsssssc" />
    <path
       id="path4079"
       style="color:black;fill:url(#linearGradient4119);fill-opacity:1.0;fill-rule:nonzero;stroke:#204a87;stroke-width:0.99999982;stroke-linecap:butt;stroke-linejoin:miter;marker:none;stroke-miterlimit:4;stroke-dashoffset:0;stroke-opacity:1;visibility:visible;display:inline;overflow:visible"
       d="M 14.398765,32.830224 L 14.809421,30.194516 C 14.96501,30.217057 15.21646,30.150457 15.562128,29.832394 C 15.907797,29.514332 16.299716,28.973514 16.666668,28.256516 C 17.400571,26.822519 18.046575,24.712498 18.379938,22.329867 C 18.713299,19.947236 18.671676,17.73759 18.360232,16.152142 C 18.204512,15.359418 17.976494,14.728782 17.731796,14.325185 C 17.487097,13.921589 17.263906,13.786221 17.07846,13.754059 L 17.491184,11.173922 C 18.28971,11.287912 18.898114,11.857907 19.31779,12.539927 C 19.737467,13.221948 20.022046,14.065277 20.223989,15.078176 C 20.627871,17.103976 20.677045,19.745641 20.27241,22.59515 C 19.867775,25.444659 19.08522,27.967594 18.133485,29.799876 C 17.657616,30.716018 17.145651,31.473978 16.552803,32.011459 C 15.959956,32.54894 15.197289,32.944214 14.398765,32.830224 z "
       sodipodi:nodetypes="ccsssssccsssssc" />
    <path
       style="fill:url(#linearGradient4057);fill-opacity:1;stroke:#204a87;stroke-width:0.99999982;stroke-miterlimit:4;stroke-dasharray:none;stroke-opacity:1"
       d="M 11.164271,10.004565 C 8.3313457,10.270263 6.0001383,11.306638 4.2693129,12.866413 C 1.9615458,14.946112 0.74279014,17.839724 0.57558544,20.774962 C 0.40838074,23.710199 1.2811698,26.730273 3.1919758,29.083553 C 5.0974524,31.430271 8.0855742,33.071481 11.872235,33.237849 L 11.903016,33.237849 L 36.712553,34.80725 C 42.303639,35.187049 46.260469,30.908902 47.208895,26.314023 C 47.683108,24.016583 47.464538,21.575164 46.285463,19.482514 C 45.106388,17.389863 42.950498,15.724206 39.975345,15.082037 L 14.303939,10.035337 C 13.276363,9.8644901 12.205416,9.9567084 11.164271,10.004565 z M 13.719099,12.927958 L 13.780661,12.927958 L 39.359724,17.974658 C 41.634488,18.465653 42.928054,19.559014 43.699854,20.928824 C 44.471654,22.298635 44.665996,24.031159 44.315475,25.729344 C 43.614433,29.125713 40.917465,32.126175 36.897239,31.853084 L 12.056922,30.283683 L 12.026141,30.283683 C 8.9834057,30.156779 6.870997,28.932123 5.4697744,27.206427 C 4.0685518,25.480731 3.4027895,23.202709 3.5305674,20.959597 C 3.6583454,18.716485 4.5704974,16.555147 6.2393009,15.051265 C 7.8799437,13.572761 10.281175,12.652782 13.719099,12.927958 z "
       id="line22220"
       sodipodi:nodetypes="cssscccssccccccsscccsssc" />
    <path
       style="fill:none;fill-opacity:1;stroke:url(#linearGradient4107);stroke-width:0.69999993;stroke-miterlimit:4;stroke-dasharray:none;stroke-opacity:1"
       d="M 11.269847,10.882159 C 8.648713,11.127629 6.4917874,12.085101 4.8903592,13.526124 C 2.7551217,15.447489 1.6274806,18.120798 1.4727763,20.832566 C 1.318072,23.544334 2.1256108,26.334478 3.8935642,28.508595 C 5.6565867,30.676649 8.4213153,32.192907 11.924884,32.34661 L 11.953363,32.34661 L 36.531486,33.867092 C 41.70458,34.217975 45.365596,30.265539 46.243118,26.020484 C 46.681878,23.897956 46.479649,21.642412 45.388723,19.709083 C 44.297795,17.775753 42.444241,16.519165 39.691512,15.925888 L 14.174793,10.910589 C 13.22399,10.752739 12.233169,10.837944 11.269847,10.882159 z "
       id="path4099"
       sodipodi:nodetypes="cssscccssccc" />
    <path
       id="path4075"
       style="color:black;fill:url(#linearGradient4121);fill-opacity:1;fill-rule:nonzero;stroke:#204a87;stroke-width:0.99999994;stroke-linecap:butt;stroke-linejoin:miter;marker:none;stroke-miterlimit:4;stroke-dashoffset:0;stroke-opacity:1;visibility:visible;display:inline;overflow:visible"
       d="M 13.785156,32.843844 C 12.865357,32.729853 12.10629,32.123337 11.622879,31.441316 C 11.139467,30.759295 10.816211,29.88819 10.583601,28.875291 C 10.118382,26.849491 10.095787,24.212045 10.561874,21.362536 C 11.027959,18.513027 11.895313,15.985872 12.991588,14.15359 C 13.539726,13.237449 14.124898,12.507266 14.807783,11.969785 C 15.490665,11.432304 16.346379,11.05521 17.266176,11.169201 L 16.750251,13.838017 C 15.855586,14.10258 15.261927,14.905339 14.715215,15.700652 C 13.869855,17.134648 13.125742,19.244668 12.741752,21.627299 C 12.357762,24.009931 12.405708,26.219577 12.76445,27.805025 C 12.94382,28.597749 13.206466,29.228385 13.488327,29.631981 C 13.770187,30.035578 13.99792,30.167253 14.177137,30.189795 L 13.785156,32.843844 z "
       sodipodi:nodetypes="csssssccsssscc" />
    <path
       id="path4089"
       style="color:black;fill:url(#linearGradient4117);fill-opacity:1;fill-rule:nonzero;stroke:#204a87;stroke-width:0.99999988;stroke-linecap:butt;stroke-linejoin:miter;marker:none;stroke-miterlimit:4;stroke-dashoffset:0;stroke-opacity:1;visibility:visible;display:inline;overflow:visible"
       d="M 32.229974,33.854995 C 31.41153,33.751633 30.736106,33.20167 30.305962,32.583241 C 29.875819,31.964814 29.588184,31.174933 29.381204,30.256477 C 28.967249,28.419567 28.947144,26.028042 29.361871,23.444228 C 29.776599,20.860413 30.548376,18.568895 31.523851,16.907458 C 32.011588,16.07674 32.53228,15.41464 33.139915,14.927275 C 33.747549,14.43991 34.508971,14.097976 35.327414,14.20134 L 34.86834,16.62131 C 34.07226,16.861204 33.544017,17.589112 33.057548,18.310268 C 32.30534,19.610556 31.643222,21.523834 31.301545,23.684303 C 30.959868,25.844773 31.002531,27.848388 31.321741,29.286005 C 31.481347,30.004814 31.71505,30.576649 31.965853,30.942613 C 32.216654,31.308577 32.419292,31.427975 32.578762,31.448414 L 32.229974,33.854995 z "
       sodipodi:nodetypes="csssssccsssscc" />
  </g>
</svg>
