<?xml version="1.0" encoding="UTF-8" standalone="no"?>
<!-- Created with Inkscape (http://www.inkscape.org/) -->
<svg
   xmlns:dc="http://purl.org/dc/elements/1.1/"
   xmlns:cc="http://web.resource.org/cc/"
   xmlns:rdf="http://www.w3.org/1999/02/22-rdf-syntax-ns#"
   xmlns:svg="http://www.w3.org/2000/svg"
   xmlns="http://www.w3.org/2000/svg"
   xmlns:xlink="http://www.w3.org/1999/xlink"
   xmlns:sodipodi="http://sodipodi.sourceforge.net/DTD/sodipodi-0.dtd"
   xmlns:inkscape="http://www.inkscape.org/namespaces/inkscape"
   width="48px"
   height="48px"
   id="svg9508"
   sodipodi:version="0.32"
   inkscape:version="0.44.1"
   sodipodi:docbase="e:\dev_clean\src\houdini\support\icons\sop"
   sodipodi:docname="curveclay.svg">
  <defs
     id="defs9510">
    <linearGradient
       inkscape:collect="always"
       id="linearGradient9863">
      <stop
         style="stop-color:#ccc5aa;stop-opacity:1"
         offset="0"
         id="stop9865" />
      <stop
         style="stop-color:#b1a57c;stop-opacity:1"
         offset="1"
         id="stop9867" />
    </linearGradient>
    <linearGradient
       inkscape:collect="always"
       id="linearGradient9855">
      <stop
         style="stop-color:#88804f;stop-opacity:1"
         offset="0"
         id="stop9857" />
      <stop
         style="stop-color:#726935;stop-opacity:1"
         offset="1"
         id="stop9859" />
    </linearGradient>
    <linearGradient
       inkscape:collect="always"
       id="linearGradient9847">
      <stop
         style="stop-color:#6d633f;stop-opacity:1;"
         offset="0"
         id="stop9849" />
      <stop
         style="stop-color:#9f905c;stop-opacity:1"
         offset="1"
         id="stop9851" />
    </linearGradient>
    <linearGradient
       id="linearGradient9794">
      <stop
         style="stop-color:white;stop-opacity:0;"
         offset="0"
         id="stop9796" />
      <stop
         id="stop9802"
         offset="0.5"
         style="stop-color:white;stop-opacity:1;" />
      <stop
         style="stop-color:white;stop-opacity:0;"
         offset="1"
         id="stop9798" />
    </linearGradient>
    <marker
       inkscape:stockid="TriangleOutM"
       orient="auto"
       refY="0.0"
       refX="0.0"
       id="TriangleOutM"
       style="overflow:visible">
      <path
         id="path9666"
         d="M 5.77,0.0 L -2.88,5.0 L -2.88,-5.0 L 5.77,0.0 z "
         style="fill-rule:evenodd;stroke:#000000;stroke-width:1.0pt;marker-start:none"
         transform="scale(0.4)" />
    </marker>
    <marker
       inkscape:stockid="TriangleOutL"
       orient="auto"
       refY="0.0"
       refX="0.0"
       id="TriangleOutL"
       style="overflow:visible">
      <path
         id="path9669"
         d="M 5.77,0.0 L -2.88,5.0 L -2.88,-5.0 L 5.77,0.0 z "
         style="fill-rule:evenodd;stroke:#000000;stroke-width:1.0pt;marker-start:none"
         transform="scale(0.8)" />
    </marker>
    <marker
       inkscape:stockid="Arrow1Lend"
       orient="auto"
       refY="0.0"
       refX="0.0"
       id="Arrow1Lend"
       style="overflow:visible;">
      <path
         id="path9764"
         d="M 0.0,0.0 L 5.0,-5.0 L -12.5,0.0 L 5.0,5.0 L 0.0,0.0 z "
         style="fill-rule:evenodd;stroke:#000000;stroke-width:1.0pt;marker-start:none;"
         transform="scale(0.8) rotate(180) translate(12.5,0)" />
    </marker>
    <linearGradient
       inkscape:collect="always"
       xlink:href="#linearGradient9847"
       id="linearGradient9853"
       x1="12.643749"
       y1="29.131989"
       x2="15.785282"
       y2="42.401833"
       gradientUnits="userSpaceOnUse" />
    <linearGradient
       inkscape:collect="always"
       xlink:href="#linearGradient9855"
       id="linearGradient9861"
       x1="35.929646"
       y1="24.774328"
       x2="41.431927"
       y2="35.187027"
       gradientUnits="userSpaceOnUse" />
    <radialGradient
       inkscape:collect="always"
       xlink:href="#linearGradient9863"
       id="radialGradient9869"
       cx="23.914179"
       cy="18.778265"
       fx="23.914179"
       fy="18.778265"
       r="23.299741"
       gradientTransform="matrix(0.788572,-0.272857,0.18216,0.526453,1.63546,16.7258)"
       gradientUnits="userSpaceOnUse" />
  </defs>
  <sodipodi:namedview
     id="base"
     pagecolor="#ffffff"
     bordercolor="#666666"
     borderopacity="1.0"
     inkscape:pageopacity="0.0"
     inkscape:pageshadow="2"
     inkscape:zoom="15.75"
     inkscape:cx="23.146839"
     inkscape:cy="22.920635"
     inkscape:current-layer="layer1"
     showgrid="true"
     inkscape:grid-bbox="false"
     inkscape:document-units="px"
     borderlayer="true"
     inkscape:window-width="1339"
     inkscape:window-height="1060"
     inkscape:window-x="292"
     inkscape:window-y="3" />
  <metadata
     id="metadata9513">
    <rdf:RDF>
      <cc:Work
         rdf:about="">
        <dc:format>image/svg+xml</dc:format>
        <dc:type
           rdf:resource="http://purl.org/dc/dcmitype/StillImage" />
      </cc:Work>
    </rdf:RDF>
  </metadata>
  <g
     id="layer1"
     inkscape:label="Layer 1"
     inkscape:groupmode="layer">
    <path
       style="fill:url(#radialGradient9869);fill-opacity:1.0;fill-rule:evenodd;stroke:none;stroke-width:1px;stroke-linecap:butt;stroke-linejoin:miter;stroke-opacity:1"
       d="M 0.61443745,25.41149 L 1.3421616,38.085404 C 2.1872163,40.130215 3.7194709,40.797741 5.3571952,41.253883 L 29.070987,47.590841 C 32.148102,47.581378 34.329771,46.674591 36.072201,45.327642 L 45.607906,30.164208 C 45.607906,30.164208 46.624211,29.944174 46.83751,29.359514 C 47.05081,28.774855 46.461101,27.825569 46.461101,27.825569 L 47.213919,19.074534 C 46.838413,17.024628 45.271583,15.571636 43.299262,14.321814 L 21.16639,7.9848566 C 18.69246,7.590221 16.297212,7.8263629 14.089894,9.5690959 L 0.61443745,25.41149 z "
       id="path9577"
       sodipodi:nodetypes="cccccczcccccc" />
    <path
       style="fill:url(#linearGradient9853);fill-opacity:1.0;fill-rule:evenodd;stroke:none;stroke-width:1px;stroke-linecap:butt;stroke-linejoin:miter;stroke-opacity:1"
       d="M 1.0881934,25.549172 L 28.84514,33.458421 C 32.358663,38.451226 32.189512,44.957096 29.246645,46.937028 L 4.3534369,40.388201 C 2.8989075,40.01054 2.309386,38.818248 1.8912001,37.921327 L 1.0881934,25.549172 z "
       id="path9579"
       sodipodi:nodetypes="cccccc" />
    <path
       style="fill:url(#linearGradient9861);fill-opacity:1.0;fill-rule:evenodd;stroke:none;stroke-width:1px;stroke-linecap:butt;stroke-linejoin:miter;stroke-opacity:1"
       d="M 28.945518,33.659593 L 43.215218,14.447549 C 44.535763,15.775157 46.22739,16.087767 46.828749,19.577466 L 46.570561,27.423223 C 47.10221,28.533409 46.623588,30.733254 45.286228,31.308315 L 35.777133,45.025883 C 33.90174,46.526113 31.285592,46.859803 29.146269,47.037615 C 31.338769,45.445313 32.573028,39.30829 28.945518,33.659593 z "
       id="path9583"
       sodipodi:nodetypes="cccccccc" />
    <path
       style="fill:none;fill-opacity:1;fill-rule:evenodd;stroke:#403a25;stroke-width:1.55999959;stroke-linecap:butt;stroke-linejoin:miter;stroke-miterlimit:4;stroke-dasharray:none;stroke-opacity:1"
       d="M 0.84893219,25.25168 L 1.5697239,37.804188 C 2.4067272,39.829412 3.9243861,40.490543 5.5465082,40.942315 L 29.034397,47.21857 C 32.082199,47.209197 34.243084,46.311097 35.968917,44.977051 L 44.969337,31.48268 C 46.714622,31.674005 47.842049,28.660085 46.576308,27.134697 L 47.004495,18.975427 C 46.632566,16.945157 45.080662,15.506085 43.12713,14.268235 L 31.361814,10.899837 L 21.205102,7.9919805 C 18.754739,7.6011251 16.382309,7.835005 14.196019,9.5610441 L 0.84893219,25.25168 z "
       id="path9585"
       sodipodi:nodetypes="ccccccccccccc" />
    <path
       id="path9845"
       d="M 26.8611,1.3696333 L 29.969441,9.5481354 L 21.070167,8.0514328 L 26.8611,1.3696333 z "
       style="fill:#ef2929;fill-rule:evenodd;stroke:#eeeeec;stroke-width:2.00000024;marker-start:none;stroke-miterlimit:4;stroke-dasharray:none;stroke-opacity:1" />
    <path
       style="fill:none;fill-opacity:0.75;fill-rule:evenodd;stroke:#eeeeec;stroke-width:4.00000048;stroke-linecap:butt;stroke-linejoin:miter;stroke-miterlimit:4;stroke-dasharray:none;stroke-opacity:1"
       d="M 24.513416,15.556376 L 26.192916,5.3722213"
       id="path9843"
       sodipodi:nodetypes="cc" />
    <path
       style="fill:none;fill-opacity:0.75;fill-rule:evenodd;stroke:#eeeeec;stroke-width:4;stroke-linecap:round;stroke-linejoin:miter;stroke-miterlimit:4;stroke-dasharray:none;stroke-opacity:1"
       d="M 10.857143,16.069171 C 17.52381,18.100917 19.746032,12.894568 24.761905,14.545361 C 29.777778,16.196155 28.253968,21.27552 34.730159,23.370758"
       id="path10001" />
    <path
       style="fill:none;fill-opacity:0.75;fill-rule:evenodd;stroke:#ef2929;stroke-width:2.00000024;stroke-linecap:butt;stroke-linejoin:miter;stroke-miterlimit:4;stroke-dasharray:none;stroke-opacity:1"
       d="M 24.609797,14.621872 L 26.162312,5.5170817"
       id="path9790"
       sodipodi:nodetypes="cc" />
    <path
       id="path9786"
       d="M 26.904463,1.6818401 L 29.835392,9.3986619 L 21.444053,7.9864486 L 26.904463,1.6818401 z "
       style="fill:#ef2929;fill-rule:evenodd;stroke:none;stroke-width:0.4pt;marker-start:none" />
    <path
       style="fill:none;fill-opacity:0.75;fill-rule:evenodd;stroke:#ef2929;stroke-width:2;stroke-linecap:round;stroke-linejoin:miter;stroke-opacity:1;stroke-miterlimit:4;stroke-dasharray:none"
       d="M 10.920635,16 C 17.587302,18.031746 19.809524,12.825397 24.825397,14.47619 C 29.84127,16.126984 28.31746,21.206349 34.793651,23.301587"
       id="path9999" />
  </g>
</svg>
