<?xml version="1.0" encoding="UTF-8" standalone="no"?>
<!-- Generator: Adobe Illustrator 15.0.0, SVG Export Plug-In . SVG Version: 6.00 Build 0)  -->

<svg
   xmlns:a="http://ns.adobe.com/AdobeSVGViewerExtensions/3.0/"
   xmlns:i="http://ns.adobe.com/AdobeIllustrator/10.0/"
   xmlns:dc="http://purl.org/dc/elements/1.1/"
   xmlns:cc="http://creativecommons.org/ns#"
   xmlns:rdf="http://www.w3.org/1999/02/22-rdf-syntax-ns#"
   xmlns:svg="http://www.w3.org/2000/svg"
   xmlns="http://www.w3.org/2000/svg"
   xmlns:xlink="http://www.w3.org/1999/xlink"
   xmlns:sodipodi="http://sodipodi.sourceforge.net/DTD/sodipodi-0.dtd"
   xmlns:inkscape="http://www.inkscape.org/namespaces/inkscape"
   version="1.0"
   id="Layer_1"
   x="0px"
   y="0px"
   width="48"
   height="48"
   viewBox="0 0 612 792"
   enable-background="new 0 0 612 792"
   xml:space="preserve"
   sodipodi:version="0.32"
   inkscape:version="0.48.4 r9939"
   sodipodi:docname="drawhair.svg"
   inkscape:output_extension="org.inkscape.output.svg.inkscape"><metadata
     id="metadata2473"><rdf:RDF><cc:Work
         rdf:about=""><dc:format>image/svg+xml</dc:format><dc:type
           rdf:resource="http://purl.org/dc/dcmitype/StillImage" /><dc:title></dc:title></cc:Work></rdf:RDF></metadata><defs
     id="defs2471"><linearGradient
   id="linearGradient35483"><stop
     style="stop-color:#d8d8d8;stop-opacity:1;"
     offset="0"
     id="stop35485" /><stop
     style="stop-color:#777777;stop-opacity:1;"
     offset="1"
     id="stop35487" /></linearGradient><inkscape:perspective
   id="perspective10849"
   inkscape:persp3d-origin="306 : 264 : 1"
   inkscape:vp_z="612 : 396 : 1"
   inkscape:vp_y="0 : 1000 : 0"
   inkscape:vp_x="0 : 396 : 1"
   sodipodi:type="inkscape:persp3d" /><inkscape:perspective
   id="perspective11136"
   inkscape:persp3d-origin="306 : 264 : 1"
   inkscape:vp_z="612 : 396 : 1"
   inkscape:vp_y="0 : 1000 : 0"
   inkscape:vp_x="0 : 396 : 1"
   sodipodi:type="inkscape:persp3d" /><inkscape:perspective
   id="perspective11445"
   inkscape:persp3d-origin="306 : 264 : 1"
   inkscape:vp_z="612 : 396 : 1"
   inkscape:vp_y="0 : 1000 : 0"
   inkscape:vp_x="0 : 396 : 1"
   sodipodi:type="inkscape:persp3d" /><inkscape:perspective
   id="perspective27576"
   inkscape:persp3d-origin="306 : 264 : 1"
   inkscape:vp_z="612 : 396 : 1"
   inkscape:vp_y="0 : 1000 : 0"
   inkscape:vp_x="0 : 396 : 1"
   sodipodi:type="inkscape:persp3d" /><radialGradient
   inkscape:collect="always"
   xlink:href="#linearGradient35483"
   id="radialGradient4469"
   cx="130.50529"
   cy="278.94733"
   fx="130.50529"
   fy="278.94733"
   r="321.10294"
   gradientTransform="matrix(1,0,0,1.0000269,-233.35714,-0.01078283)"
   gradientUnits="userSpaceOnUse" />
	

	

	

	

	

	

	

	

	

	

	

	

	

	

	

	

	

	

	

	

	

	

	

	

	

	

	

	

	

	

	

	

	

	

	

	

	

	

	

	

	

	

	

	

	

	

	

	

	

	

	

	

	

	

	

	

	

	

	

	

	

	

	

	

	

	

	

	

	

	

	

	

	

	

	

	

	

	

	

	

	

	

	

	

	

	

	

	

	

	

	

	

	

	

	

	

	

	

	

	

	

	

	

	

	

	

	

	

	

	

	

	

	

	

	

	

	

	

	

	

	

	

	

	

	

	

	

	

	

	

	

	

	

	

	

	

	

	

	

	

	

	

	

	

	

	

	

	

	

	

	

		
	
		
	
		
	
		
	
		
	
		
	
		
	
		
	
		
	
		
	
		
	
		
	
		
	
		
	
		
	
		
	
		
	
		
	
		
	
		
	
		
	
		
	
		
	
		
	
		
	
		
	
		
	
		
	
		
	
		
	
		
	
		
	
		
	
		
	
		
	
		
	
		
	
		
	
		
	
		
	
		
	
		
	
		
	
		
	
		
	
		
	
		
	
		
	
		
	
		
	
		
	
		
	
		
	
		
	
		
	
		
	
		
	
		
	
		
	
		
	
		
	
		
	
		
	
		
	
		
	
		
	
		
	
		
	
		
	
		
	
		
	
		
	
		
	
		
	
		
	
		
	
		
	
		
	
		
	
		
	
		
	
		
	
		
	
		
	
		
	
		
	
		
	
		
	
		
	
		
	
		
	
		
	
		
	
		
	
		
	
		
	
		
	
		
	
		
	
		
	
		
	
		
	
		
	
		
	
		
	
		
	
		
	
		
	
		
	
		
	
		
	
		
	
		
	
		
	
		
	
		
	
		
	
		
	
		
	
		
	
		
	
		
	
		
	
		
	
		
	
		
	
		
	
		
	
		
	
		
	
		
	
		
	
		
	
		
	
		
	
		
	
		
	
		
	
		
	
		
	
		
	
		
	
		
	
		
	
		
	
		
	
		
	
		
	
		
	
		
	
		
	
			
		
			
		
			
		
			
		
			
		
			
		
			
		
			
		
			
		
			
		
			
		
			
		
			
		
			
		
			
		
			
		
			
		
			
		
			
		
			
		
			
		
			
		
			
		
			
		
			
		
			
		
			
		
			
		
			
		
			
		
			
		
			
		
			
		
			
		
			
		
			
		
			
		
			
		
			
		
			
		
			
		
			
		
			
		
			
		
			
		
			
		
			
		
			
		
			
		
			
		
			
		
			
		
			
		
			
		
			
		
			
		
			
		
			
		
			
		
			
		
			
		
			
		
			
		
			
		
			
		
			
		
			
		
			
		
			
		
			
		
			
		
			
		
			
		
			
		
			
		
			
		
			
		
			
		
			
		
			
		
			
		
			
		
			
		
			
		
			
		
			
		
			
		
			
		
			
		
			
		
			
		
			
		
			
		
			
		
			
		
			
		
			
		
			
		
			
		
			
		
			
		
			
		
			
		
			
		
			
		
			
		
			
		
			
		
			
		
			
		
			
		
			
		
			
		
			
		
			
		
			
		
			
		
			
		
			
		
			
		
			
		
			
		
			
		
			
		
			
		
			
		
			
		
			
		
			
		
			
		
			
		
			
		
			
		
			
		
			
		
			
		
			
		
			
		
			
		
			
		
			
		
			
		
			
		
			
		
			
		
			
		
			
		
			
		
			
		
			
		
			
		<linearGradient
   inkscape:collect="always"
   xlink:href="#linearGradient9910"
   id="linearGradient1397"
   gradientUnits="userSpaceOnUse"
   gradientTransform="matrix(-0.493304,-0.716654,0.716654,-0.493304,-9.26781,79.4192)"
   x1="28.244684"
   y1="60.445503"
   x2="28.244684"
   y2="68.224884" /><linearGradient
   id="linearGradient9910"><stop
     style="stop-color:#729fcf;stop-opacity:1;"
     offset="0"
     id="stop9912" /><stop
     id="stop9918"
     offset="0.31578946"
     style="stop-color:#a5bfda;stop-opacity:1;" /><stop
     style="stop-color:#376ca4;stop-opacity:1;"
     offset="1"
     id="stop9914" /></linearGradient><linearGradient
   inkscape:collect="always"
   xlink:href="#linearGradient9920"
   id="linearGradient1399"
   gradientUnits="userSpaceOnUse"
   gradientTransform="matrix(-0.493304,-0.716654,0.716654,-0.493304,-9.26781,79.4192)"
   x1="28.244684"
   y1="60.445503"
   x2="28.244684"
   y2="68.224884" /><linearGradient
   id="linearGradient9920"><stop
     id="stop9922"
     offset="0"
     style="stop-color:#5b90c8;stop-opacity:1;" /><stop
     style="stop-color:#8fb0d1;stop-opacity:1;"
     offset="0.31578946"
     id="stop9924" /><stop
     id="stop9926"
     offset="1"
     style="stop-color:#34679d;stop-opacity:1;" /></linearGradient><linearGradient
   inkscape:collect="always"
   xlink:href="#linearGradient9910"
   id="linearGradient1401"
   gradientUnits="userSpaceOnUse"
   gradientTransform="matrix(-0.493304,-0.716654,0.716654,-0.493304,-9.26781,79.4192)"
   x1="28.244684"
   y1="60.445503"
   x2="28.244684"
   y2="68.224884" /><linearGradient
   id="linearGradient60167"><stop
     style="stop-color:#729fcf;stop-opacity:1;"
     offset="0"
     id="stop60169" /><stop
     id="stop60171"
     offset="0.31578946"
     style="stop-color:#a5bfda;stop-opacity:1;" /><stop
     style="stop-color:#376ca4;stop-opacity:1;"
     offset="1"
     id="stop60173" /></linearGradient><linearGradient
   inkscape:collect="always"
   xlink:href="#linearGradient9952"
   id="linearGradient1403"
   gradientUnits="userSpaceOnUse"
   gradientTransform="matrix(-0.493304,-0.716654,0.716654,-0.493304,-9.26781,79.4192)"
   x1="55.876038"
   y1="62.401989"
   x2="38.061356"
   y2="62.827091" /><linearGradient
   inkscape:collect="always"
   id="linearGradient9952"><stop
     style="stop-color:#ffffff;stop-opacity:1;"
     offset="0"
     id="stop9954" /><stop
     style="stop-color:#ffffff;stop-opacity:0;"
     offset="1"
     id="stop9956" /></linearGradient><linearGradient
   y2="62.827091"
   x2="38.061356"
   y1="62.401989"
   x1="55.876038"
   gradientTransform="matrix(-0.493304,-0.716654,0.716654,-0.493304,-9.26781,79.4192)"
   gradientUnits="userSpaceOnUse"
   id="linearGradient60188"
   xlink:href="#linearGradient9952"
   inkscape:collect="always" /><radialGradient
   id="XMLID_62_"
   cx="761.749"
   cy="-236.4282"
   r="9.2406"
   fx="761.749"
   fy="-236.4282"
   gradientTransform="matrix(0.989744,-0.47224,0.242748,1.925436,-677.2705,824.3881)"
   gradientUnits="userSpaceOnUse"><stop
     offset="0.0056"
     style="stop-color:#E8B96D"
     id="stop4026" /><stop
     offset="0.4607"
     style="stop-color:#C17D10"
     id="stop4028" /><stop
     offset="1"
     style="stop-color:#8F5811"
     id="stop4030" /><a:midPointStop
     offset="0.0056"
     style="stop-color:#E8B96D" /><a:midPointStop
     offset="0.5"
     style="stop-color:#E8B96D" /><a:midPointStop
     offset="0.4607"
     style="stop-color:#C17D10" /><a:midPointStop
     offset="0.5"
     style="stop-color:#C17D10" /><a:midPointStop
     offset="1"
     style="stop-color:#8F5811" /></radialGradient><radialGradient
   gradientTransform="matrix(1.012819,-0.112921,0.219675,1.970323,-28.16365,-207.1691)"
   id="XMLID_61_"
   cx="18.9937"
   cy="115.1455"
   r="14.3037"
   fx="18.9937"
   fy="115.1455"
   gradientUnits="userSpaceOnUse"><stop
     offset="0.0056"
     style="stop-color:#CC8E27"
     id="stop4017" /><stop
     offset="0.3483"
     style="stop-color:#C17D10"
     id="stop4019" /><stop
     offset="1"
     style="stop-color:#8F5811"
     id="stop4021" /><a:midPointStop
     offset="0.0056"
     style="stop-color:#CC8E27" /><a:midPointStop
     offset="0.5"
     style="stop-color:#CC8E27" /><a:midPointStop
     offset="0.3483"
     style="stop-color:#C17D10" /><a:midPointStop
     offset="0.5"
     style="stop-color:#C17D10" /><a:midPointStop
     offset="1"
     style="stop-color:#8F5811" /></radialGradient><radialGradient
   gradientTransform="matrix(1.019094,0,0,1.982531,-1.763571,-210.3706)"
   id="XMLID_60_"
   cx="30.7886"
   cy="111.7266"
   r="14.3037"
   fx="30.7886"
   fy="111.7266"
   gradientUnits="userSpaceOnUse"><stop
     offset="0.0056"
     style="stop-color:#CC8E27"
     id="stop4008" /><stop
     offset="0.3483"
     style="stop-color:#C17D10"
     id="stop4010" /><stop
     offset="1"
     style="stop-color:#8F5811"
     id="stop4012" /><a:midPointStop
     offset="0.0056"
     style="stop-color:#CC8E27" /><a:midPointStop
     offset="0.5"
     style="stop-color:#CC8E27" /><a:midPointStop
     offset="0.3483"
     style="stop-color:#C17D10" /><a:midPointStop
     offset="0.5"
     style="stop-color:#C17D10" /><a:midPointStop
     offset="1"
     style="stop-color:#8F5811" /></radialGradient><linearGradient
   gradientTransform="matrix(1.019094,0,0,1.982531,-1.763571,-210.3706)"
   id="XMLID_59_"
   gradientUnits="userSpaceOnUse"
   x1="12.7998"
   y1="108.7397"
   x2="34.554"
   y2="125.6945"><stop
     offset="0.0056"
     style="stop-color:#C17D10"
     id="stop4001" /><stop
     offset="1"
     style="stop-color:#8F5811"
     id="stop4003" /><a:midPointStop
     offset="0.0056"
     style="stop-color:#C17D10" /><a:midPointStop
     offset="0.5"
     style="stop-color:#C17D10" /><a:midPointStop
     offset="1"
     style="stop-color:#8F5811" /></linearGradient><radialGradient
   gradientTransform="matrix(1.019094,0,0,1.982531,-1.763571,-210.3706)"
   id="XMLID_58_"
   cx="14.9785"
   cy="105.103"
   r="30.2828"
   fx="14.9785"
   fy="105.103"
   gradientUnits="userSpaceOnUse"><stop
     offset="0.0056"
     style="stop-color:#E8B96D"
     id="stop3992" /><stop
     offset="0.4607"
     style="stop-color:#C17D10"
     id="stop3994" /><stop
     offset="1"
     style="stop-color:#8F5811"
     id="stop3996" /><a:midPointStop
     offset="0.0056"
     style="stop-color:#E8B96D" /><a:midPointStop
     offset="0.5"
     style="stop-color:#E8B96D" /><a:midPointStop
     offset="0.4607"
     style="stop-color:#C17D10" /><a:midPointStop
     offset="0.5"
     style="stop-color:#C17D10" /><a:midPointStop
     offset="1"
     style="stop-color:#8F5811" /></radialGradient></defs><sodipodi:namedview
     inkscape:window-height="1538"
     inkscape:window-width="2560"
     inkscape:pageshadow="2"
     inkscape:pageopacity="0.0"
     guidetolerance="10.0"
     gridtolerance="10.0"
     objecttolerance="10.0"
     borderopacity="1.0"
     bordercolor="#666666"
     pagecolor="#ffffff"
     id="base"
     showgrid="false"
     inkscape:zoom="18.666667"
     inkscape:cx="34.378962"
     inkscape:cy="13.781674"
     inkscape:window-x="-8"
     inkscape:window-y="-8"
     inkscape:current-layer="Layer_1"
     inkscape:window-maximized="1" /><g
     inkscape:label="Layer 1"
     id="layer1"
     transform="matrix(16.5,0,0,16.5,-95.892967,-0.16859392)"><path
       i:knockout="Off"
       d="m 39.783876,30.972908 c 1.165843,-0.993249 3.915359,-3.69742 6.571118,-9.62915 -1.015018,0.50158 -4.776494,1.859612 -6.954298,2.466267 2.200224,-2.654608 2.332706,-3.616134 3.039958,-6.135931 -2.824929,3.312808 -4.974198,3.22756 -6.583348,3.467447 1.404312,-1.73868 4.332169,-5.416274 5.44502,-9.387282 -2.908495,3.249366 -6.600672,5.035628 -8.344342,5.919835 0.38216,-0.55709 2.838177,-5.559015 3.793068,-8.998704 -4.110006,4.882972 -5.30948,5.872255 -6.74946,6.165668 0.861135,-1.48888 3.098046,-5.3290413 3.95918,-8.1838844 -2.974735,2.0796734 -4.824391,4.2545104 -6.349974,4.8155664 1.277944,-1.8477185 2.516143,-4.3338119 3.71154,-8.3444701 -2.96964,3.4496025 -3.83587,4.3258813 -6.185901,6.0982635 1.74367,-2.2144861 1.426732,-3.8778302 2.438692,-7.488017 -3.490397,4.2802835 -3.8909,5.5590142 -5.227952,7.0459117 1.027247,-1.6514485 2.05857,-4.3377754 2.597671,-7.1034065 -1.716154,2.6684871 -3.177535,4.4428512 -6.149213,8.0550228 1.177053,-2.0975191 3.235623,-5.6284046 3.480206,-8.82226061 -1.910802,3.62406571 -4.632802,6.72672491 -6.617997,10.01574321 0.583941,-0.9298087 0.908013,-2.7656299 1.12508,-4.5855932 -1.589787,2.823123 -2.594613,5.5173822 -4.822353,8.3028372 0.423943,-1.13599 1.201512,-3.764825 1.581634,-6.2647962 C 11.665034,11.787961 10.152698,14.531785 7.8169349,17.319221 8.9552629,14.51394 9.2640484,12.261785 9.3639196,10.885911 7.058729,15.69553 4.3866645,18.790259 1.0735899,22.451993 L 19.737277,47.213796 39.783876,30.972908 z"
       id="path3989"
       style="fill:none;stroke:#72470e;stroke-width:1.19999969;stroke-linecap:square"
       inkscape:connector-curvature="0" /><path
       i:knockout="Off"
       d="m 39.783865,30.972968 c 1.165843,-0.993248 3.915358,-3.697423 6.571116,-9.629157 -1.015017,0.50158 -4.776492,1.859614 -6.954295,2.466269 2.200223,-2.65461 2.332705,-3.616138 3.039956,-6.135935 -2.824928,3.312808 -4.974196,3.227562 -6.583345,3.467447 1.404311,-1.73868 4.332167,-5.416276 5.445018,-9.387288 -2.908494,3.249368 -6.600671,5.03563 -8.34434,5.919841 0.38216,-0.557094 2.838176,-5.55902 3.793067,-8.9987151 -4.110005,4.8829771 -5.309478,5.8722611 -6.749458,6.1656751 0.861134,-1.48888 3.098045,-5.3290452 3.959179,-8.1838919 -2.974734,2.0796768 -4.824389,4.2545139 -6.349973,4.8155699 1.277944,-1.8477184 2.516143,-4.3338138 3.71154,-8.3444743 -2.969639,3.4496046 -3.835869,4.3258822 -6.185899,6.0982662 1.743669,-2.214488 1.426731,-3.8778325 2.438691,-7.488023 -3.490396,4.2802874 -3.8909,5.5590198 -5.227951,7.0459191 1.027247,-1.6514489 2.05857,-4.3377793 2.59767,-7.1034109 C 23.228687,4.3495477 21.767307,6.1239122 18.79563,9.7360875 19.972683,7.638568 22.031252,4.1076788 22.275835,0.91381916 20.365034,4.5378886 17.643035,7.6405498 15.65784,10.92957 c 0.583941,-0.9298071 0.908012,-2.765633 1.125079,-4.5855967 -1.589786,2.8231264 -2.594612,5.5173877 -4.822351,8.3028437 0.423943,-1.135991 1.201511,-3.764828 1.581633,-6.2647994 -1.87717,3.4059884 -3.389505,6.1498144 -5.7252682,8.9372534 1.1383277,-2.805284 1.4471131,-5.057439 1.5469843,-6.433317 -2.30519,4.809623 -4.9772537,7.904356 -8.2903275,11.566092 l 18.6636824,24.761822 20.046593,-16.2409 z"
       id="path3998"
       style="fill:url(#XMLID_58_)"
       inkscape:connector-curvature="0" /><path
       i:knockout="Off"
       d="m 44.246476,24.323555 c -3.363009,3.255318 -6.467169,4.658951 -8.259754,5.158548 0.136558,-0.164548 0.276174,-0.331081 0.421904,-0.499597 -0.525852,0.212132 -1.013998,0.386594 -1.417559,0.499597 1.694753,-2.04399 4.112043,-4.49638 5.55508,-7.156939 -1.58571,1.038847 -3.349761,0.640357 -5.400178,2.113379 0.194647,-0.239887 0.408657,-0.533301 0.635915,-0.858438 -0.524833,0.190324 -1.065972,0.454001 -1.631569,0.858438 1.225969,-1.516638 3.142885,-4.767989 5.223874,-9.193002 -2.130925,1.91711 -5.098526,3.949204 -6.363221,4.591546 0.08459,-0.122917 0.252735,-0.440122 0.464707,-0.86835 -0.585979,0.37668 -1.095526,0.683973 -1.460362,0.86835 0.328149,-0.477791 1.758956,-3.487274 3.118427,-7.119272 -3.006326,3.340565 -4.855981,4.791779 -6.088066,5.04356 0.07949,-0.136793 0.189552,-0.34496 0.310824,-0.580882 -0.500375,0.31324 -0.932471,0.503564 -1.305459,0.580882 0.707251,-1.221239 3.235622,-6.631568 4.612418,-10.1446149 -1.740612,1.7446276 -4.345416,3.9135179 -5.676352,3.9135179 0.137578,-0.166533 0.260888,-0.311258 0.385217,-0.457965 -0.528909,0.285484 -1.004826,0.457965 -1.379853,0.457965 1.263677,-1.522585 1.919973,-2.1550143 3.111294,-4.8235005 -1.670295,1.8001391 -3.435365,3.1304177 -5.091393,4.3774295 0.48407,-0.612602 0.870306,-1.1597801 1.208646,-1.7029933 -0.743939,0.6026899 -1.48482,1.1617623 -2.202262,1.7029933 1.391063,-1.7684185 2.019844,-2.9916409 2.866711,-5.2695694 -2.380603,2.6605573 -3.743132,3.6002782 -4.845791,4.8254844 0.22522,-0.525372 0.468783,-0.9952314 0.785721,-1.7168746 -0.700117,0.6423405 -1.267752,1.1478866 -1.781376,1.7168746 0.345473,-0.8049087 0.73171,-1.4650933 1.376796,-3.1720522 -1.052724,1.5642172 -2.363278,3.3544422 -3.818544,5.1248432 0.287384,-0.640357 0.58496,-1.441299 0.946738,-2.482129 -0.610437,0.816804 -1.257562,1.651449 -1.941374,2.482129 0.438211,-0.975405 0.900879,-2.327491 1.580615,-4.3496733 -1.151576,1.9210733 -2.517162,4.0304863 -3.999943,6.2192033 0.455535,-0.723625 0.884573,-2.145101 1.722268,-4.147458 -0.840752,1.332263 -1.750803,2.720035 -2.717923,4.147458 0.09376,-0.148691 0.187513,-0.337031 0.28127,-0.539248 -0.83158,1.280714 -1.70902,2.555483 -2.499837,3.544765 0.218086,-0.584846 0.689927,-1.74661 1.191321,-3.070941 -0.736805,1.116165 -1.493992,2.202592 -2.1869754,3.070941 C 10.143524,17.025856 10.453328,16.256633 10.810011,15.334756 9.7053135,17.134896 8.4436755,19.02623 7.3899326,20.28712 7.9555296,18.893401 8.4457137,17.896188 8.9725851,16.674947 8.1002409,18.030999 7.188152,19.33947 6.3952971,20.28712 7.1382164,18.457244 7.753749,17.301427 8.4885156,15.429919 6.1619246,18.863664 4.3591478,20.877915 1.9184183,23.574158 L 19.543644,46.958123 35.345712,34.158897 c 2.016786,-1.457163 6.258254,-5.057439 8.900764,-9.835342 z"
       id="path4005"
       style="fill:url(#XMLID_59_)"
       inkscape:connector-curvature="0" /><path
       i:knockout="Off"
       a:adobe-blending-mode="lighten"
       d="m 26.112723,34.343272 c 2.925818,-3.532872 7.490338,-7.973742 8.677583,-12.76354 -2.758687,5.616512 -5.882209,3.283074 -9.788396,6.090336 1.869018,-2.313614 4.946681,-7.656538 8.176189,-14.922516 -2.018824,2.942077 -8.679621,7.652572 -11.001116,8.83218 0.508527,-0.741467 3.029765,-6.082409 5.045533,-11.9744935 -5.348204,6.2846265 -8.375932,8.8341625 -10.292847,9.2306705"
       id="path4014"
       style="fill:url(#XMLID_60_)"
       inkscape:connector-curvature="0" /><path
       i:knockout="Off"
       a:adobe-blending-mode="lighten"
       d="m 15.46253,41.017376 c 2.51634,-3.835312 6.56068,-8.754612 7.209877,-13.646467 -2.119359,5.887605 -5.482205,3.914636 -9.053276,7.137443 1.601147,-2.506466 4.067833,-8.157511 6.472343,-15.736593 -1.680395,3.147658 -7.778225,8.567198 -9.954719,9.996776 0.423238,-0.79325 2.337145,-6.380667 3.687623,-12.459829 -4.6188984,6.838538 -7.3454788,9.707863 -9.206655,10.314331"
       id="path4023"
       style="fill:url(#XMLID_61_)"
       inkscape:connector-curvature="0" /><path
       i:knockout="Off"
       a:adobe-blending-mode="lighten"
       d="m 19.661859,22.913976 c 1.456285,-2.892515 3.804277,-6.774311 4.146693,-9.916625 -1.20355,4.070137 -3.208107,3.576487 -5.292154,6.314364 0.923299,-1.881424 2.336782,-5.878207 3.692176,-11.0427022 -0.967119,2.2918072 -4.525795,6.9210182 -5.800681,8.2631932 0.244582,-0.5789 1.328898,-4.419064 2.075894,-8.4396399 -2.674102,5.1843229 -4.26185,7.5276749 -5.356357,8.2968969"
       id="path4032"
       style="fill:url(#XMLID_62_)"
       inkscape:connector-curvature="0" /><path
       i:knockout="Off"
       d="M 12.248975,7.1627194 C 11.580449,8.9826826 10.378937,11.84149 8.8411244,13.792299"
       id="path4034"
       style="fill:none;stroke:#72470e;stroke-width:0.69999981;stroke-linecap:square"
       inkscape:connector-curvature="0" /><path
       i:knockout="Off"
       d="m 45.790416,17.56109 c -1.13629,1.560253 -3.541352,7.277869 -4.677642,7.539564"
       id="path4036"
       style="fill:none;stroke:#72470e;stroke-width:0.69999981;stroke-linecap:square"
       inkscape:connector-curvature="0" /><path
       i:knockout="Off"
       d="m 41.379777,14.961994 c -1.336032,2.989656 -3.942875,7.670408 -4.343379,7.670408"
       id="path4038"
       style="fill:none;stroke:#72470e;stroke-width:0.69999981;stroke-linecap:square"
       inkscape:connector-curvature="0" /><path
       i:knockout="Off"
       d="m 39.709482,10.67378 c -1.402274,1.558269 -3.27333,3.639925 -4.676623,4.809618"
       id="path4040"
       style="fill:none;stroke:#72470e;stroke-width:0.69999981;stroke-linecap:square"
       inkscape:connector-curvature="0" /><path
       i:knockout="Off"
       d="M 32.293535,5.3427561 C 31.023744,7.553277 28.48518,11.579796 27.816655,12.362896"
       id="path4042"
       style="fill:none;stroke:#72470e;stroke-width:0.69999981;stroke-linecap:square"
       inkscape:connector-curvature="0" /><path
       i:knockout="Off"
       d="m 33.96383,11.84149 c -1.06903,1.431387 -3.073588,5.200178 -3.541352,5.459889"
       id="path4044"
       style="fill:none;stroke:#804f10;stroke-width:0.69999981;stroke-linecap:square"
       inkscape:connector-curvature="0" /><path
       i:knockout="Off"
       d="m 19.999185,1.5739654 c -0.401523,1.2985581 -1.20355,6.1101591 -1.804816,7.1490041"
       id="path4046"
       style="fill:none;stroke:#72470e;stroke-width:0.69999981;stroke-linecap:square"
       inkscape:connector-curvature="0" /><path
       i:knockout="Off"
       d="m 28.017416,3.782503 c -0.869287,2.6030648 -2.405062,7.541547 -3.140847,8.320681"
       id="path4048"
       style="fill:none;stroke:#72470e;stroke-width:0.69999981;stroke-linecap:square"
       inkscape:connector-curvature="0" /><path
       i:knockout="Off"
       d="M 36.086603,17.440157 C 35.0991,19.535692 32.228313,23.37387 31.959272,23.37387"
       id="path4050"
       style="fill:none;stroke:#804f10;stroke-width:0.69999981;stroke-linecap:square"
       inkscape:connector-curvature="0" /><path
       i:knockout="Off"
       d="m 39.764513,21.103872 c -0.807123,1.046776 -3.409889,6.809991 -3.76861,7.156935"
       id="path4052"
       style="fill:none;stroke:#72470e;stroke-width:0.69999981;stroke-linecap:square"
       inkscape:connector-curvature="0" /><path
       i:knockout="Off"
       d="m 34.212007,23.35 c -1.241256,2.147079 -5.103623,8.318697 -5.103623,8.318697"
       id="path4054"
       style="fill:none;stroke:#804f10;stroke-width:0.69999981;stroke-linecap:square"
       inkscape:connector-curvature="0" /></g><path
     sodipodi:nodetypes="csc"
     inkscape:connector-curvature="0"
     id="path60761"
     d="m 189.41185,633.3469 c 3.9078,-71.20375 132.89352,-13.92916 163.5126,-73.01856 14.17065,-27.34699 -24.35452,-144.73947 31.6384,-193.72402"
     style="fill:none;stroke:#eeeeec;stroke-width:42.46365355999999700;stroke-linecap:round;stroke-linejoin:miter;stroke-miterlimit:4;stroke-opacity:1;stroke-dasharray:none" /><path
     style="fill:none;stroke:#ef2929;stroke-width:14.15455150999999900;stroke-linecap:round;stroke-linejoin:miter;stroke-miterlimit:4;stroke-opacity:1;stroke-dasharray:none"
     d="m 189.41185,633.3469 c 3.9078,-71.20375 132.89352,-13.92916 163.5126,-73.01856 14.17065,-27.34699 -24.35452,-144.73947 31.6384,-193.72402"
     id="path59582"
     inkscape:connector-curvature="0"
     sodipodi:nodetypes="csc" /><g
     id="g1387"
     transform="matrix(-10.513317,-1.070773,-1.070773,10.513317,747.14311,-8.1169289)"><path
       inkscape:r_cy="true"
       inkscape:r_cx="true"
       sodipodi:nodetypes="cszsc"
       id="path9903"
       d="m 23.876644,29.502754 c 0.882411,-0.607402 3.380814,1.584711 5.631979,4.855122 2.251165,3.270411 2.718833,6.860367 2.524417,6.994192 -0.216678,0.149149 -3.380814,-1.584711 -5.63198,-4.855122 -2.251165,-3.270411 -3.406828,-6.38679 -2.524416,-6.994192 z"
       style="color:#000000;fill:#e7e7e7;fill-opacity:1;fill-rule:evenodd;stroke:#7d7d7d;stroke-width:0.90848058;stroke-linecap:butt;stroke-linejoin:miter;stroke-miterlimit:4;stroke-opacity:1;stroke-dashoffset:0;marker:none;visibility:visible;display:inline;overflow:visible"
       inkscape:connector-curvature="0" /><g
       inkscape:r_cy="true"
       inkscape:r_cx="true"
       transform="matrix(0.796014,0.08258057,-0.08258057,0.796014,1.530712,-0.729968)"
       id="g9975"><path
         sodipodi:type="arc"
         style="color:#000000;fill:none;stroke:#3465a4;stroke-width:1.13878334;stroke-linecap:butt;stroke-linejoin:miter;stroke-miterlimit:4;stroke-opacity:1;stroke-dasharray:none;stroke-dashoffset:0;marker:none;visibility:visible;display:inline;overflow:visible"
         id="path9905"
         sodipodi:cx="40.1875"
         sodipodi:cy="62"
         sodipodi:rx="13.0625"
         sodipodi:ry="5.5"
         d="m 32.085889,57.685642 c 5.659041,-1.883956 13.873815,-1.479601 18.348211,0.903153 1.228632,0.654285 2.087743,1.41766 2.512332,2.232366"
         inkscape:r_cx="true"
         inkscape:r_cy="true"
         sodipodi:start="4.0433671"
         sodipodi:end="6.067175"
         sodipodi:open="true"
         transform="matrix(-0.56251,-0.817194,0.825069,-0.567931,-15.22056,83.88674)" /><path
         sodipodi:type="arc"
         style="color:#000000;fill:#729fcf;fill-opacity:1;fill-rule:evenodd;stroke:#3465a4;stroke-width:1.13878334;stroke-linecap:butt;stroke-linejoin:miter;stroke-miterlimit:4;stroke-opacity:1;stroke-dasharray:none;stroke-dashoffset:0;marker:none;visibility:visible;display:inline;overflow:visible"
         id="path9907"
         sodipodi:cx="33.5"
         sodipodi:cy="54.9375"
         sodipodi:rx="3"
         sodipodi:ry="1.5625"
         d="m 36.364517,54.473244 c 0.492291,0.823974 -0.391117,1.699791 -1.973146,1.956192 -1.515586,0.245633 -3.136253,-0.166118 -3.69754,-0.939407 L 33.5,54.9375 z"
         inkscape:r_cx="true"
         inkscape:r_cy="true"
         sodipodi:start="5.9815064"
         sodipodi:end="9.0633414"
         transform="matrix(-0.56251,-0.817194,0.825069,-0.567931,-14.28556,81.45324)" /></g><path
       inkscape:r_cy="true"
       inkscape:r_cx="true"
       id="path9898"
       d="m 18.309496,27.045877 c 2.941809,4.15471 5.832829,7.753007 8.218557,10.338669 l 3.867514,-2.662178 C 28.634238,31.171969 25.891142,26.577557 22.565009,21.745473 16.561094,13.023205 10.607438,6.3782909 8.2525006,5.5900119 8.1802296,5.5671084 8.0833128,5.5369591 8.0181135,5.5255274 c -0.045838,-0.00698 -0.1137481,-0.00461 -0.1558694,-0.00562 -0.06619,3.061e-4 -0.151055,0.013972 -0.2074364,0.029876 -0.013783,0.00447 -0.05599,0.0045 -0.069145,0.00996 -0.012839,0.00596 -0.039363,0.02854 -0.051567,0.035496 -0.00594,0.00373 -0.020001,0.013768 -0.025783,0.017748 -0.00578,0.00398 -0.02018,0.013528 -0.025783,0.017748 -0.010855,0.00892 -0.041419,0.025629 -0.051567,0.035496 -0.0098,0.010339 -0.024893,0.049754 -0.033989,0.061033 C 7.3619897,5.7742514 7.3189247,5.8486447 7.2950084,5.9103632 7.2809164,5.9500702 7.2544534,6.012658 7.2446094,6.0579675 7.2320109,6.122947 7.225572,6.2242406 7.2211638,6.2999257 7.1167301,8.7810968 11.19814,16.714759 17.202055,25.437027 c 0.373577,0.542719 0.735225,1.083169 1.107441,1.60885 z"
       style="color:#000000;fill:url(#linearGradient1397);fill-opacity:1;fill-rule:evenodd;stroke:#3465a4;stroke-width:0.9084807;stroke-linecap:butt;stroke-linejoin:miter;stroke-miterlimit:4;stroke-opacity:1;stroke-dasharray:none;stroke-dashoffset:0;marker:none;visibility:visible;display:inline;overflow:visible"
       inkscape:connector-curvature="0" /><path
       inkscape:r_cy="true"
       inkscape:r_cx="true"
       id="path9893"
       d="m 13.743778,20.854607 c 0.747047,1.047569 1.520954,2.05411 2.255907,3.001276 l 5.414521,-3.727049 C 20.528967,18.671321 19.545881,17.138574 18.484475,15.596602 13.418672,8.2371884 8.1915815,2.7719285 5.9415208,2.2879093 c -0.019766,-0.00391 -0.06743,-0.012463 -0.086724,-0.015579 -0.019057,-0.00272 -0.068146,-0.013658 -0.086724,-0.015579 -0.045845,-0.0038 -0.1130765,-0.00687 -0.1558693,-0.00562 -0.016871,9.059e-4 -0.052774,0.00824 -0.069145,0.00996 -0.048364,0.0064 -0.1202907,0.023809 -0.1640743,0.037665 -0.014337,0.00504 -0.055329,0.00408 -0.069145,0.00996 -0.020332,0.00944 -0.058205,0.041893 -0.07735,0.053243 -0.00625,0.004 -0.019669,0.013539 -0.025784,0.017748 -0.00612,0.00421 -0.01982,0.013338 -0.025783,0.017748 -0.017438,0.013832 -0.061268,0.037624 -0.077351,0.053244 -0.010421,0.010808 -0.024165,0.049439 -0.033988,0.061033 -0.028574,0.035951 -0.070515,0.096923 -0.093761,0.1398139 -0.00745,0.014677 -0.027119,0.045598 -0.033988,0.061033 -0.016441,0.039528 -0.037583,0.1034227 -0.050398,0.1476038 -0.00484,0.018039 -0.012147,0.067799 -0.01641,0.08657 -0.00398,0.019135 -0.013004,0.066711 -0.01641,0.08657 -0.3511977,2.274578 2.8877007,9.108397 7.9535048,16.467811 0.315205,0.457918 0.616093,0.910969 0.931657,1.353477 z"
       style="color:#000000;fill:url(#linearGradient1399);fill-opacity:1;fill-rule:evenodd;stroke:#3465a4;stroke-width:0.9084807;stroke-linecap:butt;stroke-linejoin:miter;stroke-miterlimit:4;stroke-opacity:1;stroke-dasharray:none;stroke-dashoffset:0;marker:none;visibility:visible;display:inline;overflow:visible"
       inkscape:connector-curvature="0" /><path
       inkscape:r_cy="true"
       inkscape:r_cx="true"
       id="path9888"
       d="M 6.2003444,8.0188112 10.016292,5.3921292 C 7.9914232,3.1273553 6.1637351,1.7285397 5.1772693,1.7848891 c -0.00629,4.84e-4 -0.030289,0.00155 -0.036514,0.00216 -0.00615,7.266e-4 -0.03043,0.00131 -0.036513,0.00216 -0.00601,9.697e-4 -0.030573,0.00107 -0.036514,0.00216 -0.035208,0.00728 -0.092018,0.028084 -0.1245939,0.039815 -0.00535,0.00208 -0.020503,0.015543 -0.025783,0.017748 -0.00521,0.00233 -0.031384,-2.948e-4 -0.036512,0.00216 -0.00505,0.00258 -0.020806,0.015041 -0.025784,0.017748 -0.0049,0.00283 -0.020959,0.014787 -0.025783,0.017748 -0.00475,0.00309 -0.021114,0.014534 -0.025784,0.017748 -0.00467,0.00321 -0.021205,0.014415 -0.025783,0.017748 -0.00449,0.00345 -0.021387,0.014181 -0.025784,0.017748 -0.00431,0.00368 -0.021568,0.013949 -0.025783,0.017748 -0.00413,0.00391 -0.01102,0.029305 -0.015054,0.033335 -0.00394,0.00415 -0.021929,0.013488 -0.025783,0.017748 -0.022588,0.026241 -0.0623,0.071881 -0.081674,0.1021685 -0.00314,0.00516 -0.012001,0.028067 -0.015053,0.033336 -0.00296,0.00538 -0.012178,0.027848 -0.015054,0.033336 -0.00279,0.0056 -0.012354,0.027628 -0.015053,0.033335 -0.4048248,0.9013361 0.2492807,3.1079795 1.6418771,5.8079738 z"
       style="color:#000000;fill:url(#linearGradient1401);fill-opacity:1;fill-rule:evenodd;stroke:#3465a4;stroke-width:0.9084807;stroke-linecap:butt;stroke-linejoin:miter;stroke-miterlimit:4;stroke-opacity:1;stroke-dasharray:none;stroke-dashoffset:0;marker:none;visibility:visible;display:inline;overflow:visible"
       inkscape:connector-curvature="0" /><path
       sodipodi:nodetypes="cccszsc"
       id="path9930"
       d="m 15.417724,21.244088 c 0.188826,0.267315 0.378133,0.516373 0.56571,0.778152 l 3.749593,-2.584028 C 19.219874,18.65987 18.496328,17.390277 17.956782,16.581053 11.744978,7.2644337 5.6568524,2.6091151 5.4030398,2.7829476 5.1238436,2.9741649 7.567532,10.260041 13.900362,19.06121 c 0.37182,0.516743 1.159586,1.676387 1.517362,2.182878 z"
       style="opacity:0.35714285;color:#000000;fill:none;stroke:url(#linearGradient60188);stroke-width:0.908481;stroke-linecap:round;stroke-linejoin:round;stroke-miterlimit:4;stroke-opacity:1;stroke-dasharray:none;stroke-dashoffset:0;marker:none;visibility:visible;display:inline;overflow:visible"
       inkscape:r_cx="true"
       inkscape:r_cy="true"
       inkscape:connector-curvature="0" /></g></svg>