<?xml version="1.0" encoding="UTF-8" standalone="no"?>
<!-- Created with Inkscape (http://www.inkscape.org/) -->

<svg
   xmlns:dc="http://purl.org/dc/elements/1.1/"
   xmlns:cc="http://creativecommons.org/ns#"
   xmlns:rdf="http://www.w3.org/1999/02/22-rdf-syntax-ns#"
   xmlns:svg="http://www.w3.org/2000/svg"
   xmlns="http://www.w3.org/2000/svg"
   xmlns:xlink="http://www.w3.org/1999/xlink"
   xmlns:sodipodi="http://sodipodi.sourceforge.net/DTD/sodipodi-0.dtd"
   xmlns:inkscape="http://www.inkscape.org/namespaces/inkscape"
   width="48px"
   height="48px"
   id="svg6978"
   version="1.1"
   inkscape:version="0.48.5 r10040"
   sodipodi:docname="edgefracture.svg">
  <defs
     id="defs6980">
    <linearGradient
       id="linearGradient7646">
      <stop
         style="stop-color:#ff7019;stop-opacity:1;"
         offset="0"
         id="stop7648" />
      <stop
         style="stop-color:#ef2929;stop-opacity:1;"
         offset="1"
         id="stop7650" />
    </linearGradient>
    <linearGradient
       id="linearGradient7630">
      <stop
         style="stop-color:#68757a;stop-opacity:1;"
         offset="0"
         id="stop7632" />
      <stop
         style="stop-color:#2e3436;stop-opacity:1;"
         offset="1"
         id="stop7634" />
    </linearGradient>
    <linearGradient
       id="linearGradient7620">
      <stop
         style="stop-color:#ef2929;stop-opacity:1;"
         offset="0"
         id="stop7622" />
      <stop
         style="stop-color:#ef2929;stop-opacity:0.54054052;"
         offset="1"
         id="stop7624" />
    </linearGradient>
    <linearGradient
       id="linearGradient7608">
      <stop
         style="stop-color:#92a7c2;stop-opacity:1;"
         offset="0"
         id="stop7610" />
      <stop
         style="stop-color:#515c6b;stop-opacity:1;"
         offset="1"
         id="stop7614" />
    </linearGradient>
    <linearGradient
       id="linearGradient7592">
      <stop
         id="stop7594"
         offset="0"
         style="stop-color:#c0d3eb;stop-opacity:1;" />
      <stop
         style="stop-color:#81a6d7;stop-opacity:1;"
         offset="0.60842735"
         id="stop7596" />
      <stop
         id="stop7598"
         offset="1"
         style="stop-color:#2d588f;stop-opacity:1;" />
    </linearGradient>
    <linearGradient
       id="linearGradient7584">
      <stop
         id="stop7586"
         offset="0"
         style="stop-color:#c0d3eb;stop-opacity:1;" />
      <stop
         style="stop-color:#81a6d7;stop-opacity:1;"
         offset="0.77175975"
         id="stop7588" />
      <stop
         id="stop7590"
         offset="1"
         style="stop-color:#6c98d1;stop-opacity:1;" />
    </linearGradient>
    <linearGradient
       id="linearGradient7572">
      <stop
         style="stop-color:#eef1f5;stop-opacity:1;"
         offset="0"
         id="stop7574" />
      <stop
         id="stop7582"
         offset="0.74201781"
         style="stop-color:#9faab9;stop-opacity:1;" />
      <stop
         style="stop-color:#585d64;stop-opacity:1;"
         offset="1"
         id="stop7576" />
    </linearGradient>
    <radialGradient
       inkscape:collect="always"
       xlink:href="#linearGradient7572"
       id="radialGradient7578"
       cx="14.952963"
       cy="21.274212"
       fx="14.952963"
       fy="21.274212"
       r="12.464286"
       gradientTransform="matrix(1.6164508,0.03692676,-0.04051313,1.7738935,-9.9719269,-16.01331)"
       gradientUnits="userSpaceOnUse" />
    <radialGradient
       inkscape:collect="always"
       xlink:href="#linearGradient7572"
       id="radialGradient7580"
       cx="23.071428"
       cy="15.125794"
       fx="23.071428"
       fy="15.125794"
       r="13.321428"
       gradientTransform="matrix(1.3418738,-0.00575987,0.00569805,1.3278101,-7.8675789,-6.1672843)"
       gradientUnits="userSpaceOnUse" />
    <radialGradient
       inkscape:collect="always"
       xlink:href="#linearGradient7608"
       id="radialGradient7606"
       cx="26.857141"
       cy="31.214285"
       fx="26.857141"
       fy="31.214285"
       r="12"
       gradientTransform="matrix(1.5621455,-0.05473079,0.0509464,1.4545,-17.304101,-12.791083)"
       gradientUnits="userSpaceOnUse" />
    <linearGradient
       inkscape:collect="always"
       xlink:href="#linearGradient7620"
       id="linearGradient7626"
       x1="23.309757"
       y1="25.440464"
       x2="26.843821"
       y2="21.154751"
       gradientUnits="userSpaceOnUse"
       gradientTransform="matrix(1.2421707,-0.21468488,-0.24107701,1.3519657,-0.23941031,-3.6876629)" />
    <linearGradient
       inkscape:collect="always"
       xlink:href="#linearGradient7630"
       id="linearGradient7636"
       x1="19.814505"
       y1="8.5521011"
       x2="39.638832"
       y2="27.542969"
       gradientUnits="userSpaceOnUse"
       gradientTransform="matrix(1.0626827,0,0,1.0628179,-1.3400546,-2.4619223)" />
    <linearGradient
       inkscape:collect="always"
       xlink:href="#linearGradient7630"
       id="linearGradient7644"
       x1="9.8835754"
       y1="19.630001"
       x2="31.276613"
       y2="37.560207"
       gradientUnits="userSpaceOnUse"
       gradientTransform="matrix(1.0626827,0,0,1.0628179,-2.2996995,-0.89618581)" />
    <linearGradient
       inkscape:collect="always"
       xlink:href="#linearGradient7646"
       id="linearGradient7652"
       x1="20.535694"
       y1="27.403824"
       x2="22.617907"
       y2="24.676413"
       gradientUnits="userSpaceOnUse" />
  </defs>
  <sodipodi:namedview
     id="base"
     pagecolor="#ffffff"
     bordercolor="#666666"
     borderopacity="1.0"
     inkscape:pageopacity="0.0"
     inkscape:pageshadow="2"
     inkscape:zoom="19.79899"
     inkscape:cx="18.015403"
     inkscape:cy="20.43725"
     inkscape:current-layer="layer1"
     showgrid="true"
     inkscape:grid-bbox="true"
     inkscape:document-units="px"
     inkscape:window-width="2880"
     inkscape:window-height="1557"
     inkscape:window-x="-8"
     inkscape:window-y="-8"
     inkscape:window-maximized="1" />
  <metadata
     id="metadata6983">
    <rdf:RDF>
      <cc:Work
         rdf:about="">
        <dc:format>image/svg+xml</dc:format>
        <dc:type
           rdf:resource="http://purl.org/dc/dcmitype/StillImage" />
      </cc:Work>
    </rdf:RDF>
  </metadata>
  <g
     id="layer1"
     inkscape:label="Layer 1"
     inkscape:groupmode="layer">
    <path
       style="color:#000000;fill:none;stroke:url(#linearGradient7626);stroke-width:0.5;stroke-linecap:butt;stroke-linejoin:miter;stroke-miterlimit:4;stroke-opacity:1;stroke-dashoffset:2;marker:none;visibility:visible;display:inline;overflow:visible;enable-background:accumulate"
       d="M 1.0154046,4.6283655 C 2.6220222,2.6599285 14.245694,9.717542 26.9776,20.391988 39.709507,31.066431 48.728336,41.315512 47.12172,43.283948"
       id="path7514"
       inkscape:connector-curvature="0" />
    <path
       style="fill:url(#radialGradient7606);fill-opacity:1;stroke:#2e3436;stroke-width:0.5;stroke-linecap:butt;stroke-linejoin:miter;stroke-miterlimit:4;stroke-opacity:1;stroke-dasharray:none"
       d="m 11.097693,15.767279 2.087412,-0.07592 -1.897648,3.112538 5.313413,-0.113874 -0.455434,3.416201 6.869484,-0.113873 0.151812,7.439725 3.491671,-0.03795 3.150095,0.151831 -0.759059,3.492115 2.201271,0.303663 2.087412,0.303662 -1.366305,2.163593 -16.167959,0.303663 -7.4387782,-17.194875 z"
       id="path7570"
       inkscape:connector-curvature="0" />
    <path
       style="fill:url(#radialGradient7580);fill-opacity:1;stroke:none"
       d="m 15.473105,9.5706958 3.453718,-2.4292994 3.71939,-1.4044379 3.795295,-0.6452823 3.567578,0.4934512 3.833248,1.5183113 3.45372,2.6190871 2.391035,3.1125382 1.594025,3.871694 0.417482,4.023525 -0.683153,4.137398 -1.631977,3.643946 -2.542849,3.07458 -1.404259,0.303663 1.9356,-3.150495 -2.277176,0.227746 -2.998284,0.03795 0.721106,-3.833731 -3.947108,0.151831 -4.326635,0 0.03795,-4.289229 0.113863,-4.365146 -4.060966,0.07592 -3.529625,-0.03795 1.02473,-4.023525 -2.42899,0.03795 -1.783788,0.07592 2.391036,-3.1504962 z"
       id="path6997"
       inkscape:connector-curvature="0" />
    <path
       style="fill:url(#radialGradient7578);fill-opacity:1;stroke:none"
       d="m 11.363364,15.691365 -0.569294,-0.07592 -2.4289895,3.340285 -1.5560709,3.681905 -0.3795295,3.985567 0.4554355,4.023525 1.6699303,3.681905 2.2771771,3.07458 3.453719,2.277467 3.947107,1.632186 6.072472,0.07592 3.795296,-1.252606 4.060965,-2.77092 -1.707882,0.645283 1.935601,-2.998665 -2.504895,0.265704 -2.998284,0.113874 0.683154,-3.719863 -3.833249,0.07592 -4.174824,0 0,-4.213314 -0.0759,-4.175357 -3.909153,-0.113874 -3.605532,-0.303663 1.02473,-3.75782 -2.31513,-0.113874 -1.4801647,-0.189788 z"
       id="path6999"
       inkscape:connector-curvature="0" />
    <path
       style="fill:none;stroke:#729fcf;stroke-width:0.5;stroke-linecap:butt;stroke-linejoin:miter;stroke-miterlimit:4;stroke-opacity:1;stroke-dasharray:none"
       d="M 15.81468,12.607316 17.674374,9.4947788 20.217222,7.0654807 22.646211,5.7369584"
       id="path7516"
       inkscape:connector-curvature="0" />
    <path
       style="fill:none;stroke:#729fcf;stroke-width:0.5;stroke-linecap:butt;stroke-linejoin:miter;stroke-miterlimit:4;stroke-opacity:1;stroke-dasharray:none"
       d="M 18.243668,12.72119 19.609975,9.4947788 21.73534,6.9895651 24.126377,5.4332961"
       id="path7518"
       inkscape:connector-curvature="0" />
    <path
       style="fill:none;stroke:#729fcf;stroke-width:0.5;stroke-linecap:butt;stroke-linejoin:miter;stroke-miterlimit:4;stroke-opacity:1;stroke-dasharray:none"
       d="m 20.634704,16.744716 0.569295,-3.94761 0.986777,-3.3782432 1.214494,-2.4672554 1.594023,-1.7081002"
       id="path7520"
       inkscape:connector-curvature="0" />
    <path
       style="fill:none;stroke:#729fcf;stroke-width:0.5;stroke-linecap:butt;stroke-linejoin:miter;stroke-miterlimit:4;stroke-opacity:1;stroke-dasharray:none"
       d="M 24.733623,16.592883 24.885435,12.835064 25.0752,9.3809048 25.530636,6.9895651 25.948118,5.5471694 26.327648,5.0537183"
       id="path7522"
       inkscape:connector-curvature="0" />
    <path
       style="fill:none;stroke:#729fcf;stroke-width:0.5;stroke-linecap:butt;stroke-linejoin:miter;stroke-miterlimit:4;stroke-opacity:1;stroke-dasharray:none"
       d="M 28.908449,25.323173 28.946401,21.109859 28.756636,16.706757 28.642778,12.72119 28.149389,9.3429478 27.580095,6.9895651 26.858989,5.0916761"
       id="path7524"
       inkscape:connector-curvature="0" />
    <path
       style="fill:none;stroke:#729fcf;stroke-width:0.5;stroke-linecap:butt;stroke-linejoin:miter;stroke-miterlimit:4;stroke-opacity:1;stroke-dasharray:none"
       d="M 32.931462,25.2093 33.045321,21.071902 32.703743,16.706757 32.210355,12.797106 30.957907,9.3809048 29.553649,6.9516074 27.693954,5.281465"
       id="path7526"
       inkscape:connector-curvature="0" />
    <path
       style="fill:none;stroke:#729fcf;stroke-width:0.5;stroke-linecap:butt;stroke-linejoin:miter;stroke-miterlimit:4;stroke-opacity:1;stroke-dasharray:none"
       d="m 34.98092,29.194867 1.2904,-4.061482 0.37953,-4.251271 L 36.233368,16.6688 35.094779,12.759148 33.424849,9.4188628 31.261531,7.027523 28.528919,5.3194227"
       id="path7528"
       inkscape:connector-curvature="0" />
    <path
       style="fill:none;stroke:#729fcf;stroke-width:0.5;stroke-linecap:butt;stroke-linejoin:miter;stroke-miterlimit:4;stroke-opacity:1;stroke-dasharray:none"
       d="m 37.485815,28.739374 1.442213,-3.75782 0.379529,-4.09944 -0.417482,-4.289231 -1.40426,-3.833735 -2.087411,-3.3023272 -2.922378,-2.8468335"
       id="path7530"
       inkscape:connector-curvature="0" />
    <path
       style="fill:none;stroke:#729fcf;stroke-width:0.5;stroke-linecap:butt;stroke-linejoin:miter;stroke-miterlimit:4;stroke-opacity:1;stroke-dasharray:none"
       d="m 15.928538,9.5706948 21.215701,-0.03795"
       id="path7532"
       inkscape:connector-curvature="0" />
    <path
       style="fill:none;stroke:#729fcf;stroke-width:0.5;stroke-linecap:butt;stroke-linejoin:miter;stroke-miterlimit:4;stroke-opacity:1;stroke-dasharray:none"
       d="m 17.902092,12.835064 21.784995,-0.03795"
       id="path7534"
       inkscape:connector-curvature="0" />
    <path
       style="fill:none;stroke:#729fcf;stroke-width:0.5;stroke-linecap:butt;stroke-linejoin:miter;stroke-miterlimit:4;stroke-opacity:1;stroke-dasharray:none"
       d="m 24.69567,16.744716 15.826381,-0.151833 0.721108,-0.265704"
       id="path7536"
       inkscape:connector-curvature="0" />
    <path
       style="fill:none;stroke:#729fcf;stroke-width:0.5;stroke-linecap:butt;stroke-linejoin:miter;stroke-miterlimit:4;stroke-opacity:1;stroke-dasharray:none"
       d="m 24.619764,21.147818 12.031086,-0.113873 2.69466,-0.113874 1.745836,-0.265705 0.607247,-0.34162"
       id="path7538"
       inkscape:connector-curvature="0" />
    <path
       style="fill:none;stroke:#729fcf;stroke-width:0.5;stroke-linecap:butt;stroke-linejoin:miter;stroke-miterlimit:4;stroke-opacity:1;stroke-dasharray:none"
       d="m 32.855555,25.285216 3.263954,0 2.732613,-0.303662 2.201271,-0.34162"
       id="path7540"
       inkscape:connector-curvature="0" />
    <path
       style="fill:none;stroke:#729fcf;stroke-width:0.5;stroke-linecap:butt;stroke-linejoin:miter;stroke-miterlimit:4;stroke-opacity:1;stroke-dasharray:none"
       d="M 37.447862,28.815289 39.497321,28.47367"
       id="path7542"
       inkscape:connector-curvature="0" />
    <path
       style="fill:none;stroke:#729fcf;stroke-width:0.5;stroke-linecap:butt;stroke-linejoin:miter;stroke-miterlimit:4;stroke-opacity:1;stroke-dasharray:none"
       d="m 29.96031,35.277579 -1.631976,3.036623 -2.580802,2.695001"
       id="path7544"
       inkscape:connector-curvature="0" />
    <path
       style="fill:none;stroke:#729fcf;stroke-width:0.5;stroke-linecap:butt;stroke-linejoin:miter;stroke-miterlimit:4;stroke-opacity:1;stroke-dasharray:none"
       d="m 26.772262,35.581242 -0.759059,2.846833 -1.480166,2.239509 -1.2904,0.873029"
       id="path7546"
       inkscape:connector-curvature="0" />
    <path
       style="fill:none;stroke:#729fcf;stroke-width:0.5;stroke-linecap:butt;stroke-linejoin:miter;stroke-miterlimit:4;stroke-opacity:1;stroke-dasharray:none"
       d="m 23.584214,31.899337 -0.227718,3.605989 -0.341576,2.960707 -0.531342,2.125636 -0.303624,0.910986"
       id="path7548"
       inkscape:connector-curvature="0" />
    <path
       style="fill:none;stroke:#729fcf;stroke-width:0.5;stroke-linecap:butt;stroke-linejoin:miter;stroke-miterlimit:4;stroke-opacity:1;stroke-dasharray:none"
       d="m 19.485295,31.747506 0.26567,3.75782 0.265671,3.036622 0.569294,1.973805 0.607247,0.910987"
       id="path7550"
       inkscape:connector-curvature="0" />
    <path
       style="fill:none;stroke:#729fcf;stroke-width:0.5;stroke-linecap:butt;stroke-linejoin:miter;stroke-miterlimit:4;stroke-opacity:1;stroke-dasharray:none"
       d="m 15.500235,23.434752 -0.113859,4.023524 0.0759,4.251272 0.759058,3.681905 1.02473,2.998664 1.214494,1.973805 1.252449,1.02486"
       id="path7552"
       inkscape:connector-curvature="0" />
    <path
       style="fill:none;stroke:#729fcf;stroke-width:0.5;stroke-linecap:butt;stroke-linejoin:miter;stroke-miterlimit:4;stroke-opacity:1;stroke-dasharray:none"
       d="m 12.046516,23.017216 -0.303623,4.175356 0.303623,4.213313 1.138589,3.75782 1.556071,3.036623 2.087412,2.58113"
       id="path7554"
       inkscape:connector-curvature="0" />
    <path
       style="fill:none;stroke:#729fcf;stroke-width:0.5;stroke-linecap:butt;stroke-linejoin:miter;stroke-miterlimit:4;stroke-opacity:1;stroke-dasharray:none"
       d="m 10.642256,19.221438 -1.1765398,3.681904 -0.5313413,4.175357 0.3415759,3.985567 1.4422122,3.795777 2.277177,3.909652"
       id="path7556"
       inkscape:connector-curvature="0" />
    <path
       style="fill:none;stroke:#729fcf;stroke-width:0.5;stroke-linecap:butt;stroke-linejoin:miter;stroke-miterlimit:4;stroke-opacity:1;stroke-dasharray:none"
       d="M 11.970609,23.055173 7.5680681,22.713554 6.8849151,22.44785"
       id="path7558"
       inkscape:connector-curvature="0" />
    <path
       style="fill:none;stroke:#729fcf;stroke-width:0.5;stroke-linecap:butt;stroke-linejoin:miter;stroke-miterlimit:4;stroke-opacity:1;stroke-dasharray:none"
       d="M 9.1241391,18.917776 8.3271272,18.803902"
       id="path7560"
       inkscape:connector-curvature="0" />
    <path
       style="fill:none;stroke:#729fcf;stroke-width:0.5;stroke-linecap:butt;stroke-linejoin:miter;stroke-miterlimit:4;stroke-opacity:1;stroke-dasharray:none"
       d="M 19.333483,27.458276 15.386376,27.306445 11.818798,27.116656 8.8964212,27.002783 6.5812914,26.471374"
       id="path7562"
       inkscape:connector-curvature="0" />
    <path
       style="fill:none;stroke:#729fcf;stroke-width:0.5;stroke-linecap:butt;stroke-linejoin:miter;stroke-miterlimit:4;stroke-opacity:1;stroke-dasharray:none"
       d="M 19.485295,31.67159 15.31047,31.595675 11.970609,31.443843 9.1620918,31.064266 6.9228679,30.570815"
       id="path7564"
       inkscape:connector-curvature="0" />
    <path
       style="fill:none;stroke:#729fcf;stroke-width:0.5;stroke-linecap:butt;stroke-linejoin:miter;stroke-miterlimit:4;stroke-opacity:1;stroke-dasharray:none"
       d="m 26.772262,35.391453 -10.512968,0 -3.150095,-0.265705 -2.428989,-0.341619 -2.2012711,-0.759157"
       id="path7566"
       inkscape:connector-curvature="0" />
    <path
       style="fill:none;stroke:#729fcf;stroke-width:0.5;stroke-linecap:butt;stroke-linejoin:miter;stroke-miterlimit:4;stroke-opacity:1;stroke-dasharray:none"
       d="m 30.453699,38.086454 -4.402544,0.417537 -3.074189,0 -2.770565,0 -2.846471,-0.265705 -2.580801,-0.03796 -3.871202,-0.910987"
       id="path7568"
       inkscape:connector-curvature="0" />
    <path
       inkscape:connector-curvature="0"
       id="path7616"
       d="m 15.473104,9.5706948 3.453719,-2.4292985 3.719388,-1.4044379 3.795296,-0.6452823 3.567577,0.4934512 3.833249,1.5183112 3.453718,2.6190873 2.391036,3.1125382 1.594024,3.871693 0.417482,4.023526 -0.683153,4.137397 -1.631977,3.643947 -2.542848,3.07458 -1.404259,0.303664 1.9356,-3.150497 -2.277177,0.227747 -2.998283,0.03795 0.721106,-3.833733 -3.947107,0.151831 -4.326636,0 0.03795,-4.289228 0.113863,-4.365145 -4.060966,0.07592 -3.529623,-0.03795 1.024729,-4.023524 -2.428989,0.03795 -1.783789,0.07592 2.391036,-3.1504972 z"
       style="fill:none;stroke:url(#linearGradient7636);stroke-width:0.5;stroke-linecap:butt;stroke-linejoin:miter;stroke-miterlimit:4;stroke-opacity:1;stroke-dasharray:none" />
    <path
       inkscape:connector-curvature="0"
       id="path7618"
       d="m 11.363364,15.691365 -0.569295,-0.07592 -2.4289892,3.340285 -1.5560707,3.681905 -0.3795295,3.985567 0.4554355,4.023524 1.6699301,3.681905 2.2771768,3.074581 3.453718,2.277466 3.947108,1.632185 6.072471,0.07592 3.795296,-1.252607 4.060965,-2.770919 -1.707881,0.645283 1.9356,-2.998666 -2.504895,0.265705 -2.998284,0.113874 0.683154,-3.719863 -3.833249,0.07592 -4.174824,0 0,-4.213314 -0.0759,-4.175357 -3.909154,-0.113873 -3.605531,-0.303663 1.02473,-3.75782 -2.31513,-0.113873 -1.4801643,-0.189789 z"
       style="fill:none;stroke:url(#linearGradient7644);stroke-width:0.5;stroke-linecap:butt;stroke-linejoin:miter;stroke-miterlimit:4;stroke-opacity:1;stroke-dasharray:none" />
    <path
       style="color:#000000;fill:none;stroke:url(#linearGradient7652);stroke-width:1.49999988000000010;stroke-linecap:butt;stroke-linejoin:miter;stroke-miterlimit:4;stroke-opacity:1;stroke-dasharray:none;stroke-dashoffset:2;marker:none;visibility:visible;display:inline;overflow:visible;enable-background:accumulate"
       d="M 47.12172,43.283948 C 45.515101,45.252386 33.89143,38.194773 21.159524,27.520328 8.4276165,16.845883 -0.59121258,6.5968027 1.0154046,4.6283655"
       id="path7509"
       inkscape:connector-curvature="0" />
  </g>
</svg>
