<?xml version="1.0" encoding="UTF-8" standalone="no"?>
<svg
   xmlns:i="http://ns.adobe.com/AdobeIllustrator/10.0/"
   xmlns:a="http://ns.adobe.com/AdobeSVGViewerExtensions/3.0/"
   xmlns:dc="http://purl.org/dc/elements/1.1/"
   xmlns:cc="http://creativecommons.org/ns#"
   xmlns:rdf="http://www.w3.org/1999/02/22-rdf-syntax-ns#"
   xmlns:svg="http://www.w3.org/2000/svg"
   xmlns="http://www.w3.org/2000/svg"
   xmlns:xlink="http://www.w3.org/1999/xlink"
   xmlns:sodipodi="http://sodipodi.sourceforge.net/DTD/sodipodi-0.dtd"
   xmlns:inkscape="http://www.inkscape.org/namespaces/inkscape"
   version="1.1"
   inkscape:output_extension="org.inkscape.output.svg.inkscape"
   sodipodi:docname="filemerge.svg"
   inkscape:version="1.0beta1 (fe3e306, 2019-09-17)"
   sodipodi:version="0.32"
   id="svg25949"
   height="48px"
   width="48px">
  <defs
     id="defs25951">
    <linearGradient
       id="linearGradient921"
       inkscape:collect="always">
      <stop
         id="stop917"
         offset="0"
         style="stop-color:#ef2929;stop-opacity:1;" />
      <stop
         id="stop919"
         offset="1"
         style="stop-color:#ef2929;stop-opacity:0;" />
    </linearGradient>
    <linearGradient
       id="linearGradient69120"
       inkscape:collect="always">
      <stop
         id="stop69116"
         offset="0"
         style="stop-color:#a40000;stop-opacity:1;" />
      <stop
         id="stop69118"
         offset="1"
         style="stop-color:#a40000;stop-opacity:0;" />
    </linearGradient>
    <linearGradient
       id="linearGradient69057"
       inkscape:collect="always">
      <stop
         id="stop69053"
         offset="0"
         style="stop-color:#ff9898;stop-opacity:1" />
      <stop
         id="stop69055"
         offset="1"
         style="stop-color:#a40000;stop-opacity:1" />
    </linearGradient>
    <linearGradient
       id="XMLID_242_"
       gradientUnits="userSpaceOnUse"
       x1="-1331.5146"
       y1="330.396"
       x2="-1319.4563"
       y2="381.8261"
       gradientTransform="matrix(-0.22833708,-0.98882229,0.98882229,-0.22833708,-632.9975,-1227.6943)">
      <stop
         offset="0"
         style="stop-color:#FFFFFF"
         id="stop23424" />
      <stop
         offset="1"
         style="stop-color:#B8C0CA"
         id="stop23426" />
      <a:midPointStop
         offset="0"
         style="stop-color:#FFFFFF" />
      <a:midPointStop
         offset="0.5"
         style="stop-color:#FFFFFF" />
      <a:midPointStop
         offset="1"
         style="stop-color:#B8C0CA" />
    </linearGradient>
    <linearGradient
       id="XMLID_243_"
       gradientUnits="userSpaceOnUse"
       x1="706.4927"
       y1="1302.4429"
       x2="664.6919"
       y2="1293.8735"
       gradientTransform="matrix(-1.0148422,-1.1867527e-5,1.1867527e-5,-1.0148422,719.32265,1325.72)">
      <stop
         offset="0"
         style="stop-color:#FFFFFF"
         id="stop23431" />
      <stop
         offset="1"
         style="stop-color:#B8C0CA"
         id="stop23433" />
      <a:midPointStop
         offset="0"
         style="stop-color:#FFFFFF" />
      <a:midPointStop
         offset="0.5"
         style="stop-color:#FFFFFF" />
      <a:midPointStop
         offset="1"
         style="stop-color:#B8C0CA" />
    </linearGradient>
    <linearGradient
       id="XMLID_244_"
       gradientUnits="userSpaceOnUse"
       x1="-1344.6299"
       y1="333.4722"
       x2="-1332.5723"
       y2="384.8991"
       gradientTransform="matrix(-0.22833708,-0.98882229,0.98882229,-0.22833708,-632.9975,-1227.6943)">
      <stop
         offset="0"
         style="stop-color:#FFFFFF"
         id="stop23438" />
      <stop
         offset="1"
         style="stop-color:#B8C0CA"
         id="stop23440" />
      <a:midPointStop
         offset="0"
         style="stop-color:#FFFFFF" />
      <a:midPointStop
         offset="0.5"
         style="stop-color:#FFFFFF" />
      <a:midPointStop
         offset="1"
         style="stop-color:#B8C0CA" />
    </linearGradient>
    <radialGradient
       gradientTransform="translate(-2.2352067,-1.0173315)"
       gradientUnits="userSpaceOnUse"
       r="3.4505243"
       fy="5.5494757"
       fx="7.7993021"
       cy="5.5494757"
       cx="7.7993021"
       id="radialGradient69059"
       xlink:href="#linearGradient69057"
       inkscape:collect="always" />
    <radialGradient
       r="3.4505243"
       fy="5.5494757"
       fx="7.7993021"
       cy="5.5494757"
       cx="7.7993021"
       gradientTransform="translate(15.571429,1.8571429)"
       gradientUnits="userSpaceOnUse"
       id="radialGradient69063"
       xlink:href="#linearGradient69057"
       inkscape:collect="always" />
    <radialGradient
       r="3.4505243"
       fy="5.5494757"
       fx="7.7993021"
       cy="5.5494757"
       cx="7.7993021"
       gradientTransform="translate(31.47908,7.404061)"
       gradientUnits="userSpaceOnUse"
       id="radialGradient69067"
       xlink:href="#linearGradient69057"
       inkscape:collect="always" />
    <radialGradient
       r="3.4505243"
       fy="5.5494757"
       fx="7.7993021"
       cy="5.5494757"
       cx="7.7993021"
       gradientTransform="matrix(1.9281521,0,0,1.9281521,6.9441313,15.492038)"
       gradientUnits="userSpaceOnUse"
       id="radialGradient69102"
       xlink:href="#linearGradient69057"
       inkscape:collect="always" />
    <radialGradient
       r="3.4505243"
       fy="5.5494757"
       fx="7.7993021"
       cy="5.5494757"
       cx="7.7993021"
       gradientTransform="matrix(1.5896556,0,0,1.5896556,-7.416084,8.1192691)"
       gradientUnits="userSpaceOnUse"
       id="radialGradient69106"
       xlink:href="#linearGradient69057"
       inkscape:collect="always" />
    <radialGradient
       r="3.4505243"
       fy="5.5494757"
       fx="7.7993021"
       cy="5.5494757"
       cx="7.7993021"
       gradientTransform="matrix(2.066628,0,0,2.066628,22.710901,28.014333)"
       gradientUnits="userSpaceOnUse"
       id="radialGradient69110"
       xlink:href="#linearGradient69057"
       inkscape:collect="always" />
    <linearGradient
       gradientTransform="matrix(1.0511381,0,0,1.0511381,-1.4668658,-7.2308845)"
       gradientUnits="userSpaceOnUse"
       y2="18.41003"
       x2="8.4347744"
       y1="38.835236"
       x1="43.049114"
       id="linearGradient69122"
       xlink:href="#linearGradient69120"
       inkscape:collect="always" />
    <linearGradient
       gradientTransform="matrix(1.0511381,0,0,1.0511381,-1.4668658,-7.2308845)"
       gradientUnits="userSpaceOnUse"
       y2="28.713587"
       x2="6.6164999"
       y1="49.004551"
       x1="33.631485"
       id="linearGradient69124"
       xlink:href="#linearGradient69120"
       inkscape:collect="always" />
    <linearGradient
       gradientTransform="matrix(1.0511381,0,0,1.0511381,-1.4668658,-7.2308845)"
       gradientUnits="userSpaceOnUse"
       y2="24.607943"
       x2="9.4066753"
       y1="48.182724"
       x1="42.868362"
       id="linearGradient923"
       xlink:href="#linearGradient921"
       inkscape:collect="always" />
  </defs>
  <sodipodi:namedview
     inkscape:window-maximized="1"
     inkscape:snap-global="false"
     inkscape:document-rotation="0"
     inkscape:window-y="-8"
     inkscape:window-x="-8"
     inkscape:window-height="1557"
     inkscape:window-width="2880"
     inkscape:document-units="px"
     inkscape:grid-bbox="true"
     showgrid="true"
     inkscape:current-layer="layer1"
     inkscape:cy="23.82113"
     inkscape:cx="24.058594"
     inkscape:zoom="19.784075"
     inkscape:pageshadow="2"
     inkscape:pageopacity="0.0"
     borderopacity="1.0"
     bordercolor="#666666"
     pagecolor="#ffffff"
     id="base" />
  <metadata
     id="metadata25954">
    <rdf:RDF>
      <cc:Work
         rdf:about="">
        <dc:format>image/svg+xml</dc:format>
        <dc:type
           rdf:resource="http://purl.org/dc/dcmitype/StillImage" />
        <dc:title></dc:title>
      </cc:Work>
    </rdf:RDF>
  </metadata>
  <g
     inkscape:groupmode="layer"
     inkscape:label="Layer 1"
     id="layer1">
    <path
       inkscape:connector-curvature="0"
       i:knockout="Off"
       d="m 14.8031,3.5497879 c 0.122573,0.0014 0.221367,0.09924 0.222985,0.222603 l 0.0017,9.1886081 c -0.0026,0.123291 -0.100484,0.222084 -0.223583,0.222721 L 1.5226777,13.183578 c -0.12212,8.99e-4 -0.22163,-0.09826 -0.222793,-0.2194 l 1.9e-5,-9.1912851 c 0.0014,-0.122575 0.09924,-0.221368 0.2194,-0.222793 z"
       id="path23428"
       style="fill:url(#XMLID_242_);stroke-width:1" />
    <path
       inkscape:connector-curvature="0"
       d="M 3.321992,3.1813292 A 3.4505243,3.4505243 0 0 0 2.8278514,4.9606261 3.4505243,3.4505243 0 0 0 6.2790232,8.411798 3.4505243,3.4505243 0 0 0 9.728242,4.9606261 3.4505243,3.4505243 0 0 0 9.2321482,3.1813292 Z"
       style="color:#000000;overflow:visible;fill:url(#radialGradient69059);fill-opacity:1;stroke:#6d0000;stroke-linecap:round;stroke-linejoin:bevel;stroke-opacity:1"
       id="path69051" />
    <path
       inkscape:connector-curvature="0"
       i:knockout="Off"
       d="m 30.605958,3.5509869 c 0.122837,3.44e-4 0.22163,0.09826 0.222004,0.222341 l 5.07e-4,9.1893251 c 1.82e-4,0.120876 -0.09728,0.221893 -0.22136,0.222268 l -13.283486,-6.69e-4 c -0.121856,-7.9e-5 -0.221368,-0.09924 -0.220307,-0.220835 l -0.0016,-9.1927921 c 4.94e-4,-0.119632 0.09939,-0.218163 0.220793,-0.220305 z"
       id="path23435"
       style="fill:url(#XMLID_243_);stroke-width:1" />
    <path
       inkscape:connector-curvature="0"
       i:knockout="Off"
       d="m 45.183033,13.185175 -12.056026,-0.0016 c -0.122837,-3.43e-4 -0.221631,-0.09826 -0.222267,-0.221359 l -7.69e-4,-9.1883461 c 3.43e-4,-0.122879 0.09852,-0.222654 0.221622,-0.223291 l 13.281262,0.0012 c 0.123362,-0.0016 0.222155,0.0963 0.222529,0.220381 l 8.62e-4,4.031664 z"
       id="path23442"
       style="fill:url(#XMLID_244_);stroke-width:1" />
    <path
       inkscape:connector-curvature="0"
       d="m 39.991914,9.9314048 a 3.4505243,3.4505243 0 0 0 -3.449218,3.4511722 3.4505243,3.4505243 0 0 0 0.01367,0.304687 h 6.873047 a 3.4505243,3.4505243 0 0 0 0.01367,-0.304687 3.4505243,3.4505243 0 0 0 -3.451172,-3.4511722 z"
       style="color:#000000;overflow:visible;fill:url(#radialGradient69067);fill-opacity:1;stroke:#6d0000;stroke-linecap:round;stroke-linejoin:bevel;stroke-opacity:1"
       id="circle69065" />
    <path
       d="M 0.77148438 0.14257812 L 0.48632812 1.2070312 L 0.77148438 1.2070312 C 0.84339758 1.2052912 0.90237512 1.265778 0.90039062 1.3398438 L 0.90234375 2.3945312 C 0.90114775 2.4656564 0.8445702 2.5271125 0.77148438 2.5253906 L 0.1328125 2.5273438 L 0.064453125 2.7910156 L 0.064453125 14.146484 L 0.77539062 14.148438 C 0.84730383 14.146736 0.90725421 14.206919 0.90625 14.28125 L 0.90625 15.332031 C 0.90720638 15.406881 0.84945665 15.468781 0.77539062 15.466797 L 0.064453125 15.466797 L 0.064453125 16.597656 L 44.269531 16.595703 L 44.568359 15.476562 L 44.285156 15.476562 C 44.211546 15.476802 44.151603 15.417094 44.152344 15.34375 L 44.152344 14.289062 C 44.154044 14.215974 44.210297 14.154728 44.287109 14.154297 L 44.921875 14.15625 L 45.183594 13.185547 L 33.126953 13.183594 C 33.004116 13.183251 32.904933 13.08599 32.904297 12.962891 L 32.904297 3.7734375 C 32.90464 3.6505585 33.001898 3.5514183 33.125 3.5507812 L 46.40625 3.5527344 C 46.529612 3.5511344 46.628532 3.6474034 46.628906 3.7714844 L 46.630859 7.8046875 L 48.048828 2.5371094 L 47.298828 2.5371094 C 47.225218 2.5373482 47.165729 2.4798689 47.166016 2.4042969 L 47.166016 1.3496094 C 47.165252 1.2779584 47.225222 1.2170357 47.298828 1.2167969 L 48.050781 1.21875 L 48.052734 0.14257812 L 0.77148438 0.14257812 z M 2.046875 1.2050781 L 3.7871094 1.2070312 C 3.8607204 1.2067926 3.9206634 1.2664955 3.9199219 1.3398438 L 3.921875 2.3945312 C 3.9211335 2.4678804 3.861701 2.5254145 3.7871094 2.5253906 L 2.046875 2.5273438 C 1.9735265 2.5266021 1.9137759 2.4661967 1.9140625 2.390625 L 1.9160156 1.3378906 C 1.9147965 1.2640168 1.9747696 1.2036189 2.046875 1.2050781 z M 5.0644531 1.2070312 L 6.8027344 1.2089844 C 6.8768704 1.2067844 6.9386965 1.2667657 6.9375 1.3378906 L 6.9375 2.3964844 C 6.9363 2.4676094 6.877588 2.5263871 6.8027344 2.5273438 L 5.0625 2.5273438 C 4.9894142 2.5256218 4.9293934 2.4676244 4.9316406 2.3925781 L 4.9296875 1.3398438 C 4.9294487 1.2662327 4.990387 1.2050469 5.0644531 1.2070312 z M 8.0820312 1.2070312 L 9.8203125 1.2089844 C 9.8936605 1.209726 9.9560897 1.2660399 9.953125 1.3398438 L 9.9550781 2.3964844 C 9.9545992 2.4688524 9.8943789 2.5293281 9.8203125 2.5273438 L 8.0800781 2.5234375 C 8.0062044 2.5246566 7.9482145 2.46886 7.9492188 2.3945312 L 7.9472656 1.3398438 C 7.9489856 1.2667578 8.0071771 1.2079876 8.0820312 1.2070312 z M 12.835938 1.2070312 C 12.909026 1.2087512 12.970202 1.2691665 12.970703 1.3417969 L 12.970703 2.3964844 C 12.971903 2.4703584 12.912225 2.5303011 12.837891 2.5292969 L 11.097656 2.5292969 C 11.023066 2.529273 10.963392 2.4691152 10.962891 2.3964844 L 10.964844 1.3417969 C 10.965585 1.2684479 11.0236 1.2075253 11.095703 1.2089844 L 12.835938 1.2070312 z M 14.115234 1.2089844 L 15.855469 1.2089844 C 15.927379 1.2072444 15.985827 1.2691658 15.986328 1.3417969 L 15.986328 2.3964844 C 15.988528 2.4706214 15.92811 2.5293208 15.853516 2.5292969 L 14.113281 2.5292969 C 14.039671 2.5295356 13.979983 2.4683271 13.982422 2.3964844 L 13.980469 1.3417969 C 13.982169 1.2687109 14.041169 1.2069999 14.115234 1.2089844 z M 18.873047 1.2089844 C 18.946137 1.2107044 19.004903 1.2708488 19.005859 1.3457031 L 19.005859 2.4003906 C 19.005643 2.4717786 18.945163 2.5312814 18.871094 2.5292969 L 17.130859 2.53125 C 17.05751 2.530508 16.998285 2.4700955 16.998047 2.3964844 L 16.998047 1.34375 C 16.998526 1.271382 17.057777 1.2092156 17.130859 1.2109375 L 18.873047 1.2089844 z M 20.148438 1.2109375 L 21.888672 1.2109375 C 21.963262 1.2109614 22.021779 1.2706571 22.019531 1.3457031 L 22.021484 2.3984375 C 22.020742 2.4717855 21.960776 2.5327092 21.888672 2.53125 L 20.148438 2.53125 C 20.07509 2.530508 20.015864 2.4720486 20.015625 2.3984375 L 20.015625 1.34375 C 20.014425 1.269876 20.073123 1.2096706 20.148438 1.2109375 z M 23.164062 1.2109375 L 24.904297 1.2148438 C 24.980397 1.2131737 25.039093 1.2716373 25.037109 1.3457031 L 25.039062 2.4003906 C 25.038321 2.4737386 24.979331 2.5329718 24.90625 2.53125 L 23.164062 2.5332031 C 23.090972 2.5314831 23.032454 2.473214 23.035156 2.4003906 L 23.033203 1.34375 C 23.031003 1.269614 23.090446 1.2111763 23.164062 1.2109375 z M 26.183594 1.2128906 L 27.919922 1.2128906 C 27.993792 1.2116706 28.056673 1.2716367 28.054688 1.3457031 L 28.054688 2.4023438 C 28.056188 2.4752375 27.996464 2.533227 27.921875 2.5332031 L 26.181641 2.5332031 C 26.108031 2.5334418 26.05004 2.4737387 26.050781 2.4003906 L 26.048828 1.3457031 C 26.049569 1.2723541 26.106777 1.2133217 26.183594 1.2128906 z M 29.199219 1.2128906 L 30.939453 1.2128906 C 31.013323 1.2116706 31.071572 1.2718222 31.072266 1.3476562 L 31.070312 2.4023438 C 31.072012 2.4742567 31.010134 2.5346549 30.9375 2.5351562 L 29.199219 2.5332031 C 29.125349 2.5344231 29.066119 2.4740089 29.066406 2.3984375 L 29.066406 1.3457031 C 29.065642 1.2740521 29.126138 1.2111688 29.199219 1.2128906 z M 36.972656 1.2128906 C 37.045746 1.2146106 37.106473 1.2752811 37.105469 1.3496094 L 37.105469 2.4042969 C 37.107169 2.4762099 37.045744 2.5368781 36.972656 2.5351562 L 35.232422 2.5332031 C 35.158282 2.5354031 35.099578 2.474457 35.101562 2.4003906 L 35.099609 1.3476562 C 35.099825 1.2762682 35.158808 1.2150823 35.232422 1.2148438 L 36.972656 1.2128906 z M 32.216797 1.2148438 L 33.957031 1.2148438 C 34.029921 1.2133638 34.087915 1.2730653 34.087891 1.3476562 L 34.089844 2.4023438 C 34.089103 2.4756916 34.029145 2.5371408 33.955078 2.5351562 L 32.214844 2.5332031 C 32.140704 2.5354031 32.08227 2.4759551 32.082031 2.4023438 L 32.083984 1.3476562 C 32.083745 1.2740452 32.14096 1.2155372 32.216797 1.2148438 z M 38.248047 1.2167969 L 39.990234 1.2167969 C 40.063844 1.2165581 40.122816 1.2745708 40.121094 1.3476562 L 40.121094 2.4042969 C 40.123094 2.4752299 40.060915 2.536608 39.988281 2.5371094 L 38.246094 2.5371094 C 38.172744 2.5363678 38.117171 2.4774606 38.115234 2.4023438 L 38.115234 1.3496094 C 38.114034 1.2757354 38.174963 1.2150751 38.248047 1.2167969 z M 41.265625 1.2167969 L 43.005859 1.2167969 C 43.078229 1.2172757 43.137716 1.2767088 43.138672 1.3515625 L 43.138672 2.4042969 C 43.138648 2.4788879 43.081433 2.537396 43.005859 2.5371094 L 41.265625 2.5351562 C 41.191485 2.5373565 41.134024 2.4776457 41.134766 2.4042969 L 41.132812 1.3496094 C 41.131312 1.2767164 41.190581 1.2145497 41.265625 1.2167969 z M 44.283203 1.2167969 L 46.023438 1.21875 C 46.095348 1.21701 46.157972 1.2765239 46.15625 1.3496094 L 46.158203 2.40625 C 46.157462 2.479598 46.09803 2.5371333 46.023438 2.5371094 L 44.283203 2.5371094 C 44.209853 2.5363679 44.149387 2.4786256 44.150391 2.4042969 L 44.150391 1.3496094 C 44.151891 1.2775044 44.209138 1.2148124 44.283203 1.2167969 z M 14.802734 3.5488281 C 14.925307 3.5502281 15.023773 3.6481214 15.025391 3.7714844 L 15.027344 12.960938 C 15.024744 13.084229 14.927787 13.182957 14.804688 13.183594 L 1.5234375 13.183594 C 1.4013175 13.184493 1.3019444 13.085984 1.3007812 12.964844 L 1.3007812 3.7734375 C 1.3021813 3.6508625 1.3993713 3.5522062 1.5195312 3.5507812 L 14.802734 3.5488281 z M 17.322266 3.5507812 L 30.605469 3.5507812 C 30.728306 3.5511253 30.827751 3.6493565 30.828125 3.7734375 L 30.828125 12.962891 C 30.828307 13.083767 30.731502 13.185172 30.607422 13.185547 L 17.324219 13.183594 C 17.202363 13.183515 17.102455 13.084486 17.103516 12.962891 L 17.101562 3.7714844 C 17.102056 3.6518524 17.200863 3.5529232 17.322266 3.5507812 z M 2.0488281 14.144531 L 3.7910156 14.144531 C 3.8643636 14.145273 3.9235969 14.204255 3.921875 14.277344 L 3.921875 15.332031 C 3.9228314 15.406881 3.8658772 15.464413 3.7890625 15.464844 L 2.0488281 15.466797 C 1.9767221 15.465297 1.9172271 15.405383 1.9179688 15.332031 L 1.9160156 14.277344 C 1.9177356 14.204264 1.9767223 14.143072 2.0488281 14.144531 z M 5.0683594 14.144531 L 6.8085938 14.146484 C 6.8814877 14.144984 6.9384968 14.204443 6.9394531 14.279297 L 6.9394531 15.332031 C 6.9404095 15.406881 6.8812317 15.466821 6.8066406 15.466797 L 5.0664062 15.466797 C 4.9940383 15.466318 4.9345501 15.406885 4.9335938 15.332031 L 4.9335938 14.277344 C 4.933355 14.203734 4.9937684 14.144507 5.0683594 14.144531 z M 9.8242188 14.146484 C 9.8988095 14.146508 9.9570626 14.205233 9.9550781 14.279297 L 9.9570312 15.335938 C 9.9565526 15.408307 9.8978297 15.466558 9.8242188 15.466797 L 8.0839844 15.466797 C 8.0096554 15.465797 7.9526536 15.40688 7.9511719 15.333984 L 7.9511719 14.279297 C 7.9502155 14.204447 8.0084123 14.148148 8.0839844 14.148438 L 9.8242188 14.146484 z M 11.099609 14.146484 L 12.839844 14.146484 C 12.913454 14.146245 12.974378 14.208166 12.972656 14.28125 L 12.972656 15.333984 C 12.971914 15.407334 12.913901 15.468256 12.841797 15.466797 L 11.099609 15.466797 C 11.026719 15.468297 10.966765 15.408052 10.96875 15.333984 L 10.96875 14.279297 C 10.96655 14.205157 11.026255 14.145743 11.099609 14.146484 z M 14.119141 14.148438 L 15.857422 14.148438 C 15.932272 14.147481 15.992673 14.209406 15.990234 14.28125 L 15.992188 15.333984 C 15.990685 15.410274 15.931287 15.467006 15.859375 15.46875 L 14.117188 15.46875 C 14.044816 15.468271 13.984868 15.408048 13.986328 15.335938 L 13.984375 14.279297 C 13.982875 14.206407 14.04481 14.147432 14.119141 14.148438 z M 17.134766 14.148438 L 18.876953 14.150391 C 18.949583 14.149889 19.007843 14.209137 19.005859 14.283203 L 19.007812 15.335938 C 19.006312 15.412228 18.949785 15.471978 18.875 15.46875 L 17.134766 15.46875 C 17.060896 15.46995 16.999706 15.40903 17.001953 15.333984 L 17 14.279297 C 16.999954 14.208887 17.060174 14.148412 17.134766 14.148438 z M 20.152344 14.148438 L 21.890625 14.150391 C 21.963515 14.148891 22.024441 14.208869 22.023438 14.283203 L 22.023438 15.337891 C 22.026138 15.410071 21.964958 15.471707 21.890625 15.470703 L 20.150391 15.470703 C 20.078811 15.467303 20.01977 15.409549 20.019531 15.335938 L 20.017578 14.283203 C 20.019278 14.210123 20.078017 14.147433 20.152344 14.148438 z M 23.167969 14.150391 L 24.908203 14.150391 C 24.981093 14.148891 25.04202 14.208869 25.041016 14.283203 L 25.041016 15.337891 C 25.040016 15.412221 24.982797 15.470726 24.908203 15.470703 L 23.167969 15.46875 C 23.094809 15.47125 23.034414 15.411242 23.035156 15.337891 L 23.035156 14.283203 C 23.033656 14.210313 23.095335 14.150893 23.167969 14.150391 z M 26.185547 14.152344 L 27.923828 14.152344 C 27.998418 14.152368 28.058888 14.210112 28.056641 14.285156 L 28.058594 15.339844 C 28.060594 15.410774 27.99789 15.472162 27.925781 15.470703 L 26.185547 15.470703 C 26.109447 15.472403 26.051738 15.412751 26.050781 15.337891 L 26.052734 14.285156 C 26.052758 14.210566 26.111483 14.150359 26.185547 14.152344 z M 32.216797 14.152344 L 33.957031 14.152344 C 34.032341 14.153644 34.091821 14.212519 34.091797 14.287109 L 34.091797 15.341797 C 34.091055 15.415147 34.034033 15.474903 33.958984 15.472656 L 32.220703 15.470703 C 32.145583 15.472603 32.087156 15.41372 32.085938 15.339844 L 32.085938 14.287109 C 32.084738 14.213239 32.144431 14.151865 32.216797 14.152344 z M 38.251953 14.152344 L 39.994141 14.154297 C 40.066511 14.154775 40.125031 14.21304 40.123047 14.287109 L 40.125 15.34375 C 40.125046 15.41416 40.066244 15.474115 39.994141 15.472656 L 38.251953 15.474609 C 38.177883 15.472609 38.12036 15.415674 38.119141 15.341797 L 38.119141 14.287109 C 38.118902 14.213499 38.177101 14.153301 38.251953 14.152344 z M 29.199219 14.154297 L 30.943359 14.154297 C 31.016249 14.152797 31.075415 14.212077 31.074219 14.283203 L 31.074219 15.339844 C 31.073477 15.413194 31.013255 15.473667 30.939453 15.470703 L 29.199219 15.472656 C 29.127829 15.47244 29.069115 15.410973 29.070312 15.339844 L 29.068359 14.287109 C 29.066159 14.212969 29.127115 14.152838 29.199219 14.154297 z M 35.234375 14.154297 L 36.976562 14.154297 C 37.046974 14.15425 37.106921 14.214478 37.107422 14.287109 L 37.109375 15.341797 C 37.108375 15.416127 37.049394 15.475884 36.974609 15.472656 L 35.234375 15.472656 C 35.161485 15.474156 35.102512 15.416128 35.103516 15.341797 L 35.101562 14.285156 C 35.102041 14.212786 35.160574 14.151333 35.234375 14.154297 z M 41.267578 14.15625 L 43.009766 14.15625 C 43.081676 14.15455 43.142077 14.214475 43.142578 14.287109 L 43.142578 15.341797 C 43.141837 15.415147 43.08365 15.473915 43.007812 15.474609 L 41.269531 15.474609 C 41.195921 15.474847 41.134472 15.416841 41.136719 15.341797 L 41.136719 14.287109 C 41.137197 14.214739 41.194493 14.154528 41.267578 14.15625 z "
       style="opacity:1;stroke-width:1.05012;stop-opacity:1"
       id="path23421" />
    <path
       d="M 27.535541,7.8351898 A 3.4505243,3.4505243 0 0 1 24.085016,11.285714 3.4505243,3.4505243 0 0 1 20.634492,7.8351898 3.4505243,3.4505243 0 0 1 24.085016,4.3846655 3.4505243,3.4505243 0 0 1 27.535541,7.8351898"
       style="color:#000000;overflow:visible;fill:url(#radialGradient69063);fill-opacity:1;stroke:#6d0000;stroke-linecap:round;stroke-linejoin:bevel;stroke-opacity:1"
       id="circle69061" />
    <path
       sodipodi:nodetypes="czccsc"
       inkscape:connector-curvature="0"
       d="m 35.123681,45.476825 c 0,0 -11.076468,-9.805063 -15.568237,-13.18101 C 15.063675,28.919868 6.8614548,24.305469 3.7214034,22.808236 L 8.3068441,11.952677 c 3.5349939,1.349178 10.5486849,4.912884 18.4558329,9.464326 4.445891,2.559104 16.809327,12.379564 16.809327,12.379564"
       style="fill:url(#linearGradient923);fill-opacity:1;fill-rule:evenodd;stroke:none;stroke-width:1px;stroke-linecap:butt;stroke-linejoin:miter;stroke-opacity:1"
       id="path69128" />
    <path
       inkscape:connector-curvature="0"
       id="path69100"
       style="color:#000000;overflow:visible;opacity:0.530351;fill:url(#radialGradient69102);fill-opacity:1;stroke:#6d0000;stroke-width:1;stroke-linecap:round;stroke-linejoin:bevel;stroke-opacity:1"
       d="m 30.012761,27.018622 a 6.6531358,6.6531358 0 0 1 -6.653137,6.653135 6.6531358,6.6531358 0 0 1 -6.653135,-6.653135 6.6531358,6.6531358 0 0 1 6.653135,-6.653135 6.6531358,6.6531358 0 0 1 6.653137,6.653135" />
    <path
       d="M 11.602734,17.622305 A 5.4851451,5.4851451 0 0 1 6.1175868,23.10745 5.4851451,5.4851451 0 0 1 0.63244241,17.622305 5.4851451,5.4851451 0 0 1 6.1175868,12.13716 5.4851451,5.4851451 0 0 1 11.602734,17.622305"
       style="color:#000000;overflow:visible;opacity:0.188498;fill:url(#radialGradient69106);fill-opacity:1;stroke:#6d0000;stroke-width:1;stroke-linecap:round;stroke-linejoin:bevel;stroke-opacity:1"
       id="path69104"
       inkscape:connector-curvature="0" />
    <path
       sodipodi:nodetypes="czc"
       inkscape:connector-curvature="0"
       id="path69112"
       d="M 45.067697,35.055039 C 41.26742,31.713398 32.323417,24.74939 26.944182,21.462379 21.564947,18.175368 11.366248,12.63959 6.9214318,12.200236"
       style="fill:none;fill-rule:evenodd;stroke:url(#linearGradient69122);stroke-width:1px;stroke-linecap:butt;stroke-linejoin:miter;stroke-opacity:1" />
    <path
       style="fill:none;fill-rule:evenodd;stroke:url(#linearGradient69124);stroke-width:1px;stroke-linecap:butt;stroke-linejoin:miter;stroke-opacity:1"
       d="M 35.355732,45.623292 C 31.841145,41.727769 23.152988,34.849556 20.19186,32.695011 17.230732,30.540466 8.3066024,24.805756 3.7512712,22.75252"
       id="path69114"
       inkscape:connector-curvature="0"
       sodipodi:nodetypes="czc" />
    <path
       d="m 47.436272,40.368733 a 7.1309502,7.1309502 0 0 1 -7.130953,7.13095 7.1309502,7.1309502 0 0 1 -7.130949,-7.13095 7.1309502,7.1309502 0 0 1 7.130949,-7.13095 7.1309502,7.1309502 0 0 1 7.130953,7.13095"
       style="color:#000000;overflow:visible;fill:url(#radialGradient69110);fill-opacity:1;stroke:#6d0000;stroke-width:1;stroke-linecap:round;stroke-linejoin:bevel;stroke-opacity:1"
       id="path69108"
       inkscape:connector-curvature="0" />
  </g>
</svg>
