<?xml version="1.0" encoding="UTF-8" standalone="no"?>
<!-- Created with Inkscape (http://www.inkscape.org/) -->

<svg
   xmlns:dc="http://purl.org/dc/elements/1.1/"
   xmlns:cc="http://creativecommons.org/ns#"
   xmlns:rdf="http://www.w3.org/1999/02/22-rdf-syntax-ns#"
   xmlns:svg="http://www.w3.org/2000/svg"
   xmlns="http://www.w3.org/2000/svg"
   xmlns:xlink="http://www.w3.org/1999/xlink"
   xmlns:sodipodi="http://sodipodi.sourceforge.net/DTD/sodipodi-0.dtd"
   xmlns:inkscape="http://www.inkscape.org/namespaces/inkscape"
   width="48px"
   height="48px"
   id="svg82493"
   version="1.1"
   inkscape:version="0.48.4 r9939"
   sodipodi:docname="New document 43">
  <defs
     id="defs82495">
    <linearGradient
       inkscape:collect="always"
       id="linearGradient83081">
      <stop
         style="stop-color:#2e3436;stop-opacity:1;"
         offset="0"
         id="stop83083" />
      <stop
         style="stop-color:#2e3436;stop-opacity:0;"
         offset="1"
         id="stop83085" />
    </linearGradient>
    <radialGradient
       inkscape:collect="always"
       xlink:href="#linearGradient83081"
       id="radialGradient83087"
       cx="23.662824"
       cy="23.352278"
       fx="23.662824"
       fy="23.352278"
       r="23.102163"
       gradientTransform="matrix(1.0343617,0,0,0.87734184,-0.63009698,6.5152987)"
       gradientUnits="userSpaceOnUse" />
  </defs>
  <sodipodi:namedview
     id="base"
     pagecolor="#ffffff"
     bordercolor="#666666"
     borderopacity="1.0"
     inkscape:pageopacity="0.0"
     inkscape:pageshadow="2"
     inkscape:zoom="19.79899"
     inkscape:cx="1.3904582"
     inkscape:cy="24.426461"
     inkscape:current-layer="layer1"
     showgrid="true"
     inkscape:grid-bbox="true"
     inkscape:document-units="px"
     inkscape:window-width="2560"
     inkscape:window-height="1538"
     inkscape:window-x="-8"
     inkscape:window-y="-8"
     inkscape:window-maximized="1" />
  <metadata
     id="metadata82498">
    <rdf:RDF>
      <cc:Work
         rdf:about="">
        <dc:format>image/svg+xml</dc:format>
        <dc:type
           rdf:resource="http://purl.org/dc/dcmitype/StillImage" />
        <dc:title></dc:title>
      </cc:Work>
    </rdf:RDF>
  </metadata>
  <g
     id="layer1"
     inkscape:label="Layer 1"
     inkscape:groupmode="layer">
    <path
       sodipodi:nodetypes="ccccccccccc"
       inkscape:connector-curvature="0"
       id="path83071"
       d="M 0.4670093,21.62128 C 11.346353,18.689725 20.187826,13.30755 28.469339,7.2520022 28.341091,15.135181 34.682982,23.911795 47.224632,31.392391 c -3.87284,2.935993 -7.917986,5.682417 -13.165275,7.106261 l -7.052825,-3.448627 4.179452,4.807177 c -5.067586,3.801555 -10.135173,4.868183 -15.202759,6.897254 0.235397,-4.417369 -3.316333,-7.011 -6.7393661,-9.666606 L 13.684527,32.646436 7.8332939,35.259032 C 6.28479,30.54034 4.8586218,25.798339 0.4670093,21.62128 z"
       style="fill:url(#radialGradient83087);fill-opacity:1;stroke:none" />
    <path
       style="fill:#8fa0b2;fill-opacity:1;stroke:#204a87;stroke-width:1px;stroke-linecap:butt;stroke-linejoin:miter;stroke-opacity:1"
       d="M 0.46700931,17.179869 C 11.346354,14.248313 20.187827,8.8661375 28.46934,2.810589 c -0.128249,7.883179 6.213643,16.659795 18.755293,24.140391 -3.872839,2.935992 -7.917986,5.682417 -13.165275,7.106261 l -7.052826,-3.448628 4.179452,4.807178 c -5.067586,3.801556 -10.135172,4.868184 -15.202758,6.897255 0.235397,-4.417369 -3.316334,-7.011 -6.7393662,-9.666607 L 13.684528,28.205026 7.8332941,30.817622 C 6.2847902,26.098928 4.858622,21.356927 0.46700931,17.179869 z"
       id="path82512"
       inkscape:connector-curvature="0"
       sodipodi:nodetypes="ccccccccccc" />
    <path
       style="fill:#abb580;fill-opacity:1;stroke:#425134;stroke-width:1px;stroke-linecap:butt;stroke-linejoin:miter;stroke-opacity:1"
       d="m 13.608867,12.447113 c 1.054995,0.630282 2.388007,1.937985 2.140745,3.192708 -0.869042,1.067255 -0.870536,2.37458 -1.0676,3.638335 -0.32115,1.214024 -1.611078,1.818957 -1.954129,3.001166 -0.390357,1.28604 0.239157,2.614274 1.140149,3.520575 0.86302,0.911848 1.408255,2.753544 2.971072,2.42183 1.404075,-0.286178 2.274302,-1.534469 2.926445,-2.709408 0.269665,-0.539844 0.760856,-0.894818 1.30646,-1.008924 0,0 -0.671573,-3.92475 0.292262,-5.024441 1.119576,-1.277385 3.200232,0.238401 4.179452,-1.149543 1.11736,-1.58374 -0.443489,-3.71384 0.626919,-5.329696 0.894248,-1.349932 4.597397,-1.567558 4.597397,-1.567558 0,0 -2.824616,1.2967 -3.343562,2.612597 -0.821495,2.083074 2.393341,4.84846 1.044863,6.635993 -1.035567,1.372742 -4.038615,-0.710049 -5.119829,0.627024 -0.897021,1.109294 0.379563,4.263208 0.379563,4.263208 0.737554,0.693242 1.255275,1.62876 1.553869,2.59098 0.665541,1.226989 0.148783,2.584484 0.04357,3.849658 1.164467,1.914369 2.928597,2.438154 2.801581,5.109228 l 2.953407,-1.86181 -3.97048,-4.493665 6.94834,3.344124 C 39.176439,32.812272 43.090139,29.926073 47.01566,27.055483 35.423768,19.623886 28.771957,11.798772 28.312611,2.7060852 23.648629,6.5463576 18.520691,9.2265476 13.608867,12.447113 z"
       id="path82514"
       inkscape:connector-curvature="0"
       sodipodi:nodetypes="ccccccccssscssscccccccccc" />
    <path
       style="fill:none;stroke:#ffffff;stroke-width:1px;stroke-linecap:butt;stroke-linejoin:miter;stroke-opacity:0.31372549"
       d="m 5.5345953,15.769067 c 2.8870408,3.930617 4.8970977,8.226703 6.1124497,12.853974"
       id="path83030"
       inkscape:connector-curvature="0"
       sodipodi:nodetypes="cc" />
    <path
       style="fill:none;stroke:#ffffff;stroke-width:1px;stroke-linecap:butt;stroke-linejoin:miter;stroke-opacity:0.31372549"
       d="m 12.169476,30.347354 c 3.880826,2.290271 6.50516,5.94197 8.724606,10.03237"
       id="path83032"
       inkscape:connector-curvature="0"
       sodipodi:nodetypes="cc" />
    <path
       style="fill:none;stroke:#ffffff;stroke-width:1px;stroke-linecap:butt;stroke-linejoin:miter;stroke-opacity:0.31372549"
       d="m 10.131993,13.94025 c 7.157364,8.212601 7.49277,17.35987 14.366868,25.342184"
       id="path83034"
       inkscape:connector-curvature="0"
       sodipodi:nodetypes="cc" />
    <path
       style="fill:none;stroke:#ffffff;stroke-width:1px;stroke-linecap:butt;stroke-linejoin:miter;stroke-opacity:0.31372549"
       d="m 14.938363,11.641164 c 2.310813,7.315716 7.450989,13.468793 12.224899,19.228711"
       id="path83036"
       inkscape:connector-curvature="0"
       sodipodi:nodetypes="cc" />
    <path
       style="fill:none;stroke:#ffffff;stroke-width:1px;stroke-linecap:butt;stroke-linejoin:miter;stroke-opacity:0.31372549"
       d="m 18.752114,9.394332 c 4.808748,8.760786 11.391584,16.477125 17.814916,24.297145"
       id="path83038"
       inkscape:connector-curvature="0"
       sodipodi:nodetypes="cc" />
    <path
       sodipodi:nodetypes="cc"
       inkscape:connector-curvature="0"
       id="path83040"
       d="M 23.871944,6.3637203 C 27.954419,15.635069 34.924885,23.71464 42.36602,30.347354"
       style="fill:none;stroke:#ffffff;stroke-width:1px;stroke-linecap:butt;stroke-linejoin:miter;stroke-opacity:0.31372549" />
    <path
       style="color:#000000;fill:none;stroke:#ffffff;stroke-width:1px;stroke-linecap:butt;stroke-linejoin:miter;stroke-miterlimit:4;stroke-opacity:0.31372549;stroke-dasharray:none;stroke-dashoffset:0;marker:none;visibility:visible;display:inline;overflow:visible;enable-background:accumulate"
       d="M 3.9150575,20.942008 C 12.766504,17.419614 21.550422,13.770267 29.252988,8.0880336"
       id="path83042"
       inkscape:connector-curvature="0"
       sodipodi:nodetypes="cc" />
    <path
       style="color:#000000;fill:none;stroke:#ffffff;stroke-width:1px;stroke-linecap:butt;stroke-linejoin:miter;stroke-miterlimit:4;stroke-opacity:0.31372549;stroke-dasharray:none;stroke-dashoffset:0;marker:none;visibility:visible;display:inline;overflow:visible;enable-background:accumulate"
       d="M 6.2137563,26.1672 C 14.990857,22.551697 23.667319,18.639056 31.865145,13.313227"
       id="path83044"
       inkscape:connector-curvature="0"
       sodipodi:nodetypes="cc" />
    <path
       style="color:#000000;fill:none;stroke:#ffffff;stroke-width:1px;stroke-linecap:butt;stroke-linejoin:miter;stroke-miterlimit:4;stroke-opacity:0.31372549;stroke-dasharray:none;stroke-dashoffset:0;marker:none;visibility:visible;display:inline;overflow:visible;enable-background:accumulate"
       d="m 13.527798,28.570789 c 1.239529,0.526226 22.766285,-10.016901 22.203341,-10.55489"
       id="path83046"
       inkscape:connector-curvature="0"
       sodipodi:nodetypes="cc" />
    <path
       style="color:#000000;fill:none;stroke:#ffffff;stroke-width:1px;stroke-linecap:butt;stroke-linejoin:miter;stroke-miterlimit:4;stroke-opacity:0.31372549;stroke-dasharray:none;stroke-dashoffset:0;marker:none;visibility:visible;display:inline;overflow:visible;enable-background:accumulate"
       d="M 12.326206,35.154532 C 21.965875,31.279988 29.974673,25.7743 38.291053,20.576244"
       id="path83048"
       inkscape:connector-curvature="0"
       sodipodi:nodetypes="cc" />
    <path
       style="color:#000000;fill:none;stroke:#ffffff;stroke-width:1px;stroke-linecap:butt;stroke-linejoin:miter;stroke-miterlimit:4;stroke-opacity:0.31372549;stroke-dasharray:none;stroke-dashoffset:0;marker:none;visibility:visible;display:inline;overflow:visible;enable-background:accumulate"
       d="m 15.460795,39.073427 c 4.334059,-1.857598 9.355465,-2.855868 12.695087,-5.956721"
       id="path83050"
       inkscape:connector-curvature="0"
       sodipodi:nodetypes="cc" />
    <path
       sodipodi:nodetypes="cc"
       inkscape:connector-curvature="0"
       id="path83069"
       d="m 30.924769,31.914912 c 4.334059,-1.857597 9.355465,-2.855866 12.695087,-5.95672"
       style="color:#000000;fill:none;stroke:#ffffff;stroke-width:1px;stroke-linecap:butt;stroke-linejoin:miter;stroke-miterlimit:4;stroke-opacity:0.31372549;stroke-dasharray:none;stroke-dashoffset:0;marker:none;visibility:visible;display:inline;overflow:visible;enable-background:accumulate" />
    <path
       style="fill:none;stroke:#425134;stroke-width:1px;stroke-linecap:butt;stroke-linejoin:miter;stroke-opacity:1"
       d="M 17.223101,12.947707 20.65762,9.5636956 23.587062,13.351768"
       id="path83089"
       inkscape:connector-curvature="0" />
    <path
       inkscape:connector-curvature="0"
       id="path83091"
       d="m 22.071517,11.825091 2.344537,-2.2108881 1.999751,2.4748751"
       style="fill:none;stroke:#425134;stroke-width:1px;stroke-linecap:butt;stroke-linejoin:miter;stroke-opacity:1" />
    <path
       style="fill:none;stroke:#425134;stroke-width:1px;stroke-linecap:butt;stroke-linejoin:miter;stroke-opacity:1"
       d="m 16.263456,16.685272 3.434519,-3.384012 2.929442,3.788073"
       id="path83093"
       inkscape:connector-curvature="0" />
    <path
       inkscape:connector-curvature="0"
       id="path83095"
       d="m 17.152779,19.181021 2.093002,-1.940167 1.785207,2.171829"
       style="fill:none;stroke:#425134;stroke-width:1px;stroke-linecap:butt;stroke-linejoin:miter;stroke-opacity:1" />
    <path
       sodipodi:nodetypes="csssc"
       inkscape:connector-curvature="0"
       id="path83099"
       d="m 2.0708127,18.554053 c 5.7851017,3.636084 10.7429693,-1.828239 14.4956893,0.505077 4.349012,2.704071 -3.578763,12.732181 3.080965,15.051273 8.042874,2.80074 3.536815,-11.553485 9.394418,-11.970308 2.695591,-0.191816 6.81853,3.586041 6.81853,3.586041"
       style="fill:none;stroke:#eeeeec;stroke-width:3;stroke-linecap:butt;stroke-linejoin:miter;stroke-opacity:1;stroke-miterlimit:4;stroke-dasharray:none;stroke-dashoffset:0" />
    <path
       style="fill:none;stroke:#000000;stroke-width:1.5;stroke-linecap:butt;stroke-linejoin:miter;stroke-opacity:1;stroke-miterlimit:4;stroke-dasharray:1.5,1.5;stroke-dashoffset:0"
       d="m 2.0708127,18.554053 c 5.7851017,3.636084 10.7429693,-1.828239 14.4956893,0.505077 4.349012,2.704071 -3.578763,12.732181 3.080965,15.051273 8.042874,2.80074 3.536815,-11.553485 9.394418,-11.970308 2.695591,-0.191816 6.81853,3.586041 6.81853,3.586041"
       id="path83097"
       inkscape:connector-curvature="0"
       sodipodi:nodetypes="csssc" />
    <path
       style="fill:#000000;fill-opacity:1;stroke:#537335;stroke-width:1px;stroke-linecap:butt;stroke-linejoin:miter;stroke-opacity:1"
       d="m 30.219367,23.434427 4.533942,0.97193 2.010951,-3.31447 3.292236,0.953806 -3.204018,3.277272 5.08614,1.092109 -2.434445,2.807046 -3.644266,-1.994407 -2.653695,3.678825 -2.844038,-1.241857 3.603583,-3.546243 -4.758042,-0.827907 z"
       id="path83028"
       inkscape:connector-curvature="0" />
  </g>
</svg>
