<svg xmlns="http://www.w3.org/2000/svg" xmlns:xlink="http://www.w3.org/1999/xlink" viewBox="0 0 48 48"><defs><style>.cls-1,.cls-10,.cls-16,.cls-2,.cls-5,.cls-6{fill:none;}.cls-1{stroke:#a40000;}.cls-1,.cls-2,.cls-5,.cls-6{stroke-miterlimit:10;stroke-width:1.4px;}.cls-2{stroke:#f57f7f;}.cls-3{fill:#f57f7f;}.cls-4{fill:url(#radial-gradient);}.cls-5{stroke:#4e9a06;}.cls-6{stroke:#8ae234;}.cls-7{fill:#8ae234;}.cls-8{fill:#204a87;}.cls-9{fill:url(#linear-gradient);}.cls-10{stroke:#729fcf;}.cls-10,.cls-16{stroke-linecap:round;stroke-linejoin:round;stroke-width:0.35px;}.cls-11{fill:url(#linear-gradient-2);}.cls-12{fill:url(#linear-gradient-3);}.cls-13{fill:url(#linear-gradient-4);}.cls-14{fill:url(#New_Gradient_Swatch_5);}.cls-15{fill:url(#linear-gradient-5);}.cls-16{stroke:#d0dfef;}.cls-17{fill:url(#linear-gradient-6);}.cls-18{fill:url(#linear-gradient-7);}.cls-19{fill:#c4d7eb;}.cls-20{fill:url(#linear-gradient-8);}.cls-21{fill:url(#linear-gradient-9);}.cls-22{fill:url(#linear-gradient-10);}.cls-23{fill:url(#linear-gradient-11);}.cls-24{fill:url(#linear-gradient-12);}.cls-25{fill:url(#New_Gradient_Swatch_5-2);}.cls-26{fill:url(#New_Gradient_Swatch_5-4);}.cls-27{fill:url(#linear-gradient-13);}.cls-28{fill:url(#New_Gradient_Swatch_5-5);}.cls-29{fill:url(#linear-gradient-14);}</style><radialGradient id="radial-gradient" cx="-42.85" cy="39.47" r="20.34" gradientTransform="translate(74.67 26.09) scale(1.18 0.36)" gradientUnits="userSpaceOnUse"><stop offset="0.38" stop-color="#2c2c2c" stop-opacity="0.5"/><stop offset="0.81" stop-color="#2c2c2c" stop-opacity="0.1"/><stop offset="1" stop-color="#2c2c2c" stop-opacity="0"/></radialGradient><linearGradient id="linear-gradient" x1="9.05" y1="20.51" x2="9.05" y2="18.07" gradientUnits="userSpaceOnUse"><stop offset="0" stop-color="#00255d" stop-opacity="0"/><stop offset="1" stop-color="#00255d"/></linearGradient><linearGradient id="linear-gradient-2" x1="39.29" y1="22.54" x2="39.29" y2="16.51" xlink:href="#linear-gradient"/><linearGradient id="linear-gradient-3" x1="39.21" y1="10.79" x2="39.21" y2="17.36" gradientUnits="userSpaceOnUse"><stop offset="0" stop-color="#b2cbe5"/><stop offset="1" stop-color="#3465a4"/></linearGradient><linearGradient id="linear-gradient-4" x1="35.49" y1="16.09" x2="43.37" y2="16.09" xlink:href="#linear-gradient"/><linearGradient id="New_Gradient_Swatch_5" x1="35.49" y1="16.09" x2="43.37" y2="16.09" gradientUnits="userSpaceOnUse"><stop offset="0" stop-color="#729fcf"/><stop offset="1" stop-color="#3465a4"/></linearGradient><linearGradient id="linear-gradient-5" x1="39.43" y1="12.36" x2="39.43" y2="22.59" xlink:href="#linear-gradient"/><linearGradient id="linear-gradient-6" x1="24" y1="33.13" x2="24" y2="27.49" xlink:href="#linear-gradient-3"/><linearGradient id="linear-gradient-7" x1="24.66" y1="31.14" x2="23.7" y2="25.38" xlink:href="#linear-gradient"/><linearGradient id="linear-gradient-8" x1="20.86" y1="22.5" x2="27.91" y2="22.5" xlink:href="#linear-gradient-3"/><linearGradient id="linear-gradient-9" x1="22.88" y1="19.8" x2="30.57" y2="27.99" xlink:href="#linear-gradient-3"/><linearGradient id="linear-gradient-10" x1="24" y1="35.68" x2="24" y2="45.87" xlink:href="#linear-gradient"/><linearGradient id="linear-gradient-11" x1="12.83" y1="37.17" x2="15.6" y2="40.48" xlink:href="#linear-gradient"/><linearGradient id="linear-gradient-12" x1="12.83" y1="37.17" x2="15.6" y2="40.48" gradientTransform="matrix(-1, 0, 0, 1, 47.99, 0)" xlink:href="#linear-gradient"/><linearGradient id="New_Gradient_Swatch_5-2" x1="13.59" y1="31.86" x2="16.46" y2="36.29" xlink:href="#New_Gradient_Swatch_5"/><linearGradient id="New_Gradient_Swatch_5-4" x1="13.59" y1="31.86" x2="16.46" y2="36.29" gradientTransform="matrix(-1, 0, 0, 1, 47.99, 0)" xlink:href="#New_Gradient_Swatch_5"/><linearGradient id="linear-gradient-13" x1="9.05" y1="11.19" x2="9.05" y2="24.73" xlink:href="#linear-gradient-3"/><linearGradient id="New_Gradient_Swatch_5-5" x1="9.05" y1="14.23" x2="9.05" y2="31.63" gradientTransform="matrix(-1, 0, 0, 1, 18.1, 0)" xlink:href="#New_Gradient_Swatch_5"/><linearGradient id="linear-gradient-14" x1="9.05" y1="14.23" x2="9.05" y2="31.63" gradientTransform="matrix(-1, 0, 0, 1, 18.1, 0)" xlink:href="#linear-gradient"/></defs><title>10-Groom Switch</title><g id="shadow"><path class="cls-1" d="M37.8,24.39a14,14,0,0,1-25.89,4.8l2.05.4L9.5,24.5l-.38,6.76,1.42-1.65a15.38,15.38,0,0,0,28.65-5Z"/><path class="cls-2" d="M38.5,24.5a14.69,14.69,0,0,1-27.64,4.24"/><polygon class="cls-3" points="9.5 24.5 13.96 29.59 11.05 29.02 9.12 31.26 9.5 24.5"/><ellipse class="cls-4" cx="24" cy="40.17" rx="23.12" ry="7"/></g><g id="ART"><path class="cls-5" d="M24,8.17a13.73,13.73,0,0,1,4.18.66L26.41,9.9l6.72.78L28.88,5.41l.05,2.19a15.23,15.23,0,0,0-14.5,2.53l.87,1.1A13.8,13.8,0,0,1,24,8.17Z"/><path class="cls-6" d="M14.86,10.68A14.62,14.62,0,0,1,24,7.47a14.4,14.4,0,0,1,5.27,1"/><polygon class="cls-7" points="33.13 10.68 26.41 9.9 28.94 8.37 28.88 5.41 33.13 10.68"/><path class="cls-8" d="M9.05,14.53h3.66v6.22a3.29,3.29,0,0,0,.53,1.72,10.61,10.61,0,0,0-4.19-.82,10.67,10.67,0,0,0-4.19.82,3.25,3.25,0,0,0,.54-1.72V14.53H9.05"/><path class="cls-9" d="M9.05,14.53h3.66v6.22a3.29,3.29,0,0,0,.53,1.72,10.61,10.61,0,0,0-4.19-.82,10.67,10.67,0,0,0-4.19.82,3.25,3.25,0,0,0,.54-1.72V14.53H9.05"/><path class="cls-10" d="M9.05,14.53h3.66v6.22a3.29,3.29,0,0,0,.53,1.72,10.61,10.61,0,0,0-4.19-.82,10.67,10.67,0,0,0-4.19.82,3.25,3.25,0,0,0,.54-1.72V14.53H9.05"/><path class="cls-8" d="M39.29,13.27s3-.38,3.61.66.36,3.33.36,3.33a5.93,5.93,0,0,0-1.19,3.33,5.66,5.66,0,0,1-2.78.93,5.65,5.65,0,0,1-2.77-.93,5.93,5.93,0,0,0-1.19-3.33s-.3-2.28.36-3.33,3.6-.66,3.6-.66"/><path class="cls-11" d="M39.29,13.27s3-.38,3.61.66.36,3.33.36,3.33a5.93,5.93,0,0,0-1.19,3.33,5.66,5.66,0,0,1-2.78.93,5.65,5.65,0,0,1-2.77-.93,5.93,5.93,0,0,0-1.19-3.33s-.3-2.28.36-3.33,3.6-.66,3.6-.66"/><path class="cls-10" d="M39.29,13.27s3-.38,3.61.66.36,3.33.36,3.33a5.93,5.93,0,0,0-1.19,3.33,5.66,5.66,0,0,1-2.78.93,5.65,5.65,0,0,1-2.77-.93,5.93,5.93,0,0,0-1.19-3.33s-.3-2.28.36-3.33,3.6-.66,3.6-.66"/><path class="cls-12" d="M35.52,18.57a8.18,8.18,0,0,1-1.1-3.27,3.75,3.75,0,0,1,.69-2.25A3.81,3.81,0,0,1,36.8,12s.37-1.31,2.49-1.32,4.85,1.78,4.71,4.66a8.83,8.83,0,0,1-.72,3.06,12.11,12.11,0,0,1-.79,1.72,4.1,4.1,0,0,0-.72-2.92,7.54,7.54,0,0,1-.12,1.3S40.31,15.9,38.54,15c-1-.53-1.46-.2-1.46-.2A7.46,7.46,0,0,1,35.52,18.57Z"/><path class="cls-13" d="M43.37,18.15l-.09.26a12.31,12.31,0,0,1-.79,1.71,4,4,0,0,0-.72-2.92,6.59,6.59,0,0,1-.12,1.3S40.3,15.9,38.54,15c-1-.54-1.45-.22-1.45-.22a8.47,8.47,0,0,1-.9,2.85,4,4,0,0,1-.59-3,1.82,1.82,0,0,1,1.53-1.38,2.36,2.36,0,0,1,2.35-1.23,3.29,3.29,0,0,1,3.38,3.08,6.37,6.37,0,0,1-.21,1.46A3.35,3.35,0,0,1,43.37,18.15Z"/><path class="cls-14" d="M43.37,18.15l-.09.26a12.31,12.31,0,0,1-.79,1.71,4,4,0,0,0-.72-2.92,6.59,6.59,0,0,1-.12,1.3S40.3,15.9,38.54,15c-1-.54-1.45-.22-1.45-.22a8.47,8.47,0,0,1-.9,2.85,4,4,0,0,1-.59-3,1.82,1.82,0,0,1,1.53-1.38,2.36,2.36,0,0,1,2.35-1.23,3.29,3.29,0,0,1,3.38,3.08,6.37,6.37,0,0,1-.21,1.46A3.35,3.35,0,0,1,43.37,18.15Z"/><path class="cls-15" d="M43.37,18.15l-.09.26a12.31,12.31,0,0,1-.79,1.71,4,4,0,0,0-.72-2.92,6.59,6.59,0,0,1-.12,1.3S40.3,15.9,38.54,15c-1-.54-1.45-.22-1.45-.22a8.47,8.47,0,0,1-.9,2.85,4,4,0,0,1-.59-3,1.82,1.82,0,0,1,1.53-1.38,2.36,2.36,0,0,1,2.35-1.23,3.29,3.29,0,0,1,3.38,3.08,6.37,6.37,0,0,1-.21,1.46A3.35,3.35,0,0,1,43.37,18.15Z"/><path class="cls-16" d="M35.52,18.57a8.18,8.18,0,0,1-1.1-3.27,3.75,3.75,0,0,1,.69-2.25A3.81,3.81,0,0,1,36.8,12s.37-1.31,2.49-1.32,4.85,1.78,4.71,4.66a8.83,8.83,0,0,1-.72,3.06,12.11,12.11,0,0,1-.79,1.72,4.1,4.1,0,0,0-.72-2.92,7.54,7.54,0,0,1-.12,1.3S40.31,15.9,38.54,15c-1-.53-1.46-.2-1.46-.2A7.46,7.46,0,0,1,35.52,18.57Z"/><path class="cls-17" d="M26.69,26.7c0,1.5.07,3.69.61,4.73s-1.36,1.92-3.3,1.92-3.85-.87-3.31-1.92.61-3.23.61-4.73"/><path class="cls-18" d="M21.3,27.37l5.32,3.5.43-.76A19.44,19.44,0,0,1,26.69,27c0-1.39-2.91-1.28-2.91-1.28l-2.48,1"/><path class="cls-10" d="M26.69,26.7c0,1.5.07,3.69.61,4.73s-1.36,1.92-3.3,1.92-3.85-.87-3.31-1.92.61-3.23.61-4.73"/><ellipse class="cls-19" cx="20.15" cy="23.42" rx="1.1" ry="1.39" transform="translate(-3.8 3.9) rotate(-10.11)"/><ellipse class="cls-10" cx="20.15" cy="23.42" rx="1.1" ry="1.39" transform="translate(-3.8 3.9) rotate(-10.11)"/><ellipse class="cls-19" cx="27.85" cy="23.42" rx="1.39" ry="1.1" transform="translate(-0.1 46.73) rotate(-79.89)"/><ellipse class="cls-10" cx="27.85" cy="23.42" rx="1.39" ry="1.1" transform="translate(-0.1 46.73) rotate(-79.89)"/><rect class="cls-20" x="20.42" y="17.07" width="7.16" height="10.86" rx="3.58"/><path class="cls-21" d="M24,17.07a3.53,3.53,0,0,1,3.58,3.43v2.3s-.18-1.91-1.07-2.44A4.81,4.81,0,0,0,24,19.74a4.81,4.81,0,0,0-2.51.62c-.89.53-1.07,2.44-1.07,2.44V20.5A3.53,3.53,0,0,1,24,17.07"/><rect class="cls-10" x="20.42" y="17.07" width="7.16" height="10.86" rx="3.58"/><path class="cls-8" d="M24,31.16a5.4,5.4,0,0,0,3.05-1.05,11.21,11.21,0,0,0,2.37,1.05c1.27.37,4.53,1.42,5.74,2.48s1.53,2.9,1.8,4.16a24,24,0,0,1,.31,3.32,3,3,0,0,1-1.55.61,21.94,21.94,0,0,1-3.89,0s-.36.64-2.72,1A43.54,43.54,0,0,1,24,43a43.54,43.54,0,0,1-5.11-.31c-2.36-.33-2.72-1-2.72-1a21.94,21.94,0,0,1-3.89,0,3,3,0,0,1-1.55-.61A24,24,0,0,1,11,37.8c.27-1.26.58-3.11,1.8-4.16s4.47-2.11,5.74-2.48A11.21,11.21,0,0,0,21,30.11,5.4,5.4,0,0,0,24,31.16Z"/><path class="cls-22" d="M24,31.16a5.4,5.4,0,0,0,3.05-1.05,11.21,11.21,0,0,0,2.37,1.05c1.27.37,4.53,1.42,5.74,2.48s1.53,2.9,1.8,4.16a24,24,0,0,1,.31,3.32,3,3,0,0,1-1.55.61,21.94,21.94,0,0,1-3.89,0s-.36.64-2.72,1A43.54,43.54,0,0,1,24,43a43.54,43.54,0,0,1-5.11-.31c-2.36-.33-2.72-1-2.72-1a21.94,21.94,0,0,1-3.89,0,3,3,0,0,1-1.55-.61A24,24,0,0,1,11,37.8c.27-1.26.58-3.11,1.8-4.16s4.47-2.11,5.74-2.48A11.21,11.21,0,0,0,21,30.11,5.4,5.4,0,0,0,24,31.16Z"/><path class="cls-23" d="M14.38,41.81a11,11,0,0,0,.95-2.25c.22-1,.41-1.68.41-1.68a2.72,2.72,0,0,1,.38,1c0,.44.05,2.81.05,2.81"/><path class="cls-24" d="M33.61,41.81a11.17,11.17,0,0,1-.94-2.25c-.23-1-.42-1.68-.42-1.68a2.77,2.77,0,0,0-.37,1c0,.44-.05,2.81-.05,2.81"/><path class="cls-25" d="M21.59,30.52c-.75,1.6-4.37,3-5.85,3.56S14,35,13.54,36.3a34.47,34.47,0,0,0-.76,5.4v.09a3.76,3.76,0,0,1-.51-.06,3,3,0,0,1-1.55-.61A24.14,24.14,0,0,1,11,37.8c.26-1.26.59-3.11,1.79-4.17s4.48-2.1,5.75-2.47A10.66,10.66,0,0,0,21,30.11,2.35,2.35,0,0,0,21.59,30.52Z"/><path class="cls-25" d="M21.59,30.52c-.75,1.6-4.37,3-5.85,3.56S14,35,13.54,36.3a34.47,34.47,0,0,0-.76,5.4v.09a3.76,3.76,0,0,1-.51-.06,3,3,0,0,1-1.55-.61A24.14,24.14,0,0,1,11,37.8c.26-1.26.59-3.11,1.79-4.17s4.48-2.1,5.75-2.47A10.66,10.66,0,0,0,21,30.11,2.35,2.35,0,0,0,21.59,30.52Z"/><path class="cls-26" d="M26.4,30.52c.76,1.6,4.38,3,5.85,3.56S34,35,34.46,36.3a34.16,34.16,0,0,1,.75,5.4v.09a3.58,3.58,0,0,0,.51-.06,3.09,3.09,0,0,0,1.56-.61A23.15,23.15,0,0,0,37,37.8c-.26-1.26-.58-3.11-1.79-4.17s-4.48-2.1-5.74-2.47a10.41,10.41,0,0,1-2.37-1.05A2.44,2.44,0,0,1,26.4,30.52Z"/><path class="cls-10" d="M24,31.16a5.4,5.4,0,0,0,3.05-1.05,11.21,11.21,0,0,0,2.37,1.05c1.27.37,4.53,1.42,5.74,2.48s1.53,2.9,1.8,4.16a24,24,0,0,1,.31,3.32,3,3,0,0,1-1.55.61,21.94,21.94,0,0,1-3.89,0s-.36.64-2.72,1A43.54,43.54,0,0,1,24,43a43.54,43.54,0,0,1-5.11-.31c-2.36-.33-2.72-1-2.72-1a21.94,21.94,0,0,1-3.89,0,3,3,0,0,1-1.55-.61A24,24,0,0,1,11,37.8c.27-1.26.58-3.11,1.8-4.16s4.47-2.11,5.74-2.48A11.21,11.21,0,0,0,21,30.11,5.4,5.4,0,0,0,24,31.16Z"/><path class="cls-10" d="M16.17,41.7V39.24a4.25,4.25,0,0,0-.43-1.36"/><path class="cls-10" d="M31.83,41.7V39.24a4.25,4.25,0,0,1,.43-1.36"/><path class="cls-27" d="M9.05,16.05a13.05,13.05,0,0,0,2.89-.36s-.28,3.8-.28,5.45,1,2.76,2.26,2.76,2.4-1.67,2.4-1.67a3.49,3.49,0,0,1-2-.2c-.65-.47-1.14-.85-1-2.76s.27-3.27.27-4.43a3.76,3.76,0,0,0-3.29-3.92,2.47,2.47,0,0,0-1.24.14,2.44,2.44,0,0,0-1.23-.14,3.76,3.76,0,0,0-3.29,3.92c0,1.16.14,2.64.26,4.43s-.36,2.29-1,2.76a3.46,3.46,0,0,1-2,.2S2.9,23.9,4.19,23.9s2.26-1.12,2.26-2.76-.28-5.45-.28-5.45a13,13,0,0,0,2.88.36"/><path class="cls-28" d="M14.65,23.59c-1.37.08-2.19-1.21-2.17-2.72l.23-4.3c0-.81,0-2.41-.92-3.2a4.33,4.33,0,0,0-2.74-.91,4.33,4.33,0,0,0-2.74.91c-1,.79-.92,2.39-.92,3.2l.23,4.3c0,1.51-.8,2.8-2.17,2.72,0,0,.19.64,1.14.27a2.6,2.6,0,0,0,1.86-2.72c0-1.65-.28-5.45-.28-5.45a13,13,0,0,0,2.88.36,13,13,0,0,0,2.88-.36s-.28,3.8-.28,5.45a2.6,2.6,0,0,0,1.86,2.72,2.47,2.47,0,0,0,.74,0A.9.9,0,0,0,14.65,23.59Z"/><path class="cls-29" d="M14.65,23.59c-1.37.08-2.19-1.21-2.17-2.72l.23-4.3c0-.81,0-2.41-.92-3.2a4.33,4.33,0,0,0-2.74-.91,4.33,4.33,0,0,0-2.74.91c-1,.79-.92,2.39-.92,3.2l.23,4.3c0,1.51-.8,2.8-2.17,2.72,0,0,.19.64,1.14.27a2.6,2.6,0,0,0,1.86-2.72c0-1.65-.28-5.45-.28-5.45a13,13,0,0,0,2.88.36,13,13,0,0,0,2.88-.36s-.28,3.8-.28,5.45a2.6,2.6,0,0,0,1.86,2.72,2.47,2.47,0,0,0,.74,0A.9.9,0,0,0,14.65,23.59Z"/><path class="cls-16" d="M9.05,16.05a13.05,13.05,0,0,0,2.89-.36s-.28,3.8-.28,5.45,1,2.76,2.26,2.76,2.4-1.67,2.4-1.67a3.49,3.49,0,0,1-2-.2c-.65-.47-1.14-.85-1-2.76s.27-3.27.27-4.43a3.76,3.76,0,0,0-3.29-3.92,2.47,2.47,0,0,0-1.24.14,2.44,2.44,0,0,0-1.23-.14,3.76,3.76,0,0,0-3.29,3.92c0,1.16.14,2.64.26,4.43s-.36,2.29-1,2.76a3.46,3.46,0,0,1-2,.2S2.9,23.9,4.19,23.9s2.26-1.12,2.26-2.76-.28-5.45-.28-5.45a13,13,0,0,0,2.88.36"/></g></svg>