<?xml version="1.0" encoding="UTF-8" standalone="no"?>
<!-- Created with Inkscape (http://www.inkscape.org/) -->
<svg
   xmlns:a="http://ns.adobe.com/AdobeSVGViewerExtensions/3.0/"
   xmlns:i="http://ns.adobe.com/AdobeIllustrator/10.0/"
   xmlns:dc="http://purl.org/dc/elements/1.1/"
   xmlns:cc="http://web.resource.org/cc/"
   xmlns:rdf="http://www.w3.org/1999/02/22-rdf-syntax-ns#"
   xmlns:svg="http://www.w3.org/2000/svg"
   xmlns="http://www.w3.org/2000/svg"
   xmlns:xlink="http://www.w3.org/1999/xlink"
   xmlns:sodipodi="http://sodipodi.sourceforge.net/DTD/sodipodi-0.dtd"
   xmlns:inkscape="http://www.inkscape.org/namespaces/inkscape"
   width="48px"
   height="48px"
   id="svg13444"
   sodipodi:version="0.32"
   inkscape:version="0.44.1"
   sodipodi:docbase="e:\dev_clean\src\houdini\support\icons\sop"
   sodipodi:docname="grouptransfer.svg">
  <defs
     id="defs13446">
    <linearGradient
       id="linearGradient11013">
      <stop
         style="stop-color:#fcaf3e;stop-opacity:0;"
         offset="0"
         id="stop11015" />
      <stop
         id="stop11030"
         offset="0.46296296"
         style="stop-color:#fcaf3e;stop-opacity:0;" />
      <stop
         style="stop-color:#fcaf3e;stop-opacity:1;"
         offset="1"
         id="stop11017" />
    </linearGradient>
    <radialGradient
       inkscape:collect="always"
       xlink:href="#linearGradient11013"
       id="radialGradient11046"
       gradientUnits="userSpaceOnUse"
       gradientTransform="matrix(0.378993,3.045851e-3,-4.567545e-3,0.663072,7.829689,5.815689)"
       cx="15.566652"
       cy="24.145077"
       fx="15.566652"
       fy="24.145077"
       r="16.179747" />
    <linearGradient
       id="linearGradient13805">
      <stop
         style="stop-color:#590b08;stop-opacity:1;"
         offset="0"
         id="stop13807" />
      <stop
         style="stop-color:black;stop-opacity:0;"
         offset="1"
         id="stop13809" />
    </linearGradient>
    <linearGradient
       inkscape:collect="always"
       xlink:href="#linearGradient13805"
       id="linearGradient13811"
       x1="8.0699759"
       y1="9.3144464"
       x2="8.0300264"
       y2="15.392443"
       gradientUnits="userSpaceOnUse"
       gradientTransform="matrix(1.190024e-2,1.804928,-1.770973,1.186354e-2,40.62826,22.44618)" />
    <linearGradient
       gradientTransform="matrix(0,-1.06403,-1.352201,0,410.4976,-83.41566)"
       y2="297.60828"
       x2="-81.454582"
       y1="297.60828"
       x1="-95.827209"
       gradientUnits="userSpaceOnUse"
       id="XMLID_14_">
      <stop
         id="stop10062"
         style="stop-color:#e96712;stop-opacity:0;"
         offset="0" />
      <stop
         offset="0.5"
         style="stop-color:#ef0909;stop-opacity:1;"
         id="stop20078" />
      <stop
         id="stop10066"
         style="stop-color:#f57900"
         offset="1" />
      <a:midPointStop
         style="stop-color:#E96712"
         offset="0" />
      <a:midPointStop
         style="stop-color:#E96712"
         offset="0.4689" />
      <a:midPointStop
         style="stop-color:#CB1009"
         offset="1" />
    </linearGradient>
    <linearGradient
       id="linearGradient14146">
      <stop
         id="stop14148"
         offset="0"
         style="stop-color:#73d216;stop-opacity:1" />
      <stop
         id="stop14150"
         offset="1"
         style="stop-color:#8ae234;stop-opacity:0" />
    </linearGradient>
    <linearGradient
       id="linearGradient14134">
      <stop
         style="stop-color:#c17d11;stop-opacity:1"
         offset="0"
         id="stop14136" />
      <stop
         style="stop-color:#eeeeec;stop-opacity:0;"
         offset="1"
         id="stop14138" />
    </linearGradient>
    <linearGradient
       id="linearGradient13171">
      <stop
         style="stop-color:#fce94f;stop-opacity:0"
         offset="0"
         id="stop13173" />
      <stop
         id="stop13179"
         offset="0.73214287"
         style="stop-color:#fce94f;stop-opacity:0;" />
      <stop
         style="stop-color:#fce94f;stop-opacity:1"
         offset="1"
         id="stop13175" />
    </linearGradient>
    <linearGradient
       inkscape:collect="always"
       xlink:href="#linearGradient14134"
       id="linearGradient14140"
       x1="21.094938"
       y1="9.8796158"
       x2="10.349208"
       y2="32.355808"
       gradientUnits="userSpaceOnUse" />
    <linearGradient
       inkscape:collect="always"
       xlink:href="#linearGradient14146"
       id="linearGradient14144"
       gradientUnits="userSpaceOnUse"
       x1="21.094938"
       y1="9.8796158"
       x2="10.349208"
       y2="32.355808"
       gradientTransform="matrix(-1,0,0,1,48.42049,0.152134)" />
    <radialGradient
       inkscape:collect="always"
       xlink:href="#linearGradient13171"
       id="radialGradient16262"
       gradientUnits="userSpaceOnUse"
       gradientTransform="matrix(0.379766,-2.024594e-3,4.323218e-3,0.810857,8.47382,4.209621)"
       cx="13.300043"
       cy="21.816824"
       fx="13.300043"
       fy="21.816824"
       r="12.013102" />
    <linearGradient
       inkscape:collect="always"
       xlink:href="#XMLID_14_"
       id="linearGradient20076"
       x1="13.270604"
       y1="35.535107"
       x2="34.330776"
       y2="35.85257"
       gradientUnits="userSpaceOnUse" />
    <radialGradient
       inkscape:collect="always"
       xlink:href="#linearGradient11013"
       id="radialGradient50333"
       gradientUnits="userSpaceOnUse"
       gradientTransform="matrix(0.378993,3.045851e-3,-4.567545e-3,0.663072,7.829689,5.815689)"
       cx="15.566652"
       cy="24.145077"
       fx="15.566652"
       fy="24.145077"
       r="16.179747" />
  </defs>
  <sodipodi:namedview
     id="base"
     pagecolor="#ffffff"
     bordercolor="#666666"
     borderopacity="1.0"
     inkscape:pageopacity="0.0"
     inkscape:pageshadow="2"
     inkscape:zoom="15.75"
     inkscape:cx="24"
     inkscape:cy="24"
     inkscape:current-layer="layer1"
     showgrid="true"
     inkscape:grid-bbox="false"
     inkscape:document-units="px"
     inkscape:window-width="1238"
     inkscape:window-height="1051"
     inkscape:window-x="306"
     inkscape:window-y="5" />
  <metadata
     id="metadata13449">
    <rdf:RDF>
      <cc:Work
         rdf:about="">
        <dc:format>image/svg+xml</dc:format>
        <dc:type
           rdf:resource="http://purl.org/dc/dcmitype/StillImage" />
      </cc:Work>
    </rdf:RDF>
  </metadata>
  <g
     id="layer1"
     inkscape:label="Layer 1"
     inkscape:groupmode="layer">
    <path
       style="fill:#8c6215;fill-opacity:1;stroke:#e9b96e;stroke-width:1.00000036;stroke-miterlimit:4;stroke-dasharray:none"
       id="path22774"
       d="M 23.5,11.000986 C 23.117695,11.365877 23.360534,13.419535 23.029001,15.909057 C 22.632076,18.8881 19.364786,23.400105 19.10686,24.203608 C 18.848952,25.0089 18.286576,26.486097 17.346505,28.035389 C 16.774937,28.975129 13.44207,32.432017 13.06928,34.021146 C 12.931783,34.60622 12.311851,35.737194 12.283561,36.37666 C 12.26237,36.831743 12.444247,37.937604 12.057376,39.144649 C 11.669778,40.350268 10.725052,41.643001 10.754206,41.963378 C 10.784778,42.283028 10.579264,45.196829 10.545921,45.575447 C 10.474712,46.379965 9.3023173,46.475312 9.2581623,45.497286 C 9.2153189,44.507795 9.414066,42.284424 9.2260273,42.112351 C 9.0379886,41.940279 8.8139026,42.088873 8.6698353,42.331157 C 8.5257681,42.573441 7.7681534,46.377402 7.5669424,46.969192 C 7.3165293,47.70319 6.0642169,47.569924 6.2354312,46.68067 C 6.3476608,46.098709 7.3823528,42.135965 7.1374212,42.012055 C 6.7188356,41.802181 4.2820357,46.089087 3.9950282,46.470573 C 3.5979421,46.999522 2.6153563,46.466689 2.950779,45.644883 C 3.2138291,45.000588 5.7170665,41.129963 5.3964978,40.95956 C 5.0752198,40.789521 2.0289957,44.227468 1.754971,44.443122 C 1.2790495,44.817529 0.54605003,44.30191 0.77850112,43.625708 C 0.97146742,43.065137 3.8403516,40.255248 4.0655491,39.52973 C 4.2475816,38.944215 4.8222039,37.843753 4.4861613,37.585105 C 4.0517317,37.249411 2.6269663,38.169681 2.1355543,38.454054 C 0.99611762,39.11239 0.64364222,37.759844 1.8988527,36.989776 C 2.6192638,36.548887 3.2819221,35.959689 3.6840817,35.475783 C 4.1249924,34.946758 4.6208356,34.314833 5.4227607,33.902126 C 6.4466161,33.375205 7.679752,33.405948 7.8171613,33.175182 C 8.8605739,31.409064 9.7009398,26.59683 10.890081,24.249492 C 11.733508,22.582697 13.3507,21.446506 13.632553,20.212586 C 13.962699,18.780276 14.359473,13.533663 14.325837,12.465703 C 13.52316,2.1951329 19.241911,1.1024563 20.412539,0.50000018"
       i:knockout="Off" />
    <path
       style="fill:#4e9a06;fill-opacity:1;stroke:#8ae234;stroke-width:1.00000036;stroke-miterlimit:4;stroke-dasharray:none"
       id="path13453"
       d="M 24.902766,11.057091 C 25.285071,11.421982 25.042232,13.47564 25.373765,15.965162 C 25.77069,18.944205 29.03798,23.45621 29.295906,24.259713 C 29.553814,25.065005 30.11619,26.542202 31.056261,28.091494 C 31.627829,29.031234 34.960696,32.488122 35.333486,34.077251 C 35.470983,34.662325 36.090915,35.793299 36.119205,36.432765 C 36.205679,39.141443 34.080169,39.998213 35.241308,42.704807 C 36.402447,45.411401 38.8349,47.87834 40.76376,47.259141 C 41.746004,46.943823 38.771671,42.788364 38.910561,40.384453 C 39.04945,37.980541 39.767704,36.765405 41.509795,38.405399 C 43.695039,40.948715 43.910683,43.492031 44.68074,46.035347 C 47.559781,43.825344 47.243537,40.976283 46.357269,38.013218 C 45.515876,36.422892 43.310489,34.488375 40.585605,33.231287 C 39.542192,31.465169 38.701826,26.652935 37.512685,24.305597 C 36.669258,22.638802 35.052066,21.502611 34.770213,20.268691 C 34.440067,18.836381 34.043293,13.589768 34.076929,12.521808 C 34.879606,2.251238 29.160855,1.1585614 27.990227,0.55610521"
       i:knockout="Off"
       sodipodi:nodetypes="csssscscsccccsscc" />
    <path
       style="fill:none;fill-opacity:1;stroke:url(#linearGradient14140);stroke-width:1.00000036;stroke-miterlimit:4;stroke-dasharray:none"
       id="path14124"
       d="M 22.992066,9.986615 C 22.456431,10.952103 22.356488,13.785157 21.931911,16.02031 C 21.383077,18.909605 18.941186,22.171792 18.708321,22.899713 C 18.475473,23.629255 17.205834,26.173849 16.357104,27.577407 C 15.841072,28.42875 13.086009,31.243006 12.43198,33.127097 L 9.2139869,32.424201 C 9.6480814,30.570245 10.700877,26.899524 11.67087,24.909535 C 12.237033,23.748023 14.169208,21.769848 14.527825,20.680932 C 15.143352,18.811924 15.311098,13.487405 15.280731,12.519902 C 14.556045,3.2154339 19.274695,2.0350637 20.712532,1.4892777"
       i:knockout="Off"
       sodipodi:nodetypes="csssccsscc" />
    <path
       style="fill:none;fill-opacity:1;stroke:url(#linearGradient14144);stroke-width:1.00000036;stroke-miterlimit:4;stroke-dasharray:none"
       id="path14142"
       d="M 25.42842,10.138745 C 25.964055,11.104233 26.063998,13.937287 26.488575,16.17244 C 27.037409,19.061735 29.4793,22.323922 29.712165,23.051843 C 29.945013,23.781385 31.214652,26.325979 32.063382,27.729537 C 32.579414,28.58088 35.334477,31.395136 35.988506,33.279227 L 39.2065,32.576331 C 38.772405,30.722375 37.719609,27.051654 36.749616,25.061665 C 36.183453,23.900153 34.251278,21.921978 33.892661,20.833062 C 33.277134,18.964054 33.109388,13.639535 33.139755,12.672032 C 33.864441,3.367564 29.145791,2.187194 27.707954,1.641408"
       i:knockout="Off"
       sodipodi:nodetypes="csssccsscc" />
    <path
       sodipodi:type="arc"
       style="opacity:1;color:black;fill:url(#radialGradient11046);fill-opacity:1;fill-rule:evenodd;stroke:#ce5c00;stroke-width:1.99999996;stroke-linecap:butt;stroke-linejoin:miter;marker:none;marker-start:none;marker-mid:none;marker-end:none;stroke-miterlimit:4;stroke-dasharray:2.00000007,2.00000007;stroke-dashoffset:0;stroke-opacity:1;visibility:visible;display:inline;overflow:visible"
       id="path16256"
       sodipodi:cx="13.619047"
       sodipodi:cy="21.873016"
       sodipodi:rx="5.6190476"
       sodipodi:ry="10.825397"
       d="M 19.238095 21.873016 A 5.6190476 10.825397 0 1 1  7.9999995,21.873016 A 5.6190476 10.825397 0 1 1  19.238095 21.873016 z"
       transform="matrix(0.943905,0.330217,-0.330217,0.943905,10.46298,-3.206778)" />
    <path
       style="opacity:1;color:black;fill:url(#linearGradient20076);fill-opacity:1.0;fill-rule:nonzero;stroke:url(#linearGradient13811);stroke-width:1.00000072;stroke-linecap:butt;stroke-linejoin:round;marker:none;marker-start:none;marker-mid:none;marker-end:none;stroke-miterlimit:4;stroke-dasharray:none;stroke-dashoffset:0;stroke-opacity:1;visibility:visible;display:inline;overflow:visible"
       d="M 13.262668,35.44638 L 24.778076,35.369238 L 24.744575,30.288335 L 34.275219,37.40815 L 24.495993,43.956481 L 24.467112,39.576391 L 13.459738,39.650131 L 13.262668,35.44638 z "
       id="path25963" />
    <path
       sodipodi:type="arc"
       style="opacity:1;color:black;fill:url(#radialGradient50333);fill-opacity:1;fill-rule:evenodd;stroke:#ce5c00;stroke-width:2;stroke-linecap:butt;stroke-linejoin:miter;marker:none;marker-start:none;marker-mid:none;marker-end:none;stroke-miterlimit:4;stroke-dasharray:2.00000007, 2.00000007;stroke-dashoffset:0;stroke-opacity:1;visibility:visible;display:inline;overflow:visible"
       id="path50331"
       sodipodi:cx="13.619047"
       sodipodi:cy="21.873016"
       sodipodi:rx="5.6190476"
       sodipodi:ry="10.825397"
       d="M 19.238095 21.873016 A 5.6190476 10.825397 0 1 1  7.9999995,21.873016 A 5.6190476 10.825397 0 1 1  19.238095 21.873016 z"
       transform="matrix(-0.943905,0.330217,0.330217,0.943905,37.75922,-3.30202)" />
  </g>
</svg>
