<svg xmlns="http://www.w3.org/2000/svg" xmlns:xlink="http://www.w3.org/1999/xlink" viewBox="0 0 48 48"><defs><style>.cls-1{fill:url(#radial-gradient);}.cls-2{fill:#8ae234;}.cls-10,.cls-11,.cls-16,.cls-22,.cls-28,.cls-3{fill:none;}.cls-11,.cls-3{stroke-miterlimit:10;}.cls-28,.cls-3{stroke-width:0.5px;}.cls-3{stroke:url(#linear-gradient);}.cls-4{fill:#204a87;}.cls-5{fill:url(#linear-gradient-2);}.cls-6{fill:#00255d;}.cls-7{fill:url(#linear-gradient-3);}.cls-8{fill:url(#linear-gradient-5);}.cls-9{fill:url(#linear-gradient-6);}.cls-10,.cls-16{stroke:#729fcf;}.cls-10,.cls-16,.cls-22,.cls-28{stroke-linecap:round;stroke-linejoin:round;}.cls-10,.cls-11,.cls-22{stroke-width:0.35px;}.cls-11{stroke:#d0dfef;}.cls-12{fill:url(#linear-gradient-7);}.cls-13{fill:url(#linear-gradient-8);}.cls-14{fill:url(#linear-gradient-9);}.cls-15{fill:url(#linear-gradient-10);}.cls-16{stroke-width:0.32px;}.cls-17{fill:url(#New_Gradient_Swatch_2);}.cls-18{fill:url(#linear-gradient-11);}.cls-19{fill:#3465a4;}.cls-20{fill:url(#New_Gradient_Swatch_2-2);}.cls-21{fill:url(#linear-gradient-12);}.cls-22,.cls-28{stroke:#204a87;}.cls-23{fill:#c4d7eb;}.cls-24{fill:url(#linear-gradient-13);}.cls-25{fill:url(#linear-gradient-14);}.cls-26{fill:url(#New_Gradient_Swatch_2-3);}.cls-27{fill:url(#linear-gradient-15);}</style><radialGradient id="radial-gradient" cx="8.92" cy="40.95" r="20.08" gradientTransform="translate(13.22 30.8) scale(1.19 0.25)" gradientUnits="userSpaceOnUse"><stop offset="0.03" stop-color="#2c2c2c" stop-opacity="0.5"/><stop offset="0.68" stop-color="#2c2c2c" stop-opacity="0.1"/><stop offset="0.93" stop-color="#2c2c2c" stop-opacity="0"/></radialGradient><linearGradient id="linear-gradient" x1="27.14" y1="34.37" x2="27.14" y2="7.5" gradientUnits="userSpaceOnUse"><stop offset="0" stop-color="#73d216"/><stop offset="1" stop-color="#4e9a06"/></linearGradient><linearGradient id="linear-gradient-2" x1="13.41" y1="27.59" x2="13.41" y2="39.54" gradientUnits="userSpaceOnUse"><stop offset="0" stop-color="#00255d" stop-opacity="0"/><stop offset="1" stop-color="#00255d"/></linearGradient><linearGradient id="linear-gradient-3" x1="8.83" y1="22.06" x2="13.31" y2="27.84" gradientUnits="userSpaceOnUse"><stop offset="0" stop-color="#b2cbe5"/><stop offset="1" stop-color="#3465a4"/></linearGradient><linearGradient id="linear-gradient-5" x1="21.86" y1="10.77" x2="21.86" y2="40.24" xlink:href="#linear-gradient-3"/><linearGradient id="linear-gradient-6" x1="14.15" y1="36.12" x2="14.15" y2="48.38" xlink:href="#linear-gradient-2"/><linearGradient id="linear-gradient-7" x1="6.91" y1="35.26" x2="-3.33" y2="41.9" xlink:href="#linear-gradient-3"/><linearGradient id="linear-gradient-8" x1="30.29" y1="27.1" x2="30.29" y2="78.66" xlink:href="#linear-gradient-3"/><linearGradient id="linear-gradient-9" x1="42.5" y1="6.47" x2="42.5" y2="73.2" xlink:href="#linear-gradient-3"/><linearGradient id="linear-gradient-10" x1="36.5" y1="30.86" x2="36.5" y2="47.9" xlink:href="#linear-gradient-2"/><linearGradient id="New_Gradient_Swatch_2" x1="76.74" y1="-51.6" x2="80.49" y2="-48.15" gradientTransform="matrix(0.97, 0.27, -0.28, 0.96, -56.44, 45.19)" gradientUnits="userSpaceOnUse"><stop offset="0" stop-color="#729fcf"/><stop offset="1" stop-color="#3465a4"/></linearGradient><linearGradient id="linear-gradient-11" x1="35.14" y1="21.51" x2="40.52" y2="21.51" xlink:href="#linear-gradient-3"/><linearGradient id="New_Gradient_Swatch_2-2" x1="-47.18" y1="153.51" x2="-41.9" y2="153.51" gradientTransform="matrix(0.85, -0.53, 0.53, 0.85, -6.03, -134.99)" xlink:href="#New_Gradient_Swatch_2"/><linearGradient id="linear-gradient-12" x1="-45.39" y1="152.66" x2="-43.93" y2="155.45" gradientTransform="matrix(0.85, -0.53, 0.53, 0.85, -6.03, -134.99)" xlink:href="#linear-gradient-2"/><linearGradient id="linear-gradient-13" x1="32.28" y1="27.1" x2="32.28" y2="78.66" xlink:href="#linear-gradient-3"/><linearGradient id="linear-gradient-14" x1="12.17" y1="20.13" x2="18.42" y2="20.13" xlink:href="#linear-gradient-3"/><linearGradient id="New_Gradient_Swatch_2-3" x1="13.02" y1="17.49" x2="18.39" y2="17.25" gradientTransform="matrix(1, 0, 0, 1, 0, 0)" xlink:href="#New_Gradient_Swatch_2"/><linearGradient id="linear-gradient-15" x1="21.31" y1="37.99" x2="24.21" y2="39.11" gradientTransform="translate(-8.67 -20.02) rotate(-2.54)" xlink:href="#linear-gradient-2"/></defs><title>25-Rig Match Pose</title><g id="shadow"><ellipse class="cls-1" cx="23.8" cy="40.95" rx="22.88" ry="4.8"/></g><g id="ART"><path class="cls-2" d="M31.85,11.49,28.21,7.85l-3.65,3.64h2.65v3.3A17.61,17.61,0,0,1,25,23.36l-.44.8a19.66,19.66,0,0,0-2.47,9.54v.42h2V33.7a17.74,17.74,0,0,1,2.22-8.57l.44-.79a19.73,19.73,0,0,0,2.48-9.55v-3.3Z"/><path class="cls-3" d="M31.85,11.49,28.21,7.85l-3.65,3.64h2.65v3.3A17.61,17.61,0,0,1,25,23.36l-.44.8a19.66,19.66,0,0,0-2.47,9.54v.42h2V33.7a17.74,17.74,0,0,1,2.22-8.57l.44-.79a19.73,19.73,0,0,0,2.48-9.55v-3.3Z"/><path class="cls-4" d="M9.43,28.69a23.77,23.77,0,0,1-4.92,7.22A2.5,2.5,0,0,1,2.74,35c-.49-.82.54-2.2,1-3.21a63.26,63.26,0,0,1,2.79-5.73A4.86,4.86,0,0,1,9,24c1.3-.5,2.87-.58,3.64-.84h1.56A9.33,9.33,0,0,0,18,22a7.93,7.93,0,0,0,3.16-4.67h0c-.09,1.26,0,2.58,1,2.9a1.54,1.54,0,0,0,2-1.15,17.65,17.65,0,0,1-1.94,4.1c-1.06,1.82-2.48,3.54-2.91,4.29a11.19,11.19,0,0,0-.92,3.21A36.11,36.11,0,0,0,18.19,35H10.11a37.45,37.45,0,0,0-.23-4.33A12.24,12.24,0,0,0,9.43,28.69Z"/><path class="cls-5" d="M9.43,28.69a23.77,23.77,0,0,1-4.92,7.22A2.5,2.5,0,0,1,2.74,35c-.49-.82.54-2.2,1-3.21a63.26,63.26,0,0,1,2.79-5.73A4.86,4.86,0,0,1,9,24c1.3-.5,2.87-.58,3.64-.84h1.56A9.33,9.33,0,0,0,18,22a7.93,7.93,0,0,0,3.16-4.67h0c-.09,1.26,0,2.58,1,2.9a1.54,1.54,0,0,0,2-1.15,17.65,17.65,0,0,1-1.94,4.1c-1.06,1.82-2.48,3.54-2.91,4.29a11.19,11.19,0,0,0-.92,3.21A36.11,36.11,0,0,0,18.19,35H10.11a37.45,37.45,0,0,0-.23-4.33A12.24,12.24,0,0,0,9.43,28.69Z"/><path class="cls-6" d="M24.2,19.07a17.65,17.65,0,0,1-1.94,4.1c-1.06,1.82-2.48,3.54-2.91,4.29a11.19,11.19,0,0,0-.92,3.21A36.11,36.11,0,0,0,18.19,35H16.9a24,24,0,0,1,.71-6.87c.57-1.79,2.05-3.28,3.06-4.74a26.94,26.94,0,0,0,1.68-3.12A2,2,0,0,0,24.2,19.07Z"/><path class="cls-7" d="M21.43,19.5a7.39,7.39,0,0,1-2.54,3.3,8.69,8.69,0,0,1-3,1.25s-1.64.1-2.19.15-3.21.52-4.1.78-1.73.57-2.79,3.26A53.86,53.86,0,0,1,4,34.1l-1.29.7c-.26-.83.65-2.07,1.1-3a63.26,63.26,0,0,1,2.79-5.73A4.86,4.86,0,0,1,9,24c1.3-.5,2.87-.58,3.64-.84h1.56A9.33,9.33,0,0,0,18,22a7.93,7.93,0,0,0,3.16-4.67h0A4.88,4.88,0,0,0,21.43,19.5Z"/><path class="cls-7" d="M21.43,19.5a7.39,7.39,0,0,1-2.54,3.3,8.69,8.69,0,0,1-3,1.25s-1.64.1-2.19.15-3.21.52-4.1.78-1.73.57-2.79,3.26A53.86,53.86,0,0,1,4,34.1l-1.29.7c-.26-.83.65-2.07,1.1-3a63.26,63.26,0,0,1,2.79-5.73A4.86,4.86,0,0,1,9,24c1.3-.5,2.87-.58,3.64-.84h1.56A9.33,9.33,0,0,0,18,22a7.93,7.93,0,0,0,3.16-4.67h0A4.88,4.88,0,0,0,21.43,19.5Z"/><path class="cls-8" d="M20,7.52l.55.25c.15.07.27,0,.25-.25s-.05-.84-.07-1-.9-1.09-1.12-1.27a.32.32,0,0,1,0-.52c.15-.1.45,0,.72.15A21.81,21.81,0,0,1,22.32,6.3a11.4,11.4,0,0,1,.57,3,8.49,8.49,0,0,0,.14.88,64.51,64.51,0,0,1,1.28,8.15,2.81,2.81,0,0,1-.11.74,1.54,1.54,0,0,1-2,1.15c-1-.32-1.07-1.64-1-2.9,0-.2,0-.39.05-.58a41.39,41.39,0,0,0,.09-7A1,1,0,0,0,20.9,9a9.83,9.83,0,0,0-1.09-.83c-.2-.14-.38-.27-.41-.52S19.68,7.38,20,7.52Z"/><path class="cls-4" d="M19.58,40.76H8.73c.1-.35.18-.63.24-.81a15.82,15.82,0,0,0,1.14-5h8.08a15.82,15.82,0,0,0,1.14,5C19.39,40.13,19.48,40.41,19.58,40.76Z"/><path class="cls-9" d="M19.58,40.76H8.73c.1-.35.18-.63.24-.81a15.82,15.82,0,0,0,1.14-5h8.08a15.82,15.82,0,0,0,1.14,5C19.39,40.13,19.48,40.41,19.58,40.76Z"/><path class="cls-6" d="M19.58,40.76H18.24A17.94,17.94,0,0,1,17,36c0-.33,0-.67-.05-1h1.29a15.82,15.82,0,0,0,1.14,5C19.39,40.13,19.48,40.41,19.58,40.76Z"/><path class="cls-10" d="M9,27.46a8.17,8.17,0,0,1,.48,1.23,12.24,12.24,0,0,1,.45,2A37.45,37.45,0,0,1,10.11,35h8.08a36.11,36.11,0,0,1,.24-4.33,11.19,11.19,0,0,1,.92-3.21c.43-.75,1.85-2.47,2.91-4.29a17.65,17.65,0,0,0,1.94-4.1"/><path class="cls-10" d="M21.2,17.32A7.93,7.93,0,0,1,18,22a9.33,9.33,0,0,1-3.89,1.18H12.59c-.77.26-2.34.34-3.64.84a4.86,4.86,0,0,0-2.4,2,63.26,63.26,0,0,0-2.79,5.73c-.48,1-1.51,2.39-1,3.21a2.5,2.5,0,0,0,1.77.91,23.77,23.77,0,0,0,4.92-7.22"/><path class="cls-10" d="M18.19,35a15.82,15.82,0,0,0,1.14,5c.06.18.15.46.25.81H8.73c.1-.35.18-.63.24-.81a15.82,15.82,0,0,0,1.14-5"/><path class="cls-11" d="M21.34,9.69a42.25,42.25,0,0,1-.08,7c-.16,1.41-.19,3.11.92,3.48s2.11-.44,2.13-1.88A64.65,64.65,0,0,0,23,10.18a8.74,8.74,0,0,1-.14-.87,11.4,11.4,0,0,0-.57-3,21.64,21.64,0,0,0-2.06-1.41.72.72,0,0,0-.72-.15c-.15.1-.18.33,0,.51s1.08,1,1.11,1.27,0,.65.07,1-.09.32-.25.25L20,7.52c-.28-.13-.59-.09-.56.16s.21.38.41.52A11.23,11.23,0,0,1,20.9,9c.23.21.44.44.44.66"/><path class="cls-12" d="M5.74,33.87a2,2,0,0,0-2.44-.43c-1.33.84-.53,2.1.71,2.85A17.61,17.61,0,0,0,9,37.75a.89.89,0,0,0,.86-.25,13,13,0,0,1,.82-1.75s1.31-.33,1.55-.92c.12-.31,0-.67-.24-.73l-.06,0c-.5-.12-1.84.09-2.11.52s-.34.59-.59,1a.69.69,0,0,1-.45.35A11.88,11.88,0,0,1,5.74,33.87Z"/><path class="cls-11" d="M5.74,33.87a2,2,0,0,0-2.44-.43c-1.33.84-.53,2.1.71,2.85A17.61,17.61,0,0,0,9,37.75a.89.89,0,0,0,.86-.25,13,13,0,0,1,.82-1.75s1.31-.33,1.55-.92c.12-.31,0-.67-.24-.73l-.06,0c-.5-.12-1.84.09-2.11.52s-.34.59-.59,1a.69.69,0,0,1-.45.35A11.88,11.88,0,0,1,5.74,33.87Z"/><path class="cls-11" d="M4,36.29A17.61,17.61,0,0,0,9,37.75a.89.89,0,0,0,.86-.25,13,13,0,0,1,.82-1.75s1.31-.33,1.55-.92c.12-.31,0-.67-.24-.73l-.06,0c-.5-.12-1.84.09-2.11.52s-.34.59-.59,1a.69.69,0,0,1-.45.35,11.88,11.88,0,0,1-3-2"/><path class="cls-13" d="M28.17,31.55s1.1,1.8,1.55,2.39A7.13,7.13,0,0,0,32,36a.54.54,0,0,0,.38-.29c.21-.31.29-.49.49-.82a2.35,2.35,0,0,1,1.79-.43h.05a.47.47,0,0,1,.2.62c-.2.5-1.3.78-1.3.78a12.86,12.86,0,0,0-.7,1.47.72.72,0,0,1-.72.22,13.32,13.32,0,0,1-3.72-2.15,11.6,11.6,0,0,1-2.61-2.82,1.57,1.57,0,0,1-.24-1.28,31.63,31.63,0,0,1,3.52-4.57C30.23,25.62,30.89,25,32,25v3.6a.71.71,0,0,0-.55.08A27.09,27.09,0,0,0,28.17,31.55Z"/><path class="cls-11" d="M28.17,31.55s1.1,1.8,1.55,2.39A7.13,7.13,0,0,0,32,36a.54.54,0,0,0,.38-.29c.21-.31.29-.49.49-.82a2.35,2.35,0,0,1,1.79-.43h.05a.47.47,0,0,1,.2.62c-.2.5-1.3.78-1.3.78a12.86,12.86,0,0,0-.7,1.47.72.72,0,0,1-.72.22,13.32,13.32,0,0,1-3.72-2.15,11.6,11.6,0,0,1-2.61-2.82,1.57,1.57,0,0,1-.24-1.28,31.63,31.63,0,0,1,3.52-4.57C30.23,25.62,30.89,25,32,25v3.6a.71.71,0,0,0-.55.08A27.09,27.09,0,0,0,28.17,31.55Z"/><path class="cls-14" d="M44.76,20.28v0c0,.26-.09.56-.16,1a14.42,14.42,0,0,1-2.1,4.66c-.76,1-1.47,1.77-1.47,1.77l-.81-3.46a9.62,9.62,0,0,0,1.93-3.93c.11-.52,0-.71.11-1.23v0c0-.1,0-.2,0-.31s0-.37,0-.55A46.74,46.74,0,0,0,42.41,11c0-.21-.2-.43-.42-.62a8.74,8.74,0,0,0-1-.79c-.18-.13-.35-.25-.38-.49s.26-.28.53-.15l.51.23c.15.07.26,0,.24-.23s0-.79-.07-.94-.84-1-1-1.21-.17-.39,0-.48.43,0,.68.13a20,20,0,0,1,1.82,1.22,11,11,0,0,1,.54,2.84,7.55,7.55,0,0,0,.13.83,45,45,0,0,1,.76,4.9c.08.67,0,1.46.11,2.14S44.76,19.63,44.76,20.28Z"/><path class="cls-11" d="M44.76,20.28v0c0,.26-.09.56-.16,1a14.42,14.42,0,0,1-2.1,4.66c-.76,1-1.47,1.77-1.47,1.77l-.81-3.46a9.62,9.62,0,0,0,1.93-3.93,5.47,5.47,0,0,0,.08-.93c0-.09.08-1,.1-1.19A46.74,46.74,0,0,0,42.41,11c0-.21-.2-.43-.42-.62a8.74,8.74,0,0,0-1-.79c-.18-.13-.35-.25-.38-.49s.26-.28.53-.15l.51.23c.15.07.26,0,.24-.23s0-.79-.07-.94-.84-1-1-1.21-.17-.39,0-.48.43,0,.68.13a20,20,0,0,1,1.82,1.22,11,11,0,0,1,.54,2.84,7.55,7.55,0,0,0,.13.83c.38,1.6.81,6.36.87,7S44.76,19.63,44.76,20.28Z"/><path class="cls-4" d="M33,37.1a15.18,15.18,0,0,0,0-5.7,9,9,0,0,0-.56-2.47.76.76,0,0,0-.44-.35V25h0a6.73,6.73,0,0,0,2.32-.3,5.15,5.15,0,0,0,.85-.43,2.3,2.3,0,0,0,1.27.54,3.49,3.49,0,0,0,1.65-.54.75.75,0,0,0,.54.43,2.05,2.05,0,0,0,1.7-.61s.8,3.45.8,3.45a5.7,5.7,0,0,0-.66.78A17.51,17.51,0,0,0,40,31.4,15.17,15.17,0,0,0,40,37,.18.18,0,0,0,40,37a.7.7,0,0,1,0,.12s0,.07,0,.11,0,0,0,0a5,5,0,0,0,.38.94c.33.65.78,1.54,1.25,2.53H31.31c.47-1,.92-1.88,1.25-2.53a5,5,0,0,0,.4-1s0,0,0,0Z"/><path class="cls-15" d="M33,37.1a15.18,15.18,0,0,0,0-5.7,9,9,0,0,0-.56-2.47.76.76,0,0,0-.44-.35V25h0a6.73,6.73,0,0,0,2.32-.3,5.15,5.15,0,0,0,.85-.43,2.3,2.3,0,0,0,1.27.54,3.49,3.49,0,0,0,1.65-.54.75.75,0,0,0,.54.43,2.05,2.05,0,0,0,1.7-.61s.8,3.45.8,3.45a5.7,5.7,0,0,0-.66.78A17.51,17.51,0,0,0,40,31.4,15.17,15.17,0,0,0,40,37,.18.18,0,0,0,40,37a.7.7,0,0,1,0,.12s0,.07,0,.11,0,0,0,0a5,5,0,0,0,.38.94c.33.65.78,1.54,1.25,2.53H31.31c.47-1,.92-1.88,1.25-2.53a5,5,0,0,0,.4-1s0,0,0,0Z"/><path class="cls-6" d="M41.48,40.73H40.17a21.28,21.28,0,0,1-1.5-3.93,18.88,18.88,0,0,1-.11-4.07c0-1.58-1.53-1.43-2.72-1.43A2.8,2.8,0,0,1,34,30.66c.2,0,3.18,0,5,0,.65,0,1-.67,1-1-.09.55-.17,1.16-.23,1.69a15.34,15.34,0,0,0,0,5.57.14.14,0,0,0,0,.06,1.3,1.3,0,0,0,0,.13.37.37,0,0,0,0,.11h0a4.87,4.87,0,0,0,.39,1C40.56,38.84,41,39.74,41.48,40.73Z"/><path class="cls-6" d="M41.19,27.52a6.37,6.37,0,0,0-.66.78,7.31,7.31,0,0,0-.31,1.38.74.74,0,0,1,0-.21c.16-1.29-.33-1.54-.21-2a3.62,3.62,0,0,1,.9-1.18C41.06,27,41.19,27.52,41.19,27.52Z"/><path class="cls-6" d="M41,27.49a5.59,5.59,0,0,0-.65.78A6,6,0,0,0,40,29.65a.74.74,0,0,1,0-.21c.16-1.29-.33-1.54-.22-2a3.77,3.77,0,0,1,.9-1.18C40.84,26.93,41,27.49,41,27.49Z"/><line class="cls-16" x1="33.43" y1="35.14" x2="39.58" y2="35.14"/><path class="cls-10" d="M33,37.1a15.18,15.18,0,0,0,0-5.7,9,9,0,0,0-.56-2.47.76.76,0,0,0-.44-.35V25h0a6.73,6.73,0,0,0,2.32-.3,5.15,5.15,0,0,0,.85-.43,2.3,2.3,0,0,0,1.27.54,3.49,3.49,0,0,0,1.65-.54.84.84,0,0,0,.54.43c.75.28,1.74-.61,1.7-.61s0,0,0,0l.8,3.45a4.09,4.09,0,0,0-.66.78A17.51,17.51,0,0,0,40,31.4,15.17,15.17,0,0,0,40,37,.18.18,0,0,0,40,37a.7.7,0,0,1,0,.12s0,.07,0,.11,0,0,0,0a5,5,0,0,0,.38.94c.33.65.78,1.54,1.25,2.53H31.31c.47-1,.92-1.88,1.25-2.53a5,5,0,0,0,.4-1s0,0,0,0Z"/><path class="cls-4" d="M36.45,17.56c0-.66-.66-.89-.88-.46a17.4,17.4,0,0,1-1.27,3.27c-1.41,2.37-3.76,1.76-4.31.52a2.07,2.07,0,0,1-.15-.93c.52.93,1.06.91,1.87.25a13.3,13.3,0,0,0,1.94-2.83c.33-.65.76-2.35,1.92-2s1.2,1.83,1.2,1.83"/><path class="cls-17" d="M36.71,17.25l-.11.13a1.76,1.76,0,0,0-.86-1.3c-.41-.18-.88.15-1.1,1.09a7.69,7.69,0,0,1-2,3.89,1.74,1.74,0,0,1-2.44-.12,1.41,1.41,0,0,1-.33-.76h0c.75,1.22,2,.51,3.54-2.05.54-.91.91-3,2.07-2.72S36.71,17.25,36.71,17.25Z"/><path class="cls-4" d="M35.26,15.51h0a.81.81,0,0,1,.25,0c.77.2,1,1.09,1,1.46a.69.69,0,0,0-.11-.13.72.72,0,0,0-.5-.22.61.61,0,0,0-.55.33,5,5,0,0,0-.26.76,9.82,9.82,0,0,1-1,2.51,2.65,2.65,0,0,1-2.26,1.5,1.82,1.82,0,0,1-1.65-1l-.06-.16a.93.93,0,0,0,.54.16c1.08,0,2.22-1.72,3-3.16.12-.22.23-.45.33-.67.37-.79.69-1.46,1.27-1.46m0-.23c-.91,0-1.23,1.19-1.8,2.25-.93,1.76-2,3-2.78,3a1,1,0,0,1-.84-.61v0a2,2,0,0,0,.15.91A2,2,0,0,0,31.85,22a2.89,2.89,0,0,0,2.45-1.6,17.67,17.67,0,0,0,1.27-3.28.39.39,0,0,1,.35-.22.6.6,0,0,1,.53.68l.21-.26.11-.14s0-1.53-1.2-1.83a1.24,1.24,0,0,0-.31-.05Z"/><path class="cls-18" d="M37.89,25.29a20.65,20.65,0,0,1,.6-2.33.68.68,0,0,1,.6-.42l.47,0c.19,0,.51-.26.69-.72a6,6,0,0,0,.22-2.75,1.88,1.88,0,0,0-.54-1.38,3,3,0,0,0-1.9-.44,2.21,2.21,0,0,0-2,1.93,13.37,13.37,0,0,0,0,1.94,6,6,0,0,1-.85,3.2s-.29.77.92,1.25A1.51,1.51,0,0,0,37.89,25.29Z"/><path class="cls-11" d="M37.89,25.29a20.65,20.65,0,0,1,.6-2.33.68.68,0,0,1,.6-.42l.47,0c.19,0,.51-.26.69-.72a6,6,0,0,0,.22-2.75,1.88,1.88,0,0,0-.54-1.38,3,3,0,0,0-1.9-.44,2.21,2.21,0,0,0-2,1.93,13.37,13.37,0,0,0,0,1.94,6,6,0,0,1-.85,3.2s-.29.77.92,1.25A1.51,1.51,0,0,0,37.89,25.29Z"/><path class="cls-19" d="M36,21.15a4.76,4.76,0,0,0,.78-.2,5.17,5.17,0,0,0,1.55-1.26c.22-.32.62-.21.63.07s.34.18.39-.15a2,2,0,0,1,1-1.16,1.58,1.58,0,0,0-.56-1,2.2,2.2,0,0,0-2-.62,2.55,2.55,0,0,0-2.14,1.91C35.64,19.65,36.06,20.34,36,21.15Z"/><path class="cls-20" d="M36,21.15a4.76,4.76,0,0,0,.78-.2,5.17,5.17,0,0,0,1.55-1.26c.22-.32.62-.21.63.07s.34.18.39-.15a2,2,0,0,1,1-1.16,1.58,1.58,0,0,0-.56-1,2.2,2.2,0,0,0-2-.62,2.55,2.55,0,0,0-2.14,1.91C35.64,19.65,36.06,20.34,36,21.15Z"/><path class="cls-4" d="M37.9,17.7a1.53,1.53,0,0,0-1.07,1.75A1.86,1.86,0,0,1,36.7,21h0l.1,0a5.17,5.17,0,0,0,1.55-1.26c.22-.32.62-.21.63.07s.34.18.39-.15a1.46,1.46,0,0,1,.4-.68l.24-.24A1.62,1.62,0,0,0,37.9,17.7Z"/><path class="cls-21" d="M37.9,17.7a1.53,1.53,0,0,0-1.07,1.75A1.86,1.86,0,0,1,36.7,21h0l.1,0a5.17,5.17,0,0,0,1.55-1.26c.22-.32.62-.21.63.07s.34.18.39-.15a1.46,1.46,0,0,1,.4-.68l.24-.24A1.62,1.62,0,0,0,37.9,17.7Z"/><path class="cls-22" d="M36,21.15a4.76,4.76,0,0,0,.78-.2,5.17,5.17,0,0,0,1.55-1.26c.22-.32.62-.21.63.07s.34.18.39-.15a2,2,0,0,1,1-1.16,1.58,1.58,0,0,0-.56-1,2.33,2.33,0,0,0-2-.62,2.19,2.19,0,0,0-2.14,1.91C35.64,19.65,36.06,20.34,36,21.15Z"/><ellipse class="cls-23" cx="38.41" cy="20.26" rx="0.57" ry="0.69" transform="translate(-0.47 0.93) rotate(-1.37)"/><path class="cls-24" d="M34.94,35.07c-.2.5-1.3.78-1.3.78a13.4,13.4,0,0,0-.71,1.47.75.75,0,0,1-.72.22,9.32,9.32,0,0,1-2.63-1.38l.82-1.43A4.66,4.66,0,0,0,32,36a.55.55,0,0,0,.39-.29c.21-.31.29-.49.49-.81a2.33,2.33,0,0,1,1.8-.44h0C35,34.51,35,34.82,34.94,35.07Z"/><path class="cls-11" d="M28.82,35.63a11.84,11.84,0,0,0,3.4,1.91.72.72,0,0,0,.72-.22,12.86,12.86,0,0,1,.7-1.47s1.1-.28,1.3-.78a.47.47,0,0,0-.2-.62h-.05a2.35,2.35,0,0,0-1.79.43c-.2.33-.28.51-.49.82A.54.54,0,0,1,32,36a7.07,7.07,0,0,1-2.31-2"/><path class="cls-25" d="M18.35,19.93c-.15.8-.41,1.34-.82,1.41a1,1,0,0,1-.34-.06.5.5,0,0,0-.61.23,10.26,10.26,0,0,0-.73,1.78c.42.37.36.72.05,1a2.87,2.87,0,0,1-1.75.54,2.73,2.73,0,0,1-1.6-.44.79.79,0,0,1-.18-1.2,5.57,5.57,0,0,0,1.17-3.08c0-.42.06-.88,0-1.33s0-3.23,1.8-3.31a11.42,11.42,0,0,1,2.5,0,4.13,4.13,0,0,1,.4,1.22A13.53,13.53,0,0,1,18.35,19.93Z"/><path class="cls-11" d="M18.35,19.93c-.15.8-.41,1.34-.82,1.41a1,1,0,0,1-.34-.06.5.5,0,0,0-.61.23,10.26,10.26,0,0,0-.73,1.78c.42.37.36.72.05,1a2.87,2.87,0,0,1-1.75.54,2.73,2.73,0,0,1-1.6-.44.79.79,0,0,1-.18-1.2,5.57,5.57,0,0,0,1.17-3.08c0-.42.06-.88,0-1.33s0-3.23,1.8-3.31a11.42,11.42,0,0,1,2.5,0,4.13,4.13,0,0,1,.4,1.22A13.53,13.53,0,0,1,18.35,19.93Z"/><path class="cls-26" d="M18.25,15.63a1.59,1.59,0,0,1,0,.87,1,1,0,0,0-.61.06,2.07,2.07,0,0,0-.85,1.09c-.12.47-.14.58-.28.62s-.24-.11-.24-.11a.41.41,0,0,0-.27-.1.56.56,0,0,0-.46.52,1.27,1.27,0,0,0-.72.63,1.57,1.57,0,0,1-1.31.76,1.49,1.49,0,0,0-.06-.25c-.07-.26-.11-.66-.26-1.22a3.38,3.38,0,0,1,0-2.35,2.71,2.71,0,0,1,2.53-1.29A3,3,0,0,1,18.25,15.63Z"/><path class="cls-4" d="M17.9,16.48a1.13,1.13,0,0,0-.24.08,2.18,2.18,0,0,0-.85,1.09c-.12.47-.14.58-.27.62s-.25-.11-.25-.11a.39.39,0,0,0-.27-.1.53.53,0,0,0-.43.41l0,.11a1.31,1.31,0,0,0-.72.63,1.1,1.1,0,0,1-.14.21A18.76,18.76,0,0,1,14.24,17a1.28,1.28,0,0,1,1.07-1.4,4.53,4.53,0,0,1,2.35.17A.61.61,0,0,1,17.9,16.48Z"/><path class="cls-27" d="M17.9,16.48a1.13,1.13,0,0,0-.24.08,2.18,2.18,0,0,0-.85,1.09c-.12.47-.14.58-.27.62s-.25-.11-.25-.11a.39.39,0,0,0-.27-.1.53.53,0,0,0-.43.41l0,.11a1.31,1.31,0,0,0-.72.63,1.1,1.1,0,0,1-.14.21A18.76,18.76,0,0,1,14.24,17a1.28,1.28,0,0,1,1.07-1.4,4.53,4.53,0,0,1,2.35.17A.61.61,0,0,1,17.9,16.48Z"/><path class="cls-28" d="M16.34,18.36a.3.3,0,0,0,.21-.1c.1-.1.16-.15.28-.63a2,2,0,0,1,.85-1.08,1,1,0,0,1,.61-.07,1.55,1.55,0,0,0,0-.86,3,3,0,0,0-2.51-.77,2.7,2.7,0,0,0-2.53,1.28,3.41,3.41,0,0,0,0,2.36c.15.55.19.83.27,1.17,0,.16.05.3.05.3a1.58,1.58,0,0,0,1.31-.76,1.2,1.2,0,0,1,.72-.64,2.83,2.83,0,0,1,.36,0H16"/><ellipse class="cls-23" cx="16.16" cy="18.71" rx="0.77" ry="0.64" transform="translate(-2.7 34.7) rotate(-89.46)"/></g></svg>