<svg xmlns="http://www.w3.org/2000/svg" xmlns:xlink="http://www.w3.org/1999/xlink" viewBox="0 0 48 48"><defs><style>.cls-1{fill:url(#radial-gradient);}.cls-2{fill:#204a87;stroke:#3465a4;stroke-linecap:round;stroke-linejoin:round;}.cls-2,.cls-7{stroke-width:0.35px;}.cls-3{fill:url(#linear-gradient);}.cls-4{fill:url(#New_Gradient_Swatch_2);}.cls-5{fill:#c4d7eb;}.cls-6{fill:url(#linear-gradient-2);}.cls-18,.cls-7{fill:none;stroke-miterlimit:10;}.cls-7{stroke:#d0dfef;}.cls-8{fill:#729fcf;}.cls-9{fill:url(#linear-gradient-3);}.cls-10{fill:url(#linear-gradient-4);}.cls-11{fill:url(#linear-gradient-5);}.cls-12{fill:url(#linear-gradient-6);}.cls-13{fill:url(#linear-gradient-7);}.cls-14{fill:url(#linear-gradient-8);}.cls-15{fill:url(#linear-gradient-9);}.cls-16{fill:url(#linear-gradient-10);}.cls-17{fill:#8ae234;}.cls-18{stroke-width:0.5px;stroke:url(#linear-gradient-11);}</style><radialGradient id="radial-gradient" cx="39.64" cy="37.28" r="19.81" gradientTransform="translate(-23.21 28.04) scale(1.19 0.25)" gradientUnits="userSpaceOnUse"><stop offset="0.03" stop-color="#2c2c2c" stop-opacity="0.5"/><stop offset="0.68" stop-color="#2c2c2c" stop-opacity="0.1"/><stop offset="0.93" stop-color="#2c2c2c" stop-opacity="0"/></radialGradient><linearGradient id="linear-gradient" x1="24" y1="16.79" x2="24" y2="22.97" gradientUnits="userSpaceOnUse"><stop offset="0" stop-color="#00255d" stop-opacity="0"/><stop offset="1" stop-color="#00255d"/></linearGradient><linearGradient id="New_Gradient_Swatch_2" x1="24" y1="13.18" x2="24" y2="18.16" gradientUnits="userSpaceOnUse"><stop offset="0" stop-color="#729fcf"/><stop offset="1" stop-color="#3465a4"/></linearGradient><linearGradient id="linear-gradient-2" x1="22.44" y1="14.21" x2="25.9" y2="14.21" gradientUnits="userSpaceOnUse"><stop offset="0" stop-color="#b2cbe5"/><stop offset="1" stop-color="#3465a4"/></linearGradient><linearGradient id="linear-gradient-3" x1="24" y1="28.03" x2="24" y2="40.52" xlink:href="#linear-gradient"/><linearGradient id="linear-gradient-4" x1="24" y1="23.24" x2="24" y2="33.6" xlink:href="#linear-gradient-2"/><linearGradient id="linear-gradient-5" x1="14.15" y1="22.03" x2="14.15" y2="40.09" xlink:href="#linear-gradient-2"/><linearGradient id="linear-gradient-6" x1="1234.15" y1="22.03" x2="1234.15" y2="40.09" gradientTransform="matrix(-1, 0, 0, 1, 1268, 0)" xlink:href="#linear-gradient-2"/><linearGradient id="linear-gradient-7" x1="24" y1="25.46" x2="24" y2="22.14" xlink:href="#linear-gradient-2"/><linearGradient id="linear-gradient-8" x1="22.44" y1="19.5" x2="25.9" y2="19.5" xlink:href="#linear-gradient-2"/><linearGradient id="linear-gradient-9" x1="14.23" y1="2.9" x2="14.23" y2="24.4" xlink:href="#linear-gradient-2"/><linearGradient id="linear-gradient-10" x1="1234.23" y1="2.9" x2="1234.23" y2="24.4" gradientTransform="matrix(-1, 0, 0, 1, 1268, 0)" xlink:href="#linear-gradient-2"/><linearGradient id="linear-gradient-11" x1="3.69" y1="36.89" x2="44.31" y2="36.89" gradientUnits="userSpaceOnUse"><stop offset="0" stop-color="#73d216"/><stop offset="1" stop-color="#4e9a06"/></linearGradient></defs><title>23-Pose Difference</title><g id="shadow"><ellipse class="cls-1" cx="23.8" cy="37.28" rx="22.58" ry="4.74"/></g><g id="ART"><path class="cls-2" d="M24,18.71a20.64,20.64,0,0,0,3.57-1.1,14.76,14.76,0,0,0,6.23-3.7,2.63,2.63,0,0,0,1.53.56,2,2,0,0,0,1.55-.25,3,3,0,0,1-.05,1.15,16.9,16.9,0,0,1-4,4.33C30.55,21.65,29.21,23,29.21,23a19.86,19.86,0,0,0-.55,3.87c-.11,2.27,0,5.91,0,5.91H19.37s.08-3.64,0-5.91A19.86,19.86,0,0,0,18.79,23s-1.34-1.36-3.67-3.31a17,17,0,0,1-3.95-4.33,3,3,0,0,1-.05-1.15,2,2,0,0,0,1.55.25,2.63,2.63,0,0,0,1.53-.56,14.76,14.76,0,0,0,6.23,3.7A20.64,20.64,0,0,0,24,18.71"/><path class="cls-3" d="M24,18.71a20.64,20.64,0,0,0,3.57-1.1,14.76,14.76,0,0,0,6.23-3.7,2.63,2.63,0,0,0,1.53.56,2,2,0,0,0,1.55-.25,3,3,0,0,1-.05,1.15,16.9,16.9,0,0,1-4,4.33C30.55,21.65,29.21,23,29.21,23a19.86,19.86,0,0,0-.55,3.87c-.11,2.27,0,5.91,0,5.91H19.37s.08-3.64,0-5.91A19.86,19.86,0,0,0,18.79,23s-1.34-1.36-3.67-3.31a17,17,0,0,1-3.95-4.33,3,3,0,0,1-.05-1.15,2,2,0,0,0,1.55.25,2.63,2.63,0,0,0,1.53-.56,14.76,14.76,0,0,0,6.23,3.7A20.64,20.64,0,0,0,24,18.71"/><path class="cls-4" d="M34.57,14.31a1.79,1.79,0,0,1-.77-.4,14.76,14.76,0,0,1-6.23,3.7A20.64,20.64,0,0,1,24,18.71a20.64,20.64,0,0,1-3.57-1.1,14.76,14.76,0,0,1-6.23-3.7,1.79,1.79,0,0,1-.77.4,9.12,9.12,0,0,0,3.68,3.32A24.79,24.79,0,0,0,24,20.25a24.79,24.79,0,0,0,6.89-2.62A9.12,9.12,0,0,0,34.57,14.31Z"/><ellipse class="cls-5" cx="21.74" cy="14.47" rx="0.61" ry="0.82"/><ellipse class="cls-5" cx="26.26" cy="14.47" rx="0.61" ry="0.82"/><rect class="cls-6" x="21.89" y="11.32" width="4.21" height="5.79" rx="2.11"/><rect class="cls-7" x="21.89" y="11.32" width="4.21" height="5.79" rx="2.11"/><path class="cls-2" d="M24,12.91c.46,0,.56-.29,1.12-.29a1,1,0,0,1,1,.74v1a5.42,5.42,0,0,0,.28-1.85c0-1.14-.88-2-2.39-2s-2.39.83-2.39,2a5.42,5.42,0,0,0,.28,1.85v-1a1,1,0,0,1,1-.74C23.44,12.62,23.54,12.91,24,12.91Z"/><path class="cls-8" d="M24,24c.82,0,2.34-.43,3.73-.37a5,5,0,0,1,2.94,1.16c.9.61,3.16,2.12,4.12,2.7s1.86,1.25,1.89,2.21a5.72,5.72,0,0,0,1,2.32,29.61,29.61,0,0,1-8.46-3.72,20.84,20.84,0,0,0-.55,3.87c-.12,2.27,0,5.15,0,5.15H19.37s.09-2.88,0-5.15a20.84,20.84,0,0,0-.55-3.87A29.61,29.61,0,0,1,10.33,32a5.72,5.72,0,0,0,1-2.32c0-1,.93-1.62,1.89-2.21s3.22-2.09,4.12-2.7a5,5,0,0,1,2.94-1.16c1.39-.06,2.91.37,3.73.37"/><path class="cls-9" d="M24,24c.82,0,2.34-.43,3.73-.37a5,5,0,0,1,2.94,1.16c.9.61,3.16,2.12,4.12,2.7s1.86,1.25,1.89,2.21a5.72,5.72,0,0,0,1,2.32,29.61,29.61,0,0,1-8.46-3.72,20.84,20.84,0,0,0-.55,3.87c-.12,2.27,0,5.15,0,5.15H19.37s.09-2.88,0-5.15a20.84,20.84,0,0,0-.55-3.87A29.61,29.61,0,0,1,10.33,32a5.72,5.72,0,0,0,1-2.32c0-1,.93-1.62,1.89-2.21s3.22-2.09,4.12-2.7a5,5,0,0,1,2.94-1.16c1.39-.06,2.91.37,3.73.37"/><path class="cls-10" d="M36.7,30a65.75,65.75,0,0,1-6.83-4,3.8,3.8,0,0,0-3.14-1.15,22.79,22.79,0,0,1-2.73.53,22.79,22.79,0,0,1-2.73-.53,3.8,3.8,0,0,0-3.14,1.15,65.75,65.75,0,0,1-6.83,4,2.11,2.11,0,0,0,0-.25c0-1,.93-1.63,1.89-2.21s3.22-2.09,4.12-2.7a4.87,4.87,0,0,1,2.94-1.16c1.4-.06,2.9.37,3.73.37s2.33-.43,3.73-.37a4.87,4.87,0,0,1,2.94,1.16c.9.61,3.16,2.12,4.12,2.7s1.86,1.25,1.89,2.21A2.11,2.11,0,0,0,36.7,30Z"/><path class="cls-7" d="M24,24c.82,0,2.34-.43,3.73-.37a5,5,0,0,1,2.94,1.16c.9.61,3.16,2.12,4.12,2.7s1.86,1.25,1.89,2.21a5.72,5.72,0,0,0,1,2.32,29.61,29.61,0,0,1-8.46-3.72,20.84,20.84,0,0,0-.55,3.87c-.12,2.27,0,5.15,0,5.15H19.37s.09-2.88,0-5.15a20.84,20.84,0,0,0-.55-3.87A29.61,29.61,0,0,1,10.33,32a5.72,5.72,0,0,0,1-2.32c0-1,.93-1.62,1.89-2.21s3.22-2.09,4.12-2.7a5,5,0,0,1,2.94-1.16c1.39-.06,2.91.37,3.73.37"/><path class="cls-11" d="M13,28.71c-.53,1.38-1.37,3.35-3,3.35S8.3,30.28,9,29a66.4,66.4,0,0,1,5.2-7.11,2.92,2.92,0,0,1,1.19-.77c.52-.18,1.5-.41,1.89-.49a.47.47,0,0,1,.33,0,9.43,9.43,0,0,1,2.08,1.25.29.29,0,0,1-.09.47,10.43,10.43,0,0,1-1.34.46.49.49,0,0,1-.42-.08,3.3,3.3,0,0,0-1.29-.5.55.55,0,0,0-.5.22A42,42,0,0,0,13,28.71Z"/><path class="cls-7" d="M13,28.71c-.53,1.38-1.37,3.35-3,3.35S8.3,30.28,9,29a66.4,66.4,0,0,1,5.2-7.11,2.92,2.92,0,0,1,1.19-.77c.52-.18,1.5-.41,1.89-.49a.47.47,0,0,1,.33,0,9.43,9.43,0,0,1,2.08,1.25.29.29,0,0,1-.09.47,10.43,10.43,0,0,1-1.34.46.49.49,0,0,1-.42-.08,3.3,3.3,0,0,0-1.29-.5.55.55,0,0,0-.5.22A42,42,0,0,0,13,28.71Z"/><path class="cls-12" d="M35,28.71c.53,1.38,1.37,3.35,3,3.35S39.7,30.28,39,29a66.4,66.4,0,0,0-5.2-7.11,2.92,2.92,0,0,0-1.19-.77c-.52-.18-1.5-.41-1.89-.49a.47.47,0,0,0-.33,0,9.43,9.43,0,0,0-2.08,1.25.29.29,0,0,0,.09.47,10.43,10.43,0,0,0,1.34.46.49.49,0,0,0,.42-.08,3.3,3.3,0,0,1,1.29-.5.55.55,0,0,1,.5.22A42,42,0,0,1,35,28.71Z"/><path class="cls-7" d="M35,28.71c.53,1.38,1.37,3.35,3,3.35S39.7,30.28,39,29a66.4,66.4,0,0,0-5.2-7.11,2.92,2.92,0,0,0-1.19-.77c-.52-.18-1.5-.41-1.89-.49a.47.47,0,0,0-.33,0,9.43,9.43,0,0,0-2.08,1.25.29.29,0,0,0,.09.47,10.43,10.43,0,0,0,1.34.46.49.49,0,0,0,.42-.08,3.3,3.3,0,0,1,1.29-.5.55.55,0,0,1,.5.22A42,42,0,0,1,35,28.71Z"/><path class="cls-13" d="M25.58,21.67a7.75,7.75,0,0,0,.36,2.79c.32.62-.8,1.13-1.94,1.13s-2.26-.51-1.94-1.13a7.75,7.75,0,0,0,.36-2.79"/><path class="cls-7" d="M25.58,21.67a7.75,7.75,0,0,0,.36,2.79c.32.62-.8,1.13-1.94,1.13s-2.26-.51-1.94-1.13a7.75,7.75,0,0,0,.36-2.79"/><ellipse class="cls-5" cx="21.74" cy="19.76" rx="0.61" ry="0.82"/><ellipse class="cls-5" cx="26.26" cy="19.76" rx="0.61" ry="0.82"/><rect class="cls-14" x="21.89" y="16.61" width="4.21" height="5.79" rx="2.11"/><rect class="cls-7" x="21.89" y="16.61" width="4.21" height="5.79" rx="2.11"/><path class="cls-2" d="M24,18.2c.46,0,.56-.29,1.12-.29a1,1,0,0,1,1,.74v1a5.42,5.42,0,0,0,.28-1.85c0-1.14-.88-2-2.39-2s-2.39.83-2.39,2a5.42,5.42,0,0,0,.28,1.85v-1a1,1,0,0,1,1-.74C23.44,17.91,23.54,18.2,24,18.2Z"/><path class="cls-15" d="M17.31,3.88a6.52,6.52,0,0,1-.73,1.23c-.53.59-1.53.57-1.68,1.11a36,36,0,0,0-.38,3.6c-.06,1.6-.32,4.09-.32,4.09a2.63,2.63,0,0,1-1.53.56,2,2,0,0,1-1.55-.25A16.71,16.71,0,0,1,11.7,11l1.44-5.12A11.06,11.06,0,0,0,13,4.52,8,8,0,0,1,13,3.2c0-.19.18-1,.28-1.63a.87.87,0,0,1,.76-.72,4.07,4.07,0,0,1,.85,0,3.9,3.9,0,0,1,.94.19.66.66,0,0,1,.39.77A20.91,20.91,0,0,0,15.74,4c0,.37.11.46.2.43a2.29,2.29,0,0,0,.73-.62.47.47,0,0,1,.57-.19C17.37,3.65,17.36,3.77,17.31,3.88Z"/><path class="cls-7" d="M17.31,3.88a6.52,6.52,0,0,1-.73,1.23c-.53.59-1.53.57-1.68,1.11a36,36,0,0,0-.38,3.6c-.06,1.6-.32,4.09-.32,4.09a2.63,2.63,0,0,1-1.53.56,2,2,0,0,1-1.55-.25A16.71,16.71,0,0,1,11.7,11l1.44-5.12A11.06,11.06,0,0,0,13,4.52,8,8,0,0,1,13,3.2c0-.19.18-1,.28-1.63a.87.87,0,0,1,.76-.72,4.07,4.07,0,0,1,.85,0,3.9,3.9,0,0,1,.94.19.66.66,0,0,1,.39.77A20.91,20.91,0,0,0,15.74,4c0,.37.11.46.2.43a2.29,2.29,0,0,0,.73-.62.47.47,0,0,1,.57-.19C17.37,3.65,17.36,3.77,17.31,3.88Z"/><path class="cls-16" d="M30.69,3.88a6.52,6.52,0,0,0,.73,1.23C32,5.7,33,5.68,33.1,6.22a36,36,0,0,1,.38,3.6c.06,1.6.32,4.09.32,4.09a2.63,2.63,0,0,0,1.53.56,2,2,0,0,0,1.55-.25A16.71,16.71,0,0,0,36.3,11L34.86,5.91A11.06,11.06,0,0,1,35,4.52,8,8,0,0,0,35,3.2c0-.19-.18-1-.28-1.63a.87.87,0,0,0-.76-.72,4.07,4.07,0,0,0-.85,0,3.9,3.9,0,0,0-.94.19.66.66,0,0,0-.39.77A20.91,20.91,0,0,1,32.26,4c0,.37-.11.46-.2.43a2.29,2.29,0,0,1-.73-.62.47.47,0,0,0-.57-.19C30.63,3.65,30.64,3.77,30.69,3.88Z"/><path class="cls-7" d="M30.69,3.88a6.52,6.52,0,0,0,.73,1.23C32,5.7,33,5.68,33.1,6.22a36,36,0,0,1,.38,3.6c.06,1.6.32,4.09.32,4.09a2.63,2.63,0,0,0,1.53.56,2,2,0,0,0,1.55-.25A16.71,16.71,0,0,0,36.3,11L34.86,5.91A11.06,11.06,0,0,1,35,4.52,8,8,0,0,0,35,3.2c0-.19-.18-1-.28-1.63a.87.87,0,0,0-.76-.72,4.07,4.07,0,0,0-.85,0,3.9,3.9,0,0,0-.94.19.66.66,0,0,0-.39.77A20.91,20.91,0,0,1,32.26,4c0,.37-.11.46-.2.43a2.29,2.29,0,0,1-.73-.62.47.47,0,0,0-.57-.19C30.63,3.65,30.64,3.77,30.69,3.88Z"/><path class="cls-17" d="M43.65,36.89l-8-3.25L37,35.89H25V32.77l2.8,1A24.25,24.25,0,0,1,24,26.94a24.25,24.25,0,0,1-3.8,6.84l2.8-1v3.12H11l1.31-2.25-8,3.25,8,3.25L11,37.89H23V41l-2.8-1A24.25,24.25,0,0,1,24,46.84,24.25,24.25,0,0,1,27.8,40L25,41V37.89H37l-1.31,2.25Z"/><path class="cls-18" d="M43.65,36.89l-8-3.25L37,35.89H25V32.77l2.8,1A24.25,24.25,0,0,1,24,26.94a24.25,24.25,0,0,1-3.8,6.84l2.8-1v3.12H11l1.31-2.25-8,3.25,8,3.25L11,37.89H23V41l-2.8-1A24.25,24.25,0,0,1,24,46.84,24.25,24.25,0,0,1,27.8,40L25,41V37.89H37l-1.31,2.25Z"/></g></svg>