<svg xmlns="http://www.w3.org/2000/svg" xmlns:xlink="http://www.w3.org/1999/xlink" viewBox="0 0 48 48"><defs><style>.cls-1{fill:url(#radial-gradient);}.cls-11,.cls-14,.cls-2,.cls-20,.cls-22,.cls-29,.cls-31,.cls-36,.cls-38,.cls-8{fill:none;}.cls-2{stroke:#fff;stroke-width:1.5px;opacity:0.3;}.cls-11,.cls-2,.cls-22,.cls-29,.cls-31,.cls-36,.cls-38{stroke-linecap:round;stroke-linejoin:round;}.cls-24,.cls-3{fill:#204a87;}.cls-4{fill:url(#linear-gradient);}.cls-5{fill:url(#linear-gradient-2);}.cls-6{fill:url(#linear-gradient-3);}.cls-7{fill:url(#linear-gradient-5);}.cls-11,.cls-24,.cls-8{stroke:#3465a4;}.cls-14,.cls-20,.cls-24,.cls-33,.cls-8{stroke-miterlimit:10;}.cls-11,.cls-14,.cls-20,.cls-22,.cls-24,.cls-29,.cls-31,.cls-33,.cls-36,.cls-38,.cls-8{stroke-width:0.35px;}.cls-9{fill:url(#linear-gradient-7);}.cls-10{fill:url(#linear-gradient-8);}.cls-12{fill:#73d216;}.cls-13{fill:url(#linear-gradient-9);}.cls-14{stroke:#eeeeec;}.cls-15{fill:#8ae234;}.cls-16{fill:#4e9a06;}.cls-17{fill:url(#linear-gradient-11);}.cls-18,.cls-33{fill:#729fcf;}.cls-19{fill:url(#linear-gradient-12);}.cls-20,.cls-33,.cls-38{stroke:#d0dfef;}.cls-21{fill:url(#linear-gradient-13);}.cls-22{stroke:url(#New_Gradient_Swatch_2);}.cls-23{fill:url(#linear-gradient-14);}.cls-25{fill:url(#linear-gradient-15);}.cls-26{fill:url(#linear-gradient-17);}.cls-27{fill:url(#linear-gradient-18);}.cls-28{fill:url(#linear-gradient-19);}.cls-29{stroke:url(#New_Gradient_Swatch_2-2);}.cls-30{fill:url(#linear-gradient-20);}.cls-31{stroke:url(#New_Gradient_Swatch_2-3);}.cls-32{fill:url(#linear-gradient-22);}.cls-34{fill:url(#linear-gradient-24);}.cls-35{fill:url(#linear-gradient-25);}.cls-36{stroke:#729fcf;}.cls-37{fill:url(#linear-gradient-26);}.cls-39{fill:url(#linear-gradient-27);}.cls-40{fill:#2e3436;}.cls-41{fill:url(#linear-gradient-28);}.cls-42{fill:url(#linear-gradient-30);}.cls-43{fill:url(#linear-gradient-31);}.cls-44{fill:#c4a000;}.cls-45{fill:url(#linear-gradient-33);}.cls-46{fill:#fce94f;}.cls-47{fill:#ef2929;}.cls-48{fill:url(#linear-gradient-35);}.cls-49{fill:url(#linear-gradient-37);}</style><radialGradient id="radial-gradient" cx="70.35" cy="40.95" r="20.08" gradientTransform="translate(-59.63 28.7) scale(1.19 0.3)" gradientUnits="userSpaceOnUse"><stop offset="0.03" stop-color="#2c2c2c" stop-opacity="0.5"/><stop offset="0.68" stop-color="#2c2c2c" stop-opacity="0.1"/><stop offset="0.93" stop-color="#2c2c2c" stop-opacity="0"/></radialGradient><linearGradient id="linear-gradient" x1="26.64" y1="36.85" x2="30.41" y2="36.85" gradientUnits="userSpaceOnUse"><stop offset="0" stop-color="#00255d" stop-opacity="0"/><stop offset="1" stop-color="#00255d"/></linearGradient><linearGradient id="linear-gradient-2" x1="26.56" y1="36.58" x2="27.82" y2="41.67" xlink:href="#linear-gradient"/><linearGradient id="linear-gradient-3" x1="28.46" y1="36.91" x2="27.12" y2="33.84" xlink:href="#linear-gradient"/><linearGradient id="linear-gradient-5" x1="28.8" y1="41.82" x2="24.92" y2="36.94" xlink:href="#linear-gradient"/><linearGradient id="linear-gradient-7" x1="23.49" y1="36.45" x2="23.89" y2="42.74" xlink:href="#linear-gradient"/><linearGradient id="linear-gradient-8" x1="23.64" y1="37.23" x2="23.56" y2="34.43" xlink:href="#linear-gradient"/><linearGradient id="linear-gradient-9" x1="20" y1="21.72" x2="12.95" y2="9.26" gradientUnits="userSpaceOnUse"><stop offset="0" stop-color="#fff" stop-opacity="0"/><stop offset="1" stop-color="snow"/></linearGradient><linearGradient id="linear-gradient-11" x1="9.6" y1="31.04" x2="22.65" y2="20.49" gradientUnits="userSpaceOnUse"><stop offset="0" stop-color="#8ae234" stop-opacity="0"/><stop offset="0.95" stop-color="#2e3436"/></linearGradient><linearGradient id="linear-gradient-12" x1="36.13" y1="14.82" x2="35.36" y2="20.5" gradientUnits="userSpaceOnUse"><stop offset="0" stop-color="#b2cbe5"/><stop offset="1" stop-color="#3465a4"/></linearGradient><linearGradient id="linear-gradient-13" x1="16.12" y1="23.29" x2="18.82" y2="23.29" xlink:href="#linear-gradient"/><linearGradient id="New_Gradient_Swatch_2" x1="15.94" y1="23.29" x2="19" y2="23.29" gradientUnits="userSpaceOnUse"><stop offset="0" stop-color="#729fcf"/><stop offset="1" stop-color="#3465a4"/></linearGradient><linearGradient id="linear-gradient-14" x1="12.05" y1="23.99" x2="15.8" y2="28.07" xlink:href="#linear-gradient-12"/><linearGradient id="linear-gradient-15" x1="32.99" y1="21.69" x2="30.1" y2="20.13" xlink:href="#linear-gradient"/><linearGradient id="linear-gradient-17" x1="23.98" y1="23.31" x2="28.38" y2="48.53" xlink:href="#linear-gradient"/><linearGradient id="linear-gradient-18" x1="22.41" y1="29.99" x2="20.51" y2="24.26" xlink:href="#linear-gradient"/><linearGradient id="linear-gradient-19" x1="21.79" y1="27.7" x2="20.43" y2="24.54" xlink:href="#linear-gradient"/><linearGradient id="New_Gradient_Swatch_2-2" x1="19.23" y1="26.12" x2="29.65" y2="26.12" xlink:href="#New_Gradient_Swatch_2"/><linearGradient id="linear-gradient-20" x1="18.13" y1="20.19" x2="21.16" y2="23.15" xlink:href="#linear-gradient"/><linearGradient id="New_Gradient_Swatch_2-3" x1="16.26" y1="21.99" x2="22.83" y2="21.99" xlink:href="#New_Gradient_Swatch_2"/><linearGradient id="linear-gradient-22" x1="26.38" y1="19.89" x2="25.29" y2="13.75" xlink:href="#linear-gradient-9"/><linearGradient id="linear-gradient-24" x1="22.23" y1="16.86" x2="24.25" y2="17.18" xlink:href="#linear-gradient-12"/><linearGradient id="linear-gradient-25" x1="27.49" y1="22.14" x2="25.56" y2="18.78" xlink:href="#linear-gradient-12"/><linearGradient id="linear-gradient-26" x1="20.71" y1="13.78" x2="27.06" y2="14.34" xlink:href="#linear-gradient-12"/><linearGradient id="linear-gradient-27" x1="20.87" y1="14.63" x2="26.4" y2="15.12" gradientTransform="translate(2.7 -3.45) rotate(9.35)" xlink:href="#linear-gradient-12"/><linearGradient id="linear-gradient-28" x1="22.28" y1="22.49" x2="18.66" y2="12.65" xlink:href="#linear-gradient-9"/><linearGradient id="linear-gradient-30" x1="21.72" y1="3.63" x2="27.57" y2="9.63" gradientUnits="userSpaceOnUse"><stop offset="0" stop-color="#fce94f"/><stop offset="1" stop-color="#c4a000"/></linearGradient><linearGradient id="linear-gradient-31" x1="28.36" y1="2.09" x2="25.96" y2="6.97" xlink:href="#linear-gradient-30"/><linearGradient id="linear-gradient-33" x1="22.21" y1="2.07" x2="24.93" y2="5.71" xlink:href="#linear-gradient-30"/><linearGradient id="linear-gradient-35" x1="21.94" y1="5.64" x2="24.55" y2="5.64" gradientUnits="userSpaceOnUse"><stop offset="0" stop-color="#ff7878"/><stop offset="1" stop-color="#ef2929"/></linearGradient><linearGradient id="linear-gradient-37" x1="26.63" y1="5.59" x2="24.85" y2="5.59" xlink:href="#linear-gradient-35"/></defs><title>31-Capture Packed Geo</title><g id="shadow"><ellipse class="cls-1" cx="23.8" cy="40.95" rx="22.88" ry="5.8"/></g><g id="ART"><path class="cls-2" d="M27,4.86a2.6,2.6,0,0,0-5.19,0c-2.09.28-3.54.87-3.54,1.55,0,1,2.75,1.72,6.14,1.72s6.14-.77,6.14-1.72C30.58,5.73,29.12,5.14,27,4.86Z"/><path class="cls-2" d="M23.36,20.73A33.1,33.1,0,0,1,23.5,15a.74.74,0,0,0-.27-.66h0l-1.56-1.16a1.88,1.88,0,0,0-1.59-.29l-4,1.15a3.15,3.15,0,0,0-2,1.67A10.34,10.34,0,0,0,13,19.89a27.09,27.09,0,0,0,1,7c.12.43.25.84.38,1.19a2.74,2.74,0,0,0,1.47,1.59l2,.88h0a.84.84,0,0,0,.71,0l5.28-2.25a.88.88,0,0,0,.5-.93C24.08,26,23.57,22.81,23.36,20.73Z"/><path class="cls-3" d="M29.48,39.56a4.22,4.22,0,0,1-2.25,1.16,3.15,3.15,0,0,1-1.74-.12l-1-.38V34.53c.2,0,.41-.06.64-.1A8.62,8.62,0,0,0,28.68,33a3.91,3.91,0,0,1,.08.5c0,.55.07,3.79.15,4.58A3.6,3.6,0,0,0,29.48,39.56Z"/><path class="cls-4" d="M29.48,39.56a4.22,4.22,0,0,1-2.25,1.16,3.15,3.15,0,0,1-1.74-.12l-1-.38V34.53c.2,0,.41-.06.64-.1A8.62,8.62,0,0,0,28.68,33a3.91,3.91,0,0,1,.08.5c0,.55.07,3.79.15,4.58A3.6,3.6,0,0,0,29.48,39.56Z"/><path class="cls-5" d="M29.48,39.56a4.22,4.22,0,0,1-2.25,1.16,3.15,3.15,0,0,1-1.74-.12l-1-.38V34.53c.2,0,.41-.06.64-.1A8.62,8.62,0,0,0,28.68,33a3.91,3.91,0,0,1,.08.5c0,.55.07,3.79.15,4.58A3.6,3.6,0,0,0,29.48,39.56Z"/><path class="cls-6" d="M28.77,34.15a4.24,4.24,0,0,1-2,1.28l-1.28-.84,0-.25A8.34,8.34,0,0,0,28.68,33a3.91,3.91,0,0,1,.08.5C28.76,33.57,28.77,33.82,28.77,34.15Z"/><path class="cls-6" d="M28.77,34.15a4.24,4.24,0,0,1-2,1.28l-1.28-.84,0-.25A8.34,8.34,0,0,0,28.68,33a3.91,3.91,0,0,1,.08.5C28.76,33.57,28.77,33.82,28.77,34.15Z"/><path class="cls-7" d="M27.27,40.71h0a3.15,3.15,0,0,1-1.74-.12l-1-.38V34.53l.57-.09,1.58.71A21.5,21.5,0,0,0,27.27,40.71Z"/><path class="cls-7" d="M27.27,40.71h0a3.15,3.15,0,0,1-1.74-.12l-1-.38V34.53l.57-.09,1.58.71A21.5,21.5,0,0,0,27.27,40.71Z"/><path class="cls-8" d="M29.48,39.56a4.22,4.22,0,0,1-2.25,1.16,3.15,3.15,0,0,1-1.74-.12l-1-.38V34.53c.2,0,.41-.06.64-.1A8.62,8.62,0,0,0,28.68,33a3.91,3.91,0,0,1,.08.5c0,.55.07,3.79.15,4.58A3.6,3.6,0,0,0,29.48,39.56Z"/><path class="cls-3" d="M25.67,37.53V40a1.6,1.6,0,0,0,.4.9,3.72,3.72,0,0,1-2.86,1.12,3.79,3.79,0,0,1-2.83-1,18.45,18.45,0,0,0,.22-3c0-.83-.22-1.52-.22-2.57A3.71,3.71,0,0,1,21,33.4a6.39,6.39,0,0,0,4.12.24,12,12,0,0,0,1.61-.45c0,.69.08,1.53.08,1.85a2.14,2.14,0,0,1-.18,1.26A10,10,0,0,1,25.67,37.53Z"/><path class="cls-9" d="M25.67,37.53V40a1.6,1.6,0,0,0,.4.9,3.72,3.72,0,0,1-2.86,1.12,3.79,3.79,0,0,1-2.83-1,18.45,18.45,0,0,0,.22-3c0-.83-.22-1.52-.22-2.57A3.71,3.71,0,0,1,21,33.4a6.39,6.39,0,0,0,4.12.24,12,12,0,0,0,1.61-.45c0,.69.08,1.53.08,1.85a2.14,2.14,0,0,1-.18,1.26A10,10,0,0,1,25.67,37.53Z"/><path class="cls-10" d="M21,33.4a6.39,6.39,0,0,0,4.12.24,12,12,0,0,0,1.61-.45c0,.69.08,1.53.08,1.85,0,.15,0,.28,0,.39a7.11,7.11,0,0,1-3.06.56,5.28,5.28,0,0,1-3.34-.82"/><path class="cls-11" d="M26.59,36.3a10,10,0,0,1-.92,1.23V40a1.6,1.6,0,0,0,.4.9,3.72,3.72,0,0,1-2.86,1.12,3.79,3.79,0,0,1-2.83-1,18.45,18.45,0,0,0,.22-3c0-.83-.22-1.52-.22-2.57A3.71,3.71,0,0,1,21,33.4a6.39,6.39,0,0,0,4.12.24,12,12,0,0,0,1.61-.45"/><path class="cls-12" d="M14,26.89a27.09,27.09,0,0,1-1-7,10.34,10.34,0,0,1,1.08-4.18,3.15,3.15,0,0,1,2-1.67l4-1.15a1.88,1.88,0,0,1,1.59.29l1.58,1.17-.9,5L17.81,30.55l-2-.88a2.74,2.74,0,0,1-1.47-1.59C14.25,27.73,14.12,27.32,14,26.89Z"/><path class="cls-13" d="M23.23,14.34l-.39,2.19c-2.09,1.36-4.17,2.4-5.49,2.32-2.65-.18-3.8,2.5-4.2,3.86A19.88,19.88,0,0,1,13,19.89a10.08,10.08,0,0,1,1.08-4.19A3.16,3.16,0,0,1,16,14l4-1.15a1.91,1.91,0,0,1,1.6.29Z"/><path class="cls-13" d="M23.23,14.34l-.39,2.19c-2.09,1.36-4.17,2.4-5.49,2.32-2.65-.18-3.8,2.5-4.2,3.86A19.88,19.88,0,0,1,13,19.89a10.08,10.08,0,0,1,1.08-4.19A3.16,3.16,0,0,1,16,14l4-1.15a1.91,1.91,0,0,1,1.6.29Z"/><path class="cls-14" d="M14.29,21.72a13.16,13.16,0,0,1,.22-3.52,9.88,9.88,0,0,1,.8-2.13,1.81,1.81,0,0,1,1.07-.92l5-1.59s.55-.19.81,0"/><path class="cls-15" d="M20.55,13.53a1.09,1.09,0,0,1,.68.22l1.24.91-.81,4.53L17.44,29.62,16.13,29A2.08,2.08,0,0,1,15,27.84c-.14-.39-.26-.77-.35-1.13a26.32,26.32,0,0,1-1-6.81,9.81,9.81,0,0,1,1-3.89,2.5,2.5,0,0,1,1.56-1.3l4-1.14a1.1,1.1,0,0,1,.31,0m0-.7a2.05,2.05,0,0,0-.49.06l-4,1.15a3.15,3.15,0,0,0-2,1.67A10.34,10.34,0,0,0,13,19.89a27.09,27.09,0,0,0,1,7c.12.43.25.84.38,1.19a2.74,2.74,0,0,0,1.47,1.59l2,.88,4.52-11.16.9-5-1.58-1.17a1.89,1.89,0,0,0-1.1-.35Z"/><path class="cls-16" d="M15.72,21.54A14.63,14.63,0,0,1,16.33,17a1.92,1.92,0,0,1,1.31-1.27L22.5,14.2a.77.77,0,0,1,1,.81,33.1,33.1,0,0,0-.14,5.72c.21,2.08.72,5.28.95,6.64a.88.88,0,0,1-.5.93l-5.28,2.25a.84.84,0,0,1-1.15-.47A29.69,29.69,0,0,1,15.72,21.54Z"/><path class="cls-17" d="M16,21.48a13.32,13.32,0,0,1,.56-4.27A1.8,1.8,0,0,1,17.82,16l4.51-1.44a.71.71,0,0,1,.91.74,32.48,32.48,0,0,0,.12,5.4c.21,2.08.86,4.95,1.09,6.31A.85.85,0,0,1,24,28l-5.28,2.26a.85.85,0,0,1-1.15-.47A30.6,30.6,0,0,1,16,21.48Z"/><path class="cls-18" d="M26.91,17.38A20.76,20.76,0,0,1,29.65,17a46.83,46.83,0,0,1,10,.54c1,.13,1.83,0,2.69.1a2.6,2.6,0,0,1,2.12,1.18c.07.2-.1.37-.35.32a2.92,2.92,0,0,0-1.53-.41.42.42,0,0,0-.41.54.63.63,0,0,0,.51.22c.23,0,.45.05.45.2s0,.46-.67.37a5.7,5.7,0,0,1-1.87-.74,12.33,12.33,0,0,0-4.09-.3,36.39,36.39,0,0,0-7.11,1.68,1.73,1.73,0,0,1-2-1.11A7.69,7.69,0,0,1,26.91,17.38Z"/><path class="cls-19" d="M26.91,17.38A20.76,20.76,0,0,1,29.65,17a46.83,46.83,0,0,1,10,.54c1,.13,1.83,0,2.69.1a2.6,2.6,0,0,1,2.12,1.18c.07.2-.1.37-.35.32a2.92,2.92,0,0,0-1.53-.41.42.42,0,0,0-.41.54.63.63,0,0,0,.51.22c.23,0,.45.05.45.2s0,.46-.67.37a5.7,5.7,0,0,1-1.87-.74,12.33,12.33,0,0,0-4.09-.3,36.39,36.39,0,0,0-7.11,1.68,1.73,1.73,0,0,1-2-1.11A7.69,7.69,0,0,1,26.91,17.38Z"/><path class="cls-20" d="M26.91,17.38A20.76,20.76,0,0,1,29.65,17a46.83,46.83,0,0,1,10,.54c1,.13,1.83,0,2.69.1a2.6,2.6,0,0,1,2.12,1.18c.07.2-.1.37-.35.32a2.92,2.92,0,0,0-1.53-.41.42.42,0,0,0-.41.54.63.63,0,0,0,.51.22c.23,0,.45.05.45.2s0,.46-.67.37a5.7,5.7,0,0,1-1.87-.74,12.33,12.33,0,0,0-4.09-.3,36.39,36.39,0,0,0-7.11,1.68,1.73,1.73,0,0,1-2-1.11A7.69,7.69,0,0,1,26.91,17.38Z"/><path class="cls-3" d="M16.44,21.24c-.49.13-.4,1.37.13,2.35s1.12,2,1.58,1.71,1-.91.39-2.34-1.16-1.25-1.16-1.25"/><path class="cls-21" d="M16.44,21.24c-.49.13-.4,1.37.13,2.35s1.12,2,1.58,1.71,1-.91.39-2.34-1.16-1.25-1.16-1.25"/><path class="cls-22" d="M16.44,21.24c-.49.13-.4,1.37.13,2.35s1.12,2,1.58,1.71,1-.91.39-2.34-1.16-1.25-1.16-1.25"/><path class="cls-18" d="M21.84,18.58a20.25,20.25,0,0,0-2.95,1.18,64.72,64.72,0,0,0-7.09,6c-2.59,2.44-3.59,3.41-3.59,3.41a17.13,17.13,0,0,0-1.88,1.63c-.59.67-1,2-.62,2.44a1.37,1.37,0,0,0,1.53.15c.29-.22.91-1,1.47-1.5s.69-.27.77-.13a1.33,1.33,0,0,1,0,.74c-.08.18-.22.2-.17.4s.44.24.73,0a2.56,2.56,0,0,0,.64-1.21c.13-.44-.12-1.16-.07-1.38a1.41,1.41,0,0,1,.62-1c.59-.5,4.78-3.67,6.19-4.48a12.41,12.41,0,0,1,3.43-1.63,2.36,2.36,0,0,0,1.68-2C22.63,20.16,22.41,18.86,21.84,18.58Z"/><path class="cls-23" d="M21.84,18.58a20.25,20.25,0,0,0-2.95,1.18,64.72,64.72,0,0,0-7.09,6c-2.59,2.44-3.59,3.41-3.59,3.41a17.13,17.13,0,0,0-1.88,1.63c-.59.67-1,2-.62,2.44a1.37,1.37,0,0,0,1.53.15c.29-.22.91-1,1.47-1.5s.69-.27.77-.13a1.33,1.33,0,0,1,0,.74c-.08.18-.22.2-.17.4s.44.24.73,0a2.56,2.56,0,0,0,.64-1.21c.13-.44-.12-1.16-.07-1.38a1.41,1.41,0,0,1,.62-1c.59-.5,4.78-3.67,6.19-4.48a12.41,12.41,0,0,1,3.43-1.63,2.36,2.36,0,0,0,1.68-2C22.63,20.16,22.41,18.86,21.84,18.58Z"/><path class="cls-20" d="M21.84,18.58a20.25,20.25,0,0,0-2.95,1.18,64.72,64.72,0,0,0-7.09,6c-2.59,2.44-3.59,3.41-3.59,3.41a17.13,17.13,0,0,0-1.88,1.63c-.59.67-1,2-.62,2.44a1.37,1.37,0,0,0,1.53.15c.29-.22.91-1,1.47-1.5s.69-.27.77-.13a1.33,1.33,0,0,1,0,.74c-.08.18-.22.2-.17.4s.44.24.73,0a2.56,2.56,0,0,0,.64-1.21c.13-.44-.12-1.16-.07-1.38a1.41,1.41,0,0,1,.62-1c.59-.5,4.78-3.67,6.19-4.48a12.41,12.41,0,0,1,3.43-1.63,2.36,2.36,0,0,0,1.68-2C22.63,20.16,22.41,18.86,21.84,18.58Z"/><path class="cls-24" d="M26.94,17.3a27.27,27.27,0,0,1,5.15-.48s.91.11.93,1.38a2.9,2.9,0,0,1-1,2.36s-1,.25-1.61.43-1.28.72-1.33,1.12A7.07,7.07,0,0,1,27.89,21C27.78,20.68,26.94,17.3,26.94,17.3Z"/><path class="cls-25" d="M32.91,19.11a2.72,2.72,0,0,1-.9,1.45s-1,.25-1.61.43-1.28.72-1.33,1.12l-.62-.52.35-1.23A30.37,30.37,0,0,1,32.91,19.11Z"/><path class="cls-25" d="M32.91,19.11a2.72,2.72,0,0,1-.9,1.45s-1,.25-1.61.43-1.28.72-1.33,1.12l-.62-.52.35-1.23A30.37,30.37,0,0,1,32.91,19.11Z"/><path class="cls-8" d="M26.94,17.3a27.27,27.27,0,0,1,5.15-.48s.91.11.93,1.38a2.9,2.9,0,0,1-1,2.36s-1,.25-1.61.43-1.28.72-1.33,1.12A7.07,7.07,0,0,1,27.89,21C27.78,20.68,26.94,17.3,26.94,17.3Z"/><path class="cls-3" d="M21.36,18.7a3.85,3.85,0,0,0-1.89,1.88c-.36,1.18.84,4.28,1.34,7a10.58,10.58,0,0,1-.57,6.18S21,35,23.44,34.94a9.43,9.43,0,0,0,5.27-2c.71-.62.76-1.06.76-1.06a5,5,0,0,1-.64-1.9A53.05,53.05,0,0,1,29,23.56c.27-1.92,0-4.51-.47-5.22s-.89-1.13-1.58-1-1.57.35-2.44.52C23.87,17.94,22.11,18.5,21.36,18.7Z"/><path class="cls-26" d="M21.36,18.7a3.85,3.85,0,0,0-1.89,1.88c-.36,1.18.84,4.28,1.34,7a10.58,10.58,0,0,1-.57,6.18S21,35,23.44,34.94a9.43,9.43,0,0,0,5.27-2c.71-.62.76-1.06.76-1.06a5,5,0,0,1-.64-1.9A53.05,53.05,0,0,1,29,23.56c.27-1.92,0-4.51-.47-5.22s-.89-1.13-1.58-1-1.57.35-2.44.52C23.87,17.94,22.11,18.5,21.36,18.7Z"/><path class="cls-8" d="M21.36,18.7a3.85,3.85,0,0,0-1.89,1.88c-.36,1.18.84,4.28,1.34,7a10.58,10.58,0,0,1-.57,6.18S21,35,23.44,34.94a9.43,9.43,0,0,0,5.27-2c.71-.62.76-1.06.76-1.06a5,5,0,0,1-.64-1.9A53.05,53.05,0,0,1,29,23.56c.27-1.92,0-4.51-.47-5.22s-.89-1.13-1.58-1-1.57.35-2.44.52C23.87,17.94,22.11,18.5,21.36,18.7Z"/><path class="cls-27" d="M21,29.2h0a11.22,11.22,0,0,0-.18-1.59C20.52,26,20,24.37,19.69,23l1.37-.38.58,1.54A17.56,17.56,0,0,1,21,29.2Z"/><path class="cls-28" d="M21,29.2h0a11.22,11.22,0,0,0-.18-1.59C20.52,26,20,24.37,19.69,23l1.37-.38.58,1.54A17.56,17.56,0,0,1,21,29.2Z"/><path class="cls-29" d="M21.36,18.7a3.85,3.85,0,0,0-1.89,1.88c-.36,1.18.84,4.28,1.34,7a10.58,10.58,0,0,1-.57,6.18S21,35,23.44,34.94a9.43,9.43,0,0,0,5.27-2c.71-.62.76-1.06.76-1.06a5,5,0,0,1-.64-1.9A53.05,53.05,0,0,1,29,23.56c.27-1.92,0-4.51-.47-5.22s-.89-1.13-1.58-1-1.57.35-2.44.52C23.87,17.94,22.11,18.5,21.36,18.7Z"/><path class="cls-3" d="M16.44,21.24c.3,0,.82.49,1.34,1.29a4.1,4.1,0,0,1,.59,2.15c0,.49-.22.62-.22.62a7.1,7.1,0,0,1,1.63-.84c.74-.23,1.48-.24,1.92-.38s1-1.68.95-3.06S22,18.51,21.36,18.7a13.41,13.41,0,0,0-2.11.79A16.12,16.12,0,0,0,16.44,21.24Z"/><path class="cls-30" d="M22.65,21c0,1.38-.51,2.91-.95,3.06s-1.19.15-1.92.38a6.81,6.81,0,0,0-1.59.81.92.92,0,0,0,.18-.59,3.84,3.84,0,0,0-.09-.84c.57-.21,2.36-.87,2.9-1s.84-2,.46-2.84c-.29-.63-.67-1-1.18-1,.36-.13.65-.22.9-.29C22,18.51,22.63,19.64,22.65,21Z"/><path class="cls-30" d="M22.65,21c0,1.38-.51,2.91-.95,3.06s-1.19.15-1.92.38a6.81,6.81,0,0,0-1.59.81.92.92,0,0,0,.18-.59,3.84,3.84,0,0,0-.09-.84c.57-.21,2.36-.87,2.9-1s.84-2,.46-2.84c-.29-.63-.67-1-1.18-1,.36-.13.65-.22.9-.29C22,18.51,22.63,19.64,22.65,21Z"/><path class="cls-31" d="M16.44,21.24c.3,0,.82.49,1.34,1.29a4.1,4.1,0,0,1,.59,2.15c0,.49-.22.62-.22.62a7.1,7.1,0,0,1,1.63-.84c.74-.23,1.48-.24,1.92-.38s1-1.68.95-3.06S22,18.51,21.36,18.7a13.41,13.41,0,0,0-2.11.79A16.12,16.12,0,0,0,16.44,21.24Z"/><path class="cls-15" d="M21.48,14.51a4.24,4.24,0,0,1,4.25,1c2.24,1.9,2.95,4.59,3.42,6.17s.07,2.11.07,2.11l0,.38a1.69,1.69,0,0,0,.62-.63,8.58,8.58,0,0,0-1.74-7.12,6.74,6.74,0,0,0-5.59-2.18Z"/><path class="cls-32" d="M29.32,18.45a3,3,0,0,0-1.31.12,9,9,0,0,0-2.28-3,4.58,4.58,0,0,0-3.53-1.2l.28-.07a6.75,6.75,0,0,1,5.59,2.17A7.19,7.19,0,0,1,29.32,18.45Z"/><path class="cls-32" d="M29.32,18.45a3,3,0,0,0-1.31.12,9,9,0,0,0-2.28-3,4.58,4.58,0,0,0-3.53-1.2l.28-.07a6.75,6.75,0,0,1,5.59,2.17A7.19,7.19,0,0,1,29.32,18.45Z"/><path class="cls-16" d="M25.93,15.25a6.34,6.34,0,0,1,1.88,1.43,8.25,8.25,0,0,1,1.84,5.6,5.33,5.33,0,0,0-.16-.67l-.07-.25A12,12,0,0,0,26,15.28l0,0m-2.87-1a4.75,4.75,0,0,0-.58,0l-.31.08a3.58,3.58,0,0,1,.49,0,4.7,4.7,0,0,1,3.07,1.22c2.24,1.9,2.95,4.58,3.42,6.17s.07,2.11.07,2.11l0,.38a1.69,1.69,0,0,0,.62-.63,8.58,8.58,0,0,0-1.74-7.12,6.71,6.71,0,0,0-5-2.21Zm-.89.11a2.75,2.75,0,0,0-.69.16l.69-.16Z"/><ellipse class="cls-33" cx="26.52" cy="14.32" rx="0.56" ry="0.7"/><ellipse class="cls-20" cx="26.52" cy="14.32" rx="0.56" ry="0.7"/><path class="cls-34" d="M22.41,14.73a10.8,10.8,0,0,1-.14,2.93c-.2.71.63,1.31,1.08,1.49a3.51,3.51,0,0,0,2.11,0,1.07,1.07,0,0,0,.67-1.31A3.76,3.76,0,0,1,26,16.4v-.46"/><path class="cls-35" d="M22.45,15.55V16l2,3.33a2.89,2.89,0,0,0,1.05-.16,1.3,1.3,0,0,0,.73-1A2.25,2.25,0,0,1,26,17"/><path class="cls-36" d="M22.41,14.73a10.8,10.8,0,0,1-.14,2.93c-.2.71.63,1.31,1.08,1.49a3.51,3.51,0,0,0,2.11,0,1.07,1.07,0,0,0,.67-1.31A3.76,3.76,0,0,1,26,16.4v-.46"/><path class="cls-37" d="M24.69,10.9c.56,0,1.83-.05,1.83,1.14v3.35c0,.62-.13,2-1.61,2a2,2,0,0,1-2.15-1.77V12.78A1.82,1.82,0,0,1,24.69,10.9Z"/><path class="cls-38" d="M22.76,13.59v-.81a1.82,1.82,0,0,1,1.93-1.88c.56,0,1.83-.05,1.83,1.14v3.35c0,.62-.13,2-1.61,2a2.68,2.68,0,0,1-.79-.12"/><path class="cls-24" d="M23,14.07a1,1,0,0,0,.3-.76c0-.43,0-.89.28-1.11a.86.86,0,0,1,1,0,2.06,2.06,0,0,0,1.06.34,1.12,1.12,0,0,0,.87-.46V11.7c0-.3-.41-1.14-1.79-1.14S22.28,11.11,22,12a4,4,0,0,0,.39,2.71A7.48,7.48,0,0,1,23,14.07Z"/><path class="cls-18" d="M26.38,11.3h0a.35.35,0,0,1-.27.36,2.27,2.27,0,0,1-1.3-.18,1.62,1.62,0,0,0-2.1.63,3.63,3.63,0,0,0,0,2.09,4.78,4.78,0,0,0-.28.54A4,4,0,0,1,22,12c.26-.91,1.33-1.46,2.71-1.46A1.79,1.79,0,0,1,26.38,11.3Z"/><path class="cls-8" d="M23,14.07a1,1,0,0,0,.3-.76c0-.43,0-.89.28-1.11a.86.86,0,0,1,1,0,2.06,2.06,0,0,0,1.06.34,1.12,1.12,0,0,0,.87-.46V11.7c0-.3-.41-1.14-1.79-1.14S22.28,11.11,22,12a4,4,0,0,0,.39,2.71A7.48,7.48,0,0,1,23,14.07Z"/><ellipse class="cls-39" cx="22.44" cy="14.77" rx="0.58" ry="0.78" transform="translate(-2.1 3.84) rotate(-9.35)"/><path class="cls-38" d="M22.84,14.26a.57.57,0,0,0-.53-.26.71.71,0,0,0-.44.87c.07.42.38.72.7.67a.4.4,0,0,0,.2-.09"/><path class="cls-40" d="M20,27.21a7.62,7.62,0,0,1-1.92,1.46l.41.33a8.66,8.66,0,0,0,2.21-1.92"/><path class="cls-40" d="M18.49,29l-1.08,1.13s0,0,0-.05c-.11-.3-.24-.68-.38-1.12.41-.09,1.08-.3,1.08-.3Z"/><path class="cls-15" d="M18.49,29l-1.08,1.13s0,0,0-.05c-.11-.3-.24-.68-.38-1.12.41-.09,1.08-.3,1.08-.3Z"/><path class="cls-15" d="M21.24,17.94a9.06,9.06,0,0,1,.92,5.31A5.21,5.21,0,0,1,20,26.89a.55.55,0,0,0,0,.32l.82-.16a7,7,0,0,0,2.41-3.12,6.79,6.79,0,0,0-1.49-7.29,5.64,5.64,0,0,0-3.18-1.24l-1,.31A4.34,4.34,0,0,1,21.24,17.94Z"/><path class="cls-41" d="M23.48,19.65A3.72,3.72,0,0,0,22,20,8.7,8.7,0,0,0,21.24,18a4.29,4.29,0,0,0-3.72-2.23l1-.32a5.58,5.58,0,0,1,3.18,1.25A6.83,6.83,0,0,1,23.48,19.65Z"/><path class="cls-41" d="M23.48,19.65A3.72,3.72,0,0,0,22,20,8.7,8.7,0,0,0,21.24,18a4.29,4.29,0,0,0-3.72-2.23l1-.32a5.58,5.58,0,0,1,3.18,1.25A6.83,6.83,0,0,1,23.48,19.65Z"/><path class="cls-16" d="M19.77,16a4.16,4.16,0,0,1,1.73.92,6.42,6.42,0,0,1,1.41,6.91,7.08,7.08,0,0,1-1.76,2.54,5.35,5.35,0,0,0,1.36-3,9.48,9.48,0,0,0-1-5.53A4.85,4.85,0,0,0,19.77,16m-1.21-.57-1,.31h.15a4.42,4.42,0,0,1,3.57,2.24,9.06,9.06,0,0,1,.92,5.31A5.21,5.21,0,0,1,20,26.89a.55.55,0,0,0,0,.32l.82-.16h0a7.09,7.09,0,0,0,2.41-3.12,6.79,6.79,0,0,0-1.49-7.29,5.64,5.64,0,0,0-3.18-1.24ZM20,27.21Z"/><ellipse class="cls-42" cx="24.44" cy="6.41" rx="6.14" ry="1.71"/><path class="cls-43" d="M30.58,6.42c0,.56-1,1.06-2.54,1.38-2.34-.31-5-.88-5.36-2.12a1.87,1.87,0,0,1-.05-.9,17.54,17.54,0,0,1,1.8-.08C27.83,4.7,30.58,5.47,30.58,6.42Z"/><path class="cls-43" d="M30.58,6.42c0,.56-1,1.06-2.54,1.38-2.34-.31-5-.88-5.36-2.12a1.87,1.87,0,0,1-.05-.9,17.54,17.54,0,0,1,1.8-.08C27.83,4.7,30.58,5.47,30.58,6.42Z"/><path class="cls-44" d="M24.44,5.05c3.74,0,5.79.9,5.79,1.36s-2.05,1.37-5.79,1.37-5.79-.9-5.79-1.37,2-1.36,5.79-1.36m0-.35c-3.39,0-6.14.77-6.14,1.71s2.75,1.72,6.14,1.72,6.14-.77,6.14-1.72S27.83,4.7,24.44,4.7Z"/><path class="cls-44" d="M24.44,6.54C25.87,6.54,27,6.28,27,6V4.89a2.6,2.6,0,1,0-5.19,0V6C21.84,6.28,23,6.54,24.44,6.54Z"/><path class="cls-45" d="M26.23,3c-.84,0-2.36.42-2.4,2.94a2.47,2.47,0,0,1-.07.57c-1.11-.07-1.92-.29-1.92-.55V4.89a2.6,2.6,0,0,1,2.6-2.6A2.52,2.52,0,0,1,26.23,3Z"/><path class="cls-45" d="M26.23,3c-.84,0-2.36.42-2.4,2.94a2.47,2.47,0,0,1-.07.57c-1.11-.07-1.92-.29-1.92-.55V4.89a2.6,2.6,0,0,1,2.6-2.6A2.52,2.52,0,0,1,26.23,3Z"/><path class="cls-46" d="M24.44,2.64a2.24,2.24,0,0,1,2.24,2.25v1a5.56,5.56,0,0,1-2.24.32,5.62,5.62,0,0,1-2.25-.32v-1a2.25,2.25,0,0,1,2.25-2.25m0-.35a2.59,2.59,0,0,0-2.6,2.6V6c0,.31,1.16.57,2.6.57S27,6.28,27,6V4.89a2.59,2.59,0,0,0-2.59-2.6Z"/><path class="cls-47" d="M24.44,5.43c-1.4,0-2.54-.24-2.59-.54h0V6c0,.31,1.16.57,2.6.57S27,6.28,27,6V4.89h0C27,5.19,25.84,5.43,24.44,5.43Z"/><path class="cls-48" d="M22.64,5.28v1.1c-.5-.11-.8-.25-.8-.41V4.89h0C21.87,5,22.17,5.18,22.64,5.28Z"/><path class="cls-48" d="M22.64,5.28v1.1c-.5-.11-.8-.25-.8-.41V4.89h0C21.87,5,22.17,5.18,22.64,5.28Z"/><path class="cls-49" d="M27,4.89V6c0,.11-.16.22-.44.33V5.18C26.85,5.09,27,5,27,4.89Z"/><path class="cls-49" d="M27,4.89V6c0,.11-.16.22-.44.33V5.18C26.85,5.09,27,5,27,4.89Z"/><path class="cls-40" d="M19.89,27.32a2.82,2.82,0,0,0-.3,1.63,4.56,4.56,0,0,0,.25,1.68l.58-.26a5.54,5.54,0,0,1-.26-1.81,2,2,0,0,1,.46-1.37"/></g></svg>