<?xml version="1.0" encoding="UTF-8" standalone="no"?>
<svg
   xmlns:i="http://ns.adobe.com/AdobeIllustrator/10.0/"
   xmlns:dc="http://purl.org/dc/elements/1.1/"
   xmlns:cc="http://creativecommons.org/ns#"
   xmlns:rdf="http://www.w3.org/1999/02/22-rdf-syntax-ns#"
   xmlns:svg="http://www.w3.org/2000/svg"
   xmlns="http://www.w3.org/2000/svg"
   xmlns:xlink="http://www.w3.org/1999/xlink"
   xmlns:sodipodi="http://sodipodi.sourceforge.net/DTD/sodipodi-0.dtd"
   xmlns:inkscape="http://www.inkscape.org/namespaces/inkscape"
   viewBox="0 0 48 48"
   version="1.1"
   id="svg46157"
   sodipodi:docname="kinefx-rigpython.svg"
   inkscape:version="1.0.1 (3bc2e813f5, 2020-09-07)">
  <metadata
     id="metadata46161">
    <rdf:RDF>
      <cc:Work
         rdf:about="">
        <dc:format>image/svg+xml</dc:format>
        <dc:type
           rdf:resource="http://purl.org/dc/dcmitype/StillImage" />
        <dc:title>8-Agent From Rig</dc:title>
      </cc:Work>
    </rdf:RDF>
  </metadata>
  <sodipodi:namedview
     pagecolor="#ffffff"
     bordercolor="#666666"
     borderopacity="1"
     objecttolerance="10"
     gridtolerance="10"
     guidetolerance="10"
     inkscape:pageopacity="0"
     inkscape:pageshadow="2"
     inkscape:window-width="2560"
     inkscape:window-height="1377"
     id="namedview46159"
     showgrid="false"
     inkscape:zoom="15.3125"
     inkscape:cx="24.130612"
     inkscape:cy="27.010561"
     inkscape:window-x="-8"
     inkscape:window-y="-8"
     inkscape:window-maximized="1"
     inkscape:current-layer="svg46157"
     inkscape:document-rotation="0"
     inkscape:snap-global="false" />
  <defs
     id="defs46029">
    <style
       id="style45970">.cls-1{fill:url(#radial-gradient);}.cls-2,.cls-26{fill:#204a87;}.cls-3{fill:url(#linear-gradient);}.cls-4{fill:url(#linear-gradient-2);}.cls-5{fill:#babdb6;}.cls-6{fill:url(#linear-gradient-3);}.cls-11,.cls-14,.cls-15,.cls-20,.cls-21,.cls-24,.cls-28,.cls-31,.cls-32,.cls-7,.cls-9{fill:none;}.cls-16,.cls-7,.cls-9{stroke:#d0dfef;}.cls-11,.cls-16,.cls-26,.cls-28,.cls-7{stroke-miterlimit:10;}.cls-11,.cls-14,.cls-15,.cls-16,.cls-20,.cls-21,.cls-24,.cls-26,.cls-28,.cls-7,.cls-9{stroke-width:0.35px;}.cls-8{fill:url(#linear-gradient-4);}.cls-14,.cls-15,.cls-20,.cls-21,.cls-24,.cls-31,.cls-32,.cls-9{stroke-linecap:round;stroke-linejoin:round;}.cls-10{fill:url(#linear-gradient-5);}.cls-11,.cls-24{stroke:#729fcf;}.cls-12{fill:url(#linear-gradient-6);}.cls-13{fill:url(#linear-gradient-7);}.cls-14,.cls-26,.cls-28{stroke:#3465a4;}.cls-15{stroke:url(#New_Gradient_Swatch_2);}.cls-16,.cls-27{fill:#729fcf;}.cls-17{fill:url(#linear-gradient-8);}.cls-18{fill:url(#linear-gradient-9);}.cls-19{fill:url(#New_Gradient_Swatch_2-2);}.cls-20{stroke:url(#New_Gradient_Swatch_2-3);}.cls-21{stroke:url(#New_Gradient_Swatch_2-4);}.cls-22{fill:url(#linear-gradient-10);}.cls-23{fill:url(#linear-gradient-11);}.cls-25{fill:url(#linear-gradient-12);}.cls-29{fill:url(#linear-gradient-13);}.cls-30{opacity:0.3;}.cls-31{stroke:#fff;stroke-width:1.5px;}.cls-32{stroke:#8ae234;stroke-width:0.7px;}.cls-33{fill:url(#radial-gradient-2);}.cls-34{fill:url(#radial-gradient-3);}.cls-35{fill:url(#radial-gradient-4);}.cls-36{fill:url(#radial-gradient-5);}.cls-37{fill:url(#radial-gradient-6);}.cls-38{fill:url(#radial-gradient-7);}.cls-39{fill:url(#radial-gradient-8);}.cls-40{fill:url(#radial-gradient-9);}.cls-41{fill:url(#radial-gradient-10);}.cls-42{fill:url(#radial-gradient-11);}.cls-43{fill:url(#radial-gradient-12);}.cls-44{fill:url(#radial-gradient-13);}.cls-45{fill:url(#radial-gradient-14);}.cls-46{fill:url(#radial-gradient-15);}.cls-47{fill:url(#radial-gradient-16);}</style>
    <radialGradient
       id="radial-gradient"
       cx="25.29"
       cy="41.06"
       r="19.3"
       gradientTransform="matrix(1,0,0,0.25,0,30.89)"
       gradientUnits="userSpaceOnUse">
      <stop
         offset="0.03"
         stop-color="#2c2c2c"
         stop-opacity="0.5"
         id="stop45972" />
      <stop
         offset="0.68"
         stop-color="#2c2c2c"
         stop-opacity="0.1"
         id="stop45974" />
      <stop
         offset="0.93"
         stop-color="#2c2c2c"
         stop-opacity="0"
         id="stop45976" />
    </radialGradient>
    <linearGradient
       id="linear-gradient"
       x1="29.46"
       y1="47.66"
       x2="25.87"
       y2="48.03"
       gradientTransform="matrix(1, 0.03, 0, 1, 0, -8.11)"
       gradientUnits="userSpaceOnUse">
      <stop
         offset="0"
         stop-color="#00255d"
         stop-opacity="0"
         id="stop45979" />
      <stop
         offset="1"
         stop-color="#00255d"
         id="stop45981" />
    </linearGradient>
    <linearGradient
       id="linear-gradient-2"
       x1="23.23"
       y1="42.88"
       x2="18.8"
       y2="42.23"
       xlink:href="#linear-gradient" />
    <linearGradient
       id="linear-gradient-3"
       x1="13.8"
       y1="24.55"
       x2="12.46"
       y2="27.9"
       gradientUnits="userSpaceOnUse">
      <stop
         offset="0"
         stop-color="#b2cbe5"
         id="stop45985" />
      <stop
         offset="1"
         stop-color="#3465a4"
         id="stop45987" />
    </linearGradient>
    <linearGradient
       id="linear-gradient-4"
       x1="39.57"
       y1="38.63"
       x2="42.78"
       y2="38.63"
       gradientTransform="rotate(3.84,297.46618,-75.07523)"
       xlink:href="#linear-gradient-3" />
    <linearGradient
       id="linear-gradient-5"
       x1="42.27"
       y1="36.51"
       x2="40.97"
       y2="38.1"
       gradientTransform="rotate(3.84,297.46618,-75.07523)"
       xlink:href="#linear-gradient-3" />
    <linearGradient
       id="linear-gradient-6"
       x1="22.9"
       y1="17.11"
       x2="24.08"
       y2="42.49"
       xlink:href="#linear-gradient" />
    <linearGradient
       id="linear-gradient-7"
       x1="16.34"
       y1="38.9"
       x2="24.36"
       y2="33.07"
       xlink:href="#linear-gradient" />
    <linearGradient
       id="New_Gradient_Swatch_2"
       x1="17.98"
       y1="30.01"
       x2="29.98"
       y2="30.01"
       gradientUnits="userSpaceOnUse">
      <stop
         offset="0"
         stop-color="#729fcf"
         id="stop45994" />
      <stop
         offset="1"
         stop-color="#3465a4"
         id="stop45996" />
    </linearGradient>
    <linearGradient
       id="linear-gradient-8"
       x1="23.43"
       y1="13.24"
       x2="24.82"
       y2="22.71"
       xlink:href="#linear-gradient" />
    <linearGradient
       id="linear-gradient-9"
       x1="21.16"
       y1="20.15"
       x2="20.07"
       y2="14.47"
       xlink:href="#linear-gradient" />
    <linearGradient
       id="New_Gradient_Swatch_2-2"
       x1="13.88"
       y1="7.8"
       x2="19.64"
       y2="14.88"
       xlink:href="#New_Gradient_Swatch_2" />
    <linearGradient
       id="New_Gradient_Swatch_2-3"
       x1="19.37"
       y1="15.38"
       x2="20.16"
       y2="15.38"
       xlink:href="#New_Gradient_Swatch_2" />
    <linearGradient
       id="New_Gradient_Swatch_2-4"
       x1="12.47"
       y1="16.42"
       x2="34.75"
       y2="16.42"
       xlink:href="#New_Gradient_Swatch_2" />
    <linearGradient
       id="linear-gradient-10"
       x1="22.25"
       y1="8.76"
       x2="24"
       y2="9.03"
       xlink:href="#linear-gradient-3" />
    <linearGradient
       id="linear-gradient-11"
       x1="26.79"
       y1="13.32"
       x2="25.12"
       y2="10.41"
       xlink:href="#linear-gradient-3" />
    <linearGradient
       id="linear-gradient-12"
       x1="20.94"
       y1="6.09"
       x2="26.42"
       y2="6.58"
       xlink:href="#linear-gradient-3" />
    <linearGradient
       id="linear-gradient-13"
       x1="21.07"
       y1="6.83"
       x2="25.85"
       y2="7.25"
       gradientTransform="rotate(9.35,22.420715,6.9684287)"
       xlink:href="#linear-gradient-3" />
    <radialGradient
       id="radial-gradient-2"
       cx="24.16"
       cy="6.44"
       r="1.61"
       gradientUnits="userSpaceOnUse">
      <stop
         offset="0.2"
         stop-color="#d6f5b8"
         id="stop46008" />
      <stop
         offset="0.54"
         stop-color="#8ae234"
         id="stop46010" />
      <stop
         offset="1"
         stop-color="#4e9a06"
         id="stop46012" />
    </radialGradient>
    <radialGradient
       id="radial-gradient-3"
       cx="24.04"
       cy="11.11"
       r="1.21"
       xlink:href="#radial-gradient-2" />
    <radialGradient
       id="radial-gradient-4"
       cx="27.47"
       cy="10.15"
       r="1.11"
       xlink:href="#radial-gradient-2" />
    <radialGradient
       id="radial-gradient-5"
       cx="37.55"
       cy="32.22"
       r="1.06"
       gradientTransform="rotate(3.84,297.46618,-75.07523)"
       xlink:href="#radial-gradient-2" />
    <radialGradient
       id="radial-gradient-6"
       cx="40.24"
       cy="37.06"
       r="1.31"
       gradientTransform="rotate(3.84,297.46618,-75.07523)"
       xlink:href="#radial-gradient-2" />
    <radialGradient
       id="radial-gradient-7"
       cx="19.37"
       cy="11.97"
       r="1.24"
       xlink:href="#radial-gradient-2" />
    <radialGradient
       id="radial-gradient-8"
       cx="16.24"
       cy="17.42"
       r="1.38"
       xlink:href="#radial-gradient-2" />
    <radialGradient
       id="radial-gradient-9"
       cx="13.51"
       cy="23.87"
       r="1.66"
       xlink:href="#radial-gradient-2" />
    <radialGradient
       id="radial-gradient-10"
       cx="24.06"
       cy="16"
       r="1.07"
       xlink:href="#radial-gradient-2" />
    <radialGradient
       id="radial-gradient-11"
       cx="21.88"
       cy="21.44"
       r="1.25"
       xlink:href="#radial-gradient-2" />
    <radialGradient
       id="radial-gradient-12"
       cx="21.26"
       cy="30.46"
       r="1.16"
       xlink:href="#radial-gradient-2" />
    <radialGradient
       id="radial-gradient-13"
       cx="19.96"
       cy="40.66"
       r="1.38"
       xlink:href="#radial-gradient-2" />
    <radialGradient
       id="radial-gradient-14"
       cx="25.97"
       cy="20.67"
       r="1.12"
       xlink:href="#radial-gradient-2" />
    <radialGradient
       id="radial-gradient-15"
       cx="27.25"
       cy="29.68"
       r="1.02"
       xlink:href="#radial-gradient-2" />
    <radialGradient
       id="radial-gradient-16"
       cx="28.01"
       cy="39.17"
       r="1.12"
       xlink:href="#radial-gradient-2" />
    <linearGradient
       inkscape:collect="always"
       xlink:href="#linear-gradient"
       id="linearGradient46726"
       gradientUnits="userSpaceOnUse"
       gradientTransform="matrix(1,0.03,0,1,0,-8.11)"
       x1="29.46"
       y1="47.66"
       x2="25.87"
       y2="48.03" />
    <linearGradient
       inkscape:collect="always"
       xlink:href="#linear-gradient-3"
       id="linearGradient46728"
       gradientUnits="userSpaceOnUse"
       x1="13.8"
       y1="24.55"
       x2="12.46"
       y2="27.9" />
    <linearGradient
       inkscape:collect="always"
       xlink:href="#New_Gradient_Swatch_2"
       id="linearGradient46730"
       gradientUnits="userSpaceOnUse"
       x1="17.98"
       y1="30.01"
       x2="29.98"
       y2="30.01" />
    <radialGradient
       inkscape:collect="always"
       xlink:href="#radial-gradient-2"
       id="radialGradient46732"
       gradientUnits="userSpaceOnUse"
       cx="24.16"
       cy="6.44"
       r="1.61" />
    <linearGradient
       id="linearGradient8367">
      <stop
         style="stop-color:#4f595c;stop-opacity:1;"
         offset="0"
         id="stop8369" />
      <stop
         id="stop8375"
         offset="0.21371238"
         style="stop-color:#6c7a7e;stop-opacity:1;" />
      <stop
         style="stop-color:#232829;stop-opacity:1"
         offset="1"
         id="stop8371" />
    </linearGradient>
    <linearGradient
       id="linearGradient8400">
      <stop
         style="stop-color:#ffffff;stop-opacity:1;"
         offset="0"
         id="stop8402" />
      <stop
         style="stop-color:#c4c4be;stop-opacity:1;"
         offset="1"
         id="stop8404" />
    </linearGradient>
    <linearGradient
       id="linearGradient8390">
      <stop
         style="stop-color:#888a85;stop-opacity:1;"
         offset="0"
         id="stop8392" />
      <stop
         style="stop-color:#5c5e5a;stop-opacity:1;"
         offset="1"
         id="stop8394" />
    </linearGradient>
    <linearGradient
       id="linearGradient8408">
      <stop
         style="stop-color:#dbb718;stop-opacity:1;"
         offset="0"
         id="stop8410" />
      <stop
         style="stop-color:#9e830c;stop-opacity:1;"
         offset="1"
         id="stop8412" />
    </linearGradient>
    <linearGradient
       id="linearGradient3374">
      <stop
         style="stop-color:#fce94f;stop-opacity:1"
         offset="0"
         id="stop3376" />
      <stop
         style="stop-color:#dda100;stop-opacity:1;"
         offset="1"
         id="stop3378" />
    </linearGradient>
    <linearGradient
       id="linearGradient3364">
      <stop
         style="stop-color:#729fcf;stop-opacity:1"
         offset="0"
         id="stop3366" />
      <stop
         style="stop-color:#204a87;stop-opacity:1"
         offset="1"
         id="stop3368" />
    </linearGradient>
    <radialGradient
       inkscape:collect="always"
       xlink:href="#linearGradient3364"
       id="radialGradient3372"
       cx="30.589874"
       cy="33.454185"
       fx="30.589874"
       fy="33.454185"
       r="22.801016"
       gradientTransform="matrix(-1.494421,-0.00314943,0.00302379,-1.434801,79.43176,79.21062)"
       gradientUnits="userSpaceOnUse" />
    <radialGradient
       inkscape:collect="always"
       xlink:href="#linearGradient3374"
       id="radialGradient3380"
       cx="31.091391"
       cy="31.322628"
       fx="31.091391"
       fy="31.322628"
       r="22.980897"
       gradientTransform="matrix(-1.369006,-0.01729875,0.01795521,-1.420958,73.09326,76.37932)"
       gradientUnits="userSpaceOnUse" />
  </defs>
  <title
     id="title46031">8-Agent From Rig</title>
  <g
     id="ART"
     transform="matrix(0.91613284,0,0,0.91737974,-10.397584,-2.7105358)"
     style="stroke-width:1.0908">
    <path
       class="cls-2"
       d="m 26.32,39.57 a 2.29,2.29 0 0 0 -0.05,0.53 3.65,3.65 0 0 0 0,0.59 c 0,0.18 0.09,0.35 0.27,0.37 a 20.87,20.87 0 0 1 2.93,0.6 3.64,3.64 0 0 0 1.7,0.09 c 0.27,-0.08 0.49,-0.14 0.6,-0.34 a 0.82,0.82 0 0 0 0,-0.33 c 0,-0.47 -0.9,-0.69 -1.34,-0.87 a 2.8,2.8 0 0 1 -1.14,-0.81 1.68,1.68 0 0 0 -1.52,-0.54 1.94,1.94 0 0 0 -1.45,0.71 z"
       id="path46036"
       style="stroke-width:1.0908" />
    <path
       class="cls-3"
       d="m 26.32,39.57 a 2.29,2.29 0 0 0 -0.05,0.53 3.65,3.65 0 0 0 0,0.59 c 0,0.18 0.09,0.35 0.27,0.37 a 20.87,20.87 0 0 1 2.93,0.6 3.64,3.64 0 0 0 1.7,0.09 c 0.27,-0.08 0.49,-0.14 0.6,-0.34 a 0.82,0.82 0 0 0 0,-0.33 c 0,-0.47 -0.9,-0.69 -1.34,-0.87 a 2.8,2.8 0 0 1 -1.14,-0.81 1.68,1.68 0 0 0 -1.52,-0.54 1.94,1.94 0 0 0 -1.45,0.71 z"
       id="path46038"
       style="fill:url(#linearGradient46726);stroke-width:1.0908" />
    <path
       class="cls-2"
       d="m 18.59,41.35 a 2.31,2.31 0 0 0 -0.1,0.71 3.17,3.17 0 0 0 0.05,0.65 0.41,0.41 0 0 0 0.25,0.31 c 0.21,0.11 0.76,0.24 1.18,0.43 a 7,7 0 0 1 0.94,0.58 5,5 0 0 0 2,0.62 c 0.52,0.07 1.19,0.08 1.48,-0.41 v -0.42 c 0,-0.58 -0.69,-0.84 -1.17,-1.11 a 4.1,4.1 0 0 1 -1.3,-1.21 1.93,1.93 0 0 0 -1.66,-0.84 1.85,1.85 0 0 0 -1.67,0.69 z"
       id="path46040"
       style="stroke-width:1.0908" />
    <path
       class="cls-4"
       d="m 18.59,41.35 a 2.31,2.31 0 0 0 -0.1,0.71 3.17,3.17 0 0 0 0.05,0.65 0.41,0.41 0 0 0 0.25,0.31 c 0.21,0.11 0.76,0.24 1.18,0.43 a 7,7 0 0 1 0.94,0.58 5,5 0 0 0 2,0.62 c 0.52,0.07 1.19,0.08 1.48,-0.41 v -0.42 c 0,-0.58 -0.69,-0.84 -1.17,-1.11 a 4.1,4.1 0 0 1 -1.3,-1.21 1.93,1.93 0 0 0 -1.66,-0.84 1.85,1.85 0 0 0 -1.67,0.69 z"
       id="path46042"
       style="fill:url(#linear-gradient-2);stroke-width:1.0908" />
    <path
       class="cls-5"
       d="m 14.24,23 a 1.35,1.35 0 0 1 1,1.36 3.7,3.7 0 0 1 -0.35,1.69 0.31,0.31 0 0 1 -0.35,0.13 c -0.11,0 -0.13,-0.18 -0.11,-0.41 0.02,-0.23 0,-0.67 -0.16,-0.74 -0.16,-0.07 -0.24,0.21 -0.31,0.46 a 5.43,5.43 0 0 0 -0.07,1 0.93,0.93 0 0 0 0.16,0.56 0.36,0.36 0 0 1 0,0.43 0.46,0.46 0 0 1 -0.55,0 1.68,1.68 0 0 1 -0.61,0 0.87,0.87 0 0 1 -0.54,-0.55 1,1 0 0 1 -0.48,-0.42 2.64,2.64 0 0 1 0,-1.72 2.72,2.72 0 0 1 1.25,-1.66 1.59,1.59 0 0 1 1.12,-0.13 z"
       id="path46044"
       style="stroke-width:1.0908" />
    <path
       class="cls-6"
       d="m 14.24,23 a 1.35,1.35 0 0 1 1,1.36 3.7,3.7 0 0 1 -0.35,1.69 0.31,0.31 0 0 1 -0.35,0.13 c -0.11,0 -0.13,-0.18 -0.11,-0.41 0.02,-0.23 0,-0.67 -0.16,-0.74 -0.16,-0.07 -0.24,0.21 -0.31,0.46 a 5.43,5.43 0 0 0 -0.07,1 0.93,0.93 0 0 0 0.16,0.56 0.36,0.36 0 0 1 0,0.43 0.46,0.46 0 0 1 -0.55,0 1.68,1.68 0 0 1 -0.61,0 0.87,0.87 0 0 1 -0.54,-0.55 1,1 0 0 1 -0.48,-0.42 2.64,2.64 0 0 1 0,-1.72 2.72,2.72 0 0 1 1.25,-1.66 1.59,1.59 0 0 1 1.12,-0.13 z"
       id="path46046"
       style="fill:url(#linearGradient46728);stroke-width:1.0908" />
    <path
       class="cls-7"
       d="m 14.24,23 a 1.35,1.35 0 0 1 1,1.36 3.7,3.7 0 0 1 -0.35,1.69 0.31,0.31 0 0 1 -0.35,0.13 c -0.11,0 -0.13,-0.18 -0.11,-0.41 0.02,-0.23 0,-0.67 -0.16,-0.74 -0.16,-0.07 -0.24,0.21 -0.31,0.46 a 5.43,5.43 0 0 0 -0.07,1 0.93,0.93 0 0 0 0.16,0.56 0.36,0.36 0 0 1 0,0.43 0.46,0.46 0 0 1 -0.55,0 1.68,1.68 0 0 1 -0.61,0 0.87,0.87 0 0 1 -0.54,-0.55 1,1 0 0 1 -0.48,-0.42 2.64,2.64 0 0 1 0,-1.72 2.72,2.72 0 0 1 1.25,-1.66 1.59,1.59 0 0 1 1.12,-0.13 z"
       id="path46048" />
    <path
       class="cls-8"
       d="m 32.62,20 a 1.35,1.35 0 0 0 0.59,1 1.11,1.11 0 0 1 0.41,0.7 c 0,0.23 0.07,0.47 -0.11,0.59 -0.18,0.12 -0.18,0.39 0,0.42 a 0.66,0.66 0 0 0 0.27,0 c -0.29,0.33 -0.07,0.5 0.09,0.5 a 1,1 0 0 0 0.39,-0.15 0.34,0.34 0 0 0 0.44,0 c 0.24,-0.17 0.21,-0.25 0.21,-0.25 a 0.39,0.39 0 0 0 0.38,0 1.68,1.68 0 0 0 0.45,-1.18 2.07,2.07 0 0 0 -0.3,-0.94 c -0.22,-0.21 -0.53,-1.14 -1.15,-1.41 a 1.38,1.38 0 0 0 -1.23,0 0.83,0.83 0 0 0 -0.44,0.72 z"
       id="path46050"
       style="fill:url(#linear-gradient-4);stroke-width:1.0908" />
    <path
       class="cls-9"
       d="m 32.62,20 a 1.35,1.35 0 0 0 0.59,1 1.11,1.11 0 0 1 0.41,0.7 c 0,0.23 0.07,0.47 -0.11,0.59 -0.18,0.12 -0.18,0.39 0,0.42 a 0.66,0.66 0 0 0 0.27,0 c -0.29,0.33 -0.07,0.5 0.09,0.5 a 1,1 0 0 0 0.39,-0.15 0.34,0.34 0 0 0 0.44,0 c 0.24,-0.17 0.21,-0.25 0.21,-0.25 a 0.39,0.39 0 0 0 0.38,0 1.68,1.68 0 0 0 0.45,-1.18 2.07,2.07 0 0 0 -0.3,-0.94 c -0.22,-0.21 -0.53,-1.14 -1.15,-1.41 a 1.38,1.38 0 0 0 -1.23,0 0.83,0.83 0 0 0 -0.44,0.72 z"
       id="path46052" />
    <path
       class="cls-10"
       d="m 33,19.29 a 1.77,1.77 0 0 1 1.7,0.23 1.76,1.76 0 0 1 0.82,1.32 c 0,0.36 0,0.62 -0.22,0.75 a 0.34,0.34 0 0 1 -0.52,-0.19 2.68,2.68 0 0 0 -0.15,-0.55 0.36,0.36 0 0 0 -0.41,-0.22 1.68,1.68 0 0 1 -0.57,0 c -0.17,0 -0.7,0 -0.87,-0.48 A 0.67,0.67 0 0 1 33,19.29 Z"
       id="path46054"
       style="fill:url(#linear-gradient-5);stroke-width:1.0908" />
    <path
       class="cls-9"
       d="m 32.82,20.17 a 0.67,0.67 0 0 1 0.22,-0.88 1.77,1.77 0 0 1 1.7,0.23 1.76,1.76 0 0 1 0.82,1.32 c 0,0.36 0,0.62 -0.22,0.75 a 0.34,0.34 0 0 1 -0.52,-0.19 2.87,2.87 0 0 0 -0.15,-0.55 0.36,0.36 0 0 0 -0.41,-0.22 1.69,1.69 0 0 1 -0.57,0"
       id="path46056" />
    <path
       class="cls-11"
       d="m 18.59,41.35 a 2.31,2.31 0 0 0 -0.1,0.71 3.17,3.17 0 0 0 0.05,0.65 0.41,0.41 0 0 0 0.25,0.31 c 0.21,0.11 0.76,0.24 1.18,0.43 a 7,7 0 0 1 0.94,0.58 5,5 0 0 0 2,0.62 c 0.52,0.07 1.19,0.08 1.48,-0.41 v -0.42 c 0,-0.58 -0.69,-0.84 -1.17,-1.11 a 4.1,4.1 0 0 1 -1.3,-1.21 1.93,1.93 0 0 0 -1.66,-0.84 1.85,1.85 0 0 0 -1.67,0.69 z"
       id="path46058" />
    <path
       class="cls-11"
       d="m 26.32,39.57 a 2.29,2.29 0 0 0 -0.05,0.53 3.65,3.65 0 0 0 0,0.59 c 0,0.18 0.09,0.35 0.27,0.37 a 20.87,20.87 0 0 1 2.93,0.6 3.64,3.64 0 0 0 1.7,0.09 c 0.27,-0.08 0.49,-0.14 0.6,-0.34 a 0.82,0.82 0 0 0 0,-0.33 c 0,-0.47 -0.9,-0.69 -1.34,-0.87 a 2.8,2.8 0 0 1 -1.14,-0.81 1.68,1.68 0 0 0 -1.52,-0.54 1.94,1.94 0 0 0 -1.45,0.71 z"
       id="path46060" />
    <path
       class="cls-2"
       d="m 29.49,37.78 c -0.2,-1.18 -0.42,-6 -0.6,-7.84 -0.18,-1.84 -0.85,-6.4 -1.14,-7.67 a 19.64,19.64 0 0 1 -0.54,-3.76 h -0.08 v 0 c -0.15,-0.7 -1.68,-0.86 -3.57,-0.51 -1.7,0.33 -3,1.05 -3.14,1.71 a 0.8,0.8 0 0 0 -0.1,0.38 c 0,1.08 -0.27,1.4 -0.41,3.28 -0.14,1.88 -0.3,5.16 -0.6,7.25 -0.3,2.09 -1.06,10 -1.14,10.55 -0.08,0.55 0.57,1 1.87,1.08 1.3,0.08 2.42,-0.39 2.51,-0.87 0.09,-0.48 0.31,-5.83 0.59,-9.29 a 70.88,70.88 0 0 1 1,-7.37 34.7,34.7 0 0 1 1.27,6.43 c 0.17,2.75 0.36,7.85 0.39,8.41 0.03,0.56 1,0.76 2.28,0.74 1.28,-0.02 1.72,-0.39 1.68,-0.81 C 29.72,39.07 29.69,39 29.49,37.78 Z"
       id="path46062"
       style="stroke-width:1.0908" />
    <path
       class="cls-12"
       d="m 29.49,37.78 c -0.2,-1.18 -0.42,-6 -0.6,-7.84 -0.18,-1.84 -0.85,-6.4 -1.14,-7.67 a 19.64,19.64 0 0 1 -0.54,-3.76 h -0.08 v 0 c -0.15,-0.7 -1.68,-0.86 -3.57,-0.51 -1.7,0.33 -3,1.05 -3.14,1.71 a 0.8,0.8 0 0 0 -0.1,0.38 c 0,1.08 -0.27,1.4 -0.41,3.28 -0.14,1.88 -0.3,5.16 -0.6,7.25 -0.3,2.09 -1.06,10 -1.14,10.55 -0.08,0.55 0.57,1 1.87,1.08 1.3,0.08 2.42,-0.39 2.51,-0.87 0.09,-0.48 0.31,-5.83 0.59,-9.29 a 70.88,70.88 0 0 1 1,-7.37 34.7,34.7 0 0 1 1.27,6.43 c 0.17,2.75 0.36,7.85 0.39,8.41 0.03,0.56 1,0.76 2.28,0.74 1.28,-0.02 1.72,-0.39 1.68,-0.81 C 29.72,39.07 29.69,39 29.49,37.78 Z"
       id="path46064"
       style="fill:url(#linear-gradient-6);stroke-width:1.0908" />
    <path
       class="cls-13"
       d="m 27.24,40.24 c -0.86,-0.16 -1.37,-0.3 -1.4,-0.71 0,-0.56 -0.22,-5.65 -0.39,-8.41 a 38.52,38.52 0 0 0 -1.31,-6.74 0.85,0.85 0 0 1 0.51,-0.76 c 0.35,-0.2 1.08,-0.48 0.9,0 a 3.21,3.21 0 0 0 -0.16,1.51 c 0.06,0.61 0.63,3.84 0.78,5.05 0.15,1.21 0.79,8.75 0.82,9.25 a 1.92,1.92 0 0 0 0.25,0.81 z"
       id="path46066"
       style="fill:url(#linear-gradient-7);stroke-width:1.0908" />
    <path
       class="cls-14"
       d="m 24.18,24.69 a 1.81,1.81 0 0 1 0.33,-0.82"
       id="path46068" />
    <path
       class="cls-15"
       d="m 29.49,37.78 c -0.2,-1.18 -0.42,-6 -0.6,-7.84 -0.18,-1.84 -0.85,-6.4 -1.14,-7.67 a 19.64,19.64 0 0 1 -0.54,-3.76 h -0.08 v 0 c -0.15,-0.7 -1.68,-0.86 -3.57,-0.51 -1.7,0.33 -3,1.05 -3.14,1.71 a 0.8,0.8 0 0 0 -0.1,0.38 c 0,1.08 -0.27,1.4 -0.41,3.28 -0.14,1.88 -0.3,5.16 -0.6,7.25 -0.3,2.09 -1.06,10 -1.14,10.55 -0.08,0.55 0.57,1 1.87,1.08 1.3,0.08 2.42,-0.39 2.51,-0.87 0.09,-0.48 0.31,-5.83 0.59,-9.29 a 70.88,70.88 0 0 1 1,-7.37 34.7,34.7 0 0 1 1.27,6.43 c 0.17,2.75 0.36,7.85 0.39,8.41 0.03,0.56 1,0.76 2.28,0.74 1.28,-0.02 1.72,-0.39 1.68,-0.81 C 29.72,39.07 29.69,39 29.49,37.78 Z"
       id="path46070"
       style="stroke:url(#linearGradient46730)" />
    <path
       class="cls-2"
       d="m 27.8,9 c 0.84,0.33 2,1.77 3.57,3.84 a 35.89,35.89 0 0 1 3.13,5.75 c 0.23,0.52 -0.13,1 -0.82,1.44 a 1.59,1.59 0 0 1 -1.82,0.12 c -0.29,-0.34 -0.67,-2 -2,-4.24 -1.33,-2.24 -2,-2.89 -2.75,-3.3 C 26.36,12.2 26.41,10.88 26.5,10.38 26.59,9.88 27.27,8.83 27.8,9 Z"
       id="path46072"
       style="stroke-width:1.0908" />
    <ellipse
       class="cls-16"
       cx="25.959999"
       cy="6.5599999"
       rx="0.47999999"
       ry="0.61000001"
       id="ellipse46074" />
    <ellipse
       class="cls-7"
       cx="25.959999"
       cy="6.5599999"
       rx="0.47999999"
       ry="0.61000001"
       id="ellipse46076" />
    <path
       class="cls-2"
       d="m 28.6,10.48 a 3.61,3.61 0 0 1 -0.42,2.15 9.87,9.87 0 0 0 -0.85,3.46 c 0,0.87 -0.12,1.78 -0.12,2.11 0,0.33 0.28,1.66 -3.09,2.38 -3.08,0.66 -3.8,-0.52 -3.8,-0.52 a 10.46,10.46 0 0 0 -0.14,-2.95 c -0.35,-1.62 -1.53,-2.43 -2,-3.38 A 2.46,2.46 0 0 1 17.92,11.47 6,6 0 0 1 20.34,10.06 24.39,24.39 0 0 1 24,9.1 C 25.14,9 27,8.68 27.77,9 a 1.92,1.92 0 0 1 0.83,1.48 z"
       id="path46078"
       style="stroke-width:1.0908" />
    <path
       class="cls-17"
       d="m 28.6,10.48 a 3.61,3.61 0 0 1 -0.42,2.15 9.87,9.87 0 0 0 -0.85,3.46 c 0,0.87 -0.12,1.78 -0.12,2.11 0,0.33 0.28,1.66 -3.09,2.38 -3.08,0.66 -3.8,-0.52 -3.8,-0.52 a 10.46,10.46 0 0 0 -0.14,-2.95 c -0.35,-1.62 -1.53,-2.43 -2,-3.38 A 2.46,2.46 0 0 1 17.92,11.47 6,6 0 0 1 20.34,10.06 24.39,24.39 0 0 1 24,9.1 C 25.14,9 27,8.68 27.77,9 a 1.92,1.92 0 0 1 0.83,1.48 z"
       id="path46080"
       style="fill:url(#linear-gradient-8);stroke-width:1.0908" />
    <path
       class="cls-18"
       d="m 19.31,15.29 0.92,-1 a 7.27,7.27 0 0 1 1.09,2.17 15.59,15.59 0 0 1 0.26,4.19 c 0,0 -0.94,-0.08 -1.25,-0.7 a 10.52,10.52 0 0 0 -0.08,-2.41 c -0.19,-0.87 -0.49,-1.99 -0.94,-2.25 z"
       id="path46082"
       style="fill:url(#linear-gradient-9);stroke-width:1.0908" />
    <path
       class="cls-2"
       d="m 20.28,12.06 c -0.59,-1 -1.65,-1.47 -2.49,-0.48 a 31.48,31.48 0 0 0 -2.9,5.07 44.32,44.32 0 0 0 -2.23,6 c -0.09,0.25 0.36,0.73 1.34,1.09 0.98,0.36 1.64,0.29 1.74,0 0,0 1.44,-3.83 2.17,-5.33 a 26.65,26.65 0 0 1 2.18,-3.6 2.68,2.68 0 0 0 0.19,-2.75 z"
       id="path46084"
       style="stroke-width:1.0908" />
    <path
       class="cls-19"
       d="m 34.49,18.62 c 0.2,0.41 0,0.78 -0.41,1.14 -0.14,-0.54 -2.24,-4.71 -2.6,-5.26 a 41.39,41.39 0 0 0 -3.87,-4.31 11,11 0 0 0 -4.39,0.55 17.91,17.91 0 0 0 -4.16,1.6 45.78,45.78 0 0 0 -3,5 c -0.3,0.61 -2.49,6.21 -2.49,6.21 -0.67,-0.33 -1,-0.69 -0.89,-0.9 a 43.82,43.82 0 0 1 2.23,-6 31.63,31.63 0 0 1 2.9,-5.08 l 0.1,-0.1 A 5.91,5.91 0 0 1 20.33,10.05 24.39,24.39 0 0 1 24,9.1 C 25.14,9 27,8.69 27.77,9 v 0 c 0.83,0.32 2,1.76 3.56,3.83 a 34.38,34.38 0 0 1 3.16,5.79 z"
       id="path46086"
       style="fill:url(#New_Gradient_Swatch_2-2);stroke-width:1.0908" />
    <path
       class="cls-20"
       d="m 19.55,15.67 c 0,0 0.37,-0.53 0.43,-0.59"
       id="path46088"
       style="stroke:url(#New_Gradient_Swatch_2-3)" />
    <path
       class="cls-21"
       d="M 34.5,18.62 A 35.89,35.89 0 0 0 31.37,12.87 C 29.84,10.8 28.64,9.36 27.8,9 V 9 C 27,8.68 25.13,9 24,9.1 a 24.39,24.39 0 0 0 -3.73,1 5.91,5.91 0 0 0 -2.42,1.42 l -0.1,0.1 a 31.48,31.48 0 0 0 -2.9,5.07 44.32,44.32 0 0 0 -2.23,6 c -0.09,0.25 0.36,0.73 1.34,1.09 0.98,0.36 1.64,0.29 1.74,0 0,0 1.44,-3.83 2.17,-5.33 0.48,-1 1.26,-2.12 1.64,-2.76 v 0 a 5.07,5.07 0 0 1 0.63,1.44 9,9 0 0 1 0.16,2.52 0.6,0.6 0 0 0 0.19,0.5 c 0.35,0.33 1.27,0.79 3.59,0.45 2.32,-0.34 3.09,-1.53 3.09,-2.06 l 0.12,-2.43 a 9.26,9.26 0 0 1 0.61,-2.86 10.41,10.41 0 0 1 2,2.71 c 1.29,2.28 1.67,3.91 2,4.24 a 1.59,1.59 0 0 0 1.82,-0.12 c 0.66,-0.46 1.02,-0.94 0.78,-1.46 z"
       id="path46090"
       style="stroke:url(#New_Gradient_Swatch_2-4)" />
    <path
       class="cls-22"
       d="m 22.4,6.92 a 9.7,9.7 0 0 1 -0.11,2.52 c -0.18,0.62 0.54,1.14 0.92,1.29 a 3,3 0 0 0 1.83,0 A 0.92,0.92 0 0 0 25.62,9.6 3.16,3.16 0 0 1 25.48,8.36 V 8"
       id="path46092"
       style="fill:url(#linear-gradient-10);stroke-width:1.0908" />
    <path
       class="cls-23"
       d="M 22.44,7.62 V 8 l 1.7,2.88 a 2.36,2.36 0 0 0 0.9,-0.14 1.1,1.1 0 0 0 0.63,-0.86 1.9,1.9 0 0 1 -0.14,-1"
       id="path46094"
       style="fill:url(#linear-gradient-11);stroke-width:1.0908" />
    <path
       class="cls-24"
       d="m 22.4,6.92 a 9.7,9.7 0 0 1 -0.11,2.52 c -0.18,0.62 0.54,1.14 0.92,1.29 a 3,3 0 0 0 1.83,0 A 0.92,0.92 0 0 0 25.62,9.6 3.16,3.16 0 0 1 25.48,8.36 V 8"
       id="path46096" />
    <path
       class="cls-25"
       d="m 24.37,3.61 c 0.48,0 1.59,0 1.59,1 v 2.87 c 0,0.54 -0.12,1.75 -1.4,1.75 A 1.74,1.74 0 0 1 22.71,7.7 V 5.23 a 1.57,1.57 0 0 1 1.66,-1.62 z"
       id="path46098"
       style="fill:url(#linear-gradient-12);stroke-width:1.0908" />
    <path
       class="cls-9"
       d="m 22.71,5.93 v -0.7 a 1.57,1.57 0 0 1 1.66,-1.62 c 0.48,0 1.59,0 1.59,1 v 2.87 c 0,0.54 -0.12,1.75 -1.4,1.75 A 2.06,2.06 0 0 1 23.88,9.12"
       id="path46100" />
    <path
       class="cls-26"
       d="m 22.89,6.35 a 0.87,0.87 0 0 0 0.26,-0.66 c 0,-0.37 0,-0.77 0.24,-1 a 0.76,0.76 0 0 1 0.9,0 A 1.74,1.74 0 0 0 25.2,5 1,1 0 0 0 26,4.59 V 4.3 c 0,-0.27 -0.35,-1 -1.55,-1 -1.2,0 -2.12,0.48 -2.35,1.26 a 3.52,3.52 0 0 0 0.34,2.35 5.48,5.48 0 0 1 0.45,-0.56 z"
       id="path46102" />
    <path
       class="cls-27"
       d="M 25.84,4 V 4 A 0.31,0.31 0 0 1 25.6,4.31 1.84,1.84 0 0 1 24.48,4.16 1.39,1.39 0 0 0 22.67,4.7 a 3.19,3.19 0 0 0 0,1.81 C 22.54,6.72 22.42,6.97 22.42,6.97 A 3.48,3.48 0 0 1 22.09,4.62 C 22.31,3.84 23.23,3.36 24.43,3.36 A 1.58,1.58 0 0 1 25.84,4 Z"
       id="path46104"
       style="stroke-width:1.0908" />
    <path
       class="cls-28"
       d="m 22.89,6.35 a 0.87,0.87 0 0 0 0.26,-0.66 c 0,-0.37 0,-0.77 0.24,-1 a 0.76,0.76 0 0 1 0.9,0 A 1.74,1.74 0 0 0 25.2,5 1,1 0 0 0 26,4.59 V 4.3 c 0,-0.27 -0.35,-1 -1.55,-1 -1.2,0 -2.12,0.48 -2.35,1.26 a 3.52,3.52 0 0 0 0.34,2.35 5.48,5.48 0 0 1 0.45,-0.56 z"
       id="path46106" />
    <ellipse
       class="cls-29"
       cx="22.43"
       cy="6.9499998"
       rx="0.5"
       ry="0.67000002"
       transform="rotate(-9.35,22.452429,6.9448572)"
       id="ellipse46108"
       style="fill:url(#linear-gradient-13);stroke-width:1.0908" />
    <path
       class="cls-9"
       d="M 22.78,6.51 A 0.48,0.48 0 0 0 22.32,6.29 0.59,0.59 0 0 0 21.94,7.03 c 0.06,0.37 0.33,0.63 0.6,0.59 a 0.37,0.37 0 0 0 0.18,-0.08"
       id="path46110" />
    <g
       class="cls-30"
       id="g46118"
       style="stroke-width:1.0908">
      <polyline
         class="cls-31"
         points="13.71 24.28 16.41 17.75 19.52 12.28 24.19 11.41 27.61 10.42 31.07 14.85 33.45 19.91"
         id="polyline46112" />
      <polyline
         class="cls-31"
         points="24.36 6.83 24.19 11.41 24.19 15.03 24.19 19.09 24.19 21.34"
         id="polyline46114" />
      <path
         class="cls-31"
         d="M 20.13,41 21.4,30.86 22,21.75 A 6.08,6.08 0 0 0 24.16,21.56 18.25,18.25 0 0 0 26.11,21 l 1.26,9 0.78,9.51"
         id="path46116" />
    </g>
    <polyline
       class="cls-32"
       points="13.71 24.28 16.41 17.75 19.52 12.28 24.19 11.41 27.61 10.42 31.07 14.85 33.45 19.91"
       id="polyline46120" />
    <polyline
       class="cls-32"
       points="24.36 6.83 24.19 11.41 24.19 15.03 24.19 19.09 24.19 21.34"
       id="polyline46122" />
    <path
       class="cls-32"
       d="M 20.13,41 21.4,30.86 22,21.75 A 6.08,6.08 0 0 0 24.16,21.56 18.25,18.25 0 0 0 26.11,21 l 1.26,9 0.78,9.51"
       id="path46124" />
    <circle
       class="cls-33"
       cx="24.360001"
       cy="6.8299999"
       r="1.47"
       id="circle46126"
       style="fill:url(#radialGradient46732);stroke-width:1.0908" />
    <circle
       class="cls-34"
       cx="24.190001"
       cy="11.41"
       r="1.11"
       id="circle46128"
       style="fill:url(#radial-gradient-3);stroke-width:1.0908" />
    <circle
       class="cls-35"
       cx="27.610001"
       cy="10.42"
       r="1.01"
       id="circle46130"
       style="fill:url(#radial-gradient-4);stroke-width:1.0908" />
    <circle
       class="cls-36"
       cx="31.07"
       cy="14.85"
       r="0.97000003"
       id="circle46132"
       style="fill:url(#radial-gradient-5);stroke-width:1.0908" />
    <circle
       class="cls-37"
       cx="33.450001"
       cy="19.92"
       r="1.1900001"
       id="circle46134"
       style="fill:url(#radial-gradient-6);stroke-width:1.0908" />
    <circle
       class="cls-38"
       cx="19.52"
       cy="12.28"
       r="1.14"
       id="circle46136"
       style="fill:url(#radial-gradient-7);stroke-width:1.0908" />
    <circle
       class="cls-39"
       cx="16.41"
       cy="17.75"
       r="1.26"
       id="circle46138"
       style="fill:url(#radial-gradient-8);stroke-width:1.0908" />
    <circle
       class="cls-40"
       cx="13.71"
       cy="24.280001"
       r="1.52"
       id="circle46140"
       style="fill:url(#radial-gradient-9);stroke-width:1.0908" />
    <circle
       class="cls-41"
       cx="24.190001"
       cy="16.26"
       r="0.97000003"
       id="circle46142"
       style="fill:url(#radial-gradient-10);stroke-width:1.0908" />
    <circle
       class="cls-42"
       cx="22.030001"
       cy="21.75"
       r="1.14"
       id="circle46144"
       style="fill:url(#radial-gradient-11);stroke-width:1.0908" />
    <circle
       class="cls-43"
       cx="21.4"
       cy="30.74"
       r="1.0599999"
       id="circle46146"
       style="fill:url(#radial-gradient-12);stroke-width:1.0908" />
    <circle
       class="cls-44"
       cx="20.129999"
       cy="41"
       r="1.26"
       id="circle46148"
       style="fill:url(#radial-gradient-13);stroke-width:1.0908" />
    <circle
       class="cls-45"
       cx="26.110001"
       cy="20.950001"
       r="1.02"
       id="circle46150"
       style="fill:url(#radial-gradient-14);stroke-width:1.0908" />
    <circle
       class="cls-46"
       cx="27.370001"
       cy="29.93"
       r="0.93000001"
       id="circle46152"
       style="fill:url(#radial-gradient-15);stroke-width:1.0908" />
    <circle
       class="cls-47"
       cx="28.15"
       cy="39.439999"
       r="1.02"
       id="circle46154"
       style="fill:url(#radial-gradient-16);stroke-width:1.0908" />
  </g>
  <g
     id="layer1"
     inkscape:label="Layer 1"
     transform="matrix(0.52751492,0,0,0.52751591,14.562769,14.250641)"
     style="stroke-width:1.32274">
    <path
       style="fill:url(#radialGradient3372);fill-opacity:1;stroke:#20425e;stroke-width:1.98411;stroke-miterlimit:4;stroke-dasharray:none;stroke-opacity:1"
       id="path36"
       d="m 15.871922,8.5742833 c 0,-4.1010709 1.101334,-6.3322238 7.182614,-7.3946775 4.128672,-0.72246854 9.422525,-0.81277719 14.359906,0 3.899893,0.6427845 7.182613,3.5432832 7.182613,7.3946775 V 22.104632 c 0,3.968264 -3.186952,7.219374 -7.182613,7.219374 H 23.054536 c -4.873537,0 -8.980928,4.148881 -8.980928,8.839615 v 6.491592 H 9.1362264 c -4.1765568,0 -6.6080045,-3.006744 -7.6295318,-7.214061 -1.37799767,-5.652253 -1.31947271,-7.958272 0,-13.371473 1.1438977,-4.722607 4.79905,-7.214061 8.9756074,-7.214061 h 5.38962 14.365227 V 13.987486 H 15.871922 Z"
       i:knockout="Off"
       sodipodi:nodetypes="csscccccccccccccccc" />
    <path
       style="color:#000000;display:inline;overflow:visible;visibility:visible;opacity:1;fill:#ffffff;fill-opacity:1;fill-rule:nonzero;stroke:#20425e;stroke-width:1.32274;stroke-linecap:butt;stroke-linejoin:miter;stroke-miterlimit:4;stroke-dasharray:none;stroke-dashoffset:0;stroke-opacity:1;marker:none;marker-start:none;marker-mid:none;marker-end:none"
       id="path40"
       d="m 22.113664,7.6788017 c 0,-1.5283613 1.233328,-2.7640575 2.761345,-2.7640575 1.522562,0 2.761346,1.2356962 2.761346,2.7640575 0,1.5229417 -1.238784,2.7586393 -2.761346,2.7586393 -1.528017,0 -2.761345,-1.2356976 -2.761345,-2.7586393 z"
       i:knockout="Off" />
    <g
       id="g44"
       transform="matrix(0.518034,0,0,0.517236,-27.94142,-28.31103)"
       style="stroke-width:1.32274" />
    <path
       style="fill:none;stroke:#eeeeec;stroke-width:1.32274;stroke-miterlimit:4;stroke-dasharray:none;stroke-opacity:0.501961"
       id="path3249"
       d="m 22.789184,2.4712023 c 3.830421,-0.6702754 10.157799,-0.6360649 14.738509,0.1179956 3.618169,0.596349 5.719783,2.815327 5.719783,6.388489 l 0.117996,13.1428681 c 0,3.681589 -3.192722,5.989858 -6.89974,5.989858 H 23.143171 c -4.521477,0 -10.220085,3.731162 -10.220085,8.908997 v 6.258619 H 8.3423765 c -3.8748467,0 -4.7147019,-2.789532 -5.6624347,-6.692903 C 1.4014893,31.341202 1.8097731,28.729793 3.0339288,23.707652 4.0951919,19.326216 6.7783263,18.194706 10.653173,18.194706 H 31.69485 L 31.458859,12.819873 17.187396,12.465887 V 7.4437436 C 17.076107,4.9508219 18.777089,3.4908524 22.789184,2.4712023 Z"
       i:knockout="Off"
       sodipodi:nodetypes="csccccccccccccccc" />
    <path
       style="color:#000000;display:inline;overflow:visible;visibility:visible;opacity:1;fill:none;fill-opacity:1;fill-rule:nonzero;stroke:#eeeeec;stroke-width:1.32274;stroke-linecap:butt;stroke-linejoin:miter;stroke-miterlimit:4;stroke-dasharray:none;stroke-dashoffset:0;stroke-opacity:0.501961;marker:none;marker-start:none;marker-mid:none;marker-end:none"
       id="path3251"
       d="m 21.151304,7.6916001 c 0,-2.0778276 1.676725,-3.7577727 3.754084,-3.7577727 2.069941,0 3.754087,1.6799451 3.754087,3.7577727 0,2.0704582 -1.684146,3.7504049 -3.754087,3.7504049 -2.077359,0 -3.754084,-1.6799467 -3.754084,-3.7504049 z"
       i:knockout="Off" />
    <path
       style="color:#000000;display:inline;overflow:visible;visibility:visible;opacity:1;fill:url(#radialGradient3380);fill-opacity:1;fill-rule:nonzero;stroke:#b58609;stroke-width:1.98411;stroke-linecap:butt;stroke-linejoin:miter;stroke-miterlimit:4;stroke-dasharray:none;stroke-dashoffset:0;stroke-opacity:1;marker:none;marker-start:none;marker-mid:none;marker-end:none"
       id="path3257"
       d="m 47.638134,55.199956 c 0,4.13452 -1.110318,6.383872 -7.241206,7.454991 -4.162351,0.728362 -9.499389,0.819407 -14.477046,0 -3.931707,-0.648027 -7.241206,-3.572183 -7.241206,-7.454991 V 41.559248 c 0,-4.000632 3.21295,-7.278259 7.241206,-7.278259 h 14.477046 c 4.913293,0 9.05419,-4.182721 9.05419,-8.911715 v -6.54454 h 4.977658 c 4.210627,0 6.661909,3.031268 7.69177,7.272902 1.389239,5.698356 1.330236,8.023183 0,13.480537 -1.153229,4.761127 -4.838198,7.272901 -9.048826,7.272901 H 47.638134 33.155723 v 2.891527 h 14.482411 z"
       i:knockout="Off"
       sodipodi:nodetypes="csscccccccccccccccc" />
    <path
       style="color:#000000;display:inline;overflow:visible;visibility:visible;opacity:1;fill:#ffffff;fill-opacity:1;fill-rule:nonzero;stroke:#b58609;stroke-width:1.32274;stroke-linecap:butt;stroke-linejoin:miter;stroke-miterlimit:4;stroke-dasharray:none;stroke-dashoffset:0;stroke-opacity:1;marker:none;marker-start:none;marker-mid:none;marker-end:none"
       id="path3259"
       d="m 41.345475,56.102742 c 0,1.540826 -1.243389,2.786602 -2.78387,2.786602 -1.534982,0 -2.783872,-1.245776 -2.783872,-2.786602 0,-1.535364 1.24889,-2.78114 2.783872,-2.78114 1.540481,0 2.78387,1.245776 2.78387,2.78114 z"
       i:knockout="Off" />
    <path
       style="fill:none;stroke:#eeeeec;stroke-width:1.32274;stroke-miterlimit:4;stroke-dasharray:none;stroke-opacity:0.752941"
       id="path3261"
       d="m 40.664445,61.352816 c -3.861668,0.675743 -10.240661,0.641253 -14.858738,-0.118958 -3.647684,-0.601213 -5.766442,-2.83829 -5.766442,-6.440596 L 19.920307,41.543195 c 0,-3.711618 3.218766,-6.038714 6.956024,-6.038714 h 13.43124 c 4.55836,0 10.303454,-3.761595 10.303454,-8.981663 v -6.309666 h 4.618077 c 3.906456,0 4.753162,2.812283 5.708626,6.747493 1.288881,5.286695 0.877266,7.919404 -0.356875,12.982507 -1.06992,4.417174 -3.774942,5.557913 -7.681398,5.557913 H 31.686131 l 0.237916,5.418672 14.387882,0.356874 v 5.063105 c 0.112197,2.513255 -1.602661,3.985134 -5.647484,5.0131 z"
       i:knockout="Off"
       sodipodi:nodetypes="csccccccccccccccc" />
    <path
       style="color:#000000;display:inline;overflow:visible;visibility:visible;opacity:1;fill:none;fill-opacity:1;fill-rule:nonzero;stroke:#eeeeec;stroke-width:1.32274;stroke-linecap:butt;stroke-linejoin:miter;stroke-miterlimit:4;stroke-dasharray:none;stroke-dashoffset:0;stroke-opacity:0.501961;marker:none;marker-start:none;marker-mid:none;marker-end:none"
       id="path3263"
       d="m 42.315686,56.089838 c 0,2.094775 -1.690403,3.788424 -3.784708,3.788424 -2.086827,0 -3.784711,-1.693649 -3.784711,-3.788424 0,-2.087345 1.697884,-3.780994 3.784711,-3.780994 2.094305,0 3.784708,1.693649 3.784708,3.780994 z"
       i:knockout="Off" />
  </g>
</svg>
