<?xml version="1.0" encoding="UTF-8" standalone="no"?>
<svg
   xmlns:dc="http://purl.org/dc/elements/1.1/"
   xmlns:cc="http://creativecommons.org/ns#"
   xmlns:rdf="http://www.w3.org/1999/02/22-rdf-syntax-ns#"
   xmlns:svg="http://www.w3.org/2000/svg"
   xmlns="http://www.w3.org/2000/svg"
   xmlns:xlink="http://www.w3.org/1999/xlink"
   xmlns:sodipodi="http://sodipodi.sourceforge.net/DTD/sodipodi-0.dtd"
   xmlns:inkscape="http://www.inkscape.org/namespaces/inkscape"
   viewBox="0 0 48 48"
   version="1.1"
   id="svg2815"
   sodipodi:docname="kinefx-deletejoints.svg"
   inkscape:version="1.0.1 (3bc2e813f5, 2020-09-07)">
  <metadata
     id="metadata2819">
    <rdf:RDF>
      <cc:Work
         rdf:about="">
        <dc:format>image/svg+xml</dc:format>
        <dc:type
           rdf:resource="http://purl.org/dc/dcmitype/StillImage" />
        <dc:title>9-Agent Pose From Rig</dc:title>
      </cc:Work>
    </rdf:RDF>
  </metadata>
  <sodipodi:namedview
     pagecolor="#ffffff"
     bordercolor="#666666"
     borderopacity="1"
     objecttolerance="10"
     gridtolerance="10"
     guidetolerance="10"
     inkscape:pageopacity="0"
     inkscape:pageshadow="2"
     inkscape:window-width="2560"
     inkscape:window-height="1377"
     id="namedview2817"
     showgrid="false"
     inkscape:zoom="16.867443"
     inkscape:cx="24"
     inkscape:cy="24"
     inkscape:window-x="-8"
     inkscape:window-y="-8"
     inkscape:window-maximized="1"
     inkscape:current-layer="svg2815" />
  <defs
     id="defs2749">
    <style
       id="style2711">.cls-1{fill:url(#radial-gradient);}.cls-10,.cls-12,.cls-14,.cls-15,.cls-2,.cls-21,.cls-9{fill:none;}.cls-2{stroke:#f57f7f;stroke-width:0.7px;stroke-dasharray:2.5 1.5;}.cls-12,.cls-2,.cls-21{stroke-miterlimit:10;}.cls-3{fill:#f57f7f;}.cls-4{fill:url(#linear-gradient);}.cls-5{fill:url(#linear-gradient-2);}.cls-6{fill:url(#linear-gradient-3);}.cls-7{fill:url(#linear-gradient-4);}.cls-8{fill:url(#linear-gradient-5);}.cls-12,.cls-9{stroke:#729fcf;}.cls-10,.cls-14,.cls-15,.cls-9{stroke-linecap:round;stroke-linejoin:round;}.cls-10,.cls-12,.cls-9{stroke-width:0.35px;}.cls-10{stroke:#aec8e4;}.cls-11{fill:url(#linear-gradient-6);}.cls-13{fill:url(#linear-gradient-7);}.cls-14{stroke:#fff;stroke-width:3.5px;opacity:0.5;}.cls-15{stroke:#8ae234;}.cls-15,.cls-21{stroke-width:1.5px;}.cls-16{fill:url(#radial-gradient-2);}.cls-17{fill:#d0f3ae;}.cls-18{fill:url(#radial-gradient-3);}.cls-19{fill:url(#radial-gradient-4);}.cls-20{fill:url(#radial-gradient-5);}.cls-21{stroke:#eeeeec;}.cls-22{fill:#2e3436;}.cls-23{fill:#555753;}</style>
    <radialGradient
       id="radial-gradient"
       cx="-52.51"
       cy="40.95"
       r="20.08"
       gradientTransform="matrix(1.19,0,0,0.25,86.06,30.8)"
       gradientUnits="userSpaceOnUse">
      <stop
         offset="0.03"
         stop-color="#2c2c2c"
         stop-opacity="0.5"
         id="stop2713" />
      <stop
         offset="0.68"
         stop-color="#2c2c2c"
         stop-opacity="0.1"
         id="stop2715" />
      <stop
         offset="0.93"
         stop-color="#2c2c2c"
         stop-opacity="0"
         id="stop2717" />
    </radialGradient>
    <linearGradient
       id="linear-gradient"
       x1="28.99"
       y1="20.09"
       x2="36.05"
       y2="27.26"
       gradientUnits="userSpaceOnUse">
      <stop
         offset="0"
         stop-color="#b2cbe5"
         id="stop2720" />
      <stop
         offset="1"
         stop-color="#3465a4"
         id="stop2722" />
    </linearGradient>
    <linearGradient
       id="linear-gradient-2"
       x1="32.08"
       y1="26.8"
       x2="40.63"
       y2="30.59"
       gradientUnits="userSpaceOnUse">
      <stop
         offset="0"
         stop-color="#00255d"
         stop-opacity="0"
         id="stop2725" />
      <stop
         offset="1"
         stop-color="#00255d"
         id="stop2727" />
    </linearGradient>
    <linearGradient
       id="linear-gradient-3"
       x1="33.92"
       y1="19.21"
       x2="37.66"
       y2="22.38"
       gradientUnits="userSpaceOnUse"
       gradientTransform="matrix(1.1405988,0,0,1.1406108,-3.6316911,-4.2844487)">
      <stop
         offset="0.1"
         stop-color="#b2cbe5"
         id="stop2730" />
      <stop
         offset="1"
         stop-color="#729fcf"
         stop-opacity="0"
         id="stop2732" />
    </linearGradient>
    <linearGradient
       id="linear-gradient-4"
       x1="23.09"
       y1="24.83"
       x2="17.48"
       y2="30.25"
       xlink:href="#linear-gradient"
       gradientTransform="matrix(1.1405988,0,0,1.1406108,-3.6316911,-4.2844487)" />
    <linearGradient
       id="linear-gradient-5"
       x1="20.82"
       y1="28.6"
       x2="17.74"
       y2="31.62"
       xlink:href="#linear-gradient-2"
       gradientTransform="matrix(1.1405988,0,0,1.1406108,-3.6316911,-4.2844487)" />
    <linearGradient
       id="linear-gradient-6"
       x1="6.82"
       y1="17.08"
       x2="13.1"
       y2="17.08"
       gradientTransform="matrix(0.76262195,0.84816676,-0.84816752,0.76262126,0.66581627,-1.1584934)"
       xlink:href="#linear-gradient-2" />
    <linearGradient
       id="linear-gradient-7"
       x1="13.1"
       y1="10.56"
       x2="13"
       y2="30.12"
       xlink:href="#linear-gradient"
       gradientTransform="matrix(1.1405988,0,0,1.1406108,-3.6316911,-4.2844487)" />
    <radialGradient
       id="radial-gradient-2"
       cx="9.24"
       cy="16.09"
       r="2.32"
       gradientTransform="translate(2.83 2.64) rotate(0.6)"
       gradientUnits="userSpaceOnUse">
      <stop
         offset="0.2"
         stop-color="#d6f5b8"
         id="stop2739" />
      <stop
         offset="0.54"
         stop-color="#8ae234"
         id="stop2741" />
      <stop
         offset="1"
         stop-color="#4e9a06"
         id="stop2743" />
    </radialGradient>
    <radialGradient
       id="radial-gradient-3"
       cx="41.89"
       cy="17.9"
       r="2.41"
       xlink:href="#radial-gradient-2"
       gradientTransform="matrix(1.1405988,0,0,1.1406108,-3.6316911,-4.2844487)" />
    <radialGradient
       id="radial-gradient-4"
       cx="11.85"
       cy="18.75"
       r="2.63"
       xlink:href="#radial-gradient-2"
       gradientTransform="matrix(1.1405988,0,0,1.1406108,-3.6316911,-4.2844487)" />
    <radialGradient
       id="radial-gradient-5"
       cx="26.5"
       cy="33.48"
       r="1.94"
       xlink:href="#radial-gradient-2"
       gradientTransform="matrix(1.1405988,0,0,1.1406108,-3.6316911,-4.2844487)" />
    <linearGradient
       inkscape:collect="always"
       xlink:href="#linear-gradient"
       id="linearGradient2821"
       gradientUnits="userSpaceOnUse"
       x1="28.99"
       y1="20.09"
       x2="36.05"
       y2="27.26"
       gradientTransform="matrix(1.1405988,0,0,1.1406108,-3.6316911,-4.2844487)" />
    <linearGradient
       inkscape:collect="always"
       xlink:href="#linear-gradient-2"
       id="linearGradient2823"
       gradientUnits="userSpaceOnUse"
       x1="32.08"
       y1="26.8"
       x2="40.63"
       y2="30.59"
       gradientTransform="matrix(1.1405988,0,0,1.1406108,-3.6316911,-4.2844487)" />
    <radialGradient
       inkscape:collect="always"
       xlink:href="#radial-gradient-2"
       id="radialGradient2825"
       gradientUnits="userSpaceOnUse"
       gradientTransform="matrix(1.1405363,0.01194423,-0.0119441,1.1405483,-0.40379659,-1.2732363)"
       cx="9.24"
       cy="16.09"
       r="2.32" />
    <linearGradient
       id="linear-gradient-25"
       x1="19.129999"
       y1="27.5"
       x2="28.870001"
       y2="27.5"
       gradientUnits="userSpaceOnUse">
      <stop
         offset="0"
         stop-color="#ef2929"
         id="stop6522" />
      <stop
         offset="1"
         stop-color="#a40000"
         id="stop6524" />
    </linearGradient>
    <linearGradient
       id="linear-gradient-25-6"
       x1="19.129999"
       y1="27.5"
       x2="28.870001"
       y2="27.5"
       gradientUnits="userSpaceOnUse">
      <stop
         offset="0"
         stop-color="#ef2929"
         id="stop6522-0" />
      <stop
         offset="1"
         stop-color="#a40000"
         id="stop6524-9" />
    </linearGradient>
  </defs>
  <title
     id="title2751">9-Agent Pose From Rig</title>
  <g
     id="shadow"
     transform="matrix(0.99659476,0,0,1.1406108,-0.20439436,-4.2844487)"
     style="stroke-width:0.937933">
    <ellipse
       class="cls-1"
       cx="23.799999"
       cy="40.950001"
       rx="22.879999"
       ry="4.8000002"
       id="ellipse2753"
       style="fill:url(#radial-gradient);stroke-width:0.937933" />
  </g>
  <path
     class="cls-4"
     d="m 47.626818,16.440449 c 0,-3.592924 -1.072163,-6.5128877 -2.395257,-6.5128877 h -0.09125 a 3.8894419,3.8894828 0 0 0 -2.281198,1.0151437 11.405988,11.406108 0 0 0 -3.330548,3.946514 c -0.958103,1.69951 -15.500738,14.531381 -16.62993,17.804934 -1.129193,3.273552 0.593111,5.554774 1.859176,6.113674 a 5.2581604,5.2582157 0 0 0 5.223942,-1.060769 C 30.346747,37.439093 44.284864,24.561597 44.684073,23.76317 a 1.9048,1.90482 0 0 1 0.798419,-0.844052 l 0.239526,-0.102654 v 0 c 1.083569,-0.615929 1.9048,-3.227928 1.9048,-6.376015 z"
     id="path2762"
     style="fill:url(#linearGradient2821);stroke-width:1" />
  <path
     class="cls-5"
     d="m 47.375886,19.360412 a 11.31474,11.314859 0 0 1 -0.285149,1.220455 3.8438179,3.8438583 0 0 1 -1.368719,2.28122 v 0 l -0.239526,0.102654 A 1.881988,1.8820078 0 0 0 44.684073,23.8202 C 44.273458,24.561596 30.289717,37.701433 29.559733,38.089241 L 28.145391,37.165345 C 28.94381,34.747251 42.585372,23.603484 43.452227,21.7671 c 0.718577,-1.482793 3.102428,-2.189972 3.923659,-2.406688 z"
     id="path2764"
     style="fill:url(#linearGradient2823);stroke-width:1" />
  <path
     class="cls-6"
     d="m 45.231561,9.9275613 h -0.09125 a 3.8894419,3.8894828 0 0 0 -2.281198,1.0151437 11.405988,11.406108 0 0 0 -3.330548,3.946514 c -0.615924,1.14061 -7.642012,7.539437 -12.375497,12.546718 l 1.471372,1.357327 C 34.065099,23.09021 40.110272,16.657165 40.5437,16.246545 c 0.821231,-0.82124 0.775607,-1.55123 2.908527,-3.638548 a 4.9387927,4.9388447 0 0 1 3.102428,-1.574043 C 46.178258,10.42943 45.733424,9.9275613 45.231561,9.9275613 Z"
     id="path2766"
     style="fill:url(#linear-gradient-3);stroke-width:1" />
  <path
     class="cls-7"
     d="M 28.784126,28.918731 C 27.643528,27.778121 15.963796,17.22747 13.956342,15.048904 v 0 L 13.8765,14.957656 C 12.861367,14.022355 10.648606,14.775159 8.9377075,16.634354 7.2268093,18.49355 6.7249458,20.558055 7.5575829,21.561792 v 0 C 7.9339805,22.018037 18.667015,33.515394 24.164701,38.408614 l 0.62733,0.399214 a 5.2923784,5.292434 0 0 0 5.794241,-1.631074 l 0.07984,-0.102654 c 2.07589,-3.615736 -0.707171,-7.014757 -1.881988,-8.155367 z"
     id="path2768"
     style="fill:url(#linear-gradient-4);stroke-width:1" />
  <path
     class="cls-8"
     d="M 25.293894,36.21864 C 17.663288,28.8617 12.542,23.512236 10.945161,21.3907 9.6448787,22.177722 8.3560021,22.337407 7.6488308,21.687259 L 7.523365,21.550385 v 0 c 0.3763976,0.444839 11.109432,11.942196 16.607118,16.835416 l 0.62733,0.399214 a 5.2923784,5.292434 0 0 0 5.828459,-1.608263 l 0.07984,-0.102653 c 0.07984,-0.125467 0.136872,-0.26234 0.205308,-0.387807 -2.338227,1.562636 -3.855224,0.752802 -5.577528,-0.467652 z"
     id="path2770"
     style="fill:url(#linear-gradient-5);stroke-width:1" />
  <path
     class="cls-9"
     d="m 24.757813,38.807827 a 5.2809724,5.2810279 0 0 0 5.223942,-1.049363 c 0.353586,-0.319371 15.968383,-15.090281 16.059631,-15.192936 0.923885,-0.901082 1.585432,-3.296364 1.585432,-6.125079 a 15.637609,15.637773 0 0 0 -0.387803,-3.615736 6.0679855,6.0680493 0 0 0 -1.015133,-2.281222 c -0.946697,-1.1406104 -2.463694,-0.26234 -3.421797,0.433433 a 11.405988,11.406108 0 0 0 -3.330548,3.946513 c -0.615923,1.14061 -7.642012,7.539436 -12.375497,12.546718"
     id="path2772" />
  <path
     class="cls-10"
     d="M 30.392371,30.97183 A 10.174141,10.174248 0 0 0 28.784126,28.918731 L 28.305075,28.496705 27.49525,27.743902 26.411681,26.717352 25.099992,25.496899 23.62862,24.128166 22.065999,22.668183 20.480567,21.18539 18.952165,19.736814 17.503604,18.379488 16.203322,17.17044 15.153971,16.246545 14.378364,15.52796 13.979154,15.105935 a 1.7679281,1.7679467 0 0 0 -0.935291,-0.513275 2.794467,2.7944964 0 0 0 -1.140599,0.09125 6.1820454,6.1821104 0 0 0 -2.6005649,1.562636 c -0.1368719,0.125468 -0.2737437,0.262341 -0.3992096,0.399214 -1.6310563,1.779353 -2.2127617,3.923702 -1.3801245,4.927439 0.3649916,0.444838 10.653193,11.474544 16.242127,16.52745 a 5.5090921,5.5091501 0 0 0 0.775607,0.581712 l 0.216714,0.136873"
     id="path2774" />
  <ellipse
     class="cls-11"
     cx="-6.2234402"
     cy="20.319084"
     rx="4.5738277"
     ry="2.5093293"
     transform="matrix(0.67635805,-0.736573,0.73656591,0.67636577,0,0)"
     id="ellipse2776"
     style="fill:url(#linear-gradient-6);stroke-width:1" />
  <ellipse
     class="cls-12"
     cx="-6.2234402"
     cy="20.319084"
     rx="4.5738277"
     ry="2.5093293"
     transform="matrix(0.67635805,-0.736573,0.73656591,0.67636577,0,0)"
     id="ellipse2778" />
  <path
     class="cls-13"
     d="m 13.032457,11.170828 a 0.63873532,0.63874203 0 0 0 0.501864,0.775614 c 0.171089,0 0.444833,-0.05703 0.969509,-0.536086 a 11.531454,11.531575 0 0 0 1.060756,-1.140611 c 0.216714,-0.216717 0.821232,-0.6843665 1.345907,-0.4790566 0.524675,0.2053099 0.524675,0.5474926 0.193902,1.1406106 a 22.093398,22.093631 0 0 1 -2.486506,2.965588 20.120163,20.120374 0 0 1 -2.155731,1.836383 4.4369293,4.4369759 0 0 1 -2.6918134,0.855459 C 8.0822584,16.531699 6.4397961,15.448117 6.3485482,13.839856 6.2573003,12.231595 6.4397961,10.144277 6.2458943,8.718514 A 36.031516,36.031894 0 0 0 5.3562273,4.9202803 C 5.2535734,4.4868482 5.1623255,3.9165428 5.5045051,3.7796695 5.8466847,3.6427962 6.3029243,3.8481065 6.54245,4.4868482 c 0.2395258,0.6387421 0.6615473,2.11013 0.7984192,2.6005926 0.1368718,0.4904626 0.1824958,0.536087 0.3535856,0.536087 0.1710898,0 0.2281197,-0.2053099 0.2281197,-0.5132748 0,-0.307965 -0.2737437,-4.9160324 -0.2623377,-5.2239974 A 0.83263711,0.83264587 0 0 1 8.2989721,0.98517311 c 0.5132695,0 0.8098252,0.45624429 0.8554491,0.99233139 0,0.3421832 0.4676455,4.5624431 0.4904575,4.8818141 0.022812,0.319371 0.079842,0.5703054 0.2395257,0.5588993 0.1596836,-0.011406 0.2737436,-0.2851527 0.3421796,-0.5817115 0.06844,-0.2965588 0.969509,-5.4179012 0.969509,-5.8057089 0,-0.3878077 0.444834,-0.76420919 0.821231,-0.71858482 a 1.0037269,1.0037375 0 0 1 0.707171,1.07217422 c 0,0.5474931 -0.787013,5.4863378 -0.821231,5.828521 -0.03422,0.3421832 0,0.4904627 0.159684,0.5360871 0.159684,0.045624 0.34218,-0.2395282 0.422022,-0.4220259 0.07984,-0.1824978 1.551214,-4.3115088 1.699492,-4.5624432 a 0.7527952,0.75280311 0 0 1 0.866855,-0.4448382 0.86685508,0.86686419 0 0 1 0.547487,1.1406108 c -0.09125,0.319371 -1.266064,3.6157361 -1.916206,5.4749314 -0.410615,1.1976411 -0.593111,2.0302881 -0.650141,2.2355981 z"
     id="path2780"
     style="fill:url(#linear-gradient-7);stroke-width:1" />
  <path
     class="cls-12"
     d="m 13.032457,11.170828 a 0.63873532,0.63874203 0 0 0 0.501864,0.775614 c 0.171089,0 0.444833,-0.05703 0.969509,-0.536086 a 11.531454,11.531575 0 0 0 1.060756,-1.140611 c 0.216714,-0.216717 0.821232,-0.6843665 1.345907,-0.4790566 0.524675,0.2053099 0.524675,0.5474926 0.193902,1.1406106 a 22.093398,22.093631 0 0 1 -2.486506,2.965588 20.120163,20.120374 0 0 1 -2.155731,1.836383 4.4369293,4.4369759 0 0 1 -2.6918134,0.855459 C 8.0822584,16.531699 6.4397961,15.448117 6.3485482,13.839856 6.2573003,12.231595 6.4397961,10.144277 6.2458943,8.718514 A 36.031516,36.031894 0 0 0 5.3562273,4.9202803 C 5.2535734,4.4868482 5.1623255,3.9165428 5.5045051,3.7796695 5.8466847,3.6427962 6.3029243,3.8481065 6.54245,4.4868482 c 0.2395258,0.6387421 0.6615473,2.11013 0.7984192,2.6005926 0.1368718,0.4904626 0.1824958,0.536087 0.3535856,0.536087 0.1710898,0 0.2281197,-0.2053099 0.2281197,-0.5132748 0,-0.307965 -0.2737437,-4.9160324 -0.2623377,-5.2239974 A 0.83263711,0.83264587 0 0 1 8.2989721,0.98517311 c 0.5132695,0 0.8098252,0.45624429 0.8554491,0.99233139 0,0.3421832 0.4676455,4.5624431 0.4904575,4.8818141 0.022812,0.319371 0.079842,0.5703054 0.2395257,0.5588993 0.1596836,-0.011406 0.2737436,-0.2851527 0.3421796,-0.5817115 0.06844,-0.2965588 0.969509,-5.4179012 0.969509,-5.8057089 0,-0.3878077 0.444834,-0.76420919 0.821231,-0.71858482 a 1.0037269,1.0037375 0 0 1 0.707171,1.07217422 c 0,0.5474931 -0.787013,5.4863378 -0.821231,5.828521 -0.03422,0.3421832 0,0.4904627 0.159684,0.5360871 0.159684,0.045624 0.34218,-0.2395282 0.422022,-0.4220259 0.07984,-0.1824978 1.551214,-4.3115088 1.699492,-4.5624432 a 0.7527952,0.75280311 0 0 1 0.866855,-0.4448382 0.86685508,0.86686419 0 0 1 0.547487,1.1406108 c -0.09125,0.319371 -1.266064,3.6157361 -1.916206,5.4749314 -0.410615,1.1976411 -0.593111,2.0302881 -0.650141,2.2355981 z"
     id="path2782" />
  <line
     class="cls-14"
     x1="26.867922"
     y1="34.439285"
     x2="44.49017"
     y2="16.816851"
     id="line2784" />
  <line
     class="cls-14"
     x1="10.260801"
     y1="17.843401"
     x2="26.867922"
     y2="34.439285"
     id="line2786" />
  <line
     class="cls-15"
     x1="26.867922"
     y1="34.439285"
     x2="44.49017"
     y2="16.816851"
     id="line2788" />
  <line
     class="cls-15"
     x1="10.260801"
     y1="17.843401"
     x2="26.867922"
     y2="34.439285"
     id="line2790" />
  <ellipse
     class="cls-16"
     cx="10.260801"
     cy="17.843401"
     id="circle2792"
     style="fill:url(#radialGradient2825);stroke-width:1"
     rx="2.4180694"
     ry="2.4180946" />
  <ellipse
     class="cls-17"
     cx="44.49017"
     cy="16.816851"
     id="circle2794"
     style="stroke-width:1"
     rx="3.6271043"
     ry="3.6271424" />
  <ellipse
     class="cls-18"
     cx="44.49017"
     cy="16.816851"
     id="circle2796"
     style="fill:url(#radial-gradient-3);stroke-width:1"
     rx="2.5093174"
     ry="2.5093439" />
  <ellipse
     class="cls-17"
     cx="10.260801"
     cy="17.843401"
     id="circle2798"
     style="stroke-width:1"
     rx="3.9464719"
     ry="3.9465134" />
  <ellipse
     class="cls-19"
     cx="10.260801"
     cy="17.843401"
     id="circle2800"
     style="fill:url(#radial-gradient-4);stroke-width:1"
     rx="2.7374372"
     ry="2.7374659" />
  <ellipse
     class="cls-17"
     cx="26.867922"
     cy="34.439285"
     id="circle2802"
     style="stroke-width:1"
     rx="2.9085269"
     ry="2.9085574" />
  <ellipse
     class="cls-20"
     cx="26.867922"
     cy="34.439285"
     id="circle2804"
     style="fill:url(#radial-gradient-5);stroke-width:1"
     rx="2.0188599"
     ry="2.0188811" />
  <polygon
     class="cls-46"
     points="24,25.89 26.91,22.98 28.52,24.59 25.61,27.5 28.52,30.4 26.91,32.01 24,29.11 21.09,32.01 19.48,30.4 22.39,27.5 19.48,24.59 21.09,22.98 "
     id="polygon6710"
     style="fill:#ef2929;stroke:#ffffff;stroke-width:0.480724"
     transform="matrix(2.1558033,0.39608086,-0.39612535,2.1560454,-13.902146,-34.095472)" />
</svg>
