<?xml version="1.0" encoding="UTF-8" standalone="no"?>
<svg
   xmlns:i="http://ns.adobe.com/AdobeIllustrator/10.0/"
   xmlns:a="http://ns.adobe.com/AdobeSVGViewerExtensions/3.0/"
   xmlns:dc="http://purl.org/dc/elements/1.1/"
   xmlns:cc="http://creativecommons.org/ns#"
   xmlns:rdf="http://www.w3.org/1999/02/22-rdf-syntax-ns#"
   xmlns:svg="http://www.w3.org/2000/svg"
   xmlns="http://www.w3.org/2000/svg"
   xmlns:xlink="http://www.w3.org/1999/xlink"
   xmlns:sodipodi="http://sodipodi.sourceforge.net/DTD/sodipodi-0.dtd"
   xmlns:inkscape="http://www.inkscape.org/namespaces/inkscape"
   viewBox="0 0 48 48"
   version="1.1"
   id="svg145"
   sodipodi:docname="kinefx-scenecharacterexport.svg"
   inkscape:version="1.0.1 (3bc2e813f5, 2020-09-07)">
  <metadata
     id="metadata149">
    <rdf:RDF>
      <cc:Work
         rdf:about="">
        <dc:format>image/svg+xml</dc:format>
        <dc:type
           rdf:resource="http://purl.org/dc/dcmitype/StillImage" />
        <dc:title>5-Character Import</dc:title>
      </cc:Work>
    </rdf:RDF>
  </metadata>
  <sodipodi:namedview
     pagecolor="#ffffff"
     bordercolor="#666666"
     borderopacity="1"
     objecttolerance="10"
     gridtolerance="10"
     guidetolerance="10"
     inkscape:pageopacity="0"
     inkscape:pageshadow="2"
     inkscape:window-width="2560"
     inkscape:window-height="1377"
     id="namedview147"
     showgrid="false"
     inkscape:zoom="15.3125"
     inkscape:cx="33.944387"
     inkscape:cy="23.615392"
     inkscape:window-x="-8"
     inkscape:window-y="-8"
     inkscape:window-maximized="1"
     inkscape:current-layer="svg145"
     inkscape:snap-global="false"
     inkscape:document-rotation="0" />
  <defs
     id="defs47">
    <style
       id="style2">.cls-1,.cls-15,.cls-17,.cls-19,.cls-23,.cls-28,.cls-3,.cls-5{fill:none;}.cls-2{fill:url(#radial-gradient);}.cls-3,.cls-32,.cls-5{stroke:#c4a000;}.cls-23,.cls-3,.cls-5{stroke-linecap:round;stroke-linejoin:round;}.cls-15,.cls-3{stroke-width:0.7px;}.cls-4{fill:#edd400;}.cls-10,.cls-17,.cls-23,.cls-32,.cls-33,.cls-5,.cls-6,.cls-7{stroke-width:0.35px;}.cls-6{fill:#eeeeec;}.cls-10,.cls-33,.cls-6,.cls-7{stroke:#888a85;}.cls-10,.cls-15,.cls-17,.cls-19,.cls-28,.cls-32,.cls-33,.cls-6,.cls-7{stroke-miterlimit:10;}.cls-7{fill:#555753;}.cls-32,.cls-8{fill:#fce94f;}.cls-14,.cls-9{opacity:0.62;}.cls-9{fill:url(#linear-gradient);}.cls-10{fill:#888a85;}.cls-11{fill:#616260;}.cls-12{fill:#ef2929;}.cls-13{fill:url(#linear-gradient-2);}.cls-14{fill:url(#linear-gradient-3);}.cls-15{stroke:#a40000;}.cls-16{clip-path:url(#clip-path);}.cls-17{stroke:#231f20;}.cls-18{fill:url(#linear-gradient-4);}.cls-19{stroke:#d0dfef;}.cls-19,.cls-28{stroke-width:0.27px;}.cls-20{fill:#204a87;}.cls-21{fill:url(#New_Gradient_Swatch_2);}.cls-22{fill:url(#linear-gradient-5);}.cls-23{stroke:#729fcf;}.cls-24{fill:url(#linear-gradient-6);}.cls-25{fill:#3465a4;}.cls-26{fill:url(#New_Gradient_Swatch_2-2);}.cls-27{fill:url(#linear-gradient-7);}.cls-28{stroke:#204a87;}.cls-29,.cls-33{fill:#c4d7eb;}.cls-30{fill:url(#linear-gradient-8);}.cls-31{fill:url(#linear-gradient-9);}</style>
    <radialGradient
       id="radial-gradient"
       cx="8.92"
       cy="40.95"
       r="20.08"
       gradientTransform="matrix(1.19,0,0,0.25,13.22,30.8)"
       gradientUnits="userSpaceOnUse">
      <stop
         offset="0.03"
         stop-color="#2c2c2c"
         stop-opacity="0.5"
         id="stop4" />
      <stop
         offset="0.68"
         stop-color="#2c2c2c"
         stop-opacity="0.1"
         id="stop6" />
      <stop
         offset="0.93"
         stop-color="#2c2c2c"
         stop-opacity="0"
         id="stop8" />
    </radialGradient>
    <linearGradient
       id="linear-gradient"
       x1="23.73"
       y1="24"
       x2="30.11"
       y2="24"
       gradientUnits="userSpaceOnUse">
      <stop
         offset="0"
         stop-color="#fff"
         stop-opacity="0"
         id="stop11" />
      <stop
         offset="1"
         stop-color="snow"
         id="stop13" />
    </linearGradient>
    <linearGradient
       id="linear-gradient-2"
       x1="23.23"
       y1="26.87"
       x2="5.22"
       y2="20.75"
       gradientUnits="userSpaceOnUse"
       gradientTransform="matrix(1.0856052,0,0,1.0856052,10.367353,-2.0545264)">
      <stop
         offset="0"
         stop-color="#ef2929"
         stop-opacity="0"
         id="stop16" />
      <stop
         offset="1"
         stop-color="#a40000"
         id="stop18" />
      <stop
         offset="1"
         stop-color="snow"
         id="stop20" />
    </linearGradient>
    <linearGradient
       id="linear-gradient-3"
       x1="9.19"
       y1="39.37"
       x2="47.91"
       y2="4.07"
       xlink:href="#linear-gradient" />
    <clipPath
       id="clip-path">
      <rect
         class="cls-1"
         x="16.54"
         y="8.49"
         width="12.68"
         height="35.33"
         id="rect24" />
    </clipPath>
    <linearGradient
       id="linear-gradient-4"
       x1="16.13"
       y1="14.92"
       x2="19.44"
       y2="14.92"
       gradientTransform="matrix(1, 0.05, -0.05, 1, 7.59, 6.09)"
       gradientUnits="userSpaceOnUse">
      <stop
         offset="0"
         stop-color="#b2cbe5"
         id="stop27" />
      <stop
         offset="1"
         stop-color="#3465a4"
         id="stop29" />
    </linearGradient>
    <linearGradient
       id="New_Gradient_Swatch_2"
       x1="13.73"
       y1="-47.16"
       x2="16.28"
       y2="-44.81"
       gradientTransform="matrix(0.97, 0.27, -0.28, 0.96, -2.1, 53.63)"
       gradientUnits="userSpaceOnUse">
      <stop
         offset="0"
         stop-color="#729fcf"
         id="stop32" />
      <stop
         offset="1"
         stop-color="#3465a4"
         id="stop34" />
    </linearGradient>
    <linearGradient
       id="linear-gradient-5"
       x1="33.8"
       y1="42"
       x2="28.65"
       y2="23.77"
       gradientUnits="userSpaceOnUse">
      <stop
         offset="0"
         stop-color="#00255d"
         stop-opacity="0"
         id="stop37" />
      <stop
         offset="1"
         stop-color="#00255d"
         id="stop39" />
    </linearGradient>
    <linearGradient
       id="linear-gradient-6"
       x1="27.3"
       y1="15.12"
       x2="30.74"
       y2="16.06"
       xlink:href="#linear-gradient-4" />
    <linearGradient
       id="New_Gradient_Swatch_2-2"
       x1="52.17"
       y1="174"
       x2="55.76"
       y2="174"
       gradientTransform="matrix(0.85,-0.53,0.53,0.85,-110,-105.14)"
       xlink:href="#New_Gradient_Swatch_2" />
    <linearGradient
       id="linear-gradient-7"
       x1="53.39"
       y1="173.42"
       x2="54.38"
       y2="175.32"
       gradientTransform="matrix(0.85,-0.53,0.53,0.85,-110,-105.14)"
       xlink:href="#linear-gradient-5" />
    <linearGradient
       id="linear-gradient-8"
       x1="23.75"
       y1="32.29"
       x2="24.46"
       y2="52.23"
       xlink:href="#linear-gradient-5" />
    <linearGradient
       id="linear-gradient-9"
       x1="29.46"
       y1="17.97"
       x2="33.26"
       y2="39.56"
       xlink:href="#linear-gradient-4" />
    <linearGradient
       inkscape:collect="always"
       xlink:href="#linear-gradient"
       id="linearGradient974"
       gradientUnits="userSpaceOnUse"
       x1="23.73"
       y1="24"
       x2="30.11"
       y2="24" />
    <linearGradient
       inkscape:collect="always"
       xlink:href="#linear-gradient-4"
       id="linearGradient976"
       gradientUnits="userSpaceOnUse"
       gradientTransform="matrix(1,0.05,-0.05,1,7.59,6.09)"
       x1="16.13"
       y1="14.92"
       x2="19.44"
       y2="14.92" />
    <linearGradient
       inkscape:collect="always"
       xlink:href="#New_Gradient_Swatch_2"
       id="linearGradient978"
       gradientUnits="userSpaceOnUse"
       gradientTransform="matrix(0.97,0.27,-0.28,0.96,-2.1,53.63)"
       x1="13.73"
       y1="-47.16"
       x2="16.28"
       y2="-44.81" />
    <linearGradient
       inkscape:collect="always"
       xlink:href="#linear-gradient-5"
       id="linearGradient980"
       gradientUnits="userSpaceOnUse"
       x1="33.8"
       y1="42"
       x2="28.65"
       y2="23.77" />
    <linearGradient
       id="linear-gradient-3-7"
       x1="77.790001"
       y1="39.369999"
       x2="116.5"
       y2="4.0700002"
       gradientTransform="matrix(-1,0,0,1,114.39,0)"
       xlink:href="#linear-gradient-99" />
    <linearGradient
       id="linear-gradient-99"
       x1="12.4"
       y1="20.639999"
       x2="6.6500001"
       y2="15.23"
       gradientUnits="userSpaceOnUse">
      <stop
         offset="0"
         stop-color="#fff"
         stop-opacity="0"
         id="stop11-0" />
      <stop
         offset="1"
         stop-color="snow"
         id="stop13-5" />
    </linearGradient>
    <linearGradient
       inkscape:collect="always"
       xlink:href="#linearGradient1046"
       id="linearGradient1048"
       x1="-26.743887"
       y1="-41.644905"
       x2="-11.045573"
       y2="-7.9334474"
       gradientUnits="userSpaceOnUse"
       gradientTransform="rotate(180,-2.4945392,-1.3303124)" />
    <linearGradient
       inkscape:collect="always"
       id="linearGradient1046">
      <stop
         style="stop-color:#d3d7cf;stop-opacity:1"
         offset="0"
         id="stop1042" />
      <stop
         style="stop-color:#eeeeec;stop-opacity:1"
         offset="1"
         id="stop1044" />
    </linearGradient>
    <linearGradient
       inkscape:collect="always"
       xlink:href="#linearGradient1112"
       id="linearGradient1114"
       x1="-21.333351"
       y1="-42.291946"
       x2="-16.682568"
       y2="-7.6257591"
       gradientUnits="userSpaceOnUse"
       gradientTransform="rotate(180,-2.4945392,-1.3303124)" />
    <linearGradient
       inkscape:collect="always"
       id="linearGradient1112">
      <stop
         style="stop-color:#555753;stop-opacity:1;"
         offset="0"
         id="stop1108" />
      <stop
         style="stop-color:#888a85;stop-opacity:1"
         offset="1"
         id="stop1110" />
    </linearGradient>
    <linearGradient
       id="linear-gradient-3-5"
       x1="77.790001"
       y1="39.369999"
       x2="116.5"
       y2="4.0700002"
       gradientTransform="matrix(-1,0,0,1,114.39,0)"
       xlink:href="#linear-gradient-99" />
    <radialGradient
       inkscape:collect="always"
       xlink:href="#linearGradient1056"
       id="radialGradient1058"
       cx="25.015097"
       cy="27.925888"
       fx="25.015097"
       fy="27.925888"
       r="1.1010028"
       gradientUnits="userSpaceOnUse"
       gradientTransform="matrix(1.4613634,0,0,1.4613634,-28.167086,-15.544609)" />
    <linearGradient
       inkscape:collect="always"
       id="linearGradient1056">
      <stop
         style="stop-color:#000000;stop-opacity:1;"
         offset="0"
         id="stop1052" />
      <stop
         style="stop-color:#000000;stop-opacity:0;"
         offset="1"
         id="stop1054" />
    </linearGradient>
    <linearGradient
       y2="315.96039"
       x2="214.75591"
       y1="315.96039"
       x1="175.209"
       gradientUnits="userSpaceOnUse"
       id="XMLID_608_">
      <stop
         id="stop8634"
         style="stop-color:#7E807B"
         offset="0.0056" />
      <stop
         id="stop8636"
         style="stop-color:#656968"
         offset="0.3051" />
      <stop
         id="stop8638"
         style="stop-color:#4B5355"
         offset="0.7321" />
      <stop
         id="stop8640"
         style="stop-color:#424B4F"
         offset="1" />
      <a:midPointStop
         style="stop-color:#7E807B"
         offset="0.0056" />
      <a:midPointStop
         style="stop-color:#7E807B"
         offset="0.3955" />
      <a:midPointStop
         style="stop-color:#424B4F"
         offset="1" />
    </linearGradient>
    <linearGradient
       id="XMLID_609_"
       gradientUnits="userSpaceOnUse"
       x1="214.26559"
       y1="326.8208"
       x2="175.701"
       y2="305.10229">
      <stop
         offset="0"
         style="stop-color:#424B4F"
         id="stop8647" />
      <stop
         offset="1"
         style="stop-color:#889599"
         id="stop8649" />
      <a:midPointStop
         offset="0"
         style="stop-color:#424B4F" />
      <a:midPointStop
         offset="0.5"
         style="stop-color:#424B4F" />
      <a:midPointStop
         offset="1"
         style="stop-color:#889599" />
    </linearGradient>
    <linearGradient
       id="XMLID_610_"
       gradientUnits="userSpaceOnUse"
       x1="173.3242"
       y1="291.4028"
       x2="214.8008"
       y2="291.4028">
      <stop
         offset="0"
         style="stop-color:#383C40"
         id="stop8682" />
      <stop
         offset="0.4888"
         style="stop-color:#000000"
         id="stop8684" />
      <stop
         offset="1"
         style="stop-color:#383C40"
         id="stop8686" />
      <a:midPointStop
         offset="0"
         style="stop-color:#383C40" />
      <a:midPointStop
         offset="0.5"
         style="stop-color:#383C40" />
      <a:midPointStop
         offset="0.4888"
         style="stop-color:#000000" />
      <a:midPointStop
         offset="0.5"
         style="stop-color:#000000" />
      <a:midPointStop
         offset="1"
         style="stop-color:#383C40" />
    </linearGradient>
    <linearGradient
       id="XMLID_611_"
       gradientUnits="userSpaceOnUse"
       x1="193.1963"
       y1="288.60501"
       x2="194.82159"
       y2="293.85599">
      <stop
         offset="0"
         style="stop-color:#FFFFFF"
         id="stop8693" />
      <stop
         offset="1"
         style="stop-color:#D3D7CF"
         id="stop8695" />
      <a:midPointStop
         offset="0"
         style="stop-color:#FFFFFF" />
      <a:midPointStop
         offset="0.5"
         style="stop-color:#FFFFFF" />
      <a:midPointStop
         offset="1"
         style="stop-color:#D3D7CF" />
    </linearGradient>
    <linearGradient
       id="XMLID_612_"
       gradientUnits="userSpaceOnUse"
       x1="189.1768"
       y1="295.25629"
       x2="194.4856"
       y2="300.83029">
      <stop
         offset="0"
         style="stop-color:#FFFFFF"
         id="stop8702" />
      <stop
         offset="1"
         style="stop-color:#D3D7CF"
         id="stop8704" />
      <a:midPointStop
         offset="0"
         style="stop-color:#FFFFFF" />
      <a:midPointStop
         offset="0.5"
         style="stop-color:#FFFFFF" />
      <a:midPointStop
         offset="1"
         style="stop-color:#D3D7CF" />
    </linearGradient>
    <linearGradient
       id="XMLID_613_"
       gradientUnits="userSpaceOnUse"
       x1="195.8828"
       y1="297.25439"
       x2="194.6328"
       y2="304.25439">
      <stop
         offset="0"
         style="stop-color:#202526"
         id="stop8711" />
      <stop
         offset="0.5618"
         style="stop-color:#42484C"
         id="stop8713" />
      <stop
         offset="1"
         style="stop-color:#000000"
         id="stop8715" />
      <a:midPointStop
         offset="0"
         style="stop-color:#202526" />
      <a:midPointStop
         offset="0.5"
         style="stop-color:#202526" />
      <a:midPointStop
         offset="0.5618"
         style="stop-color:#42484C" />
      <a:midPointStop
         offset="0.5"
         style="stop-color:#42484C" />
      <a:midPointStop
         offset="1"
         style="stop-color:#000000" />
    </linearGradient>
    <linearGradient
       y2="303.0347"
       x2="183.0858"
       y1="292.9136"
       x1="177.0537"
       gradientUnits="userSpaceOnUse"
       id="XMLID_614_">
      <stop
         id="stop8720"
         style="stop-color:#EFEEEC"
         offset="0" />
      <stop
         id="stop8722"
         style="stop-color:#889599"
         offset="1" />
      <a:midPointStop
         style="stop-color:#EFEEEC"
         offset="0" />
      <a:midPointStop
         style="stop-color:#EFEEEC"
         offset="0.5" />
      <a:midPointStop
         style="stop-color:#889599"
         offset="1" />
    </linearGradient>
  </defs>
  <title
     id="title49">5-Character Import</title>
  <path
     style="fill:#ffffff;fill-rule:evenodd;stroke:none;stroke-width:1px;stroke-linecap:butt;stroke-linejoin:miter;stroke-opacity:1"
     d="m 44.212985,1.6711136 -7.613767,5.0654393 1.605604,36.1042901 5.746938,4.021546 z"
     id="path1040" />
  <g
     id="shadow"
     transform="matrix(0.63322391,0,0,1,18.819067,2.4816326)"
     style="stroke-width:1.25667">
    <ellipse
       class="cls-2"
       cx="23.799999"
       cy="40.950001"
       rx="22.879999"
       ry="4.8000002"
       id="ellipse51"
       style="fill:url(#radial-gradient);stroke-width:1.25667" />
  </g>
  <polygon
     class="cls-3"
     points="30.11,45.78 29.22,45.02 29.22,5.38 24.26,9.15 24.26,40.76 23.73,40.31 23.73,7.7 30.11,2.22 33.04,2.22 33.04,45.78 "
     id="polygon54"
     transform="matrix(1.0856052,0,0,1.0856052,10.367353,-2.0545264)" />
  <rect
     class="cls-4"
     x="43.054928"
     y="0.35551718"
     width="3.1808233"
     height="47.278107"
     id="rect56"
     style="stroke-width:1" />
  <rect
     class="cls-5"
     x="43.054928"
     y="0.35551718"
     width="3.1808233"
     height="47.278107"
     id="rect58" />
  <polyline
     class="cls-6"
     points="29.22 45.02 24.26 40.76 26.48 40.76 29.73 43.1"
     id="polyline60"
     transform="matrix(1.0856052,0,0,1.0856052,10.367353,-2.0545264)" />
  <polyline
     class="cls-7"
     points="29.23 5.38 24.26 9.15 26.48 9.15 29.73 7.08"
     id="polyline62"
     transform="matrix(1.0856052,0,0,1.0856052,10.367353,-2.0545264)" />
  <polygon
     class="cls-8"
     points="29.23,5.38 29.22,45.02 30.11,45.77 30.11,2.23 23.73,7.7 23.73,40.31 24.26,40.76 24.26,9.15 "
     id="polygon64"
     style="stroke-width:0.921145"
     transform="matrix(1.0856052,0,0,1.0856052,10.367353,-2.0545264)" />
  <polygon
     class="cls-9"
     points="29.23,5.38 29.22,45.02 30.11,45.77 30.11,2.23 23.73,7.7 23.73,40.31 24.26,40.76 24.26,9.15 "
     id="polygon66"
     style="fill:url(#linearGradient974);stroke-width:0.921145"
     transform="matrix(1.0856052,0,0,1.0856052,10.367353,-2.0545264)" />
  <polygon
     class="cls-5"
     points="29.23,5.38 29.22,45.02 30.11,45.77 30.11,2.23 23.73,7.7 23.73,40.31 24.26,40.76 24.26,9.15 "
     id="polygon68"
     transform="matrix(1.0856052,0,0,1.0856052,10.367353,-2.0545264)" />
  <rect
     class="cls-10"
     x="36.704136"
     y="7.8787608"
     width="2.2472026"
     height="34.315983"
     id="rect70" />
  <rect
     class="cls-11"
     x="37.518341"
     y="35.974224"
     width="0.77077967"
     height="2.6163087"
     id="rect72"
     style="stroke-width:1;fill:#eeeeec" />
  <g
     id="g1260"
     transform="translate(15.423586,2.5398121)">
    <path
       id="rect82"
       style="fill:url(#linearGradient1048);fill-opacity:1;stroke:url(#linearGradient1114);stroke-width:0.5;stroke-miterlimit:10;stroke-dasharray:none"
       d="M 22.123175,39.531067 H 6.0456506 V 5.2619826 H 22.123175 Z"
       class="cls-15" />
    <polygon
       class="cls-14"
       points="20.79,40.76 20.79,9.15 35.61,40.76 "
       id="polygon80"
       style="fill:url(#linear-gradient-3-5);stroke-width:0.922406"
       transform="matrix(1.0841216,0,0,1.0841216,-16.482393,-4.6468899)" />
    <circle
       class="cls-6"
       cx="8.3890619"
       cy="25.265265"
       r="1.6089653"
       id="circle1050"
       style="fill:url(#radialGradient1058);fill-opacity:1;stroke:none" />
    <rect
       style="color:#000000;font-variation-settings:normal;overflow:visible;vector-effect:none;fill:#c4d7eb;fill-opacity:1;stroke:#888a85;stroke-width:0.379443px;stroke-linecap:butt;stroke-linejoin:miter;stroke-miterlimit:10;stroke-dasharray:none;stroke-dashoffset:0;stroke-opacity:1;stop-color:#000000"
       id="rect1166"
       width="1.70382"
       height="3.8716836"
       x="7.4926353"
       y="21.321259" />
    <circle
       class="cls-6"
       cx="8.2967043"
       cy="24.711123"
       r="1.1010028"
       id="circle86" />
  </g>
  <rect
     class="cls-11"
     x="37.518341"
     y="11.482971"
     width="0.77077967"
     height="2.6163087"
     id="rect74"
     style="stroke-width:1" />
  <g
     class="cls-16"
     clip-path="url(#clip-path)"
     id="g136"
     style="stroke-width:0.921145"
     transform="matrix(1.0856052,0,0,1.0856052,10.367353,-2.0545264)">
    <circle
       class="cls-17"
       cx="29.5"
       cy="24.08"
       r="0.73000002"
       id="circle84" />
    <path
       class="cls-18"
       d="m 26.41,17.62 a 4.09,4.09 0 0 0 -1.49,1.49 30.22,30.22 0 0 1 -1.81,2.67 c -0.16,0.21 -0.12,0.45 0,0.78 a 9.55,9.55 0 0 0 1.63,3.52 l 0.66,-0.46 a 16.27,16.27 0 0 1 -0.68,-2.05 c -0.13,-0.65 -0.24,-1.25 -0.24,-1.25 a 13.22,13.22 0 0 1 1.95,-1.91"
       id="path86"
       style="fill:url(#linearGradient976);stroke-width:0.921145" />
    <path
       class="cls-19"
       d="m 26.41,17.62 a 4.09,4.09 0 0 0 -1.49,1.49 30.22,30.22 0 0 1 -1.81,2.67 c -0.16,0.21 -0.12,0.45 0,0.78 a 9.55,9.55 0 0 0 1.63,3.52 l 0.66,-0.46 a 16.27,16.27 0 0 1 -0.68,-2.05 c -0.13,-0.65 -0.24,-1.25 -0.24,-1.25 a 13.22,13.22 0 0 1 1.95,-1.91"
       id="path88" />
    <path
       class="cls-20"
       d="m 27.24,12.91 c 0,-0.44 -0.45,-0.6 -0.6,-0.31 a 11.28,11.28 0 0 1 -0.87,2.23 c -0.95,1.61 -2.56,1.2 -2.93,0.35 a 1.32,1.32 0 0 1 -0.1,-0.63 c 0.36,0.63 0.72,0.62 1.27,0.17 a 9,9 0 0 0 1.32,-1.93 c 0.23,-0.44 0.52,-1.6 1.31,-1.39 0.79,0.21 0.81,1.24 0.81,1.24"
       id="path90"
       style="stroke-width:0.921145" />
    <path
       class="cls-21"
       d="m 27.41,12.7 -0.07,0.09 a 1.2,1.2 0 0 0 -0.59,-0.88 c -0.27,-0.12 -0.59,0.1 -0.74,0.74 A 5.3,5.3 0 0 1 24.66,15.3 1.18,1.18 0 0 1 23,15.22 1,1 0 0 1 22.78,14.7 v 0 c 0.51,0.83 1.37,0.34 2.41,-1.4 0.36,-0.62 0.62,-2.05 1.41,-1.85 0.79,0.2 0.81,1.25 0.81,1.25 z"
       id="path92"
       style="fill:url(#linearGradient978);stroke-width:0.921145" />
    <path
       class="cls-20"
       d="m 26.42,11.59 v 0 h 0.16 a 0.92,0.92 0 0 1 0.59,0.71 0.53,0.53 0 0 0 -0.3,-0.09 0.48,0.48 0 0 0 -0.43,0.27 2.13,2.13 0 0 0 -0.18,0.53 7.13,7.13 0 0 1 -0.68,1.69 1.72,1.72 0 0 1 -1.47,1 1.19,1.19 0 0 1 -1,-0.54 h 0.23 c 0.77,0 1.57,-1.19 2.09,-2.19 a 4.93,4.93 0 0 0 0.23,-0.46 c 0.28,-0.59 0.46,-0.95 0.79,-0.95 m 0,-0.22 c -0.61,0 -0.83,0.8 -1.22,1.53 C 24.57,14.09 23.87,15 23.31,15 a 0.66,0.66 0 0 1 -0.57,-0.41 v 0 a 1.3,1.3 0 0 0 0.1,0.62 1.38,1.38 0 0 0 1.27,0.75 2,2 0 0 0 1.66,-1.1 12,12 0 0 0 0.87,-2.23 0.26,0.26 0 0 1 0.23,-0.15 0.42,0.42 0 0 1 0.37,0.46 l 0.14,-0.17 0.07,-0.1 c 0,0 0,-1 -0.81,-1.25 h -0.22 z"
       id="path94"
       style="stroke-width:0.921145" />
    <path
       class="cls-20"
       d="m 38,40.89 c -0.06,-0.1 -0.2,-0.43 -0.48,-0.42 A 6.77,6.77 0 0 0 36.67,40.58 3.82,3.82 0 0 1 35.36,40.41 2.52,2.52 0 0 1 34.55,39.28 49.46,49.46 0 0 1 32.81,34 2.77,2.77 0 0 0 32.57,32.66 v 0 c -0.42,-1 -2.17,-4.1 -2.68,-5 -0.62,-1.08 -1.69,-3 -2.94,-3 -1.54,-0.07 -2.58,1.75 -1.47,3.37 a 24.71,24.71 0 0 0 4.05,3.84 5,5 0 0 1 1.47,1.68 3.48,3.48 0 0 1 0,1.17 4.91,4.91 0 0 0 1,3.31 21.24,21.24 0 0 1 1.76,3.54 2.91,2.91 0 0 0 0.68,1.22 c 0.33,0.12 0.71,-0.15 0.92,-0.27 0.21,-0.12 2.17,-1.27 2.34,-1.37 0.17,-0.1 0.35,-0.15 0.3,-0.26 z"
       id="path96"
       style="stroke-width:0.921145" />
    <path
       class="cls-22"
       d="m 38,40.89 c -0.06,-0.1 -0.2,-0.43 -0.48,-0.42 A 6.77,6.77 0 0 0 36.67,40.58 3.82,3.82 0 0 1 35.36,40.41 2.52,2.52 0 0 1 34.55,39.28 49.46,49.46 0 0 1 32.81,34 2.77,2.77 0 0 0 32.57,32.66 v 0 c -0.42,-1 -2.17,-4.1 -2.68,-5 -0.62,-1.08 -1.69,-3 -2.94,-3 -1.54,-0.07 -2.58,1.75 -1.47,3.37 a 24.71,24.71 0 0 0 4.05,3.84 5,5 0 0 1 1.47,1.68 3.48,3.48 0 0 1 0,1.17 4.91,4.91 0 0 0 1,3.31 21.24,21.24 0 0 1 1.76,3.54 2.91,2.91 0 0 0 0.68,1.22 c 0.33,0.12 0.71,-0.15 0.92,-0.27 0.21,-0.12 2.17,-1.27 2.34,-1.37 0.17,-0.1 0.35,-0.15 0.3,-0.26 z"
       id="path98"
       style="fill:url(#linearGradient980);stroke-width:0.921145" />
    <path
       class="cls-23"
       d="m 38,40.89 c -0.06,-0.1 -0.2,-0.43 -0.48,-0.42 A 6.77,6.77 0 0 0 36.67,40.58 3.82,3.82 0 0 1 35.36,40.41 2.52,2.52 0 0 1 34.55,39.28 49.46,49.46 0 0 1 32.81,34 2.77,2.77 0 0 0 32.57,32.66 v 0 c -0.42,-1 -2.17,-4.1 -2.68,-5 -0.62,-1.08 -1.69,-3 -2.94,-3 -1.54,-0.07 -2.58,1.75 -1.47,3.37 a 24.71,24.71 0 0 0 4.05,3.84 5,5 0 0 1 1.47,1.68 3.48,3.48 0 0 1 0,1.17 4.91,4.91 0 0 0 1,3.31 21.24,21.24 0 0 1 1.76,3.54 2.91,2.91 0 0 0 0.68,1.22 c 0.33,0.12 0.71,-0.15 0.92,-0.27 0.21,-0.12 2.17,-1.27 2.34,-1.37 0.17,-0.1 0.35,-0.15 0.3,-0.26 z"
       id="path100" />
    <path
       class="cls-24"
       d="m 28.22,18.18 a 12.32,12.32 0 0 1 0.4,-1.59 c 0.08,-0.15 0.24,-0.31 0.41,-0.29 h 0.32 c 0.13,0 0.35,-0.18 0.47,-0.5 A 4,4 0 0 0 30,14 1.3,1.3 0 0 0 29.64,13.07 2.13,2.13 0 0 0 28.34,12.76 1.52,1.52 0 0 0 26.92,14 a 7.93,7.93 0 0 0 0,1.26 4.37,4.37 0 0 1 -0.6,2.25"
       id="path102"
       style="fill:url(#linear-gradient-6);stroke-width:0.921145" />
    <path
       class="cls-19"
       d="m 28.22,18.18 a 12.32,12.32 0 0 1 0.4,-1.59 c 0.08,-0.15 0.24,-0.31 0.41,-0.29 h 0.32 c 0.13,0 0.35,-0.18 0.47,-0.5 A 4,4 0 0 0 30,14 1.3,1.3 0 0 0 29.64,13.07 2.13,2.13 0 0 0 28.34,12.76 1.52,1.52 0 0 0 26.92,14 a 12.11,12.11 0 0 0 0,1.33 4.06,4.06 0 0 1 -0.58,2.18"
       id="path104" />
    <path
       class="cls-25"
       d="m 26.94,15.36 a 3,3 0 0 0 0.54,-0.14 3.81,3.81 0 0 0 1.05,-0.85 c 0.15,-0.22 0.42,-0.15 0.43,0 0.01,0.15 0.23,0.12 0.26,-0.1 a 1.42,1.42 0 0 1 0.69,-0.79 1,1 0 0 0 -0.38,-0.7 1.49,1.49 0 0 0 -1.33,-0.42 1.75,1.75 0 0 0 -1.46,1.3 c -0.05,0.68 0.26,1.15 0.2,1.7 z"
       id="path106"
       style="stroke-width:0.921145" />
    <path
       class="cls-26"
       d="m 26.94,15.36 a 3,3 0 0 0 0.54,-0.14 3.81,3.81 0 0 0 1.05,-0.85 c 0.15,-0.22 0.42,-0.15 0.43,0 0.01,0.15 0.23,0.12 0.26,-0.1 a 1.42,1.42 0 0 1 0.69,-0.79 1,1 0 0 0 -0.38,-0.7 1.49,1.49 0 0 0 -1.33,-0.42 1.75,1.75 0 0 0 -1.46,1.3 c -0.05,0.68 0.26,1.15 0.2,1.7 z"
       id="path108"
       style="fill:url(#New_Gradient_Swatch_2-2);stroke-width:0.921145" />
    <path
       class="cls-20"
       d="m 28.22,13 a 1,1 0 0 0 -0.73,1.19 1.3,1.3 0 0 1 -0.08,1.05 v 0 h 0.07 a 3.81,3.81 0 0 0 1.05,-0.85 c 0.15,-0.22 0.42,-0.15 0.43,0 0.01,0.15 0.23,0.12 0.26,-0.1 a 1.07,1.07 0 0 1 0.28,-0.46 l 0.16,-0.16 A 1.1,1.1 0 0 0 28.22,13 Z"
       id="path110"
       style="stroke-width:0.921145" />
    <path
       class="cls-27"
       d="m 28.22,13 a 1,1 0 0 0 -0.73,1.19 1.3,1.3 0 0 1 -0.08,1.05 v 0 h 0.07 a 3.81,3.81 0 0 0 1.05,-0.85 c 0.15,-0.22 0.42,-0.15 0.43,0 0.01,0.15 0.23,0.12 0.26,-0.1 a 1.07,1.07 0 0 1 0.28,-0.46 l 0.16,-0.16 A 1.1,1.1 0 0 0 28.22,13 Z"
       id="path112"
       style="fill:url(#linear-gradient-7);stroke-width:0.921145" />
    <path
       class="cls-28"
       d="m 26.94,15.36 a 3,3 0 0 0 0.54,-0.14 3.81,3.81 0 0 0 1.05,-0.85 c 0.15,-0.22 0.42,-0.15 0.43,0 0.01,0.15 0.23,0.12 0.26,-0.1 a 1.42,1.42 0 0 1 0.69,-0.79 1,1 0 0 0 -0.38,-0.7 1.58,1.58 0 0 0 -1.33,-0.42 1.49,1.49 0 0 0 -1.46,1.3 c -0.05,0.68 0.26,1.15 0.2,1.7 z"
       id="path114" />
    <ellipse
       class="cls-29"
       cx="28.57"
       cy="14.76"
       rx="0.43000001"
       ry="0.47"
       transform="rotate(-3.48,28.548267,14.705764)"
       id="ellipse116"
       style="stroke-width:0.921145" />
    <path
       class="cls-20"
       d="m 29.54,19.59 a 1.21,1.21 0 0 1 0.46,1.59 2.51,2.51 0 0 0 -0.27,1.4 10.17,10.17 0 0 1 -0.81,3.78 c -0.4,1.18 -0.16,0.81 -0.89,1.54 -1,1 -3.69,-0.4 -3.14,-2.41 0.4,-1 1.41,-1.58 1.73,-2.37 a 5.6,5.6 0 0 0 -0.48,-2.8 c -0.46,-1.23 -0.41,-2.8 0.71,-3 0.78,-0.16 2.15,1.78 2.69,2.27 z"
       id="path118"
       style="stroke-width:0.921145" />
    <path
       class="cls-23"
       d="m 29.54,19.59 a 1.21,1.21 0 0 1 0.46,1.59 2.51,2.51 0 0 0 -0.27,1.4 10.17,10.17 0 0 1 -0.81,3.78 c -0.4,1.18 -0.16,0.81 -0.89,1.54 -1,1 -3.69,-0.4 -3.14,-2.41 0.4,-1 1.41,-1.58 1.73,-2.37 a 5.6,5.6 0 0 0 -0.48,-2.8 c -0.46,-1.23 -0.41,-2.8 0.71,-3 0.78,-0.16 2.15,1.78 2.69,2.27 z"
       id="path120" />
    <path
       class="cls-20"
       d="m 27.31,24 a 2.15,2.15 0 0 0 -2.37,1.49 c -0.4,0.87 0.31,2.09 0.16,4 a 7,7 0 0 1 -0.75,2.87 c -0.48,0.61 -1.38,0.89 -2.07,1.94 A 14.18,14.18 0 0 0 20.79,37.23 6.82,6.82 0 0 1 20,38.6 c -0.23,0.39 -0.61,0.71 -0.74,0.94 -0.13,0.23 -0.48,0.35 -0.51,0.61 -0.03,0.26 0.45,0.9 0.65,1.09 a 10.69,10.69 0 0 0 1.33,1.13 3.08,3.08 0 0 0 1.28,0.44 c 0.2,0 0.32,-0.05 0.34,-0.17 0.02,-0.12 0.23,-0.45 0.16,-0.53 a 1.54,1.54 0 0 0 -0.29,-0.21 6.2,6.2 0 0 1 -0.94,-1.23 1.07,1.07 0 0 1 0,-0.94 0.67,0.67 0 0 0 0.09,-0.32 v 0 l 0.39,-0.56 a 56.48,56.48 0 0 1 3.59,-4.68 10.73,10.73 0 0 0 2.18,-3 A 8.94,8.94 0 0 0 28.9,26.75 2.48,2.48 0 0 0 27.31,24 Z"
       id="path122"
       style="stroke-width:0.921145" />
    <path
       class="cls-30"
       d="m 27.31,24 a 2.15,2.15 0 0 0 -2.37,1.49 c -0.4,0.87 0.31,2.09 0.16,4 a 7,7 0 0 1 -0.75,2.87 c -0.48,0.61 -1.38,0.89 -2.07,1.94 A 14.18,14.18 0 0 0 20.79,37.23 6.82,6.82 0 0 1 20,38.6 c -0.23,0.39 -0.61,0.71 -0.74,0.94 -0.13,0.23 -0.48,0.35 -0.51,0.61 -0.03,0.26 0.45,0.9 0.65,1.09 a 10.69,10.69 0 0 0 1.33,1.13 3.08,3.08 0 0 0 1.28,0.44 c 0.2,0 0.32,-0.05 0.34,-0.17 0.02,-0.12 0.23,-0.45 0.16,-0.53 a 1.54,1.54 0 0 0 -0.29,-0.21 6.2,6.2 0 0 1 -0.94,-1.23 1.07,1.07 0 0 1 0,-0.94 0.67,0.67 0 0 0 0.09,-0.32 v 0 l 0.39,-0.56 a 56.48,56.48 0 0 1 3.59,-4.68 10.73,10.73 0 0 0 2.18,-3 A 8.94,8.94 0 0 0 28.9,26.75 2.48,2.48 0 0 0 27.31,24 Z"
       id="path124"
       style="fill:url(#linear-gradient-8);stroke-width:0.921145" />
    <path
       class="cls-23"
       d="m 27.31,24 a 2.15,2.15 0 0 0 -2.37,1.49 c -0.4,0.87 0.31,2.09 0.16,4 a 7,7 0 0 1 -0.75,2.87 c -0.48,0.61 -1.24,1 -2.07,1.94 A 6.24,6.24 0 0 0 20.77,37 11.8,11.8 0 0 1 18.7,40.14 c -0.15,0.48 1.4,1.82 2,2.22 a 3.08,3.08 0 0 0 1.28,0.44 c 0.2,0 0.32,-0.05 0.34,-0.17 0.02,-0.12 0.26,-0.52 -0.13,-0.74 a 3.32,3.32 0 0 1 -0.94,-1.23 1.07,1.07 0 0 1 0,-0.94 9.54,9.54 0 0 1 0.48,-0.88 56.48,56.48 0 0 1 3.59,-4.68 10.73,10.73 0 0 0 2.18,-3 8.94,8.94 0 0 0 1.37,-4.42 A 2.48,2.48 0 0 0 27.31,24 Z"
       id="path126" />
    <path
       class="cls-31"
       d="m 31,26.36 a 17.47,17.47 0 0 1 1.89,0.66 c 0.41,0.22 0.38,0.38 0.38,0.38 a 2.73,2.73 0 0 0 0.48,1.07 2.4,2.4 0 0 1 0.32,1.27 c 0,0.34 0.1,0.47 0.2,0.38 a 1.19,1.19 0 0 0 0.22,-0.35 c 0,0 0.28,0.19 0.34,-0.37 a 3.43,3.43 0 0 0 -0.47,-2 3.06,3.06 0 0 0 -1,-0.95 27.64,27.64 0 0 1 -3.62,-2.48 0.9,0.9 0 0 1 -0.33,-0.52 c -0.16,-0.71 -0.55,-2.44 -0.64,-3 a 6.55,6.55 0 0 0 -0.26,-1.78 1.23,1.23 0 0 0 -1.38,-0.9 c -0.43,0.11 -1,0.55 -0.89,1.63 a 34.26,34.26 0 0 0 1.76,5.2 5.66,5.66 0 0 0 3,1.76 z"
       id="path128"
       style="fill:url(#linear-gradient-9);stroke-width:0.921145" />
    <path
       class="cls-19"
       d="m 31,26.36 a 17.47,17.47 0 0 1 1.89,0.66 c 0.41,0.22 0.38,0.38 0.38,0.38 a 2.73,2.73 0 0 0 0.48,1.07 2.4,2.4 0 0 1 0.32,1.27 c 0,0.34 0.1,0.47 0.2,0.38 a 1.19,1.19 0 0 0 0.22,-0.35 c 0,0 0.28,0.19 0.34,-0.37 a 3.43,3.43 0 0 0 -0.47,-2 3.06,3.06 0 0 0 -1,-0.95 27.64,27.64 0 0 1 -3.62,-2.48 0.9,0.9 0 0 1 -0.33,-0.52 c -0.16,-0.71 -0.55,-2.44 -0.64,-3 a 6.55,6.55 0 0 0 -0.26,-1.78 1.23,1.23 0 0 0 -1.38,-0.9 c -0.43,0.11 -1,0.55 -0.89,1.63 a 34.26,34.26 0 0 0 1.76,5.2 5.66,5.66 0 0 0 3,1.76 z"
       id="path130" />
    <path
       class="cls-23"
       d="m 20.75,37.07 a 3,3 0 0 0 1.48,0.94"
       id="path132" />
    <path
       class="cls-23"
       d="M 32.6,38.69 A 2.66,2.66 0 0 0 34,38.1"
       id="path134" />
  </g>
  <line
     class="cls-32"
     x1="42.088737"
     y1="3.7860298"
     x2="42.088737"
     y2="46.81942"
     id="line138" />
  <g
     transform="matrix(0.6256954,0,0,0.6256954,-108.42939,-166.48315)"
     id="g18942">
    <path
       i:knockout="Off"
       d="m 175.209,304.585 h 39.547 v 21.75 c 0,0.553 -0.448,1 -1,1 h -37.547 c -0.553,0 -1,-0.447 -1,-1 z"
       id="path8642"
       style="fill:url(#XMLID_608_);stroke:#161819;stroke-width:0.972654" />
    <g
       id="g8644">
      <linearGradient
         id="linearGradient19017"
         gradientUnits="userSpaceOnUse"
         x1="214.26559"
         y1="326.8208"
         x2="175.701"
         y2="305.10229">
        <stop
           offset="0"
           style="stop-color:#424B4F"
           id="stop19019" />
        <stop
           offset="1"
           style="stop-color:#889599"
           id="stop19021" />
        <a:midPointStop
           offset="0"
           style="stop-color:#424B4F" />
        <a:midPointStop
           offset="0.5"
           style="stop-color:#424B4F" />
        <a:midPointStop
           offset="1"
           style="stop-color:#889599" />
      </linearGradient>
      <path
         i:knockout="Off"
         d="m 213.756,305.085 h -38.047 v 21.75 h 38.547 v -21.75 z m -0.5,1 c 0,0.928 0,18.821 0,19.75 -0.96,0 -35.587,0 -36.547,0 0,-0.929 0,-18.822 0,-19.75 0.96,0 35.587,0 36.547,0 z"
         id="path8651"
         style="fill:url(#XMLID_609_)" />
    </g>
    <polygon
       i:knockout="Off"
       points="213.426,304.585 208.754,298.416 203.954,298.416 208.626,304.585 "
       id="polygon8653"
       style="fill:#10100f" />
    <polygon
       i:knockout="Off"
       points="203.826,304.585 199.154,298.416 194.354,298.416 199.026,304.585 "
       id="polygon8655"
       style="fill:#10100f" />
    <polygon
       i:knockout="Off"
       points="194.227,304.585 189.555,298.416 184.755,298.416 189.427,304.585 "
       id="polygon8657"
       style="fill:#10100f" />
    <polygon
       i:knockout="Off"
       points="184.627,304.585 179.955,298.416 175.155,298.416 179.827,304.585 "
       id="polygon8659"
       style="fill:#10100f" />
    <path
       i:knockout="Off"
       d="m 212.284,284.378 c 0.563,-0.077 1.084,0.27 1.162,0.938 l -2.668,5.686 -5.332,1.134 3.287,-7.006 z"
       id="path8661"
       style="fill:#10100f" />
    <polygon
       i:knockout="Off"
       points="203.401,286.263 200.114,293.269 194.782,294.402 198.069,287.396 "
       id="polygon8663"
       style="fill:#10100f" />
    <polygon
       i:knockout="Off"
       points="189.451,295.536 192.738,288.53 187.407,289.664 184.12,296.669 "
       id="polygon8665"
       style="fill:#10100f" />
    <path
       i:knockout="Off"
       d="m 174.511,296.691 2.232,-4.762 5.332,-1.133 -3.287,7.006 -2.864,0.608 c -0.641,0.079 -1.099,-0.19 -1.21,-0.765 z"
       id="path8667"
       style="fill:#10100f" />
    <line
       i:knockout="Off"
       x1="180.36"
       y1="314.99799"
       x2="208.32899"
       y2="314.99799"
       id="line8669"
       style="fill:none;stroke:#efeeec;stroke-width:0.972654" />
    <line
       i:knockout="Off"
       x1="180.36"
       y1="319.048"
       x2="189.64301"
       y2="319.048"
       id="line8671"
       style="fill:none;stroke:#efeeec;stroke-width:0.972654" />
    <line
       i:knockout="Off"
       x1="180.36"
       y1="322.673"
       x2="193.26801"
       y2="322.673"
       id="line8673"
       style="fill:none;stroke:#efeeec;stroke-width:0.972654" />
    <path
       i:knockout="Off"
       d="m 181.542,311.46 c 0.682,0.228 2.081,0.714 2.785,0.415 0.553,-0.235 0.353,-0.074 0.489,-0.597 0.138,-0.526 0,-1.248 0,-1.797 0.051,1.548 -0.493,3.565 -0.491,5.303 0,0.815 0,1.631 0,2.445 0,-1.983 0.113,-3.882 0.327,-5.828 0.013,0.407 0.243,1.185 0.737,1.205 0.422,0.018 0.917,-0.806 1.151,-1.122 -0.01,0.687 0.438,1.352 0.668,1.988 0.36,-0.489 1.117,-1.185 1.128,-1.834 -0.022,0.698 0.082,1.457 0.514,2.004 1.091,-1.295 0.713,-3.289 0.713,-4.861 -0.104,1.74 0.639,3.178 1.074,4.768 0.329,-0.553 0.971,-1.052 1.615,-0.975 0.043,-0.819 -0.111,-2.031 0.158,-2.746 0.043,0.704 -0.051,1.825 0.345,2.438 0.239,0.37 0.575,0.351 0.819,0.75"
       id="path8675"
       style="fill:none;stroke:#efeeec;stroke-width:0.972654" />
    <path
       i:knockout="Off"
       d="m 190.435,319.167 c 0.213,-0.874 0.797,-2.214 1.352,-2.932 0.148,0.833 0.052,1.979 0.541,2.7 0.611,-0.495 1.363,-0.91 1.566,-1.733 0.435,0.548 0.765,1.158 0.714,1.879 0.834,0.055 1.255,-0.582 1.651,-1.049 0.622,-0.732 1.434,-1.053 2.331,-1.435 -0.2,0.626 -0.722,0.954 -0.728,1.653 0.368,0.049 0.759,-0.015 1.114,-0.079 -0.075,-0.534 0.396,-0.933 0.922,-0.812 0.457,0.105 0.688,0.662 0.825,1.048 0.389,-0.252 0.811,-0.654 1.283,-0.749 0.073,0.212 0.179,0.266 0.161,0.507 0,-0.98 0.044,-1.95 0.079,-2.929 0.047,-1.297 -0.381,-2.594 -0.307,-3.853 0.015,2.88 0.972,5.703 0.908,8.561 -0.36,-1.409 -0.06,-2.743 0.765,-3.86 0.03,0.283 0.098,0.549 0.07,0.844 -0.077,0.829 -0.858,1.333 -0.901,2.16 0.548,-0.224 1.887,-0.737 2.035,-1.342 -0.009,1.642 1.319,0.152 1.682,-0.239 0.296,0.221 0.421,0.655 0.809,0.648 0.028,-0.418 0.277,-1.008 0.538,-1.336"
       id="path8677"
       style="fill:none;stroke:#efeeec;stroke-width:0.972654" />
    <g
       id="g8679">
      <linearGradient
         id="linearGradient19038"
         gradientUnits="userSpaceOnUse"
         x1="173.3242"
         y1="291.4028"
         x2="214.8008"
         y2="291.4028">
        <stop
           offset="0"
           style="stop-color:#383C40"
           id="stop19040" />
        <stop
           offset="0.4888"
           style="stop-color:#000000"
           id="stop19042" />
        <stop
           offset="1"
           style="stop-color:#383C40"
           id="stop19044" />
        <a:midPointStop
           offset="0"
           style="stop-color:#383C40" />
        <a:midPointStop
           offset="0.5"
           style="stop-color:#383C40" />
        <a:midPointStop
           offset="0.4888"
           style="stop-color:#000000" />
        <a:midPointStop
           offset="0.5"
           style="stop-color:#000000" />
        <a:midPointStop
           offset="1"
           style="stop-color:#383C40" />
      </linearGradient>
      <path
         i:knockout="Off"
         d="m 212.122,283.898 -37.609,7.994 c -0.392,0.084 -0.728,0.314 -0.945,0.65 -0.219,0.336 -0.293,0.737 -0.21,1.129 l 0.866,4.078 c 0.172,0.809 0.971,1.328 1.779,1.156 l 37.609,-7.994 c 0.393,-0.084 0.729,-0.314 0.946,-0.65 0.218,-0.337 0.292,-0.738 0.209,-1.13 l -0.866,-4.077 c -0.172,-0.808 -0.97,-1.327 -1.779,-1.156 z m -36.92,13.644 -0.866,-4.078 c -0.028,-0.131 -0.003,-0.267 0.069,-0.377 0.072,-0.111 0.186,-0.189 0.315,-0.217 l 37.608,-7.994 c 0.271,-0.057 0.536,0.116 0.594,0.387 v -10e-4 l 0.866,4.077 c 0.028,0.131 0.003,0.266 -0.069,0.377 -0.072,0.111 -0.185,0.189 -0.314,0.217 l -37.609,7.994 c -0.27,0.057 -0.536,-0.115 -0.594,-0.385 z"
         id="path8688"
         style="fill:url(#XMLID_610_)" />
    </g>
    <g
       id="g8690"
       style="opacity:0.75">
      <linearGradient
         id="linearGradient19048"
         gradientUnits="userSpaceOnUse"
         x1="193.1963"
         y1="288.60501"
         x2="194.82159"
         y2="293.85599">
        <stop
           offset="0"
           style="stop-color:#FFFFFF"
           id="stop19050" />
        <stop
           offset="1"
           style="stop-color:#D3D7CF"
           id="stop19052" />
        <a:midPointStop
           offset="0"
           style="stop-color:#FFFFFF" />
        <a:midPointStop
           offset="0.5"
           style="stop-color:#FFFFFF" />
        <a:midPointStop
           offset="1"
           style="stop-color:#D3D7CF" />
      </linearGradient>
      <path
         i:knockout="Off"
         d="m 212.33,284.876 -38.099,8.098 1.074,5.057 38.588,-8.201 -1.075,-5.057 z m -0.281,1.082 c 0.139,0.654 0.52,2.445 0.659,3.1 -0.94,0.201 -35.691,7.587 -36.631,7.787 -0.14,-0.654 -0.521,-2.445 -0.66,-3.1 0.941,-0.201 35.691,-7.586 36.632,-7.787 z"
         id="path8697"
         style="fill:url(#XMLID_611_)" />
    </g>
    <g
       id="g8699"
       style="opacity:0.8">
      <linearGradient
         id="linearGradient19056"
         gradientUnits="userSpaceOnUse"
         x1="189.1768"
         y1="295.25629"
         x2="194.4856"
         y2="300.83029">
        <stop
           offset="0"
           style="stop-color:#FFFFFF"
           id="stop19058" />
        <stop
           offset="1"
           style="stop-color:#D3D7CF"
           id="stop19060" />
        <a:midPointStop
           offset="0"
           style="stop-color:#FFFFFF" />
        <a:midPointStop
           offset="0.5"
           style="stop-color:#FFFFFF" />
        <a:midPointStop
           offset="1"
           style="stop-color:#D3D7CF" />
      </linearGradient>
      <path
         i:knockout="Off"
         d="M 214.349,298.916 H 175.4 v 5.17 h 39.449 v -5.17 z m -0.5,1 c 0,0.67 0,2.5 0,3.17 -0.961,0 -36.488,0 -37.449,0 0,-0.67 0,-2.5 0,-3.17 0.96,0 36.488,0 37.449,0 z"
         id="path8706"
         style="fill:url(#XMLID_612_)" />
    </g>
    <g
       id="g8708">
      <linearGradient
         id="linearGradient19064"
         gradientUnits="userSpaceOnUse"
         x1="195.8828"
         y1="297.25439"
         x2="194.6328"
         y2="304.25439">
        <stop
           offset="0"
           style="stop-color:#202526"
           id="stop19066" />
        <stop
           offset="0.5618"
           style="stop-color:#42484C"
           id="stop19068" />
        <stop
           offset="1"
           style="stop-color:#000000"
           id="stop19070" />
        <a:midPointStop
           offset="0"
           style="stop-color:#202526" />
        <a:midPointStop
           offset="0.5"
           style="stop-color:#202526" />
        <a:midPointStop
           offset="0.5618"
           style="stop-color:#42484C" />
        <a:midPointStop
           offset="0.5"
           style="stop-color:#42484C" />
        <a:midPointStop
           offset="1"
           style="stop-color:#000000" />
      </linearGradient>
      <path
         i:knockout="Off"
         d="m 175.899,297.916 c -0.827,0 -1.5,0.674 -1.5,1.5 v 4.17 c 0,0.826 0.673,1.5 1.5,1.5 h 38.449 c 0.827,0 1.5,-0.674 1.5,-1.5 v -4.17 c 0,-0.826 -0.673,-1.5 -1.5,-1.5 z m -0.5,5.669 v -4.17 c 0,-0.275 0.225,-0.5 0.5,-0.5 h 38.449 c 0.134,0 0.259,0.053 0.354,0.146 0.095,0.095 0.146,0.221 0.146,0.354 v 4.17 c 0,0.275 -0.225,0.5 -0.5,0.5 h -38.449 c -0.275,0 -0.5,-0.224 -0.5,-0.5 z"
         id="path8717"
         style="fill:url(#XMLID_613_)" />
    </g>
    <path
       i:knockout="Off"
       d="m 189.819,302.773 c 0,0.303 -0.246,0.549 -0.55,0.549 h -12.59 c -0.304,0 -0.55,-0.246 -0.55,-0.549 v -9.033 c 0,-0.305 0.246,-0.55 0.55,-0.55 h 6.789 c 0.304,0 0.55,0.55 0.55,0.55 z"
       id="path8724"
       style="fill:url(#XMLID_614_);stroke:#2d3335;stroke-width:0.972654" />
    <circle
       i:knockout="Off"
       cx="179.2"
       cy="295.59399"
       r="0.55900002"
       id="circle8726"
       style="fill:#ffffff" />
    <circle
       i:knockout="Off"
       cx="179.2"
       cy="300.62"
       r="0.55900002"
       id="circle8728"
       style="fill:#ffffff" />
    <circle
       i:knockout="Off"
       cx="184.015"
       cy="300.62"
       r="0.55800003"
       id="circle8730"
       style="fill:#ffffff" />
  </g>
</svg>
