<?xml version="1.0" encoding="UTF-8" standalone="no"?>
<!-- Created with Inkscape (http://www.inkscape.org/) -->
<svg
   xmlns:dc="http://purl.org/dc/elements/1.1/"
   xmlns:cc="http://web.resource.org/cc/"
   xmlns:rdf="http://www.w3.org/1999/02/22-rdf-syntax-ns#"
   xmlns:svg="http://www.w3.org/2000/svg"
   xmlns="http://www.w3.org/2000/svg"
   xmlns:xlink="http://www.w3.org/1999/xlink"
   xmlns:sodipodi="http://sodipodi.sourceforge.net/DTD/sodipodi-0.dtd"
   xmlns:inkscape="http://www.inkscape.org/namespaces/inkscape"
   width="48px"
   height="48px"
   id="svg20976"
   sodipodi:version="0.32"
   inkscape:version="0.44"
   sodipodi:docbase="e:\dev_clean\src\houdini\support\icons\sop"
   sodipodi:docname="polysplit.svg">
  <defs
     id="defs20978">
    <linearGradient
       id="linearGradient8451">
      <stop
         id="stop8453"
         offset="0"
         style="stop-color:#fedba7;stop-opacity:1;" />
      <stop
         id="stop8455"
         offset="1"
         style="stop-color:#fdbf64;stop-opacity:1;" />
    </linearGradient>
    <linearGradient
       id="linearGradient8439">
      <stop
         id="stop8441"
         offset="0"
         style="stop-color:#ffa54c;stop-opacity:1;" />
      <stop
         id="stop8443"
         offset="1"
         style="stop-color:#f57900;stop-opacity:1;" />
    </linearGradient>
    <radialGradient
       gradientUnits="userSpaceOnUse"
       gradientTransform="matrix(1.000000,0.000000,0.000000,1.010300,1.007969e-18,-0.159801)"
       r="7.2848282"
       cy="23.333008"
       cx="165.06104"
       id="radialGradient16850">
      <stop
         id="stop16852"
         style="stop-color:#EF3535"
         offset="0" />
      <stop
         id="stop16854"
         style="stop-color:#a40000;stop-opacity:0"
         offset="1" />
    </radialGradient>
    <linearGradient
       inkscape:collect="always"
       id="linearGradient2259">
      <stop
         style="stop-color:#9a0c00;stop-opacity:1;"
         offset="0"
         id="stop2261" />
      <stop
         style="stop-color:#9a0c00;stop-opacity:0;"
         offset="1"
         id="stop2263" />
    </linearGradient>
    <linearGradient
       inkscape:collect="always"
       id="linearGradient2251">
      <stop
         style="stop-color:#df2a2a;stop-opacity:1;"
         offset="0"
         id="stop2253" />
      <stop
         style="stop-color:#df2a2a;stop-opacity:0;"
         offset="1"
         id="stop2255" />
    </linearGradient>
    <linearGradient
       id="XMLID_45_"
       gradientUnits="userSpaceOnUse"
       x1="68.175293"
       y1="21.424805"
       x2="74.587158"
       y2="27.836672">
      <stop
         offset="0"
         style="stop-color:#BABDB6"
         id="stop695" />
      <stop
         offset="1"
         style="stop-color:#EEEEEC"
         id="stop697" />
    </linearGradient>
    <radialGradient
       id="XMLID_52_"
       cx="165.06104"
       cy="23.333008"
       r="7.2848282"
       gradientTransform="matrix(1.000000,0.000000,0.000000,1.010300,1.007969e-18,-0.159801)"
       gradientUnits="userSpaceOnUse">
      <stop
         offset="0"
         style="stop-color:#EF3535"
         id="stop812" />
      <stop
         id="stop2239"
         style="stop-color:#c91a1a;stop-opacity:1;"
         offset="0" />
      <stop
         offset="1"
         style="stop-color:#ff4c4c;stop-opacity:1;"
         id="stop814" />
    </radialGradient>
    <linearGradient
       id="linearGradient2229">
      <stop
         style="stop-color:#e2e2e2;stop-opacity:1;"
         offset="0"
         id="stop2231" />
      <stop
         style="stop-color:#d8d8d8;stop-opacity:1;"
         offset="1"
         id="stop2233" />
    </linearGradient>
    <linearGradient
       id="XMLID_897_"
       gradientUnits="userSpaceOnUse"
       x1="292.97168"
       y1="4.7592773"
       x2="296.93979"
       y2="10.711433">
      <stop
         offset="0"
         style="stop-color:#EEEEEC"
         id="stop45093" />
      <stop
         offset="1"
         style="stop-color:#ffffff;stop-opacity:1;"
         id="stop45095" />
    </linearGradient>
    <linearGradient
       inkscape:collect="always"
       xlink:href="#XMLID_897_"
       id="linearGradient21133"
       gradientUnits="userSpaceOnUse"
       gradientTransform="matrix(0,-4.127761,-4.136601,0,66.18174,1233.171)"
       x1="294.03226"
       y1="6.3111944"
       x2="296.93979"
       y2="10.711433" />
    <linearGradient
       inkscape:collect="always"
       xlink:href="#linearGradient2229"
       id="linearGradient21135"
       gradientUnits="userSpaceOnUse"
       gradientTransform="matrix(0,1,-1,0,54.27679,-11.29465)"
       x1="20.288025"
       y1="6.4603648"
       x2="24.32597"
       y2="23.942537" />
    <linearGradient
       inkscape:collect="always"
       xlink:href="#XMLID_52_"
       id="linearGradient21137"
       gradientUnits="userSpaceOnUse"
       x1="294.59497"
       y1="12.187603"
       x2="297.18515"
       y2="13.3396" />
    <linearGradient
       inkscape:collect="always"
       xlink:href="#XMLID_52_"
       id="linearGradient21139"
       gradientUnits="userSpaceOnUse"
       gradientTransform="matrix(0,3.637893,-3.470375,0,70.28403,-1067.41)"
       x1="296.48611"
       y1="15.506916"
       x2="296.52905"
       y2="9.8769522" />
    <linearGradient
       inkscape:collect="always"
       xlink:href="#XMLID_897_"
       id="linearGradient21141"
       gradientUnits="userSpaceOnUse"
       gradientTransform="matrix(0,4.053427,-4.136601,0,66.18174,-1186.829)"
       x1="292.97168"
       y1="4.7592773"
       x2="296.93979"
       y2="10.711433" />
    <linearGradient
       inkscape:collect="always"
       xlink:href="#linearGradient2229"
       id="linearGradient21143"
       gradientUnits="userSpaceOnUse"
       gradientTransform="matrix(0,1,-1,0,54.27679,-11.29465)"
       x1="20.288025"
       y1="6.4603648"
       x2="24.32597"
       y2="23.942537" />
    <linearGradient
       inkscape:collect="always"
       xlink:href="#XMLID_45_"
       id="linearGradient21145"
       gradientUnits="userSpaceOnUse"
       x1="22.225399"
       y1="23.843431"
       x2="24.190449"
       y2="22.860907" />
    <linearGradient
       inkscape:collect="always"
       xlink:href="#XMLID_52_"
       id="linearGradient21147"
       gradientUnits="userSpaceOnUse"
       gradientTransform="matrix(0,1.161878,-0.992497,0,54.01103,-13.72542)"
       x1="7.184845"
       y1="31.056622"
       x2="25.152235"
       y2="50.774887" />
    <linearGradient
       inkscape:collect="always"
       xlink:href="#XMLID_52_"
       id="linearGradient21149"
       gradientUnits="userSpaceOnUse"
       gradientTransform="matrix(0,1.161878,-0.992497,0,54.21278,-13.96161)"
       x1="13.82536"
       y1="40.068752"
       x2="7.6700611"
       y2="2.3262277" />
    <radialGradient
       inkscape:collect="always"
       xlink:href="#XMLID_52_"
       id="radialGradient21151"
       gradientUnits="userSpaceOnUse"
       gradientTransform="matrix(0,1,-1.060381,0,56.5763,-11.29465)"
       cx="34.376091"
       cy="37.50008"
       fx="34.376091"
       fy="37.50008"
       r="8.3887873" />
    <linearGradient
       inkscape:collect="always"
       xlink:href="#linearGradient2251"
       id="linearGradient21153"
       gradientUnits="userSpaceOnUse"
       x1="298.47852"
       y1="13.599585"
       x2="298.86948"
       y2="13.802949" />
    <linearGradient
       inkscape:collect="always"
       xlink:href="#linearGradient2259"
       id="linearGradient21155"
       gradientUnits="userSpaceOnUse"
       x1="298.47852"
       y1="13.599585"
       x2="298.86948"
       y2="13.802949" />
    <linearGradient
       inkscape:collect="always"
       xlink:href="#XMLID_52_"
       id="linearGradient21157"
       gradientUnits="userSpaceOnUse"
       gradientTransform="matrix(0,3.624438,-3.624438,0,71.12399,-1064.473)"
       x1="296.76199"
       y1="12.012225"
       x2="297.79822"
       y2="10.946587" />
    <linearGradient
       inkscape:collect="always"
       xlink:href="#radialGradient16850"
       id="linearGradient21159"
       gradientUnits="userSpaceOnUse"
       gradientTransform="matrix(0,1.161878,-0.992497,0,54.21278,-16.40676)"
       x1="39.619942"
       y1="44.540932"
       x2="-3.532515"
       y2="-11.889042" />
    <linearGradient
       inkscape:collect="always"
       xlink:href="#linearGradient8439"
       id="linearGradient21217"
       gradientUnits="userSpaceOnUse"
       gradientTransform="matrix(0.863571,0,0,0.862656,3.345713,6.116916)"
       x1="14.928572"
       y1="17.92857"
       x2="35.357143"
       y2="27.92857" />
    <linearGradient
       inkscape:collect="always"
       xlink:href="#linearGradient8451"
       id="linearGradient21219"
       gradientUnits="userSpaceOnUse"
       gradientTransform="matrix(0.966684,0,0,0.96566,0.801953,0.897753)"
       x1="2.1314287"
       y1="26.142851"
       x2="46.011414"
       y2="26.142851" />
    <linearGradient
       inkscape:collect="always"
       xlink:href="#linearGradient8439"
       id="linearGradient21229"
       gradientUnits="userSpaceOnUse"
       gradientTransform="matrix(0.806278,0,0,0.8051,6.875907,10.97042)"
       x1="14.928572"
       y1="17.92857"
       x2="35.357143"
       y2="27.92857" />
    <linearGradient
       inkscape:collect="always"
       xlink:href="#linearGradient8451"
       id="linearGradient21231"
       gradientUnits="userSpaceOnUse"
       gradientTransform="matrix(0.90255,0,0,0.901231,4.50091,6.099481)"
       x1="2.1314287"
       y1="26.142851"
       x2="46.011414"
       y2="26.142851" />
  </defs>
  <sodipodi:namedview
     id="base"
     pagecolor="#ffffff"
     bordercolor="#666666"
     borderopacity="1.0"
     inkscape:pageopacity="0.0"
     inkscape:pageshadow="2"
     inkscape:zoom="7.2050459"
     inkscape:cx="24.507457"
     inkscape:cy="20.744796"
     inkscape:current-layer="layer1"
     showgrid="true"
     inkscape:grid-bbox="true"
     inkscape:document-units="px"
     inkscape:window-width="853"
     inkscape:window-height="646"
     inkscape:window-x="323"
     inkscape:window-y="196" />
  <metadata
     id="metadata20981">
    <rdf:RDF>
      <cc:Work
         rdf:about="">
        <dc:format>image/svg+xml</dc:format>
        <dc:type
           rdf:resource="http://purl.org/dc/dcmitype/StillImage" />
      </cc:Work>
    </rdf:RDF>
  </metadata>
  <g
     id="layer1"
     inkscape:label="Layer 1"
     inkscape:groupmode="layer">
    <path
       style="fill:url(#linearGradient21229);fill-opacity:1;fill-rule:evenodd;stroke:url(#linearGradient21231);stroke-width:0.9999997px;stroke-linecap:butt;stroke-linejoin:round;stroke-opacity:1"
       d="M 6.8759069,29.487711 L 27.032857,21.436716 L 45.577251,29.487711 L 27.032857,37.883749 L 6.8759069,29.487711 z "
       id="path8429" />
    <path
       style="fill:none;fill-opacity:0.75;fill-rule:evenodd;stroke:#8b3b00;stroke-width:1;stroke-linecap:butt;stroke-linejoin:miter;stroke-miterlimit:4;stroke-dasharray:1.00000005, 1.00000005;stroke-dashoffset:0;stroke-opacity:1"
       d="M 32.021481,29.119445 L 46.452351,29.119445"
       id="path21223" />
    <path
       style="fill:none;fill-opacity:1;fill-rule:evenodd;stroke:black;stroke-width:1.0000006px;stroke-linecap:butt;stroke-linejoin:round;stroke-opacity:1"
       d="M 5.0619465,29.459807 L 27.101032,20.437667 L 47.376992,29.459807 L 27.101032,38.868611 L 5.0619465,29.459807 z "
       id="path8447" />
    <path
       style="fill:none;fill-opacity:0.75;fill-rule:evenodd;stroke:black;stroke-width:1.00000024px;stroke-linecap:butt;stroke-linejoin:miter;stroke-opacity:1"
       d="M 5.2029251,29.119445 L 21.751264,29.119445"
       id="path21221" />
    <g
       id="g21118"
       transform="matrix(0.686337,0.312241,-0.312367,0.686061,6.763949,2.537169)">
      <path
         id="path16717"
         d="M 36.896366,21.211509 C 33.678718,19.308999 29.766869,16.503744 26.551516,14.605113 C 26.404614,13.859367 26.324603,13.107086 26.306826,12.353349 C 26.266616,10.766957 26.501321,9.138417 27.040896,7.632785 C 31.316533,10.158221 40.895687,16.036461 45.168315,18.573946 C 42.291708,19.56422 38.364934,20.886376 36.896366,21.211509 z "
         style="fill:url(#linearGradient21133);stroke:#888a85;stroke-width:1.32639396;stroke-linecap:round;stroke-linejoin:round;stroke-miterlimit:4;stroke-dasharray:none;stroke-opacity:1"
         sodipodi:nodetypes="ccsccc" />
      <path
         id="path16719"
         d="M 41.855177,18.021722 C 38.485165,15.979351 32.014122,12.115234 28.651786,10.08433 C 28.398669,10.023779 27.639495,9.270401 27.708823,10.072289 C 27.510943,11.183846 27.358219,12.344036 27.651786,13.452116 C 30.760389,15.331611 34.237838,17.54992 37.358717,19.410317 C 38.678426,19.107321 40.423535,18.288833 41.855177,18.021722 z "
         style="fill:url(#linearGradient21135);fill-opacity:1;stroke:none;stroke-width:1.25;stroke-linecap:round;stroke-linejoin:round;stroke-miterlimit:4;stroke-dasharray:none;stroke-opacity:1"
         sodipodi:nodetypes="cccccc" />
      <polygon
         transform="matrix(0,3.637893,-3.470375,0,70.28403,-1067.41)"
         points="297.04443,12.300293 296.39941,13.384766 295.13281,14.71875 294.73242,13.672852 295.74658,11.960449 297.04443,12.300293 "
         id="polygon45129"
         style="fill:url(#linearGradient21137);fill-opacity:1;stroke:#9a0c00;stroke-width:0.37330124;stroke-linecap:round;stroke-linejoin:round;stroke-miterlimit:4;stroke-dasharray:none;stroke-opacity:1" />
      <path
         id="polygon16896"
         d="M 27.308036,9.111604 C 26.821318,7.889259 25.272857,7.897586 24.344024,7.186626 C 23.628229,6.844303 22.997797,6.242837 22.245536,5.986604 C 21.730145,5.976925 20.885312,6.434557 21.339286,7.017854 C 22.485614,8.40283 23.877965,9.58222 25.466157,10.462079 C 25.95619,10.694442 26.36032,11.25783 26.870536,11.330354 C 27.441345,10.791785 27.403561,9.817536 27.308036,9.111604 z "
         style="fill:url(#linearGradient21139);fill-opacity:1;stroke:none;stroke-width:1.00000012;stroke-linecap:round;stroke-linejoin:round;stroke-miterlimit:4;stroke-dasharray:none;stroke-opacity:1" />
      <path
         id="polygon45097"
         d="M 52.651787,1.665453 C 52.583251,1.45732 52.507124,1.255709 52.434284,1.052707 C 50.237283,0.413023 48.015564,-2.552658 45.827653,-1.424916 C 39.447266,2.332031 32.982221,6.062114 26.551516,9.790993 C 26.404614,10.52331 26.324603,11.262044 26.306826,12.002207 C 26.266616,13.560031 26.501321,15.159243 27.040896,16.637761 C 35.59217,11.677847 44.162303,6.715846 52.651787,1.665453 z "
         style="fill:url(#linearGradient21141);stroke:#888a85;stroke-width:1.32639396;stroke-linecap:round;stroke-linejoin:round;stroke-miterlimit:4;stroke-dasharray:none;stroke-opacity:1" />
      <path
         id="path16635"
         d="M 50.026786,1.425021 C 48.900107,1.041986 48.070822,-0.02464 46.870536,-0.289791 C 40.476424,3.41873 34.101408,7.181152 27.714286,10.887111 C 27.455987,12.085477 27.621129,13.315552 27.870536,14.500466 C 28.610979,14.311693 29.201467,13.762265 29.900086,13.470483 C 36.470612,9.57588 43.033914,5.646783 49.620536,1.792481 C 49.772146,1.77782 50.104671,1.575779 50.026786,1.425021 z "
         style="fill:url(#linearGradient21143);fill-opacity:1;stroke:none;stroke-width:1.25;stroke-linecap:round;stroke-linejoin:round;stroke-miterlimit:4;stroke-dasharray:none;stroke-opacity:1" />
      <path
         transform="matrix(0,0.979893,-1,0,54.10274,-10.98326)"
         d="M 24.190449 23.843431 A 0.98252523 0.98252523 0 1 1  22.225399,23.843431 A 0.98252523 0.98252523 0 1 1  24.190449 23.843431 z"
         sodipodi:ry="0.98252523"
         sodipodi:rx="0.98252523"
         sodipodi:cy="23.843431"
         sodipodi:cx="23.207924"
         id="path16731"
         style="color:black;fill:url(#linearGradient21145);fill-opacity:1;fill-rule:nonzero;stroke:none;stroke-width:1.25;stroke-linecap:round;stroke-linejoin:round;marker:none;marker-start:none;marker-mid:none;marker-end:none;stroke-miterlimit:4;stroke-dasharray:none;stroke-dashoffset:0;stroke-opacity:1;visibility:visible;display:inline;overflow:visible"
         sodipodi:type="arc" />
      <path
         d="M 23.989852,6.405747 C 22.263203,9.640758 17.376935,9.901583 13.0755,6.983692 C 8.771536,4.065833 6.680314,-0.920797 8.399368,-4.157265 C 10.126019,-7.393763 15.009754,-7.653099 19.311189,-4.73521 C 23.61262,-1.818838 25.703842,3.169279 23.989852,6.405747 z M 21.247707,4.550622 C 22.011336,3.114099 20.707187,0.043164 17.813679,-1.915719 C 14.920174,-3.878629 11.900162,-3.738616 11.138835,-2.303444 C 10.370605,-0.868298 11.679354,2.205339 14.572861,4.164222 C 17.466366,6.128484 20.484077,5.987119 21.247707,4.550622 z "
         style="fill:url(#linearGradient21147);fill-opacity:1;stroke:#a40000;stroke-width:1.32639396;stroke-opacity:1"
         id="path45138" />
      <path
         id="path16771"
         d="M 23.693497,3.030854 C 23.306276,1.105723 22.23948,-0.603605 21.212255,-2.016053 C 20.517353,-2.767816 19.762334,-3.259616 18.958046,-3.931701 C 16.605981,-5.640028 13.514618,-6.355939 10.888377,-5.004539 C 9.435271,-4.385086 8.840934,-2.361904 9.209244,-0.636323 C 9.457708,0.81559 10.370313,2.044993 11.008145,3.176089 C 11.798926,4.096991 12.634655,4.730103 13.599422,5.50898 C 16.073824,7.31834 19.348099,8.300891 22.111705,6.806958 C 23.253834,6.083252 23.858496,4.572317 23.693497,3.030854 z M 22.732016,3.502867 C 22.481662,5.519371 20.699201,6.859841 19.010152,6.625414 C 16.723213,6.646187 14.566058,5.479392 12.77603,3.902263 C 11.374049,2.485059 10.047759,0.553648 10.13971,-1.761892 C 10.142577,-3.120746 11.052007,-4.194467 12.100168,-4.577713 C 14.632091,-5.194352 17.365397,-4.382996 19.438166,-2.611517 C 20.961478,-1.253279 22.325266,0.58333 22.67986,2.855996 C 22.695134,3.071685 22.722354,3.286876 22.732016,3.502867 z "
         style="fill:url(#linearGradient21149);fill-opacity:1;stroke:none;stroke-opacity:1" />
      <path
         id="path11967"
         style="fill:url(#radialGradient21151);fill-opacity:1;stroke:#a40000;stroke-width:1.32639396;stroke-opacity:1"
         d="M 23.989852,19.037118 C 22.263203,15.802107 17.376935,15.541283 13.0755,18.459174 C 8.771536,21.377033 6.680314,26.363663 8.399368,29.600131 C 10.126019,32.83663 15.009754,33.095965 19.311189,30.178076 C 23.61262,27.261704 25.703842,22.273587 23.989852,19.037118 z M 21.247707,20.892244 C 22.011336,22.328766 20.707187,25.399702 17.813679,27.358585 C 14.920174,29.321495 11.900162,29.181482 11.138835,27.74631 C 10.370605,26.311164 11.679354,23.237527 14.572861,21.278644 C 17.466366,19.314382 20.484077,19.455747 21.247707,20.892244 z " />
      <polygon
         transform="matrix(0,3.624438,-3.624438,0,71.12399,-1064.473)"
         points="296.95605,12.300293 297.6001,13.384766 298.86719,14.71875 299.26807,13.672852 298.25391,11.960449 296.95605,12.300293 "
         id="polygon45101"
         style="fill:url(#linearGradient21153);fill-opacity:1;stroke:url(#linearGradient21155);stroke-width:0.36595863;stroke-linecap:round;stroke-linejoin:round;stroke-miterlimit:4;stroke-dasharray:none;stroke-opacity:1" />
      <path
         id="polygon16860"
         d="M 26.339286,14.861604 C 26.140465,14.434856 26.137805,13.84479 25.839286,13.517854 C 24.437897,14.467874 22.924625,15.407766 21.626709,16.368733 C 20.872165,17.037287 20.126483,17.724548 19.464286,18.486604 C 20.85571,19.221881 22.525494,18.621764 23.651786,17.674104 C 24.551479,17.071569 25.764748,16.844282 26.245536,15.830354 C 26.363947,15.526305 26.423413,15.179739 26.339286,14.861604 z "
         style="fill:url(#linearGradient21157);fill-opacity:1;stroke:none;stroke-width:0.27590489;stroke-linecap:round;stroke-linejoin:round;stroke-miterlimit:4;stroke-dasharray:none;stroke-opacity:1" />
      <path
         id="path16795"
         d="M 23.827693,20.985441 C 23.597942,19.465057 22.742038,18.090495 21.439729,17.744993 C 19.044278,16.613849 16.326215,17.530117 14.212878,19.024772 C 12.867676,20.126699 11.282965,20.964842 10.438908,22.664355 C 9.515284,24.135008 8.548334,26.005497 9.13802,27.881995 C 9.571469,29.39531 10.818586,30.252667 12.109874,30.562167 C 14.419904,31.166597 16.785835,30.266471 18.746358,28.8552 C 19.660064,28.196527 20.629564,27.522215 21.441003,26.741882 C 22.344457,25.547323 23.092532,24.103968 23.673355,22.653042 C 23.783767,22.118944 23.906096,21.537818 23.827693,20.985441 z M 22.618087,21.421146 C 22.684863,23.178449 21.878629,24.655659 20.849122,25.797516 C 19.879994,26.829813 19.043916,27.819171 17.850245,28.460027 C 16.029676,29.53721 13.870286,29.847888 11.886713,29.300131 C 10.562201,28.771751 9.914677,27.073977 10.270268,25.509011 C 10.499096,23.52713 11.941283,22.291671 13.078628,20.982445 C 14.510018,19.476698 16.557254,18.541824 18.561003,18.471864 C 19.578672,18.485976 20.739426,18.445396 21.594574,19.170007 C 22.137724,19.58228 22.6489,20.550014 22.618087,21.421146 z "
         style="fill:url(#linearGradient21159);fill-opacity:1;stroke:none;stroke-opacity:1" />
    </g>
    <path
       style="fill:none;fill-opacity:0.75;fill-rule:evenodd;stroke:black;stroke-width:1.00000024px;stroke-linecap:butt;stroke-linejoin:miter;stroke-opacity:1"
       d="M 20.751747,29.119445 L 32.138188,29.119445"
       id="path21225"
       sodipodi:nodetypes="cc" />
  </g>
</svg>
