<?xml version="1.0" encoding="UTF-8" standalone="no"?>
<!-- Created with Inkscape (http://www.inkscape.org/) -->

<svg
   xmlns:dc="http://purl.org/dc/elements/1.1/"
   xmlns:cc="http://creativecommons.org/ns#"
   xmlns:rdf="http://www.w3.org/1999/02/22-rdf-syntax-ns#"
   xmlns:svg="http://www.w3.org/2000/svg"
   xmlns="http://www.w3.org/2000/svg"
   xmlns:xlink="http://www.w3.org/1999/xlink"
   xmlns:sodipodi="http://sodipodi.sourceforge.net/DTD/sodipodi-0.dtd"
   xmlns:inkscape="http://www.inkscape.org/namespaces/inkscape"
   width="48px"
   height="48px"
   id="svg83834"
   version="1.1"
   inkscape:version="0.48.4 r9939"
   sodipodi:docname="New document 48">
  <defs
     id="defs83836">
    <linearGradient
       id="linearGradient88608">
      <stop
         style="stop-color:#10dfff;stop-opacity:1;"
         offset="0"
         id="stop88610" />
      <stop
         style="stop-color:#fd0000;stop-opacity:1;"
         offset="1"
         id="stop88612" />
    </linearGradient>
    <radialGradient
       gradientUnits="userSpaceOnUse"
       gradientTransform="matrix(1,0,0,0.32526,0,28.08607)"
       r="18.0625"
       fy="41.625"
       fx="25.1875"
       cy="41.625"
       cx="25.1875"
       id="radialGradient2275"
       xlink:href="#linearGradient2269"
       inkscape:collect="always" />
    <linearGradient
       gradientUnits="userSpaceOnUse"
       y2="13.802949"
       x2="298.86948"
       y1="13.599585"
       x1="298.47852"
       id="linearGradient2265"
       xlink:href="#linearGradient2259"
       inkscape:collect="always" />
    <linearGradient
       gradientUnits="userSpaceOnUse"
       y2="13.802949"
       x2="298.86948"
       y1="13.599585"
       x1="298.47852"
       id="linearGradient2257"
       xlink:href="#linearGradient2251"
       inkscape:collect="always" />
    <radialGradient
       gradientUnits="userSpaceOnUse"
       gradientTransform="matrix(1,0,0,1.060381,0,-2.299514)"
       r="8.3887873"
       fy="37.50008"
       fx="34.376091"
       cy="37.50008"
       cx="34.376091"
       id="radialGradient2241"
       xlink:href="#XMLID_52_"
       inkscape:collect="always" />
    <linearGradient
       gradientUnits="userSpaceOnUse"
       y2="23.942537"
       x2="24.32597"
       y1="6.4603648"
       x1="20.288025"
       id="linearGradient2237"
       xlink:href="#linearGradient2229"
       inkscape:collect="always" />
    <linearGradient
       gradientUnits="userSpaceOnUse"
       y2="23.942537"
       x2="24.32597"
       y1="6.4603648"
       x1="20.288025"
       id="linearGradient2235"
       xlink:href="#linearGradient2229"
       inkscape:collect="always" />
    <linearGradient
       gradientTransform="matrix(1.161878,0,0,0.992497,-2.430779,0.265761)"
       y2="50.774887"
       x2="25.152235"
       y1="31.056622"
       x1="7.184845"
       gradientUnits="userSpaceOnUse"
       id="linearGradient17037"
       xlink:href="#XMLID_52_"
       inkscape:collect="always" />
    <linearGradient
       y2="2.3262277"
       x2="7.6700611"
       y1="40.068752"
       x1="13.82536"
       gradientTransform="matrix(1.161878,0,0,0.992497,-2.666967,0.06400522)"
       gradientUnits="userSpaceOnUse"
       id="linearGradient17034"
       xlink:href="#XMLID_52_"
       inkscape:collect="always" />
    <linearGradient
       y2="-11.889042"
       x2="-3.532515"
       y1="44.540932"
       x1="39.619942"
       gradientTransform="matrix(1.161878,0,0,0.992497,-5.112111,0.06400522)"
       gradientUnits="userSpaceOnUse"
       id="linearGradient17028"
       xlink:href="#radialGradient16850"
       inkscape:collect="always" />
    <linearGradient
       y2="10.711433"
       x2="296.93979"
       y1="4.7592773"
       x1="292.97168"
       gradientTransform="matrix(4.053427,0,0,4.136601,-1175.535,-11.90495)"
       gradientUnits="userSpaceOnUse"
       id="linearGradient16974"
       xlink:href="#XMLID_897_"
       inkscape:collect="always" />
    <linearGradient
       y2="10.711433"
       x2="296.93979"
       y1="4.7592773"
       x1="292.97168"
       gradientTransform="matrix(-4.127761,0,0,4.136601,1244.465,-11.90495)"
       gradientUnits="userSpaceOnUse"
       id="linearGradient16968"
       xlink:href="#XMLID_897_"
       inkscape:collect="always" />
    <linearGradient
       y2="9.8769522"
       x2="296.52905"
       y1="15.506916"
       x1="296.48611"
       gradientTransform="matrix(3.637893,0,0,3.470375,-1056.116,-16.00724)"
       gradientUnits="userSpaceOnUse"
       id="linearGradient16946"
       xlink:href="#XMLID_52_"
       inkscape:collect="always" />
    <linearGradient
       y2="10.946587"
       x2="297.79822"
       y1="12.012225"
       x1="296.76199"
       gradientTransform="matrix(3.624438,0,0,3.624438,-1053.179,-16.8472)"
       gradientUnits="userSpaceOnUse"
       id="linearGradient16894"
       xlink:href="#XMLID_52_"
       inkscape:collect="always" />
    <linearGradient
       gradientUnits="userSpaceOnUse"
       y2="13.3396"
       x2="297.18515"
       y1="12.187603"
       x1="294.59497"
       id="linearGradient16769"
       xlink:href="#XMLID_52_"
       inkscape:collect="always" />
    <linearGradient
       gradientUnits="userSpaceOnUse"
       y2="22.860907"
       x2="24.190449"
       y1="23.843431"
       x1="22.225399"
       id="linearGradient16739"
       xlink:href="#XMLID_45_"
       inkscape:collect="always" />
    <linearGradient
       y2="27.836672"
       x2="74.587158"
       y1="21.424805"
       x1="68.175293"
       gradientUnits="userSpaceOnUse"
       id="XMLID_45_">
      <stop
         id="stop695"
         style="stop-color:#BABDB6"
         offset="0" />
      <stop
         id="stop697"
         style="stop-color:#EEEEEC"
         offset="1" />
    </linearGradient>
    <radialGradient
       gradientUnits="userSpaceOnUse"
       gradientTransform="matrix(1.000000,0.000000,0.000000,1.010300,1.007969e-18,-0.159801)"
       r="7.2848282"
       cy="23.333008"
       cx="165.06104"
       id="XMLID_52_">
      <stop
         id="stop812"
         style="stop-color:#EF3535"
         offset="0" />
      <stop
         offset="0"
         style="stop-color:#c91a1a;stop-opacity:1;"
         id="stop2239" />
      <stop
         id="stop814"
         style="stop-color:#ff4c4c;stop-opacity:1;"
         offset="1" />
    </radialGradient>
    <linearGradient
       y2="10.711433"
       x2="296.93979"
       y1="4.7592773"
       x1="292.97168"
       gradientUnits="userSpaceOnUse"
       id="XMLID_897_">
      <stop
         id="stop45093"
         style="stop-color:#EEEEEC"
         offset="0" />
      <stop
         id="stop45095"
         style="stop-color:#ffffff;stop-opacity:1;"
         offset="1" />
    </linearGradient>
    <radialGradient
       id="radialGradient16850"
       cx="165.06104"
       cy="23.333008"
       r="7.2848282"
       gradientTransform="matrix(1.000000,0.000000,0.000000,1.010300,1.007969e-18,-0.159801)"
       gradientUnits="userSpaceOnUse">
      <stop
         offset="0"
         style="stop-color:#EF3535"
         id="stop16852" />
      <stop
         offset="1"
         style="stop-color:#a40000;stop-opacity:0"
         id="stop16854" />
    </radialGradient>
    <linearGradient
       id="linearGradient2229">
      <stop
         id="stop2231"
         offset="0"
         style="stop-color:#e2e2e2;stop-opacity:1;" />
      <stop
         id="stop2233"
         offset="1"
         style="stop-color:#d8d8d8;stop-opacity:1;" />
    </linearGradient>
    <linearGradient
       id="linearGradient2251"
       inkscape:collect="always">
      <stop
         id="stop2253"
         offset="0"
         style="stop-color:#df2a2a;stop-opacity:1;" />
      <stop
         id="stop2255"
         offset="1"
         style="stop-color:#df2a2a;stop-opacity:0;" />
    </linearGradient>
    <linearGradient
       id="linearGradient2259"
       inkscape:collect="always">
      <stop
         id="stop2261"
         offset="0"
         style="stop-color:#9a0c00;stop-opacity:1;" />
      <stop
         id="stop2263"
         offset="1"
         style="stop-color:#9a0c00;stop-opacity:0;" />
    </linearGradient>
    <linearGradient
       id="linearGradient2269"
       inkscape:collect="always">
      <stop
         id="stop2271"
         offset="0"
         style="stop-color:#000000;stop-opacity:1;" />
      <stop
         id="stop2273"
         offset="1"
         style="stop-color:#000000;stop-opacity:0;" />
    </linearGradient>
    <linearGradient
       inkscape:collect="always"
       xlink:href="#radialGradient16850"
       id="linearGradient88051"
       gradientUnits="userSpaceOnUse"
       gradientTransform="matrix(0.72851304,-0.67981564,0.58070857,0.62231118,-8.1850716,25.993578)"
       x1="39.619942"
       y1="44.540932"
       x2="-3.532515"
       y2="-11.889042" />
    <linearGradient
       inkscape:collect="always"
       xlink:href="#XMLID_52_"
       id="linearGradient88054"
       gradientUnits="userSpaceOnUse"
       gradientTransform="matrix(2.2725711,-2.1206613,2.1206535,2.2725794,-675.23175,628.61468)"
       x1="296.76199"
       y1="12.012225"
       x2="297.79822"
       y2="10.946587" />
    <radialGradient
       inkscape:collect="always"
       xlink:href="#XMLID_52_"
       id="radialGradient88058"
       gradientUnits="userSpaceOnUse"
       gradientTransform="matrix(0.62701337,-0.58510071,0.6204274,0.66487551,-6.3626013,21.520516)"
       cx="34.376091"
       cy="37.50008"
       fx="34.376091"
       fy="37.50008"
       r="8.3887873" />
    <linearGradient
       inkscape:collect="always"
       xlink:href="#XMLID_52_"
       id="linearGradient88061"
       gradientUnits="userSpaceOnUse"
       gradientTransform="matrix(0.72851304,-0.67981564,0.58070857,0.62231118,-6.651934,24.562924)"
       x1="13.82536"
       y1="40.068752"
       x2="7.6700611"
       y2="2.3262277" />
    <linearGradient
       inkscape:collect="always"
       xlink:href="#XMLID_52_"
       id="linearGradient88064"
       gradientUnits="userSpaceOnUse"
       gradientTransform="matrix(0.72851304,-0.67981565,0.58070857,0.62231118,-6.3857935,24.551234)"
       x1="7.184845"
       y1="31.056622"
       x2="25.152235"
       y2="50.774887" />
    <linearGradient
       inkscape:collect="always"
       xlink:href="#linearGradient2229"
       id="linearGradient88069"
       gradientUnits="userSpaceOnUse"
       x1="20.288025"
       y1="6.4603648"
       x2="24.32597"
       y2="23.942537"
       gradientTransform="matrix(0.62701337,-0.58510071,0.58509856,0.62701567,-5.017159,22.962347)" />
    <linearGradient
       inkscape:collect="always"
       xlink:href="#XMLID_897_"
       id="linearGradient88072"
       gradientUnits="userSpaceOnUse"
       gradientTransform="matrix(2.5415529,-2.3716631,2.4203193,2.5937136,-749.05889,703.30413)"
       x1="292.97168"
       y1="4.7592773"
       x2="296.93979"
       y2="10.711433" />
    <linearGradient
       inkscape:collect="always"
       xlink:href="#XMLID_52_"
       id="linearGradient88075"
       gradientUnits="userSpaceOnUse"
       gradientTransform="matrix(2.2810076,-2.1285338,2.0305114,2.1759795,-676.58182,630.85978)"
       x1="296.48611"
       y1="15.506916"
       x2="296.52905"
       y2="9.8769522" />
    <linearGradient
       inkscape:collect="always"
       xlink:href="#linearGradient2229"
       id="linearGradient88079"
       gradientUnits="userSpaceOnUse"
       x1="20.288025"
       y1="6.4603648"
       x2="24.32597"
       y2="23.942537"
       gradientTransform="matrix(0.62701337,-0.58510071,0.58509856,0.62701567,-5.017159,22.962347)" />
    <linearGradient
       inkscape:collect="always"
       xlink:href="#XMLID_897_"
       id="linearGradient88082"
       gradientUnits="userSpaceOnUse"
       gradientTransform="matrix(-2.5881613,2.4151559,2.4203193,2.5937136,768.31346,-712.6396)"
       x1="292.97168"
       y1="4.7592773"
       x2="296.93979"
       y2="10.711433" />
    <linearGradient
       inkscape:collect="always"
       xlink:href="#linearGradient2251"
       id="linearGradient88084"
       gradientUnits="userSpaceOnUse"
       x1="298.47852"
       y1="13.599585"
       x2="298.86948"
       y2="13.802949" />
    <linearGradient
       inkscape:collect="always"
       xlink:href="#linearGradient2259"
       id="linearGradient88086"
       gradientUnits="userSpaceOnUse"
       x1="298.47852"
       y1="13.599585"
       x2="298.86948"
       y2="13.802949" />
    <linearGradient
       inkscape:collect="always"
       xlink:href="#XMLID_45_"
       id="linearGradient88088"
       gradientUnits="userSpaceOnUse"
       x1="22.225399"
       y1="23.843431"
       x2="24.190449"
       y2="22.860907" />
    <linearGradient
       inkscape:collect="always"
       xlink:href="#XMLID_52_"
       id="linearGradient88090"
       gradientUnits="userSpaceOnUse"
       x1="294.59497"
       y1="12.187603"
       x2="297.18515"
       y2="13.3396" />
    <linearGradient
       inkscape:collect="always"
       xlink:href="#linearGradient88608"
       id="linearGradient88614"
       x1="-0.57142853"
       y1="27.285714"
       x2="21.142857"
       y2="27.285714"
       gradientUnits="userSpaceOnUse" />
    <linearGradient
       inkscape:collect="always"
       xlink:href="#linearGradient88608"
       id="linearGradient88622"
       x1="47.142857"
       y1="5.8571434"
       x2="20.285711"
       y2="19.428572"
       gradientUnits="userSpaceOnUse" />
  </defs>
  <sodipodi:namedview
     id="base"
     pagecolor="#ffffff"
     bordercolor="#666666"
     borderopacity="1.0"
     inkscape:pageopacity="0.0"
     inkscape:pageshadow="2"
     inkscape:zoom="7"
     inkscape:cx="1.2857143"
     inkscape:cy="22.785714"
     inkscape:current-layer="layer1"
     showgrid="true"
     inkscape:grid-bbox="true"
     inkscape:document-units="px"
     inkscape:window-width="2560"
     inkscape:window-height="1538"
     inkscape:window-x="-8"
     inkscape:window-y="-8"
     inkscape:window-maximized="1" />
  <metadata
     id="metadata83839">
    <rdf:RDF>
      <cc:Work
         rdf:about="">
        <dc:format>image/svg+xml</dc:format>
        <dc:type
           rdf:resource="http://purl.org/dc/dcmitype/StillImage" />
        <dc:title></dc:title>
      </cc:Work>
    </rdf:RDF>
  </metadata>
  <g
     id="layer1"
     inkscape:label="Layer 1"
     inkscape:groupmode="layer">
    <path
       sodipodi:nodetypes="cc"
       inkscape:connector-curvature="0"
       id="path88604"
       d="M 20.428572,20 C 27.55863,8.1337477 36.895935,15.437724 47.571428,5.7142857"
       style="fill:none;stroke:#ffffff;stroke-width:4;stroke-linecap:butt;stroke-linejoin:miter;stroke-miterlimit:4;stroke-opacity:1;stroke-dasharray:none" />
    <path
       sodipodi:nodetypes="cc"
       inkscape:connector-curvature="0"
       id="path88606"
       d="m 20.142857,20.285714 c -4.60183,11.013152 -11.7013488,13.978193 -19.71428553,14"
       style="fill:none;stroke:#ffffff;stroke-width:4;stroke-linecap:butt;stroke-linejoin:miter;stroke-miterlimit:4;stroke-opacity:1;stroke-dasharray:none" />
    <path
       style="fill:none;stroke:url(#linearGradient88622);stroke-width:2;stroke-linecap:butt;stroke-linejoin:miter;stroke-miterlimit:4;stroke-opacity:1;stroke-dasharray:none"
       d="M 20.428572,20 C 27.55863,8.1337477 36.895935,15.437724 47.571428,5.7142857"
       id="path88094"
       inkscape:connector-curvature="0"
       sodipodi:nodetypes="cc" />
    <path
       inkscape:connector-curvature="0"
       style="fill:url(#linearGradient88082);stroke:#888a85;stroke-width:1;stroke-linecap:round;stroke-linejoin:round;stroke-miterlimit:4;stroke-opacity:1;stroke-dasharray:none"
       d="m 17.361376,3.9858334 c 0.172996,-0.081039 0.346268,-0.1534331 0.518506,-0.2287156 1.693908,0.9964112 4.887455,0.6224192 5.447523,2.6662169 1.334299,6.2391073 2.735285,12.5152903 4.116947,18.7692233 -0.381641,0.528446 -0.806516,1.018775 -1.268718,1.470933 -0.971163,0.953412 -2.129605,1.759108 -3.389361,2.301732 C 20.949899,20.648171 19.103824,12.318051 17.361376,3.9858334 z"
       id="path16717" />
    <path
       inkscape:connector-curvature="0"
       style="fill:url(#linearGradient88079);fill-opacity:1;stroke:none"
       d="m 18.96906,5.5647486 c 0.03497,0.3280069 0.227673,0.8091644 0.24637,1.1263836 1.41358,6.6018848 2.777678,13.2365958 4.165465,19.8296368 0.110133,0.194137 0.08194,1.110953 0.544178,0.598297 0.81274,-0.526298 1.629553,-1.109366 2.15257,-1.941774 C 24.796899,19.079617 23.44286,12.994031 22.155452,6.9000005 22.143593,6.4567939 21.870606,6.0804759 21.41876,6.0484903 20.608638,5.8465771 19.769903,5.6226846 18.972864,5.4512297 l -0.0028,0.085622 -9.43e-4,0.027897 z"
       id="path16719" />
    <polygon
       style="fill:url(#linearGradient88090);fill-opacity:1;stroke:#9a0c00;stroke-width:0.32816997;stroke-linecap:round;stroke-linejoin:round;stroke-miterlimit:4;stroke-opacity:1;stroke-dasharray:none"
       id="polygon45129"
       points="294.73242,13.672852 295.74658,11.960449 297.04443,12.300293 297.04443,12.300293 296.39941,13.384766 295.13281,14.71875 "
       transform="matrix(2.2810076,-2.1285338,2.0305114,2.1759795,-676.58182,630.85978)" />
    <path
       inkscape:connector-curvature="0"
       style="fill:url(#linearGradient88075);fill-opacity:1;stroke:none"
       d="m 23.557209,27.932464 c -0.481648,1.020375 0.429575,1.986412 0.527253,2.984788 0.204169,0.649108 0.195907,1.396317 0.475392,2.017919 0.295473,0.328833 1.076737,0.590784 1.176853,-0.03515 0.197684,-1.529115 0.122514,-3.092203 -0.25505,-4.602831 -0.141024,-0.443214 -0.02423,-1.026248 -0.277281,-1.388596 -0.67167,-0.04279 -1.260429,0.550936 -1.647167,1.023873 z"
       id="polygon16896" />
    <path
       inkscape:connector-curvature="0"
       style="fill:url(#linearGradient88072);stroke:#888a85;stroke-width:1;stroke-linecap:round;stroke-linejoin:round;stroke-miterlimit:4;stroke-opacity:1;stroke-dasharray:none"
       d="m 4.0597813,16.398284 c -0.090402,0.164752 -0.1722734,0.330447 -0.2569397,0.494895 0.8843722,1.751834 0.3247744,4.880109 2.3120273,5.592121 6.0888121,1.80241 12.2103121,3.67362 18.3109651,5.524003 0.545125,-0.336369 1.055136,-0.718435 1.529629,-1.140358 1.000303,-0.886272 1.865704,-1.969136 2.477051,-3.17254 C 20.319243,21.236671 12.19363,18.766334 4.0597813,16.398284 z"
       id="polygon45097" />
    <path
       inkscape:connector-curvature="0"
       style="fill:url(#linearGradient88069);fill-opacity:1;stroke:none"
       d="m 5.4449111,18.184877 c 0.4190504,0.93056 0.2354752,2.074618 0.7715073,2.982356 6.0664776,1.83935 12.1555796,3.635189 18.2163616,5.471655 0.902522,-0.539207 1.577172,-1.362469 2.1742,-2.212147 C 26.055385,24.072922 25.365393,24.024148 24.773681,23.756825 18.487307,21.915737 12.183532,20.099361 5.9130097,18.224601 5.8151104,18.138117 5.4938681,18.047833 5.4449111,18.184877 z"
       id="path16635" />
    <path
       sodipodi:type="arc"
       style="color:#000000;fill:url(#linearGradient88088);fill-opacity:1;fill-rule:nonzero;stroke:none;stroke-width:1.25;marker:none;visibility:visible;display:inline;overflow:visible"
       id="path16731"
       sodipodi:cx="23.207924"
       sodipodi:cy="23.843431"
       sodipodi:rx="0.98252523"
       sodipodi:ry="0.98252523"
       d="m 24.190449,23.843431 a 0.98252523,0.98252523 0 1 1 -1.96505,0 0.98252523,0.98252523 0 1 1 1.96505,0 z"
       transform="matrix(0.61440601,-0.57333609,0.58509856,0.62701567,-4.7200847,22.889284)" />
    <path
       inkscape:connector-curvature="0"
       id="path45138"
       style="fill:url(#linearGradient88064);fill-opacity:1;stroke:#a40000;stroke-width:1;stroke-opacity:1"
       d="m 23.802066,31.596217 c 3.038655,-0.810172 6.061144,2.100986 6.748351,6.505313 0.688706,4.405895 -1.214406,8.634804 -4.249532,9.45059 -3.039588,0.81104 -6.059662,-2.0994 -6.74687,-6.503727 -0.688156,-4.403435 1.215889,-8.633216 4.248051,-9.452176 z m 0.441237,2.804802 c -1.347518,0.361703 -2.509979,2.976231 -2.045238,5.93665 0.462215,2.962774 2.317009,4.774447 3.662333,4.41209 1.349346,-0.358013 2.510811,-2.977006 2.046069,-5.937424 -0.461367,-2.963563 -2.315663,-4.773003 -3.663164,-4.411316 z" />
    <path
       inkscape:connector-curvature="0"
       style="fill:url(#linearGradient88061);fill-opacity:1;stroke:none"
       d="m 21.859359,33.756688 c -0.98052,1.369189 -1.428111,3.038215 -1.712707,4.508727 -0.06478,0.875571 0.06862,1.636733 0.117798,2.534271 0.305046,2.474325 1.664912,4.831538 4.048868,5.687527 1.238616,0.548678 2.854923,-0.262429 3.721388,-1.503004 0.764993,-1.005306 1.001881,-2.296848 1.337899,-3.358584 0.114733,-1.034653 0.02272,-1.929102 -0.0534,-2.989748 -0.313276,-2.610146 -1.612977,-5.238059 -4.166674,-6.096782 -1.122032,-0.292691 -2.423196,0.212224 -3.293173,1.217593 z m 0.85852,0.326688 c 1.410857,-1.022882 3.294264,-0.689561 4.135536,0.506663 1.351108,1.421794 1.881662,3.457054 1.940124,5.502209 -0.06831,1.708272 -0.503319,3.669946 -2.008995,4.967116 -0.853715,0.793248 -2.059039,0.851276 -2.912618,0.418301 -1.868065,-1.22676 -2.958587,-3.41531 -3.060621,-5.751463 -0.03966,-1.749846 0.313974,-3.679564 1.531494,-5.231638 0.126305,-0.135775 0.245306,-0.27875 0.375078,-0.41119 z"
       id="path16771" />
    <path
       inkscape:connector-curvature="0"
       d="m 31.722104,24.205592 c -1.018135,2.975443 1.677273,6.191818 6.023594,7.181626 4.347779,0.991411 8.698034,-0.615041 9.721526,-3.586574 1.019067,-2.976315 -1.675792,-6.190231 -6.022111,-7.18004 -4.345366,-0.990692 -8.696553,0.616629 -9.723009,3.584988 z m 2.767614,0.633933 c 0.45392,-1.319318 3.142494,-2.298403 6.063727,-1.630272 2.923756,0.665773 4.602971,2.641289 4.148551,3.958374 -0.450366,1.321397 -3.143325,2.299178 -6.064557,1.631048 -2.924604,-0.664982 -4.601625,-2.639847 -4.147721,-3.95915 z"
       style="fill:url(#radialGradient88058);fill-opacity:1;stroke:#a40000;stroke-width:1;stroke-opacity:1"
       id="path11967" />
    <polygon
       style="fill:url(#linearGradient88084);fill-opacity:1;stroke:url(#linearGradient88086);stroke-width:0.32171506;stroke-linecap:round;stroke-linejoin:round;stroke-miterlimit:4;stroke-opacity:1;stroke-dasharray:none"
       id="polygon45101"
       points="299.26807,13.672852 298.25391,11.960449 296.95605,12.300293 296.95605,12.300293 297.6001,13.384766 298.86719,14.71875 "
       transform="matrix(2.2725711,-2.1206613,2.1206535,2.2725794,-675.23175,628.61468)" />
    <path
       inkscape:connector-curvature="0"
       style="fill:url(#linearGradient88054);fill-opacity:1;stroke:none"
       d="m 27.729351,25.175557 c -0.151247,0.374354 -0.51967,0.72127 -0.55,1.099736 1.415626,0.322836 2.890364,0.721749 4.252311,0.9733 0.860676,0.08194 1.727895,0.147378 2.593165,0.116706 -0.353092,-1.302656 -1.706362,-1.998508 -2.959549,-2.150234 -0.904207,-0.211578 -1.7566,-0.839331 -2.673655,-0.547542 -0.259925,0.103654 -0.51202,0.269144 -0.662272,0.508034 z"
       id="polygon16860" />
    <path
       inkscape:connector-curvature="0"
       style="fill:url(#linearGradient88051);fill-opacity:1;stroke:none"
       d="m 33.038608,23.167303 c -0.818874,1.033635 -1.179955,2.374558 -0.63461,3.39328 0.692332,2.163818 2.85718,3.331977 5.030858,3.782548 1.477999,0.198725 2.930738,0.701965 4.490212,0.236817 1.462531,-0.281354 3.201113,-0.769486 4.032678,-2.237169 0.695259,-1.157221 0.503147,-2.440822 -0.05833,-3.431569 -0.972609,-1.802078 -2.921303,-2.758889 -4.953288,-3.162432 -0.947605,-0.187518 -1.937661,-0.400869 -2.901712,-0.45308 -1.277614,0.132457 -2.620315,0.50791 -3.869903,0.992663 -0.399489,0.243271 -0.835437,0.506586 -1.135911,0.878942 z m 0.980931,0.503511 c 1.06278,-1.070072 2.460739,-1.428864 3.779062,-1.451448 1.2143,0.0037 2.323828,-0.05098 3.424069,0.322505 1.74062,0.511265 3.198875,1.683459 4.01601,3.247682 0.443669,1.139646 -0.241993,2.539023 -1.431304,3.231724 -1.376552,1.016121 -2.995023,0.834716 -4.481385,0.887611 -1.781627,-0.01649 -3.56564,-0.753143 -4.781897,-1.968592 -0.58659,-0.646351 -1.291189,-1.350418 -1.337193,-2.310581 -0.05929,-0.581784 0.248398,-1.468522 0.812638,-1.958901 z"
       id="path16795" />
    <path
       style="fill:none;stroke:url(#linearGradient88614);stroke-width:2;stroke-linecap:butt;stroke-linejoin:miter;stroke-miterlimit:4;stroke-opacity:1;stroke-dasharray:none"
       d="m 20.142857,20.285714 c -4.60183,11.013152 -11.7013488,13.978193 -19.71428553,14"
       id="path88092"
       inkscape:connector-curvature="0"
       sodipodi:nodetypes="cc" />
  </g>
</svg>
