<?xml version="1.0" encoding="UTF-8" standalone="no"?>
<svg
   xmlns:dc="http://purl.org/dc/elements/1.1/"
   xmlns:cc="http://creativecommons.org/ns#"
   xmlns:rdf="http://www.w3.org/1999/02/22-rdf-syntax-ns#"
   xmlns:svg="http://www.w3.org/2000/svg"
   xmlns="http://www.w3.org/2000/svg"
   xmlns:xlink="http://www.w3.org/1999/xlink"
   xmlns:sodipodi="http://sodipodi.sourceforge.net/DTD/sodipodi-0.dtd"
   xmlns:inkscape="http://www.inkscape.org/namespaces/inkscape"
   viewBox="0 0 48 48"
   version="1.1"
   id="svg12937"
   sodipodi:docname="pyroscatterfromburst.svg"
   inkscape:version="1.0.1 (3bc2e813f5, 2020-09-07)">
  <metadata
     id="metadata12941">
    <rdf:RDF>
      <cc:Work
         rdf:about="">
        <dc:format>image/svg+xml</dc:format>
        <dc:type
           rdf:resource="http://purl.org/dc/dcmitype/StillImage" />
        <dc:title>5-Pyro Trail</dc:title>
      </cc:Work>
    </rdf:RDF>
  </metadata>
  <sodipodi:namedview
     pagecolor="#ffffff"
     bordercolor="#666666"
     borderopacity="1"
     objecttolerance="10"
     gridtolerance="10"
     guidetolerance="10"
     inkscape:pageopacity="0"
     inkscape:pageshadow="2"
     inkscape:window-width="2560"
     inkscape:window-height="1377"
     id="namedview12939"
     showgrid="false"
     inkscape:zoom="15.3125"
     inkscape:cx="24"
     inkscape:cy="24"
     inkscape:window-x="-8"
     inkscape:window-y="-8"
     inkscape:window-maximized="1"
     inkscape:current-layer="svg12937" />
  <defs
     id="defs12761">
    <style
       id="style12734">.cls-1{fill:url(#radial-gradient);}.cls-2{fill:#fcaf3d;}.cls-3{fill:#f57900;}.cls-16,.cls-4{fill:#fce94f;}.cls-4,.cls-6,.cls-7,.cls-8,.cls-9{stroke:#fcaf3e;stroke-width:0.5px;}.cls-18,.cls-4,.cls-5,.cls-6,.cls-7,.cls-8,.cls-9{stroke-miterlimit:10;}.cls-14,.cls-18,.cls-5,.cls-9{fill:none;}.cls-14,.cls-18,.cls-5{stroke:#f57900;}.cls-14,.cls-5{stroke-width:0.35px;}.cls-6{fill:url(#linear-gradient);}.cls-7{fill:url(#linear-gradient-2);}.cls-8{fill:url(#linear-gradient-3);}.cls-10{fill:#d3d7cf;}.cls-11{fill:#eeeeec;}.cls-12{fill:#888a85;}.cls-13{fill:#2e3436;}.cls-14{stroke-linecap:round;stroke-linejoin:round;}.cls-15{fill:url(#radial-gradient-2);}.cls-17{fill:url(#linear-gradient-4);}.cls-18{stroke-width:0.7px;}.cls-19{fill:url(#linear-gradient-5);}.cls-20{fill:url(#linear-gradient-6);}.cls-21{fill:url(#linear-gradient-7);}</style>
    <radialGradient
       id="radial-gradient"
       cx="17.38"
       cy="41.92"
       r="20.26"
       gradientTransform="matrix(1.11,0,0,0.25,4.43,31.54)"
       gradientUnits="userSpaceOnUse">
      <stop
         offset="0.03"
         stop-color="#2c2c2c"
         stop-opacity="0.5"
         id="stop12736" />
      <stop
         offset="0.68"
         stop-color="#2c2c2c"
         stop-opacity="0.1"
         id="stop12738" />
      <stop
         offset="0.93"
         stop-color="#2c2c2c"
         stop-opacity="0"
         id="stop12740" />
    </radialGradient>
    <linearGradient
       id="linear-gradient"
       x1="33.74"
       y1="20.36"
       x2="37.87"
       y2="16.06"
       gradientUnits="userSpaceOnUse">
      <stop
         offset="0"
         stop-color="#fdf4a4"
         id="stop12743" />
      <stop
         offset="1"
         stop-color="#fce94f"
         id="stop12745" />
    </linearGradient>
    <linearGradient
       id="linear-gradient-2"
       x1="24.59"
       y1="14.75"
       x2="24.39"
       y2="9.46"
       xlink:href="#linear-gradient" />
    <linearGradient
       id="linear-gradient-3"
       x1="-19.08"
       y1="20.28"
       x2="-22.34"
       y2="16.64"
       gradientTransform="rotate(-7.95,10.485321,-203.95818)"
       xlink:href="#linear-gradient" />
    <radialGradient
       id="radial-gradient-2"
       cx="24.72"
       cy="32.4"
       r="14.71"
       gradientUnits="userSpaceOnUse">
      <stop
         offset="0"
         stop-color="#fce94f"
         id="stop12750" />
      <stop
         offset="0.48"
         stop-color="#fcaf3e"
         id="stop12752" />
      <stop
         offset="1"
         stop-color="#f57900"
         id="stop12754" />
    </radialGradient>
    <linearGradient
       id="linear-gradient-4"
       x1="23.28"
       y1="28.36"
       x2="22.37"
       y2="43.74"
       xlink:href="#linear-gradient" />
    <linearGradient
       id="linear-gradient-5"
       x1="28.97"
       y1="34.1"
       x2="29.78"
       y2="37.28"
       xlink:href="#linear-gradient" />
    <linearGradient
       id="linear-gradient-6"
       x1="21.63"
       y1="28.26"
       x2="20.71"
       y2="43.64"
       xlink:href="#linear-gradient" />
    <linearGradient
       id="linear-gradient-7"
       x1="23.23"
       y1="30.6"
       x2="19.93"
       y2="35.19"
       xlink:href="#linear-gradient" />
    <linearGradient
       inkscape:collect="always"
       xlink:href="#linear-gradient"
       id="linearGradient13504"
       gradientUnits="userSpaceOnUse"
       x1="33.74"
       y1="20.36"
       x2="37.87"
       y2="16.06" />
  </defs>
  <title
     id="title12763">5-Pyro Trail</title>
  <g
     id="shadow"
     transform="matrix(1.0686434,0,0,1.0686434,-0.53667426,-2.1648656)"
     style="stroke-width:0.935766">
    <ellipse
       class="cls-1"
       cx="23.75"
       cy="41.919998"
       rx="21.639999"
       ry="4.8400002"
       id="ellipse12765"
       style="fill:url(#radial-gradient);stroke-width:0.935766" />
  </g>
  <g
     id="ART"
     transform="matrix(1.0686434,0,0,1.0686434,-0.53667426,-2.1648656)"
     style="stroke-width:0.935766">
    <path
       class="cls-2"
       d="m 22.74,27.64 c 0.6,-2.61 1.72,-7.37 1.72,-7.37 0,0 -0.95,6.87 -0.5,8.54 0.45,1.67 1,1.85 1,1.85"
       id="path12768"
       style="stroke-width:0.935766" />
    <path
       class="cls-2"
       d="m 16.89,33.42 c -1,-0.38 -6.46,-3.91 -6.46,-3.91 0,0 5.71,4.61 7.51,6.29"
       id="path12770"
       style="stroke-width:0.935766" />
    <path
       class="cls-2"
       d="M 27.15,32.37 C 28.53,31.4 33,27 33,27 c 0,0 -4.67,5.67 -4.85,6.88"
       id="path12772"
       style="stroke-width:0.935766" />
    <path
       class="cls-3"
       d="m 29.86,36.62 c 1.86,0.5 6.93,-1.68 6.93,-1.68 0,0 -3.46,1.73 -4.29,3"
       id="path12774"
       style="stroke-width:0.935766" />
    <path
       class="cls-4"
       d="m 22.74,27.64 c 0.6,-2.61 1.72,-7.37 1.72,-7.37 0,0 -0.95,6.87 -0.5,8.54 0.45,1.67 1,1.85 1,1.85"
       id="path12776" />
    <path
       class="cls-5"
       d="m 16.89,33.42 c -1,-0.38 -6.46,-3.91 -6.46,-3.91 0,0 5.71,4.61 7.51,6.29"
       id="path12778" />
    <path
       class="cls-5"
       d="M 27.15,32.37 C 28.53,31.4 33,27 33,27 c 0,0 -4.67,5.67 -4.85,6.88"
       id="path12780" />
    <path
       class="cls-6"
       d="m 29.37,24 a 20.73,20.73 0 0 1 3.43,-4.39 7.54,7.54 0 0 1 3.13,-2.11 2,2 0 0 0 1.15,0.43 1.13,1.13 0 0 0 0.91,-0.33 2.49,2.49 0 0 0 3.34,-2.09 2,2 0 0 0 -1.57,-2 c -0.61,-0.05 -1.23,1.08 -1.23,1.08 a 3,3 0 0 0 -2.15,-0.27 2,2 0 0 0 -1.33,1.52 1.74,1.74 0 0 0 -1.06,0.43 1.47,1.47 0 0 0 -0.2,1 1.52,1.52 0 0 0 -0.72,0.64 1.09,1.09 0 0 0 -0.11,0.56 c 0,0 -2.96,3.53 -3.59,5.53 z"
       id="path12782"
       style="fill:url(#linearGradient13504)" />
    <path
       class="cls-2"
       d="m 34.18,17.75 a 3,3 0 0 1 0.8,-0.81 c 0,0 0,-0.66 0.89,-0.68 0,0 0.21,-0.87 1.67,-0.93 1.46,-0.06 1.68,0.38 1.68,0.38 l -0.07,0.84 a 5.65,5.65 0 0 1 -1.7,0.56 2.73,2.73 0 0 1 -1.39,-0.28 19.27,19.27 0 0 0 -1.88,0.92 z"
       id="path12784"
       style="stroke-width:0.935766" />
    <path
       class="cls-7"
       d="m 27.44,7.13 c 0.49,0.44 0.57,2.21 -0.4,2.63 a 1.92,1.92 0 0 1 0.48,2.24 1.56,1.56 0 0 1 -1.77,0.84 c 0,0 0.16,0.95 -0.41,1.36 a 1.71,1.71 0 0 1 -1.28,0.22 17.13,17.13 0 0 0 -2.24,6.15 11,11 0 0 0 0,4.49 A 26.53,26.53 0 0 1 21.44,18.33 18.43,18.43 0 0 1 22,15 a 3,3 0 0 1 -0.25,-1.68 2.21,2.21 0 0 1 0.63,-1.06 1.27,1.27 0 0 1 0.21,-1.52 1.59,1.59 0 0 1 1.46,-0.48 2.61,2.61 0 0 1 -0.41,-2.57 2.11,2.11 0 0 1 3.8,-0.56 z"
       id="path12786"
       style="fill:url(#linear-gradient-2)" />
    <path
       class="cls-8"
       d="m 6.9,19.33 c -0.11,0.34 0.38,1.1 0.87,1.22 a 1.29,1.29 0 0 0 1,-0.21 3.42,3.42 0 0 0 0.82,0.83 1.76,1.76 0 0 0 1,0.14 16.39,16.39 0 0 1 3.86,3.37 11.5,11.5 0 0 0 -2,-2.56 1.53,1.53 0 0 0 -0.27,-1.31 1.24,1.24 0 0 0 -1.07,-0.43 3.64,3.64 0 0 0 -0.52,-1.69 1.12,1.12 0 0 0 -1.5,-0.34 1.94,1.94 0 0 0 -1.09,-0.84 1.08,1.08 0 0 0 -1.36,0.82 1,1 0 0 0 0.26,1 z"
       id="path12788"
       style="fill:url(#linear-gradient-3)" />
    <path
       class="cls-2"
       d="m 7.33,19 a 1.2,1.2 0 0 0 0.58,0.82 1.62,1.62 0 0 0 1,0 c 0,0 0.44,0.61 0.77,0.67 a 3.4,3.4 0 0 0 0.69,0 9.45,9.45 0 0 1 1.24,0.8 19,19 0 0 0 -1.4,-1.46 0.77,0.77 0 0 0 -0.4,-0.77 1.27,1.27 0 0 0 -1,0.07 c 0,0 -0.25,-1 -0.94,-1 -0.69,0 -0.61,0.61 -0.54,0.87 z"
       id="path12790"
       style="stroke-width:0.935766" />
    <path
       class="cls-9"
       d="m 6.9,19.33 c -0.11,0.34 0.38,1.1 0.87,1.22 a 1.29,1.29 0 0 0 1,-0.21 3.42,3.42 0 0 0 0.82,0.83 1.76,1.76 0 0 0 1,0.14 16.39,16.39 0 0 1 3.86,3.37 11.5,11.5 0 0 0 -2,-2.56 1.53,1.53 0 0 0 -0.27,-1.31 1.24,1.24 0 0 0 -1.07,-0.43 3.64,3.64 0 0 0 -0.52,-1.69 1.12,1.12 0 0 0 -1.5,-0.34 1.94,1.94 0 0 0 -1.09,-0.84 1.08,1.08 0 0 0 -1.36,0.82 1,1 0 0 0 0.26,1 z"
       id="path12792" />
    <path
       class="cls-4"
       d="m 15.78,40.15 c -0.1,1 -3.22,4.24 -3.22,4.24 0,0 3.48,-2.67 4.9,-2.66 1.42,0.01 -0.5,-1.67 -0.5,-1.67"
       id="path12794" />
    <path
       class="cls-3"
       d="M 9.5,29.24 A 2.14,2.14 0 0 0 9,28.4 C 8.67,28.11 8.39,28.26 8.33,28.47 8.27,28.68 8.68,29 9.5,29.24 Z"
       id="path12796"
       style="stroke-width:0.935766" />
    <path
       class="cls-2"
       d="m 24.59,19.64 a 2.24,2.24 0 0 0 0.63,-0.8 c 0.17,-0.42 -0.08,-0.64 -0.32,-0.62 -0.24,0.02 -0.41,0.55 -0.31,1.42 z"
       id="path12798"
       style="stroke-width:0.935766" />
    <polygon
       class="cls-3"
       points="35.81,33.86 36.38,34 36.28,33.53 35.96,33.29 "
       id="polygon12800"
       style="stroke-width:0.935766" />
    <polygon
       class="cls-3"
       points="37.17,33.6 37.65,32.91 36.97,32.8 36.49,33.12 "
       id="polygon12802"
       style="stroke-width:0.935766" />
    <polygon
       class="cls-3"
       points="8.01,22.8 9.19,23.2 8.66,22.14 7.72,21.79 "
       id="polygon12804"
       style="stroke-width:0.935766" />
    <polygon
       class="cls-3"
       points="9.97,24.32 10.24,23.66 10.62,24.33 10.41,24.86 "
       id="polygon12806"
       style="stroke-width:0.935766" />
    <polygon
       class="cls-10"
       points="5.82,15.26 4.33,16.21 3.54,17.64 3.84,18.91 5.37,20 6.51,19.89 7.74,19.23 8.5,17.91 7.02,15.65 "
       id="polygon12808"
       style="stroke-width:0.935766" />
    <polyline
       class="cls-11"
       points="7.74 19.23 6.67 19.38 5.79 19.09 5.4 19.94 6.51 19.89"
       id="polyline12810"
       style="stroke-width:0.935766" />
    <polyline
       class="cls-12"
       points="5.91 16.1 6.84 16.33 7.95 17.06 8.4 17.76 7.26 17.57"
       id="polyline12812"
       style="stroke-width:0.935766" />
    <polyline
       class="cls-12"
       points="7.74 19.23 6.67 19.38 5.79 19.09 6.08 18.47 6.68 17.98 7.14 18.76 7.87 19"
       id="polyline12814"
       style="stroke-width:0.935766" />
    <polygon
       class="cls-13"
       points="6.27,19.56 5.71,19.44 6,18.67 7.4,19.27 "
       id="polygon12816"
       style="stroke-width:0.935766" />
    <polygon
       class="cls-11"
       points="4.33,16.21 3.54,17.64 3.84,18.91 5.37,20 6.08,18.47 7.16,17.59 5.91,16.1 5.82,15.26 "
       id="polygon12818"
       style="stroke-width:0.935766" />
    <polygon
       class="cls-10"
       points="5.19,16.24 4.33,16.34 3.59,17.67 4.22,18.58 5.18,18.97 5.55,18.02 6.26,17.48 5.04,17.01 "
       id="polygon12820"
       style="stroke-width:0.935766" />
    <polyline
       class="cls-12"
       points="4.02 16.9 4.58 16.9 4.69 17.55 6.26 17.48 5.04 17.01 5.19 16.24 4.33 16.21"
       id="polyline12822"
       style="stroke-width:0.935766" />
    <line
       class="cls-10"
       x1="7.1599998"
       y1="17.59"
       x2="8.5"
       y2="17.91"
       id="line12824"
       style="stroke-width:0.935766" />
    <polygon
       class="cls-14"
       points="5.82,15.26 4.33,16.21 3.54,17.64 3.84,18.91 5.37,20 6.51,19.89 7.74,19.23 8.5,17.91 7.02,15.65 "
       id="polygon12826" />
    <polygon
       class="cls-14"
       points="4.33,16.21 3.54,17.64 3.84,18.91 5.37,20 6.08,18.47 7.16,17.59 5.91,16.1 5.82,15.26 "
       id="polygon12828" />
    <line
       class="cls-14"
       x1="7.1599998"
       y1="17.59"
       x2="8.5"
       y2="17.91"
       id="line12830" />
    <polygon
       class="cls-10"
       points="25.61,6.09 24.4,3.64 27.67,2.22 30.49,3.95 29.32,6.69 27.46,5.73 "
       id="polygon12832"
       style="stroke-width:0.935766" />
    <path
       class="cls-11"
       d="m 27.9,6 0.9,-1.59 -2.43,-1.62 1.3,-0.57 2.67,1.63 c 0,0 -1.25,2.69 -1.21,2.63"
       id="path12834"
       style="stroke-width:0.935766" />
    <polyline
       class="cls-11"
       points="24.92 4.69 27.91 3.33 27.67 2.22 24.4 3.64"
       id="polyline12836"
       style="stroke-width:0.935766" />
    <polyline
       class="cls-12"
       points="24.8 4.46 27.62 3.21 29.14 4.35 28.18 5.44 28.21 4.46 27.45 3.98 25.11 5.06"
       id="polyline12838"
       style="stroke-width:0.935766" />
    <polygon
       class="cls-14"
       points="25.61,6.09 24.4,3.64 27.67,2.22 30.49,3.95 29.32,6.69 27.46,5.73 "
       id="polygon12840" />
    <polygon
       class="cls-12"
       points="29.32,6.69 27.46,5.73 25.61,6.09 24.4,3.64 23.57,7.01 24.97,9.7 26.66,8.61 28.59,8.55 "
       id="polygon12842"
       style="stroke-width:0.935766" />
    <polyline
       class="cls-13"
       points="26.16 6.07 25.52 8.31 26.93 7.52 27.46 5.73"
       id="polyline12844"
       style="stroke-width:0.935766" />
    <path
       class="cls-10"
       d="m 25.24,5.25 c 0,0 -0.85,3.14 -0.9,3.06 l -0.77,-1.42 0.84,-3"
       id="path12846"
       style="stroke-width:0.935766" />
    <polyline
       class="cls-13"
       points="24.8 4.46 24.4 6.48 24.68 7.65 25.43 5.73"
       id="polyline12848"
       style="stroke-width:0.935766" />
    <polyline
       class="cls-11"
       points="28.63 6.25 27.55 8.58 28.32 8.56 29.32 6.69"
       id="polyline12850"
       style="stroke-width:0.935766" />
    <polyline
       class="cls-10"
       points="24.55 7.44 25.27 8.61 27.02 7.82 28.59 8.55 26.66 8.61 24.97 9.7 24.13 8.08"
       id="polyline12852"
       style="stroke-width:0.935766" />
    <polygon
       class="cls-14"
       points="29.32,6.69 27.46,5.73 25.61,6.09 24.4,3.64 23.57,7.01 24.97,9.7 26.66,8.61 28.59,8.55 "
       id="polygon12854" />
    <polygon
       class="cls-3"
       points="34.37,28.86 34.88,29.32 35.04,28.78 34.83,28.35 "
       id="polygon12856"
       style="stroke-width:0.935766" />
    <polygon
       class="cls-3"
       points="35.94,29.34 36.81,28.89 36.17,28.39 35.48,28.46 "
       id="polygon12858"
       style="stroke-width:0.935766" />
    <polygon
       class="cls-10"
       points="37.19,25.9 37.44,24.72 38.7,25.85 39.17,27.71 38.23,27.14 37.93,26.36 "
       id="polygon12860"
       style="stroke-width:0.935766" />
    <polygon
       class="cls-14"
       points="37.19,25.9 37.44,24.72 38.7,25.85 39.17,27.71 38.23,27.14 37.93,26.36 "
       id="polygon12862" />
    <polygon
       class="cls-12"
       points="39.17,27.71 38.23,27.14 37.93,26.36 37.19,25.9 37.44,24.72 36.21,25.65 36.16,26.81 35.72,27.77 37.53,27.97 "
       id="polygon12864"
       style="stroke-width:0.935766" />
    <polygon
       class="cls-10"
       points="36.16,26.81 35.72,27.77 37.93,26.36 37.19,25.9 "
       id="polygon12866"
       style="stroke-width:0.935766" />
    <polygon
       class="cls-11"
       points="36.99,27.91 37.53,27.97 39.17,27.71 38.23,27.14 "
       id="polygon12868"
       style="stroke-width:0.935766" />
    <polygon
       class="cls-14"
       points="39.17,27.71 38.23,27.14 37.93,26.36 37.19,25.9 37.44,24.72 36.21,25.65 36.16,26.81 35.72,27.77 37.53,27.97 "
       id="polygon12870" />
    <polygon
       class="cls-10"
       points="39.74,13.05 38.35,11.69 38.69,10.01 40.5,10.4 41.82,12.33 43.68,13.42 43.49,15.87 40.65,15.95 "
       id="polygon12872"
       style="stroke-width:0.935766" />
    <polyline
       class="cls-12"
       points="38.35 11.69 40.12 11.64 41.12 13.41 42.15 14.1 42.16 14.59 40.43 15.26 39.74 13.05"
       id="polyline12874"
       style="stroke-width:0.935766" />
    <polygon
       class="cls-12"
       points="40.65,15.95 39.74,13.05 38.35,11.69 38.69,10.01 36.69,11.86 37.2,14.25 36.54,16.06 38.47,16.27 "
       id="polygon12876"
       style="stroke-width:0.935766" />
    <polyline
       class="cls-10"
       points="36.85 15.95 40.43 15.26 40.65 15.95 38.47 16.27"
       id="polyline12878"
       style="stroke-width:0.935766" />
    <polyline
       class="cls-13"
       points="36.54 16.06 40.11 14.45 40.43 15.26"
       id="polyline12880"
       style="stroke-width:0.935766" />
    <polygon
       class="cls-10"
       points="39.76,13.11 40.21,14.57 36.56,16.13 37.21,14.32 "
       id="polygon12882"
       style="stroke-width:0.935766" />
    <polygon
       class="cls-11"
       points="36.69,11.86 36.97,13.19 38.35,11.69 38.69,10.01 "
       id="polygon12884"
       style="stroke-width:0.935766" />
    <path
       class="cls-11"
       d="m 37.44,12.14 c 0.06,0.11 0.39,1.81 0.39,1.81 l -1,1.26 0.25,-1.12 -0.25,-1.46"
       id="path12886"
       style="stroke-width:0.935766" />
    <polygon
       class="cls-14"
       points="39.74,13.05 38.35,11.69 38.69,10.01 40.5,10.4 41.82,12.33 43.68,13.42 43.49,15.87 40.65,15.95 "
       id="polygon12888" />
    <polygon
       class="cls-14"
       points="40.65,15.95 39.74,13.05 38.35,11.69 38.69,10.01 36.69,11.86 37.2,14.25 36.54,16.06 38.47,16.27 "
       id="polygon12890" />
    <polygon
       class="cls-12"
       points="40.93,20.44 41.59,21.2 40.97,21.95 40.44,21.25 39.6,20.61 "
       id="polygon12892"
       style="stroke-width:0.935766" />
    <polyline
       class="cls-11"
       points="40.2 21.15 41.26 20.89 40.93 20.44 39.77 20.59"
       id="polyline12894"
       style="stroke-width:0.935766" />
    <polygon
       class="cls-12"
       points="40.44,21.25 39.6,20.61 39.25,21.36 39.42,22.17 40.16,22.3 40.97,21.95 "
       id="polygon12896"
       style="stroke-width:0.935766" />
    <path
       class="cls-11"
       d="m 39.39,22 c 0,0 0.75,-1 0.75,-1 l -0.54,-0.41 -0.35,0.75"
       id="path12898"
       style="stroke-width:0.935766" />
    <polygon
       class="cls-14"
       points="40.93,20.44 41.59,21.2 40.97,21.95 40.44,21.25 39.6,20.61 "
       id="polygon12900" />
    <polygon
       class="cls-14"
       points="40.44,21.25 39.6,20.61 39.25,21.36 39.42,22.17 40.16,22.3 40.97,21.95 "
       id="polygon12902" />
    <path
       class="cls-15"
       d="m 17.57,27.1 a 2.89,2.89 0 0 0 -2.64,2.13 2.15,2.15 0 0 0 0.69,2 1.89,1.89 0 0 0 -1,2.09 3.21,3.21 0 0 0 -3.25,4.29 2.18,2.18 0 0 0 -0.88,1.88 2.28,2.28 0 0 0 2.83,2 6,6 0 0 0 2.32,-0.91 3,3 0 0 0 2.42,2.28 4.92,4.92 0 0 0 3.28,-0.74 3.41,3.41 0 0 0 3.29,1.51 2.75,2.75 0 0 0 1.72,-1.18 2.35,2.35 0 0 0 2.43,-1.1 3.44,3.44 0 0 0 3.56,1.08 3.36,3.36 0 0 0 2.34,-3.67 2.92,2.92 0 0 0 -2.09,-1.92 2.79,2.79 0 0 0 2,-2.28 3.17,3.17 0 0 0 -2.93,-3.72 c -2.17,-0.23 -3,0.54 -3,0.54 -0.13,-0.53 -1,-1 -1,-1 a 2,2 0 0 0 -0.15,-2.33 3.14,3.14 0 0 0 -2.28,-0.36 2.4,2.4 0 0 0 -2.66,-1.86 3.11,3.11 0 0 0 -2.15,1.78 5,5 0 0 0 -2.85,-0.51 z"
       id="path12904"
       style="fill:url(#radial-gradient-2);stroke-width:0.935766" />
    <path
       class="cls-3"
       d="m 31.88,32.27 a 1.38,1.38 0 0 1 0.83,1.32 2.07,2.07 0 0 1 -2.13,2 l 0.83,1.08 h 0.93 l 1.58,-1.67 0.29,-1.6 -0.7,-1 -0.8,-0.36"
       id="path12906"
       style="stroke-width:0.935766" />
    <path
       class="cls-3"
       d="m 15.2,34.16 a 2,2 0 0 0 -1.59,1.51 2,2 0 0 0 0.81,2.33 c 0,0 -0.84,0.27 -1,0.84 a 1,1 0 0 0 0.08,0.89 1.08,1.08 0 0 1 -0.84,-1.3 L 12,36.57 l 0.54,-1.25 1,-1"
       id="path12908"
       style="stroke-width:0.935766" />
    <path
       class="cls-3"
       d="m 34,41.23 a 3.6,3.6 0 0 1 -1.69,1.18 3.45,3.45 0 0 1 -3.55,-1.08 2.35,2.35 0 0 1 -2.43,1.1 2.72,2.72 0 0 1 -1.72,1.17 3.37,3.37 0 0 1 -3.29,-1.51 4.9,4.9 0 0 1 -3.28,0.75 3.08,3.08 0 0 1 -2.43,-2.28 5.91,5.91 0 0 1 -2.31,0.91 2.27,2.27 0 0 1 -2.83,-2 v 0 l 1.23,-1.17 0.78,0.38 a 1.1,1.1 0 0 0 0.42,1.75 c 0.91,0.31 2.43,-0.79 2.66,-1.38 0,0 1.4,0.7 1.4,0.76 a 2.17,2.17 0 0 0 2.08,1.69 3.46,3.46 0 0 0 2.79,-1.6 c 0,0 1,2.45 2.74,2.32 a 2.09,2.09 0 0 0 2,-1.46 c 0,0 2.32,0.3 2.55,-1.15 a 5.68,5.68 0 0 0 2.53,1.78 c 1.39,0.36 2.3,-1.7 1.39,-2.89 -0.91,-1.19 1.14,-0.54 1.42,0.66 A 4.22,4.22 0 0 1 34,41.23 Z"
       id="path12910"
       style="stroke-width:0.935766" />
    <path
       class="cls-3"
       d="m 34,41.23 a 3.6,3.6 0 0 1 -1.69,1.18 3.45,3.45 0 0 1 -3.55,-1.08 2.35,2.35 0 0 1 -2.43,1.1 2.72,2.72 0 0 1 -1.72,1.17 3.37,3.37 0 0 1 -3.29,-1.51 4.9,4.9 0 0 1 -3.28,0.75 3.08,3.08 0 0 1 -2.43,-2.28 5.91,5.91 0 0 1 -2.31,0.91 2.27,2.27 0 0 1 -2.83,-2 v 0 l 1.23,-1.17 0.78,0.38 a 1.1,1.1 0 0 0 0.42,1.75 c 0.91,0.31 2.43,-0.79 2.66,-1.38 0,0 1.4,0.7 1.4,0.76 a 2.17,2.17 0 0 0 2.08,1.69 3.46,3.46 0 0 0 2.79,-1.6 c 0,0 1,2.45 2.74,2.32 a 2.09,2.09 0 0 0 2,-1.46 c 0,0 2.32,0.3 2.55,-1.15 A 3.41,3.41 0 0 0 31.56,41 1.61,1.61 0 0 0 33.1,38.45 c -0.9,-1.18 1.14,-0.54 1.42,0.66 A 4.22,4.22 0 0 1 34,41.23 Z"
       id="path12912"
       style="stroke-width:0.935766" />
    <path
       class="cls-16"
       d="m 33.3,34.63 a 2,2 0 0 0 0,-0.77 1.81,1.81 0 0 1 0,0.77 z"
       id="path12914"
       style="stroke-width:0.935766" />
    <path
       class="cls-17"
       d="m 32.34,42.41 a 3.2,3.2 0 0 1 -1.5,0.07 2.59,2.59 0 0 0 2.1,-0.73 2.43,2.43 0 0 0 0.45,-2.83 2.22,2.22 0 0 0 -1.59,-1 l -0.41,-1.37 a 6.87,6.87 0 0 0 1.61,-1.3 1.77,1.77 0 0 0 0.33,-0.84 2,2 0 0 0 0,-0.55 0.45,0.45 0 0 0 0,-0.16 1.51,1.51 0 0 0 -0.21,-0.53 0.75,0.75 0 0 0 -0.07,-0.12 l -0.08,-0.1 -0.08,-0.09 a 0.74,0.74 0 0 0 -0.13,-0.12 0.71,0.71 0 0 0 -0.14,-0.1 0.78,0.78 0 0 0 -0.15,-0.1 L 32.3,32.46 32.14,32.4 31.92,32.34 h -0.24 a 4,4 0 0 0 -0.58,0 h -0.32 -0.29 a 3.73,3.73 0 0 0 -0.54,0.1 l -0.23,0.07 a 3.92,3.92 0 0 0 -0.86,0.37 h -0.07 l -0.12,0.09 -0.18,-0.34 A 3.53,3.53 0 0 0 28.16,32.16 L 28,32 27.82,31.83 27.64,31.67 A 3.42,3.42 0 0 0 26.98,31.26 L 26.8,31.18 26.56,31.1 H 26.5 c 0,0 0.65,-1.74 0,-2.25 -0.65,-0.51 -2.08,0.26 -2.08,0.26 0,0 -0.31,-2 -1.66,-1.76 -1.35,0.24 -1.82,2.13 -1.82,2.13 -0.31,-1.14 -2.87,-1.93 -3.74,-0.39 a 2,2 0 0 0 0.45,2.56 1.68,1.68 0 0 0 -1.37,0.82 2.54,2.54 0 0 0 0,2.05 2.49,2.49 0 0 0 -3.15,0.78 3.16,3.16 0 0 0 -0.1,3.33 1.24,1.24 0 0 0 -0.82,2.25 2.91,2.91 0 0 0 1.82,0.43 4.51,4.51 0 0 1 -0.68,0.16 2.27,2.27 0 0 1 -2.83,-2 2.21,2.21 0 0 1 0.88,-1.89 3.23,3.23 0 0 1 3.25,-4.29 1.9,1.9 0 0 1 1,-2.1 2.14,2.14 0 0 1 -0.69,-2 2.87,2.87 0 0 1 2.61,-2.19 4.87,4.87 0 0 1 2.88,0.56 3.09,3.09 0 0 1 2.15,-1.78 2.4,2.4 0 0 1 2.66,1.85 3.16,3.16 0 0 1 2.28,0.37 2,2 0 0 1 0.16,2.33 c 0,0 0.85,0.46 1,1 0,0 0.82,-0.77 3,-0.54 a 3.17,3.17 0 0 1 2.93,3.72 2.8,2.8 0 0 1 -2,2.28 2.92,2.92 0 0 1 2.09,1.92 3.36,3.36 0 0 1 -2.38,3.7 z"
       id="path12916"
       style="fill:url(#linear-gradient-4);stroke-width:0.935766" />
    <path
       class="cls-18"
       d="m 17.57,27 a 2.89,2.89 0 0 0 -2.64,2.13 2.13,2.13 0 0 0 0.69,2 1.9,1.9 0 0 0 -1,2.1 3.21,3.21 0 0 0 -3.25,4.29 2.17,2.17 0 0 0 -0.88,1.88 2.26,2.26 0 0 0 2.83,2 5.9,5.9 0 0 0 2.32,-0.9 3.06,3.06 0 0 0 2.42,2.28 4.9,4.9 0 0 0 3.28,-0.75 3.37,3.37 0 0 0 3.29,1.51 2.72,2.72 0 0 0 1.72,-1.17 2.35,2.35 0 0 0 2.43,-1.11 3.4,3.4 0 0 0 3.56,1.08 3.34,3.34 0 0 0 2.34,-3.66 2.92,2.92 0 0 0 -2.09,-1.92 2.8,2.8 0 0 0 2,-2.28 3.17,3.17 0 0 0 -2.93,-3.72 c -2.17,-0.23 -3,0.54 -3,0.54 -0.13,-0.54 -1,-1 -1,-1 A 2,2 0 0 0 27.54,28 3.14,3.14 0 0 0 25.26,27.64 2.4,2.4 0 0 0 22.6,25.78 3.11,3.11 0 0 0 20.45,27.56 4.87,4.87 0 0 0 17.57,27 Z"
       id="path12918" />
    <path
       class="cls-3"
       d="m 15.41,36.56 a 2.14,2.14 0 0 0 -0.27,2.19 2.4,2.4 0 0 0 2.46,1 1.87,1.87 0 0 0 1.17,-0.66 c 0,0 -1.86,0.38 -2.79,-0.57 a 2,2 0 0 1 -0.57,-1.96 z"
       id="path12920"
       style="stroke-width:0.935766" />
    <path
       class="cls-19"
       d="m 26.63,33.61 a 3.73,3.73 0 0 1 1.73,-0.22 1.88,1.88 0 0 1 1.65,2 2.34,2.34 0 0 1 1.5,0.79 2.07,2.07 0 0 1 0.14,2.54 c 0,0 -0.14,-1.93 -1.26,-2.19 a 1.66,1.66 0 0 0 -1.67,0.41 3.91,3.91 0 0 0 0.07,-2.31 c -0.38,-1.04 -1.31,-1.02 -2.16,-1.02 z"
       id="path12922"
       style="fill:url(#linear-gradient-5);stroke-width:0.935766" />
    <path
       class="cls-20"
       d="M 21.2,28.85 A 1.38,1.38 0 0 1 23.08,29.63 2.08,2.08 0 0 0 21.27,29.58 3,3 0 0 0 20,31 2,2 0 0 1 21.2,28.85 Z"
       id="path12924"
       style="fill:url(#linear-gradient-6);stroke-width:0.935766" />
    <path
       class="cls-3"
       d="m 20.44,38 a 2.23,2.23 0 0 0 2.42,0.59 c 1.46,-0.63 1.12,-1.76 1.12,-1.76 a 2.44,2.44 0 0 0 1.36,-0.88 1.62,1.62 0 0 0 0.05,-1.44 1.51,1.51 0 0 1 0.61,1.49 2.13,2.13 0 0 1 -1.2,1.28 1.81,1.81 0 0 1 -0.9,2 C 22.79,40 21.45,39.77 20.44,38 Z"
       id="path12926"
       style="stroke-width:0.935766" />
    <path
       class="cls-3"
       d="m 26.63,40.68 a 2.78,2.78 0 0 0 2.12,-1.16 c 0.54,-0.84 -0.29,-1.81 -0.29,-1.81 a 1.62,1.62 0 0 1 1.36,1.4 2,2 0 0 1 -1.6,2.24"
       id="path12928"
       style="stroke-width:0.935766" />
    <path
       class="cls-21"
       d="m 17.53,34.32 a 1.68,1.68 0 0 1 1.26,-1.14 2.17,2.17 0 0 1 2.05,0.64 3,3 0 0 1 1.59,-2.12 2.15,2.15 0 0 1 2.74,0.55 1.93,1.93 0 0 0 -2.57,0.43 2.21,2.21 0 0 0 -0.74,1.91 2,2 0 0 0 -2.05,0.11 1.38,1.38 0 0 0 -2.28,-0.38 z"
       id="path12930"
       style="fill:url(#linear-gradient-7);stroke-width:0.935766" />
    <path
       class="cls-2"
       d="m 26.58,10.73 a 0.94,0.94 0 0 1 -0.07,1 c -0.32,0.4 -1.29,0.24 -1.29,0.24 a 0.46,0.46 0 0 1 -0.31,0.56 0.8,0.8 0 0 1 -0.32,0.73 0.87,0.87 0 0 1 -0.7,0.08 10.16,10.16 0 0 0 -0.89,1.46 6.9,6.9 0 0 1 0.81,-2.25 0.91,0.91 0 0 1 0.1,-0.91 0.93,0.93 0 0 1 0.78,-0.24 1.27,1.27 0 0 1 0.78,-1 1,1 0 0 1 1,0.14 0.76,0.76 0 0 1 0.11,0.19 z"
       id="path12932"
       style="stroke-width:0.935766" />
    <path
       class="cls-2"
       d="M 23.93,12.26 A 8.65,8.65 0 0 0 22.56,15.71 16.25,16.25 0 0 1 24.24,13"
       id="path12934"
       style="stroke-width:0.935766" />
  </g>
</svg>
