<?xml version="1.0" encoding="UTF-8" standalone="no"?>
<!-- Created with Inkscape (http://www.inkscape.org/) -->

<svg
   xmlns:dc="http://purl.org/dc/elements/1.1/"
   xmlns:cc="http://creativecommons.org/ns#"
   xmlns:rdf="http://www.w3.org/1999/02/22-rdf-syntax-ns#"
   xmlns:svg="http://www.w3.org/2000/svg"
   xmlns="http://www.w3.org/2000/svg"
   xmlns:xlink="http://www.w3.org/1999/xlink"
   xmlns:sodipodi="http://sodipodi.sourceforge.net/DTD/sodipodi-0.dtd"
   xmlns:inkscape="http://www.inkscape.org/namespaces/inkscape"
   width="48px"
   height="48px"
   id="svg51106"
   version="1.1"
   inkscape:version="0.48.5 r10040"
   sodipodi:docname="shotsculpt.svg">
  <defs
     id="defs51108">
    <linearGradient
       id="linearGradient8138">
      <stop
         style="stop-color:#ffffff;stop-opacity:0;"
         offset="0"
         id="stop8140" />
      <stop
         id="stop8194"
         offset="0.5"
         style="stop-color:#ffffff;stop-opacity:0.23423423;" />
      <stop
         style="stop-color:#ffffff;stop-opacity:1;"
         offset="1"
         id="stop8142" />
    </linearGradient>
    <linearGradient
       id="linearGradient51713">
      <stop
         style="stop-color:#ff7402;stop-opacity:1;"
         offset="0"
         id="stop51715" />
      <stop
         style="stop-color:#a14800;stop-opacity:1;"
         offset="1"
         id="stop51717" />
    </linearGradient>
    <linearGradient
       id="linearGradient51699">
      <stop
         style="stop-color:#ffae9b;stop-opacity:0;"
         offset="0"
         id="stop51701" />
      <stop
         style="stop-color:#ffc7ba;stop-opacity:0.72972971;"
         offset="1"
         id="stop51703" />
    </linearGradient>
    <linearGradient
       id="linearGradient51686">
      <stop
         style="stop-color:#f57900;stop-opacity:0;"
         offset="0"
         id="stop51688" />
      <stop
         style="stop-color:#f57900;stop-opacity:0.62162161;"
         offset="1"
         id="stop51690" />
    </linearGradient>
    <linearGradient
       id="linearGradient51650">
      <stop
         style="stop-color:#fed5cd;stop-opacity:1;"
         offset="0"
         id="stop51652" />
      <stop
         style="stop-color:#fcaf3e;stop-opacity:1;"
         offset="1"
         id="stop51654" />
    </linearGradient>
    <radialGradient
       inkscape:collect="always"
       xlink:href="#linearGradient51650"
       id="radialGradient51656"
       cx="9.9332714"
       cy="11.252819"
       fx="9.9332714"
       fy="11.252819"
       r="1.5366542"
       gradientUnits="userSpaceOnUse"
       gradientTransform="matrix(1.4581283,-0.04527123,0.04927476,1.5870768,-5.1051924,-6.1565777)" />
    <radialGradient
       inkscape:collect="always"
       xlink:href="#linearGradient51650"
       id="radialGradient51660"
       gradientUnits="userSpaceOnUse"
       gradientTransform="matrix(1.4581283,-0.04527123,0.04927476,1.5870768,-5.1051924,-6.1565777)"
       cx="9.9332714"
       cy="11.252819"
       fx="9.9332714"
       fy="11.252819"
       r="1.5366542" />
    <radialGradient
       inkscape:collect="always"
       xlink:href="#linearGradient51650"
       id="radialGradient51664"
       gradientUnits="userSpaceOnUse"
       gradientTransform="matrix(1.4581283,-0.04527123,0.04927476,1.5870768,-5.1051924,-6.1565777)"
       cx="9.9332714"
       cy="11.252819"
       fx="9.9332714"
       fy="11.252819"
       r="1.5366542" />
    <radialGradient
       inkscape:collect="always"
       xlink:href="#linearGradient51650"
       id="radialGradient51668"
       gradientUnits="userSpaceOnUse"
       gradientTransform="matrix(1.4581283,-0.04527123,0.04927476,1.5870768,-5.1051924,-6.1565777)"
       cx="9.9332714"
       cy="11.252819"
       fx="9.9332714"
       fy="11.252819"
       r="1.5366542" />
    <radialGradient
       inkscape:collect="always"
       xlink:href="#linearGradient51650"
       id="radialGradient51672"
       gradientUnits="userSpaceOnUse"
       gradientTransform="matrix(1.4581283,-0.04527123,0.04927476,1.5870768,-5.1051924,-6.1565777)"
       cx="9.9332714"
       cy="11.252819"
       fx="9.9332714"
       fy="11.252819"
       r="1.5366542" />
    <radialGradient
       inkscape:collect="always"
       xlink:href="#linearGradient51650"
       id="radialGradient51676"
       gradientUnits="userSpaceOnUse"
       gradientTransform="matrix(1.4581283,-0.04527123,0.04927476,1.5870768,-5.1051924,-6.1565777)"
       cx="9.9332714"
       cy="11.252819"
       fx="9.9332714"
       fy="11.252819"
       r="1.5366542" />
    <radialGradient
       inkscape:collect="always"
       xlink:href="#linearGradient51650"
       id="radialGradient51680"
       gradientUnits="userSpaceOnUse"
       gradientTransform="matrix(1.4581283,-0.04527123,0.04927476,1.5870768,-5.1051924,-6.1565777)"
       cx="9.9332714"
       cy="11.252819"
       fx="9.9332714"
       fy="11.252819"
       r="1.5366542" />
    <radialGradient
       inkscape:collect="always"
       xlink:href="#linearGradient51650"
       id="radialGradient51684"
       gradientUnits="userSpaceOnUse"
       gradientTransform="matrix(1.4581283,-0.04527123,0.04927476,1.5870768,-5.1051924,-6.1565777)"
       cx="9.9332714"
       cy="11.252819"
       fx="9.9332714"
       fy="11.252819"
       r="1.5366542" />
    <radialGradient
       inkscape:collect="always"
       xlink:href="#linearGradient51686"
       id="radialGradient51692"
       cx="22.447337"
       cy="25.414918"
       fx="22.447337"
       fy="25.414918"
       r="21.997906"
       gradientTransform="matrix(1,0,0,1.0164142,0,-0.41716643)"
       gradientUnits="userSpaceOnUse" />
    <radialGradient
       inkscape:collect="always"
       xlink:href="#linearGradient51699"
       id="radialGradient51705"
       cx="22.18585"
       cy="25.32106"
       fx="22.18585"
       fy="25.32106"
       r="21.9704"
       gradientTransform="matrix(0.95026759,-0.08620156,0.0878548,0.96849345,-2.0926452,3.3952122)"
       gradientUnits="userSpaceOnUse" />
    <linearGradient
       inkscape:collect="always"
       xlink:href="#linearGradient51713"
       id="linearGradient51719"
       x1="-3.5578313"
       y1="-13.574178"
       x2="33.757359"
       y2="32.094681"
       gradientUnits="userSpaceOnUse"
       gradientTransform="matrix(0.71919711,-0.29313742,0.29313955,0.71918665,9.3466947,22.452987)" />
    <radialGradient
       inkscape:collect="always"
       xlink:href="#linearGradient51686"
       id="radialGradient51725"
       gradientUnits="userSpaceOnUse"
       gradientTransform="matrix(0.95026759,-0.08620156,0.08761521,0.96585221,-2.0867113,3.4606264)"
       cx="22.447337"
       cy="25.414918"
       fx="22.447337"
       fy="25.414918"
       r="21.997906" />
    <radialGradient
       inkscape:collect="always"
       xlink:href="#linearGradient8138"
       id="radialGradient8144"
       cx="14.066374"
       cy="8.0232134"
       fx="14.066374"
       fy="8.0232134"
       r="0.53033006"
       gradientUnits="userSpaceOnUse" />
    <radialGradient
       inkscape:collect="always"
       xlink:href="#linearGradient8138"
       id="radialGradient8146"
       cx="14.066374"
       cy="8.0232134"
       fx="14.066374"
       fy="8.0232134"
       r="0.53033006"
       gradientUnits="userSpaceOnUse" />
    <radialGradient
       inkscape:collect="always"
       xlink:href="#linearGradient8138"
       id="radialGradient8148"
       cx="14.066374"
       cy="8.0232134"
       fx="14.066374"
       fy="8.0232134"
       r="0.53033006"
       gradientUnits="userSpaceOnUse" />
    <radialGradient
       inkscape:collect="always"
       xlink:href="#linearGradient8138"
       id="radialGradient8150"
       cx="14.066374"
       cy="8.0232134"
       fx="14.066374"
       fy="8.0232134"
       r="0.53033006"
       gradientUnits="userSpaceOnUse" />
    <radialGradient
       inkscape:collect="always"
       xlink:href="#linearGradient8138"
       id="radialGradient8152"
       cx="14.066374"
       cy="8.0232134"
       fx="14.066374"
       fy="8.0232134"
       r="0.53033006"
       gradientUnits="userSpaceOnUse" />
    <radialGradient
       inkscape:collect="always"
       xlink:href="#linearGradient8138"
       id="radialGradient8154"
       cx="14.066374"
       cy="8.0232134"
       fx="14.066374"
       fy="8.0232134"
       r="0.53033006"
       gradientUnits="userSpaceOnUse" />
    <radialGradient
       inkscape:collect="always"
       xlink:href="#linearGradient8138"
       id="radialGradient8156"
       cx="14.066374"
       cy="8.0232134"
       fx="14.066374"
       fy="8.0232134"
       r="0.53033006"
       gradientUnits="userSpaceOnUse" />
    <radialGradient
       inkscape:collect="always"
       xlink:href="#linearGradient8138"
       id="radialGradient8158"
       cx="14.066374"
       cy="8.0232134"
       fx="14.066374"
       fy="8.0232134"
       r="0.53033006"
       gradientUnits="userSpaceOnUse" />
    <radialGradient
       inkscape:collect="always"
       xlink:href="#linearGradient8138"
       id="radialGradient8160"
       cx="14.066374"
       cy="8.0232134"
       fx="14.066374"
       fy="8.0232134"
       r="0.53033006"
       gradientUnits="userSpaceOnUse" />
    <radialGradient
       inkscape:collect="always"
       xlink:href="#linearGradient8138"
       id="radialGradient8162"
       cx="14.066374"
       cy="8.0232134"
       fx="14.066374"
       fy="8.0232134"
       r="0.53033006"
       gradientUnits="userSpaceOnUse" />
    <radialGradient
       inkscape:collect="always"
       xlink:href="#linearGradient8138"
       id="radialGradient8164"
       cx="14.066374"
       cy="8.0232134"
       fx="14.066374"
       fy="8.0232134"
       r="0.53033006"
       gradientUnits="userSpaceOnUse" />
    <radialGradient
       inkscape:collect="always"
       xlink:href="#linearGradient8138"
       id="radialGradient8166"
       cx="14.066374"
       cy="8.0232134"
       fx="14.066374"
       fy="8.0232134"
       r="0.53033006"
       gradientUnits="userSpaceOnUse" />
    <radialGradient
       inkscape:collect="always"
       xlink:href="#linearGradient8138"
       id="radialGradient8168"
       cx="14.066374"
       cy="8.0232134"
       fx="14.066374"
       fy="8.0232134"
       r="0.53033006"
       gradientUnits="userSpaceOnUse" />
    <radialGradient
       inkscape:collect="always"
       xlink:href="#linearGradient8138"
       id="radialGradient8170"
       cx="14.066374"
       cy="8.0232134"
       fx="14.066374"
       fy="8.0232134"
       r="0.53033006"
       gradientUnits="userSpaceOnUse" />
    <radialGradient
       inkscape:collect="always"
       xlink:href="#linearGradient8138"
       id="radialGradient8172"
       cx="14.066374"
       cy="8.0232134"
       fx="14.066374"
       fy="8.0232134"
       r="0.53033006"
       gradientUnits="userSpaceOnUse" />
    <radialGradient
       inkscape:collect="always"
       xlink:href="#linearGradient8138"
       id="radialGradient8174"
       cx="14.066374"
       cy="8.0232134"
       fx="14.066374"
       fy="8.0232134"
       r="0.53033006"
       gradientUnits="userSpaceOnUse" />
    <radialGradient
       inkscape:collect="always"
       xlink:href="#linearGradient8138"
       id="radialGradient8176"
       cx="14.066374"
       cy="8.0232134"
       fx="14.066374"
       fy="8.0232134"
       r="0.53033006"
       gradientUnits="userSpaceOnUse" />
    <radialGradient
       inkscape:collect="always"
       xlink:href="#linearGradient8138"
       id="radialGradient8178"
       cx="14.066374"
       cy="8.0232134"
       fx="14.066374"
       fy="8.0232134"
       r="0.53033006"
       gradientUnits="userSpaceOnUse" />
    <radialGradient
       inkscape:collect="always"
       xlink:href="#linearGradient8138"
       id="radialGradient8180"
       cx="14.066374"
       cy="8.0232134"
       fx="14.066374"
       fy="8.0232134"
       r="0.53033006"
       gradientUnits="userSpaceOnUse" />
    <radialGradient
       inkscape:collect="always"
       xlink:href="#linearGradient8138"
       id="radialGradient8182"
       cx="14.066374"
       cy="8.0232134"
       fx="14.066374"
       fy="8.0232134"
       r="0.53033006"
       gradientUnits="userSpaceOnUse" />
    <radialGradient
       inkscape:collect="always"
       xlink:href="#linearGradient8138"
       id="radialGradient8184"
       cx="14.066374"
       cy="8.0232134"
       fx="14.066374"
       fy="8.0232134"
       r="0.53033006"
       gradientUnits="userSpaceOnUse" />
    <radialGradient
       inkscape:collect="always"
       xlink:href="#linearGradient8138"
       id="radialGradient8186"
       cx="14.066374"
       cy="8.0232134"
       fx="14.066374"
       fy="8.0232134"
       r="0.53033006"
       gradientUnits="userSpaceOnUse" />
    <radialGradient
       inkscape:collect="always"
       xlink:href="#linearGradient8138"
       id="radialGradient8188"
       cx="14.066374"
       cy="8.0232134"
       fx="14.066374"
       fy="8.0232134"
       r="0.53033006"
       gradientUnits="userSpaceOnUse" />
    <radialGradient
       inkscape:collect="always"
       xlink:href="#linearGradient8138"
       id="radialGradient8190"
       cx="14.066374"
       cy="8.0232134"
       fx="14.066374"
       fy="8.0232134"
       r="0.53033006"
       gradientUnits="userSpaceOnUse" />
    <radialGradient
       inkscape:collect="always"
       xlink:href="#linearGradient8138"
       id="radialGradient8192"
       cx="14.066374"
       cy="8.0232134"
       fx="14.066374"
       fy="8.0232134"
       r="0.53033006"
       gradientUnits="userSpaceOnUse" />
  </defs>
  <sodipodi:namedview
     id="base"
     pagecolor="#ffffff"
     bordercolor="#666666"
     borderopacity="1.0"
     inkscape:pageopacity="0.0"
     inkscape:pageshadow="2"
     inkscape:zoom="19.79899"
     inkscape:cx="7.9385745"
     inkscape:cy="19.95939"
     inkscape:current-layer="layer1"
     showgrid="true"
     inkscape:grid-bbox="true"
     inkscape:document-units="px"
     inkscape:window-width="2880"
     inkscape:window-height="1557"
     inkscape:window-x="-8"
     inkscape:window-y="-8"
     inkscape:window-maximized="1" />
  <metadata
     id="metadata51111">
    <rdf:RDF>
      <cc:Work
         rdf:about="">
        <dc:format>image/svg+xml</dc:format>
        <dc:type
           rdf:resource="http://purl.org/dc/dcmitype/StillImage" />
        <dc:title></dc:title>
      </cc:Work>
    </rdf:RDF>
  </metadata>
  <g
     id="layer1"
     inkscape:label="Layer 1"
     inkscape:groupmode="layer">
    <path
       style="color:#000000;fill:#ffdfc0;fill-opacity:1;fill-rule:nonzero;stroke:#984400;stroke-width:0.50000006;stroke-miterlimit:4;stroke-opacity:1;marker:none;visibility:visible;display:inline;overflow:visible;enable-background:accumulate"
       inkscape:transform-center-x="1.2556207"
       inkscape:transform-center-y="1.0358554"
       d="M 42.829986,35.4096 C 41.41427,38.30587 29.357278,30.694029 26.487089,32.18021 23.615805,33.666957 22.598736,48.059853 19.41965,47.588149 16.241775,47.116627 19.965962,33.011516 17.690971,30.740129 15.415112,28.467875 1.0641311,32.243629 0.52568738,29.071789 -0.01255119,25.901158 14.637165,25.157305 16.093502,22.280176 17.550393,19.40195 9.5958711,6.9246842 12.460433,5.4218185 15.323902,3.9195264 21.737055,17.951368 23.99671,18.079698 c 2.259655,0.128329 1.861008,-3.841344 4.839324,-5.413731 2.978314,-1.572386 6.101666,0.906315 7.6726,-0.298186 1.570933,-1.2045 1.905592,-5.1511425 3.098468,-4.8313826 0.946749,0.2537851 2.489745,5.6084396 0.712492,8.2370066 -1.777263,2.628566 -7.148718,1.469819 -8.336294,2.586372 -1.187575,1.116553 -1.931842,3.33829 -1.57749,5.865519 0.35435,2.52723 13.840442,8.286931 12.424186,11.184303 z"
       id="path51114"
       inkscape:connector-curvature="0"
       sodipodi:nodetypes="ssssssszzzszzzs" />
    <path
       sodipodi:nodetypes="zzzzzzzzzzzzzzz"
       inkscape:connector-curvature="0"
       id="path51634"
       d="M 41.14249,34.664906 C 40.427863,36.191859 28.894545,28.988102 25.613486,30.297607 22.332429,31.607111 21.644335,46.230254 19.8415,45.815 18.038665,45.399744 21.571454,31.878724 18.956351,29.344794 16.341249,26.810865 2.405057,30.402308 2.2464131,28.730902 2.0877697,27.059498 16.942154,24.822758 18.069834,22.855846 19.197515,20.888934 11.716278,8.0293056 13.352784,7.0660395 14.98929,6.1027736 20.973117,20.216633 23.928793,20.078428 c 2.955675,-0.138203 2.923664,-4.941439 5.381585,-6.239131 2.45792,-1.297693 5.576458,1.376399 7.658354,-0.02766 2.081897,-1.404057 1.674285,-4.7563414 2.557174,-4.5196639 0.882888,0.2366793 0.741435,4.5542669 -1.056798,6.2698079 -1.798234,1.715543 -5.463119,0.157242 -7.058428,1.231328 -1.595307,1.074086 -2.903443,3.793276 -2.305921,7.641775 0.59752,3.848499 12.752358,8.703068 12.037731,10.230023 z"
       inkscape:transform-center-y="0.92808741"
       inkscape:transform-center-x="1.3754736"
       style="color:#000000;fill:#ffcc9b;fill-opacity:1;fill-rule:nonzero;stroke:none;stroke-width:0.5;marker:none;visibility:visible;display:inline;overflow:visible;enable-background:accumulate" />
    <path
       style="color:#000000;fill:#ffaf61;fill-opacity:1;fill-rule:nonzero;stroke:none;stroke-width:0.5;marker:none;visibility:visible;display:inline;overflow:visible;enable-background:accumulate"
       inkscape:transform-center-x="1.651646"
       inkscape:transform-center-y="0.93660716"
       d="m 37.651151,33.161906 c -0.436019,0.923362 -8.705,-5.418214 -12.49997,-4.179509 -3.794969,1.238707 -3.763884,13.749389 -4.778285,13.502624 -1.014399,-0.246763 2.266761,-11.678664 0.02358,-14.421316 C 18.15329,25.321054 6.2474632,29.266379 6.1148151,27.868854 5.9821672,26.471329 18.327943,26.44669 19.266799,23.157186 20.205653,19.867682 13.662232,9.6736838 14.515683,9.0601386 c 0.853452,-0.6135458 5.795386,12.6448544 9.283356,12.5338544 3.487972,-0.110998 4.02876,-5.8723 6.083921,-6.957351 2.055159,-1.085049 5.43497,1.129195 7.175726,-0.04479 1.740751,-1.173986 1.705321,-3.8111 2.443537,-3.613203 0.738217,0.197896 -0.291768,2.826115 -1.795339,4.260546 -1.503571,1.434428 -5.37939,-0.278815 -6.713288,0.619265 -1.333897,0.898084 -3.37495,5.531962 -2.875338,8.749837 0.499609,3.217875 9.968913,7.630244 9.532892,8.553607 z"
       id="path51636"
       inkscape:connector-curvature="0"
       sodipodi:nodetypes="zzzzzzzzzzzzzzz" />
    <path
       style="color:#000000;fill:url(#radialGradient51725);fill-opacity:1;fill-rule:nonzero;stroke:none;stroke-width:0.5;marker:none;visibility:visible;display:inline;overflow:visible;enable-background:accumulate"
       d="m 13.312346,5.3912191 c 3.053882,3.5303796 6.816722,10.7589219 8.439449,10.8510799 0.108828,0.0062 0.202481,0.01486 0.299654,0.0028 C 19.435961,12.820475 15.659221,5.8624778 13.312346,5.3912191 z m 26.215157,2.1727975 c -0.341807,0.058178 -0.597701,0.4741316 -0.861374,1.066152 0.341092,1.7601394 0.34772,3.9291664 -0.59495,5.3233764 -1.777263,2.628567 -7.141122,1.465296 -8.328697,2.581849 -1.187574,1.116553 -1.948249,3.335863 -1.593897,5.863092 0.104295,0.74384 1.414947,1.775703 3.079642,2.924196 -0.381147,-0.392029 -0.623488,-0.769879 -0.666584,-1.077245 -0.354351,-2.527229 0.376627,-4.743845 1.564203,-5.860398 1.187574,-1.116552 6.551435,0.04672 8.328697,-2.581849 1.777262,-2.628567 0.259969,-7.9772436 -0.686784,-8.2310273 -0.07455,-0.019989 -0.171901,-0.019782 -0.240261,-0.00814 z M 0.76828926,28.504951 C 0.67692297,28.696644 0.63769092,28.900293 0.67368512,29.112328 1.1294403,31.797062 11.455621,29.506387 16.004381,30.116821 15.881871,29.591497 15.703972,29.167777 15.445803,28.910019 13.72571,27.192649 5.1071186,28.923367 0.76828926,28.504951 z M 24.872475,30.180625 c -0.246324,0.02654 -0.463148,0.08515 -0.642534,0.178046 -2.512374,1.300903 -3.586424,12.481588 -5.950093,14.940801 0.147522,1.319601 0.531452,2.225507 1.289939,2.33805 3.179088,0.471703 4.201929,-13.945152 7.073212,-15.4319 2.870189,-1.48618 14.92688,6.144275 16.342596,3.248005 0.567082,-1.160133 -1.288507,-2.797963 -3.700239,-4.484651 1.070697,0.986905 1.63855,1.883662 1.284487,2.608004 -1.327234,2.715252 -12.0026,-3.795274 -15.697368,-3.396355 z"
       id="path51638"
       inkscape:connector-curvature="0" />
    <path
       style="color:#000000;fill:#ffae9b;fill-opacity:1;fill-rule:nonzero;stroke:none;stroke-width:0.5;marker:none;visibility:visible;display:inline;overflow:visible;enable-background:accumulate"
       inkscape:transform-center-x="1.0491455"
       inkscape:transform-center-y="-0.036877786"
       d="m 33.590106,15.023901 c 0.360206,0.688296 -3.472318,1.779426 -4.422001,2.633546 -0.949684,0.854118 -0.81071,2.519682 -1.47747,3.677693 -0.849151,1.474779 -2.378366,2.40053 -2.321649,2.755787 0.21628,1.354747 6.019018,3.778737 5.394079,5.000013 -0.624941,1.221276 -5.960344,-2.147769 -7.188494,-1.529869 -1.228152,0.6179 -1.607558,6.69514 -2.962661,6.483009 -1.355103,-0.212129 0.252018,-6.305608 -0.704604,-7.29524 -0.956616,-0.989632 -6.947931,0.570916 -7.136157,-0.78581 -0.188232,-1.356723 5.963511,-1.715625 6.586896,-2.932804 0.623386,-1.21718 -2.50526,-6.435624 -1.278601,-7.052943 1.226658,-0.617322 3.397312,5.332379 4.755511,5.561324 0.276128,0.04655 2.078679,-0.353902 2.929267,-1.450539 1.07026,-1.379854 1.305102,-3.612424 2.659893,-4.634051 1.35479,-1.021625 4.805781,-1.118412 5.165985,-0.430121 z"
       id="path51643"
       inkscape:connector-curvature="0"
       sodipodi:nodetypes="zzssssssssssszz" />
    <path
       sodipodi:nodetypes="zzzzzzzzzzzzzzz"
       inkscape:connector-curvature="0"
       id="path51646"
       d="m 32.396245,15.301213 c 0.262923,0.502403 -2.14258,0.71582 -3.172078,1.403982 -1.029496,0.688164 -1.334359,3.515413 -2.272798,4.606268 -0.938437,1.090855 -2.756917,1.714271 -2.638878,2.918373 0.118036,1.204104 5.56255,3.575982 5.220597,4.21754 -0.341955,0.641559 -4.995187,-2.638388 -6.326679,-2.079472 -1.331492,0.558916 -1.5871,6.361567 -2.335573,6.219117 -0.748473,-0.142452 0.773435,-5.648366 -0.301144,-6.747186 -1.074581,-1.098818 -5.043738,0.722163 -5.18113,-0.268139 -0.137396,-0.990303 4.244776,-0.558126 4.807918,-2.140719 0.563142,-1.582592 -1.83773,-5.5521 -1.340389,-5.863938 0.497344,-0.311839 2.711007,4.79484 3.850481,4.846127 1.139475,0.05129 2.406332,-0.476787 3.347667,-1.681754 0.941335,-1.204965 1.995763,-4.339608 2.984654,-5.085315 0.988892,-0.745707 3.094429,-0.847286 3.357353,-0.344878 z"
       inkscape:transform-center-y="-0.022453518"
       inkscape:transform-center-x="0.81624554"
       style="color:#000000;fill:#ff7b5c;fill-opacity:1;fill-rule:nonzero;stroke:none;stroke-width:0.5;marker:none;visibility:visible;display:inline;overflow:visible;enable-background:accumulate" />
    <path
       transform="matrix(2.904762,0,0,2.904762,-11.691314,-6.0394162)"
       sodipodi:type="arc"
       style="color:#000000;fill:url(#radialGradient8150);fill-opacity:1;fill-rule:nonzero;stroke:none;stroke-width:1.25000000000000000;marker:none;visibility:visible;display:inline;overflow:visible;enable-background:accumulate"
       id="path8130"
       sodipodi:cx="14.066374"
       sodipodi:cy="8.0232134"
       sodipodi:rx="0.53033006"
       sodipodi:ry="0.53033006"
       d="m 14.596704,8.0232134 a 0.53033006,0.53033006 0 1 1 -1.06066,0 0.53033006,0.53033006 0 1 1 1.06066,0 z" />
    <path
       style="color:#000000;fill:url(#radialGradient51705);fill-opacity:1;fill-rule:nonzero;stroke:none;stroke-width:0.5;marker:none;visibility:visible;display:inline;overflow:visible;enable-background:accumulate"
       d="m 12.663963,5.3322911 c -0.09619,0.017502 -0.172393,0.036689 -0.261876,0.083635 C 9.5375244,6.9187921 17.483907,19.394326 16.027016,22.272551 14.570679,25.14968 -0.0918079,25.904449 0.44643026,29.075079 0.57911912,29.856686 1.5663642,30.239047 2.9891768,30.37135 4.264033,27.6966 17.08652,26.863614 18.445461,24.178895 19.902353,21.30067 11.95597,8.8251342 14.820533,7.3222687 15.025728,7.2146152 15.262029,7.1895639 15.500843,7.2306159 14.43279,5.9946032 13.436742,5.1916462 12.663963,5.3322911 z m 26.66598,2.1917815 c -1.025419,0.1745246 -1.411345,3.7131984 -2.884095,4.8424184 -1.570933,1.204498 -4.68854,-1.266122 -7.666855,0.306265 -2.82064,1.489141 -2.619872,5.136847 -4.509351,5.409004 0.848228,1.11316 1.577398,1.877219 2.089097,1.90628 2.259654,0.128328 1.860384,-3.836558 4.8387,-5.408943 2.978315,-1.572385 6.095922,0.898236 7.666855,-0.306265 0.972081,-0.745335 1.476817,-2.529482 1.998413,-3.714181 -0.296904,-1.6002258 -0.86908,-2.9022766 -1.3222,-3.0237389 -0.07455,-0.019989 -0.142203,-0.022476 -0.210564,-0.010836 z M 18.165876,31.988608 c 0.937503,4.127876 -1.633751,15.194666 1.176656,15.611664 0.417206,0.0619 0.798309,-0.136153 1.150123,-0.523489 C 20.057989,42.834866 21.77187,34.372156 20.052748,32.655759 19.69511,32.298687 19.01943,32.097408 18.165876,31.988608 z"
       id="path51694"
       inkscape:connector-curvature="0"
       sodipodi:nodetypes="sssscsscsssscssscsscscsc" />
    <path
       sodipodi:nodetypes="ssssssszzzszzzs"
       inkscape:connector-curvature="0"
       id="path51711"
       d="M 42.829986,35.4096 C 41.41427,38.30587 29.357278,30.694029 26.487089,32.18021 23.615805,33.666957 22.598736,48.059853 19.41965,47.588149 16.241775,47.116627 19.965962,33.011516 17.690971,30.740129 15.415112,28.467875 1.0641311,32.243629 0.52568738,29.071789 -0.01255119,25.901158 14.637165,25.157305 16.093502,22.280176 17.550393,19.40195 9.5958711,6.9246842 12.460433,5.4218185 15.323902,3.9195264 21.737055,17.951368 23.99671,18.079698 c 2.259655,0.128329 1.861008,-3.841344 4.839324,-5.413731 2.978314,-1.572386 6.101666,0.906315 7.6726,-0.298186 1.570933,-1.2045 1.905592,-5.1511425 3.098468,-4.8313826 0.946749,0.2537851 2.489745,5.6084396 0.712492,8.2370066 -1.777263,2.628566 -7.148718,1.469819 -8.336294,2.586372 -1.187575,1.116553 -1.931842,3.33829 -1.57749,5.865519 0.35435,2.52723 13.840442,8.286931 12.424186,11.184303 z"
       inkscape:transform-center-y="1.0358554"
       inkscape:transform-center-x="1.2556207"
       style="color:#000000;fill:none;stroke:url(#linearGradient51719);stroke-width:0.75;stroke-miterlimit:4;stroke-opacity:1;stroke-dasharray:none;marker:none;visibility:visible;display:inline;overflow:visible;enable-background:accumulate" />
    <path
       sodipodi:type="arc"
       style="color:#000000;fill:url(#radialGradient8192);fill-opacity:1;fill-rule:nonzero;stroke:none;stroke-width:1.25000000000000000;stroke-linecap:butt;stroke-linejoin:bevel;stroke-miterlimit:4;stroke-opacity:0.52577317000000001;stroke-dasharray:2.50000000000000000, 2.50000000000000000;stroke-dashoffset:0;marker:none;visibility:visible;display:inline;overflow:visible;enable-background:accumulate"
       id="path8082"
       sodipodi:cx="14.066374"
       sodipodi:cy="8.0232134"
       sodipodi:rx="0.53033006"
       sodipodi:ry="0.53033006"
       d="m 14.596704,8.0232134 a 0.53033006,0.53033006 0 1 1 -1.06066,0 0.53033006,0.53033006 0 1 1 1.06066,0 z" />
    <path
       d="m 14.596704,8.0232134 a 0.53033006,0.53033006 0 1 1 -1.06066,0 0.53033006,0.53033006 0 1 1 1.06066,0 z"
       sodipodi:ry="0.53033006"
       sodipodi:rx="0.53033006"
       sodipodi:cy="8.0232134"
       sodipodi:cx="14.066374"
       id="path8084"
       style="color:#000000;fill:url(#radialGradient8190);fill-opacity:1;fill-rule:nonzero;stroke:none;stroke-width:1.25000000000000000;marker:none;visibility:visible;display:inline;overflow:visible;enable-background:accumulate"
       sodipodi:type="arc"
       transform="matrix(1.4761905,0,0,1.4761905,-5.28406,-1.244689)" />
    <path
       transform="matrix(2.0476191,0,0,2.0476191,-11.705744,-2.5968945)"
       sodipodi:type="arc"
       style="color:#000000;fill:url(#radialGradient8188);fill-opacity:1;fill-rule:nonzero;stroke:none;stroke-width:1.25000000000000000;marker:none;visibility:visible;display:inline;overflow:visible;enable-background:accumulate"
       id="path8086"
       sodipodi:cx="14.066374"
       sodipodi:cy="8.0232134"
       sodipodi:rx="0.53033006"
       sodipodi:ry="0.53033006"
       d="m 14.596704,8.0232134 a 0.53033006,0.53033006 0 1 1 -1.06066,0 0.53033006,0.53033006 0 1 1 1.06066,0 z" />
    <path
       d="m 14.596704,8.0232134 a 0.53033006,0.53033006 0 1 1 -1.06066,0 0.53033006,0.53033006 0 1 1 1.06066,0 z"
       sodipodi:ry="0.53033006"
       sodipodi:rx="0.53033006"
       sodipodi:cy="8.0232134"
       sodipodi:cx="14.066374"
       id="path8088"
       style="color:#000000;fill:url(#radialGradient8186);fill-opacity:1;fill-rule:nonzero;stroke:none;stroke-width:1.25000000000000000;marker:none;visibility:visible;display:inline;overflow:visible;enable-background:accumulate"
       sodipodi:type="arc"
       transform="matrix(2.904762,0,0,2.904762,-21.843347,-5.9889086)" />
    <path
       transform="matrix(3.9523811,0,0,3.9523811,-34.458228,-10.101032)"
       sodipodi:type="arc"
       style="color:#000000;fill:url(#radialGradient8184);fill-opacity:1;fill-rule:nonzero;stroke:none;stroke-width:1.25000000000000000;marker:none;visibility:visible;display:inline;overflow:visible;enable-background:accumulate"
       id="path8090"
       sodipodi:cx="14.066374"
       sodipodi:cy="8.0232134"
       sodipodi:rx="0.53033006"
       sodipodi:ry="0.53033006"
       d="m 14.596704,8.0232134 a 0.53033006,0.53033006 0 1 1 -1.06066,0 0.53033006,0.53033006 0 1 1 1.06066,0 z" />
    <path
       d="m 14.596704,8.0232134 a 0.53033006,0.53033006 0 1 1 -1.06066,0 0.53033006,0.53033006 0 1 1 1.06066,0 z"
       sodipodi:ry="0.53033006"
       sodipodi:rx="0.53033006"
       sodipodi:cy="8.0232134"
       sodipodi:cx="14.066374"
       id="path8092"
       style="color:#000000;fill:url(#radialGradient8182);fill-opacity:1;fill-rule:nonzero;stroke:none;stroke-width:1.25000000000000000;marker:none;visibility:visible;display:inline;overflow:visible;enable-background:accumulate"
       sodipodi:type="arc"
       transform="matrix(3.9523811,0,0,3.9523811,-38.902899,-6.1614371)" />
    <path
       transform="matrix(3.9523811,0,0,3.9523811,-34.104674,-3.4340252)"
       sodipodi:type="arc"
       style="color:#000000;fill:url(#radialGradient8170);fill-opacity:1;fill-rule:nonzero;stroke:none;stroke-width:1.25000000000000000;marker:none;visibility:visible;display:inline;overflow:visible;enable-background:accumulate"
       id="path8096"
       sodipodi:cx="14.066374"
       sodipodi:cy="8.0232134"
       sodipodi:rx="0.53033006"
       sodipodi:ry="0.53033006"
       d="m 14.596704,8.0232134 a 0.53033006,0.53033006 0 1 1 -1.06066,0 0.53033006,0.53033006 0 1 1 1.06066,0 z" />
    <path
       d="m 14.596704,8.0232134 a 0.53033006,0.53033006 0 1 1 -1.06066,0 0.53033006,0.53033006 0 1 1 1.06066,0 z"
       sodipodi:ry="0.53033006"
       sodipodi:rx="0.53033006"
       sodipodi:cy="8.0232134"
       sodipodi:cx="14.066374"
       id="path8098"
       style="color:#000000;fill:url(#radialGradient8162);fill-opacity:1;fill-rule:nonzero;stroke:none;stroke-width:1.25000000000000000;marker:none;visibility:visible;display:inline;overflow:visible;enable-background:accumulate"
       sodipodi:type="arc"
       transform="matrix(3.9523811,0,0,3.9523811,-29.053911,-5.2522998)" />
    <path
       transform="matrix(3.9523811,0,0,3.9523811,-29.558987,-9.8484939)"
       sodipodi:type="arc"
       style="color:#000000;fill:url(#radialGradient8152);fill-opacity:1;fill-rule:nonzero;stroke:none;stroke-width:1.25000000000000000;marker:none;visibility:visible;display:inline;overflow:visible;enable-background:accumulate"
       id="path8100"
       sodipodi:cx="14.066374"
       sodipodi:cy="8.0232134"
       sodipodi:rx="0.53033006"
       sodipodi:ry="0.53033006"
       d="m 14.596704,8.0232134 a 0.53033006,0.53033006 0 1 1 -1.06066,0 0.53033006,0.53033006 0 1 1 1.06066,0 z" />
    <path
       transform="matrix(2.904762,0,0,2.904762,-28.207308,3.3044948)"
       sodipodi:type="arc"
       style="color:#000000;fill:url(#radialGradient8180);fill-opacity:1;fill-rule:nonzero;stroke:none;stroke-width:1.25000000000000000;marker:none;visibility:visible;display:inline;overflow:visible;enable-background:accumulate"
       id="path8102"
       sodipodi:cx="14.066374"
       sodipodi:cy="8.0232134"
       sodipodi:rx="0.53033006"
       sodipodi:ry="0.53033006"
       d="m 14.596704,8.0232134 a 0.53033006,0.53033006 0 1 1 -1.06066,0 0.53033006,0.53033006 0 1 1 1.06066,0 z" />
    <path
       d="m 14.596704,8.0232134 a 0.53033006,0.53033006 0 1 1 -1.06066,0 0.53033006,0.53033006 0 1 1 1.06066,0 z"
       sodipodi:ry="0.53033006"
       sodipodi:rx="0.53033006"
       sodipodi:cy="8.0232134"
       sodipodi:cx="14.066374"
       id="path8104"
       style="color:#000000;fill:url(#radialGradient8178);fill-opacity:1;fill-rule:nonzero;stroke:none;stroke-width:1.25000000000000000;marker:none;visibility:visible;display:inline;overflow:visible;enable-background:accumulate"
       sodipodi:type="arc"
       transform="matrix(2.0476191,0,0,2.0476191,-19.382903,10.838134)" />
    <path
       transform="matrix(1.4761905,0,0,1.4761905,-14.577463,16.129935)"
       sodipodi:type="arc"
       style="color:#000000;fill:url(#radialGradient8176);fill-opacity:1;fill-rule:nonzero;stroke:none;stroke-width:1.25000000000000000;marker:none;visibility:visible;display:inline;overflow:visible;enable-background:accumulate"
       id="path8106"
       sodipodi:cx="14.066374"
       sodipodi:cy="8.0232134"
       sodipodi:rx="0.53033006"
       sodipodi:ry="0.53033006"
       d="m 14.596704,8.0232134 a 0.53033006,0.53033006 0 1 1 -1.06066,0 0.53033006,0.53033006 0 1 1 1.06066,0 z" />
    <path
       d="m 14.596704,8.0232134 a 0.53033006,0.53033006 0 1 1 -1.06066,0 0.53033006,0.53033006 0 1 1 1.06066,0 z"
       sodipodi:ry="0.53033006"
       sodipodi:rx="0.53033006"
       sodipodi:cy="8.0232134"
       sodipodi:cx="14.066374"
       id="path8108"
       style="color:#000000;fill:url(#radialGradient8174);fill-opacity:1;fill-rule:nonzero;stroke:none;stroke-width:1.25000000000000000;marker:none;visibility:visible;display:inline;overflow:visible;enable-background:accumulate"
       sodipodi:type="arc"
       transform="translate(-10.606602,20.405081)" />
    <path
       d="m 14.596704,8.0232134 a 0.53033006,0.53033006 0 1 1 -1.06066,0 0.53033006,0.53033006 0 1 1 1.06066,0 z"
       sodipodi:ry="0.53033006"
       sodipodi:rx="0.53033006"
       sodipodi:cy="8.0232134"
       sodipodi:cx="14.066374"
       id="path8112"
       style="color:#000000;fill:url(#radialGradient8172);fill-opacity:1;fill-rule:nonzero;stroke:none;stroke-width:1.25000000000000000;marker:none;visibility:visible;display:inline;overflow:visible;enable-background:accumulate"
       sodipodi:type="arc"
       transform="matrix(2.904762,0,0,2.904762,-19.469488,10.123024)" />
    <path
       transform="matrix(2.0476191,0,0,2.0476191,-7.9176716,21.14169)"
       sodipodi:type="arc"
       style="color:#000000;fill:url(#radialGradient8168);fill-opacity:1;fill-rule:nonzero;stroke:none;stroke-width:1.25000000000000000;marker:none;visibility:visible;display:inline;overflow:visible;enable-background:accumulate"
       id="path8114"
       sodipodi:cx="14.066374"
       sodipodi:cy="8.0232134"
       sodipodi:rx="0.53033006"
       sodipodi:ry="0.53033006"
       d="m 14.596704,8.0232134 a 0.53033006,0.53033006 0 1 1 -1.06066,0 0.53033006,0.53033006 0 1 1 1.06066,0 z" />
    <path
       d="m 14.596704,8.0232134 a 0.53033006,0.53033006 0 1 1 -1.06066,0 0.53033006,0.53033006 0 1 1 1.06066,0 z"
       sodipodi:ry="0.53033006"
       sodipodi:rx="0.53033006"
       sodipodi:cy="8.0232134"
       sodipodi:cx="14.066374"
       id="path8116"
       style="color:#000000;fill:url(#radialGradient8166);fill-opacity:1;fill-rule:nonzero;stroke:none;stroke-width:1.25000000000000000;marker:none;visibility:visible;display:inline;overflow:visible;enable-background:accumulate"
       sodipodi:type="arc"
       transform="matrix(1.4761905,0,0,1.4761905,-0.33431211,29.312426)" />
    <path
       transform="translate(5.7578692,36.163461)"
       sodipodi:type="arc"
       style="color:#000000;fill:url(#radialGradient8164);fill-opacity:1;fill-rule:nonzero;stroke:none;stroke-width:1.25000000000000000;marker:none;visibility:visible;display:inline;overflow:visible;enable-background:accumulate"
       id="path8118"
       sodipodi:cx="14.066374"
       sodipodi:cy="8.0232134"
       sodipodi:rx="0.53033006"
       sodipodi:ry="0.53033006"
       d="m 14.596704,8.0232134 a 0.53033006,0.53033006 0 1 1 -1.06066,0 0.53033006,0.53033006 0 1 1 1.06066,0 z" />
    <path
       transform="matrix(2.904762,0,0,2.904762,-9.8730388,5.6278452)"
       sodipodi:type="arc"
       style="color:#000000;fill:url(#radialGradient8160);fill-opacity:1;fill-rule:nonzero;stroke:none;stroke-width:1.25000000000000000;marker:none;visibility:visible;display:inline;overflow:visible;enable-background:accumulate"
       id="path8122"
       sodipodi:cx="14.066374"
       sodipodi:cy="8.0232134"
       sodipodi:rx="0.53033006"
       sodipodi:ry="0.53033006"
       d="m 14.596704,8.0232134 a 0.53033006,0.53033006 0 1 1 -1.06066,0 0.53033006,0.53033006 0 1 1 1.06066,0 z" />
    <path
       d="m 14.596704,8.0232134 a 0.53033006,0.53033006 0 1 1 -1.06066,0 0.53033006,0.53033006 0 1 1 1.06066,0 z"
       sodipodi:ry="0.53033006"
       sodipodi:rx="0.53033006"
       sodipodi:cy="8.0232134"
       sodipodi:cx="14.066374"
       id="path8124"
       style="color:#000000;fill:url(#radialGradient8158);fill-opacity:1;fill-rule:nonzero;stroke:none;stroke-width:1.25000000000000000;marker:none;visibility:visible;display:inline;overflow:visible;enable-background:accumulate"
       sodipodi:type="arc"
       transform="matrix(2.0476191,0,0,2.0476191,5.5678649,14.373668)" />
    <path
       transform="matrix(1.4761905,0,0,1.4761905,16.686758,20.776637)"
       sodipodi:type="arc"
       style="color:#000000;fill:url(#radialGradient8156);fill-opacity:1;fill-rule:nonzero;stroke:none;stroke-width:1.25000000000000000;marker:none;visibility:visible;display:inline;overflow:visible;enable-background:accumulate"
       id="path8126"
       sodipodi:cx="14.066374"
       sodipodi:cy="8.0232134"
       sodipodi:rx="0.53033006"
       sodipodi:ry="0.53033006"
       d="m 14.596704,8.0232134 a 0.53033006,0.53033006 0 1 1 -1.06066,0 0.53033006,0.53033006 0 1 1 1.06066,0 z" />
    <path
       d="m 14.596704,8.0232134 a 0.53033006,0.53033006 0 1 1 -1.06066,0 0.53033006,0.53033006 0 1 1 1.06066,0 z"
       sodipodi:ry="0.53033006"
       sodipodi:rx="0.53033006"
       sodipodi:cy="8.0232134"
       sodipodi:cx="14.066374"
       id="path8128"
       style="color:#000000;fill:url(#radialGradient8154);fill-opacity:1;fill-rule:nonzero;stroke:none;stroke-width:1.25000000000000000;marker:none;visibility:visible;display:inline;overflow:visible;enable-background:accumulate"
       sodipodi:type="arc"
       transform="translate(25.506351,25.859905)" />
    <path
       d="m 14.596704,8.0232134 a 0.53033006,0.53033006 0 1 1 -1.06066,0 0.53033006,0.53033006 0 1 1 1.06066,0 z"
       sodipodi:ry="0.53033006"
       sodipodi:rx="0.53033006"
       sodipodi:cy="8.0232134"
       sodipodi:cx="14.066374"
       id="path8132"
       style="color:#000000;fill:url(#radialGradient8148);fill-opacity:1;fill-rule:nonzero;stroke:none;stroke-width:1.25000000000000000;marker:none;visibility:visible;display:inline;overflow:visible;enable-background:accumulate"
       sodipodi:type="arc"
       transform="matrix(2.0476191,0,0,2.0476191,4.7092349,-0.98065042)" />
    <path
       transform="matrix(1.4761905,0,0,1.4761905,16.939296,2.6443983)"
       sodipodi:type="arc"
       style="color:#000000;fill:url(#radialGradient8146);fill-opacity:1;fill-rule:nonzero;stroke:none;stroke-width:1.25000000000000000;marker:none;visibility:visible;display:inline;overflow:visible;enable-background:accumulate"
       id="path8134"
       sodipodi:cx="14.066374"
       sodipodi:cy="8.0232134"
       sodipodi:rx="0.53033006"
       sodipodi:ry="0.53033006"
       d="m 14.596704,8.0232134 a 0.53033006,0.53033006 0 1 1 -1.06066,0 0.53033006,0.53033006 0 1 1 1.06066,0 z" />
    <path
       d="m 14.596704,8.0232134 a 0.53033006,0.53033006 0 1 1 -1.06066,0 0.53033006,0.53033006 0 1 1 1.06066,0 z"
       sodipodi:ry="0.53033006"
       sodipodi:rx="0.53033006"
       sodipodi:cy="8.0232134"
       sodipodi:cx="14.066374"
       id="path8136"
       style="color:#000000;fill:url(#radialGradient8144);fill-opacity:1;fill-rule:nonzero;stroke:none;stroke-width:1.25000000000000000;marker:none;visibility:visible;display:inline;overflow:visible;enable-background:accumulate"
       sodipodi:type="arc"
       transform="translate(25.304321,3.2829958)" />
    <path
       transform="matrix(1.1073749,-0.10045323,0.10045081,1.1073493,-7.5378442,2.3628219)"
       d="m 47.499998,12.321428 a 9.3214283,9.3214283 0 1 1 -18.642857,0 9.3214283,9.3214283 0 1 1 18.642857,0 z"
       sodipodi:ry="9.3214283"
       sodipodi:rx="9.3214283"
       sodipodi:cy="12.321428"
       sodipodi:cx="38.17857"
       id="path51727"
       style="color:#000000;fill:none;stroke:#ffffff;stroke-width:2.69806266;stroke-linecap:round;stroke-linejoin:round;stroke-miterlimit:4;stroke-opacity:0.52577317;stroke-dasharray:none;stroke-dashoffset:0;marker:none;visibility:visible;display:inline;overflow:visible;enable-background:accumulate"
       sodipodi:type="arc" />
    <path
       sodipodi:type="arc"
       style="color:#000000;fill:none;stroke:#ef2929;stroke-width:1.12419283;stroke-linecap:butt;stroke-linejoin:round;stroke-miterlimit:4;stroke-opacity:1;stroke-dasharray:2.24838553, 2.24838553;stroke-dashoffset:0;marker:none;visibility:visible;display:inline;overflow:visible;enable-background:accumulate"
       id="path51723"
       sodipodi:cx="38.17857"
       sodipodi:cy="12.321428"
       sodipodi:rx="9.3214283"
       sodipodi:ry="9.3214283"
       d="m 47.499998,12.321428 a 9.3214283,9.3214283 0 1 1 -18.642857,0 9.3214283,9.3214283 0 1 1 18.642857,0 z"
       transform="matrix(1.1073749,-0.10045323,0.10045081,1.1073493,-7.5378442,2.3628219)" />
  </g>
</svg>
