<?xml version="1.0" encoding="UTF-8" standalone="no"?>
<!-- Created with Inkscape (http://www.inkscape.org/) -->
<svg
   xmlns:a="http://ns.adobe.com/AdobeSVGViewerExtensions/3.0/"
   xmlns:dc="http://purl.org/dc/elements/1.1/"
   xmlns:cc="http://web.resource.org/cc/"
   xmlns:rdf="http://www.w3.org/1999/02/22-rdf-syntax-ns#"
   xmlns:svg="http://www.w3.org/2000/svg"
   xmlns="http://www.w3.org/2000/svg"
   xmlns:xlink="http://www.w3.org/1999/xlink"
   xmlns:sodipodi="http://sodipodi.sourceforge.net/DTD/sodipodi-0.dtd"
   xmlns:inkscape="http://www.inkscape.org/namespaces/inkscape"
   width="48px"
   height="48px"
   id="svg2160"
   sodipodi:version="0.32"
   inkscape:version="0.45.1"
   sodipodi:docbase="C:\dev\src\houdini\support\icons\SOP"
   sodipodi:docname="skin.svg"
   inkscape:output_extension="org.inkscape.output.svg.inkscape">
  <defs
     id="defs2162">
    <linearGradient
       inkscape:collect="always"
       xlink:href="#XMLID_364_"
       id="linearGradient22124"
       gradientUnits="userSpaceOnUse"
       gradientTransform="matrix(1.015278,0,0,1.3678002,-1097.3718,-228.87696)"
       x1="1107.3073"
       y1="176.4187"
       x2="1095.3629"
       y2="189.59431" />
    <linearGradient
       y2="183.1944"
       x2="1066.8472"
       y1="178.87399"
       x1="1069.6777"
       gradientUnits="userSpaceOnUse"
       id="XMLID_366_"
       gradientTransform="matrix(1.015278,0,0,1.015466,-1073.384,-162.0741)">
      <stop
         id="stop2064"
         style="stop-color:#D4DDDF"
         offset="0" />
      <stop
         id="stop2066"
         style="stop-color:#FFFFFF"
         offset="0.5281" />
      <stop
         id="stop2068"
         style="stop-color:#D4DDDF"
         offset="1" />
      <a:midPointStop
         style="stop-color:#D4DDDF"
         offset="0" />
      <a:midPointStop
         style="stop-color:#D4DDDF"
         offset="0.5" />
      <a:midPointStop
         style="stop-color:#FFFFFF"
         offset="0.5281" />
      <a:midPointStop
         style="stop-color:#FFFFFF"
         offset="0.5" />
      <a:midPointStop
         style="stop-color:#D4DDDF"
         offset="1" />
    </linearGradient>
    <linearGradient
       inkscape:collect="always"
       xlink:href="#XMLID_366_"
       id="linearGradient27442"
       gradientUnits="userSpaceOnUse"
       gradientTransform="matrix(1.015278,0,0,1.015466,-1073.384,-162.0741)"
       x1="1069.6777"
       y1="178.87399"
       x2="1066.8472"
       y2="183.1944" />
    <linearGradient
       y2="184.198"
       x2="1066.3734"
       y1="176.6597"
       x1="1072.4707"
       gradientUnits="userSpaceOnUse"
       id="XMLID_365_"
       gradientTransform="matrix(1.015278,0,0,1.015466,-1073.384,-162.0741)">
      <stop
         id="stop2053"
         style="stop-color:#C8D2D8"
         offset="0" />
      <stop
         id="stop2055"
         style="stop-color:#D4DDDF"
         offset="0.4213" />
      <stop
         id="stop2057"
         style="stop-color:#D4DDDF"
         offset="0.6124" />
      <stop
         id="stop2059"
         style="stop-color:#B7C1CA"
         offset="1" />
      <a:midPointStop
         style="stop-color:#C8D2D8"
         offset="0" />
      <a:midPointStop
         style="stop-color:#C8D2D8"
         offset="0.5" />
      <a:midPointStop
         style="stop-color:#D4DDDF"
         offset="0.4213" />
      <a:midPointStop
         style="stop-color:#D4DDDF"
         offset="0.5" />
      <a:midPointStop
         style="stop-color:#D4DDDF"
         offset="0.6124" />
      <a:midPointStop
         style="stop-color:#D4DDDF"
         offset="0.5" />
      <a:midPointStop
         style="stop-color:#B7C1CA"
         offset="1" />
    </linearGradient>
    <linearGradient
       inkscape:collect="always"
       xlink:href="#XMLID_365_"
       id="linearGradient27440"
       gradientUnits="userSpaceOnUse"
       gradientTransform="matrix(1.015278,0,0,1.015466,-1073.384,-162.0741)"
       x1="1072.4707"
       y1="176.6597"
       x2="1066.3734"
       y2="184.198" />
    <linearGradient
       y2="190.5343"
       x2="1068.4175"
       y1="172.4487"
       x1="1079.5879"
       gradientUnits="userSpaceOnUse"
       id="XMLID_364_"
       gradientTransform="matrix(1.015278,0,0,1.015466,-1073.384,-162.0741)">
      <stop
         id="stop2042"
         style="stop-color:#ACB5BE"
         offset="0.0056" />
      <stop
         id="stop2044"
         style="stop-color:#C3CDD5"
         offset="0.1966" />
      <stop
         id="stop2046"
         style="stop-color:#C3CDD5"
         offset="0.7416" />
      <stop
         id="stop2048"
         style="stop-color:#A1A9B2"
         offset="1" />
      <a:midPointStop
         style="stop-color:#ACB5BE"
         offset="0.0056" />
      <a:midPointStop
         style="stop-color:#ACB5BE"
         offset="0.5" />
      <a:midPointStop
         style="stop-color:#C3CDD5"
         offset="0.1966" />
      <a:midPointStop
         style="stop-color:#C3CDD5"
         offset="0.5" />
      <a:midPointStop
         style="stop-color:#C3CDD5"
         offset="0.7416" />
      <a:midPointStop
         style="stop-color:#C3CDD5"
         offset="0.5" />
      <a:midPointStop
         style="stop-color:#A1A9B2"
         offset="1" />
    </linearGradient>
    <linearGradient
       inkscape:collect="always"
       xlink:href="#XMLID_364_"
       id="linearGradient27438"
       gradientUnits="userSpaceOnUse"
       gradientTransform="matrix(1.015278,0,0,1.015466,-1073.384,-162.0741)"
       x1="1079.5879"
       y1="172.4487"
       x2="1068.4175"
       y2="190.5343" />
    <linearGradient
       y2="179.3166"
       x2="1099.2616"
       y1="182.9917"
       x1="1097.1758"
       gradientUnits="userSpaceOnUse"
       id="XMLID_363_"
       gradientTransform="matrix(1.015278,0,0,1.015466,-1073.384,-162.0741)">
      <stop
         id="stop2033"
         style="stop-color:#BEC6CA"
         offset="0.0056" />
      <stop
         id="stop2035"
         style="stop-color:#899099"
         offset="0.8933" />
      <a:midPointStop
         style="stop-color:#BEC6CA"
         offset="0.0056" />
      <a:midPointStop
         style="stop-color:#BEC6CA"
         offset="0.5" />
      <a:midPointStop
         style="stop-color:#899099"
         offset="0.8933" />
    </linearGradient>
    <linearGradient
       inkscape:collect="always"
       xlink:href="#XMLID_363_"
       id="linearGradient27436"
       gradientUnits="userSpaceOnUse"
       gradientTransform="matrix(1.015278,0,0,1.015466,-1073.384,-162.0741)"
       x1="1097.1758"
       y1="182.9917"
       x2="1099.2616"
       y2="179.3166" />
    <linearGradient
       inkscape:collect="always"
       xlink:href="#XMLID_364_"
       id="linearGradient22418"
       gradientUnits="userSpaceOnUse"
       gradientTransform="matrix(1.015278,0,0,1.3678002,-1103.2647,-230.41267)"
       x1="1107.3073"
       y1="176.4187"
       x2="1095.3629"
       y2="189.59431" />
  </defs>
  <sodipodi:namedview
     id="base"
     pagecolor="#ffffff"
     bordercolor="#666666"
     borderopacity="1.0"
     inkscape:pageopacity="0.0"
     inkscape:pageshadow="2"
     inkscape:zoom="14"
     inkscape:cx="14.5"
     inkscape:cy="18.770102"
     inkscape:current-layer="layer1"
     showgrid="true"
     inkscape:grid-bbox="false"
     inkscape:document-units="px"
     inkscape:window-width="1041"
     inkscape:window-height="938"
     inkscape:window-x="601"
     inkscape:window-y="28" />
  <metadata
     id="metadata2165">
    <rdf:RDF>
      <cc:Work
         rdf:about="">
        <dc:format>image/svg+xml</dc:format>
        <dc:type
           rdf:resource="http://purl.org/dc/dcmitype/StillImage" />
      </cc:Work>
    </rdf:RDF>
  </metadata>
  <g
     id="layer1"
     inkscape:label="Layer 1"
     inkscape:groupmode="layer">
    <path
       style="fill:none;fill-rule:evenodd;stroke:#eeeeec;stroke-width:3;stroke-linecap:round;stroke-linejoin:miter;stroke-miterlimit:4;stroke-dasharray:none;stroke-opacity:0.50196078"
       d="M 11.084298,12.5 C 20.764211,17.405512 26.058418,28.98949 36.5,34.541839"
       id="path21655"
       sodipodi:nodetypes="cc" />
    <path
       style="fill:url(#linearGradient22124);fill-rule:nonzero;stroke:none;stroke-width:1;stroke-linecap:butt;stroke-linejoin:miter;stroke-opacity:1;fill-opacity:1;opacity:1;color:#000000;marker:none;marker-start:none;marker-mid:none;marker-end:none;stroke-miterlimit:4;stroke-dasharray:none;stroke-dashoffset:0;visibility:visible;display:inline;overflow:visible;enable-background:accumulate"
       d="M 5.2857143,20.928571 C 10.691185,15.596231 19.655315,16.88887 26.857143,12.428571 C 29.960475,15.001942 36.058685,22.036418 41.214286,25.642858 C 33.493102,30.874054 25.629885,29.748933 19.928571,35.5 C 15.908117,31.469801 10.336191,24.259997 5.2857143,20.928571 z "
       id="path21615"
       sodipodi:nodetypes="ccccc" />
    <path
       style="fill:#eeeeec;fill-opacity:0.50196078;fill-rule:evenodd;stroke:none;stroke-width:3;stroke-linecap:round;stroke-linejoin:miter;stroke-miterlimit:4;stroke-dasharray:none;stroke-opacity:1"
       d="M 20.21964,6.8101682 C 19.524188,6.848558 18.961118,7.3964882 18.880176,8.1226682 C 18.799233,8.8488482 19.223996,9.5417434 19.892215,9.7476682 C 21.379652,10.262325 22.831217,11.091201 24.297562,12.153919 C 21.638669,13.44057 18.761015,13.922379 15.635697,14.622669 C 12.356428,15.357454 8.8354141,16.384421 5.4557743,18.903919 C 4.4884118,18.234116 3.487232,17.601186 2.4196568,17.060169 C 2.1632553,16.920891 1.8726833,16.866416 1.5862129,16.903919 C 0.95881548,16.993243 0.46208627,17.496939 0.36581273,18.153919 C 0.2695388,18.810898 0.59668005,19.46449 1.1694909,19.747669 C 1.8537874,20.094451 2.516137,20.486145 3.1638033,20.903919 C 2.195236,21.866913 1.2253039,22.9781 0.30628101,24.278919 C -0.1704567,24.952016 -0.037190432,25.903411 0.60393959,26.403919 C 1.2450695,26.904427 2.1512803,26.764516 2.6280178,26.091419 C 3.5939436,24.724212 4.5603818,23.594617 5.5450719,22.653919 C 8.2138788,24.806747 10.667505,27.449052 13.194897,30.216419 C 14.776374,31.948057 16.400902,33.715734 18.136029,35.403919 C 17.331308,36.368695 16.62007,37.490186 16.022654,38.778919 C 15.749219,39.264846 15.763925,39.865186 16.052419,40.341419 C 16.340914,40.817651 16.856761,41.082865 17.391883,41.028919 C 17.927006,40.974973 18.385614,40.616586 18.582517,40.091419 C 19.069587,39.040725 19.656232,38.158175 20.308937,37.372669 C 22.203065,39.015154 24.240879,40.545842 26.559767,41.778919 C 27.016097,42.076799 27.588094,42.070573 28.04806,41.778919 C 28.508026,41.487265 28.771403,40.966591 28.732675,40.403919 C 28.693947,39.841247 28.364592,39.341865 27.869465,39.122669 C 25.898073,38.074374 24.110217,36.775641 22.422313,35.341419 C 24.590686,33.742066 27.29225,32.77123 30.369797,31.747669 C 33.807095,30.604458 37.659093,29.455896 41.383164,27.310169 C 42.795392,28.274078 44.272065,29.134662 45.848043,29.841419 C 46.326835,30.119211 46.91884,30.078353 47.366102,29.747669 C 47.813362,29.416985 48.049221,28.845791 47.961419,28.278919 C 47.873615,27.712047 47.473397,27.256286 46.94938,27.091419 C 45.96813,26.651372 45.020009,26.105929 44.091857,25.528919 C 45.193938,24.711316 46.265359,23.790652 47.30657,22.716419 C 47.769093,22.273209 47.900307,21.561446 47.633994,20.966419 C 47.367683,20.371392 46.765903,20.031761 46.145701,20.122669 C 45.829127,20.166632 45.535702,20.320659 45.312257,20.560169 C 44.085176,21.826166 42.805289,22.858918 41.472462,23.747669 C 38.761278,21.672174 36.235374,19.167141 33.733339,16.685169 C 32.251568,15.215279 30.795833,13.754138 29.298226,12.403919 C 29.845337,11.936148 30.378413,11.417112 30.905582,10.841419 C 31.329436,10.400576 31.448631,9.7248692 31.203241,9.1539182 C 30.957852,8.5829671 30.399541,8.2369722 29.804246,8.2789182 C 29.441517,8.3023186 29.100911,8.4699387 28.851738,8.7476682 C 28.240301,9.4153864 27.615444,9.9659662 26.976489,10.466419 C 25.029383,8.9415935 22.999079,7.6699286 20.785191,6.9039182 C 20.604629,6.8329298 20.412251,6.8010397 20.21964,6.8101682 z M 26.797894,14.185169 C 28.423277,15.598238 30.073523,17.190993 31.768792,18.872669 C 33.963691,21.049968 36.263566,23.285832 38.763769,25.310169 C 35.736983,26.856803 32.582775,27.84956 29.506587,28.872669 C 26.187571,29.97654 22.930028,31.204694 20.249405,33.372669 C 18.527109,31.716203 16.885344,29.945917 15.248741,28.153919 C 12.904449,25.587036 10.542228,23.006666 7.8965746,20.778919 C 10.569651,18.975395 13.327607,18.210734 16.231015,17.560169 C 19.669589,16.789688 23.342425,16.215105 26.797894,14.185169 z "
       id="path21585" />
    <path
       style="fill:none;fill-rule:evenodd;stroke:#cc0000;stroke-width:0.89252037px;stroke-linecap:round;stroke-linejoin:miter;stroke-opacity:1"
       d="M 1.6955105,18.511901 C 11.375424,23.417413 16.669631,35.001391 27.111213,40.55374"
       id="path20608"
       sodipodi:nodetypes="cc" />
    <path
       style="fill:none;fill-rule:evenodd;stroke:#cc0000;stroke-width:0.82789373px;stroke-linecap:round;stroke-linejoin:miter;stroke-opacity:1"
       d="M 20.228568,8.4139465 C 29.049012,11.465841 35.822179,23.880318 46.297154,28.577885"
       id="path20610"
       sodipodi:nodetypes="cc" />
    <path
       style="fill:none;fill-rule:evenodd;stroke:#cc0000;stroke-width:0.89252037px;stroke-linecap:round;stroke-linejoin:miter;stroke-opacity:1"
       d="M 46.210197,21.739065 C 36.165897,32.101917 22.269776,28.589412 17.20221,39.521046"
       id="path20612"
       sodipodi:nodetypes="cc" />
    <path
       style="fill:none;fill-rule:evenodd;stroke:#cc0000;stroke-width:0.82789373px;stroke-linecap:round;stroke-linejoin:miter;stroke-opacity:1"
       d="M 29.772639,9.8984435 C 21.421428,19.018358 10.432642,12.45726 1.3690684,25.286178"
       id="path20614"
       sodipodi:nodetypes="cc" />
    <path
       style="fill:none;fill-rule:evenodd;stroke:#cc0000;stroke-width:0.89252037px;stroke-linecap:round;stroke-linejoin:miter;stroke-opacity:1"
       d="M 11.006435,12.511901 C 20.686348,17.417413 25.980555,29.001391 36.422137,34.55374"
       id="path21651"
       sodipodi:nodetypes="cc" />
    <path
       style="opacity:1;color:#000000;fill:none;fill-opacity:1;fill-rule:nonzero;stroke:#000000;stroke-width:0.5;stroke-linecap:butt;stroke-linejoin:miter;marker:none;marker-start:none;marker-mid:none;marker-end:none;stroke-miterlimit:4;stroke-dasharray:none;stroke-dashoffset:0;stroke-opacity:1;visibility:visible;display:inline;overflow:visible;enable-background:accumulate"
       d="M 5.375,20.982142 C 10.994756,15.221231 19.7446,17.01387 26.946428,12.553571 C 29.835474,14.912656 36.576541,22.089989 41.232142,25.696429 C 34.510958,30.141911 25.71917,29.802504 20.017856,35.553571 C 16.140259,31.809087 8.455515,22.455924 5.375,20.982142 z "
       id="path22420"
       sodipodi:nodetypes="ccccc" />
  </g>
</svg>
