<?xml version="1.0" encoding="UTF-8" standalone="no"?>
<svg
   xmlns:dc="http://purl.org/dc/elements/1.1/"
   xmlns:cc="http://creativecommons.org/ns#"
   xmlns:rdf="http://www.w3.org/1999/02/22-rdf-syntax-ns#"
   xmlns:svg="http://www.w3.org/2000/svg"
   xmlns="http://www.w3.org/2000/svg"
   xmlns:sodipodi="http://sodipodi.sourceforge.net/DTD/sodipodi-0.dtd"
   xmlns:inkscape="http://www.inkscape.org/namespaces/inkscape"
   inkscape:version="1.0 (4035a4fb49, 2020-05-01)"
   sodipodi:docname="testgeometry_templatebody.svg"
   width="48.0px"
   height="48.0px"
   viewBox="0 0 48.0 48.0"
   version="1.1"
   id="SVGRoot">
  <defs
     id="defs95887" />
  <sodipodi:namedview
     inkscape:snap-global="false"
     inkscape:window-maximized="1"
     inkscape:window-y="-8"
     inkscape:window-x="-8"
     inkscape:window-height="1557"
     inkscape:window-width="2880"
     showgrid="true"
     inkscape:document-rotation="0"
     inkscape:current-layer="layer1"
     inkscape:document-units="px"
     inkscape:cy="26.864637"
     inkscape:cx="31.429238"
     inkscape:zoom="22.627417"
     inkscape:pageshadow="2"
     inkscape:pageopacity="0.0"
     borderopacity="1.0"
     bordercolor="#666666"
     pagecolor="#ffffff"
     id="base">
    <inkscape:grid
       type="xygrid"
       id="grid96457" />
  </sodipodi:namedview>
  <metadata
     id="metadata95890">
    <rdf:RDF>
      <cc:Work
         rdf:about="">
        <dc:format>image/svg+xml</dc:format>
        <dc:type
           rdf:resource="http://purl.org/dc/dcmitype/StillImage" />
        <dc:title></dc:title>
      </cc:Work>
    </rdf:RDF>
  </metadata>
  <g
     id="layer1"
     inkscape:groupmode="layer"
     inkscape:label="Layer 1">
    <path
       d="m 25.402657,0.59438796 c -2.242853,0.021563 -3.109361,2.73246044 -2.820193,4.50599544 1.116749,0.4017579 -1.074585,0.7515025 0.07498,1.8148378 0.974384,2.1439093 -2.995162,1.3873801 -3.855013,2.9935451 -1.129193,1.7767297 -1.512003,4.0893977 -3.385741,5.3468967 -1.274666,1.479618 -2.14652,3.270347 -3.308806,4.844805 -0.718865,1.785563 -2.2298534,3.510479 -2.5907756,5.255976 0.9690436,-0.190353 2.5827086,-3.273572 2.1873196,-0.594344 0.763443,1.358348 1.03428,-1.846674 1.268383,-2.501561 0.167433,-2.109981 2.345217,-2.944201 3.866296,-4.081197 1.283527,-0.957494 2.346561,-2.891721 3.220669,-3.773122 0.263963,1.256879 1.441598,2.210122 1.260948,3.537756 0.0019,0.979766 1.262097,2.744567 -0.347649,2.002828 0.07722,1.62694 -0.382688,2.544945 -0.402272,4.072158 -0.265416,1.434009 -0.906651,2.928854 -0.384148,4.485943 0.693686,1.561571 0.73062,2.875957 0.459659,4.365296 0.344117,1.436479 -0.526297,3.150702 -0.0711,4.992744 0.541327,2.426702 -2.64807,3.281968 -2.641163,5.410012 0.03621,1.468476 1.685144,2.364467 2.259916,0.609462 0.553716,-1.851573 2.86872,-3.157262 2.047362,-5.20136 0.344604,-1.947572 1.380372,-3.733275 1.307811,-5.74497 0.455376,-1.892736 1.139263,-3.728927 1.468852,-5.665693 1.684865,-0.373374 0.652881,2.906895 1.777597,3.868093 0.246612,1.759639 1.714609,3.536808 1.624694,5.107926 0.626906,2.083285 0.516581,4.258426 0.512995,6.408782 -0.143316,1.60924 -1.333336,3.058824 -0.995978,4.679015 1.072034,0.469839 2.927473,-0.408166 3.136685,-1.760203 0.1643,-2.105927 -0.98655,-4.168326 -0.451077,-6.266147 0.52622,-2.155224 0.877108,-4.490689 -0.202549,-6.5475 -0.15468,-2.216108 0.500564,-4.502483 0.207432,-6.775006 0.05422,-2.11018 -0.814405,-4.088192 -0.915519,-6.185935 -0.118111,-1.038463 0.932878,-4.897686 1.726927,-2.448429 0.985208,1.717852 1.994475,3.468815 3.221033,4.985432 1.357163,1.315524 2.760945,3.104131 2.867774,5.043223 -0.173431,1.035421 -1.250912,3.29176 -0.132754,3.65459 0.39161,-0.767699 0.574371,-2.651423 1.37685,-0.91813 0.305292,1.011844 1.37827,3.370067 2.043205,1.84903 -0.08396,-1.598764 -0.885425,-3.114025 -1.345166,-4.6708 C 38.859571,24.871267 37.576272,22.69415 36.6141,20.41711 35.680522,18.455516 34.346924,16.655961 33.753682,14.524937 33.364134,12.340865 31.651399,10.847524 29.956328,9.6025583 28.095658,9.0919981 26.516523,7.5855814 28.348707,5.8565413 28.943151,3.7829078 28.451775,0.75442436 25.78115,0.61600846 l -0.378496,-0.021618 z M 23.014748,8.2049281 c 0.738273,0.8450993 0.569294,1.5715312 0.05231,0.1760554 z m -3.462879,5.3980069 c 1.220264,0.705114 -0.500805,0.608093 0,0 z m 2.462788,11.059582 c 0.350098,0.865046 2.468424,2.462723 2.247383,2.394769 -1.105188,-0.387566 -1.916369,-1.27893 -2.247383,-2.394769 z"
       style="color:#000000;overflow:visible;fill:#babdb6;stroke:#000000;stroke-width:1.00157;stroke-miterlimit:4;stroke-dasharray:none;stop-color:#000000"
       id="rect96516" />
    <path
       d="m 28.358717,47.42556 c -0.483088,-1.946419 1.342351,-3.522111 1.182644,-5.491942 0.531454,-1.803838 0.372983,-3.658518 0.111253,-5.490777 0.05264,-1.408037 -1.692613,-2.515323 0.07547,-3.510086 0.440584,-1.736351 -1.538868,-2.773349 -1.573421,-4.442648 0.605727,-1.602776 -0.01638,-3.20951 -0.147968,-4.709409 -2.250597,-0.970795 1.217377,-2.773497 0.71226,-4.40388 1.435806,-1.158729 0.867058,2.40511 1.369233,3.282254 0.706141,2.307701 0.475579,4.751568 0.460278,7.134742 -0.951998,2.107979 0.352961,3.904386 0.550479,5.979059 0.04658,2.20974 -1.253558,4.411806 -0.381572,6.583011 0.03514,0.947712 0.491376,3.175667 -0.117919,1.039436 0.247431,-1.723119 -1.349845,-1.331009 -1.131036,0.202236 -0.03653,1.169074 -1.803153,2.992298 -0.747829,3.68921 0.167831,-1.293557 0.286118,0.477772 -0.361871,0.138794 z m 0.731702,-0.123663 c -0.01585,-0.326014 0.28758,-1.815205 -0.256013,-0.827883 0.781544,-1.931645 0.12483,1.120869 0.558248,0.826938 -0.06726,0.08803 -0.247853,0.134346 -0.302235,9.48e-4 z m 0.330073,-0.378734 c -0.154216,-0.93183 0.194947,0.525792 0,0 z m 0.201647,0.103229 c 0.0034,-0.843425 -0.0344,-1.053076 0,0 z M 29.939502,46.6569 c 0.12607,-1.113778 0.523408,0.923347 0.119509,-0.228623 -0.07108,0.07534 -0.11291,0.722171 -0.119509,0.228623 z m 0.412164,-0.156337 c 0.199749,-1.055902 0.575721,0.495424 0.06869,-0.143309 0.244288,-0.0097 -0.246773,0.571271 -0.06869,0.143309 z m 0.491911,-0.416901 c 0.160407,-0.59157 0.27837,-0.446884 0,0 z m 0.220464,-0.911969 c 0.04115,-0.615947 0.03211,0.683272 0,0 z m -11.99972,-0.352051 c -0.233501,-0.642132 0.960649,-2.046999 -0.114367,-0.756825 -0.479076,0.868077 -0.732156,-0.980721 -0.666757,-1.221787 -0.0449,-0.372434 0.01235,-0.42175 0.290426,0.288681 0.822339,-1.55814 2.17545,-2.815288 2.818677,-4.498143 0.20767,-0.803867 1.286257,-3.045079 0.954865,-0.955674 -0.241581,1.56165 0.446353,3.016667 -1.081623,4.123037 -0.593538,0.921224 -1.02228,2.913708 -2.201221,3.020711 z m 0.404722,-0.0648 c 0.839542,-1.13651 2.007523,-3.079849 1.338561,-4.342895 -0.869315,1.065805 -2.018433,2.707881 -2.121949,3.930843 0.301676,-0.908574 1.621446,-1.85333 0.677707,-0.301183 -0.300021,0.09949 -0.471726,1.062357 0.105681,0.713235 z m -0.841132,-1.13379 c 0.367586,-0.833823 -0.456984,0.0082 0,0 z m 4.24099,-8.463331 c -0.04877,-1.150159 0.921758,-1.757965 0.377255,-0.168608 -0.01613,0.155466 -0.256133,0.308901 -0.377255,0.168608 z m 17.109592,-3.105363 c -0.41602,-0.914547 -1.411435,-4.353535 -2.233216,-2.110709 -0.698231,2.462175 -0.263211,-1.130955 0.12156,-1.922546 0.76176,-1.824162 -0.967297,-3.468832 -1.498338,-5.1354 -0.37327,-2.193067 -2.54904,-2.997864 -3.489895,-4.809599 -0.759137,-0.979855 -0.790315,-3.240595 -2.265574,-3.237497 -0.986046,1.108767 -2.976272,3.758398 -4.116631,1.269435 -0.19956,-1.320736 -0.822904,-3.252203 -2.513153,-2.342245 -1.551602,-0.39952 -1.22841,-3.665004 -3.185424,-2.126529 -1.783064,-0.374508 -1.697286,-2.6570246 0.249972,-2.6787077 0.859849,-0.8228346 2.919904,-0.6711253 1.660216,0.689259 -0.189159,1.5034417 2.382335,2.6510297 3.310401,1.9432377 -0.323135,-1.120477 0.568258,-2.4771388 1.432635,-3.2780079 0.596659,0.8006902 2.861636,1.4020292 0.73562,0.647911 -1.490186,-0.4292023 -0.778839,2.7147539 -2.027708,3.3318179 0.881899,1.022226 1.973116,2.91896 3.122782,1.16486 1.403864,-0.9997 3.199109,1.064016 4.098194,1.197759 0.224443,-0.843616 -0.92147,-3.098051 -0.05877,-1.211926 0.327695,1.495628 1.662562,4.13578 1.915828,4.74695 -0.464815,-0.698818 -1.447521,-3.789994 -1.662831,-1.362324 -0.226208,2.222019 2.327976,3.160292 2.935222,5.112615 0.423892,1.864671 1.929032,3.616762 1.915569,5.454257 -0.761337,1.509628 1.495303,2.486009 1.448167,4.126087 0.204605,0.602886 0.55981,1.370605 0.274069,0.199764 0.267369,0.426515 0.181624,1.197571 -0.168745,0.331536 z M 24.654016,12.608824 c 0.917974,-1.675849 -2.206136,0.01246 0,0 z m 16.023008,19.576172 c -0.27872,-0.758599 -1.312747,-3.180312 -0.701014,-1.030223 0.244476,0.855065 -0.84451,-1.706872 -0.127864,-2.200006 -0.691238,-2.696344 -1.739959,-5.302911 -3.072155,-7.742999 0.934089,1.407609 1.604191,3.290847 2.296374,4.943332 0.323976,1.593567 1.52818,3.936709 1.511293,5.06446 0.111217,-0.828652 -1.180699,-2.669325 -0.50456,-0.78909 0.406231,0.736154 0.565406,1.70738 0.627814,1.348289 0.06857,-0.351485 0.186267,0.821992 -0.02989,0.406237 z m -16.526809,-3.79445 c -0.762336,-1.445314 1.819965,-0.862505 0.206677,0.131188 z M 12.027463,25.099677 c 0.290805,-0.940919 -0.652355,-4.396539 0.943213,-3.206661 -0.237714,0.974753 -0.323229,2.631233 -0.943213,3.206661 z m 0.639661,-2.281033 c 0.0095,-2.99236 -0.980239,2.024547 0,0 z m -2.312772,1.477005 c 0.133679,-0.779452 0.828238,-0.194356 0,0 z m 13.721461,-1.096273 c -0.349886,-0.779399 0.572802,0.01808 0,0 z m 12.505721,-2.525792 c -0.283082,-1.082186 0.371774,0.982531 0,0 z M 36.274978,19.84434 c -0.261949,-0.62843 0.340784,0.592687 0,0 z M 35.87544,19.219644 c -0.507313,-0.830377 0.626887,0.837639 0,0 z m -3.294234,-7.074278 c -0.670501,-0.896002 -2.668619,-2.3263747 -2.909685,-2.5435077 1.126205,0.6755127 2.533214,1.9835627 2.909685,2.5435077 z M 24.557168,9.1026773 c -1.816365,-0.3966382 0.38028,-0.5530935 0.685654,-0.060937 l -0.296216,0.063661 -0.389433,-0.00273 z m 0.480247,-0.093732 c 0.328767,-0.292971 -1.742578,-0.077221 -0.194693,0.046238 z M 24.613661,8.5546045 c -0.801204,-1.3687882 2.710915,-0.075137 0.410788,0.023462 l -0.410777,-0.023462 z m 0.255021,-0.4640643 c -0.643018,-0.2914542 -0.03833,0.30995 0,0 z M 24.035774,7.7767924 C 23.558716,6.191715 25.739811,5.8655189 25.556159,7.4473852 24.950078,7.0168673 24.798156,8.2969707 24.035774,7.7767924 Z m 0.443589,-0.1214655 c 0.51638,-1.4310375 -0.610369,-0.9968748 -0.243921,0.1252213 l 0.10664,-0.018834 0.13725,-0.1063877 z m 0.568141,-1.0161596 c -0.0503,-0.6677761 -0.496979,0.2298523 0,0 z m 1.451161,0.2680903 C 25.514479,6.2369644 27.85774,6.4098648 26.486933,5.8282234 25.168265,5.875903 24.277612,4.8732881 23.959385,3.6468311 c -1.334378,-1.466568 1.46428,-3.34341612 1.477362,-2.74933694 -2.31176,1.36100714 0.403402,5.36000174 2.119276,2.53575944 1.698313,-0.636616 -1.19982,-3.0917398 0.45787,-1.4683507 0.631203,1.511664 0.614916,2.9930845 -0.356014,4.0702592 -0.19396,0.5430661 -0.451814,1.1458325 -1.159214,0.8720955 z m -0.07242,-1.6300719 c -0.342685,-0.6065138 -0.792409,0.3409891 0,0 z m 1.841661,-0.1149006 c -0.0246,-0.8143508 -0.457588,0.6916473 0,0 z m -0.577851,1.391359 c 0.379724,-1.1228475 0.526397,-0.1537743 0,0 z m 0.586527,-0.9352669 c -0.08043,-0.4488497 0.313679,0.1751097 0,0 z M 26.919467,1.156883 c -0.737535,-0.45396824 1.124836,0.5187872 0,0 z"
       style="fill:#969696;stroke-width:1"
       id="path96492" />
    <path
       d="m 28.236924,47.404702 c -0.318507,-2.12895 1.458109,-3.914201 1.22095,-6.089337 0.132324,-2.115726 0.253299,-4.477215 -0.595397,-6.409011 -0.908355,-1.174309 0.957166,-2.347272 -0.494627,-3.654901 -1.13152,-1.541097 -0.954374,-3.457203 -1.035886,-5.209711 -1.617625,-0.186267 -2.985672,-1.568362 -3.947944,-2.855615 -0.13452,-1.947629 1.868409,1.292052 1.776561,-1.044167 0.533678,-0.651781 2.982008,-1.081481 1.016258,-1.944893 -1.290383,-0.761696 -4.099152,-0.658272 -3.068326,-2.903859 -1.997619,-1.33947 -1.664066,-4.073962 -3.592575,-5.513389 -0.86266,-0.830622 -0.67532,-2.2338701 0.607285,-2.4738074 -2.001824,1.0077414 0.894467,3.1559804 2.060103,1.9536624 0.505241,1.470089 1.446907,3.073168 3.187152,2.346297 1.122475,1.12321 1.190079,4.939938 3.634701,3.061463 0.620046,-1.101316 2.12699,-2.982846 2.886364,-0.828797 0.641875,1.69415 1.3939,3.532272 3.048212,4.465629 1.2746,1.526664 1.741342,3.574846 2.71929,5.300917 1.033667,1.599899 -0.299975,3.298326 -0.32809,4.960876 -0.258625,1.156744 0.111581,-2.02038 0.382223,-2.519568 0.753017,-2.059131 -1.242345,-3.758699 -1.802946,-5.618326 -0.734375,-1.964707 -2.936453,-2.815133 -3.63334,-4.842019 -0.124511,-1.933958 -2.616675,-2.597924 -2.53361,-0.74233 1.956408,-1.635202 -0.633035,2.502427 -0.136694,2.63976 -1.139451,-1.520866 -0.949136,2.028572 -1.967272,2.526891 -1.459109,1.334068 1.108163,1.528596 0.447292,2.994939 1.011341,1.769546 -0.767724,3.947682 0.941194,5.556741 0.625473,0.770038 1.124175,1.995743 0.37649,2.840864 -1.46652,0.976081 0.99652,2.529369 0.334175,4.022925 0.504397,2.002788 -0.159242,3.986642 -0.417781,5.96456 -0.323851,1.273671 -1.402463,3.028678 -1.083762,4.014206 z M 24.24566,23.079279 c -0.333715,-0.801327 -0.285758,0.642364 0,0 z m 2.53305,-4.355391 c 0.933011,0.02394 2.996871,-1.403378 0.969235,-0.753508 -1.667111,0.387951 -2.903168,-3.529249 -3.554204,-0.511661 0.387461,0.963923 1.606751,1.463925 2.584969,1.265169 z m 2.324339,28.667448 c 0.482545,-0.274 0.339729,0.129705 0,0 z m -0.07722,-0.269765 c 0.103443,-0.942152 0.04284,0.59505 0,0 z m -0.161943,-0.114269 c 0.06952,-0.591341 0.02428,0.630003 0,0 z m 0.594547,-0.07076 c 0.219393,-0.613843 0.134201,0.50984 -4.2e-5,10e-7 z m 0.541703,-0.317345 c 0.178287,-0.615126 0.0953,0.596141 0,0 z m -0.347861,-0.05349 c -0.429337,-0.153765 0.187777,-0.06654 0,0 z m 0.74085,0.02179 c -0.02676,-0.891039 0.481993,0.327338 4.7e-5,-5e-6 z m -1.474783,-0.209089 c 0.228467,-0.585235 0.449407,-0.104211 0,0 z m -9.934381,-1.588633 c -0.611865,-0.629592 1.067713,-1.837473 0.254899,-0.793249 -0.435776,0.06666 -0.104198,1.032142 -0.254899,0.793249 z M 18.41779,43.970687 c -0.422219,-1.406182 0.336494,0.322315 0,0 z m -0.194699,-0.690678 c -0.249389,-0.564461 0.282638,0.217261 0,0 z m 0.249307,-0.283102 c -0.289048,-1.522417 2.060931,-1.873777 2.313464,-3.519735 1.046133,-1.556893 -0.531257,-4.250639 1.442242,-5.030807 1.048392,-0.839626 -1.885903,-2.196511 0.330169,-1.928247 0.995876,-0.682187 0.736458,-2.642755 -0.571057,-3.203557 -1.747203,-1.475993 0.129011,-4.102231 1.761452,-2.036065 1.515605,0.185653 0.641546,-0.128182 0.210185,0.747585 0.648398,1.673634 1.218541,-2.003881 0.877779,0.205254 -0.542203,1.768393 -1.023972,3.516441 -1.460801,5.299767 0.20941,0.831561 -0.245751,0.06403 -0.567636,1.324863 0.135306,1.040878 0.884433,-1.034374 0.427685,0.445323 -0.319944,0.793366 -0.865504,2.654317 -0.986652,2.831748 0.578466,-1.089973 -0.146821,-2.115873 -0.467949,-0.47282 -0.581882,1.765548 -1.664793,3.326456 -2.855912,4.735104 -0.163535,0.06672 -0.183789,0.923425 -0.452969,0.601587 z m 2.668608,-0.950822 c 0.44009,-0.768999 -0.343275,0.812427 0,0 z m 0.348128,-0.69559 c 1.070128,-1.175747 1.274404,-1.134082 0,0 z m 8.900383,-0.686536 c 0.03616,-0.69547 0.03616,0.695472 0,0 z m -7.94687,-0.677465 c 0.03972,-0.418201 0.03972,0.418202 0,0 z m -0.260645,-1.32887 c 0.04951,-0.340234 0.03202,0.404947 0,0 z m 8.935885,-2.814077 c 0.03941,-0.889397 0.03093,0.966883 0,0 z m -0.855328,-3.227076 c -0.3474,-0.95048 0.536399,-2.9295 -0.0032,-0.826661 -0.243906,0.0022 0.267009,1.455714 0.0032,0.826661 z m 9.777422,-0.309494 c -0.393272,-1.163366 -1.547041,-3.672681 -2.13175,-2.948159 1.152035,-1.316251 1.93937,3.134404 2.13175,2.948159 z m 0.549864,-0.150393 c -0.286068,-0.880017 -0.670466,-1.569448 -0.73031,-1.431675 -0.582576,-2.110954 1.076484,1.98656 0.73031,1.431675 z m -9.995259,-2.670768 c 0.04562,-0.432207 0.03284,0.497579 0,0 z m 0.0016,-1.016195 c 0.03716,-0.602967 0.03716,0.602968 0,0 z m 0.0047,-2.65774 c 0.02536,-1.476848 0.0221,1.510366 0,0 z M 9.7890646,25.095334 c 0.8118924,-1.767587 2.0776504,-3.289566 2.8334304,-5.097131 1.399776,-1.264202 1.9807,-2.856621 2.84112,-4.418397 0.72546,-0.915774 1.32391,-0.786172 0.617964,0.294739 -0.468917,1.084175 0.537269,1.94612 -0.948033,2.362489 -1.397941,1.10893 -2.274064,2.809863 -2.161157,3.926969 -0.05428,-1.342839 -1.662364,-0.07535 -0.896634,1.050649 0.104169,0.731588 -0.08836,3.056283 -0.0745,1.028499 0.288205,-1.265303 -0.414962,-1.792887 -0.958386,-0.454887 -0.216219,0.213713 -1.1255134,1.774268 -1.2538014,1.30707 z m 0.8233254,-0.90294 c 0.467961,-0.955999 -0.7623624,0.542074 0,0 z m 1.854537,-0.282621 c 0.556222,-1.469278 0.108668,0.04753 0,0 z m 17.443869,-1.855111 c -0.223013,-0.751431 0.268703,0.561773 0,0 z M 25.157103,11.88018 c -1.065542,-0.360529 -3.493933,-1.368753 -2.016485,-2.8237173 0.425484,-0.5416582 -0.417186,2.3818003 0.907795,2.0705283 -0.329596,-1.7842185 1.987848,2.006796 1.421563,-0.157467 -0.165793,-0.65357 0.25595,-1.2986827 0.819226,-1.6457876 C 27.103844,8.7070591 27.26897,7.6996058 26.216892,8.7821009 25.266211,8.7359729 23.768455,8.7285529 24.240963,7.968626 23.216481,7.537144 24.878392,5.8082905 24.676008,6.3159606 23.402541,6.6739436 24.349594,8.9323174 25.069695,7.3214492 26.608808,7.9133968 23.97757,5.2650252 25.554244,6.7370925 26.45661,6.9514211 25.587564,6.1176353 26.728077,6.240075 26.074024,5.3358076 23.677683,6.1302645 23.511948,4.751841 c -0.08024,-1.275728 -0.61879,-3.0416992 0.922784,-3.6811317 -1.426787,1.2095612 -0.372421,3.4084421 0.719638,4.4892301 1.332197,0.058215 2.033944,0.6968685 1.224516,1.1167811 0.882307,1.4367206 2.252678,-2.9642177 1.865965,-0.6714486 -1.317808,0.8066034 -0.143353,2.4776553 -1.1787,2.7224085 -1.366227,0.8578269 -0.597691,2.6833016 -1.678298,3.3264886 l -0.23071,-0.173988 z M 25.429008,8.5559516 C 26.901584,7.989736 23.710219,7.473981 24.617992,8.5554849 l 0.406436,0.022582 0.404569,-0.022115 z m -0.53861,-0.6503052 c 0.235212,-0.3189588 -0.421841,0.076303 0,0 z m 3.055626,-1.5661802 c 0.339758,-1.1731801 -0.67875,1.0496405 0,0 z m 0.236087,-0.6039428 c -0.297462,-0.3697497 -0.151059,0.4154539 0,0 z m 0.216247,-0.2084505 c -0.318359,-0.1925674 -0.02801,0.383483 0,0 z m -3.451798,3.665472 c 0.316039,-0.028402 0.002,-0.8255621 0.459592,-0.066238 l -0.165482,0.090911 -0.294105,-0.024673 z m -0.701236,-0.105369 c -1.444093,-0.8497301 0.157692,-0.029722 0.285927,0.037115 l -0.28589,-0.037115 z m -0.01266,-0.3007618 c 0.517956,-0.078376 0.101315,0.079817 0,0 z M 23.748781,6.3276942 c -0.37836,-0.6030261 0.488116,-0.017675 0,0 z m 4.450167,-1.4538664 c 0.04487,-1.9316471 0.633748,-0.1705304 0,0 z"
       style="fill:#878787;stroke-width:1"
       id="path96490" />
    <path
       d="m 28.120014,47.25418 c -0.08265,-0.91253 0.04416,-0.566539 0.03185,0.06534 z m 0.73343,-0.02395 c 0.206775,-0.797508 0.192724,0.134268 0,0 z m 0.74691,-0.61549 c -0.159771,-0.474445 0.126266,0.397911 0,0 z M 28.29879,45.630207 c 1.34301,-2.697982 1.272248,-5.864331 0.83215,-8.776419 0.237043,-1.626547 -1.424801,-2.812645 -0.769546,-4.424523 -0.710824,-1.745141 -1.707891,-3.472673 -1.571713,-5.434933 -1.787696,-0.534951 -3.294576,-1.789312 -3.831838,-3.743453 -0.676073,-1.341471 0.513929,-2.192593 1.575333,-2.38736 -1.290955,-0.894779 -2.504578,-2.03248 -2.29574,-3.721588 -1.531785,-1.194996 -1.269061,-3.823621 -3.176436,-4.569057 -1.003202,0.499476 0.931528,2.217963 -0.588516,2.964901 -0.729713,0.53345 -3.06658,0.175895 -1.884025,1.760731 1.373954,0.851479 -1.576853,1.072865 -1.871567,2.012095 -1.026746,0.49097 -2.369725,3.535374 -1.28348,0.992401 0.491428,-1.863521 3.416955,-2.083144 2.462925,-4.061172 0.251652,-0.387528 1.005173,-1.991154 0.02019,-1.070313 0.524489,-0.650465 0.898672,-0.882797 1.301086,-0.552957 1.814381,-1.063988 0.939621,-3.227734 1.88961,-4.6749487 -0.678191,1.4903467 1.438938,2.6232117 1.981008,3.8416487 -0.140741,2.122034 2.617228,2.958842 1.899871,4.933767 0.699796,1.305147 4.278169,0.775975 3.733628,2.530749 -1.261408,0.08992 -1.550157,1.283015 -2.175347,1.874816 -1.262962,-1.852994 -1.644368,1.064263 -0.01334,1.196954 0.712718,1.024944 1.653965,1.591882 2.798863,1.720196 0.08154,1.752504 -0.09565,3.668616 1.035886,5.209711 1.018072,1.079658 0.319103,2.174089 0.198885,3.139286 1.237853,1.836208 0.891463,4.247236 0.957589,6.377444 -0.127682,1.661983 -0.361366,3.504909 -1.225482,4.862024 z M 24.525469,22.70741 c -0.08756,-0.898789 -0.45963,0.411577 0,0 z m 6.589015,22.490339 c 0.03832,-0.510526 0.03832,0.510527 0,0 z M 19.002666,43.986132 c 0.523034,-0.421185 0.591642,-0.526176 0,0 z m -0.766694,-0.469013 c -0.381286,-1.213532 0.267324,0.358764 0,0 z m 12.570155,-0.455985 c 0.03552,-0.88019 0.03552,0.88019 0,0 z M 18.572531,41.989595 c 1.477521,-1.125604 2.638332,-2.767411 2.420805,-4.73101 -0.24575,-1.368481 0.03092,-2.572572 0.737073,-3.446968 -0.606601,-0.772381 -1.236587,-2.112903 0.348144,-1.840845 0.531943,-2.007969 -2.361749,-3.728886 -1.108516,-5.838692 0.719147,-2.178149 2.212414,1.305042 3.183764,1.14185 -1.055937,-0.269559 -2.876067,-1.71318 -2.880353,0.523854 -0.144455,1.501066 2.122589,1.912095 1.826518,3.292298 0.16259,1.228052 -0.479962,1.579942 -1.510473,1.574597 1.065467,0.608779 1.119085,2.068642 -0.306105,2.395519 -0.142872,1.917889 0.173278,4.158202 -1.306789,5.659529 -0.274126,0.798603 -0.881039,0.812386 -1.404068,1.269868 z m 4.855519,-7.865762 c 0.04951,-0.340234 0.03202,0.404946 0,0 z M 23.3779,33.44637 c 0.04562,-0.432208 0.03283,0.497579 0,0 z m 6.854507,-1.302814 c 0.04309,-0.524039 0.03234,0.590286 0,0 z m -6.278399,-0.91197 c 0.03366,-0.874087 0.502127,-1.506162 0.04957,-0.252374 -0.04455,0.387789 -0.07051,1.196033 -0.04957,0.252374 z m 16.082626,0.05211 c -0.429774,-1.306953 0.313108,-0.0061 0.147415,-0.07168 -0.1526,-0.447517 -0.08693,0.242626 -0.147415,0.07168 z m -2.883626,-0.342994 c -0.122961,-1.77193 1.26865,-3.532341 0.287713,-5.221413 -0.987561,-1.453806 -1.398923,-3.512994 -2.940054,-4.411914 -1.0758,-1.727461 -2.399755,-3.384817 -3.350026,-5.24078 -0.712569,-0.903259 -1.861488,1.009068 -0.497007,0.259539 -0.02286,0.03762 -1.765214,1.11881 -0.706912,-0.163536 1.750713,-1.833488 2.30129,2.294214 3.432307,3.199442 1.709595,1.267439 2.62646,3.100582 3.476838,5.003315 1.477502,1.751661 0.907591,3.819091 0.410853,5.791041 -0.09502,0.02308 0.0013,1.098216 -0.113712,0.784306 z m 2.022894,-0.531987 c -0.441563,-0.907221 -1.389073,-1.895538 -0.178601,-0.489238 0.108947,0.02785 0.459095,1.218927 0.178601,0.489238 z M 30.65009,29.0168 c 0.03238,-0.872493 0.03948,0.795772 0,0 z m -0.04973,-1.589433 c 0.03273,-1.34338 0.03274,1.34338 0,0 z M 9.6800526,25.277226 c 0.130213,-0.766687 0.09722,0.543586 0.6802484,-0.594343 0.675036,-1.948255 1.988467,-1.367867 1.632116,-1.085785 -0.191877,-1.693231 -1.611504,1.983037 -2.3123644,1.680128 z m 2.2786554,-0.846327 c 0.03961,-0.707938 0.03176,0.776287 0,0 z m -2.0271094,0.256017 c 0.2491274,-0.595129 0.4363134,-0.440828 0,0 z m 2.5451164,-0.386298 c 0.03713,-0.602967 0.03713,0.602966 0,0 z m -2.092187,-0.469013 c 0.408481,-0.768929 0.760211,-1.078948 0.194705,-0.159875 l -0.21505,0.238043 z m 0.673786,-1.236265 c 1.043544,-1.747319 1.921583,-3.58259 3.212147,-5.178302 0.1161,-0.748724 2.403145,-3.234813 0.88263,-1.452073 -0.374405,1.813375 -1.801099,2.931901 -2.741851,4.465597 -0.237089,0.845483 -0.791698,1.516253 -1.352926,2.164778 z m 18.813278,-1.265137 c 0.03552,-0.88019 0.03552,0.88019 0,0 z m -0.208248,-1.928165 c 0.03524,-0.788011 0.03524,0.788011 0,0 z m -3.976428,-0.704284 c -1.574928,0.0759 -1.912406,-2.690891 -0.41408,-2.37567 0.504841,1.415168 2.669734,1.86334 3.403392,1.54913 -0.800084,0.718725 -1.936128,1.042912 -2.989312,0.82654 z m 4.27415,-0.728811 c 0.159098,-0.488079 0.279514,-0.323137 0,0 z m 0.363768,-0.833801 c 0.216742,-0.599002 0.33405,-0.439025 0,0 z m -5.326355,-5.677079 c -0.739385,-1.03749 -0.800532,-0.86549 -1.231835,-0.302315 -1.07134,-0.38897 -0.268405,-3.1125471 -0.300571,-0.953694 0.693873,-0.109678 1.941607,0.388554 2.624574,-0.7956001 1.63437,-1.3290443 -2.37756,1.3419521 -1.662325,0.08468 1.116419,-0.013167 -0.423037,-0.5564172 0.812012,-0.2866073 0.397446,-0.5713157 -1.462056,-0.4929653 -0.07197,-0.5328704 0.9331,0.6305683 2.700944,-1.3187514 1.286353,0.4893624 -0.568491,0.4274927 -1.141866,1.0072624 -1.009625,1.7598164 0.386157,0.518192 0.131548,1.072909 -0.446613,0.537228 z m 0.44131,-2.6317958 c -0.23953,-0.4158578 -0.142771,0.2693055 0,0 z m 5.866809,2.0032568 c -0.751005,-0.8314607 0.873133,0.839368 0,0 z M 19.13167,9.8840693 c 0.46204,-0.4435084 0.415718,-0.250235 0,0 z m 4.526639,-1.1028138 c -0.355985,-0.6888442 0.430586,0.4825095 0,0 z m 0.314774,-0.3102526 c -0.691402,-0.5832967 -0.508216,-1.4054018 0.02715,-0.2370623 0.74163,-0.4492464 0.477573,0.100024 -0.02715,0.2370623 z m 3.504626,-0.3513308 c 0.04951,-0.3402345 0.03202,0.4049465 0,0 z M 23.963047,7.8735701 C 23.602628,6.7131109 25.24539,5.2645033 24.119959,6.7964745 23.703429,7.0748629 24.33579,8.3260196 23.963047,7.8735701 Z m 0.785905,0.030383 c -0.01192,-0.3249526 0.514017,0.058479 0,0 z m 2.818782,-0.9177288 c -0.09009,-0.5274823 0.486802,-0.1809609 0,0 z M 23.42011,6.7256615 c -0.197761,-1.2899246 1.310241,-0.4813014 0,0 z M 23.886891,6.290094 c -0.138217,-0.8036054 -0.444631,0.340064 0,0 z m 1.634348,0.4347104 c -0.747057,-0.778768 0.95266,0.6680718 0.11416,-0.593793 2.319276,0.2472078 -0.844964,-0.4452339 -1.585836,-0.3999845 -1.711455,-0.653634 -1.053007,-3.2595021 -0.08802,-4.3943664 -0.735523,0.3851184 -0.611583,2.5135764 -0.453705,3.6541601 0.311613,0.9867618 3.733108,0.5733264 2.837607,1.3489977 -0.965758,-0.1389565 0.166093,0.4545671 -0.548814,0.4956348 l -0.27546,-0.1106466 z m 2.471935,-0.989281 c 0.297469,-0.3697486 0.151053,0.4154549 0,0 z m 0.461997,-0.3604457 c -0.260945,-0.3872918 0.09296,-0.1779214 0,0 z M 27.773335,1.6446883 c -0.618319,-0.6370172 0.677838,0.6125031 0,0 z"
       style="fill:#787878;stroke-width:1"
       id="path96488" />
    <path
       d="m 28.114931,47.336951 c -0.284802,-1.476278 0.256968,0.448714 0,0 z m 0.719491,-0.04134 c 0.642907,-0.273676 -0.275313,0.270104 0,0 z m 0.65502,-0.635634 c 0.09272,-0.44587 0.155143,0.373177 0,0 z m -0.415346,-0.165794 c -0.329118,-0.182217 0.226483,-0.02461 0,0 z m -0.460957,-1.67364 c 0.489966,-1.219017 0.130983,0.01169 0,0 z m 0.311083,-0.795325 c 0.496798,-2.421928 0.506097,-4.947314 -0.0014,-7.365689 0.475367,-1.335718 -1.307034,-2.206814 -0.900744,-3.590997 -0.24395,-1.887328 -1.617228,-3.453974 -1.624239,-5.437539 -0.559472,-1.312309 -3.084991,-0.815059 -3.431053,-2.763691 -0.614913,-1.485275 -1.789434,-2.948909 -0.189134,-4.128105 -0.658398,-1.746652 -0.828355,-3.694038 -1.959676,-5.314581 0.03517,-0.937411 -1.946105,-3.385425 -1.348878,-1.22781 0.68337,1.516101 -1.984489,2.442685 -2.500124,2.904562 1.320353,0.900117 -1.754246,1.611097 -2.302351,2.506197 -1.02973,0.489856 -2.113565,2.819397 -1.000843,0.68998 0.84427,-1.192261 2.562757,-1.86926 3.378163,-2.694738 -1.647934,-0.684135 -0.229289,-2.268436 1.01073,-1.750903 1.71839,-0.648195 0.51352,-2.351243 0.830948,-3.252317 2.0201,0.346799 1.74406,3.170836 3.161193,4.316684 0.321853,1.500848 0.731734,3.076007 2.404901,3.814308 -0.30188,0.532768 -2.322879,0.739886 -1.57359,2.215438 0.475611,2.005732 1.955971,3.543517 3.868629,4.007373 0.04357,1.671966 0.543265,3.371203 1.388082,4.845981 0.493029,1.382896 -0.237957,2.713257 0.97977,3.943678 0.09862,2.142168 0.495149,4.381144 0.171833,6.572996 -0.07867,0.576193 -0.177631,1.156955 -0.362225,1.709173 z m -10.181944,-2.28706 c 1.585131,-1.049004 2.38925,-2.849054 2.110227,-4.733096 -0.127743,-1.141845 -0.138103,-2.481075 0.510018,-3.138721 -0.496283,-0.940707 -0.724594,-1.946478 0.27803,-2.300243 -0.255535,-1.935478 -1.821923,-3.801854 -1.014729,-5.831387 0.971167,-0.390803 0.02839,-3.189572 1.000516,-1.298694 0.535441,1.152219 1.272991,2.336063 2.538679,2.763445 -1.607098,-0.0439 -2.396972,-3.355237 -3.345686,-0.84108 -0.966718,2.125753 2.080659,3.843632 1.109394,5.697945 -2.413293,-0.327183 1.195011,2.252897 -0.918287,2.677696 -0.220958,1.973069 0.489945,4.376123 -1.102108,5.955996 -0.226743,0.4261 -1.10591,0.978659 -1.166054,1.048139 z m 11.698741,-1.048141 c 0.04115,-0.615947 0.03212,0.683272 0,0 z m 9.837559,-8.728852 c -0.167215,-0.675464 -0.208795,-1.189417 0.07776,-0.02936 -0.01996,0.04288 -0.06724,0.321278 -0.07776,0.02936 z m -3.145772,-1.589433 c 0.02986,-0.542311 0.160088,-0.305166 0.0078,0.05588 z m 1.570533,-0.729201 c -1.32382,-1.349393 0.900849,0.852385 -1e-5,-1e-6 z m -1.350017,-0.495443 c 0.0092,-0.934359 0.871113,-2.72914 0.179152,-0.783708 -0.161716,0.302924 -0.220867,1.925934 -0.179152,0.783708 z m -6.708571,-0.755632 c 0.04951,-0.340235 0.03202,0.404945 0,0 z m -5.879907,-1.016198 c -0.742614,-0.126925 0.841799,0.08326 0,0 z m 13.090384,-0.234506 c -0.620368,-1.829385 -1.494789,-3.900271 -3.027401,-5.063054 -1.060581,-1.502951 -2.153388,-3.080301 -3.062451,-4.741845 -0.151351,-1.221021 -1.779982,-1.582498 -1.541365,-0.929658 -0.820737,-0.0761 1.045645,-1.176648 1.179839,0.04425 1.004583,1.84745 2.225802,3.780753 3.60015,5.212639 1.151275,1.270298 1.889657,3.048619 2.652282,4.623421 0.06258,0.100177 0.310679,1.05201 0.198946,0.854242 z M 30.65267,25.785825 c 0.03394,-1.441642 0.03036,1.523251 0,0 z M 9.8901436,25.283605 c 0.6630864,-0.722896 0.01885,0.193723 0,0 z m 2.0195414,-0.170282 c -0.08157,-0.769356 0.157957,0.175731 0,0 z m -1.834125,-0.74885 c 0.296872,-0.675256 -0.08183,0.458374 0,0 z m 0.793712,-0.162011 c 0.543493,-0.956273 1.650581,-1.610117 0.318187,-0.369402 0.02427,0.09798 -0.752851,0.869736 -0.318187,0.369402 z m -0.269484,-0.777925 c 0.641122,-0.860337 -0.484669,0.830606 0,0 z m 13.7324,-0.669925 c -0.21912,-0.687423 0.518307,0.0779 0,0 z m -12.632395,-1.2811 c 0.393763,-0.887176 0.78194,-1.589708 0.213712,-0.277832 -0.03352,0.16168 -0.6754,1.093869 -0.213712,0.277832 z m 0.672559,-1.367955 c 0.481957,-0.879085 -0.139462,0.457208 0,0 z m 0.762709,-1.146475 c 0.628866,-0.839444 -0.50962,0.831853 0,0 z m 0.50144,-0.70352 c 0.500187,-0.653917 1.5288,-2.609999 0.65687,-0.847402 -0.065,0.101675 -1.267118,1.769722 -0.65687,0.847402 z m 16.975825,-1.641545 c -0.0081,-0.447357 0.204577,-0.251827 0,0 z M 15.004133,16.040779 c 0.628866,-0.839443 -0.509619,0.831852 0,0 z m 0.441311,-0.547182 c 0.968576,-0.932435 -0.846545,0.924289 0,0 z m 0.945086,-0.781688 c 1.363093,-0.827506 1.979087,-3.73936 2.289688,-4.103863 0.120988,1.322817 -0.429762,4.022718 -1.790136,3.907634 -0.06488,-0.457224 -0.307722,0.170731 -0.499552,0.196229 z m 8.173891,-4.394741 C 23.712645,10.215921 23.1403,10.179072 23.458589,9.3748311 c 0.04028,1.7142279 3.604228,-0.2489479 1.355141,0.5397382 -1.311963,-0.188943 -0.452971,-0.5019739 -0.139316,-0.7052921 0.887342,0.3536991 -1.486108,0.2745595 0.0035,0.6234491 0.867227,-0.06074 2.784595,-1.7083148 1.107267,-0.177106 -0.39189,0.09925 -0.789531,0.9044297 -1.220721,0.6615477 z M 23.60639,8.7812555 c -0.458771,-0.8465469 0.489861,0.5238624 0,0 z m 1.701465,0.038469 c 0.0065,-0.3927851 0.241668,0.3129117 0,0 z M 24.203541,8.7109858 c -0.152632,-0.4663697 1.233743,0.3508829 0,0 z M 23.856268,8.4560638 C 23.055442,8.3200663 22.773776,5.9569049 22.934512,6.2755308 23.835293,6.652049 22.749095,4.8829431 23.974543,6.1309382 23.108843,5.5486881 23.475865,7.7701294 24.035763,6.2827046 24.483252,5.6489559 21.83904,5.1046195 23.002224,3.7504024 23.032404,2.8540455 23.294161,1.808845 23.140949,3.414196 c -0.775589,1.5132227 0.829977,2.6576079 1.98717,2.4835378 -0.533819,0.3937318 -0.931112,0.010833 -1.137117,1.08849 -0.575313,-0.4763679 -0.211719,1.5548078 -0.03552,0.2475335 -0.360254,1.0112292 0.976785,1.2003195 -0.260119,0.5471815 -0.976484,-0.9338829 0.829896,1.3715328 0.160908,0.675125 z M 25.556604,6.6861046 C 25.056919,6.0995957 24.531669,6.1420639 25.47776,6.3087573 c 0.157646,-0.4286436 0.862761,-0.1929748 0.305936,-0.4397878 1.295335,0.3028128 0.650913,0.5100467 -0.182756,0.244366 -0.07486,0.3491518 0.713112,0.7367804 -0.04434,0.5727691 z m 2.872361,-1.493449 c 0.01128,-0.4767021 0.177099,0.3160582 0,0 z M 23.830309,1.3971537 c 0.684893,-0.65530254 -0.562983,0.6471766 0,0 z"
       style="fill:#686868;stroke-width:1"
       id="path96486" />
    <path
       d="m 28.775434,47.412378 c 0.779221,-0.232091 0.09858,0.240039 0,0 z m 0.663303,-0.09443 c 0.631717,-0.62799 -0.284475,0.457333 0,0 z M 27.997943,46.96957 c 0.03972,-0.418201 0.03972,0.418202 0,0 z m 0.920397,-0.233239 c 0.135738,-0.433536 0.156434,-0.308975 0,0 z m -0.874644,-0.07944 c 0.0757,-0.763545 0.239477,-0.52886 0,0 z m 0.199698,-1.139109 c 1.167226,-2.291759 1.05716,-4.98942 0.792529,-7.480329 -0.167519,-1.630694 -0.170316,-2.780929 -1.173103,-4.210034 -0.196798,-2.094314 -1.646958,-3.831573 -1.64374,-5.970569 -0.37512,-1.358329 -2.74078,-0.612255 -3.271923,-2.335372 -0.354372,-0.676711 -1.555629,-2.358399 -0.90242,-0.551994 -0.0099,1.210831 3.526797,2.96546 1.132111,1.68708 -1.061609,-0.428973 -2.151321,-4.533049 -2.092468,-1.886981 -0.427535,1.251789 -1.081173,2.640764 -0.33248,4.103258 0.391562,1.113915 1.61941,2.866103 0.101008,3.339439 0.284479,1.124212 0.810914,1.896127 -0.05025,2.692352 -0.09315,1.986512 0.609512,4.427142 -1.086566,5.935328 -0.532533,0.571924 -1.666944,1.42974 -0.445089,0.365874 1.715412,-1.168682 1.577302,-3.322375 1.436835,-5.138667 -0.324045,-1.577338 0.976948,-2.11864 0.06386,-3.604755 1.063579,-1.38976 -0.374572,-3.064518 -0.44923,-4.776366 -0.550949,-1.417748 0.673691,-2.426428 0.510266,-3.738999 -0.219713,-1.417901 0.845485,-1.185964 0.318268,-2.699833 -0.595682,-1.610622 2.011972,0.09922 0.93646,-1.657305 -0.788289,-0.904028 -0.05508,-2.217935 -0.851313,-3.06555 -0.658602,-0.618749 -0.982892,-3.597411 -1.797735,-2.628843 1.020112,1.361092 -1.580519,3.037951 -2.455401,4.227871 -1.29687,0.854994 -3.000902,1.882082 -3.739631,3.011965 0.672095,-1.827532 3.783183,-2.409682 4.070693,-3.869198 -1.14315,-0.64854 1.949873,-0.684521 1.951997,-1.898872 0.923524,-0.50959 -0.752066,-3.033304 0.811001,-1.669411 0.526404,1.785883 2.048841,3.174555 1.938529,5.098278 1.055832,1.047624 0.796466,2.446181 -0.199451,3.23949 0.699737,1.729786 1.20679,4.056222 3.198403,4.758307 2.3815,-0.06724 1.131301,3.306242 2.520128,4.579967 0.838522,0.994741 0.08079,2.385944 0.855375,3.36614 1.021927,1.933669 0.812803,4.429091 0.875685,6.660948 -0.09132,1.416355 -0.232118,2.89708 -1.02234,4.116781 z m 2.923009,-0.320042 c 0.03832,-0.510526 0.03832,0.510527 0,0 z M 18.875016,44.821366 c -0.544489,-0.58021 -0.912846,-1.410128 -0.205658,-0.30108 0.135076,-0.07938 0.459984,0.678848 0.205658,0.30108 z m 1.062972,-0.545709 c 0.16846,-0.383535 0.231005,-0.147062 0,0 z m -1.75643,-0.70382 c -0.235699,-0.801365 0.182274,0.103317 0,0 z m 12.676734,-0.484646 c 0.03828,-0.887859 0.03201,0.965579 0,0 z m -12.822654,0.0038 c -0.0768,-0.621344 0.16284,0.235021 0,0 z m 3.302574,-1.24788 c 0.23583,-0.625886 0.395291,-0.5623 0,0 z m 9.826773,-5.400265 c 0.03972,-0.418201 0.03972,0.418202 0,0 z m 0.05089,-0.651407 c 0.04951,-0.340235 0.03202,0.404947 0,0 z m -8.052323,-0.05211 c 0.08564,-0.474012 0.227018,-0.288915 0,0 z m 8.000404,-0.521125 c 0.04951,-0.340234 0.03202,0.404946 0,0 z m -7.680971,-1.094363 c 0.04309,-0.524039 0.03233,0.590286 0,0 z m -0.05387,-0.651407 c 0.03972,-0.418202 0.03972,0.418201 0,0 z m 0.279362,-0.781688 c 0.1663,-0.650424 0.215875,-0.350221 -0.0094,0.06656 z m 16.341501,-0.221479 c -0.07681,-0.192069 0.699849,0.353788 -2.1e-4,0 z M 30.283797,32.1175 c 0.03832,-0.510528 0.03832,0.510527 0,0 z m 9.534911,-0.0051 c -0.343609,-0.809794 0.434007,0.751718 0,0 z m 0.70236,0.108044 c -0.66685,-0.545772 0.445018,0.120289 0,0 z M 24.004494,31.361868 c 0.0323,-0.872501 0.03939,0.795739 0,0 z m 16.209624,0.228002 c -0.255318,-0.829654 0.347597,0.721838 0,0 z m -0.824862,-0.438875 c -0.315265,-0.73083 0.367682,0.605752 0,0 z M 37.153277,31.0296 c -0.562933,-0.992529 0.514342,0.35272 0.360929,-0.01164 l -0.19334,0.109402 -0.16761,-0.09776 z m 1.915175,-0.669737 c -0.194939,-0.912721 -1.826102,-1.374531 -0.404647,-0.777529 0.149758,0.07162 0.814216,1.552862 0.404647,0.777529 z m -14.922281,0.168204 c 0.159106,-0.488082 0.279522,-0.323132 0,0 z m 12.954505,-0.25188 c 0.350152,-1.890632 1.114881,-3.903418 -0.35049,-5.55313 -0.967264,-1.845234 -2.69258,-2.996498 -3.593497,-4.866954 -1.091504,-0.910919 -1.440511,-3.844969 -2.84549,-3.623909 1.224673,0.378413 -1.188929,-0.160163 0.531973,-0.237495 1.178137,1.41382 1.784804,3.264216 3.067811,4.627254 0.901211,1.728477 2.641448,2.873285 3.350829,4.861677 1.083023,1.583363 -0.024,3.305398 -0.179624,4.985375 l 0.01847,-0.192818 z m -6.455925,-0.37347 c 0.04951,-0.340235 0.03202,0.404945 0,0 z m 0.05825,-0.885914 c 0.03834,-0.981488 0.03076,1.059849 0,0 z m -6.086007,0.390844 c 0.07618,-0.520731 0.23448,-0.306767 0,0 z m 6.035679,-2.006333 c 0.03394,-1.441641 0.03036,1.52325 0,0 z M 9.6149743,25.332446 c -0.027288,-0.148915 1.1883417,-0.164078 0,0 z m 0.6042667,-0.328309 c 0.533827,-0.706417 0.439109,-0.460023 -0.02772,0.06208 z M 9.7612916,24.842613 c 0.2848714,-0.588582 0.3962644,-0.424398 0,0 z m 2.1418614,-0.333545 c 0.03976,-0.418205 0.03976,0.418205 0,0 z m 0.625921,-0.182394 c 0.04116,-0.615948 0.03213,0.683272 0,0 z m -1.675231,-0.06551 c 0.364086,-0.888727 1.340222,-1.144477 1.051182,-0.794345 0.0094,-0.737884 -1.460124,1.554628 -1.051182,0.794345 z m -0.489182,-0.54681 c 0.704873,-1.152502 0.480237,-0.557833 0,0 z m 0.64236,-1.166745 c 0.977679,-1.80243 1.99591,-3.575738 3.202334,-5.24073 0.619623,-0.822793 -0.942607,1.506879 -1.267057,1.946831 -0.787421,1.017783 -1.146246,2.281272 -1.935277,3.293899 z m 2.026089,-0.461772 c 0.22265,-0.548175 0.340818,-0.375776 0,0 z m 16.890648,-0.781689 c 0.03941,-0.889395 0.03093,0.966884 0,0 z m -0.208842,-1.876051 c 0.03959,-0.707941 0.03175,0.776306 0,0 z M 14.728625,16.375504 c 0.523561,-0.77001 -0.283278,0.589359 0,0 z m 0.688685,-0.894935 c 0.909438,-0.828055 -0.794548,0.802989 0,0 z m 0.313683,-0.26132 c 0.406144,-0.418281 0.411281,-0.212144 0,0 z m 0.767628,-0.705201 c 1.127212,-0.980837 1.822671,-3.673006 2.22295,-4.10653 -0.603693,1.501693 -1.056257,3.389885 -2.22295,4.10653 z m 15.379085,-3.215511 c -0.751003,-0.831461 0.873118,0.839368 0,0 z m -0.599021,-0.56021 c -0.543126,-0.550225 0.117947,0.05796 0.272577,0.273591 z M 24.366734,10.128126 C 23.410387,9.9359743 23.092054,8.5774952 23.973792,9.8898573 25.958743,10.676469 22.50887,9.0118402 24.564565,9.3304833 23.664207,8.8866077 25.617388,9.5382154 23.934147,9.4369469 24.247303,10.590842 26.757116,9.040336 24.918061,10.108891 l -0.308974,0.0636 z M 19.103542,9.8524143 c 0.909355,-0.8279925 -0.79452,0.8029577 0,0 z M 19.447327,9.54603 c 0.643765,-0.4450873 0.593473,-0.2018519 0,0 z M 23.70704,8.9186632 C 23.33049,8.3929391 22.296486,6.0059545 22.887135,5.9313905 23.431703,6.8568306 22.755812,5.1746175 23.550464,5.5986101 21.91756,4.8326948 23.100897,2.2084792 23.995009,1.1887037 23.093262,2.2738136 22.14203,4.7039954 23.57927,5.5410573 c 1.232944,1.0520962 0.221595,0.4681338 -0.344941,0.2465947 0.606029,1.1533951 -1.157345,-0.2912896 -0.2329,1.0202471 0.0426,0.857281 0.547475,1.6693292 1.179472,1.9110574 -0.865222,-0.4682335 -0.82694,0.022589 -0.123264,0.4167315 L 23.707181,8.9186794 Z M 24.141822,6.121416 c -0.447323,-0.9796022 -0.199966,0.3667134 0,0 z m -0.951193,2.673297 c -0.31527,-0.730831 0.367685,0.6057507 0,0 z m 4.344334,-0.9356036 c 0.0323,-0.8725019 0.03939,0.7957385 0,0 z m -3.598794,0.2246801 c -0.349862,-0.5935351 0.872998,0.4531219 0,0 z M 23.737174,7.6636061 c -0.360025,-1.0499164 0.715466,-1.019286 0,0 z M 23.882228,7.126458 c -0.16057,-0.2817115 -0.09231,0.3536898 0,0 z m 3.744961,-0.1011497 c 0.336828,-0.6732488 0.317982,-0.2370877 0,0 z M 25.243836,6.2694819 C 24.750066,6.1831089 25.43805,5.647006 24.799116,6.1888479 24.504648,5.6188206 27.041189,5.8820763 25.477754,6.308761 L 25.436384,6.36791 25.243833,6.269485 Z m 3.269157,-1.0446615 c -0.136886,-1.5777173 0.09235,0.2721656 0.0068,0.2281924 -0.0023,-0.076064 -0.0045,-0.1521281 -0.0068,-0.2281924 z M 22.622635,4.3284846 c -0.04103,-1.0593346 0.38784,0.2110883 0,0 z m 5.950412,-0.6123229 c 0.03534,-0.788014 0.03534,0.788015 0,0 z M 27.800135,1.6186319 c -0.539463,-0.5531855 0.107163,0.067071 0.287508,0.2586039 z M 24.193741,1.0849737 c 0.72004,-0.45427834 0.188869,0.00274 0,0 z m 1.207107,-0.37655304 c 0.633624,-0.076026 0.124992,0.076893 0,0 z"
       style="fill:#525252;stroke-width:1"
       id="path96484" />
    <path
       d="m 28.202735,47.565707 c -0.7719,-1.501022 0.719158,-3.072853 0.797267,-4.640897 0.08345,-2.132597 0.185138,-4.330683 -0.446161,-6.400864 0.230931,-1.646928 -1.387153,-3.28001 -1.548949,-5.090837 -1.187914,-1.091597 -0.170074,-4.112406 -1.824703,-4.189199 -0.280973,1.856036 -1.099765,3.572539 -1.372229,5.42973 -0.233098,1.983777 -0.844662,3.910663 -1.42645,5.851507 0.870021,2.076744 -1.329558,3.172162 -1.785166,5.069046 -0.605321,1.770216 -2.434328,1.666824 -2.551737,-0.25416 -0.0063,-2.129916 3.180111,-2.980028 2.640841,-5.410129 -0.33378,-1.677347 0.165943,-3.490319 0.157482,-4.719136 -0.06841,-1.499113 0.415048,-2.782947 -0.472051,-4.320129 -0.540529,-1.594028 -0.108461,-3.234688 0.311727,-4.704024 -0.09645,-1.531662 0.572495,-2.36045 0.33986,-3.959289 0.200387,-0.737586 1.617208,0.68438 0.72742,-0.89322 -0.547842,-0.984796 -0.0085,-2.210154 -0.817755,-3.072084 -0.47482,-0.93285 -0.788786,-2.769886 -1.472966,-0.905128 -1.110151,1.726243 -2.623516,3.065071 -4.331608,4.165337 -2.088797,0.882838 -2.080855,3.26875 -2.54861,5.17037 -0.96188,1.784896 -0.509496,-1.122614 -0.985937,-1.070705 -0.422484,0.589908 -2.7072052,3.006408 -1.7083824,0.88791 1.3537634,-2.424497 2.5635194,-4.923055 4.2155184,-7.166711 0.832134,-1.92569 2.896206,-2.893718 3.639591,-4.878304 0.356095,-2.160002 2.057007,-3.5181479 4.088862,-3.9925736 2.213827,0.1546374 0.159061,-2.7860598 1.12184,-3.1131747 -0.861315,-1.4178457 0.125827,-3.9456142 1.796067,-4.57791354 2.127913,-0.69325629 4.441883,1.35698574 3.861582,3.57609594 0.41402,1.6754943 -2.562022,4.0653458 0.326174,4.716204 1.653557,0.7229252 2.998431,2.0447629 4.121547,3.4241029 0.977703,2.406041 1.712129,4.959864 3.275462,7.08421 0.795354,2.062934 1.941371,3.97162 2.694623,6.062645 0.586557,1.879112 1.30015,3.730785 1.845391,5.622335 0.562362,1.423696 -1.250656,1.803159 -1.409053,0.186047 -0.209085,-0.95061 -1.597729,-3.215087 -1.659755,-0.957408 -1.091097,1.848915 -0.735982,-1.431461 -0.44376,-2.170115 0.95516,-1.944645 -0.897065,-3.686029 -1.824561,-5.241045 -1.530513,-0.984539 -2.007346,-2.756513 -3.116019,-4.106205 -0.704726,-1.166548 -1.608079,-3.875943 -2.186284,-1.214344 -0.873454,1.873883 -0.113787,3.974433 0.244139,5.885559 0.446791,2.106296 0.275617,4.307592 0.224145,6.449683 -0.828601,1.976618 0.467502,3.74647 0.563703,5.692541 0.102926,2.199177 -1.27365,4.388401 -0.384759,6.54088 0.03397,1.636109 1.113686,4.10397 -0.99253,4.863553 -0.542474,0.274937 -1.066695,0.441417 -1.683816,0.369839 z m 0.557831,-0.107354 c 0.900389,-0.05487 2.239575,-0.721649 2.387927,-1.884668 0.100768,-2.095259 -0.989454,-4.129673 -0.46508,-6.211759 0.476052,-2.069074 0.894166,-4.302537 -0.110669,-6.294226 -0.461227,-2.157395 0.487162,-4.439878 0.118888,-6.680563 0.151759,-2.126165 -0.792525,-4.097886 -0.861933,-6.203411 -0.417827,-1.36825 1.05681,-3.756047 0.725131,-4.106155 1.450214,0.986877 1.834877,3.251725 3.170119,4.535719 0.875556,1.847217 2.776312,2.977166 3.526262,4.977822 1.112377,1.68328 -0.319738,3.478224 -0.176874,5.275606 0.896534,0.986625 0.667792,-2.907422 1.712234,-1.01293 0.507673,0.89654 1.219725,3.265133 1.75689,2.382094 0.892483,-0.735493 -0.69905,-3.404266 -0.994603,-4.784064 -0.61375,-2.334002 -1.74472,-4.492896 -2.782772,-6.651857 -0.733639,-1.990933 -2.194443,-3.647391 -2.797021,-5.713129 -0.41073,-2.119833 -1.727094,-3.825401 -3.465138,-5.046728 -1.465229,-0.8454616 -4.279923,-1.7174495 -2.302161,-3.7882944 0.56685,-1.55051 0.780311,-3.9760208 -0.853982,-5.014913 -2.22257,-1.62050878 -4.879795,0.6013131 -4.536516,3.0986801 -0.53032,1.1038887 1.40229,1.1420175 0.267183,1.5171992 0.477302,1.1234196 -0.810392,-0.979141 -0.378865,0.5342175 0.423731,1.3041973 0.629912,2.6822756 1.864987,2.9434885 -2.078809,-0.3281984 1.21897,1.1555651 -0.407135,0.6721321 C 23.27373,8.8349826 22.888103,7.4930476 21.236406,8.7485374 19.045475,9.1302108 18.17309,11.144831 17.570085,13.03528 c -0.940114,1.665808 -2.726874,2.620927 -3.462321,4.431959 -1.733906,2.319197 -2.967694,4.935389 -4.3769994,7.452184 -0.03968,1.755039 2.6281514,-3.534403 2.1664154,-0.613875 -0.01305,2.128895 0.962161,-0.405809 0.994754,-1.244485 0.300081,-1.29023 0.318883,-2.711386 1.757828,-3.314569 1.579538,-1.081968 3.132929,-2.13962 4.253701,-3.727325 0.889643,-0.868099 0.943195,-1.631892 0.631629,-2.472491 1.138321,0.620881 1.112878,2.583605 2.088693,3.5824 -0.400705,1.206469 1.109832,2.698702 0.368994,3.476403 -1.839424,-1.033178 0.05327,2.44785 -1.140738,2.178378 -0.01486,1.118452 0.13531,2.185606 -0.538478,3.1205 -0.402783,2.008896 0.706188,3.809422 0.958611,5.723508 -1.349687,0.59189 0.649757,2.38822 -0.556235,2.979425 -0.216188,2.095248 0.744655,4.664772 -1.09345,6.274267 -1.461575,0.789526 -2.115233,2.803928 -0.787713,3.884002 1.918512,0.373938 1.94006,-3.170203 3.454531,-4.051849 0.09485,-1.760153 0.144452,-3.735203 1.063841,-5.484315 0.195484,-2.015058 0.546686,-4.011497 1.323201,-5.899918 0.505411,-1.267441 0.561082,-2.27595 -0.991442,-2.439611 -0.947781,-0.414074 -2.084455,-2.175563 -1.685637,-2.785362 0.770925,1.858776 2.613078,2.897028 4.149,3.409004 0.002,2.168672 1.36507,3.958328 1.649406,6.05432 0.642756,1.459392 1.295813,2.473995 1.152023,4.040029 0.378363,2.313485 0.419777,4.786834 -0.313186,7.032865 -0.282472,0.552005 -1.359274,3.351864 0.124053,2.817629 z M 23.77839,7.1586656 c 0.09231,-0.35369 0.160569,0.2817113 0,0 z m 0.259595,-0.9981977 c -0.488385,-0.7081151 0.356342,0.076821 -4.8e-5,-1.74e-5 z m 0.74732,-0.056061 c 0.27987,-0.3551083 0.805175,0.06881 0,0 z M 24.545567,27.117819 c -0.987055,-0.199173 -2.094188,-2.257987 -2.355265,-2.177008 0.268883,1.099736 1.769849,2.241612 2.355265,2.177008 z M 19.986168,14.002685 c -0.616234,-1.015455 -0.307354,0.705429 10e-6,0 z M 23.54871,8.9027105 c -1.081796,-1.7528924 0.523523,1.4491485 -2.1e-4,0 z M 22.769585,4.2674653 c 0.02365,-1.0940497 -0.354688,0.5684103 0,0 z"
       style="fill:#2f2f2f;stroke-width:1"
       id="path96482" />
  </g>
</svg>
