<?xml version="1.0" encoding="UTF-8" standalone="no"?>
<!-- Created with Inkscape (http://www.inkscape.org/) -->

<svg
   xmlns:a="http://ns.adobe.com/AdobeSVGViewerExtensions/3.0/"
   xmlns:dc="http://purl.org/dc/elements/1.1/"
   xmlns:cc="http://creativecommons.org/ns#"
   xmlns:rdf="http://www.w3.org/1999/02/22-rdf-syntax-ns#"
   xmlns:svg="http://www.w3.org/2000/svg"
   xmlns="http://www.w3.org/2000/svg"
   xmlns:xlink="http://www.w3.org/1999/xlink"
   xmlns:sodipodi="http://sodipodi.sourceforge.net/DTD/sodipodi-0.dtd"
   xmlns:inkscape="http://www.inkscape.org/namespaces/inkscape"
   width="48px"
   height="48px"
   id="svg1306"
   sodipodi:version="0.32"
   inkscape:version="0.48.4 r9939"
   sodipodi:docname="volumerasterizepoints.svg"
   version="1.1">
  <defs
     id="defs1308">
    <linearGradient
       id="linearGradient9073">
      <stop
         id="stop9075"
         offset="0"
         style="stop-color:#74726e;stop-opacity:1;" />
      <stop
         id="stop9077"
         offset="1"
         style="stop-color:#5d5b58;stop-opacity:0;" />
    </linearGradient>
    <linearGradient
       id="linearGradient9027">
      <stop
         style="stop-color:#2e3436;stop-opacity:0.61855668;"
         offset="0"
         id="stop9029" />
      <stop
         style="stop-color:#2e3436;stop-opacity:0;"
         offset="1"
         id="stop9031" />
    </linearGradient>
    <linearGradient
       inkscape:collect="always"
       xlink:href="#linearGradient4464"
       id="linearGradient4728"
       gradientUnits="userSpaceOnUse"
       gradientTransform="matrix(0.830188,0.07965162,-0.07965669,0.830135,86.173796,1.7044212)"
       x1="10.276073"
       y1="35.035416"
       x2="14.831536"
       y2="37.582352" />
    <linearGradient
       inkscape:collect="always"
       id="linearGradient4464">
      <stop
         style="stop-color:#2e3436;stop-opacity:1;"
         offset="0"
         id="stop4466" />
      <stop
         style="stop-color:#2e3436;stop-opacity:0;"
         offset="1"
         id="stop4468" />
    </linearGradient>
    <linearGradient
       inkscape:collect="always"
       xlink:href="#linearGradient4501"
       id="linearGradient4724"
       gradientUnits="userSpaceOnUse"
       gradientTransform="matrix(-0.834001,0,0,0.833948,120.20325,-6.0580184)"
       x1="23.200819"
       y1="3.504847"
       x2="22.285788"
       y2="32.37022" />
    <linearGradient
       inkscape:collect="always"
       id="linearGradient4501">
      <stop
         style="stop-color:#d3d7cf;stop-opacity:1"
         offset="0"
         id="stop4503" />
      <stop
         style="stop-color:white;stop-opacity:1"
         offset="1"
         id="stop4505" />
    </linearGradient>
    <radialGradient
       inkscape:collect="always"
       xlink:href="#linearGradient2911"
       id="radialGradient4718"
       gradientUnits="userSpaceOnUse"
       cx="3.2992275"
       cy="3.4160771"
       fx="3.2992275"
       fy="3.4160771"
       r="2.7505229" />
    <linearGradient
       id="linearGradient2911">
      <stop
         style="stop-color:white;stop-opacity:1;"
         offset="0"
         id="stop2913" />
      <stop
         style="stop-color:#8e8e8e;stop-opacity:1;"
         offset="1"
         id="stop2915" />
    </linearGradient>
    <linearGradient
       inkscape:collect="always"
       xlink:href="#linearGradient4501"
       id="linearGradient4507"
       x1="23.200819"
       y1="3.504847"
       x2="22.285788"
       y2="32.37022"
       gradientUnits="userSpaceOnUse"
       gradientTransform="matrix(-0.49463659,0,0,0.49482895,22.228187,0.01180459)" />
    <linearGradient
       inkscape:collect="always"
       xlink:href="#linearGradient4464"
       id="linearGradient4470"
       x1="10.276073"
       y1="35.035416"
       x2="14.831536"
       y2="37.582352"
       gradientUnits="userSpaceOnUse"
       gradientTransform="matrix(0.49237515,0.04726185,-0.04724349,0.49256648,15.218398,-0.09089496)" />
    <radialGradient
       inkscape:collect="always"
       xlink:href="#linearGradient2911"
       id="radialGradient2917"
       cx="3.2992275"
       cy="3.4160771"
       fx="3.2992275"
       fy="3.4160771"
       r="2.7505229"
       gradientUnits="userSpaceOnUse" />
    <linearGradient
       id="linearGradient22169">
      <stop
         style="stop-color:white;stop-opacity:1;"
         offset="0"
         id="stop22171" />
      <stop
         style="stop-color:#8e8e8e;stop-opacity:1;"
         offset="1"
         id="stop22173" />
    </linearGradient>
    <radialGradient
       r="2.7505229"
       fy="3.4160771"
       fx="3.2992275"
       cy="3.4160771"
       cx="3.2992275"
       gradientUnits="userSpaceOnUse"
       id="radialGradient22183"
       xlink:href="#linearGradient2911"
       inkscape:collect="always" />
    <linearGradient
       inkscape:collect="always"
       xlink:href="#linearGradient4464"
       id="linearGradient22313"
       gradientUnits="userSpaceOnUse"
       gradientTransform="matrix(0.50115955,0.04810411,-0.04808635,0.50134459,26.187867,17.500328)"
       x1="10.276073"
       y1="35.035416"
       x2="14.831536"
       y2="37.582352" />
    <linearGradient
       inkscape:collect="always"
       xlink:href="#linearGradient4501"
       id="linearGradient22315"
       gradientUnits="userSpaceOnUse"
       gradientTransform="matrix(0.50346134,0,0,0.50364738,24.971624,17.615358)"
       x1="23.200819"
       y1="3.504847"
       x2="22.285788"
       y2="32.37022" />
    <radialGradient
       inkscape:collect="always"
       xlink:href="#linearGradient2911"
       id="radialGradient22325"
       gradientUnits="userSpaceOnUse"
       cx="3.2992275"
       cy="3.4160771"
       fx="3.2992275"
       fy="3.4160771"
       r="2.7505229" />
    <linearGradient
       inkscape:collect="always"
       xlink:href="#linearGradient4464"
       id="linearGradient22327"
       gradientUnits="userSpaceOnUse"
       gradientTransform="matrix(0.50115955,0.04810411,-0.04808635,0.50134459,26.128941,-0.29519251)"
       x1="10.276073"
       y1="35.035416"
       x2="14.831536"
       y2="37.582352" />
    <linearGradient
       inkscape:collect="always"
       xlink:href="#linearGradient4501"
       id="linearGradient22329"
       gradientUnits="userSpaceOnUse"
       gradientTransform="matrix(0.50346134,0,0,0.50364738,24.912698,-0.18016251)"
       x1="23.200819"
       y1="3.504847"
       x2="22.285788"
       y2="32.37022" />
    <radialGradient
       inkscape:collect="always"
       xlink:href="#linearGradient2911"
       id="radialGradient22339"
       gradientUnits="userSpaceOnUse"
       cx="3.2992275"
       cy="3.4160771"
       fx="3.2992275"
       fy="3.4160771"
       r="2.7505229" />
    <linearGradient
       inkscape:collect="always"
       xlink:href="#linearGradient4464"
       id="linearGradient22341"
       gradientUnits="userSpaceOnUse"
       gradientTransform="matrix(0.50115955,0.04810411,-0.04808635,0.50134459,14.99201,11.784547)"
       x1="10.276073"
       y1="35.035416"
       x2="14.831536"
       y2="37.582352" />
    <linearGradient
       inkscape:collect="always"
       xlink:href="#linearGradient4501"
       id="linearGradient22343"
       gradientUnits="userSpaceOnUse"
       gradientTransform="matrix(-0.50346134,0,0,-0.50364738,22.375177,48.281429)"
       x1="23.200819"
       y1="3.504847"
       x2="22.285788"
       y2="32.37022" />
    <radialGradient
       inkscape:collect="always"
       xlink:href="#linearGradient2911"
       id="radialGradient22351"
       gradientUnits="userSpaceOnUse"
       cx="3.2992275"
       cy="3.4160771"
       fx="3.2992275"
       fy="3.4160771"
       r="2.7505229" />
    <radialGradient
       inkscape:collect="always"
       xlink:href="#linearGradient2911"
       id="radialGradient22355"
       gradientUnits="userSpaceOnUse"
       cx="3.2992275"
       cy="3.4160771"
       fx="3.2992275"
       fy="3.4160771"
       r="2.7505229" />
    <linearGradient
       inkscape:collect="always"
       xlink:href="#XMLID_14_"
       id="linearGradient47242"
       gradientUnits="userSpaceOnUse"
       gradientTransform="matrix(0.719402,0.783979,0.996304,-0.914237,-199.3491,377.4144)"
       x1="-95.827209"
       y1="297.60828"
       x2="-81.454582"
       y2="297.60828" />
    <linearGradient
       gradientTransform="matrix(0,-1.06403,-1.352201,0,410.4976,-83.41566)"
       y2="297.60828"
       x2="-81.454582"
       y1="297.60828"
       x1="-95.827209"
       gradientUnits="userSpaceOnUse"
       id="XMLID_14_">
      <stop
         id="stop10062"
         style="stop-color:#e96712;stop-opacity:0;"
         offset="0" />
      <stop
         id="stop10064"
         style="stop-color:#D52E0C"
         offset="0.6221" />
      <stop
         id="stop10066"
         style="stop-color:#CB1009"
         offset="1" />
      <a:midPointStop
         style="stop-color:#E96712"
         offset="0" />
      <a:midPointStop
         style="stop-color:#E96712"
         offset="0.4689" />
      <a:midPointStop
         style="stop-color:#CB1009"
         offset="1" />
    </linearGradient>
    <linearGradient
       inkscape:collect="always"
       xlink:href="#linearGradient13805"
       id="linearGradient47244"
       gradientUnits="userSpaceOnUse"
       gradientTransform="matrix(-0.996304,0.914237,-0.904195,-0.98536,50.21274,38.02708)"
       x1="8.0714235"
       y1="3.9933333"
       x2="8.0714235"
       y2="15.42857" />
    <linearGradient
       id="linearGradient13805">
      <stop
         style="stop-color:#590b08;stop-opacity:1;"
         offset="0"
         id="stop13807" />
      <stop
         style="stop-color:black;stop-opacity:0;"
         offset="1"
         id="stop13809" />
    </linearGradient>
    <linearGradient
       gradientTransform="matrix(0.916817,-0.399307,0.399307,0.916817,-4.080402,7.972345)"
       y2="34.879128"
       x2="27.355925"
       y1="38.897343"
       x1="29.123692"
       gradientUnits="userSpaceOnUse"
       id="linearGradient9071"
       xlink:href="#linearGradient9073-2"
       inkscape:collect="always" />
    <linearGradient
       gradientUnits="userSpaceOnUse"
       y2="34.879128"
       x2="27.355925"
       y1="38.897343"
       x1="29.123692"
       id="linearGradient9067"
       xlink:href="#linearGradient9061-8"
       inkscape:collect="always" />
    <linearGradient
       gradientTransform="matrix(0.988952,0,0,0.988968,0.265155,0.251338)"
       gradientUnits="userSpaceOnUse"
       y2="45.055626"
       x2="23.295853"
       y1="29.8146"
       x1="20.730019"
       id="linearGradient9041"
       xlink:href="#linearGradient9035-3"
       inkscape:collect="always" />
    <radialGradient
       gradientUnits="userSpaceOnUse"
       gradientTransform="matrix(1,0,0,0.192857,0,35.85351)"
       r="18.561552"
       fy="44.420273"
       fx="23.334522"
       cy="44.420273"
       cx="23.334522"
       id="radialGradient9033"
       xlink:href="#linearGradient9027-4"
       inkscape:collect="always" />
    <linearGradient
       y2="-437.8876"
       x2="288.375"
       y1="-435.78354"
       x1="286.41476"
       gradientUnits="userSpaceOnUse"
       id="linearGradient9023"
       xlink:href="#linearGradient6538-2"
       inkscape:collect="always" />
    <linearGradient
       y2="-431.96991"
       x2="285.02859"
       y1="-441.05182"
       x1="271.02170"
       gradientTransform="matrix(1.451509,0,0,1.285865,-383.2098,574.3842)"
       gradientUnits="userSpaceOnUse"
       id="linearGradient8130"
       xlink:href="#linearGradient6470-1"
       inkscape:collect="always" />
    <linearGradient
       y2="-439.69016"
       x2="290.12119"
       y1="-434.73236"
       x1="286.24631"
       gradientUnits="userSpaceOnUse"
       id="linearGradient8099"
       xlink:href="#linearGradient6497-1"
       inkscape:collect="always" />
    <linearGradient
       y2="-437.59375"
       x2="289.4725"
       y1="-434.80862"
       x1="287.14722"
       gradientUnits="userSpaceOnUse"
       id="linearGradient8097"
       xlink:href="#linearGradient6513-6"
       inkscape:collect="always" />
    <linearGradient
       y2="-438.97083"
       x2="288.375"
       y1="-435.54623"
       x1="286.01407"
       gradientUnits="userSpaceOnUse"
       id="linearGradient8095"
       xlink:href="#linearGradient6538-2"
       inkscape:collect="always" />
    <linearGradient
       y2="-438.72214"
       x2="283.46283"
       y1="-431.00018"
       x1="276.61383"
       gradientUnits="userSpaceOnUse"
       id="linearGradient8093"
       xlink:href="#linearGradient6470-1"
       inkscape:collect="always" />
    <linearGradient
       y2="-438.18988"
       x2="289.39493"
       y1="-435.6282"
       x1="286.2952"
       gradientUnits="userSpaceOnUse"
       id="linearGradient8091"
       xlink:href="#linearGradient6549-8"
       inkscape:collect="always" />
    <linearGradient
       y2="-439.28937"
       x2="290.07755"
       y1="-435.78354"
       x1="286.41476"
       gradientUnits="userSpaceOnUse"
       id="linearGradient8089"
       xlink:href="#linearGradient6538-2"
       inkscape:collect="always" />
    <linearGradient
       y2="-436.83109"
       x2="288.89954"
       y1="-441.23294"
       x1="284.80219"
       gradientUnits="userSpaceOnUse"
       id="linearGradient8006"
       xlink:href="#linearGradient6538-2"
       inkscape:collect="always" />
    <linearGradient
       y2="-436.70703"
       x2="289.76562"
       y1="-439.48358"
       x1="286.66589"
       gradientUnits="userSpaceOnUse"
       id="linearGradient8004"
       xlink:href="#linearGradient6549-8"
       inkscape:collect="always" />
    <linearGradient
       y2="-431.91833"
       x2="279.97546"
       y1="-437.10501"
       x1="275.94193"
       gradientUnits="userSpaceOnUse"
       id="linearGradient8002"
       xlink:href="#linearGradient6527-6"
       inkscape:collect="always" />
    <linearGradient
       y2="-436.44290"
       x2="289.39124"
       y1="-439.93900"
       x1="285.94086"
       gradientUnits="userSpaceOnUse"
       id="linearGradient8000"
       xlink:href="#linearGradient6538-2"
       inkscape:collect="always" />
    <linearGradient
       y2="-436.14453"
       x2="289.85379"
       y1="-441.29074"
       x1="286.51172"
       gradientUnits="userSpaceOnUse"
       id="linearGradient7998"
       xlink:href="#linearGradient6513-6"
       inkscape:collect="always" />
    <linearGradient
       y2="-436.32199"
       x2="289.67633"
       y1="-439.75281"
       x1="287.51730"
       gradientUnits="userSpaceOnUse"
       id="linearGradient7996"
       xlink:href="#linearGradient6497-1"
       inkscape:collect="always" />
    <linearGradient
       id="linearGradient6470-1"
       inkscape:collect="always">
      <stop
         id="stop6472-6"
         offset="0"
         style="stop-color:#ffffff;stop-opacity:1;" />
      <stop
         id="stop6474-3"
         offset="1"
         style="stop-color:#ffffff;stop-opacity:0;" />
    </linearGradient>
    <linearGradient
       id="linearGradient6497-1"
       inkscape:collect="always">
      <stop
         id="stop6499-3"
         offset="0"
         style="stop-color:#ffffff;stop-opacity:1;" />
      <stop
         id="stop6501-2"
         offset="1"
         style="stop-color:#ffffff;stop-opacity:0;" />
    </linearGradient>
    <linearGradient
       id="linearGradient6513-6"
       inkscape:collect="always">
      <stop
         id="stop6515-4"
         offset="0"
         style="stop-color:#ffffff;stop-opacity:1;" />
      <stop
         id="stop6517-7"
         offset="1"
         style="stop-color:#ffffff;stop-opacity:0;" />
    </linearGradient>
    <linearGradient
       id="linearGradient6538-2"
       inkscape:collect="always">
      <stop
         id="stop6540-7"
         offset="0"
         style="stop-color:#ffffff;stop-opacity:1;" />
      <stop
         id="stop6542-2"
         offset="1"
         style="stop-color:#ffffff;stop-opacity:0;" />
    </linearGradient>
    <linearGradient
       id="linearGradient6527-6"
       inkscape:collect="always">
      <stop
         id="stop6530-0"
         offset="0"
         style="stop-color:#ffffff;stop-opacity:1;" />
      <stop
         id="stop6532-7"
         offset="1"
         style="stop-color:#ffffff;stop-opacity:0;" />
    </linearGradient>
    <linearGradient
       id="linearGradient6549-8"
       inkscape:collect="always">
      <stop
         id="stop6551-5"
         offset="0"
         style="stop-color:#ffffff;stop-opacity:1;" />
      <stop
         id="stop6553-6"
         offset="1"
         style="stop-color:#ffffff;stop-opacity:0;" />
    </linearGradient>
    <linearGradient
       id="linearGradient9027-4">
      <stop
         id="stop9029-6"
         offset="0"
         style="stop-color:#2e3436;stop-opacity:0.61855668;" />
      <stop
         id="stop9031-9"
         offset="1"
         style="stop-color:#2e3436;stop-opacity:0;" />
    </linearGradient>
    <linearGradient
       id="linearGradient9035-3"
       inkscape:collect="always">
      <stop
         id="stop9037-9"
         offset="0"
         style="stop-color:#888a85;stop-opacity:1;" />
      <stop
         id="stop9039-4"
         offset="1"
         style="stop-color:#51534f;stop-opacity:1" />
    </linearGradient>
    <linearGradient
       id="linearGradient9061-8"
       inkscape:collect="always">
      <stop
         id="stop9063-5"
         offset="0"
         style="stop-color:#5d5b58;stop-opacity:1;" />
      <stop
         id="stop9065-8"
         offset="1"
         style="stop-color:#5d5b58;stop-opacity:0;" />
    </linearGradient>
    <linearGradient
       id="linearGradient9073-2">
      <stop
         style="stop-color:#74726e;stop-opacity:1;"
         offset="0"
         id="stop9075-2" />
      <stop
         style="stop-color:#5d5b58;stop-opacity:0;"
         offset="1"
         id="stop9077-7" />
    </linearGradient>
    <linearGradient
       inkscape:collect="always"
       xlink:href="#linearGradient2966"
       id="linearGradient2554"
       gradientUnits="userSpaceOnUse"
       gradientTransform="translate(-5.669292,0)"
       x1="48.90625"
       y1="17.376184"
       x2="50.988335"
       y2="22.250591" />
    <linearGradient
       id="linearGradient2966">
      <stop
         id="stop2968"
         offset="0"
         style="stop-color:#ffd1d1;stop-opacity:1;" />
      <stop
         style="stop-color:#ff1d1d;stop-opacity:1;"
         offset="0.5"
         id="stop3006" />
      <stop
         id="stop2970"
         offset="1"
         style="stop-color:#6f0000;stop-opacity:1;" />
    </linearGradient>
    <linearGradient
       inkscape:collect="always"
       xlink:href="#linearGradient2974"
       id="linearGradient2556"
       gradientUnits="userSpaceOnUse"
       gradientTransform="translate(-5.669292,0)"
       x1="46"
       y1="19.8125"
       x2="47.6875"
       y2="22.625" />
    <linearGradient
       id="linearGradient2974">
      <stop
         id="stop2976"
         offset="0"
         style="stop-color:#c1c1c1;stop-opacity:1;" />
      <stop
         id="stop2978"
         offset="1"
         style="stop-color:#acacac;stop-opacity:1;" />
    </linearGradient>
    <radialGradient
       inkscape:collect="always"
       xlink:href="#linearGradient2984"
       id="radialGradient2558"
       gradientUnits="userSpaceOnUse"
       gradientTransform="matrix(2.923565,0,0,2.029717,-61.55532,-27.88417)"
       cx="29.053354"
       cy="27.640751"
       fx="29.053354"
       fy="27.640751"
       r="3.2408545" />
    <linearGradient
       id="linearGradient2984"
       inkscape:collect="always">
      <stop
         id="stop2986"
         offset="0"
         style="stop-color:#e7e2b8;stop-opacity:1;" />
      <stop
         id="stop2988"
         offset="1"
         style="stop-color:#e7e2b8;stop-opacity:0;" />
    </linearGradient>
    <linearGradient
       inkscape:collect="always"
       xlink:href="#linearGradient2994"
       id="linearGradient2560"
       gradientUnits="userSpaceOnUse"
       gradientTransform="translate(-5.825542,0.125)"
       x1="25.71875"
       y1="31.046875"
       x2="25.514589"
       y2="30.703125" />
    <linearGradient
       id="linearGradient2994">
      <stop
         id="stop2996"
         offset="0"
         style="stop-color:#000000;stop-opacity:1;" />
      <stop
         id="stop2998"
         offset="1"
         style="stop-color:#c9c9c9;stop-opacity:1;" />
    </linearGradient>
  </defs>
  <sodipodi:namedview
     id="base"
     pagecolor="#ffffff"
     bordercolor="#666666"
     borderopacity="1.0"
     inkscape:pageopacity="0.0"
     inkscape:pageshadow="2"
     inkscape:zoom="16.970563"
     inkscape:cx="11.739388"
     inkscape:cy="22.817566"
     inkscape:current-layer="layer1"
     showgrid="true"
     inkscape:grid-bbox="false"
     inkscape:document-units="px"
     inkscape:window-width="2560"
     inkscape:window-height="1496"
     inkscape:window-x="-8"
     inkscape:window-y="-8"
     inkscape:showpageshadow="false"
     showguides="true"
     inkscape:guide-bbox="true"
     inkscape:window-maximized="1" />
  <metadata
     id="metadata1311">
    <rdf:RDF>
      <cc:Work
         rdf:about="">
        <dc:format>image/svg+xml</dc:format>
        <dc:type
           rdf:resource="http://purl.org/dc/dcmitype/StillImage" />
        <dc:title></dc:title>
        <dc:date>January 2006</dc:date>
        <dc:creator>
          <cc:Agent>
            <dc:title>Ryan Collier (pseudo)</dc:title>
          </cc:Agent>
        </dc:creator>
        <dc:publisher>
          <cc:Agent>
            <dc:title>http://www.tango-project.org</dc:title>
          </cc:Agent>
        </dc:publisher>
        <dc:source>http://www.pseudocode.org</dc:source>
        <dc:subject>
          <rdf:Bag>
            <rdf:li>weather</rdf:li>
            <rdf:li>applet</rdf:li>
            <rdf:li>notify</rdf:li>
          </rdf:Bag>
        </dc:subject>
        <cc:license
           rdf:resource="http://creativecommons.org/licenses/by-sa/2.0/" />
      </cc:Work>
      <cc:License
         rdf:about="http://creativecommons.org/licenses/by-sa/2.0/">
        <cc:permits
           rdf:resource="http://web.resource.org/cc/Reproduction" />
        <cc:permits
           rdf:resource="http://web.resource.org/cc/Distribution" />
        <cc:requires
           rdf:resource="http://web.resource.org/cc/Notice" />
        <cc:requires
           rdf:resource="http://web.resource.org/cc/Attribution" />
        <cc:permits
           rdf:resource="http://web.resource.org/cc/DerivativeWorks" />
        <cc:requires
           rdf:resource="http://web.resource.org/cc/ShareAlike" />
      </cc:License>
    </rdf:RDF>
  </metadata>
  <g
     id="layer1"
     inkscape:label="Layer 1"
     inkscape:groupmode="layer">
    <path
       inkscape:connector-curvature="0"
       style="color:#000000;fill:none;stroke:#ffffff;stroke-width:1.00000048;stroke-linecap:butt;stroke-linejoin:miter;stroke-miterlimit:6;stroke-opacity:1;stroke-dasharray:none;stroke-dashoffset:0;marker:none;visibility:visible;display:inline;overflow:visible"
       d="m 108.02008,-3.1840044 0,12.3116853 -5.97794,0 -9.754172,18.8711671 -0.442366,-18.8711671 -6.050696,0 0,-12.3116853 22.225174,0 z"
       id="path4722"
       sodipodi:nodetypes="cccccccc" />
    <g
       inkscape:label="Layer 1"
       id="layer1-2"
       transform="translate(-2.1336851,-0.25948854)">
      <path
         transform="matrix(1.148148,0,0,1.148148,-3.456966,-6.580781)"
         d="m 41.896074,44.420273 c 0,1.977029 -8.31029,3.579728 -18.561552,3.579728 -10.251262,0 -18.5615518,-1.602699 -18.5615518,-3.579728 0,-1.977029 8.3102898,-3.579728 18.5615518,-3.579728 10.251262,0 18.561552,1.602699 18.561552,3.579728 z"
         sodipodi:ry="3.5797279"
         sodipodi:rx="18.561552"
         sodipodi:cy="44.420273"
         sodipodi:cx="23.334522"
         id="path9025"
         style="color:#000000;fill:url(#radialGradient9033);fill-opacity:1;fill-rule:evenodd;stroke:none;stroke-width:2;marker:none;visibility:visible;display:inline;overflow:visible"
         sodipodi:type="arc" />
      <path
         sodipodi:nodetypes="cscsscccsscscscsscccsscsc"
         d="m 43.50499,22.879908 c 0.540801,0.860002 1.576395,2.890471 1.576395,3.943402 0,2.243877 -1.461649,4.131422 -3.530673,5.157191 0.273024,0.688454 0.517832,1.392216 0.517832,2.162693 0,3.673253 -3.374385,6.654428 -7.532108,6.654442 -1.260482,0 -2.392226,-0.347588 -3.436522,-0.831806 -0.917169,2.761221 -3.687599,4.82447 -7.108423,4.82447 -3.420828,0 -6.191258,-2.063249 -7.108427,-4.82447 -1.044295,0.484218 -2.176041,0.831806 -3.436521,0.831806 -4.1577235,0 -7.5321231,-2.981176 -7.5321071,-6.654442 0,-0.77049 0.2448234,-1.474225 0.5178313,-2.162693 -2.069024,-1.025769 -3.5306737,-2.913314 -3.5306737,-5.157191 0,-1.193931 0.3961034,-4.004568 1.0052614,-5.008866 -0.6544946,-0.953174 -0.9874693,-1.979548 -0.9874693,-3.07421 0,-2.243878 1.4616497,-4.131423 3.5306736,-5.157192 C 6.1770513,12.894574 5.9322278,12.19084 5.9322278,11.420349 5.9322119,7.7470852 9.3066106,4.7659091 13.464333,4.7659091 c 1.260483,0 2.392227,0.347588 3.436524,0.831805 0.917169,-2.7612202 3.687599,-4.82446958 7.108425,-4.82446958 3.420826,0 6.191255,2.06324938 7.108425,4.82446958 1.044295,-0.484217 2.176041,-0.831805 3.436522,-0.831805 4.157723,1.32e-5 7.532107,2.9811895 7.532107,6.6544399 0,0.770478 -0.244809,1.474239 -0.517832,2.162693 2.069023,1.025769 3.530673,2.913314 3.530673,5.157192 0,1.023739 -1.080983,3.29657 -1.594187,4.139674 z"
         style="fill:#c4c5c2;fill-opacity:1;stroke:url(#linearGradient9041);stroke-width:1.50000036;stroke-linecap:butt;stroke-linejoin:miter;stroke-miterlimit:2;stroke-opacity:1;stroke-dasharray:none;stroke-dashoffset:0"
         id="path7796"
         inkscape:connector-curvature="0" />
      <g
         transform="matrix(1.523249,0,0,1.345735,-403.2443,600.0954)"
         id="g7800">
        <path
           sodipodi:type="arc"
           style="fill:#c4c5c2;fill-opacity:1;stroke:none"
           id="path7802"
           sodipodi:cx="288.375"
           sodipodi:cy="-437.59375"
           sodipodi:rx="3.3125"
           sodipodi:ry="3.3125"
           d="m 291.6875,-437.59375 c 0,1.82944 -1.48306,3.3125 -3.3125,3.3125 -1.82944,0 -3.3125,-1.48306 -3.3125,-3.3125 0,-1.82944 1.48306,-3.3125 3.3125,-3.3125 1.82944,0 3.3125,1.48306 3.3125,3.3125 z"
           transform="matrix(1.056604,0,0,1.056604,-24.19818,21.86331)" />
        <path
           sodipodi:type="arc"
           style="fill:url(#linearGradient7996);fill-opacity:1;stroke:none"
           id="path7804"
           sodipodi:cx="288.375"
           sodipodi:cy="-437.59375"
           sodipodi:rx="3.3125"
           sodipodi:ry="3.3125"
           d="m 291.6875,-437.59375 c 0,1.82944 -1.48306,3.3125 -3.3125,3.3125 -1.82944,0 -3.3125,-1.48306 -3.3125,-3.3125 0,-1.82944 1.48306,-3.3125 3.3125,-3.3125 1.82944,0 3.3125,1.48306 3.3125,3.3125 z"
           transform="matrix(1.056604,0,0,1.056604,-24.19818,21.86331)" />
      </g>
      <rect
         y="10.663828"
         x="9.5564947"
         height="12.111609"
         width="30.464998"
         id="rect7806"
         style="fill:#c4c5c2;fill-opacity:1;stroke:none" />
      <path
         transform="matrix(1.379548,0,0,1.218778,-388.2705,552.068)"
         d="m 291.6875,-437.59375 c 0,1.82944 -1.48306,3.3125 -3.3125,3.3125 -1.82944,0 -3.3125,-1.48306 -3.3125,-3.3125 0,-1.82944 1.48306,-3.3125 3.3125,-3.3125 1.82944,0 3.3125,1.48306 3.3125,3.3125 z"
         sodipodi:ry="3.3125"
         sodipodi:rx="3.3125"
         sodipodi:cy="-437.59375"
         sodipodi:cx="288.375"
         id="path7808"
         style="fill:#c4c5c2;fill-opacity:1;stroke:none"
         sodipodi:type="arc" />
      <g
         transform="matrix(1.523249,0,0,1.345735,-403.2443,600.0954)"
         id="g7810">
        <path
           sodipodi:type="arc"
           style="fill:#c4c5c2;fill-opacity:1;stroke:none"
           id="path7812"
           sodipodi:cx="288.375"
           sodipodi:cy="-437.59375"
           sodipodi:rx="3.3125"
           sodipodi:ry="3.3125"
           d="m 291.6875,-437.59375 c 0,1.82944 -1.48306,3.3125 -3.3125,3.3125 -1.82944,0 -3.3125,-1.48306 -3.3125,-3.3125 0,-1.82944 1.48306,-3.3125 3.3125,-3.3125 1.82944,0 3.3125,1.48306 3.3125,3.3125 z"
           transform="matrix(1.056604,0,0,1.056604,-17.19811,24.86321)" />
        <path
           sodipodi:type="arc"
           style="fill:url(#linearGradient7998);fill-opacity:1;stroke:none"
           id="path7814"
           sodipodi:cx="288.375"
           sodipodi:cy="-437.59375"
           sodipodi:rx="3.3125"
           sodipodi:ry="3.3125"
           d="m 291.6875,-437.59375 c 0,1.82944 -1.48306,3.3125 -3.3125,3.3125 -1.82944,0 -3.3125,-1.48306 -3.3125,-3.3125 0,-1.82944 1.48306,-3.3125 3.3125,-3.3125 1.82944,0 3.3125,1.48306 3.3125,3.3125 z"
           transform="matrix(1.056604,0,0,1.056604,-17.19818,24.86331)" />
      </g>
      <g
         transform="matrix(1.523249,0,0,1.345735,-403.2443,600.0954)"
         id="g7816">
        <path
           sodipodi:type="arc"
           style="fill:#c4c5c2;fill-opacity:1;stroke:none"
           id="path7818"
           sodipodi:cx="288.375"
           sodipodi:cy="-437.59375"
           sodipodi:rx="3.3125"
           sodipodi:ry="3.3125"
           d="m 291.6875,-437.59375 c 0,1.82944 -1.48306,3.3125 -3.3125,3.3125 -1.82944,0 -3.3125,-1.48306 -3.3125,-3.3125 0,-1.82944 1.48306,-3.3125 3.3125,-3.3125 1.82944,0 3.3125,1.48306 3.3125,3.3125 z"
           transform="matrix(1.056604,0,0,1.056604,-31.19818,24.86331)" />
        <path
           sodipodi:type="arc"
           style="fill:url(#linearGradient8000);fill-opacity:1;stroke:none"
           id="path7820"
           sodipodi:cx="288.375"
           sodipodi:cy="-437.59375"
           sodipodi:rx="3.3125"
           sodipodi:ry="3.3125"
           d="m 291.6875,-437.59375 c 0,1.82944 -1.48306,3.3125 -3.3125,3.3125 -1.82944,0 -3.3125,-1.48306 -3.3125,-3.3125 0,-1.82944 1.48306,-3.3125 3.3125,-3.3125 1.82944,0 3.3125,1.48306 3.3125,3.3125 z"
           transform="matrix(1.056604,0,0,1.056604,-31.19818,24.86331)" />
      </g>
      <g
         transform="matrix(1.523249,0,0,1.345735,-404.7675,600.0954)"
         id="g7822">
        <path
           style="fill:#c4c5c2;fill-opacity:1;stroke:none"
           d="m 280.46875,-440.96875 c -3.57938,0 -6.46875,2.92063 -6.46875,6.5 0,2.37068 1.34943,4.33779 3.25,5.46875 l 6.46875,0 c 1.90057,-1.13096 3.25,-3.12931 3.25,-5.5 0,-3.57938 -2.92063,-6.46875 -6.5,-6.46875 z"
           id="path7824"
           inkscape:connector-curvature="0" />
        <path
           style="fill:url(#linearGradient8002);fill-opacity:1;stroke:none"
           d="m 280.5,-441 c -3.588,0 -6.5,2.91201 -6.5,6.5 0,2.3764 1.34485,4.36632 3.25,5.5 l 6.5,0 c 1.90515,-1.13368 3.25,-3.1236 3.25,-5.5 0,-3.588 -2.912,-6.49999 -6.5,-6.5 z"
           id="path7826"
           inkscape:connector-curvature="0" />
      </g>
      <path
         transform="matrix(1.379548,0,0,1.218778,-388.2703,552.0678)"
         d="m 291.6875,-437.59375 c 0,1.82944 -1.48306,3.3125 -3.3125,3.3125 -1.82944,0 -3.3125,-1.48306 -3.3125,-3.3125 0,-1.82944 1.48306,-3.3125 3.3125,-3.3125 1.82944,0 3.3125,1.48306 3.3125,3.3125 z"
         sodipodi:ry="3.3125"
         sodipodi:rx="3.3125"
         sodipodi:cy="-437.59375"
         sodipodi:cx="288.375"
         id="path7828"
         style="fill:url(#linearGradient8004);fill-opacity:1;stroke:none"
         sodipodi:type="arc" />
      <g
         transform="matrix(1.740857,0,0,1.537982,-446.7657,690.2597)"
         id="g7832">
        <path
           sodipodi:type="arc"
           style="fill:#c4c5c2;fill-opacity:1;stroke:none"
           id="path7834"
           sodipodi:cx="288.375"
           sodipodi:cy="-437.59375"
           sodipodi:rx="3.3125"
           sodipodi:ry="3.3125"
           d="m 291.6875,-437.59375 c 0,1.82944 -1.48306,3.3125 -3.3125,3.3125 -1.82944,0 -3.3125,-1.48306 -3.3125,-3.3125 0,-1.82944 1.48306,-3.3125 3.3125,-3.3125 1.82944,0 3.3125,1.48306 3.3125,3.3125 z"
           transform="matrix(1.056604,0,0,1.056604,-31.19818,24.86331)" />
        <path
           sodipodi:type="arc"
           style="fill:url(#linearGradient8006);fill-opacity:1;stroke:none"
           id="path7836"
           sodipodi:cx="288.375"
           sodipodi:cy="-437.59375"
           sodipodi:rx="3.3125"
           sodipodi:ry="3.3125"
           d="m 291.6875,-437.59375 c 0,1.82944 -1.48306,3.3125 -3.3125,3.3125 -1.82944,0 -3.3125,-1.48306 -3.3125,-3.3125 0,-1.82944 1.48306,-3.3125 3.3125,-3.3125 1.82944,0 3.3125,1.48306 3.3125,3.3125 z"
           transform="matrix(1.056604,0,0,1.056604,-31.19818,24.86331)" />
      </g>
      <g
         transform="matrix(1.523249,0,0,-1.345735,-403.2623,-554.4459)"
         id="g8014">
        <path
           sodipodi:type="arc"
           style="fill:#c4c5c2;fill-opacity:1;stroke:none"
           id="path8016"
           sodipodi:cx="288.375"
           sodipodi:cy="-437.59375"
           sodipodi:rx="3.3125"
           sodipodi:ry="3.3125"
           d="m 291.6875,-437.59375 c 0,1.82944 -1.48306,3.3125 -3.3125,3.3125 -1.82944,0 -3.3125,-1.48306 -3.3125,-3.3125 0,-1.82944 1.48306,-3.3125 3.3125,-3.3125 1.82944,0 3.3125,1.48306 3.3125,3.3125 z"
           transform="matrix(1.056604,0,0,1.056604,-24.19818,21.86331)" />
        <path
           sodipodi:type="arc"
           style="fill:url(#linearGradient8099);fill-opacity:1;stroke:none"
           id="path8018"
           sodipodi:cx="288.375"
           sodipodi:cy="-437.59375"
           sodipodi:rx="3.3125"
           sodipodi:ry="3.3125"
           d="m 291.6875,-437.59375 c 0,1.82944 -1.48306,3.3125 -3.3125,3.3125 -1.82944,0 -3.3125,-1.48306 -3.3125,-3.3125 0,-1.82944 1.48306,-3.3125 3.3125,-3.3125 1.82944,0 3.3125,1.48306 3.3125,3.3125 z"
           transform="matrix(1.056604,0,0,1.056604,-24.19818,21.86331)" />
      </g>
      <rect
         transform="scale(1,-1)"
         y="-34.985878"
         x="9.5385027"
         height="12.111609"
         width="30.464998"
         id="rect8020"
         style="fill:#c4c5c2;fill-opacity:1;stroke:none" />
      <path
         transform="matrix(1.379548,0,0,-1.218778,-388.2883,-506.4185)"
         d="m 291.6875,-437.59375 c 0,1.82944 -1.48306,3.3125 -3.3125,3.3125 -1.82944,0 -3.3125,-1.48306 -3.3125,-3.3125 0,-1.82944 1.48306,-3.3125 3.3125,-3.3125 1.82944,0 3.3125,1.48306 3.3125,3.3125 z"
         sodipodi:ry="3.3125"
         sodipodi:rx="3.3125"
         sodipodi:cy="-437.59375"
         sodipodi:cx="288.375"
         id="path8022"
         style="fill:#c4c5c2;fill-opacity:1;stroke:none"
         sodipodi:type="arc" />
      <g
         transform="matrix(1.523249,0,0,-1.345735,-403.2623,-554.4459)"
         id="g8024">
        <path
           sodipodi:type="arc"
           style="fill:#c4c5c2;fill-opacity:1;stroke:none"
           id="path8026"
           sodipodi:cx="288.375"
           sodipodi:cy="-437.59375"
           sodipodi:rx="3.3125"
           sodipodi:ry="3.3125"
           d="m 291.6875,-437.59375 c 0,1.82944 -1.48306,3.3125 -3.3125,3.3125 -1.82944,0 -3.3125,-1.48306 -3.3125,-3.3125 0,-1.82944 1.48306,-3.3125 3.3125,-3.3125 1.82944,0 3.3125,1.48306 3.3125,3.3125 z"
           transform="matrix(1.056604,0,0,1.056604,-17.19811,24.86321)" />
        <path
           sodipodi:type="arc"
           style="fill:url(#linearGradient8097);fill-opacity:1;stroke:none"
           id="path8028"
           sodipodi:cx="288.375"
           sodipodi:cy="-437.59375"
           sodipodi:rx="3.3125"
           sodipodi:ry="3.3125"
           d="m 291.6875,-437.59375 c 0,1.82944 -1.48306,3.3125 -3.3125,3.3125 -1.82944,0 -3.3125,-1.48306 -3.3125,-3.3125 0,-1.82944 1.48306,-3.3125 3.3125,-3.3125 1.82944,0 3.3125,1.48306 3.3125,3.3125 z"
           transform="matrix(1.056604,0,0,1.056604,-17.19818,24.86331)" />
      </g>
      <g
         transform="matrix(1.523249,0,0,-1.345735,-403.2623,-554.4459)"
         id="g8030">
        <path
           sodipodi:type="arc"
           style="fill:#c4c5c2;fill-opacity:1;stroke:none"
           id="path8032"
           sodipodi:cx="288.375"
           sodipodi:cy="-437.59375"
           sodipodi:rx="3.3125"
           sodipodi:ry="3.3125"
           d="m 291.6875,-437.59375 c 0,1.82944 -1.48306,3.3125 -3.3125,3.3125 -1.82944,0 -3.3125,-1.48306 -3.3125,-3.3125 0,-1.82944 1.48306,-3.3125 3.3125,-3.3125 1.82944,0 3.3125,1.48306 3.3125,3.3125 z"
           transform="matrix(1.056604,0,0,1.056604,-31.19818,24.86331)" />
        <path
           sodipodi:type="arc"
           style="fill:url(#linearGradient8095);fill-opacity:1;stroke:none"
           id="path8034"
           sodipodi:cx="288.375"
           sodipodi:cy="-437.59375"
           sodipodi:rx="3.3125"
           sodipodi:ry="3.3125"
           d="m 291.6875,-437.59375 c 0,1.82944 -1.48306,3.3125 -3.3125,3.3125 -1.82944,0 -3.3125,-1.48306 -3.3125,-3.3125 0,-1.82944 1.48306,-3.3125 3.3125,-3.3125 1.82944,0 3.3125,1.48306 3.3125,3.3125 z"
           transform="matrix(1.056604,0,0,1.056604,-31.19818,24.86331)" />
      </g>
      <g
         transform="matrix(1.523249,0,0,-1.345735,-404.7855,-554.4459)"
         id="g8036">
        <path
           style="fill:#c4c5c2;fill-opacity:1;stroke:none"
           d="m 280.46875,-440.96875 c -3.57938,0 -6.46875,2.92063 -6.46875,6.5 0,2.37068 1.34943,4.33779 3.25,5.46875 l 6.46875,0 c 1.90057,-1.13096 3.25,-3.12931 3.25,-5.5 0,-3.57938 -2.92063,-6.46875 -6.5,-6.46875 z"
           id="path8038"
           inkscape:connector-curvature="0" />
        <path
           style="fill:url(#linearGradient8093);fill-opacity:1;stroke:none"
           d="m 280.5,-441 c -3.588,0 -6.5,2.91201 -6.5,6.5 0,2.3764 1.34485,4.36632 3.25,5.5 l 6.5,0 c 1.90515,-1.13368 3.25,-3.1236 3.25,-5.5 0,-3.588 -2.912,-6.49999 -6.5,-6.5 z"
           id="path8040"
           inkscape:connector-curvature="0" />
      </g>
      <path
         transform="matrix(1.379548,0,0,-1.218778,-388.2881,-506.4182)"
         d="m 291.6875,-437.59375 c 0,1.82944 -1.48306,3.3125 -3.3125,3.3125 -1.82944,0 -3.3125,-1.48306 -3.3125,-3.3125 0,-1.82944 1.48306,-3.3125 3.3125,-3.3125 1.82944,0 3.3125,1.48306 3.3125,3.3125 z"
         sodipodi:ry="3.3125"
         sodipodi:rx="3.3125"
         sodipodi:cy="-437.59375"
         sodipodi:cx="288.375"
         id="path8042"
         style="fill:url(#linearGradient8091);fill-opacity:1;stroke:none"
         sodipodi:type="arc" />
      <g
         transform="matrix(1.740857,0,0,-1.537982,-450.8749,-647.3211)"
         id="g8046">
        <path
           sodipodi:type="arc"
           style="fill:#c4c5c2;fill-opacity:1;stroke:none"
           id="path8048"
           sodipodi:cx="288.375"
           sodipodi:cy="-437.59375"
           sodipodi:rx="3.3125"
           sodipodi:ry="3.3125"
           d="m 291.6875,-437.59375 c 0,1.82944 -1.48306,3.3125 -3.3125,3.3125 -1.82944,0 -3.3125,-1.48306 -3.3125,-3.3125 0,-1.82944 1.48306,-3.3125 3.3125,-3.3125 1.82944,0 3.3125,1.48306 3.3125,3.3125 z"
           transform="matrix(1.056604,0,0,1.056604,-31.19818,24.86331)" />
        <path
           sodipodi:type="arc"
           style="fill:url(#linearGradient8089);fill-opacity:1;stroke:none"
           id="path8050"
           sodipodi:cx="288.375"
           sodipodi:cy="-437.59375"
           sodipodi:rx="3.3125"
           sodipodi:ry="3.3125"
           d="m 291.6875,-437.59375 c 0,1.82944 -1.48306,3.3125 -3.3125,3.3125 -1.82944,0 -3.3125,-1.48306 -3.3125,-3.3125 0,-1.82944 1.48306,-3.3125 3.3125,-3.3125 1.82944,0 3.3125,1.48306 3.3125,3.3125 z"
           transform="matrix(1.056604,0,0,1.056604,-31.19818,24.86331)" />
      </g>
      <g
         transform="matrix(1.740857,0,0,-1.537982,-441.2494,-650.2832)"
         id="g9017">
        <path
           sodipodi:type="arc"
           style="fill:#c4c5c2;fill-opacity:1;stroke:none"
           id="path9019"
           sodipodi:cx="288.375"
           sodipodi:cy="-437.59375"
           sodipodi:rx="3.3125"
           sodipodi:ry="3.3125"
           d="m 291.6875,-437.59375 c 0,1.82944 -1.48306,3.3125 -3.3125,3.3125 -1.82944,0 -3.3125,-1.48306 -3.3125,-3.3125 0,-1.82944 1.48306,-3.3125 3.3125,-3.3125 1.82944,0 3.3125,1.48306 3.3125,3.3125 z"
           transform="matrix(1.056604,0,0,1.056604,-31.19818,24.86331)" />
        <path
           sodipodi:type="arc"
           style="fill:url(#linearGradient9023);fill-opacity:1;stroke:none"
           id="path9021"
           sodipodi:cx="288.375"
           sodipodi:cy="-437.59375"
           sodipodi:rx="3.3125"
           sodipodi:ry="3.3125"
           d="m 291.6875,-437.59375 c 0,1.82944 -1.48306,3.3125 -3.3125,3.3125 -1.82944,0 -3.3125,-1.48306 -3.3125,-3.3125 0,-1.82944 1.48306,-3.3125 3.3125,-3.3125 1.82944,0 3.3125,1.48306 3.3125,3.3125 z"
           transform="matrix(1.056604,0,0,1.056604,-31.19818,24.86331)" />
      </g>
      <path
         sodipodi:nodetypes="cscsscccsscscscsscccsscss"
         d="m 5.50705,22.046636 c -0.993051,0.979272 -1.1810117,3.520942 -1.1810117,4.97416 0,1.905717 1.6146584,3.576776 3.5370815,4.51282 -0.2536515,0.628237 -0.6415097,1.463614 -0.6415097,2.166687 -1.45e-5,3.351894 2.7601906,5.933044 6.7032289,5.933044 1.171165,0 2.646115,-0.717814 3.616389,-1.159664 0.975343,3.224632 3.102342,5.206513 6.280739,5.206513 3.178414,0 5.601953,-2.064332 6.543765,-5.178108 0.970275,0.44185 2.778854,1.159677 3.95003,1.159677 3.863076,-1.3e-5 6.33754,-2.609579 6.33754,-5.961462 0,-0.703058 -0.419935,-1.686231 -0.673599,-2.314455 1.922421,-0.936045 3.537078,-2.317479 3.537078,-4.365052 0,-1.341413 -0.84786,-2.482361 -1.760447,-4.065384 0.882116,-1.601506 1.777589,-2.975909 1.777589,-4.386491 0,-2.047575 -1.614658,-3.429009 -3.537079,-4.365054 0.253667,-0.628224 0.673602,-1.611397 0.673602,-2.314456 0,-3.3518794 -3.071118,-5.8733598 -6.934192,-5.8733728 -1.171178,0 -2.383102,0.62974 -3.353377,1.0715893 C 29.441062,3.9738512 27.116966,2.17378 23.938555,2.17378 c -3.178399,0 -5.40484,1.7176216 -6.380182,4.9422522 -0.970275,-0.4418491 -2.24634,-1.0715763 -3.417504,-1.0715763 -3.943039,0 -6.9021298,2.4930628 -6.9021154,5.8449551 0,0.703071 0.3878582,1.714625 0.6415097,2.342861 -1.9224229,0.936046 -3.5370814,2.43093 -3.5370814,4.336649 0,1.410587 0.2268823,2.507864 1.1638681,3.477715 z"
         style="fill:url(#linearGradient8130);fill-opacity:1;stroke:#ffffff;stroke-width:0.9999994;stroke-linecap:butt;stroke-linejoin:miter;stroke-miterlimit:2;stroke-opacity:0.50196078;stroke-dashoffset:0"
         id="path7798"
         inkscape:connector-curvature="0" />
      <path
         sodipodi:nodetypes="ccss"
         id="path7830"
         d="m 42.556975,12.414559 c -0.0023,3.527521 -4.862476,4.88014 -4.862476,4.88014 0,0 3.493356,-2.1365 3.47567,-4.868392 0,0 1.386806,-0.01175 1.386806,-0.01175 z"
         style="fill:#888a85;fill-opacity:1;fill-rule:evenodd;stroke:none"
         inkscape:connector-curvature="0" />
      <path
         sodipodi:nodetypes="ccss"
         id="path8044"
         d="m 31.805464,41.029946 c -3.836551,-0.625415 -4.449539,-6.15082 -4.449539,-6.15082 0,0 1.707009,4.17709 4.681664,4.640291 0,0 -0.232125,1.510529 -0.232125,1.510529 z"
         style="fill:url(#linearGradient9067);fill-opacity:1;fill-rule:evenodd;stroke:none"
         inkscape:connector-curvature="0" />
      <path
         sodipodi:nodetypes="ccss"
         id="path9069"
         d="m 41.462947,32.889154 c -3.767148,0.958571 -6.53548,-3.862445 -6.53548,-3.862445 0,0 3.232957,3.148007 6.145131,2.384877 0,0 0.390349,1.477568 0.390349,1.477568 z"
         style="fill:url(#linearGradient9071);fill-opacity:1;fill-rule:evenodd;stroke:none"
         inkscape:connector-curvature="0" />
    </g>
    <g
       style="display:inline"
       id="g1574"
       transform="matrix(1.033699,-0.276979,0.276979,1.033699,19.068307,-19.429605)"
       inkscape:r_cx="true"
       inkscape:r_cy="true">
      <path
         transform="translate(-29.75546,19)"
         sodipodi:nodetypes="cccccc"
         id="path2960"
         d="m 17.34116,32.5 5.625,-5.625 20.093749,-9.75 c 3.25,-1.25 5.1875,3.375 2.3125,5 L 25.34116,31.5 l -8,1 z"
         style="color:#000000;fill:#cb9022;fill-opacity:1;fill-rule:evenodd;stroke:#5c410c;stroke-width:0.93443578;stroke-linecap:butt;stroke-linejoin:miter;stroke-miterlimit:4;stroke-opacity:1;stroke-dasharray:none;stroke-dashoffset:0;marker:none;visibility:visible;display:inline;overflow:visible"
         inkscape:r_cx="true"
         inkscape:r_cy="true"
         inkscape:connector-curvature="0" />
      <path
         transform="translate(-29.75546,19)"
         style="color:#000000;fill:url(#linearGradient2554);fill-opacity:1;fill-rule:evenodd;stroke:none;stroke-width:1;marker:none;visibility:visible;display:inline;overflow:visible"
         d="m 38.330708,20 c 0,0 1.4375,0.09375 2,1.34375 0.579493,1.287761 0,2.65625 0,2.65625 l 5.03125,-2.46875 c 0,0 1.452032,-0.881367 0.65625,-2.84375 -0.784912,-1.935577 -2.6875,-1.15625 -2.6875,-1.15625 l -5,2.46875 z"
         id="path2964"
         sodipodi:nodetypes="czcczcc"
         inkscape:r_cx="true"
         inkscape:r_cy="true"
         inkscape:connector-curvature="0" />
      <path
         transform="translate(-29.75546,19)"
         sodipodi:nodetypes="czcczcc"
         id="path2962"
         d="m 38.330708,20 c 0,0 1.4375,0.09375 2,1.34375 0.579493,1.287761 0,2.65625 0,2.65625 l 2,-1 c 0,0 0.827032,-1.318867 0.21875,-2.6875 C 41.924458,18.90625 40.330708,19 40.330708,19 l -2,1 z"
         style="color:#000000;fill:url(#linearGradient2556);fill-opacity:1;fill-rule:evenodd;stroke:none;stroke-width:1;marker:none;visibility:visible;display:inline;overflow:visible"
         inkscape:r_cx="true"
         inkscape:r_cy="true"
         inkscape:connector-curvature="0" />
      <path
         transform="translate(-29.75546,19)"
         sodipodi:nodetypes="cccc"
         id="path2982"
         d="m 18.768208,31.78125 4.5,-4.5 c 1.5,0.8125 2.28125,2.15625 1.875,3.71875 l -6.375,0.78125 z"
         style="color:#000000;fill:url(#radialGradient2558);fill-opacity:1;fill-rule:evenodd;stroke:none;stroke-width:1;marker:none;visibility:visible;display:inline;overflow:visible"
         inkscape:r_cx="true"
         inkscape:r_cy="true"
         inkscape:connector-curvature="0" />
      <path
         transform="translate(-29.75546,19)"
         sodipodi:nodetypes="cccc"
         id="path2992"
         d="m 20.111958,30.375 -1.625,1.59375 2.34375,-0.3125 c 0.21875,-0.71875 -0.1875,-1.0625 -0.71875,-1.28125 z"
         style="color:#000000;fill:url(#linearGradient2560);fill-opacity:1;fill-rule:evenodd;stroke:none;stroke-width:1;marker:none;visibility:visible;display:inline;overflow:visible"
         inkscape:r_cx="true"
         inkscape:r_cy="true"
         inkscape:connector-curvature="0" />
      <path
         transform="translate(-29.75546,19)"
         sodipodi:nodetypes="ccccc"
         id="path3002"
         d="m 23.268208,27.25 1.5625,1.25 15.38734,-7.31867 C 39.773616,20.325286 38.976281,20.096733 38.314669,20.019068 L 23.268208,27.25 z"
         style="color:#000000;fill:#ffffff;fill-opacity:0.36363639;fill-rule:evenodd;stroke:none;stroke-width:1;marker:none;visibility:visible;display:inline;overflow:visible"
         inkscape:r_cx="true"
         inkscape:r_cy="true"
         inkscape:connector-curvature="0" />
      <path
         transform="translate(-29.75546,19)"
         sodipodi:nodetypes="ccccc"
         id="path3004"
         d="m 25.143208,31.0625 0.1875,-0.75 15.23109,-7.1296 c 0,0 -0.11016,0.613627 -0.215879,0.74935 L 25.143208,31.0625 z"
         style="color:#000000;fill:#000000;fill-opacity:0.36363639;fill-rule:evenodd;stroke:none;stroke-width:1;marker:none;visibility:visible;display:inline;overflow:visible"
         inkscape:r_cx="true"
         inkscape:r_cy="true"
         inkscape:connector-curvature="0" />
    </g>
  </g>
</svg>
