<?xml version="1.0" encoding="UTF-8" standalone="no"?>
<!-- Created with Inkscape (http://www.inkscape.org/) -->
<svg
   xmlns:a="http://ns.adobe.com/AdobeSVGViewerExtensions/3.0/"
   xmlns:i="http://ns.adobe.com/AdobeIllustrator/10.0/"
   xmlns:dc="http://purl.org/dc/elements/1.1/"
   xmlns:cc="http://web.resource.org/cc/"
   xmlns:rdf="http://www.w3.org/1999/02/22-rdf-syntax-ns#"
   xmlns:svg="http://www.w3.org/2000/svg"
   xmlns="http://www.w3.org/2000/svg"
   xmlns:xlink="http://www.w3.org/1999/xlink"
   xmlns:sodipodi="http://sodipodi.sourceforge.net/DTD/sodipodi-0.dtd"
   xmlns:inkscape="http://www.inkscape.org/namespaces/inkscape"
   width="48px"
   height="48px"
   id="svg21920"
   sodipodi:version="0.32"
   inkscape:version="0.44"
   sodipodi:docbase="e:\dev_clean\src\houdini\support\icons\sop"
   sodipodi:docname="wireframe.svg">
  <defs
     id="defs21922">
    <linearGradient
       y2="261.61719"
       x2="34.745602"
       y1="261.61719"
       x1="8.1254997"
       gradientUnits="userSpaceOnUse"
       id="XMLID_396_">
						<stop
   id="stop14646"
   style="stop-color:#FFFFFF"
   offset="0" />

						<stop
   id="stop14648"
   style="stop-color:#3778B3"
   offset="0.6685" />

						<a:midPointStop
   style="stop-color:#FFFFFF"
   offset="0" />

						<a:midPointStop
   style="stop-color:#FFFFFF"
   offset="0.5" />

						<a:midPointStop
   style="stop-color:#3778B3"
   offset="0.6685" />

					</linearGradient>
    <linearGradient
       id="XMLID_395_"
       gradientUnits="userSpaceOnUse"
       x1="-3.2583001"
       y1="281.36621"
       x2="37.616798"
       y2="254.6161">
							<stop
   offset="0"
   style="stop-color:#FFFFFF"
   id="stop14637" />

							<stop
   offset="0.6685"
   style="stop-color:#709EC3"
   id="stop14639" />

							<stop
   offset="1"
   style="stop-color:#3778B3"
   id="stop14641" />

							<a:midPointStop
   offset="0"
   style="stop-color:#FFFFFF" />

							<a:midPointStop
   offset="0.5"
   style="stop-color:#FFFFFF" />

							<a:midPointStop
   offset="0.6685"
   style="stop-color:#709EC3" />

							<a:midPointStop
   offset="0.5"
   style="stop-color:#709EC3" />

							<a:midPointStop
   offset="1"
   style="stop-color:#3778B3" />

						</linearGradient>
    <linearGradient
       id="XMLID_394_"
       gradientUnits="userSpaceOnUse"
       x1="12.7671"
       y1="253.45509"
       x2="24.252701"
       y2="267.81149">
							<stop
   offset="0"
   style="stop-color:#FFFFFF"
   id="stop14628" />

							<stop
   offset="0.6685"
   style="stop-color:#3778B3"
   id="stop14630" />

							<stop
   offset="1"
   style="stop-color:#224987"
   id="stop14632" />

							<a:midPointStop
   offset="0"
   style="stop-color:#FFFFFF" />

							<a:midPointStop
   offset="0.5"
   style="stop-color:#FFFFFF" />

							<a:midPointStop
   offset="0.6685"
   style="stop-color:#3778B3" />

							<a:midPointStop
   offset="0.5"
   style="stop-color:#3778B3" />

							<a:midPointStop
   offset="1"
   style="stop-color:#224987" />

						</linearGradient>
    <linearGradient
       y2="256.89911"
       x2="40.820301"
       y1="283.67871"
       x1="-2.9116001"
       gradientUnits="userSpaceOnUse"
       id="XMLID_393_">
								<stop
   id="stop14617"
   style="stop-color:#FFFFFF"
   offset="0" />

								<stop
   id="stop14619"
   style="stop-color:#8D96A0"
   offset="1" />

								<a:midPointStop
   style="stop-color:#FFFFFF"
   offset="0" />

								<a:midPointStop
   style="stop-color:#FFFFFF"
   offset="0.5" />

								<a:midPointStop
   style="stop-color:#8D96A0"
   offset="1" />

							</linearGradient>
    <linearGradient
       id="XMLID_392_"
       gradientUnits="userSpaceOnUse"
       x1="11.4907"
       y1="263.79791"
       x2="19.632999"
       y2="268.81699">
							<stop
   offset="0"
   style="stop-color:#FFFFFF"
   id="stop14608" />

							<stop
   offset="0.6236"
   style="stop-color:#8D96A0"
   id="stop14610" />

							<a:midPointStop
   offset="0"
   style="stop-color:#FFFFFF" />

							<a:midPointStop
   offset="0.5"
   style="stop-color:#FFFFFF" />

							<a:midPointStop
   offset="0.6236"
   style="stop-color:#8D96A0" />

						</linearGradient>
    <linearGradient
       id="XMLID_391_"
       gradientUnits="userSpaceOnUse"
       x1="-1.978"
       y1="283.3223"
       x2="38.896999"
       y2="256.5722">
							<stop
   offset="0"
   style="stop-color:#FFFFFF"
   id="stop14597" />

							<stop
   offset="0.6685"
   style="stop-color:#709EC3"
   id="stop14599" />

							<stop
   offset="1"
   style="stop-color:#3065A0"
   id="stop14601" />

							<a:midPointStop
   offset="0"
   style="stop-color:#FFFFFF" />

							<a:midPointStop
   offset="0.5"
   style="stop-color:#FFFFFF" />

							<a:midPointStop
   offset="0.6685"
   style="stop-color:#709EC3" />

							<a:midPointStop
   offset="0.5"
   style="stop-color:#709EC3" />

							<a:midPointStop
   offset="1"
   style="stop-color:#3065A0" />

						</linearGradient>
    <radialGradient
       id="XMLID_390_"
       cx="12.2036"
       cy="272.4375"
       r="9.7086"
       fx="12.2036"
       fy="272.4375"
       gradientUnits="userSpaceOnUse">
							<stop
   offset="0"
   style="stop-color:#224987"
   id="stop14588" />

							<stop
   offset="0.573"
   style="stop-color:#3065A0"
   id="stop14590" />

							<stop
   offset="1"
   style="stop-color:#709EC3"
   id="stop14592" />

							<a:midPointStop
   offset="0"
   style="stop-color:#224987" />

							<a:midPointStop
   offset="0.5"
   style="stop-color:#224987" />

							<a:midPointStop
   offset="0.573"
   style="stop-color:#3065A0" />

							<a:midPointStop
   offset="0.5"
   style="stop-color:#3065A0" />

							<a:midPointStop
   offset="1"
   style="stop-color:#709EC3" />

						</radialGradient>
    <linearGradient
       inkscape:collect="always"
       xlink:href="#XMLID_396_"
       id="linearGradient21973"
       gradientUnits="userSpaceOnUse"
       x1="8.1254997"
       y1="261.61719"
       x2="34.745602"
       y2="261.61719"
       gradientTransform="matrix(1.176114,0,0,1.176114,-3.685573,-289.8674)" />
    <linearGradient
       inkscape:collect="always"
       xlink:href="#XMLID_395_"
       id="linearGradient21976"
       gradientUnits="userSpaceOnUse"
       x1="-3.2583001"
       y1="281.36621"
       x2="37.616798"
       y2="254.6161"
       gradientTransform="matrix(1.176114,0,0,1.176114,-3.685573,-289.8674)" />
    <linearGradient
       inkscape:collect="always"
       xlink:href="#XMLID_394_"
       id="linearGradient21979"
       gradientUnits="userSpaceOnUse"
       x1="12.7671"
       y1="253.45509"
       x2="24.252701"
       y2="267.81149"
       gradientTransform="matrix(1.176114,0,0,1.176114,-3.685573,-289.8674)" />
    <linearGradient
       inkscape:collect="always"
       xlink:href="#XMLID_392_"
       id="linearGradient21988"
       gradientUnits="userSpaceOnUse"
       x1="11.4907"
       y1="263.79791"
       x2="19.632999"
       y2="268.81699"
       gradientTransform="matrix(1.176114,0,0,1.176114,-3.685573,-289.8674)" />
    <linearGradient
       inkscape:collect="always"
       xlink:href="#XMLID_391_"
       id="linearGradient21991"
       gradientUnits="userSpaceOnUse"
       x1="-1.978"
       y1="283.3223"
       x2="38.896999"
       y2="256.5722"
       gradientTransform="matrix(1.176114,0,0,1.176114,-3.685573,-289.8674)" />
    <radialGradient
       inkscape:collect="always"
       xlink:href="#XMLID_390_"
       id="radialGradient21994"
       gradientUnits="userSpaceOnUse"
       cx="12.2036"
       cy="272.4375"
       fx="12.2036"
       fy="272.4375"
       r="9.7086"
       gradientTransform="matrix(1.176114,0,0,1.176114,-3.685573,-289.8674)" />
  </defs>
  <sodipodi:namedview
     id="base"
     pagecolor="#ffffff"
     bordercolor="#666666"
     borderopacity="1.0"
     inkscape:pageopacity="0.0"
     inkscape:pageshadow="2"
     inkscape:zoom="15.75"
     inkscape:cx="24"
     inkscape:cy="24"
     inkscape:current-layer="layer1"
     showgrid="true"
     inkscape:grid-bbox="false"
     inkscape:document-units="px"
     inkscape:guide-bbox="false"
     inkscape:window-width="1353"
     inkscape:window-height="1086"
     inkscape:window-x="295"
     inkscape:window-y="-1" />
  <metadata
     id="metadata21925">
    <rdf:RDF>
      <cc:Work
         rdf:about="">
        <dc:format>image/svg+xml</dc:format>
        <dc:type
           rdf:resource="http://purl.org/dc/dcmitype/StillImage" />
      </cc:Work>
    </rdf:RDF>
  </metadata>
  <g
     id="layer1"
     inkscape:label="Layer 1"
     inkscape:groupmode="layer">
    <path
       i:knockout="Off"
       d="M 2.0421022,29.011213 C 0.88362989,30.273183 0.42024097,32.132619 0.77189906,34.113195 C 1.4446363,37.903811 4.9341665,41.253383 8.5471887,41.581519 C 10.318416,41.740295 11.892057,41.176936 12.976434,39.993765 C 14.13373,38.731795 14.598295,36.872359 14.245461,34.894135 C 13.571548,31.101167 10.08437,27.751595 6.4713475,27.424635 C 4.6989437,27.26586 3.1264793,27.828042 2.0421022,29.011213 z "
       id="path14585"
       style="fill:none;stroke:#17314c;stroke-width:2;stroke-miterlimit:4;stroke-dasharray:none" />
    <path
       i:isolated="yes"
       i:knockout="Off"
       enable-background="new    "
       d="M 13.435118,35.037621 C 14.047874,38.493044 11.893233,41.05462 8.6201078,40.760592 C 5.3469825,40.464211 2.194997,37.423956 1.5822416,33.968533 C 0.96948621,30.51311 3.1241271,27.950358 6.3972523,28.245562 C 9.6692015,28.540767 12.820011,31.581022 13.435118,35.037621 z "
       id="path14594"
       style="fill:url(#radialGradient21994)" />
    <path
       i:knockout="Off"
       d="M 2.3443635,29.288776 C 1.2729236,30.455481 0.84717036,32.187897 1.1764823,34.0391 C 1.8198166,37.660355 5.1423387,40.859385 8.5836482,41.169879 C 10.224327,41.319246 11.675652,40.801756 12.672997,39.716202 C 13.74326,38.549497 14.169014,36.817081 13.839702,34.965878 L 13.839702,34.965878 C 13.196367,31.344623 9.8738453,28.145593 6.4337119,27.835099 C 4.7930328,27.686908 3.3417082,28.202046 2.3443635,29.288776 z M 8.6577434,40.350128 C 5.5622114,40.071389 2.5701774,37.175796 1.9880009,33.897966 C 1.699853,32.276105 2.0421022,30.835366 2.9512383,29.84743 C 3.7698136,28.954759 4.9812111,28.532534 6.3596167,28.656026 C 9.4539726,28.934765 12.446007,31.830358 13.028183,35.11054 L 13.028183,35.11054 C 13.317507,36.730049 12.975258,38.168436 12.066122,39.158724 C 11.247546,40.051395 10.036149,40.474796 8.6577434,40.350128 z "
       id="path14603"
       style="fill:url(#linearGradient21991)" />
    <path
       i:knockout="Off"
       d="M 45.477168,10.314528 C 26.755786,9.1066594 10.527765,21.758118 0.52726735,45.426236 C 0.30733403,45.947254 0.08975294,47.190407 1.2552819,47.562059 C 2.3925842,47.925478 3.0006351,47.037512 3.2205684,46.51767 C 12.736507,24.025665 27.996586,12.02107 45.477168,13.226587 C 46.108742,13.270103 47.560066,13.153668 47.560066,11.91522 C 47.561242,10.675595 46.226353,10.362749 45.477168,10.314528 z "
       id="path14612"
       style="fill:url(#linearGradient21988);stroke:#212326;stroke-width:0.59999985" />
    <g
       id="g14614"
       transform="matrix(1.176114,0,0,1.176114,-3.685573,-289.8674)">
							<linearGradient
   id="linearGradient21959"
   gradientUnits="userSpaceOnUse"
   x1="-2.9116001"
   y1="283.67871"
   x2="40.820301"
   y2="256.89911">
								<stop
   offset="0"
   style="stop-color:#FFFFFF"
   id="stop21961" />

								<stop
   offset="1"
   style="stop-color:#8D96A0"
   id="stop21963" />

								<a:midPointStop
   offset="0"
   style="stop-color:#FFFFFF" />

								<a:midPointStop
   offset="0.5"
   style="stop-color:#FFFFFF" />

								<a:midPointStop
   offset="1"
   style="stop-color:#8D96A0" />

							</linearGradient>

							<path
   i:knockout="Off"
   d="M 41.783,255.531 C 26.077,254.517 12.255,265.332 3.86,285.203 L 3.735,285.82 L 3.813,286.225 C 3.814,286.228 4.293,286.617 4.293,286.617 L 4.357,285.974 C 4.357,285.969 4.334,285.82 4.334,285.82 L 4.412,285.435 C 12.701,265.815 26.308,255.133 41.743,256.13 L 41.783,255.531 z M 3.848,285.23 L 3.86,285.203 L 3.848,285.23 z "
   id="path14621"
   style="fill:url(#XMLID_393_)" />

						</g>
    <path
       i:knockout="Off"
       d="M 13.793833,38.778839 C 14.600647,37.051128 22.092494,21.816923 36.942109,18.60378 C 39.289633,18.119221 40.887971,15.962228 40.887971,13.241876 C 40.887971,9.8417306 38.347565,6.6144738 35.226159,6.0475869 C 34.601642,5.9323277 33.987711,5.9276232 33.397301,6.0311213 L 33.356137,6.0405302 C 14.755895,10.315705 4.9106442,23.983325 1.5410776,29.659252"
       id="path14625"
       style="fill:none;stroke:#17314c;stroke-width:2;stroke-miterlimit:4;stroke-dasharray:none" />
    <path
       i:isolated="yes"
       i:knockout="Off"
       enable-background="new    "
       d="M 2.2455699,30.082653 C 3.0876675,28.806569 4.5683951,28.07973 6.3960762,28.244386 C 9.6680254,28.539591 12.818835,31.581022 13.433942,35.036445 C 13.663285,36.332522 13.505685,37.502756 13.043473,38.443647 L 12.997604,38.528327 C 14.412469,35.461022 22.032512,20.985411 36.765692,17.79579 L 36.740994,17.80167 C 38.676877,17.401791 40.064692,15.624683 40.064692,13.239524 C 40.064692,10.214559 37.832427,7.3554256 35.076792,6.8532249 C 34.540484,6.7567836 34.022994,6.7544314 33.538435,6.8391116 C 18.500641,10.300415 7.9426661,20.484386 2.2455699,30.082653 L 2.2455699,30.082653 z "
       id="path14634"
       style="fill:url(#linearGradient21979)" />
    <path
       i:knockout="Off"
       d="M 33.467868,6.4368806 C 15.021696,10.677948 5.2599501,24.206787 1.905673,29.852134 C 1.9033207,29.85331 1.8939118,29.8686 1.8915596,29.87448 L 2.5878191,30.309643 C 3.3781677,29.112359 4.753045,28.511364 6.3584406,28.656026 C 9.4539726,28.934765 12.446007,31.830358 13.028183,35.11054 C 13.095222,35.478664 13.126977,35.840907 13.126977,36.190213 C 13.126977,36.941749 12.972906,37.638009 12.677701,38.248412 C 12.662412,38.277815 12.636537,38.333092 12.624776,38.358967 C 12.624776,38.358967 12.844709,38.433062 13.058762,38.505981 C 13.214009,38.603598 13.372784,38.703568 13.372784,38.703568 C 13.381017,38.68475 13.399835,38.645939 13.409244,38.625945 L 13.413948,38.628297 C 13.418653,38.616536 13.419829,38.604775 13.424533,38.595366 C 14.408941,36.492474 21.921957,21.434686 36.8539,18.202725 C 39.008541,17.756978 40.476332,15.762288 40.476332,13.243052 C 40.476332,10.033437 38.087644,6.9873019 35.150887,6.4533462 C 34.575768,6.3451437 34.008881,6.3416154 33.467868,6.4368806 z M 33.631348,7.2436948 C 34.055925,7.1695996 34.525195,7.173128 35.003873,7.2613365 C 37.567802,7.7282538 39.653052,10.412146 39.653052,13.241876 C 39.653052,15.360058 38.449887,17.030139 36.657489,17.400615 C 24.187153,20.100973 16.782339,30.830661 13.92203,35.872662 C 13.907916,35.573929 13.894979,35.27402 13.839702,34.965878 C 13.196367,31.344623 9.8738453,28.145593 6.4337119,27.835099 C 5.5139907,27.752771 4.6695409,27.905666 3.918004,28.219688 C 8.0896804,21.952176 17.445667,10.964919 33.631348,7.2436948 z "
       id="path14643"
       style="fill:url(#linearGradient21976)" />
    <path
       style="fill:url(#linearGradient21973)"
       id="path14650"
       d="M 5.8703533,27.813929 C 11.341636,19.36943 22.747589,9.8299695 35.801278,7.4824459 C 36.169402,7.6000573 36.651609,7.8835008 37.177332,8.2657379 C 31.494349,9.2501453 17.555046,13.828757 7.9767734,28.165587 C 7.0535239,27.772765 5.8703533,27.813929 5.8703533,27.813929 z "
       i:knockout="Off" />
    <path
       style="fill:none;stroke:#224987;stroke-width:1;stroke-miterlimit:4;stroke-dasharray:none;stroke-linecap:round"
       id="path14652"
       d="M 11.662476,38.959952 C 12.491206,38.044875 12.800105,36.703231 12.533852,35.185115 C 11.984055,32.047207 9.1682168,29.277434 6.2555594,29.012144 C 4.9957516,28.896443 3.8938518,29.283277 3.1538732,30.102522 L 3.1538732,30.102522 C 2.8657195,30.420403 2.6398069,30.790875 2.4784409,31.202251"
       i:knockout="Off" />
  </g>
</svg>
