<?xml version="1.0" encoding="UTF-8" standalone="no"?>
<!-- Created with Inkscape (http://www.inkscape.org/) -->
<svg
   xmlns:a="http://ns.adobe.com/AdobeSVGViewerExtensions/3.0/"
   xmlns:i="http://ns.adobe.com/AdobeIllustrator/10.0/"
   xmlns:dc="http://purl.org/dc/elements/1.1/"
   xmlns:cc="http://web.resource.org/cc/"
   xmlns:rdf="http://www.w3.org/1999/02/22-rdf-syntax-ns#"
   xmlns:svg="http://www.w3.org/2000/svg"
   xmlns="http://www.w3.org/2000/svg"
   xmlns:sodipodi="http://sodipodi.sourceforge.net/DTD/sodipodi-0.dtd"
   xmlns:inkscape="http://www.inkscape.org/namespaces/inkscape"
   width="48px"
   height="48px"
   id="svg13247"
   sodipodi:version="0.32"
   inkscape:version="0.45.1"
   sodipodi:docbase="C:\dev\src\houdini\support\icons\Incoming"
   sodipodi:docname="xform_axis.svg"
   inkscape:output_extension="org.inkscape.output.svg.inkscape">
  <defs
     id="defs13249">
    <radialGradient
       gradientUnits="userSpaceOnUse"
       fy="264.45801"
       fx="15.3721"
       r="40.674999"
       cy="264.45801"
       cx="15.3721"
       id="XMLID_56_">
						<stop
   id="stop11599"
   style="stop-color:#FFFFFF"
   offset="0" />

						<stop
   id="stop11601"
   style="stop-color:#C2CED4"
   offset="1" />

						<a:midPointStop
   style="stop-color:#FFFFFF"
   offset="0" />

						<a:midPointStop
   style="stop-color:#FFFFFF"
   offset="0.5" />

						<a:midPointStop
   style="stop-color:#C2CED4"
   offset="1" />

					</radialGradient>
    <radialGradient
       gradientUnits="userSpaceOnUse"
       fy="314.4639"
       fx="54.538101"
       r="38.891499"
       cy="314.4639"
       cx="54.538101"
       id="XMLID_57_">
						<stop
   id="stop11630"
   style="stop-color:#FFFFFF"
   offset="0" />

						<stop
   id="stop11632"
   style="stop-color:#8794A0"
   offset="1" />

						<a:midPointStop
   style="stop-color:#FFFFFF"
   offset="0" />

						<a:midPointStop
   style="stop-color:#FFFFFF"
   offset="0.5" />

						<a:midPointStop
   style="stop-color:#8794A0"
   offset="1" />

					</radialGradient>
    <radialGradient
       gradientUnits="userSpaceOnUse"
       fy="309.8877"
       fx="30.4023"
       r="50.461399"
       cy="309.8877"
       cx="30.4023"
       id="XMLID_58_">
						<stop
   id="stop11639"
   style="stop-color:#FFFFFF"
   offset="0" />

						<stop
   id="stop11641"
   style="stop-color:#8794A0"
   offset="1" />

						<a:midPointStop
   style="stop-color:#FFFFFF"
   offset="0" />

						<a:midPointStop
   style="stop-color:#FFFFFF"
   offset="0.5" />

						<a:midPointStop
   style="stop-color:#8794A0"
   offset="1" />

					</radialGradient>
  </defs>
  <sodipodi:namedview
     id="base"
     pagecolor="#ffffff"
     bordercolor="#666666"
     borderopacity="1.0"
     inkscape:pageopacity="0.0"
     inkscape:pageshadow="2"
     inkscape:zoom="7"
     inkscape:cx="24"
     inkscape:cy="24"
     inkscape:current-layer="layer1"
     showgrid="true"
     inkscape:grid-bbox="true"
     inkscape:document-units="px"
     inkscape:window-width="744"
     inkscape:window-height="573"
     inkscape:window-x="110"
     inkscape:window-y="120" />
  <metadata
     id="metadata13252">
    <rdf:RDF>
      <cc:Work
         rdf:about="">
        <dc:format>image/svg+xml</dc:format>
        <dc:type
           rdf:resource="http://purl.org/dc/dcmitype/StillImage" />
      </cc:Work>
    </rdf:RDF>
  </metadata>
  <g
     id="layer1"
     inkscape:label="Layer 1"
     inkscape:groupmode="layer">
    <polygon
       transform="matrix(1.0545955,0,0,1.0547642,-2.3962914,-261.87465)"
       style="fill:none;stroke:#660c0b;stroke-width:0.94815505"
       id="polygon11588"
       points="11.776,269.797 8.729,270.33 6.229,272.861 6.134,264.691 11.776,269.797 "
       i:knockout="Off" />
    <polygon
       transform="matrix(1.0545955,0,0,1.0547642,-2.3962914,-261.87465)"
       style="fill:none;stroke:#660d0d;stroke-width:0.94815505"
       id="polygon11590"
       points="40.516,269.846 43.947,270.625 46.521,272.965 46.286,265.445 40.516,269.846 "
       i:knockout="Off" />
    <polygon
       transform="matrix(1.0545955,0,0,1.0547642,-2.3962914,-261.87465)"
       style="fill:none;stroke:#660c0b;stroke-width:0.94815505"
       id="polygon11592"
       points="22.842,262.48 26.074,261.168 29.313,262.48 26.074,254.928 22.842,262.48 "
       i:knockout="Off" />
    <path
       style="fill:none;stroke:#660c0b;stroke-width:1;stroke-linecap:square"
       id="path11594"
       d="M 0.89615576,34.00147 L 6.7396694,43.195849 C 6.7396694,43.195849 2.8070828,40.198209 2.9062148,40.26466 L 0.50068245,39.70458 L 0.89615576,34.00147 z "
       i:knockout="Off" />
    <path
       style="fill:none;stroke:#660c0a;stroke-width:1"
       id="path11596"
       d="M 37.628772,44.732641 C 37.628772,44.732641 44.089224,40.44397 47.385889,40.44397 L 46.528503,36.369415 L 37.628772,44.732641 z "
       i:knockout="Off" />
    <polygon
       transform="matrix(1.0545955,0,0,1.0547642,-2.3962914,-261.87465)"
       style="fill:url(#XMLID_56_)"
       id="polygon11603"
       points="25.496,277.205 12.113,270.313 26.631,264.086 40.053,270.678 25.496,277.205 "
       i:knockout="Off" />
    <g
       transform="matrix(1.0545955,0,0,1.0547642,-2.3962914,-261.87465)"
       id="g11605">
						<g
   id="g11607">
							<path
   style="fill:none;stroke:#660c0a;stroke-width:0.94815505"
   id="path11609"
   d="M 8.119,270.166 C 11.976,276.99 18.154,284.178 23.79,287.521 C 31.241,291.941 38.715,291.947 43.782,287.541 L 43.323,287.014 C 38.422,291.276 31.432,291.241 24.147,286.92 C 18.615,283.637 12.527,276.541 8.728,269.822 L 8.119,270.166 z "
   i:knockout="Off" />

						</g>

						<g
   id="g11611">
							<path
   style="fill:none;stroke:#660c0a;stroke-width:0.94815505"
   id="path11613"
   d="M 11.404,289.711 C 9.255,288.967 7.353,287.791 5.753,286.217 L 5.263,286.717 C 6.938,288.363 8.927,289.594 11.175,290.373 C 21.249,293.873 36.157,284.941 44.029,271.051 L 43.42,270.705 C 35.713,284.307 21.164,293.102 11.404,289.711 z "
   i:knockout="Off" />

						</g>

					</g>
    <g
       transform="matrix(1.0545955,0,0,1.0547642,-2.3962914,-261.87465)"
       id="g11615">
						<g
   id="g11617">
							<path
   style="fill:#ed2728"
   id="path11619"
   d="M 8.119,270.166 C 11.976,276.99 18.154,284.178 23.79,287.521 C 31.241,291.941 38.715,291.947 43.782,287.541 L 43.323,287.014 C 38.422,291.276 31.432,291.241 24.147,286.92 C 18.615,283.637 12.527,276.541 8.728,269.822 L 8.119,270.166 z "
   i:knockout="Off" />

						</g>

						<g
   id="g11621">
							<path
   style="fill:#ed2728"
   id="path11623"
   d="M 11.404,289.711 C 9.255,288.967 7.353,287.791 5.753,286.217 L 5.263,286.717 C 6.938,288.363 8.927,289.594 11.175,290.373 C 21.249,293.873 36.157,284.941 44.029,271.051 L 43.42,270.705 C 35.713,284.307 21.164,293.102 11.404,289.711 z "
   i:knockout="Off" />

						</g>

					</g>
    <polygon
       transform="matrix(1.0545955,0,0,1.0547642,-2.3962914,-261.87465)"
       style="fill:#ed2728"
       id="polygon11625"
       points="11.776,269.797 8.729,270.33 6.229,272.861 6.134,264.691 11.776,269.797 "
       i:knockout="Off" />
    <polygon
       transform="matrix(1.0545955,0,0,1.0547642,-2.3962914,-261.87465)"
       style="fill:#ed2728"
       id="polygon11627"
       points="40.516,269.846 43.947,270.625 46.521,272.965 46.286,265.445 40.516,269.846 "
       i:knockout="Off" />
    <polygon
       transform="matrix(1.0545955,0,0,1.0547642,-2.3962914,-261.87465)"
       style="fill:url(#XMLID_57_)"
       id="polygon11634"
       points="39.946,286.967 25.568,293.785 25.496,277.205 40.053,270.678 39.946,286.967 "
       i:knockout="Off" />
    <line
       style="fill:none;stroke:#e9eaeb;stroke-width:1"
       id="line11636"
       y2="23.626818"
       x2="39.843426"
       y1="30.51124"
       x1="24.491676"
       i:knockout="Off" />
    <polygon
       transform="matrix(1.0545955,0,0,1.0547642,-2.3962914,-261.87465)"
       style="fill:url(#XMLID_58_)"
       id="polygon11643"
       points="25.496,277.205 12.113,270.313 12.352,286.588 25.568,293.785 25.496,277.205 "
       i:knockout="Off" />
    <polyline
       transform="matrix(1.0545955,0,0,1.0547642,-2.3962914,-261.87465)"
       style="fill:none;stroke:#e9eaeb;stroke-width:0.94815505"
       id="polyline11645"
       points="12.113,270.313 25.496,277.205 25.568,293.785 "
       i:knockout="Off" />
    <polygon
       transform="matrix(1.0545955,0,0,1.0547642,-2.3962914,-261.87465)"
       style="fill:none;stroke:#192333;stroke-width:0.75852406"
       id="polygon11647"
       points="12.352,286.588 25.568,293.785 39.946,286.967 40.053,270.678 26.631,264.086 12.113,270.313 12.352,286.588 "
       i:knockout="Off" />
    <g
       transform="matrix(1.0545955,0,0,1.0547642,-2.3962914,-261.87465)"
       id="g11649">
						<rect
   style="fill:none;stroke:#660c0b;stroke-width:0.94815505"
   id="rect11651"
   height="11.066"
   width="0.699"
   i:knockout="Off"
   y="259.57999"
   x="25.729" />
 
					</g>
    <g
       transform="matrix(1.0545955,0,0,1.0547642,-2.3962914,-261.87465)"
       id="g11653">
						<rect
   style="fill:#ed2728"
   id="rect11655"
   height="11.066"
   width="0.699"
   i:knockout="Off"
   y="259.57999"
   x="25.729" />
 
					</g>
    <polygon
       transform="matrix(1.0545955,0,0,1.0547642,-2.3962914,-261.87465)"
       style="fill:#ed2728"
       id="polygon11657"
       points="22.842,262.48 26.074,261.168 29.313,262.48 26.074,254.928 22.842,262.48 "
       i:knockout="Off" />
    <polygon
       transform="matrix(1.0545955,0,0,1.0547642,-2.3962914,-261.87465)"
       style="fill:#ed2728"
       id="polygon11659"
       points="3.122,280.514 8.663,289.23 5.028,286.451 2.747,285.92 3.122,280.514 "
       i:knockout="Off" />
    <path
       style="fill:#ed2728"
       id="path11661"
       d="M 37.628771,44.73264 C 37.628771,44.73264 44.089223,40.443969 47.385889,40.443969 L 46.528503,36.369415 L 37.628771,44.73264 z "
       i:knockout="Off" />
  </g>
</svg>
